
<svg xmlns="http://www.w3.org/2000/svg" xmlns:xlink="http://www.w3.org/1999/xlink" width="24px" height="24px" viewBox="0 0 24 24" version="1.1">
<g id="surface1">
<defs>
  <style id="current-color-scheme" type="text/css">
   .ColorScheme-Text { color:#424242; } .ColorScheme-Highlight { color:#eeeeee; }
  </style>
 </defs>
<path style="fill:currentColor;fill-opacity:0.5" class="ColorScheme-Text" d="M 9 3 L 9 4.5 L 7.5 4.5 C 6.667969 4.5 6 5.167969 6 6 L 6 19.5 C 6 20.332031 6.667969 21 7.5 21 L 16.5 21 C 17.332031 21 18 20.332031 18 19.5 L 18 6 C 18 5.167969 17.332031 4.5 16.5 4.5 L 15 4.5 L 15 3 Z M 8.25 6 L 15.75 6 C 16.167969 6 16.5 6.332031 16.5 6.75 L 16.5 18.75 C 16.5 19.167969 16.167969 19.5 15.75 19.5 L 8.25 19.5 C 7.832031 19.5 7.5 19.167969 7.5 18.75 L 7.5 6.75 C 7.5 6.332031 7.832031 6 8.25 6 Z M 8.25 6 "/>
<path style=" stroke:none;fill-rule:nonzero;fill:rgb(100%,43.921569%,26.274511%);fill-opacity:1;" d="M 12 9 C 10.753906 9 9.75 10.003906 9.75 11.25 C 9.75 11.292969 9.769531 11.324219 9.769531 11.367188 L 11.25 11.367188 L 11.25 11.25 C 11.25 10.832031 11.582031 10.5 12 10.5 C 12.417969 10.5 12.75 10.832031 12.75 11.25 L 12.75 12 L 11.25 12 L 11.25 13.5 L 12.75 13.5 C 13.582031 13.5 14.25 12.832031 14.25 12 L 14.25 11.25 C 14.25 10.003906 13.246094 9 12 9 Z M 11.25 15 L 11.25 16.5 L 12.75 16.5 L 12.75 15 Z M 11.25 15 "/>
</g>
</svg>
