<?xml version="1.0" encoding="UTF-8"?>
<svg xmlns="http://www.w3.org/2000/svg" xmlns:xlink="http://www.w3.org/1999/xlink" width="24px" height="24px" viewBox="0 0 24 24" version="1.1">
<g id="surface1">
<path style=" stroke:none;fill-rule:nonzero;fill:rgb(25.882354%,25.882354%,25.882354%);fill-opacity:0.392157;" d="M 5.953125 17.550781 L 5.953125 20.03125 C 5.953125 20.582031 6.394531 21.027344 6.945312 21.027344 L 16.867188 21.027344 C 17.417969 21.027344 17.859375 20.582031 17.859375 20.03125 L 17.859375 17.550781 Z M 5.953125 17.550781 "/>
<path style=" stroke:none;fill-rule:nonzero;fill:rgb(25.882354%,25.882354%,25.882354%);fill-opacity:0.392157;" d="M 9.675781 3.164062 C 9.125 3.164062 8.683594 3.605469 8.683594 4.15625 L 8.683594 5.148438 L 6.945312 5.148438 C 6.394531 5.148438 5.953125 5.589844 5.953125 6.140625 L 5.953125 8.621094 L 9.441406 8.621094 C 10.070312 7.980469 10.945312 7.582031 11.910156 7.582031 C 12.871094 7.582031 13.746094 7.980469 14.375 8.621094 L 17.859375 8.621094 L 17.859375 6.140625 C 17.859375 5.589844 17.417969 5.148438 16.867188 5.148438 L 15.132812 5.148438 L 15.132812 4.15625 C 15.132812 3.605469 14.691406 3.164062 14.140625 3.164062 Z M 9.675781 3.164062 "/>
<path style=" stroke:none;fill-rule:nonzero;fill:rgb(25.882354%,25.882354%,25.882354%);fill-opacity:0.392157;" d="M 5.953125 9.613281 L 5.953125 12.589844 L 10.476562 12.589844 C 10.492188 12.527344 10.511719 12.460938 10.53125 12.402344 C 10.34375 12.488281 10.140625 12.539062 9.921875 12.539062 C 9.109375 12.539062 8.429688 11.851562 8.441406 11.039062 C 8.441406 10.53125 8.554688 10.050781 8.753906 9.613281 Z M 15.0625 9.613281 C 15.261719 10.050781 15.375 10.539062 15.375 11.046875 C 15.375 11.632812 15.203125 12.164062 14.910156 12.589844 L 17.859375 12.589844 L 17.859375 9.613281 Z M 11.910156 10.546875 C 11.59375 10.546875 11.40625 10.730469 11.40625 11.046875 L 11.40625 11.03125 C 11.410156 11.164062 11.386719 11.292969 11.355469 11.414062 C 11.398438 11.386719 11.453125 11.347656 11.492188 11.324219 C 11.847656 11.125 12.144531 11.03125 12.304688 10.960938 C 12.34375 10.945312 12.359375 10.933594 12.386719 10.917969 C 12.339844 10.683594 12.175781 10.546875 11.910156 10.546875 Z M 11.910156 10.546875 "/>
<path style=" stroke:none;fill-rule:nonzero;fill:rgb(25.882354%,25.882354%,25.882354%);fill-opacity:0.392157;" d="M 5.945312 13.582031 L 5.945312 16.558594 L 11.070312 16.558594 C 10.613281 16.273438 10.300781 15.765625 10.300781 15.195312 C 10.300781 14.796875 10.460938 14.429688 10.710938 14.144531 C 10.589844 13.976562 10.5 13.789062 10.457031 13.582031 Z M 13.703125 13.582031 C 13.628906 13.617188 13.558594 13.648438 13.496094 13.679688 C 13.390625 13.722656 13.394531 13.71875 13.304688 13.757812 C 13.257812 13.898438 13.191406 14.027344 13.105469 14.144531 C 13.355469 14.429688 13.515625 14.796875 13.515625 15.195312 C 13.515625 15.765625 13.203125 16.273438 12.746094 16.558594 L 17.855469 16.558594 L 17.855469 13.582031 Z M 11.910156 14.828125 C 11.722656 14.828125 11.539062 15.007812 11.539062 15.195312 C 11.539062 15.382812 11.722656 15.5625 11.910156 15.5625 C 12.09375 15.5625 12.277344 15.382812 12.277344 15.195312 C 12.277344 15.007812 12.09375 14.828125 11.910156 14.828125 Z M 11.910156 14.828125 "/>
<path style=" stroke:none;fill-rule:nonzero;fill:rgb(25.882354%,25.882354%,25.882354%);fill-opacity:1;" d="M 11.90625 8.566406 C 10.542969 8.566406 9.429688 9.683594 9.429688 11.046875 C 9.425781 11.226562 9.519531 11.394531 9.671875 11.484375 C 9.828125 11.574219 10.019531 11.574219 10.171875 11.484375 C 10.328125 11.394531 10.421875 11.226562 10.417969 11.046875 C 10.417969 10.214844 11.074219 9.558594 11.90625 9.558594 C 12.742188 9.558594 13.398438 10.214844 13.398438 11.046875 C 13.398438 11.308594 13.332031 11.425781 13.222656 11.542969 C 13.109375 11.660156 12.925781 11.765625 12.703125 11.867188 C 12.476562 11.964844 12.226562 12.046875 11.976562 12.1875 C 11.851562 12.257812 11.71875 12.34375 11.609375 12.484375 C 11.496094 12.625 11.414062 12.828125 11.414062 13.03125 L 11.414062 13.28125 C 11.410156 13.460938 11.503906 13.625 11.660156 13.714844 C 11.8125 13.804688 12.003906 13.804688 12.15625 13.714844 C 12.3125 13.625 12.40625 13.460938 12.402344 13.28125 L 12.402344 13.085938 C 12.417969 13.078125 12.433594 13.066406 12.460938 13.050781 C 12.582031 12.980469 12.828125 12.890625 13.097656 12.773438 C 13.371094 12.652344 13.683594 12.5 13.945312 12.222656 C 14.203125 11.941406 14.386719 11.53125 14.386719 11.046875 C 14.386719 9.683594 13.273438 8.566406 11.90625 8.566406 Z M 11.90625 14.574219 C 11.566406 14.574219 11.289062 14.851562 11.289062 15.195312 C 11.289062 15.539062 11.566406 15.816406 11.90625 15.816406 C 12.25 15.816406 12.527344 15.539062 12.527344 15.195312 C 12.527344 14.851562 12.25 14.574219 11.90625 14.574219 Z M 11.90625 14.574219 "/>
</g>
</svg>
