<?xml version="1.0" encoding="UTF-8"?>
<svg xmlns="http://www.w3.org/2000/svg" xmlns:xlink="http://www.w3.org/1999/xlink" width="16px" height="16px" viewBox="0 0 16 16" version="1.1">
<g id="surface1">
<path style=" stroke:none;fill-rule:nonzero;fill:rgb(87.843138%,87.843138%,87.843138%);fill-opacity:1;" d="M 7.9375 3.101562 C 5.738281 3.101562 3.96875 4.871094 3.96875 7.070312 L 3.96875 12.363281 C 3.96875 12.730469 4.265625 13.023438 4.628906 13.023438 L 5.292969 13.023438 C 5.660156 13.023438 5.953125 12.730469 5.953125 12.363281 L 5.953125 10.046875 L 9.921875 10.046875 L 9.921875 12.363281 C 9.921875 12.730469 10.21875 13.023438 10.585938 13.023438 L 11.246094 13.023438 C 11.613281 13.023438 11.90625 12.730469 11.90625 12.363281 L 11.90625 7.070312 C 11.90625 4.871094 10.136719 3.101562 7.9375 3.101562 Z M 7.9375 5.085938 C 9.039062 5.085938 9.921875 5.972656 9.921875 7.070312 L 9.921875 8.0625 L 5.953125 8.0625 L 5.953125 7.070312 C 5.953125 5.972656 6.839844 5.085938 7.9375 5.085938 Z M 7.9375 5.085938 "/>
<path style=" stroke:none;fill-rule:nonzero;fill:rgb(87.843138%,87.843138%,87.843138%);fill-opacity:1;" d="M 7.9375 2.542969 C 5.4375 2.542969 3.410156 4.570312 3.410156 7.070312 L 3.410156 12.363281 C 3.410156 13.03125 3.964844 13.585938 4.628906 13.585938 L 5.292969 13.585938 C 5.960938 13.585938 6.515625 13.03125 6.515625 12.363281 L 6.515625 10.609375 L 9.363281 10.609375 L 9.363281 12.363281 C 9.363281 13.03125 9.917969 13.585938 10.585938 13.585938 L 11.246094 13.585938 C 11.914062 13.585938 12.46875 13.03125 12.46875 12.363281 L 12.46875 7.070312 C 12.46875 4.570312 10.4375 2.542969 7.9375 2.542969 Z M 7.9375 3.660156 C 9.835938 3.660156 11.347656 5.171875 11.347656 7.070312 L 11.347656 12.363281 C 11.347656 12.429688 11.3125 12.464844 11.246094 12.464844 L 10.585938 12.464844 C 10.519531 12.464844 10.484375 12.429688 10.484375 12.363281 L 10.484375 10.046875 C 10.484375 9.738281 10.230469 9.488281 9.921875 9.488281 L 5.953125 9.488281 C 5.644531 9.488281 5.394531 9.738281 5.394531 10.046875 L 5.394531 12.363281 C 5.394531 12.429688 5.359375 12.464844 5.292969 12.464844 L 4.628906 12.464844 C 4.566406 12.464844 4.527344 12.429688 4.527344 12.363281 L 4.527344 7.070312 C 4.527344 5.171875 6.039062 3.660156 7.9375 3.660156 Z M 7.9375 4.527344 C 6.539062 4.527344 5.394531 5.671875 5.394531 7.070312 L 5.394531 8.0625 C 5.394531 8.371094 5.644531 8.625 5.953125 8.625 L 9.921875 8.625 C 10.230469 8.625 10.484375 8.371094 10.484375 8.0625 L 10.484375 7.070312 C 10.484375 5.671875 9.339844 4.527344 7.9375 4.527344 Z M 7.9375 5.648438 C 8.738281 5.648438 9.363281 6.273438 9.363281 7.070312 L 9.363281 7.503906 L 6.515625 7.503906 L 6.515625 7.070312 C 6.515625 6.273438 7.140625 5.648438 7.9375 5.648438 Z M 7.9375 5.648438 "/>
</g>
</svg>
