<svg height="16" viewBox="0 0 16 16" width="16" xmlns="http://www.w3.org/2000/svg"><g fill="#e0e0e0"><path d="m12.851562 3.152344c-2.722656-2.722656-7.105468-2.722656-9.824218 0-2.722656 2.71875-2.722656 7.101562 0 9.824218 2.71875 2.71875 7.101562 2.71875 9.824218 0 2.71875-2.722656 2.71875-7.105468 0-9.824218zm-1.871093 1.871094c1.683593 1.683593 1.683593 4.394531 0 6.082031-1.6875 1.683593-4.398438 1.683593-6.082031 0-1.683594-1.6875-1.683594-4.398438 0-6.082031 1.683593-1.683594 4.394531-1.683594 6.082031 0zm0 0" fill-opacity=".392157"/><path d="m14.882812 8.0625c0-1.058594-.234374-2.0625-.65625-2.960938l-2.394531 1.128907c.261719.554687.40625 1.175781.40625 1.832031s-.144531 1.277344-.40625 1.832031l2.394531 1.128907c.421876-.898438.65625-1.898438.65625-2.960938zm-3.984374-6.289062c-.898438-.421876-1.898438-.65625-2.960938-.65625-1.058594 0-2.0625.234374-2.960938.65625l1.128907 2.394531c.554687-.257813 1.175781-.40625 1.832031-.40625s1.277344.148437 1.832031.40625zm0 12.578124-1.128907-2.394531c-.554687.261719-1.175781.40625-1.832031.40625s-1.277344-.144531-1.832031-.40625l-1.128907 2.394531c.898438.421876 1.902344.65625 2.960938.65625 1.0625 0 2.0625-.234374 2.960938-.65625zm-6.855469-8.121093-2.394531-1.128907c-.421876.898438-.65625 1.902344-.65625 2.960938 0 1.0625.234374 2.0625.65625 2.960938l2.394531-1.128907c-.257813-.554687-.40625-1.175781-.40625-1.832031s.148437-1.277344.40625-1.832031zm0 0"/></g></svg>