<?xml version="1.0" encoding="UTF-8"?>
<svg xmlns="http://www.w3.org/2000/svg" xmlns:xlink="http://www.w3.org/1999/xlink" width="16px" height="16px" viewBox="0 0 16 16" version="1.1">
<g id="surface1">
<path style=" stroke:none;fill-rule:nonzero;fill:rgb(87.843138%,87.843138%,87.843138%);fill-opacity:1;" d="M 3.308594 2.109375 C 2.574219 2.109375 1.984375 2.699219 1.984375 3.433594 L 1.984375 11.371094 L 13.890625 11.371094 L 13.890625 3.433594 C 13.890625 2.699219 13.300781 2.109375 12.570312 2.109375 Z M 7.9375 4.09375 C 8.304688 4.09375 8.601562 4.390625 8.601562 4.753906 L 8.601562 6.078125 L 9.921875 6.078125 C 10.289062 6.078125 10.585938 6.375 10.585938 6.738281 C 10.585938 7.105469 10.289062 7.402344 9.921875 7.402344 L 8.601562 7.402344 L 8.601562 8.726562 C 8.601562 9.089844 8.304688 9.386719 7.9375 9.386719 C 7.570312 9.386719 7.277344 9.089844 7.277344 8.726562 L 7.277344 7.402344 L 5.953125 7.402344 C 5.585938 7.402344 5.292969 7.105469 5.292969 6.738281 C 5.292969 6.375 5.585938 6.078125 5.953125 6.078125 L 7.277344 6.078125 L 7.277344 4.753906 C 7.277344 4.390625 7.570312 4.09375 7.9375 4.09375 Z M 7.9375 4.09375 "/>
<path style=" stroke:none;fill-rule:nonzero;fill:rgb(87.843138%,87.843138%,87.843138%);fill-opacity:1;" d="M 1.324219 12.03125 L 14.554688 12.03125 L 14.554688 14.015625 L 1.324219 14.015625 Z M 1.324219 12.03125 "/>
</g>
</svg>
