<?xml version="1.0" encoding="UTF-8"?>
<svg xmlns="http://www.w3.org/2000/svg" xmlns:xlink="http://www.w3.org/1999/xlink" width="16pt" height="16pt" viewBox="0 0 16 16" version="1.1">
<g id="surface1">
<path style=" stroke:none;fill-rule:nonzero;fill:rgb(74.117647%,74.117647%,74.117647%);fill-opacity:1;" d="M 2.316406 1.117188 C 1.582031 1.117188 0.992188 1.679688 0.992188 2.375 L 0.992188 6.144531 C 0.992188 6.839844 1.582031 7.402344 2.316406 7.402344 L 5.953125 7.402344 C 6.6875 7.402344 7.277344 6.839844 7.277344 6.144531 L 7.277344 2.375 C 7.277344 1.679688 6.6875 1.117188 5.953125 1.117188 Z M 2.8125 2.441406 L 5.457031 2.441406 C 5.730469 2.441406 5.953125 2.660156 5.953125 2.9375 L 5.953125 5.582031 C 5.953125 5.855469 5.730469 6.078125 5.457031 6.078125 L 2.8125 6.078125 C 2.535156 6.078125 2.316406 5.855469 2.316406 5.582031 L 2.316406 2.9375 C 2.316406 2.660156 2.535156 2.441406 2.8125 2.441406 Z M 2.8125 2.441406 "/>
<path style=" stroke:none;fill-rule:nonzero;fill:rgb(74.117647%,74.117647%,74.117647%);fill-opacity:1;" d="M 2.316406 8.726562 C 1.582031 8.726562 0.992188 9.285156 0.992188 9.980469 L 0.992188 13.753906 C 0.992188 14.449219 1.582031 15.007812 2.316406 15.007812 L 5.953125 15.007812 C 6.6875 15.007812 7.277344 14.449219 7.277344 13.753906 L 7.277344 9.980469 C 7.277344 9.285156 6.6875 8.726562 5.953125 8.726562 Z M 2.8125 10.046875 L 5.457031 10.046875 C 5.730469 10.046875 5.953125 10.269531 5.953125 10.542969 L 5.953125 13.191406 C 5.953125 13.464844 5.730469 13.6875 5.457031 13.6875 L 2.8125 13.6875 C 2.535156 13.6875 2.316406 13.464844 2.316406 13.191406 L 2.316406 10.542969 C 2.316406 10.269531 2.535156 10.046875 2.8125 10.046875 Z M 2.8125 10.046875 "/>
<path style=" stroke:none;fill-rule:nonzero;fill:rgb(74.117647%,74.117647%,74.117647%);fill-opacity:1;" d="M 9.921875 8.726562 C 9.191406 8.726562 8.601562 9.285156 8.601562 9.980469 L 8.601562 13.753906 C 8.601562 14.449219 9.191406 15.007812 9.921875 15.007812 L 13.5625 15.007812 C 14.292969 15.007812 14.882812 14.449219 14.882812 13.753906 L 14.882812 9.980469 C 14.882812 9.285156 14.292969 8.726562 13.5625 8.726562 Z M 10.417969 10.046875 L 13.066406 10.046875 C 13.339844 10.046875 13.5625 10.269531 13.5625 10.542969 L 13.5625 13.191406 C 13.5625 13.464844 13.339844 13.6875 13.066406 13.6875 L 10.417969 13.6875 C 10.144531 13.6875 9.921875 13.464844 9.921875 13.191406 L 9.921875 10.542969 C 9.921875 10.269531 10.144531 10.046875 10.417969 10.046875 Z M 10.417969 10.046875 "/>
<path style=" stroke:none;fill-rule:nonzero;fill:rgb(74.117647%,74.117647%,74.117647%);fill-opacity:1;" d="M 9.921875 1.117188 C 9.191406 1.117188 8.601562 1.679688 8.601562 2.375 L 8.601562 6.144531 C 8.601562 6.839844 9.191406 7.402344 9.921875 7.402344 L 13.5625 7.402344 C 14.292969 7.402344 14.882812 6.839844 14.882812 6.144531 L 14.882812 2.375 C 14.882812 1.679688 14.292969 1.117188 13.5625 1.117188 Z M 10.417969 2.441406 L 13.066406 2.441406 C 13.339844 2.441406 13.5625 2.660156 13.5625 2.9375 L 13.5625 5.582031 C 13.5625 5.859375 13.339844 6.078125 13.066406 6.078125 L 10.417969 6.078125 C 10.144531 6.078125 9.921875 5.859375 9.921875 5.582031 L 9.921875 2.9375 C 9.921875 2.660156 10.144531 2.441406 10.417969 2.441406 Z M 10.417969 2.441406 "/>
</g>
</svg>
