<svg height="32pt" viewBox="0 0 32 32" width="32pt" xmlns="http://www.w3.org/2000/svg" xmlns:xlink="http://www.w3.org/1999/xlink"><linearGradient id="a"><stop offset="0" stop-opacity=".314"/><stop offset=".222" stop-opacity=".275"/><stop offset="1" stop-opacity="0"/></linearGradient><radialGradient id="b" cx="450.909" cy="189.579" gradientTransform="matrix(0 -.07813 -.14064 0 44.523 63.595)" gradientUnits="userSpaceOnUse" r="21.167" xlink:href="#a"/><radialGradient id="c" cx="450.909" cy="189.579" gradientTransform="matrix(0 .07813 .14064 0 -12.77 -7.527)" gradientUnits="userSpaceOnUse" r="21.167" xlink:href="#a"/><radialGradient id="d" cx="450.909" cy="189.579" gradientTransform="matrix(0 -.07813 .14064 0 -12.77 63.595)" gradientUnits="userSpaceOnUse" r="21.167" xlink:href="#a"/><radialGradient id="e" cx="450.909" cy="189.579" gradientTransform="matrix(0 .07813 -.14064 0 44.523 -7.527)" gradientUnits="userSpaceOnUse" r="21.167" xlink:href="#a"/><linearGradient id="f" gradientTransform="matrix(.01336 0 0 .0625 12.465 13.439)" gradientUnits="userSpaceOnUse" x1="255.323" x2="255.323" y1="233.5" y2="254.667"><stop offset="0" stop-opacity=".275"/><stop offset="1" stop-opacity="0"/></linearGradient><linearGradient id="g" gradientUnits="userSpaceOnUse" x1="15.875" x2="15.875" y1="12.15775" y2="28.03275"><stop offset="0" stop-color="#616161"/><stop offset="1" stop-color="#424242"/></linearGradient><linearGradient id="h" gradientTransform="matrix(.016538 .0002572 -.0002572 .016538 0 0)" gradientUnits="userSpaceOnUse" x1="960" x2="960" y1="735.118" y2="175.118"><stop offset="0" stop-color="#616161"/><stop offset="1" stop-color="#757575"/></linearGradient><linearGradient id="i" gradientUnits="userSpaceOnUse" x1="254" x2="254" y1="21.834" y2="-84"><stop offset="0" stop-color="#616161"/><stop offset="1" stop-color="#9e9e9e"/></linearGradient><path d="m13.23 2.895h5.293a6.617 6.617 0 0 1 6.614 6.617v11.906a6.617 6.617 0 0 1 -6.614 6.617h-5.293a6.62 6.62 0 0 1 -6.617-6.617v-11.906a6.62 6.62 0 0 1 6.617-6.617zm0 0" fill="#fbc02d" stroke="#212121" stroke-linecap="square" stroke-linejoin="round" stroke-width=".18753"/><path d="m18.191 28.035h2.649v-1.324h-2.65zm0 0" fill="url(#b)"/><path d="m13.563 28.035h-2.649v1.32h2.649zm0 0" fill="url(#c)"/><path d="m13.563 28.035h-2.649v-1.324h2.649zm0 0" fill="url(#d)"/><path d="m18.191 28.035h2.649v1.32h-2.65zm0 0" fill="url(#e)"/><path d="m13.563 27.703h4.628v1.652h-4.628zm0 0" fill="url(#f)"/><path d="m13.23 2.895a6.605 6.605 0 0 0 -6.617 6.617v3.968c.735 0 1.324.59 1.324 1.325v6.613c0 .691-.519 1.254-1.19 1.316a6.597 6.597 0 0 0 6.483 5.301h5.293a6.6 6.6 0 0 0 6.485-5.3 1.314 1.314 0 0 1 -1.192-1.317v-6.613c0-.735.59-1.325 1.32-1.325v-3.968a6.602 6.602 0 0 0 -6.613-6.617zm0 0" fill="url(#g)"/><path d="m13.23 2.895a6.605 6.605 0 0 0 -6.617 6.617v2.644h18.524v-2.644a6.602 6.602 0 0 0 -6.614-6.617zm0 0" fill="url(#h)"/><path d="m13.23 2.895a6.605 6.605 0 0 0 -6.617 6.617v2.644h9.262v-9.261zm0 0" fill="url(#h)"/><path d="m16.043 2.895v9.261h-.168v-9.261zm0 0" fill-opacity=".196"/><path d="m15.875 2.895v9.261h-.164v-9.261zm0 0" fill="#e6e6e6" fill-opacity=".588"/><path d="m15.96 2.895v9.261h-.167v-9.261zm0 0" fill="#212121" fill-opacity=".992"/><path d="m6.613 11.992h18.524v.164h-18.524zm0 0" fill-opacity=".196"/><path d="m6.613 12.156h18.524v.168h-18.524zm0 0" fill="#e6e6e6" fill-opacity=".588"/><path d="m6.613 12.074h18.524v.164h-18.524zm0 0" fill="#212121" fill-opacity=".992"/><path d="m253.976-84.013c11.686 0 21.185 4.75 21.185 10.624v84.617c0 5.875-9.499 10.624-21.185 10.624-11.687 0-21.123-4.75-21.123-10.624v-84.617c0-5.874 9.436-10.624 21.123-10.624zm0 0" fill="url(#i)" stroke="#212121" stroke-linecap="square" stroke-linejoin="round" stroke-width="3" transform="matrix(.0625 0 0 .0625 0 13.439)"/><path d="m17.152 23.098a1.332 1.332 0 0 1 -1.363.965 1.324 1.324 0 1 1 1.21-2.02l-1.124.7zm0 0" fill="#fbc02d" stroke="#212121" stroke-linecap="square" stroke-linejoin="round" stroke-width=".18753"/><path d="m13.23 2.809a6.602 6.602 0 0 0 -6.617 6.613v.332a6.605 6.605 0 0 1 6.617-6.617h5.293a6.602 6.602 0 0 1 6.614 6.617v-.332a6.598 6.598 0 0 0 -6.614-6.613zm-5.293 18.523c0 .688-.519 1.25-1.19 1.316.019.106.046.215.073.32a1.321 1.321 0 0 0 1.117-1.308zm15.88 0v.328c0 .664.484 1.211 1.117 1.309.027-.106.05-.215.074-.32a1.32 1.32 0 0 1 -1.192-1.317zm0 0" fill="#fff" fill-opacity=".314"/><path d="m6.738 13.242v.324c.735 0 1.324.59 1.324 1.32v-.323c0-.731-.59-1.32-1.324-1.32zm18.524 0a1.32 1.32 0 0 0 -1.325 1.32v.325c0-.73.59-1.32 1.325-1.32zm-18.32 9.57c-.024.004-.051.004-.075.008a6.601 6.601 0 0 0 6.488 5.297h5.29a6.601 6.601 0 0 0 6.488-5.297c-.028-.004-.051-.004-.074-.008a6.6 6.6 0 0 1 -6.414 4.981h-5.29a6.6 6.6 0 0 1 -6.414-4.98zm0 0" fill-opacity=".314"/><path d="m13.23 2.8a6.7 6.7 0 0 0 -6.71 6.712v3.968c0 .051.043.094.093.094.684 0 1.23.547 1.23 1.23v6.614c0 .64-.484 1.164-1.109 1.223a.107.107 0 0 0 -.062.039c-.02.02-.024.047-.02.074a6.697 6.697 0 0 0 6.578 5.375h5.293c3.258 0 5.961-2.3 6.579-5.375a.098.098 0 0 0 -.02-.074.106.106 0 0 0 -.066-.04 1.22 1.22 0 0 1 -1.106-1.222v-6.613c0-.684.547-1.23 1.227-1.23a.093.093 0 0 0 .093-.095v-3.968a6.697 6.697 0 0 0 -6.707-6.712zm0 .188h5.293c3.614 0 6.52 2.91 6.52 6.524v3.879c-.738.05-1.32.66-1.32 1.414v6.613c0 .7.504 1.281 1.172 1.395a6.509 6.509 0 0 1 -6.372 5.128h-5.293a6.506 6.506 0 0 1 -6.37-5.128 1.412 1.412 0 0 0 1.171-1.395v-6.613c0-.754-.582-1.364-1.324-1.414v-3.881a6.51 6.51 0 0 1 6.523-6.523zm0 0" fill="#212121"/></svg>