<svg xmlns="http://www.w3.org/2000/svg" width="512pt" height="512pt" viewBox="0 0 512 512"><path d="M52.922 25.168c-17.59 0-31.754 14.164-31.754 31.754v402.203c0 17.594 14.164 31.754 31.754 31.754h402.203a31.682 31.682 0 0 0 31.754-31.754V56.922c0-17.59-14.16-31.754-31.754-31.754zM74.09 56.922h359.867a21.122 21.122 0 0 1 21.168 21.168v359.867a21.12 21.12 0 0 1-21.168 21.168H74.09a21.12 21.12 0 0 1-21.168-21.168V78.09A21.122 21.122 0 0 1 74.09 56.922zm0 0" fill="#bdbdbd"/><path d="M137.598 109.844a31.682 31.682 0 0 0-31.754 31.754v232.855c0 17.59 14.16 31.754 31.754 31.754h63.504c17.593 0 31.753-14.164 31.753-31.754V141.598a31.682 31.682 0 0 0-31.753-31.754zm10.582 31.754h42.34a10.558 10.558 0 0 1 10.582 10.582v211.687a10.561 10.561 0 0 1-10.582 10.586h-42.34a10.561 10.561 0 0 1-10.582-10.586V152.18a10.558 10.558 0 0 1 10.582-10.582zm0 0M306.945 109.844c-17.59 0-31.754 14.16-31.754 31.754v232.855c0 17.59 14.164 31.754 31.754 31.754h63.508c17.59 0 31.75-14.164 31.75-31.754V141.598c0-17.594-14.16-31.754-31.75-31.754zm10.586 31.754h42.336a10.561 10.561 0 0 1 10.586 10.582v211.687a10.564 10.564 0 0 1-10.586 10.586h-42.336a10.564 10.564 0 0 1-10.586-10.586V152.18a10.561 10.561 0 0 1 10.586-10.582zm0 0" fill="#78909c"/></svg>