<?xml version="1.0" encoding="UTF-8"?>
<svg xmlns="http://www.w3.org/2000/svg" xmlns:xlink="http://www.w3.org/1999/xlink" width="512pt" height="512pt" viewBox="0 0 512 512" version="1.1">
<g id="surface1">
<path style=" stroke:none;fill-rule:nonzero;fill:rgb(74.117649%,74.117649%,74.117649%);fill-opacity:1;" d="M 169.347656 46.335938 C 145.894531 46.335938 127.011719 65.21875 127.011719 88.675781 L 127.011719 131.011719 L 63.507812 131.011719 C 40.050781 131.011719 21.167969 149.894531 21.167969 173.351562 L 21.167969 427.375 C 21.167969 450.828125 40.050781 469.710938 63.507812 469.710938 L 444.542969 469.710938 C 467.996094 469.710938 486.878906 450.828125 486.878906 427.375 L 486.878906 226.269531 L 275.191406 226.269531 C 263.464844 226.269531 254.023438 216.832031 254.023438 205.101562 L 254.023438 131.011719 L 158.765625 131.011719 L 158.765625 99.257812 C 158.765625 87.53125 168.207031 78.089844 179.933594 78.089844 L 275.191406 78.089844 L 275.191406 46.335938 Z M 74.089844 162.765625 L 222.269531 162.765625 L 222.269531 215.6875 C 222.269531 239.140625 241.152344 258.023438 264.609375 258.023438 L 455.125 258.023438 L 455.125 416.789062 C 455.125 428.515625 445.683594 437.957031 433.957031 437.957031 L 74.089844 437.957031 C 62.363281 437.957031 52.921875 428.515625 52.921875 416.789062 L 52.921875 183.933594 C 52.921875 172.207031 62.363281 162.765625 74.089844 162.765625 Z M 74.089844 162.765625 "/>
<path style=" stroke:none;fill-rule:nonzero;fill:rgb(14.901961%,65.098041%,60.392159%);fill-opacity:1;" d="M 317.53125 109.84375 L 444.542969 109.84375 C 453.3125 109.84375 460.417969 116.953125 460.417969 125.71875 C 460.417969 134.488281 453.3125 141.597656 444.542969 141.597656 L 317.53125 141.597656 C 308.761719 141.597656 301.652344 134.488281 301.652344 125.71875 C 301.652344 116.953125 308.761719 109.84375 317.53125 109.84375 Z M 317.53125 109.84375 "/>
<path style=" stroke:none;fill-rule:nonzero;fill:rgb(14.901961%,65.098041%,60.392159%);fill-opacity:1;" d="M 396.914062 62.214844 L 396.914062 189.226562 C 396.914062 197.996094 389.804688 205.101562 381.035156 205.101562 C 372.269531 205.101562 365.160156 197.996094 365.160156 189.226562 L 365.160156 62.214844 C 365.160156 53.445312 372.269531 46.335938 381.035156 46.335938 C 389.804688 46.335938 396.914062 53.445312 396.914062 62.214844 Z M 396.914062 62.214844 "/>
</g>
</svg>
