<?xml version="1.0" encoding="UTF-8"?>
<svg xmlns="http://www.w3.org/2000/svg" xmlns:xlink="http://www.w3.org/1999/xlink" width="512pt" height="512pt" viewBox="0 0 512 512" version="1.1">
<g id="surface1">
<path style=" stroke:none;fill-rule:nonzero;fill:rgb(74.117649%,74.117649%,74.117649%);fill-opacity:1;" d="M 254.023438 67.507812 C 206.835938 67.507812 165.820312 86.613281 143.917969 115.117188 L 179.121094 137.117188 C 192.484375 120.828125 218.21875 109.84375 247.910156 109.84375 L 260.136719 109.84375 C 303.660156 109.84375 338.699219 133.445312 338.699219 162.765625 L 338.699219 226.269531 C 316.257812 211.242188 286.613281 202.128906 254.023438 202.128906 C 183.660156 202.128906 127.011719 244.613281 127.011719 297.386719 L 127.011719 307.972656 L 127.78125 307.972656 C 134.761719 355.726562 188.429688 392.648438 254.023438 392.648438 C 286.617188 392.648438 316.257812 383.527344 338.699219 368.5 L 338.699219 390.328125 L 381.035156 390.328125 L 381.035156 162.765625 C 381.035156 109.992188 324.390625 67.507812 254.023438 67.507812 Z M 247.910156 244.464844 L 260.136719 244.464844 C 303.660156 244.464844 338.699219 268.070312 338.699219 297.386719 C 338.699219 326.707031 303.660156 350.308594 260.136719 350.308594 L 247.910156 350.308594 C 204.386719 350.308594 169.347656 326.707031 169.347656 297.386719 C 169.347656 268.070312 204.386719 244.464844 247.910156 244.464844 Z M 247.910156 244.464844 "/>
<path style=" stroke:none;fill-rule:nonzero;fill:rgb(74.117649%,74.117649%,74.117649%);fill-opacity:1;" d="M 74.089844 427.375 L 433.957031 427.375 L 433.957031 469.710938 L 74.089844 469.710938 Z M 74.089844 427.375 "/>
</g>
</svg>
