<svg xmlns="http://www.w3.org/2000/svg" width="512pt" height="512pt" viewBox="0 0 512 512"><path d="M254.023 67.508c-47.187 0-88.203 19.105-110.105 47.61l35.203 22c13.363-16.29 39.098-27.274 68.79-27.274h12.226c43.523 0 78.562 23.601 78.562 52.922v63.504c-22.441-15.028-52.086-24.141-84.676-24.141-70.363 0-127.011 42.484-127.011 95.258v10.586h.77c6.98 47.754 60.648 84.675 126.241 84.675 32.594 0 62.235-9.12 84.676-24.148v21.828h42.336V162.766c0-52.774-56.644-95.258-127.012-95.258zm-6.113 176.957h12.227c43.523 0 78.562 23.605 78.562 52.922 0 29.32-35.039 52.922-78.562 52.922H247.91c-43.523 0-78.562-23.602-78.562-52.922 0-29.317 35.039-52.922 78.562-52.922zm0 0" fill="#78909c"/><path d="M100.55 437.957h306.946c8.77 0 15.879 7.11 15.879 15.879 0 8.766-7.11 15.875-15.879 15.875H100.551c-8.77 0-15.875-7.11-15.875-15.875 0-8.77 7.105-15.879 15.875-15.879zm0 0" fill="#26a69a"/></svg>