<svg xmlns="http://www.w3.org/2000/svg" width="512pt" height="512pt" viewBox="0 0 512 512"><path d="M105.844 459.129v-21.172c0-5.844 4.738-10.582 10.586-10.582h21.168c5.843 0 10.582 4.738 10.582 10.582v21.172c0 5.844-4.739 10.582-10.582 10.582H116.43c-5.848 0-10.586-4.738-10.586-10.582zm0 0M105.844 78.09V56.922c0-5.844 4.738-10.586 10.586-10.586h21.168c5.843 0 10.582 4.742 10.582 10.586V78.09c0 5.847-4.739 10.586-10.582 10.586H116.43c-5.848 0-10.586-4.739-10.586-10.586zm0 0M359.867 78.09V56.922c0-5.844 4.738-10.586 10.586-10.586h21.168c5.844 0 10.586 4.742 10.586 10.586V78.09c0 5.847-4.742 10.586-10.586 10.586h-21.168c-5.848 0-10.586-4.739-10.586-10.586zm0 0M359.867 459.129v-21.172c0-5.844 4.738-10.582 10.586-10.582h21.168c5.844 0 10.586 4.738 10.586 10.582v21.172c0 5.844-4.742 10.582-10.586 10.582h-21.168c-5.848 0-10.586-4.738-10.586-10.582zm0 0M232.855 332.113v-21.168c0-5.843 4.739-10.582 10.586-10.582h21.168c5.844 0 10.582 4.739 10.582 10.582v21.168c0 5.848-4.738 10.586-10.582 10.586h-21.168c-5.847 0-10.586-4.738-10.586-10.586zm0 0M232.855 205.102v-21.168c0-5.844 4.739-10.582 10.586-10.582h21.168c5.844 0 10.582 4.738 10.582 10.582v21.168c0 5.847-4.738 10.585-10.582 10.585h-21.168c-5.847 0-10.586-4.738-10.586-10.585zm0 0" fill="#78909c"/><path d="M42.336 353.285c0 17.59 14.164 31.75 31.754 31.75h105.844c17.59 0 31.754-14.16 31.754-31.75v-190.52c0-17.59-14.165-31.753-31.754-31.753H74.09c-17.59 0-31.754 14.164-31.754 31.754zm31.754-21.172v-148.18a21.122 21.122 0 0 1 21.168-21.167h63.508a21.122 21.122 0 0 1 21.168 21.168v148.18a21.123 21.123 0 0 1-21.168 21.171H95.258a21.123 21.123 0 0 1-21.168-21.172zm0 0M296.363 353.285v-190.52c0-17.535 14.215-31.753 31.75-31.753h105.844c17.54 0 31.754 14.218 31.754 31.754v190.52c0 17.534-14.215 31.75-31.754 31.75H328.113c-17.535 0-31.75-14.216-31.75-31.75zm0 0" fill="#bdbdbd"/></svg>