<?xml version="1.0" encoding="UTF-8"?>
<svg xmlns="http://www.w3.org/2000/svg" xmlns:xlink="http://www.w3.org/1999/xlink" width="512pt" height="512pt" viewBox="0 0 512 512" version="1.1">
<g id="surface1">
<path style=" stroke:none;fill-rule:nonzero;fill:rgb(74.117649%,74.117649%,74.117649%);fill-opacity:1;" d="M 232.855469 194.519531 L 232.855469 490.878906 L 359.867188 490.878906 L 359.867188 332.113281 L 444.542969 332.113281 L 444.542969 194.519531 Z M 275.191406 236.855469 L 402.203125 236.855469 L 402.203125 289.777344 L 317.53125 289.777344 L 317.53125 448.542969 L 275.191406 448.542969 Z M 275.191406 236.855469 "/>
<path style=" stroke:none;fill-rule:evenodd;fill:rgb(74.117649%,74.117649%,74.117649%);fill-opacity:1;" d="M 190.519531 25.167969 C 120.152344 25.167969 63.507812 81.816406 63.507812 152.179688 L 63.507812 490.878906 L 190.519531 490.878906 L 190.519531 173.351562 C 190.519531 161.621094 199.960938 152.179688 211.6875 152.179688 L 423.375 152.179688 L 423.375 25.167969 Z M 190.519531 67.507812 L 381.035156 67.507812 L 381.035156 109.84375 L 190.519531 109.84375 C 167.0625 109.84375 148.179688 128.726562 148.179688 152.179688 L 148.179688 448.542969 L 105.84375 448.542969 L 105.84375 152.179688 C 105.84375 105.269531 143.609375 67.507812 190.519531 67.507812 Z M 190.519531 67.507812 "/>
</g>
</svg>
