<?xml version="1.0" encoding="UTF-8" standalone="no"?>
<!-- Created with Inkscape (http://www.inkscape.org/) -->

<svg
   xmlns:dc="http://purl.org/dc/elements/1.1/"
   xmlns:cc="http://creativecommons.org/ns#"
   xmlns:rdf="http://www.w3.org/1999/02/22-rdf-syntax-ns#"
   xmlns:svg="http://www.w3.org/2000/svg"
   xmlns="http://www.w3.org/2000/svg"
   xmlns:sodipodi="http://sodipodi.sourceforge.net/DTD/sodipodi-0.dtd"
   xmlns:inkscape="http://www.inkscape.org/namespaces/inkscape"
   width="512mm"
   height="512mm"
   viewBox="0 0 512 512"
   version="1.1"
   id="svg3705"
   inkscape:version="0.92.2 2405546, 2018-03-11"
   sodipodi:docname="view-preview.svg">
  <defs
     id="defs3699" />
  <sodipodi:namedview
     id="base"
     pagecolor="#ffffff"
     bordercolor="#666666"
     borderopacity="1.0"
     inkscape:pageopacity="0.0"
     inkscape:pageshadow="2"
     inkscape:zoom="0.30182666"
     inkscape:cx="80.623652"
     inkscape:cy="1501.5432"
     inkscape:document-units="mm"
     inkscape:current-layer="layer1"
     showgrid="true"
     showguides="true"
     inkscape:guide-bbox="true"
     inkscape:window-width="1920"
     inkscape:window-height="1025"
     inkscape:window-x="0"
     inkscape:window-y="30"
     inkscape:window-maximized="1"
     inkscape:measure-start="0,0"
     inkscape:measure-end="0,0">
    <inkscape:grid
       type="xygrid"
       id="grid3707" />
    <sodipodi:guide
       position="719.66665,486.83332"
       orientation="0,1"
       id="guide3711"
       inkscape:locked="false" />
    <sodipodi:guide
       position="486.83332,105.83333"
       orientation="-1,-1.3113658e-08"
       id="guide3713"
       inkscape:locked="false" />
    <sodipodi:guide
       position="-158.75,21.166666"
       orientation="0,1"
       id="guide3715"
       inkscape:locked="false" />
    <sodipodi:guide
       position="253.99999,253.99999"
       orientation="1,0"
       id="guide3717"
       inkscape:locked="false" />
    <sodipodi:guide
       position="550.33332,253.99999"
       orientation="0,1"
       id="guide3742"
       inkscape:locked="false" />
    <sodipodi:guide
       position="550.33332,253.99999"
       orientation="4.2706773e-08,-1"
       id="guide3744"
       inkscape:locked="false" />
    <sodipodi:guide
       position="243.41666,486.83332"
       orientation="0,1"
       id="guide3748"
       inkscape:locked="false" />
    <sodipodi:guide
       position="412.74999,486.83332"
       orientation="0,1"
       id="guide888"
       inkscape:locked="false" />
    <sodipodi:guide
       position="380.99999,21.166666"
       orientation="0,1"
       id="guide890"
       inkscape:locked="false" />
    <sodipodi:guide
       position="253.99999,391.58332"
       orientation="1,0"
       id="guide976"
       inkscape:locked="false" />
    <sodipodi:guide
       position="253.99999,380.99999"
       orientation="1,0"
       id="guide978"
       inkscape:locked="false" />
    <sodipodi:guide
       position="507.99999,253.99998"
       orientation="0,1"
       id="guide1042"
       inkscape:locked="false" />
    <sodipodi:guide
       position="380.99999,486.83332"
       orientation="0,1"
       id="guide1044"
       inkscape:locked="false" />
    <sodipodi:guide
       position="370.41666,21.166666"
       orientation="-3.774936e-09,-1"
       id="guide1046"
       inkscape:locked="false" />
    <sodipodi:guide
       position="84.666664,402.16666"
       orientation="1,1.0515891e-09"
       id="guide858"
       inkscape:locked="false" />
  </sodipodi:namedview>
  <metadata
     id="metadata3702">
    <rdf:RDF>
      <cc:Work
         rdf:about="">
        <dc:format>image/svg+xml</dc:format>
        <dc:type
           rdf:resource="http://purl.org/dc/dcmitype/StillImage" />
        <dc:title />
      </cc:Work>
    </rdf:RDF>
  </metadata>
  <g
     inkscape:label="Layer 1"
     inkscape:groupmode="layer"
     id="layer1"
     transform="translate(0,215)">
    <g
       id="g887"
       transform="rotate(90,261.9375,50.937491)" />
    <g
       id="g857" />
    <g
       id="g863"
       transform="rotate(90,254,42.999997)" />
    <g
       transform="rotate(90,418.04168,207.04167)"
       id="g869" />
    <path
       style="opacity:1;vector-effect:none;fill:#bdbdbd;fill-opacity:1;stroke:none;stroke-width:159.99873352;stroke-linecap:round;stroke-linejoin:round;stroke-miterlimit:4;stroke-dasharray:none;stroke-dashoffset:0;stroke-opacity:1;paint-order:normal"
       d="M 240 95.117188 C 151.35991 95.117188 80 166.4772 80 255.11719 L 80 1695.1172 C 80 1783.7572 151.35991 1855.1172 240 1855.1172 L 1680 1855.1172 C 1768.6401 1855.1172 1840 1783.7572 1840 1695.1172 L 1840 255.11719 C 1840 166.4772 1768.6401 95.117188 1680 95.117188 L 240 95.117188 z M 280 215.11719 L 1640 215.11719 C 1684.32 215.11719 1720 250.79716 1720 295.11719 L 1720 1655.1172 C 1720 1699.4372 1684.32 1735.1172 1640 1735.1172 L 280 1735.1172 C 235.68004 1735.1172 200 1699.4372 200 1655.1172 L 200 295.11719 C 200 250.79716 235.68004 215.11719 280 215.11719 z "
       transform="matrix(0.26458333,0,0,0.26458333,0,-215)"
       id="rect843" />
    <path
       style="opacity:1;vector-effect:none;fill:#26c6da;fill-opacity:1;stroke:none;stroke-width:159.99873352;stroke-linecap:round;stroke-linejoin:round;stroke-miterlimit:4;stroke-dasharray:none;stroke-dashoffset:0;stroke-opacity:1;paint-order:normal"
       d="M 480 415.11719 C 435.68 415.11719 400 450.79719 400 495.11719 L 400 1455.1172 C 400 1499.4372 435.68 1535.1172 480 1535.1172 L 1440 1535.1172 C 1484.32 1535.1172 1520 1499.4372 1520 1455.1172 L 1520 495.11719 C 1520 450.79719 1484.32 415.11719 1440 415.11719 L 480 415.11719 z M 580 535.11719 L 1340 535.11719 C 1373.2399 535.11719 1400 561.87719 1400 595.11719 L 1400 1355.1172 C 1400 1388.3572 1373.2399 1415.1172 1340 1415.1172 L 580 1415.1172 C 546.76006 1415.1172 520 1388.3572 520 1355.1172 L 520 595.11719 C 520 561.87719 546.76006 535.11719 580 535.11719 z "
       transform="matrix(0.26458333,0,0,0.26458333,0,-215)"
       id="rect848" />
  </g>
</svg>
