<?xml version="1.0" encoding="UTF-8"?>
<svg xmlns="http://www.w3.org/2000/svg" xmlns:xlink="http://www.w3.org/1999/xlink" width="48px" height="48px" viewBox="0 0 48 48" version="1.1">
<defs>
<linearGradient id="linear0" gradientUnits="userSpaceOnUse" x1="254" y1="233.5" x2="254" y2="254.666672" gradientTransform="matrix(0.09375,0,0,0.09375,-0.00000572205,20.156256)">
<stop offset="0" style="stop-color:rgb(0%,0%,0%);stop-opacity:0.27451;"/>
<stop offset="1" style="stop-color:rgb(0%,0%,0%);stop-opacity:0;"/>
</linearGradient>
<radialGradient id="radial0" gradientUnits="userSpaceOnUse" cx="450.908936" cy="189.579361" fx="450.908936" fy="189.579361" r="21.166656" gradientTransform="matrix(0.000000261231,-0.117188,-0.210938,-0.000000152293,81.165068,95.383893)">
<stop offset="0" style="stop-color:rgb(0%,0%,0%);stop-opacity:0.313726;"/>
<stop offset="0.222222" style="stop-color:rgb(0%,0%,0%);stop-opacity:0.27451;"/>
<stop offset="1" style="stop-color:rgb(0%,0%,0%);stop-opacity:0;"/>
</radialGradient>
<radialGradient id="radial1" gradientUnits="userSpaceOnUse" cx="450.908936" cy="189.579361" fx="450.908936" fy="189.579361" r="21.166656" gradientTransform="matrix(-0.000000261231,0.117188,0.210938,0.000000152293,-33.540064,-11.290137)">
<stop offset="0" style="stop-color:rgb(0%,0%,0%);stop-opacity:0.313726;"/>
<stop offset="0.222222" style="stop-color:rgb(0%,0%,0%);stop-opacity:0.27451;"/>
<stop offset="1" style="stop-color:rgb(0%,0%,0%);stop-opacity:0;"/>
</radialGradient>
<radialGradient id="radial2" gradientUnits="userSpaceOnUse" cx="450.908936" cy="189.579361" fx="450.908936" fy="189.579361" r="21.166656" gradientTransform="matrix(-0.000000261231,-0.117188,0.210938,-0.000000152293,-33.540064,95.383893)">
<stop offset="0" style="stop-color:rgb(0%,0%,0%);stop-opacity:0.313726;"/>
<stop offset="0.222222" style="stop-color:rgb(0%,0%,0%);stop-opacity:0.27451;"/>
<stop offset="1" style="stop-color:rgb(0%,0%,0%);stop-opacity:0;"/>
</radialGradient>
<radialGradient id="radial3" gradientUnits="userSpaceOnUse" cx="450.908936" cy="189.579361" fx="450.908936" fy="189.579361" r="21.166656" gradientTransform="matrix(0.000000261231,0.117188,-0.210938,0.000000152293,81.165065,-11.290138)">
<stop offset="0" style="stop-color:rgb(0%,0%,0%);stop-opacity:0.313726;"/>
<stop offset="0.222222" style="stop-color:rgb(0%,0%,0%);stop-opacity:0.27451;"/>
<stop offset="1" style="stop-color:rgb(0%,0%,0%);stop-opacity:0;"/>
</radialGradient>
<linearGradient id="linear1" gradientUnits="userSpaceOnUse" x1="254" y1="-147.5" x2="254" y2="-31.083334" gradientTransform="matrix(0.09375,0,0,0.09375,0.000004075,20.156247)">
<stop offset="0" style="stop-color:rgb(64.313728%,64.313728%,64.313728%);stop-opacity:0;"/>
<stop offset="1" style="stop-color:rgb(100%,100%,100%);stop-opacity:0.196078;"/>
</linearGradient>
<linearGradient id="linear2" gradientUnits="userSpaceOnUse" x1="254" y1="233.5" x2="254" y2="-105.166656" gradientTransform="matrix(0.09375,0,0,0.09375,-0.140641,20.15625)">
<stop offset="0" style="stop-color:rgb(34.509805%,34.509805%,34.509805%);stop-opacity:0;"/>
<stop offset="1" style="stop-color:rgb(98.039216%,98.039216%,98.039216%);stop-opacity:0.196078;"/>
</linearGradient>
</defs>
<g id="surface1">
<path style=" stroke:none;fill-rule:nonzero;fill:url(#linear0);" d="M 5.953125 42.046875 L 41.671875 42.046875 L 41.671875 44.03125 L 5.953125 44.03125 Z M 5.953125 42.046875 "/>
<path style=" stroke:none;fill-rule:nonzero;fill:url(#radial0);" d="M 41.671875 42.046875 L 45.640625 42.046875 L 45.640625 40.0625 L 41.671875 40.0625 Z M 41.671875 42.046875 "/>
<path style=" stroke:none;fill-rule:nonzero;fill:url(#radial1);" d="M 5.953125 42.046875 L 1.984375 42.046875 L 1.984375 44.03125 L 5.953125 44.03125 Z M 5.953125 42.046875 "/>
<path style=" stroke:none;fill-rule:nonzero;fill:url(#radial2);" d="M 5.953125 42.046875 L 1.984375 42.046875 L 1.984375 40.0625 L 5.953125 40.0625 Z M 5.953125 42.046875 "/>
<path style=" stroke:none;fill-rule:nonzero;fill:url(#radial3);" d="M 41.671875 42.046875 L 45.640625 42.046875 L 45.640625 44.03125 L 41.671875 44.03125 Z M 41.671875 42.046875 "/>
<path style=" stroke:none;fill-rule:nonzero;fill:rgb(0%,58.823532%,53.333336%);fill-opacity:1;" d="M 10.914062 6.328125 L 43.160156 6.328125 C 44.257812 6.328125 45.144531 7.214844 45.144531 8.3125 L 45.144531 15.753906 C 45.144531 16.851562 44.257812 17.738281 43.160156 17.738281 L 10.914062 17.738281 C 9.816406 17.738281 8.929688 16.851562 8.929688 15.753906 L 8.929688 8.3125 C 8.929688 7.214844 9.816406 6.328125 10.914062 6.328125 Z M 10.914062 6.328125 "/>
<path style=" stroke:none;fill-rule:nonzero;fill:url(#linear1);" d="M 10.914062 6.328125 L 43.160156 6.328125 C 44.257812 6.328125 45.144531 7.214844 45.144531 8.3125 L 45.144531 15.753906 C 45.144531 16.851562 44.257812 17.738281 43.160156 17.738281 L 10.914062 17.738281 C 9.816406 17.738281 8.929688 16.851562 8.929688 15.753906 L 8.929688 8.3125 C 8.929688 7.214844 9.816406 6.328125 10.914062 6.328125 Z M 10.914062 6.328125 "/>
<path style=" stroke:none;fill-rule:nonzero;fill:rgb(90.196079%,90.196079%,90.196079%);fill-opacity:0.588235;" d="M 10.914062 6.328125 C 9.816406 6.328125 8.929688 7.214844 8.929688 8.3125 L 8.929688 8.558594 C 8.929688 7.460938 9.816406 6.574219 10.914062 6.574219 L 43.160156 6.574219 C 44.257812 6.574219 45.144531 7.460938 45.144531 8.558594 L 45.144531 8.3125 C 45.144531 7.214844 44.257812 6.328125 43.160156 6.328125 Z M 10.914062 6.328125 "/>
<path style=" stroke:none;fill-rule:nonzero;fill:rgb(12.941177%,12.941177%,12.941177%);fill-opacity:1;" d="M 10.914062 6.1875 C 9.738281 6.1875 8.789062 7.136719 8.789062 8.3125 L 8.789062 15.753906 C 8.789062 16.929688 9.738281 17.878906 10.914062 17.878906 L 43.160156 17.878906 C 44.335938 17.878906 45.285156 16.929688 45.285156 15.753906 L 45.285156 8.3125 C 45.285156 7.136719 44.335938 6.1875 43.160156 6.1875 Z M 10.914062 6.46875 L 43.160156 6.46875 C 44.183594 6.46875 45.003906 7.289062 45.003906 8.3125 L 45.003906 15.753906 C 45.003906 16.777344 44.183594 17.597656 43.160156 17.597656 L 10.914062 17.597656 C 9.890625 17.597656 9.070312 16.777344 9.070312 15.753906 L 9.070312 8.3125 C 9.070312 7.289062 9.890625 6.46875 10.914062 6.46875 Z M 10.914062 6.46875 "/>
<path style=" stroke:none;fill-rule:nonzero;fill:rgb(14.901961%,65.098041%,60.392159%);fill-opacity:1;" d="M 3.96875 10.296875 C 2.871094 10.296875 1.984375 11.183594 1.984375 12.28125 L 1.984375 40.0625 C 1.984375 41.160156 2.871094 42.046875 3.96875 42.046875 L 43.65625 42.046875 C 44.753906 42.046875 45.640625 41.160156 45.640625 40.0625 L 45.640625 15.257812 L 18.851562 15.257812 C 17.753906 15.257812 16.867188 14.371094 16.867188 13.273438 L 16.867188 10.296875 Z M 3.96875 10.296875 "/>
<path style=" stroke:none;fill-rule:nonzero;fill:url(#linear2);" d="M 3.828125 10.296875 C 2.730469 10.296875 1.84375 11.183594 1.84375 12.28125 L 1.84375 40.0625 C 1.84375 41.160156 2.730469 42.046875 3.828125 42.046875 L 43.515625 42.046875 C 44.613281 42.046875 45.5 41.160156 45.5 40.0625 L 45.5 15.257812 L 18.710938 15.257812 C 17.613281 15.257812 16.726562 14.371094 16.726562 13.273438 L 16.726562 10.296875 Z M 3.828125 10.296875 "/>
<path style=" stroke:none;fill-rule:nonzero;fill:rgb(0%,0%,0%);fill-opacity:0.196078;" d="M 4.023438 41.910156 C 2.921875 41.910156 2.039062 41.023438 2.039062 39.925781 L 2.039062 39.675781 C 2.039062 40.777344 2.921875 41.660156 4.023438 41.660156 L 43.710938 41.660156 C 44.808594 41.660156 45.695312 40.777344 45.695312 39.675781 L 45.695312 39.925781 C 45.695312 41.023438 44.808594 41.910156 43.710938 41.910156 Z M 4.023438 41.910156 "/>
<path style=" stroke:none;fill-rule:nonzero;fill:rgb(90.196079%,90.196079%,90.196079%);fill-opacity:0.937239;" d="M 3.96875 10.296875 C 2.871094 10.296875 1.984375 11.183594 1.984375 12.28125 L 1.984375 12.527344 C 1.984375 11.429688 2.871094 10.542969 3.96875 10.542969 L 16.867188 10.542969 L 16.867188 10.296875 Z M 3.96875 10.296875 "/>
<path style=" stroke:none;fill-rule:nonzero;fill:rgb(90.196079%,90.196079%,90.196079%);fill-opacity:0.937239;" d="M 18.726562 15.382812 C 17.628906 15.382812 16.742188 14.496094 16.742188 13.398438 L 16.742188 13.148438 C 16.742188 14.25 17.628906 15.136719 18.726562 15.132812 L 45.640625 15.132812 L 45.640625 15.382812 Z M 18.726562 15.382812 "/>
<path style=" stroke:none;fill-rule:nonzero;fill:rgb(12.941177%,12.941177%,12.941177%);fill-opacity:1;" d="M 3.96875 10.15625 C 2.792969 10.15625 1.84375 11.105469 1.84375 12.28125 L 1.84375 40.0625 C 1.84375 41.238281 2.792969 42.1875 3.96875 42.1875 L 43.65625 42.1875 C 44.832031 42.1875 45.78125 41.238281 45.78125 40.0625 L 45.78125 14.976562 L 18.851562 14.976562 C 17.828125 14.976562 17.007812 14.15625 17.007812 13.132812 L 17.007812 10.15625 Z M 3.96875 10.4375 L 16.726562 10.4375 L 16.726562 13.132812 C 16.726562 14.308594 17.675781 15.257812 18.851562 15.257812 L 45.5 15.257812 L 45.5 40.0625 C 45.5 41.085938 44.679688 41.90625 43.65625 41.90625 L 3.96875 41.90625 C 2.945312 41.90625 2.125 41.085938 2.125 40.0625 L 2.125 12.28125 C 2.125 11.257812 2.945312 10.4375 3.96875 10.4375 Z M 3.96875 10.4375 "/>
</g>
</svg>
