<?xml version="1.0" encoding="UTF-8"?>
<svg xmlns="http://www.w3.org/2000/svg" xmlns:xlink="http://www.w3.org/1999/xlink" width="28pt" height="28pt" viewBox="0 0 28 28" version="1.1">
<defs>
<radialGradient id="radial0" gradientUnits="userSpaceOnUse" cx="450.908936" cy="189.579361" fx="450.908936" fy="189.579361" r="21.166656" gradientTransform="matrix(0.000000152399,-0.0683659,-0.123059,-0.0000000888463,38.957758,55.645913)">
<stop offset="0" style="stop-color:rgb(0%,0%,0%);stop-opacity:0.313725;"/>
<stop offset="0.222222" style="stop-color:rgb(0%,0%,0%);stop-opacity:0.27451;"/>
<stop offset="1" style="stop-color:rgb(0%,0%,0%);stop-opacity:0;"/>
</radialGradient>
<radialGradient id="radial1" gradientUnits="userSpaceOnUse" cx="450.908936" cy="189.579361" fx="450.908936" fy="189.579361" r="21.166656" gradientTransform="matrix(-0.000000152399,0.0683659,0.123059,0.0000000888463,-11.173854,-6.586547)">
<stop offset="0" style="stop-color:rgb(0%,0%,0%);stop-opacity:0.313725;"/>
<stop offset="0.222222" style="stop-color:rgb(0%,0%,0%);stop-opacity:0.27451;"/>
<stop offset="1" style="stop-color:rgb(0%,0%,0%);stop-opacity:0;"/>
</radialGradient>
<radialGradient id="radial2" gradientUnits="userSpaceOnUse" cx="450.908936" cy="189.579361" fx="450.908936" fy="189.579361" r="21.166656" gradientTransform="matrix(-0.000000152399,-0.0683659,0.123059,-0.0000000888463,-11.173854,55.645913)">
<stop offset="0" style="stop-color:rgb(0%,0%,0%);stop-opacity:0.313725;"/>
<stop offset="0.222222" style="stop-color:rgb(0%,0%,0%);stop-opacity:0.27451;"/>
<stop offset="1" style="stop-color:rgb(0%,0%,0%);stop-opacity:0;"/>
</radialGradient>
<radialGradient id="radial3" gradientUnits="userSpaceOnUse" cx="450.908936" cy="189.579361" fx="450.908936" fy="189.579361" r="21.166656" gradientTransform="matrix(0.000000152399,0.0683659,-0.123059,0.0000000888463,38.957756,-6.586547)">
<stop offset="0" style="stop-color:rgb(0%,0%,0%);stop-opacity:0.313725;"/>
<stop offset="0.222222" style="stop-color:rgb(0%,0%,0%);stop-opacity:0.27451;"/>
<stop offset="1" style="stop-color:rgb(0%,0%,0%);stop-opacity:0;"/>
</radialGradient>
<linearGradient id="linear0" gradientUnits="userSpaceOnUse" x1="255.323059" y1="233.5" x2="255.323044" y2="254.666656" gradientTransform="matrix(0.01169,0,0,0.0546927,10.907213,11.758936)">
<stop offset="0" style="stop-color:rgb(0%,0%,0%);stop-opacity:0.27451;"/>
<stop offset="1" style="stop-color:rgb(0%,0%,0%);stop-opacity:0;"/>
</linearGradient>
<linearGradient id="linear1" gradientUnits="userSpaceOnUse" x1="254" y1="-168.666672" x2="254" y2="233.5" gradientTransform="matrix(3.779528,0,0,3.779528,0,812.59845)">
<stop offset="0" style="stop-color:rgb(87.843137%,87.843137%,87.843137%);stop-opacity:1;"/>
<stop offset="1" style="stop-color:rgb(74.117647%,74.117647%,74.117647%);stop-opacity:1;"/>
</linearGradient>
<linearGradient id="linear2" gradientUnits="userSpaceOnUse" x1="254" y1="117.083344" x2="254" y2="-52.25" gradientTransform="matrix(3.779528,0,0,3.779528,0,812.59845)">
<stop offset="0" style="stop-color:rgb(96.078431%,96.078431%,96.078431%);stop-opacity:1;"/>
<stop offset="1" style="stop-color:rgb(87.843137%,87.843137%,87.843137%);stop-opacity:1;"/>
</linearGradient>
</defs>
<g id="surface1">
<path style=" stroke:none;fill-rule:nonzero;fill:url(#radial0);" d="M 15.917969 24.53125 L 18.234375 24.53125 L 18.234375 23.371094 L 15.917969 23.371094 Z M 15.917969 24.53125 "/>
<path style=" stroke:none;fill-rule:nonzero;fill:url(#radial1);" d="M 11.867188 24.53125 L 9.550781 24.53125 L 9.550781 25.6875 L 11.867188 25.6875 Z M 11.867188 24.53125 "/>
<path style=" stroke:none;fill-rule:nonzero;fill:url(#radial2);" d="M 11.867188 24.53125 L 9.550781 24.53125 L 9.550781 23.371094 L 11.867188 23.371094 Z M 11.867188 24.53125 "/>
<path style=" stroke:none;fill-rule:nonzero;fill:url(#radial3);" d="M 15.917969 24.53125 L 18.234375 24.53125 L 18.234375 25.6875 L 15.917969 25.6875 Z M 15.917969 24.53125 "/>
<path style=" stroke:none;fill-rule:nonzero;fill:url(#linear0);" d="M 11.867188 24.242188 L 15.917969 24.242188 L 15.917969 25.6875 L 11.867188 25.6875 Z M 11.867188 24.242188 "/>
<path style="fill-rule:nonzero;fill:url(#linear1);stroke-width:11.338583;stroke-linecap:round;stroke-linejoin:miter;stroke:rgb(20%,20%,20%);stroke-opacity:1;stroke-miterlimit:4;" d="M 959.908384 175.191378 C 539.071159 175.191378 200.025903 513.966694 200.025903 935.073859 C 200.025903 1356.181024 539.071159 1695.22628 959.908384 1695.22628 C 1381.015549 1695.22628 1720.060805 1356.181024 1720.060805 935.073859 C 1720.060805 513.966694 1381.015549 175.191378 959.908384 175.191378 Z M 959.908384 774.999148 C 1048.718805 774.999148 1119.983095 846.533378 1119.983095 935.073859 C 1119.983095 1023.88428 1048.718805 1095.148569 959.908384 1095.148569 C 871.367903 1095.148569 800.103613 1023.88428 800.103613 935.073859 C 800.103613 846.533378 871.367903 774.999148 959.908384 774.999148 Z M 959.908384 774.999148 " transform="matrix(0.0144708,0,0,0.0144708,0,0)"/>
<path style=" stroke:none;fill-rule:nonzero;fill:rgb(0%,0%,0%);fill-opacity:0.196078;" d="M 13.890625 24.53125 C 7.800781 24.53125 2.894531 19.625 2.894531 13.53125 C 2.894531 13.496094 2.894531 13.460938 2.894531 13.425781 C 2.953125 19.46875 7.835938 24.3125 13.890625 24.3125 C 19.949219 24.3125 24.832031 19.46875 24.890625 13.425781 C 24.890625 13.460938 24.890625 13.496094 24.890625 13.53125 C 24.890625 19.625 19.984375 24.53125 13.890625 24.53125 Z M 13.890625 24.53125 "/>
<path style=" stroke:none;fill-rule:nonzero;fill:rgb(100%,100%,100%);fill-opacity:0.588235;" d="M 13.890625 2.535156 C 7.800781 2.535156 2.894531 7.4375 2.894531 13.53125 C 2.894531 13.566406 2.894531 13.605469 2.894531 13.640625 C 2.953125 7.597656 7.835938 2.75 13.890625 2.75 C 19.949219 2.75 24.832031 7.597656 24.890625 13.640625 C 24.890625 13.605469 24.890625 13.566406 24.890625 13.53125 C 24.890625 7.4375 19.984375 2.535156 13.890625 2.535156 Z M 13.890625 2.535156 "/>
<path style=" stroke:none;fill-rule:nonzero;fill:rgb(12.941177%,12.941177%,12.941177%);fill-opacity:1;" d="M 13.890625 2.453125 C 7.753906 2.453125 2.8125 7.394531 2.8125 13.53125 C 2.8125 19.667969 7.753906 24.613281 13.890625 24.613281 C 20.027344 24.613281 24.972656 19.667969 24.972656 13.53125 C 24.972656 7.394531 20.027344 2.453125 13.890625 2.453125 Z M 13.890625 2.617188 C 19.941406 2.617188 24.808594 7.484375 24.808594 13.53125 C 24.808594 19.582031 19.941406 24.449219 13.890625 24.449219 C 7.84375 24.449219 2.976562 19.582031 2.976562 13.53125 C 2.976562 7.484375 7.84375 2.617188 13.890625 2.617188 Z M 13.890625 2.617188 "/>
<path style="fill-rule:nonzero;fill:url(#linear2);stroke-width:11.338583;stroke-linecap:round;stroke-linejoin:miter;stroke:rgb(20%,20%,20%);stroke-opacity:1;stroke-miterlimit:4;" d="M 959.908384 615.194378 C 782.827422 615.194378 640.028903 757.722956 640.028903 935.073859 C 640.028903 1112.424761 782.827422 1255.22328 959.908384 1255.22328 C 1137.259286 1255.22328 1280.057805 1112.424761 1280.057805 935.073859 C 1280.057805 757.722956 1137.259286 615.194378 959.908384 615.194378 Z M 959.908384 774.999148 C 1048.718805 774.999148 1119.983095 846.533378 1119.983095 935.073859 C 1119.983095 1023.88428 1048.718805 1095.148569 959.908384 1095.148569 C 871.367903 1095.148569 800.103613 1023.88428 800.103613 935.073859 C 800.103613 846.533378 871.367903 774.999148 959.908384 774.999148 Z M 959.908384 774.999148 " transform="matrix(0.0144708,0,0,0.0144708,0,0)"/>
</g>
</svg>
