<?xml version="1.0" encoding="UTF-8"?>
<svg xmlns="http://www.w3.org/2000/svg" xmlns:xlink="http://www.w3.org/1999/xlink" width="32px" height="32px" viewBox="0 0 32 32" version="1.1">
<g id="surface1">
<path style=" stroke:none;fill-rule:nonzero;fill:rgb(25.882354%,25.882354%,25.882354%);fill-opacity:1;" d="M 17.859375 2.894531 L 17.859375 8.1875 L 14.554688 5.542969 Z M 17.859375 2.894531 "/>
<path style=" stroke:none;fill-rule:nonzero;fill:rgb(25.882354%,25.882354%,25.882354%);fill-opacity:1;" d="M 27.785156 9.511719 C 28.515625 9.511719 29.105469 10.101562 29.105469 10.835938 L 29.105469 17.449219 C 29.105469 18.183594 28.515625 18.773438 27.785156 18.773438 L 21.167969 18.773438 C 20.4375 18.773438 19.84375 18.183594 19.84375 17.449219 L 19.84375 10.835938 C 19.84375 10.101562 20.4375 9.511719 21.167969 9.511719 Z M 25.800781 12.15625 L 23.152344 12.15625 C 22.785156 12.15625 22.492188 12.453125 22.492188 12.820312 L 22.492188 15.464844 C 22.492188 15.832031 22.785156 16.125 23.152344 16.125 L 25.800781 16.125 C 26.164062 16.125 26.460938 15.832031 26.460938 15.464844 L 26.460938 12.820312 C 26.460938 12.453125 26.164062 12.15625 25.800781 12.15625 Z M 25.800781 12.15625 "/>
<path style=" stroke:none;fill-rule:nonzero;fill:rgb(25.882354%,25.882354%,25.882354%);fill-opacity:1;" d="M 28.445312 2.894531 L 27.121094 2.894531 C 26.757812 2.894531 26.460938 3.191406 26.460938 3.558594 L 26.460938 28.695312 C 26.460938 29.0625 26.757812 29.355469 27.121094 29.355469 L 28.445312 29.355469 C 28.8125 29.355469 29.105469 29.0625 29.105469 28.695312 L 29.105469 3.558594 C 29.105469 3.191406 28.8125 2.894531 28.445312 2.894531 Z M 28.445312 2.894531 "/>
<path style=" stroke:none;fill-rule:nonzero;fill:rgb(25.882354%,25.882354%,25.882354%);fill-opacity:1;" d="M 10.585938 9.511719 C 11.316406 9.511719 11.90625 10.101562 11.90625 10.835938 L 11.90625 22.082031 C 11.90625 22.8125 11.316406 23.402344 10.585938 23.402344 L 3.96875 23.402344 C 3.234375 23.402344 2.644531 22.8125 2.644531 22.082031 L 2.644531 10.835938 C 2.644531 10.101562 3.234375 9.511719 3.96875 9.511719 Z M 8.601562 12.15625 L 5.953125 12.15625 C 5.585938 12.15625 5.292969 12.453125 5.292969 12.820312 L 5.292969 20.09375 C 5.292969 20.460938 5.585938 20.757812 5.953125 20.757812 L 8.601562 20.757812 C 8.964844 20.757812 9.261719 20.460938 9.261719 20.09375 L 9.261719 12.820312 C 9.261719 12.453125 8.964844 12.15625 8.601562 12.15625 Z M 8.601562 12.15625 "/>
<path style=" stroke:none;fill-rule:nonzero;fill:rgb(25.882354%,25.882354%,25.882354%);fill-opacity:1;" d="M 11.246094 2.894531 L 9.921875 2.894531 C 9.558594 2.894531 9.261719 3.191406 9.261719 3.558594 L 9.261719 28.695312 C 9.261719 29.0625 9.558594 29.355469 9.921875 29.355469 L 11.246094 29.355469 C 11.609375 29.355469 11.90625 29.0625 11.90625 28.695312 L 11.90625 3.558594 C 11.90625 3.191406 11.609375 2.894531 11.246094 2.894531 Z M 11.246094 2.894531 "/>
<path style=" stroke:none;fill-rule:nonzero;fill:rgb(25.882354%,25.882354%,25.882354%);fill-opacity:1;" d="M 20.507812 2.894531 L 20.507812 8.1875 L 23.816406 5.542969 Z M 20.507812 2.894531 "/>
</g>
</svg>
