<svg height="32" viewBox="0 0 32 32" width="32" xmlns="http://www.w3.org/2000/svg"><g fill="#424242"><path d="m11.246094 4.21875h1.324218v15.214844h-1.324218zm0 0"/><path d="m19.183594 3.558594h1.324218v15.875h-1.324218zm0 0"/><path d="m2.644531 26.710938c0 1.464843 1.183594 2.644531 2.648438 2.644531v-22.492188c0-.730469.589843-1.320312 1.320312-1.320312h18.523438c.734375 0 1.324219.589843 1.324219 1.320312v12.570313h2.644531v-13.890625c0-1.464844-1.179688-2.648438-2.644531-2.648438h-21.167969c-1.464844 0-2.648438 1.183594-2.648438 2.648438zm0 0"/><path d="m27.121094 11.496094v1.324218h-23.152344v-1.324218zm0 0"/></g><path d="m5.265625 26.738281v2.59375c0 .011719.011719.023438.027344.023438h10.53125c.015625 0 .027343-.011719.027343-.023438v-2.59375c0-.015625-.011718-.027343-.027343-.027343h-10.53125c-.015625 0-.027344.011718-.027344.027343zm0 0" fill="#f44336"/><path d="m5.292969 19.449219v1.320312h10.558593v-1.320312zm0 0" fill="#f44336"/><path d="m11.367188 19.777344 1.277343-.34375 2.398438 8.945312-1.277344.34375zm0 0" fill="#f44336"/><path d="m6.632812 19.777344 1.28125-.34375 2.394532 8.945312-1.277344.34375zm0 0" fill="#f44336"/><path d="m20.175781 24.726562c0-.367187.296875-.660156.664063-.660156h5.289062c.367188 0 .664063.292969.664063.660156 0 .363282-.296875.660157-.664063.660157h-5.289062c-.367188 0-.664063-.296875-.664063-.660157zm0 0" fill="#424242"/><path d="m23.484375 21.417969c.363281 0 .660156.296875.660156.664062v5.289063c0 .367187-.296875.664062-.660156.664062-.367187 0-.660156-.296875-.660156-.664062v-5.289063c0-.367187.292969-.664062.660156-.664062zm0 0" fill="#424242"/></svg>