<?xml version="1.0" encoding="UTF-8"?>
<svg xmlns="http://www.w3.org/2000/svg" xmlns:xlink="http://www.w3.org/1999/xlink" width="32pt" height="32pt" viewBox="0 0 32 32" version="1.1">
<defs>
<filter id="alpha" filterUnits="objectBoundingBox" x="0%" y="0%" width="100%" height="100%">
  <feColorMatrix type="matrix" in="SourceGraphic" values="0 0 0 0 1 0 0 0 0 1 0 0 0 0 1 0 0 0 1 0"/>
</filter>
<mask id="mask0">
  <g filter="url(#alpha)">
<rect x="0" y="0" width="32" height="32" style="fill:rgb(0%,0%,0%);fill-opacity:0.988235;stroke:none;"/>
  </g>
</mask>
<clipPath id="clip1">
  <rect x="0" y="0" width="32" height="32"/>
</clipPath>
<g id="surface5" clip-path="url(#clip1)">
<path style=" stroke:none;fill-rule:nonzero;fill:rgb(93.725491%,32.549021%,31.37255%);fill-opacity:1;" d="M 14.472656 24.144531 L 15.410156 23.210938 C 15.667969 22.953125 16.085938 22.953125 16.34375 23.210938 L 17.28125 24.144531 C 17.539062 24.402344 17.539062 24.820312 17.28125 25.082031 L 16.34375 26.015625 C 16.085938 26.273438 15.667969 26.273438 15.410156 26.015625 L 14.472656 25.082031 C 14.214844 24.820312 14.214844 24.402344 14.472656 24.144531 Z M 14.472656 24.144531 "/>
</g>
<mask id="mask1">
  <g filter="url(#alpha)">
<rect x="0" y="0" width="32" height="32" style="fill:rgb(0%,0%,0%);fill-opacity:0.988235;stroke:none;"/>
  </g>
</mask>
<clipPath id="clip2">
  <rect x="0" y="0" width="32" height="32"/>
</clipPath>
<g id="surface8" clip-path="url(#clip2)">
<path style=" stroke:none;fill-rule:nonzero;fill:rgb(93.725491%,32.549021%,31.37255%);fill-opacity:1;" d="M 15.765625 26.050781 C 15.277344 26.050781 14.859375 27.128906 14.667969 28.695312 L 17.082031 28.695312 C 16.886719 27.128906 16.46875 26.050781 15.984375 26.050781 Z M 15.765625 26.050781 "/>
</g>
</defs>
<g id="surface1">
<path style=" stroke:none;fill-rule:nonzero;fill:rgb(25.882354%,25.882354%,25.882354%);fill-opacity:1;" d="M 3.308594 1.574219 C 2.207031 1.574219 1.324219 2.457031 1.324219 3.558594 L 1.324219 28.695312 C 1.324219 29.792969 2.207031 30.679688 3.308594 30.679688 L 18.523438 30.679688 L 18.523438 28.695312 L 4.628906 28.695312 C 3.898438 28.695312 3.308594 28.105469 3.308594 27.371094 L 3.308594 4.878906 C 3.308594 4.148438 3.898438 3.558594 4.628906 3.558594 L 27.121094 3.558594 C 27.855469 3.558594 28.445312 4.148438 28.445312 4.878906 L 28.445312 18.773438 L 30.429688 18.773438 L 30.429688 3.558594 C 30.429688 2.457031 29.542969 1.574219 28.445312 1.574219 Z M 3.308594 1.574219 "/>
<path style=" stroke:none;fill-rule:nonzero;fill:rgb(25.882354%,25.882354%,25.882354%);fill-opacity:1;" d="M 15.875 6.796875 C 12.210938 6.796875 9.261719 9.75 9.261719 13.414062 C 9.261719 17.078125 12.210938 20.027344 15.875 20.027344 C 19.542969 20.027344 22.492188 17.078125 22.492188 13.414062 C 22.492188 9.75 19.542969 6.796875 15.875 6.796875 Z M 15.875 8.851562 C 18.441406 8.851562 20.507812 10.914062 20.507812 13.480469 C 20.507812 16.046875 18.441406 18.109375 15.875 18.109375 C 13.3125 18.109375 11.246094 16.046875 11.246094 13.480469 C 11.246094 10.914062 13.3125 8.851562 15.875 8.851562 Z M 15.875 8.851562 "/>
<path style=" stroke:none;fill-rule:nonzero;fill:rgb(25.882354%,25.882354%,25.882354%);fill-opacity:1;" d="M 11.027344 22.082031 C 7.617188 23.175781 5.292969 25.394531 5.292969 27.964844 L 5.292969 28.695312 L 7.277344 28.695312 L 7.277344 28.035156 C 7.277344 27.882812 7.300781 27.738281 7.347656 27.601562 C 7.734375 25.589844 9.617188 24.070312 11.898438 24.066406 C 12.308594 24.371094 12.753906 24.632812 13.230469 24.839844 L 13.230469 23.402344 C 13.230469 23.261719 13.25 23.125 13.289062 22.996094 C 12.488281 22.785156 11.730469 22.472656 11.027344 22.082031 Z M 18.523438 22.980469 C 18.503906 22.988281 18.484375 22.992188 18.464844 22.996094 C 18.503906 23.125 18.523438 23.261719 18.523438 23.402344 Z M 24.351562 27.371094 C 24.371094 27.449219 24.390625 27.523438 24.402344 27.601562 C 24.449219 27.738281 24.476562 27.882812 24.476562 28.035156 L 24.476562 28.695312 L 26.460938 28.695312 L 26.460938 27.964844 C 26.460938 27.765625 26.445312 27.566406 26.417969 27.371094 Z M 24.351562 27.371094 "/>
<use xlink:href="#surface5" mask="url(#mask0)"/>
<use xlink:href="#surface8" mask="url(#mask1)"/>
<path style=" stroke:none;fill-rule:nonzero;fill:rgb(40.000001%,73.333335%,41.568628%);fill-opacity:1;" d="M 25.082031 20.09375 C 24.378906 20.09375 23.816406 20.6875 23.816406 21.417969 L 23.816406 24.066406 L 21.167969 24.066406 C 20.4375 24.066406 19.84375 24.65625 19.84375 25.386719 C 19.84375 26.121094 20.4375 26.710938 21.167969 26.710938 L 23.816406 26.710938 L 23.816406 29.355469 C 23.816406 30.089844 24.378906 30.679688 25.082031 30.679688 L 25.191406 30.679688 C 25.894531 30.679688 26.460938 30.089844 26.460938 29.355469 L 26.460938 26.710938 L 29.105469 26.710938 C 29.839844 26.710938 30.429688 26.121094 30.429688 25.386719 C 30.429688 24.65625 29.839844 24.066406 29.105469 24.066406 L 26.460938 24.066406 L 26.460938 21.417969 C 26.460938 20.6875 25.894531 20.09375 25.191406 20.09375 Z M 25.082031 20.09375 "/>
</g>
</svg>
