<svg height="32" viewBox="0 0 32 32" width="32" xmlns="http://www.w3.org/2000/svg"><g fill="#424242"><path d="m7.277344 20.09375c2.558594 0 4.628906 2.074219 4.628906 4.632812 0 2.558594-2.070312 4.628907-4.628906 4.628907s-4.632813-2.070313-4.632813-4.628907c0-2.558593 2.074219-4.632812 4.632813-4.632812zm0 0"/><path d="m2.644531 2.894531v3.96875c12.460938 0 22.492188 10.035157 22.492188 22.492188h3.96875c0-14.65625-11.800781-26.460938-26.460938-26.460938zm0 0"/><path d="m2.644531 10.835938v3.96875c8.0625 0 14.554688 6.488281 14.554688 14.550781h3.96875c0-10.261719-8.261719-18.519531-18.523438-18.519531zm0 0"/></g></svg>