<?xml version="1.0" encoding="UTF-8"?>
<svg xmlns="http://www.w3.org/2000/svg" xmlns:xlink="http://www.w3.org/1999/xlink" width="32pt" height="32pt" viewBox="0 0 32 32" version="1.1">
<g id="surface1">
<path style=" stroke:none;fill-rule:nonzero;fill:rgb(25.882354%,25.882354%,25.882354%);fill-opacity:1;" d="M 10.585938 2.894531 C 9.117188 2.894531 7.9375 4.078125 7.9375 5.542969 L 7.9375 8.1875 L 3.96875 8.1875 C 2.503906 8.1875 1.324219 9.367188 1.324219 10.835938 L 1.324219 26.710938 C 1.324219 28.175781 2.503906 29.355469 3.96875 29.355469 L 27.785156 29.355469 C 29.25 29.355469 30.429688 28.175781 30.429688 26.710938 L 30.429688 14.140625 L 17.199219 14.140625 C 16.464844 14.140625 15.875 13.550781 15.875 12.820312 L 15.875 8.1875 L 9.921875 8.1875 L 9.921875 6.203125 C 9.921875 5.472656 10.511719 4.878906 11.246094 4.878906 L 17.859375 4.878906 C 18.015625 4.878906 18.164062 4.90625 18.300781 4.957031 C 18.441406 4.746094 18.523438 4.492188 18.523438 4.21875 C 18.523438 3.484375 17.933594 2.894531 17.199219 2.894531 Z M 4.628906 10.171875 L 13.890625 10.171875 L 13.890625 13.480469 C 13.890625 14.945312 15.070312 16.125 16.539062 16.125 L 28.445312 16.125 L 28.445312 26.050781 C 28.445312 26.78125 27.855469 27.371094 27.121094 27.371094 L 4.628906 27.371094 C 3.898438 27.371094 3.308594 26.78125 3.308594 26.050781 L 3.308594 11.496094 C 3.308594 10.761719 3.898438 10.171875 4.628906 10.171875 Z M 4.628906 10.171875 "/>
<path style=" stroke:none;fill-rule:nonzero;fill:rgb(40.000001%,73.333335%,41.568628%);fill-opacity:1;" d="M 25.136719 1.574219 C 24.40625 1.574219 23.816406 2.164062 23.816406 2.894531 L 23.816406 5.542969 L 21.167969 5.542969 C 20.4375 5.542969 19.84375 6.132812 19.84375 6.863281 C 19.84375 7.597656 20.4375 8.1875 21.167969 8.1875 L 23.816406 8.1875 L 23.816406 10.835938 C 23.816406 11.566406 24.40625 12.15625 25.136719 12.15625 C 25.871094 12.15625 26.460938 11.566406 26.460938 10.835938 L 26.460938 8.1875 L 29.105469 8.1875 C 29.839844 8.1875 30.429688 7.597656 30.429688 6.863281 C 30.429688 6.132812 29.839844 5.542969 29.105469 5.542969 L 26.460938 5.542969 L 26.460938 2.894531 C 26.460938 2.164062 25.871094 1.574219 25.136719 1.574219 Z M 25.136719 1.574219 "/>
</g>
</svg>
