<?xml version="1.0" encoding="UTF-8"?>
<svg xmlns="http://www.w3.org/2000/svg" xmlns:xlink="http://www.w3.org/1999/xlink" width="32pt" height="32pt" viewBox="0 0 32 32" version="1.1">
<g id="surface1">
<path style=" stroke:none;fill-rule:nonzero;fill:rgb(47.058824%,56.470591%,61.176473%);fill-opacity:1;" d="M 9.261719 4.21875 C 6.328125 4.21875 3.96875 5.988281 3.96875 8.1875 L 3.96875 20.09375 L 6.613281 20.09375 L 6.613281 14.804688 L 11.90625 14.804688 L 11.90625 20.09375 L 14.554688 20.09375 L 14.554688 8.1875 C 14.554688 5.988281 12.191406 4.21875 9.261719 4.21875 Z M 9.261719 6.867188 C 10.726562 6.867188 11.90625 7.457031 11.90625 8.1875 L 11.90625 12.15625 L 6.613281 12.15625 L 6.613281 8.1875 C 6.613281 7.457031 7.796875 6.867188 9.261719 6.867188 Z M 9.261719 6.867188 "/>
<path style=" stroke:none;fill-rule:nonzero;fill:rgb(47.058824%,56.470591%,61.176473%);fill-opacity:1;" d="M 5.953125 22.742188 C 6.683594 22.742188 7.277344 23.335938 7.277344 24.066406 L 7.277344 26.710938 C 7.277344 27.441406 6.683594 28.035156 5.953125 28.035156 C 5.222656 28.035156 4.628906 27.441406 4.628906 26.710938 L 4.628906 24.066406 C 4.628906 23.335938 5.222656 22.742188 5.953125 22.742188 Z M 5.953125 22.742188 "/>
<path style=" stroke:none;fill-rule:nonzero;fill:rgb(47.058824%,56.470591%,61.176473%);fill-opacity:1;" d="M 19.84375 4.21875 C 20.578125 4.21875 21.167969 4.8125 21.167969 5.542969 L 21.167969 18.773438 C 21.167969 19.503906 20.578125 20.09375 19.84375 20.09375 C 19.113281 20.09375 18.523438 19.503906 18.523438 18.773438 L 18.523438 5.542969 C 18.523438 4.8125 19.113281 4.21875 19.84375 4.21875 Z M 19.84375 4.21875 "/>
<path style=" stroke:none;fill-rule:evenodd;fill:rgb(14.901961%,65.098041%,60.392159%);fill-opacity:1;" d="M 17.859375 22.082031 C 17.496094 22.082031 17.199219 22.375 17.199219 22.742188 C 17.199219 22.832031 17.21875 22.921875 17.253906 23.003906 L 19.238281 27.632812 C 19.34375 27.875 19.582031 28.03125 19.84375 28.03125 L 19.84375 28.035156 L 19.847656 28.03125 C 20.109375 28.03125 20.347656 27.875 20.453125 27.632812 L 22.4375 23.003906 C 22.472656 22.921875 22.492188 22.832031 22.492188 22.742188 C 22.492188 22.375 22.195312 22.082031 21.832031 22.082031 Z M 17.859375 22.082031 "/>
<path style=" stroke:none;fill-rule:nonzero;fill:rgb(47.058824%,56.470591%,61.176473%);fill-opacity:1;" d="M 26.460938 4.21875 C 27.191406 4.21875 27.785156 4.8125 27.785156 5.542969 L 27.785156 18.773438 C 27.785156 19.503906 27.191406 20.09375 26.460938 20.09375 C 25.730469 20.09375 25.136719 19.503906 25.136719 18.773438 L 25.136719 5.542969 C 25.136719 4.8125 25.730469 4.21875 26.460938 4.21875 Z M 26.460938 4.21875 "/>
<path style=" stroke:none;fill-rule:nonzero;fill:rgb(47.058824%,56.470591%,61.176473%);fill-opacity:1;" d="M 12.570312 22.742188 C 13.300781 22.742188 13.890625 23.335938 13.890625 24.066406 L 13.890625 26.710938 C 13.890625 27.441406 13.300781 28.035156 12.570312 28.035156 C 11.839844 28.035156 11.246094 27.441406 11.246094 26.710938 L 11.246094 24.066406 C 11.246094 23.335938 11.839844 22.742188 12.570312 22.742188 Z M 12.570312 22.742188 "/>
<path style=" stroke:none;fill-rule:evenodd;fill:rgb(14.901961%,65.098041%,60.392159%);fill-opacity:1;" d="M 24.476562 22.082031 C 24.113281 22.082031 23.816406 22.375 23.816406 22.742188 C 23.816406 22.832031 23.832031 22.921875 23.867188 23.003906 L 25.851562 27.632812 C 25.957031 27.875 26.195312 28.03125 26.460938 28.03125 L 26.460938 28.035156 L 26.460938 28.03125 C 26.726562 28.03125 26.964844 27.875 27.070312 27.632812 L 29.054688 23.003906 C 29.089844 22.921875 29.105469 22.832031 29.105469 22.742188 C 29.105469 22.375 28.808594 22.082031 28.445312 22.082031 Z M 24.476562 22.082031 "/>
</g>
</svg>
