<svg height="32" viewBox="0 0 32 32" width="32" xmlns="http://www.w3.org/2000/svg"><path d="m18.523438 5.871094c-2.949219 0-5.824219 1.195312-7.65625 2.976562l1.839843 1.375c1.101563-1.015625 2.890625-1.703125 4.746094-1.703125h.761719c2.722656 0 4.527344 1.476563 4.050781 3.308594l-1.035156 3.96875c-1.15625-.941406-2.863281-1.511719-4.898438-1.511719-4.398437 0-8.628906 2.65625-9.488281 5.957032l-.171875.660156h.046875c-.339844 2.984375 2.414062 5.292968 6.511719 5.292968 2.035156 0 4.039062-.570312 5.683593-1.511718l-.355468 1.367187h2.648437l1.339844-5.148437.125-.476563.046875-.183593 2.191406-8.414063c.859375-3.300781-1.988281-5.957031-6.386718-5.957031zm-3.261719 11.0625h.761719c2.722656 0 4.527343 1.472656 4.050781 3.308594-.476563 1.832031-3.050781 3.304687-5.773438 3.304687h-.761719c-2.722656 0-4.527343-1.472656-4.050781-3.304687.476563-1.835938 3.050781-3.308594 5.773438-3.308594zm0 0" fill="#424242"/></svg>