<svg height="32" viewBox="0 0 32 32" width="32" xmlns="http://www.w3.org/2000/svg"><g fill="#424242"><path d="m3.308594 6.867188h5.292968c.363282 0 .660157.292968.660157.660156 0 .363281-.296875.660156-.660157.660156h-5.292968c-.367188 0-.664063-.296875-.664063-.660156 0-.367188.296875-.660156.664063-.660156zm0 0"/><path d="m3.238281 6.867188h.136719c.328125 0 .59375.292968.59375.660156v17.199218c0 .363282-.265625.660157-.59375.660157h-.136719c-.328125 0-.59375-.296875-.59375-.660157v-17.199218c0-.367188.265625-.660156.59375-.660156zm0 0"/><path d="m3.308594 24.066406h5.292968c.363282 0 .660157.292969.660157.660156 0 .363282-.296875.660157-.660157.660157h-5.292968c-.367188 0-.664063-.296875-.664063-.660157 0-.367187.296875-.660156.664063-.660156zm0 0"/><path d="m9.921875 2.894531c-1.097656 0-1.984375.886719-1.984375 1.984375v5.292969c0 1.101563.886719 1.984375 1.984375 1.984375h17.199219c1.101562 0 1.984375-.882812 1.984375-1.984375v-5.292969c0-1.097656-.882813-1.984375-1.984375-1.984375zm1.324219 2.648438h14.554687c.363281 0 .660157.292969.660157.660156v2.648437c0 .363282-.296876.660157-.660157.660157h-14.554687c-.367188 0-.660156-.296875-.660156-.660157v-2.648437c0-.367187.292968-.660156.660156-.660156zm0 0"/><path d="m9.921875 20.09375c-1.097656 0-1.984375.886719-1.984375 1.988281v5.289063c0 1.101562.886719 1.984375 1.984375 1.984375h17.199219c1.101562 0 1.984375-.882813 1.984375-1.984375v-5.289063c0-1.101562-.882813-1.988281-1.984375-1.988281zm1.324219 2.648438h14.554687c.363281 0 .660157.292968.660157.660156v2.648437c0 .363281-.296876.660157-.660157.660157h-14.554687c-.367188 0-.660156-.296876-.660156-.660157v-2.648437c0-.367188.292968-.660156.660156-.660156zm0 0"/><path d="m3.308594 14.804688h1.320312c.367188 0 .664063.296874.664063.660156v1.324218c0 .363282-.296875.660157-.664063.660157h-1.320312c-.367188 0-.664063-.296875-.664063-.660157v-1.324218c0-.363282.296875-.660156.664063-.660156zm0 0"/></g></svg>