<svg xmlns="http://www.w3.org/2000/svg" width="32pt" height="32pt" viewBox="0 0 32 32"><path d="M1.984 7.527v17.2h6.618v-2.645H4.629v-4.633h1.324v-2.644H4.63v-4.633h3.973V7.527zm0 0" fill="#78909c"/><path d="M9.922 4.879c-.73 0-1.32.594-1.32 1.324v5.293c0 .734.59 1.324 1.32 1.324h18.523a1.32 1.32 0 0 0 1.325-1.324V6.203c0-.73-.59-1.324-1.325-1.324zm1.324 1.988h15.875c.367 0 .664.442.664.992v1.985c0 .547-.297.992-.664.992H11.246c-.367 0-.66-.445-.66-.992V7.859c0-.55.293-.992.66-.992zm0 0M9.922 19.434c-.73 0-1.32.59-1.32 1.324v5.293c0 .73.59 1.32 1.32 1.32h18.523a1.32 1.32 0 0 0 1.325-1.32v-5.293a1.32 1.32 0 0 0-1.325-1.324zm1.324 1.984h15.875c.367 0 .664.441.664.992v1.985c0 .55-.297.992-.664.992H11.246c-.367 0-.66-.442-.66-.992V22.41c0-.55.293-.992.66-.992zm0 0" fill="#424242"/></svg>