<?xml version="1.0" encoding="UTF-8"?>
<svg xmlns="http://www.w3.org/2000/svg" xmlns:xlink="http://www.w3.org/1999/xlink" width="32pt" height="32pt" viewBox="0 0 32 32" version="1.1">
<g id="surface1">
<path style=" stroke:none;fill-rule:nonzero;fill:rgb(100%,43.921569%,26.274511%);fill-opacity:1;" d="M 3.308594 1.574219 C 2.207031 1.574219 1.324219 2.457031 1.324219 3.558594 L 1.324219 28.695312 C 1.324219 29.792969 2.207031 30.679688 3.308594 30.679688 L 28.445312 30.679688 C 29.542969 30.679688 30.429688 29.792969 30.429688 28.695312 L 30.429688 3.558594 C 30.429688 2.457031 29.542969 1.574219 28.445312 1.574219 Z M 4.628906 3.558594 L 27.121094 3.558594 C 27.855469 3.558594 28.445312 4.148438 28.445312 4.878906 L 28.445312 27.371094 C 28.445312 28.105469 27.855469 28.695312 27.121094 28.695312 L 4.628906 28.695312 C 3.898438 28.695312 3.308594 28.105469 3.308594 27.371094 L 3.308594 4.878906 C 3.308594 4.148438 3.898438 3.558594 4.628906 3.558594 Z M 4.628906 3.558594 "/>
<path style=" stroke:none;fill-rule:nonzero;fill:rgb(25.882354%,25.882354%,25.882354%);fill-opacity:1;" d="M 4.628906 3.558594 C 3.898438 3.558594 3.308594 4.148438 3.308594 4.878906 L 3.308594 27.371094 C 3.308594 28.105469 3.898438 28.695312 4.628906 28.695312 L 27.121094 28.695312 C 27.855469 28.695312 28.445312 28.105469 28.445312 27.371094 L 28.445312 4.878906 C 28.445312 4.148438 27.855469 3.558594 27.121094 3.558594 Z M 5.953125 5.542969 L 25.800781 5.542969 C 26.164062 5.542969 26.460938 5.835938 26.460938 6.203125 L 26.460938 26.050781 C 26.460938 26.414062 26.164062 26.710938 25.800781 26.710938 L 5.953125 26.710938 C 5.585938 26.710938 5.292969 26.414062 5.292969 26.050781 L 5.292969 6.203125 C 5.292969 5.835938 5.585938 5.542969 5.953125 5.542969 Z M 5.953125 5.542969 "/>
</g>
</svg>
