<?xml version="1.0" encoding="UTF-8"?>
<svg xmlns="http://www.w3.org/2000/svg" xmlns:xlink="http://www.w3.org/1999/xlink" width="32px" height="32px" viewBox="0 0 32 32" version="1.1">
<g id="surface1">
<path style=" stroke:none;fill-rule:nonzero;fill:rgb(25.882354%,25.882354%,25.882354%);fill-opacity:1;" d="M 17.199219 23.402344 L 14.554688 23.402344 L 14.554688 16.804688 C 14.554688 16.4375 14.847656 16.144531 15.214844 16.144531 L 16.539062 16.144531 C 16.90625 16.144531 17.199219 16.4375 17.199219 16.804688 Z M 17.199219 23.402344 "/>
<path style=" stroke:none;fill-rule:nonzero;fill:rgb(25.882354%,25.882354%,25.882354%);fill-opacity:1;" d="M 11.246094 22.742188 L 20.507812 22.742188 L 15.875 29.355469 Z M 11.246094 22.742188 "/>
<path style=" stroke:none;fill-rule:nonzero;fill:rgb(25.882354%,25.882354%,25.882354%);fill-opacity:1;" d="M 15.875 2.894531 C 11.480469 2.894531 7.9375 6.4375 7.9375 10.835938 C 7.9375 13.785156 9.53125 16.347656 11.90625 17.71875 L 11.90625 14.339844 C 11.082031 13.410156 10.585938 12.183594 10.585938 10.835938 C 10.585938 7.902344 12.945312 5.542969 15.875 5.542969 C 18.808594 5.542969 21.167969 7.902344 21.167969 10.835938 C 21.167969 12.183594 20.667969 13.410156 19.84375 14.339844 L 19.84375 17.71875 C 22.222656 16.347656 23.816406 13.785156 23.816406 10.835938 C 23.816406 6.4375 20.273438 2.894531 15.875 2.894531 Z M 15.875 2.894531 "/>
</g>
</svg>
