<svg height="32" viewBox="0 0 32 32" width="32" xmlns="http://www.w3.org/2000/svg"><g fill="#424242"><path d="m20.019531 17.632812c-1.035156 1.035157-1.035156 2.703126 0 3.742188l5.144531 5.144531c.261719.257813.675782.257813.9375 0l2.804688-2.808593c.261719-.257813.261719-.675782 0-.933594l-5.144531-5.144532c-1.035157-1.039062-2.707031-1.039062-3.742188 0zm.9375.933594c.515625-.519531 1.351563-.519531 1.871094 0 .515625.519532.515625 1.351563 0 1.871094-.519531.519531-1.355469.519531-1.871094 0-.519531-.519531-.519531-1.351562 0-1.871094zm0 0"/><path d="m26.460938 5.542969h-21.167969c-1.464844 0-2.648438 1.179687-2.648438 2.644531v15.878906c0 1.464844 1.183594 2.644532 2.648438 2.644532h11.246093v-2.644532h-9.925781c-.730469 0-1.320312-.589844-1.320312-1.324218v-12.9375l9.707031 8.628906c.5.445312 1.253906.445312 1.75 0l9.710938-8.628906v4.335937h2.644531v-5.953125c0-1.464844-1.179688-2.644531-2.644531-2.644531zm-19.019532 2.644531h16.871094l-8.4375 7.5zm0 0"/></g></svg>