<?xml version="1.0" encoding="UTF-8"?>
<svg xmlns="http://www.w3.org/2000/svg" xmlns:xlink="http://www.w3.org/1999/xlink" width="32px" height="32px" viewBox="0 0 32 32" version="1.1">
<g id="surface1">
<path style=" stroke:none;fill-rule:nonzero;fill:rgb(25.882354%,25.882354%,25.882354%);fill-opacity:1;" d="M 9.921875 2.894531 C 8.457031 2.894531 7.277344 4.078125 7.277344 5.542969 L 7.277344 26.710938 C 7.277344 28.175781 8.457031 29.355469 9.921875 29.355469 L 21.832031 29.355469 C 23.296875 29.355469 24.476562 28.175781 24.476562 26.710938 L 24.476562 5.542969 C 24.476562 4.078125 23.296875 2.894531 21.832031 2.894531 Z M 11.246094 5.542969 L 20.507812 5.542969 C 21.238281 5.542969 21.832031 6.132812 21.832031 6.863281 L 21.832031 25.386719 C 21.832031 26.121094 21.238281 26.710938 20.507812 26.710938 L 11.246094 26.710938 C 10.511719 26.710938 9.921875 26.121094 9.921875 25.386719 L 9.921875 6.863281 C 9.921875 6.132812 10.511719 5.542969 11.246094 5.542969 Z M 11.246094 5.542969 "/>
</g>
</svg>
