<svg xmlns="http://www.w3.org/2000/svg" width="32pt" height="32pt" viewBox="0 0 32 32"><path d="M8.64 15.285zm0 0c-2.585.942-5.027 2.899-5.718 5.664-.297 1.32-.133 2.68-.176 4.02.016 1.308-.023 2.617.02 3.926.132.77.96.835 1.59.789h18.566c.851.023 1.074-.875.992-1.555-.012-2.098.035-4.195-.023-6.29-.246-2.722-2.34-4.905-4.707-6.054-.485-.14-1.016-.707-1.497-.328-.804.39-1.66.672-2.539.832l.79 1.867c1.03-.375 1.624-.73 2.382-.605 1.926.914 3.696 2.746 3.61 5.012v5.136H4.73c.012-1.89-.02-3.785.02-5.676.203-2.136 1.953-3.734 3.809-4.574.617.188 1.793.48 2.129.66l.828-1.82a9.87 9.87 0 0 1-2.875-1.004zm0 0M13.332 1.504A6.605 6.605 0 0 0 6.715 8.12a6.602 6.602 0 0 0 6.617 6.613 6.598 6.598 0 0 0 6.613-6.613 6.602 6.602 0 0 0-6.613-6.617zm0 2.055a4.616 4.616 0 0 1 4.629 4.628 4.62 4.62 0 0 1-4.629 4.633 4.623 4.623 0 0 1-4.633-4.633 4.62 4.62 0 0 1 4.633-4.628zm0 0" fill="#424242"/><path d="M13.426 16.398c-.414-.02-.727.274-.989.559-.445.414-.394 1.188.079 1.563.14.14.277.296.464.378-.406.997-.476 2.086-.53 3.149-.036 1.406.007 2.844.402 4.203.12.297.234.785.628.785.352-.148.442-.578.56-.91.39-1.469.42-3.012.347-4.523-.075-.915-.157-1.848-.512-2.704.273-.14.484-.386.68-.62.308-.442.183-1.083-.23-1.415-.231-.261-.532-.476-.9-.465zm0 0" fill="#424242"/><path d="M22.16 1.574h7.277a.991.991 0 1 1 0 1.985H22.16a.991.991 0 1 1 0-1.984zm0 0M22.16 5.543h7.277c.547 0 .993.445.993.992a.994.994 0 0 1-.992.992H22.16a.994.994 0 0 1-.992-.992c0-.547.445-.992.992-.992zm0 0M22.16 9.512h7.277c.547 0 .993.445.993.992a.994.994 0 0 1-.992.992H22.16a.994.994 0 0 1-.992-.992c0-.547.445-.992.992-.992zm0 0" fill="#ffa726"/></svg>