<svg xmlns="http://www.w3.org/2000/svg" width="32pt" height="32pt" viewBox="0 0 32 32"><path d="M3.637 26.05H17.53a.991.991 0 1 1 0 1.985H3.637a.991.991 0 1 1 0-1.984zm0 0M3.637 18.773H17.53a.994.994 0 0 1 0 1.984H3.637a.994.994 0 0 1-.992-.991c0-.547.445-.993.992-.993zm0 0M3.637 11.496h24.476a.991.991 0 1 1 0 1.984H3.637a.994.994 0 0 1-.992-.992c0-.547.445-.992.992-.992zm0 0M3.637 4.219h24.476a.991.991 0 1 1 0 1.984H3.637a.994.994 0 0 1-.992-.992c0-.547.445-.992.992-.992zm0 0" fill="#424242"/><path d="M21.707 18.496a.94.94 0 0 0-.977.938v7.937c0 .34.18.652.477.817a.924.924 0 0 0 .941-.012l6.618-3.969a.934.934 0 0 0 .453-.805.944.944 0 0 0-.453-.804l-6.618-3.97a.97.97 0 0 0-.441-.132zm.898 2.594l3.856 2.312-3.856 2.313zm0 0" fill="#42a5f5"/></svg>