<?xml version="1.0" encoding="UTF-8"?>
<svg xmlns="http://www.w3.org/2000/svg" xmlns:xlink="http://www.w3.org/1999/xlink" width="256pt" height="256pt" viewBox="0 0 256 256" version="1.1">
<defs>
<linearGradient id="linear0" gradientUnits="userSpaceOnUse" x1="254" y1="233.5" x2="254" y2="254.666672" gradientTransform="matrix(0.500048,0,0,0.500048,-0.0000305205,107.510281)">
<stop offset="0" style="stop-color:rgb(0%,0%,0%);stop-opacity:0.27451;"/>
<stop offset="1" style="stop-color:rgb(0%,0%,0%);stop-opacity:0;"/>
</linearGradient>
<radialGradient id="radial0" gradientUnits="userSpaceOnUse" cx="450.908936" cy="189.579361" fx="450.908936" fy="189.579361" r="21.166656" gradientTransform="matrix(0.00000139336,-0.62506,-1.125108,-0.000000812309,390.584361,508.762661)">
<stop offset="0" style="stop-color:rgb(0%,0%,0%);stop-opacity:0.313725;"/>
<stop offset="0.222222" style="stop-color:rgb(0%,0%,0%);stop-opacity:0.27451;"/>
<stop offset="1" style="stop-color:rgb(0%,0%,0%);stop-opacity:0;"/>
</radialGradient>
<radialGradient id="radial1" gradientUnits="userSpaceOnUse" cx="450.908936" cy="189.579361" fx="450.908936" fy="189.579361" r="21.166656" gradientTransform="matrix(-0.00000139336,0.62506,1.125108,0.000000812309,-141.85226,-60.219831)">
<stop offset="0" style="stop-color:rgb(0%,0%,0%);stop-opacity:0.313725;"/>
<stop offset="0.222222" style="stop-color:rgb(0%,0%,0%);stop-opacity:0.27451;"/>
<stop offset="1" style="stop-color:rgb(0%,0%,0%);stop-opacity:0;"/>
</radialGradient>
<radialGradient id="radial2" gradientUnits="userSpaceOnUse" cx="450.908936" cy="189.579361" fx="450.908936" fy="189.579361" r="21.166656" gradientTransform="matrix(-0.00000139336,-0.62506,1.125108,-0.000000812309,-141.85226,508.762661)">
<stop offset="0" style="stop-color:rgb(0%,0%,0%);stop-opacity:0.313725;"/>
<stop offset="0.222222" style="stop-color:rgb(0%,0%,0%);stop-opacity:0.27451;"/>
<stop offset="1" style="stop-color:rgb(0%,0%,0%);stop-opacity:0;"/>
</radialGradient>
<radialGradient id="radial3" gradientUnits="userSpaceOnUse" cx="450.908936" cy="189.579361" fx="450.908936" fy="189.579361" r="21.166656" gradientTransform="matrix(0.00000139336,0.62506,-1.125108,0.000000812309,390.584346,-60.219835)">
<stop offset="0" style="stop-color:rgb(0%,0%,0%);stop-opacity:0.313725;"/>
<stop offset="0.222222" style="stop-color:rgb(0%,0%,0%);stop-opacity:0.27451;"/>
<stop offset="1" style="stop-color:rgb(0%,0%,0%);stop-opacity:0;"/>
</radialGradient>
<filter id="alpha" filterUnits="objectBoundingBox" x="0%" y="0%" width="100%" height="100%">
  <feColorMatrix type="matrix" in="SourceGraphic" values="0 0 0 0 1 0 0 0 0 1 0 0 0 0 1 0 0 0 1 0"/>
</filter>
<mask id="mask0">
  <g filter="url(#alpha)">
<rect x="0" y="0" width="256" height="256" style="fill:rgb(0%,0%,0%);fill-opacity:0.988235;stroke:none;"/>
  </g>
</mask>
<linearGradient id="linear1" gradientUnits="userSpaceOnUse" x1="940" y1="1695.118164" x2="940" y2="175.118118" gradientTransform="matrix(0.132304,0,0,0.132304,0,0)">
<stop offset="0" style="stop-color:rgb(93.333333%,93.333333%,93.333333%);stop-opacity:1;"/>
<stop offset="1" style="stop-color:rgb(96.078431%,96.078431%,96.078431%);stop-opacity:1;"/>
</linearGradient>
<clipPath id="clip1">
  <rect x="0" y="0" width="256" height="256"/>
</clipPath>
<g id="surface5" clip-path="url(#clip1)">
<path style=" stroke:none;fill-rule:nonzero;fill:url(#linear1);" d="M 58.214844 23.167969 C 52.351562 23.167969 47.628906 27.890625 47.628906 33.753906 L 47.628906 213.6875 C 47.628906 219.550781 52.351562 224.273438 58.214844 224.273438 L 190.519531 224.273438 C 196.382812 224.273438 201.101562 219.550781 201.101562 213.6875 L 201.101562 70.796875 L 153.472656 23.167969 Z M 164.058594 23.167969 L 201.101562 60.214844 L 201.101562 33.753906 C 201.101562 27.890625 196.382812 23.167969 190.519531 23.167969 Z M 164.058594 23.167969 "/>
</g>
<mask id="mask1">
  <g filter="url(#alpha)">
<rect x="0" y="0" width="256" height="256" style="fill:rgb(0%,0%,0%);fill-opacity:0.988235;stroke:none;"/>
  </g>
</mask>
<linearGradient id="linear2" gradientUnits="userSpaceOnUse" x1="940" y1="1695.118164" x2="940" y2="175.118118" gradientTransform="matrix(0.132304,0,0,0.132304,0,0)">
<stop offset="0" style="stop-color:rgb(92.54902%,25.098039%,47.843137%);stop-opacity:1;"/>
<stop offset="1" style="stop-color:rgb(94.117647%,38.431373%,57.254902%);stop-opacity:1;"/>
</linearGradient>
<clipPath id="clip2">
  <rect x="0" y="0" width="256" height="256"/>
</clipPath>
<g id="surface8" clip-path="url(#clip2)">
<path style=" stroke:none;fill-rule:nonzero;fill:url(#linear2);" d="M 164.058594 23.167969 L 201.101562 60.214844 L 201.101562 33.753906 C 201.101562 27.890625 196.382812 23.167969 190.519531 23.167969 Z M 164.058594 23.167969 "/>
</g>
<mask id="mask2">
  <g filter="url(#alpha)">
<rect x="0" y="0" width="256" height="256" style="fill:rgb(0%,0%,0%);fill-opacity:0.988235;stroke:none;"/>
  </g>
</mask>
<clipPath id="clip3">
  <rect x="0" y="0" width="256" height="256"/>
</clipPath>
<g id="surface11" clip-path="url(#clip3)">
<path style=" stroke:none;fill-rule:nonzero;fill:rgb(100%,100%,100%);fill-opacity:0.392157;" d="M 58.214844 23.167969 C 52.351562 23.167969 47.628906 27.890625 47.628906 33.753906 L 47.628906 36.398438 C 47.628906 30.535156 52.351562 25.816406 58.214844 25.816406 L 153.472656 25.816406 L 201.101562 73.445312 L 201.101562 70.796875 L 153.472656 23.167969 Z M 164.058594 23.167969 L 166.703125 25.816406 L 190.519531 25.816406 C 196.382812 25.816406 201.101562 30.535156 201.101562 36.398438 L 201.101562 33.753906 C 201.101562 27.890625 196.382812 23.167969 190.519531 23.167969 Z M 164.058594 23.167969 "/>
</g>
<mask id="mask3">
  <g filter="url(#alpha)">
<rect x="0" y="0" width="256" height="256" style="fill:rgb(0%,0%,0%);fill-opacity:0.988235;stroke:none;"/>
  </g>
</mask>
<clipPath id="clip4">
  <rect x="0" y="0" width="256" height="256"/>
</clipPath>
<g id="surface14" clip-path="url(#clip4)">
<path style=" stroke:none;fill-rule:nonzero;fill:rgb(0%,0%,0%);fill-opacity:0.235294;" d="M 164.058594 23.167969 L 201.101562 60.214844 L 201.101562 56.289062 L 167.984375 23.167969 Z M 47.628906 209.761719 L 47.628906 213.6875 C 47.628906 219.550781 52.351562 224.273438 58.214844 224.273438 L 190.519531 224.273438 C 196.382812 224.273438 201.101562 219.550781 201.101562 213.6875 L 201.101562 209.761719 C 201.101562 215.625 196.382812 220.34375 190.519531 220.34375 L 58.214844 220.34375 C 52.351562 220.34375 47.628906 215.625 47.628906 209.761719 Z M 47.628906 209.761719 "/>
</g>
<mask id="mask4">
  <g filter="url(#alpha)">
<rect x="0" y="0" width="256" height="256" style="fill:rgb(0%,0%,0%);fill-opacity:0.988235;stroke:none;"/>
  </g>
</mask>
<clipPath id="clip5">
  <rect x="0" y="0" width="256" height="256"/>
</clipPath>
<g id="surface17" clip-path="url(#clip5)">
<path style=" stroke:none;fill-rule:nonzero;fill:rgb(12.941177%,12.941177%,12.941177%);fill-opacity:1;" d="M 58.214844 22.417969 C 51.949219 22.417969 46.878906 27.488281 46.878906 33.753906 L 46.878906 213.6875 C 46.878906 219.953125 51.949219 225.023438 58.214844 225.023438 L 190.519531 225.023438 C 196.785156 225.023438 201.851562 219.953125 201.851562 213.6875 L 201.851562 70.796875 C 201.851562 70.597656 201.773438 70.410156 201.632812 70.269531 L 154.003906 22.636719 C 153.863281 22.496094 153.671875 22.417969 153.472656 22.417969 Z M 164.058594 22.417969 C 163.753906 22.417969 163.480469 22.601562 163.363281 22.882812 C 163.246094 23.160156 163.3125 23.484375 163.527344 23.699219 L 200.570312 60.746094 C 200.785156 60.960938 201.109375 61.023438 201.390625 60.90625 C 201.671875 60.792969 201.851562 60.515625 201.851562 60.214844 L 201.851562 33.753906 C 201.851562 27.488281 196.785156 22.417969 190.519531 22.417969 Z M 58.214844 23.917969 L 153.164062 23.917969 L 200.351562 71.109375 L 200.351562 213.6875 C 200.351562 219.148438 195.980469 223.519531 190.519531 223.519531 L 58.214844 223.519531 C 52.753906 223.519531 48.378906 219.148438 48.378906 213.6875 L 48.378906 33.753906 C 48.378906 28.292969 52.753906 23.917969 58.214844 23.917969 Z M 165.867188 23.917969 L 190.519531 23.917969 C 195.980469 23.917969 200.351562 28.292969 200.351562 33.753906 L 200.351562 58.402344 Z M 165.867188 23.917969 "/>
</g>
<linearGradient id="linear3" gradientUnits="userSpaceOnUse" x1="216.958328" y1="16.541664" x2="216.958328" y2="-57.541668" gradientTransform="matrix(0.500048,0,0,0.500048,-2.646079,115.448524)">
<stop offset="0" style="stop-color:rgb(93.72549%,32.54902%,31.372549%);stop-opacity:1;"/>
<stop offset="1" style="stop-color:rgb(89.803922%,45.098039%,45.098039%);stop-opacity:1;"/>
</linearGradient>
<linearGradient id="linear4" gradientUnits="userSpaceOnUse" x1="216.958328" y1="16.541664" x2="216.958328" y2="-57.541668" gradientTransform="matrix(0.500048,0,0,0.500048,34.399128,115.448524)">
<stop offset="0" style="stop-color:rgb(40%,73.333333%,41.568627%);stop-opacity:1;"/>
<stop offset="1" style="stop-color:rgb(50.588235%,78.039216%,51.764706%);stop-opacity:1;"/>
</linearGradient>
<linearGradient id="linear5" gradientUnits="userSpaceOnUse" x1="216.958328" y1="16.541664" x2="216.958328" y2="-57.541668" gradientTransform="matrix(0.500048,0,0,0.500048,-2.646079,152.493725)">
<stop offset="0" style="stop-color:rgb(25.882353%,64.705882%,96.078431%);stop-opacity:1;"/>
<stop offset="1" style="stop-color:rgb(39.215686%,70.980392%,96.470588%);stop-opacity:1;"/>
</linearGradient>
<linearGradient id="linear6" gradientUnits="userSpaceOnUse" x1="216.958328" y1="13.89583" x2="216.958328" y2="-57.541668" gradientTransform="matrix(0.500048,0,0,0.500048,34.39914,152.493725)">
<stop offset="0" style="stop-color:rgb(100%,79.215686%,15.686275%);stop-opacity:1;"/>
<stop offset="1" style="stop-color:rgb(100%,83.529412%,30.980392%);stop-opacity:1;"/>
</linearGradient>
</defs>
<g id="surface1">
<path style=" stroke:none;fill-rule:nonzero;fill:url(#linear0);" d="M 68.796875 224.269531 L 179.933594 224.269531 L 179.933594 234.855469 L 68.796875 234.855469 Z M 68.796875 224.269531 "/>
<path style=" stroke:none;fill-rule:nonzero;fill:url(#radial0);" d="M 179.933594 224.269531 L 201.101562 224.269531 L 201.101562 213.6875 L 179.933594 213.6875 Z M 179.933594 224.269531 "/>
<path style=" stroke:none;fill-rule:nonzero;fill:url(#radial1);" d="M 68.796875 224.269531 L 47.628906 224.269531 L 47.628906 234.855469 L 68.796875 234.855469 Z M 68.796875 224.269531 "/>
<path style=" stroke:none;fill-rule:nonzero;fill:url(#radial2);" d="M 68.796875 224.269531 L 47.628906 224.269531 L 47.628906 213.6875 L 68.796875 213.6875 Z M 68.796875 224.269531 "/>
<path style=" stroke:none;fill-rule:nonzero;fill:url(#radial3);" d="M 179.933594 224.269531 L 201.101562 224.269531 L 201.101562 234.855469 L 179.933594 234.855469 Z M 179.933594 224.269531 "/>
<use xlink:href="#surface5" mask="url(#mask0)"/>
<use xlink:href="#surface8" mask="url(#mask1)"/>
<use xlink:href="#surface11" mask="url(#mask2)"/>
<use xlink:href="#surface14" mask="url(#mask3)"/>
<use xlink:href="#surface17" mask="url(#mask4)"/>
<path style=" stroke:none;fill-rule:nonzero;fill:url(#linear3);" d="M 92.613281 86.675781 C 89.679688 86.675781 87.320312 89.035156 87.320312 91.96875 L 87.320312 123.71875 L 124.367188 123.71875 L 124.367188 86.675781 Z M 92.613281 86.675781 "/>
<path style=" stroke:none;fill-rule:nonzero;fill:url(#linear4);" d="M 124.367188 86.675781 L 124.367188 123.71875 L 161.410156 123.71875 L 161.410156 91.96875 C 161.410156 89.035156 159.050781 86.675781 156.117188 86.675781 Z M 124.367188 86.675781 "/>
<path style=" stroke:none;fill-rule:nonzero;fill:url(#linear5);" d="M 87.320312 123.71875 L 87.320312 155.472656 C 87.320312 158.40625 89.679688 160.765625 92.613281 160.765625 L 124.367188 160.765625 L 124.367188 123.71875 Z M 87.320312 123.71875 "/>
<path style=" stroke:none;fill-rule:nonzero;fill:url(#linear6);" d="M 124.367188 123.71875 L 124.367188 160.765625 L 156.117188 160.765625 C 159.050781 160.765625 161.410156 158.40625 161.410156 155.472656 L 161.410156 123.71875 Z M 124.367188 123.71875 "/>
<path style=" stroke:none;fill-rule:nonzero;fill:rgb(12.941177%,12.941177%,12.941177%);fill-opacity:1;" d="M 92.613281 85.925781 C 89.277344 85.925781 86.570312 88.632812 86.570312 91.96875 L 86.570312 155.472656 C 86.570312 158.808594 89.277344 161.515625 92.613281 161.515625 L 156.117188 161.515625 C 159.453125 161.515625 162.160156 158.808594 162.160156 155.472656 L 162.160156 91.96875 C 162.160156 88.632812 159.453125 85.925781 156.117188 85.925781 Z M 92.613281 87.425781 L 156.117188 87.425781 C 158.648438 87.425781 160.660156 89.4375 160.660156 91.96875 L 160.660156 155.472656 C 160.660156 158.003906 158.648438 160.015625 156.117188 160.015625 L 92.613281 160.015625 C 90.082031 160.015625 88.070312 158.003906 88.070312 155.472656 L 88.070312 91.96875 C 88.070312 89.4375 90.082031 87.425781 92.613281 87.425781 Z M 92.613281 87.425781 "/>
<path style=" stroke:none;fill-rule:nonzero;fill:rgb(12.941177%,12.941177%,12.941177%);fill-opacity:1;" d="M 123.703125 86.675781 L 125.027344 86.675781 L 125.027344 160.765625 L 123.703125 160.765625 Z M 123.703125 86.675781 "/>
<path style=" stroke:none;fill-rule:nonzero;fill:rgb(12.941177%,12.941177%,12.941177%);fill-opacity:1;" d="M 161.410156 123.058594 L 161.410156 124.382812 L 87.320312 124.382812 L 87.320312 123.058594 Z M 161.410156 123.058594 "/>
</g>
</svg>
