<svg xmlns="http://www.w3.org/2000/svg" width="256pt" height="256pt" viewBox="0 0 256 256"><defs><linearGradient id="a" gradientUnits="userSpaceOnUse" x1="254" y1="233.5" x2="254" y2="254.667" gradientTransform="matrix(.50005 0 0 .50005 0 107.51)"><stop offset="0" stop-opacity=".275"/><stop offset="1" stop-opacity="0"/></linearGradient><radialGradient id="b" gradientUnits="userSpaceOnUse" cx="450.909" cy="189.579" fx="450.909" fy="189.579" r="21.167" gradientTransform="matrix(0 -.62506 -1.1251 0 424.983 508.763)"><stop offset="0" stop-opacity=".314"/><stop offset=".222" stop-opacity=".275"/><stop offset="1" stop-opacity="0"/></radialGradient><radialGradient id="c" gradientUnits="userSpaceOnUse" cx="450.909" cy="189.579" fx="450.909" fy="189.579" r="21.167" gradientTransform="matrix(0 .62506 1.1251 0 -169.636 -60.22)"><stop offset="0" stop-opacity=".314"/><stop offset=".222" stop-opacity=".275"/><stop offset="1" stop-opacity="0"/></radialGradient><radialGradient id="d" gradientUnits="userSpaceOnUse" cx="450.909" cy="189.579" fx="450.909" fy="189.579" r="21.167" gradientTransform="matrix(0 -.62506 1.1251 0 -169.636 508.763)"><stop offset="0" stop-opacity=".314"/><stop offset=".222" stop-opacity=".275"/><stop offset="1" stop-opacity="0"/></radialGradient><radialGradient id="e" gradientUnits="userSpaceOnUse" cx="450.909" cy="189.579" fx="450.909" fy="189.579" r="21.167" gradientTransform="matrix(0 .62506 -1.1251 0 424.983 -60.22)"><stop offset="0" stop-opacity=".314"/><stop offset=".222" stop-opacity=".275"/><stop offset="1" stop-opacity="0"/></radialGradient><linearGradient id="f" gradientUnits="userSpaceOnUse" x1="254" y1="-168.667" x2="254" y2="233.5" gradientTransform="matrix(.50005 0 0 .50005 0 107.51)"><stop offset="0" stop-color="#ef9a9a"/><stop offset="1" stop-color="#e57373"/></linearGradient><linearGradient id="g" gradientUnits="userSpaceOnUse" x1="148.167" y1="-168.667" x2="148.167" y2="233.5" gradientTransform="translate(-31.75)"><stop offset="0" stop-color="#e57373"/><stop offset="1" stop-color="#ef5350"/></linearGradient><linearGradient id="h" gradientUnits="userSpaceOnUse" x1="148.167" y1="-168.667" x2="148.167" y2="233.5" gradientTransform="translate(201.083)"><stop offset="0" stop-color="#e57373"/><stop offset="1" stop-color="#ef5350"/></linearGradient><linearGradient id="i" gradientUnits="userSpaceOnUse" x1="960" y1="1115.118" x2="960" y2="675.118" gradientTransform="matrix(.26458 0 0 .26458 -116.417 -215)"><stop offset="0" stop-color="#bdbdbd"/><stop offset="1" stop-color="#e0e0e0"/></linearGradient><linearGradient id="j" gradientUnits="userSpaceOnUse" x1="164.042" y1="64.167" x2="164.042" y2=".667" gradientTransform="translate(-21.167 42.333)"><stop offset="0" stop-color="#bdbdbd"/><stop offset="1" stop-color="#e0e0e0"/></linearGradient><linearGradient id="k" gradientUnits="userSpaceOnUse" x1="158.75" y1="-115.75" x2="158.75" y2="286.417" gradientTransform="translate(-21.167 -52.917)"><stop offset="0" stop-color="#ef9a9a"/><stop offset="1" stop-color="#e57373"/></linearGradient><linearGradient id="l" gradientUnits="userSpaceOnUse" x1="960" y1="1115.118" x2="960" y2="675.118" gradientTransform="matrix(.26458 0 0 .26458 116.417 -215)"><stop offset="0" stop-color="#bdbdbd"/><stop offset="1" stop-color="#e0e0e0"/></linearGradient><linearGradient id="m" gradientUnits="userSpaceOnUse" x1="164.042" y1="64.167" x2="164.042" y2=".667" gradientTransform="translate(211.667 42.333)"><stop offset="0" stop-color="#bdbdbd"/><stop offset="1" stop-color="#e0e0e0"/></linearGradient><linearGradient id="n" gradientUnits="userSpaceOnUse" x1="158.75" y1="-115.75" x2="158.75" y2="286.417" gradientTransform="translate(211.667 -52.917)"><stop offset="0" stop-color="#ef9a9a"/><stop offset="1" stop-color="#e57373"/></linearGradient></defs><path d="M31.754 224.27a10.561 10.561 0 0 1-10.586-10.583v-1.324a10.564 10.564 0 0 0 10.586 10.586H222.27a10.562 10.562 0 0 0 10.585-10.586v1.325a10.559 10.559 0 0 1-10.585 10.582zm0 0" fill-opacity=".196"/><path d="M41.016 224.27h173.316v10.585H41.016zm0 0" fill="url(#a)"/><path d="M214.332 224.27H235.5v-10.583h-21.168zm0 0" fill="url(#b)"/><path d="M41.016 224.27H19.844v10.585h21.172zm0 0" fill="url(#c)"/><path d="M41.016 224.27H19.844v-10.583h21.172zm0 0" fill="url(#d)"/><path d="M214.332 224.27H235.5v10.585h-21.168zm0 0" fill="url(#e)"/><path d="M29.105 23.168h195.813a7.939 7.939 0 0 1 7.937 7.937v185.227a7.936 7.936 0 0 1-7.937 7.938H29.105a7.936 7.936 0 0 1-7.937-7.938V31.105a7.939 7.939 0 0 1 7.937-7.937zm0 0" fill="url(#f)"/><path d="M126.02 100.441a43.777 43.777 0 0 0-10.942 1.38c-4.457 1.136-13.183 5.667-29.363 2.027-28-6.305-32.149 7.707-33.75 13.812-1.621 6.106-5.477 23.461-5.477 23.461-1.285 7.078-2.968 19.363 40.52 27.652 20.254 3.852 21.273 9.09 22.183 12.848 1.61 6.746 4.176 10.602 7.07 12.531 2.895 1.93 0 3.532-3.21 3.848-8.617.902-40.512-8.242-59.383-18.953-15.434-9.426-15.688-17.906-12.16-25.113-7.469-.809-14.344-.875-20.34-.227v46.895c11.535 8.351 26.457 16.605 43.05 23.668h138.04c5.808-5.442 9.703-12.07 11.117-19.836 2.918-16.059-10.61-27.942-33.441-33.086-1.329 4.46-3.211 10.168-11.621 14.48-1.227.629-1.68-.398-1.13-1.367 3.188-5.406 3.743-6.75 4.669-8.871 1.285-3.121 1.976-7.555-.602-16.781-5.047-18.172-15.605-42.477-23.258-50.348-5.199-5.348-13.367-7.996-21.972-8.02zm.804 6.262h.778c8.617.207 15.503 3.621 15.402 7.645-.102 4.023-7.16 7.125-15.785 6.941-2.778-.066-5.399-.473-7.645-1.125-.277-.07-.465-.277-.465-.566 0-.274.172-.493.477-.563 5.36-1.238 8.988-3.277 8.734-5.195-.347-2.54-7.363-3.922-15.699-3.086-.918.101-1.8.207-2.664.348l-.004-.016h-.066c-.242 0-.426-.172-.426-.398 0-.172.102-.31.238-.376 3.016-1.582 7.5-2.859 12.633-3.367a40.468 40.468 0 0 1 4.492-.242zM63.227 122.86c1.277.04 2.421.73 2.988 1.434 1.465 1.828 4.601 4.82 8.68 4.71 4.074-.1 8.77-.964 15.332-.964 6.644 0 11.101 2.477 11.347 4.613.242 1.813-.535 3.52-7.926 4.067v.004c-15.515 1.12-17.136 2.793-20.039 5.879-4.093 4.375-9.5-5.653-9.5-5.653-3.25-.68-7.168-5.906-5.05-10.773 1.113-2.563 2.726-3.356 4.168-3.317zm0 0M29.105 23.168a7.924 7.924 0 0 0-7.937 7.937v2.649a7.921 7.921 0 0 1 7.937-7.938h195.813a7.919 7.919 0 0 1 7.937 7.938v-2.649a7.921 7.921 0 0 0-7.937-7.937zm0 0" fill="#fff" fill-opacity=".392"/><path d="M29.105 224.27a7.921 7.921 0 0 1-7.937-7.938v-2.644a7.921 7.921 0 0 0 7.937 7.937h195.813a7.919 7.919 0 0 0 7.937-7.938v2.645a7.919 7.919 0 0 1-7.937 7.938zm0 0" fill="#050505" fill-opacity=".235"/><path d="M29.105 22.418c-4.796 0-8.687 3.89-8.687 8.691v185.223c0 4.8 3.89 8.691 8.687 8.691h195.813c4.8 0 8.687-3.89 8.687-8.691V31.109c0-4.8-3.886-8.691-8.687-8.691zm0 1.5h195.813a7.157 7.157 0 0 1 7.187 7.191v185.223a7.154 7.154 0 0 1-7.187 7.188H29.105a7.156 7.156 0 0 1-7.187-7.188V31.109a7.16 7.16 0 0 1 7.187-7.191zm0 0" fill="#212121"/><path d="M105.834-62.835h63.501c5.844 0 10.585 4.742 10.585 10.585V106.5c0 5.844-4.741 10.585-10.585 10.585h-63.501c-5.844 0-10.585-4.741-10.585-10.584V-52.25c0-5.844 4.741-10.586 10.585-10.586zm0 0" transform="matrix(.50005 0 0 .50005 0 107.51)" fill="url(#g)" stroke-width="3" stroke-linecap="round" stroke="#212121"/><path d="M338.663-62.835h63.502c5.843 0 10.585 4.742 10.585 10.585V106.5c0 5.844-4.742 10.585-10.585 10.585h-63.502c-5.843 0-10.577-4.741-10.577-10.584V-52.25c0-5.844 4.734-10.586 10.577-10.586zm0 0" transform="matrix(.50005 0 0 .50005 0 107.51)" fill="url(#h)" stroke-width="3" stroke-linecap="round" stroke="#212121"/><path d="M21.168 122.398h211.687v1.32H21.168zm0 0" fill-opacity=".196"/><path d="M21.168 123.719h211.687v1.324H21.168zm0 0" fill="#e6e6e6" fill-opacity=".588"/><path d="M21.168 123.059h211.687v1.324H21.168zm0 0" fill="#212121" fill-opacity=".992"/><path d="M116.419-36.376a10.558 10.558 0 0 0-10.585 10.584v95.25a10.558 10.558 0 0 0 10.585 10.584h42.331a10.563 10.563 0 0 0 10.585-10.585v-95.249a10.563 10.563 0 0 0-10.585-10.584zm2.64 7.936h37.043a5.28 5.28 0 0 1 5.297 5.297v89.952a5.28 5.28 0 0 1-5.297 5.296H119.06a5.28 5.28 0 0 1-5.289-5.296v-89.952a5.28 5.28 0 0 1 5.289-5.297zm0 0" transform="matrix(.50005 0 0 .50005 0 107.51)" fill="url(#i)" stroke-width="3" stroke-linecap="round" stroke-linejoin="round" stroke="#212121"/><path d="M127.003 42.999h21.163c5.843 0 10.584 4.742 10.584 10.585v42.332c0 5.843-4.741 10.585-10.584 10.585h-21.163c-5.85 0-10.584-4.742-10.584-10.585V53.584c0-5.843 4.733-10.585 10.584-10.585zm0 0" transform="matrix(.50005 0 0 .50005 0 107.51)" fill="url(#j)" stroke-width="3" stroke-linecap="round" stroke="#212121"/><path d="M127.003-52.25h21.163c5.843 0 10.584 4.742 10.584 10.585v15.873c0 5.844-4.741 10.585-10.584 10.585h-21.163c-5.85 0-10.584-4.741-10.584-10.585v-15.873c0-5.843 4.733-10.585 10.584-10.585zm0 0" transform="matrix(.50005 0 0 .50005 0 107.51)" fill="url(#k)" stroke-width="3" stroke-linecap="round" stroke="#212121"/><path d="M349.248-36.376a10.563 10.563 0 0 0-10.585 10.584v95.25a10.563 10.563 0 0 0 10.585 10.584h42.332a10.558 10.558 0 0 0 10.585-10.585v-95.249a10.558 10.558 0 0 0-10.585-10.584zm2.648 7.936h37.043a5.28 5.28 0 0 1 5.289 5.297v89.952a5.28 5.28 0 0 1-5.289 5.296h-37.043a5.28 5.28 0 0 1-5.288-5.296v-89.952a5.28 5.28 0 0 1 5.288-5.297zm0 0" transform="matrix(.50005 0 0 .50005 0 107.51)" fill="url(#l)" stroke-width="3" stroke-linecap="round" stroke-linejoin="round" stroke="#212121"/><path d="M359.833 42.999h21.17c5.843 0 10.577 4.742 10.577 10.585v42.332c0 5.843-4.734 10.585-10.577 10.585h-21.17c-5.843 0-10.585-4.742-10.585-10.585V53.584c0-5.843 4.742-10.585 10.585-10.585zm0 0" transform="matrix(.50005 0 0 .50005 0 107.51)" fill="url(#m)" stroke-width="3" stroke-linecap="round" stroke="#212121"/><path d="M359.833-52.25h21.17c5.843 0 10.577 4.742 10.577 10.585v15.873c0 5.844-4.734 10.585-10.577 10.585h-21.17c-5.843 0-10.585-4.741-10.585-10.585v-15.873c0-5.843 4.742-10.585 10.585-10.585zm0 0" transform="matrix(.50005 0 0 .50005 0 107.51)" fill="url(#n)" stroke-width="3" stroke-linecap="round" stroke="#212121"/></svg>