<?xml version="1.0" encoding="UTF-8"?>
<svg xmlns="http://www.w3.org/2000/svg" xmlns:xlink="http://www.w3.org/1999/xlink" width="16px" height="16px" viewBox="0 0 16 16" version="1.1">
<g id="surface1">
<path style=" stroke:none;fill-rule:nonzero;fill:rgb(87.843138%,87.843138%,87.843138%);fill-opacity:1;" d="M 14.554688 8.0625 C 14.554688 7.878906 14.40625 7.734375 14.222656 7.734375 L 1.652344 7.734375 C 1.472656 7.734375 1.324219 7.878906 1.324219 8.0625 C 1.324219 8.246094 1.472656 8.394531 1.652344 8.394531 L 14.222656 8.394531 C 14.40625 8.394531 14.554688 8.246094 14.554688 8.0625 Z M 14.554688 8.0625 "/>
<path style=" stroke:none;fill-rule:nonzero;fill:rgb(87.843138%,87.843138%,87.843138%);fill-opacity:1;" d="M 9.921875 14.679688 C 9.191406 14.679688 8.601562 14.089844 8.601562 13.355469 L 8.601562 11.371094 C 8.601562 10.636719 9.191406 10.046875 9.921875 10.046875 L 11.90625 10.046875 C 12.640625 10.046875 13.230469 10.636719 13.230469 11.371094 L 13.230469 13.355469 C 13.230469 14.089844 12.640625 14.679688 11.90625 14.679688 Z M 10.253906 13.355469 L 11.578125 13.355469 C 11.761719 13.355469 11.90625 13.207031 11.90625 13.023438 L 11.90625 11.703125 C 11.90625 11.519531 11.761719 11.371094 11.578125 11.371094 L 10.253906 11.371094 C 10.070312 11.371094 9.921875 11.519531 9.921875 11.703125 L 9.921875 13.023438 C 9.921875 13.207031 10.070312 13.355469 10.253906 13.355469 Z M 10.253906 13.355469 "/>
<path style=" stroke:none;fill-rule:nonzero;fill:rgb(87.843138%,87.843138%,87.843138%);fill-opacity:1;" d="M 3.96875 14.679688 C 3.234375 14.679688 2.644531 14.089844 2.644531 13.355469 L 2.644531 10.710938 C 2.644531 9.976562 3.234375 9.386719 3.96875 9.386719 L 5.953125 9.386719 C 6.6875 9.386719 7.277344 9.976562 7.277344 10.710938 L 7.277344 13.355469 C 7.277344 14.089844 6.6875 14.679688 5.953125 14.679688 Z M 4.300781 13.355469 L 5.621094 13.355469 C 5.804688 13.355469 5.953125 13.207031 5.953125 13.023438 L 5.953125 11.039062 C 5.953125 10.855469 5.804688 10.710938 5.621094 10.710938 L 4.300781 10.710938 C 4.117188 10.710938 3.96875 10.855469 3.96875 11.039062 L 3.96875 13.023438 C 3.96875 13.207031 4.117188 13.355469 4.300781 13.355469 Z M 4.300781 13.355469 "/>
<path style=" stroke:none;fill-rule:nonzero;fill:rgb(87.843138%,87.843138%,87.843138%);fill-opacity:1;" d="M 13.230469 5.417969 C 13.230469 6.148438 12.640625 6.738281 11.90625 6.738281 L 9.261719 6.738281 C 8.527344 6.738281 7.9375 6.148438 7.9375 5.417969 L 7.9375 3.433594 C 7.9375 2.699219 8.527344 2.109375 9.261719 2.109375 L 11.90625 2.109375 C 12.640625 2.109375 13.230469 2.699219 13.230469 3.433594 Z M 13.230469 5.417969 "/>
</g>
</svg>
