<?xml version="1.0" encoding="UTF-8"?>
<svg xmlns="http://www.w3.org/2000/svg" xmlns:xlink="http://www.w3.org/1999/xlink" width="16pt" height="16pt" viewBox="0 0 16 16" version="1.1">
<g id="surface1">
<path style=" stroke:none;fill-rule:nonzero;fill:rgb(74.117649%,74.117649%,74.117649%);fill-opacity:1;" d="M 11.742188 3.433594 L 11.742188 5.417969 L 9.59375 5.417969 L 9.59375 13.355469 L 11.742188 13.355469 L 11.742188 15.339844 L 13.066406 15.339844 L 13.066406 13.355469 L 15.214844 13.355469 L 15.214844 5.417969 L 13.066406 5.417969 L 13.066406 3.433594 Z M 10.914062 6.738281 L 13.890625 6.738281 L 13.890625 12.03125 L 10.914062 12.03125 Z M 10.914062 6.738281 "/>
<path style=" stroke:none;fill-rule:nonzero;fill:rgb(74.117649%,74.117649%,74.117649%);fill-opacity:1;" d="M 2.8125 3.433594 L 2.8125 5.417969 L 0.660156 5.417969 L 0.660156 11.703125 L 2.8125 11.703125 L 2.8125 15.339844 L 4.132812 15.339844 L 4.132812 11.703125 L 6.285156 11.703125 L 6.285156 5.417969 L 4.132812 5.417969 L 4.132812 3.433594 Z M 1.984375 6.738281 L 4.960938 6.738281 L 4.960938 10.378906 L 1.984375 10.378906 Z M 1.984375 6.738281 "/>
<path style=" stroke:none;fill-rule:evenodd;fill:rgb(74.117649%,74.117649%,74.117649%);fill-opacity:1;" d="M 6.613281 4.753906 L 4.628906 2.769531 L 6.613281 0.785156 Z M 6.613281 4.753906 "/>
<path style=" stroke:none;fill-rule:evenodd;fill:rgb(74.117649%,74.117649%,74.117649%);fill-opacity:1;" d="M 9.261719 4.753906 L 11.246094 2.769531 L 9.261719 0.785156 Z M 9.261719 4.753906 "/>
</g>
</svg>
