<?xml version="1.0" encoding="UTF-8"?>
<svg xmlns="http://www.w3.org/2000/svg" xmlns:xlink="http://www.w3.org/1999/xlink" width="16px" height="16px" viewBox="0 0 16 16" version="1.1">
<g id="surface1">
<path style=" stroke:none;fill-rule:nonzero;fill:rgb(87.843138%,87.843138%,87.843138%);fill-opacity:1;" d="M 7.9375 1.453125 L 7.9375 2.769531 L 9.648438 2.769531 L 11.910156 5.027344 L 11.910156 7.402344 L 11.90625 7.402344 L 11.90625 12.695312 C 11.90625 13.058594 11.613281 13.355469 11.246094 13.355469 L 4.628906 13.355469 C 4.265625 13.355469 3.96875 13.058594 3.96875 12.695312 L 3.96875 6.078125 L 2.644531 6.078125 L 2.644531 13.355469 C 2.644531 14.089844 3.234375 14.679688 3.96875 14.679688 L 11.90625 14.679688 C 12.640625 14.679688 13.230469 14.089844 13.230469 13.355469 L 13.230469 7.402344 L 13.226562 7.402344 L 13.226562 4.753906 C 13.226562 4.582031 13.15625 4.414062 13.035156 4.289062 L 10.386719 1.644531 C 10.265625 1.519531 10.097656 1.453125 9.921875 1.453125 Z M 7.9375 1.453125 "/>
<path style=" stroke:none;fill-rule:nonzero;fill:rgb(87.843138%,87.843138%,87.843138%);fill-opacity:1;" d="M 2.644531 1.449219 L 7.277344 1.449219 L 4.960938 4.753906 Z M 2.644531 1.449219 "/>
</g>
</svg>
