<?xml version="1.0" encoding="UTF-8"?>
<svg xmlns="http://www.w3.org/2000/svg" xmlns:xlink="http://www.w3.org/1999/xlink" width="16px" height="16px" viewBox="0 0 16 16" version="1.1">
<g id="surface1">
<path style="fill-rule:nonzero;fill:rgb(12.941177%,12.941177%,12.941177%);fill-opacity:1;stroke-width:82;stroke-linecap:round;stroke-linejoin:round;stroke:rgb(25.882354%,25.882354%,25.882354%);stroke-opacity:1;stroke-miterlimit:4;" d="M 423.459562 -147.631433 C 415.710302 -147.631433 408.71097 -143.381839 404.961328 -136.632484 L 228.603169 176.962569 L 100.115439 39.225723 C 94.990929 33.60126 87.241669 31.101498 79.867373 32.851331 C 72.368089 34.476176 66.49365 40.100639 64.368853 47.349947 C 62.119068 54.599255 63.993889 62.473503 69.243388 67.972977 L 217.479232 226.707819 C 221.978802 231.582354 228.728158 234.082115 235.352525 233.207198 C 241.976892 232.45727 247.851331 228.457652 251.226009 222.708201 L 441.707819 -116.009453 C 445.457461 -122.508832 445.457461 -130.633057 441.707819 -137.132436 C 437.958177 -143.631815 430.958845 -147.631433 423.459562 -147.631433 Z M 423.459562 -147.631433 " transform="matrix(0.031253,0,0,0.031253,0,6.719392)"/>
<path style=" stroke:none;fill-rule:nonzero;fill:rgb(98.039216%,98.039216%,98.039216%);fill-opacity:1;" d="M 13.234375 2.105469 C 12.992188 2.105469 12.773438 2.238281 12.65625 2.449219 L 7.144531 12.25 L 3.128906 7.945312 C 2.96875 7.769531 2.726562 7.691406 2.496094 7.746094 C 2.261719 7.796875 2.078125 7.972656 2.011719 8.199219 C 1.941406 8.425781 2 8.671875 2.164062 8.84375 L 6.796875 13.804688 C 6.9375 13.957031 7.148438 14.035156 7.355469 14.007812 C 7.5625 13.984375 7.746094 13.859375 7.851562 13.679688 L 13.804688 3.09375 C 13.921875 2.890625 13.921875 2.636719 13.804688 2.433594 C 13.6875 2.230469 13.46875 2.105469 13.234375 2.105469 Z M 13.234375 2.105469 "/>
</g>
</svg>
