<svg height="16" viewBox="0 0 16 16" width="16" xmlns="http://www.w3.org/2000/svg"><g fill="#e0e0e0"><path d="m5.292969 4.425781c-.664063 0-2.648438.660157-2.648438 3.636719 0 1.285156 1.035157 2.316406 2.316407 2.316406s2.316406-1.03125 2.316406-2.316406c0-1.28125-1.035156-2.316406-2.316406-2.316406-.660157 0-.660157-.660156.332031-1.320313zm0 0"/><path d="m11.246094 4.425781c-.660156 0-2.644532.660157-2.644532 3.636719 0 1.285156 1.03125 2.316406 2.3125 2.316406 1.285157 0 2.316407-1.03125 2.316407-2.316406 0-1.28125-1.03125-2.316406-2.316407-2.316406-.660156 0-.660156-.660156.332032-1.320313zm0 0"/></g></svg>