
<svg xmlns="http://www.w3.org/2000/svg" xmlns:xlink="http://www.w3.org/1999/xlink" width="16px" height="16px" viewBox="0 0 16 16" version="1.1">
<g id="surface1">
     <defs>
  <style id="current-color-scheme" type="text/css">
   .ColorScheme-Text { color:#eeeeee; } .ColorScheme-Highlight { color:#424242; }
  </style>
 </defs>
<path style="fill:currentColor" class="ColorScheme-Text" d="M 8.601562 6.085938 L 7.277344 6.085938 L 7.277344 14.347656 C 7.277344 14.53125 7.425781 14.679688 7.609375 14.679688 L 8.269531 14.679688 C 8.453125 14.679688 8.601562 14.53125 8.601562 14.347656 Z M 8.601562 6.085938 "/>
     <defs>
  <style id="current-color-scheme" type="text/css">
   .ColorScheme-Text { color:#eeeeee; } .ColorScheme-Highlight { color:#424242; }
  </style>
 </defs>
<path style="fill:currentColor" class="ColorScheme-Text" d="M 5.621094 6.75 L 10.253906 6.75 L 7.9375 3.441406 Z M 5.621094 6.75 "/>
     <defs>
  <style id="current-color-scheme" type="text/css">
   .ColorScheme-Text { color:#eeeeee; } .ColorScheme-Highlight { color:#424242; }
  </style>
 </defs>
<path style="fill:currentColor" class="ColorScheme-Text" d="M 1.652344 2.78125 L 14.222656 2.78125 C 14.40625 2.78125 14.554688 2.632812 14.554688 2.449219 L 14.554688 1.789062 C 14.554688 1.605469 14.40625 1.457031 14.222656 1.457031 L 1.652344 1.457031 C 1.472656 1.457031 1.324219 1.605469 1.324219 1.789062 L 1.324219 2.449219 C 1.324219 2.632812 1.472656 2.78125 1.652344 2.78125 Z M 1.652344 2.78125 "/>
</g>
</svg>
