<?xml version="1.0" encoding="UTF-8"?>
<svg xmlns="http://www.w3.org/2000/svg" xmlns:xlink="http://www.w3.org/1999/xlink" width="16pt" height="16pt" viewBox="0 0 16 16" version="1.1">
<g id="surface1">
<path style=" stroke:none;fill-rule:nonzero;fill:rgb(74.117649%,74.117649%,74.117649%);fill-opacity:1;" d="M 7.9375 0.785156 C 3.90625 0.785156 0.660156 4.03125 0.660156 8.0625 C 0.660156 12.09375 3.90625 15.339844 7.9375 15.339844 C 11.96875 15.339844 15.214844 12.09375 15.214844 8.0625 C 15.214844 4.03125 11.96875 0.785156 7.9375 0.785156 Z M 7.9375 2.109375 C 11.238281 2.109375 13.890625 4.765625 13.890625 8.0625 C 13.890625 11.363281 11.238281 14.015625 7.9375 14.015625 C 4.640625 14.015625 1.984375 11.363281 1.984375 8.0625 C 1.984375 4.765625 4.640625 2.109375 7.9375 2.109375 Z M 7.9375 2.109375 "/>
<path style=" stroke:none;fill-rule:nonzero;fill:rgb(74.117649%,74.117649%,74.117649%);fill-opacity:1;" d="M 6.945312 6.738281 L 8.929688 6.738281 L 8.929688 12.03125 L 6.945312 12.03125 Z M 6.945312 6.738281 "/>
<path style=" stroke:none;fill-rule:nonzero;fill:rgb(74.117649%,74.117649%,74.117649%);fill-opacity:1;" d="M 7.9375 3.433594 C 8.484375 3.433594 8.929688 3.875 8.929688 4.425781 C 8.929688 4.972656 8.484375 5.417969 7.9375 5.417969 C 7.390625 5.417969 6.945312 4.972656 6.945312 4.425781 C 6.945312 3.875 7.390625 3.433594 7.9375 3.433594 Z M 7.9375 3.433594 "/>
</g>
</svg>
