
<svg xmlns="http://www.w3.org/2000/svg" xmlns:xlink="http://www.w3.org/1999/xlink" width="16px" height="16px" viewBox="0 0 16 16" version="1.1">
<g id="surface1">
<defs>
  <style id="current-color-scheme" type="text/css">
   .ColorScheme-Text { color:#eeeeee; } .ColorScheme-Highlight { color:#424242; }
  </style>
 </defs>
<path style="fill:currentColor" class="ColorScheme-Text" d="M 5 2 L 5 5 L 2 5 L 2 6 L 5 6 L 5 10 L 2 10 L 2 11 L 5 11 L 5 14 L 6 14 L 6 11 L 10 11 L 10 14 L 11 14 L 11 11 L 14 11 L 14 10 L 11 10 L 11 6 L 14 6 L 14 5 L 11 5 L 11 2 L 10 2 L 10 5 L 6 5 L 6 2 Z M 6 6 L 10 6 L 10 10 L 6 10 Z M 6 6 "/>
</g>
</svg>
