<svg height="16" viewBox="0 0 16 16" width="16" xmlns="http://www.w3.org/2000/svg"><g fill="#e0e0e0"><path d="m4.628906 10.378906v.660156c0 .183594-.144531.332032-.328125.332032h-.664062c-.179688 0-.328125-.148438-.328125-.332032v-.660156c0-.183594.148437-.332031.328125-.332031h.664062c.183594 0 .328125.148437.328125.332031zm0 0"/><path d="m7.277344 10.378906v.660156c0 .183594-.148438.332032-.332032.332032h-.660156c-.183594 0-.332031-.148438-.332031-.332032v-.660156c0-.183594.148437-.332031.332031-.332031h.660156c.183594 0 .332032.148437.332032.332031zm0 0"/><path d="m9.921875 10.378906v.660156c0 .183594-.148437.332032-.328125.332032h-.664062c-.183594 0-.328126-.148438-.328126-.332032v-.660156c0-.183594.144532-.332031.328126-.332031h.664062c.179688 0 .328125.148437.328125.332031zm0 0"/><path d="m12.570312 10.378906v.660156c0 .183594-.148437.332032-.332031.332032h-.660156c-.183594 0-.332031-.148438-.332031-.332032v-.660156c0-.183594.148437-.332031.332031-.332031h.660156c.183594 0 .332031.148437.332031.332031zm0 0"/><path d="m14.554688 4.09375c0-.734375-.589844-1.324219-1.324219-1.324219h-10.585938c-.730469 0-1.320312.589844-1.320312 1.324219v7.9375c0 .734375.589843 1.324219 1.320312 1.324219h10.585938c.734375 0 1.324219-.589844 1.324219-1.324219zm-1.324219.660156v6.617188c0 .367187-.296875.660156-.660157.660156h-9.261718c-.367188 0-.664063-.292969-.664063-.660156v-6.617188c0-.363281.296875-.660156.664063-.660156h9.261718c.363282 0 .660157.296875.660157.660156zm0 0"/><path d="m4.628906 5.085938v.660156c0 .183594-.144531.332031-.328125.332031h-.664062c-.179688 0-.328125-.148437-.328125-.332031v-.660156c0-.183594.148437-.332032.328125-.332032h.664062c.183594 0 .328125.148438.328125.332032zm0 0"/><path d="m7.277344 5.085938v.660156c0 .183594-.148438.332031-.332032.332031h-.660156c-.183594 0-.332031-.148437-.332031-.332031v-.660156c0-.183594.148437-.332032.332031-.332032h.660156c.183594 0 .332032.148438.332032.332032zm0 0"/><path d="m9.921875 5.085938v.660156c0 .183594-.148437.332031-.328125.332031h-.664062c-.183594 0-.328126-.148437-.328126-.332031v-.660156c0-.183594.144532-.332032.328126-.332032h.664062c.179688 0 .328125.148438.328125.332032zm0 0"/><path d="m12.570312 5.085938v.660156c0 .183594-.148437.332031-.332031.332031h-.660156c-.183594 0-.332031-.148437-.332031-.332031v-.660156c0-.183594.148437-.332032.332031-.332032h.660156c.183594 0 .332031.148438.332031.332032zm0 0"/></g></svg>