<?xml version="1.0" encoding="UTF-8"?>
<svg xmlns="http://www.w3.org/2000/svg" xmlns:xlink="http://www.w3.org/1999/xlink" width="16px" height="16px" viewBox="0 0 16 16" version="1.1">
<g id="surface1">
<path style=" stroke:none;fill-rule:nonzero;fill:rgb(87.843138%,87.843138%,87.843138%);fill-opacity:1;" d="M 1.324219 6.078125 L 1.324219 12.03125 C 1.324219 12.765625 1.914062 13.355469 2.644531 13.355469 L 8.601562 13.355469 L 8.601562 12.03125 L 3.308594 12.03125 C 2.941406 12.03125 2.644531 11.738281 2.644531 11.371094 L 2.644531 6.078125 Z M 13.230469 6.078125 L 13.230469 8.0625 L 14.554688 8.0625 L 14.554688 6.078125 Z M 13.230469 6.078125 "/>
<path style=" stroke:none;fill-rule:nonzero;fill:rgb(87.843138%,87.843138%,87.843138%);fill-opacity:1;" d="M 7.949219 2.773438 C 7.855469 2.773438 7.757812 2.792969 7.671875 2.832031 L 1.71875 5.476562 C 1.5 5.570312 1.347656 5.773438 1.320312 6.011719 C 1.292969 6.246094 1.398438 6.476562 1.589844 6.617188 C 1.785156 6.757812 2.035156 6.78125 2.253906 6.679688 L 7.9375 4.152344 L 13.625 6.679688 C 13.839844 6.78125 14.09375 6.757812 14.285156 6.617188 C 14.480469 6.476562 14.582031 6.246094 14.554688 6.011719 C 14.53125 5.773438 14.378906 5.570312 14.160156 5.476562 L 8.207031 2.832031 C 8.125 2.796875 8.039062 2.777344 7.949219 2.773438 Z M 7.949219 2.773438 "/>
<path style=" stroke:none;fill-rule:nonzero;fill:rgb(87.843138%,87.843138%,87.843138%);fill-opacity:1;" d="M 1.996094 5.417969 C 1.679688 5.40625 1.402344 5.625 1.332031 5.933594 C 1.265625 6.242188 1.425781 6.554688 1.71875 6.679688 L 7.671875 9.328125 C 7.839844 9.402344 8.035156 9.402344 8.207031 9.328125 L 14.160156 6.679688 C 14.378906 6.585938 14.53125 6.382812 14.554688 6.148438 C 14.582031 5.910156 14.480469 5.679688 14.285156 5.539062 C 14.09375 5.402344 13.839844 5.378906 13.625 5.476562 L 7.9375 8.003906 L 2.253906 5.476562 C 2.171875 5.441406 2.085938 5.417969 1.996094 5.417969 Z M 1.996094 5.417969 "/>
<path style=" stroke:none;fill-rule:nonzero;fill:rgb(87.843138%,87.843138%,87.843138%);fill-opacity:1;" d="M 10.253906 9.386719 L 14.222656 9.386719 C 14.40625 9.386719 14.554688 9.535156 14.554688 9.71875 L 14.554688 10.378906 C 14.554688 10.5625 14.40625 10.710938 14.222656 10.710938 L 10.253906 10.710938 C 10.070312 10.710938 9.921875 10.5625 9.921875 10.378906 L 9.921875 9.71875 C 9.921875 9.535156 10.070312 9.386719 10.253906 9.386719 Z M 10.253906 9.386719 "/>
<path style=" stroke:none;fill-rule:nonzero;fill:rgb(87.843138%,87.843138%,87.843138%);fill-opacity:1;" d="M 10.253906 12.03125 L 14.222656 12.03125 C 14.40625 12.03125 14.554688 12.179688 14.554688 12.363281 L 14.554688 13.023438 C 14.554688 13.207031 14.40625 13.355469 14.222656 13.355469 L 10.253906 13.355469 C 10.070312 13.355469 9.921875 13.207031 9.921875 13.023438 L 9.921875 12.363281 C 9.921875 12.179688 10.070312 12.03125 10.253906 12.03125 Z M 10.253906 12.03125 "/>
</g>
</svg>
