<svg xmlns="http://www.w3.org/2000/svg" width="16pt" height="16pt" viewBox="0 0 16 16"><path d="M14.059 3.434l-1.325-1.325-1.324 1.325" fill="none" stroke-width=".9984375" stroke-linecap="round" stroke-linejoin="round" stroke="#26c6da"/><path d="M2.645 2.441v8.598a3.303 3.303 0 0 0 3.308 3.309h.66c.278 0 .5-.223.5-.496a.498.498 0 0 0-.5-.497h-.66a2.311 2.311 0 0 1-2.316-2.316V2.441zm0 0" fill="#bdbdbd" fill-opacity=".99"/><path d="M1.82 3.434l1.32-1.325 1.325 1.325" fill="none" stroke-width=".9984375" stroke-linecap="round" stroke-linejoin="round" stroke="#bdbdbd"/><path d="M12.238 2.77v8.27a2.309 2.309 0 0 1-2.316 2.315h-.66a.497.497 0 0 0 0 .993h.66a3.303 3.303 0 0 0 3.308-3.309V2.77zm0 0" fill="#26c6da" fill-opacity=".99"/></svg>