<?xml version="1.0" encoding="UTF-8"?>
<svg xmlns="http://www.w3.org/2000/svg" xmlns:xlink="http://www.w3.org/1999/xlink" width="16px" height="16px" viewBox="0 0 16 16" version="1.1">
<g id="surface1">
<path style=" stroke:none;fill-rule:nonzero;fill:rgb(87.843138%,87.843138%,87.843138%);fill-opacity:1;" d="M 2.644531 1.449219 C 1.914062 1.449219 1.324219 2.039062 1.324219 2.769531 L 1.324219 13.355469 C 1.324219 14.089844 1.914062 14.679688 2.644531 14.679688 L 13.230469 14.679688 C 13.964844 14.679688 14.554688 14.089844 14.554688 13.355469 L 14.554688 2.769531 C 14.554688 2.039062 13.964844 1.449219 13.230469 1.449219 Z M 3.308594 2.769531 L 12.570312 2.769531 C 12.933594 2.769531 13.230469 3.066406 13.230469 3.433594 L 13.230469 12.695312 C 13.230469 13.058594 12.933594 13.355469 12.570312 13.355469 L 3.308594 13.355469 C 2.941406 13.355469 2.644531 13.058594 2.644531 12.695312 L 2.644531 3.433594 C 2.644531 3.066406 2.941406 2.769531 3.308594 2.769531 Z M 3.308594 2.769531 "/>
<path style=" stroke:none;fill-rule:nonzero;fill:rgb(87.843138%,87.843138%,87.843138%);fill-opacity:1;" d="M 4.132812 4.09375 L 7.773438 4.09375 C 7.863281 4.09375 7.9375 4.167969 7.9375 4.257812 L 7.9375 4.589844 C 7.9375 4.679688 7.863281 4.753906 7.773438 4.753906 L 4.132812 4.753906 C 4.042969 4.753906 3.96875 4.679688 3.96875 4.589844 L 3.96875 4.257812 C 3.96875 4.167969 4.042969 4.09375 4.132812 4.09375 Z M 4.132812 4.09375 "/>
<path style=" stroke:none;fill-rule:nonzero;fill:rgb(87.843138%,87.843138%,87.843138%);fill-opacity:1;" d="M 4.132812 6.078125 L 7.773438 6.078125 C 7.863281 6.078125 7.9375 6.152344 7.9375 6.242188 L 7.9375 6.574219 C 7.9375 6.667969 7.863281 6.738281 7.773438 6.738281 L 4.132812 6.738281 C 4.042969 6.738281 3.96875 6.667969 3.96875 6.574219 L 3.96875 6.242188 C 3.96875 6.152344 4.042969 6.078125 4.132812 6.078125 Z M 4.132812 6.078125 "/>
<path style=" stroke:none;fill-rule:nonzero;fill:rgb(87.843138%,87.843138%,87.843138%);fill-opacity:1;" d="M 4.132812 8.0625 L 7.773438 8.0625 C 7.863281 8.0625 7.9375 8.136719 7.9375 8.230469 L 7.9375 8.558594 C 7.9375 8.652344 7.863281 8.726562 7.773438 8.726562 L 4.132812 8.726562 C 4.042969 8.726562 3.96875 8.652344 3.96875 8.558594 L 3.96875 8.230469 C 3.96875 8.136719 4.042969 8.0625 4.132812 8.0625 Z M 4.132812 8.0625 "/>
<path style=" stroke:none;fill-rule:nonzero;fill:rgb(87.843138%,87.843138%,87.843138%);fill-opacity:1;" d="M 4.132812 10.046875 L 11.742188 10.046875 C 11.832031 10.046875 11.90625 10.121094 11.90625 10.214844 L 11.90625 10.542969 C 11.90625 10.636719 11.832031 10.710938 11.742188 10.710938 L 4.132812 10.710938 C 4.042969 10.710938 3.96875 10.636719 3.96875 10.542969 L 3.96875 10.214844 C 3.96875 10.121094 4.042969 10.046875 4.132812 10.046875 Z M 4.132812 10.046875 "/>
<path style=" stroke:none;fill-rule:nonzero;fill:rgb(87.843138%,87.843138%,87.843138%);fill-opacity:1;" d="M 9.097656 4.09375 C 9.003906 4.09375 8.929688 4.167969 8.929688 4.257812 L 8.929688 8.558594 C 8.929688 8.652344 9.003906 8.726562 9.097656 8.726562 L 12.074219 8.726562 C 12.164062 8.726562 12.238281 8.652344 12.238281 8.558594 L 12.238281 4.257812 C 12.238281 4.167969 12.164062 4.09375 12.074219 4.09375 Z M 9.675781 4.753906 L 11.492188 4.753906 C 11.539062 4.753906 11.578125 4.792969 11.578125 4.839844 L 11.578125 7.980469 C 11.578125 8.027344 11.539062 8.0625 11.492188 8.0625 L 9.675781 8.0625 C 9.628906 8.0625 9.59375 8.027344 9.59375 7.980469 L 9.59375 4.839844 C 9.59375 4.792969 9.628906 4.753906 9.675781 4.753906 Z M 9.675781 4.753906 "/>
</g>
</svg>
