<svg xmlns="http://www.w3.org/2000/svg" width="16" height="16"><path d="M7.113 13.023h6.946a.497.497 0 0 1 0 .993H7.113a.498.498 0 0 1-.5-.496c0-.274.223-.497.5-.497zm0 0M7.113 9.387h6.946a.497.497 0 0 1 0 .992H7.113a.498.498 0 0 1-.5-.496c0-.274.223-.496.5-.496zm0 0M7.113 5.746h6.946a.497.497 0 0 1 0 .992H7.113a.495.495 0 1 1 0-.992zm0 0M1.82 2.11H14.06a.497.497 0 0 1 0 .992H1.82a.497.497 0 0 1 0-.993zm0 0" fill="#bdbdbd"/><path d="M5.621 6.41L3.637 4.426 1.652 6.41M3.637 5.086v8.602" fill="none" stroke-width=".9984375" stroke-linecap="round" stroke-linejoin="round" stroke="#ec407a"/></svg>