<svg xmlns="http://www.w3.org/2000/svg" xmlns:xlink="http://www.w3.org/1999/xlink" width="16pt" height="16pt" viewBox="0 0 16 16"><defs><filter id="a" filterUnits="objectBoundingBox" x="0%" y="0%" width="100%" height="100%"><feColorMatrix in="SourceGraphic" values="0 0 0 0 1 0 0 0 0 1 0 0 0 0 1 0 0 0 1 0"/></filter><mask id="e"><path fill-opacity=".988" d="M0 0h16v16H0z" filter="url(#a)"/></mask><clipPath id="b"><path d="M0 0h16v16H0z"/></clipPath><g id="d" clip-path="url(#b)"><path d="M1.984 4.754C1.25 4.754.66 5.348.66 6.078v3.969c0 .734.59 1.324 1.324 1.324zm0 0" fill="#bdbdbd"/></g><mask id="g"><path fill-opacity=".988" d="M0 0h16v16H0z" filter="url(#a)"/></mask><clipPath id="c"><path d="M0 0h16v16H0z"/></clipPath><g id="f" clip-path="url(#c)"><path d="M7.277 1.45v13.23c.73 0 1.325-.59 1.325-1.325V2.77c0-.73-.594-1.32-1.325-1.32zm0 0" fill="#ef5350"/></g></defs><use xlink:href="#d" mask="url(#e)"/><path d="M6.613 1.45h-.015a.652.652 0 0 0-.395.144L2.895 4.238a.665.665 0 0 0-.25.516v6.617c0 .2.093.39.25.516l3.308 2.648c.125.102.27.145.41.145zm0 0" fill-rule="evenodd" fill="#bdbdbd"/><use xlink:href="#f" mask="url(#g)"/></svg>