
<svg xmlns="http://www.w3.org/2000/svg" xmlns:xlink="http://www.w3.org/1999/xlink" width="16px" height="16px" viewBox="0 0 16 16" version="1.1">
<g id="surface1">
<defs>
  <style id="current-color-scheme" type="text/css">
   .ColorScheme-Text { color:#eeeeee; } .ColorScheme-Highlight { color:#424242; }
  </style>
 </defs>
<path style="fill:currentColor" class="ColorScheme-Text" d="M 4 2 C 2.890625 2 2 2.890625 2 4 C 2 4.554688 2.222656 5.054688 2.585938 5.417969 C 2.214844 6.199219 2 7.074219 2 8 C 2 11.324219 4.675781 14 8 14 C 11.324219 14 14 11.324219 14 8 C 14 7.074219 13.785156 6.199219 13.414062 5.417969 C 13.777344 5.054688 14 4.554688 14 4 C 14 2.890625 13.109375 2 12 2 C 11.445312 2 10.945312 2.222656 10.582031 2.585938 C 9.800781 2.214844 8.925781 2 8 2 C 7.074219 2 6.199219 2.214844 5.417969 2.585938 C 5.054688 2.222656 4.554688 2 4 2 Z M 8 3 C 10.769531 3 13 5.230469 13 8 C 13 10.769531 10.769531 13 8 13 C 5.230469 13 3 10.769531 3 8 C 3 5.230469 5.230469 3 8 3 Z M 6 5 L 6 11 L 11 8 Z M 6 5 "/>
</g>
</svg>
