<?xml version="1.0" encoding="UTF-8"?>
<svg xmlns="http://www.w3.org/2000/svg" xmlns:xlink="http://www.w3.org/1999/xlink" width="16px" height="16px" viewBox="0 0 16 16" version="1.1">
<g id="surface1">
<path style=" stroke:none;fill-rule:nonzero;fill:rgb(87.843138%,87.843138%,87.843138%);fill-opacity:1;" d="M 10.253906 11.039062 L 14.222656 11.039062 C 14.40625 11.039062 14.554688 11.1875 14.554688 11.371094 L 14.554688 12.03125 C 14.554688 12.214844 14.40625 12.363281 14.222656 12.363281 L 10.253906 12.363281 C 10.070312 12.363281 9.921875 12.214844 9.921875 12.03125 L 9.921875 11.371094 C 9.921875 11.1875 10.070312 11.039062 10.253906 11.039062 Z M 10.253906 11.039062 "/>
<path style=" stroke:none;fill-rule:nonzero;fill:rgb(87.843138%,87.843138%,87.843138%);fill-opacity:1;" d="M 12.898438 9.71875 L 12.898438 13.6875 C 12.898438 13.867188 12.75 14.015625 12.570312 14.015625 L 11.90625 14.015625 C 11.726562 14.015625 11.578125 13.867188 11.578125 13.6875 L 11.578125 9.71875 C 11.578125 9.535156 11.726562 9.386719 11.90625 9.386719 L 12.570312 9.386719 C 12.75 9.386719 12.898438 9.535156 12.898438 9.71875 Z M 12.898438 9.71875 "/>
<path style=" stroke:none;fill-rule:nonzero;fill:rgb(87.843138%,87.843138%,87.843138%);fill-opacity:1;" d="M 1.324219 11.371094 L 8.601562 11.371094 C 8.78125 11.371094 8.929688 11.519531 8.929688 11.703125 C 8.929688 11.882812 8.78125 12.03125 8.601562 12.03125 L 1.324219 12.03125 C 1.140625 12.03125 0.992188 11.882812 0.992188 11.703125 C 0.992188 11.519531 1.140625 11.371094 1.324219 11.371094 Z M 1.324219 11.371094 "/>
<path style=" stroke:none;fill-rule:nonzero;fill:rgb(87.843138%,87.843138%,87.843138%);fill-opacity:1;" d="M 4.628906 3.761719 L 1.839844 8.890625 L 1.839844 10.214844 L 5.203125 4.09375 Z M 8.976562 3.761719 L 5.132812 10.710938 L 5.894531 10.710938 L 9.546875 4.09375 Z M 13.320312 3.761719 L 10.8125 8.394531 L 11.578125 8.394531 L 13.890625 4.09375 Z M 13.320312 3.761719 "/>
<path style=" stroke:none;fill-rule:nonzero;fill:rgb(87.843138%,87.843138%,87.843138%);fill-opacity:1;" d="M 2.644531 2.769531 C 1.914062 2.769531 1.324219 3.359375 1.324219 4.09375 L 1.324219 10.710938 L 2.644531 10.710938 L 2.644531 4.753906 C 2.644531 4.390625 2.941406 4.09375 3.308594 4.09375 L 12.570312 4.09375 C 12.933594 4.09375 13.230469 4.390625 13.230469 4.753906 L 13.230469 8.0625 L 14.554688 8.0625 L 14.554688 4.09375 C 14.554688 3.359375 13.964844 2.769531 13.230469 2.769531 Z M 2.644531 2.769531 "/>
</g>
</svg>
