
<svg xmlns="http://www.w3.org/2000/svg" xmlns:xlink="http://www.w3.org/1999/xlink" width="16px" height="16px" viewBox="0 0 16 16" version="1.1">
<g id="surface1">
<defs>
  <style id="current-color-scheme" type="text/css">
   .ColorScheme-Text { color:#eeeeee; } .ColorScheme-Highlight { color:#424242; }
  </style>
 </defs>
<path style="fill:currentColor" class="ColorScheme-Text" d="M 4 14 C 2.890625 14 2 13.109375 2 12 L 2 11 L 3 11 L 3 12 C 3 12.554688 3.445312 13 4 13 L 5 13 L 5 14 Z M 11 14 L 8 11 L 10 11 L 10 8 L 12 8 L 12 11 L 14 11 Z M 3 8 C 2.445312 8 2 7.554688 2 7 L 2 3 C 2 2.445312 2.445312 2 3 2 L 7 2 C 7.554688 2 8 2.445312 8 3 L 8 7 C 8 7.554688 7.554688 8 7 8 Z M 3.5 7 L 6.5 7 C 6.777344 7 7 6.777344 7 6.5 L 7 3.5 C 7 3.222656 6.777344 3 6.5 3 L 3.5 3 C 3.222656 3 3 3.222656 3 3.5 L 3 6.5 C 3 6.777344 3.222656 7 3.5 7 Z M 13 5 L 13 4 C 13 3.445312 12.554688 3 12 3 L 11 3 L 11 2 L 12 2 C 13.109375 2 14 2.890625 14 4 L 14 5 Z M 13 5 "/>
</g>
</svg>
