<?xml version="1.0" encoding="UTF-8"?>
<svg xmlns="http://www.w3.org/2000/svg" xmlns:xlink="http://www.w3.org/1999/xlink" width="16px" height="16px" viewBox="0 0 16 16" version="1.1">
<g id="surface1">
<path style=" stroke:none;fill-rule:nonzero;fill:rgb(87.843138%,87.843138%,87.843138%);fill-opacity:1;" d="M 2.644531 1.449219 C 1.914062 1.449219 1.324219 2.039062 1.324219 2.769531 L 1.324219 5.417969 L 2.644531 5.417969 L 2.644531 3.433594 C 2.644531 3.066406 2.941406 2.769531 3.308594 2.769531 L 5.292969 2.769531 L 5.292969 1.449219 Z M 10.585938 1.449219 L 10.585938 2.769531 L 12.570312 2.769531 C 12.933594 2.769531 13.230469 3.066406 13.230469 3.433594 L 13.230469 5.417969 L 14.554688 5.417969 L 14.554688 2.769531 C 14.554688 2.039062 13.964844 1.449219 13.230469 1.449219 Z M 1.324219 10.710938 L 1.324219 13.355469 C 1.324219 14.089844 1.914062 14.679688 2.644531 14.679688 L 5.292969 14.679688 L 5.292969 13.355469 L 3.308594 13.355469 C 2.941406 13.355469 2.644531 13.058594 2.644531 12.695312 L 2.644531 10.710938 Z M 13.230469 10.710938 L 13.230469 12.695312 C 13.230469 13.058594 12.933594 13.355469 12.570312 13.355469 L 10.585938 13.355469 L 10.585938 14.679688 L 13.230469 14.679688 C 13.964844 14.679688 14.554688 14.089844 14.554688 13.355469 L 14.554688 10.710938 Z M 13.230469 10.710938 "/>
<path style=" stroke:none;fill-rule:nonzero;fill:rgb(87.843138%,87.843138%,87.843138%);fill-opacity:1;" d="M 5.953125 5.417969 C 5.585938 5.417969 5.292969 5.710938 5.292969 6.078125 L 5.292969 10.046875 C 5.292969 10.414062 5.585938 10.710938 5.953125 10.710938 L 9.921875 10.710938 C 10.289062 10.710938 10.585938 10.414062 10.585938 10.046875 L 10.585938 6.078125 C 10.585938 5.710938 10.289062 5.417969 9.921875 5.417969 Z M 6.945312 6.738281 L 8.929688 6.738281 C 9.113281 6.738281 9.261719 6.886719 9.261719 7.070312 L 9.261719 9.054688 C 9.261719 9.238281 9.113281 9.386719 8.929688 9.386719 L 6.945312 9.386719 C 6.761719 9.386719 6.613281 9.238281 6.613281 9.054688 L 6.613281 7.070312 C 6.613281 6.886719 6.761719 6.738281 6.945312 6.738281 Z M 6.945312 6.738281 "/>
</g>
</svg>
