<?xml version="1.0" encoding="UTF-8"?>
<svg xmlns="http://www.w3.org/2000/svg" xmlns:xlink="http://www.w3.org/1999/xlink" width="512pt" height="512pt" viewBox="0 0 512 512" version="1.1">
<defs>
<linearGradient id="linear0" gradientUnits="userSpaceOnUse" x1="254" y1="233.5" x2="254" y2="254.666672" gradientTransform="matrix(1.000095,0,0,1.000095,-0.000061041,215.020562)">
<stop offset="0" style="stop-color:rgb(0%,0%,0%);stop-opacity:0.27451;"/>
<stop offset="1" style="stop-color:rgb(0%,0%,0%);stop-opacity:0;"/>
</linearGradient>
<radialGradient id="radial0" gradientUnits="userSpaceOnUse" cx="450.908936" cy="189.579361" fx="450.908936" fy="189.579361" r="21.166656" gradientTransform="matrix(0.00000278673,-1.250119,-2.250215,-0.00000162462,834.090371,1017.525321)">
<stop offset="0" style="stop-color:rgb(0%,0%,0%);stop-opacity:0.313725;"/>
<stop offset="0.222222" style="stop-color:rgb(0%,0%,0%);stop-opacity:0.27451;"/>
<stop offset="1" style="stop-color:rgb(0%,0%,0%);stop-opacity:0;"/>
</radialGradient>
<radialGradient id="radial1" gradientUnits="userSpaceOnUse" cx="450.908936" cy="189.579361" fx="450.908936" fy="189.579361" r="21.166656" gradientTransform="matrix(-0.00000278673,1.250119,2.250215,0.00000162462,-326.041814,-120.439662)">
<stop offset="0" style="stop-color:rgb(0%,0%,0%);stop-opacity:0.313725;"/>
<stop offset="0.222222" style="stop-color:rgb(0%,0%,0%);stop-opacity:0.27451;"/>
<stop offset="1" style="stop-color:rgb(0%,0%,0%);stop-opacity:0;"/>
</radialGradient>
<radialGradient id="radial2" gradientUnits="userSpaceOnUse" cx="450.908936" cy="189.579361" fx="450.908936" fy="189.579361" r="21.166656" gradientTransform="matrix(-0.00000278673,-1.250119,2.250215,-0.00000162462,-326.041814,1017.525321)">
<stop offset="0" style="stop-color:rgb(0%,0%,0%);stop-opacity:0.313725;"/>
<stop offset="0.222222" style="stop-color:rgb(0%,0%,0%);stop-opacity:0.27451;"/>
<stop offset="1" style="stop-color:rgb(0%,0%,0%);stop-opacity:0;"/>
</radialGradient>
<radialGradient id="radial3" gradientUnits="userSpaceOnUse" cx="450.908936" cy="189.579361" fx="450.908936" fy="189.579361" r="21.166656" gradientTransform="matrix(0.00000278673,1.250119,-2.250215,0.00000162462,834.09034,-120.43967)">
<stop offset="0" style="stop-color:rgb(0%,0%,0%);stop-opacity:0.313725;"/>
<stop offset="0.222222" style="stop-color:rgb(0%,0%,0%);stop-opacity:0.27451;"/>
<stop offset="1" style="stop-color:rgb(0%,0%,0%);stop-opacity:0;"/>
</radialGradient>
<linearGradient id="linear1" gradientUnits="userSpaceOnUse" x1="338.666656" y1="32.416668" x2="338.666656" y2="-168.666656" gradientTransform="matrix(-1,0,0,1,508,-0.00000408366)">
<stop offset="0" style="stop-color:rgb(93.72549%,32.54902%,31.372549%);stop-opacity:1;"/>
<stop offset="1" style="stop-color:rgb(89.803922%,45.098039%,45.098039%);stop-opacity:1;"/>
</linearGradient>
<linearGradient id="linear2" gradientUnits="userSpaceOnUse" x1="338.666656" y1="32.416668" x2="338.666656" y2="-168.666656" gradientTransform="matrix(3.779528,0,0,3.779528,0,812.59845)">
<stop offset="0" style="stop-color:rgb(40%,73.333333%,41.568627%);stop-opacity:1;"/>
<stop offset="1" style="stop-color:rgb(50.588235%,78.039216%,51.764706%);stop-opacity:1;"/>
</linearGradient>
<linearGradient id="linear3" gradientUnits="userSpaceOnUse" x1="455.083313" y1="-62.833569" x2="254" y2="-62.833569" gradientTransform="matrix(0,1,1,0,221.583572,-221.583313)">
<stop offset="0" style="stop-color:rgb(100%,65.490196%,14.901961%);stop-opacity:1;"/>
<stop offset="1" style="stop-color:rgb(100%,71.764706%,30.196078%);stop-opacity:1;"/>
</linearGradient>
<linearGradient id="linear4" gradientUnits="userSpaceOnUse" x1="338.666656" y1="32.416428" x2="338.666656" y2="-168.666916" gradientTransform="matrix(1,0,0,-1,0,64.833092)">
<stop offset="0" style="stop-color:rgb(39.215686%,70.980392%,96.470588%);stop-opacity:1;"/>
<stop offset="1" style="stop-color:rgb(25.882353%,64.705882%,96.078431%);stop-opacity:1;"/>
</linearGradient>
</defs>
<g id="surface1">
<path style=" stroke:none;fill-rule:nonzero;fill:url(#linear0);" d="M 95.257812 446.976562 L 412.789062 446.976562 L 412.789062 470.496094 L 95.257812 470.496094 Z M 95.257812 446.976562 "/>
<path style=" stroke:none;fill-rule:nonzero;fill:url(#radial0);" d="M 412.789062 448.542969 L 455.125 448.542969 L 455.125 427.375 L 412.789062 427.375 Z M 412.789062 448.542969 "/>
<path style=" stroke:none;fill-rule:nonzero;fill:url(#radial1);" d="M 95.257812 448.542969 L 52.921875 448.542969 L 52.921875 469.710938 L 95.257812 469.710938 Z M 95.257812 448.542969 "/>
<path style=" stroke:none;fill-rule:nonzero;fill:url(#radial2);" d="M 95.257812 448.542969 L 52.921875 448.542969 L 52.921875 427.375 L 95.257812 427.375 Z M 95.257812 448.542969 "/>
<path style=" stroke:none;fill-rule:nonzero;fill:url(#radial3);" d="M 412.789062 448.542969 L 455.125 448.542969 L 455.125 469.710938 L 412.789062 469.710938 Z M 412.789062 448.542969 "/>
<path style="fill-rule:nonzero;fill:url(#linear1);stroke-width:3;stroke-linecap:round;stroke-linejoin:miter;stroke:rgb(12.941177%,12.941177%,12.941177%);stroke-opacity:1;stroke-miterlimit:4;" d="M 253.999182 -168.668487 L 253.999182 32.417779 L 52.916822 32.417779 L 52.916822 -147.498634 C 52.916822 -159.227982 62.357326 -168.668487 74.082769 -168.668487 Z M 253.999182 -168.668487 " transform="matrix(1.000095,0,0,1.000095,0,215.020531)"/>
<path style="fill-rule:nonzero;fill:url(#linear2);stroke-width:11.338583;stroke-linecap:round;stroke-linejoin:miter;stroke:rgb(12.941177%,12.941177%,12.941177%);stroke-opacity:1;stroke-miterlimit:4;" d="M 959.996958 175.11124 L 959.996958 935.122364 L 1719.99332 935.122364 L 1719.99332 255.123288 C 1719.99332 210.791889 1684.31267 175.11124 1639.996033 175.11124 Z M 959.996958 175.11124 " transform="matrix(0.264609,0,0,0.264609,0,0)"/>
<path style=" stroke:none;fill-rule:nonzero;fill:rgb(90.196079%,90.196079%,90.196079%);fill-opacity:0.392157;" d="M 74.089844 47.386719 C 62.363281 47.386719 52.921875 56.828125 52.921875 68.554688 L 52.921875 71.203125 C 52.921875 59.472656 62.363281 50.011719 74.089844 50.03125 L 433.957031 50.03125 C 445.683594 50.011719 455.125 59.472656 455.125 71.203125 L 455.125 68.554688 C 455.125 56.828125 445.683594 47.386719 433.957031 47.386719 Z M 74.089844 47.386719 "/>
<path style="fill-rule:nonzero;fill:url(#linear3);stroke-width:3;stroke-linecap:round;stroke-linejoin:miter;stroke:rgb(12.941177%,12.941177%,12.941177%);stroke-opacity:1;stroke-miterlimit:4;" d="M 52.916822 32.417779 L 253.999182 32.417779 L 253.999182 233.500139 L 74.082769 233.500139 C 62.357326 233.500139 52.916822 224.059634 52.916822 212.334192 Z M 52.916822 32.417779 " transform="matrix(1.000095,0,0,1.000095,0,215.020531)"/>
<path style="fill-rule:nonzero;fill:url(#linear4);stroke-width:3;stroke-linecap:round;stroke-linejoin:miter;stroke:rgb(12.941177%,12.941177%,12.941177%);stroke-opacity:1;stroke-miterlimit:4;" d="M 253.999182 233.500139 L 253.999182 32.417779 L 455.081542 32.417779 L 455.081542 212.334192 C 455.081542 224.059634 445.641037 233.500139 433.915594 233.500139 Z M 253.999182 233.500139 " transform="matrix(1.000095,0,0,1.000095,0,215.020531)"/>
<path style=" stroke:none;fill-rule:nonzero;fill:rgb(0%,0%,0%);fill-opacity:0.196078;" d="M 74.089844 447.21875 C 62.363281 447.21875 52.921875 437.777344 52.921875 426.050781 L 52.921875 423.40625 C 52.921875 435.132812 62.363281 444.574219 74.089844 444.574219 L 433.957031 444.574219 C 445.6875 444.574219 455.125 435.132812 455.125 423.40625 L 455.125 426.050781 C 455.125 437.777344 445.6875 447.21875 433.957031 447.21875 Z M 74.089844 447.21875 "/>
<path style=" stroke:none;fill-rule:nonzero;fill:rgb(12.941177%,12.941177%,12.941177%);fill-opacity:1;" d="M 74.089844 44.839844 C 61.558594 44.839844 51.421875 54.972656 51.421875 67.507812 L 51.421875 427.375 C 51.421875 439.90625 61.558594 450.042969 74.089844 450.042969 L 433.957031 450.042969 C 446.488281 450.042969 456.628906 439.90625 456.628906 427.375 L 456.628906 67.507812 C 456.628906 54.972656 446.488281 44.839844 433.957031 44.839844 Z M 74.089844 47.839844 L 433.957031 47.839844 C 444.878906 47.839844 453.628906 56.585938 453.628906 67.507812 L 453.628906 427.375 C 453.628906 438.296875 444.878906 447.042969 433.957031 447.042969 L 74.089844 447.042969 C 63.167969 447.042969 54.421875 438.296875 54.421875 427.375 L 54.421875 67.507812 C 54.421875 56.585938 63.167969 47.839844 74.089844 47.839844 Z M 74.089844 47.839844 "/>
</g>
</svg>
