<?xml version="1.0" encoding="UTF-8"?>
<svg xmlns="http://www.w3.org/2000/svg" xmlns:xlink="http://www.w3.org/1999/xlink" width="512pt" height="512pt" viewBox="0 0 512 512" version="1.1">
<defs>
<radialGradient id="radial0" gradientUnits="userSpaceOnUse" cx="450.908936" cy="189.579361" fx="450.908936" fy="189.579361" r="21.166656" gradientTransform="matrix(0.00000278673,-1.250119,-2.250215,-0.00000162462,759.999938,1017.525321)">
<stop offset="0" style="stop-color:rgb(0%,0%,0%);stop-opacity:0.313725;"/>
<stop offset="0.222222" style="stop-color:rgb(0%,0%,0%);stop-opacity:0.27451;"/>
<stop offset="1" style="stop-color:rgb(0%,0%,0%);stop-opacity:0;"/>
</radialGradient>
<radialGradient id="radial1" gradientUnits="userSpaceOnUse" cx="450.908936" cy="189.579361" fx="450.908936" fy="189.579361" r="21.166656" gradientTransform="matrix(-0.00000278673,1.250119,2.250215,0.00000162462,-82.602004,-120.439662)">
<stop offset="0" style="stop-color:rgb(0%,0%,0%);stop-opacity:0.313725;"/>
<stop offset="0.222222" style="stop-color:rgb(0%,0%,0%);stop-opacity:0.27451;"/>
<stop offset="1" style="stop-color:rgb(0%,0%,0%);stop-opacity:0;"/>
</radialGradient>
<radialGradient id="radial2" gradientUnits="userSpaceOnUse" cx="450.908936" cy="189.579361" fx="450.908936" fy="189.579361" r="21.166656" gradientTransform="matrix(-0.00000278673,-1.250119,2.250215,-0.00000162462,-82.602004,1017.525321)">
<stop offset="0" style="stop-color:rgb(0%,0%,0%);stop-opacity:0.313725;"/>
<stop offset="0.222222" style="stop-color:rgb(0%,0%,0%);stop-opacity:0.27451;"/>
<stop offset="1" style="stop-color:rgb(0%,0%,0%);stop-opacity:0;"/>
</radialGradient>
<radialGradient id="radial3" gradientUnits="userSpaceOnUse" cx="450.908936" cy="189.579361" fx="450.908936" fy="189.579361" r="21.166656" gradientTransform="matrix(0.00000278673,1.250119,-2.250215,0.00000162462,759.999907,-120.43967)">
<stop offset="0" style="stop-color:rgb(0%,0%,0%);stop-opacity:0.313725;"/>
<stop offset="0.222222" style="stop-color:rgb(0%,0%,0%);stop-opacity:0.27451;"/>
<stop offset="1" style="stop-color:rgb(0%,0%,0%);stop-opacity:0;"/>
</radialGradient>
<linearGradient id="linear0" gradientUnits="userSpaceOnUse" x1="254" y1="233.5" x2="254" y2="254.666672" gradientTransform="matrix(1.000095,0,0,1.000095,52.921679,215.020562)">
<stop offset="0" style="stop-color:rgb(0%,0%,0%);stop-opacity:0.27451;"/>
<stop offset="1" style="stop-color:rgb(0%,0%,0%);stop-opacity:0;"/>
</linearGradient>
<radialGradient id="radial4" gradientUnits="userSpaceOnUse" cx="450.908936" cy="189.579361" fx="450.908936" fy="189.579361" r="21.166656" gradientTransform="matrix(0.00000278673,-1.250119,-2.250215,-0.00000162462,680.617297,1017.525321)">
<stop offset="0" style="stop-color:rgb(0%,0%,0%);stop-opacity:0.313725;"/>
<stop offset="0.222222" style="stop-color:rgb(0%,0%,0%);stop-opacity:0.27451;"/>
<stop offset="1" style="stop-color:rgb(0%,0%,0%);stop-opacity:0;"/>
</radialGradient>
<radialGradient id="radial5" gradientUnits="userSpaceOnUse" cx="450.908936" cy="189.579361" fx="450.908936" fy="189.579361" r="21.166656" gradientTransform="matrix(-0.00000278673,1.250119,2.250215,0.00000162462,-172.568968,-120.439662)">
<stop offset="0" style="stop-color:rgb(0%,0%,0%);stop-opacity:0.313725;"/>
<stop offset="0.222222" style="stop-color:rgb(0%,0%,0%);stop-opacity:0.27451;"/>
<stop offset="1" style="stop-color:rgb(0%,0%,0%);stop-opacity:0;"/>
</radialGradient>
<radialGradient id="radial6" gradientUnits="userSpaceOnUse" cx="450.908936" cy="189.579361" fx="450.908936" fy="189.579361" r="21.166656" gradientTransform="matrix(-0.00000278673,-1.250119,2.250215,-0.00000162462,-172.568968,1017.525321)">
<stop offset="0" style="stop-color:rgb(0%,0%,0%);stop-opacity:0.313725;"/>
<stop offset="0.222222" style="stop-color:rgb(0%,0%,0%);stop-opacity:0.27451;"/>
<stop offset="1" style="stop-color:rgb(0%,0%,0%);stop-opacity:0;"/>
</radialGradient>
<radialGradient id="radial7" gradientUnits="userSpaceOnUse" cx="450.908936" cy="189.579361" fx="450.908936" fy="189.579361" r="21.166656" gradientTransform="matrix(0.00000278673,1.250119,-2.250215,0.00000162462,680.617266,-120.43967)">
<stop offset="0" style="stop-color:rgb(0%,0%,0%);stop-opacity:0.313725;"/>
<stop offset="0.222222" style="stop-color:rgb(0%,0%,0%);stop-opacity:0.27451;"/>
<stop offset="1" style="stop-color:rgb(0%,0%,0%);stop-opacity:0;"/>
</radialGradient>
<linearGradient id="linear1" gradientUnits="userSpaceOnUse" x1="338.666656" y1="233.5" x2="338.666656" y2="191.166672" >
<stop offset="0" style="stop-color:rgb(89.803922%,22.352941%,20.784314%);stop-opacity:1;"/>
<stop offset="1" style="stop-color:rgb(93.72549%,32.54902%,31.372549%);stop-opacity:1;"/>
</linearGradient>
<linearGradient id="linear2" gradientUnits="userSpaceOnUse" x1="-180.994522" y1="-245.367935" x2="-318.54361" y2="132.545105" gradientTransform="matrix(-3.551594,-1.292675,-1.292675,3.551594,-0.000000164681,812.598389)">
<stop offset="0" style="stop-color:rgb(73.72549%,66.666667%,64.313725%);stop-opacity:1;"/>
<stop offset="1" style="stop-color:rgb(55.294118%,43.137255%,38.823529%);stop-opacity:1;"/>
</linearGradient>
<linearGradient id="linear3" gradientUnits="userSpaceOnUse" x1="312.993164" y1="-143.122238" x2="308.952942" y2="-45.920067" gradientTransform="matrix(3.551594,1.292675,-1.292675,3.551594,-56.635193,378.83194)">
<stop offset="0" style="stop-color:rgb(74.117647%,74.117647%,74.117647%);stop-opacity:1;"/>
<stop offset="1" style="stop-color:rgb(87.843137%,87.843137%,87.843137%);stop-opacity:1;"/>
</linearGradient>
<linearGradient id="linear4" gradientUnits="userSpaceOnUse" x1="312.993164" y1="-143.122238" x2="308.952942" y2="-45.920067" gradientTransform="matrix(-3.551594,1.292675,1.292675,3.551594,1972.636353,378.83194)">
<stop offset="0" style="stop-color:rgb(74.117647%,74.117647%,74.117647%);stop-opacity:1;"/>
<stop offset="1" style="stop-color:rgb(87.843137%,87.843137%,87.843137%);stop-opacity:1;"/>
</linearGradient>
<linearGradient id="linear5" gradientUnits="userSpaceOnUse" x1="222.25" y1="0.666667" x2="222.25" y2="85.333336" gradientTransform="matrix(1,0,0,1,0,-10.583333)">
<stop offset="0" style="stop-color:rgb(87.843137%,87.843137%,87.843137%);stop-opacity:1;"/>
<stop offset="1" style="stop-color:rgb(93.333333%,93.333333%,93.333333%);stop-opacity:1;"/>
</linearGradient>
<linearGradient id="linear6" gradientUnits="userSpaceOnUse" x1="222.25" y1="0.666667" x2="222.25" y2="85.333336" gradientTransform="matrix(1,0,0,1,74.083336,-10.583333)">
<stop offset="0" style="stop-color:rgb(87.843137%,87.843137%,87.843137%);stop-opacity:1;"/>
<stop offset="1" style="stop-color:rgb(93.333333%,93.333333%,93.333333%);stop-opacity:1;"/>
</linearGradient>
<linearGradient id="linear7" gradientUnits="userSpaceOnUse" x1="254" y1="233.5" x2="254" y2="43" >
<stop offset="0" style="stop-color:rgb(74.117647%,74.117647%,74.117647%);stop-opacity:1;"/>
<stop offset="1" style="stop-color:rgb(87.843137%,87.843137%,87.843137%);stop-opacity:1;"/>
</linearGradient>
</defs>
<g id="surface1">
<path style=" stroke:none;fill-rule:nonzero;fill:url(#radial0);" d="M 338.699219 448.542969 L 381.035156 448.542969 L 381.035156 427.375 L 338.699219 427.375 Z M 338.699219 448.542969 "/>
<path style=" stroke:none;fill-rule:nonzero;fill:url(#radial1);" d="M 338.699219 448.542969 L 296.363281 448.542969 L 296.363281 469.710938 L 338.699219 469.710938 Z M 338.699219 448.542969 "/>
<path style=" stroke:none;fill-rule:nonzero;fill:url(#radial2);" d="M 338.699219 448.542969 L 296.363281 448.542969 L 296.363281 427.375 L 338.699219 427.375 Z M 338.699219 448.542969 "/>
<path style=" stroke:none;fill-rule:nonzero;fill:url(#radial3);" d="M 338.699219 448.542969 L 381.035156 448.542969 L 381.035156 469.710938 L 338.699219 469.710938 Z M 338.699219 448.542969 "/>
<path style=" stroke:none;fill-rule:nonzero;fill:url(#linear0);" d="M 248.730469 448.542969 L 259.316406 448.542969 L 259.316406 469.710938 L 248.730469 469.710938 Z M 248.730469 448.542969 "/>
<path style=" stroke:none;fill-rule:nonzero;fill:url(#radial4);" d="M 259.316406 448.542969 L 301.652344 448.542969 L 301.652344 427.375 L 259.316406 427.375 Z M 259.316406 448.542969 "/>
<path style=" stroke:none;fill-rule:nonzero;fill:url(#radial5);" d="M 248.730469 448.542969 L 206.394531 448.542969 L 206.394531 469.710938 L 248.730469 469.710938 Z M 248.730469 448.542969 "/>
<path style=" stroke:none;fill-rule:nonzero;fill:url(#radial6);" d="M 248.730469 448.542969 L 206.394531 448.542969 L 206.394531 427.375 L 248.730469 427.375 Z M 248.730469 448.542969 "/>
<path style=" stroke:none;fill-rule:nonzero;fill:url(#radial7);" d="M 259.316406 448.542969 L 301.652344 448.542969 L 301.652344 469.710938 L 259.316406 469.710938 Z M 259.316406 448.542969 "/>
<path style="fill-rule:nonzero;fill:url(#linear1);stroke-width:3;stroke-linecap:square;stroke-linejoin:bevel;stroke:rgb(12.941177%,12.941177%,12.941177%);stroke-opacity:1;stroke-miterlimit:4;" d="M 338.666878 191.168244 C 350.357168 191.168244 359.832825 200.643902 359.832825 212.334192 C 359.832825 224.024482 350.357168 233.500139 338.666878 233.500139 C 326.976588 233.500139 317.50093 224.024482 317.50093 212.334192 C 317.50093 200.643902 326.976588 191.168244 338.666878 191.168244 Z M 338.666878 191.168244 " transform="matrix(1.000095,0,0,1.000095,0,215.020531)"/>
<path style="fill-rule:nonzero;fill:url(#linear2);stroke-width:11.338583;stroke-linecap:square;stroke-linejoin:bevel;stroke:rgb(12.941177%,12.941177%,12.941177%);stroke-opacity:1;stroke-miterlimit:4;" d="M 646.783714 187.319695 C 639.387767 187.186834 632.213255 188.308774 625.39304 190.803614 C 562.918692 213.537664 552.289786 340.804053 601.551813 476.160221 C 634.54571 566.830696 685.81542 637.43911 734.84125 667.347671 C 720.182217 681.829556 691.631794 698.023876 679.999047 715.1187 C 720.005069 775.112971 659.996036 775.112971 639.993025 815.118993 C 679.999047 815.118993 639.993025 872.795571 639.993025 895.116274 L 639.993025 1175.114141 C 639.993025 1352.395439 782.715616 1495.118029 959.996914 1495.118029 C 1137.278212 1495.118029 1280.000803 1352.395438 1280.000802 1175.11414 L 1280.000802 895.116273 C 1280.000802 872.588897 1220.006531 815.118992 1273.313449 829.438491 C 1280.000802 795.115981 1200.00352 775.11297 1259.997791 695.115688 C 1200.00352 715.118699 1198.482996 680.338556 1183.602528 665.827147 C 1231.890239 635.091893 1281.993722 565.324934 1314.456173 476.16022 C 1363.7182 340.804052 1353.089294 213.537663 1290.614945 190.803614 C 1228.140596 168.054802 1138.193478 258.725277 1088.93145 394.081445 C 1062.32966 467.140413 1053.206516 537.852164 1060.248166 591.040982 C 1042.82857 585.829865 1043.655262 543.078043 1026.235666 540.538915 C 1008.830832 537.999788 973.179709 603.101838 955.981549 603.219937 C 938.783388 603.338036 905.745204 540.775113 888.975152 543.550439 C 872.2051 546.325764 871.70318 587.010855 855.56791 592.428645 C 862.963857 539.092203 853.899762 467.789957 827.076536 394.081445 C 783.202773 273.531934 707.043707 188.426873 646.783714 187.319695 Z M 646.783714 187.319695 " transform="matrix(0.264609,0.00000000028665,-0.00000000028665,0.264609,-0.0000023129,0.00000367082)"/>
<path style="fill-rule:nonzero;fill:url(#linear3);stroke-width:11.338583;stroke-linecap:square;stroke-linejoin:bevel;stroke:rgb(12.941177%,12.941177%,12.941177%);stroke-opacity:1;stroke-miterlimit:4;" d="M 1249.398409 263.375423 C 1208.240922 263.951156 1152.424402 331.621859 1118.08713 425.968164 L 1104.402414 463.567919 C 1086.879481 511.693245 1078.110633 558.106135 1077.859673 595.587792 C 1092.385845 592.103873 1141.677397 573.754247 1150.003374 575.112385 C 1159.997498 575.112385 1141.086903 632.611815 1150.003374 645.115542 C 1156.306906 653.972964 1162.06423 643.934553 1172.575037 655.434439 C 1202.454074 627.385936 1232.938367 578.227245 1254.757149 518.277261 L 1268.441866 480.692268 C 1306.336869 376.573274 1303.310583 280.558821 1261.665938 265.397868 C 1257.768673 263.98068 1253.664734 263.316374 1249.398409 263.375423 Z M 1249.398409 263.375423 " transform="matrix(0.264609,0.00000000028665,-0.00000000028665,0.264609,-0.0000023129,0.00000367082)"/>
<path style="fill-rule:nonzero;fill:url(#linear4);stroke-width:11.338583;stroke-linecap:square;stroke-linejoin:bevel;stroke:rgb(12.941177%,12.941177%,12.941177%);stroke-opacity:1;stroke-miterlimit:4;" d="M 666.594831 263.37541 C 662.343268 263.316361 658.23933 263.980668 654.342064 265.397855 C 612.682656 280.558808 609.671132 376.573261 647.566134 480.692255 L 661.25085 518.277249 C 683.586315 579.659182 715.000637 629.718379 745.558742 657.397822 C 751.478452 651.109053 739.993329 625.112519 764.79411 639.372969 C 779.586004 627.253064 754.224253 603.175638 770.005227 595.115385 C 778.567401 590.760486 828.862795 600.695561 838.148325 597.108305 C 838.133564 559.360926 829.349954 512.342778 811.590824 463.567908 L 797.92087 425.968152 C 763.568837 331.621847 707.76708 263.951143 666.594831 263.37541 Z M 666.594831 263.37541 " transform="matrix(0.264609,-0.00000000333192,0.00000000333192,0.264609,-0.00000760072,0.00000963928)"/>
<path style="fill-rule:nonzero;fill:url(#linear5);stroke-width:3;stroke-linecap:square;stroke-linejoin:bevel;stroke:rgb(12.941177%,12.941177%,12.941177%);stroke-opacity:1;stroke-miterlimit:4;" d="M 216.95975 -9.918022 C 231.571636 -9.918022 243.418161 9.037199 243.418161 32.417779 C 243.418161 55.798359 231.571636 74.749674 216.95975 74.749674 C 202.343958 74.749674 190.501339 55.798359 190.501339 32.417779 C 190.501339 9.037199 202.343958 -9.918022 216.95975 -9.918022 Z M 216.95975 -9.918022 " transform="matrix(1.000095,0,0,1.000095,0,215.020531)"/>
<path style="fill-rule:nonzero;fill:url(#linear6);stroke-width:3;stroke-linecap:square;stroke-linejoin:bevel;stroke:rgb(12.941177%,12.941177%,12.941177%);stroke-opacity:1;stroke-miterlimit:4;" d="M 291.042519 -9.918022 C 305.654405 -9.918022 317.50093 9.037199 317.50093 32.417779 C 317.50093 55.798359 305.654405 74.749674 291.042519 74.749674 C 276.430633 74.749674 264.584108 55.798359 264.584108 32.417779 C 264.584108 9.037199 276.430633 -9.918022 291.042519 -9.918022 Z M 291.042519 -9.918022 " transform="matrix(1.000095,0,0,1.000095,0,215.020531)"/>
<path style="fill-rule:nonzero;fill:url(#linear7);stroke-width:3;stroke-linecap:square;stroke-linejoin:bevel;stroke:rgb(12.941177%,12.941177%,12.941177%);stroke-opacity:1;stroke-miterlimit:4;" d="M 253.999182 42.9988 C 324.140921 42.9988 380.998773 85.643165 380.998773 138.251422 C 380.998773 190.855774 324.140921 233.500139 253.999182 233.500139 C 183.861348 233.500139 126.999591 190.855774 126.999591 138.251422 C 126.999591 85.643165 183.861348 42.9988 253.999182 42.9988 Z M 253.999182 42.9988 " transform="matrix(1.000095,0,0,1.000095,0,215.020531)"/>
<path style="fill-rule:nonzero;fill:rgb(25.882354%,25.882354%,25.882354%);fill-opacity:1;stroke-width:3;stroke-linecap:square;stroke-linejoin:bevel;stroke:rgb(12.941177%,12.941177%,12.941177%);stroke-opacity:1;stroke-miterlimit:4;" d="M 224.013764 111.793012 C 228.884393 111.793012 232.833234 117.714321 232.833234 125.022217 C 232.833234 132.326207 228.884393 138.251422 224.013764 138.251422 C 219.143135 138.251422 215.194294 132.326207 215.194294 125.022217 C 215.194294 117.714321 219.143135 111.793012 224.013764 111.793012 Z M 224.013764 111.793012 " transform="matrix(1.000095,0,0,1.000095,0,215.020531)"/>
<path style="fill-rule:nonzero;fill:rgb(25.882354%,25.882354%,25.882354%);fill-opacity:0.964706;stroke-width:3;stroke-linecap:square;stroke-linejoin:bevel;stroke:rgb(12.941177%,12.941177%,12.941177%);stroke-opacity:1;stroke-miterlimit:4;" d="M 222.248308 21.832852 C 228.095405 21.832852 232.833234 26.301176 232.833234 31.812368 L 232.833234 33.019284 C 232.833234 38.530477 228.095405 42.9988 222.248308 42.9988 C 216.405116 42.9988 211.667287 38.530477 211.667287 33.019284 L 211.667287 31.812368 C 211.667287 26.301176 216.405116 21.832852 222.248308 21.832852 Z M 222.248308 21.832852 " transform="matrix(1.000095,0,0,1.000095,0,215.020531)"/>
<path style="fill-rule:nonzero;fill:rgb(25.882354%,25.882354%,25.882354%);fill-opacity:0.964706;stroke-width:3;stroke-linecap:square;stroke-linejoin:bevel;stroke:rgb(12.941177%,12.941177%,12.941177%);stroke-opacity:1;stroke-miterlimit:4;" d="M 285.750056 21.832852 C 291.593248 21.832852 296.334983 26.301176 296.334983 31.812368 L 296.334983 33.019284 C 296.334983 38.530477 291.593248 42.9988 285.750056 42.9988 C 279.906864 42.9988 275.165129 38.530477 275.165129 33.019284 L 275.165129 31.812368 C 275.165129 26.301176 279.906864 21.832852 285.750056 21.832852 Z M 285.750056 21.832852 " transform="matrix(1.000095,0,0,1.000095,0,215.020531)"/>
<path style="fill-rule:nonzero;fill:rgb(25.882354%,25.882354%,25.882354%);fill-opacity:1;stroke-width:3;stroke-linecap:square;stroke-linejoin:bevel;stroke:rgb(12.941177%,12.941177%,12.941177%);stroke-opacity:1;stroke-miterlimit:4;" d="M 287.515512 111.793012 C 292.386141 111.793012 296.334983 117.714321 296.334983 125.022217 C 296.334983 132.326207 292.386141 138.251422 287.515512 138.251422 C 282.644884 138.251422 278.696042 132.326207 278.696042 125.022217 C 278.696042 117.714321 282.644884 111.793012 287.515512 111.793012 Z M 287.515512 111.793012 " transform="matrix(1.000095,0,0,1.000095,0,215.020531)"/>
</g>
</svg>
