<?xml version="1.0" encoding="UTF-8"?>
<svg xmlns="http://www.w3.org/2000/svg" xmlns:xlink="http://www.w3.org/1999/xlink" width="512pt" height="512pt" viewBox="0 0 512 512" version="1.1">
<defs>
<radialGradient id="radial0" gradientUnits="userSpaceOnUse" cx="450.908936" cy="189.579361" fx="450.908936" fy="189.579361" r="21.166656" gradientTransform="matrix(0.00000278673,-1.250119,-2.250215,-0.00000162462,712.37043,1017.52527)">
<stop offset="0" style="stop-color:rgb(0%,0%,0%);stop-opacity:0.313725;"/>
<stop offset="0.222222" style="stop-color:rgb(0%,0%,0%);stop-opacity:0.27451;"/>
<stop offset="1" style="stop-color:rgb(0%,0%,0%);stop-opacity:0;"/>
</radialGradient>
<radialGradient id="radial1" gradientUnits="userSpaceOnUse" cx="450.908936" cy="189.579361" fx="450.908936" fy="189.579361" r="21.166656" gradientTransform="matrix(-0.00000278673,1.250119,2.250215,0.00000162462,-204.321898,-120.439713)">
<stop offset="0" style="stop-color:rgb(0%,0%,0%);stop-opacity:0.313725;"/>
<stop offset="0.222222" style="stop-color:rgb(0%,0%,0%);stop-opacity:0.27451;"/>
<stop offset="1" style="stop-color:rgb(0%,0%,0%);stop-opacity:0;"/>
</radialGradient>
<radialGradient id="radial2" gradientUnits="userSpaceOnUse" cx="450.908936" cy="189.579361" fx="450.908936" fy="189.579361" r="21.166656" gradientTransform="matrix(-0.00000278673,-1.250119,2.250215,-0.00000162462,-204.321898,1017.52527)">
<stop offset="0" style="stop-color:rgb(0%,0%,0%);stop-opacity:0.313725;"/>
<stop offset="0.222222" style="stop-color:rgb(0%,0%,0%);stop-opacity:0.27451;"/>
<stop offset="1" style="stop-color:rgb(0%,0%,0%);stop-opacity:0;"/>
</radialGradient>
<radialGradient id="radial3" gradientUnits="userSpaceOnUse" cx="450.908936" cy="189.579361" fx="450.908936" fy="189.579361" r="21.166656" gradientTransform="matrix(0.00000278673,1.250119,-2.250215,0.00000162462,712.3704,-120.43972)">
<stop offset="0" style="stop-color:rgb(0%,0%,0%);stop-opacity:0.313725;"/>
<stop offset="0.222222" style="stop-color:rgb(0%,0%,0%);stop-opacity:0.27451;"/>
<stop offset="1" style="stop-color:rgb(0%,0%,0%);stop-opacity:0;"/>
</radialGradient>
<linearGradient id="linear0" gradientUnits="userSpaceOnUse" x1="255.323059" y1="233.5" x2="255.323044" y2="254.666656" gradientTransform="matrix(0.213761,0,0,1.000095,199.446179,215.020539)">
<stop offset="0" style="stop-color:rgb(0%,0%,0%);stop-opacity:0.27451;"/>
<stop offset="1" style="stop-color:rgb(0%,0%,0%);stop-opacity:0;"/>
</linearGradient>
<linearGradient id="linear1" gradientUnits="userSpaceOnUse" x1="254" y1="-168.666672" x2="254" y2="233.5" gradientTransform="matrix(3.779528,0,0,3.779528,0,812.59845)">
<stop offset="0" style="stop-color:rgb(38.039216%,38.039216%,38.039216%);stop-opacity:1;"/>
<stop offset="1" style="stop-color:rgb(25.882353%,25.882353%,25.882353%);stop-opacity:1;"/>
</linearGradient>
<linearGradient id="linear2" gradientUnits="userSpaceOnUse" x1="241.916656" y1="111.791656" x2="266.083313" y2="111.791656" gradientTransform="matrix(1,0,0,1,-103.734306,-255.075119)">
<stop offset="0" style="stop-color:rgb(95.686275%,26.27451%,21.176471%);stop-opacity:1;"/>
<stop offset="1" style="stop-color:rgb(93.72549%,32.54902%,31.372549%);stop-opacity:1;"/>
</linearGradient>
<linearGradient id="linear3" gradientUnits="userSpaceOnUse" x1="243.416672" y1="74.75" x2="243.416672" y2="-9.916667" >
<stop offset="0" style="stop-color:rgb(61.960784%,61.960784%,61.960784%);stop-opacity:1;"/>
<stop offset="1" style="stop-color:rgb(74.117647%,74.117647%,74.117647%);stop-opacity:1;"/>
</linearGradient>
</defs>
<g id="surface1">
<path style=" stroke:none;fill-rule:nonzero;fill:url(#radial0);" d="M 291.070312 448.542969 L 333.40625 448.542969 L 333.40625 427.375 L 291.070312 427.375 Z M 291.070312 448.542969 "/>
<path style=" stroke:none;fill-rule:nonzero;fill:url(#radial1);" d="M 216.980469 448.542969 L 174.640625 448.542969 L 174.640625 469.710938 L 216.980469 469.710938 Z M 216.980469 448.542969 "/>
<path style=" stroke:none;fill-rule:nonzero;fill:url(#radial2);" d="M 216.980469 448.542969 L 174.640625 448.542969 L 174.640625 427.375 L 216.980469 427.375 Z M 216.980469 448.542969 "/>
<path style=" stroke:none;fill-rule:nonzero;fill:url(#radial3);" d="M 291.070312 448.542969 L 333.40625 448.542969 L 333.40625 469.710938 L 291.070312 469.710938 Z M 291.070312 448.542969 "/>
<path style=" stroke:none;fill-rule:nonzero;fill:url(#linear0);" d="M 216.980469 443.25 L 291.070312 443.25 L 291.070312 469.710938 L 216.980469 469.710938 Z M 216.980469 443.25 "/>
<path style="fill-rule:nonzero;fill:rgb(87.843137%,87.843137%,87.843137%);fill-opacity:1;stroke-width:2.526316;stroke-linecap:round;stroke-linejoin:miter;stroke:rgb(20%,20%,20%);stroke-opacity:1;stroke-miterlimit:4;" d="M 253.999182 -136.917613 C 347.521501 -136.917613 423.334574 -61.10454 423.334574 32.417779 C 423.334574 125.936192 347.521501 201.749265 253.999182 201.749265 C 160.480769 201.749265 84.667696 125.936192 84.667696 32.417779 C 84.667696 -61.10454 160.480769 -136.917613 253.999182 -136.917613 Z M 253.999182 -136.917613 " transform="matrix(1.000095,0,0,1.000095,0,215.020531)"/>
<path style="fill-rule:nonzero;fill:rgb(89.803922%,45.09804%,45.09804%);fill-opacity:1;stroke-width:3;stroke-linecap:round;stroke-linejoin:round;stroke:rgb(20%,20%,20%);stroke-opacity:1;stroke-miterlimit:4;" d="M 254.001115 -147.49893 C 259.844307 -147.49893 264.582136 -142.761101 264.582136 -136.917909 L 264.582136 -105.167035 C 264.582136 -99.319937 259.844307 -94.582109 254.001115 -94.582109 C 248.154017 -94.582109 243.416188 -99.319937 243.416188 -105.167035 L 243.416188 -136.917909 C 243.416188 -142.761101 248.154017 -147.49893 254.001115 -147.49893 Z M 254.001115 -147.49893 " transform="matrix(0.000000000000000061,1.000095,-1.000095,0.000000000000000061,286.444016,-6.583965)"/>
<path style="fill-rule:nonzero;fill:rgb(89.803922%,45.09804%,45.09804%);fill-opacity:1;stroke-width:3;stroke-linecap:round;stroke-linejoin:round;stroke:rgb(20%,20%,20%);stroke-opacity:1;stroke-miterlimit:4;" d="M 254.001115 -212.333895 C 259.844307 -212.333895 264.582136 -207.596066 264.582136 -201.748968 L 264.582136 -169.998094 C 264.582136 -164.154902 259.844307 -159.417073 254.001115 -159.417073 C 248.154017 -159.417073 243.416188 -164.154902 243.416188 -169.998094 L 243.416188 -201.748968 C 243.416188 -207.596066 248.154017 -212.333895 254.001115 -212.333895 Z M 254.001115 -212.333895 " transform="matrix(0.000000000000000061,1.000095,1.000095,-0.000000000000000061,286.444016,-6.583965)"/>
<path style="fill-rule:nonzero;fill:rgb(89.803922%,45.09804%,45.09804%);fill-opacity:1;stroke-width:3;stroke-linecap:round;stroke-linejoin:round;stroke:rgb(20%,20%,20%);stroke-opacity:1;stroke-miterlimit:4;" d="M 253.999182 -147.498634 C 259.84628 -147.498634 264.584108 -142.760805 264.584108 -136.917613 L 264.584108 -105.166739 C 264.584108 -99.323547 259.84628 -94.581812 253.999182 -94.581812 C 248.15599 -94.581812 243.418161 -99.323547 243.418161 -105.166739 L 243.418161 -136.917613 C 243.418161 -142.760805 248.15599 -147.498634 253.999182 -147.498634 Z M 253.999182 -147.498634 " transform="matrix(1.000095,0,0,1.000095,0,215.020531)"/>
<path style="fill-rule:nonzero;fill:rgb(89.803922%,45.09804%,45.09804%);fill-opacity:1;stroke-width:3;stroke-linecap:round;stroke-linejoin:round;stroke:rgb(20%,20%,20%);stroke-opacity:1;stroke-miterlimit:4;" d="M 253.999182 -212.334192 C 259.84628 -212.334192 264.584108 -207.596363 264.584108 -201.749265 L 264.584108 -169.998391 C 264.584108 -164.155199 259.84628 -159.41737 253.999182 -159.41737 C 248.15599 -159.41737 243.418161 -164.155199 243.418161 -169.998391 L 243.418161 -201.749265 C 243.418161 -207.596363 248.15599 -212.334192 253.999182 -212.334192 Z M 253.999182 -212.334192 " transform="matrix(1.000095,0,0,-1.000095,0,215.020531)"/>
<path style="fill-rule:nonzero;fill:url(#linear1);stroke-width:11.338583;stroke-linecap:round;stroke-linejoin:miter;stroke:rgb(20%,20%,20%);stroke-opacity:1;stroke-miterlimit:4;" d="M 959.996958 175.11124 C 538.959387 175.11124 200.000596 514.07003 200.000596 935.122364 C 200.000596 1356.159935 538.959387 1695.118725 959.996958 1695.118725 C 1381.034529 1695.118725 1719.99332 1356.159935 1719.99332 935.122364 C 1719.99332 514.07003 1381.034529 175.11124 959.996958 175.11124 Z M 959.996958 295.11455 C 1314.559574 295.11455 1600.004772 580.559747 1600.004772 935.122364 C 1600.004772 1289.670218 1314.559574 1575.115415 959.996958 1575.115415 C 605.434342 1575.115415 320.003907 1289.670218 320.003907 935.122364 C 320.003907 580.559747 605.434342 295.11455 959.996958 295.11455 Z M 959.996958 295.11455 " transform="matrix(0.264609,0,0,0.264609,0,0)"/>
<path style=" stroke:none;fill-rule:nonzero;fill:rgb(0%,0%,0%);fill-opacity:0.196078;" d="M 254.023438 448.542969 C 142.613281 448.542969 52.921875 358.851562 52.921875 247.441406 C 52.921875 246.78125 52.929688 246.125 52.933594 245.472656 C 53.984375 355.964844 143.269531 444.605469 254.023438 444.605469 C 364.777344 444.605469 454.0625 355.964844 455.113281 245.472656 C 455.121094 246.125 455.125 246.78125 455.125 247.441406 C 455.125 358.851562 365.433594 448.542969 254.023438 448.542969 Z M 254.023438 448.542969 "/>
<path style=" stroke:none;fill-rule:nonzero;fill:rgb(100%,100%,100%);fill-opacity:0.392157;" d="M 254.023438 46.335938 C 142.613281 46.335938 52.921875 136.027344 52.921875 247.441406 C 52.921875 248.097656 52.929688 248.753906 52.933594 249.410156 C 53.984375 138.914062 143.269531 50.277344 254.023438 50.277344 C 364.777344 50.277344 454.0625 138.914062 455.113281 249.410156 C 455.121094 248.753906 455.125 248.097656 455.125 247.441406 C 455.125 136.027344 365.433594 46.335938 254.023438 46.335938 Z M 254.023438 46.335938 "/>
<path style=" stroke:none;fill-rule:nonzero;fill:rgb(12.941177%,12.941177%,12.941177%);fill-opacity:1;" d="M 254.023438 44.839844 C 141.808594 44.839844 51.421875 135.222656 51.421875 247.441406 C 51.421875 359.65625 141.808594 450.042969 254.023438 450.042969 C 366.238281 450.042969 456.628906 359.65625 456.628906 247.441406 C 456.628906 135.222656 366.238281 44.839844 254.023438 44.839844 Z M 254.023438 47.839844 C 364.628906 47.839844 453.628906 136.832031 453.628906 247.441406 C 453.628906 358.046875 364.628906 447.042969 254.023438 447.042969 C 143.417969 447.042969 54.421875 358.046875 54.421875 247.441406 C 54.421875 136.832031 143.417969 47.839844 254.023438 47.839844 Z M 254.023438 47.839844 "/>
<path style="fill-rule:nonzero;fill:url(#linear2);stroke-width:3;stroke-linecap:square;stroke-linejoin:bevel;stroke:rgb(20%,20%,20%);stroke-opacity:1;stroke-miterlimit:4;" d="M 144.976132 -222.659323 C 147.895223 -222.65843 150.267066 -220.289099 150.264379 -217.366538 L 150.266764 -69.198009 C 150.265871 -66.278918 147.896539 -63.907076 144.973979 -63.909762 C 142.049624 -63.908979 139.681251 -66.276517 139.683938 -69.199078 L 139.681553 -217.367607 C 139.68424 -220.290168 142.051778 -222.65854 144.976132 -222.659323 Z M 144.976132 -222.659323 " transform="matrix(0.459265,0.888407,-0.888407,0.459265,0,215.020531)"/>
<path style="fill-rule:nonzero;fill:url(#linear3);stroke-width:3;stroke-linecap:square;stroke-linejoin:bevel;stroke:rgb(20%,20%,20%);stroke-opacity:1;stroke-miterlimit:4;" d="M 253.999182 -9.918022 C 277.379762 -9.918022 296.334983 9.037199 296.334983 32.417779 C 296.334983 55.798359 277.379762 74.749674 253.999182 74.749674 C 230.618602 74.749674 211.667287 55.798359 211.667287 32.417779 C 211.667287 9.037199 230.618602 -9.918022 253.999182 -9.918022 Z M 253.999182 -9.918022 " transform="matrix(1.000095,0,0,1.000095,0,215.020531)"/>
</g>
</svg>
