<?xml version="1.0" encoding="UTF-8"?>
<svg xmlns="http://www.w3.org/2000/svg" xmlns:xlink="http://www.w3.org/1999/xlink" width="512pt" height="512pt" viewBox="0 0 512 512" version="1.1">
<defs>
<linearGradient id="linear0" gradientUnits="userSpaceOnUse" x1="254" y1="233.5" x2="254" y2="254.666672" gradientTransform="matrix(1.000095,0,0,1.000095,-0.000061041,215.020562)">
<stop offset="0" style="stop-color:rgb(0%,0%,0%);stop-opacity:0.27451;"/>
<stop offset="1" style="stop-color:rgb(0%,0%,0%);stop-opacity:0;"/>
</linearGradient>
<radialGradient id="radial0" gradientUnits="userSpaceOnUse" cx="450.908936" cy="189.579361" fx="450.908936" fy="189.579361" r="21.166656" gradientTransform="matrix(0.00000278673,-1.250119,-2.250215,-0.00000162462,849.966879,1017.525321)">
<stop offset="0" style="stop-color:rgb(0%,0%,0%);stop-opacity:0.313725;"/>
<stop offset="0.222222" style="stop-color:rgb(0%,0%,0%);stop-opacity:0.27451;"/>
<stop offset="1" style="stop-color:rgb(0%,0%,0%);stop-opacity:0;"/>
</radialGradient>
<radialGradient id="radial1" gradientUnits="userSpaceOnUse" cx="450.908936" cy="189.579361" fx="450.908936" fy="189.579361" r="21.166656" gradientTransform="matrix(-0.00000278673,1.250119,2.250215,0.00000162462,-339.272325,-120.439662)">
<stop offset="0" style="stop-color:rgb(0%,0%,0%);stop-opacity:0.313725;"/>
<stop offset="0.222222" style="stop-color:rgb(0%,0%,0%);stop-opacity:0.27451;"/>
<stop offset="1" style="stop-color:rgb(0%,0%,0%);stop-opacity:0;"/>
</radialGradient>
<radialGradient id="radial2" gradientUnits="userSpaceOnUse" cx="450.908936" cy="189.579361" fx="450.908936" fy="189.579361" r="21.166656" gradientTransform="matrix(-0.00000278673,-1.250119,2.250215,-0.00000162462,-339.272325,1017.525321)">
<stop offset="0" style="stop-color:rgb(0%,0%,0%);stop-opacity:0.313725;"/>
<stop offset="0.222222" style="stop-color:rgb(0%,0%,0%);stop-opacity:0.27451;"/>
<stop offset="1" style="stop-color:rgb(0%,0%,0%);stop-opacity:0;"/>
</radialGradient>
<radialGradient id="radial3" gradientUnits="userSpaceOnUse" cx="450.908936" cy="189.579361" fx="450.908936" fy="189.579361" r="21.166656" gradientTransform="matrix(0.00000278673,1.250119,-2.250215,0.00000162462,849.966856,-120.43967)">
<stop offset="0" style="stop-color:rgb(0%,0%,0%);stop-opacity:0.313725;"/>
<stop offset="0.222222" style="stop-color:rgb(0%,0%,0%);stop-opacity:0.27451;"/>
<stop offset="1" style="stop-color:rgb(0%,0%,0%);stop-opacity:0;"/>
</radialGradient>
<linearGradient id="linear1" gradientUnits="userSpaceOnUse" x1="254" y1="233.5" x2="254" y2="-168.666672" gradientTransform="matrix(1.000095,0,0,1.000095,0,215.020527)">
<stop offset="0" style="stop-color:rgb(48.627451%,70.196078%,25.882353%);stop-opacity:1;"/>
<stop offset="1" style="stop-color:rgb(54.509804%,76.470588%,29.019608%);stop-opacity:1;"/>
</linearGradient>
<linearGradient id="linear2" gradientUnits="userSpaceOnUse" x1="254" y1="-126.333344" x2="254" y2="191.166672" >
<stop offset="0" style="stop-color:rgb(40.784314%,62.352941%,21.960784%);stop-opacity:1;"/>
<stop offset="1" style="stop-color:rgb(48.627451%,70.196078%,25.882353%);stop-opacity:1;"/>
</linearGradient>
</defs>
<g id="surface1">
<path style=" stroke:none;fill-rule:nonzero;fill:url(#linear0);" d="M 82.027344 448.542969 L 428.664062 448.542969 L 428.664062 469.710938 L 82.027344 469.710938 Z M 82.027344 448.542969 "/>
<path style=" stroke:none;fill-rule:nonzero;fill:url(#radial0);" d="M 428.664062 448.542969 L 471.003906 448.542969 L 471.003906 427.375 L 428.664062 427.375 Z M 428.664062 448.542969 "/>
<path style=" stroke:none;fill-rule:nonzero;fill:url(#radial1);" d="M 82.027344 448.542969 L 39.691406 448.542969 L 39.691406 469.710938 L 82.027344 469.710938 Z M 82.027344 448.542969 "/>
<path style=" stroke:none;fill-rule:nonzero;fill:url(#radial2);" d="M 82.027344 448.542969 L 39.691406 448.542969 L 39.691406 427.375 L 82.027344 427.375 Z M 82.027344 448.542969 "/>
<path style=" stroke:none;fill-rule:nonzero;fill:url(#radial3);" d="M 428.664062 448.542969 L 471.003906 448.542969 L 471.003906 469.710938 L 428.664062 469.710938 Z M 428.664062 448.542969 "/>
<path style=" stroke:none;fill-rule:nonzero;fill:url(#linear1);" d="M 58.214844 46.335938 C 57.9375 46.335938 57.667969 46.34375 57.394531 46.359375 C 56.851562 46.386719 56.316406 46.441406 55.789062 46.519531 C 55 46.640625 54.230469 46.816406 53.484375 47.050781 C 52.984375 47.203125 52.496094 47.382812 52.023438 47.582031 C 51.070312 47.980469 50.167969 48.472656 49.324219 49.042969 C 48.902344 49.328125 48.496094 49.632812 48.101562 49.953125 C 47.710938 50.277344 47.335938 50.617188 46.976562 50.976562 C 46.617188 51.335938 46.277344 51.710938 45.953125 52.105469 C 45.792969 52.300781 45.636719 52.5 45.484375 52.703125 C 45.179688 53.109375 44.894531 53.53125 44.628906 53.96875 C 44.234375 54.625 43.882812 55.308594 43.582031 56.023438 C 43.480469 56.261719 43.386719 56.5 43.296875 56.742188 C 43.296875 56.746094 43.296875 56.746094 43.296875 56.746094 C 43.207031 56.988281 43.125 57.234375 43.050781 57.484375 C 42.972656 57.730469 42.902344 57.984375 42.835938 58.238281 C 42.707031 58.746094 42.601562 59.261719 42.519531 59.789062 C 42.480469 60.054688 42.445312 60.320312 42.417969 60.585938 C 42.363281 61.121094 42.335938 61.664062 42.335938 62.214844 L 42.335938 432.667969 C 42.335938 441.460938 49.417969 448.542969 58.214844 448.542969 L 449.835938 448.542969 C 458.628906 448.542969 465.710938 441.460938 465.710938 432.667969 L 465.710938 62.214844 C 465.710938 58.914062 464.714844 55.859375 463.007812 53.324219 C 462.722656 52.902344 462.417969 52.496094 462.09375 52.105469 C 461.769531 51.710938 461.429688 51.335938 461.070312 50.976562 C 460.710938 50.617188 460.335938 50.277344 459.945312 49.953125 C 459.554688 49.632812 459.144531 49.328125 458.722656 49.042969 C 457.878906 48.472656 456.976562 47.980469 456.027344 47.582031 C 455.550781 47.382812 455.0625 47.203125 454.566406 47.050781 C 453.820312 46.816406 453.046875 46.640625 452.257812 46.519531 C 451.730469 46.441406 451.195312 46.386719 450.652344 46.359375 C 450.382812 46.34375 450.109375 46.335938 449.835938 46.335938 Z M 58.214844 46.335938 "/>
<path style=" stroke:none;fill-rule:nonzero;fill:rgb(100%,100%,100%);fill-opacity:0.392157;" d="M 58.214844 46.335938 C 49.417969 46.335938 42.335938 53.417969 42.335938 62.214844 L 42.335938 64.859375 C 42.335938 56.066406 49.417969 48.984375 58.214844 48.984375 L 449.835938 48.984375 C 458.628906 48.984375 465.710938 56.066406 465.710938 64.859375 L 465.710938 62.214844 C 465.710938 53.417969 458.628906 46.335938 449.835938 46.335938 Z M 58.214844 46.335938 "/>
<path style=" stroke:none;fill-rule:nonzero;fill:rgb(1.176471%,1.176471%,1.176471%);fill-opacity:0.235294;" d="M 58.214844 448.539062 C 49.417969 448.539062 42.335938 441.457031 42.335938 432.664062 L 42.335938 430.015625 C 42.335938 438.8125 49.417969 445.894531 58.214844 445.894531 L 449.835938 445.894531 C 458.628906 445.894531 465.710938 438.8125 465.710938 430.015625 L 465.710938 432.664062 C 465.710938 441.457031 458.628906 448.539062 449.835938 448.539062 Z M 58.214844 448.539062 "/>
<path style="fill-rule:nonzero;fill:url(#linear2);stroke-width:3;stroke-linecap:round;stroke-linejoin:miter;stroke:rgb(12.941177%,12.941177%,12.941177%);stroke-opacity:1;stroke-miterlimit:4;" d="M 253.999182 -126.332686 C 341.674403 -126.332686 412.749647 -55.257442 412.749647 32.417779 C 412.749647 120.093 341.674403 191.168244 253.999182 191.168244 C 166.323961 191.168244 95.248717 120.093 95.248717 32.417779 C 95.248717 -55.257442 166.323961 -126.332686 253.999182 -126.332686 Z M 253.999182 -126.332686 " transform="matrix(1.000095,0,0,1.000095,0,215.020531)"/>
<path style=" stroke:none;fill-rule:nonzero;fill:rgb(12.941177%,12.941177%,12.941177%);fill-opacity:1;" d="M 58.214844 44.839844 C 48.613281 44.839844 40.835938 52.613281 40.835938 62.214844 L 40.835938 432.667969 C 40.835938 442.265625 48.613281 450.042969 58.214844 450.042969 L 449.832031 450.042969 C 459.433594 450.042969 467.210938 442.265625 467.210938 432.667969 L 467.210938 62.214844 C 467.210938 52.613281 459.433594 44.839844 449.832031 44.839844 Z M 58.214844 47.839844 L 449.832031 47.839844 C 457.824219 47.839844 464.210938 54.222656 464.210938 62.214844 L 464.210938 432.667969 C 464.210938 440.65625 457.824219 447.042969 449.832031 447.042969 L 58.214844 447.042969 C 50.222656 447.042969 43.839844 440.65625 43.839844 432.667969 L 43.839844 62.214844 C 43.839844 54.222656 50.222656 47.839844 58.214844 47.839844 Z M 58.214844 47.839844 "/>
<path style="fill-rule:nonzero;fill:rgb(87.843137%,87.843137%,87.843137%);fill-opacity:1;stroke-width:11.338583;stroke-linecap:round;stroke-linejoin:miter;stroke:rgb(12.941177%,12.941177%,12.941177%);stroke-opacity:1;stroke-miterlimit:4;" d="M 1110.292653 559.331458 C 1048.940241 559.331458 987.602591 582.833152 940.584441 629.851303 C 895.883983 674.551761 872.456101 732.228343 870.27127 790.524944 L 697.743445 618.011881 C 666.402932 586.671369 622.263444 580.367836 598.746988 603.86953 C 575.245294 627.371224 581.548826 671.525475 612.889339 702.865987 L 853.368355 943.345004 L 629.467481 1167.245878 C 598.126968 1198.586391 598.126968 1249.044174 629.467481 1280.384686 C 655.906887 1306.838855 695.986723 1310.957556 726.692454 1292.755553 L 700.179236 1266.242335 C 692.340417 1258.403517 692.340417 1245.796452 700.179236 1237.957633 L 714.321587 1223.815282 C 722.145643 1215.976464 734.76747 1215.976464 742.606289 1223.815282 L 770.876229 1252.099984 L 799.160931 1223.815282 L 785.01858 1209.672931 C 777.194523 1201.834113 777.194523 1189.227048 785.01858 1181.388229 L 799.160931 1167.245878 C 806.999749 1159.421822 819.621576 1159.421822 827.445633 1167.245878 L 841.587984 1181.388229 L 869.872686 1153.103527 L 841.587984 1124.818825 C 833.763927 1116.994769 833.763927 1104.372942 841.587984 1096.534123 L 855.730335 1082.391772 C 863.569153 1074.567716 876.19098 1074.567716 884.015037 1082.391772 L 912.299739 1110.676474 L 966.507163 1056.483812 L 1178.583379 1268.545265 C 1209.923892 1299.885778 1254.06338 1306.18931 1277.579836 1282.687616 C 1301.08153 1259.185922 1294.763235 1215.031672 1263.437485 1183.691159 L 1119.312461 1039.580898 C 1177.623825 1037.396067 1235.300407 1013.968185 1280.000865 969.252964 C 1374.022403 875.246189 1374.022403 723.858078 1280.000865 629.851303 C 1232.997477 582.833152 1171.645065 559.331458 1110.292653 559.331458 Z M 1138.577355 651.153403 C 1169.253561 651.153403 1199.929767 662.919013 1223.431461 686.420707 C 1270.434849 733.424095 1270.434849 809.110768 1223.431461 856.128919 C 1176.428073 903.132307 1100.741399 903.132307 1053.723249 856.128919 C 1006.719861 809.110768 1006.719861 733.424095 1053.723249 686.420707 C 1077.224943 662.919013 1107.901149 651.153403 1138.577355 651.153403 Z M 1138.577355 651.153403 " transform="matrix(0.264609,0,0,0.264609,0,0)"/>
</g>
</svg>
