<svg xmlns="http://www.w3.org/2000/svg" width="512pt" height="512pt" viewBox="0 0 512 512"><defs><linearGradient id="a" gradientUnits="userSpaceOnUse" x1="254" y1="233.5" x2="254" y2="254.667" gradientTransform="matrix(.80008 0 0 1.0001 -137.597 215.02)"><stop offset="0" stop-opacity=".275"/><stop offset="1" stop-opacity="0"/></linearGradient><radialGradient id="b" gradientUnits="userSpaceOnUse" cx="450.909" cy="189.579" fx="450.909" fy="189.579" r="21.167" gradientTransform="matrix(0 -1.25012 -1.80017 0 495.806 1017.525)"><stop offset="0" stop-opacity=".314"/><stop offset=".222" stop-opacity=".275"/><stop offset="1" stop-opacity="0"/></radialGradient><radialGradient id="c" gradientUnits="userSpaceOnUse" cx="450.909" cy="189.579" fx="450.909" fy="189.579" r="21.167" gradientTransform="matrix(0 1.25012 1.80017 0 -195.21 -120.44)"><stop offset="0" stop-opacity=".314"/><stop offset=".222" stop-opacity=".275"/><stop offset="1" stop-opacity="0"/></radialGradient><radialGradient id="d" gradientUnits="userSpaceOnUse" cx="450.909" cy="189.579" fx="450.909" fy="189.579" r="21.167" gradientTransform="matrix(0 -1.25012 1.80017 0 -195.21 1017.525)"><stop offset="0" stop-opacity=".314"/><stop offset=".222" stop-opacity=".275"/><stop offset="1" stop-opacity="0"/></radialGradient><radialGradient id="e" gradientUnits="userSpaceOnUse" cx="450.909" cy="189.579" fx="450.909" fy="189.579" r="21.167" gradientTransform="matrix(0 1.25012 -1.80017 0 495.806 -120.44)"><stop offset="0" stop-opacity=".314"/><stop offset=".222" stop-opacity=".275"/><stop offset="1" stop-opacity="0"/></radialGradient><linearGradient id="f" gradientUnits="userSpaceOnUse" x1="254" y1="233.5" x2="254" y2="254.667" gradientTransform="matrix(.80008 0 0 1.0001 71.973 215.02)"><stop offset="0" stop-opacity=".275"/><stop offset="1" stop-opacity="0"/></linearGradient><radialGradient id="g" gradientUnits="userSpaceOnUse" cx="450.909" cy="189.579" fx="450.909" fy="189.579" r="21.167" gradientTransform="matrix(0 -1.25012 -1.80017 0 705.376 1017.525)"><stop offset="0" stop-opacity=".314"/><stop offset=".222" stop-opacity=".275"/><stop offset="1" stop-opacity="0"/></radialGradient><radialGradient id="h" gradientUnits="userSpaceOnUse" cx="450.909" cy="189.579" fx="450.909" fy="189.579" r="21.167" gradientTransform="matrix(0 1.25012 1.80017 0 14.36 -120.44)"><stop offset="0" stop-opacity=".314"/><stop offset=".222" stop-opacity=".275"/><stop offset="1" stop-opacity="0"/></radialGradient><radialGradient id="i" gradientUnits="userSpaceOnUse" cx="450.909" cy="189.579" fx="450.909" fy="189.579" r="21.167" gradientTransform="matrix(0 -1.25012 1.80017 0 14.36 1017.525)"><stop offset="0" stop-opacity=".314"/><stop offset=".222" stop-opacity=".275"/><stop offset="1" stop-opacity="0"/></radialGradient><radialGradient id="j" gradientUnits="userSpaceOnUse" cx="450.909" cy="189.579" fx="450.909" fy="189.579" r="21.167" gradientTransform="matrix(0 1.25012 -1.80017 0 705.376 -120.44)"><stop offset="0" stop-opacity=".314"/><stop offset=".222" stop-opacity=".275"/><stop offset="1" stop-opacity="0"/></radialGradient><linearGradient id="k" gradientUnits="userSpaceOnUse" x1="158.75" y1=".667" x2="158.75" y2="-136.917" gradientTransform="matrix(1.38478 0 0 1.38478 147.363 447.624)"><stop offset="0" stop-color="#ef5350"/><stop offset="1" stop-color="#e57373"/></linearGradient><linearGradient id="l" gradientUnits="userSpaceOnUse" x1="145.815" y1="-33.731" x2="145.815" y2="-171.312" gradientTransform="matrix(1.38478 0 0 1.38478 179.115 495.253)"><stop offset="0" stop-color="#bdbdbd"/><stop offset="1" stop-color="#e0e0e0"/></linearGradient><linearGradient id="m" gradientUnits="userSpaceOnUse" x1="158.75" y1=".667" x2="158.75" y2="-136.917" gradientTransform="matrix(1.38478 0 0 1.38478 -64.182 447.624)"><stop offset="0" stop-color="#26a69a"/><stop offset="1" stop-color="#4db6ac"/></linearGradient><linearGradient id="n" gradientUnits="userSpaceOnUse" x1="145.815" y1="-33.731" x2="145.815" y2="-171.312" gradientTransform="matrix(1.38478 0 0 1.38478 -32.572 495.253)"><stop offset="0" stop-color="#bdbdbd"/><stop offset="1" stop-color="#e0e0e0"/></linearGradient><linearGradient id="o" gradientUnits="userSpaceOnUse" x1="158.75" y1=".667" x2="158.75" y2="-136.917" gradientTransform="matrix(1.38478 0 0 1.38478 147.363 235.937)"><stop offset="0" stop-color="#ffa726"/><stop offset="1" stop-color="#ffb74d"/></linearGradient><linearGradient id="p" gradientUnits="userSpaceOnUse" x1="145.815" y1="-33.731" x2="145.815" y2="-171.312" gradientTransform="matrix(1.38478 0 0 1.38478 179.115 283.45)"><stop offset="0" stop-color="#bdbdbd"/><stop offset="1" stop-color="#e0e0e0"/></linearGradient><linearGradient id="q" gradientUnits="userSpaceOnUse" x1="158.75" y1=".667" x2="158.75" y2="-136.917" gradientTransform="matrix(1.38478 0 0 1.38478 -64.467 235.937)"><stop offset="0" stop-color="#7e57c2"/><stop offset="1" stop-color="#9575cd"/></linearGradient><linearGradient id="r" gradientUnits="userSpaceOnUse" x1="145.815" y1="-33.731" x2="145.815" y2="-171.312" gradientTransform="matrix(1.38478 0 0 1.38478 -32.572 283.45)"><stop offset="0" stop-color="#bdbdbd"/><stop offset="1" stop-color="#e0e0e0"/></linearGradient></defs><path d="M141.832 446.977h16.934v23.52h-16.934zm0 0" fill="url(#a)"/><path d="M158.766 448.543h33.87v-21.168h-33.87zm0 0" fill="url(#b)"/><path d="M141.832 448.543h-33.871v21.168h33.871zm0 0" fill="url(#c)"/><path d="M141.832 448.543h-33.871v-21.168h33.871zm0 0" fill="url(#d)"/><path d="M158.766 448.543h33.87v21.168h-33.87zm0 0" fill="url(#e)"/><path d="M351.398 446.977h16.938v23.52h-16.938zm0 0" fill="url(#f)"/><path d="M368.336 448.543h33.871v-21.168h-33.871zm0 0" fill="url(#g)"/><path d="M351.398 448.543h-33.867v21.168h33.867zm0 0" fill="url(#h)"/><path d="M351.398 448.543h-33.867v-21.168h33.867zm0 0" fill="url(#i)"/><path d="M368.336 448.543h33.871v21.168h-33.871zm0 0" fill="url(#j)"/><path d="M359.867 258.023c52.613 0 95.262 42.653 95.262 95.262 0 52.613-42.649 95.262-95.262 95.262-52.61 0-95.258-42.649-95.258-95.262 0-52.61 42.649-95.262 95.258-95.262zm0 0" fill="url(#k)"/><path d="M359.867 258.023a96.48 96.48 0 0 0-16.672 1.446 96.15 96.15 0 0 0 3.258 22.199c2.883 10.766 7.48 20.594 13.414 29.277 1.426-18.707 8.371-36.379 19.613-50.914a96.184 96.184 0 0 0-19.613-2.008zm0 52.922c-2.984 39.18-30.168 73.832-70.379 84.61a97.433 97.433 0 0 1-13.726 2.632c11.945 22.407 32.578 39.422 57.46 46.61 33.743-21.844 51.051-63.55 40.06-104.57-2.872-10.72-7.438-20.508-13.337-29.164 37.032 13.042 63.43 48.25 63.43 89.851 0 9.27-1.313 18.219-3.758 26.676 21.68-17.43 35.512-44.192 35.512-74.305a95.889 95.889 0 0 0-3.758-26.672c-16.316-13.125-37.086-20.96-59.75-20.96-11.125 0-21.797 1.89-31.707 5.367l-.047-.075zm0 0c-26.172 4.922-53.215-1.441-74.406-17.277a94.766 94.766 0 0 0-20.164 48.059c22.836 5.449 47.73 2.476 69.762-10.243 9.652-5.574 17.957-12.558 24.808-20.539zm0 0" fill="url(#l)"/><path d="M264.895 347.992a95.024 95.024 0 0 0-.145 5.293c0 52.774 42.484 95.262 95.262 95.262 52.773 0 95.261-42.488 95.261-95.262 0-1.777-.05-3.543-.148-5.293-2.727 50.293-44.117 89.965-95.113 89.965-51 0-92.387-39.672-95.117-89.965zm0 0" fill-opacity=".235"/><path d="M305.691 304.676c11.614-11.613 24.832-17.227 29.528-12.531 4.691 4.69-.922 17.91-12.535 29.523-11.614 11.617-24.832 17.227-29.528 12.535-4.691-4.691.918-17.91 12.535-29.527zm0 0" fill="#fff" fill-opacity=".235"/><path d="M359.867 258.023c-52.773 0-95.258 42.489-95.258 95.262 0 1.777.047 3.543.145 5.293 2.726-50.293 44.117-89.969 95.113-89.969 51 0 92.39 39.676 95.117 89.97.098-1.75.145-3.517.145-5.294 0-52.773-42.484-95.262-95.262-95.262zm0 0" fill="#fff" fill-opacity=".235"/><path d="M359.867 258.023c52.613 0 95.262 42.653 95.262 95.262 0 52.613-42.649 95.262-95.262 95.262-52.61 0-95.258-42.649-95.258-95.262 0-52.61 42.649-95.262 95.258-95.262zm0 0" fill="none" stroke-width="3.0002699999999995" stroke-linecap="round" stroke="#212121"/><path d="M148.324 258.023c52.61 0 95.262 42.653 95.262 95.262 0 52.613-42.652 95.262-95.262 95.262-52.613 0-95.262-42.649-95.262-95.262 0-52.61 42.649-95.262 95.262-95.262zm0 0" fill="url(#m)"/><path d="M148.18 258.023c-5.688 0-11.262.497-16.672 1.446a96.15 96.15 0 0 0 3.258 22.199c2.882 10.766 7.48 20.594 13.414 29.277 1.425-18.707 8.37-36.379 19.613-50.914a96.184 96.184 0 0 0-19.613-2.008zm0 52.922c-2.985 39.18-30.168 73.832-70.38 84.61a97.433 97.433 0 0 1-13.726 2.632c11.946 22.407 32.574 39.422 57.461 46.61 33.742-21.844 51.05-63.55 40.059-104.57-2.871-10.72-7.438-20.508-13.336-29.164 37.027 13.042 63.43 48.25 63.43 89.851 0 9.27-1.313 18.219-3.758 26.676 21.68-17.43 35.511-44.192 35.511-74.305a95.889 95.889 0 0 0-3.757-26.672c-16.32-13.125-37.086-20.96-59.75-20.96-11.13 0-21.797 1.89-31.707 5.367l-.047-.075zm0 0c-26.172 4.922-53.215-1.441-74.407-17.277a94.766 94.766 0 0 0-20.164 48.059c22.836 5.449 47.73 2.476 69.762-10.243 9.652-5.574 17.957-12.558 24.809-20.539zm0 0" fill="url(#n)"/><path d="M53.207 347.992a98.95 98.95 0 0 0-.145 5.293c0 52.774 42.489 95.262 95.262 95.262 52.774 0 95.262-42.488 95.262-95.262 0-1.777-.05-3.543-.145-5.293-2.73 50.293-44.12 89.965-95.117 89.965-51 0-92.387-39.672-95.117-89.965zm0 0" fill-opacity=".235"/><path d="M94.145 304.676c11.613-11.613 24.835-17.227 29.527-12.531 4.691 4.69-.918 17.91-12.535 29.523-11.614 11.617-24.832 17.227-29.524 12.535-4.695-4.691.918-17.91 12.532-29.527zm0 0" fill="#fff" fill-opacity=".235"/><path d="M148.324 258.023c-52.773 0-95.262 42.489-95.262 95.262 0 1.777.051 3.543.145 5.293 2.727-50.293 44.117-89.969 95.117-89.969 50.996 0 92.387 39.676 95.117 89.97a98.95 98.95 0 0 0 .145-5.294c0-52.773-42.488-95.262-95.262-95.262zm0 0" fill="#fff" fill-opacity=".235"/><path d="M148.324 258.023c52.61 0 95.262 42.653 95.262 95.262 0 52.613-42.653 95.262-95.262 95.262-52.613 0-95.262-42.649-95.262-95.262 0-52.61 42.649-95.262 95.262-95.262zm0 0" fill="none" stroke-width="3.0002699999999995" stroke-linecap="round" stroke="#212121"/><path d="M359.867 46.336c52.613 0 95.262 42.652 95.262 95.262 0 52.613-42.649 95.261-95.262 95.261-52.61 0-95.258-42.648-95.258-95.261 0-52.61 42.649-95.262 95.258-95.262zm0 0" fill="url(#o)"/><path d="M359.867 46.223c-5.687 0-11.258.496-16.672 1.441a96.119 96.119 0 0 0 3.258 22.2c2.883 10.765 7.48 20.597 13.414 29.28 1.426-18.707 8.371-36.378 19.613-50.917a96.431 96.431 0 0 0-19.613-2.004zm0 52.922c-2.984 39.175-30.168 73.832-70.379 84.605a96.331 96.331 0 0 1-13.726 2.633c11.945 22.41 32.578 39.426 57.46 46.61 33.743-21.84 51.051-63.552 40.06-104.571-2.872-10.719-7.438-20.508-13.337-29.164 37.032 13.047 63.43 48.254 63.43 89.855a95.937 95.937 0 0 1-3.758 26.676c21.68-17.434 35.512-44.195 35.512-74.305 0-9.27-1.313-18.218-3.758-26.675-16.316-13.121-37.086-20.957-59.75-20.957-11.125 0-21.797 1.886-31.707 5.363l-.047-.07zm0 0c-26.172 4.918-53.215-1.446-74.406-17.282a94.766 94.766 0 0 0-20.164 48.059c22.836 5.45 47.73 2.476 69.762-10.242 9.652-5.575 17.957-12.555 24.808-20.535zm0 0" fill="url(#p)"/><path d="M264.754 136.305a95.128 95.128 0 0 0-.145 5.293c0 52.777 42.485 95.261 95.258 95.261 52.778 0 95.262-42.484 95.262-95.261 0-1.778-.047-3.54-.145-5.293-2.726 50.293-44.117 89.965-95.117 89.965-50.996 0-92.387-39.672-95.113-89.965zm0 0" fill-opacity=".235"/><path d="M305.691 92.988c11.614-11.613 24.832-17.222 29.528-12.531 4.691 4.691-.922 17.91-12.535 29.527-11.614 11.614-24.832 17.223-29.528 12.532-4.691-4.692.918-17.91 12.535-29.528zm0 0" fill="#fff" fill-opacity=".235"/><path d="M359.867 46.336c-52.773 0-95.258 42.488-95.258 95.262 0 1.777.047 3.543.145 5.293 2.726-50.293 44.117-89.97 95.113-89.97 51 0 92.39 39.677 95.117 89.97.098-1.75.145-3.516.145-5.293 0-52.774-42.484-95.262-95.262-95.262zm0 0" fill="#fff" fill-opacity=".235"/><path d="M359.867 46.336c52.613 0 95.262 42.652 95.262 95.262 0 52.613-42.649 95.261-95.262 95.261-52.61 0-95.258-42.648-95.258-95.261 0-52.61 42.649-95.262 95.258-95.262zm0 0" fill="none" stroke-width="3.0002699999999995" stroke-linecap="round" stroke="#212121"/><path d="M148.04 46.336c52.608 0 95.26 42.652 95.26 95.262 0 52.613-42.652 95.261-95.26 95.261-52.614 0-95.263-42.648-95.263-95.261 0-52.61 42.649-95.262 95.262-95.262zm0 0" fill="url(#q)"/><path d="M148.18 46.223c-5.688 0-11.262.496-16.672 1.441a96.119 96.119 0 0 0 3.258 22.2c2.882 10.765 7.48 20.597 13.414 29.28 1.425-18.707 8.37-36.378 19.613-50.917a96.46 96.46 0 0 0-19.613-2.004zm0 52.922c-2.985 39.175-30.168 73.832-70.38 84.605a96.331 96.331 0 0 1-13.726 2.633c11.946 22.41 32.574 39.426 57.461 46.61 33.742-21.84 51.05-63.552 40.059-104.571-2.871-10.719-7.438-20.508-13.336-29.164 37.027 13.047 63.43 48.254 63.43 89.855a95.937 95.937 0 0 1-3.758 26.676c21.68-17.434 35.511-44.195 35.511-74.305 0-9.27-1.312-18.218-3.757-26.675-16.32-13.121-37.086-20.957-59.75-20.957-11.13 0-21.797 1.886-31.707 5.363l-.047-.07zm0 0c-26.172 4.918-53.215-1.446-74.407-17.282a94.766 94.766 0 0 0-20.164 48.059c22.836 5.45 47.73 2.476 69.762-10.242 9.652-5.575 17.957-12.555 24.809-20.535zm0 0" fill="url(#r)"/><path d="M53.207 136.305a99.063 99.063 0 0 0-.145 5.293c0 52.777 42.489 95.261 95.262 95.261 52.774 0 95.262-42.484 95.262-95.261 0-1.778-.05-3.54-.145-5.293-2.73 50.293-44.12 89.965-95.117 89.965-51 0-92.387-39.672-95.117-89.965zm0 0" fill-opacity=".235"/><path d="M93.86 92.988c11.613-11.613 24.835-17.222 29.527-12.531 4.691 4.691-.918 17.91-12.535 29.527-11.614 11.614-24.832 17.223-29.524 12.532-4.695-4.692.918-17.91 12.531-29.528zm0 0" fill="#fff" fill-opacity=".235"/><path d="M148.04 46.336c-52.778 0-95.263 42.488-95.263 95.262 0 1.777.051 3.543.145 5.293 2.726-50.293 44.117-89.97 95.117-89.97 50.996 0 92.387 39.677 95.117 89.97a98.95 98.95 0 0 0 .145-5.293c0-52.774-42.488-95.262-95.262-95.262zm0 0" fill="#fff" fill-opacity=".235"/><path d="M148.039 46.336c52.61 0 95.262 42.652 95.262 95.262 0 52.613-42.653 95.261-95.262 95.261-52.613 0-95.262-42.648-95.262-95.261 0-52.61 42.649-95.262 95.262-95.262zm0 0" fill="none" stroke-width="3.0002699999999995" stroke-linecap="round" stroke="#212121"/></svg>