<?xml version="1.0" encoding="UTF-8"?>
<svg xmlns="http://www.w3.org/2000/svg" xmlns:xlink="http://www.w3.org/1999/xlink" width="512pt" height="512pt" viewBox="0 0 512 512" version="1.1">
<defs>
<linearGradient id="linear0" gradientUnits="userSpaceOnUse" x1="254" y1="233.5" x2="254" y2="254.666672" gradientTransform="matrix(0.0833414,0,0,1.000095,233.737529,238.835336)">
<stop offset="0" style="stop-color:rgb(0%,0%,0%);stop-opacity:0.27451;"/>
<stop offset="1" style="stop-color:rgb(0%,0%,0%);stop-opacity:0;"/>
</linearGradient>
<radialGradient id="radial0" gradientUnits="userSpaceOnUse" cx="450.908936" cy="189.579361" fx="450.908936" fy="189.579361" r="21.166656" gradientTransform="matrix(0.00000278673,-1.250119,-2.250215,-0.00000162462,685.909489,1041.340095)">
<stop offset="0" style="stop-color:rgb(0%,0%,0%);stop-opacity:0.313725;"/>
<stop offset="0.222222" style="stop-color:rgb(0%,0%,0%);stop-opacity:0.27451;"/>
<stop offset="1" style="stop-color:rgb(0%,0%,0%);stop-opacity:0;"/>
</radialGradient>
<radialGradient id="radial1" gradientUnits="userSpaceOnUse" cx="450.908936" cy="189.579361" fx="450.908936" fy="189.579361" r="21.166656" gradientTransform="matrix(-0.00000278673,1.250119,2.250215,0.00000162462,-177.861038,-96.624888)">
<stop offset="0" style="stop-color:rgb(0%,0%,0%);stop-opacity:0.313725;"/>
<stop offset="0.222222" style="stop-color:rgb(0%,0%,0%);stop-opacity:0.27451;"/>
<stop offset="1" style="stop-color:rgb(0%,0%,0%);stop-opacity:0;"/>
</radialGradient>
<radialGradient id="radial2" gradientUnits="userSpaceOnUse" cx="450.908936" cy="189.579361" fx="450.908936" fy="189.579361" r="21.166656" gradientTransform="matrix(-0.00000278673,-1.250119,2.250215,-0.00000162462,-177.861038,1041.340095)">
<stop offset="0" style="stop-color:rgb(0%,0%,0%);stop-opacity:0.313725;"/>
<stop offset="0.222222" style="stop-color:rgb(0%,0%,0%);stop-opacity:0.27451;"/>
<stop offset="1" style="stop-color:rgb(0%,0%,0%);stop-opacity:0;"/>
</radialGradient>
<radialGradient id="radial3" gradientUnits="userSpaceOnUse" cx="450.908936" cy="189.579361" fx="450.908936" fy="189.579361" r="21.166656" gradientTransform="matrix(0.00000278673,1.250119,-2.250215,0.00000162462,685.909489,-96.624896)">
<stop offset="0" style="stop-color:rgb(0%,0%,0%);stop-opacity:0.313725;"/>
<stop offset="0.222222" style="stop-color:rgb(0%,0%,0%);stop-opacity:0.27451;"/>
<stop offset="1" style="stop-color:rgb(0%,0%,0%);stop-opacity:0;"/>
</radialGradient>
<linearGradient id="linear1" gradientUnits="userSpaceOnUse" x1="960" y1="175.118118" x2="960" y2="1695.118164" gradientTransform="matrix(0.276967,0,0,0.276967,-10.67805,-2.033364)">
<stop offset="0" style="stop-color:rgb(93.72549%,32.54902%,31.372549%);stop-opacity:1;"/>
<stop offset="1" style="stop-color:rgb(55.294118%,43.137255%,38.823529%);stop-opacity:1;"/>
</linearGradient>
</defs>
<g id="surface1">
<path style=" stroke:none;fill-rule:nonzero;fill:url(#linear0);" d="M 243.441406 467.066406 L 264.609375 467.066406 L 264.609375 493.527344 L 243.441406 493.527344 Z M 243.441406 467.066406 "/>
<path style=" stroke:none;fill-rule:nonzero;fill:url(#radial0);" d="M 264.609375 472.359375 L 306.945312 472.359375 L 306.945312 451.1875 L 264.609375 451.1875 Z M 264.609375 472.359375 "/>
<path style=" stroke:none;fill-rule:nonzero;fill:url(#radial1);" d="M 243.441406 472.359375 L 201.101562 472.359375 L 201.101562 493.527344 L 243.441406 493.527344 Z M 243.441406 472.359375 "/>
<path style=" stroke:none;fill-rule:nonzero;fill:url(#radial2);" d="M 243.441406 472.359375 L 201.101562 472.359375 L 201.101562 451.1875 L 243.441406 451.1875 Z M 243.441406 472.359375 "/>
<path style=" stroke:none;fill-rule:nonzero;fill:url(#radial3);" d="M 264.609375 472.359375 L 306.945312 472.359375 L 306.945312 493.527344 L 264.609375 493.527344 Z M 264.609375 472.359375 "/>
<path style=" stroke:none;fill-rule:nonzero;fill:url(#linear1);" d="M 233.054688 46.46875 C 238.59375 68.625 221.972656 68.625 221.972656 90.78125 C 216.433594 74.164062 205.355469 74.164062 199.816406 57.546875 C 177.660156 79.703125 199.816406 101.863281 188.738281 107.402344 C 177.660156 112.941406 174.890625 68.625 155.503906 68.625 C 155.503906 90.785156 144.421875 96.324219 144.421875 112.941406 C 127.804688 107.402344 122.265625 107.402344 122.265625 79.703125 C 89.03125 124.019531 122.265625 146.175781 118.015625 154.574219 C 113.03125 164.421875 83.492188 146.175781 77.953125 124.019531 C 55.792969 157.253906 77.953125 157.253906 72.410156 179.414062 C 56.652344 210.933594 55.867188 222.554688 77.09375 256.75 C 75.125 267.449219 74.089844 278.488281 74.089844 289.777344 C 74.089844 389.460938 154.339844 469.710938 254.023438 469.710938 C 353.707031 469.710938 433.957031 389.460938 433.957031 289.777344 C 433.957031 279.523438 433.105469 269.480469 431.476562 259.703125 C 454.585938 223.195312 454.214844 211.824219 438.007812 179.414062 C 432.46875 157.253906 454.625 157.253906 432.46875 124.019531 C 426.929688 146.175781 397.386719 164.421875 392.402344 154.574219 C 388.15625 146.175781 421.390625 124.019531 388.15625 79.703125 C 388.15625 107.402344 382.613281 107.402344 365.996094 112.941406 C 365.996094 96.324219 354.917969 90.785156 354.917969 68.625 C 335.53125 68.625 332.761719 112.941406 321.683594 107.402344 C 310.605469 101.863281 332.761719 79.703125 310.601562 57.546875 C 305.0625 74.164062 293.984375 74.164062 288.445312 90.78125 C 288.445312 68.625 271.828125 68.625 277.367188 46.46875 C 244.132812 63.085938 266.289062 90.78125 255.210938 91.226562 C 244.132812 90.78125 266.289062 63.085938 233.054688 46.46875 Z M 400.632812 268.042969 L 329.808594 268.042969 C 327.863281 264.667969 325.054688 261.863281 321.683594 259.917969 L 321.683594 256.964844 C 321.683594 226.277344 292.035156 201.570312 255.210938 201.570312 C 218.386719 201.570312 188.738281 226.277344 188.738281 256.964844 L 188.738281 259.917969 C 185.363281 261.863281 182.558594 264.667969 180.613281 268.042969 L 107.414062 268.042969 C 148.296875 90.90625 376.539062 129.527344 400.632812 268.042969 Z M 295.066406 255.359375 C 300.113281 255.253906 299.523438 264.21875 299.523438 270.8125 C 299.523438 278.484375 292.195312 284.660156 283.089844 284.660156 L 282.722656 284.660156 C 273.617188 284.660156 266.289062 278.484375 266.289062 270.8125 C 266.289062 263.140625 269.359375 267.078125 277.570312 263.148438 L 292.109375 256.191406 C 293.265625 255.636719 294.238281 255.378906 295.066406 255.359375 Z M 216.050781 256.316406 C 216.976562 256.320312 218.0625 256.601562 219.34375 257.222656 L 230.015625 262.375 C 238.214844 266.335938 244.132812 263.140625 244.132812 270.8125 C 244.132812 278.484375 236.800781 284.660156 227.695312 284.660156 L 227.332031 284.660156 C 218.226562 284.660156 210.894531 278.484375 210.894531 270.8125 C 210.894531 264.339844 211.070312 256.292969 216.050781 256.316406 Z M 106.28125 301.277344 L 177.988281 301.277344 C 179.5 307.613281 186.117188 312.355469 194.09375 312.355469 L 194.460938 312.355469 C 196.78125 312.355469 198.984375 311.953125 200.980469 311.230469 C 206.507812 317.714844 213.667969 323.160156 221.972656 327.148438 L 221.972656 345.59375 C 221.972656 348.660156 224.445312 351.132812 227.515625 351.132812 C 230.582031 351.132812 233.054688 348.660156 233.054688 345.59375 L 233.054688 351.132812 C 233.054688 354.199219 235.523438 356.671875 238.59375 356.671875 C 241.660156 356.671875 244.132812 354.199219 244.132812 351.132812 L 244.132812 356.671875 C 244.132812 359.738281 246.601562 362.210938 249.671875 362.210938 C 252.738281 362.210938 255.210938 359.738281 255.210938 356.671875 C 255.210938 359.738281 257.679688 362.210938 260.75 362.210938 C 263.816406 362.210938 266.289062 359.738281 266.289062 356.671875 L 266.289062 351.132812 C 266.289062 354.199219 268.757812 356.671875 271.828125 356.671875 C 274.898438 356.671875 277.367188 354.199219 277.367188 351.132812 L 277.367188 345.59375 C 277.367188 348.660156 279.839844 351.132812 282.90625 351.132812 C 285.976562 351.132812 288.445312 348.660156 288.445312 345.59375 L 288.445312 327.148438 C 296.753906 323.160156 303.914062 317.714844 309.441406 311.230469 C 311.4375 311.953125 313.640625 312.355469 315.960938 312.355469 L 316.324219 312.355469 C 324.304688 312.355469 330.917969 307.613281 332.433594 301.277344 L 401.769531 301.277344 C 396.820312 366.332031 350.226562 419.378906 288.445312 433.96875 L 288.445312 384.367188 C 288.445312 381.300781 285.976562 378.828125 282.90625 378.828125 C 279.839844 378.828125 277.367188 381.300781 277.367188 384.367188 L 277.367188 389.90625 C 277.367188 386.839844 274.898438 384.367188 271.828125 384.367188 C 268.757812 384.367188 266.289062 386.839844 266.289062 389.90625 L 266.289062 395.445312 C 266.289062 392.378906 263.816406 389.90625 260.75 389.90625 C 257.679688 389.90625 255.210938 392.378906 255.210938 395.445312 C 255.210938 392.378906 252.738281 389.90625 249.671875 389.90625 C 246.601562 389.90625 244.132812 392.378906 244.132812 395.445312 L 244.132812 389.90625 C 244.132812 386.839844 241.660156 384.367188 238.59375 384.367188 C 235.523438 384.367188 233.054688 386.839844 233.054688 389.90625 L 233.054688 384.367188 C 233.054688 381.300781 230.582031 378.828125 227.515625 378.828125 C 224.445312 378.828125 221.972656 381.300781 221.972656 384.367188 L 221.972656 434.511719 C 159.019531 420.730469 111.292969 367.160156 106.28125 301.277344 Z M 106.28125 301.277344 "/>
<path style=" stroke:none;fill-rule:nonzero;fill:rgb(100%,100%,100%);fill-opacity:0.392157;" d="M 233.054688 46.46875 C 233.570312 48.546875 233.898438 50.425781 234.058594 52.152344 C 248.324219 59.636719 251.835938 69.226562 252.363281 77.566406 C 252.851562 68.101562 251.339844 55.613281 233.054688 46.46875 Z M 277.367188 46.46875 C 259.082031 55.613281 257.566406 68.101562 258.058594 77.566406 C 258.582031 69.226562 262.097656 59.636719 276.363281 52.152344 C 276.523438 50.425781 276.847656 48.546875 277.367188 46.46875 Z M 234.050781 57.234375 C 232.738281 69.46875 221.972656 72.949219 221.972656 90.78125 C 216.433594 74.164062 205.355469 74.164062 199.816406 57.546875 C 190.640625 66.722656 189.066406 75.898438 189.582031 83.890625 C 190.058594 77.21875 192.5625 69.964844 199.816406 62.707031 C 205.355469 79.328125 216.433594 79.328125 221.972656 95.945312 C 221.972656 75.832031 235.664062 73.976562 234.050781 57.234375 Z M 276.371094 57.234375 C 274.757812 73.976562 288.445312 75.832031 288.445312 95.945312 C 293.984375 79.328125 305.0625 79.328125 310.601562 62.707031 C 317.859375 69.960938 320.363281 77.21875 320.835938 83.886719 C 321.351562 75.894531 319.777344 66.722656 310.601562 57.546875 C 305.0625 74.164062 293.984375 74.164062 288.445312 90.78125 C 288.445312 72.949219 277.683594 69.464844 276.371094 57.234375 Z M 155.503906 68.625 C 155.503906 90.785156 144.421875 96.324219 144.421875 112.941406 C 127.804688 107.402344 122.265625 107.402344 122.265625 79.703125 C 109.988281 96.074219 106.785156 109.417969 107.410156 120.164062 C 107.988281 110.390625 111.882812 98.710938 122.265625 84.867188 C 122.265625 112.5625 127.804688 112.5625 144.421875 118.101562 C 144.421875 101.484375 155.503906 95.945312 155.503906 73.785156 C 174.890625 73.785156 177.660156 118.101562 188.738281 112.5625 C 192.0625 110.898438 192.386719 107.730469 191.820312 103.523438 C 191.433594 105.195312 190.515625 106.511719 188.738281 107.402344 C 177.660156 112.941406 174.890625 68.625 155.503906 68.625 Z M 354.917969 68.625 C 335.53125 68.625 332.761719 112.941406 321.683594 107.402344 C 319.90625 106.511719 318.988281 105.195312 318.597656 103.519531 C 318.03125 107.730469 318.355469 110.898438 321.683594 112.5625 C 332.761719 118.101562 335.53125 73.785156 354.917969 73.785156 C 354.917969 95.945312 365.996094 101.484375 365.996094 118.101562 C 382.613281 112.5625 388.15625 112.5625 388.15625 84.867188 C 398.535156 98.710938 402.433594 110.390625 403.011719 120.164062 C 403.632812 109.417969 400.433594 96.074219 388.15625 79.703125 C 388.15625 107.402344 382.613281 107.402344 365.996094 112.941406 C 365.996094 96.324219 354.917969 90.785156 354.917969 68.625 Z M 251.917969 88.433594 C 251.519531 93.125 251.558594 96.242188 255.210938 96.386719 C 258.859375 96.242188 258.898438 93.125 258.503906 88.433594 C 258.167969 90.128906 257.257812 91.144531 255.210938 91.226562 C 253.164062 91.144531 252.253906 90.128906 251.917969 88.433594 Z M 77.953125 124.019531 C 69.046875 137.375 67.300781 145.359375 68.035156 151.578125 C 68.660156 146.097656 71.320312 139.128906 77.953125 129.179688 C 83.492188 151.339844 113.03125 169.585938 118.015625 159.734375 C 118.652344 158.480469 118.445312 156.917969 117.757812 155.027344 C 112.085938 163.835938 83.402344 145.820312 77.953125 124.019531 Z M 432.46875 124.019531 C 427.019531 145.820312 398.332031 163.835938 392.664062 155.027344 C 391.972656 156.917969 391.769531 158.480469 392.402344 159.734375 C 397.386719 169.585938 426.929688 151.339844 432.46875 129.179688 C 439.101562 139.128906 441.761719 146.097656 442.382812 151.574219 C 443.117188 145.359375 441.371094 137.371094 432.46875 124.019531 Z M 73.195312 175 C 73.054688 176.371094 72.804688 177.835938 72.410156 179.414062 C 64.339844 195.554688 60.199219 206.476562 60.929688 217.886719 C 61.542969 208.21875 65.5625 198.273438 72.410156 184.574219 C 73.34375 180.839844 73.492188 177.738281 73.195312 175 Z M 437.222656 175 C 436.929688 177.738281 437.074219 180.839844 438.007812 184.574219 C 444.859375 198.273438 448.878906 208.214844 449.492188 217.882812 C 450.21875 206.476562 446.078125 195.554688 438.007812 179.414062 C 437.613281 177.835938 437.363281 176.371094 437.222656 175 Z M 255.210938 201.570312 C 218.386719 201.570312 188.738281 226.277344 188.738281 256.964844 L 188.738281 259.917969 C 185.363281 261.863281 182.558594 264.667969 180.613281 268.042969 L 108.679688 268.042969 C 108.238281 269.742188 107.816406 271.460938 107.414062 273.203125 L 180.613281 273.203125 C 182.558594 269.832031 185.363281 267.023438 188.738281 265.078125 L 188.738281 262.125 C 188.738281 231.4375 218.386719 206.730469 255.210938 206.730469 C 292.035156 206.730469 321.683594 231.4375 321.683594 262.125 L 321.683594 265.078125 C 325.054688 267.023438 327.863281 269.832031 329.808594 273.203125 L 400.632812 273.203125 C 400.332031 271.464844 399.996094 269.746094 399.628906 268.042969 L 329.808594 268.042969 C 327.863281 264.667969 325.054688 261.863281 321.683594 259.917969 L 321.683594 256.964844 C 321.683594 226.277344 292.035156 201.570312 255.210938 201.570312 Z M 76.398438 260.777344 C 74.882812 270.214844 74.089844 279.898438 74.089844 289.777344 C 74.089844 290.644531 74.097656 291.511719 74.109375 292.378906 C 74.253906 281.980469 75.273438 271.800781 77.09375 261.910156 C 76.855469 261.523438 76.632812 261.15625 76.398438 260.777344 Z M 432.113281 263.84375 C 431.898438 264.1875 431.695312 264.515625 431.476562 264.863281 C 432.972656 273.828125 433.808594 283.019531 433.9375 292.386719 C 433.949219 291.519531 433.957031 290.648438 433.957031 289.777344 C 433.957031 280.964844 433.328125 272.308594 432.113281 263.84375 Z M 299.527344 270.332031 C 299.527344 270.488281 299.523438 270.65625 299.523438 270.8125 C 299.523438 278.484375 292.195312 284.660156 283.089844 284.660156 L 282.722656 284.660156 C 274.5625 284.660156 267.832031 279.695312 266.523438 273.144531 C 266.363281 273.851562 266.289062 274.769531 266.289062 275.972656 C 266.289062 283.644531 273.617188 289.820312 282.722656 289.820312 L 283.089844 289.820312 C 292.195312 289.820312 299.523438 283.644531 299.523438 275.972656 C 299.523438 274.1875 299.566406 272.234375 299.527344 270.332031 Z M 210.957031 271.964844 C 210.90625 273.3125 210.894531 274.675781 210.894531 275.972656 C 210.894531 283.644531 218.226562 289.820312 227.332031 289.820312 L 227.695312 289.820312 C 236.800781 289.820312 244.132812 283.644531 244.132812 275.972656 C 244.132812 274.960938 244.027344 274.144531 243.828125 273.46875 C 242.367188 279.859375 235.722656 284.660156 227.695312 284.660156 L 227.332031 284.660156 C 218.6875 284.660156 211.648438 279.09375 210.957031 271.964844 Z M 106.28125 306.441406 C 111.292969 372.324219 159.019531 425.894531 221.972656 439.671875 L 221.972656 434.511719 C 160.671875 421.09375 113.808594 369.945312 106.765625 306.441406 Z M 401.285156 306.441406 C 394.332031 369.125 348.582031 419.765625 288.445312 433.96875 L 288.445312 439.132812 C 350.226562 424.542969 396.820312 371.492188 401.769531 306.441406 Z M 227.515625 378.828125 C 224.445312 378.828125 221.972656 381.300781 221.972656 384.367188 L 221.972656 389.53125 C 221.972656 386.460938 224.445312 383.992188 227.515625 383.992188 C 230.582031 383.992188 233.054688 386.460938 233.054688 389.53125 L 233.054688 384.367188 C 233.054688 381.300781 230.582031 378.828125 227.515625 378.828125 Z M 282.90625 378.828125 C 279.839844 378.828125 277.367188 381.300781 277.367188 384.367188 L 277.367188 389.53125 C 277.367188 386.460938 279.839844 383.992188 282.90625 383.992188 C 285.976562 383.992188 288.445312 386.460938 288.445312 389.53125 L 288.445312 384.367188 C 288.445312 381.300781 285.976562 378.828125 282.90625 378.828125 Z M 238.59375 384.367188 C 235.523438 384.367188 233.054688 386.839844 233.054688 389.90625 L 233.054688 395.070312 C 233.054688 392 235.523438 389.53125 238.59375 389.53125 C 241.660156 389.53125 244.132812 392 244.132812 395.070312 L 244.132812 389.90625 C 244.132812 386.839844 241.660156 384.367188 238.59375 384.367188 Z M 271.828125 384.367188 C 268.757812 384.367188 266.289062 386.839844 266.289062 389.90625 L 266.289062 395.070312 C 266.289062 392 268.757812 389.53125 271.828125 389.53125 C 274.898438 389.53125 277.367188 392 277.367188 395.070312 L 277.367188 389.90625 C 277.367188 386.839844 274.898438 384.367188 271.828125 384.367188 Z M 249.671875 389.90625 C 246.601562 389.90625 244.132812 392.378906 244.132812 395.445312 L 244.132812 400.609375 C 244.132812 397.539062 246.601562 395.070312 249.671875 395.070312 C 252.738281 395.070312 255.210938 397.539062 255.210938 400.609375 C 255.210938 397.539062 257.679688 395.070312 260.75 395.070312 C 263.816406 395.070312 266.289062 397.539062 266.289062 400.609375 L 266.289062 395.445312 C 266.289062 392.378906 263.816406 389.90625 260.75 389.90625 C 257.679688 389.90625 255.210938 392.378906 255.210938 395.445312 C 255.210938 392.378906 252.738281 389.90625 249.671875 389.90625 Z M 249.671875 389.90625 "/>
<path style=" stroke:none;fill-rule:nonzero;fill:rgb(0%,0%,0%);fill-opacity:0.235294;" d="M 233.054688 46.46875 C 233.609375 48.699219 233.941406 50.703125 234.089844 52.53125 C 234.242188 50.851562 234.214844 49.007812 233.964844 46.941406 C 233.664062 46.785156 233.363281 46.625 233.054688 46.46875 Z M 277.367188 46.46875 C 277.054688 46.625 276.757812 46.785156 276.457031 46.941406 C 276.203125 49.007812 276.179688 50.851562 276.332031 52.53125 C 276.480469 50.703125 276.808594 48.699219 277.367188 46.46875 Z M 252.382812 72.792969 C 252.179688 77.382812 251.46875 81.296875 251.871094 83.824219 C 252.109375 80.75 252.601562 76.9375 252.382812 72.792969 Z M 258.035156 72.792969 C 257.820312 76.9375 258.308594 80.75 258.550781 83.824219 C 258.949219 81.296875 258.238281 77.382812 258.035156 72.792969 Z M 320.863281 79.15625 C 320.410156 87.355469 317.683594 94.34375 318.535156 98.871094 C 319.148438 93.683594 321.3125 86.820312 320.863281 79.15625 Z M 189.558594 79.160156 C 189.109375 86.820312 191.269531 93.6875 191.886719 98.871094 C 192.738281 94.34375 190.011719 87.355469 189.558594 79.160156 Z M 107.390625 115.457031 C 106.558594 132.472656 115.742188 143.65625 117.933594 150.378906 C 117.960938 150.328125 117.992188 150.28125 118.015625 150.230469 C 120.714844 144.902344 108.3125 134.023438 107.390625 115.457031 Z M 403.03125 115.457031 C 402.109375 134.023438 389.707031 144.902344 392.402344 150.230469 C 392.429688 150.28125 392.460938 150.328125 392.488281 150.378906 C 394.675781 143.65625 403.863281 132.472656 403.03125 115.457031 Z M 248.085938 144.894531 C 186.910156 145.042969 126.578125 180.667969 107.414062 263.699219 L 108.464844 263.699219 C 151.589844 93.378906 371.984375 129.863281 399.800781 263.699219 L 400.632812 263.699219 C 387.832031 190.113281 317.417969 144.722656 248.085938 144.894531 Z M 442.425781 146.839844 C 441.601562 155.117188 436.308594 160.199219 437.183594 170.257812 C 437.96875 161.472656 443.347656 156.457031 442.425781 146.839844 Z M 67.992188 146.84375 C 67.074219 156.457031 72.449219 161.472656 73.238281 170.257812 C 74.109375 160.199219 68.820312 155.117188 67.992188 146.84375 Z M 60.90625 213.128906 C 60.25 225.351562 65.066406 237.230469 76.507812 255.792969 C 76.691406 254.660156 76.886719 253.53125 77.09375 252.410156 C 77.09375 252.410156 77.09375 252.40625 77.09375 252.40625 C 66.605469 235.511719 61.492188 224.128906 60.90625 213.128906 Z M 449.515625 213.140625 C 448.890625 224.765625 443.210938 236.820312 431.476562 255.363281 C 431.667969 256.515625 431.847656 257.671875 432.019531 258.835938 C 444.820312 238.503906 450.203125 226.011719 449.515625 213.140625 Z M 295.066406 251.019531 C 294.238281 251.035156 293.265625 251.296875 292.109375 251.847656 L 277.570312 258.808594 C 269.359375 262.738281 266.289062 258.796875 266.289062 266.46875 C 266.289062 267.121094 266.34375 267.757812 266.449219 268.382812 C 267.167969 264.027344 270.417969 266.570312 277.570312 263.148438 L 292.109375 256.191406 C 293.265625 255.636719 294.238281 255.378906 295.066406 255.359375 C 298.789062 255.28125 299.441406 260.140625 299.53125 265.339844 C 299.574219 258.894531 299.835938 250.921875 295.066406 251.019531 Z M 216.050781 251.976562 C 211.070312 251.953125 210.894531 259.996094 210.894531 266.46875 C 210.894531 266.785156 210.914062 267.09375 210.9375 267.402344 C 211.097656 261.824219 211.921875 256.296875 216.050781 256.316406 C 216.976562 256.320312 218.0625 256.601562 219.34375 257.222656 L 230.015625 262.375 C 237.324219 265.90625 242.816406 263.753906 243.921875 268.679688 C 244.058594 267.960938 244.132812 267.222656 244.132812 266.46875 C 244.132812 258.796875 238.214844 261.992188 230.015625 258.035156 L 219.34375 252.878906 C 218.0625 252.261719 216.976562 251.980469 216.050781 251.976562 Z M 74.105469 287.582031 C 74.09375 288.3125 74.089844 289.042969 74.089844 289.777344 C 74.089844 389.460938 154.339844 469.710938 254.023438 469.710938 C 353.707031 469.710938 433.957031 389.460938 433.957031 289.777344 C 433.957031 289.058594 433.953125 288.339844 433.945312 287.621094 C 432.78125 386.289062 352.980469 465.371094 254.023438 465.371094 C 155.058594 465.371094 75.246094 386.269531 74.105469 287.582031 Z M 106.28125 296.9375 C 106.390625 298.390625 106.523438 299.835938 106.675781 301.277344 L 177.988281 301.277344 C 179.5 307.613281 186.117188 312.355469 194.09375 312.355469 L 194.460938 312.355469 C 196.78125 312.355469 198.984375 311.953125 200.980469 311.230469 C 206.507812 317.714844 213.667969 323.160156 221.972656 327.148438 L 221.972656 322.804688 C 213.667969 318.816406 206.507812 313.375 200.980469 306.886719 C 198.984375 307.613281 196.78125 308.015625 194.460938 308.015625 L 194.09375 308.015625 C 186.117188 308.015625 179.5 303.273438 177.988281 296.9375 Z M 332.433594 296.9375 C 330.917969 303.273438 324.304688 308.015625 316.324219 308.015625 L 315.960938 308.015625 C 313.640625 308.015625 311.4375 307.613281 309.441406 306.886719 C 303.914062 313.375 296.753906 318.816406 288.445312 322.804688 L 288.445312 327.148438 C 296.753906 323.160156 303.914062 317.714844 309.441406 311.230469 C 311.4375 311.953125 313.640625 312.355469 315.960938 312.355469 L 316.324219 312.355469 C 324.304688 312.355469 330.917969 307.613281 332.433594 301.277344 L 401.375 301.277344 C 401.527344 299.835938 401.660156 298.390625 401.769531 296.9375 Z M 221.972656 341.253906 L 221.972656 345.59375 C 221.972656 348.660156 224.445312 351.132812 227.515625 351.132812 C 230.582031 351.132812 233.054688 348.660156 233.054688 345.59375 L 233.054688 341.253906 C 233.054688 344.320312 230.582031 346.792969 227.515625 346.792969 C 224.445312 346.792969 221.972656 344.320312 221.972656 341.253906 Z M 277.367188 341.253906 L 277.367188 345.59375 C 277.367188 348.660156 279.839844 351.132812 282.90625 351.132812 C 285.976562 351.132812 288.445312 348.660156 288.445312 345.59375 L 288.445312 341.253906 C 288.445312 344.320312 285.976562 346.792969 282.90625 346.792969 C 279.839844 346.792969 277.367188 344.320312 277.367188 341.253906 Z M 233.054688 346.792969 L 233.054688 351.132812 C 233.054688 354.199219 235.523438 356.671875 238.59375 356.671875 C 241.660156 356.671875 244.132812 354.199219 244.132812 351.132812 L 244.132812 346.792969 C 244.132812 349.859375 241.660156 352.332031 238.59375 352.332031 C 235.523438 352.332031 233.054688 349.859375 233.054688 346.792969 Z M 266.289062 346.792969 L 266.289062 351.132812 C 266.289062 354.199219 268.757812 356.671875 271.828125 356.671875 C 274.898438 356.671875 277.367188 354.199219 277.367188 351.132812 L 277.367188 346.792969 C 277.367188 349.859375 274.898438 352.332031 271.828125 352.332031 C 268.757812 352.332031 266.289062 349.859375 266.289062 346.792969 Z M 244.132812 352.332031 L 244.132812 356.671875 C 244.132812 359.738281 246.601562 362.210938 249.671875 362.210938 C 252.738281 362.210938 255.210938 359.738281 255.210938 356.671875 C 255.210938 359.738281 257.679688 362.210938 260.75 362.210938 C 263.816406 362.210938 266.289062 359.738281 266.289062 356.671875 L 266.289062 352.332031 C 266.289062 355.398438 263.816406 357.871094 260.75 357.871094 C 257.679688 357.871094 255.210938 355.398438 255.210938 352.332031 C 255.210938 355.398438 252.738281 357.871094 249.671875 357.871094 C 246.601562 357.871094 244.132812 355.398438 244.132812 352.332031 Z M 244.132812 352.332031 "/>
<path style=" stroke:none;fill-rule:nonzero;fill:rgb(12.941177%,12.941177%,12.941177%);fill-opacity:1;" d="M 279.613281 43.667969 L 276.695312 45.125 C 259.660156 53.644531 256.480469 65.550781 256.480469 74.914062 C 256.480469 79.59375 257.171875 83.699219 257.171875 86.382812 C 257.171875 87.722656 256.96875 88.644531 256.707031 89.0625 C 256.453125 89.46875 256.199219 89.664062 255.210938 89.714844 C 254.222656 89.664062 253.964844 89.46875 253.714844 89.0625 C 253.453125 88.644531 253.25 87.722656 253.25 86.382812 C 253.25 83.699219 253.941406 79.59375 253.941406 74.914062 C 253.941406 65.550781 250.757812 53.644531 233.722656 45.125 L 231.550781 44.039062 L 231.550781 46.652344 L 231.597656 46.832031 C 234.28125 57.566406 231.734375 62.367188 228.320312 67.832031 C 225.582031 72.207031 222.234375 77 220.996094 84.601562 C 218.347656 79.515625 215.078125 76.222656 211.957031 73.105469 C 207.800781 68.949219 203.914062 65.097656 201.238281 57.074219 L 200.472656 54.769531 L 198.753906 56.484375 C 187.324219 67.917969 187.226562 79.75 188.640625 88.933594 C 189.347656 93.527344 190.371094 97.523438 190.527344 100.472656 C 190.609375 101.945312 190.472656 103.121094 190.105469 103.996094 C 189.738281 104.867188 189.183594 105.5 188.066406 106.058594 C 187.050781 106.566406 186.496094 106.503906 185.679688 106.027344 C 184.859375 105.550781 183.863281 104.464844 182.867188 102.882812 C 180.878906 99.714844 178.875 94.714844 176.613281 89.492188 C 174.351562 84.273438 171.816406 78.8125 168.5 74.542969 C 165.1875 70.273438 160.921875 67.125 155.503906 67.125 L 154 67.125 L 154 68.625 C 154 79.453125 151.34375 86.058594 148.589844 92.25 C 146.066406 97.9375 143.429688 103.359375 143.007812 110.890625 C 135.816406 108.527344 131.074219 107.042969 128.265625 103.671875 C 125.203125 99.996094 123.765625 93.453125 123.765625 79.703125 L 123.765625 75.203125 L 121.066406 78.804688 C 104.230469 101.25 104.101562 118.550781 107.835938 131.039062 C 109.699219 137.28125 112.480469 142.332031 114.460938 146.242188 C 115.449219 148.199219 116.234375 149.875 116.617188 151.183594 C 117 152.492188 116.972656 153.316406 116.679688 153.894531 C 116.234375 154.777344 115.621094 155.261719 114.648438 155.5625 C 113.675781 155.863281 112.324219 155.902344 110.710938 155.597656 C 107.484375 154.988281 103.28125 153.035156 99.054688 150.070312 C 90.601562 144.144531 82.046875 134.21875 79.40625 123.65625 L 78.585938 120.367188 L 76.703125 123.1875 C 71.101562 131.59375 68.234375 137.976562 67.054688 143.253906 C 65.871094 148.527344 66.425781 152.679688 67.511719 156.300781 C 69.675781 163.511719 73.570312 168.394531 70.980469 178.925781 C 63.132812 194.644531 58.878906 205.660156 59.382812 217.144531 C 59.882812 228.566406 65.078125 240.160156 75.523438 257.054688 C 73.605469 267.664062 72.589844 278.597656 72.589844 289.777344 C 72.589844 390.265625 153.535156 471.210938 254.023438 471.210938 C 354.511719 471.210938 435.457031 390.265625 435.457031 289.777344 C 435.457031 279.640625 434.621094 269.707031 433.039062 260.027344 C 444.425781 241.988281 450.191406 229.898438 450.984375 218.125 C 451.777344 206.289062 447.511719 195.089844 439.441406 178.925781 C 436.847656 168.394531 440.742188 163.511719 442.90625 156.300781 C 443.992188 152.679688 444.550781 148.527344 443.367188 143.253906 C 442.183594 137.976562 439.320312 131.59375 433.71875 123.1875 L 431.835938 120.367188 L 431.015625 123.65625 C 428.371094 134.21875 419.820312 144.144531 411.367188 150.070312 C 407.140625 153.035156 402.9375 154.988281 399.710938 155.597656 C 398.09375 155.902344 396.742188 155.863281 395.773438 155.5625 C 394.800781 155.261719 394.1875 154.777344 393.742188 153.894531 C 393.449219 153.316406 393.421875 152.492188 393.804688 151.183594 C 394.1875 149.875 394.96875 148.199219 395.960938 146.242188 C 397.9375 142.332031 400.722656 137.28125 402.585938 131.039062 C 406.316406 118.550781 406.1875 101.25 389.355469 78.804688 L 386.652344 75.203125 L 386.652344 79.703125 C 386.652344 93.453125 385.21875 99.996094 382.15625 103.671875 C 379.347656 107.042969 374.601562 108.527344 367.410156 110.890625 C 366.992188 103.359375 364.355469 97.9375 361.828125 92.25 C 359.074219 86.058594 356.417969 79.453125 356.417969 68.625 L 356.417969 67.125 L 354.917969 67.125 C 349.5 67.125 345.234375 70.273438 341.917969 74.542969 C 338.605469 78.8125 336.070312 84.273438 333.808594 89.492188 C 331.546875 94.714844 329.542969 99.714844 327.550781 102.882812 C 326.558594 104.464844 325.5625 105.550781 324.742188 106.027344 C 323.921875 106.503906 323.367188 106.566406 322.351562 106.058594 C 321.238281 105.5 320.683594 104.867188 320.316406 103.996094 C 319.949219 103.121094 319.8125 101.945312 319.890625 100.472656 C 320.050781 97.523438 321.074219 93.527344 321.78125 88.933594 C 323.191406 79.75 323.097656 67.917969 311.664062 56.484375 L 309.949219 54.769531 L 309.179688 57.074219 C 306.503906 65.097656 302.617188 68.949219 298.464844 73.105469 C 295.34375 76.222656 292.074219 79.515625 289.425781 84.601562 C 288.183594 77 284.835938 72.207031 282.101562 67.832031 C 278.6875 62.367188 276.140625 57.566406 278.824219 46.832031 Z M 235.144531 49.289062 C 248.851562 57.136719 250.941406 66.6875 250.941406 74.914062 C 250.941406 79.289062 250.246094 83.226562 250.246094 86.382812 C 250.246094 87.960938 250.390625 89.402344 251.167969 90.652344 C 251.945312 91.898438 253.445312 92.65625 255.152344 92.722656 L 255.210938 92.726562 L 255.269531 92.722656 C 256.976562 92.65625 258.472656 91.898438 259.253906 90.652344 C 260.03125 89.402344 260.171875 87.960938 260.171875 86.382812 C 260.171875 83.226562 259.480469 79.289062 259.480469 74.914062 C 259.480469 66.6875 261.570312 57.136719 275.277344 49.289062 C 273.691406 58.714844 276.394531 64.355469 279.558594 69.421875 C 283.066406 75.035156 286.945312 80.078125 286.945312 90.78125 L 289.871094 91.257812 C 292.542969 83.234375 296.429688 79.378906 300.585938 75.226562 C 304.347656 71.464844 308.3125 67.425781 311.160156 60.324219 C 320.238281 70.433594 320.097656 80.132812 318.816406 88.476562 C 318.136719 92.886719 317.082031 96.851562 316.894531 100.308594 C 316.800781 102.039062 316.925781 103.675781 317.550781 105.160156 C 318.179688 106.648438 319.359375 107.917969 321.011719 108.742188 C 322.765625 109.621094 324.722656 109.511719 326.25 108.621094 C 327.777344 107.734375 328.96875 106.269531 330.09375 104.476562 C 332.34375 100.894531 334.324219 95.851562 336.5625 90.6875 C 338.800781 85.523438 341.285156 80.25 344.289062 76.382812 C 346.945312 72.964844 349.871094 70.707031 353.46875 70.226562 C 353.730469 80.621094 356.4375 87.507812 359.085938 93.46875 C 361.875 99.738281 364.496094 104.964844 364.496094 112.941406 L 364.496094 115.023438 L 366.472656 114.363281 C 374.734375 111.609375 380.597656 110.226562 384.460938 105.589844 C 387.871094 101.5 389.304688 95.300781 389.59375 84.292969 C 403.316406 104.277344 403.027344 119.082031 399.710938 130.179688 C 397.953125 136.0625 395.300781 140.898438 393.28125 144.886719 C 392.273438 146.882812 391.414062 148.660156 390.925781 150.34375 C 390.433594 152.023438 390.296875 153.730469 391.066406 155.25 C 391.863281 156.832031 393.265625 157.929688 394.886719 158.429688 C 396.503906 158.929688 398.324219 158.910156 400.265625 158.542969 C 404.152344 157.8125 408.613281 155.664062 413.089844 152.527344 C 421.199219 146.839844 429.324219 137.863281 432.9375 127.601562 C 437.1875 134.398438 439.5 139.710938 440.4375 143.910156 C 441.507812 148.675781 441.023438 152.136719 440.035156 155.441406 C 438.050781 162.046875 433.667969 168.242188 436.554688 179.777344 L 436.59375 179.9375 L 436.667969 180.082031 C 444.742188 196.230469 448.730469 206.886719 447.988281 217.921875 C 447.246094 228.957031 441.722656 240.710938 430.207031 258.898438 L 430.097656 259.074219 L 430.09375 259.082031 L 429.902344 259.390625 L 429.996094 259.949219 C 431.613281 269.644531 432.457031 279.609375 432.457031 289.777344 C 432.457031 388.65625 352.902344 468.210938 254.023438 468.210938 C 155.144531 468.210938 75.589844 388.65625 75.589844 289.777344 C 75.589844 278.582031 76.613281 267.632812 78.570312 257.019531 L 78.570312 257.011719 L 78.675781 256.457031 L 78.367188 255.957031 C 67.800781 238.933594 62.851562 227.71875 62.382812 217.011719 C 61.914062 206.308594 65.902344 195.789062 73.753906 180.082031 L 73.828125 179.9375 L 73.867188 179.777344 C 76.75 168.242188 72.371094 162.046875 70.386719 155.441406 C 69.394531 152.136719 68.914062 148.675781 69.980469 143.910156 C 70.921875 139.710938 73.234375 134.398438 77.484375 127.601562 C 81.097656 137.863281 89.21875 146.839844 97.332031 152.527344 C 101.804688 155.664062 106.269531 157.8125 110.15625 158.542969 C 112.097656 158.910156 113.914062 158.929688 115.535156 158.429688 C 117.152344 157.929688 118.554688 156.832031 119.355469 155.25 C 120.125 153.730469 119.988281 152.023438 119.496094 150.34375 C 119.003906 148.660156 118.148438 146.882812 117.136719 144.886719 C 115.121094 140.898438 112.46875 136.0625 110.710938 130.179688 C 107.394531 119.082031 107.105469 104.277344 120.828125 84.292969 C 121.113281 95.300781 122.550781 101.5 125.960938 105.589844 C 129.820312 110.226562 135.6875 111.609375 143.949219 114.363281 L 145.925781 115.023438 L 145.925781 112.941406 C 145.925781 104.964844 148.546875 99.738281 151.332031 93.46875 C 153.984375 87.507812 156.6875 80.621094 156.949219 70.226562 C 160.546875 70.707031 163.476562 72.964844 166.132812 76.382812 C 169.136719 80.25 171.621094 85.523438 173.859375 90.6875 C 176.097656 95.851562 178.074219 100.894531 180.328125 104.476562 C 181.453125 106.269531 182.644531 107.734375 184.171875 108.621094 C 185.699219 109.511719 187.65625 109.621094 189.410156 108.742188 C 191.0625 107.917969 192.242188 106.648438 192.867188 105.160156 C 193.496094 103.675781 193.617188 102.039062 193.523438 100.308594 C 193.339844 96.851562 192.285156 92.886719 191.605469 88.476562 C 190.320312 80.132812 190.179688 70.433594 199.261719 60.324219 C 202.105469 67.425781 206.074219 71.464844 209.835938 75.226562 C 213.988281 79.378906 217.875 83.234375 220.550781 91.257812 L 223.472656 90.78125 C 223.472656 80.078125 227.351562 75.035156 230.863281 69.421875 C 234.027344 64.355469 236.726562 58.714844 235.144531 49.289062 Z M 248.082031 147.738281 C 186.316406 147.917969 125.25 184.09375 105.953125 267.703125 L 105.53125 269.542969 L 181.480469 269.542969 L 181.910156 268.792969 C 183.722656 265.648438 186.34375 263.03125 189.488281 261.21875 L 190.238281 260.785156 L 190.238281 256.964844 C 190.238281 227.242188 219.054688 203.070312 255.210938 203.070312 C 291.363281 203.070312 320.183594 227.242188 320.183594 256.964844 L 320.183594 260.785156 L 320.933594 261.21875 C 324.078125 263.03125 326.695312 265.648438 328.507812 268.792969 L 328.941406 269.542969 L 402.417969 269.542969 L 402.109375 267.785156 C 389.929688 197.761719 326.214844 153.050781 260.429688 148.175781 C 256.320312 147.871094 252.199219 147.726562 248.082031 147.738281 Z M 248.089844 150.730469 C 252.128906 150.722656 256.171875 150.871094 260.207031 151.167969 C 324.230469 155.910156 386.128906 199.066406 398.804688 266.542969 L 330.605469 266.542969 C 328.71875 263.539062 326.183594 261.007812 323.183594 259.121094 L 323.183594 256.964844 C 323.183594 225.308594 292.707031 200.070312 255.210938 200.070312 C 217.714844 200.070312 187.238281 225.308594 187.238281 256.964844 L 187.238281 259.121094 C 184.234375 261.007812 181.703125 263.539062 179.8125 266.542969 L 109.339844 266.542969 C 128.832031 185.425781 187.960938 150.851562 248.089844 150.730469 Z M 295.035156 253.859375 C 293.917969 253.882812 292.746094 254.222656 291.460938 254.835938 L 276.921875 261.796875 C 273.058594 263.644531 270.636719 263.5625 268.472656 264.125 C 267.390625 264.40625 266.207031 265.046875 265.578125 266.21875 C 264.945312 267.386719 264.789062 268.792969 264.789062 270.8125 C 264.789062 279.4375 272.941406 286.160156 282.722656 286.160156 L 283.089844 286.160156 C 292.871094 286.160156 301.023438 279.4375 301.023438 270.8125 C 301.023438 267.558594 301.191406 263.632812 300.667969 260.339844 C 300.410156 258.691406 299.992188 257.179688 299.117188 255.9375 C 298.246094 254.699219 296.738281 253.824219 295.035156 253.859375 Z M 216.058594 254.816406 C 214.410156 254.808594 212.945312 255.566406 211.996094 256.695312 C 211.046875 257.824219 210.511719 259.242188 210.144531 260.78125 C 209.417969 263.867188 209.394531 267.5625 209.394531 270.8125 C 209.394531 279.4375 217.546875 286.160156 227.332031 286.160156 L 227.695312 286.160156 C 237.480469 286.160156 245.632812 279.4375 245.632812 270.8125 C 245.632812 268.699219 245.214844 267.0625 244.242188 265.867188 C 243.273438 264.671875 241.910156 264.113281 240.527344 263.75 C 237.757812 263.023438 234.496094 262.875 230.667969 261.023438 L 219.996094 255.871094 C 218.574219 255.183594 217.28125 254.824219 216.058594 254.816406 Z M 78.585938 256.605469 C 78.585938 256.597656 78.59375 256.71875 78.59375 256.71875 C 78.59375 256.71875 78.589844 256.773438 78.585938 256.8125 C 78.585938 256.722656 78.585938 256.613281 78.585938 256.605469 Z M 295.097656 256.859375 C 295.914062 256.84375 296.230469 257.050781 296.667969 257.667969 C 297.101562 258.285156 297.484375 259.402344 297.707031 260.808594 C 298.152344 263.621094 298.023438 267.46875 298.023438 270.8125 C 298.023438 277.527344 291.515625 283.160156 283.089844 283.160156 L 282.722656 283.160156 C 274.296875 283.160156 267.789062 277.527344 267.789062 270.8125 C 267.789062 268.992188 268.015625 268.015625 268.21875 267.644531 C 268.417969 267.269531 268.515625 267.214844 269.226562 267.027344 C 270.648438 266.660156 273.871094 266.582031 278.21875 264.5 L 292.757812 257.542969 C 293.78125 257.054688 294.5625 256.871094 295.097656 256.859375 Z M 216.046875 257.816406 C 216.667969 257.820312 217.550781 258.019531 218.691406 258.570312 L 229.363281 263.726562 C 233.730469 265.835938 237.527344 266.066406 239.769531 266.652344 C 240.886719 266.945312 241.519531 267.273438 241.914062 267.757812 C 242.308594 268.246094 242.632812 269.085938 242.632812 270.8125 C 242.632812 277.527344 236.121094 283.160156 227.695312 283.160156 L 227.332031 283.160156 C 218.90625 283.160156 212.394531 277.527344 212.394531 270.8125 C 212.394531 267.589844 212.460938 264.023438 213.066406 261.472656 C 213.367188 260.199219 213.808594 259.203125 214.292969 258.628906 C 214.777344 258.050781 215.203125 257.8125 216.046875 257.816406 Z M 430.03125 259.339844 C 430.019531 259.421875 430 259.601562 429.988281 259.695312 C 429.996094 259.574219 430.007812 259.398438 430.007812 259.398438 C 430.007812 259.398438 430.023438 259.351562 430.03125 259.339844 Z M 429.980469 259.796875 C 429.984375 259.828125 430.011719 260.03125 430.015625 260.050781 C 430.019531 260.0625 430.007812 260.015625 430.007812 260.015625 C 430.007812 260.015625 429.980469 259.808594 429.980469 259.808594 C 429.980469 259.808594 429.980469 259.796875 429.980469 259.796875 Z M 104.660156 299.777344 L 104.785156 301.390625 C 109.84375 367.929688 158.058594 422.058594 221.652344 435.976562 L 223.472656 436.375 L 223.472656 384.367188 C 223.472656 382.105469 225.25 380.328125 227.515625 380.328125 C 229.777344 380.328125 231.550781 382.105469 231.550781 384.367188 L 231.550781 389.90625 L 234.554688 389.90625 C 234.554688 387.644531 236.328125 385.867188 238.59375 385.867188 C 240.855469 385.867188 242.632812 387.644531 242.632812 389.90625 L 242.632812 395.445312 L 245.632812 395.445312 C 245.632812 393.183594 247.40625 391.40625 249.671875 391.40625 C 251.933594 391.40625 253.710938 393.183594 253.710938 395.445312 L 256.710938 395.445312 C 256.710938 393.183594 258.484375 391.40625 260.75 391.40625 C 263.011719 391.40625 264.789062 393.183594 264.789062 395.445312 L 267.789062 395.445312 L 267.789062 389.90625 C 267.789062 387.644531 269.566406 385.867188 271.828125 385.867188 C 274.09375 385.867188 275.867188 387.644531 275.867188 389.90625 L 278.867188 389.90625 L 278.867188 384.367188 C 278.867188 382.105469 280.644531 380.328125 282.90625 380.328125 C 285.171875 380.328125 286.945312 382.105469 286.945312 384.367188 L 286.945312 435.863281 L 288.789062 435.429688 C 351.199219 420.691406 398.265625 367.09375 403.265625 301.390625 L 403.386719 299.777344 L 331.25 299.777344 L 330.976562 300.929688 C 329.652344 306.46875 323.710938 310.855469 316.324219 310.855469 L 315.960938 310.855469 C 313.8125 310.855469 311.785156 310.484375 309.953125 309.820312 L 308.972656 309.464844 L 308.296875 310.257812 C 302.917969 316.570312 295.925781 321.890625 287.796875 325.792969 L 286.945312 326.203125 L 286.945312 345.59375 C 286.945312 347.855469 285.171875 349.632812 282.90625 349.632812 C 280.644531 349.632812 278.867188 347.855469 278.867188 345.59375 L 275.867188 345.59375 L 275.867188 351.132812 C 275.867188 353.394531 274.09375 355.171875 271.828125 355.171875 C 269.566406 355.171875 267.789062 353.394531 267.789062 351.132812 L 264.789062 351.132812 L 264.789062 356.671875 C 264.789062 358.933594 263.011719 360.710938 260.75 360.710938 C 258.484375 360.710938 256.710938 358.933594 256.710938 356.671875 L 253.710938 356.671875 C 253.710938 358.933594 251.933594 360.710938 249.671875 360.710938 C 247.40625 360.710938 245.632812 358.933594 245.632812 356.671875 L 245.632812 351.132812 L 242.632812 351.132812 C 242.632812 353.394531 240.855469 355.171875 238.59375 355.171875 C 236.328125 355.171875 234.554688 353.394531 234.554688 351.132812 L 234.554688 345.59375 L 231.550781 345.59375 C 231.550781 347.855469 229.777344 349.632812 227.515625 349.632812 C 225.25 349.632812 223.472656 347.855469 223.472656 345.59375 L 223.472656 326.203125 L 222.625 325.792969 C 214.492188 321.890625 207.503906 316.570312 202.121094 310.257812 L 201.449219 309.464844 L 200.46875 309.820312 C 198.636719 310.484375 196.605469 310.855469 194.460938 310.855469 L 194.09375 310.855469 C 186.710938 310.855469 180.769531 306.46875 179.445312 300.929688 L 179.171875 299.777344 Z M 107.929688 302.777344 L 176.863281 302.777344 C 179.042969 309.300781 185.992188 313.855469 194.09375 313.855469 L 194.460938 313.855469 C 196.585938 313.855469 198.617188 313.527344 200.511719 312.949219 C 205.890625 319.046875 212.675781 324.191406 220.472656 328.066406 L 220.472656 345.59375 C 220.472656 349.46875 223.640625 352.632812 227.515625 352.632812 C 229.027344 352.632812 230.421875 352.140625 231.570312 351.320312 C 231.675781 355.105469 234.78125 358.171875 238.59375 358.171875 C 240.105469 358.171875 241.5 357.679688 242.648438 356.859375 C 242.753906 360.644531 245.863281 363.710938 249.671875 363.710938 C 251.925781 363.710938 253.921875 362.617188 255.210938 360.957031 C 256.5 362.617188 258.492188 363.710938 260.75 363.710938 C 264.558594 363.710938 267.667969 360.644531 267.769531 356.859375 C 268.921875 357.675781 270.316406 358.171875 271.828125 358.171875 C 275.636719 358.171875 278.746094 355.105469 278.847656 351.320312 C 280 352.140625 281.394531 352.632812 282.90625 352.632812 C 286.78125 352.632812 289.945312 349.464844 289.945312 345.59375 L 289.945312 328.066406 C 297.746094 324.191406 304.53125 319.046875 309.910156 312.949219 C 311.804688 313.527344 313.835938 313.855469 315.960938 313.855469 L 316.324219 313.855469 C 324.429688 313.855469 331.378906 309.300781 333.554688 302.777344 L 400.117188 302.777344 C 394.632812 365.789062 349.664062 417.105469 289.945312 432.035156 L 289.945312 384.367188 C 289.945312 380.496094 286.78125 377.328125 282.90625 377.328125 C 279.097656 377.328125 275.988281 380.394531 275.886719 384.179688 C 274.738281 383.363281 273.339844 382.867188 271.828125 382.867188 C 268.019531 382.867188 264.910156 385.933594 264.808594 389.71875 C 263.65625 388.902344 262.261719 388.40625 260.75 388.40625 C 258.492188 388.40625 256.5 389.5 255.210938 391.160156 C 253.921875 389.5 251.925781 388.40625 249.671875 388.40625 C 248.160156 388.40625 246.761719 388.902344 245.613281 389.71875 C 245.511719 385.933594 242.402344 382.867188 238.59375 382.867188 C 237.078125 382.867188 235.683594 383.363281 234.535156 384.179688 C 234.429688 380.394531 231.324219 377.328125 227.515625 377.328125 C 223.640625 377.328125 220.472656 380.496094 220.472656 384.367188 L 220.472656 432.605469 C 159.578125 418.457031 113.488281 366.621094 107.929688 302.777344 Z M 107.929688 302.777344 "/>
</g>
</svg>
