<svg xmlns="http://www.w3.org/2000/svg" width="512pt" height="512pt" viewBox="0 0 512 512"><defs><radialGradient id="a" gradientUnits="userSpaceOnUse" cx="450.909" cy="189.579" fx="450.909" fy="189.579" r="21.167" gradientTransform="matrix(0 -1.25012 -2.25021 0 812.922 1017.525)"><stop offset="0" stop-opacity=".314"/><stop offset=".222" stop-opacity=".275"/><stop offset="1" stop-opacity="0"/></radialGradient><radialGradient id="b" gradientUnits="userSpaceOnUse" cx="450.909" cy="189.579" fx="450.909" fy="189.579" r="21.167" gradientTransform="matrix(0 1.25012 2.25021 0 -304.873 -120.44)"><stop offset="0" stop-opacity=".314"/><stop offset=".222" stop-opacity=".275"/><stop offset="1" stop-opacity="0"/></radialGradient><radialGradient id="c" gradientUnits="userSpaceOnUse" cx="450.909" cy="189.579" fx="450.909" fy="189.579" r="21.167" gradientTransform="matrix(0 -1.25012 2.25021 0 -304.873 1017.525)"><stop offset="0" stop-opacity=".314"/><stop offset=".222" stop-opacity=".275"/><stop offset="1" stop-opacity="0"/></radialGradient><radialGradient id="d" gradientUnits="userSpaceOnUse" cx="450.909" cy="189.579" fx="450.909" fy="189.579" r="21.167" gradientTransform="matrix(0 1.25012 -2.25021 0 812.922 -120.44)"><stop offset="0" stop-opacity=".314"/><stop offset=".222" stop-opacity=".275"/><stop offset="1" stop-opacity="0"/></radialGradient><linearGradient id="e" gradientUnits="userSpaceOnUse" x1="254" y1="233.5" x2="254" y2="254.667" gradientTransform="matrix(1.23821 0 0 1.0001 -53.93 215.02)"><stop offset="0" stop-opacity=".275"/><stop offset="1" stop-opacity="0"/></linearGradient><linearGradient id="f" gradientUnits="userSpaceOnUse" x1="960" y1="1695.118" x2="960" y2="175.118" gradientTransform="rotate(.158) scale(.26461)"><stop offset="0" stop-color="#424242"/><stop offset="1" stop-color="#616161"/></linearGradient><linearGradient id="g" gradientUnits="userSpaceOnUse" x1="960" y1="335.118" x2="960" y2="1055.118"><stop offset="0" stop-color="#bdbdbd"/><stop offset="1" stop-color="#eee"/></linearGradient><linearGradient id="h" gradientUnits="userSpaceOnUse" x1="254" y1="64.167" x2="254" y2="127.667"><stop offset="0" stop-color="#bdbdbd"/><stop offset="1" stop-color="#eee"/></linearGradient><linearGradient id="i" gradientUnits="userSpaceOnUse" x1="960" y1="1375.118" x2="960" y2="1615.118"><stop offset="0" stop-color="#bdbdbd"/><stop offset="1" stop-color="#eee"/></linearGradient></defs><path d="M391.621 448.543h42.336v-21.168h-42.336zm0 0" fill="url(#a)"/><path d="M116.43 448.543H74.09v21.168h42.34zm0 0" fill="url(#b)"/><path d="M116.43 448.543H74.09v-21.168h42.34zm0 0" fill="url(#c)"/><path d="M391.621 448.543h42.336v21.168h-42.336zm0 0" fill="url(#d)"/><path d="M116.43 448.543H391.62v21.168H116.43zm0 0" fill="url(#e)"/><path d="M253.172 46.336c-58.164 0-104.992 47.207-104.992 105.844v63.507h-42.336a21.122 21.122 0 0 0-21.168 21.168v190.52a21.122 21.122 0 0 0 21.168 21.168h296.36a21.123 21.123 0 0 0 21.171-21.168v-190.52a21.123 21.123 0 0 0-21.172-21.167h-42.336V152.18c0-58.637-46.824-105.844-104.988-105.844zm0 0" fill="url(#f)"/><path d="M959.997 335.12c-132.95 0-239.992 107.043-239.992 239.992 0 132.965 107.042 240.007 239.992 240.007 32.123 0 62.725-6.26 90.67-17.611 39.313 138.5-79.495 212.77-9.89 212.77 188.382-72.35 159.227-415.163 159.227-436.39 0-.385-.03-.71-.03-1.078-1.24-131.888-107.78-237.69-239.977-237.69zm0 0" transform="rotate(.158) scale(.26461)" fill="url(#g)" stroke-width="11.339" stroke="#212121"/><path d="M254 64.165c17.537 0 31.75 14.026 31.75 31.325v.851c0 17.303-14.213 31.325-31.75 31.325-17.534 0-31.752-14.022-31.752-31.325v-.851c0-17.3 14.218-31.325 31.751-31.325zm0 0" transform="matrix(1.0001 0 0 1.0001 0 215.02)" fill="url(#h)" stroke-width="3" stroke="#212121"/><path d="M843.448 1324.923c-50.59 28.978-83.452 76.41-83.452 130.19v80.011c0 44.317 35.681 79.997 79.998 79.997H1080c44.317 0 79.998-35.68 79.998-79.997v-80.012c0-53.78-32.847-101.21-83.437-130.19-29.141 30.943-70.52 50.193-116.564 50.193s-87.423-19.25-116.549-50.192zm0 0" transform="rotate(.158) scale(.26461)" fill="url(#i)" stroke-width="11.339" stroke="#212121"/><path d="M253.172 46.336c-58.164 0-104.992 47.207-104.992 105.844v5.293c0-58.637 46.828-105.844 104.992-105.844h1.707c58.164 0 104.988 47.207 104.988 105.844v-5.293c0-58.637-46.824-105.844-104.988-105.844zM105.844 215.687a21.122 21.122 0 0 0-21.168 21.168v5.293a21.122 21.122 0 0 1 21.168-21.168h42.336v-5.292zm254.023 0v5.293h42.336a21.123 21.123 0 0 1 21.172 21.168v-5.293a21.123 21.123 0 0 0-21.172-21.167zm0 0" fill="#fff" fill-opacity=".392"/><path d="M84.676 422.082v5.293a21.122 21.122 0 0 0 21.168 21.168h296.36a21.123 21.123 0 0 0 21.171-21.168v-5.293a21.123 21.123 0 0 1-21.172 21.168h-296.36a21.122 21.122 0 0 1-21.167-21.168zm0 0" fill-opacity=".235"/><path d="M253.172 44.836c-58.977 0-106.492 47.91-106.492 107.344v62.007h-40.836c-12.531 0-22.668 10.137-22.668 22.668v190.52c0 12.531 10.136 22.668 22.668 22.668h296.36c12.534 0 22.671-10.137 22.671-22.668v-190.52c0-12.53-10.137-22.667-22.672-22.667h-40.836V152.18c0-59.434-47.512-107.344-106.488-107.344zm0 3h1.707c57.351 0 103.488 46.508 103.488 104.344v65.007h43.836a19.593 19.593 0 0 1 19.672 19.668v190.52a19.593 19.593 0 0 1-19.672 19.668h-296.36a19.592 19.592 0 0 1-19.667-19.668v-190.52a19.592 19.592 0 0 1 19.668-19.667h43.836V152.18c0-57.836 46.136-104.344 103.492-104.344zm0 0" fill="#212121"/></svg>