<?xml version="1.0" encoding="UTF-8"?>
<svg xmlns="http://www.w3.org/2000/svg" xmlns:xlink="http://www.w3.org/1999/xlink" width="48px" height="48px" viewBox="0 0 48 48" version="1.1">
<defs>
<linearGradient id="linear0" gradientUnits="userSpaceOnUse" x1="254" y1="233.5" x2="254" y2="254.666672" gradientTransform="matrix(0.093759,0,0,0.093759,-0.00000572259,20.158181)">
<stop offset="0" style="stop-color:rgb(0%,0%,0%);stop-opacity:0.27451;"/>
<stop offset="1" style="stop-color:rgb(0%,0%,0%);stop-opacity:0;"/>
</linearGradient>
<radialGradient id="radial0" gradientUnits="userSpaceOnUse" cx="450.908936" cy="189.579361" fx="450.908936" fy="189.579361" r="21.166656" gradientTransform="matrix(0.000000261256,-0.117199,-0.210958,-0.000000152308,81.172819,95.393002)">
<stop offset="0" style="stop-color:rgb(0%,0%,0%);stop-opacity:0.313726;"/>
<stop offset="0.222222" style="stop-color:rgb(0%,0%,0%);stop-opacity:0.27451;"/>
<stop offset="1" style="stop-color:rgb(0%,0%,0%);stop-opacity:0;"/>
</radialGradient>
<radialGradient id="radial1" gradientUnits="userSpaceOnUse" cx="450.908936" cy="189.579361" fx="450.908936" fy="189.579361" r="21.166656" gradientTransform="matrix(-0.000000261256,0.117199,0.210958,0.000000152308,-33.543267,-11.291215)">
<stop offset="0" style="stop-color:rgb(0%,0%,0%);stop-opacity:0.313726;"/>
<stop offset="0.222222" style="stop-color:rgb(0%,0%,0%);stop-opacity:0.27451;"/>
<stop offset="1" style="stop-color:rgb(0%,0%,0%);stop-opacity:0;"/>
</radialGradient>
<radialGradient id="radial2" gradientUnits="userSpaceOnUse" cx="450.908936" cy="189.579361" fx="450.908936" fy="189.579361" r="21.166656" gradientTransform="matrix(-0.000000261256,-0.117199,0.210958,-0.000000152308,-33.543267,95.393002)">
<stop offset="0" style="stop-color:rgb(0%,0%,0%);stop-opacity:0.313726;"/>
<stop offset="0.222222" style="stop-color:rgb(0%,0%,0%);stop-opacity:0.27451;"/>
<stop offset="1" style="stop-color:rgb(0%,0%,0%);stop-opacity:0;"/>
</radialGradient>
<radialGradient id="radial3" gradientUnits="userSpaceOnUse" cx="450.908936" cy="189.579361" fx="450.908936" fy="189.579361" r="21.166656" gradientTransform="matrix(0.000000261256,0.117199,-0.210958,0.000000152308,81.172816,-11.291216)">
<stop offset="0" style="stop-color:rgb(0%,0%,0%);stop-opacity:0.313726;"/>
<stop offset="0.222222" style="stop-color:rgb(0%,0%,0%);stop-opacity:0.27451;"/>
<stop offset="1" style="stop-color:rgb(0%,0%,0%);stop-opacity:0;"/>
</radialGradient>
<linearGradient id="linear1" gradientUnits="userSpaceOnUse" x1="254" y1="-147.5" x2="254" y2="-31.083334" gradientTransform="matrix(0.093759,0,0,0.093759,0.00000187463,20.158172)">
<stop offset="0" style="stop-color:rgb(64.313728%,64.313728%,64.313728%);stop-opacity:0;"/>
<stop offset="1" style="stop-color:rgb(100%,100%,100%);stop-opacity:0.196078;"/>
</linearGradient>
<linearGradient id="linear2" gradientUnits="userSpaceOnUse" x1="254" y1="233.5" x2="254" y2="-105.166656" gradientTransform="matrix(0.093759,0,0,0.093759,-0.00000271859,20.158175)">
<stop offset="0" style="stop-color:rgb(34.509805%,34.509805%,34.509805%);stop-opacity:0;"/>
<stop offset="1" style="stop-color:rgb(98.039216%,98.039216%,98.039216%);stop-opacity:0.196078;"/>
</linearGradient>
</defs>
<g id="surface1">
<path style=" stroke:none;fill-rule:nonzero;fill:url(#linear0);" d="M 5.953125 42.050781 L 41.675781 42.050781 L 41.675781 44.035156 L 5.953125 44.035156 Z M 5.953125 42.050781 "/>
<path style=" stroke:none;fill-rule:nonzero;fill:url(#radial0);" d="M 41.675781 42.050781 L 45.644531 42.050781 L 45.644531 40.066406 L 41.675781 40.066406 Z M 41.675781 42.050781 "/>
<path style=" stroke:none;fill-rule:nonzero;fill:url(#radial1);" d="M 5.953125 42.050781 L 1.984375 42.050781 L 1.984375 44.035156 L 5.953125 44.035156 Z M 5.953125 42.050781 "/>
<path style=" stroke:none;fill-rule:nonzero;fill:url(#radial2);" d="M 5.953125 42.050781 L 1.984375 42.050781 L 1.984375 40.066406 L 5.953125 40.066406 Z M 5.953125 42.050781 "/>
<path style=" stroke:none;fill-rule:nonzero;fill:url(#radial3);" d="M 41.675781 42.050781 L 45.644531 42.050781 L 45.644531 44.035156 L 41.675781 44.035156 Z M 41.675781 42.050781 "/>
<path style=" stroke:none;fill-rule:nonzero;fill:rgb(24.705882%,31.764707%,70.980394%);fill-opacity:1;" d="M 10.914062 6.328125 L 43.164062 6.328125 C 44.261719 6.328125 45.148438 7.21875 45.148438 8.3125 L 45.148438 15.753906 C 45.148438 16.851562 44.261719 17.738281 43.164062 17.738281 L 10.914062 17.738281 C 9.820312 17.738281 8.929688 16.851562 8.929688 15.753906 L 8.929688 8.3125 C 8.929688 7.21875 9.820312 6.328125 10.914062 6.328125 Z M 10.914062 6.328125 "/>
<path style=" stroke:none;fill-rule:nonzero;fill:url(#linear1);" d="M 10.914062 6.328125 L 43.164062 6.328125 C 44.261719 6.328125 45.148438 7.21875 45.148438 8.3125 L 45.148438 15.753906 C 45.148438 16.851562 44.261719 17.738281 43.164062 17.738281 L 10.914062 17.738281 C 9.820312 17.738281 8.929688 16.851562 8.929688 15.753906 L 8.929688 8.3125 C 8.929688 7.21875 9.820312 6.328125 10.914062 6.328125 Z M 10.914062 6.328125 "/>
<path style=" stroke:none;fill-rule:nonzero;fill:rgb(90.196079%,90.196079%,90.196079%);fill-opacity:0.392157;" d="M 10.914062 6.460938 C 9.816406 6.460938 8.929688 7.34375 8.929688 8.445312 L 8.929688 8.691406 C 8.929688 7.59375 9.816406 6.707031 10.914062 6.707031 L 43.164062 6.707031 C 44.265625 6.707031 45.148438 7.59375 45.148438 8.691406 L 45.148438 8.445312 C 45.148438 7.34375 44.265625 6.460938 43.164062 6.460938 Z M 10.914062 6.460938 "/>
<path style=" stroke:none;fill-rule:nonzero;fill:rgb(12.941177%,12.941177%,12.941177%);fill-opacity:1;" d="M 10.914062 6.1875 C 9.738281 6.1875 8.789062 7.136719 8.789062 8.3125 L 8.789062 15.753906 C 8.789062 16.929688 9.738281 17.878906 10.914062 17.878906 L 43.164062 17.878906 C 44.339844 17.878906 45.289062 16.929688 45.289062 15.753906 L 45.289062 8.3125 C 45.289062 7.136719 44.339844 6.1875 43.164062 6.1875 Z M 10.914062 6.46875 L 43.164062 6.46875 C 44.1875 6.46875 45.007812 7.289062 45.007812 8.3125 L 45.007812 15.753906 C 45.007812 16.78125 44.1875 17.597656 43.164062 17.597656 L 10.914062 17.597656 C 9.890625 17.597656 9.070312 16.78125 9.070312 15.753906 L 9.070312 8.3125 C 9.070312 7.289062 9.890625 6.46875 10.914062 6.46875 Z M 10.914062 6.46875 "/>
<path style=" stroke:none;fill-rule:nonzero;fill:rgb(36.078432%,41.960785%,75.294119%);fill-opacity:1;" d="M 3.96875 10.296875 C 2.871094 10.296875 1.984375 11.183594 1.984375 12.28125 L 1.984375 40.066406 C 1.984375 41.164062 2.871094 42.050781 3.96875 42.050781 L 43.660156 42.050781 C 44.761719 42.050781 45.644531 41.164062 45.644531 40.066406 L 45.644531 15.257812 L 18.851562 15.257812 C 17.753906 15.257812 16.867188 14.375 16.867188 13.273438 L 16.867188 10.296875 Z M 3.96875 10.296875 "/>
<path style=" stroke:none;fill-rule:nonzero;fill:url(#linear2);" d="M 3.96875 10.296875 C 2.871094 10.296875 1.984375 11.183594 1.984375 12.28125 L 1.984375 40.066406 C 1.984375 41.164062 2.871094 42.050781 3.96875 42.050781 L 43.660156 42.050781 C 44.761719 42.050781 45.644531 41.164062 45.644531 40.066406 L 45.644531 15.257812 L 18.851562 15.257812 C 17.753906 15.257812 16.867188 14.375 16.867188 13.273438 L 16.867188 10.296875 Z M 3.96875 10.296875 "/>
<path style=" stroke:none;fill-rule:nonzero;fill:rgb(0%,0%,0%);fill-opacity:0.196078;" d="M 3.96875 42.050781 C 2.871094 42.050781 1.984375 41.164062 1.984375 40.066406 L 1.984375 39.816406 C 1.984375 40.917969 2.871094 41.804688 3.96875 41.804688 L 43.660156 41.804688 C 44.761719 41.804688 45.644531 40.917969 45.644531 39.816406 L 45.644531 40.066406 C 45.644531 41.164062 44.761719 42.050781 43.660156 42.050781 Z M 3.96875 42.050781 "/>
<path style=" stroke:none;fill-rule:nonzero;fill:rgb(90.196079%,90.196079%,90.196079%);fill-opacity:0.392157;" d="M 3.96875 10.421875 C 2.871094 10.421875 1.984375 11.308594 1.984375 12.40625 L 1.984375 12.65625 C 1.984375 11.554688 2.871094 10.671875 3.96875 10.671875 L 16.867188 10.671875 L 16.867188 10.421875 Z M 3.96875 10.421875 "/>
<path style=" stroke:none;fill-rule:nonzero;fill:rgb(90.196079%,90.196079%,90.196079%);fill-opacity:0.392157;" d="M 18.730469 15.507812 C 17.628906 15.507812 16.746094 14.621094 16.746094 13.523438 L 16.746094 13.273438 C 16.746094 14.375 17.628906 15.261719 18.730469 15.257812 L 45.644531 15.257812 L 45.644531 15.507812 Z M 18.730469 15.507812 "/>
<path style=" stroke:none;fill-rule:nonzero;fill:rgb(12.941177%,12.941177%,12.941177%);fill-opacity:1;" d="M 3.96875 10.15625 C 2.792969 10.15625 1.84375 11.109375 1.84375 12.28125 L 1.84375 40.066406 C 1.84375 41.242188 2.792969 42.191406 3.96875 42.191406 L 43.660156 42.191406 C 44.835938 42.191406 45.785156 41.242188 45.785156 40.066406 L 45.785156 14.976562 L 18.851562 14.976562 C 17.828125 14.976562 17.007812 14.15625 17.007812 13.132812 L 17.007812 10.15625 Z M 3.96875 10.4375 L 16.726562 10.4375 L 16.726562 13.132812 C 16.726562 14.308594 17.679688 15.257812 18.851562 15.257812 L 45.503906 15.257812 L 45.503906 40.066406 C 45.503906 41.089844 44.683594 41.910156 43.660156 41.910156 L 3.96875 41.910156 C 2.945312 41.910156 2.125 41.089844 2.125 40.066406 L 2.125 12.28125 C 2.125 11.257812 2.945312 10.4375 3.96875 10.4375 Z M 3.96875 10.4375 "/>
<path style=" stroke:none;fill-rule:nonzero;fill:rgb(22.352941%,28.627452%,67.058825%);fill-opacity:1;" d="M 17.859375 19.191406 C 17.292969 19.191406 16.832031 19.652344 16.832031 20.21875 L 16.832031 32.625 C 16.832031 33.191406 17.292969 33.652344 17.859375 33.652344 C 19.03125 33.652344 20.207031 33.773438 21.160156 33.996094 C 22.113281 34.222656 22.832031 34.585938 23.085938 34.839844 C 23.488281 35.242188 24.140625 35.242188 24.542969 34.839844 C 24.796875 34.585938 25.515625 34.222656 26.46875 33.996094 C 27.421875 33.773438 28.597656 33.652344 29.769531 33.652344 C 30.335938 33.652344 30.796875 33.191406 30.796875 32.625 L 30.796875 20.21875 C 30.796875 19.652344 30.335938 19.191406 29.769531 19.191406 C 27.339844 19.191406 25.082031 19.996094 23.816406 20.570312 C 22.546875 19.996094 20.289062 19.191406 17.859375 19.191406 Z M 17.859375 19.191406 "/>
<path style=" stroke:none;fill-rule:nonzero;fill:rgb(0%,0%,0%);fill-opacity:0.235294;" d="M 17.859375 19.292969 C 17.292969 19.292969 16.832031 19.753906 16.832031 20.324219 L 16.832031 20.59375 C 16.832031 20.023438 17.292969 19.5625 17.859375 19.5625 C 20.289062 19.5625 22.546875 20.371094 23.816406 20.941406 C 25.082031 20.371094 27.339844 19.5625 29.769531 19.5625 C 30.335938 19.5625 30.796875 20.023438 30.796875 20.59375 L 30.796875 20.324219 C 30.796875 19.753906 30.335938 19.292969 29.769531 19.292969 C 27.339844 19.292969 25.082031 20.097656 23.816406 20.671875 C 22.546875 20.097656 20.289062 19.292969 17.859375 19.292969 Z M 17.859375 19.292969 "/>
<path style=" stroke:none;fill-rule:nonzero;fill:rgb(100%,100%,100%);fill-opacity:0.392157;" d="M 16.832031 32.773438 L 16.832031 33.011719 C 16.832031 33.582031 17.292969 34.042969 17.859375 34.042969 C 19.03125 34.042969 20.207031 34.160156 21.160156 34.386719 C 22.113281 34.609375 22.832031 34.976562 23.085938 35.230469 C 23.488281 35.628906 24.140625 35.628906 24.542969 35.230469 C 24.796875 34.976562 25.515625 34.609375 26.46875 34.386719 C 27.421875 34.160156 28.597656 34.042969 29.769531 34.042969 C 30.335938 34.042969 30.796875 33.582031 30.796875 33.011719 L 30.796875 32.773438 C 30.796875 33.34375 30.335938 33.804688 29.769531 33.804688 C 28.597656 33.804688 27.421875 33.925781 26.46875 34.148438 C 25.515625 34.371094 24.796875 34.738281 24.542969 34.992188 C 24.140625 35.390625 23.488281 35.390625 23.085938 34.992188 C 22.832031 34.738281 22.113281 34.371094 21.160156 34.148438 C 20.207031 33.925781 19.03125 33.804688 17.859375 33.804688 C 17.292969 33.804688 16.832031 33.34375 16.832031 32.773438 Z M 16.832031 32.773438 "/>
<path style="fill:none;stroke-width:3;stroke-linecap:round;stroke-linejoin:round;stroke:rgb(12.941177%,12.941177%,12.941177%);stroke-opacity:1;stroke-miterlimit:4;" d="M 190.48181 -10.311213 C 184.44072 -10.311213 179.524523 -5.395016 179.524523 0.646073 L 179.524523 132.966771 C 179.524523 139.007861 184.44072 143.924058 190.48181 143.924058 C 202.980616 143.924058 215.521085 145.215601 225.686781 147.590374 C 235.852477 150.00681 243.518412 153.88144 246.226487 156.589515 C 250.517743 160.880772 257.475412 160.880772 261.766669 156.589515 C 264.474744 153.88144 272.140679 150.00681 282.306374 147.590374 C 292.47207 145.215601 305.012539 143.924058 317.511346 143.924058 C 323.552436 143.924058 328.468633 139.007861 328.468633 132.966771 L 328.468633 0.646073 C 328.468633 -5.395016 323.552436 -10.311213 317.511346 -10.311213 C 291.597154 -10.311213 267.51612 -1.7287 254.017409 4.395715 C 240.477036 -1.7287 216.396002 -10.311213 190.48181 -10.311213 Z M 190.48181 -10.311213 " transform="matrix(0.093759,0,0,0.093759,0,20.158175)"/>
</g>
</svg>
