
<svg xmlns="http://www.w3.org/2000/svg" xmlns:xlink="http://www.w3.org/1999/xlink" width="24px" height="24px" viewBox="0 0 24 24" version="1.1">
<g id="surface1">
<path style=" stroke:none;fill-rule:nonzero;fill:rgb(93.333334%,93.333334%,93.333334%);fill-opacity:1;" d="M 11.90625 2.667969 C 6.6875 2.667969 2.480469 6.875 2.480469 12.09375 C 2.480469 17.316406 6.6875 21.523438 11.90625 21.523438 C 17.128906 21.523438 21.335938 17.316406 21.335938 12.09375 C 21.335938 6.875 17.128906 2.667969 11.90625 2.667969 Z M 11.90625 4.652344 C 16.03125 4.652344 19.351562 7.972656 19.351562 12.09375 C 19.351562 16.21875 16.03125 19.539062 11.90625 19.539062 C 7.785156 19.539062 4.464844 16.21875 4.464844 12.09375 C 4.464844 7.972656 7.785156 4.652344 11.90625 4.652344 Z M 11.90625 4.652344 "/>
<path style=" stroke:none;fill-rule:nonzero;fill:rgb(93.333334%,93.333334%,93.333334%);fill-opacity:1;" d="M 20.136719 4.445312 C 20.523438 4.835938 20.523438 5.460938 20.136719 5.851562 L 19.4375 6.554688 C 19.046875 6.9375 18.417969 6.9375 18.03125 6.554688 C 17.644531 6.164062 17.644531 5.539062 18.03125 5.148438 L 18.734375 4.445312 C 19.121094 4.0625 19.75 4.0625 20.136719 4.445312 Z M 20.136719 4.445312 "/>
<path style=" stroke:none;fill-rule:nonzero;fill:rgb(93.333334%,93.333334%,93.333334%);fill-opacity:1;" d="M 3.765625 4.445312 C 3.375 4.835938 3.375 5.460938 3.765625 5.851562 L 4.464844 6.554688 C 4.851562 6.9375 5.480469 6.9375 5.867188 6.554688 C 6.257812 6.164062 6.257812 5.539062 5.867188 5.148438 L 5.164062 4.445312 C 4.78125 4.0625 4.148438 4.0625 3.765625 4.445312 Z M 3.765625 4.445312 "/>
<path style=" stroke:none;fill-rule:nonzero;fill:rgb(93.333334%,93.333334%,93.333334%);fill-opacity:1;" d="M 11.90625 6.140625 C 12.453125 6.140625 12.898438 6.585938 12.898438 7.132812 L 12.898438 12.09375 C 12.898438 12.640625 12.453125 13.085938 11.90625 13.085938 C 11.359375 13.085938 10.914062 12.640625 10.914062 12.09375 L 10.914062 7.132812 C 10.914062 6.585938 11.359375 6.140625 11.90625 6.140625 Z M 11.90625 6.140625 "/>
<path style=" stroke:none;fill-rule:nonzero;fill:rgb(93.333334%,93.333334%,93.333334%);fill-opacity:1;" d="M 17.644531 13.617188 C 17.5 14.148438 16.957031 14.460938 16.429688 14.320312 L 11.636719 13.035156 C 11.109375 12.890625 10.792969 12.347656 10.933594 11.820312 C 11.078125 11.289062 11.621094 10.976562 12.148438 11.117188 L 16.941406 12.402344 C 17.46875 12.542969 17.785156 13.085938 17.644531 13.617188 Z M 17.644531 13.617188 "/>
</g>
</svg>
