<svg xmlns="http://www.w3.org/2000/svg" width="32" height="32" viewBox="0 0 24 24"><path d="M8.043 3.148a4.236 4.236 0 0 0-4.242 4.243c0 .71.176 1.382.48 1.968a8.084 8.084 0 0 0-.48 2.746 7.997 7.997 0 0 0 9.035 7.95 4.234 4.234 0 0 0 2.75 1.008 4.231 4.231 0 0 0 4.242-4.243c0-.71-.172-1.379-.48-1.968a7.99 7.99 0 0 0 .48-2.747 7.995 7.995 0 0 0-8.012-8.011c-.347 0-.687.02-1.023.062a4.218 4.218 0 0 0-2.75-1.008zm4.848 5.47c.265 0 .52.105.707.296l2.48 2.484a.983.983 0 0 1 0 1.395l-2.48 2.48a.99.99 0 0 1-1.664-.437.98.98 0 0 1 .27-.957l.792-.797H8.434a.988.988 0 1 1 0-1.977h4.562l-.793-.793a.99.99 0 0 1-.23-1.078.99.99 0 0 1 .918-.617zm0 0" fill="#bdbdbd"/></svg>