<svg xmlns="http://www.w3.org/2000/svg" width="32" height="32" viewBox="0 0 24 24"><defs><radialGradient id="a" gradientUnits="userSpaceOnUse" cx="450.909" cy="189.579" fx="450.909" fy="189.579" r="21.167" gradientTransform="matrix(0 -.0586 -.10548 0 23.221 47.696)"><stop offset="0" stop-opacity=".314"/><stop offset=".222" stop-opacity=".275"/><stop offset="1" stop-opacity="0"/></radialGradient><radialGradient id="b" gradientUnits="userSpaceOnUse" cx="450.909" cy="189.579" fx="450.909" fy="189.579" r="21.167" gradientTransform="matrix(0 .0586 .10548 0 -16.275 -5.646)"><stop offset="0" stop-opacity=".314"/><stop offset=".222" stop-opacity=".275"/><stop offset="1" stop-opacity="0"/></radialGradient><radialGradient id="c" gradientUnits="userSpaceOnUse" cx="450.909" cy="189.579" fx="450.909" fy="189.579" r="21.167" gradientTransform="matrix(0 -.0586 .10548 0 -16.275 47.696)"><stop offset="0" stop-opacity=".314"/><stop offset=".222" stop-opacity=".275"/><stop offset="1" stop-opacity="0"/></radialGradient><radialGradient id="d" gradientUnits="userSpaceOnUse" cx="450.909" cy="189.579" fx="450.909" fy="189.579" r="21.167" gradientTransform="matrix(0 .0586 -.10548 0 23.221 -5.646)"><stop offset="0" stop-opacity=".314"/><stop offset=".222" stop-opacity=".275"/><stop offset="1" stop-opacity="0"/></radialGradient><linearGradient id="e" gradientUnits="userSpaceOnUse" x1="960" y1="1695.118" x2="960" y2="815.118" gradientTransform="matrix(.0124 0 0 .0124 0 -7.825)"><stop offset="0" stop-color="#78909c"/><stop offset="1" stop-color="#90a4ae"/></linearGradient><linearGradient id="f" gradientUnits="userSpaceOnUse" x1="158.75" y1="159.417" x2="158.75" y2="119.729" gradientTransform="rotate(15 252.34 -178.828)"><stop offset="0" stop-color="#64b5f6"/><stop offset="1" stop-color="#90caf9"/></linearGradient><linearGradient id="g" gradientUnits="userSpaceOnUse" x1="158.75" y1="159.417" x2="158.75" y2="119.729" gradientTransform="rotate(15 106.902 -9.298)"><stop offset="0" stop-color="#64b5f6"/><stop offset="1" stop-color="#90caf9"/></linearGradient><linearGradient id="h" gradientUnits="userSpaceOnUse" x1="158.75" y1="159.417" x2="158.75" y2="119.729" gradientTransform="rotate(15 106.902 -9.298)"><stop offset="0" stop-color="#64b5f6"/><stop offset="1" stop-color="#90caf9"/></linearGradient><linearGradient id="i" gradientUnits="userSpaceOnUse" x1="158.75" y1="159.417" x2="158.75" y2="119.729" gradientTransform="rotate(15 299.024 175.778)"><stop offset="0" stop-color="#64b5f6"/><stop offset="1" stop-color="#90caf9"/></linearGradient><linearGradient id="j" gradientUnits="userSpaceOnUse" x1="158.75" y1="159.417" x2="158.75" y2="119.729" gradientTransform="rotate(15 153.587 345.309)"><stop offset="0" stop-color="#64b5f6"/><stop offset="1" stop-color="#90caf9"/></linearGradient><linearGradient id="k" gradientUnits="userSpaceOnUse" x1="158.75" y1="159.417" x2="158.75" y2="119.729" gradientTransform="rotate(15 342.298 504.474)"><stop offset="0" stop-color="#64b5f6"/><stop offset="1" stop-color="#90caf9"/></linearGradient><linearGradient id="l" gradientUnits="userSpaceOnUse" x1="158.75" y1="159.417" x2="158.75" y2="119.729" gradientTransform="rotate(15 196.86 674.004)"><stop offset="0" stop-color="#64b5f6"/><stop offset="1" stop-color="#90caf9"/></linearGradient><linearGradient id="m" gradientUnits="userSpaceOnUse" x1="158.75" y1="159.417" x2="158.75" y2="119.729" gradientTransform="rotate(15 387.277 846.124)"><stop offset="0" stop-color="#64b5f6"/><stop offset="1" stop-color="#90caf9"/></linearGradient><linearGradient id="n" gradientUnits="userSpaceOnUse" x1="158.75" y1="159.417" x2="158.75" y2="119.729" gradientTransform="rotate(15 241.839 1015.655)"><stop offset="0" stop-color="#64b5f6"/><stop offset="1" stop-color="#90caf9"/></linearGradient><linearGradient id="o" gradientUnits="userSpaceOnUse" x1="158.75" y1="159.417" x2="158.75" y2="119.729" gradientTransform="rotate(15 -153.724 -125.369)"><stop offset="0" stop-color="#64b5f6"/><stop offset="1" stop-color="#90caf9"/></linearGradient><radialGradient id="p" gradientUnits="userSpaceOnUse" cx="450.909" cy="189.579" fx="450.909" fy="189.579" r="21.167" gradientTransform="matrix(0 -.0586 -.10548 0 27.687 47.696)"><stop offset="0" stop-opacity=".314"/><stop offset=".222" stop-opacity=".275"/><stop offset="1" stop-opacity="0"/></radialGradient><radialGradient id="q" gradientUnits="userSpaceOnUse" cx="450.909" cy="189.579" fx="450.909" fy="189.579" r="21.167" gradientTransform="matrix(0 .0586 .10548 0 -11.81 -5.646)"><stop offset="0" stop-opacity=".314"/><stop offset=".222" stop-opacity=".275"/><stop offset="1" stop-opacity="0"/></radialGradient><radialGradient id="r" gradientUnits="userSpaceOnUse" cx="450.909" cy="189.579" fx="450.909" fy="189.579" r="21.167" gradientTransform="matrix(0 -.0586 .10548 0 -11.81 47.696)"><stop offset="0" stop-opacity=".314"/><stop offset=".222" stop-opacity=".275"/><stop offset="1" stop-opacity="0"/></radialGradient><radialGradient id="s" gradientUnits="userSpaceOnUse" cx="450.909" cy="189.579" fx="450.909" fy="189.579" r="21.167" gradientTransform="matrix(0 .0586 -.10548 0 27.687 -5.646)"><stop offset="0" stop-opacity=".314"/><stop offset=".222" stop-opacity=".275"/><stop offset="1" stop-opacity="0"/></radialGradient><linearGradient id="t" gradientUnits="userSpaceOnUse" x1="158.75" y1="159.417" x2="158.75" y2="119.729" gradientTransform="rotate(15 -107.04 229.237)"><stop offset="0" stop-color="#64b5f6"/><stop offset="1" stop-color="#90caf9"/></linearGradient><radialGradient id="u" gradientUnits="userSpaceOnUse" cx="450.909" cy="189.579" fx="450.909" fy="189.579" r="21.167" gradientTransform="matrix(0 -.0586 -.10548 0 31.656 47.696)"><stop offset="0" stop-opacity=".314"/><stop offset=".222" stop-opacity=".275"/><stop offset="1" stop-opacity="0"/></radialGradient><radialGradient id="v" gradientUnits="userSpaceOnUse" cx="450.909" cy="189.579" fx="450.909" fy="189.579" r="21.167" gradientTransform="matrix(0 .0586 .10548 0 -7.841 -5.646)"><stop offset="0" stop-opacity=".314"/><stop offset=".222" stop-opacity=".275"/><stop offset="1" stop-opacity="0"/></radialGradient><radialGradient id="w" gradientUnits="userSpaceOnUse" cx="450.909" cy="189.579" fx="450.909" fy="189.579" r="21.167" gradientTransform="matrix(0 -.0586 .10548 0 -7.841 47.696)"><stop offset="0" stop-opacity=".314"/><stop offset=".222" stop-opacity=".275"/><stop offset="1" stop-opacity="0"/></radialGradient><radialGradient id="x" gradientUnits="userSpaceOnUse" cx="450.909" cy="189.579" fx="450.909" fy="189.579" r="21.167" gradientTransform="matrix(0 .0586 -.10548 0 31.656 -5.646)"><stop offset="0" stop-opacity=".314"/><stop offset=".222" stop-opacity=".275"/><stop offset="1" stop-opacity="0"/></radialGradient><linearGradient id="y" gradientUnits="userSpaceOnUse" x1="158.75" y1="159.417" x2="158.75" y2="119.729" gradientTransform="rotate(15 -63.766 557.933)"><stop offset="0" stop-color="#64b5f6"/><stop offset="1" stop-color="#90caf9"/></linearGradient><radialGradient id="z" gradientUnits="userSpaceOnUse" cx="450.909" cy="189.579" fx="450.909" fy="189.579" r="21.167" gradientTransform="matrix(0 -.0586 -.10548 0 35.873 47.696)"><stop offset="0" stop-opacity=".314"/><stop offset=".222" stop-opacity=".275"/><stop offset="1" stop-opacity="0"/></radialGradient><radialGradient id="A" gradientUnits="userSpaceOnUse" cx="450.909" cy="189.579" fx="450.909" fy="189.579" r="21.167" gradientTransform="matrix(0 .0586 .10548 0 -3.624 -5.646)"><stop offset="0" stop-opacity=".314"/><stop offset=".222" stop-opacity=".275"/><stop offset="1" stop-opacity="0"/></radialGradient><radialGradient id="B" gradientUnits="userSpaceOnUse" cx="450.909" cy="189.579" fx="450.909" fy="189.579" r="21.167" gradientTransform="matrix(0 -.0586 .10548 0 -3.624 47.696)"><stop offset="0" stop-opacity=".314"/><stop offset=".222" stop-opacity=".275"/><stop offset="1" stop-opacity="0"/></radialGradient><radialGradient id="C" gradientUnits="userSpaceOnUse" cx="450.909" cy="189.579" fx="450.909" fy="189.579" r="21.167" gradientTransform="matrix(0 .0586 -.10548 0 35.873 -5.646)"><stop offset="0" stop-opacity=".314"/><stop offset=".222" stop-opacity=".275"/><stop offset="1" stop-opacity="0"/></radialGradient><linearGradient id="D" gradientUnits="userSpaceOnUse" x1="158.75" y1="159.417" x2="158.75" y2="119.729" gradientTransform="rotate(15 -18.787 899.583)"><stop offset="0" stop-color="#64b5f6"/><stop offset="1" stop-color="#90caf9"/></linearGradient></defs><path d="M3.473 21.027h1.984v-.996H3.473zm0 0" fill="url(#a)"/><path d="M3.473 21.027H1.488v.993h1.985zm0 0" fill="url(#b)"/><path d="M3.473 21.027H1.488v-.996h1.985zm0 0" fill="url(#c)"/><path d="M3.473 21.027h1.984v.993H3.473zm0 0" fill="url(#d)"/><path d="M16.371 2.285a5.442 5.442 0 0 0-4.93 3.11 3.994 3.994 0 0 0-1.023-.133 3.955 3.955 0 0 0-3.707 2.55 2.973 2.973 0 0 0-1.75-.566 2.97 2.97 0 0 0-2.977 2.977 2.97 2.97 0 0 0 2.977 2.976c.121 0 .242-.008.363-.02.043.012.086.02.133.02h10.918a5.445 5.445 0 0 0 5.457-5.457 5.448 5.448 0 0 0-5.46-5.457zm0 0" fill="url(#e)"/><path d="M16.371 2.285a5.442 5.442 0 0 0-4.93 3.11 3.994 3.994 0 0 0-1.023-.133 3.955 3.955 0 0 0-3.707 2.55 2.973 2.973 0 0 0-1.75-.566 2.97 2.97 0 0 0-2.973 3.102 2.968 2.968 0 0 1 2.973-2.852 2.97 2.97 0 0 1 1.75.563 3.957 3.957 0 0 1 3.707-2.547c.355 0 .7.043 1.023.129a5.445 5.445 0 0 1 4.93-3.106 5.444 5.444 0 0 1 5.457 5.332c0-.043.004-.082.004-.125a5.448 5.448 0 0 0-5.46-5.457zm0 0" fill="#fff" fill-opacity=".392"/><path d="M21.828 7.629a5.44 5.44 0 0 1-5.453 5.344H5.457a.496.496 0 0 1-.133-.02c-.12.012-.242.02-.363.02a2.968 2.968 0 0 1-2.973-2.864c-.004.04-.004.079-.004.114a2.97 2.97 0 0 0 2.977 2.976c.121 0 .242-.008.363-.02.043.012.086.02.133.02h10.918a5.445 5.445 0 0 0 5.457-5.457c0-.039-.004-.074-.004-.113zm0 0" fill-opacity=".235"/><path d="M16.371 2.285a5.442 5.442 0 0 0-4.93 3.11 3.994 3.994 0 0 0-1.023-.133 3.955 3.955 0 0 0-3.707 2.55 2.973 2.973 0 0 0-1.75-.566 2.97 2.97 0 0 0-2.977 2.977 2.97 2.97 0 0 0 2.977 2.976c.121 0 .242-.008.363-.02.043.012.086.02.133.02h10.918a5.445 5.445 0 0 0 5.457-5.457 5.448 5.448 0 0 0-5.46-5.457zm0 0" fill="none" stroke-width=".14064" stroke-linecap="round" stroke="#212121"/><path d="M66.91 110.719a10.524 10.524 0 0 0 7.5 12.915c5.666 1.584 11.415-1.75 12.915-7.416 3.416-12.832.417-21.83-2.666-30.913-7.166 6.332-14.332 12.582-17.749 25.414zm0 0" transform="matrix(.04688 0 0 .04688 0 10.08)" fill="url(#f)" stroke-width="3" stroke-linecap="square" stroke-linejoin="round" stroke="#212121"/><path d="M105.823 154.131a10.524 10.524 0 0 0 7.5 12.916c5.666 1.583 11.415-1.75 12.915-7.416 3.5-12.832.417-21.831-2.666-30.914-7.166 6.333-14.332 12.666-17.749 25.414zm0 0" transform="matrix(.04688 0 0 .04688 0 10.08)" fill="url(#g)" stroke-width="3" stroke-linecap="square" stroke-linejoin="round" stroke="#212121"/><path d="M105.823 154.131a10.524 10.524 0 0 0 7.5 12.916c5.666 1.583 11.415-1.75 12.915-7.416 3.5-12.832.417-21.831-2.666-30.914-7.166 6.333-14.332 12.666-17.749 25.414zm0 0" transform="matrix(.04688 0 0 .04688 0 10.08)" fill="url(#h)" stroke-width="3" stroke-linecap="square" stroke-linejoin="round" stroke="#212121"/><path d="M160.318 110.719c-1.583 5.666 1.75 11.415 7.416 12.915 5.666 1.584 11.499-1.75 12.999-7.416 3.416-12.832.333-21.83-2.667-30.913-7.166 6.332-14.332 12.582-17.748 25.414zm0 0" transform="matrix(.04688 0 0 .04688 0 10.08)" fill="url(#i)" stroke-width="3" stroke-linecap="square" stroke-linejoin="round" stroke="#212121"/><path d="M199.231 154.131c-1.583 5.667 1.833 11.416 7.416 12.916 5.666 1.583 11.499-1.75 12.999-7.416 3.416-12.832.333-21.831-2.667-30.914-7.166 6.333-14.332 12.666-17.748 25.414zm0 0" transform="matrix(.04688 0 0 .04688 0 10.08)" fill="url(#j)" stroke-width="3" stroke-linecap="square" stroke-linejoin="round" stroke="#212121"/><path d="M246.81 110.719a10.524 10.524 0 0 0 7.499 12.915c5.666 1.584 11.416-1.75 12.999-7.416 3.416-12.832.333-21.83-2.75-30.913-7.166 6.332-14.332 12.582-17.748 25.414zm0 0" transform="matrix(.04688 0 0 .04688 0 10.08)" fill="url(#k)" stroke-width="3" stroke-linecap="square" stroke-linejoin="round" stroke="#212121"/><path d="M285.723 154.131a10.524 10.524 0 0 0 7.499 12.916c5.666 1.583 11.416-1.75 12.999-7.416 3.416-12.832.333-21.831-2.75-30.914-7.166 6.333-14.332 12.666-17.748 25.414zm0 0" transform="matrix(.04688 0 0 .04688 0 10.08)" fill="url(#l)" stroke-width="3" stroke-linecap="square" stroke-linejoin="round" stroke="#212121"/><path d="M336.801 110.719a10.524 10.524 0 0 0 7.5 12.915c5.666 1.584 11.415-1.75 12.915-7.416 3.416-12.832.417-21.83-2.667-30.913-7.166 6.332-14.331 12.582-17.748 25.414zm0 0" transform="matrix(.04688 0 0 .04688 0 10.08)" fill="url(#m)" stroke-width="3" stroke-linecap="square" stroke-linejoin="round" stroke="#212121"/><path d="M375.714 154.131a10.524 10.524 0 0 0 7.5 12.916c5.666 1.583 11.415-1.75 12.915-7.416 3.416-12.832.416-21.831-2.667-30.914-7.166 6.333-14.332 12.666-17.748 25.414zm0 0" transform="matrix(.04688 0 0 .04688 0 10.08)" fill="url(#n)" stroke-width="3" stroke-linecap="square" stroke-linejoin="round" stroke="#212121"/><path d="M66.91 217.625c-1.5 5.666 1.833 11.416 7.5 13a10.524 10.524 0 0 0 12.915-7.5c3.416-12.832.417-21.831-2.666-30.914-7.166 6.333-14.332 12.666-17.749 25.414zm0 0" transform="matrix(.04688 0 0 .04688 0 10.08)" fill="url(#o)" stroke-width="3" stroke-linecap="square" stroke-linejoin="round" stroke="#212121"/><path d="M7.938 21.027h1.984v-.996H7.937zm0 0" fill="url(#p)"/><path d="M7.938 21.027H5.952v.993h1.984zm0 0" fill="url(#q)"/><path d="M7.938 21.027H5.952v-.996h1.984zm0 0" fill="url(#r)"/><path d="M7.938 21.027h1.984v.993H7.937zm0 0" fill="url(#s)"/><path d="M160.318 217.625c-1.583 5.666 1.75 11.416 7.416 13 5.666 1.499 11.499-1.834 12.999-7.5 3.416-12.832.333-21.831-2.667-30.914-7.166 6.333-14.332 12.666-17.748 25.414zm0 0" transform="matrix(.04688 0 0 .04688 0 10.08)" fill="url(#t)" stroke-width="3" stroke-linecap="square" stroke-linejoin="round" stroke="#212121"/><path d="M11.906 21.027h1.985v-.996h-1.985zm0 0" fill="url(#u)"/><path d="M11.906 21.027H9.922v.993h1.984zm0 0" fill="url(#v)"/><path d="M11.906 21.027H9.922v-.996h1.984zm0 0" fill="url(#w)"/><path d="M11.906 21.027h1.985v.993h-1.985zm0 0" fill="url(#x)"/><path d="M246.81 217.625c-1.5 5.666 1.833 11.416 7.499 13 5.666 1.499 11.416-1.834 12.999-7.5 3.416-12.832.333-21.831-2.75-30.914-7.166 6.333-14.332 12.666-17.748 25.414zm0 0" transform="matrix(.04688 0 0 .04688 0 10.08)" fill="url(#y)" stroke-width="3" stroke-linecap="square" stroke-linejoin="round" stroke="#212121"/><path d="M16.125 21.027h1.984v-.996h-1.984zm0 0" fill="url(#z)"/><path d="M16.125 21.027h-1.984v.993h1.984zm0 0" fill="url(#A)"/><path d="M16.125 21.027h-1.984v-.996h1.984zm0 0" fill="url(#B)"/><path d="M16.125 21.027h1.984v.993h-1.984zm0 0" fill="url(#C)"/><path d="M336.801 217.625c-1.5 5.666 1.833 11.416 7.5 13a10.524 10.524 0 0 0 12.915-7.5c3.416-12.832.417-21.831-2.667-30.914-7.166 6.333-14.331 12.666-17.748 25.414zm0 0" transform="matrix(.04688 0 0 .04688 0 10.08)" fill="url(#D)" stroke-width="3" stroke-linecap="square" stroke-linejoin="round" stroke="#212121"/></svg>