<svg xmlns="http://www.w3.org/2000/svg" width="16pt" height="16pt" viewBox="0 0 16 16"><defs><linearGradient id="a" gradientUnits="userSpaceOnUse" x1="254" y1="233.5" x2="254" y2="254.667" gradientTransform="matrix(.03125 0 0 .03125 0 6.72)"><stop offset="0" stop-opacity=".275"/><stop offset="1" stop-opacity="0"/></linearGradient><radialGradient id="b" gradientUnits="userSpaceOnUse" cx="450.909" cy="189.579" fx="450.909" fy="189.579" r="21.167" gradientTransform="matrix(0 -.03907 -.07032 0 26.561 31.798)"><stop offset="0" stop-opacity=".314"/><stop offset=".222" stop-opacity=".275"/><stop offset="1" stop-opacity="0"/></radialGradient><radialGradient id="c" gradientUnits="userSpaceOnUse" cx="450.909" cy="189.579" fx="450.909" fy="189.579" r="21.167" gradientTransform="matrix(0 .03907 .07032 0 -10.602 -3.764)"><stop offset="0" stop-opacity=".314"/><stop offset=".222" stop-opacity=".275"/><stop offset="1" stop-opacity="0"/></radialGradient><radialGradient id="d" gradientUnits="userSpaceOnUse" cx="450.909" cy="189.579" fx="450.909" fy="189.579" r="21.167" gradientTransform="matrix(0 -.03907 .07032 0 -10.602 31.798)"><stop offset="0" stop-opacity=".314"/><stop offset=".222" stop-opacity=".275"/><stop offset="1" stop-opacity="0"/></radialGradient><radialGradient id="e" gradientUnits="userSpaceOnUse" cx="450.909" cy="189.579" fx="450.909" fy="189.579" r="21.167" gradientTransform="matrix(0 .03907 -.07032 0 26.561 -3.764)"><stop offset="0" stop-opacity=".314"/><stop offset=".222" stop-opacity=".275"/><stop offset="1" stop-opacity="0"/></radialGradient><linearGradient id="f" gradientUnits="userSpaceOnUse" x1="254" y1="-168.667" x2="254" y2="233.5" gradientTransform="matrix(.03125 0 0 .03125 0 6.72)"><stop offset="0" stop-color="#ffab91"/><stop offset="1" stop-color="#ff8a65"/></linearGradient><linearGradient id="g" gradientUnits="userSpaceOnUse" x1="148.167" y1="-168.667" x2="148.167" y2="233.5" gradientTransform="translate(-31.75)"><stop offset="0" stop-color="#ff8a65"/><stop offset="1" stop-color="#ff7043"/></linearGradient><linearGradient id="h" gradientUnits="userSpaceOnUse" x1="148.167" y1="-168.667" x2="148.167" y2="233.5" gradientTransform="translate(201.083)"><stop offset="0" stop-color="#ff8a65"/><stop offset="1" stop-color="#ff7043"/></linearGradient><linearGradient id="i" gradientUnits="userSpaceOnUse" x1="960" y1="1115.118" x2="960" y2="675.118" gradientTransform="matrix(.26458 0 0 .26458 -116.417 -215)"><stop offset="0" stop-color="#bdbdbd"/><stop offset="1" stop-color="#e0e0e0"/></linearGradient><linearGradient id="j" gradientUnits="userSpaceOnUse" x1="164.042" y1="64.167" x2="164.042" y2=".667" gradientTransform="translate(-21.167 42.333)"><stop offset="0" stop-color="#bdbdbd"/><stop offset="1" stop-color="#e0e0e0"/></linearGradient><linearGradient id="k" gradientUnits="userSpaceOnUse" x1="158.75" y1="-115.75" x2="158.75" y2="286.417" gradientTransform="translate(-21.167 -52.917)"><stop offset="0" stop-color="#ff8a65"/><stop offset="1" stop-color="#ff7043"/></linearGradient><linearGradient id="l" gradientUnits="userSpaceOnUse" x1="960" y1="1115.118" x2="960" y2="675.118" gradientTransform="matrix(.26458 0 0 .26458 116.417 -215)"><stop offset="0" stop-color="#bdbdbd"/><stop offset="1" stop-color="#e0e0e0"/></linearGradient><linearGradient id="m" gradientUnits="userSpaceOnUse" x1="164.042" y1="64.167" x2="164.042" y2=".667" gradientTransform="translate(211.667 42.333)"><stop offset="0" stop-color="#bdbdbd"/><stop offset="1" stop-color="#e0e0e0"/></linearGradient><linearGradient id="n" gradientUnits="userSpaceOnUse" x1="158.75" y1="-115.75" x2="158.75" y2="286.417" gradientTransform="translate(211.667 -52.917)"><stop offset="0" stop-color="#ff8a65"/><stop offset="1" stop-color="#ff7043"/></linearGradient></defs><path d="M1.984 14.016a.657.657 0 0 1-.66-.66v-.083c0 .368.293.66.66.66h11.907a.66.66 0 0 0 .664-.66v.082a.66.66 0 0 1-.664.66zm0 0" fill-opacity=".196"/><path d="M2.563 14.016h10.832v.664H2.563zm0 0" fill="url(#a)"/><path d="M13.395 14.016h1.324v-.66h-1.324zm0 0" fill="url(#b)"/><path d="M2.563 14.016h-1.32v.664h1.32zm0 0" fill="url(#c)"/><path d="M2.563 14.016h-1.32v-.66h1.32zm0 0" fill="url(#d)"/><path d="M13.395 14.016h1.324v.664h-1.324zm0 0" fill="url(#e)"/><path d="M1.82 1.45H14.06c.273 0 .496.222.496.495V13.52a.497.497 0 0 1-.496.496H1.82a.497.497 0 0 1-.496-.496V1.945c0-.273.223-.496.496-.496zm0 0" fill="url(#f)"/><path d="M1.82 1.45a.492.492 0 0 0-.496.495v.164c0-.273.219-.496.496-.496H14.06c.273 0 .496.223.496.496v-.164a.494.494 0 0 0-.496-.496zm0 0" fill="#fff" fill-opacity=".392"/><path d="M1.82 14.016a.492.492 0 0 1-.496-.496v-.165c0 .274.219.497.496.497H14.06a.497.497 0 0 0 .496-.497v.165a.494.494 0 0 1-.496.496zm0 0" fill="#050505" fill-opacity=".235"/><path d="M1.82 1.402c-.3 0-.543.243-.543.543V13.52c0 .3.243.543.543.543H14.06a.544.544 0 0 0 .543-.543V1.945c0-.3-.247-.543-.543-.543zm0 .094H14.06c.25 0 .449.2.449.45V13.52c0 .25-.2.449-.45.449H1.82c-.25 0-.449-.2-.449-.45V1.946c0-.25.2-.449.45-.449zm0 0" fill="#212121"/><path d="M105.865-62.89h63.494c5.874 0 10.499 4.75 10.499 10.624V106.47c0 5.875-4.625 10.624-10.5 10.624h-63.493A10.615 10.615 0 0 1 95.24 106.47V-52.266c0-5.874 4.75-10.624 10.624-10.624zm0 0" transform="matrix(.03125 0 0 .03125 0 6.72)" fill="url(#g)" stroke-width="3" stroke-linecap="round" stroke="#212121"/><path d="M338.718-62.89h63.494c5.749 0 10.499 4.75 10.499 10.624V106.47c0 5.875-4.75 10.624-10.5 10.624h-63.493a10.615 10.615 0 0 1-10.624-10.624V-52.266c0-5.874 4.75-10.624 10.624-10.624zm0 0" transform="matrix(.03125 0 0 .03125 0 6.72)" fill="url(#h)" stroke-width="3" stroke-linecap="round" stroke="#212121"/><path d="M1.324 7.648h13.23v.086H1.325zm0 0" fill-opacity=".196"/><path d="M1.324 7.734h13.23v.082H1.325zm0 0" fill="#e6e6e6" fill-opacity=".588"/><path d="M1.324 7.691h13.23v.082H1.325zm0 0" fill="#212121" fill-opacity=".992"/><path d="M116.364-36.392c-5.75 0-10.5 4.75-10.5 10.624v95.24c0 5.875 4.75 10.625 10.5 10.625h42.37c5.875 0 10.625-4.75 10.625-10.624v-95.241c0-5.875-4.75-10.624-10.624-10.624zm2.75 8h36.996c2.875 0 5.25 2.374 5.25 5.249v89.991c0 2.875-2.375 5.25-5.25 5.25h-36.996c-3 0-5.375-2.375-5.375-5.25v-89.991c0-2.875 2.375-5.25 5.375-5.25zm0 0" transform="matrix(.03125 0 0 .03125 0 6.72)" fill="url(#i)" stroke-width="3" stroke-linecap="round" stroke-linejoin="round" stroke="#212121"/><path d="M126.988 42.975h21.123c5.874 0 10.624 4.75 10.624 10.624V95.97c0 5.75-4.75 10.5-10.624 10.5h-21.123c-5.875 0-10.624-4.75-10.624-10.5V53.6c0-5.875 4.75-10.625 10.624-10.625zm0 0" transform="matrix(.03125 0 0 .03125 0 6.72)" fill="url(#j)" stroke-width="3" stroke-linecap="round" stroke="#212121"/><path d="M126.988-52.266h21.123c5.874 0 10.624 4.75 10.624 10.624v15.874c0 5.874-4.75 10.499-10.624 10.499h-21.123c-5.875 0-10.624-4.625-10.624-10.5v-15.873c0-5.874 4.75-10.624 10.624-10.624zm0 0" transform="matrix(.03125 0 0 .03125 0 6.72)" fill="url(#k)" stroke-width="3" stroke-linecap="round" stroke="#212121"/><path d="M349.217-36.392c-5.875 0-10.5 4.75-10.5 10.624v95.24c0 5.875 4.625 10.625 10.5 10.625h42.37c5.875 0 10.625-4.75 10.625-10.624v-95.241c0-5.875-4.75-10.624-10.624-10.624zm2.624 8h37.122c2.875 0 5.25 2.374 5.25 5.249v89.991c0 2.875-2.375 5.25-5.25 5.25H351.84c-2.874 0-5.25-2.375-5.25-5.25v-89.991c0-2.875 2.376-5.25 5.25-5.25zm0 0" transform="matrix(.03125 0 0 .03125 0 6.72)" fill="url(#l)" stroke-width="3" stroke-linecap="round" stroke-linejoin="round" stroke="#212121"/><path d="M359.84 42.975h21.124c5.874 0 10.624 4.75 10.624 10.624V95.97c0 5.75-4.75 10.5-10.624 10.5H359.84c-5.875 0-10.624-4.75-10.624-10.5V53.6c0-5.875 4.75-10.625 10.624-10.625zm0 0" transform="matrix(.03125 0 0 .03125 0 6.72)" fill="url(#m)" stroke-width="3" stroke-linecap="round" stroke="#212121"/><path d="M359.84-52.266h21.124c5.874 0 10.624 4.75 10.624 10.624v15.874c0 5.874-4.75 10.499-10.624 10.499H359.84c-5.875 0-10.624-4.625-10.624-10.5v-15.873c0-5.874 4.75-10.624 10.624-10.624zm0 0" transform="matrix(.03125 0 0 .03125 0 6.72)" fill="url(#n)" stroke-width="3" stroke-linecap="round" stroke="#212121"/></svg>