<svg xmlns="http://www.w3.org/2000/svg" xmlns:xlink="http://www.w3.org/1999/xlink" width="16pt" height="16pt" viewBox="0 0 16 16"><defs><linearGradient id="c" gradientUnits="userSpaceOnUse" x1="254" y1="233.5" x2="254" y2="254.667" gradientTransform="matrix(.03125 0 0 .03125 0 6.72)"><stop offset="0" stop-opacity=".275"/><stop offset="1" stop-opacity="0"/></linearGradient><radialGradient id="d" gradientUnits="userSpaceOnUse" cx="450.909" cy="189.579" fx="450.909" fy="189.579" r="21.167" gradientTransform="matrix(0 -.03907 -.07032 0 26.561 31.798)"><stop offset="0" stop-opacity=".314"/><stop offset=".222" stop-opacity=".275"/><stop offset="1" stop-opacity="0"/></radialGradient><radialGradient id="e" gradientUnits="userSpaceOnUse" cx="450.909" cy="189.579" fx="450.909" fy="189.579" r="21.167" gradientTransform="matrix(0 .03907 .07032 0 -10.602 -3.764)"><stop offset="0" stop-opacity=".314"/><stop offset=".222" stop-opacity=".275"/><stop offset="1" stop-opacity="0"/></radialGradient><radialGradient id="f" gradientUnits="userSpaceOnUse" cx="450.909" cy="189.579" fx="450.909" fy="189.579" r="21.167" gradientTransform="matrix(0 -.03907 .07032 0 -10.602 31.798)"><stop offset="0" stop-opacity=".314"/><stop offset=".222" stop-opacity=".275"/><stop offset="1" stop-opacity="0"/></radialGradient><radialGradient id="g" gradientUnits="userSpaceOnUse" cx="450.909" cy="189.579" fx="450.909" fy="189.579" r="21.167" gradientTransform="matrix(0 .03907 -.07032 0 26.561 -3.764)"><stop offset="0" stop-opacity=".314"/><stop offset=".222" stop-opacity=".275"/><stop offset="1" stop-opacity="0"/></radialGradient><linearGradient id="h" gradientUnits="userSpaceOnUse" x1="254" y1="-168.667" x2="254" y2="233.5" gradientTransform="matrix(.03125 0 0 .03125 0 6.72)"><stop offset="0" stop-color="#f48fb1"/><stop offset="1" stop-color="#f06292"/></linearGradient><filter id="a" filterUnits="objectBoundingBox" x="0%" y="0%" width="100%" height="100%"><feColorMatrix in="SourceGraphic" values="0 0 0 0 1 0 0 0 0 1 0 0 0 0 1 0 0 0 1 0"/></filter><mask id="j"><path fill-opacity=".749" d="M0 0h16v16H0z" filter="url(#a)"/></mask><clipPath id="b"><path d="M0 0h16v16H0z"/></clipPath><g id="i" clip-path="url(#b)"><path d="M9.398 4.145c-.101 0-.656.214-.671.261-.02.063.054.055.328-.039.25-.082.465-.222.343-.222zm4.649.12c-.031 0-.055.13-.059.348-.004.246.004.324.04.293.066-.047.105-.343.074-.511-.02-.086-.036-.13-.055-.13zm-2.004.075a.79.79 0 0 0-.363.086c-.153.086-.153.086-.567.02a11.479 11.479 0 0 0-.906-.09c-.426-.024-.488-.016-.488.035 0 .039-.067.07-.203.101-.11.02-.274.074-.364.121-.09.043-.172.07-.183.055-.012-.012 0-.023.031-.023.05 0 .047-.008 0-.04-.05-.03-.047-.035.02-.03.097.007.222-.04.222-.087 0-.039-.215-.047-.355-.011-.055.015-.082.046-.07.078.011.03-.028.058-.13.074-.082.012-.21.039-.289.055-.132.03-.136.03-.046-.028.046-.031.09-.074.09-.093 0-.063-.126-.032-.407.105-.156.074-.312.125-.351.113-.137-.043-1.633 1.196-1.95 1.614-.074.093-.14.148-.183.14-.043-.008-.094.031-.137.113-.035.07-.18.301-.316.512-.313.48-.414.672-.489.918-.03.11-.082.25-.113.313a3.356 3.356 0 0 0-.113.523c-.059.41-.121.59-.184.55-.02-.01-.047-.007-.054.009-.055.086-.153.879-.184 1.464-.031.618-.027.68.043.864.047.11.148.457.234.773.184.696.301 1.121.407 1.442h.93c-.169-.266-.286-.711-.462-1.688-.18-.984-.18-.96-.015-1.66.113-.48.12-.566.039-.566-.078 0-.082.011.062-.336.32-.782.918-1.63 1.258-1.79.156-.07.258-.19.258-.3 0-.028-.027-.035-.063-.02-.047.016-.043 0 .016-.082.156-.207.352-.351.656-.484.18-.078.324-.168.352-.219.047-.082.043-.086-.04-.062-.046.011-.081.015-.074.011l.329-.285c.285-.254.726-.535.593-.383-.027.035-.035.07-.011.082.02.016.058 0 .086-.03.058-.071.406-.227.757-.349.727-.246 1.743-.304 2.344-.14.703.2 1.45.64 2.043 1.21.41.4.676.766.824 1.145a.302.302 0 0 0 .028.063V5.438a5.478 5.478 0 0 0-1.727-.907c-.34-.11-.43-.113-.34-.011.047.054.04.054-.07 0a.68.68 0 0 1-.176-.122c-.035-.039-.11-.058-.199-.058zm-2.047.156c.016 0 .027.004.035.008h-.004c.016.016-.007.023-.05.023-.047-.004-.055-.011-.024-.023.016-.008.031-.008.043-.008zm.399.035c.058 0 .117.004.156.008.082.008.008.016-.172.016-.176 0-.242-.008-.149-.016.047-.004.11-.008.165-.008zm.488.04c.023 0 .05.003.07.007.035.012.004.02-.07.02-.078 0-.11-.008-.07-.02a.35.35 0 0 1 .07-.008zM9.87 4.59c.024-.004.035.004.027.02-.011.019-.046.035-.078.035-.086 0-.074-.028.02-.051.012-.004.023-.004.031-.004zm1.285.02c.016 0 .028.003.035.011.012.012-.011.02-.054.02-.047-.004-.055-.012-.024-.024a.202.202 0 0 1 .043-.008zm-1.57.042H9.742l-.16.032h-.004a2.04 2.04 0 0 0-.238.054c-.05.02-.043.008.02-.031a.51.51 0 0 1 .226-.055zm-1.008.16c.004-.003.008 0 .008 0 .012.008-.11.055-.266.102-.191.063-.297.078-.324.05-.027-.027-.101-.019-.234.024a2.236 2.236 0 0 0-.309.13l-.113.066.105-.082c.157-.122.52-.239.559-.18.023.035.098.027.3-.04a1.42 1.42 0 0 1 .274-.07zm.527.004h.008c.008.008-.082.043-.195.075-.234.07-.238.07-.238.043 0-.02.363-.122.425-.118zm-1.793.368c.012 0-.015.03-.054.074a.357.357 0 0 1-.09.078c-.012 0 .012-.035.05-.078.04-.043.083-.074.095-.074zm-.476.382c.008 0-.004.012-.031.047-.055.063-.086.086-.086.051 0-.008.031-.035.07-.066.027-.02.043-.032.047-.032zm4.281 2.657c-.59 0-1.055.195-1.504.625-.27.261-.535.664-.535.816a.451.451 0 0 1-.082.188c-.176.277-.281 1.156-.184 1.554.266 1.094.797 1.668 2.079 2.239.402.183.52.289.218.199-.277-.078-.66-.239-.785-.324-.14-.094-.164-.098-.164-.024 0 .043-.074.012-.25-.094-.137-.082-.265-.14-.281-.129-.106.063.566.508 1.016.68l.187.063h.98c-.023-.004-.046-.012-.074-.02l-.238-.07.48-.028c.532-.027.848-.09 1.325-.257.457-.16.883-.422 1.25-.762v-.938c-.22.301-.477.61-.332.375.054-.082.058-.105.011-.105-.03 0-.132.113-.226.25a1.311 1.311 0 0 1-.547.492 7.87 7.87 0 0 0-.34.176c-.305.16-.633.234-1.043.234-.781 0-1.61-.375-2.121-.965-.21-.246-.52-.793-.52-.925 0-.051-.019-.067-.054-.055-.043.016-.067-.047-.102-.266-.058-.379-.054-.484.02-.867.113-.566.43-1.008.996-1.394.402-.27.68-.348 1.242-.344.402 0 .516.015.691.086.118.047.235.086.262.082.113 0-.258-.238-.55-.348a1.784 1.784 0 0 0-.708-.14c-.039 0-.078-.004-.117-.004zm-7.437.89c-.067.004-.07.032-.067.223 0 .121.016.223.032.223.07 0 .195-.215.183-.325-.008-.097-.031-.117-.113-.12H3.68zm9.582.528c-.032 0-.059.03-.075.093-.019.067 0 .13.063.211.148.196.246.078.137-.172-.04-.09-.086-.136-.125-.132zm-9.625.695c-.028.004-.04.066-.04.219 0 .125.012.258.024.289.016.035.043.062.063.062.058 0 .023-.55-.036-.566-.003-.004-.007-.004-.011-.004zm9.726.32c-.02 0-.043.082-.058.188a.641.641 0 0 1-.106.3l-.082.086.02-.097c.011-.051.031-.153.047-.219.046-.191-.036-.152-.114.059-.09.238-.086.312.024.351.176.07.219.047.265-.129.055-.207.059-.508.008-.539h-.004zm-.773 1.188a.893.893 0 0 0-.188.062 2.15 2.15 0 0 1-.37.117c-.18.04-.25.118-.141.16v.005c.027.007.148.019.27.019.218.004.222 0 .335-.172.063-.098.11-.18.102-.187-.004-.004-.004-.004-.008-.004zm-3.235.867c-.085 0-.02.11.196.312.125.125.234.223.238.223.008 0 .012-.02.012-.047 0-.058-.395-.488-.446-.488zm-.125.383c-.015 0-.03.047-.03.105 0 .114.152.258.558.54.105.07.191.105.199.081.012-.043-.668-.726-.727-.726zm.95.457l.11.062c.062.04.112.075.112.082 0 .028-.035.012-.129-.066zm3.215.293a.269.269 0 0 0-.098.023 4.044 4.044 0 0 1-.754.149h.695c.145-.067.242-.13.215-.157-.012-.011-.031-.015-.058-.015zm0 0" fill="#fff" fill-opacity=".392"/></g><linearGradient id="k" gradientUnits="userSpaceOnUse" x1="148.167" y1="-168.667" x2="148.167" y2="233.5" gradientTransform="translate(-31.75)"><stop offset="0" stop-color="#f06292"/><stop offset="1" stop-color="#ec407a"/></linearGradient><linearGradient id="l" gradientUnits="userSpaceOnUse" x1="148.167" y1="-168.667" x2="148.167" y2="233.5" gradientTransform="translate(201.083)"><stop offset="0" stop-color="#f06292"/><stop offset="1" stop-color="#ec407a"/></linearGradient><linearGradient id="m" gradientUnits="userSpaceOnUse" x1="960" y1="1115.118" x2="960" y2="675.118" gradientTransform="matrix(.26458 0 0 .26458 -116.417 -215)"><stop offset="0" stop-color="#bdbdbd"/><stop offset="1" stop-color="#e0e0e0"/></linearGradient><linearGradient id="n" gradientUnits="userSpaceOnUse" x1="164.042" y1="64.167" x2="164.042" y2=".667" gradientTransform="translate(-21.167 42.333)"><stop offset="0" stop-color="#bdbdbd"/><stop offset="1" stop-color="#e0e0e0"/></linearGradient><linearGradient id="o" gradientUnits="userSpaceOnUse" x1="158.75" y1="-115.75" x2="158.75" y2="286.417" gradientTransform="translate(-21.167 -52.917)"><stop offset="0" stop-color="#f48fb1"/><stop offset="1" stop-color="#f06292"/></linearGradient><linearGradient id="p" gradientUnits="userSpaceOnUse" x1="960" y1="1115.118" x2="960" y2="675.118" gradientTransform="matrix(.26458 0 0 .26458 116.417 -215)"><stop offset="0" stop-color="#bdbdbd"/><stop offset="1" stop-color="#e0e0e0"/></linearGradient><linearGradient id="q" gradientUnits="userSpaceOnUse" x1="164.042" y1="64.167" x2="164.042" y2=".667" gradientTransform="translate(211.667 42.333)"><stop offset="0" stop-color="#bdbdbd"/><stop offset="1" stop-color="#e0e0e0"/></linearGradient><linearGradient id="r" gradientUnits="userSpaceOnUse" x1="158.75" y1="-115.75" x2="158.75" y2="286.417" gradientTransform="translate(211.667 -52.917)"><stop offset="0" stop-color="#f48fb1"/><stop offset="1" stop-color="#f06292"/></linearGradient></defs><path d="M1.984 14.016a.657.657 0 0 1-.66-.66v-.083c0 .368.293.66.66.66h11.907a.66.66 0 0 0 .664-.66v.082a.66.66 0 0 1-.664.66zm0 0" fill-opacity=".196"/><path d="M2.563 14.016h10.832v.664H2.563zm0 0" fill="url(#c)"/><path d="M13.395 14.016h1.324v-.66h-1.324zm0 0" fill="url(#d)"/><path d="M2.563 14.016h-1.32v.664h1.32zm0 0" fill="url(#e)"/><path d="M2.563 14.016h-1.32v-.66h1.32zm0 0" fill="url(#f)"/><path d="M13.395 14.016h1.324v.664h-1.324zm0 0" fill="url(#g)"/><path d="M1.82 1.45H14.06c.273 0 .496.222.496.495V13.52a.497.497 0 0 1-.496.496H1.82a.497.497 0 0 1-.496-.496V1.945c0-.273.223-.496.496-.496zm0 0" fill="url(#h)"/><use xlink:href="#i" mask="url(#j)"/><path d="M1.82 1.45a.492.492 0 0 0-.496.495v.164c0-.273.219-.496.496-.496H14.06c.273 0 .496.223.496.496v-.164a.494.494 0 0 0-.496-.496zm0 0" fill="#fff" fill-opacity=".392"/><path d="M1.82 14.016a.492.492 0 0 1-.496-.496v-.165c0 .274.219.497.496.497H14.06a.497.497 0 0 0 .496-.497v.165a.494.494 0 0 1-.496.496zm0 0" fill="#050505" fill-opacity=".235"/><path d="M1.82 1.402c-.3 0-.543.243-.543.543V13.52c0 .3.243.543.543.543H14.06a.544.544 0 0 0 .543-.543V1.945c0-.3-.247-.543-.543-.543zm0 .094H14.06c.25 0 .449.2.449.45V13.52c0 .25-.2.449-.45.449H1.82c-.25 0-.449-.2-.449-.45V1.946c0-.25.2-.449.45-.449zm0 0" fill="#212121"/><path d="M105.865-62.89h63.494c5.874 0 10.499 4.75 10.499 10.624V106.47c0 5.875-4.625 10.624-10.5 10.624h-63.493A10.615 10.615 0 0 1 95.24 106.47V-52.266c0-5.874 4.75-10.624 10.624-10.624zm0 0" transform="matrix(.03125 0 0 .03125 0 6.72)" fill="url(#k)" stroke-width="3" stroke-linecap="round" stroke="#212121"/><path d="M338.718-62.89h63.494c5.749 0 10.499 4.75 10.499 10.624V106.47c0 5.875-4.75 10.624-10.5 10.624h-63.493a10.615 10.615 0 0 1-10.624-10.624V-52.266c0-5.874 4.75-10.624 10.624-10.624zm0 0" transform="matrix(.03125 0 0 .03125 0 6.72)" fill="url(#l)" stroke-width="3" stroke-linecap="round" stroke="#212121"/><path d="M1.324 7.648h13.23v.086H1.325zm0 0" fill-opacity=".196"/><path d="M1.324 7.734h13.23v.082H1.325zm0 0" fill="#e6e6e6" fill-opacity=".588"/><path d="M1.324 7.691h13.23v.082H1.325zm0 0" fill="#212121" fill-opacity=".992"/><path d="M116.364-36.392c-5.75 0-10.5 4.75-10.5 10.624v95.24c0 5.875 4.75 10.625 10.5 10.625h42.37c5.875 0 10.625-4.75 10.625-10.624v-95.241c0-5.875-4.75-10.624-10.624-10.624zm2.75 8h36.996c2.875 0 5.25 2.374 5.25 5.249v89.991c0 2.875-2.375 5.25-5.25 5.25h-36.996c-3 0-5.375-2.375-5.375-5.25v-89.991c0-2.875 2.375-5.25 5.375-5.25zm0 0" transform="matrix(.03125 0 0 .03125 0 6.72)" fill="url(#m)" stroke-width="3" stroke-linecap="round" stroke-linejoin="round" stroke="#212121"/><path d="M126.988 42.975h21.123c5.874 0 10.624 4.75 10.624 10.624V95.97c0 5.75-4.75 10.5-10.624 10.5h-21.123c-5.875 0-10.624-4.75-10.624-10.5V53.6c0-5.875 4.75-10.625 10.624-10.625zm0 0" transform="matrix(.03125 0 0 .03125 0 6.72)" fill="url(#n)" stroke-width="3" stroke-linecap="round" stroke="#212121"/><path d="M126.988-52.266h21.123c5.874 0 10.624 4.75 10.624 10.624v15.874c0 5.874-4.75 10.499-10.624 10.499h-21.123c-5.875 0-10.624-4.625-10.624-10.5v-15.873c0-5.874 4.75-10.624 10.624-10.624zm0 0" transform="matrix(.03125 0 0 .03125 0 6.72)" fill="url(#o)" stroke-width="3" stroke-linecap="round" stroke="#212121"/><path d="M349.217-36.392c-5.875 0-10.5 4.75-10.5 10.624v95.24c0 5.875 4.625 10.625 10.5 10.625h42.37c5.875 0 10.625-4.75 10.625-10.624v-95.241c0-5.875-4.75-10.624-10.624-10.624zm2.624 8h37.122c2.875 0 5.25 2.374 5.25 5.249v89.991c0 2.875-2.375 5.25-5.25 5.25H351.84c-2.874 0-5.25-2.375-5.25-5.25v-89.991c0-2.875 2.376-5.25 5.25-5.25zm0 0" transform="matrix(.03125 0 0 .03125 0 6.72)" fill="url(#p)" stroke-width="3" stroke-linecap="round" stroke-linejoin="round" stroke="#212121"/><path d="M359.84 42.975h21.124c5.874 0 10.624 4.75 10.624 10.624V95.97c0 5.75-4.75 10.5-10.624 10.5H359.84c-5.875 0-10.624-4.75-10.624-10.5V53.6c0-5.875 4.75-10.625 10.624-10.625zm0 0" transform="matrix(.03125 0 0 .03125 0 6.72)" fill="url(#q)" stroke-width="3" stroke-linecap="round" stroke="#212121"/><path d="M359.84-52.266h21.124c5.874 0 10.624 4.75 10.624 10.624v15.874c0 5.874-4.75 10.499-10.624 10.499H359.84c-5.875 0-10.624-4.625-10.624-10.5v-15.873c0-5.874 4.75-10.624 10.624-10.624zm0 0" transform="matrix(.03125 0 0 .03125 0 6.72)" fill="url(#r)" stroke-width="3" stroke-linecap="round" stroke="#212121"/></svg>