<svg height="16pt" viewBox="0 0 16 16" width="16pt" xmlns="http://www.w3.org/2000/svg" xmlns:xlink="http://www.w3.org/1999/xlink"><linearGradient id="a" gradientUnits="userSpaceOnUse" x1="8.269022" x2="8.269022" y1="13.0246855" y2="13.68620743751"><stop offset="0" stop-opacity=".27451"/><stop offset="1" stop-opacity="0"/></linearGradient><linearGradient id="b"><stop offset="0" stop-opacity=".313725"/><stop offset=".222222" stop-opacity=".27451"/><stop offset="1" stop-opacity="0"/></linearGradient><radialGradient id="c" cx="450.90894" cy="189.57936" gradientTransform="matrix(.00000009 -.0390662 -.0703192 -.00000005 26.726847 30.805385)" gradientUnits="userSpaceOnUse" r="21.166656" xlink:href="#b"/><radialGradient id="d" cx="450.90894" cy="189.57936" gradientTransform="matrix(-.00000009 .0390662 .0703192 .00000005 -10.850331 -4.756022)" gradientUnits="userSpaceOnUse" r="21.166656" xlink:href="#b"/><radialGradient id="e" cx="450.90894" cy="189.57936" gradientTransform="matrix(-.00000009 -.0390662 .0703192 -.00000005 -10.850331 30.805385)" gradientUnits="userSpaceOnUse" r="21.166656" xlink:href="#b"/><radialGradient id="f" cx="450.90894" cy="189.57936" gradientTransform="matrix(.00000009 .0390662 -.0703192 .00000005 26.726846 -4.756022)" gradientUnits="userSpaceOnUse" r="21.166656" xlink:href="#b"/><linearGradient id="g" gradientUnits="userSpaceOnUse" x1="7.938262" x2="7.938262" y1="15.34001137502" y2=".78653093751"><stop offset="0" stop-color="#f44336"/><stop offset="1" stop-color="#ef5350"/></linearGradient><linearGradient id="h" gradientUnits="userSpaceOnUse" x1="7.9382592" x2="7.9382592" y1="15.34000949816" y2=".78653356222"><stop offset="0" stop-color="#5c6bc0"/><stop offset="1" stop-color="#7986cb"/></linearGradient><linearGradient id="i" gradientUnits="userSpaceOnUse" x1="11.9073888" x2="11.9073888" y1="15.34000949816" y2=".78653356222"><stop offset="0" stop-color="#26a69a"/><stop offset="1" stop-color="#4db6ac"/></linearGradient><path d="m2.316406 13.023438h11.246094v.664062h-11.246094zm0 0" fill="url(#a)"/><path d="m13.5625 13.023438h1.320312v-.660157h-1.320312zm0 0" fill="url(#c)"/><path d="m2.316406 13.023438h-1.324218v.664062h1.324218zm0 0" fill="url(#d)"/><path d="m2.316406 13.023438h-1.324218v-.660157h1.324218zm0 0" fill="url(#e)"/><path d="m13.5625 13.023438h1.320312v.664062h-1.320312zm0 0" fill="url(#f)"/><path d="m1.984375 3.101562h11.90625c.367187 0 .664063.296876.664063.660157v8.601562c0 .363281-.296876.660157-.664063.660157h-11.90625c-.363281 0-.660156-.296876-.660156-.660157v-8.601562c0-.363281.296875-.660157.660156-.660157zm0 0" fill="url(#g)"/><path d="m6.285156 3.101562c-.367187 0-.664062.296876-.664062.660157v8.601562c0 .367188.296875.660157.664062.660157h7.605469c.367187 0 .664063-.292969.664063-.660157v-8.601562c0-.363281-.296876-.660157-.664063-.660157zm0 0" fill="url(#h)"/><path d="m10.914062 3.101562c-.367187 0-.660156.296876-.660156.660157v8.601562c0 .367188.292969.660157.660156.660157h2.976563c.367187 0 .664063-.292969.664063-.660157v-8.601562c0-.363281-.296876-.660157-.664063-.660157zm0 0" fill="url(#i)"/><path d="m1.984375 3.101562c-.367187 0-.660156.296876-.660156.660157v.167969c0-.367188.292969-.664063.660156-.664063h11.90625c.367187 0 .664063.296875.664063.664063v-.167969c0-.363281-.296876-.660157-.664063-.660157zm0 0" fill="#fff" fill-opacity=".588235"/><path d="m1.324219 12.203125v.160156c0 .367188.292969.660157.660156.660157h11.90625c.367187 0 .664063-.292969.664063-.660157v-.160156c0 .367187-.296876.660156-.664063.660156h-11.90625c-.367187 0-.660156-.292969-.660156-.660156zm0 0" fill-opacity=".235294"/><path d="m63.493937-115.759477h380.963619c11.748878 0 21.247971 9.499093 21.247971 21.122983v275.223717c0 11.62389-9.499093 21.122983-21.247971 21.122983h-380.963619c-11.62389 0-21.122983-9.499093-21.122983-21.122983v-275.223717c0-11.62389 9.499093-21.122983 21.122983-21.122983zm0 0" fill="none" stroke="#212121" stroke-linecap="round" stroke-linejoin="round" stroke-width="3" transform="matrix(.031253 0 0 .031253 0 6.719392)"/></svg>