<?xml version="1.0" encoding="UTF-8"?>
<svg xmlns="http://www.w3.org/2000/svg" xmlns:xlink="http://www.w3.org/1999/xlink" width="32pt" height="32pt" viewBox="0 0 32 32" version="1.1">
<g id="surface1">
<path style=" stroke:none;fill-rule:nonzero;fill:rgb(25.882354%,64.705884%,96.078432%);fill-opacity:1;" d="M 12.292969 10.835938 L 22.765625 10.835938 C 23.347656 10.835938 23.816406 11.277344 23.816406 11.828125 C 23.816406 12.375 23.347656 12.820312 22.765625 12.820312 L 12.292969 12.820312 C 11.714844 12.820312 11.246094 12.375 11.246094 11.828125 C 11.246094 11.277344 11.714844 10.835938 12.292969 10.835938 Z M 12.292969 10.835938 "/>
<path style=" stroke:none;fill-rule:nonzero;fill:rgb(25.882354%,64.705884%,96.078432%);fill-opacity:1;" d="M 12.292969 16.125 L 22.765625 16.125 C 23.347656 16.125 23.816406 16.570312 23.816406 17.117188 C 23.816406 17.667969 23.347656 18.109375 22.765625 18.109375 L 12.292969 18.109375 C 11.714844 18.109375 11.246094 17.667969 11.246094 17.117188 C 11.246094 16.570312 11.714844 16.125 12.292969 16.125 Z M 12.292969 16.125 "/>
<path style=" stroke:none;fill-rule:nonzero;fill:rgb(74.117649%,74.117649%,74.117649%);fill-opacity:1;" d="M 5.292969 1.574219 L 5.292969 30.679688 L 27.785156 30.679688 C 28.882812 30.679688 29.769531 29.792969 29.769531 28.695312 L 29.769531 3.558594 C 29.769531 2.457031 28.882812 1.574219 27.785156 1.574219 Z M 8.601562 3.558594 L 26.460938 3.558594 C 27.195312 3.558594 27.785156 4.148438 27.785156 4.878906 L 27.785156 27.371094 C 27.785156 28.105469 27.195312 28.695312 26.460938 28.695312 L 8.601562 28.695312 C 7.867188 28.695312 7.277344 28.105469 7.277344 27.371094 L 7.277344 4.878906 C 7.277344 4.148438 7.867188 3.558594 8.601562 3.558594 Z M 8.601562 3.558594 "/>
<path style=" stroke:none;fill-rule:nonzero;fill:rgb(25.882354%,64.705884%,96.078432%);fill-opacity:1;" d="M 2.644531 1.574219 C 1.914062 1.574219 1.324219 2.164062 1.324219 2.894531 L 1.324219 29.355469 C 1.324219 30.089844 1.914062 30.679688 2.644531 30.679688 L 4.628906 30.679688 L 4.628906 1.574219 Z M 2.644531 1.574219 "/>
</g>
</svg>
