<svg xmlns="http://www.w3.org/2000/svg" width="32pt" height="32pt" viewBox="0 0 32 32"><path d="M13.23 1.574c-2.949 0-5.511 1.192-6.882 2.973L8.55 5.926c.832-1.02 2.441-1.707 4.297-1.707h.765c2.719 0 4.91 1.476 4.91 3.308v3.97c-1.402-.942-3.257-1.509-5.293-1.509-4.398 0-7.937 2.653-7.937 5.953v.66h.047c.437 2.985 3.793 5.294 7.89 5.294 2.036 0 3.891-.57 5.293-1.508v1.363h2.645V7.527c0-3.3-3.54-5.953-7.938-5.953zm-.382 11.059h.765c2.719 0 4.91 1.476 4.91 3.308 0 1.832-2.191 3.309-4.91 3.309h-.765c-2.72 0-4.91-1.477-4.91-3.309s2.19-3.308 4.91-3.308zm0 0" fill="#bdbdbd"/><path d="M25.137 22.742a.662.662 0 0 0-.66.66v1.985h-7.278c-.367 0-.66.246-.66.55v1.547c0 .305.293.551.66.551h7.278v1.985c0 .363.296.66.66.66h.004a.65.65 0 0 0 .382-.125l4.63-3.305a.658.658 0 0 0 .277-.54.658.658 0 0 0-.278-.538l-4.629-3.305a.671.671 0 0 0-.37-.125h-.012zm0 0" fill="#5c6bc0"/></svg>