<?xml version="1.0" encoding="UTF-8"?>
<svg xmlns="http://www.w3.org/2000/svg" xmlns:xlink="http://www.w3.org/1999/xlink" width="32pt" height="32pt" viewBox="0 0 32 32" version="1.1">
<g id="surface1">
<path style=" stroke:none;fill-rule:nonzero;fill:rgb(14.901961%,65.098041%,60.392159%);fill-opacity:1;" d="M 10.972656 12.695312 C 10.960938 12.441406 11.054688 12.191406 11.234375 12.007812 C 11.410156 11.824219 11.65625 11.71875 11.910156 11.71875 L 19.847656 11.71875 C 20.1875 11.71875 20.496094 11.902344 20.664062 12.195312 C 20.832031 12.488281 20.824219 12.847656 20.652344 13.140625 L 16.683594 19.753906 C 16.511719 20.035156 16.207031 20.210938 15.878906 20.210938 C 15.550781 20.210938 15.246094 20.035156 15.074219 19.753906 L 11.105469 13.140625 C 11.023438 13.003906 10.980469 12.851562 10.972656 12.695312 Z M 13.566406 13.59375 L 15.878906 17.449219 L 18.191406 13.59375 Z M 13.566406 13.59375 "/>
<path style=" stroke:none;fill-rule:nonzero;fill:rgb(74.117649%,74.117649%,74.117649%);fill-opacity:1;" d="M 3.308594 1.574219 C 2.207031 1.574219 1.324219 2.457031 1.324219 3.558594 L 1.324219 8.851562 C 1.324219 9.949219 2.207031 10.835938 3.308594 10.835938 L 8.601562 10.835938 C 9.699219 10.835938 10.585938 9.949219 10.585938 8.851562 L 10.585938 3.558594 C 10.585938 2.457031 9.699219 1.574219 8.601562 1.574219 Z M 3.96875 3.558594 L 7.9375 3.558594 C 8.304688 3.558594 8.601562 3.851562 8.601562 4.21875 L 8.601562 8.1875 C 8.601562 8.554688 8.304688 8.851562 7.9375 8.851562 L 3.96875 8.851562 C 3.601562 8.851562 3.308594 8.554688 3.308594 8.1875 L 3.308594 4.21875 C 3.308594 3.851562 3.601562 3.558594 3.96875 3.558594 Z M 3.96875 3.558594 "/>
<path style=" stroke:none;fill-rule:nonzero;fill:rgb(74.117649%,74.117649%,74.117649%);fill-opacity:1;" d="M 23.152344 1.574219 C 22.054688 1.574219 21.167969 2.457031 21.167969 3.558594 L 21.167969 8.851562 C 21.167969 9.949219 22.054688 10.835938 23.152344 10.835938 L 28.445312 10.835938 C 29.542969 10.835938 30.429688 9.949219 30.429688 8.851562 L 30.429688 3.558594 C 30.429688 2.457031 29.542969 1.574219 28.445312 1.574219 Z M 23.816406 3.558594 L 27.785156 3.558594 C 28.148438 3.558594 28.445312 3.851562 28.445312 4.21875 L 28.445312 8.1875 C 28.445312 8.554688 28.148438 8.851562 27.785156 8.851562 L 23.816406 8.851562 C 23.449219 8.851562 23.152344 8.554688 23.152344 8.1875 L 23.152344 4.21875 C 23.152344 3.851562 23.449219 3.558594 23.816406 3.558594 Z M 23.816406 3.558594 "/>
<path style=" stroke:none;fill-rule:nonzero;fill:rgb(74.117649%,74.117649%,74.117649%);fill-opacity:1;" d="M 13.230469 21.417969 C 12.132812 21.417969 11.246094 22.304688 11.246094 23.402344 L 11.246094 28.695312 C 11.246094 29.792969 12.132812 30.679688 13.230469 30.679688 L 18.523438 30.679688 C 19.621094 30.679688 20.507812 29.792969 20.507812 28.695312 L 20.507812 23.402344 C 20.507812 22.304688 19.621094 21.417969 18.523438 21.417969 Z M 13.890625 23.402344 L 17.859375 23.402344 C 18.226562 23.402344 18.523438 23.699219 18.523438 24.066406 L 18.523438 28.035156 C 18.523438 28.402344 18.226562 28.695312 17.859375 28.695312 L 13.890625 28.695312 C 13.527344 28.695312 13.230469 28.402344 13.230469 28.035156 L 13.230469 24.066406 C 13.230469 23.699219 13.527344 23.402344 13.890625 23.402344 Z M 13.890625 23.402344 "/>
<path style=" stroke:none;fill-rule:nonzero;fill:rgb(74.117649%,74.117649%,74.117649%);fill-opacity:1;" d="M 10.585938 5.210938 L 21.167969 5.210938 L 21.167969 7.195312 L 10.585938 7.195312 Z M 10.585938 5.210938 "/>
<path style=" stroke:none;fill-rule:nonzero;fill:rgb(74.117649%,74.117649%,74.117649%);fill-opacity:1;" d="M 20.507812 25.058594 L 30.472656 25.058594 L 30.472656 27.042969 L 20.507812 27.042969 Z M 20.507812 25.058594 "/>
<path style=" stroke:none;fill-rule:nonzero;fill:rgb(74.117649%,74.117649%,74.117649%);fill-opacity:1;" d="M 1.28125 25.058594 L 11.246094 25.058594 L 11.246094 27.042969 L 1.28125 27.042969 Z M 1.28125 25.058594 "/>
</g>
</svg>
