<svg xmlns="http://www.w3.org/2000/svg" width="32" height="32"><path d="M8.406 8.578c-.386.356-.52.914-.336 1.406l7.27 19.383c.41 1.09 1.937 1.13 2.398.055l3.43-8.004 8.004-3.43c1.074-.46 1.039-1.988-.055-2.398L9.734 8.32a1.295 1.295 0 0 0-1.328.258zm0 0M5.293 2.895a2.647 2.647 0 1 1-2.648 2.648 2.65 2.65 0 0 1 2.648-2.648zm0 0" fill="#bdbdbd"/><path d="M29.066 2.195a.993.993 0 0 1 0 1.403l-7.015 7.015a.993.993 0 0 1-1.403-1.402l7.016-7.016a.993.993 0 0 1 1.402 0zm0 0" fill="#ef5350"/><path d="M29.066 10.613a.993.993 0 0 1-1.402 0l-7.016-7.015a.993.993 0 0 1 1.402-1.402l7.016 7.015a.993.993 0 0 1 0 1.402zm0 0" fill="#ef5350"/></svg>