<?xml version="1.0" encoding="UTF-8"?>
<svg xmlns="http://www.w3.org/2000/svg" xmlns:xlink="http://www.w3.org/1999/xlink" width="32pt" height="32pt" viewBox="0 0 32 32" version="1.1">
<g id="surface1">
<path style=" stroke:none;fill-rule:nonzero;fill:rgb(74.117649%,74.117649%,74.117649%);fill-opacity:1;" d="M 30.429688 4.21875 L 30.429688 20.757812 L 27.785156 20.757812 L 27.785156 8.851562 L 15.875 19.433594 L 3.96875 8.851562 L 3.96875 19.152344 L 1.324219 21.417969 L 1.324219 4.21875 Z M 25.136719 6.863281 L 5.953125 6.863281 L 15.875 15.464844 Z M 25.136719 6.863281 "/>
<path style=" stroke:none;fill-rule:nonzero;fill:rgb(74.117649%,74.117649%,74.117649%);fill-opacity:1;" d="M 5.953125 20.09375 L 1.324219 24.066406 L 5.953125 28.035156 L 5.953125 25.386719 L 13.890625 25.386719 L 13.890625 22.742188 L 5.953125 22.742188 Z M 5.953125 20.09375 "/>
<path style=" stroke:none;fill-rule:nonzero;fill:rgb(74.117649%,74.117649%,74.117649%);fill-opacity:1;" d="M 22.492188 20.09375 L 17.859375 24.066406 L 22.492188 28.035156 L 22.492188 25.386719 L 30.429688 25.386719 L 30.429688 22.742188 L 22.492188 22.742188 Z M 22.492188 20.09375 "/>
</g>
</svg>
