<svg xmlns="http://www.w3.org/2000/svg" width="32pt" height="32pt" viewBox="0 0 32 32"><g fill="#bdbdbd"><path d="M14.555 12.156V30.68h7.937v-9.922h5.293v-8.602zm1.984 1.985h9.262v4.632h-5.293v9.922h-3.969zm0 0"/><path d="M11.906 1.574A7.919 7.919 0 0 0 3.97 9.512V30.68h7.937V10.836c0-.734.59-1.324 1.324-1.324h13.23V1.574zm-.66 1.985c.223 0 .445.011.66.039v-.04h12.57v3.97H13.23c-1.832 0-3.308 1.327-3.308 2.976v18.191H5.953V9.512h.043a5.28 5.28 0 0 1 5.25-5.953zm0 0" fill-rule="evenodd"/></g></svg>