<svg height="32" viewBox="0 0 32 32" width="32" xmlns="http://www.w3.org/2000/svg"><g fill="#e0e0e0"><path d="m7.9375 10.835938c1.464844 0 2.648438-1.183594 2.648438-2.648438v-5.292969h-2.648438v3.972657c0 .730468-.589844 1.320312-1.324219 1.320312h-3.96875v2.648438zm0 0"/><path d="m29.105469 10.835938v-2.648438h-3.96875c-.730469 0-1.320313-.589844-1.320313-1.320312v-3.972657h-2.648437v5.292969c0 1.464844 1.179687 2.648438 2.648437 2.648438zm0 0"/><path d="m10.585938 29.355469v-5.289063c0-1.46875-1.183594-2.648437-2.648438-2.648437h-5.292969v2.648437h3.96875c.734375 0 1.324219.589844 1.324219 1.320313v3.96875zm0 0"/><path d="m23.816406 29.355469v-3.96875c0-.730469.589844-1.320313 1.320313-1.320313h3.96875v-2.648437h-5.289063c-1.46875 0-2.648437 1.179687-2.648437 2.648437v5.289063zm0 0"/></g></svg>