<?xml version="1.0" encoding="UTF-8"?>
<svg xmlns="http://www.w3.org/2000/svg" xmlns:xlink="http://www.w3.org/1999/xlink" width="32pt" height="32pt" viewBox="0 0 32 32" version="1.1">
<g id="surface1">
<path style=" stroke:none;fill-rule:nonzero;fill:rgb(93.725491%,32.549021%,31.37255%);fill-opacity:1;" d="M 6.613281 16.125 C 6.613281 16.855469 7.207031 17.449219 7.9375 17.449219 L 14.554688 17.449219 C 15.285156 17.449219 15.875 16.855469 15.875 16.125 C 15.875 15.394531 15.285156 14.804688 14.554688 14.804688 L 7.9375 14.804688 C 7.207031 14.804688 6.613281 15.394531 6.613281 16.125 Z M 6.613281 16.125 "/>
<path style=" stroke:none;fill-rule:nonzero;fill:rgb(74.117649%,74.117649%,74.117649%);fill-opacity:1;" d="M 18.605469 2.234375 L 18.441406 2.234375 C 17.753906 2.234375 17.199219 2.828125 17.199219 3.558594 L 17.199219 28.035156 C 17.199219 28.765625 17.753906 29.355469 18.441406 29.355469 L 18.605469 29.355469 C 19.289062 29.355469 19.84375 28.765625 19.84375 28.035156 L 19.84375 3.558594 C 19.84375 2.828125 19.289062 2.234375 18.605469 2.234375 Z M 18.605469 2.234375 "/>
<path style=" stroke:none;fill-rule:nonzero;fill:rgb(74.117649%,74.117649%,74.117649%);fill-opacity:1;" d="M 5.292969 1.574219 C 3.828125 1.574219 2.644531 2.753906 2.644531 4.21875 L 2.644531 28.035156 C 2.644531 29.5 3.828125 30.679688 5.292969 30.679688 L 27.785156 30.679688 C 29.25 30.679688 30.429688 29.5 30.429688 28.035156 L 30.429688 4.21875 C 30.429688 2.753906 29.25 1.574219 27.785156 1.574219 Z M 5.953125 3.558594 L 17.199219 3.558594 L 17.199219 28.695312 L 5.953125 28.695312 C 5.222656 28.695312 4.628906 28.105469 4.628906 27.371094 L 4.628906 4.878906 C 4.628906 4.148438 5.222656 3.558594 5.953125 3.558594 Z M 19.84375 3.558594 L 27.121094 3.558594 C 27.855469 3.558594 28.445312 4.148438 28.445312 4.878906 L 28.445312 27.371094 C 28.445312 28.105469 27.855469 28.695312 27.121094 28.695312 L 19.84375 28.695312 Z M 19.84375 3.558594 "/>
</g>
</svg>
