<?xml version="1.0" encoding="UTF-8"?>
<svg xmlns="http://www.w3.org/2000/svg" xmlns:xlink="http://www.w3.org/1999/xlink" width="32pt" height="32pt" viewBox="0 0 32 32" version="1.1">
<g id="surface1">
<path style=" stroke:none;fill-rule:nonzero;fill:rgb(74.117649%,74.117649%,74.117649%);fill-opacity:1;" d="M 30.429688 30.679688 L 30.429688 16.125 L 27.785156 16.125 L 27.785156 28.035156 L 19.84375 28.035156 L 19.84375 30.679688 Z M 3.96875 12.15625 L 3.96875 4.21875 L 15.875 4.21875 L 15.875 1.574219 L 1.324219 1.574219 L 1.324219 12.15625 Z M 3.96875 12.15625 "/>
<path style=" stroke:none;fill-rule:nonzero;fill:rgb(74.117649%,74.117649%,74.117649%);fill-opacity:1;" d="M 14.554688 30.679688 L 14.554688 17.449219 L 1.324219 17.449219 L 1.324219 30.679688 Z M 11.90625 28.035156 L 3.96875 28.035156 L 3.96875 20.09375 L 11.90625 20.09375 Z M 11.90625 28.035156 "/>
<path style=" stroke:none;fill-rule:evenodd;fill:rgb(74.117649%,74.117649%,74.117649%);fill-opacity:1;" d="M 17.199219 16.125 L 27.785156 9.511719 L 30.429688 12.15625 L 30.429688 1.574219 L 19.84375 1.574219 L 22.492188 4.21875 L 15.875 14.804688 Z M 17.199219 16.125 "/>
</g>
</svg>
