<?xml version="1.0" encoding="UTF-8"?>
<svg xmlns="http://www.w3.org/2000/svg" xmlns:xlink="http://www.w3.org/1999/xlink" width="512pt" height="512pt" viewBox="0 0 512 512" version="1.1">
<defs>
<linearGradient id="linear0" gradientUnits="userSpaceOnUse" x1="254" y1="233.5" x2="254" y2="254.666672" gradientTransform="matrix(1.000095,0,0,1.000095,-0.000061041,215.020562)">
<stop offset="0" style="stop-color:rgb(0%,0%,0%);stop-opacity:0.27451;"/>
<stop offset="1" style="stop-color:rgb(0%,0%,0%);stop-opacity:0;"/>
</linearGradient>
<radialGradient id="radial0" gradientUnits="userSpaceOnUse" cx="450.908936" cy="189.579361" fx="450.908936" fy="189.579361" r="21.166656" gradientTransform="matrix(0.00000278673,-1.250119,-2.250215,-0.00000162462,781.168722,1017.525321)">
<stop offset="0" style="stop-color:rgb(0%,0%,0%);stop-opacity:0.313725;"/>
<stop offset="0.222222" style="stop-color:rgb(0%,0%,0%);stop-opacity:0.27451;"/>
<stop offset="1" style="stop-color:rgb(0%,0%,0%);stop-opacity:0;"/>
</radialGradient>
<radialGradient id="radial1" gradientUnits="userSpaceOnUse" cx="450.908936" cy="189.579361" fx="450.908936" fy="189.579361" r="21.166656" gradientTransform="matrix(-0.00000278673,1.250119,2.250215,0.00000162462,-283.704519,-120.439662)">
<stop offset="0" style="stop-color:rgb(0%,0%,0%);stop-opacity:0.313725;"/>
<stop offset="0.222222" style="stop-color:rgb(0%,0%,0%);stop-opacity:0.27451;"/>
<stop offset="1" style="stop-color:rgb(0%,0%,0%);stop-opacity:0;"/>
</radialGradient>
<radialGradient id="radial2" gradientUnits="userSpaceOnUse" cx="450.908936" cy="189.579361" fx="450.908936" fy="189.579361" r="21.166656" gradientTransform="matrix(-0.00000278673,-1.250119,2.250215,-0.00000162462,-283.704519,1017.525321)">
<stop offset="0" style="stop-color:rgb(0%,0%,0%);stop-opacity:0.313725;"/>
<stop offset="0.222222" style="stop-color:rgb(0%,0%,0%);stop-opacity:0.27451;"/>
<stop offset="1" style="stop-color:rgb(0%,0%,0%);stop-opacity:0;"/>
</radialGradient>
<radialGradient id="radial3" gradientUnits="userSpaceOnUse" cx="450.908936" cy="189.579361" fx="450.908936" fy="189.579361" r="21.166656" gradientTransform="matrix(0.00000278673,1.250119,-2.250215,0.00000162462,781.168692,-120.43967)">
<stop offset="0" style="stop-color:rgb(0%,0%,0%);stop-opacity:0.313725;"/>
<stop offset="0.222222" style="stop-color:rgb(0%,0%,0%);stop-opacity:0.27451;"/>
<stop offset="1" style="stop-color:rgb(0%,0%,0%);stop-opacity:0;"/>
</radialGradient>
<filter id="alpha" filterUnits="objectBoundingBox" x="0%" y="0%" width="100%" height="100%">
  <feColorMatrix type="matrix" in="SourceGraphic" values="0 0 0 0 1 0 0 0 0 1 0 0 0 0 1 0 0 0 1 0"/>
</filter>
<mask id="mask0">
  <g filter="url(#alpha)">
<rect x="0" y="0" width="512" height="512" style="fill:rgb(0%,0%,0%);fill-opacity:0.988235;stroke:none;"/>
  </g>
</mask>
<linearGradient id="linear1" gradientUnits="userSpaceOnUse" x1="940" y1="1695.118164" x2="940" y2="175.118118" gradientTransform="matrix(0.264609,0,0,0.264609,0,0)">
<stop offset="0" style="stop-color:rgb(93.333333%,93.333333%,93.333333%);stop-opacity:1;"/>
<stop offset="1" style="stop-color:rgb(96.078431%,96.078431%,96.078431%);stop-opacity:1;"/>
</linearGradient>
<clipPath id="clip1">
  <rect x="0" y="0" width="512" height="512"/>
</clipPath>
<g id="surface5" clip-path="url(#clip1)">
<path style=" stroke:none;fill-rule:nonzero;fill:url(#linear1);" d="M 116.429688 46.335938 C 104.699219 46.335938 95.257812 55.777344 95.257812 67.507812 L 95.257812 427.375 C 95.257812 439.101562 104.699219 448.542969 116.429688 448.542969 L 381.035156 448.542969 C 392.765625 448.542969 402.203125 439.101562 402.203125 427.375 L 402.203125 141.597656 L 306.945312 46.335938 Z M 328.113281 46.335938 L 402.203125 120.429688 L 402.203125 67.507812 C 402.203125 55.777344 392.765625 46.335938 381.035156 46.335938 Z M 328.113281 46.335938 "/>
</g>
<mask id="mask1">
  <g filter="url(#alpha)">
<rect x="0" y="0" width="512" height="512" style="fill:rgb(0%,0%,0%);fill-opacity:0.988235;stroke:none;"/>
  </g>
</mask>
<linearGradient id="linear2" gradientUnits="userSpaceOnUse" x1="940" y1="1695.118164" x2="940" y2="175.118118" gradientTransform="matrix(0.264609,0,0,0.264609,0,0)">
<stop offset="0" style="stop-color:rgb(14.901961%,65.098039%,60.392157%);stop-opacity:1;"/>
<stop offset="1" style="stop-color:rgb(30.196078%,71.372549%,67.45098%);stop-opacity:1;"/>
</linearGradient>
<clipPath id="clip2">
  <rect x="0" y="0" width="512" height="512"/>
</clipPath>
<g id="surface8" clip-path="url(#clip2)">
<path style=" stroke:none;fill-rule:nonzero;fill:url(#linear2);" d="M 328.113281 46.335938 L 402.203125 120.429688 L 402.203125 67.507812 C 402.203125 55.777344 392.765625 46.335938 381.035156 46.335938 Z M 328.113281 46.335938 "/>
</g>
<mask id="mask2">
  <g filter="url(#alpha)">
<rect x="0" y="0" width="512" height="512" style="fill:rgb(0%,0%,0%);fill-opacity:0.988235;stroke:none;"/>
  </g>
</mask>
<clipPath id="clip3">
  <rect x="0" y="0" width="512" height="512"/>
</clipPath>
<g id="surface11" clip-path="url(#clip3)">
<path style=" stroke:none;fill-rule:nonzero;fill:rgb(100%,100%,100%);fill-opacity:0.392157;" d="M 116.429688 46.335938 C 104.699219 46.335938 95.257812 55.777344 95.257812 67.507812 L 95.257812 72.796875 C 95.257812 61.070312 104.699219 51.628906 116.429688 51.628906 L 306.945312 51.628906 L 402.203125 146.890625 L 402.203125 141.597656 L 306.945312 46.335938 Z M 328.113281 46.335938 L 333.40625 51.628906 L 381.035156 51.628906 C 392.765625 51.628906 402.203125 61.070312 402.203125 72.796875 L 402.203125 67.507812 C 402.203125 55.777344 392.765625 46.335938 381.035156 46.335938 Z M 328.113281 46.335938 "/>
</g>
<mask id="mask3">
  <g filter="url(#alpha)">
<rect x="0" y="0" width="512" height="512" style="fill:rgb(0%,0%,0%);fill-opacity:0.988235;stroke:none;"/>
  </g>
</mask>
<clipPath id="clip4">
  <rect x="0" y="0" width="512" height="512"/>
</clipPath>
<g id="surface14" clip-path="url(#clip4)">
<path style=" stroke:none;fill-rule:nonzero;fill:rgb(0%,0%,0%);fill-opacity:0.235294;" d="M 328.113281 46.335938 L 402.203125 120.429688 L 402.203125 112.574219 L 335.96875 46.335938 Z M 95.257812 419.519531 L 95.257812 427.375 C 95.257812 439.101562 104.699219 448.542969 116.429688 448.542969 L 381.035156 448.542969 C 392.765625 448.542969 402.203125 439.101562 402.203125 427.375 L 402.203125 419.519531 C 402.203125 431.246094 392.765625 440.691406 381.035156 440.691406 L 116.429688 440.691406 C 104.699219 440.691406 95.257812 431.246094 95.257812 419.519531 Z M 95.257812 419.519531 "/>
</g>
<mask id="mask4">
  <g filter="url(#alpha)">
<rect x="0" y="0" width="512" height="512" style="fill:rgb(0%,0%,0%);fill-opacity:0.988235;stroke:none;"/>
  </g>
</mask>
<clipPath id="clip5">
  <rect x="0" y="0" width="512" height="512"/>
</clipPath>
<g id="surface17" clip-path="url(#clip5)">
<path style=" stroke:none;fill-rule:nonzero;fill:rgb(12.941177%,12.941177%,12.941177%);fill-opacity:1;" d="M 116.429688 44.835938 C 103.894531 44.835938 93.757812 54.972656 93.757812 67.507812 L 93.757812 427.375 C 93.757812 439.90625 103.894531 450.042969 116.429688 450.042969 L 381.035156 450.042969 C 393.570312 450.042969 403.707031 439.90625 403.707031 427.375 L 403.707031 141.597656 C 403.707031 141.199219 403.546875 140.816406 403.265625 140.535156 L 308.007812 45.277344 C 307.726562 44.996094 307.34375 44.835938 306.945312 44.835938 Z M 328.113281 44.835938 C 327.507812 44.835938 326.960938 45.203125 326.726562 45.761719 C 326.496094 46.324219 326.625 46.96875 327.054688 47.398438 L 401.144531 121.488281 C 401.574219 121.917969 402.21875 122.046875 402.777344 121.8125 C 403.339844 121.582031 403.707031 121.035156 403.707031 120.429688 L 403.707031 67.507812 C 403.707031 54.972656 393.570312 44.835938 381.035156 44.835938 Z M 116.429688 47.835938 L 306.324219 47.835938 L 400.703125 142.21875 L 400.703125 427.375 C 400.703125 438.296875 391.957031 447.042969 381.035156 447.042969 L 116.429688 447.042969 C 105.503906 447.042969 96.757812 438.296875 96.757812 427.375 L 96.757812 67.507812 C 96.757812 56.582031 105.503906 47.835938 116.429688 47.835938 Z M 331.738281 47.835938 L 381.035156 47.835938 C 391.957031 47.835938 400.703125 56.582031 400.703125 67.507812 L 400.703125 116.804688 Z M 331.738281 47.835938 "/>
</g>
<linearGradient id="linear3" gradientUnits="userSpaceOnUse" x1="960" y1="1295.118164" x2="960" y2="775.118103" gradientTransform="matrix(0.264583,0,0,0.264583,-5.291674,-215.000015)">
<stop offset="0" style="stop-color:rgb(25.882353%,25.882353%,25.882353%);stop-opacity:1;"/>
<stop offset="1" style="stop-color:rgb(38.039216%,38.039216%,38.039216%);stop-opacity:1;"/>
</linearGradient>
<linearGradient id="linear4" gradientUnits="userSpaceOnUse" x1="306.916656" y1="-20.5" x2="306.916656" y2="-62.833332" gradientTransform="matrix(0.75,0,0,0.75,76.729065,-15.70859)">
<stop offset="0" style="stop-color:rgb(93.72549%,32.54902%,31.372549%);stop-opacity:1;"/>
<stop offset="1" style="stop-color:rgb(89.803922%,45.098039%,45.098039%);stop-opacity:1;"/>
</linearGradient>
<linearGradient id="linear5" gradientUnits="userSpaceOnUse" x1="254" y1="-20.5" x2="254" y2="-62.833332" gradientTransform="matrix(0.75,0,0,0.75,58.208275,-15.70859)">
<stop offset="0" style="stop-color:rgb(25.882353%,64.705882%,96.078431%);stop-opacity:1;"/>
<stop offset="1" style="stop-color:rgb(39.215686%,70.980392%,96.470588%);stop-opacity:1;"/>
</linearGradient>
<linearGradient id="linear6" gradientUnits="userSpaceOnUse" x1="201.083328" y1="-20.5" x2="201.083328" y2="-62.833332" gradientTransform="matrix(0.75,0,0,0.75,39.687508,-15.70859)">
<stop offset="0" style="stop-color:rgb(61.176471%,80%,39.607843%);stop-opacity:1;"/>
<stop offset="1" style="stop-color:rgb(68.235294%,83.529412%,50.588235%);stop-opacity:1;"/>
</linearGradient>
</defs>
<g id="surface1">
<path style=" stroke:none;fill-rule:nonzero;fill:url(#linear0);" d="M 137.597656 448.542969 L 359.867188 448.542969 L 359.867188 469.710938 L 137.597656 469.710938 Z M 137.597656 448.542969 "/>
<path style=" stroke:none;fill-rule:nonzero;fill:url(#radial0);" d="M 359.867188 448.542969 L 402.207031 448.542969 L 402.207031 427.375 L 359.867188 427.375 Z M 359.867188 448.542969 "/>
<path style=" stroke:none;fill-rule:nonzero;fill:url(#radial1);" d="M 137.597656 448.542969 L 95.257812 448.542969 L 95.257812 469.710938 L 137.597656 469.710938 Z M 137.597656 448.542969 "/>
<path style=" stroke:none;fill-rule:nonzero;fill:url(#radial2);" d="M 137.597656 448.542969 L 95.257812 448.542969 L 95.257812 427.375 L 137.597656 427.375 Z M 137.597656 448.542969 "/>
<path style=" stroke:none;fill-rule:nonzero;fill:url(#radial3);" d="M 359.867188 448.542969 L 402.207031 448.542969 L 402.207031 469.710938 L 359.867188 469.710938 Z M 359.867188 448.542969 "/>
<use xlink:href="#surface5" mask="url(#mask0)"/>
<use xlink:href="#surface8" mask="url(#mask1)"/>
<use xlink:href="#surface11" mask="url(#mask2)"/>
<use xlink:href="#surface14" mask="url(#mask3)"/>
<use xlink:href="#surface17" mask="url(#mask4)"/>
<path style="fill-rule:nonzero;fill:url(#linear3);stroke-width:3;stroke-linecap:square;stroke-linejoin:round;stroke:rgb(12.941177%,12.941177%,12.941177%);stroke-opacity:1;stroke-miterlimit:4;" d="M 185.208876 -9.918022 C 179.346155 -9.918022 174.623949 -5.195817 174.623949 0.666905 L 174.623949 21.832852 C 174.623949 27.695574 179.346155 32.417779 185.208876 32.417779 L 227.540771 32.417779 L 227.540771 117.085475 C 227.540771 122.948196 232.262976 127.666496 238.125698 127.666496 L 259.291645 127.666496 C 265.154367 127.666496 269.876572 122.948196 269.876572 117.085475 L 269.876572 32.417779 L 312.208467 32.417779 C 318.071188 32.417779 322.793394 27.695574 322.793394 21.832852 L 322.793394 0.666905 C 322.793394 -5.195817 318.071188 -9.918022 312.208467 -9.918022 Z M 185.208876 -9.918022 " transform="matrix(1.000095,0,0,1.000095,0,215.020531)"/>
<path style="fill-rule:nonzero;fill:url(#linear4);stroke-width:3;stroke-linecap:square;stroke-linejoin:round;stroke:rgb(12.941177%,12.941177%,12.941177%);stroke-opacity:1;stroke-miterlimit:4;" d="M 298.979261 -62.834844 L 314.852746 -62.834844 C 319.239045 -62.834844 322.793394 -59.280495 322.793394 -54.894196 L 322.793394 -39.020711 C 322.793394 -34.638317 319.239045 -31.083969 314.852746 -31.083969 L 298.979261 -31.083969 C 294.596867 -31.083969 291.042519 -34.638317 291.042519 -39.020711 L 291.042519 -54.894196 C 291.042519 -59.280495 294.596867 -62.834844 298.979261 -62.834844 Z M 298.979261 -62.834844 " transform="matrix(1.000095,0,0,1.000095,0,215.020531)"/>
<path style="fill-rule:nonzero;fill:url(#linear5);stroke-width:3;stroke-linecap:square;stroke-linejoin:round;stroke:rgb(12.941177%,12.941177%,12.941177%);stroke-opacity:1;stroke-miterlimit:4;" d="M 240.769976 -62.834844 L 256.647366 -62.834844 C 261.02976 -62.834844 264.584108 -59.280495 264.584108 -54.894196 L 264.584108 -39.020711 C 264.584108 -34.638317 261.02976 -31.083969 256.647366 -31.083969 L 240.769976 -31.083969 C 236.387582 -31.083969 232.833234 -34.638317 232.833234 -39.020711 L 232.833234 -54.894196 C 232.833234 -59.280495 236.387582 -62.834844 240.769976 -62.834844 Z M 240.769976 -62.834844 " transform="matrix(1.000095,0,0,1.000095,0,215.020531)"/>
<path style="fill-rule:nonzero;fill:url(#linear6);stroke-width:3;stroke-linecap:square;stroke-linejoin:round;stroke:rgb(12.941177%,12.941177%,12.941177%);stroke-opacity:1;stroke-miterlimit:4;" d="M 182.560691 -62.834844 L 198.438081 -62.834844 C 202.820475 -62.834844 206.374823 -59.280495 206.374823 -54.894196 L 206.374823 -39.020711 C 206.374823 -34.638317 202.820475 -31.083969 198.438081 -31.083969 L 182.560691 -31.083969 C 178.178297 -31.083969 174.623949 -34.638317 174.623949 -39.020711 L 174.623949 -54.894196 C 174.623949 -59.280495 178.178297 -62.834844 182.560691 -62.834844 Z M 182.560691 -62.834844 " transform="matrix(1.000095,0,0,1.000095,0,215.020531)"/>
</g>
</svg>
