<svg xmlns="http://www.w3.org/2000/svg" width="128pt" height="128pt" viewBox="0 0 128 128"><defs><linearGradient id="a" gradientUnits="userSpaceOnUse" x1="254" y1="233.5" x2="254" y2="254.667" gradientTransform="matrix(.36707 0 0 .25002 -11.65 53.755)"><stop offset="0" stop-opacity=".275"/><stop offset="1" stop-opacity="0"/></linearGradient><radialGradient id="b" gradientUnits="userSpaceOnUse" cx="450.909" cy="189.579" fx="450.909" fy="189.579" r="21.167" gradientTransform="matrix(0 .31253 .44626 0 -65.232 -30.11)"><stop offset="0" stop-opacity=".314"/><stop offset=".222" stop-opacity=".275"/><stop offset="1" stop-opacity="0"/></radialGradient><radialGradient id="c" gradientUnits="userSpaceOnUse" cx="450.909" cy="189.579" fx="450.909" fy="189.579" r="21.167" gradientTransform="matrix(0 -.31253 .44626 0 -65.232 254.381)"><stop offset="0" stop-opacity=".314"/><stop offset=".222" stop-opacity=".275"/><stop offset="1" stop-opacity="0"/></radialGradient><radialGradient id="d" gradientUnits="userSpaceOnUse" cx="450.909" cy="189.579" fx="450.909" fy="189.579" r="21.167" gradientTransform="matrix(0 .31253 -.44626 0 104.924 -30.11)"><stop offset="0" stop-opacity=".314"/><stop offset=".222" stop-opacity=".275"/><stop offset="1" stop-opacity="0"/></radialGradient><radialGradient id="e" gradientUnits="userSpaceOnUse" cx="450.909" cy="189.579" fx="450.909" fy="189.579" r="21.167" gradientTransform="matrix(0 -.31253 -.44626 0 104.924 254.381)"><stop offset="0" stop-opacity=".314"/><stop offset=".222" stop-opacity=".275"/><stop offset="1" stop-opacity="0"/></radialGradient><linearGradient id="f" gradientUnits="userSpaceOnUse" x1="254" y1="233.5" x2="254" y2="254.667" gradientTransform="matrix(.36707 0 0 .25002 75.672 53.755)"><stop offset="0" stop-opacity=".275"/><stop offset="1" stop-opacity="0"/></linearGradient><radialGradient id="g" gradientUnits="userSpaceOnUse" cx="450.909" cy="189.579" fx="450.909" fy="189.579" r="21.167" gradientTransform="matrix(0 .31253 .44626 0 22.089 -30.11)"><stop offset="0" stop-opacity=".314"/><stop offset=".222" stop-opacity=".275"/><stop offset="1" stop-opacity="0"/></radialGradient><radialGradient id="h" gradientUnits="userSpaceOnUse" cx="450.909" cy="189.579" fx="450.909" fy="189.579" r="21.167" gradientTransform="matrix(0 -.31253 .44626 0 22.089 254.381)"><stop offset="0" stop-opacity=".314"/><stop offset=".222" stop-opacity=".275"/><stop offset="1" stop-opacity="0"/></radialGradient><radialGradient id="i" gradientUnits="userSpaceOnUse" cx="450.909" cy="189.579" fx="450.909" fy="189.579" r="21.167" gradientTransform="matrix(0 .31253 -.44626 0 192.244 -30.11)"><stop offset="0" stop-opacity=".314"/><stop offset=".222" stop-opacity=".275"/><stop offset="1" stop-opacity="0"/></radialGradient><radialGradient id="j" gradientUnits="userSpaceOnUse" cx="450.909" cy="189.579" fx="450.909" fy="189.579" r="21.167" gradientTransform="matrix(0 -.31253 -.44626 0 192.244 254.381)"><stop offset="0" stop-opacity=".314"/><stop offset=".222" stop-opacity=".275"/><stop offset="1" stop-opacity="0"/></radialGradient><linearGradient id="k" gradientUnits="userSpaceOnUse" x1="254" y1="233.5" x2="254" y2="254.667" gradientTransform="matrix(.19088 0 0 .25002 20.536 53.755)"><stop offset="0" stop-opacity=".275"/><stop offset="1" stop-opacity="0"/></linearGradient><radialGradient id="l" gradientUnits="userSpaceOnUse" cx="450.909" cy="189.579" fx="450.909" fy="189.579" r="21.167" gradientTransform="matrix(0 .31253 .23205 0 -7.328 -30.11)"><stop offset="0" stop-opacity=".314"/><stop offset=".222" stop-opacity=".275"/><stop offset="1" stop-opacity="0"/></radialGradient><radialGradient id="m" gradientUnits="userSpaceOnUse" cx="450.909" cy="189.579" fx="450.909" fy="189.579" r="21.167" gradientTransform="matrix(0 -.31253 .23205 0 -7.328 254.381)"><stop offset="0" stop-opacity=".314"/><stop offset=".222" stop-opacity=".275"/><stop offset="1" stop-opacity="0"/></radialGradient><radialGradient id="n" gradientUnits="userSpaceOnUse" cx="450.909" cy="189.579" fx="450.909" fy="189.579" r="21.167" gradientTransform="matrix(0 .31253 -.23205 0 81.153 -30.11)"><stop offset="0" stop-opacity=".314"/><stop offset=".222" stop-opacity=".275"/><stop offset="1" stop-opacity="0"/></radialGradient><radialGradient id="o" gradientUnits="userSpaceOnUse" cx="450.909" cy="189.579" fx="450.909" fy="189.579" r="21.167" gradientTransform="matrix(0 -.31253 -.23205 0 81.153 254.381)"><stop offset="0" stop-opacity=".314"/><stop offset=".222" stop-opacity=".275"/><stop offset="1" stop-opacity="0"/></radialGradient><linearGradient id="p" gradientUnits="userSpaceOnUse" x1="254" y1="233.5" x2="254" y2="254.667" gradientTransform="matrix(.19088 0 0 .25002 31.12 53.755)"><stop offset="0" stop-opacity=".275"/><stop offset="1" stop-opacity="0"/></linearGradient><radialGradient id="q" gradientUnits="userSpaceOnUse" cx="450.909" cy="189.579" fx="450.909" fy="189.579" r="21.167" gradientTransform="matrix(0 .31253 .23205 0 3.257 -30.11)"><stop offset="0" stop-opacity=".314"/><stop offset=".222" stop-opacity=".275"/><stop offset="1" stop-opacity="0"/></radialGradient><radialGradient id="r" gradientUnits="userSpaceOnUse" cx="450.909" cy="189.579" fx="450.909" fy="189.579" r="21.167" gradientTransform="matrix(0 -.31253 .23205 0 3.257 254.381)"><stop offset="0" stop-opacity=".314"/><stop offset=".222" stop-opacity=".275"/><stop offset="1" stop-opacity="0"/></radialGradient><radialGradient id="s" gradientUnits="userSpaceOnUse" cx="450.909" cy="189.579" fx="450.909" fy="189.579" r="21.167" gradientTransform="matrix(0 .31253 -.23205 0 91.738 -30.11)"><stop offset="0" stop-opacity=".314"/><stop offset=".222" stop-opacity=".275"/><stop offset="1" stop-opacity="0"/></radialGradient><radialGradient id="t" gradientUnits="userSpaceOnUse" cx="450.909" cy="189.579" fx="450.909" fy="189.579" r="21.167" gradientTransform="matrix(0 -.31253 -.23205 0 91.738 254.381)"><stop offset="0" stop-opacity=".314"/><stop offset=".222" stop-opacity=".275"/><stop offset="1" stop-opacity="0"/></radialGradient><linearGradient id="u" gradientUnits="userSpaceOnUse" x1="254" y1="233.5" x2="254" y2="254.667" gradientTransform="matrix(.19088 0 0 .25002 41.704 53.755)"><stop offset="0" stop-opacity=".275"/><stop offset="1" stop-opacity="0"/></linearGradient><radialGradient id="v" gradientUnits="userSpaceOnUse" cx="450.909" cy="189.579" fx="450.909" fy="189.579" r="21.167" gradientTransform="matrix(0 .31253 .23205 0 13.841 -30.11)"><stop offset="0" stop-opacity=".314"/><stop offset=".222" stop-opacity=".275"/><stop offset="1" stop-opacity="0"/></radialGradient><radialGradient id="w" gradientUnits="userSpaceOnUse" cx="450.909" cy="189.579" fx="450.909" fy="189.579" r="21.167" gradientTransform="matrix(0 -.31253 .23205 0 13.841 254.381)"><stop offset="0" stop-opacity=".314"/><stop offset=".222" stop-opacity=".275"/><stop offset="1" stop-opacity="0"/></radialGradient><radialGradient id="x" gradientUnits="userSpaceOnUse" cx="450.909" cy="189.579" fx="450.909" fy="189.579" r="21.167" gradientTransform="matrix(0 .31253 -.23205 0 102.322 -30.11)"><stop offset="0" stop-opacity=".314"/><stop offset=".222" stop-opacity=".275"/><stop offset="1" stop-opacity="0"/></radialGradient><radialGradient id="y" gradientUnits="userSpaceOnUse" cx="450.909" cy="189.579" fx="450.909" fy="189.579" r="21.167" gradientTransform="matrix(0 -.31253 -.23205 0 102.322 254.381)"><stop offset="0" stop-opacity=".314"/><stop offset=".222" stop-opacity=".275"/><stop offset="1" stop-opacity="0"/></radialGradient><linearGradient id="z" gradientUnits="userSpaceOnUse" x1="254" y1="233.5" x2="254" y2="254.667" gradientTransform="matrix(.19088 0 0 .25002 52.289 53.755)"><stop offset="0" stop-opacity=".275"/><stop offset="1" stop-opacity="0"/></linearGradient><radialGradient id="A" gradientUnits="userSpaceOnUse" cx="450.909" cy="189.579" fx="450.909" fy="189.579" r="21.167" gradientTransform="matrix(0 .31253 .23205 0 24.425 -30.11)"><stop offset="0" stop-opacity=".314"/><stop offset=".222" stop-opacity=".275"/><stop offset="1" stop-opacity="0"/></radialGradient><radialGradient id="B" gradientUnits="userSpaceOnUse" cx="450.909" cy="189.579" fx="450.909" fy="189.579" r="21.167" gradientTransform="matrix(0 -.31253 .23205 0 24.425 254.381)"><stop offset="0" stop-opacity=".314"/><stop offset=".222" stop-opacity=".275"/><stop offset="1" stop-opacity="0"/></radialGradient><radialGradient id="C" gradientUnits="userSpaceOnUse" cx="450.909" cy="189.579" fx="450.909" fy="189.579" r="21.167" gradientTransform="matrix(0 .31253 -.23205 0 112.906 -30.11)"><stop offset="0" stop-opacity=".314"/><stop offset=".222" stop-opacity=".275"/><stop offset="1" stop-opacity="0"/></radialGradient><radialGradient id="D" gradientUnits="userSpaceOnUse" cx="450.909" cy="189.579" fx="450.909" fy="189.579" r="21.167" gradientTransform="matrix(0 -.31253 -.23205 0 112.906 254.381)"><stop offset="0" stop-opacity=".314"/><stop offset=".222" stop-opacity=".275"/><stop offset="1" stop-opacity="0"/></radialGradient><linearGradient id="E" gradientUnits="userSpaceOnUse" x1="254" y1="233.5" x2="254" y2="254.667" gradientTransform="matrix(.19088 0 0 .25002 62.873 53.755)"><stop offset="0" stop-opacity=".275"/><stop offset="1" stop-opacity="0"/></linearGradient><radialGradient id="F" gradientUnits="userSpaceOnUse" cx="450.909" cy="189.579" fx="450.909" fy="189.579" r="21.167" gradientTransform="matrix(0 .31253 .23205 0 35.01 -30.11)"><stop offset="0" stop-opacity=".314"/><stop offset=".222" stop-opacity=".275"/><stop offset="1" stop-opacity="0"/></radialGradient><radialGradient id="G" gradientUnits="userSpaceOnUse" cx="450.909" cy="189.579" fx="450.909" fy="189.579" r="21.167" gradientTransform="matrix(0 -.31253 .23205 0 35.01 254.381)"><stop offset="0" stop-opacity=".314"/><stop offset=".222" stop-opacity=".275"/><stop offset="1" stop-opacity="0"/></radialGradient><radialGradient id="H" gradientUnits="userSpaceOnUse" cx="450.909" cy="189.579" fx="450.909" fy="189.579" r="21.167" gradientTransform="matrix(0 .31253 -.23205 0 123.49 -30.11)"><stop offset="0" stop-opacity=".314"/><stop offset=".222" stop-opacity=".275"/><stop offset="1" stop-opacity="0"/></radialGradient><radialGradient id="I" gradientUnits="userSpaceOnUse" cx="450.909" cy="189.579" fx="450.909" fy="189.579" r="21.167" gradientTransform="matrix(0 -.31253 -.23205 0 123.49 254.381)"><stop offset="0" stop-opacity=".314"/><stop offset=".222" stop-opacity=".275"/><stop offset="1" stop-opacity="0"/></radialGradient><linearGradient id="J" gradientUnits="userSpaceOnUse" x1="254" y1="233.5" x2="254" y2="254.667" gradientTransform="matrix(.19088 0 0 .25002 73.457 53.755)"><stop offset="0" stop-opacity=".275"/><stop offset="1" stop-opacity="0"/></linearGradient><radialGradient id="K" gradientUnits="userSpaceOnUse" cx="450.909" cy="189.579" fx="450.909" fy="189.579" r="21.167" gradientTransform="matrix(0 .31253 .23205 0 45.594 -30.11)"><stop offset="0" stop-opacity=".314"/><stop offset=".222" stop-opacity=".275"/><stop offset="1" stop-opacity="0"/></radialGradient><radialGradient id="L" gradientUnits="userSpaceOnUse" cx="450.909" cy="189.579" fx="450.909" fy="189.579" r="21.167" gradientTransform="matrix(0 -.31253 .23205 0 45.594 254.381)"><stop offset="0" stop-opacity=".314"/><stop offset=".222" stop-opacity=".275"/><stop offset="1" stop-opacity="0"/></radialGradient><radialGradient id="M" gradientUnits="userSpaceOnUse" cx="450.909" cy="189.579" fx="450.909" fy="189.579" r="21.167" gradientTransform="matrix(0 .31253 -.23205 0 134.075 -30.11)"><stop offset="0" stop-opacity=".314"/><stop offset=".222" stop-opacity=".275"/><stop offset="1" stop-opacity="0"/></radialGradient><radialGradient id="N" gradientUnits="userSpaceOnUse" cx="450.909" cy="189.579" fx="450.909" fy="189.579" r="21.167" gradientTransform="matrix(0 -.31253 -.23205 0 134.075 254.381)"><stop offset="0" stop-opacity=".314"/><stop offset=".222" stop-opacity=".275"/><stop offset="1" stop-opacity="0"/></radialGradient><linearGradient id="O" gradientUnits="userSpaceOnUse" x1="254" y1="233.5" x2="254" y2="-168.667" gradientTransform="matrix(.25002 0 0 .25002 0 53.755)"><stop offset="0" stop-color="#ef5350"/><stop offset="1" stop-color="#e57373"/></linearGradient></defs><path d="M18.32 112.137h3.051v5.293h-3.05zm0 0" fill="url(#a)"/><path d="M18.32 112.137H9.922v5.293h8.398zm0 0" fill="url(#b)"/><path d="M18.32 112.137H9.922v-5.293h8.398zm0 0" fill="url(#c)"/><path d="M21.371 112.137h8.399v5.293H21.37zm0 0" fill="url(#d)"/><path d="M21.371 112.137h8.399v-5.293H21.37zm0 0" fill="url(#e)"/><path d="M105.64 112.137h3.051v5.293h-3.05zm0 0" fill="url(#f)"/><path d="M105.64 112.137h-8.398v5.293h8.399zm0 0" fill="url(#g)"/><path d="M105.64 112.137h-8.398v-5.293h8.399zm0 0" fill="url(#h)"/><path d="M108.691 112.137h8.399v5.293h-8.399zm0 0" fill="url(#i)"/><path d="M108.691 112.137h8.399v-5.293h-8.399zm0 0" fill="url(#j)"/><path d="M36.117 112.137h1.59v5.293h-1.59zm0 0" fill="url(#k)"/><path d="M36.117 112.137h-4.363v5.293h4.363zm0 0" fill="url(#l)"/><path d="M36.117 112.137h-4.363v-5.293h4.363zm0 0" fill="url(#m)"/><path d="M37.707 112.137h4.367v5.293h-4.367zm0 0" fill="url(#n)"/><path d="M37.707 112.137h4.367v-5.293h-4.367zm0 0" fill="url(#o)"/><path d="M46.703 112.137h1.59v5.293h-1.59zm0 0" fill="url(#p)"/><path d="M46.703 112.137h-4.367v5.293h4.367zm0 0" fill="url(#q)"/><path d="M46.703 112.137h-4.367v-5.293h4.367zm0 0" fill="url(#r)"/><path d="M48.293 112.137h4.363v5.293h-4.363zm0 0" fill="url(#s)"/><path d="M48.293 112.137h4.363v-5.293h-4.363zm0 0" fill="url(#t)"/><path d="M57.29 112.137h1.585v5.293h-1.586zm0 0" fill="url(#u)"/><path d="M57.29 112.137h-4.368v5.293h4.367zm0 0" fill="url(#v)"/><path d="M57.29 112.137h-4.368v-5.293h4.367zm0 0" fill="url(#w)"/><path d="M58.875 112.137h4.367v5.293h-4.367zm0 0" fill="url(#x)"/><path d="M58.875 112.137h4.367v-5.293h-4.367zm0 0" fill="url(#y)"/><path d="M67.871 112.137h1.59v5.293h-1.59zm0 0" fill="url(#z)"/><path d="M67.871 112.137h-4.363v5.293h4.363zm0 0" fill="url(#A)"/><path d="M67.871 112.137h-4.363v-5.293h4.363zm0 0" fill="url(#B)"/><path d="M69.46 112.137h4.364v5.293h-4.363zm0 0" fill="url(#C)"/><path d="M69.46 112.137h4.364v-5.293h-4.363zm0 0" fill="url(#D)"/><path d="M78.457 112.137h1.586v5.293h-1.586zm0 0" fill="url(#E)"/><path d="M78.457 112.137H74.09v5.293h4.367zm0 0" fill="url(#F)"/><path d="M78.457 112.137H74.09v-5.293h4.367zm0 0" fill="url(#G)"/><path d="M80.043 112.137h4.367v5.293h-4.367zm0 0" fill="url(#H)"/><path d="M80.043 112.137h4.367v-5.293h-4.367zm0 0" fill="url(#I)"/><path d="M89.04 112.137h1.589v5.293h-1.59zm0 0" fill="url(#J)"/><path d="M89.04 112.137h-4.364v5.293h4.363zm0 0" fill="url(#K)"/><path d="M89.04 112.137h-4.364v-5.293h4.363zm0 0" fill="url(#L)"/><path d="M90.629 112.137h4.367v5.293H90.63zm0 0" fill="url(#M)"/><path d="M90.629 112.137h4.367v-5.293H90.63zm0 0" fill="url(#N)"/><path d="M63.465 11.586a2.642 2.642 0 0 0-2.297 1.41l-50.277 95.258c-.926 1.762.347 3.879 2.34 3.879h15.874V101.55a2.64 2.64 0 0 1 2.649-2.645 2.639 2.639 0 0 1 2.644 2.645v10.582h5.293V90.969a2.64 2.64 0 0 1 2.645-2.649 2.64 2.64 0 0 1 2.648 2.649v21.164h5.293v-31.75a2.639 2.639 0 0 1 2.645-2.645 2.639 2.639 0 0 1 2.644 2.645v31.75h5.293V88.32a2.64 2.64 0 0 1 2.649-2.644 2.639 2.639 0 0 1 2.644 2.644v23.813h5.293V96.258a2.639 2.639 0 0 1 2.645-2.645 2.642 2.642 0 0 1 2.648 2.645v15.875h5.29V101.55a2.64 2.64 0 0 1 2.648-2.645 2.639 2.639 0 0 1 2.644 2.645v10.582h5.293v-5.29a2.639 2.639 0 0 1 2.645-2.644 2.64 2.64 0 0 1 2.648 2.645v5.289h15.875c1.992 0 3.27-2.117 2.34-3.88L65.844 12.997a2.645 2.645 0 0 0-2.38-1.41zm0 0" fill="url(#O)"/><path d="M63.465 11.586a2.642 2.642 0 0 0-2.297 1.41l-50.277 95.258a2.62 2.62 0 0 0-.258 1.73c.047-.25.133-.496.258-.738l50.277-95.258a2.634 2.634 0 0 1 2.297-1.41 2.638 2.638 0 0 1 2.379 1.41l50.277 95.258c.125.242.211.488.258.738a2.62 2.62 0 0 0-.258-1.73L65.844 12.996a2.645 2.645 0 0 0-2.38-1.41zm0 0" fill="#fff" fill-opacity=".392"/><path d="M52.922 76.746a2.639 2.639 0 0 0-2.645 2.645v.992a2.639 2.639 0 0 1 2.645-2.645 2.639 2.639 0 0 1 2.644 2.645v-.992a2.639 2.639 0 0 0-2.644-2.645zm10.586 7.938a2.64 2.64 0 0 0-2.649 2.644v.992a2.64 2.64 0 0 1 2.649-2.644 2.639 2.639 0 0 1 2.644 2.644v-.992a2.639 2.639 0 0 0-2.644-2.644zm-21.172 2.644a2.642 2.642 0 0 0-2.645 2.649v.992a2.64 2.64 0 0 1 2.645-2.649 2.64 2.64 0 0 1 2.648 2.649v-.992a2.643 2.643 0 0 0-2.648-2.649zm31.754 5.293a2.64 2.64 0 0 0-2.645 2.649v.988a2.639 2.639 0 0 1 2.645-2.645 2.642 2.642 0 0 1 2.648 2.645v-.988a2.643 2.643 0 0 0-2.648-2.649zm-42.336 5.293a2.64 2.64 0 0 0-2.649 2.645v.992a2.64 2.64 0 0 1 2.649-2.645 2.639 2.639 0 0 1 2.644 2.645v-.992a2.639 2.639 0 0 0-2.644-2.645zm52.922 0a2.64 2.64 0 0 0-2.649 2.645v.992a2.64 2.64 0 0 1 2.649-2.645 2.639 2.639 0 0 1 2.644 2.645v-.992a2.639 2.639 0 0 0-2.644-2.645zm10.582 5.293a2.639 2.639 0 0 0-2.645 2.645v.992a2.639 2.639 0 0 1 2.645-2.645 2.64 2.64 0 0 1 2.648 2.645v-.992a2.64 2.64 0 0 0-2.648-2.645zm-84.625 5.785c-.305 1.567.879 3.14 2.597 3.14h15.875v-.987H13.23c-1.351 0-2.37-.977-2.597-2.153zm105.746 0c-.227 1.176-1.246 2.153-2.598 2.153H97.906v.988h15.875c1.719 0 2.903-1.574 2.598-3.14zm-81.98 2.153v.988h5.292v-.988zm10.585 0v.988h5.293v-.988zm10.582 0v.988h5.293v-.988zm10.586 0v.988h5.293v-.988zm10.586 0v.988h5.29v-.988zm10.582 0v.988h5.293v-.988zm0 0" fill-opacity=".235"/><path d="M63.46 11.21a3.027 3.027 0 0 0-2.624 1.61l-50.277 95.262c-1.051 1.996.414 4.426 2.671 4.426h15.875a.375.375 0 0 0 .375-.375V101.55a2.257 2.257 0 0 1 2.274-2.27 2.254 2.254 0 0 1 2.27 2.27v10.582c0 .207.167.375.374.375h5.293a.375.375 0 0 0 .375-.375V90.969a2.26 2.26 0 0 1 2.27-2.274 2.26 2.26 0 0 1 2.273 2.274v21.164c0 .207.168.375.375.375h5.293a.375.375 0 0 0 .375-.375v-31.75a2.254 2.254 0 0 1 2.27-2.27 2.254 2.254 0 0 1 2.27 2.27v31.75c0 .207.167.375.374.375h5.293a.375.375 0 0 0 .375-.375V88.32a2.257 2.257 0 0 1 2.274-2.27 2.257 2.257 0 0 1 2.27 2.27v23.813c0 .207.167.375.374.375h5.293a.375.375 0 0 0 .375-.375V96.258a2.257 2.257 0 0 1 2.27-2.27 2.26 2.26 0 0 1 2.273 2.27v15.875c0 .207.168.375.375.375h5.29a.375.375 0 0 0 .374-.375V101.55a2.257 2.257 0 0 1 2.274-2.27 2.257 2.257 0 0 1 2.27 2.27v10.582c0 .207.167.375.374.375h5.293a.375.375 0 0 0 .375-.375v-5.29a2.257 2.257 0 0 1 2.27-2.269 2.257 2.257 0 0 1 2.273 2.27v5.289c0 .207.168.375.375.375h15.875c2.258 0 3.723-2.43 2.672-4.426L66.176 12.82a3.018 3.018 0 0 0-2.715-1.61zm.013.75a2.262 2.262 0 0 1 2.039 1.212l50.277 95.258a2.258 2.258 0 0 1-2.008 3.328h-15.5v-4.914a3.022 3.022 0 0 0-6.043 0v4.914h-4.543V101.55a3.022 3.022 0 0 0-6.043 0v10.207h-4.539v-15.5a3.022 3.022 0 0 0-6.043 0v15.5h-4.543V88.32a3.022 3.022 0 0 0-6.043 0v23.438h-4.543V80.383a3.02 3.02 0 1 0-6.039 0v31.375H45.36v-20.79a3.026 3.026 0 0 0-3.023-3.023 3.025 3.025 0 0 0-3.02 3.024v20.789h-4.543V101.55a3.022 3.022 0 0 0-6.043 0v10.207h-15.5a2.258 2.258 0 0 1-2.007-3.328L61.5 13.172a2.263 2.263 0 0 1 1.973-1.211zm0 0" fill="#212121"/></svg>