<svg xmlns="http://www.w3.org/2000/svg" width="128pt" height="128pt" viewBox="0 0 128 128"><defs><radialGradient id="a" gradientUnits="userSpaceOnUse" cx="450.909" cy="189.579" fx="450.909" fy="189.579" r="21.167" gradientTransform="matrix(0 -.27346 -.79383 0 216.1 237.262)"><stop offset="0" stop-opacity=".314"/><stop offset=".222" stop-opacity=".275"/><stop offset="1" stop-opacity="0"/></radialGradient><radialGradient id="b" gradientUnits="userSpaceOnUse" cx="450.909" cy="189.579" fx="450.909" fy="189.579" r="21.167" gradientTransform="matrix(0 .27346 .79383 0 -88.618 -11.668)"><stop offset="0" stop-opacity=".314"/><stop offset=".222" stop-opacity=".275"/><stop offset="1" stop-opacity="0"/></radialGradient><radialGradient id="c" gradientUnits="userSpaceOnUse" cx="450.909" cy="189.579" fx="450.909" fy="189.579" r="21.167" gradientTransform="matrix(0 -.27346 .79383 0 -88.618 237.262)"><stop offset="0" stop-opacity=".314"/><stop offset=".222" stop-opacity=".275"/><stop offset="1" stop-opacity="0"/></radialGradient><radialGradient id="d" gradientUnits="userSpaceOnUse" cx="450.909" cy="189.579" fx="450.909" fy="189.579" r="21.167" gradientTransform="matrix(0 .27346 -.79383 0 216.1 -11.668)"><stop offset="0" stop-opacity=".314"/><stop offset=".222" stop-opacity=".275"/><stop offset="1" stop-opacity="0"/></radialGradient><linearGradient id="e" gradientUnits="userSpaceOnUse" x1="255.323" y1="233.5" x2="255.323" y2="254.667" gradientTransform="matrix(.07541 0 0 .21877 44.487 61.714)"><stop offset="0" stop-opacity=".275"/><stop offset="1" stop-opacity="0"/></linearGradient><linearGradient id="f" gradientUnits="userSpaceOnUse" x1="254" y1="233.5" x2="254" y2="-41.667" gradientTransform="matrix(.25002 0 0 .25002 0 53.755)"><stop offset="0" stop-color="#424242"/><stop offset="1" stop-color="#757575"/></linearGradient><linearGradient id="g" gradientUnits="userSpaceOnUse" x1="116.417" y1="-41.667" x2="402.167" y2="-41.667" gradientTransform="matrix(.25002 0 0 .25002 0 53.755)"><stop offset="0" stop-color="#424242"/><stop offset="1" stop-color="#757575"/></linearGradient><linearGradient id="h" gradientUnits="userSpaceOnUse" x1="254" y1="233.5" x2="254" y2="-168.667" gradientTransform="matrix(.25002 0 0 .25002 0 53.755)"><stop offset="0" stop-color="#424242"/><stop offset="1" stop-color="#757575"/></linearGradient><linearGradient id="i" gradientUnits="userSpaceOnUse" x1="254" y1="-126.333" x2="254" y2="-168.667"><stop offset="0" stop-color="#424242"/><stop offset="1" stop-color="#757575"/></linearGradient><linearGradient id="j" gradientUnits="userSpaceOnUse" x1="254" y1="-126.333" x2="254" y2="-168.667" gradientTransform="matrix(.875 0 0 .875 31.75 -15.792)"><stop offset="0" stop-color="#424242"/><stop offset="1" stop-color="#757575"/></linearGradient></defs><path d="M67.477 112.797H82.41v-4.629H67.477zm0 0" fill="url(#a)"/><path d="M60.008 112.797H45.07v4.633h14.938zm0 0" fill="url(#b)"/><path d="M60.008 112.797H45.07v-4.629h14.938zm0 0" fill="url(#c)"/><path d="M67.477 112.797H82.41v4.633H67.477zm0 0" fill="url(#d)"/><path d="M60.008 111.64h7.469v5.79h-7.47zm0 0" fill="url(#e)"/><path d="M63.508 43.336c18.996 0 34.398 11.848 34.398 26.46v15.88c0 14.613-15.402 26.46-34.398 26.46-19 0-34.403-11.847-34.403-26.46v-15.88c0-14.612 15.403-26.46 34.403-26.46zm0 0" fill="url(#f)"/><path d="M63.508 43.336c-19.059 0-34.403 11.805-34.403 26.46v2.65c0-14.66 15.344-26.462 34.403-26.462 19.054 0 34.398 11.801 34.398 26.461v-2.648c0-14.656-15.344-26.461-34.398-26.461zm0 0" fill="#fff" fill-opacity=".235"/><path d="M63.508 42.96c-9.61 0-18.285 2.974-24.578 7.813-6.29 4.84-10.2 11.563-10.2 19.024v15.879c0 7.46 3.91 14.183 10.2 19.023 6.293 4.84 14.968 7.813 24.578 7.813 9.605 0 18.281-2.973 24.574-7.813 6.29-4.84 10.2-11.562 10.2-19.023v-15.88c0-7.46-3.91-14.183-10.2-19.023-6.293-4.84-14.969-7.812-24.574-7.812zm0 .75c9.449 0 17.972 2.93 24.117 7.657s9.906 11.23 9.906 18.43v15.879c0 7.199-3.761 13.703-9.906 18.43-6.145 4.726-14.668 7.656-24.117 7.656-9.453 0-17.977-2.93-24.121-7.657-6.14-4.726-9.907-11.23-9.907-18.43V69.798c0-7.2 3.766-13.703 9.907-18.43 6.144-4.726 14.668-7.656 24.12-7.656zm0 0" fill="#212121"/><path d="M38.75 58.074c2.918-3.629 6.68-5.437 8.402-4.039 1.727 1.399.758 5.477-2.16 9.106-2.918 3.632-6.68 5.441-8.402 4.039-1.727-1.399-.758-5.477 2.16-9.106zm0 0" fill="#fff" fill-opacity=".235"/><path d="M63.508 47.305c7.304 0 13.23 1.777 13.23 3.972 0 2.192-5.925 3.97-13.23 3.97-7.309 0-13.23-1.778-13.23-3.97 0-2.195 5.921-3.972 13.23-3.972zm0 0" fill="#e0e0e0" fill-opacity=".235"/><path d="M63.508 24.816c5.844 0 10.582 1.184 10.582 2.645v23.816c0 1.461-4.738 2.645-10.582 2.645-5.848 0-10.586-1.184-10.586-2.645V27.461c0-1.461 4.738-2.645 10.586-2.645zm0 0" fill="url(#g)"/><path d="M52.922 30.105v2.649c0 1.465 4.719 2.644 10.586 2.644 5.863 0 10.582-1.18 10.582-2.644v-2.649c0 1.47-4.719 2.649-10.582 2.649-5.867 0-10.586-1.18-10.586-2.649zm0 0" fill="#1b1b1b" fill-opacity=".235"/><path d="M63.508 24.441c-2.957 0-5.63.293-7.586.782-.977.246-1.777.535-2.363.882-.586.348-1.012.79-1.012 1.356v23.816c0 .567.426 1.004 1.012 1.352.586.348 1.386.64 2.363.883 1.957.488 4.629.785 7.586.785 2.957 0 5.625-.297 7.582-.785.976-.242 1.777-.535 2.363-.883.586-.348 1.012-.785 1.012-1.352V27.461c0-.566-.426-1.008-1.012-1.356-.586-.347-1.387-.636-2.363-.882-1.957-.489-4.625-.782-7.582-.782zm0 .75c2.906 0 5.527.293 7.398.762.934.235 1.68.512 2.164.797.48.29.645.547.645.71v23.817c0 .164-.164.422-.645.707-.484.286-1.23.567-2.164.801-1.87.469-4.492.762-7.398.762-2.91 0-5.531-.293-7.403-.762-.933-.234-1.68-.515-2.164-.8-.48-.286-.644-.544-.644-.708V27.461c0-.164.164-.422.644-.711.485-.285 1.23-.563 2.164-.797 1.872-.469 4.493-.762 7.403-.762zm0 0" fill="#212121"/><path d="M58.215 11.586h10.582c11.691 0 21.172 2.367 21.172 5.289v10.586c0 2.922-9.48 5.293-21.172 5.293H58.215c-11.692 0-21.168-2.371-21.168-5.293V16.875c0-2.922 9.476-5.29 21.168-5.29zm0 0" fill="url(#h)"/><path d="M232.837-168.66c-46.902 0-84.664 9.436-84.664 21.154 0 11.733 37.762 21.17 84.664 21.17h42.324c46.918 0 84.68-9.437 84.68-21.17 0-11.718-37.762-21.155-84.68-21.155zm0 0" transform="matrix(.25002 0 0 .25002 0 53.755)" fill="url(#i)" stroke-width="3" stroke-linecap="round" stroke-linejoin="round" stroke="#212121"/><path d="M58.215 11.586c-11.727 0-21.168 2.36-21.168 5.289v1.984c0-2.93 9.441-5.289 21.168-5.289h10.582c11.73 0 21.172 2.36 21.172 5.29v-1.985c0-2.93-9.442-5.29-21.172-5.29zm0 0" fill="#fff" fill-opacity=".392"/><path d="M235.478-163.38c-41.043 0-74.087 8.265-74.087 18.53 0 10.249 33.044 18.513 74.087 18.513h37.043c41.043 0 74.087-8.264 74.087-18.513 0-10.265-33.044-18.53-74.087-18.53zm0 0" transform="matrix(.25002 0 0 .25002 0 53.755)" fill="url(#j)" stroke-width="2.625" stroke-linecap="round" stroke-linejoin="round" stroke="#212121"/><path d="M63.508 112.137c-19.059 0-34.403-11.801-34.403-26.461v-2.649c0 14.66 15.344 26.461 34.403 26.461 19.054 0 34.398-11.8 34.398-26.46v2.648c0 14.66-15.344 26.46-34.398 26.46zm0 0M58.215 32.754c-11.727 0-21.168-2.36-21.168-5.293v-1.984c0 2.933 9.441 5.293 21.168 5.293h10.582c11.73 0 21.172-2.36 21.172-5.293v1.984c0 2.934-9.442 5.293-21.172 5.293zm0 0" fill-opacity=".235"/><path d="M58.215 24.484c-11.727 0-21.168-2.359-21.168-5.293v-1.984c0 2.934 9.441 5.293 21.168 5.293h10.582c11.73 0 21.172-2.36 21.172-5.293v1.984c0 2.934-9.442 5.293-21.172 5.293zm0 0" fill="#fff" fill-opacity=".235"/><path d="M58.215 11.21c-5.89 0-11.203.59-15.074 1.556-1.934.484-3.508 1.058-4.63 1.722-1.12.668-1.84 1.453-1.84 2.387v10.586c0 .934.72 1.723 1.84 2.387 1.122.664 2.696 1.238 4.63 1.722 3.87.97 9.183 1.559 15.074 1.559h10.582c5.89 0 11.203-.59 15.074-1.559 1.934-.484 3.508-1.058 4.629-1.722 1.121-.664 1.844-1.453 1.844-2.387V16.875c0-.934-.723-1.719-1.844-2.387-1.121-.664-2.695-1.238-4.629-1.722C80 11.8 74.688 11.21 68.797 11.21zm0 .75h10.582c5.84 0 11.11.59 14.894 1.536 1.891.473 3.41 1.035 4.426 1.64 1.016.602 1.477 1.208 1.477 1.739v10.586c0 .531-.461 1.137-1.477 1.742-1.015.602-2.535 1.168-4.426 1.64-3.785.946-9.054 1.536-14.894 1.536H58.215c-5.84 0-11.11-.59-14.89-1.535-1.895-.473-3.415-1.04-4.43-1.64-1.016-.606-1.473-1.212-1.473-1.743V16.875c0-.531.457-1.137 1.473-1.738 1.015-.606 2.535-1.168 4.43-1.64 3.78-.946 9.05-1.536 14.89-1.536zm0 0" fill="#212121" fill-opacity=".996"/></svg>