<?xml version="1.0" encoding="UTF-8"?>
<svg xmlns="http://www.w3.org/2000/svg" xmlns:xlink="http://www.w3.org/1999/xlink" width="128pt" height="128pt" viewBox="0 0 128 128" version="1.1">
<defs>
<linearGradient id="linear0" gradientUnits="userSpaceOnUse" x1="254" y1="233.5" x2="254" y2="254.666672" gradientTransform="matrix(0.250024,0,0,0.250024,-0.0000152602,53.75514)">
<stop offset="0" style="stop-color:rgb(0%,0%,0%);stop-opacity:0.27451;"/>
<stop offset="1" style="stop-color:rgb(0%,0%,0%);stop-opacity:0;"/>
</linearGradient>
<radialGradient id="radial0" gradientUnits="userSpaceOnUse" cx="450.908936" cy="189.579361" fx="450.908936" fy="189.579361" r="21.166656" gradientTransform="matrix(0.000000696681,-0.31253,-0.562554,-0.000000406154,195.292181,254.38133)">
<stop offset="0" style="stop-color:rgb(0%,0%,0%);stop-opacity:0.313725;"/>
<stop offset="0.222222" style="stop-color:rgb(0%,0%,0%);stop-opacity:0.27451;"/>
<stop offset="1" style="stop-color:rgb(0%,0%,0%);stop-opacity:0;"/>
</radialGradient>
<radialGradient id="radial1" gradientUnits="userSpaceOnUse" cx="450.908936" cy="189.579361" fx="450.908936" fy="189.579361" r="21.166656" gradientTransform="matrix(-0.000000696681,0.31253,0.562554,0.000000406154,-70.92613,-30.109915)">
<stop offset="0" style="stop-color:rgb(0%,0%,0%);stop-opacity:0.313725;"/>
<stop offset="0.222222" style="stop-color:rgb(0%,0%,0%);stop-opacity:0.27451;"/>
<stop offset="1" style="stop-color:rgb(0%,0%,0%);stop-opacity:0;"/>
</radialGradient>
<radialGradient id="radial2" gradientUnits="userSpaceOnUse" cx="450.908936" cy="189.579361" fx="450.908936" fy="189.579361" r="21.166656" gradientTransform="matrix(-0.000000696681,-0.31253,0.562554,-0.000000406154,-70.92613,254.38133)">
<stop offset="0" style="stop-color:rgb(0%,0%,0%);stop-opacity:0.313725;"/>
<stop offset="0.222222" style="stop-color:rgb(0%,0%,0%);stop-opacity:0.27451;"/>
<stop offset="1" style="stop-color:rgb(0%,0%,0%);stop-opacity:0;"/>
</radialGradient>
<radialGradient id="radial3" gradientUnits="userSpaceOnUse" cx="450.908936" cy="189.579361" fx="450.908936" fy="189.579361" r="21.166656" gradientTransform="matrix(0.000000696681,0.31253,-0.562554,0.000000406154,195.292173,-30.109917)">
<stop offset="0" style="stop-color:rgb(0%,0%,0%);stop-opacity:0.313725;"/>
<stop offset="0.222222" style="stop-color:rgb(0%,0%,0%);stop-opacity:0.27451;"/>
<stop offset="1" style="stop-color:rgb(0%,0%,0%);stop-opacity:0;"/>
</radialGradient>
<linearGradient id="linear1" gradientUnits="userSpaceOnUse" x1="232.833328" y1="233.5" x2="232.833328" y2="-168.666672" gradientTransform="matrix(0.250024,0,0,0.250024,0,53.755132)">
<stop offset="0" style="stop-color:rgb(93.333333%,93.333333%,93.333333%);stop-opacity:1;"/>
<stop offset="1" style="stop-color:rgb(87.843137%,87.843137%,87.843137%);stop-opacity:1;"/>
</linearGradient>
<linearGradient id="linear2" gradientUnits="userSpaceOnUse" x1="254" y1="148.833328" x2="254" y2="-41.666668" gradientTransform="matrix(1,0,0,1,106.223999,84.880089)">
<stop offset="0" style="stop-color:rgb(69.019608%,74.509804%,77.254902%);stop-opacity:1;"/>
<stop offset="1" style="stop-color:rgb(81.176471%,84.705882%,86.27451%);stop-opacity:1;"/>
</linearGradient>
</defs>
<g id="surface1">
<path style=" stroke:none;fill-rule:nonzero;fill:url(#linear0);" d="M 34.398438 112.136719 L 89.96875 112.136719 L 89.96875 117.429688 L 34.398438 117.429688 Z M 34.398438 112.136719 "/>
<path style=" stroke:none;fill-rule:nonzero;fill:url(#radial0);" d="M 89.96875 112.136719 L 100.550781 112.136719 L 100.550781 106.84375 L 89.96875 106.84375 Z M 89.96875 112.136719 "/>
<path style=" stroke:none;fill-rule:nonzero;fill:url(#radial1);" d="M 34.398438 112.136719 L 23.816406 112.136719 L 23.816406 117.429688 L 34.398438 117.429688 Z M 34.398438 112.136719 "/>
<path style=" stroke:none;fill-rule:nonzero;fill:url(#radial2);" d="M 34.398438 112.136719 L 23.816406 112.136719 L 23.816406 106.84375 L 34.398438 106.84375 Z M 34.398438 112.136719 "/>
<path style=" stroke:none;fill-rule:nonzero;fill:url(#radial3);" d="M 89.96875 112.136719 L 100.550781 112.136719 L 100.550781 117.429688 L 89.96875 117.429688 Z M 89.96875 112.136719 "/>
<path style=" stroke:none;fill-rule:nonzero;fill:url(#linear1);" d="M 29.105469 11.585938 C 26.175781 11.585938 23.816406 13.945312 23.816406 16.875 L 23.816406 106.84375 C 23.816406 109.773438 26.175781 112.136719 29.105469 112.136719 L 95.257812 112.136719 C 98.191406 112.136719 100.550781 109.773438 100.550781 106.84375 L 100.550781 27.460938 L 82.027344 11.585938 Z M 29.105469 11.585938 "/>
<path style=" stroke:none;fill-rule:nonzero;fill:rgb(0%,0%,0%);fill-opacity:0.196078;" d="M 29.4375 112.136719 C 26.503906 112.136719 24.144531 109.777344 24.144531 106.84375 L 24.144531 106.183594 C 24.144531 109.113281 26.503906 111.472656 29.4375 111.472656 L 95.257812 111.472656 C 98.191406 111.472656 100.550781 109.113281 100.550781 106.183594 L 100.550781 106.84375 C 100.550781 109.777344 98.191406 112.136719 95.257812 112.136719 Z M 29.4375 112.136719 "/>
<path style=" stroke:none;fill-rule:nonzero;fill:rgb(100%,100%,100%);fill-opacity:1;" d="M 29.105469 11.585938 C 26.175781 11.585938 23.816406 13.945312 23.816406 16.875 L 23.816406 17.539062 C 23.816406 14.605469 26.175781 12.246094 29.105469 12.246094 L 82.359375 12.246094 L 82.359375 11.585938 Z M 29.105469 11.585938 "/>
<path style=" stroke:none;fill-rule:nonzero;fill:rgb(12.941177%,12.941177%,12.941177%);fill-opacity:1;" d="M 29.105469 11.210938 C 25.972656 11.210938 23.441406 13.742188 23.441406 16.875 L 23.441406 106.84375 C 23.441406 109.976562 25.972656 112.511719 29.105469 112.511719 L 95.257812 112.511719 C 98.390625 112.511719 100.925781 109.976562 100.925781 106.84375 L 100.925781 27.289062 L 82.167969 11.210938 Z M 29.105469 11.960938 L 81.890625 11.960938 L 100.175781 27.632812 L 100.175781 106.84375 C 100.175781 109.574219 97.988281 111.761719 95.257812 111.761719 L 29.105469 111.761719 C 26.375 111.761719 24.191406 109.574219 24.191406 106.84375 L 24.191406 16.875 C 24.191406 14.144531 26.375 11.960938 29.105469 11.960938 Z M 29.105469 11.960938 "/>
<path style=" stroke:none;fill-rule:nonzero;fill:rgb(25.882354%,25.882354%,25.882354%);fill-opacity:1;" d="M 41.015625 32.753906 L 91.289062 32.753906 C 92.019531 32.753906 92.613281 33.289062 92.613281 33.953125 L 92.613281 33.960938 C 92.613281 34.621094 92.019531 35.160156 91.289062 35.160156 L 41.015625 35.160156 C 40.285156 35.160156 39.691406 34.621094 39.691406 33.960938 L 39.691406 33.953125 C 39.691406 33.289062 40.285156 32.753906 41.015625 32.753906 Z M 41.015625 32.753906 "/>
<path style=" stroke:none;fill-rule:nonzero;fill:rgb(25.882354%,25.882354%,25.882354%);fill-opacity:1;" d="M 35.722656 43.097656 L 91.289062 43.097656 C 92.019531 43.097656 92.613281 43.6875 92.613281 44.421875 C 92.613281 45.152344 92.019531 45.742188 91.289062 45.742188 L 35.722656 45.742188 C 34.992188 45.742188 34.398438 45.152344 34.398438 44.421875 C 34.398438 43.6875 34.992188 43.097656 35.722656 43.097656 Z M 35.722656 43.097656 "/>
<path style=" stroke:none;fill-rule:nonzero;fill:rgb(25.882354%,25.882354%,25.882354%);fill-opacity:1;" d="M 35.722656 53.679688 L 91.289062 53.679688 C 92.019531 53.679688 92.613281 54.273438 92.613281 55.003906 C 92.613281 55.734375 92.019531 56.328125 91.289062 56.328125 L 35.722656 56.328125 C 34.992188 56.328125 34.398438 55.734375 34.398438 55.003906 C 34.398438 54.273438 34.992188 53.679688 35.722656 53.679688 Z M 35.722656 53.679688 "/>
<path style=" stroke:none;fill-rule:nonzero;fill:rgb(25.882354%,25.882354%,25.882354%);fill-opacity:1;" d="M 35.722656 64.265625 L 91.289062 64.265625 C 92.019531 64.265625 92.613281 64.859375 92.613281 65.589844 C 92.613281 66.320312 92.019531 66.910156 91.289062 66.910156 L 35.722656 66.910156 C 34.992188 66.910156 34.398438 66.320312 34.398438 65.589844 C 34.398438 64.859375 34.992188 64.265625 35.722656 64.265625 Z M 35.722656 64.265625 "/>
<path style=" stroke:none;fill-rule:nonzero;fill:rgb(25.882354%,25.882354%,25.882354%);fill-opacity:1;" d="M 35.722656 74.851562 L 91.289062 74.851562 C 92.019531 74.851562 92.613281 75.441406 92.613281 76.171875 C 92.613281 76.902344 92.019531 77.496094 91.289062 77.496094 L 35.722656 77.496094 C 34.992188 77.496094 34.398438 76.902344 34.398438 76.171875 C 34.398438 75.441406 34.992188 74.851562 35.722656 74.851562 Z M 35.722656 74.851562 "/>
<path style=" stroke:none;fill-rule:nonzero;fill:rgb(25.882354%,25.882354%,25.882354%);fill-opacity:1;" d="M 35.722656 85.433594 L 75.414062 85.433594 C 76.144531 85.433594 76.738281 86.027344 76.738281 86.757812 C 76.738281 87.488281 76.144531 88.082031 75.414062 88.082031 L 35.722656 88.082031 C 34.992188 88.082031 34.398438 87.488281 34.398438 86.757812 C 34.398438 86.027344 34.992188 85.433594 35.722656 85.433594 Z M 35.722656 85.433594 "/>
<path style="fill-rule:nonzero;fill:url(#linear2);stroke-width:3;stroke-linecap:round;stroke-linejoin:miter;stroke:rgb(12.941177%,12.941177%,12.941177%);stroke-opacity:1;stroke-miterlimit:4;" d="M 349.638486 45.209526 C 343.779671 45.209526 339.061371 49.927826 339.061371 55.786641 L 339.061371 74.956686 C 335.530458 76.097202 332.124534 77.503317 328.859221 79.159409 L 315.329263 65.613828 C 311.173409 61.473598 304.502171 61.473598 300.361942 65.613828 L 285.394621 80.581148 C 281.238768 84.737002 281.238768 91.408239 285.394621 95.548469 L 298.924579 109.094051 C 297.268487 112.34374 295.862372 115.765288 294.737479 119.296201 L 275.551811 119.296201 C 269.692996 119.296201 264.974696 124.014501 264.974696 129.873316 L 264.974696 151.04317 C 264.974696 156.901985 269.692996 161.620285 275.551811 161.620285 L 294.737479 161.620285 C 295.862372 165.151197 297.268487 168.557122 298.924579 171.822435 L 285.394621 185.352393 C 281.238768 189.508246 281.238768 196.179484 285.394621 200.319714 L 300.361942 215.287035 C 304.502171 219.442888 311.173409 219.442888 315.329263 215.287035 L 328.859221 201.757077 C 332.124534 203.413169 335.530458 204.819284 339.061371 205.944177 L 339.061371 225.129845 C 339.061371 230.98866 343.779671 235.70696 349.638486 235.70696 L 370.80834 235.70696 C 376.667155 235.70696 381.385455 230.98866 381.385455 225.129845 L 381.385455 205.944177 C 384.916367 204.819284 388.322292 203.413169 391.587605 201.757077 L 405.117563 215.287035 C 409.273416 219.442888 415.944654 219.442888 420.084884 215.287035 L 435.052205 200.319714 C 439.208058 196.179484 439.208058 189.508246 435.052205 185.352393 L 421.522247 171.822435 C 423.178338 168.557122 424.584454 165.151197 425.72497 161.620285 L 444.895015 161.620285 C 450.75383 161.620285 455.47213 156.901985 455.47213 151.04317 L 455.47213 129.873316 C 455.47213 124.014501 450.75383 119.296201 444.895015 119.296201 L 425.72497 119.296201 C 424.584454 115.765288 423.178338 112.34374 421.522247 109.094051 L 435.052205 95.548469 C 439.208058 91.408239 439.208058 84.737002 435.052205 80.581148 L 420.084884 65.613828 C 415.944654 61.473598 409.273416 61.473598 405.117563 65.613828 L 391.587605 79.159409 C 388.322292 77.503317 384.916367 76.097202 381.385455 74.956686 L 381.385455 55.786641 C 381.385455 49.927826 376.667155 45.209526 370.80834 45.209526 Z M 360.231225 98.126348 C 383.68211 98.126348 402.555308 116.999546 402.555308 140.450431 C 402.555308 163.91694 383.68211 182.790138 360.231225 182.790138 C 336.764716 182.790138 317.891518 163.91694 317.891518 140.450431 C 317.891518 116.999546 336.764716 98.126348 360.231225 98.126348 Z M 360.231225 98.126348 " transform="matrix(0.250024,0,0,0.250024,0,53.755133)"/>
</g>
</svg>
