<svg xmlns="http://www.w3.org/2000/svg" width="128pt" height="128pt" viewBox="0 0 128 128"><defs><linearGradient id="a" gradientUnits="userSpaceOnUse" x1="305.955" y1="-31.877" x2="305.955" y2="-135.329" gradientTransform="matrix(.3014 0 0 .86965 -23.416 134.565)"><stop offset="0" stop-color="#81d4fa"/><stop offset="1" stop-color="#fce4ec"/></linearGradient><linearGradient id="b" gradientUnits="userSpaceOnUse" x1="254" y1="233.5" x2="254" y2="254.667" gradientTransform="matrix(.25002 0 0 .25002 0 53.755)"><stop offset="0" stop-opacity=".275"/><stop offset="1" stop-opacity="0"/></linearGradient><radialGradient id="c" gradientUnits="userSpaceOnUse" cx="450.909" cy="189.579" fx="450.909" fy="189.579" r="21.167" gradientTransform="matrix(0 -.31253 -.56255 0 213.815 254.381)"><stop offset="0" stop-opacity=".314"/><stop offset=".222" stop-opacity=".275"/><stop offset="1" stop-opacity="0"/></radialGradient><radialGradient id="d" gradientUnits="userSpaceOnUse" cx="450.909" cy="189.579" fx="450.909" fy="189.579" r="21.167" gradientTransform="matrix(0 .31253 .56255 0 -86.803 -30.11)"><stop offset="0" stop-opacity=".314"/><stop offset=".222" stop-opacity=".275"/><stop offset="1" stop-opacity="0"/></radialGradient><radialGradient id="e" gradientUnits="userSpaceOnUse" cx="450.909" cy="189.579" fx="450.909" fy="189.579" r="21.167" gradientTransform="matrix(0 -.31253 .56255 0 -86.803 254.381)"><stop offset="0" stop-opacity=".314"/><stop offset=".222" stop-opacity=".275"/><stop offset="1" stop-opacity="0"/></radialGradient><radialGradient id="f" gradientUnits="userSpaceOnUse" cx="450.909" cy="189.579" fx="450.909" fy="189.579" r="21.167" gradientTransform="matrix(0 .31253 -.56255 0 213.815 -30.11)"><stop offset="0" stop-opacity=".314"/><stop offset=".222" stop-opacity=".275"/><stop offset="1" stop-opacity="0"/></radialGradient><linearGradient id="g" gradientUnits="userSpaceOnUse" x1="960" y1="1615.118" x2="960" y2="1015.118" gradientTransform="translate(0 5.292) scale(.06615)"><stop offset="0" stop-color="#455a64"/><stop offset="1" stop-color="#78909c"/></linearGradient><linearGradient id="h" gradientUnits="userSpaceOnUse" x1="359.833" y1="-20.5" x2="359.833" y2="-105.167" gradientTransform="matrix(.25002 0 0 .25002 0 53.755)"><stop offset="0" stop-color="#e57373"/><stop offset="1" stop-color="#ef9a9a"/></linearGradient></defs><path d="M13.23 16.875h100.551a5.295 5.295 0 0 1 5.293 5.293v84.676a5.295 5.295 0 0 1-5.293 5.293H13.231a5.295 5.295 0 0 1-5.293-5.293V22.168a5.295 5.295 0 0 1 5.292-5.293zm0 0" fill="url(#a)"/><path d="M18.523 112.137h89.965v5.144H18.523zm0 0" fill="url(#b)"/><path d="M108.488 112.137h10.586v-5.293h-10.586zm0 0" fill="url(#c)"/><path d="M18.523 112.137H7.938v5.293h10.585zm0 0" fill="url(#d)"/><path d="M18.523 112.137H7.938v-5.293h10.585zm0 0" fill="url(#e)"/><path d="M108.488 112.137h10.586v5.293h-10.586zm0 0" fill="url(#f)"/><path d="M7.938 83.027v23.817a5.28 5.28 0 0 0 5.292 5.293h100.551a5.28 5.28 0 0 0 5.293-5.293V83.027c-22 12.875-29.14-1.468-38.117-3.82-9.598-2.516-11.434 8.91-21.121 7.746-9.691-1.164-22.031-15.762-30.957-14.848-8.926.915-13.422 6.18-20.942 10.922zm0 0" fill="url(#g)"/><path d="M89.969 27.46c5.844 0 10.582 4.74 10.582 10.587 0 5.844-4.739 10.582-10.582 10.582-5.848 0-10.586-4.738-10.586-10.582 0-5.848 4.738-10.586 10.586-10.586zm0 0" fill="url(#h)"/><path d="M21.168 26.137h84.676c2.191 0 3.969 1.71 3.969 3.816v63.813c0 2.109-1.778 3.816-3.97 3.816H21.169c-2.191 0-3.969-1.707-3.969-3.816V29.953c0-2.105 1.778-3.816 3.969-3.816zm0 0" fill-opacity=".118"/><path d="M21.168 24.816a5.281 5.281 0 0 0-5.293 5.29v63.507a5.285 5.285 0 0 0 5.293 5.293h84.676a5.285 5.285 0 0 0 5.293-5.293V30.105c0-2.93-2.364-5.289-5.293-5.289zm0 .66h84.676a4.619 4.619 0 0 1 4.629 4.63v63.507a4.616 4.616 0 0 1-4.63 4.63H21.169a4.616 4.616 0 0 1-4.629-4.63V30.105a4.619 4.619 0 0 1 4.629-4.628zm0 0" fill-opacity=".471"/><path d="M21.168 25.477a4.619 4.619 0 0 0-4.629 4.628v63.508a4.616 4.616 0 0 0 4.629 4.63h84.676a4.616 4.616 0 0 0 4.629-4.63V30.105a4.619 4.619 0 0 0-4.63-4.628zm0 .66h84.676a3.96 3.96 0 0 1 3.969 3.968v63.508a3.96 3.96 0 0 1-3.97 3.969H21.169a3.96 3.96 0 0 1-3.969-3.969V30.105a3.96 3.96 0 0 1 3.969-3.968zm0 0" fill="#d7d7d7" fill-opacity=".706"/><path d="M21.168 26.8a3.3 3.3 0 0 0-3.309 3.305v22.172c21.153-8.965 47.09-14.23 75.172-14.23 5.461 0 10.84.2 16.121.586v-8.528a3.3 3.3 0 0 0-3.308-3.304zm0 0" fill="#e3e3e3" fill-opacity=".235"/><path d="M13.23 16.875a5.282 5.282 0 0 0-5.293 5.293v1.984c0-2.93 2.36-5.293 5.293-5.293h100.551a5.282 5.282 0 0 1 5.293 5.293v-1.984c0-2.93-2.36-5.293-5.293-5.293zm0 0" fill="#fff" fill-opacity=".588"/><path d="M13.23 112.137a5.28 5.28 0 0 1-5.293-5.293v-1.985c0 2.93 2.36 5.293 5.293 5.293h100.551a5.282 5.282 0 0 0 5.293-5.293v1.985a5.28 5.28 0 0 1-5.293 5.293zm0 0" fill-opacity=".235"/><path d="M13.23 16.875h100.551a5.295 5.295 0 0 1 5.293 5.293v84.676a5.295 5.295 0 0 1-5.293 5.293H13.231a5.295 5.295 0 0 1-5.293-5.293V22.168a5.295 5.295 0 0 1 5.292-5.293zm0 0" fill="none" stroke-width=".7500600000000001" stroke-linecap="round" stroke="#212121"/></svg>