<?xml version="1.0" encoding="UTF-8"?>
<svg xmlns="http://www.w3.org/2000/svg" xmlns:xlink="http://www.w3.org/1999/xlink" width="128pt" height="128pt" viewBox="0 0 128 128" version="1.1">
<defs>
<linearGradient id="linear0" gradientUnits="userSpaceOnUse" x1="254" y1="233.5" x2="254" y2="254.666672" gradientTransform="matrix(0.250024,0,0,0.250024,-0.0000152602,53.75514)">
<stop offset="0" style="stop-color:rgb(0%,0%,0%);stop-opacity:0.27451;"/>
<stop offset="1" style="stop-color:rgb(0%,0%,0%);stop-opacity:0;"/>
</linearGradient>
<radialGradient id="radial0" gradientUnits="userSpaceOnUse" cx="450.908936" cy="189.579361" fx="450.908936" fy="189.579361" r="21.166656" gradientTransform="matrix(0.000000696681,-0.31253,-0.562554,-0.000000406154,212.49172,254.38133)">
<stop offset="0" style="stop-color:rgb(0%,0%,0%);stop-opacity:0.313725;"/>
<stop offset="0.222222" style="stop-color:rgb(0%,0%,0%);stop-opacity:0.27451;"/>
<stop offset="1" style="stop-color:rgb(0%,0%,0%);stop-opacity:0;"/>
</radialGradient>
<radialGradient id="radial1" gradientUnits="userSpaceOnUse" cx="450.908936" cy="189.579361" fx="450.908936" fy="189.579361" r="21.166656" gradientTransform="matrix(-0.000000696681,0.31253,0.562554,0.000000406154,-84.818081,-30.109915)">
<stop offset="0" style="stop-color:rgb(0%,0%,0%);stop-opacity:0.313725;"/>
<stop offset="0.222222" style="stop-color:rgb(0%,0%,0%);stop-opacity:0.27451;"/>
<stop offset="1" style="stop-color:rgb(0%,0%,0%);stop-opacity:0;"/>
</radialGradient>
<radialGradient id="radial2" gradientUnits="userSpaceOnUse" cx="450.908936" cy="189.579361" fx="450.908936" fy="189.579361" r="21.166656" gradientTransform="matrix(-0.000000696681,-0.31253,0.562554,-0.000000406154,-84.818081,254.38133)">
<stop offset="0" style="stop-color:rgb(0%,0%,0%);stop-opacity:0.313725;"/>
<stop offset="0.222222" style="stop-color:rgb(0%,0%,0%);stop-opacity:0.27451;"/>
<stop offset="1" style="stop-color:rgb(0%,0%,0%);stop-opacity:0;"/>
</radialGradient>
<radialGradient id="radial3" gradientUnits="userSpaceOnUse" cx="450.908936" cy="189.579361" fx="450.908936" fy="189.579361" r="21.166656" gradientTransform="matrix(0.000000696681,0.31253,-0.562554,0.000000406154,212.491714,-30.109917)">
<stop offset="0" style="stop-color:rgb(0%,0%,0%);stop-opacity:0.313725;"/>
<stop offset="0.222222" style="stop-color:rgb(0%,0%,0%);stop-opacity:0.27451;"/>
<stop offset="1" style="stop-color:rgb(0%,0%,0%);stop-opacity:0;"/>
</radialGradient>
<linearGradient id="linear1" gradientUnits="userSpaceOnUse" x1="254" y1="-168.666656" x2="254" y2="233.5" gradientTransform="matrix(0.250024,0,0,0.250024,0,53.755133)">
<stop offset="0" style="stop-color:rgb(93.333333%,93.333333%,93.333333%);stop-opacity:1;"/>
<stop offset="1" style="stop-color:rgb(87.843137%,87.843137%,87.843137%);stop-opacity:1;"/>
</linearGradient>
<linearGradient id="linear2" gradientUnits="userSpaceOnUse" x1="265.873993" y1="180.583313" x2="265.873993" y2="159.416656" gradientTransform="matrix(0.732143,0,0,1,165.175583,-275.166656)">
<stop offset="0" style="stop-color:rgb(87.843137%,87.843137%,87.843137%);stop-opacity:1;"/>
<stop offset="1" style="stop-color:rgb(74.117647%,74.117647%,74.117647%);stop-opacity:1;"/>
</linearGradient>
<linearGradient id="linear3" gradientUnits="userSpaceOnUse" x1="188.232178" y1="190.706512" x2="188.232178" y2="158.956512" gradientTransform="matrix(0.466667,0,0,1,60.324986,-274.706512)">
<stop offset="0" style="stop-color:rgb(50.196078%,79.607843%,76.862745%);stop-opacity:1;"/>
<stop offset="1" style="stop-color:rgb(30.196078%,71.372549%,67.45098%);stop-opacity:1;"/>
</linearGradient>
<linearGradient id="linear4" gradientUnits="userSpaceOnUse" x1="264.583313" y1="170.000015" x2="328.083313" y2="170.000015" gradientTransform="matrix(1,0,0,1,-191.166641,31.083332)">
<stop offset="0" style="stop-color:rgb(87.843137%,87.843137%,87.843137%);stop-opacity:1;"/>
<stop offset="1" style="stop-color:rgb(74.117647%,74.117647%,74.117647%);stop-opacity:1;"/>
</linearGradient>
<linearGradient id="linear5" gradientUnits="userSpaceOnUse" x1="273.101654" y1="148.833328" x2="273.101654" y2="212.333328" gradientTransform="matrix(0.732143,0,0,1,32.883915,-31.74999)">
<stop offset="0" style="stop-color:rgb(39.215686%,70.980392%,96.470588%);stop-opacity:1;"/>
<stop offset="1" style="stop-color:rgb(25.882353%,64.705882%,96.078431%);stop-opacity:1;"/>
</linearGradient>
<linearGradient id="linear6" gradientUnits="userSpaceOnUse" x1="302.012207" y1="212.333328" x2="302.012207" y2="148.833328" gradientTransform="matrix(0.732143,0,0,1,32.883915,-137.583328)">
<stop offset="0" style="stop-color:rgb(93.333333%,93.333333%,93.333333%);stop-opacity:1;"/>
<stop offset="1" style="stop-color:rgb(74.117647%,74.117647%,74.117647%);stop-opacity:1;"/>
</linearGradient>
<linearGradient id="linear7" gradientUnits="userSpaceOnUse" x1="391.583344" y1="27.125" x2="391.583344" y2="58.875" >
<stop offset="0" style="stop-color:rgb(89.803922%,45.098039%,45.098039%);stop-opacity:1;"/>
<stop offset="1" style="stop-color:rgb(93.72549%,32.54902%,31.372549%);stop-opacity:1;"/>
</linearGradient>
</defs>
<g id="surface1">
<path style=" stroke:none;fill-rule:nonzero;fill:url(#linear0);" d="M 20.507812 112.136719 L 107.167969 112.136719 L 107.167969 117.429688 L 20.507812 117.429688 Z M 20.507812 112.136719 "/>
<path style=" stroke:none;fill-rule:nonzero;fill:url(#radial0);" d="M 107.167969 112.136719 L 117.75 112.136719 L 117.75 106.84375 L 107.167969 106.84375 Z M 107.167969 112.136719 "/>
<path style=" stroke:none;fill-rule:nonzero;fill:url(#radial1);" d="M 20.507812 112.136719 L 9.921875 112.136719 L 9.921875 117.429688 L 20.507812 117.429688 Z M 20.507812 112.136719 "/>
<path style=" stroke:none;fill-rule:nonzero;fill:url(#radial2);" d="M 20.507812 112.136719 L 9.921875 112.136719 L 9.921875 106.84375 L 20.507812 106.84375 Z M 20.507812 112.136719 "/>
<path style=" stroke:none;fill-rule:nonzero;fill:url(#radial3);" d="M 107.167969 112.136719 L 117.75 112.136719 L 117.75 117.429688 L 107.167969 117.429688 Z M 107.167969 112.136719 "/>
<path style=" stroke:none;fill-rule:nonzero;fill:url(#linear1);" d="M 14.554688 11.585938 L 112.457031 11.585938 C 114.652344 11.585938 116.429688 13.363281 116.429688 15.554688 L 116.429688 108.167969 C 116.429688 110.359375 114.652344 112.136719 112.457031 112.136719 L 14.554688 112.136719 C 12.363281 112.136719 10.585938 110.359375 10.585938 108.167969 L 10.585938 15.554688 C 10.585938 13.363281 12.363281 11.585938 14.554688 11.585938 Z M 14.554688 11.585938 "/>
<path style=" stroke:none;fill-rule:nonzero;fill:rgb(0%,0%,0%);fill-opacity:0.196078;" d="M 15.875 112.136719 C 12.945312 112.136719 10.585938 109.777344 10.585938 106.84375 L 10.585938 106.183594 C 10.585938 109.113281 12.945312 111.472656 15.875 111.472656 L 111.136719 111.472656 C 114.066406 111.472656 116.429688 109.113281 116.429688 106.183594 L 116.429688 106.84375 C 116.429688 109.777344 114.066406 112.136719 111.136719 112.136719 Z M 15.875 112.136719 "/>
<path style=" stroke:none;fill-rule:nonzero;fill:rgb(90.196079%,90.196079%,90.196079%);fill-opacity:0.588235;" d="M 15.875 11.585938 C 12.945312 11.585938 10.585938 13.945312 10.585938 16.875 L 10.585938 17.539062 C 10.585938 14.605469 12.945312 12.246094 15.875 12.246094 L 111.136719 12.246094 C 114.066406 12.246094 116.429688 14.605469 116.429688 17.539062 L 116.429688 16.875 C 116.429688 13.945312 114.066406 11.585938 111.136719 11.585938 Z M 15.875 11.585938 "/>
<path style=" stroke:none;fill-rule:nonzero;fill:rgb(90.196079%,90.196079%,90.196079%);fill-opacity:0.588235;" d="M 10.585938 45.652344 L 116.429688 45.652344 L 116.429688 46.3125 L 10.585938 46.3125 Z M 10.585938 45.652344 "/>
<path style="fill-rule:nonzero;fill:url(#linear2);stroke-width:2.56696;stroke-linecap:round;stroke-linejoin:miter;stroke:rgb(12.941177%,12.941177%,12.941177%);stroke-opacity:1;stroke-miterlimit:4;" d="M 223.291177 -115.743853 L 411.710684 -115.743853 C 418.131945 -115.743853 423.334574 -111.009931 423.334574 -105.166739 L 423.334574 -94.589624 C 423.334574 -88.730808 418.131945 -83.996885 411.710684 -83.996885 L 223.291177 -83.996885 C 216.869915 -83.996885 211.667287 -88.730808 211.667287 -94.589624 L 211.667287 -105.166739 C 211.667287 -111.009931 216.869915 -115.743853 223.291177 -115.743853 Z M 223.291177 -115.743853 " transform="matrix(0.250024,0,0,0.250024,0,53.755133)"/>
<path style="fill-rule:nonzero;fill:url(#linear3);stroke-width:2.04939;stroke-linecap:round;stroke-linejoin:miter;stroke:rgb(20%,20%,20%);stroke-opacity:1;stroke-miterlimit:4;" d="M 92.069333 -115.743853 L 193.669006 -115.743853 C 197.762365 -115.743853 201.090172 -111.775482 201.090172 -106.869701 L 201.090172 -92.886661 C 201.090172 -87.98088 197.762365 -83.996885 193.669006 -83.996885 L 92.069333 -83.996885 C 87.975974 -83.996885 84.66379 -87.98088 84.66379 -92.886661 L 84.66379 -106.869701 C 84.66379 -111.775482 87.975974 -115.743853 92.069333 -115.743853 Z M 92.069333 -115.743853 " transform="matrix(0.250024,0,0,0.250024,0,53.755133)"/>
<path style="fill-rule:nonzero;fill:url(#linear4);stroke-width:3;stroke-linecap:round;stroke-linejoin:miter;stroke:rgb(12.941177%,12.941177%,12.941177%);stroke-opacity:1;stroke-miterlimit:4;" d="M 99.870369 158.750465 C 120.337165 158.750465 136.913707 175.327007 136.913707 195.793803 C 136.913707 216.244975 120.337165 232.83714 99.870369 232.83714 C 79.419197 232.83714 62.827032 216.244975 62.827032 195.793803 C 62.827032 175.327007 79.419197 158.750465 99.870369 158.750465 Z M 99.870369 158.750465 " transform="matrix(0.000000000000000015,-0.250024,0.250024,0.000000000000000015,0,53.755133)"/>
<path style="fill-rule:nonzero;fill:url(#linear5);stroke-width:2.56696;stroke-linecap:round;stroke-linejoin:miter;stroke:rgb(12.941177%,12.941177%,12.941177%);stroke-opacity:1;stroke-miterlimit:4;" d="M 96.28768 117.077663 L 411.710684 117.077663 C 418.131945 117.077663 423.334574 121.171022 423.334574 126.217415 L 423.334574 171.463095 C 423.334574 176.493864 418.131945 180.587223 411.710684 180.587223 L 96.28768 180.587223 C 89.866418 180.587223 84.66379 176.493864 84.66379 171.463095 L 84.66379 126.217415 C 84.66379 121.171022 89.866418 117.077663 96.28768 117.077663 Z M 96.28768 117.077663 " transform="matrix(0.250024,0,0,0.250024,0,53.755133)"/>
<path style=" stroke:none;fill-rule:nonzero;fill:rgb(0%,0%,0%);fill-opacity:0.196078;" d="M 10.585938 44.992188 L 116.429688 44.992188 L 116.429688 45.652344 L 10.585938 45.652344 Z M 10.585938 44.992188 "/>
<path style=" stroke:none;fill-rule:nonzero;fill:rgb(20%,20%,20%);fill-opacity:0.992157;" d="M 10.585938 45.320312 L 116.429688 45.320312 L 116.429688 45.984375 L 10.585938 45.984375 Z M 10.585938 45.320312 "/>
<path style=" stroke:none;fill-rule:nonzero;fill:rgb(12.941177%,12.941177%,12.941177%);fill-opacity:1;" d="M 14.554688 11.210938 C 12.152344 11.210938 10.210938 13.152344 10.210938 15.554688 L 10.210938 108.167969 C 10.210938 110.566406 12.152344 112.511719 14.554688 112.511719 L 112.457031 112.511719 C 114.859375 112.511719 116.800781 110.566406 116.800781 108.167969 L 116.800781 15.554688 C 116.800781 13.152344 114.859375 11.210938 112.457031 11.210938 Z M 14.554688 11.960938 L 112.457031 11.960938 C 114.457031 11.960938 116.050781 13.554688 116.050781 15.554688 L 116.050781 108.167969 C 116.050781 110.164062 114.457031 111.761719 112.457031 111.761719 L 14.554688 111.761719 C 12.554688 111.761719 10.960938 110.164062 10.960938 108.167969 L 10.960938 15.554688 C 10.960938 13.554688 12.554688 11.960938 14.554688 11.960938 Z M 14.554688 11.960938 "/>
<path style="fill-rule:nonzero;fill:url(#linear6);stroke-width:2.56696;stroke-linecap:round;stroke-linejoin:miter;stroke:rgb(12.941177%,12.941177%,12.941177%);stroke-opacity:1;stroke-miterlimit:4;" d="M 96.28768 11.24402 L 411.710684 11.24402 C 418.131945 11.24402 423.334574 15.337379 423.334574 20.383772 L 423.334574 65.629451 C 423.334574 70.660221 418.131945 74.75358 411.710684 74.75358 L 96.28768 74.75358 C 89.866418 74.75358 84.66379 70.660221 84.66379 65.629451 L 84.66379 20.383772 C 84.66379 15.337379 89.866418 11.24402 96.28768 11.24402 Z M 96.28768 11.24402 " transform="matrix(0.250024,0,0,0.250024,0,53.755133)"/>
<path style="fill-rule:nonzero;fill:url(#linear7);stroke-width:3;stroke-linecap:square;stroke-linejoin:round;stroke:rgb(20%,20%,20%);stroke-opacity:1;stroke-miterlimit:4;" d="M 410.288944 31.773309 C 408.226641 29.695383 404.883211 29.695383 402.805284 31.773309 L 391.587605 43.006612 L 380.354303 31.773309 C 378.292 29.695383 374.948569 29.695383 372.870643 31.773309 C 370.80834 33.851236 370.80834 37.179043 372.870643 39.25697 L 387.837963 54.22429 C 389.91589 56.302217 393.259321 56.302217 395.321624 54.22429 L 410.288944 39.25697 C 412.366871 37.179043 412.366871 33.851236 410.288944 31.773309 Z M 410.288944 31.773309 " transform="matrix(0.250024,0,0,0.250024,0,53.755133)"/>
</g>
</svg>
