<svg xmlns="http://www.w3.org/2000/svg" width="128pt" height="128pt" viewBox="0 0 128 128"><defs><radialGradient id="a" gradientUnits="userSpaceOnUse" cx="450.909" cy="189.579" fx="450.909" fy="189.579" r="21.167" gradientTransform="matrix(0 -.31253 -.56255 0 174.123 254.381)"><stop offset="0" stop-opacity=".314"/><stop offset=".222" stop-opacity=".275"/><stop offset="1" stop-opacity="0"/></radialGradient><radialGradient id="b" gradientUnits="userSpaceOnUse" cx="450.909" cy="189.579" fx="450.909" fy="189.579" r="21.167" gradientTransform="matrix(0 .31253 .56255 0 -47.111 -30.11)"><stop offset="0" stop-opacity=".314"/><stop offset=".222" stop-opacity=".275"/><stop offset="1" stop-opacity="0"/></radialGradient><radialGradient id="c" gradientUnits="userSpaceOnUse" cx="450.909" cy="189.579" fx="450.909" fy="189.579" r="21.167" gradientTransform="matrix(0 -.31253 .56255 0 -47.111 254.381)"><stop offset="0" stop-opacity=".314"/><stop offset=".222" stop-opacity=".275"/><stop offset="1" stop-opacity="0"/></radialGradient><radialGradient id="d" gradientUnits="userSpaceOnUse" cx="450.909" cy="189.579" fx="450.909" fy="189.579" r="21.167" gradientTransform="matrix(0 .31253 -.56255 0 174.123 -30.11)"><stop offset="0" stop-opacity=".314"/><stop offset=".222" stop-opacity=".275"/><stop offset="1" stop-opacity="0"/></radialGradient><linearGradient id="e" gradientUnits="userSpaceOnUse" x1="255.323" y1="233.5" x2="255.323" y2="254.667" gradientTransform="matrix(.05344 0 0 .25002 49.862 53.755)"><stop offset="0" stop-opacity=".275"/><stop offset="1" stop-opacity="0"/></linearGradient><linearGradient id="f" gradientUnits="userSpaceOnUse" x1="960" y1="175.118" x2="960" y2="1695.118" gradientTransform="scale(.06615)"><stop offset="0" stop-color="#64b5f6"/><stop offset="1" stop-color="#42a5f5"/></linearGradient><linearGradient id="g" gradientUnits="userSpaceOnUse" x1="960" y1="175.118" x2="960" y2="1695.118" gradientTransform="scale(.06615)"><stop offset="0" stop-color="#616161"/><stop offset="1" stop-color="#424242"/></linearGradient></defs><path d="M68.797 112.137h10.586v-5.293H68.797zm0 0" fill="url(#a)"/><path d="M58.215 112.137H47.629v5.293h10.586zm0 0" fill="url(#b)"/><path d="M58.215 112.137H47.629v-5.293h10.586zm0 0" fill="url(#c)"/><path d="M68.797 112.137h10.586v5.293H68.797zm0 0" fill="url(#d)"/><path d="M58.215 110.813h10.582v6.617H58.215zm0 0" fill="url(#e)"/><path d="M63.383 12.102c-.38 0-.758.007-1.137.015-5.562.14-11.086 1.27-16.36 3.274l34.266 34.27V15.026c-5.418-1.933-11.09-2.933-16.77-2.925zm20.52 4.441v48.46l24.492-24.487a49.607 49.607 0 0 0-24.493-23.973zm-41.766.406a49.684 49.684 0 0 0-24.008 24.512h48.523zm67.836 27.29L75.707 78.507h34.633a49.596 49.596 0 0 0-.367-34.27zm-93.301.972a49.619 49.619 0 0 0 .367 34.27l34.27-34.27zm43.687 37.047l24.493 24.488a49.6 49.6 0 0 0 23.972-24.488zm0 0" fill="url(#f)"/><path d="M43.11 58.715L18.616 83.207a49.6 49.6 0 0 0 24.492 23.969zm3.75 15.344v34.636a49.608 49.608 0 0 0 34.265-.367zm0 0" fill="url(#g)"/><path d="M63.383 12.102c-.38 0-.758.007-1.137.015-5.562.14-11.086 1.27-16.36 3.274l1.071 1.074c4.95-1.758 10.105-2.75 15.29-2.883.378-.008.757-.012 1.136-.012 5.68-.008 11.351.992 16.77 2.922v-1.465c-5.419-1.933-11.09-2.933-16.77-2.925zm20.52 4.441v1.465a49.622 49.622 0 0 1 24.011 22.988l.48-.48a49.607 49.607 0 0 0-24.492-23.973zm-41.766.406a49.684 49.684 0 0 0-24.008 24.512h.687a49.69 49.69 0 0 1 23.32-23.047l23.048 23.047h1.468zm67.836 27.29L75.707 78.507h1.465l32.8-32.801a49.673 49.673 0 0 1 3.235 16.906 49.558 49.558 0 0 0-3.234-18.375zm-93.301.972a49.536 49.536 0 0 0-2.867 17.363 49.59 49.59 0 0 1 2.867-15.894H49.84l1.469-1.47zm26.437 13.504L18.617 83.207c.156.328.32.656.48.984L43.11 60.184zm3.75 15.344v1.468l33.196 33.196c.36-.13.715-.258 1.07-.395zm13.5 8.199l1.47 1.469h46.308c.234-.485.465-.977.687-1.47zm0 0" fill="#fff" fill-opacity=".392"/><path d="M46.973 14.992c-.364.13-.727.262-1.086.399l34.265 34.27v-1.485zm60.933 24.528l-24.004 24v1.484l24.493-24.488c-.16-.336-.32-.668-.489-.996zm-89.082.457c-.238.492-.472.988-.695 1.484h48.523l-1.484-1.484zM49.82 45.21L17.04 77.996a49.611 49.611 0 0 1-3.235-16.898 49.599 49.599 0 0 0 3.234 18.382l34.27-34.27zm63.387 15.93a49.52 49.52 0 0 1-2.867 15.882H77.19l-1.484 1.485h34.633c2-5.61 2.953-11.496 2.867-17.367zM60.359 82.258l24.493 24.488a49.6 49.6 0 0 0 23.972-24.488h-.695a49.597 49.597 0 0 1-23.277 23.004L61.848 82.258zm-41.254.46l-.488.489a49.6 49.6 0 0 0 24.492 23.969v-1.485A49.59 49.59 0 0 1 19.105 82.72zm27.754 24.493v1.484a49.608 49.608 0 0 0 34.266-.367l-1.086-1.086a49.604 49.604 0 0 1-33.18-.031zm0 0" fill-opacity=".235"/><path d="M63.383 11.727c-.383 0-.766.007-1.145.015-5.605.14-11.175 1.281-16.484 3.301a.373.373 0 0 0-.133.613l34.266 34.27c.11.105.27.14.41.082a.375.375 0 0 0 .23-.348V15.027c0-.16-.097-.3-.246-.355-5.46-1.945-11.176-2.953-16.898-2.945zm0 .75c5.55-.008 11.094.96 16.394 2.82v33.457L46.57 15.547c5.07-1.863 10.364-2.922 15.688-3.055.375-.008.75-.015 1.125-.015zm20.531 3.691a.377.377 0 0 0-.273.105.385.385 0 0 0-.114.27v48.46c0 .153.094.29.235.349.14.058.3.027.406-.082L108.66 40.78a.382.382 0 0 0 .074-.426A49.988 49.988 0 0 0 84.06 16.2a.385.385 0 0 0-.145-.031zm-41.781.406a.365.365 0 0 0-.156.035 50.073 50.073 0 0 0-24.192 24.7.39.39 0 0 0 .027.359c.07.105.188.168.317.168h48.523c.153 0 .29-.09.344-.23a.38.38 0 0 0-.078-.41L42.402 16.683a.381.381 0 0 0-.27-.11zm42.144.563a49.233 49.233 0 0 1 23.66 23.304l-23.66 23.66zm-42.215.27l23.684 23.679H18.723a49.294 49.294 0 0 1 23.34-23.68zm67.915 26.456a.372.372 0 0 0-.266.11l-34.27 34.27a.375.375 0 1 0 .266.64h34.633c.16 0 .3-.102.351-.25a49.962 49.962 0 0 0-.367-34.528.378.378 0 0 0-.347-.242zm-93.305.973c-.156 0-.3.102-.352.25a49.985 49.985 0 0 0 .367 34.527.377.377 0 0 0 .618.133l34.265-34.27a.366.366 0 0 0 .082-.406.377.377 0 0 0-.343-.234zm93.148.09a49.21 49.21 0 0 1 .25 33.207H76.613zm-92.879.66h33.461l-33.21 33.21a49.269 49.269 0 0 1-.25-33.21zM43.098 58.34a.378.378 0 0 0-.254.11L18.352 82.94a.373.373 0 0 0-.07.426 49.973 49.973 0 0 0 24.671 24.153.38.38 0 0 0 .36-.028.38.38 0 0 0 .171-.316V58.715c0-.102-.043-.2-.113-.27a.377.377 0 0 0-.273-.105zm-.364 1.281v46.961a49.2 49.2 0 0 1-23.66-23.305zm4.118 14.063a.376.376 0 0 0-.368.375v34.636c0 .157.098.297.25.352a49.985 49.985 0 0 0 34.528-.367.372.372 0 0 0 .23-.274.373.373 0 0 0-.101-.344L47.125 73.797a.384.384 0 0 0-.273-.113zm.382 1.28l33.207 33.208a49.21 49.21 0 0 1-33.207.25zm13.125 6.919a.38.38 0 0 0-.343.23.372.372 0 0 0 .082.41l24.488 24.489a.37.37 0 0 0 .426.074 49.973 49.973 0 0 0 24.156-24.676.383.383 0 0 0-.027-.355.386.386 0 0 0-.317-.172zm.907.75h46.964a49.233 49.233 0 0 1-23.304 23.66zm0 0" fill="#212121"/></svg>