<svg height="48pt" viewBox="0 0 48 48" width="48pt" xmlns="http://www.w3.org/2000/svg" xmlns:xlink="http://www.w3.org/1999/xlink"><linearGradient id="a"><stop offset="0" stop-opacity=".27451"/><stop offset="1" stop-opacity="0"/></linearGradient><linearGradient id="b" gradientUnits="userSpaceOnUse" x1="24.807069" x2="24.807069" xlink:href="#a" y1="42.0509055" y2="44.03547150005"/><linearGradient id="c"><stop offset="0" stop-opacity=".313725"/><stop offset=".222222" stop-opacity=".27451"/><stop offset="1" stop-opacity="0"/></linearGradient><radialGradient id="d" cx="450.908936" cy="189.579361" gradientTransform="matrix(.00000026 -.117199 -.210958 -.00000015 74.226852 95.393005)" gradientUnits="userSpaceOnUse" r="21.166656" xlink:href="#c"/><radialGradient id="e" cx="450.908936" cy="189.579361" gradientTransform="matrix(-.00000026 .117199 .210958 .00000015 -27.589576 -11.291215)" gradientUnits="userSpaceOnUse" r="21.166656" xlink:href="#c"/><radialGradient id="f" cx="450.908936" cy="189.579361" gradientTransform="matrix(-.00000026 -.117199 .210958 -.00000015 -27.589576 95.393005)" gradientUnits="userSpaceOnUse" r="21.166656" xlink:href="#c"/><radialGradient id="g" cx="450.908936" cy="189.579361" gradientTransform="matrix(.00000026 .117199 -.210958 .00000015 74.226852 -11.291218)" gradientUnits="userSpaceOnUse" r="21.166656" xlink:href="#c"/><linearGradient id="h" gradientUnits="userSpaceOnUse" x1="23.318674" x2="23.318674" y1="42.05096580616" y2="4.34417266504"><stop offset="0" stop-color="#f48fb1"/><stop offset="1" stop-color="#f8bbd0"/></linearGradient><linearGradient id="i" gradientTransform="matrix(.0448412 0 0 .164078 22.563634 -24.541366)" gradientUnits="userSpaceOnUse" x1="249.189423" x2="249.189423" xlink:href="#a" y1="233.5" y2="254.666687"/><linearGradient id="j"><stop offset="0" stop-color="#ec407a"/><stop offset="1" stop-color="#f06292"/></linearGradient><linearGradient id="k" gradientUnits="userSpaceOnUse" x1="31.7530469999" x2="31.7530469999" xlink:href="#j" y1="42.0509015" y2="4.34415649995"/><linearGradient id="l" gradientUnits="userSpaceOnUse" x1="251.89478150451" x2="245.85672975226" xlink:href="#j" y1="257.842853" y2="-201.04862375226"/><path d="m11.90625 42.050781h22.824219v1.984375h-22.824219zm0 0" fill="url(#b)"/><path d="m34.730469 42.050781h3.96875v-1.984375h-3.96875zm0 0" fill="url(#d)"/><path d="m11.90625 42.050781h-3.96875v1.984375h3.96875zm0 0" fill="url(#e)"/><path d="m11.90625 42.050781h-3.96875v-1.984375h3.96875zm0 0" fill="url(#f)"/><path d="m34.730469 42.050781h3.96875v1.984375h-3.96875zm0 0" fill="url(#g)"/><path d="m27.8125 4.34375h-17.890625c-1.097656 0-1.984375.886719-1.984375 1.984375v33.738281c0 1.097656.886719 1.984375 1.984375 1.984375h26.792969c1.097656 0 1.984375-.886719 1.984375-1.984375v-24.835937zm0 0" fill="url(#h)"/><path d="m27.785156 13.769531h9.425782l1.488281 1.488281v1.984376h-10.914063zm0 0" fill="url(#i)"/><path d="m7.9375 39.296875v.769531c0 1.097656.886719 1.984375 1.984375 1.984375h26.792969c1.097656 0 1.984375-.886719 1.984375-1.984375v-.769531c0 1.097656-.886719 1.984375-1.984375 1.984375h-26.792969c-1.097656 0-1.984375-.886719-1.984375-1.984375zm0 0" fill-opacity=".235294"/><path d="m9.921875 4.34375c-1.097656 0-1.984375.886719-1.984375 1.984375v.746094c0-1.101563.886719-1.984375 1.984375-1.984375h17.890625l10.886719 10.882812v-.742187l-10.886719-10.886719zm0 0" fill="#fff" fill-opacity=".392157"/><path d="m38.699219 15.230469-10.886719-10.886719v8.902344c0 1.097656.886719 1.984375 1.984375 1.984375zm0 0" fill="url(#k)"/><path d="m27.8125 12.777344v.46875c0 1.097656.886719 1.984375 1.984375 1.984375h8.902344l-.46875-.46875h-8.433594c-1.097656 0-1.984375-.882813-1.984375-1.984375zm0 0" fill-opacity=".235294"/><path d="m27.8125 4.34375v.746094l10.140625 10.140625h.746094zm0 0" fill="#fff" fill-opacity=".392157"/><path d="m27.8125 4.203125c-.078125 0-.140625.0625-.140625.140625v8.902344c0 1.175781.949219 2.125 2.125 2.125h8.902344c.058593 0 .109375-.035156.128906-.085938.023437-.054687.011719-.113281-.03125-.15625l-10.882813-10.882812c-.027343-.027344-.066406-.042969-.101562-.042969zm.140625.480469 10.40625 10.40625h-8.5625c-1.023437 0-1.84375-.820313-1.84375-1.84375zm0 0" fill="#212121"/><path d="m9.921875 4.203125c-1.175781 0-2.125.949219-2.125 2.125v33.738281c0 1.175782.949219 2.125 2.125 2.125h26.792969c1.175781 0 2.125-.949218 2.125-2.125v-24.835937c0-.039063-.015625-.074219-.042969-.101563l-10.882813-10.882812c-.027343-.027344-.0625-.042969-.101562-.042969zm0 .28125h17.832031l10.804688 10.804687v24.777344c0 1.023438-.820313 1.84375-1.84375 1.84375h-26.792969c-1.023437 0-1.84375-.820312-1.84375-1.84375v-33.738281c0-1.023437.820313-1.84375 1.84375-1.84375zm0 0" fill="#212121"/><path d="m324.968967 52.682771c-7.040994.083325-13.123747 1.624845-18.206595 4.041281-1.874821-3.582992-3.749642-6.66603-4.082943-8.999141-.333302-2.666412-.791591-4.33292-.333302-7.540947.416627-3.208027 2.374774-7.790922 2.374774-8.165886-.041663-.333302-.416627-1.958147-4.457908-1.999809-4.041281-.083326-7.540947.749928-7.957573 1.749832-.374965.999905-1.166556 3.333016-1.666508 5.707789-.708266 3.541328-8.082561 15.956809-12.290493 22.497851-1.374869-2.541424-2.541424-4.749546-2.7914-6.541042-.333302-2.708074-.749928-4.332919-.333302-7.582609.416627-3.208027 2.374774-7.74926 2.374774-8.124224-.041663-.333302-.416627-1.999809-4.457908-2.041472-4.041281-.083325-7.540946.749929-7.915911 1.791496-.416627.999904-.833253 3.374677-1.70817 5.707788-.791591 2.291448-10.623985 23.081129-13.165409 28.497279-1.291544 2.7914-2.416436 4.999522-3.24969 6.499379-.833254 1.458194-.041663.083325-.124988.249976-.708266 1.291543-1.08323 1.999809-1.08323 1.999809v.083326c-.541615.916579-1.166555 1.833158-1.416531 1.833158-.208314 0-.583278-2.541424.083325-5.957765 1.458194-7.207645 4.95786-18.45657 4.916197-18.873197 0-.208314.666603-2.16646-2.249785-3.166365-2.874725-1.041567-3.87463.666603-4.124606.666603s-.416627.583278-.416627.583278 3.166364-12.665457-6.082752-12.665457c-5.832777 0-13.832013 5.999427-17.789968 11.498902-2.499761 1.333206-7.832586 4.082943-13.498711 7.040994-2.16646 1.124893-4.374582 2.333111-6.499379 3.416341l-.416627-.45829c-11.248926-11.415577-31.996945-19.498138-31.122028-34.830007.291638-5.541138 2.33311-20.248067 39.871192-38.038035 30.705401-14.58194 55.286387-10.582322 59.577644-1.666507 6.082753 12.70712-13.165409 36.329864-45.079028 39.704542-12.165505 1.333206-18.539897-3.166365-20.164741-4.832872-1.708171-1.749833-1.916484-1.833158-2.541424-1.499857-1.041568.499952-.416627 2.083135 0 3.041376.916579 2.333111 4.832871 6.541042 11.540564 8.624177 5.832777 1.833158 20.123079 2.833063 37.371431-3.541329 19.331488-7.124319 34.413381-26.914096 29.997136-43.495846-4.499571-16.873389-33.830103-22.372864-61.577453-12.998759-16.498425 5.5828-34.413381 14.331965-47.287151 25.830867-15.290207 13.582036-17.706643 25.497565-16.706738 30.413762 3.582991 17.623317 29.038894 29.080556 39.246252 37.579745-.499952.249976-.999904.499952-1.416531.749928-5.124511 2.374773-24.539324 12.08218-29.372195 22.289538-5.499475 11.62389.833253 19.956428 5.082848 21.08132 13.123746 3.458004 26.539132-2.7914 33.78844-13.082084 7.207645-10.249021 6.332728-23.622744 2.999713-29.705496l-.124988-.208314 3.999618-2.249785c2.624749-1.458194 5.166173-2.7914 7.374296-3.957955-1.249881 3.24969-2.124797 7.12432-2.624749 12.70712-.541615 6.582704 2.291447 15.123556 5.999427 18.456571 1.666507 1.458194 3.624654 1.499856 4.832871 1.499856 4.33292 0 6.291066-3.374677 8.457526-7.457621 2.666412-4.999522 4.999523-10.748973 4.999523-10.748973s-2.916388 15.581845 5.12451 15.581845c2.916389 0 5.874439-3.624654 7.207645-5.499475v.083326s.083326-.083326.249977-.374965c.291638-.416627.458289-.708265.458289-.708265v-.083326c1.166555-1.916483 3.791305-6.374391 7.707597-13.748687 5.082848-9.499093 9.91572-21.372959 9.91572-21.372959s.499952 2.916388 1.958146 7.707598c.833254 2.833062 2.749738 5.916101 4.166269 8.957477-1.166555 1.583183-1.874821 2.458099-1.874821 2.458099l.041663.083325c-.958242 1.208218-1.999809 2.499762-3.083039 3.749642-3.999618 4.582896-8.790827 9.749069-9.415767 11.248926-.749929 1.749833-.583278 3.083039.833253 4.124606 1.08323.749929 2.958051.874917 4.95786.749929 3.624654-.208314 6.124415-1.08323 7.374296-1.624845 1.958146-.666603 4.207932-1.666508 6.374391-3.166365 3.916293-2.749737 6.291066-6.707692 6.082753-11.915528-.124988-2.874726-1.124893-5.749451-2.333111-8.415863.333302-.499953.708266-.999905 1.041567-1.499857 6.207741-8.624176 10.99895-18.123269 10.99895-18.123269s.45829 2.916388 1.916484 7.707597c.749928 2.416436 2.249785 5.082848 3.582991 7.665935-5.791114 4.541233-9.45743 9.790731-10.707311 13.207072-2.33311 6.374391-.499952 9.249116 2.916388 9.915719 1.499857.291639 3.707979-.374964 5.374487-1.041567 1.999809-.666603 4.49957-1.70817 6.749355-3.333015 3.957956-2.749737 7.707598-6.624367 7.499284-11.832203-.124988-2.374773-.791591-4.749547-1.666507-6.957669 4.916197-1.958146 11.332251-3.083039 19.456475-2.16646 17.456666 1.958146 20.91467 12.373818 20.248067 16.706738s-4.33292 6.707693-5.541138 7.457621c-1.208218.708266-1.624845.958242-1.499857 1.499857.166651.791591.708266.749928 1.749833.583278 1.458194-.208314 9.207454-3.541329 9.499093-11.540565.499952-10.290684-9.749069-21.497947-27.914001-21.372959zm-134.653808 43.24587c-5.749451 5.999427-13.873675 8.290875-17.331678 6.332729-3.707979-2.041472-2.249785-10.915625 4.832872-17.290016 4.332919-3.87463 9.915719-7.499284 13.623699-9.707406.833253-.45829 2.083134-1.166555 3.582991-2.041472.208313-.124988.374964-.208313.374964-.208313.291639-.124988.583278-.333302.916579-.541615 2.62475 9.124128.083326 17.123365-5.999427 23.456093zm42.204303-27.330723c-1.999809 4.666221-6.249403 16.665075-8.790827 15.998472-2.208122-.583278-3.541329-9.665744-.45829-18.623222 1.583183-4.541233 4.916198-9.915719 6.874344-11.998854 3.166364-3.374677 6.624367-4.49957 7.499284-3.083039.999904 1.791496-3.87463 14.790255-5.124511 17.706643zm34.788345 15.831821c-.874917.416627-1.666508.708266-1.999809.499952-.291639-.16665.333301-.708265.333301-.708265s4.374582-4.457908 6.082753-6.49938c.999904-1.208218 2.166459-2.583086 3.41634-4.166268v.458289c0 5.374487-5.416149 8.957478-7.832585 10.415672zm26.830771-5.832776c-.62494-.416627-.541615-1.833158 1.541519-6.166078.833254-1.70817 2.708075-4.582896 5.999427-7.332633.374965 1.124893.624941 2.208122.583278 3.24969-.041663 6.707692-5.082848 9.207454-8.124224 10.249021zm0 0" fill="url(#l)" stroke="#212121" stroke-width="3" transform="matrix(.093759 0 0 .093759 0 20.158175)"/></svg>