<?xml version="1.0" encoding="UTF-8"?>
<svg xmlns="http://www.w3.org/2000/svg" xmlns:xlink="http://www.w3.org/1999/xlink" width="64pt" height="64pt" viewBox="0 0 64 64" version="1.1">
<defs>
<linearGradient id="linear0" gradientUnits="userSpaceOnUse" x1="254" y1="233.5" x2="254" y2="254.666672" gradientTransform="matrix(0.125012,0,0,0.125012,-7.938266,26.87757)">
<stop offset="0" style="stop-color:rgb(0%,0%,0%);stop-opacity:0.27451;"/>
<stop offset="1" style="stop-color:rgb(0%,0%,0%);stop-opacity:0;"/>
</linearGradient>
<radialGradient id="radial0" gradientUnits="userSpaceOnUse" cx="450.908936" cy="189.579361" fx="450.908936" fy="189.579361" r="21.166656" gradientTransform="matrix(0.000000348341,-0.156265,-0.281277,-0.000000203077,106.907386,127.190665)">
<stop offset="0" style="stop-color:rgb(0%,0%,0%);stop-opacity:0.313725;"/>
<stop offset="0.222222" style="stop-color:rgb(0%,0%,0%);stop-opacity:0.27451;"/>
<stop offset="1" style="stop-color:rgb(0%,0%,0%);stop-opacity:0;"/>
</radialGradient>
<radialGradient id="radial1" gradientUnits="userSpaceOnUse" cx="450.908936" cy="189.579361" fx="450.908936" fy="189.579361" r="21.166656" gradientTransform="matrix(-0.000000348341,0.156265,0.281277,0.000000203077,-43.401323,-15.054958)">
<stop offset="0" style="stop-color:rgb(0%,0%,0%);stop-opacity:0.313725;"/>
<stop offset="0.222222" style="stop-color:rgb(0%,0%,0%);stop-opacity:0.27451;"/>
<stop offset="1" style="stop-color:rgb(0%,0%,0%);stop-opacity:0;"/>
</radialGradient>
<radialGradient id="radial2" gradientUnits="userSpaceOnUse" cx="450.908936" cy="189.579361" fx="450.908936" fy="189.579361" r="21.166656" gradientTransform="matrix(-0.000000348341,-0.156265,0.281277,-0.000000203077,-43.401323,127.190665)">
<stop offset="0" style="stop-color:rgb(0%,0%,0%);stop-opacity:0.313725;"/>
<stop offset="0.222222" style="stop-color:rgb(0%,0%,0%);stop-opacity:0.27451;"/>
<stop offset="1" style="stop-color:rgb(0%,0%,0%);stop-opacity:0;"/>
</radialGradient>
<radialGradient id="radial3" gradientUnits="userSpaceOnUse" cx="450.908936" cy="189.579361" fx="450.908936" fy="189.579361" r="21.166656" gradientTransform="matrix(0.000000348341,0.156265,-0.281277,0.000000203077,106.907382,-15.054959)">
<stop offset="0" style="stop-color:rgb(0%,0%,0%);stop-opacity:0.313725;"/>
<stop offset="0.222222" style="stop-color:rgb(0%,0%,0%);stop-opacity:0.27451;"/>
<stop offset="1" style="stop-color:rgb(0%,0%,0%);stop-opacity:0;"/>
</radialGradient>
<linearGradient id="linear1" gradientUnits="userSpaceOnUse" x1="42.333332" y1="32.416664" x2="254" y2="32.416664" gradientTransform="matrix(0.125012,0,0,0.125012,0,26.877566)">
<stop offset="0" style="stop-color:rgb(93.333333%,93.333333%,93.333333%);stop-opacity:1;"/>
<stop offset="1" style="stop-color:rgb(87.843137%,87.843137%,87.843137%);stop-opacity:1;"/>
</linearGradient>
<linearGradient id="linear2" gradientUnits="userSpaceOnUse" x1="465.666656" y1="21.833334" x2="254" y2="21.833334" gradientTransform="matrix(0.125012,0,0,0.125012,0,26.877566)">
<stop offset="0" style="stop-color:rgb(87.843137%,87.843137%,87.843137%);stop-opacity:1;"/>
<stop offset="1" style="stop-color:rgb(74.117647%,74.117647%,74.117647%);stop-opacity:1;"/>
</linearGradient>
<linearGradient id="linear3" gradientUnits="userSpaceOnUse" x1="840" y1="1175.118164" x2="840" y2="135.118118" gradientTransform="matrix(0.264583,0,0,0.264583,-10.583328,-209.708084)">
<stop offset="0" style="stop-color:rgb(93.72549%,32.54902%,31.372549%);stop-opacity:1;"/>
<stop offset="1" style="stop-color:rgb(89.803922%,45.098039%,45.098039%);stop-opacity:1;"/>
</linearGradient>
</defs>
<g id="surface1">
<path style=" stroke:none;fill-rule:nonzero;fill:url(#linear0);" d="M 9.261719 56.066406 L 54.246094 56.066406 L 54.246094 58.714844 L 9.261719 58.714844 Z M 9.261719 56.066406 "/>
<path style=" stroke:none;fill-rule:nonzero;fill:url(#radial0);" d="M 54.246094 56.066406 L 59.535156 56.066406 L 59.535156 53.421875 L 54.246094 53.421875 Z M 54.246094 56.066406 "/>
<path style=" stroke:none;fill-rule:nonzero;fill:url(#radial1);" d="M 9.261719 56.066406 L 3.96875 56.066406 L 3.96875 58.714844 L 9.261719 58.714844 Z M 9.261719 56.066406 "/>
<path style=" stroke:none;fill-rule:nonzero;fill:url(#radial2);" d="M 9.261719 56.066406 L 3.96875 56.066406 L 3.96875 53.421875 L 9.261719 53.421875 Z M 9.261719 56.066406 "/>
<path style=" stroke:none;fill-rule:nonzero;fill:url(#radial3);" d="M 54.246094 56.066406 L 59.535156 56.066406 L 59.535156 58.714844 L 54.246094 58.714844 Z M 54.246094 56.066406 "/>
<path style=" stroke:none;fill-rule:nonzero;fill:url(#linear1);" d="M 7.9375 5.792969 L 55.566406 5.792969 C 57.027344 5.792969 58.214844 6.976562 58.214844 8.4375 L 58.214844 53.421875 C 58.214844 54.882812 57.027344 56.066406 55.566406 56.066406 L 7.9375 56.066406 C 6.476562 56.066406 5.292969 54.882812 5.292969 53.421875 L 5.292969 8.4375 C 5.292969 6.976562 6.476562 5.792969 7.9375 5.792969 Z M 7.9375 5.792969 "/>
<path style=" stroke:none;fill-rule:nonzero;fill:url(#linear2);" d="M 31.753906 5.792969 L 31.753906 56.066406 L 55.566406 56.066406 C 57.035156 56.066406 58.214844 54.886719 58.214844 53.421875 L 58.214844 8.4375 C 58.214844 6.972656 57.035156 5.792969 55.566406 5.792969 Z M 31.753906 5.792969 "/>
<path style=" stroke:none;fill-rule:nonzero;fill:rgb(0%,0%,0%);fill-opacity:0.196078;" d="M 7.9375 56.078125 C 6.472656 56.078125 5.292969 54.894531 5.292969 53.429688 L 5.292969 52.925781 C 5.292969 54.390625 6.472656 55.570312 7.9375 55.570312 L 55.566406 55.570312 C 57.035156 55.570312 58.214844 54.390625 58.214844 52.925781 L 58.214844 53.429688 C 58.214844 54.894531 57.035156 56.078125 55.566406 56.078125 Z M 7.9375 56.078125 "/>
<path style=" stroke:none;fill-rule:nonzero;fill:rgb(100%,100%,100%);fill-opacity:0.588235;" d="M 7.9375 5.792969 C 6.472656 5.792969 5.292969 6.972656 5.292969 8.4375 L 5.292969 8.941406 C 5.292969 7.476562 6.472656 6.296875 7.9375 6.296875 L 55.566406 6.296875 C 57.035156 6.296875 58.214844 7.476562 58.214844 8.941406 L 58.214844 8.4375 C 58.214844 6.972656 57.035156 5.792969 55.566406 5.792969 Z M 7.9375 5.792969 "/>
<path style=" stroke:none;fill-rule:nonzero;fill:rgb(25.882354%,25.882354%,25.882354%);fill-opacity:1;" d="M 9.261719 13.730469 L 28.445312 13.730469 C 28.8125 13.730469 29.105469 14.027344 29.105469 14.390625 C 29.105469 14.757812 28.8125 15.054688 28.445312 15.054688 L 9.261719 15.054688 C 8.894531 15.054688 8.601562 14.757812 8.601562 14.390625 C 8.601562 14.027344 8.894531 13.730469 9.261719 13.730469 Z M 9.261719 13.730469 "/>
<path style=" stroke:none;fill-rule:nonzero;fill:rgb(25.882354%,25.882354%,25.882354%);fill-opacity:1;" d="M 9.261719 17.699219 L 28.445312 17.699219 C 28.8125 17.699219 29.105469 17.996094 29.105469 18.359375 C 29.105469 18.726562 28.8125 19.023438 28.445312 19.023438 L 9.261719 19.023438 C 8.894531 19.023438 8.601562 18.726562 8.601562 18.359375 C 8.601562 17.996094 8.894531 17.699219 9.261719 17.699219 Z M 9.261719 17.699219 "/>
<path style=" stroke:none;fill-rule:nonzero;fill:rgb(25.882354%,25.882354%,25.882354%);fill-opacity:1;" d="M 9.261719 21.667969 L 28.445312 21.667969 C 28.8125 21.667969 29.105469 21.964844 29.105469 22.332031 C 29.105469 22.695312 28.8125 22.992188 28.445312 22.992188 L 9.261719 22.992188 C 8.894531 22.992188 8.601562 22.695312 8.601562 22.332031 C 8.601562 21.964844 8.894531 21.667969 9.261719 21.667969 Z M 9.261719 21.667969 "/>
<path style=" stroke:none;fill-rule:nonzero;fill:rgb(25.882354%,25.882354%,25.882354%);fill-opacity:1;" d="M 9.261719 25.636719 L 28.445312 25.636719 C 28.8125 25.636719 29.105469 25.933594 29.105469 26.300781 C 29.105469 26.664062 28.8125 26.960938 28.445312 26.960938 L 9.261719 26.960938 C 8.894531 26.960938 8.601562 26.664062 8.601562 26.300781 C 8.601562 25.933594 8.894531 25.636719 9.261719 25.636719 Z M 9.261719 25.636719 "/>
<path style=" stroke:none;fill-rule:nonzero;fill:rgb(12.941177%,12.941177%,12.941177%);fill-opacity:1;" d="M 7.9375 5.605469 C 6.371094 5.605469 5.105469 6.871094 5.105469 8.4375 L 5.105469 53.421875 C 5.105469 54.988281 6.371094 56.253906 7.9375 56.253906 L 55.566406 56.253906 C 57.132812 56.253906 58.402344 54.988281 58.402344 53.421875 L 58.402344 8.4375 C 58.402344 6.871094 57.132812 5.605469 55.566406 5.605469 Z M 7.9375 5.980469 L 55.566406 5.980469 C 56.933594 5.980469 58.027344 7.074219 58.027344 8.4375 L 58.027344 53.421875 C 58.027344 54.789062 56.933594 55.878906 55.566406 55.878906 L 7.9375 55.878906 C 6.574219 55.878906 5.480469 54.789062 5.480469 53.421875 L 5.480469 8.4375 C 5.480469 7.074219 6.574219 5.980469 7.9375 5.980469 Z M 7.9375 5.980469 "/>
<path style=" stroke:none;fill-rule:nonzero;fill:rgb(0%,0%,0%);fill-opacity:0.196078;" d="M 32.082031 5.792969 L 32.082031 56.066406 L 31.753906 56.066406 L 31.753906 5.792969 Z M 32.082031 5.792969 "/>
<path style=" stroke:none;fill-rule:nonzero;fill:rgb(90.196079%,90.196079%,90.196079%);fill-opacity:0.588235;" d="M 31.753906 5.792969 L 31.753906 56.066406 L 31.421875 56.066406 L 31.421875 5.792969 Z M 31.753906 5.792969 "/>
<path style=" stroke:none;fill-rule:nonzero;fill:rgb(12.941177%,12.941177%,12.941177%);fill-opacity:0.992157;" d="M 31.917969 5.792969 L 31.917969 56.066406 L 31.585938 56.066406 L 31.585938 5.792969 Z M 31.917969 5.792969 "/>
<path style=" stroke:none;fill-rule:nonzero;fill:rgb(25.882354%,25.882354%,25.882354%);fill-opacity:1;" d="M 9.261719 29.605469 L 28.445312 29.605469 C 28.8125 29.605469 29.105469 29.902344 29.105469 30.269531 C 29.105469 30.632812 28.8125 30.929688 28.445312 30.929688 L 9.261719 30.929688 C 8.894531 30.929688 8.601562 30.632812 8.601562 30.269531 C 8.601562 29.902344 8.894531 29.605469 9.261719 29.605469 Z M 9.261719 29.605469 "/>
<path style=" stroke:none;fill-rule:nonzero;fill:rgb(25.882354%,25.882354%,25.882354%);fill-opacity:1;" d="M 9.261719 33.574219 L 28.445312 33.574219 C 28.8125 33.574219 29.105469 33.871094 29.105469 34.238281 C 29.105469 34.601562 28.8125 34.898438 28.445312 34.898438 L 9.261719 34.898438 C 8.894531 34.898438 8.601562 34.601562 8.601562 34.238281 C 8.601562 33.871094 8.894531 33.574219 9.261719 33.574219 Z M 9.261719 33.574219 "/>
<path style=" stroke:none;fill-rule:nonzero;fill:rgb(25.882354%,25.882354%,25.882354%);fill-opacity:1;" d="M 9.261719 37.546875 L 28.445312 37.546875 C 28.8125 37.546875 29.105469 37.839844 29.105469 38.207031 C 29.105469 38.570312 28.8125 38.867188 28.445312 38.867188 L 9.261719 38.867188 C 8.894531 38.867188 8.601562 38.570312 8.601562 38.207031 C 8.601562 37.839844 8.894531 37.546875 9.261719 37.546875 Z M 9.261719 37.546875 "/>
<path style=" stroke:none;fill-rule:nonzero;fill:rgb(25.882354%,25.882354%,25.882354%);fill-opacity:1;" d="M 9.261719 41.515625 L 28.445312 41.515625 C 28.8125 41.515625 29.105469 41.8125 29.105469 42.175781 C 29.105469 42.542969 28.8125 42.835938 28.445312 42.835938 L 9.261719 42.835938 C 8.894531 42.835938 8.601562 42.542969 8.601562 42.175781 C 8.601562 41.8125 8.894531 41.515625 9.261719 41.515625 Z M 9.261719 41.515625 "/>
<path style="fill-rule:nonzero;fill:url(#linear3);stroke-width:3;stroke-linecap:round;stroke-linejoin:miter;stroke:rgb(12.941177%,12.941177%,12.941177%);stroke-opacity:1;stroke-miterlimit:4;" d="M 201.074548 -173.972668 C 195.231356 -173.972668 190.513057 -169.223121 190.513057 -163.379929 L 190.513057 80.034326 C 190.513057 81.471688 190.638045 82.877804 190.919268 84.221426 L 211.667287 27.133127 C 214.323283 20.50876 219.604029 20.50876 222.260025 27.133127 L 243.008044 84.221426 C 243.289267 82.877804 243.414255 81.471688 243.414255 80.034326 L 243.414255 -163.379929 C 243.414255 -169.223121 238.695956 -173.972668 232.821517 -173.972668 Z M 201.074548 -173.972668 " transform="matrix(0.125012,0,0,0.125012,0,26.877566)"/>
<path style=" stroke:none;fill-rule:nonzero;fill:rgb(25.882354%,25.882354%,25.882354%);fill-opacity:1;" d="M 35.0625 13.730469 L 54.246094 13.730469 C 54.609375 13.730469 54.90625 14.027344 54.90625 14.390625 C 54.90625 14.757812 54.609375 15.054688 54.246094 15.054688 L 35.0625 15.054688 C 34.695312 15.054688 34.398438 14.757812 34.398438 14.390625 C 34.398438 14.027344 34.695312 13.730469 35.0625 13.730469 Z M 35.0625 13.730469 "/>
<path style=" stroke:none;fill-rule:nonzero;fill:rgb(25.882354%,25.882354%,25.882354%);fill-opacity:1;" d="M 35.0625 17.699219 L 54.246094 17.699219 C 54.609375 17.699219 54.90625 17.996094 54.90625 18.359375 C 54.90625 18.726562 54.609375 19.023438 54.246094 19.023438 L 35.0625 19.023438 C 34.695312 19.023438 34.398438 18.726562 34.398438 18.359375 C 34.398438 17.996094 34.695312 17.699219 35.0625 17.699219 Z M 35.0625 17.699219 "/>
<path style=" stroke:none;fill-rule:nonzero;fill:rgb(25.882354%,25.882354%,25.882354%);fill-opacity:1;" d="M 35.0625 21.667969 L 54.246094 21.667969 C 54.609375 21.667969 54.90625 21.964844 54.90625 22.332031 C 54.90625 22.695312 54.609375 22.992188 54.246094 22.992188 L 35.0625 22.992188 C 34.695312 22.992188 34.398438 22.695312 34.398438 22.332031 C 34.398438 21.964844 34.695312 21.667969 35.0625 21.667969 Z M 35.0625 21.667969 "/>
<path style=" stroke:none;fill-rule:nonzero;fill:rgb(25.882354%,25.882354%,25.882354%);fill-opacity:1;" d="M 35.0625 25.636719 L 54.246094 25.636719 C 54.609375 25.636719 54.90625 25.933594 54.90625 26.300781 C 54.90625 26.664062 54.609375 26.960938 54.246094 26.960938 L 35.0625 26.960938 C 34.695312 26.960938 34.398438 26.664062 34.398438 26.300781 C 34.398438 25.933594 34.695312 25.636719 35.0625 25.636719 Z M 35.0625 25.636719 "/>
<path style=" stroke:none;fill-rule:nonzero;fill:rgb(25.882354%,25.882354%,25.882354%);fill-opacity:1;" d="M 35.0625 29.605469 L 54.246094 29.605469 C 54.609375 29.605469 54.90625 29.902344 54.90625 30.269531 C 54.90625 30.632812 54.609375 30.929688 54.246094 30.929688 L 35.0625 30.929688 C 34.695312 30.929688 34.398438 30.632812 34.398438 30.269531 C 34.398438 29.902344 34.695312 29.605469 35.0625 29.605469 Z M 35.0625 29.605469 "/>
<path style=" stroke:none;fill-rule:nonzero;fill:rgb(25.882354%,25.882354%,25.882354%);fill-opacity:1;" d="M 35.0625 33.574219 L 54.246094 33.574219 C 54.609375 33.574219 54.90625 33.871094 54.90625 34.238281 C 54.90625 34.601562 54.609375 34.898438 54.246094 34.898438 L 35.0625 34.898438 C 34.695312 34.898438 34.398438 34.601562 34.398438 34.238281 C 34.398438 33.871094 34.695312 33.574219 35.0625 33.574219 Z M 35.0625 33.574219 "/>
<path style=" stroke:none;fill-rule:nonzero;fill:rgb(25.882354%,25.882354%,25.882354%);fill-opacity:1;" d="M 35.0625 37.546875 L 54.246094 37.546875 C 54.609375 37.546875 54.90625 37.839844 54.90625 38.207031 C 54.90625 38.570312 54.609375 38.867188 54.246094 38.867188 L 35.0625 38.867188 C 34.695312 38.867188 34.398438 38.570312 34.398438 38.207031 C 34.398438 37.839844 34.695312 37.546875 35.0625 37.546875 Z M 35.0625 37.546875 "/>
<path style=" stroke:none;fill-rule:nonzero;fill:rgb(25.882354%,25.882354%,25.882354%);fill-opacity:1;" d="M 35.0625 41.515625 L 54.246094 41.515625 C 54.609375 41.515625 54.90625 41.8125 54.90625 42.175781 C 54.90625 42.542969 54.609375 42.835938 54.246094 42.835938 L 35.0625 42.835938 C 34.695312 42.835938 34.398438 42.542969 34.398438 42.175781 C 34.398438 41.8125 34.695312 41.515625 35.0625 41.515625 Z M 35.0625 41.515625 "/>
</g>
</svg>
