<?xml version="1.0" encoding="UTF-8"?>
<svg xmlns="http://www.w3.org/2000/svg" xmlns:xlink="http://www.w3.org/1999/xlink" width="64pt" height="64pt" viewBox="0 0 64 64" version="1.1">
<defs>
<radialGradient id="radial0" gradientUnits="userSpaceOnUse" cx="450.908936" cy="189.579361" fx="450.908936" fy="189.579361" r="21.166656" gradientTransform="matrix(0.000000348341,-0.156265,-0.281277,-0.000000203077,89.046304,127.190659)">
<stop offset="0" style="stop-color:rgb(0%,0%,0%);stop-opacity:0.313725;"/>
<stop offset="0.222222" style="stop-color:rgb(0%,0%,0%);stop-opacity:0.27451;"/>
<stop offset="1" style="stop-color:rgb(0%,0%,0%);stop-opacity:0;"/>
</radialGradient>
<radialGradient id="radial1" gradientUnits="userSpaceOnUse" cx="450.908936" cy="189.579361" fx="450.908936" fy="189.579361" r="21.166656" gradientTransform="matrix(-0.000000348341,0.156265,0.281277,0.000000203077,-25.540237,-15.054964)">
<stop offset="0" style="stop-color:rgb(0%,0%,0%);stop-opacity:0.313725;"/>
<stop offset="0.222222" style="stop-color:rgb(0%,0%,0%);stop-opacity:0.27451;"/>
<stop offset="1" style="stop-color:rgb(0%,0%,0%);stop-opacity:0;"/>
</radialGradient>
<radialGradient id="radial2" gradientUnits="userSpaceOnUse" cx="450.908936" cy="189.579361" fx="450.908936" fy="189.579361" r="21.166656" gradientTransform="matrix(-0.000000348341,-0.156265,0.281277,-0.000000203077,-25.540237,127.190659)">
<stop offset="0" style="stop-color:rgb(0%,0%,0%);stop-opacity:0.313725;"/>
<stop offset="0.222222" style="stop-color:rgb(0%,0%,0%);stop-opacity:0.27451;"/>
<stop offset="1" style="stop-color:rgb(0%,0%,0%);stop-opacity:0;"/>
</radialGradient>
<radialGradient id="radial3" gradientUnits="userSpaceOnUse" cx="450.908936" cy="189.579361" fx="450.908936" fy="189.579361" r="21.166656" gradientTransform="matrix(0.000000348341,0.156265,-0.281277,0.000000203077,89.0463,-15.054965)">
<stop offset="0" style="stop-color:rgb(0%,0%,0%);stop-opacity:0.313725;"/>
<stop offset="0.222222" style="stop-color:rgb(0%,0%,0%);stop-opacity:0.27451;"/>
<stop offset="1" style="stop-color:rgb(0%,0%,0%);stop-opacity:0;"/>
</radialGradient>
<linearGradient id="linear0" gradientUnits="userSpaceOnUse" x1="255.323059" y1="233.5" x2="255.323044" y2="254.666656" gradientTransform="matrix(0.0267201,0,0,0.125012,24.930772,26.877567)">
<stop offset="0" style="stop-color:rgb(0%,0%,0%);stop-opacity:0.27451;"/>
<stop offset="1" style="stop-color:rgb(0%,0%,0%);stop-opacity:0;"/>
</linearGradient>
<linearGradient id="linear1" gradientUnits="userSpaceOnUse" x1="254" y1="-168.666672" x2="254" y2="233.5" gradientTransform="matrix(0.0986936,0,0,0.0986936,6.684848,33.02289)">
<stop offset="0" style="stop-color:rgb(93.333333%,93.333333%,93.333333%);stop-opacity:1;"/>
<stop offset="1" style="stop-color:rgb(87.843137%,87.843137%,87.843137%);stop-opacity:1;"/>
</linearGradient>
<linearGradient id="linear2" gradientUnits="userSpaceOnUse" x1="720" y1="1375.118164" x2="720" y2="175.118134" gradientTransform="matrix(0.0330761,0,0,0.0330761,1.323043,0)">
<stop offset="0" style="stop-color:rgb(25.882353%,64.705882%,96.078431%);stop-opacity:1;"/>
<stop offset="1" style="stop-color:rgb(39.215686%,70.980392%,96.470588%);stop-opacity:1;"/>
</linearGradient>
</defs>
<g id="surface1">
<path style=" stroke:none;fill-rule:nonzero;fill:url(#radial0);" d="M 36.382812 56.066406 L 41.675781 56.066406 L 41.675781 53.421875 L 36.382812 53.421875 Z M 36.382812 56.066406 "/>
<path style=" stroke:none;fill-rule:nonzero;fill:url(#radial1);" d="M 27.121094 56.066406 L 21.832031 56.066406 L 21.832031 58.714844 L 27.121094 58.714844 Z M 27.121094 56.066406 "/>
<path style=" stroke:none;fill-rule:nonzero;fill:url(#radial2);" d="M 27.121094 56.066406 L 21.832031 56.066406 L 21.832031 53.421875 L 27.121094 53.421875 Z M 27.121094 56.066406 "/>
<path style=" stroke:none;fill-rule:nonzero;fill:url(#radial3);" d="M 36.382812 56.066406 L 41.675781 56.066406 L 41.675781 58.714844 L 36.382812 58.714844 Z M 36.382812 56.066406 "/>
<path style=" stroke:none;fill-rule:nonzero;fill:url(#linear0);" d="M 27.121094 55.40625 L 36.382812 55.40625 L 36.382812 58.714844 L 27.121094 58.714844 Z M 27.121094 55.40625 "/>
<path style=" stroke:none;fill-rule:nonzero;fill:url(#linear1);" d="M 31.753906 16.375 C 42.714844 16.375 51.597656 25.261719 51.597656 36.222656 C 51.597656 47.183594 42.714844 56.066406 31.753906 56.066406 C 20.792969 56.066406 11.90625 47.183594 11.90625 36.222656 C 11.90625 25.261719 20.792969 16.375 31.753906 16.375 Z M 31.753906 16.375 "/>
<path style=" stroke:none;fill-rule:nonzero;fill:rgb(95.686275%,95.686275%,95.686275%);fill-opacity:1;" d="M 31.753906 16.375 C 20.757812 16.375 11.90625 25.226562 11.90625 36.222656 C 11.90625 36.386719 11.910156 36.554688 11.914062 36.71875 C 11.914062 36.632812 11.917969 36.550781 11.921875 36.464844 C 11.925781 36.382812 11.929688 36.300781 11.933594 36.214844 C 11.9375 36.140625 11.941406 36.066406 11.945312 35.992188 C 11.945312 35.984375 11.945312 35.972656 11.945312 35.960938 C 11.949219 35.878906 11.957031 35.800781 11.960938 35.71875 C 11.960938 35.71875 11.960938 35.714844 11.960938 35.714844 C 11.96875 35.644531 11.972656 35.574219 11.980469 35.5 C 11.980469 35.488281 11.980469 35.472656 11.984375 35.460938 C 11.988281 35.394531 11.996094 35.332031 12 35.265625 C 12.003906 35.25 12.003906 35.230469 12.007812 35.210938 C 12.011719 35.148438 12.019531 35.082031 12.027344 35.019531 C 12.027344 35 12.03125 34.984375 12.03125 34.964844 C 12.039062 34.898438 12.046875 34.832031 12.054688 34.765625 C 12.058594 34.75 12.058594 34.734375 12.0625 34.71875 C 12.070312 34.660156 12.078125 34.601562 12.085938 34.542969 C 12.089844 34.515625 12.089844 34.492188 12.09375 34.464844 C 12.101562 34.414062 12.109375 34.359375 12.117188 34.308594 C 12.121094 34.277344 12.125 34.25 12.128906 34.21875 C 12.136719 34.164062 12.148438 34.109375 12.15625 34.054688 C 12.160156 34.027344 12.164062 34.003906 12.167969 33.980469 C 12.175781 33.921875 12.1875 33.867188 12.195312 33.8125 C 12.199219 33.789062 12.203125 33.761719 12.210938 33.734375 C 12.21875 33.679688 12.230469 33.621094 12.238281 33.566406 C 12.242188 33.542969 12.25 33.519531 12.253906 33.492188 C 12.261719 33.441406 12.273438 33.390625 12.285156 33.335938 C 12.289062 33.308594 12.292969 33.277344 12.300781 33.246094 C 12.3125 33.195312 12.320312 33.144531 12.332031 33.09375 C 12.339844 33.066406 12.34375 33.039062 12.351562 33.011719 C 12.359375 32.960938 12.371094 32.910156 12.382812 32.859375 C 12.390625 32.828125 12.398438 32.796875 12.402344 32.765625 C 12.414062 32.714844 12.425781 32.664062 12.441406 32.613281 C 12.445312 32.585938 12.453125 32.5625 12.457031 32.535156 C 12.46875 32.484375 12.484375 32.429688 12.496094 32.378906 C 12.503906 32.351562 12.511719 32.324219 12.515625 32.296875 C 12.53125 32.246094 12.542969 32.199219 12.554688 32.148438 C 12.5625 32.117188 12.570312 32.089844 12.578125 32.058594 C 12.59375 32.007812 12.605469 31.953125 12.621094 31.902344 C 12.628906 31.878906 12.632812 31.855469 12.640625 31.832031 C 12.65625 31.777344 12.671875 31.726562 12.683594 31.675781 C 12.691406 31.648438 12.699219 31.621094 12.707031 31.59375 C 12.722656 31.542969 12.738281 31.492188 12.753906 31.445312 C 12.761719 31.417969 12.769531 31.390625 12.777344 31.363281 C 12.792969 31.3125 12.808594 31.261719 12.824219 31.210938 C 12.832031 31.183594 12.839844 31.160156 12.851562 31.132812 C 12.867188 31.082031 12.882812 31.03125 12.898438 30.980469 C 12.90625 30.953125 12.917969 30.925781 12.925781 30.902344 C 12.941406 30.851562 12.957031 30.804688 12.972656 30.757812 C 12.984375 30.730469 12.992188 30.699219 13.003906 30.667969 C 13.019531 30.621094 13.039062 30.574219 13.054688 30.527344 C 13.0625 30.5 13.074219 30.472656 13.085938 30.441406 C 13.101562 30.398438 13.117188 30.351562 13.132812 30.304688 C 13.144531 30.277344 13.15625 30.246094 13.167969 30.214844 C 13.183594 30.167969 13.203125 30.125 13.21875 30.078125 C 13.230469 30.050781 13.242188 30.023438 13.253906 29.992188 C 13.269531 29.945312 13.289062 29.898438 13.308594 29.851562 C 13.320312 29.824219 13.328125 29.800781 13.339844 29.773438 C 13.359375 29.722656 13.378906 29.675781 13.398438 29.625 C 13.410156 29.601562 13.417969 29.578125 13.429688 29.554688 C 13.449219 29.503906 13.46875 29.457031 13.492188 29.410156 C 13.503906 29.382812 13.511719 29.355469 13.523438 29.328125 C 13.546875 29.28125 13.566406 29.234375 13.585938 29.1875 C 13.597656 29.164062 13.609375 29.140625 13.617188 29.113281 C 13.640625 29.066406 13.664062 29.015625 13.683594 28.964844 C 13.695312 28.945312 13.707031 28.921875 13.714844 28.898438 C 13.738281 28.851562 13.761719 28.800781 13.785156 28.75 C 13.796875 28.726562 13.808594 28.703125 13.816406 28.679688 C 13.839844 28.632812 13.863281 28.585938 13.886719 28.535156 C 13.898438 28.511719 13.910156 28.488281 13.921875 28.464844 C 13.945312 28.417969 13.96875 28.371094 13.992188 28.324219 C 14.003906 28.300781 14.019531 28.273438 14.03125 28.246094 C 14.054688 28.203125 14.074219 28.160156 14.097656 28.117188 C 14.109375 28.089844 14.125 28.0625 14.140625 28.035156 C 14.164062 27.988281 14.1875 27.945312 14.210938 27.898438 C 14.222656 27.878906 14.234375 27.855469 14.246094 27.835938 C 14.269531 27.785156 14.296875 27.738281 14.324219 27.691406 C 14.335938 27.667969 14.347656 27.644531 14.363281 27.617188 C 14.386719 27.574219 14.410156 27.53125 14.4375 27.484375 C 14.449219 27.460938 14.464844 27.4375 14.476562 27.414062 C 14.503906 27.367188 14.53125 27.320312 14.554688 27.273438 C 14.566406 27.253906 14.578125 27.234375 14.589844 27.214844 C 14.617188 27.167969 14.648438 27.117188 14.675781 27.070312 C 14.6875 27.050781 14.703125 27.027344 14.714844 27.007812 C 14.742188 26.960938 14.769531 26.917969 14.796875 26.871094 C 14.808594 26.847656 14.824219 26.824219 14.839844 26.800781 C 14.867188 26.757812 14.894531 26.710938 14.921875 26.667969 C 14.933594 26.644531 14.949219 26.625 14.960938 26.601562 C 14.988281 26.558594 15.019531 26.515625 15.046875 26.472656 C 15.0625 26.445312 15.078125 26.421875 15.09375 26.398438 C 15.121094 26.355469 15.148438 26.3125 15.175781 26.269531 C 15.191406 26.25 15.207031 26.226562 15.222656 26.203125 C 15.25 26.160156 15.277344 26.117188 15.308594 26.074219 C 15.320312 26.054688 15.335938 26.03125 15.351562 26.011719 C 15.382812 25.964844 15.410156 25.921875 15.441406 25.878906 C 15.457031 25.859375 15.46875 25.839844 15.484375 25.820312 C 15.515625 25.773438 15.546875 25.730469 15.578125 25.6875 C 15.59375 25.660156 15.613281 25.636719 15.632812 25.613281 C 15.660156 25.574219 15.683594 25.535156 15.714844 25.496094 C 15.730469 25.472656 15.75 25.449219 15.765625 25.425781 C 15.796875 25.382812 15.828125 25.34375 15.859375 25.304688 C 15.871094 25.285156 15.886719 25.265625 15.898438 25.246094 C 15.933594 25.203125 15.964844 25.160156 15.996094 25.117188 C 16.015625 25.09375 16.03125 25.074219 16.050781 25.050781 C 16.082031 25.011719 16.113281 24.96875 16.144531 24.929688 C 16.160156 24.910156 16.175781 24.890625 16.191406 24.871094 C 16.222656 24.832031 16.257812 24.789062 16.289062 24.746094 C 16.304688 24.730469 16.320312 24.710938 16.332031 24.691406 C 16.371094 24.648438 16.40625 24.605469 16.441406 24.558594 C 16.449219 24.554688 16.453125 24.546875 16.457031 24.539062 C 16.503906 24.488281 16.546875 24.433594 16.589844 24.382812 C 16.605469 24.367188 16.617188 24.351562 16.628906 24.335938 C 16.667969 24.292969 16.703125 24.25 16.742188 24.203125 C 16.761719 24.179688 16.785156 24.15625 16.804688 24.132812 C 16.835938 24.097656 16.867188 24.0625 16.898438 24.027344 C 16.914062 24.007812 16.933594 23.988281 16.949219 23.96875 C 16.984375 23.929688 17.019531 23.890625 17.058594 23.851562 C 17.214844 23.675781 17.375 23.507812 17.539062 23.339844 C 17.539062 23.339844 17.539062 23.339844 17.539062 23.335938 C 17.59375 23.28125 17.648438 23.226562 17.703125 23.171875 C 17.738281 23.136719 17.773438 23.101562 17.8125 23.066406 C 17.832031 23.046875 17.851562 23.023438 17.875 23.003906 C 17.898438 22.980469 17.921875 22.957031 17.945312 22.933594 C 17.980469 22.902344 18.011719 22.871094 18.042969 22.839844 C 18.097656 22.789062 18.152344 22.738281 18.203125 22.6875 C 18.207031 22.6875 18.207031 22.683594 18.210938 22.683594 C 18.25 22.644531 18.292969 22.609375 18.332031 22.570312 C 18.351562 22.554688 18.367188 22.539062 18.386719 22.519531 C 18.425781 22.484375 18.460938 22.453125 18.5 22.417969 C 18.519531 22.398438 18.539062 22.382812 18.5625 22.363281 C 18.601562 22.328125 18.644531 22.289062 18.6875 22.253906 C 18.703125 22.238281 18.71875 22.222656 18.738281 22.210938 C 18.777344 22.175781 18.816406 22.140625 18.855469 22.109375 C 18.875 22.089844 18.898438 22.070312 18.917969 22.054688 C 18.953125 22.023438 18.988281 21.992188 19.027344 21.964844 C 19.050781 21.945312 19.074219 21.921875 19.097656 21.902344 C 19.132812 21.875 19.164062 21.847656 19.199219 21.820312 C 19.226562 21.796875 19.257812 21.773438 19.285156 21.75 C 19.316406 21.722656 19.351562 21.699219 19.386719 21.671875 C 19.414062 21.648438 19.4375 21.628906 19.464844 21.605469 C 19.503906 21.574219 19.542969 21.546875 19.585938 21.515625 C 19.605469 21.496094 19.628906 21.480469 19.652344 21.464844 C 19.6875 21.433594 19.726562 21.40625 19.761719 21.378906 C 19.789062 21.359375 19.816406 21.335938 19.84375 21.316406 C 19.878906 21.292969 19.914062 21.265625 19.949219 21.238281 C 19.976562 21.21875 20.003906 21.199219 20.03125 21.179688 C 20.070312 21.152344 20.105469 21.125 20.144531 21.097656 C 20.171875 21.078125 20.195312 21.058594 20.222656 21.039062 C 20.261719 21.015625 20.296875 20.988281 20.335938 20.960938 C 20.363281 20.941406 20.390625 20.921875 20.417969 20.902344 C 20.453125 20.878906 20.484375 20.855469 20.519531 20.832031 C 20.550781 20.8125 20.582031 20.789062 20.613281 20.769531 C 20.648438 20.746094 20.683594 20.722656 20.714844 20.699219 C 20.75 20.679688 20.78125 20.65625 20.8125 20.636719 C 20.847656 20.613281 20.882812 20.589844 20.917969 20.566406 C 20.949219 20.546875 20.976562 20.527344 21.007812 20.507812 C 21.042969 20.484375 21.082031 20.460938 21.117188 20.4375 C 21.148438 20.417969 21.179688 20.398438 21.210938 20.378906 C 21.246094 20.359375 21.277344 20.339844 21.308594 20.320312 C 21.34375 20.296875 21.378906 20.273438 21.417969 20.253906 C 21.445312 20.234375 21.476562 20.214844 21.507812 20.195312 C 21.546875 20.175781 21.585938 20.152344 21.621094 20.128906 C 21.652344 20.113281 21.683594 20.09375 21.710938 20.078125 C 21.75 20.054688 21.789062 20.03125 21.824219 20.011719 C 21.859375 19.992188 21.894531 19.972656 21.925781 19.953125 C 21.960938 19.933594 21.992188 19.914062 22.027344 19.894531 C 22.0625 19.875 22.097656 19.855469 22.132812 19.835938 C 22.167969 19.816406 22.203125 19.796875 22.238281 19.777344 C 22.273438 19.761719 22.304688 19.742188 22.339844 19.726562 C 22.375 19.703125 22.414062 19.683594 22.449219 19.664062 C 22.484375 19.648438 22.515625 19.632812 22.546875 19.617188 C 22.585938 19.59375 22.625 19.574219 22.664062 19.554688 C 22.695312 19.539062 22.730469 19.519531 22.761719 19.503906 C 22.796875 19.484375 22.835938 19.46875 22.871094 19.449219 C 22.90625 19.429688 22.941406 19.414062 22.976562 19.398438 C 23.011719 19.378906 23.050781 19.359375 23.089844 19.34375 C 23.125 19.324219 23.15625 19.308594 23.191406 19.292969 C 23.230469 19.273438 23.265625 19.257812 23.304688 19.238281 C 23.335938 19.222656 23.371094 19.207031 23.40625 19.191406 C 23.445312 19.171875 23.484375 19.15625 23.527344 19.136719 C 23.558594 19.125 23.585938 19.109375 23.617188 19.09375 C 23.660156 19.078125 23.703125 19.058594 23.742188 19.039062 C 23.777344 19.027344 23.808594 19.011719 23.84375 18.996094 C 23.882812 18.980469 23.925781 18.960938 23.964844 18.945312 C 23.996094 18.929688 24.027344 18.917969 24.058594 18.90625 C 24.101562 18.886719 24.144531 18.871094 24.1875 18.851562 C 24.21875 18.839844 24.253906 18.824219 24.285156 18.8125 C 24.324219 18.796875 24.363281 18.78125 24.402344 18.765625 C 24.4375 18.75 24.476562 18.734375 24.511719 18.722656 C 24.550781 18.707031 24.59375 18.691406 24.632812 18.675781 C 24.667969 18.664062 24.699219 18.648438 24.730469 18.636719 C 24.773438 18.621094 24.8125 18.605469 24.855469 18.589844 C 24.890625 18.578125 24.925781 18.566406 24.960938 18.554688 C 25.003906 18.539062 25.042969 18.523438 25.085938 18.507812 C 25.121094 18.496094 25.152344 18.484375 25.1875 18.472656 C 25.226562 18.457031 25.269531 18.445312 25.308594 18.429688 C 25.34375 18.417969 25.382812 18.40625 25.417969 18.394531 C 25.460938 18.378906 25.5 18.367188 25.542969 18.351562 C 25.578125 18.339844 25.609375 18.332031 25.644531 18.320312 C 25.6875 18.304688 25.726562 18.292969 25.769531 18.28125 C 25.804688 18.269531 25.84375 18.257812 25.882812 18.246094 C 25.921875 18.234375 25.960938 18.222656 26 18.210938 C 26.035156 18.199219 26.074219 18.1875 26.109375 18.175781 C 26.15625 18.164062 26.199219 18.152344 26.242188 18.136719 C 26.277344 18.128906 26.308594 18.121094 26.339844 18.109375 C 26.386719 18.097656 26.433594 18.085938 26.480469 18.070312 C 26.511719 18.0625 26.542969 18.054688 26.574219 18.046875 C 26.621094 18.035156 26.664062 18.023438 26.707031 18.011719 C 26.746094 18 26.78125 17.992188 26.816406 17.984375 C 26.859375 17.972656 26.898438 17.960938 26.9375 17.953125 C 26.976562 17.941406 27.015625 17.933594 27.054688 17.921875 C 27.097656 17.914062 27.140625 17.902344 27.183594 17.894531 C 27.21875 17.886719 27.253906 17.878906 27.289062 17.867188 C 27.335938 17.859375 27.382812 17.847656 27.429688 17.835938 C 27.460938 17.832031 27.496094 17.824219 27.527344 17.816406 C 27.574219 17.804688 27.621094 17.796875 27.664062 17.785156 C 27.699219 17.78125 27.734375 17.773438 27.769531 17.765625 C 27.816406 17.757812 27.863281 17.746094 27.910156 17.738281 C 27.941406 17.730469 27.976562 17.726562 28.011719 17.71875 C 28.058594 17.710938 28.105469 17.699219 28.15625 17.691406 C 28.1875 17.6875 28.21875 17.679688 28.253906 17.675781 C 28.296875 17.667969 28.34375 17.660156 28.390625 17.652344 C 28.425781 17.644531 28.464844 17.636719 28.5 17.632812 C 28.546875 17.625 28.59375 17.617188 28.640625 17.609375 C 28.671875 17.605469 28.707031 17.597656 28.742188 17.59375 C 28.789062 17.585938 28.832031 17.582031 28.878906 17.574219 C 28.917969 17.570312 28.953125 17.5625 28.988281 17.558594 C 29.039062 17.550781 29.089844 17.542969 29.140625 17.539062 C 29.171875 17.535156 29.199219 17.53125 29.230469 17.527344 C 29.28125 17.519531 29.328125 17.515625 29.378906 17.507812 C 29.414062 17.503906 29.449219 17.5 29.484375 17.496094 C 29.535156 17.488281 29.585938 17.484375 29.640625 17.480469 C 29.667969 17.476562 29.699219 17.472656 29.726562 17.46875 C 29.789062 17.464844 29.847656 17.457031 29.910156 17.453125 C 29.929688 17.449219 29.953125 17.449219 29.976562 17.445312 C 30.035156 17.441406 30.09375 17.4375 30.148438 17.433594 C 30.175781 17.429688 30.203125 17.429688 30.230469 17.425781 C 30.285156 17.421875 30.339844 17.417969 30.394531 17.414062 C 30.425781 17.414062 30.453125 17.410156 30.480469 17.410156 C 30.554688 17.402344 30.628906 17.398438 30.703125 17.394531 C 30.710938 17.394531 30.722656 17.394531 30.730469 17.394531 C 30.796875 17.390625 30.863281 17.386719 30.929688 17.386719 C 30.949219 17.386719 30.96875 17.382812 30.988281 17.382812 C 31.042969 17.382812 31.097656 17.378906 31.15625 17.378906 C 31.183594 17.378906 31.214844 17.375 31.242188 17.375 C 31.414062 17.371094 31.582031 17.367188 31.753906 17.367188 C 31.921875 17.367188 32.09375 17.371094 32.261719 17.375 C 32.292969 17.375 32.320312 17.378906 32.351562 17.378906 C 32.40625 17.378906 32.460938 17.382812 32.519531 17.382812 C 32.539062 17.382812 32.554688 17.386719 32.574219 17.386719 C 32.640625 17.386719 32.707031 17.390625 32.777344 17.394531 C 32.785156 17.394531 32.792969 17.394531 32.800781 17.394531 C 32.875 17.398438 32.949219 17.402344 33.023438 17.410156 C 33.054688 17.410156 33.082031 17.414062 33.109375 17.414062 C 33.164062 17.417969 33.21875 17.421875 33.277344 17.425781 C 33.300781 17.429688 33.328125 17.429688 33.355469 17.433594 C 33.414062 17.4375 33.472656 17.441406 33.527344 17.445312 C 33.550781 17.449219 33.574219 17.449219 33.597656 17.453125 C 33.65625 17.457031 33.71875 17.464844 33.777344 17.46875 C 33.808594 17.472656 33.835938 17.476562 33.867188 17.480469 C 33.917969 17.484375 33.96875 17.488281 34.019531 17.496094 C 34.054688 17.5 34.09375 17.503906 34.128906 17.507812 C 34.175781 17.515625 34.226562 17.519531 34.273438 17.527344 C 34.304688 17.53125 34.335938 17.535156 34.367188 17.539062 C 34.417969 17.542969 34.464844 17.550781 34.515625 17.558594 C 34.550781 17.5625 34.589844 17.570312 34.625 17.574219 C 34.671875 17.582031 34.71875 17.585938 34.765625 17.59375 C 34.800781 17.597656 34.832031 17.605469 34.867188 17.609375 C 34.914062 17.617188 34.960938 17.625 35.003906 17.632812 C 35.042969 17.636719 35.078125 17.644531 35.117188 17.652344 C 35.164062 17.660156 35.207031 17.667969 35.253906 17.675781 C 35.285156 17.679688 35.320312 17.6875 35.355469 17.691406 C 35.402344 17.699219 35.449219 17.710938 35.492188 17.71875 C 35.527344 17.726562 35.5625 17.730469 35.597656 17.738281 C 35.644531 17.746094 35.691406 17.757812 35.738281 17.765625 C 35.769531 17.773438 35.804688 17.78125 35.839844 17.785156 C 35.886719 17.796875 35.933594 17.804688 35.976562 17.816406 C 36.011719 17.824219 36.042969 17.832031 36.078125 17.835938 C 36.125 17.847656 36.171875 17.859375 36.21875 17.867188 C 36.253906 17.878906 36.289062 17.886719 36.324219 17.894531 C 36.367188 17.902344 36.410156 17.914062 36.449219 17.921875 C 36.492188 17.933594 36.53125 17.941406 36.570312 17.953125 C 36.609375 17.960938 36.648438 17.972656 36.6875 17.984375 C 36.722656 17.992188 36.761719 18 36.796875 18.011719 C 36.84375 18.023438 36.886719 18.035156 36.929688 18.046875 C 36.960938 18.054688 36.992188 18.0625 37.023438 18.070312 C 37.070312 18.085938 37.117188 18.097656 37.164062 18.109375 C 37.199219 18.121094 37.230469 18.128906 37.261719 18.136719 C 37.308594 18.152344 37.351562 18.164062 37.394531 18.175781 C 37.433594 18.1875 37.46875 18.199219 37.507812 18.210938 C 37.546875 18.222656 37.585938 18.234375 37.621094 18.246094 C 37.660156 18.257812 37.699219 18.269531 37.738281 18.28125 C 37.777344 18.292969 37.820312 18.304688 37.859375 18.320312 C 37.894531 18.332031 37.929688 18.339844 37.964844 18.351562 C 38.003906 18.367188 38.046875 18.378906 38.085938 18.394531 C 38.125 18.40625 38.160156 18.417969 38.195312 18.429688 C 38.238281 18.445312 38.277344 18.457031 38.320312 18.472656 C 38.351562 18.484375 38.386719 18.496094 38.421875 18.507812 C 38.460938 18.523438 38.503906 18.539062 38.542969 18.554688 C 38.578125 18.566406 38.613281 18.578125 38.648438 18.589844 C 38.691406 18.605469 38.734375 18.621094 38.773438 18.636719 C 38.808594 18.648438 38.839844 18.664062 38.871094 18.675781 C 38.914062 18.691406 38.953125 18.707031 38.996094 18.722656 C 39.03125 18.734375 39.066406 18.75 39.105469 18.765625 C 39.144531 18.78125 39.179688 18.796875 39.21875 18.8125 C 39.253906 18.824219 39.285156 18.839844 39.316406 18.851562 C 39.363281 18.871094 39.40625 18.886719 39.449219 18.90625 C 39.480469 18.917969 39.511719 18.929688 39.542969 18.945312 C 39.582031 18.960938 39.621094 18.980469 39.664062 18.996094 C 39.695312 19.011719 39.730469 19.027344 39.761719 19.039062 C 39.804688 19.058594 39.847656 19.078125 39.886719 19.09375 C 39.917969 19.109375 39.949219 19.125 39.980469 19.136719 C 40.019531 19.15625 40.058594 19.171875 40.097656 19.191406 C 40.132812 19.207031 40.167969 19.222656 40.203125 19.238281 C 40.238281 19.257812 40.277344 19.273438 40.3125 19.292969 C 40.347656 19.308594 40.382812 19.324219 40.417969 19.34375 C 40.453125 19.359375 40.492188 19.378906 40.53125 19.398438 C 40.566406 19.414062 40.597656 19.429688 40.632812 19.449219 C 40.671875 19.46875 40.707031 19.484375 40.746094 19.503906 C 40.777344 19.519531 40.808594 19.539062 40.84375 19.554688 C 40.882812 19.574219 40.921875 19.59375 40.960938 19.617188 C 40.992188 19.632812 41.023438 19.648438 41.054688 19.664062 C 41.09375 19.683594 41.128906 19.703125 41.167969 19.726562 C 41.199219 19.742188 41.234375 19.761719 41.265625 19.777344 C 41.300781 19.796875 41.335938 19.816406 41.371094 19.835938 C 41.40625 19.855469 41.445312 19.875 41.480469 19.894531 C 41.511719 19.914062 41.546875 19.933594 41.578125 19.953125 C 41.613281 19.972656 41.648438 19.992188 41.679688 20.011719 C 41.71875 20.03125 41.757812 20.054688 41.792969 20.078125 C 41.824219 20.09375 41.855469 20.113281 41.882812 20.128906 C 41.921875 20.152344 41.960938 20.175781 41.996094 20.195312 C 42.027344 20.214844 42.058594 20.234375 42.089844 20.253906 C 42.125 20.273438 42.160156 20.296875 42.199219 20.320312 C 42.230469 20.339844 42.261719 20.359375 42.292969 20.378906 C 42.324219 20.398438 42.355469 20.417969 42.386719 20.4375 C 42.425781 20.460938 42.460938 20.484375 42.5 20.507812 C 42.527344 20.527344 42.558594 20.546875 42.585938 20.566406 C 42.621094 20.589844 42.65625 20.613281 42.691406 20.636719 C 42.726562 20.65625 42.757812 20.679688 42.789062 20.699219 C 42.824219 20.722656 42.859375 20.746094 42.890625 20.769531 C 42.921875 20.789062 42.953125 20.8125 42.984375 20.832031 C 43.019531 20.855469 43.054688 20.878906 43.085938 20.902344 C 43.113281 20.921875 43.144531 20.941406 43.171875 20.960938 C 43.207031 20.988281 43.246094 21.015625 43.285156 21.039062 C 43.308594 21.058594 43.335938 21.078125 43.363281 21.097656 C 43.398438 21.125 43.4375 21.152344 43.472656 21.179688 C 43.5 21.199219 43.53125 21.21875 43.558594 21.238281 C 43.59375 21.265625 43.628906 21.292969 43.664062 21.316406 C 43.691406 21.335938 43.714844 21.359375 43.742188 21.378906 C 43.78125 21.40625 43.816406 21.433594 43.855469 21.464844 C 43.878906 21.480469 43.898438 21.496094 43.921875 21.515625 C 43.960938 21.546875 44 21.574219 44.039062 21.605469 C 44.066406 21.628906 44.09375 21.648438 44.121094 21.671875 C 44.152344 21.699219 44.1875 21.722656 44.222656 21.75 C 44.25 21.773438 44.277344 21.796875 44.308594 21.820312 C 44.339844 21.847656 44.375 21.875 44.40625 21.902344 C 44.429688 21.921875 44.457031 21.945312 44.480469 21.964844 C 44.515625 21.992188 44.550781 22.023438 44.589844 22.054688 C 44.609375 22.070312 44.628906 22.089844 44.648438 22.109375 C 44.691406 22.140625 44.730469 22.175781 44.769531 22.210938 C 44.785156 22.222656 44.804688 22.238281 44.820312 22.253906 C 44.863281 22.289062 44.902344 22.328125 44.945312 22.363281 C 44.964844 22.382812 44.984375 22.398438 45.003906 22.417969 C 45.042969 22.453125 45.082031 22.484375 45.117188 22.519531 C 45.136719 22.539062 45.15625 22.554688 45.171875 22.570312 C 45.214844 22.609375 45.253906 22.644531 45.296875 22.683594 C 45.296875 22.683594 45.300781 22.6875 45.300781 22.6875 C 45.355469 22.738281 45.410156 22.789062 45.460938 22.839844 C 45.496094 22.871094 45.527344 22.902344 45.558594 22.933594 C 45.582031 22.957031 45.609375 22.980469 45.632812 23.003906 C 45.632812 23.003906 45.632812 23.007812 45.636719 23.007812 C 45.65625 23.027344 45.675781 23.046875 45.695312 23.066406 C 45.730469 23.101562 45.765625 23.136719 45.800781 23.171875 C 45.855469 23.226562 45.910156 23.28125 45.964844 23.335938 C 45.964844 23.339844 45.964844 23.339844 45.964844 23.339844 C 46.128906 23.507812 46.289062 23.675781 46.449219 23.851562 C 46.484375 23.890625 46.519531 23.929688 46.558594 23.96875 C 46.574219 23.988281 46.589844 24.007812 46.609375 24.027344 C 46.640625 24.0625 46.667969 24.097656 46.699219 24.132812 C 46.722656 24.15625 46.742188 24.179688 46.761719 24.203125 C 46.800781 24.25 46.839844 24.292969 46.875 24.335938 C 46.886719 24.351562 46.898438 24.363281 46.910156 24.378906 C 46.914062 24.378906 46.914062 24.378906 46.914062 24.382812 C 46.960938 24.433594 47.003906 24.488281 47.046875 24.539062 C 47.050781 24.546875 47.058594 24.550781 47.0625 24.558594 C 47.101562 24.605469 47.136719 24.648438 47.171875 24.691406 C 47.1875 24.710938 47.203125 24.730469 47.214844 24.746094 C 47.25 24.789062 47.28125 24.832031 47.316406 24.871094 C 47.332031 24.890625 47.347656 24.910156 47.363281 24.929688 C 47.394531 24.96875 47.425781 25.011719 47.457031 25.050781 C 47.472656 25.074219 47.492188 25.09375 47.507812 25.117188 C 47.542969 25.160156 47.574219 25.203125 47.605469 25.246094 C 47.621094 25.265625 47.632812 25.285156 47.648438 25.304688 C 47.679688 25.34375 47.707031 25.382812 47.738281 25.425781 C 47.757812 25.449219 47.773438 25.472656 47.792969 25.496094 C 47.820312 25.535156 47.847656 25.574219 47.875 25.613281 C 47.894531 25.636719 47.910156 25.660156 47.929688 25.6875 C 47.960938 25.730469 47.992188 25.773438 48.023438 25.820312 C 48.035156 25.839844 48.050781 25.859375 48.0625 25.878906 C 48.09375 25.921875 48.125 25.964844 48.15625 26.011719 C 48.167969 26.03125 48.183594 26.054688 48.199219 26.074219 C 48.226562 26.117188 48.257812 26.160156 48.285156 26.203125 C 48.300781 26.226562 48.316406 26.25 48.328125 26.269531 C 48.355469 26.3125 48.382812 26.355469 48.410156 26.398438 C 48.429688 26.421875 48.445312 26.445312 48.460938 26.472656 C 48.488281 26.515625 48.515625 26.558594 48.542969 26.601562 C 48.558594 26.625 48.570312 26.644531 48.582031 26.667969 C 48.613281 26.710938 48.640625 26.757812 48.667969 26.800781 C 48.683594 26.824219 48.695312 26.847656 48.710938 26.871094 C 48.738281 26.917969 48.765625 26.960938 48.792969 27.007812 C 48.804688 27.027344 48.816406 27.050781 48.832031 27.070312 C 48.859375 27.117188 48.886719 27.167969 48.914062 27.214844 C 48.925781 27.234375 48.9375 27.253906 48.949219 27.273438 C 48.976562 27.320312 49.003906 27.367188 49.027344 27.414062 C 49.042969 27.4375 49.054688 27.460938 49.070312 27.484375 C 49.09375 27.53125 49.121094 27.574219 49.144531 27.617188 C 49.15625 27.644531 49.171875 27.667969 49.183594 27.691406 C 49.210938 27.738281 49.234375 27.785156 49.261719 27.835938 C 49.273438 27.855469 49.285156 27.878906 49.296875 27.898438 C 49.320312 27.945312 49.34375 27.988281 49.367188 28.035156 C 49.382812 28.0625 49.394531 28.089844 49.410156 28.117188 C 49.429688 28.160156 49.453125 28.203125 49.476562 28.246094 C 49.488281 28.273438 49.5 28.300781 49.515625 28.324219 C 49.539062 28.371094 49.5625 28.417969 49.585938 28.464844 C 49.59375 28.488281 49.605469 28.511719 49.617188 28.535156 C 49.640625 28.585938 49.664062 28.632812 49.6875 28.679688 C 49.699219 28.703125 49.710938 28.726562 49.722656 28.75 C 49.746094 28.800781 49.765625 28.851562 49.789062 28.898438 C 49.800781 28.921875 49.808594 28.945312 49.820312 28.964844 C 49.84375 29.015625 49.863281 29.066406 49.886719 29.113281 C 49.898438 29.140625 49.910156 29.164062 49.917969 29.1875 C 49.941406 29.234375 49.960938 29.28125 49.980469 29.328125 C 49.992188 29.355469 50.003906 29.382812 50.015625 29.410156 C 50.035156 29.457031 50.054688 29.503906 50.078125 29.554688 C 50.085938 29.578125 50.097656 29.601562 50.105469 29.625 C 50.125 29.675781 50.144531 29.722656 50.164062 29.773438 C 50.175781 29.800781 50.1875 29.824219 50.199219 29.851562 C 50.214844 29.898438 50.234375 29.945312 50.253906 29.992188 C 50.265625 30.023438 50.273438 30.050781 50.285156 30.078125 C 50.304688 30.125 50.320312 30.167969 50.339844 30.214844 C 50.347656 30.246094 50.359375 30.277344 50.371094 30.304688 C 50.386719 30.351562 50.40625 30.398438 50.421875 30.441406 C 50.433594 30.472656 50.441406 30.5 50.453125 30.527344 C 50.46875 30.574219 50.484375 30.621094 50.503906 30.667969 C 50.511719 30.699219 50.523438 30.730469 50.53125 30.757812 C 50.546875 30.804688 50.566406 30.851562 50.582031 30.902344 C 50.589844 30.925781 50.597656 30.953125 50.605469 30.980469 C 50.625 31.03125 50.640625 31.082031 50.65625 31.132812 C 50.664062 31.160156 50.671875 31.183594 50.679688 31.210938 C 50.695312 31.261719 50.710938 31.3125 50.726562 31.363281 C 50.734375 31.390625 50.746094 31.417969 50.753906 31.445312 C 50.769531 31.492188 50.78125 31.542969 50.796875 31.59375 C 50.804688 31.621094 50.8125 31.648438 50.820312 31.675781 C 50.835938 31.726562 50.851562 31.777344 50.867188 31.832031 C 50.871094 31.855469 50.878906 31.878906 50.886719 31.902344 C 50.898438 31.953125 50.914062 32.007812 50.925781 32.058594 C 50.933594 32.089844 50.945312 32.117188 50.953125 32.148438 C 50.964844 32.199219 50.976562 32.246094 50.988281 32.296875 C 50.996094 32.324219 51.003906 32.351562 51.007812 32.378906 C 51.023438 32.429688 51.035156 32.484375 51.046875 32.535156 C 51.054688 32.5625 51.058594 32.585938 51.066406 32.613281 C 51.078125 32.664062 51.089844 32.714844 51.101562 32.765625 C 51.109375 32.796875 51.117188 32.828125 51.121094 32.859375 C 51.132812 32.910156 51.144531 32.960938 51.15625 33.011719 C 51.160156 33.039062 51.167969 33.066406 51.171875 33.09375 C 51.183594 33.144531 51.195312 33.195312 51.207031 33.246094 C 51.210938 33.277344 51.21875 33.308594 51.222656 33.335938 C 51.234375 33.390625 51.242188 33.441406 51.253906 33.492188 C 51.257812 33.519531 51.261719 33.542969 51.265625 33.566406 C 51.277344 33.621094 51.289062 33.679688 51.296875 33.734375 C 51.300781 33.761719 51.304688 33.789062 51.3125 33.8125 C 51.320312 33.867188 51.328125 33.921875 51.339844 33.980469 C 51.34375 34.003906 51.347656 34.027344 51.351562 34.054688 C 51.359375 34.109375 51.367188 34.164062 51.375 34.21875 C 51.378906 34.25 51.382812 34.277344 51.390625 34.308594 C 51.394531 34.359375 51.402344 34.414062 51.410156 34.464844 C 51.414062 34.492188 51.417969 34.515625 51.421875 34.542969 C 51.429688 34.601562 51.4375 34.660156 51.445312 34.71875 C 51.445312 34.734375 51.449219 34.75 51.449219 34.765625 C 51.457031 34.832031 51.464844 34.898438 51.472656 34.964844 C 51.476562 34.984375 51.476562 35 51.480469 35.019531 C 51.488281 35.082031 51.492188 35.148438 51.5 35.210938 C 51.5 35.230469 51.503906 35.25 51.503906 35.265625 C 51.511719 35.332031 51.515625 35.394531 51.523438 35.460938 C 51.523438 35.476562 51.523438 35.492188 51.527344 35.507812 C 51.53125 35.574219 51.539062 35.640625 51.542969 35.710938 C 51.542969 35.726562 51.546875 35.742188 51.546875 35.761719 C 51.550781 35.828125 51.554688 35.894531 51.558594 35.960938 C 51.5625 35.972656 51.5625 35.984375 51.5625 35.992188 C 51.566406 36.066406 51.570312 36.140625 51.574219 36.214844 C 51.578125 36.300781 51.582031 36.382812 51.585938 36.464844 C 51.589844 36.550781 51.589844 36.632812 51.59375 36.71875 C 51.597656 36.554688 51.597656 36.386719 51.597656 36.222656 C 51.597656 25.226562 42.746094 16.375 31.753906 16.375 Z M 31.753906 16.375 "/>
<path style=" stroke:none;fill-rule:nonzero;fill:rgb(12.941177%,12.941177%,12.941177%);fill-opacity:1;" d="M 31.753906 16.1875 C 20.65625 16.1875 11.71875 25.128906 11.71875 36.222656 C 11.71875 47.316406 20.65625 56.253906 31.753906 56.253906 C 42.847656 56.253906 51.785156 47.316406 51.785156 36.222656 C 51.785156 25.128906 42.847656 16.1875 31.753906 16.1875 Z M 31.753906 16.5625 C 42.648438 16.5625 51.410156 25.328125 51.410156 36.222656 C 51.410156 47.117188 42.648438 55.878906 31.753906 55.878906 C 20.859375 55.878906 12.09375 47.117188 12.09375 36.222656 C 12.09375 25.328125 20.859375 16.5625 31.753906 16.5625 Z M 31.753906 16.5625 "/>
<path style=" stroke:none;fill-rule:nonzero;fill:url(#linear2);" d="M 24.476562 5.792969 C 17.859375 5.792969 13.890625 15.054688 9.921875 18.359375 C 9.34375 19.308594 10.585938 19.683594 11.246094 19.023438 C 14.792969 17.25 17.28125 13.363281 22.492188 12.558594 L 22.492188 43.5 C 22.492188 44.597656 23.375 45.484375 24.476562 45.484375 C 33.074219 45.484375 43.660156 42.175781 43.660156 36.222656 C 43.660156 29.605469 37.707031 30.269531 35.722656 30.269531 C 32.859375 30.269531 29.769531 31.589844 26.460938 33.574219 L 26.460938 7.777344 C 26.460938 6.675781 25.574219 5.792969 24.476562 5.792969 Z M 35.234375 33.445312 C 37.101562 33.4375 38.367188 34.195312 38.367188 36.222656 C 38.367188 38.867188 31.753906 41.515625 26.460938 41.515625 L 26.460938 36.222656 C 29.4375 34.734375 32.832031 33.453125 35.234375 33.445312 Z M 35.234375 33.445312 "/>
<path style=" stroke:none;fill-rule:nonzero;fill:rgb(100%,100%,100%);fill-opacity:0.392157;" d="M 24.476562 5.792969 C 17.859375 5.792969 13.890625 15.054688 9.921875 18.359375 C 9.75 18.644531 9.738281 18.878906 9.828125 19.046875 C 9.851562 18.984375 9.882812 18.921875 9.921875 18.855469 C 13.890625 15.550781 17.859375 6.289062 24.476562 6.289062 C 25.574219 6.289062 26.460938 7.171875 26.460938 8.273438 L 26.460938 7.777344 C 26.460938 6.675781 25.574219 5.792969 24.476562 5.792969 Z M 36.90625 30.25 C 36.4375 30.253906 36.03125 30.269531 35.722656 30.269531 C 32.859375 30.269531 29.769531 31.589844 26.460938 33.574219 L 26.460938 34.070312 C 29.769531 32.085938 32.859375 30.765625 35.722656 30.765625 C 36.03125 30.765625 36.4375 30.75 36.90625 30.746094 C 39.375 30.734375 43.507812 31.121094 43.65625 36.421875 C 43.660156 36.355469 43.660156 36.289062 43.660156 36.222656 C 43.660156 30.640625 39.421875 30.238281 36.90625 30.25 Z M 38.324219 36.597656 C 37.742188 39.113281 31.5 41.515625 26.460938 41.515625 L 26.460938 42.011719 C 31.5 42.011719 37.742188 39.609375 38.324219 37.09375 C 38.339844 37.191406 38.351562 37.292969 38.359375 37.398438 C 38.363281 37.335938 38.367188 37.277344 38.367188 37.214844 C 38.367188 36.996094 38.351562 36.789062 38.324219 36.597656 Z M 38.324219 36.597656 "/>
<path style=" stroke:none;fill-rule:nonzero;fill:rgb(0%,0%,0%);fill-opacity:0.235294;" d="M 11.910156 35.894531 C 11.910156 36.003906 11.90625 36.113281 11.90625 36.222656 C 11.90625 47.214844 20.757812 56.066406 31.753906 56.066406 C 42.746094 56.066406 51.597656 47.214844 51.597656 36.222656 C 51.597656 36.113281 51.597656 36.003906 51.59375 35.894531 C 51.417969 46.734375 42.636719 55.40625 31.753906 55.40625 C 20.871094 55.40625 12.085938 46.734375 11.910156 35.894531 Z M 11.910156 35.894531 "/>
<path style=" stroke:none;fill-rule:nonzero;fill:rgb(0%,0%,0%);fill-opacity:0.235294;" d="M 22.492188 12.0625 C 17.28125 12.867188 14.792969 16.753906 11.246094 18.527344 C 10.78125 18.988281 10.035156 18.945312 9.828125 18.550781 C 9.511719 19.355469 10.628906 19.636719 11.246094 19.023438 C 14.792969 17.25 17.28125 13.363281 22.492188 12.558594 Z M 35.234375 32.949219 C 32.832031 32.957031 29.4375 34.238281 26.460938 35.726562 L 26.460938 36.222656 C 29.4375 34.734375 32.832031 33.453125 35.234375 33.445312 C 37.003906 33.4375 38.234375 34.117188 38.359375 35.910156 C 38.363281 35.851562 38.367188 35.789062 38.367188 35.726562 C 38.367188 33.699219 37.101562 32.941406 35.234375 32.949219 Z M 43.65625 35.921875 C 43.429688 41.75 32.980469 44.988281 24.476562 44.988281 C 23.375 44.988281 22.492188 44.101562 22.492188 43.003906 L 22.492188 43.5 C 22.492188 44.597656 23.375 45.484375 24.476562 45.484375 C 33.074219 45.484375 43.660156 42.175781 43.660156 36.222656 C 43.660156 36.121094 43.660156 36.019531 43.65625 35.921875 Z M 43.65625 35.921875 "/>
<path style=" stroke:none;fill-rule:nonzero;fill:rgb(12.941177%,12.941177%,12.941177%);fill-opacity:1;" d="M 24.476562 5.605469 C 21.082031 5.605469 18.390625 7.972656 16.0625 10.714844 C 13.738281 13.457031 11.746094 16.597656 9.800781 18.21875 C 9.785156 18.230469 9.773438 18.246094 9.761719 18.261719 C 9.597656 18.53125 9.546875 18.789062 9.609375 19.007812 C 9.675781 19.230469 9.847656 19.386719 10.046875 19.46875 C 10.4375 19.625 10.957031 19.539062 11.339844 19.183594 C 13.140625 18.28125 14.652344 16.863281 16.359375 15.578125 C 18.015625 14.328125 19.851562 13.210938 22.304688 12.785156 L 22.304688 43.5 C 22.304688 44.699219 23.277344 45.671875 24.476562 45.671875 C 28.800781 45.671875 33.613281 44.84375 37.367188 43.257812 C 39.242188 42.464844 40.855469 41.484375 42.007812 40.3125 C 43.15625 39.140625 43.847656 37.765625 43.847656 36.222656 C 43.847656 32.859375 42.292969 31.273438 40.503906 30.589844 C 38.710938 29.90625 36.695312 30.082031 35.722656 30.082031 C 32.886719 30.082031 29.859375 31.359375 26.648438 33.257812 L 26.648438 7.777344 C 26.648438 6.578125 25.675781 5.605469 24.476562 5.605469 Z M 24.476562 5.980469 C 25.476562 5.980469 26.273438 6.777344 26.273438 7.777344 L 26.273438 33.578125 C 26.273438 33.644531 26.308594 33.707031 26.367188 33.738281 C 26.425781 33.773438 26.5 33.773438 26.558594 33.738281 C 29.851562 31.761719 32.917969 30.457031 35.722656 30.457031 C 36.734375 30.457031 38.6875 30.300781 40.367188 30.941406 C 42.050781 31.582031 43.472656 32.972656 43.472656 36.222656 C 43.472656 37.65625 42.839844 38.925781 41.738281 40.050781 C 40.636719 41.171875 39.066406 42.132812 37.21875 42.914062 C 33.53125 44.46875 28.753906 45.296875 24.476562 45.296875 C 23.476562 45.296875 22.679688 44.496094 22.679688 43.5 L 22.679688 12.554688 C 22.679688 12.5 22.65625 12.449219 22.613281 12.414062 C 22.570312 12.378906 22.515625 12.363281 22.464844 12.371094 C 19.816406 12.78125 17.859375 13.976562 16.132812 15.277344 C 14.40625 16.578125 12.902344 17.984375 11.160156 18.855469 C 11.144531 18.863281 11.128906 18.875 11.113281 18.890625 C 10.835938 19.167969 10.425781 19.21875 10.1875 19.121094 C 10.070312 19.074219 10 19 9.972656 18.90625 C 9.945312 18.8125 9.960938 18.671875 10.074219 18.476562 C 12.089844 16.777344 14.058594 13.65625 16.351562 10.957031 C 18.652344 8.242188 21.257812 5.980469 24.476562 5.980469 Z M 35.234375 33.257812 C 32.765625 33.265625 29.367188 34.558594 26.378906 36.054688 C 26.3125 36.085938 26.273438 36.152344 26.273438 36.222656 L 26.273438 41.515625 C 26.273438 41.617188 26.355469 41.703125 26.460938 41.703125 C 29.136719 41.703125 32.132812 41.035156 34.472656 40.03125 C 35.644531 39.53125 36.652344 38.945312 37.375 38.304688 C 38.101562 37.667969 38.554688 36.960938 38.554688 36.222656 C 38.554688 35.171875 38.214844 34.40625 37.617188 33.925781 C 37.023438 33.445312 36.191406 33.253906 35.234375 33.257812 Z M 35.234375 33.632812 C 36.144531 33.628906 36.882812 33.8125 37.382812 34.21875 C 37.886719 34.621094 38.179688 35.25 38.179688 36.222656 C 38.179688 36.804688 37.808594 37.425781 37.128906 38.023438 C 36.445312 38.625 35.46875 39.199219 34.324219 39.6875 C 32.089844 40.644531 29.21875 41.285156 26.648438 41.316406 L 26.648438 36.34375 C 29.589844 34.882812 32.925781 33.640625 35.234375 33.632812 Z M 35.234375 33.632812 "/>
</g>
</svg>
