<svg height="64pt" viewBox="0 0 64 64" width="64pt" xmlns="http://www.w3.org/2000/svg" xmlns:xlink="http://www.w3.org/1999/xlink"><linearGradient id="a"><stop offset="0" stop-color="#424242"/><stop offset="1" stop-color="#616161"/></linearGradient><linearGradient id="b" gradientUnits="userSpaceOnUse" x1="34.39862667" x2="34.39862667" xlink:href="#a" y1="5.79293833" y2="56.067835"/><linearGradient id="c" gradientUnits="userSpaceOnUse" x1="31.75254" x2="31.75254" y1="56.067835" y2="58.71392167"><stop offset="0" stop-opacity=".275"/><stop offset="1" stop-opacity="0"/></linearGradient><linearGradient id="d"><stop offset="0" stop-opacity=".314"/><stop offset=".222" stop-opacity=".275"/><stop offset="1" stop-opacity="0"/></linearGradient><radialGradient id="e" cx="450.909" cy="189.579" gradientTransform="matrix(0 -.15626 -.28128 0 102.277 127.19)" gradientUnits="userSpaceOnUse" r="21.167" xlink:href="#d"/><radialGradient id="f" cx="450.909" cy="189.579" gradientTransform="matrix(0 .15626 .28128 0 -38.77 -15.055)" gradientUnits="userSpaceOnUse" r="21.167" xlink:href="#d"/><radialGradient id="g" cx="450.909" cy="189.579" gradientTransform="matrix(0 -.15626 .28128 0 -38.77 127.19)" gradientUnits="userSpaceOnUse" r="21.167" xlink:href="#d"/><radialGradient id="h" cx="450.909" cy="189.579" gradientTransform="matrix(0 .15626 -.28128 0 102.277 -15.055)" gradientUnits="userSpaceOnUse" r="21.167" xlink:href="#d"/><linearGradient id="i" gradientUnits="userSpaceOnUse" x1="31.75254" x2="31.75254" y1="56.067835" y2="5.79293833"><stop offset="0" stop-color="#66bb6a"/><stop offset="1" stop-color="#81c784"/></linearGradient><linearGradient id="j" gradientUnits="userSpaceOnUse" x1="1440.00093" x2="1440.00093" xlink:href="#a" y1="155.11855901" y2="315.1174025"/><linearGradient id="k" gradientUnits="userSpaceOnUse" x1="381" x2="381" xlink:href="#a" y1="-84" y2="-41.667"/><linearGradient id="l" gradientUnits="userSpaceOnUse" x1="381" x2="381" xlink:href="#a" y1="-9.916" y2="32.417"/><linearGradient id="m" gradientUnits="userSpaceOnUse" x1="381" x2="381" xlink:href="#a" y1="64.167" y2="106.5"/><linearGradient id="n" gradientUnits="userSpaceOnUse" x1="381" x2="381" xlink:href="#a" y1="138.25" y2="180.583"/><linearGradient id="o" gradientUnits="userSpaceOnUse" x1="1440.00093" x2="1440.00093" xlink:href="#a" y1="1555.11855901" y2="1715.1174025"/><linearGradient id="p" gradientUnits="userSpaceOnUse" x1="440.00093" x2="440.00093" xlink:href="#a" y1="155.11855901" y2="315.1174025"/><linearGradient id="q" gradientUnits="userSpaceOnUse" x1="440.00093" x2="440.00093" xlink:href="#a" y1="1555.11855901" y2="1715.1174025"/><path d="m12.57 5.793h38.367c1.094 0 1.985.887 1.985 1.984v46.305c0 1.098-.89 1.984-1.984 1.984h-38.368a1.982 1.982 0 0 1 -1.984-1.984v-46.305c0-1.097.887-1.984 1.984-1.984zm0 0" fill="url(#b)"/><path d="m12.57 5.605a2.17 2.17 0 0 0 -2.172 2.172v46.305c0 1.203.97 2.172 2.172 2.172h38.367a2.17 2.17 0 0 0 2.172-2.172v-46.305c0-1.199-.972-2.172-2.172-2.172zm0 .375h38.367c1 0 1.797.797 1.797 1.797v46.305c0 1-.797 1.797-1.797 1.797h-38.367c-1 0-1.797-.797-1.797-1.797v-46.305c0-1 .797-1.797 1.797-1.797zm0 0" fill="#212121"/><path d="m12.57 56.066a1.977 1.977 0 0 1 -1.984-1.984v-.66a1.98 1.98 0 0 0 1.984 1.984h38.367a1.982 1.982 0 0 0 1.985-1.984v.66a1.98 1.98 0 0 1 -1.984 1.984zm0 0" fill="#0a0a0a" fill-opacity=".392"/><path d="m12.57 5.793a1.977 1.977 0 0 0 -1.984 1.984v.66a1.98 1.98 0 0 1 1.984-1.984h38.367c1.098 0 1.985.887 1.985 1.984v-.66a1.98 1.98 0 0 0 -1.984-1.984zm0 0" fill="#fff" fill-opacity=".392"/><path d="m13.89 56.29h35.723v2.183h-35.722zm0 0" fill="url(#c)"/><path d="m49.613 56.066h5.293v-2.644h-5.293zm0 0" fill="url(#e)"/><path d="m13.89 56.066h-5.287v2.649h5.289zm0 0" fill="url(#f)"/><path d="m13.89 56.066h-5.287v-2.644h5.289zm0 0" fill="url(#g)"/><path d="m49.613 56.066h5.293v2.649h-5.293zm0 0" fill="url(#h)"/><path d="m12.57 5.793a1.977 1.977 0 0 0 -1.984 1.984v46.305c0 1.102.883 1.984 1.984 1.984h7.274v-5.953c0-1.097.886-1.984 1.988-1.984h19.844c1.097 0 1.984.887 1.984 1.984v5.953h7.278a1.98 1.98 0 0 0 1.984-1.984v-46.305a1.98 1.98 0 0 0 -1.984-1.984h-7.278v5.953a1.982 1.982 0 0 1 -1.984 1.984h-19.844a1.983 1.983 0 0 1 -1.988-1.984v-5.953zm9.262 13.23h19.844a1.98 1.98 0 0 1 1.984 1.985v19.844a1.98 1.98 0 0 1 -1.984 1.984h-19.844a1.98 1.98 0 0 1 -1.988-1.984v-19.844a1.98 1.98 0 0 1 1.988-1.985zm0 0" fill="url(#i)"/><g stroke="#212121" stroke-linecap="round" stroke-linejoin="round"><path d="m1404.433 175.14c-2.834 5.079-4.488 10.748-4.488 16.889v86.212c0 20.431 17.951 36.847 40.036 36.847h40.035c22.203 0 40.036-16.416 40.036-36.847v-86.211c0-6.141-1.654-11.81-4.488-16.888zm0 0" fill="url(#j)" stroke-width="11.339" transform="scale(.03308)"/><path d="m380.995-84.011h10.593c5.843 0 10.592 4.375 10.592 9.78v22.81c0 5.375-4.75 9.75-10.592 9.75h-10.593c-5.843 0-10.593-4.375-10.593-9.75v-22.81c0-5.405 4.75-9.78 10.593-9.78zm0 0" fill="url(#k)" stroke-width="3" transform="matrix(.12501 0 0 .12501 0 24.893)"/><path d="m380.995-9.924h10.593c5.843 0 10.592 4.374 10.592 9.78v22.81c0 5.375-4.75 9.75-10.592 9.75h-10.593c-5.843 0-10.593-4.375-10.593-9.75v-22.81c0-5.406 4.75-9.78 10.593-9.78zm0 0" fill="url(#l)" stroke-width="3" transform="matrix(.12501 0 0 .12501 0 24.893)"/><path d="m380.995 64.162h10.593c5.843 0 10.592 4.375 10.592 9.75v22.841c0 5.374-4.75 9.75-10.592 9.75h-10.593c-5.843 0-10.593-4.376-10.593-9.75v-22.842c0-5.374 4.75-9.749 10.593-9.749zm0 0" fill="url(#m)" stroke-width="3" transform="matrix(.12501 0 0 .12501 0 24.893)"/><path d="m380.995 138.249h10.593c5.843 0 10.592 4.375 10.592 9.75v22.84c0 5.375-4.75 9.75-10.592 9.75h-10.593c-5.843 0-10.593-4.375-10.593-9.75v-22.839c0-5.375 4.75-9.75 10.593-9.75zm0 0" fill="url(#n)" stroke-width="3" transform="matrix(.12501 0 0 .12501 0 24.893)"/><path d="m1439.98 1555.127c-22.084 0-40.035 16.416-40.035 36.847v86.212a34.013 34.013 0 0 0 4.488 16.888h111.131a34.013 34.013 0 0 0 4.488-16.888v-86.212c0-20.431-17.833-36.847-40.036-36.847zm0 0" fill="url(#o)" stroke-width="11.339" transform="scale(.03308)"/><path d="m404.37 175.14c-2.715 5.079-4.369 10.748-4.369 16.889v86.212c0 20.431 17.833 36.847 40.036 36.847h39.917c22.203 0 40.036-16.416 40.036-36.847v-86.211c0-6.141-1.536-11.81-4.37-16.888zm0 0" fill="url(#p)" stroke-width="11.339" transform="scale(.03308)"/><path d="m381.01-84.011h10.561c5.843 0 10.593 4.375 10.593 9.78v22.81c0 5.375-4.75 9.75-10.593 9.75h-10.561c-5.843 0-10.593-4.375-10.593-9.75v-22.81c0-5.405 4.75-9.78 10.593-9.78zm0 0" fill="url(#k)" stroke-width="3" transform="matrix(.12501 0 0 .12501 -33.076 24.893)"/><path d="m381.01-9.924h10.561c5.843 0 10.593 4.374 10.593 9.78v22.81c0 5.375-4.75 9.75-10.593 9.75h-10.561c-5.843 0-10.593-4.375-10.593-9.75v-22.81c0-5.406 4.75-9.78 10.593-9.78zm0 0" fill="url(#l)" stroke-width="3" transform="matrix(.12501 0 0 .12501 -33.076 24.893)"/><path d="m381.01 64.162h10.561c5.843 0 10.593 4.375 10.593 9.75v22.841c0 5.374-4.75 9.75-10.593 9.75h-10.561c-5.843 0-10.593-4.376-10.593-9.75v-22.842c0-5.374 4.75-9.749 10.593-9.749zm0 0" fill="url(#m)" stroke-width="3" transform="matrix(.12501 0 0 .12501 -33.076 24.893)"/><path d="m381.01 138.249h10.561c5.843 0 10.593 4.375 10.593 9.75v22.81c0 5.405-4.75 9.78-10.593 9.78h-10.561c-5.843 0-10.593-4.375-10.593-9.78v-22.81c0-5.375 4.75-9.75 10.593-9.75zm0 0" fill="url(#n)" stroke-width="3" transform="matrix(.12501 0 0 .12501 -33.076 24.893)"/><path d="m440.037 1555.127c-22.203 0-40.036 16.416-40.036 36.847v86.212c0 6.141 1.654 11.928 4.37 16.888h111.25c2.833-4.96 4.369-10.747 4.369-16.888v-86.212c0-20.431-17.833-36.847-40.036-36.847zm0 0" fill="url(#q)" stroke-width="11.339" transform="scale(.03308)"/></g><path d="m12.57 5.617a1.98 1.98 0 0 0 -1.984 1.985v.66a1.98 1.98 0 0 1 1.984-1.985h7.274v-.66zm31.09 0v.66h7.278c1.097 0 1.984.887 1.984 1.985v-.66a1.982 1.982 0 0 0 -1.984-1.985zm-23.816 5.953v.66a1.98 1.98 0 0 0 1.988 1.985h19.844a1.98 1.98 0 0 0 1.984-1.985v-.66a1.98 1.98 0 0 1 -1.984 1.985h-19.844a1.98 1.98 0 0 1 -1.988-1.985zm0 29.106v.664c0 1.097.886 1.984 1.988 1.984h19.844a1.982 1.982 0 0 0 1.984-1.984v-.664a1.983 1.983 0 0 1 -1.984 1.988h-19.844a1.984 1.984 0 0 1 -1.988-1.988zm0 0" fill="#fff" fill-opacity=".392"/><path d="m21.832 18.531a1.98 1.98 0 0 0 -1.988 1.985v.66c0-1.098.886-1.985 1.988-1.985h19.844c1.097 0 1.984.887 1.984 1.985v-.66a1.98 1.98 0 0 0 -1.984-1.985zm0 29.106a1.983 1.983 0 0 0 -1.988 1.984v.66c0-1.097.886-1.984 1.988-1.984h19.844c1.097 0 1.984.887 1.984 1.984v-.66a1.982 1.982 0 0 0 -1.984-1.984zm-11.246 5.953v.664a1.98 1.98 0 0 0 1.984 1.984h7.274v-.664h-7.274a1.977 1.977 0 0 1 -1.984-1.984zm42.336 0a1.98 1.98 0 0 1 -1.984 1.984h-7.278v.664h7.278a1.982 1.982 0 0 0 1.984-1.984zm0 0" fill-opacity=".235"/><path d="m12.57 5.605a2.17 2.17 0 0 0 -2.172 2.172v46.305c0 1.203.97 2.172 2.172 2.172h7.274a.185.185 0 0 0 .187-.188v-5.953c0-.996.801-1.797 1.801-1.797h19.844c1 0 1.797.801 1.797 1.797v5.953c0 .106.086.188.187.188h7.278a2.17 2.17 0 0 0 2.171-2.172v-46.305c0-1.199-.972-2.172-2.172-2.172h-7.277a.188.188 0 0 0 -.187.188v5.953c0 1-.797 1.797-1.797 1.797h-19.844c-1 0-1.8-.797-1.8-1.797v-5.953a.185.185 0 0 0 -.188-.188zm0 .375h7.086v5.766c0 1.2.973 2.172 2.176 2.172h19.844c1.199 0 2.172-.973 2.172-2.172v-5.766h7.09c1 0 1.796.797 1.796 1.797v46.305c0 1-.797 1.797-1.797 1.797h-7.09v-5.766c0-1.199-.972-2.172-2.171-2.172h-19.844a2.173 2.173 0 0 0 -2.176 2.172v5.766h-7.086c-1 0-1.797-.797-1.797-1.797v-46.305c0-1 .797-1.797 1.797-1.797zm9.262 12.856a2.173 2.173 0 0 0 -2.176 2.172v19.844a2.17 2.17 0 0 0 2.176 2.171h19.844a2.17 2.17 0 0 0 2.172-2.171v-19.844c0-1.2-.973-2.172-2.172-2.172zm0 .375h19.844c1 0 1.797.797 1.797 1.797v19.844c0 1-.797 1.796-1.797 1.796h-19.844c-1 0-1.8-.796-1.8-1.796v-19.844c0-1 .8-1.797 1.8-1.797zm0 0" fill="#212121"/></svg>