<?xml version="1.0" encoding="UTF-8"?>
<svg xmlns="http://www.w3.org/2000/svg" xmlns:xlink="http://www.w3.org/1999/xlink" width="64px" height="64px" viewBox="0 0 64 64" version="1.1">
<defs>
<linearGradient id="linear0" gradientUnits="userSpaceOnUse" x1="254" y1="233.5" x2="254" y2="254.666672" gradientTransform="matrix(0.125012,0,0,0.125012,-0.00000763012,26.87757)">
<stop offset="0" style="stop-color:rgb(0%,0%,0%);stop-opacity:0.27451;"/>
<stop offset="1" style="stop-color:rgb(0%,0%,0%);stop-opacity:0;"/>
</linearGradient>
<radialGradient id="radial0" gradientUnits="userSpaceOnUse" cx="450.908936" cy="189.579361" fx="450.908936" fy="189.579361" r="21.166656" gradientTransform="matrix(0.000000348341,-0.156265,-0.281277,-0.000000203077,106.24586,127.190665)">
<stop offset="0" style="stop-color:rgb(0%,0%,0%);stop-opacity:0.313726;"/>
<stop offset="0.222222" style="stop-color:rgb(0%,0%,0%);stop-opacity:0.27451;"/>
<stop offset="1" style="stop-color:rgb(0%,0%,0%);stop-opacity:0;"/>
</radialGradient>
<radialGradient id="radial1" gradientUnits="userSpaceOnUse" cx="450.908936" cy="189.579361" fx="450.908936" fy="189.579361" r="21.166656" gradientTransform="matrix(-0.000000348341,0.156265,0.281277,0.000000203077,-42.409041,-15.054958)">
<stop offset="0" style="stop-color:rgb(0%,0%,0%);stop-opacity:0.313726;"/>
<stop offset="0.222222" style="stop-color:rgb(0%,0%,0%);stop-opacity:0.27451;"/>
<stop offset="1" style="stop-color:rgb(0%,0%,0%);stop-opacity:0;"/>
</radialGradient>
<radialGradient id="radial2" gradientUnits="userSpaceOnUse" cx="450.908936" cy="189.579361" fx="450.908936" fy="189.579361" r="21.166656" gradientTransform="matrix(-0.000000348341,-0.156265,0.281277,-0.000000203077,-42.409041,127.190665)">
<stop offset="0" style="stop-color:rgb(0%,0%,0%);stop-opacity:0.313726;"/>
<stop offset="0.222222" style="stop-color:rgb(0%,0%,0%);stop-opacity:0.27451;"/>
<stop offset="1" style="stop-color:rgb(0%,0%,0%);stop-opacity:0;"/>
</radialGradient>
<radialGradient id="radial3" gradientUnits="userSpaceOnUse" cx="450.908936" cy="189.579361" fx="450.908936" fy="189.579361" r="21.166656" gradientTransform="matrix(0.000000348341,0.156265,-0.281277,0.000000203077,106.245857,-15.054959)">
<stop offset="0" style="stop-color:rgb(0%,0%,0%);stop-opacity:0.313726;"/>
<stop offset="0.222222" style="stop-color:rgb(0%,0%,0%);stop-opacity:0.27451;"/>
<stop offset="1" style="stop-color:rgb(0%,0%,0%);stop-opacity:0;"/>
</radialGradient>
<linearGradient id="linear1" gradientUnits="userSpaceOnUse" x1="254" y1="233.5" x2="254" y2="-168.666672" gradientTransform="matrix(0.125012,0,0,0.125012,0,26.877566)">
<stop offset="0" style="stop-color:rgb(87.843138%,87.843138%,87.843138%);stop-opacity:1;"/>
<stop offset="1" style="stop-color:rgb(93.333334%,93.333334%,93.333334%);stop-opacity:1;"/>
</linearGradient>
<linearGradient id="linear2" gradientUnits="userSpaceOnUse" x1="254" y1="-62.833332" x2="254" y2="-168.666672" gradientTransform="matrix(0.125012,0,0,0.125012,0,26.877566)">
<stop offset="0" style="stop-color:rgb(92.54902%,25.098041%,47.843137%);stop-opacity:1;"/>
<stop offset="1" style="stop-color:rgb(94.117647%,38.431373%,57.254905%);stop-opacity:1;"/>
</linearGradient>
<linearGradient id="linear3" gradientUnits="userSpaceOnUse" x1="-7.456441" y1="59.707512" x2="-7.45644" y2="-111.124763" gradientTransform="matrix(0.604319,0,0,0.604319,46.411634,54.219824)">
<stop offset="0" style="stop-color:rgb(92.54902%,25.098041%,47.843137%);stop-opacity:1;"/>
<stop offset="1" style="stop-color:rgb(94.117647%,38.431373%,57.254905%);stop-opacity:1;"/>
</linearGradient>
</defs>
<g id="surface1">
<path style=" stroke:none;fill-rule:nonzero;fill:url(#linear0);" d="M 10.253906 56.066406 L 53.582031 56.066406 L 53.582031 58.714844 L 10.253906 58.714844 Z M 10.253906 56.066406 "/>
<path style=" stroke:none;fill-rule:nonzero;fill:url(#radial0);" d="M 53.582031 56.066406 L 58.875 56.066406 L 58.875 53.421875 L 53.582031 53.421875 Z M 53.582031 56.066406 "/>
<path style=" stroke:none;fill-rule:nonzero;fill:url(#radial1);" d="M 10.253906 56.066406 L 4.960938 56.066406 L 4.960938 58.714844 L 10.253906 58.714844 Z M 10.253906 56.066406 "/>
<path style=" stroke:none;fill-rule:nonzero;fill:url(#radial2);" d="M 10.253906 56.066406 L 4.960938 56.066406 L 4.960938 53.421875 L 10.253906 53.421875 Z M 10.253906 56.066406 "/>
<path style=" stroke:none;fill-rule:nonzero;fill:url(#radial3);" d="M 53.582031 56.066406 L 58.875 56.066406 L 58.875 58.714844 L 53.582031 58.714844 Z M 53.582031 56.066406 "/>
<path style=" stroke:none;fill-rule:nonzero;fill:url(#linear1);" d="M 7.277344 5.792969 L 56.230469 5.792969 C 57.324219 5.792969 58.214844 6.679688 58.214844 7.777344 L 58.214844 54.082031 C 58.214844 55.179688 57.324219 56.066406 56.230469 56.066406 L 7.277344 56.066406 C 6.179688 56.066406 5.292969 55.179688 5.292969 54.082031 L 5.292969 7.777344 C 5.292969 6.679688 6.179688 5.792969 7.277344 5.792969 Z M 7.277344 5.792969 "/>
<path style=" stroke:none;fill-rule:nonzero;fill:rgb(100%,100%,100%);fill-opacity:0.643312;" d="M 7.9375 5.792969 C 6.472656 5.792969 5.292969 6.972656 5.292969 8.4375 L 5.292969 8.769531 C 5.292969 7.304688 6.472656 6.121094 7.9375 6.121094 L 55.566406 6.121094 C 57.035156 6.121094 58.214844 7.304688 58.214844 8.769531 L 58.214844 8.4375 C 58.214844 6.972656 57.035156 5.792969 55.566406 5.792969 Z M 7.9375 5.792969 "/>
<path style=" stroke:none;fill-rule:nonzero;fill:url(#linear2);" d="M 7.277344 5.792969 C 6.175781 5.792969 5.292969 6.675781 5.292969 7.777344 L 5.292969 19.023438 L 58.214844 19.023438 L 58.214844 7.777344 C 58.214844 6.675781 57.328125 5.792969 56.230469 5.792969 Z M 7.277344 5.792969 "/>
<path style=" stroke:none;fill-rule:nonzero;fill:rgb(100%,100%,100%);fill-opacity:0.392157;" d="M 7.277344 5.792969 C 6.175781 5.792969 5.292969 6.675781 5.292969 7.777344 L 5.292969 8.40625 C 5.292969 7.304688 6.175781 6.421875 7.277344 6.421875 L 56.230469 6.421875 C 57.328125 6.421875 58.214844 7.304688 58.214844 8.40625 L 58.214844 7.777344 C 58.214844 6.675781 57.328125 5.792969 56.230469 5.792969 Z M 7.277344 5.792969 "/>
<path style=" stroke:none;fill-rule:nonzero;fill:url(#linear3);" d="M 44.542969 24.761719 C 43.699219 24.832031 42.859375 24.875 42.03125 24.980469 L 42.394531 25.03125 C 43.003906 24.808594 43.894531 24.910156 44.542969 24.761719 Z M 40.859375 25.148438 C 39.484375 25.234375 37.578125 25.949219 38.167969 25.296875 C 35.929688 26.296875 31.953125 27.699219 29.71875 29.792969 L 29.648438 29.324219 C 28.628906 30.550781 25.191406 32.988281 24.917969 34.578125 L 24.644531 34.644531 C 24.113281 35.542969 23.765625 36.566406 23.34375 37.492188 C 22.648438 38.679688 22.324219 37.949219 22.425781 38.132812 C 21.054688 40.910156 20.375 43.242188 19.789062 45.15625 C 20.207031 45.78125 19.796875 48.921875 19.957031 51.433594 C 19.871094 52.988281 19.941406 54.539062 20.15625 56.066406 L 23.25 56.066406 L 23.296875 55.625 C 21.863281 53.96875 22.894531 48.585938 23.101562 45.632812 C 23.246094 44.433594 24.296875 43.15625 25.097656 41.152344 L 24.609375 41.066406 C 25.542969 39.445312 29.929688 34.542969 31.960938 34.792969 C 32.945312 33.558594 31.765625 34.789062 31.574219 34.476562 C 33.738281 32.238281 34.417969 32.898438 35.875 32.492188 C 37.449219 31.558594 34.523438 32.859375 35.269531 32.136719 C 37.992188 31.445312 37.199219 30.558594 40.746094 30.207031 C 41.121094 30.417969 39.878906 30.535156 39.566406 30.8125 C 41.832031 29.703125 46.738281 29.953125 49.929688 31.425781 C 53.625 33.15625 57.78125 38.261719 57.945312 43.070312 L 58.132812 43.121094 C 58.039062 45.03125 58.425781 47.242188 57.753906 49.269531 L 58.207031 48.308594 C 58.261719 49.769531 57.78125 50.476562 57.347656 51.734375 L 56.566406 52.121094 C 55.925781 53.363281 56.628906 52.910156 56.171875 53.894531 C 55.546875 54.449219 54.519531 55.394531 53.679688 56.066406 L 56.230469 56.066406 C 56.347656 56.066406 56.460938 56.058594 56.570312 56.039062 C 57.144531 55.472656 57.625 54.980469 57.820312 54.96875 C 57.585938 55.324219 57.597656 55.414062 57.632812 55.488281 C 57.738281 55.386719 57.832031 55.265625 57.910156 55.140625 C 57.992188 54.683594 57.59375 54.734375 58.214844 53.699219 L 58.214844 31.316406 C 56.976562 30.105469 55.617188 29.101562 54.304688 28.398438 C 54.726562 28.785156 55.257812 29.269531 55.066406 29.34375 C 53.355469 28.324219 53.65625 28.246094 53.410156 27.816406 C 52.015625 27.246094 51.921875 27.863281 51 27.816406 C 48.371094 26.421875 47.867188 26.570312 45.449219 25.695312 L 45.558594 26.210938 C 43.816406 25.632812 43.527344 26.429688 41.648438 26.214844 C 41.535156 26.125 42.25 25.890625 42.839844 25.804688 C 41.15625 26.027344 41.238281 25.472656 39.589844 25.863281 C 39.996094 25.582031 40.425781 25.390625 40.859375 25.148438 Z M 42.214844 25.464844 C 42.699219 25.550781 43.257812 25.617188 43.175781 25.734375 C 43.707031 25.617188 43.824219 25.511719 42.214844 25.464844 Z M 43.179688 25.734375 L 42.839844 25.804688 L 43.15625 25.773438 Z M 20.960938 36.429688 C 20.960938 36.460938 20.960938 36.480469 20.964844 36.503906 C 20.964844 36.480469 20.960938 36.457031 20.960938 36.429688 Z M 20.964844 36.503906 C 21.058594 37.75 20.003906 38.222656 21.207031 37.378906 C 21.832031 35.972656 21.042969 36.863281 20.964844 36.503906 Z M 44.761719 39.777344 C 44.636719 39.773438 44.507812 39.777344 44.378906 39.785156 C 41.707031 39.828125 39.207031 41.527344 38.375 43.371094 C 37.007812 44.230469 36.847656 46.691406 36.25 47.140625 C 35.675781 51.375 36.703125 53.882812 38.773438 56.066406 L 40.953125 56.066406 C 39.066406 54.371094 37.773438 51.914062 37.8125 49.140625 C 37.761719 49.546875 37.660156 49.445312 37.550781 49.605469 C 37.289062 46.3125 39.070312 43.003906 42.074219 41.652344 C 45.015625 40.195312 48.460938 40.792969 50.5625 42.757812 C 49.460938 41.3125 47.320312 39.785156 44.761719 39.777344 Z M 19.960938 40.566406 C 19.179688 41.566406 19.597656 41.777344 19.515625 42.457031 C 19.800781 41.589844 19.851562 41.070312 19.960938 40.566406 Z M 52.140625 46.605469 C 52.027344 46.605469 51.886719 46.890625 51.8125 47.199219 C 51.980469 47.289062 52.113281 48.347656 52.277344 47.691406 C 52.332031 46.878906 52.253906 46.601562 52.140625 46.605469 Z M 51.554688 49.953125 C 51.433594 50.550781 51.109375 51.066406 50.804688 51.613281 C 49.117188 52.675781 50.644531 50.984375 50.804688 50.339844 C 48.988281 52.625 50.554688 51.707031 50.484375 52.347656 C 51.027344 51.605469 51.417969 50.792969 51.554688 49.953125 Z M 47.875 53.441406 C 47.140625 53.621094 46.394531 53.625 45.640625 53.554688 C 44.738281 53.566406 45.8125 54.019531 46.992188 54.203125 C 47.316406 53.945312 47.609375 53.691406 47.875 53.441406 Z M 36.480469 53.558594 C 36.679688 54.289062 37.085938 54.917969 37.464844 55.558594 L 37.1875 54.738281 C 36.871094 54.390625 36.6875 53.972656 36.480469 53.558594 Z M 35.785156 54.792969 L 35.65625 55.425781 C 35.8125 55.636719 35.957031 55.851562 36.105469 56.066406 L 36.5 56.066406 C 36.292969 55.726562 36.0625 55.328125 35.785156 54.792969 Z M 36.921875 55.734375 C 36.988281 55.84375 37.054688 55.957031 37.125 56.066406 L 37.351562 56.066406 C 37.167969 55.878906 37.019531 55.753906 36.921875 55.734375 Z M 36.921875 55.734375 "/>
<path style=" stroke:none;fill-rule:nonzero;fill:rgb(0%,0%,0%);fill-opacity:0.235294;" d="M 5.292969 53.421875 L 5.292969 54.082031 C 5.292969 55.183594 6.175781 56.066406 7.277344 56.066406 L 56.230469 56.066406 C 57.328125 56.066406 58.214844 55.183594 58.214844 54.082031 L 58.214844 53.421875 C 58.214844 54.519531 57.328125 55.40625 56.230469 55.40625 L 7.277344 55.40625 C 6.175781 55.40625 5.292969 54.519531 5.292969 53.421875 Z M 5.292969 53.421875 "/>
<path style=" stroke:none;fill-rule:nonzero;fill:rgb(12.941177%,12.941177%,12.941177%);fill-opacity:1;" d="M 7.277344 5.605469 C 6.078125 5.605469 5.105469 6.578125 5.105469 7.777344 L 5.105469 54.082031 C 5.105469 55.285156 6.078125 56.253906 7.277344 56.253906 L 56.230469 56.253906 C 57.429688 56.253906 58.402344 55.285156 58.402344 54.082031 L 58.402344 7.777344 C 58.402344 6.578125 57.429688 5.605469 56.230469 5.605469 Z M 7.277344 5.980469 L 56.230469 5.980469 C 57.226562 5.980469 58.027344 6.777344 58.027344 7.777344 L 58.027344 54.082031 C 58.027344 55.082031 57.226562 55.878906 56.230469 55.878906 L 7.277344 55.878906 C 6.277344 55.878906 5.480469 55.082031 5.480469 54.082031 L 5.480469 7.777344 C 5.480469 6.777344 6.277344 5.980469 7.277344 5.980469 Z M 7.277344 5.980469 "/>
<path style=" stroke:none;fill-rule:nonzero;fill:rgb(0%,0%,0%);fill-opacity:0.235294;" d="M 5.292969 19.023438 L 5.292969 20.390625 L 58.214844 20.390625 L 58.214844 19.023438 Z M 5.292969 19.023438 "/>
<path style="fill:none;stroke-width:11.338583;stroke-linecap:round;stroke-linejoin:miter;stroke:rgb(12.941177%,12.941177%,12.941177%);stroke-opacity:1;stroke-miterlimit:4;" d="M 220.018371 175.140764 C 186.714463 175.140764 160.024097 201.83113 160.024097 235.135038 L 160.024097 575.141957 L 1760.028869 575.141957 L 1760.028869 235.135038 C 1760.028869 201.83113 1733.220404 175.140764 1700.034595 175.140764 Z M 220.018371 175.140764 " transform="matrix(0.0330761,0,0,0.0330761,0,0)"/>
<path style=" stroke:none;fill-rule:nonzero;fill:rgb(0%,0%,0%);fill-opacity:0.235294;" d="M 5.292969 18.359375 L 5.292969 19.023438 L 58.214844 19.023438 L 58.214844 18.359375 Z M 5.292969 18.359375 "/>
<path style=" stroke:none;fill-rule:nonzero;fill:rgb(0%,0%,0%);fill-opacity:0.235294;" d="M 30.429688 7.445312 C 29.699219 7.445312 29.109375 8.039062 29.109375 8.765625 L 29.109375 11.414062 L 27.785156 11.414062 C 26.546875 11.414062 25.988281 12.960938 26.9375 13.75 L 30.90625 17.058594 C 31.398438 17.464844 32.109375 17.464844 32.597656 17.058594 L 36.566406 13.75 C 37.515625 12.960938 36.957031 11.414062 35.722656 11.414062 L 34.398438 11.414062 L 34.398438 8.765625 C 34.398438 8.039062 33.804688 7.445312 33.074219 7.445312 Z M 30.429688 7.445312 "/>
<path style=" stroke:none;fill-rule:nonzero;fill:rgb(0%,0%,0%);fill-opacity:0.235294;" d="M 30.429688 7.445312 C 29.699219 7.445312 29.109375 8.039062 29.109375 8.765625 L 29.109375 9.429688 C 29.109375 8.699219 29.699219 8.109375 30.429688 8.109375 L 33.074219 8.109375 C 33.804688 8.109375 34.398438 8.699219 34.398438 9.429688 L 34.398438 8.765625 C 34.398438 8.039062 33.804688 7.445312 33.074219 7.445312 Z M 27.785156 11.414062 C 26.847656 11.414062 26.300781 12.300781 26.503906 13.078125 C 26.640625 12.53125 27.113281 12.078125 27.785156 12.078125 L 29.109375 12.078125 L 29.109375 11.414062 Z M 34.398438 11.414062 L 34.398438 12.078125 L 35.722656 12.078125 C 36.394531 12.078125 36.863281 12.53125 37.003906 13.078125 C 37.207031 12.300781 36.660156 11.414062 35.722656 11.414062 Z M 34.398438 11.414062 "/>
<path style=" stroke:none;fill-rule:nonzero;fill:rgb(100%,100%,100%);fill-opacity:0.392157;" d="M 26.503906 13.078125 C 26.386719 13.53125 26.503906 14.050781 26.9375 14.414062 L 30.90625 17.71875 C 31.398438 18.128906 32.109375 18.128906 32.597656 17.71875 L 36.566406 14.414062 C 37 14.050781 37.121094 13.53125 37.003906 13.078125 C 36.9375 13.324219 36.796875 13.558594 36.566406 13.75 L 32.597656 17.058594 C 32.109375 17.464844 31.398438 17.464844 30.90625 17.058594 L 26.9375 13.75 C 26.707031 13.558594 26.566406 13.324219 26.503906 13.078125 Z M 26.503906 13.078125 "/>
<path style="fill:none;stroke-width:3;stroke-linecap:round;stroke-linejoin:round;stroke:rgb(12.941177%,12.941177%,12.941177%);stroke-opacity:1;stroke-miterlimit:4;" d="M 243.414255 -155.443187 C 237.571063 -155.443187 232.852764 -150.693641 232.852764 -144.881696 L 232.852764 -123.696219 L 222.260025 -123.696219 C 212.354721 -123.696219 207.886398 -111.322401 215.479423 -105.010503 L 247.226391 -78.544281 C 251.163515 -75.294591 256.850472 -75.294591 260.756349 -78.544281 L 292.503317 -105.010503 C 300.096342 -111.322401 295.628019 -123.696219 285.753962 -123.696219 L 275.161223 -123.696219 L 275.161223 -144.881696 C 275.161223 -150.693641 270.411677 -155.443187 264.568485 -155.443187 Z M 243.414255 -155.443187 " transform="matrix(0.125012,0,0,0.125012,0,26.877566)"/>
</g>
</svg>
