<?xml version="1.0" encoding="UTF-8"?>
<svg xmlns="http://www.w3.org/2000/svg" xmlns:xlink="http://www.w3.org/1999/xlink" width="64pt" height="64pt" viewBox="0 0 64 64" version="1.1">
<defs>
<linearGradient id="linear0" gradientUnits="userSpaceOnUse" x1="254" y1="233.5" x2="254" y2="254.666672" gradientTransform="matrix(0.125012,0,0,0.125012,-12.568919,26.87757)">
<stop offset="0" style="stop-color:rgb(0%,0%,0%);stop-opacity:0.27451;"/>
<stop offset="1" style="stop-color:rgb(0%,0%,0%);stop-opacity:0;"/>
</linearGradient>
<radialGradient id="radial0" gradientUnits="userSpaceOnUse" cx="450.908936" cy="189.579361" fx="450.908936" fy="189.579361" r="21.166656" gradientTransform="matrix(0.000000348341,-0.156265,-0.281277,-0.000000203077,85.077179,127.190665)">
<stop offset="0" style="stop-color:rgb(0%,0%,0%);stop-opacity:0.313725;"/>
<stop offset="0.222222" style="stop-color:rgb(0%,0%,0%);stop-opacity:0.27451;"/>
<stop offset="1" style="stop-color:rgb(0%,0%,0%);stop-opacity:0;"/>
</radialGradient>
<radialGradient id="radial1" gradientUnits="userSpaceOnUse" cx="450.908936" cy="189.579361" fx="450.908936" fy="189.579361" r="21.166656" gradientTransform="matrix(-0.000000348341,0.156265,0.281277,0.000000203077,-21.571106,-15.054958)">
<stop offset="0" style="stop-color:rgb(0%,0%,0%);stop-opacity:0.313725;"/>
<stop offset="0.222222" style="stop-color:rgb(0%,0%,0%);stop-opacity:0.27451;"/>
<stop offset="1" style="stop-color:rgb(0%,0%,0%);stop-opacity:0;"/>
</radialGradient>
<radialGradient id="radial2" gradientUnits="userSpaceOnUse" cx="450.908936" cy="189.579361" fx="450.908936" fy="189.579361" r="21.166656" gradientTransform="matrix(-0.000000348341,-0.156265,0.281277,-0.000000203077,-21.571106,127.190665)">
<stop offset="0" style="stop-color:rgb(0%,0%,0%);stop-opacity:0.313725;"/>
<stop offset="0.222222" style="stop-color:rgb(0%,0%,0%);stop-opacity:0.27451;"/>
<stop offset="1" style="stop-color:rgb(0%,0%,0%);stop-opacity:0;"/>
</radialGradient>
<radialGradient id="radial3" gradientUnits="userSpaceOnUse" cx="450.908936" cy="189.579361" fx="450.908936" fy="189.579361" r="21.166656" gradientTransform="matrix(0.000000348341,0.156265,-0.281277,0.000000203077,85.077175,-15.054959)">
<stop offset="0" style="stop-color:rgb(0%,0%,0%);stop-opacity:0.313725;"/>
<stop offset="0.222222" style="stop-color:rgb(0%,0%,0%);stop-opacity:0.27451;"/>
<stop offset="1" style="stop-color:rgb(0%,0%,0%);stop-opacity:0;"/>
</radialGradient>
<linearGradient id="linear1" gradientUnits="userSpaceOnUse" x1="201.083328" y1="106.5" x2="201.083328" y2="53.583332" >
<stop offset="0" style="stop-color:rgb(25.882353%,25.882353%,25.882353%);stop-opacity:1;"/>
<stop offset="1" style="stop-color:rgb(38.039216%,38.039216%,38.039216%);stop-opacity:1;"/>
</linearGradient>
<linearGradient id="linear2" gradientUnits="userSpaceOnUse" x1="306.916656" y1="106.5" x2="306.916656" y2="53.583332" >
<stop offset="0" style="stop-color:rgb(25.882353%,25.882353%,25.882353%);stop-opacity:1;"/>
<stop offset="1" style="stop-color:rgb(38.039216%,38.039216%,38.039216%);stop-opacity:1;"/>
</linearGradient>
<linearGradient id="linear3" gradientUnits="userSpaceOnUse" x1="169.333328" y1="11.25" x2="169.333328" y2="-168.666656" gradientTransform="matrix(0.125012,0,0,0.125012,0,26.877566)">
<stop offset="0" style="stop-color:rgb(94.117647%,38.431373%,57.254902%);stop-opacity:1;"/>
<stop offset="1" style="stop-color:rgb(95.686275%,56.078431%,69.411765%);stop-opacity:1;"/>
</linearGradient>
<linearGradient id="linear4" gradientUnits="userSpaceOnUse" x1="960" y1="1695.118164" x2="960" y2="615.118103" gradientTransform="matrix(0.0330761,0,0,0.0330761,0,0)">
<stop offset="0" style="stop-color:rgb(47.45098%,52.54902%,79.607843%);stop-opacity:1;"/>
<stop offset="1" style="stop-color:rgb(62.352941%,65.882353%,85.490196%);stop-opacity:1;"/>
</linearGradient>
<linearGradient id="linear5" gradientUnits="userSpaceOnUse" x1="201.083328" y1="0.666667" x2="201.083328" y2="127.666656" >
<stop offset="0" style="stop-color:rgb(87.843137%,87.843137%,87.843137%);stop-opacity:1;"/>
<stop offset="1" style="stop-color:rgb(93.333333%,93.333333%,93.333333%);stop-opacity:1;"/>
</linearGradient>
<linearGradient id="linear6" gradientUnits="userSpaceOnUse" x1="296.333344" y1="0.666667" x2="296.333344" y2="127.666656" >
<stop offset="0" style="stop-color:rgb(87.843137%,87.843137%,87.843137%);stop-opacity:1;"/>
<stop offset="1" style="stop-color:rgb(93.333333%,93.333333%,93.333333%);stop-opacity:1;"/>
</linearGradient>
<linearGradient id="linear7" gradientUnits="userSpaceOnUse" x1="222.25" y1="85.333336" x2="222.25" y2="43.000004" >
<stop offset="0" style="stop-color:rgb(25.882353%,25.882353%,25.882353%);stop-opacity:1;"/>
<stop offset="1" style="stop-color:rgb(38.039216%,38.039216%,38.039216%);stop-opacity:1;"/>
</linearGradient>
<linearGradient id="linear8" gradientUnits="userSpaceOnUse" x1="285.75" y1="85.333336" x2="285.75" y2="43.000004" >
<stop offset="0" style="stop-color:rgb(25.882353%,25.882353%,25.882353%);stop-opacity:1;"/>
<stop offset="1" style="stop-color:rgb(38.039216%,38.039216%,38.039216%);stop-opacity:1;"/>
</linearGradient>
<linearGradient id="linear9" gradientUnits="userSpaceOnUse" x1="960" y1="1495.118164" x2="960" y2="1055.118164" gradientTransform="matrix(0.264583,0,0,0.264583,0,-193.833328)">
<stop offset="0" style="stop-color:rgb(100%,65.490196%,14.901961%);stop-opacity:1;"/>
<stop offset="1" style="stop-color:rgb(100%,71.764706%,30.196078%);stop-opacity:1;"/>
</linearGradient>
</defs>
<g id="surface1">
<path style=" stroke:none;fill-rule:nonzero;fill:url(#linear0);" d="M 31.089844 56.066406 L 32.414062 56.066406 L 32.414062 58.714844 L 31.089844 58.714844 Z M 31.089844 56.066406 "/>
<path style=" stroke:none;fill-rule:nonzero;fill:url(#radial0);" d="M 32.414062 56.066406 L 37.707031 56.066406 L 37.707031 53.421875 L 32.414062 53.421875 Z M 32.414062 56.066406 "/>
<path style=" stroke:none;fill-rule:nonzero;fill:url(#radial1);" d="M 31.089844 56.066406 L 25.800781 56.066406 L 25.800781 58.714844 L 31.089844 58.714844 Z M 31.089844 56.066406 "/>
<path style=" stroke:none;fill-rule:nonzero;fill:url(#radial2);" d="M 31.089844 56.066406 L 25.800781 56.066406 L 25.800781 53.421875 L 31.089844 53.421875 Z M 31.089844 56.066406 "/>
<path style=" stroke:none;fill-rule:nonzero;fill:url(#radial3);" d="M 32.414062 56.066406 L 37.707031 56.066406 L 37.707031 58.714844 L 32.414062 58.714844 Z M 32.414062 56.066406 "/>
<path style="fill-rule:nonzero;fill:url(#linear1);stroke-width:2.738613;stroke-linecap:round;stroke-linejoin:round;stroke:rgb(12.941177%,12.941177%,12.941177%);stroke-opacity:1;stroke-miterlimit:4;" d="M 201.074548 53.568103 C 212.760932 53.568103 222.260025 65.22324 222.260025 79.56562 L 222.260025 80.503031 C 222.260025 94.876658 212.760932 106.500548 201.074548 106.500548 C 189.388164 106.500548 179.920318 94.876658 179.920318 80.503031 L 179.920318 79.56562 C 179.920318 65.22324 189.388164 53.568103 201.074548 53.568103 Z M 201.074548 53.568103 " transform="matrix(0.125012,0,0,0.125012,0,26.877566)"/>
<path style="fill-rule:nonzero;fill:url(#linear2);stroke-width:2.738613;stroke-linecap:round;stroke-linejoin:round;stroke:rgb(12.941177%,12.941177%,12.941177%);stroke-opacity:1;stroke-miterlimit:4;" d="M 306.908192 53.568103 C 318.594576 53.568103 328.093669 65.441969 328.093669 80.034326 C 328.093669 94.657929 318.594576 106.500548 306.908192 106.500548 C 295.221808 106.500548 285.753962 94.657929 285.753962 80.034326 C 285.753962 65.441969 295.221808 53.568103 306.908192 53.568103 Z M 306.908192 53.568103 " transform="matrix(0.125012,0,0,0.125012,0,26.877566)"/>
<path style=" stroke:none;fill-rule:nonzero;fill:url(#linear3);" d="M 26.460938 5.792969 C 22.363281 5.792969 19.011719 8.863281 18.574219 12.839844 C 15.457031 13.910156 13.230469 16.859375 13.230469 20.34375 C 13.230469 24.742188 16.769531 28.285156 21.167969 28.285156 C 23.207031 28.285156 25.058594 27.523438 26.460938 26.273438 C 27.863281 27.523438 29.714844 28.285156 31.753906 28.285156 C 33.789062 28.285156 35.644531 27.523438 37.046875 26.273438 C 38.449219 27.523438 40.300781 28.285156 42.335938 28.285156 C 46.734375 28.285156 50.277344 24.742188 50.277344 20.34375 C 50.277344 17.320312 48.601562 14.703125 46.125 13.363281 C 45.355469 9.78125 42.183594 7.113281 38.367188 7.113281 C 36.289062 7.113281 34.402344 7.90625 32.992188 9.203125 C 31.558594 7.140625 29.175781 5.792969 26.460938 5.792969 Z M 26.460938 5.792969 "/>
<path style=" stroke:none;fill-rule:nonzero;fill:rgb(100%,100%,100%);fill-opacity:0.392157;" d="M 26.460938 5.792969 C 22.363281 5.792969 19.011719 8.863281 18.574219 12.839844 C 15.457031 13.910156 13.230469 16.859375 13.230469 20.34375 C 13.230469 20.4375 13.234375 20.527344 13.234375 20.621094 C 13.351562 17.257812 15.542969 14.4375 18.574219 13.394531 C 19.011719 9.421875 22.363281 6.347656 26.460938 6.347656 C 29.175781 6.347656 31.558594 7.695312 32.992188 9.761719 C 34.402344 8.460938 36.289062 7.671875 38.367188 7.671875 C 42.183594 7.671875 45.355469 10.339844 46.125 13.917969 C 48.523438 15.21875 50.167969 17.714844 50.269531 20.617188 C 50.273438 20.527344 50.277344 20.4375 50.277344 20.34375 C 50.277344 17.320312 48.601562 14.703125 46.125 13.363281 C 45.355469 9.78125 42.183594 7.113281 38.367188 7.113281 C 36.289062 7.113281 34.402344 7.90625 32.992188 9.203125 C 31.558594 7.140625 29.175781 5.792969 26.460938 5.792969 Z M 26.460938 5.792969 "/>
<path style=" stroke:none;fill-rule:nonzero;fill:rgb(12.941177%,12.941177%,12.941177%);fill-opacity:1;" d="M 26.460938 5.605469 C 22.308594 5.605469 18.902344 8.691406 18.402344 12.703125 C 15.269531 13.832031 13.042969 16.820312 13.042969 20.34375 C 13.042969 24.84375 16.671875 28.472656 21.167969 28.472656 C 23.195312 28.472656 25.039062 27.730469 26.460938 26.511719 C 27.882812 27.730469 29.726562 28.472656 31.753906 28.472656 C 33.777344 28.472656 35.625 27.730469 37.046875 26.511719 C 38.464844 27.730469 40.3125 28.472656 42.335938 28.472656 C 46.835938 28.472656 50.464844 24.84375 50.464844 20.34375 C 50.464844 17.28125 48.78125 14.625 46.289062 13.238281 C 45.46875 9.617188 42.242188 6.925781 38.367188 6.925781 C 36.316406 6.925781 34.449219 7.683594 33.019531 8.929688 C 31.542969 6.914062 29.160156 5.605469 26.460938 5.605469 Z M 26.460938 5.980469 C 29.113281 5.980469 31.441406 7.296875 32.835938 9.3125 C 32.867188 9.355469 32.917969 9.386719 32.96875 9.390625 C 33.023438 9.398438 33.078125 9.378906 33.117188 9.34375 C 34.496094 8.074219 36.335938 7.304688 38.367188 7.304688 C 42.097656 7.304688 45.191406 9.90625 45.945312 13.402344 C 45.957031 13.457031 45.988281 13.5 46.039062 13.527344 C 48.453125 14.835938 50.089844 17.390625 50.089844 20.34375 C 50.089844 24.644531 46.632812 28.097656 42.335938 28.097656 C 40.347656 28.097656 38.539062 27.355469 37.171875 26.132812 C 37.097656 26.066406 36.992188 26.066406 36.921875 26.132812 C 35.550781 27.355469 33.742188 28.097656 31.753906 28.097656 C 29.761719 28.097656 27.957031 27.355469 26.585938 26.132812 C 26.515625 26.066406 26.40625 26.066406 26.335938 26.132812 C 24.964844 27.355469 23.160156 28.097656 21.167969 28.097656 C 16.871094 28.097656 13.417969 24.644531 13.417969 20.34375 C 13.417969 16.9375 15.59375 14.0625 18.632812 13.015625 C 18.703125 12.992188 18.75 12.933594 18.757812 12.859375 C 19.1875 8.976562 22.457031 5.980469 26.460938 5.980469 Z M 26.460938 5.980469 "/>
<path style=" stroke:none;fill-rule:nonzero;fill:url(#linear4);" d="M 11.3125 19.992188 C 9.167969 23.570312 7.9375 27.761719 7.9375 32.253906 C 7.9375 45.445312 18.558594 56.066406 31.753906 56.066406 C 44.945312 56.066406 55.566406 45.445312 55.566406 32.253906 C 55.566406 27.761719 54.335938 23.570312 52.195312 19.992188 C 47.394531 21.804688 40.132812 22.957031 31.976562 22.957031 L 31.527344 22.957031 C 23.375 22.957031 16.113281 21.804688 11.3125 19.992188 Z M 11.3125 19.992188 "/>
<path style="fill-rule:nonzero;fill:url(#linear5);stroke-width:3;stroke-linecap:round;stroke-linejoin:round;stroke:rgb(12.941177%,12.941177%,12.941177%);stroke-opacity:1;stroke-miterlimit:4;" d="M 201.074548 0.666905 C 230.321755 0.666905 254.006994 29.101689 254.006994 64.160841 C 254.006994 99.251241 230.321755 127.654778 201.074548 127.654778 C 171.858588 127.654778 148.17335 99.251241 148.17335 64.160841 C 148.17335 29.101689 171.858588 0.666905 201.074548 0.666905 Z M 201.074548 0.666905 " transform="matrix(0.125012,0,0,0.125012,0,26.877566)"/>
<path style="fill-rule:nonzero;fill:url(#linear6);stroke-width:3;stroke-linecap:round;stroke-linejoin:round;stroke:rgb(12.941177%,12.941177%,12.941177%);stroke-opacity:1;stroke-miterlimit:4;" d="M 306.908192 0.666905 C 336.155399 0.666905 359.840637 29.101689 359.840637 64.160841 C 359.840637 99.251241 336.155399 127.654778 306.908192 127.654778 C 277.692232 127.654778 254.006994 99.251241 254.006994 64.160841 C 254.006994 29.101689 277.692232 0.666905 306.908192 0.666905 Z M 306.908192 0.666905 " transform="matrix(0.125012,0,0,0.125012,0,26.877566)"/>
<path style="fill-rule:nonzero;fill:url(#linear7);stroke-width:3;stroke-linecap:round;stroke-linejoin:round;stroke:rgb(12.941177%,12.941177%,12.941177%);stroke-opacity:1;stroke-miterlimit:4;" d="M 221.760073 43.006612 L 222.72873 43.006612 C 234.165138 43.006612 243.414255 52.474457 243.414255 64.160841 C 243.414255 75.847225 234.165138 85.346318 222.72873 85.346318 L 221.760073 85.346318 C 210.354912 85.346318 201.074548 75.847225 201.074548 64.160841 C 201.074548 52.474457 210.354912 43.006612 221.760073 43.006612 Z M 221.760073 43.006612 " transform="matrix(0.125012,0,0,0.125012,0,26.877566)"/>
<path style="fill-rule:nonzero;fill:url(#linear8);stroke-width:3;stroke-linecap:round;stroke-linejoin:round;stroke:rgb(12.941177%,12.941177%,12.941177%);stroke-opacity:1;stroke-miterlimit:4;" d="M 285.753962 43.006612 C 297.440346 43.006612 306.908192 52.474457 306.908192 64.160841 C 306.908192 75.847225 297.440346 85.346318 285.753962 85.346318 C 274.067578 85.346318 264.568485 75.847225 264.568485 64.160841 C 264.568485 52.474457 274.067578 43.006612 285.753962 43.006612 Z M 285.753962 43.006612 " transform="matrix(0.125012,0,0,0.125012,0,26.877566)"/>
<path style="fill-rule:nonzero;fill:url(#linear9);stroke-width:3;stroke-linecap:round;stroke-linejoin:round;stroke:rgb(12.941177%,12.941177%,12.941177%);stroke-opacity:1;stroke-miterlimit:4;" d="M 201.074548 127.654778 C 201.074548 159.401746 243.414255 201.741453 254.006994 201.741453 C 264.568485 201.741453 306.908192 159.401746 306.908192 127.654778 C 254.006994 74.75358 254.006994 74.75358 201.074548 127.654778 Z M 201.074548 127.654778 " transform="matrix(0.125012,0,0,0.125012,0,26.877566)"/>
<path style=" stroke:none;fill-rule:nonzero;fill:rgb(100%,100%,100%);fill-opacity:0.392157;" d="M 11.3125 19.683594 C 9.167969 23.261719 7.9375 27.453125 7.9375 31.945312 C 7.9375 32.113281 7.941406 32.28125 7.945312 32.445312 C 8.035156 28.148438 9.25 24.140625 11.3125 20.699219 C 16.113281 22.511719 23.375 23.664062 31.527344 23.664062 L 31.976562 23.664062 C 40.132812 23.664062 47.394531 22.511719 52.195312 20.699219 C 54.253906 24.140625 55.472656 28.148438 55.5625 32.445312 C 55.566406 32.28125 55.566406 32.113281 55.566406 31.945312 C 55.566406 27.453125 54.335938 23.261719 52.195312 19.683594 C 47.394531 21.496094 40.132812 22.648438 31.976562 22.648438 L 31.527344 22.648438 C 23.375 22.648438 16.113281 21.496094 11.3125 19.683594 Z M 11.3125 19.683594 "/>
<path style=" stroke:none;fill-rule:nonzero;fill:rgb(0%,0%,0%);fill-opacity:0.235294;" d="M 7.941406 31.90625 C 7.9375 32.019531 7.9375 32.136719 7.9375 32.253906 C 7.9375 45.445312 18.558594 56.066406 31.753906 56.066406 C 44.945312 56.066406 55.566406 45.445312 55.566406 32.253906 C 55.566406 32.136719 55.566406 32.019531 55.566406 31.90625 C 55.378906 44.9375 44.828125 55.371094 31.753906 55.371094 C 18.675781 55.371094 8.125 44.9375 7.941406 31.90625 Z M 7.941406 31.90625 "/>
<path style=" stroke:none;fill-rule:nonzero;fill:rgb(12.941177%,12.941177%,12.941177%);fill-opacity:1;" d="M 52.199219 19.804688 C 52.175781 19.804688 52.148438 19.808594 52.128906 19.816406 C 47.363281 21.617188 40.113281 22.769531 31.976562 22.769531 L 31.527344 22.769531 C 23.390625 22.769531 16.144531 21.617188 11.378906 19.816406 C 11.292969 19.785156 11.199219 19.820312 11.152344 19.898438 C 8.992188 23.503906 7.75 27.726562 7.75 32.253906 C 7.75 45.546875 18.460938 56.253906 31.753906 56.253906 C 45.046875 56.253906 55.753906 45.546875 55.753906 32.253906 C 55.753906 27.726562 54.515625 23.503906 52.355469 19.898438 C 52.320312 19.839844 52.261719 19.808594 52.199219 19.804688 Z M 11.398438 20.222656 C 16.230469 22.015625 23.4375 23.144531 31.527344 23.144531 L 31.976562 23.144531 C 40.066406 23.144531 47.277344 22.015625 52.109375 20.222656 C 54.1875 23.742188 55.378906 27.851562 55.378906 32.253906 C 55.378906 45.347656 44.847656 55.878906 31.753906 55.878906 C 18.660156 55.878906 8.125 45.347656 8.125 32.253906 C 8.125 27.851562 9.320312 23.742188 11.398438 20.222656 Z M 11.398438 20.222656 "/>
</g>
</svg>
