<svg height="64pt" viewBox="0 0 64 64" width="64pt" xmlns="http://www.w3.org/2000/svg" xmlns:xlink="http://www.w3.org/1999/xlink"><linearGradient id="a"><stop offset="0" stop-opacity=".314"/><stop offset=".222" stop-opacity=".275"/><stop offset="1" stop-opacity="0"/></linearGradient><radialGradient id="b" cx="450.909" cy="189.579" gradientTransform="matrix(0 -.15626 -.28128 0 97.646 127.19)" gradientUnits="userSpaceOnUse" r="21.167" xlink:href="#a"/><radialGradient id="c" cx="450.909" cy="189.579" gradientTransform="matrix(0 .15626 .28128 0 -34.14 -15.055)" gradientUnits="userSpaceOnUse" r="21.167" xlink:href="#a"/><radialGradient id="d" cx="450.909" cy="189.579" gradientTransform="matrix(0 -.15626 .28128 0 -34.14 127.19)" gradientUnits="userSpaceOnUse" r="21.167" xlink:href="#a"/><radialGradient id="e" cx="450.909" cy="189.579" gradientTransform="matrix(0 .15626 -.28128 0 97.646 -15.055)" gradientUnits="userSpaceOnUse" r="21.167" xlink:href="#a"/><linearGradient id="f" gradientTransform="matrix(.5344 0 0 .0999 -104.692 33.273)" gradientUnits="userSpaceOnUse" x1="255.323" x2="255.323" y1="228.179" y2="254.667"><stop offset="0" stop-opacity=".275"/><stop offset="1" stop-opacity="0"/></linearGradient><linearGradient id="g" gradientUnits="userSpaceOnUse" x1="31.75254" x2="31.75254" y1="56.067835" y2="29.60734333"><stop offset="0" stop-color="#ffa726"/><stop offset="1" stop-color="#ffb74d"/></linearGradient><linearGradient id="h" gradientUnits="userSpaceOnUse" x1="31.7568" x2="31.7568" y1="56.07450344" y2="5.79290344"><stop offset="0" stop-color="#bdbdbd"/><stop offset="1" stop-color="#eee"/></linearGradient><linearGradient id="i"><stop offset="0" stop-color="#ffa726"/><stop offset=".51" stop-color="#ffb74d"/><stop offset="1" stop-color="#ffa726"/></linearGradient><linearGradient id="j" gradientUnits="userSpaceOnUse" x1="125.5" x2="181.417" xlink:href="#i" y1="127.667" y2="127.667"/><linearGradient id="k" gradientUnits="userSpaceOnUse" x1="326.583" x2="382.5" xlink:href="#i" y1="127.667" y2="127.667"/><path d="m44.984 56.066h5.293v-2.644h-5.293zm0 0" fill="url(#b)"/><path d="m18.523 56.066h-5.293v2.649h5.293zm0 0" fill="url(#c)"/><path d="m18.523 56.066h-5.293v-2.644h5.293zm0 0" fill="url(#d)"/><path d="m44.984 56.066h5.293v2.649h-5.293zm0 0" fill="url(#e)"/><path d="m18.523 56.07h26.461v2.645h-26.46zm0 0" fill="url(#f)"/><path d="m15.875 29.605h31.754a2.65 2.65 0 0 1 2.648 2.649v21.168a2.647 2.647 0 0 1 -2.648 2.644h-31.754a2.644 2.644 0 0 1 -2.645-2.644v-21.168a2.647 2.647 0 0 1 2.645-2.649zm0 0" fill="url(#g)"/><path d="m31.754 5.793a14.52 14.52 0 0 0 -14.555 14.55v9.262h3.969v-9.261a10.561 10.561 0 0 1 10.586-10.582 10.558 10.558 0 0 1 10.582 10.582v9.261h3.969v-9.261c0-8.063-6.489-14.551-14.551-14.551zm0 0" fill="url(#h)"/><path d="m31.754 5.793a14.52 14.52 0 0 0 -14.555 14.55v9.262h3.969v-9.261a10.561 10.561 0 0 1 10.586-10.582 10.558 10.558 0 0 1 10.582 10.582v9.261h3.969v-9.261c0-8.063-6.489-14.551-14.551-14.551zm0 0" fill="#cfcfcf"/><path d="m31.754 5.793a14.52 14.52 0 0 0 -14.555 14.55v.665a14.524 14.524 0 0 1 14.555-14.555 14.52 14.52 0 0 1 14.55 14.555v-.664c0-8.063-6.488-14.551-14.55-14.551zm0 0" fill="#fff" fill-opacity=".784"/><path d="m31.754 9.102a10.561 10.561 0 0 0 -10.586 10.582v.66a10.561 10.561 0 0 1 10.586-10.582 10.558 10.558 0 0 1 10.582 10.582v-.66a10.558 10.558 0 0 0 -10.582-10.582zm-14.555 19.843v.66h3.969v-.66zm25.137 0v.66h3.969v-.66zm0 0" fill-opacity=".235"/><g stroke="#212121" stroke-linecap="round" stroke-linejoin="round"><path d="m31.754 5.793a14.52 14.52 0 0 0 -14.555 14.55v9.262h3.969v-9.261a10.561 10.561 0 0 1 10.586-10.582 10.558 10.558 0 0 1 10.582 10.582v9.261h3.969v-9.261c0-8.063-6.489-14.551-14.551-14.551zm0 0" fill="none" stroke-width=".375094"/><path d="m15.875 29.605h6.617v26.461h-6.617zm0 0" fill="none" stroke-width=".37503"/><path d="m126.988 21.821h52.932v211.667h-52.932zm0 0" fill="url(#j)" stroke-width="3" transform="matrix(.12501 0 0 .12501 0 26.878)"/><path d="m41.016 29.605h6.613v26.461h-6.613zm0 0" fill="none" stroke-width=".37503"/><path d="m328.094 21.821h52.9v211.667h-52.9zm0 0" fill="url(#k)" stroke-width="3" transform="matrix(.12501 0 0 .12501 0 26.878)"/></g><path d="m15.875 56.066a2.639 2.639 0 0 1 -2.645-2.644v-1.324a2.64 2.64 0 0 0 2.645 2.648h31.754a2.643 2.643 0 0 0 2.648-2.648v1.324a2.642 2.642 0 0 1 -2.648 2.644zm0 0" fill-opacity=".235"/><path d="m15.875 29.605a2.642 2.642 0 0 0 -2.645 2.649v1.32a2.639 2.639 0 0 1 2.645-2.644h31.754a2.642 2.642 0 0 1 2.648 2.644v-1.32a2.646 2.646 0 0 0 -2.648-2.649zm0 0" fill="#fff" fill-opacity=".392"/><path d="m15.875 29.418a2.832 2.832 0 0 0 -2.832 2.836v21.168a2.83 2.83 0 0 0 2.832 2.832h31.754a2.832 2.832 0 0 0 2.836-2.832v-21.168a2.836 2.836 0 0 0 -2.836-2.836zm0 .375h31.754a2.45 2.45 0 0 1 2.46 2.46v21.169a2.447 2.447 0 0 1 -2.46 2.457h-31.754a2.447 2.447 0 0 1 -2.457-2.457v-21.168a2.45 2.45 0 0 1 2.457-2.461zm0 0" fill="#212121"/></svg>