<?xml version="1.0" encoding="UTF-8"?>
<svg xmlns="http://www.w3.org/2000/svg" xmlns:xlink="http://www.w3.org/1999/xlink" width="64px" height="64px" viewBox="0 0 64 64" version="1.1">
<defs>
<linearGradient id="linear0" gradientUnits="userSpaceOnUse" x1="254" y1="233.5" x2="254" y2="254.666672" gradientTransform="matrix(0.125012,0,0,0.125012,18.522597,26.87757)">
<stop offset="0" style="stop-color:rgb(0%,0%,0%);stop-opacity:0.27451;"/>
<stop offset="1" style="stop-color:rgb(0%,0%,0%);stop-opacity:0;"/>
</linearGradient>
<radialGradient id="radial0" gradientUnits="userSpaceOnUse" cx="450.908936" cy="189.579361" fx="450.908936" fy="189.579361" r="21.166656" gradientTransform="matrix(0.000000348341,-0.156265,-0.281277,-0.000000203077,103.599778,127.190665)">
<stop offset="0" style="stop-color:rgb(0%,0%,0%);stop-opacity:0.313726;"/>
<stop offset="0.222222" style="stop-color:rgb(0%,0%,0%);stop-opacity:0.27451;"/>
<stop offset="1" style="stop-color:rgb(0%,0%,0%);stop-opacity:0;"/>
</radialGradient>
<radialGradient id="radial1" gradientUnits="userSpaceOnUse" cx="450.908936" cy="189.579361" fx="450.908936" fy="189.579361" r="21.166656" gradientTransform="matrix(-0.000000348341,0.156265,0.281277,0.000000203077,-3.048509,-15.054958)">
<stop offset="0" style="stop-color:rgb(0%,0%,0%);stop-opacity:0.313726;"/>
<stop offset="0.222222" style="stop-color:rgb(0%,0%,0%);stop-opacity:0.27451;"/>
<stop offset="1" style="stop-color:rgb(0%,0%,0%);stop-opacity:0;"/>
</radialGradient>
<radialGradient id="radial2" gradientUnits="userSpaceOnUse" cx="450.908936" cy="189.579361" fx="450.908936" fy="189.579361" r="21.166656" gradientTransform="matrix(-0.000000348341,-0.156265,0.281277,-0.000000203077,-3.048509,127.190665)">
<stop offset="0" style="stop-color:rgb(0%,0%,0%);stop-opacity:0.313726;"/>
<stop offset="0.222222" style="stop-color:rgb(0%,0%,0%);stop-opacity:0.27451;"/>
<stop offset="1" style="stop-color:rgb(0%,0%,0%);stop-opacity:0;"/>
</radialGradient>
<radialGradient id="radial3" gradientUnits="userSpaceOnUse" cx="450.908936" cy="189.579361" fx="450.908936" fy="189.579361" r="21.166656" gradientTransform="matrix(0.000000348341,0.156265,-0.281277,0.000000203077,103.599774,-15.054959)">
<stop offset="0" style="stop-color:rgb(0%,0%,0%);stop-opacity:0.313726;"/>
<stop offset="0.222222" style="stop-color:rgb(0%,0%,0%);stop-opacity:0.27451;"/>
<stop offset="1" style="stop-color:rgb(0%,0%,0%);stop-opacity:0;"/>
</radialGradient>
<linearGradient id="linear1" gradientUnits="userSpaceOnUse" x1="254" y1="233.5" x2="254" y2="254.666672" gradientTransform="matrix(0.125012,0,0,0.125012,-18.522605,26.87757)">
<stop offset="0" style="stop-color:rgb(0%,0%,0%);stop-opacity:0.27451;"/>
<stop offset="1" style="stop-color:rgb(0%,0%,0%);stop-opacity:0;"/>
</linearGradient>
<radialGradient id="radial4" gradientUnits="userSpaceOnUse" cx="450.908936" cy="189.579361" fx="450.908936" fy="189.579361" r="21.166656" gradientTransform="matrix(0.000000348341,-0.156265,-0.281277,-0.000000203077,66.554577,127.190665)">
<stop offset="0" style="stop-color:rgb(0%,0%,0%);stop-opacity:0.313726;"/>
<stop offset="0.222222" style="stop-color:rgb(0%,0%,0%);stop-opacity:0.27451;"/>
<stop offset="1" style="stop-color:rgb(0%,0%,0%);stop-opacity:0;"/>
</radialGradient>
<radialGradient id="radial5" gradientUnits="userSpaceOnUse" cx="450.908936" cy="189.579361" fx="450.908936" fy="189.579361" r="21.166656" gradientTransform="matrix(-0.000000348341,0.156265,0.281277,0.000000203077,-40.09371,-15.054958)">
<stop offset="0" style="stop-color:rgb(0%,0%,0%);stop-opacity:0.313726;"/>
<stop offset="0.222222" style="stop-color:rgb(0%,0%,0%);stop-opacity:0.27451;"/>
<stop offset="1" style="stop-color:rgb(0%,0%,0%);stop-opacity:0;"/>
</radialGradient>
<radialGradient id="radial6" gradientUnits="userSpaceOnUse" cx="450.908936" cy="189.579361" fx="450.908936" fy="189.579361" r="21.166656" gradientTransform="matrix(-0.000000348341,-0.156265,0.281277,-0.000000203077,-40.09371,127.190665)">
<stop offset="0" style="stop-color:rgb(0%,0%,0%);stop-opacity:0.313726;"/>
<stop offset="0.222222" style="stop-color:rgb(0%,0%,0%);stop-opacity:0.27451;"/>
<stop offset="1" style="stop-color:rgb(0%,0%,0%);stop-opacity:0;"/>
</radialGradient>
<radialGradient id="radial7" gradientUnits="userSpaceOnUse" cx="450.908936" cy="189.579361" fx="450.908936" fy="189.579361" r="21.166656" gradientTransform="matrix(0.000000348341,0.156265,-0.281277,0.000000203077,66.554573,-15.054959)">
<stop offset="0" style="stop-color:rgb(0%,0%,0%);stop-opacity:0.313726;"/>
<stop offset="0.222222" style="stop-color:rgb(0%,0%,0%);stop-opacity:0.27451;"/>
<stop offset="1" style="stop-color:rgb(0%,0%,0%);stop-opacity:0;"/>
</radialGradient>
<linearGradient id="linear2" gradientUnits="userSpaceOnUse" x1="960" y1="1695.118164" x2="960" y2="95.118111" gradientTransform="matrix(0.0330761,0,0,0.0330761,0,0)">
<stop offset="0" style="stop-color:rgb(61.176473%,80.000001%,39.607844%);stop-opacity:1;"/>
<stop offset="1" style="stop-color:rgb(68.235296%,83.529413%,50.588238%);stop-opacity:1;"/>
</linearGradient>
<linearGradient id="linear3" gradientUnits="userSpaceOnUse" x1="254" y1="212.333328" x2="254" y2="-147.5" gradientTransform="matrix(0.093759,0,0,0.093759,7.938258,26.23688)">
<stop offset="0" style="stop-color:rgb(95.686275%,26.274511%,21.176471%);stop-opacity:1;"/>
<stop offset="1" style="stop-color:rgb(93.725491%,32.549021%,31.37255%);stop-opacity:1;"/>
</linearGradient>
<linearGradient id="linear4" gradientUnits="userSpaceOnUse" x1="254" y1="212.333328" x2="254" y2="-147.5" gradientTransform="matrix(0.093759,0,0,0.093759,7.938258,31.859844)">
<stop offset="0" style="stop-color:rgb(95.686275%,26.274511%,21.176471%);stop-opacity:1;"/>
<stop offset="1" style="stop-color:rgb(93.725491%,32.549021%,31.37255%);stop-opacity:1;"/>
</linearGradient>
<linearGradient id="linear5" gradientUnits="userSpaceOnUse" x1="254" y1="212.333328" x2="254" y2="-147.5" gradientTransform="matrix(0.093759,0,0,0.093759,7.938258,37.152016)">
<stop offset="0" style="stop-color:rgb(95.686275%,26.274511%,21.176471%);stop-opacity:1;"/>
<stop offset="1" style="stop-color:rgb(93.725491%,32.549021%,31.37255%);stop-opacity:1;"/>
</linearGradient>
<linearGradient id="linear6" gradientUnits="userSpaceOnUse" x1="254" y1="212.333328" x2="254" y2="-147.5" gradientTransform="matrix(0.093759,0,0,0.093759,7.938258,42.444156)">
<stop offset="0" style="stop-color:rgb(95.686275%,26.274511%,21.176471%);stop-opacity:1;"/>
<stop offset="1" style="stop-color:rgb(93.725491%,32.549021%,31.37255%);stop-opacity:1;"/>
</linearGradient>
<linearGradient id="linear7" gradientUnits="userSpaceOnUse" x1="254" y1="212.333328" x2="254" y2="5.958337" gradientTransform="matrix(0.250024,0,0,0.250024,-39.691313,4.302493)">
<stop offset="0" style="stop-color:rgb(25.882354%,25.882354%,25.882354%);stop-opacity:1;"/>
<stop offset="1" style="stop-color:rgb(38.039216%,38.039216%,38.039216%);stop-opacity:1;"/>
</linearGradient>
<linearGradient id="linear8" gradientUnits="userSpaceOnUse" x1="254" y1="212.333328" x2="254" y2="5.958337" gradientTransform="matrix(-0.250024,0,0,0.250024,103.17438,4.302493)">
<stop offset="0" style="stop-color:rgb(25.882354%,25.882354%,25.882354%);stop-opacity:1;"/>
<stop offset="1" style="stop-color:rgb(38.039216%,38.039216%,38.039216%);stop-opacity:1;"/>
</linearGradient>
<linearGradient id="linear9" gradientUnits="userSpaceOnUse" x1="254.221695" y1="82.687233" x2="254.221695" y2="-1.979437" gradientTransform="matrix(0.125012,0,0,0.125012,-7.965972,10.008803)">
<stop offset="0" style="stop-color:rgb(61.960787%,61.960787%,61.960787%);stop-opacity:1;"/>
<stop offset="1" style="stop-color:rgb(74.117649%,74.117649%,74.117649%);stop-opacity:1;"/>
</linearGradient>
<linearGradient id="linear10" gradientUnits="userSpaceOnUse" x1="254.221695" y1="82.687233" x2="254.221695" y2="-1.979437" gradientTransform="matrix(0.125012,0,0,0.125012,7.965973,10.008803)">
<stop offset="0" style="stop-color:rgb(61.960787%,61.960787%,61.960787%);stop-opacity:1;"/>
<stop offset="1" style="stop-color:rgb(74.117649%,74.117649%,74.117649%);stop-opacity:1;"/>
</linearGradient>
</defs>
<g id="surface1">
<path style=" stroke:none;fill-rule:nonzero;fill:url(#linear0);" d="M 49.613281 56.066406 L 50.9375 56.066406 L 50.9375 58.714844 L 49.613281 58.714844 Z M 49.613281 56.066406 "/>
<path style=" stroke:none;fill-rule:nonzero;fill:url(#radial0);" d="M 50.9375 56.066406 L 56.230469 56.066406 L 56.230469 53.421875 L 50.9375 53.421875 Z M 50.9375 56.066406 "/>
<path style=" stroke:none;fill-rule:nonzero;fill:url(#radial1);" d="M 49.613281 56.066406 L 44.320312 56.066406 L 44.320312 58.714844 L 49.613281 58.714844 Z M 49.613281 56.066406 "/>
<path style=" stroke:none;fill-rule:nonzero;fill:url(#radial2);" d="M 49.613281 56.066406 L 44.320312 56.066406 L 44.320312 53.421875 L 49.613281 53.421875 Z M 49.613281 56.066406 "/>
<path style=" stroke:none;fill-rule:nonzero;fill:url(#radial3);" d="M 50.9375 56.066406 L 56.230469 56.066406 L 56.230469 58.714844 L 50.9375 58.714844 Z M 50.9375 56.066406 "/>
<path style=" stroke:none;fill-rule:nonzero;fill:url(#linear1);" d="M 12.570312 56.066406 L 13.890625 56.066406 L 13.890625 58.714844 L 12.570312 58.714844 Z M 12.570312 56.066406 "/>
<path style=" stroke:none;fill-rule:nonzero;fill:url(#radial4);" d="M 13.890625 56.066406 L 19.183594 56.066406 L 19.183594 53.421875 L 13.890625 53.421875 Z M 13.890625 56.066406 "/>
<path style=" stroke:none;fill-rule:nonzero;fill:url(#radial5);" d="M 12.570312 56.066406 L 7.277344 56.066406 L 7.277344 58.714844 L 12.570312 58.714844 Z M 12.570312 56.066406 "/>
<path style=" stroke:none;fill-rule:nonzero;fill:url(#radial6);" d="M 12.570312 56.066406 L 7.277344 56.066406 L 7.277344 53.421875 L 12.570312 53.421875 Z M 12.570312 56.066406 "/>
<path style=" stroke:none;fill-rule:nonzero;fill:url(#radial7);" d="M 13.890625 56.066406 L 19.183594 56.066406 L 19.183594 58.714844 L 13.890625 58.714844 Z M 13.890625 56.066406 "/>
<path style=" stroke:none;fill-rule:nonzero;fill:url(#linear2);" d="M 13.0625 5.792969 C 11.6875 5.792969 10.585938 6.972656 10.585938 8.4375 L 10.585938 11.085938 L 7.9375 11.085938 C 6.472656 11.085938 5.292969 12.1875 5.292969 13.5625 L 5.292969 13.898438 C 5.292969 15.273438 6.472656 16.375 7.9375 16.375 L 10.585938 16.375 L 10.585938 24.484375 C 10.585938 25.15625 10.871094 25.765625 11.332031 26.214844 C 11.777344 26.675781 12.386719 26.960938 13.0625 26.960938 L 18.523438 26.960938 L 18.523438 34.898438 L 13.0625 34.898438 C 12.386719 34.898438 11.777344 35.183594 11.332031 35.648438 C 10.871094 36.09375 10.585938 36.703125 10.585938 37.375 L 10.585938 45.484375 L 7.9375 45.484375 C 6.472656 45.484375 5.292969 46.589844 5.292969 47.960938 L 5.292969 48.296875 C 5.292969 49.671875 6.472656 50.777344 7.9375 50.777344 L 10.585938 50.777344 L 10.585938 53.421875 C 10.585938 54.886719 11.6875 56.066406 13.0625 56.066406 L 13.398438 56.066406 C 14.773438 56.066406 15.875 54.886719 15.875 53.421875 L 15.875 40.191406 L 18.523438 40.191406 C 18.523438 47.519531 24.421875 53.421875 31.753906 53.421875 C 39.082031 53.421875 44.984375 47.519531 44.984375 40.191406 L 47.628906 40.191406 L 47.628906 53.421875 C 47.628906 54.886719 48.734375 56.066406 50.105469 56.066406 L 50.445312 56.066406 C 51.816406 56.066406 52.921875 54.886719 52.921875 53.421875 L 52.921875 50.777344 L 55.566406 50.777344 C 57.035156 50.777344 58.214844 49.671875 58.214844 48.296875 L 58.214844 47.960938 C 58.214844 46.589844 57.035156 45.484375 55.566406 45.484375 L 52.921875 45.484375 L 52.921875 37.375 C 52.921875 36.703125 52.636719 36.09375 52.171875 35.648438 C 51.726562 35.183594 51.117188 34.898438 50.445312 34.898438 L 44.984375 34.898438 L 44.984375 26.960938 L 50.445312 26.960938 C 51.117188 26.960938 51.726562 26.675781 52.171875 26.214844 C 52.636719 25.765625 52.921875 25.15625 52.921875 24.484375 L 52.921875 16.375 L 55.566406 16.375 C 57.035156 16.375 58.214844 15.273438 58.214844 13.898438 L 58.214844 13.5625 C 58.214844 12.1875 57.035156 11.085938 55.566406 11.085938 L 52.921875 11.085938 L 52.921875 8.4375 C 52.921875 6.972656 51.816406 5.792969 50.445312 5.792969 L 50.105469 5.792969 C 48.734375 5.792969 47.628906 6.972656 47.628906 8.4375 L 47.628906 21.667969 L 44.984375 21.667969 C 44.984375 14.339844 39.082031 8.4375 31.753906 8.4375 C 24.421875 8.4375 18.523438 14.339844 18.523438 21.667969 L 15.875 21.667969 L 15.875 8.4375 C 15.875 6.972656 14.773438 5.792969 13.398438 5.792969 Z M 13.0625 5.792969 "/>
<path style=" stroke:none;fill-rule:nonzero;fill:rgb(100%,100%,100%);fill-opacity:0.392157;" d="M 13.0625 5.792969 C 11.6875 5.792969 10.585938 6.972656 10.585938 8.4375 L 10.585938 9.101562 C 10.585938 7.632812 11.6875 6.453125 13.0625 6.453125 L 13.398438 6.453125 C 14.773438 6.453125 15.875 7.632812 15.875 9.101562 L 15.875 8.4375 C 15.875 6.972656 14.773438 5.792969 13.398438 5.792969 Z M 50.105469 5.792969 C 48.734375 5.792969 47.628906 6.972656 47.628906 8.4375 L 47.628906 9.101562 C 47.628906 7.632812 48.734375 6.453125 50.105469 6.453125 L 50.445312 6.453125 C 51.816406 6.453125 52.921875 7.632812 52.921875 9.101562 L 52.921875 8.4375 C 52.921875 6.972656 51.816406 5.792969 50.445312 5.792969 Z M 31.753906 8.4375 C 24.421875 8.4375 18.523438 14.339844 18.523438 21.667969 L 15.875 21.667969 L 15.875 22.332031 L 18.523438 22.332031 C 18.523438 15 24.421875 9.101562 31.753906 9.101562 C 39.082031 9.101562 44.984375 15 44.984375 22.332031 L 47.628906 22.332031 L 47.628906 21.667969 L 44.984375 21.667969 C 44.984375 14.339844 39.082031 8.4375 31.753906 8.4375 Z M 7.9375 11.085938 C 6.472656 11.085938 5.292969 12.1875 5.292969 13.5625 L 5.292969 13.898438 C 5.292969 13.953125 5.292969 14.007812 5.296875 14.0625 C 5.386719 12.765625 6.53125 11.746094 7.9375 11.746094 L 10.585938 11.746094 L 10.585938 11.085938 Z M 52.921875 11.085938 L 52.921875 11.746094 L 55.566406 11.746094 C 56.976562 11.746094 58.121094 12.765625 58.207031 14.0625 C 58.210938 14.007812 58.214844 13.953125 58.214844 13.898438 L 58.214844 13.5625 C 58.214844 12.1875 57.035156 11.085938 55.566406 11.085938 Z M 13.0625 34.898438 C 12.386719 34.898438 11.777344 35.183594 11.332031 35.648438 C 10.871094 36.09375 10.585938 36.703125 10.585938 37.375 L 10.585938 38.039062 C 10.585938 37.363281 10.871094 36.753906 11.332031 36.308594 C 11.777344 35.84375 12.386719 35.5625 13.0625 35.5625 L 18.523438 35.5625 L 18.523438 34.898438 Z M 44.984375 34.898438 L 44.984375 35.5625 L 50.445312 35.5625 C 51.117188 35.5625 51.726562 35.84375 52.171875 36.308594 C 52.636719 36.753906 52.921875 37.363281 52.921875 38.039062 L 52.921875 37.375 C 52.921875 36.703125 52.636719 36.09375 52.171875 35.648438 C 51.726562 35.183594 51.117188 34.898438 50.445312 34.898438 Z M 7.9375 45.484375 C 6.472656 45.484375 5.292969 46.589844 5.292969 47.960938 L 5.292969 48.296875 C 5.292969 48.351562 5.292969 48.40625 5.296875 48.460938 C 5.386719 47.164062 6.53125 46.144531 7.9375 46.144531 L 10.585938 46.144531 L 10.585938 45.484375 Z M 52.921875 45.484375 L 52.921875 46.144531 L 55.566406 46.144531 C 56.976562 46.144531 58.121094 47.164062 58.207031 48.460938 C 58.210938 48.40625 58.214844 48.351562 58.214844 48.296875 L 58.214844 47.960938 C 58.214844 46.589844 57.035156 45.484375 55.566406 45.484375 Z M 52.921875 45.484375 "/>
<path style=" stroke:none;fill-rule:nonzero;fill:rgb(1.568628%,1.960784%,0.784314%);fill-opacity:0.235294;" d="M 5.316406 13.234375 C 5.300781 13.339844 5.292969 13.449219 5.292969 13.5625 L 5.292969 13.898438 C 5.292969 15.273438 6.472656 16.375 7.9375 16.375 L 10.585938 16.375 L 10.585938 15.382812 L 7.9375 15.382812 C 6.589844 15.382812 5.484375 14.449219 5.316406 13.234375 Z M 58.191406 13.234375 C 58.019531 14.449219 56.914062 15.382812 55.566406 15.382812 L 52.921875 15.382812 L 52.921875 16.375 L 55.566406 16.375 C 57.035156 16.375 58.214844 15.273438 58.214844 13.898438 L 58.214844 13.5625 C 58.214844 13.449219 58.207031 13.339844 58.191406 13.234375 Z M 10.585938 23.492188 L 10.585938 24.484375 C 10.585938 25.15625 10.871094 25.765625 11.332031 26.214844 C 11.777344 26.675781 12.386719 26.960938 13.0625 26.960938 L 18.523438 26.960938 L 18.523438 25.96875 L 13.0625 25.96875 C 12.386719 25.96875 11.777344 25.683594 11.332031 25.222656 C 10.871094 24.773438 10.585938 24.164062 10.585938 23.492188 Z M 52.921875 23.492188 C 52.921875 24.164062 52.636719 24.773438 52.171875 25.222656 C 51.726562 25.683594 51.117188 25.96875 50.445312 25.96875 L 44.984375 25.96875 L 44.984375 26.960938 L 50.445312 26.960938 C 51.117188 26.960938 51.726562 26.675781 52.171875 26.214844 C 52.636719 25.765625 52.921875 25.15625 52.921875 24.484375 Z M 15.875 39.199219 L 15.875 40.191406 L 18.523438 40.191406 C 18.523438 47.519531 24.421875 53.421875 31.753906 53.421875 C 39.082031 53.421875 44.984375 47.519531 44.984375 40.191406 L 47.628906 40.191406 L 47.628906 39.199219 L 44.984375 39.199219 C 44.984375 46.527344 39.082031 52.429688 31.753906 52.429688 C 24.421875 52.429688 18.523438 46.527344 18.523438 39.199219 Z M 5.316406 47.632812 C 5.300781 47.742188 5.292969 47.847656 5.292969 47.960938 L 5.292969 48.296875 C 5.292969 49.671875 6.472656 50.777344 7.9375 50.777344 L 10.585938 50.777344 L 10.585938 49.785156 L 7.9375 49.785156 C 6.589844 49.785156 5.484375 48.851562 5.316406 47.632812 Z M 58.191406 47.632812 C 58.019531 48.851562 56.914062 49.785156 55.566406 49.785156 L 52.921875 49.785156 L 52.921875 50.777344 L 55.566406 50.777344 C 57.035156 50.777344 58.214844 49.671875 58.214844 48.296875 L 58.214844 47.960938 C 58.214844 47.847656 58.207031 47.742188 58.191406 47.632812 Z M 10.585938 52.429688 L 10.585938 53.421875 C 10.585938 54.886719 11.6875 56.066406 13.0625 56.066406 L 13.398438 56.066406 C 14.773438 56.066406 15.875 54.886719 15.875 53.421875 L 15.875 52.429688 C 15.875 53.894531 14.773438 55.074219 13.398438 55.074219 L 13.0625 55.074219 C 11.6875 55.074219 10.585938 53.894531 10.585938 52.429688 Z M 47.628906 52.429688 L 47.628906 53.421875 C 47.628906 54.886719 48.734375 56.066406 50.105469 56.066406 L 50.445312 56.066406 C 51.816406 56.066406 52.921875 54.886719 52.921875 53.421875 L 52.921875 52.429688 C 52.921875 53.894531 51.816406 55.074219 50.445312 55.074219 L 50.105469 55.074219 C 48.734375 55.074219 47.628906 53.894531 47.628906 52.429688 Z M 47.628906 52.429688 "/>
<path style="fill:none;stroke-width:11.338583;stroke-linecap:round;stroke-linejoin:round;stroke:rgb(12.941177%,12.941177%,12.941177%);stroke-opacity:1;stroke-miterlimit:4;" d="M 394.922937 175.140764 C 353.352102 175.140764 320.048194 210.806652 320.048194 255.093763 L 320.048194 335.164861 L 239.977096 335.164861 C 195.689984 335.164861 160.024097 368.468769 160.024097 410.039605 L 160.024097 420.196116 C 160.024097 461.766951 195.689984 495.070859 239.977096 495.070859 L 320.048194 495.070859 L 320.048194 740.24431 C 320.048194 760.557332 328.669418 778.98077 342.605096 792.562151 C 356.068378 806.497829 374.491817 815.119053 394.922937 815.119053 L 560.02529 815.119053 L 560.02529 1055.096149 L 394.922937 1055.096149 C 374.491817 1055.096149 356.068378 1063.717374 342.605096 1077.77115 C 328.669418 1091.234432 320.048194 1109.657871 320.048194 1129.970893 L 320.048194 1375.144343 L 239.977096 1375.144343 C 195.689984 1375.144343 160.024097 1408.56635 160.024097 1450.019087 L 160.024097 1460.175598 C 160.024097 1501.746433 195.689984 1535.16844 239.977096 1535.16844 L 320.048194 1535.16844 L 320.048194 1615.121439 C 320.048194 1659.408551 353.352102 1695.074438 394.922937 1695.074438 L 405.079448 1695.074438 C 446.650284 1695.074438 479.954192 1659.408551 479.954192 1615.121439 L 479.954192 1215.120246 L 560.02529 1215.120246 C 560.02529 1436.673904 738.354726 1615.121439 960.026483 1615.121439 C 1181.58014 1615.121439 1360.027676 1436.673904 1360.027676 1215.120246 L 1439.980675 1215.120246 L 1439.980675 1615.121439 C 1439.980675 1659.408551 1473.402682 1695.074438 1514.855418 1695.074438 L 1525.130028 1695.074438 C 1566.582765 1695.074438 1600.004772 1659.408551 1600.004772 1615.121439 L 1600.004772 1535.16844 L 1679.957771 1535.16844 C 1724.362981 1535.16844 1760.028869 1501.746433 1760.028869 1460.175598 L 1760.028869 1450.019087 C 1760.028869 1408.56635 1724.362981 1375.144343 1679.957771 1375.144343 L 1600.004772 1375.144343 L 1600.004772 1129.970893 C 1600.004772 1109.657871 1591.383547 1091.234432 1577.32977 1077.77115 C 1563.866488 1063.717374 1545.44305 1055.096149 1525.130028 1055.096149 L 1360.027676 1055.096149 L 1360.027676 815.119053 L 1525.130028 815.119053 C 1545.44305 815.119053 1563.866488 806.497829 1577.32977 792.562151 C 1591.383547 778.98077 1600.004772 760.557332 1600.004772 740.24431 L 1600.004772 495.070859 L 1679.957771 495.070859 C 1724.362981 495.070859 1760.028869 461.766951 1760.028869 420.196116 L 1760.028869 410.039605 C 1760.028869 368.468769 1724.362981 335.164861 1679.957771 335.164861 L 1600.004772 335.164861 L 1600.004772 255.093763 C 1600.004772 210.806652 1566.582765 175.140764 1525.130028 175.140764 L 1514.855418 175.140764 C 1473.402682 175.140764 1439.980675 210.806652 1439.980675 255.093763 L 1439.980675 655.094956 L 1360.027676 655.094956 C 1360.027676 433.541299 1181.58014 255.093763 960.026483 255.093763 C 738.354726 255.093763 560.02529 433.541299 560.02529 655.094956 L 479.954192 655.094956 L 479.954192 255.093763 C 479.954192 210.806652 446.650284 175.140764 405.079448 175.140764 Z M 394.922937 175.140764 " transform="matrix(0.0330761,0,0,0.0330761,0,0)"/>
<path style=" stroke:none;fill-rule:nonzero;fill:url(#linear3);" d="M 31.753906 28.285156 C 32.847656 28.285156 33.738281 29.171875 33.738281 30.269531 C 33.738281 31.363281 32.847656 32.253906 31.753906 32.253906 C 30.65625 32.253906 29.769531 31.363281 29.769531 30.269531 C 29.769531 29.171875 30.65625 28.285156 31.753906 28.285156 Z M 31.753906 28.285156 "/>
<path style=" stroke:none;fill-rule:nonzero;fill:rgb(100%,100%,100%);fill-opacity:0.392157;" d="M 31.753906 28.285156 C 30.652344 28.285156 29.769531 29.167969 29.769531 30.269531 C 29.769531 30.382812 29.777344 30.492188 29.796875 30.597656 C 29.953125 29.660156 30.765625 28.945312 31.753906 28.945312 C 32.738281 28.945312 33.554688 29.660156 33.710938 30.597656 C 33.726562 30.492188 33.738281 30.382812 33.738281 30.269531 C 33.738281 29.167969 32.851562 28.285156 31.753906 28.285156 Z M 31.753906 28.285156 "/>
<path style=" stroke:none;fill-rule:nonzero;fill:rgb(0%,0%,0%);fill-opacity:0.235294;" d="M 31.753906 32.914062 C 30.652344 32.914062 29.769531 32.03125 29.769531 30.929688 C 29.769531 30.816406 29.777344 30.707031 29.796875 30.597656 C 29.953125 31.539062 30.765625 32.253906 31.753906 32.253906 C 32.738281 32.253906 33.554688 31.539062 33.710938 30.597656 C 33.726562 30.707031 33.738281 30.816406 33.738281 30.929688 C 33.738281 32.03125 32.851562 32.914062 31.753906 32.914062 Z M 31.753906 32.914062 "/>
<path style="fill:none;stroke-width:3;stroke-linecap:round;stroke-linejoin:round;stroke:rgb(12.941177%,12.941177%,12.941177%);stroke-opacity:1;stroke-miterlimit:4;" d="M 254.006994 11.259643 C 262.756158 11.259643 269.880478 18.352716 269.880478 27.133127 C 269.880478 35.882292 262.756158 43.006612 254.006994 43.006612 C 245.226582 43.006612 238.133509 35.882292 238.133509 27.133127 C 238.133509 18.352716 245.226582 11.259643 254.006994 11.259643 Z M 254.006994 11.259643 " transform="matrix(0.125012,0,0,0.125012,0,26.877566)"/>
<path style=" stroke:none;fill-rule:nonzero;fill:url(#linear4);" d="M 31.753906 33.90625 C 32.847656 33.90625 33.738281 34.796875 33.738281 35.890625 C 33.738281 36.988281 32.847656 37.875 31.753906 37.875 C 30.65625 37.875 29.769531 36.988281 29.769531 35.890625 C 29.769531 34.796875 30.65625 33.90625 31.753906 33.90625 Z M 31.753906 33.90625 "/>
<path style=" stroke:none;fill-rule:nonzero;fill:rgb(100%,100%,100%);fill-opacity:0.392157;" d="M 31.753906 33.90625 C 30.652344 33.90625 29.769531 34.792969 29.769531 35.890625 C 29.769531 36.003906 29.777344 36.113281 29.796875 36.222656 C 29.953125 35.28125 30.765625 34.570312 31.753906 34.570312 C 32.738281 34.570312 33.554688 35.28125 33.710938 36.222656 C 33.726562 36.113281 33.738281 36.003906 33.738281 35.890625 C 33.738281 34.792969 32.851562 33.90625 31.753906 33.90625 Z M 31.753906 33.90625 "/>
<path style=" stroke:none;fill-rule:nonzero;fill:rgb(0%,0%,0%);fill-opacity:0.235294;" d="M 31.753906 38.539062 C 30.652344 38.539062 29.769531 37.652344 29.769531 36.554688 C 29.769531 36.441406 29.777344 36.328125 29.796875 36.222656 C 29.953125 37.164062 30.765625 37.875 31.753906 37.875 C 32.738281 37.875 33.554688 37.164062 33.710938 36.222656 C 33.726562 36.328125 33.738281 36.441406 33.738281 36.554688 C 33.738281 37.652344 32.851562 38.539062 31.753906 38.539062 Z M 31.753906 38.539062 "/>
<path style="fill:none;stroke-width:3;stroke-linecap:round;stroke-linejoin:round;stroke:rgb(12.941177%,12.941177%,12.941177%);stroke-opacity:1;stroke-miterlimit:4;" d="M 254.006994 11.244687 C 262.756158 11.244687 269.880478 18.369007 269.880478 27.118171 C 269.880478 35.898583 262.756158 42.991656 254.006994 42.991656 C 245.226582 42.991656 238.133509 35.898583 238.133509 27.118171 C 238.133509 18.369007 245.226582 11.244687 254.006994 11.244687 Z M 254.006994 11.244687 " transform="matrix(0.125012,0,0,0.125012,0,32.50053)"/>
<path style=" stroke:none;fill-rule:nonzero;fill:url(#linear5);" d="M 31.753906 39.199219 C 32.847656 39.199219 33.738281 40.085938 33.738281 41.183594 C 33.738281 42.28125 32.847656 43.167969 31.753906 43.167969 C 30.65625 43.167969 29.769531 42.28125 29.769531 41.183594 C 29.769531 40.085938 30.65625 39.199219 31.753906 39.199219 Z M 31.753906 39.199219 "/>
<path style=" stroke:none;fill-rule:nonzero;fill:rgb(100%,100%,100%);fill-opacity:0.392157;" d="M 31.753906 39.199219 C 30.652344 39.199219 29.769531 40.085938 29.769531 41.183594 C 29.769531 41.296875 29.777344 41.40625 29.796875 41.515625 C 29.953125 40.574219 30.765625 39.859375 31.753906 39.859375 C 32.738281 39.859375 33.554688 40.574219 33.710938 41.515625 C 33.726562 41.40625 33.738281 41.296875 33.738281 41.183594 C 33.738281 40.085938 32.851562 39.199219 31.753906 39.199219 Z M 31.753906 39.199219 "/>
<path style=" stroke:none;fill-rule:nonzero;fill:rgb(0%,0%,0%);fill-opacity:0.235294;" d="M 31.753906 43.828125 C 30.652344 43.828125 29.769531 42.945312 29.769531 41.84375 C 29.769531 41.730469 29.777344 41.621094 29.796875 41.515625 C 29.953125 42.457031 30.765625 43.167969 31.753906 43.167969 C 32.738281 43.167969 33.554688 42.457031 33.710938 41.515625 C 33.726562 41.621094 33.738281 41.730469 33.738281 41.84375 C 33.738281 42.945312 32.851562 43.828125 31.753906 43.828125 Z M 31.753906 43.828125 "/>
<path style="fill:none;stroke-width:3;stroke-linecap:round;stroke-linejoin:round;stroke:rgb(12.941177%,12.941177%,12.941177%);stroke-opacity:1;stroke-miterlimit:4;" d="M 254.006994 11.251062 C 262.756158 11.251062 269.880478 18.344135 269.880478 27.124546 C 269.880478 35.904958 262.756158 42.99803 254.006994 42.99803 C 245.226582 42.99803 238.133509 35.904958 238.133509 27.124546 C 238.133509 18.344135 245.226582 11.251062 254.006994 11.251062 Z M 254.006994 11.251062 " transform="matrix(0.125012,0,0,0.125012,0,37.792702)"/>
<path style=" stroke:none;fill-rule:nonzero;fill:url(#linear6);" d="M 31.753906 44.492188 C 32.847656 44.492188 33.738281 45.378906 33.738281 46.476562 C 33.738281 47.570312 32.847656 48.460938 31.753906 48.460938 C 30.65625 48.460938 29.769531 47.570312 29.769531 46.476562 C 29.769531 45.378906 30.65625 44.492188 31.753906 44.492188 Z M 31.753906 44.492188 "/>
<path style=" stroke:none;fill-rule:nonzero;fill:rgb(100%,100%,100%);fill-opacity:0.392157;" d="M 31.753906 44.492188 C 30.652344 44.492188 29.769531 45.375 29.769531 46.476562 C 29.769531 46.589844 29.777344 46.699219 29.796875 46.804688 C 29.953125 45.867188 30.765625 45.152344 31.753906 45.152344 C 32.738281 45.152344 33.554688 45.867188 33.710938 46.804688 C 33.726562 46.699219 33.738281 46.589844 33.738281 46.476562 C 33.738281 45.375 32.851562 44.492188 31.753906 44.492188 Z M 31.753906 44.492188 "/>
<path style=" stroke:none;fill-rule:nonzero;fill:rgb(0%,0%,0%);fill-opacity:0.235294;" d="M 31.753906 49.121094 C 30.652344 49.121094 29.769531 48.238281 29.769531 47.136719 C 29.769531 47.023438 29.777344 46.914062 29.796875 46.804688 C 29.953125 47.746094 30.765625 48.460938 31.753906 48.460938 C 32.738281 48.460938 33.554688 47.746094 33.710938 46.804688 C 33.726562 46.914062 33.738281 47.023438 33.738281 47.136719 C 33.738281 48.238281 32.851562 49.121094 31.753906 49.121094 Z M 31.753906 49.121094 "/>
<path style="fill:none;stroke-width:3;stroke-linecap:round;stroke-linejoin:round;stroke:rgb(12.941177%,12.941177%,12.941177%);stroke-opacity:1;stroke-miterlimit:4;" d="M 254.006994 11.257685 C 262.756158 11.257685 269.880478 18.350757 269.880478 27.131169 C 269.880478 35.880333 262.756158 43.004653 254.006994 43.004653 C 245.226582 43.004653 238.133509 35.880333 238.133509 27.131169 C 238.133509 18.350757 245.226582 11.257685 254.006994 11.257685 Z M 254.006994 11.257685 " transform="matrix(0.125012,0,0,0.125012,0,43.084843)"/>
<path style=" stroke:none;fill-rule:nonzero;fill:url(#linear7);" d="M 23.816406 9.761719 C 26.738281 9.761719 29.105469 12.128906 29.105469 15.054688 C 29.105469 17.976562 26.738281 20.34375 23.816406 20.34375 C 20.890625 20.34375 18.523438 17.976562 18.523438 15.054688 C 18.523438 12.128906 20.890625 9.761719 23.816406 9.761719 Z M 23.816406 9.761719 "/>
<path style=" stroke:none;fill-rule:nonzero;fill:rgb(100%,100%,100%);fill-opacity:0.313726;" d="M 23.816406 9.761719 C 20.882812 9.761719 18.523438 12.121094 18.523438 15.054688 C 18.523438 15.164062 18.527344 15.273438 18.53125 15.382812 C 18.703125 12.609375 20.992188 10.421875 23.816406 10.421875 C 26.636719 10.421875 28.925781 12.609375 29.097656 15.382812 C 29.101562 15.273438 29.105469 15.164062 29.105469 15.054688 C 29.105469 12.121094 26.746094 9.761719 23.816406 9.761719 Z M 23.816406 9.761719 "/>
<path style=" stroke:none;fill-rule:nonzero;fill:rgb(0%,0%,0%);fill-opacity:0.235294;" d="M 29.082031 15.550781 C 28.835938 18.246094 26.578125 20.34375 23.816406 20.34375 C 21.800781 20.34375 20.054688 19.230469 19.160156 17.582031 C 19.09375 17.785156 19.035156 17.992188 18.976562 18.203125 C 19.800781 20.054688 21.652344 21.339844 23.816406 21.339844 C 26.746094 21.339844 29.105469 18.976562 29.105469 16.046875 C 29.105469 15.878906 29.097656 15.714844 29.082031 15.550781 Z M 29.082031 15.550781 "/>
<path style="fill:none;stroke-width:3;stroke-linecap:round;stroke-linejoin:round;stroke:rgb(12.941177%,12.941177%,12.941177%);stroke-opacity:1;stroke-miterlimit:4;" d="M 190.513057 -136.913707 C 213.885825 -136.913707 232.821517 -117.978015 232.821517 -94.574 C 232.821517 -71.201232 213.885825 -52.26554 190.513057 -52.26554 C 167.109042 -52.26554 148.17335 -71.201232 148.17335 -94.574 C 148.17335 -117.978015 167.109042 -136.913707 190.513057 -136.913707 Z M 190.513057 -136.913707 " transform="matrix(0.125012,0,0,0.125012,0,26.877566)"/>
<path style=" stroke:none;fill-rule:nonzero;fill:url(#linear8);" d="M 39.667969 9.761719 C 36.746094 9.761719 34.375 12.128906 34.375 15.054688 C 34.375 17.976562 36.746094 20.34375 39.667969 20.34375 C 42.589844 20.34375 44.960938 17.976562 44.960938 15.054688 C 44.960938 12.128906 42.589844 9.761719 39.667969 9.761719 Z M 39.667969 9.761719 "/>
<path style=" stroke:none;fill-rule:nonzero;fill:rgb(100%,100%,100%);fill-opacity:0.313726;" d="M 39.667969 9.761719 C 42.601562 9.761719 44.960938 12.121094 44.960938 15.054688 C 44.960938 15.164062 44.957031 15.273438 44.949219 15.382812 C 44.78125 12.609375 42.488281 10.421875 39.667969 10.421875 C 36.847656 10.421875 34.554688 12.609375 34.386719 15.382812 C 34.378906 15.273438 34.375 15.164062 34.375 15.054688 C 34.375 12.121094 36.738281 9.761719 39.667969 9.761719 Z M 39.667969 9.761719 "/>
<path style=" stroke:none;fill-rule:nonzero;fill:rgb(0%,0%,0%);fill-opacity:0.235294;" d="M 34.398438 15.550781 C 34.648438 18.246094 36.902344 20.34375 39.667969 20.34375 C 41.683594 20.34375 43.425781 19.230469 44.320312 17.582031 C 44.386719 17.785156 44.449219 17.992188 44.503906 18.203125 C 43.683594 20.054688 41.832031 21.339844 39.667969 21.339844 C 36.738281 21.339844 34.375 18.976562 34.375 16.046875 C 34.375 15.878906 34.382812 15.714844 34.398438 15.550781 Z M 34.398438 15.550781 "/>
<path style="fill:none;stroke-width:3;stroke-linecap:round;stroke-linejoin:round;stroke:rgb(12.941177%,12.941177%,12.941177%);stroke-opacity:1;stroke-miterlimit:4;" d="M 190.502592 -136.913707 C 213.87536 -136.913707 232.842299 -117.978015 232.842299 -94.574 C 232.842299 -71.201232 213.87536 -52.26554 190.502592 -52.26554 C 167.129824 -52.26554 148.162885 -71.201232 148.162885 -94.574 C 148.162885 -117.978015 167.129824 -136.913707 190.502592 -136.913707 Z M 190.502592 -136.913707 " transform="matrix(-0.125012,0,0,0.125012,63.483067,26.877566)"/>
<path style=" stroke:none;fill-rule:nonzero;fill:url(#linear9);" d="M 23.785156 11.414062 C 24.882812 11.414062 25.773438 12.304688 25.773438 13.398438 C 25.773438 14.496094 24.882812 15.382812 23.785156 15.382812 C 22.691406 15.382812 21.800781 14.496094 21.800781 13.398438 C 21.800781 12.304688 22.691406 11.414062 23.785156 11.414062 Z M 23.785156 11.414062 "/>
<path style=" stroke:none;fill-rule:nonzero;fill:rgb(100%,100%,100%);fill-opacity:0.392157;" d="M 23.785156 11.414062 C 22.6875 11.414062 21.800781 12.300781 21.800781 13.398438 C 21.800781 13.511719 21.8125 13.621094 21.832031 13.730469 C 21.988281 12.789062 22.800781 12.078125 23.785156 12.078125 C 24.773438 12.078125 25.585938 12.789062 25.742188 13.730469 C 25.761719 13.621094 25.773438 13.511719 25.773438 13.398438 C 25.773438 12.300781 24.886719 11.414062 23.785156 11.414062 Z M 23.785156 11.414062 "/>
<path style=" stroke:none;fill-rule:nonzero;fill:rgb(0%,0%,0%);fill-opacity:0.235294;" d="M 23.785156 16.046875 C 22.6875 16.046875 21.800781 15.160156 21.800781 14.0625 C 21.800781 13.949219 21.8125 13.839844 21.832031 13.730469 C 21.988281 14.671875 22.800781 15.382812 23.785156 15.382812 C 24.773438 15.382812 25.585938 14.671875 25.742188 13.730469 C 25.761719 13.839844 25.773438 13.949219 25.773438 14.0625 C 25.773438 15.160156 24.886719 16.046875 23.785156 16.046875 Z M 23.785156 16.046875 "/>
<path style="fill:none;stroke-width:3;stroke-linecap:round;stroke-linejoin:round;stroke:rgb(12.941177%,12.941177%,12.941177%);stroke-opacity:1;stroke-miterlimit:4;" d="M 253.984768 11.241006 C 262.76518 11.241006 269.889499 18.365326 269.889499 27.11449 C 269.889499 35.894902 262.76518 42.987975 253.984768 42.987975 C 245.235604 42.987975 238.111284 35.894902 238.111284 27.11449 C 238.111284 18.365326 245.235604 11.241006 253.984768 11.241006 Z M 253.984768 11.241006 " transform="matrix(0.125012,0,0,0.125012,-7.965972,10.008803)"/>
<path style=" stroke:none;fill-rule:nonzero;fill:url(#linear10);" d="M 39.71875 11.414062 C 40.816406 11.414062 41.703125 12.304688 41.703125 13.398438 C 41.703125 14.496094 40.816406 15.382812 39.71875 15.382812 C 38.621094 15.382812 37.734375 14.496094 37.734375 13.398438 C 37.734375 12.304688 38.621094 11.414062 39.71875 11.414062 Z M 39.71875 11.414062 "/>
<path style=" stroke:none;fill-rule:nonzero;fill:rgb(100%,100%,100%);fill-opacity:0.392157;" d="M 39.71875 11.414062 C 38.621094 11.414062 37.734375 12.300781 37.734375 13.398438 C 37.734375 13.511719 37.746094 13.621094 37.761719 13.730469 C 37.917969 12.789062 38.730469 12.078125 39.71875 12.078125 C 40.707031 12.078125 41.519531 12.789062 41.675781 13.730469 C 41.695312 13.621094 41.703125 13.511719 41.703125 13.398438 C 41.703125 12.300781 40.820312 11.414062 39.71875 11.414062 Z M 39.71875 11.414062 "/>
<path style=" stroke:none;fill-rule:nonzero;fill:rgb(0%,0%,0%);fill-opacity:0.235294;" d="M 39.71875 16.046875 C 38.621094 16.046875 37.734375 15.160156 37.734375 14.0625 C 37.734375 13.949219 37.746094 13.839844 37.761719 13.730469 C 37.917969 14.671875 38.730469 15.382812 39.71875 15.382812 C 40.707031 15.382812 41.519531 14.671875 41.675781 13.730469 C 41.695312 13.839844 41.703125 13.949219 41.703125 14.0625 C 41.703125 15.160156 40.820312 16.046875 39.71875 16.046875 Z M 39.71875 16.046875 "/>
<path style="fill:none;stroke-width:3;stroke-linecap:round;stroke-linejoin:round;stroke:rgb(12.941177%,12.941177%,12.941177%);stroke-opacity:1;stroke-miterlimit:4;" d="M 253.997961 11.241006 C 262.778372 11.241006 269.871445 18.365326 269.871445 27.11449 C 269.871445 35.894902 262.778372 42.987975 253.997961 42.987975 C 245.217549 42.987975 238.124476 35.894902 238.124476 27.11449 C 238.124476 18.365326 245.217549 11.241006 253.997961 11.241006 Z M 253.997961 11.241006 " transform="matrix(0.125012,0,0,0.125012,7.965973,10.008803)"/>
</g>
</svg>
