<svg height="64pt" viewBox="0 0 64 64" width="64pt" xmlns="http://www.w3.org/2000/svg" xmlns:xlink="http://www.w3.org/1999/xlink"><linearGradient id="a"><stop offset="0" stop-opacity=".313726"/><stop offset=".222222" stop-opacity=".27451"/><stop offset="1" stop-opacity="0"/></linearGradient><radialGradient id="b" cx="450.908936" cy="189.579361" gradientTransform="matrix(.00000035 -.156265 -.281277 -.0000002 73.831312 127.190659)" gradientUnits="userSpaceOnUse" r="21.166656" xlink:href="#a"/><radialGradient id="c" cx="450.908936" cy="189.579361" gradientTransform="matrix(-.00000035 .156265 .281277 .0000002 -32.816971 -15.054964)" gradientUnits="userSpaceOnUse" r="21.166656" xlink:href="#a"/><radialGradient id="d" cx="450.908936" cy="189.579361" gradientTransform="matrix(-.00000035 -.156265 .281277 -.0000002 -32.816971 127.190659)" gradientUnits="userSpaceOnUse" r="21.166656" xlink:href="#a"/><radialGradient id="e" cx="450.908936" cy="189.579361" gradientTransform="matrix(.00000035 .156265 -.281277 .0000002 73.831309 -15.054965)" gradientUnits="userSpaceOnUse" r="21.166656" xlink:href="#a"/><linearGradient id="f" gradientTransform="matrix(.00381717 0 0 .125012 19.532556 26.877567)" gradientUnits="userSpaceOnUse" x1="255.323059" x2="255.323044" y1="233.5" y2="254.666656"><stop offset="0" stop-opacity=".27451"/><stop offset="1" stop-opacity="0"/></linearGradient><linearGradient id="g" gradientUnits="userSpaceOnUse" x1="31.753048" x2="31.753048" y1="56.067868" y2="5.79221000013"><stop offset="0" stop-color="#424242"/><stop offset="1" stop-color="#616161"/></linearGradient><linearGradient id="h"><stop offset="0" stop-color="#5c6bc0"/><stop offset="1" stop-color="#7986cb"/></linearGradient><linearGradient id="i" gradientUnits="userSpaceOnUse" x1="19.86025499994" x2="19.86025499994" xlink:href="#h" y1="56.067868" y2="44.160475"/><linearGradient id="j" gradientUnits="userSpaceOnUse" x1="9.92283299994" x2="9.92283299994" xlink:href="#h" y1="36.387572" y2="24.480179"/><linearGradient id="k" gradientUnits="userSpaceOnUse" x1="30.45054199994" x2="30.45054199994" xlink:href="#h" y1="17.448286" y2="5.540893"/><linearGradient id="l" gradientUnits="userSpaceOnUse" x1="42.32278699994" x2="42.32278699994" xlink:href="#h" y1="49.201319" y2="37.293926"/><linearGradient id="m" gradientUnits="userSpaceOnUse" x1="54.26531799994" x2="54.26531799994" xlink:href="#h" y1="28.449314" y2="16.541921"/><path d="m21.167969 56.066406h5.292969v-2.644531h-5.292969zm0 0" fill="url(#b)"/><path d="m19.84375 56.066406h-5.289062v2.648438h5.289062zm0 0" fill="url(#c)"/><path d="m19.84375 56.066406h-5.289062v-2.644531h5.289062zm0 0" fill="url(#d)"/><path d="m21.167969 56.066406h5.292969v2.648438h-5.292969zm0 0" fill="url(#e)"/><path d="m19.84375 55.40625h1.324219v3.308594h-1.324219zm0 0" fill="url(#f)"/><path d="m22.925781 13.238281c-6.15625 3.554688-10.75 8.5-13.21875 13.789063-2.464843 5.285156-2.78125 11.050781-.054687 15.777344 2.730468 4.726562 7.878906 7.332031 13.691406 7.839843 5.8125.507813 12.394531-1 18.550781-4.554687 6.15625-3.554688 10.75-8.5 13.21875-13.785156 2.464844-5.289063 2.78125-11.050782.054688-15.777344-2.730469-4.726563-7.878907-7.335938-13.691407-7.84375-5.8125-.507813-12.394531 1-18.550781 4.554687zm1.910157 3.308594c5.535156-3.195313 11.40625-4.484375 16.304687-4.054687 4.902344.425781 8.71875 2.488281 10.714844 5.945312 1.996093 3.457031 1.871093 7.796875-.207031 12.25-2.078126 4.457031-6.132813 8.898438-11.664063 12.09375-5.535156 3.195312-11.410156 4.484375-16.308594 4.058594-4.898437-.429688-8.71875-2.488282-10.714843-5.945313-1.996094-3.457031-1.871094-7.796875.210937-12.253906 2.078125-4.457031 6.128906-8.898437 11.664063-12.09375zm0 0" fill="url(#g)"/><path d="m39.261719 11.738281c-4.480469.003907-9.582031 1.339844-14.425781 4.136719-5.535157 3.195312-9.585938 7.636719-11.664063 12.089844-1.140625 2.445312-1.691406 4.851562-1.632813 7.097656.054688-2.050781.605469-4.222656 1.632813-6.421875 2.078125-4.457031 6.128906-8.898437 11.664063-12.09375 5.535156-3.195313 11.40625-4.484375 16.304687-4.054687 4.902344.425781 8.71875 2.488281 10.714844 5.945312.902343 1.5625 1.371093 3.304688 1.421875 5.15625.058594-2.101562-.410156-4.082031-1.421875-5.832031-1.996094-3.457031-5.8125-5.515625-10.714844-5.945313-.609375-.054687-1.238281-.078125-1.878906-.078125zm17.824219 11.847657c-.054688 2.675781-.75 5.417968-1.972657 8.042968-2.46875 5.289063-7.0625 10.234375-13.21875 13.785156-6.15625 3.554688-12.738281 5.0625-18.550781 4.554688s-10.960938-3.113281-13.691406-7.839844c-1.257813-2.179687-1.867188-4.582031-1.917969-7.058594-.054687 2.710938.546875 5.355469 1.917969 7.734376 2.730468 4.726562 7.878906 7.332031 13.691406 7.839843 5.8125.507813 12.394531-1 18.550781-4.554687 6.15625-3.554688 10.75-8.5 13.21875-13.785156 1.328125-2.847657 2.03125-5.832032 1.972657-8.71875zm0 0" fill-opacity=".235294"/><path d="m39.261719 8.589844c-5.238281-.003906-10.949219 1.539062-16.335938 4.648437-6.15625 3.554688-10.75 8.5-13.21875 13.789063-1.339843 2.875-2.042969 5.890625-1.96875 8.804687.066407-2.652343.757813-5.367187 1.96875-7.964843 2.46875-5.289063 7.0625-10.230469 13.21875-13.785157 5.386719-3.109375 11.097657-4.65625 16.335938-4.652343.75 0 1.488281.035156 2.214843.097656 5.8125.507812 10.960938 3.113281 13.691407 7.839844 1.242187 2.15625 1.851562 4.527343 1.914062 6.96875.070313-2.738282-.53125-5.410157-1.914062-7.808594-2.730469-4.726563-7.878907-7.335938-13.691407-7.84375-.726562-.0625-1.464843-.09375-2.214843-.09375zm14.007812 15.921875c-.089843 1.980469-.636719 4.066406-1.621093 6.175781-2.078126 4.457031-6.132813 8.898438-11.664063 12.09375-5.535156 3.195312-11.410156 4.484375-16.308594 4.058594-4.898437-.429688-8.71875-2.488282-10.714843-5.945313-.863282-1.5-1.328126-3.160156-1.410157-4.925781-.015625.335938-.019531.667969-.007812 1 .003906-.054688.003906-.105469.007812-.160156.082031 1.765625.546875 3.429687 1.410157 4.925781 1.996093 3.457031 5.816406 5.519531 10.714843 5.945313 4.898438.429687 10.773438-.859376 16.308594-4.054688 5.53125-3.195312 9.585937-7.636719 11.664063-12.09375.984374-2.113281 1.53125-4.199219 1.621093-6.175781.003907.050781.003907.101562.007813.152343.007812-.335937.007812-.667968-.007813-.996093zm0 0" fill="#fff" fill-opacity=".313726"/><path d="m183.388737-109.103863c-49.245297 28.434785-85.991788 67.993507-105.739902 110.301967-19.716867 42.277213-22.247876 88.397809-.437458 126.206698 21.841664 37.808889 63.025231 58.650649 109.520791 62.712761s99.146782-7.999236 148.392079-36.434021c49.245298-28.434784 85.991788-67.993506 105.739903-110.270719 19.716867-42.30846 22.247875-88.397809.437458-126.206698-21.841664-37.808889-63.025232-58.681896-109.520791-62.744008-46.49556-4.062112-99.146782 7.999236-148.39208 36.43402zm15.279791 26.466223c44.277022-25.560059 91.241287-35.871574 130.425045-32.434403 39.215005 3.405925 69.74334 19.90435 85.710565 47.557959s14.967321 62.369044-1.656092 97.990642c-16.623412 35.652845-49.057815 71.180703-93.30359 96.740762-44.277021 25.560059-91.272534 35.871574-130.456292 32.46565-39.183758-3.437172-69.74334-19.90435-85.710565-47.557959s-14.96732-62.369044 1.687339-98.021889c16.623413-35.652846 49.026568-71.180703 93.30359-96.740762zm0 0" fill="none" stroke="#212121" stroke-linecap="round" stroke-linejoin="round" stroke-width="3" transform="matrix(.125012 0 0 .125012 0 26.877566)"/><path d="m20.523438 44.160156c3.285156 0 5.953124 2.664063 5.953124 5.953125 0 3.289063-2.667968 5.953125-5.953124 5.953125-3.289063 0-5.957032-2.664062-5.957032-5.953125 0-3.289062 2.667969-5.953125 5.957032-5.953125zm0 0" fill="url(#i)"/><path d="m20.523438 44.160156c-3.300782 0-5.957032 2.65625-5.957032 5.953125 0 .167969.007813.332031.023438.496094.25-3.0625 2.800781-5.457031 5.933594-5.457031 3.128906 0 5.679687 2.394531 5.929687 5.457031.015625-.164063.023437-.328125.023437-.496094 0-3.296875-2.65625-5.953125-5.953124-5.953125zm0 0" fill="#fff" fill-opacity=".392157"/><path d="m14.582031 49.703125c-.007812.136719-.015625.273437-.015625.410156 0 3.300781 2.65625 5.953125 5.957032 5.953125 3.296874 0 5.953124-2.652344 5.953124-5.953125 0-.136719-.007812-.273437-.015624-.410156-.210938 3.101563-2.78125 5.539063-5.9375 5.539063-3.160157 0-5.726563-2.4375-5.941407-5.539063zm0 0" fill-opacity=".235294"/><path d="m174.638364 138.247517c26.27874 0 47.620452 21.310464 47.620452 47.620452s-21.341712 47.620452-47.620452 47.620452c-26.309988 0-47.6517-21.310464-47.6517-47.620452s21.341712-47.620452 47.6517-47.620452zm0 0" fill="none" stroke="#212121" stroke-linecap="round" stroke-linejoin="round" stroke-width="3" transform="matrix(.125012 0 0 .125012 -1.308443 26.877566)"/><path d="m10.585938 24.480469c3.285156 0 5.953124 2.664062 5.953124 5.953125 0 3.289062-2.667968 5.953125-5.953124 5.953125-3.289063 0-5.957032-2.664063-5.957032-5.953125 0-3.289063 2.667969-5.953125 5.957032-5.953125zm0 0" fill="url(#j)"/><path d="m10.585938 24.480469c-3.300782 0-5.957032 2.65625-5.957032 5.953125 0 .167968.007813.332031.023438.496094.25-3.0625 2.800781-5.457032 5.933594-5.457032 3.128906 0 5.679687 2.394532 5.929687 5.457032.015625-.164063.023437-.328126.023437-.496094 0-3.296875-2.65625-5.953125-5.953124-5.953125zm0 0" fill="#fff" fill-opacity=".392157"/><path d="m4.644531 30.023438c-.007812.136718-.015625.273437-.015625.410156 0 3.296875 2.65625 5.953125 5.957032 5.953125 3.296874 0 5.953124-2.65625 5.953124-5.953125 0-.136719-.007812-.273438-.015624-.410156-.210938 3.101562-2.78125 5.539062-5.9375 5.539062-3.160157 0-5.726563-2.4375-5.941407-5.539062zm0 0" fill-opacity=".235294"/><path d="m174.637742 138.252387c26.27874 0 47.620452 21.310465 47.620452 47.620453 0 26.309987-21.341712 47.620452-47.620452 47.620452-26.309988 0-47.6517-21.310465-47.6517-47.620452 0-26.309988 21.341712-47.620453 47.6517-47.620453zm0 0" fill="none" stroke="#212121" stroke-linecap="round" stroke-linejoin="round" stroke-width="3" transform="matrix(.125012 0 0 .125012 -11.245865 7.19727)"/><path d="m31.113281 5.539062c3.285157 0 5.953125 2.667969 5.953125 5.957032 0 3.285156-2.667968 5.953125-5.953125 5.953125-3.289062 0-5.953125-2.667969-5.953125-5.953125 0-3.289063 2.664063-5.957032 5.953125-5.957032zm0 0" fill="url(#k)"/><path d="m31.113281 5.539062c-3.300781 0-5.953125 2.65625-5.953125 5.957032 0 .164062.003906.332031.019532.496094.25-3.066407 2.800781-5.460938 5.933593-5.460938 3.128907 0 5.679688 2.394531 5.933594 5.460938.011719-.164063.019531-.332032.019531-.496094 0-3.300782-2.65625-5.957032-5.953125-5.957032zm0 0" fill="#fff" fill-opacity=".392157"/><path d="m25.171875 11.085938c-.007813.132812-.011719.269531-.011719.410156 0 3.296875 2.652344 5.953125 5.953125 5.953125 3.296875 0 5.953125-2.65625 5.953125-5.953125 0-.140625-.007812-.277344-.015625-.410156-.210937 3.101562-2.78125 5.535156-5.9375 5.535156-3.160156 0-5.726562-2.433594-5.941406-5.535156zm0 0" fill-opacity=".235294"/><path d="m174.634818 138.235423c26.27874 0 47.620452 21.341712 47.620452 47.6517 0 26.27874-21.341712 47.620452-47.620452 47.620452-26.309988 0-47.620453-21.341712-47.620453-47.620452 0-26.309988 21.310465-47.6517 47.620453-47.6517zm0 0" fill="none" stroke="#212121" stroke-linecap="round" stroke-linejoin="round" stroke-width="3" transform="matrix(.125012 0 0 .125012 9.281844 -11.742016)"/><path d="m42.984375 37.292969c3.289063 0 5.953125 2.667969 5.953125 5.953125 0 3.289062-2.664062 5.957031-5.953125 5.957031s-5.953125-2.667969-5.953125-5.957031c0-3.285156 2.664062-5.953125 5.953125-5.953125zm0 0" fill="url(#l)"/><path d="m42.984375 37.292969c-3.296875 0-5.953125 2.65625-5.953125 5.953125 0 .167968.007812.335937.019531.496094.25-3.0625 2.800781-5.457032 5.933594-5.457032s5.683594 2.394532 5.933594 5.457032c.011719-.160157.019531-.328126.019531-.496094 0-3.296875-2.65625-5.953125-5.953125-5.953125zm0 0" fill="#fff" fill-opacity=".392157"/><path d="m37.046875 42.835938c-.011719.136718-.015625.273437-.015625.410156 0 3.300781 2.65625 5.957031 5.953125 5.957031s5.953125-2.65625 5.953125-5.957031c0-.136719-.003906-.273438-.015625-.410156-.210937 3.105468-2.78125 5.539062-5.9375 5.539062-3.160156 0-5.726563-2.433594-5.9375-5.539062zm0 0" fill-opacity=".235294"/><path d="m174.625612 138.242409c26.309988 0 47.620452 21.341712 47.620452 47.620453 0 26.309987-21.310464 47.651699-47.620452 47.651699s-47.620452-21.341712-47.620452-47.651699c0-26.278741 21.310464-47.620453 47.620452-47.620453zm0 0" fill="none" stroke="#212121" stroke-linecap="round" stroke-linejoin="round" stroke-width="3" transform="matrix(.125012 0 0 .125012 21.154089 20.011017)"/><path d="m54.925781 16.542969c3.289063 0 5.953125 2.664062 5.953125 5.953125 0 3.289062-2.664062 5.953125-5.953125 5.953125-3.285156 0-5.953125-2.664063-5.953125-5.953125 0-3.289063 2.667969-5.953125 5.953125-5.953125zm0 0" fill="url(#m)"/><path d="m54.925781 16.542969c-3.296875 0-5.953125 2.652343-5.953125 5.953125 0 .167968.007813.332031.019532.496094.253906-3.066407 2.804687-5.457032 5.933593-5.457032 3.132813 0 5.683594 2.390625 5.933594 5.457032.015625-.164063.019531-.328126.019531-.496094 0-3.300782-2.652344-5.953125-5.953125-5.953125zm0 0" fill="#fff" fill-opacity=".392157"/><path d="m48.988281 22.085938c-.011719.136718-.015625.273437-.015625.410156 0 3.296875 2.65625 5.953125 5.953125 5.953125 3.300781 0 5.953125-2.65625 5.953125-5.953125 0-.136719-.003906-.273438-.011718-.410156-.214844 3.101562-2.78125 5.535156-5.941407 5.535156-3.15625 0-5.726562-2.433594-5.9375-5.535156zm0 0" fill-opacity=".235294"/><path d="m174.616612 138.258451c26.309988 0 47.620453 21.310465 47.620453 47.620452 0 26.309988-21.310465 47.620453-47.620453 47.620453-26.27874 0-47.620452-21.310465-47.620452-47.620453 0-26.309987 21.341712-47.620452 47.620452-47.620452zm0 0" fill="none" stroke="#212121" stroke-linecap="round" stroke-linejoin="round" stroke-width="3" transform="matrix(.125012 0 0 .125012 33.09662 -.740988)"/></svg>