<svg height="64pt" viewBox="0 0 64 64" width="64pt" xmlns="http://www.w3.org/2000/svg" xmlns:xlink="http://www.w3.org/1999/xlink"><linearGradient id="a"><stop offset="0" stop-opacity=".314"/><stop offset=".222" stop-opacity=".275"/><stop offset="1" stop-opacity="0"/></linearGradient><radialGradient id="b" cx="450.909" cy="189.579" gradientTransform="matrix(0 -.15626 -.28128 0 89.046 127.19)" gradientUnits="userSpaceOnUse" r="21.167" xlink:href="#a"/><radialGradient id="c" cx="450.909" cy="189.579" gradientTransform="matrix(0 .15626 .28128 0 -25.54 -15.055)" gradientUnits="userSpaceOnUse" r="21.167" xlink:href="#a"/><radialGradient id="d" cx="450.909" cy="189.579" gradientTransform="matrix(0 -.15626 .28128 0 -25.54 127.19)" gradientUnits="userSpaceOnUse" r="21.167" xlink:href="#a"/><radialGradient id="e" cx="450.909" cy="189.579" gradientTransform="matrix(0 .15626 -.28128 0 89.046 -15.055)" gradientUnits="userSpaceOnUse" r="21.167" xlink:href="#a"/><linearGradient id="f" gradientTransform="matrix(.02672 0 0 .12501 24.93 26.878)" gradientUnits="userSpaceOnUse" x1="255.323" x2="255.323" y1="233.5" y2="254.667"><stop offset="0" stop-opacity=".275"/><stop offset="1" stop-opacity="0"/></linearGradient><linearGradient id="g" gradientUnits="userSpaceOnUse" x1="254" x2="254" y1="-31.083" y2="95.917"><stop offset="0" stop-color="#424242"/><stop offset="1" stop-color="#616161"/></linearGradient><linearGradient id="h" gradientUnits="userSpaceOnUse" x1="960.00062" x2="960.00062" y1="175.11601349" y2="1695.118255"><stop offset="0" stop-color="#e0e0e0"/><stop offset="1" stop-color="#9e9e9e"/></linearGradient><linearGradient id="i"><stop offset="0" stop-color="#ef5350"/><stop offset="1" stop-color="#e57373"/></linearGradient><linearGradient id="j" gradientUnits="userSpaceOnUse" x1="31.75254" x2="31.75254" xlink:href="#i" y1="34.89951667" y2="26.96138167"/><linearGradient id="k" gradientUnits="userSpaceOnUse" x1="44.99654" x2="44.99654" xlink:href="#i" y1="34.89951667" y2="26.96138167"/><linearGradient id="l" gradientUnits="userSpaceOnUse" x1="18.52254" x2="18.52254" xlink:href="#i" y1="34.89951667" y2="26.96138167"/><path d="m36.383 56.066h5.293v-2.644h-5.293zm0 0" fill="url(#b)"/><path d="m27.121 56.066h-5.289v2.649h5.29zm0 0" fill="url(#c)"/><path d="m27.121 56.066h-5.289v-2.644h5.29zm0 0" fill="url(#d)"/><path d="m36.383 56.066h5.293v2.649h-5.293zm0 0" fill="url(#e)"/><path d="m27.121 55.406h9.262v3.309h-9.263zm0 0" fill="url(#f)"/><path d="m74.087-31.08h359.84v126.988h-359.84zm0 0" fill="url(#g)" stroke="#212121" stroke-linecap="round" stroke-width="3" transform="matrix(.12501 0 0 .12501 0 26.878)"/><path d="m960.026 175.14c-351.816 0-646.237 236.553-733.63 560.026h1467.261c-87.393-323.473-381.932-560.025-733.63-560.025zm-733.63 960.027c87.393 323.355 381.814 559.907 733.63 559.907 351.7 0 646.238-236.552 733.631-559.907zm0 0" fill="url(#h)" stroke="#333" stroke-linecap="round" stroke-width="11.339" transform="scale(.03308)"/><path d="m31.754 56.066a25.085 25.085 0 0 1 -25.14-25.136l.003-.246c.13 13.812 11.293 24.89 25.137 24.89a25.082 25.082 0 0 0 25.137-24.89v.246a25.082 25.082 0 0 1 -25.137 25.136zm0 0" fill-opacity=".196"/><path d="m31.754 5.793a25.085 25.085 0 0 0 -25.14 25.137l.003.246c.13-13.813 11.293-24.89 25.137-24.89a25.082 25.082 0 0 1 25.137 24.89v-.246a25.082 25.082 0 0 0 -25.137-25.137zm0 0" fill="#fff" fill-opacity=".392"/><path d="m31.754 5.605a25.277 25.277 0 0 0 -24.461 18.711h.39a24.886 24.886 0 0 1 24.071-18.336 24.89 24.89 0 0 1 24.071 18.336h.387a25.272 25.272 0 0 0 -24.457-18.71zm-24.461 31.942a25.278 25.278 0 0 0 24.46 18.707 25.273 25.273 0 0 0 24.458-18.707h-.387a24.89 24.89 0 0 1 -24.07 18.332 24.887 24.887 0 0 1 -24.07-18.332zm0 0" fill="#212121"/><path d="m31.754 26.96a3.97 3.97 0 1 1 -.001 7.94 3.97 3.97 0 0 1 0-7.94zm0 0" fill="url(#j)"/><path d="m31.754 26.96a3.96 3.96 0 0 0 -3.969 3.97c0 .113.004.222.012.332a3.962 3.962 0 0 1 3.957-3.64 3.958 3.958 0 0 1 3.953 3.64 3.96 3.96 0 0 0 -3.953-4.3zm0 0" fill="#fff" fill-opacity=".392"/><path d="m31.754 34.898a3.96 3.96 0 0 1 -3.969-3.968c0-.11.004-.223.012-.332a3.962 3.962 0 0 0 3.957 3.64 3.958 3.958 0 0 0 3.953-3.64 3.96 3.96 0 0 1 -3.953 4.3zm0 0" fill-opacity=".235"/><path d="m31.754 26.96a3.97 3.97 0 1 1 -.001 7.94 3.97 3.97 0 0 1 0-7.94zm0 0" fill="none" stroke="#212121" stroke-linecap="round" stroke-width=".37503"/><path d="m44.996 26.96a3.97 3.97 0 1 1 -.001 7.94 3.97 3.97 0 0 1 .001-7.94zm0 0" fill="url(#k)"/><path d="m44.996 26.96a3.96 3.96 0 0 0 -3.953 4.302 3.958 3.958 0 0 1 3.953-3.64c2.09 0 3.79 1.597 3.957 3.64.008-.11.012-.219.012-.332a3.96 3.96 0 0 0 -3.969-3.97zm0 0" fill="#fff" fill-opacity=".392"/><path d="m44.996 34.898a3.96 3.96 0 0 1 -3.953-4.3 3.958 3.958 0 0 0 3.953 3.64c2.09 0 3.79-1.597 3.957-3.64.008.109.012.222.012.332a3.96 3.96 0 0 1 -3.969 3.968zm0 0" fill-opacity=".235"/><path d="m44.996 26.96a3.97 3.97 0 1 1 -.001 7.94 3.97 3.97 0 0 1 .001-7.94zm0 0" fill="none" stroke="#212121" stroke-linecap="round" stroke-width=".37503"/><path d="m18.523 26.96a3.97 3.97 0 1 1 0 7.94 3.97 3.97 0 0 1 0-7.94zm0 0" fill="url(#l)"/><path d="m18.523 26.96a3.96 3.96 0 0 0 -3.968 3.97c0 .113.004.222.011.332a3.962 3.962 0 0 1 3.957-3.64 3.958 3.958 0 0 1 3.954 3.64 3.96 3.96 0 0 0 -3.953-4.3zm0 0" fill="#fff" fill-opacity=".392"/><path d="m18.523 34.898a3.96 3.96 0 0 1 -3.968-3.968c0-.11.004-.223.011-.332a3.962 3.962 0 0 0 3.957 3.64 3.958 3.958 0 0 0 3.954-3.64 3.96 3.96 0 0 1 -3.953 4.3zm0 0" fill-opacity=".235"/><path d="m18.523 26.96a3.97 3.97 0 1 1 0 7.94 3.97 3.97 0 0 1 0-7.94zm0 0" fill="none" stroke="#212121" stroke-linecap="round" stroke-width=".37503"/></svg>