<svg xmlns="http://www.w3.org/2000/svg" width="64pt" height="64pt" viewBox="0 0 64 64"><defs><linearGradient id="a" gradientUnits="userSpaceOnUse" x1="254" y1="233.5" x2="254" y2="254.667" gradientTransform="matrix(.00417 0 0 .12501 39.956 26.878)"><stop offset="0" stop-opacity=".275"/><stop offset="1" stop-opacity="0"/></linearGradient><radialGradient id="b" gradientUnits="userSpaceOnUse" cx="450.909" cy="189.579" fx="450.909" fy="189.579" r="21.167" gradientTransform="matrix(0 -.15626 -.28128 0 94.338 127.19)"><stop offset="0" stop-opacity=".314"/><stop offset=".222" stop-opacity=".275"/><stop offset="1" stop-opacity="0"/></radialGradient><radialGradient id="c" gradientUnits="userSpaceOnUse" cx="450.909" cy="189.579" fx="450.909" fy="189.579" r="21.167" gradientTransform="matrix(0 .15626 .28128 0 -12.31 -15.055)"><stop offset="0" stop-opacity=".314"/><stop offset=".222" stop-opacity=".275"/><stop offset="1" stop-opacity="0"/></radialGradient><radialGradient id="d" gradientUnits="userSpaceOnUse" cx="450.909" cy="189.579" fx="450.909" fy="189.579" r="21.167" gradientTransform="matrix(0 -.15626 .28128 0 -12.31 127.19)"><stop offset="0" stop-opacity=".314"/><stop offset=".222" stop-opacity=".275"/><stop offset="1" stop-opacity="0"/></radialGradient><radialGradient id="e" gradientUnits="userSpaceOnUse" cx="450.909" cy="189.579" fx="450.909" fy="189.579" r="21.167" gradientTransform="matrix(0 .15626 -.28128 0 94.338 -15.055)"><stop offset="0" stop-opacity=".314"/><stop offset=".222" stop-opacity=".275"/><stop offset="1" stop-opacity="0"/></radialGradient><linearGradient id="f" gradientUnits="userSpaceOnUse" x1="179.917" y1="64.167" x2="179.917" y2="-168.667" gradientTransform="translate(0 26.878) scale(.12501)"><stop offset="0" stop-color="#ef5350"/><stop offset="1" stop-color="#e57373"/></linearGradient><linearGradient id="g" gradientUnits="userSpaceOnUse" x1="328.083" y1="233.5" x2="328.083" y2=".667" gradientTransform="translate(0 26.878) scale(.12501)"><stop offset="0" stop-color="#42a5f5"/><stop offset="1" stop-color="#64b5f6"/></linearGradient><linearGradient id="h" gradientUnits="userSpaceOnUse" x1="444.5" y1="-9.917" x2="444.5" y2="-105.167" gradientTransform="translate(-179.917 89.958)"><stop offset="0" stop-color="#ff7043"/><stop offset="1" stop-color="#ff8a65"/></linearGradient><linearGradient id="i" gradientUnits="userSpaceOnUse" x1="428.625" y1="-4.625" x2="428.625" y2="-94.583" gradientTransform="translate(-174.625 84.667)"><stop offset="0" stop-color="#ffa726"/><stop offset="1" stop-color="#ffb74d"/></linearGradient></defs><path d="M40.352 55.871h1.324v2.941h-1.324zm0 0" fill="url(#a)"/><path d="M41.676 56.066h5.293v-2.644h-5.293zm0 0" fill="url(#b)"/><path d="M40.352 56.066h-5.29v2.649h5.29zm0 0" fill="url(#c)"/><path d="M40.352 56.066h-5.29v-2.644h5.29zm0 0" fill="url(#d)"/><path d="M41.676 56.066h5.293v2.649h-5.293zm0 0" fill="url(#e)"/><path d="M22.492 5.793c8.04 0 14.555 6.516 14.555 14.55 0 8.04-6.516 14.555-14.555 14.555S7.937 28.383 7.937 20.344c0-8.035 6.516-14.551 14.555-14.551zm0 0" fill="url(#f)"/><path d="M22.492 5.793A14.52 14.52 0 0 0 7.953 21.008a14.523 14.523 0 0 1 14.54-13.895c7.839 0 14.195 6.14 14.538 13.895a14.52 14.52 0 0 0-14.54-15.215zm0 0" fill="#fff" fill-opacity=".392"/><path d="M22.492 34.898A14.521 14.521 0 0 1 7.953 19.684a14.52 14.52 0 0 0 14.54 13.89 14.52 14.52 0 0 0 14.538-13.89 14.521 14.521 0 0 1-14.54 15.215zm0 0" fill-opacity=".235"/><path d="M22.492 5.605A14.714 14.714 0 0 0 7.75 20.348c0 8.16 6.578 14.738 14.742 14.738a14.713 14.713 0 0 0 14.742-14.738A14.714 14.714 0 0 0 22.492 5.605zm0 .375c7.961 0 14.367 6.403 14.367 14.368A14.33 14.33 0 0 1 22.492 34.71 14.33 14.33 0 0 1 8.125 20.348 14.331 14.331 0 0 1 22.492 5.98zm0 0" fill="#212121"/><path d="M41.016 26.96c8.035 0 14.55 6.517 14.55 14.556 0 8.035-6.515 14.55-14.55 14.55-8.04 0-14.555-6.515-14.555-14.55 0-8.04 6.516-14.555 14.555-14.555zm0 0" fill="url(#g)"/><path d="M41.016 26.96a14.524 14.524 0 0 0-14.54 15.216 14.517 14.517 0 0 1 14.54-13.89 14.52 14.52 0 0 1 14.539 13.89c.008-.219.011-.442.011-.66a14.52 14.52 0 0 0-14.55-14.555zm0 0" fill="#fff" fill-opacity=".392"/><path d="M41.016 56.066a14.52 14.52 0 0 1-14.54-15.214 14.52 14.52 0 0 0 14.54 13.894c7.84 0 14.195-6.14 14.539-13.894.008.218.011.441.011.664 0 8.062-6.488 14.55-14.55 14.55zm0 0" fill-opacity=".235"/><path d="M41.016 26.773a14.714 14.714 0 0 0-14.743 14.743c0 8.16 6.579 14.738 14.743 14.738 8.16 0 14.738-6.578 14.738-14.738a14.713 14.713 0 0 0-14.738-14.743zm0 .375c7.96 0 14.363 6.403 14.363 14.368 0 7.96-6.402 14.363-14.363 14.363a14.328 14.328 0 0 1-14.368-14.363 14.329 14.329 0 0 1 14.368-14.368zm0 0" fill="#212121"/><path d="M32.258 32.793c1.453-1.453 3.105-2.152 3.691-1.566.586.585-.117 2.238-1.566 3.691-1.453 1.45-3.106 2.152-3.692 1.566-.586-.586.114-2.238 1.567-3.691zm0 0M13.77 11.59c1.453-1.453 3.105-2.152 3.69-1.567.587.586-.116 2.239-1.565 3.692-1.454 1.45-3.106 2.152-3.692 1.566-.586-.59.113-2.242 1.567-3.691zm0 0" fill="#fff" fill-opacity=".235"/><path d="M254.007 90.627c-4.687.219-6.374-29.716-10.593-31.747-4.468-2.156-30.59 14.061-33.872 10.343-3.093-3.531 19.28-23.498 18.218-28.091-1.094-4.812-30.06-15.124-29.185-20.03.812-4.593 30.372.407 33.31-3.25 3.093-3.874-6.906-32.934-2.563-35.308 4.124-2.25 18.623 23.997 23.31 23.997 4.968 0 21.467-25.935 26.029-23.997 4.343 1.812-7.156 29.528-4.218 33.184 3.093 3.875 33.653.594 34.996 5.374 1.281 4.531-27.56 12.812-28.59 17.405-1.126 4.812 20.497 26.685 17.622 30.716-2.75 3.812-27.216-13.561-31.434-11.53-4.468 2.156-8.093 32.684-13.03 32.934zm0 0" transform="translate(0 26.878) scale(.12501)" fill="url(#h)" stroke-width="1.874" stroke-linecap="round" stroke-linejoin="round" stroke="#424242"/><path d="M254.007 74.754c-3.78.375-1.906-24.81-5.312-26.467-3.625-1.75-23.904 13.937-26.747 11.03-2.625-2.718 18.248-16.935 17.404-20.622-.906-3.969-25.81-10.03-25.31-14.062.469-3.75 24.623 3.688 26.966.75 2.531-3.187-8.249-26.435-4.78-28.56 3.218-1.968 12.467 21.561 16.248 21.561 4.03 0 15.498-22.935 19.31-21.56 3.563 1.312-9.061 23.185-6.718 26.153 2.531 3.156 27.592-2.187 28.904 1.656 1.187 3.594-23.78 7.375-24.623 11.062-.906 3.937 18.905 20.217 16.686 23.623-2.03 3.187-20.56-14-23.966-12.374-3.656 1.78-4.031 27.403-8.062 27.81zm0 0" transform="translate(0 26.878) scale(.12501)" fill="url(#i)" stroke-width="1.874" stroke-linecap="round" stroke-linejoin="round" stroke="#424242"/></svg>