<svg height="64pt" viewBox="0 0 64 64" width="64pt" xmlns="http://www.w3.org/2000/svg" xmlns:xlink="http://www.w3.org/1999/xlink"><linearGradient id="a" gradientUnits="userSpaceOnUse" x1="31.75304" x2="31.75304" y1="56.067872" y2="58.71396000006"><stop offset="0" stop-opacity=".27451"/><stop offset="1" stop-opacity="0"/></linearGradient><linearGradient id="b"><stop offset="0" stop-opacity=".313726"/><stop offset=".222222" stop-opacity=".27451"/><stop offset="1" stop-opacity="0"/></linearGradient><radialGradient id="c" cx="450.908936" cy="189.579361" gradientTransform="matrix(.00000035 -.156265 -.281277 -.0000002 106.24586 127.190665)" gradientUnits="userSpaceOnUse" r="21.166656" xlink:href="#b"/><radialGradient id="d" cx="450.908936" cy="189.579361" gradientTransform="matrix(-.00000035 .156265 .281277 .0000002 -42.409041 -15.054958)" gradientUnits="userSpaceOnUse" r="21.166656" xlink:href="#b"/><radialGradient id="e" cx="450.908936" cy="189.579361" gradientTransform="matrix(-.00000035 -.156265 .281277 -.0000002 -42.409041 127.190665)" gradientUnits="userSpaceOnUse" r="21.166656" xlink:href="#b"/><radialGradient id="f" cx="450.908936" cy="189.579361" gradientTransform="matrix(.00000035 .156265 -.281277 .0000002 106.245857 -15.054959)" gradientUnits="userSpaceOnUse" r="21.166656" xlink:href="#b"/><linearGradient id="g" gradientUnits="userSpaceOnUse" x1="31.753048" x2="31.753048" y1="5.79220900013" y2="56.067867"><stop offset="0" stop-color="#7986cb"/><stop offset="1" stop-color="#5c6bc0"/></linearGradient><linearGradient id="h" gradientUnits="userSpaceOnUse" x1="15.8765244068" x2="15.8765244068" y1="56.06786791803" y2="5.79220791797"><stop offset="0" stop-color="#9ccc65"/><stop offset="1" stop-color="#aed581"/></linearGradient><linearGradient id="i"><stop offset="0" stop-color="#e0e0e0"/><stop offset="1" stop-color="#eee"/></linearGradient><linearGradient id="j" gradientUnits="userSpaceOnUse" x1="37.04522400013" x2="37.04522400013" xlink:href="#i" y1="56.06786962372" y2="5.79221162384"/><linearGradient id="k" gradientUnits="userSpaceOnUse" x1="37.04522400013" x2="37.04522400013" xlink:href="#i" y1="56.06786862372" y2="5.79221062384"/><linearGradient id="l" gradientUnits="userSpaceOnUse" x1="37.04522400013" x2="37.04522400013" xlink:href="#i" y1="56.06786762372" y2="5.79220962384"/><linearGradient id="m" gradientUnits="userSpaceOnUse" x1="18.52261200006" x2="18.52261200006" xlink:href="#i" y1="56.067868" y2="5.79221000013"/><path d="m10.253906 56.066406h43.328125v2.648438h-43.328125zm0 0" fill="url(#a)"/><path d="m53.582031 56.066406h5.292969v-2.644531h-5.292969zm0 0" fill="url(#c)"/><path d="m10.253906 56.066406h-5.292968v2.648438h5.292968zm0 0" fill="url(#d)"/><path d="m10.253906 56.066406h-5.292968v-2.644531h5.292968zm0 0" fill="url(#e)"/><path d="m53.582031 56.066406h5.292969v2.648438h-5.292969zm0 0" fill="url(#f)"/><path d="m7.277344 5.792969h48.953125c1.09375 0 1.984375.886719 1.984375 1.984375v46.304687c0 1.097657-.890625 1.984375-1.984375 1.984375h-48.953125c-1.097656 0-1.984375-.886718-1.984375-1.984375v-46.304687c0-1.097656.886719-1.984375 1.984375-1.984375zm0 0" fill="url(#g)"/><path d="m7.277344 5.792969c-1.101563 0-1.984375.882812-1.984375 1.984375v.742187c0-1.097656.882812-1.984375 1.984375-1.984375h48.953125c1.097656 0 1.984375.886719 1.984375 1.984375v-.742187c0-1.101563-.886719-1.984375-1.984375-1.984375zm0 0" fill="#fff" fill-opacity=".392157"/><path d="m7.277344 55.984375c-1.101563 0-1.984375-.886719-1.984375-1.984375v-.742188c0 1.097657.882812 1.984376 1.984375 1.984376h48.953125c1.097656 0 1.984375-.886719 1.984375-1.984376v.742188c0 1.097656-.886719 1.984375-1.984375 1.984375zm0 0" fill-opacity=".235294"/><path d="m7.277344 5.605469c-1.199219 0-2.171875.972656-2.171875 2.171875v46.304687c0 1.203125.972656 2.171875 2.171875 2.171875h48.953125c1.199219 0 2.171875-.96875 2.171875-2.171875v-46.304687c0-1.199219-.972656-2.171875-2.171875-2.171875zm0 .375h48.953125c.996093 0 1.796875.796875 1.796875 1.796875v46.304687c0 1-.800782 1.796875-1.796875 1.796875h-48.953125c-1 0-1.796875-.796875-1.796875-1.796875v-46.304687c0-1 .796875-1.796875 1.796875-1.796875zm0 0" fill="#212121"/><path d="m12.292969 12.761719c-.5.5-.484375 1.320312.035156 1.839843l2.839844 2.839844c.242187.242188.5625.363282.886719.363282h.011718.015625c.324219 0 .644531-.121094.890625-.363282l.03125-.035156.035156-.03125 3.699219-3.703125c.519531-.519531.535157-1.339844.035157-1.839844l-.066407-.0625c-.5-.503906-1.320312-.488281-1.839843.03125l-2.796876 2.800781-1.871093-1.871093c-.519531-.519531-1.339844-.535157-1.839844-.035157zm0 0" fill="url(#h)"/><path d="m19.792969 11.402344c-.332031.003906-.664063.140625-.925781.398437l-2.796876 2.800781-1.871093-1.871093c-.519531-.519531-1.339844-.535157-1.839844-.035157l-.066406.066407c-.386719.386719-.464844.96875-.238281 1.453125.058593-.125.136718-.238282.238281-.339844l.066406-.0625c.5-.5 1.320313-.488281 1.839844.03125l1.871093 1.871094 2.796876-2.800782c.519531-.515624 1.339843-.53125 1.839843-.03125l.066407.066407c.101562.097656.179687.214843.238281.335937.226562-.484375.148437-1.0625-.238281-1.453125l-.066407-.0625c-.25-.253906-.578125-.375-.914062-.367187zm0 0" fill="#fff" fill-opacity=".392157"/><path d="m21.0625 13.160156c-.066406.1875-.171875.359375-.324219.511719l-3.699219 3.703125-.035156.03125-.03125.035156c-.246094.242188-.566406.363282-.890625.363282-.003906 0-.007812 0-.011719 0-.007812 0-.011718 0-.015624 0-.324219 0-.644532-.121094-.886719-.363282l-2.839844-2.839844c-.152344-.152343-.257813-.328124-.324219-.511718-.167968.457031-.058594 1 .324219 1.378906l2.773437 2.773438.03125.035156.035157.03125c.242187.246094.5625.367187.886719.367187h.015624.011719c.324219 0 .644531-.121093.890625-.367187l3.765625-3.765625c.382813-.382813.492188-.921875.324219-1.382813zm0 0" fill-opacity=".235294"/><path d="m98.33436-112.915999c-3.999619 3.999619-3.87463 10.561492.281223 14.717345l22.71658 22.716581c1.937315 1.937315 4.499571 2.905972 7.093073 2.905972h.093741.124988c2.593502 0 5.155758-.968657 7.12432-2.905972l.249976-.281223.281223-.249977 29.590924-29.622171c4.155853-4.155853 4.280841-10.717726.281223-14.717344l-.531199-.499953c-3.999618-4.030865-10.561491-3.905877-14.717344.249977l-22.372864 22.40411-14.967321-14.967321c-4.155853-4.155853-10.717726-4.280841-14.717344-.281223zm0 0" fill="none" stroke="#212121" stroke-linejoin="round" stroke-width="3" transform="matrix(.125012 0 0 .125012 0 26.877566)"/><path d="m25.136719 13.730469h25.140625c.730468 0 1.320312.59375 1.320312 1.324219v1.320312c0 .730469-.589844 1.324219-1.320312 1.324219h-25.140625c-.730469 0-1.320313-.59375-1.320313-1.324219v-1.320312c0-.730469.589844-1.324219 1.320313-1.324219zm0 0" fill="url(#j)"/><path d="m25.136719 13.730469c-.730469 0-1.320313.589843-1.320313 1.324219v.992187c0-.734375.589844-1.324219 1.320313-1.324219h25.140625c.730468 0 1.320312.589844 1.320312 1.324219v-.992187c0-.734376-.589844-1.324219-1.320312-1.324219zm0 0" fill="#fff" fill-opacity=".983871"/><path d="m25.136719 18.691406c-.730469 0-1.320313-.589844-1.320313-1.324218v-.992188c0 .734375.589844 1.324219 1.320313 1.324219h25.140625c.730468 0 1.320312-.589844 1.320312-1.324219v.992188c0 .734374-.589844 1.324218-1.320312 1.324218zm0 0" fill-opacity=".235294"/><path d="m201.074548-105.166739h201.105796c5.843192 0 10.561491 4.749547 10.561491 10.592739v10.561491c0 5.843192-4.718299 10.592739-10.561491 10.592739h-201.105796c-5.843192 0-10.561491-4.749547-10.561491-10.592739v-10.561491c0-5.843192 4.718299-10.592739 10.561491-10.592739zm0 0" fill="none" stroke="#212121" stroke-linecap="round" stroke-linejoin="round" stroke-width="3" transform="matrix(.125012 0 0 .125012 0 26.877566)"/><path d="m25.136719 22.992188h25.140625c.730468 0 1.320312.59375 1.320312 1.324218v1.320313c0 .730469-.589844 1.324219-1.320312 1.324219h-25.140625c-.730469 0-1.320313-.59375-1.320313-1.324219v-1.320313c0-.730468.589844-1.324218 1.320313-1.324218zm0 0" fill="url(#k)"/><path d="m25.136719 22.992188c-.730469 0-1.320313.589843-1.320313 1.324218v.992188c0-.734375.589844-1.324219 1.320313-1.324219h25.140625c.730468 0 1.320312.589844 1.320312 1.324219v-.992188c0-.734375-.589844-1.324218-1.320312-1.324218zm0 0" fill="#fff" fill-opacity=".983871"/><path d="m25.136719 27.953125c-.730469 0-1.320313-.589844-1.320313-1.324219v-.992187c0 .734375.589844 1.324219 1.320313 1.324219h25.140625c.730468 0 1.320312-.589844 1.320312-1.324219v.992187c0 .734375-.589844 1.324219-1.320312 1.324219zm0 0" fill-opacity=".235294"/><path d="m201.074548-105.163643h201.105796c5.843192 0 10.561491 4.749546 10.561491 10.592738v10.561491c0 5.843192-4.718299 10.592739-10.561491 10.592739h-201.105796c-5.843192 0-10.561491-4.749547-10.561491-10.592739v-10.561491c0-5.843192 4.718299-10.592738 10.561491-10.592738zm0 0" fill="none" stroke="#212121" stroke-linecap="round" stroke-linejoin="round" stroke-width="3" transform="matrix(.125012 0 0 .125012 0 36.138898)"/><path d="m25.136719 41.515625h25.140625c.730468 0 1.320312.589844 1.320312 1.320313v1.324218c0 .730469-.589844 1.324219-1.320312 1.324219h-25.140625c-.730469 0-1.320313-.59375-1.320313-1.324219v-1.324218c0-.730469.589844-1.320313 1.320313-1.320313zm0 0" fill="url(#j)"/><path d="m25.136719 41.515625c-.730469 0-1.320313.589844-1.320313 1.320313v.992187c0-.730469.589844-1.320313 1.320313-1.320313h25.140625c.730468 0 1.320312.589844 1.320312 1.320313v-.992187c0-.730469-.589844-1.320313-1.320312-1.320313zm0 0" fill="#fff" fill-opacity=".983871"/><path d="m25.136719 46.476562c-.730469 0-1.320313-.589843-1.320313-1.324218v-.992188c0 .734375.589844 1.324219 1.320313 1.324219h25.140625c.730468 0 1.320312-.589844 1.320312-1.324219v.992188c0 .734375-.589844 1.324218-1.320312 1.324218zm0 0" fill-opacity=".235294"/><path d="m201.074548-105.156713h201.105796c5.843192 0 10.561491 4.718299 10.561491 10.561491v10.592739c0 5.843192-4.718299 10.592738-10.561491 10.592738h-201.105796c-5.843192 0-10.561491-4.749546-10.561491-10.592738v-10.592739c0-5.843192 4.718299-10.561491 10.561491-10.561491zm0 0" fill="none" stroke="#212121" stroke-linecap="round" stroke-linejoin="round" stroke-width="3" transform="matrix(.125012 0 0 .125012 0 54.661469)"/><path d="m25.136719 32.582031h25.140625c.730468 0 1.320312.59375 1.320312 1.324219v1.324219c0 .730469-.589844 1.324219-1.320312 1.324219h-25.140625c-.730469 0-1.320313-.59375-1.320313-1.324219v-1.324219c0-.730469.589844-1.324219 1.320313-1.324219zm0 0" fill="url(#l)"/><path d="m25.136719 32.582031c-.730469 0-1.320313.59375-1.320313 1.324219v.992188c0-.730469.589844-1.324219 1.320313-1.324219h25.140625c.730468 0 1.320312.59375 1.320312 1.324219v-.992188c0-.730469-.589844-1.324219-1.320312-1.324219zm0 0" fill="#fff" fill-opacity=".983871"/><path d="m25.136719 37.546875c-.730469 0-1.320313-.589844-1.320313-1.324219v-.992187c0 .734375.589844 1.324219 1.320313 1.324219h25.140625c.730468 0 1.320312-.589844 1.320312-1.324219v.992187c0 .734375-.589844 1.324219-1.320312 1.324219zm0 0" fill-opacity=".235294"/><path d="m201.074548-105.181383h201.105796c5.843192 0 10.561491 4.749546 10.561491 10.592738v10.592739c0 5.843192-4.718299 10.592738-10.561491 10.592738h-201.105796c-5.843192 0-10.561491-4.749546-10.561491-10.592738v-10.592739c0-5.843192 4.718299-10.592738 10.561491-10.592738zm0 0" fill="none" stroke="#212121" stroke-linecap="round" stroke-linejoin="round" stroke-width="3" transform="matrix(.125012 0 0 .125012 0 45.73096)"/><path d="m15.875 22.992188h1.324219c.730469 0 1.324219.59375 1.324219 1.324218v1.320313c0 .730469-.59375 1.324219-1.324219 1.324219h-1.324219c-.730469 0-1.320312-.59375-1.320312-1.324219v-1.320313c0-.730468.589843-1.324218 1.320312-1.324218zm0 0" fill="url(#m)"/><path d="m15.875 22.992188c-.730469 0-1.320312.589843-1.320312 1.324218v.992188c0-.734375.589843-1.324219 1.320312-1.324219h1.324219c.734375 0 1.324219.589844 1.324219 1.324219v-.992188c0-.734375-.589844-1.324218-1.324219-1.324218zm0 0" fill="#fdfdfd"/><path d="m15.875 27.953125c-.730469 0-1.320312-.589844-1.320312-1.324219v-.992187c0 .734375.589843 1.324219 1.320312 1.324219h1.324219c.734375 0 1.324219-.589844 1.324219-1.324219v.992187c0 .734375-.589844 1.324219-1.324219 1.324219zm0 0" fill-opacity=".235294"/><path d="m126.987873-31.080309h10.592739c5.843192 0 10.592738 4.749546 10.592738 10.592738v10.561492c0 5.843192-4.749546 10.592738-10.592738 10.592738h-10.592739c-5.843192 0-10.561491-4.749546-10.561491-10.592738v-10.561492c0-5.843192 4.718299-10.592738 10.561491-10.592738zm0 0" fill="none" stroke="#212121" stroke-linecap="round" stroke-linejoin="round" stroke-width="3" transform="matrix(.125012 0 0 .125012 0 26.877597)"/><path d="m15.875 32.582031h1.324219c.730469 0 1.324219.59375 1.324219 1.324219v1.324219c0 .730469-.59375 1.324219-1.324219 1.324219h-1.324219c-.730469 0-1.320312-.59375-1.320312-1.324219v-1.324219c0-.730469.589843-1.324219 1.320312-1.324219zm0 0" fill="url(#m)"/><path d="m15.875 32.582031c-.730469 0-1.320312.59375-1.320312 1.324219v.992188c0-.730469.589843-1.324219 1.320312-1.324219h1.324219c.734375 0 1.324219.59375 1.324219 1.324219v-.992188c0-.730469-.589844-1.324219-1.324219-1.324219zm0 0" fill="#fdfdfd"/><path d="m15.875 37.546875c-.730469 0-1.320312-.589844-1.320312-1.324219v-.992187c0 .734375.589843 1.324219 1.320312 1.324219h1.324219c.734375 0 1.324219-.589844 1.324219-1.324219v.992187c0 .734375-.589844 1.324219-1.324219 1.324219zm0 0" fill-opacity=".235294"/><path d="m126.987873-31.098055h10.592739c5.843192 0 10.592738 4.749546 10.592738 10.592738v10.592739c0 5.843192-4.749546 10.592738-10.592738 10.592738h-10.592739c-5.843192 0-10.561491-4.749546-10.561491-10.592738v-10.592739c0-5.843192 4.718299-10.592738 10.561491-10.592738zm0 0" fill="none" stroke="#212121" stroke-linecap="round" stroke-linejoin="round" stroke-width="3" transform="matrix(.125012 0 0 .125012 0 36.469659)"/><path d="m15.875 41.515625h1.324219c.730469 0 1.324219.589844 1.324219 1.320313v1.324218c0 .730469-.59375 1.324219-1.324219 1.324219h-1.324219c-.730469 0-1.320312-.59375-1.320312-1.324219v-1.324218c0-.730469.589843-1.320313 1.320312-1.320313zm0 0" fill="url(#m)"/><path d="m15.875 41.515625c-.730469 0-1.320312.589844-1.320312 1.320313v.992187c0-.730469.589843-1.320313 1.320312-1.320313h1.324219c.734375 0 1.324219.589844 1.324219 1.320313v-.992187c0-.730469-.589844-1.320313-1.324219-1.320313zm0 0" fill="#fdfdfd"/><path d="m15.875 46.476562c-.730469 0-1.320312-.589843-1.320312-1.324218v-.992188c0 .734375.589843 1.324219 1.320312 1.324219h1.324219c.734375 0 1.324219-.589844 1.324219-1.324219v.992188c0 .734375-.589844 1.324218-1.324219 1.324218zm0 0" fill-opacity=".235294"/><path d="m126.987873-31.073629h10.592739c5.843192 0 10.592738 4.718299 10.592738 10.561491v10.592739c0 5.843192-4.749546 10.592738-10.592738 10.592738h-10.592739c-5.843192 0-10.561491-4.749546-10.561491-10.592738v-10.592739c0-5.843192 4.718299-10.561491 10.561491-10.561491zm0 0" fill="none" stroke="#212121" stroke-linecap="round" stroke-linejoin="round" stroke-width="3" transform="matrix(.125012 0 0 .125012 0 45.4002)"/></svg>