<?xml version="1.0" encoding="UTF-8"?>
<svg xmlns="http://www.w3.org/2000/svg" xmlns:xlink="http://www.w3.org/1999/xlink" width="64px" height="64px" viewBox="0 0 64 64" version="1.1">
<defs>
<linearGradient id="linear0" gradientUnits="userSpaceOnUse" x1="254" y1="233.5" x2="254" y2="254.666672" gradientTransform="matrix(0.125012,0,0,0.125012,-0.00000763012,26.877566)">
<stop offset="0" style="stop-color:rgb(0%,0%,0%);stop-opacity:0.27451;"/>
<stop offset="1" style="stop-color:rgb(0%,0%,0%);stop-opacity:0;"/>
</linearGradient>
<radialGradient id="radial0" gradientUnits="userSpaceOnUse" cx="450.908936" cy="189.579361" fx="450.908936" fy="189.579361" r="21.166656" gradientTransform="matrix(0.000000348341,-0.156265,-0.281277,-0.000000203077,106.907382,127.190661)">
<stop offset="0" style="stop-color:rgb(0%,0%,0%);stop-opacity:0.313726;"/>
<stop offset="0.222222" style="stop-color:rgb(0%,0%,0%);stop-opacity:0.27451;"/>
<stop offset="1" style="stop-color:rgb(0%,0%,0%);stop-opacity:0;"/>
</radialGradient>
<radialGradient id="radial1" gradientUnits="userSpaceOnUse" cx="450.908936" cy="189.579361" fx="450.908936" fy="189.579361" r="21.166656" gradientTransform="matrix(-0.000000348341,0.156265,0.281277,0.000000203077,-43.401323,-15.054962)">
<stop offset="0" style="stop-color:rgb(0%,0%,0%);stop-opacity:0.313726;"/>
<stop offset="0.222222" style="stop-color:rgb(0%,0%,0%);stop-opacity:0.27451;"/>
<stop offset="1" style="stop-color:rgb(0%,0%,0%);stop-opacity:0;"/>
</radialGradient>
<radialGradient id="radial2" gradientUnits="userSpaceOnUse" cx="450.908936" cy="189.579361" fx="450.908936" fy="189.579361" r="21.166656" gradientTransform="matrix(-0.000000348341,-0.156265,0.281277,-0.000000203077,-43.401323,127.190661)">
<stop offset="0" style="stop-color:rgb(0%,0%,0%);stop-opacity:0.313726;"/>
<stop offset="0.222222" style="stop-color:rgb(0%,0%,0%);stop-opacity:0.27451;"/>
<stop offset="1" style="stop-color:rgb(0%,0%,0%);stop-opacity:0;"/>
</radialGradient>
<radialGradient id="radial3" gradientUnits="userSpaceOnUse" cx="450.908936" cy="189.579361" fx="450.908936" fy="189.579361" r="21.166656" gradientTransform="matrix(0.000000348341,0.156265,-0.281277,0.000000203077,106.907378,-15.054963)">
<stop offset="0" style="stop-color:rgb(0%,0%,0%);stop-opacity:0.313726;"/>
<stop offset="0.222222" style="stop-color:rgb(0%,0%,0%);stop-opacity:0.27451;"/>
<stop offset="1" style="stop-color:rgb(0%,0%,0%);stop-opacity:0;"/>
</radialGradient>
<linearGradient id="linear1" gradientUnits="userSpaceOnUse" x1="306.916656" y1="-25.791676" x2="305.954559" y2="-135.329163" gradientTransform="matrix(0.150699,0,0,0.434824,-11.708026,67.282696)">
<stop offset="0" style="stop-color:rgb(25.882354%,25.882354%,25.882354%);stop-opacity:1;"/>
<stop offset="1" style="stop-color:rgb(38.039216%,38.039216%,38.039216%);stop-opacity:1;"/>
</linearGradient>
<linearGradient id="linear2" gradientUnits="userSpaceOnUse" x1="1120" y1="1695.118164" x2="1120" y2="255.118118" gradientTransform="matrix(0.0330761,0,0,0.0330761,0.00000619175,0.0273578)">
<stop offset="0" style="stop-color:rgb(69.01961%,74.509805%,77.254903%);stop-opacity:1;"/>
<stop offset="1" style="stop-color:rgb(81.176472%,84.705883%,86.274511%);stop-opacity:1;"/>
</linearGradient>
<linearGradient id="linear3" gradientUnits="userSpaceOnUse" x1="444.5" y1="185.875" x2="444.5" y2="148.833328" gradientTransform="matrix(0.5,0,0,0.571428,-105.83342,106.337929)">
<stop offset="0" style="stop-color:rgb(47.058824%,56.470591%,61.176473%);stop-opacity:1;"/>
<stop offset="1" style="stop-color:rgb(37.64706%,49.019608%,54.509807%);stop-opacity:1;"/>
</linearGradient>
<linearGradient id="linear4" gradientUnits="userSpaceOnUse" x1="444.5" y1="185.875" x2="444.5" y2="148.833328" gradientTransform="matrix(0.5,0,0,0.571428,-63.500061,106.337929)">
<stop offset="0" style="stop-color:rgb(47.058824%,56.470591%,61.176473%);stop-opacity:1;"/>
<stop offset="1" style="stop-color:rgb(37.64706%,49.019608%,54.509807%);stop-opacity:1;"/>
</linearGradient>
<linearGradient id="linear5" gradientUnits="userSpaceOnUse" x1="444.5" y1="185.875" x2="444.5" y2="148.833328" gradientTransform="matrix(0.5,0,0,0.571428,-21.166752,106.337929)">
<stop offset="0" style="stop-color:rgb(47.058824%,56.470591%,61.176473%);stop-opacity:1;"/>
<stop offset="1" style="stop-color:rgb(37.64706%,49.019608%,54.509807%);stop-opacity:1;"/>
</linearGradient>
<linearGradient id="linear6" gradientUnits="userSpaceOnUse" x1="444.5" y1="185.875" x2="444.5" y2="148.833328" gradientTransform="matrix(0.5,0,0,0.571428,169.333252,106.337929)">
<stop offset="0" style="stop-color:rgb(47.058824%,56.470591%,61.176473%);stop-opacity:1;"/>
<stop offset="1" style="stop-color:rgb(37.64706%,49.019608%,54.509807%);stop-opacity:1;"/>
</linearGradient>
<linearGradient id="linear7" gradientUnits="userSpaceOnUse" x1="254" y1="117.083344" x2="254" y2="-78.708336" >
<stop offset="0" style="stop-color:rgb(69.01961%,74.509805%,77.254903%);stop-opacity:1;"/>
<stop offset="1" style="stop-color:rgb(81.176472%,84.705883%,86.274511%);stop-opacity:1;"/>
</linearGradient>
</defs>
<g id="surface1">
<path style=" stroke:none;fill-rule:nonzero;fill:url(#linear0);" d="M 9.261719 56.066406 L 54.246094 56.066406 L 54.246094 58.714844 L 9.261719 58.714844 Z M 9.261719 56.066406 "/>
<path style=" stroke:none;fill-rule:nonzero;fill:url(#radial0);" d="M 54.246094 56.066406 L 59.535156 56.066406 L 59.535156 53.421875 L 54.246094 53.421875 Z M 54.246094 56.066406 "/>
<path style=" stroke:none;fill-rule:nonzero;fill:url(#radial1);" d="M 9.261719 56.066406 L 3.96875 56.066406 L 3.96875 58.714844 L 9.261719 58.714844 Z M 9.261719 56.066406 "/>
<path style=" stroke:none;fill-rule:nonzero;fill:url(#radial2);" d="M 9.261719 56.066406 L 3.96875 56.066406 L 3.96875 53.421875 L 9.261719 53.421875 Z M 9.261719 56.066406 "/>
<path style=" stroke:none;fill-rule:nonzero;fill:url(#radial3);" d="M 54.246094 56.066406 L 59.535156 56.066406 L 59.535156 58.714844 L 54.246094 58.714844 Z M 54.246094 56.066406 "/>
<path style=" stroke:none;fill-rule:nonzero;fill:url(#linear1);" d="M 6.613281 8.4375 L 56.890625 8.4375 C 58.351562 8.4375 59.535156 9.621094 59.535156 11.085938 L 59.535156 53.421875 C 59.535156 54.882812 58.351562 56.066406 56.890625 56.066406 L 6.613281 56.066406 C 5.152344 56.066406 3.96875 54.882812 3.96875 53.421875 L 3.96875 11.085938 C 3.96875 9.621094 5.152344 8.4375 6.613281 8.4375 Z M 6.613281 8.4375 "/>
<path style=" stroke:none;fill-rule:nonzero;fill:rgb(0%,0%,0%);fill-opacity:0.235294;" d="M 6.613281 56.09375 C 5.148438 56.09375 3.96875 54.914062 3.96875 53.449219 L 3.96875 52.761719 C 3.96875 54.226562 5.148438 55.40625 6.613281 55.40625 L 56.890625 55.40625 C 58.355469 55.40625 59.535156 54.226562 59.535156 52.761719 L 59.535156 53.449219 C 59.535156 54.914062 58.355469 56.09375 56.890625 56.09375 Z M 6.613281 56.09375 "/>
<path style=" stroke:none;fill-rule:nonzero;fill:rgb(100%,100%,100%);fill-opacity:0.392157;" d="M 6.613281 8.589844 C 5.148438 8.589844 3.96875 9.769531 3.96875 11.238281 L 3.96875 11.925781 C 3.96875 10.457031 5.148438 9.277344 6.613281 9.277344 L 56.890625 9.277344 C 58.355469 9.277344 59.535156 10.457031 59.535156 11.925781 L 59.535156 11.238281 C 59.535156 9.769531 58.355469 8.589844 56.890625 8.589844 Z M 6.613281 8.589844 "/>
<path style=" stroke:none;fill-rule:nonzero;fill:rgb(12.941177%,12.941177%,12.941177%);fill-opacity:1;" d="M 6.613281 8.25 C 5.046875 8.25 3.78125 9.519531 3.78125 11.085938 L 3.78125 53.421875 C 3.78125 54.988281 5.046875 56.253906 6.613281 56.253906 L 56.890625 56.253906 C 58.457031 56.253906 59.722656 54.988281 59.722656 53.421875 L 59.722656 11.085938 C 59.722656 9.519531 58.457031 8.25 56.890625 8.25 Z M 6.613281 8.625 L 56.890625 8.625 C 58.257812 8.625 59.347656 9.71875 59.347656 11.085938 L 59.347656 53.421875 C 59.347656 54.789062 58.257812 55.878906 56.890625 55.878906 L 6.613281 55.878906 C 5.25 55.878906 4.15625 54.789062 4.15625 53.421875 L 4.15625 11.085938 C 4.15625 9.71875 5.25 8.625 6.613281 8.625 Z M 6.613281 8.625 "/>
<path style=" stroke:none;fill-rule:nonzero;fill:url(#linear2);" d="M 13.230469 48.15625 C 11.765625 48.15625 10.585938 49.335938 10.585938 50.804688 L 10.585938 54.773438 C 10.585938 55.503906 11.175781 56.09375 11.90625 56.09375 L 51.597656 56.09375 C 52.332031 56.09375 52.921875 55.503906 52.921875 54.773438 L 52.921875 50.804688 C 52.921875 49.335938 51.742188 48.15625 50.277344 48.15625 Z M 13.230469 48.15625 "/>
<path style="fill-rule:nonzero;fill:url(#linear3);stroke-width:3;stroke-linecap:round;stroke-linejoin:miter;stroke:rgb(12.941177%,12.941177%,12.941177%);stroke-opacity:1;stroke-miterlimit:4;" d="M 116.426382 191.398691 C 122.269574 191.398691 126.987873 196.11699 126.987873 201.960182 C 126.987873 207.803374 122.269574 212.552921 116.426382 212.552921 C 110.58319 212.552921 105.833643 207.803374 105.833643 201.960182 C 105.833643 196.11699 110.58319 191.398691 116.426382 191.398691 Z M 116.426382 191.398691 " transform="matrix(0.125012,0,0,0.125012,0,26.877566)"/>
<path style="fill-rule:nonzero;fill:url(#linear4);stroke-width:3;stroke-linecap:round;stroke-linejoin:miter;stroke:rgb(12.941177%,12.941177%,12.941177%);stroke-opacity:1;stroke-miterlimit:4;" d="M 158.734842 191.398691 C 164.609281 191.398691 169.32758 196.11699 169.32758 201.960182 C 169.32758 207.803374 164.609281 212.552921 158.734842 212.552921 C 152.89165 212.552921 148.17335 207.803374 148.17335 201.960182 C 148.17335 196.11699 152.89165 191.398691 158.734842 191.398691 Z M 158.734842 191.398691 " transform="matrix(0.125012,0,0,0.125012,0,26.877566)"/>
<path style="fill-rule:nonzero;fill:url(#linear5);stroke-width:3;stroke-linecap:round;stroke-linejoin:miter;stroke:rgb(12.941177%,12.941177%,12.941177%);stroke-opacity:1;stroke-miterlimit:4;" d="M 201.074548 191.398691 C 206.91774 191.398691 211.667287 196.11699 211.667287 201.960182 C 211.667287 207.803374 206.91774 212.552921 201.074548 212.552921 C 195.231356 212.552921 190.513057 207.803374 190.513057 201.960182 C 190.513057 196.11699 195.231356 191.398691 201.074548 191.398691 Z M 201.074548 191.398691 " transform="matrix(0.125012,0,0,0.125012,0,26.877566)"/>
<path style="fill-rule:nonzero;fill:url(#linear6);stroke-width:3;stroke-linecap:round;stroke-linejoin:miter;stroke:rgb(12.941177%,12.941177%,12.941177%);stroke-opacity:1;stroke-miterlimit:4;" d="M 391.587605 191.398691 C 397.430797 191.398691 402.180344 196.11699 402.180344 201.960182 C 402.180344 207.803374 397.430797 212.552921 391.587605 212.552921 C 385.744413 212.552921 380.994867 207.803374 380.994867 201.960182 C 380.994867 196.11699 385.744413 191.398691 391.587605 191.398691 Z M 391.587605 191.398691 " transform="matrix(0.125012,0,0,0.125012,0,26.877566)"/>
<path style=" stroke:none;fill-rule:nonzero;fill:rgb(100%,100%,100%);fill-opacity:0.588235;" d="M 13.230469 48.15625 C 11.765625 48.15625 10.585938 49.335938 10.585938 50.804688 L 10.585938 51.4375 C 10.585938 49.972656 11.765625 48.792969 13.230469 48.792969 L 50.277344 48.792969 C 51.742188 48.792969 52.921875 49.972656 52.921875 51.4375 L 52.921875 50.804688 C 52.921875 49.335938 51.742188 48.15625 50.277344 48.15625 Z M 13.230469 48.15625 "/>
<path style=" stroke:none;fill-rule:nonzero;fill:rgb(0%,0%,0%);fill-opacity:0.235294;" d="M 10.585938 54.109375 L 10.585938 54.773438 C 10.585938 55.503906 11.175781 56.09375 11.90625 56.09375 L 51.597656 56.09375 C 52.332031 56.09375 52.921875 55.503906 52.921875 54.773438 L 52.921875 54.109375 C 52.921875 54.84375 52.332031 55.433594 51.597656 55.433594 L 11.90625 55.433594 C 11.175781 55.433594 10.585938 54.84375 10.585938 54.109375 Z M 10.585938 54.109375 "/>
<path style=" stroke:none;fill-rule:nonzero;fill:rgb(12.941177%,12.941177%,12.941177%);fill-opacity:1;" d="M 13.230469 47.96875 C 11.664062 47.96875 10.398438 49.238281 10.398438 50.804688 L 10.398438 54.773438 C 10.398438 55.605469 11.074219 56.28125 11.90625 56.28125 L 51.597656 56.28125 C 52.433594 56.28125 53.109375 55.605469 53.109375 54.773438 L 53.109375 50.804688 C 53.109375 49.238281 51.84375 47.96875 50.277344 47.96875 Z M 13.230469 48.34375 L 50.277344 48.34375 C 51.640625 48.34375 52.734375 49.4375 52.734375 50.804688 L 52.734375 54.773438 C 52.734375 55.40625 52.230469 55.90625 51.597656 55.90625 L 11.90625 55.90625 C 11.273438 55.90625 10.773438 55.40625 10.773438 54.773438 L 10.773438 50.804688 C 10.773438 49.4375 11.863281 48.34375 13.230469 48.34375 Z M 13.230469 48.34375 "/>
<path style="fill:none;stroke-width:25;stroke-linecap:round;stroke-linejoin:round;stroke:url(#linear7);stroke-dasharray:25,50;stroke-dashoffset:69.999985;stroke-miterlimit:4;" d="M 349.247898 85.346318 L 179.920318 85.346318 L 179.920318 -62.827032 L 328.093669 -62.827032 L 328.093669 106.500548 " transform="matrix(0.125012,0,0,0.125012,0,26.877566)"/>
<path style=" stroke:none;fill-rule:nonzero;fill:rgb(100%,100%,100%);fill-opacity:1;" d="M 22.492188 17.460938 L 21.792969 17.625 L 21.238281 18.085938 L 20.953125 18.746094 L 20.929688 19.023438 L 20.929688 19.898438 L 20.953125 19.625 L 21.238281 18.964844 L 21.792969 18.503906 L 22.492188 18.335938 L 24.054688 18.335938 L 24.597656 18.433594 L 25.195312 18.832031 L 25.535156 19.425781 L 25.59375 19.296875 L 25.554688 18.582031 L 25.195312 17.957031 L 24.597656 17.558594 L 24.054688 17.460938 Z M 30.304688 17.460938 L 29.605469 17.625 L 29.054688 18.085938 L 28.765625 18.746094 L 28.804688 19.464844 L 28.824219 19.496094 L 29.054688 18.964844 L 29.605469 18.503906 L 30.304688 18.335938 L 33.429688 18.335938 L 33.972656 18.433594 L 34.570312 18.832031 L 34.914062 19.425781 L 34.96875 19.296875 L 34.929688 18.582031 L 34.570312 17.957031 L 33.972656 17.558594 L 33.429688 17.460938 Z M 39.679688 17.460938 L 38.980469 17.625 L 38.429688 18.085938 L 38.144531 18.746094 L 38.183594 19.464844 L 38.199219 19.496094 L 38.429688 18.964844 L 38.980469 18.503906 L 39.679688 18.335938 L 41.015625 18.335938 L 41.289062 18.359375 L 41.949219 18.648438 L 42.410156 19.199219 L 42.578125 19.898438 L 42.578125 19.023438 L 42.410156 18.324219 L 41.949219 17.769531 L 41.289062 17.484375 L 41.015625 17.460938 Z M 22.769531 25.296875 L 22.050781 25.335938 L 21.425781 25.695312 L 21.027344 26.292969 L 20.929688 26.835938 L 20.929688 27.710938 L 21.027344 27.167969 L 21.425781 26.570312 L 22.050781 26.214844 L 22.769531 26.175781 L 23.425781 26.460938 L 23.890625 27.011719 L 24.054688 27.710938 L 24.054688 26.835938 L 23.890625 26.136719 L 23.425781 25.585938 Z M 41.289062 25.527344 L 40.570312 25.566406 L 39.949219 25.921875 L 39.550781 26.523438 L 39.453125 27.066406 L 39.453125 27.941406 L 39.550781 27.398438 L 39.949219 26.800781 L 40.570312 26.441406 L 41.289062 26.402344 L 41.949219 26.691406 L 42.410156 27.242188 L 42.578125 27.941406 L 42.578125 27.066406 L 42.410156 26.363281 L 41.949219 25.8125 Z M 22.769531 34.671875 L 22.050781 34.714844 L 21.425781 35.070312 L 21.027344 35.667969 L 20.929688 36.210938 L 20.929688 37.089844 L 21.027344 36.546875 L 21.425781 35.945312 L 22.050781 35.589844 L 22.769531 35.550781 L 23.425781 35.835938 L 23.890625 36.386719 L 24 36.859375 L 24.285156 36.859375 L 24.828125 36.957031 L 25.425781 37.355469 L 25.765625 37.949219 L 25.820312 37.820312 L 25.78125 37.101562 L 25.425781 36.480469 L 24.828125 36.082031 L 24.285156 35.984375 L 24 35.984375 L 23.890625 35.511719 L 23.425781 34.960938 Z M 41.289062 34.902344 L 40.570312 34.941406 L 39.949219 35.300781 L 39.550781 35.898438 L 39.515625 36.074219 L 39.210938 36.148438 L 38.660156 36.609375 L 38.371094 37.269531 L 38.410156 37.988281 L 38.429688 38.015625 L 38.660156 37.484375 L 39.210938 37.023438 L 39.515625 36.953125 L 39.550781 36.773438 L 39.949219 36.175781 L 40.570312 35.820312 L 41.289062 35.78125 L 41.949219 36.066406 L 42.410156 36.617188 L 42.46875 36.859375 L 43.035156 36.859375 L 43.578125 36.957031 L 44.175781 37.355469 L 44.515625 37.949219 L 44.574219 37.820312 L 44.535156 37.101562 L 44.175781 36.480469 L 43.578125 36.082031 L 43.035156 35.984375 L 42.46875 35.984375 L 42.410156 35.742188 L 41.949219 35.1875 Z M 30.535156 35.984375 L 29.835938 36.148438 L 29.28125 36.609375 L 28.996094 37.269531 L 29.035156 37.988281 L 29.050781 38.015625 L 29.28125 37.484375 L 29.835938 37.023438 L 30.535156 36.859375 L 33.660156 36.859375 L 34.203125 36.957031 L 34.800781 37.355469 L 35.140625 37.949219 L 35.199219 37.820312 L 35.15625 37.101562 L 34.800781 36.480469 L 34.203125 36.082031 L 33.660156 35.984375 Z M 30.535156 35.984375 "/>
<path style=" stroke:none;fill-rule:nonzero;fill:rgb(0%,0%,0%);fill-opacity:0.235294;" d="M 28.96875 19.792969 L 28.765625 20.261719 L 28.804688 20.980469 L 29.164062 21.605469 L 29.761719 22.003906 L 30.304688 22.101562 L 33.429688 22.101562 L 34.128906 21.933594 L 34.683594 21.472656 L 34.96875 20.8125 L 34.929688 20.097656 L 34.765625 19.808594 L 34.683594 20 L 34.128906 20.460938 L 33.429688 20.628906 L 30.304688 20.628906 L 29.761719 20.53125 L 29.164062 20.132812 Z M 38.347656 19.792969 L 38.144531 20.261719 L 38.183594 20.980469 L 38.539062 21.605469 L 39.136719 22.003906 L 39.453125 22.058594 L 39.453125 22.332031 L 39.617188 23.03125 L 40.078125 23.582031 L 40.738281 23.867188 L 41.457031 23.828125 L 42.082031 23.472656 L 42.480469 22.875 L 42.578125 22.332031 L 42.578125 20.859375 L 42.480469 21.402344 L 42.082031 22 L 41.457031 22.355469 L 40.738281 22.394531 L 40.078125 22.109375 L 39.617188 21.558594 L 39.453125 20.859375 L 39.453125 20.585938 L 39.136719 20.53125 L 38.539062 20.132812 Z M 25.390625 19.808594 L 25.304688 20 L 24.753906 20.460938 L 24.054688 20.628906 L 23.957031 21.171875 L 23.558594 21.769531 L 22.933594 22.128906 L 22.214844 22.167969 L 21.554688 21.878906 L 21.09375 21.328125 L 20.929688 20.628906 L 20.929688 22.101562 L 21.09375 22.800781 L 21.554688 23.351562 L 22.214844 23.640625 L 22.933594 23.601562 L 23.558594 23.242188 L 23.957031 22.644531 L 24.054688 22.101562 L 24.753906 21.933594 L 25.304688 21.472656 L 25.59375 20.8125 L 25.554688 20.097656 Z M 20.929688 30.003906 L 20.929688 31.476562 L 21.09375 32.175781 L 21.554688 32.726562 L 22.214844 33.015625 L 22.933594 32.976562 L 23.558594 32.617188 L 23.957031 32.019531 L 24.054688 31.476562 L 24.054688 30.003906 L 23.957031 30.546875 L 23.558594 31.144531 L 22.933594 31.503906 L 22.214844 31.542969 L 21.554688 31.253906 L 21.09375 30.703125 Z M 39.453125 30.234375 L 39.453125 31.707031 L 39.617188 32.40625 L 40.078125 32.957031 L 40.738281 33.246094 L 41.457031 33.203125 L 42.082031 32.847656 L 42.480469 32.25 L 42.578125 31.707031 L 42.578125 30.234375 L 42.480469 30.777344 L 42.082031 31.375 L 41.457031 31.730469 L 40.738281 31.769531 L 40.078125 31.484375 L 39.617188 30.933594 Z M 20.941406 37.648438 L 20.929688 37.726562 L 20.929688 39.0625 L 21.09375 39.761719 L 21.554688 40.3125 L 22.214844 40.597656 L 22.492188 40.625 L 24.285156 40.625 L 24.984375 40.457031 L 25.535156 39.996094 L 25.820312 39.335938 L 25.78125 38.617188 L 25.617188 38.332031 L 25.535156 38.523438 L 24.984375 38.984375 L 24.285156 39.152344 L 22.492188 39.152344 L 22.214844 39.125 L 21.554688 38.839844 L 21.09375 38.289062 Z M 29.199219 38.316406 L 28.996094 38.785156 L 29.035156 39.503906 L 29.390625 40.128906 L 29.992188 40.527344 L 30.535156 40.625 L 33.660156 40.625 L 34.359375 40.457031 L 34.910156 39.996094 L 35.199219 39.335938 L 35.15625 38.617188 L 34.996094 38.332031 L 34.910156 38.523438 L 34.359375 38.984375 L 33.660156 39.152344 L 30.535156 39.152344 L 29.992188 39.054688 L 29.390625 38.65625 Z M 38.574219 38.316406 L 38.371094 38.785156 L 38.410156 39.503906 L 38.769531 40.128906 L 39.367188 40.527344 L 39.453125 40.542969 L 39.453125 41.082031 L 39.617188 41.78125 L 40.078125 42.332031 L 40.738281 42.621094 L 41.457031 42.582031 L 42.082031 42.222656 L 42.480469 41.625 L 42.578125 41.082031 L 42.578125 40.625 L 43.035156 40.625 L 43.734375 40.457031 L 44.285156 39.996094 L 44.574219 39.335938 L 44.535156 38.617188 L 44.371094 38.332031 L 44.285156 38.523438 L 43.734375 38.984375 L 43.035156 39.152344 L 42.578125 39.152344 L 42.578125 39.609375 L 42.480469 40.152344 L 42.082031 40.75 L 41.457031 41.109375 L 40.738281 41.148438 L 40.078125 40.859375 L 39.617188 40.308594 L 39.453125 39.609375 L 39.453125 39.070312 L 39.367188 39.054688 L 38.769531 38.65625 Z M 38.574219 38.316406 "/>
<path style="fill:none;stroke-width:3;stroke-linecap:round;stroke-linejoin:round;stroke:rgb(12.941177%,12.941177%,12.941177%);stroke-opacity:1;stroke-miterlimit:4;" d="M 174.327103 -74.013464 C 171.327389 -71.919913 168.890122 -69.451399 167.952711 -65.826745 C 166.859066 -60.639741 167.5465 -55.109019 167.5465 -49.797026 C 167.983958 -45.797408 169.95252 -41.954025 173.420939 -39.891722 C 177.483051 -37.423208 182.920032 -37.329467 186.763415 -40.235439 C 190.231834 -42.235248 192.106655 -46.391101 192.419125 -50.328225 C 196.012532 -50.859425 199.324715 -51.984317 201.761983 -54.796549 C 204.574214 -58.046238 205.324143 -62.764538 204.136756 -66.857897 C 202.355676 -71.232479 198.387305 -74.732145 193.544017 -75.138356 C 187.169626 -75.357085 180.482765 -76.013273 174.327103 -74.013464 Z M 236.821135 -74.013464 C 233.852668 -71.919913 231.384154 -69.451399 230.446743 -65.826745 C 229.415592 -61.670892 230.821708 -57.108828 233.72768 -53.984126 C 237.977274 -49.890767 244.007948 -50.203237 249.476176 -50.328225 C 257.319177 -50.734437 265.412154 -49.265827 273.005179 -51.671847 C 276.004893 -53.73415 278.44216 -56.233911 279.379571 -59.827318 C 280.410722 -64.014418 279.004606 -68.545236 276.098634 -71.669937 C 271.84904 -75.763296 265.849613 -75.482073 260.350138 -75.325838 C 252.507137 -74.919627 244.41416 -76.419484 236.821135 -74.013464 Z M 311.813973 -74.013464 C 308.845507 -71.919913 306.376992 -69.451399 305.470829 -65.826745 C 304.40843 -61.670892 305.845793 -57.108828 308.720519 -53.984126 C 310.59534 -51.203142 316.188556 -52.046811 315.594862 -48.484651 C 316.126061 -44.891245 317.219707 -41.610308 320.031938 -39.141794 C 323.312875 -36.360809 327.999928 -35.579634 332.093287 -36.76702 C 336.499116 -38.5481 339.998782 -42.547718 340.373746 -47.359759 C 340.623722 -53.015469 340.936192 -58.827414 340.217511 -64.42063 C 339.748806 -69.201423 336.186646 -73.294782 331.593334 -74.57591 C 326.906282 -76.075767 321.719277 -75.138356 316.87599 -75.20085 C 315.188651 -74.794639 313.501312 -74.419675 311.813973 -74.013464 Z M 176.389406 -12.331854 C 173.077222 -10.80075 170.233743 -8.800941 168.671393 -5.395016 C 166.265372 1.166857 167.890217 8.509906 167.421512 15.415496 C 167.515253 21.633653 166.359113 29.039195 171.514871 33.60126 C 174.327103 36.475985 178.670438 37.413396 182.607562 36.694714 C 186.794662 35.757304 190.16934 32.44512 191.731691 28.476749 C 193.2003 19.696338 192.044161 10.697197 192.419125 1.854291 C 192.57536 -2.676526 191.013009 -7.051108 187.607084 -10.113316 C 184.138666 -12.456842 180.482765 -12.988041 176.389406 -12.331854 Z M 324.531509 -10.48828 C 321.250572 -8.957176 318.407094 -6.957367 316.844743 -3.551442 C 314.438723 3.010431 316.063567 10.35348 315.594862 17.25907 C 315.688603 23.44598 314.532464 30.882769 319.688221 35.444834 C 322.500453 38.319559 326.843788 39.25697 330.749665 38.538288 C 334.968012 37.600878 338.34269 34.288694 339.905041 30.320323 C 341.37365 21.539912 340.217511 12.540771 340.592475 3.666618 C 340.74871 -0.832952 339.186359 -5.238781 335.780435 -8.269742 C 332.312016 -10.613268 328.656115 -11.175714 324.531509 -10.48828 Z M 176.389406 62.692232 C 173.077222 64.192088 170.233743 66.223145 168.671393 69.597822 C 166.60909 74.659839 167.577747 80.503031 167.5465 85.877518 C 167.983958 89.845889 169.95252 93.720519 173.420939 95.782822 C 179.545354 99.344982 186.794662 97.313926 193.51277 97.845125 C 197.793612 97.626396 201.918218 95.814069 204.480473 92.314403 C 206.511529 88.845984 207.261458 84.565143 205.699107 80.846748 C 203.605557 75.37852 197.699871 72.34756 191.981667 72.847512 C 191.512961 68.129213 187.888308 64.192088 183.419984 62.910961 C 181.295187 61.786068 178.670438 62.81722 176.389406 62.692232 Z M 324.531509 64.504559 C 321.250572 66.035662 318.407094 68.035471 316.844743 71.441396 C 316.094814 74.691086 311.813973 74.347369 309.907905 77.284588 C 307.095674 80.565525 306.345745 85.252577 307.533132 89.345936 C 309.001742 93.033084 311.876467 95.845316 315.594862 97.188937 C 315.344886 102.125966 316.094814 107.469206 320.031938 110.843883 C 323.312875 113.656115 327.999928 114.406043 332.093287 113.218657 C 336.499116 111.437577 339.998782 107.469206 340.373746 102.625918 C 339.967535 98.501312 341.092427 97.15769 345.310774 97.595149 C 350.029074 97.126443 354.434903 93.970495 355.778525 89.314689 C 357.340876 85.658789 356.465959 81.190465 354.091186 78.034517 C 351.028978 73.503699 345.092045 72.410054 339.905041 72.847512 C 338.717654 69.285352 335.561705 65.754439 331.593334 64.754535 C 329.468537 63.629642 326.843788 64.660794 324.531509 64.504559 Z M 238.664709 74.159887 C 235.664995 76.253437 233.227728 78.721951 232.290317 82.346605 C 231.259166 86.502458 232.665282 91.064522 235.571254 94.157977 C 239.820848 98.282583 245.820275 97.970113 251.31975 97.845125 C 259.162751 97.438914 267.224481 98.907523 274.848753 96.501503 C 277.81722 94.4392 280.285734 91.939439 281.223145 88.314785 C 282.254296 84.158932 280.84818 79.628114 277.942208 76.503413 C 273.692614 72.378807 267.66194 72.691277 262.193712 72.847512 C 254.350711 73.253723 246.257734 71.753866 238.664709 74.159887 Z M 238.664709 74.159887 " transform="matrix(0.125012,0,0,0.125012,0,26.877566)"/>
</g>
</svg>
