<?xml version="1.0" encoding="UTF-8"?>
<svg xmlns="http://www.w3.org/2000/svg" xmlns:xlink="http://www.w3.org/1999/xlink" width="64pt" height="64pt" viewBox="0 0 64 64" version="1.1">
<defs>
<radialGradient id="radial0" gradientUnits="userSpaceOnUse" cx="450.908936" cy="189.579361" fx="450.908936" fy="189.579361" r="21.166656" gradientTransform="matrix(0.000000348341,-0.156265,-0.281277,-0.000000203077,102.938256,127.190661)">
<stop offset="0" style="stop-color:rgb(0%,0%,0%);stop-opacity:0.313725;"/>
<stop offset="0.222222" style="stop-color:rgb(0%,0%,0%);stop-opacity:0.27451;"/>
<stop offset="1" style="stop-color:rgb(0%,0%,0%);stop-opacity:0;"/>
</radialGradient>
<radialGradient id="radial1" gradientUnits="userSpaceOnUse" cx="450.908936" cy="189.579361" fx="450.908936" fy="189.579361" r="21.166656" gradientTransform="matrix(-0.000000348341,0.156265,0.281277,0.000000203077,-39.432179,-15.054962)">
<stop offset="0" style="stop-color:rgb(0%,0%,0%);stop-opacity:0.313725;"/>
<stop offset="0.222222" style="stop-color:rgb(0%,0%,0%);stop-opacity:0.27451;"/>
<stop offset="1" style="stop-color:rgb(0%,0%,0%);stop-opacity:0;"/>
</radialGradient>
<radialGradient id="radial2" gradientUnits="userSpaceOnUse" cx="450.908936" cy="189.579361" fx="450.908936" fy="189.579361" r="21.166656" gradientTransform="matrix(-0.000000348341,-0.156265,0.281277,-0.000000203077,-39.432179,127.190661)">
<stop offset="0" style="stop-color:rgb(0%,0%,0%);stop-opacity:0.313725;"/>
<stop offset="0.222222" style="stop-color:rgb(0%,0%,0%);stop-opacity:0.27451;"/>
<stop offset="1" style="stop-color:rgb(0%,0%,0%);stop-opacity:0;"/>
</radialGradient>
<radialGradient id="radial3" gradientUnits="userSpaceOnUse" cx="450.908936" cy="189.579361" fx="450.908936" fy="189.579361" r="21.166656" gradientTransform="matrix(0.000000348341,0.156265,-0.281277,0.000000203077,102.938252,-15.054963)">
<stop offset="0" style="stop-color:rgb(0%,0%,0%);stop-opacity:0.313725;"/>
<stop offset="0.222222" style="stop-color:rgb(0%,0%,0%);stop-opacity:0.27451;"/>
<stop offset="1" style="stop-color:rgb(0%,0%,0%);stop-opacity:0;"/>
</radialGradient>
<linearGradient id="linear0" gradientUnits="userSpaceOnUse" x1="255.322968" y1="228.178589" x2="255.323044" y2="254.666656" gradientTransform="matrix(0.534402,0,0,0.0998973,-99.399819,33.273418)">
<stop offset="0" style="stop-color:rgb(0%,0%,0%);stop-opacity:0.27451;"/>
<stop offset="1" style="stop-color:rgb(0%,0%,0%);stop-opacity:0;"/>
</linearGradient>
<linearGradient id="linear1" gradientUnits="userSpaceOnUse" x1="328.083344" y1="233.5" x2="328.083344" y2="-168.666672" gradientTransform="matrix(0.125012,0,0,0.125012,0,26.877566)">
<stop offset="0" style="stop-color:rgb(87.843137%,87.843137%,87.843137%);stop-opacity:1;"/>
<stop offset="1" style="stop-color:rgb(93.333333%,93.333333%,93.333333%);stop-opacity:1;"/>
</linearGradient>
<linearGradient id="linear2" gradientUnits="userSpaceOnUse" x1="275.166656" y1="233.5" x2="275.166656" y2="-168.666656" >
<stop offset="0" style="stop-color:rgb(14.901961%,65.098039%,60.392157%);stop-opacity:1;"/>
<stop offset="1" style="stop-color:rgb(30.196078%,71.372549%,67.45098%);stop-opacity:1;"/>
</linearGradient>
<linearGradient id="linear3" gradientUnits="userSpaceOnUse" x1="275.166656" y1="233.5" x2="275.166656" y2="-168.666656" gradientTransform="matrix(1,0,0,1,116.416679,0)">
<stop offset="0" style="stop-color:rgb(14.901961%,65.098039%,60.392157%);stop-opacity:1;"/>
<stop offset="1" style="stop-color:rgb(30.196078%,71.372549%,67.45098%);stop-opacity:1;"/>
</linearGradient>
<linearGradient id="linear4" gradientUnits="userSpaceOnUse" x1="275.166656" y1="233.5" x2="275.166656" y2="-168.666656" gradientTransform="matrix(1,0,0,1,0,-95.250008)">
<stop offset="0" style="stop-color:rgb(14.901961%,65.098039%,60.392157%);stop-opacity:1;"/>
<stop offset="1" style="stop-color:rgb(30.196078%,71.372549%,67.45098%);stop-opacity:1;"/>
</linearGradient>
<linearGradient id="linear5" gradientUnits="userSpaceOnUse" x1="275.166656" y1="233.5" x2="275.166656" y2="-168.666656" gradientTransform="matrix(1,0,0,1,116.416679,-95.250008)">
<stop offset="0" style="stop-color:rgb(14.901961%,65.098039%,60.392157%);stop-opacity:1;"/>
<stop offset="1" style="stop-color:rgb(30.196078%,71.372549%,67.45098%);stop-opacity:1;"/>
</linearGradient>
<linearGradient id="linear6" gradientUnits="userSpaceOnUse" x1="275.166656" y1="233.5" x2="275.166656" y2="-168.666656" gradientTransform="matrix(1,0,0,1,0,-190.500015)">
<stop offset="0" style="stop-color:rgb(14.901961%,65.098039%,60.392157%);stop-opacity:1;"/>
<stop offset="1" style="stop-color:rgb(30.196078%,71.372549%,67.45098%);stop-opacity:1;"/>
</linearGradient>
<linearGradient id="linear7" gradientUnits="userSpaceOnUse" x1="275.166656" y1="233.5" x2="275.166656" y2="-168.666656" gradientTransform="matrix(1,0,0,1,116.416679,-190.500015)">
<stop offset="0" style="stop-color:rgb(14.901961%,65.098039%,60.392157%);stop-opacity:1;"/>
<stop offset="1" style="stop-color:rgb(30.196078%,71.372549%,67.45098%);stop-opacity:1;"/>
</linearGradient>
<linearGradient id="linear8" gradientUnits="userSpaceOnUse" x1="127" y1="233.5" x2="127" y2="-168.666656" gradientTransform="matrix(0.125012,0,0,0.125012,-0.000000416706,26.877566)">
<stop offset="0" style="stop-color:rgb(14.901961%,65.098039%,60.392157%);stop-opacity:1;"/>
<stop offset="1" style="stop-color:rgb(30.196078%,71.372549%,67.45098%);stop-opacity:1;"/>
</linearGradient>
</defs>
<g id="surface1">
<path style=" stroke:none;fill-rule:nonzero;fill:url(#radial0);" d="M 50.277344 56.066406 L 55.566406 56.066406 L 55.566406 53.421875 L 50.277344 53.421875 Z M 50.277344 56.066406 "/>
<path style=" stroke:none;fill-rule:nonzero;fill:url(#radial1);" d="M 13.230469 56.066406 L 7.9375 56.066406 L 7.9375 58.714844 L 13.230469 58.714844 Z M 13.230469 56.066406 "/>
<path style=" stroke:none;fill-rule:nonzero;fill:url(#radial2);" d="M 13.230469 56.066406 L 7.9375 56.066406 L 7.9375 53.421875 L 13.230469 53.421875 Z M 13.230469 56.066406 "/>
<path style=" stroke:none;fill-rule:nonzero;fill:url(#radial3);" d="M 50.277344 56.066406 L 55.566406 56.066406 L 55.566406 58.714844 L 50.277344 58.714844 Z M 50.277344 56.066406 "/>
<path style=" stroke:none;fill-rule:nonzero;fill:url(#linear0);" d="M 13.230469 55.011719 L 50.277344 55.011719 L 50.277344 58.714844 L 13.230469 58.714844 Z M 13.230469 55.011719 "/>
<path style=" stroke:none;fill-rule:nonzero;fill:url(#linear1);" d="M 22.492188 5.792969 L 52.921875 5.792969 C 54.382812 5.792969 55.566406 6.976562 55.566406 8.4375 L 55.566406 53.421875 C 55.566406 54.882812 54.382812 56.066406 52.921875 56.066406 L 22.492188 56.066406 C 21.03125 56.066406 19.84375 54.882812 19.84375 53.421875 L 19.84375 8.4375 C 19.84375 6.976562 21.03125 5.792969 22.492188 5.792969 Z M 22.492188 5.792969 "/>
<path style=" stroke:none;fill-rule:nonzero;fill:rgb(13.333334%,13.333334%,13.333334%);fill-opacity:0.156863;" d="M 55.503906 32.253906 L 45.507812 35.734375 L 48.988281 45.730469 L 55.503906 43.460938 Z M 43.84375 36.316406 L 33.847656 39.796875 L 37.328125 49.792969 L 47.324219 46.308594 Z M 55.503906 45.328125 L 49.570312 47.394531 L 52.589844 56.066406 L 52.855469 56.066406 C 54.324219 56.066406 55.503906 54.886719 55.503906 53.421875 Z M 47.90625 47.976562 L 37.910156 51.457031 L 39.515625 56.066406 L 50.722656 56.066406 Z M 47.90625 47.976562 "/>
<path style="fill-rule:nonzero;fill:url(#linear2);stroke-width:3;stroke-linecap:round;stroke-linejoin:round;stroke:rgb(12.941177%,12.941177%,12.941177%);stroke-opacity:1;stroke-miterlimit:4;" d="M 243.404847 -105.166739 L 296.337292 -105.166739 C 302.180484 -105.166739 306.93003 -100.417192 306.93003 -94.574 L 306.93003 -62.827032 C 306.93003 -56.98384 302.180484 -52.26554 296.337292 -52.26554 L 243.404847 -52.26554 C 237.561655 -52.26554 232.843355 -56.98384 232.843355 -62.827032 L 232.843355 -94.574 C 232.843355 -100.417192 237.561655 -105.166739 243.404847 -105.166739 Z M 243.404847 -105.166739 " transform="matrix(0.125012,0,0,0.125012,-1.323043,26.877566)"/>
<path style="fill-rule:nonzero;fill:url(#linear3);stroke-width:3;stroke-linecap:round;stroke-linejoin:round;stroke:rgb(12.941177%,12.941177%,12.941177%);stroke-opacity:1;stroke-miterlimit:4;" d="M 359.831229 -105.166739 L 412.763674 -105.166739 C 418.606866 -105.166739 423.325165 -100.417192 423.325165 -94.574 L 423.325165 -62.827032 C 423.325165 -56.98384 418.606866 -52.26554 412.763674 -52.26554 L 359.831229 -52.26554 C 353.988037 -52.26554 349.23849 -56.98384 349.23849 -62.827032 L 349.23849 -94.574 C 349.23849 -100.417192 353.988037 -105.166739 359.831229 -105.166739 Z M 359.831229 -105.166739 " transform="matrix(0.125012,0,0,0.125012,-1.323043,26.877566)"/>
<path style="fill-rule:nonzero;fill:url(#linear4);stroke-width:3;stroke-linecap:round;stroke-linejoin:round;stroke:rgb(12.941177%,12.941177%,12.941177%);stroke-opacity:1;stroke-miterlimit:4;" d="M 243.404847 -105.153989 L 296.337292 -105.153989 C 302.180484 -105.153989 306.93003 -100.43569 306.93003 -94.592498 L 306.93003 -62.845529 C 306.93003 -57.002337 302.180484 -52.252791 296.337292 -52.252791 L 243.404847 -52.252791 C 237.561655 -52.252791 232.843355 -57.002337 232.843355 -62.845529 L 232.843355 -94.592498 C 232.843355 -100.43569 237.561655 -105.153989 243.404847 -105.153989 Z M 243.404847 -105.153989 " transform="matrix(0.125012,0,0,0.125012,-1.323043,37.46191)"/>
<path style="fill-rule:nonzero;fill:url(#linear5);stroke-width:3;stroke-linecap:round;stroke-linejoin:round;stroke:rgb(12.941177%,12.941177%,12.941177%);stroke-opacity:1;stroke-miterlimit:4;" d="M 359.831229 -105.153989 L 412.763674 -105.153989 C 418.606866 -105.153989 423.325165 -100.43569 423.325165 -94.592498 L 423.325165 -62.845529 C 423.325165 -57.002337 418.606866 -52.252791 412.763674 -52.252791 L 359.831229 -52.252791 C 353.988037 -52.252791 349.23849 -57.002337 349.23849 -62.845529 L 349.23849 -94.592498 C 349.23849 -100.43569 353.988037 -105.153989 359.831229 -105.153989 Z M 359.831229 -105.153989 " transform="matrix(0.125012,0,0,0.125012,-1.323043,37.46191)"/>
<path style="fill-rule:nonzero;fill:url(#linear6);stroke-width:3;stroke-linecap:round;stroke-linejoin:round;stroke:rgb(12.941177%,12.941177%,12.941177%);stroke-opacity:1;stroke-miterlimit:4;" d="M 243.404847 -105.172502 L 296.337292 -105.172502 C 302.180484 -105.172502 306.93003 -100.422956 306.93003 -94.579764 L 306.93003 -62.832795 C 306.93003 -56.989603 302.180484 -52.240057 296.337292 -52.240057 L 243.404847 -52.240057 C 237.561655 -52.240057 232.843355 -56.989603 232.843355 -62.832795 L 232.843355 -94.579764 C 232.843355 -100.422956 237.561655 -105.172502 243.404847 -105.172502 Z M 243.404847 -105.172502 " transform="matrix(0.125012,0,0,0.125012,-1.323043,48.046256)"/>
<path style="fill-rule:nonzero;fill:url(#linear7);stroke-width:3;stroke-linecap:round;stroke-linejoin:round;stroke:rgb(12.941177%,12.941177%,12.941177%);stroke-opacity:1;stroke-miterlimit:4;" d="M 359.831229 -105.172502 L 412.763674 -105.172502 C 418.606866 -105.172502 423.325165 -100.422956 423.325165 -94.579764 L 423.325165 -62.832795 C 423.325165 -56.989603 418.606866 -52.240057 412.763674 -52.240057 L 359.831229 -52.240057 C 353.988037 -52.240057 349.23849 -56.989603 349.23849 -62.832795 L 349.23849 -94.579764 C 349.23849 -100.422956 353.988037 -105.172502 359.831229 -105.172502 Z M 359.831229 -105.172502 " transform="matrix(0.125012,0,0,0.125012,-1.323043,48.046256)"/>
<path style=" stroke:none;fill-rule:nonzero;fill:rgb(100%,100%,100%);fill-opacity:1;" d="M 22.492188 5.792969 C 21.027344 5.792969 19.84375 6.972656 19.84375 8.4375 L 19.84375 9.101562 C 19.84375 7.632812 21.027344 6.453125 22.492188 6.453125 L 52.921875 6.453125 C 54.386719 6.453125 55.566406 7.632812 55.566406 9.101562 L 55.566406 8.4375 C 55.566406 6.972656 54.386719 5.792969 52.921875 5.792969 Z M 22.492188 5.792969 "/>
<path style=" stroke:none;fill-rule:nonzero;fill:rgb(0%,0%,0%);fill-opacity:0.235294;" d="M 19.84375 52.761719 L 19.84375 53.421875 C 19.84375 54.886719 21.027344 56.066406 22.492188 56.066406 L 52.921875 56.066406 C 54.386719 56.066406 55.566406 54.886719 55.566406 53.421875 L 55.566406 52.761719 C 55.566406 54.226562 54.386719 55.40625 52.921875 55.40625 L 22.492188 55.40625 C 21.027344 55.40625 19.84375 54.226562 19.84375 52.761719 Z M 19.84375 52.761719 "/>
<path style=" stroke:none;fill-rule:nonzero;fill:rgb(12.941177%,12.941177%,12.941177%);fill-opacity:1;" d="M 22.492188 5.605469 C 20.925781 5.605469 19.65625 6.871094 19.65625 8.4375 L 19.65625 53.421875 C 19.65625 54.988281 20.925781 56.253906 22.492188 56.253906 L 52.921875 56.253906 C 54.488281 56.253906 55.753906 54.988281 55.753906 53.421875 L 55.753906 8.4375 C 55.753906 6.871094 54.488281 5.605469 52.921875 5.605469 Z M 22.492188 5.980469 L 52.921875 5.980469 C 54.285156 5.980469 55.378906 7.074219 55.378906 8.4375 L 55.378906 53.421875 C 55.378906 54.789062 54.285156 55.878906 52.921875 55.878906 L 22.492188 55.878906 C 21.125 55.878906 20.03125 54.789062 20.03125 53.421875 L 20.03125 8.4375 C 20.03125 7.074219 21.125 5.980469 22.492188 5.980469 Z M 22.492188 5.980469 "/>
<path style=" stroke:none;fill-rule:nonzero;fill:url(#linear8);" d="M 10.585938 5.792969 C 9.117188 5.792969 7.9375 6.972656 7.9375 8.4375 L 7.9375 53.421875 C 7.9375 54.886719 9.117188 56.066406 10.585938 56.066406 L 23.816406 56.066406 L 23.816406 5.792969 Z M 10.585938 5.792969 "/>
<path style=" stroke:none;fill-rule:nonzero;fill:rgb(100%,100%,100%);fill-opacity:0.392157;" d="M 10.585938 5.792969 C 9.117188 5.792969 7.9375 6.972656 7.9375 8.4375 L 7.9375 9.101562 C 7.9375 7.632812 9.117188 6.453125 10.585938 6.453125 L 23.152344 6.453125 L 23.152344 56.066406 L 23.816406 56.066406 L 23.816406 5.792969 Z M 10.585938 5.792969 "/>
<path style=" stroke:none;fill-rule:nonzero;fill:rgb(0%,0%,0%);fill-opacity:0.235294;" d="M 7.9375 52.761719 L 7.9375 53.421875 C 7.9375 54.886719 9.117188 56.066406 10.585938 56.066406 L 23.816406 56.066406 L 23.816406 55.40625 L 10.585938 55.40625 C 9.117188 55.40625 7.9375 54.226562 7.9375 52.761719 Z M 7.9375 52.761719 "/>
<path style=" stroke:none;fill-rule:nonzero;fill:rgb(12.941177%,12.941177%,12.941177%);fill-opacity:1;" d="M 10.585938 5.605469 C 9.019531 5.605469 7.75 6.871094 7.75 8.4375 L 7.75 53.421875 C 7.75 54.988281 9.019531 56.253906 10.585938 56.253906 L 23.816406 56.253906 C 23.917969 56.253906 24.003906 56.171875 24.003906 56.066406 L 24.003906 5.792969 C 24.003906 5.6875 23.917969 5.605469 23.816406 5.605469 Z M 10.585938 5.980469 L 23.628906 5.980469 L 23.628906 55.878906 L 10.585938 55.878906 C 9.21875 55.878906 8.125 54.789062 8.125 53.421875 L 8.125 8.4375 C 8.125 7.074219 9.21875 5.980469 10.585938 5.980469 Z M 10.585938 5.980469 "/>
</g>
</svg>
