<svg height="64pt" viewBox="0 0 64 64" width="64pt" xmlns="http://www.w3.org/2000/svg" xmlns:xlink="http://www.w3.org/1999/xlink"><linearGradient id="a"><stop offset="0" stop-opacity=".313726"/><stop offset=".222222" stop-opacity=".27451"/><stop offset="1" stop-opacity="0"/></linearGradient><radialGradient id="b" cx="450.908936" cy="189.579361" gradientTransform="matrix(.00000035 -.156265 -.281277 -.0000002 102.938256 127.190661)" gradientUnits="userSpaceOnUse" r="21.166656" xlink:href="#a"/><radialGradient id="c" cx="450.908936" cy="189.579361" gradientTransform="matrix(-.00000035 .156265 .281277 .0000002 -39.432179 -15.054962)" gradientUnits="userSpaceOnUse" r="21.166656" xlink:href="#a"/><radialGradient id="d" cx="450.908936" cy="189.579361" gradientTransform="matrix(-.00000035 -.156265 .281277 -.0000002 -39.432179 127.190661)" gradientUnits="userSpaceOnUse" r="21.166656" xlink:href="#a"/><radialGradient id="e" cx="450.908936" cy="189.579361" gradientTransform="matrix(.00000035 .156265 -.281277 .0000002 102.938252 -15.054963)" gradientUnits="userSpaceOnUse" r="21.166656" xlink:href="#a"/><linearGradient id="f" gradientTransform="matrix(.534402 0 0 .0998973 -99.399819 33.273418)" gradientUnits="userSpaceOnUse" x1="255.322968" x2="255.323044" y1="228.178589" y2="254.666656"><stop offset="0" stop-opacity=".27451"/><stop offset="1" stop-opacity="0"/></linearGradient><linearGradient id="g" gradientUnits="userSpaceOnUse" x1="41.01435500013" x2="41.01435500013" y1="56.067868" y2="5.79220799994"><stop offset="0" stop-color="#e0e0e0"/><stop offset="1" stop-color="#eee"/></linearGradient><linearGradient id="h"><stop offset="0" stop-color="#616161"/><stop offset="1" stop-color="#757575"/></linearGradient><linearGradient id="i" gradientUnits="userSpaceOnUse" x1="264.58333" x2="264.58333" xlink:href="#h" y1="233.500007" y2="-168.666664"/><linearGradient id="j" gradientUnits="userSpaceOnUse" x1="15.876524" x2="15.876524" xlink:href="#h" y1="56.067868" y2="5.79221000013"/><linearGradient id="k" gradientUnits="userSpaceOnUse" x1="47.629572" x2="47.629572" y1="24.976341875" y2="33.57612549998"><stop offset="0" stop-color="#e0e0e0"/><stop offset="1" stop-color="#bdbdbd"/></linearGradient><path d="m50.277344 56.066406h5.289062v-2.644531h-5.289062zm0 0" fill="url(#b)"/><path d="m13.230469 56.066406h-5.292969v2.648438h5.292969zm0 0" fill="url(#c)"/><path d="m13.230469 56.066406h-5.292969v-2.644531h5.292969zm0 0" fill="url(#d)"/><path d="m50.277344 56.066406h5.289062v2.648438h-5.289062zm0 0" fill="url(#e)"/><path d="m13.230469 55.011719h37.046875v3.703125h-37.046875zm0 0" fill="url(#f)"/><path d="m22.492188 5.792969h30.429687c1.460937 0 2.644531 1.183593 2.644531 2.644531v44.984375c0 1.460937-1.183594 2.644531-2.644531 2.644531h-30.429687c-1.460938 0-2.648438-1.183594-2.648438-2.644531v-44.984375c0-1.460938 1.1875-2.644531 2.648438-2.644531zm0 0" fill="url(#g)"/><path d="m55.566406 32.253906-9.992187 3.480469 3.480469 9.996094 6.511718-2.269531zm-11.660156 4.0625-9.996094 3.480469 3.484375 9.996094 9.992188-3.484375zm11.660156 9.011719-5.933594 2.066406 3.023438 8.671875h.265625c1.464844 0 2.644531-1.179687 2.644531-2.644531zm-7.597656 2.648437-9.996094 3.480469 1.605469 4.609375h11.210937zm0 0" fill="#222" fill-opacity=".156863"/><path d="m232.821517-105.166739h169.358827c5.843192 0 10.561491 4.749547 10.561491 10.592739v222.228778c0 5.843192-4.718299 10.592739-10.561491 10.592739h-169.358827c-5.843192 0-10.561492-4.749547-10.561492-10.592739v-222.228778c0-5.843192 4.7183-10.592739 10.561492-10.592739zm0 0" fill="url(#i)" stroke="#212121" stroke-linecap="round" stroke-linejoin="round" stroke-width="3" transform="matrix(.125012 0 0 .125012 0 26.877566)"/><path d="m22.492188 5.792969c-1.464844 0-2.648438 1.179687-2.648438 2.644531v.664062c0-1.46875 1.183594-2.648437 2.648438-2.648437h30.429687c1.464844 0 2.644531 1.179687 2.644531 2.648437v-.664062c0-1.464844-1.179687-2.644531-2.644531-2.644531zm0 0" fill="#fff"/><path d="m19.84375 52.761719v.660156c0 1.464844 1.183594 2.644531 2.648438 2.644531h30.429687c1.464844 0 2.644531-1.179687 2.644531-2.644531v-.660156c0 1.464843-1.179687 2.644531-2.644531 2.644531h-30.429687c-1.464844 0-2.648438-1.179688-2.648438-2.644531zm0 0" fill-opacity=".235294"/><path d="m22.492188 5.605469c-1.566407 0-2.835938 1.265625-2.835938 2.832031v44.984375c0 1.566406 1.269531 2.832031 2.835938 2.832031h30.429687c1.566406 0 2.832031-1.265625 2.832031-2.832031v-44.984375c0-1.566406-1.265625-2.832031-2.832031-2.832031zm0 .375h30.429687c1.363281 0 2.457031 1.09375 2.457031 2.457031v44.984375c0 1.367187-1.09375 2.457031-2.457031 2.457031h-30.429687c-1.367188 0-2.460938-1.089844-2.460938-2.457031v-44.984375c0-1.363281 1.09375-2.457031 2.460938-2.457031zm0 0" fill="#212121"/><path d="m10.585938 5.792969c-1.46875 0-2.648438 1.179687-2.648438 2.644531v44.984375c0 1.464844 1.179688 2.644531 2.648438 2.644531h13.230468v-50.273437zm0 0" fill="url(#j)"/><path d="m10.585938 5.792969c-1.46875 0-2.648438 1.179687-2.648438 2.644531v.664062c0-1.46875 1.179688-2.648437 2.648438-2.648437h12.566406v49.613281h.664062v-50.273437zm0 0" fill="#fff" fill-opacity=".392157"/><path d="m7.9375 52.761719v.660156c0 1.464844 1.179688 2.644531 2.648438 2.644531h13.230468v-.660156h-13.230468c-1.46875 0-2.648438-1.179688-2.648438-2.644531zm0 0" fill-opacity=".235294"/><path d="m10.585938 5.605469c-1.566407 0-2.835938 1.265625-2.835938 2.832031v44.984375c0 1.566406 1.269531 2.832031 2.835938 2.832031h13.230468c.101563 0 .1875-.082031.1875-.1875v-50.273437c0-.105469-.085937-.1875-.1875-.1875zm0 .375h13.042968v49.898437h-13.042968c-1.367188 0-2.460938-1.089844-2.460938-2.457031v-44.984375c0-1.363281 1.09375-2.457031 2.460938-2.457031zm0 0" fill="#212121"/><path d="m47.960938 24.976562c.546874 0 .992187.445313.992187.992188v6.613281c0 .550781-.445313.992188-.992187.992188-.546876 0-.992188-.441407-.992188-.992188v-6.613281c0-.546875.445312-.992188.992188-.992188zm0 0" fill="url(#k)"/><path d="m47.960938 24.976562c-.550782 0-.992188.441407-.992188.992188v.660156c0-.546875.441406-.992187.992188-.992187.550781 0 .992187.445312.992187.992187v-.660156c0-.550781-.441406-.992188-.992187-.992188zm0 0" fill="#fff" fill-opacity=".392157"/><path d="m46.96875 32.582031v.992188c0 .550781.441406.996093.992188.996093.550781 0 .992187-.445312.992187-.996093v-.992188c0 .550781-.441406.992188-.992187.992188-.550782 0-.992188-.441407-.992188-.992188zm0 0" fill-opacity=".235294"/><path d="m383.650863-15.206579c4.374582 0 7.936742 3.56216 7.936742 7.936742v52.901198c0 4.405829-3.56216 7.936742-7.936742 7.936742s-7.936742-3.530913-7.936742-7.936742v-52.901198c0-4.374582 3.56216-7.936742 7.936742-7.936742zm0 0" fill="none" stroke="#212121" stroke-linecap="round" stroke-linejoin="round" stroke-width="3" transform="matrix(.125012 0 0 .125012 0 26.877566)"/></svg>