<?xml version="1.0" encoding="UTF-8"?>
<svg xmlns="http://www.w3.org/2000/svg" xmlns:xlink="http://www.w3.org/1999/xlink" width="64pt" height="64pt" viewBox="0 0 64 64" version="1.1">
<defs>
<linearGradient id="linear0" gradientUnits="userSpaceOnUse" x1="254" y1="233.5" x2="254" y2="254.666672" gradientTransform="matrix(0.125012,0,0,0.125012,-0.00000763012,26.87757)">
<stop offset="0" style="stop-color:rgb(0%,0%,0%);stop-opacity:0.27451;"/>
<stop offset="1" style="stop-color:rgb(0%,0%,0%);stop-opacity:0;"/>
</linearGradient>
<radialGradient id="radial0" gradientUnits="userSpaceOnUse" cx="450.908936" cy="189.579361" fx="450.908936" fy="189.579361" r="21.166656" gradientTransform="matrix(0.000000348341,-0.156265,-0.281277,-0.000000203077,106.24586,127.190665)">
<stop offset="0" style="stop-color:rgb(0%,0%,0%);stop-opacity:0.313725;"/>
<stop offset="0.222222" style="stop-color:rgb(0%,0%,0%);stop-opacity:0.27451;"/>
<stop offset="1" style="stop-color:rgb(0%,0%,0%);stop-opacity:0;"/>
</radialGradient>
<radialGradient id="radial1" gradientUnits="userSpaceOnUse" cx="450.908936" cy="189.579361" fx="450.908936" fy="189.579361" r="21.166656" gradientTransform="matrix(-0.000000348341,0.156265,0.281277,0.000000203077,-42.409041,-15.054958)">
<stop offset="0" style="stop-color:rgb(0%,0%,0%);stop-opacity:0.313725;"/>
<stop offset="0.222222" style="stop-color:rgb(0%,0%,0%);stop-opacity:0.27451;"/>
<stop offset="1" style="stop-color:rgb(0%,0%,0%);stop-opacity:0;"/>
</radialGradient>
<radialGradient id="radial2" gradientUnits="userSpaceOnUse" cx="450.908936" cy="189.579361" fx="450.908936" fy="189.579361" r="21.166656" gradientTransform="matrix(-0.000000348341,-0.156265,0.281277,-0.000000203077,-42.409041,127.190665)">
<stop offset="0" style="stop-color:rgb(0%,0%,0%);stop-opacity:0.313725;"/>
<stop offset="0.222222" style="stop-color:rgb(0%,0%,0%);stop-opacity:0.27451;"/>
<stop offset="1" style="stop-color:rgb(0%,0%,0%);stop-opacity:0;"/>
</radialGradient>
<radialGradient id="radial3" gradientUnits="userSpaceOnUse" cx="450.908936" cy="189.579361" fx="450.908936" fy="189.579361" r="21.166656" gradientTransform="matrix(0.000000348341,0.156265,-0.281277,0.000000203077,106.245857,-15.054959)">
<stop offset="0" style="stop-color:rgb(0%,0%,0%);stop-opacity:0.313725;"/>
<stop offset="0.222222" style="stop-color:rgb(0%,0%,0%);stop-opacity:0.27451;"/>
<stop offset="1" style="stop-color:rgb(0%,0%,0%);stop-opacity:0;"/>
</radialGradient>
<linearGradient id="linear1" gradientUnits="userSpaceOnUse" x1="254" y1="-168.666656" x2="254" y2="233.5" gradientTransform="matrix(0.125012,0,0,0.125012,0,26.877566)">
<stop offset="0" style="stop-color:rgb(73.72549%,66.666667%,64.313725%);stop-opacity:1;"/>
<stop offset="1" style="stop-color:rgb(63.137255%,53.333333%,49.803922%);stop-opacity:1;"/>
</linearGradient>
<linearGradient id="linear2" gradientUnits="userSpaceOnUse" x1="254" y1="138.250015" x2="254" y2="-168.666672" gradientTransform="matrix(0.125012,0,0,0.125012,0,26.877564)">
<stop offset="0" style="stop-color:rgb(40%,73.333333%,41.568627%);stop-opacity:1;"/>
<stop offset="1" style="stop-color:rgb(64.705882%,83.921569%,65.490196%);stop-opacity:1;"/>
</linearGradient>
</defs>
<g id="surface1">
<path style=" stroke:none;fill-rule:nonzero;fill:url(#linear0);" d="M 10.253906 56.066406 L 53.582031 56.066406 L 53.582031 58.714844 L 10.253906 58.714844 Z M 10.253906 56.066406 "/>
<path style=" stroke:none;fill-rule:nonzero;fill:url(#radial0);" d="M 53.582031 56.066406 L 58.875 56.066406 L 58.875 53.421875 L 53.582031 53.421875 Z M 53.582031 56.066406 "/>
<path style=" stroke:none;fill-rule:nonzero;fill:url(#radial1);" d="M 10.253906 56.066406 L 4.960938 56.066406 L 4.960938 58.714844 L 10.253906 58.714844 Z M 10.253906 56.066406 "/>
<path style=" stroke:none;fill-rule:nonzero;fill:url(#radial2);" d="M 10.253906 56.066406 L 4.960938 56.066406 L 4.960938 53.421875 L 10.253906 53.421875 Z M 10.253906 56.066406 "/>
<path style=" stroke:none;fill-rule:nonzero;fill:url(#radial3);" d="M 53.582031 56.066406 L 58.875 56.066406 L 58.875 58.714844 L 53.582031 58.714844 Z M 53.582031 56.066406 "/>
<path style=" stroke:none;fill-rule:nonzero;fill:url(#linear1);" d="M 7.277344 5.792969 L 56.230469 5.792969 C 57.324219 5.792969 58.214844 6.679688 58.214844 7.777344 L 58.214844 54.082031 C 58.214844 55.179688 57.324219 56.066406 56.230469 56.066406 L 7.277344 56.066406 C 6.179688 56.066406 5.292969 55.179688 5.292969 54.082031 L 5.292969 7.777344 C 5.292969 6.679688 6.179688 5.792969 7.277344 5.792969 Z M 7.277344 5.792969 "/>
<path style=" stroke:none;fill-rule:nonzero;fill:rgb(0%,0%,0%);fill-opacity:0.235294;" d="M 5.292969 53.585938 L 5.292969 54.082031 C 5.292969 55.183594 6.175781 56.066406 7.277344 56.066406 L 56.230469 56.066406 C 57.328125 56.066406 58.214844 55.183594 58.214844 54.082031 L 58.214844 53.585938 C 58.214844 54.6875 57.328125 55.570312 56.230469 55.570312 L 7.277344 55.570312 C 6.175781 55.570312 5.292969 54.6875 5.292969 53.585938 Z M 5.292969 53.585938 "/>
<path style=" stroke:none;fill-rule:nonzero;fill:rgb(0%,0%,0%);fill-opacity:0.196078;" d="M 5.292969 48.128906 L 58.214844 48.128906 L 58.214844 48.460938 L 5.292969 48.460938 Z M 5.292969 48.128906 "/>
<path style=" stroke:none;fill-rule:nonzero;fill:rgb(90.196079%,90.196079%,90.196079%);fill-opacity:0.588235;" d="M 5.292969 48.460938 L 58.214844 48.460938 L 58.214844 48.792969 L 5.292969 48.792969 Z M 5.292969 48.460938 "/>
<path style=" stroke:none;fill-rule:nonzero;fill:rgb(12.941177%,12.941177%,12.941177%);fill-opacity:0.992157;" d="M 5.292969 48.296875 L 58.214844 48.296875 L 58.214844 48.625 L 5.292969 48.625 Z M 5.292969 48.296875 "/>
<path style=" stroke:none;fill-rule:nonzero;fill:rgb(90.196079%,90.196079%,90.196079%);fill-opacity:0.588235;" d="M 7.9375 5.792969 C 6.472656 5.792969 5.292969 6.972656 5.292969 8.4375 L 5.292969 8.769531 C 5.292969 7.304688 6.472656 6.121094 7.9375 6.121094 L 55.566406 6.121094 C 57.035156 6.121094 58.214844 7.304688 58.214844 8.769531 L 58.214844 8.4375 C 58.214844 6.972656 57.035156 5.792969 55.566406 5.792969 Z M 7.9375 5.792969 "/>
<path style=" stroke:none;fill-rule:nonzero;fill:url(#linear2);" d="M 7.277344 5.792969 C 6.175781 5.792969 5.292969 6.675781 5.292969 7.777344 L 5.292969 13.070312 C 5.292969 13.300781 5.332031 13.523438 5.40625 13.730469 L 23.816406 13.730469 C 24.546875 13.730469 25.136719 14.320312 25.136719 15.054688 L 25.136719 30.929688 L 21.167969 30.929688 C 19.992188 30.929688 19.402344 32.355469 20.234375 33.1875 L 30.816406 43.773438 C 31.335938 44.289062 32.171875 44.289062 32.6875 43.773438 L 43.273438 33.1875 C 44.105469 32.355469 43.515625 30.929688 42.335938 30.929688 L 38.367188 30.929688 L 38.367188 15.054688 C 38.367188 14.320312 38.957031 13.730469 39.691406 13.730469 L 58.101562 13.730469 C 58.175781 13.523438 58.214844 13.300781 58.214844 13.070312 L 58.214844 7.777344 C 58.214844 6.675781 57.328125 5.792969 56.230469 5.792969 Z M 7.277344 5.792969 "/>
<path style=" stroke:none;fill-rule:nonzero;fill:rgb(100%,100%,100%);fill-opacity:0.392157;" d="M 7.277344 5.792969 C 6.175781 5.792969 5.292969 6.675781 5.292969 7.777344 L 5.292969 8.4375 C 5.292969 7.339844 6.175781 6.453125 7.277344 6.453125 L 56.230469 6.453125 C 57.328125 6.453125 58.214844 7.339844 58.214844 8.4375 L 58.214844 7.777344 C 58.214844 6.675781 57.328125 5.792969 56.230469 5.792969 Z M 21.167969 30.929688 C 20.242188 30.929688 19.679688 31.8125 19.886719 32.589844 C 20.027344 32.046875 20.503906 31.59375 21.167969 31.59375 L 25.136719 31.59375 L 25.136719 30.929688 Z M 38.367188 30.929688 L 38.367188 31.59375 L 42.335938 31.59375 C 43.003906 31.59375 43.480469 32.046875 43.621094 32.589844 C 43.824219 31.8125 43.261719 30.929688 42.335938 30.929688 Z M 38.367188 30.929688 "/>
<path style=" stroke:none;fill-rule:nonzero;fill:rgb(12.941177%,12.941177%,12.941177%);fill-opacity:1;" d="M 7.277344 5.605469 C 6.078125 5.605469 5.105469 6.578125 5.105469 7.777344 L 5.105469 54.082031 C 5.105469 55.285156 6.078125 56.253906 7.277344 56.253906 L 56.230469 56.253906 C 57.429688 56.253906 58.402344 55.285156 58.402344 54.082031 L 58.402344 7.777344 C 58.402344 6.578125 57.429688 5.605469 56.230469 5.605469 Z M 7.277344 5.980469 L 56.230469 5.980469 C 57.226562 5.980469 58.027344 6.777344 58.027344 7.777344 L 58.027344 54.082031 C 58.027344 55.082031 57.226562 55.878906 56.230469 55.878906 L 7.277344 55.878906 C 6.277344 55.878906 5.480469 55.082031 5.480469 54.082031 L 5.480469 7.777344 C 5.480469 6.777344 6.277344 5.980469 7.277344 5.980469 Z M 7.277344 5.980469 "/>
<path style=" stroke:none;fill-rule:nonzero;fill:rgb(0%,0%,0%);fill-opacity:0.235294;" d="M 5.292969 12.40625 L 5.292969 13.070312 C 5.292969 13.300781 5.332031 13.523438 5.40625 13.730469 L 23.816406 13.730469 C 24.546875 13.730469 25.136719 14.320312 25.136719 15.054688 L 25.136719 14.390625 C 25.136719 13.65625 24.546875 13.066406 23.816406 13.066406 L 5.40625 13.066406 C 5.332031 12.859375 5.292969 12.636719 5.292969 12.40625 Z M 58.214844 12.40625 C 58.214844 12.636719 58.175781 12.859375 58.101562 13.066406 L 39.691406 13.066406 C 38.957031 13.066406 38.367188 13.65625 38.367188 14.390625 L 38.367188 15.054688 C 38.367188 14.320312 38.957031 13.730469 39.691406 13.730469 L 58.101562 13.730469 C 58.175781 13.523438 58.214844 13.300781 58.214844 13.070312 Z M 19.886719 31.929688 C 19.777344 32.351562 19.871094 32.824219 20.234375 33.1875 L 30.816406 43.773438 C 31.335938 44.289062 32.171875 44.289062 32.6875 43.773438 L 43.273438 33.1875 C 43.636719 32.824219 43.726562 32.351562 43.621094 31.929688 C 43.5625 32.140625 43.449219 32.347656 43.273438 32.523438 L 32.6875 43.109375 C 32.171875 43.625 31.335938 43.625 30.816406 43.109375 L 20.234375 32.523438 C 20.054688 32.347656 19.941406 32.140625 19.886719 31.929688 Z M 19.886719 31.929688 "/>
<path style=" stroke:none;fill-rule:nonzero;fill:rgb(12.941177%,12.941177%,12.941177%);fill-opacity:1;" d="M 7.277344 5.605469 C 6.078125 5.605469 5.105469 6.578125 5.105469 7.777344 L 5.105469 13.070312 C 5.105469 13.324219 5.148438 13.566406 5.226562 13.792969 L 5.273438 13.917969 L 23.816406 13.917969 C 24.445312 13.917969 24.949219 14.421875 24.949219 15.054688 L 24.949219 30.742188 L 21.167969 30.742188 C 20.503906 30.742188 19.992188 31.152344 19.773438 31.675781 C 19.558594 32.199219 19.632812 32.851562 20.101562 33.320312 L 30.683594 43.90625 C 31.273438 44.492188 32.234375 44.492188 32.820312 43.90625 L 43.40625 33.320312 C 43.875 32.851562 43.949219 32.199219 43.730469 31.675781 C 43.515625 31.152344 43 30.742188 42.335938 30.742188 L 38.554688 30.742188 L 38.554688 15.054688 C 38.554688 14.421875 39.058594 13.917969 39.691406 13.917969 L 58.234375 13.917969 L 58.277344 13.792969 C 58.359375 13.566406 58.402344 13.324219 58.402344 13.070312 L 58.402344 7.777344 C 58.402344 6.578125 57.429688 5.605469 56.230469 5.605469 Z M 7.277344 5.980469 L 56.230469 5.980469 C 57.226562 5.980469 58.027344 6.777344 58.027344 7.777344 L 58.027344 13.070312 C 58.027344 13.234375 58 13.390625 57.957031 13.542969 L 39.691406 13.542969 C 38.859375 13.542969 38.179688 14.21875 38.179688 15.054688 L 38.179688 31.117188 L 42.335938 31.117188 C 42.851562 31.117188 43.222656 31.421875 43.386719 31.820312 C 43.550781 32.214844 43.503906 32.691406 43.140625 33.054688 L 32.554688 43.640625 C 32.109375 44.085938 31.394531 44.085938 30.949219 43.640625 L 20.367188 33.054688 C 20.003906 32.691406 19.957031 32.214844 20.121094 31.820312 C 20.285156 31.421875 20.65625 31.117188 21.167969 31.117188 L 25.324219 31.117188 L 25.324219 15.054688 C 25.324219 14.21875 24.648438 13.542969 23.816406 13.542969 L 5.550781 13.542969 C 5.507812 13.390625 5.480469 13.234375 5.480469 13.070312 L 5.480469 7.777344 C 5.480469 6.777344 6.277344 5.980469 7.277344 5.980469 Z M 7.277344 5.980469 "/>
</g>
</svg>
