<svg height="64" viewBox="0 0 64 64" width="64" xmlns="http://www.w3.org/2000/svg" xmlns:xlink="http://www.w3.org/1999/xlink"><linearGradient id="a" gradientUnits="userSpaceOnUse" x1="31.75304" x2="31.75304" y1="56.067868" y2="58.71395600006"><stop offset="0" stop-opacity=".27451"/><stop offset="1" stop-opacity="0"/></linearGradient><linearGradient id="b"><stop offset="0" stop-opacity=".313726"/><stop offset=".222222" stop-opacity=".27451"/><stop offset="1" stop-opacity="0"/></linearGradient><radialGradient id="c" cx="450.908936" cy="189.579361" gradientTransform="matrix(.00000035 -.156265 -.281277 -.0000002 106.907382 127.190661)" gradientUnits="userSpaceOnUse" r="21.166656" xlink:href="#b"/><radialGradient id="d" cx="450.908936" cy="189.579361" gradientTransform="matrix(-.00000035 .156265 .281277 .0000002 -43.401323 -15.054962)" gradientUnits="userSpaceOnUse" r="21.166656" xlink:href="#b"/><radialGradient id="e" cx="450.908936" cy="189.579361" gradientTransform="matrix(-.00000035 -.156265 .281277 -.0000002 -43.401323 127.190661)" gradientUnits="userSpaceOnUse" r="21.166656" xlink:href="#b"/><radialGradient id="f" cx="450.908936" cy="189.579361" gradientTransform="matrix(.00000035 .156265 -.281277 .0000002 106.907378 -15.054963)" gradientUnits="userSpaceOnUse" r="21.166656" xlink:href="#b"/><linearGradient id="g"><stop offset="0" stop-color="#bdbdbd"/><stop offset="1" stop-color="#e0e0e0"/></linearGradient><linearGradient id="h" gradientTransform="matrix(.150699 0 0 .434824 -11.708026 67.282696)" gradientUnits="userSpaceOnUse" x1="306.916656" x2="305.954559" xlink:href="#g" y1="-25.791676" y2="-135.329163"/><linearGradient id="i" gradientTransform="matrix(.150699 0 0 .434824 -11.708026 67.282692)" gradientUnits="userSpaceOnUse" x1="306.916656" x2="305.954559" xlink:href="#g" y1="-25.791676" y2="-135.329163"/><linearGradient id="j" gradientTransform="matrix(.150699 0 0 .434824 -11.708026 67.282692)" gradientUnits="userSpaceOnUse" x1="306.916656" x2="305.954559" y1="-25.791676" y2="-135.329163"><stop offset="0" stop-color="#424242"/><stop offset="1" stop-color="#616161"/></linearGradient><linearGradient id="k" gradientUnits="userSpaceOnUse" x1="333.37491775" x2="333.37491775" y1="-121.04159691667" y2="-89.29164325"><stop offset="0" stop-color="#66bb6a"/><stop offset="1" stop-color="#81c784"/></linearGradient><linearGradient id="l" gradientUnits="userSpaceOnUse" x1="386.29151025" x2="386.29151025" y1="-121.04167408333" y2="-89.29163575"><stop offset="0" stop-color="#ffd54f"/><stop offset="1" stop-color="#ffe082"/></linearGradient><linearGradient id="m" gradientUnits="userSpaceOnUse" x1="439.208298" x2="439.208298" y1="-121.041682" y2="-89.291686"><stop offset="0" stop-color="#e57373"/><stop offset="1" stop-color="#ef9a9a"/></linearGradient><linearGradient id="n" gradientUnits="userSpaceOnUse" x1="31.753056" x2="31.753056" y1="56.06789790428" y2="8.43831238278"><stop offset="0" stop-color="#f44336"/><stop offset="1" stop-color="#ef5350"/></linearGradient><path d="m9.261719 56.066406h44.984375v2.648438h-44.984375zm0 0" fill="url(#a)"/><path d="m54.246094 56.066406h5.289062v-2.644531h-5.289062zm0 0" fill="url(#c)"/><path d="m9.261719 56.066406h-5.292969v2.648438h5.292969zm0 0" fill="url(#d)"/><path d="m9.261719 56.066406h-5.292969v-2.644531h5.292969zm0 0" fill="url(#e)"/><path d="m54.246094 56.066406h5.289062v2.648438h-5.289062zm0 0" fill="url(#f)"/><path d="m6.613281 8.4375h50.277344c1.460937 0 2.644531 1.183594 2.644531 2.648438v42.335937c0 1.460937-1.183594 2.644531-2.644531 2.644531h-50.277344c-1.460937 0-2.644531-1.183594-2.644531-2.644531v-42.335937c0-1.464844 1.183594-2.648438 2.644531-2.648438zm0 0" fill="url(#h)"/><path d="m31.753906 8.4375v47.628906h25.136719c1.464844 0 2.644531-1.179687 2.644531-2.644531v-42.335937c0-1.46875-1.179687-2.648438-2.644531-2.648438zm0 0" fill="url(#i)"/><path d="m116.426382-31.080063h275.161223v211.667286h-275.161223zm0 0" fill="#f44336" fill-opacity=".235294" stroke="#212121" stroke-linecap="round" stroke-linejoin="round" transform="matrix(.125012 0 0 .125012 0 26.877566)"/><path d="m3.96875 19.023438h55.566406v1.320312h-55.566406zm0 0" fill="#0a0d0e" fill-opacity=".235294"/><path d="m6.613281 8.4375c-1.464843 0-2.644531 1.179688-2.644531 2.648438v7.9375h55.566406v-7.9375c0-1.46875-1.179687-2.648438-2.644531-2.648438zm0 0" fill="url(#j)"/><path d="m6.613281 56.09375c-1.464843 0-2.644531-1.179688-2.644531-2.644531v-.6875c0 1.464843 1.179688 2.644531 2.644531 2.644531h50.277344c1.464844 0 2.644531-1.179688 2.644531-2.644531v.6875c0 1.464843-1.179687 2.644531-2.644531 2.644531zm0 0" fill-opacity=".235294"/><path d="m31.753906 8.4375v10.585938h27.78125v-7.9375c0-1.46875-1.179687-2.648438-2.644531-2.648438zm0 0" fill="url(#j)"/><path d="m6.613281 8.589844c-1.464843 0-2.644531 1.179687-2.644531 2.648437v.6875c0-1.46875 1.179688-2.648437 2.644531-2.648437h50.277344c1.464844 0 2.644531 1.179687 2.644531 2.648437v-.6875c0-1.46875-1.179687-2.648437-2.644531-2.648437zm0 0" fill="#fff" fill-opacity=".392157"/><path d="m6.613281 8.25c-1.566406 0-2.832031 1.269531-2.832031 2.835938v42.335937c0 1.566406 1.265625 2.832031 2.832031 2.832031h50.277344c1.566406 0 2.832031-1.265625 2.832031-2.832031v-42.335937c0-1.566407-1.265625-2.835938-2.832031-2.835938zm0 .375h50.277344c1.367187 0 2.457031 1.09375 2.457031 2.460938v42.335937c0 1.367187-1.089844 2.457031-2.457031 2.457031h-50.277344c-1.363281 0-2.457031-1.089844-2.457031-2.457031v-42.335937c0-1.367188 1.09375-2.460938 2.457031-2.460938zm0 0" fill="#212121"/><g transform="matrix(.125012 0 0 .125012 0 26.877566)"><path d="m333.374414-121.040223c8.780412 0 15.873484 7.093073 15.873484 15.873484 0 8.780412-7.093072 15.873485-15.873484 15.873485-8.780411 0-15.873484-7.093073-15.873484-15.873485 0-8.780411 7.093073-15.873484 15.873484-15.873484zm0 0" fill="url(#k)" stroke="#212121" stroke-linecap="round" stroke-width="3"/><path d="m386.30686-121.040223c8.749164 0 15.873484 7.093073 15.873484 15.873484 0 8.780412-7.12432 15.873485-15.873484 15.873485-8.780412 0-15.904732-7.093073-15.904732-15.873485 0-8.780411 7.12432-15.873484 15.904732-15.873484zm0 0" fill="url(#l)" stroke="#212121" stroke-linecap="round" stroke-width="3"/><path d="m439.208058-121.040223c8.780411 0 15.873484 7.093073 15.873484 15.873484 0 8.780412-7.093073 15.873485-15.873484 15.873485-8.780412 0-15.873484-7.093073-15.873484-15.873485 0-8.780411 7.093072-15.873484 15.873484-15.873484zm0 0" fill="url(#m)" stroke="#212121" stroke-linecap="round" stroke-width="3"/><path d="m31.746968-62.827032h444.488804" fill="none" stroke="#212121" stroke-width="3"/></g><path d="m31.753906 25.636719c-5.863281 0-10.585937 4.722656-10.585937 10.585937 0 5.863282 4.722656 10.582032 10.585937 10.582032 5.863282 0 10.582032-4.71875 10.582032-10.582032 0-5.863281-4.71875-10.585937-10.582032-10.585937zm0 3.96875c1.105469 0 2.148438.269531 3.0625.746093l-8.933594 8.933594c-.476562-.914062-.746093-1.957031-.746093-3.0625 0-3.664062 2.953125-6.617187 6.617187-6.617187zm5.867188 3.554687c.476562.914063.746094 1.957032.746094 3.0625 0 3.664063-2.949219 6.613282-6.613282 6.613282-1.109375 0-2.148437-.269532-3.0625-.746094zm0 0" fill="url(#n)"/><path d="m31.753906 25.636719c-5.863281 0-10.585937 4.722656-10.585937 10.585937 0 .109375.003906.21875.007812.332032.171875-5.710938 4.824219-10.253907 10.578125-10.253907s10.40625 4.542969 10.578125 10.253907c.003907-.113282.003907-.222657.003907-.332032 0-5.863281-4.71875-10.585937-10.582032-10.585937zm2.613282 5.164062-8.484376 8.484375c-.429687-.824218-.691406-1.753906-.738281-2.738281-.003906.109375-.007812.222656-.007812.335937 0 1.109376.269531 2.148438.746093 3.0625l8.933594-8.929687c-.148437-.078125-.296875-.148437-.449218-.214844zm3.992187 5.761719c-.175781 3.503906-3.054687 6.273438-6.605469 6.273438-.929687 0-1.8125-.1875-2.613281-.53125l-.449219.449218c.914063.476563 1.953125.746094 3.0625.746094 3.664063 0 6.613282-2.953125 6.613282-6.617188 0-.109374-.003907-.214843-.007813-.320312zm0 0" fill="#fff" fill-opacity=".392157"/><path d="m31.753906 29.605469c-3.664062 0-6.617187 2.953125-6.617187 6.617187 0 .109375.003906.214844.007812.324219.175781-3.507813 3.058594-6.277344 6.609375-6.277344.929688 0 1.8125.191407 2.613282.53125l.449218-.449219c-.914062-.476562-1.957031-.746093-3.0625-.746093zm5.867188 3.554687-8.929688 8.929688c.144532.078125.296875.148437.449219.214844l8.480469-8.484376c.429687.824219.691406 1.753907.738281 2.742188.007813-.113281.007813-.226562.007813-.339844 0-1.105468-.269532-2.148437-.746094-3.0625zm-16.445313 3.394532c-.003906.109374-.007812.21875-.007812.328124 0 5.863282 4.722656 10.585938 10.585937 10.585938 5.863282 0 10.582032-4.722656 10.582032-10.585938 0-.109374 0-.21875-.003907-.328124-.171875 5.707031-4.824219 10.25-10.578125 10.25s-10.40625-4.542969-10.578125-10.25zm0 0" fill-opacity=".235294"/><path d="m960.026483 775.083504c-177.266546 0-320.048194 142.781648-320.048194 320.048194s142.781648 319.930095 320.048194 319.930095 319.930095-142.663549 319.930095-319.930095-142.663549-320.048194-319.930095-320.048194zm0 119.988548c33.422007 0 64.95443 8.148829 92.589588 22.556902l-270.092332 270.092332c-14.408074-27.635157-22.556902-59.167581-22.556902-92.589588 0-110.776829 89.282817-200.059646 200.059646-200.059646zm177.384644 107.470058c14.408074 27.635158 22.556903 59.167581 22.556903 92.589588 0 110.776829-89.164719 199.941547-199.941547 199.941547-33.540106 0-64.954431-8.148828-92.589588-22.556902zm0 0" fill="none" stroke="#212121" stroke-linecap="round" stroke-linejoin="round" stroke-width="11.338583" transform="scale(.0330761)"/></svg>