<?xml version="1.0" encoding="UTF-8"?>
<svg xmlns="http://www.w3.org/2000/svg" xmlns:xlink="http://www.w3.org/1999/xlink" width="64pt" height="64pt" viewBox="0 0 64 64" version="1.1">
<defs>
<radialGradient id="radial0" gradientUnits="userSpaceOnUse" cx="450.908936" cy="189.579361" fx="450.908936" fy="189.579361" r="21.166656" gradientTransform="matrix(0.000000348341,-0.156265,-0.281277,-0.000000203077,89.046304,127.190659)">
<stop offset="0" style="stop-color:rgb(0%,0%,0%);stop-opacity:0.313725;"/>
<stop offset="0.222222" style="stop-color:rgb(0%,0%,0%);stop-opacity:0.27451;"/>
<stop offset="1" style="stop-color:rgb(0%,0%,0%);stop-opacity:0;"/>
</radialGradient>
<radialGradient id="radial1" gradientUnits="userSpaceOnUse" cx="450.908936" cy="189.579361" fx="450.908936" fy="189.579361" r="21.166656" gradientTransform="matrix(-0.000000348341,0.156265,0.281277,0.000000203077,-25.540237,-15.054964)">
<stop offset="0" style="stop-color:rgb(0%,0%,0%);stop-opacity:0.313725;"/>
<stop offset="0.222222" style="stop-color:rgb(0%,0%,0%);stop-opacity:0.27451;"/>
<stop offset="1" style="stop-color:rgb(0%,0%,0%);stop-opacity:0;"/>
</radialGradient>
<radialGradient id="radial2" gradientUnits="userSpaceOnUse" cx="450.908936" cy="189.579361" fx="450.908936" fy="189.579361" r="21.166656" gradientTransform="matrix(-0.000000348341,-0.156265,0.281277,-0.000000203077,-25.540237,127.190659)">
<stop offset="0" style="stop-color:rgb(0%,0%,0%);stop-opacity:0.313725;"/>
<stop offset="0.222222" style="stop-color:rgb(0%,0%,0%);stop-opacity:0.27451;"/>
<stop offset="1" style="stop-color:rgb(0%,0%,0%);stop-opacity:0;"/>
</radialGradient>
<radialGradient id="radial3" gradientUnits="userSpaceOnUse" cx="450.908936" cy="189.579361" fx="450.908936" fy="189.579361" r="21.166656" gradientTransform="matrix(0.000000348341,0.156265,-0.281277,0.000000203077,89.0463,-15.054965)">
<stop offset="0" style="stop-color:rgb(0%,0%,0%);stop-opacity:0.313725;"/>
<stop offset="0.222222" style="stop-color:rgb(0%,0%,0%);stop-opacity:0.27451;"/>
<stop offset="1" style="stop-color:rgb(0%,0%,0%);stop-opacity:0;"/>
</radialGradient>
<linearGradient id="linear0" gradientUnits="userSpaceOnUse" x1="255.323059" y1="233.5" x2="255.323044" y2="254.666656" gradientTransform="matrix(0.0267201,0,0,0.125012,24.930772,26.877567)">
<stop offset="0" style="stop-color:rgb(0%,0%,0%);stop-opacity:0.27451;"/>
<stop offset="1" style="stop-color:rgb(0%,0%,0%);stop-opacity:0;"/>
</linearGradient>
<linearGradient id="linear1" gradientUnits="userSpaceOnUse" x1="254" y1="-168.666672" x2="254" y2="233.5" gradientTransform="matrix(0.125012,0,0,0.125012,0,26.687447)">
<stop offset="0" style="stop-color:rgb(30.196078%,71.372549%,67.45098%);stop-opacity:1;"/>
<stop offset="1" style="stop-color:rgb(14.901961%,65.098039%,60.392157%);stop-opacity:1;"/>
</linearGradient>
<linearGradient id="linear2" gradientUnits="userSpaceOnUse" x1="275.166656" y1="-126.333344" x2="275.166656" y2="170" gradientTransform="matrix(1.040846,0,0,1.040846,-17.291624,4.071738)">
<stop offset="0" style="stop-color:rgb(87.843137%,87.843137%,87.843137%);stop-opacity:1;"/>
<stop offset="1" style="stop-color:rgb(93.333333%,93.333333%,93.333333%);stop-opacity:1;"/>
</linearGradient>
<linearGradient id="linear3" gradientUnits="userSpaceOnUse" x1="283.104187" y1="-93.509773" x2="283.104187" y2="86.406898" gradientTransform="matrix(1,0,0,1,13.229157,20.093103)">
<stop offset="0" style="stop-color:rgb(30.196078%,71.372549%,67.45098%);stop-opacity:1;"/>
<stop offset="1" style="stop-color:rgb(14.901961%,65.098039%,60.392157%);stop-opacity:1;"/>
</linearGradient>
</defs>
<g id="surface1">
<path style=" stroke:none;fill-rule:nonzero;fill:url(#radial0);" d="M 36.382812 56.066406 L 41.675781 56.066406 L 41.675781 53.421875 L 36.382812 53.421875 Z M 36.382812 56.066406 "/>
<path style=" stroke:none;fill-rule:nonzero;fill:url(#radial1);" d="M 27.121094 56.066406 L 21.832031 56.066406 L 21.832031 58.714844 L 27.121094 58.714844 Z M 27.121094 56.066406 "/>
<path style=" stroke:none;fill-rule:nonzero;fill:url(#radial2);" d="M 27.121094 56.066406 L 21.832031 56.066406 L 21.832031 53.421875 L 27.121094 53.421875 Z M 27.121094 56.066406 "/>
<path style=" stroke:none;fill-rule:nonzero;fill:url(#radial3);" d="M 36.382812 56.066406 L 41.675781 56.066406 L 41.675781 58.714844 L 36.382812 58.714844 Z M 36.382812 56.066406 "/>
<path style=" stroke:none;fill-rule:nonzero;fill:url(#linear0);" d="M 27.121094 55.40625 L 36.382812 55.40625 L 36.382812 58.714844 L 27.121094 58.714844 Z M 27.121094 55.40625 "/>
<path style=" stroke:none;fill-rule:nonzero;fill:url(#linear1);" d="M 31.753906 5.601562 C 45.636719 5.601562 56.890625 16.855469 56.890625 30.738281 C 56.890625 44.625 45.636719 55.878906 31.753906 55.878906 C 17.871094 55.878906 6.613281 44.625 6.613281 30.738281 C 6.613281 16.855469 17.871094 5.601562 31.753906 5.601562 Z M 31.753906 5.601562 "/>
<path style=" stroke:none;fill-rule:nonzero;fill:rgb(0%,0%,0%);fill-opacity:0.196078;" d="M 31.753906 55.878906 C 17.828125 55.878906 6.613281 44.667969 6.613281 30.738281 C 6.613281 30.65625 6.617188 30.574219 6.617188 30.492188 C 6.746094 44.304688 17.910156 55.386719 31.753906 55.386719 C 45.597656 55.386719 56.757812 44.304688 56.890625 30.492188 C 56.890625 30.574219 56.890625 30.65625 56.890625 30.738281 C 56.890625 44.667969 45.679688 55.878906 31.753906 55.878906 Z M 31.753906 55.878906 "/>
<path style=" stroke:none;fill-rule:nonzero;fill:rgb(100%,100%,100%);fill-opacity:0.392157;" d="M 31.753906 5.601562 C 17.828125 5.601562 6.613281 16.8125 6.613281 30.738281 C 6.613281 30.820312 6.617188 30.902344 6.617188 30.984375 C 6.746094 17.175781 17.910156 6.09375 31.753906 6.09375 C 45.597656 6.09375 56.757812 17.175781 56.890625 30.984375 C 56.890625 30.902344 56.890625 30.820312 56.890625 30.738281 C 56.890625 16.8125 45.679688 5.601562 31.753906 5.601562 Z M 31.753906 5.601562 "/>
<path style=" stroke:none;fill-rule:nonzero;fill:rgb(12.941177%,12.941177%,12.941177%);fill-opacity:1;" d="M 31.753906 5.414062 C 17.726562 5.414062 6.425781 16.710938 6.425781 30.738281 C 6.425781 44.765625 17.726562 56.066406 31.753906 56.066406 C 45.78125 56.066406 57.078125 44.765625 57.078125 30.738281 C 57.078125 16.710938 45.78125 5.414062 31.753906 5.414062 Z M 31.753906 5.789062 C 45.578125 5.789062 56.703125 16.914062 56.703125 30.738281 C 56.703125 44.566406 45.578125 55.691406 31.753906 55.691406 C 17.925781 55.691406 6.800781 44.566406 6.800781 30.738281 C 6.800781 16.914062 17.925781 5.789062 31.753906 5.789062 Z M 31.753906 5.789062 "/>
<path style="fill-rule:nonzero;fill:url(#linear2);stroke-width:3;stroke-linecap:round;stroke-linejoin:miter;stroke:rgb(12.941177%,12.941177%,12.941177%);stroke-opacity:1;stroke-miterlimit:4;" d="M 269.099302 -138.444811 C 354.278668 -138.444811 423.334574 -69.388905 423.334574 15.790461 C 423.334574 100.938579 354.278668 169.994485 269.099302 169.994485 C 183.951184 169.994485 114.895278 100.938579 114.895278 15.790461 C 114.895278 -69.388905 183.951184 -138.444811 269.099302 -138.444811 Z M 269.099302 -138.444811 " transform="matrix(0.125012,0,0,0.125012,0,26.877566)"/>
<path style="fill-rule:nonzero;fill:url(#linear3);stroke-width:3;stroke-linecap:round;stroke-linejoin:miter;stroke:rgb(80.000001%,80.000001%,80.000001%);stroke-opacity:1;stroke-miterlimit:4;" d="M 235.477513 -74.919627 C 223.759882 -74.919627 214.323283 -65.483028 214.323283 -53.765397 L 214.323283 84.221426 C 214.323283 95.939057 223.759882 105.406903 235.477513 105.406903 C 246.070251 105.43815 332.499498 47.443688 380.994867 18.10274 C 388.931609 12.821994 388.931609 7.541248 380.994867 2.229256 C 332.499498 -23.487039 251.350997 -74.482169 235.477513 -74.919627 Z M 235.477513 -74.919627 " transform="matrix(0.125012,0,0,0.125012,0,26.877566)"/>
<path style=" stroke:none;fill-rule:nonzero;fill:rgb(0%,0%,0%);fill-opacity:0.196078;" d="M 48.359375 27.777344 C 48.257812 28.011719 48.03125 28.25 47.675781 28.484375 C 41.613281 32.152344 30.808594 39.398438 29.484375 39.394531 C 28.019531 39.394531 26.835938 38.214844 26.835938 36.75 L 26.835938 37.320312 C 26.835938 38.785156 28.019531 39.964844 29.484375 39.964844 C 30.808594 39.96875 41.613281 32.722656 47.675781 29.054688 C 48.3125 28.628906 48.542969 28.203125 48.359375 27.777344 Z M 48.359375 27.777344 "/>
<path style=" stroke:none;fill-rule:nonzero;fill:rgb(100%,100%,100%);fill-opacity:0.701961;" d="M 29.4375 17.511719 C 27.972656 17.511719 26.792969 18.691406 26.792969 20.15625 L 26.792969 20.707031 C 26.792969 19.242188 27.972656 18.0625 29.4375 18.0625 C 31.421875 18.113281 41.566406 24.492188 47.628906 27.707031 C 47.988281 27.945312 48.214844 28.183594 48.316406 28.425781 C 48.492188 28.003906 48.261719 27.578125 47.628906 27.15625 C 41.566406 23.941406 31.421875 17.566406 29.4375 17.511719 Z M 29.4375 17.511719 "/>
<path style=" stroke:none;fill-rule:nonzero;fill:rgb(12.941177%,12.941177%,12.941177%);fill-opacity:1;" d="M 29.4375 17.324219 C 27.871094 17.324219 26.605469 18.589844 26.605469 20.15625 L 26.605469 37.40625 C 26.605469 38.972656 27.871094 40.238281 29.4375 40.242188 C 29.6875 40.242188 29.988281 40.113281 30.429688 39.90625 C 30.871094 39.695312 31.429688 39.398438 32.078125 39.027344 C 33.375 38.289062 35.042969 37.269531 36.855469 36.132812 C 40.480469 33.863281 44.699219 31.132812 47.726562 29.300781 L 47.730469 29.300781 L 47.734375 29.296875 C 48.253906 28.953125 48.5625 28.574219 48.5625 28.148438 C 48.5625 27.726562 48.253906 27.347656 47.734375 27 L 47.71875 26.992188 C 44.691406 25.386719 40.640625 22.988281 37.097656 20.984375 C 35.324219 19.984375 33.679688 19.078125 32.347656 18.421875 C 31.683594 18.09375 31.097656 17.824219 30.609375 17.636719 C 30.121094 17.445312 29.738281 17.332031 29.441406 17.324219 Z M 29.433594 17.699219 C 29.632812 17.707031 30.003906 17.800781 30.472656 17.984375 C 30.941406 18.167969 31.523438 18.429688 32.179688 18.757812 C 33.5 19.410156 35.140625 20.3125 36.910156 21.3125 C 40.445312 23.3125 44.488281 25.703125 47.527344 27.316406 C 47.996094 27.628906 48.1875 27.914062 48.1875 28.148438 C 48.1875 28.386719 47.996094 28.671875 47.527344 28.984375 C 44.488281 30.824219 40.277344 33.550781 36.65625 35.816406 C 34.84375 36.949219 33.183594 37.96875 31.894531 38.703125 C 31.25 39.070312 30.695312 39.363281 30.269531 39.566406 C 29.84375 39.765625 29.519531 39.867188 29.4375 39.867188 C 28.074219 39.867188 26.980469 38.773438 26.980469 37.40625 L 26.980469 20.15625 C 26.980469 18.792969 28.070312 17.703125 29.433594 17.699219 Z M 29.433594 17.699219 "/>
</g>
</svg>
