<svg height="64" viewBox="0 0 64 64" width="64" xmlns="http://www.w3.org/2000/svg" xmlns:xlink="http://www.w3.org/1999/xlink"><linearGradient id="a"><stop offset="0" stop-opacity=".313726"/><stop offset=".222222" stop-opacity=".27451"/><stop offset="1" stop-opacity="0"/></linearGradient><radialGradient id="b" cx="450.908936" cy="189.579361" gradientTransform="matrix(.00000035 -.156265 -.281277 -.0000002 89.046304 127.190659)" gradientUnits="userSpaceOnUse" r="21.166656" xlink:href="#a"/><radialGradient id="c" cx="450.908936" cy="189.579361" gradientTransform="matrix(-.00000035 .156265 .281277 .0000002 -25.540237 -15.054964)" gradientUnits="userSpaceOnUse" r="21.166656" xlink:href="#a"/><radialGradient id="d" cx="450.908936" cy="189.579361" gradientTransform="matrix(-.00000035 -.156265 .281277 -.0000002 -25.540237 127.190659)" gradientUnits="userSpaceOnUse" r="21.166656" xlink:href="#a"/><radialGradient id="e" cx="450.908936" cy="189.579361" gradientTransform="matrix(.00000035 .156265 -.281277 .0000002 89.0463 -15.054965)" gradientUnits="userSpaceOnUse" r="21.166656" xlink:href="#a"/><linearGradient id="f" gradientTransform="matrix(.0267201 0 0 .125012 24.930772 26.877567)" gradientUnits="userSpaceOnUse" x1="255.323059" x2="255.323044" y1="233.5" y2="254.666656"><stop offset="0" stop-opacity=".27451"/><stop offset="1" stop-opacity="0"/></linearGradient><linearGradient id="g" gradientUnits="userSpaceOnUse" x1="31.753056" x2="31.753056" y1="5.792224912" y2="57.39094190428"><stop offset="0" stop-color="#e0e0e0"/><stop offset="1" stop-color="#bdbdbd"/></linearGradient><linearGradient id="h" gradientUnits="userSpaceOnUse" x1="31.753056" x2="31.753056" y1="56.06789790428" y2="5.792224912"><stop offset="0" stop-color="#424242"/><stop offset="1" stop-color="#616161"/></linearGradient><linearGradient id="i"><stop offset="0" stop-color="#64b5f6"/><stop offset="1" stop-color="#42a5f5"/></linearGradient><linearGradient id="j" gradientUnits="userSpaceOnUse" x1="22.30422500006" x2="41.20187300013" xlink:href="#i" y1="17.69960200003" y2="17.69960200003"/><linearGradient id="k" gradientUnits="userSpaceOnUse" x1="22.30422500006" x2="41.20187300013" xlink:href="#i" y1="37.54525599994" y2="37.54525599994"/><linearGradient id="l"><stop offset="0" stop-color="#f44336"/><stop offset="1" stop-color="#ef5350"/></linearGradient><linearGradient id="m" gradientUnits="userSpaceOnUse" x1="21.2385295" x2="30.49983449994" xlink:href="#l" y1="52.098737" y2="52.098737"/><linearGradient id="n" gradientUnits="userSpaceOnUse" x1="32.9346345" x2="42.19593949994" xlink:href="#l" y1="52.098737" y2="52.098737"/><linearGradient id="o" gradientUnits="userSpaceOnUse" x1="11.907396" x2="51.598716" xlink:href="#l" y1="30.55976464504" y2="30.55976464504"/><path d="m36.382812 56.066406h5.292969v-2.644531h-5.292969zm0 0" fill="url(#b)"/><path d="m27.121094 56.066406h-5.289063v2.648438h5.289063zm0 0" fill="url(#c)"/><path d="m27.121094 56.066406h-5.289063v-2.644531h5.289063zm0 0" fill="url(#d)"/><path d="m36.382812 56.066406h5.292969v2.648438h-5.292969zm0 0" fill="url(#e)"/><path d="m27.121094 55.40625h9.261718v3.308594h-9.261718zm0 0" fill="url(#f)"/><path d="m31.753906 5.792969c-12.460937 0-22.492187 17.40625-22.492187 39.027343 0 3.949219.335937 7.753907.957031 11.339844 6.300781-3.421875 13.660156-5.382812 21.535156-5.382812s15.230469 1.960937 21.535156 5.382812c.621094-3.585937.957032-7.390625.957032-11.339844 0-21.621093-10.03125-39.027343-22.492188-39.027343zm0 0" fill="url(#g)"/><path d="m31.753906 5.792969c-7.332031 0-13.230468 12.390625-13.230468 27.78125 0 7.015625 1.222656 13.402343 3.25 18.28125 3.199218-.707031 6.539062-1.078125 9.980468-1.078125 3.4375 0 6.78125.371094 9.976563 1.078125 2.027343-4.878907 3.253906-11.265625 3.253906-18.28125 0-15.390625-5.902344-27.78125-13.230469-27.78125zm0 0" fill="url(#h)"/><path d="m9.261719 44.625v.195312c0 3.949219.335937 7.753907.957031 11.339844 6.300781-3.421875 13.660156-5.382812 21.535156-5.382812s15.230469 1.960937 21.535156 5.382812c.621094-3.585937.957032-7.390625.957032-11.339844 0-.0625 0-.128906-.003906-.195312-.011719 3.855469-.347657 7.570312-.953126 11.074219-6.304687-3.421875-13.660156-5.386719-21.535156-5.386719s-15.234375 1.964844-21.535156 5.386719c-.609375-3.503907-.941406-7.21875-.957031-11.074219zm0 0" fill-opacity=".235294"/><path d="m31.753906 8.4375c5.113282 0 9.261719 4.148438 9.261719 9.261719 0 5.117187-4.148437 9.261719-9.261719 9.261719-5.117187 0-9.261718-4.144532-9.261718-9.261719 0-5.113281 4.144531-9.261719 9.261718-9.261719zm0 0" fill="url(#j)"/><path d="m31.753906 28.285156c5.113282 0 9.261719 4.144532 9.261719 9.261719 0 5.113281-4.148437 9.257813-9.261719 9.257813-5.117187 0-9.261718-4.144532-9.261718-9.257813 0-5.117187 4.144531-9.261719 9.261718-9.261719zm0 0" fill="url(#k)"/><path d="m31.753906 5.792969c-12.460937 0-22.492187 17.40625-22.492187 39.027343v.378907c.089843-21.492188 10.085937-38.746094 22.492187-38.746094s22.402344 17.253906 22.488282 38.746094c.003906-.125.003906-.25.003906-.378907 0-21.621093-10.03125-39.027343-22.492188-39.027343zm0 0" fill="#fff" fill-opacity=".588235"/><path d="m960.026483 175.140764c-376.735697 0-680.013838 526.248986-680.013838 1179.926755 0 119.398053 10.156511 234.426445 28.934246 342.841294 190.49363-103.454693 412.992079-162.740373 651.079592-162.740373 238.087512 0 460.467863 59.28568 651.079591 162.740373 18.777736-108.414849 28.934247-223.443241 28.934247-342.841294 0-653.677769-303.278141-1179.926755-680.013838-1179.926755zm0 0" fill="none" stroke="#212121" stroke-linecap="round" stroke-linejoin="round" stroke-width="11.338583" transform="scale(.0330761)"/><path d="m960.026483 175.140764c-221.671757 0-400.001193 374.609916-400.001193 839.919836 0 212.105741 36.964976 405.197548 98.258338 552.703154 96.723052-21.375912 197.697667-32.595314 301.742855-32.595314 103.927089 0 205.019802 11.219402 301.624755 32.595314 61.293363-147.505606 98.376438-340.597413 98.376438-552.703154 0-465.30992-178.447536-839.919836-400.001193-839.919836zm0 0" fill="none" stroke="#212121" stroke-linecap="round" stroke-linejoin="round" stroke-width="11.338583" transform="scale(.0330761)"/><path d="m31.753906 8.4375c-5.132812 0-9.261718 4.132812-9.261718 9.261719 0 .109375.003906.222656.007812.332031.171875-4.976562 4.234375-8.929688 9.253906-8.929688 5.019532 0 9.082032 3.953126 9.253906 8.929688.003907-.109375.007813-.222656.007813-.332031 0-5.128907-4.132813-9.261719-9.261719-9.261719zm0 0" fill="#fff" fill-opacity=".392157"/><path d="m31.753906 28.285156c-5.132812 0-9.261718 4.128906-9.261718 9.261719 0 .109375.003906.21875.007812.328125.171875-4.976562 4.234375-8.929688 9.253906-8.929688 5.019532 0 9.082032 3.953126 9.253906 8.929688.003907-.109375.007813-.21875.007813-.328125 0-5.132813-4.132813-9.261719-9.261719-9.261719zm0 0" fill="#fff" fill-opacity=".392157"/><path d="m31.753906 47.46875c-5.132812 0-9.261718-4.132812-9.261718-9.261719 0-.109375.003906-.222656.007812-.332031.171875 4.976562 4.234375 8.929688 9.253906 8.929688 5.019532 0 9.082032-3.953126 9.253906-8.929688.003907.109375.007813.222656.007813.332031 0 5.128907-4.132813 9.261719-9.261719 9.261719zm0 0" fill-opacity=".235294"/><path d="m31.753906 27.621094c-5.132812 0-9.261718-4.128906-9.261718-9.261719 0-.109375.003906-.21875.007812-.328125.171875 4.976562 4.234375 8.929688 9.253906 8.929688 5.019532 0 9.082032-3.953126 9.253906-8.929688.003907.109375.007813.21875.007813.328125 0 5.132813-4.132813 9.261719-9.261719 9.261719zm0 0" fill-opacity=".235294"/><path d="m254.006994-147.506445c40.902344 0 74.086675 33.184331 74.086675 74.086675 0 40.933591-33.184331 74.086675-74.086675 74.086675-40.933591 0-74.086676-33.153084-74.086676-74.086675 0-40.902344 33.153085-74.086675 74.086676-74.086675zm0 0" fill="none" stroke="#212121" stroke-linecap="round" stroke-linejoin="round" stroke-width="3" transform="matrix(.125012 0 0 .125012 0 26.877566)"/><path d="m254.006994 11.259643c40.902344 0 74.086675 33.153084 74.086675 74.086675 0 40.902344-33.184331 74.055428-74.086675 74.055428-40.933591 0-74.086676-33.153084-74.086676-74.055428 0-40.933591 33.153085-74.086675 74.086676-74.086675zm0 0" fill="none" stroke="#212121" stroke-linecap="round" stroke-linejoin="round" stroke-width="3" transform="matrix(.125012 0 0 .125012 0 26.877566)"/><path d="m25.867188 47.964844c-1.351563 0-2.738282.898437-3.234376 2.394531l.070313-.175781-1.984375 3.96875c-.4375.878906.199219 1.914062 1.179688 1.914062h7.941406c.980468 0 1.617187-1.035156 1.179687-1.914062l-1.984375-3.96875.070313.175781c-.496094-1.496094-1.882813-2.394531-3.238281-2.394531zm0 0" fill="url(#m)"/><path d="m37.566406 47.964844c-1.355468 0-2.742187.898437-3.238281 2.394531l.070313-.175781-1.984376 3.96875c-.4375.878906.199219 1.914062 1.183594 1.914062h7.9375c.980469 0 1.621094-1.035156 1.179688-1.914062l-1.984375-3.96875.074219.175781c-.5-1.496094-1.882813-2.394531-3.238282-2.394531zm0 0" fill="url(#n)"/><g fill="#fff" fill-opacity=".392157"><path d="m27.960938 11.746094c.632812.363281.40625 1.945312-.507813 3.527344-.914063 1.582031-2.167969 2.566406-2.800781 2.203124-.632813-.367187-.402344-1.945312.507812-3.527343.914063-1.582031 2.167969-2.570313 2.800782-2.203125zm0 0"/><path d="m27.960938 31.589844c.632812.367187.40625 1.945312-.507813 3.527344-.914063 1.582031-2.167969 2.570312-2.800781 2.203124-.632813-.363281-.402344-1.945312.507812-3.527343.914063-1.582031 2.167969-2.566407 2.800782-2.203125zm0 0"/><path d="m25.867188 47.964844c-1.320313 0-2.671876.859375-3.199219 2.289062l-1.949219 3.898438c-.136719.277344-.167969.570312-.117188.839844.023438-.117188.0625-.230469.117188-.34375l1.949219-3.898438c.527343-1.433594 1.878906-2.289062 3.199219-2.289062 1.324218 0 2.675781.855468 3.203124 2.289062l1.949219 3.898438c.054688.113281.09375.226562.117188.34375.050781-.269532.019531-.5625-.117188-.839844l-1.949219-3.898438c-.527343-1.429687-1.878906-2.289062-3.203124-2.289062zm0 0"/><path d="m37.566406 47.964844c-1.324218 0-2.675781.859375-3.203125 2.289062l-1.949219 3.898438c-.136718.277344-.167968.570312-.117187.839844.023437-.117188.0625-.230469.117187-.34375l1.949219-3.902344c.527344-1.429688 1.878907-2.285156 3.203125-2.285156 1.324219 0 2.675782.855468 3.199219 2.289062l1.949219 3.898438c.058594.113281.09375.226562.117187.34375.054688-.269532.023438-.5625-.117187-.839844l-1.949219-3.898438c-.523437-1.429687-1.875-2.289062-3.199219-2.289062zm0 0"/></g><path d="m20.609375 54.457031c-.179687.796875.421875 1.609375 1.289063 1.609375h7.941406c.867187 0 1.46875-.8125 1.289062-1.609375-.128906.570313-.632812 1.035157-1.289062 1.035157h-7.941406c-.65625 0-1.160157-.464844-1.289063-1.035157zm0 0" fill-opacity=".235294"/><path d="m32.304688 54.457031c-.179688.796875.421874 1.609375 1.292968 1.609375h7.9375c.871094 0 1.46875-.8125 1.289063-1.609375-.128907.570313-.632813 1.035157-1.289063 1.035157h-7.9375c-.660156 0-1.164062-.464844-1.292968-1.035157zm0 0" fill-opacity=".235294"/><path d="m206.91774 168.68211c-10.811467 0-21.904158 7.186814-25.872529 19.154421l.562446-1.406116-15.873484 31.746969c-3.499666 7.030578 1.593598 15.311037 9.436599 15.311037h63.525184c7.843001 0 12.936264-8.280459 9.436599-15.311037l-15.873485-31.746969.562447 1.406116c-3.968371-11.967607-15.061062-19.154421-25.903777-19.154421zm0 0" fill="none" stroke="#212121" stroke-linecap="round" stroke-linejoin="round" stroke-width="3" transform="matrix(.125012 0 0 .125012 0 26.877566)"/><path d="m300.502553 168.68211c-10.842714 0-21.935405 7.186814-25.903776 19.154421l.562446-1.406116-15.873484 31.746969c-3.499666 7.030578 1.593598 15.311037 9.467846 15.311037h63.493937c7.843001 0 12.967511-8.280459 9.436599-15.311037l-15.873485-31.746969.593694 1.406116c-3.999618-11.967607-15.061062-19.154421-25.903777-19.154421zm0 0" fill="none" stroke="#212121" stroke-linecap="round" stroke-linejoin="round" stroke-width="3" transform="matrix(.125012 0 0 .125012 0 26.877566)"/><path d="m32.605469 5.828125c9.066406.859375 16.253906 17.628906 16.253906 38.332031v9.910156c.929687.378907 1.84375.785157 2.738281 1.222657v-11.132813c0-20.703125-8.394531-37.472656-18.992187-38.332031zm-2.359375.070313c-10.285156 1.480468-18.339844 17.984374-18.339844 38.261718v11.132813c.867188-.421875 1.75-.816407 2.648438-1.183594v-9.949219c0-20.277344 6.890624-36.78125 15.691406-38.261718zm0 0" fill="url(#o)"/></svg>