<svg xmlns="http://www.w3.org/2000/svg" width="16" height="16"><path d="M3.309 2.11a1.32 1.32 0 0 0-1.325 1.324v1.984c0 .367.297.66.66.66a.66.66 0 0 0 .665-.66V4.094c0-.367.293-.66.66-.66h1.324a.66.66 0 0 0 .66-.664.66.66 0 0 0-.66-.66zm7.277 0a.663.663 0 1 0 0 1.324h1.32a.66.66 0 0 1 .664.66v1.324c0 .367.293.66.66.66.368 0 .66-.293.66-.66V3.434a1.32 1.32 0 0 0-1.32-1.325zm-7.941 7.937a.663.663 0 0 0-.66.664v1.984c0 .73.59 1.32 1.324 1.32h1.984c.367 0 .66-.292.66-.66a.657.657 0 0 0-.66-.66H3.969a.66.66 0 0 1-.66-.664v-1.32a.664.664 0 0 0-.664-.664zm10.585 0a.66.66 0 0 0-.66.664v1.32a.664.664 0 0 1-.664.664h-1.32a.66.66 0 1 0 0 1.32h1.984c.73 0 1.32-.59 1.32-1.32v-1.984a.66.66 0 0 0-.66-.664zm0 0" fill="none" stroke-width="2.56304667" stroke-linejoin="round" stroke="#424242"/><path d="M3.309 2.11a1.32 1.32 0 0 0-1.325 1.324v1.984c0 .367.297.66.66.66a.66.66 0 0 0 .665-.66V4.094c0-.367.293-.66.66-.66h1.324a.66.66 0 0 0 .66-.664.66.66 0 0 0-.66-.66zm7.277 0a.663.663 0 1 0 0 1.324h1.32a.66.66 0 0 1 .664.66v1.324c0 .367.293.66.66.66.368 0 .66-.293.66-.66V3.434a1.32 1.32 0 0 0-1.32-1.325zm-7.941 7.937a.663.663 0 0 0-.66.664v1.984c0 .73.59 1.32 1.324 1.32h1.984c.367 0 .66-.292.66-.66a.657.657 0 0 0-.66-.66H3.969a.66.66 0 0 1-.66-.664v-1.32a.664.664 0 0 0-.664-.664zm10.585 0a.66.66 0 0 0-.66.664v1.32a.664.664 0 0 1-.664.664h-1.32a.66.66 0 1 0 0 1.32h1.984c.73 0 1.32-.59 1.32-1.32v-1.984a.66.66 0 0 0-.66-.664zm0 0" fill="#fafafa"/></svg>