<?xml version="1.0" encoding="UTF-8"?>
<svg xmlns="http://www.w3.org/2000/svg" xmlns:xlink="http://www.w3.org/1999/xlink" width="16px" height="16px" viewBox="0 0 16 16" version="1.1">
<g id="surface1">
<path style=" stroke:none;fill-rule:nonzero;fill:rgb(25.882354%,25.882354%,25.882354%);fill-opacity:1;" d="M 5.605469 2.257812 C 5.601562 2.257812 5.59375 2.257812 5.589844 2.257812 C 5.417969 2.261719 5.253906 2.332031 5.132812 2.453125 L 2.328125 5.257812 C 2.070312 5.515625 2.070312 5.933594 2.328125 6.191406 L 4.199219 8.0625 L 2.328125 9.9375 C 2.070312 10.195312 2.070312 10.609375 2.328125 10.867188 L 5.132812 13.675781 C 5.390625 13.929688 5.808594 13.929688 6.066406 13.675781 L 7.9375 11.800781 L 7.96875 11.832031 C 7.949219 11.683594 7.9375 11.527344 7.9375 11.371094 C 7.9375 9.539062 9.414062 8.0625 11.246094 8.0625 C 11.402344 8.0625 11.558594 8.074219 11.707031 8.09375 L 11.675781 8.0625 L 13.550781 6.191406 C 13.804688 5.933594 13.804688 5.515625 13.550781 5.257812 L 10.742188 2.453125 C 10.617188 2.328125 10.445312 2.257812 10.265625 2.257812 C 10.097656 2.261719 9.933594 2.332031 9.8125 2.453125 L 7.9375 4.324219 L 6.066406 2.453125 C 5.941406 2.332031 5.777344 2.261719 5.605469 2.257812 Z M 5.597656 3.847656 L 7.007812 5.257812 L 5.132812 7.132812 L 3.722656 5.722656 Z M 10.277344 3.847656 L 12.152344 5.722656 L 10.746094 7.132812 L 8.871094 5.257812 Z M 5.132812 8.996094 L 7.007812 10.871094 L 5.597656 12.277344 L 3.722656 10.402344 Z M 5.132812 8.996094 "/>
<path style=" stroke:none;fill-rule:nonzero;fill:rgb(25.882354%,25.882354%,25.882354%);fill-opacity:1;" d="M 13.679688 13.804688 C 14.390625 13.09375 14.671875 12.101562 14.503906 11.175781 C 14.46875 10.941406 14.304688 10.746094 14.082031 10.664062 C 13.859375 10.582031 13.609375 10.628906 13.429688 10.78125 C 13.246094 10.9375 13.164062 11.175781 13.210938 11.410156 C 13.300781 11.921875 13.152344 12.46875 12.75 12.875 C 12.34375 13.277344 11.796875 13.425781 11.285156 13.335938 C 11.050781 13.289062 10.8125 13.371094 10.65625 13.554688 C 10.503906 13.734375 10.457031 13.984375 10.539062 14.207031 C 10.621094 14.429688 10.816406 14.59375 11.050781 14.628906 C 11.976562 14.796875 12.96875 14.515625 13.679688 13.804688 Z M 9.765625 12.582031 C 9.917969 12.425781 9.984375 12.207031 9.945312 11.996094 C 9.851562 11.480469 10 10.933594 10.40625 10.53125 C 10.808594 10.125 11.355469 9.976562 11.871094 10.070312 C 12.101562 10.113281 12.34375 10.03125 12.496094 9.847656 C 12.648438 9.667969 12.695312 9.417969 12.613281 9.195312 C 12.53125 8.972656 12.335938 8.8125 12.101562 8.773438 C 11.175781 8.605469 10.1875 8.886719 9.472656 9.597656 C 8.761719 10.3125 8.480469 11.300781 8.648438 12.226562 C 8.6875 12.472656 8.863281 12.671875 9.097656 12.746094 C 9.335938 12.824219 9.59375 12.757812 9.765625 12.582031 Z M 9.765625 12.582031 "/>
</g>
</svg>
