<svg xmlns="http://www.w3.org/2000/svg" width="16pt" height="16pt" viewBox="0 0 16 16"><path d="M7.938 15.34A7.262 7.262 0 0 1 .66 8.063 7.262 7.262 0 0 1 7.937.785a7.262 7.262 0 0 1 7.278 7.277 7.262 7.262 0 0 1-7.277 7.278zm0-1.324c3.3 0 5.953-2.653 5.953-5.954A5.94 5.94 0 0 0 7.937 2.11a5.942 5.942 0 0 0-5.953 5.954 5.94 5.94 0 0 0 5.954 5.953zm0 0" fill="#424242"/><path d="M5.293 4.754h.66a.66.66 0 0 1 .66.664v5.293a.66.66 0 0 1-.66.66h-.66a.663.663 0 0 1-.664-.66V5.418c0-.367.297-.664.664-.664zm0 0M9.922 4.754h.664c.363 0 .66.297.66.664v5.293c0 .363-.297.66-.66.66h-.664a.662.662 0 0 1-.66-.66V5.418c0-.367.297-.664.66-.664zm0 0" fill="#42a5f5"/></svg>