
<svg xmlns="http://www.w3.org/2000/svg" xmlns:xlink="http://www.w3.org/1999/xlink" width="16px" height="16px" viewBox="0 0 16 16" version="1.1">
<g id="surface1">
<defs>
  <style id="current-color-scheme" type="text/css">
   .ColorScheme-Text { color:#424242; } .ColorScheme-Highlight { color:#eeeeee; }
  </style>
 </defs>
<path style="fill:currentColor" class="ColorScheme-Text" d="M 3 5 C 2.445312 5 2 5.445312 2 6 L 2 11 C 2 11.554688 2.445312 12 3 12 L 5.25 12 L 5.25 13 L 3 13 L 3 14 L 10 14 L 10 13 L 8 13 L 8 12 L 10 12 C 10.554688 12 11 11.554688 11 11 L 11 7 L 10 8 L 10 10.5 C 10 10.777344 9.777344 11 9.5 11 L 3.5 11 C 3.222656 11 3 10.777344 3 10.5 L 3 6.5 C 3 6.222656 3.222656 6 3.5 6 L 9 6 L 9 5 Z M 4.5 7 C 4.222656 7 4 7.222656 4 7.5 L 4 8.5 C 4 8.777344 4.222656 9 4.5 9 C 4.777344 9 5 8.777344 5 8.5 L 5 8 L 5.5 8 C 5.777344 8 6 7.777344 6 7.5 C 6 7.222656 5.777344 7 5.5 7 Z M 4.5 7 "/>
<path style=" stroke:none;fill-rule:nonzero;fill:rgb(95.686275%,26.274511%,21.176471%);fill-opacity:1;" d="M 10.234375 1.816406 L 9.523438 2.523438 L 11.292969 4.292969 L 9.523438 6.0625 L 10.234375 6.765625 L 12 5 L 13.765625 6.765625 L 14.472656 6.0625 L 12.707031 4.292969 L 14.472656 2.523438 L 13.765625 1.816406 L 12 3.585938 Z M 10.234375 1.816406 "/>
</g>
</svg>
