<?xml version="1.0" encoding="UTF-8"?>
<svg xmlns="http://www.w3.org/2000/svg" xmlns:xlink="http://www.w3.org/1999/xlink" width="16pt" height="16pt" viewBox="0 0 16 16" version="1.1">
<g id="surface1">
<path style=" stroke:none;fill-rule:nonzero;fill:rgb(25.882354%,25.882354%,25.882354%);fill-opacity:1;" d="M 8.433594 1.613281 L 8.433594 13.851562 C 8.433594 14.125 8.210938 14.347656 7.9375 14.347656 C 7.664062 14.347656 7.441406 14.125 7.441406 13.851562 L 7.441406 1.613281 C 7.441406 1.339844 7.664062 1.117188 7.9375 1.117188 C 8.210938 1.117188 8.433594 1.339844 8.433594 1.613281 Z M 8.433594 1.613281 "/>
<path style=" stroke:none;fill-rule:nonzero;fill:rgb(25.882354%,25.882354%,25.882354%);fill-opacity:0.988235;" d="M 9.261719 2.109375 C 9.261719 1.558594 9.703125 1.117188 10.253906 1.117188 L 14.222656 1.117188 C 14.773438 1.117188 15.214844 1.558594 15.214844 2.109375 L 15.214844 5.417969 C 15.214844 5.96875 14.773438 6.410156 14.222656 6.410156 L 10.253906 6.410156 C 9.703125 6.410156 9.261719 5.96875 9.261719 5.417969 Z M 10.253906 2.441406 L 10.253906 5.085938 C 10.253906 5.269531 10.402344 5.417969 10.585938 5.417969 L 13.890625 5.417969 C 14.074219 5.417969 14.222656 5.269531 14.222656 5.085938 L 14.222656 2.441406 C 14.222656 2.257812 14.074219 2.109375 13.890625 2.109375 L 10.585938 2.109375 C 10.402344 2.109375 10.253906 2.257812 10.253906 2.441406 Z M 10.253906 2.441406 "/>
<path style=" stroke:none;fill-rule:nonzero;fill:rgb(25.882354%,25.882354%,25.882354%);fill-opacity:0.988235;" d="M 9.261719 9.386719 C 9.261719 8.835938 9.703125 8.394531 10.253906 8.394531 L 13.5625 8.394531 C 14.109375 8.394531 14.554688 8.835938 14.554688 9.386719 L 14.554688 12.695312 C 14.554688 13.242188 14.109375 13.6875 13.5625 13.6875 L 10.253906 13.6875 C 9.703125 13.6875 9.261719 13.242188 9.261719 12.695312 Z M 10.253906 9.71875 L 10.253906 12.363281 C 10.253906 12.546875 10.402344 12.695312 10.585938 12.695312 L 13.230469 12.695312 C 13.414062 12.695312 13.5625 12.546875 13.5625 12.363281 L 13.5625 9.71875 C 13.5625 9.535156 13.414062 9.386719 13.230469 9.386719 L 10.585938 9.386719 C 10.402344 9.386719 10.253906 9.535156 10.253906 9.71875 Z M 10.253906 9.71875 "/>
<path style=" stroke:none;fill-rule:nonzero;fill:rgb(100%,43.921569%,26.274511%);fill-opacity:0.988235;" d="M 1.324219 9.054688 C 1.324219 8.503906 1.765625 8.0625 2.316406 8.0625 L 5.621094 8.0625 C 6.171875 8.0625 6.613281 8.503906 6.613281 9.054688 L 6.613281 13.023438 C 6.613281 13.574219 6.171875 14.015625 5.621094 14.015625 L 2.316406 14.015625 C 1.765625 14.015625 1.324219 13.574219 1.324219 13.023438 Z M 2.316406 9.386719 L 2.316406 12.695312 C 2.316406 12.878906 2.460938 13.023438 2.644531 13.023438 L 5.292969 13.023438 C 5.476562 13.023438 5.621094 12.878906 5.621094 12.695312 L 5.621094 9.386719 C 5.621094 9.203125 5.476562 9.054688 5.292969 9.054688 L 2.644531 9.054688 C 2.460938 9.054688 2.316406 9.203125 2.316406 9.386719 Z M 2.316406 9.386719 "/>
</g>
</svg>
