<svg height="16" viewBox="0 0 16 16" width="16" xmlns="http://www.w3.org/2000/svg"><g fill="#424242"><path d="m3.308594 1.449219h9.261718v1.320312h-9.261718zm0 0"/><path d="m3.308594 1.449219c.363281 0 .660156.296875.660156.660156v1.324219c0 .363281-.296875.660156-.660156.660156-.367188 0-.664063-.296875-.664063-.660156v-1.324219c0-.363281.296875-.660156.664063-.660156zm0 0"/><path d="m12.570312 1.449219c.363282 0 .660157.296875.660157.660156v1.324219c0 .363281-.296875.660156-.660157.660156-.367187 0-.664062-.296875-.664062-.660156v-1.324219c0-.363281.296875-.660156.664062-.660156zm0 0"/><path d="m7.9375 1.449219c.367188 0 .664062.296875.664062.660156v11.90625c0 .367187-.296874.664063-.664062.664063-.363281 0-.660156-.296876-.660156-.664063v-11.90625c0-.363281.296875-.660156.660156-.660156zm0 0"/><path d="m6.605469 13.355469h2.65625c.363281 0 .660156.296875.660156.660156 0 .367187-.296875.664063-.660156.664063h-2.65625c-.363281 0-.660157-.296876-.660157-.664063 0-.363281.296876-.660156.660157-.660156zm0 0"/></g></svg>