<svg height="16" viewBox="0 0 16 16" width="16" xmlns="http://www.w3.org/2000/svg"><g fill="#424242"><path d="m3.96875 8.0625c-.734375 0-1.324219.589844-1.324219 1.324219v3.96875c0 .734375.589844 1.324219 1.324219 1.324219h7.9375c.734375 0 1.324219-.589844 1.324219-1.324219v-3.96875c0-.734375-.589844-1.324219-1.324219-1.324219zm.660156 1.324219h6.617188c.367187 0 .660156.292969.660156.660156v2.648437c0 .363282-.292969.660157-.660156.660157h-6.617188c-.363281 0-.660156-.296875-.660156-.660157v-2.648437c0-.367187.296875-.660156.660156-.660156zm0 0"/><path d="m7.9375 1.449219c-2.199219 0-3.96875 1.769531-3.96875 3.96875v3.308593h1.324219v-3.308593c0-1.464844 1.179687-2.648438 2.644531-2.648438s2.648438 1.183594 2.648438 2.648438v3.308593h1.320312v-3.308593c0-2.199219-1.769531-3.96875-3.96875-3.96875zm0 0"/></g></svg>