<svg height="16" viewBox="0 0 16 16" width="16" xmlns="http://www.w3.org/2000/svg"><g fill="#424242"><path d="m12.957031 9.191406c-.257812-.257812-.675781-.257812-.9375 0l-2.507812 2.507813c-.023438.015625-.050781.035156-.070313.058593l1.417969 1.417969c.023437-.019531.042969-.046875.054687-.070312l2.511719-2.507813c.257813-.261718.257813-.679687 0-.9375zm-3.984375 3.03125-.234375.234375c-.03125.03125-.054687.070313-.074219.109375l-.699218 1.636719c-.125.285156.164062.570313.449218.449219l1.636719-.699219c.039063-.019531.078125-.042969.109375-.074219l.230469-.234375zm0 0"/><path d="m3.96875 1.453125c-.734375 0-1.324219.589844-1.324219 1.320313v10.585937c0 .730469.589844 1.320313 1.324219 1.320313h2.644531v-1.320313h-1.984375c-.363281 0-.660156-.296875-.660156-.664063v-9.257812c0-.367188.296875-.664062.660156-.664062h2.648438v-.003907h2.371094l2.261718 2.261719v2.375h-.003906v.328125h1.324219v-.328125h-.003907v-2.648438c0-.171874-.070312-.339843-.191406-.464843l-2.648437-2.644531c-.121094-.125-.289063-.195313-.464844-.195313zm0 0"/></g></svg>