<?xml version="1.0" encoding="UTF-8"?>
<svg xmlns="http://www.w3.org/2000/svg" xmlns:xlink="http://www.w3.org/1999/xlink" width="16pt" height="16pt" viewBox="0 0 16 16" version="1.1">
<g id="surface1">
<path style=" stroke:none;fill-rule:nonzero;fill:rgb(25.882354%,25.882354%,25.882354%);fill-opacity:1;" d="M 3.636719 0.785156 C 3.089844 0.785156 2.644531 1.230469 2.644531 1.777344 L 2.644531 8.0625 L 2.316406 8.0625 C 1.765625 8.0625 1.324219 8.503906 1.324219 9.054688 L 1.324219 12.03125 C 1.324219 12.582031 1.765625 13.023438 2.316406 13.023438 L 2.644531 13.023438 L 2.644531 12.03125 C 2.460938 12.03125 2.316406 11.886719 2.316406 11.703125 L 2.316406 9.386719 C 2.316406 9.203125 2.460938 9.054688 2.644531 9.054688 L 13.230469 9.054688 C 13.414062 9.054688 13.5625 9.203125 13.5625 9.386719 L 13.5625 11.703125 C 13.5625 11.886719 13.414062 12.03125 13.230469 12.03125 L 13.230469 13.023438 L 13.5625 13.023438 C 14.109375 13.023438 14.554688 12.582031 14.554688 12.03125 L 14.554688 9.054688 C 14.554688 8.503906 14.109375 8.0625 13.5625 8.0625 L 13.230469 8.0625 L 13.230469 1.777344 C 13.230469 1.230469 12.789062 0.785156 12.238281 0.785156 Z M 3.96875 1.777344 L 11.90625 1.777344 C 12.089844 1.777344 12.238281 1.925781 12.238281 2.109375 L 12.238281 8.0625 L 3.636719 8.0625 L 3.636719 2.109375 C 3.636719 1.925781 3.785156 1.777344 3.96875 1.777344 Z M 3.96875 1.777344 "/>
<path style=" stroke:none;fill-rule:nonzero;fill:rgb(47.058824%,56.470591%,61.176473%);fill-opacity:1;" d="M 3.636719 10.09375 C 3.089844 10.09375 2.644531 10.535156 2.644531 11.085938 L 2.644531 14.347656 C 2.644531 14.898438 3.089844 15.339844 3.636719 15.339844 L 12.238281 15.339844 C 12.789062 15.339844 13.230469 14.898438 13.230469 14.347656 L 13.230469 11.085938 C 13.230469 10.535156 12.789062 10.09375 12.238281 10.09375 Z M 3.96875 11.085938 L 11.90625 11.085938 C 12.089844 11.085938 12.238281 11.230469 12.238281 11.414062 L 12.238281 14.015625 C 12.238281 14.199219 12.089844 14.347656 11.90625 14.347656 L 3.96875 14.347656 C 3.785156 14.347656 3.636719 14.199219 3.636719 14.015625 L 3.636719 11.414062 C 3.636719 11.230469 3.785156 11.085938 3.96875 11.085938 Z M 3.96875 11.085938 "/>
</g>
</svg>
