<svg height="16" viewBox="0 0 16 16" width="16" xmlns="http://www.w3.org/2000/svg"><path d="m5.953125 2.113281c-.363281 0-.65625.292969-.65625.65625v2.652344h-2.652344c-.363281 0-.65625.292969-.65625.65625v3.96875c0 .363281.292969.660156.65625.660156h2.652344v2.648438c0 .363281.292969.660156.65625.660156h3.96875c.363281 0 .660156-.296875.660156-.660156v-2.648438h2.648438c.363281 0 .660156-.296875.660156-.660156v-3.96875c0-.363281-.296875-.65625-.660156-.65625h-2.648438v-2.652344c0-.363281-.296875-.65625-.660156-.65625zm.660156 1.316407h2.652344v2.648437c0 .363281.292969.660156.65625.660156h2.648437v2.652344h-2.648437c-.363281 0-.65625.292969-.65625.65625v2.648437h-2.652344v-2.648437c0-.363281-.296875-.65625-.660156-.65625h-2.648437v-2.652344h2.648437c.363281 0 .660156-.296875.660156-.660156zm0 0" fill="#424242"/></svg>