<?xml version="1.0" encoding="UTF-8"?>
<svg xmlns="http://www.w3.org/2000/svg" xmlns:xlink="http://www.w3.org/1999/xlink" width="16px" height="16px" viewBox="0 0 16 16" version="1.1">
<g id="surface1">
<path style=" stroke:none;fill-rule:nonzero;fill:rgb(25.882354%,25.882354%,25.882354%);fill-opacity:1;" d="M 7.9375 2.109375 C 4.640625 2.109375 1.984375 4.765625 1.984375 8.0625 C 1.984375 11.363281 4.640625 14.015625 7.9375 14.015625 L 7.9375 12.695312 C 5.371094 12.695312 3.308594 10.628906 3.308594 8.0625 C 3.308594 5.496094 5.371094 3.433594 7.9375 3.433594 Z M 7.9375 2.109375 "/>
<path style=" stroke:none;fill-rule:nonzero;fill:rgb(25.882354%,25.882354%,25.882354%);fill-opacity:1;" d="M 7.9375 2.109375 C 8.304688 2.109375 8.601562 2.40625 8.601562 2.769531 L 8.601562 13.355469 C 8.601562 13.722656 8.304688 14.015625 7.9375 14.015625 C 7.574219 14.015625 7.277344 13.722656 7.277344 13.355469 L 7.277344 2.769531 C 7.277344 2.40625 7.574219 2.109375 7.9375 2.109375 Z M 7.9375 2.109375 "/>
</g>
</svg>
