<svg height="16" viewBox="0 0 16 16" width="16" xmlns="http://www.w3.org/2000/svg"><g fill="#424242"><path d="m7.9375 7.40625c-.363281 0-.65625.292969-.65625.65625v5.953125c0 .363281.292969.660156.65625.660156h4.632812c.363282 0 .65625-.296875.65625-.660156v-4.628906c0-.175781-.070312-.34375-.191406-.464844l-1.324218-1.324219c-.121094-.125-.289063-.191406-.464844-.191406zm.660156 1.316406h2.375l.9375.9375v3.699219h-3.3125zm0 0"/><path d="m3.96875 1.449219c-.734375 0-1.324219.589843-1.324219 1.320312v10.585938c0 .734375.589844 1.324219 1.324219 1.324219h1.984375v-1.324219h-1.324219c-.363281 0-.660156-.296875-.660156-.660157v-9.261718c0-.367188.296875-.664063.660156-.664063h5.019532l2.261718 2.257813v1.050781h1.316406v-1.324219c0-.171875-.070312-.339844-.191406-.464844l-2.648437-2.644531c-.121094-.125-.289063-.191406-.464844-.191406h-2.644531v-.003906zm0 0"/></g></svg>