<?xml version="1.0" encoding="UTF-8"?>
<svg xmlns="http://www.w3.org/2000/svg" xmlns:xlink="http://www.w3.org/1999/xlink" width="16px" height="16px" viewBox="0 0 16 16" version="1.1">
<g id="surface1">
<path style=" stroke:none;fill-rule:nonzero;fill:rgb(25.882354%,25.882354%,25.882354%);fill-opacity:1;" d="M 9.921875 1.449219 L 9.921875 6.078125 L 14.554688 6.078125 L 14.554688 2.109375 C 14.554688 1.742188 14.257812 1.449219 13.890625 1.449219 Z M 11.246094 2.769531 L 12.898438 2.769531 C 13.082031 2.769531 13.230469 2.917969 13.230469 3.101562 L 13.230469 4.753906 L 11.246094 4.753906 Z M 11.246094 2.769531 "/>
<path style=" stroke:none;fill-rule:nonzero;fill:rgb(25.882354%,25.882354%,25.882354%);fill-opacity:1;" d="M 5.953125 1.449219 L 5.953125 6.078125 L 1.324219 6.078125 L 1.324219 2.109375 C 1.324219 1.742188 1.617188 1.449219 1.984375 1.449219 Z M 4.628906 2.769531 L 2.976562 2.769531 C 2.792969 2.769531 2.644531 2.917969 2.644531 3.101562 L 2.644531 4.753906 L 4.628906 4.753906 Z M 4.628906 2.769531 "/>
<path style=" stroke:none;fill-rule:nonzero;fill:rgb(25.882354%,25.882354%,25.882354%);fill-opacity:1;" d="M 5.953125 14.679688 L 5.953125 10.046875 L 1.324219 10.046875 L 1.324219 14.015625 C 1.324219 14.382812 1.617188 14.679688 1.984375 14.679688 Z M 4.628906 13.355469 L 2.976562 13.355469 C 2.792969 13.355469 2.644531 13.207031 2.644531 13.023438 L 2.644531 11.371094 L 4.628906 11.371094 Z M 4.628906 13.355469 "/>
<path style=" stroke:none;fill-rule:nonzero;fill:rgb(25.882354%,25.882354%,25.882354%);fill-opacity:1;" d="M 5.292969 11.703125 L 8.601562 11.703125 L 8.601562 13.023438 L 5.292969 13.023438 Z M 5.292969 11.703125 "/>
<path style=" stroke:none;fill-rule:nonzero;fill:rgb(25.882354%,25.882354%,25.882354%);fill-opacity:1;" d="M 5.292969 3.101562 L 10.585938 3.101562 L 10.585938 4.425781 L 5.292969 4.425781 Z M 5.292969 3.101562 "/>
<path style=" stroke:none;fill-rule:nonzero;fill:rgb(25.882354%,25.882354%,25.882354%);fill-opacity:1;" d="M 4.300781 5.417969 L 4.300781 10.710938 L 2.976562 10.710938 L 2.976562 5.417969 Z M 4.300781 5.417969 "/>
<path style=" stroke:none;fill-rule:nonzero;fill:rgb(25.882354%,25.882354%,25.882354%);fill-opacity:1;" d="M 12.898438 5.417969 L 12.898438 8.726562 L 11.578125 8.726562 L 11.578125 5.417969 Z M 12.898438 5.417969 "/>
<path style=" stroke:none;fill-rule:nonzero;fill:rgb(25.882354%,25.882354%,25.882354%);fill-opacity:1;" d="M 10.253906 11.703125 L 14.222656 11.703125 C 14.40625 11.703125 14.554688 11.851562 14.554688 12.03125 L 14.554688 12.695312 C 14.554688 12.875 14.40625 13.023438 14.222656 13.023438 L 10.253906 13.023438 C 10.070312 13.023438 9.921875 12.875 9.921875 12.695312 L 9.921875 12.03125 C 9.921875 11.851562 10.070312 11.703125 10.253906 11.703125 Z M 10.253906 11.703125 "/>
<path style=" stroke:none;fill-rule:nonzero;fill:rgb(25.882354%,25.882354%,25.882354%);fill-opacity:1;" d="M 12.898438 10.378906 L 12.898438 14.347656 C 12.898438 14.53125 12.75 14.679688 12.570312 14.679688 L 11.90625 14.679688 C 11.726562 14.679688 11.578125 14.53125 11.578125 14.347656 L 11.578125 10.378906 C 11.578125 10.195312 11.726562 10.046875 11.90625 10.046875 L 12.570312 10.046875 C 12.75 10.046875 12.898438 10.195312 12.898438 10.378906 Z M 12.898438 10.378906 "/>
</g>
</svg>
