<svg height="16" viewBox="0 0 16 16" width="16" xmlns="http://www.w3.org/2000/svg"><g fill="#424242"><path d="m1.324219 8.394531v-.660156c0-.183594.148437-.332031.328125-.332031h.664062c.179688 0 .328125.148437.328125.332031v.660156c0 .183594-.148437.332031-.328125.332031h-.664062c-.179688 0-.328125-.148437-.328125-.332031zm0 0"/><path d="m13.230469 8.394531v-.660156c0-.183594.148437-.332031.332031-.332031h.660156c.183594 0 .332032.148437.332032.332031v.660156c0 .183594-.148438.332031-.332032.332031h-.660156c-.183594 0-.332031-.148437-.332031-.332031zm0 0"/><path d="m7.929688 1.453125c-.320313.003906-.589844.234375-.640626.546875l-1.417968 8.496094-1.257813-5.878906c-.066406-.304688-.335937-.523438-.648437-.519532-.3125 0-.578125.222656-.640625.527344l-.554688 2.78125h-.453125c-.238281-.003906-.460937.121094-.578125.324219-.121093.207031-.121093.460937 0 .664062.117188.207031.339844.332031.578125.328125h.992188c.3125 0 .582031-.222656.644531-.53125l.039063-.191406 1.316406 6.15625c.066406.308594.34375.527344.660156.519531.316406-.007812.582031-.238281.632812-.550781l1.375-8.238281 1.300782 6.929687c.054687.296875.308594.519532.609375.535156.304687.015626.578125-.175781.667969-.46875l1.386718-4.621093.003906.007812c.089844.269531.339844.453125.625.453125h1.320313c.238281.003906.460937-.121094.578125-.328125.121094-.203125.121094-.457031 0-.664062-.117188-.203125-.339844-.328125-.578125-.324219h-.847656l-.511719-1.535156c-.089844-.273438-.347656-.453125-.632812-.449219-.289063.003906-.539063.191406-.621094.46875l-1.207032 4.019531-1.484374-7.921875c-.058594-.316406-.335938-.542969-.65625-.535156zm0 0"/></g></svg>