<?xml version="1.0" encoding="UTF-8"?>
<svg xmlns="http://www.w3.org/2000/svg" xmlns:xlink="http://www.w3.org/1999/xlink" width="16pt" height="16pt" viewBox="0 0 16 16" version="1.1">
<g id="surface1">
<path style=" stroke:none;fill-rule:nonzero;fill:rgb(25.882354%,25.882354%,25.882354%);fill-opacity:1;" d="M 13.890625 2.109375 C 14.625 2.109375 15.214844 2.699219 15.214844 3.433594 L 15.214844 13.023438 C 15.214844 13.757812 14.625 14.347656 13.890625 14.347656 L 6.285156 14.347656 L 6.285156 13.355469 L 13.5625 13.355469 C 13.925781 13.355469 14.222656 13.058594 14.222656 12.695312 L 14.222656 3.867188 L 8.320312 9.152344 C 8.101562 9.34375 7.773438 9.34375 7.558594 9.152344 L 1.652344 3.867188 L 1.652344 8.726562 L 0.660156 8.726562 L 0.660156 3.433594 C 0.660156 2.699219 1.25 2.109375 1.984375 2.109375 Z M 13.367188 3.101562 L 2.511719 3.101562 L 7.9375 7.957031 Z M 13.367188 3.101562 "/>
<path style=" stroke:none;fill-rule:nonzero;fill:rgb(100%,43.921569%,26.274511%);fill-opacity:1;" d="M 4.417969 9.414062 C 4.546875 9.40625 4.671875 9.453125 4.761719 9.542969 C 4.855469 9.632812 4.90625 9.753906 4.90625 9.882812 L 4.90625 13.851562 C 4.90625 14.019531 4.816406 14.175781 4.667969 14.257812 C 4.523438 14.339844 4.339844 14.339844 4.195312 14.253906 L 0.890625 12.269531 C 0.746094 12.183594 0.660156 12.03125 0.660156 11.867188 C 0.660156 11.703125 0.746094 11.546875 0.890625 11.464844 L 4.195312 9.480469 C 4.265625 9.4375 4.339844 9.417969 4.417969 9.414062 Z M 3.96875 10.710938 L 2.042969 11.867188 L 3.96875 13.023438 Z M 3.96875 10.710938 "/>
</g>
</svg>
