<?xml version="1.0" encoding="UTF-8"?>
<svg xmlns="http://www.w3.org/2000/svg" xmlns:xlink="http://www.w3.org/1999/xlink" width="16px" height="16px" viewBox="0 0 16 16" version="1.1">
<g id="surface1">
<path style=" stroke:none;fill-rule:nonzero;fill:rgb(25.882354%,25.882354%,25.882354%);fill-opacity:1;" d="M 4.300781 1.449219 L 1.984375 4.753906 L 3.640625 4.753906 C 3.640625 5.824219 4.265625 6.65625 5.035156 7.25 C 5.28125 7.441406 5.550781 7.617188 5.824219 7.785156 C 6.285156 7.503906 6.757812 7.265625 7.207031 7.039062 C 6.683594 6.765625 6.207031 6.492188 5.839844 6.207031 C 5.242188 5.746094 4.957031 5.339844 4.957031 4.753906 L 6.613281 4.753906 Z M 8.34375 7.941406 C 8.210938 8.011719 8.074219 8.078125 7.9375 8.144531 C 7.78125 8.222656 7.625 8.304688 7.472656 8.382812 C 7.625 8.304688 7.78125 8.222656 7.9375 8.144531 C 8.074219 8.078125 8.210938 8.011719 8.34375 7.941406 Z M 10.035156 8.554688 C 9.574219 8.808594 9.101562 9.039062 8.652344 9.261719 C 9.167969 9.550781 9.636719 9.851562 10 10.175781 C 10.59375 10.707031 10.917969 11.242188 10.917969 12.03125 L 10.914062 12.03125 L 10.914062 14.347656 C 10.914062 14.53125 11.0625 14.679688 11.246094 14.679688 L 11.90625 14.679688 C 12.089844 14.679688 12.238281 14.53125 12.238281 14.347656 L 12.238281 12.03125 L 12.234375 12.03125 C 12.234375 10.839844 11.652344 9.886719 10.878906 9.195312 C 10.617188 8.960938 10.332031 8.75 10.035156 8.554688 Z M 10.035156 8.554688 "/>
<path style=" stroke:none;fill-rule:nonzero;fill:rgb(25.882354%,25.882354%,25.882354%);fill-opacity:1;" d="M 11.578125 1.449219 L 9.261719 4.753906 L 10.917969 4.753906 C 10.917969 5.339844 10.632812 5.746094 10.035156 6.207031 C 9.441406 6.667969 8.558594 7.097656 7.644531 7.558594 C 6.726562 8.015625 5.769531 8.503906 5 9.195312 C 4.226562 9.886719 3.640625 10.839844 3.640625 12.03125 L 3.636719 12.03125 L 3.636719 14.347656 C 3.636719 14.53125 3.785156 14.679688 3.96875 14.679688 L 4.628906 14.679688 C 4.8125 14.679688 4.960938 14.53125 4.960938 14.347656 L 4.960938 12.03125 L 4.957031 12.03125 C 4.957031 11.242188 5.285156 10.707031 5.875 10.175781 C 6.46875 9.648438 7.332031 9.1875 8.234375 8.734375 C 9.136719 8.285156 10.074219 7.84375 10.84375 7.25 C 11.609375 6.65625 12.234375 5.824219 12.234375 4.753906 L 13.890625 4.753906 Z M 11.578125 1.449219 "/>
</g>
</svg>
