<?xml version="1.0" encoding="UTF-8"?>
<svg xmlns="http://www.w3.org/2000/svg" xmlns:xlink="http://www.w3.org/1999/xlink" width="16px" height="16px" viewBox="0 0 16 16" version="1.1">
<g id="surface1">
<path style=" stroke:none;fill-rule:nonzero;fill:rgb(47.058824%,56.470591%,61.176473%);fill-opacity:1;" d="M 6.644531 1.449219 L 3.96875 6.085938 L 3.96875 6.410156 L 4.164062 6.410156 L 7.027344 1.449219 Z M 7.96875 1.449219 L 5.105469 6.410156 L 5.488281 6.410156 L 8.351562 1.449219 Z M 9.292969 1.449219 L 6.425781 6.410156 L 6.808594 6.410156 L 9.675781 1.449219 Z M 10.613281 1.449219 L 7.75 6.410156 L 8.132812 6.410156 L 10.996094 1.449219 Z M 11.9375 1.449219 L 9.074219 6.410156 L 9.457031 6.410156 L 12.320312 1.449219 Z M 13.261719 1.449219 L 10.398438 6.410156 L 10.585938 6.410156 C 10.648438 6.410156 10.710938 6.414062 10.769531 6.421875 L 13.644531 1.449219 Z M 14.5 1.59375 L 11.503906 6.78125 C 11.589844 6.863281 11.664062 6.957031 11.726562 7.0625 L 14.773438 1.78125 C 14.691406 1.710938 14.597656 1.644531 14.5 1.59375 Z M 15.203125 2.589844 L 11.90625 8.300781 L 11.90625 8.960938 L 15.214844 3.230469 L 15.214844 2.769531 C 15.214844 2.710938 15.210938 2.648438 15.203125 2.589844 Z M 15.214844 4.9375 L 12.457031 9.71875 L 12.839844 9.71875 L 15.214844 5.601562 Z M 15.214844 4.9375 "/>
<path style=" stroke:none;fill-rule:nonzero;fill:rgb(47.058824%,56.470591%,61.176473%);fill-opacity:1;" d="M 5.292969 1.449219 C 4.558594 1.449219 3.96875 2.039062 3.96875 2.769531 L 3.96875 7.402344 L 4.960938 7.402344 L 4.960938 3.101562 C 4.960938 2.734375 5.257812 2.441406 5.621094 2.441406 L 13.5625 2.441406 C 13.925781 2.441406 14.222656 2.734375 14.222656 3.101562 L 14.222656 8.0625 C 14.222656 8.429688 13.925781 8.726562 13.5625 8.726562 L 10.914062 8.726562 L 10.914062 9.71875 L 13.890625 9.71875 C 14.625 9.71875 15.214844 9.128906 15.214844 8.394531 L 15.214844 2.769531 C 15.214844 2.039062 14.625 1.449219 13.890625 1.449219 Z M 5.292969 1.449219 "/>
<path style=" stroke:none;fill-rule:nonzero;fill:rgb(25.882354%,25.882354%,25.882354%);fill-opacity:1;" d="M 1.984375 6.410156 C 1.25 6.410156 0.660156 7 0.660156 7.734375 L 0.660156 13.355469 C 0.660156 14.089844 1.25 14.679688 1.984375 14.679688 L 10.585938 14.679688 C 11.316406 14.679688 11.90625 14.089844 11.90625 13.355469 L 11.90625 7.734375 C 11.90625 7 11.316406 6.410156 10.585938 6.410156 Z M 2.316406 7.402344 L 10.253906 7.402344 C 10.621094 7.402344 10.914062 7.695312 10.914062 8.0625 L 10.914062 13.023438 C 10.914062 13.390625 10.621094 13.6875 10.253906 13.6875 L 2.316406 13.6875 C 1.949219 13.6875 1.652344 13.390625 1.652344 13.023438 L 1.652344 8.0625 C 1.652344 7.695312 1.949219 7.402344 2.316406 7.402344 Z M 2.316406 7.402344 "/>
</g>
</svg>
