<?xml version="1.0" encoding="UTF-8"?>
<svg xmlns="http://www.w3.org/2000/svg" xmlns:xlink="http://www.w3.org/1999/xlink" width="16px" height="16px" viewBox="0 0 16 16" version="1.1">
<g id="surface1">
<path style=" stroke:none;fill-rule:nonzero;fill:rgb(25.882354%,25.882354%,25.882354%);fill-opacity:1;" d="M 3.96875 5.417969 C 4.703125 5.417969 5.292969 4.828125 5.292969 4.09375 L 5.292969 1.449219 L 3.96875 1.449219 L 3.96875 3.433594 C 3.96875 3.800781 3.675781 4.09375 3.308594 4.09375 L 1.324219 4.09375 L 1.324219 5.417969 Z M 3.96875 5.417969 "/>
<path style=" stroke:none;fill-rule:nonzero;fill:rgb(25.882354%,25.882354%,25.882354%);fill-opacity:1;" d="M 14.554688 5.417969 L 14.554688 4.09375 L 12.570312 4.09375 C 12.203125 4.09375 11.90625 3.800781 11.90625 3.433594 L 11.90625 1.449219 L 10.585938 1.449219 L 10.585938 4.09375 C 10.585938 4.828125 11.175781 5.417969 11.90625 5.417969 Z M 14.554688 5.417969 "/>
<path style=" stroke:none;fill-rule:nonzero;fill:rgb(25.882354%,25.882354%,25.882354%);fill-opacity:1;" d="M 5.292969 14.679688 L 5.292969 12.03125 C 5.292969 11.300781 4.703125 10.710938 3.96875 10.710938 L 1.324219 10.710938 L 1.324219 12.03125 L 3.308594 12.03125 C 3.675781 12.03125 3.96875 12.328125 3.96875 12.695312 L 3.96875 14.679688 Z M 5.292969 14.679688 "/>
<path style=" stroke:none;fill-rule:nonzero;fill:rgb(25.882354%,25.882354%,25.882354%);fill-opacity:1;" d="M 11.90625 14.679688 L 11.90625 12.695312 C 11.90625 12.328125 12.203125 12.03125 12.570312 12.03125 L 14.554688 12.03125 L 14.554688 10.710938 L 11.90625 10.710938 C 11.175781 10.710938 10.585938 11.300781 10.585938 12.03125 L 10.585938 14.679688 Z M 11.90625 14.679688 "/>
</g>
</svg>
