<?xml version="1.0" encoding="UTF-8"?>
<svg xmlns="http://www.w3.org/2000/svg" xmlns:xlink="http://www.w3.org/1999/xlink" width="16pt" height="16pt" viewBox="0 0 16 16" version="1.1">
<g id="surface1">
<path style=" stroke:none;fill-rule:nonzero;fill:rgb(25.882354%,25.882354%,25.882354%);fill-opacity:1;" d="M 1.984375 0.785156 C 1.25 0.785156 0.660156 1.375 0.660156 2.109375 L 0.660156 14.015625 C 0.660156 14.75 1.25 15.339844 1.984375 15.339844 L 13.890625 15.339844 C 14.625 15.339844 15.214844 14.75 15.214844 14.015625 L 15.214844 2.109375 C 15.214844 1.375 14.625 0.785156 13.890625 0.785156 Z M 2.316406 1.777344 L 13.5625 1.777344 C 13.925781 1.777344 14.222656 2.074219 14.222656 2.441406 L 14.222656 13.6875 C 14.222656 14.050781 13.925781 14.347656 13.5625 14.347656 L 2.316406 14.347656 C 1.949219 14.347656 1.652344 14.050781 1.652344 13.6875 L 1.652344 2.441406 C 1.652344 2.074219 1.949219 1.777344 2.316406 1.777344 Z M 2.316406 1.777344 "/>
<path style=" stroke:none;fill-rule:nonzero;fill:rgb(25.882354%,64.705884%,96.078432%);fill-opacity:1;" d="M 6.769531 6.195312 L 9.808594 9.234375 C 10.003906 9.429688 10.015625 9.730469 9.839844 9.90625 L 9.777344 9.96875 C 9.601562 10.144531 9.300781 10.132812 9.109375 9.9375 L 6.066406 6.898438 C 5.875 6.703125 5.859375 6.402344 6.039062 6.226562 L 6.097656 6.164062 C 6.273438 5.988281 6.574219 6 6.769531 6.195312 Z M 6.769531 6.195312 "/>
<path style=" stroke:none;fill-rule:nonzero;fill:rgb(25.882354%,64.705884%,96.078432%);fill-opacity:1;" d="M 6.066406 9.234375 L 9.109375 6.195312 C 9.300781 6 9.601562 5.988281 9.777344 6.164062 L 9.839844 6.226562 C 10.015625 6.402344 10.003906 6.703125 9.808594 6.898438 L 6.769531 9.9375 C 6.574219 10.132812 6.273438 10.144531 6.097656 9.96875 L 6.039062 9.90625 C 5.859375 9.730469 5.875 9.429688 6.066406 9.234375 Z M 6.066406 9.234375 "/>
</g>
</svg>
