<?xml version="1.0" encoding="UTF-8"?>
<svg xmlns="http://www.w3.org/2000/svg" xmlns:xlink="http://www.w3.org/1999/xlink" width="16pt" height="16pt" viewBox="0 0 16 16" version="1.1">
<g id="surface1">
<path style=" stroke:none;fill-rule:nonzero;fill:rgb(25.882354%,25.882354%,25.882354%);fill-opacity:1;" d="M 0.660156 0.785156 L 0.660156 3.433594 L 1.984375 3.433594 L 1.984375 2.109375 L 3.308594 2.109375 L 3.308594 0.785156 Z M 12.570312 0.785156 L 12.570312 2.109375 L 13.890625 2.109375 L 13.890625 3.433594 L 15.214844 3.433594 L 15.214844 0.785156 Z M 0.660156 12.695312 L 0.660156 15.339844 L 3.308594 15.339844 L 3.308594 14.015625 L 1.984375 14.015625 L 1.984375 12.695312 Z M 13.890625 12.695312 L 13.890625 14.015625 L 12.570312 14.015625 L 12.570312 15.339844 L 15.214844 15.339844 L 15.214844 12.695312 Z M 13.890625 12.695312 "/>
<path style=" stroke:none;fill-rule:evenodd;fill:rgb(25.882354%,25.882354%,25.882354%);fill-opacity:1;" d="M 0.660156 8.0625 L 2.644531 6.078125 L 2.644531 10.046875 Z M 0.660156 8.0625 "/>
<path style=" stroke:none;fill-rule:evenodd;fill:rgb(25.882354%,25.882354%,25.882354%);fill-opacity:1;" d="M 15.214844 8.0625 L 13.230469 10.046875 L 13.230469 6.078125 Z M 15.214844 8.0625 "/>
<path style=" stroke:none;fill-rule:nonzero;fill:rgb(25.882354%,25.882354%,25.882354%);fill-opacity:1;" d="M 3.96875 4.09375 L 3.96875 12.03125 L 11.90625 12.03125 L 11.90625 4.09375 Z M 5.292969 5.417969 L 10.585938 5.417969 L 10.585938 10.710938 L 5.292969 10.710938 Z M 5.292969 5.417969 "/>
</g>
</svg>
