<?xml version="1.0" encoding="UTF-8"?>
<svg xmlns="http://www.w3.org/2000/svg" xmlns:xlink="http://www.w3.org/1999/xlink" width="16px" height="16px" viewBox="0 0 16 16" version="1.1">
<g id="surface1">
<path style=" stroke:none;fill-rule:nonzero;fill:rgb(25.882354%,25.882354%,25.882354%);fill-opacity:1;" d="M 2.644531 1.449219 C 1.914062 1.449219 1.324219 2.039062 1.324219 2.769531 L 1.324219 5.417969 L 2.644531 5.417969 L 2.644531 3.433594 C 2.644531 3.066406 2.941406 2.769531 3.308594 2.769531 L 5.292969 2.769531 L 5.292969 1.449219 Z M 13.230469 10.710938 L 13.230469 12.695312 C 13.230469 13.058594 12.933594 13.355469 12.570312 13.355469 L 10.585938 13.355469 L 10.585938 14.679688 L 13.230469 14.679688 C 13.964844 14.679688 14.554688 14.089844 14.554688 13.355469 L 14.554688 10.710938 Z M 13.230469 10.710938 "/>
<path style=" stroke:none;fill-rule:nonzero;fill:rgb(25.882354%,25.882354%,25.882354%);fill-opacity:1;" d="M 9.921875 1.449219 C 9.554688 1.449219 9.261719 1.742188 9.261719 2.109375 L 9.261719 6.078125 C 9.261719 6.445312 9.554688 6.738281 9.921875 6.738281 L 13.890625 6.738281 C 14.257812 6.738281 14.554688 6.445312 14.554688 6.078125 L 14.554688 2.109375 C 14.554688 1.742188 14.257812 1.449219 13.890625 1.449219 Z M 10.914062 2.769531 L 12.898438 2.769531 C 13.082031 2.769531 13.230469 2.917969 13.230469 3.101562 L 13.230469 5.085938 C 13.230469 5.269531 13.082031 5.417969 12.898438 5.417969 L 10.914062 5.417969 C 10.730469 5.417969 10.585938 5.269531 10.585938 5.085938 L 10.585938 3.101562 C 10.585938 2.917969 10.730469 2.769531 10.914062 2.769531 Z M 10.914062 2.769531 "/>
<path style=" stroke:none;fill-rule:nonzero;fill:rgb(25.882354%,25.882354%,25.882354%);fill-opacity:1;" d="M 4.300781 13.023438 L 4.300781 11.703125 L 7.597656 11.703125 C 7.78125 11.703125 7.929688 11.847656 7.929688 12.03125 L 7.929688 12.695312 C 7.929688 12.878906 7.78125 13.023438 7.597656 13.023438 Z M 4.300781 13.023438 "/>
<path style=" stroke:none;fill-rule:nonzero;fill:rgb(25.882354%,25.882354%,25.882354%);fill-opacity:1;" d="M 4.628906 10.046875 L 4.628906 14.679688 L 1.324219 12.363281 Z M 4.628906 10.046875 "/>
</g>
</svg>
