<svg xmlns="http://www.w3.org/2000/svg" width="32" height="32" viewBox="0 0 24 24"><path d="M1.984 1.918a.751.751 0 1 0 0 1.5h1.891L7.211 17.23a.732.732 0 0 0 .516.551.748.748 0 0 0 .941-.902l-.375-1.555h11.55a.753.753 0 0 0 .731-.566L22.56 6.82a.761.761 0 0 0-.137-.644.748.748 0 0 0-.59-.29H6.016l-.82-3.394a.752.752 0 0 0-.731-.574zm4.391 5.469h14.496l-1.61 6.437H7.93zm0 0" fill="#78909c"/><path d="M8.434 17.055c-1.48 0-2.7 1.07-2.934 2.48h-.785a.744.744 0 0 0-.746.746c0 .414.332.746.746.746h.91a2.972 2.972 0 0 0 2.809 1.985 2.973 2.973 0 0 0 2.816-2.004c.05.012.105.02.16.02h2.977a.726.726 0 0 0 .164-.02 2.972 2.972 0 0 0 2.812 2.004c1.301 0 2.403-.828 2.809-1.985h.914a.744.744 0 0 0 .746-.746.744.744 0 0 0-.746-.746H20.3a2.972 2.972 0 0 0-2.938-2.48c-1.48 0-2.699 1.07-2.933 2.484-.016 0-.028-.004-.043-.004H11.41c-.012 0-.027.004-.039.004a2.971 2.971 0 0 0-2.937-2.484zm0 1.488c.824 0 1.488.664 1.488 1.488 0 .828-.664 1.492-1.488 1.492a1.486 1.486 0 0 1-1.489-1.492c0-.824.664-1.488 1.489-1.488zm8.93 0c.827 0 1.488.664 1.488 1.488 0 .828-.66 1.492-1.489 1.492a1.486 1.486 0 0 1-1.488-1.492c0-.824.664-1.488 1.488-1.488zm0 0" fill="#424242"/></svg>