
<svg xmlns="http://www.w3.org/2000/svg" xmlns:xlink="http://www.w3.org/1999/xlink" width="24px" height="24px" viewBox="0 0 24 24" version="1.1">
<g id="surface1">
<path style=" stroke:none;fill-rule:nonzero;fill:rgb(95.686275%,26.274511%,21.176471%);fill-opacity:1;" d="M 12.019531 4.5 C 11.75 4.496094 11.5 4.632812 11.363281 4.859375 L 3.113281 18.359375 C 2.972656 18.589844 2.964844 18.878906 3.097656 19.117188 C 3.230469 19.351562 3.480469 19.5 3.75 19.5 L 20.25 19.5 C 20.519531 19.5 20.769531 19.351562 20.902344 19.117188 C 21.035156 18.878906 21.027344 18.589844 20.886719 18.359375 L 12.636719 4.859375 C 12.507812 4.640625 12.273438 4.507812 12.019531 4.5 Z M 12 6.683594 L 18.914062 18 L 5.085938 18 Z M 12 6.683594 "/>
<defs>
  <style id="current-color-scheme" type="text/css">
   .ColorScheme-Text { color:#424242; } .ColorScheme-Highlight { color:#eeeeee; }
  </style>
 </defs>
<path style="fill:currentColor" class="ColorScheme-Text" d="M 11.25 9 L 11.25 13.5 L 12.75 13.5 L 12.75 9 Z M 11.25 15 L 11.25 16.5 L 12.75 16.5 L 12.75 15 Z M 11.25 15 "/>
</g>
</svg>
