<?xml version="1.0" encoding="UTF-8"?>
<svg xmlns="http://www.w3.org/2000/svg" xmlns:xlink="http://www.w3.org/1999/xlink" width="24px" height="24px" viewBox="0 0 24 24" version="1.1">
<g id="surface1">
<path style=" stroke:none;fill-rule:nonzero;fill:rgb(25.882354%,25.882354%,25.882354%);fill-opacity:1;" d="M 3.964844 2.171875 C 2.863281 2.171875 1.980469 3.058594 1.980469 4.15625 L 1.980469 20.03125 C 1.980469 21.132812 2.863281 22.019531 3.964844 22.019531 L 15.871094 22.019531 C 16.972656 22.019531 17.855469 21.132812 17.855469 20.03125 L 17.855469 19.039062 L 15.871094 19.039062 C 15.871094 19.589844 15.429688 20.03125 14.878906 20.03125 L 4.957031 20.03125 C 4.40625 20.03125 3.964844 19.589844 3.964844 19.039062 L 3.964844 5.148438 C 3.964844 4.597656 4.40625 4.15625 4.957031 4.15625 L 8.925781 4.15625 L 8.925781 4.152344 L 12.484375 4.152344 L 15.875 7.542969 L 15.875 8.125 L 17.851562 8.125 L 17.851562 7.132812 C 17.851562 6.871094 17.746094 6.621094 17.5625 6.433594 L 13.59375 2.464844 C 13.40625 2.28125 13.15625 2.175781 12.894531 2.175781 L 8.925781 2.175781 L 8.925781 2.171875 Z M 3.964844 2.171875 "/>
<path style=" stroke:none;fill-rule:nonzero;fill:rgb(25.882354%,25.882354%,25.882354%);fill-opacity:1;" d="M 17.363281 12.589844 L 17.363281 14.574219 L 12.417969 14.574219 C 12.140625 14.574219 11.921875 14.355469 11.921875 14.078125 L 11.921875 13.085938 C 11.921875 12.8125 12.140625 12.589844 12.417969 12.589844 Z M 17.363281 12.589844 "/>
<path style=" stroke:none;fill-rule:nonzero;fill:rgb(25.882354%,25.882354%,25.882354%);fill-opacity:1;" d="M 16.867188 17.054688 L 16.867188 10.109375 L 21.832031 13.582031 Z M 16.867188 17.054688 "/>
</g>
</svg>
