<?xml version="1.0" encoding="UTF-8"?>
<svg xmlns="http://www.w3.org/2000/svg" xmlns:xlink="http://www.w3.org/1999/xlink" width="24px" height="24px" viewBox="0 0 24 24" version="1.1">
<g id="surface1">
<path style=" stroke:none;fill-rule:nonzero;fill:rgb(95.686275%,26.274511%,21.176471%);fill-opacity:1;" d="M 19.082031 15.546875 L 19.78125 16.25 C 19.976562 16.441406 19.976562 16.757812 19.78125 16.949219 L 14.871094 21.863281 C 14.675781 22.054688 14.363281 22.054688 14.167969 21.863281 L 13.46875 21.160156 C 13.273438 20.964844 13.273438 20.652344 13.46875 20.457031 L 18.378906 15.546875 C 18.570312 15.351562 18.886719 15.351562 19.082031 15.546875 Z M 19.082031 15.546875 "/>
<path style=" stroke:none;fill-rule:nonzero;fill:rgb(95.686275%,26.274511%,21.176471%);fill-opacity:1;" d="M 19.78125 21.160156 L 19.082031 21.863281 C 18.886719 22.054688 18.570312 22.054688 18.378906 21.863281 L 13.46875 16.949219 C 13.273438 16.757812 13.273438 16.441406 13.46875 16.25 L 14.167969 15.546875 C 14.363281 15.351562 14.675781 15.351562 14.871094 15.546875 L 19.78125 20.457031 C 19.976562 20.652344 19.976562 20.964844 19.78125 21.160156 Z M 19.78125 21.160156 "/>
<path style=" stroke:none;fill-rule:nonzero;fill:rgb(25.882354%,25.882354%,25.882354%);fill-opacity:1;" d="M 5.953125 2.171875 C 4.855469 2.171875 3.96875 3.058594 3.96875 4.15625 L 3.96875 20.03125 C 3.96875 21.132812 4.855469 22.019531 5.953125 22.019531 L 11.410156 22.019531 L 11.410156 20.03125 L 6.945312 20.03125 C 6.394531 20.03125 5.953125 19.589844 5.953125 19.039062 L 5.953125 5.148438 C 5.953125 4.597656 6.394531 4.15625 6.945312 4.15625 L 10.914062 4.15625 L 10.914062 4.152344 L 14.476562 4.152344 L 17.867188 7.542969 L 17.867188 11.101562 L 17.859375 11.101562 L 17.859375 13.582031 L 19.84375 13.582031 L 19.84375 11.101562 L 19.839844 11.101562 L 19.839844 7.132812 C 19.839844 6.871094 19.738281 6.621094 19.550781 6.433594 L 15.582031 2.464844 C 15.398438 2.28125 15.144531 2.175781 14.882812 2.175781 L 10.914062 2.175781 L 10.914062 2.171875 Z M 5.953125 2.171875 "/>
</g>
</svg>
