<svg height="24" viewBox="0 0 24 24" width="24" xmlns="http://www.w3.org/2000/svg"><g fill="#424242"><path d="m12.769531 6.367188c-1.183593.007812-2.429687.332031-3.589843 1-3.09375 1.789062-4.371094 5.335937-2.859376 7.953124.15625.269532.335938.515626.535157.742188h.585937c.277344 0 .496094.222656.496094.496094v.425781c1.824219 1.136719 4.425781 1.148437 6.699219-.164063 3.09375-1.785156 4.367187-5.332031 2.855469-7.949218-.152344-.269532-.332032-.519532-.53125-.746094h-.589844c-.273438 0-.496094-.21875-.496094-.496094v-.421875c-.890625-.558593-1.96875-.84375-3.105469-.839843zm.054688.992187c1.609375.003906 3.054687.703125 3.808593 2.007813 1.238282 2.140624.125 5.082031-2.492187 6.59375-2.617187 1.511718-5.722656 1.003906-6.960937-1.136719-1.234376-2.144531-.125-5.085938 2.496093-6.597657 1.023438-.589843 2.117188-.871093 3.148438-.867187zm0 0"/><path d="m13.890625 3.164062v6.945313h6.949219v-5.953125c0-.550781-.445313-.992188-.996094-.992188zm1.984375 1.984376h2.480469c.277343 0 .496093.222656.496093.496093v2.480469h-2.976562zm0 0"/><path d="m9.921875 21.027344v-6.949219h-6.945313v5.953125c0 .550781.441407.996094.992188.996094zm-1.984375-1.988282h-2.480469c-.273437 0-.496093-.21875-.496093-.496093v-2.480469h2.976562zm0 0"/></g></svg>