<svg xmlns="http://www.w3.org/2000/svg" width="32" height="32" viewBox="0 0 24 24"><path d="M22.574 2.668a.989.989 0 0 0-.992-.992H2.234a.989.989 0 0 0-.992.992v18.855c0 .547.442.993.992.993h19.348c.55 0 .992-.446.992-.993zm-1.488.992v16.871a.497.497 0 0 1-.496.496h-4.961v-4.965H14.14v4.965H9.18v-4.965H7.69v4.965H3.227a.494.494 0 0 1-.497-.496V3.661c0-.274.22-.497.497-.497H7.69v4.961H9.18v-4.96h4.96v4.96h1.489v-4.96h4.96c.274 0 .497.222.497.495zm0 0" fill="#424242"/><path d="M21.086 8.125H2.73v1.488h.301l4.961 4.961H2.73v1.489h18.356v-1.489l-4.961-4.96h4.96zm-2.106 6.45h-3.293l-4.96-4.962h3.293zm-5.398 0h-3.484L5.133 9.612H8.62zm0 0" fill="#ef5350"/></svg>