<?xml version="1.0" encoding="UTF-8"?>
<svg xmlns="http://www.w3.org/2000/svg" xmlns:xlink="http://www.w3.org/1999/xlink" width="24px" height="24px" viewBox="0 0 24 24" version="1.1">
<g id="surface1">
<path style=" stroke:none;fill-rule:nonzero;fill:rgb(25.882354%,25.882354%,25.882354%);fill-opacity:1;" d="M 11.855469 1.925781 L 11.960938 1.925781 C 12.34375 1.925781 12.652344 2.257812 12.652344 2.667969 L 12.652344 12.09375 C 12.652344 12.507812 12.34375 12.839844 11.960938 12.839844 L 11.855469 12.839844 C 11.472656 12.839844 11.164062 12.507812 11.164062 12.09375 L 11.164062 2.667969 C 11.164062 2.257812 11.472656 1.925781 11.855469 1.925781 Z M 11.855469 1.925781 "/>
<path style=" stroke:none;fill-rule:nonzero;fill:rgb(25.882354%,25.882354%,25.882354%);fill-opacity:1;" d="M 5.902344 11.847656 L 17.914062 11.847656 C 18.296875 11.847656 18.605469 12.164062 18.605469 12.554688 L 18.605469 12.625 C 18.605469 13.019531 18.296875 13.335938 17.914062 13.335938 L 5.902344 13.335938 C 5.519531 13.335938 5.210938 13.019531 5.210938 12.625 L 5.210938 12.554688 C 5.210938 12.164062 5.519531 11.847656 5.902344 11.847656 Z M 5.902344 11.847656 "/>
<path style=" stroke:none;fill-rule:nonzero;fill:rgb(36.078432%,41.960785%,75.294119%);fill-opacity:1;" d="M 5.953125 14.082031 C 5.679688 14.082031 5.457031 14.300781 5.457031 14.574219 C 5.457031 17.496094 5.039062 18.160156 3.5625 21.117188 C 3.398438 21.445312 3.636719 21.832031 4.003906 21.832031 L 11.855469 21.832031 C 12.929688 21.300781 13.464844 20.335938 13.890625 19.289062 C 13.890625 20.425781 14.101562 21.148438 13.5625 21.832031 L 16.410156 21.832031 C 16.613281 21.832031 16.792969 21.710938 16.867188 21.523438 C 17.871094 19.019531 18.902344 16.703125 18.339844 14.457031 C 18.285156 14.234375 18.089844 14.082031 17.859375 14.082031 Z M 5.953125 14.082031 "/>
</g>
</svg>
