<?xml version="1.0" encoding="UTF-8"?>
<svg xmlns="http://www.w3.org/2000/svg" xmlns:xlink="http://www.w3.org/1999/xlink" width="24px" height="24px" viewBox="0 0 24 24" version="1.1">
<g id="surface1">
<path style=" stroke:none;fill-rule:nonzero;fill:rgb(25.882354%,25.882354%,25.882354%);fill-opacity:1;" d="M 2.976562 3.660156 L 3.96875 3.660156 C 4.242188 3.660156 4.464844 3.882812 4.464844 4.15625 L 4.464844 21.523438 C 4.464844 21.796875 4.242188 22.019531 3.96875 22.019531 L 2.976562 22.019531 C 2.703125 22.019531 2.480469 21.796875 2.480469 21.523438 L 2.480469 4.15625 C 2.480469 3.882812 2.703125 3.660156 2.976562 3.660156 Z M 2.976562 3.660156 "/>
<path style=" stroke:none;fill-rule:nonzero;fill:rgb(25.882354%,25.882354%,25.882354%);fill-opacity:1;" d="M 3.472656 2.171875 C 4.296875 2.171875 4.960938 2.839844 4.960938 3.660156 C 4.960938 4.484375 4.296875 5.148438 3.472656 5.148438 C 2.652344 5.148438 1.984375 4.484375 1.984375 3.660156 C 1.984375 2.839844 2.652344 2.171875 3.472656 2.171875 Z M 3.472656 2.171875 "/>
<path style=" stroke:none;fill-rule:nonzero;fill:rgb(25.882354%,25.882354%,25.882354%);fill-opacity:1;" d="M 3.472656 6.140625 C 3.199219 6.140625 2.976562 6.363281 2.976562 6.636719 L 2.976562 13.582031 C 2.976562 13.855469 3.199219 14.078125 3.472656 14.078125 L 10.777344 14.078125 L 10.433594 15.449219 C 10.398438 15.597656 10.429688 15.753906 10.523438 15.871094 C 10.617188 15.992188 10.761719 16.0625 10.914062 16.0625 L 21.335938 16.0625 C 21.539062 16.0625 21.726562 15.933594 21.796875 15.742188 C 21.871094 15.550781 21.816406 15.332031 21.660156 15.195312 L 18.117188 12.09375 L 21.660156 8.996094 C 21.816406 8.859375 21.871094 8.640625 21.796875 8.449219 C 21.726562 8.253906 21.539062 8.125 21.335938 8.125 L 13.535156 8.125 L 13.875 6.757812 C 13.914062 6.609375 13.878906 6.453125 13.785156 6.332031 C 13.691406 6.210938 13.546875 6.140625 13.394531 6.140625 Z M 3.96875 7.132812 L 12.761719 7.132812 L 12.417969 8.5 C 12.382812 8.648438 12.414062 8.804688 12.507812 8.925781 C 12.601562 9.046875 12.746094 9.117188 12.898438 9.117188 L 20.015625 9.117188 L 17.039062 11.722656 C 16.929688 11.816406 16.871094 11.953125 16.871094 12.09375 C 16.871094 12.238281 16.929688 12.375 17.039062 12.46875 L 20.015625 15.074219 L 11.550781 15.074219 L 11.890625 13.703125 C 11.929688 13.554688 11.894531 13.398438 11.800781 13.277344 C 11.707031 13.160156 11.5625 13.089844 11.410156 13.089844 L 3.96875 13.089844 Z M 3.96875 7.132812 "/>
</g>
</svg>
