<?xml version="1.0" encoding="UTF-8"?>
<svg xmlns="http://www.w3.org/2000/svg" xmlns:xlink="http://www.w3.org/1999/xlink" width="24pt" height="24pt" viewBox="0 0 24 24" version="1.1">
<g id="surface1">
<path style=" stroke:none;fill-rule:nonzero;fill:rgb(25.882354%,25.882354%,25.882354%);fill-opacity:1;" d="M 12.898438 9.117188 L 12.898438 21.027344 L 14.882812 21.027344 L 14.882812 20.628906 C 15.46875 20.882812 16.144531 21.027344 16.867188 21.027344 C 18.84375 21.027344 20.46875 19.957031 20.785156 18.542969 L 20.839844 18.542969 L 20.839844 18.046875 C 20.839844 16.398438 19.066406 15.070312 16.867188 15.070312 C 16.144531 15.070312 15.46875 15.214844 14.882812 15.46875 L 14.882812 9.117188 Z M 16.867188 17.054688 C 17.96875 17.054688 18.851562 17.5 18.851562 18.046875 C 18.851562 18.597656 17.96875 19.039062 16.867188 19.039062 C 15.769531 19.039062 14.882812 18.597656 14.882812 18.046875 C 14.882812 17.5 15.769531 17.054688 16.867188 17.054688 Z M 16.867188 17.054688 "/>
<path style=" stroke:none;fill-rule:nonzero;fill:rgb(25.882354%,25.882354%,25.882354%);fill-opacity:1;" d="M 6.945312 9.117188 C 4.746094 9.117188 2.976562 10.445312 2.976562 12.09375 L 2.976562 21.027344 L 4.960938 21.027344 L 4.960938 17.054688 L 8.929688 17.054688 L 8.929688 21.027344 L 10.914062 21.027344 L 10.914062 12.09375 C 10.914062 10.445312 9.144531 9.117188 6.945312 9.117188 Z M 6.945312 11.101562 C 8.046875 11.101562 8.929688 11.546875 8.929688 12.09375 L 8.929688 15.070312 L 4.960938 15.070312 L 4.960938 12.09375 C 4.960938 11.546875 5.847656 11.101562 6.945312 11.101562 Z M 6.945312 11.101562 "/>
<path style=" stroke:none;fill-rule:nonzero;fill:rgb(14.901961%,65.098041%,60.392159%);fill-opacity:1;" d="M 3.265625 2.488281 C 3.257812 2.296875 3.328125 2.113281 3.460938 1.972656 C 3.59375 1.835938 3.777344 1.757812 3.96875 1.757812 L 9.921875 1.757812 C 10.175781 1.757812 10.410156 1.894531 10.535156 2.113281 C 10.660156 2.335938 10.65625 2.605469 10.527344 2.824219 L 7.550781 7.785156 C 7.421875 7.996094 7.191406 8.125 6.945312 8.125 C 6.699219 8.125 6.46875 7.996094 6.34375 7.785156 L 3.367188 2.824219 C 3.304688 2.722656 3.269531 2.605469 3.265625 2.488281 Z M 5.210938 3.164062 L 6.945312 6.054688 L 8.679688 3.164062 Z M 5.210938 3.164062 "/>
</g>
</svg>
