<?xml version="1.0" encoding="UTF-8"?>
<svg xmlns="http://www.w3.org/2000/svg" xmlns:xlink="http://www.w3.org/1999/xlink" width="24pt" height="24pt" viewBox="0 0 24 24" version="1.1">
<g id="surface1">
<path style=" stroke:none;fill-rule:nonzero;fill:rgb(25.882354%,25.882354%,25.882354%);fill-opacity:1;" d="M 7.9375 3.660156 L 7.9375 5.644531 L 15.875 5.644531 L 15.875 3.660156 Z M 15.875 7.628906 L 15.875 8.125 L 16.007812 8.125 C 15.925781 7.980469 15.875 7.8125 15.875 7.628906 Z M 8.433594 16.0625 L 8.433594 16.558594 C 8.433594 16.378906 8.484375 16.210938 8.566406 16.0625 Z M 15.25 16.0625 C 15.332031 16.210938 15.378906 16.378906 15.378906 16.558594 L 15.378906 16.0625 Z M 0.992188 18.542969 L 0.992188 20.527344 L 8.433594 20.527344 L 8.433594 18.542969 Z M 15.378906 18.542969 L 15.378906 20.527344 L 22.824219 20.527344 L 22.824219 18.542969 Z M 15.378906 18.542969 "/>
<path style=" stroke:none;fill-rule:nonzero;fill:rgb(25.882354%,25.882354%,25.882354%);fill-opacity:1;" d="M 2.480469 1.179688 C 1.65625 1.179688 0.992188 1.84375 0.992188 2.667969 L 0.992188 6.636719 C 0.992188 7.460938 1.65625 8.125 2.480469 8.125 L 6.449219 8.125 C 7.273438 8.125 7.9375 7.460938 7.9375 6.636719 L 7.9375 2.667969 C 7.9375 1.84375 7.273438 1.179688 6.449219 1.179688 Z M 3.472656 2.667969 L 5.457031 2.667969 C 6.007812 2.667969 6.449219 3.109375 6.449219 3.660156 L 6.449219 5.644531 C 6.449219 6.195312 6.007812 6.636719 5.457031 6.636719 L 3.472656 6.636719 C 2.921875 6.636719 2.480469 6.195312 2.480469 5.644531 L 2.480469 3.660156 C 2.480469 3.109375 2.921875 2.667969 3.472656 2.667969 Z M 3.472656 2.667969 "/>
<path style=" stroke:none;fill-rule:nonzero;fill:rgb(25.882354%,25.882354%,25.882354%);fill-opacity:1;" d="M 17.363281 1.179688 C 16.539062 1.179688 15.875 1.84375 15.875 2.667969 L 15.875 6.636719 C 15.875 7.460938 16.539062 8.125 17.363281 8.125 L 21.335938 8.125 C 22.160156 8.125 22.824219 7.460938 22.824219 6.636719 L 22.824219 2.667969 C 22.824219 1.84375 22.160156 1.179688 21.335938 1.179688 Z M 18.355469 2.667969 L 20.339844 2.667969 C 20.890625 2.667969 21.335938 3.109375 21.335938 3.660156 L 21.335938 5.644531 C 21.335938 6.195312 20.890625 6.636719 20.339844 6.636719 L 18.355469 6.636719 C 17.808594 6.636719 17.363281 6.195312 17.363281 5.644531 L 17.363281 3.660156 C 17.363281 3.109375 17.808594 2.667969 18.355469 2.667969 Z M 18.355469 2.667969 "/>
<path style=" stroke:none;fill-rule:nonzero;fill:rgb(25.882354%,25.882354%,25.882354%);fill-opacity:1;" d="M 9.921875 16.0625 C 9.097656 16.0625 8.433594 16.726562 8.433594 17.550781 L 8.433594 21.523438 C 8.433594 22.347656 9.097656 23.011719 9.921875 23.011719 L 13.890625 23.011719 C 14.714844 23.011719 15.378906 22.347656 15.378906 21.523438 L 15.378906 17.550781 C 15.378906 16.726562 14.714844 16.0625 13.890625 16.0625 Z M 10.914062 17.550781 L 12.898438 17.550781 C 13.449219 17.550781 13.890625 17.996094 13.890625 18.542969 L 13.890625 20.53125 C 13.890625 21.078125 13.449219 21.523438 12.898438 21.523438 L 10.914062 21.523438 C 10.367188 21.523438 9.921875 21.078125 9.921875 20.53125 L 9.921875 18.542969 C 9.921875 17.996094 10.367188 17.550781 10.914062 17.550781 Z M 10.914062 17.550781 "/>
<path style=" stroke:none;fill-rule:evenodd;fill:rgb(40.000001%,73.333335%,41.568628%);fill-opacity:1;" d="M 15.441406 10.109375 C 15.441406 9.835938 15.21875 9.613281 14.945312 9.613281 L 8.992188 9.613281 C 8.617188 9.613281 8.375 10.019531 8.554688 10.347656 L 11.53125 13.832031 C 11.84375 14.203125 12.09375 14.203125 12.402344 13.832031 L 15.378906 10.347656 C 15.421875 10.273438 15.441406 10.195312 15.441406 10.109375 Z M 15.441406 10.109375 "/>
</g>
</svg>
