
<svg xmlns="http://www.w3.org/2000/svg" xmlns:xlink="http://www.w3.org/1999/xlink" width="24px" height="24px" viewBox="0 0 24 24" version="1.1">
<g id="surface1">
<defs>
  <style id="current-color-scheme" type="text/css">
   .ColorScheme-Text { color:#424242; } .ColorScheme-Highlight { color:#eeeeee; }
  </style>
 </defs>
<path style="fill:currentColor" class="ColorScheme-Text" d="M 9 4.5 C 8.167969 4.5 7.5 5.167969 7.5 6 L 3 6 L 3 16.5 L 7.5 16.5 C 7.5 17.332031 8.167969 18 9 18 L 19.5 18 C 20.332031 18 21 17.332031 21 16.5 L 21 13.5 C 21 12.667969 20.332031 12 19.5 12 L 9 12 C 8.167969 12 7.5 12.667969 7.5 13.5 L 7.5 15 L 4.5 15 L 4.5 12 L 6 12 L 6 10.5 L 4.5 10.5 L 4.5 7.5 L 7.5 7.5 L 7.5 9 C 7.5 9.832031 8.167969 10.5 9 10.5 L 19.5 10.5 C 20.332031 10.5 21 9.832031 21 9 L 21 6 C 21 5.167969 20.332031 4.5 19.5 4.5 Z M 9.75 6 L 18.75 6 C 19.164062 6 19.5 6.335938 19.5 6.75 L 19.5 8.25 C 19.5 8.664062 19.164062 9 18.75 9 L 9.75 9 C 9.335938 9 9 8.664062 9 8.25 L 9 6.75 C 9 6.335938 9.335938 6 9.75 6 Z M 9.75 13.5 L 18.75 13.5 C 19.164062 13.5 19.5 13.835938 19.5 14.25 L 19.5 15.75 C 19.5 16.164062 19.164062 16.5 18.75 16.5 L 9.75 16.5 C 9.335938 16.5 9 16.164062 9 15.75 L 9 14.25 C 9 13.835938 9.335938 13.5 9.75 13.5 Z M 9.75 13.5 "/>
</g>
</svg>
