
<svg xmlns="http://www.w3.org/2000/svg" xmlns:xlink="http://www.w3.org/1999/xlink" width="24px" height="24px" viewBox="0 0 24 24" version="1.1">
<g id="surface1">
<defs>
  <style id="current-color-scheme" type="text/css">
   .ColorScheme-Text { color:#424242; } .ColorScheme-Highlight { color:#eeeeee; }
  </style>
 </defs>
<path style="fill:currentColor" class="ColorScheme-Text" d="M 10.5 3.667969 L 19.5 12 L 10.5 20.332031 L 10.5 15 L 4.5 15 C 3.667969 15 3 14.332031 3 13.5 L 3 10.5 C 3 9.667969 3.667969 9 4.5 9 L 10.5 9 Z M 19.5 12 L 19.5 6 L 21 6 L 21 18 L 19.5 18 Z M 12 6.832031 L 12 10.5 L 5.277344 10.5 C 4.847656 10.5 4.5 10.847656 4.5 11.277344 L 4.5 12.722656 C 4.5 13.152344 4.847656 13.5 5.277344 13.5 L 12 13.5 L 12 17.167969 L 17.132812 12 Z M 12 6.832031 "/>
</g>
</svg>
