<svg height="24" viewBox="0 0 24 24" width="24" xmlns="http://www.w3.org/2000/svg"><g fill="#424242"><path d="m11.90625 2.171875c-2.746094 0-4.960938 2.214844-4.960938 4.960937 0 2.75 2.214844 4.960938 4.960938 4.960938 2.75 0 4.960938-2.210938 4.960938-4.960938 0-2.746093-2.210938-4.960937-4.960938-4.960937zm0 1.984375c1.648438 0 2.976562 1.328125 2.976562 2.976562 0 1.648438-1.328124 2.976563-2.976562 2.976563s-2.976562-1.328125-2.976562-2.976563c0-1.648437 1.328124-2.976562 2.976562-2.976562zm0 0"/><path d="m8.429688 12.597656c-.101563 0-.199219.015625-.292969.042969-.664063.210937-1.859375.464844-2.960938 1.054687-1.097656.589844-2.195312 1.726563-2.195312 3.359376v1.488281h-.003907v1.488281c0 1.101562.886719 1.988281 1.984376 1.988281h8.683593v-1.988281h-7.691406c-.550781 0-.992187-.441406-.992187-.992188v-.496093h-.003907v-1.488281c0-.84375.394531-1.210938 1.152344-1.617188.667969-.359375 1.535156-.585938 2.300781-.816406 2.398438.882812 4.597656.882812 6.996094 0 .761719.222656 1.628906.449218 2.296875.808594.085937.046874.164063.09375.242187.136718h2.554688c-.410156-.851562-1.132812-1.484375-1.859375-1.875-1.101563-.59375-2.300781-.847656-2.96875-1.050781-.097656-.03125-.195313-.046875-.292969-.042969-.125 0-.25.023438-.367187.070313-2.308594.921875-3.898438.921875-6.210938 0-.117187-.050781-.246093-.074219-.371093-.070313zm0 0"/><path d="m15.378906 18.046875h5.957032c.273437 0 .496093.222656.496093.496094v.992187c0 .277344-.222656.496094-.496093.496094h-5.957032c-.273437 0-.496094-.21875-.496094-.496094v-.992187c0-.273438.222657-.496094.496094-.496094zm0 0"/></g></svg>