<svg height="24" viewBox="0 0 24 24" width="24" xmlns="http://www.w3.org/2000/svg"><g fill="#424242"><path d="m6.945312 3.164062c-2.199218 0-3.96875 1.328126-3.96875 2.976563v8.929687h1.984376v-3.96875h3.96875v3.96875h1.984374v-8.929687c0-1.648437-1.769531-2.976563-3.96875-2.976563zm0 1.984376c1.101563 0 1.984376.441406 1.984376.992187v2.976563h-3.96875v-2.976563c0-.550781.886718-.992187 1.984374-.992187zm0 0"/><path d="m14.386719 16.558594h5.953125c.277344 0 .5.222656.5.496094v.992187c0 .277344-.222656.496094-.5.496094h-5.953125c-.273438 0-.496094-.21875-.496094-.496094v-.992187c0-.273438.222656-.496094.496094-.496094zm0 0"/><path d="m18.355469 14.574219v5.957031c0 .273438-.21875.496094-.496094.496094h-.992187c-.273438 0-.496094-.222656-.496094-.496094v-5.957031c0-.273438.222656-.496094.496094-.496094h.992187c.277344 0 .496094.222656.496094.496094zm0 0"/></g></svg>