<?xml version="1.0" encoding="UTF-8"?>
<svg xmlns="http://www.w3.org/2000/svg" xmlns:xlink="http://www.w3.org/1999/xlink" width="24px" height="24px" viewBox="0 0 24 24" version="1.1">
<g id="surface1">
<path style=" stroke:none;fill-rule:nonzero;fill:rgb(25.882354%,25.882354%,25.882354%);fill-opacity:1;" d="M 4.960938 4.15625 L 5.953125 4.15625 C 6.226562 4.15625 6.449219 4.378906 6.449219 4.652344 L 6.449219 19.535156 C 6.449219 19.8125 6.226562 20.03125 5.953125 20.03125 L 4.960938 20.03125 C 4.6875 20.03125 4.464844 19.8125 4.464844 19.535156 L 4.464844 4.652344 C 4.464844 4.378906 4.6875 4.15625 4.960938 4.15625 Z M 4.960938 4.15625 "/>
<path style=" stroke:none;fill-rule:nonzero;fill:rgb(25.882354%,25.882354%,25.882354%);fill-opacity:1;" d="M 18.355469 13.085938 L 9.425781 13.085938 C 8.878906 13.085938 8.433594 12.644531 8.433594 12.09375 C 8.433594 11.546875 8.878906 11.101562 9.425781 11.101562 L 18.355469 11.101562 C 18.90625 11.101562 19.347656 11.546875 19.347656 12.09375 C 19.347656 12.644531 18.90625 13.085938 18.355469 13.085938 Z M 18.355469 13.085938 "/>
<path style=" stroke:none;fill-rule:nonzero;fill:rgb(25.882354%,25.882354%,25.882354%);fill-opacity:1;" d="M 17.144531 5.78125 L 10.128906 12.796875 C 9.742188 13.183594 9.113281 13.183594 8.726562 12.796875 C 8.335938 12.410156 8.335938 11.78125 8.726562 11.394531 L 15.742188 4.375 C 16.128906 3.988281 16.757812 3.988281 17.144531 4.375 C 17.53125 4.765625 17.53125 5.390625 17.144531 5.78125 Z M 17.144531 5.78125 "/>
<path style=" stroke:none;fill-rule:nonzero;fill:rgb(25.882354%,25.882354%,25.882354%);fill-opacity:1;" d="M 15.742188 19.8125 L 8.726562 12.796875 C 8.335938 12.410156 8.335938 11.78125 8.726562 11.394531 C 9.113281 11.007812 9.742188 11.007812 10.128906 11.394531 L 17.144531 18.410156 C 17.53125 18.796875 17.53125 19.425781 17.144531 19.8125 C 16.757812 20.199219 16.128906 20.199219 15.742188 19.8125 Z M 15.742188 19.8125 "/>
</g>
</svg>
