<svg xmlns="http://www.w3.org/2000/svg" width="32" height="32" viewBox="0 0 24 24"><path d="M4.96 1.18a1.982 1.982 0 0 0-1.983 1.984v8.93h1.488V3.66c0-.55.441-.992.992-.992h12.898c.551 0 .993.441.993.992v8.434h1.492v-8.93a1.983 1.983 0 0 0-1.988-1.984zm0 0" fill="#424242"/><path d="M6.45 4.156h.991c.274 0 .497.223.497.496v.993a.497.497 0 0 1-.497.496H6.45a.497.497 0 0 1-.496-.496v-.993c0-.273.223-.496.496-.496zm0 0M6.45 7.629h.991c.274 0 .497.223.497.496v.992a.497.497 0 0 1-.497.496H6.45a.497.497 0 0 1-.496-.496v-.992c0-.273.223-.496.496-.496zm0 0M16.371 4.156h.992c.278 0 .496.223.496.496v.993a.494.494 0 0 1-.496.496h-.992a.497.497 0 0 1-.496-.496v-.993c0-.273.223-.496.496-.496zm0 0M16.371 7.629h.992c.278 0 .496.223.496.496v.992a.494.494 0 0 1-.496.496h-.992a.497.497 0 0 1-.496-.496v-.992c0-.273.223-.496.496-.496zm0 0M2.25 11.066h19.313c.421 0 .765.34.765.762a.764.764 0 0 1-.765.762H2.25a.76.76 0 0 1-.762-.762.76.76 0 0 1 .762-.762zm0 0" fill="#42a5f5"/><path d="M11.91 13.828a.746.746 0 0 0-.7.469l-2.327 5.828-2.25-4.871a.748.748 0 0 0-1.328-.059l-1.77 3.098h-.558a.746.746 0 0 0-.657 1.125.746.746 0 0 0 .657.371h.992a.76.76 0 0 0 .652-.375l1.262-2.21 2.367 5.128c.125.27.402.441.7.434a.744.744 0 0 0 .675-.47l2.27-5.671 1.793 4.668a.75.75 0 1 0 1.36.09l2.33-4.278 1.321 2.31c.133.23.383.374.649.374h1.492c.27.004.52-.137.652-.371a.744.744 0 0 0 0-.754.735.735 0 0 0-.652-.371h-1.055l-1.77-3.098a.75.75 0 0 0-1.308.016l-2.2 4.035-1.902-4.937a.744.744 0 0 0-.695-.48zm0 0" fill="#424242"/></svg>