<?xml version="1.0" encoding="UTF-8"?>
<svg xmlns="http://www.w3.org/2000/svg" xmlns:xlink="http://www.w3.org/1999/xlink" width="24px" height="24px" viewBox="0 0 24 24" version="1.1">
<g id="surface1">
<path style=" stroke:none;fill-rule:nonzero;fill:rgb(25.882354%,25.882354%,25.882354%);fill-opacity:1;" d="M 18.851562 13.085938 C 17.753906 13.085938 16.867188 13.972656 16.867188 15.070312 L 16.867188 16.558594 L 16.371094 16.558594 C 16.097656 16.558594 15.875 16.78125 15.875 17.054688 L 15.875 19.535156 C 15.875 19.8125 16.097656 20.03125 16.371094 20.03125 L 21.335938 20.03125 C 21.609375 20.03125 21.832031 19.8125 21.832031 19.535156 L 21.832031 17.054688 C 21.832031 16.78125 21.609375 16.539062 21.335938 16.558594 L 20.839844 16.558594 L 20.839844 15.070312 C 20.839844 13.972656 19.953125 13.085938 18.851562 13.085938 Z M 18.851562 14.078125 C 19.402344 14.078125 19.84375 14.523438 19.84375 15.070312 L 19.84375 16.558594 L 17.859375 16.558594 L 17.859375 15.070312 C 17.859375 14.523438 18.304688 14.078125 18.851562 14.078125 Z M 18.851562 14.078125 "/>
<path style=" stroke:none;fill-rule:nonzero;fill:rgb(25.882354%,25.882354%,25.882354%);fill-opacity:1;" d="M 19.84375 4.15625 L 3.96875 4.15625 C 2.871094 4.15625 1.984375 5.042969 1.984375 6.140625 L 1.984375 18.046875 C 1.984375 19.148438 2.871094 20.03125 3.96875 20.03125 L 13.890625 20.03125 L 13.890625 18.046875 L 4.960938 18.046875 C 4.410156 18.046875 3.96875 17.605469 3.96875 17.054688 L 3.96875 7.351562 L 11.25 13.824219 C 11.625 14.15625 12.1875 14.15625 12.5625 13.824219 L 19.84375 7.351562 L 19.84375 11.101562 L 21.832031 11.101562 L 21.832031 6.140625 C 21.832031 5.042969 20.945312 4.15625 19.84375 4.15625 Z M 5.578125 6.140625 L 18.234375 6.140625 L 11.90625 11.765625 Z M 5.578125 6.140625 "/>
</g>
</svg>
