<?xml version="1.0" encoding="UTF-8"?>
<svg xmlns="http://www.w3.org/2000/svg" xmlns:xlink="http://www.w3.org/1999/xlink" width="24px" height="24px" viewBox="0 0 24 24" version="1.1">
<g id="surface1">
<path style=" stroke:none;fill-rule:nonzero;fill:rgb(25.882354%,25.882354%,25.882354%);fill-opacity:1;" d="M 3.96875 2.171875 C 2.871094 2.171875 1.984375 3.058594 1.984375 4.15625 L 1.984375 13.085938 L 3.96875 13.085938 L 3.96875 5.148438 C 3.96875 4.597656 4.410156 4.15625 4.960938 4.15625 L 18.851562 4.15625 C 19.402344 4.15625 19.84375 4.597656 19.84375 5.148438 L 19.84375 13.085938 L 21.832031 13.085938 L 21.832031 4.15625 C 21.832031 3.058594 20.945312 2.171875 19.84375 2.171875 Z M 3.96875 2.171875 "/>
<path style=" stroke:none;fill-rule:nonzero;fill:rgb(25.882354%,25.882354%,25.882354%);fill-opacity:1;" d="M 16.867188 5.148438 C 17.417969 5.148438 17.859375 5.59375 17.859375 6.140625 C 17.859375 6.6875 17.417969 7.132812 16.867188 7.132812 C 16.320312 7.132812 15.875 6.6875 15.875 6.140625 C 15.875 5.59375 16.320312 5.148438 16.867188 5.148438 Z M 16.867188 5.148438 "/>
<path style=" stroke:none;fill-rule:nonzero;fill:rgb(25.882354%,25.882354%,25.882354%);fill-opacity:1;" d="M 2.976562 8.125 L 20.839844 8.125 L 20.839844 9.117188 L 2.976562 9.117188 Z M 2.976562 8.125 "/>
<path style=" stroke:none;fill-rule:nonzero;fill:rgb(25.882354%,25.882354%,25.882354%);fill-opacity:1;" d="M 6.945312 5.148438 C 7.492188 5.148438 7.9375 5.59375 7.9375 6.140625 C 7.9375 6.6875 7.492188 7.132812 6.945312 7.132812 C 6.398438 7.132812 5.953125 6.6875 5.953125 6.140625 C 5.953125 5.59375 6.398438 5.148438 6.945312 5.148438 Z M 6.945312 5.148438 "/>
<path style=" stroke:none;fill-rule:nonzero;fill:rgb(25.882354%,25.882354%,25.882354%);fill-opacity:1;" d="M 15.378906 15.070312 L 21.335938 15.070312 C 21.609375 15.070312 21.832031 15.292969 21.832031 15.566406 L 21.832031 16.558594 C 21.832031 16.835938 21.609375 17.054688 21.335938 17.054688 L 15.378906 17.054688 C 15.105469 17.054688 14.882812 16.835938 14.882812 16.558594 L 14.882812 15.566406 C 14.882812 15.292969 15.105469 15.070312 15.378906 15.070312 Z M 15.378906 15.070312 "/>
<path style=" stroke:none;fill-rule:nonzero;fill:rgb(25.882354%,25.882354%,25.882354%);fill-opacity:1;" d="M 16.867188 15.566406 L 16.867188 21.523438 C 16.867188 21.796875 16.648438 22.019531 16.371094 22.019531 L 15.378906 22.019531 C 15.105469 22.019531 14.882812 21.796875 14.882812 21.523438 L 14.882812 15.566406 C 14.882812 15.292969 15.105469 15.070312 15.378906 15.070312 L 16.371094 15.070312 C 16.648438 15.070312 16.867188 15.292969 16.867188 15.566406 Z M 16.867188 15.566406 "/>
<path style=" stroke:none;fill-rule:nonzero;fill:rgb(25.882354%,25.882354%,25.882354%);fill-opacity:1;" d="M 6.203125 11.101562 L 7.195312 11.101562 C 7.46875 11.101562 7.691406 11.324219 7.691406 11.597656 L 7.691406 12.589844 C 7.691406 12.863281 7.46875 13.085938 7.195312 13.085938 L 6.203125 13.085938 C 5.929688 13.085938 5.707031 12.863281 5.707031 12.589844 L 5.707031 11.597656 C 5.707031 11.324219 5.929688 11.101562 6.203125 11.101562 Z M 6.203125 11.101562 "/>
<path style=" stroke:none;fill-rule:nonzero;fill:rgb(25.882354%,25.882354%,25.882354%);fill-opacity:1;" d="M 9.675781 11.101562 L 10.667969 11.101562 C 10.941406 11.101562 11.164062 11.324219 11.164062 11.597656 L 11.164062 12.589844 C 11.164062 12.863281 10.941406 13.085938 10.667969 13.085938 L 9.675781 13.085938 C 9.402344 13.085938 9.179688 12.863281 9.179688 12.589844 L 9.179688 11.597656 C 9.179688 11.324219 9.402344 11.101562 9.675781 11.101562 Z M 9.675781 11.101562 "/>
<path style=" stroke:none;fill-rule:nonzero;fill:rgb(25.882354%,25.882354%,25.882354%);fill-opacity:1;" d="M 13.148438 11.101562 L 14.140625 11.101562 C 14.414062 11.101562 14.636719 11.324219 14.636719 11.597656 L 14.636719 12.589844 C 14.636719 12.863281 14.414062 13.085938 14.140625 13.085938 L 13.148438 13.085938 C 12.875 13.085938 12.652344 12.863281 12.652344 12.589844 L 12.652344 11.597656 C 12.652344 11.324219 12.875 11.101562 13.148438 11.101562 Z M 13.148438 11.101562 "/>
<path style=" stroke:none;fill-rule:nonzero;fill:rgb(25.882354%,25.882354%,25.882354%);fill-opacity:1;" d="M 16.621094 11.101562 L 17.613281 11.101562 C 17.886719 11.101562 18.109375 11.324219 18.109375 11.597656 L 18.109375 12.589844 C 18.109375 12.863281 17.886719 13.085938 17.613281 13.085938 L 16.621094 13.085938 C 16.347656 13.085938 16.125 12.863281 16.125 12.589844 L 16.125 11.597656 C 16.125 11.324219 16.347656 11.101562 16.621094 11.101562 Z M 16.621094 11.101562 "/>
<path style=" stroke:none;fill-rule:nonzero;fill:rgb(25.882354%,25.882354%,25.882354%);fill-opacity:1;" d="M 9.675781 14.574219 L 10.667969 14.574219 C 10.941406 14.574219 11.164062 14.796875 11.164062 15.070312 L 11.164062 16.0625 C 11.164062 16.339844 10.941406 16.558594 10.667969 16.558594 L 9.675781 16.558594 C 9.402344 16.558594 9.179688 16.339844 9.179688 16.0625 L 9.179688 15.070312 C 9.179688 14.796875 9.402344 14.574219 9.675781 14.574219 Z M 9.675781 14.574219 "/>
<path style=" stroke:none;fill-rule:nonzero;fill:rgb(25.882354%,25.882354%,25.882354%);fill-opacity:1;" d="M 21.832031 15.566406 L 21.832031 21.523438 C 21.832031 21.796875 21.609375 22.019531 21.335938 22.019531 L 20.339844 22.019531 C 20.066406 22.019531 19.84375 21.796875 19.84375 21.523438 L 19.84375 15.566406 C 19.84375 15.292969 20.066406 15.070312 20.339844 15.070312 L 21.335938 15.070312 C 21.609375 15.070312 21.832031 15.292969 21.832031 15.566406 Z M 21.832031 15.566406 "/>
<path style=" stroke:none;fill-rule:nonzero;fill:rgb(25.882354%,25.882354%,25.882354%);fill-opacity:1;" d="M 21.335938 22.019531 L 15.378906 22.019531 C 15.105469 22.019531 14.882812 21.796875 14.882812 21.523438 L 14.882812 20.53125 C 14.882812 20.253906 15.105469 20.03125 15.378906 20.03125 L 21.335938 20.03125 C 21.609375 20.03125 21.832031 20.253906 21.832031 20.53125 L 21.832031 21.523438 C 21.832031 21.796875 21.609375 22.019531 21.335938 22.019531 Z M 21.335938 22.019531 "/>
<path style=" stroke:none;fill-rule:nonzero;fill:rgb(25.882354%,25.882354%,25.882354%);fill-opacity:1;" d="M 6.449219 15.566406 L 6.449219 21.523438 C 6.449219 21.796875 6.226562 22.019531 5.953125 22.019531 L 4.960938 22.019531 C 4.6875 22.019531 4.464844 21.796875 4.464844 21.523438 L 4.464844 15.566406 C 4.464844 15.292969 4.6875 15.070312 4.960938 15.070312 L 5.953125 15.070312 C 6.226562 15.070312 6.449219 15.292969 6.449219 15.566406 Z M 6.449219 15.566406 "/>
<path style=" stroke:none;fill-rule:nonzero;fill:rgb(25.882354%,25.882354%,25.882354%);fill-opacity:1;" d="M 8.433594 19.535156 L 2.480469 19.535156 C 2.207031 19.535156 1.984375 19.316406 1.984375 19.039062 L 1.984375 18.046875 C 1.984375 17.773438 2.207031 17.550781 2.480469 17.550781 L 8.433594 17.550781 C 8.707031 17.550781 8.929688 17.773438 8.929688 18.046875 L 8.929688 19.039062 C 8.929688 19.316406 8.707031 19.535156 8.433594 19.535156 Z M 8.433594 19.535156 "/>
</g>
</svg>
