<svg height="24" viewBox="0 0 24 24" width="24" xmlns="http://www.w3.org/2000/svg"><g fill="#424242"><path d="m21.832031 12.34375v-.496094c0-.136718-.230469-.25-.511719-.25h-18.824218c-.28125 0-.511719.113282-.511719.25v.496094c0 .136719.230469.246094.511719.246094h18.824218c.28125 0 .511719-.109375.511719-.246094zm0 0"/><path d="m3.472656 8.621094h.992188c.273437 0 .496094.222656.496094.496094v.496093c0 .273438-.222657.496094-.496094.496094h-.992188c-.273437 0-.496094-.222656-.496094-.496094v-.496093c0-.273438.222657-.496094.496094-.496094zm0 0"/><path d="m11.410156 3.164062h.992188c.273437 0 .496094.222657.496094.496094v5.953125c0 .273438-.222657.496094-.496094.496094h-.992188c-.273437 0-.496094-.222656-.496094-.496094v-5.953125c0-.273437.222657-.496094.496094-.496094zm0 0"/><path d="m19.347656 7.132812h.992188c.277344 0 .5.222657.5.496094v1.984375c0 .273438-.222656.496094-.5.496094h-.992188c-.273437 0-.496094-.222656-.496094-.496094v-1.984375c0-.273437.222657-.496094.496094-.496094zm0 0"/><path d="m7.441406 4.652344h.992188c.273437 0 .496094.222656.496094.496094v4.464843c0 .273438-.222657.496094-.496094.496094h-.992188c-.273437 0-.496094-.222656-.496094-.496094v-4.464843c0-.273438.222657-.496094.496094-.496094zm0 0"/><path d="m15.378906 5.644531h.992188c.277344 0 .496094.222657.496094.496094v3.472656c0 .273438-.21875.496094-.496094.496094h-.992188c-.273437 0-.496094-.222656-.496094-.496094v-3.472656c0-.273437.222657-.496094.496094-.496094zm0 0"/><path d="m7.441406 14.558594c-.414062 0-.660156.464844-.421875.804687l4.464844 6.449219c.203125.296875.640625.296875.847656 0l4.464844-6.449219c.234375-.339843-.007813-.804687-.425781-.804687zm0 0"/></g></svg>