<svg xmlns="http://www.w3.org/2000/svg" width="32pt" height="32pt" viewBox="0 0 32 32"><defs><radialGradient id="a" gradientUnits="userSpaceOnUse" cx="450.909" cy="189.579" fx="450.909" fy="189.579" r="21.167" gradientTransform="matrix(0 -.06837 -.19846 0 54.025 59.316)"><stop offset="0" stop-opacity=".314"/><stop offset=".222" stop-opacity=".275"/><stop offset="1" stop-opacity="0"/></radialGradient><radialGradient id="b" gradientUnits="userSpaceOnUse" cx="450.909" cy="189.579" fx="450.909" fy="189.579" r="21.167" gradientTransform="matrix(0 .06837 .19846 0 -22.155 -2.917)"><stop offset="0" stop-opacity=".314"/><stop offset=".222" stop-opacity=".275"/><stop offset="1" stop-opacity="0"/></radialGradient><radialGradient id="c" gradientUnits="userSpaceOnUse" cx="450.909" cy="189.579" fx="450.909" fy="189.579" r="21.167" gradientTransform="matrix(0 -.06837 .19846 0 -22.155 59.316)"><stop offset="0" stop-opacity=".314"/><stop offset=".222" stop-opacity=".275"/><stop offset="1" stop-opacity="0"/></radialGradient><radialGradient id="d" gradientUnits="userSpaceOnUse" cx="450.909" cy="189.579" fx="450.909" fy="189.579" r="21.167" gradientTransform="matrix(0 .06837 -.19846 0 54.025 -2.917)"><stop offset="0" stop-opacity=".314"/><stop offset=".222" stop-opacity=".275"/><stop offset="1" stop-opacity="0"/></radialGradient><linearGradient id="e" gradientUnits="userSpaceOnUse" x1="255.323" y1="233.5" x2="255.323" y2="254.667" gradientTransform="matrix(.01885 0 0 .0547 11.122 15.429)"><stop offset="0" stop-opacity=".275"/><stop offset="1" stop-opacity="0"/></linearGradient><linearGradient id="f" gradientUnits="userSpaceOnUse" x1="254" y1="233.5" x2="254" y2="-41.667" gradientTransform="matrix(.0625 0 0 .0625 0 13.439)"><stop offset="0" stop-color="#424242"/><stop offset="1" stop-color="#757575"/></linearGradient><linearGradient id="g" gradientUnits="userSpaceOnUse" x1="116.417" y1="-41.667" x2="402.167" y2="-41.667" gradientTransform="matrix(.0625 0 0 .0625 0 13.439)"><stop offset="0" stop-color="#424242"/><stop offset="1" stop-color="#757575"/></linearGradient><linearGradient id="h" gradientUnits="userSpaceOnUse" x1="254" y1="233.5" x2="254" y2="-168.667" gradientTransform="matrix(.0625 0 0 .0625 0 13.439)"><stop offset="0" stop-color="#424242"/><stop offset="1" stop-color="#757575"/></linearGradient><linearGradient id="i" gradientUnits="userSpaceOnUse" x1="254" y1="-126.333" x2="254" y2="-168.667"><stop offset="0" stop-color="#424242"/><stop offset="1" stop-color="#757575"/></linearGradient><linearGradient id="j" gradientUnits="userSpaceOnUse" x1="254" y1="-126.333" x2="254" y2="-168.667" gradientTransform="matrix(.875 0 0 .875 31.75 -15.792)"><stop offset="0" stop-color="#424242"/><stop offset="1" stop-color="#757575"/></linearGradient></defs><path d="M16.867 28.2h3.735v-1.157h-3.735zm0 0" fill="url(#a)"/><path d="M15 28.2h-3.73v1.155H15zm0 0" fill="url(#b)"/><path d="M15 28.2h-3.73v-1.157H15zm0 0" fill="url(#c)"/><path d="M16.867 28.2h3.735v1.155h-3.735zm0 0" fill="url(#d)"/><path d="M15 27.91h1.867v1.445H15zm0 0" fill="url(#e)"/><path d="M15.875 10.836c4.75 0 8.602 2.96 8.602 6.613v3.969c0 3.652-3.852 6.617-8.602 6.617-4.746 0-8.598-2.965-8.598-6.617v-3.969c0-3.652 3.852-6.613 8.598-6.613zm0 0" fill="url(#f)"/><path d="M15.875 10.836c-4.762 0-8.598 2.95-8.598 6.613v.66c0-3.664 3.836-6.613 8.598-6.613 4.766 0 8.602 2.95 8.602 6.613v-.66c0-3.664-3.836-6.613-8.602-6.613zm0 0" fill="#fff" fill-opacity=".235"/><path d="M15.875 10.742c-2.398 0-4.57.742-6.14 1.95-1.575 1.21-2.551 2.894-2.551 4.757v3.969c0 1.867.976 3.547 2.55 4.758 1.57 1.21 3.743 1.953 6.141 1.953 2.402 0 4.574-.742 6.145-1.953 1.574-1.211 2.55-2.89 2.55-4.758v-3.969c0-1.863-.976-3.547-2.55-4.758-1.57-1.207-3.743-1.949-6.145-1.949zm0 .188c2.363 0 4.496.73 6.031 1.914 1.535 1.18 2.477 2.804 2.477 4.605v3.969c0 1.8-.942 3.426-2.477 4.61-1.535 1.179-3.668 1.913-6.031 1.913-2.36 0-4.492-.734-6.027-1.914-1.536-1.183-2.477-2.808-2.477-4.609v-3.969c0-1.8.941-3.426 2.477-4.605 1.535-1.184 3.668-1.914 6.027-1.914zm0 0" fill="#212121"/><path d="M9.688 14.52c.73-.91 1.667-1.36 2.101-1.012.43.351.188 1.37-.539 2.277-.73.906-1.672 1.36-2.102 1.012-.433-.352-.191-1.371.54-2.277zm0 0" fill="#fff" fill-opacity=".235"/><path d="M15.875 11.828c1.828 0 3.309.442 3.309.992 0 .547-1.48.992-3.309.992-1.824 0-3.305-.445-3.305-.992 0-.55 1.48-.992 3.305-.992zm0 0" fill="#e0e0e0" fill-opacity=".235"/><path d="M15.875 6.203c1.465 0 2.648.297 2.648.664v5.953c0 .364-1.183.66-2.648.66-1.46 0-2.645-.296-2.645-.66V6.867c0-.367 1.184-.664 2.645-.664zm0 0" fill="url(#g)"/><path d="M13.23 7.527v.66c0 .368 1.18.665 2.645.665 1.469 0 2.648-.297 2.648-.665v-.66c0 .368-1.18.66-2.648.66-1.465 0-2.645-.292-2.645-.66zm0 0" fill="#1b1b1b" fill-opacity=".235"/><path d="M15.875 6.11c-.738 0-1.406.074-1.895.195a2.336 2.336 0 0 0-.59.222c-.148.086-.253.196-.253.34v5.953c0 .14.105.25.254.336.144.09.347.16.59.223.488.121 1.156.195 1.894.195.742 0 1.406-.074 1.898-.195a2.25 2.25 0 0 0 .59-.223c.145-.086.254-.195.254-.336V6.867c0-.144-.11-.254-.254-.34a2.396 2.396 0 0 0-.59-.222c-.492-.121-1.156-.196-1.898-.196zm0 .187c.727 0 1.383.074 1.852.191.234.059.421.13.539.2.12.07.164.136.164.18v5.952c0 .04-.043.106-.164.176-.118.07-.305.14-.54.2-.468.117-1.124.19-1.851.19-.727 0-1.383-.073-1.848-.19a2.2 2.2 0 0 1-.543-.2c-.12-.07-.16-.137-.16-.176V6.867c0-.043.04-.11.16-.18a2.2 2.2 0 0 1 .543-.199c.465-.117 1.121-.191 1.848-.191zm0 0" fill="#212121"/><path d="M14.555 2.895h2.644c2.922 0 5.293.593 5.293 1.324v2.648c0 .73-2.37 1.32-5.293 1.32h-2.644c-2.926 0-5.293-.59-5.293-1.32V4.22c0-.73 2.367-1.324 5.293-1.324zm0 0" fill="url(#h)"/><path d="M232.853-168.692c-46.933 0-84.68 9.437-84.68 21.186 0 11.748 37.747 21.185 84.68 21.185h42.308c46.933 0 84.68-9.437 84.68-21.185 0-11.75-37.747-21.186-84.68-21.186zm0 0" transform="matrix(.0625 0 0 .0625 0 13.439)" fill="url(#i)" stroke-width="3" stroke-linecap="round" stroke-linejoin="round" stroke="#212121"/><path d="M14.555 2.895c-2.934 0-5.293.59-5.293 1.324v.496c0-.735 2.36-1.324 5.293-1.324h2.644c2.934 0 5.293.59 5.293 1.324v-.496c0-.735-2.36-1.324-5.293-1.324zm0 0" fill="#fff" fill-opacity=".392"/><path d="M235.478-163.38c-41.06 0-74.056 8.25-74.056 18.498 0 10.312 32.997 18.561 74.056 18.561h37.058c40.997 0 74.056-8.25 74.056-18.56 0-10.25-33.06-18.499-74.056-18.499zm0 0" transform="matrix(.0625 0 0 .0625 0 13.439)" fill="url(#j)" stroke-width="2.625" stroke-linecap="round" stroke-linejoin="round" stroke="#212121"/><path d="M15.875 28.035c-4.762 0-8.598-2.953-8.598-6.617v-.66c0 3.664 3.836 6.613 8.598 6.613 4.766 0 8.602-2.95 8.602-6.613v.66c0 3.664-3.836 6.617-8.602 6.617zm0 0M14.555 8.188c-2.934 0-5.293-.59-5.293-1.32v-.5c0 .734 2.36 1.323 5.293 1.323h2.644c2.934 0 5.293-.59 5.293-1.324v.5c0 .73-2.36 1.32-5.293 1.32zm0 0" fill-opacity=".235"/><path d="M14.555 6.121c-2.934 0-5.293-.59-5.293-1.324V4.3c0 .734 2.36 1.324 5.293 1.324h2.644c2.934 0 5.293-.59 5.293-1.324v.496c0 .734-2.36 1.324-5.293 1.324zm0 0" fill="#fff" fill-opacity=".235"/><path d="M14.555 2.8c-1.473 0-2.801.15-3.77.391-.484.122-.879.266-1.156.43-.281.168-.461.363-.461.598v2.648c0 .23.18.43.46.594.278.168.673.312 1.157.434.969.238 2.297.386 3.77.386h2.644c1.473 0 2.801-.148 3.77-.386.484-.122.875-.266 1.156-.434.281-.164.46-.363.46-.594V4.22c0-.235-.179-.43-.46-.598-.281-.164-.672-.308-1.156-.43-.969-.242-2.297-.39-3.77-.39zm0 .188h2.644c1.461 0 2.778.149 3.723.387.473.117.851.258 1.11.41.253.149.366.3.366.434v2.648c0 .133-.113.281-.367.434-.258.152-.636.293-1.11.41-.944.234-2.26.383-3.722.383h-2.644c-1.461 0-2.778-.149-3.723-.383-.473-.117-.855-.258-1.11-.41-.253-.153-.367-.301-.367-.434V4.22c0-.133.114-.285.368-.434.254-.152.636-.293 1.109-.41.945-.238 2.262-.387 3.723-.387zm0 0" fill="#212121" fill-opacity=".996"/></svg>