<?xml version="1.0" encoding="UTF-8"?>
<svg xmlns="http://www.w3.org/2000/svg" xmlns:xlink="http://www.w3.org/1999/xlink" width="32px" height="32px" viewBox="0 0 32 32" version="1.1">
<defs>
<linearGradient id="linear0" gradientUnits="userSpaceOnUse" x1="254" y1="233.5" x2="254" y2="254.666672" gradientTransform="matrix(0.062506,0,0,0.062506,-0.00000763012,13.438783)">
<stop offset="0" style="stop-color:rgb(0%,0%,0%);stop-opacity:0.27451;"/>
<stop offset="1" style="stop-color:rgb(0%,0%,0%);stop-opacity:0;"/>
</linearGradient>
<radialGradient id="radial0" gradientUnits="userSpaceOnUse" cx="450.908936" cy="189.579361" fx="450.908936" fy="189.579361" r="21.166656" gradientTransform="matrix(0.00000017417,-0.0781325,-0.140638,-0.000000101539,54.115209,63.595331)">
<stop offset="0" style="stop-color:rgb(0%,0%,0%);stop-opacity:0.313726;"/>
<stop offset="0.222222" style="stop-color:rgb(0%,0%,0%);stop-opacity:0.27451;"/>
<stop offset="1" style="stop-color:rgb(0%,0%,0%);stop-opacity:0;"/>
</radialGradient>
<radialGradient id="radial1" gradientUnits="userSpaceOnUse" cx="450.908936" cy="189.579361" fx="450.908936" fy="189.579361" r="21.166656" gradientTransform="matrix(-0.00000017417,0.0781325,0.140638,0.000000101539,-22.362182,-7.527481)">
<stop offset="0" style="stop-color:rgb(0%,0%,0%);stop-opacity:0.313726;"/>
<stop offset="0.222222" style="stop-color:rgb(0%,0%,0%);stop-opacity:0.27451;"/>
<stop offset="1" style="stop-color:rgb(0%,0%,0%);stop-opacity:0;"/>
</radialGradient>
<radialGradient id="radial2" gradientUnits="userSpaceOnUse" cx="450.908936" cy="189.579361" fx="450.908936" fy="189.579361" r="21.166656" gradientTransform="matrix(-0.00000017417,-0.0781325,0.140638,-0.000000101539,-22.362182,63.595331)">
<stop offset="0" style="stop-color:rgb(0%,0%,0%);stop-opacity:0.313726;"/>
<stop offset="0.222222" style="stop-color:rgb(0%,0%,0%);stop-opacity:0.27451;"/>
<stop offset="1" style="stop-color:rgb(0%,0%,0%);stop-opacity:0;"/>
</radialGradient>
<radialGradient id="radial3" gradientUnits="userSpaceOnUse" cx="450.908936" cy="189.579361" fx="450.908936" fy="189.579361" r="21.166656" gradientTransform="matrix(0.00000017417,0.0781325,-0.140638,0.000000101539,54.115207,-7.527481)">
<stop offset="0" style="stop-color:rgb(0%,0%,0%);stop-opacity:0.313726;"/>
<stop offset="0.222222" style="stop-color:rgb(0%,0%,0%);stop-opacity:0.27451;"/>
<stop offset="1" style="stop-color:rgb(0%,0%,0%);stop-opacity:0;"/>
</radialGradient>
<linearGradient id="linear1" gradientUnits="userSpaceOnUse" x1="254" y1="-211" x2="254" y2="297" gradientTransform="matrix(0.062506,0,0,0.062506,0,13.438783)">
<stop offset="0" style="stop-color:rgb(81.176472%,84.705883%,86.274511%);stop-opacity:1;"/>
<stop offset="1" style="stop-color:rgb(69.01961%,74.509805%,77.254903%);stop-opacity:1;"/>
</linearGradient>
<linearGradient id="linear2" gradientUnits="userSpaceOnUse" x1="23.69747" y1="78.827309" x2="23.69747" y2="46.605209" gradientTransform="matrix(0.53993,0,0,0.53993,-1.268356,-3.002654)">
<stop offset="0" style="stop-color:rgb(29.803923%,68.627453%,31.37255%);stop-opacity:1;"/>
<stop offset="1" style="stop-color:rgb(40.000001%,73.333335%,41.568628%);stop-opacity:1;"/>
</linearGradient>
<linearGradient id="linear3" gradientUnits="userSpaceOnUse" x1="31.753057" y1="65.017891" x2="31.753057" y2="35.097298" gradientTransform="matrix(0.53993,0,0,0.53993,-1.268356,-3.002654)">
<stop offset="0" style="stop-color:rgb(93.725491%,32.549021%,31.37255%);stop-opacity:1;"/>
<stop offset="1" style="stop-color:rgb(89.803922%,45.09804%,45.09804%);stop-opacity:1;"/>
</linearGradient>
<linearGradient id="linear4" gradientUnits="userSpaceOnUse" x1="43.260979" y1="78.827393" x2="43.260979" y2="48.906799" gradientTransform="matrix(0.53993,0,0,0.53993,-1.268356,-3.002654)">
<stop offset="0" style="stop-color:rgb(100%,65.490198%,14.901961%);stop-opacity:1;"/>
<stop offset="1" style="stop-color:rgb(100%,71.764708%,30.19608%);stop-opacity:1;"/>
</linearGradient>
<linearGradient id="linear5" gradientUnits="userSpaceOnUse" x1="31.752995" y1="65.017838" x2="31.752995" y2="48.906788" gradientTransform="matrix(0.53993,0,0,0.53993,-1.268356,-3.002654)">
<stop offset="0" style="stop-color:rgb(87.843138%,87.843138%,87.843138%);stop-opacity:1;"/>
<stop offset="1" style="stop-color:rgb(93.333334%,93.333334%,93.333334%);stop-opacity:1;"/>
</linearGradient>
<linearGradient id="linear6" gradientUnits="userSpaceOnUse" x1="31.752995" y1="62.716259" x2="31.752995" y2="51.208366" gradientTransform="matrix(0.53993,0,0,0.53993,-1.268356,-3.002654)">
<stop offset="0" style="stop-color:rgb(12.941177%,58.823532%,95.294118%);stop-opacity:1;"/>
<stop offset="1" style="stop-color:rgb(39.215687%,70.980394%,96.470588%);stop-opacity:1;"/>
</linearGradient>
<linearGradient id="linear7" gradientUnits="userSpaceOnUse" x1="254" y1="148.833328" x2="254" y2="21.833334" gradientTransform="matrix(0.062506,0,0,0.062506,0,13.438783)">
<stop offset="0" style="stop-color:rgb(0%,0%,0%);stop-opacity:0.0784314;"/>
<stop offset="1" style="stop-color:rgb(0%,0%,0%);stop-opacity:0;"/>
</linearGradient>
<linearGradient id="linear8" gradientUnits="userSpaceOnUse" x1="359.833344" y1="-73.416664" x2="359.833344" y2="11.25" gradientTransform="matrix(0.062506,0,0,0.062506,-1.329891,13.273273)">
<stop offset="0" style="stop-color:rgb(81.176472%,84.705883%,86.274511%);stop-opacity:1;"/>
<stop offset="1" style="stop-color:rgb(69.01961%,74.509805%,77.254903%);stop-opacity:1;"/>
</linearGradient>
<linearGradient id="linear9" gradientUnits="userSpaceOnUse" x1="359.833344" y1="-73.416664" x2="359.833344" y2="11.25" gradientTransform="matrix(0.062506,0,0,0.062506,-10.577495,13.273273)">
<stop offset="0" style="stop-color:rgb(81.176472%,84.705883%,86.274511%);stop-opacity:1;"/>
<stop offset="1" style="stop-color:rgb(69.01961%,74.509805%,77.254903%);stop-opacity:1;"/>
</linearGradient>
<linearGradient id="linear10" gradientUnits="userSpaceOnUse" x1="960" y1="1855.118164" x2="960" y2="15.118111" gradientTransform="matrix(0.016538,0,0,0.016538,0,0)">
<stop offset="0" style="stop-color:rgb(95.686275%,26.274511%,21.176471%);stop-opacity:1;"/>
<stop offset="1" style="stop-color:rgb(93.725491%,32.549021%,31.37255%);stop-opacity:1;"/>
</linearGradient>
<linearGradient id="linear11" gradientUnits="userSpaceOnUse" x1="254" y1="-189.833328" x2="254" y2="-84" gradientTransform="matrix(0.062506,0,0,0.062506,0,13.438783)">
<stop offset="0" style="stop-color:rgb(81.176472%,84.705883%,86.274511%);stop-opacity:1;"/>
<stop offset="1" style="stop-color:rgb(69.01961%,74.509805%,77.254903%);stop-opacity:1;"/>
</linearGradient>
<linearGradient id="linear12" gradientUnits="userSpaceOnUse" x1="960" y1="1855.118164" x2="960" y2="15.118111" gradientTransform="matrix(1,0,0,-1,0,1270.235352)">
<stop offset="0" style="stop-color:rgb(95.686275%,26.274511%,21.176471%);stop-opacity:1;"/>
<stop offset="1" style="stop-color:rgb(93.725491%,32.549021%,31.37255%);stop-opacity:1;"/>
</linearGradient>
</defs>
<g id="surface1">
<path style=" stroke:none;fill-rule:nonzero;fill:url(#linear0);" d="M 3.96875 28.035156 L 27.785156 28.035156 L 27.785156 29.355469 L 3.96875 29.355469 Z M 3.96875 28.035156 "/>
<path style=" stroke:none;fill-rule:nonzero;fill:url(#radial0);" d="M 27.785156 28.035156 L 30.429688 28.035156 L 30.429688 26.710938 L 27.785156 26.710938 Z M 27.785156 28.035156 "/>
<path style=" stroke:none;fill-rule:nonzero;fill:url(#radial1);" d="M 3.96875 28.035156 L 1.324219 28.035156 L 1.324219 29.355469 L 3.96875 29.355469 Z M 3.96875 28.035156 "/>
<path style=" stroke:none;fill-rule:nonzero;fill:url(#radial2);" d="M 3.96875 28.035156 L 1.324219 28.035156 L 1.324219 26.710938 L 3.96875 26.710938 Z M 3.96875 28.035156 "/>
<path style=" stroke:none;fill-rule:nonzero;fill:url(#radial3);" d="M 27.785156 28.035156 L 30.429688 28.035156 L 30.429688 29.355469 L 27.785156 29.355469 Z M 27.785156 28.035156 "/>
<path style=" stroke:none;fill-rule:nonzero;fill:url(#linear1);" d="M 2.644531 6.863281 L 2.644531 26.710938 C 2.644531 27.445312 3.234375 28.035156 3.96875 28.035156 L 27.785156 28.035156 C 28.515625 28.035156 29.105469 27.445312 29.105469 26.710938 L 29.105469 6.863281 Z M 2.644531 6.863281 "/>
<path style=" stroke:none;fill-rule:nonzero;fill:rgb(100%,100%,100%);fill-opacity:0.392157;" d="M 2.710938 7.03125 C 2.578125 7.429688 2.863281 7.902344 3.339844 7.902344 L 28.480469 7.902344 C 28.957031 7.902344 29.242188 7.429688 29.105469 7.03125 C 29.023438 7.285156 28.792969 7.488281 28.480469 7.488281 L 3.339844 7.488281 C 3.027344 7.488281 2.796875 7.285156 2.710938 7.03125 Z M 2.710938 7.03125 "/>
<path style=" stroke:none;fill-rule:nonzero;fill:url(#linear2);" d="M 15.875 15.949219 C 9.335938 15.949219 4.070312 21.210938 4.070312 27.753906 L 4.070312 27.804688 L 27.679688 27.804688 C 27.679688 27.789062 27.679688 27.769531 27.679688 27.753906 C 27.679688 21.210938 22.417969 15.949219 15.875 15.949219 Z M 15.875 15.949219 "/>
<path style=" stroke:none;fill-rule:nonzero;fill:url(#linear3);" d="M 15.875 15.949219 C 11.359375 15.949219 7.453125 18.457031 5.46875 22.160156 L 10.527344 27.804688 L 20.171875 27.804688 L 20.226562 27.753906 L 20.324219 27.804688 L 27.679688 27.804688 C 27.679688 27.789062 27.679688 27.769531 27.679688 27.753906 C 27.679688 21.210938 22.417969 15.949219 15.875 15.949219 Z M 15.875 15.949219 "/>
<path style=" stroke:none;fill-rule:nonzero;fill:url(#linear4);" d="M 15.875 23.402344 L 20.226562 27.753906 L 20.207031 27.804688 L 27.679688 27.804688 C 27.679688 27.789062 27.679688 27.769531 27.679688 27.753906 C 27.679688 26.269531 27.410156 24.851562 26.917969 23.546875 C 26.878906 23.5 26.847656 23.453125 26.828125 23.402344 Z M 15.875 23.402344 "/>
<path style=" stroke:none;fill-rule:nonzero;fill:url(#linear5);" d="M 15.875 23.402344 C 13.464844 23.402344 11.527344 25.34375 11.527344 27.753906 L 11.527344 27.804688 L 20.226562 27.804688 C 20.226562 27.789062 20.226562 27.769531 20.226562 27.753906 C 20.226562 25.34375 18.285156 23.402344 15.875 23.402344 Z M 15.875 23.402344 "/>
<path style=" stroke:none;fill-rule:nonzero;fill:url(#linear6);" d="M 15.875 24.644531 C 14.15625 24.644531 12.769531 26.03125 12.769531 27.753906 L 12.769531 27.804688 L 18.980469 27.804688 C 18.984375 27.789062 18.984375 27.769531 18.984375 27.753906 C 18.984375 26.03125 17.597656 24.644531 15.875 24.644531 Z M 15.875 24.644531 "/>
<path style=" stroke:none;fill-rule:nonzero;fill:url(#linear7);" d="M 2.644531 14.804688 L 29.105469 14.804688 L 29.105469 22.742188 L 2.644531 22.742188 Z M 2.644531 14.804688 "/>
<path style=" stroke:none;fill-rule:nonzero;fill:url(#linear8);" d="M 20.5 9.347656 C 19.402344 9.347656 18.515625 10.230469 18.515625 11.332031 C 18.515625 12.429688 19.402344 13.316406 20.5 13.316406 C 21.601562 13.316406 22.484375 12.429688 22.484375 11.332031 C 22.484375 10.230469 21.601562 9.347656 20.5 9.347656 Z M 20.5 10.339844 C 21.050781 10.339844 21.492188 10.78125 21.492188 11.332031 C 21.492188 11.878906 21.050781 12.324219 20.5 12.324219 C 19.949219 12.324219 19.507812 11.878906 19.507812 11.332031 C 19.507812 10.78125 19.949219 10.339844 20.5 10.339844 Z M 20.5 10.339844 "/>
<path style=" stroke:none;fill-rule:nonzero;fill:rgb(0%,0%,0%);fill-opacity:0.470588;" d="M 20.5 10.339844 C 21.046875 10.339844 21.492188 10.78125 21.492188 11.332031 C 21.492188 11.878906 21.046875 12.324219 20.5 12.324219 C 19.953125 12.324219 19.507812 11.878906 19.507812 11.332031 C 19.507812 10.78125 19.953125 10.339844 20.5 10.339844 Z M 20.5 10.339844 "/>
<path style=" stroke:none;fill-rule:nonzero;fill:rgb(100%,100%,100%);fill-opacity:0.588235;" d="M 20.5 9.347656 C 19.402344 9.347656 18.515625 10.230469 18.515625 11.332031 C 18.515625 11.386719 18.519531 11.441406 18.523438 11.496094 C 18.605469 10.472656 19.457031 9.675781 20.5 9.675781 C 21.542969 9.675781 22.394531 10.472656 22.476562 11.496094 C 22.484375 11.441406 22.484375 11.386719 22.484375 11.332031 C 22.484375 10.230469 21.601562 9.347656 20.5 9.347656 Z M 19.523438 11.496094 C 19.511719 11.550781 19.507812 11.605469 19.507812 11.660156 C 19.507812 12.210938 19.949219 12.652344 20.5 12.652344 C 21.050781 12.652344 21.492188 12.210938 21.492188 11.660156 C 21.492188 11.605469 21.488281 11.550781 21.480469 11.496094 C 21.402344 11.964844 20.992188 12.324219 20.5 12.324219 C 20.007812 12.324219 19.601562 11.964844 19.523438 11.496094 Z M 19.523438 11.496094 "/>
<path style=" stroke:none;fill-rule:nonzero;fill:rgb(0%,0%,0%);fill-opacity:0.235294;" d="M 20.5 13.644531 C 19.402344 13.644531 18.515625 12.761719 18.515625 11.660156 C 18.515625 11.605469 18.519531 11.550781 18.523438 11.496094 C 18.605469 12.515625 19.457031 13.316406 20.5 13.316406 C 21.542969 13.316406 22.394531 12.515625 22.476562 11.496094 C 22.484375 11.550781 22.484375 11.605469 22.484375 11.660156 C 22.484375 12.761719 21.601562 13.644531 20.5 13.644531 Z M 19.523438 11.496094 C 19.511719 11.441406 19.507812 11.386719 19.507812 11.332031 C 19.507812 10.78125 19.949219 10.339844 20.5 10.339844 C 21.050781 10.339844 21.492188 10.78125 21.492188 11.332031 C 21.492188 11.386719 21.488281 11.441406 21.480469 11.496094 C 21.402344 11.023438 20.992188 10.667969 20.5 10.667969 C 20.007812 10.667969 19.601562 11.023438 19.523438 11.496094 Z M 19.523438 11.496094 "/>
<path style="fill:none;stroke-width:11.338583;stroke-linecap:round;stroke-linejoin:round;stroke:rgb(20%,20%,20%);stroke-opacity:1;stroke-miterlimit:4;" d="M 1319.980826 575.229457 C 1253.609208 575.229457 1199.992278 628.610189 1199.992278 695.218005 C 1199.992278 761.589623 1253.609208 815.206553 1319.980826 815.206553 C 1386.588642 815.206553 1439.969374 761.589623 1439.969374 695.218005 C 1439.969374 628.610189 1386.588642 575.229457 1319.980826 575.229457 Z M 1319.980826 635.223731 C 1353.284734 635.223731 1379.9751 661.914097 1379.9751 695.218005 C 1379.9751 728.285715 1353.284734 755.212279 1319.980826 755.212279 C 1286.676918 755.212279 1259.986552 728.285715 1259.986552 695.218005 C 1259.986552 661.914097 1286.676918 635.223731 1319.980826 635.223731 Z M 1319.980826 635.223731 " transform="matrix(0.016538,0,0,0.016538,-1.329891,-0.16551)"/>
<path style=" stroke:none;fill-rule:nonzero;fill:url(#linear9);" d="M 11.253906 9.347656 C 10.152344 9.347656 9.269531 10.230469 9.269531 11.332031 C 9.269531 12.429688 10.152344 13.316406 11.253906 13.316406 C 12.351562 13.316406 13.238281 12.429688 13.238281 11.332031 C 13.238281 10.230469 12.351562 9.347656 11.253906 9.347656 Z M 11.253906 10.339844 C 11.800781 10.339844 12.246094 10.78125 12.246094 11.332031 C 12.246094 11.878906 11.800781 12.324219 11.253906 12.324219 C 10.703125 12.324219 10.261719 11.878906 10.261719 11.332031 C 10.261719 10.78125 10.703125 10.339844 11.253906 10.339844 Z M 11.253906 10.339844 "/>
<path style=" stroke:none;fill-rule:nonzero;fill:rgb(0%,0%,0%);fill-opacity:0.470588;" d="M 11.253906 10.339844 C 11.800781 10.339844 12.246094 10.78125 12.246094 11.332031 C 12.246094 11.878906 11.800781 12.324219 11.253906 12.324219 C 10.703125 12.324219 10.261719 11.878906 10.261719 11.332031 C 10.261719 10.78125 10.703125 10.339844 11.253906 10.339844 Z M 11.253906 10.339844 "/>
<path style=" stroke:none;fill-rule:nonzero;fill:rgb(100%,100%,100%);fill-opacity:0.588235;" d="M 11.253906 9.347656 C 10.152344 9.347656 9.269531 10.230469 9.269531 11.332031 C 9.269531 11.386719 9.269531 11.441406 9.273438 11.496094 C 9.359375 10.472656 10.210938 9.675781 11.253906 9.675781 C 12.296875 9.675781 13.148438 10.472656 13.230469 11.496094 C 13.234375 11.441406 13.238281 11.386719 13.238281 11.332031 C 13.238281 10.230469 12.351562 9.347656 11.253906 9.347656 Z M 10.273438 11.496094 C 10.265625 11.550781 10.261719 11.605469 10.261719 11.660156 C 10.261719 12.210938 10.703125 12.652344 11.253906 12.652344 C 11.800781 12.652344 12.246094 12.210938 12.246094 11.660156 C 12.246094 11.605469 12.238281 11.550781 12.230469 11.496094 C 12.152344 11.964844 11.746094 12.324219 11.253906 12.324219 C 10.757812 12.324219 10.351562 11.964844 10.273438 11.496094 Z M 10.273438 11.496094 "/>
<path style=" stroke:none;fill-rule:nonzero;fill:rgb(0%,0%,0%);fill-opacity:0.235294;" d="M 11.253906 13.644531 C 10.152344 13.644531 9.269531 12.761719 9.269531 11.660156 C 9.269531 11.605469 9.269531 11.550781 9.273438 11.496094 C 9.359375 12.515625 10.210938 13.316406 11.253906 13.316406 C 12.296875 13.316406 13.148438 12.515625 13.230469 11.496094 C 13.234375 11.550781 13.238281 11.605469 13.238281 11.660156 C 13.238281 12.761719 12.351562 13.644531 11.253906 13.644531 Z M 10.273438 11.496094 C 10.265625 11.441406 10.261719 11.386719 10.261719 11.332031 C 10.261719 10.78125 10.703125 10.339844 11.253906 10.339844 C 11.800781 10.339844 12.246094 10.78125 12.246094 11.332031 C 12.246094 11.386719 12.238281 11.441406 12.230469 11.496094 C 12.152344 11.023438 11.746094 10.667969 11.253906 10.667969 C 10.757812 10.667969 10.351562 11.023438 10.273438 11.496094 Z M 10.273438 11.496094 "/>
<path style="fill:none;stroke-width:11.338583;stroke-linecap:round;stroke-linejoin:round;stroke:rgb(20%,20%,20%);stroke-opacity:1;stroke-miterlimit:4;" d="M 1320.072113 575.229457 C 1253.464297 575.229457 1200.083565 628.610189 1200.083565 695.218005 C 1200.083565 761.589623 1253.464297 815.206553 1320.072113 815.206553 C 1386.443731 815.206553 1440.060661 761.589623 1440.060661 695.218005 C 1440.060661 628.610189 1386.443731 575.229457 1320.072113 575.229457 Z M 1320.072113 635.223731 C 1353.139823 635.223731 1380.066387 661.914097 1380.066387 695.218005 C 1380.066387 728.285715 1353.139823 755.212279 1320.072113 755.212279 C 1286.768205 755.212279 1260.077839 728.285715 1260.077839 695.218005 C 1260.077839 661.914097 1286.768205 635.223731 1320.072113 635.223731 Z M 1320.072113 635.223731 " transform="matrix(0.016538,0,0,0.016538,-10.577495,-0.16551)"/>
<path style=" stroke:none;fill-rule:nonzero;fill:url(#linear10);" d="M 11.246094 10.835938 C 10.878906 10.835938 10.585938 11.128906 10.585938 11.496094 L 10.585938 14.140625 C 10.585938 17.074219 12.945312 19.433594 15.875 19.433594 C 18.808594 19.433594 21.167969 17.074219 21.167969 14.140625 L 21.167969 11.496094 C 21.167969 11.128906 20.875 10.835938 20.507812 10.835938 C 20.140625 10.835938 19.84375 11.128906 19.84375 11.496094 L 19.84375 14.140625 C 19.84375 16.339844 18.074219 18.109375 15.875 18.109375 C 13.675781 18.109375 11.90625 16.339844 11.90625 14.140625 L 11.90625 11.496094 C 11.90625 11.128906 11.613281 10.835938 11.246094 10.835938 Z M 11.246094 10.835938 "/>
<path style=" stroke:none;fill-rule:nonzero;fill:rgb(100%,100%,100%);fill-opacity:0.392157;" d="M 11.246094 10.835938 C 10.878906 10.835938 10.585938 11.128906 10.585938 11.496094 L 10.585938 11.828125 C 10.585938 11.460938 10.878906 11.164062 11.246094 11.164062 C 11.613281 11.164062 11.90625 11.460938 11.90625 11.828125 L 11.90625 11.496094 C 11.90625 11.128906 11.613281 10.835938 11.246094 10.835938 Z M 20.507812 10.835938 C 20.140625 10.835938 19.84375 11.128906 19.84375 11.496094 L 19.84375 11.828125 C 19.84375 11.460938 20.140625 11.164062 20.507812 11.164062 C 20.875 11.164062 21.167969 11.460938 21.167969 11.828125 L 21.167969 11.496094 C 21.167969 11.128906 20.875 10.835938 20.507812 10.835938 Z M 11.90625 14.140625 L 11.90625 14.472656 C 11.90625 16.671875 13.675781 18.441406 15.875 18.441406 C 18.074219 18.441406 19.84375 16.671875 19.84375 14.472656 L 19.84375 14.140625 C 19.84375 16.339844 18.074219 18.109375 15.875 18.109375 C 13.675781 18.109375 11.90625 16.339844 11.90625 14.140625 Z M 11.90625 14.140625 "/>
<path style=" stroke:none;fill-rule:nonzero;fill:rgb(0%,0%,0%);fill-opacity:0.235294;" d="M 10.585938 14.140625 L 10.585938 14.636719 C 10.585938 17.570312 12.945312 19.929688 15.875 19.929688 C 18.808594 19.929688 21.167969 17.570312 21.167969 14.636719 L 21.167969 14.140625 C 21.167969 17.074219 18.808594 19.433594 15.875 19.433594 C 12.945312 19.433594 10.585938 17.074219 10.585938 14.140625 Z M 10.585938 14.140625 "/>
<path style="fill:none;stroke-width:11.338583;stroke-linecap:round;stroke-linejoin:round;stroke:rgb(20%,20%,20%);stroke-opacity:1;stroke-miterlimit:4;" d="M 680.013838 655.213055 C 657.811232 655.213055 640.096388 672.9279 640.096388 695.130505 L 640.096388 855.036503 C 640.096388 1032.421148 782.759937 1175.084697 959.908384 1175.084697 C 1137.293029 1175.084697 1279.956578 1032.421148 1279.956578 855.036503 L 1279.956578 695.130505 C 1279.956578 672.9279 1262.241733 655.213055 1240.039128 655.213055 C 1217.836522 655.213055 1199.88548 672.9279 1199.88548 695.130505 L 1199.88548 855.036503 C 1199.88548 988.015937 1092.887818 1095.013599 959.908384 1095.013599 C 826.92895 1095.013599 719.931288 988.015937 719.931288 855.036503 L 719.931288 695.130505 C 719.931288 672.9279 702.216443 655.213055 680.013838 655.213055 Z M 680.013838 655.213055 " transform="matrix(0.016538,0,0,0.016538,0,0)"/>
<path style="fill:none;stroke-width:11.338583;stroke-linecap:round;stroke-linejoin:round;stroke:rgb(12.941177%,12.941177%,12.941177%);stroke-opacity:1;stroke-miterlimit:4;" d="M 159.905998 414.999761 L 159.905998 1615.121439 C 159.905998 1659.52665 195.571885 1695.192537 239.977096 1695.192537 L 1680.07587 1695.192537 C 1724.244882 1695.192537 1759.91077 1659.52665 1759.91077 1615.121439 L 1759.91077 414.999761 Z M 159.905998 414.999761 " transform="matrix(0.016538,0,0,0.016538,0,0)"/>
<path style=" stroke:none;fill-rule:nonzero;fill:url(#linear11);" d="M 4.628906 5.542969 C 4.527344 5.542969 4.425781 5.566406 4.335938 5.613281 L 3.011719 6.273438 C 2.738281 6.410156 2.59375 6.71875 2.664062 7.015625 C 2.734375 7.316406 3 7.527344 3.308594 7.527344 L 28.445312 7.527344 C 28.75 7.527344 29.019531 7.316406 29.089844 7.015625 C 29.160156 6.71875 29.015625 6.410156 28.742188 6.273438 L 27.417969 5.613281 C 27.324219 5.566406 27.226562 5.542969 27.121094 5.542969 Z M 4.628906 5.542969 "/>
<path style="fill-rule:nonzero;fill:rgb(0%,0%,0%);fill-opacity:0.117647;stroke-width:3;stroke-linecap:round;stroke-linejoin:round;stroke:rgb(12.941177%,12.941177%,12.941177%);stroke-opacity:1;stroke-miterlimit:4;" d="M 74.055428 -126.320968 C 72.430583 -126.320968 70.805738 -125.946004 69.368376 -125.196076 L 48.182899 -114.634584 C 43.808317 -112.447293 41.496037 -107.510265 42.62093 -102.760718 C 43.745822 -97.948678 47.995417 -94.574 52.932445 -94.574 L 455.081542 -94.574 C 459.956076 -94.574 464.268165 -97.948678 465.393057 -102.760718 C 466.51795 -107.510265 464.205671 -112.447293 459.831088 -114.634584 L 438.645611 -125.196076 C 437.145755 -125.946004 435.583404 -126.320968 433.896065 -126.320968 Z M 74.055428 -126.320968 " transform="matrix(0.062506,0,0,0.062506,0,13.438783)"/>
<path style=" stroke:none;fill-rule:nonzero;fill:rgb(0%,0%,0%);fill-opacity:0.235294;" d="M 2.644531 26.394531 L 2.644531 26.738281 C 2.644531 27.472656 3.234375 28.0625 3.96875 28.0625 L 27.785156 28.0625 C 28.515625 28.0625 29.105469 27.472656 29.105469 26.738281 L 29.105469 26.394531 C 29.105469 27.128906 28.515625 27.71875 27.785156 27.71875 L 3.96875 27.71875 C 3.234375 27.71875 2.644531 27.128906 2.644531 26.394531 Z M 2.644531 26.394531 "/>
<path style="fill-rule:nonzero;fill:url(#linear12);stroke-width:11.338583;stroke-linecap:round;stroke-linejoin:round;stroke:rgb(12.941177%,12.941177%,12.941177%);stroke-opacity:1;stroke-miterlimit:4;" d="M 959.908384 95.187765 C 810.395095 95.187765 685.44639 196.752875 650.016701 335.164861 L 733.630768 335.164861 C 766.46228 241.630481 855.036503 175.022665 959.908384 175.022665 C 1064.780264 175.022665 1153.590686 241.630481 1186.422198 335.164861 L 1270.036265 335.164861 C 1234.606575 196.752875 1109.657871 95.187765 959.908384 95.187765 Z M 959.908384 95.187765 " transform="matrix(0.016538,0,0,0.016538,0,0)"/>
</g>
</svg>
