<svg xmlns="http://www.w3.org/2000/svg" width="32pt" height="32pt" viewBox="0 0 32 32"><defs><radialGradient id="a" gradientUnits="userSpaceOnUse" cx="450.909" cy="189.579" fx="450.909" fy="189.579" r="21.167" gradientTransform="matrix(0 -.07813 -.14064 0 48.658 63.595)"><stop offset="0" stop-opacity=".314"/><stop offset=".222" stop-opacity=".275"/><stop offset="1" stop-opacity="0"/></radialGradient><radialGradient id="b" gradientUnits="userSpaceOnUse" cx="450.909" cy="189.579" fx="450.909" fy="189.579" r="21.167" gradientTransform="matrix(0 .07813 .14064 0 -12.77 -7.527)"><stop offset="0" stop-opacity=".314"/><stop offset=".222" stop-opacity=".275"/><stop offset="1" stop-opacity="0"/></radialGradient><radialGradient id="c" gradientUnits="userSpaceOnUse" cx="450.909" cy="189.579" fx="450.909" fy="189.579" r="21.167" gradientTransform="matrix(0 -.07813 .14064 0 -12.77 63.595)"><stop offset="0" stop-opacity=".314"/><stop offset=".222" stop-opacity=".275"/><stop offset="1" stop-opacity="0"/></radialGradient><radialGradient id="d" gradientUnits="userSpaceOnUse" cx="450.909" cy="189.579" fx="450.909" fy="189.579" r="21.167" gradientTransform="matrix(0 .07813 -.14064 0 48.658 -7.527)"><stop offset="0" stop-opacity=".314"/><stop offset=".222" stop-opacity=".275"/><stop offset="1" stop-opacity="0"/></radialGradient><linearGradient id="e" gradientUnits="userSpaceOnUse" x1="255.323" y1="233.5" x2="255.323" y2="254.667" gradientTransform="matrix(.01336 0 0 .0625 12.465 13.439)"><stop offset="0" stop-opacity=".275"/><stop offset="1" stop-opacity="0"/></linearGradient><linearGradient id="f" gradientUnits="userSpaceOnUse" x1="254" y1="-168.667" x2="254" y2="32.417"><stop offset="0" stop-color="#ffd54f"/><stop offset="1" stop-color="#ffca28"/></linearGradient><linearGradient id="g" gradientUnits="userSpaceOnUse" x1="254" y1="-168.667" x2="254" y2="32.417" gradientTransform="matrix(3.77953 0 0 3.77953 0 812.598)"><stop offset="0" stop-color="#64b5f6"/><stop offset="1" stop-color="#42a5f5"/></linearGradient><linearGradient id="h" gradientUnits="userSpaceOnUse" x1="254" y1="-168.667" x2="254" y2="32.416" gradientTransform="matrix(1 0 0 -1 0 64.833)"><stop offset="0" stop-color="#66bb6a"/><stop offset="1" stop-color="#81c784"/></linearGradient><linearGradient id="i" gradientUnits="userSpaceOnUse" x1="254" y1="-168.667" x2="254" y2="32.416" gradientTransform="rotate(180 254 32.417)"><stop offset="0" stop-color="#ef5350"/><stop offset="1" stop-color="#e57373"/></linearGradient><linearGradient id="j" gradientUnits="userSpaceOnUse" x1="1320" y1="1695.118" x2="1320" y2="975.118" gradientTransform="rotate(.891) scale(.01654)"><stop offset="0" stop-color="#b0bec5"/><stop offset="1" stop-color="#cfd8dc"/></linearGradient><linearGradient id="k" gradientUnits="userSpaceOnUse" x1="243.417" y1="-20.5" x2="243.417" y2="85.333"><stop offset="0" stop-color="#b0bec5"/><stop offset="1" stop-color="#cfd8dc"/></linearGradient></defs><path d="M22.328 28.035h2.645v-1.324h-2.645zm0 0" fill="url(#a)"/><path d="M13.563 28.035h-2.649v1.32h2.649zm0 0" fill="url(#b)"/><path d="M13.563 28.035h-2.649v-1.324h2.649zm0 0" fill="url(#c)"/><path d="M22.328 28.035h2.645v1.32h-2.645zm0 0" fill="url(#d)"/><path d="M13.563 27.371h8.765v1.984h-8.765zm0 0" fill="url(#e)"/><path d="M253.976-168.692c111.052 0 201.106 90.054 201.106 201.106 0 111.052-90.054 201.106-201.106 201.106-111.052 0-201.044-90.054-201.044-201.106 0-111.052 89.992-201.106 201.044-201.106zm0 0" transform="matrix(.0625 0 0 .0625 0 13.439)" fill="url(#f)" stroke-width="3" stroke-linecap="round" stroke="#333"/><path d="M959.908 175.023c-420.904 0-759.848 338.944-759.848 760.085h759.848zm0 0" transform="rotate(.891) scale(.01654)" fill="url(#g)" stroke-width="11.339" stroke-linecap="round" stroke="#333"/><path d="M253.976 233.52c-111.365 0-201.044-89.68-201.044-201.106h201.044zm0 0" transform="matrix(.0625 0 0 .0625 0 13.439)" fill="url(#h)" stroke-width="3" stroke-linecap="round" stroke="#333"/><path d="M253.976 233.52c111.427 0 201.106-89.68 201.106-201.106H253.976zm0 0" transform="matrix(.0625 0 0 .0625 0 13.439)" fill="url(#i)" stroke-width="3" stroke-linecap="round" stroke="#333"/><path d="M15.875 28.035a12.54 12.54 0 0 1-12.566-12.57v-.121a12.542 12.542 0 0 0 12.566 12.445 12.545 12.545 0 0 0 12.57-12.445v.12c0 6.966-5.605 12.571-12.57 12.571zm0 0" fill-opacity=".196"/><path d="M15.875 2.895A12.54 12.54 0 0 0 3.309 15.59 12.543 12.543 0 0 1 15.875 3.14a12.546 12.546 0 0 1 12.57 12.45v-.125c0-6.965-5.605-12.57-12.57-12.57zm0 0" fill="#fff" fill-opacity=".392"/><path d="M15.875 2.8a12.638 12.638 0 0 0-12.66 12.665 12.638 12.638 0 0 0 12.66 12.664 12.64 12.64 0 0 0 12.664-12.664A12.64 12.64 0 0 0 15.875 2.8zm0 .188a12.447 12.447 0 0 1 12.477 12.477A12.447 12.447 0 0 1 15.875 27.94 12.446 12.446 0 0 1 3.402 15.465 12.446 12.446 0 0 1 15.875 2.988zm0 0" fill="#212121"/><path d="M21.832 16.125c-1.988 1.324-3.973 5.855-3.973 7.941 0 2.2 1.774 3.97 3.973 3.97a3.962 3.962 0 0 0 3.969-3.97c-.012-2.3-1.985-6.617-3.969-7.941zm0 0" fill="url(#j)"/><path d="M21.832 16.125c-1.988 1.324-3.973 5.855-3.973 7.941 0 .055.004.114.004.172.098-2.148 2.032-6.492 3.969-7.781 1.938 1.293 3.867 5.45 3.965 7.781 0-.058.004-.113.004-.172-.012-2.3-1.985-6.617-3.969-7.941zm0 0" fill="#fff" fill-opacity=".392"/><path d="M17.863 23.91c0 .05-.004.106-.004.156 0 2.2 1.774 3.97 3.973 3.97a3.962 3.962 0 0 0 3.969-3.97c0-.05-.004-.101-.004-.156a3.961 3.961 0 0 1-3.965 3.8 3.962 3.962 0 0 1-3.969-3.8zm0 0" fill-opacity=".235"/><path d="M21.828 16.031a.127.127 0 0 0-.05.016c-1.02.683-2.012 2.156-2.762 3.723-.746 1.57-1.25 3.222-1.25 4.296a4.06 4.06 0 0 0 4.066 4.063 4.06 4.06 0 0 0 4.063-4.063c-.008-1.18-.508-2.836-1.254-4.378-.75-1.54-1.739-2.961-2.758-3.641a.127.127 0 0 0-.055-.016zm.004.211c.945.656 1.914 2.031 2.637 3.528.738 1.523 1.23 3.171 1.238 4.296a3.864 3.864 0 0 1-3.875 3.875 3.865 3.865 0 0 1-3.879-3.875c0-1.011.492-2.664 1.235-4.214.726-1.524 1.695-2.95 2.644-3.61zm0 0" fill="#212121"/><path d="M253.976-20.519c29.247 0 52.932 23.686 52.932 52.933s-23.685 52.932-52.932 52.932c-29.185 0-52.87-23.685-52.87-52.932 0-29.247 23.685-52.933 52.87-52.933zm0 0" transform="matrix(.0625 0 0 .0625 0 13.439)" fill="url(#k)" stroke-width="3" stroke-linecap="square" stroke-linejoin="round" stroke="#212121"/></svg>