<?xml version="1.0" encoding="UTF-8"?>
<svg xmlns="http://www.w3.org/2000/svg" xmlns:xlink="http://www.w3.org/1999/xlink" width="32px" height="32px" viewBox="0 0 32 32" version="1.1">
<defs>
<linearGradient id="linear0" gradientUnits="userSpaceOnUse" x1="254" y1="233.5" x2="254" y2="254.666672" gradientTransform="matrix(0.062506,0,0,0.062506,-0.00000381506,13.438785)">
<stop offset="0" style="stop-color:rgb(0%,0%,0%);stop-opacity:0.27451;"/>
<stop offset="1" style="stop-color:rgb(0%,0%,0%);stop-opacity:0;"/>
</linearGradient>
<radialGradient id="radial0" gradientUnits="userSpaceOnUse" cx="450.908936" cy="189.579361" fx="450.908936" fy="189.579361" r="21.166656" gradientTransform="matrix(0.00000017417,-0.0781325,-0.140638,-0.000000101539,53.12293,63.595333)">
<stop offset="0" style="stop-color:rgb(0%,0%,0%);stop-opacity:0.313726;"/>
<stop offset="0.222222" style="stop-color:rgb(0%,0%,0%);stop-opacity:0.27451;"/>
<stop offset="1" style="stop-color:rgb(0%,0%,0%);stop-opacity:0;"/>
</radialGradient>
<radialGradient id="radial1" gradientUnits="userSpaceOnUse" cx="450.908936" cy="189.579361" fx="450.908936" fy="189.579361" r="21.166656" gradientTransform="matrix(-0.00000017417,0.0781325,0.140638,0.000000101539,-21.20452,-7.527479)">
<stop offset="0" style="stop-color:rgb(0%,0%,0%);stop-opacity:0.313726;"/>
<stop offset="0.222222" style="stop-color:rgb(0%,0%,0%);stop-opacity:0.27451;"/>
<stop offset="1" style="stop-color:rgb(0%,0%,0%);stop-opacity:0;"/>
</radialGradient>
<radialGradient id="radial2" gradientUnits="userSpaceOnUse" cx="450.908936" cy="189.579361" fx="450.908936" fy="189.579361" r="21.166656" gradientTransform="matrix(-0.00000017417,-0.0781325,0.140638,-0.000000101539,-21.20452,63.595333)">
<stop offset="0" style="stop-color:rgb(0%,0%,0%);stop-opacity:0.313726;"/>
<stop offset="0.222222" style="stop-color:rgb(0%,0%,0%);stop-opacity:0.27451;"/>
<stop offset="1" style="stop-color:rgb(0%,0%,0%);stop-opacity:0;"/>
</radialGradient>
<radialGradient id="radial3" gradientUnits="userSpaceOnUse" cx="450.908936" cy="189.579361" fx="450.908936" fy="189.579361" r="21.166656" gradientTransform="matrix(0.00000017417,0.0781325,-0.140638,0.000000101539,53.122929,-7.527479)">
<stop offset="0" style="stop-color:rgb(0%,0%,0%);stop-opacity:0.313726;"/>
<stop offset="0.222222" style="stop-color:rgb(0%,0%,0%);stop-opacity:0.27451;"/>
<stop offset="1" style="stop-color:rgb(0%,0%,0%);stop-opacity:0;"/>
</radialGradient>
<linearGradient id="linear1" gradientUnits="userSpaceOnUse" x1="254" y1="233.5" x2="254" y2="-168.666672" gradientTransform="matrix(0.062506,0,0,0.062506,0,13.438783)">
<stop offset="0" style="stop-color:rgb(87.843138%,87.843138%,87.843138%);stop-opacity:1;"/>
<stop offset="1" style="stop-color:rgb(93.333334%,93.333334%,93.333334%);stop-opacity:1;"/>
</linearGradient>
<linearGradient id="linear2" gradientUnits="userSpaceOnUse" x1="254" y1="233.5" x2="254" y2="-168.666672" gradientTransform="matrix(0.062506,0,0,0.062506,0,13.438783)">
<stop offset="0" style="stop-color:rgb(61.960787%,61.960787%,61.960787%);stop-opacity:1;"/>
<stop offset="1" style="stop-color:rgb(74.117649%,74.117649%,74.117649%);stop-opacity:1;"/>
</linearGradient>
<linearGradient id="linear3" gradientUnits="userSpaceOnUse" x1="243.416672" y1="233.5" x2="254" y2="-168.666656" gradientTransform="matrix(0.062506,0,0,0.062506,0,13.438783)">
<stop offset="0" style="stop-color:rgb(87.843138%,87.843138%,87.843138%);stop-opacity:1;"/>
<stop offset="1" style="stop-color:rgb(93.333334%,93.333334%,93.333334%);stop-opacity:1;"/>
</linearGradient>
<linearGradient id="linear4" gradientUnits="userSpaceOnUse" x1="600" y1="1295.118164" x2="600" y2="735.118103" gradientTransform="matrix(0.016538,0,0,0.016538,0,0)">
<stop offset="0" style="stop-color:rgb(95.686275%,26.274511%,21.176471%);stop-opacity:1;"/>
<stop offset="1" style="stop-color:rgb(93.725491%,32.549021%,31.37255%);stop-opacity:1;"/>
</linearGradient>
<linearGradient id="linear5" gradientUnits="userSpaceOnUse" x1="158.75" y1="64.166664" x2="158.75" y2="43" gradientTransform="matrix(0.062506,0,0,0.062506,0,13.438783)">
<stop offset="0" style="stop-color:rgb(95.686275%,26.274511%,21.176471%);stop-opacity:1;"/>
<stop offset="1" style="stop-color:rgb(93.725491%,32.549021%,31.37255%);stop-opacity:1;"/>
</linearGradient>
</defs>
<g id="surface1">
<path style=" stroke:none;fill-rule:nonzero;fill:url(#linear0);" d="M 5.125 28.035156 L 26.792969 28.035156 L 26.792969 29.355469 L 5.125 29.355469 Z M 5.125 28.035156 "/>
<path style=" stroke:none;fill-rule:nonzero;fill:url(#radial0);" d="M 26.792969 28.035156 L 29.4375 28.035156 L 29.4375 26.710938 L 26.792969 26.710938 Z M 26.792969 28.035156 "/>
<path style=" stroke:none;fill-rule:nonzero;fill:url(#radial1);" d="M 5.125 28.035156 L 2.480469 28.035156 L 2.480469 29.355469 L 5.125 29.355469 Z M 5.125 28.035156 "/>
<path style=" stroke:none;fill-rule:nonzero;fill:url(#radial2);" d="M 5.125 28.035156 L 2.480469 28.035156 L 2.480469 26.710938 L 5.125 26.710938 Z M 5.125 28.035156 "/>
<path style=" stroke:none;fill-rule:nonzero;fill:url(#radial3);" d="M 26.792969 28.035156 L 29.4375 28.035156 L 29.4375 29.355469 L 26.792969 29.355469 Z M 26.792969 28.035156 "/>
<path style=" stroke:none;fill-rule:nonzero;fill:url(#linear1);" d="M 3.636719 2.894531 L 28.113281 2.894531 C 28.664062 2.894531 29.105469 3.339844 29.105469 3.886719 L 29.105469 27.042969 C 29.105469 27.589844 28.664062 28.035156 28.113281 28.035156 L 3.636719 28.035156 C 3.089844 28.035156 2.644531 27.589844 2.644531 27.042969 L 2.644531 3.886719 C 2.644531 3.339844 3.089844 2.894531 3.636719 2.894531 Z M 3.636719 2.894531 "/>
<path style=" stroke:none;fill-rule:nonzero;fill:rgb(100%,100%,100%);fill-opacity:0.643312;" d="M 3.96875 2.894531 C 3.234375 2.894531 2.644531 3.484375 2.644531 4.21875 L 2.644531 4.382812 C 2.644531 3.652344 3.234375 3.0625 3.96875 3.0625 L 27.785156 3.0625 C 28.515625 3.0625 29.105469 3.652344 29.105469 4.382812 L 29.105469 4.21875 C 29.105469 3.484375 28.515625 2.894531 27.785156 2.894531 Z M 3.96875 2.894531 "/>
<path style=" stroke:none;fill-rule:nonzero;fill:url(#linear2);" d="M 3.636719 2.894531 C 3.089844 2.894531 2.644531 3.339844 2.644531 3.886719 L 2.644531 7.527344 L 29.105469 7.527344 L 29.105469 3.886719 C 29.105469 3.339844 28.664062 2.894531 28.113281 2.894531 Z M 3.636719 2.894531 "/>
<path style=" stroke:none;fill-rule:nonzero;fill:rgb(100%,100%,100%);fill-opacity:0.392157;" d="M 3.636719 2.894531 C 3.089844 2.894531 2.644531 3.339844 2.644531 3.886719 L 2.644531 4.203125 C 2.644531 3.652344 3.089844 3.210938 3.636719 3.210938 L 28.113281 3.210938 C 28.664062 3.210938 29.105469 3.652344 29.105469 4.203125 L 29.105469 3.886719 C 29.105469 3.339844 28.664062 2.894531 28.113281 2.894531 Z M 3.636719 2.894531 "/>
<path style=" stroke:none;fill-rule:nonzero;fill:rgb(0%,0%,0%);fill-opacity:0.235294;" d="M 2.644531 26.710938 L 2.644531 27.042969 C 2.644531 27.589844 3.089844 28.035156 3.636719 28.035156 L 28.113281 28.035156 C 28.664062 28.035156 29.105469 27.589844 29.105469 27.042969 L 29.105469 26.710938 C 29.105469 27.261719 28.664062 27.703125 28.113281 27.703125 L 3.636719 27.703125 C 3.089844 27.703125 2.644531 27.261719 2.644531 26.710938 Z M 2.644531 26.710938 "/>
<path style=" stroke:none;fill-rule:nonzero;fill:rgb(12.941177%,12.941177%,12.941177%);fill-opacity:1;" d="M 3.636719 2.800781 C 3.039062 2.800781 2.550781 3.289062 2.550781 3.886719 L 2.550781 27.042969 C 2.550781 27.640625 3.039062 28.128906 3.636719 28.128906 L 28.113281 28.128906 C 28.714844 28.128906 29.199219 27.640625 29.199219 27.042969 L 29.199219 3.886719 C 29.199219 3.289062 28.714844 2.800781 28.113281 2.800781 Z M 3.636719 2.988281 L 28.113281 2.988281 C 28.613281 2.988281 29.011719 3.390625 29.011719 3.886719 L 29.011719 27.042969 C 29.011719 27.542969 28.613281 27.941406 28.113281 27.941406 L 3.636719 27.941406 C 3.140625 27.941406 2.738281 27.542969 2.738281 27.042969 L 2.738281 3.886719 C 2.738281 3.390625 3.140625 2.988281 3.636719 2.988281 Z M 3.636719 2.988281 "/>
<path style=" stroke:none;fill-rule:nonzero;fill:rgb(0%,0%,0%);fill-opacity:0.235294;" d="M 2.644531 7.503906 L 2.644531 7.859375 L 29.105469 7.859375 L 29.105469 7.503906 Z M 2.644531 7.503906 "/>
<path style="fill:none;stroke-width:11.338583;stroke-linecap:round;stroke-linejoin:miter;stroke:rgb(12.941177%,12.941177%,12.941177%);stroke-opacity:1;stroke-miterlimit:4;" d="M 219.900272 175.022665 C 186.832562 175.022665 159.905998 201.949229 159.905998 235.016939 L 159.905998 455.153409 L 1759.91077 455.153409 L 1759.91077 235.016939 C 1759.91077 201.949229 1733.220404 175.022665 1699.916496 175.022665 Z M 219.900272 175.022665 " transform="matrix(0.016538,0,0,0.016538,0,0)"/>
<path style=" stroke:none;fill-rule:nonzero;fill:rgb(0%,0%,0%);fill-opacity:0.235294;" d="M 2.644531 7.175781 L 2.644531 7.503906 L 29.105469 7.503906 L 29.105469 7.175781 Z M 2.644531 7.175781 "/>
<path style=" stroke:none;fill-rule:nonzero;fill:rgb(45.882353%,45.882353%,45.882353%);fill-opacity:1;" d="M 16.539062 12.15625 L 23.152344 12.15625 C 23.519531 12.15625 23.816406 12.433594 23.816406 12.773438 L 23.816406 12.863281 C 23.816406 13.203125 23.519531 13.480469 23.152344 13.480469 L 16.539062 13.480469 C 16.171875 13.480469 15.875 13.203125 15.875 12.863281 L 15.875 12.773438 C 15.875 12.433594 16.171875 12.15625 16.539062 12.15625 Z M 16.539062 12.15625 "/>
<path style=" stroke:none;fill-rule:nonzero;fill:rgb(45.882353%,45.882353%,45.882353%);fill-opacity:1;" d="M 16.539062 16.125 L 25.800781 16.125 C 26.164062 16.125 26.460938 16.410156 26.460938 16.761719 L 26.460938 16.8125 C 26.460938 17.164062 26.164062 17.449219 25.800781 17.449219 L 16.539062 17.449219 C 16.171875 17.449219 15.875 17.164062 15.875 16.8125 L 15.875 16.761719 C 15.875 16.410156 16.171875 16.125 16.539062 16.125 Z M 16.539062 16.125 "/>
<path style=" stroke:none;fill-rule:nonzero;fill:rgb(45.882353%,45.882353%,45.882353%);fill-opacity:1;" d="M 16.511719 20.171875 L 25.824219 20.171875 C 26.175781 20.171875 26.460938 20.4375 26.460938 20.769531 C 26.460938 21.101562 26.175781 21.371094 25.824219 21.371094 L 16.511719 21.371094 C 16.160156 21.371094 15.875 21.101562 15.875 20.769531 C 15.875 20.4375 16.160156 20.171875 16.511719 20.171875 Z M 16.511719 20.171875 "/>
<path style=" stroke:none;fill-rule:nonzero;fill:rgb(38.039216%,38.039216%,38.039216%);fill-opacity:1;" d="M 9.921875 12.15625 C 8.867188 12.15625 7.894531 12.507812 7.117188 13.097656 L 7.828125 13.808594 C 8.417969 13.394531 9.140625 13.148438 9.921875 13.148438 C 10.648438 13.148438 11.320312 13.359375 11.886719 13.71875 L 12.410156 13.195312 L 12.40625 13.199219 C 12.476562 13.128906 12.554688 13.074219 12.640625 13.035156 C 11.878906 12.480469 10.941406 12.15625 9.921875 12.15625 Z M 12.964844 13.585938 C 12.921875 13.589844 12.882812 13.605469 12.855469 13.632812 C 12.855469 13.636719 12.855469 13.636719 12.851562 13.636719 L 12.386719 14.105469 C 12.460938 14.175781 12.535156 14.25 12.605469 14.324219 L 13.074219 13.859375 C 13.074219 13.855469 13.074219 13.855469 13.078125 13.855469 C 13.125 13.808594 13.136719 13.742188 13.113281 13.683594 C 13.085938 13.621094 13.027344 13.585938 12.964844 13.585938 Z M 6.234375 13.984375 C 5.640625 14.761719 5.292969 15.730469 5.292969 16.789062 C 5.292969 19.351562 7.359375 21.417969 9.921875 21.417969 C 12.488281 21.417969 14.554688 19.351562 14.554688 16.789062 C 14.554688 15.769531 14.230469 14.832031 13.675781 14.070312 C 13.636719 14.15625 13.582031 14.234375 13.511719 14.304688 L 13.515625 14.300781 L 12.992188 14.824219 C 13.351562 15.390625 13.5625 16.0625 13.5625 16.789062 C 13.5625 18.804688 11.9375 20.425781 9.921875 20.425781 C 7.90625 20.425781 6.285156 18.804688 6.285156 16.789062 C 6.285156 16.007812 6.527344 15.285156 6.945312 14.695312 Z M 6.234375 13.984375 "/>
<path style=" stroke:none;fill-rule:nonzero;fill:url(#linear3);" d="M 5.621094 4.21875 L 26.128906 4.21875 C 26.679688 4.21875 27.121094 4.664062 27.121094 5.210938 C 27.121094 5.757812 26.679688 6.203125 26.128906 6.203125 L 5.621094 6.203125 C 5.074219 6.203125 4.628906 5.757812 4.628906 5.210938 C 4.628906 4.664062 5.074219 4.21875 5.621094 4.21875 Z M 5.621094 4.21875 "/>
<path style=" stroke:none;fill-rule:nonzero;fill:rgb(0%,0%,0%);fill-opacity:0.235294;" d="M 5.621094 4.21875 C 5.074219 4.21875 4.628906 4.660156 4.628906 5.210938 C 4.628906 5.253906 4.632812 5.292969 4.636719 5.335938 C 4.699219 4.84375 5.117188 4.46875 5.621094 4.46875 L 26.128906 4.46875 C 26.636719 4.46875 27.054688 4.84375 27.113281 5.335938 C 27.121094 5.292969 27.121094 5.253906 27.121094 5.210938 C 27.121094 4.660156 26.679688 4.21875 26.128906 4.21875 Z M 5.621094 4.21875 "/>
<path style=" stroke:none;fill-rule:nonzero;fill:rgb(100%,100%,100%);fill-opacity:0.392157;" d="M 5.621094 6.410156 C 5.074219 6.410156 4.628906 5.96875 4.628906 5.417969 C 4.628906 5.375 4.632812 5.335938 4.636719 5.292969 C 4.699219 5.785156 5.117188 6.164062 5.621094 6.164062 L 26.128906 6.164062 C 26.636719 6.164062 27.054688 5.785156 27.113281 5.292969 C 27.121094 5.335938 27.121094 5.375 27.121094 5.417969 C 27.121094 5.96875 26.679688 6.410156 26.128906 6.410156 Z M 5.621094 6.410156 "/>
<path style="fill:none;stroke-width:3;stroke-linecap:round;stroke-linejoin:round;stroke:rgb(12.941177%,12.941177%,12.941177%);stroke-opacity:1;stroke-miterlimit:4;" d="M 89.928912 -147.506445 L 418.022581 -147.506445 C 426.834239 -147.506445 433.896065 -140.382126 433.896065 -131.632961 C 433.896065 -122.883797 426.834239 -115.759477 418.022581 -115.759477 L 89.928912 -115.759477 C 81.179748 -115.759477 74.055428 -122.883797 74.055428 -131.632961 C 74.055428 -140.382126 81.179748 -147.506445 89.928912 -147.506445 Z M 89.928912 -147.506445 " transform="matrix(0.062506,0,0,0.062506,0,13.438783)"/>
<path style=" stroke:none;fill-rule:nonzero;fill:rgb(45.882353%,45.882353%,45.882353%);fill-opacity:1;" d="M 6.285156 4.878906 L 15.546875 4.878906 C 15.726562 4.878906 15.875 5.027344 15.875 5.210938 C 15.875 5.394531 15.726562 5.542969 15.546875 5.542969 L 6.285156 5.542969 C 6.101562 5.542969 5.953125 5.394531 5.953125 5.210938 C 5.953125 5.027344 6.101562 4.878906 6.285156 4.878906 Z M 6.285156 4.878906 "/>
<path style=" stroke:none;fill-rule:nonzero;fill:rgb(45.882353%,45.882353%,45.882353%);fill-opacity:1;" d="M 16.867188 4.878906 L 19.515625 4.878906 C 19.699219 4.878906 19.84375 5.027344 19.84375 5.210938 C 19.84375 5.394531 19.699219 5.542969 19.515625 5.542969 L 16.867188 5.542969 C 16.6875 5.542969 16.539062 5.394531 16.539062 5.210938 C 16.539062 5.027344 16.6875 4.878906 16.867188 4.878906 Z M 16.867188 4.878906 "/>
<path style=" stroke:none;fill-rule:nonzero;fill:rgb(45.882353%,45.882353%,45.882353%);fill-opacity:1;" d="M 20.839844 4.878906 L 23.484375 4.878906 C 23.667969 4.878906 23.816406 5.027344 23.816406 5.210938 C 23.816406 5.394531 23.667969 5.542969 23.484375 5.542969 L 20.839844 5.542969 C 20.65625 5.542969 20.507812 5.394531 20.507812 5.210938 C 20.507812 5.027344 20.65625 4.878906 20.839844 4.878906 Z M 20.839844 4.878906 "/>
<path style=" stroke:none;fill-rule:nonzero;fill:url(#linear4);" d="M 6.175781 12.730469 C 6.050781 12.730469 5.9375 12.808594 5.886719 12.925781 C 5.839844 13.042969 5.867188 13.179688 5.960938 13.265625 L 9.449219 16.757812 C 9.4375 16.953125 9.546875 17.140625 9.726562 17.21875 C 9.90625 17.300781 10.117188 17.261719 10.253906 17.121094 L 13.292969 14.078125 C 13.433594 13.945312 13.476562 13.738281 13.398438 13.558594 C 13.324219 13.382812 13.148438 13.269531 12.953125 13.273438 C 12.832031 13.277344 12.714844 13.328125 12.632812 13.417969 L 9.8125 16.234375 L 6.402344 12.824219 C 6.34375 12.765625 6.261719 12.730469 6.175781 12.730469 Z M 6.175781 12.730469 "/>
<path style=" stroke:none;fill-rule:nonzero;fill:rgb(100%,100%,100%);fill-opacity:0.392157;" d="M 6.175781 12.730469 C 6.074219 12.730469 5.980469 12.78125 5.921875 12.867188 C 5.863281 12.949219 5.847656 13.058594 5.886719 13.152344 C 5.929688 13.03125 6.046875 12.953125 6.175781 12.953125 C 6.261719 12.953125 6.34375 12.984375 6.402344 13.046875 L 9.8125 16.457031 L 12.632812 13.636719 C 12.714844 13.550781 12.832031 13.5 12.953125 13.496094 C 13.175781 13.488281 13.371094 13.640625 13.421875 13.855469 C 13.457031 13.710938 13.421875 13.5625 13.332031 13.449219 C 13.238281 13.335938 13.101562 13.269531 12.953125 13.273438 C 12.832031 13.277344 12.714844 13.328125 12.632812 13.417969 L 9.8125 16.234375 L 6.402344 12.824219 C 6.34375 12.765625 6.261719 12.730469 6.175781 12.730469 Z M 6.175781 12.730469 "/>
<path style=" stroke:none;fill-rule:nonzero;fill:rgb(0%,0%,0%);fill-opacity:0.235294;" d="M 5.914062 13.183594 C 5.835938 13.304688 5.855469 13.46875 5.960938 13.570312 L 9.449219 17.0625 C 9.4375 17.257812 9.546875 17.445312 9.726562 17.523438 C 9.90625 17.605469 10.117188 17.566406 10.253906 17.425781 L 13.292969 14.382812 C 13.429688 14.253906 13.472656 14.054688 13.40625 13.882812 C 13.382812 13.945312 13.34375 14.003906 13.292969 14.050781 L 10.253906 17.09375 C 10.117188 17.234375 9.90625 17.273438 9.726562 17.195312 C 9.546875 17.113281 9.4375 16.929688 9.449219 16.730469 L 5.960938 13.242188 C 5.941406 13.222656 5.925781 13.203125 5.914062 13.183594 Z M 5.914062 13.183594 "/>
<path style="fill:none;stroke-width:11.338583;stroke-linecap:round;stroke-linejoin:round;stroke:rgb(12.941177%,12.941177%,12.941177%);stroke-opacity:1;stroke-miterlimit:4;" d="M 373.428926 769.769051 C 365.870592 769.769051 359.020852 774.493009 355.950279 781.578947 C 353.115904 788.664885 354.769289 796.931813 360.43804 802.128167 L 571.36279 1013.289116 C 570.654197 1025.099012 577.267739 1036.436513 588.132843 1041.160471 C 598.997948 1046.120628 611.752636 1043.758649 620.019564 1035.255523 L 803.781553 851.257336 C 812.284678 843.226607 814.882855 830.708117 810.158897 819.843012 C 805.671136 809.214105 795.042229 802.364365 783.232333 802.600563 C 775.910197 802.836761 768.824259 805.907334 763.864103 811.339886 L 593.329198 981.638593 L 387.128406 775.437801 C 383.585437 771.894832 378.62528 769.769051 373.428926 769.769051 Z M 373.428926 769.769051 " transform="matrix(0.016538,0,0,0.016538,0,0)"/>
<path style=" stroke:none;fill-rule:nonzero;fill:url(#linear5);" d="M 9.921875 16.125 C 10.289062 16.125 10.585938 16.421875 10.585938 16.789062 C 10.585938 17.152344 10.289062 17.449219 9.921875 17.449219 C 9.558594 17.449219 9.261719 17.152344 9.261719 16.789062 C 9.261719 16.421875 9.558594 16.125 9.921875 16.125 Z M 9.921875 16.125 "/>
<path style=" stroke:none;fill-rule:nonzero;fill:rgb(100%,100%,100%);fill-opacity:0.392157;" d="M 9.921875 16.210938 C 9.554688 16.210938 9.261719 16.503906 9.261719 16.871094 C 9.261719 16.898438 9.261719 16.925781 9.265625 16.953125 C 9.308594 16.625 9.585938 16.375 9.921875 16.375 C 10.261719 16.375 10.539062 16.625 10.578125 16.953125 C 10.582031 16.925781 10.585938 16.898438 10.585938 16.871094 C 10.585938 16.503906 10.289062 16.210938 9.921875 16.210938 Z M 9.921875 16.210938 "/>
<path style=" stroke:none;fill-rule:nonzero;fill:rgb(0%,0%,0%);fill-opacity:0.235294;" d="M 9.921875 17.699219 C 9.554688 17.699219 9.261719 17.402344 9.261719 17.035156 C 9.261719 17.007812 9.261719 16.980469 9.265625 16.953125 C 9.308594 17.28125 9.585938 17.53125 9.921875 17.53125 C 10.261719 17.53125 10.539062 17.28125 10.578125 16.953125 C 10.582031 16.980469 10.585938 17.007812 10.585938 17.035156 C 10.585938 17.402344 10.289062 17.699219 9.921875 17.699219 Z M 9.921875 17.699219 "/>
<path style="fill:none;stroke-width:3;stroke-linecap:round;stroke-linejoin:round;stroke:rgb(12.941177%,12.941177%,12.941177%);stroke-opacity:1;stroke-miterlimit:4;" d="M 158.734842 42.975365 C 164.609281 42.975365 169.358827 47.724911 169.358827 53.59935 C 169.358827 59.411295 164.609281 64.160841 158.734842 64.160841 C 152.922897 64.160841 148.17335 59.411295 148.17335 53.59935 C 148.17335 47.724911 152.922897 42.975365 158.734842 42.975365 Z M 158.734842 42.975365 " transform="matrix(0.062506,0,0,0.062506,0,13.438783)"/>
</g>
</svg>
