<?xml version="1.0" encoding="UTF-8"?>
<svg xmlns="http://www.w3.org/2000/svg" xmlns:xlink="http://www.w3.org/1999/xlink" width="32px" height="32px" viewBox="0 0 32 32" version="1.1">
<defs>
<linearGradient id="linear0" gradientUnits="userSpaceOnUse" x1="254" y1="233.5" x2="254" y2="254.666672" gradientTransform="matrix(0.062506,0,0,0.062506,-0.661532,13.365282)">
<stop offset="0" style="stop-color:rgb(0%,0%,0%);stop-opacity:0.27451;"/>
<stop offset="1" style="stop-color:rgb(0%,0%,0%);stop-opacity:0;"/>
</linearGradient>
<radialGradient id="radial0" gradientUnits="userSpaceOnUse" cx="450.908936" cy="189.579361" fx="450.908936" fy="189.579361" r="21.166656" gradientTransform="matrix(0.00000017417,-0.0781325,-0.140638,-0.000000101539,53.453689,63.521832)">
<stop offset="0" style="stop-color:rgb(0%,0%,0%);stop-opacity:0.313726;"/>
<stop offset="0.222222" style="stop-color:rgb(0%,0%,0%);stop-opacity:0.27451;"/>
<stop offset="1" style="stop-color:rgb(0%,0%,0%);stop-opacity:0;"/>
</radialGradient>
<radialGradient id="radial1" gradientUnits="userSpaceOnUse" cx="450.908936" cy="189.579361" fx="450.908936" fy="189.579361" r="21.166656" gradientTransform="matrix(-0.00000017417,0.0781325,0.140638,0.000000101539,-21.700654,-7.60098)">
<stop offset="0" style="stop-color:rgb(0%,0%,0%);stop-opacity:0.313726;"/>
<stop offset="0.222222" style="stop-color:rgb(0%,0%,0%);stop-opacity:0.27451;"/>
<stop offset="1" style="stop-color:rgb(0%,0%,0%);stop-opacity:0;"/>
</radialGradient>
<radialGradient id="radial2" gradientUnits="userSpaceOnUse" cx="450.908936" cy="189.579361" fx="450.908936" fy="189.579361" r="21.166656" gradientTransform="matrix(-0.00000017417,-0.0781325,0.140638,-0.000000101539,-21.700654,63.521832)">
<stop offset="0" style="stop-color:rgb(0%,0%,0%);stop-opacity:0.313726;"/>
<stop offset="0.222222" style="stop-color:rgb(0%,0%,0%);stop-opacity:0.27451;"/>
<stop offset="1" style="stop-color:rgb(0%,0%,0%);stop-opacity:0;"/>
</radialGradient>
<radialGradient id="radial3" gradientUnits="userSpaceOnUse" cx="450.908936" cy="189.579361" fx="450.908936" fy="189.579361" r="21.166656" gradientTransform="matrix(0.00000017417,0.0781325,-0.140638,0.000000101539,53.453687,-7.60098)">
<stop offset="0" style="stop-color:rgb(0%,0%,0%);stop-opacity:0.313726;"/>
<stop offset="0.222222" style="stop-color:rgb(0%,0%,0%);stop-opacity:0.27451;"/>
<stop offset="1" style="stop-color:rgb(0%,0%,0%);stop-opacity:0;"/>
</radialGradient>
<linearGradient id="linear1" gradientUnits="userSpaceOnUse" x1="306.752655" y1="-19.95573" x2="305.954529" y2="-141.414581" gradientTransform="matrix(0.0720736,0,0,0.190626,-4.909206,31.176492)">
<stop offset="0" style="stop-color:rgb(74.117649%,74.117649%,74.117649%);stop-opacity:1;"/>
<stop offset="1" style="stop-color:rgb(87.843138%,87.843138%,87.843138%);stop-opacity:1;"/>
</linearGradient>
<linearGradient id="linear2" gradientUnits="userSpaceOnUse" x1="307.62677" y1="-22.391003" x2="305.954529" y2="-141.414581" gradientTransform="matrix(0.0617774,0,0,0.158855,-1.939817,28.006644)">
<stop offset="0" style="stop-color:rgb(25.882354%,25.882354%,25.882354%);stop-opacity:1;"/>
<stop offset="1" style="stop-color:rgb(38.039216%,38.039216%,38.039216%);stop-opacity:1;"/>
</linearGradient>
</defs>
<g id="surface1">
<path style=" stroke:none;fill-rule:nonzero;fill:url(#linear0);" d="M 4.628906 28.035156 L 27.121094 28.035156 L 27.121094 29.285156 L 4.628906 29.285156 Z M 4.628906 28.035156 "/>
<path style=" stroke:none;fill-rule:nonzero;fill:url(#radial0);" d="M 27.121094 27.960938 L 29.769531 27.960938 L 29.769531 26.636719 L 27.121094 26.636719 Z M 27.121094 27.960938 "/>
<path style=" stroke:none;fill-rule:nonzero;fill:url(#radial1);" d="M 4.628906 27.960938 L 1.984375 27.960938 L 1.984375 29.285156 L 4.628906 29.285156 Z M 4.628906 27.960938 "/>
<path style=" stroke:none;fill-rule:nonzero;fill:url(#radial2);" d="M 4.628906 27.960938 L 1.984375 27.960938 L 1.984375 26.636719 L 4.628906 26.636719 Z M 4.628906 27.960938 "/>
<path style=" stroke:none;fill-rule:nonzero;fill:url(#radial3);" d="M 27.121094 27.960938 L 29.769531 27.960938 L 29.769531 29.285156 L 27.121094 29.285156 Z M 27.121094 27.960938 "/>
<path style=" stroke:none;fill-rule:nonzero;fill:url(#linear1);" d="M 3.308594 4.21875 L 28.445312 4.21875 C 29.175781 4.21875 29.769531 4.777344 29.769531 5.46875 L 29.769531 26.785156 C 29.769531 27.472656 29.175781 28.035156 28.445312 28.035156 L 3.308594 28.035156 C 2.578125 28.035156 1.984375 27.472656 1.984375 26.785156 L 1.984375 5.46875 C 1.984375 4.777344 2.578125 4.21875 3.308594 4.21875 Z M 3.308594 4.21875 "/>
<path style=" stroke:none;fill-rule:nonzero;fill:rgb(100%,100%,100%);fill-opacity:0.980392;" d="M 3.308594 4.21875 C 2.574219 4.21875 1.984375 4.777344 1.984375 5.46875 L 1.984375 5.800781 C 1.984375 5.105469 2.574219 4.550781 3.308594 4.550781 L 28.445312 4.550781 C 29.179688 4.550781 29.769531 5.105469 29.769531 5.800781 L 29.769531 5.46875 C 29.769531 4.777344 29.179688 4.21875 28.445312 4.21875 Z M 3.308594 4.21875 "/>
<path style=" stroke:none;fill-rule:nonzero;fill:rgb(0%,0%,0%);fill-opacity:0.235294;" d="M 3.308594 28.027344 C 2.574219 28.027344 1.984375 27.46875 1.984375 26.777344 L 1.984375 26.449219 C 1.984375 27.140625 2.574219 27.695312 3.308594 27.695312 L 28.445312 27.695312 C 29.179688 27.695312 29.769531 27.140625 29.769531 26.449219 L 29.769531 26.777344 C 29.769531 27.46875 29.179688 28.027344 28.445312 28.027344 Z M 3.308594 28.027344 "/>
<path style=" stroke:none;fill-rule:nonzero;fill:rgb(6.666667%,6.666667%,6.666667%);fill-opacity:0.588235;" d="M 3.96875 5.464844 C 3.5625 5.464844 3.230469 5.796875 3.230469 6.203125 L 3.230469 24.726562 C 3.230469 25.136719 3.5625 25.464844 3.96875 25.464844 L 27.785156 25.464844 C 28.191406 25.464844 28.523438 25.136719 28.523438 24.726562 L 28.523438 6.203125 C 28.523438 5.796875 28.191406 5.464844 27.785156 5.464844 Z M 3.96875 5.621094 L 27.785156 5.621094 C 28.109375 5.621094 28.367188 5.878906 28.367188 6.203125 L 28.367188 24.726562 C 28.367188 25.050781 28.109375 25.308594 27.785156 25.308594 L 3.96875 25.308594 C 3.644531 25.308594 3.386719 25.050781 3.386719 24.726562 L 3.386719 6.203125 C 3.386719 5.878906 3.644531 5.621094 3.96875 5.621094 Z M 3.96875 5.621094 "/>
<path style=" stroke:none;fill-rule:nonzero;fill:url(#linear2);" d="M 3.96875 5.542969 L 27.785156 5.542969 C 28.148438 5.542969 28.445312 5.839844 28.445312 6.203125 L 28.445312 24.726562 C 28.445312 25.089844 28.148438 25.386719 27.785156 25.386719 L 3.96875 25.386719 C 3.605469 25.386719 3.308594 25.089844 3.308594 24.726562 L 3.308594 6.203125 C 3.308594 5.839844 3.605469 5.542969 3.96875 5.542969 Z M 3.96875 5.542969 "/>
<path style=" stroke:none;fill-rule:nonzero;fill:rgb(87.058824%,87.058824%,87.058824%);fill-opacity:0.705882;" d="M 3.96875 5.628906 C 3.652344 5.628906 3.394531 5.886719 3.394531 6.203125 L 3.394531 24.726562 C 3.394531 25.042969 3.652344 25.300781 3.96875 25.300781 L 27.785156 25.300781 C 28.101562 25.300781 28.359375 25.042969 28.359375 24.726562 L 28.359375 6.203125 C 28.359375 5.886719 28.101562 5.628906 27.785156 5.628906 Z M 3.96875 5.785156 L 27.785156 5.785156 C 28.015625 5.785156 28.203125 5.972656 28.203125 6.203125 L 28.203125 24.726562 C 28.203125 24.960938 28.015625 25.144531 27.785156 25.144531 L 3.96875 25.144531 C 3.734375 25.144531 3.550781 24.960938 3.550781 24.726562 L 3.550781 6.203125 C 3.550781 5.972656 3.734375 5.785156 3.96875 5.785156 Z M 3.96875 5.785156 "/>
<path style=" stroke:none;fill-rule:nonzero;fill:rgb(40.000001%,73.333335%,41.568628%);fill-opacity:0.588235;" d="M 5.953125 6.785156 C 5.910156 6.785156 5.875 6.820312 5.875 6.867188 L 5.875 8.097656 L 4.628906 8.097656 C 4.597656 8.097656 4.570312 8.117188 4.550781 8.144531 C 4.535156 8.171875 4.535156 8.207031 4.550781 8.234375 C 4.570312 8.261719 4.597656 8.277344 4.628906 8.277344 L 5.875 8.277344 L 5.875 9.421875 L 4.628906 9.421875 C 4.582031 9.421875 4.542969 9.460938 4.542969 9.511719 C 4.542969 9.558594 4.582031 9.601562 4.628906 9.601562 L 5.875 9.601562 L 5.875 10.746094 L 4.628906 10.746094 C 4.597656 10.746094 4.570312 10.761719 4.550781 10.789062 C 4.535156 10.816406 4.535156 10.851562 4.550781 10.878906 C 4.570312 10.90625 4.597656 10.925781 4.628906 10.921875 L 5.875 10.921875 L 5.875 12.066406 L 4.628906 12.066406 C 4.597656 12.066406 4.570312 12.085938 4.550781 12.113281 C 4.535156 12.140625 4.535156 12.175781 4.550781 12.203125 C 4.570312 12.230469 4.597656 12.246094 4.628906 12.246094 L 5.875 12.246094 L 5.875 13.390625 L 4.628906 13.390625 C 4.597656 13.390625 4.570312 13.40625 4.550781 13.433594 C 4.535156 13.464844 4.535156 13.496094 4.550781 13.523438 C 4.570312 13.554688 4.597656 13.570312 4.628906 13.570312 L 5.875 13.570312 L 5.875 14.714844 L 4.628906 14.714844 C 4.582031 14.714844 4.542969 14.753906 4.542969 14.804688 C 4.542969 14.851562 4.582031 14.890625 4.628906 14.894531 L 5.875 14.894531 L 5.875 16.039062 L 4.628906 16.039062 C 4.582031 16.039062 4.542969 16.078125 4.542969 16.125 C 4.542969 16.175781 4.582031 16.214844 4.628906 16.214844 L 5.875 16.214844 L 5.875 17.359375 L 4.628906 17.359375 C 4.597656 17.359375 4.570312 17.375 4.550781 17.40625 C 4.535156 17.433594 4.535156 17.464844 4.550781 17.496094 C 4.570312 17.523438 4.597656 17.539062 4.628906 17.539062 L 5.875 17.539062 L 5.875 18.683594 L 4.628906 18.683594 C 4.582031 18.683594 4.542969 18.722656 4.542969 18.773438 C 4.542969 18.820312 4.582031 18.863281 4.628906 18.863281 L 5.875 18.863281 L 5.875 20.007812 L 4.628906 20.007812 C 4.597656 20.007812 4.570312 20.023438 4.550781 20.050781 C 4.535156 20.078125 4.535156 20.113281 4.550781 20.140625 C 4.570312 20.167969 4.597656 20.183594 4.628906 20.183594 L 5.875 20.183594 L 5.875 21.328125 L 4.628906 21.328125 C 4.597656 21.328125 4.570312 21.347656 4.550781 21.375 C 4.535156 21.402344 4.535156 21.4375 4.550781 21.464844 C 4.570312 21.492188 4.597656 21.507812 4.628906 21.507812 L 5.875 21.507812 L 5.875 22.652344 L 4.628906 22.652344 C 4.582031 22.652344 4.542969 22.691406 4.542969 22.742188 C 4.542969 22.789062 4.582031 22.832031 4.628906 22.832031 L 5.875 22.832031 L 5.875 24.066406 C 5.875 24.09375 5.890625 24.117188 5.914062 24.132812 C 5.9375 24.148438 5.96875 24.148438 5.992188 24.132812 C 6.015625 24.117188 6.03125 24.09375 6.03125 24.066406 L 6.03125 22.832031 L 7.199219 22.832031 L 7.199219 24.066406 C 7.199219 24.09375 7.214844 24.117188 7.238281 24.132812 C 7.261719 24.148438 7.292969 24.148438 7.316406 24.132812 C 7.339844 24.117188 7.355469 24.09375 7.355469 24.066406 L 7.355469 22.832031 L 8.523438 22.832031 L 8.523438 24.066406 C 8.519531 24.09375 8.535156 24.117188 8.558594 24.132812 C 8.585938 24.148438 8.613281 24.148438 8.640625 24.132812 C 8.664062 24.117188 8.679688 24.09375 8.679688 24.066406 L 8.679688 22.832031 L 9.84375 22.832031 L 9.84375 24.066406 C 9.84375 24.09375 9.859375 24.117188 9.882812 24.132812 C 9.90625 24.148438 9.9375 24.148438 9.960938 24.132812 C 9.988281 24.117188 10 24.09375 10 24.066406 L 10 22.832031 L 11.167969 22.832031 L 11.167969 24.066406 C 11.167969 24.09375 11.183594 24.117188 11.207031 24.132812 C 11.230469 24.148438 11.261719 24.148438 11.285156 24.132812 C 11.308594 24.117188 11.324219 24.09375 11.324219 24.066406 L 11.324219 22.832031 L 12.492188 22.832031 L 12.492188 24.066406 C 12.492188 24.09375 12.503906 24.117188 12.53125 24.132812 C 12.554688 24.148438 12.582031 24.148438 12.609375 24.132812 C 12.632812 24.117188 12.648438 24.09375 12.648438 24.066406 L 12.648438 22.832031 L 13.8125 22.832031 L 13.8125 24.066406 C 13.8125 24.09375 13.828125 24.117188 13.851562 24.132812 C 13.875 24.148438 13.90625 24.148438 13.929688 24.132812 C 13.957031 24.117188 13.96875 24.09375 13.96875 24.066406 L 13.96875 22.832031 L 15.136719 22.832031 L 15.136719 24.066406 C 15.136719 24.09375 15.152344 24.117188 15.175781 24.132812 C 15.199219 24.148438 15.230469 24.148438 15.253906 24.132812 C 15.277344 24.117188 15.292969 24.09375 15.292969 24.066406 L 15.292969 22.832031 L 16.460938 22.832031 L 16.460938 24.066406 C 16.460938 24.09375 16.472656 24.117188 16.5 24.132812 C 16.523438 24.148438 16.554688 24.148438 16.578125 24.132812 C 16.601562 24.117188 16.617188 24.09375 16.617188 24.066406 L 16.617188 22.832031 L 17.78125 22.832031 L 17.78125 24.066406 C 17.78125 24.09375 17.796875 24.117188 17.820312 24.132812 C 17.847656 24.148438 17.875 24.148438 17.902344 24.132812 C 17.925781 24.117188 17.941406 24.09375 17.9375 24.066406 L 17.9375 22.832031 L 19.105469 22.832031 L 19.105469 24.066406 C 19.105469 24.09375 19.121094 24.117188 19.144531 24.132812 C 19.167969 24.148438 19.199219 24.148438 19.222656 24.132812 C 19.246094 24.117188 19.261719 24.09375 19.261719 24.066406 L 19.261719 22.832031 L 20.429688 22.832031 L 20.429688 24.066406 C 20.429688 24.09375 20.445312 24.117188 20.46875 24.132812 C 20.492188 24.148438 20.523438 24.148438 20.546875 24.132812 C 20.570312 24.117188 20.585938 24.09375 20.585938 24.066406 L 20.585938 22.832031 L 21.753906 22.832031 L 21.753906 24.066406 C 21.75 24.09375 21.765625 24.117188 21.789062 24.132812 C 21.816406 24.148438 21.84375 24.148438 21.871094 24.132812 C 21.894531 24.117188 21.910156 24.09375 21.910156 24.066406 L 21.910156 22.832031 L 23.074219 22.832031 L 23.074219 24.066406 C 23.074219 24.09375 23.089844 24.117188 23.113281 24.132812 C 23.136719 24.148438 23.167969 24.148438 23.191406 24.132812 C 23.21875 24.117188 23.230469 24.09375 23.230469 24.066406 L 23.230469 22.832031 L 24.398438 22.832031 L 24.398438 24.066406 C 24.398438 24.09375 24.414062 24.117188 24.4375 24.132812 C 24.460938 24.148438 24.492188 24.148438 24.515625 24.132812 C 24.539062 24.117188 24.554688 24.09375 24.554688 24.066406 L 24.554688 22.832031 L 25.722656 22.832031 L 25.722656 24.066406 C 25.722656 24.09375 25.734375 24.117188 25.761719 24.132812 C 25.785156 24.148438 25.8125 24.148438 25.839844 24.132812 C 25.863281 24.117188 25.878906 24.09375 25.878906 24.066406 L 25.878906 22.832031 L 27.121094 22.832031 C 27.171875 22.832031 27.210938 22.789062 27.210938 22.742188 C 27.210938 22.691406 27.171875 22.652344 27.121094 22.652344 L 25.878906 22.652344 L 25.878906 21.507812 L 27.121094 21.507812 C 27.15625 21.507812 27.183594 21.492188 27.199219 21.464844 C 27.214844 21.4375 27.214844 21.402344 27.199219 21.375 C 27.183594 21.347656 27.15625 21.328125 27.121094 21.328125 L 25.878906 21.328125 L 25.878906 20.183594 L 27.121094 20.183594 C 27.15625 20.183594 27.183594 20.167969 27.199219 20.140625 C 27.214844 20.113281 27.214844 20.078125 27.199219 20.050781 C 27.183594 20.023438 27.15625 20.007812 27.121094 20.007812 L 25.878906 20.007812 L 25.878906 18.863281 L 27.121094 18.863281 C 27.171875 18.863281 27.210938 18.820312 27.210938 18.773438 C 27.210938 18.722656 27.171875 18.683594 27.121094 18.683594 L 25.878906 18.683594 L 25.878906 17.539062 L 27.121094 17.539062 C 27.15625 17.539062 27.183594 17.523438 27.199219 17.496094 C 27.214844 17.464844 27.214844 17.433594 27.199219 17.40625 C 27.183594 17.375 27.15625 17.359375 27.121094 17.359375 L 25.878906 17.359375 L 25.878906 16.214844 L 27.121094 16.214844 C 27.171875 16.214844 27.210938 16.175781 27.210938 16.125 C 27.210938 16.078125 27.171875 16.039062 27.121094 16.039062 L 25.878906 16.039062 L 25.878906 14.894531 L 27.121094 14.894531 C 27.171875 14.890625 27.210938 14.851562 27.210938 14.804688 C 27.210938 14.753906 27.171875 14.714844 27.121094 14.714844 L 25.878906 14.714844 L 25.878906 13.570312 L 27.121094 13.570312 C 27.15625 13.570312 27.183594 13.554688 27.199219 13.523438 C 27.214844 13.496094 27.214844 13.464844 27.199219 13.433594 C 27.183594 13.40625 27.15625 13.390625 27.121094 13.390625 L 25.878906 13.390625 L 25.878906 12.246094 L 27.121094 12.246094 C 27.15625 12.246094 27.183594 12.230469 27.199219 12.203125 C 27.214844 12.175781 27.214844 12.140625 27.199219 12.113281 C 27.183594 12.085938 27.15625 12.066406 27.121094 12.066406 L 25.878906 12.066406 L 25.878906 10.921875 L 27.121094 10.921875 C 27.15625 10.925781 27.183594 10.90625 27.199219 10.878906 C 27.214844 10.851562 27.214844 10.816406 27.199219 10.789062 C 27.183594 10.761719 27.15625 10.746094 27.121094 10.746094 L 25.878906 10.746094 L 25.878906 9.601562 L 27.121094 9.601562 C 27.171875 9.601562 27.210938 9.558594 27.210938 9.511719 C 27.210938 9.460938 27.171875 9.421875 27.121094 9.421875 L 25.878906 9.421875 L 25.878906 8.277344 L 27.121094 8.277344 C 27.15625 8.277344 27.183594 8.261719 27.199219 8.234375 C 27.214844 8.207031 27.214844 8.171875 27.199219 8.144531 C 27.183594 8.117188 27.15625 8.097656 27.121094 8.097656 L 25.878906 8.097656 L 25.878906 6.867188 C 25.878906 6.84375 25.871094 6.824219 25.855469 6.808594 C 25.839844 6.792969 25.820312 6.785156 25.796875 6.785156 C 25.753906 6.785156 25.71875 6.820312 25.722656 6.867188 L 25.722656 8.097656 L 24.554688 8.097656 L 24.554688 6.867188 C 24.554688 6.84375 24.546875 6.824219 24.53125 6.808594 C 24.515625 6.792969 24.496094 6.785156 24.476562 6.785156 C 24.433594 6.785156 24.398438 6.820312 24.398438 6.867188 L 24.398438 8.097656 L 23.230469 8.097656 L 23.230469 6.867188 C 23.230469 6.84375 23.222656 6.824219 23.207031 6.808594 C 23.195312 6.792969 23.171875 6.785156 23.152344 6.785156 C 23.109375 6.785156 23.074219 6.820312 23.074219 6.867188 L 23.074219 8.097656 L 21.910156 8.097656 L 21.910156 6.867188 C 21.910156 6.84375 21.898438 6.824219 21.886719 6.808594 C 21.871094 6.792969 21.851562 6.785156 21.828125 6.785156 C 21.785156 6.785156 21.75 6.820312 21.753906 6.867188 L 21.753906 8.097656 L 20.585938 8.097656 L 20.585938 6.867188 C 20.585938 6.84375 20.578125 6.824219 20.5625 6.808594 C 20.546875 6.792969 20.527344 6.785156 20.507812 6.785156 C 20.460938 6.785156 20.429688 6.820312 20.429688 6.867188 L 20.429688 8.097656 L 19.261719 8.097656 L 19.261719 6.867188 C 19.261719 6.84375 19.253906 6.824219 19.238281 6.808594 C 19.222656 6.792969 19.203125 6.785156 19.183594 6.785156 C 19.140625 6.785156 19.105469 6.820312 19.105469 6.867188 L 19.105469 8.097656 L 17.9375 8.097656 L 17.9375 6.867188 C 17.941406 6.84375 17.929688 6.824219 17.917969 6.808594 C 17.902344 6.792969 17.882812 6.785156 17.859375 6.785156 C 17.816406 6.785156 17.78125 6.820312 17.78125 6.867188 L 17.78125 8.097656 L 16.617188 8.097656 L 16.617188 6.867188 C 16.617188 6.84375 16.609375 6.824219 16.59375 6.808594 C 16.578125 6.792969 16.558594 6.785156 16.535156 6.785156 C 16.492188 6.785156 16.460938 6.820312 16.460938 6.867188 L 16.460938 8.097656 L 15.292969 8.097656 L 15.292969 6.867188 C 15.292969 6.84375 15.285156 6.824219 15.269531 6.808594 C 15.253906 6.792969 15.234375 6.785156 15.214844 6.785156 C 15.171875 6.785156 15.136719 6.820312 15.136719 6.867188 L 15.136719 8.097656 L 13.96875 8.097656 L 13.96875 6.867188 C 13.96875 6.84375 13.960938 6.824219 13.945312 6.808594 C 13.933594 6.792969 13.910156 6.785156 13.890625 6.785156 C 13.847656 6.785156 13.8125 6.820312 13.8125 6.867188 L 13.8125 8.097656 L 12.648438 8.097656 L 12.648438 6.867188 C 12.648438 6.84375 12.640625 6.824219 12.625 6.808594 C 12.609375 6.792969 12.589844 6.785156 12.566406 6.785156 C 12.523438 6.785156 12.488281 6.820312 12.492188 6.867188 L 12.492188 8.097656 L 11.324219 8.097656 L 11.324219 6.867188 C 11.324219 6.84375 11.316406 6.824219 11.300781 6.808594 C 11.285156 6.792969 11.265625 6.785156 11.246094 6.785156 C 11.203125 6.785156 11.167969 6.820312 11.167969 6.867188 L 11.167969 8.097656 L 10 8.097656 L 10 6.867188 C 10 6.84375 9.992188 6.824219 9.976562 6.808594 C 9.964844 6.792969 9.941406 6.785156 9.921875 6.785156 C 9.878906 6.785156 9.84375 6.820312 9.84375 6.867188 L 9.84375 8.097656 L 8.679688 8.097656 L 8.679688 6.867188 C 8.679688 6.84375 8.671875 6.824219 8.65625 6.808594 C 8.640625 6.792969 8.621094 6.785156 8.597656 6.785156 C 8.554688 6.785156 8.519531 6.820312 8.523438 6.867188 L 8.523438 8.097656 L 7.355469 8.097656 L 7.355469 6.867188 C 7.355469 6.84375 7.347656 6.824219 7.332031 6.808594 C 7.316406 6.792969 7.296875 6.785156 7.277344 6.785156 C 7.234375 6.785156 7.199219 6.820312 7.199219 6.867188 L 7.199219 8.097656 L 6.03125 8.097656 L 6.03125 6.867188 C 6.03125 6.84375 6.023438 6.824219 6.007812 6.808594 C 5.992188 6.792969 5.972656 6.785156 5.953125 6.785156 Z M 6.03125 8.277344 L 7.199219 8.277344 L 7.199219 9.421875 L 6.03125 9.421875 Z M 7.355469 8.277344 L 8.523438 8.277344 L 8.523438 9.421875 L 7.355469 9.421875 Z M 8.679688 8.277344 L 9.84375 8.277344 L 9.84375 9.421875 L 8.679688 9.421875 Z M 10 8.277344 L 11.167969 8.277344 L 11.167969 9.421875 L 10 9.421875 Z M 11.324219 8.277344 L 12.492188 8.277344 L 12.492188 9.421875 L 11.324219 9.421875 Z M 12.648438 8.277344 L 13.8125 8.277344 L 13.8125 9.421875 L 12.648438 9.421875 Z M 13.96875 8.277344 L 15.136719 8.277344 L 15.136719 9.421875 L 13.96875 9.421875 Z M 15.292969 8.277344 L 16.460938 8.277344 L 16.460938 9.421875 L 15.292969 9.421875 Z M 16.617188 8.277344 L 17.78125 8.277344 L 17.78125 9.421875 L 16.617188 9.421875 Z M 17.9375 8.277344 L 19.105469 8.277344 L 19.105469 9.421875 L 17.9375 9.421875 Z M 19.261719 8.277344 L 20.429688 8.277344 L 20.429688 9.421875 L 19.261719 9.421875 Z M 20.585938 8.277344 L 21.753906 8.277344 L 21.753906 9.421875 L 20.585938 9.421875 Z M 21.910156 8.277344 L 23.074219 8.277344 L 23.074219 9.421875 L 21.910156 9.421875 Z M 23.230469 8.277344 L 24.398438 8.277344 L 24.398438 9.421875 L 23.230469 9.421875 Z M 24.554688 8.277344 L 25.722656 8.277344 L 25.722656 9.421875 L 24.554688 9.421875 Z M 6.03125 9.601562 L 7.199219 9.601562 L 7.199219 10.746094 L 6.03125 10.746094 Z M 7.355469 9.601562 L 8.523438 9.601562 L 8.523438 10.746094 L 7.355469 10.746094 Z M 8.679688 9.601562 L 9.84375 9.601562 L 9.84375 10.746094 L 8.679688 10.746094 Z M 10 9.601562 L 11.167969 9.601562 L 11.167969 10.746094 L 10 10.746094 Z M 11.324219 9.601562 L 12.492188 9.601562 L 12.492188 10.746094 L 11.324219 10.746094 Z M 12.648438 9.601562 L 13.8125 9.601562 L 13.8125 10.746094 L 12.648438 10.746094 Z M 13.96875 9.601562 L 15.136719 9.601562 L 15.136719 10.746094 L 13.96875 10.746094 Z M 15.292969 9.601562 L 16.460938 9.601562 L 16.460938 10.746094 L 15.292969 10.746094 Z M 16.617188 9.601562 L 17.78125 9.601562 L 17.78125 10.746094 L 16.617188 10.746094 Z M 17.9375 9.601562 L 19.105469 9.601562 L 19.105469 10.746094 L 17.9375 10.746094 Z M 19.261719 9.601562 L 20.429688 9.601562 L 20.429688 10.746094 L 19.261719 10.746094 Z M 20.585938 9.601562 L 21.753906 9.601562 L 21.753906 10.746094 L 20.585938 10.746094 Z M 21.910156 9.601562 L 23.074219 9.601562 L 23.074219 10.746094 L 21.910156 10.746094 Z M 23.230469 9.601562 L 24.398438 9.601562 L 24.398438 10.746094 L 23.230469 10.746094 Z M 24.554688 9.601562 L 25.722656 9.601562 L 25.722656 10.746094 L 24.554688 10.746094 Z M 6.03125 10.921875 L 7.199219 10.921875 L 7.199219 12.066406 L 6.03125 12.066406 Z M 7.355469 10.921875 L 8.523438 10.921875 L 8.523438 12.066406 L 7.355469 12.066406 Z M 8.679688 10.921875 L 9.84375 10.921875 L 9.84375 12.066406 L 8.679688 12.066406 Z M 10 10.921875 L 11.167969 10.921875 L 11.167969 12.066406 L 10 12.066406 Z M 11.324219 10.921875 L 12.492188 10.921875 L 12.492188 12.066406 L 11.324219 12.066406 Z M 12.648438 10.921875 L 13.8125 10.921875 L 13.8125 12.066406 L 12.648438 12.066406 Z M 13.96875 10.921875 L 15.136719 10.921875 L 15.136719 12.066406 L 13.96875 12.066406 Z M 15.292969 10.921875 L 16.460938 10.921875 L 16.460938 12.066406 L 15.292969 12.066406 Z M 16.617188 10.921875 L 17.78125 10.921875 L 17.78125 12.066406 L 16.617188 12.066406 Z M 17.9375 10.921875 L 19.105469 10.921875 L 19.105469 12.066406 L 17.9375 12.066406 Z M 19.261719 10.921875 L 20.429688 10.921875 L 20.429688 12.066406 L 19.261719 12.066406 Z M 20.585938 10.921875 L 21.753906 10.921875 L 21.753906 12.066406 L 20.585938 12.066406 Z M 21.910156 10.921875 L 23.074219 10.921875 L 23.074219 12.066406 L 21.910156 12.066406 Z M 23.230469 10.921875 L 24.398438 10.921875 L 24.398438 12.066406 L 23.230469 12.066406 Z M 24.554688 10.921875 L 25.722656 10.921875 L 25.722656 12.066406 L 24.554688 12.066406 Z M 6.03125 12.246094 L 7.199219 12.246094 L 7.199219 13.390625 L 6.03125 13.390625 Z M 7.355469 12.246094 L 8.523438 12.246094 L 8.523438 13.390625 L 7.355469 13.390625 Z M 8.679688 12.246094 L 9.84375 12.246094 L 9.84375 13.390625 L 8.679688 13.390625 Z M 10 12.246094 L 11.167969 12.246094 L 11.167969 13.390625 L 10 13.390625 Z M 11.324219 12.246094 L 12.492188 12.246094 L 12.492188 13.390625 L 11.324219 13.390625 Z M 12.648438 12.246094 L 13.8125 12.246094 L 13.8125 13.390625 L 12.648438 13.390625 Z M 13.96875 12.246094 L 15.136719 12.246094 L 15.136719 13.390625 L 13.96875 13.390625 Z M 15.292969 12.246094 L 16.460938 12.246094 L 16.460938 13.390625 L 15.292969 13.390625 Z M 16.617188 12.246094 L 17.78125 12.246094 L 17.78125 13.390625 L 16.617188 13.390625 Z M 17.9375 12.246094 L 19.105469 12.246094 L 19.105469 13.390625 L 17.9375 13.390625 Z M 19.261719 12.246094 L 20.429688 12.246094 L 20.429688 13.390625 L 19.261719 13.390625 Z M 20.585938 12.246094 L 21.753906 12.246094 L 21.753906 13.390625 L 20.585938 13.390625 Z M 21.910156 12.246094 L 23.074219 12.246094 L 23.074219 13.390625 L 21.910156 13.390625 Z M 23.230469 12.246094 L 24.398438 12.246094 L 24.398438 13.390625 L 23.230469 13.390625 Z M 24.554688 12.246094 L 25.722656 12.246094 L 25.722656 13.390625 L 24.554688 13.390625 Z M 6.03125 13.570312 L 7.199219 13.570312 L 7.199219 14.714844 L 6.03125 14.714844 Z M 7.355469 13.570312 L 8.523438 13.570312 L 8.523438 14.714844 L 7.355469 14.714844 Z M 8.679688 13.570312 L 9.84375 13.570312 L 9.84375 14.714844 L 8.679688 14.714844 Z M 10 13.570312 L 11.167969 13.570312 L 11.167969 14.714844 L 10 14.714844 Z M 11.324219 13.570312 L 12.492188 13.570312 L 12.492188 14.714844 L 11.324219 14.714844 Z M 12.648438 13.570312 L 13.8125 13.570312 L 13.8125 14.714844 L 12.648438 14.714844 Z M 13.96875 13.570312 L 15.136719 13.570312 L 15.136719 14.714844 L 13.96875 14.714844 Z M 15.292969 13.570312 L 16.460938 13.570312 L 16.460938 14.714844 L 15.292969 14.714844 Z M 16.617188 13.570312 L 17.78125 13.570312 L 17.78125 14.714844 L 16.617188 14.714844 Z M 17.9375 13.570312 L 19.105469 13.570312 L 19.105469 14.714844 L 17.9375 14.714844 Z M 19.261719 13.570312 L 20.429688 13.570312 L 20.429688 14.714844 L 19.261719 14.714844 Z M 20.585938 13.570312 L 21.753906 13.570312 L 21.753906 14.714844 L 20.585938 14.714844 Z M 21.910156 13.570312 L 23.074219 13.570312 L 23.074219 14.714844 L 21.910156 14.714844 Z M 23.230469 13.570312 L 24.398438 13.570312 L 24.398438 14.714844 L 23.230469 14.714844 Z M 24.554688 13.570312 L 25.722656 13.570312 L 25.722656 14.714844 L 24.554688 14.714844 Z M 6.03125 14.894531 L 7.199219 14.894531 L 7.199219 16.039062 L 6.03125 16.039062 Z M 7.355469 14.894531 L 8.523438 14.894531 L 8.523438 16.039062 L 7.355469 16.039062 Z M 8.679688 14.894531 L 9.84375 14.894531 L 9.84375 16.039062 L 8.679688 16.039062 Z M 10 14.894531 L 11.167969 14.894531 L 11.167969 16.039062 L 10 16.039062 Z M 11.324219 14.894531 L 12.492188 14.894531 L 12.492188 16.039062 L 11.324219 16.039062 Z M 12.648438 14.894531 L 13.8125 14.894531 L 13.8125 16.039062 L 12.648438 16.039062 Z M 13.96875 14.894531 L 15.136719 14.894531 L 15.136719 16.039062 L 13.96875 16.039062 Z M 15.292969 14.894531 L 16.460938 14.894531 L 16.460938 16.039062 L 15.292969 16.039062 Z M 16.617188 14.894531 L 17.78125 14.894531 L 17.78125 16.039062 L 16.617188 16.039062 Z M 17.9375 14.894531 L 19.105469 14.894531 L 19.105469 16.039062 L 17.9375 16.039062 Z M 19.261719 14.894531 L 20.429688 14.894531 L 20.429688 16.039062 L 19.261719 16.039062 Z M 20.585938 14.894531 L 21.753906 14.894531 L 21.753906 16.039062 L 20.585938 16.039062 Z M 21.910156 14.894531 L 23.074219 14.894531 L 23.074219 16.039062 L 21.910156 16.039062 Z M 23.230469 14.894531 L 24.398438 14.894531 L 24.398438 16.039062 L 23.230469 16.039062 Z M 24.554688 14.894531 L 25.722656 14.894531 L 25.722656 16.039062 L 24.554688 16.039062 Z M 6.03125 16.214844 L 7.199219 16.214844 L 7.199219 17.359375 L 6.03125 17.359375 Z M 7.355469 16.214844 L 8.523438 16.214844 L 8.523438 17.359375 L 7.355469 17.359375 Z M 8.679688 16.214844 L 9.84375 16.214844 L 9.84375 17.359375 L 8.679688 17.359375 Z M 10 16.214844 L 11.167969 16.214844 L 11.167969 17.359375 L 10 17.359375 Z M 11.324219 16.214844 L 12.492188 16.214844 L 12.492188 17.359375 L 11.324219 17.359375 Z M 12.648438 16.214844 L 13.8125 16.214844 L 13.8125 17.359375 L 12.648438 17.359375 Z M 13.96875 16.214844 L 15.136719 16.214844 L 15.136719 17.359375 L 13.96875 17.359375 Z M 15.292969 16.214844 L 16.460938 16.214844 L 16.460938 17.359375 L 15.292969 17.359375 Z M 16.617188 16.214844 L 17.78125 16.214844 L 17.78125 17.359375 L 16.617188 17.359375 Z M 17.9375 16.214844 L 19.105469 16.214844 L 19.105469 17.359375 L 17.9375 17.359375 Z M 19.261719 16.214844 L 20.429688 16.214844 L 20.429688 17.359375 L 19.261719 17.359375 Z M 20.585938 16.214844 L 21.753906 16.214844 L 21.753906 17.359375 L 20.585938 17.359375 Z M 21.910156 16.214844 L 23.074219 16.214844 L 23.074219 17.359375 L 21.910156 17.359375 Z M 23.230469 16.214844 L 24.398438 16.214844 L 24.398438 17.359375 L 23.230469 17.359375 Z M 24.554688 16.214844 L 25.722656 16.214844 L 25.722656 17.359375 L 24.554688 17.359375 Z M 6.03125 17.539062 L 7.199219 17.539062 L 7.199219 18.683594 L 6.03125 18.683594 Z M 7.355469 17.539062 L 8.523438 17.539062 L 8.523438 18.683594 L 7.355469 18.683594 Z M 8.679688 17.539062 L 9.84375 17.539062 L 9.84375 18.683594 L 8.679688 18.683594 Z M 10 17.539062 L 11.167969 17.539062 L 11.167969 18.683594 L 10 18.683594 Z M 11.324219 17.539062 L 12.492188 17.539062 L 12.492188 18.683594 L 11.324219 18.683594 Z M 12.648438 17.539062 L 13.8125 17.539062 L 13.8125 18.683594 L 12.648438 18.683594 Z M 13.96875 17.539062 L 15.136719 17.539062 L 15.136719 18.683594 L 13.96875 18.683594 Z M 15.292969 17.539062 L 16.460938 17.539062 L 16.460938 18.683594 L 15.292969 18.683594 Z M 16.617188 17.539062 L 17.78125 17.539062 L 17.78125 18.683594 L 16.617188 18.683594 Z M 17.9375 17.539062 L 19.105469 17.539062 L 19.105469 18.683594 L 17.9375 18.683594 Z M 19.261719 17.539062 L 20.429688 17.539062 L 20.429688 18.683594 L 19.261719 18.683594 Z M 20.585938 17.539062 L 21.753906 17.539062 L 21.753906 18.683594 L 20.585938 18.683594 Z M 21.910156 17.539062 L 23.074219 17.539062 L 23.074219 18.683594 L 21.910156 18.683594 Z M 23.230469 17.539062 L 24.398438 17.539062 L 24.398438 18.683594 L 23.230469 18.683594 Z M 24.554688 17.539062 L 25.722656 17.539062 L 25.722656 18.683594 L 24.554688 18.683594 Z M 6.03125 18.863281 L 7.199219 18.863281 L 7.199219 20.007812 L 6.03125 20.007812 Z M 7.355469 18.863281 L 8.523438 18.863281 L 8.523438 20.007812 L 7.355469 20.007812 Z M 8.679688 18.863281 L 9.84375 18.863281 L 9.84375 20.007812 L 8.679688 20.007812 Z M 10 18.863281 L 11.167969 18.863281 L 11.167969 20.007812 L 10 20.007812 Z M 11.324219 18.863281 L 12.492188 18.863281 L 12.492188 20.007812 L 11.324219 20.007812 Z M 12.648438 18.863281 L 13.8125 18.863281 L 13.8125 20.007812 L 12.648438 20.007812 Z M 13.96875 18.863281 L 15.136719 18.863281 L 15.136719 20.007812 L 13.96875 20.007812 Z M 15.292969 18.863281 L 16.460938 18.863281 L 16.460938 20.007812 L 15.292969 20.007812 Z M 16.617188 18.863281 L 17.78125 18.863281 L 17.78125 20.007812 L 16.617188 20.007812 Z M 17.9375 18.863281 L 19.105469 18.863281 L 19.105469 20.007812 L 17.9375 20.007812 Z M 19.261719 18.863281 L 20.429688 18.863281 L 20.429688 20.007812 L 19.261719 20.007812 Z M 20.585938 18.863281 L 21.753906 18.863281 L 21.753906 20.007812 L 20.585938 20.007812 Z M 21.910156 18.863281 L 23.074219 18.863281 L 23.074219 20.007812 L 21.910156 20.007812 Z M 23.230469 18.863281 L 24.398438 18.863281 L 24.398438 20.007812 L 23.230469 20.007812 Z M 24.554688 18.863281 L 25.722656 18.863281 L 25.722656 20.007812 L 24.554688 20.007812 Z M 6.03125 20.183594 L 7.199219 20.183594 L 7.199219 21.328125 L 6.03125 21.328125 Z M 7.355469 20.183594 L 8.523438 20.183594 L 8.523438 21.328125 L 7.355469 21.328125 Z M 8.679688 20.183594 L 9.84375 20.183594 L 9.84375 21.328125 L 8.679688 21.328125 Z M 10 20.183594 L 11.167969 20.183594 L 11.167969 21.328125 L 10 21.328125 Z M 11.324219 20.183594 L 12.492188 20.183594 L 12.492188 21.328125 L 11.324219 21.328125 Z M 12.648438 20.183594 L 13.8125 20.183594 L 13.8125 21.328125 L 12.648438 21.328125 Z M 13.96875 20.183594 L 15.136719 20.183594 L 15.136719 21.328125 L 13.96875 21.328125 Z M 15.292969 20.183594 L 16.460938 20.183594 L 16.460938 21.328125 L 15.292969 21.328125 Z M 16.617188 20.183594 L 17.78125 20.183594 L 17.78125 21.328125 L 16.617188 21.328125 Z M 17.9375 20.183594 L 19.105469 20.183594 L 19.105469 21.328125 L 17.9375 21.328125 Z M 19.261719 20.183594 L 20.429688 20.183594 L 20.429688 21.328125 L 19.261719 21.328125 Z M 20.585938 20.183594 L 21.753906 20.183594 L 21.753906 21.328125 L 20.585938 21.328125 Z M 21.910156 20.183594 L 23.074219 20.183594 L 23.074219 21.328125 L 21.910156 21.328125 Z M 23.230469 20.183594 L 24.398438 20.183594 L 24.398438 21.328125 L 23.230469 21.328125 Z M 24.554688 20.183594 L 25.722656 20.183594 L 25.722656 21.328125 L 24.554688 21.328125 Z M 6.03125 21.507812 L 7.199219 21.507812 L 7.199219 22.652344 L 6.03125 22.652344 Z M 7.355469 21.507812 L 8.523438 21.507812 L 8.523438 22.652344 L 7.355469 22.652344 Z M 8.679688 21.507812 L 9.84375 21.507812 L 9.84375 22.652344 L 8.679688 22.652344 Z M 10 21.507812 L 11.167969 21.507812 L 11.167969 22.652344 L 10 22.652344 Z M 11.324219 21.507812 L 12.492188 21.507812 L 12.492188 22.652344 L 11.324219 22.652344 Z M 12.648438 21.507812 L 13.8125 21.507812 L 13.8125 22.652344 L 12.648438 22.652344 Z M 13.96875 21.507812 L 15.136719 21.507812 L 15.136719 22.652344 L 13.96875 22.652344 Z M 15.292969 21.507812 L 16.460938 21.507812 L 16.460938 22.652344 L 15.292969 22.652344 Z M 16.617188 21.507812 L 17.78125 21.507812 L 17.78125 22.652344 L 16.617188 22.652344 Z M 17.9375 21.507812 L 19.105469 21.507812 L 19.105469 22.652344 L 17.9375 22.652344 Z M 19.261719 21.507812 L 20.429688 21.507812 L 20.429688 22.652344 L 19.261719 22.652344 Z M 20.585938 21.507812 L 21.753906 21.507812 L 21.753906 22.652344 L 20.585938 22.652344 Z M 21.910156 21.507812 L 23.074219 21.507812 L 23.074219 22.652344 L 21.910156 22.652344 Z M 23.230469 21.507812 L 24.398438 21.507812 L 24.398438 22.652344 L 23.230469 22.652344 Z M 24.554688 21.507812 L 25.722656 21.507812 L 25.722656 22.652344 L 24.554688 22.652344 Z M 24.554688 21.507812 "/>
<path style="fill-rule:nonzero;fill:rgb(40.000001%,73.333335%,41.568628%);fill-opacity:1;stroke-width:30;stroke-linecap:round;stroke-linejoin:round;stroke:rgb(40.000001%,73.333335%,41.568628%);stroke-opacity:0.254902;stroke-miterlimit:4;" d="M 201.168289 -57.265063 C 199.355962 -57.265063 197.668624 -56.327652 196.731213 -54.702808 L 155.860116 16.852859 L 95.240905 16.852859 C 93.428578 16.790365 91.741239 17.727776 90.866323 19.290126 C 89.928912 20.852477 89.928912 22.789792 90.866323 24.352143 C 91.741239 25.914494 93.428578 26.851904 95.240905 26.851904 L 158.734842 26.851904 C 160.547169 26.851904 162.172013 25.852 163.109424 24.289649 L 201.293277 -42.516471 L 302.658598 119.718036 C 303.596008 121.155399 305.158359 122.030315 306.845698 122.092809 C 308.533037 122.092809 310.157881 121.280387 311.095292 119.843024 L 373.089372 26.851904 L 412.773082 26.851904 C 414.522915 26.851904 416.210254 25.914494 417.147664 24.352143 C 418.022581 22.789792 418.022581 20.852477 417.147664 19.290126 C 416.210254 17.727776 414.522915 16.790365 412.773082 16.852859 L 370.402128 16.852859 C 368.714789 16.852859 367.152439 17.665282 366.277522 19.04015 L 307.03318 107.84417 L 205.35539 -54.89029 C 204.417979 -56.327652 202.855628 -57.202569 201.168289 -57.265063 Z M 201.168289 -57.265063 " transform="matrix(0.062506,0,0,0.062506,0,13.438783)"/>
<path style="fill:none;stroke-width:3;stroke-linecap:round;stroke-linejoin:miter;stroke:rgb(12.941177%,12.941177%,12.941177%);stroke-opacity:1;stroke-miterlimit:4;" d="M 52.932445 -147.506445 L 455.081542 -147.506445 C 466.767926 -147.506445 476.267019 -138.569799 476.267019 -127.508355 L 476.267019 213.521578 C 476.267019 224.520528 466.767926 233.519669 455.081542 233.519669 L 52.932445 233.519669 C 41.246061 233.519669 31.746968 224.520528 31.746968 213.521578 L 31.746968 -127.508355 C 31.746968 -138.569799 41.246061 -147.506445 52.932445 -147.506445 Z M 52.932445 -147.506445 " transform="matrix(0.062506,0,0,0.062506,0,13.438783)"/>
</g>
</svg>
