<?xml version="1.0" encoding="UTF-8"?>
<svg xmlns="http://www.w3.org/2000/svg" xmlns:xlink="http://www.w3.org/1999/xlink" width="32px" height="32px" viewBox="0 0 32 32" version="1.1">
<defs>
<linearGradient id="linear0" gradientUnits="userSpaceOnUse" x1="254" y1="233.5" x2="254" y2="254.666672" gradientTransform="matrix(0.00416706,0,0,0.062506,14.818084,13.438785)">
<stop offset="0" style="stop-color:rgb(0%,0%,0%);stop-opacity:0.27451;"/>
<stop offset="1" style="stop-color:rgb(0%,0%,0%);stop-opacity:0;"/>
</linearGradient>
<radialGradient id="radial0" gradientUnits="userSpaceOnUse" cx="450.908936" cy="189.579361" fx="450.908936" fy="189.579361" r="21.166656" gradientTransform="matrix(0.00000017417,-0.0781325,-0.140638,-0.000000101539,42.869347,63.595333)">
<stop offset="0" style="stop-color:rgb(0%,0%,0%);stop-opacity:0.313726;"/>
<stop offset="0.222222" style="stop-color:rgb(0%,0%,0%);stop-opacity:0.27451;"/>
<stop offset="1" style="stop-color:rgb(0%,0%,0%);stop-opacity:0;"/>
</radialGradient>
<radialGradient id="radial1" gradientUnits="userSpaceOnUse" cx="450.908936" cy="189.579361" fx="450.908936" fy="189.579361" r="21.166656" gradientTransform="matrix(-0.00000017417,0.0781325,0.140638,0.000000101539,-11.116307,-7.527479)">
<stop offset="0" style="stop-color:rgb(0%,0%,0%);stop-opacity:0.313726;"/>
<stop offset="0.222222" style="stop-color:rgb(0%,0%,0%);stop-opacity:0.27451;"/>
<stop offset="1" style="stop-color:rgb(0%,0%,0%);stop-opacity:0;"/>
</radialGradient>
<radialGradient id="radial2" gradientUnits="userSpaceOnUse" cx="450.908936" cy="189.579361" fx="450.908936" fy="189.579361" r="21.166656" gradientTransform="matrix(-0.00000017417,-0.0781325,0.140638,-0.000000101539,-11.116307,63.595333)">
<stop offset="0" style="stop-color:rgb(0%,0%,0%);stop-opacity:0.313726;"/>
<stop offset="0.222222" style="stop-color:rgb(0%,0%,0%);stop-opacity:0.27451;"/>
<stop offset="1" style="stop-color:rgb(0%,0%,0%);stop-opacity:0;"/>
</radialGradient>
<radialGradient id="radial3" gradientUnits="userSpaceOnUse" cx="450.908936" cy="189.579361" fx="450.908936" fy="189.579361" r="21.166656" gradientTransform="matrix(0.00000017417,0.0781325,-0.140638,0.000000101539,42.869345,-7.527479)">
<stop offset="0" style="stop-color:rgb(0%,0%,0%);stop-opacity:0.313726;"/>
<stop offset="0.222222" style="stop-color:rgb(0%,0%,0%);stop-opacity:0.27451;"/>
<stop offset="1" style="stop-color:rgb(0%,0%,0%);stop-opacity:0;"/>
</radialGradient>
<linearGradient id="linear1" gradientUnits="userSpaceOnUse" x1="960" y1="1695.118164" x2="960" y2="175.118118" gradientTransform="matrix(0.016538,0,0,0.016538,0,0)">
<stop offset="0" style="stop-color:rgb(14.901961%,77.64706%,85.490197%);stop-opacity:1;"/>
<stop offset="1" style="stop-color:rgb(30.19608%,81.568629%,88.235295%);stop-opacity:1;"/>
</linearGradient>
<linearGradient id="linear2" gradientUnits="userSpaceOnUse" x1="1000" y1="1695.118164" x2="960" y2="175.118118" gradientTransform="matrix(0.016538,0,0,0.016538,0,0)">
<stop offset="0" style="stop-color:rgb(87.843138%,87.843138%,87.843138%);stop-opacity:1;"/>
<stop offset="1" style="stop-color:rgb(93.333334%,93.333334%,93.333334%);stop-opacity:1;"/>
</linearGradient>
</defs>
<g id="surface1">
<path style=" stroke:none;fill-rule:nonzero;fill:url(#linear0);" d="M 15.214844 27.9375 L 16.539062 27.9375 L 16.539062 29.40625 L 15.214844 29.40625 Z M 15.214844 27.9375 "/>
<path style=" stroke:none;fill-rule:nonzero;fill:url(#radial0);" d="M 16.539062 28.035156 L 19.183594 28.035156 L 19.183594 26.710938 L 16.539062 26.710938 Z M 16.539062 28.035156 "/>
<path style=" stroke:none;fill-rule:nonzero;fill:url(#radial1);" d="M 15.214844 28.035156 L 12.570312 28.035156 L 12.570312 29.355469 L 15.214844 29.355469 Z M 15.214844 28.035156 "/>
<path style=" stroke:none;fill-rule:nonzero;fill:url(#radial2);" d="M 15.214844 28.035156 L 12.570312 28.035156 L 12.570312 26.710938 L 15.214844 26.710938 Z M 15.214844 28.035156 "/>
<path style=" stroke:none;fill-rule:nonzero;fill:url(#radial3);" d="M 16.539062 28.035156 L 19.183594 28.035156 L 19.183594 29.355469 L 16.539062 29.355469 Z M 16.539062 28.035156 "/>
<path style=" stroke:none;fill-rule:nonzero;fill:url(#linear1);" d="M 14.554688 2.902344 C 13.941406 2.902344 13.410156 3.324219 13.273438 3.917969 L 12.773438 6.035156 C 12.296875 6.1875 11.839844 6.378906 11.398438 6.601562 L 9.550781 5.457031 C 9.03125 5.136719 8.359375 5.214844 7.925781 5.648438 L 6.054688 7.519531 C 5.625 7.949219 5.546875 8.621094 5.867188 9.144531 L 7.011719 10.988281 C 6.789062 11.429688 6.597656 11.890625 6.445312 12.363281 L 4.324219 12.863281 C 3.730469 13.003906 3.3125 13.535156 3.3125 14.144531 L 3.3125 16.792969 C 3.3125 17.402344 3.730469 17.933594 4.324219 18.074219 L 6.445312 18.570312 C 6.601562 19.046875 6.792969 19.503906 7.011719 19.941406 L 5.867188 21.792969 C 5.546875 22.3125 5.625 22.984375 6.054688 23.417969 L 7.925781 25.289062 C 8.359375 25.722656 9.03125 25.800781 9.550781 25.476562 L 11.402344 24.332031 C 11.839844 24.550781 12.300781 24.742188 12.773438 24.894531 L 13.273438 27.019531 C 13.410156 27.613281 13.941406 28.035156 14.554688 28.035156 L 17.199219 28.035156 C 17.8125 28.035156 18.339844 27.613281 18.480469 27.019531 L 18.980469 24.894531 C 19.453125 24.742188 19.910156 24.550781 20.351562 24.332031 L 22.203125 25.476562 C 22.722656 25.800781 23.394531 25.722656 23.828125 25.289062 L 25.699219 23.417969 C 26.128906 22.984375 26.207031 22.3125 25.886719 21.792969 L 24.742188 19.941406 C 24.960938 19.503906 25.152344 19.046875 25.308594 18.570312 L 27.425781 18.074219 C 28.023438 17.933594 28.441406 17.402344 28.441406 16.792969 L 28.441406 14.144531 C 28.441406 13.535156 28.023438 13.003906 27.425781 12.863281 L 25.308594 12.363281 C 25.152344 11.890625 24.964844 11.429688 24.742188 10.988281 L 25.886719 9.144531 C 26.207031 8.621094 26.128906 7.949219 25.699219 7.519531 L 23.828125 5.648438 C 23.394531 5.214844 22.722656 5.136719 22.203125 5.457031 L 20.355469 6.601562 C 19.914062 6.378906 19.457031 6.1875 18.980469 6.035156 L 18.480469 3.917969 C 18.339844 3.324219 17.8125 2.902344 17.199219 2.902344 Z M 14.554688 2.902344 "/>
<path style=" stroke:none;fill-rule:nonzero;fill:rgb(100%,100%,100%);fill-opacity:0.392157;" d="M 14.554688 2.902344 C 13.941406 2.902344 13.410156 3.324219 13.273438 3.917969 L 12.773438 6.035156 C 12.296875 6.1875 11.839844 6.378906 11.398438 6.601562 L 9.550781 5.457031 C 9.03125 5.136719 8.359375 5.214844 7.925781 5.648438 L 6.054688 7.519531 C 5.742188 7.832031 5.613281 8.277344 5.691406 8.695312 C 5.742188 8.441406 5.863281 8.199219 6.054688 8.007812 L 7.925781 6.136719 C 8.359375 5.703125 9.03125 5.628906 9.550781 5.949219 L 11.398438 7.089844 C 11.839844 6.871094 12.296875 6.679688 12.773438 6.523438 L 13.273438 4.40625 C 13.410156 3.8125 13.941406 3.390625 14.554688 3.390625 L 17.199219 3.390625 C 17.8125 3.390625 18.339844 3.8125 18.480469 4.40625 L 18.980469 6.523438 C 19.457031 6.679688 19.914062 6.871094 20.355469 7.089844 L 22.203125 5.949219 C 22.722656 5.628906 23.394531 5.703125 23.828125 6.136719 L 25.699219 8.007812 C 25.890625 8.199219 26.011719 8.441406 26.058594 8.695312 C 26.140625 8.277344 26.011719 7.832031 25.699219 7.519531 L 23.828125 5.648438 C 23.394531 5.214844 22.722656 5.136719 22.203125 5.457031 L 20.355469 6.601562 C 19.914062 6.378906 19.457031 6.1875 18.980469 6.035156 L 18.480469 3.917969 C 18.339844 3.324219 17.8125 2.902344 17.199219 2.902344 Z M 6.878906 11.265625 C 6.710938 11.621094 6.566406 11.988281 6.445312 12.363281 L 4.324219 12.863281 C 3.730469 13.003906 3.3125 13.535156 3.3125 14.144531 L 3.3125 14.636719 C 3.3125 14.023438 3.730469 13.492188 4.324219 13.351562 L 6.445312 12.855469 C 6.597656 12.378906 6.789062 11.921875 7.011719 11.480469 Z M 24.875 11.265625 L 24.742188 11.480469 C 24.964844 11.921875 25.152344 12.378906 25.308594 12.855469 L 27.425781 13.351562 C 28.023438 13.492188 28.441406 14.023438 28.441406 14.636719 L 28.441406 14.144531 C 28.441406 13.535156 28.023438 13.003906 27.425781 12.863281 L 25.308594 12.363281 C 25.1875 11.988281 25.039062 11.621094 24.875 11.265625 Z M 24.875 20.160156 C 24.832031 20.25 24.785156 20.34375 24.742188 20.433594 L 25.886719 22.285156 C 25.972656 22.425781 26.03125 22.578125 26.058594 22.730469 C 26.121094 22.417969 26.0625 22.082031 25.886719 21.792969 Z M 6.878906 20.160156 L 5.867188 21.792969 C 5.6875 22.082031 5.632812 22.417969 5.691406 22.730469 C 5.722656 22.578125 5.78125 22.425781 5.867188 22.285156 L 7.011719 20.433594 C 6.96875 20.34375 6.921875 20.25 6.878906 20.160156 Z M 6.878906 20.160156 "/>
<path style=" stroke:none;fill-rule:nonzero;fill:rgb(0%,0%,0%);fill-opacity:0.235294;" d="M 5.695312 8.199219 C 5.632812 8.515625 5.6875 8.851562 5.867188 9.144531 L 6.875 10.769531 C 6.917969 10.675781 6.964844 10.582031 7.011719 10.488281 L 5.867188 8.640625 C 5.78125 8.503906 5.722656 8.351562 5.695312 8.199219 Z M 26.058594 8.199219 C 26.027344 8.351562 25.972656 8.503906 25.886719 8.640625 L 24.742188 10.488281 C 24.789062 10.582031 24.835938 10.675781 24.878906 10.769531 L 25.886719 9.144531 C 26.066406 8.851562 26.121094 8.515625 26.058594 8.199219 Z M 3.3125 16.289062 L 3.3125 16.792969 C 3.3125 17.402344 3.730469 17.933594 4.324219 18.074219 L 6.445312 18.570312 C 6.570312 18.945312 6.710938 19.308594 6.875 19.664062 L 7.011719 19.441406 C 6.792969 19.003906 6.601562 18.546875 6.445312 18.070312 L 4.324219 17.574219 C 3.730469 17.433594 3.3125 16.902344 3.3125 16.289062 Z M 28.441406 16.289062 C 28.441406 16.902344 28.023438 17.433594 27.425781 17.574219 L 25.308594 18.070312 C 25.152344 18.546875 24.960938 19.003906 24.742188 19.441406 L 24.875 19.664062 C 25.039062 19.308594 25.183594 18.945312 25.308594 18.570312 L 27.425781 18.074219 C 28.023438 17.933594 28.441406 17.402344 28.441406 16.792969 Z M 5.695312 22.238281 C 5.613281 22.65625 5.738281 23.101562 6.054688 23.417969 L 7.925781 25.289062 C 8.359375 25.722656 9.03125 25.800781 9.550781 25.476562 L 11.402344 24.332031 C 11.839844 24.550781 12.300781 24.742188 12.773438 24.894531 L 13.273438 27.019531 C 13.410156 27.613281 13.941406 28.035156 14.554688 28.035156 L 17.199219 28.035156 C 17.8125 28.035156 18.339844 27.613281 18.480469 27.019531 L 18.980469 24.894531 C 19.453125 24.742188 19.910156 24.550781 20.351562 24.332031 L 22.203125 25.476562 C 22.722656 25.800781 23.394531 25.722656 23.828125 25.289062 L 25.699219 23.417969 C 26.015625 23.101562 26.140625 22.65625 26.058594 22.238281 C 26.011719 22.488281 25.886719 22.726562 25.699219 22.917969 L 23.828125 24.789062 C 23.394531 25.21875 22.722656 25.296875 22.203125 24.976562 L 20.351562 23.832031 C 19.910156 24.050781 19.453125 24.242188 18.980469 24.394531 L 18.480469 26.519531 C 18.339844 27.113281 17.8125 27.535156 17.199219 27.535156 L 14.554688 27.535156 C 13.941406 27.535156 13.410156 27.113281 13.273438 26.519531 L 12.773438 24.394531 C 12.300781 24.242188 11.839844 24.050781 11.402344 23.832031 L 9.550781 24.976562 C 9.03125 25.296875 8.359375 25.21875 7.925781 24.789062 L 6.054688 22.917969 C 5.863281 22.726562 5.742188 22.488281 5.695312 22.238281 Z M 5.695312 22.238281 "/>
<path style="fill:none;stroke-width:11.338583;stroke-linecap:round;stroke-linejoin:round;stroke:rgb(12.941177%,12.941177%,12.941177%);stroke-opacity:1;stroke-miterlimit:4;" d="M 880.073484 175.495061 C 842.990409 175.495061 810.867491 201.004438 802.600563 236.906523 L 772.367228 364.9258 C 743.551081 374.13752 715.915923 385.711218 689.225557 399.1745 L 577.503937 329.968507 C 546.089612 310.600277 505.463568 315.324235 479.245598 341.542205 L 366.10679 454.681013 C 340.125018 480.662786 335.401059 521.288829 354.769289 552.939352 L 423.975283 664.424775 C 410.512001 691.11514 398.938302 718.986496 389.726583 747.566446 L 261.471107 777.79978 C 225.569022 786.302906 200.295844 818.425824 200.295844 855.272701 L 200.295844 1015.414897 C 200.295844 1052.261774 225.569022 1084.384692 261.471107 1092.887818 L 389.726583 1122.884955 C 399.1745 1151.701102 410.748199 1179.33626 423.975283 1205.790428 L 354.769289 1317.748246 C 335.401059 1349.162571 340.125018 1389.788615 366.10679 1416.006585 L 479.245598 1529.145393 C 505.463568 1555.363363 546.089612 1560.087322 577.503937 1540.482893 L 689.461755 1471.2769 C 715.915923 1484.503984 743.787279 1496.077683 772.367228 1505.289402 L 802.600563 1633.781075 C 810.867491 1669.683161 842.990409 1695.192537 880.073484 1695.192537 L 1039.979482 1695.192537 C 1077.062557 1695.192537 1108.949277 1669.683161 1117.452402 1633.781075 L 1147.685737 1505.289402 C 1176.265687 1496.077683 1203.900845 1484.503984 1230.591211 1471.2769 L 1342.549029 1540.482893 C 1373.963353 1560.087322 1414.589397 1555.363363 1440.807367 1529.145393 L 1553.946175 1416.006585 C 1579.927948 1389.788615 1584.651906 1349.162571 1565.283676 1317.748246 L 1496.077683 1205.790428 C 1509.304767 1179.33626 1520.878465 1151.701102 1530.326383 1122.884955 L 1658.34566 1092.887818 C 1694.483943 1084.384692 1719.757122 1052.261774 1719.757122 1015.414897 L 1719.757122 855.272701 C 1719.757122 818.425824 1694.483943 786.302906 1658.34566 777.79978 L 1530.326383 747.566446 C 1520.878465 718.986496 1509.540965 691.11514 1496.077683 664.424775 L 1565.283676 552.939352 C 1584.651906 521.288829 1579.927948 480.662786 1553.946175 454.681013 L 1440.807367 341.542205 C 1414.589397 315.324235 1373.963353 310.600277 1342.549029 329.968507 L 1230.827408 399.1745 C 1204.137042 385.711218 1176.501885 374.13752 1147.685737 364.9258 L 1117.452402 236.906523 C 1108.949277 201.004438 1077.062557 175.495061 1039.979482 175.495061 Z M 880.073484 175.495061 " transform="matrix(0.016538,0,0,0.016538,0,0)"/>
<path style=" stroke:none;fill-rule:nonzero;fill:url(#linear2);" d="M 15.875 8.1875 C 11.84375 8.1875 8.601562 11.433594 8.601562 15.464844 C 8.601562 19.496094 11.84375 22.742188 15.875 22.742188 C 17.890625 22.742188 19.710938 21.929688 21.027344 20.613281 L 19.152344 18.742188 C 18.316406 19.578125 17.160156 20.09375 15.875 20.09375 C 13.3125 20.09375 11.246094 18.03125 11.246094 15.464844 C 11.246094 12.898438 13.3125 10.835938 15.875 10.835938 C 17.160156 10.835938 18.316406 11.351562 19.152344 12.1875 L 21.027344 10.316406 C 19.710938 9 17.890625 8.1875 15.875 8.1875 Z M 15.875 8.1875 "/>
<path style=" stroke:none;fill-rule:nonzero;fill:rgb(100%,100%,100%);fill-opacity:0.970968;" d="M 15.875 8.1875 C 11.84375 8.1875 8.601562 11.433594 8.601562 15.464844 C 8.601562 15.546875 8.601562 15.628906 8.605469 15.714844 C 8.734375 11.796875 11.929688 8.683594 15.875 8.683594 C 17.765625 8.683594 19.480469 9.398438 20.773438 10.570312 L 21.027344 10.316406 C 19.710938 9 17.890625 8.1875 15.875 8.1875 Z M 11.253906 15.714844 C 11.25 15.796875 11.246094 15.878906 11.246094 15.960938 C 11.246094 18.527344 13.3125 20.589844 15.875 20.589844 C 17.160156 20.589844 18.316406 20.074219 19.152344 19.238281 L 20.773438 20.855469 C 20.859375 20.777344 20.945312 20.699219 21.027344 20.613281 L 19.152344 18.742188 C 18.316406 19.578125 17.160156 20.09375 15.875 20.09375 C 13.394531 20.09375 11.378906 18.164062 11.253906 15.714844 Z M 11.253906 15.714844 "/>
<path style=" stroke:none;fill-rule:nonzero;fill:rgb(0%,0%,0%);fill-opacity:0.235294;" d="M 20.683594 10.625 L 19.152344 12.15625 C 18.316406 11.320312 17.160156 10.804688 15.875 10.804688 C 13.3125 10.804688 11.246094 12.871094 11.246094 15.433594 C 11.246094 15.546875 11.25 15.65625 11.257812 15.765625 C 11.425781 13.355469 13.421875 11.464844 15.875 11.464844 C 17.160156 11.464844 18.316406 11.980469 19.152344 12.820312 L 21.027344 10.945312 C 20.917969 10.835938 20.800781 10.730469 20.683594 10.625 Z M 8.605469 15.765625 C 8.601562 15.875 8.601562 15.984375 8.601562 16.097656 C 8.601562 20.128906 11.84375 23.371094 15.875 23.371094 C 17.890625 23.371094 19.710938 22.5625 21.027344 21.246094 L 20.683594 20.90625 C 19.40625 22.03125 17.722656 22.710938 15.875 22.710938 C 11.957031 22.710938 8.777344 19.640625 8.605469 15.765625 Z M 8.605469 15.765625 "/>
<path style="fill:none;stroke-width:12.472441;stroke-linecap:round;stroke-linejoin:round;stroke:rgb(12.941177%,12.941177%,12.941177%);stroke-opacity:1;stroke-miterlimit:4;" d="M 959.908384 495.070859 C 716.152121 495.070859 520.10784 691.351338 520.10784 935.107601 C 520.10784 1178.863864 716.152121 1375.144343 959.908384 1375.144343 C 1081.786515 1375.144343 1191.85475 1326.015174 1271.453452 1246.416472 L 1158.078446 1133.277664 C 1107.532089 1183.824021 1037.617502 1215.002147 959.908384 1215.002147 C 804.962542 1215.002147 680.013838 1090.289641 680.013838 935.107601 C 680.013838 779.925562 804.962542 655.213055 959.908384 655.213055 C 1037.617502 655.213055 1107.532089 686.391182 1158.078446 736.937539 L 1271.453452 623.798731 C 1191.85475 544.200029 1081.786515 495.070859 959.908384 495.070859 Z M 959.908384 495.070859 " transform="matrix(0.016538,0,0,0.016538,0,0)"/>
</g>
</svg>
