<svg xmlns="http://www.w3.org/2000/svg" width="32pt" height="32pt" viewBox="0 0 32 32"><defs><linearGradient id="a" gradientUnits="userSpaceOnUse" x1="254" y1="233.5" x2="254" y2="254.667" gradientTransform="matrix(.0625 0 0 .0625 0 13.439)"><stop offset="0" stop-opacity=".275"/><stop offset="1" stop-opacity="0"/></linearGradient><radialGradient id="b" gradientUnits="userSpaceOnUse" cx="450.909" cy="189.579" fx="450.909" fy="189.579" r="21.167" gradientTransform="matrix(0 -.07813 -.14064 0 53.454 63.595)"><stop offset="0" stop-opacity=".314"/><stop offset=".222" stop-opacity=".275"/><stop offset="1" stop-opacity="0"/></radialGradient><radialGradient id="c" gradientUnits="userSpaceOnUse" cx="450.909" cy="189.579" fx="450.909" fy="189.579" r="21.167" gradientTransform="matrix(0 .07813 .14064 0 -21.7 -7.527)"><stop offset="0" stop-opacity=".314"/><stop offset=".222" stop-opacity=".275"/><stop offset="1" stop-opacity="0"/></radialGradient><radialGradient id="d" gradientUnits="userSpaceOnUse" cx="450.909" cy="189.579" fx="450.909" fy="189.579" r="21.167" gradientTransform="matrix(0 -.07813 .14064 0 -21.7 63.595)"><stop offset="0" stop-opacity=".314"/><stop offset=".222" stop-opacity=".275"/><stop offset="1" stop-opacity="0"/></radialGradient><radialGradient id="e" gradientUnits="userSpaceOnUse" cx="450.909" cy="189.579" fx="450.909" fy="189.579" r="21.167" gradientTransform="matrix(0 .07813 -.14064 0 53.454 -7.527)"><stop offset="0" stop-opacity=".314"/><stop offset=".222" stop-opacity=".275"/><stop offset="1" stop-opacity="0"/></radialGradient><linearGradient id="f" gradientUnits="userSpaceOnUse" x1="306.917" y1="-25.792" x2="305.955" y2="-135.329" gradientTransform="matrix(.07535 0 0 .21741 -5.854 33.641)"><stop offset="0" stop-color="#424242"/><stop offset="1" stop-color="#616161"/></linearGradient><linearGradient id="g" gradientUnits="userSpaceOnUse" x1="1120" y1="1695.118" x2="1120" y2="255.118" gradientTransform="matrix(.01654 0 0 .01654 0 .014)"><stop offset="0" stop-color="#b0bec5"/><stop offset="1" stop-color="#cfd8dc"/></linearGradient><linearGradient id="h" gradientUnits="userSpaceOnUse" x1="444.5" y1="185.875" x2="444.5" y2="148.833" gradientTransform="matrix(.5 0 0 .57143 -105.833 106.338)"><stop offset="0" stop-color="#78909c"/><stop offset="1" stop-color="#607d8b"/></linearGradient><linearGradient id="i" gradientUnits="userSpaceOnUse" x1="444.5" y1="185.875" x2="444.5" y2="148.833" gradientTransform="matrix(.5 0 0 .57143 -63.5 106.338)"><stop offset="0" stop-color="#78909c"/><stop offset="1" stop-color="#607d8b"/></linearGradient><linearGradient id="j" gradientUnits="userSpaceOnUse" x1="444.5" y1="185.875" x2="444.5" y2="148.833" gradientTransform="matrix(.5 0 0 .57143 -21.167 106.338)"><stop offset="0" stop-color="#78909c"/><stop offset="1" stop-color="#607d8b"/></linearGradient><linearGradient id="k" gradientUnits="userSpaceOnUse" x1="444.5" y1="185.875" x2="444.5" y2="148.833" gradientTransform="matrix(.5 0 0 .57143 169.333 106.338)"><stop offset="0" stop-color="#78909c"/><stop offset="1" stop-color="#607d8b"/></linearGradient></defs><path d="M4.629 28.035H27.12v1.32H4.63zm0 0" fill="url(#a)"/><path d="M27.121 28.035h2.649v-1.324H27.12zm0 0" fill="url(#b)"/><path d="M4.629 28.035H1.984v1.32H4.63zm0 0" fill="url(#c)"/><path d="M4.629 28.035H1.984v-1.324H4.63zm0 0" fill="url(#d)"/><path d="M27.121 28.035h2.649v1.32H27.12zm0 0" fill="url(#e)"/><path d="M3.309 4.219h25.136c.73 0 1.325.593 1.325 1.324v21.168c0 .73-.594 1.324-1.325 1.324H3.31c-.73 0-1.325-.594-1.325-1.324V5.543c0-.73.594-1.324 1.325-1.324zm0 0" fill="url(#f)"/><path d="M3.309 28.047a1.32 1.32 0 0 1-1.325-1.324v-.344c0 .734.59 1.324 1.325 1.324h25.136a1.32 1.32 0 0 0 1.325-1.324v.344a1.32 1.32 0 0 1-1.325 1.324zm0 0" fill-opacity=".235"/><path d="M3.309 4.297a1.32 1.32 0 0 0-1.325 1.32v.344c0-.73.59-1.32 1.325-1.32h25.136c.735 0 1.325.59 1.325 1.32v-.344c0-.73-.59-1.32-1.325-1.32zm0 0" fill="#fff" fill-opacity=".392"/><path d="M3.309 4.125c-.786 0-1.418.633-1.418 1.418v21.168c0 .785.632 1.418 1.418 1.418h25.136c.785 0 1.418-.633 1.418-1.418V5.543c0-.785-.633-1.418-1.418-1.418zm0 .188h25.136c.684 0 1.23.546 1.23 1.23v21.168c0 .684-.546 1.23-1.23 1.23H3.31c-.684 0-1.23-.546-1.23-1.23V5.543c0-.684.546-1.23 1.23-1.23zm0 0" fill="#212121"/><path d="M6.613 24.078c-.73 0-1.32.59-1.32 1.324v1.985c0 .367.293.66.66.66h19.848a.66.66 0 0 0 .66-.66v-1.985a1.32 1.32 0 0 0-1.324-1.324zm0 0" fill="url(#g)"/><path d="M116.426 191.399c5.812 0 10.562 4.75 10.562 10.561 0 5.875-4.75 10.562-10.562 10.562-5.874 0-10.624-4.687-10.624-10.562 0-5.812 4.75-10.561 10.624-10.561zm0 0" transform="matrix(.0625 0 0 .0625 0 13.439)" fill="url(#h)" stroke-width="3" stroke-linecap="round" stroke="#212121"/><path d="M158.735 191.399c5.874 0 10.624 4.75 10.624 10.561 0 5.875-4.75 10.562-10.624 10.562-5.812 0-10.562-4.687-10.562-10.562 0-5.812 4.75-10.561 10.562-10.561zm0 0" transform="matrix(.0625 0 0 .0625 0 13.439)" fill="url(#i)" stroke-width="3" stroke-linecap="round" stroke="#212121"/><path d="M201.106 191.399c5.812 0 10.561 4.75 10.561 10.561 0 5.875-4.75 10.562-10.561 10.562-5.875 0-10.624-4.687-10.624-10.562 0-5.812 4.75-10.561 10.624-10.561zm0 0" transform="matrix(.0625 0 0 .0625 0 13.439)" fill="url(#j)" stroke-width="3" stroke-linecap="round" stroke="#212121"/><path d="M391.588 191.399c5.812 0 10.561 4.75 10.561 10.561 0 5.875-4.75 10.562-10.561 10.562a10.509 10.509 0 0 1-10.562-10.562c0-5.812 4.687-10.561 10.562-10.561zm0 0" transform="matrix(.0625 0 0 .0625 0 13.439)" fill="url(#k)" stroke-width="3" stroke-linecap="round" stroke="#212121"/><path d="M6.613 24.078c-.73 0-1.32.59-1.32 1.324v.317c0-.735.59-1.324 1.32-1.324h18.524c.734 0 1.324.59 1.324 1.324v-.317a1.32 1.32 0 0 0-1.324-1.324zm0 0" fill="#fff" fill-opacity=".588"/><path d="M5.293 27.055v.332c0 .367.293.66.66.66h19.848a.66.66 0 0 0 .66-.66v-.332a.663.663 0 0 1-.66.664H5.953a.66.66 0 0 1-.66-.664zm0 0" fill-opacity=".235"/><path d="M6.613 23.984c-.781 0-1.414.633-1.414 1.418v1.985c0 .418.336.754.754.754h19.848a.754.754 0 0 0 .754-.754v-1.985c0-.785-.633-1.418-1.418-1.418zm0 .188h18.524c.683 0 1.23.547 1.23 1.23v1.985c0 .316-.25.566-.566.566H5.953a.562.562 0 0 1-.566-.566v-1.985c0-.683.547-1.23 1.226-1.23zm0 0" fill="#212121"/></svg>