<svg height="32pt" viewBox="0 0 32 32" width="32pt" xmlns="http://www.w3.org/2000/svg" xmlns:xlink="http://www.w3.org/1999/xlink"><linearGradient id="a"><stop offset="0" stop-opacity=".314"/><stop offset=".222" stop-opacity=".275"/><stop offset="1" stop-opacity="0"/></linearGradient><radialGradient id="b" cx="450.909" cy="189.579" gradientTransform="matrix(0 -.07813 -.14064 0 44.523 63.595)" gradientUnits="userSpaceOnUse" r="21.167" xlink:href="#a"/><radialGradient id="c" cx="450.909" cy="189.579" gradientTransform="matrix(0 .07813 .14064 0 -12.77 -7.527)" gradientUnits="userSpaceOnUse" r="21.167" xlink:href="#a"/><radialGradient id="d" cx="450.909" cy="189.579" gradientTransform="matrix(0 -.07813 .14064 0 -12.77 63.595)" gradientUnits="userSpaceOnUse" r="21.167" xlink:href="#a"/><radialGradient id="e" cx="450.909" cy="189.579" gradientTransform="matrix(0 .07813 -.14064 0 44.523 -7.527)" gradientUnits="userSpaceOnUse" r="21.167" xlink:href="#a"/><linearGradient id="f" gradientTransform="matrix(.01336 0 0 .0625 12.465 13.439)" gradientUnits="userSpaceOnUse" x1="255.323" x2="255.323" y1="233.5" y2="254.667"><stop offset="0" stop-opacity=".275"/><stop offset="1" stop-opacity="0"/></linearGradient><linearGradient id="g"><stop offset="0" stop-color="#9e9e9e"/><stop offset="1" stop-color="#e0e0e0"/></linearGradient><linearGradient id="h" gradientTransform="matrix(.0442 -.0442 .0442 .0442 8.57 16.742)" gradientUnits="userSpaceOnUse" x1="-85.107" x2="199.268" xlink:href="#g" y1="155.473" y2="-128.901"/><linearGradient id="i" gradientTransform="matrix(-.04419417 -.04419417 -.04419417 .04419417 23.180509 16.739927)" gradientUnits="userSpaceOnUse" x1="-85.107" x2="199.268" xlink:href="#g" y1="155.473" y2="-128.901"/><linearGradient id="j" gradientUnits="userSpaceOnUse" x1="222.25" x2="222.25" xlink:href="#g" y1="233.5" y2="-168.667"/><linearGradient id="k" gradientUnits="userSpaceOnUse" x1="15.87722" x2="15.87722" y1="4.21845469" y2="26.711655"><stop offset="0" stop-color="#e57373"/><stop offset="1" stop-color="#ef5350"/></linearGradient><linearGradient id="l" gradientUnits="userSpaceOnUse" x1="201.612" x2="225.778" y1="198.64" y2="198.64"><stop offset="0" stop-color="#f44336"/><stop offset="1" stop-color="#ef5350"/></linearGradient><linearGradient id="m"><stop offset="0" stop-color="#616161"/><stop offset="1" stop-color="#424242"/></linearGradient><linearGradient id="n" gradientUnits="userSpaceOnUse" x1="264.583" x2="264.583" xlink:href="#m" y1="138.25" y2="540.417"/><linearGradient id="o" gradientUnits="userSpaceOnUse" x1="16.5364375" x2="16.5364375" xlink:href="#m" y1="3.2283125" y2="28.36375"/><linearGradient id="p" gradientTransform="matrix(.0237 -.05784 .05784 .0237 -.137 15.596)" gradientUnits="userSpaceOnUse" x1="246.611" x2="-101.675" xlink:href="#g" y1="89.81" y2="290.893"/><linearGradient id="q" gradientTransform="matrix(.038 .04963 -.04963 .038 .405 11.366)" gradientUnits="userSpaceOnUse" x1="112.725" x2="397.099" xlink:href="#g" y1="-351.255" y2="-66.881"/><linearGradient id="r" gradientUnits="userSpaceOnUse" x1="15.46430219" x2="15.46430219" xlink:href="#g" y1="17.1194825" y2="13.81154281"/><linearGradient id="s" gradientUnits="userSpaceOnUse" x1="16.5364375" x2="16.5364375" xlink:href="#m" y1="22.0813125" y2="47.21675"/><linearGradient id="t" gradientTransform="matrix(0 .0625 -.0625 0 17.69 -.293)" gradientUnits="userSpaceOnUse" x1="264.583" x2="264.583" xlink:href="#m" y1="-168.667" y2="233.5"/><linearGradient id="u" gradientTransform="matrix(0 .0625 -.0625 0 -1.163 -.293)" gradientUnits="userSpaceOnUse" x1="264.583" x2="264.583" xlink:href="#m" y1="-168.667" y2="233.5"/><path d="m18.191 28.035h2.649v-1.324h-2.65zm0 0" fill="url(#b)"/><path d="m13.563 28.035h-2.649v1.32h2.649zm0 0" fill="url(#c)"/><path d="m13.563 28.035h-2.649v-1.324h2.649zm0 0" fill="url(#d)"/><path d="m18.191 28.035h2.649v1.32h-2.65zm0 0" fill="url(#e)"/><path d="m13.563 27.703h4.628v1.652h-4.628zm0 0" fill="url(#f)"/><path d="m5.324 5.078 1.406-1.406a2.65 2.65 0 0 1 3.743 0 2.65 2.65 0 0 1 0 3.742l-1.407 1.406a2.65 2.65 0 0 1 -3.742 0 2.65 2.65 0 0 1 0-3.742zm0 0" fill="url(#h)"/><path d="m8.602 2.895c-.68 0-1.356.261-1.872.777l-1.406 1.406a2.64 2.64 0 0 0 -.765 2.117c.058-.59.312-1.164.765-1.62l1.406-1.404a2.622 2.622 0 0 1 1.872-.777c.675 0 1.351.257 1.87.777.454.453.708 1.031.762 1.621a2.627 2.627 0 0 0 -.761-2.121 2.652 2.652 0 0 0 -1.871-.777zm0 0" fill="#fff" fill-opacity=".471"/><path d="m11.227 5.215a2.627 2.627 0 0 1 -.754 1.539l-1.407 1.402a2.636 2.636 0 0 1 -3.742 0 2.627 2.627 0 0 1 -.754-1.539 2.637 2.637 0 0 0 .754 2.203 2.643 2.643 0 0 0 3.742 0l1.407-1.406a2.638 2.638 0 0 0 .754-2.2zm0 0" fill-opacity=".392"/><path d="m5.324 5.078 1.406-1.406a2.65 2.65 0 0 1 3.743 0 2.65 2.65 0 0 1 0 3.742l-1.407 1.406a2.65 2.65 0 0 1 -3.742 0 2.65 2.65 0 0 1 0-3.742zm0 0" fill="none" stroke="#212121" stroke-linecap="round" stroke-linejoin="round" stroke-width=".18753"/><path d="m26.426 5.078-1.403-1.406a2.65 2.65 0 0 0 -3.742 0 2.65 2.65 0 0 0 0 3.742l1.403 1.406a2.65 2.65 0 0 0 3.742 0 2.643 2.643 0 0 0 0-3.742zm0 0" fill="url(#i)"/><path d="m23.152 2.895c.676 0 1.356.261 1.871.777l1.403 1.406c.582.582.84 1.363.765 2.117a2.625 2.625 0 0 0 -.765-1.62l-1.403-1.403a2.629 2.629 0 0 0 -1.87-.777 2.658 2.658 0 0 0 -2.637 2.398 2.652 2.652 0 0 1 2.637-2.898zm0 0" fill="#fff" fill-opacity=".471"/><path d="m20.527 5.215c.07.562.32 1.105.754 1.539l1.403 1.402a2.636 2.636 0 0 0 3.742 0c.433-.433.687-.976.758-1.539a2.64 2.64 0 0 1 -.758 2.203 2.643 2.643 0 0 1 -3.742 0l-1.404-1.406a2.625 2.625 0 0 1 -.754-2.2zm0 0" fill-opacity=".392"/><path d="m26.426 5.078-1.403-1.406a2.65 2.65 0 0 0 -3.742 0 2.65 2.65 0 0 0 0 3.742l1.403 1.406a2.65 2.65 0 0 0 3.742 0 2.643 2.643 0 0 0 0-3.742zm0 0" fill="none" stroke="#212121" stroke-linecap="round" stroke-linejoin="round" stroke-width=".18753"/><path d="m253.976-168.692c111.052 0 201.106 90.054 201.106 201.106s-90.054 201.106-201.106 201.106-201.044-90.054-201.044-201.106 89.992-201.106 201.044-201.106zm0 0" fill="url(#j)" stroke="#333" stroke-linecap="round" stroke-width="3" transform="matrix(.0625 0 0 .0625 0 13.439)"/><path d="m15.875 28.035a12.54 12.54 0 0 1 -12.566-12.57v-.121a12.542 12.542 0 0 0 12.566 12.445 12.545 12.545 0 0 0 12.57-12.445v.12c0 6.966-5.605 12.571-12.57 12.571zm0 0" fill-opacity=".196"/><path d="m15.875 2.895a12.54 12.54 0 0 0 -12.566 12.695 12.543 12.543 0 0 1 12.566-12.45 12.546 12.546 0 0 1 12.57 12.45v-.125c0-6.965-5.605-12.57-12.57-12.57zm0 0" fill="#fff" fill-opacity=".392"/><path d="m15.875 2.8a12.638 12.638 0 0 0 -12.66 12.665 12.638 12.638 0 0 0 12.66 12.664 12.64 12.64 0 0 0 12.664-12.664 12.64 12.64 0 0 0 -12.664-12.665zm0 .188a12.447 12.447 0 0 1 12.477 12.477 12.447 12.447 0 0 1 -12.477 12.475 12.446 12.446 0 0 1 -12.473-12.475 12.446 12.446 0 0 1 12.473-12.477zm0 0" fill="#212121"/><path d="m15.875 4.219c6.21 0 11.246 5.035 11.246 11.246 0 6.21-5.035 11.246-11.246 11.246-6.21 0-11.246-5.035-11.246-11.246s5.035-11.246 11.246-11.246zm0 0" fill="url(#k)"/><path d="m14.902 14.648a.331.331 0 0 0 -.05.372l4.253 8.226a.332.332 0 0 0 .446.145.332.332 0 0 0 .144-.446l-.05-.097a.293.293 0 0 1 -.094.074.332.332 0 0 1 -.446-.145zm0 0" fill-opacity=".235"/><path d="m208.424 119.26c2.879.01 5.251 2.363 5.267 5.326l.016 148.167c-.01 2.879-2.362 5.25-5.325 5.267-2.879-.011-5.251-2.363-5.267-5.326l-.016-148.167c.01-2.879 2.362-5.25 5.325-5.267zm0 0" fill="url(#l)" stroke="#333" stroke-linecap="square" stroke-linejoin="bevel" stroke-width="3" transform="matrix(.05553 -.0287 .0287 .05553 0 13.439)"/><path d="m15.875 4.219a11.221 11.221 0 0 0 -11.246 11.246c0 .058.004.12.004.18a11.218 11.218 0 0 1 11.242-11.067 11.219 11.219 0 0 1 11.246 11.067v-.18c0-6.23-5.016-11.246-11.246-11.246zm0 0" fill-opacity=".235"/><path d="m15.875 27.043a11.221 11.221 0 0 1 -11.246-11.246c0-.063.004-.121.004-.18a11.22 11.22 0 0 0 11.242 11.067 11.222 11.222 0 0 0 11.246-11.067v.18c0 6.23-5.016 11.246-11.246 11.246zm0 0" fill="#fff" fill-opacity=".392"/><path d="m254.006 177.92a5.367 5.367 0 0 1 5.303 5.309l-.019 13.216c.036 2.938-2.34 5.32-5.31 5.303-2.883.005-5.265-2.372-5.27-5.256l-.013-13.27c-.005-2.884 2.372-5.266 5.31-5.303zm0 0" fill="url(#n)" stroke="#333" stroke-linecap="round" stroke-linejoin="round" stroke-width="3" transform="matrix(-.03125 .05412659 -.05412659 -.03125 25.567062 2.72845)"/><path d="m15.875 4.219c6.21 0 11.246 5.035 11.246 11.246 0 6.21-5.035 11.246-11.246 11.246-6.21 0-11.246-5.035-11.246-11.246s5.035-11.246 11.246-11.246zm0 0" fill="none" stroke="#212121" stroke-linecap="round" stroke-width=".18753"/><path d="m15.875 4.879c.184 0 .332.148.332.332v1.656a.33.33 0 0 1 -.66 0v-1.656a.33.33 0 0 1 .328-.332zm0 0" fill="url(#o)"/><path d="m15.875 4.879a.328.328 0 0 0 -.328.332v.332c0-.184.144-.332.328-.332s.332.148.332.332v-.332a.332.332 0 0 0 -.332-.332zm0 0" fill="#fff" fill-opacity=".392"/><path d="m15.875 7.527a.328.328 0 0 1 -.328-.332v-.328c0 .18.144.328.328.328a.33.33 0 0 0 .332-.328v.328a.332.332 0 0 1 -.332.332zm0 0" fill-opacity=".235"/><path d="m15.875 4.879c.184 0 .332.148.332.332v1.656a.33.33 0 0 1 -.66 0v-1.656a.33.33 0 0 1 .328-.332zm0 0" fill="none" stroke="#333" stroke-linecap="round" stroke-linejoin="round" stroke-width=".18753"/><path d="m7.332 12.332a.496.496 0 0 0 .242.707l8.114 3.32a.49.49 0 0 0 .644-.27.49.49 0 0 0 -.027-.437.489.489 0 0 1 -.617.211l-8.114-3.32a.535.535 0 0 1 -.242-.211zm0 0" fill-opacity=".235"/><path d="m7.305 11.953a.502.502 0 0 1 .648-.27l8.11 3.325a.494.494 0 0 1 .269.648.493.493 0 0 1 -.645.27l-8.113-3.324a.494.494 0 0 1 -.27-.649zm0 0" fill="url(#p)"/><path d="m22.27 11.23a.684.684 0 0 1 -.211.278l-5.782 4.422a.657.657 0 0 1 -.925-.125.602.602 0 0 1 -.09-.153.663.663 0 0 0 1.015.774l5.782-4.422a.661.661 0 0 0 .21-.774zm0 0" fill-opacity=".235"/><path d="m22.18 10.64a.66.66 0 0 1 -.121.926l-5.782 4.426a.664.664 0 0 1 -.925-.125.66.66 0 0 1 .12-.926l5.782-4.425a.66.66 0 0 1 .926.125zm0 0" fill="url(#q)"/><path d="m21.648 10.379a.67.67 0 0 0 -.394.137l-5.781 4.425a.66.66 0 0 0 -.239.676.654.654 0 0 1 .239-.37l5.78-4.423a.66.66 0 0 1 1.044.371.652.652 0 0 0 -.117-.554.671.671 0 0 0 -.532-.262zm0 0" fill="#fff" fill-opacity=".392"/><path d="m7.758 11.648a.495.495 0 0 0 -.477.622l.024-.067a.496.496 0 0 1 .648-.27l8.11 3.32a.501.501 0 0 1 .292.337.49.49 0 0 0 -.293-.582l-8.109-3.324a.432.432 0 0 0 -.195-.036zm0 0" fill="#fff" fill-opacity=".392"/><path d="m7.305 11.953a.502.502 0 0 1 .648-.27l8.11 3.325a.494.494 0 0 1 .269.648.493.493 0 0 1 -.644.27l-8.114-3.324a.494.494 0 0 1 -.27-.649zm0 0" fill="none" stroke="#333" stroke-linecap="round" stroke-linejoin="round" stroke-width=".18753"/><path d="m22.18 10.64a.66.66 0 0 1 -.121.926l-5.782 4.426a.664.664 0 0 1 -.925-.125.66.66 0 0 1 .12-.926l5.782-4.425a.66.66 0 0 1 .926.125zm0 0" fill="none" stroke="#333" stroke-linecap="round" stroke-linejoin="round" stroke-width=".18753"/><path d="m15.875 13.813c.914 0 1.656.738 1.656 1.652a1.654 1.654 0 0 1 -3.308 0c0-.914.742-1.652 1.652-1.652zm0 0" fill="url(#r)"/><path d="m15.875 23.734c.184 0 .332.149.332.332v1.653a.332.332 0 0 1 -.332.332.33.33 0 0 1 -.328-.332v-1.653a.33.33 0 0 1 .328-.332zm0 0" fill="url(#s)"/><path d="m15.875 23.734a.328.328 0 0 0 -.328.332v.329c0-.184.144-.329.328-.329s.332.145.332.329v-.329a.332.332 0 0 0 -.332-.332zm0 0" fill="#fff" fill-opacity=".392"/><path d="m15.875 26.379a.325.325 0 0 1 -.328-.328v-.332c0 .183.144.332.328.332a.332.332 0 0 0 .332-.332v.332a.328.328 0 0 1 -.332.328zm0 0" fill-opacity=".235"/><path d="m15.875 23.734c.184 0 .332.149.332.332v1.653a.332.332 0 0 1 -.332.332.33.33 0 0 1 -.328-.332v-1.653a.33.33 0 0 1 .328-.332zm0 0" fill="none" stroke="#333" stroke-linecap="round" stroke-linejoin="round" stroke-width=".18753"/><path d="m26.578 15.582a.33.33 0 0 1 -.328.332h-1.656a.33.33 0 0 1 0-.66h1.656a.33.33 0 0 1 .328.328zm0 0" fill="url(#t)"/><path d="m24.594 15.254a.325.325 0 0 0 -.328.328c0 .05.007.094.027.137a.33.33 0 0 1 .3-.2h1.657a.33.33 0 0 1 .3.2.317.317 0 0 0 .028-.137.325.325 0 0 0 -.328-.328zm0 0" fill="#fff" fill-opacity=".392"/><path d="m24.277 15.773a.385.385 0 0 0 -.011.094c0 .184.144.332.328.332h1.656a.328.328 0 0 0 .328-.332.385.385 0 0 0 -.012-.094.332.332 0 0 1 -.316.239h-1.656a.332.332 0 0 1 -.317-.239zm0 0" fill-opacity=".235"/><path d="m26.578 15.582a.33.33 0 0 1 -.328.332h-1.656a.33.33 0 0 1 0-.66h1.656a.33.33 0 0 1 .328.328zm0 0" fill="none" stroke="#333" stroke-linecap="round" stroke-linejoin="round" stroke-width=".18753"/><path d="m7.727 15.582a.332.332 0 0 1 -.332.332h-1.653a.332.332 0 0 1 -.332-.332.33.33 0 0 1 .332-.328h1.653a.33.33 0 0 1 .332.328zm0 0" fill="url(#u)"/><path d="m5.742 15.254a.328.328 0 0 0 -.332.328c0 .05.012.094.027.137.051-.117.168-.2.305-.2h1.653c.136 0 .253.083.304.2a.387.387 0 0 0 .028-.137.328.328 0 0 0 -.332-.328zm0 0" fill="#fff" fill-opacity=".392"/><path d="m5.426 15.773a.263.263 0 0 0 -.016.094c0 .184.149.332.332.332h1.653a.332.332 0 0 0 .332-.332.263.263 0 0 0 -.016-.094.328.328 0 0 1 -.316.239h-1.653a.328.328 0 0 1 -.316-.239zm0 0" fill-opacity=".235"/><path d="m7.727 15.582a.332.332 0 0 1 -.332.332h-1.653a.332.332 0 0 1 -.332-.332.33.33 0 0 1 .332-.328h1.653a.33.33 0 0 1 .332.328zm0 0" fill="none" stroke="#333" stroke-linecap="round" stroke-linejoin="round" stroke-width=".18753"/><path d="m15.875 13.813a1.648 1.648 0 0 0 -1.633 1.902c.117-.8.801-1.406 1.633-1.406s1.52.605 1.637 1.406a1.649 1.649 0 0 0 -1.637-1.902zm0 0" fill="#fff" fill-opacity=".392"/><path d="m15.875 17.613a1.648 1.648 0 0 1 -1.633-1.898c.117.797.801 1.402 1.633 1.402s1.52-.605 1.637-1.402a1.649 1.649 0 0 1 -1.637 1.898zm0 0" fill-opacity=".235"/><g stroke="#333"><path d="m15.875 13.812a1.654 1.654 0 1 1 -1.652 1.652c0-.913.742-1.652 1.652-1.652zm0 0" fill="none" stroke-linecap="square" stroke-linejoin="bevel" stroke-width=".18753"/><path d="m253.975 177.918c2.97.018 5.352 2.394 5.303 5.31l-.019 13.216c.036 2.937-2.34 5.32-5.255 5.27-2.938.037-5.32-2.34-5.271-5.254l-.013-13.271c-.005-2.884 2.372-5.266 5.255-5.271zm0 0" fill="url(#n)" stroke-linecap="round" stroke-linejoin="round" stroke-width="3" transform="matrix(.05412659 .03125 -.03125 .05412659 12.979065 -11.270529)"/><path d="m253.989 177.917c2.937.036 5.314 2.418 5.31 5.302l-.013 13.27c-.005 2.884-2.388 5.26-5.272 5.256-2.968.018-5.291-2.334-5.309-5.303l-.019-13.216a5.367 5.367 0 0 1 5.303-5.31zm0 0" fill="url(#n)" stroke-linecap="round" stroke-linejoin="round" stroke-width="3" transform="matrix(.03125 .05412659 -.05412659 .03125 9.692105 .702407)"/><path d="m253.988 177.928c2.937.036 5.314 2.419 5.31 5.302l.018 13.217c-.037 2.937-2.42 5.314-5.303 5.309-2.937-.036-5.345-2.365-5.31-5.302l-.018-13.217c.037-2.937 2.42-5.314 5.303-5.31zm0 0" fill="url(#n)" stroke-linecap="round" stroke-linejoin="round" stroke-width="3" transform="matrix(.03125 .05412659 -.05412659 .03125 26.734037 -9.136835)"/><path d="m254.007 177.93c2.884-.005 5.267 2.372 5.303 5.31l-.019 13.216c.037 2.938-2.372 5.266-5.31 5.303-2.883.005-5.265-2.372-5.302-5.31l.019-13.216a5.367 5.367 0 0 1 5.31-5.302zm0 0" fill="url(#n)" stroke-linecap="round" stroke-linejoin="round" stroke-width="3" transform="matrix(-.03125 .05412659 -.05412659 -.03125 42.609071 12.567575)"/><path d="m253.992 177.966c2.914-.05 5.291 2.333 5.31 5.302l-.036 13.185c.049 2.915-2.334 5.292-5.303 5.31-2.883-.005-5.26-2.388-5.255-5.272l.013-13.27c.005-2.884 2.333-5.292 5.27-5.255zm0 0" fill="url(#n)" stroke-linecap="round" stroke-linejoin="round" stroke-width="3" transform="matrix(-.05412659 .03125 -.03125 -.05412659 30.636145 9.280649)"/><path d="m254.022 177.923c2.883.005 5.26 2.387 5.255 5.27l-.012 13.271c.049 2.915-2.334 5.292-5.272 5.256-2.914.049-5.291-2.334-5.255-5.271l-.019-13.217c-.049-2.915 2.334-5.292 5.303-5.31zm0 0" fill="url(#n)" stroke-linecap="round" stroke-linejoin="round" stroke-width="3" transform="matrix(-.05412659 .03125 -.03125 -.05412659 40.475328 26.322604)"/></g></svg>