<?xml version="1.0" encoding="UTF-8"?>
<svg xmlns="http://www.w3.org/2000/svg" xmlns:xlink="http://www.w3.org/1999/xlink" width="32pt" height="32pt" viewBox="0 0 32 32" version="1.1">
<defs>
<radialGradient id="radial0" gradientUnits="userSpaceOnUse" cx="450.90894" cy="189.57936" fx="450.90894" fy="189.57936" r="21.166656" gradientTransform="matrix(0.00000017417,-0.0781325,-0.140638,-0.000000101539,43.53087,63.595332)">
<stop offset="0" style="stop-color:rgb(0%,0%,0%);stop-opacity:0.313725;"/>
<stop offset="0.222222" style="stop-color:rgb(0%,0%,0%);stop-opacity:0.27451;"/>
<stop offset="1" style="stop-color:rgb(0%,0%,0%);stop-opacity:0;"/>
</radialGradient>
<radialGradient id="radial1" gradientUnits="userSpaceOnUse" cx="450.90894" cy="189.57936" fx="450.90894" fy="189.57936" r="21.166656" gradientTransform="matrix(-0.00000017417,0.0781325,0.140638,0.000000101539,-11.777838,-7.527481)">
<stop offset="0" style="stop-color:rgb(0%,0%,0%);stop-opacity:0.313725;"/>
<stop offset="0.222222" style="stop-color:rgb(0%,0%,0%);stop-opacity:0.27451;"/>
<stop offset="1" style="stop-color:rgb(0%,0%,0%);stop-opacity:0;"/>
</radialGradient>
<radialGradient id="radial2" gradientUnits="userSpaceOnUse" cx="450.90894" cy="189.57936" fx="450.90894" fy="189.57936" r="21.166656" gradientTransform="matrix(-0.00000017417,-0.0781325,0.140638,-0.000000101539,-11.777838,63.595332)">
<stop offset="0" style="stop-color:rgb(0%,0%,0%);stop-opacity:0.313725;"/>
<stop offset="0.222222" style="stop-color:rgb(0%,0%,0%);stop-opacity:0.27451;"/>
<stop offset="1" style="stop-color:rgb(0%,0%,0%);stop-opacity:0;"/>
</radialGradient>
<radialGradient id="radial3" gradientUnits="userSpaceOnUse" cx="450.90894" cy="189.57936" fx="450.90894" fy="189.57936" r="21.166656" gradientTransform="matrix(0.00000017417,0.0781325,-0.140638,0.000000101539,43.530868,-7.527482)">
<stop offset="0" style="stop-color:rgb(0%,0%,0%);stop-opacity:0.313725;"/>
<stop offset="0.222222" style="stop-color:rgb(0%,0%,0%);stop-opacity:0.27451;"/>
<stop offset="1" style="stop-color:rgb(0%,0%,0%);stop-opacity:0;"/>
</radialGradient>
<linearGradient id="linear0" gradientUnits="userSpaceOnUse" x1="255.32306" y1="233.5" x2="255.32304" y2="254.66666" gradientTransform="matrix(0.0133601,0,0,0.062506,12.465386,13.438784)">
<stop offset="0" style="stop-color:rgb(0%,0%,0%);stop-opacity:0.27451;"/>
<stop offset="1" style="stop-color:rgb(0%,0%,0%);stop-opacity:0;"/>
</linearGradient>
<linearGradient id="linear1" gradientUnits="userSpaceOnUse" x1="254" y1="-168.66667" x2="254" y2="233.5" gradientTransform="matrix(0.062506,0,0,0.062506,0,13.438783)">
<stop offset="0" style="stop-color:rgb(74.117647%,74.117647%,74.117647%);stop-opacity:1;"/>
<stop offset="1" style="stop-color:rgb(61.960784%,61.960784%,61.960784%);stop-opacity:1;"/>
</linearGradient>
<linearGradient id="linear2" gradientUnits="userSpaceOnUse" x1="254" y1="-31.083334" x2="254" y2="95.916664" gradientTransform="matrix(0.1771,0,0,-0.1771,-29.106952,21.206021)">
<stop offset="0" style="stop-color:rgb(38.039216%,38.039216%,38.039216%);stop-opacity:1;"/>
<stop offset="1" style="stop-color:rgb(25.882353%,25.882353%,25.882353%);stop-opacity:1;"/>
</linearGradient>
<linearGradient id="linear3" gradientUnits="userSpaceOnUse" x1="254" y1="-136.91666" x2="254" y2="201.75" gradientTransform="matrix(3.779528,0,0,3.779528,-0.000000262818,812.59842)">
<stop offset="0" style="stop-color:rgb(50.588235%,78.039216%,51.764706%);stop-opacity:1;"/>
<stop offset="1" style="stop-color:rgb(49.411765%,34.117647%,76.078431%);stop-opacity:1;"/>
</linearGradient>
<linearGradient id="linear4" gradientUnits="userSpaceOnUse" x1="254" y1="-136.91666" x2="254" y2="201.75002" gradientTransform="matrix(3.779528,0,0,3.779528,0.0000150706,812.5984)">
<stop offset="0" style="stop-color:rgb(50.588235%,78.039216%,51.764706%);stop-opacity:1;"/>
<stop offset="1" style="stop-color:rgb(49.411765%,34.117647%,76.078431%);stop-opacity:1;"/>
</linearGradient>
<linearGradient id="linear5" gradientUnits="userSpaceOnUse" x1="254" y1="-136.91666" x2="254" y2="201.75" gradientTransform="matrix(3.779528,0,0,3.779528,0.0000122325,812.59841)">
<stop offset="0" style="stop-color:rgb(50.588235%,78.039216%,51.764706%);stop-opacity:1;"/>
<stop offset="1" style="stop-color:rgb(49.411765%,34.117647%,76.078431%);stop-opacity:1;"/>
</linearGradient>
<linearGradient id="linear6" gradientUnits="userSpaceOnUse" x1="254" y1="-136.91666" x2="254" y2="201.75" gradientTransform="matrix(3.779528,0,0,3.779528,0.0000114517,812.59841)">
<stop offset="0" style="stop-color:rgb(50.588235%,78.039216%,51.764706%);stop-opacity:1;"/>
<stop offset="1" style="stop-color:rgb(49.411765%,34.117647%,76.078431%);stop-opacity:1;"/>
</linearGradient>
<linearGradient id="linear7" gradientUnits="userSpaceOnUse" x1="254" y1="-136.91666" x2="254" y2="201.75" gradientTransform="matrix(3.779528,0,0,3.779528,0.00000924297,812.59841)">
<stop offset="0" style="stop-color:rgb(50.588235%,78.039216%,51.764706%);stop-opacity:1;"/>
<stop offset="1" style="stop-color:rgb(49.411765%,34.117647%,76.078431%);stop-opacity:1;"/>
</linearGradient>
<linearGradient id="linear8" gradientUnits="userSpaceOnUse" x1="254" y1="-136.91666" x2="254" y2="201.75002" gradientTransform="matrix(3.779528,0,0,3.779528,0.0000140149,812.5984)">
<stop offset="0" style="stop-color:rgb(50.588235%,78.039216%,51.764706%);stop-opacity:1;"/>
<stop offset="1" style="stop-color:rgb(49.411765%,34.117647%,76.078431%);stop-opacity:1;"/>
</linearGradient>
<linearGradient id="linear9" gradientUnits="userSpaceOnUse" x1="254" y1="-73.416664" x2="254" y2="138.25" >
<stop offset="0" style="stop-color:rgb(50.588235%,78.039216%,51.764706%);stop-opacity:1;"/>
<stop offset="1" style="stop-color:rgb(49.411765%,34.117647%,76.078431%);stop-opacity:1;"/>
</linearGradient>
</defs>
<g id="surface1">
<path style=" stroke:none;fill-rule:nonzero;fill:url(#radial0);" d="M 17.199219 28.035156 L 19.84375 28.035156 L 19.84375 26.710938 L 17.199219 26.710938 Z M 17.199219 28.035156 "/>
<path style=" stroke:none;fill-rule:nonzero;fill:url(#radial1);" d="M 14.554688 28.035156 L 11.90625 28.035156 L 11.90625 29.355469 L 14.554688 29.355469 Z M 14.554688 28.035156 "/>
<path style=" stroke:none;fill-rule:nonzero;fill:url(#radial2);" d="M 14.554688 28.035156 L 11.90625 28.035156 L 11.90625 26.710938 L 14.554688 26.710938 Z M 14.554688 28.035156 "/>
<path style=" stroke:none;fill-rule:nonzero;fill:url(#radial3);" d="M 17.199219 28.035156 L 19.84375 28.035156 L 19.84375 29.355469 L 17.199219 29.355469 Z M 17.199219 28.035156 "/>
<path style=" stroke:none;fill-rule:nonzero;fill:url(#linear0);" d="M 14.554688 27.703125 L 17.199219 27.703125 L 17.199219 29.355469 L 14.554688 29.355469 Z M 14.554688 27.703125 "/>
<path style=" stroke:none;fill-rule:nonzero;fill:url(#linear1);" d="M 15.875 2.894531 C 22.816406 2.894531 28.445312 8.523438 28.445312 15.464844 C 28.445312 22.40625 22.816406 28.035156 15.875 28.035156 C 8.933594 28.035156 3.308594 22.40625 3.308594 15.464844 C 3.308594 8.523438 8.933594 2.894531 15.875 2.894531 Z M 15.875 2.894531 "/>
<path style=" stroke:none;fill-rule:nonzero;fill:url(#linear2);" d="M 15.875 24.726562 C 21.722656 24.726562 26.460938 20.578125 26.460938 15.464844 L 26.460938 14.804688 C 26.460938 9.6875 21.722656 5.542969 15.875 5.542969 C 10.03125 5.542969 5.292969 9.6875 5.292969 14.804688 L 5.292969 15.464844 C 5.292969 20.578125 10.03125 24.726562 15.875 24.726562 Z M 15.875 24.726562 "/>
<path style=" stroke:none;fill-rule:nonzero;fill:rgb(0%,0%,0%);fill-opacity:0.196078;" d="M 15.875 27.953125 C 8.914062 27.953125 3.308594 22.34375 3.308594 15.382812 C 3.308594 15.339844 3.308594 15.300781 3.308594 15.257812 C 3.375 22.164062 8.953125 27.703125 15.875 27.703125 C 22.796875 27.703125 28.378906 22.164062 28.445312 15.257812 C 28.445312 15.300781 28.445312 15.339844 28.445312 15.382812 C 28.445312 22.34375 22.839844 27.953125 15.875 27.953125 Z M 15.875 27.953125 "/>
<path style=" stroke:none;fill-rule:nonzero;fill:rgb(100%,100%,100%);fill-opacity:0.392157;" d="M 15.875 2.980469 C 8.914062 2.980469 3.308594 8.585938 3.308594 15.546875 C 3.308594 15.589844 3.308594 15.628906 3.308594 15.671875 C 3.375 8.765625 8.953125 3.226562 15.875 3.226562 C 22.796875 3.226562 28.378906 8.765625 28.445312 15.671875 C 28.445312 15.628906 28.445312 15.589844 28.445312 15.546875 C 28.445312 8.585938 22.839844 2.980469 15.875 2.980469 Z M 15.875 2.980469 "/>
<path style="fill-rule:nonzero;fill:url(#linear3);stroke-width:11.338583;stroke-linecap:round;stroke-linejoin:miter;stroke:rgb(12.941176%,12.941176%,12.941176%);stroke-opacity:1;stroke-miterlimit:4;" d="M 429.407818 576.086726 C 360.201827 678.360425 320.048181 801.891937 320.048181 935.107564 C 320.048181 1289.640641 605.375268 1575.203926 959.908345 1575.203926 C 975.26121 1575.203926 990.377877 1574.495332 1005.258346 1573.550541 Z M 429.407818 576.086726 " transform="matrix(0.016538,0,0,0.016538,0,0)"/>
<path style="fill-rule:nonzero;fill:url(#linear4);stroke-width:11.338583;stroke-linecap:round;stroke-linejoin:miter;stroke:rgb(12.941176%,12.941176%,12.941176%);stroke-opacity:1;stroke-miterlimit:4;" d="M 959.908345 295.011202 C 605.375268 295.011202 320.048181 580.574486 320.048181 935.107564 C 320.048181 1068.323191 360.201827 1191.854703 429.407818 1294.128402 L 1005.258346 296.664587 C 990.377877 295.719795 975.26121 295.011202 959.908345 295.011202 Z M 959.908345 295.011202 " transform="matrix(0.016538,0,0,0.016538,0,0)"/>
<path style="fill-rule:nonzero;fill:url(#linear5);stroke-width:11.338583;stroke-linecap:round;stroke-linejoin:miter;stroke:rgb(12.941176%,12.941176%,12.941176%);stroke-opacity:1;stroke-miterlimit:4;" d="M 959.908345 295.011202 C 705.995582 295.011202 487.512506 441.69011 383.821619 655.213029 L 1535.995071 655.213029 C 1432.540383 441.69011 1214.057307 295.011202 959.908345 295.011202 Z M 959.908345 295.011202 " transform="matrix(0.016538,0,0,0.016538,0,0)"/>
<path style="fill-rule:nonzero;fill:url(#linear6);stroke-width:11.338583;stroke-linecap:round;stroke-linejoin:miter;stroke:rgb(12.941176%,12.941176%,12.941176%);stroke-opacity:1;stroke-miterlimit:4;" d="M 959.908345 295.011202 C 944.791679 295.011202 929.675012 295.719795 914.794543 296.664587 L 1490.645071 1294.128402 C 1559.614863 1191.854703 1600.004708 1068.323191 1600.004708 935.107564 C 1600.004708 580.574486 1314.677621 295.011202 959.908345 295.011202 Z M 959.908345 295.011202 " transform="matrix(0.016538,0,0,0.016538,0,0)"/>
<path style="fill-rule:nonzero;fill:url(#linear7);stroke-width:11.338583;stroke-linecap:round;stroke-linejoin:miter;stroke:rgb(12.941176%,12.941176%,12.941176%);stroke-opacity:1;stroke-miterlimit:4;" d="M 1490.645071 576.086726 L 959.908345 1495.132831 L 1005.258346 1573.550541 C 1338.533611 1550.403145 1600.004708 1274.523974 1600.004708 935.107564 C 1600.004708 801.891937 1559.614863 678.360425 1490.645071 576.086726 Z M 1490.645071 576.086726 " transform="matrix(0.016538,0,0,0.016538,0,0)"/>
<path style="fill-rule:nonzero;fill:url(#linear8);stroke-width:11.338583;stroke-linecap:round;stroke-linejoin:miter;stroke:rgb(12.941176%,12.941176%,12.941176%);stroke-opacity:1;stroke-miterlimit:4;" d="M 798.348968 1215.002099 L 1005.258346 1573.550541 C 1239.80288 1557.252884 1438.681529 1415.77033 1535.995071 1215.002099 Z M 798.348968 1215.002099 " transform="matrix(0.016538,0,0,0.016538,0,0)"/>
<path style="fill-rule:nonzero;fill:url(#linear9);stroke-width:3;stroke-linecap:round;stroke-linejoin:round;stroke:rgb(12.941176%,12.941176%,12.941176%);stroke-opacity:1;stroke-miterlimit:4;" d="M 253.975747 -31.080063 C 289.097393 -31.080063 317.469683 -2.645279 317.469683 32.413873 C 317.469683 67.473025 289.097393 95.90781 253.975747 95.90781 C 218.916595 95.90781 190.48181 67.473025 190.48181 32.413873 C 190.48181 -2.645279 218.916595 -31.080063 253.975747 -31.080063 Z M 253.975747 -31.080063 " transform="matrix(0.062506,0,0,0.062506,0,13.438783)"/>
<path style=" stroke:none;fill-rule:nonzero;fill:rgb(12.941176%,12.941176%,12.941176%);fill-opacity:1;" d="M 15.875 2.800781 C 8.863281 2.800781 3.214844 8.453125 3.214844 15.464844 C 3.214844 22.476562 8.863281 28.128906 15.875 28.128906 C 22.890625 28.128906 28.539062 22.476562 28.539062 15.464844 C 28.539062 8.453125 22.890625 2.800781 15.875 2.800781 Z M 15.875 2.988281 C 22.789062 2.988281 28.351562 8.550781 28.351562 15.464844 C 28.351562 22.378906 22.789062 27.941406 15.875 27.941406 C 8.964844 27.941406 3.402344 22.378906 3.402344 15.464844 C 3.402344 8.550781 8.964844 2.988281 15.875 2.988281 Z M 15.875 2.988281 "/>
<path style=" stroke:none;fill-rule:nonzero;fill:rgb(100%,100%,100%);fill-opacity:0.196078;" d="M 13.621094 13.109375 C 14.398438 12.335938 15.339844 12.019531 15.726562 12.40625 C 16.113281 12.796875 15.800781 13.738281 15.023438 14.511719 C 14.25 15.289062 13.308594 15.601562 12.917969 15.214844 C 12.53125 14.828125 12.847656 13.882812 13.621094 13.109375 Z M 13.621094 13.109375 "/>
<path style=" stroke:none;fill-rule:nonzero;fill:rgb(20.784314%,20.784314%,20.784314%);fill-opacity:0.235294;" d="M 15.875 4.878906 C 10.011719 4.878906 5.292969 9.601562 5.292969 15.464844 C 5.292969 15.542969 5.292969 15.625 5.292969 15.703125 C 5.421875 9.949219 10.09375 5.355469 15.875 5.355469 C 21.660156 5.355469 26.332031 9.949219 26.457031 15.703125 C 26.460938 15.625 26.460938 15.542969 26.460938 15.464844 C 26.460938 9.601562 21.742188 4.878906 15.875 4.878906 Z M 15.875 4.878906 "/>
<path style=" stroke:none;fill-rule:nonzero;fill:rgb(100%,100%,100%);fill-opacity:0.392157;" d="M 15.875 26.546875 C 10.011719 26.546875 5.292969 21.824219 5.292969 15.960938 C 5.292969 15.882812 5.292969 15.804688 5.292969 15.722656 C 5.421875 21.476562 10.09375 26.070312 15.875 26.070312 C 21.660156 26.070312 26.332031 21.476562 26.457031 15.722656 C 26.460938 15.804688 26.460938 15.882812 26.460938 15.960938 C 26.460938 21.824219 21.742188 26.546875 15.875 26.546875 Z M 15.875 26.546875 "/>
<path style="fill:none;stroke-width:3;stroke-linecap:round;stroke-linejoin:miter;stroke:rgb(12.941176%,12.941176%,12.941176%);stroke-opacity:1;stroke-miterlimit:4;" d="M 253.975747 -136.944954 C 347.529313 -136.944954 423.334574 -61.077199 423.334574 32.413873 C 423.334574 125.967439 347.529313 201.7727 253.975747 201.7727 C 160.484674 201.7727 84.679414 125.967439 84.679414 32.413873 C 84.679414 -61.077199 160.484674 -136.944954 253.975747 -136.944954 Z M 253.975747 -136.944954 " transform="matrix(0.062506,0,0,0.062506,0,13.438783)"/>
</g>
</svg>
