<?xml version="1.0" encoding="UTF-8"?>
<svg xmlns="http://www.w3.org/2000/svg" xmlns:xlink="http://www.w3.org/1999/xlink" width="32pt" height="32pt" viewBox="0 0 32 32" version="1.1">
<defs>
<linearGradient id="linear0" gradientUnits="userSpaceOnUse" x1="254" y1="233.5" x2="254" y2="254.666672" gradientTransform="matrix(0.062506,0,0,0.062506,-0.00000381506,12.875268)">
<stop offset="0" style="stop-color:rgb(0%,0%,0%);stop-opacity:0.27451;"/>
<stop offset="1" style="stop-color:rgb(0%,0%,0%);stop-opacity:0;"/>
</linearGradient>
<radialGradient id="radial0" gradientUnits="userSpaceOnUse" cx="450.908936" cy="189.579361" fx="450.908936" fy="189.579361" r="21.166656" gradientTransform="matrix(0.00000017417,-0.0781325,-0.140638,-0.000000101539,51.469126,63.031816)">
<stop offset="0" style="stop-color:rgb(0%,0%,0%);stop-opacity:0.313725;"/>
<stop offset="0.222222" style="stop-color:rgb(0%,0%,0%);stop-opacity:0.27451;"/>
<stop offset="1" style="stop-color:rgb(0%,0%,0%);stop-opacity:0;"/>
</radialGradient>
<radialGradient id="radial1" gradientUnits="userSpaceOnUse" cx="450.908936" cy="189.579361" fx="450.908936" fy="189.579361" r="21.166656" gradientTransform="matrix(-0.00000017417,0.0781325,0.140638,0.000000101539,-19.716097,-8.090996)">
<stop offset="0" style="stop-color:rgb(0%,0%,0%);stop-opacity:0.313725;"/>
<stop offset="0.222222" style="stop-color:rgb(0%,0%,0%);stop-opacity:0.27451;"/>
<stop offset="1" style="stop-color:rgb(0%,0%,0%);stop-opacity:0;"/>
</radialGradient>
<radialGradient id="radial2" gradientUnits="userSpaceOnUse" cx="450.908936" cy="189.579361" fx="450.908936" fy="189.579361" r="21.166656" gradientTransform="matrix(-0.00000017417,-0.0781325,0.140638,-0.000000101539,-19.716097,63.031816)">
<stop offset="0" style="stop-color:rgb(0%,0%,0%);stop-opacity:0.313725;"/>
<stop offset="0.222222" style="stop-color:rgb(0%,0%,0%);stop-opacity:0.27451;"/>
<stop offset="1" style="stop-color:rgb(0%,0%,0%);stop-opacity:0;"/>
</radialGradient>
<radialGradient id="radial3" gradientUnits="userSpaceOnUse" cx="450.908936" cy="189.579361" fx="450.908936" fy="189.579361" r="21.166656" gradientTransform="matrix(0.00000017417,0.0781325,-0.140638,0.000000101539,51.469124,-8.090996)">
<stop offset="0" style="stop-color:rgb(0%,0%,0%);stop-opacity:0.313725;"/>
<stop offset="0.222222" style="stop-color:rgb(0%,0%,0%);stop-opacity:0.27451;"/>
<stop offset="1" style="stop-color:rgb(0%,0%,0%);stop-opacity:0;"/>
</radialGradient>
<linearGradient id="linear1" gradientUnits="userSpaceOnUse" x1="370.416687" y1="-158.083572" x2="370.416687" y2="222.916428" gradientTransform="matrix(0.062506,0,0,-0.062506,-14.553474,17.491238)">
<stop offset="0" style="stop-color:rgb(87.843137%,87.843137%,87.843137%);stop-opacity:1;"/>
<stop offset="1" style="stop-color:rgb(93.333333%,93.333333%,93.333333%);stop-opacity:1;"/>
</linearGradient>
<linearGradient id="linear2" gradientUnits="userSpaceOnUse" x1="391.583344" y1="-158.083572" x2="381" y2="222.916428" gradientTransform="matrix(1,0,0,-1,-0.0000117529,64.833092)">
<stop offset="0" style="stop-color:rgb(87.843137%,87.843137%,87.843137%);stop-opacity:1;"/>
<stop offset="1" style="stop-color:rgb(93.333333%,93.333333%,93.333333%);stop-opacity:1;"/>
</linearGradient>
<linearGradient id="linear3" gradientUnits="userSpaceOnUse" x1="254.000015" y1="95.916664" x2="254" y2="-158.083328" gradientTransform="matrix(0.062506,0,0,0.062506,-0.000000844197,13.438783)">
<stop offset="0" style="stop-color:rgb(25.882353%,64.705882%,96.078431%);stop-opacity:1;"/>
<stop offset="1" style="stop-color:rgb(39.215686%,70.980392%,96.470588%);stop-opacity:1;"/>
</linearGradient>
<linearGradient id="linear4" gradientUnits="userSpaceOnUse" x1="381" y1="95.916679" x2="381" y2="-158.083328" gradientTransform="matrix(0.062506,0,0,0.062506,-14.553472,13.438782)">
<stop offset="0" style="stop-color:rgb(25.882353%,64.705882%,96.078431%);stop-opacity:1;"/>
<stop offset="1" style="stop-color:rgb(39.215686%,70.980392%,96.470588%);stop-opacity:1;"/>
</linearGradient>
<linearGradient id="linear5" gradientUnits="userSpaceOnUse" x1="386.291656" y1="32.416668" x2="381" y2="-158.083328" gradientTransform="matrix(0.062506,0,0,0.062506,-0.000000734628,13.438782)">
<stop offset="0" style="stop-color:rgb(87.843137%,87.843137%,87.843137%);stop-opacity:1;"/>
<stop offset="1" style="stop-color:rgb(93.333333%,93.333333%,93.333333%);stop-opacity:1;"/>
</linearGradient>
<linearGradient id="linear6" gradientUnits="userSpaceOnUse" x1="254.000015" y1="-94.583336" x2="254.000015" y2="-475.583344" gradientTransform="matrix(0.062506,0,0,0.062506,-0.000000844197,33.284428)">
<stop offset="0" style="stop-color:rgb(87.843137%,87.843137%,87.843137%);stop-opacity:1;"/>
<stop offset="1" style="stop-color:rgb(93.333333%,93.333333%,93.333333%);stop-opacity:1;"/>
</linearGradient>
<linearGradient id="linear7" gradientUnits="userSpaceOnUse" x1="254" y1="32.416668" x2="254.000015" y2="-221.583328" gradientTransform="matrix(0.062506,0,0,0.062506,-0.000000844197,17.407912)">
<stop offset="0" style="stop-color:rgb(25.882353%,64.705882%,96.078431%);stop-opacity:1;"/>
<stop offset="1" style="stop-color:rgb(39.215686%,70.980392%,96.470588%);stop-opacity:1;"/>
</linearGradient>
<linearGradient id="linear8" gradientUnits="userSpaceOnUse" x1="254.000015" y1="-31.083334" x2="254.000015" y2="-412.083344" gradientTransform="matrix(0.062506,0,0,0.062506,-7.938258,29.315299)">
<stop offset="0" style="stop-color:rgb(87.843137%,87.843137%,87.843137%);stop-opacity:1;"/>
<stop offset="1" style="stop-color:rgb(93.333333%,93.333333%,93.333333%);stop-opacity:1;"/>
</linearGradient>
<linearGradient id="linear9" gradientUnits="userSpaceOnUse" x1="254" y1="-31.083334" x2="254" y2="-412.083344" gradientTransform="matrix(0.062506,0,0,0.062506,-0.00000062506,29.315299)">
<stop offset="0" style="stop-color:rgb(87.843137%,87.843137%,87.843137%);stop-opacity:1;"/>
<stop offset="1" style="stop-color:rgb(93.333333%,93.333333%,93.333333%);stop-opacity:1;"/>
</linearGradient>
<linearGradient id="linear10" gradientUnits="userSpaceOnUse" x1="254.000015" y1="-31.083334" x2="254.000015" y2="-412.083344" gradientTransform="matrix(0.062506,0,0,0.062506,7.938258,29.315299)">
<stop offset="0" style="stop-color:rgb(87.843137%,87.843137%,87.843137%);stop-opacity:1;"/>
<stop offset="1" style="stop-color:rgb(93.333333%,93.333333%,93.333333%);stop-opacity:1;"/>
</linearGradient>
<linearGradient id="linear11" gradientUnits="userSpaceOnUse" x1="254.000015" y1="-94.583336" x2="254.000015" y2="-348.583344" gradientTransform="matrix(0.062506,0,0,0.062506,-7.938258,25.34617)">
<stop offset="0" style="stop-color:rgb(25.882353%,64.705882%,96.078431%);stop-opacity:1;"/>
<stop offset="1" style="stop-color:rgb(39.215686%,70.980392%,96.470588%);stop-opacity:1;"/>
</linearGradient>
<linearGradient id="linear12" gradientUnits="userSpaceOnUse" x1="254" y1="32.416668" x2="254" y2="-348.583344" gradientTransform="matrix(0.062506,0,0,0.062506,-0.00000062506,25.34617)">
<stop offset="0" style="stop-color:rgb(87.843137%,87.843137%,87.843137%);stop-opacity:1;"/>
<stop offset="1" style="stop-color:rgb(93.333333%,93.333333%,93.333333%);stop-opacity:1;"/>
</linearGradient>
<linearGradient id="linear13" gradientUnits="userSpaceOnUse" x1="254" y1="32.416668" x2="254.000015" y2="-348.583344" gradientTransform="matrix(0.062506,0,0,0.062506,7.938258,25.34617)">
<stop offset="0" style="stop-color:rgb(87.843137%,87.843137%,87.843137%);stop-opacity:1;"/>
<stop offset="1" style="stop-color:rgb(93.333333%,93.333333%,93.333333%);stop-opacity:1;"/>
</linearGradient>
<linearGradient id="linear14" gradientUnits="userSpaceOnUse" x1="254.000015" y1="-31.083323" x2="254.000015" y2="-285.083313" gradientTransform="matrix(0.062506,0,0,0.062506,-7.938258,21.377041)">
<stop offset="0" style="stop-color:rgb(25.882353%,64.705882%,96.078431%);stop-opacity:1;"/>
<stop offset="1" style="stop-color:rgb(39.215686%,70.980392%,96.470588%);stop-opacity:1;"/>
</linearGradient>
<linearGradient id="linear15" gradientUnits="userSpaceOnUse" x1="254" y1="-31.083323" x2="254" y2="-285.083313" gradientTransform="matrix(0.062506,0,0,0.062506,-0.00000062506,21.377041)">
<stop offset="0" style="stop-color:rgb(25.882353%,64.705882%,96.078431%);stop-opacity:1;"/>
<stop offset="1" style="stop-color:rgb(39.215686%,70.980392%,96.470588%);stop-opacity:1;"/>
</linearGradient>
<linearGradient id="linear16" gradientUnits="userSpaceOnUse" x1="254.000015" y1="95.916679" x2="254.000015" y2="-285.083313" gradientTransform="matrix(0.062506,0,0,0.062506,7.938258,21.377041)">
<stop offset="0" style="stop-color:rgb(87.843137%,87.843137%,87.843137%);stop-opacity:1;"/>
<stop offset="1" style="stop-color:rgb(93.333333%,93.333333%,93.333333%);stop-opacity:1;"/>
</linearGradient>
<linearGradient id="linear17" gradientUnits="userSpaceOnUse" x1="254.000015" y1="159.416672" x2="254.000015" y2="-221.583328" gradientTransform="matrix(0.062506,0,0,0.062506,7.938258,17.407912)">
<stop offset="0" style="stop-color:rgb(87.843137%,87.843137%,87.843137%);stop-opacity:1;"/>
<stop offset="1" style="stop-color:rgb(93.333333%,93.333333%,93.333333%);stop-opacity:1;"/>
</linearGradient>
<linearGradient id="linear18" gradientUnits="userSpaceOnUse" x1="254.000015" y1="32.416672" x2="254.000015" y2="-221.583328" gradientTransform="matrix(0.062506,0,0,0.062506,-7.938258,17.407912)">
<stop offset="0" style="stop-color:rgb(25.882353%,64.705882%,96.078431%);stop-opacity:1;"/>
<stop offset="1" style="stop-color:rgb(39.215686%,70.980392%,96.470588%);stop-opacity:1;"/>
</linearGradient>
</defs>
<g id="surface1">
<path style=" stroke:none;fill-rule:nonzero;fill:url(#linear0);" d="M 6.613281 27.421875 L 25.136719 27.421875 L 25.136719 28.84375 L 6.613281 28.84375 Z M 6.613281 27.421875 "/>
<path style=" stroke:none;fill-rule:nonzero;fill:url(#radial0);" d="M 25.136719 27.46875 L 27.785156 27.46875 L 27.785156 26.148438 L 25.136719 26.148438 Z M 25.136719 27.46875 "/>
<path style=" stroke:none;fill-rule:nonzero;fill:url(#radial1);" d="M 6.613281 27.46875 L 3.96875 27.46875 L 3.96875 28.792969 L 6.613281 28.792969 Z M 6.613281 27.46875 "/>
<path style=" stroke:none;fill-rule:nonzero;fill:url(#radial2);" d="M 6.613281 27.46875 L 3.96875 27.46875 L 3.96875 26.148438 L 6.613281 26.148438 Z M 6.613281 27.46875 "/>
<path style=" stroke:none;fill-rule:nonzero;fill:url(#radial3);" d="M 25.136719 27.46875 L 27.785156 27.46875 L 27.785156 28.792969 L 25.136719 28.792969 Z M 25.136719 27.46875 "/>
<path style=" stroke:none;fill-rule:nonzero;fill:url(#linear1);" d="M 5.292969 27.371094 C 4.558594 27.371094 3.96875 26.78125 3.96875 26.050781 L 3.96875 23.402344 L 11.90625 23.402344 L 11.90625 27.371094 Z M 5.292969 27.371094 "/>
<path style="fill-rule:nonzero;fill:url(#linear2);stroke-width:3;stroke-linecap:round;stroke-linejoin:miter;stroke:rgb(12.941177%,12.941177%,12.941177%);stroke-opacity:1;stroke-miterlimit:4;" d="M 317.469683 222.895683 L 317.469683 159.401746 L 444.52005 159.401746 L 444.52005 201.7727 C 444.52005 213.459084 435.083452 222.895683 423.334574 222.895683 Z M 317.469683 222.895683 " transform="matrix(0.062506,0,0,0.062506,0,13.438783)"/>
<path style=" stroke:none;fill-rule:nonzero;fill:url(#linear3);" d="M 11.90625 3.558594 L 19.84375 3.558594 L 19.84375 7.527344 L 11.90625 7.527344 Z M 11.90625 3.558594 "/>
<path style=" stroke:none;fill-rule:nonzero;fill:url(#linear4);" d="M 5.292969 3.558594 C 4.558594 3.558594 3.96875 4.148438 3.96875 4.878906 L 3.96875 7.527344 L 11.90625 7.527344 L 11.90625 3.558594 Z M 5.292969 3.558594 "/>
<path style=" stroke:none;fill-rule:nonzero;fill:url(#linear5);" d="M 19.84375 3.558594 L 19.84375 7.527344 L 27.785156 7.527344 L 27.785156 4.878906 C 27.785156 4.148438 27.195312 3.558594 26.460938 3.558594 Z M 19.84375 3.558594 "/>
<path style=" stroke:none;fill-rule:nonzero;fill:rgb(100%,100%,100%);fill-opacity:0.784314;" d="M 5.292969 3.558594 C 4.558594 3.558594 3.96875 4.148438 3.96875 4.878906 L 3.96875 5.0625 C 3.96875 4.328125 4.558594 3.738281 5.292969 3.738281 L 26.460938 3.738281 C 27.195312 3.738281 27.785156 4.328125 27.785156 5.0625 L 27.785156 4.878906 C 27.785156 4.148438 27.195312 3.558594 26.460938 3.558594 Z M 5.292969 3.558594 "/>
<path style=" stroke:none;fill-rule:nonzero;fill:url(#linear6);" d="M 11.90625 23.402344 L 19.84375 23.402344 L 19.84375 27.371094 L 11.90625 27.371094 Z M 11.90625 23.402344 "/>
<path style=" stroke:none;fill-rule:nonzero;fill:rgb(0%,0%,0%);fill-opacity:0.235294;" d="M 5.292969 27.386719 C 4.558594 27.386719 3.96875 26.796875 3.96875 26.0625 L 3.96875 25.882812 C 3.96875 26.617188 4.558594 27.207031 5.292969 27.207031 L 26.460938 27.207031 C 27.195312 27.207031 27.785156 26.617188 27.785156 25.882812 L 27.785156 26.0625 C 27.785156 26.796875 27.195312 27.386719 26.460938 27.386719 Z M 5.292969 27.386719 "/>
<path style=" stroke:none;fill-rule:nonzero;fill:rgb(12.941177%,12.941177%,12.941177%);fill-opacity:1;" d="M 5.292969 3.464844 C 4.507812 3.464844 3.875 4.097656 3.875 4.878906 L 3.875 26.050781 C 3.875 26.832031 4.507812 27.464844 5.292969 27.464844 L 26.460938 27.464844 C 27.246094 27.464844 27.878906 26.832031 27.878906 26.050781 L 27.878906 4.878906 C 27.878906 4.097656 27.246094 3.464844 26.460938 3.464844 Z M 5.292969 3.652344 L 26.460938 3.652344 C 27.144531 3.652344 27.691406 4.199219 27.691406 4.878906 L 27.691406 26.050781 C 27.691406 26.730469 27.144531 27.277344 26.460938 27.277344 L 5.292969 27.277344 C 4.609375 27.277344 4.0625 26.730469 4.0625 26.050781 L 4.0625 4.878906 C 4.0625 4.199219 4.609375 3.652344 5.292969 3.652344 Z M 5.292969 3.652344 "/>
<path style=" stroke:none;fill-rule:nonzero;fill:url(#linear7);" d="M 11.90625 7.527344 L 19.84375 7.527344 L 19.84375 11.496094 L 11.90625 11.496094 Z M 11.90625 7.527344 "/>
<path style=" stroke:none;fill-rule:nonzero;fill:url(#linear8);" d="M 3.96875 19.433594 L 11.90625 19.433594 L 11.90625 23.402344 L 3.96875 23.402344 Z M 3.96875 19.433594 "/>
<path style=" stroke:none;fill-rule:nonzero;fill:url(#linear9);" d="M 11.90625 19.433594 L 19.84375 19.433594 L 19.84375 23.402344 L 11.90625 23.402344 Z M 11.90625 19.433594 "/>
<path style=" stroke:none;fill-rule:nonzero;fill:url(#linear10);" d="M 19.84375 19.433594 L 27.785156 19.433594 L 27.785156 23.402344 L 19.84375 23.402344 Z M 19.84375 19.433594 "/>
<path style=" stroke:none;fill-rule:nonzero;fill:url(#linear11);" d="M 3.96875 15.464844 L 11.90625 15.464844 L 11.90625 19.433594 L 3.96875 19.433594 Z M 3.96875 15.464844 "/>
<path style=" stroke:none;fill-rule:nonzero;fill:url(#linear12);" d="M 11.90625 15.464844 L 19.84375 15.464844 L 19.84375 19.433594 L 11.90625 19.433594 Z M 11.90625 15.464844 "/>
<path style=" stroke:none;fill-rule:nonzero;fill:url(#linear13);" d="M 19.84375 15.464844 L 27.785156 15.464844 L 27.785156 19.433594 L 19.84375 19.433594 Z M 19.84375 15.464844 "/>
<path style=" stroke:none;fill-rule:nonzero;fill:url(#linear14);" d="M 3.96875 11.496094 L 11.90625 11.496094 L 11.90625 15.464844 L 3.96875 15.464844 Z M 3.96875 11.496094 "/>
<path style=" stroke:none;fill-rule:nonzero;fill:url(#linear15);" d="M 11.90625 11.496094 L 19.84375 11.496094 L 19.84375 15.464844 L 11.90625 15.464844 Z M 11.90625 11.496094 "/>
<path style=" stroke:none;fill-rule:nonzero;fill:url(#linear16);" d="M 19.84375 11.496094 L 27.785156 11.496094 L 27.785156 15.464844 L 19.84375 15.464844 Z M 19.84375 11.496094 "/>
<path style=" stroke:none;fill-rule:nonzero;fill:url(#linear17);" d="M 19.84375 7.527344 L 27.785156 7.527344 L 27.785156 11.496094 L 19.84375 11.496094 Z M 19.84375 7.527344 "/>
<path style=" stroke:none;fill-rule:nonzero;fill:url(#linear18);" d="M 3.96875 7.527344 L 11.90625 7.527344 L 11.90625 11.496094 L 3.96875 11.496094 Z M 3.96875 7.527344 "/>
<path style=" stroke:none;fill-rule:nonzero;fill:rgb(12.941177%,12.941177%,12.941177%);fill-opacity:1;" d="M 5.292969 3.464844 C 4.507812 3.464844 3.875 4.097656 3.875 4.878906 L 3.875 26.050781 C 3.875 26.832031 4.507812 27.464844 5.292969 27.464844 L 19.9375 27.464844 L 19.9375 23.496094 L 27.878906 23.496094 L 27.878906 4.878906 C 27.878906 4.097656 27.246094 3.464844 26.460938 3.464844 Z M 12 3.652344 L 19.75 3.652344 L 19.75 7.433594 L 12 7.433594 Z M 5.292969 3.652344 L 11.8125 3.652344 L 11.8125 7.433594 L 4.0625 7.433594 L 4.0625 4.878906 C 4.0625 4.199219 4.609375 3.652344 5.292969 3.652344 Z M 19.9375 3.652344 L 26.460938 3.652344 C 27.144531 3.652344 27.691406 4.199219 27.691406 4.878906 L 27.691406 7.433594 L 19.9375 7.433594 Z M 12 7.621094 L 19.75 7.621094 L 19.75 11.402344 L 12 11.402344 Z M 4.0625 7.621094 L 11.8125 7.621094 L 11.8125 11.402344 L 4.0625 11.402344 Z M 19.9375 7.621094 L 27.691406 7.621094 L 27.691406 11.402344 L 19.9375 11.402344 Z M 4.0625 11.589844 L 11.8125 11.589844 L 11.8125 15.371094 L 4.0625 15.371094 Z M 12 11.589844 L 19.75 11.589844 L 19.75 15.371094 L 12 15.371094 Z M 19.9375 11.589844 L 27.691406 11.589844 L 27.691406 15.371094 L 19.9375 15.371094 Z M 4.0625 15.558594 L 11.8125 15.558594 L 11.8125 19.339844 L 4.0625 19.339844 Z M 12 15.558594 L 19.75 15.558594 L 19.75 19.339844 L 12 19.339844 Z M 19.9375 15.558594 L 27.691406 15.558594 L 27.691406 19.339844 L 19.9375 19.339844 Z M 4.0625 19.527344 L 11.8125 19.527344 L 11.8125 23.308594 L 4.0625 23.308594 Z M 12 19.527344 L 19.75 19.527344 L 19.75 23.308594 L 12 23.308594 Z M 19.9375 19.527344 L 27.691406 19.527344 L 27.691406 23.308594 L 19.9375 23.308594 Z M 4.0625 23.496094 L 11.8125 23.496094 L 11.8125 27.277344 L 5.292969 27.277344 C 4.609375 27.277344 4.0625 26.730469 4.0625 26.050781 Z M 12 23.496094 L 19.75 23.496094 L 19.75 27.277344 L 12 27.277344 Z M 12 23.496094 "/>
</g>
</svg>
