<svg xmlns="http://www.w3.org/2000/svg" width="32pt" height="32pt" viewBox="0 0 32 32"><defs><linearGradient id="a" gradientUnits="userSpaceOnUse" x1="254" y1="233.5" x2="254" y2="254.667" gradientTransform="matrix(.0625 0 0 .0625 -12.238 13.439)"><stop offset="0" stop-opacity=".275"/><stop offset="1" stop-opacity="0"/></linearGradient><radialGradient id="b" gradientUnits="userSpaceOnUse" cx="450.909" cy="189.579" fx="450.909" fy="189.579" r="21.167" gradientTransform="matrix(0 -.07813 -.14064 0 39.231 63.595)"><stop offset="0" stop-opacity=".314"/><stop offset=".222" stop-opacity=".275"/><stop offset="1" stop-opacity="0"/></radialGradient><radialGradient id="c" gradientUnits="userSpaceOnUse" cx="450.909" cy="189.579" fx="450.909" fy="189.579" r="21.167" gradientTransform="matrix(0 .07813 .14064 0 -14.093 -7.527)"><stop offset="0" stop-opacity=".314"/><stop offset=".222" stop-opacity=".275"/><stop offset="1" stop-opacity="0"/></radialGradient><radialGradient id="d" gradientUnits="userSpaceOnUse" cx="450.909" cy="189.579" fx="450.909" fy="189.579" r="21.167" gradientTransform="matrix(0 -.07813 .14064 0 -14.093 63.595)"><stop offset="0" stop-opacity=".314"/><stop offset=".222" stop-opacity=".275"/><stop offset="1" stop-opacity="0"/></radialGradient><radialGradient id="e" gradientUnits="userSpaceOnUse" cx="450.909" cy="189.579" fx="450.909" fy="189.579" r="21.167" gradientTransform="matrix(0 .07813 -.14064 0 39.231 -7.527)"><stop offset="0" stop-opacity=".314"/><stop offset=".222" stop-opacity=".275"/><stop offset="1" stop-opacity="0"/></radialGradient><linearGradient id="f" gradientUnits="userSpaceOnUse" x1="225.095" y1="-240.914" x2="81.977" y2="-279.262" gradientTransform="scale(.0625) rotate(75 -173.06 127.223)"><stop offset="0" stop-color="#ef5350"/><stop offset="1" stop-color="#e57373"/></linearGradient><linearGradient id="g" gradientUnits="userSpaceOnUse" x1="338.396" y1="229.302" x2="418.566" y2="-110.787" gradientTransform="scale(.0625) rotate(-15 990.3 151.169)"><stop offset="0" stop-color="#ffa726"/><stop offset="1" stop-color="#ffb74d"/></linearGradient><linearGradient id="h" gradientUnits="userSpaceOnUse" x1="24.651" y1="-228.882" x2="-108.244" y2="-264.492" gradientTransform="scale(.0625) rotate(75 -173.06 127.223)"><stop offset="0" stop-color="#42a5f5"/><stop offset="1" stop-color="#64b5f6"/></linearGradient><linearGradient id="i" gradientUnits="userSpaceOnUse" x1="560" y1="855.118" x2="520" y2="335.118" gradientTransform="matrix(.01654 0 0 .01654 -.01 -.014)"><stop offset="0" stop-color="#42a5f5"/><stop offset="1" stop-color="#64b5f6"/></linearGradient><linearGradient id="j" gradientUnits="userSpaceOnUse" x1="740.555" y1="282.277" x2="741.11" y2="281.805" gradientTransform="scale(.0625) rotate(-15 990.3 151.169)"><stop offset="0" stop-color="#66bb6a"/><stop offset="1" stop-color="#81c784"/></linearGradient><linearGradient id="k" gradientUnits="userSpaceOnUse" x1="24.651" y1="-228.882" x2="-108.244" y2="-264.492" gradientTransform="scale(.0625) rotate(75 -173.06 127.223)"><stop offset="0" stop-color="#42a5f5"/><stop offset="1" stop-color="#64b5f6"/></linearGradient><linearGradient id="l" gradientUnits="userSpaceOnUse" x1="338.396" y1="229.302" x2="418.566" y2="-110.787" gradientTransform="scale(.0625) rotate(-15 990.3 151.169)"><stop offset="0" stop-color="#ffa726"/><stop offset="1" stop-color="#ffb74d"/></linearGradient><linearGradient id="m" gradientUnits="userSpaceOnUse" x1="225.095" y1="-240.914" x2="81.977" y2="-279.262" gradientTransform="scale(.0625) rotate(75 -173.06 127.223)"><stop offset="0" stop-color="#ef5350"/><stop offset="1" stop-color="#e57373"/></linearGradient></defs><path d="M12.238 27.938h.66v1.468h-.66zm0 0" fill="url(#a)"/><path d="M12.898 28.035h2.649v-1.324h-2.649zm0 0" fill="url(#b)"/><path d="M12.238 28.035H9.594v1.32h2.644zm0 0" fill="url(#c)"/><path d="M12.238 28.035H9.594v-1.324h2.644zm0 0" fill="url(#d)"/><path d="M12.898 28.035h2.649v1.32h-2.649zm0 0" fill="url(#e)"/><path d="M28.27 18.309a1.98 1.98 0 0 1-1.403 2.43l-17.89 4.796a1.992 1.992 0 0 1-2.434-1.406 1.988 1.988 0 0 1 1.406-2.43l17.89-4.793a1.983 1.983 0 0 1 2.43 1.403zm0 0" fill="url(#f)"/><path d="M18.707 3.066a1.983 1.983 0 0 1 2.43 1.403l4.793 17.89a1.98 1.98 0 0 1-1.403 2.43 1.98 1.98 0 0 1-2.43-1.402l-4.792-17.89a1.98 1.98 0 0 1 1.402-2.43zm0 0" fill="url(#g)"/><path d="M25.188 6.809a1.983 1.983 0 0 1-1.403 2.43L5.895 14.03A1.987 1.987 0 0 1 3.46 12.63a1.986 1.986 0 0 1 1.406-2.43l17.89-4.797a1.988 1.988 0 0 1 2.43 1.407zm0 0" fill="url(#h)"/><path d="M19.203 2.996a1.975 1.975 0 0 0-.496.07 1.977 1.977 0 0 0-1.457 2.16 1.976 1.976 0 0 1 1.457-1.663 1.978 1.978 0 0 1 2.43 1.402l4.793 17.89c.023.09.043.18.054.27a1.973 1.973 0 0 0-.054-.766L21.137 4.47a1.984 1.984 0 0 0-1.934-1.473zm0 0" fill="#fff" fill-opacity=".392"/><path d="M9.977 8.828L6.145 9.855l1.027 3.836 3.832-1.027zm0 0" fill="url(#i)"/><path d="M17.246 4.766c-.027.238-.008.484.059.73l4.793 17.89a1.978 1.978 0 0 0 2.43 1.403 1.981 1.981 0 0 0 1.46-2.125 1.981 1.981 0 0 1-1.46 1.7 1.978 1.978 0 0 1-2.43-1.403L17.305 5.07a2.094 2.094 0 0 1-.059-.305zm0 0" fill-opacity=".235"/><path d="M26.375 16.836h-.04a1.975 1.975 0 0 0-.495.07L7.95 21.7a1.98 1.98 0 0 0-1.47 2.047 1.977 1.977 0 0 1 1.47-1.777l17.89-4.797a1.976 1.976 0 0 1 2.492 1.79 1.96 1.96 0 0 0-.062-.653 1.977 1.977 0 0 0-1.895-1.473zm0 0" fill="#fff" fill-opacity=".392"/><path d="M28.36 18.285a2.071 2.071 0 0 0-2.544-1.469L7.922 21.61a2.077 2.077 0 0 0-1.469 2.547A2.077 2.077 0 0 0 9 25.625l17.89-4.793a2.08 2.08 0 0 0 1.47-2.547zm-.18.047a1.886 1.886 0 0 1-1.336 2.316L8.949 25.441a1.877 1.877 0 0 1-2.312-1.336 1.883 1.883 0 0 1 1.336-2.316l17.89-4.793a1.89 1.89 0 0 1 2.317 1.336zm0 0" fill="#212121"/><path d="M28.332 18.672a1.974 1.974 0 0 1-1.465 1.758l-17.89 4.793a1.982 1.982 0 0 1-2.497-1.766 1.987 1.987 0 0 0 2.496 2.078l17.891-4.797a1.974 1.974 0 0 0 1.465-2.066zm0 0" fill-opacity=".235"/><path d="M26.375 16.836h-.04a1.975 1.975 0 0 0-.495.07L7.95 21.7a1.98 1.98 0 0 0-1.47 2.047 1.977 1.977 0 0 1 1.47-1.777l17.89-4.797a1.976 1.976 0 0 1 2.492 1.79 1.96 1.96 0 0 0-.062-.653 1.977 1.977 0 0 0-1.895-1.473zm0 0" fill="#fff" fill-opacity=".392"/><path d="M28.36 18.285a2.071 2.071 0 0 0-2.544-1.469L7.922 21.61a2.077 2.077 0 0 0-1.469 2.547A2.077 2.077 0 0 0 9 25.625l17.89-4.793a2.08 2.08 0 0 0 1.47-2.547zm-.18.047a1.886 1.886 0 0 1-1.336 2.316L8.949 25.441a1.877 1.877 0 0 1-2.312-1.336 1.883 1.883 0 0 1 1.336-2.316l17.89-4.793a1.89 1.89 0 0 1 2.317 1.336zm0 0" fill="#212121"/><path d="M7.203 6.148a1.987 1.987 0 0 1 2.434 1.403l4.793 17.89a1.987 1.987 0 0 1-3.836 1.027L5.8 8.579a1.98 1.98 0 0 1 1.402-2.43zm0 0" fill="url(#j)"/><path d="M7.691 6.121h-.043c-.164 0-.328.024-.496.07a1.972 1.972 0 0 0-1.46 2.11 1.976 1.976 0 0 1 1.46-1.715 1.981 1.981 0 0 1 2.43 1.402l2.078 7.754.102-.023-2.18-8.125a1.976 1.976 0 0 0-1.89-1.473zm0 0" fill="#fff" fill-opacity=".235"/><path d="M5.617 7.879c-.027.238-.008.488.059.734l4.793 17.89a1.978 1.978 0 0 0 2.43 1.403 1.978 1.978 0 0 0 1.46-2.125 1.981 1.981 0 0 1-1.46 1.7 1.978 1.978 0 0 1-2.43-1.403L5.676 8.184a2.094 2.094 0 0 1-.059-.305zm0 0" fill-opacity=".235"/><path d="M7.094 6.078A2.08 2.08 0 0 0 5.62 8.625l4.797 17.89a2.074 2.074 0 0 0 2.543 1.473 2.074 2.074 0 0 0 1.469-2.547L9.637 7.551a2.074 2.074 0 0 0-2.543-1.473zm.047.184a1.886 1.886 0 0 1 2.316 1.336l4.793 17.89a1.883 1.883 0 0 1-1.336 2.317 1.883 1.883 0 0 1-2.316-1.336L5.805 8.579A1.883 1.883 0 0 1 7.14 6.261zm0 0" fill="#212121"/><path d="M4.867 10.2a1.983 1.983 0 1 0 1.028 3.831l8.953-2.398-1.028-3.836zm0 0" fill="url(#k)"/><path d="M25.23 7.098a1.982 1.982 0 0 1-1.464 1.757L5.875 13.648a1.982 1.982 0 0 1-2.496-1.765 1.982 1.982 0 0 0 2.496 2.074l17.89-4.793a1.98 1.98 0 0 0 1.465-2.066zm0 0" fill-opacity=".235"/><path d="M23.273 5.262h-.039c-.164 0-.332.023-.496.066l-17.89 4.797a1.977 1.977 0 0 0-1.47 2.047 1.982 1.982 0 0 1 1.47-1.781l17.89-4.793a1.976 1.976 0 0 1 2.492 1.79 1.98 1.98 0 0 0-1.957-2.125zm0 0" fill="#fff" fill-opacity=".392"/><path d="M25.258 6.71a2.074 2.074 0 0 0-2.543-1.472L4.82 10.035a2.075 2.075 0 0 0-1.468 2.543 2.074 2.074 0 0 0 2.546 1.469L23.79 9.254a2.075 2.075 0 0 0 1.469-2.543zm-.18.048a1.89 1.89 0 0 1-1.336 2.316L5.848 13.867a1.886 1.886 0 0 1-2.317-1.336 1.885 1.885 0 0 1 1.34-2.316l17.89-4.793a1.886 1.886 0 0 1 2.317 1.336zm0 0" fill="#212121"/><path d="M19.203 2.996a1.975 1.975 0 0 0-.496.07 1.978 1.978 0 0 0-1.402 2.43l2.136 7.973 3.875-.871-2.18-8.13a1.984 1.984 0 0 0-1.933-1.472zm0 0" fill="url(#l)"/><path d="M19.242 2.996h-.039a1.975 1.975 0 0 0-.496.07 1.972 1.972 0 0 0-1.46 2.11 1.976 1.976 0 0 1 1.46-1.715 2.17 2.17 0 0 1 .496-.07 1.984 1.984 0 0 1 1.934 1.472l2.078 7.754.101-.02-2.18-8.128a1.977 1.977 0 0 0-1.894-1.473zm0 0" fill="#fff" fill-opacity=".235"/><path d="M18.684 2.973A2.08 2.08 0 0 0 17.21 5.52l4.797 17.89a2.074 2.074 0 0 0 2.543 1.473 2.074 2.074 0 0 0 1.469-2.547l-4.793-17.89a2.074 2.074 0 0 0-2.543-1.473zm.046.183a1.886 1.886 0 0 1 2.317 1.336l4.793 17.89a1.883 1.883 0 0 1-1.336 2.317 1.883 1.883 0 0 1-2.317-1.336l-4.792-17.89a1.883 1.883 0 0 1 1.335-2.317zm0 0" fill="#212121"/><path d="M19.777 18.531l1.028 3.828v.004l6.062-1.625a1.978 1.978 0 0 0 1.403-2.43 1.978 1.978 0 0 0-2.43-1.402zm0 0" fill="url(#m)"/><path d="M28.336 18.684a1.983 1.983 0 0 1-1.465 1.757l-6.14 1.645.078.289 6.062-1.625a1.978 1.978 0 0 0 1.465-2.066zm0 0" fill-opacity=".235"/><path d="M25.844 16.918l-6.063 1.621.067.25 5.996-1.605a1.979 1.979 0 0 1 2.492 1.79 1.98 1.98 0 0 0-1.957-2.125l-.04-.001a1.975 1.975 0 0 0-.495.07zm0 0" fill="#fff" fill-opacity=".392"/><path d="M19.754 18.438l.05.183 6.06-1.625a1.888 1.888 0 0 1 2.316 1.336 1.886 1.886 0 0 1-1.336 2.316l-6.063 1.625.051.18 6.059-1.621a2.08 2.08 0 0 0-.555-4.09 2.166 2.166 0 0 0-.52.074zm0 0" fill="#212121"/></svg>