
<svg xmlns="http://www.w3.org/2000/svg" xmlns:xlink="http://www.w3.org/1999/xlink" width="32px" height="32px" viewBox="0 0 32 32" version="1.1">
<defs>
<radialGradient id="radial0" gradientUnits="userSpaceOnUse" cx="450.908936" cy="189.579361" fx="450.908936" fy="189.579361" r="21.166656" gradientTransform="matrix(0.000000174154,-0.078125,-0.140625,-0.000000101529,34.597027,63.625184)">
<stop offset="0" style="stop-color:rgb(0%,0%,0%);stop-opacity:0.313726;"/>
<stop offset="0.222222" style="stop-color:rgb(0%,0%,0%);stop-opacity:0.27451;"/>
<stop offset="1" style="stop-color:rgb(0%,0%,0%);stop-opacity:0;"/>
</radialGradient>
<radialGradient id="radial1" gradientUnits="userSpaceOnUse" cx="450.908936" cy="189.579361" fx="450.908936" fy="189.579361" r="21.166656" gradientTransform="matrix(-0.000000174154,0.078125,0.140625,0.000000101529,-18.060564,-7.490836)">
<stop offset="0" style="stop-color:rgb(0%,0%,0%);stop-opacity:0.313726;"/>
<stop offset="0.222222" style="stop-color:rgb(0%,0%,0%);stop-opacity:0.27451;"/>
<stop offset="1" style="stop-color:rgb(0%,0%,0%);stop-opacity:0;"/>
</radialGradient>
<radialGradient id="radial2" gradientUnits="userSpaceOnUse" cx="450.908936" cy="189.579361" fx="450.908936" fy="189.579361" r="21.166656" gradientTransform="matrix(-0.000000174154,-0.078125,0.140625,-0.000000101529,-18.060564,63.625184)">
<stop offset="0" style="stop-color:rgb(0%,0%,0%);stop-opacity:0.313726;"/>
<stop offset="0.222222" style="stop-color:rgb(0%,0%,0%);stop-opacity:0.27451;"/>
<stop offset="1" style="stop-color:rgb(0%,0%,0%);stop-opacity:0;"/>
</radialGradient>
<radialGradient id="radial3" gradientUnits="userSpaceOnUse" cx="450.908936" cy="189.579361" fx="450.908936" fy="189.579361" r="21.166656" gradientTransform="matrix(0.000000174154,0.078125,-0.140625,0.000000101529,34.597025,-7.490836)">
<stop offset="0" style="stop-color:rgb(0%,0%,0%);stop-opacity:0.313726;"/>
<stop offset="0.222222" style="stop-color:rgb(0%,0%,0%);stop-opacity:0.27451;"/>
<stop offset="1" style="stop-color:rgb(0%,0%,0%);stop-opacity:0;"/>
</radialGradient>
<linearGradient id="linear0" gradientUnits="userSpaceOnUse" x1="254" y1="229.5" x2="254" y2="-172.666656" gradientTransform="matrix(0.0625,0,0,0.0625,0,13.4375)">
<stop offset="0" style="stop-color:rgb(25.882354%,64.705884%,96.078432%);stop-opacity:1;"/>
<stop offset="1" style="stop-color:rgb(39.215687%,70.980394%,96.470588%);stop-opacity:1;"/>
</linearGradient>
<linearGradient id="linear1" gradientUnits="userSpaceOnUse" x1="127" y1="229.5" x2="127" y2="-183.25" gradientTransform="matrix(0.0625,0,0,0.0625,0,13.4375)">
<stop offset="0" style="stop-color:rgb(49.411765%,34.117648%,76.078433%);stop-opacity:1;"/>
<stop offset="1" style="stop-color:rgb(58.431375%,45.882353%,80.392158%);stop-opacity:1;"/>
</linearGradient>
<linearGradient id="linear2" gradientUnits="userSpaceOnUse" x1="127" y1="229.5" x2="127" y2="-172.666672" >
<stop offset="0" style="stop-color:rgb(100%,79.215688%,15.686275%);stop-opacity:1;"/>
<stop offset="1" style="stop-color:rgb(100%,71.764708%,30.19608%);stop-opacity:1;"/>
</linearGradient>
<linearGradient id="linear3" gradientUnits="userSpaceOnUse" x1="127" y1="229.5" x2="127" y2="-183.25" gradientTransform="matrix(0.0625,0,0,0.0625,0,13.4375)">
<stop offset="0" style="stop-color:rgb(49.411765%,34.117648%,76.078433%);stop-opacity:1;"/>
<stop offset="1" style="stop-color:rgb(58.431375%,45.882353%,80.392158%);stop-opacity:1;"/>
</linearGradient>
<linearGradient id="linear4" gradientUnits="userSpaceOnUse" x1="254" y1="229.5" x2="254" y2="-172.666656" gradientTransform="matrix(0.0625,0,0,0.0625,0,13.4375)">
<stop offset="0" style="stop-color:rgb(25.882354%,64.705884%,96.078432%);stop-opacity:1;"/>
<stop offset="1" style="stop-color:rgb(39.215687%,70.980394%,96.470588%);stop-opacity:1;"/>
</linearGradient>
</defs>
<g id="surface1">
<path style=" stroke:none;fill-rule:nonzero;fill:url(#radial0);" d="M 8.269531 28.066406 L 10.914062 28.066406 L 10.914062 26.746094 L 8.269531 26.746094 Z M 8.269531 28.066406 "/>
<path style=" stroke:none;fill-rule:nonzero;fill:url(#radial1);" d="M 8.269531 28.066406 L 5.621094 28.066406 L 5.621094 29.390625 L 8.269531 29.390625 Z M 8.269531 28.066406 "/>
<path style=" stroke:none;fill-rule:nonzero;fill:url(#radial2);" d="M 8.269531 28.066406 L 5.621094 28.066406 L 5.621094 26.746094 L 8.269531 26.746094 Z M 8.269531 28.066406 "/>
<path style=" stroke:none;fill-rule:nonzero;fill:url(#radial3);" d="M 8.269531 28.066406 L 10.914062 28.066406 L 10.914062 29.390625 L 8.269531 29.390625 Z M 8.269531 28.066406 "/>
<path style=" stroke:none;fill-rule:nonzero;fill:rgb(30.19608%,81.568629%,88.235295%);fill-opacity:1;" d="M 15.933594 6.320312 L 15.933594 24.152344 L 25.226562 18.785156 C 25.570312 18.605469 25.886719 18.375 26.171875 18.097656 C 26.179688 18.085938 26.191406 18.078125 26.203125 18.066406 C 26.210938 18.058594 26.21875 18.050781 26.226562 18.042969 C 26.941406 17.316406 27.34375 16.347656 27.371094 15.351562 C 27.371094 15.347656 27.371094 15.34375 27.375 15.335938 C 27.375 15.316406 27.375 15.296875 27.375 15.273438 C 27.375 15.261719 27.375 15.25 27.375 15.234375 C 27.375 15.222656 27.375 15.210938 27.375 15.195312 C 27.375 15.175781 27.375 15.152344 27.375 15.132812 C 27.371094 15.128906 27.371094 15.121094 27.371094 15.117188 C 27.34375 14.121094 26.941406 13.15625 26.226562 12.429688 C 26.21875 12.421875 26.210938 12.414062 26.203125 12.40625 C 26.191406 12.394531 26.179688 12.382812 26.171875 12.371094 C 25.886719 12.09375 25.570312 11.863281 25.226562 11.683594 Z M 15.933594 6.320312 "/>
<path style=" stroke:none;fill-rule:nonzero;fill:url(#linear0);" d="M 8.742188 2.648438 L 5.5625 26.554688 C 5.808594 26.816406 6.085938 27.042969 6.390625 27.234375 C 6.394531 27.234375 6.398438 27.238281 6.402344 27.238281 C 6.421875 27.25 6.4375 27.261719 6.457031 27.273438 C 6.46875 27.28125 6.480469 27.285156 6.492188 27.292969 C 6.5 27.300781 6.511719 27.304688 6.523438 27.3125 C 6.542969 27.320312 6.5625 27.332031 6.578125 27.34375 C 6.582031 27.34375 6.589844 27.347656 6.59375 27.347656 C 7.46875 27.824219 8.507812 27.957031 9.496094 27.703125 C 9.503906 27.699219 9.511719 27.695312 9.523438 27.695312 C 9.539062 27.691406 9.554688 27.6875 9.570312 27.679688 C 9.953125 27.574219 10.3125 27.414062 10.640625 27.207031 L 17.988281 22.964844 C 17.992188 22.964844 17.996094 22.960938 18 22.960938 L 18.042969 22.933594 L 18.972656 22.394531 C 19.90625 21.664062 20.503906 20.523438 20.503906 19.242188 L 20.503906 16.410156 C 20.507812 16.105469 20.511719 15.800781 20.515625 15.5 C 20.621094 13.691406 22.105469 12.085938 23.898438 11.847656 C 24.503906 11.753906 25.125 11.800781 25.707031 11.980469 C 25.554688 11.871094 25.390625 11.769531 25.226562 11.683594 L 10.640625 3.261719 C 10.3125 3.054688 9.953125 2.894531 9.570312 2.789062 C 9.554688 2.785156 9.539062 2.78125 9.523438 2.777344 C 9.511719 2.773438 9.503906 2.769531 9.496094 2.769531 C 9.246094 2.703125 8.996094 2.664062 8.742188 2.648438 Z M 20.503906 18.097656 C 20.507812 18.546875 20.507812 17.648438 20.503906 18.097656 Z M 20.503906 18.097656 "/>
<path style=" stroke:none;fill-rule:nonzero;fill:url(#linear1);" d="M 8.503906 2.640625 C 8.503906 2.640625 8.503906 2.644531 8.503906 2.644531 C 8.5 2.644531 8.5 2.644531 8.496094 2.644531 C 6.277344 2.644531 4.488281 4.429688 4.488281 6.648438 L 4.488281 23.820312 C 4.488281 26.039062 6.277344 27.828125 8.496094 27.828125 C 10.714844 27.828125 12.5 26.039062 12.5 23.820312 L 12.5 14.664062 C 12.503906 14.214844 12.503906 13.761719 12.5 13.3125 L 12.5 11.832031 C 12.503906 11.527344 12.507812 11.222656 12.511719 10.917969 C 12.617188 9.109375 14.101562 7.507812 15.894531 7.269531 C 16.59375 7.164062 17.320312 7.242188 17.980469 7.5 C 15.554688 6.105469 13.136719 4.695312 10.710938 3.308594 C 10.566406 3.210938 10.414062 3.125 10.257812 3.050781 C 10.089844 2.96875 9.917969 2.898438 9.734375 2.839844 C 9.734375 2.839844 9.730469 2.835938 9.730469 2.835938 C 9.707031 2.828125 9.683594 2.824219 9.664062 2.816406 C 9.644531 2.808594 9.625 2.804688 9.605469 2.800781 C 9.601562 2.796875 9.59375 2.796875 9.585938 2.792969 C 9.234375 2.695312 8.871094 2.640625 8.503906 2.640625 Z M 8.503906 2.640625 "/>
<path style="fill-rule:nonzero;fill:url(#linear2);stroke-width:3;stroke-linecap:round;stroke-linejoin:round;stroke:rgb(25.882354%,25.882354%,25.882354%);stroke-opacity:1;stroke-miterlimit:4;" d="M 71.8125 37.9375 L 71.8125 175.25 L 72.5 175.25 C 76.875 206.4375 103.5 230.25 135.9375 230.25 C 171.4375 230.25 200 201.625 200 166.125 C 200 92.875 99.3125 120.3125 71.8125 37.9375 Z M 71.8125 37.9375 " transform="matrix(0.0625,0,0,0.0625,0,13.4375)"/>
<path style=" stroke:none;fill-rule:nonzero;fill:url(#linear3);" d="M 8.503906 2.640625 Z M 8.503906 2.640625 C 8.503906 2.640625 8.503906 2.644531 8.503906 2.644531 C 8.5 2.644531 8.5 2.644531 8.496094 2.644531 C 6.277344 2.644531 4.488281 4.429688 4.488281 6.648438 L 4.488281 23.820312 C 4.488281 23.820312 4.488281 23.820312 4.488281 23.824219 L 4.488281 15.808594 C 6.207031 20.957031 12.496094 19.242188 12.5 23.8125 L 12.5 14.664062 C 12.503906 14.214844 12.503906 13.761719 12.5 13.3125 L 12.5 11.832031 C 12.503906 11.527344 12.507812 11.222656 12.511719 10.917969 C 12.617188 9.109375 14.101562 7.507812 15.894531 7.269531 C 16.59375 7.164062 17.320312 7.242188 17.980469 7.5 C 15.554688 6.105469 13.136719 4.695312 10.710938 3.308594 C 10.566406 3.210938 10.414062 3.125 10.257812 3.050781 C 10.089844 2.96875 9.917969 2.898438 9.734375 2.839844 C 9.734375 2.839844 9.730469 2.835938 9.730469 2.835938 C 9.707031 2.828125 9.683594 2.824219 9.664062 2.816406 C 9.644531 2.808594 9.625 2.804688 9.605469 2.800781 C 9.601562 2.796875 9.59375 2.796875 9.585938 2.792969 C 9.234375 2.695312 8.871094 2.640625 8.503906 2.640625 Z M 4.53125 24.390625 C 4.582031 24.757812 4.683594 25.105469 4.824219 25.433594 C 4.683594 25.105469 4.582031 24.757812 4.53125 24.390625 Z M 4.824219 25.433594 C 4.941406 25.703125 5.089844 25.960938 5.265625 26.195312 C 5.089844 25.960938 4.941406 25.703125 4.824219 25.433594 Z M 5.265625 26.195312 C 5.28125 26.21875 5.296875 26.238281 5.316406 26.261719 C 5.296875 26.238281 5.28125 26.21875 5.265625 26.195312 Z M 5.320312 26.269531 C 5.335938 26.289062 5.351562 26.308594 5.367188 26.332031 C 5.351562 26.308594 5.335938 26.289062 5.320312 26.269531 Z M 5.375 26.335938 C 5.390625 26.359375 5.410156 26.378906 5.425781 26.398438 C 5.410156 26.378906 5.390625 26.359375 5.375 26.335938 Z M 5.429688 26.40625 C 5.449219 26.425781 5.464844 26.445312 5.484375 26.46875 C 5.464844 26.445312 5.449219 26.425781 5.429688 26.40625 Z M 5.488281 26.472656 C 5.503906 26.492188 5.523438 26.511719 5.542969 26.53125 C 5.523438 26.511719 5.503906 26.492188 5.488281 26.472656 Z M 5.542969 26.535156 C 5.640625 26.640625 5.746094 26.742188 5.851562 26.835938 C 5.746094 26.742188 5.640625 26.640625 5.542969 26.535156 Z M 5.855469 26.839844 C 5.875 26.855469 5.894531 26.871094 5.914062 26.886719 C 5.894531 26.871094 5.875 26.855469 5.855469 26.839844 Z M 5.925781 26.898438 C 5.945312 26.914062 5.960938 26.925781 5.976562 26.941406 C 5.960938 26.925781 5.945312 26.914062 5.925781 26.898438 Z M 6 26.957031 C 6.015625 26.972656 6.03125 26.984375 6.046875 26.996094 C 6.03125 26.984375 6.015625 26.972656 6 26.957031 Z M 6.070312 27.011719 C 6.085938 27.027344 6.101562 27.039062 6.121094 27.050781 C 6.101562 27.039062 6.085938 27.027344 6.070312 27.011719 Z M 6.144531 27.066406 C 6.160156 27.078125 6.175781 27.09375 6.195312 27.101562 C 6.175781 27.09375 6.160156 27.078125 6.144531 27.066406 Z M 6.214844 27.121094 C 6.234375 27.132812 6.25 27.144531 6.269531 27.15625 C 6.25 27.144531 6.234375 27.132812 6.214844 27.121094 Z M 6.289062 27.167969 C 6.308594 27.179688 6.328125 27.191406 6.34375 27.203125 C 6.328125 27.191406 6.308594 27.179688 6.289062 27.167969 Z M 6.367188 27.21875 C 6.386719 27.230469 6.402344 27.242188 6.421875 27.253906 C 6.402344 27.242188 6.386719 27.230469 6.367188 27.21875 Z M 6.441406 27.261719 C 6.503906 27.300781 6.566406 27.335938 6.632812 27.371094 C 6.566406 27.335938 6.503906 27.300781 6.441406 27.261719 Z M 6.65625 27.382812 C 6.675781 27.390625 6.691406 27.402344 6.707031 27.410156 C 6.691406 27.402344 6.675781 27.390625 6.65625 27.382812 Z M 6.742188 27.425781 C 6.757812 27.433594 6.773438 27.441406 6.789062 27.449219 C 6.773438 27.441406 6.757812 27.433594 6.742188 27.425781 Z M 6.828125 27.464844 C 6.839844 27.472656 6.855469 27.480469 6.871094 27.484375 C 6.855469 27.480469 6.839844 27.472656 6.828125 27.464844 Z M 6.910156 27.503906 C 6.925781 27.507812 6.941406 27.515625 6.960938 27.523438 C 6.941406 27.515625 6.925781 27.507812 6.910156 27.503906 Z M 6.996094 27.539062 C 7.011719 27.542969 7.027344 27.550781 7.046875 27.558594 C 7.027344 27.550781 7.011719 27.542969 6.996094 27.539062 Z M 7.082031 27.570312 C 7.097656 27.578125 7.113281 27.582031 7.132812 27.589844 C 7.113281 27.582031 7.097656 27.578125 7.082031 27.570312 Z M 7.175781 27.605469 C 7.191406 27.609375 7.203125 27.617188 7.21875 27.621094 C 7.203125 27.617188 7.191406 27.609375 7.175781 27.605469 Z M 7.265625 27.636719 C 7.28125 27.640625 7.292969 27.644531 7.308594 27.648438 C 7.292969 27.644531 7.28125 27.640625 7.265625 27.636719 Z M 7.359375 27.664062 C 7.371094 27.667969 7.386719 27.671875 7.398438 27.675781 C 7.386719 27.671875 7.371094 27.667969 7.359375 27.664062 Z M 7.488281 27.699219 C 7.5 27.703125 7.515625 27.707031 7.527344 27.710938 C 7.515625 27.707031 7.5 27.703125 7.488281 27.699219 Z M 7.582031 27.722656 C 7.59375 27.726562 7.609375 27.726562 7.621094 27.730469 C 7.609375 27.726562 7.59375 27.726562 7.582031 27.722656 Z M 9.382812 27.730469 C 9.328125 27.742188 9.277344 27.75 9.226562 27.761719 C 9.277344 27.75 9.328125 27.742188 9.382812 27.730469 Z M 7.675781 27.742188 C 7.6875 27.746094 7.703125 27.75 7.71875 27.75 C 7.703125 27.75 7.6875 27.746094 7.675781 27.742188 Z M 7.769531 27.761719 C 7.785156 27.765625 7.796875 27.765625 7.8125 27.769531 C 7.796875 27.765625 7.785156 27.765625 7.769531 27.761719 Z M 9.191406 27.765625 C 9.132812 27.777344 9.078125 27.785156 9.019531 27.792969 C 9.078125 27.785156 9.132812 27.777344 9.191406 27.765625 Z M 7.863281 27.777344 C 7.878906 27.78125 7.894531 27.78125 7.910156 27.785156 C 7.894531 27.78125 7.878906 27.78125 7.863281 27.777344 Z M 7.957031 27.789062 C 7.976562 27.792969 7.992188 27.796875 8.007812 27.796875 C 7.992188 27.796875 7.976562 27.792969 7.957031 27.789062 Z M 8.996094 27.796875 C 8.902344 27.808594 8.804688 27.816406 8.707031 27.820312 C 8.804688 27.816406 8.902344 27.808594 8.996094 27.796875 Z M 8.054688 27.800781 C 8.070312 27.804688 8.085938 27.804688 8.101562 27.808594 C 8.085938 27.804688 8.070312 27.804688 8.054688 27.800781 Z M 8.15625 27.8125 C 8.167969 27.8125 8.183594 27.816406 8.199219 27.816406 C 8.183594 27.816406 8.167969 27.8125 8.15625 27.8125 Z M 8.253906 27.820312 C 8.269531 27.820312 8.28125 27.820312 8.296875 27.820312 C 8.28125 27.820312 8.269531 27.820312 8.253906 27.820312 Z M 8.699219 27.820312 C 8.632812 27.824219 8.5625 27.828125 8.496094 27.828125 C 8.5625 27.828125 8.632812 27.824219 8.699219 27.820312 Z M 8.359375 27.824219 C 8.371094 27.824219 8.382812 27.824219 8.398438 27.824219 C 8.382812 27.824219 8.371094 27.824219 8.359375 27.824219 Z M 8.359375 27.824219 "/>
<path style=" stroke:none;fill-rule:nonzero;fill:rgb(30.19608%,81.568629%,88.235295%);fill-opacity:1;" d="M 15.933594 6.320312 L 25.226562 11.683594 C 25.246094 11.695312 25.265625 11.707031 25.289062 11.71875 C 25.265625 11.707031 25.246094 11.695312 25.226562 11.683594 Z M 25.289062 11.71875 C 25.328125 11.738281 25.371094 11.761719 25.410156 11.785156 C 25.371094 11.761719 25.328125 11.738281 25.289062 11.71875 Z M 25.410156 11.785156 C 25.511719 11.847656 25.609375 11.910156 25.707031 11.980469 C 25.125 11.800781 24.503906 11.753906 23.898438 11.847656 C 22.105469 12.085938 20.621094 13.691406 20.515625 15.5 C 20.511719 15.800781 20.507812 16.105469 20.503906 16.410156 L 20.503906 19.242188 C 20.503906 20.523438 19.90625 21.664062 18.972656 22.394531 L 25.226562 18.785156 C 25.570312 18.605469 25.886719 18.375 26.171875 18.097656 C 26.179688 18.085938 26.191406 18.078125 26.203125 18.066406 C 26.210938 18.058594 26.21875 18.050781 26.226562 18.042969 C 26.941406 17.316406 27.34375 16.347656 27.371094 15.351562 C 27.371094 15.347656 27.371094 15.34375 27.375 15.335938 C 27.375 15.316406 27.375 15.296875 27.375 15.273438 C 27.375 15.261719 27.375 15.25 27.375 15.234375 C 27.375 15.222656 27.375 15.210938 27.375 15.195312 C 27.375 15.175781 27.375 15.152344 27.375 15.132812 C 27.371094 15.128906 27.371094 15.121094 27.371094 15.117188 C 27.34375 14.121094 26.941406 13.15625 26.226562 12.429688 C 26.21875 12.421875 26.210938 12.414062 26.203125 12.40625 C 26.191406 12.394531 26.179688 12.382812 26.171875 12.371094 C 25.9375 12.144531 25.683594 11.949219 25.410156 11.785156 Z M 20.507812 17.96875 C 20.507812 18.011719 20.507812 18.433594 20.503906 18.097656 C 20.503906 17.984375 20.507812 17.957031 20.507812 17.96875 Z M 18 22.960938 C 17.996094 22.960938 17.992188 22.964844 17.988281 22.964844 L 15.933594 24.152344 Z M 18 22.960938 "/>
<path style=" stroke:none;fill-rule:nonzero;fill:url(#linear4);" d="M 8.746094 2.617188 C 8.742188 2.617188 8.742188 2.617188 8.742188 2.617188 C 8.75 2.617188 8.761719 2.617188 8.769531 2.617188 C 8.761719 2.617188 8.753906 2.617188 8.746094 2.617188 Z M 8.816406 2.621094 C 8.828125 2.621094 8.839844 2.621094 8.851562 2.625 C 8.839844 2.621094 8.828125 2.621094 8.816406 2.621094 Z M 8.914062 2.628906 C 8.925781 2.632812 8.9375 2.632812 8.949219 2.632812 C 8.9375 2.632812 8.925781 2.632812 8.914062 2.628906 Z M 9.015625 2.640625 C 9.027344 2.644531 9.042969 2.644531 9.054688 2.648438 C 9.042969 2.644531 9.027344 2.644531 9.015625 2.640625 Z M 9.09375 2.652344 C 9.109375 2.65625 9.128906 2.660156 9.144531 2.660156 C 9.128906 2.660156 9.109375 2.65625 9.09375 2.652344 Z M 9.171875 2.664062 C 9.191406 2.667969 9.210938 2.671875 9.230469 2.675781 C 9.210938 2.671875 9.191406 2.667969 9.171875 2.664062 Z M 9.242188 2.679688 C 9.273438 2.683594 9.304688 2.691406 9.339844 2.699219 C 9.304688 2.691406 9.273438 2.683594 9.242188 2.679688 Z M 9.390625 2.710938 C 9.398438 2.710938 9.40625 2.710938 9.410156 2.714844 C 9.40625 2.710938 9.398438 2.710938 9.390625 2.710938 Z M 9.5625 2.753906 C 9.566406 2.753906 9.570312 2.753906 9.574219 2.757812 C 9.570312 2.753906 9.566406 2.753906 9.5625 2.753906 Z M 9.632812 2.773438 C 9.640625 2.773438 9.648438 2.777344 9.660156 2.78125 C 9.648438 2.777344 9.640625 2.773438 9.632812 2.773438 Z M 9.703125 2.792969 C 9.714844 2.796875 9.726562 2.800781 9.738281 2.804688 C 9.726562 2.800781 9.714844 2.796875 9.703125 2.792969 Z M 9.773438 2.816406 C 9.785156 2.820312 9.800781 2.824219 9.816406 2.832031 C 9.800781 2.824219 9.785156 2.820312 9.773438 2.816406 Z M 9.84375 2.839844 C 9.859375 2.84375 9.875 2.851562 9.890625 2.859375 C 9.875 2.851562 9.859375 2.84375 9.84375 2.839844 Z M 9.914062 2.867188 C 9.929688 2.871094 9.949219 2.878906 9.964844 2.886719 C 9.949219 2.878906 9.929688 2.871094 9.914062 2.867188 Z M 9.988281 2.894531 C 10.003906 2.902344 10.019531 2.90625 10.035156 2.914062 C 10.019531 2.90625 10.003906 2.902344 9.988281 2.894531 Z M 10.0625 2.925781 C 10.078125 2.929688 10.09375 2.9375 10.105469 2.945312 C 10.09375 2.9375 10.078125 2.929688 10.0625 2.925781 Z M 10.132812 2.957031 C 10.148438 2.960938 10.164062 2.96875 10.179688 2.976562 C 10.164062 2.96875 10.148438 2.960938 10.132812 2.957031 Z M 10.207031 2.988281 C 10.21875 2.996094 10.234375 3 10.25 3.007812 C 10.234375 3 10.21875 2.996094 10.207031 2.988281 Z M 10.261719 3.015625 C 10.265625 3.015625 10.273438 3.019531 10.269531 3.019531 C 10.289062 3.027344 10.308594 3.039062 10.328125 3.046875 C 10.304688 3.035156 10.285156 3.027344 10.261719 3.015625 Z M 10.347656 3.054688 C 10.359375 3.0625 10.371094 3.070312 10.386719 3.078125 C 10.371094 3.070312 10.359375 3.0625 10.347656 3.054688 Z M 10.445312 3.109375 C 10.453125 3.113281 10.460938 3.117188 10.46875 3.121094 C 10.460938 3.117188 10.453125 3.113281 10.445312 3.109375 Z M 10.507812 3.144531 C 10.519531 3.152344 10.53125 3.15625 10.539062 3.164062 C 10.53125 3.15625 10.519531 3.152344 10.507812 3.144531 Z M 10.570312 3.179688 C 10.582031 3.1875 10.59375 3.195312 10.605469 3.203125 C 10.59375 3.195312 10.582031 3.1875 10.570312 3.179688 Z M 10.625 3.214844 C 10.65625 3.234375 10.691406 3.253906 10.71875 3.273438 C 10.824219 3.335938 10.929688 3.394531 11.03125 3.453125 C 11.460938 3.699219 11.890625 3.945312 12.316406 4.191406 C 11.765625 3.875 11.210938 3.554688 10.65625 3.234375 C 10.644531 3.226562 10.636719 3.222656 10.625 3.214844 Z M 15.246094 5.882812 C 16.09375 6.375 16.941406 6.863281 17.789062 7.351562 C 17.808594 7.363281 17.824219 7.371094 17.84375 7.382812 C 16.976562 6.882812 16.113281 6.382812 15.246094 5.882812 Z M 16.539062 7.253906 C 16.492188 7.253906 16.445312 7.253906 16.394531 7.257812 C 16.332031 7.257812 16.261719 7.261719 16.195312 7.269531 C 16.066406 7.277344 15.9375 7.296875 15.808594 7.316406 C 15.339844 7.390625 14.890625 7.5625 14.484375 7.804688 C 14.3125 7.90625 14.144531 8.027344 13.988281 8.15625 C 13.859375 8.261719 13.738281 8.378906 13.621094 8.5 C 13.519531 8.609375 13.417969 8.726562 13.328125 8.847656 C 13.277344 8.914062 13.226562 8.984375 13.183594 9.050781 C 13.140625 9.117188 13.097656 9.183594 13.058594 9.25 C 12.902344 9.515625 12.78125 9.800781 12.691406 10.09375 C 12.683594 10.121094 12.675781 10.152344 12.667969 10.179688 C 12.601562 10.417969 12.5625 10.667969 12.546875 10.917969 C 12.539062 11.210938 12.535156 11.503906 12.535156 11.800781 C 12.535156 12.269531 12.535156 12.738281 12.535156 13.210938 C 12.535156 13.6875 12.539062 14.167969 12.535156 14.644531 C 12.535156 17.683594 12.535156 20.722656 12.535156 23.761719 C 12.535156 23.78125 12.535156 23.800781 12.53125 23.820312 C 12.53125 23.832031 12.523438 23.835938 12.511719 23.84375 C 12.507812 23.847656 12.503906 23.847656 12.5 23.84375 C 12.488281 26.054688 10.707031 27.828125 8.496094 27.828125 C 8.460938 27.828125 8.429688 27.824219 8.398438 27.824219 C 8.394531 27.835938 8.394531 27.847656 8.394531 27.859375 C 8.382812 27.859375 8.371094 27.855469 8.355469 27.855469 C 8.359375 27.847656 8.359375 27.835938 8.359375 27.824219 C 8.339844 27.824219 8.316406 27.824219 8.296875 27.820312 C 8.296875 27.832031 8.296875 27.84375 8.296875 27.855469 C 8.28125 27.855469 8.265625 27.851562 8.253906 27.851562 C 8.253906 27.839844 8.253906 27.828125 8.253906 27.820312 C 8.238281 27.816406 8.21875 27.816406 8.199219 27.816406 C 8.199219 27.828125 8.199219 27.835938 8.199219 27.847656 C 8.183594 27.847656 8.167969 27.847656 8.152344 27.84375 C 8.152344 27.832031 8.152344 27.824219 8.15625 27.8125 C 8.136719 27.808594 8.121094 27.808594 8.101562 27.808594 C 8.101562 27.816406 8.101562 27.828125 8.097656 27.839844 C 8.082031 27.839844 8.066406 27.835938 8.054688 27.835938 C 8.054688 27.824219 8.054688 27.8125 8.054688 27.800781 C 8.039062 27.800781 8.023438 27.800781 8.007812 27.796875 C 8.003906 27.808594 8.003906 27.820312 8.003906 27.828125 C 7.988281 27.828125 7.96875 27.824219 7.953125 27.824219 C 7.957031 27.8125 7.957031 27.800781 7.957031 27.789062 C 7.941406 27.789062 7.925781 27.785156 7.910156 27.785156 C 7.910156 27.796875 7.90625 27.804688 7.90625 27.816406 C 7.890625 27.816406 7.875 27.8125 7.859375 27.808594 C 7.859375 27.800781 7.863281 27.789062 7.863281 27.777344 C 7.847656 27.773438 7.828125 27.773438 7.8125 27.769531 C 7.8125 27.78125 7.808594 27.789062 7.808594 27.800781 C 7.792969 27.796875 7.777344 27.796875 7.765625 27.792969 C 7.765625 27.78125 7.769531 27.773438 7.769531 27.761719 C 7.753906 27.757812 7.734375 27.753906 7.71875 27.75 C 7.714844 27.761719 7.714844 27.773438 7.710938 27.785156 C 7.695312 27.78125 7.683594 27.777344 7.667969 27.773438 C 7.671875 27.765625 7.671875 27.753906 7.675781 27.742188 C 7.65625 27.738281 7.640625 27.734375 7.621094 27.730469 C 7.617188 27.742188 7.617188 27.753906 7.613281 27.761719 C 7.601562 27.761719 7.589844 27.757812 7.574219 27.753906 C 7.578125 27.742188 7.578125 27.734375 7.582031 27.722656 C 7.5625 27.71875 7.546875 27.714844 7.527344 27.710938 C 7.527344 27.71875 7.523438 27.730469 7.519531 27.742188 C 7.507812 27.738281 7.492188 27.734375 7.480469 27.730469 C 7.484375 27.722656 7.484375 27.710938 7.488281 27.699219 C 7.429688 27.683594 7.367188 27.667969 7.308594 27.648438 C 7.304688 27.660156 7.300781 27.671875 7.300781 27.679688 C 7.285156 27.675781 7.269531 27.671875 7.257812 27.667969 C 7.257812 27.65625 7.261719 27.644531 7.265625 27.636719 C 7.25 27.628906 7.234375 27.625 7.21875 27.621094 C 7.214844 27.628906 7.210938 27.640625 7.207031 27.652344 C 7.195312 27.648438 7.179688 27.640625 7.164062 27.636719 C 7.167969 27.625 7.171875 27.617188 7.175781 27.605469 C 7.160156 27.601562 7.144531 27.59375 7.132812 27.589844 L 7.121094 27.621094 C 7.105469 27.613281 7.089844 27.609375 7.074219 27.601562 C 7.074219 27.59375 7.078125 27.582031 7.082031 27.570312 C 7.070312 27.566406 7.058594 27.5625 7.046875 27.558594 C 7.042969 27.566406 7.039062 27.578125 7.035156 27.589844 C 7.5 27.769531 8 27.863281 8.5 27.863281 C 8.867188 27.863281 9.238281 27.808594 9.589844 27.710938 C 9.96875 27.605469 10.328125 27.445312 10.660156 27.234375 C 13.4375 25.632812 16.214844 24.027344 18.992188 22.425781 C 19.234375 22.234375 19.453125 22.019531 19.644531 21.78125 C 19.753906 21.648438 19.851562 21.507812 19.941406 21.359375 C 20.234375 20.886719 20.425781 20.347656 20.5 19.796875 C 20.527344 19.59375 20.539062 19.386719 20.539062 19.183594 L 20.539062 18.21875 C 20.539062 18.179688 20.539062 18.140625 20.539062 18.101562 C 20.539062 18.054688 20.539062 18.011719 20.539062 17.96875 C 20.539062 17.964844 20.539062 17.949219 20.539062 17.941406 C 20.539062 17.421875 20.539062 16.902344 20.539062 16.382812 C 20.539062 16.085938 20.542969 15.789062 20.550781 15.496094 C 20.554688 15.429688 20.558594 15.363281 20.566406 15.296875 C 20.574219 15.25 20.578125 15.207031 20.585938 15.160156 C 20.59375 15.097656 20.609375 15.03125 20.621094 14.964844 C 20.640625 14.871094 20.664062 14.773438 20.695312 14.679688 C 20.722656 14.585938 20.753906 14.492188 20.789062 14.40625 C 20.835938 14.277344 20.890625 14.15625 20.953125 14.035156 C 20.964844 14.007812 20.976562 13.980469 20.992188 13.957031 C 21.109375 13.738281 21.246094 13.527344 21.402344 13.335938 C 21.707031 12.953125 22.078125 12.625 22.5 12.375 C 22.644531 12.289062 22.796875 12.210938 22.953125 12.144531 C 23.230469 12.027344 23.523438 11.941406 23.820312 11.890625 C 23.914062 11.878906 24.011719 11.863281 24.105469 11.855469 C 24.269531 11.839844 24.4375 11.832031 24.605469 11.835938 C 24.683594 11.835938 24.765625 11.839844 24.84375 11.847656 C 25.109375 11.871094 25.371094 11.917969 25.628906 11.992188 C 25.652344 12 25.675781 12.007812 25.699219 12.011719 C 25.707031 12.011719 25.722656 12.015625 25.726562 12.003906 C 25.730469 11.996094 25.742188 11.988281 25.738281 11.980469 C 25.734375 11.96875 25.734375 11.957031 25.722656 11.953125 C 25.675781 11.917969 25.625 11.886719 25.578125 11.855469 C 25.472656 11.78125 25.355469 11.714844 25.242188 11.65625 C 22.796875 10.246094 20.355469 8.832031 17.914062 7.421875 C 17.941406 7.441406 17.96875 7.457031 17.996094 7.472656 C 18.007812 7.476562 18.007812 7.488281 18.011719 7.5 C 18.015625 7.511719 18.003906 7.515625 17.996094 7.527344 C 17.992188 7.535156 17.976562 7.527344 17.96875 7.53125 C 17.933594 7.519531 17.898438 7.503906 17.863281 7.492188 C 17.613281 7.402344 17.347656 7.335938 17.082031 7.296875 C 16.949219 7.277344 16.816406 7.265625 16.683594 7.257812 C 16.636719 7.257812 16.589844 7.257812 16.539062 7.253906 Z M 7.035156 27.589844 C 7.015625 27.582031 7 27.574219 6.984375 27.570312 C 6.988281 27.558594 6.992188 27.546875 6.996094 27.539062 C 6.984375 27.53125 6.972656 27.527344 6.960938 27.523438 C 6.957031 27.535156 6.953125 27.542969 6.945312 27.554688 C 6.976562 27.566406 7.003906 27.578125 7.035156 27.589844 Z M 6.945312 27.554688 C 6.929688 27.546875 6.914062 27.539062 6.898438 27.53125 C 6.914062 27.539062 6.929688 27.546875 6.945312 27.554688 Z M 6.898438 27.53125 C 6.902344 27.523438 6.90625 27.511719 6.910156 27.503906 C 6.898438 27.496094 6.886719 27.492188 6.871094 27.484375 C 6.867188 27.496094 6.863281 27.507812 6.859375 27.515625 C 6.871094 27.523438 6.882812 27.527344 6.898438 27.53125 Z M 6.859375 27.515625 C 6.84375 27.507812 6.828125 27.503906 6.8125 27.496094 C 6.828125 27.503906 6.84375 27.507812 6.859375 27.515625 Z M 6.8125 27.496094 C 6.816406 27.484375 6.820312 27.476562 6.828125 27.464844 C 6.8125 27.460938 6.800781 27.453125 6.789062 27.449219 C 6.78125 27.457031 6.777344 27.46875 6.773438 27.476562 C 6.785156 27.484375 6.800781 27.488281 6.8125 27.496094 Z M 6.773438 27.476562 C 6.757812 27.46875 6.742188 27.460938 6.726562 27.457031 C 6.730469 27.445312 6.738281 27.433594 6.742188 27.425781 C 6.550781 27.332031 6.367188 27.226562 6.195312 27.101562 C 6.1875 27.113281 6.179688 27.121094 6.175781 27.128906 C 6.351562 27.253906 6.539062 27.367188 6.738281 27.460938 C 6.75 27.464844 6.761719 27.472656 6.773438 27.476562 Z M 5.535156 26.523438 C 5.535156 26.535156 5.53125 26.542969 5.53125 26.550781 C 5.535156 26.566406 5.539062 26.582031 5.550781 26.589844 C 5.703125 26.753906 5.871094 26.902344 6.050781 27.039062 C 6.058594 27.03125 6.0625 27.023438 6.070312 27.011719 C 5.875 26.867188 5.699219 26.703125 5.535156 26.523438 Z M 6.121094 27.050781 C 6.113281 27.058594 6.105469 27.066406 6.101562 27.078125 C 6.109375 27.082031 6.117188 27.089844 6.125 27.09375 C 6.132812 27.085938 6.136719 27.078125 6.144531 27.066406 C 6.136719 27.0625 6.128906 27.054688 6.121094 27.050781 Z M 6.121094 27.050781 "/>
<path style=" stroke:none;fill-rule:nonzero;fill:rgb(100%,100%,100%);fill-opacity:0.247721;" d="M 8.746094 2.617188 C 8.742188 2.617188 8.742188 2.617188 8.742188 2.617188 C 8.75 2.617188 8.761719 2.617188 8.769531 2.617188 C 8.761719 2.617188 8.753906 2.617188 8.746094 2.617188 Z M 8.816406 2.621094 C 8.828125 2.621094 8.839844 2.621094 8.851562 2.625 C 8.839844 2.621094 8.828125 2.621094 8.816406 2.621094 Z M 8.914062 2.628906 C 8.925781 2.632812 8.9375 2.632812 8.949219 2.632812 C 8.9375 2.632812 8.925781 2.632812 8.914062 2.628906 Z M 8.503906 2.640625 Z M 8.503906 2.640625 C 8.503906 2.640625 8.503906 2.644531 8.503906 2.644531 C 8.5 2.644531 8.5 2.644531 8.496094 2.644531 C 6.277344 2.644531 4.488281 4.429688 4.488281 6.648438 L 4.488281 7.125 C 4.488281 4.90625 6.277344 3.121094 8.496094 3.121094 C 8.5 3.121094 8.5 3.121094 8.503906 3.121094 C 8.503906 3.121094 8.503906 3.117188 8.503906 3.117188 C 8.871094 3.117188 9.234375 3.171875 9.585938 3.269531 C 9.59375 3.273438 9.601562 3.273438 9.605469 3.277344 C 9.625 3.28125 9.644531 3.285156 9.664062 3.292969 C 9.683594 3.300781 9.707031 3.304688 9.730469 3.3125 C 9.730469 3.3125 9.734375 3.316406 9.734375 3.316406 C 9.917969 3.375 10.089844 3.445312 10.257812 3.527344 C 10.414062 3.601562 10.566406 3.6875 10.710938 3.785156 C 12.703125 4.925781 14.6875 6.078125 16.679688 7.226562 L 15.933594 6.796875 L 16.679688 7.226562 C 16.703125 7.226562 16.726562 7.230469 16.75 7.230469 C 16.25 6.941406 15.746094 6.648438 15.246094 6.359375 C 15.746094 6.648438 16.25 6.941406 16.753906 7.230469 C 17.171875 7.253906 17.589844 7.34375 17.980469 7.5 L 18.007812 7.515625 C 18.003906 7.519531 18 7.523438 17.996094 7.527344 C 17.992188 7.535156 17.976562 7.527344 17.96875 7.53125 C 17.933594 7.519531 17.898438 7.503906 17.863281 7.492188 C 17.613281 7.402344 17.347656 7.335938 17.082031 7.296875 C 16.996094 7.285156 16.90625 7.273438 16.816406 7.269531 C 17.160156 7.464844 17.5 7.664062 17.84375 7.859375 C 17.824219 7.847656 17.808594 7.839844 17.789062 7.828125 C 17.464844 7.640625 17.140625 7.453125 16.816406 7.269531 C 16.792969 7.265625 16.769531 7.265625 16.742188 7.261719 L 18.007812 7.992188 C 18.011719 7.988281 18.011719 7.984375 18.011719 7.976562 C 18.007812 7.964844 18.007812 7.953125 17.996094 7.949219 C 17.96875 7.933594 17.941406 7.917969 17.914062 7.898438 C 20.355469 9.308594 22.796875 10.722656 25.242188 12.132812 C 25.355469 12.191406 25.472656 12.257812 25.578125 12.332031 C 25.625 12.363281 25.675781 12.394531 25.722656 12.429688 C 25.734375 12.433594 25.734375 12.445312 25.738281 12.457031 C 25.742188 12.464844 25.734375 12.46875 25.730469 12.476562 C 25.886719 12.589844 26.03125 12.714844 26.171875 12.847656 C 26.179688 12.859375 26.191406 12.871094 26.203125 12.882812 C 26.210938 12.890625 26.21875 12.898438 26.226562 12.90625 C 26.914062 13.601562 27.3125 14.519531 27.367188 15.472656 C 27.371094 15.433594 27.371094 15.394531 27.371094 15.351562 C 27.371094 15.347656 27.371094 15.34375 27.375 15.335938 C 27.375 15.316406 27.375 15.296875 27.375 15.273438 C 27.375 15.261719 27.375 15.25 27.375 15.234375 C 27.375 15.222656 27.375 15.210938 27.375 15.195312 C 27.375 15.175781 27.375 15.152344 27.375 15.132812 C 27.371094 15.128906 27.371094 15.121094 27.371094 15.117188 C 27.34375 14.121094 26.941406 13.15625 26.226562 12.429688 C 26.21875 12.421875 26.210938 12.414062 26.203125 12.40625 C 26.191406 12.394531 26.179688 12.382812 26.171875 12.371094 C 26.03125 12.238281 25.886719 12.113281 25.730469 12 C 25.734375 11.992188 25.742188 11.988281 25.738281 11.980469 C 25.734375 11.96875 25.734375 11.957031 25.722656 11.953125 C 25.675781 11.917969 25.625 11.886719 25.578125 11.855469 C 25.472656 11.78125 25.355469 11.714844 25.242188 11.65625 C 22.796875 10.246094 20.355469 8.832031 17.914062 7.421875 C 17.941406 7.441406 17.96875 7.457031 17.996094 7.472656 C 18.007812 7.476562 18.007812 7.488281 18.011719 7.5 C 18.011719 7.507812 18.011719 7.511719 18.007812 7.515625 L 15.933594 6.320312 L 17.929688 7.472656 C 15.523438 6.085938 13.121094 4.6875 10.710938 3.308594 C 10.566406 3.210938 10.414062 3.125 10.257812 3.050781 C 10.089844 2.96875 9.917969 2.898438 9.734375 2.839844 C 9.734375 2.839844 9.730469 2.835938 9.730469 2.835938 C 9.707031 2.828125 9.683594 2.824219 9.664062 2.816406 C 9.644531 2.808594 9.625 2.804688 9.605469 2.800781 C 9.601562 2.796875 9.59375 2.796875 9.585938 2.792969 C 9.234375 2.695312 8.871094 2.640625 8.503906 2.640625 Z M 9.015625 2.640625 C 9.027344 2.644531 9.042969 2.644531 9.054688 2.648438 C 9.042969 2.644531 9.027344 2.644531 9.015625 2.640625 Z M 9.09375 2.652344 C 9.109375 2.65625 9.128906 2.660156 9.144531 2.660156 C 9.128906 2.660156 9.109375 2.65625 9.09375 2.652344 Z M 9.171875 2.664062 C 9.191406 2.667969 9.210938 2.671875 9.230469 2.675781 C 9.210938 2.671875 9.191406 2.667969 9.171875 2.664062 Z M 9.242188 2.679688 C 9.273438 2.683594 9.304688 2.691406 9.339844 2.699219 C 9.304688 2.691406 9.273438 2.683594 9.242188 2.679688 Z M 9.390625 2.710938 C 9.398438 2.710938 9.40625 2.710938 9.410156 2.714844 C 9.40625 2.710938 9.398438 2.710938 9.390625 2.710938 Z M 9.5625 2.753906 C 9.566406 2.753906 9.570312 2.753906 9.574219 2.757812 C 9.570312 2.753906 9.566406 2.753906 9.5625 2.753906 Z M 9.632812 2.773438 C 9.640625 2.773438 9.648438 2.777344 9.660156 2.78125 C 9.648438 2.777344 9.640625 2.773438 9.632812 2.773438 Z M 9.703125 2.792969 C 9.714844 2.796875 9.726562 2.800781 9.738281 2.804688 C 9.726562 2.800781 9.714844 2.796875 9.703125 2.792969 Z M 9.773438 2.816406 C 9.785156 2.820312 9.800781 2.824219 9.816406 2.832031 C 9.800781 2.824219 9.785156 2.820312 9.773438 2.816406 Z M 9.84375 2.839844 C 9.859375 2.84375 9.875 2.851562 9.890625 2.859375 C 9.875 2.851562 9.859375 2.84375 9.84375 2.839844 Z M 9.914062 2.867188 C 9.929688 2.871094 9.949219 2.878906 9.964844 2.886719 C 9.949219 2.878906 9.929688 2.871094 9.914062 2.867188 Z M 9.988281 2.894531 C 10.003906 2.902344 10.019531 2.90625 10.035156 2.914062 C 10.019531 2.90625 10.003906 2.902344 9.988281 2.894531 Z M 10.0625 2.925781 C 10.078125 2.929688 10.09375 2.9375 10.105469 2.945312 C 10.09375 2.9375 10.078125 2.929688 10.0625 2.925781 Z M 10.132812 2.957031 C 10.148438 2.960938 10.164062 2.96875 10.179688 2.976562 C 10.164062 2.96875 10.148438 2.960938 10.132812 2.957031 Z M 10.207031 2.988281 C 10.21875 2.996094 10.234375 3 10.25 3.007812 C 10.234375 3 10.21875 2.996094 10.207031 2.988281 Z M 10.261719 3.015625 C 10.265625 3.015625 10.273438 3.019531 10.269531 3.019531 C 10.289062 3.027344 10.308594 3.039062 10.328125 3.046875 C 10.304688 3.035156 10.285156 3.027344 10.261719 3.015625 Z M 10.347656 3.054688 C 10.359375 3.0625 10.371094 3.070312 10.386719 3.078125 C 10.371094 3.070312 10.359375 3.0625 10.347656 3.054688 Z M 8.746094 3.09375 C 8.753906 3.09375 8.761719 3.09375 8.769531 3.09375 C 8.761719 3.09375 8.75 3.09375 8.742188 3.09375 C 8.742188 3.09375 8.742188 3.09375 8.746094 3.09375 Z M 10.445312 3.109375 C 10.453125 3.113281 10.460938 3.117188 10.46875 3.121094 C 10.460938 3.117188 10.453125 3.113281 10.445312 3.109375 Z M 8.503906 3.117188 Z M 10.507812 3.144531 C 10.519531 3.152344 10.53125 3.15625 10.539062 3.164062 C 10.53125 3.15625 10.519531 3.152344 10.507812 3.144531 Z M 10.570312 3.179688 C 10.582031 3.1875 10.59375 3.195312 10.605469 3.203125 C 10.59375 3.195312 10.582031 3.1875 10.570312 3.179688 Z M 10.625 3.214844 C 10.65625 3.234375 10.691406 3.253906 10.71875 3.273438 C 10.824219 3.335938 10.929688 3.394531 11.03125 3.453125 C 11.460938 3.699219 11.890625 3.945312 12.316406 4.191406 C 11.765625 3.875 11.210938 3.554688 10.65625 3.234375 C 10.644531 3.226562 10.636719 3.222656 10.625 3.214844 Z M 10.261719 3.492188 C 10.285156 3.503906 10.304688 3.511719 10.328125 3.523438 C 10.308594 3.511719 10.289062 3.503906 10.269531 3.496094 C 10.273438 3.496094 10.265625 3.492188 10.261719 3.492188 Z M 10.625 3.691406 C 10.636719 3.699219 10.644531 3.703125 10.65625 3.710938 C 11.210938 4.03125 11.765625 4.351562 12.316406 4.667969 C 11.890625 4.421875 11.460938 4.175781 11.03125 3.929688 C 10.929688 3.871094 10.824219 3.8125 10.71875 3.75 C 10.691406 3.730469 10.65625 3.710938 10.625 3.691406 Z M 15.246094 5.882812 C 16.09375 6.375 16.941406 6.863281 17.789062 7.351562 C 17.808594 7.363281 17.824219 7.371094 17.84375 7.382812 C 16.976562 6.882812 16.113281 6.382812 15.246094 5.882812 Z M 16.742188 7.261719 C 17.136719 7.492188 17.535156 7.71875 17.929688 7.949219 Z M 16.488281 7.699219 C 16.292969 7.699219 16.09375 7.714844 15.894531 7.746094 C 14.199219 7.972656 12.78125 9.414062 12.542969 11.097656 C 12.539062 11.332031 12.535156 11.566406 12.535156 11.800781 C 12.535156 12.269531 12.535156 12.738281 12.535156 13.210938 C 12.535156 13.226562 12.535156 13.242188 12.535156 13.253906 C 12.535156 12.929688 12.535156 12.601562 12.535156 12.277344 C 12.535156 11.980469 12.539062 11.6875 12.546875 11.394531 C 12.5625 11.144531 12.601562 10.894531 12.667969 10.65625 C 12.675781 10.628906 12.683594 10.597656 12.691406 10.570312 C 12.78125 10.277344 12.902344 9.992188 13.058594 9.726562 C 13.097656 9.660156 13.140625 9.59375 13.183594 9.527344 C 13.226562 9.460938 13.277344 9.390625 13.328125 9.324219 C 13.417969 9.203125 13.519531 9.085938 13.621094 8.976562 C 13.738281 8.855469 13.859375 8.738281 13.988281 8.632812 C 14.144531 8.503906 14.3125 8.382812 14.484375 8.28125 C 14.890625 8.039062 15.339844 7.867188 15.808594 7.792969 C 15.9375 7.773438 16.066406 7.753906 16.195312 7.746094 C 16.261719 7.738281 16.332031 7.734375 16.394531 7.734375 C 16.445312 7.730469 16.492188 7.730469 16.539062 7.730469 C 16.589844 7.734375 16.636719 7.734375 16.683594 7.734375 C 16.816406 7.742188 16.949219 7.753906 17.082031 7.773438 C 17.347656 7.8125 17.613281 7.878906 17.863281 7.96875 C 17.898438 7.980469 17.933594 7.996094 17.96875 8.007812 C 17.976562 8.003906 17.992188 8.011719 17.996094 8.003906 C 18 8 18.003906 7.996094 18.007812 7.992188 L 17.980469 7.976562 C 17.507812 7.789062 17 7.695312 16.488281 7.699219 Z M 12.5 13.3125 L 12.5 13.789062 C 12.5 13.972656 12.503906 14.160156 12.503906 14.34375 C 12.503906 14 12.503906 13.65625 12.5 13.3125 Z M 12.535156 14.320312 C 12.535156 14.429688 12.535156 14.535156 12.535156 14.644531 C 12.535156 14.804688 12.535156 14.960938 12.535156 15.121094 C 12.535156 14.855469 12.535156 14.589844 12.535156 14.320312 Z M 12.535156 23.761719 C 12.535156 23.769531 12.535156 23.777344 12.535156 23.785156 C 12.535156 23.777344 12.535156 23.769531 12.535156 23.761719 Z M 12.535156 23.808594 C 12.535156 23.8125 12.535156 23.816406 12.53125 23.820312 C 12.53125 23.832031 12.523438 23.835938 12.511719 23.84375 C 12.507812 23.847656 12.503906 23.847656 12.5 23.84375 L 12.5 24.289062 C 12.5 24.292969 12.5 24.292969 12.5 24.296875 C 12.5 24.304688 12.5 24.3125 12.5 24.320312 C 12.503906 24.324219 12.507812 24.324219 12.511719 24.320312 C 12.523438 24.3125 12.53125 24.308594 12.53125 24.296875 C 12.535156 24.277344 12.535156 24.257812 12.535156 24.238281 C 12.535156 24.09375 12.535156 23.949219 12.535156 23.808594 Z M 12.5 23.8125 L 12.5 23.824219 C 12.5 23.824219 12.5 23.820312 12.5 23.820312 C 12.5 23.816406 12.5 23.816406 12.5 23.8125 Z M 12.5 23.8125 "/>
<path style="fill:none;stroke-width:11.338583;stroke-linecap:round;stroke-linejoin:round;stroke:rgb(25.882354%,25.882354%,25.882354%);stroke-opacity:1;stroke-miterlimit:4;" d="M 528.897666 158.267725 C 528.661445 158.267725 528.661445 158.267725 528.661445 158.267725 C 529.133886 158.267725 529.842548 158.267725 530.314989 158.267725 C 529.842548 158.267725 529.370107 158.267725 528.897666 158.267725 Z M 533.149634 158.503945 C 533.858296 158.503945 534.566957 158.503945 535.275619 158.740166 C 534.566957 158.503945 533.858296 158.503945 533.149634 158.503945 Z M 539.055146 158.976386 C 539.763808 159.212607 540.472469 159.212607 541.181131 159.212607 C 540.472469 159.212607 539.763808 159.212607 539.055146 158.976386 Z M 545.196879 159.685048 C 545.905541 159.921268 546.850422 159.921268 547.559084 160.157489 C 546.850422 159.921268 545.905541 159.921268 545.196879 159.685048 Z M 549.921289 160.393709 C 550.866171 160.62993 552.047273 160.86615 552.992155 160.86615 C 552.047273 160.86615 550.866171 160.62993 549.921289 160.393709 Z M 554.645698 161.102371 C 555.826801 161.338591 557.007903 161.574812 558.189006 161.811032 C 557.007903 161.574812 555.826801 161.338591 554.645698 161.102371 Z M 558.897667 162.047253 C 560.787431 162.283473 562.677195 162.755914 564.803179 163.228355 C 562.677195 162.755914 560.787431 162.283473 558.897667 162.047253 Z M 567.874046 163.937016 C 568.346487 163.937016 568.818928 163.937016 569.055148 164.173237 C 568.818928 163.937016 568.346487 163.937016 567.874046 163.937016 Z M 578.267747 166.535442 C 578.503967 166.535442 578.740188 166.535442 578.976408 166.771662 C 578.740188 166.535442 578.503967 166.535442 578.267747 166.535442 Z M 582.519716 167.716544 C 582.992157 167.716544 583.464598 167.952765 584.173259 168.188985 C 583.464598 167.952765 582.992157 167.716544 582.519716 167.716544 Z M 586.771684 168.897647 C 587.480346 169.133867 588.189007 169.370088 588.897669 169.606308 C 588.189007 169.370088 587.480346 169.133867 586.771684 168.897647 Z M 591.023653 170.31497 C 591.732315 170.55119 592.677197 170.787411 593.622078 171.259852 C 592.677197 170.787411 591.732315 170.55119 591.023653 170.31497 Z M 595.275622 171.732292 C 596.220504 171.968513 597.165386 172.440954 598.110268 172.913395 C 597.165386 172.440954 596.220504 171.968513 595.275622 171.732292 Z M 599.527591 173.385836 C 600.472473 173.622056 601.653575 174.094497 602.598457 174.566938 C 601.653575 174.094497 600.472473 173.622056 599.527591 173.385836 Z M 604.01578 175.039379 C 604.960662 175.51182 605.905544 175.748041 606.850426 176.220482 C 605.905544 175.748041 604.960662 175.51182 604.01578 175.039379 Z M 608.503969 176.929143 C 609.448851 177.165364 610.393733 177.637805 611.102394 178.110246 C 610.393733 177.637805 609.448851 177.165364 608.503969 176.929143 Z M 612.755938 178.818907 C 613.70082 179.055128 614.645702 179.527568 615.590584 180.000009 C 614.645702 179.527568 613.70082 179.055128 612.755938 178.818907 Z M 617.244127 180.708671 C 617.952788 181.181112 618.89767 181.417332 619.842552 181.889773 C 618.89767 181.417332 617.952788 181.181112 617.244127 180.708671 Z M 620.551214 182.362214 C 620.787434 182.362214 621.259875 182.598435 621.023655 182.598435 C 622.204757 183.070876 623.38586 183.779537 624.566962 184.251978 C 623.149639 183.543317 621.968537 183.070876 620.551214 182.362214 Z M 625.748064 184.724419 C 626.456726 185.19686 627.165387 185.669301 628.110269 186.141742 C 627.165387 185.669301 626.456726 185.19686 625.748064 184.724419 Z M 631.653577 188.031506 C 632.126017 188.267726 632.598458 188.503947 633.070899 188.740167 C 632.598458 188.503947 632.126017 188.267726 631.653577 188.031506 Z M 635.433104 190.15749 C 636.141766 190.629931 636.850427 190.866152 637.322868 191.338593 C 636.850427 190.866152 636.141766 190.629931 635.433104 190.15749 Z M 639.212632 192.283475 C 639.921293 192.755916 640.629955 193.228357 641.338616 193.700798 C 640.629955 193.228357 639.921293 192.755916 639.212632 192.283475 Z M 642.519719 194.409459 C 644.409483 195.590561 646.535467 196.771664 648.18901 197.952766 C 654.566964 201.732294 660.944917 205.275601 667.086649 208.818909 C 693.070903 223.700799 719.055156 238.58269 744.803189 253.46458 C 711.4961 234.330721 677.952792 214.960641 644.409483 195.590561 C 643.700821 195.11812 643.22838 194.8819 642.519719 194.409459 Z M 921.968552 355.74805 C 973.228398 385.511831 1024.488243 415.039392 1075.748088 444.566953 C 1076.92919 445.275614 1077.874072 445.748055 1079.055175 446.456716 C 1026.614227 416.220494 974.4095 385.984272 921.968552 355.74805 Z M 1000.157533 438.66144 C 997.322887 438.66144 994.488241 438.66144 991.417375 438.897661 C 987.637847 438.897661 983.385878 439.133881 979.37013 439.606322 C 971.574854 440.078763 963.779578 441.259866 955.984302 442.440968 C 927.637844 446.929157 900.472488 457.322859 875.905558 471.968529 C 865.511857 478.110261 855.354376 485.433096 845.905556 493.228372 C 838.11028 499.606325 830.787445 506.69294 823.700831 514.015775 C 817.559098 520.629949 811.417365 527.716563 805.984294 535.039398 C 802.913428 539.055146 799.842562 543.307115 797.244136 547.322863 C 794.645711 551.338612 792.047286 555.35436 789.685081 559.370108 C 780.236261 575.433101 772.913426 592.677197 767.480355 610.393733 C 767.007914 612.047276 766.535473 613.93704 766.063032 615.590584 C 762.047284 630.000033 759.685079 645.118144 758.740197 660.236255 C 758.267756 677.952792 758.031536 695.669328 758.031536 713.622085 C 758.031536 741.968543 758.031536 770.315001 758.031536 798.89768 C 758.031536 827.716579 758.267756 856.771699 758.031536 885.590598 C 758.031536 1069.370135 758.031536 1253.149672 758.031536 1436.929209 C 758.031536 1438.110312 758.031536 1439.291414 757.795315 1440.472517 C 757.795315 1441.181178 757.322874 1441.417399 756.614213 1441.88984 C 756.377993 1442.12606 756.141772 1442.12606 755.905552 1441.88984 C 755.19689 1575.590634 647.480349 1682.834734 513.779555 1682.834734 C 511.65357 1682.834734 509.763806 1682.598514 507.874042 1682.598514 C 507.637822 1683.307175 507.637822 1684.015837 507.637822 1684.724498 C 506.929161 1684.724498 506.220499 1684.488278 505.275617 1684.488278 C 505.511838 1684.015837 505.511838 1683.307175 505.511838 1682.598514 C 504.330735 1682.598514 502.913412 1682.598514 501.73231 1682.362293 C 501.73231 1683.070955 501.73231 1683.779616 501.73231 1684.488278 C 500.787428 1684.488278 499.842546 1684.252057 499.133885 1684.252057 C 499.133885 1683.543396 499.133885 1682.834734 499.133885 1682.362293 C 498.189003 1682.126073 497.0079 1682.126073 495.826798 1682.126073 C 495.826798 1682.834734 495.826798 1683.307175 495.826798 1684.015837 C 494.881916 1684.015837 493.937034 1684.015837 492.992152 1683.779616 C 492.992152 1683.070955 492.992152 1682.598514 493.228372 1681.889852 C 492.04727 1681.653632 491.102388 1681.653632 489.921286 1681.653632 C 489.921286 1682.126073 489.921286 1682.834734 489.685065 1683.543396 C 488.740183 1683.543396 487.795301 1683.307175 487.08664 1683.307175 C 487.08664 1682.598514 487.08664 1681.889852 487.08664 1681.181191 C 486.141758 1681.181191 485.196876 1681.181191 484.251994 1680.94497 C 484.015773 1681.653632 484.015773 1682.362293 484.015773 1682.834734 C 483.070892 1682.834734 481.889789 1682.598514 480.944907 1682.598514 C 481.181128 1681.889852 481.181128 1681.181191 481.181128 1680.472529 C 480.236246 1680.472529 479.291364 1680.236309 478.346482 1680.236309 C 478.346482 1680.94497 478.110261 1681.417411 478.110261 1682.126073 C 477.165379 1682.126073 476.220497 1681.889852 475.275616 1681.653632 C 475.275616 1681.181191 475.511836 1680.472529 475.511836 1679.763868 C 474.566954 1679.527647 473.385852 1679.527647 472.44097 1679.291427 C 472.44097 1680.000088 472.204749 1680.472529 472.204749 1681.181191 C 471.259867 1680.94497 470.314985 1680.94497 469.606324 1680.70875 C 469.606324 1680.000088 469.842544 1679.527647 469.842544 1678.818986 C 468.897662 1678.582765 467.71656 1678.346545 466.771678 1678.110324 C 466.535458 1678.818986 466.535458 1679.527647 466.299237 1680.236309 C 465.354355 1680.000088 464.645694 1679.763868 463.700812 1679.527647 C 463.937032 1679.055206 463.937032 1678.346545 464.173253 1677.637883 C 462.99215 1677.401663 462.047268 1677.165442 460.866166 1676.929222 C 460.629945 1677.637883 460.629945 1678.346545 460.393725 1678.818986 C 459.685064 1678.818986 458.976402 1678.582765 458.03152 1678.346545 C 458.267741 1677.637883 458.267741 1677.165442 458.503961 1676.456781 C 457.322859 1676.220561 456.377977 1675.98434 455.196874 1675.74812 C 455.196874 1676.220561 454.960654 1676.929222 454.724433 1677.637883 C 454.015772 1677.401663 453.07089 1677.165442 452.362229 1676.929222 C 452.598449 1676.456781 452.598449 1675.74812 452.834669 1675.039458 C 449.291362 1674.094576 445.511834 1673.149694 441.968527 1671.968592 C 441.732307 1672.677253 441.496086 1673.385915 441.496086 1673.858356 C 440.551204 1673.622135 439.606322 1673.385915 438.897661 1673.149694 C 438.897661 1672.441033 439.133881 1671.732371 439.370102 1671.25993 C 438.42522 1670.787489 437.480338 1670.551269 436.535456 1670.315048 C 436.299236 1670.787489 436.063015 1671.496151 435.826795 1672.204812 C 435.118133 1671.968592 434.173251 1671.496151 433.228369 1671.25993 C 433.46459 1670.551269 433.70081 1670.078828 433.937031 1669.370166 C 432.992149 1669.133946 432.047267 1668.661505 431.338605 1668.425285 L 430.629944 1670.315048 C 429.685062 1669.842607 428.74018 1669.606387 427.795298 1669.133946 C 427.795298 1668.661505 428.031519 1667.952844 428.267739 1667.244182 C 427.559078 1667.007962 426.850416 1666.771741 426.141755 1666.535521 C 425.905534 1667.007962 425.669314 1667.716623 425.433093 1668.425285 C 453.543331 1679.291427 483.779553 1684.960718 514.015775 1684.960718 C 536.220501 1684.960718 558.661447 1681.653632 579.92129 1675.74812 C 602.834677 1669.370166 624.566962 1659.685127 644.645703 1646.92922 C 812.598468 1550.078822 980.551233 1452.992202 1148.503997 1356.141804 C 1163.149667 1344.567 1176.378015 1331.574873 1187.952818 1317.165424 C 1194.566992 1309.133927 1200.472504 1300.62999 1205.905575 1291.653611 C 1223.622112 1263.070933 1235.196915 1230.472506 1239.685105 1197.165417 C 1241.338648 1184.881952 1242.047309 1172.362266 1242.047309 1160.078801 L 1242.047309 1101.732341 C 1242.047309 1099.370137 1242.047309 1097.007932 1242.047309 1094.645727 C 1242.047309 1091.811081 1242.047309 1089.212656 1242.047309 1086.61423 C 1242.047309 1086.37801 1242.047309 1085.433128 1242.047309 1084.960687 C 1242.047309 1053.543362 1242.047309 1022.126038 1242.047309 990.708713 C 1242.047309 972.755957 1242.28353 954.8032 1242.755971 937.086663 C 1242.992191 933.070915 1243.228412 929.055167 1243.700853 925.039419 C 1244.173294 922.204773 1244.409514 919.606348 1244.881955 916.771702 C 1245.354396 912.992174 1246.299278 908.976426 1247.00794 904.960677 C 1248.189042 899.291386 1249.606365 893.385874 1251.496129 887.716582 C 1253.149672 882.04729 1255.039436 876.377999 1257.16542 871.181148 C 1260.000066 863.385872 1263.307153 856.063037 1267.086681 848.740202 C 1267.795342 847.086659 1268.504004 845.433115 1269.448886 844.015792 C 1276.5355 830.787445 1284.803217 818.031539 1294.252037 806.456735 C 1312.677234 783.307128 1335.11818 763.464607 1360.629993 748.346496 C 1369.370151 743.149645 1378.58275 738.425236 1388.031569 734.409487 C 1404.803223 727.322873 1422.51976 722.126022 1440.472517 719.055156 C 1446.141808 718.346494 1452.04732 717.401613 1457.716612 716.929172 C 1467.637872 715.98429 1477.795353 715.511849 1487.952834 715.748069 C 1492.677244 715.748069 1497.637874 715.98429 1502.362284 716.456731 C 1518.425277 717.874053 1534.252049 720.708699 1549.842601 725.196889 C 1551.259924 725.669329 1552.677247 726.14177 1554.09457 726.377991 C 1554.567011 726.377991 1555.511893 726.614211 1555.748113 725.90555 C 1555.984334 725.433109 1556.692995 724.960668 1556.456775 724.488227 C 1556.220554 723.779566 1556.220554 723.070904 1555.511893 722.834684 C 1552.677247 720.708699 1549.606381 718.818935 1546.771735 716.929172 C 1540.393782 712.440982 1533.307167 708.425234 1526.456773 704.881927 C 1378.58275 619.606332 1230.944947 534.094516 1083.307144 448.818921 C 1084.960687 450.000024 1086.61423 450.944906 1088.267774 451.889788 C 1088.976435 452.126008 1088.976435 452.834669 1089.212656 453.543331 C 1089.448876 454.251992 1088.740215 454.488213 1088.267774 455.196874 C 1088.031553 455.669315 1087.086671 455.196874 1086.61423 455.433095 C 1084.488246 454.724433 1082.362262 453.779551 1080.236277 453.07089 C 1065.118166 447.637819 1049.055173 443.622071 1032.99218 441.259866 C 1024.960684 440.078763 1016.929187 439.370102 1008.897691 438.897661 C 1006.063045 438.897661 1003.228399 438.897661 1000.157533 438.66144 Z M 425.433093 1668.425285 C 424.251991 1667.952844 423.307109 1667.480403 422.362227 1667.244182 C 422.598447 1666.535521 422.834668 1665.826859 423.070888 1665.354418 C 422.362227 1664.881977 421.653565 1664.645757 420.944904 1664.409536 C 420.708684 1665.118198 420.472463 1665.590639 420.000022 1666.2993 C 421.889786 1667.007962 423.543329 1667.716623 425.433093 1668.425285 Z M 420.000022 1666.2993 C 419.05514 1665.826859 418.110258 1665.354418 417.165376 1664.881977 C 418.110258 1665.354418 419.05514 1665.826859 420.000022 1666.2993 Z M 417.165376 1664.881977 C 417.401597 1664.409536 417.637817 1663.700875 417.874038 1663.228434 C 417.165376 1662.755993 416.456715 1662.519772 415.511833 1662.047331 C 415.275612 1662.755993 415.039392 1663.464654 414.803171 1663.937095 C 415.511833 1664.409536 416.220494 1664.645757 417.165376 1664.881977 Z M 414.803171 1663.937095 C 413.858289 1663.464654 412.913408 1663.228434 411.968526 1662.755993 C 412.913408 1663.228434 413.858289 1663.464654 414.803171 1663.937095 Z M 411.968526 1662.755993 C 412.204746 1662.047331 412.440967 1661.57489 412.913408 1660.866229 C 411.968526 1660.630009 411.259864 1660.157568 410.551203 1659.921347 C 410.078762 1660.393788 409.842541 1661.10245 409.606321 1661.57489 C 410.314982 1662.047331 411.259864 1662.283552 411.968526 1662.755993 Z M 409.606321 1661.57489 C 408.661439 1661.10245 407.716557 1660.630009 406.771675 1660.393788 C 407.007895 1659.685127 407.480336 1658.976465 407.716557 1658.504024 C 396.141753 1652.834733 385.03939 1646.456779 374.645689 1638.897724 C 374.173248 1639.606385 373.700807 1640.078826 373.464587 1640.551267 C 384.094508 1648.110323 395.433092 1654.960717 407.480336 1660.630009 C 408.188998 1660.866229 408.897659 1661.33867 409.606321 1661.57489 Z M 334.724427 1603.937092 C 334.724427 1604.645754 334.488207 1605.118195 334.488207 1605.590636 C 334.724427 1606.535518 334.960648 1607.480399 335.669309 1607.95284 C 344.881908 1617.874101 355.039389 1626.850479 365.905531 1635.118196 C 366.377972 1634.645755 366.614192 1634.173314 367.086633 1633.464653 C 355.275609 1624.724495 344.645687 1614.803234 334.724427 1603.937092 Z M 370.1575 1635.826858 C 369.685059 1636.299299 369.212618 1636.77174 368.976397 1637.480401 C 369.448838 1637.716622 369.921279 1638.189062 370.39372 1638.425283 C 370.866161 1637.952842 371.102382 1637.480401 371.574823 1636.77174 C 371.102382 1636.535519 370.629941 1636.063078 370.1575 1635.826858 Z M 370.1575 1635.826858 " transform="matrix(0.0165365,0,0,0.0165365,0,0)"/>
<path style="fill:none;stroke-width:11.338583;stroke-linecap:round;stroke-linejoin:round;stroke:rgb(25.882354%,25.882354%,25.882354%);stroke-opacity:1;stroke-miterlimit:4;" d="M 514.251996 159.685048 Z M 514.251996 159.685048 C 514.251996 159.685048 514.251996 159.921268 514.251996 159.921268 C 514.015775 159.921268 514.015775 159.921268 513.779555 159.921268 C 379.606319 159.921268 271.417337 267.87403 271.417337 402.047265 L 271.417337 1440.472517 C 271.417337 1440.472517 271.417337 1440.472517 271.417337 1440.708737 L 271.417337 955.984302 C 375.35435 1267.322901 755.669331 1163.622108 755.905552 1440.000076 L 755.905552 886.7717 C 756.141772 859.606344 756.141772 832.204768 755.905552 805.039412 L 755.905552 715.511849 C 756.141772 697.086651 756.377993 678.661453 756.614213 660.236255 C 762.992166 550.866171 852.75595 454.015772 961.181153 439.606322 C 1003.46462 433.228369 1047.40163 437.952779 1087.322892 453.543331 C 940.629971 369.212618 794.409491 283.937023 647.716569 200.078751 C 638.976412 194.173239 629.763813 188.976388 620.314993 184.488199 C 610.157512 179.527568 599.763811 175.2756 588.661448 171.732292 C 588.661448 171.732292 588.425228 171.496072 588.425228 171.496072 C 587.007905 171.023631 585.590582 170.787411 584.40948 170.31497 C 583.228377 169.842529 582.047275 169.606308 580.866172 169.370088 C 580.629952 169.133867 580.157511 169.133867 579.68507 168.897647 C 558.425226 162.992135 536.456721 159.685048 514.251996 159.685048 Z M 274.015762 1474.960707 C 277.086629 1497.165433 283.228361 1518.189056 291.732299 1538.031577 C 283.228361 1518.189056 277.086629 1497.165433 274.015762 1474.960707 Z M 291.732299 1538.031577 C 298.818913 1554.33079 307.795292 1569.921342 318.425214 1584.094571 C 307.795292 1569.921342 298.818913 1554.33079 291.732299 1538.031577 Z M 318.425214 1584.094571 C 319.370096 1585.511894 320.314977 1586.692997 321.49608 1588.11032 C 320.314977 1586.692997 319.370096 1585.511894 318.425214 1584.094571 Z M 321.7323 1588.582761 C 322.677182 1589.763863 323.622064 1590.944966 324.566946 1592.362288 C 323.622064 1590.944966 322.677182 1589.763863 321.7323 1588.582761 Z M 325.039387 1592.598509 C 325.984269 1594.015832 327.165372 1595.196934 328.110253 1596.378037 C 327.165372 1595.196934 325.984269 1594.015832 325.039387 1592.598509 Z M 328.346474 1596.850478 C 329.527576 1598.03158 330.472458 1599.212682 331.653561 1600.630005 C 330.472458 1599.212682 329.527576 1598.03158 328.346474 1596.850478 Z M 331.889781 1600.866226 C 332.834663 1602.047328 334.015766 1603.228431 335.196868 1604.409533 C 334.015766 1603.228431 332.834663 1602.047328 331.889781 1600.866226 Z M 335.196868 1604.645754 C 341.10238 1611.023707 347.480333 1617.165439 353.858286 1622.834731 C 347.480333 1617.165439 341.10238 1611.023707 335.196868 1604.645754 Z M 354.094507 1623.070951 C 355.275609 1624.015833 356.456712 1624.960715 357.637814 1625.905597 C 356.456712 1624.960715 355.275609 1624.015833 354.094507 1623.070951 Z M 358.346476 1626.614259 C 359.527578 1627.559141 360.47246 1628.267802 361.417342 1629.212684 C 360.47246 1628.267802 359.527578 1627.559141 358.346476 1626.614259 Z M 362.834665 1630.157566 C 363.779547 1631.102448 364.724429 1631.811109 365.669311 1632.519771 C 364.724429 1631.811109 363.779547 1631.102448 362.834665 1630.157566 Z M 367.086633 1633.464653 C 368.031515 1634.409535 368.976397 1635.118196 370.1575 1635.826858 C 368.976397 1635.118196 368.031515 1634.409535 367.086633 1633.464653 Z M 371.574823 1636.77174 C 372.519705 1637.480401 373.464587 1638.425283 374.645689 1638.897724 C 373.464587 1638.425283 372.519705 1637.480401 371.574823 1636.77174 Z M 375.826791 1640.078826 C 377.007894 1640.787488 377.952776 1641.496149 379.133878 1642.204811 C 377.952776 1641.496149 377.007894 1640.787488 375.826791 1640.078826 Z M 380.314981 1642.913472 C 381.496083 1643.622134 382.677185 1644.330795 383.622067 1645.039457 C 382.677185 1644.330795 381.496083 1643.622134 380.314981 1642.913472 Z M 385.03939 1645.984338 C 386.220493 1646.693 387.165375 1647.401661 388.346477 1648.110323 C 387.165375 1647.401661 386.220493 1646.693 385.03939 1645.984338 Z M 389.52758 1648.582764 C 393.307107 1650.944969 397.086635 1653.070953 401.102383 1655.196937 C 397.086635 1653.070953 393.307107 1650.944969 389.52758 1648.582764 Z M 402.519706 1655.905599 C 403.700809 1656.37804 404.645691 1657.086701 405.590573 1657.559142 C 404.645691 1657.086701 403.700809 1656.37804 402.519706 1655.905599 Z M 407.716557 1658.504024 C 408.661439 1658.976465 409.606321 1659.448906 410.551203 1659.921347 C 409.606321 1659.448906 408.661439 1658.976465 407.716557 1658.504024 Z M 412.913408 1660.866229 C 413.622069 1661.33867 414.566951 1661.811111 415.511833 1662.047331 C 414.566951 1661.811111 413.622069 1661.33867 412.913408 1660.866229 Z M 417.874038 1663.228434 C 418.81892 1663.464654 419.763802 1663.937095 420.944904 1664.409536 C 419.763802 1663.937095 418.81892 1663.464654 417.874038 1663.228434 Z M 423.070888 1665.354418 C 424.01577 1665.590639 424.960652 1666.06308 426.141755 1666.535521 C 424.960652 1666.06308 424.01577 1665.590639 423.070888 1665.354418 Z M 428.267739 1667.244182 C 429.212621 1667.716623 430.157503 1667.952844 431.338605 1668.425285 C 430.157503 1667.952844 429.212621 1667.716623 428.267739 1667.244182 Z M 433.937031 1669.370166 C 434.881913 1669.606387 435.590574 1670.078828 436.535456 1670.315048 C 435.590574 1670.078828 434.881913 1669.606387 433.937031 1669.370166 Z M 439.370102 1671.25993 C 440.314984 1671.496151 441.023645 1671.732371 441.968527 1671.968592 C 441.023645 1671.732371 440.314984 1671.496151 439.370102 1671.25993 Z M 445.039393 1672.913474 C 445.748055 1673.149694 446.692937 1673.385915 447.401598 1673.622135 C 446.692937 1673.385915 445.748055 1673.149694 445.039393 1672.913474 Z M 452.834669 1675.039458 C 453.543331 1675.275679 454.488213 1675.511899 455.196874 1675.74812 C 454.488213 1675.511899 453.543331 1675.275679 452.834669 1675.039458 Z M 458.503961 1676.456781 C 459.212623 1676.693002 460.157505 1676.693002 460.866166 1676.929222 C 460.157505 1676.693002 459.212623 1676.693002 458.503961 1676.456781 Z M 567.401605 1676.929222 C 564.094518 1677.637883 561.023652 1678.110324 557.952785 1678.818986 C 561.023652 1678.110324 564.094518 1677.637883 567.401605 1676.929222 Z M 464.173253 1677.637883 C 464.881914 1677.874104 465.826796 1678.110324 466.771678 1678.110324 C 465.826796 1678.110324 464.881914 1677.874104 464.173253 1677.637883 Z M 469.842544 1678.818986 C 470.787426 1679.055206 471.496088 1679.055206 472.44097 1679.291427 C 471.496088 1679.055206 470.787426 1679.055206 469.842544 1678.818986 Z M 555.826801 1679.055206 C 552.283494 1679.763868 548.976407 1680.236309 545.4331 1680.70875 C 548.976407 1680.236309 552.283494 1679.763868 555.826801 1679.055206 Z M 475.511836 1679.763868 C 476.456718 1680.000088 477.4016 1680.000088 478.346482 1680.236309 C 477.4016 1680.000088 476.456718 1680.000088 475.511836 1679.763868 Z M 481.181128 1680.472529 C 482.36223 1680.70875 483.307112 1680.94497 484.251994 1680.94497 C 483.307112 1680.94497 482.36223 1680.70875 481.181128 1680.472529 Z M 544.015777 1680.94497 C 538.346485 1681.653632 532.440973 1682.126073 526.535461 1682.362293 C 532.440973 1682.126073 538.346485 1681.653632 544.015777 1680.94497 Z M 487.08664 1681.181191 C 488.031522 1681.417411 488.976404 1681.417411 489.921286 1681.653632 C 488.976404 1681.417411 488.031522 1681.417411 487.08664 1681.181191 Z M 493.228372 1681.889852 C 493.937034 1681.889852 494.881916 1682.126073 495.826798 1682.126073 C 494.881916 1682.126073 493.937034 1681.889852 493.228372 1681.889852 Z M 499.133885 1682.362293 C 500.078766 1682.362293 500.787428 1682.362293 501.73231 1682.362293 C 500.787428 1682.362293 500.078766 1682.362293 499.133885 1682.362293 Z M 526.06302 1682.362293 C 522.047272 1682.598514 517.795303 1682.834734 513.779555 1682.834734 C 517.795303 1682.834734 522.047272 1682.598514 526.06302 1682.362293 Z M 505.511838 1682.598514 C 506.220499 1682.598514 506.929161 1682.598514 507.874042 1682.598514 C 506.929161 1682.598514 506.220499 1682.598514 505.511838 1682.598514 Z M 505.511838 1682.598514 " transform="matrix(0.0165365,0,0,0.0165365,0,0)"/>
<path style="fill:none;stroke-width:11.338583;stroke-linecap:round;stroke-linejoin:round;stroke:rgb(25.882354%,25.882354%,25.882354%);stroke-opacity:1;stroke-miterlimit:4;" d="M 963.543358 382.204744 L 1525.511891 706.53547 C 1526.692994 707.244132 1527.874096 707.952793 1529.291419 708.661455 C 1527.874096 707.952793 1526.692994 707.244132 1525.511891 706.53547 Z M 1529.291419 708.661455 C 1531.653624 709.842557 1534.252049 711.25988 1536.614254 712.677203 C 1534.252049 711.25988 1531.653624 709.842557 1529.291419 708.661455 Z M 1536.614254 712.677203 C 1542.755987 716.456731 1548.661499 720.236258 1554.567011 724.488227 C 1519.370159 713.622085 1481.811102 710.787439 1445.196926 716.456731 C 1336.771724 730.86618 1247.00794 827.952799 1240.629986 937.322884 C 1240.393766 955.511861 1240.157546 973.937059 1239.921325 992.362257 L 1239.921325 1163.622108 C 1239.921325 1241.102427 1203.779591 1310.078809 1147.322895 1354.25204 L 1525.511891 1135.984312 C 1546.299294 1125.118169 1565.433153 1111.181161 1582.677249 1094.409506 C 1583.14969 1093.700845 1583.858351 1093.228404 1584.567012 1092.519742 C 1585.039453 1092.047301 1585.511894 1091.574861 1585.984335 1091.10242 C 1629.212684 1047.165409 1653.543394 988.582729 1655.196937 928.346505 C 1655.196937 928.110285 1655.196937 927.874065 1655.433158 927.401624 C 1655.433158 926.220521 1655.433158 925.039419 1655.433158 923.622096 C 1655.433158 922.913434 1655.433158 922.204773 1655.433158 921.259891 C 1655.433158 920.551229 1655.433158 919.842568 1655.433158 918.897686 C 1655.433158 917.716584 1655.433158 916.299261 1655.433158 915.118158 C 1655.196937 914.881938 1655.196937 914.409497 1655.196937 914.173276 C 1653.543394 853.937053 1629.212684 795.590593 1585.984335 751.653583 C 1585.511894 751.181142 1585.039453 750.708701 1584.567012 750.23626 C 1583.858351 749.527598 1583.14969 748.818937 1582.677249 748.110276 C 1568.504019 734.409487 1553.149688 722.598463 1536.614254 712.677203 Z M 1240.157546 1086.61423 C 1240.157546 1089.212656 1240.157546 1114.724468 1239.921325 1094.409506 C 1239.921325 1087.559112 1240.157546 1085.905569 1240.157546 1086.61423 Z M 1088.503994 1388.50401 C 1088.267774 1388.50401 1088.031553 1388.74023 1087.795333 1388.74023 L 963.543358 1460.551258 Z M 1088.503994 1388.50401 " transform="matrix(0.0165365,0,0,0.0165365,0,0)"/>
<path style=" stroke:none;fill-rule:nonzero;fill:rgb(0%,0%,0%);fill-opacity:0.247721;" d="M 8.816406 2.214844 C 8.828125 2.21875 8.839844 2.21875 8.851562 2.21875 C 8.839844 2.21875 8.828125 2.21875 8.816406 2.214844 Z M 8.914062 2.226562 C 8.925781 2.226562 8.9375 2.226562 8.949219 2.230469 C 8.9375 2.226562 8.925781 2.226562 8.914062 2.226562 Z M 9.015625 2.238281 C 9.027344 2.238281 9.042969 2.242188 9.054688 2.242188 C 9.042969 2.242188 9.027344 2.238281 9.015625 2.238281 Z M 9.09375 2.25 C 9.109375 2.25 9.128906 2.253906 9.144531 2.257812 C 9.128906 2.253906 9.109375 2.25 9.09375 2.25 Z M 9.171875 2.261719 C 9.191406 2.265625 9.210938 2.269531 9.230469 2.269531 C 9.210938 2.269531 9.191406 2.265625 9.171875 2.261719 Z M 9.242188 2.273438 C 9.273438 2.28125 9.304688 2.285156 9.339844 2.292969 C 9.304688 2.285156 9.273438 2.28125 9.242188 2.273438 Z M 9.390625 2.304688 C 9.398438 2.308594 9.40625 2.308594 9.410156 2.308594 C 9.40625 2.308594 9.398438 2.308594 9.390625 2.304688 Z M 9.5625 2.347656 C 9.566406 2.347656 9.570312 2.351562 9.574219 2.351562 C 9.570312 2.351562 9.566406 2.347656 9.5625 2.347656 Z M 9.632812 2.367188 C 9.640625 2.371094 9.648438 2.375 9.660156 2.375 C 9.648438 2.375 9.640625 2.371094 9.632812 2.367188 Z M 9.703125 2.390625 C 9.714844 2.390625 9.726562 2.398438 9.738281 2.402344 C 9.726562 2.398438 9.714844 2.394531 9.703125 2.390625 Z M 9.773438 2.410156 C 9.785156 2.417969 9.800781 2.421875 9.816406 2.425781 C 9.800781 2.421875 9.785156 2.417969 9.773438 2.410156 Z M 9.84375 2.433594 C 9.859375 2.441406 9.875 2.445312 9.890625 2.453125 C 9.875 2.445312 9.859375 2.441406 9.84375 2.433594 Z M 9.914062 2.460938 C 9.929688 2.46875 9.949219 2.472656 9.964844 2.480469 C 9.949219 2.472656 9.929688 2.46875 9.914062 2.460938 Z M 9.988281 2.488281 C 10.003906 2.496094 10.019531 2.503906 10.035156 2.507812 C 10.019531 2.503906 10.003906 2.496094 9.988281 2.488281 Z M 10.0625 2.519531 C 10.078125 2.527344 10.09375 2.53125 10.105469 2.539062 C 10.09375 2.53125 10.078125 2.527344 10.0625 2.519531 Z M 10.132812 2.550781 C 10.148438 2.558594 10.164062 2.566406 10.179688 2.570312 C 10.164062 2.566406 10.148438 2.558594 10.132812 2.550781 Z M 10.207031 2.582031 C 10.21875 2.589844 10.234375 2.597656 10.25 2.605469 C 10.234375 2.597656 10.21875 2.589844 10.207031 2.582031 Z M 10.347656 2.652344 C 10.359375 2.660156 10.371094 2.664062 10.386719 2.671875 C 10.371094 2.664062 10.359375 2.660156 10.347656 2.652344 Z M 10.445312 2.707031 C 10.453125 2.710938 10.460938 2.714844 10.46875 2.71875 C 10.460938 2.714844 10.453125 2.710938 10.445312 2.707031 Z M 10.507812 2.742188 C 10.519531 2.746094 10.53125 2.753906 10.539062 2.757812 C 10.53125 2.753906 10.519531 2.746094 10.507812 2.742188 Z M 10.570312 2.777344 C 10.582031 2.78125 10.59375 2.789062 10.605469 2.796875 C 10.59375 2.789062 10.582031 2.78125 10.570312 2.777344 Z M 16.488281 6.816406 C 16.292969 6.820312 16.09375 6.835938 15.894531 6.863281 C 14.101562 7.105469 12.617188 8.707031 12.511719 10.515625 C 12.507812 10.820312 12.503906 11.125 12.5 11.425781 L 12.5 11.832031 C 12.503906 11.527344 12.507812 11.222656 12.511719 10.917969 C 12.519531 10.816406 12.53125 10.710938 12.542969 10.609375 C 12.546875 10.578125 12.546875 10.542969 12.546875 10.511719 C 12.5625 10.261719 12.601562 10.015625 12.667969 9.777344 C 12.675781 9.75 12.683594 9.71875 12.691406 9.6875 C 12.78125 9.394531 12.902344 9.113281 13.058594 8.847656 C 13.097656 8.78125 13.140625 8.710938 13.183594 8.648438 C 13.226562 8.578125 13.277344 8.507812 13.328125 8.445312 C 13.417969 8.320312 13.519531 8.203125 13.621094 8.09375 C 13.738281 7.972656 13.859375 7.859375 13.988281 7.753906 C 14.144531 7.625 14.3125 7.503906 14.484375 7.398438 C 14.890625 7.15625 15.339844 6.984375 15.808594 6.910156 C 15.9375 6.890625 16.066406 6.871094 16.195312 6.863281 C 16.261719 6.859375 16.332031 6.855469 16.394531 6.851562 C 16.445312 6.851562 16.492188 6.851562 16.539062 6.851562 C 16.589844 6.851562 16.636719 6.851562 16.683594 6.855469 C 16.75 6.859375 16.816406 6.863281 16.886719 6.867188 C 16.863281 6.855469 16.839844 6.84375 16.816406 6.832031 C 16.707031 6.820312 16.597656 6.816406 16.488281 6.816406 Z M 16.820312 6.832031 L 16.886719 6.867188 Z M 16.894531 6.835938 C 16.917969 6.851562 16.941406 6.863281 16.964844 6.878906 C 16.964844 6.878906 16.96875 6.878906 16.96875 6.878906 C 16.945312 6.863281 16.921875 6.851562 16.898438 6.835938 C 16.898438 6.835938 16.894531 6.835938 16.894531 6.835938 Z M 12.535156 12.84375 C 12.535156 12.964844 12.535156 13.089844 12.535156 13.210938 C 12.535156 13.441406 12.535156 13.667969 12.535156 13.898438 C 12.535156 13.546875 12.535156 13.195312 12.535156 12.84375 Z M 12.503906 13.902344 C 12.503906 14.019531 12.503906 14.140625 12.5 14.257812 L 12.5 14.664062 C 12.503906 14.410156 12.503906 14.15625 12.503906 13.902344 Z M 27.367188 15.03125 C 27.320312 16 26.921875 16.929688 26.226562 17.636719 C 26.21875 17.644531 26.210938 17.652344 26.203125 17.660156 C 26.191406 17.671875 26.179688 17.683594 26.171875 17.691406 C 25.886719 17.972656 25.570312 18.203125 25.226562 18.382812 L 19.148438 21.890625 C 19.097656 21.9375 19.042969 21.980469 18.992188 22.019531 C 16.214844 23.625 13.4375 25.226562 10.660156 26.832031 C 10.328125 27.039062 9.96875 27.199219 9.589844 27.304688 C 9.238281 27.40625 8.867188 27.457031 8.5 27.457031 C 8.0625 27.460938 7.625 27.386719 7.207031 27.246094 C 7.195312 27.242188 7.179688 27.238281 7.167969 27.234375 C 7.167969 27.234375 7.167969 27.234375 7.164062 27.230469 C 7.148438 27.226562 7.136719 27.222656 7.121094 27.214844 C 7.113281 27.214844 7.109375 27.210938 7.105469 27.210938 C 7.09375 27.207031 7.082031 27.203125 7.074219 27.199219 C 7.058594 27.195312 7.046875 27.1875 7.035156 27.183594 C 7.039062 27.175781 7.042969 27.164062 7.046875 27.152344 C 7.027344 27.148438 7.011719 27.140625 6.996094 27.132812 C 6.992188 27.144531 6.988281 27.152344 6.984375 27.164062 C 7 27.171875 7.015625 27.175781 7.035156 27.183594 C 7.015625 27.175781 7 27.171875 6.984375 27.164062 C 6.972656 27.160156 6.957031 27.15625 6.945312 27.148438 C 6.929688 27.140625 6.914062 27.136719 6.898438 27.128906 C 6.882812 27.121094 6.871094 27.117188 6.859375 27.113281 C 6.84375 27.105469 6.828125 27.097656 6.8125 27.089844 C 6.800781 27.085938 6.785156 27.078125 6.773438 27.074219 C 6.761719 27.066406 6.75 27.0625 6.738281 27.054688 C 6.539062 26.960938 6.351562 26.851562 6.175781 26.726562 C 6.179688 26.71875 6.1875 26.707031 6.195312 26.699219 C 6.175781 26.6875 6.160156 26.675781 6.144531 26.664062 C 6.136719 26.671875 6.132812 26.679688 6.125 26.691406 C 6.117188 26.683594 6.109375 26.679688 6.101562 26.671875 C 6.105469 26.664062 6.113281 26.65625 6.121094 26.644531 C 6.101562 26.632812 6.085938 26.621094 6.070312 26.609375 C 6.0625 26.617188 6.058594 26.625 6.050781 26.636719 C 5.871094 26.5 5.703125 26.347656 5.550781 26.183594 C 5.539062 26.175781 5.535156 26.160156 5.53125 26.148438 C 5.53125 26.136719 5.535156 26.128906 5.535156 26.121094 C 5.515625 26.101562 5.5 26.082031 5.484375 26.0625 C 5.464844 26.042969 5.449219 26.019531 5.429688 26 C 5.429688 26 5.425781 25.996094 5.425781 25.996094 C 5.417969 25.984375 5.40625 25.972656 5.398438 25.960938 C 5.386719 25.949219 5.378906 25.9375 5.367188 25.925781 C 5.351562 25.90625 5.335938 25.886719 5.320312 25.867188 C 5.320312 25.863281 5.320312 25.863281 5.320312 25.863281 C 5.316406 25.859375 5.316406 25.859375 5.316406 25.855469 C 5.304688 25.84375 5.296875 25.832031 5.289062 25.820312 C 5.253906 25.777344 5.21875 25.730469 5.1875 25.683594 C 5.175781 25.664062 5.164062 25.644531 5.148438 25.625 C 5.140625 25.613281 5.136719 25.605469 5.128906 25.59375 C 5.117188 25.574219 5.105469 25.554688 5.09375 25.539062 C 5.09375 25.539062 5.09375 25.539062 5.09375 25.535156 C 4.964844 25.328125 4.851562 25.105469 4.761719 24.875 C 4.757812 24.867188 4.757812 24.863281 4.753906 24.855469 C 4.746094 24.832031 4.734375 24.804688 4.726562 24.777344 C 4.714844 24.753906 4.707031 24.726562 4.699219 24.699219 C 4.695312 24.695312 4.695312 24.691406 4.691406 24.683594 C 4.691406 24.683594 4.691406 24.683594 4.691406 24.679688 C 4.683594 24.660156 4.679688 24.640625 4.671875 24.621094 C 4.671875 24.613281 4.667969 24.609375 4.667969 24.601562 C 4.648438 24.550781 4.636719 24.496094 4.621094 24.441406 C 4.621094 24.4375 4.617188 24.429688 4.617188 24.425781 C 4.617188 24.425781 4.617188 24.421875 4.617188 24.421875 C 4.613281 24.417969 4.613281 24.414062 4.613281 24.410156 C 4.609375 24.390625 4.601562 24.371094 4.597656 24.355469 C 4.597656 24.351562 4.597656 24.347656 4.597656 24.34375 C 4.582031 24.289062 4.570312 24.230469 4.5625 24.175781 C 4.558594 24.167969 4.558594 24.164062 4.558594 24.15625 C 4.558594 24.15625 4.554688 24.152344 4.554688 24.152344 C 4.550781 24.132812 4.550781 24.113281 4.546875 24.09375 C 4.546875 24.09375 4.546875 24.089844 4.542969 24.085938 C 4.542969 24.082031 4.542969 24.078125 4.542969 24.074219 C 4.542969 24.074219 4.542969 24.070312 4.542969 24.070312 C 4.542969 24.0625 4.539062 24.058594 4.539062 24.054688 C 4.535156 24.03125 4.53125 24.011719 4.53125 23.988281 L 4.488281 23.988281 L 4.488281 24.390625 L 4.53125 24.390625 C 4.53125 24.414062 4.535156 24.4375 4.539062 24.457031 C 4.539062 24.464844 4.542969 24.46875 4.542969 24.472656 C 4.542969 24.476562 4.542969 24.476562 4.542969 24.476562 C 4.542969 24.484375 4.542969 24.488281 4.542969 24.492188 C 4.546875 24.496094 4.546875 24.496094 4.546875 24.5 C 4.550781 24.519531 4.550781 24.535156 4.554688 24.554688 C 4.554688 24.558594 4.558594 24.558594 4.558594 24.5625 C 4.558594 24.570312 4.558594 24.574219 4.5625 24.578125 C 4.570312 24.636719 4.582031 24.691406 4.597656 24.746094 C 4.597656 24.75 4.597656 24.753906 4.597656 24.757812 C 4.601562 24.777344 4.609375 24.792969 4.613281 24.8125 C 4.613281 24.816406 4.613281 24.820312 4.617188 24.824219 C 4.617188 24.828125 4.617188 24.828125 4.617188 24.832031 C 4.617188 24.835938 4.621094 24.839844 4.621094 24.84375 C 4.636719 24.898438 4.648438 24.953125 4.667969 25.007812 C 4.667969 25.011719 4.671875 25.019531 4.671875 25.023438 C 4.671875 25.023438 4.671875 25.027344 4.671875 25.027344 C 4.679688 25.046875 4.683594 25.066406 4.691406 25.085938 C 4.691406 25.085938 4.691406 25.085938 4.691406 25.089844 C 4.695312 25.09375 4.695312 25.101562 4.699219 25.105469 C 4.707031 25.132812 4.714844 25.15625 4.726562 25.183594 C 4.734375 25.210938 4.746094 25.234375 4.753906 25.261719 C 4.757812 25.265625 4.757812 25.273438 4.761719 25.277344 C 4.851562 25.511719 4.964844 25.734375 5.09375 25.941406 C 5.105469 25.960938 5.117188 25.980469 5.128906 26 C 5.132812 26.003906 5.136719 26.007812 5.140625 26.015625 C 5.140625 26.019531 5.144531 26.023438 5.148438 26.027344 C 5.148438 26.027344 5.148438 26.03125 5.148438 26.03125 C 5.164062 26.050781 5.175781 26.066406 5.1875 26.085938 C 5.21875 26.132812 5.253906 26.179688 5.289062 26.226562 C 5.296875 26.238281 5.304688 26.25 5.316406 26.261719 C 5.316406 26.261719 5.316406 26.265625 5.320312 26.269531 C 5.335938 26.289062 5.351562 26.3125 5.367188 26.332031 C 5.378906 26.34375 5.386719 26.355469 5.398438 26.367188 C 5.40625 26.378906 5.417969 26.390625 5.425781 26.398438 C 5.425781 26.402344 5.429688 26.402344 5.429688 26.40625 C 5.449219 26.425781 5.464844 26.445312 5.484375 26.46875 C 5.5 26.484375 5.515625 26.503906 5.535156 26.523438 C 5.535156 26.535156 5.53125 26.542969 5.53125 26.550781 C 5.535156 26.566406 5.539062 26.582031 5.550781 26.589844 C 5.703125 26.753906 5.871094 26.902344 6.050781 27.039062 C 6.058594 27.03125 6.0625 27.023438 6.070312 27.011719 C 6.085938 27.027344 6.101562 27.039062 6.121094 27.050781 C 6.113281 27.058594 6.105469 27.066406 6.101562 27.078125 C 6.109375 27.082031 6.117188 27.089844 6.125 27.09375 C 6.132812 27.085938 6.136719 27.078125 6.144531 27.066406 C 6.160156 27.078125 6.175781 27.09375 6.195312 27.101562 C 6.1875 27.113281 6.179688 27.121094 6.175781 27.128906 C 6.351562 27.253906 6.539062 27.367188 6.738281 27.460938 C 6.75 27.464844 6.761719 27.472656 6.773438 27.476562 C 6.757812 27.46875 6.742188 27.460938 6.726562 27.457031 C 6.730469 27.445312 6.738281 27.433594 6.742188 27.425781 C 6.757812 27.433594 6.773438 27.441406 6.789062 27.449219 C 6.78125 27.457031 6.777344 27.46875 6.773438 27.476562 C 6.785156 27.484375 6.800781 27.488281 6.8125 27.496094 C 6.816406 27.484375 6.820312 27.476562 6.828125 27.464844 C 6.839844 27.472656 6.855469 27.480469 6.871094 27.484375 C 6.867188 27.496094 6.863281 27.507812 6.859375 27.515625 C 6.871094 27.523438 6.882812 27.527344 6.898438 27.53125 C 6.902344 27.523438 6.90625 27.511719 6.910156 27.503906 C 6.925781 27.507812 6.941406 27.515625 6.960938 27.523438 C 6.957031 27.535156 6.953125 27.542969 6.945312 27.554688 C 6.957031 27.558594 6.972656 27.5625 6.984375 27.570312 C 6.988281 27.558594 6.992188 27.546875 6.996094 27.539062 C 7.011719 27.542969 7.027344 27.550781 7.046875 27.558594 C 7.042969 27.566406 7.039062 27.578125 7.035156 27.589844 C 7.046875 27.59375 7.058594 27.597656 7.074219 27.601562 C 7.078125 27.59375 7.078125 27.582031 7.082031 27.570312 C 7.097656 27.578125 7.113281 27.582031 7.132812 27.589844 L 7.121094 27.621094 C 7.136719 27.625 7.148438 27.632812 7.164062 27.636719 C 7.167969 27.625 7.171875 27.617188 7.175781 27.605469 C 7.191406 27.609375 7.203125 27.617188 7.21875 27.621094 C 7.214844 27.628906 7.210938 27.640625 7.207031 27.652344 C 7.625 27.792969 8.0625 27.863281 8.5 27.863281 C 8.867188 27.863281 9.238281 27.808594 9.589844 27.710938 C 9.96875 27.605469 10.328125 27.445312 10.660156 27.234375 C 13.4375 25.632812 16.214844 24.027344 18.992188 22.425781 C 19.042969 22.382812 19.097656 22.339844 19.148438 22.296875 L 25.226562 18.785156 C 25.570312 18.605469 25.886719 18.375 26.171875 18.097656 C 26.179688 18.085938 26.191406 18.078125 26.203125 18.066406 C 26.210938 18.058594 26.21875 18.050781 26.226562 18.042969 C 26.941406 17.316406 27.34375 16.347656 27.371094 15.351562 C 27.371094 15.347656 27.371094 15.34375 27.375 15.335938 C 27.375 15.316406 27.375 15.296875 27.375 15.273438 C 27.375 15.261719 27.375 15.25 27.375 15.234375 C 27.375 15.222656 27.375 15.210938 27.375 15.195312 C 27.375 15.175781 27.375 15.152344 27.375 15.132812 C 27.371094 15.128906 27.371094 15.121094 27.371094 15.117188 C 27.371094 15.089844 27.371094 15.0625 27.367188 15.03125 Z M 7.207031 27.652344 C 7.207031 27.652344 7.207031 27.652344 7.203125 27.648438 C 7.207031 27.652344 7.207031 27.652344 7.207031 27.652344 Z M 7.203125 27.648438 C 7.191406 27.644531 7.183594 27.644531 7.171875 27.640625 C 7.183594 27.644531 7.191406 27.644531 7.203125 27.648438 Z M 7.171875 27.640625 C 7.167969 27.636719 7.167969 27.636719 7.164062 27.636719 C 7.167969 27.636719 7.167969 27.636719 7.171875 27.640625 Z M 7.121094 27.621094 C 7.113281 27.617188 7.109375 27.617188 7.105469 27.617188 C 7.109375 27.617188 7.113281 27.617188 7.121094 27.621094 Z M 7.105469 27.617188 C 7.09375 27.613281 7.082031 27.605469 7.074219 27.601562 C 7.082031 27.605469 7.09375 27.613281 7.105469 27.617188 Z M 7.035156 27.589844 C 7.015625 27.582031 7 27.574219 6.984375 27.570312 C 7 27.574219 7.015625 27.582031 7.035156 27.589844 Z M 6.945312 27.554688 C 6.929688 27.546875 6.914062 27.539062 6.898438 27.53125 C 6.914062 27.539062 6.929688 27.546875 6.945312 27.554688 Z M 6.859375 27.515625 C 6.84375 27.507812 6.828125 27.503906 6.8125 27.496094 C 6.828125 27.503906 6.84375 27.507812 6.859375 27.515625 Z M 6.773438 27.074219 C 6.777344 27.0625 6.78125 27.054688 6.789062 27.042969 C 6.773438 27.035156 6.757812 27.027344 6.742188 27.019531 C 6.738281 27.03125 6.730469 27.042969 6.726562 27.050781 C 6.742188 27.058594 6.757812 27.066406 6.773438 27.074219 Z M 7.105469 27.210938 C 7.109375 27.210938 7.113281 27.214844 7.121094 27.214844 L 7.132812 27.183594 C 7.113281 27.179688 7.097656 27.171875 7.082031 27.167969 C 7.078125 27.179688 7.074219 27.1875 7.074219 27.199219 C 7.082031 27.203125 7.09375 27.207031 7.105469 27.210938 Z M 7.164062 27.230469 C 7.167969 27.234375 7.167969 27.234375 7.167969 27.234375 C 7.179688 27.238281 7.195312 27.242188 7.207031 27.246094 C 7.210938 27.238281 7.214844 27.226562 7.21875 27.214844 C 7.203125 27.210938 7.191406 27.207031 7.175781 27.199219 C 7.171875 27.210938 7.167969 27.222656 7.164062 27.230469 Z M 12.535156 23.378906 C 12.535156 23.386719 12.535156 23.394531 12.535156 23.402344 C 12.535156 23.394531 12.535156 23.386719 12.535156 23.378906 Z M 4.488281 23.414062 L 4.488281 23.820312 C 4.488281 23.820312 4.488281 23.820312 4.488281 23.824219 L 4.488281 23.417969 C 4.488281 23.417969 4.488281 23.417969 4.488281 23.414062 Z M 12.5 23.421875 C 12.5 23.425781 12.5 23.433594 12.5 23.441406 Z M 6.828125 27.0625 C 6.820312 27.070312 6.816406 27.082031 6.8125 27.089844 C 6.828125 27.097656 6.84375 27.105469 6.859375 27.113281 C 6.863281 27.101562 6.867188 27.089844 6.871094 27.082031 C 6.855469 27.074219 6.839844 27.066406 6.828125 27.0625 Z M 6.910156 27.097656 C 6.90625 27.109375 6.902344 27.117188 6.898438 27.128906 C 6.914062 27.136719 6.929688 27.140625 6.945312 27.148438 C 6.953125 27.140625 6.957031 27.128906 6.960938 27.117188 C 6.941406 27.113281 6.925781 27.105469 6.910156 27.097656 Z M 7.265625 27.230469 C 7.261719 27.242188 7.257812 27.253906 7.257812 27.261719 C 7.269531 27.265625 7.285156 27.273438 7.300781 27.277344 C 7.300781 27.265625 7.304688 27.253906 7.308594 27.246094 C 7.292969 27.242188 7.28125 27.234375 7.265625 27.230469 Z M 7.488281 27.296875 C 7.484375 27.304688 7.484375 27.316406 7.480469 27.328125 C 7.492188 27.332031 7.507812 27.335938 7.519531 27.335938 C 7.523438 27.328125 7.527344 27.316406 7.527344 27.304688 C 7.515625 27.300781 7.5 27.296875 7.488281 27.296875 Z M 7.582031 27.316406 C 7.578125 27.328125 7.578125 27.339844 7.574219 27.351562 C 7.589844 27.351562 7.601562 27.355469 7.613281 27.359375 C 7.617188 27.347656 7.617188 27.335938 7.621094 27.328125 C 7.609375 27.324219 7.59375 27.320312 7.582031 27.316406 Z M 7.675781 27.339844 C 7.671875 27.347656 7.671875 27.359375 7.667969 27.371094 C 7.683594 27.375 7.695312 27.375 7.710938 27.378906 C 7.714844 27.367188 7.714844 27.359375 7.71875 27.347656 C 7.703125 27.34375 7.6875 27.339844 7.675781 27.339844 Z M 7.769531 27.355469 C 7.769531 27.367188 7.765625 27.378906 7.765625 27.390625 C 7.777344 27.390625 7.792969 27.394531 7.808594 27.398438 C 7.808594 27.386719 7.8125 27.375 7.8125 27.363281 C 7.796875 27.363281 7.785156 27.359375 7.769531 27.355469 Z M 7.863281 27.371094 C 7.863281 27.382812 7.859375 27.394531 7.859375 27.40625 C 7.875 27.40625 7.890625 27.410156 7.90625 27.414062 C 7.90625 27.402344 7.910156 27.390625 7.910156 27.378906 C 7.894531 27.378906 7.878906 27.375 7.863281 27.371094 Z M 7.957031 27.386719 C 7.957031 27.398438 7.957031 27.410156 7.953125 27.417969 C 7.96875 27.421875 7.988281 27.421875 8.003906 27.425781 C 8.003906 27.414062 8.003906 27.402344 8.007812 27.390625 C 7.992188 27.390625 7.976562 27.386719 7.957031 27.386719 Z M 8.054688 27.398438 C 8.054688 27.410156 8.054688 27.421875 8.054688 27.429688 C 8.066406 27.433594 8.082031 27.433594 8.097656 27.4375 C 8.101562 27.425781 8.101562 27.414062 8.101562 27.402344 C 8.085938 27.402344 8.070312 27.398438 8.054688 27.398438 Z M 8.15625 27.40625 C 8.152344 27.417969 8.152344 27.429688 8.152344 27.441406 C 8.167969 27.441406 8.183594 27.441406 8.199219 27.445312 C 8.199219 27.433594 8.199219 27.421875 8.199219 27.410156 C 8.183594 27.410156 8.167969 27.410156 8.15625 27.40625 Z M 8.253906 27.414062 C 8.253906 27.425781 8.253906 27.4375 8.253906 27.449219 C 8.265625 27.449219 8.28125 27.449219 8.296875 27.449219 C 8.296875 27.4375 8.296875 27.429688 8.296875 27.417969 C 8.28125 27.417969 8.269531 27.414062 8.253906 27.414062 Z M 8.359375 27.417969 C 8.359375 27.429688 8.359375 27.441406 8.355469 27.453125 C 8.371094 27.453125 8.382812 27.453125 8.394531 27.453125 C 8.394531 27.441406 8.394531 27.433594 8.398438 27.421875 C 8.382812 27.421875 8.371094 27.417969 8.359375 27.417969 Z M 7.265625 27.636719 C 7.28125 27.640625 7.292969 27.644531 7.308594 27.648438 C 7.304688 27.660156 7.300781 27.671875 7.300781 27.679688 C 7.285156 27.675781 7.269531 27.671875 7.257812 27.667969 C 7.257812 27.65625 7.261719 27.644531 7.265625 27.636719 Z M 7.488281 27.699219 C 7.5 27.703125 7.515625 27.707031 7.527344 27.710938 C 7.527344 27.71875 7.523438 27.730469 7.519531 27.742188 C 7.507812 27.738281 7.492188 27.734375 7.480469 27.730469 C 7.484375 27.722656 7.484375 27.710938 7.488281 27.699219 Z M 7.582031 27.722656 C 7.59375 27.726562 7.609375 27.726562 7.621094 27.730469 C 7.617188 27.742188 7.617188 27.753906 7.613281 27.761719 C 7.601562 27.761719 7.589844 27.757812 7.574219 27.753906 C 7.578125 27.742188 7.578125 27.734375 7.582031 27.722656 Z M 7.675781 27.742188 C 7.6875 27.746094 7.703125 27.75 7.71875 27.75 C 7.714844 27.761719 7.714844 27.773438 7.710938 27.785156 C 7.695312 27.78125 7.683594 27.777344 7.667969 27.773438 C 7.671875 27.765625 7.671875 27.753906 7.675781 27.742188 Z M 7.769531 27.761719 C 7.785156 27.765625 7.796875 27.765625 7.8125 27.769531 C 7.8125 27.78125 7.808594 27.789062 7.808594 27.800781 C 7.792969 27.796875 7.777344 27.796875 7.765625 27.792969 C 7.765625 27.78125 7.769531 27.773438 7.769531 27.761719 Z M 7.863281 27.777344 C 7.878906 27.78125 7.894531 27.78125 7.910156 27.785156 C 7.910156 27.796875 7.90625 27.804688 7.90625 27.816406 C 7.890625 27.816406 7.875 27.8125 7.859375 27.808594 C 7.859375 27.800781 7.863281 27.789062 7.863281 27.777344 Z M 7.957031 27.789062 C 7.976562 27.792969 7.992188 27.796875 8.007812 27.796875 C 8.003906 27.808594 8.003906 27.820312 8.003906 27.828125 C 7.988281 27.828125 7.96875 27.824219 7.953125 27.824219 C 7.957031 27.8125 7.957031 27.800781 7.957031 27.789062 Z M 8.054688 27.800781 C 8.070312 27.804688 8.085938 27.804688 8.101562 27.808594 C 8.101562 27.816406 8.101562 27.828125 8.097656 27.839844 C 8.082031 27.839844 8.066406 27.835938 8.054688 27.835938 C 8.054688 27.824219 8.054688 27.8125 8.054688 27.800781 Z M 8.15625 27.8125 C 8.167969 27.8125 8.183594 27.816406 8.199219 27.816406 C 8.199219 27.828125 8.199219 27.835938 8.199219 27.847656 C 8.183594 27.847656 8.167969 27.847656 8.152344 27.84375 C 8.152344 27.832031 8.152344 27.824219 8.15625 27.8125 Z M 8.253906 27.820312 C 8.269531 27.820312 8.28125 27.820312 8.296875 27.820312 C 8.296875 27.832031 8.296875 27.84375 8.296875 27.855469 C 8.28125 27.855469 8.265625 27.851562 8.253906 27.851562 C 8.253906 27.839844 8.253906 27.828125 8.253906 27.820312 Z M 8.359375 27.824219 C 8.371094 27.824219 8.382812 27.824219 8.398438 27.824219 C 8.394531 27.835938 8.394531 27.847656 8.394531 27.859375 C 8.382812 27.859375 8.371094 27.855469 8.355469 27.855469 C 8.359375 27.847656 8.359375 27.835938 8.359375 27.824219 Z M 8.359375 27.824219 "/>
</g>
</svg>
