<?xml version="1.0" encoding="UTF-8"?>
<svg xmlns="http://www.w3.org/2000/svg" xmlns:xlink="http://www.w3.org/1999/xlink" width="32px" height="32px" viewBox="0 0 32 32" version="1.1">
<defs>
<linearGradient id="linear0" gradientUnits="userSpaceOnUse" x1="254" y1="233.5" x2="254" y2="254.666672" gradientTransform="matrix(0.062506,0,0,0.062506,-0.00000381506,13.438787)">
<stop offset="0" style="stop-color:rgb(0%,0%,0%);stop-opacity:0.27451;"/>
<stop offset="1" style="stop-color:rgb(0%,0%,0%);stop-opacity:0;"/>
</linearGradient>
<radialGradient id="radial0" gradientUnits="userSpaceOnUse" cx="450.908936" cy="189.579361" fx="450.908936" fy="189.579361" r="21.166656" gradientTransform="matrix(0.00000017417,-0.0781325,-0.140638,-0.000000101539,54.115213,63.595334)">
<stop offset="0" style="stop-color:rgb(0%,0%,0%);stop-opacity:0.313726;"/>
<stop offset="0.222222" style="stop-color:rgb(0%,0%,0%);stop-opacity:0.27451;"/>
<stop offset="1" style="stop-color:rgb(0%,0%,0%);stop-opacity:0;"/>
</radialGradient>
<radialGradient id="radial1" gradientUnits="userSpaceOnUse" cx="450.908936" cy="189.579361" fx="450.908936" fy="189.579361" r="21.166656" gradientTransform="matrix(-0.00000017417,0.0781325,0.140638,0.000000101539,-22.362178,-7.527477)">
<stop offset="0" style="stop-color:rgb(0%,0%,0%);stop-opacity:0.313726;"/>
<stop offset="0.222222" style="stop-color:rgb(0%,0%,0%);stop-opacity:0.27451;"/>
<stop offset="1" style="stop-color:rgb(0%,0%,0%);stop-opacity:0;"/>
</radialGradient>
<radialGradient id="radial2" gradientUnits="userSpaceOnUse" cx="450.908936" cy="189.579361" fx="450.908936" fy="189.579361" r="21.166656" gradientTransform="matrix(-0.00000017417,-0.0781325,0.140638,-0.000000101539,-22.362178,63.595334)">
<stop offset="0" style="stop-color:rgb(0%,0%,0%);stop-opacity:0.313726;"/>
<stop offset="0.222222" style="stop-color:rgb(0%,0%,0%);stop-opacity:0.27451;"/>
<stop offset="1" style="stop-color:rgb(0%,0%,0%);stop-opacity:0;"/>
</radialGradient>
<radialGradient id="radial3" gradientUnits="userSpaceOnUse" cx="450.908936" cy="189.579361" fx="450.908936" fy="189.579361" r="21.166656" gradientTransform="matrix(0.00000017417,0.0781325,-0.140638,0.000000101539,54.115211,-7.527477)">
<stop offset="0" style="stop-color:rgb(0%,0%,0%);stop-opacity:0.313726;"/>
<stop offset="0.222222" style="stop-color:rgb(0%,0%,0%);stop-opacity:0.27451;"/>
<stop offset="1" style="stop-color:rgb(0%,0%,0%);stop-opacity:0;"/>
</radialGradient>
<linearGradient id="linear1" gradientUnits="userSpaceOnUse" x1="254" y1="-147.5" x2="254" y2="-31.083334" gradientTransform="matrix(0.062506,0,0,0.062506,0.00000124975,13.438781)">
<stop offset="0" style="stop-color:rgb(64.313728%,64.313728%,64.313728%);stop-opacity:0;"/>
<stop offset="1" style="stop-color:rgb(100%,100%,100%);stop-opacity:0.196078;"/>
</linearGradient>
<linearGradient id="linear2" gradientUnits="userSpaceOnUse" x1="254" y1="233.5" x2="254" y2="-105.166656" gradientTransform="matrix(0.062506,0,0,0.062506,-0.00000181239,13.438783)">
<stop offset="0" style="stop-color:rgb(34.509805%,34.509805%,34.509805%);stop-opacity:0;"/>
<stop offset="1" style="stop-color:rgb(98.039216%,98.039216%,98.039216%);stop-opacity:0.196078;"/>
</linearGradient>
</defs>
<g id="surface1">
<path style=" stroke:none;fill-rule:nonzero;fill:url(#linear0);" d="M 3.96875 28.035156 L 27.785156 28.035156 L 27.785156 29.355469 L 3.96875 29.355469 Z M 3.96875 28.035156 "/>
<path style=" stroke:none;fill-rule:nonzero;fill:url(#radial0);" d="M 27.785156 28.035156 L 30.429688 28.035156 L 30.429688 26.710938 L 27.785156 26.710938 Z M 27.785156 28.035156 "/>
<path style=" stroke:none;fill-rule:nonzero;fill:url(#radial1);" d="M 3.96875 28.035156 L 1.324219 28.035156 L 1.324219 29.355469 L 3.96875 29.355469 Z M 3.96875 28.035156 "/>
<path style=" stroke:none;fill-rule:nonzero;fill:url(#radial2);" d="M 3.96875 28.035156 L 1.324219 28.035156 L 1.324219 26.710938 L 3.96875 26.710938 Z M 3.96875 28.035156 "/>
<path style=" stroke:none;fill-rule:nonzero;fill:url(#radial3);" d="M 27.785156 28.035156 L 30.429688 28.035156 L 30.429688 29.355469 L 27.785156 29.355469 Z M 27.785156 28.035156 "/>
<path style=" stroke:none;fill-rule:nonzero;fill:rgb(56.470591%,64.313728%,68.235296%);fill-opacity:1;" d="M 7.277344 4.21875 L 28.777344 4.21875 C 29.507812 4.21875 30.097656 4.8125 30.097656 5.542969 L 30.097656 10.503906 C 30.097656 11.234375 29.507812 11.828125 28.777344 11.828125 L 7.277344 11.828125 C 6.546875 11.828125 5.953125 11.234375 5.953125 10.503906 L 5.953125 5.542969 C 5.953125 4.8125 6.546875 4.21875 7.277344 4.21875 Z M 7.277344 4.21875 "/>
<path style=" stroke:none;fill-rule:nonzero;fill:url(#linear1);" d="M 7.277344 4.21875 L 28.777344 4.21875 C 29.507812 4.21875 30.097656 4.8125 30.097656 5.542969 L 30.097656 10.503906 C 30.097656 11.234375 29.507812 11.828125 28.777344 11.828125 L 7.277344 11.828125 C 6.546875 11.828125 5.953125 11.234375 5.953125 10.503906 L 5.953125 5.542969 C 5.953125 4.8125 6.546875 4.21875 7.277344 4.21875 Z M 7.277344 4.21875 "/>
<path style=" stroke:none;fill-rule:nonzero;fill:rgb(96.862745%,96.862745%,96.862745%);fill-opacity:0.392157;" d="M 7.277344 4.308594 C 6.542969 4.308594 5.953125 4.898438 5.953125 5.628906 L 5.953125 5.796875 C 5.953125 5.0625 6.542969 4.472656 7.277344 4.472656 L 28.777344 4.472656 C 29.507812 4.472656 30.097656 5.0625 30.097656 5.796875 L 30.097656 5.628906 C 30.097656 4.898438 29.507812 4.308594 28.777344 4.308594 Z M 7.277344 4.308594 "/>
<path style=" stroke:none;fill-rule:nonzero;fill:rgb(12.941177%,12.941177%,12.941177%);fill-opacity:1;" d="M 7.277344 4.125 C 6.492188 4.125 5.859375 4.757812 5.859375 5.542969 L 5.859375 10.503906 C 5.859375 11.285156 6.492188 11.921875 7.277344 11.921875 L 28.777344 11.921875 C 29.558594 11.921875 30.191406 11.285156 30.191406 10.503906 L 30.191406 5.542969 C 30.191406 4.757812 29.558594 4.125 28.777344 4.125 Z M 7.277344 4.3125 L 28.777344 4.3125 C 29.457031 4.3125 30.003906 4.859375 30.003906 5.542969 L 30.003906 10.503906 C 30.003906 11.1875 29.457031 11.734375 28.777344 11.734375 L 7.277344 11.734375 C 6.59375 11.734375 6.046875 11.1875 6.046875 10.503906 L 6.046875 5.542969 C 6.046875 4.859375 6.59375 4.3125 7.277344 4.3125 Z M 7.277344 4.3125 "/>
<path style=" stroke:none;fill-rule:nonzero;fill:rgb(69.01961%,74.509805%,77.254903%);fill-opacity:1;" d="M 2.644531 6.863281 C 1.914062 6.863281 1.324219 7.457031 1.324219 8.1875 L 1.324219 26.710938 C 1.324219 27.445312 1.914062 28.035156 2.644531 28.035156 L 29.105469 28.035156 C 29.839844 28.035156 30.429688 27.445312 30.429688 26.710938 L 30.429688 10.171875 L 12.570312 10.171875 C 11.835938 10.171875 11.246094 9.582031 11.246094 8.851562 L 11.246094 6.863281 Z M 2.644531 6.863281 "/>
<path style=" stroke:none;fill-rule:nonzero;fill:url(#linear2);" d="M 2.644531 6.863281 C 1.914062 6.863281 1.324219 7.457031 1.324219 8.1875 L 1.324219 26.710938 C 1.324219 27.445312 1.914062 28.035156 2.644531 28.035156 L 29.105469 28.035156 C 29.839844 28.035156 30.429688 27.445312 30.429688 26.710938 L 30.429688 10.171875 L 12.570312 10.171875 C 11.835938 10.171875 11.246094 9.582031 11.246094 8.851562 L 11.246094 6.863281 Z M 2.644531 6.863281 "/>
<path style=" stroke:none;fill-rule:nonzero;fill:rgb(0%,0%,0%);fill-opacity:0.196078;" d="M 2.644531 28.035156 C 1.914062 28.035156 1.324219 27.445312 1.324219 26.710938 L 1.324219 26.546875 C 1.324219 27.277344 1.914062 27.867188 2.644531 27.867188 L 29.105469 27.867188 C 29.839844 27.867188 30.429688 27.277344 30.429688 26.546875 L 30.429688 26.710938 C 30.429688 27.445312 29.839844 28.035156 29.105469 28.035156 Z M 2.644531 28.035156 "/>
<path style=" stroke:none;fill-rule:nonzero;fill:rgb(100%,100%,100%);fill-opacity:0.392157;" d="M 2.644531 6.949219 C 1.914062 6.949219 1.324219 7.539062 1.324219 8.269531 L 1.324219 8.4375 C 1.324219 7.703125 1.914062 7.113281 2.644531 7.113281 L 11.246094 7.113281 L 11.246094 6.949219 Z M 2.644531 6.949219 "/>
<path style=" stroke:none;fill-rule:nonzero;fill:rgb(100%,100%,100%);fill-opacity:0.392157;" d="M 12.484375 10.339844 C 11.753906 10.339844 11.164062 9.75 11.164062 9.015625 L 11.164062 8.851562 C 11.164062 9.582031 11.753906 10.175781 12.484375 10.171875 L 30.429688 10.171875 L 30.429688 10.339844 Z M 12.484375 10.339844 "/>
<path style=" stroke:none;fill-rule:nonzero;fill:rgb(12.941177%,12.941177%,12.941177%);fill-opacity:1;" d="M 2.644531 6.769531 C 1.863281 6.769531 1.230469 7.40625 1.230469 8.1875 L 1.230469 26.710938 C 1.230469 27.496094 1.863281 28.128906 2.644531 28.128906 L 29.105469 28.128906 C 29.890625 28.128906 30.523438 27.496094 30.523438 26.710938 L 30.523438 9.984375 L 12.570312 9.984375 C 11.886719 9.984375 11.339844 9.4375 11.339844 8.757812 L 11.339844 6.769531 Z M 2.644531 6.960938 L 11.152344 6.960938 L 11.152344 8.757812 C 11.152344 9.539062 11.785156 10.171875 12.570312 10.171875 L 30.335938 10.171875 L 30.335938 26.710938 C 30.335938 27.394531 29.789062 27.941406 29.105469 27.941406 L 2.644531 27.941406 C 1.964844 27.941406 1.417969 27.394531 1.417969 26.710938 L 1.417969 8.1875 C 1.417969 7.503906 1.964844 6.960938 2.644531 6.960938 Z M 2.644531 6.960938 "/>
<path style=" stroke:none;fill-rule:nonzero;fill:rgb(47.058824%,56.470591%,61.176473%);fill-opacity:1;" d="M 16.414062 12.820312 C 16.046875 12.808594 15.730469 13.089844 15.707031 13.457031 C 15.683594 13.828125 15.953125 14.148438 16.320312 14.1875 C 17.171875 14.289062 17.988281 14.660156 18.648438 15.320312 C 20.199219 16.875 20.199219 19.34375 18.648438 20.898438 C 17.09375 22.453125 14.621094 22.453125 13.070312 20.898438 C 12.410156 20.242188 12.035156 19.421875 11.9375 18.570312 C 11.910156 18.328125 11.753906 18.113281 11.527344 18.015625 C 11.300781 17.917969 11.039062 17.949219 10.839844 18.097656 C 10.644531 18.246094 10.542969 18.488281 10.574219 18.734375 C 10.710938 19.878906 11.21875 20.988281 12.097656 21.867188 C 14.171875 23.941406 17.542969 23.941406 19.617188 21.867188 C 21.691406 19.792969 21.691406 16.421875 19.617188 14.347656 C 18.738281 13.472656 17.625 12.960938 16.484375 12.824219 C 16.460938 12.820312 16.4375 12.820312 16.414062 12.820312 Z M 12.351562 14.097656 C 12.222656 14.097656 12.09375 14.148438 11.996094 14.246094 C 11.800781 14.441406 11.800781 14.761719 11.996094 14.957031 L 15.039062 18 C 15.035156 18.035156 15.03125 18.070312 15.03125 18.109375 C 15.03125 18.566406 15.398438 18.9375 15.859375 18.9375 C 16.28125 18.9375 16.625 18.621094 16.679688 18.214844 L 18.402344 17.21875 C 18.640625 17.082031 18.722656 16.773438 18.585938 16.535156 C 18.445312 16.296875 18.136719 16.214844 17.898438 16.351562 L 16.175781 17.34375 C 16.078125 17.304688 15.972656 17.28125 15.859375 17.28125 C 15.820312 17.28125 15.785156 17.285156 15.75 17.289062 L 12.703125 14.246094 C 12.609375 14.148438 12.480469 14.097656 12.351562 14.097656 Z M 12.351562 14.097656 "/>
<path style=" stroke:none;fill-rule:nonzero;fill:rgb(0%,0%,0%);fill-opacity:0.235294;" d="M 16.414062 12.820312 C 16.214844 12.8125 16.023438 12.894531 15.886719 13.039062 C 15.75 13.1875 15.6875 13.386719 15.710938 13.585938 C 15.753906 13.234375 16.058594 12.96875 16.414062 12.980469 C 16.4375 12.984375 16.460938 12.984375 16.484375 12.988281 C 17.625 13.121094 18.738281 13.632812 19.617188 14.511719 C 20.632812 15.527344 21.152344 16.855469 21.171875 18.191406 C 21.191406 16.800781 20.675781 15.40625 19.617188 14.347656 C 18.738281 13.472656 17.625 12.960938 16.484375 12.824219 C 16.460938 12.820312 16.4375 12.820312 16.414062 12.820312 Z M 12.351562 14.097656 C 12.222656 14.097656 12.09375 14.148438 11.996094 14.246094 C 11.875 14.363281 11.832031 14.527344 11.855469 14.683594 C 11.871094 14.582031 11.917969 14.484375 11.996094 14.40625 C 12.09375 14.3125 12.222656 14.261719 12.351562 14.261719 C 12.480469 14.261719 12.609375 14.3125 12.703125 14.40625 L 15.75 17.453125 C 15.785156 17.445312 15.820312 17.445312 15.859375 17.445312 C 15.972656 17.445312 16.078125 17.46875 16.175781 17.507812 L 17.898438 16.511719 C 18.136719 16.375 18.445312 16.460938 18.585938 16.699219 C 18.617188 16.75 18.636719 16.808594 18.644531 16.863281 C 18.664062 16.753906 18.644531 16.636719 18.585938 16.535156 C 18.445312 16.296875 18.136719 16.214844 17.898438 16.351562 L 16.175781 17.34375 C 16.078125 17.304688 15.972656 17.28125 15.859375 17.28125 C 15.820312 17.28125 15.785156 17.285156 15.75 17.289062 L 12.703125 14.246094 C 12.609375 14.148438 12.480469 14.097656 12.351562 14.097656 Z M 11.230469 17.957031 C 11.039062 17.964844 10.859375 18.050781 10.734375 18.199219 C 10.609375 18.34375 10.550781 18.535156 10.574219 18.726562 C 10.613281 18.382812 10.910156 18.121094 11.257812 18.125 C 11.605469 18.125 11.898438 18.386719 11.9375 18.734375 C 12.035156 19.582031 12.410156 20.402344 13.070312 21.0625 C 14.621094 22.613281 17.09375 22.613281 18.648438 21.0625 C 19.445312 20.261719 19.832031 19.222656 19.8125 18.191406 C 19.792969 19.167969 19.402344 20.140625 18.648438 20.898438 C 17.09375 22.453125 14.621094 22.453125 13.070312 20.898438 C 12.410156 20.242188 12.035156 19.421875 11.9375 18.570312 C 11.898438 18.214844 11.589844 17.945312 11.230469 17.957031 Z M 15.03125 18.15625 C 15.035156 18.167969 15.035156 18.179688 15.035156 18.191406 C 15.035156 18.179688 15.039062 18.171875 15.039062 18.164062 Z M 15.03125 18.15625 "/>
<path style=" stroke:none;fill-rule:nonzero;fill:rgb(100%,100%,100%);fill-opacity:0.392157;" d="M 15.726562 13.652344 C 15.679688 13.84375 15.71875 14.046875 15.832031 14.210938 C 15.945312 14.371094 16.125 14.476562 16.320312 14.496094 C 17.171875 14.597656 17.988281 14.972656 18.648438 15.628906 C 19.382812 16.363281 19.769531 17.304688 19.808594 18.257812 C 19.851562 17.199219 19.464844 16.125 18.648438 15.308594 C 17.988281 14.652344 17.171875 14.277344 16.320312 14.175781 C 16.03125 14.144531 15.792969 13.9375 15.726562 13.652344 Z M 11.875 14.75 C 11.816406 14.925781 11.855469 15.125 11.996094 15.265625 L 15.039062 18.308594 C 15.035156 18.34375 15.03125 18.378906 15.03125 18.417969 C 15.03125 18.875 15.398438 19.246094 15.859375 19.246094 C 16.28125 19.246094 16.625 18.933594 16.679688 18.523438 L 18.402344 17.53125 C 18.609375 17.410156 18.699219 17.15625 18.625 16.933594 C 18.585938 17.046875 18.511719 17.144531 18.402344 17.210938 L 16.679688 18.203125 C 16.625 18.609375 16.28125 18.925781 15.859375 18.925781 C 15.398438 18.925781 15.03125 18.554688 15.03125 18.097656 C 15.03125 18.058594 15.035156 18.023438 15.039062 17.988281 L 11.996094 14.945312 C 11.9375 14.886719 11.898438 14.820312 11.875 14.75 Z M 21.171875 18.257812 C 21.132812 19.566406 20.613281 20.859375 19.617188 21.855469 C 17.542969 23.929688 14.171875 23.929688 12.097656 21.855469 C 11.242188 21 10.734375 19.921875 10.585938 18.804688 C 10.566406 18.882812 10.5625 18.964844 10.574219 19.042969 C 10.710938 20.1875 11.21875 21.300781 12.097656 22.175781 C 14.171875 24.25 17.542969 24.25 19.617188 22.175781 C 20.695312 21.097656 21.210938 19.671875 21.171875 18.257812 Z M 21.171875 18.257812 "/>
<path style="fill:none;stroke-width:3;stroke-linecap:round;stroke-linejoin:round;stroke:rgb(12.941177%,12.941177%,12.941177%);stroke-opacity:1;stroke-miterlimit:4;" d="M 262.599923 -9.894587 C 256.725484 -10.082069 251.663467 -5.582498 251.288503 0.291941 C 250.913539 6.228874 255.225627 11.353384 261.100066 11.978325 C 274.723765 13.603169 287.785018 19.540103 298.346509 30.101594 C 323.15664 54.974219 323.15664 94.470447 298.346509 119.343072 C 273.473885 144.215697 233.915162 144.215697 209.105031 119.343072 C 198.54354 108.844074 192.544113 95.720328 190.981762 82.096629 C 190.544304 78.221999 188.044543 74.784827 184.419889 73.222476 C 180.795235 71.660125 176.608135 72.160078 173.420939 74.534851 C 170.296238 76.909624 168.671393 80.784254 169.171345 84.721378 C 171.358636 103.032129 179.48286 120.780435 193.544017 134.841592 C 226.728349 168.025923 280.660698 168.025923 313.845029 134.841592 C 347.02936 101.657261 347.02936 47.724911 313.845029 14.54058 C 299.783872 0.541917 281.973073 -7.644801 263.724816 -9.832093 C 263.349851 -9.894587 262.974887 -9.894587 262.599923 -9.894587 Z M 197.60613 10.540962 C 195.543826 10.540962 193.481523 11.353384 191.919173 12.915735 C 188.794471 16.040437 188.794471 21.164947 191.919173 24.289649 L 240.602024 72.9725 C 240.53953 73.534946 240.477036 74.097393 240.477036 74.722333 C 240.477036 82.034135 246.351475 87.971068 253.72577 87.971068 C 260.475126 87.971068 265.974601 82.909051 266.849517 76.409672 L 294.409385 60.473694 C 298.221521 58.286402 299.533896 53.349374 297.346605 49.537238 C 295.09682 45.725102 290.159791 44.412727 286.347655 46.600018 L 258.787787 62.473503 C 257.225436 61.848562 255.538097 61.473598 253.72577 61.473598 C 253.10083 61.473598 252.538384 61.536092 251.975937 61.598586 L 203.230592 12.915735 C 201.730736 11.353384 199.668433 10.540962 197.60613 10.540962 Z M 197.60613 10.540962 " transform="matrix(0.062506,0,0,0.062506,0,13.438783)"/>
</g>
</svg>
