
<svg xmlns="http://www.w3.org/2000/svg" xmlns:xlink="http://www.w3.org/1999/xlink" width="48px" height="48px" viewBox="0 0 48 48" version="1.1">
<g id="surface1">
<defs>
  <style id="current-color-scheme" type="text/css">
   .ColorScheme-Text { color:#eeeeee; } .ColorScheme-Highlight { color:#424242; }
  </style>
 </defs>
<path style="fill:currentColor" class="ColorScheme-Text" d="M 24.261719 6.011719 C 22.605469 5.867188 21.15625 7.082031 21.011719 8.738281 C 21 8.878906 21.046875 9 21.054688 9.136719 C 15.742188 9.980469 11.492188 14.296875 11 19.910156 L 9.691406 34.851562 L 6.703125 34.589844 L 6.441406 37.578125 L 18.398438 38.625 C 18.25 40.28125 19.46875 41.730469 21.125 41.875 C 22.78125 42.019531 24.230469 40.804688 24.375 39.148438 L 36.328125 40.191406 L 36.589844 37.203125 L 33.601562 36.941406 L 34.910156 22 C 35.398438 16.386719 31.964844 11.398438 26.878906 9.644531 C 26.90625 9.515625 26.976562 9.398438 26.988281 9.261719 C 27.132812 7.605469 25.917969 6.15625 24.261719 6.011719 Z M 23.738281 11.988281 C 28.707031 12.421875 32.355469 16.773438 31.917969 21.738281 L 30.613281 36.683594 L 21.648438 35.898438 L 12.679688 35.113281 L 13.988281 20.167969 C 14.421875 15.203125 18.769531 11.554688 23.738281 11.988281 Z M 23.476562 14.976562 C 20.164062 14.6875 17.265625 17.121094 16.976562 20.429688 L 19.964844 20.691406 C 20.109375 19.039062 21.558594 17.820312 23.214844 17.964844 Z M 23.476562 14.976562 "/>
</g>
</svg>
