<?xml version="1.0" encoding="UTF-8"?>
<svg xmlns="http://www.w3.org/2000/svg" xmlns:xlink="http://www.w3.org/1999/xlink" width="16px" height="16px" viewBox="0 0 16 16" version="1.1">
<g id="surface1">
<path style=" stroke:none;fill-rule:nonzero;fill:rgb(25.882354%,25.882354%,25.882354%);fill-opacity:1;" d="M 7.957031 2.101562 C 8.214844 2.109375 8.460938 2.214844 8.640625 2.398438 L 13.601562 7.363281 C 13.988281 7.75 13.988281 8.378906 13.601562 8.765625 L 8.640625 13.726562 C 8.390625 13.980469 8.023438 14.082031 7.675781 13.992188 C 7.332031 13.902344 7.0625 13.632812 6.96875 13.285156 C 6.878906 12.941406 6.980469 12.574219 7.238281 12.324219 L 10.503906 9.054688 L 2.316406 9.054688 C 2.132812 9.054688 1.984375 8.90625 1.984375 8.726562 L 1.984375 7.402344 C 1.984375 7.21875 2.132812 7.070312 2.316406 7.070312 L 10.503906 7.070312 L 7.238281 3.804688 C 6.941406 3.519531 6.855469 3.082031 7.015625 2.703125 C 7.175781 2.328125 7.546875 2.085938 7.957031 2.101562 Z M 7.957031 2.101562 "/>
</g>
</svg>
