<?xml version="1.0" encoding="UTF-8" standalone="no"?>
<!-- Created with Inkscape (http://www.inkscape.org/) -->

<svg
   xmlns:dc="http://purl.org/dc/elements/1.1/"
   xmlns:cc="http://creativecommons.org/ns#"
   xmlns:rdf="http://www.w3.org/1999/02/22-rdf-syntax-ns#"
   xmlns:svg="http://www.w3.org/2000/svg"
   xmlns="http://www.w3.org/2000/svg"
   xmlns:xlink="http://www.w3.org/1999/xlink"
   xmlns:sodipodi="http://sodipodi.sourceforge.net/DTD/sodipodi-0.dtd"
   xmlns:inkscape="http://www.inkscape.org/namespaces/inkscape"
   width="512mm"
   height="512mm"
   viewBox="0 0 512 512"
   version="1.1"
   id="svg3705"
   inkscape:version="0.92.2 2405546, 2018-03-11"
   sodipodi:docname="applications-utilities.svg">
  <defs
     id="defs3699">
    <linearGradient
       id="linearGradient887"
       inkscape:collect="always">
      <stop
         id="stop883"
         offset="0"
         style="stop-color:#f44336;stop-opacity:1" />
      <stop
         id="stop885"
         offset="1"
         style="stop-color:#ef5350;stop-opacity:1" />
    </linearGradient>
    <linearGradient
       inkscape:collect="always"
       id="linearGradient970-3">
      <stop
         style="stop-color:#424242;stop-opacity:1"
         offset="0"
         id="stop966" />
      <stop
         style="stop-color:#616161;stop-opacity:1"
         offset="1"
         id="stop968" />
    </linearGradient>
    <linearGradient
       inkscape:collect="always"
       id="linearGradient930">
      <stop
         style="stop-color:#000000;stop-opacity:0.3137255"
         offset="0"
         id="stop924" />
      <stop
         id="stop926"
         offset="0.22222181"
         style="stop-color:#000000;stop-opacity:0.27450982" />
      <stop
         style="stop-color:#000000;stop-opacity:0;"
         offset="1"
         id="stop928" />
    </linearGradient>
    <linearGradient
       inkscape:collect="always"
       id="linearGradient3756-3">
      <stop
         style="stop-color:#000000;stop-opacity:0.27450982"
         offset="0"
         id="stop3752" />
      <stop
         style="stop-color:#000000;stop-opacity:0;"
         offset="1"
         id="stop3754" />
    </linearGradient>
    <linearGradient
       inkscape:collect="always"
       xlink:href="#linearGradient3756-3"
       id="linearGradient4620"
       gradientUnits="userSpaceOnUse"
       gradientTransform="translate(-963.08335,423.33333)"
       x1="254"
       y1="233.5"
       x2="254"
       y2="254.66667" />
    <radialGradient
       inkscape:collect="always"
       xlink:href="#linearGradient930"
       id="radialGradient4622"
       gradientUnits="userSpaceOnUse"
       gradientTransform="matrix(2.7864596e-6,1.2500001,-2.2500003,1.624462e-6,-97.322583,-1225.7615)"
       cx="450.90894"
       cy="189.57936"
       fx="450.90894"
       fy="189.57936"
       r="21.166656" />
    <radialGradient
       inkscape:collect="always"
       xlink:href="#linearGradient930"
       id="radialGradient4624"
       gradientUnits="userSpaceOnUse"
       gradientTransform="matrix(2.7864596e-6,1.2500001,-2.2500003,1.624462e-6,1320.844,87.905151)"
       cx="450.90894"
       cy="189.57936"
       fx="450.90894"
       fy="189.57936"
       r="21.166656" />
    <radialGradient
       inkscape:collect="always"
       xlink:href="#linearGradient930"
       id="radialGradient4626"
       gradientUnits="userSpaceOnUse"
       gradientTransform="matrix(2.7864596e-6,1.2500001,-2.2500003,1.624462e-6,1320.844,-1225.7615)"
       cx="450.90894"
       cy="189.57936"
       fx="450.90894"
       fy="189.57936"
       r="21.166656" />
    <radialGradient
       inkscape:collect="always"
       xlink:href="#linearGradient930"
       id="radialGradient4628"
       gradientUnits="userSpaceOnUse"
       gradientTransform="matrix(2.7864596e-6,1.2500001,-2.2500003,1.624462e-6,-97.322613,87.905141)"
       cx="450.90894"
       cy="189.57936"
       fx="450.90894"
       fy="189.57936"
       r="21.166656" />
    <linearGradient
       inkscape:collect="always"
       xlink:href="#linearGradient970-3"
       id="linearGradient972"
       x1="306.91666"
       y1="-25.791676"
       x2="305.95456"
       y2="-141.41458"
       gradientUnits="userSpaceOnUse"
       gradientTransform="matrix(1.2054795,0,0,3.4782611,-93.655267,323.21018)" />
    <linearGradient
       gradientTransform="translate(-2.6666667e-7,2.5293333e-4)"
       inkscape:collect="always"
       xlink:href="#linearGradient919"
       id="linearGradient921"
       x1="285.75"
       y1="180.58333"
       x2="285.75"
       y2="-126.33334"
       gradientUnits="userSpaceOnUse" />
    <linearGradient
       inkscape:collect="always"
       id="linearGradient919">
      <stop
         style="stop-color:#64ffda;stop-opacity:1"
         offset="0"
         id="stop915" />
      <stop
         style="stop-color:#64ffda;stop-opacity:1"
         offset="1"
         id="stop917" />
    </linearGradient>
    <linearGradient
       gradientTransform="translate(-10.58333,-10.583327)"
       inkscape:collect="always"
       xlink:href="#linearGradient858"
       id="linearGradient860"
       x1="105.83334"
       y1="-20.5"
       x2="105.83334"
       y2="-126.33334"
       gradientUnits="userSpaceOnUse" />
    <linearGradient
       inkscape:collect="always"
       id="linearGradient858">
      <stop
         style="stop-color:#e0e0e0;stop-opacity:1"
         offset="0"
         id="stop854" />
      <stop
         style="stop-color:#fafafa;stop-opacity:1"
         offset="1"
         id="stop856" />
    </linearGradient>
    <linearGradient
       inkscape:collect="always"
       xlink:href="#linearGradient887"
       id="linearGradient880"
       gradientUnits="userSpaceOnUse"
       gradientTransform="matrix(4.556143,0,0,13.146184,-353.97266,2034.1802)"
       x1="306.91666"
       y1="-25.791676"
       x2="305.95456"
       y2="-141.41458" />
  </defs>
  <sodipodi:namedview
     id="base"
     pagecolor="#ffffff"
     bordercolor="#666666"
     borderopacity="1.0"
     inkscape:pageopacity="0.0"
     inkscape:pageshadow="2"
     inkscape:zoom="0.27660354"
     inkscape:cx="712.16179"
     inkscape:cy="380.70311"
     inkscape:document-units="mm"
     inkscape:current-layer="layer1"
     showgrid="true"
     showguides="true"
     inkscape:guide-bbox="true"
     inkscape:window-width="1920"
     inkscape:window-height="1021"
     inkscape:window-x="0"
     inkscape:window-y="30"
     inkscape:window-maximized="1"
     inkscape:measure-start="0,0"
     inkscape:measure-end="0,0">
    <inkscape:grid
       type="xygrid"
       id="grid3707" />
    <sodipodi:guide
       position="465.66665,486.83332"
       orientation="0,1"
       id="guide3711"
       inkscape:locked="false" />
    <sodipodi:guide
       position="486.83332,370.41666"
       orientation="-1,-1.3113658e-08"
       id="guide3713"
       inkscape:locked="false" />
    <sodipodi:guide
       position="-158.75,21.166666"
       orientation="0,1"
       id="guide3715"
       inkscape:locked="false" />
    <sodipodi:guide
       position="253.99999,21.166666"
       orientation="1,0"
       id="guide3717"
       inkscape:locked="false" />
    <sodipodi:guide
       position="465.66665,63.499998"
       orientation="0,1"
       id="guide3742"
       inkscape:locked="false" />
    <sodipodi:guide
       position="582.08332,402.16666"
       orientation="4.2706773e-08,-1"
       id="guide3744"
       inkscape:locked="false" />
    <sodipodi:guide
       position="529.16665,465.66665"
       orientation="0,1"
       id="guide3748"
       inkscape:locked="false" />
    <sodipodi:guide
       position="296.33333,317.49999"
       orientation="0,1"
       id="guide888"
       inkscape:locked="false" />
    <sodipodi:guide
       position="550.33332,169.33333"
       orientation="0,1"
       id="guide890"
       inkscape:locked="false" />
    <sodipodi:guide
       position="179.91666,95.249997"
       orientation="1,0"
       id="guide976"
       inkscape:locked="false" />
    <sodipodi:guide
       position="328.08332,264.58333"
       orientation="1,0"
       id="guide978"
       inkscape:locked="false" />
    <sodipodi:guide
       position="539.74998,264.58333"
       orientation="0,1"
       id="guide1042"
       inkscape:locked="false" />
    <sodipodi:guide
       position="243.41666,127"
       orientation="0,1"
       id="guide1044"
       inkscape:locked="false" />
    <sodipodi:guide
       position="370.41666,211.66666"
       orientation="0,1"
       id="guide1046"
       inkscape:locked="false" />
  </sodipodi:namedview>
  <metadata
     id="metadata3702">
    <rdf:RDF>
      <cc:Work
         rdf:about="">
        <dc:format>image/svg+xml</dc:format>
        <dc:type
           rdf:resource="http://purl.org/dc/dcmitype/StillImage" />
        <dc:title></dc:title>
      </cc:Work>
    </rdf:RDF>
  </metadata>
  <g
     inkscape:label="Layer 1"
     inkscape:groupmode="layer"
     id="layer1"
     transform="translate(0,215)">
    <g
       id="g4618"
       transform="translate(963.08331,-423.33331)">
      <rect
         style="fill:url(#linearGradient4620);fill-opacity:1;stroke-width:0.26458335"
         ry="0"
         y="656.83331"
         x="-899.58331"
         height="21.166666"
         width="381.00003"
         id="rect4608" />
      <rect
         y="-656.83331"
         x="-518.58331"
         height="21.16667"
         width="42.333332"
         id="rect4610"
         style="fill:url(#radialGradient4622);fill-opacity:1;stroke-width:0.18708867"
         transform="scale(1,-1)" />
      <rect
         y="656.83331"
         x="899.58331"
         height="21.16667"
         width="42.333332"
         id="rect4612"
         style="fill:url(#radialGradient4624);fill-opacity:1;stroke-width:0.18708867"
         transform="scale(-1,1)" />
      <rect
         transform="scale(-1)"
         style="fill:url(#radialGradient4626);fill-opacity:1;stroke-width:0.18708867"
         id="rect4614"
         width="42.333332"
         height="21.16667"
         x="899.58331"
         y="-656.83331" />
      <rect
         style="fill:url(#radialGradient4628);fill-opacity:1;stroke-width:0.18708867"
         id="rect4616"
         width="42.333332"
         height="21.16667"
         x="-518.58331"
         y="656.83331" />
    </g>
    <rect
       ry="21.166666"
       rx="21.166677"
       y="-168.66666"
       x="10.583333"
       height="402.16666"
       width="486.83334"
       id="rect957"
       style="opacity:1;fill:url(#linearGradient972);fill-opacity:1;stroke:none;stroke-width:3;stroke-linecap:round;stroke-miterlimit:4;stroke-dasharray:none;stroke-opacity:1" />
    <path
       inkscape:connector-curvature="0"
       id="path910"
       d="m 31.75002,233.5 c -11.72633,0 -21.16667,-9.44032 -21.16667,-21.16666 v -2.64583 c 0,11.72633 9.44034,21.16666 21.16667,21.16666 l 444.49999,0 c 11.72633,0 21.16666,-9.44033 21.16666,-21.16666 v 2.64583 c 0,11.72634 -9.44033,21.16666 -21.16666,21.16666 z"
       style="opacity:1;fill:#000000;fill-opacity:0.19607843;stroke:none;stroke-width:2;stroke-miterlimit:4;stroke-dasharray:none;stroke-opacity:1"
       sodipodi:nodetypes="sscsscsss" />
    <path
       style="color:#000000;font-style:normal;font-variant:normal;font-weight:normal;font-stretch:normal;font-size:medium;line-height:normal;font-family:sans-serif;font-variant-ligatures:normal;font-variant-position:normal;font-variant-caps:normal;font-variant-numeric:normal;font-variant-alternates:normal;font-feature-settings:normal;text-indent:0;text-align:start;text-decoration:none;text-decoration-line:none;text-decoration-style:solid;text-decoration-color:#000000;letter-spacing:normal;word-spacing:normal;text-transform:none;writing-mode:lr-tb;direction:ltr;text-orientation:mixed;dominant-baseline:auto;baseline-shift:baseline;text-anchor:start;white-space:normal;shape-padding:0;clip-rule:nonzero;display:inline;overflow:visible;visibility:visible;opacity:1;isolation:auto;mix-blend-mode:normal;color-interpolation:sRGB;color-interpolation-filters:linearRGB;solid-color:#000000;solid-opacity:1;vector-effect:none;fill:url(#linearGradient921);fill-opacity:1;fill-rule:evenodd;stroke:#5fd35f;stroke-width:12;stroke-linecap:round;stroke-linejoin:miter;stroke-miterlimit:4;stroke-dasharray:none;stroke-dashoffset:0;stroke-opacity:0.19607843;color-rendering:auto;image-rendering:auto;shape-rendering:auto;text-rendering:auto;enable-background:accumulate"
       d="M 296.15626,-120.3396 190.87892,132.32056 152.36914,26.41627 H 52.916017 a 6.0006,6.0006 0 1 0 0,11.999999 H 143.96484 L 190.11915,165.34596 296.50979,-89.993891 380.2051,98.318613 416.14649,38.416269 h 49.51955 a 6.0006,6.0006 0 1 0 0,-11.999999 h -56.31251 l -27.55861,45.931644 z"
       id="path890"
       inkscape:connector-curvature="0" />
    <path
       inkscape:connector-curvature="0"
       style="opacity:1;fill:#2aff80;fill-opacity:0.11764706;stroke:none;stroke-width:3;stroke-linecap:round;stroke-miterlimit:4;stroke-dasharray:none;stroke-opacity:1"
       d="m 63.5,-147.49999 c -2.931583,0 -5.291667,2.36008 -5.291667,5.29166 v 21.16666 H 37.041666 c -2.931583,0 -5.291666,2.36009 -5.291666,5.29167 0,2.93158 2.360083,5.29167 5.291666,5.29167 h 21.166667 v 31.750009 H 37.041666 c -2.931583,0 -5.291666,2.36008 -5.291666,5.29166 0,2.93158 2.360083,5.29167 5.291666,5.29167 H 58.208333 V -36.37447 H 37.041666 c -2.931583,0 -5.291666,2.35956 -5.291666,5.291146 0,2.93158 2.360083,5.291666 5.291666,5.291666 H 58.208333 V 5.9588583 H 37.041666 c -2.931583,0 -5.291666,2.360086 -5.291666,5.2916667 0,2.931583 2.360083,5.291667 5.291666,5.291667 H 58.208333 V 48.291676 H 37.041666 c -2.931583,0 -5.291666,2.360086 -5.291666,5.291669 0,2.931583 2.360083,5.291669 5.291666,5.291669 h 21.166667 v 31.7505 H 37.041666 c -2.931583,0 -5.291666,2.36008 -5.291666,5.291669 0,2.93158 2.360083,5.291657 5.291666,5.291657 h 21.166667 v 31.75 H 37.041666 c -2.931583,0 -5.291666,2.36008 -5.291666,5.29167 0,2.93158 2.360083,5.29166 5.291666,5.29166 h 21.166667 v 31.75001 H 37.041666 c -2.931583,0 -5.291666,2.36008 -5.291666,5.29167 0,2.93158 2.360083,5.29166 5.291666,5.29166 h 21.166667 v 21.16617 c 0,2.93158 2.360084,5.29166 5.291667,5.29166 2.931582,0 5.291666,-2.36008 5.291666,-5.29166 v -21.16617 h 31.750004 v 21.16617 c 0,2.93158 2.36008,5.29166 5.29167,5.29166 2.93158,0 5.29166,-2.36008 5.29166,-5.29166 v -21.16617 h 31.75 v 21.16617 c 0,2.93158 2.36008,5.29166 5.29167,5.29166 2.93158,0 5.29166,-2.36008 5.29166,-5.29166 v -21.16617 h 31.75001 v 21.16617 c 0,2.93158 2.36009,5.29166 5.29167,5.29166 2.93158,0 5.29167,-2.36008 5.29167,-5.29166 v -21.16617 h 31.75 v 21.16617 c 0,2.93158 2.36008,5.29166 5.29166,5.29166 2.93159,0 5.29167,-2.36008 5.29167,-5.29166 v -21.16617 h 31.75 v 21.16617 c 0,2.93158 2.36008,5.29166 5.29167,5.29166 2.93158,0 5.29166,-2.36008 5.29166,-5.29166 v -21.16617 h 31.75 v 21.16617 c 0,2.93158 2.36009,5.29166 5.29167,5.29166 2.93158,0 5.29167,-2.36008 5.29167,-5.29166 v -21.16617 h 31.75 v 21.16617 c 0,2.93158 2.36008,5.29166 5.29166,5.29166 2.93159,0 5.29167,-2.36008 5.29167,-5.29166 v -21.16617 h 31.75 v 21.16617 c 0,2.93158 2.36008,5.29166 5.29167,5.29166 2.93158,0 5.29166,-2.36008 5.29166,-5.29166 v -21.16617 h 31.75 v 21.16617 c 0,2.93158 2.36009,5.29166 5.29167,5.29166 2.93158,0 5.29167,-2.36008 5.29167,-5.29166 v -21.16617 h 21.16666 c 2.93159,0 5.29167,-2.36008 5.29167,-5.29166 0,-2.93159 -2.36008,-5.29167 -5.29167,-5.29167 h -21.16666 v -31.75001 h 21.16666 c 2.93159,0 5.29167,-2.36008 5.29167,-5.29166 0,-2.93159 -2.36008,-5.29167 -5.29167,-5.29167 h -21.16666 v -31.75 h 21.16666 c 2.93159,0 5.29167,-2.360077 5.29167,-5.291657 0,-2.931589 -2.36008,-5.291669 -5.29167,-5.291669 h -21.16666 v -31.7505 h 21.16666 c 2.93159,0 5.29167,-2.360086 5.29167,-5.291669 0,-2.931583 -2.36008,-5.291669 -5.29167,-5.291669 H 449.79168 V 16.542192 h 21.16666 c 2.93159,0 5.29167,-2.360084 5.29167,-5.291667 0,-2.9315807 -2.36008,-5.2916667 -5.29167,-5.2916667 H 449.79168 V -25.791658 h 21.16666 c 2.93159,0 5.29167,-2.360086 5.29167,-5.291666 0,-2.931586 -2.36008,-5.291146 -5.29167,-5.291146 h -21.16666 v -31.750521 h 21.16666 c 2.93159,0 5.29167,-2.36009 5.29167,-5.29167 0,-2.93158 -2.36008,-5.29166 -5.29167,-5.29166 h -21.16666 v -31.750009 h 21.16666 c 2.93159,0 5.29167,-2.36009 5.29167,-5.29167 0,-2.93158 -2.36008,-5.29167 -5.29167,-5.29167 h -21.16666 v -21.16666 c 0,-2.93158 -2.36009,-5.29166 -5.29167,-5.29166 -2.93158,0 -5.29167,2.36008 -5.29167,5.29166 v 21.16666 h -31.75 v -21.16666 c 0,-2.93158 -2.36008,-5.29166 -5.29166,-5.29166 -2.93159,0 -5.29167,2.36008 -5.29167,5.29166 v 21.16666 h -31.75 v -21.16666 c 0,-2.93158 -2.36008,-5.29166 -5.29167,-5.29166 -2.93158,0 -5.29166,2.36008 -5.29166,5.29166 v 21.16666 h -31.75 v -21.16666 c 0,-2.93158 -2.36009,-5.29166 -5.29167,-5.29166 -2.93158,0 -5.29167,2.36008 -5.29167,5.29166 v 21.16666 h -31.75 v -21.16666 c 0,-2.93158 -2.36008,-5.29166 -5.29166,-5.29166 -2.93159,0 -5.29167,2.36008 -5.29167,5.29166 v 21.16666 h -31.75 v -21.16666 c 0,-2.93158 -2.36008,-5.29166 -5.29167,-5.29166 -2.93158,0 -5.29166,2.36008 -5.29166,5.29166 v 21.16666 h -31.75 v -21.16666 c 0,-2.93158 -2.36009,-5.29166 -5.29167,-5.29166 -2.93158,0 -5.29167,2.36008 -5.29167,5.29166 v 21.16666 h -31.75001 v -21.16666 c 0,-2.93158 -2.36008,-5.29166 -5.29166,-5.29166 -2.93159,0 -5.29167,2.36008 -5.29167,5.29166 v 21.16666 h -31.75 v -21.16666 c 0,-2.93158 -2.36008,-5.29166 -5.29166,-5.29166 -2.93159,0 -5.29167,2.36008 -5.29167,5.29166 v 21.16666 H 68.791666 v -21.16666 c 0,-2.93158 -2.360084,-5.29166 -5.291666,-5.29166 z m 5.291666,37.04166 h 31.750004 v 31.750009 H 68.791666 Z m 42.333334,0 h 31.75 v 31.750009 h -31.75 z m 42.33333,0 h 31.75001 v 31.750009 h -31.75001 z m 42.33335,0 h 31.75 v 31.750009 h -31.75 z m 42.33333,0 h 31.75 v 31.750009 h -31.75 z m 42.33333,0 h 31.75 v 31.750009 h -31.75 z m 42.33334,0 h 31.75 v 31.750009 h -31.75 z m 42.33333,0 h 31.75 v 31.750009 h -31.75 z m 42.33333,0 h 31.75 v 31.750009 h -31.75 z M 68.791666,-68.124991 H 100.54167 V -36.37447 H 68.791666 Z m 42.333334,0 h 31.75 v 31.750521 h -31.75 z m 42.33333,0 h 31.75001 v 31.750521 h -31.75001 z m 42.33335,0 h 31.75 v 31.750521 h -31.75 z m 42.33333,0 h 31.75 v 31.750521 h -31.75 z m 42.33333,0 h 31.75 v 31.750521 h -31.75 z m 42.33334,0 h 31.75 v 31.750521 h -31.75 z m 42.33333,0 h 31.75 v 31.750521 h -31.75 z m 42.33333,0 h 31.75 v 31.750521 h -31.75 z M 68.791666,-25.791658 H 100.54167 V 5.9588583 H 68.791666 Z m 42.333334,0 h 31.75 V 5.9588583 h -31.75 z m 42.33333,0 h 31.75001 V 5.9588583 h -31.75001 z m 42.33335,0 h 31.75 V 5.9588583 h -31.75 z m 42.33333,0 h 31.75 V 5.9588583 h -31.75 z m 42.33333,0 h 31.75 V 5.9588583 h -31.75 z m 42.33334,0 h 31.75 V 5.9588583 h -31.75 z m 42.33333,0 h 31.75 V 5.9588583 h -31.75 z m 42.33333,0 h 31.75 V 5.9588583 h -31.75 z M 68.791666,16.542192 H 100.54167 V 48.291676 H 68.791666 Z m 42.333334,0 h 31.75 v 31.749484 h -31.75 z m 42.33333,0 h 31.75001 v 31.749484 h -31.75001 z m 42.33335,0 h 31.75 v 31.749484 h -31.75 z m 42.33333,0 h 31.75 v 31.749484 h -31.75 z m 42.33333,0 h 31.75 v 31.749484 h -31.75 z m 42.33334,0 h 31.75 v 31.749484 h -31.75 z m 42.33333,0 h 31.75 v 31.749484 h -31.75 z m 42.33333,0 h 31.75 v 31.749484 h -31.75 z M 68.791666,58.875014 h 31.750004 v 31.7505 H 68.791666 Z m 42.333334,0 h 31.75 v 31.7505 h -31.75 z m 42.33333,0 h 31.75001 v 31.7505 h -31.75001 z m 42.33335,0 h 31.75 v 31.7505 h -31.75 z m 42.33333,0 h 31.75 v 31.7505 h -31.75 z m 42.33333,0 h 31.75 v 31.7505 h -31.75 z m 42.33334,0 h 31.75 v 31.7505 h -31.75 z m 42.33333,0 h 31.75 v 31.7505 h -31.75 z m 42.33333,0 h 31.75 v 31.7505 h -31.75 z M 68.791666,101.20884 h 31.750004 v 31.75 H 68.791666 Z m 42.333334,0 h 31.75 v 31.75 h -31.75 z m 42.33333,0 h 31.75001 v 31.75 h -31.75001 z m 42.33335,0 h 31.75 v 31.75 h -31.75 z m 42.33333,0 h 31.75 v 31.75 h -31.75 z m 42.33333,0 h 31.75 v 31.75 h -31.75 z m 42.33334,0 h 31.75 v 31.75 h -31.75 z m 42.33333,0 h 31.75 v 31.75 h -31.75 z m 42.33333,0 h 31.75 v 31.75 h -31.75 z M 68.791666,143.54217 h 31.750004 v 31.75001 H 68.791666 Z m 42.333334,0 h 31.75 v 31.75001 h -31.75 z m 42.33333,0 h 31.75001 v 31.75001 h -31.75001 z m 42.33335,0 h 31.75 v 31.75001 h -31.75 z m 42.33333,0 h 31.75 v 31.75001 h -31.75 z m 42.33333,0 h 31.75 v 31.75001 h -31.75 z m 42.33334,0 h 31.75 v 31.75001 h -31.75 z m 42.33333,0 h 31.75 v 31.75001 h -31.75 z m 42.33333,0 h 31.75 v 31.75001 h -31.75 z"
       id="rect854" />
    <path
       style="opacity:1;fill:url(#linearGradient880);fill-opacity:1;stroke:#212121;stroke-width:11.33858299;stroke-linecap:round;stroke-miterlimit:4;stroke-dasharray:none;stroke-opacity:1"
       d="M 120 175.11719 C 75.679977 175.11719 40 210.79719 40 255.11719 L 40 1615.1172 C 40 1659.4372 75.679977 1695.1172 120 1695.1172 L 960 1695.1172 L 960 175.11719 L 120 175.11719 z "
       transform="matrix(0.26458333,0,0,0.26458333,0,-215)"
       id="rect862" />
    <path
       style="opacity:1;fill:#e6e6e6;fill-opacity:0.93723851;stroke:none;stroke-width:2;stroke-miterlimit:4;stroke-dasharray:none;stroke-opacity:1"
       d="m 31.75,-168.66691 c -11.72632,0 -21.166667,9.44034 -21.166667,21.16667 v 2.64583 c 0,-11.72634 9.440368,-21.18927 21.166667,-21.16667 h 115.09375 l 214.3125,0 H 476.25 c 11.72631,-0.0226 21.16667,9.44033 21.16667,21.16667 v -2.64583 c 0,-11.72633 -9.44036,-21.16667 -21.16667,-21.16667 H 361.15625 l -214.3125,0 z"
       id="path955"
       inkscape:connector-curvature="0"
       sodipodi:nodetypes="ssccccccssccs" />
    <path
       style="color:#000000;font-style:normal;font-variant:normal;font-weight:normal;font-stretch:normal;font-size:medium;line-height:normal;font-family:sans-serif;font-variant-ligatures:normal;font-variant-position:normal;font-variant-caps:normal;font-variant-numeric:normal;font-variant-alternates:normal;font-feature-settings:normal;text-indent:0;text-align:start;text-decoration:none;text-decoration-line:none;text-decoration-style:solid;text-decoration-color:#000000;letter-spacing:normal;word-spacing:normal;text-transform:none;writing-mode:lr-tb;direction:ltr;text-orientation:mixed;dominant-baseline:auto;baseline-shift:baseline;text-anchor:start;white-space:normal;shape-padding:0;clip-rule:nonzero;display:inline;overflow:visible;visibility:visible;opacity:1;isolation:auto;mix-blend-mode:normal;color-interpolation:sRGB;color-interpolation-filters:linearRGB;solid-color:#000000;solid-opacity:1;vector-effect:none;fill:#212121;fill-opacity:1;fill-rule:nonzero;stroke:none;stroke-width:3;stroke-linecap:round;stroke-linejoin:miter;stroke-miterlimit:4;stroke-dasharray:none;stroke-dashoffset:0;stroke-opacity:1;color-rendering:auto;image-rendering:auto;shape-rendering:auto;text-rendering:auto;enable-background:accumulate"
       d="m 31.75,-170.16602 c -12.531393,0 -22.6660156,10.13463 -22.6660156,22.66602 V 212.33398 C 9.0839844,224.86537 19.218607,235 31.75,235 h 444.5 c 12.53139,0 22.66602,-10.13463 22.66602,-22.66602 V -147.5 c 0,-12.53139 -10.13463,-22.66602 -22.66602,-22.66602 z m 0,3 h 444.5 c 10.92129,0 19.66602,8.74474 19.66602,19.66602 V 212.33398 C 495.91602,223.25526 487.17129,232 476.25,232 H 31.75 C 20.828714,232 12.083984,223.25526 12.083984,212.33398 V -147.5 c 0,-10.92128 8.74473,-19.66602 19.666016,-19.66602 z"
       id="rect4817"
       inkscape:connector-curvature="0" />
    <path
       style="opacity:1;fill:url(#linearGradient860);fill-opacity:1;stroke:none;stroke-width:3;stroke-linecap:round;stroke-miterlimit:4;stroke-dasharray:none;stroke-opacity:1"
       d="m 80.282914,-128.90128 c -4.145883,-4.14589 -10.821204,-4.14589 -14.967099,0 l -3.7e-4,3.7e-4 c -4.145888,4.14589 -4.14552,10.82085 3.7e-4,14.96673 L 95.25,-84 65.31582,-54.065815 c -4.145881,4.14588 -4.145881,10.82122 0,14.9671 4.14588,4.14588 10.82121,4.14588 14.967094,0 l 37.417366,-37.417385 2.7e-4,-2.6e-4 c 0.25912,-0.25912 0.50193,-0.52768 0.7286,-0.80539 3.40092,-4.16466 3.15814,-10.27495 -0.72862,-14.16172 z"
       id="rect871"
       inkscape:connector-curvature="0" />
  </g>
</svg>
