<?xml version="1.0" encoding="UTF-8"?>
<svg xmlns="http://www.w3.org/2000/svg" xmlns:xlink="http://www.w3.org/1999/xlink" width="16pt" height="16pt" viewBox="0 0 16 16" version="1.1">
<defs>
<radialGradient id="radial0" gradientUnits="userSpaceOnUse" cx="450.908936" cy="189.579361" fx="450.908936" fy="189.579361" r="21.166656" gradientTransform="matrix(0.0000000870852,-0.0390662,-0.0703192,-0.0000000507693,21.765435,30.458085)">
<stop offset="0" style="stop-color:rgb(0%,0%,0%);stop-opacity:0.313725;"/>
<stop offset="0.222222" style="stop-color:rgb(0%,0%,0%);stop-opacity:0.27451;"/>
<stop offset="1" style="stop-color:rgb(0%,0%,0%);stop-opacity:0;"/>
</radialGradient>
<radialGradient id="radial1" gradientUnits="userSpaceOnUse" cx="450.908936" cy="189.579361" fx="450.908936" fy="189.579361" r="21.166656" gradientTransform="matrix(-0.0000000870852,0.0390662,0.0703192,0.0000000507693,-4.565877,-5.10332)">
<stop offset="0" style="stop-color:rgb(0%,0%,0%);stop-opacity:0.313725;"/>
<stop offset="0.222222" style="stop-color:rgb(0%,0%,0%);stop-opacity:0.27451;"/>
<stop offset="1" style="stop-color:rgb(0%,0%,0%);stop-opacity:0;"/>
</radialGradient>
<radialGradient id="radial2" gradientUnits="userSpaceOnUse" cx="450.908936" cy="189.579361" fx="450.908936" fy="189.579361" r="21.166656" gradientTransform="matrix(-0.0000000870852,-0.0390662,0.0703192,-0.0000000507693,-4.565877,30.458085)">
<stop offset="0" style="stop-color:rgb(0%,0%,0%);stop-opacity:0.313725;"/>
<stop offset="0.222222" style="stop-color:rgb(0%,0%,0%);stop-opacity:0.27451;"/>
<stop offset="1" style="stop-color:rgb(0%,0%,0%);stop-opacity:0;"/>
</radialGradient>
<radialGradient id="radial3" gradientUnits="userSpaceOnUse" cx="450.908936" cy="189.579361" fx="450.908936" fy="189.579361" r="21.166656" gradientTransform="matrix(0.0000000870852,0.0390662,-0.0703192,0.0000000507693,21.765435,-5.103321)">
<stop offset="0" style="stop-color:rgb(0%,0%,0%);stop-opacity:0.313725;"/>
<stop offset="0.222222" style="stop-color:rgb(0%,0%,0%);stop-opacity:0.27451;"/>
<stop offset="1" style="stop-color:rgb(0%,0%,0%);stop-opacity:0;"/>
</radialGradient>
<linearGradient id="linear0" gradientUnits="userSpaceOnUse" x1="1040" y1="1535.118164" x2="1040" y2="295.118103" gradientTransform="matrix(0.00826902,0,0,0.00826902,0,0)">
<stop offset="0" style="stop-color:rgb(69.019608%,74.509804%,77.254902%);stop-opacity:1;"/>
<stop offset="1" style="stop-color:rgb(81.176471%,84.705882%,86.27451%);stop-opacity:1;"/>
</linearGradient>
</defs>
<g id="surface1">
<path style=" stroke:none;fill-rule:nonzero;fill:url(#radial0);" d="M 8.601562 12.675781 L 9.921875 12.675781 L 9.921875 12.015625 L 8.601562 12.015625 Z M 8.601562 12.675781 "/>
<path style=" stroke:none;fill-rule:nonzero;fill:url(#radial1);" d="M 8.601562 12.675781 L 7.277344 12.675781 L 7.277344 13.339844 L 8.601562 13.339844 Z M 8.601562 12.675781 "/>
<path style=" stroke:none;fill-rule:nonzero;fill:url(#radial2);" d="M 8.601562 12.675781 L 7.277344 12.675781 L 7.277344 12.015625 L 8.601562 12.015625 Z M 8.601562 12.675781 "/>
<path style=" stroke:none;fill-rule:nonzero;fill:url(#radial3);" d="M 8.601562 12.675781 L 9.921875 12.675781 L 9.921875 13.339844 L 8.601562 13.339844 Z M 8.601562 12.675781 "/>
<path style=" stroke:none;fill-rule:nonzero;fill:url(#linear0);" d="M 7.441406 2.457031 C 6.527344 2.457031 5.789062 3.195312 5.789062 4.109375 C 5.789062 4.484375 5.910156 4.824219 6.117188 5.101562 L 3.308594 5.101562 C 3.125 5.101562 2.976562 5.25 2.976562 5.433594 C 2.976562 5.617188 3.125 5.765625 3.308594 5.765625 L 7.441406 5.765625 C 8.359375 5.765625 9.097656 5.027344 9.097656 4.109375 C 9.097656 3.195312 8.359375 2.457031 7.441406 2.457031 Z M 12.570312 2.457031 C 11.652344 2.457031 10.914062 3.195312 10.914062 4.109375 C 10.914062 4.484375 11.039062 4.824219 11.242188 5.101562 L 9.457031 5.101562 C 9.339844 5.367188 9.160156 5.59375 8.933594 5.765625 L 12.238281 5.765625 C 12.273438 5.765625 12.308594 5.757812 12.339844 5.746094 C 12.414062 5.757812 12.492188 5.765625 12.570312 5.765625 C 13.484375 5.765625 14.222656 5.027344 14.222656 4.109375 C 14.222656 3.195312 13.484375 2.457031 12.570312 2.457031 Z M 5.621094 6.738281 C 5.441406 6.738281 5.292969 6.886719 5.292969 7.070312 C 5.292969 7.253906 5.441406 7.402344 5.621094 7.402344 L 11.242188 7.402344 C 11.039062 7.679688 10.914062 8.019531 10.914062 8.394531 C 10.914062 9.308594 11.652344 10.046875 12.570312 10.046875 C 13.484375 10.046875 14.222656 9.308594 14.222656 8.394531 C 14.222656 7.476562 13.484375 6.738281 12.570312 6.738281 Z M 1.65625 9.386719 C 1.472656 9.386719 1.324219 9.535156 1.324219 9.71875 C 1.324219 9.898438 1.472656 10.046875 1.65625 10.046875 L 7.277344 10.046875 C 7.070312 10.324219 6.949219 10.667969 6.949219 11.039062 C 6.949219 11.957031 7.683594 12.695312 8.601562 12.695312 C 9.519531 12.695312 10.253906 11.957031 10.253906 11.039062 C 10.253906 10.125 9.519531 9.386719 8.601562 9.386719 Z M 1.65625 9.386719 "/>
<path style=" stroke:none;fill-rule:nonzero;fill:rgb(99.607843%,99.607843%,99.607843%);fill-opacity:0.392157;" d="M 7.441406 2.457031 C 6.527344 2.457031 5.789062 3.195312 5.789062 4.109375 C 5.789062 4.136719 5.789062 4.160156 5.789062 4.183594 C 5.828125 3.304688 6.550781 2.605469 7.441406 2.605469 C 8.332031 2.605469 9.054688 3.304688 9.09375 4.183594 C 9.09375 4.160156 9.097656 4.136719 9.097656 4.109375 C 9.097656 3.195312 8.359375 2.457031 7.441406 2.457031 Z M 12.570312 2.457031 C 11.652344 2.457031 10.914062 3.195312 10.914062 4.109375 C 10.914062 4.136719 10.914062 4.160156 10.917969 4.183594 C 10.957031 3.304688 11.675781 2.605469 12.570312 2.605469 C 13.460938 2.605469 14.183594 3.304688 14.222656 4.183594 C 14.222656 4.160156 14.222656 4.136719 14.222656 4.109375 C 14.222656 3.195312 13.484375 2.457031 12.570312 2.457031 Z M 3.308594 5.101562 C 3.125 5.101562 2.976562 5.25 2.976562 5.433594 C 2.976562 5.457031 2.980469 5.484375 2.984375 5.507812 C 3.019531 5.359375 3.148438 5.25 3.308594 5.25 L 6.117188 5.25 C 6.082031 5.203125 6.046875 5.152344 6.015625 5.101562 Z M 9.457031 5.101562 C 9.339844 5.367188 9.160156 5.59375 8.933594 5.765625 L 9.105469 5.765625 C 9.253906 5.617188 9.371094 5.445312 9.457031 5.25 L 11.242188 5.25 C 11.207031 5.203125 11.175781 5.152344 11.144531 5.101562 Z M 5.621094 6.738281 C 5.441406 6.738281 5.292969 6.886719 5.292969 7.070312 C 5.292969 7.097656 5.296875 7.121094 5.300781 7.144531 C 5.335938 7 5.464844 6.890625 5.621094 6.890625 L 12.570312 6.890625 C 13.460938 6.890625 14.183594 7.585938 14.222656 8.46875 C 14.222656 8.445312 14.222656 8.417969 14.222656 8.394531 C 14.222656 7.476562 13.484375 6.738281 12.570312 6.738281 Z M 11.144531 7.550781 C 11 7.796875 10.914062 8.085938 10.914062 8.394531 C 10.914062 8.417969 10.914062 8.445312 10.917969 8.46875 C 10.933594 8.125 11.050781 7.808594 11.242188 7.550781 Z M 1.65625 9.386719 C 1.472656 9.386719 1.324219 9.535156 1.324219 9.71875 C 1.324219 9.742188 1.328125 9.769531 1.332031 9.792969 C 1.367188 9.644531 1.5 9.535156 1.65625 9.535156 L 8.601562 9.535156 C 9.492188 9.535156 10.214844 10.234375 10.253906 11.113281 C 10.253906 11.089844 10.253906 11.066406 10.253906 11.039062 C 10.253906 10.125 9.519531 9.386719 8.601562 9.386719 Z M 7.175781 10.199219 C 7.03125 10.445312 6.949219 10.730469 6.949219 11.039062 C 6.949219 11.066406 6.949219 11.089844 6.949219 11.113281 C 6.964844 10.769531 7.085938 10.453125 7.277344 10.199219 Z M 7.175781 10.199219 "/>
<path style=" stroke:none;fill-rule:nonzero;fill:rgb(0%,0%,0%);fill-opacity:0.235294;" d="M 5.789062 4.027344 C 5.789062 4.054688 5.789062 4.082031 5.789062 4.109375 C 5.789062 4.410156 5.867188 4.695312 6.007812 4.9375 L 6.117188 4.9375 C 5.925781 4.679688 5.808594 4.367188 5.789062 4.027344 Z M 10.917969 4.027344 C 10.914062 4.054688 10.914062 4.082031 10.914062 4.109375 C 10.914062 4.410156 10.996094 4.695312 11.136719 4.9375 L 11.242188 4.9375 C 11.050781 4.679688 10.933594 4.367188 10.917969 4.027344 Z M 9.09375 4.027344 C 9.050781 4.90625 8.332031 5.597656 7.441406 5.597656 L 3.308594 5.597656 C 3.152344 5.597656 3.023438 5.492188 2.988281 5.351562 C 2.980469 5.375 2.976562 5.40625 2.976562 5.433594 C 2.976562 5.617188 3.125 5.765625 3.308594 5.765625 L 7.441406 5.765625 C 8.359375 5.765625 9.097656 5.027344 9.097656 4.109375 C 9.097656 4.082031 9.09375 4.054688 9.09375 4.027344 Z M 14.21875 4.027344 C 14.179688 4.90625 13.457031 5.597656 12.570312 5.597656 C 12.492188 5.597656 12.414062 5.59375 12.339844 5.582031 C 12.308594 5.59375 12.273438 5.597656 12.238281 5.597656 L 9.121094 5.597656 C 9.0625 5.65625 9 5.714844 8.933594 5.765625 L 12.238281 5.765625 C 12.273438 5.765625 12.308594 5.757812 12.339844 5.746094 C 12.414062 5.757812 12.492188 5.765625 12.570312 5.765625 C 13.484375 5.765625 14.222656 5.027344 14.222656 4.109375 C 14.222656 4.082031 14.222656 4.054688 14.21875 4.027344 Z M 5.300781 6.988281 C 5.296875 7.015625 5.292969 7.042969 5.292969 7.070312 C 5.292969 7.253906 5.441406 7.402344 5.621094 7.402344 L 11.136719 7.402344 C 11.167969 7.34375 11.203125 7.289062 11.242188 7.238281 L 5.621094 7.238281 C 5.46875 7.238281 5.339844 7.132812 5.300781 6.988281 Z M 14.21875 8.3125 C 14.179688 9.1875 13.457031 9.882812 12.570312 9.882812 C 11.679688 9.882812 10.960938 9.1875 10.917969 8.3125 C 10.914062 8.339844 10.914062 8.367188 10.914062 8.394531 C 10.914062 9.308594 11.652344 10.046875 12.570312 10.046875 C 13.484375 10.046875 14.222656 9.308594 14.222656 8.394531 C 14.222656 8.367188 14.222656 8.339844 14.21875 8.3125 Z M 1.335938 9.632812 C 1.328125 9.660156 1.324219 9.6875 1.324219 9.71875 C 1.324219 9.898438 1.472656 10.046875 1.65625 10.046875 L 7.167969 10.046875 C 7.199219 9.992188 7.238281 9.933594 7.277344 9.882812 L 1.65625 9.882812 C 1.5 9.882812 1.371094 9.777344 1.335938 9.632812 Z M 10.253906 10.957031 C 10.210938 11.835938 9.488281 12.527344 8.601562 12.527344 C 7.714844 12.527344 6.992188 11.835938 6.949219 10.957031 C 6.949219 10.984375 6.949219 11.011719 6.949219 11.039062 C 6.949219 11.957031 7.683594 12.695312 8.601562 12.695312 C 9.519531 12.695312 10.253906 11.957031 10.253906 11.039062 C 10.253906 11.011719 10.253906 10.984375 10.253906 10.957031 Z M 10.253906 10.957031 "/>
<path style=" stroke:none;fill-rule:nonzero;fill:rgb(12.941177%,12.941177%,12.941177%);fill-opacity:1;" d="M 7.441406 2.410156 C 6.5 2.410156 5.742188 3.167969 5.742188 4.109375 C 5.742188 4.460938 5.847656 4.785156 6.027344 5.054688 L 3.308594 5.054688 C 3.097656 5.054688 2.929688 5.222656 2.929688 5.433594 C 2.929688 5.640625 3.097656 5.8125 3.308594 5.8125 L 7.441406 5.8125 C 8.382812 5.8125 9.144531 5.050781 9.144531 4.109375 C 9.144531 3.167969 8.382812 2.410156 7.441406 2.410156 Z M 12.570312 2.410156 C 11.628906 2.410156 10.867188 3.167969 10.867188 4.109375 C 10.867188 4.460938 10.972656 4.785156 11.15625 5.054688 L 9.457031 5.054688 C 9.4375 5.054688 9.417969 5.066406 9.414062 5.082031 C 9.300781 5.339844 9.125 5.5625 8.90625 5.726562 C 8.886719 5.738281 8.882812 5.757812 8.886719 5.777344 C 8.894531 5.796875 8.914062 5.8125 8.933594 5.8125 L 12.238281 5.8125 C 12.273438 5.8125 12.308594 5.804688 12.34375 5.796875 C 12.417969 5.804688 12.492188 5.8125 12.570312 5.8125 C 13.511719 5.8125 14.269531 5.050781 14.269531 4.109375 C 14.269531 3.167969 13.511719 2.410156 12.570312 2.410156 Z M 7.441406 2.503906 C 8.332031 2.503906 9.050781 3.21875 9.050781 4.109375 C 9.050781 5 8.332031 5.71875 7.441406 5.71875 L 3.308594 5.71875 C 3.148438 5.71875 3.023438 5.589844 3.023438 5.433594 C 3.023438 5.273438 3.148438 5.148438 3.308594 5.148438 L 6.117188 5.148438 C 6.136719 5.148438 6.152344 5.140625 6.160156 5.125 C 6.167969 5.105469 6.164062 5.089844 6.15625 5.074219 C 5.953125 4.804688 5.835938 4.472656 5.835938 4.109375 C 5.835938 3.21875 6.550781 2.503906 7.441406 2.503906 Z M 12.570312 2.503906 C 13.460938 2.503906 14.175781 3.21875 14.175781 4.109375 C 14.175781 5 13.460938 5.71875 12.570312 5.71875 C 12.492188 5.71875 12.417969 5.710938 12.347656 5.703125 C 12.339844 5.699219 12.332031 5.699219 12.324219 5.703125 C 12.296875 5.710938 12.269531 5.71875 12.238281 5.71875 L 9.0625 5.71875 C 9.242188 5.558594 9.386719 5.367188 9.484375 5.148438 L 11.242188 5.148438 C 11.261719 5.148438 11.277344 5.140625 11.285156 5.125 C 11.292969 5.105469 11.292969 5.089844 11.28125 5.074219 C 11.082031 4.804688 10.960938 4.472656 10.960938 4.109375 C 10.960938 3.21875 11.679688 2.503906 12.570312 2.503906 Z M 5.621094 6.691406 C 5.414062 6.691406 5.246094 6.863281 5.246094 7.070312 C 5.246094 7.28125 5.414062 7.449219 5.621094 7.449219 L 11.15625 7.449219 C 10.972656 7.71875 10.867188 8.042969 10.867188 8.394531 C 10.867188 9.335938 11.628906 10.09375 12.570312 10.09375 C 13.511719 10.09375 14.269531 9.335938 14.269531 8.394531 C 14.269531 7.453125 13.511719 6.691406 12.570312 6.691406 Z M 5.621094 6.785156 L 12.570312 6.785156 C 13.460938 6.785156 14.175781 7.503906 14.175781 8.394531 C 14.175781 9.285156 13.460938 10 12.570312 10 C 11.679688 10 10.960938 9.285156 10.960938 8.394531 C 10.960938 8.03125 11.082031 7.699219 11.28125 7.429688 C 11.292969 7.414062 11.292969 7.398438 11.285156 7.378906 C 11.277344 7.363281 11.261719 7.355469 11.242188 7.355469 L 5.621094 7.355469 C 5.464844 7.355469 5.339844 7.230469 5.339844 7.070312 C 5.339844 6.914062 5.464844 6.785156 5.621094 6.785156 Z M 1.65625 9.339844 C 1.445312 9.339844 1.277344 9.507812 1.277344 9.71875 C 1.277344 9.925781 1.445312 10.09375 1.65625 10.09375 L 7.1875 10.09375 C 7.007812 10.363281 6.902344 10.691406 6.902344 11.039062 C 6.902344 11.980469 7.660156 12.742188 8.601562 12.742188 C 9.542969 12.742188 10.300781 11.980469 10.300781 11.039062 C 10.300781 10.097656 9.542969 9.339844 8.601562 9.339844 Z M 1.65625 9.433594 L 8.601562 9.433594 C 9.492188 9.433594 10.207031 10.148438 10.207031 11.039062 C 10.207031 11.929688 9.492188 12.648438 8.601562 12.648438 C 7.710938 12.648438 6.996094 11.929688 6.996094 11.039062 C 6.996094 10.675781 7.113281 10.34375 7.3125 10.074219 C 7.324219 10.0625 7.328125 10.042969 7.320312 10.027344 C 7.3125 10.011719 7.292969 10 7.277344 10 L 1.65625 10 C 1.496094 10 1.371094 9.875 1.371094 9.71875 C 1.371094 9.558594 1.496094 9.433594 1.65625 9.433594 Z M 1.65625 9.433594 "/>
</g>
</svg>
