<svg xmlns="http://www.w3.org/2000/svg" width="128pt" height="128pt" viewBox="0 0 128 128"><defs><linearGradient id="a" gradientUnits="userSpaceOnUse" x1="254" y1="233.5" x2="254" y2="254.667" gradientTransform="matrix(.41254 0 0 .25002 -42.602 53.755)"><stop offset="0" stop-opacity=".275"/><stop offset="1" stop-opacity="0"/></linearGradient><radialGradient id="b" gradientUnits="userSpaceOnUse" cx="450.909" cy="189.579" fx="450.909" fy="189.579" r="21.167" gradientTransform="matrix(0 -.31253 -.56255 0 211.169 254.381)"><stop offset="0" stop-opacity=".314"/><stop offset=".222" stop-opacity=".275"/><stop offset="1" stop-opacity="0"/></radialGradient><radialGradient id="c" gradientUnits="userSpaceOnUse" cx="450.909" cy="189.579" fx="450.909" fy="189.579" r="21.167" gradientTransform="matrix(0 .31253 .56255 0 -86.803 -30.11)"><stop offset="0" stop-opacity=".314"/><stop offset=".222" stop-opacity=".275"/><stop offset="1" stop-opacity="0"/></radialGradient><radialGradient id="d" gradientUnits="userSpaceOnUse" cx="450.909" cy="189.579" fx="450.909" fy="189.579" r="21.167" gradientTransform="matrix(0 -.31253 .56255 0 -86.803 254.381)"><stop offset="0" stop-opacity=".314"/><stop offset=".222" stop-opacity=".275"/><stop offset="1" stop-opacity="0"/></radialGradient><radialGradient id="e" gradientUnits="userSpaceOnUse" cx="450.909" cy="189.579" fx="450.909" fy="189.579" r="21.167" gradientTransform="matrix(0 .31253 -.56255 0 211.169 -30.11)"><stop offset="0" stop-opacity=".314"/><stop offset=".222" stop-opacity=".275"/><stop offset="1" stop-opacity="0"/></radialGradient><linearGradient id="f" gradientUnits="userSpaceOnUse" x1="179.917" y1="-84" x2="179.917" y2="-168.667"><stop offset="0" stop-color="#424242"/><stop offset="1" stop-color="#616161"/></linearGradient><linearGradient id="g" gradientUnits="userSpaceOnUse" x1="179.917" y1="-84" x2="179.917" y2="-168.667" gradientTransform="translate(55.5)"><stop offset="0" stop-color="#bdbdbd"/><stop offset="1" stop-color="#e0e0e0"/></linearGradient><linearGradient id="h" gradientUnits="userSpaceOnUse" x1="285.75" y1="-84" x2="285.75" y2="233.5" gradientTransform="matrix(.25002 0 0 -.25002 0 91.134)"><stop offset="0" stop-color="#bdbdbd"/><stop offset="1" stop-color="#e0e0e0"/></linearGradient><linearGradient id="i" gradientUnits="userSpaceOnUse" x1="285.75" y1="-84" x2="285.75" y2="233.5" gradientTransform="matrix(.25002 0 0 -.25002 0 91.134)"><stop offset="0" stop-color="#424242"/><stop offset="1" stop-color="#616161"/></linearGradient><linearGradient id="j" gradientUnits="userSpaceOnUse" x1="116.417" y1="191.167" x2="116.417" y2="159.417" gradientTransform="translate(-10.583 -10.583)"><stop offset="0" stop-color="#66bb6a"/><stop offset="1" stop-color="#81c784"/></linearGradient><linearGradient id="k" gradientUnits="userSpaceOnUse" x1="116.417" y1="191.167" x2="116.417" y2="159.417" gradientTransform="translate(52.917 -10.583)"><stop offset="0" stop-color="#66bb6a"/><stop offset="1" stop-color="#81c784"/></linearGradient><linearGradient id="l" gradientUnits="userSpaceOnUse" x1="116.417" y1="191.167" x2="116.417" y2="159.417" gradientTransform="translate(285.75 -10.583)"><stop offset="0" stop-color="#ef5350"/><stop offset="1" stop-color="#e57373"/></linearGradient><linearGradient id="m" gradientUnits="userSpaceOnUse" x1="285.75" y1="-84" x2="280.458" y2="-168.667" gradientTransform="translate(23.75)"><stop offset="0" stop-color="#bdbdbd"/><stop offset="1" stop-color="#e0e0e0"/></linearGradient></defs><path d="M18.523 112.137h87.32v5.293h-87.32zm0 0" fill="url(#a)"/><path d="M105.844 112.137h10.586v-5.293h-10.586zm0 0" fill="url(#b)"/><path d="M18.523 112.137H7.938v5.293h10.585zm0 0" fill="url(#c)"/><path d="M18.523 112.137H7.938v-5.293h10.585zm0 0" fill="url(#d)"/><path d="M105.844 112.137h10.586v5.293h-10.586zm0 0" fill="url(#e)"/><path d="M108.412-168.66c0 15.998 4.843 27.34 12.31 34.715 7.469 7.358 16.421 10.702 24.108 14.217 7.687 3.531 14.092 6.984 18.795 13.186 4.703 6.203 8.296 15.749 8.296 33.122h15.999c0-19.654-4.344-33.278-11.546-42.777-7.203-9.515-16.686-14.311-24.873-18.076-8.187-3.75-15.108-6.687-19.545-11.062-4.437-4.39-7.546-10.233-7.546-23.326zm0 0" transform="matrix(.25002 0 0 .25002 0 53.755)" fill="url(#f)" stroke-width="3" stroke="#212121"/><path d="M163.922-168.66c0 15.998 4.828 27.34 12.296 34.715 7.468 7.358 16.435 10.702 24.122 14.217 7.687 3.531 14.077 6.984 18.78 13.186 4.702 6.203 8.296 15.749 8.296 33.122h15.998c0-19.654-4.343-33.278-11.546-42.777-7.202-9.515-16.685-14.311-24.872-18.076-8.187-3.75-15.108-6.687-19.545-11.062-4.437-4.39-7.53-10.233-7.53-23.326zm0 0" transform="matrix(.25002 0 0 .25002 0 53.755)" fill="url(#g)" stroke-width="3" stroke="#212121"/><path d="M15.875 112.11c-3.387 0-5.89-3.15-5.129-6.45l15.875-68.8a5.27 5.27 0 0 1 5.133-4.083h63.504a5.27 5.27 0 0 1 5.133 4.082l15.879 68.801c.761 3.3-1.747 6.45-5.133 6.45zm0 0" fill="url(#h)"/><path d="M15.363 85.648l-4.617 20.012c-.762 3.3 1.742 6.45 5.129 6.45h95.262c3.386 0 5.894-3.15 5.133-6.45l-4.618-20.012a4.56 4.56 0 0 1-.515.028H15.875c-.172 0-.344-.008-.512-.028zm0 0" fill="url(#i)"/><path d="M15.875 112.11c-3.387 0-5.89-3.15-5.129-6.45l.027-.125a5.265 5.265 0 0 0 5.102 3.953h95.262a5.265 5.265 0 0 0 5.101-3.953l.032.125c.761 3.3-1.747 6.45-5.133 6.45zm0 0" fill-opacity=".235"/><path d="M10.777 108.18a5.224 5.224 0 0 1-.03-2.52l15.874-68.8a5.27 5.27 0 0 1 5.133-4.083h63.504a5.27 5.27 0 0 1 5.133 4.082l15.879 68.801c.199.867.171 1.727-.036 2.52L100.391 39.53a5.265 5.265 0 0 0-5.133-4.082H31.754a5.265 5.265 0 0 0-5.133 4.082zm0 0" fill="#fff" fill-opacity=".392"/><path d="M15.875 112.11c-3.387 0-5.89-3.149-5.129-6.45l15.875-68.8a5.27 5.27 0 0 1 5.133-4.083h63.504a5.27 5.27 0 0 1 5.133 4.082l15.879 68.801c.761 3.301-1.747 6.45-5.133 6.45zm0 0" fill="none" stroke-width=".7500600000000001" stroke-linecap="round" stroke-linejoin="round" stroke="#212121"/><path d="M105.834 148.84c11.686 0 21.17 7.093 21.17 15.874 0 8.765-9.484 15.873-21.17 15.873-11.687 0-21.17-7.108-21.17-15.873 0-8.78 9.483-15.874 21.17-15.874zm0 0" transform="matrix(.25002 0 0 .25002 0 53.755)" fill="url(#j)" stroke-width="3" stroke-linecap="round" stroke-linejoin="round" stroke="#212121"/><path d="M169.328 148.84c11.702 0 21.17 7.093 21.17 15.874 0 8.765-9.468 15.873-21.17 15.873-11.687 0-21.155-7.108-21.155-15.873 0-8.78 9.468-15.874 21.155-15.874zm0 0" transform="matrix(.25002 0 0 .25002 0 53.755)" fill="url(#k)" stroke-width="3" stroke-linecap="round" stroke-linejoin="round" stroke="#212121"/><path d="M402.165 148.84c11.686 0 21.17 7.093 21.17 15.874 0 8.765-9.484 15.873-21.17 15.873-11.687 0-21.17-7.108-21.17-15.873 0-8.78 9.483-15.874 21.17-15.874zm0 0" transform="matrix(.25002 0 0 .25002 0 53.755)" fill="url(#l)" stroke-width="3" stroke-linecap="round" stroke-linejoin="round" stroke="#212121"/><path d="M58.215 90.969c2.922 0 5.293 1.773 5.293 3.969 0 2.19-2.371 3.968-5.293 3.968s-5.293-1.777-5.293-3.968c0-2.196 2.371-3.97 5.293-3.97zm0 0" fill="#ffa726" stroke-width=".7500600000000001" stroke-linecap="round" stroke-linejoin="round" stroke="#212121"/><path d="M232.712-168.66c0 13.295 1.766 23.513 5.53 31.543 3.75 8.03 9.844 13.702 16.734 16.592 13.748 5.781 28.778 2.406 42.605.094 13.827-2.297 26.294-3.546 33.403-.11 3.547 1.72 6.328 4.282 8.734 9.828 2.406 5.546 4.109 14.186 4.109 26.716h16.014c0-13.936-1.781-24.638-5.453-33.09-3.656-8.453-9.562-14.53-16.436-17.858-13.733-6.64-29.044-3.594-42.996-1.266-13.952 2.328-26.7 3.906-33.778.938-3.546-1.5-6.124-3.656-8.452-8.624-2.312-4.953-4.015-12.937-4.015-24.764zm0 0" transform="matrix(.25002 0 0 .25002 0 53.755)" fill="url(#m)" stroke-width="3" stroke="#000"/></svg>