<?xml version="1.0" encoding="UTF-8"?>
<svg xmlns="http://www.w3.org/2000/svg" xmlns:xlink="http://www.w3.org/1999/xlink" width="64pt" height="64pt" viewBox="0 0 64 64" version="1.1">
<g id="surface1">
<path style=" stroke:none;fill-rule:nonzero;fill:rgb(25.882354%,25.882354%,25.882354%);fill-opacity:1;" d="M 48.953125 16.375 L 48.953125 48.128906 L 54.246094 48.128906 L 54.246094 41.515625 L 55.566406 41.515625 C 57.035156 41.515625 58.214844 40.335938 58.214844 38.867188 L 58.214844 25.636719 C 58.214844 24.171875 57.035156 22.992188 55.566406 22.992188 L 54.246094 22.992188 L 54.246094 16.375 Z M 48.953125 16.375 "/>
<path style=" stroke:none;fill-rule:nonzero;fill:rgb(25.882354%,25.882354%,25.882354%);fill-opacity:1;" d="M 3.96875 16.375 L 3.96875 48.128906 L 46.304688 48.128906 L 46.304688 16.375 Z M 3.96875 16.375 "/>
<path style=" stroke:none;fill-rule:nonzero;fill:rgb(61.960787%,61.960787%,61.960787%);fill-opacity:1;" d="M 9.261719 16.375 L 46.304688 16.375 L 46.304688 32.316406 L 9.261719 48.128906 Z M 9.261719 16.375 "/>
<path style=" stroke:none;fill-rule:nonzero;fill:rgb(93.725491%,32.549021%,31.37255%);fill-opacity:1;" d="M 25.136719 20.34375 L 30.429688 20.34375 L 30.429688 34.898438 L 25.136719 34.898438 Z M 25.136719 20.34375 "/>
<path style=" stroke:none;fill-rule:nonzero;fill:rgb(93.725491%,32.549021%,31.37255%);fill-opacity:1;" d="M 27.785156 38.867188 C 29.246094 38.867188 30.429688 40.054688 30.429688 41.515625 C 30.429688 42.976562 29.246094 44.160156 27.785156 44.160156 C 26.324219 44.160156 25.136719 42.976562 25.136719 41.515625 C 25.136719 40.054688 26.324219 38.867188 27.785156 38.867188 Z M 27.785156 38.867188 "/>
</g>
</svg>
