<?xml version="1.0" encoding="UTF-8"?>
<svg xmlns="http://www.w3.org/2000/svg" xmlns:xlink="http://www.w3.org/1999/xlink" width="16pt" height="16pt" viewBox="0 0 16 16" version="1.1">
<defs>
<linearGradient id="linear0" gradientUnits="userSpaceOnUse" x1="254" y1="233.5" x2="254" y2="254.666672" gradientTransform="matrix(0.0515674,0,0,0.031253,-5.32525,6.719393)">
<stop offset="0" style="stop-color:rgb(0%,0%,0%);stop-opacity:0.27451;"/>
<stop offset="1" style="stop-color:rgb(0%,0%,0%);stop-opacity:0;"/>
</linearGradient>
<radialGradient id="radial0" gradientUnits="userSpaceOnUse" cx="450.908936" cy="189.579361" fx="450.908936" fy="189.579361" r="21.166656" gradientTransform="matrix(0.0000000870852,-0.0390662,-0.0703192,-0.0000000507693,26.396085,31.797666)">
<stop offset="0" style="stop-color:rgb(0%,0%,0%);stop-opacity:0.313725;"/>
<stop offset="0.222222" style="stop-color:rgb(0%,0%,0%);stop-opacity:0.27451;"/>
<stop offset="1" style="stop-color:rgb(0%,0%,0%);stop-opacity:0;"/>
</radialGradient>
<radialGradient id="radial1" gradientUnits="userSpaceOnUse" cx="450.908936" cy="189.579361" fx="450.908936" fy="189.579361" r="21.166656" gradientTransform="matrix(-0.0000000870852,0.0390662,0.0703192,0.0000000507693,-10.850329,-3.763739)">
<stop offset="0" style="stop-color:rgb(0%,0%,0%);stop-opacity:0.313725;"/>
<stop offset="0.222222" style="stop-color:rgb(0%,0%,0%);stop-opacity:0.27451;"/>
<stop offset="1" style="stop-color:rgb(0%,0%,0%);stop-opacity:0;"/>
</radialGradient>
<radialGradient id="radial2" gradientUnits="userSpaceOnUse" cx="450.908936" cy="189.579361" fx="450.908936" fy="189.579361" r="21.166656" gradientTransform="matrix(-0.0000000870852,-0.0390662,0.0703192,-0.0000000507693,-10.850329,31.797666)">
<stop offset="0" style="stop-color:rgb(0%,0%,0%);stop-opacity:0.313725;"/>
<stop offset="0.222222" style="stop-color:rgb(0%,0%,0%);stop-opacity:0.27451;"/>
<stop offset="1" style="stop-color:rgb(0%,0%,0%);stop-opacity:0;"/>
</radialGradient>
<radialGradient id="radial3" gradientUnits="userSpaceOnUse" cx="450.908936" cy="189.579361" fx="450.908936" fy="189.579361" r="21.166656" gradientTransform="matrix(0.0000000870852,0.0390662,-0.0703192,0.0000000507693,26.396084,-3.76374)">
<stop offset="0" style="stop-color:rgb(0%,0%,0%);stop-opacity:0.313725;"/>
<stop offset="0.222222" style="stop-color:rgb(0%,0%,0%);stop-opacity:0.27451;"/>
<stop offset="1" style="stop-color:rgb(0%,0%,0%);stop-opacity:0;"/>
</radialGradient>
<linearGradient id="linear1" gradientUnits="userSpaceOnUse" x1="179.916672" y1="-84" x2="179.916672" y2="-168.666672" >
<stop offset="0" style="stop-color:rgb(25.882353%,25.882353%,25.882353%);stop-opacity:1;"/>
<stop offset="1" style="stop-color:rgb(38.039216%,38.039216%,38.039216%);stop-opacity:1;"/>
</linearGradient>
<linearGradient id="linear2" gradientUnits="userSpaceOnUse" x1="179.916672" y1="-84" x2="179.916672" y2="-168.666672" gradientTransform="matrix(1,0,0,1,55.500648,-0.000646667)">
<stop offset="0" style="stop-color:rgb(74.117647%,74.117647%,74.117647%);stop-opacity:1;"/>
<stop offset="1" style="stop-color:rgb(87.843137%,87.843137%,87.843137%);stop-opacity:1;"/>
</linearGradient>
<linearGradient id="linear3" gradientUnits="userSpaceOnUse" x1="285.75" y1="-84" x2="285.75" y2="233.5" gradientTransform="matrix(0.031253,0,0,-0.031253,0,11.391713)">
<stop offset="0" style="stop-color:rgb(74.117647%,74.117647%,74.117647%);stop-opacity:1;"/>
<stop offset="1" style="stop-color:rgb(87.843137%,87.843137%,87.843137%);stop-opacity:1;"/>
</linearGradient>
<linearGradient id="linear4" gradientUnits="userSpaceOnUse" x1="285.75" y1="-84" x2="285.75" y2="233.5" gradientTransform="matrix(0.031253,0,0,-0.031253,0,11.391712)">
<stop offset="0" style="stop-color:rgb(25.882353%,25.882353%,25.882353%);stop-opacity:1;"/>
<stop offset="1" style="stop-color:rgb(38.039216%,38.039216%,38.039216%);stop-opacity:1;"/>
</linearGradient>
<linearGradient id="linear5" gradientUnits="userSpaceOnUse" x1="116.416656" y1="191.166672" x2="116.416656" y2="159.416672" gradientTransform="matrix(1,0,0,1,-10.583328,-10.583338)">
<stop offset="0" style="stop-color:rgb(40%,73.333333%,41.568627%);stop-opacity:1;"/>
<stop offset="1" style="stop-color:rgb(50.588235%,78.039216%,51.764706%);stop-opacity:1;"/>
</linearGradient>
<linearGradient id="linear6" gradientUnits="userSpaceOnUse" x1="116.416656" y1="191.166672" x2="116.416656" y2="159.416672" gradientTransform="matrix(1,0,0,1,52.916672,-10.583338)">
<stop offset="0" style="stop-color:rgb(40%,73.333333%,41.568627%);stop-opacity:1;"/>
<stop offset="1" style="stop-color:rgb(50.588235%,78.039216%,51.764706%);stop-opacity:1;"/>
</linearGradient>
<linearGradient id="linear7" gradientUnits="userSpaceOnUse" x1="116.416656" y1="191.166672" x2="116.416656" y2="159.416672" gradientTransform="matrix(1,0,0,1,285.75,-10.583338)">
<stop offset="0" style="stop-color:rgb(93.72549%,32.54902%,31.372549%);stop-opacity:1;"/>
<stop offset="1" style="stop-color:rgb(89.803922%,45.098039%,45.098039%);stop-opacity:1;"/>
</linearGradient>
<linearGradient id="linear8" gradientUnits="userSpaceOnUse" x1="285.75" y1="-84" x2="280.458344" y2="-168.666656" gradientTransform="matrix(1,0,0,1,23.749353,0)">
<stop offset="0" style="stop-color:rgb(74.117647%,74.117647%,74.117647%);stop-opacity:1;"/>
<stop offset="1" style="stop-color:rgb(87.843137%,87.843137%,87.843137%);stop-opacity:1;"/>
</linearGradient>
</defs>
<g id="surface1">
<path style=" stroke:none;fill-rule:nonzero;fill:url(#linear0);" d="M 2.316406 14.015625 L 13.230469 14.015625 L 13.230469 14.679688 L 2.316406 14.679688 Z M 2.316406 14.015625 "/>
<path style=" stroke:none;fill-rule:nonzero;fill:url(#radial0);" d="M 13.230469 14.015625 L 14.554688 14.015625 L 14.554688 13.355469 L 13.230469 13.355469 Z M 13.230469 14.015625 "/>
<path style=" stroke:none;fill-rule:nonzero;fill:url(#radial1);" d="M 2.316406 14.015625 L 0.992188 14.015625 L 0.992188 14.679688 L 2.316406 14.679688 Z M 2.316406 14.015625 "/>
<path style=" stroke:none;fill-rule:nonzero;fill:url(#radial2);" d="M 2.316406 14.015625 L 0.992188 14.015625 L 0.992188 13.355469 L 2.316406 13.355469 Z M 2.316406 14.015625 "/>
<path style=" stroke:none;fill-rule:nonzero;fill:url(#radial3);" d="M 13.230469 14.015625 L 14.554688 14.015625 L 14.554688 14.679688 L 13.230469 14.679688 Z M 13.230469 14.015625 "/>
<path style="fill-rule:nonzero;fill:url(#linear1);stroke-width:3;stroke-linecap:butt;stroke-linejoin:miter;stroke:rgb(12.941177%,12.941177%,12.941177%);stroke-opacity:1;stroke-miterlimit:4;" d="M 108.364652 -168.629428 C 108.364652 -152.630956 113.239186 -141.257042 120.73847 -134.007734 C 128.237754 -126.633439 137.111906 -123.258761 144.861166 -119.759095 C 152.485438 -116.259429 158.85983 -112.759763 163.609376 -106.51036 C 168.358923 -100.385945 171.858588 -90.761864 171.858588 -73.388523 L 187.857061 -73.388523 C 187.857061 -93.136637 183.607466 -106.635348 176.358159 -116.259429 C 169.108851 -125.758522 159.734746 -130.508069 151.485534 -134.257711 C 143.36131 -138.007352 136.361978 -141.007066 131.987396 -145.381648 C 127.487826 -149.75623 124.363124 -155.630669 124.363124 -168.629428 Z M 108.364652 -168.629428 " transform="matrix(0.031253,0,0,0.031253,0,6.719392)"/>
<path style="fill-rule:nonzero;fill:url(#linear2);stroke-width:3;stroke-linecap:butt;stroke-linejoin:miter;stroke:rgb(12.941177%,12.941177%,12.941177%);stroke-opacity:1;stroke-miterlimit:4;" d="M 163.859352 -168.629428 C 163.859352 -152.630956 168.733887 -141.257042 176.233171 -134.007734 C 183.732454 -126.633439 192.606607 -123.258761 200.355867 -119.759095 C 207.980139 -116.259429 214.479518 -112.759763 219.104077 -106.51036 C 223.853623 -100.385945 227.478277 -90.761864 227.478277 -73.388523 L 243.476749 -73.388523 C 243.476749 -93.136637 239.102167 -106.635348 231.852859 -116.259429 C 224.728539 -125.758522 215.229447 -130.508069 206.980234 -134.257711 C 198.85601 -138.007352 191.856679 -141.007066 187.482096 -145.381648 C 182.982526 -149.75623 179.857824 -155.630669 179.857824 -168.629428 Z M 163.859352 -168.629428 " transform="matrix(0.031253,0,0,0.031253,0,6.719392)"/>
<path style=" stroke:none;fill-rule:nonzero;fill:url(#linear3);" d="M 1.984375 14.015625 C 1.5625 14.015625 1.246094 13.621094 1.34375 13.207031 L 3.328125 4.609375 C 3.398438 4.308594 3.664062 4.097656 3.96875 4.097656 L 11.90625 4.097656 C 12.214844 4.097656 12.480469 4.308594 12.550781 4.609375 L 14.535156 13.207031 C 14.628906 13.621094 14.316406 14.015625 13.890625 14.015625 Z M 1.984375 14.015625 "/>
<path style=" stroke:none;fill-rule:nonzero;fill:url(#linear4);" d="M 1.921875 10.707031 L 1.34375 13.207031 C 1.246094 13.621094 1.5625 14.015625 1.984375 14.015625 L 13.890625 14.015625 C 14.316406 14.015625 14.628906 13.621094 14.535156 13.207031 L 13.957031 10.707031 C 13.933594 10.707031 13.914062 10.710938 13.890625 10.710938 L 1.984375 10.710938 C 1.960938 10.710938 1.941406 10.707031 1.921875 10.707031 Z M 1.921875 10.707031 "/>
<path style=" stroke:none;fill-rule:nonzero;fill:rgb(0%,0%,0%);fill-opacity:0.235294;" d="M 1.984375 14.015625 C 1.5625 14.015625 1.246094 13.621094 1.34375 13.207031 L 1.347656 13.191406 C 1.417969 13.472656 1.671875 13.6875 1.984375 13.6875 L 13.890625 13.6875 C 14.203125 13.6875 14.457031 13.472656 14.53125 13.191406 L 14.535156 13.207031 C 14.628906 13.621094 14.316406 14.015625 13.890625 14.015625 Z M 1.984375 14.015625 "/>
<path style=" stroke:none;fill-rule:nonzero;fill:rgb(100%,100%,100%);fill-opacity:0.392157;" d="M 1.347656 13.523438 C 1.320312 13.421875 1.316406 13.316406 1.34375 13.207031 L 3.328125 4.609375 C 3.398438 4.308594 3.664062 4.097656 3.96875 4.097656 L 11.90625 4.097656 C 12.214844 4.097656 12.480469 4.308594 12.550781 4.609375 L 14.535156 13.207031 C 14.558594 13.316406 14.554688 13.421875 14.527344 13.523438 L 12.550781 4.941406 C 12.480469 4.644531 12.214844 4.429688 11.90625 4.429688 L 3.96875 4.429688 C 3.664062 4.429688 3.398438 4.644531 3.328125 4.941406 Z M 1.347656 13.523438 "/>
<path style="fill:none;stroke-width:3;stroke-linecap:round;stroke-linejoin:round;stroke:rgb(12.941177%,12.941177%,12.941177%);stroke-opacity:1;stroke-miterlimit:4;" d="M 63.493937 233.457174 C 49.995226 233.457174 39.871192 220.83338 42.995894 207.584645 L 106.489831 -67.514084 C 108.739616 -77.138165 117.238804 -83.887521 126.987873 -83.887521 L 380.96362 -83.887521 C 390.837677 -83.887521 399.336865 -77.138165 401.58665 -67.514084 L 465.080587 207.584645 C 468.080301 220.83338 458.081255 233.457174 444.457556 233.457174 Z M 63.493937 233.457174 " transform="matrix(0.031253,0,0,0.031253,0,6.719392)"/>
<path style="fill-rule:nonzero;fill:url(#linear5);stroke-width:3;stroke-linecap:round;stroke-linejoin:round;stroke:rgb(12.941177%,12.941177%,12.941177%);stroke-opacity:1;stroke-miterlimit:4;" d="M 105.86489 148.840255 C 117.48878 148.840255 126.987873 155.964575 126.987873 164.713739 C 126.987873 173.462904 117.48878 180.587223 105.86489 180.587223 C 94.116012 180.587223 84.616919 173.462904 84.616919 164.713739 C 84.616919 155.964575 94.116012 148.840255 105.86489 148.840255 Z M 105.86489 148.840255 " transform="matrix(0.031253,0,0,0.031253,0,6.719392)"/>
<path style="fill-rule:nonzero;fill:url(#linear6);stroke-width:3;stroke-linecap:round;stroke-linejoin:round;stroke:rgb(12.941177%,12.941177%,12.941177%);stroke-opacity:1;stroke-miterlimit:4;" d="M 169.358827 148.840255 C 180.982717 148.840255 190.48181 155.964575 190.48181 164.713739 C 190.48181 173.462904 180.982717 180.587223 169.358827 180.587223 C 157.609949 180.587223 148.110856 173.462904 148.110856 164.713739 C 148.110856 155.964575 157.609949 148.840255 169.358827 148.840255 Z M 169.358827 148.840255 " transform="matrix(0.031253,0,0,0.031253,0,6.719392)"/>
<path style="fill-rule:nonzero;fill:url(#linear7);stroke-width:3;stroke-linecap:round;stroke-linejoin:round;stroke:rgb(12.941177%,12.941177%,12.941177%);stroke-opacity:1;stroke-miterlimit:4;" d="M 402.211591 148.840255 C 413.835481 148.840255 423.334574 155.964575 423.334574 164.713739 C 423.334574 173.462904 413.835481 180.587223 402.211591 180.587223 C 390.462713 180.587223 380.96362 173.462904 380.96362 164.713739 C 380.96362 155.964575 390.462713 148.840255 402.211591 148.840255 Z M 402.211591 148.840255 " transform="matrix(0.031253,0,0,0.031253,0,6.719392)"/>
<path style="fill-rule:nonzero;fill:rgb(100%,65.490196%,14.901961%);fill-opacity:1;stroke-width:3;stroke-linecap:round;stroke-linejoin:round;stroke:rgb(12.941177%,12.941177%,12.941177%);stroke-opacity:1;stroke-miterlimit:4;" d="M 232.852764 148.840255 C 244.476654 148.840255 253.975747 155.964575 253.975747 164.713739 C 253.975747 173.462904 244.476654 180.587223 232.852764 180.587223 C 221.103886 180.587223 211.604793 173.462904 211.604793 164.713739 C 211.604793 155.964575 221.103886 148.840255 232.852764 148.840255 Z M 232.852764 148.840255 " transform="matrix(0.031253,0,0,0.031253,0,6.719392)"/>
<path style="fill-rule:nonzero;fill:url(#linear8);stroke-width:3;stroke-linecap:butt;stroke-linejoin:miter;stroke:rgb(0%,0%,0%);stroke-opacity:1;stroke-miterlimit:4;" d="M 232.727776 -168.629428 C 232.727776 -155.380693 234.477609 -145.131672 238.22725 -137.132436 C 241.976892 -129.1332 248.101308 -123.383749 254.975651 -120.509023 C 268.724338 -114.759572 283.722906 -118.13425 297.596581 -120.384035 C 311.470256 -122.758809 323.844074 -124.008689 330.968394 -120.509023 C 334.593048 -118.759191 337.342785 -116.259429 339.717559 -110.759954 C 342.092332 -105.135492 343.842165 -96.511315 343.842165 -84.012509 L 359.840637 -84.012509 C 359.840637 -97.886184 358.090804 -108.635157 354.341162 -117.134346 C 350.716508 -125.508546 344.842069 -131.632961 337.967726 -134.882651 C 324.219039 -141.632006 308.845507 -138.507305 294.971832 -136.25752 C 280.973168 -133.882746 268.224386 -132.257901 261.225054 -135.257615 C 257.6004 -136.757472 255.100639 -138.882269 252.725866 -143.881791 C 250.351093 -148.881314 248.726248 -156.88055 248.726248 -168.629428 Z M 232.727776 -168.629428 " transform="matrix(0.031253,0,0,0.031253,0,6.719392)"/>
</g>
</svg>
