<?xml version="1.0" encoding="UTF-8"?>
<svg xmlns="http://www.w3.org/2000/svg" xmlns:xlink="http://www.w3.org/1999/xlink" width="32px" height="32px" viewBox="0 0 32 32" version="1.1">
<g id="surface1">
<path style=" stroke:none;fill-rule:nonzero;fill:rgb(93.333334%,93.333334%,93.333334%);fill-opacity:1;" d="M 24.296875 7.707031 C 19.632812 3.042969 12.121094 3.042969 7.457031 7.707031 C 2.792969 12.371094 2.792969 19.882812 7.457031 24.546875 C 12.121094 29.210938 19.632812 29.210938 24.296875 24.546875 C 28.960938 19.882812 28.960938 12.371094 24.296875 7.707031 Z M 21.015625 10.976562 C 21.09375 11.054688 21.167969 11.132812 21.242188 11.214844 C 22.425781 12.511719 23.148438 14.238281 23.148438 16.125 C 23.148438 18.128906 22.335938 19.953125 21.019531 21.269531 L 22.425781 22.675781 L 16.8125 23.609375 L 17.746094 17.996094 L 19.160156 19.410156 C 19.996094 18.574219 20.511719 17.421875 20.511719 16.125 C 20.511719 14.5 19.695312 13.09375 18.453125 12.265625 C 18.054688 12.007812 17.824219 11.554688 17.851562 11.082031 C 17.882812 10.605469 18.164062 10.183594 18.589844 9.976562 C 19.019531 9.765625 19.523438 9.804688 19.914062 10.074219 C 20.3125 10.339844 20.679688 10.640625 21.015625 10.976562 Z M 14.941406 8.640625 L 14.003906 14.253906 L 12.59375 12.84375 C 11.757812 13.679688 11.238281 14.832031 11.238281 16.125 C 11.238281 17.753906 12.054688 19.160156 13.300781 19.988281 C 13.695312 20.246094 13.925781 20.699219 13.894531 21.171875 C 13.867188 21.644531 13.585938 22.066406 13.160156 22.273438 C 12.734375 22.484375 12.230469 22.445312 11.835938 22.179688 C 9.886719 20.875 8.605469 18.644531 8.605469 16.125 C 8.605469 14.125 9.417969 12.300781 10.730469 10.980469 L 9.328125 9.578125 Z M 14.941406 8.640625 "/>
</g>
</svg>
