
<svg xmlns="http://www.w3.org/2000/svg" xmlns:xlink="http://www.w3.org/1999/xlink" width="32px" height="32px" viewBox="0 0 32 32" version="1.1">
<g id="surface1">
<defs>
  <style id="current-color-scheme" type="text/css">
   .ColorScheme-Text { color:#eeeeee; } .ColorScheme-Highlight { color:#424242; }
  </style>
 </defs>
<path style="fill:currentColor;fill-opacity:0.5" class="ColorScheme-Text" d="M 25 4 C 24.445312 4 24 4.445312 24 5 L 24 27 C 24 27.554688 24.445312 28 25 28 C 25.554688 28 26 27.554688 26 27 L 26 5 C 26 4.445312 25.554688 4 25 4 Z M 19 10 C 18.445312 10 18 10.445312 18 11 L 18 27 C 18 27.554688 18.445312 28 19 28 C 19.554688 28 20 27.554688 20 27 L 20 11 C 20 10.445312 19.554688 10 19 10 Z M 19 10 "/>
<defs>
  <style id="current-color-scheme" type="text/css">
   .ColorScheme-Text { color:#eeeeee; } .ColorScheme-Highlight { color:#424242; }
  </style>
 </defs>
<path style="fill:currentColor" class="ColorScheme-Text" d="M 13 16 C 12.445312 16 12 16.445312 12 17 L 12 27 C 12 27.554688 12.445312 28 13 28 C 13.554688 28 14 27.554688 14 27 L 14 17 C 14 16.445312 13.554688 16 13 16 Z M 7 22 C 6.445312 22 6 22.445312 6 23 L 6 27 C 6 27.554688 6.445312 28 7 28 C 7.554688 28 8 27.554688 8 27 L 8 23 C 8 22.445312 7.554688 22 7 22 Z M 7 22 "/>
</g>
</svg>
