
<svg xmlns="http://www.w3.org/2000/svg" xmlns:xlink="http://www.w3.org/1999/xlink" width="32px" height="32px" viewBox="0 0 32 32" version="1.1">
<g id="surface1">
<path style=" stroke:none;fill-rule:nonzero;fill:rgb(14.901961%,65.098041%,60.392159%);fill-opacity:1;" d="M 15.878906 4.21875 C 8.546875 4.21875 2.644531 9.527344 2.644531 16.128906 C 2.644531 19.472656 4.167969 22.492188 6.621094 24.652344 L 6.621094 26.707031 C 6.621094 27.816406 7.910156 28.425781 8.769531 27.722656 L 9.933594 26.777344 C 11.714844 27.582031 13.738281 28.035156 15.878906 28.035156 C 23.207031 28.035156 29.105469 22.722656 29.105469 16.128906 C 29.105469 15.886719 29.097656 15.644531 29.082031 15.410156 C 28.707031 15.660156 28.257812 15.800781 27.785156 15.800781 L 21.167969 15.800781 C 19.933594 15.800781 18.847656 14.816406 18.847656 13.558594 L 18.847656 13.402344 C 18.847656 12.585938 19.304688 11.886719 19.960938 11.496094 C 19.304688 11.105469 18.847656 10.402344 18.847656 9.589844 L 18.847656 9.433594 C 18.847656 8.617188 19.304688 7.917969 19.960938 7.527344 C 19.304688 7.136719 18.847656 6.433594 18.847656 5.621094 L 18.847656 5.464844 C 18.847656 5.140625 18.917969 4.835938 19.046875 4.558594 C 18.03125 4.339844 16.96875 4.21875 15.878906 4.21875 Z M 21.167969 5.21875 C 20.941406 5.21875 20.84375 5.34375 20.84375 5.464844 L 20.84375 5.621094 C 20.84375 5.738281 20.941406 5.867188 21.167969 5.867188 L 22.613281 5.867188 C 22.160156 5.625 21.691406 5.410156 21.207031 5.21875 Z M 13.503906 9.074219 C 13.753906 9.078125 13.988281 9.207031 14.121094 9.441406 L 15.949219 12.605469 C 16.152344 12.953125 16.03125 13.398438 15.683594 13.601562 L 15.050781 13.964844 C 14.699219 14.167969 14.253906 14.050781 14.050781 13.699219 L 12.222656 10.535156 C 12.019531 10.183594 12.140625 9.738281 12.492188 9.535156 L 13.125 9.171875 C 13.246094 9.101562 13.378906 9.070312 13.503906 9.074219 Z M 21.167969 9.1875 C 20.941406 9.1875 20.84375 9.3125 20.84375 9.433594 L 20.84375 9.589844 C 20.84375 9.707031 20.941406 9.835938 21.167969 9.835938 L 27.121094 9.835938 C 26.972656 9.613281 26.808594 9.398438 26.644531 9.1875 Z M 11.90625 10.71875 L 13.734375 13.882812 C 12.785156 14.429688 13.066406 16.378906 13.796875 17.644531 C 14.527344 18.910156 16.074219 20.125 17.023438 19.578125 L 18.847656 22.742188 C 16.003906 24.386719 13.261719 19.640625 12.53125 18.375 C 11.800781 17.109375 9.058594 12.363281 11.90625 10.71875 Z M 21.167969 13.15625 C 20.941406 13.15625 20.84375 13.28125 20.84375 13.402344 L 20.84375 13.558594 C 20.84375 13.679688 20.941406 13.804688 21.167969 13.804688 L 27.785156 13.804688 C 28.011719 13.804688 28.109375 13.679688 28.109375 13.558594 L 28.109375 13.402344 C 28.109375 13.28125 28.011719 13.15625 27.785156 13.15625 Z M 18.621094 17.933594 C 18.867188 17.9375 19.105469 18.066406 19.238281 18.300781 L 21.066406 21.464844 C 21.265625 21.8125 21.148438 22.257812 20.796875 22.460938 L 20.164062 22.824219 C 19.8125 23.027344 19.367188 22.910156 19.167969 22.558594 L 17.339844 19.394531 C 17.136719 19.042969 17.253906 18.597656 17.605469 18.394531 L 18.238281 18.03125 C 18.359375 17.960938 18.492188 17.929688 18.621094 17.933594 Z M 18.621094 17.933594 "/>
<path style=" stroke:none;fill-rule:nonzero;fill:rgb(14.901961%,65.098041%,60.392159%);fill-opacity:1;" d="M 21.167969 4.21875 C 20.433594 4.21875 19.847656 4.773438 19.847656 5.464844 L 19.847656 5.621094 C 19.847656 6.308594 20.433594 6.863281 21.167969 6.863281 L 27.785156 6.863281 C 28.515625 6.863281 29.105469 6.308594 29.105469 5.621094 L 29.105469 5.464844 C 29.105469 4.773438 28.515625 4.21875 27.785156 4.21875 Z M 21.167969 8.1875 C 20.433594 8.1875 19.847656 8.746094 19.847656 9.433594 L 19.847656 9.589844 C 19.847656 10.277344 20.433594 10.832031 21.167969 10.832031 L 27.785156 10.832031 C 28.515625 10.832031 29.105469 10.277344 29.105469 9.589844 L 29.105469 9.433594 C 29.105469 8.746094 28.515625 8.1875 27.785156 8.1875 Z M 21.167969 12.15625 C 20.433594 12.15625 19.847656 12.714844 19.847656 13.402344 L 19.847656 13.558594 C 19.847656 14.246094 20.433594 14.804688 21.167969 14.804688 L 27.785156 14.804688 C 28.515625 14.804688 29.105469 14.246094 29.105469 13.558594 L 29.105469 13.402344 C 29.105469 12.714844 28.515625 12.15625 27.785156 12.15625 Z M 21.167969 12.15625 "/>
</g>
</svg>
