<?xml version="1.0" encoding="UTF-8"?>
<svg xmlns="http://www.w3.org/2000/svg" xmlns:xlink="http://www.w3.org/1999/xlink" width="48pt" height="48pt" viewBox="0 0 48 48" version="1.1">
<defs>
<radialGradient id="radial0" gradientUnits="userSpaceOnUse" cx="450.908936" cy="189.579361" fx="450.908936" fy="189.579361" r="21.166656" gradientTransform="matrix(0.000000261256,-0.117199,-0.210958,-0.000000152308,66.784728,95.392994)">
<stop offset="0" style="stop-color:rgb(0%,0%,0%);stop-opacity:0.313725;"/>
<stop offset="0.222222" style="stop-color:rgb(0%,0%,0%);stop-opacity:0.27451;"/>
<stop offset="1" style="stop-color:rgb(0%,0%,0%);stop-opacity:0;"/>
</radialGradient>
<radialGradient id="radial1" gradientUnits="userSpaceOnUse" cx="450.908936" cy="189.579361" fx="450.908936" fy="189.579361" r="21.166656" gradientTransform="matrix(-0.000000261256,0.117199,0.210958,0.000000152308,-19.155178,-11.291223)">
<stop offset="0" style="stop-color:rgb(0%,0%,0%);stop-opacity:0.313725;"/>
<stop offset="0.222222" style="stop-color:rgb(0%,0%,0%);stop-opacity:0.27451;"/>
<stop offset="1" style="stop-color:rgb(0%,0%,0%);stop-opacity:0;"/>
</radialGradient>
<radialGradient id="radial2" gradientUnits="userSpaceOnUse" cx="450.908936" cy="189.579361" fx="450.908936" fy="189.579361" r="21.166656" gradientTransform="matrix(-0.000000261256,-0.117199,0.210958,-0.000000152308,-19.155178,95.392994)">
<stop offset="0" style="stop-color:rgb(0%,0%,0%);stop-opacity:0.313725;"/>
<stop offset="0.222222" style="stop-color:rgb(0%,0%,0%);stop-opacity:0.27451;"/>
<stop offset="1" style="stop-color:rgb(0%,0%,0%);stop-opacity:0;"/>
</radialGradient>
<radialGradient id="radial3" gradientUnits="userSpaceOnUse" cx="450.908936" cy="189.579361" fx="450.908936" fy="189.579361" r="21.166656" gradientTransform="matrix(0.000000261256,0.117199,-0.210958,0.000000152308,66.784725,-11.291224)">
<stop offset="0" style="stop-color:rgb(0%,0%,0%);stop-opacity:0.313725;"/>
<stop offset="0.222222" style="stop-color:rgb(0%,0%,0%);stop-opacity:0.27451;"/>
<stop offset="1" style="stop-color:rgb(0%,0%,0%);stop-opacity:0;"/>
</radialGradient>
<linearGradient id="linear0" gradientUnits="userSpaceOnUse" x1="255.323059" y1="233.5" x2="255.323044" y2="254.666656" gradientTransform="matrix(0.0200401,0,0,0.093759,18.698079,20.158175)">
<stop offset="0" style="stop-color:rgb(0%,0%,0%);stop-opacity:0.27451;"/>
<stop offset="1" style="stop-color:rgb(0%,0%,0%);stop-opacity:0;"/>
</linearGradient>
<linearGradient id="linear1" gradientUnits="userSpaceOnUse" x1="254" y1="233.5" x2="254" y2="-168.666672" gradientTransform="matrix(1,0,0,1,0,0)">
<stop offset="0" style="stop-color:rgb(14.901961%,77.647059%,85.490196%);stop-opacity:1;"/>
<stop offset="1" style="stop-color:rgb(30.196078%,81.568627%,88.235294%);stop-opacity:1;"/>
</linearGradient>
<linearGradient id="linear2" gradientUnits="userSpaceOnUse" x1="254" y1="127.666656" x2="254" y2="-62.833332" gradientTransform="matrix(1,0,0,1,0,0)">
<stop offset="0" style="stop-color:rgb(93.72549%,32.54902%,31.372549%);stop-opacity:1;"/>
<stop offset="1" style="stop-color:rgb(89.803922%,45.098039%,45.098039%);stop-opacity:1;"/>
</linearGradient>
<linearGradient id="linear3" gradientUnits="userSpaceOnUse" x1="254" y1="127.666656" x2="254" y2="-62.833332" gradientTransform="matrix(1,0,0,1,2.745937,0)">
<stop offset="0" style="stop-color:rgb(100%,54.117647%,39.607843%);stop-opacity:1;"/>
<stop offset="1" style="stop-color:rgb(100%,67.058824%,56.862745%);stop-opacity:1;"/>
</linearGradient>
</defs>
<g id="surface1">
<path style=" stroke:none;fill-rule:nonzero;fill:url(#radial0);" d="M 27.289062 42.050781 L 31.257812 42.050781 L 31.257812 40.066406 L 27.289062 40.066406 Z M 27.289062 42.050781 "/>
<path style=" stroke:none;fill-rule:nonzero;fill:url(#radial1);" d="M 20.339844 42.050781 L 16.371094 42.050781 L 16.371094 44.035156 L 20.339844 44.035156 Z M 20.339844 42.050781 "/>
<path style=" stroke:none;fill-rule:nonzero;fill:url(#radial2);" d="M 20.339844 42.050781 L 16.371094 42.050781 L 16.371094 40.066406 L 20.339844 40.066406 Z M 20.339844 42.050781 "/>
<path style=" stroke:none;fill-rule:nonzero;fill:url(#radial3);" d="M 27.289062 42.050781 L 31.257812 42.050781 L 31.257812 44.035156 L 27.289062 44.035156 Z M 27.289062 42.050781 "/>
<path style=" stroke:none;fill-rule:nonzero;fill:url(#linear0);" d="M 20.339844 41.554688 L 27.289062 41.554688 L 27.289062 44.035156 L 20.339844 44.035156 Z M 20.339844 41.554688 "/>
<path style="fill-rule:nonzero;fill:url(#linear1);stroke-width:3;stroke-linecap:round;stroke-linejoin:miter;stroke:rgb(20%,20%,20%);stroke-opacity:1;stroke-miterlimit:4;" d="M 254.017409 -168.671091 C 365.048473 -168.671091 455.081542 -78.638022 455.081542 32.434704 C 455.081542 143.465768 365.048473 233.498837 254.017409 233.498837 C 142.944683 233.498837 52.911614 143.465768 52.911614 32.434704 C 52.911614 -78.638022 142.944683 -168.671091 254.017409 -168.671091 Z M 254.017409 -168.671091 " transform="matrix(0.093759,0,0,0.093759,0,20.158175)"/>
<path style=" stroke:none;fill-rule:nonzero;fill:rgb(0%,0%,0%);fill-opacity:0.235294;" d="M 4.960938 23.046875 C 4.960938 23.097656 4.960938 23.148438 4.960938 23.199219 C 4.960938 33.640625 13.371094 42.050781 23.816406 42.050781 C 34.257812 42.050781 42.667969 33.640625 42.667969 23.199219 C 42.667969 23.148438 42.667969 23.097656 42.667969 23.046875 C 42.585938 33.421875 34.210938 41.75 23.816406 41.75 C 13.421875 41.75 5.042969 33.421875 4.960938 23.046875 Z M 4.960938 23.046875 "/>
<path style=" stroke:none;fill-rule:nonzero;fill:rgb(100%,100%,100%);fill-opacity:0.588235;" d="M 23.816406 4.34375 C 13.371094 4.34375 4.960938 12.753906 4.960938 23.199219 C 4.960938 23.257812 4.960938 23.320312 4.960938 23.382812 C 5.0625 13.023438 13.433594 4.714844 23.816406 4.714844 C 34.199219 4.714844 42.570312 13.023438 42.667969 23.382812 C 42.667969 23.320312 42.667969 23.257812 42.667969 23.199219 C 42.667969 12.753906 34.257812 4.34375 23.816406 4.34375 Z M 23.816406 4.34375 "/>
<path style=" stroke:none;fill-rule:nonzero;fill:rgb(12.941177%,12.941177%,12.941177%);fill-opacity:1;" d="M 23.816406 4.203125 C 13.292969 4.203125 4.820312 12.675781 4.820312 23.199219 C 4.820312 33.71875 13.292969 42.191406 23.816406 42.191406 C 34.335938 42.191406 42.808594 33.71875 42.808594 23.199219 C 42.808594 12.675781 34.335938 4.203125 23.816406 4.203125 Z M 23.816406 4.484375 C 34.183594 4.484375 42.527344 12.828125 42.527344 23.199219 C 42.527344 33.566406 34.183594 41.910156 23.816406 41.910156 C 13.445312 41.910156 5.101562 33.566406 5.101562 23.199219 C 5.101562 12.828125 13.445312 4.484375 23.816406 4.484375 Z M 23.816406 4.484375 "/>
<path style="fill-rule:nonzero;fill:url(#linear2);stroke-width:3;stroke-linecap:square;stroke-linejoin:round;stroke:rgb(12.941177%,12.941177%,12.941177%);stroke-opacity:1;stroke-miterlimit:4;" d="M 254.017409 -62.847863 C 306.595722 -62.847863 349.258314 -20.185271 349.258314 32.434704 C 349.258314 85.013017 306.595722 127.675609 254.017409 127.675609 C 201.397434 127.675609 158.734842 85.013017 158.734842 32.434704 C 158.734842 -20.185271 201.397434 -62.847863 254.017409 -62.847863 Z M 254.017409 -62.847863 " transform="matrix(0.093759,0,0,0.093759,0,20.158175)"/>
<path style="fill-rule:nonzero;fill:url(#linear3);stroke-width:2.828427;stroke-linecap:square;stroke-linejoin:round;stroke:rgb(12.941177%,12.941177%,12.941177%);stroke-opacity:1;stroke-miterlimit:4;" d="M 160.526337 48.183201 C 133.278939 72.847512 119.363601 95.053725 126.32127 107.052579 C 138.028486 127.383971 204.730449 110.677233 275.806995 69.639485 C 346.883541 28.601737 394.670644 -20.810211 382.963429 -41.09994 C 376.00576 -53.140457 349.799929 -52.182215 314.844934 -40.891627 C 318.802889 -37.6836 322.552531 -34.100608 325.968872 -30.184316 C 341.175753 -32.809065 351.883064 -31.392534 355.466055 -25.226456 C 364.256882 -9.977912 326.343836 28.226773 270.515834 60.473694 C 214.646169 92.720614 162.609472 106.427639 153.818644 91.179095 C 150.235653 85.013017 154.360259 75.013972 164.275979 63.181768 C 162.609472 58.265571 161.359591 53.224386 160.526337 48.183201 Z M 160.526337 48.183201 " transform="matrix(0.093759,0,0,0.093759,0,20.158175)"/>
<path style="fill-rule:nonzero;fill:rgb(100%,83.529413%,30.980393%);fill-opacity:0.980392;stroke-width:3;stroke-linecap:square;stroke-linejoin:round;stroke:rgb(12.941177%,12.941177%,12.941177%);stroke-opacity:1;stroke-miterlimit:4;" d="M 174.608326 -84.012509 C 173.150132 -84.012509 171.941914 -89.803622 170.900346 -90.84519 C 169.817117 -91.886757 164.026003 -93.094975 164.026003 -94.594831 C 164.026003 -96.053026 169.817117 -97.261243 170.900346 -98.344473 C 171.941914 -99.386041 173.150132 -105.177154 174.608326 -105.177154 C 176.108183 -105.177154 177.3164 -99.386041 178.357968 -98.344473 C 179.399535 -97.261243 185.190649 -96.053026 185.190649 -94.594831 C 185.190649 -93.094975 179.399535 -91.886757 178.357968 -90.84519 C 177.3164 -89.803622 176.108183 -84.012509 174.608326 -84.012509 Z M 174.608326 -84.012509 " transform="matrix(0.093759,0,0,0.093759,0,20.158175)"/>
<path style="fill-rule:nonzero;fill:rgb(100%,83.529413%,30.980393%);fill-opacity:0.980392;stroke-width:3;stroke-linecap:square;stroke-linejoin:round;stroke:rgb(12.941177%,12.941177%,12.941177%);stroke-opacity:1;stroke-miterlimit:4;" d="M 238.143925 -115.759477 C 236.644068 -115.759477 235.43585 -121.550591 234.394283 -122.592158 C 233.352716 -123.633725 227.561602 -124.841943 227.561602 -126.3418 C 227.561602 -127.799994 233.352716 -129.008212 234.394283 -130.091442 C 235.43585 -131.133009 236.644068 -136.924123 238.143925 -136.924123 C 239.602119 -136.924123 240.810337 -131.133009 241.851904 -130.091442 C 242.935134 -129.008212 248.726248 -127.799994 248.726248 -126.3418 C 248.726248 -124.841943 242.935134 -123.633725 241.851904 -122.592158 C 240.810337 -121.550591 239.602119 -115.759477 238.143925 -115.759477 Z M 238.143925 -115.759477 " transform="matrix(0.093759,0,0,0.093759,0,20.158175)"/>
<path style="fill-rule:nonzero;fill:rgb(100%,83.529413%,30.980393%);fill-opacity:0.980392;stroke-width:3;stroke-linecap:square;stroke-linejoin:round;stroke:rgb(12.941177%,12.941177%,12.941177%);stroke-opacity:1;stroke-miterlimit:4;" d="M 312.220184 -73.430186 C 310.720328 -73.430186 309.51211 -79.2213 308.470543 -80.262867 C 307.428975 -81.304434 301.637862 -82.512652 301.637862 -84.012509 C 301.637862 -85.470703 307.428975 -86.678921 308.470543 -87.762151 C 309.51211 -88.803718 310.720328 -94.594831 312.220184 -94.594831 C 313.678379 -94.594831 314.886596 -88.803718 315.969826 -87.762151 C 317.011394 -86.678921 322.802507 -85.470703 322.802507 -84.012509 C 322.802507 -82.512652 317.011394 -81.304434 315.969826 -80.262867 C 314.886596 -79.2213 313.678379 -73.430186 312.220184 -73.430186 Z M 312.220184 -73.430186 " transform="matrix(0.093759,0,0,0.093759,0,20.158175)"/>
<path style="fill-rule:nonzero;fill:rgb(100%,83.529413%,30.980393%);fill-opacity:0.980392;stroke-width:3;stroke-linecap:square;stroke-linejoin:round;stroke:rgb(12.941177%,12.941177%,12.941177%);stroke-opacity:1;stroke-miterlimit:4;" d="M 391.587605 74.763996 C 390.087748 74.763996 388.879531 68.972882 387.837963 67.889652 C 386.796396 66.848085 381.005282 65.639867 381.005282 64.181673 C 381.005282 62.681816 386.796396 61.473598 387.837963 60.432031 C 388.879531 59.390464 390.087748 53.59935 391.587605 53.59935 C 393.045799 53.59935 394.29568 59.390464 395.337247 60.432031 C 396.378814 61.473598 402.169928 62.681816 402.169928 64.181673 C 402.169928 65.639867 396.378814 66.848085 395.337247 67.889652 C 394.29568 68.972882 393.045799 74.763996 391.587605 74.763996 Z M 391.587605 74.763996 " transform="matrix(0.093759,0,0,0.093759,0,20.158175)"/>
<path style="fill-rule:nonzero;fill:rgb(100%,83.529413%,30.980393%);fill-opacity:0.980392;stroke-width:3;stroke-linecap:square;stroke-linejoin:round;stroke:rgb(12.941177%,12.941177%,12.941177%);stroke-opacity:1;stroke-miterlimit:4;" d="M 354.549476 159.422578 C 353.049619 159.422578 351.841401 153.631464 350.799834 152.589897 C 349.758266 151.506667 343.967153 150.298449 343.967153 148.840255 C 343.967153 147.340398 349.758266 146.13218 350.799834 145.090613 C 351.841401 144.049046 353.049619 138.257932 354.549476 138.257932 C 356.00767 138.257932 357.215888 144.049046 358.299117 145.090613 C 359.340685 146.13218 365.131798 147.340398 365.131798 148.840255 C 365.131798 150.298449 359.340685 151.506667 358.299117 152.589897 C 357.215888 153.631464 356.00767 159.422578 354.549476 159.422578 Z M 354.549476 159.422578 " transform="matrix(0.093759,0,0,0.093759,0,20.158175)"/>
<path style="fill-rule:nonzero;fill:rgb(100%,83.529413%,30.980393%);fill-opacity:0.980392;stroke-width:3;stroke-linecap:square;stroke-linejoin:round;stroke:rgb(12.941177%,12.941177%,12.941177%);stroke-opacity:1;stroke-miterlimit:4;" d="M 190.48181 170.004901 C 189.023616 170.004901 187.815398 164.213787 186.773831 163.17222 C 185.690601 162.130652 179.899487 160.880772 179.899487 159.422578 C 179.899487 157.922721 185.690601 156.714503 186.773831 155.672936 C 187.815398 154.631369 189.023616 148.840255 190.48181 148.840255 C 191.981667 148.840255 193.189885 154.631369 194.231452 155.672936 C 195.273019 156.714503 201.064133 157.922721 201.064133 159.422578 C 201.064133 160.880772 195.273019 162.130652 194.231452 163.17222 C 193.189885 164.213787 191.981667 170.004901 190.48181 170.004901 Z M 190.48181 170.004901 " transform="matrix(0.093759,0,0,0.093759,0,20.158175)"/>
<path style="fill-rule:nonzero;fill:rgb(100%,83.529413%,30.980393%);fill-opacity:0.980392;stroke-width:3;stroke-linecap:square;stroke-linejoin:round;stroke:rgb(12.941177%,12.941177%,12.941177%);stroke-opacity:1;stroke-miterlimit:4;" d="M 259.308571 196.460707 C 257.808714 196.460707 256.600496 190.669594 255.558929 189.628027 C 254.517361 188.586459 248.726248 187.336579 248.726248 185.878385 C 248.726248 184.378528 254.517361 183.17031 255.558929 182.128743 C 256.600496 181.087176 257.808714 175.296062 259.308571 175.296062 C 260.766765 175.296062 261.974983 181.087176 263.01655 182.128743 C 264.09978 183.17031 269.890893 184.378528 269.890893 185.878385 C 269.890893 187.336579 264.09978 188.586459 263.01655 189.628027 C 261.974983 190.669594 260.766765 196.460707 259.308571 196.460707 Z M 259.308571 196.460707 " transform="matrix(0.093759,0,0,0.093759,0,20.158175)"/>
<path style="fill-rule:nonzero;fill:rgb(100%,83.529413%,30.980393%);fill-opacity:0.980392;stroke-width:3;stroke-linecap:square;stroke-linejoin:round;stroke:rgb(12.941177%,12.941177%,12.941177%);stroke-opacity:1;stroke-miterlimit:4;" d="M 100.532066 27.143543 C 99.073872 27.143543 97.865654 21.310767 96.782424 20.2692 C 95.740857 19.227632 89.949744 18.019414 89.949744 16.56122 C 89.949744 15.061364 95.740857 13.853146 96.782424 12.811578 C 97.865654 11.770011 99.073872 5.978898 100.532066 5.978898 C 102.031923 5.978898 103.240141 11.770011 104.281708 12.811578 C 105.323275 13.853146 111.114389 15.061364 111.114389 16.56122 C 111.114389 18.019414 105.323275 19.227632 104.281708 20.2692 C 103.240141 21.310767 102.031923 27.143543 100.532066 27.143543 Z M 100.532066 27.143543 " transform="matrix(0.093759,0,0,0.093759,0,20.158175)"/>
</g>
</svg>
