
<svg xmlns="http://www.w3.org/2000/svg" xmlns:xlink="http://www.w3.org/1999/xlink" width="22px" height="22px" viewBox="0 0 22 22" version="1.1">
<g id="surface1">
<defs>
  <style id="current-color-scheme" type="text/css">
   .ColorScheme-Text { color:#eeeeee; } .ColorScheme-Highlight { color:#424242; }
  </style>
 </defs>
<path style="fill:currentColor;fill-opacity:0.5" class="ColorScheme-Text" d="M 17.1875 2.75 C 16.804688 2.75 16.5 3.054688 16.5 3.4375 L 16.5 11 L 17.875 11 L 17.875 3.4375 C 17.875 3.054688 17.570312 2.75 17.1875 2.75 Z M 17.1875 2.75 "/>
<defs>
  <style id="current-color-scheme" type="text/css">
   .ColorScheme-Text { color:#eeeeee; } .ColorScheme-Highlight { color:#424242; }
  </style>
 </defs>
<path style="fill:currentColor" class="ColorScheme-Text" d="M 13.0625 6.875 C 12.679688 6.875 12.375 7.179688 12.375 7.5625 L 12.375 11 L 13.75 11 L 13.75 7.5625 C 13.75 7.179688 13.445312 6.875 13.0625 6.875 Z M 8.9375 11 C 8.554688 11 8.25 11.304688 8.25 11.6875 L 8.25 18.5625 C 8.25 18.945312 8.554688 19.25 8.9375 19.25 C 9.320312 19.25 9.625 18.945312 9.625 18.5625 L 9.625 11.6875 C 9.625 11.304688 9.320312 11 8.9375 11 Z M 16.5 12.375 C 14.976562 12.375 13.75 13.601562 13.75 15.125 L 13.75 19.25 L 19.25 19.25 L 19.25 15.125 C 19.25 13.601562 18.023438 12.375 16.5 12.375 Z M 16.5 13.75 C 17.261719 13.75 17.875 14.363281 17.875 15.125 L 17.875 16.5 L 15.125 16.5 L 15.125 15.125 C 15.125 14.363281 15.738281 13.75 16.5 13.75 Z M 4.8125 15.125 C 4.429688 15.125 4.125 15.429688 4.125 15.8125 L 4.125 18.5625 C 4.125 18.945312 4.429688 19.25 4.8125 19.25 C 5.195312 19.25 5.5 18.945312 5.5 18.5625 L 5.5 15.8125 C 5.5 15.429688 5.195312 15.125 4.8125 15.125 Z M 4.8125 15.125 "/>
</g>
</svg>
