<?xml version="1.0" encoding="UTF-8"?>
<svg xmlns="http://www.w3.org/2000/svg" xmlns:xlink="http://www.w3.org/1999/xlink" width="22px" height="22px" viewBox="0 0 22 22" version="1.1">
<g id="surface1">
<path style=" stroke:none;fill-rule:nonzero;fill:rgb(74.117649%,74.117649%,74.117649%);fill-opacity:1;" d="M 10.914062 2.445312 C 6.128906 2.445312 2.273438 6.300781 2.273438 11.085938 C 2.273438 15.875 6.128906 19.726562 10.914062 19.726562 C 15.703125 19.726562 19.554688 15.875 19.554688 11.085938 C 19.554688 6.300781 15.703125 2.445312 10.914062 2.445312 Z M 10.914062 4.265625 C 14.695312 4.265625 17.738281 7.308594 17.738281 11.085938 C 17.738281 14.867188 14.695312 17.910156 10.914062 17.910156 C 7.136719 17.910156 4.09375 14.867188 4.09375 11.085938 C 4.09375 7.308594 7.136719 4.265625 10.914062 4.265625 Z M 10.914062 4.265625 "/>
<path style=" stroke:none;fill-rule:nonzero;fill:rgb(74.117649%,74.117649%,74.117649%);fill-opacity:1;" d="M 18.457031 4.078125 C 18.8125 4.433594 18.8125 5.007812 18.457031 5.363281 L 17.816406 6.007812 C 17.460938 6.363281 16.882812 6.363281 16.527344 6.007812 C 16.171875 5.652344 16.171875 5.074219 16.527344 4.71875 L 17.171875 4.078125 C 17.527344 3.722656 18.101562 3.722656 18.457031 4.078125 Z M 18.457031 4.078125 "/>
<path style=" stroke:none;fill-rule:nonzero;fill:rgb(74.117649%,74.117649%,74.117649%);fill-opacity:1;" d="M 3.449219 4.078125 C 3.09375 4.433594 3.09375 5.007812 3.449219 5.363281 L 4.09375 6.007812 C 4.449219 6.363281 5.023438 6.363281 5.378906 6.007812 C 5.734375 5.652344 5.734375 5.074219 5.378906 4.71875 L 4.738281 4.078125 C 4.382812 3.722656 3.804688 3.722656 3.449219 4.078125 Z M 3.449219 4.078125 "/>
<path style=" stroke:none;fill-rule:nonzero;fill:rgb(74.117649%,74.117649%,74.117649%);fill-opacity:1;" d="M 10.914062 5.628906 C 11.417969 5.628906 11.824219 6.035156 11.824219 6.539062 L 11.824219 11.085938 C 11.824219 11.589844 11.417969 11.996094 10.914062 11.996094 C 10.414062 11.996094 10.003906 11.589844 10.003906 11.085938 L 10.003906 6.539062 C 10.003906 6.035156 10.414062 5.628906 10.914062 5.628906 Z M 10.914062 5.628906 "/>
<path style=" stroke:none;fill-rule:nonzero;fill:rgb(74.117649%,74.117649%,74.117649%);fill-opacity:1;" d="M 16.171875 12.480469 C 16.042969 12.96875 15.542969 13.253906 15.058594 13.125 L 10.667969 11.949219 C 10.179688 11.816406 9.894531 11.320312 10.023438 10.835938 C 10.152344 10.347656 10.652344 10.0625 11.136719 10.191406 L 15.53125 11.367188 C 16.015625 11.5 16.304688 11.996094 16.171875 12.480469 Z M 16.171875 12.480469 "/>
</g>
</svg>
