
<svg xmlns="http://www.w3.org/2000/svg" xmlns:xlink="http://www.w3.org/1999/xlink" width="22px" height="22px" viewBox="0 0 22 22" version="1.1">
<g id="surface1">
<defs>
  <style id="current-color-scheme" type="text/css">
   .ColorScheme-Text { color:#eeeeee; } .ColorScheme-Highlight { color:#424242; }
  </style>
 </defs>
<path style="fill:currentColor" class="ColorScheme-Text" d="M 5.445312 2.75 C 4.703125 2.78125 4.125 3.390625 4.125 4.125 L 4.125 17.875 C 4.125 18.375 4.398438 18.835938 4.832031 19.078125 C 5.269531 19.320312 5.804688 19.304688 6.230469 19.039062 L 17.230469 12.164062 C 17.628906 11.914062 17.875 11.472656 17.875 11 C 17.875 10.527344 17.628906 10.085938 17.230469 9.835938 L 6.230469 2.960938 C 5.992188 2.8125 5.71875 2.738281 5.445312 2.75 Z M 6.21875 4.8125 C 6.359375 4.808594 6.5 4.84375 6.617188 4.921875 L 15.425781 10.421875 C 15.855469 10.6875 15.855469 11.3125 15.425781 11.578125 L 6.617188 17.078125 C 6.15625 17.371094 5.558594 17.042969 5.5625 16.5 L 5.5625 5.5 C 5.558594 5.128906 5.847656 4.828125 6.21875 4.8125 Z M 6.21875 4.8125 "/>
</g>
</svg>
