<?xml version="1.0" encoding="UTF-8"?>
<svg xmlns="http://www.w3.org/2000/svg" xmlns:xlink="http://www.w3.org/1999/xlink" width="48px" height="48px" viewBox="0 0 48 48" version="1.1">
<defs>
<linearGradient id="linear0" gradientUnits="userSpaceOnUse" x1="254" y1="233.5" x2="254" y2="254.666672" gradientTransform="matrix(0.093759,0,0,0.093759,-0.00000572259,20.158181)">
<stop offset="0" style="stop-color:rgb(0%,0%,0%);stop-opacity:0.27451;"/>
<stop offset="1" style="stop-color:rgb(0%,0%,0%);stop-opacity:0;"/>
</linearGradient>
<radialGradient id="radial0" gradientUnits="userSpaceOnUse" cx="450.908936" cy="189.579361" fx="450.908936" fy="189.579361" r="21.166656" gradientTransform="matrix(0.000000261256,-0.117199,-0.210958,-0.000000152308,81.172819,95.393002)">
<stop offset="0" style="stop-color:rgb(0%,0%,0%);stop-opacity:0.313726;"/>
<stop offset="0.222222" style="stop-color:rgb(0%,0%,0%);stop-opacity:0.27451;"/>
<stop offset="1" style="stop-color:rgb(0%,0%,0%);stop-opacity:0;"/>
</radialGradient>
<radialGradient id="radial1" gradientUnits="userSpaceOnUse" cx="450.908936" cy="189.579361" fx="450.908936" fy="189.579361" r="21.166656" gradientTransform="matrix(-0.000000261256,0.117199,0.210958,0.000000152308,-33.543267,-11.291215)">
<stop offset="0" style="stop-color:rgb(0%,0%,0%);stop-opacity:0.313726;"/>
<stop offset="0.222222" style="stop-color:rgb(0%,0%,0%);stop-opacity:0.27451;"/>
<stop offset="1" style="stop-color:rgb(0%,0%,0%);stop-opacity:0;"/>
</radialGradient>
<radialGradient id="radial2" gradientUnits="userSpaceOnUse" cx="450.908936" cy="189.579361" fx="450.908936" fy="189.579361" r="21.166656" gradientTransform="matrix(-0.000000261256,-0.117199,0.210958,-0.000000152308,-33.543267,95.393002)">
<stop offset="0" style="stop-color:rgb(0%,0%,0%);stop-opacity:0.313726;"/>
<stop offset="0.222222" style="stop-color:rgb(0%,0%,0%);stop-opacity:0.27451;"/>
<stop offset="1" style="stop-color:rgb(0%,0%,0%);stop-opacity:0;"/>
</radialGradient>
<radialGradient id="radial3" gradientUnits="userSpaceOnUse" cx="450.908936" cy="189.579361" fx="450.908936" fy="189.579361" r="21.166656" gradientTransform="matrix(0.000000261256,0.117199,-0.210958,0.000000152308,81.172816,-11.291216)">
<stop offset="0" style="stop-color:rgb(0%,0%,0%);stop-opacity:0.313726;"/>
<stop offset="0.222222" style="stop-color:rgb(0%,0%,0%);stop-opacity:0.27451;"/>
<stop offset="1" style="stop-color:rgb(0%,0%,0%);stop-opacity:0;"/>
</radialGradient>
<linearGradient id="linear1" gradientUnits="userSpaceOnUse" x1="254" y1="-147.5" x2="254" y2="-31.083334" gradientTransform="matrix(0.093759,0,0,0.093759,0.00000187463,20.158172)">
<stop offset="0" style="stop-color:rgb(64.313728%,64.313728%,64.313728%);stop-opacity:0;"/>
<stop offset="1" style="stop-color:rgb(100%,100%,100%);stop-opacity:0.196078;"/>
</linearGradient>
<linearGradient id="linear2" gradientUnits="userSpaceOnUse" x1="254" y1="233.5" x2="254" y2="-105.166656" gradientTransform="matrix(0.093759,0,0,0.093759,-0.00000271859,20.158175)">
<stop offset="0" style="stop-color:rgb(34.509805%,34.509805%,34.509805%);stop-opacity:0;"/>
<stop offset="1" style="stop-color:rgb(98.039216%,98.039216%,98.039216%);stop-opacity:0.196078;"/>
</linearGradient>
</defs>
<g id="surface1">
<path style=" stroke:none;fill-rule:nonzero;fill:url(#linear0);" d="M 5.953125 42.050781 L 41.675781 42.050781 L 41.675781 44.035156 L 5.953125 44.035156 Z M 5.953125 42.050781 "/>
<path style=" stroke:none;fill-rule:nonzero;fill:url(#radial0);" d="M 41.675781 42.050781 L 45.644531 42.050781 L 45.644531 40.066406 L 41.675781 40.066406 Z M 41.675781 42.050781 "/>
<path style=" stroke:none;fill-rule:nonzero;fill:url(#radial1);" d="M 5.953125 42.050781 L 1.984375 42.050781 L 1.984375 44.035156 L 5.953125 44.035156 Z M 5.953125 42.050781 "/>
<path style=" stroke:none;fill-rule:nonzero;fill:url(#radial2);" d="M 5.953125 42.050781 L 1.984375 42.050781 L 1.984375 40.066406 L 5.953125 40.066406 Z M 5.953125 42.050781 "/>
<path style=" stroke:none;fill-rule:nonzero;fill:url(#radial3);" d="M 41.675781 42.050781 L 45.644531 42.050781 L 45.644531 44.035156 L 41.675781 44.035156 Z M 41.675781 42.050781 "/>
<path style=" stroke:none;fill-rule:nonzero;fill:rgb(74.117649%,74.117649%,74.117649%);fill-opacity:1;" d="M 10.914062 6.328125 L 43.164062 6.328125 C 44.261719 6.328125 45.148438 7.21875 45.148438 8.3125 L 45.148438 15.753906 C 45.148438 16.851562 44.261719 17.738281 43.164062 17.738281 L 10.914062 17.738281 C 9.820312 17.738281 8.929688 16.851562 8.929688 15.753906 L 8.929688 8.3125 C 8.929688 7.21875 9.820312 6.328125 10.914062 6.328125 Z M 10.914062 6.328125 "/>
<path style=" stroke:none;fill-rule:nonzero;fill:url(#linear1);" d="M 10.914062 6.328125 L 43.164062 6.328125 C 44.261719 6.328125 45.148438 7.21875 45.148438 8.3125 L 45.148438 15.753906 C 45.148438 16.851562 44.261719 17.738281 43.164062 17.738281 L 10.914062 17.738281 C 9.820312 17.738281 8.929688 16.851562 8.929688 15.753906 L 8.929688 8.3125 C 8.929688 7.21875 9.820312 6.328125 10.914062 6.328125 Z M 10.914062 6.328125 "/>
<path style=" stroke:none;fill-rule:nonzero;fill:rgb(100%,100%,100%);fill-opacity:0.392157;" d="M 10.914062 6.453125 C 9.816406 6.453125 8.929688 7.339844 8.929688 8.4375 L 8.929688 8.6875 C 8.929688 7.585938 9.816406 6.703125 10.914062 6.703125 L 43.164062 6.703125 C 44.265625 6.703125 45.148438 7.585938 45.148438 8.6875 L 45.148438 8.4375 C 45.148438 7.339844 44.265625 6.453125 43.164062 6.453125 Z M 10.914062 6.453125 "/>
<path style=" stroke:none;fill-rule:nonzero;fill:rgb(12.941177%,12.941177%,12.941177%);fill-opacity:1;" d="M 10.914062 6.1875 C 9.738281 6.1875 8.789062 7.136719 8.789062 8.3125 L 8.789062 15.753906 C 8.789062 16.929688 9.738281 17.878906 10.914062 17.878906 L 43.164062 17.878906 C 44.339844 17.878906 45.289062 16.929688 45.289062 15.753906 L 45.289062 8.3125 C 45.289062 7.136719 44.339844 6.1875 43.164062 6.1875 Z M 10.914062 6.46875 L 43.164062 6.46875 C 44.1875 6.46875 45.007812 7.289062 45.007812 8.3125 L 45.007812 15.753906 C 45.007812 16.78125 44.1875 17.597656 43.164062 17.597656 L 10.914062 17.597656 C 9.890625 17.597656 9.070312 16.78125 9.070312 15.753906 L 9.070312 8.3125 C 9.070312 7.289062 9.890625 6.46875 10.914062 6.46875 Z M 10.914062 6.46875 "/>
<path style=" stroke:none;fill-rule:nonzero;fill:rgb(58.431375%,45.882353%,80.392158%);fill-opacity:1;" d="M 3.96875 10.296875 C 2.871094 10.296875 1.984375 11.183594 1.984375 12.28125 L 1.984375 40.066406 C 1.984375 41.164062 2.871094 42.050781 3.96875 42.050781 L 43.660156 42.050781 C 44.761719 42.050781 45.644531 41.164062 45.644531 40.066406 L 45.644531 15.257812 L 18.851562 15.257812 C 17.753906 15.257812 16.867188 14.375 16.867188 13.273438 L 16.867188 10.296875 Z M 3.96875 10.296875 "/>
<path style=" stroke:none;fill-rule:nonzero;fill:url(#linear2);" d="M 3.96875 10.296875 C 2.871094 10.296875 1.984375 11.183594 1.984375 12.28125 L 1.984375 40.066406 C 1.984375 41.164062 2.871094 42.050781 3.96875 42.050781 L 43.660156 42.050781 C 44.761719 42.050781 45.644531 41.164062 45.644531 40.066406 L 45.644531 15.257812 L 18.851562 15.257812 C 17.753906 15.257812 16.867188 14.375 16.867188 13.273438 L 16.867188 10.296875 Z M 3.96875 10.296875 "/>
<path style=" stroke:none;fill-rule:nonzero;fill:rgb(0%,0%,0%);fill-opacity:0.196078;" d="M 3.96875 42.050781 C 2.871094 42.050781 1.984375 41.164062 1.984375 40.066406 L 1.984375 39.816406 C 1.984375 40.917969 2.871094 41.804688 3.96875 41.804688 L 43.660156 41.804688 C 44.761719 41.804688 45.644531 40.917969 45.644531 39.816406 L 45.644531 40.066406 C 45.644531 41.164062 44.761719 42.050781 43.660156 42.050781 Z M 3.96875 42.050781 "/>
<path style=" stroke:none;fill-rule:nonzero;fill:rgb(100%,100%,100%);fill-opacity:0.392157;" d="M 3.96875 10.421875 C 2.871094 10.421875 1.984375 11.308594 1.984375 12.40625 L 1.984375 12.65625 C 1.984375 11.554688 2.871094 10.671875 3.96875 10.671875 L 16.867188 10.671875 L 16.867188 10.421875 Z M 3.96875 10.421875 "/>
<path style=" stroke:none;fill-rule:nonzero;fill:rgb(100%,100%,100%);fill-opacity:0.392157;" d="M 18.730469 15.507812 C 17.628906 15.507812 16.746094 14.625 16.746094 13.523438 L 16.746094 13.277344 C 16.746094 14.375 17.628906 15.261719 18.730469 15.261719 L 45.644531 15.261719 L 45.644531 15.507812 Z M 18.730469 15.507812 "/>
<path style=" stroke:none;fill-rule:nonzero;fill:rgb(12.941177%,12.941177%,12.941177%);fill-opacity:1;" d="M 3.96875 10.15625 C 2.792969 10.15625 1.84375 11.109375 1.84375 12.28125 L 1.84375 40.066406 C 1.84375 41.242188 2.792969 42.191406 3.96875 42.191406 L 43.660156 42.191406 C 44.835938 42.191406 45.785156 41.242188 45.785156 40.066406 L 45.785156 14.976562 L 18.851562 14.976562 C 17.828125 14.976562 17.007812 14.15625 17.007812 13.132812 L 17.007812 10.15625 Z M 3.96875 10.4375 L 16.726562 10.4375 L 16.726562 13.132812 C 16.726562 14.308594 17.679688 15.257812 18.851562 15.257812 L 45.503906 15.257812 L 45.503906 40.066406 C 45.503906 41.089844 44.683594 41.910156 43.660156 41.910156 L 3.96875 41.910156 C 2.945312 41.910156 2.125 41.089844 2.125 40.066406 L 2.125 12.28125 C 2.125 11.257812 2.945312 10.4375 3.96875 10.4375 Z M 3.96875 10.4375 "/>
<path style=" stroke:none;fill-rule:nonzero;fill:rgb(74.117649%,74.117649%,74.117649%);fill-opacity:1;" d="M 18.851562 19.191406 C 18.285156 19.191406 17.824219 19.652344 17.824219 20.21875 C 17.824219 22.28125 19.292969 23.976562 20.605469 25.289062 C 21.183594 25.867188 21.738281 26.34375 22.203125 26.722656 C 21.730469 27.160156 21.152344 27.730469 20.558594 28.414062 C 19.25 29.917969 17.824219 31.886719 17.824219 34.113281 C 17.824219 34.679688 18.285156 35.140625 18.851562 35.140625 L 28.777344 35.140625 C 29.34375 35.140625 29.804688 34.679688 29.804688 34.113281 C 29.804688 31.886719 28.378906 29.917969 27.070312 28.414062 C 26.476562 27.730469 25.898438 27.160156 25.425781 26.722656 C 25.890625 26.34375 26.445312 25.867188 27.023438 25.289062 C 28.335938 23.976562 29.804688 22.28125 29.804688 20.21875 C 29.804688 19.652344 29.34375 19.191406 28.777344 19.191406 Z M 18.851562 19.191406 "/>
<path style=" stroke:none;fill-rule:nonzero;fill:rgb(100%,100%,100%);fill-opacity:0.392157;" d="M 17.835938 20.398438 C 17.828125 20.453125 17.824219 20.507812 17.824219 20.5625 C 17.824219 22.625 19.292969 24.320312 20.605469 25.632812 C 21.070312 26.097656 21.523438 26.496094 21.921875 26.832031 C 22.019531 26.742188 22.113281 26.652344 22.203125 26.570312 C 21.738281 26.191406 21.183594 25.710938 20.605469 25.136719 C 19.363281 23.894531 17.984375 22.3125 17.835938 20.398438 Z M 29.792969 20.398438 C 29.644531 22.3125 28.265625 23.894531 27.023438 25.136719 C 26.445312 25.710938 25.890625 26.191406 25.425781 26.570312 C 25.515625 26.652344 25.609375 26.742188 25.707031 26.832031 C 26.105469 26.496094 26.558594 26.097656 27.023438 25.632812 C 28.335938 24.320312 29.804688 22.625 29.804688 20.5625 C 29.804688 20.507812 29.800781 20.453125 29.792969 20.398438 Z M 17.835938 34.113281 C 17.828125 34.226562 17.824219 34.339844 17.824219 34.457031 C 17.824219 35.023438 18.285156 35.484375 18.851562 35.484375 L 28.777344 35.484375 C 29.34375 35.484375 29.804688 35.023438 29.804688 34.457031 C 29.804688 34.339844 29.800781 34.226562 29.792969 34.113281 C 29.71875 34.609375 29.292969 34.988281 28.777344 34.988281 L 18.851562 34.988281 C 18.335938 34.988281 17.910156 34.609375 17.835938 34.113281 Z M 17.835938 34.113281 "/>
<path style=" stroke:none;fill-rule:nonzero;fill:rgb(0%,0%,0%);fill-opacity:0.235294;" d="M 18.851562 19.191406 C 18.285156 19.191406 17.824219 19.652344 17.824219 20.21875 C 17.824219 20.296875 17.828125 20.375 17.832031 20.453125 C 17.886719 19.9375 18.324219 19.539062 18.851562 19.539062 L 28.777344 19.539062 C 29.304688 19.539062 29.742188 19.9375 29.800781 20.453125 C 29.804688 20.375 29.804688 20.296875 29.804688 20.21875 C 29.804688 19.652344 29.34375 19.191406 28.777344 19.191406 Z M 22.007812 26.90625 C 21.574219 27.316406 21.074219 27.820312 20.558594 28.414062 C 19.25 29.917969 17.824219 31.886719 17.824219 34.113281 C 17.824219 34.148438 17.828125 34.183594 17.828125 34.21875 C 17.925781 32.089844 19.296875 30.210938 20.558594 28.757812 C 21.152344 28.074219 21.730469 27.507812 22.203125 27.066406 C 22.140625 27.015625 22.074219 26.960938 22.007812 26.90625 Z M 25.621094 26.90625 C 25.554688 26.960938 25.488281 27.015625 25.425781 27.066406 C 25.898438 27.507812 26.476562 28.074219 27.070312 28.757812 C 28.332031 30.210938 29.703125 32.089844 29.800781 34.21875 C 29.804688 34.183594 29.804688 34.148438 29.804688 34.113281 C 29.804688 31.886719 28.378906 29.917969 27.070312 28.414062 C 26.558594 27.820312 26.054688 27.316406 25.621094 26.90625 Z M 25.621094 26.90625 "/>
<path style="fill:none;stroke-width:3;stroke-linecap:round;stroke-linejoin:round;stroke:rgb(12.941177%,12.941177%,12.941177%);stroke-opacity:1;stroke-miterlimit:4;" d="M 201.064133 -10.311213 C 195.023043 -10.311213 190.106846 -5.395016 190.106846 0.646073 C 190.106846 22.643973 205.772016 40.725579 219.77068 54.724243 C 225.936757 60.89032 231.852859 65.973168 236.810719 70.014449 C 231.769534 74.68067 225.603456 80.763423 219.270727 88.054393 C 205.313727 104.094528 190.106846 125.092523 190.106846 148.840255 C 190.106846 154.881345 195.023043 159.797542 201.064133 159.797542 L 306.929023 159.797542 C 312.970113 159.797542 317.88631 154.881345 317.88631 148.840255 C 317.88631 125.092523 302.679429 104.094528 288.722428 88.054393 C 282.3897 80.763423 276.223622 74.68067 271.182437 70.014449 C 276.140297 65.973168 282.056398 60.89032 288.222476 54.724243 C 302.221139 40.725579 317.88631 22.643973 317.88631 0.646073 C 317.88631 -5.395016 312.970113 -10.311213 306.929023 -10.311213 Z M 201.064133 -10.311213 " transform="matrix(0.093759,0,0,0.093759,0,20.158175)"/>
</g>
</svg>
