<?xml version="1.0" encoding="UTF-8"?>
<svg xmlns="http://www.w3.org/2000/svg" xmlns:xlink="http://www.w3.org/1999/xlink" width="64pt" height="64pt" viewBox="0 0 64 64" version="1.1">
<defs>
<linearGradient id="linear0" gradientUnits="userSpaceOnUse" x1="254" y1="233.5" x2="254" y2="254.666672" gradientTransform="matrix(0.125012,0,0,0.125012,-0.00000763012,26.87757)">
<stop offset="0" style="stop-color:rgb(0%,0%,0%);stop-opacity:0.27451;"/>
<stop offset="1" style="stop-color:rgb(0%,0%,0%);stop-opacity:0;"/>
</linearGradient>
<radialGradient id="radial0" gradientUnits="userSpaceOnUse" cx="450.908936" cy="189.579361" fx="450.908936" fy="189.579361" r="21.166656" gradientTransform="matrix(0.000000348341,-0.156265,-0.281277,-0.000000203077,106.24586,127.190665)">
<stop offset="0" style="stop-color:rgb(0%,0%,0%);stop-opacity:0.313725;"/>
<stop offset="0.222222" style="stop-color:rgb(0%,0%,0%);stop-opacity:0.27451;"/>
<stop offset="1" style="stop-color:rgb(0%,0%,0%);stop-opacity:0;"/>
</radialGradient>
<radialGradient id="radial1" gradientUnits="userSpaceOnUse" cx="450.908936" cy="189.579361" fx="450.908936" fy="189.579361" r="21.166656" gradientTransform="matrix(-0.000000348341,0.156265,0.281277,0.000000203077,-42.409041,-15.054958)">
<stop offset="0" style="stop-color:rgb(0%,0%,0%);stop-opacity:0.313725;"/>
<stop offset="0.222222" style="stop-color:rgb(0%,0%,0%);stop-opacity:0.27451;"/>
<stop offset="1" style="stop-color:rgb(0%,0%,0%);stop-opacity:0;"/>
</radialGradient>
<radialGradient id="radial2" gradientUnits="userSpaceOnUse" cx="450.908936" cy="189.579361" fx="450.908936" fy="189.579361" r="21.166656" gradientTransform="matrix(-0.000000348341,-0.156265,0.281277,-0.000000203077,-42.409041,127.190665)">
<stop offset="0" style="stop-color:rgb(0%,0%,0%);stop-opacity:0.313725;"/>
<stop offset="0.222222" style="stop-color:rgb(0%,0%,0%);stop-opacity:0.27451;"/>
<stop offset="1" style="stop-color:rgb(0%,0%,0%);stop-opacity:0;"/>
</radialGradient>
<radialGradient id="radial3" gradientUnits="userSpaceOnUse" cx="450.908936" cy="189.579361" fx="450.908936" fy="189.579361" r="21.166656" gradientTransform="matrix(0.000000348341,0.156265,-0.281277,0.000000203077,106.245857,-15.054959)">
<stop offset="0" style="stop-color:rgb(0%,0%,0%);stop-opacity:0.313725;"/>
<stop offset="0.222222" style="stop-color:rgb(0%,0%,0%);stop-opacity:0.27451;"/>
<stop offset="1" style="stop-color:rgb(0%,0%,0%);stop-opacity:0;"/>
</radialGradient>
<linearGradient id="linear1" gradientUnits="userSpaceOnUse" x1="254" y1="233.5" x2="254" y2="-168.666672" gradientTransform="matrix(0.125012,0,0,0.125012,0,26.877566)">
<stop offset="0" style="stop-color:rgb(87.843137%,87.843137%,87.843137%);stop-opacity:1;"/>
<stop offset="1" style="stop-color:rgb(93.333333%,93.333333%,93.333333%);stop-opacity:1;"/>
</linearGradient>
<linearGradient id="linear2" gradientUnits="userSpaceOnUse" x1="254" y1="-84" x2="254" y2="-168.666672" gradientTransform="matrix(3.779528,0,0,3.779528,0,812.59845)">
<stop offset="0" style="stop-color:rgb(25.882353%,64.705882%,96.078431%);stop-opacity:1;"/>
<stop offset="1" style="stop-color:rgb(39.215686%,70.980392%,96.470588%);stop-opacity:1;"/>
</linearGradient>
<linearGradient id="linear3" gradientUnits="userSpaceOnUse" x1="391.583344" y1="233.500015" x2="391.583344" y2="-168.666656" gradientTransform="matrix(1,0,0,1,-84.666664,-0.0000101725)">
<stop offset="0" style="stop-color:rgb(89.803922%,45.098039%,45.098039%);stop-opacity:1;"/>
<stop offset="1" style="stop-color:rgb(93.72549%,60.392157%,60.392157%);stop-opacity:1;"/>
</linearGradient>
</defs>
<g id="surface1">
<path style=" stroke:none;fill-rule:nonzero;fill:url(#linear0);" d="M 10.253906 56.066406 L 53.582031 56.066406 L 53.582031 58.714844 L 10.253906 58.714844 Z M 10.253906 56.066406 "/>
<path style=" stroke:none;fill-rule:nonzero;fill:url(#radial0);" d="M 53.582031 56.066406 L 58.875 56.066406 L 58.875 53.421875 L 53.582031 53.421875 Z M 53.582031 56.066406 "/>
<path style=" stroke:none;fill-rule:nonzero;fill:url(#radial1);" d="M 10.253906 56.066406 L 4.960938 56.066406 L 4.960938 58.714844 L 10.253906 58.714844 Z M 10.253906 56.066406 "/>
<path style=" stroke:none;fill-rule:nonzero;fill:url(#radial2);" d="M 10.253906 56.066406 L 4.960938 56.066406 L 4.960938 53.421875 L 10.253906 53.421875 Z M 10.253906 56.066406 "/>
<path style=" stroke:none;fill-rule:nonzero;fill:url(#radial3);" d="M 53.582031 56.066406 L 58.875 56.066406 L 58.875 58.714844 L 53.582031 58.714844 Z M 53.582031 56.066406 "/>
<path style=" stroke:none;fill-rule:nonzero;fill:url(#linear1);" d="M 7.277344 5.792969 L 56.230469 5.792969 C 57.324219 5.792969 58.214844 6.679688 58.214844 7.777344 L 58.214844 54.082031 C 58.214844 55.179688 57.324219 56.066406 56.230469 56.066406 L 7.277344 56.066406 C 6.179688 56.066406 5.292969 55.179688 5.292969 54.082031 L 5.292969 7.777344 C 5.292969 6.679688 6.179688 5.792969 7.277344 5.792969 Z M 7.277344 5.792969 "/>
<path style=" stroke:none;fill-rule:nonzero;fill:rgb(0%,0%,0%);fill-opacity:0.196078;" d="M 7.9375 56.066406 C 6.472656 56.066406 5.292969 54.886719 5.292969 53.421875 L 5.292969 53.089844 C 5.292969 54.558594 6.472656 55.738281 7.9375 55.738281 L 55.566406 55.738281 C 57.035156 55.738281 58.214844 54.558594 58.214844 53.089844 L 58.214844 53.421875 C 58.214844 54.886719 57.035156 56.066406 55.566406 56.066406 Z M 7.9375 56.066406 "/>
<path style=" stroke:none;fill-rule:nonzero;fill:rgb(100%,100%,100%);fill-opacity:0.643137;" d="M 7.9375 5.792969 C 6.472656 5.792969 5.292969 6.972656 5.292969 8.4375 L 5.292969 8.769531 C 5.292969 7.304688 6.472656 6.121094 7.9375 6.121094 L 55.566406 6.121094 C 57.035156 6.121094 58.214844 7.304688 58.214844 8.769531 L 58.214844 8.4375 C 58.214844 6.972656 57.035156 5.792969 55.566406 5.792969 Z M 7.9375 5.792969 "/>
<path style=" stroke:none;fill-rule:nonzero;fill:rgb(12.941177%,12.941177%,12.941177%);fill-opacity:1;" d="M 7.277344 5.605469 C 6.078125 5.605469 5.105469 6.578125 5.105469 7.777344 L 5.105469 54.082031 C 5.105469 55.285156 6.078125 56.253906 7.277344 56.253906 L 56.230469 56.253906 C 57.429688 56.253906 58.402344 55.285156 58.402344 54.082031 L 58.402344 7.777344 C 58.402344 6.578125 57.429688 5.605469 56.230469 5.605469 Z M 7.277344 5.980469 L 56.230469 5.980469 C 57.226562 5.980469 58.027344 6.777344 58.027344 7.777344 L 58.027344 54.082031 C 58.027344 55.082031 57.226562 55.878906 56.230469 55.878906 L 7.277344 55.878906 C 6.277344 55.878906 5.480469 55.082031 5.480469 54.082031 L 5.480469 7.777344 C 5.480469 6.777344 6.277344 5.980469 7.277344 5.980469 Z M 7.277344 5.980469 "/>
<path style="fill-rule:nonzero;fill:url(#linear2);stroke-width:11.338583;stroke-linecap:round;stroke-linejoin:miter;stroke:rgb(12.941177%,12.941177%,12.941177%);stroke-opacity:1;stroke-miterlimit:4;" d="M 220.018371 175.140764 C 186.714463 175.140764 160.024097 201.83113 160.024097 235.135038 L 160.024097 575.141957 L 1760.028869 575.141957 L 1760.028869 235.135038 C 1760.028869 201.83113 1733.220404 175.140764 1700.034595 175.140764 Z M 220.018371 175.140764 " transform="matrix(0.0330761,0,0,0.0330761,0,0)"/>
<path style="fill-rule:nonzero;fill:rgb(39.215687%,70.980394%,96.470588%);fill-opacity:0.196078;stroke-width:3;stroke-linecap:round;stroke-linejoin:miter;stroke:rgb(12.941177%,12.941177%,12.941177%);stroke-opacity:1;stroke-miterlimit:4;" d="M 190.513057 -31.080063 L 232.821517 -31.080063 C 238.664709 -31.080063 243.414255 -26.330517 243.414255 -20.487325 L 243.414255 21.821135 C 243.414255 27.664327 238.664709 32.413873 232.821517 32.413873 L 190.513057 32.413873 C 184.669865 32.413873 179.920318 27.664327 179.920318 21.821135 L 179.920318 -20.487325 C 179.920318 -26.330517 184.669865 -31.080063 190.513057 -31.080063 Z M 190.513057 -31.080063 " transform="matrix(0.125012,0,0,0.125012,0,26.877566)"/>
<path style="fill-rule:nonzero;fill:rgb(39.215687%,70.980394%,96.470588%);fill-opacity:0.196078;stroke-width:3;stroke-linecap:round;stroke-linejoin:miter;stroke:rgb(12.941177%,12.941177%,12.941177%);stroke-opacity:1;stroke-miterlimit:4;" d="M 275.161223 -31.080063 L 317.50093 -31.080063 C 323.344122 -31.080063 328.093669 -26.330517 328.093669 -20.487325 L 328.093669 21.821135 C 328.093669 27.664327 323.344122 32.413873 317.50093 32.413873 L 275.161223 32.413873 C 269.318031 32.413873 264.568485 27.664327 264.568485 21.821135 L 264.568485 -20.487325 C 264.568485 -26.330517 269.318031 -31.080063 275.161223 -31.080063 Z M 275.161223 -31.080063 " transform="matrix(0.125012,0,0,0.125012,0,26.877566)"/>
<path style="fill-rule:nonzero;fill:rgb(39.215687%,70.980394%,96.470588%);fill-opacity:0.196078;stroke-width:3;stroke-linecap:round;stroke-linejoin:miter;stroke:rgb(12.941177%,12.941177%,12.941177%);stroke-opacity:1;stroke-miterlimit:4;" d="M 359.840637 -31.080063 L 402.180344 -31.080063 C 408.023536 -31.080063 412.741835 -26.330517 412.741835 -20.487325 L 412.741835 21.821135 C 412.741835 27.664327 408.023536 32.413873 402.180344 32.413873 L 359.840637 32.413873 C 353.997445 32.413873 349.247898 27.664327 349.247898 21.821135 L 349.247898 -20.487325 C 349.247898 -26.330517 353.997445 -31.080063 359.840637 -31.080063 Z M 359.840637 -31.080063 " transform="matrix(0.125012,0,0,0.125012,0,26.877566)"/>
<path style="fill-rule:nonzero;fill:rgb(39.215687%,70.980394%,96.470588%);fill-opacity:0.196078;stroke-width:3;stroke-linecap:round;stroke-linejoin:miter;stroke:rgb(12.941177%,12.941177%,12.941177%);stroke-opacity:1;stroke-miterlimit:4;" d="M 105.833643 53.568103 L 148.17335 53.568103 C 154.016542 53.568103 158.734842 58.317649 158.734842 64.160841 L 158.734842 106.500548 C 158.734842 112.34374 154.016542 117.093287 148.17335 117.093287 L 105.833643 117.093287 C 99.990451 117.093287 95.240905 112.34374 95.240905 106.500548 L 95.240905 64.160841 C 95.240905 58.317649 99.990451 53.568103 105.833643 53.568103 Z M 105.833643 53.568103 " transform="matrix(0.125012,0,0,0.125012,0,26.877566)"/>
<path style="fill-rule:nonzero;fill:rgb(39.215687%,70.980394%,96.470588%);fill-opacity:0.196078;stroke-width:3;stroke-linecap:round;stroke-linejoin:miter;stroke:rgb(12.941177%,12.941177%,12.941177%);stroke-opacity:1;stroke-miterlimit:4;" d="M 190.513057 53.568103 L 232.821517 53.568103 C 238.664709 53.568103 243.414255 58.317649 243.414255 64.160841 L 243.414255 106.500548 C 243.414255 112.34374 238.664709 117.093287 232.821517 117.093287 L 190.513057 117.093287 C 184.669865 117.093287 179.920318 112.34374 179.920318 106.500548 L 179.920318 64.160841 C 179.920318 58.317649 184.669865 53.568103 190.513057 53.568103 Z M 190.513057 53.568103 " transform="matrix(0.125012,0,0,0.125012,0,26.877566)"/>
<path style="fill-rule:nonzero;fill:rgb(39.215687%,70.980394%,96.470588%);fill-opacity:0.196078;stroke-width:3;stroke-linecap:round;stroke-linejoin:miter;stroke:rgb(12.941177%,12.941177%,12.941177%);stroke-opacity:1;stroke-miterlimit:4;" d="M 359.840637 53.568103 L 402.180344 53.568103 C 408.023536 53.568103 412.741835 58.317649 412.741835 64.160841 L 412.741835 106.500548 C 412.741835 112.34374 408.023536 117.093287 402.180344 117.093287 L 359.840637 117.093287 C 353.997445 117.093287 349.247898 112.34374 349.247898 106.500548 L 349.247898 64.160841 C 349.247898 58.317649 353.997445 53.568103 359.840637 53.568103 Z M 359.840637 53.568103 " transform="matrix(0.125012,0,0,0.125012,0,26.877566)"/>
<path style="fill-rule:nonzero;fill:url(#linear3);stroke-width:3;stroke-linecap:round;stroke-linejoin:miter;stroke:rgb(12.941177%,12.941177%,12.941177%);stroke-opacity:1;stroke-miterlimit:4;" d="M 275.161223 53.568103 L 317.50093 53.568103 C 323.344122 53.568103 328.093669 58.317649 328.093669 64.160841 L 328.093669 106.500548 C 328.093669 112.34374 323.344122 117.093287 317.50093 117.093287 L 275.161223 117.093287 C 269.318031 117.093287 264.568485 112.34374 264.568485 106.500548 L 264.568485 64.160841 C 264.568485 58.317649 269.318031 53.568103 275.161223 53.568103 Z M 275.161223 53.568103 " transform="matrix(0.125012,0,0,0.125012,0,26.877566)"/>
<path style="fill-rule:nonzero;fill:rgb(39.215687%,70.980394%,96.470588%);fill-opacity:0.196078;stroke-width:3;stroke-linecap:round;stroke-linejoin:miter;stroke:rgb(12.941177%,12.941177%,12.941177%);stroke-opacity:1;stroke-miterlimit:4;" d="M 105.833643 138.247517 L 148.17335 138.247517 C 154.016542 138.247517 158.734842 142.997063 158.734842 148.840255 L 158.734842 191.179962 C 158.734842 197.023154 154.016542 201.741453 148.17335 201.741453 L 105.833643 201.741453 C 99.990451 201.741453 95.240905 197.023154 95.240905 191.179962 L 95.240905 148.840255 C 95.240905 142.997063 99.990451 138.247517 105.833643 138.247517 Z M 105.833643 138.247517 " transform="matrix(0.125012,0,0,0.125012,0,26.877566)"/>
<path style="fill-rule:nonzero;fill:rgb(39.215687%,70.980394%,96.470588%);fill-opacity:0.196078;stroke-width:3;stroke-linecap:round;stroke-linejoin:miter;stroke:rgb(12.941177%,12.941177%,12.941177%);stroke-opacity:1;stroke-miterlimit:4;" d="M 190.513057 138.247517 L 232.821517 138.247517 C 238.664709 138.247517 243.414255 142.997063 243.414255 148.840255 L 243.414255 191.179962 C 243.414255 197.023154 238.664709 201.741453 232.821517 201.741453 L 190.513057 201.741453 C 184.669865 201.741453 179.920318 197.023154 179.920318 191.179962 L 179.920318 148.840255 C 179.920318 142.997063 184.669865 138.247517 190.513057 138.247517 Z M 190.513057 138.247517 " transform="matrix(0.125012,0,0,0.125012,0,26.877566)"/>
<path style="fill-rule:nonzero;fill:rgb(39.215687%,70.980394%,96.470588%);fill-opacity:0.196078;stroke-width:3;stroke-linecap:round;stroke-linejoin:miter;stroke:rgb(12.941177%,12.941177%,12.941177%);stroke-opacity:1;stroke-miterlimit:4;" d="M 275.161223 138.247517 L 317.50093 138.247517 C 323.344122 138.247517 328.093669 142.997063 328.093669 148.840255 L 328.093669 191.179962 C 328.093669 197.023154 323.344122 201.741453 317.50093 201.741453 L 275.161223 201.741453 C 269.318031 201.741453 264.568485 197.023154 264.568485 191.179962 L 264.568485 148.840255 C 264.568485 142.997063 269.318031 138.247517 275.161223 138.247517 Z M 275.161223 138.247517 " transform="matrix(0.125012,0,0,0.125012,0,26.877566)"/>
<path style="fill-rule:nonzero;fill:rgb(39.215687%,70.980394%,96.470588%);fill-opacity:0.196078;stroke-width:3;stroke-linecap:round;stroke-linejoin:miter;stroke:rgb(12.941177%,12.941177%,12.941177%);stroke-opacity:1;stroke-miterlimit:4;" d="M 105.833643 -31.080063 L 148.17335 -31.080063 C 154.016542 -31.080063 158.734842 -26.330517 158.734842 -20.487325 L 158.734842 21.821135 C 158.734842 27.664327 154.016542 32.413873 148.17335 32.413873 L 105.833643 32.413873 C 99.990451 32.413873 95.240905 27.664327 95.240905 21.821135 L 95.240905 -20.487325 C 95.240905 -26.330517 99.990451 -31.080063 105.833643 -31.080063 Z M 105.833643 -31.080063 " transform="matrix(0.125012,0,0,0.125012,0,26.877566)"/>
<path style="fill-rule:nonzero;fill:rgb(39.215687%,70.980394%,96.470588%);fill-opacity:0.196078;stroke-width:3;stroke-linecap:round;stroke-linejoin:miter;stroke:rgb(12.941177%,12.941177%,12.941177%);stroke-opacity:1;stroke-miterlimit:4;" d="M 359.840637 138.247517 L 402.180344 138.247517 C 408.023536 138.247517 412.741835 142.997063 412.741835 148.840255 L 412.741835 191.179962 C 412.741835 197.023154 408.023536 201.741453 402.180344 201.741453 L 359.840637 201.741453 C 353.997445 201.741453 349.247898 197.023154 349.247898 191.179962 L 349.247898 148.840255 C 349.247898 142.997063 353.997445 138.247517 359.840637 138.247517 Z M 359.840637 138.247517 " transform="matrix(0.125012,0,0,0.125012,0,26.877566)"/>
<path style="fill-rule:nonzero;fill:rgb(93.725491%,60.392159%,60.392159%);fill-opacity:0.196078;stroke-width:3;stroke-linecap:round;stroke-linejoin:miter;stroke:rgb(12.941177%,12.941177%,12.941177%);stroke-opacity:1;stroke-miterlimit:4;" d="M 116.426382 -136.913707 C 128.112766 -136.913707 137.580612 -127.445861 137.580612 -115.759477 C 137.580612 -104.073093 128.112766 -94.574 116.426382 -94.574 C 104.739998 -94.574 95.240905 -104.073093 95.240905 -115.759477 C 95.240905 -127.445861 104.739998 -136.913707 116.426382 -136.913707 Z M 116.426382 -136.913707 " transform="matrix(0.125012,0,0,0.125012,0,26.877566)"/>
<path style="fill-rule:nonzero;fill:rgb(93.725491%,60.392159%,60.392159%);fill-opacity:0.196078;stroke-width:3;stroke-linecap:round;stroke-linejoin:miter;stroke:rgb(12.941177%,12.941177%,12.941177%);stroke-opacity:1;stroke-miterlimit:4;" d="M 391.587605 -136.913707 C 403.273989 -136.913707 412.741835 -127.445861 412.741835 -115.759477 C 412.741835 -104.073093 403.273989 -94.574 391.587605 -94.574 C 379.901221 -94.574 370.402128 -104.073093 370.402128 -115.759477 C 370.402128 -127.445861 379.901221 -136.913707 391.587605 -136.913707 Z M 391.587605 -136.913707 " transform="matrix(0.125012,0,0,0.125012,0,26.877566)"/>
</g>
</svg>
