
<svg xmlns="http://www.w3.org/2000/svg" xmlns:xlink="http://www.w3.org/1999/xlink" width="24px" height="24px" viewBox="0 0 24 24" version="1.1">
<g id="surface1">
<defs>
  <style id="current-color-scheme" type="text/css">
   .ColorScheme-Text { color:#424242; } .ColorScheme-Highlight { color:#eeeeee; }
  </style>
 </defs>
<path style="fill:currentColor" class="ColorScheme-Text" d="M 21 12 C 21 7.011719 16.988281 3 12 3 C 7.011719 3 3 7.011719 3 12 C 3 16.988281 7.011719 21 12 21 C 16.988281 21 21 16.988281 21 12 Z M 19.5 12 C 19.5 16.152344 16.152344 19.5 12 19.5 C 7.847656 19.5 4.5 16.152344 4.5 12 C 4.5 7.847656 7.847656 4.5 12 4.5 C 16.152344 4.5 19.5 7.847656 19.5 12 Z M 16.5 12 C 16.5 11.074219 16.21875 10.21875 15.746094 9.503906 L 14.496094 10.335938 C 14.816406 10.808594 15 11.386719 15 12 C 15 13.664062 13.664062 15 12 15 L 12 13.5 L 9 15.75 L 12 18 L 12 16.5 C 14.488281 16.5 16.5 14.488281 16.5 12 Z M 15 8.25 L 12 6 L 12 7.5 C 9.511719 7.5 7.5 9.511719 7.5 12 C 7.5 12.925781 7.78125 13.78125 8.253906 14.496094 L 9.503906 13.664062 C 9.183594 13.191406 9 12.613281 9 12 C 9 10.335938 10.335938 9 12 9 L 12 10.5 Z M 15 8.25 "/>
</g>
</svg>
