<svg xmlns="http://www.w3.org/2000/svg" width="32" height="32" viewBox="0 0 24 24"><path d="M11.906 23.012A10.893 10.893 0 0 1 .992 12.094 10.89 10.89 0 0 1 11.906 1.18a10.893 10.893 0 0 1 10.918 10.914 10.896 10.896 0 0 1-10.918 10.918zm0-1.985a8.914 8.914 0 0 0 8.934-8.933 8.913 8.913 0 0 0-8.934-8.93 8.912 8.912 0 0 0-8.93 8.93 8.913 8.913 0 0 0 8.93 8.933zm0 0" fill="#424242"/><path d="M8.898 6.133a.99.99 0 0 0-.835.496.99.99 0 0 0-.126.633v9.668a.99.99 0 0 0 .125.633.99.99 0 0 0 1.356.363l8.594-4.961c.32-.188.5-.524.496-.871a.994.994 0 0 0-.496-.867L9.418 6.266a1 1 0 0 0-.52-.133zm0 0" fill="#42a5f5"/></svg>