<svg xmlns="http://www.w3.org/2000/svg" width="24" height="24"><path d="M3.473 4.156a.989.989 0 0 0-.993.992v11.41c0 .551.442.993.993.993h1.984v1.488c0 .55.441.992.992.992h10.914c.551 0 .992-.441.992-.992v-1.488h1.985c.55 0 .996-.442.996-.992V5.149a.992.992 0 0 0-.996-.993zM4.96 6.141h.496v1.488c0 .55.441.992.992.992h.496c.551 0 .992-.441.992-.992V6.14h.993v1.488c0 .55.445.992.992.992h.496c.55 0 .992-.441.992-.992V6.14h.992v1.488c0 .55.446.992.993.992h.496c.55 0 .992-.441.992-.992V6.14h.992v1.488c0 .55.445.992.992.992h.496c.551 0 .992-.441.992-.992V6.14h.497c.277 0 .496.222.496.496v8.433a.492.492 0 0 1-.496.496h-2.48v1.985a.492.492 0 0 1-.497.496H7.937a.494.494 0 0 1-.496-.496v-1.985h-2.48a.494.494 0 0 1-.496-.496V6.637c0-.274.223-.496.496-.496zm0 0" fill="#424242"/></svg>