<svg height="32pt" viewBox="0 0 32 32" width="32pt" xmlns="http://www.w3.org/2000/svg" xmlns:xlink="http://www.w3.org/1999/xlink"><linearGradient id="a" gradientTransform="matrix(.04862 0 0 .0625 -1.36 12.777)" gradientUnits="userSpaceOnUse" x1="254" x2="254" y1="233.5" y2="254.667"><stop offset="0" stop-opacity=".275"/><stop offset="1" stop-opacity="0"/></linearGradient><linearGradient id="b"><stop offset="0" stop-opacity=".314"/><stop offset=".222" stop-opacity=".275"/><stop offset="1" stop-opacity="0"/></linearGradient><radialGradient id="c" cx="450.909" cy="189.579" gradientTransform="matrix(0 -.07813 -.10938 0 36.614 62.934)" gradientUnits="userSpaceOnUse" r="21.167" xlink:href="#b"/><radialGradient id="d" cx="450.909" cy="189.579" gradientTransform="matrix(0 .07813 .10938 0 -4.86 -8.189)" gradientUnits="userSpaceOnUse" r="21.167" xlink:href="#b"/><radialGradient id="e" cx="450.909" cy="189.579" gradientTransform="matrix(0 -.07813 .10938 0 -4.86 62.934)" gradientUnits="userSpaceOnUse" r="21.167" xlink:href="#b"/><radialGradient id="f" cx="450.909" cy="189.579" gradientTransform="matrix(0 .07813 -.10938 0 36.614 -8.189)" gradientUnits="userSpaceOnUse" r="21.167" xlink:href="#b"/><linearGradient id="g" gradientTransform="matrix(.04419417 .04419417 -.04419417 .04419417 6.07693 2.803368)" gradientUnits="userSpaceOnUse" x1="254" x2="254" y1="222.917" y2="-158.083"><stop offset="0" stop-color="#bdbdbd"/><stop offset="1" stop-color="#e0e0e0"/></linearGradient><linearGradient id="h" gradientUnits="userSpaceOnUse" x1="15.875" x2="15.875" y1="27.3713125" y2="3.5588125"><stop offset="0" stop-color="#26a69a"/><stop offset="1" stop-color="#4db6ac"/></linearGradient><path d="m15.621 27.371h.512v1.324h-.512zm0 0" fill="url(#a)"/><path d="m16.133 27.371h2.058v-1.32h-2.058zm0 0" fill="url(#c)"/><path d="m15.621 27.371h-2.059v1.324h2.06zm0 0" fill="url(#d)"/><path d="m15.621 27.371h-2.059v-1.32h2.06zm0 0" fill="url(#e)"/><path d="m16.133 27.371h2.058v1.324h-2.058zm0 0" fill="url(#f)"/><path d="m14.555 3.559a.66.66 0 0 0 -.657.582l-.273 2.336a9.19 9.19 0 0 0 -2.512 1.039l-1.843-1.457a.662.662 0 0 0 -.875.05l-1.872 1.871a.663.663 0 0 0 -.054.88l1.457 1.84a9.283 9.283 0 0 0 -1.035 2.51l-2.34.278a.66.66 0 0 0 -.582.657v2.644c0 .336.25.617.582.656l2.34.274a9.18 9.18 0 0 0 1.035 2.511l-1.457 1.844a.658.658 0 0 0 .054.875l1.872 1.871c.234.239.609.258.875.051l1.468-1.16-.89-.895a1.991 1.991 0 0 1 -.43-2.156c.215-.512.66-.945 1.234-1.129a6.602 6.602 0 0 1 -1.39-4.066 6.598 6.598 0 0 1 6.613-6.613 6.6 6.6 0 0 1 6.617 6.613c0 1.535-.52 2.945-1.39 4.066.574.184 1.02.617 1.234 1.13a1.991 1.991 0 0 1 -.43 2.155l-.894.895 1.472 1.16c.262.207.641.188.875-.05l1.871-1.872a.658.658 0 0 0 .051-.875l-1.453-1.844a9.18 9.18 0 0 0 1.035-2.511l2.336-.274a.66.66 0 0 0 .582-.656v-2.644a.66.66 0 0 0 -.582-.657l-2.336-.277a9.283 9.283 0 0 0 -1.035-2.512l1.453-1.84a.663.663 0 0 0 -.05-.879l-1.872-1.87a.662.662 0 0 0 -.875-.051l-1.843 1.457a9.19 9.19 0 0 0 -2.512-1.04l-.274-2.335a.66.66 0 0 0 -.656-.582zm0 0" fill="url(#g)"/><path d="m14.555 3.559a.66.66 0 0 0 -.621.437.615.615 0 0 1 .226-.043h2.645a.66.66 0 0 1 .656.586l.273 2.332a9.19 9.19 0 0 1 2.512 1.04l1.844-1.458a.658.658 0 0 1 .875.055l1.87 1.87a.658.658 0 0 1 .052.876l-1.453 1.844a9.18 9.18 0 0 1 1.035 2.511l2.336.274a.66.66 0 0 1 .582.656v2.645a.628.628 0 0 1 -.04.226.66.66 0 0 0 .434-.62v-2.645a.66.66 0 0 0 -.582-.657l-2.336-.277a9.283 9.283 0 0 0 -1.035-2.512l1.453-1.84a.663.663 0 0 0 -.05-.879l-1.872-1.87a.662.662 0 0 0 -.875-.051l-1.843 1.457a9.19 9.19 0 0 0 -2.512-1.04l-.274-2.335a.66.66 0 0 0 -.656-.582zm-5.703 2.359a.662.662 0 0 0 -.457.191l-.399.399a.658.658 0 0 1 .875-.055l1.844 1.457a9.292 9.292 0 0 1 2.512-1.039l.035-.297a9.198 9.198 0 0 0 -2.149.942l-1.843-1.457a.651.651 0 0 0 -.418-.141zm2.148 5.066a6.597 6.597 0 0 0 -2.133 4.875c0 1.47.473 2.825 1.278 3.918a2.04 2.04 0 0 1 .507-.246 6.602 6.602 0 0 1 -1.39-4.066c0-1.73.66-3.305 1.738-4.48zm-4.41 2.262-2.04.242a.656.656 0 0 0 -.542.43.914.914 0 0 1 .148-.035l2.336-.274c.031-.12.063-.242.098-.363zm18.176 4.832-.297.035a9.07 9.07 0 0 1 -1.04 2.512l1.458 1.844a.658.658 0 0 1 -.051.875l.394-.395a.658.658 0 0 0 .051-.875l-1.453-1.844a9.216 9.216 0 0 0 .938-2.152zm-13.52 2.684a.734.734 0 0 0 -.191.023c.343.309.718.578 1.117.813v1.675l.398.395v-2.469a6.284 6.284 0 0 1 -.664-.437zm8.602 0c-.211.16-.434.304-.664.437v.149a6.31 6.31 0 0 0 .746-.586zm0 0" fill="#fff" fill-opacity=".588"/><path d="m14.285 3.617a.656.656 0 0 0 -.387.524l-.246 2.086a4.4 4.4 0 0 1 .305-.082l.273-2.336a.635.635 0 0 1 .055-.192zm-7.43 4.031-.332.332a.663.663 0 0 0 -.054.88l1.457 1.84a9.303 9.303 0 0 0 -.957 2.21l.254-.031a9.18 9.18 0 0 1 1.035-2.512l-1.453-1.844a.658.658 0 0 1 .05-.875zm9.356.868c-1.918 0-3.64.808-4.848 2.105a6.582 6.582 0 0 1 4.512-1.77 6.6 6.6 0 0 1 6.617 6.614c0 1.535-.52 2.945-1.39 4.066.015.004.027.012.043.016a6.586 6.586 0 0 0 1.68-4.414 6.6 6.6 0 0 0 -6.614-6.617zm-11.852 5.023a.665.665 0 0 0 -.39.606v2.644c0 .336.25.617.582.656l2.34.274a9.18 9.18 0 0 0 1.035 2.511l-1.457 1.844a.658.658 0 0 0 .054.875l1.872 1.871c.234.239.609.258.875.051l1.468-1.16-.039-.04-1.097.868a.662.662 0 0 1 -.875-.05l-1.872-1.872a.658.658 0 0 1 -.05-.875l1.453-1.844a9.283 9.283 0 0 1 -1.035-2.511l-2.336-.278a.658.658 0 0 1 -.582-.652v-2.648c0-.094.02-.188.054-.27zm23.368 3.52a.63.63 0 0 1 -.192.05l-2.336.278-.082.304 2.082-.246a.662.662 0 0 0 .528-.386zm-6.38 6.316-.335.336 1.472 1.16c.262.207.641.188.875-.05l.336-.333a.667.667 0 0 1 -.879.051zm0 0" fill-opacity=".235"/><path d="m14.555 10.18c-.727 0-1.317.59-1.317 1.316v8.606h-1.992c-1.172 0-1.762 1.418-.93 2.25l4.63 4.628a1.316 1.316 0 0 0 1.863 0l4.628-4.628c.829-.832.243-2.25-.93-2.25h-1.991v-8.606c0-.726-.59-1.316-1.317-1.316zm0 0" fill="url(#h)"/><path d="m14.555 10.18c-.727 0-1.317.59-1.317 1.316v.488c0-.726.59-1.316 1.317-1.316h2.644c.727 0 1.317.59 1.317 1.316v-.488c0-.726-.59-1.316-1.317-1.316zm-3.309 9.922c-.89 0-1.441.816-1.297 1.57a1.313 1.313 0 0 1 1.297-1.082h1.992v-.488zm7.27 0v.488h1.992c.695.004 1.187.5 1.297 1.082.144-.754-.41-1.57-1.297-1.57zm0 0" fill="#fff" fill-opacity=".392"/><path d="m9.95 21.176c-.075.398.027.836.366 1.176l4.63 4.628a1.316 1.316 0 0 0 1.863 0l4.628-4.628c.34-.34.442-.778.364-1.176a1.301 1.301 0 0 1 -.363.672l-4.63 4.629a1.316 1.316 0 0 1 -1.863 0l-4.629-4.63c-.199-.199-.316-.433-.367-.671zm0 0" fill-opacity=".235"/><g fill="#212121"><path d="m14.555 3.465a.756.756 0 0 0 -.75.668l-.266 2.27a9.233 9.233 0 0 0 -2.418 1l-1.793-1.42a.757.757 0 0 0 -1 .059l-1.871 1.872a.753.753 0 0 0 -.059 1l1.415 1.797a9.253 9.253 0 0 0 -.997 2.414l-2.273.27a.756.756 0 0 0 -.668.75v2.644c0 .383.29.703.668.75l2.273.266c.22.86.559 1.672.997 2.418l-1.415 1.793c-.238.3-.21.73.059 1l1.871 1.87c.27.27.7.298 1 .06l1.469-1.16a.089.089 0 0 0 .035-.071c.004-.027-.008-.05-.027-.07l-.887-.887.004.004c-.004-.004-.004-.008-.008-.012a1.897 1.897 0 0 1 -.41-2.05 1.909 1.909 0 0 1 1.176-1.079c.03-.008.05-.031.062-.062a.09.09 0 0 0 -.015-.082 6.51 6.51 0 0 1 -1.372-4.012 6.503 6.503 0 0 1 6.52-6.52 6.504 6.504 0 0 1 6.523 6.52 6.51 6.51 0 0 1 -1.37 4.012.09.09 0 0 0 -.016.082.085.085 0 0 0 .062.062 1.888 1.888 0 0 1 .766 3.129c-.004.004-.008.008-.008.012l.004-.008-.89.89a.112.112 0 0 0 -.028.07c.004.028.016.052.035.071l1.473 1.16c.3.239.73.211 1-.058l1.87-1.871c.27-.27.298-.7.06-1l-1.415-1.793a9.335 9.335 0 0 0 .997-2.418l2.273-.266a.755.755 0 0 0 .664-.75v-2.644a.753.753 0 0 0 -.664-.75l-2.273-.27a9.335 9.335 0 0 0 -.997-2.418l1.414-1.793a.753.753 0 0 0 -.058-1l-1.871-1.871a.757.757 0 0 0 -1-.059l-1.793 1.418a9.288 9.288 0 0 0 -2.418-1l-.266-2.27a.759.759 0 0 0 -.75-.667zm0 .187h2.644c.29 0 .528.215.563.5l.273 2.336c.008.04.035.07.07.082.891.22 1.727.567 2.489 1.024.035.02.074.02.105-.004l1.844-1.457a.562.562 0 0 1 .75.043l1.871 1.87a.572.572 0 0 1 .047.755l-1.457 1.84a.101.101 0 0 0 -.008.109 9.04 9.04 0 0 1 1.027 2.484c.008.04.04.067.079.07l2.335.278c.29.031.5.273.5.563v2.644c0 .29-.21.527-.5.563l-2.335.273a.092.092 0 0 0 -.079.07 9.24 9.24 0 0 1 -1.027 2.489.095.095 0 0 0 .008.105l1.457 1.844a.567.567 0 0 1 -.047.75l-1.871 1.87a.562.562 0 0 1 -.75.044l-1.39-1.094.82-.82a2.083 2.083 0 0 0 .449-2.258 2.095 2.095 0 0 0 -1.172-1.137 6.673 6.673 0 0 0 1.336-4.023 6.697 6.697 0 0 0 -6.711-6.707 6.693 6.693 0 0 0 -6.707 6.707c0 1.512.496 2.906 1.336 4.023-.543.211-.965.637-1.172 1.137a2.074 2.074 0 0 0 .45 2.258l.816.82-1.387 1.094a.562.562 0 0 1 -.75-.043l-1.871-1.871a.563.563 0 0 1 -.047-.75l1.457-1.844a.095.095 0 0 0 .008-.105 9.115 9.115 0 0 1 -1.028-2.489.097.097 0 0 0 -.082-.07l-2.335-.273a.566.566 0 0 1 -.5-.563v-2.644c0-.29.214-.532.5-.563l2.335-.277a.096.096 0 0 0 .082-.07 9.04 9.04 0 0 1 1.028-2.485.094.094 0 0 0 -.008-.105l-1.457-1.845a.568.568 0 0 1 .047-.754l1.87-1.871a.562.562 0 0 1 .75-.043l1.845 1.457c.027.023.07.023.105.004a9.032 9.032 0 0 1 2.485-1.024.096.096 0 0 0 .07-.082l.277-2.336a.563.563 0 0 1 .563-.5zm0 0"/><path d="m14.555 10.086c-.778 0-1.41.633-1.41 1.41v8.512h-1.899a1.4 1.4 0 0 0 -1.305.87 1.4 1.4 0 0 0 .309 1.54l4.629 4.629c.55.55 1.445.55 1.996 0l4.629-4.629a1.4 1.4 0 0 0 .305-1.54 1.394 1.394 0 0 0 -1.301-.87h-1.899v-8.512c0-.777-.632-1.41-1.41-1.41zm0 .187h2.644c.676 0 1.223.547 1.223 1.223v8.606c0 .05.043.093.094.093h1.992a1.2 1.2 0 0 1 1.129.754c.175.43.125.946-.266 1.336l-4.629 4.63a1.226 1.226 0 0 1 -1.73 0l-4.63-4.63a1.196 1.196 0 0 1 -.265-1.336 1.196 1.196 0 0 1 1.13-.754h1.991c.051 0 .094-.043.094-.093v-8.606c0-.676.547-1.223 1.223-1.223zm0 0"/></g></svg>