<svg height="32" viewBox="0 0 32 32" width="32" xmlns="http://www.w3.org/2000/svg" xmlns:xlink="http://www.w3.org/1999/xlink"><linearGradient id="a"><stop offset="0" stop-opacity=".313726"/><stop offset=".222222" stop-opacity=".27451"/><stop offset="1" stop-opacity="0"/></linearGradient><radialGradient id="b" cx="450.908936" cy="189.579361" gradientTransform="matrix(.00000017 -.0781325 -.140638 -.0000001 44.523152 63.595329)" gradientUnits="userSpaceOnUse" r="21.166656" xlink:href="#a"/><radialGradient id="c" cx="450.908936" cy="189.579361" gradientTransform="matrix(-.00000017 .0781325 .140638 .0000001 -12.770119 -7.527482)" gradientUnits="userSpaceOnUse" r="21.166656" xlink:href="#a"/><radialGradient id="d" cx="450.908936" cy="189.579361" gradientTransform="matrix(-.00000017 -.0781325 .140638 -.0000001 -12.770119 63.595329)" gradientUnits="userSpaceOnUse" r="21.166656" xlink:href="#a"/><radialGradient id="e" cx="450.908936" cy="189.579361" gradientTransform="matrix(.00000017 .0781325 -.140638 .0000001 44.52315 -7.527483)" gradientUnits="userSpaceOnUse" r="21.166656" xlink:href="#a"/><linearGradient id="f" gradientTransform="matrix(.0133601 0 0 .062506 12.465386 13.438784)" gradientUnits="userSpaceOnUse" x1="255.323059" x2="255.323044" y1="233.5" y2="254.666656"><stop offset="0" stop-opacity=".27451"/><stop offset="1" stop-opacity="0"/></linearGradient><linearGradient id="g" gradientUnits="userSpaceOnUse" x1="254" x2="254" y1="-168.666672" y2="233.5"><stop offset="0" stop-color="#ffb74d"/><stop offset="1" stop-color="#ffa726"/></linearGradient><linearGradient id="h"><stop offset="0" stop-color="#424242"/><stop offset="1" stop-color="#616161"/></linearGradient><linearGradient id="i" gradientUnits="userSpaceOnUse" x1="7.30684259995" x2="7.30684259995" xlink:href="#h" y1="16.78806440001" y2="14.14197679999"/><linearGradient id="j" gradientUnits="userSpaceOnUse" x1="13.98123259995" x2="13.98123259995" xlink:href="#h" y1="16.78806440001" y2="14.14197679999"/><linearGradient id="k" gradientUnits="userSpaceOnUse" x1="10.67362559995" x2="10.67362559995" xlink:href="#h" y1="16.78806440001" y2="14.14197679999"/><linearGradient id="l" gradientUnits="userSpaceOnUse" x1="17.24261859995" x2="17.24261859995" xlink:href="#h" y1="16.78806440001" y2="14.14197679999"/><linearGradient id="m" gradientUnits="userSpaceOnUse" x1="23.91700859995" x2="23.91700859995" xlink:href="#h" y1="16.78806440001" y2="14.14197679999"/><linearGradient id="n" gradientUnits="userSpaceOnUse" x1="20.60940059995" x2="20.60940059995" xlink:href="#h" y1="16.78806440001" y2="14.14197679999"/><linearGradient id="o" gradientUnits="userSpaceOnUse" x1="7.30684259995" x2="7.30684259995" xlink:href="#h" y1="20.17837740001" y2="17.53228979999"/><linearGradient id="p" gradientUnits="userSpaceOnUse" x1="10.67362559995" x2="10.67362559995" xlink:href="#h" y1="20.17837740001" y2="17.53228979999"/><linearGradient id="q" gradientUnits="userSpaceOnUse" x1="23.91700859995" x2="23.91700859995" xlink:href="#h" y1="20.17837740001" y2="17.53228979999"/><linearGradient id="r" gradientUnits="userSpaceOnUse" x1="20.60940059995" x2="20.60940059995" xlink:href="#h" y1="20.17837740001" y2="17.53228979999"/><linearGradient id="s" gradientUnits="userSpaceOnUse" x1="13.98123259995" x2="13.98123259995" xlink:href="#h" y1="13.31509140001" y2="10.66900379999"/><linearGradient id="t" gradientUnits="userSpaceOnUse" x1="10.67362559995" x2="10.67362559995" xlink:href="#h" y1="13.31509140001" y2="10.66900379999"/><linearGradient id="u" gradientUnits="userSpaceOnUse" x1="17.24261859995" x2="17.24261859995" xlink:href="#h" y1="13.31509140001" y2="10.66900379999"/><linearGradient id="v" gradientUnits="userSpaceOnUse" x1="20.60940059995" x2="20.60940059995" xlink:href="#h" y1="13.31509140001" y2="10.66900379999"/><path d="m18.191406 28.035156h2.648438v-1.324218h-2.648438zm0 0" fill="url(#b)"/><path d="m13.5625 28.035156h-2.648438v1.320313h2.648438zm0 0" fill="url(#c)"/><path d="m13.5625 28.035156h-2.648438v-1.324218h2.648438zm0 0" fill="url(#d)"/><path d="m18.191406 28.035156h2.648438v1.320313h-2.648438zm0 0" fill="url(#e)"/><path d="m13.5625 27.703125h4.628906v1.652344h-4.628906zm0 0" fill="url(#f)"/><path d="m253.975747-168.691922c111.051895 0 201.105795 90.0539 201.105795 201.105795s-90.0539 201.105796-201.105795 201.105796c-111.051896 0-201.043302-90.053901-201.043302-201.105796s89.991406-201.105795 201.043302-201.105795zm0 0" fill="url(#g)" stroke="#333" stroke-linecap="round" stroke-width="3" transform="matrix(.062506 0 0 .062506 0 13.438783)"/><path d="m15.875 28.035156c-6.960938 0-12.566406-5.605468-12.566406-12.570312 0-.039063 0-.082032 0-.121094.066406 6.902344 5.644531 12.445312 12.566406 12.445312s12.503906-5.542968 12.570312-12.445312v.121094c0 6.964844-5.605468 12.570312-12.570312 12.570312zm0 0" fill-opacity=".196078"/><path d="m15.875 2.894531c-6.960938 0-12.566406 5.605469-12.566406 12.570313v.125c.066406-6.90625 5.644531-12.449219 12.566406-12.449219s12.503906 5.542969 12.570312 12.449219c0-.042969 0-.082032 0-.125 0-6.964844-5.605468-12.570313-12.570312-12.570313zm0 0" fill="#fff" fill-opacity=".392157"/><path d="m15.875 2.800781c-7.011719 0-12.660156 5.652344-12.660156 12.664063 0 7.011718 5.648437 12.664062 12.660156 12.664062 7.015625 0 12.664062-5.652344 12.664062-12.664062 0-7.011719-5.648437-12.664063-12.664062-12.664063zm0 .1875c6.914062 0 12.476562 5.5625 12.476562 12.476563 0 6.914062-5.5625 12.476562-12.476562 12.476562-6.910156 0-12.472656-5.5625-12.472656-12.476562 0-6.914063 5.5625-12.476563 12.472656-12.476563zm0 0" fill="#212121"/><path d="m7.570312 14.140625c.730469 0 1.324219.59375 1.324219 1.324219 0 .730468-.59375 1.324218-1.324219 1.324218-.730468 0-1.320312-.59375-1.320312-1.324218 0-.730469.589844-1.324219 1.320312-1.324219zm0 0" fill="url(#i)"/><path d="m7.570312 14.140625c-.730468 0-1.320312.589844-1.320312 1.324219 0 .054687 0 .113281.007812.164062.082032-.652344.636719-1.15625 1.3125-1.15625.679688 0 1.234376.503906 1.3125 1.15625.007813-.050781.011719-.109375.011719-.164062 0-.734375-.589843-1.324219-1.324219-1.324219zm0 0" fill="#fff" fill-opacity=".392157"/><path d="m6.273438 15.714844c-.015626.078125-.023438.160156-.023438.246094 0 .734374.589844 1.324218 1.320312 1.324218.734376 0 1.324219-.589844 1.324219-1.324218 0-.085938-.007812-.167969-.023437-.246094-.113282.613281-.652344 1.074218-1.300782 1.074218-.648437 0-1.183593-.460937-1.296874-1.074218zm0 0" fill-opacity=".235294"/><path d="m126.981809 32.395064c11.686384 0 21.185477 9.499093 21.185477 21.185477s-9.499093 21.185477-21.185477 21.185477-21.122983-9.499093-21.122983-21.185477 9.436599-21.185477 21.122983-21.185477zm0 0" fill="none" stroke="#212121" stroke-linecap="round" stroke-linejoin="round" stroke-width="3" transform="matrix(.062506 0 0 .062506 -.366808 12.11574)"/><path d="m14.246094 14.140625c.730468 0 1.324218.59375 1.324218 1.324219 0 .730468-.59375 1.324218-1.324218 1.324218-.730469 0-1.324219-.59375-1.324219-1.324218 0-.730469.59375-1.324219 1.324219-1.324219zm0 0" fill="url(#j)"/><path d="m14.246094 14.140625c-.734375 0-1.324219.589844-1.324219 1.324219 0 .054687.003906.113281.011719.164062.082031-.652344.636718-1.15625 1.3125-1.15625.675781 0 1.230468.503906 1.3125 1.15625.007812-.050781.011718-.109375.011718-.164062 0-.734375-.589843-1.324219-1.324218-1.324219zm0 0" fill="#fff" fill-opacity=".392157"/><path d="m12.945312 15.714844c-.015624.078125-.023437.160156-.023437.246094 0 .734374.589844 1.324218 1.324219 1.324218s1.324218-.589844 1.324218-1.324218c0-.085938-.007812-.167969-.023437-.246094-.117187.613281-.652344 1.074218-1.300781 1.074218-.648438 0-1.183594-.460937-1.300782-1.074218zm0 0" fill-opacity=".235294"/><path d="m127.004068 32.395064c11.686384 0 21.185477 9.499093 21.185477 21.185477s-9.499093 21.185477-21.185477 21.185477-21.185477-9.499093-21.185477-21.185477 9.499093-21.185477 21.185477-21.185477zm0 0" fill="none" stroke="#212121" stroke-linecap="round" stroke-linejoin="round" stroke-width="3" transform="matrix(.062506 0 0 .062506 6.307581 12.11574)"/><path d="m10.9375 14.140625c.730469 0 1.324219.59375 1.324219 1.324219 0 .730468-.59375 1.324218-1.324219 1.324218s-1.324219-.59375-1.324219-1.324218c0-.730469.59375-1.324219 1.324219-1.324219zm0 0" fill="url(#k)"/><path d="m10.9375 14.140625c-.730469 0-1.324219.589844-1.324219 1.324219 0 .054687.003907.113281.011719.164062.082031-.652344.636719-1.15625 1.3125-1.15625s1.234375.503906 1.3125 1.15625c.007812-.050781.011719-.109375.011719-.164062 0-.734375-.589844-1.324219-1.324219-1.324219zm0 0" fill="#fff" fill-opacity=".392157"/><path d="m9.636719 15.714844c-.011719.078125-.023438.160156-.023438.246094 0 .734374.59375 1.324218 1.324219 1.324218.734375 0 1.324219-.589844 1.324219-1.324218 0-.085938-.007813-.167969-.023438-.246094-.117187.613281-.652343 1.074218-1.300781 1.074218s-1.183594-.460937-1.300781-1.074218zm0 0" fill-opacity=".235294"/><path d="m126.988283 32.395064c11.686384 0 21.185477 9.499093 21.185477 21.185477s-9.499093 21.185477-21.185477 21.185477-21.185477-9.499093-21.185477-21.185477 9.499093-21.185477 21.185477-21.185477zm0 0" fill="none" stroke="#212121" stroke-linecap="round" stroke-linejoin="round" stroke-width="3" transform="matrix(.062506 0 0 .062506 2.999974 12.11574)"/><path d="m17.507812 14.140625c.730469 0 1.324219.59375 1.324219 1.324219 0 .730468-.59375 1.324218-1.324219 1.324218-.730468 0-1.324218-.59375-1.324218-1.324218 0-.730469.59375-1.324219 1.324218-1.324219zm0 0" fill="url(#l)"/><path d="m17.507812 14.140625c-.734374 0-1.324218.589844-1.324218 1.324219 0 .054687.003906.113281.011718.164062.078126-.652344.636719-1.15625 1.3125-1.15625.675782 0 1.230469.503906 1.3125 1.15625.007813-.050781.011719-.109375.011719-.164062 0-.734375-.59375-1.324219-1.324219-1.324219zm0 0" fill="#fff" fill-opacity=".392157"/><path d="m16.207031 15.714844c-.015625.078125-.023437.160156-.023437.246094 0 .734374.589844 1.324218 1.324218 1.324218.730469 0 1.324219-.589844 1.324219-1.324218 0-.085938-.011719-.167969-.023437-.246094-.117188.613281-.652344 1.074218-1.300782 1.074218-.648437 0-1.183593-.460937-1.300781-1.074218zm0 0" fill-opacity=".235294"/><path d="m127.0094 32.395064c11.686384 0 21.185477 9.499093 21.185477 21.185477s-9.499093 21.185477-21.185477 21.185477-21.185477-9.499093-21.185477-21.185477 9.499093-21.185477 21.185477-21.185477zm0 0" fill="none" stroke="#212121" stroke-linecap="round" stroke-linejoin="round" stroke-width="3" transform="matrix(.062506 0 0 .062506 9.568967 12.11574)"/><path d="m24.179688 14.140625c.734374 0 1.324218.59375 1.324218 1.324219 0 .730468-.589844 1.324218-1.324218 1.324218-.730469 0-1.320313-.59375-1.320313-1.324218 0-.730469.589844-1.324219 1.320313-1.324219zm0 0" fill="url(#m)"/><path d="m24.179688 14.140625c-.730469 0-1.320313.589844-1.320313 1.324219 0 .054687.003906.113281.007813.164062.082031-.652344.636718-1.15625 1.3125-1.15625.679687 0 1.234374.503906 1.316406 1.15625.003906-.050781.007812-.109375.007812-.164062 0-.734375-.589844-1.324219-1.324218-1.324219zm0 0" fill="#fff" fill-opacity=".392157"/><path d="m22.882812 15.714844c-.015624.078125-.023437.160156-.023437.246094 0 .734374.589844 1.324218 1.320313 1.324218.734374 0 1.324218-.589844 1.324218-1.324218 0-.085938-.007812-.167969-.023437-.246094-.113281.613281-.652344 1.074218-1.300781 1.074218-.644532 0-1.183594-.460937-1.296876-1.074218zm0 0" fill-opacity=".235294"/><path d="m126.969162 32.395064c11.748878 0 21.185477 9.499093 21.185477 21.185477s-9.436599 21.185477-21.185477 21.185477c-11.686384 0-21.122983-9.499093-21.122983-21.185477s9.436599-21.185477 21.122983-21.185477zm0 0" fill="none" stroke="#212121" stroke-linecap="round" stroke-linejoin="round" stroke-width="3" transform="matrix(.062506 0 0 .062506 16.243357 12.11574)"/><path d="m20.875 14.140625c.730469 0 1.320312.59375 1.320312 1.324219 0 .730468-.589843 1.324218-1.320312 1.324218s-1.324219-.59375-1.324219-1.324218c0-.730469.59375-1.324219 1.324219-1.324219zm0 0" fill="url(#n)"/><path d="m20.875 14.140625c-.734375 0-1.324219.589844-1.324219 1.324219 0 .054687.003907.113281.011719.164062.078125-.652344.632812-1.15625 1.3125-1.15625.675781 0 1.230469.503906 1.3125 1.15625.007812-.050781.007812-.109375.007812-.164062 0-.734375-.589843-1.324219-1.320312-1.324219zm0 0" fill="#fff" fill-opacity=".392157"/><path d="m19.574219 15.714844c-.015625.078125-.023438.160156-.023438.246094 0 .734374.589844 1.324218 1.324219 1.324218.730469 0 1.320312-.589844 1.320312-1.324218 0-.085938-.007812-.167969-.019531-.246094-.117187.613281-.652343 1.074218-1.300781 1.074218s-1.183594-.460937-1.300781-1.074218zm0 0" fill-opacity=".235294"/><path d="m127.015883 32.395064c11.686384 0 21.122983 9.499093 21.122983 21.185477s-9.436599 21.185477-21.122983 21.185477-21.185477-9.499093-21.185477-21.185477 9.499093-21.185477 21.185477-21.185477zm0 0" fill="none" stroke="#212121" stroke-linecap="round" stroke-linejoin="round" stroke-width="3" transform="matrix(.062506 0 0 .062506 12.935749 12.11574)"/><path d="m7.570312 17.53125c.730469 0 1.324219.59375 1.324219 1.324219s-.59375 1.324219-1.324219 1.324219c-.730468 0-1.320312-.59375-1.320312-1.324219s.589844-1.324219 1.320312-1.324219zm0 0" fill="url(#o)"/><path d="m7.570312 17.53125c-.730468 0-1.320312.589844-1.320312 1.324219 0 .054687 0 .109375.007812.164062.082032-.652343.636719-1.15625 1.3125-1.15625.679688 0 1.234376.503907 1.3125 1.15625.007813-.054687.011719-.109375.011719-.164062 0-.734375-.589843-1.324219-1.324219-1.324219zm0 0" fill="#fff" fill-opacity=".392157"/><path d="m6.273438 19.101562c-.015626.082032-.023438.164063-.023438.25 0 .734376.589844 1.324219 1.320312 1.324219.734376 0 1.324219-.589843 1.324219-1.324219 0-.085937-.007812-.167968-.023437-.25-.113282.617188-.652344 1.078126-1.300782 1.078126-.648437 0-1.183593-.460938-1.296874-1.078126zm0 0" fill-opacity=".235294"/><path d="m126.981809 32.400054c11.686384 0 21.185477 9.499093 21.185477 21.185477s-9.499093 21.185477-21.185477 21.185477-21.122983-9.499093-21.122983-21.185477 9.436599-21.185477 21.122983-21.185477zm0 0" fill="none" stroke="#212121" stroke-linecap="round" stroke-linejoin="round" stroke-width="3" transform="matrix(.062506 0 0 .062506 -.366808 15.506053)"/><path d="m10.9375 17.53125c.730469 0 1.324219.59375 1.324219 1.324219s-.59375 1.324219-1.324219 1.324219-1.324219-.59375-1.324219-1.324219.59375-1.324219 1.324219-1.324219zm0 0" fill="url(#p)"/><path d="m10.9375 17.53125c-.730469 0-1.324219.589844-1.324219 1.324219 0 .054687.003907.109375.011719.164062.082031-.652343.636719-1.15625 1.3125-1.15625s1.234375.503907 1.3125 1.15625c.007812-.054687.011719-.109375.011719-.164062 0-.734375-.589844-1.324219-1.324219-1.324219zm0 0" fill="#fff" fill-opacity=".392157"/><path d="m9.636719 19.101562c-.011719.082032-.023438.164063-.023438.25 0 .734376.59375 1.324219 1.324219 1.324219.734375 0 1.324219-.589843 1.324219-1.324219 0-.085937-.007813-.167968-.023438-.25-.117187.617188-.652343 1.078126-1.300781 1.078126s-1.183594-.460938-1.300781-1.078126zm0 0" fill-opacity=".235294"/><path d="m126.988283 32.400054c11.686384 0 21.185477 9.499093 21.185477 21.185477s-9.499093 21.185477-21.185477 21.185477-21.185477-9.499093-21.185477-21.185477 9.499093-21.185477 21.185477-21.185477zm0 0" fill="none" stroke="#212121" stroke-linecap="round" stroke-linejoin="round" stroke-width="3" transform="matrix(.062506 0 0 .062506 2.999974 15.506053)"/><path d="m24.179688 17.53125c.734374 0 1.324218.59375 1.324218 1.324219s-.589844 1.324219-1.324218 1.324219c-.730469 0-1.320313-.59375-1.320313-1.324219s.589844-1.324219 1.320313-1.324219zm0 0" fill="url(#q)"/><path d="m24.179688 17.53125c-.730469 0-1.320313.589844-1.320313 1.324219 0 .054687.003906.109375.007813.164062.082031-.652343.636718-1.15625 1.3125-1.15625.679687 0 1.234374.503907 1.316406 1.15625.003906-.054687.007812-.109375.007812-.164062 0-.734375-.589844-1.324219-1.324218-1.324219zm0 0" fill="#fff" fill-opacity=".392157"/><path d="m22.882812 19.101562c-.015624.082032-.023437.164063-.023437.25 0 .734376.589844 1.324219 1.320313 1.324219.734374 0 1.324218-.589843 1.324218-1.324219 0-.085937-.007812-.167968-.023437-.25-.113281.617188-.652344 1.078126-1.300781 1.078126-.644532 0-1.183594-.460938-1.296876-1.078126zm0 0" fill-opacity=".235294"/><path d="m126.969162 32.400054c11.748878 0 21.185477 9.499093 21.185477 21.185477s-9.436599 21.185477-21.185477 21.185477c-11.686384 0-21.122983-9.499093-21.122983-21.185477s9.436599-21.185477 21.122983-21.185477zm0 0" fill="none" stroke="#212121" stroke-linecap="round" stroke-linejoin="round" stroke-width="3" transform="matrix(.062506 0 0 .062506 16.243357 15.506053)"/><path d="m20.875 17.53125c.730469 0 1.320312.59375 1.320312 1.324219s-.589843 1.324219-1.320312 1.324219-1.324219-.59375-1.324219-1.324219.59375-1.324219 1.324219-1.324219zm0 0" fill="url(#r)"/><path d="m20.875 17.53125c-.734375 0-1.324219.589844-1.324219 1.324219 0 .054687.003907.109375.011719.164062.078125-.652343.632812-1.15625 1.3125-1.15625.675781 0 1.230469.503907 1.3125 1.15625.007812-.054687.007812-.109375.007812-.164062 0-.734375-.589843-1.324219-1.320312-1.324219zm0 0" fill="#fff" fill-opacity=".392157"/><path d="m19.574219 19.101562c-.015625.082032-.023438.164063-.023438.25 0 .734376.589844 1.324219 1.324219 1.324219.730469 0 1.320312-.589843 1.320312-1.324219 0-.085937-.007812-.167968-.019531-.25-.117187.617188-.652343 1.078126-1.300781 1.078126s-1.183594-.460938-1.300781-1.078126zm0 0" fill-opacity=".235294"/><path d="m127.015883 32.400054c11.686384 0 21.122983 9.499093 21.122983 21.185477s-9.436599 21.185477-21.122983 21.185477-21.185477-9.499093-21.185477-21.185477 9.499093-21.185477 21.185477-21.185477zm0 0" fill="none" stroke="#212121" stroke-linecap="round" stroke-linejoin="round" stroke-width="3" transform="matrix(.062506 0 0 .062506 12.935749 15.506053)"/><path d="m14.246094 10.667969c.730468 0 1.324218.59375 1.324218 1.324219 0 .730468-.59375 1.324218-1.324218 1.324218-.730469 0-1.324219-.59375-1.324219-1.324218 0-.730469.59375-1.324219 1.324219-1.324219zm0 0" fill="url(#s)"/><path d="m14.246094 10.667969c-.734375 0-1.324219.589843-1.324219 1.324219 0 .054687.003906.109374.011719.164062.082031-.652344.636718-1.15625 1.3125-1.15625.675781 0 1.230468.503906 1.3125 1.15625.007812-.054688.011718-.109375.011718-.164062 0-.734376-.589843-1.324219-1.324218-1.324219zm0 0" fill="#fff" fill-opacity=".392157"/><path d="m12.945312 12.238281c-.015624.082031-.023437.164063-.023437.25 0 .734375.589844 1.324219 1.324219 1.324219s1.324218-.589844 1.324218-1.324219c0-.085937-.007812-.167969-.023437-.25-.117187.617188-.652344 1.078125-1.300781 1.078125-.648438 0-1.183594-.460937-1.300782-1.078125zm0 0" fill-opacity=".235294"/><path d="m127.004068 32.400122c11.686384 0 21.185477 9.499093 21.185477 21.185477s-9.499093 21.185476-21.185477 21.185476-21.185477-9.499092-21.185477-21.185476 9.499093-21.185477 21.185477-21.185477zm0 0" fill="none" stroke="#212121" stroke-linecap="round" stroke-linejoin="round" stroke-width="3" transform="matrix(.062506 0 0 .062506 6.307581 8.642768)"/><path d="m10.9375 10.667969c.730469 0 1.324219.59375 1.324219 1.324219 0 .730468-.59375 1.324218-1.324219 1.324218s-1.324219-.59375-1.324219-1.324218c0-.730469.59375-1.324219 1.324219-1.324219zm0 0" fill="url(#t)"/><path d="m10.9375 10.667969c-.730469 0-1.324219.589843-1.324219 1.324219 0 .054687.003907.109374.011719.164062.082031-.652344.636719-1.15625 1.3125-1.15625s1.234375.503906 1.3125 1.15625c.007812-.054688.011719-.109375.011719-.164062 0-.734376-.589844-1.324219-1.324219-1.324219zm0 0" fill="#fff" fill-opacity=".392157"/><path d="m9.636719 12.238281c-.011719.082031-.023438.164063-.023438.25 0 .734375.59375 1.324219 1.324219 1.324219.734375 0 1.324219-.589844 1.324219-1.324219 0-.085937-.007813-.167969-.023438-.25-.117187.617188-.652343 1.078125-1.300781 1.078125s-1.183594-.460937-1.300781-1.078125zm0 0" fill-opacity=".235294"/><path d="m126.988283 32.400122c11.686384 0 21.185477 9.499093 21.185477 21.185477s-9.499093 21.185476-21.185477 21.185476-21.185477-9.499092-21.185477-21.185476 9.499093-21.185477 21.185477-21.185477zm0 0" fill="none" stroke="#212121" stroke-linecap="round" stroke-linejoin="round" stroke-width="3" transform="matrix(.062506 0 0 .062506 2.999974 8.642768)"/><path d="m17.507812 10.667969c.730469 0 1.324219.59375 1.324219 1.324219 0 .730468-.59375 1.324218-1.324219 1.324218-.730468 0-1.324218-.59375-1.324218-1.324218 0-.730469.59375-1.324219 1.324218-1.324219zm0 0" fill="url(#u)"/><path d="m17.507812 10.667969c-.734374 0-1.324218.589843-1.324218 1.324219 0 .054687.003906.109374.011718.164062.078126-.652344.636719-1.15625 1.3125-1.15625.675782 0 1.230469.503906 1.3125 1.15625.007813-.054688.011719-.109375.011719-.164062 0-.734376-.59375-1.324219-1.324219-1.324219zm0 0" fill="#fff" fill-opacity=".392157"/><path d="m16.207031 12.238281c-.015625.082031-.023437.164063-.023437.25 0 .734375.589844 1.324219 1.324218 1.324219.730469 0 1.324219-.589844 1.324219-1.324219 0-.085937-.011719-.167969-.023437-.25-.117188.617188-.652344 1.078125-1.300782 1.078125-.648437 0-1.183593-.460937-1.300781-1.078125zm0 0" fill-opacity=".235294"/><path d="m127.0094 32.400122c11.686384 0 21.185477 9.499093 21.185477 21.185477s-9.499093 21.185476-21.185477 21.185476-21.185477-9.499092-21.185477-21.185476 9.499093-21.185477 21.185477-21.185477zm0 0" fill="none" stroke="#212121" stroke-linecap="round" stroke-linejoin="round" stroke-width="3" transform="matrix(.062506 0 0 .062506 9.568967 8.642768)"/><path d="m20.875 10.667969c.730469 0 1.320312.59375 1.320312 1.324219 0 .730468-.589843 1.324218-1.320312 1.324218s-1.324219-.59375-1.324219-1.324218c0-.730469.59375-1.324219 1.324219-1.324219zm0 0" fill="url(#v)"/><path d="m20.875 10.667969c-.734375 0-1.324219.589843-1.324219 1.324219 0 .054687.003907.109374.011719.164062.078125-.652344.632812-1.15625 1.3125-1.15625.675781 0 1.230469.503906 1.3125 1.15625.007812-.054688.007812-.109375.007812-.164062 0-.734376-.589843-1.324219-1.320312-1.324219zm0 0" fill="#fff" fill-opacity=".392157"/><path d="m19.574219 12.238281c-.015625.082031-.023438.164063-.023438.25 0 .734375.589844 1.324219 1.324219 1.324219.730469 0 1.320312-.589844 1.320312-1.324219 0-.085937-.007812-.167969-.019531-.25-.117187.617188-.652343 1.078125-1.300781 1.078125s-1.183594-.460937-1.300781-1.078125zm0 0" fill-opacity=".235294"/><path d="m127.015883 32.400122c11.686384 0 21.122983 9.499093 21.122983 21.185477s-9.436599 21.185476-21.122983 21.185476-21.185477-9.499092-21.185477-21.185476 9.499093-21.185477 21.185477-21.185477zm0 0" fill="none" stroke="#212121" stroke-linecap="round" stroke-linejoin="round" stroke-width="3" transform="matrix(.062506 0 0 .062506 12.935749 8.642768)"/></svg>