<?xml version="1.0" encoding="UTF-8"?>
<svg xmlns="http://www.w3.org/2000/svg" xmlns:xlink="http://www.w3.org/1999/xlink" width="32px" height="32px" viewBox="0 0 32 32" version="1.1">
<defs>
<radialGradient id="radial0" gradientUnits="userSpaceOnUse" cx="450.908936" cy="189.579361" fx="450.908936" fy="189.579361" r="21.166656" gradientTransform="matrix(0.00000017417,-0.0781325,-0.140638,-0.000000101539,42.538589,63.595329)">
<stop offset="0" style="stop-color:rgb(0%,0%,0%);stop-opacity:0.313726;"/>
<stop offset="0.222222" style="stop-color:rgb(0%,0%,0%);stop-opacity:0.27451;"/>
<stop offset="1" style="stop-color:rgb(0%,0%,0%);stop-opacity:0;"/>
</radialGradient>
<radialGradient id="radial1" gradientUnits="userSpaceOnUse" cx="450.908936" cy="189.579361" fx="450.908936" fy="189.579361" r="21.166656" gradientTransform="matrix(-0.00000017417,0.0781325,0.140638,0.000000101539,-10.785554,-7.527482)">
<stop offset="0" style="stop-color:rgb(0%,0%,0%);stop-opacity:0.313726;"/>
<stop offset="0.222222" style="stop-color:rgb(0%,0%,0%);stop-opacity:0.27451;"/>
<stop offset="1" style="stop-color:rgb(0%,0%,0%);stop-opacity:0;"/>
</radialGradient>
<radialGradient id="radial2" gradientUnits="userSpaceOnUse" cx="450.908936" cy="189.579361" fx="450.908936" fy="189.579361" r="21.166656" gradientTransform="matrix(-0.00000017417,-0.0781325,0.140638,-0.000000101539,-10.785554,63.595329)">
<stop offset="0" style="stop-color:rgb(0%,0%,0%);stop-opacity:0.313726;"/>
<stop offset="0.222222" style="stop-color:rgb(0%,0%,0%);stop-opacity:0.27451;"/>
<stop offset="1" style="stop-color:rgb(0%,0%,0%);stop-opacity:0;"/>
</radialGradient>
<radialGradient id="radial3" gradientUnits="userSpaceOnUse" cx="450.908936" cy="189.579361" fx="450.908936" fy="189.579361" r="21.166656" gradientTransform="matrix(0.00000017417,0.0781325,-0.140638,0.000000101539,42.538587,-7.527483)">
<stop offset="0" style="stop-color:rgb(0%,0%,0%);stop-opacity:0.313726;"/>
<stop offset="0.222222" style="stop-color:rgb(0%,0%,0%);stop-opacity:0.27451;"/>
<stop offset="1" style="stop-color:rgb(0%,0%,0%);stop-opacity:0;"/>
</radialGradient>
<linearGradient id="linear0" gradientUnits="userSpaceOnUse" x1="255.323059" y1="233.5" x2="255.323044" y2="254.666656" gradientTransform="matrix(0.00190858,0,0,0.062506,15.389212,13.438784)">
<stop offset="0" style="stop-color:rgb(0%,0%,0%);stop-opacity:0.27451;"/>
<stop offset="1" style="stop-color:rgb(0%,0%,0%);stop-opacity:0;"/>
</linearGradient>
<linearGradient id="linear1" gradientUnits="userSpaceOnUse" x1="960" y1="1695.118164" x2="960" y2="175.118134" gradientTransform="matrix(0.016538,0,0,0.016538,0,0)">
<stop offset="0" style="stop-color:rgb(49.411765%,34.117648%,76.078433%);stop-opacity:1;"/>
<stop offset="1" style="stop-color:rgb(58.431375%,45.882353%,80.392158%);stop-opacity:1;"/>
</linearGradient>
<linearGradient id="linear2" gradientUnits="userSpaceOnUse" x1="254" y1="170" x2="254" y2="-105.166656" gradientTransform="matrix(0.062506,0,0,0.062506,0,13.438783)">
<stop offset="0" style="stop-color:rgb(87.843138%,87.843138%,87.843138%);stop-opacity:1;"/>
<stop offset="1" style="stop-color:rgb(93.333334%,93.333334%,93.333334%);stop-opacity:1;"/>
</linearGradient>
</defs>
<g id="surface1">
<path style=" stroke:none;fill-rule:nonzero;fill:url(#radial0);" d="M 16.207031 28.035156 L 18.851562 28.035156 L 18.851562 26.710938 L 16.207031 26.710938 Z M 16.207031 28.035156 "/>
<path style=" stroke:none;fill-rule:nonzero;fill:url(#radial1);" d="M 15.546875 28.035156 L 12.898438 28.035156 L 12.898438 29.355469 L 15.546875 29.355469 Z M 15.546875 28.035156 "/>
<path style=" stroke:none;fill-rule:nonzero;fill:url(#radial2);" d="M 15.546875 28.035156 L 12.898438 28.035156 L 12.898438 26.710938 L 15.546875 26.710938 Z M 15.546875 28.035156 "/>
<path style=" stroke:none;fill-rule:nonzero;fill:url(#radial3);" d="M 16.207031 28.035156 L 18.851562 28.035156 L 18.851562 29.355469 L 16.207031 29.355469 Z M 16.207031 28.035156 "/>
<path style=" stroke:none;fill-rule:nonzero;fill:url(#linear0);" d="M 15.546875 27.703125 L 16.207031 27.703125 L 16.207031 29.355469 L 15.546875 29.355469 Z M 15.546875 27.703125 "/>
<path style=" stroke:none;fill-rule:nonzero;fill:url(#linear1);" d="M 10.585938 2.902344 C 10.113281 2.902344 9.675781 3.15625 9.441406 3.566406 L 8.496094 5.21875 L 5.953125 5.21875 C 5.492188 5.21875 5.0625 5.460938 4.824219 5.855469 L 3.832031 7.511719 C 3.585938 7.917969 3.582031 8.429688 3.816406 8.839844 L 5.121094 11.125 L 4.148438 12.828125 C 3.945312 13.1875 3.917969 13.621094 4.082031 14 L 8.050781 23.261719 C 8.160156 23.515625 8.347656 23.726562 8.582031 23.871094 L 15.199219 27.839844 C 15.617188 28.089844 16.136719 28.089844 16.554688 27.839844 L 23.167969 23.871094 C 23.40625 23.726562 23.59375 23.515625 23.703125 23.261719 L 27.671875 14 C 27.832031 13.621094 27.808594 13.1875 27.605469 12.828125 L 26.628906 11.125 L 27.933594 8.839844 C 28.171875 8.429688 28.164062 7.917969 27.921875 7.511719 L 26.929688 5.855469 C 26.691406 5.460938 26.261719 5.21875 25.800781 5.21875 L 23.257812 5.21875 L 22.3125 3.566406 C 22.078125 3.15625 21.640625 2.902344 21.167969 2.902344 Z M 10.585938 2.902344 "/>
<path style=" stroke:none;fill-rule:nonzero;fill:url(#linear2);" d="M 16.941406 23.417969 C 17.769531 22.714844 18.003906 22.464844 19.035156 21.730469 C 19.613281 21.316406 19.703125 21.210938 19.609375 21.066406 C 19.535156 20.949219 17.757812 20.125 16.867188 19.769531 C 15.925781 19.390625 15.828125 19.390625 14.917969 19.761719 C 14.101562 20.089844 12.355469 20.902344 12.199219 21.050781 C 12.042969 21.207031 12.121094 21.34375 12.523438 21.617188 C 13.351562 22.171875 14.09375 22.808594 14.84375 23.441406 C 15.921875 24.359375 15.835938 24.359375 16.941406 23.421875 Z M 12.609375 19.949219 C 13.730469 19.421875 13.898438 19.3125 14.753906 18.558594 C 15.476562 17.921875 15.609375 17.734375 15.507812 17.492188 C 15.472656 17.410156 14.929688 16.914062 14.304688 16.386719 C 12.820312 15.140625 12.882812 15.316406 13.449219 13.96875 C 13.78125 13.164062 13.871094 12.894531 13.867188 12.675781 C 13.867188 12.335938 13.742188 12.085938 13.488281 11.910156 C 13.386719 11.839844 12.492188 11.480469 11.5 11.113281 C 10.507812 10.742188 9.703125 10.417969 9.710938 10.386719 C 9.726562 10.320312 10.820312 10.199219 11.613281 10.179688 L 12.214844 10.167969 L 13.320312 10.550781 C 14.28125 10.886719 14.433594 10.953125 14.507812 11.089844 C 14.550781 11.175781 14.589844 11.292969 14.589844 11.347656 C 14.585938 11.402344 14.410156 12.199219 14.191406 13.117188 C 13.808594 14.726562 13.800781 14.792969 13.898438 14.890625 C 14.054688 15.046875 15.597656 15.335938 16.078125 15.300781 C 16.625 15.257812 17.75 14.996094 17.863281 14.886719 C 17.953125 14.792969 17.9375 14.691406 17.5625 13.117188 C 17.347656 12.199219 17.167969 11.402344 17.167969 11.347656 C 17.164062 11.292969 17.203125 11.175781 17.25 11.089844 C 17.320312 10.953125 17.460938 10.886719 18.320312 10.585938 C 19.707031 10.105469 19.675781 10.109375 20.933594 10.21875 C 21.519531 10.273438 22.023438 10.335938 22.054688 10.363281 C 22.082031 10.390625 22.046875 10.433594 21.96875 10.464844 C 21.890625 10.492188 21.082031 10.796875 20.167969 11.136719 C 19.257812 11.476562 18.414062 11.820312 18.296875 11.894531 C 18.019531 12.070312 17.886719 12.324219 17.886719 12.671875 C 17.886719 12.894531 17.972656 13.160156 18.296875 13.9375 C 18.523438 14.476562 18.710938 14.972656 18.710938 15.03125 C 18.710938 15.285156 18.523438 15.488281 17.480469 16.359375 C 16.882812 16.863281 16.351562 17.34375 16.300781 17.4375 C 16.25 17.527344 16.21875 17.664062 16.234375 17.742188 C 16.261719 17.875 16.976562 18.566406 17.707031 19.160156 C 18.015625 19.410156 19.871094 20.324219 20.167969 20.371094 C 20.417969 20.410156 20.683594 20.285156 21.121094 19.925781 C 21.546875 19.570312 21.804688 19.21875 21.976562 18.738281 C 22.136719 18.289062 22.097656 17.984375 21.777344 17.257812 C 21.53125 16.699219 21.464844 16.394531 21.546875 16.1875 C 21.566406 16.140625 22.230469 15.511719 23.023438 14.796875 C 24.746094 13.238281 25.023438 12.957031 25.117188 12.679688 C 25.222656 12.367188 25.148438 11.960938 24.914062 11.550781 C 24.347656 10.570312 22.109375 7.390625 21.910156 7.390625 C 20.886719 7.558594 20.0625 8.019531 18.984375 8.1875 C 18.898438 8.1875 18.539062 8.101562 18.183594 7.992188 C 16.664062 7.535156 16.171875 7.410156 15.878906 7.410156 C 15.582031 7.410156 15.089844 7.535156 13.570312 7.992188 C 13.214844 8.101562 12.851562 8.1875 12.761719 8.1875 C 11.699219 8.027344 10.839844 7.5625 9.742188 7.425781 C 9.570312 7.539062 8.117188 9.691406 7.484375 10.601562 C 6.742188 11.667969 6.667969 11.808594 6.609375 12.214844 C 6.523438 12.785156 6.605469 12.878906 8.820312 14.878906 C 9.5625 15.550781 10.1875 16.140625 10.207031 16.1875 C 10.289062 16.398438 10.222656 16.714844 9.980469 17.273438 C 9.652344 18.039062 9.621094 18.25 9.78125 18.710938 C 9.953125 19.214844 10.25 19.621094 10.695312 19.96875 C 11.109375 20.296875 11.269531 20.375 11.515625 20.382812 C 11.601562 20.382812 12.09375 20.1875 12.609375 19.949219 Z M 12.609375 19.949219 "/>
<path style=" stroke:none;fill-rule:nonzero;fill:rgb(100%,100%,100%);fill-opacity:0.392157;" d="M 10.585938 2.902344 C 10.113281 2.902344 9.675781 3.15625 9.441406 3.566406 L 8.496094 5.21875 L 5.953125 5.21875 C 5.492188 5.21875 5.0625 5.460938 4.824219 5.855469 L 3.832031 7.511719 C 3.679688 7.765625 3.621094 8.0625 3.652344 8.347656 C 3.675781 8.164062 3.734375 7.988281 3.832031 7.828125 L 4.824219 6.171875 C 5.0625 5.777344 5.492188 5.53125 5.953125 5.53125 L 8.496094 5.53125 L 9.441406 3.882812 C 9.675781 3.472656 10.113281 3.21875 10.585938 3.21875 L 21.167969 3.21875 C 21.640625 3.21875 22.078125 3.472656 22.3125 3.882812 L 23.257812 5.53125 L 25.800781 5.53125 C 26.261719 5.53125 26.691406 5.777344 26.929688 6.171875 L 27.921875 7.828125 C 28.019531 7.988281 28.078125 8.164062 28.097656 8.347656 C 28.132812 8.0625 28.074219 7.765625 27.921875 7.511719 L 26.929688 5.855469 C 26.691406 5.460938 26.261719 5.21875 25.800781 5.21875 L 23.257812 5.21875 L 22.3125 3.566406 C 22.078125 3.15625 21.640625 2.902344 21.167969 2.902344 Z M 5.03125 11.28125 L 4.148438 12.828125 C 4.007812 13.074219 3.953125 13.359375 3.984375 13.636719 C 4.003906 13.464844 4.058594 13.296875 4.148438 13.140625 L 5.121094 11.4375 Z M 26.722656 11.28125 L 26.628906 11.4375 L 27.605469 13.140625 C 27.691406 13.296875 27.746094 13.464844 27.769531 13.636719 C 27.800781 13.359375 27.746094 13.074219 27.605469 12.828125 Z M 26.722656 11.28125 "/>
<path style=" stroke:none;fill-rule:nonzero;fill:rgb(0%,0%,0%);fill-opacity:0.235294;" d="M 3.65625 8.019531 C 3.621094 8.300781 3.671875 8.589844 3.816406 8.839844 L 5.027344 10.957031 L 5.121094 10.785156 L 3.816406 8.503906 C 3.730469 8.351562 3.675781 8.1875 3.65625 8.019531 Z M 28.097656 8.019531 C 28.074219 8.1875 28.023438 8.351562 27.933594 8.503906 L 26.628906 10.785156 L 26.726562 10.957031 L 27.933594 8.839844 C 28.078125 8.589844 28.132812 8.300781 28.097656 8.019531 Z M 3.988281 13.3125 C 3.957031 13.542969 3.988281 13.78125 4.082031 14 L 8.050781 23.261719 C 8.160156 23.515625 8.347656 23.726562 8.582031 23.871094 L 15.199219 27.839844 C 15.617188 28.089844 16.136719 28.089844 16.554688 27.839844 L 23.167969 23.871094 C 23.40625 23.726562 23.59375 23.515625 23.703125 23.261719 L 27.671875 14 C 27.765625 13.78125 27.796875 13.542969 27.765625 13.3125 C 27.75 13.429688 27.71875 13.550781 27.671875 13.664062 L 23.703125 22.921875 C 23.59375 23.179688 23.40625 23.390625 23.167969 23.535156 L 16.554688 27.503906 C 16.136719 27.753906 15.617188 27.753906 15.199219 27.503906 L 8.582031 23.535156 C 8.347656 23.390625 8.160156 23.179688 8.050781 22.921875 L 4.082031 13.664062 C 4.035156 13.550781 4 13.429688 3.988281 13.3125 Z M 3.988281 13.3125 "/>
<path style="fill:none;stroke-width:11.338583;stroke-linecap:round;stroke-linejoin:round;stroke:rgb(12.941177%,12.941177%,12.941177%);stroke-opacity:1;stroke-miterlimit:4;" d="M 640.096388 175.495061 C 611.516438 175.495061 585.06227 190.847927 570.890395 215.648709 L 513.730496 315.560433 L 359.965644 315.560433 C 332.094288 315.560433 306.112516 330.204705 291.704442 354.060696 L 231.710168 454.208618 C 216.829699 478.773202 216.593501 509.715131 230.765377 534.515914 L 309.655485 672.691702 L 250.842201 775.673999 C 238.559908 797.404209 236.906523 823.622179 246.826836 846.533378 L 486.803932 1406.558668 C 493.417474 1421.911533 504.754974 1434.666221 518.92685 1443.405545 L 919.046142 1683.382641 C 944.31932 1698.499308 975.733645 1698.499308 1001.006823 1683.382641 L 1400.889917 1443.405545 C 1415.297991 1434.666221 1426.635492 1421.911533 1433.249034 1406.558668 L 1673.22613 846.533378 C 1682.910245 823.622179 1681.493057 797.404209 1669.210765 775.673999 L 1610.161283 672.691702 L 1689.051391 534.515914 C 1703.459465 509.715131 1702.987069 478.773202 1688.342797 454.208618 L 1628.348523 354.060696 C 1613.940449 330.204705 1587.958677 315.560433 1560.087322 315.560433 L 1406.32247 315.560433 L 1349.162571 215.648709 C 1334.990695 190.847927 1308.536527 175.495061 1279.956578 175.495061 Z M 640.096388 175.495061 " transform="matrix(0.016538,0,0,0.016538,0,0)"/>
<path style=" stroke:none;fill-rule:nonzero;fill:rgb(100%,100%,100%);fill-opacity:1;" d="M 21.910156 7.390625 C 20.886719 7.558594 20.0625 8.019531 18.984375 8.1875 C 18.898438 8.1875 18.539062 8.101562 18.183594 7.992188 C 16.664062 7.535156 16.171875 7.410156 15.878906 7.410156 C 15.582031 7.410156 15.089844 7.535156 13.570312 7.992188 C 13.214844 8.101562 12.851562 8.1875 12.761719 8.1875 C 11.699219 8.027344 10.839844 7.5625 9.742188 7.425781 C 9.570312 7.539062 8.117188 9.691406 7.484375 10.601562 C 6.746094 11.667969 6.667969 11.808594 6.609375 12.214844 C 6.585938 12.375 6.574219 12.496094 6.621094 12.636719 C 6.679688 12.28125 6.792969 12.097656 7.484375 11.097656 C 8.117188 10.1875 9.570312 8.035156 9.742188 7.921875 C 10.839844 8.058594 11.699219 8.527344 12.761719 8.683594 C 12.851562 8.683594 13.214844 8.597656 13.570312 8.488281 C 15.089844 8.03125 15.582031 7.90625 15.878906 7.90625 C 16.171875 7.90625 16.664062 8.03125 18.183594 8.488281 C 18.539062 8.597656 18.898438 8.683594 18.984375 8.683594 C 20.0625 8.515625 20.886719 8.054688 21.910156 7.886719 C 22.109375 7.886719 24.347656 11.066406 24.914062 12.046875 C 25.023438 12.238281 25.097656 12.433594 25.136719 12.613281 C 25.210938 12.3125 25.132812 11.933594 24.914062 11.550781 C 24.347656 10.570312 22.109375 7.390625 21.910156 7.390625 Z M 21.222656 10.742188 C 20.882812 10.871094 20.703125 10.9375 20.167969 11.136719 C 19.257812 11.476562 18.414062 11.820312 18.296875 11.894531 C 18.019531 12.070312 17.886719 12.324219 17.886719 12.671875 C 17.886719 12.742188 17.894531 12.816406 17.914062 12.910156 C 17.96875 12.691406 18.09375 12.519531 18.296875 12.390625 C 18.414062 12.316406 19.257812 11.972656 20.167969 11.632812 C 21.082031 11.292969 21.890625 10.988281 21.96875 10.960938 C 22.046875 10.929688 22.082031 10.886719 22.054688 10.859375 C 22.027344 10.835938 21.675781 10.789062 21.222656 10.742188 Z M 10.535156 10.746094 C 10.082031 10.789062 9.71875 10.84375 9.710938 10.882812 C 9.703125 10.914062 10.507812 11.238281 11.5 11.609375 C 12.492188 11.976562 13.386719 12.335938 13.488281 12.40625 C 13.671875 12.535156 13.789062 12.703125 13.839844 12.910156 C 13.859375 12.816406 13.867188 12.742188 13.867188 12.675781 C 13.867188 12.335938 13.742188 12.085938 13.488281 11.910156 C 13.386719 11.839844 12.492188 11.480469 11.5 11.113281 C 11.144531 10.980469 10.816406 10.855469 10.535156 10.746094 Z M 14.53125 11.636719 C 14.460938 11.957031 14.335938 12.507812 14.191406 13.117188 C 13.808594 14.726562 13.800781 14.792969 13.898438 14.890625 C 13.949219 14.640625 14.042969 14.246094 14.191406 13.613281 C 14.410156 12.695312 14.585938 11.898438 14.589844 11.84375 C 14.589844 11.796875 14.5625 11.714844 14.53125 11.636719 Z M 17.222656 11.636719 C 17.191406 11.714844 17.164062 11.796875 17.167969 11.84375 C 17.167969 11.898438 17.347656 12.695312 17.5625 13.613281 C 17.714844 14.246094 17.804688 14.636719 17.855469 14.890625 C 17.859375 14.886719 17.859375 14.886719 17.863281 14.886719 C 17.953125 14.792969 17.9375 14.691406 17.5625 13.117188 C 17.417969 12.507812 17.292969 11.957031 17.222656 11.636719 Z M 13.128906 15.261719 C 12.957031 15.820312 13.210938 15.964844 14.304688 16.882812 C 14.804688 17.304688 15.25 17.707031 15.429688 17.894531 C 15.550781 17.726562 15.558594 17.617188 15.507812 17.492188 C 15.472656 17.410156 14.929688 16.914062 14.304688 16.386719 C 13.601562 15.796875 13.246094 15.527344 13.128906 15.261719 Z M 18.632812 15.277344 C 18.503906 15.480469 18.191406 15.761719 17.480469 16.359375 C 16.882812 16.863281 16.351562 17.34375 16.300781 17.4375 C 16.25 17.527344 16.21875 17.664062 16.234375 17.742188 C 16.242188 17.769531 16.277344 17.820312 16.332031 17.890625 C 16.464844 17.738281 16.945312 17.304688 17.480469 16.855469 C 18.523438 15.984375 18.710938 15.78125 18.710938 15.527344 C 18.710938 15.503906 18.679688 15.414062 18.632812 15.277344 Z M 21.558594 16.667969 C 21.554688 16.675781 21.550781 16.679688 21.546875 16.683594 C 21.464844 16.890625 21.53125 17.195312 21.777344 17.753906 C 21.917969 18.070312 22.003906 18.308594 22.042969 18.511719 C 22.113281 18.167969 22.039062 17.855469 21.777344 17.257812 C 21.671875 17.019531 21.601562 16.828125 21.558594 16.667969 Z M 10.199219 16.671875 C 10.160156 16.835938 10.085938 17.03125 9.980469 17.273438 C 9.707031 17.910156 9.640625 18.164062 9.71875 18.496094 C 9.757812 18.3125 9.84375 18.089844 9.980469 17.769531 C 10.222656 17.210938 10.289062 16.894531 10.207031 16.683594 C 10.207031 16.679688 10.203125 16.675781 10.199219 16.671875 Z M 15.882812 19.484375 C 15.625 19.484375 15.375 19.574219 14.917969 19.761719 C 14.101562 20.089844 12.355469 20.902344 12.199219 21.050781 C 12.074219 21.175781 12.101562 21.289062 12.320312 21.46875 C 12.757812 21.210938 14.199219 20.546875 14.917969 20.257812 C 15.828125 19.886719 15.925781 19.886719 16.867188 20.265625 C 17.601562 20.558594 18.929688 21.167969 19.421875 21.4375 C 19.648438 21.253906 19.675781 21.167969 19.609375 21.066406 C 19.535156 20.949219 17.757812 20.125 16.867188 19.769531 C 16.398438 19.578125 16.136719 19.484375 15.882812 19.484375 Z M 15.882812 19.484375 "/>
<path style=" stroke:none;fill-rule:nonzero;fill:rgb(0%,0%,0%);fill-opacity:0.235294;" d="M 19.984375 10.164062 C 19.53125 10.167969 19.230469 10.277344 18.320312 10.59375 C 17.460938 10.890625 17.320312 10.957031 17.25 11.09375 C 17.203125 11.179688 17.164062 11.296875 17.167969 11.351562 C 17.167969 11.375 17.195312 11.519531 17.246094 11.742188 C 17.246094 11.738281 17.246094 11.738281 17.25 11.734375 C 17.320312 11.597656 17.460938 11.53125 18.320312 11.234375 C 19.695312 10.753906 19.679688 10.753906 20.910156 10.863281 C 21.335938 10.707031 21.921875 10.484375 21.96875 10.46875 C 22.046875 10.4375 22.082031 10.394531 22.054688 10.367188 C 22.023438 10.339844 21.519531 10.277344 20.933594 10.226562 C 20.503906 10.1875 20.222656 10.160156 19.984375 10.164062 Z M 12.214844 10.171875 L 11.613281 10.183594 C 10.820312 10.203125 9.726562 10.324219 9.710938 10.390625 C 9.703125 10.414062 10.175781 10.609375 10.839844 10.867188 C 11.101562 10.847656 11.371094 10.832031 11.613281 10.824219 L 12.214844 10.8125 L 13.320312 11.195312 C 14.28125 11.53125 14.433594 11.601562 14.507812 11.734375 C 14.507812 11.738281 14.507812 11.738281 14.507812 11.742188 C 14.558594 11.519531 14.585938 11.375 14.589844 11.351562 C 14.589844 11.296875 14.550781 11.179688 14.507812 11.09375 C 14.433594 10.960938 14.28125 10.890625 13.320312 10.554688 Z M 25.117188 12.683594 C 25.023438 12.960938 24.746094 13.242188 23.023438 14.800781 C 22.230469 15.519531 21.566406 16.144531 21.546875 16.191406 C 21.492188 16.332031 21.503906 16.511719 21.589844 16.78125 C 21.746094 16.613281 22.335938 16.0625 23.023438 15.441406 C 24.746094 13.882812 25.023438 13.601562 25.117188 13.324219 C 25.179688 13.136719 25.179688 12.917969 25.117188 12.683594 Z M 6.640625 12.691406 C 6.628906 12.742188 6.617188 12.796875 6.609375 12.859375 C 6.523438 13.429688 6.605469 13.523438 8.820312 15.523438 C 9.464844 16.109375 10.023438 16.628906 10.167969 16.789062 C 10.25 16.515625 10.261719 16.332031 10.207031 16.191406 C 10.1875 16.144531 9.5625 15.554688 8.820312 14.882812 C 7.300781 13.515625 6.785156 13.039062 6.640625 12.691406 Z M 17.9375 12.988281 C 17.902344 13.089844 17.886719 13.199219 17.886719 13.320312 C 17.886719 13.539062 17.972656 13.804688 18.296875 14.582031 C 18.414062 14.863281 18.523438 15.132812 18.597656 15.335938 C 18.683594 15.21875 18.710938 15.132812 18.710938 15.039062 C 18.710938 14.976562 18.523438 14.480469 18.296875 13.941406 C 18.101562 13.472656 17.992188 13.1875 17.9375 12.988281 Z M 13.820312 12.992188 C 13.761719 13.195312 13.652344 13.484375 13.449219 13.972656 C 13.132812 14.730469 12.972656 15.007812 13.15625 15.324219 C 13.21875 15.140625 13.320312 14.914062 13.449219 14.613281 C 13.78125 13.808594 13.871094 13.542969 13.867188 13.320312 C 13.867188 13.199219 13.851562 13.089844 13.820312 12.992188 Z M 17.828125 14.914062 C 17.609375 15.035156 16.59375 15.265625 16.078125 15.304688 C 15.617188 15.339844 14.175781 15.074219 13.925781 14.914062 C 13.816406 15.417969 13.832031 15.472656 13.898438 15.535156 C 14.054688 15.691406 15.597656 15.980469 16.078125 15.945312 C 16.625 15.902344 17.75 15.640625 17.863281 15.53125 C 17.921875 15.472656 17.933594 15.402344 17.828125 14.914062 Z M 16.398438 17.96875 C 16.347656 18.023438 16.3125 18.0625 16.300781 18.082031 C 16.25 18.171875 16.21875 18.308594 16.234375 18.386719 C 16.261719 18.519531 16.976562 19.210938 17.707031 19.804688 C 18.015625 20.054688 19.871094 20.96875 20.167969 21.015625 C 20.417969 21.054688 20.683594 20.929688 21.121094 20.570312 C 21.546875 20.21875 21.804688 19.863281 21.976562 19.382812 C 22.078125 19.105469 22.097656 18.886719 22.027344 18.585938 C 22.011719 18.636719 21.996094 18.6875 21.976562 18.742188 C 21.804688 19.222656 21.546875 19.578125 21.121094 19.929688 C 20.683594 20.289062 20.417969 20.414062 20.167969 20.375 C 19.871094 20.328125 18.015625 19.414062 17.707031 19.164062 C 17.179688 18.734375 16.65625 18.25 16.398438 17.96875 Z M 15.363281 17.976562 C 15.242188 18.121094 15.046875 18.304688 14.753906 18.5625 C 13.898438 19.320312 13.730469 19.425781 12.609375 19.953125 C 12.09375 20.191406 11.601562 20.390625 11.515625 20.386719 C 11.269531 20.382812 11.109375 20.300781 10.695312 19.976562 C 10.25 19.625 9.953125 19.21875 9.78125 18.714844 C 9.761719 18.664062 9.75 18.617188 9.734375 18.570312 C 9.652344 18.871094 9.679688 19.0625 9.78125 19.355469 C 9.953125 19.859375 10.25 20.265625 10.695312 20.617188 C 11.109375 20.941406 11.269531 21.023438 11.515625 21.027344 C 11.601562 21.03125 12.09375 20.835938 12.609375 20.59375 C 13.730469 20.070312 13.898438 19.960938 14.753906 19.203125 C 15.476562 18.566406 15.609375 18.378906 15.507812 18.136719 C 15.496094 18.113281 15.445312 18.058594 15.363281 17.976562 Z M 19.3125 21.53125 C 19.238281 21.589844 19.144531 21.65625 19.035156 21.734375 C 18.003906 22.46875 17.769531 22.71875 16.941406 23.425781 C 15.835938 24.363281 15.921875 24.363281 14.84375 23.449219 C 14.09375 22.8125 13.351562 22.179688 12.523438 21.621094 C 12.488281 21.597656 12.460938 21.578125 12.429688 21.554688 C 12.3125 21.621094 12.230469 21.671875 12.199219 21.699219 C 12.042969 21.851562 12.121094 21.992188 12.523438 22.261719 C 13.351562 22.820312 14.09375 23.453125 14.84375 24.089844 C 15.921875 25.003906 15.835938 25.003906 16.941406 24.066406 C 17.769531 23.363281 18.003906 23.109375 19.035156 22.375 C 19.613281 21.960938 19.703125 21.855469 19.609375 21.710938 C 19.59375 21.683594 19.480469 21.617188 19.3125 21.53125 Z M 19.3125 21.53125 "/>
<path style="fill:none;stroke-width:3;stroke-linecap:butt;stroke-linejoin:miter;stroke:rgb(12.941177%,12.941177%,12.941177%);stroke-opacity:1;stroke-miterlimit:4;" d="M 271.036617 159.651723 C 284.285352 148.402797 288.034994 144.403179 304.533419 132.654301 C 313.782535 126.029933 315.219898 124.342594 313.720041 122.030315 C 312.532655 120.155494 284.09787 106.969253 269.849231 101.282297 C 254.788169 95.220375 253.225818 95.220375 238.664709 101.157308 C 225.603456 106.406807 197.668624 119.405566 195.168862 121.780339 C 192.669101 124.2801 193.918982 126.467391 200.355867 130.841974 C 213.604602 139.716126 225.478468 149.902654 237.477322 160.026687 C 254.725675 174.712784 253.350806 174.712784 271.036617 159.714217 Z M 201.730736 104.157022 C 219.666523 95.720328 222.353766 93.970495 236.039959 81.909147 C 247.601355 71.722619 249.726152 68.722906 248.101308 64.848276 C 247.538861 63.535901 238.852191 55.599159 228.853146 47.162465 C 205.105413 27.226868 206.105318 30.0391 215.166953 8.478659 C 220.478945 -4.395112 221.916308 -8.7072 221.853814 -12.206866 C 221.853814 -17.643847 219.854005 -21.643465 215.791893 -24.455696 C 214.167048 -25.580589 199.855915 -31.33004 183.982431 -37.204479 C 168.108946 -43.141412 155.235176 -48.328416 155.360164 -48.828369 C 155.61014 -49.890767 173.108469 -51.828082 185.794757 -52.140552 L 195.418838 -52.328034 L 213.10465 -46.203619 C 228.478181 -40.829132 230.915449 -39.766734 232.102835 -37.579443 C 232.79027 -36.204574 233.41521 -34.329753 233.41521 -33.454837 C 233.352716 -32.57992 230.540484 -19.831138 227.040819 -5.14504 C 220.916404 20.602501 220.791415 21.6649 222.353766 23.22725 C 224.853528 25.727012 249.53867 30.35157 257.225436 29.789124 C 265.974601 29.101689 283.972882 24.914589 285.785209 23.164756 C 287.222572 21.6649 286.972595 20.040055 280.973168 -5.14504 C 277.535997 -19.831138 274.661271 -32.57992 274.661271 -33.454837 C 274.598777 -34.329753 275.223717 -36.204574 275.973646 -37.579443 C 277.098538 -39.766734 279.348324 -40.829132 293.097011 -45.641173 C 315.282392 -53.327939 314.78244 -53.265445 334.905518 -51.515612 C 344.279623 -50.640696 352.341353 -49.640791 352.841305 -49.203333 C 353.278764 -48.765875 352.716317 -48.07844 351.466437 -47.578488 C 350.216556 -47.14103 337.280291 -42.266495 322.656688 -36.829514 C 308.095578 -31.392534 294.596867 -25.893059 292.722046 -24.705672 C 288.28497 -21.893441 286.160173 -17.831329 286.160173 -12.26936 C 286.160173 -8.7072 287.535042 -4.457606 292.722046 7.978707 C 296.3467 16.602883 299.346414 24.539625 299.346414 25.477036 C 299.346414 29.539148 296.3467 32.788837 279.660794 46.725007 C 270.099207 54.786737 261.600018 62.473503 260.787596 63.973359 C 259.975174 65.410722 259.475221 67.598013 259.725197 68.847894 C 260.162656 70.972691 271.599064 82.034135 283.285448 91.533228 C 288.222476 95.532846 317.907141 110.156449 322.656688 110.906377 C 326.656306 111.531318 330.9059 109.531509 337.905232 103.782058 C 344.717081 98.095101 348.841687 92.470638 351.591425 84.783872 C 354.15368 77.597058 353.52874 72.722524 348.404229 61.098634 C 344.467105 52.161987 343.404706 47.287453 344.717081 43.975269 C 345.029551 43.225341 355.653537 33.163802 368.339825 21.727394 C 395.899693 -3.207725 400.33677 -7.707295 401.836627 -12.144372 C 403.523965 -17.143894 402.336579 -23.643274 398.586937 -30.205147 C 389.525302 -45.891149 353.716222 -96.761291 350.529026 -96.761291 C 334.15559 -94.074048 320.969349 -86.699752 303.720996 -84.012509 C 302.346127 -84.012509 296.596676 -85.387377 290.90972 -87.13721 C 266.599541 -94.449012 258.725293 -96.448821 254.038241 -96.448821 C 249.288694 -96.448821 241.414446 -94.449012 217.104268 -87.13721 C 211.417311 -85.387377 205.605366 -84.012509 204.168003 -84.012509 C 187.169626 -86.574764 173.420939 -94.011554 155.860116 -96.198845 C 153.110379 -94.386518 129.862599 -59.952306 119.738566 -45.391197 C 107.864699 -28.330326 106.677313 -26.080541 105.739902 -19.581162 C 104.365034 -10.457033 105.677408 -8.957176 141.111525 23.039768 C 152.985391 33.788742 162.984436 43.225341 163.296906 43.975269 C 164.609281 47.349947 163.546882 52.411963 159.672252 61.34861 C 154.422753 73.59744 153.922801 76.972118 156.485056 84.346414 C 159.234794 92.408144 163.98434 98.907523 171.10866 104.469492 C 177.733027 109.718991 180.295283 110.968872 184.232407 111.09386 C 185.607275 111.09386 193.481523 107.969158 201.730736 104.157022 Z M 201.730736 104.157022 " transform="matrix(0.062506,0,0,0.062506,0,13.438783)"/>
</g>
</svg>
