<svg height="32" viewBox="0 0 32 32" width="32" xmlns="http://www.w3.org/2000/svg" xmlns:xlink="http://www.w3.org/1999/xlink"><linearGradient id="a" gradientUnits="userSpaceOnUse" x1="15.87652" x2="15.87652" y1="28.033936" y2="29.35698000003"><stop offset="0" stop-opacity=".27451"/><stop offset="1" stop-opacity="0"/></linearGradient><linearGradient id="b"><stop offset="0" stop-opacity=".313726"/><stop offset=".222222" stop-opacity=".27451"/><stop offset="1" stop-opacity="0"/></linearGradient><radialGradient id="c" cx="450.908936" cy="189.579361" gradientTransform="matrix(.00000017 -.0781325 -.140638 -.0000001 50.146086 63.595333)" gradientUnits="userSpaceOnUse" r="21.166656" xlink:href="#b"/><radialGradient id="d" cx="450.908936" cy="189.579361" gradientTransform="matrix(-.00000017 .0781325 .140638 .0000001 -18.393049 -7.52748)" gradientUnits="userSpaceOnUse" r="21.166656" xlink:href="#b"/><radialGradient id="e" cx="450.908936" cy="189.579361" gradientTransform="matrix(-.00000017 -.0781325 .140638 -.0000001 -18.393049 63.595333)" gradientUnits="userSpaceOnUse" r="21.166656" xlink:href="#b"/><radialGradient id="f" cx="450.908936" cy="189.579361" gradientTransform="matrix(.00000017 .0781325 -.140638 .0000001 50.146084 -7.527479)" gradientUnits="userSpaceOnUse" r="21.166656" xlink:href="#b"/><linearGradient id="g" gradientTransform="matrix(.0753497 0 0 .217412 -5.854013 33.641348)" gradientUnits="userSpaceOnUse" x1="323.513245" x2="323.513245" y1="-141.414581" y2="-25.791676"><stop offset="0" stop-color="#8d6e63"/><stop offset="1" stop-color="#795548"/></linearGradient><linearGradient id="h" gradientUnits="userSpaceOnUse" x1="254" x2="254" y1="212.333328" y2="-115.75"><stop offset="0" stop-color="#e0e0e0"/><stop offset="1" stop-color="#eee"/></linearGradient><linearGradient id="i" gradientUnits="userSpaceOnUse" x1="15.87648" x2="15.87648" y1="28.03386419623" y2="2.89610370009"><stop offset="0" stop-color="#424242"/><stop offset="1" stop-color="#616161"/></linearGradient><path d="m7.9375 28.035156h15.878906v1.320313h-15.878906zm0 0" fill="url(#a)"/><path d="m23.816406 28.035156h2.644532v-1.324218h-2.644532zm0 0" fill="url(#c)"/><path d="m7.9375 28.035156h-2.644531v1.320313h2.644531zm0 0" fill="url(#d)"/><path d="m7.9375 28.035156h-2.644531v-1.324218h2.644531zm0 0" fill="url(#e)"/><path d="m23.816406 28.035156h2.644532v1.320313h-2.644532zm0 0" fill="url(#f)"/><path d="m6.613281 6.203125h18.523438c.730469 0 1.324219.59375 1.324219 1.324219v19.183594c0 .730468-.59375 1.324218-1.324219 1.324218h-18.523438c-.730469 0-1.320312-.59375-1.320312-1.324218v-19.183594c0-.730469.589843-1.324219 1.320312-1.324219zm0 0" fill="url(#g)"/><path d="m6.613281 6.296875c-.730469 0-1.320312.589844-1.320312 1.324219v.164062c0-.734375.589843-1.324218 1.320312-1.324218h18.523438c.734375 0 1.324219.589843 1.324219 1.324218v-.164062c0-.734375-.589844-1.324219-1.324219-1.324219zm0 0" fill="#fff" fill-opacity=".392157"/><path d="m6.613281 27.960938c-.730469 0-1.320312-.59375-1.320312-1.324219v-.164063c0 .730469.589843 1.320313 1.320312 1.320313h18.523438c.734375 0 1.324219-.589844 1.324219-1.320313v.164063c0 .730469-.589844 1.324219-1.324219 1.324219zm0 0" fill-opacity=".196078"/><path d="m105.802396-115.759477h296.346701c11.686384 0 21.185477 9.499093 21.185477 21.185477v306.908192c0 11.686384-9.499093 21.185477-21.185477 21.185477h-296.346701c-11.686384 0-21.122982-9.499093-21.122982-21.185477v-306.908192c0-11.686384 9.436598-21.185477 21.122982-21.185477zm0 0" fill="none" stroke="#212121" stroke-linecap="round" stroke-width="3" transform="matrix(.062506 0 0 .062506 0 13.438783)"/><path d="m126.987873-105.135492h254.038241c5.811945 0 10.561491 4.687053 10.561491 10.561492v296.3467c0 5.811945-4.749546 10.561492-10.561491 10.561492h-254.038241c-5.811945 0-10.561491-4.749547-10.561491-10.561492v-296.3467c0-5.874439 4.749546-10.561492 10.561491-10.561492zm0 0" fill="url(#h)" stroke="#212121" stroke-linecap="round" stroke-linejoin="round" stroke-width="3" transform="matrix(.062506 0 0 .062506 0 13.438783)"/><path d="m11.90625 2.894531c-.367188 0-.660156.296875-.660156.664063v.660156h-1.984375c-.367188 0-.660157.296875-.660157.660156v2.648438c0 .367187.292969.660156.660157.660156h13.230469c.367187 0 .660156-.292969.660156-.660156v-2.648438c0-.363281-.292969-.660156-.660156-.660156h-1.984376v-.660156c0-.367188-.296874-.664063-.664062-.664063zm0 0" fill="url(#i)"/><path d="m8.601562 7.527344v.660156c0 .367188.292969.664062.660157.664062h13.230469c.367187 0 .660156-.296874.660156-.664062v-.660156c0 .367187-.292969.660156-.660156.660156h-13.230469c-.367188 0-.660157-.292969-.660157-.660156zm0 0" fill-opacity=".235294"/><path d="m11.90625 2.894531c-.367188 0-.660156.296875-.660156.664063v.246094c0-.367188.292968-.660157.660156-.660157h7.9375c.367188 0 .664062.292969.664062.660157v-.246094c0-.367188-.296874-.664063-.664062-.664063zm-2.644531 1.324219c-.367188 0-.660157.296875-.660157.660156v.25c0-.367187.292969-.660156.660157-.660156h1.984375v-.25zm11.246093 0v.25h1.984376c.367187 0 .660156.292969.660156.660156v-.25c0-.363281-.292969-.660156-.660156-.660156zm0 0" fill="#fff" fill-opacity=".313726"/><path d="m719.931288 175.022665c-22.202605 0-39.91745 17.951043-39.91745 40.153648v39.91745h-119.988548c-22.202605 0-39.91745 17.951043-39.91745 39.91745v160.142196c0 22.202606 17.714845 39.91745 39.91745 39.91745h800.002386c22.202605 0 39.91745-17.714844 39.91745-39.91745v-160.142196c0-21.966407-17.714845-39.91745-39.91745-39.91745h-119.988548v-39.91745c0-22.202605-17.951043-40.153648-40.153648-40.153648zm0 0" fill="none" stroke="#212121" stroke-linecap="round" stroke-linejoin="round" stroke-width="11.338583" transform="scale(.016538)"/><path d="m7.277344 26.050781v.328125c0 .367188.292968.664063.660156.664063h15.878906c.363282 0 .660156-.296875.660156-.664063v-.328125c0 .363281-.296874.660157-.660156.660157h-15.878906c-.367188 0-.660156-.296876-.660156-.660157zm0 0" fill-opacity=".235294"/><g fill="#78909c"><path d="m12.570312 10.171875h9.921876c.363281 0 .660156.296875.660156.664063 0 .363281-.296875.660156-.660156.660156h-9.921876c-.367187 0-.664062-.296875-.664062-.660156 0-.367188.296875-.664063.664062-.664063zm0 0"/><path d="m12.570312 14.140625h9.921876c.363281 0 .660156.296875.660156.664063 0 .363281-.296875.660156-.660156.660156h-9.921876c-.367187 0-.664062-.296875-.664062-.660156 0-.367188.296875-.664063.664062-.664063zm0 0"/><path d="m12.570312 18.109375h9.921876c.363281 0 .660156.296875.660156.664063 0 .363281-.296875.660156-.660156.660156h-9.921876c-.367187 0-.664062-.296875-.664062-.660156 0-.367188.296875-.664063.664062-.664063zm0 0"/><path d="m12.570312 22.082031h9.921876c.363281 0 .660156.273438.660156.609375v.101563c0 .335937-.296875.609375-.660156.609375h-9.921876c-.367187 0-.664062-.273438-.664062-.609375v-.101563c0-.335937.296875-.609375.664062-.609375zm0 0"/><path d="m9.921875 13.480469c-.730469 0-1.320313.589843-1.320313 1.324219 0 .730468.589844 1.320312 1.320313 1.320312.734375 0 1.324219-.589844 1.324219-1.320312 0-.734376-.589844-1.324219-1.324219-1.324219zm0 .660156c.367187 0 .664063.296875.664063.664063 0 .367187-.296876.660156-.664063.660156s-.660156-.292969-.660156-.660156c0-.367188.292969-.664063.660156-.664063zm0 0"/><path d="m9.921875 17.449219c-.730469 0-1.320313.589843-1.320313 1.324219 0 .730468.589844 1.320312 1.320313 1.320312.734375 0 1.324219-.589844 1.324219-1.320312 0-.734376-.589844-1.324219-1.324219-1.324219zm0 .660156c.367187 0 .664063.296875.664063.664063 0 .367187-.296876.660156-.664063.660156s-.660156-.292969-.660156-.660156c0-.367188.292969-.664063.660156-.664063zm0 0"/><path d="m9.921875 21.417969c-.730469 0-1.320313.589843-1.320313 1.324219 0 .734374.589844 1.324218 1.320313 1.324218.734375 0 1.324219-.589844 1.324219-1.324218 0-.734376-.589844-1.324219-1.324219-1.324219zm0 .664062c.367187 0 .664063.292969.664063.660157 0 .367187-.296876.660156-.664063.660156s-.660156-.292969-.660156-.660156c0-.367188.292969-.660157.660156-.660157zm0 0"/><path d="m9.921875 9.511719c-.730469 0-1.320313.589843-1.320313 1.324219 0 .730468.589844 1.320312 1.320313 1.320312.734375 0 1.324219-.589844 1.324219-1.320312 0-.734376-.589844-1.324219-1.324219-1.324219zm0 .660156c.367187 0 .664063.296875.664063.664063 0 .363281-.296876.660156-.664063.660156s-.660156-.296875-.660156-.660156c0-.367188.292969-.664063.660156-.664063zm0 0"/></g><path d="m137.611859-57.515039 21.122983 21.122983 26.497469-31.746969" fill="none" stroke="#f44336" stroke-linecap="round" stroke-linejoin="round" stroke-width="12" transform="matrix(.062506 0 0 .062506 0 13.438783)"/><path d="m137.611859 5.978898 21.122983 21.122982 26.497469-31.746968" fill="none" stroke="#f44336" stroke-linecap="round" stroke-linejoin="round" stroke-width="12" transform="matrix(.062506 0 0 .062506 0 13.438783)"/></svg>