<svg xmlns="http://www.w3.org/2000/svg" width="32pt" height="32pt" viewBox="0 0 32 32"><defs><radialGradient id="a" gradientUnits="userSpaceOnUse" cx="450.909" cy="189.579" fx="450.909" fy="189.579" r="21.167" gradientTransform="matrix(0 -.07813 -.14064 0 44.523 63.595)"><stop offset="0" stop-opacity=".314"/><stop offset=".222" stop-opacity=".275"/><stop offset="1" stop-opacity="0"/></radialGradient><radialGradient id="b" gradientUnits="userSpaceOnUse" cx="450.909" cy="189.579" fx="450.909" fy="189.579" r="21.167" gradientTransform="matrix(0 .07813 .14064 0 -12.77 -7.527)"><stop offset="0" stop-opacity=".314"/><stop offset=".222" stop-opacity=".275"/><stop offset="1" stop-opacity="0"/></radialGradient><radialGradient id="c" gradientUnits="userSpaceOnUse" cx="450.909" cy="189.579" fx="450.909" fy="189.579" r="21.167" gradientTransform="matrix(0 -.07813 .14064 0 -12.77 63.595)"><stop offset="0" stop-opacity=".314"/><stop offset=".222" stop-opacity=".275"/><stop offset="1" stop-opacity="0"/></radialGradient><radialGradient id="d" gradientUnits="userSpaceOnUse" cx="450.909" cy="189.579" fx="450.909" fy="189.579" r="21.167" gradientTransform="matrix(0 .07813 -.14064 0 44.523 -7.527)"><stop offset="0" stop-opacity=".314"/><stop offset=".222" stop-opacity=".275"/><stop offset="1" stop-opacity="0"/></radialGradient><linearGradient id="e" gradientUnits="userSpaceOnUse" x1="255.323" y1="233.5" x2="255.323" y2="254.667" gradientTransform="matrix(.01336 0 0 .0625 12.465 13.439)"><stop offset="0" stop-opacity=".275"/><stop offset="1" stop-opacity="0"/></linearGradient><linearGradient id="f" gradientUnits="userSpaceOnUse" x1="254" y1="-168.667" x2="254" y2="233.5"><stop offset="0" stop-color="#9575cd"/><stop offset="1" stop-color="#7e57c2"/></linearGradient><linearGradient id="g" gradientUnits="userSpaceOnUse" x1="960" y1="1695.118" x2="960" y2="175.118" gradientTransform="rotate(.891) scale(.01654)"><stop offset="0" stop-color="#424242"/><stop offset="1" stop-color="#616161"/></linearGradient><linearGradient id="h" gradientUnits="userSpaceOnUse" x1="254" y1="57.817" x2="254" y2="7.017" gradientTransform="matrix(.07813 0 0 .07813 -3.97 12.932)"><stop offset="0" stop-color="#bdbdbd"/><stop offset="1" stop-color="#e0e0e0"/></linearGradient><linearGradient id="i" gradientUnits="userSpaceOnUse" x1="254" y1="52.525" x2="254" y2="10.192" gradientTransform="matrix(.07813 0 0 .07813 -3.97 6.73)"><stop offset="0" stop-color="#bdbdbd"/><stop offset="1" stop-color="#e0e0e0"/></linearGradient><linearGradient id="j" gradientUnits="userSpaceOnUse" x1="253.765" y1="52.525" x2="253.765" y2="10.192" gradientTransform="matrix(.07813 0 0 .07813 -9.904 6.73)"><stop offset="0" stop-color="#bdbdbd"/><stop offset="1" stop-color="#e0e0e0"/></linearGradient><linearGradient id="k" gradientUnits="userSpaceOnUse" x1="254" y1="52.525" x2="254" y2="10.191" gradientTransform="matrix(.07813 0 0 .07813 -3.97 18.638)"><stop offset="0" stop-color="#bdbdbd"/><stop offset="1" stop-color="#e0e0e0"/></linearGradient><linearGradient id="l" gradientUnits="userSpaceOnUse" x1="254" y1="57.817" x2="254" y2="7.017" gradientTransform="matrix(.07813 0 0 .07813 1.985 12.932)"><stop offset="0" stop-color="#bdbdbd"/><stop offset="1" stop-color="#e0e0e0"/></linearGradient></defs><path d="M18.191 28.035h2.649v-1.324H18.19zm0 0" fill="url(#a)"/><path d="M13.563 28.035h-2.649v1.32h2.649zm0 0" fill="url(#b)"/><path d="M13.563 28.035h-2.649v-1.324h2.649zm0 0" fill="url(#c)"/><path d="M18.191 28.035h2.649v1.32H18.19zm0 0" fill="url(#d)"/><path d="M13.563 27.703h4.628v1.652h-4.628zm0 0" fill="url(#e)"/><path d="M253.976-168.692c111.052 0 201.106 90.054 201.106 201.106 0 111.052-90.054 201.106-201.106 201.106-111.052 0-201.044-90.054-201.044-201.106 0-111.052 89.992-201.106 201.044-201.106zm0 0" transform="matrix(.0625 0 0 .0625 0 13.439)" fill="url(#f)" stroke-width="3" stroke-linecap="round" stroke="#333"/><path d="M15.875 28.035a12.54 12.54 0 0 1-12.566-12.57v-.121a12.542 12.542 0 0 0 12.566 12.445 12.545 12.545 0 0 0 12.57-12.445v.12c0 6.966-5.605 12.571-12.57 12.571zm0 0" fill-opacity=".196"/><path d="M15.875 2.98A12.54 12.54 0 0 0 3.309 15.672 12.54 12.54 0 0 1 15.875 3.227c6.922 0 12.504 5.539 12.57 12.445v-.125A12.54 12.54 0 0 0 15.875 2.98zm0 0" fill="#fff" fill-opacity=".392"/><path d="M15.871 9.133a.375.375 0 0 0-.371.379v5.566c-1.723-.058-2.98-.523-3.824-1.367-.903-.902-1.38-2.277-1.38-4.2a.365.365 0 0 0-.108-.269.351.351 0 0 0-.27-.11.373.373 0 0 0-.371.38c0 2.047.52 3.648 1.598 4.73 1.015 1.012 2.488 1.531 4.355 1.594v8.23c0 .133.07.258.188.329a.372.372 0 1 0 .563-.328l-.001-2.278c1.871-.062 3.344-.578 4.355-1.594 1.082-1.082 1.602-2.683 1.602-4.73a.374.374 0 0 0-.187-.328.367.367 0 0 0-.38 0 .363.363 0 0 0-.183.328c0 1.922-.477 3.297-1.379 4.2-.844.843-2.101 1.308-3.828 1.366V9.511a.351.351 0 0 0-.11-.269.351.351 0 0 0-.269-.11zm0 0" fill="url(#g)"/><path d="M15.871 9.133a.375.375 0 0 0-.371.379v.222c0-.207.164-.379.371-.382.102 0 .2.039.27.109a.365.365 0 0 1 .109.273v-.222a.351.351 0 0 0-.11-.27.351.351 0 0 0-.269-.11zm-5.953 0a.373.373 0 0 0-.371.379c0 .062 0 .125.004.187a.374.374 0 0 1 .746.035c0 1.922.476 3.293 1.379 4.2.844.843 2.101 1.304 3.824 1.367v-.223c-1.723-.058-2.98-.523-3.824-1.367-.903-.902-1.38-2.277-1.38-4.2a.365.365 0 0 0-.108-.269.351.351 0 0 0-.27-.11zm11.906 5.953a.372.372 0 0 0-.367.379c0 1.922-.477 3.297-1.379 4.2-.844.843-2.101 1.308-3.828 1.366v.223c1.727-.059 2.984-.524 3.828-1.367.902-.903 1.379-2.278 1.379-4.2a.37.37 0 0 1 .355-.378c.2-.012.375.14.391.34 0-.06.004-.122.004-.184 0-.102-.039-.2-.113-.27a.351.351 0 0 0-.27-.11zm0 0" fill="#fff" fill-opacity=".314"/><path d="M15.871 9.133a.375.375 0 0 0-.371.379v5.566c-1.723-.059-2.98-.523-3.824-1.367-.903-.902-1.38-2.277-1.38-4.2a.365.365 0 0 0-.109-.269.351.351 0 0 0-.27-.11.373.373 0 0 0-.37.38c0 2.047.52 3.648 1.598 4.73 1.015 1.012 2.488 1.531 4.355 1.594v8.23c0 .133.07.258.187.328a.372.372 0 1 0 .562-.328l.001-2.277c1.871-.062 3.344-.578 4.355-1.594 1.082-1.082 1.602-2.683 1.602-4.73a.374.374 0 0 0-.188-.328.367.367 0 0 0-.378 0 .363.363 0 0 0-.184.328c0 1.922-.477 3.297-1.379 4.199-.844.844-2.101 1.309-3.828 1.367V9.511a.351.351 0 0 0-.11-.269.351.351 0 0 0-.269-.11zm0 0" fill="none" stroke-width=".12502586" stroke-linecap="round" stroke-linejoin="round" stroke="#212121"/><path d="M9.55 9.75c0 .016-.003.035-.003.055 0 2.047.52 3.648 1.598 4.73 1.015 1.012 2.488 1.531 4.355 1.59v-.328c-1.867-.063-3.34-.578-4.355-1.594-1.032-1.031-1.547-2.539-1.594-4.453zm12.653 5.953c-.047 1.914-.566 3.422-1.598 4.453-1.011 1.016-2.484 1.532-4.355 1.594v.332c1.871-.062 3.344-.582 4.355-1.594 1.082-1.082 1.602-2.683 1.602-4.73 0-.02-.004-.035-.004-.055zM15.5 24.027v.328c0 .137.07.262.188.332a.385.385 0 0 0 .378 0 .373.373 0 0 0 .184-.332v-.328a.367.367 0 0 1-.184.328.385.385 0 0 1-.378 0 .379.379 0 0 1-.188-.328zm0 0" fill-opacity=".235"/><path d="M15.875 2.8a12.638 12.638 0 0 0-12.66 12.665 12.638 12.638 0 0 0 12.66 12.664 12.64 12.64 0 0 0 12.664-12.664A12.64 12.64 0 0 0 15.875 2.8zm0 .188a12.447 12.447 0 0 1 12.477 12.477A12.447 12.447 0 0 1 15.875 27.94 12.446 12.446 0 0 1 3.402 15.465 12.446 12.446 0 0 1 15.875 2.988zm0 0" fill="#212121"/><path d="M15.875 13.813c.914 0 1.656.738 1.656 1.652a1.654 1.654 0 0 1-3.308 0c0-.914.742-1.652 1.652-1.652zm0 0" fill="url(#h)"/><path d="M15.875 13.813a1.648 1.648 0 0 0-1.633 1.902c.117-.8.801-1.406 1.633-1.406s1.52.605 1.637 1.406a1.649 1.649 0 0 0-1.637-1.902zm0 0" fill="#fefefe"/><path d="M15.875 17.613a1.648 1.648 0 0 1-1.633-1.898c.117.797.801 1.402 1.633 1.402s1.52-.605 1.637-1.402a1.649 1.649 0 0 1-1.637 1.898zm0 0" fill-opacity=".235"/><path d="M15.875 13.812a1.654 1.654 0 1 1-1.652 1.652c0-.913.742-1.652 1.652-1.652zm0 0" fill="none" stroke-width=".18752999999999997" stroke-linecap="round" stroke-linejoin="round" stroke="#212121"/><path d="M15.875 7.61c.914 0 1.656.742 1.656 1.652 0 .914-.742 1.656-1.656 1.656-.91 0-1.652-.742-1.652-1.656 0-.91.742-1.653 1.652-1.653zm0 0" fill="url(#i)"/><path d="M15.875 7.61a1.65 1.65 0 0 0-1.633 1.902c.117-.797.801-1.407 1.633-1.407s1.52.61 1.637 1.407a1.651 1.651 0 0 0-1.637-1.902zm0 0" fill="#fefefe"/><path d="M15.875 11.414a1.651 1.651 0 0 1-1.633-1.902c.117.797.801 1.406 1.633 1.406s1.52-.61 1.637-1.406a1.652 1.652 0 0 1-1.637 1.902zm0 0" fill-opacity=".235"/><path d="M15.875 7.61c.914 0 1.656.742 1.656 1.652 0 .914-.742 1.656-1.656 1.656-.91 0-1.652-.742-1.652-1.656 0-.91.742-1.653 1.652-1.653zm0 0" fill="none" stroke-width=".18752999999999997" stroke-linecap="round" stroke-linejoin="round" stroke="#212121"/><path d="M9.941 7.61a1.654 1.654 0 1 1 0 3.309 1.654 1.654 0 0 1 0-3.31zm0 0" fill="url(#j)"/><path d="M9.941 7.61c-.918 0-1.652.738-1.652 1.652 0 .086.004.168.016.25A1.654 1.654 0 0 1 9.94 8.105c.832 0 1.516.61 1.637 1.407.012-.082.016-.164.016-.25A1.65 1.65 0 0 0 9.94 7.609zm0 0" fill="#fefefe"/><path d="M9.941 11.414A1.649 1.649 0 0 1 8.29 9.758c0-.082.004-.164.016-.246a1.654 1.654 0 0 0 1.636 1.406c.832 0 1.516-.61 1.637-1.406.012.082.016.164.016.246 0 .918-.739 1.656-1.653 1.656zm0 0" fill-opacity=".235"/><path d="M9.941 7.61a1.654 1.654 0 1 1 0 3.309 1.654 1.654 0 0 1 0-3.31zm0 0" fill="none" stroke-width=".18752999999999997" stroke-linecap="round" stroke-linejoin="round" stroke="#212121"/><path d="M15.875 19.516a1.654 1.654 0 1 1 0 0zm0 0" fill="url(#k)"/><path d="M15.875 19.516a1.651 1.651 0 0 0-1.633 1.902c.117-.797.801-1.406 1.633-1.406s1.52.61 1.637 1.406a1.652 1.652 0 0 0-1.637-1.902zm0 0" fill="#fefefe"/><path d="M15.875 23.32a1.65 1.65 0 0 1-1.633-1.902c.117.797.801 1.406 1.633 1.406s1.52-.61 1.637-1.406a1.651 1.651 0 0 1-1.637 1.902zm0 0" fill-opacity=".235"/><path d="M15.875 19.516a1.654 1.654 0 1 1 0 0zm0 0" fill="none" stroke-width=".18752999999999997" stroke-linecap="round" stroke-linejoin="round" stroke="#212121"/><path d="M21.832 13.813a1.653 1.653 0 0 1 0 3.304 1.654 1.654 0 0 1-1.656-1.652c0-.914.742-1.652 1.656-1.652zm0 0" fill="url(#l)"/><path d="M21.832 13.813a1.649 1.649 0 0 0-1.637 1.902c.117-.8.805-1.406 1.637-1.406.828 0 1.516.605 1.633 1.406a1.648 1.648 0 0 0-1.633-1.902zm0 0" fill="#fefefe"/><path d="M21.832 17.613a1.649 1.649 0 0 1-1.637-1.898 1.647 1.647 0 0 0 1.637 1.402c.828 0 1.516-.605 1.633-1.402a1.648 1.648 0 0 1-1.633 1.898zm0 0" fill-opacity=".235"/><path d="M21.832 13.813a1.653 1.653 0 0 1 0 3.304 1.654 1.654 0 0 1-1.656-1.652c0-.914.742-1.652 1.656-1.652zm0 0" fill="none" stroke-width=".18752999999999997" stroke-linecap="round" stroke-linejoin="round" stroke="#212121"/></svg>