<?xml version="1.0" encoding="UTF-8"?>
<svg xmlns="http://www.w3.org/2000/svg" xmlns:xlink="http://www.w3.org/1999/xlink" width="32pt" height="32pt" viewBox="0 0 32 32" version="1.1">
<defs>
<radialGradient id="radial0" gradientUnits="userSpaceOnUse" cx="450.90894" cy="189.57936" fx="450.90894" fy="189.57936" r="21.166656" gradientTransform="matrix(0.000000130628,-0.0781325,-0.105479,-0.000000101539,35.95577,63.595332)">
<stop offset="0" style="stop-color:rgb(0%,0%,0%);stop-opacity:0.313725;"/>
<stop offset="0.222222" style="stop-color:rgb(0%,0%,0%);stop-opacity:0.27451;"/>
<stop offset="1" style="stop-color:rgb(0%,0%,0%);stop-opacity:0;"/>
</radialGradient>
<radialGradient id="radial1" gradientUnits="userSpaceOnUse" cx="450.90894" cy="189.57936" fx="450.90894" fy="189.57936" r="21.166656" gradientTransform="matrix(-0.000000130628,0.0781325,0.105479,0.000000101539,-4.202715,-7.527481)">
<stop offset="0" style="stop-color:rgb(0%,0%,0%);stop-opacity:0.313725;"/>
<stop offset="0.222222" style="stop-color:rgb(0%,0%,0%);stop-opacity:0.27451;"/>
<stop offset="1" style="stop-color:rgb(0%,0%,0%);stop-opacity:0;"/>
</radialGradient>
<radialGradient id="radial2" gradientUnits="userSpaceOnUse" cx="450.90894" cy="189.57936" fx="450.90894" fy="189.57936" r="21.166656" gradientTransform="matrix(-0.000000130628,-0.0781325,0.105479,-0.000000101539,-4.202715,63.595332)">
<stop offset="0" style="stop-color:rgb(0%,0%,0%);stop-opacity:0.313725;"/>
<stop offset="0.222222" style="stop-color:rgb(0%,0%,0%);stop-opacity:0.27451;"/>
<stop offset="1" style="stop-color:rgb(0%,0%,0%);stop-opacity:0;"/>
</radialGradient>
<radialGradient id="radial3" gradientUnits="userSpaceOnUse" cx="450.90894" cy="189.57936" fx="450.90894" fy="189.57936" r="21.166656" gradientTransform="matrix(0.000000130628,0.0781325,-0.105479,0.000000101539,35.955769,-7.527482)">
<stop offset="0" style="stop-color:rgb(0%,0%,0%);stop-opacity:0.313725;"/>
<stop offset="0.222222" style="stop-color:rgb(0%,0%,0%);stop-opacity:0.27451;"/>
<stop offset="1" style="stop-color:rgb(0%,0%,0%);stop-opacity:0;"/>
</radialGradient>
<linearGradient id="linear0" gradientUnits="userSpaceOnUse" x1="255.32306" y1="233.5" x2="255.32304" y2="254.66666" gradientTransform="matrix(0.00190858,0,0,0.062506,15.389212,13.438784)">
<stop offset="0" style="stop-color:rgb(0%,0%,0%);stop-opacity:0.27451;"/>
<stop offset="1" style="stop-color:rgb(0%,0%,0%);stop-opacity:0;"/>
</linearGradient>
<linearGradient id="linear1" gradientUnits="userSpaceOnUse" x1="254" y1="233.5" x2="254" y2="-168.66666" gradientTransform="matrix(0.062506,0,0,0.062506,0,13.438783)">
<stop offset="0" style="stop-color:rgb(40%,73.333333%,41.568627%);stop-opacity:1;"/>
<stop offset="1" style="stop-color:rgb(50.588235%,78.039216%,51.764706%);stop-opacity:1;"/>
</linearGradient>
<linearGradient id="linear2" gradientUnits="userSpaceOnUse" x1="500" y1="495.1181" x2="500" y2="775.1181" gradientTransform="matrix(0.016538,0,0,0.016538,0,0)">
<stop offset="0" style="stop-color:rgb(38.039216%,38.039216%,38.039216%);stop-opacity:1;"/>
<stop offset="1" style="stop-color:rgb(25.882353%,25.882353%,25.882353%);stop-opacity:1;"/>
</linearGradient>
<linearGradient id="linear3" gradientUnits="userSpaceOnUse" x1="254" y1="-4.625005" x2="254" y2="90.625008" gradientTransform="matrix(0.0416706,0,0,0.0416706,5.292174,14.334702)">
<stop offset="0" style="stop-color:rgb(38.039216%,38.039216%,38.039216%);stop-opacity:1;"/>
<stop offset="1" style="stop-color:rgb(25.882353%,25.882353%,25.882353%);stop-opacity:1;"/>
</linearGradient>
<radialGradient id="radial4" gradientUnits="userSpaceOnUse" cx="253.99998" cy="42.999992" fx="253.99998" fy="42.999992" r="31.749994" gradientTransform="matrix(0.062506,0,0,0.062506,0,13.438783)">
<stop offset="0" style="stop-color:rgb(100%,100%,100%);stop-opacity:0.117647;"/>
<stop offset="1" style="stop-color:rgb(94.509804%,94.509804%,94.509804%);stop-opacity:0;"/>
</radialGradient>
<linearGradient id="linear4" gradientUnits="userSpaceOnUse" x1="256.64584" y1="-20.5" x2="256.64584" y2="-62.833332" gradientTransform="matrix(0.0390662,0,0,0.0390662,5.953697,12.462127)">
<stop offset="0" style="stop-color:rgb(38.039216%,38.039216%,38.039216%);stop-opacity:1;"/>
<stop offset="1" style="stop-color:rgb(25.882353%,25.882353%,25.882353%);stop-opacity:1;"/>
</linearGradient>
</defs>
<g id="surface1">
<path style=" stroke:none;fill-rule:nonzero;fill:url(#radial0);" d="M 16.207031 28.035156 L 18.191406 28.035156 L 18.191406 26.710938 L 16.207031 26.710938 Z M 16.207031 28.035156 "/>
<path style=" stroke:none;fill-rule:nonzero;fill:url(#radial1);" d="M 15.546875 28.035156 L 13.5625 28.035156 L 13.5625 29.355469 L 15.546875 29.355469 Z M 15.546875 28.035156 "/>
<path style=" stroke:none;fill-rule:nonzero;fill:url(#radial2);" d="M 15.546875 28.035156 L 13.5625 28.035156 L 13.5625 26.710938 L 15.546875 26.710938 Z M 15.546875 28.035156 "/>
<path style=" stroke:none;fill-rule:nonzero;fill:url(#radial3);" d="M 16.207031 28.035156 L 18.191406 28.035156 L 18.191406 29.355469 L 16.207031 29.355469 Z M 16.207031 28.035156 "/>
<path style=" stroke:none;fill-rule:nonzero;fill:url(#linear0);" d="M 15.546875 27.703125 L 16.207031 27.703125 L 16.207031 29.355469 L 15.546875 29.355469 Z M 15.546875 27.703125 "/>
<path style=" stroke:none;fill-rule:nonzero;fill:url(#linear1);" d="M 26.109375 6.203125 C 26.109375 4.878906 21.003906 4.757812 21.003906 4.757812 C 20.15625 2.894531 17.179688 2.894531 15.910156 2.902344 C 14.535156 2.894531 11.433594 3.320312 10.710938 4.757812 C 10.710938 4.757812 5.601562 4.878906 5.601562 6.203125 C 2.445312 7.234375 2.878906 15.234375 2.878906 16.367188 C 2.878906 17.5 3.359375 22.375 5.214844 22.375 C 7.070312 22.375 8.375 15.265625 8.375 15.265625 C 8.375 15.265625 11.601562 14.957031 11.980469 16.984375 C 12.359375 19.011719 13.257812 28.042969 15.804688 28.042969 L 15.90625 28.042969 C 18.453125 28.042969 19.355469 19.011719 19.730469 16.984375 C 20.109375 14.957031 23.339844 15.265625 23.339844 15.265625 C 23.339844 15.265625 24.644531 22.375 26.5 22.375 C 28.351562 22.375 28.832031 17.5 28.832031 16.367188 C 28.832031 15.234375 29.269531 7.234375 26.109375 6.203125 Z M 26.109375 6.203125 "/>
<path style=" stroke:none;fill-rule:nonzero;fill:rgb(0%,0%,0%);fill-opacity:0.235294;" d="M 28.886719 14.570312 C 28.886719 15.246094 28.867188 15.757812 28.867188 15.988281 C 28.867188 17.121094 28.386719 21.996094 26.53125 21.996094 C 24.679688 21.996094 23.375 14.886719 23.375 14.886719 C 23.375 14.886719 20.144531 14.578125 19.765625 16.605469 C 19.390625 18.632812 18.488281 27.664062 15.941406 27.664062 L 15.839844 27.664062 C 13.292969 27.664062 12.394531 18.632812 12.015625 16.605469 C 11.636719 14.578125 8.410156 14.886719 8.410156 14.886719 C 8.410156 14.886719 7.105469 21.996094 5.25 21.996094 C 3.394531 21.996094 2.914062 17.121094 2.914062 15.988281 C 2.914062 15.757812 2.898438 15.25 2.894531 14.574219 C 2.890625 15.390625 2.914062 16.011719 2.914062 16.269531 C 2.914062 17.402344 3.394531 22.28125 5.25 22.28125 C 7.105469 22.28125 8.410156 15.171875 8.410156 15.171875 C 8.410156 15.171875 11.636719 14.863281 12.015625 16.886719 C 12.394531 18.914062 13.292969 27.949219 15.839844 27.949219 L 15.941406 27.949219 C 18.488281 27.949219 19.390625 18.914062 19.765625 16.886719 C 20.144531 14.863281 23.375 15.171875 23.375 15.171875 C 23.375 15.171875 24.679688 22.28125 26.53125 22.28125 C 28.386719 22.28125 28.867188 17.402344 28.867188 16.269531 C 28.867188 16.011719 28.890625 15.386719 28.886719 14.570312 Z M 28.886719 14.570312 "/>
<path style=" stroke:none;fill-rule:nonzero;fill:rgb(87.843137%,87.843137%,87.843137%);fill-opacity:1;" d="M 8.269531 7.527344 C 9.914062 7.527344 11.246094 8.859375 11.246094 10.503906 C 11.246094 12.148438 9.914062 13.480469 8.269531 13.480469 C 6.625 13.480469 5.292969 12.148438 5.292969 10.503906 C 5.292969 8.859375 6.625 7.527344 8.269531 7.527344 Z M 8.269531 7.527344 "/>
<path style=" stroke:none;fill-rule:nonzero;fill:rgb(87.843137%,87.843137%,87.843137%);fill-opacity:1;" d="M 15.875 13.148438 C 17.519531 13.148438 18.851562 14.484375 18.851562 16.125 C 18.851562 17.769531 17.519531 19.101562 15.875 19.101562 C 14.234375 19.101562 12.898438 17.769531 12.898438 16.125 C 12.898438 14.484375 14.234375 13.148438 15.875 13.148438 Z M 15.875 13.148438 "/>
<path style=" stroke:none;fill-rule:nonzero;fill:rgb(87.843137%,87.843137%,87.843137%);fill-opacity:1;" d="M 15.875 9.511719 C 16.605469 9.511719 17.199219 10.105469 17.199219 10.835938 C 17.199219 11.566406 16.605469 12.15625 15.875 12.15625 C 15.144531 12.15625 14.554688 11.566406 14.554688 10.835938 C 14.554688 10.105469 15.144531 9.511719 15.875 9.511719 Z M 15.875 9.511719 "/>
<path style=" stroke:none;fill-rule:nonzero;fill:rgb(87.843137%,87.843137%,87.843137%);fill-opacity:1;" d="M 20.839844 9.84375 C 21.386719 9.84375 21.832031 10.285156 21.832031 10.835938 C 21.832031 11.382812 21.386719 11.828125 20.839844 11.828125 C 20.289062 11.828125 19.84375 11.382812 19.84375 10.835938 C 19.84375 10.285156 20.289062 9.84375 20.839844 9.84375 Z M 20.839844 9.84375 "/>
<path style=" stroke:none;fill-rule:nonzero;fill:rgb(87.843137%,87.843137%,87.843137%);fill-opacity:1;" d="M 22.824219 11.828125 C 23.371094 11.828125 23.816406 12.269531 23.816406 12.820312 C 23.816406 13.367188 23.371094 13.8125 22.824219 13.8125 C 22.273438 13.8125 21.832031 13.367188 21.832031 12.820312 C 21.832031 12.269531 22.273438 11.828125 22.824219 11.828125 Z M 22.824219 11.828125 "/>
<path style=" stroke:none;fill-rule:nonzero;fill:rgb(87.843137%,87.843137%,87.843137%);fill-opacity:1;" d="M 24.476562 7.195312 C 24.933594 7.195312 25.304688 7.566406 25.304688 8.023438 C 25.304688 8.480469 24.933594 8.851562 24.476562 8.851562 C 24.019531 8.851562 23.648438 8.480469 23.648438 8.023438 C 23.648438 7.566406 24.019531 7.195312 24.476562 7.195312 Z M 24.476562 7.195312 "/>
<path style=" stroke:none;fill-rule:nonzero;fill:rgb(87.843137%,87.843137%,87.843137%);fill-opacity:1;" d="M 24.476562 10.171875 C 24.933594 10.171875 25.304688 10.542969 25.304688 11 C 25.304688 11.457031 24.933594 11.828125 24.476562 11.828125 C 24.019531 11.828125 23.648438 11.457031 23.648438 11 C 23.648438 10.542969 24.019531 10.171875 24.476562 10.171875 Z M 24.476562 10.171875 "/>
<path style=" stroke:none;fill-rule:nonzero;fill:rgb(87.843137%,87.843137%,87.843137%);fill-opacity:1;" d="M 22.988281 8.519531 C 23.445312 8.519531 23.816406 8.890625 23.816406 9.347656 C 23.816406 9.800781 23.445312 10.171875 22.988281 10.171875 C 22.53125 10.171875 22.160156 9.800781 22.160156 9.347656 C 22.160156 8.890625 22.53125 8.519531 22.988281 8.519531 Z M 22.988281 8.519531 "/>
<path style=" stroke:none;fill-rule:nonzero;fill:rgb(87.843137%,87.843137%,87.843137%);fill-opacity:1;" d="M 25.964844 8.519531 C 26.421875 8.519531 26.792969 8.890625 26.792969 9.347656 C 26.792969 9.800781 26.421875 10.171875 25.964844 10.171875 C 25.507812 10.171875 25.136719 9.800781 25.136719 9.347656 C 25.136719 8.890625 25.507812 8.519531 25.964844 8.519531 Z M 25.964844 8.519531 "/>
<path style=" stroke:none;fill-rule:nonzero;fill:rgb(100%,100%,100%);fill-opacity:0.392157;" d="M 16.164062 2.980469 C 16.074219 2.980469 15.988281 2.980469 15.910156 2.980469 C 14.535156 2.972656 11.433594 3.398438 10.710938 4.835938 C 10.710938 4.835938 5.601562 4.957031 5.601562 6.28125 C 3.09375 7.097656 2.851562 12.304688 2.859375 14.984375 C 2.867188 12.25 3.160156 7.28125 5.601562 6.484375 C 5.601562 5.164062 10.710938 5.039062 10.710938 5.039062 C 11.433594 3.601562 14.535156 3.179688 15.910156 3.183594 C 17.179688 3.179688 20.15625 3.179688 21.003906 5.039062 C 21.003906 5.039062 26.109375 5.164062 26.109375 6.484375 C 28.554688 7.28125 28.847656 12.246094 28.855469 14.980469 C 28.859375 12.296875 28.617188 7.097656 26.109375 6.28125 C 26.109375 4.957031 21.003906 4.835938 21.003906 4.835938 C 20.210938 3.089844 17.542969 2.980469 16.164062 2.980469 Z M 16.164062 2.980469 "/>
<path style="fill:none;stroke-width:3;stroke-linecap:butt;stroke-linejoin:miter;stroke:rgb(12.941176%,12.941176%,12.941176%);stroke-opacity:1;stroke-miterlimit:4;" d="M 417.710111 -115.759477 C 417.710111 -136.944954 336.030411 -138.882269 336.030411 -138.882269 C 322.469206 -168.691922 274.848753 -168.691922 254.538193 -168.566934 C 232.540294 -168.691922 182.920032 -161.880073 171.358636 -138.882269 C 171.358636 -138.882269 89.616442 -136.944954 89.616442 -115.759477 C 39.121264 -99.261053 46.058102 28.726725 46.058102 46.849995 C 46.058102 64.973264 53.744868 142.965816 83.429533 142.965816 C 113.114198 142.965816 133.987205 29.226678 133.987205 29.226678 C 133.987205 29.226678 185.607275 24.289649 191.669197 56.724052 C 197.731118 89.158454 212.104745 233.644657 252.850854 233.644657 L 254.475699 233.644657 C 295.221808 233.644657 309.657929 89.158454 315.657356 56.724052 C 321.719277 24.289649 373.401842 29.226678 373.401842 29.226678 C 373.401842 29.226678 394.274849 142.965816 423.959514 142.965816 C 453.581685 142.965816 461.268451 64.973264 461.268451 46.849995 C 461.268451 28.726725 468.267783 -99.261053 417.710111 -115.759477 Z M 417.710111 -115.759477 " transform="matrix(0.062506,0,0,0.062506,0,13.438783)"/>
<path style=" stroke:none;fill-rule:nonzero;fill:rgb(0%,0%,0%);fill-opacity:0.235294;" d="M 8.269531 7.527344 C 6.621094 7.527344 5.292969 8.855469 5.292969 10.503906 C 5.292969 10.558594 5.292969 10.613281 5.296875 10.667969 C 5.382812 9.097656 6.675781 7.859375 8.269531 7.859375 C 9.863281 7.859375 11.15625 9.097656 11.242188 10.667969 C 11.246094 10.613281 11.246094 10.558594 11.246094 10.503906 C 11.246094 8.855469 9.917969 7.527344 8.269531 7.527344 Z M 8.269531 7.527344 "/>
<path style=" stroke:none;fill-rule:nonzero;fill:rgb(100%,100%,100%);fill-opacity:0.392157;" d="M 8.269531 13.8125 C 6.621094 13.8125 5.292969 12.484375 5.292969 10.835938 C 5.292969 10.777344 5.292969 10.722656 5.296875 10.667969 C 5.382812 12.242188 6.675781 13.480469 8.269531 13.480469 C 9.863281 13.480469 11.15625 12.242188 11.242188 10.667969 C 11.246094 10.722656 11.246094 10.777344 11.246094 10.835938 C 11.246094 12.484375 9.917969 13.8125 8.269531 13.8125 Z M 8.269531 13.8125 "/>
<path style="fill:none;stroke-width:3;stroke-linecap:round;stroke-linejoin:round;stroke:rgb(12.941176%,12.941176%,12.941176%);stroke-opacity:1;stroke-miterlimit:4;" d="M 132.299866 -94.574 C 158.609854 -94.574 179.920318 -73.263535 179.920318 -46.953548 C 179.920318 -20.64356 158.609854 0.666905 132.299866 0.666905 C 105.989878 0.666905 84.679414 -20.64356 84.679414 -46.953548 C 84.679414 -73.263535 105.989878 -94.574 132.299866 -94.574 Z M 132.299866 -94.574 " transform="matrix(0.062506,0,0,0.062506,0,13.438783)"/>
<path style=" stroke:none;fill-rule:nonzero;fill:url(#linear2);" d="M 7.9375 8.1875 C 7.753906 8.1875 7.609375 8.335938 7.609375 8.519531 L 7.609375 9.84375 L 6.285156 9.84375 C 6.101562 9.84375 5.953125 9.988281 5.953125 10.171875 L 5.953125 10.835938 C 5.953125 11.019531 6.101562 11.164062 6.285156 11.164062 L 7.609375 11.164062 L 7.609375 12.488281 C 7.609375 12.671875 7.753906 12.820312 7.9375 12.820312 L 8.601562 12.820312 C 8.78125 12.820312 8.929688 12.671875 8.929688 12.488281 L 8.929688 11.164062 L 10.253906 11.164062 C 10.4375 11.164062 10.585938 11.019531 10.585938 10.835938 L 10.585938 10.171875 C 10.585938 9.988281 10.4375 9.84375 10.253906 9.84375 L 8.929688 9.84375 L 8.929688 8.519531 C 8.929688 8.335938 8.78125 8.1875 8.601562 8.1875 Z M 7.9375 8.1875 "/>
<path style=" stroke:none;fill-rule:nonzero;fill:rgb(100%,100%,100%);fill-opacity:0.392157;" d="M 7.9375 8.269531 C 7.753906 8.269531 7.609375 8.417969 7.609375 8.601562 L 7.609375 8.765625 C 7.609375 8.582031 7.753906 8.4375 7.9375 8.4375 L 8.601562 8.4375 C 8.78125 8.4375 8.929688 8.582031 8.929688 8.765625 L 8.929688 8.601562 C 8.929688 8.417969 8.78125 8.269531 8.601562 8.269531 Z M 6.285156 9.925781 C 6.101562 9.925781 5.953125 10.074219 5.953125 10.253906 L 5.953125 10.421875 C 5.953125 10.238281 6.101562 10.089844 6.285156 10.089844 L 7.609375 10.089844 L 7.609375 9.925781 Z M 8.929688 9.925781 L 8.929688 10.089844 L 10.253906 10.089844 C 10.4375 10.089844 10.585938 10.238281 10.585938 10.421875 L 10.585938 10.253906 C 10.585938 10.074219 10.4375 9.925781 10.253906 9.925781 Z M 8.929688 9.925781 "/>
<path style=" stroke:none;fill-rule:nonzero;fill:rgb(0%,0%,0%);fill-opacity:0.235294;" d="M 7.9375 13.066406 C 7.753906 13.066406 7.609375 12.917969 7.609375 12.734375 L 7.609375 12.570312 C 7.609375 12.753906 7.753906 12.902344 7.9375 12.902344 L 8.601562 12.902344 C 8.78125 12.902344 8.929688 12.753906 8.929688 12.570312 L 8.929688 12.734375 C 8.929688 12.917969 8.78125 13.066406 8.601562 13.066406 Z M 6.285156 11.414062 C 6.101562 11.414062 5.953125 11.265625 5.953125 11.082031 L 5.953125 10.917969 C 5.953125 11.101562 6.101562 11.246094 6.285156 11.246094 L 7.609375 11.246094 L 7.609375 11.414062 Z M 8.929688 11.414062 L 8.929688 11.246094 L 10.253906 11.246094 C 10.4375 11.246094 10.585938 11.101562 10.585938 10.917969 L 10.585938 11.082031 C 10.585938 11.265625 10.4375 11.414062 10.253906 11.414062 Z M 8.929688 11.414062 "/>
<path style="fill:none;stroke-width:11.338583;stroke-linecap:round;stroke-linejoin:round;stroke:rgb(12.941176%,12.941176%,12.941176%);stroke-opacity:1;stroke-miterlimit:4;" d="M 479.954173 495.07084 C 468.85287 495.07084 460.113547 504.046361 460.113547 515.147663 L 460.113547 595.218757 L 380.042453 595.218757 C 368.94115 595.218757 359.96563 603.958081 359.96563 615.059383 L 359.96563 655.213029 C 359.96563 666.314331 368.94115 675.053654 380.042453 675.053654 L 460.113547 675.053654 L 460.113547 755.124749 C 460.113547 766.226051 468.85287 775.201572 479.954173 775.201572 L 520.107819 775.201572 C 530.972923 775.201572 539.948444 766.226051 539.948444 755.124749 L 539.948444 675.053654 L 620.019539 675.053654 C 631.120841 675.053654 640.096362 666.314331 640.096362 655.213029 L 640.096362 615.059383 C 640.096362 603.958081 631.120841 595.218757 620.019539 595.218757 L 539.948444 595.218757 L 539.948444 515.147663 C 539.948444 504.046361 530.972923 495.07084 520.107819 495.07084 Z M 479.954173 495.07084 " transform="matrix(0.016538,0,0,0.016538,0,0)"/>
<path style=" stroke:none;fill-rule:nonzero;fill:rgb(0%,0%,0%);fill-opacity:0.235294;" d="M 15.875 13.148438 C 14.226562 13.148438 12.898438 14.476562 12.898438 16.125 C 12.898438 16.167969 12.902344 16.210938 12.902344 16.25 C 12.96875 14.660156 14.269531 13.398438 15.875 13.398438 C 17.484375 13.398438 18.785156 14.660156 18.851562 16.25 C 18.851562 16.210938 18.851562 16.167969 18.851562 16.125 C 18.851562 14.476562 17.527344 13.148438 15.875 13.148438 Z M 15.875 13.148438 "/>
<path style=" stroke:none;fill-rule:nonzero;fill:rgb(100%,100%,100%);fill-opacity:0.392157;" d="M 15.875 19.433594 C 14.226562 19.433594 12.898438 18.105469 12.898438 16.457031 C 12.898438 16.414062 12.902344 16.375 12.902344 16.332031 C 12.96875 17.925781 14.269531 19.1875 15.875 19.1875 C 17.484375 19.1875 18.785156 17.925781 18.851562 16.332031 C 18.851562 16.375 18.851562 16.414062 18.851562 16.457031 C 18.851562 18.105469 17.527344 19.433594 15.875 19.433594 Z M 15.875 19.433594 "/>
<path style="fill:none;stroke-width:3;stroke-linecap:round;stroke-linejoin:round;stroke:rgb(12.941176%,12.941176%,12.941176%);stroke-opacity:1;stroke-miterlimit:4;" d="M 253.975747 -4.645088 C 280.285734 -4.645088 301.596199 16.727871 301.596199 42.975365 C 301.596199 69.285352 280.285734 90.595817 253.975747 90.595817 C 227.728253 90.595817 206.355294 69.285352 206.355294 42.975365 C 206.355294 16.727871 227.728253 -4.645088 253.975747 -4.645088 Z M 253.975747 -4.645088 " transform="matrix(0.062506,0,0,0.062506,0,13.438783)"/>
<path style=" stroke:none;fill-rule:nonzero;fill:url(#linear3);" d="M 15.875 14.140625 C 16.972656 14.140625 17.859375 15.03125 17.859375 16.125 C 17.859375 17.222656 16.972656 18.109375 15.875 18.109375 C 14.78125 18.109375 13.890625 17.222656 13.890625 16.125 C 13.890625 15.03125 14.78125 14.140625 15.875 14.140625 Z M 15.875 14.140625 "/>
<path style=" stroke:none;fill-rule:nonzero;fill:rgb(100%,100%,100%);fill-opacity:0.392157;" d="M 15.875 14.140625 C 14.777344 14.140625 13.890625 15.027344 13.890625 16.125 C 13.890625 16.152344 13.894531 16.183594 13.894531 16.210938 C 13.9375 15.148438 14.804688 14.308594 15.875 14.308594 C 16.949219 14.308594 17.816406 15.148438 17.859375 16.210938 C 17.859375 16.183594 17.859375 16.152344 17.859375 16.125 C 17.859375 15.027344 16.976562 14.140625 15.875 14.140625 Z M 15.875 14.140625 "/>
<path style=" stroke:none;fill-rule:nonzero;fill:rgb(0%,0%,0%);fill-opacity:0.235294;" d="M 13.894531 16.34375 C 13.894531 16.382812 13.890625 16.425781 13.890625 16.464844 C 13.890625 17.566406 14.777344 18.449219 15.875 18.449219 C 16.976562 18.449219 17.859375 17.566406 17.859375 16.464844 C 17.859375 16.425781 17.859375 16.382812 17.855469 16.34375 C 17.792969 17.382812 16.933594 18.203125 15.875 18.203125 C 14.820312 18.203125 13.960938 17.382812 13.894531 16.34375 Z M 13.894531 16.34375 "/>
<path style="fill:none;stroke-width:3;stroke-linecap:round;stroke-linejoin:round;stroke:rgb(12.941176%,12.941176%,12.941176%);stroke-opacity:1;stroke-miterlimit:4;" d="M 253.975747 11.228396 C 271.53657 11.228396 285.722715 25.477036 285.722715 42.975365 C 285.722715 60.536188 271.53657 74.722333 253.975747 74.722333 C 236.477418 74.722333 222.228778 60.536188 222.228778 42.975365 C 222.228778 25.477036 236.477418 11.228396 253.975747 11.228396 Z M 253.975747 11.228396 " transform="matrix(0.062506,0,0,0.062506,0,13.438783)"/>
<path style=" stroke:none;fill-rule:nonzero;fill:url(#radial4);" d="M 15.875 14.140625 C 16.972656 14.140625 17.859375 15.03125 17.859375 16.125 C 17.859375 17.222656 16.972656 18.109375 15.875 18.109375 C 14.78125 18.109375 13.890625 17.222656 13.890625 16.125 C 13.890625 15.03125 14.78125 14.140625 15.875 14.140625 Z M 15.875 14.140625 "/>
<path style=" stroke:none;fill-rule:nonzero;fill:rgb(0%,0%,0%);fill-opacity:0.235294;" d="M 15.875 9.511719 C 15.144531 9.511719 14.554688 10.101562 14.554688 10.835938 C 14.554688 10.863281 14.554688 10.890625 14.554688 10.917969 C 14.597656 10.222656 15.171875 9.675781 15.875 9.675781 C 16.582031 9.675781 17.15625 10.222656 17.195312 10.917969 C 17.199219 10.890625 17.199219 10.863281 17.199219 10.835938 C 17.199219 10.101562 16.609375 9.511719 15.875 9.511719 Z M 15.875 9.511719 "/>
<path style=" stroke:none;fill-rule:nonzero;fill:rgb(100%,100%,100%);fill-opacity:0.392157;" d="M 14.5625 11 C 14.558594 11.054688 14.554688 11.109375 14.554688 11.164062 C 14.554688 11.898438 15.144531 12.488281 15.875 12.488281 C 16.609375 12.488281 17.199219 11.898438 17.199219 11.164062 C 17.199219 11.109375 17.195312 11.054688 17.1875 11 C 17.109375 11.652344 16.554688 12.15625 15.875 12.15625 C 15.199219 12.15625 14.644531 11.652344 14.5625 11 Z M 14.5625 11 "/>
<path style="fill:none;stroke-width:3;stroke-linecap:round;stroke-linejoin:round;stroke:rgb(12.941176%,12.941176%,12.941176%);stroke-opacity:1;stroke-miterlimit:4;" d="M 253.975747 -62.827032 C 265.662131 -62.827032 275.161223 -53.327939 275.161223 -41.641555 C 275.161223 -29.955171 265.662131 -20.518572 253.975747 -20.518572 C 242.289363 -20.518572 232.852764 -29.955171 232.852764 -41.641555 C 232.852764 -53.327939 242.289363 -62.827032 253.975747 -62.827032 Z M 253.975747 -62.827032 " transform="matrix(0.062506,0,0,0.062506,0,13.438783)"/>
<path style=" stroke:none;fill-rule:nonzero;fill:url(#linear4);" d="M 15.875 10.007812 C 16.332031 10.007812 16.703125 10.378906 16.703125 10.835938 C 16.703125 11.292969 16.332031 11.660156 15.875 11.660156 C 15.417969 11.660156 15.050781 11.292969 15.050781 10.835938 C 15.050781 10.378906 15.417969 10.007812 15.875 10.007812 Z M 15.875 10.007812 "/>
<path style=" stroke:none;fill-rule:nonzero;fill:rgb(0%,0%,0%);fill-opacity:0.235294;" d="M 15.054688 10.964844 C 15.050781 10.992188 15.050781 11.019531 15.050781 11.046875 C 15.050781 11.507812 15.417969 11.875 15.875 11.875 C 16.335938 11.875 16.703125 11.507812 16.703125 11.046875 C 16.703125 11.019531 16.703125 10.992188 16.699219 10.964844 C 16.65625 11.386719 16.308594 11.710938 15.875 11.710938 C 15.445312 11.710938 15.09375 11.386719 15.054688 10.964844 Z M 15.054688 10.964844 "/>
<path style=" stroke:none;fill-rule:nonzero;fill:rgb(100%,100%,100%);fill-opacity:0.392157;" d="M 15.875 10.007812 C 15.417969 10.007812 15.050781 10.375 15.050781 10.835938 C 15.050781 10.863281 15.050781 10.890625 15.054688 10.917969 C 15.09375 10.5 15.445312 10.171875 15.875 10.171875 C 16.308594 10.171875 16.65625 10.5 16.699219 10.917969 C 16.703125 10.890625 16.703125 10.863281 16.703125 10.835938 C 16.703125 10.375 16.335938 10.007812 15.875 10.007812 Z M 15.875 10.007812 "/>
<path style="fill:none;stroke-width:3;stroke-linecap:round;stroke-linejoin:round;stroke:rgb(12.941176%,12.941176%,12.941176%);stroke-opacity:1;stroke-miterlimit:4;" d="M 253.975747 -54.89029 C 261.287548 -54.89029 267.224481 -48.953357 267.224481 -41.641555 C 267.224481 -34.329753 261.287548 -28.455314 253.975747 -28.455314 C 246.663945 -28.455314 240.789506 -34.329753 240.789506 -41.641555 C 240.789506 -48.953357 246.663945 -54.89029 253.975747 -54.89029 Z M 253.975747 -54.89029 " transform="matrix(0.062506,0,0,0.062506,0,13.438783)"/>
<path style=" stroke:none;fill-rule:nonzero;fill:rgb(100%,100%,100%);fill-opacity:1;" d="M 20.839844 9.84375 C 20.289062 9.84375 19.84375 10.285156 19.84375 10.835938 C 19.84375 10.863281 19.847656 10.890625 19.847656 10.917969 C 19.890625 10.40625 20.316406 10.007812 20.839844 10.007812 C 21.359375 10.007812 21.785156 10.40625 21.828125 10.917969 C 21.828125 10.890625 21.832031 10.863281 21.832031 10.835938 C 21.832031 10.285156 21.386719 9.84375 20.839844 9.84375 Z M 20.839844 9.84375 "/>
<path style=" stroke:none;fill-rule:nonzero;fill:rgb(100%,100%,100%);fill-opacity:1;" d="M 22.824219 11.828125 C 22.273438 11.828125 21.832031 12.269531 21.832031 12.820312 C 21.832031 12.847656 21.832031 12.875 21.832031 12.902344 C 21.875 12.390625 22.300781 11.992188 22.824219 11.992188 C 23.34375 11.992188 23.769531 12.390625 23.8125 12.902344 C 23.8125 12.875 23.816406 12.847656 23.816406 12.820312 C 23.816406 12.269531 23.371094 11.828125 22.824219 11.828125 Z M 22.824219 11.828125 "/>
<path style=" stroke:none;fill-rule:nonzero;fill:rgb(100%,100%,100%);fill-opacity:1;" d="M 24.476562 7.195312 C 24.019531 7.195312 23.648438 7.566406 23.648438 8.023438 C 23.648438 8.050781 23.652344 8.078125 23.652344 8.105469 C 23.695312 7.6875 24.046875 7.363281 24.476562 7.363281 C 24.90625 7.363281 25.257812 7.6875 25.300781 8.105469 C 25.300781 8.078125 25.304688 8.050781 25.304688 8.023438 C 25.304688 7.566406 24.933594 7.195312 24.476562 7.195312 Z M 24.476562 7.195312 "/>
<path style=" stroke:none;fill-rule:nonzero;fill:rgb(100%,100%,100%);fill-opacity:1;" d="M 24.476562 10.171875 C 24.019531 10.171875 23.648438 10.542969 23.648438 11 C 23.648438 11.027344 23.652344 11.054688 23.652344 11.082031 C 23.695312 10.664062 24.046875 10.339844 24.476562 10.339844 C 24.90625 10.339844 25.257812 10.664062 25.300781 11.082031 C 25.300781 11.054688 25.304688 11.027344 25.304688 11 C 25.304688 10.542969 24.933594 10.171875 24.476562 10.171875 Z M 24.476562 10.171875 "/>
<path style=" stroke:none;fill-rule:nonzero;fill:rgb(100%,100%,100%);fill-opacity:1;" d="M 22.988281 8.519531 C 22.53125 8.519531 22.160156 8.886719 22.160156 9.347656 C 22.160156 9.375 22.164062 9.402344 22.164062 9.429688 C 22.207031 9.007812 22.558594 8.683594 22.988281 8.683594 C 23.417969 8.683594 23.769531 9.007812 23.8125 9.429688 C 23.8125 9.402344 23.816406 9.375 23.816406 9.347656 C 23.816406 8.886719 23.445312 8.519531 22.988281 8.519531 Z M 22.988281 8.519531 "/>
<path style=" stroke:none;fill-rule:nonzero;fill:rgb(100%,100%,100%);fill-opacity:1;" d="M 25.964844 8.519531 C 25.507812 8.519531 25.136719 8.886719 25.136719 9.347656 C 25.136719 9.375 25.140625 9.402344 25.140625 9.429688 C 25.183594 9.007812 25.535156 8.683594 25.964844 8.683594 C 26.394531 8.683594 26.746094 9.007812 26.789062 9.429688 C 26.789062 9.402344 26.792969 9.375 26.792969 9.347656 C 26.792969 8.886719 26.421875 8.519531 25.964844 8.519531 Z M 25.964844 8.519531 "/>
<path style=" stroke:none;fill-rule:nonzero;fill:rgb(0%,0%,0%);fill-opacity:0.235294;" d="M 19.855469 10.957031 C 19.847656 11 19.84375 11.039062 19.84375 11.082031 C 19.84375 11.632812 20.289062 12.074219 20.839844 12.074219 C 21.386719 12.074219 21.832031 11.632812 21.832031 11.082031 C 21.832031 11.039062 21.828125 11 21.824219 10.957031 C 21.761719 11.449219 21.34375 11.828125 20.839844 11.828125 C 20.332031 11.828125 19.914062 11.449219 19.855469 10.957031 Z M 19.855469 10.957031 "/>
<path style=" stroke:none;fill-rule:nonzero;fill:rgb(0%,0%,0%);fill-opacity:0.235294;" d="M 21.839844 12.941406 C 21.832031 12.984375 21.832031 13.023438 21.832031 13.066406 C 21.832031 13.617188 22.273438 14.058594 22.824219 14.058594 C 23.371094 14.058594 23.816406 13.617188 23.816406 13.066406 C 23.816406 13.023438 23.8125 12.984375 23.808594 12.941406 C 23.746094 13.433594 23.332031 13.8125 22.824219 13.8125 C 22.316406 13.8125 21.898438 13.433594 21.839844 12.941406 Z M 21.839844 12.941406 "/>
<path style=" stroke:none;fill-rule:nonzero;fill:rgb(0%,0%,0%);fill-opacity:0.235294;" d="M 23.660156 8.148438 C 23.652344 8.1875 23.648438 8.230469 23.648438 8.269531 C 23.648438 8.730469 24.019531 9.097656 24.476562 9.097656 C 24.933594 9.097656 25.304688 8.730469 25.304688 8.269531 C 25.304688 8.230469 25.300781 8.1875 25.292969 8.148438 C 25.234375 8.546875 24.890625 8.851562 24.476562 8.851562 C 24.058594 8.851562 23.71875 8.546875 23.660156 8.148438 Z M 23.660156 8.148438 "/>
<path style=" stroke:none;fill-rule:nonzero;fill:rgb(0%,0%,0%);fill-opacity:0.235294;" d="M 23.660156 11.125 C 23.652344 11.164062 23.648438 11.207031 23.648438 11.246094 C 23.648438 11.707031 24.019531 12.074219 24.476562 12.074219 C 24.933594 12.074219 25.304688 11.707031 25.304688 11.246094 C 25.304688 11.207031 25.300781 11.164062 25.292969 11.125 C 25.234375 11.523438 24.890625 11.828125 24.476562 11.828125 C 24.058594 11.828125 23.71875 11.523438 23.660156 11.125 Z M 23.660156 11.125 "/>
<path style=" stroke:none;fill-rule:nonzero;fill:rgb(0%,0%,0%);fill-opacity:0.235294;" d="M 22.171875 9.46875 C 22.164062 9.511719 22.160156 9.550781 22.160156 9.59375 C 22.160156 10.050781 22.53125 10.421875 22.988281 10.421875 C 23.445312 10.421875 23.816406 10.050781 23.816406 9.59375 C 23.816406 9.550781 23.8125 9.511719 23.804688 9.46875 C 23.746094 9.867188 23.402344 10.171875 22.988281 10.171875 C 22.570312 10.171875 22.230469 9.867188 22.171875 9.46875 Z M 22.171875 9.46875 "/>
<path style=" stroke:none;fill-rule:nonzero;fill:rgb(0%,0%,0%);fill-opacity:0.235294;" d="M 25.148438 9.46875 C 25.140625 9.511719 25.136719 9.550781 25.136719 9.59375 C 25.136719 10.050781 25.507812 10.421875 25.964844 10.421875 C 26.421875 10.421875 26.792969 10.050781 26.792969 9.59375 C 26.792969 9.550781 26.789062 9.511719 26.78125 9.46875 C 26.722656 9.867188 26.378906 10.171875 25.964844 10.171875 C 25.546875 10.171875 25.207031 9.867188 25.148438 9.46875 Z M 25.148438 9.46875 "/>
<path style="fill:none;stroke-width:3;stroke-linecap:round;stroke-linejoin:round;stroke:rgb(12.941176%,12.941176%,12.941176%);stroke-opacity:1;stroke-miterlimit:4;" d="M 333.405661 -57.515039 C 342.154826 -57.515039 349.279146 -50.453213 349.279146 -41.641555 C 349.279146 -32.89239 342.154826 -25.768071 333.405661 -25.768071 C 324.594003 -25.768071 317.469683 -32.89239 317.469683 -41.641555 C 317.469683 -50.453213 324.594003 -57.515039 333.405661 -57.515039 Z M 333.405661 -57.515039 " transform="matrix(0.062506,0,0,0.062506,0,13.438783)"/>
<path style="fill:none;stroke-width:3;stroke-linecap:round;stroke-linejoin:round;stroke:rgb(12.941176%,12.941176%,12.941176%);stroke-opacity:1;stroke-miterlimit:4;" d="M 365.15263 -25.768071 C 373.901794 -25.768071 381.026114 -18.706245 381.026114 -9.894587 C 381.026114 -1.145422 373.901794 5.978898 365.15263 5.978898 C 356.340971 5.978898 349.279146 -1.145422 349.279146 -9.894587 C 349.279146 -18.706245 356.340971 -25.768071 365.15263 -25.768071 Z M 365.15263 -25.768071 " transform="matrix(0.062506,0,0,0.062506,0,13.438783)"/>
<path style="fill:none;stroke-width:3;stroke-linecap:round;stroke-linejoin:round;stroke:rgb(12.941176%,12.941176%,12.941176%);stroke-opacity:1;stroke-miterlimit:4;" d="M 391.587605 -99.885993 C 398.899407 -99.885993 404.83634 -93.94906 404.83634 -86.637258 C 404.83634 -79.325456 398.899407 -73.388523 391.587605 -73.388523 C 384.275803 -73.388523 378.33887 -79.325456 378.33887 -86.637258 C 378.33887 -93.94906 384.275803 -99.885993 391.587605 -99.885993 Z M 391.587605 -99.885993 " transform="matrix(0.062506,0,0,0.062506,0,13.438783)"/>
<path style="fill:none;stroke-width:3;stroke-linecap:round;stroke-linejoin:round;stroke:rgb(12.941176%,12.941176%,12.941176%);stroke-opacity:1;stroke-miterlimit:4;" d="M 391.587605 -52.26554 C 398.899407 -52.26554 404.83634 -46.328607 404.83634 -39.016806 C 404.83634 -31.705004 398.899407 -25.768071 391.587605 -25.768071 C 384.275803 -25.768071 378.33887 -31.705004 378.33887 -39.016806 C 378.33887 -46.328607 384.275803 -52.26554 391.587605 -52.26554 Z M 391.587605 -52.26554 " transform="matrix(0.062506,0,0,0.062506,0,13.438783)"/>
<path style="fill:none;stroke-width:3;stroke-linecap:round;stroke-linejoin:round;stroke:rgb(12.941176%,12.941176%,12.941176%);stroke-opacity:1;stroke-miterlimit:4;" d="M 367.777379 -78.700516 C 375.089181 -78.700516 381.026114 -72.763583 381.026114 -65.451781 C 381.026114 -58.202473 375.089181 -52.26554 367.777379 -52.26554 C 360.465577 -52.26554 354.528644 -58.202473 354.528644 -65.451781 C 354.528644 -72.763583 360.465577 -78.700516 367.777379 -78.700516 Z M 367.777379 -78.700516 " transform="matrix(0.062506,0,0,0.062506,0,13.438783)"/>
<path style="fill:none;stroke-width:3;stroke-linecap:round;stroke-linejoin:round;stroke:rgb(12.941176%,12.941176%,12.941176%);stroke-opacity:1;stroke-miterlimit:4;" d="M 415.397831 -78.700516 C 422.709633 -78.700516 428.646566 -72.763583 428.646566 -65.451781 C 428.646566 -58.202473 422.709633 -52.26554 415.397831 -52.26554 C 408.08603 -52.26554 402.149097 -58.202473 402.149097 -65.451781 C 402.149097 -72.763583 408.08603 -78.700516 415.397831 -78.700516 Z M 415.397831 -78.700516 " transform="matrix(0.062506,0,0,0.062506,0,13.438783)"/>
</g>
</svg>
