<svg height="32" viewBox="0 0 32 32" width="32" xmlns="http://www.w3.org/2000/svg" xmlns:xlink="http://www.w3.org/1999/xlink"><linearGradient id="a" gradientTransform="matrix(.0664126 0 0 .062506 -.992287 13.438785)" gradientUnits="userSpaceOnUse" x1="254" x2="254" y1="233.5" y2="254.666672"><stop offset="0" stop-opacity=".27451"/><stop offset="1" stop-opacity="0"/></linearGradient><linearGradient id="b"><stop offset="0" stop-opacity=".313726"/><stop offset=".222222" stop-opacity=".27451"/><stop offset="1" stop-opacity="0"/></linearGradient><radialGradient id="c" cx="450.908936" cy="189.579361" gradientTransform="matrix(.00000019 -.0781325 -.149428 -.0000001 52.287939 63.595333)" gradientUnits="userSpaceOnUse" r="21.166656" xlink:href="#b"/><radialGradient id="d" cx="450.908936" cy="189.579361" gradientTransform="matrix(-.00000019 .0781325 .149428 .0000001 -20.5349 -7.52748)" gradientUnits="userSpaceOnUse" r="21.166656" xlink:href="#b"/><radialGradient id="e" cx="450.908936" cy="189.579361" gradientTransform="matrix(-.00000019 -.0781325 .149428 -.0000001 -20.5349 63.595333)" gradientUnits="userSpaceOnUse" r="21.166656" xlink:href="#b"/><radialGradient id="f" cx="450.908936" cy="189.579361" gradientTransform="matrix(.00000019 .0781325 -.149428 .0000001 52.287937 -7.527479)" gradientUnits="userSpaceOnUse" r="21.166656" xlink:href="#b"/><linearGradient id="g" gradientTransform="matrix(.0753497 0 0 .217412 -5.192491 33.641348)" gradientUnits="userSpaceOnUse" x1="306.916656" x2="305.954559" y1="-25.791676" y2="-141.414581"><stop offset="0" stop-color="#7e57c2"/><stop offset="1" stop-color="#9575cd"/></linearGradient><linearGradient id="h"><stop offset="0" stop-color="#e0e0e0"/><stop offset="1" stop-color="#9e9e9e"/></linearGradient><linearGradient id="i" gradientUnits="userSpaceOnUse" x1="7.93824650006" x2="7.93824650006" xlink:href="#h" y1="2.89610399997" y2="28.033934"/><linearGradient id="j" gradientUnits="userSpaceOnUse" x1="23.81476250006" x2="23.81476250006" xlink:href="#h" y1="2.89610399997" y2="28.033934"/><linearGradient id="k" gradientUnits="userSpaceOnUse" x1="7.93824650006" x2="7.93824650006" xlink:href="#h" y1="7.52676999997" y2="32.6646"/><linearGradient id="l" gradientUnits="userSpaceOnUse" x1="7.93824650006" x2="7.93824650006" xlink:href="#h" y1="12.15742099997" y2="37.295251"/><linearGradient id="m" gradientUnits="userSpaceOnUse" x1="7.93824650006" x2="7.93824650006" xlink:href="#h" y1="16.78807099997" y2="41.925901"/><linearGradient id="n" gradientUnits="userSpaceOnUse" x1="7.93824650006" x2="7.93824650006" xlink:href="#h" y1="21.41872199997" y2="46.556552"/><linearGradient id="o" gradientUnits="userSpaceOnUse" x1="23.81476250006" x2="23.81476250006" xlink:href="#h" y1="7.52676999997" y2="32.6646"/><linearGradient id="p" gradientUnits="userSpaceOnUse" x1="23.81476250006" x2="23.81476250006" xlink:href="#h" y1="12.15742099997" y2="37.295251"/><linearGradient id="q" gradientUnits="userSpaceOnUse" x1="23.81476250006" x2="23.81476250006" xlink:href="#h" y1="16.78807099997" y2="41.925901"/><linearGradient id="r" gradientUnits="userSpaceOnUse" x1="23.81476250006" x2="23.81476250006" xlink:href="#h" y1="21.41872199997" y2="46.556552"/><linearGradient id="s" gradientUnits="userSpaceOnUse" x1="15.876467" x2="15.876467" y1="28.03385005514" y2="2.89609005514"><stop offset="0" stop-color="#bdbdbd"/><stop offset="1" stop-color="#e0e0e0"/></linearGradient><linearGradient id="t" gradientUnits="userSpaceOnUse" x1="254.000008" x2="254.000008" y1="53.583572" y2="74.750244"><stop offset="0" stop-color="#546e7a"/><stop offset="1" stop-color="#607d8b"/></linearGradient><linearGradient id="u" gradientUnits="userSpaceOnUse" x1="254.000008" x2="254.000008" xlink:href="#h" y1="53.583572" y2="69.458572"/><path d="m7.441406 28.035156h16.871094v1.320313h-16.871094zm0 0" fill="url(#a)"/><path d="m24.3125 28.035156h2.808594v-1.324218h-2.808594zm0 0" fill="url(#c)"/><path d="m7.441406 28.035156h-2.8125v1.320313h2.8125zm0 0" fill="url(#d)"/><path d="m7.441406 28.035156h-2.8125v-1.324218h2.8125zm0 0" fill="url(#e)"/><path d="m24.3125 28.035156h2.808594v1.320313h-2.808594zm0 0" fill="url(#f)"/><path d="m5.953125 2.894531h19.847656c.730469 0 1.320313.59375 1.320313 1.324219v22.492188c0 .730468-.589844 1.324218-1.320313 1.324218h-19.847656c-.730469 0-1.324219-.59375-1.324219-1.324218v-22.492188c0-.730469.59375-1.324219 1.324219-1.324219zm0 0" fill="url(#g)"/><path d="m6.613281 4.878906h2.648438c.363281 0 .660156.296875.660156.664063v1.324219c0 .363281-.296875.660156-.660156.660156h-2.648438c-.363281 0-.660156-.296875-.660156-.660156v-1.324219c0-.367188.296875-.664063.660156-.664063zm0 0" fill="url(#i)"/><path d="m5.953125 6.863281v.332031c0 .367188.296875.664063.660156.664063h2.648438c.367187 0 .660156-.296875.660156-.664063v-.332031c0 .367188-.292969.664063-.660156.664063h-2.648438c-.363281 0-.660156-.296875-.660156-.664063zm0 0" fill="#fff" fill-opacity=".313726"/><path d="m6.613281 4.878906c-.363281 0-.660156.296875-.660156.664063v.328125c0-.363282.296875-.660156.660156-.660156h2.648438c.367187 0 .660156.296874.660156.660156v-.328125c0-.367188-.292969-.664063-.660156-.664063zm0 0" fill-opacity=".235294"/><path d="m105.802396-136.944954h42.370954c5.811945 0 10.561492 4.749547 10.561492 10.623986v21.185476c0 5.811945-4.749547 10.561492-10.561492 10.561492h-42.370954c-5.811945 0-10.561491-4.749547-10.561491-10.561492v-21.185476c0-5.874439 4.749546-10.623986 10.561491-10.623986zm0 0" fill="none" stroke="#212121" stroke-linecap="round" stroke-linejoin="round" stroke-width="3" transform="matrix(.062506 0 0 .062506 0 13.438783)"/><path d="m5.953125 2.894531c-.730469 0-1.324219.589844-1.324219 1.324219v.332031c0-.734375.59375-1.324219 1.324219-1.324219h19.847656c.730469 0 1.320313.589844 1.320313 1.324219v-.332031c0-.734375-.589844-1.324219-1.320313-1.324219zm0 0" fill="#fff" fill-opacity=".313726"/><path d="m5.953125 28.035156c-.730469 0-1.324219-.589844-1.324219-1.324218v-.332032c0 .734375.59375 1.324219 1.324219 1.324219h19.847656c.730469 0 1.320313-.589844 1.320313-1.324219v.332032c0 .734374-.589844 1.324218-1.320313 1.324218zm0 0" fill-opacity=".235294"/><path d="m95.240905-168.691922h317.532177c11.686384 0 21.122983 9.499093 21.122983 21.185477v359.840637c0 11.686384-9.436599 21.185477-21.122983 21.185477h-317.532177c-11.686384 0-21.185477-9.499093-21.185477-21.185477v-359.840637c0-11.686384 9.499093-21.185477 21.185477-21.185477zm0 0" fill="none" stroke="#000" stroke-linecap="round" stroke-width="3" transform="matrix(.062506 0 0 .062506 0 13.438783)"/><path d="m22.492188 4.878906h2.644531c.367187 0 .664062.296875.664062.664063v1.324219c0 .363281-.296875.660156-.664062.660156h-2.644531c-.367188 0-.660157-.296875-.660157-.660156v-1.324219c0-.367188.292969-.664063.660157-.664063zm0 0" fill="url(#j)"/><path d="m21.832031 6.863281v.332031c0 .367188.292969.664063.660157.664063h2.644531c.367187 0 .664062-.296875.664062-.664063v-.332031c0 .367188-.296875.664063-.664062.664063h-2.644531c-.367188 0-.660157-.296875-.660157-.664063zm0 0" fill="#fff" fill-opacity=".313726"/><path d="m22.492188 4.878906c-.367188 0-.660157.296875-.660157.664063v.328125c0-.363282.292969-.660156.660157-.660156h2.644531c.367187 0 .664062.296874.664062.660156v-.328125c0-.367188-.296875-.664063-.664062-.664063zm0 0" fill-opacity=".235294"/><path d="m359.840637-136.944954h42.30846c5.874439 0 10.623985 4.749547 10.623985 10.623986v21.185476c0 5.811945-4.749546 10.561492-10.623985 10.561492h-42.30846c-5.874439 0-10.561491-4.749547-10.561491-10.561492v-21.185476c0-5.874439 4.687052-10.623986 10.561491-10.623986zm0 0" fill="none" stroke="#212121" stroke-linecap="round" stroke-linejoin="round" stroke-width="3" transform="matrix(.062506 0 0 .062506 0 13.438783)"/><path d="m6.613281 9.511719h2.648438c.363281 0 .660156.296875.660156.660156v1.324219c0 .363281-.296875.660156-.660156.660156h-2.648438c-.363281 0-.660156-.296875-.660156-.660156v-1.324219c0-.363281.296875-.660156.660156-.660156zm0 0" fill="url(#k)"/><path d="m5.953125 11.496094v.332031c0 .363281.296875.660156.660156.660156h2.648438c.367187 0 .660156-.296875.660156-.660156v-.332031c0 .367187-.292969.660156-.660156.660156h-2.648438c-.363281 0-.660156-.292969-.660156-.660156zm0 0" fill="#fff" fill-opacity=".313726"/><path d="m6.613281 9.511719c-.363281 0-.660156.292969-.660156.660156v.332031c0-.367187.296875-.660156.660156-.660156h2.648438c.367187 0 .660156.292969.660156.660156v-.332031c0-.367187-.292969-.660156-.660156-.660156zm0 0" fill-opacity=".235294"/><path d="m105.802396-62.827032h42.370954c5.811945 0 10.561492 4.749547 10.561492 10.561492v21.185477c0 5.811945-4.749547 10.561491-10.561492 10.561491h-42.370954c-5.811945 0-10.561491-4.749546-10.561491-10.561491v-21.185477c0-5.811945 4.749546-10.561492 10.561491-10.561492zm0 0" fill="none" stroke="#212121" stroke-linecap="round" stroke-linejoin="round" stroke-width="3" transform="matrix(.062506 0 0 .062506 0 13.438783)"/><path d="m6.613281 14.140625h2.648438c.363281 0 .660156.296875.660156.664063v1.320312c0 .367188-.296875.664062-.660156.664062h-2.648438c-.363281 0-.660156-.296874-.660156-.664062v-1.320312c0-.367188.296875-.664063.660156-.664063zm0 0" fill="url(#l)"/><path d="m5.953125 16.125v.332031c0 .367188.296875.660157.660156.660157h2.648438c.367187 0 .660156-.292969.660156-.660157v-.332031c0 .367188-.292969.664062-.660156.664062h-2.648438c-.363281 0-.660156-.296874-.660156-.664062zm0 0" fill="#fff" fill-opacity=".313726"/><path d="m6.613281 14.140625c-.363281 0-.660156.296875-.660156.664063v.328124c0-.363281.296875-.660156.660156-.660156h2.648438c.367187 0 .660156.296875.660156.660156v-.328124c0-.367188-.292969-.664063-.660156-.664063zm0 0" fill-opacity=".235294"/><path d="m105.802396 11.228396h42.370954c5.811945 0 10.561492 4.749547 10.561492 10.623986v21.122983c0 5.874439-4.749547 10.623985-10.561492 10.623985h-42.370954c-5.811945 0-10.561491-4.749546-10.561491-10.623985v-21.122983c0-5.874439 4.749546-10.623986 10.561491-10.623986zm0 0" fill="none" stroke="#212121" stroke-linecap="round" stroke-linejoin="round" stroke-width="3" transform="matrix(.062506 0 0 .062506 0 13.438783)"/><path d="m6.613281 18.773438h2.648438c.363281 0 .660156.296874.660156.660156v1.324218c0 .363282-.296875.660157-.660156.660157h-2.648438c-.363281 0-.660156-.296875-.660156-.660157v-1.324218c0-.363282.296875-.660156.660156-.660156zm0 0" fill="url(#m)"/><path d="m5.953125 20.757812v.332032c0 .363281.296875.660156.660156.660156h2.648438c.367187 0 .660156-.296875.660156-.660156v-.332032c0 .367188-.292969.660157-.660156.660157h-2.648438c-.363281 0-.660156-.292969-.660156-.660157zm0 0" fill="#fff" fill-opacity=".313726"/><path d="m6.613281 18.773438c-.363281 0-.660156.292968-.660156.660156v.332031c0-.367187.296875-.664063.660156-.664063h2.648438c.367187 0 .660156.296876.660156.664063v-.332031c0-.367188-.292969-.660156-.660156-.660156zm0 0" fill-opacity=".235294"/><path d="m105.802396 85.346318h42.370954c5.811945 0 10.561492 4.749547 10.561492 10.561492v21.185477c0 5.811945-4.749547 10.561491-10.561492 10.561491h-42.370954c-5.811945 0-10.561491-4.749546-10.561491-10.561491v-21.185477c0-5.811945 4.749546-10.561492 10.561491-10.561492zm0 0" fill="none" stroke="#212121" stroke-linecap="round" stroke-linejoin="round" stroke-width="3" transform="matrix(.062506 0 0 .062506 0 13.438783)"/><path d="m6.613281 23.402344h2.648438c.363281 0 .660156.296875.660156.664062v1.320313c0 .367187-.296875.664062-.660156.664062h-2.648438c-.363281 0-.660156-.296875-.660156-.664062v-1.320313c0-.367187.296875-.664062.660156-.664062zm0 0" fill="url(#n)"/><path d="m5.953125 25.386719v.332031c0 .367188.296875.660156.660156.660156h2.648438c.367187 0 .660156-.292968.660156-.660156v-.332031c0 .367187-.292969.664062-.660156.664062h-2.648438c-.363281 0-.660156-.296875-.660156-.664062zm0 0" fill="#fff" fill-opacity=".313726"/><path d="m6.613281 23.402344c-.363281 0-.660156.296875-.660156.664062v.328125c0-.367187.296875-.660156.660156-.660156h2.648438c.367187 0 .660156.292969.660156.660156v-.328125c0-.367187-.292969-.664062-.660156-.664062zm0 0" fill-opacity=".235294"/><path d="m105.802396 159.401746h42.370954c5.811945 0 10.561492 4.749547 10.561492 10.623986v21.122983c0 5.874439-4.749547 10.623985-10.561492 10.623985h-42.370954c-5.811945 0-10.561491-4.749546-10.561491-10.623985v-21.122983c0-5.874439 4.749546-10.623986 10.561491-10.623986zm0 0" fill="none" stroke="#212121" stroke-linecap="round" stroke-linejoin="round" stroke-width="3" transform="matrix(.062506 0 0 .062506 0 13.438783)"/><path d="m22.492188 9.511719h2.644531c.367187 0 .664062.296875.664062.660156v1.324219c0 .363281-.296875.660156-.664062.660156h-2.644531c-.367188 0-.660157-.296875-.660157-.660156v-1.324219c0-.363281.292969-.660156.660157-.660156zm0 0" fill="url(#o)"/><path d="m21.832031 11.496094v.332031c0 .363281.292969.660156.660157.660156h2.644531c.367187 0 .664062-.296875.664062-.660156v-.332031c0 .367187-.296875.660156-.664062.660156h-2.644531c-.367188 0-.660157-.292969-.660157-.660156zm0 0" fill="#fff" fill-opacity=".313726"/><path d="m22.492188 9.511719c-.367188 0-.660157.292969-.660157.660156v.332031c0-.367187.292969-.660156.660157-.660156h2.644531c.367187 0 .664062.292969.664062.660156v-.332031c0-.367187-.296875-.660156-.664062-.660156zm0 0" fill-opacity=".235294"/><path d="m359.840637-62.827032h42.30846c5.874439 0 10.623985 4.749547 10.623985 10.561492v21.185477c0 5.811945-4.749546 10.561491-10.623985 10.561491h-42.30846c-5.874439 0-10.561491-4.749546-10.561491-10.561491v-21.185477c0-5.811945 4.687052-10.561492 10.561491-10.561492zm0 0" fill="none" stroke="#212121" stroke-linecap="round" stroke-linejoin="round" stroke-width="3" transform="matrix(.062506 0 0 .062506 0 13.438783)"/><path d="m22.492188 14.140625h2.644531c.367187 0 .664062.296875.664062.664063v1.320312c0 .367188-.296875.664062-.664062.664062h-2.644531c-.367188 0-.660157-.296874-.660157-.664062v-1.320312c0-.367188.292969-.664063.660157-.664063zm0 0" fill="url(#p)"/><path d="m21.832031 16.125v.332031c0 .367188.292969.660157.660157.660157h2.644531c.367187 0 .664062-.292969.664062-.660157v-.332031c0 .367188-.296875.664062-.664062.664062h-2.644531c-.367188 0-.660157-.296874-.660157-.664062zm0 0" fill="#fff" fill-opacity=".313726"/><path d="m22.492188 14.140625c-.367188 0-.660157.296875-.660157.664063v.328124c0-.363281.292969-.660156.660157-.660156h2.644531c.367187 0 .664062.296875.664062.660156v-.328124c0-.367188-.296875-.664063-.664062-.664063zm0 0" fill-opacity=".235294"/><path d="m359.840637 11.228396h42.30846c5.874439 0 10.623985 4.749547 10.623985 10.623986v21.122983c0 5.874439-4.749546 10.623985-10.623985 10.623985h-42.30846c-5.874439 0-10.561491-4.749546-10.561491-10.623985v-21.122983c0-5.874439 4.687052-10.623986 10.561491-10.623986zm0 0" fill="none" stroke="#212121" stroke-linecap="round" stroke-linejoin="round" stroke-width="3" transform="matrix(.062506 0 0 .062506 0 13.438783)"/><path d="m22.492188 18.773438h2.644531c.367187 0 .664062.296874.664062.660156v1.324218c0 .363282-.296875.660157-.664062.660157h-2.644531c-.367188 0-.660157-.296875-.660157-.660157v-1.324218c0-.363282.292969-.660156.660157-.660156zm0 0" fill="url(#q)"/><path d="m21.832031 20.757812v.332032c0 .363281.292969.660156.660157.660156h2.644531c.367187 0 .664062-.296875.664062-.660156v-.332032c0 .367188-.296875.660157-.664062.660157h-2.644531c-.367188 0-.660157-.292969-.660157-.660157zm0 0" fill="#fff" fill-opacity=".313726"/><path d="m22.492188 18.773438c-.367188 0-.660157.292968-.660157.660156v.332031c0-.367187.292969-.664063.660157-.664063h2.644531c.367187 0 .664062.296876.664062.664063v-.332031c0-.367188-.296875-.660156-.664062-.660156zm0 0" fill-opacity=".235294"/><path d="m359.840637 85.346318h42.30846c5.874439 0 10.623985 4.749547 10.623985 10.561492v21.185477c0 5.811945-4.749546 10.561491-10.623985 10.561491h-42.30846c-5.874439 0-10.561491-4.749546-10.561491-10.561491v-21.185477c0-5.811945 4.687052-10.561492 10.561491-10.561492zm0 0" fill="none" stroke="#212121" stroke-linecap="round" stroke-linejoin="round" stroke-width="3" transform="matrix(.062506 0 0 .062506 0 13.438783)"/><path d="m22.492188 23.402344h2.644531c.367187 0 .664062.296875.664062.664062v1.320313c0 .367187-.296875.664062-.664062.664062h-2.644531c-.367188 0-.660157-.296875-.660157-.664062v-1.320313c0-.367187.292969-.664062.660157-.664062zm0 0" fill="url(#r)"/><path d="m21.832031 25.386719v.332031c0 .367188.292969.660156.660157.660156h2.644531c.367187 0 .664062-.292968.664062-.660156v-.332031c0 .367187-.296875.664062-.664062.664062h-2.644531c-.367188 0-.660157-.296875-.660157-.664062zm0 0" fill="#fff" fill-opacity=".313726"/><path d="m22.492188 23.402344c-.367188 0-.660157.296875-.660157.664062v.328125c0-.367187.292969-.660156.660157-.660156h2.644531c.367187 0 .664062.292969.664062.660156v-.328125c0-.367187-.296875-.664062-.664062-.664062zm0 0" fill-opacity=".235294"/><path d="m359.840637 159.401746h42.30846c5.874439 0 10.623985 4.749547 10.623985 10.623986v21.122983c0 5.874439-4.749546 10.623985-10.623985 10.623985h-42.30846c-5.874439 0-10.561491-4.749546-10.561491-10.623985v-21.122983c0-5.874439 4.687052-10.623986 10.561491-10.623986zm0 0" fill="none" stroke="#212121" stroke-linecap="round" stroke-linejoin="round" stroke-width="3" transform="matrix(.062506 0 0 .062506 0 13.438783)"/><path d="m15.214844 9.179688c-1.097656 0-1.984375.886718-1.984375 1.984374v3.96875c0 .894532.582031 1.644532 1.390625 1.894532-.027344.089844-.050782.179687-.058594.273437-.253906-.117187-.539062-.183593-.835938-.183593-1.097656 0-1.984374.886718-1.984374 1.984374v.664063c0 1.097656.886718 1.984375 1.984374 1.984375 1.097657 0 1.984376-.886719 1.984376-1.984375v-.664063c0-.117187-.011719-.230468-.03125-.34375.066406.007813.128906.015626.195312.015626s.132812-.007813.195312-.015626c-.019531.113282-.027343.226563-.027343.34375v.664063c0 1.097656.882812 1.984375 1.984375 1.984375 1.097656 0 1.984375-.886719 1.984375-1.984375v-.664063c0-1.097656-.886719-1.984374-1.984375-1.984374-.300782 0-.582032.066406-.835938.183593-.011718-.09375-.03125-.183593-.058594-.273437.804688-.25 1.390626-1 1.390626-1.894532v-3.96875c0-1.097656-.886719-1.984374-1.984376-1.984374v7.125c-.195312-.113282-.421874-.179688-.664062-.179688-.238281 0-.464844.066406-.660156.179688zm-1.488282 9.261718c.457032 0 .828126.296875.828126.660156v.664063c0 .367187-.371094.660156-.828126.660156-.457031 0-.828124-.292969-.828124-.660156v-.664063c0-.363281.371093-.660156.828124-.660156zm4.246094 0h.105469c.429687 0 .773437.269532.773437.601563v.78125c0 .335937-.34375.601562-.773437.601562h-.105469c-.425781 0-.773437-.265625-.773437-.601562v-.78125c0-.332031.347656-.601563.773437-.601563zm0 0" fill="url(#s)"/><path d="m253.975747 53.59935c5.874439 0 10.623985 4.749546 10.623985 10.561491 0 5.874439-4.749546 10.561492-10.623985 10.561492-5.811945 0-10.561492-4.687053-10.561492-10.561492 0-5.811945 4.749547-10.561491 10.561492-10.561491zm0 0" fill="url(#t)" stroke="#212121" stroke-linecap="square" stroke-linejoin="round" stroke-width="3" transform="matrix(.062506 0 0 .062506 0 13.438783)"/><path d="m253.975747 58.848849c2.937219 0 5.311992 2.374773 5.311992 5.311992 0 2.93722-2.374773 5.311993-5.311992 5.311993-2.874726 0-5.249499-2.374773-5.249499-5.311993 0-2.937219 2.374773-5.311992 5.249499-5.311992zm0 0" fill="url(#u)" stroke="#212121" stroke-linecap="square" stroke-linejoin="round" stroke-width="3" transform="matrix(.062506 0 0 .062506 0 13.438783)"/><path d="m15.214844 9.261719c-1.097656 0-1.984375.886719-1.984375 1.984375v.167968c0-1.101562.886719-1.984374 1.984375-1.984374zm1.324218 0v.167969c1.097657 0 1.984376.882812 1.984376 1.984374v-.167968c0-1.097656-.886719-1.984375-1.984376-1.984375zm-.664062 6.949219c-.238281 0-.464844.0625-.660156.175781v.164062c.195312-.113281.421875-.175781.660156-.175781.242188 0 .46875.0625.664062.175781v-.164062c-.195312-.113281-.421874-.175781-.664062-.175781zm-2.148438.992187c-1.097656 0-1.984374.882813-1.984374 1.984375v.164062c0-1.097656.886718-1.984374 1.984374-1.984374.296876 0 .582032.066406.835938.183593.007812-.09375.03125-.1875.058594-.273437-.011719-.003906-.027344-.007813-.039063-.011719-.007812.039063-.015625.078125-.019531.117187-.253906-.117187-.539062-.179687-.835938-.179687zm4.300782 0c-.300782 0-.582032.0625-.835938.179687-.003906-.039062-.011718-.078124-.019531-.117187-.011719.003906-.027344.007813-.039063.011719.027344.085937.046876.179687.058594.273437.253906-.117187.535156-.183593.835938-.183593 1.097656 0 1.984375.886718 1.984375 1.984374v-.164062c0-1.101562-.886719-1.984375-1.984375-1.984375zm-2.347656 1.804687c.019531.109376.03125.226563.03125.34375v-.164062c0-.0625-.003907-.121094-.007813-.179688-.007813 0-.015625 0-.023437 0zm.390624 0c-.007812 0-.011718 0-.019531 0-.007812.058594-.007812.117188-.007812.179688v.164062c0-.117187.007812-.234374.027343-.34375zm-3.171874.839844v.164063c0 .367187.371093.664062.828124.664062.457032 0 .828126-.296875.828126-.664062v-.164063c0 .367188-.371094.660156-.828126.660156-.457031 0-.828124-.292968-.828124-.660156zm4.300781.058594v.167969c0 .332031.347656.601562.773437.601562h.105469c.429687 0 .773437-.269531.773437-.601562v-.167969c0 .335938-.34375.601562-.773437.601562h-.105469c-.425781 0-.773437-.265624-.773437-.601562zm0 0" fill="#fff" fill-opacity=".588235"/><path d="m13.230469 14.984375v.148437c0 .878907.566406 1.621094 1.351562 1.882813.011719-.046875.023438-.09375.039063-.136719-.808594-.25-1.390625-1.003906-1.390625-1.894531zm5.292969 0c0 .890625-.585938 1.644531-1.390626 1.894531.015626.042969.027344.089844.035157.136719.789062-.261719 1.355469-1.003906 1.355469-1.882813zm-4.796876 3.304687c-.457031 0-.828124.296876-.828124.664063v.148437c0-.363281.371093-.660156.828124-.660156.457032 0 .828126.296875.828126.660156v-.148437c0-.367187-.371094-.664063-.828126-.664063zm4.246094 0c-.425781 0-.773437.269532-.773437.601563v.152344c0-.332031.347656-.601563.773437-.601563h.105469c.429687 0 .773437.269532.773437.601563v-.152344c0-.332031-.34375-.601563-.773437-.601563zm-2.292968.316407c.011718.050781.015624.105469.023437.15625.054687.007812.113281.011719.171875.011719.0625 0 .117188-.003907.175781-.011719.003907-.050781.011719-.105469.019531-.15625-.0625.011719-.128906.015625-.195312.015625s-.128906-.003906-.195312-.015625zm-3.9375 1.007812v.152344c0 1.097656.886718 1.984375 1.984374 1.984375 1.097657 0 1.984376-.886719 1.984376-1.984375v-.152344c0 1.101563-.886719 1.984375-1.984376 1.984375-1.097656 0-1.984374-.882812-1.984374-1.984375zm4.300781 0v.152344c0 1.097656.882812 1.984375 1.984375 1.984375 1.097656 0 1.984375-.886719 1.984375-1.984375v-.152344c0 1.101563-.886719 1.984375-1.984375 1.984375-1.101563 0-1.984375-.882812-1.984375-1.984375zm0 0" fill-opacity=".235294"/><path d="m243.414255-68.139025c-17.560823 0-31.746968 14.186146-31.746968 31.746969v63.493936c0 14.311134 9.311611 26.309988 22.247875 30.309606-.437458 1.437363-.812422 2.874725-.93741 4.374582-4.062112-1.874821-8.624177-2.937219-13.373723-2.937219-17.560823 0-31.746968 14.186145-31.746968 31.746968v10.623986c0 17.560823 14.186145 31.746968 31.746968 31.746968s31.746968-14.186145 31.746968-31.746968v-10.623986c0-1.874821-.187482-3.687148-.499952-5.499475 1.062398.124988 2.062303.249976 3.124702.249976 1.062398 0 2.124797-.124988 3.124701-.249976-.31247 1.812327-.437458 3.624654-.437458 5.499475v10.623986c0 17.560823 14.123651 31.746968 31.746968 31.746968 17.560823 0 31.746969-14.186145 31.746969-31.746968v-10.623986c0-17.560823-14.186146-31.746968-31.746969-31.746968-4.81204 0-9.311611 1.062398-13.373723 2.937219-.187482-1.499857-.499952-2.937219-.93741-4.374582 12.87377-3.999618 22.247875-15.998472 22.247875-30.309606v-63.493936c0-17.560823-14.186145-31.746969-31.746968-31.746969v113.989115c-3.124702-1.812327-6.749355-2.874725-10.623985-2.874725-3.812136 0-7.43679 1.062398-10.561492 2.874725zm-23.810226 148.173351c7.311802 0 13.248735 4.749546 13.248735 10.561491v10.623986c0 5.874439-5.936933 10.561491-13.248735 10.561491s-13.248735-4.687052-13.248735-10.561491v-10.623986c0-5.811945 5.936933-10.561491 13.248735-10.561491zm67.931013 0h1.687339c6.874343 0 12.373818 4.312088 12.373818 9.624081v12.498806c0 5.374487-5.499475 9.624081-12.373818 9.624081h-1.687339c-6.81185 0-12.373819-4.249594-12.373819-9.624081v-12.498806c0-5.311993 5.561969-9.624081 12.373819-9.624081zm0 0" fill="none" stroke="#212121" stroke-linecap="square" stroke-linejoin="round" stroke-width="3" transform="matrix(.062506 0 0 .062506 0 13.438783)"/><path d="m13.230469 15.132812v.664063c0 .507813.191406.972656.503906 1.320313.296875.003906.574219.066406.828125.183593.007812-.09375.03125-.183593.058594-.273437-.808594-.25-1.390625-1-1.390625-1.894532zm5.292969 0c0 .894532-.585938 1.644532-1.390626 1.894532.027344.089844.046876.179687.058594.273437.25-.117187.53125-.179687.828125-.183593.3125-.347657.503907-.8125.503907-1.320313zm-4.796876 3.308594c-.457031 0-.828124.296875-.828124.660156v.664063c0-.367187.371093-.664063.828124-.664063.457032 0 .828126.296876.828126.664063v-.664063c0-.363281-.371094-.660156-.828126-.660156zm4.246094 0c-.425781 0-.773437.269532-.773437.601563v.660156c0-.332031.347656-.601563.773437-.601563h.105469c.429687 0 .773437.269532.773437.601563v-.660156c0-.332031-.34375-.601563-.773437-.601563zm-2.292968.316406c.019531.113282.03125.226563.03125.34375v.320313c.054687.007813.109374.011719.164062.011719.058594 0 .113281-.003906.167969-.011719v-.320313c0-.117187.007812-.230468.027343-.34375-.0625.007813-.128906.015626-.195312.015626s-.128906-.007813-.195312-.015626zm-3.9375 1.007813v.660156c0 1.101563.886718 1.984375 1.984374 1.984375 1.097657 0 1.984376-.882812 1.984376-1.984375v-.660156c0 1.097656-.886719 1.984375-1.984376 1.984375-1.097656 0-1.984374-.886719-1.984374-1.984375zm4.300781 0v.660156c0 1.101563.882812 1.984375 1.984375 1.984375 1.097656 0 1.984375-.882812 1.984375-1.984375v-.660156c0 1.097656-.886719 1.984375-1.984375 1.984375-1.101563 0-1.984375-.886719-1.984375-1.984375zm0 0" fill-opacity=".235294"/><g fill-opacity=".117647"><path d="m6.613281 4.878906h2.648438c.363281 0 .660156.296875.660156.664063v1.324219c0 .363281-.296875.660156-.660156.660156h-2.648438c-.363281 0-.660156-.296875-.660156-.660156v-1.324219c0-.367188.296875-.664063.660156-.664063zm0 0"/><path d="m22.492188 4.878906h2.644531c.367187 0 .664062.296875.664062.664063v1.324219c0 .363281-.296875.660156-.664062.660156h-2.644531c-.367188 0-.660157-.296875-.660157-.660156v-1.324219c0-.367188.292969-.664063.660157-.664063zm0 0"/><path d="m6.613281 9.511719h2.648438c.363281 0 .660156.296875.660156.660156v1.324219c0 .363281-.296875.660156-.660156.660156h-2.648438c-.363281 0-.660156-.296875-.660156-.660156v-1.324219c0-.363281.296875-.660156.660156-.660156zm0 0"/><path d="m6.613281 14.140625h2.648438c.363281 0 .660156.296875.660156.664063v1.320312c0 .367188-.296875.664062-.660156.664062h-2.648438c-.363281 0-.660156-.296874-.660156-.664062v-1.320312c0-.367188.296875-.664063.660156-.664063zm0 0"/><path d="m6.613281 18.773438h2.648438c.363281 0 .660156.296874.660156.660156v1.324218c0 .363282-.296875.660157-.660156.660157h-2.648438c-.363281 0-.660156-.296875-.660156-.660157v-1.324218c0-.363282.296875-.660156.660156-.660156zm0 0"/><path d="m6.613281 23.402344h2.648438c.363281 0 .660156.296875.660156.664062v1.320313c0 .367187-.296875.664062-.660156.664062h-2.648438c-.363281 0-.660156-.296875-.660156-.664062v-1.320313c0-.367187.296875-.664062.660156-.664062zm0 0"/><path d="m22.492188 9.511719h2.644531c.367187 0 .664062.296875.664062.660156v1.324219c0 .363281-.296875.660156-.664062.660156h-2.644531c-.367188 0-.660157-.296875-.660157-.660156v-1.324219c0-.363281.292969-.660156.660157-.660156zm0 0"/><path d="m22.492188 14.140625h2.644531c.367187 0 .664062.296875.664062.664063v1.320312c0 .367188-.296875.664062-.664062.664062h-2.644531c-.367188 0-.660157-.296874-.660157-.664062v-1.320312c0-.367188.292969-.664063.660157-.664063zm0 0"/><path d="m22.492188 18.773438h2.644531c.367187 0 .664062.296874.664062.660156v1.324218c0 .363282-.296875.660157-.664062.660157h-2.644531c-.367188 0-.660157-.296875-.660157-.660157v-1.324218c0-.363282.292969-.660156.660157-.660156zm0 0"/><path d="m22.492188 23.402344h2.644531c.367187 0 .664062.296875.664062.664062v1.320313c0 .367187-.296875.664062-.664062.664062h-2.644531c-.367188 0-.660157-.296875-.660157-.664062v-1.320313c0-.367187.292969-.664062.660157-.664062zm0 0"/></g></svg>