<svg xmlns="http://www.w3.org/2000/svg" width="32pt" height="32pt" viewBox="0 0 32 32"><defs><linearGradient id="a" gradientUnits="userSpaceOnUse" x1="254" y1="233.5" x2="254" y2="254.667" gradientTransform="matrix(.0625 0 0 .0625 0 13.439)"><stop offset="0" stop-opacity=".275"/><stop offset="1" stop-opacity="0"/></linearGradient><radialGradient id="b" gradientUnits="userSpaceOnUse" cx="450.909" cy="189.579" fx="450.909" fy="189.579" r="21.167" gradientTransform="matrix(0 -.07813 -.14064 0 48.823 63.595)"><stop offset="0" stop-opacity=".314"/><stop offset=".222" stop-opacity=".275"/><stop offset="1" stop-opacity="0"/></radialGradient><radialGradient id="c" gradientUnits="userSpaceOnUse" cx="450.909" cy="189.579" fx="450.909" fy="189.579" r="21.167" gradientTransform="matrix(0 .07813 .14064 0 -17.07 -7.527)"><stop offset="0" stop-opacity=".314"/><stop offset=".222" stop-opacity=".275"/><stop offset="1" stop-opacity="0"/></radialGradient><radialGradient id="d" gradientUnits="userSpaceOnUse" cx="450.909" cy="189.579" fx="450.909" fy="189.579" r="21.167" gradientTransform="matrix(0 -.07813 .14064 0 -17.07 63.595)"><stop offset="0" stop-opacity=".314"/><stop offset=".222" stop-opacity=".275"/><stop offset="1" stop-opacity="0"/></radialGradient><radialGradient id="e" gradientUnits="userSpaceOnUse" cx="450.909" cy="189.579" fx="450.909" fy="189.579" r="21.167" gradientTransform="matrix(0 .07813 -.14064 0 48.823 -7.527)"><stop offset="0" stop-opacity=".314"/><stop offset=".222" stop-opacity=".275"/><stop offset="1" stop-opacity="0"/></radialGradient><linearGradient id="f" gradientUnits="userSpaceOnUse" x1="306.917" y1="-25.792" x2="305.955" y2="-141.415" gradientTransform="matrix(.07535 0 0 .21741 -5.854 33.641)"><stop offset="0" stop-color="#9e9e9e"/><stop offset="1" stop-color="#e0e0e0"/></linearGradient><linearGradient id="g" gradientUnits="userSpaceOnUse" x1="254" y1="159.417" x2="254" y2="191.167" gradientTransform="translate(0 -21.167)"><stop offset="0" stop-color="#424242"/><stop offset="1" stop-color="#616161"/></linearGradient><linearGradient id="h" gradientUnits="userSpaceOnUse" x1="254" y1="-105.167" x2="254" y2="85.333" gradientTransform="matrix(.0625 0 0 .0625 0 13.439)"><stop offset="0" stop-color="#26a69a"/><stop offset="1" stop-color="#00897b"/></linearGradient><linearGradient id="i" gradientUnits="userSpaceOnUse" x1="254" y1="-105.167" x2="254" y2="85.333" gradientTransform="matrix(.0625 0 0 .0625 0 13.439)"><stop offset="0" stop-color="#9e9e9e"/><stop offset="1" stop-color="#e0e0e0"/></linearGradient><linearGradient id="j" gradientUnits="userSpaceOnUse" x1="254" y1="-89.292" x2="254" y2="69.458" gradientTransform="matrix(.0625 0 0 .0625 .001 13.454)"><stop offset="0" stop-color="#26a69a"/><stop offset="1" stop-color="#00897b"/></linearGradient><linearGradient id="k" gradientUnits="userSpaceOnUse" x1="959.988" y1="1075.118" x2="959.988" y2="475.118" gradientTransform="matrix(.01654 0 0 .01654 0 0)"><stop offset="0" stop-color="#ef5350"/><stop offset="1" stop-color="#e57373"/></linearGradient><linearGradient id="l" gradientUnits="userSpaceOnUse" x1="959.988" y1="1075.118" x2="959.988" y2="475.118" gradientTransform="matrix(.01654 0 0 .01654 0 0)"><stop offset="0" stop-color="#ffa726"/><stop offset="1" stop-color="#ffb74d"/></linearGradient></defs><path d="M9.262 28.035h13.23v1.32H9.262zm0 0" fill="url(#a)"/><path d="M22.492 28.035h2.645v-1.324h-2.645zm0 0" fill="url(#b)"/><path d="M9.262 28.035H6.613v1.32h2.649zm0 0" fill="url(#c)"/><path d="M9.262 28.035H6.613v-1.324h2.649zm0 0" fill="url(#d)"/><path d="M22.492 28.035h2.645v1.32h-2.645zm0 0" fill="url(#e)"/><path d="M7.938 2.895h15.878c.73 0 1.32.593 1.32 1.324V26.71c0 .73-.59 1.324-1.32 1.324H7.938c-.731 0-1.325-.594-1.325-1.324V4.219c0-.73.594-1.324 1.324-1.324zm0 0" fill="url(#f)"/><path d="M7.938 28.035c-.731 0-1.325-.59-1.325-1.324v-.164c0 .73.594 1.32 1.324 1.32h15.88c.73 0 1.32-.59 1.32-1.32v.164a1.32 1.32 0 0 1-1.32 1.324zm0 0" fill-opacity=".196"/><path d="M7.938 2.895c-.731 0-1.325.59-1.325 1.324v.164c0-.73.594-1.324 1.324-1.32h15.88c.73-.004 1.32.59 1.32 1.32v-.164a1.32 1.32 0 0 0-1.32-1.324zm0 0" fill="#e6e6e6" fill-opacity=".937"/><path d="M7.938 2.8c-.782 0-1.415.638-1.415 1.419V26.71c0 .785.633 1.418 1.415 1.418h15.878c.782 0 1.414-.633 1.414-1.418V4.219c0-.782-.632-1.418-1.414-1.418zm0 .188h15.878c.68 0 1.227.547 1.227 1.23v22.493c0 .684-.547 1.23-1.227 1.23H7.938a1.222 1.222 0 0 1-1.227-1.23V4.219c0-.684.543-1.23 1.226-1.23zm0 0" fill="#212121"/><path d="M158.735 138.279h190.544c5.812 0 10.562 4.687 10.562 10.561v10.562c0 5.874-4.75 10.624-10.562 10.624H158.735c-5.812 0-10.562-4.75-10.562-10.624V148.84c0-5.874 4.75-10.561 10.562-10.561zm0 0" transform="matrix(.0625 0 0 .0625 0 13.439)" fill="url(#g)" stroke-width="3" stroke-linecap="round" stroke="#212121"/><path d="M8.602 4.219a.662.662 0 1 1-.004 1.323.662.662 0 0 1 .004-1.323zm0 0M23.152 4.219a.663.663 0 1 1 .003 1.325.663.663 0 0 1-.003-1.325zm0 0M23.152 25.387a.663.663 0 1 1 0 0zm0 0M8.602 25.387a.663.663 0 1 1-.005 1.325.663.663 0 0 1 .005-1.325zm0 0" fill="#bdbdbd" fill-opacity=".392" stroke-width=".18752999999999997" stroke-linecap="round" stroke="#212121"/><path d="M15.875 6.867a5.955 5.955 0 0 1 5.957 5.953 5.957 5.957 0 0 1-5.957 5.953 5.954 5.954 0 0 1 0-11.906zm0 0" fill="url(#h)"/><path d="M15.875 6.867a5.955 5.955 0 0 1 5.957 5.953 5.957 5.957 0 0 1-5.957 5.953 5.954 5.954 0 0 1 0-11.906zm0 0" fill="url(#i)"/><path d="M15.875 7.875a4.947 4.947 0 0 0-4.957 4.96 4.93 4.93 0 0 0 1.441 3.5l3.516-3.515h-.012.012zm0 0" fill="url(#j)"/><path d="M15.875 18.773a5.942 5.942 0 0 1-5.953-5.953c0-.058 0-.113.004-.168a5.938 5.938 0 0 0 5.949 5.79 5.939 5.939 0 0 0 5.953-5.79c0 .055.004.11.004.168a5.942 5.942 0 0 1-5.957 5.953zm0 0" fill="#fff" fill-opacity=".392"/><path d="M15.875 6.79a6.017 6.017 0 0 0-6.027 6.03 6.013 6.013 0 0 0 6.027 6.028 6.017 6.017 0 0 0 6.031-6.028 6.02 6.02 0 0 0-6.031-6.03zm0 .151a5.865 5.865 0 0 1 5.879 5.88 5.864 5.864 0 0 1-5.879 5.874A5.863 5.863 0 0 1 10 12.82a5.864 5.864 0 0 1 5.875-5.879zm0 0" fill="#212121"/><path d="M15.879 7.86v4.94l.008-.007-.008.012h4.96a4.952 4.952 0 0 0-4.96-4.946zm0 0" fill="url(#k)"/><path d="M15.879 12.805v.015h-.004v-.011l-3.516 3.515a4.956 4.956 0 0 0 3.516 1.457 4.954 4.954 0 0 0 4.965-4.96v-.016zm0 0" fill="url(#l)"/><path d="M15.875 6.863a5.942 5.942 0 0 0-5.95 6.121 5.938 5.938 0 0 1 5.95-5.789 5.939 5.939 0 0 1 5.953 5.79c0-.055.004-.11.004-.165 0-3.3-2.656-5.957-5.957-5.957zm0 0" fill-opacity=".235"/><path d="M15.875 7.86a4.961 4.961 0 1 1 0 9.921 4.96 4.96 0 1 1 0-9.922zm0 0" fill="none" stroke-width=".18752999999999997" stroke-linecap="round" stroke-linejoin="round" stroke="#212121"/><path d="M15.875 7.766a5.045 5.045 0 0 0-5.055 5.054 5.04 5.04 0 0 0 1.47 3.567c.019.02.042.027.065.031.028 0 .051-.012.067-.031l3.52-3.516c.003-.004.003-.008.007-.008 0-.004.004-.004.004-.008a.079.079 0 0 0 .016-.05V7.859a.093.093 0 0 0-.094-.093zm-.094.191v4.797l-.008.02-3.414 3.414a4.856 4.856 0 0 1-1.351-3.368 4.853 4.853 0 0 1 4.773-4.863zm0 0" fill="#212121"/><path d="M15.879 7.766a.09.09 0 0 0-.094.093v4.907l.027-.028a.088.088 0 0 0-.023.086h-.004a.114.114 0 0 0 .027.047c.004 0 .004.004.008.004a.08.08 0 0 0 .059.023h4.96a.11.11 0 0 0 .067-.027.11.11 0 0 0 .028-.066 5.047 5.047 0 0 0-5.055-5.04zm.094.191a4.845 4.845 0 0 1 4.765 4.754h-4.765zm0 0" fill="#212121"/><path d="M15.879 12.71a.079.079 0 0 0-.05.017s-.005 0-.005.003c-.004.004-.011.004-.015.012l-3.516 3.516a.093.093 0 0 0 0 .133 5.035 5.035 0 0 0 3.582 1.484c2.8 0 5.059-2.258 5.059-5.055v-.015a.095.095 0 0 0-.094-.094zm.047.188h4.816a4.857 4.857 0 0 1-4.867 4.79 4.842 4.842 0 0 1-3.379-1.368l3.41-3.414a.03.03 0 0 0 .02-.008zm0 0" fill="#212121"/></svg>