<?xml version="1.0" encoding="UTF-8"?>
<svg xmlns="http://www.w3.org/2000/svg" xmlns:xlink="http://www.w3.org/1999/xlink" width="32px" height="32px" viewBox="0 0 32 32" version="1.1">
<defs>
<radialGradient id="radial0" gradientUnits="userSpaceOnUse" cx="450.908936" cy="189.579361" fx="450.908936" fy="189.579361" r="21.166656" gradientTransform="matrix(0.000000174154,-0.078125,-0.140625,-0.000000101529,42.203794,63.58926)">
<stop offset="0" style="stop-color:rgb(0%,0%,0%);stop-opacity:0.313726;"/>
<stop offset="0.222222" style="stop-color:rgb(0%,0%,0%);stop-opacity:0.27451;"/>
<stop offset="1" style="stop-color:rgb(0%,0%,0%);stop-opacity:0;"/>
</radialGradient>
<radialGradient id="radial1" gradientUnits="userSpaceOnUse" cx="450.908936" cy="189.579361" fx="450.908936" fy="189.579361" r="21.166656" gradientTransform="matrix(-0.000000174154,0.078125,0.140625,0.000000101529,-10.453793,-7.52676)">
<stop offset="0" style="stop-color:rgb(0%,0%,0%);stop-opacity:0.313726;"/>
<stop offset="0.222222" style="stop-color:rgb(0%,0%,0%);stop-opacity:0.27451;"/>
<stop offset="1" style="stop-color:rgb(0%,0%,0%);stop-opacity:0;"/>
</radialGradient>
<radialGradient id="radial2" gradientUnits="userSpaceOnUse" cx="450.908936" cy="189.579361" fx="450.908936" fy="189.579361" r="21.166656" gradientTransform="matrix(-0.000000174154,-0.078125,0.140625,-0.000000101529,-10.453793,63.58926)">
<stop offset="0" style="stop-color:rgb(0%,0%,0%);stop-opacity:0.313726;"/>
<stop offset="0.222222" style="stop-color:rgb(0%,0%,0%);stop-opacity:0.27451;"/>
<stop offset="1" style="stop-color:rgb(0%,0%,0%);stop-opacity:0;"/>
</radialGradient>
<radialGradient id="radial3" gradientUnits="userSpaceOnUse" cx="450.908936" cy="189.579361" fx="450.908936" fy="189.579361" r="21.166656" gradientTransform="matrix(0.000000174154,0.078125,-0.140625,0.000000101529,42.203793,-7.526761)">
<stop offset="0" style="stop-color:rgb(0%,0%,0%);stop-opacity:0.313726;"/>
<stop offset="0.222222" style="stop-color:rgb(0%,0%,0%);stop-opacity:0.27451;"/>
<stop offset="1" style="stop-color:rgb(0%,0%,0%);stop-opacity:0;"/>
</radialGradient>
<linearGradient id="linear0" gradientUnits="userSpaceOnUse" x1="111.280739" y1="164.552521" x2="395.655518" y2="-119.822243" gradientTransform="matrix(0.0441942,-0.0441942,0.0441942,0.0441942,3.684775,25.676947)">
<stop offset="0" style="stop-color:rgb(40.000001%,73.333335%,41.568628%);stop-opacity:1;"/>
<stop offset="1" style="stop-color:rgb(50.588238%,78.039217%,51.764709%);stop-opacity:1;"/>
</linearGradient>
<linearGradient id="linear1" gradientUnits="userSpaceOnUse" x1="420.242065" y1="1471.543091" x2="1495.044312" y2="396.740753" gradientTransform="matrix(0.011693,-0.011693,0.011693,0.011693,-6.245723,15.738343)">
<stop offset="0" style="stop-color:rgb(87.843138%,87.843138%,87.843138%);stop-opacity:1;"/>
<stop offset="1" style="stop-color:rgb(93.333334%,93.333334%,93.333334%);stop-opacity:1;"/>
</linearGradient>
</defs>
<g id="surface1">
<path style=" stroke:none;fill-rule:nonzero;fill:url(#radial0);" d="M 15.875 28.03125 L 18.519531 28.03125 L 18.519531 26.707031 L 15.875 26.707031 Z M 15.875 28.03125 "/>
<path style=" stroke:none;fill-rule:nonzero;fill:url(#radial1);" d="M 15.875 28.03125 L 13.230469 28.03125 L 13.230469 29.355469 L 15.875 29.355469 Z M 15.875 28.03125 "/>
<path style=" stroke:none;fill-rule:nonzero;fill:url(#radial2);" d="M 15.875 28.03125 L 13.230469 28.03125 L 13.230469 26.707031 L 15.875 26.707031 Z M 15.875 28.03125 "/>
<path style=" stroke:none;fill-rule:nonzero;fill:url(#radial3);" d="M 15.875 28.03125 L 18.519531 28.03125 L 18.519531 29.355469 L 15.875 29.355469 Z M 15.875 28.03125 "/>
<path style=" stroke:none;fill-rule:nonzero;fill:url(#linear0);" d="M 3.714844 14.480469 L 14.941406 3.253906 C 15.457031 2.738281 16.292969 2.738281 16.808594 3.253906 L 28.035156 14.480469 C 28.550781 14.996094 28.550781 15.835938 28.035156 16.351562 L 16.808594 27.578125 C 16.292969 28.09375 15.457031 28.09375 14.941406 27.578125 L 3.714844 16.351562 C 3.199219 15.835938 3.199219 14.996094 3.714844 14.480469 Z M 3.714844 14.480469 "/>
<path style=" stroke:none;fill-rule:nonzero;fill:rgb(100%,100%,100%);fill-opacity:0.392157;" d="M 15.875 2.867188 C 15.535156 2.867188 15.199219 2.996094 14.941406 3.253906 L 3.714844 14.480469 C 3.402344 14.792969 3.277344 15.21875 3.34375 15.621094 C 3.382812 15.355469 3.507812 15.097656 3.714844 14.890625 L 14.941406 3.664062 C 15.457031 3.148438 16.292969 3.148438 16.808594 3.664062 L 28.035156 14.890625 C 28.242188 15.097656 28.367188 15.355469 28.40625 15.621094 C 28.472656 15.21875 28.347656 14.792969 28.035156 14.480469 L 16.808594 3.253906 C 16.550781 2.996094 16.214844 2.867188 15.875 2.867188 Z M 15.875 2.867188 "/>
<path style=" stroke:none;fill-rule:nonzero;fill:rgb(0%,0%,0%);fill-opacity:0.235294;" d="M 15.875 27.964844 C 15.535156 27.964844 15.199219 27.835938 14.941406 27.578125 L 3.714844 16.351562 C 3.402344 16.039062 3.277344 15.613281 3.34375 15.210938 C 3.382812 15.476562 3.507812 15.734375 3.714844 15.941406 L 14.941406 27.167969 C 15.457031 27.683594 16.292969 27.683594 16.808594 27.167969 L 28.035156 15.941406 C 28.242188 15.734375 28.367188 15.476562 28.40625 15.210938 C 28.472656 15.613281 28.347656 16.039062 28.035156 16.351562 L 16.808594 27.578125 C 16.550781 27.835938 16.214844 27.964844 15.875 27.964844 Z M 15.875 27.964844 "/>
<path style=" stroke:none;fill-rule:nonzero;fill:rgb(12.941177%,12.941177%,12.941177%);fill-opacity:1;" d="M 3.648438 14.414062 C 3.09375 14.96875 3.09375 15.863281 3.648438 16.417969 L 14.875 27.644531 C 15.425781 28.199219 16.324219 28.199219 16.875 27.644531 L 28.101562 16.417969 C 28.65625 15.863281 28.65625 14.96875 28.101562 14.414062 L 16.875 3.191406 C 16.324219 2.636719 15.425781 2.636719 14.875 3.191406 Z M 3.78125 14.546875 L 15.003906 3.320312 C 15.488281 2.839844 16.261719 2.839844 16.746094 3.320312 L 27.96875 14.546875 C 28.453125 15.03125 28.453125 15.804688 27.96875 16.285156 L 16.746094 27.511719 C 16.261719 27.992188 15.488281 27.992188 15.007812 27.511719 L 3.78125 16.285156 C 3.296875 15.804688 3.296875 15.03125 3.78125 14.546875 Z M 3.78125 14.546875 "/>
<path style=" stroke:none;fill-rule:nonzero;fill:url(#linear1);" d="M 7.417969 15.371094 C 7.15625 15.628906 7.15625 16.046875 7.417969 16.304688 L 8.429688 17.316406 C 8.691406 17.578125 9.105469 17.578125 9.367188 17.316406 L 17.785156 8.898438 C 18.042969 8.640625 18.042969 8.222656 17.785156 7.964844 L 16.769531 6.949219 C 16.511719 6.691406 16.09375 6.691406 15.835938 6.949219 Z M 10.691406 18.644531 C 10.433594 18.902344 10.433594 19.320312 10.691406 19.578125 L 11.625 20.515625 C 11.886719 20.773438 12.304688 20.773438 12.5625 20.515625 L 17.238281 15.835938 C 17.5 15.578125 17.5 15.160156 17.238281 14.902344 L 16.304688 13.964844 C 16.042969 13.707031 15.628906 13.707031 15.367188 13.964844 Z M 13.964844 21.917969 C 13.707031 22.175781 13.707031 22.59375 13.964844 22.851562 L 14.980469 23.867188 C 15.238281 24.125 15.65625 24.125 15.914062 23.867188 L 17.316406 22.464844 C 17.578125 22.203125 17.578125 21.785156 17.316406 21.527344 L 16.304688 20.515625 C 16.042969 20.253906 15.628906 20.253906 15.367188 20.515625 Z M 13.964844 21.917969 "/>
<path style=" stroke:none;fill-rule:nonzero;fill:rgb(100%,100%,100%);fill-opacity:1;" d="M 16.304688 6.757812 C 16.132812 6.757812 15.964844 6.820312 15.835938 6.949219 L 7.417969 15.371094 C 7.242188 15.542969 7.1875 15.789062 7.246094 16.007812 C 7.273438 15.898438 7.332031 15.796875 7.417969 15.710938 L 15.835938 7.292969 C 16.09375 7.03125 16.511719 7.03125 16.769531 7.292969 L 17.785156 8.304688 C 17.871094 8.390625 17.925781 8.492188 17.957031 8.601562 C 18.015625 8.382812 17.957031 8.136719 17.785156 7.964844 L 16.769531 6.949219 C 16.640625 6.820312 16.472656 6.757812 16.304688 6.757812 Z M 15.835938 13.773438 C 15.667969 13.773438 15.496094 13.835938 15.367188 13.964844 L 10.691406 18.644531 C 10.515625 18.816406 10.460938 19.0625 10.519531 19.28125 C 10.546875 19.171875 10.605469 19.070312 10.691406 18.984375 L 15.367188 14.308594 C 15.628906 14.046875 16.042969 14.046875 16.304688 14.308594 L 17.238281 15.242188 C 17.324219 15.328125 17.382812 15.429688 17.410156 15.539062 C 17.46875 15.320312 17.414062 15.074219 17.238281 14.902344 L 16.304688 13.964844 C 16.175781 13.835938 16.003906 13.773438 15.835938 13.773438 Z M 15.835938 20.320312 C 15.667969 20.320312 15.496094 20.386719 15.367188 20.515625 L 13.964844 21.917969 C 13.792969 22.089844 13.734375 22.335938 13.792969 22.554688 C 13.824219 22.449219 13.878906 22.34375 13.964844 22.257812 L 15.367188 20.855469 C 15.628906 20.597656 16.042969 20.597656 16.304688 20.855469 L 17.316406 21.871094 C 17.402344 21.953125 17.460938 22.058594 17.488281 22.167969 C 17.546875 21.945312 17.492188 21.703125 17.316406 21.527344 L 16.304688 20.515625 C 16.175781 20.386719 16.003906 20.320312 15.835938 20.320312 Z M 15.835938 20.320312 "/>
<path style=" stroke:none;fill-rule:nonzero;fill:rgb(0%,0%,0%);fill-opacity:0.235294;" d="M 17.945312 8.644531 C 17.914062 8.738281 17.859375 8.824219 17.785156 8.898438 L 9.367188 17.316406 C 9.105469 17.578125 8.691406 17.578125 8.429688 17.316406 L 7.417969 16.304688 C 7.34375 16.230469 7.289062 16.144531 7.257812 16.050781 C 7.179688 16.28125 7.234375 16.546875 7.417969 16.730469 L 8.429688 17.742188 C 8.691406 18.003906 9.105469 18.003906 9.367188 17.742188 L 17.785156 9.324219 C 17.96875 9.140625 18.023438 8.875 17.945312 8.644531 Z M 17.398438 15.582031 C 17.367188 15.675781 17.3125 15.761719 17.238281 15.835938 L 12.5625 20.515625 C 12.304688 20.773438 11.886719 20.773438 11.625 20.515625 L 10.691406 19.578125 C 10.617188 19.503906 10.5625 19.417969 10.53125 19.324219 C 10.453125 19.554688 10.507812 19.820312 10.691406 20.003906 L 11.625 20.9375 C 11.886719 21.199219 12.304688 21.199219 12.5625 20.9375 L 17.238281 16.261719 C 17.421875 16.078125 17.476562 15.8125 17.398438 15.582031 Z M 17.476562 22.207031 C 17.445312 22.300781 17.390625 22.390625 17.316406 22.464844 L 15.914062 23.867188 C 15.65625 24.125 15.238281 24.125 14.976562 23.867188 L 13.964844 22.851562 C 13.890625 22.777344 13.835938 22.691406 13.804688 22.597656 C 13.726562 22.828125 13.78125 23.09375 13.964844 23.277344 L 14.976562 24.292969 C 15.238281 24.550781 15.65625 24.550781 15.914062 24.292969 L 17.316406 22.886719 C 17.5 22.703125 17.554688 22.4375 17.476562 22.207031 Z M 17.476562 22.207031 "/>
<path style="fill:none;stroke-width:3;stroke-linecap:round;stroke-linejoin:round;stroke:rgb(12.941177%,12.941177%,12.941177%);stroke-opacity:1;stroke-miterlimit:4;" d="M 118.6875 30.9375 C 114.5 35.0625 114.5 41.75 118.6875 45.875 L 134.875 62.0625 C 139.0625 66.25 145.6875 66.25 149.875 62.0625 L 284.5625 -72.625 C 288.6875 -76.75 288.6875 -83.4375 284.5625 -87.5625 L 268.3125 -103.8125 C 264.1875 -107.9375 257.5 -107.9375 253.375 -103.8125 Z M 171.0625 83.3125 C 166.9375 87.4375 166.9375 94.125 171.0625 98.25 L 186 113.25 C 190.1875 117.375 196.875 117.375 201 113.25 L 275.8125 38.375 C 280 34.25 280 27.5625 275.8125 23.4375 L 260.875 8.4375 C 256.6875 4.3125 250.0625 4.3125 245.875 8.4375 Z M 223.4375 135.6875 C 219.3125 139.8125 219.3125 146.5 223.4375 150.625 L 239.6875 166.875 C 243.8125 171 250.5 171 254.625 166.875 L 277.0625 144.4375 C 281.25 140.25 281.25 133.5625 277.0625 129.4375 L 260.875 113.25 C 256.6875 109.0625 250.0625 109.0625 245.875 113.25 Z M 223.4375 135.6875 " transform="matrix(0.0625,0,0,0.0625,0,13.4375)"/>
</g>
</svg>
