<?xml version="1.0" encoding="UTF-8"?>
<svg xmlns="http://www.w3.org/2000/svg" xmlns:xlink="http://www.w3.org/1999/xlink" width="32px" height="32px" viewBox="0 0 32 32" version="1.1">
<defs>
<linearGradient id="linear0" gradientUnits="userSpaceOnUse" x1="254" y1="233.5" x2="254" y2="254.666672" gradientTransform="matrix(0.062506,0,0,0.062506,-0.00000381506,13.438785)">
<stop offset="0" style="stop-color:rgb(0%,0%,0%);stop-opacity:0.27451;"/>
<stop offset="1" style="stop-color:rgb(0%,0%,0%);stop-opacity:0;"/>
</linearGradient>
<radialGradient id="radial0" gradientUnits="userSpaceOnUse" cx="450.908936" cy="189.579361" fx="450.908936" fy="189.579361" r="21.166656" gradientTransform="matrix(0.00000017417,-0.0781325,-0.140638,-0.000000101539,52.130648,63.595333)">
<stop offset="0" style="stop-color:rgb(0%,0%,0%);stop-opacity:0.313726;"/>
<stop offset="0.222222" style="stop-color:rgb(0%,0%,0%);stop-opacity:0.27451;"/>
<stop offset="1" style="stop-color:rgb(0%,0%,0%);stop-opacity:0;"/>
</radialGradient>
<radialGradient id="radial1" gradientUnits="userSpaceOnUse" cx="450.908936" cy="189.579361" fx="450.908936" fy="189.579361" r="21.166656" gradientTransform="matrix(-0.00000017417,0.0781325,0.140638,0.000000101539,-20.377613,-7.527479)">
<stop offset="0" style="stop-color:rgb(0%,0%,0%);stop-opacity:0.313726;"/>
<stop offset="0.222222" style="stop-color:rgb(0%,0%,0%);stop-opacity:0.27451;"/>
<stop offset="1" style="stop-color:rgb(0%,0%,0%);stop-opacity:0;"/>
</radialGradient>
<radialGradient id="radial2" gradientUnits="userSpaceOnUse" cx="450.908936" cy="189.579361" fx="450.908936" fy="189.579361" r="21.166656" gradientTransform="matrix(-0.00000017417,-0.0781325,0.140638,-0.000000101539,-20.377613,63.595333)">
<stop offset="0" style="stop-color:rgb(0%,0%,0%);stop-opacity:0.313726;"/>
<stop offset="0.222222" style="stop-color:rgb(0%,0%,0%);stop-opacity:0.27451;"/>
<stop offset="1" style="stop-color:rgb(0%,0%,0%);stop-opacity:0;"/>
</radialGradient>
<radialGradient id="radial3" gradientUnits="userSpaceOnUse" cx="450.908936" cy="189.579361" fx="450.908936" fy="189.579361" r="21.166656" gradientTransform="matrix(0.00000017417,0.0781325,-0.140638,0.000000101539,52.130646,-7.527479)">
<stop offset="0" style="stop-color:rgb(0%,0%,0%);stop-opacity:0.313726;"/>
<stop offset="0.222222" style="stop-color:rgb(0%,0%,0%);stop-opacity:0.27451;"/>
<stop offset="1" style="stop-color:rgb(0%,0%,0%);stop-opacity:0;"/>
</radialGradient>
<linearGradient id="linear1" gradientUnits="userSpaceOnUse" x1="169.333328" y1="233.5" x2="169.333328" y2="-168.666656" gradientTransform="matrix(0.062506,0,0,0.062506,0,13.438783)">
<stop offset="0" style="stop-color:rgb(55.29412%,43.137255%,38.82353%);stop-opacity:1;"/>
<stop offset="1" style="stop-color:rgb(63.137257%,53.333336%,49.803922%);stop-opacity:1;"/>
</linearGradient>
<linearGradient id="linear2" gradientUnits="userSpaceOnUse" x1="169.333328" y1="233.5" x2="169.333328" y2="-168.666656" gradientTransform="matrix(0.0559264,0,0,0.0559264,1.671212,13.65207)">
<stop offset="0" style="stop-color:rgb(100%,93.333334%,34.509805%);stop-opacity:1;"/>
<stop offset="1" style="stop-color:rgb(100%,94.509804%,46.27451%);stop-opacity:1;"/>
</linearGradient>
<linearGradient id="linear3" gradientUnits="userSpaceOnUse" x1="720" y1="1375.118164" x2="720" y2="415.118103" gradientTransform="matrix(0.016538,0,0,0.016538,0,0)">
<stop offset="0" style="stop-color:rgb(100%,93.333334%,34.509805%);stop-opacity:1;"/>
<stop offset="1" style="stop-color:rgb(100%,94.509804%,46.27451%);stop-opacity:1;"/>
</linearGradient>
<linearGradient id="linear4" gradientUnits="userSpaceOnUse" x1="720" y1="1375.118164" x2="720" y2="495.118103" gradientTransform="matrix(0.016538,0,0,0.016538,7.205061,0.663314)">
<stop offset="0" style="stop-color:rgb(100%,93.333334%,34.509805%);stop-opacity:1;"/>
<stop offset="1" style="stop-color:rgb(100%,94.509804%,46.27451%);stop-opacity:1;"/>
</linearGradient>
</defs>
<g id="surface1">
<path style=" stroke:none;fill-rule:nonzero;fill:url(#linear0);" d="M 5.953125 27.9375 L 25.800781 27.9375 L 25.800781 29.40625 L 5.953125 29.40625 Z M 5.953125 27.9375 "/>
<path style=" stroke:none;fill-rule:nonzero;fill:url(#radial0);" d="M 25.800781 28.035156 L 28.445312 28.035156 L 28.445312 26.710938 L 25.800781 26.710938 Z M 25.800781 28.035156 "/>
<path style=" stroke:none;fill-rule:nonzero;fill:url(#radial1);" d="M 5.953125 28.035156 L 3.308594 28.035156 L 3.308594 29.355469 L 5.953125 29.355469 Z M 5.953125 28.035156 "/>
<path style=" stroke:none;fill-rule:nonzero;fill:url(#radial2);" d="M 5.953125 28.035156 L 3.308594 28.035156 L 3.308594 26.710938 L 5.953125 26.710938 Z M 5.953125 28.035156 "/>
<path style=" stroke:none;fill-rule:nonzero;fill:url(#radial3);" d="M 25.800781 28.035156 L 28.445312 28.035156 L 28.445312 29.355469 L 25.800781 29.355469 Z M 25.800781 28.035156 "/>
<path style=" stroke:none;fill-rule:nonzero;fill:url(#linear1);" d="M 4.628906 2.894531 L 27.121094 2.894531 C 27.851562 2.894531 28.445312 3.488281 28.445312 4.21875 L 28.445312 26.710938 C 28.445312 27.441406 27.851562 28.035156 27.121094 28.035156 L 4.628906 28.035156 C 3.898438 28.035156 3.308594 27.441406 3.308594 26.710938 L 3.308594 4.21875 C 3.308594 3.488281 3.898438 2.894531 4.628906 2.894531 Z M 4.628906 2.894531 "/>
<path style=" stroke:none;fill-rule:nonzero;fill:rgb(90.196079%,90.196079%,90.196079%);fill-opacity:0.392157;" d="M 4.628906 2.894531 C 3.898438 2.894531 3.308594 3.484375 3.308594 4.21875 L 3.308594 4.382812 C 3.308594 3.652344 3.898438 3.058594 4.628906 3.0625 L 27.121094 3.0625 C 27.855469 3.058594 28.445312 3.652344 28.445312 4.382812 L 28.445312 4.21875 C 28.445312 3.484375 27.855469 2.894531 27.121094 2.894531 Z M 4.628906 2.894531 "/>
<path style=" stroke:none;fill-rule:nonzero;fill:rgb(0%,0%,0%);fill-opacity:0.196078;" d="M 4.628906 28.035156 C 3.898438 28.035156 3.308594 27.445312 3.308594 26.710938 L 3.308594 26.546875 C 3.308594 27.277344 3.898438 27.867188 4.628906 27.867188 L 27.121094 27.867188 C 27.855469 27.867188 28.445312 27.277344 28.445312 26.546875 L 28.445312 26.710938 C 28.445312 27.445312 27.855469 28.035156 27.121094 28.035156 Z M 4.628906 28.035156 "/>
<path style="fill:none;stroke-width:3;stroke-linecap:round;stroke-linejoin:miter;stroke:rgb(12.941177%,12.941177%,12.941177%);stroke-opacity:1;stroke-miterlimit:4;" d="M 74.055428 -168.691922 L 433.896065 -168.691922 C 445.582449 -168.691922 455.081542 -159.192829 455.081542 -147.506445 L 455.081542 212.334192 C 455.081542 224.020576 445.582449 233.519669 433.896065 233.519669 L 74.055428 233.519669 C 62.369044 233.519669 52.932445 224.020576 52.932445 212.334192 L 52.932445 -147.506445 C 52.932445 -159.192829 62.369044 -168.691922 74.055428 -168.691922 Z M 74.055428 -168.691922 " transform="matrix(0.062506,0,0,0.062506,0,13.438783)"/>
<path style=" stroke:none;fill-rule:nonzero;fill:url(#linear2);" d="M 5.621094 4.21875 C 5.074219 4.21875 4.628906 4.660156 4.628906 5.210938 L 4.628906 25.71875 C 4.628906 26.269531 5.074219 26.710938 5.621094 26.710938 L 26.128906 26.710938 C 26.679688 26.710938 27.121094 26.269531 27.121094 25.71875 L 27.121094 5.210938 C 27.121094 4.660156 26.679688 4.21875 26.128906 4.21875 Z M 6.285156 5.210938 L 25.46875 5.210938 C 25.835938 5.210938 26.128906 5.507812 26.128906 5.871094 L 26.128906 25.058594 C 26.128906 25.421875 25.835938 25.71875 25.46875 25.71875 L 6.285156 25.71875 C 5.917969 25.71875 5.621094 25.421875 5.621094 25.058594 L 5.621094 5.871094 C 5.621094 5.507812 5.917969 5.210938 6.285156 5.210938 Z M 6.285156 5.210938 "/>
<path style=" stroke:none;fill-rule:nonzero;fill:rgb(100%,100%,100%);fill-opacity:0.392157;" d="M 5.621094 4.21875 C 5.074219 4.21875 4.628906 4.660156 4.628906 5.210938 L 4.628906 5.511719 C 4.628906 4.964844 5.074219 4.519531 5.621094 4.519531 L 26.128906 4.519531 C 26.679688 4.519531 27.121094 4.964844 27.121094 5.511719 L 27.121094 5.210938 C 27.121094 4.660156 26.679688 4.21875 26.128906 4.21875 Z M 5.621094 25.058594 L 5.621094 25.359375 C 5.621094 25.726562 5.917969 26.019531 6.285156 26.019531 L 25.46875 26.019531 C 25.835938 26.019531 26.128906 25.726562 26.128906 25.359375 L 26.128906 25.058594 C 26.128906 25.421875 25.835938 25.71875 25.46875 25.71875 L 6.285156 25.71875 C 5.917969 25.71875 5.621094 25.421875 5.621094 25.058594 Z M 5.621094 25.058594 "/>
<path style=" stroke:none;fill-rule:nonzero;fill:rgb(0%,0%,0%);fill-opacity:0.235294;" d="M 6.285156 5.234375 C 5.917969 5.234375 5.621094 5.53125 5.621094 5.894531 L 5.621094 6.394531 C 5.621094 6.027344 5.917969 5.734375 6.285156 5.734375 L 25.46875 5.734375 C 25.835938 5.734375 26.128906 6.027344 26.128906 6.394531 L 26.128906 5.894531 C 26.128906 5.53125 25.835938 5.234375 25.46875 5.234375 Z M 4.628906 25.742188 L 4.628906 26.238281 C 4.628906 26.789062 5.074219 27.234375 5.621094 27.234375 L 26.128906 27.234375 C 26.679688 27.234375 27.121094 26.789062 27.121094 26.238281 L 27.121094 25.742188 C 27.121094 26.292969 26.679688 26.734375 26.128906 26.734375 L 5.621094 26.734375 C 5.074219 26.734375 4.628906 26.292969 4.628906 25.742188 Z M 4.628906 25.742188 "/>
<path style="fill:none;stroke-width:11.338583;stroke-linecap:round;stroke-linejoin:miter;stroke:rgb(12.941177%,12.941177%,12.941177%);stroke-opacity:1;stroke-miterlimit:4;" d="M 339.88882 255.093763 C 306.82111 255.093763 279.894546 281.784129 279.894546 315.088037 L 279.894546 1555.127165 C 279.894546 1588.431073 306.82111 1615.121439 339.88882 1615.121439 L 1579.927948 1615.121439 C 1613.231856 1615.121439 1639.922222 1588.431073 1639.922222 1555.127165 L 1639.922222 315.088037 C 1639.922222 281.784129 1613.231856 255.093763 1579.927948 255.093763 Z M 380.042468 315.088037 L 1540.010498 315.088037 C 1562.213103 315.088037 1579.927948 333.03908 1579.927948 355.005487 L 1579.927948 1515.209715 C 1579.927948 1537.176122 1562.213103 1555.127165 1540.010498 1555.127165 L 380.042468 1555.127165 C 357.839863 1555.127165 339.88882 1537.176122 339.88882 1515.209715 L 339.88882 355.005487 C 339.88882 333.03908 357.839863 315.088037 380.042468 315.088037 Z M 380.042468 315.088037 " transform="matrix(0.016538,0,0,0.016538,0,0)"/>
<path style=" stroke:none;fill-rule:nonzero;fill:url(#linear3);" d="M 14.515625 8.195312 C 12.507812 8.195312 11.007812 8.832031 10.199219 10.089844 C 9.363281 11.398438 9.261719 13.042969 9.253906 15.007812 C 9.242188 15.105469 9.242188 15.203125 9.253906 15.296875 L 9.253906 20.445312 C 9.25 20.804688 9.441406 21.140625 9.75 21.320312 C 10.0625 21.503906 10.445312 21.503906 10.757812 21.320312 C 11.066406 21.140625 11.257812 20.804688 11.253906 20.445312 L 11.253906 16.152344 L 14.222656 16.152344 C 14.582031 16.15625 14.917969 15.96875 15.097656 15.65625 C 15.277344 15.347656 15.277344 14.960938 15.097656 14.652344 C 14.917969 14.339844 14.582031 14.152344 14.222656 14.15625 L 11.273438 14.15625 C 11.332031 12.742188 11.523438 11.726562 11.882812 11.167969 C 12.320312 10.484375 12.984375 10.125 14.84375 10.199219 C 15.203125 10.21875 15.546875 10.042969 15.742188 9.738281 C 15.933594 9.4375 15.949219 9.050781 15.78125 8.734375 C 15.613281 8.414062 15.285156 8.210938 14.925781 8.203125 C 14.785156 8.199219 14.648438 8.195312 14.515625 8.195312 Z M 14.515625 8.195312 "/>
<path style=" stroke:none;fill-rule:nonzero;fill:rgb(100%,100%,100%);fill-opacity:0.392157;" d="M 14.515625 8.195312 C 12.507812 8.195312 11.007812 8.832031 10.199219 10.089844 C 9.363281 11.398438 9.261719 13.042969 9.253906 15.007812 C 9.242188 15.105469 9.242188 15.203125 9.253906 15.296875 L 9.253906 15.667969 C 9.253906 15.667969 9.253906 15.664062 9.253906 15.664062 C 9.261719 13.699219 9.363281 12.054688 10.199219 10.742188 C 11.007812 9.484375 12.507812 8.851562 14.515625 8.851562 C 14.648438 8.851562 14.785156 8.851562 14.925781 8.859375 C 15.339844 8.871094 15.707031 9.136719 15.839844 9.53125 C 15.945312 9.230469 15.902344 8.894531 15.71875 8.632812 C 15.539062 8.371094 15.242188 8.210938 14.925781 8.203125 C 14.785156 8.199219 14.648438 8.195312 14.515625 8.195312 Z M 11.3125 14.15625 C 11.292969 14.363281 11.28125 14.582031 11.273438 14.8125 L 14.222656 14.8125 C 14.652344 14.804688 15.035156 15.074219 15.175781 15.480469 C 15.28125 15.175781 15.234375 14.835938 15.042969 14.570312 C 14.855469 14.308594 14.546875 14.152344 14.222656 14.15625 Z M 11.3125 14.15625 "/>
<path style=" stroke:none;fill-rule:nonzero;fill:rgb(0%,0%,0%);fill-opacity:0.235294;" d="M 15.839844 9.507812 C 15.691406 9.925781 15.285156 10.195312 14.84375 10.171875 C 12.984375 10.097656 12.320312 10.457031 11.882812 11.140625 C 11.523438 11.699219 11.332031 12.714844 11.273438 14.128906 L 11.3125 14.128906 C 11.398438 13.058594 11.582031 12.269531 11.882812 11.800781 C 12.320312 11.117188 12.984375 10.757812 14.84375 10.832031 C 15.175781 10.851562 15.496094 10.703125 15.695312 10.4375 C 15.894531 10.167969 15.949219 9.820312 15.839844 9.507812 Z M 15.175781 15.457031 C 15.035156 15.863281 14.652344 16.132812 14.222656 16.125 L 11.253906 16.125 L 11.253906 16.789062 L 14.222656 16.789062 C 14.546875 16.792969 14.855469 16.636719 15.046875 16.371094 C 15.234375 16.105469 15.285156 15.765625 15.175781 15.457031 Z M 9.253906 15.648438 C 9.242188 15.742188 9.242188 15.839844 9.253906 15.933594 Z M 9.253906 20.421875 L 9.253906 21.082031 C 9.25 21.441406 9.441406 21.773438 9.75 21.957031 C 10.0625 22.136719 10.445312 22.136719 10.757812 21.957031 C 11.066406 21.773438 11.257812 21.441406 11.253906 21.082031 L 11.253906 20.421875 C 11.257812 20.78125 11.066406 21.113281 10.757812 21.292969 C 10.445312 21.476562 10.0625 21.476562 9.75 21.292969 C 9.441406 21.113281 9.25 20.78125 9.253906 20.421875 Z M 9.253906 20.421875 "/>
<path style="fill:none;stroke-width:11.338583;stroke-linecap:round;stroke-linejoin:round;stroke:rgb(12.941177%,12.941177%,12.941177%);stroke-opacity:1;stroke-miterlimit:4;" d="M 877.711504 495.543255 C 756.305769 495.543255 665.605764 534.043518 616.712793 610.099251 C 566.166436 689.225557 560.02529 788.664885 559.552894 907.472444 C 558.8443 913.377392 558.8443 919.28234 559.552894 924.95109 L 559.552894 1236.259961 C 559.316696 1257.99017 570.890395 1278.303192 589.550031 1289.168297 C 608.445865 1300.2696 631.593262 1300.2696 650.489097 1289.168297 C 669.148733 1278.303192 680.722432 1257.99017 680.486234 1236.259961 L 680.486234 976.678437 L 859.99666 976.678437 C 881.726869 976.914635 902.039891 965.577134 912.904996 946.6813 C 923.770101 928.021663 923.770101 904.638068 912.904996 885.978432 C 902.039891 867.082598 881.726869 855.745097 859.99666 855.981295 L 681.667223 855.981295 C 685.210192 770.477645 696.783891 709.066183 718.5141 675.289879 C 744.968268 633.955242 785.121916 612.225032 897.552131 616.712793 C 919.28234 617.893782 940.067758 607.264876 951.877654 588.841437 C 963.451353 570.654197 964.396144 547.270602 954.239633 528.138569 C 944.083123 508.770339 924.242496 496.488047 902.512287 496.015651 C 894.009162 495.779453 885.742234 495.543255 877.711504 495.543255 Z M 877.711504 495.543255 " transform="matrix(0.016538,0,0,0.016538,0,0)"/>
<path style=" stroke:none;fill-rule:nonzero;fill:url(#linear4);" d="M 17.472656 10.484375 C 17.203125 10.480469 16.941406 10.585938 16.75 10.777344 C 16.5625 10.96875 16.457031 11.226562 16.460938 11.496094 L 16.460938 20.332031 C 16.429688 20.625 16.527344 20.914062 16.730469 21.125 C 16.730469 21.128906 16.734375 21.128906 16.734375 21.128906 C 16.753906 21.148438 16.773438 21.167969 16.796875 21.1875 C 16.804688 21.195312 16.816406 21.207031 16.828125 21.214844 C 16.839844 21.226562 16.851562 21.234375 16.863281 21.242188 C 16.886719 21.257812 16.910156 21.273438 16.933594 21.289062 C 16.933594 21.289062 16.933594 21.292969 16.9375 21.292969 C 17.089844 21.386719 17.265625 21.4375 17.445312 21.441406 C 17.8125 21.445312 18.15625 21.246094 18.332031 20.921875 L 19.609375 19.15625 L 20.886719 20.925781 C 21.058594 21.238281 21.386719 21.433594 21.742188 21.441406 C 21.820312 21.441406 21.894531 21.433594 21.972656 21.417969 C 21.976562 21.414062 21.980469 21.414062 21.988281 21.414062 C 22.011719 21.40625 22.035156 21.402344 22.058594 21.394531 C 22.078125 21.386719 22.09375 21.382812 22.113281 21.375 C 22.121094 21.371094 22.132812 21.367188 22.140625 21.363281 C 22.558594 21.195312 22.8125 20.765625 22.757812 20.316406 L 22.757812 11.496094 C 22.761719 11.136719 22.570312 10.804688 22.261719 10.625 C 21.949219 10.441406 21.566406 10.441406 21.257812 10.625 C 20.945312 10.804688 20.753906 11.136719 20.761719 11.496094 L 20.761719 17.339844 L 20.507812 16.988281 C 20.335938 16.65625 19.996094 16.445312 19.621094 16.441406 C 19.601562 16.441406 19.582031 16.441406 19.5625 16.441406 C 19.558594 16.441406 19.554688 16.445312 19.550781 16.445312 C 19.191406 16.460938 18.867188 16.671875 18.707031 16.996094 L 18.457031 17.339844 L 18.457031 11.496094 C 18.460938 11.234375 18.359375 10.976562 18.175781 10.785156 C 17.988281 10.597656 17.738281 10.488281 17.472656 10.484375 Z M 17.472656 10.484375 "/>
<path style=" stroke:none;fill-rule:nonzero;fill:rgb(100%,100%,100%);fill-opacity:0.392157;" d="M 17.472656 10.484375 C 17.203125 10.480469 16.941406 10.585938 16.75 10.777344 C 16.5625 10.96875 16.457031 11.226562 16.460938 11.496094 L 16.460938 12.179688 C 16.457031 11.910156 16.5625 11.652344 16.75 11.460938 C 16.941406 11.269531 17.203125 11.164062 17.472656 11.167969 C 17.738281 11.171875 17.988281 11.28125 18.175781 11.46875 C 18.359375 11.660156 18.460938 11.914062 18.457031 12.179688 L 18.457031 11.496094 C 18.460938 11.234375 18.359375 10.976562 18.175781 10.785156 C 17.988281 10.597656 17.738281 10.488281 17.472656 10.484375 Z M 21.742188 10.488281 C 21.191406 10.496094 20.753906 10.949219 20.761719 11.496094 L 20.761719 12.179688 C 20.753906 11.820312 20.945312 11.488281 21.257812 11.308594 C 21.566406 11.125 21.949219 11.125 22.261719 11.308594 C 22.570312 11.488281 22.761719 11.820312 22.757812 12.179688 L 22.757812 11.496094 C 22.761719 11.226562 22.652344 10.96875 22.460938 10.777344 C 22.269531 10.585938 22.011719 10.484375 21.742188 10.488281 Z M 19.621094 16.441406 C 19.601562 16.441406 19.582031 16.441406 19.5625 16.441406 C 19.558594 16.441406 19.554688 16.445312 19.550781 16.445312 C 19.191406 16.460938 18.867188 16.671875 18.707031 16.996094 L 18.457031 17.339844 L 18.457031 18.023438 L 18.707031 17.679688 C 18.867188 17.355469 19.191406 17.144531 19.550781 17.128906 C 19.554688 17.125 19.558594 17.125 19.5625 17.125 C 19.582031 17.125 19.601562 17.125 19.621094 17.125 C 19.996094 17.128906 20.335938 17.339844 20.507812 17.671875 L 20.761719 18.023438 L 20.761719 17.339844 L 20.507812 16.988281 C 20.335938 16.65625 19.996094 16.445312 19.621094 16.441406 Z M 22.757812 20.316406 L 22.757812 20.554688 C 22.765625 20.472656 22.765625 20.394531 22.757812 20.316406 Z M 16.460938 20.332031 C 16.453125 20.402344 16.453125 20.46875 16.460938 20.539062 Z M 16.460938 20.332031 "/>
<path style=" stroke:none;fill-rule:nonzero;fill:rgb(0%,0%,0%);fill-opacity:0.235294;" d="M 19.609375 19.15625 L 18.332031 20.921875 C 18.15625 21.246094 17.8125 21.445312 17.445312 21.441406 C 17.265625 21.4375 17.089844 21.386719 16.9375 21.292969 C 16.933594 21.292969 16.933594 21.289062 16.933594 21.289062 C 16.910156 21.273438 16.886719 21.257812 16.863281 21.242188 C 16.851562 21.234375 16.839844 21.226562 16.828125 21.214844 C 16.816406 21.207031 16.804688 21.195312 16.796875 21.1875 C 16.773438 21.167969 16.753906 21.148438 16.734375 21.128906 C 16.734375 21.128906 16.730469 21.128906 16.730469 21.125 C 16.578125 20.964844 16.484375 20.757812 16.460938 20.539062 L 16.460938 20.996094 C 16.429688 21.285156 16.527344 21.578125 16.730469 21.789062 C 16.730469 21.789062 16.734375 21.789062 16.734375 21.789062 C 16.753906 21.808594 16.773438 21.832031 16.796875 21.847656 C 16.804688 21.859375 16.816406 21.867188 16.828125 21.875 C 16.839844 21.886719 16.851562 21.894531 16.863281 21.90625 C 16.886719 21.921875 16.910156 21.9375 16.933594 21.953125 C 16.933594 21.953125 16.933594 21.953125 16.9375 21.953125 C 17.089844 22.046875 17.265625 22.097656 17.445312 22.101562 C 17.8125 22.109375 18.15625 21.910156 18.332031 21.585938 L 19.609375 19.820312 L 20.886719 21.585938 C 21.058594 21.898438 21.386719 22.097656 21.742188 22.101562 C 21.820312 22.101562 21.894531 22.09375 21.972656 22.078125 C 21.976562 22.078125 21.980469 22.074219 21.988281 22.074219 C 22.011719 22.070312 22.035156 22.0625 22.058594 22.054688 C 22.078125 22.050781 22.09375 22.042969 22.113281 22.035156 C 22.121094 22.03125 22.132812 22.03125 22.140625 22.027344 C 22.558594 21.855469 22.8125 21.425781 22.757812 20.976562 L 22.757812 20.554688 C 22.714844 20.917969 22.480469 21.226562 22.140625 21.363281 C 22.132812 21.367188 22.121094 21.371094 22.113281 21.375 C 22.09375 21.382812 22.078125 21.386719 22.058594 21.394531 C 22.035156 21.402344 22.011719 21.40625 21.988281 21.414062 C 21.980469 21.414062 21.976562 21.414062 21.972656 21.417969 C 21.894531 21.433594 21.820312 21.441406 21.742188 21.441406 C 21.386719 21.433594 21.058594 21.238281 20.886719 20.925781 Z M 19.609375 19.15625 "/>
<path style="fill:none;stroke-width:3;stroke-linecap:round;stroke-linejoin:round;stroke:rgb(12.941177%,12.941177%,12.941177%);stroke-opacity:1;stroke-miterlimit:4;" d="M 279.535806 -47.266018 C 275.223717 -47.328512 271.036617 -45.641173 267.97441 -42.578965 C 264.974696 -39.516758 263.287357 -35.392152 263.349851 -31.080063 L 263.349851 110.281437 C 262.849899 114.96849 264.41225 119.593048 267.66194 122.967726 C 267.66194 123.03022 267.724434 123.03022 267.724434 123.03022 C 268.036904 123.34269 268.349374 123.65516 268.724338 123.96763 C 268.849326 124.092618 269.036808 124.2801 269.22429 124.405088 C 269.411772 124.592571 269.599255 124.717559 269.786737 124.842547 C 270.161701 125.092523 270.536665 125.342499 270.911629 125.592475 C 270.911629 125.592475 270.911629 125.654969 270.974123 125.654969 C 273.411391 127.154826 276.223622 127.967248 279.098347 128.029742 C 284.972786 128.092236 290.472261 124.905041 293.284493 119.718036 L 313.720041 91.470734 L 334.15559 119.78053 C 336.905327 124.780053 342.154826 127.904754 347.841783 128.029742 C 349.091663 128.029742 350.27905 127.904754 351.528931 127.654778 C 351.591425 127.592284 351.653919 127.592284 351.778907 127.592284 C 352.153871 127.467296 352.528835 127.404802 352.903799 127.279814 C 353.21627 127.154826 353.466246 127.092332 353.778716 126.967344 C 353.903704 126.90485 354.091186 126.842356 354.216174 126.779862 C 360.903035 124.092618 364.965148 117.218275 364.090231 110.031461 L 364.090231 -31.080063 C 364.152725 -36.829514 361.090518 -42.141507 356.153489 -45.016233 C 351.153966 -47.953452 345.029551 -47.953452 340.092523 -45.016233 C 335.093 -42.141507 332.030793 -36.829514 332.155781 -31.080063 L 332.155781 62.411009 L 328.093669 56.786546 C 325.343931 51.474553 319.90695 48.099875 313.907523 48.037381 C 313.595053 48.037381 313.282583 48.037381 312.970113 48.037381 C 312.907619 48.037381 312.845125 48.099875 312.782631 48.099875 C 307.03318 48.349851 301.846175 51.724529 299.28392 56.911534 L 295.284302 62.411009 L 295.284302 -31.080063 C 295.346796 -35.267164 293.721951 -39.39177 290.784731 -42.453977 C 287.785018 -45.453691 283.7854 -47.203524 279.535806 -47.266018 Z M 279.535806 -47.266018 " transform="matrix(0.062506,0,0,0.062506,0,13.438783)"/>
</g>
</svg>
