<svg height="32pt" viewBox="0 0 32 32" width="32pt" xmlns="http://www.w3.org/2000/svg" xmlns:xlink="http://www.w3.org/1999/xlink"><linearGradient id="a"><stop offset="0" stop-opacity=".314"/><stop offset=".222" stop-opacity=".275"/><stop offset="1" stop-opacity="0"/></linearGradient><radialGradient id="b" cx="450.909" cy="189.579" gradientTransform="matrix(0 -.07813 -.14064 0 43.53 63.595)" gradientUnits="userSpaceOnUse" r="21.167" xlink:href="#a"/><radialGradient id="c" cx="450.909" cy="189.579" gradientTransform="matrix(0 .07813 .14064 0 -11.778 -7.527)" gradientUnits="userSpaceOnUse" r="21.167" xlink:href="#a"/><radialGradient id="d" cx="450.909" cy="189.579" gradientTransform="matrix(0 -.07813 .14064 0 -11.778 63.595)" gradientUnits="userSpaceOnUse" r="21.167" xlink:href="#a"/><radialGradient id="e" cx="450.909" cy="189.579" gradientTransform="matrix(0 .07813 -.14064 0 43.53 -7.527)" gradientUnits="userSpaceOnUse" r="21.167" xlink:href="#a"/><linearGradient id="f" gradientTransform="matrix(.01336 0 0 .0625 12.465 13.439)" gradientUnits="userSpaceOnUse" x1="255.323" x2="255.323" y1="233.5" y2="254.667"><stop offset="0" stop-opacity=".275"/><stop offset="1" stop-opacity="0"/></linearGradient><linearGradient id="g"><stop offset="0" stop-color="#ffb74d"/><stop offset="1" stop-color="#ffa726"/></linearGradient><linearGradient id="h" gradientUnits="userSpaceOnUse" x1="19.514" x2="19.514" xlink:href="#g" y1="16.7879375" y2="18.7723125"/><linearGradient id="i" gradientTransform="matrix(.016538 .0002572 -.0002572 .016538 0 0)" gradientUnits="userSpaceOnUse" x1="960" x2="960" y1="1695.118" y2="215.118"><stop offset="0" stop-color="#26a69a"/><stop offset="1" stop-color="#4db6ac"/></linearGradient><linearGradient id="j" gradientUnits="userSpaceOnUse" x1="12.237" x2="12.237" xlink:href="#g" y1="16.7879375" y2="18.7723125"/><linearGradient id="k"><stop offset="0" stop-color="#616161"/><stop offset="1" stop-color="#424242"/></linearGradient><linearGradient id="l" gradientUnits="userSpaceOnUse" x1="309.563" x2="309.563" xlink:href="#k" y1="61.5215" y2="77.3965"/><linearGradient id="m" gradientUnits="userSpaceOnUse" x1="198.438" x2="198.438" xlink:href="#k" y1="61.5215" y2="77.3965"/><path d="m17.2 28.035h2.644v-1.324h-2.645zm0 0" fill="url(#b)"/><path d="m14.555 28.035h-2.649v1.32h2.649zm0 0" fill="url(#c)"/><path d="m14.555 28.035h-2.649v-1.324h2.649zm0 0" fill="url(#d)"/><path d="m17.2 28.035h2.644v1.32h-2.645zm0 0" fill="url(#e)"/><path d="m14.555 27.703h2.644v1.652h-2.644zm0 0" fill="url(#f)"/><path d="m19.516 16.79a.991.991 0 1 1 .002 1.981.991.991 0 0 1 -.002-1.982zm0 0" fill="url(#h)"/><path d="m19.516 16.79a.991.991 0 1 1 .002 1.981.991.991 0 0 1 -.002-1.982zm0 0" fill="url(#h)"/><path d="m15.875 3.492c-.66 0-1.652.727-2.313 1.387-1.324 1.324-3.308 4.3-3.968 5.625-.664 1.324-.332 1.984.328 2.316 1.324.66 1.984 1.653 1.984 3.305v.035a1.649 1.649 0 0 0 -1.32 1.621c0 .543.258 1.024.66 1.324v3.614a8.57 8.57 0 0 1 -3.969-7.254c0-1.707.493-3.297 1.344-4.63.309-.663-.351-1.655-1.531 0a9.896 9.896 0 0 0 -1.137 4.63 9.9 9.9 0 0 0 5.293 8.785c.016.008.027.016.043.023.027.012.05.028.078.04.02.011.04.019.063.03a.636.636 0 0 0 .098.047l.07.036c.035.015.066.031.097.047l.067.03c.035.017.066.028.097.044.235.101.47.195.711.281v-4.718c.36.2.828.344 1.32.446v5.984a11.22 11.22 0 0 1 -9.26-11.075 11.22 11.22 0 0 1 5.957-9.934c1.652-.816.992-1.808 0-1.476a12.537 12.537 0 0 0 -7.277 11.41c0 6.289 4.57 11.469 10.582 12.414.011 0 .02.004.027.004.035.004.07.012.105.015.016.004.036.004.051.008.04.004.074.012.11.016.02.004.035.004.05.008l.102.011c.02.004.039.004.059.008.03.004.058.004.09.008.242.027.484.047.73.059v-7.282c.238.016.46.024.66.024.203 0 .426-.008.664-.024v7.282c.246-.012.488-.032.73-.059.028-.004.06-.004.09-.008.02-.004.036-.004.055-.008l.106-.011c.015-.004.03-.004.046-.008.04-.004.075-.012.11-.016.02-.004.039-.004.054-.008.036-.003.07-.011.102-.015.012 0 .02-.004.027-.004a12.537 12.537 0 0 0 10.586-12.414c0-5.07-2.972-9.422-7.277-11.41-.992-.332-1.652.66 0 1.476a11.217 11.217 0 0 1 5.953 9.934 11.22 11.22 0 0 1 -9.262 11.074v-5.984c.496-.102.961-.246 1.325-.446v4.72c.242-.087.476-.18.707-.282.035-.016.066-.027.101-.043.02-.012.043-.02.067-.031l.093-.047h.004l.07-.035a.636.636 0 0 0 .09-.043c.004 0 .004-.004.008-.004.02-.012.043-.02.063-.032.027-.011.05-.027.078-.039l.043-.023a9.9 9.9 0 0 0 5.293-8.785 9.9 9.9 0 0 0 -1.14-4.63c-1.177-1.655-1.837-.663-1.528 0a8.566 8.566 0 0 1 1.344 4.63 8.57 8.57 0 0 1 -3.97 7.254v-3.614c.403-.3.661-.78.661-1.324 0-.804-.566-1.468-1.324-1.62v-.036c0-1.652.664-2.645 1.988-3.305.66-.332.992-.992.328-2.316-.66-1.324-2.644-4.3-3.969-5.625-.66-.66-1.652-1.387-2.316-1.387zm-3.637 13.298c.551 0 .992.441.992.992a.991.991 0 1 1 -1.984 0c0-.55.441-.992.992-.992zm7.278 0c.55 0 .992.441.992.992a.991.991 0 1 1 -1.985 0c0-.55.442-.992.993-.992zm0 0" fill="url(#i)"/><path d="m12.238 16.79a.991.991 0 1 1 .002 1.981.991.991 0 0 1 -.002-1.982zm0 0" fill="url(#j)"/><path d="m15.875 3.492c-.66 0-1.652.727-2.313 1.387-1.324 1.324-3.308 4.3-3.968 5.625-.293.586-.395 1.043-.356 1.398.032-.3.14-.66.356-1.086.66-1.32 2.644-4.296 3.969-5.62.66-.66 1.652-1.391 2.312-1.391.664 0 1.656.73 2.316 1.39 1.325 1.325 3.309 4.301 3.97 5.621.214.426.323.786.35 1.086.04-.355-.058-.812-.35-1.398-.661-1.324-2.645-4.3-3.97-5.625-.66-.66-1.652-1.387-2.316-1.387zm-4.898.496c-.122 0-.254.02-.391.067a12.537 12.537 0 0 0 -7.277 11.57 12.542 12.542 0 0 1 7.277-11.258c.476-.16.875-.012.98.274.114-.368-.164-.645-.59-.653zm9.796 0c-.425.008-.699.285-.585.653.101-.286.503-.434.98-.274a12.549 12.549 0 0 1 7.277 11.258v-.16c0-5.07-2.972-9.422-7.277-11.41a1.246 1.246 0 0 0 -.395-.067zm-12.53 5.942c-.278-.004-.673.234-1.153.906a9.896 9.896 0 0 0 -1.137 4.629v.152a9.932 9.932 0 0 1 1.137-4.469c.894-1.25 1.488-.988 1.59-.496.07-.351-.094-.718-.438-.722zm15.269 0c-.344.004-.512.37-.442.722.106-.492.7-.754 1.59.496a9.881 9.881 0 0 1 1.137 4.47c0-.052.004-.102.004-.153a9.9 9.9 0 0 0 -1.14-4.63c-.477-.67-.872-.91-1.15-.905zm.965 5.691a8.58 8.58 0 0 1 -3.97 7.098v.316a8.577 8.577 0 0 0 3.97-7.258zm-17.2 0v.156a8.577 8.577 0 0 0 3.97 7.258v-.316a8.57 8.57 0 0 1 -3.97-7.098zm-2.644 0c0 .055-.004.106-.004.156a11.22 11.22 0 0 0 9.262 11.075v-.313a11.22 11.22 0 0 1 -9.258-10.918zm22.488 0a11.22 11.22 0 0 1 -9.261 10.919v.313a11.22 11.22 0 0 0 9.262-11.075v-.156zm-15.219.54a1.652 1.652 0 0 0 -1.316 1.62c0 .051 0 .106.004.157.07-.731.61-1.32 1.316-1.465v-.032c0-.097 0-.187-.004-.28zm7.95 0c-.004.093-.008.183-.008.28v.032c.707.144 1.25.734 1.316 1.465a1.652 1.652 0 0 0 -1.309-1.777zm-8.594 1.776a.989.989 0 0 0 .98 1.148.989.989 0 0 0 .98-1.148.992.992 0 0 1 -1.96 0zm7.277 0a.989.989 0 0 0 .98 1.148.989.989 0 0 0 .981-1.148.992.992 0 1 1 -1.96 0zm0 0" fill="#fff" fill-opacity=".392"/><path d="m11.563 4.32c-.086.27-.383.586-.977.88a11.225 11.225 0 0 0 -5.957 9.933c0 .055.004.11.004.164a11.213 11.213 0 0 1 5.953-9.766c.863-.426 1.094-.902.976-1.21zm8.628 0c-.12.309.114.785.977 1.211a11.22 11.22 0 0 1 5.953 9.766v-.164c0-4.313-2.402-8.043-5.953-9.934-.594-.293-.89-.61-.977-.879zm-11.511 6.008a.775.775 0 0 1 -.059.176 8.576 8.576 0 0 0 -1.344 4.629v.164a8.554 8.554 0 0 1 1.344-4.461.798.798 0 0 0 .059-.508zm14.394 0a.798.798 0 0 0 .059.508 8.554 8.554 0 0 1 1.344 4.46v-.163a8.576 8.576 0 0 0 -1.344-4.63.775.775 0 0 1 -.059-.175zm-13.832 1.25c-.066.637.23 1.016.68 1.242 1.242.621 1.902 1.532 1.976 3.012.004-.004.008-.004.008-.004v-.031c0-1.656-.66-2.649-1.984-3.309-.367-.183-.629-.468-.68-.91zm13.27 0c-.051.442-.317.727-.68.91-1.324.66-1.988 1.653-1.988 3.309v.031c.004 0 .008 0 .008.004.078-1.48.738-2.39 1.98-3.012.45-.226.746-.605.68-1.242zm3.285 3.719a9.893 9.893 0 0 1 -5.29 8.621c-.015.008-.027.016-.042.023a.729.729 0 0 1 -.078.04.466.466 0 0 1 -.063.03c-.004.005-.004.005-.008.005l-.09.047-.07.035h-.004c-.03.015-.062.027-.093.043a.957.957 0 0 1 -.067.03c-.035.017-.066.032-.101.044-.23.105-.465.2-.707.281v.332c.242-.086.476-.18.707-.281.035-.016.066-.027.101-.043.02-.012.043-.02.067-.031l.093-.047h.004l.07-.035a.636.636 0 0 0 .09-.043c.004 0 .004-.004.008-.004.02-.012.043-.02.063-.032.027-.011.05-.027.078-.039l.043-.023a9.9 9.9 0 0 0 5.293-8.785c0-.055-.004-.113-.004-.168zm-19.84 0c-.004.058-.004.113-.004.168a9.9 9.9 0 0 0 5.293 8.785c.016.008.027.016.043.023.027.012.05.028.078.04.02.011.04.019.063.03a.636.636 0 0 0 .098.047l.07.036c.035.015.066.031.097.047l.067.03c.035.017.066.028.097.044.235.101.47.195.711.281v-.332a7.904 7.904 0 0 1 -.71-.281c-.032-.012-.063-.027-.098-.043-.024-.008-.043-.02-.067-.031-.03-.016-.062-.028-.097-.043l-.07-.035-.09-.047c-.004 0-.008 0-.008-.004a.311.311 0 0 1 -.063-.032.728.728 0 0 1 -.078-.039c-.016-.007-.027-.015-.043-.023a9.893 9.893 0 0 1 -5.289-8.621zm-2.648.004v.164c0 6.289 4.57 11.469 10.582 12.414.011 0 .02.004.027.004.035.004.07.012.105.015.016.004.036.004.051.008.04.004.074.012.11.016.02.004.035.004.05.008l.102.011c.02.004.039.004.059.008.03.004.058.004.09.008.242.027.484.047.73.059v-.328a22.1 22.1 0 0 1 -.73-.06l-.09-.01c-.02-.005-.04-.005-.06-.009l-.1-.011c-.016-.004-.032-.004-.051-.008a1.227 1.227 0 0 1 -.11-.016.229.229 0 0 1 -.05-.008.981.981 0 0 1 -.106-.015c-.008 0-.016 0-.027-.004a12.538 12.538 0 0 1 -10.582-12.247zm25.136 0a12.542 12.542 0 0 1 -10.585 12.246c-.007.004-.015.004-.027.004a.79.79 0 0 1 -.102.015.23.23 0 0 1 -.054.008.921.921 0 0 1 -.11.016c-.015.004-.03.004-.046.008l-.106.011c-.02.004-.035.004-.055.008l-.09.012a22.1 22.1 0 0 1 -.73.058v.329c.246-.012.488-.032.73-.059.028-.004.06-.004.09-.008.02-.004.036-.004.055-.008l.106-.011c.015-.004.03-.004.046-.008.04-.004.075-.012.11-.016.02-.004.039-.004.054-.008.036-.003.07-.011.102-.015.012 0 .02-.004.027-.004a12.537 12.537 0 0 0 10.586-12.414v-.165zm-16.207 1.156a.989.989 0 0 0 -.992.992c0 .059.004.113.012.164a.995.995 0 0 1 .98-.824c.492 0 .899.356.977.824a.989.989 0 0 0 -.977-1.156zm7.278 0a.989.989 0 0 0 -.993.992c0 .059.004.113.012.164a.992.992 0 0 1 .98-.824c.493 0 .9.356.977.824a.989.989 0 0 0 -.977-1.156zm1.644 1.16a1.649 1.649 0 0 1 -.652 1.156v.332a1.646 1.646 0 0 0 .652-1.488zm-10.566 0c-.008.051-.008.11-.008.164 0 .543.258 1.024.66 1.324v-.332a1.649 1.649 0 0 1 -.652-1.156zm1.976 2.16v.332c.36.2.828.344 1.32.446v-.332c-.492-.102-.96-.246-1.32-.446zm6.614 0c-.364.2-.829.344-1.325.446v.332c.496-.102.961-.246 1.325-.446zm-3.97.625v.332c.24.016.462.024.661.024.203 0 .426-.008.664-.024v-.332c-.238.016-.46.024-.664.024-.2 0-.422-.008-.66-.024zm0 0" fill-opacity=".235"/><path d="m309.533 61.536a7.908 7.908 0 0 1 7.937 7.937c0 4.374-3.5 7.937-7.937 7.937-4.375 0-7.937-3.563-7.937-7.937 0-4.375 3.562-7.937 7.937-7.937zm0 0" fill="url(#l)" stroke="#212121" stroke-linecap="round" stroke-linejoin="round" stroke-width="2.25" transform="matrix(.0625 0 0 .0625 0 13.439)"/><path d="m15.875 3.398c-.363 0-.785.192-1.207.461a7.25 7.25 0 0 0 -1.172.954c-1.34 1.34-3.316 4.308-3.988 5.648-.336.672-.426 1.191-.34 1.594.09.402.367.675.715.847 1.289.645 1.918 1.582 1.93 3.184a1.744 1.744 0 0 0 -1.32 1.695c0 .555.257 1.047.66 1.367v3.395a8.483 8.483 0 0 1 -3.782-7.078c0-1.688.488-3.258 1.328-4.578.004-.004.004-.008.008-.012a.894.894 0 0 0 .063-.574.606.606 0 0 0 -.317-.422c-.168-.074-.39-.055-.629.082-.242.14-.511.398-.808.82l-.008.008a10 10 0 0 0 -1.149 4.676 9.99 9.99 0 0 0 5.344 8.867c.016.008.027.016.043.023l.078.043c.02.008.043.02.063.032h.008l.09.047.074.035.097.047c.024.007.043.02.067.03l.101.044c.235.101.473.199.715.281a.087.087 0 0 0 .086-.012.089.089 0 0 0 .04-.074v-4.566c.327.16.722.277 1.132.367v5.793a11.125 11.125 0 0 1 -9.074-10.957c0-4.281 2.386-7.98 5.906-9.852l-.004.004c.422-.21.703-.433.871-.652s.223-.438.172-.625a.589.589 0 0 0 -.402-.399 1.118 1.118 0 0 0 -.711.024c-.004 0-.008.004-.008.004a12.63 12.63 0 0 0 -7.332 11.496c0 6.332 4.601 11.55 10.656 12.504 0 .004.004.004.008.004.008 0 .02.004.027.004.031.003.067.011.102.015.02.004.035.004.055.008.035.004.074.012.109.016.015 0 .031.004.05.004.036.007.071.011.106.015.016 0 .035.004.055.008.031 0 .062.004.094.008.242.027.488.047.734.058.023.004.05-.007.07-.023a.112.112 0 0 0 .028-.07v-7.184c.199.012.394.02.566.02.176 0 .367-.008.57-.02v7.184c0 .027.008.05.028.07.02.016.043.027.07.023.246-.011.492-.03.734-.058a.763.763 0 0 1 .09-.008.301.301 0 0 1 .059-.008.981.981 0 0 0 .105-.015c.016 0 .032-.004.047-.004.04-.004.074-.012.113-.016.02-.004.036-.004.055-.008.035-.004.067-.012.102-.015.007 0 .02-.004.027-.004.004 0 .004 0 .008-.004a12.629 12.629 0 0 0 10.656-12.504c0-5.106-2.996-9.492-7.332-11.496-.004 0-.004-.004-.008-.004a1.118 1.118 0 0 0 -.71-.024.589.589 0 0 0 -.403.399c-.05.187.004.406.172.625s.445.441.87.652l-.003-.004a11.121 11.121 0 0 1 5.902 9.852c0 5.469-3.894 9.988-9.074 10.957v-5.793c.414-.09.809-.207 1.137-.367v4.566c0 .031.015.059.039.074.027.02.058.024.086.012.242-.082.48-.18.715-.281.035-.016.066-.028.097-.043a.553.553 0 0 1 .07-.031c.032-.016.063-.032.098-.047.024-.012.047-.024.075-.035.027-.016.058-.032.09-.047h.007v-.004c.02-.008.04-.02.063-.031a.728.728 0 0 0 .078-.04l.043-.023c.004 0 .004 0 .008-.004a9.997 9.997 0 0 0 5.336-8.863c0-1.692-.418-3.281-1.149-4.676l-.008-.008c-.3-.422-.57-.68-.808-.82-.242-.137-.461-.156-.63-.082a.596.596 0 0 0 -.316.422.894.894 0 0 0 .063.574c.004.004.004.008.008.008a8.525 8.525 0 0 1 1.328 4.582c0 2.96-1.5 5.555-3.781 7.078v-3.395c.402-.32.66-.812.66-1.367 0-.82-.559-1.504-1.32-1.695.007-1.602.64-2.54 1.93-3.184.347-.172.62-.445.71-.847.09-.403 0-.922-.336-1.594-.672-1.34-2.648-4.309-3.988-5.649a7.605 7.605 0 0 0 -1.172-.953c-.422-.27-.844-.46-1.211-.46zm0 .188c.297 0 .703.172 1.11.43.406.261.816.605 1.14.93 1.309 1.308 3.3 4.292 3.953 5.6.324.65.399 1.126.32 1.466-.074.343-.296.566-.609.722-1.348.672-2.039 1.715-2.039 3.391v.035c0 .043.035.082.078.09a1.56 1.56 0 0 1 1.246 1.531c0 .512-.242.965-.625 1.25-.023.016-.035.043-.035.074v3.614c0 .035.02.066.047.082.031.02.066.015.098 0a8.681 8.681 0 0 0 4.011-7.336 8.655 8.655 0 0 0 -1.355-4.672.697.697 0 0 1 -.047-.45c.031-.14.105-.245.21-.292.106-.047.25-.047.458.074.203.117.457.355.746.758a9.816 9.816 0 0 1 1.125 4.582 9.81 9.81 0 0 1 -5.242 8.703c-.016.008-.031.016-.043.02l-.078.042c-.02.008-.04.02-.063.032h-.004c-.03.015-.062.031-.09.047l-.074.035c-.031.015-.062.027-.093.043-.024.011-.047.02-.067.031-.035.016-.066.027-.098.043-.19.082-.382.16-.578.23v-4.581a.096.096 0 0 0 -.047-.082.092.092 0 0 0 -.09 0c-.35.192-.812.336-1.296.434a.099.099 0 0 0 -.078.094v5.984c0 .027.015.05.035.07s.05.028.078.02a11.31 11.31 0 0 0 9.336-11.164c0-4.348-2.426-8.113-6.004-10.016-.406-.203-.664-.41-.805-.597-.144-.184-.172-.344-.14-.465.035-.121.129-.215.28-.266.153-.055.36-.055.59.02a12.451 12.451 0 0 1 7.216 11.324 12.44 12.44 0 0 1 -10.504 12.32c-.012.004-.02.004-.028.004-.035.008-.07.012-.101.016-.02.004-.035.008-.055.008-.035.007-.074.011-.11.015-.015.004-.03.004-.046.008l-.106.012c-.02.004-.035.004-.054.007-.032.004-.059.008-.09.008a11.24 11.24 0 0 1 -.625.055v-7.184a.098.098 0 0 0 -.031-.07c-.02-.016-.043-.027-.07-.023a9.995 9.995 0 0 1 -.657.023c-.195 0-.418-.008-.652-.023-.028-.004-.051.007-.07.023a.098.098 0 0 0 -.032.07v7.184c-.21-.016-.418-.031-.625-.055a.641.641 0 0 1 -.09-.008c-.02-.003-.039-.003-.058-.007l-.102-.012c-.016-.004-.031-.004-.047-.008a.921.921 0 0 1 -.11-.015c-.019 0-.034-.004-.054-.008a.912.912 0 0 1 -.101-.016h-.024a12.448 12.448 0 0 1 -10.508-12.325c0-5.031 2.946-9.348 7.215-11.324.23-.075.438-.075.59-.024.152.055.246.149.277.27.036.12.004.281-.136.465-.145.187-.399.394-.805.597a11.311 11.311 0 0 0 -6.008 10.016c0 5.598 4.02 10.226 9.34 11.164.027.008.055 0 .078-.02a.098.098 0 0 0 .031-.07v-5.984a.1.1 0 0 0 -.074-.094c-.484-.098-.945-.242-1.297-.434a.1.1 0 0 0 -.093 0 .102.102 0 0 0 -.043.082v4.582a9.373 9.373 0 0 1 -.579-.23c-.03-.016-.066-.027-.097-.043l-.067-.031c-.03-.016-.062-.028-.093-.043l-.075-.035c-.03-.016-.058-.032-.09-.047h-.007c-.02-.012-.04-.024-.059-.032l-.078-.043c-.016-.003-.027-.011-.039-.015 0-.004 0-.004-.004-.004a9.81 9.81 0 0 1 -5.242-8.703c0-1.656.406-3.215 1.125-4.582.285-.403.543-.64.746-.758.203-.121.352-.121.457-.074s.18.152.21.293a.723.723 0 0 1 -.046.449 8.655 8.655 0 0 0 -1.355 4.672 8.672 8.672 0 0 0 4.011 7.336c.028.015.067.02.094 0a.091.091 0 0 0 .05-.082v-3.614a.089.089 0 0 0 -.038-.074 1.558 1.558 0 0 1 -.621-1.25c0-.758.53-1.386 1.246-1.531a.092.092 0 0 0 .074-.09v-.035c0-1.676-.691-2.719-2.035-3.39-.313-.157-.535-.38-.613-.723-.075-.34 0-.817.324-1.465.652-1.309 2.644-4.293 3.953-5.602a7.216 7.216 0 0 1 1.14-.93c.407-.257.813-.43 1.106-.43zm-3.637 13.11a1.086 1.086 0 1 0 0 2.172 1.086 1.086 0 0 0 0-2.173zm7.278 0a1.086 1.086 0 1 0 0 2.172 1.086 1.086 0 0 0 0-2.173zm-7.278.187c.5 0 .899.398.899.898s-.399.899-.899.899a.894.894 0 0 1 -.898-.899c0-.5.398-.898.898-.898zm7.278 0c.5 0 .898.398.898.898s-.398.899-.898.899a.894.894 0 0 1 -.899-.899c0-.5.399-.898.899-.898zm-7.871 7.461v.004a.03.03 0 0 0 .011.004s-.004 0-.011-.008zm-.094.164c.004 0 .004.004.008.004l-.004-.004zm.02.008" fill="#212121"/><path d="m12.32 8.625.043-.066c.48-.754 1.11-1.207 1.41-1.016l.032.02c.297.187.152.953-.325 1.707l-.043.066c-.48.75-1.113 1.207-1.41 1.016l-.03-.02c-.302-.191-.157-.957.323-1.707zm0 0" fill="#fff" fill-opacity=".235"/><path d="m198.419 61.536c4.374 0 7.936 3.562 7.936 7.937 0 4.374-3.562 7.937-7.936 7.937-4.375 0-7.937-3.563-7.937-7.937 0-4.375 3.562-7.937 7.937-7.937zm0 0" fill="url(#m)" stroke="#212121" stroke-linecap="round" stroke-linejoin="round" stroke-width="2.25" transform="matrix(.0625 0 0 .0625 0 13.439)"/></svg>