<?xml version="1.0" encoding="UTF-8"?>
<svg xmlns="http://www.w3.org/2000/svg" xmlns:xlink="http://www.w3.org/1999/xlink" width="32px" height="32px" viewBox="0 0 32 32" version="1.1">
<defs>
<linearGradient id="linear0" gradientUnits="userSpaceOnUse" x1="507.999969" y1="233.499985" x2="507.999969" y2="254.666641" gradientTransform="matrix(0.062506,0,0,0.062506,-18.522601,13.438785)">
<stop offset="0" style="stop-color:rgb(0%,0%,0%);stop-opacity:0.27451;"/>
<stop offset="1" style="stop-color:rgb(0%,0%,0%);stop-opacity:0;"/>
</linearGradient>
<radialGradient id="radial0" gradientUnits="userSpaceOnUse" cx="450.908936" cy="189.579361" fx="450.908936" fy="189.579361" r="21.166656" gradientTransform="matrix(0.00000017417,-0.0781325,-0.140638,-0.000000101539,43.530872,63.595333)">
<stop offset="0" style="stop-color:rgb(0%,0%,0%);stop-opacity:0.313726;"/>
<stop offset="0.222222" style="stop-color:rgb(0%,0%,0%);stop-opacity:0.27451;"/>
<stop offset="1" style="stop-color:rgb(0%,0%,0%);stop-opacity:0;"/>
</radialGradient>
<radialGradient id="radial1" gradientUnits="userSpaceOnUse" cx="450.908936" cy="189.579361" fx="450.908936" fy="189.579361" r="21.166656" gradientTransform="matrix(-0.00000017417,0.0781325,0.140638,0.000000101539,-17.070008,-7.527479)">
<stop offset="0" style="stop-color:rgb(0%,0%,0%);stop-opacity:0.313726;"/>
<stop offset="0.222222" style="stop-color:rgb(0%,0%,0%);stop-opacity:0.27451;"/>
<stop offset="1" style="stop-color:rgb(0%,0%,0%);stop-opacity:0;"/>
</radialGradient>
<radialGradient id="radial2" gradientUnits="userSpaceOnUse" cx="450.908936" cy="189.579361" fx="450.908936" fy="189.579361" r="21.166656" gradientTransform="matrix(-0.00000017417,-0.0781325,0.140638,-0.000000101539,-17.070008,63.595333)">
<stop offset="0" style="stop-color:rgb(0%,0%,0%);stop-opacity:0.313726;"/>
<stop offset="0.222222" style="stop-color:rgb(0%,0%,0%);stop-opacity:0.27451;"/>
<stop offset="1" style="stop-color:rgb(0%,0%,0%);stop-opacity:0;"/>
</radialGradient>
<radialGradient id="radial3" gradientUnits="userSpaceOnUse" cx="450.908936" cy="189.579361" fx="450.908936" fy="189.579361" r="21.166656" gradientTransform="matrix(0.00000017417,0.0781325,-0.140638,0.000000101539,43.53087,-7.527479)">
<stop offset="0" style="stop-color:rgb(0%,0%,0%);stop-opacity:0.313726;"/>
<stop offset="0.222222" style="stop-color:rgb(0%,0%,0%);stop-opacity:0.27451;"/>
<stop offset="1" style="stop-color:rgb(0%,0%,0%);stop-opacity:0;"/>
</radialGradient>
<linearGradient id="linear1" gradientUnits="userSpaceOnUse" x1="254" y1="-41.666668" x2="254" y2="-126.333344" gradientTransform="matrix(1,0,0,1,-42.333328,0)">
<stop offset="0" style="stop-color:rgb(100%,79.215688%,15.686275%);stop-opacity:1;"/>
<stop offset="1" style="stop-color:rgb(100%,87.843138%,50.980395%);stop-opacity:1;"/>
</linearGradient>
<linearGradient id="linear2" gradientUnits="userSpaceOnUse" x1="960" y1="735.118103" x2="960" y2="175.118134" gradientTransform="matrix(0.016538,0,0,0.016538,-2.646086,0)">
<stop offset="0" style="stop-color:rgb(74.117649%,74.117649%,74.117649%);stop-opacity:1;"/>
<stop offset="1" style="stop-color:rgb(87.843138%,87.843138%,87.843138%);stop-opacity:1;"/>
</linearGradient>
<linearGradient id="linear3" gradientUnits="userSpaceOnUse" x1="960" y1="1695.118164" x2="960" y2="175.118134" gradientTransform="matrix(0.016538,0,0,0.016538,-2.646086,0)">
<stop offset="0" style="stop-color:rgb(61.176473%,80.000001%,39.607844%);stop-opacity:1;"/>
<stop offset="1" style="stop-color:rgb(68.235296%,83.529413%,50.588238%);stop-opacity:1;"/>
</linearGradient>
<linearGradient id="linear4" gradientUnits="userSpaceOnUse" x1="254" y1="-20.499998" x2="254" y2="233.5" gradientTransform="matrix(1,0,0,1,-42.333328,0)">
<stop offset="0" style="stop-color:rgb(61.176473%,80.000001%,39.607844%);stop-opacity:1;"/>
<stop offset="1" style="stop-color:rgb(68.235296%,83.529413%,50.588238%);stop-opacity:1;"/>
</linearGradient>
<linearGradient id="linear5" gradientUnits="userSpaceOnUse" x1="328.083344" y1="233.5" x2="328.083344" y2="32.416664" gradientTransform="matrix(0.062506,0,0,0.062506,0,13.438783)">
<stop offset="0" style="stop-color:rgb(61.176473%,80.000001%,39.607844%);stop-opacity:1;"/>
<stop offset="1" style="stop-color:rgb(68.235296%,83.529413%,50.588238%);stop-opacity:1;"/>
</linearGradient>
<linearGradient id="linear6" gradientUnits="userSpaceOnUse" x1="1240" y1="1695.118164" x2="1240" y2="935.118103" gradientTransform="matrix(0.016538,0,0,0.016538,0,0)">
<stop offset="0" style="stop-color:rgb(25.882354%,25.882354%,25.882354%);stop-opacity:1;"/>
<stop offset="1" style="stop-color:rgb(38.039216%,38.039216%,38.039216%);stop-opacity:1;"/>
</linearGradient>
</defs>
<g id="surface1">
<path style=" stroke:none;fill-rule:nonzero;fill:url(#linear0);" d="M 9.261719 28.035156 L 17.199219 28.035156 L 17.199219 29.355469 L 9.261719 29.355469 Z M 9.261719 28.035156 "/>
<path style=" stroke:none;fill-rule:nonzero;fill:url(#radial0);" d="M 17.199219 28.035156 L 19.84375 28.035156 L 19.84375 26.710938 L 17.199219 26.710938 Z M 17.199219 28.035156 "/>
<path style=" stroke:none;fill-rule:nonzero;fill:url(#radial1);" d="M 9.261719 28.035156 L 6.613281 28.035156 L 6.613281 29.355469 L 9.261719 29.355469 Z M 9.261719 28.035156 "/>
<path style=" stroke:none;fill-rule:nonzero;fill:url(#radial2);" d="M 9.261719 28.035156 L 6.613281 28.035156 L 6.613281 26.710938 L 9.261719 26.710938 Z M 9.261719 28.035156 "/>
<path style=" stroke:none;fill-rule:nonzero;fill:url(#radial3);" d="M 17.199219 28.035156 L 19.84375 28.035156 L 19.84375 29.355469 L 17.199219 29.355469 Z M 17.199219 28.035156 "/>
<path style="fill-rule:nonzero;fill:url(#linear1);stroke-width:3;stroke-linecap:square;stroke-linejoin:round;stroke:rgb(12.941177%,12.941177%,12.941177%);stroke-opacity:1;stroke-miterlimit:4;" d="M 158.734842 -126.320968 L 264.599732 -126.320968 C 270.411677 -126.320968 275.161223 -121.571422 275.161223 -115.759477 L 275.161223 -52.26554 C 275.161223 -46.391101 270.411677 -41.641555 264.599732 -41.641555 L 158.734842 -41.641555 C 152.922897 -41.641555 148.17335 -46.391101 148.17335 -52.26554 L 148.17335 -115.759477 C 148.17335 -121.571422 152.922897 -126.320968 158.734842 -126.320968 Z M 158.734842 -126.320968 " transform="matrix(0.062506,0,0,0.062506,0,13.438783)"/>
<path style=" stroke:none;fill-rule:nonzero;fill:url(#linear2);" d="M 9.261719 2.894531 C 8.894531 2.894531 8.601562 3.191406 8.601562 3.558594 L 8.601562 12.15625 C 8.601562 12.523438 8.894531 12.820312 9.261719 12.820312 L 17.199219 12.820312 C 17.566406 12.820312 17.859375 12.523438 17.859375 12.15625 L 17.859375 3.558594 C 17.859375 3.191406 17.566406 2.894531 17.199219 2.894531 Z M 10.585938 6.203125 C 10.949219 6.203125 11.246094 6.5 11.246094 6.863281 L 11.246094 9.511719 C 11.246094 9.878906 10.949219 10.171875 10.585938 10.171875 C 10.21875 10.171875 9.921875 9.878906 9.921875 9.511719 L 9.921875 6.863281 C 9.921875 6.5 10.21875 6.203125 10.585938 6.203125 Z M 13.230469 6.203125 C 13.597656 6.203125 13.890625 6.5 13.890625 6.863281 L 13.890625 9.511719 C 13.890625 9.878906 13.597656 10.171875 13.230469 10.171875 C 12.863281 10.171875 12.570312 9.878906 12.570312 9.511719 L 12.570312 6.863281 C 12.570312 6.5 12.863281 6.203125 13.230469 6.203125 Z M 15.875 6.203125 C 16.242188 6.203125 16.539062 6.5 16.539062 6.863281 L 16.539062 9.511719 C 16.539062 9.878906 16.242188 10.171875 15.875 10.171875 C 15.511719 10.171875 15.214844 9.878906 15.214844 9.511719 L 15.214844 6.863281 C 15.214844 6.5 15.511719 6.203125 15.875 6.203125 Z M 15.875 6.203125 "/>
<path style=" stroke:none;fill-rule:nonzero;fill:rgb(100%,100%,100%);fill-opacity:0.470588;" d="M 9.261719 2.980469 C 8.894531 2.980469 8.601562 3.273438 8.601562 3.640625 L 8.601562 3.804688 C 8.601562 3.4375 8.894531 3.144531 9.261719 3.144531 L 17.199219 3.144531 C 17.566406 3.144531 17.859375 3.4375 17.859375 3.804688 L 17.859375 3.640625 C 17.859375 3.273438 17.566406 2.980469 17.199219 2.980469 Z M 9.921875 9.59375 L 9.921875 9.757812 C 9.921875 10.125 10.21875 10.421875 10.585938 10.421875 C 10.949219 10.421875 11.246094 10.125 11.246094 9.757812 L 11.246094 9.59375 C 11.246094 9.960938 10.949219 10.253906 10.585938 10.253906 C 10.21875 10.253906 9.921875 9.960938 9.921875 9.59375 Z M 12.570312 9.59375 L 12.570312 9.757812 C 12.570312 10.125 12.863281 10.421875 13.230469 10.421875 C 13.597656 10.421875 13.890625 10.125 13.890625 9.757812 L 13.890625 9.59375 C 13.890625 9.960938 13.597656 10.253906 13.230469 10.253906 C 12.863281 10.253906 12.570312 9.960938 12.570312 9.59375 Z M 15.214844 9.59375 L 15.214844 9.757812 C 15.214844 10.125 15.511719 10.421875 15.875 10.421875 C 16.242188 10.421875 16.539062 10.125 16.539062 9.757812 L 16.539062 9.59375 C 16.539062 9.960938 16.242188 10.253906 15.875 10.253906 C 15.511719 10.253906 15.214844 9.960938 15.214844 9.59375 Z M 15.214844 9.59375 "/>
<path style=" stroke:none;fill-rule:nonzero;fill:rgb(0%,0%,0%);fill-opacity:0.235294;" d="M 10.585938 6.285156 C 10.21875 6.285156 9.921875 6.582031 9.921875 6.949219 L 9.921875 7.195312 C 9.921875 6.828125 10.21875 6.535156 10.585938 6.535156 C 10.949219 6.535156 11.246094 6.828125 11.246094 7.195312 L 11.246094 6.949219 C 11.246094 6.582031 10.949219 6.285156 10.585938 6.285156 Z M 13.230469 6.285156 C 12.863281 6.285156 12.570312 6.582031 12.570312 6.949219 L 12.570312 7.195312 C 12.570312 6.828125 12.863281 6.535156 13.230469 6.535156 C 13.597656 6.535156 13.890625 6.828125 13.890625 7.195312 L 13.890625 6.949219 C 13.890625 6.582031 13.597656 6.285156 13.230469 6.285156 Z M 15.875 6.285156 C 15.511719 6.285156 15.214844 6.582031 15.214844 6.949219 L 15.214844 7.195312 C 15.214844 6.828125 15.511719 6.535156 15.875 6.535156 C 16.242188 6.535156 16.539062 6.828125 16.539062 7.195312 L 16.539062 6.949219 C 16.539062 6.582031 16.242188 6.285156 15.875 6.285156 Z M 8.601562 12.238281 L 8.601562 12.488281 C 8.601562 12.855469 8.894531 13.148438 9.261719 13.148438 L 17.199219 13.148438 C 17.566406 13.148438 17.859375 12.855469 17.859375 12.488281 L 17.859375 12.238281 C 17.859375 12.605469 17.566406 12.902344 17.199219 12.902344 L 9.261719 12.902344 C 8.894531 12.902344 8.601562 12.605469 8.601562 12.238281 Z M 8.601562 12.238281 "/>
<path style="fill:none;stroke-width:3;stroke-linecap:square;stroke-linejoin:round;stroke:rgb(12.941177%,12.941177%,12.941177%);stroke-opacity:1;stroke-miterlimit:4;" d="M 148.17335 -168.691922 C 142.298911 -168.691922 137.611859 -163.942376 137.611859 -158.067937 L 137.611859 -20.518572 C 137.611859 -14.644133 142.298911 -9.894587 148.17335 -9.894587 L 275.161223 -9.894587 C 281.035662 -9.894587 285.722715 -14.644133 285.722715 -20.518572 L 285.722715 -158.067937 C 285.722715 -163.942376 281.035662 -168.691922 275.161223 -168.691922 Z M 169.358827 -115.759477 C 175.170772 -115.759477 179.920318 -111.009931 179.920318 -105.197986 L 179.920318 -62.827032 C 179.920318 -56.952593 175.170772 -52.26554 169.358827 -52.26554 C 163.484388 -52.26554 158.734842 -56.952593 158.734842 -62.827032 L 158.734842 -105.197986 C 158.734842 -111.009931 163.484388 -115.759477 169.358827 -115.759477 Z M 211.667287 -115.759477 C 217.541726 -115.759477 222.228778 -111.009931 222.228778 -105.197986 L 222.228778 -62.827032 C 222.228778 -56.952593 217.541726 -52.26554 211.667287 -52.26554 C 205.792848 -52.26554 201.105795 -56.952593 201.105795 -62.827032 L 201.105795 -105.197986 C 201.105795 -111.009931 205.792848 -115.759477 211.667287 -115.759477 Z M 253.975747 -115.759477 C 259.850186 -115.759477 264.599732 -111.009931 264.599732 -105.197986 L 264.599732 -62.827032 C 264.599732 -56.952593 259.850186 -52.26554 253.975747 -52.26554 C 248.163802 -52.26554 243.414255 -56.952593 243.414255 -62.827032 L 243.414255 -105.197986 C 243.414255 -111.009931 248.163802 -115.759477 253.975747 -115.759477 Z M 253.975747 -115.759477 " transform="matrix(0.062506,0,0,0.062506,0,13.438783)"/>
<path style=" stroke:none;fill-rule:nonzero;fill:url(#linear3);" d="M 7.9375 12.15625 C 7.207031 12.15625 6.613281 12.746094 6.613281 13.480469 L 6.613281 18.773438 C 6.980469 18.773438 7.277344 19.066406 7.277344 19.433594 L 7.277344 21.417969 C 7.277344 21.785156 6.980469 22.082031 6.613281 22.082031 L 6.613281 26.710938 C 6.613281 27.445312 7.207031 28.035156 7.9375 28.035156 L 18.523438 28.035156 C 19.253906 28.035156 19.84375 27.445312 19.84375 26.710938 L 19.84375 22.082031 C 19.480469 22.082031 19.183594 21.785156 19.183594 21.417969 L 19.183594 19.433594 C 19.183594 19.066406 19.480469 18.773438 19.84375 18.773438 L 19.84375 13.480469 C 19.84375 12.746094 19.253906 12.15625 18.523438 12.15625 Z M 7.9375 12.15625 "/>
<path style="fill-rule:nonzero;fill:url(#linear4);stroke-width:3;stroke-linecap:square;stroke-linejoin:round;stroke:rgb(12.941177%,12.941177%,12.941177%);stroke-opacity:1;stroke-miterlimit:4;" d="M 148.17335 85.346318 L 275.161223 85.346318 C 281.035662 85.346318 285.722715 90.095865 285.722715 95.90781 L 285.722715 127.654778 C 285.722715 133.529217 281.035662 138.278764 275.161223 138.278764 L 148.17335 138.278764 C 142.298911 138.278764 137.611859 133.529217 137.611859 127.654778 L 137.611859 95.90781 C 137.611859 90.095865 142.298911 85.346318 148.17335 85.346318 Z M 148.17335 85.346318 " transform="matrix(0.062506,0,0,0.062506,0,13.438783)"/>
<path style=" stroke:none;fill-rule:nonzero;fill:rgb(100%,100%,100%);fill-opacity:0.313726;" d="M 7.9375 12.15625 C 7.207031 12.15625 6.613281 12.746094 6.613281 13.480469 L 6.613281 13.738281 C 6.613281 13.003906 7.207031 12.414062 7.9375 12.414062 L 18.523438 12.414062 C 19.253906 12.414062 19.84375 13.003906 19.84375 13.738281 L 19.84375 13.480469 C 19.84375 12.746094 19.253906 12.15625 18.523438 12.15625 Z M 7.277344 21.417969 C 7.277344 21.785156 6.980469 22.082031 6.613281 22.082031 L 6.613281 22.335938 C 6.980469 22.335938 7.277344 22.042969 7.277344 21.675781 Z M 19.183594 21.417969 L 19.183594 21.675781 C 19.183594 22.042969 19.480469 22.335938 19.84375 22.335938 L 19.84375 22.082031 C 19.480469 22.082031 19.183594 21.785156 19.183594 21.417969 Z M 19.183594 21.417969 "/>
<path style=" stroke:none;fill-rule:nonzero;fill:rgb(0%,0%,0%);fill-opacity:0.235294;" d="M 6.613281 18.546875 L 6.613281 18.773438 C 6.980469 18.773438 7.277344 19.066406 7.277344 19.433594 L 7.277344 19.210938 C 7.277344 18.84375 6.980469 18.546875 6.613281 18.546875 Z M 19.84375 18.546875 C 19.480469 18.546875 19.183594 18.84375 19.183594 19.210938 L 19.183594 19.433594 C 19.183594 19.066406 19.480469 18.773438 19.84375 18.773438 Z M 6.613281 26.488281 L 6.613281 26.710938 C 6.613281 27.445312 7.207031 28.035156 7.9375 28.035156 L 18.523438 28.035156 C 19.253906 28.035156 19.84375 27.445312 19.84375 26.710938 L 19.84375 26.488281 C 19.84375 27.21875 19.253906 27.808594 18.523438 27.808594 L 7.9375 27.808594 C 7.207031 27.808594 6.613281 27.21875 6.613281 26.488281 Z M 6.613281 26.488281 "/>
<path style="fill:none;stroke-width:3;stroke-linecap:square;stroke-linejoin:round;stroke:rgb(12.941177%,12.941177%,12.941177%);stroke-opacity:1;stroke-miterlimit:4;" d="M 126.987873 -20.518572 C 115.301489 -20.518572 105.802396 -11.081973 105.802396 0.666905 L 105.802396 85.346318 C 111.676835 85.346318 116.426382 90.033371 116.426382 95.90781 L 116.426382 127.654778 C 116.426382 133.529217 111.676835 138.278764 105.802396 138.278764 L 105.802396 212.334192 C 105.802396 224.08307 115.301489 233.519669 126.987873 233.519669 L 296.3467 233.519669 C 308.033084 233.519669 317.469683 224.08307 317.469683 212.334192 L 317.469683 138.278764 C 311.657738 138.278764 306.908192 133.529217 306.908192 127.654778 L 306.908192 95.90781 C 306.908192 90.033371 311.657738 85.346318 317.469683 85.346318 L 317.469683 0.666905 C 317.469683 -11.081973 308.033084 -20.518572 296.3467 -20.518572 Z M 126.987873 -20.518572 " transform="matrix(0.062506,0,0,0.062506,0,13.438783)"/>
<path style=" stroke:none;fill-rule:nonzero;fill:url(#linear5);" d="M 20.175781 15.464844 C 23.648438 15.464844 26.460938 18.277344 26.460938 21.75 C 26.460938 25.21875 23.648438 28.035156 20.175781 28.035156 C 16.707031 28.035156 13.890625 25.21875 13.890625 21.75 C 13.890625 18.277344 16.707031 15.464844 20.175781 15.464844 Z M 20.175781 15.464844 "/>
<path style=" stroke:none;fill-rule:nonzero;fill:rgb(0%,0%,0%);fill-opacity:0.235294;" d="M 23.328125 19.085938 L 22.703125 21.367188 C 22.664062 21.515625 22.5 21.558594 22.390625 21.453125 L 21.933594 20.992188 C 21.871094 20.929688 21.773438 20.929688 21.710938 20.992188 L 18.949219 23.753906 C 18.914062 23.792969 18.894531 23.84375 18.90625 23.894531 C 18.914062 23.945312 18.949219 23.988281 18.992188 24.007812 C 19.039062 24.027344 19.085938 24.050781 19.128906 24.070312 L 21.710938 21.488281 C 21.773438 21.425781 21.871094 21.425781 21.933594 21.488281 L 22.390625 21.949219 C 22.5 22.054688 22.664062 22.011719 22.703125 21.863281 L 23.40625 19.292969 C 23.421875 19.226562 23.40625 19.160156 23.359375 19.113281 C 23.359375 19.109375 23.355469 19.109375 23.351562 19.105469 C 23.34375 19.097656 23.335938 19.089844 23.328125 19.085938 Z M 20.683594 19.742188 L 20.605469 19.765625 C 20.457031 19.804688 20.414062 19.96875 20.519531 20.078125 L 20.84375 20.398438 L 20.980469 20.261719 C 21.042969 20.199219 21.042969 20.101562 20.980469 20.039062 Z M 16.230469 20.640625 C 16.21875 20.695312 16.207031 20.75 16.203125 20.808594 C 16.234375 20.769531 16.246094 20.71875 16.234375 20.671875 C 16.234375 20.660156 16.230469 20.652344 16.230469 20.640625 Z M 18.511719 20.640625 C 18.464844 20.851562 18.359375 21.050781 18.195312 21.21875 C 17.894531 21.519531 17.472656 21.621094 17.089844 21.527344 C 17.039062 21.515625 16.984375 21.53125 16.945312 21.566406 L 16.378906 22.132812 C 16.34375 22.167969 16.328125 22.222656 16.335938 22.277344 C 16.335938 22.269531 16.335938 22.261719 16.335938 22.265625 C 16.335938 22.277344 16.335938 22.292969 16.339844 22.308594 C 16.339844 22.347656 16.347656 22.402344 16.363281 22.472656 C 16.371094 22.519531 16.382812 22.5625 16.394531 22.613281 L 16.945312 22.0625 C 16.984375 22.027344 17.039062 22.011719 17.089844 22.023438 C 17.472656 22.117188 17.894531 22.015625 18.195312 21.714844 C 18.488281 21.421875 18.59375 21.015625 18.511719 20.640625 Z M 15.292969 22.507812 C 15.257812 22.738281 15.28125 22.96875 15.324219 23.179688 C 15.402344 23.578125 15.558594 23.972656 15.707031 24.351562 C 15.828125 24.671875 15.945312 24.976562 16.007812 25.222656 C 16.015625 25.214844 16.023438 25.203125 16.03125 25.195312 C 16.0625 25.160156 16.074219 25.113281 16.066406 25.0625 C 16.066406 25.058594 16.066406 25.050781 16.0625 25.035156 C 16.0625 24.996094 16.054688 24.9375 16.039062 24.859375 C 15.988281 24.597656 15.851562 24.238281 15.707031 23.855469 C 15.558594 23.476562 15.402344 23.082031 15.324219 22.683594 C 15.3125 22.625 15.300781 22.566406 15.292969 22.507812 Z M 21.140625 23.914062 C 21.066406 24.039062 21.054688 24.1875 21.101562 24.324219 C 21.132812 24.292969 21.167969 24.261719 21.207031 24.226562 C 21.207031 24.226562 21.207031 24.226562 21.207031 24.222656 L 21.210938 24.222656 C 21.265625 24.164062 21.265625 24.070312 21.210938 24.011719 C 21.183594 23.980469 21.160156 23.949219 21.140625 23.914062 Z M 23.890625 23.914062 C 23.871094 23.953125 23.84375 23.992188 23.808594 24.023438 L 22.871094 24.960938 C 22.675781 25.15625 22.371094 25.160156 22.171875 24.972656 C 22.109375 24.914062 22.015625 24.917969 21.953125 24.976562 C 21.515625 25.417969 20.945312 25.601562 20.449219 25.589844 C 19.945312 25.574219 19.507812 25.40625 19.117188 25.234375 C 18.726562 25.0625 18.390625 24.886719 18.15625 24.808594 C 18.078125 24.78125 18.027344 24.777344 18.023438 24.777344 C 17.984375 24.769531 17.945312 24.78125 17.914062 24.800781 C 17.910156 24.804688 17.90625 24.804688 17.902344 24.808594 C 17.890625 24.816406 17.882812 24.820312 17.875 24.832031 L 16.921875 25.78125 C 16.917969 25.789062 16.914062 25.792969 16.90625 25.796875 C 16.878906 25.839844 16.847656 25.875 16.808594 25.914062 C 16.785156 25.9375 16.757812 25.960938 16.730469 25.980469 C 16.722656 25.984375 16.714844 25.992188 16.707031 25.996094 L 16.222656 26.480469 C 16.046875 26.335938 15.882812 26.179688 15.726562 26.011719 L 15.636719 26.101562 C 15.875 26.351562 16.132812 26.582031 16.410156 26.789062 L 16.707031 26.492188 C 16.714844 26.488281 16.722656 26.480469 16.730469 26.476562 C 16.757812 26.457031 16.785156 26.433594 16.808594 26.410156 C 16.847656 26.371094 16.878906 26.335938 16.90625 26.292969 C 16.914062 26.289062 16.917969 26.285156 16.921875 26.277344 L 17.875 25.328125 C 17.882812 25.316406 17.890625 25.3125 17.902344 25.304688 C 17.90625 25.300781 17.910156 25.300781 17.914062 25.296875 C 17.945312 25.277344 17.984375 25.265625 18.023438 25.273438 C 18.027344 25.273438 18.078125 25.277344 18.15625 25.304688 C 18.390625 25.382812 18.726562 25.558594 19.117188 25.730469 C 19.507812 25.902344 19.945312 26.070312 20.449219 26.085938 C 20.945312 26.097656 21.515625 25.914062 21.953125 25.472656 C 22.015625 25.414062 22.109375 25.410156 22.171875 25.46875 C 22.371094 25.65625 22.675781 25.652344 22.871094 25.457031 L 23.808594 24.519531 C 23.976562 24.355469 24.003906 24.109375 23.890625 23.914062 Z M 23.890625 23.914062 "/>
<path style=" stroke:none;fill-rule:nonzero;fill:rgb(100%,100%,100%);fill-opacity:0.470588;" d="M 20.175781 15.464844 C 16.695312 15.464844 13.890625 18.269531 13.890625 21.75 C 13.890625 21.785156 13.890625 21.820312 13.894531 21.855469 C 13.949219 18.425781 16.730469 15.679688 20.175781 15.679688 C 23.621094 15.679688 26.402344 18.425781 26.460938 21.855469 C 26.460938 21.820312 26.460938 21.785156 26.460938 21.75 C 26.460938 18.269531 23.65625 15.464844 20.175781 15.464844 Z M 20.175781 15.464844 "/>
<path style="fill:none;stroke-width:3;stroke-linecap:round;stroke-linejoin:round;stroke:rgb(12.941177%,12.941177%,12.941177%);stroke-opacity:1;stroke-miterlimit:4;" d="M 322.781676 32.413873 C 378.33887 32.413873 423.334574 77.409576 423.334574 132.966771 C 423.334574 188.461471 378.33887 233.519669 322.781676 233.519669 C 267.286975 233.519669 222.228778 188.461471 222.228778 132.966771 C 222.228778 77.409576 267.286975 32.413873 322.781676 32.413873 Z M 322.781676 32.413873 " transform="matrix(0.062506,0,0,0.062506,0,13.438783)"/>
<path style=" stroke:none;fill-rule:nonzero;fill:rgb(0%,0%,0%);fill-opacity:0.235294;" d="M 13.894531 21.914062 C 13.894531 21.96875 13.890625 22.023438 13.890625 22.082031 C 13.890625 24.851562 15.667969 27.195312 18.152344 28.035156 L 18.523438 28.035156 C 18.703125 28.035156 18.878906 27.996094 19.035156 27.929688 C 16.15625 27.40625 13.972656 24.933594 13.894531 21.914062 Z M 13.894531 21.914062 "/>
<path style=" stroke:none;fill-rule:nonzero;fill:url(#linear6);" d="M 23.222656 18.515625 C 23.207031 18.515625 23.191406 18.515625 23.175781 18.519531 L 20.605469 19.222656 C 20.457031 19.261719 20.414062 19.425781 20.519531 19.535156 L 20.980469 19.992188 C 21.042969 20.054688 21.042969 20.152344 20.980469 20.214844 L 17.347656 23.847656 C 17.34375 23.851562 17.335938 23.859375 17.328125 23.863281 C 17.292969 23.890625 17.261719 23.917969 17.230469 23.949219 C 17.207031 23.96875 17.191406 23.992188 17.171875 24.015625 C 17.136719 24.0625 17.082031 24.085938 17.023438 24.078125 C 16.964844 24.066406 16.917969 24.027344 16.898438 23.972656 C 16.835938 23.789062 16.765625 23.609375 16.695312 23.429688 C 16.546875 23.050781 16.414062 22.691406 16.363281 22.429688 C 16.347656 22.355469 16.339844 22.300781 16.339844 22.265625 C 16.335938 22.246094 16.335938 22.230469 16.335938 22.222656 C 16.335938 22.214844 16.335938 22.222656 16.335938 22.230469 C 16.328125 22.179688 16.34375 22.125 16.378906 22.085938 L 16.945312 21.523438 C 16.984375 21.484375 17.039062 21.46875 17.089844 21.480469 C 17.472656 21.574219 17.894531 21.472656 18.195312 21.171875 C 18.652344 20.710938 18.652344 19.980469 18.195312 19.519531 C 17.734375 19.0625 17.003906 19.0625 16.546875 19.519531 C 16.242188 19.824219 16.140625 20.242188 16.234375 20.625 C 16.25 20.679688 16.234375 20.734375 16.195312 20.773438 L 15.59375 21.375 C 15.226562 21.742188 15.242188 22.234375 15.324219 22.636719 C 15.402344 23.039062 15.558594 23.429688 15.707031 23.8125 C 15.851562 24.191406 15.988281 24.550781 16.039062 24.8125 C 16.054688 24.894531 16.0625 24.949219 16.0625 24.988281 C 16.066406 25.003906 16.066406 25.011719 16.066406 25.019531 C 16.074219 25.066406 16.0625 25.113281 16.03125 25.148438 C 16.015625 25.164062 16.003906 25.183594 15.992188 25.199219 C 15.984375 25.207031 15.980469 25.214844 15.972656 25.222656 L 15.492188 25.703125 C 15.714844 25.96875 15.957031 26.214844 16.222656 26.4375 L 16.707031 25.949219 C 16.714844 25.945312 16.722656 25.9375 16.730469 25.933594 C 16.757812 25.914062 16.785156 25.890625 16.808594 25.867188 C 16.847656 25.828125 16.878906 25.792969 16.90625 25.753906 C 16.914062 25.746094 16.917969 25.742188 16.921875 25.734375 L 17.875 24.785156 C 17.882812 24.777344 17.890625 24.769531 17.902344 24.761719 C 17.90625 24.761719 17.910156 24.757812 17.914062 24.753906 C 17.945312 24.734375 17.984375 24.726562 18.023438 24.730469 C 18.027344 24.730469 18.078125 24.738281 18.15625 24.761719 C 18.390625 24.839844 18.726562 25.015625 19.117188 25.1875 C 19.507812 25.359375 19.945312 25.527344 20.449219 25.542969 C 20.945312 25.558594 21.515625 25.371094 21.953125 24.929688 C 22.015625 24.871094 22.109375 24.867188 22.171875 24.925781 C 22.371094 25.113281 22.675781 25.109375 22.871094 24.914062 L 23.808594 23.976562 C 24.007812 23.777344 24.007812 23.464844 23.808594 23.261719 L 22.871094 22.328125 C 22.671875 22.128906 22.359375 22.128906 22.160156 22.328125 L 21.222656 23.261719 C 21.027344 23.457031 21.023438 23.765625 21.210938 23.964844 C 21.265625 24.023438 21.265625 24.117188 21.210938 24.175781 L 21.207031 24.179688 C 21.207031 24.179688 21.207031 24.179688 21.207031 24.183594 C 20.957031 24.429688 20.730469 24.492188 20.480469 24.484375 C 20.207031 24.476562 19.886719 24.367188 19.542969 24.21875 C 19.359375 24.136719 19.179688 24.046875 18.992188 23.960938 C 18.949219 23.941406 18.914062 23.898438 18.90625 23.847656 C 18.894531 23.796875 18.914062 23.746094 18.949219 23.710938 L 21.710938 20.945312 C 21.773438 20.886719 21.871094 20.886719 21.933594 20.945312 L 22.390625 21.40625 C 22.5 21.511719 22.664062 21.46875 22.703125 21.324219 L 23.40625 18.75 C 23.421875 18.6875 23.40625 18.617188 23.359375 18.570312 C 23.359375 18.570312 23.355469 18.566406 23.351562 18.5625 C 23.316406 18.53125 23.269531 18.511719 23.222656 18.515625 Z M 23.222656 18.515625 "/>
<path style=" stroke:none;fill-rule:nonzero;fill:rgb(100%,100%,100%);fill-opacity:0.392157;" d="M 23.222656 18.515625 C 23.207031 18.515625 23.191406 18.515625 23.175781 18.519531 L 20.605469 19.222656 C 20.457031 19.261719 20.414062 19.425781 20.519531 19.535156 L 20.523438 19.535156 C 20.542969 19.515625 20.570312 19.5 20.605469 19.492188 L 23.175781 18.792969 C 23.191406 18.789062 23.207031 18.785156 23.222656 18.785156 C 23.269531 18.785156 23.316406 18.800781 23.351562 18.832031 C 23.355469 18.835938 23.359375 18.839844 23.359375 18.84375 C 23.367188 18.847656 23.371094 18.855469 23.375 18.859375 L 23.40625 18.75 C 23.421875 18.6875 23.40625 18.617188 23.359375 18.570312 C 23.359375 18.570312 23.355469 18.566406 23.351562 18.5625 C 23.316406 18.53125 23.269531 18.511719 23.222656 18.515625 Z M 17.371094 19.175781 C 17.074219 19.175781 16.773438 19.292969 16.546875 19.519531 C 16.28125 19.785156 16.171875 20.140625 16.210938 20.480469 C 16.238281 20.230469 16.351562 19.988281 16.546875 19.792969 C 17.003906 19.332031 17.734375 19.332031 18.195312 19.792969 C 18.390625 19.988281 18.5 20.230469 18.53125 20.480469 C 18.570312 20.140625 18.460938 19.785156 18.195312 19.519531 C 17.964844 19.292969 17.667969 19.175781 17.371094 19.175781 Z M 20.957031 20.238281 L 17.347656 23.847656 C 17.34375 23.851562 17.335938 23.859375 17.328125 23.863281 C 17.292969 23.890625 17.261719 23.917969 17.230469 23.949219 C 17.207031 23.96875 17.191406 23.992188 17.171875 24.015625 C 17.136719 24.0625 17.082031 24.085938 17.023438 24.078125 C 16.964844 24.066406 16.917969 24.027344 16.898438 23.972656 C 16.835938 23.789062 16.765625 23.609375 16.695312 23.429688 C 16.546875 23.050781 16.414062 22.691406 16.363281 22.429688 C 16.359375 22.414062 16.355469 22.402344 16.355469 22.390625 C 16.335938 22.421875 16.328125 22.460938 16.335938 22.5 C 16.335938 22.492188 16.335938 22.484375 16.335938 22.492188 C 16.335938 22.5 16.335938 22.515625 16.339844 22.535156 C 16.339844 22.574219 16.347656 22.625 16.363281 22.699219 C 16.414062 22.960938 16.546875 23.320312 16.695312 23.703125 C 16.765625 23.878906 16.835938 24.0625 16.898438 24.246094 C 16.917969 24.300781 16.964844 24.339844 17.023438 24.347656 C 17.082031 24.355469 17.136719 24.332031 17.171875 24.285156 C 17.191406 24.261719 17.207031 24.238281 17.230469 24.21875 C 17.261719 24.1875 17.292969 24.160156 17.328125 24.132812 C 17.335938 24.128906 17.34375 24.125 17.347656 24.117188 L 20.980469 20.484375 C 21.042969 20.425781 21.042969 20.324219 20.980469 20.265625 Z M 16.210938 20.753906 C 16.207031 20.761719 16.199219 20.765625 16.195312 20.773438 L 15.59375 21.375 C 15.3125 21.65625 15.257812 22.011719 15.28125 22.339844 C 15.304688 22.09375 15.386719 21.851562 15.59375 21.644531 L 16.195312 21.042969 C 16.234375 21.003906 16.25 20.949219 16.234375 20.894531 C 16.222656 20.847656 16.214844 20.800781 16.210938 20.753906 Z M 22.515625 22.179688 C 22.386719 22.179688 22.257812 22.226562 22.160156 22.328125 L 21.222656 23.261719 C 21.085938 23.398438 21.042969 23.585938 21.09375 23.757812 C 21.113281 23.675781 21.160156 23.597656 21.222656 23.535156 L 22.160156 22.597656 C 22.359375 22.398438 22.671875 22.398438 22.871094 22.597656 L 23.808594 23.535156 C 23.871094 23.597656 23.917969 23.675781 23.9375 23.757812 C 23.988281 23.585938 23.945312 23.398438 23.808594 23.261719 L 22.871094 22.328125 C 22.773438 22.226562 22.644531 22.179688 22.515625 22.179688 Z M 18.976562 23.953125 L 18.949219 23.980469 C 18.914062 24.015625 18.894531 24.066406 18.90625 24.117188 C 18.914062 24.167969 18.949219 24.210938 18.992188 24.234375 C 19.179688 24.316406 19.359375 24.410156 19.542969 24.488281 C 19.886719 24.640625 20.207031 24.746094 20.480469 24.753906 C 20.730469 24.761719 20.957031 24.699219 21.207031 24.453125 C 21.207031 24.453125 21.207031 24.449219 21.207031 24.449219 L 21.210938 24.449219 C 21.265625 24.390625 21.265625 24.296875 21.210938 24.234375 C 21.199219 24.226562 21.191406 24.214844 21.183594 24.203125 C 20.941406 24.433594 20.722656 24.492188 20.480469 24.484375 C 20.207031 24.476562 19.886719 24.367188 19.542969 24.21875 C 19.359375 24.136719 19.179688 24.046875 18.992188 23.960938 C 18.988281 23.960938 18.980469 23.957031 18.976562 23.953125 Z M 16.046875 25.125 C 16.042969 25.132812 16.035156 25.144531 16.03125 25.148438 C 16.015625 25.164062 16.003906 25.183594 15.992188 25.199219 C 15.984375 25.207031 15.980469 25.214844 15.972656 25.222656 L 15.492188 25.703125 C 15.53125 25.753906 15.574219 25.800781 15.617188 25.847656 L 15.972656 25.492188 C 15.980469 25.484375 15.984375 25.480469 15.992188 25.472656 C 16.003906 25.453125 16.015625 25.4375 16.03125 25.421875 C 16.0625 25.386719 16.074219 25.335938 16.066406 25.289062 C 16.066406 25.28125 16.066406 25.273438 16.0625 25.257812 C 16.0625 25.230469 16.058594 25.183594 16.046875 25.125 Z M 16.046875 25.125 "/>
<path style="fill:none;stroke-width:11.338583;stroke-linecap:round;stroke-linejoin:round;stroke:rgb(12.941177%,12.941177%,12.941177%);stroke-opacity:1;stroke-miterlimit:4;" d="M 1404.196688 1119.578184 C 1403.251897 1119.578184 1402.307105 1119.578184 1401.362313 1119.814382 L 1245.944076 1162.330009 C 1236.968555 1164.691988 1234.370377 1174.612301 1240.747721 1181.225843 L 1268.619077 1208.861001 C 1272.398244 1212.640168 1272.398244 1218.545116 1268.619077 1222.324283 L 1048.955003 1441.988357 C 1048.718805 1442.224555 1048.246409 1442.696951 1047.774013 1442.933149 C 1045.648232 1444.586534 1043.758649 1446.23992 1041.869065 1448.129503 C 1040.451878 1449.310493 1039.507086 1450.72768 1038.326096 1452.144868 C 1036.200315 1454.979243 1032.893544 1456.396431 1029.350575 1455.924035 C 1025.807606 1455.215441 1022.973231 1452.853462 1021.792241 1449.546691 C 1018.013074 1438.445388 1013.761512 1427.580283 1009.509949 1416.715179 C 1000.534428 1393.80398 992.503698 1372.07377 989.433125 1356.248509 C 988.488333 1351.760748 988.015937 1348.453977 988.015937 1346.328196 C 987.779739 1345.147206 987.779739 1344.202414 987.779739 1343.730019 C 987.779739 1343.257623 987.779739 1343.730019 987.779739 1344.202414 C 987.307344 1341.131841 988.252135 1337.82507 990.377917 1335.463091 L 1024.626616 1301.450589 C 1026.988596 1299.08861 1030.295367 1298.143818 1033.36594 1298.852412 C 1056.513337 1304.521162 1082.022713 1298.380016 1100.209954 1280.192776 C 1127.845111 1252.32142 1127.845111 1208.152407 1100.209954 1180.281052 C 1072.338598 1152.645894 1028.169585 1152.645894 1000.534428 1180.281052 C 982.110989 1198.70449 975.969843 1223.977669 981.638593 1247.125066 C 982.583385 1250.431837 981.638593 1253.738608 979.276614 1256.100587 L 942.902133 1292.475068 C 920.699528 1314.677673 921.644319 1344.438612 926.604476 1368.766999 C 931.328434 1393.095386 940.776352 1416.715179 949.751873 1439.862576 C 958.491196 1462.773775 966.758124 1484.503984 969.828697 1500.329246 C 970.773489 1505.289402 971.245884 1508.596173 971.245884 1510.958152 C 971.482082 1511.902944 971.482082 1512.37534 971.482082 1512.847736 C 971.954478 1515.682111 971.245884 1518.516486 969.356301 1520.642267 C 968.411509 1521.587059 967.702915 1522.768049 966.994322 1523.712841 C 966.521926 1524.185236 966.285728 1524.657632 965.813332 1525.130028 L 936.760987 1554.182373 C 950.224269 1570.243833 964.86854 1585.124302 980.929999 1598.587584 L 1010.218543 1569.062843 C 1010.690939 1568.826645 1011.163334 1568.354249 1011.63573 1568.118051 C 1013.289116 1566.937062 1014.942501 1565.519874 1016.359689 1564.102686 C 1018.721668 1561.740707 1020.611252 1559.614926 1022.264637 1557.252946 C 1022.737033 1556.780551 1022.973231 1556.544353 1023.209429 1556.071957 L 1080.841723 1498.67586 C 1081.314119 1498.203464 1081.786515 1497.731068 1082.495109 1497.258672 C 1082.731307 1497.258672 1082.967505 1497.022475 1083.203703 1496.786277 C 1085.093286 1495.605287 1087.455265 1495.132891 1089.817245 1495.369089 C 1090.053443 1495.369089 1093.124016 1495.841485 1097.847974 1497.258672 C 1112.01985 1501.982631 1132.332872 1512.611538 1155.952665 1523.004247 C 1179.572458 1533.396956 1206.026626 1543.553467 1236.496159 1544.498258 C 1266.493296 1545.44305 1300.978193 1534.105549 1327.432361 1507.415183 C 1331.211528 1503.872214 1336.880279 1503.636017 1340.659445 1507.178985 C 1352.70554 1518.516486 1371.128978 1518.280288 1382.938875 1506.470392 L 1439.626378 1449.782889 C 1451.672472 1437.736794 1451.672472 1418.84096 1439.626378 1406.558668 L 1382.938875 1350.107363 C 1370.89278 1338.061268 1351.996946 1338.061268 1339.950852 1350.107363 L 1283.263349 1406.558668 C 1271.453452 1418.368564 1271.217254 1437.028201 1282.554755 1449.074295 C 1285.861526 1452.617264 1285.861526 1458.286014 1282.554755 1461.828983 L 1282.318557 1462.065181 C 1282.318557 1462.065181 1282.318557 1462.065181 1282.318557 1462.301379 C 1267.20189 1477.181848 1253.50241 1480.961015 1238.385742 1480.488619 C 1221.851887 1480.016224 1202.483657 1473.402682 1181.698239 1464.42716 C 1170.596937 1459.467004 1159.731832 1454.034451 1148.394331 1448.838097 C 1145.796154 1447.657107 1143.670373 1445.05893 1143.197977 1441.988357 C 1142.489383 1438.917784 1143.670373 1435.847211 1145.796154 1433.72143 L 1312.78809 1266.493296 C 1316.567257 1262.950327 1322.472205 1262.950327 1326.251372 1266.493296 L 1353.88653 1294.364651 C 1360.500072 1300.741995 1370.420385 1298.143818 1372.782364 1289.404495 L 1415.297991 1133.75006 C 1416.242783 1129.970893 1415.297991 1125.71933 1412.463616 1122.884955 C 1412.463616 1122.884955 1412.227418 1122.648757 1411.99122 1122.412559 C 1409.865439 1120.522976 1407.031064 1119.341986 1404.196688 1119.578184 Z M 1404.196688 1119.578184 " transform="matrix(0.016538,0,0,0.016538,0,0)"/>
</g>
</svg>
