<svg xmlns="http://www.w3.org/2000/svg" width="32pt" height="32pt" viewBox="0 0 32 32"><defs><radialGradient id="a" gradientUnits="userSpaceOnUse" cx="450.909" cy="189.579" fx="450.909" fy="189.579" r="21.167" gradientTransform="matrix(0 -.07813 -.14064 0 51.47 63.595)"><stop offset="0" stop-opacity=".314"/><stop offset=".222" stop-opacity=".275"/><stop offset="1" stop-opacity="0"/></radialGradient><radialGradient id="b" gradientUnits="userSpaceOnUse" cx="450.909" cy="189.579" fx="450.909" fy="189.579" r="21.167" gradientTransform="matrix(0 .07813 .14064 0 -19.716 -7.527)"><stop offset="0" stop-opacity=".314"/><stop offset=".222" stop-opacity=".275"/><stop offset="1" stop-opacity="0"/></radialGradient><radialGradient id="c" gradientUnits="userSpaceOnUse" cx="450.909" cy="189.579" fx="450.909" fy="189.579" r="21.167" gradientTransform="matrix(0 -.07813 .14064 0 -19.716 63.595)"><stop offset="0" stop-opacity=".314"/><stop offset=".222" stop-opacity=".275"/><stop offset="1" stop-opacity="0"/></radialGradient><radialGradient id="d" gradientUnits="userSpaceOnUse" cx="450.909" cy="189.579" fx="450.909" fy="189.579" r="21.167" gradientTransform="matrix(0 .07813 -.14064 0 51.47 -7.527)"><stop offset="0" stop-opacity=".314"/><stop offset=".222" stop-opacity=".275"/><stop offset="1" stop-opacity="0"/></radialGradient><linearGradient id="e" gradientUnits="userSpaceOnUse" x1="255.323" y1="228.179" x2="255.323" y2="254.667" gradientTransform="matrix(.2672 0 0 .04995 -49.7 16.637)"><stop offset="0" stop-opacity=".275"/><stop offset="1" stop-opacity="0"/></linearGradient><linearGradient id="f" gradientUnits="userSpaceOnUse" x1="328.083" y1="233.5" x2="328.083" y2="-168.667" gradientTransform="matrix(.0625 0 0 .0625 0 13.439)"><stop offset="0" stop-color="#e0e0e0"/><stop offset="1" stop-color="#eee"/></linearGradient><linearGradient id="g" gradientUnits="userSpaceOnUse" x1="127" y1="233.5" x2="127" y2="-168.667" gradientTransform="matrix(.0625 0 0 .0625 0 13.439)"><stop offset="0" stop-color="#42a5f5"/><stop offset="1" stop-color="#64b5f6"/></linearGradient><linearGradient id="h" gradientUnits="userSpaceOnUse" x1="275.167" y1="233.5" x2="275.167" y2="-168.667" gradientTransform="translate(52.917)"><stop offset="0" stop-color="#42a5f5"/><stop offset="1" stop-color="#64b5f6"/></linearGradient><linearGradient id="i" gradientUnits="userSpaceOnUse" x1="275.167" y1="233.5" x2="275.167" y2="-168.667" gradientTransform="translate(127)"><stop offset="0" stop-color="#42a5f5"/><stop offset="1" stop-color="#64b5f6"/></linearGradient><linearGradient id="j" gradientUnits="userSpaceOnUse" x1="275.167" y1="233.5" x2="275.167" y2="-168.667" gradientTransform="translate(74.083)"><stop offset="0" stop-color="#42a5f5"/><stop offset="1" stop-color="#64b5f6"/></linearGradient><linearGradient id="k" gradientUnits="userSpaceOnUse" x1="275.167" y1="233.5" x2="275.167" y2="-168.667" gradientTransform="translate(-10.583)"><stop offset="0" stop-color="#42a5f5"/><stop offset="1" stop-color="#64b5f6"/></linearGradient><linearGradient id="l" gradientUnits="userSpaceOnUse" x1="275.167" y1="233.5" x2="275.167" y2="-168.667" gradientTransform="translate(52.917)"><stop offset="0" stop-color="#42a5f5"/><stop offset="1" stop-color="#64b5f6"/></linearGradient><linearGradient id="m" gradientUnits="userSpaceOnUse" x1="275.167" y1="233.5" x2="275.167" y2="-168.667" gradientTransform="translate(127)"><stop offset="0" stop-color="#42a5f5"/><stop offset="1" stop-color="#64b5f6"/></linearGradient><linearGradient id="n" gradientUnits="userSpaceOnUse" x1="275.167" y1="233.5" x2="275.167" y2="-168.667" gradientTransform="translate(74.083)"><stop offset="0" stop-color="#42a5f5"/><stop offset="1" stop-color="#64b5f6"/></linearGradient><linearGradient id="o" gradientUnits="userSpaceOnUse" x1="275.167" y1="233.5" x2="275.167" y2="-168.667" gradientTransform="translate(-10.583)"><stop offset="0" stop-color="#42a5f5"/><stop offset="1" stop-color="#64b5f6"/></linearGradient><linearGradient id="p" gradientUnits="userSpaceOnUse" x1="275.167" y1="233.5" x2="275.167" y2="-168.667" gradientTransform="translate(52.917)"><stop offset="0" stop-color="#42a5f5"/><stop offset="1" stop-color="#64b5f6"/></linearGradient><linearGradient id="q" gradientUnits="userSpaceOnUse" x1="275.167" y1="233.5" x2="275.167" y2="-168.667" gradientTransform="translate(127)"><stop offset="0" stop-color="#42a5f5"/><stop offset="1" stop-color="#64b5f6"/></linearGradient><linearGradient id="r" gradientUnits="userSpaceOnUse" x1="275.167" y1="233.5" x2="275.167" y2="-168.667" gradientTransform="translate(74.083)"><stop offset="0" stop-color="#42a5f5"/><stop offset="1" stop-color="#64b5f6"/></linearGradient><linearGradient id="s" gradientUnits="userSpaceOnUse" x1="275.167" y1="233.5" x2="275.167" y2="-168.667" gradientTransform="translate(-10.583)"><stop offset="0" stop-color="#42a5f5"/><stop offset="1" stop-color="#64b5f6"/></linearGradient><linearGradient id="t" gradientUnits="userSpaceOnUse" x1="275.167" y1="233.5" x2="275.167" y2="-168.667" gradientTransform="translate(52.917)"><stop offset="0" stop-color="#42a5f5"/><stop offset="1" stop-color="#64b5f6"/></linearGradient><linearGradient id="u" gradientUnits="userSpaceOnUse" x1="275.167" y1="233.5" x2="275.167" y2="-168.667" gradientTransform="translate(74.083)"><stop offset="0" stop-color="#42a5f5"/><stop offset="1" stop-color="#64b5f6"/></linearGradient></defs><path d="M25.137 28.035h2.648v-1.324h-2.648zm0 0" fill="url(#a)"/><path d="M6.613 28.035H3.97v1.32h2.644zm0 0" fill="url(#b)"/><path d="M6.613 28.035H3.97v-1.324h2.644zm0 0" fill="url(#c)"/><path d="M25.137 28.035h2.648v1.32h-2.648zm0 0" fill="url(#d)"/><path d="M6.613 27.508h18.524v1.847H6.613zm0 0" fill="url(#e)"/><path d="M11.246 2.895h15.215c.73 0 1.324.593 1.324 1.324V26.71c0 .73-.594 1.324-1.324 1.324H11.246c-.73 0-1.324-.594-1.324-1.324V4.219c0-.73.594-1.324 1.324-1.324zm0 0" fill="url(#f)"/><path d="M27.785 16.125l-5 1.742 1.742 4.996 3.258-1.133zm-5.832 2.031l-4.996 1.742 1.738 4.997 5-1.739zm5.832 4.508L24.816 23.7l1.512 4.336h.133a1.32 1.32 0 0 0 1.324-1.324zm-3.8 1.324l-4.997 1.742.801 2.305h5.606zm0 0" fill="#222" fill-opacity=".157"/><path d="M11.246 2.895a1.32 1.32 0 0 0-1.324 1.324v.332c0-.735.59-1.324 1.324-1.324h15.215c.734 0 1.324.59 1.324 1.324v-.332a1.32 1.32 0 0 0-1.324-1.324zm0 0" fill="#fff"/><path d="M9.922 26.379v.332c0 .734.59 1.324 1.324 1.324h15.215a1.32 1.32 0 0 0 1.324-1.324v-.332a1.32 1.32 0 0 1-1.324 1.324H11.246a1.32 1.32 0 0 1-1.324-1.324zm0 0" fill-opacity=".235"/><path d="M11.246 2.8c-.785 0-1.418.638-1.418 1.419V26.71c0 .785.633 1.418 1.418 1.418h15.215c.785 0 1.418-.633 1.418-1.418V4.219c0-.782-.633-1.418-1.418-1.418zm0 .188h15.215c.684 0 1.23.547 1.23 1.23v22.493c0 .684-.546 1.23-1.23 1.23H11.246c-.684 0-1.23-.546-1.23-1.23V4.219c0-.684.546-1.23 1.23-1.23zm0 0" fill="#212121"/><path d="M5.293 2.895a1.32 1.32 0 0 0-1.324 1.324V26.71c0 .734.59 1.324 1.324 1.324h6.613V2.895zm0 0" fill="url(#g)"/><path d="M5.293 2.895a1.32 1.32 0 0 0-1.324 1.324v.332c0-.735.59-1.324 1.324-1.324h6.285v24.808h.328V2.895zm0 0" fill="#fff" fill-opacity=".392"/><path d="M3.969 26.379v.332c0 .734.59 1.324 1.324 1.324h6.613v-.332H5.293a1.32 1.32 0 0 1-1.324-1.324zm0 0" fill-opacity=".235"/><path d="M5.293 2.8c-.785 0-1.418.638-1.418 1.419V26.71c0 .785.633 1.418 1.418 1.418h6.613a.093.093 0 0 0 .094-.094V2.895c0-.051-.04-.094-.094-.094zm0 .188h6.52v24.953h-6.52c-.684 0-1.23-.546-1.23-1.23V4.219c0-.684.546-1.23 1.23-1.23zm0 0" fill="#212121"/><path d="M285.723-105.135h10.624c5.812 0 10.561 4.687 10.561 10.561v10.561c0 5.875-4.75 10.624-10.561 10.624h-10.624c-5.812 0-10.562-4.75-10.562-10.624v-10.561c0-5.874 4.75-10.561 10.562-10.561zm0 0" transform="matrix(.0625 0 0 .0625 0 13.439)" fill="url(#h)" stroke-width="3" stroke-linecap="round" stroke-linejoin="round" stroke="#212121"/><path d="M391.588-105.135h10.561c5.875 0 10.624 4.687 10.624 10.561v10.561c0 5.875-4.75 10.624-10.624 10.624h-10.561c-5.875 0-10.562-4.75-10.562-10.624v-10.561a10.509 10.509 0 0 1 10.562-10.561zm0 0" transform="matrix(.0625 0 0 .0625 0 13.439)" fill="url(#i)" stroke-width="3" stroke-linecap="round" stroke-linejoin="round" stroke="#212121"/><path d="M338.655-105.135h10.624c5.812 0 10.562 4.687 10.562 10.561v10.561c0 5.875-4.75 10.624-10.562 10.624h-10.624c-5.812 0-10.561-4.75-10.561-10.624v-10.561c0-5.874 4.75-10.561 10.561-10.561zm0 0" transform="matrix(.0625 0 0 .0625 0 13.439)" fill="url(#j)" stroke-width="3" stroke-linecap="round" stroke-linejoin="round" stroke="#212121"/><path d="M232.853-41.642h10.561a10.509 10.509 0 0 1 10.562 10.562v10.561c0 5.875-4.687 10.624-10.562 10.624h-10.561a10.615 10.615 0 0 1-10.624-10.624V-31.08c0-5.875 4.75-10.562 10.624-10.562zm0 0" transform="matrix(.0625 0 0 .0625 0 13.439)" fill="url(#k)" stroke-width="3" stroke-linecap="round" stroke-linejoin="round" stroke="#212121"/><path d="M285.723-41.642h10.624c5.812 0 10.561 4.687 10.561 10.562v10.561c0 5.875-4.75 10.624-10.561 10.624h-10.624c-5.812 0-10.562-4.75-10.562-10.624V-31.08c0-5.875 4.75-10.562 10.562-10.562zm0 0" transform="matrix(.0625 0 0 .0625 0 13.439)" fill="url(#l)" stroke-width="3" stroke-linecap="round" stroke-linejoin="round" stroke="#212121"/><path d="M391.588-41.642h10.561c5.875 0 10.624 4.687 10.624 10.562v10.561c0 5.875-4.75 10.624-10.624 10.624h-10.561c-5.875 0-10.562-4.75-10.562-10.624V-31.08a10.509 10.509 0 0 1 10.562-10.562zm0 0" transform="matrix(.0625 0 0 .0625 0 13.439)" fill="url(#m)" stroke-width="3" stroke-linecap="round" stroke-linejoin="round" stroke="#212121"/><path d="M338.655-41.642h10.624c5.812 0 10.562 4.687 10.562 10.562v10.561c0 5.875-4.75 10.624-10.562 10.624h-10.624c-5.812 0-10.561-4.75-10.561-10.624V-31.08c0-5.875 4.75-10.562 10.561-10.562zm0 0" transform="matrix(.0625 0 0 .0625 0 13.439)" fill="url(#n)" stroke-width="3" stroke-linecap="round" stroke-linejoin="round" stroke="#212121"/><path d="M232.853 21.852h10.561c5.875 0 10.562 4.75 10.562 10.562v10.561c0 5.875-4.687 10.624-10.562 10.624h-10.561a10.615 10.615 0 0 1-10.624-10.624V32.414c0-5.812 4.75-10.562 10.624-10.562zm0 0" transform="matrix(.0625 0 0 .0625 0 13.439)" fill="url(#o)" stroke-width="3" stroke-linecap="round" stroke-linejoin="round" stroke="#212121"/><path d="M285.723 21.852h10.624c5.812 0 10.561 4.75 10.561 10.562v10.561c0 5.875-4.75 10.624-10.561 10.624h-10.624c-5.812 0-10.562-4.75-10.562-10.624V32.414c0-5.812 4.75-10.562 10.562-10.562zm0 0" transform="matrix(.0625 0 0 .0625 0 13.439)" fill="url(#p)" stroke-width="3" stroke-linecap="round" stroke-linejoin="round" stroke="#212121"/><path d="M391.588 21.852h10.561c5.875 0 10.624 4.75 10.624 10.562v10.561c0 5.875-4.75 10.624-10.624 10.624h-10.561c-5.875 0-10.562-4.75-10.562-10.624V32.414c0-5.812 4.687-10.562 10.562-10.562zm0 0" transform="matrix(.0625 0 0 .0625 0 13.439)" fill="url(#q)" stroke-width="3" stroke-linecap="round" stroke-linejoin="round" stroke="#212121"/><path d="M338.655 21.852h10.624c5.812 0 10.562 4.75 10.562 10.562v10.561c0 5.875-4.75 10.624-10.562 10.624h-10.624c-5.812 0-10.561-4.75-10.561-10.624V32.414c0-5.812 4.75-10.562 10.561-10.562zm0 0" transform="matrix(.0625 0 0 .0625 0 13.439)" fill="url(#r)" stroke-width="3" stroke-linecap="round" stroke-linejoin="round" stroke="#212121"/><path d="M232.853 85.346h10.561c5.875 0 10.562 4.75 10.562 10.562v10.561c0 5.875-4.687 10.624-10.562 10.624h-10.561a10.615 10.615 0 0 1-10.624-10.624V95.908c0-5.812 4.75-10.562 10.624-10.562zm0 0" transform="matrix(.0625 0 0 .0625 0 13.439)" fill="url(#s)" stroke-width="3" stroke-linecap="round" stroke-linejoin="round" stroke="#212121"/><path d="M285.723 85.346h10.624c5.812 0 10.561 4.75 10.561 10.562v10.561c0 5.875-4.75 10.624-10.561 10.624h-10.624c-5.812 0-10.562-4.75-10.562-10.624V95.908c0-5.812 4.75-10.562 10.562-10.562zm0 0" transform="matrix(.0625 0 0 .0625 0 13.439)" fill="url(#t)" stroke-width="3" stroke-linecap="round" stroke-linejoin="round" stroke="#212121"/><path d="M338.655 85.346h10.624c5.812 0 10.562 4.75 10.562 10.562v10.561c0 5.875-4.75 10.624-10.562 10.624h-10.624c-5.812 0-10.561-4.75-10.561-10.624V95.908c0-5.812 4.75-10.562 10.561-10.562zm0 0" transform="matrix(.0625 0 0 .0625 0 13.439)" fill="url(#u)" stroke-width="3" stroke-linecap="round" stroke-linejoin="round" stroke="#212121"/></svg>