<svg height="32pt" viewBox="0 0 32 32" width="32pt" xmlns="http://www.w3.org/2000/svg" xmlns:xlink="http://www.w3.org/1999/xlink"><linearGradient id="a" gradientUnits="userSpaceOnUse" x1="13.56" x2="13.56" y1="28.03275" y2="29.3556875"><stop offset="0" stop-opacity=".275"/><stop offset="1" stop-opacity="0"/></linearGradient><linearGradient id="b"><stop offset="0" stop-opacity=".314"/><stop offset=".222" stop-opacity=".275"/><stop offset="1" stop-opacity="0"/></linearGradient><radialGradient id="c" cx="450.909" cy="189.579" gradientTransform="matrix(0 -.07813 -.14064 0 43.2 63.595)" gradientUnits="userSpaceOnUse" r="21.167" xlink:href="#b"/><radialGradient id="d" cx="450.909" cy="189.579" gradientTransform="matrix(0 .07813 .14064 0 -11.447 -7.527)" gradientUnits="userSpaceOnUse" r="21.167" xlink:href="#b"/><radialGradient id="e" cx="450.909" cy="189.579" gradientTransform="matrix(0 -.07813 .14064 0 -11.447 63.595)" gradientUnits="userSpaceOnUse" r="21.167" xlink:href="#b"/><radialGradient id="f" cx="450.909" cy="189.579" gradientTransform="matrix(0 .07813 -.14064 0 43.2 -7.527)" gradientUnits="userSpaceOnUse" r="21.167" xlink:href="#b"/><linearGradient id="g" gradientTransform="matrix(.016538 .0002572 -.0002572 .016538 0 0)" gradientUnits="userSpaceOnUse" x1="960" x2="960" y1="1695.118" y2="175.118"><stop offset="0" stop-color="#26a69a"/><stop offset="1" stop-color="#4db6ac"/></linearGradient><path d="m14.883 27.54h1.984v1.815h-1.984zm0 0" fill="url(#a)"/><path d="m16.867 28.035h2.649v-1.324h-2.649zm0 0" fill="url(#c)"/><path d="m14.883 28.035h-2.645v1.32h2.645zm0 0" fill="url(#d)"/><path d="m14.883 28.035h-2.645v-1.324h2.645zm0 0" fill="url(#e)"/><path d="m16.867 28.035h2.649v1.32h-2.649zm0 0" fill="url(#f)"/><path d="m14.555 2.89a.998.998 0 0 0 -.985.829l-.5 2.914c-.504.16-.992.36-1.453.601l-2.414-1.707a.997.997 0 0 0 -1.281.11l-1.872 1.87a.997.997 0 0 0 -.11 1.282l1.707 2.41c-.242.465-.441.95-.601 1.457l-2.914.5a.998.998 0 0 0 -.828.985v2.644c0 .485.351.902.828.985l2.91.5c.16.503.363.992.602 1.457l-1.704 2.406c-.28.398-.234.937.11 1.285l1.87 1.871a.996.996 0 0 0 1.282.106l2.406-1.7c.465.239.954.442 1.461.602l.5 2.906c.082.48.496.832.985.832h2.644a.998.998 0 0 0 .985-.832l.5-2.906c.503-.16.992-.363 1.457-.602l2.406 1.7c.398.28.941.238 1.285-.106l1.871-1.871c.344-.348.39-.887.11-1.285l-1.704-2.406c.239-.465.442-.954.602-1.457l2.906-.5c.48-.082.832-.5.832-.985v-2.644a.998.998 0 0 0 -.832-.985l-2.91-.5a8.999 8.999 0 0 0 -.602-1.457l1.707-2.41a.997.997 0 0 0 -.109-1.281l-1.871-1.871a1.002 1.002 0 0 0 -1.285-.11l-2.41 1.707a9.104 9.104 0 0 0 -1.453-.601l-.5-2.914a.998.998 0 0 0 -.985-.828zm1.32 6.622c3.3 0 5.957 2.656 5.957 5.953a5.942 5.942 0 0 1 -5.957 5.953 5.942 5.942 0 0 1 -5.953-5.953 5.942 5.942 0 0 1 5.953-5.953zm0 0" fill="url(#g)"/><path d="m14.555 2.89a.998.998 0 0 0 -.985.829l-.5 2.914c-.504.16-.992.36-1.453.601l-2.414-1.707a.997.997 0 0 0 -1.281.11l-1.872 1.87a.998.998 0 0 0 -.262.958c.047-.168.133-.324.262-.453l1.87-1.872a.997.997 0 0 1 1.282-.11l2.414 1.703c.461-.238.95-.437 1.453-.597l.5-2.914a.998.998 0 0 1 .985-.832h2.644c.488 0 .903.351.985.832l.5 2.914c.503.16.988.36 1.453.597l2.41-1.703a1.002 1.002 0 0 1 1.285.11l1.871 1.87a.981.981 0 0 1 .258.454.996.996 0 0 0 -.258-.957l-1.871-1.871a1.002 1.002 0 0 0 -1.285-.11l-2.41 1.707a9.104 9.104 0 0 0 -1.453-.601l-.5-2.914a.998.998 0 0 0 -.985-.828zm-7.055 8.607a9.273 9.273 0 0 0 -.453 1.16l-2.914.5a.998.998 0 0 0 -.828.985v.5c0-.485.351-.903.828-.985l2.914-.5c.16-.504.36-.988.601-1.453zm16.754 0-.149.207c.243.465.442.95.602 1.453l2.91.5c.48.082.832.5.832.985v-.5a.998.998 0 0 0 -.832-.985l-2.91-.5a9.273 9.273 0 0 0 -.453-1.16zm-14.324 4.218c-.004.086-.008.168-.008.254a5.942 5.942 0 0 0 5.953 5.953c3.3 0 5.957-2.656 5.957-5.953 0-.086-.004-.168-.008-.254a5.938 5.938 0 0 1 -5.949 5.703 5.937 5.937 0 0 1 -5.945-5.703zm-2.43 4.219-1.559 2.199a1 1 0 0 0 -.152.828c.031-.113.082-.223.152-.324l1.704-2.41c-.051-.098-.098-.196-.145-.293zm16.754 0c-.047.097-.094.195-.145.293l1.703 2.41c.07.101.122.21.149.324a.999.999 0 0 0 -.148-.828zm0 0" fill="#fff" fill-opacity=".392"/><path d="m14.555 28.055a.995.995 0 0 1 -.985-.828l-.5-2.915a9.305 9.305 0 0 1 -1.453-.597l-2.414 1.703a.997.997 0 0 1 -1.281-.11l-1.871-1.87a.995.995 0 0 1 -.262-.958c.047.168.133.329.262.457l1.87 1.872a.997.997 0 0 0 1.282.109l2.414-1.707c.461.238.95.441 1.453.598l.5 2.914c.082.48.496.832.985.832h2.644a.998.998 0 0 0 .985-.832l.5-2.914c.503-.157.988-.36 1.453-.598l2.41 1.707c.398.281.941.234 1.285-.11l1.871-1.87a.993.993 0 0 0 .258-.458.993.993 0 0 1 -.258.957l-1.871 1.872c-.344.343-.887.39-1.285.109l-2.41-1.703c-.465.238-.95.437-1.453.598l-.5 2.914a.995.995 0 0 1 -.985.828zm-7.055-8.606a8.824 8.824 0 0 1 -.453-1.16l-2.914-.496a1.001 1.001 0 0 1 -.828-.984v-.504c0 .488.351.902.828.984l2.914.5c.16.504.36.992.601 1.453zm16.754 0-.149-.207c.243-.46.442-.949.602-1.453l2.91-.5a.998.998 0 0 0 .832-.984v.504c0 .484-.351.902-.832.984l-2.91.496c-.125.402-.277.79-.453 1.16zm-14.324-4.219a5.942 5.942 0 0 1 5.945-6.207 5.943 5.943 0 0 1 5.95 6.207 5.94 5.94 0 0 0 -5.95-5.703 5.94 5.94 0 0 0 -5.945 5.703zm-2.43-4.214-1.559-2.204a1 1 0 0 1 -.152-.828c.031.114.082.227.152.329l1.704 2.406a6.96 6.96 0 0 0 -.145.297zm16.754 0a6.96 6.96 0 0 0 -.145-.297l1.703-2.406a.991.991 0 0 0 .149-.329.999.999 0 0 1 -.148.829zm0 0" fill-opacity=".235"/><path d="m14.555 2.89a.998.998 0 0 0 -.985.829l-.5 2.914c-.504.16-.992.36-1.453.601l-2.414-1.707a.997.997 0 0 0 -1.281.11l-1.872 1.87a.997.997 0 0 0 -.11 1.282l1.707 2.41c-.242.465-.441.95-.601 1.457l-2.914.5a.998.998 0 0 0 -.828.985v2.644c0 .484.351.902.828.984l2.91.5c.16.504.363.993.602 1.458l-1.704 2.406c-.28.398-.234.937.11 1.285l1.87 1.871a.996.996 0 0 0 1.282.105l2.406-1.699c.465.239.953.442 1.461.602l.5 2.906c.082.48.496.832.985.832h2.644a.998.998 0 0 0 .985-.832l.5-2.906c.503-.16.992-.363 1.457-.602l2.406 1.7c.398.28.941.238 1.285-.106l1.871-1.871c.344-.348.39-.887.11-1.285l-1.704-2.406c.239-.465.442-.954.602-1.458l2.906-.5c.48-.082.832-.5.832-.984v-2.644a.998.998 0 0 0 -.832-.985l-2.91-.5a8.999 8.999 0 0 0 -.602-1.457l1.707-2.41a.997.997 0 0 0 -.109-1.281l-1.871-1.871a1.002 1.002 0 0 0 -1.285-.11l-2.41 1.707a9.104 9.104 0 0 0 -1.453-.601l-.5-2.914a.998.998 0 0 0 -.985-.828zm1.32 6.622c3.3 0 5.957 2.656 5.957 5.953a5.942 5.942 0 0 1 -5.957 5.953 5.942 5.942 0 0 1 -5.953-5.953 5.942 5.942 0 0 1 5.953-5.953zm0 0" fill="none" stroke="#212121" stroke-linecap="round" stroke-linejoin="round" stroke-width=".187547"/></svg>