<svg height="32" viewBox="0 0 32 32" width="32" xmlns="http://www.w3.org/2000/svg" xmlns:xlink="http://www.w3.org/1999/xlink"><linearGradient id="a" gradientUnits="userSpaceOnUse" x1="15.87652193769" x2="15.87652287528" y1="29.02621849994" y2="30.68002281241"><stop offset="0" stop-opacity=".27451"/><stop offset="1" stop-opacity="0"/></linearGradient><linearGradient id="b"><stop offset="0" stop-opacity=".313726"/><stop offset=".222222" stop-opacity=".27451"/><stop offset="1" stop-opacity="0"/></linearGradient><radialGradient id="c" cx="450.908936" cy="189.579361" gradientTransform="matrix(.00000017 -.0781325 -.140638 -.0000001 43.530869 64.918379)" gradientUnits="userSpaceOnUse" r="21.166656" xlink:href="#b"/><radialGradient id="d" cx="450.908936" cy="189.579361" gradientTransform="matrix(-.00000017 .0781325 .140638 .0000001 -11.777839 -6.204434)" gradientUnits="userSpaceOnUse" r="21.166656" xlink:href="#b"/><radialGradient id="e" cx="450.908936" cy="189.579361" gradientTransform="matrix(-.00000017 -.0781325 .140638 -.0000001 -11.777839 64.918379)" gradientUnits="userSpaceOnUse" r="21.166656" xlink:href="#b"/><radialGradient id="f" cx="450.908936" cy="189.579361" gradientTransform="matrix(.00000017 .0781325 -.140638 .0000001 43.530867 -6.204435)" gradientUnits="userSpaceOnUse" r="21.166656" xlink:href="#b"/><linearGradient id="g" gradientUnits="userSpaceOnUse" x1="15.87648" x2="15.87648" y1="29.35690419623" y2="2.89610343548"><stop offset="0" stop-color="#bdbdbd"/><stop offset="1" stop-color="#e0e0e0"/></linearGradient><radialGradient id="h" cx="254.000007" cy="43.00000958838" gradientUnits="userSpaceOnUse" r="170.787884125"><stop offset="0" stop-color="#616161"/><stop offset=".826236" stop-color="#424242"/><stop offset=".936401" stop-color="#616161"/><stop offset="1" stop-color="#424242"/></radialGradient><linearGradient id="i" gradientUnits="userSpaceOnUse" x1="15.25909488614" x2="15.25909488614" y1="6.70110067772" y2="25.22370236114"><stop offset="0" stop-color="#42a5f5"/><stop offset="1" stop-color="#90caf9"/></linearGradient><linearGradient id="j" gradientUnits="userSpaceOnUse" x1="15.876524" x2="15.876524" y1="12.654794" y2="19.27001250002"><stop offset="0" stop-color="#616161"/><stop offset="1" stop-color="#424242"/></linearGradient><path d="m14.554688 29.355469h2.644531v1.324219h-2.644531zm0 0" fill="url(#a)"/><path d="m17.199219 29.355469h2.644531v-1.320313h-2.644531zm0 0" fill="url(#c)"/><path d="m14.554688 29.355469h-2.648438v1.324219h2.648438zm0 0" fill="url(#d)"/><path d="m14.554688 29.355469h-2.648438v-1.320313h2.648438zm0 0" fill="url(#e)"/><path d="m17.199219 29.355469h2.644531v1.324219h-2.644531zm0 0" fill="url(#f)"/><path d="m14.554688 2.902344c-.640626 0-1.1875.457031-1.296876 1.089844l-.71875 4.074218-3.394531-2.371094c-.523437-.367187-1.234375-.304687-1.6875.144532l-1.871093 1.871094c-.449219.453124-.511719 1.164062-.144532 1.6875l2.375 3.390624-4.078125.722657c-.628906.109375-1.089843.65625-1.089843 1.296875v2.644531c0 .636719.460937 1.183594 1.089843 1.296875l4.078125.71875-2.375 3.390625c-.367187.523437-.304687 1.234375.144532 1.6875l1.871093 1.871094c.453125.453125 1.164063.515625 1.6875.148437l3.394531-2.375.71875 4.078125c.109376.628907.65625 1.085938 1.296876 1.085938h2.644531c.640625 0 1.1875-.457031 1.296875-1.085938l.71875-4.078125 3.394531 2.375c.523437.367188 1.234375.304688 1.683594-.148437l1.871093-1.871094c.453126-.453125.515626-1.164063.148438-1.6875l-2.375-3.390625 4.078125-.71875c.628906-.113281 1.089844-.660156 1.089844-1.296875v-2.644531c0-.640625-.460938-1.1875-1.089844-1.296875l-4.078125-.722657 2.375-3.390624c.367188-.523438.304688-1.234376-.148438-1.6875l-1.871093-1.871094c-.449219-.449219-1.160157-.511719-1.683594-.144532l-3.394531 2.371094-.71875-4.074218c-.109375-.632813-.65625-1.089844-1.296875-1.089844zm0 0" fill="url(#g)"/><path d="m14.554688 2.902344c-.640626 0-1.1875.457031-1.296876 1.089844l-.71875 4.074218-3.394531-2.371094c-.523437-.367187-1.234375-.304687-1.6875.144532l-1.871093 1.871094c-.292969.296874-.421876.703124-.375 1.09375.035156-.28125.164062-.554688.375-.769532l1.871093-1.871094c.453125-.449218 1.164063-.511718 1.6875-.144531l3.394531 2.371094.71875-4.074219c.109376-.628906.65625-1.089844 1.296876-1.089844h2.644531c.640625 0 1.1875.460938 1.296875 1.089844l.71875 4.074219 3.394531-2.371094c.523437-.367187 1.234375-.304687 1.683594.144531l1.871093 1.871094c.214844.214844.339844.488282.375.769532.050782-.390626-.078124-.796876-.375-1.09375l-1.871093-1.871094c-.449219-.449219-1.160157-.511719-1.683594-.144532l-3.394531 2.371094-.71875-4.074218c-.109375-.632813-.65625-1.089844-1.296875-1.089844zm-6.941407 9.921875-3.875.6875c-.628906.109375-1.089843.65625-1.089843 1.296875v.324218c0-.640624.460937-1.1875 1.089843-1.296874l4.078125-.722657zm16.527344 0-.203125.289062 4.078125.722657c.628906.109374 1.089844.65625 1.089844 1.296874v-.324218c0-.640625-.460938-1.1875-1.089844-1.296875zm0 6.933593-.203125.035157 2.375 3.390625c.128906.183594.203125.386718.226562.59375.039063-.3125-.035156-.640625-.226562-.917969zm-16.527344 0-2.171875 3.101563c-.195312.277344-.269531.605469-.230468.917969.027343-.207032.101562-.410156.230468-.59375l2.375-3.390625zm0 0" fill="#fff" fill-opacity=".588235"/><path d="m5.296875 16.367188c-.003906.078124-.003906.160156-.003906.242187 0 .847656.097656 1.675781.285156 2.464844l.132813.023437c-.25-.867187-.394532-1.785156-.414063-2.730468zm21.160156 0c-.019531.945312-.164062 1.863281-.417969 2.730468l.136719-.023437c.1875-.789063.285157-1.617188.285157-2.464844 0-.082031 0-.164063-.003907-.242187zm-1.292969 4.851562c-.96875 1.769531-2.429687 3.230469-4.199218 4.195312l.378906.265626c1.6875-1.015626 3.066406-2.488282 3.964844-4.25zm-18.574218 0-.144532.210938c.898438 1.761718 2.277344 3.234374 3.964844 4.25l.378906-.265626c-1.769531-.964843-3.230468-2.425781-4.199218-4.195312zm6.316406 5.070312.089844.507813c.914062.257813 1.882812.394531 2.878906.394531 1 0 1.964844-.136718 2.878906-.394531l.089844-.507813c-.941406.273438-1.9375.417969-2.96875.417969s-2.027344-.144531-2.96875-.417969zm0 0" fill-opacity=".235294"/><path d="m5.222656 8.414062c-.058594.335938.011719.6875.21875.984376l2.089844 2.984374.285156-.050781-2.375-3.390625c-.113281-.164062-.1875-.34375-.21875-.527344zm21.308594 0c-.03125.183594-.105469.363282-.21875.527344l-2.375 3.390625.285156.050781 2.089844-2.984374c.207031-.296876.277344-.648438.21875-.984376zm-23.882812 8.582032v.457031c0 .636719.460937 1.183594 1.089843 1.296875l3.792969.667969.285156-.40625-4.078125-.71875c-.628906-.113281-1.089843-.660157-1.089843-1.296875zm26.457031 0c0 .636718-.460938 1.183594-1.089844 1.296875l-4.078125.71875.285156.40625 3.792969-.667969c.628906-.113281 1.089844-.660156 1.089844-1.296875zm-23.882813 6.390625c-.074218.414062.054688.847656.363282 1.160156l1.871093 1.871094c.453125.453125 1.164063.515625 1.6875.148437l3.394531-2.375.71875 4.078125c.109376.628907.65625 1.085938 1.296876 1.085938h2.644531c.640625 0 1.1875-.457031 1.296875-1.085938l.71875-4.078125 3.394531 2.375c.523437.367188 1.234375.304688 1.683594-.148437l1.871093-1.871094c.3125-.3125.4375-.746094.367188-1.160156-.046875.257812-.167969.507812-.367188.703125l-1.871093 1.871094c-.449219.453124-1.160157.515624-1.683594.148437l-3.394531-2.375-.71875 4.078125c-.109375.628906-.65625 1.085938-1.296875 1.085938h-2.644531c-.640626 0-1.1875-.457032-1.296876-1.085938l-.71875-4.078125-3.394531 2.375c-.523437.367187-1.234375.304687-1.6875-.148437l-1.871093-1.871094c-.195313-.195313-.316407-.445313-.363282-.703125zm0 0" fill-opacity=".235294"/><path d="m880.073484 175.495061c-38.736461 0-71.804171 27.635158-78.417713 65.899223l-43.460419 246.35444-205.256-143.372143c-31.650523-22.202606-74.638546-18.423439-102.037505 8.739323l-113.138808 113.138808c-27.162762 27.39896-30.941929 70.386983-8.739324 102.037505l143.608341 205.019803-246.590638 43.696617c-38.027866 6.613542-65.899222 39.681252-65.899222 78.417712v159.905998c0 38.500263 27.871356 71.567973 65.899222 78.417713l246.590638 43.460419-143.608341 205.019802c-22.202605 31.650522-18.423438 74.638546 8.739324 102.037505l113.138808 113.138808c27.398959 27.39896 70.386982 31.178127 102.037505 8.975522l205.256-143.608341 43.460419 246.590638c6.613542 38.027866 39.681252 65.663024 78.417713 65.663024h159.905998c38.73646 0 71.80417-27.635158 78.417712-65.663024l43.460419-246.590638 205.256001 143.608341c31.650522 22.202605 74.638545 18.423438 101.801307-8.975522l113.138808-113.138808c27.39896-27.398959 31.178127-70.386983 8.975521-102.037505l-143.608341-205.019802 246.590638-43.460419c38.027867-6.84974 65.899223-39.91745 65.899223-78.417713v-159.905998c0-38.73646-27.871356-71.80417-65.899223-78.417712l-246.590638-43.696617 143.608341-205.019803c22.202606-31.650522 18.423439-74.638545-8.975521-102.037505l-113.138808-113.138808c-27.162762-27.162762-70.150785-30.941929-101.801307-8.739323l-205.256001 143.372143-43.460419-246.35444c-6.613542-38.264065-39.681252-65.899223-78.417712-65.899223zm0 0" fill="none" stroke="#212121" stroke-linecap="round" stroke-linejoin="round" stroke-width="11.338583" transform="scale(.016538)"/><path d="m253.975747-126.320968c93.553566 0 169.358827 73.492981 169.358827 164.171822v10.311515c0 90.678841-75.805261 164.171823-169.358827 164.171823-93.491073 0-169.296333-73.492982-169.296333-164.171823v-10.311515c0-90.678841 75.80526-164.171822 169.296333-164.171822zm0 0" fill="url(#h)" stroke="#212121" stroke-linecap="round" stroke-width="2.909091" transform="matrix(.062506 0 0 .062506 0 13.438783)"/><path d="m15.875 6.699219c5.117188 0 9.261719 4.148437 9.261719 9.261719 0 5.117187-4.144531 9.261718-9.261719 9.261718-5.113281 0-9.261719-4.144531-9.261719-9.261718 0-5.113282 4.148438-9.261719 9.261719-9.261719zm0 0" fill="url(#i)"/><path d="m12.585938 16.292969c-.011719.109375-.015626.21875-.015626.332031 0 1.832031 1.472657 3.304688 3.304688 3.304688s3.308594-1.472657 3.308594-3.304688c0-.113281-.003906-.222656-.015625-.332031-.164063 1.675781-1.570313 2.976562-3.292969 2.976562-1.71875 0-3.125-1.300781-3.289062-2.976562zm0 0" fill-opacity=".235294"/><path d="m15.875 12.65625c1.828125 0 3.308594 1.480469 3.308594 3.304688 0 1.828124-1.480469 3.308593-3.308594 3.308593-1.824219 0-3.304688-1.480469-3.304688-3.308593 0-1.824219 1.480469-3.304688 3.304688-3.304688zm0 0" fill="url(#j)"/><path d="m15.875 12.65625c-1.832031 0-3.304688 1.472656-3.304688 3.304688 0 .054687 0 .109374.003907.164062.085937-1.753906 1.527343-3.140625 3.300781-3.140625 1.777344 0 3.21875 1.386719 3.304688 3.140625.003906-.054688.003906-.109375.003906-.164062 0-1.832032-1.476563-3.304688-3.308594-3.304688zm0 0" fill="#fff" fill-opacity=".313726"/><path d="m253.975747-12.519336c29.247207 0 52.932445 23.685238 52.932445 52.869951 0 29.247207-23.685238 52.932445-52.932445 52.932445-29.184713 0-52.869952-23.685238-52.869952-52.932445 0-29.184713 23.685239-52.869951 52.869952-52.869951zm0 0" fill="none" stroke="#212121" stroke-linecap="round" stroke-width="3" transform="matrix(.062506 0 0 .062506 0 13.438783)"/><path d="m15.875 25.46875c-5.128906 0-9.261719-4.128906-9.261719-9.257812 0-.039063.003907-.078126.003907-.117188.058593 5.078125 4.167968 9.148438 9.257812 9.148438 5.09375 0 9.203125-4.070313 9.261719-9.148438v.117188c0 5.128906-4.128907 9.257812-9.261719 9.257812zm0 0" fill="#fff" fill-opacity=".392157"/><path d="m15.875 6.699219c-5.128906 0-9.261719 4.132812-9.261719 9.261719 0 .039062.003907.078124.003907.117187.058593-5.078125 4.167968-9.148437 9.257812-9.148437 5.09375 0 9.203125 4.070312 9.261719 9.148437 0-.039063 0-.078125 0-.117187 0-5.128907-4.128907-9.261719-9.261719-9.261719zm0 0" fill-opacity=".235294"/><path d="m253.975747-107.822735c81.867182 0 148.17335 66.368662 148.17335 148.17335 0 81.867182-66.306168 148.17335-148.17335 148.17335-81.804689 0-148.173351-66.306168-148.173351-148.17335 0-81.804688 66.368662-148.17335 148.173351-148.17335zm0 0" fill="none" stroke="#212121" stroke-linecap="round" stroke-width="2.8" transform="matrix(.062506 0 0 .062506 0 13.438783)"/></svg>