<?xml version="1.0" encoding="UTF-8"?>
<svg xmlns="http://www.w3.org/2000/svg" xmlns:xlink="http://www.w3.org/1999/xlink" width="32pt" height="32pt" viewBox="0 0 32 32" version="1.1">
<defs>
<linearGradient id="linear0" gradientUnits="userSpaceOnUse" x1="507.99997" y1="233.49998" x2="507.99997" y2="254.66664" gradientTransform="matrix(0.062506,0,0,0.062506,-18.522601,13.438784)">
<stop offset="0" style="stop-color:rgb(0%,0%,0%);stop-opacity:0.27451;"/>
<stop offset="1" style="stop-color:rgb(0%,0%,0%);stop-opacity:0;"/>
</linearGradient>
<radialGradient id="radial0" gradientUnits="userSpaceOnUse" cx="450.90894" cy="189.57936" fx="450.90894" fy="189.57936" r="21.166656" gradientTransform="matrix(0.00000017417,-0.0781325,-0.140638,-0.000000101539,43.530871,63.595334)">
<stop offset="0" style="stop-color:rgb(0%,0%,0%);stop-opacity:0.313725;"/>
<stop offset="0.222222" style="stop-color:rgb(0%,0%,0%);stop-opacity:0.27451;"/>
<stop offset="1" style="stop-color:rgb(0%,0%,0%);stop-opacity:0;"/>
</radialGradient>
<radialGradient id="radial1" gradientUnits="userSpaceOnUse" cx="450.90894" cy="189.57936" fx="450.90894" fy="189.57936" r="21.166656" gradientTransform="matrix(-0.00000017417,0.0781325,0.140638,0.000000101539,-17.07001,-7.527479)">
<stop offset="0" style="stop-color:rgb(0%,0%,0%);stop-opacity:0.313725;"/>
<stop offset="0.222222" style="stop-color:rgb(0%,0%,0%);stop-opacity:0.27451;"/>
<stop offset="1" style="stop-color:rgb(0%,0%,0%);stop-opacity:0;"/>
</radialGradient>
<radialGradient id="radial2" gradientUnits="userSpaceOnUse" cx="450.90894" cy="189.57936" fx="450.90894" fy="189.57936" r="21.166656" gradientTransform="matrix(-0.00000017417,-0.0781325,0.140638,-0.000000101539,-17.07001,63.595334)">
<stop offset="0" style="stop-color:rgb(0%,0%,0%);stop-opacity:0.313725;"/>
<stop offset="0.222222" style="stop-color:rgb(0%,0%,0%);stop-opacity:0.27451;"/>
<stop offset="1" style="stop-color:rgb(0%,0%,0%);stop-opacity:0;"/>
</radialGradient>
<radialGradient id="radial3" gradientUnits="userSpaceOnUse" cx="450.90894" cy="189.57936" fx="450.90894" fy="189.57936" r="21.166656" gradientTransform="matrix(0.00000017417,0.0781325,-0.140638,0.000000101539,43.530869,-7.527479)">
<stop offset="0" style="stop-color:rgb(0%,0%,0%);stop-opacity:0.313725;"/>
<stop offset="0.222222" style="stop-color:rgb(0%,0%,0%);stop-opacity:0.27451;"/>
<stop offset="1" style="stop-color:rgb(0%,0%,0%);stop-opacity:0;"/>
</radialGradient>
<linearGradient id="linear1" gradientUnits="userSpaceOnUse" x1="254" y1="-41.666668" x2="254" y2="-126.33334" gradientTransform="matrix(1,0,0,1,-42.33333,0)">
<stop offset="0" style="stop-color:rgb(100%,79.215686%,15.686275%);stop-opacity:1;"/>
<stop offset="1" style="stop-color:rgb(100%,87.843137%,50.980392%);stop-opacity:1;"/>
</linearGradient>
<linearGradient id="linear2" gradientUnits="userSpaceOnUse" x1="960" y1="735.1181" x2="960" y2="175.11813" gradientTransform="matrix(0.016538,0,0,0.016538,-2.646086,0)">
<stop offset="0" style="stop-color:rgb(74.117647%,74.117647%,74.117647%);stop-opacity:1;"/>
<stop offset="1" style="stop-color:rgb(87.843137%,87.843137%,87.843137%);stop-opacity:1;"/>
</linearGradient>
<linearGradient id="linear3" gradientUnits="userSpaceOnUse" x1="960" y1="1695.1182" x2="960" y2="735.1181" gradientTransform="matrix(0.016538,0,0,0.016538,-2.646086,0)">
<stop offset="0" style="stop-color:rgb(25.882353%,25.882353%,25.882353%);stop-opacity:1;"/>
<stop offset="1" style="stop-color:rgb(38.039216%,38.039216%,38.039216%);stop-opacity:1;"/>
</linearGradient>
<linearGradient id="linear4" gradientUnits="userSpaceOnUse" x1="254" y1="-20.499998" x2="254" y2="233.5" gradientTransform="matrix(0.062506,0,0,0.062506,-2.646086,13.438783)">
<stop offset="0" style="stop-color:rgb(25.882353%,25.882353%,25.882353%);stop-opacity:1;"/>
<stop offset="1" style="stop-color:rgb(38.039216%,38.039216%,38.039216%);stop-opacity:1;"/>
</linearGradient>
<linearGradient id="linear5" gradientUnits="userSpaceOnUse" x1="254" y1="-168.66667" x2="254" y2="233.5" gradientTransform="matrix(0.0309469,0,0,0.0309469,12.315893,20.815538)">
<stop offset="0" style="stop-color:rgb(87.843137%,87.843137%,87.843137%);stop-opacity:1;"/>
<stop offset="1" style="stop-color:rgb(74.117647%,74.117647%,74.117647%);stop-opacity:1;"/>
</linearGradient>
<linearGradient id="linear6" gradientUnits="userSpaceOnUse" x1="254" y1="117.08334" x2="254" y2="-52.25" gradientTransform="matrix(0.495103,0,0,0.495103,197.03548,118.01681)">
<stop offset="0" style="stop-color:rgb(96.078431%,96.078431%,96.078431%);stop-opacity:1;"/>
<stop offset="1" style="stop-color:rgb(87.843137%,87.843137%,87.843137%);stop-opacity:1;"/>
</linearGradient>
</defs>
<g id="surface1">
<path style=" stroke:none;fill-rule:nonzero;fill:url(#linear0);" d="M 9.261719 28.035156 L 17.199219 28.035156 L 17.199219 29.355469 L 9.261719 29.355469 Z M 9.261719 28.035156 "/>
<path style=" stroke:none;fill-rule:nonzero;fill:url(#radial0);" d="M 17.199219 28.035156 L 19.84375 28.035156 L 19.84375 26.710938 L 17.199219 26.710938 Z M 17.199219 28.035156 "/>
<path style=" stroke:none;fill-rule:nonzero;fill:url(#radial1);" d="M 9.261719 28.035156 L 6.613281 28.035156 L 6.613281 29.355469 L 9.261719 29.355469 Z M 9.261719 28.035156 "/>
<path style=" stroke:none;fill-rule:nonzero;fill:url(#radial2);" d="M 9.261719 28.035156 L 6.613281 28.035156 L 6.613281 26.710938 L 9.261719 26.710938 Z M 9.261719 28.035156 "/>
<path style=" stroke:none;fill-rule:nonzero;fill:url(#radial3);" d="M 17.199219 28.035156 L 19.84375 28.035156 L 19.84375 29.355469 L 17.199219 29.355469 Z M 17.199219 28.035156 "/>
<path style="fill-rule:nonzero;fill:url(#linear1);stroke-width:3;stroke-linecap:square;stroke-linejoin:round;stroke:rgb(12.941176%,12.941176%,12.941176%);stroke-opacity:1;stroke-miterlimit:4;" d="M 158.734842 -126.320968 L 264.599732 -126.320968 C 270.411677 -126.320968 275.161223 -121.571422 275.161223 -115.759477 L 275.161223 -52.26554 C 275.161223 -46.391101 270.411677 -41.641555 264.599732 -41.641555 L 158.734842 -41.641555 C 152.922897 -41.641555 148.17335 -46.391101 148.17335 -52.26554 L 148.17335 -115.759477 C 148.17335 -121.571422 152.922897 -126.320968 158.734842 -126.320968 Z M 158.734842 -126.320968 " transform="matrix(0.062506,0,0,0.062506,0,13.438783)"/>
<path style=" stroke:none;fill-rule:nonzero;fill:url(#linear2);" d="M 9.261719 2.894531 C 8.894531 2.894531 8.601562 3.191406 8.601562 3.558594 L 8.601562 12.15625 C 8.601562 12.523438 8.894531 12.820312 9.261719 12.820312 L 17.199219 12.820312 C 17.566406 12.820312 17.859375 12.523438 17.859375 12.15625 L 17.859375 3.558594 C 17.859375 3.191406 17.566406 2.894531 17.199219 2.894531 Z M 10.585938 6.203125 C 10.949219 6.203125 11.246094 6.5 11.246094 6.863281 L 11.246094 9.511719 C 11.246094 9.878906 10.949219 10.171875 10.585938 10.171875 C 10.21875 10.171875 9.921875 9.878906 9.921875 9.511719 L 9.921875 6.863281 C 9.921875 6.5 10.21875 6.203125 10.585938 6.203125 Z M 13.230469 6.203125 C 13.597656 6.203125 13.890625 6.5 13.890625 6.863281 L 13.890625 9.511719 C 13.890625 9.878906 13.597656 10.171875 13.230469 10.171875 C 12.863281 10.171875 12.570312 9.878906 12.570312 9.511719 L 12.570312 6.863281 C 12.570312 6.5 12.863281 6.203125 13.230469 6.203125 Z M 15.875 6.203125 C 16.242188 6.203125 16.539062 6.5 16.539062 6.863281 L 16.539062 9.511719 C 16.539062 9.878906 16.242188 10.171875 15.875 10.171875 C 15.511719 10.171875 15.214844 9.878906 15.214844 9.511719 L 15.214844 6.863281 C 15.214844 6.5 15.511719 6.203125 15.875 6.203125 Z M 15.875 6.203125 "/>
<path style=" stroke:none;fill-rule:nonzero;fill:rgb(0%,0%,0%);fill-opacity:0.235294;" d="M 10.585938 6.203125 C 10.21875 6.203125 9.921875 6.5 9.921875 6.863281 L 9.921875 7.195312 C 9.921875 6.828125 10.21875 6.535156 10.585938 6.535156 C 10.949219 6.535156 11.246094 6.828125 11.246094 7.195312 L 11.246094 6.863281 C 11.246094 6.5 10.949219 6.203125 10.585938 6.203125 Z M 13.230469 6.203125 C 12.863281 6.203125 12.570312 6.5 12.570312 6.863281 L 12.570312 7.195312 C 12.570312 6.828125 12.863281 6.535156 13.230469 6.535156 C 13.597656 6.535156 13.890625 6.828125 13.890625 7.195312 L 13.890625 6.863281 C 13.890625 6.5 13.597656 6.203125 13.230469 6.203125 Z M 15.875 6.203125 C 15.511719 6.203125 15.214844 6.5 15.214844 6.863281 L 15.214844 7.195312 C 15.214844 6.828125 15.511719 6.535156 15.875 6.535156 C 16.242188 6.535156 16.539062 6.828125 16.539062 7.195312 L 16.539062 6.863281 C 16.539062 6.5 16.242188 6.203125 15.875 6.203125 Z M 8.601562 12.15625 L 8.601562 12.488281 C 8.601562 12.855469 8.894531 13.148438 9.261719 13.148438 L 17.199219 13.148438 C 17.566406 13.148438 17.859375 12.855469 17.859375 12.488281 L 17.859375 12.15625 C 17.859375 12.523438 17.566406 12.820312 17.199219 12.820312 L 9.261719 12.820312 C 8.894531 12.820312 8.601562 12.523438 8.601562 12.15625 Z M 8.601562 12.15625 "/>
<path style=" stroke:none;fill-rule:nonzero;fill:rgb(100%,100%,100%);fill-opacity:0.588235;" d="M 9.261719 2.894531 C 8.894531 2.894531 8.601562 3.191406 8.601562 3.558594 L 8.601562 3.886719 C 8.601562 3.523438 8.894531 3.226562 9.261719 3.226562 L 17.199219 3.226562 C 17.566406 3.226562 17.859375 3.523438 17.859375 3.886719 L 17.859375 3.558594 C 17.859375 3.191406 17.566406 2.894531 17.199219 2.894531 Z M 9.921875 9.511719 L 9.921875 9.84375 C 9.921875 10.207031 10.21875 10.503906 10.585938 10.503906 C 10.949219 10.503906 11.246094 10.207031 11.246094 9.84375 L 11.246094 9.511719 C 11.246094 9.878906 10.949219 10.171875 10.585938 10.171875 C 10.21875 10.171875 9.921875 9.878906 9.921875 9.511719 Z M 12.570312 9.511719 L 12.570312 9.84375 C 12.570312 10.207031 12.863281 10.503906 13.230469 10.503906 C 13.597656 10.503906 13.890625 10.207031 13.890625 9.84375 L 13.890625 9.511719 C 13.890625 9.878906 13.597656 10.171875 13.230469 10.171875 C 12.863281 10.171875 12.570312 9.878906 12.570312 9.511719 Z M 15.214844 9.511719 L 15.214844 9.84375 C 15.214844 10.207031 15.511719 10.503906 15.875 10.503906 C 16.242188 10.503906 16.539062 10.207031 16.539062 9.84375 L 16.539062 9.511719 C 16.539062 9.878906 16.242188 10.171875 15.875 10.171875 C 15.511719 10.171875 15.214844 9.878906 15.214844 9.511719 Z M 15.214844 9.511719 "/>
<path style="fill:none;stroke-width:3;stroke-linecap:square;stroke-linejoin:round;stroke:rgb(12.941176%,12.941176%,12.941176%);stroke-opacity:1;stroke-miterlimit:4;" d="M 148.17335 -168.691922 C 142.298911 -168.691922 137.611859 -163.942376 137.611859 -158.067937 L 137.611859 -20.518572 C 137.611859 -14.644133 142.298911 -9.894587 148.17335 -9.894587 L 275.161223 -9.894587 C 281.035662 -9.894587 285.722715 -14.644133 285.722715 -20.518572 L 285.722715 -158.067937 C 285.722715 -163.942376 281.035662 -168.691922 275.161223 -168.691922 Z M 169.358827 -115.759477 C 175.170772 -115.759477 179.920318 -111.009931 179.920318 -105.197986 L 179.920318 -62.827032 C 179.920318 -56.952593 175.170772 -52.26554 169.358827 -52.26554 C 163.484388 -52.26554 158.734842 -56.952593 158.734842 -62.827032 L 158.734842 -105.197986 C 158.734842 -111.009931 163.484388 -115.759477 169.358827 -115.759477 Z M 211.667287 -115.759477 C 217.541726 -115.759477 222.228778 -111.009931 222.228778 -105.197986 L 222.228778 -62.827032 C 222.228778 -56.952593 217.541726 -52.26554 211.667287 -52.26554 C 205.792848 -52.26554 201.105795 -56.952593 201.105795 -62.827032 L 201.105795 -105.197986 C 201.105795 -111.009931 205.792848 -115.759477 211.667287 -115.759477 Z M 253.975747 -115.759477 C 259.850186 -115.759477 264.599732 -111.009931 264.599732 -105.197986 L 264.599732 -62.827032 C 264.599732 -56.952593 259.850186 -52.26554 253.975747 -52.26554 C 248.163802 -52.26554 243.414255 -56.952593 243.414255 -62.827032 L 243.414255 -105.197986 C 243.414255 -111.009931 248.163802 -115.759477 253.975747 -115.759477 Z M 253.975747 -115.759477 " transform="matrix(0.062506,0,0,0.062506,0,13.438783)"/>
<path style=" stroke:none;fill-rule:nonzero;fill:url(#linear3);" d="M 7.9375 12.15625 C 7.207031 12.15625 6.613281 12.746094 6.613281 13.480469 L 6.613281 18.773438 C 6.980469 18.773438 7.277344 19.066406 7.277344 19.433594 L 7.277344 21.417969 C 7.277344 21.785156 6.980469 22.082031 6.613281 22.082031 L 6.613281 26.710938 C 6.613281 27.445312 7.207031 28.035156 7.9375 28.035156 L 18.523438 28.035156 C 19.253906 28.035156 19.84375 27.445312 19.84375 26.710938 L 19.84375 22.082031 C 19.480469 22.082031 19.183594 21.785156 19.183594 21.417969 L 19.183594 19.433594 C 19.183594 19.066406 19.480469 18.773438 19.84375 18.773438 L 19.84375 13.480469 C 19.84375 12.746094 19.253906 12.15625 18.523438 12.15625 Z M 7.9375 12.15625 "/>
<path style=" stroke:none;fill-rule:nonzero;fill:rgb(0%,0%,0%);fill-opacity:0.235294;" d="M 6.613281 18.441406 L 6.613281 18.773438 C 6.980469 18.773438 7.277344 19.066406 7.277344 19.433594 L 7.277344 19.101562 C 7.277344 18.738281 6.980469 18.441406 6.613281 18.441406 Z M 19.84375 18.441406 C 19.480469 18.441406 19.183594 18.738281 19.183594 19.101562 L 19.183594 19.433594 C 19.183594 19.066406 19.480469 18.773438 19.84375 18.773438 Z M 6.613281 26.378906 L 6.613281 26.710938 C 6.613281 27.445312 7.207031 28.035156 7.9375 28.035156 L 18.523438 28.035156 C 19.253906 28.035156 19.84375 27.445312 19.84375 26.710938 L 19.84375 26.378906 C 19.84375 27.113281 19.253906 27.703125 18.523438 27.703125 L 7.9375 27.703125 C 7.207031 27.703125 6.613281 27.113281 6.613281 26.378906 Z M 6.613281 26.378906 "/>
<path style=" stroke:none;fill-rule:nonzero;fill:rgb(100%,100%,100%);fill-opacity:0.392157;" d="M 7.9375 12.15625 C 7.207031 12.15625 6.613281 12.746094 6.613281 13.480469 L 6.613281 13.8125 C 6.613281 13.078125 7.207031 12.488281 7.9375 12.488281 L 18.523438 12.488281 C 19.253906 12.488281 19.84375 13.078125 19.84375 13.8125 L 19.84375 13.480469 C 19.84375 12.746094 19.253906 12.15625 18.523438 12.15625 Z M 7.277344 21.417969 C 7.277344 21.785156 6.980469 22.082031 6.613281 22.082031 L 6.613281 22.410156 C 6.980469 22.410156 7.277344 22.117188 7.277344 21.75 Z M 19.183594 21.417969 L 19.183594 21.75 C 19.183594 22.117188 19.480469 22.410156 19.84375 22.410156 L 19.84375 22.082031 C 19.480469 22.082031 19.183594 21.785156 19.183594 21.417969 Z M 19.183594 21.417969 "/>
<path style="fill:none;stroke-width:3;stroke-linecap:square;stroke-linejoin:round;stroke:rgb(12.941176%,12.941176%,12.941176%);stroke-opacity:1;stroke-miterlimit:4;" d="M 126.987873 -20.518572 C 115.301489 -20.518572 105.802396 -11.081973 105.802396 0.666905 L 105.802396 85.346318 C 111.676835 85.346318 116.426382 90.033371 116.426382 95.90781 L 116.426382 127.654778 C 116.426382 133.529217 111.676835 138.278764 105.802396 138.278764 L 105.802396 212.334192 C 105.802396 224.08307 115.301489 233.519669 126.987873 233.519669 L 296.3467 233.519669 C 308.033084 233.519669 317.469683 224.08307 317.469683 212.334192 L 317.469683 138.278764 C 311.657738 138.278764 306.908192 133.529217 306.908192 127.654778 L 306.908192 95.90781 C 306.908192 90.033371 311.657738 85.346318 317.469683 85.346318 L 317.469683 0.666905 C 317.469683 -11.081973 308.033084 -20.518572 296.3467 -20.518572 Z M 126.987873 -20.518572 " transform="matrix(0.062506,0,0,0.062506,0,13.438783)"/>
<path style=" stroke:none;fill-rule:nonzero;fill:url(#linear4);" d="M 9.261719 18.773438 L 17.199219 18.773438 C 17.566406 18.773438 17.859375 19.070312 17.859375 19.433594 L 17.859375 21.417969 C 17.859375 21.785156 17.566406 22.082031 17.199219 22.082031 L 9.261719 22.082031 C 8.894531 22.082031 8.601562 21.785156 8.601562 21.417969 L 8.601562 19.433594 C 8.601562 19.070312 8.894531 18.773438 9.261719 18.773438 Z M 9.261719 18.773438 "/>
<path style=" stroke:none;fill-rule:nonzero;fill:rgb(0%,0%,0%);fill-opacity:0.235294;" d="M 9.261719 18.773438 C 8.894531 18.773438 8.601562 19.066406 8.601562 19.433594 L 8.601562 19.765625 C 8.601562 19.398438 8.894531 19.101562 9.261719 19.101562 L 17.199219 19.101562 C 17.566406 19.101562 17.859375 19.398438 17.859375 19.765625 L 17.859375 19.433594 C 17.859375 19.066406 17.566406 18.773438 17.199219 18.773438 Z M 9.261719 18.773438 "/>
<path style=" stroke:none;fill-rule:nonzero;fill:rgb(100%,100%,100%);fill-opacity:0.392157;" d="M 9.261719 22.410156 C 8.894531 22.410156 8.601562 22.117188 8.601562 21.75 L 8.601562 21.417969 C 8.601562 21.785156 8.894531 22.082031 9.261719 22.082031 L 17.199219 22.082031 C 17.566406 22.082031 17.859375 21.785156 17.859375 21.417969 L 17.859375 21.75 C 17.859375 22.117188 17.566406 22.410156 17.199219 22.410156 Z M 9.261719 22.410156 "/>
<path style="fill:none;stroke-width:3;stroke-linecap:square;stroke-linejoin:round;stroke:rgb(12.941176%,12.941176%,12.941176%);stroke-opacity:1;stroke-miterlimit:4;" d="M 148.17335 85.346318 L 275.161223 85.346318 C 281.035662 85.346318 285.722715 90.095865 285.722715 95.90781 L 285.722715 127.654778 C 285.722715 133.529217 281.035662 138.278764 275.161223 138.278764 L 148.17335 138.278764 C 142.298911 138.278764 137.611859 133.529217 137.611859 127.654778 L 137.611859 95.90781 C 137.611859 90.095865 142.298911 85.346318 148.17335 85.346318 Z M 148.17335 85.346318 " transform="matrix(0.062506,0,0,0.062506,0,13.438783)"/>
<path style=" stroke:none;fill-rule:nonzero;fill:url(#linear5);" d="M 20.175781 15.597656 C 16.730469 15.597656 13.953125 18.371094 13.953125 21.820312 C 13.953125 25.265625 16.730469 28.042969 20.175781 28.042969 C 23.625 28.042969 26.398438 25.265625 26.398438 21.820312 C 26.398438 18.371094 23.625 15.597656 20.175781 15.597656 Z M 20.175781 20.507812 C 20.902344 20.507812 21.488281 21.09375 21.488281 21.820312 C 21.488281 22.542969 20.902344 23.128906 20.175781 23.128906 C 19.449219 23.128906 18.867188 22.542969 18.867188 21.820312 C 18.867188 21.09375 19.449219 20.507812 20.175781 20.507812 Z M 20.175781 20.507812 "/>
<path style="fill-rule:nonzero;fill:url(#linear6);stroke-width:3;stroke-linecap:round;stroke-linejoin:miter;stroke:rgb(12.941176%,12.941176%,12.941176%);stroke-opacity:1;stroke-miterlimit:4;" d="M 322.781676 92.158168 C 299.59639 92.158168 280.84818 110.843883 280.84818 134.091663 C 280.84818 157.276949 299.59639 175.962665 322.781676 175.962665 C 346.029456 175.962665 364.715171 157.276949 364.715171 134.091663 C 364.715171 110.843883 346.029456 92.158168 322.781676 92.158168 Z M 322.781676 113.093669 C 334.405566 113.093669 343.779671 122.467773 343.779671 134.091663 C 343.779671 145.653059 334.405566 155.027164 322.781676 155.027164 C 311.157786 155.027164 301.846175 145.653059 301.846175 134.091663 C 301.846175 122.467773 311.157786 113.093669 322.781676 113.093669 Z M 322.781676 113.093669 " transform="matrix(0.062506,0,0,0.062506,0,13.438783)"/>
<path style=" stroke:none;fill-rule:nonzero;fill:rgb(0%,0%,0%);fill-opacity:0.235294;" d="M 19.183594 20.878906 C 18.984375 21.109375 18.867188 21.410156 18.867188 21.738281 C 18.867188 21.792969 18.871094 21.847656 18.875 21.902344 C 18.910156 21.640625 19.019531 21.398438 19.183594 21.210938 Z M 13.957031 21.902344 C 13.953125 21.957031 13.953125 22.011719 13.953125 22.066406 C 13.953125 24.894531 15.820312 27.273438 18.398438 28.035156 L 18.523438 28.035156 C 18.75 28.035156 18.964844 27.976562 19.152344 27.875 C 16.246094 27.398438 14.035156 24.925781 13.957031 21.902344 Z M 13.957031 21.902344 "/>
<path style="fill:none;stroke-width:3;stroke-linecap:round;stroke-linejoin:miter;stroke:rgb(12.941176%,12.941176%,12.941176%);stroke-opacity:1;stroke-miterlimit:4;" d="M 322.781676 34.53867 C 267.66194 34.53867 223.228683 78.909433 223.228683 134.091663 C 223.228683 189.2114 267.66194 233.644657 322.781676 233.644657 C 377.963906 233.644657 422.334669 189.2114 422.334669 134.091663 C 422.334669 78.909433 377.963906 34.53867 322.781676 34.53867 Z M 322.781676 113.093669 C 334.405566 113.093669 343.779671 122.467773 343.779671 134.091663 C 343.779671 145.653059 334.405566 155.027164 322.781676 155.027164 C 311.157786 155.027164 301.846175 145.653059 301.846175 134.091663 C 301.846175 122.467773 311.157786 113.093669 322.781676 113.093669 Z M 322.781676 113.093669 " transform="matrix(0.062506,0,0,0.062506,0,13.438783)"/>
</g>
</svg>
