<svg height="32pt" viewBox="0 0 32 32" width="32pt" xmlns="http://www.w3.org/2000/svg" xmlns:xlink="http://www.w3.org/1999/xlink"><linearGradient id="a" gradientUnits="userSpaceOnUse" x1="15.215" x2="15.215" y1="28.033936" y2="29.35698000003"><stop offset="0" stop-opacity=".27451"/><stop offset="1" stop-opacity="0"/></linearGradient><linearGradient id="b"><stop offset="0" stop-opacity=".313726"/><stop offset=".222222" stop-opacity=".27451"/><stop offset="1" stop-opacity="0"/></linearGradient><radialGradient id="c" cx="450.908936" cy="189.579361" gradientTransform="matrix(.00000017 -.0781325 -.140638 -.0000001 52.130653 63.595333)" gradientUnits="userSpaceOnUse" r="21.166656" xlink:href="#b"/><radialGradient id="d" cx="450.908936" cy="189.579361" gradientTransform="matrix(-.00000017 .0781325 .140638 .0000001 -18.393053 -7.527479)" gradientUnits="userSpaceOnUse" r="21.166656" xlink:href="#b"/><radialGradient id="e" cx="450.908936" cy="189.579361" gradientTransform="matrix(-.00000017 -.0781325 .140638 -.0000001 -18.393053 63.595333)" gradientUnits="userSpaceOnUse" r="21.166656" xlink:href="#b"/><radialGradient id="f" cx="450.908936" cy="189.579361" gradientTransform="matrix(.00000017 .0781325 -.140638 .0000001 52.130652 -7.527479)" gradientUnits="userSpaceOnUse" r="21.166656" xlink:href="#b"/><linearGradient id="g" gradientUnits="userSpaceOnUse" x1="15.54572" x2="15.54572" y1="28.03386419623" y2="2.89610343548"><stop offset="0" stop-color="#26c6da"/><stop offset="1" stop-color="#4dd0e1"/></linearGradient><linearGradient id="h"><stop offset="0" stop-color="#424242"/><stop offset="1" stop-color="#616161"/></linearGradient><linearGradient id="i" gradientUnits="userSpaceOnUse" x1="15.54572" x2="15.54572" xlink:href="#h" y1="28.03386419623" y2="2.89610343548"/><linearGradient id="j"><stop offset="0" stop-color="#81d4fa" stop-opacity=".392157"/><stop offset="1" stop-color="#b3e5fc" stop-opacity=".392157"/></linearGradient><linearGradient id="k" gradientUnits="userSpaceOnUse" x1="-814.916641" x2="-814.916641" xlink:href="#j" y1="74.75" y2="222.916672"/><linearGradient id="l" gradientTransform="matrix(-.016538 0 0 .016538 35.392079 0)" gradientUnits="userSpaceOnUse" x1="680" x2="680" xlink:href="#h" y1="1695.118164" y2="1055.118164"/><linearGradient id="m" gradientUnits="userSpaceOnUse" x1="613.833359" x2="613.833359" xlink:href="#j" y1="74.75" y2="222.916672"/><linearGradient id="n" gradientUnits="userSpaceOnUse" x1="11.577281" x2="11.577281" xlink:href="#h" y1="28.03386419623" y2="17.44954419623"/><linearGradient id="o" gradientUnits="userSpaceOnUse" x1="11.577324" x2="11.577324" xlink:href="#h" y1="28.033934" y2="21.41871499994"/><linearGradient id="p" gradientTransform="matrix(-.062506 0 0 .062506 59.86838 13.438783)" gradientUnits="userSpaceOnUse" x1="571.5" x2="571.5" xlink:href="#h" y1="233.5" y2="127.666656"/><path d="m7.9375 28.035156h17.863281v1.320313h-17.863281zm0 0" fill="url(#a)"/><path d="m25.800781 28.035156h2.644531v-1.324218h-2.644531zm0 0" fill="url(#c)"/><path d="m7.9375 28.035156h-2.644531v1.320313h2.644531zm0 0" fill="url(#d)"/><path d="m7.9375 28.035156h-2.644531v-1.324218h2.644531zm0 0" fill="url(#e)"/><path d="m25.800781 28.035156h2.644531v1.320313h-2.644531zm0 0" fill="url(#f)"/><path d="m7.277344 2.894531c-.734375 0-1.324219.589844-1.324219 1.324219v22.492188c0 .734374.589844 1.324218 1.324219 1.324218h16.539062c.730469 0 1.320313-.589844 1.320313-1.324218v-17.859376l-5.953125-5.957031zm13.230468 0 4.628907 4.632813v-3.308594c0-.734375-.589844-1.324219-1.320313-1.324219zm0 0" fill="url(#g)"/><path d="m20.507812 2.894531 4.628907 4.632813v-3.308594c0-.734375-.589844-1.324219-1.320313-1.324219zm0 0" fill="url(#i)"/><path d="m7.277344 2.894531c-.734375 0-1.324219.589844-1.324219 1.324219v.332031c0-.734375.589844-1.324219 1.324219-1.324219h11.90625l5.953125 5.953126v-.328126l-5.953125-5.957031zm13.230468 0 .332032.332031h2.976562c.730469 0 1.320313.589844 1.320313 1.324219v-.332031c0-.734375-.589844-1.324219-1.320313-1.324219zm0 0" fill="#fff" fill-opacity=".392157"/><path d="m20.507812 2.894531 4.628907 4.632813v-.492188l-4.140625-4.140625zm-14.554687 23.324219v.492188c0 .734374.589844 1.324218 1.324219 1.324218h16.539062c.730469 0 1.320313-.589844 1.320313-1.324218v-.492188c0 .734375-.589844 1.324219-1.320313 1.324219h-16.539062c-.734375 0-1.324219-.589844-1.324219-1.324219zm0 0" fill-opacity=".235294"/><path d="m7.277344 2.800781c-.785156 0-1.417969.636719-1.417969 1.417969v22.492188c0 .785156.632813 1.417968 1.417969 1.417968h16.539062c.78125 0 1.414063-.632812 1.414063-1.417968v-17.859376c0-.027343-.007813-.050781-.027344-.066406l-5.953125-5.957031c-.015625-.015625-.039062-.027344-.066406-.027344zm13.230468 0c-.039062 0-.074218.023438-.085937.058594-.015625.035156-.007813.078125.019531.101563l4.628906 4.632812c.027344.027344.066407.035156.101563.019531s.058594-.046875.058594-.085937v-3.308594c0-.78125-.632813-1.417969-1.414063-1.417969zm-13.230468.1875h11.867187l5.898438 5.898438v17.824219c0 .683593-.546875 1.230468-1.226563 1.230468h-16.539062c-.683594 0-1.230469-.546875-1.230469-1.230468v-22.492188c0-.683594.546875-1.230469 1.230469-1.230469zm13.457031 0h3.082031c.679688 0 1.226563.546875 1.226563 1.230469v3.082031zm0 0" fill="#212121"/><path d="m-814.889748 69.472833c43.808316 0 79.367421 35.49661 79.367421 79.367421 0 43.808316-35.559105 79.36742-79.367421 79.36742-43.870811 0-79.429915-35.559104-79.429915-79.36742 0-43.870811 35.559104-79.367421 79.429915-79.367421zm0 0" fill="url(#k)" stroke="#212121" stroke-linecap="round" stroke-linejoin="round" stroke-width="3" transform="matrix(-.062506 0 0 .062506 -26.790942 13.438783)"/><path d="m24.144531 17.449219c2.933594 0 5.292969 2.359375 5.292969 5.292969 0 2.929687-2.359375 5.292968-5.292969 5.292968-2.929687 0-5.289062-2.363281-5.289062-5.292968 0-2.933594 2.359375-5.292969 5.289062-5.292969zm0 .660156c-2.5625 0-4.628906 2.066406-4.628906 4.632813 0 2.566406 2.066406 4.628906 4.628906 4.628906 2.566407 0 4.632813-2.0625 4.632813-4.628906 0-2.566407-2.066406-4.632813-4.632813-4.632813zm0 0" fill="url(#l)"/><path d="m24.144531 17.449219c2.933594 0 5.292969 2.359375 5.292969 5.292969v.082031c-.042969-2.894531-2.386719-5.210938-5.292969-5.210938-2.902343 0-5.246093 2.316407-5.289062 5.210938 0-.027344 0-.054688 0-.082031 0-2.933594 2.359375-5.292969 5.289062-5.292969zm4.632813 5.375v.082031c0 2.566406-2.066406 4.632812-4.632813 4.632812-2.5625 0-4.628906-2.066406-4.628906-4.632812 0-.027344 0-.054688 0-.082031.042969 2.527343 2.09375 4.546875 4.628906 4.546875 2.539063 0 4.585938-2.019532 4.632813-4.546875zm0 0" fill="#fff" fill-opacity=".313726"/><path d="m24.144531 28.035156c2.933594 0 5.292969-2.363281 5.292969-5.292968 0-.027344 0-.054688 0-.082032-.042969 2.890625-2.386719 5.207032-5.292969 5.207032-2.902343 0-5.246093-2.316407-5.289062-5.207032v.082032c0 2.929687 2.359375 5.292968 5.289062 5.292968zm4.632813-5.375c0-.027344 0-.054687 0-.082031 0-2.566406-2.066406-4.632813-4.632813-4.632813-2.5625 0-4.628906 2.066407-4.628906 4.632813v.082031c.042969-2.527344 2.09375-4.550781 4.628906-4.550781 2.539063 0 4.585938 2.023437 4.632813 4.550781zm0 0" fill-opacity=".235294"/><path d="m680.101734 1055.096144c-177.384645 0-320.048194 142.663549-320.048194 320.048194 0 177.148447 142.663549 320.048194 320.048194 320.048194 177.148447 0 319.811996-142.899747 319.811996-320.048194 0-177.384645-142.663549-320.048194-319.811996-320.048194zm0 39.91745c154.945841 0 279.894546 124.948705 279.894546 280.130744 0 155.18204-124.948705 279.894546-279.894546 279.894546-155.18204 0-280.130744-124.712506-280.130744-279.894546 0-155.182039 124.948704-280.130744 280.130744-280.130744zm0 0" fill="none" stroke="#212121" stroke-linecap="round" stroke-linejoin="round" stroke-width="11.338583" transform="matrix(-.016538 0 0 .016538 35.392079 0)"/><path d="m613.846447 69.472833c43.808316 0 79.367421 35.49661 79.367421 79.367421 0 43.808316-35.559105 79.36742-79.367421 79.36742-43.870811 0-79.367421-35.559104-79.367421-79.36742 0-43.870811 35.49661-79.367421 79.367421-79.367421zm0 0" fill="url(#m)" stroke="#212121" stroke-linecap="round" stroke-linejoin="round" stroke-width="3" transform="matrix(.062506 0 0 .062506 -26.790942 13.438783)"/><path d="m11.578125 17.449219c-2.933594 0-5.292969 2.359375-5.292969 5.292969 0 2.929687 2.359375 5.292968 5.292969 5.292968 2.929687 0 5.292969-2.363281 5.292969-5.292968 0-2.933594-2.363282-5.292969-5.292969-5.292969zm0 .660156c2.566406 0 4.628906 2.066406 4.628906 4.632813 0 2.566406-2.0625 4.628906-4.628906 4.628906s-4.632813-2.0625-4.632813-4.628906c0-2.566407 2.066407-4.632813 4.632813-4.632813zm0 0" fill="url(#n)"/><path d="m11.578125 17.449219c-2.933594 0-5.292969 2.359375-5.292969 5.292969v.082031c.042969-2.894531 2.386719-5.210938 5.292969-5.210938 2.902344 0 5.246094 2.316407 5.289063 5.210938.003906-.027344.003906-.054688.003906-.082031 0-2.933594-2.363282-5.292969-5.292969-5.292969zm-4.628906 5.375c-.003907.027343-.003907.054687-.003907.082031 0 2.566406 2.066407 4.632812 4.632813 4.632812s4.628906-2.066406 4.628906-4.632812c0-.027344 0-.054688 0-.082031-.042969 2.527343-2.09375 4.546875-4.628906 4.546875-2.539063 0-4.585937-2.019532-4.628906-4.546875zm0 0" fill="#fff" fill-opacity=".313726"/><path d="m11.578125 28.035156c-2.933594 0-5.292969-2.363281-5.292969-5.292968 0-.027344 0-.054688 0-.082032.042969 2.890625 2.386719 5.207032 5.292969 5.207032 2.902344 0 5.246094-2.316407 5.289063-5.207032.003906.027344.003906.054688.003906.082032 0 2.929687-2.363282 5.292968-5.292969 5.292968zm-4.628906-5.375c-.003907-.027344-.003907-.054687-.003907-.082031 0-2.566406 2.066407-4.632813 4.632813-4.632813s4.628906 2.066407 4.628906 4.632813v.082031c-.042969-2.527344-2.09375-4.550781-4.628906-4.550781-2.539063 0-4.585937 2.023437-4.628906 4.550781zm0 0" fill-opacity=".235294"/><path d="m680.049558 1055.096144c-177.384645 0-320.048194 142.663549-320.048194 320.048194 0 177.148447 142.663549 320.048194 320.048194 320.048194 177.148447 0 320.048194-142.899747 320.048194-320.048194 0-177.384645-142.899747-320.048194-320.048194-320.048194zm0 39.91745c155.18204 0 279.894546 124.948705 279.894546 280.130744 0 155.18204-124.712506 279.894546-279.894546 279.894546-155.182039 0-280.130744-124.712506-280.130744-279.894546 0-155.182039 124.948705-280.130744 280.130744-280.130744zm0 0" fill="none" stroke="#212121" stroke-linecap="round" stroke-linejoin="round" stroke-width="11.338583" transform="matrix(.016538 0 0 .016538 .331441 0)"/><path d="m6.285156 21.417969h3.308594c5.96875-.027344 16.535156 0 17.859375 4.632812.332031.660157.332031 1.984375-.992187 1.984375-1.652344 0-.332032-3.308594-3.636719-3.96875-5.703125-1.539062-10.816407-.210937-16.539063 0-1.324218 0-1.324218-2.648437 0-2.648437zm0 0" fill="url(#o)"/><path d="m10.761719 21.414062c-.40625 0-.796875.003907-1.167969.003907h-3.308594c-.6875 0-1.019531.71875-.992187 1.40625.027343-.632813.359375-1.238281.992187-1.238281h3.308594c5.96875-.03125 16.535156 0 17.859375 4.628906.101563.199218.171875.460937.183594.726562.015625-.320312-.0625-.652344-.183594-.890625-1.238281-4.34375-10.605469-4.636719-16.691406-4.636719zm0 0" fill="#fff" fill-opacity=".313726"/><path d="m5.292969 22.664062c-.027344.683594.304687 1.402344.992187 1.402344 5.722656-.210937 10.835938-1.539062 16.539063 0 3.304687.660156 1.984375 3.96875 3.636719 3.96875.921874 0 1.203124-.644531 1.175781-1.257812-.027344.5625-.332031 1.097656-1.175781 1.097656-1.652344 0-.332032-3.308594-3.636719-3.96875-5.703125-1.539062-10.816407-.210938-16.539063 0-.636718 0-.964844-.609375-.992187-1.242188zm0 0" fill-opacity=".235294"/><path d="m6.285156 21.324219c-1.449218 0-1.449218 2.835937 0 2.835937 5.738282-.214844 10.839844-1.535156 16.511719-.003906h.007813c.8125.164062 1.328124.484375 1.679687.871094.355469.386718.546875.847656.6875 1.296875.144531.449219.234375.886719.40625 1.222656.167969.339844.4375.582031.882813.582031.695312 0 1.074218-.367187 1.207031-.8125.132812-.4375.046875-.941406-.125-1.292968-.339844-1.191407-1.273438-2.078126-2.554688-2.738282-1.285156-.660156-2.925781-1.097656-4.707031-1.390625-3.5625-.585937-7.703125-.582031-10.6875-.570312zm0 .1875h3.308594c2.984375-.011719 7.117188-.011719 10.65625.566406 1.773438.292969 3.394531.726563 4.652344 1.375 1.253906.644531 2.140625 1.496094 2.460937 2.621094.003907.007812.003907.011719.007813.015625.152344.308594.230468.789062.117187 1.171875-.113281.382812-.394531.679687-1.027343.679687-.382813 0-.566407-.171875-.714844-.476562-.152344-.304688-.246094-.734375-.394532-1.195313-.144531-.460937-.347656-.949219-.726562-1.367187-.382812-.417969-.941406-.761719-1.78125-.929688-5.726562-1.542968-10.851562-.210937-16.558594 0-1.199218-.003906-1.199218-2.460937 0-2.460937zm0 0" fill="#212121"/><path d="m29.4375 21.417969h-3.308594c-5.96875-.027344-16.535156 0-17.859375 4.632812-.332031.660157-.332031 1.984375.992188 1.984375 1.652343 0 .332031-3.308594 3.636719-3.96875 5.703124-1.539062 10.816406-.210937 16.539062 0 1.324219 0 1.324219-2.648437 0-2.648437zm0 0" fill="url(#p)"/><path d="m24.960938 21.414062c.40625 0 .796874.003907 1.167968.003907h3.308594c.691406 0 1.019531.71875.992188 1.40625-.027344-.632813-.355469-1.238281-.992188-1.238281h-3.308594c-5.96875-.03125-16.535156 0-17.859375 4.628906-.101562.199218-.167969.460937-.179687.726562-.015625-.320312.058594-.652344.179687-.890625 1.242188-4.34375 10.605469-4.636719 16.691407-4.636719zm0 0" fill="#fff" fill-opacity=".313726"/><path d="m30.429688 22.664062c.027343.683594-.304688 1.402344-.992188 1.402344-5.722656-.210937-10.835938-1.539062-16.539062 0-3.304688.660156-1.984376 3.96875-3.636719 3.96875-.921875 0-1.199219-.644531-1.175781-1.257812.027343.5625.332031 1.097656 1.175781 1.097656 1.652343 0 .332031-3.308594 3.636719-3.96875 5.703124-1.539062 10.816406-.210938 16.539062 0 .636719 0 .964844-.609375.992188-1.242188zm0 0" fill-opacity=".235294"/><path d="m29.4375 21.324219c1.449219 0 1.449219 2.835937 0 2.835937-5.738281-.214844-10.839844-1.535156-16.511719-.003906-.003906 0-.003906 0-.007812 0-.808594.164062-1.328125.484375-1.679688.871094-.351562.386718-.542969.847656-.6875 1.296875s-.234375.886719-.402343 1.222656c-.171876.339844-.441407.582031-.886719.582031-.691407 0-1.074219-.367187-1.207031-.8125-.128907-.4375-.046876-.941406.125-1.292968.339843-1.191407 1.273437-2.078126 2.554687-2.738282 1.285156-.660156 2.925781-1.097656 4.707031-1.390625 3.566406-.585937 7.703125-.582031 10.6875-.570312zm0 .1875h-3.308594c-2.984375-.011719-7.113281-.011719-10.65625.566406-1.769531.292969-3.394531.726563-4.652344 1.375-1.253906.644531-2.140624 1.496094-2.460937 2.621094 0 .007812-.003906.011719-.003906.015625-.15625.308594-.234375.789062-.121094 1.171875.117187.382812.398437.679687 1.027344.679687.382812 0 .566406-.171875.71875-.476562.148437-.304688.246093-.734375.390625-1.195313.148437-.460937.347656-.949219.730468-1.367187.378907-.417969.9375-.761719 1.78125-.929688 5.722657-1.542968 10.847657-.210937 16.554688 0 1.199219-.003906 1.199219-2.460937 0-2.460937zm0 0" fill="#212121"/></svg>