<svg height="32" viewBox="0 0 32 32" width="32" xmlns="http://www.w3.org/2000/svg" xmlns:xlink="http://www.w3.org/1999/xlink"><linearGradient id="a" gradientUnits="userSpaceOnUse" x1="15.87652" x2="15.87652" y1="28.033936" y2="29.35698000003"><stop offset="0" stop-opacity=".27451"/><stop offset="1" stop-opacity="0"/></linearGradient><linearGradient id="b"><stop offset="0" stop-opacity=".313726"/><stop offset=".222222" stop-opacity=".27451"/><stop offset="1" stop-opacity="0"/></linearGradient><radialGradient id="c" cx="450.908936" cy="189.579361" gradientTransform="matrix(.00000017 -.0781325 -.140638 -.0000001 48.823045 63.595333)" gradientUnits="userSpaceOnUse" r="21.166656" xlink:href="#b"/><radialGradient id="d" cx="450.908936" cy="189.579361" gradientTransform="matrix(-.00000017 .0781325 .140638 .0000001 -17.731532 -7.527479)" gradientUnits="userSpaceOnUse" r="21.166656" xlink:href="#b"/><radialGradient id="e" cx="450.908936" cy="189.579361" gradientTransform="matrix(-.00000017 -.0781325 .140638 -.0000001 -17.731532 63.595333)" gradientUnits="userSpaceOnUse" r="21.166656" xlink:href="#b"/><radialGradient id="f" cx="450.908936" cy="189.579361" gradientTransform="matrix(.00000017 .0781325 -.140638 .0000001 48.823043 -7.527479)" gradientUnits="userSpaceOnUse" r="21.166656" xlink:href="#b"/><linearGradient id="g" gradientUnits="userSpaceOnUse" x1="15.54572" x2="15.54572" y1="28.03386419623" y2="2.89610343548"><stop offset="0" stop-color="#eee"/><stop offset="1" stop-color="#f5f5f5"/></linearGradient><linearGradient id="h"><stop offset="0" stop-color="#ff7043"/><stop offset="1" stop-color="#ff8a65"/></linearGradient><linearGradient id="i" gradientUnits="userSpaceOnUse" x1="15.54572" x2="15.54572" xlink:href="#h" y1="28.03386419623" y2="2.89610343548"/><linearGradient id="j" gradientTransform="matrix(.229136 -.132292 .132292 .229136 -19.209612 -92.343376)" gradientUnits="userSpaceOnUse" x1="786.339783" x2="1136.339722" y1="1183.226074" y2="577.008301"><stop offset="0" stop-color="#9e9e9e"/><stop offset="1" stop-color="#bdbdbd"/></linearGradient><linearGradient id="k" gradientTransform="matrix(.062506 0 0 .0789549 .000001 7.561165)" gradientUnits="userSpaceOnUse" x1="243.416656" x2="243.416656" xlink:href="#h" y1="259.296906" y2="-59.085064"/><path d="m8.601562 28.035156h13.890626v1.320313h-13.890626zm0 0" fill="url(#a)"/><path d="m22.492188 28.035156h2.644531v-1.324218h-2.644531zm0 0" fill="url(#c)"/><path d="m8.601562 28.035156h-2.648437v1.320313h2.648437zm0 0" fill="url(#d)"/><path d="m8.601562 28.035156h-2.648437v-1.324218h2.648437zm0 0" fill="url(#e)"/><path d="m22.492188 28.035156h2.644531v1.320313h-2.644531zm0 0" fill="url(#f)"/><path d="m7.277344 2.894531c-.734375 0-1.324219.589844-1.324219 1.324219v22.492188c0 .734374.589844 1.324218 1.324219 1.324218h16.539062c.730469 0 1.320313-.589844 1.320313-1.324218v-17.859376l-5.953125-5.957031zm13.230468 0 4.628907 4.632813v-3.308594c0-.734375-.589844-1.324219-1.320313-1.324219zm0 0" fill="url(#g)"/><path d="m20.507812 2.894531 4.628907 4.632813v-3.308594c0-.734375-.589844-1.324219-1.320313-1.324219zm0 0" fill="url(#i)"/><path d="m7.277344 2.894531c-.734375 0-1.324219.589844-1.324219 1.324219v.332031c0-.734375.589844-1.324219 1.324219-1.324219h11.90625l5.953125 5.953126v-.328126l-5.953125-5.957031zm13.230468 0 .332032.332031h2.976562c.730469 0 1.320313.589844 1.320313 1.324219v-.332031c0-.734375-.589844-1.324219-1.320313-1.324219zm0 0" fill="#fff" fill-opacity=".392157"/><path d="m283.333676-97.41262 39.746205 68.743436 32.059438-18.560728 22.93531-13.186241 13.686193-7.999236c-21.935405-38.058865-70.305786-50.99513-108.427146-28.997231zm-5.811945 21.685429c-38.058865 21.935406-50.99513 70.305787-28.997231 108.427146 21.935406 38.058866 70.305787 50.99513 108.427146 29.059725 38.058866-21.997899 50.99513-70.36828 29.059725-108.427146v-.062494l-13.748687 7.999236-22.93531 13.186241-32.059438 18.560728zm0 0" fill="url(#j)" stroke="#212121" stroke-linecap="round" stroke-linejoin="round" stroke-width="3" transform="matrix(.062506 0 0 .062506 -4.29989 17.077151)"/><path d="m5.953125 16.789062h19.183594v6.285157h-19.183594zm0 0" fill="url(#k)"/><path d="m5.953125 23.074219v.496093h19.183594v-.496093zm0 0" fill-opacity=".235294"/><path d="m5.953125 16.789062v.496094h19.183594v-.496094zm0 0" fill="#fff" fill-opacity=".392157"/><path d="m5.953125 16.695312c-.050781 0-.09375.039063-.09375.09375v6.285157c0 .050781.042969.09375.09375.09375h19.183594c.054687 0 .09375-.042969.09375-.09375v-6.285157c0-.054687-.039063-.09375-.09375-.09375zm.09375.1875h18.996094v6.097657h-18.996094zm0 0" fill="#212121"/><path d="m20.507812 2.894531 4.628907 4.632813v-.492188l-4.140625-4.140625zm-14.554687 23.324219v.492188c0 .734374.589844 1.324218 1.324219 1.324218h16.539062c.730469 0 1.320313-.589844 1.320313-1.324218v-.492188c0 .734375-.589844 1.324219-1.320313 1.324219h-16.539062c-.734375 0-1.324219-.589844-1.324219-1.324219zm0 0" fill-opacity=".235294"/><path d="m7.277344 2.800781c-.785156 0-1.417969.636719-1.417969 1.417969v22.492188c0 .785156.632813 1.417968 1.417969 1.417968h16.539062c.78125 0 1.414063-.632812 1.414063-1.417968v-17.859376c0-.027343-.007813-.050781-.027344-.066406l-5.953125-5.957031c-.015625-.015625-.039062-.027344-.066406-.027344zm13.230468 0c-.039062 0-.074218.023438-.085937.058594-.015625.035156-.007813.078125.019531.101563l4.628906 4.632812c.027344.027344.066407.035156.101563.019531s.058594-.046875.058594-.085937v-3.308594c0-.78125-.632813-1.417969-1.414063-1.417969zm-13.230468.1875h11.867187l5.898438 5.898438v17.824219c0 .683593-.546875 1.230468-1.226563 1.230468h-16.539062c-.683594 0-1.230469-.546875-1.230469-1.230468v-22.492188c0-.683594.546875-1.230469 1.230469-1.230469zm13.457031 0h3.082031c.679688 0 1.226563.546875 1.226563 1.230469v3.082031zm0 0" fill="#212121"/></svg>