<svg height="32" viewBox="0 0 32 32" width="32" xmlns="http://www.w3.org/2000/svg" xmlns:xlink="http://www.w3.org/1999/xlink"><linearGradient id="a"><stop offset="0" stop-opacity=".313726"/><stop offset=".222222" stop-opacity=".27451"/><stop offset="1" stop-opacity="0"/></linearGradient><radialGradient id="b" cx="450.908936" cy="189.579361" gradientTransform="matrix(.00000017 -.0781325 -.140638 -.0000001 44.523152 63.595329)" gradientUnits="userSpaceOnUse" r="21.166656" xlink:href="#a"/><radialGradient id="c" cx="450.908936" cy="189.579361" gradientTransform="matrix(-.00000017 .0781325 .140638 .0000001 -12.770119 -7.527482)" gradientUnits="userSpaceOnUse" r="21.166656" xlink:href="#a"/><radialGradient id="d" cx="450.908936" cy="189.579361" gradientTransform="matrix(-.00000017 -.0781325 .140638 -.0000001 -12.770119 63.595329)" gradientUnits="userSpaceOnUse" r="21.166656" xlink:href="#a"/><radialGradient id="e" cx="450.908936" cy="189.579361" gradientTransform="matrix(.00000017 .0781325 -.140638 .0000001 44.52315 -7.527483)" gradientUnits="userSpaceOnUse" r="21.166656" xlink:href="#a"/><linearGradient id="f" gradientTransform="matrix(.0133601 0 0 .062506 12.465386 13.438784)" gradientUnits="userSpaceOnUse" x1="255.323059" x2="255.323044" y1="233.5" y2="254.666656"><stop offset="0" stop-opacity=".27451"/><stop offset="1" stop-opacity="0"/></linearGradient><linearGradient id="g" gradientUnits="userSpaceOnUse" x1="15.876524" x2="15.876524" y1="28.033934" y2="2.89610399997"><stop offset="0" stop-color="#9e9e9e"/><stop offset="1" stop-color="#e0e0e0"/></linearGradient><linearGradient id="h" gradientUnits="userSpaceOnUse" x1="15.876524" x2="15.876524" y1="28.033934" y2="2.89610500006"><stop offset="0" stop-color="#f44336"/><stop offset="1" stop-color="#ef5350"/></linearGradient><path d="m18.191406 28.035156h2.648438v-1.324218h-2.648438zm0 0" fill="url(#b)"/><path d="m13.5625 28.035156h-2.648438v1.320313h2.648438zm0 0" fill="url(#c)"/><path d="m13.5625 28.035156h-2.648438v-1.324218h2.648438zm0 0" fill="url(#d)"/><path d="m18.191406 28.035156h2.648438v1.320313h-2.648438zm0 0" fill="url(#e)"/><path d="m13.5625 27.703125h4.628906v1.652344h-4.628906zm0 0" fill="url(#f)"/><path d="m15.875 2.894531c8.421875 0 6.675781-1.007812 10.886719 6.285157 4.210937 7.292968 4.210937 5.277343 0 12.570312-4.210938 7.292969-2.464844 6.285156-10.886719 6.285156-8.417969 0-6.671875 1.007813-10.882812-6.285156-4.210938-7.292969-4.210938-5.277344 0-12.570312 4.210937-7.292969 2.464843-6.285157 10.882812-6.285157zm0 0" fill="url(#g)"/><path d="m11.640625 2.847656c-3.707031.003906-3.359375.636719-6.648437 6.332032-2.195313 3.800781-3.246094 5.074218-3.152344 6.449218.082031-1.265625 1.132812-2.625 3.152344-6.117187 4.210937-7.292969 2.464843-6.285157 10.882812-6.285157 8.421875 0 6.675781-1.007812 10.886719 6.285157 2.015625 3.492187 3.066406 4.851562 3.152343 6.117187.089844-1.375-.960937-2.648437-3.152343-6.449218-4.210938-7.292969-2.464844-6.285157-10.886719-6.285157-1.839844 0-3.195312-.046875-4.234375-.046875zm0 0" fill="#fff" fill-opacity=".784314"/><path d="m1.84375 15.257812c-.117188 1.394532.933594 2.652344 3.148438 6.492188 4.210937 7.292969 2.464843 6.285156 10.882812 6.285156 8.421875 0 6.675781 1.007813 10.886719-6.285156 2.214843-3.839844 3.265625-5.097656 3.148437-6.492188-.105468 1.253907-1.152344 2.621094-3.148437 6.078126-4.210938 7.289062-2.464844 6.28125-10.886719 6.28125-8.417969 0-6.671875 1.011718-10.882812-6.28125-1.996094-3.457032-3.046876-4.824219-3.148438-6.078126zm0 0" fill-opacity=".235294"/><path d="m253.975747-168.691922c134.737133 0 106.8023-16.12346 174.170867 100.552897 67.368567 116.676358 67.368567 84.429438 0 201.105796s-39.433734 100.552898-174.170867 100.552898c-134.67464 0-106.739807 16.12346-174.108374-100.552898s-67.368567-84.429438 0-201.105796c67.368567-116.676357 39.433734-100.552897 174.108374-100.552897zm0 0" fill="none" stroke="#212121" stroke-linecap="round" stroke-linejoin="round" stroke-width="3" transform="matrix(.062506 0 0 .062506 0 13.438783)"/><path d="m11.246094 8.164062c-.378906 0-.6875.308594-.6875.6875v1.320313c0 .378906.308594.6875.6875.6875h6.496094l-7.691407 9.464844c-.097656.121093-.152343.277343-.152343.433593v1.324219c0 .375.308593.683594.6875.683594h10.582031c.378906 0 .6875-.308594.6875-.683594v-1.324219c0-.378906-.308594-.6875-.6875-.6875h-7.160157l7.691407-9.464843c.101562-.121094.15625-.273438.15625-.433594v-1.320313c0-.378906-.308594-.6875-.6875-.6875zm0 0" fill="url(#h)"/><path d="m11.246094 8.164062c-.378906 0-.6875.308594-.6875.6875v.304688c0-.378906.308594-.683594.6875-.683594h9.921875c.378906 0 .6875.304688.6875.683594v-.304688c0-.378906-.308594-.6875-.6875-.6875zm6.25 3-7.445313 9.160157c-.097656.121093-.152343.277343-.152343.433593v.304688c0-.15625.054687-.308594.152343-.429688l7.691407-9.46875zm-3.238282 8.90625-.25.308594h7.160157c.378906 0 .6875.304688.6875.683594v-.304688c0-.378906-.308594-.6875-.6875-.6875zm0 0" fill="#fff" fill-opacity=".392157"/><path d="m10.558594 10.195312v.664063c0 .378906.308594.683594.6875.683594h5.960937l.535157-.660157h-6.496094c-.378906 0-.6875-.308593-.6875-.6875zm11.296875 0c0 .160157-.054688.3125-.15625.433594l-7.691407 9.464844h.539063l7.152344-8.804688c.101562-.121093.15625-.273437.15625-.429687zm-11.957031 11.910157v.660156c0 .378906.308593.683594.6875.683594h10.582031c.378906 0 .6875-.304688.6875-.683594v-.660156c0 .378906-.308594.683593-.6875.683593h-10.582031c-.378907 0-.6875-.304687-.6875-.683593zm0 0" fill-opacity=".235294"/><path d="m179.920318-84.387473c-6.061921 0-10.998949 4.937029-10.998949 10.99895v21.122983c0 6.061921 4.937028 10.998949 10.998949 10.998949h103.927576l-123.050749 151.42304c-1.562351 1.937315-2.437268 4.437076-2.437268 6.936838v21.185477c0 5.999427 4.937029 10.936455 10.99895 10.936455h169.296333c6.061921 0 10.99895-4.937028 10.99895-10.936455v-21.185477c0-6.061921-4.937029-10.99895-10.99895-10.99895h-114.551561l123.050749-151.42304c1.624845-1.937315 2.499762-4.374582 2.499762-6.936837v-21.122983c0-6.061921-4.937029-10.99895-10.99895-10.99895zm0 0" fill="none" stroke="#212121" stroke-linecap="round" stroke-linejoin="round" stroke-width="3" transform="matrix(.062506 0 0 .062506 0 13.438783)"/></svg>