<?xml version="1.0" encoding="UTF-8"?>
<svg xmlns="http://www.w3.org/2000/svg" xmlns:xlink="http://www.w3.org/1999/xlink" width="24pt" height="24pt" viewBox="0 0 24 24" version="1.1">
<defs>
<linearGradient id="linear0" gradientUnits="userSpaceOnUse" x1="254" y1="233.5" x2="254" y2="254.666672" gradientTransform="matrix(0.0468795,0,0,0.0468795,-0.0000028613,10.079089)">
<stop offset="0" style="stop-color:rgb(0%,0%,0%);stop-opacity:0.27451;"/>
<stop offset="1" style="stop-color:rgb(0%,0%,0%);stop-opacity:0;"/>
</linearGradient>
<radialGradient id="radial0" gradientUnits="userSpaceOnUse" cx="450.908936" cy="189.579361" fx="450.908936" fy="189.579361" r="21.166656" gradientTransform="matrix(0.000000130628,-0.0585994,-0.105479,-0.0000000761539,36.617284,47.696499)">
<stop offset="0" style="stop-color:rgb(0%,0%,0%);stop-opacity:0.313725;"/>
<stop offset="0.222222" style="stop-color:rgb(0%,0%,0%);stop-opacity:0.27451;"/>
<stop offset="1" style="stop-color:rgb(0%,0%,0%);stop-opacity:0;"/>
</radialGradient>
<radialGradient id="radial1" gradientUnits="userSpaceOnUse" cx="450.908936" cy="189.579361" fx="450.908936" fy="189.579361" r="21.166656" gradientTransform="matrix(-0.000000130628,0.0585994,0.105479,0.0000000761539,-13.298649,-5.645609)">
<stop offset="0" style="stop-color:rgb(0%,0%,0%);stop-opacity:0.313725;"/>
<stop offset="0.222222" style="stop-color:rgb(0%,0%,0%);stop-opacity:0.27451;"/>
<stop offset="1" style="stop-color:rgb(0%,0%,0%);stop-opacity:0;"/>
</radialGradient>
<radialGradient id="radial2" gradientUnits="userSpaceOnUse" cx="450.908936" cy="189.579361" fx="450.908936" fy="189.579361" r="21.166656" gradientTransform="matrix(-0.000000130628,-0.0585994,0.105479,-0.0000000761539,-13.298649,47.696499)">
<stop offset="0" style="stop-color:rgb(0%,0%,0%);stop-opacity:0.313725;"/>
<stop offset="0.222222" style="stop-color:rgb(0%,0%,0%);stop-opacity:0.27451;"/>
<stop offset="1" style="stop-color:rgb(0%,0%,0%);stop-opacity:0;"/>
</radialGradient>
<radialGradient id="radial3" gradientUnits="userSpaceOnUse" cx="450.908936" cy="189.579361" fx="450.908936" fy="189.579361" r="21.166656" gradientTransform="matrix(0.000000130628,0.0585994,-0.105479,0.0000000761539,36.617282,-5.64561)">
<stop offset="0" style="stop-color:rgb(0%,0%,0%);stop-opacity:0.313725;"/>
<stop offset="0.222222" style="stop-color:rgb(0%,0%,0%);stop-opacity:0.27451;"/>
<stop offset="1" style="stop-color:rgb(0%,0%,0%);stop-opacity:0;"/>
</radialGradient>
<linearGradient id="linear1" gradientUnits="userSpaceOnUse" x1="232.833328" y1="233.5" x2="232.833328" y2="-168.666672" gradientTransform="matrix(0.0468795,0,0,0.0468795,0,10.079087)">
<stop offset="0" style="stop-color:rgb(69.019608%,74.509804%,77.254902%);stop-opacity:1;"/>
<stop offset="1" style="stop-color:rgb(56.470588%,64.313725%,68.235294%);stop-opacity:1;"/>
</linearGradient>
</defs>
<g id="surface1">
<path style=" stroke:none;fill-rule:nonzero;fill:url(#linear0);" d="M 6.449219 21.027344 L 16.867188 21.027344 L 16.867188 22.019531 L 6.449219 22.019531 Z M 6.449219 21.027344 "/>
<path style=" stroke:none;fill-rule:nonzero;fill:url(#radial0);" d="M 16.867188 21.027344 L 18.851562 21.027344 L 18.851562 20.03125 L 16.867188 20.03125 Z M 16.867188 21.027344 "/>
<path style=" stroke:none;fill-rule:nonzero;fill:url(#radial1);" d="M 6.449219 21.027344 L 4.464844 21.027344 L 4.464844 22.019531 L 6.449219 22.019531 Z M 6.449219 21.027344 "/>
<path style=" stroke:none;fill-rule:nonzero;fill:url(#radial2);" d="M 6.449219 21.027344 L 4.464844 21.027344 L 4.464844 20.03125 L 6.449219 20.03125 Z M 6.449219 21.027344 "/>
<path style=" stroke:none;fill-rule:nonzero;fill:url(#radial3);" d="M 16.867188 21.027344 L 18.851562 21.027344 L 18.851562 22.019531 L 16.867188 22.019531 Z M 16.867188 21.027344 "/>
<path style=" stroke:none;fill-rule:nonzero;fill:url(#linear1);" d="M 5.457031 2.171875 C 4.90625 2.171875 4.464844 2.613281 4.464844 3.164062 L 4.464844 20.03125 C 4.464844 20.582031 4.90625 21.027344 5.457031 21.027344 L 17.859375 21.027344 C 18.410156 21.027344 18.851562 20.582031 18.851562 20.03125 L 18.851562 5.148438 L 15.378906 2.171875 Z M 5.457031 2.171875 "/>
<path style=" stroke:none;fill-rule:nonzero;fill:rgb(0%,0%,0%);fill-opacity:0.196078;" d="M 5.519531 21.027344 C 4.96875 21.027344 4.527344 20.582031 4.527344 20.03125 L 4.527344 19.910156 C 4.527344 20.457031 4.96875 20.902344 5.519531 20.902344 L 17.859375 20.902344 C 18.410156 20.902344 18.851562 20.457031 18.851562 19.910156 L 18.851562 20.03125 C 18.851562 20.582031 18.410156 21.027344 17.859375 21.027344 Z M 5.519531 21.027344 "/>
<path style=" stroke:none;fill-rule:nonzero;fill:rgb(100%,100%,100%);fill-opacity:1;" d="M 5.457031 2.171875 C 4.90625 2.171875 4.464844 2.613281 4.464844 3.164062 L 4.464844 3.289062 C 4.464844 2.738281 4.90625 2.296875 5.457031 2.296875 L 15.441406 2.296875 L 15.441406 2.171875 Z M 5.457031 2.171875 "/>
<path style=" stroke:none;fill-rule:nonzero;fill:rgb(12.941177%,12.941177%,12.941177%);fill-opacity:1;" d="M 5.457031 2.101562 C 4.871094 2.101562 4.394531 2.578125 4.394531 3.164062 L 4.394531 20.03125 C 4.394531 20.621094 4.871094 21.097656 5.457031 21.097656 L 17.859375 21.097656 C 18.449219 21.097656 18.921875 20.621094 18.921875 20.03125 L 18.921875 5.117188 L 15.40625 2.101562 Z M 5.457031 2.242188 L 15.355469 2.242188 L 18.78125 5.179688 L 18.78125 20.03125 C 18.78125 20.546875 18.375 20.957031 17.859375 20.957031 L 5.457031 20.957031 C 4.945312 20.957031 4.535156 20.546875 4.535156 20.03125 L 4.535156 3.164062 C 4.535156 2.652344 4.945312 2.242188 5.457031 2.242188 Z M 5.457031 2.242188 "/>
<path style=" stroke:none;fill-rule:nonzero;fill:rgb(25.882354%,25.882354%,25.882354%);fill-opacity:1;" d="M 7.691406 6.140625 L 17.117188 6.140625 C 17.253906 6.140625 17.363281 6.242188 17.363281 6.367188 C 17.363281 6.492188 17.253906 6.59375 17.117188 6.59375 L 7.691406 6.59375 C 7.554688 6.59375 7.441406 6.492188 7.441406 6.367188 C 7.441406 6.242188 7.554688 6.140625 7.691406 6.140625 Z M 7.691406 6.140625 "/>
<path style=" stroke:none;fill-rule:nonzero;fill:rgb(25.882354%,25.882354%,25.882354%);fill-opacity:1;" d="M 6.699219 8.082031 L 17.117188 8.082031 C 17.253906 8.082031 17.363281 8.191406 17.363281 8.328125 C 17.363281 8.464844 17.253906 8.578125 17.117188 8.578125 L 6.699219 8.578125 C 6.5625 8.578125 6.449219 8.464844 6.449219 8.328125 C 6.449219 8.191406 6.5625 8.082031 6.699219 8.082031 Z M 6.699219 8.082031 "/>
<path style=" stroke:none;fill-rule:nonzero;fill:rgb(25.882354%,25.882354%,25.882354%);fill-opacity:1;" d="M 6.699219 10.066406 L 17.117188 10.066406 C 17.253906 10.066406 17.363281 10.175781 17.363281 10.3125 C 17.363281 10.449219 17.253906 10.5625 17.117188 10.5625 L 6.699219 10.5625 C 6.5625 10.5625 6.449219 10.449219 6.449219 10.3125 C 6.449219 10.175781 6.5625 10.066406 6.699219 10.066406 Z M 6.699219 10.066406 "/>
<path style=" stroke:none;fill-rule:nonzero;fill:rgb(25.882354%,25.882354%,25.882354%);fill-opacity:1;" d="M 6.699219 12.050781 L 11.164062 12.050781 C 11.300781 12.050781 11.410156 12.144531 11.410156 12.265625 L 11.410156 12.375 C 11.410156 12.496094 11.300781 12.589844 11.164062 12.589844 L 6.699219 12.589844 C 6.5625 12.589844 6.449219 12.496094 6.449219 12.375 L 6.449219 12.265625 C 6.449219 12.144531 6.5625 12.050781 6.699219 12.050781 Z M 6.699219 12.050781 "/>
<path style=" stroke:none;fill-rule:nonzero;fill:rgb(25.882354%,25.882354%,25.882354%);fill-opacity:1;" d="M 6.699219 14.035156 L 11.164062 14.035156 C 11.300781 14.035156 11.410156 14.09375 11.410156 14.171875 L 11.410156 14.441406 C 11.410156 14.515625 11.300781 14.574219 11.164062 14.574219 L 6.699219 14.574219 C 6.5625 14.574219 6.449219 14.515625 6.449219 14.441406 L 6.449219 14.171875 C 6.449219 14.09375 6.5625 14.035156 6.699219 14.035156 Z M 6.699219 14.035156 "/>
<path style=" stroke:none;fill-rule:nonzero;fill:rgb(25.882354%,25.882354%,25.882354%);fill-opacity:1;" d="M 6.699219 16.019531 L 11.164062 16.019531 C 11.300781 16.019531 11.410156 16.097656 11.410156 16.199219 L 11.410156 16.378906 C 11.410156 16.480469 11.300781 16.558594 11.164062 16.558594 L 6.699219 16.558594 C 6.5625 16.558594 6.449219 16.480469 6.449219 16.378906 L 6.449219 16.199219 C 6.449219 16.097656 6.5625 16.019531 6.699219 16.019531 Z M 6.699219 16.019531 "/>
<path style=" stroke:none;fill-rule:nonzero;fill:rgb(25.882354%,25.882354%,25.882354%);fill-opacity:1;" d="M 14.882812 12.09375 C 14.609375 12.09375 14.386719 12.316406 14.386719 12.589844 L 14.386719 12.664062 C 14.273438 12.695312 14.160156 12.742188 14.058594 12.800781 L 14.007812 12.75 C 13.8125 12.554688 13.5 12.554688 13.304688 12.75 C 13.109375 12.941406 13.109375 13.257812 13.304688 13.449219 L 13.355469 13.5 C 13.300781 13.605469 13.253906 13.714844 13.21875 13.832031 L 13.148438 13.832031 C 12.871094 13.832031 12.652344 14.050781 12.652344 14.328125 C 12.652344 14.601562 12.871094 14.824219 13.148438 14.824219 L 13.21875 14.824219 C 13.253906 14.941406 13.300781 15.050781 13.355469 15.15625 L 13.304688 15.203125 C 13.109375 15.398438 13.109375 15.710938 13.304688 15.90625 C 13.5 16.101562 13.8125 16.101562 14.007812 15.90625 L 14.058594 15.855469 C 14.160156 15.914062 14.273438 15.957031 14.386719 15.992188 L 14.386719 16.0625 C 14.386719 16.339844 14.609375 16.558594 14.882812 16.558594 C 15.160156 16.558594 15.378906 16.339844 15.378906 16.0625 L 15.378906 15.992188 C 15.496094 15.957031 15.605469 15.914062 15.710938 15.855469 L 15.761719 15.90625 C 15.957031 16.101562 16.269531 16.101562 16.464844 15.90625 C 16.65625 15.710938 16.65625 15.398438 16.464844 15.203125 L 16.414062 15.15625 C 16.46875 15.050781 16.515625 14.941406 16.550781 14.824219 L 16.621094 14.824219 C 16.894531 14.824219 17.117188 14.601562 17.117188 14.328125 C 17.117188 14.050781 16.894531 13.832031 16.621094 13.832031 L 16.550781 13.832031 C 16.515625 13.714844 16.46875 13.605469 16.414062 13.5 L 16.464844 13.449219 C 16.65625 13.257812 16.65625 12.941406 16.464844 12.75 C 16.269531 12.554688 15.957031 12.554688 15.761719 12.75 L 15.710938 12.800781 C 15.605469 12.742188 15.496094 12.695312 15.378906 12.664062 L 15.378906 12.589844 C 15.378906 12.316406 15.160156 12.09375 14.882812 12.09375 Z M 14.871094 13.582031 L 14.898438 13.582031 C 15.304688 13.582031 15.628906 13.914062 15.628906 14.328125 C 15.628906 14.738281 15.304688 15.070312 14.898438 15.070312 L 14.871094 15.070312 C 14.464844 15.070312 14.140625 14.738281 14.140625 14.328125 C 14.140625 13.914062 14.464844 13.582031 14.871094 13.582031 Z M 14.871094 13.582031 "/>
</g>
</svg>
