<?xml version="1.0" encoding="UTF-8"?>
<svg xmlns="http://www.w3.org/2000/svg" xmlns:xlink="http://www.w3.org/1999/xlink" width="48px" height="48px" viewBox="0 0 48 48" version="1.1">
<g id="surface1">
<path style=" stroke:none;fill-rule:nonzero;fill:rgb(93.333334%,93.333334%,93.333334%);fill-opacity:1;" d="M 39.691406 16.136719 L 8.574219 33.722656 C 10.640625 37.28125 12.8125 40.539062 13.710938 41.070312 C 15.648438 42.203125 31.433594 42.3125 33.382812 41.203125 C 35.332031 40.097656 43.316406 26.480469 43.332031 24.238281 C 43.339844 23.199219 41.675781 19.707031 39.691406 16.136719 Z M 39.691406 16.136719 "/>
<path style=" stroke:none;fill-rule:nonzero;fill:rgb(93.333334%,93.333334%,93.333334%);fill-opacity:0.392157;" d="M 22.957031 6.226562 C 18.8125 6.230469 14.859375 6.480469 13.945312 7 C 11.996094 8.109375 4.011719 21.726562 3.996094 23.96875 C 3.988281 25.164062 6.210938 29.640625 8.574219 33.722656 L 39.691406 16.136719 C 37.386719 11.992188 34.65625 7.746094 33.613281 7.136719 C 32.585938 6.53125 27.652344 6.21875 22.957031 6.226562 Z M 22.957031 6.226562 "/>
</g>
</svg>
