<?xml version="1.0" encoding="UTF-8"?>
<svg xmlns="http://www.w3.org/2000/svg" xmlns:xlink="http://www.w3.org/1999/xlink" width="48pt" height="48pt" viewBox="0 0 48 48" version="1.1">
<g id="surface1">
<path style=" stroke:none;fill-rule:nonzero;fill:rgb(74.117649%,74.117649%,74.117649%);fill-opacity:1;" d="M 9.921875 4.34375 C 8.824219 4.34375 7.9375 5.230469 7.9375 6.328125 L 7.9375 42.050781 C 7.9375 43.148438 8.824219 44.035156 9.921875 44.035156 L 37.707031 44.035156 C 38.804688 44.035156 39.691406 43.148438 39.691406 42.050781 L 39.691406 6.328125 C 39.691406 5.230469 38.804688 4.34375 37.707031 4.34375 Z M 11.90625 8.3125 L 35.722656 8.3125 C 36.273438 8.3125 36.714844 8.753906 36.714844 9.304688 L 36.714844 37.089844 C 36.714844 37.640625 36.273438 38.082031 35.722656 38.082031 L 11.90625 38.082031 C 11.359375 38.082031 10.914062 37.640625 10.914062 37.089844 L 10.914062 9.304688 C 10.914062 8.753906 11.359375 8.3125 11.90625 8.3125 Z M 20.839844 40.066406 L 27.785156 40.066406 C 28.332031 40.066406 28.777344 40.507812 28.777344 41.058594 C 28.777344 41.609375 28.332031 42.050781 27.785156 42.050781 L 20.839844 42.050781 C 20.289062 42.050781 19.84375 41.609375 19.84375 41.058594 C 19.84375 40.507812 20.289062 40.066406 20.839844 40.066406 Z M 20.839844 40.066406 "/>
</g>
</svg>
