<?xml version="1.0" encoding="UTF-8"?>
<svg xmlns="http://www.w3.org/2000/svg" xmlns:xlink="http://www.w3.org/1999/xlink" width="48pt" height="48pt" viewBox="0 0 48 48" version="1.1">
<g id="surface1">
<path style=" stroke:none;fill-rule:nonzero;fill:rgb(74.117649%,74.117649%,74.117649%);fill-opacity:1;" d="M 23.816406 46.019531 C 11.722656 46.019531 1.984375 36.285156 1.984375 24.191406 C 1.984375 12.097656 11.722656 2.359375 23.816406 2.359375 C 35.910156 2.359375 45.644531 12.097656 45.644531 24.191406 C 45.644531 36.285156 35.910156 46.019531 23.816406 46.019531 Z M 23.816406 42.050781 C 33.710938 42.050781 41.675781 34.085938 41.675781 24.191406 C 41.675781 14.292969 33.710938 6.328125 23.816406 6.328125 C 13.917969 6.328125 5.953125 14.292969 5.953125 24.191406 C 5.953125 34.085938 13.917969 42.050781 23.816406 42.050781 Z M 23.816406 42.050781 "/>
<path style=" stroke:none;fill-rule:evenodd;fill:rgb(25.882354%,64.705884%,96.078432%);fill-opacity:1;" d="M 15.875 14.269531 C 14.800781 14.296875 13.941406 15.175781 13.941406 16.25 L 13.941406 32.128906 C 13.941406 33.792969 15.867188 34.71875 17.167969 33.679688 L 27.089844 25.738281 C 28.082031 24.945312 28.082031 23.433594 27.089844 22.640625 L 17.167969 14.703125 C 16.800781 14.410156 16.34375 14.257812 15.875 14.269531 Z M 15.875 14.269531 "/>
<path style=" stroke:none;fill-rule:nonzero;fill:rgb(25.882354%,64.705884%,96.078432%);fill-opacity:1;" d="M 30.902344 14.265625 L 30.617188 14.265625 C 29.601562 14.265625 28.777344 15.15625 28.777344 16.25 L 28.777344 32.128906 C 28.777344 33.222656 29.601562 34.113281 30.617188 34.113281 L 30.902344 34.113281 C 31.921875 34.113281 32.746094 33.222656 32.746094 32.128906 L 32.746094 16.25 C 32.746094 15.15625 31.921875 14.265625 30.902344 14.265625 Z M 30.902344 14.265625 "/>
</g>
</svg>
