<?xml version="1.0" encoding="UTF-8"?>
<svg xmlns="http://www.w3.org/2000/svg" xmlns:xlink="http://www.w3.org/1999/xlink" width="48px" height="48px" viewBox="0 0 48 48" version="1.1">
<g id="surface1">
<path style=" stroke:none;fill-rule:nonzero;fill:rgb(93.333334%,93.333334%,93.333334%);fill-opacity:0.392157;" d="M 21.832031 6.328125 C 18.53125 6.328125 15.875 8.984375 15.875 12.28125 L 15.875 26.175781 C 15.875 29.472656 18.53125 32.128906 21.832031 32.128906 L 25.800781 32.128906 C 29.097656 32.128906 31.753906 29.472656 31.753906 26.175781 L 31.753906 12.28125 C 31.753906 8.984375 29.097656 6.328125 25.800781 6.328125 Z M 21.832031 6.328125 "/>
<path style=" stroke:none;fill-rule:nonzero;fill:rgb(93.333334%,93.333334%,93.333334%);fill-opacity:0.392157;" d="M 35.691406 18.21875 C 34.601562 18.234375 33.730469 19.128906 33.746094 20.21875 L 33.746094 21.214844 L 31.753906 21.214844 L 31.753906 23.199219 L 33.746094 23.199219 L 33.746094 26.175781 C 33.746094 30.613281 30.238281 34.121094 25.800781 34.121094 L 21.832031 34.121094 C 17.394531 34.121094 13.882812 30.613281 13.882812 26.175781 L 13.882812 23.199219 L 15.875 23.199219 L 15.875 21.214844 L 13.882812 21.214844 L 13.882812 20.21875 C 13.898438 19.105469 12.992188 18.199219 11.878906 18.21875 C 10.789062 18.234375 9.917969 19.128906 9.933594 20.21875 L 9.933594 26.175781 C 9.933594 32.398438 14.742188 37.523438 20.839844 38.03125 L 20.839844 40.066406 C 20.839844 41.164062 21.722656 42.050781 22.824219 42.050781 L 24.808594 42.050781 C 25.90625 42.050781 26.792969 41.164062 26.792969 40.066406 L 26.792969 38.03125 C 32.886719 37.523438 37.699219 32.398438 37.699219 26.175781 L 37.699219 20.21875 C 37.714844 19.105469 36.804688 18.199219 35.691406 18.21875 Z M 35.691406 18.21875 "/>
</g>
</svg>
