<?xml version="1.0" encoding="UTF-8"?>
<svg xmlns="http://www.w3.org/2000/svg" xmlns:xlink="http://www.w3.org/1999/xlink" width="48pt" height="48pt" viewBox="0 0 48 48" version="1.1">
<g id="surface1">
<path style=" stroke:none;fill-rule:nonzero;fill:rgb(74.117649%,74.117649%,74.117649%);fill-opacity:1;" d="M 10.914062 17.242188 C 7.066406 17.242188 3.96875 20.339844 3.96875 24.191406 C 3.96875 28.039062 7.066406 31.136719 10.914062 31.136719 C 11.917969 31.136719 12.871094 30.925781 13.730469 30.542969 C 12.574219 28.707031 11.90625 26.53125 11.90625 24.191406 C 11.90625 21.851562 12.574219 19.671875 13.734375 17.835938 C 12.871094 17.457031 11.917969 17.242188 10.914062 17.242188 Z M 36.714844 17.242188 C 35.710938 17.242188 34.757812 17.457031 33.898438 17.835938 C 35.054688 19.671875 35.722656 21.851562 35.722656 24.191406 C 35.722656 26.53125 35.054688 28.707031 33.898438 30.542969 C 34.757812 30.925781 35.710938 31.136719 36.714844 31.136719 C 40.5625 31.136719 43.660156 28.039062 43.660156 24.191406 C 43.660156 20.339844 40.5625 17.242188 36.714844 17.242188 Z M 36.714844 17.242188 "/>
<path style=" stroke:none;fill-rule:nonzero;fill:rgb(74.117649%,74.117649%,74.117649%);fill-opacity:1;" d="M 23.816406 15.257812 C 28.746094 15.257812 32.746094 19.257812 32.746094 24.191406 C 32.746094 29.121094 28.746094 33.121094 23.816406 33.121094 C 18.882812 33.121094 14.882812 29.121094 14.882812 24.191406 C 14.882812 19.257812 18.882812 15.257812 23.816406 15.257812 Z M 23.816406 15.257812 "/>
</g>
</svg>
