
<svg xmlns="http://www.w3.org/2000/svg" xmlns:xlink="http://www.w3.org/1999/xlink" width="48px" height="48px" viewBox="0 0 48 48" version="1.1">
<g id="surface1">
<defs>
  <style id="current-color-scheme" type="text/css">
   .ColorScheme-Text { color:#eeeeee; } .ColorScheme-Highlight { color:#424242; }
  </style>
 </defs>
<path style="fill:currentColor" class="ColorScheme-Text" d="M 6 6 L 6 42 L 9 42 L 9 36 L 15 36 L 15 39 L 21 39 L 21 36 L 27 36 L 27 39 L 30 39 L 30 33 L 10.5 33 C 9.667969 33 9 32.332031 9 31.5 L 9 16.5 C 9 15.667969 9.667969 15 10.5 15 L 37.5 15 C 38.332031 15 39 15.667969 39 16.5 L 39 24 L 42 24 L 42 15 C 42 13.335938 40.664062 12 39 12 L 9 12 L 9 6 Z M 15 18 L 15 30 L 27 30 L 27 18 Z M 30 18 L 30 21 L 33 21 L 33 18 Z M 18 21 L 24 21 L 24 27 L 18 27 Z M 18 21 "/>
<path style=" stroke:none;fill-rule:nonzero;fill:rgb(100%,43.921569%,26.274511%);fill-opacity:1;" d="M 37.5 27 C 35.003906 27 33 29.003906 33 31.5 C 33 31.582031 33.035156 31.652344 33.035156 31.722656 L 36 31.722656 L 36 31.5 C 36 30.667969 36.667969 30 37.5 30 C 38.332031 30 39 30.667969 39 31.5 L 39 33 L 36 33 L 36 36 L 39 36 C 40.664062 36 42 34.664062 42 33 L 42 31.5 C 42 29.003906 39.996094 27 37.5 27 Z M 36 39 L 36 42 L 39 42 L 39 39 Z M 36 39 "/>
</g>
</svg>
