<svg height="24pt" viewBox="0 0 24 24" width="24pt" xmlns="http://www.w3.org/2000/svg" xmlns:xlink="http://www.w3.org/1999/xlink"><linearGradient id="a" gradientUnits="userSpaceOnUse" x1="12.403533" x2="12.403533" y1="19.53702825" y2="20.52931115627"><stop offset="0" stop-opacity=".27451"/><stop offset="1" stop-opacity="0"/></linearGradient><linearGradient id="b"><stop offset="0" stop-opacity=".313725"/><stop offset=".222222" stop-opacity=".27451"/><stop offset="1" stop-opacity="0"/></linearGradient><radialGradient id="c" cx="450.90894" cy="189.57936" gradientTransform="matrix(.00000013 -.0585994 -.105479 -.00000008 40.09027 46.208077)" gradientUnits="userSpaceOnUse" r="21.166656" xlink:href="#b"/><radialGradient id="d" cx="450.90894" cy="189.57936" gradientTransform="matrix(-.00000013 .0585994 .105479 .00000008 -16.275496 -7.134032)" gradientUnits="userSpaceOnUse" r="21.166656" xlink:href="#b"/><radialGradient id="e" cx="450.90894" cy="189.57936" gradientTransform="matrix(-.00000013 -.0585994 .105479 -.00000008 -16.275496 46.208077)" gradientUnits="userSpaceOnUse" r="21.166656" xlink:href="#b"/><radialGradient id="f" cx="450.90894" cy="189.57936" gradientTransform="matrix(.00000013 .0585994 -.105479 .00000008 40.090269 -7.134033)" gradientUnits="userSpaceOnUse" r="21.166656" xlink:href="#b"/><linearGradient id="g" gradientUnits="userSpaceOnUse" x1="11.907393" x2="11.907393" y1="23.01001606253" y2="1.17979540627"><stop offset="0" stop-color="#bdbdbd"/><stop offset="1" stop-color="#e0e0e0"/></linearGradient><linearGradient id="h" gradientUnits="userSpaceOnUse" x1="960" x2="960" y1="1575.1182" y2="375.1181"><stop offset="0" stop-color="#42a5f5"/><stop offset="1" stop-color="#64b5f6"/></linearGradient><path d="m3.472656 19.535156h16.867188v.996094h-16.867188zm0 0" fill="url(#a)"/><path d="m20.339844 19.535156h1.988281v-.992187h-1.988281zm0 0" fill="url(#c)"/><path d="m3.472656 19.535156h-1.984375v.996094h1.984375zm0 0" fill="url(#d)"/><path d="m3.472656 19.535156h-1.984375v-.992187h1.984375zm0 0" fill="url(#e)"/><path d="m20.339844 19.535156h1.988281v.996094h-1.988281zm0 0" fill="url(#f)"/><path d="m2.976562 4.652344h17.863282c.546875 0 .992187.445312.992187.992187v12.898438c0 .550781-.445312.992187-.992187.992187h-17.863282c-.546874 0-.992187-.441406-.992187-.992187v-12.898438c0-.546875.445313-.992187.992187-.992187zm0 0" fill="url(#g)"/><path d="m2.976562 4.652344c-.550781 0-.992187.441406-.992187.992187v.25c0-.550781.441406-.992187.992187-.992187h17.863282c.546875 0 .992187.441406.992187.992187v-.25c0-.550781-.445312-.992187-.992187-.992187zm0 0" fill="#fff" fill-opacity=".588235"/><path d="m1.984375 18.304688v.238281c0 .550781.441406.992187.992187.992187h17.863282c.546875 0 .992187-.441406.992187-.992187v-.238281c0 .550781-.445312.992187-.992187.992187h-17.863282c-.550781 0-.992187-.441406-.992187-.992187zm0 0" fill-opacity=".235294"/><g stroke="#212121" stroke-linecap="round" stroke-linejoin="round"><path d="m63.493937-115.759477h381.046945c11.665552 0 21.164645 9.499093 21.164645 21.164646v275.140392c0 11.748878-9.499093 21.164645-21.164645 21.164645h-381.046945c-11.665553 0-21.164646-9.415767-21.164646-21.164645v-275.140392c0-11.665553 9.499093-21.164646 21.164646-21.164646zm0 0" fill="none" stroke-width="3" transform="matrix(.0468795 0 0 .0468795 0 10.079087)"/><path d="m959.908345 655.055564c-177.305905 0-319.969448 142.663543-319.969448 319.969448s142.663543 319.969449 319.969448 319.969449 319.969449-142.663544 319.969449-319.969449-142.663544-319.969448-319.969449-319.969448zm-99.832987 101.722571v436.808686c-82.826737-37.791668-140.144099-121.248266-140.144099-218.561809 0-96.998612 57.317362-180.45521 140.144099-218.246877zm199.980905 0c82.826738 37.791667 139.829169 121.248265 139.829169 218.246877 0 97.313543-57.002431 180.770141-139.829169 218.561809zm0 0" fill="url(#h)" stroke-width="11.338583" transform="scale(.0124035)"/></g></svg>