
<svg xmlns="http://www.w3.org/2000/svg" xmlns:xlink="http://www.w3.org/1999/xlink" width="512px" height="512px" viewBox="0 0 512 512" version="1.1">
<defs>
<linearGradient id="linear0" gradientUnits="userSpaceOnUse" x1="232.833328" y1="222.916672" x2="232.833328" y2="48.291668" >
<stop offset="0" style="stop-color:rgb(100%,79.215686%,15.686275%);stop-opacity:1;"/>
<stop offset="1" style="stop-color:rgb(100%,83.529412%,30.980392%);stop-opacity:1;"/>
</linearGradient>
<linearGradient id="linear1" gradientUnits="userSpaceOnUse" x1="960" y1="1695.118164" x2="960" y2="815.118103" gradientTransform="matrix(0.264609,0,0,0.264609,0,-166.934708)">
<stop offset="0" style="stop-color:rgb(47.058824%,56.470588%,61.176471%);stop-opacity:1;"/>
<stop offset="1" style="stop-color:rgb(56.470588%,64.313725%,68.235294%);stop-opacity:1;"/>
</linearGradient>
<radialGradient id="radial0" gradientUnits="userSpaceOnUse" cx="450.908936" cy="189.579361" fx="450.908936" fy="189.579361" r="21.166656" gradientTransform="matrix(0.00000278673,-1.250119,-2.250215,-0.00000162462,654.156494,1006.940979)">
<stop offset="0" style="stop-color:rgb(0%,0%,0%);stop-opacity:0.313725;"/>
<stop offset="0.222222" style="stop-color:rgb(0%,0%,0%);stop-opacity:0.27451;"/>
<stop offset="1" style="stop-color:rgb(0%,0%,0%);stop-opacity:0;"/>
</radialGradient>
<radialGradient id="radial1" gradientUnits="userSpaceOnUse" cx="450.908936" cy="189.579361" fx="450.908936" fy="189.579361" r="21.166656" gradientTransform="matrix(-0.00000278673,1.250119,2.250215,0.00000162462,-188.44548,-131.024017)">
<stop offset="0" style="stop-color:rgb(0%,0%,0%);stop-opacity:0.313725;"/>
<stop offset="0.222222" style="stop-color:rgb(0%,0%,0%);stop-opacity:0.27451;"/>
<stop offset="1" style="stop-color:rgb(0%,0%,0%);stop-opacity:0;"/>
</radialGradient>
<radialGradient id="radial2" gradientUnits="userSpaceOnUse" cx="450.908936" cy="189.579361" fx="450.908936" fy="189.579361" r="21.166656" gradientTransform="matrix(-0.00000278673,-1.250119,2.250215,-0.00000162462,-188.44548,1006.940979)">
<stop offset="0" style="stop-color:rgb(0%,0%,0%);stop-opacity:0.313725;"/>
<stop offset="0.222222" style="stop-color:rgb(0%,0%,0%);stop-opacity:0.27451;"/>
<stop offset="1" style="stop-color:rgb(0%,0%,0%);stop-opacity:0;"/>
</radialGradient>
<radialGradient id="radial3" gradientUnits="userSpaceOnUse" cx="450.908936" cy="189.579361" fx="450.908936" fy="189.579361" r="21.166656" gradientTransform="matrix(0.00000278673,1.250119,-2.250215,0.00000162462,654.156433,-131.024017)">
<stop offset="0" style="stop-color:rgb(0%,0%,0%);stop-opacity:0.313725;"/>
<stop offset="0.222222" style="stop-color:rgb(0%,0%,0%);stop-opacity:0.27451;"/>
<stop offset="1" style="stop-color:rgb(0%,0%,0%);stop-opacity:0;"/>
</radialGradient>
</defs>
<g id="surface1">
<path style="fill-rule:nonzero;fill:url(#linear0);stroke-width:3;stroke-linecap:square;stroke-linejoin:round;stroke:rgb(12.941177%,12.941177%,12.941177%);stroke-opacity:1;stroke-miterlimit:4;" d="M 248.706839 53.583746 C 245.31263 53.525158 241.95748 55.103133 239.856118 58.102848 L 188.259457 131.795065 C 186.005765 135.009603 185.78313 139.017035 187.325952 142.325314 C 188.900021 146.184323 192.680912 148.887191 197.117991 148.887191 L 266.525459 148.887191 L 226.623 205.87787 C 223.260038 210.678195 224.420084 217.251789 229.220409 220.614751 C 234.02464 223.977713 240.598235 222.821573 243.961196 218.017342 L 294.460305 145.895288 C 296.436679 143.977501 297.659219 141.290256 297.659219 138.306165 C 297.659219 133.333981 294.268917 129.189844 289.667791 128.037609 C 288.406192 127.693892 287.105535 127.592339 285.828312 127.721233 L 216.948138 127.721233 L 257.194314 70.246225 C 260.557276 65.441994 259.39723 58.8684 254.596905 55.505438 C 252.796294 54.243839 250.745708 53.618899 248.706839 53.583746 Z M 248.706839 53.583746 " transform="matrix(1.000095,0,0,1.000095,0,215.020538)"/>
<path style=" stroke:none;fill-rule:nonzero;fill:url(#linear1);" d="M 349.285156 48.753906 C 302.742188 48.753906 262.746094 75.789062 244.085938 115.078125 C 237.128906 113.242188 229.820312 112.257812 222.269531 112.257812 C 186.046875 112.257812 155.285156 134.78125 143.144531 166.636719 C 132.683594 159.058594 119.804688 154.597656 105.84375 154.597656 C 70.660156 154.597656 42.335938 182.917969 42.335938 218.101562 C 42.335938 253.285156 70.660156 281.609375 105.84375 281.609375 C 108.457031 281.609375 111.03125 281.449219 113.5625 281.144531 C 114.472656 281.445312 115.433594 281.609375 116.429688 281.609375 L 349.285156 281.609375 C 349.289062 281.609375 349.296875 281.609375 349.304688 281.609375 C 413.796875 281.597656 465.710938 229.675781 465.710938 165.179688 C 465.710938 100.679688 413.785156 48.753906 349.285156 48.753906 Z M 349.285156 48.753906 "/>
<path style=" stroke:none;fill-rule:nonzero;fill:rgb(100%,100%,100%);fill-opacity:0.392157;" d="M 349.285156 48.753906 C 302.742188 48.753906 262.746094 75.789062 244.085938 115.078125 C 237.128906 113.242188 229.820312 112.257812 222.269531 112.257812 C 186.046875 112.257812 155.285156 134.78125 143.144531 166.636719 C 132.683594 159.058594 119.804688 154.597656 105.84375 154.597656 C 70.660156 154.597656 42.335938 182.917969 42.335938 218.101562 C 42.335938 218.988281 42.359375 219.871094 42.394531 220.746094 C 43.773438 186.804688 71.546875 159.886719 105.84375 159.886719 C 119.804688 159.886719 132.683594 164.351562 143.144531 171.929688 C 155.285156 140.070312 186.046875 117.550781 222.269531 117.550781 C 229.820312 117.550781 237.128906 118.535156 244.085938 120.371094 C 262.746094 81.082031 302.742188 54.042969 349.285156 54.042969 C 412.898438 54.042969 464.28125 104.558594 465.679688 167.828125 C 465.699219 166.945312 465.710938 166.066406 465.710938 165.179688 C 465.710938 100.679688 413.785156 48.753906 349.285156 48.753906 Z M 349.285156 48.753906 "/>
<path style=" stroke:none;fill-rule:nonzero;fill:rgb(0%,0%,0%);fill-opacity:0.235294;" d="M 465.683594 162.765625 C 464.410156 226.136719 412.988281 276.769531 349.304688 276.777344 C 349.296875 276.777344 349.289062 276.78125 349.285156 276.78125 L 116.429688 276.78125 C 115.433594 276.78125 114.472656 276.617188 113.5625 276.316406 C 111.03125 276.621094 108.457031 276.777344 105.84375 276.777344 C 71.46875 276.777344 43.648438 249.742188 42.386719 215.6875 C 42.355469 216.488281 42.335938 217.292969 42.335938 218.101562 C 42.335938 253.285156 70.660156 281.609375 105.84375 281.609375 C 108.457031 281.609375 111.03125 281.449219 113.5625 281.144531 C 114.472656 281.445312 115.433594 281.609375 116.429688 281.609375 L 349.285156 281.609375 C 349.289062 281.609375 349.296875 281.609375 349.304688 281.609375 C 413.796875 281.597656 465.710938 229.675781 465.710938 165.179688 C 465.710938 164.375 465.699219 163.570312 465.683594 162.765625 Z M 465.683594 162.765625 "/>
<path style="fill:none;stroke-width:3;stroke-linecap:round;stroke-linejoin:miter;stroke:rgb(12.941177%,12.941177%,12.941177%);stroke-opacity:1;stroke-miterlimit:4;" d="M 349.251974 -166.250837 C 302.713427 -166.250837 262.721133 -139.218249 244.062749 -99.932919 C 237.106379 -101.768682 229.798479 -102.752963 222.248415 -102.752963 C 186.0292 -102.752963 155.270404 -80.231666 143.130932 -48.379223 C 132.670989 -55.956628 119.793306 -60.417142 105.833695 -60.417142 C 70.653443 -60.417142 42.331916 -32.09952 42.331916 3.080731 C 42.331916 38.260983 70.653443 66.582511 105.833695 66.582511 C 108.446728 66.582511 111.020702 66.42237 113.551711 66.117711 C 114.461781 66.418464 115.422627 66.582511 116.418627 66.582511 L 349.251974 66.582511 C 349.25588 66.582511 349.263692 66.582511 349.271503 66.582511 C 413.757564 66.570793 465.666695 14.653851 465.666695 -49.836116 C 465.666695 -114.329988 413.745846 -166.250837 349.251974 -166.250837 Z M 349.251974 -166.250837 " transform="matrix(1.000095,0,0,1.000095,0,215.020538)"/>
<path style=" stroke:none;fill-rule:nonzero;fill:url(#radial0);" d="M 232.855469 437.957031 L 275.191406 437.957031 L 275.191406 416.789062 L 232.855469 416.789062 Z M 232.855469 437.957031 "/>
<path style=" stroke:none;fill-rule:nonzero;fill:url(#radial1);" d="M 232.855469 437.957031 L 190.519531 437.957031 L 190.519531 459.128906 L 232.855469 459.128906 Z M 232.855469 437.957031 "/>
<path style=" stroke:none;fill-rule:nonzero;fill:url(#radial2);" d="M 232.855469 437.957031 L 190.519531 437.957031 L 190.519531 416.789062 L 232.855469 416.789062 Z M 232.855469 437.957031 "/>
<path style=" stroke:none;fill-rule:nonzero;fill:url(#radial3);" d="M 232.855469 437.957031 L 275.191406 437.957031 L 275.191406 459.128906 L 232.855469 459.128906 Z M 232.855469 437.957031 "/>
</g>
</svg>
