<svg height="16" viewBox="0 0 16 16" width="16" xmlns="http://www.w3.org/2000/svg"><g fill="#424242"><path d="m3.96875 11.703125v1.652344c0 .367187.296875.660156.660156.660156h6.617188c.367187 0 .660156-.292969.660156-.660156v-1.652344zm0 0"/><path d="m6.449219 2.109375c-.367188 0-.660157.296875-.660157.660156v.664063h-1.160156c-.363281 0-.660156.292968-.660156.660156v1.652344h7.9375v-1.652344c0-.367188-.292969-.660156-.660156-.660156h-1.15625v-.664063c0-.363281-.296875-.660156-.664063-.660156zm0 0"/><path d="m4.300781 6.410156h-.332031v1.984375h7.9375v-1.984375zm0 0"/><path d="m3.964844 9.054688v1.984374h7.9375v-1.984374zm0 0"/></g></svg>