<?xml version="1.0" encoding="UTF-8"?>
<svg xmlns="http://www.w3.org/2000/svg" xmlns:xlink="http://www.w3.org/1999/xlink" width="22pt" height="22pt" viewBox="0 0 22 22" version="1.1">
<defs>
<linearGradient id="linear0" gradientUnits="userSpaceOnUse" x1="254" y1="233.5" x2="254" y2="254.666672" gradientTransform="matrix(0.0429729,0,0,0.0429729,-0.00000262285,9.239165)">
<stop offset="0" style="stop-color:rgb(0%,0%,0%);stop-opacity:0.27451;"/>
<stop offset="1" style="stop-color:rgb(0%,0%,0%);stop-opacity:0;"/>
</linearGradient>
<radialGradient id="radial0" gradientUnits="userSpaceOnUse" cx="450.908936" cy="189.579361" fx="450.908936" fy="189.579361" r="21.166656" gradientTransform="matrix(0.000000119742,-0.0537161,-0.0966889,-0.0000000698078,36.522014,43.721791)">
<stop offset="0" style="stop-color:rgb(0%,0%,0%);stop-opacity:0.313725;"/>
<stop offset="0.222222" style="stop-color:rgb(0%,0%,0%);stop-opacity:0.27451;"/>
<stop offset="1" style="stop-color:rgb(0%,0%,0%);stop-opacity:0;"/>
</radialGradient>
<radialGradient id="radial1" gradientUnits="userSpaceOnUse" cx="450.908936" cy="189.579361" fx="450.908936" fy="189.579361" r="21.166656" gradientTransform="matrix(-0.000000119742,0.0537161,0.0966889,0.0000000698078,-14.578108,-5.175142)">
<stop offset="0" style="stop-color:rgb(0%,0%,0%);stop-opacity:0.313725;"/>
<stop offset="0.222222" style="stop-color:rgb(0%,0%,0%);stop-opacity:0.27451;"/>
<stop offset="1" style="stop-color:rgb(0%,0%,0%);stop-opacity:0;"/>
</radialGradient>
<radialGradient id="radial2" gradientUnits="userSpaceOnUse" cx="450.908936" cy="189.579361" fx="450.908936" fy="189.579361" r="21.166656" gradientTransform="matrix(-0.000000119742,-0.0537161,0.0966889,-0.0000000698078,-14.578108,43.721791)">
<stop offset="0" style="stop-color:rgb(0%,0%,0%);stop-opacity:0.313725;"/>
<stop offset="0.222222" style="stop-color:rgb(0%,0%,0%);stop-opacity:0.27451;"/>
<stop offset="1" style="stop-color:rgb(0%,0%,0%);stop-opacity:0;"/>
</radialGradient>
<radialGradient id="radial3" gradientUnits="userSpaceOnUse" cx="450.908936" cy="189.579361" fx="450.908936" fy="189.579361" r="21.166656" gradientTransform="matrix(0.000000119742,0.0537161,-0.0966889,0.0000000698078,36.522013,-5.175142)">
<stop offset="0" style="stop-color:rgb(0%,0%,0%);stop-opacity:0.313725;"/>
<stop offset="0.222222" style="stop-color:rgb(0%,0%,0%);stop-opacity:0.27451;"/>
<stop offset="1" style="stop-color:rgb(0%,0%,0%);stop-opacity:0;"/>
</radialGradient>
<linearGradient id="linear1" gradientUnits="userSpaceOnUse" x1="254" y1="233.5" x2="254" y2="-168.666672" gradientTransform="matrix(0.0429729,0,0,0.0429729,0,9.239163)">
<stop offset="0" style="stop-color:rgb(84.313725%,80%,78.431373%);stop-opacity:1;"/>
<stop offset="1" style="stop-color:rgb(93.72549%,92.156863%,91.372549%);stop-opacity:1;"/>
</linearGradient>
<linearGradient id="linear2" gradientUnits="userSpaceOnUse" x1="177.544067" y1="52.339333" x2="177.544067" y2="-138.160675" >
<stop offset="0" style="stop-color:rgb(29.803922%,68.627451%,31.372549%);stop-opacity:1;"/>
<stop offset="1" style="stop-color:rgb(40%,73.333333%,41.568627%);stop-opacity:1;"/>
</linearGradient>
<linearGradient id="linear3" gradientUnits="userSpaceOnUse" x1="122.241348" y1="190.715988" x2="122.241348" y2="391.799316" >
<stop offset="0" style="stop-color:rgb(93.72549%,32.54902%,31.372549%);stop-opacity:1;"/>
<stop offset="1" style="stop-color:rgb(95.686275%,26.27451%,21.176471%);stop-opacity:1;"/>
</linearGradient>
<linearGradient id="linear4" gradientUnits="userSpaceOnUse" x1="296.333344" y1="258" x2="296.333344" y2="56.916668" gradientTransform="matrix(0.535181,0,0,0.535181,0,-0.000000000000014211)">
<stop offset="0" style="stop-color:rgb(49.411765%,34.117647%,76.078431%);stop-opacity:1;"/>
<stop offset="1" style="stop-color:rgb(58.431373%,45.882353%,80.392157%);stop-opacity:1;"/>
</linearGradient>
</defs>
<g id="surface1">
<path style=" stroke:none;fill-rule:nonzero;fill:url(#linear0);" d="M 3.523438 19.273438 L 18.417969 19.273438 L 18.417969 20.183594 L 3.523438 20.183594 Z M 3.523438 19.273438 "/>
<path style=" stroke:none;fill-rule:nonzero;fill:url(#radial0);" d="M 18.417969 19.273438 L 20.238281 19.273438 L 20.238281 18.363281 L 18.417969 18.363281 Z M 18.417969 19.273438 "/>
<path style=" stroke:none;fill-rule:nonzero;fill:url(#radial1);" d="M 3.523438 19.273438 L 1.707031 19.273438 L 1.707031 20.183594 L 3.523438 20.183594 Z M 3.523438 19.273438 "/>
<path style=" stroke:none;fill-rule:nonzero;fill:url(#radial2);" d="M 3.523438 19.273438 L 1.707031 19.273438 L 1.707031 18.363281 L 3.523438 18.363281 Z M 3.523438 19.273438 "/>
<path style=" stroke:none;fill-rule:nonzero;fill:url(#radial3);" d="M 18.417969 19.273438 L 20.238281 19.273438 L 20.238281 20.183594 L 18.417969 20.183594 Z M 18.417969 19.273438 "/>
<path style=" stroke:none;fill-rule:nonzero;fill:url(#linear1);" d="M 2.5 1.992188 L 19.328125 1.992188 C 19.707031 1.992188 20.011719 2.296875 20.011719 2.671875 L 20.011719 18.589844 C 20.011719 18.96875 19.707031 19.273438 19.328125 19.273438 L 2.5 19.273438 C 2.125 19.273438 1.820312 18.96875 1.820312 18.589844 L 1.820312 2.671875 C 1.820312 2.296875 2.125 1.992188 2.5 1.992188 Z M 2.5 1.992188 "/>
<path style=" stroke:none;fill-rule:nonzero;fill:rgb(0%,0%,0%);fill-opacity:0.196078;" d="M 2.730469 19.273438 C 2.226562 19.273438 1.820312 18.867188 1.820312 18.363281 L 1.820312 18.25 C 1.820312 18.753906 2.226562 19.160156 2.730469 19.160156 L 19.101562 19.160156 C 19.605469 19.160156 20.011719 18.753906 20.011719 18.25 L 20.011719 18.363281 C 20.011719 18.867188 19.605469 19.273438 19.101562 19.273438 Z M 2.730469 19.273438 "/>
<path style=" stroke:none;fill-rule:nonzero;fill:rgb(100%,100%,100%);fill-opacity:0.643137;" d="M 2.730469 1.992188 C 2.226562 1.992188 1.820312 2.398438 1.820312 2.902344 L 1.820312 3.015625 C 1.820312 2.511719 2.226562 2.105469 2.730469 2.105469 L 19.101562 2.105469 C 19.605469 2.105469 20.011719 2.511719 20.011719 3.015625 L 20.011719 2.902344 C 20.011719 2.398438 19.605469 1.992188 19.101562 1.992188 Z M 2.730469 1.992188 "/>
<path style=" stroke:none;fill-rule:nonzero;fill:rgb(12.941177%,12.941177%,12.941177%);fill-opacity:1;" d="M 2.5 1.925781 C 2.089844 1.925781 1.753906 2.261719 1.753906 2.671875 L 1.753906 18.589844 C 1.753906 19.003906 2.089844 19.335938 2.5 19.335938 L 19.328125 19.335938 C 19.742188 19.335938 20.074219 19.003906 20.074219 18.589844 L 20.074219 2.671875 C 20.074219 2.261719 19.742188 1.925781 19.328125 1.925781 Z M 2.5 2.054688 L 19.328125 2.054688 C 19.671875 2.054688 19.945312 2.328125 19.945312 2.671875 L 19.945312 18.589844 C 19.945312 18.933594 19.671875 19.207031 19.328125 19.207031 L 2.5 19.207031 C 2.15625 19.207031 1.882812 18.933594 1.882812 18.589844 L 1.882812 2.671875 C 1.882812 2.328125 2.15625 2.054688 2.5 2.054688 Z M 2.5 2.054688 "/>
<path style="fill-rule:nonzero;fill:url(#linear2);stroke-width:3;stroke-linecap:round;stroke-linejoin:miter;stroke:rgb(12.941177%,12.941177%,12.941177%);stroke-opacity:1;stroke-miterlimit:4;" d="M 262.187483 31.200043 C 250.643131 42.471694 233.372053 16.655978 217.100879 19.655691 C 200.829706 22.655405 199.102598 52.925241 182.649624 50.561831 C 166.105749 48.10752 175.19579 21.746401 161.560729 12.201858 C 148.016567 2.657314 123.109855 23.019006 114.292515 8.838542 C 105.475175 -5.432822 133.018 -27.15802 132.836199 -44.065497 C 132.654398 -60.972973 106.384179 -64.245388 112.292706 -79.880258 C 118.292133 -95.515129 144.10785 -77.062345 156.470306 -87.970395 C 168.832761 -98.878444 156.470306 -130.239086 172.92328 -133.329699 C 189.285354 -136.329413 199.284399 -105.059672 215.191971 -101.423655 C 231.190443 -97.787639 241.73489 -126.330368 255.00635 -115.78592 C 268.368711 -105.150572 246.643513 -84.879781 253.551944 -70.153914 C 260.551275 -55.518948 300.911058 -59.609467 300.547456 -43.065592 C 300.183854 -26.430817 264.369093 -34.611854 257.915164 -19.158784 C 251.461234 -3.705714 273.822735 19.837492 262.187483 31.200043 Z M 262.187483 31.200043 " transform="matrix(0.0429729,0,0,0.0429729,6.014306,10.202214)"/>
<path style="fill-rule:nonzero;fill:url(#linear3);stroke-width:3.644074;stroke-linecap:round;stroke-linejoin:miter;stroke:rgb(12.941177%,12.941177%,12.941177%);stroke-opacity:1;stroke-miterlimit:4;" d="M 175.174792 381.267473 C 157.873983 387.467324 139.218293 363.486769 120.249937 366.294248 C 101.281581 368.98475 67.930625 404.312202 54.694465 392.965305 C 41.458304 381.735386 67.722182 338.570387 58.550669 321.842487 C 49.379156 305.231566 15.090205 312.133287 9.98334 293.884669 C 4.980697 275.519073 45.939839 281.017054 55.736682 263.587284 C 65.533525 246.157515 48.753826 204.04532 63.761756 192.815401 C 78.769686 181.585483 112.120641 237.969033 129.525671 238.904859 C 146.826479 239.957664 161.521744 191.996553 177.884557 199.483166 C 194.247369 207.086756 171.943918 236.097379 180.385878 252.123409 C 188.932061 268.149439 201.126004 265.458937 204.461099 283.590577 C 207.796195 301.605238 178.301444 304.763653 170.693257 320.438747 C 163.08507 336.113842 192.4756 374.950644 175.174792 381.267473 Z M 175.174792 381.267473 " transform="matrix(0.0374802,0,0,0.0333929,3.895354,-3.462111)"/>
<path style="fill-rule:nonzero;fill:url(#linear4);stroke-width:1.456073;stroke-linecap:round;stroke-linejoin:miter;stroke:rgb(12.941177%,12.941177%,12.941177%);stroke-opacity:1;stroke-miterlimit:4;" d="M 199.39604 122.094357 C 194.152333 128.909731 179.819534 110.245406 171.779183 114.07627 C 163.738832 117.907134 163.695135 136.081464 154.606043 136.749638 C 145.473253 137.417812 156.048062 114.699899 148.357292 110.601766 C 140.666521 106.548177 127.688346 127.662473 121.133712 121.381638 C 114.535381 115.056259 127.426161 103.920027 124.192542 95.679215 C 120.958922 87.438404 100.858045 93.229244 101.426113 84.097534 C 102.037879 74.965824 121.570688 78.173059 124.323634 69.976792 C 127.07658 61.73598 113.83622 48.996131 121.090015 43.338925 C 128.387507 37.681719 139.486687 49.397035 148.226199 46.991609 C 156.965711 44.630728 145.34216 22.803714 154.606043 22.625534 C 163.826227 22.491899 162.995974 47.080699 171.648091 50.466114 C 180.300207 53.851528 193.32208 37.770809 199.39604 44.051644 C 205.470001 50.332479 189.214509 59.820548 192.579221 67.97227 C 195.943933 76.123992 219.191035 75.233093 219.234732 84.097534 C 219.27843 92.961975 196.643094 85.745696 192.448129 93.674693 C 188.253163 101.648235 204.683445 115.278983 199.39604 122.094357 Z M 199.39604 122.094357 " transform="matrix(0.0893929,0,0,0.0876924,-6.000365,6.293257)"/>
</g>
</svg>
