<?xml version="1.0" encoding="UTF-8"?>
<svg xmlns="http://www.w3.org/2000/svg" xmlns:xlink="http://www.w3.org/1999/xlink" width="24pt" height="24pt" viewBox="0 0 24 24" version="1.1">
<g id="surface1">
<path style=" stroke:none;fill-rule:nonzero;fill:rgb(74.117649%,74.117649%,74.117649%);fill-opacity:1;" d="M 4.1875 4.375 C -0.0859375 8.652344 -0.0859375 15.539062 4.1875 19.8125 C 8.464844 24.089844 15.351562 24.089844 19.625 19.8125 C 23.902344 15.539062 23.902344 8.652344 19.625 4.375 C 15.351562 0.101562 8.464844 0.101562 4.1875 4.375 Z M 4.929688 6.519531 L 10.503906 12.09375 L 4.929688 17.667969 C 2.316406 14.414062 2.316406 9.777344 4.929688 6.519531 Z M 6.332031 5.117188 C 9.589844 2.503906 14.226562 2.503906 17.480469 5.117188 L 11.90625 10.691406 Z M 6.332031 19.074219 L 11.90625 13.5 L 17.480469 19.074219 C 14.226562 21.6875 9.589844 21.6875 6.332031 19.074219 Z M 13.3125 12.09375 L 18.886719 6.519531 C 21.5 9.777344 21.5 14.414062 18.886719 17.667969 Z M 13.3125 12.09375 "/>
</g>
</svg>
