<?xml version="1.0" encoding="UTF-8"?>
<svg xmlns="http://www.w3.org/2000/svg" xmlns:xlink="http://www.w3.org/1999/xlink" width="24px" height="24px" viewBox="0 0 24 24" version="1.1">
<g id="surface1">
<path style=" stroke:none;fill-rule:nonzero;fill:rgb(87.843138%,87.843138%,87.843138%);fill-opacity:1;" d="M 3.96875 2.171875 C 2.871094 2.171875 1.984375 3.058594 1.984375 4.15625 L 1.984375 16.0625 L 3.96875 18.046875 L 3.96875 5.148438 C 3.96875 4.597656 4.410156 4.15625 4.960938 4.15625 L 18.851562 4.15625 C 19.402344 4.15625 19.84375 4.597656 19.84375 5.148438 L 19.84375 19.039062 C 19.84375 19.589844 19.402344 20.03125 18.851562 20.03125 L 5.953125 20.03125 L 7.9375 22.019531 L 19.84375 22.019531 C 20.945312 22.019531 21.832031 21.132812 21.832031 20.03125 L 21.832031 4.15625 C 21.832031 3.058594 20.945312 2.171875 19.84375 2.171875 Z M 3.96875 2.171875 "/>
<path style=" stroke:none;fill-rule:nonzero;fill:rgb(87.843138%,87.843138%,87.843138%);fill-opacity:1;" d="M 17.363281 11.101562 C 17.089844 11.101562 16.867188 10.878906 16.867188 10.605469 L 16.867188 6.636719 C 16.867188 6.363281 17.089844 6.140625 17.363281 6.140625 C 17.640625 6.140625 17.859375 6.363281 17.859375 6.636719 L 17.859375 10.605469 C 17.859375 10.878906 17.640625 11.101562 17.363281 11.101562 Z M 17.363281 11.101562 "/>
<path style=" stroke:none;fill-rule:nonzero;fill:rgb(87.843138%,87.843138%,87.843138%);fill-opacity:1;" d="M 6.476562 11.101562 L 6.421875 11.101562 C 6.164062 11.101562 5.953125 10.878906 5.953125 10.605469 L 5.953125 6.636719 C 5.953125 6.363281 6.164062 6.140625 6.421875 6.140625 L 6.476562 6.140625 C 6.734375 6.140625 6.945312 6.363281 6.945312 6.636719 L 6.945312 10.605469 C 6.945312 10.878906 6.734375 11.101562 6.476562 11.101562 Z M 6.476562 11.101562 "/>
<path style=" stroke:none;fill-rule:nonzero;fill:rgb(87.843138%,87.843138%,87.843138%);fill-opacity:1;" d="M 5.953125 10.628906 L 5.953125 10.625 C 5.953125 10.363281 6.175781 10.148438 6.449219 10.148438 L 17.363281 10.148438 C 17.640625 10.148438 17.859375 10.363281 17.859375 10.625 L 17.859375 10.628906 C 17.859375 10.890625 17.640625 11.101562 17.363281 11.101562 L 6.449219 11.101562 C 6.175781 11.101562 5.953125 10.890625 5.953125 10.628906 Z M 5.953125 10.628906 "/>
<path style=" stroke:none;fill-rule:nonzero;fill:rgb(87.843138%,87.843138%,87.843138%);fill-opacity:1;" d="M 5.953125 6.65625 L 5.953125 6.617188 C 5.953125 6.355469 6.167969 6.140625 6.429688 6.140625 L 17.386719 6.140625 C 17.648438 6.140625 17.859375 6.355469 17.859375 6.617188 L 17.859375 6.65625 C 17.859375 6.921875 17.648438 7.132812 17.386719 7.132812 L 6.429688 7.132812 C 6.167969 7.132812 5.953125 6.921875 5.953125 6.65625 Z M 5.953125 6.65625 "/>
<path style=" stroke:none;fill-rule:nonzero;fill:rgb(87.843138%,87.843138%,87.843138%);fill-opacity:1;" d="M 17.363281 18.046875 C 17.089844 18.046875 16.867188 17.828125 16.867188 17.550781 L 16.867188 13.582031 C 16.867188 13.308594 17.089844 13.085938 17.363281 13.085938 C 17.640625 13.085938 17.859375 13.308594 17.859375 13.582031 L 17.859375 17.550781 C 17.859375 17.828125 17.640625 18.046875 17.363281 18.046875 Z M 17.363281 18.046875 "/>
<path style=" stroke:none;fill-rule:nonzero;fill:rgb(87.843138%,87.843138%,87.843138%);fill-opacity:1;" d="M 9.921875 17.097656 L 9.921875 18.046875 L 17.363281 18.046875 C 17.640625 18.046875 17.859375 17.835938 17.859375 17.574219 L 17.859375 17.570312 C 17.859375 17.308594 17.640625 17.097656 17.363281 17.097656 Z M 9.921875 17.097656 "/>
<path style=" stroke:none;fill-rule:nonzero;fill:rgb(87.843138%,87.843138%,87.843138%);fill-opacity:1;" d="M 6.429688 13.085938 C 6.167969 13.085938 5.953125 13.300781 5.953125 13.5625 L 5.953125 13.601562 C 5.953125 13.808594 6.082031 13.984375 6.265625 14.050781 L 8.433594 14.050781 L 8.433594 14.078125 L 17.386719 14.078125 C 17.648438 14.078125 17.859375 13.867188 17.859375 13.601562 L 17.859375 13.5625 C 17.859375 13.300781 17.648438 13.085938 17.386719 13.085938 Z M 6.429688 13.085938 "/>
<path style=" stroke:none;fill-rule:nonzero;fill:rgb(87.843138%,87.843138%,87.843138%);fill-opacity:1;" d="M 3.96875 16.0625 C 3.417969 16.0625 2.921875 16.285156 2.566406 16.644531 L 7.359375 21.4375 C 7.71875 21.078125 7.9375 20.582031 7.9375 20.03125 L 7.9375 18.046875 C 7.9375 16.949219 7.054688 16.0625 5.953125 16.0625 Z M 3.96875 16.0625 "/>
</g>
</svg>
