<svg xmlns="http://www.w3.org/2000/svg" width="32" height="32" viewBox="0 0 24 24"><path d="M10.254 1.676a.348.348 0 0 0-.348.344v4.152c0 .262.281.426.512.3l2.43-2.074c.257-.214.257-.39 0-.605l-2.43-2.074a.343.343 0 0 0-.164-.043zm0 0M7.61 1.676c.187 0 .343.156.343.344v4.152a.345.345 0 0 1-.512.3L5.016 4.399c-.262-.214-.262-.39 0-.605L7.44 1.719a.358.358 0 0 1 .168-.043zm0 0" fill-rule="evenodd" fill="#26c6da"/><path d="M2.73 4.156a.744.744 0 0 0-.746.746v3.743a.706.706 0 0 0-.035.226v6.45c0 .077.012.156.035.226v5.726a.744.744 0 1 0 1.489 0v-5.21H9.18c.41 0 .742-.333.742-.743V8.871a.743.743 0 0 0-.742-.746H3.473V4.902a.743.743 0 0 0-.743-.746zm.743 5.457h4.464c.278 0 .497.223.497.496v3.97a.492.492 0 0 1-.496.495H3.473zm0 0M14.637 4.156a.744.744 0 0 0-.746.746v3.743a.834.834 0 0 0-.036.226v9.922c0 .078.016.156.036.227v2.253a.744.744 0 1 0 1.488 0v-1.738h5.707a.74.74 0 0 0 .746-.742V8.871a.744.744 0 0 0-.746-.746h-5.707V4.902a.743.743 0 0 0-.742-.746zm.742 5.457h4.465c.277 0 .496.223.496.496v7.442a.494.494 0 0 1-.496.496h-4.465zm0 0" fill="#bdbdbd"/></svg>