<?xml version="1.0" encoding="UTF-8"?>
<svg xmlns="http://www.w3.org/2000/svg" xmlns:xlink="http://www.w3.org/1999/xlink" width="24px" height="24px" viewBox="0 0 24 24" version="1.1">
<g id="surface1">
<path style=" stroke:none;fill-rule:nonzero;fill:rgb(87.843138%,87.843138%,87.843138%);fill-opacity:1;" d="M 21.832031 5.148438 L 21.832031 6.140625 C 21.832031 6.414062 21.609375 6.636719 21.335938 6.636719 L 16.371094 6.636719 C 16.097656 6.636719 15.875 6.414062 15.875 6.140625 L 15.875 5.148438 C 15.875 4.875 16.097656 4.652344 16.371094 4.652344 L 21.335938 4.652344 C 21.609375 4.652344 21.832031 4.875 21.832031 5.148438 Z M 21.832031 5.148438 "/>
<path style=" stroke:none;fill-rule:nonzero;fill:rgb(87.843138%,87.843138%,87.843138%);fill-opacity:1;" d="M 16.867188 3.164062 C 16.867188 2.613281 16.425781 2.171875 15.875 2.171875 L 10.914062 2.171875 C 10.367188 2.171875 9.921875 2.613281 9.921875 3.164062 L 9.921875 8.125 C 9.921875 8.675781 10.367188 9.117188 10.914062 9.117188 L 15.875 9.117188 C 16.425781 9.117188 16.867188 8.675781 16.867188 8.125 Z M 14.882812 4.652344 L 14.882812 6.636719 C 14.882812 6.914062 14.664062 7.132812 14.386719 7.132812 L 12.402344 7.132812 C 12.128906 7.132812 11.90625 6.914062 11.90625 6.636719 L 11.90625 4.652344 C 11.90625 4.378906 12.128906 4.15625 12.402344 4.15625 L 14.386719 4.15625 C 14.664062 4.15625 14.882812 4.378906 14.882812 4.652344 Z M 14.882812 4.652344 "/>
<path style=" stroke:none;fill-rule:nonzero;fill:rgb(87.843138%,87.843138%,87.843138%);fill-opacity:1;" d="M 10.914062 5.148438 L 10.914062 6.140625 C 10.914062 6.414062 10.691406 6.636719 10.417969 6.636719 L 2.480469 6.636719 C 2.207031 6.636719 1.984375 6.414062 1.984375 6.140625 L 1.984375 5.148438 C 1.984375 4.875 2.207031 4.652344 2.480469 4.652344 L 10.417969 4.652344 C 10.691406 4.652344 10.914062 4.875 10.914062 5.148438 Z M 10.914062 5.148438 "/>
<path style=" stroke:none;fill-rule:nonzero;fill:rgb(87.843138%,87.843138%,87.843138%);fill-opacity:1;" d="M 21.832031 18.046875 L 21.832031 19.039062 C 21.832031 19.316406 21.609375 19.535156 21.335938 19.535156 L 16.371094 19.535156 C 16.097656 19.535156 15.875 19.316406 15.875 19.039062 L 15.875 18.046875 C 15.875 17.773438 16.097656 17.550781 16.371094 17.550781 L 21.335938 17.550781 C 21.609375 17.550781 21.832031 17.773438 21.832031 18.046875 Z M 21.832031 18.046875 "/>
<path style=" stroke:none;fill-rule:nonzero;fill:rgb(87.843138%,87.843138%,87.843138%);fill-opacity:1;" d="M 16.867188 16.0625 C 16.867188 15.515625 16.425781 15.070312 15.875 15.070312 L 7.441406 15.070312 C 6.890625 15.070312 6.449219 15.515625 6.449219 16.0625 L 6.449219 21.027344 C 6.449219 21.574219 6.890625 22.019531 7.441406 22.019531 L 15.875 22.019531 C 16.425781 22.019531 16.867188 21.574219 16.867188 21.027344 Z M 14.882812 17.550781 L 14.882812 19.535156 C 14.882812 19.8125 14.664062 20.03125 14.386719 20.03125 L 8.929688 20.03125 C 8.65625 20.03125 8.433594 19.8125 8.433594 19.535156 L 8.433594 17.550781 C 8.433594 17.277344 8.65625 17.054688 8.929688 17.054688 L 14.386719 17.054688 C 14.664062 17.054688 14.882812 17.277344 14.882812 17.550781 Z M 14.882812 17.550781 "/>
<path style=" stroke:none;fill-rule:nonzero;fill:rgb(87.843138%,87.843138%,87.843138%);fill-opacity:1;" d="M 7.441406 18.046875 L 7.441406 19.039062 C 7.441406 19.316406 7.21875 19.535156 6.945312 19.535156 L 2.480469 19.535156 C 2.207031 19.535156 1.984375 19.316406 1.984375 19.039062 L 1.984375 18.046875 C 1.984375 17.773438 2.207031 17.550781 2.480469 17.550781 L 6.945312 17.550781 C 7.21875 17.550781 7.441406 17.773438 7.441406 18.046875 Z M 7.441406 18.046875 "/>
<path style=" stroke:none;fill-rule:nonzero;fill:rgb(87.843138%,87.843138%,87.843138%);fill-opacity:1;" d="M 21.832031 11.101562 L 17.859375 11.101562 L 19.84375 8.621094 Z M 21.832031 11.101562 "/>
<path style=" stroke:none;fill-rule:nonzero;fill:rgb(87.843138%,87.843138%,87.843138%);fill-opacity:1;" d="M 21.832031 13.085938 L 17.859375 13.085938 L 19.84375 15.566406 Z M 21.832031 13.085938 "/>
</g>
</svg>
