<?xml version="1.0" encoding="UTF-8"?>
<svg xmlns="http://www.w3.org/2000/svg" xmlns:xlink="http://www.w3.org/1999/xlink" width="24px" height="24px" viewBox="0 0 24 24" version="1.1">
<g id="surface1">
<path style=" stroke:none;fill-rule:nonzero;fill:rgb(87.843138%,87.843138%,87.843138%);fill-opacity:1;" d="M 19.433594 13.789062 C 19.046875 13.398438 18.421875 13.398438 18.03125 13.789062 L 14.269531 17.550781 C 14.230469 17.574219 14.191406 17.601562 14.160156 17.632812 L 16.289062 19.765625 C 16.324219 19.730469 16.351562 19.695312 16.375 19.65625 L 20.136719 15.894531 C 20.523438 15.503906 20.523438 14.878906 20.136719 14.492188 Z M 13.457031 18.335938 L 13.105469 18.6875 C 13.0625 18.734375 13.023438 18.789062 12.996094 18.847656 L 11.945312 21.304688 C 11.761719 21.730469 12.195312 22.164062 12.621094 21.980469 L 15.078125 20.925781 C 15.136719 20.902344 15.191406 20.863281 15.238281 20.816406 L 15.589844 20.46875 Z M 13.457031 18.335938 "/>
<path style=" stroke:none;fill-rule:nonzero;fill:rgb(87.843138%,87.843138%,87.843138%);fill-opacity:1;" d="M 5.953125 2.175781 C 4.855469 2.175781 3.96875 3.0625 3.96875 4.160156 L 3.96875 20.039062 C 3.96875 21.136719 4.855469 22.023438 5.953125 22.023438 L 9.921875 22.023438 L 9.921875 20.039062 L 6.945312 20.039062 C 6.394531 20.039062 5.953125 19.59375 5.953125 19.046875 L 5.953125 5.152344 C 5.953125 4.605469 6.394531 4.160156 6.945312 4.160156 L 10.914062 4.160156 L 10.914062 4.15625 L 14.476562 4.15625 L 17.867188 7.546875 L 17.867188 11.105469 L 17.859375 11.105469 L 17.859375 11.597656 L 19.84375 11.597656 L 19.84375 11.105469 L 19.839844 11.105469 L 19.839844 7.136719 C 19.839844 6.875 19.738281 6.625 19.550781 6.441406 L 15.582031 2.472656 C 15.398438 2.285156 15.144531 2.179688 14.882812 2.179688 L 10.914062 2.179688 L 10.914062 2.175781 Z M 5.953125 2.175781 "/>
</g>
</svg>
