<?xml version="1.0" encoding="UTF-8"?>
<svg xmlns="http://www.w3.org/2000/svg" xmlns:xlink="http://www.w3.org/1999/xlink" width="24pt" height="24pt" viewBox="0 0 24 24" version="1.1">
<g id="surface1">
<path style=" stroke:none;fill-rule:nonzero;fill:rgb(47.058824%,56.470591%,61.176473%);fill-opacity:1;" d="M 6.699219 1.179688 C 6.285156 1.179688 5.953125 1.511719 5.953125 1.925781 L 5.953125 4.40625 C 5.953125 4.816406 6.285156 5.148438 6.699219 5.148438 L 9.921875 5.148438 L 9.921875 17.304688 C 9.921875 17.714844 10.253906 18.046875 10.667969 18.046875 L 13.148438 18.046875 C 13.558594 18.046875 13.890625 17.714844 13.890625 17.304688 L 13.890625 5.148438 L 17.117188 5.148438 C 17.527344 5.148438 17.859375 4.816406 17.859375 4.40625 L 17.859375 1.925781 C 17.859375 1.511719 17.527344 1.179688 17.117188 1.179688 Z M 6.699219 1.179688 "/>
<path style=" stroke:none;fill-rule:nonzero;fill:rgb(74.117649%,74.117649%,74.117649%);fill-opacity:1;" d="M 3.722656 1.179688 C 3.308594 1.179688 2.976562 1.511719 2.976562 1.925781 L 2.976562 19.535156 L 1.738281 19.535156 C 1.324219 19.535156 0.992188 19.867188 0.992188 20.28125 C 0.992188 20.695312 1.324219 21.027344 1.738281 21.027344 L 2.976562 21.027344 L 2.976562 22.265625 C 2.976562 22.679688 3.308594 23.011719 3.722656 23.011719 C 4.132812 23.011719 4.464844 22.679688 4.464844 22.265625 L 4.464844 21.027344 L 19.347656 21.027344 L 19.347656 22.265625 C 19.347656 22.679688 19.679688 23.011719 20.09375 23.011719 C 20.507812 23.011719 20.839844 22.679688 20.839844 22.265625 L 20.839844 21.027344 L 22.078125 21.027344 C 22.492188 21.027344 22.824219 20.695312 22.824219 20.28125 C 22.824219 19.867188 22.492188 19.535156 22.078125 19.535156 L 20.839844 19.535156 L 20.839844 1.925781 C 20.839844 1.511719 20.507812 1.179688 20.09375 1.179688 C 19.679688 1.179688 19.347656 1.511719 19.347656 1.925781 L 19.347656 19.535156 L 4.464844 19.535156 L 4.464844 1.925781 C 4.464844 1.511719 4.132812 1.179688 3.722656 1.179688 Z M 3.722656 1.179688 "/>
</g>
</svg>
