<svg height="24" viewBox="0 0 24 24" width="24" xmlns="http://www.w3.org/2000/svg"><g fill="#e0e0e0"><path d="m4.964844 2.179688c-.542969 0-.984375.445312-.984375.988281v8.929687c0 .546875.441406.988282.984375.988282h6.945312c.546875 0 .988282-.441407.988282-.988282v-6.945312c0-.261719-.101563-.511719-.289063-.695313l-1.984375-1.984375c-.183594-.1875-.433594-.292968-.699219-.292968zm.988281 1.976562h3.566406l1.40625 1.40625v5.550781h-4.972656zm0 0"/><path d="m14.882812 2.175781v2.386719l2.984376 2.980469v3.558593h-.007813v7.9375c0 .550782-.441406.992188-.992187.992188h-9.921876c-.550781 0-.992187-.441406-.992187-.992188v-3.96875h-1.984375v4.960938c0 1.101562.886719 1.988281 1.984375 1.988281h11.90625c1.101563 0 1.984375-.886719 1.984375-1.988281v-8.929688h-.003906v-3.96875c0-.261718-.101563-.511718-.289063-.699218l-3.96875-3.96875c-.183593-.183594-.4375-.289063-.699219-.289063zm0 0"/></g></svg>