<?xml version="1.0" encoding="UTF-8"?>
<svg xmlns="http://www.w3.org/2000/svg" xmlns:xlink="http://www.w3.org/1999/xlink" width="24pt" height="24pt" viewBox="0 0 24 24" version="1.1">
<g id="surface1">
<path style=" stroke:none;fill-rule:nonzero;fill:rgb(74.117649%,74.117649%,74.117649%);fill-opacity:1;" d="M 11.90625 1.179688 C 10.234375 1.179688 8.65625 1.46875 7.277344 1.976562 C 7.203125 2.003906 7.132812 2.027344 7.066406 2.054688 C 5.667969 2.601562 4.484375 3.375 3.609375 4.304688 C 3.566406 4.351562 3.523438 4.398438 3.480469 4.449219 C 2.53125 5.511719 1.984375 6.773438 1.984375 8.125 L 1.984375 12.09375 C 1.984375 17.550781 10.914062 23.011719 11.90625 23.011719 C 12.898438 23.011719 21.832031 17.550781 21.832031 12.09375 L 21.832031 8.125 C 21.832031 5.511719 19.785156 3.242188 16.75 2.054688 C 16.679688 2.027344 16.609375 2.003906 16.539062 1.976562 C 16.042969 1.792969 15.523438 1.640625 14.980469 1.515625 C 14.015625 1.296875 12.980469 1.179688 11.90625 1.179688 Z M 11.828125 3.164062 L 11.988281 3.164062 C 12.226562 3.164062 12.460938 3.171875 12.691406 3.183594 C 12.757812 3.1875 12.824219 3.191406 12.890625 3.195312 C 13.882812 3.269531 14.8125 3.453125 15.65625 3.734375 C 15.710938 3.75 15.765625 3.769531 15.820312 3.789062 C 18.226562 4.636719 19.84375 6.257812 19.84375 8.125 L 19.84375 12.09375 C 19.84375 16.0625 12.898438 20.777344 11.90625 20.777344 C 10.914062 20.777344 3.96875 16.0625 3.96875 12.09375 L 3.96875 8.125 C 3.96875 8.105469 3.96875 8.082031 3.96875 8.0625 C 4.007812 6.21875 5.617188 4.628906 7.992188 3.789062 C 8.046875 3.769531 8.105469 3.75 8.160156 3.734375 C 8.441406 3.640625 8.730469 3.558594 9.03125 3.484375 C 9.058594 3.476562 9.089844 3.472656 9.121094 3.464844 C 9.691406 3.332031 10.296875 3.242188 10.921875 3.195312 C 10.988281 3.191406 11.054688 3.1875 11.121094 3.183594 C 11.355469 3.171875 11.589844 3.164062 11.828125 3.164062 Z M 11.828125 3.164062 "/>
<path style=" stroke:none;fill-rule:nonzero;fill:rgb(74.117649%,74.117649%,74.117649%);fill-opacity:1;" d="M 11.90625 5.148438 L 13.894531 8.453125 L 17.65625 9.324219 L 15.125 12.238281 L 15.460938 16.082031 L 11.90625 14.574219 L 8.355469 16.082031 L 8.6875 12.238281 L 6.160156 9.324219 L 9.917969 8.453125 Z M 11.90625 5.148438 "/>
</g>
</svg>
