<svg xmlns="http://www.w3.org/2000/svg" width="32" height="32" viewBox="0 0 24 24"><path d="M12.898 9.117v11.91h1.985v-.398a4.997 4.997 0 0 0 1.984.398c1.977 0 3.602-1.07 3.918-2.484h.055v-.496c0-1.649-1.774-2.977-3.973-2.977-.722 0-1.398.145-1.984.399V9.117zm3.97 7.938c1.1 0 1.984.445 1.984.992 0 .55-.883.992-1.985.992-1.097 0-1.984-.441-1.984-.992 0-.547.887-.992 1.984-.992zm0 0M6.945 11.102c-1.324 0-2.492.484-3.21 1.226l1.87 1.02c.352-.16.82-.262 1.34-.262 1.102 0 1.985.445 1.985.992v1.39a4.97 4.97 0 0 0-1.985-.398c-2.199 0-3.968 1.328-3.968 2.977v.496h.054c.313 1.414 1.942 2.484 3.914 2.484a4.97 4.97 0 0 0 1.985-.398v.398h1.984v-6.949c0-1.648-1.77-2.976-3.969-2.976zm0 5.953c1.102 0 1.985.445 1.985.992 0 .55-.883.992-1.985.992-1.097 0-1.984-.441-1.984-.992 0-.547.887-.992 1.984-.992zm0 0" fill="#78909c"/><path d="M13.89 4.145l2.977 2.976 2.977-2.976M16.867 6.625v-4.7" fill="none" stroke-width="1.4978159999999998" stroke-linecap="round" stroke-linejoin="round" stroke="#26a69a"/></svg>