<svg height="24" viewBox="0 0 24 24" width="24" xmlns="http://www.w3.org/2000/svg"><g fill="#e0e0e0"><path d="m4.960938 11.101562h8.929687c.550781 0 .992187.445313.992187.992188 0 .550781-.441406.992188-.992187.992188h-8.929687c-.546876 0-.992188-.441407-.992188-.992188 0-.546875.445312-.992188.992188-.992188zm0 0"/><path d="m6.171875 18.410156 7.019531-7.015625c.386719-.386719 1.015625-.386719 1.402344 0s.386719 1.015625 0 1.402344l-7.015625 7.015625c-.386719.386719-1.015625.386719-1.40625 0-.386719-.386719-.386719-1.015625 0-1.402344zm0 0"/><path d="m7.578125 4.375 7.015625 7.019531c.386719.386719.386719 1.015625 0 1.402344s-1.015625.386719-1.402344 0l-7.019531-7.015625c-.386719-.390625-.386719-1.015625 0-1.40625.390625-.386719 1.019531-.386719 1.40625 0zm0 0"/><path d="m17.859375 10.109375c1.097656 0 1.984375.890625 1.984375 1.984375 0 1.097656-.886719 1.984375-1.984375 1.984375-1.09375 0-1.984375-.886719-1.984375-1.984375 0-1.09375.890625-1.984375 1.984375-1.984375zm0 0"/></g></svg>