<svg xmlns="http://www.w3.org/2000/svg" width="32" height="32" viewBox="0 0 24 24"><path d="M11.398 1.918a.753.753 0 0 0-.726.637L8.71 15.485 6.18 6.433a.754.754 0 0 0-.727-.547.756.756 0 0 0-.719.554l-1.336 4.907H1.984a.744.744 0 0 0-.66.37.763.763 0 0 0 0 .755c.137.234.39.375.66.37H3.97c.34 0 .633-.226.722-.55l.778-2.844 2.742 9.793a.75.75 0 0 0 .766.547.756.756 0 0 0 .695-.637l1.82-12.023 2.656 14.035a.75.75 0 1 0 1.473 0l2.39-12.758 1.114 3.895c.094.32.387.543.719.543h1.988c.27.004.52-.137.656-.371a.744.744 0 0 0 0-.754.738.738 0 0 0-.656-.371H20.41L18.582 4.94a.752.752 0 0 0-.754-.539.745.745 0 0 0-.703.61L14.883 16.98 12.148 2.527a.758.758 0 0 0-.75-.609zm0 0" fill="#bdbdbd"/><path d="M1.984 11.352h20.094a.745.745 0 1 1 0 1.488H1.984a.743.743 0 0 1-.742-.746c0-.41.332-.742.742-.742zm0 0" fill="#42a5f5"/></svg>