<svg xmlns="http://www.w3.org/2000/svg" width="32" height="32" viewBox="0 0 24 24"><path d="M2.977 3.164A1.982 1.982 0 0 0 .992 5.148v14.387c0 1.102.887 1.988 1.985 1.988h11.41v-1.492H3.473a.989.989 0 0 1-.993-.992V5.801l8.856 7.926c.324.289.816.289 1.144 0L21.336 5.8v7.285h1.488V5.148a1.982 1.982 0 0 0-1.984-1.984zm.789 1.488H20.05l-8.145 7.285zm0 0" fill="#bdbdbd"/><path d="M16.281 14.121a.7.7 0 0 0-.515.195.689.689 0 0 0-.22.504v5.957c0 .25.138.485.36.61a.704.704 0 0 0 .707-.008l4.961-2.977a.705.705 0 0 0 0-1.207l-4.96-2.976a.713.713 0 0 0-.333-.098zm.672 1.941l2.89 1.739-2.89 1.734zm0 0" fill="#26c6da"/></svg>