<svg height="24" viewBox="0 0 24 24" width="24" xmlns="http://www.w3.org/2000/svg"><g fill="#e0e0e0"><path d="m5.953125 20.03125v-4.960938l-3.96875 2.480469zm0 0"/><path d="m11.410156 16.558594h-1.734375c-.277343 0-.496093.222656-.496093.496094v.992187c0 .277344.21875.496094.496093.496094h1.734375c.273438 0 .496094-.21875.496094-.496094v-.992187c0-.273438-.222656-.496094-.496094-.496094zm0 0"/><path d="m9.921875 20.03125v-4.960938l-3.96875 2.480469zm0 0"/><path d="m3.96875 4.15625h15.875c1.101562 0 1.988281.886719 1.988281 1.984375v11.90625c0 1.101563-.886719 1.984375-1.988281 1.984375h-5.953125v-1.984375h4.960937c.550782 0 .992188-.441406.992188-.992187v-9.703126l-7.28125 6.472657c-.375.332031-.9375.332031-1.3125 0l-7.28125-6.472657v5.734376h-1.984375v-6.945313c0-1.097656.886719-1.984375 1.984375-1.984375zm14.265625 1.984375h-12.65625l6.328125 5.625zm0 0"/></g></svg>