<?xml version="1.0" encoding="UTF-8"?>
<svg xmlns="http://www.w3.org/2000/svg" xmlns:xlink="http://www.w3.org/1999/xlink" width="24px" height="24px" viewBox="0 0 24 24" version="1.1">
<g id="surface1">
<path style=" stroke:none;fill-rule:nonzero;fill:rgb(87.843138%,87.843138%,87.843138%);fill-opacity:1;" d="M 18.355469 16.558594 L 18.355469 18.542969 L 14.351562 18.542969 C 14.078125 18.542969 13.855469 18.324219 13.855469 18.046875 L 13.855469 17.054688 C 13.855469 16.78125 14.078125 16.558594 14.351562 16.558594 Z M 18.355469 16.558594 "/>
<path style=" stroke:none;fill-rule:nonzero;fill:rgb(87.843138%,87.843138%,87.843138%);fill-opacity:1;" d="M 17.859375 20.03125 L 17.859375 15.070312 L 21.832031 17.550781 Z M 17.859375 20.03125 "/>
<path style=" stroke:none;fill-rule:nonzero;fill:rgb(87.843138%,87.843138%,87.843138%);fill-opacity:1;" d="M 5.457031 16.558594 L 5.457031 18.542969 L 9.464844 18.542969 C 9.738281 18.542969 9.960938 18.324219 9.960938 18.046875 L 9.960938 17.054688 C 9.960938 16.78125 9.738281 16.558594 9.464844 16.558594 Z M 5.457031 16.558594 "/>
<path style=" stroke:none;fill-rule:nonzero;fill:rgb(87.843138%,87.843138%,87.843138%);fill-opacity:1;" d="M 5.953125 20.03125 L 5.953125 15.070312 L 1.984375 17.550781 Z M 5.953125 20.03125 "/>
<path style=" stroke:none;fill-rule:nonzero;fill:rgb(87.843138%,87.843138%,87.843138%);fill-opacity:1;" d="M 3.96875 4.15625 C 2.871094 4.15625 1.984375 5.042969 1.984375 6.140625 L 1.984375 13.085938 L 3.96875 13.085938 L 3.96875 7.351562 L 11.25 13.824219 C 11.625 14.15625 12.1875 14.15625 12.5625 13.824219 L 19.84375 7.351562 L 19.84375 13.085938 L 21.832031 13.085938 L 21.832031 6.140625 C 21.832031 5.042969 20.945312 4.15625 19.84375 4.15625 Z M 5.578125 6.140625 L 18.234375 6.140625 L 11.90625 11.765625 Z M 5.578125 6.140625 "/>
</g>
</svg>
