<?xml version="1.0" encoding="UTF-8"?>
<svg xmlns="http://www.w3.org/2000/svg" xmlns:xlink="http://www.w3.org/1999/xlink" width="24px" height="24px" viewBox="0 0 24 24" version="1.1">
<g id="surface1">
<path style=" stroke:none;fill-rule:nonzero;fill:rgb(87.843138%,87.843138%,87.843138%);fill-opacity:1;" d="M 3.96875 2.171875 C 2.871094 2.171875 1.984375 3.058594 1.984375 4.15625 L 1.984375 20.03125 C 1.984375 21.132812 2.871094 22.019531 3.96875 22.019531 L 19.84375 22.019531 C 20.945312 22.019531 21.832031 21.132812 21.832031 20.03125 L 21.832031 4.15625 C 21.832031 3.058594 20.945312 2.171875 19.84375 2.171875 Z M 4.960938 4.15625 L 18.851562 4.15625 C 19.402344 4.15625 19.84375 4.597656 19.84375 5.148438 L 19.84375 19.039062 C 19.84375 19.589844 19.402344 20.03125 18.851562 20.03125 L 4.960938 20.03125 C 4.410156 20.03125 3.96875 19.589844 3.96875 19.039062 L 3.96875 5.148438 C 3.96875 4.597656 4.410156 4.15625 4.960938 4.15625 Z M 4.960938 4.15625 "/>
<path style=" stroke:none;fill-rule:nonzero;fill:rgb(87.843138%,87.843138%,87.843138%);fill-opacity:1;" d="M 6.203125 6.140625 L 11.660156 6.140625 C 11.796875 6.140625 11.90625 6.253906 11.90625 6.390625 L 11.90625 6.886719 C 11.90625 7.023438 11.796875 7.132812 11.660156 7.132812 L 6.203125 7.132812 C 6.066406 7.132812 5.953125 7.023438 5.953125 6.886719 L 5.953125 6.390625 C 5.953125 6.253906 6.066406 6.140625 6.203125 6.140625 Z M 6.203125 6.140625 "/>
<path style=" stroke:none;fill-rule:nonzero;fill:rgb(87.843138%,87.843138%,87.843138%);fill-opacity:1;" d="M 6.203125 9.117188 L 11.660156 9.117188 C 11.796875 9.117188 11.90625 9.230469 11.90625 9.367188 L 11.90625 9.863281 C 11.90625 10 11.796875 10.109375 11.660156 10.109375 L 6.203125 10.109375 C 6.066406 10.109375 5.953125 10 5.953125 9.863281 L 5.953125 9.367188 C 5.953125 9.230469 6.066406 9.117188 6.203125 9.117188 Z M 6.203125 9.117188 "/>
<path style=" stroke:none;fill-rule:nonzero;fill:rgb(87.843138%,87.843138%,87.843138%);fill-opacity:1;" d="M 6.203125 12.09375 L 11.660156 12.09375 C 11.796875 12.09375 11.90625 12.207031 11.90625 12.34375 L 11.90625 12.839844 C 11.90625 12.976562 11.796875 13.085938 11.660156 13.085938 L 6.203125 13.085938 C 6.066406 13.085938 5.953125 12.976562 5.953125 12.839844 L 5.953125 12.34375 C 5.953125 12.207031 6.066406 12.09375 6.203125 12.09375 Z M 6.203125 12.09375 "/>
<path style=" stroke:none;fill-rule:nonzero;fill:rgb(87.843138%,87.843138%,87.843138%);fill-opacity:1;" d="M 6.203125 15.070312 L 17.613281 15.070312 C 17.75 15.070312 17.859375 15.183594 17.859375 15.320312 L 17.859375 15.816406 C 17.859375 15.953125 17.75 16.0625 17.613281 16.0625 L 6.203125 16.0625 C 6.066406 16.0625 5.953125 15.953125 5.953125 15.816406 L 5.953125 15.320312 C 5.953125 15.183594 6.066406 15.070312 6.203125 15.070312 Z M 6.203125 15.070312 "/>
<path style=" stroke:none;fill-rule:nonzero;fill:rgb(87.843138%,87.843138%,87.843138%);fill-opacity:1;" d="M 13.644531 6.140625 C 13.507812 6.140625 13.394531 6.25 13.394531 6.390625 L 13.394531 12.839844 C 13.394531 12.976562 13.507812 13.085938 13.644531 13.085938 L 18.109375 13.085938 C 18.246094 13.085938 18.355469 12.976562 18.355469 12.839844 L 18.355469 6.390625 C 18.355469 6.25 18.246094 6.140625 18.109375 6.140625 Z M 14.511719 7.132812 L 17.242188 7.132812 C 17.308594 7.132812 17.363281 7.1875 17.363281 7.257812 L 17.363281 11.972656 C 17.363281 12.039062 17.308594 12.09375 17.242188 12.09375 L 14.511719 12.09375 C 14.445312 12.09375 14.386719 12.039062 14.386719 11.972656 L 14.386719 7.257812 C 14.386719 7.1875 14.445312 7.132812 14.511719 7.132812 Z M 14.511719 7.132812 "/>
</g>
</svg>
