<svg xmlns="http://www.w3.org/2000/svg" width="24" height="24"><path d="M16.867 4.156v1.489H7.441V4.156zm0 0" fill="#bdbdbd"/><path d="M17.363 1.18c-.824 0-1.488.664-1.488 1.488v3.969c0 .824.664 1.488 1.488 1.488h3.973c.824 0 1.488-.664 1.488-1.488V2.668c0-.824-.664-1.488-1.488-1.488zm.496 1.488h2.98c.274 0 .497.223.497.496v2.977a.494.494 0 0 1-.496.496h-2.98a.494.494 0 0 1-.497-.496V3.164c0-.273.223-.496.496-.496zm0 0" fill="#26a69a"/><path d="M3.723 7.629H5.21v9.426H3.723zm0 0" fill="#bdbdbd"/><path d="M2.48 16.063c-.824 0-1.488.664-1.488 1.488v3.972c0 .825.664 1.489 1.488 1.489h3.97c.823 0 1.487-.664 1.487-1.489v-3.972c0-.824-.664-1.488-1.488-1.488zm.497 1.488h2.976c.277 0 .496.222.496.496v2.98a.494.494 0 0 1-.496.496H2.977a.497.497 0 0 1-.497-.496v-2.98c0-.274.223-.496.497-.496zm0 0" fill="#26a69a"/><path d="M8.93 9.117a.76.76 0 0 0-.196.817l4.211 11.226c.239.633 1.121.652 1.39.031l1.985-4.636 4.637-1.985c.621-.27.602-1.152-.031-1.39L9.699 8.969a.758.758 0 0 0-.77.148zm0 0" fill="#bdbdbd"/><path d="M4.465 1.18A3.468 3.468 0 0 0 .992 4.652a3.465 3.465 0 0 0 3.473 3.473 3.463 3.463 0 0 0 3.473-3.473A3.465 3.465 0 0 0 4.465 1.18zm0 1.488a1.98 1.98 0 0 1 1.984 1.984 1.977 1.977 0 0 1-1.984 1.985A1.98 1.98 0 0 1 2.48 4.652c0-1.097.887-1.984 1.985-1.984zm0 0" fill="#26a69a"/></svg>