
<svg xmlns="http://www.w3.org/2000/svg" xmlns:xlink="http://www.w3.org/1999/xlink" width="128px" height="128px" viewBox="0 0 128 128" version="1.1">
<defs>
<radialGradient id="radial0" gradientUnits="userSpaceOnUse" cx="450.908936" cy="189.579361" fx="450.908936" fy="189.579361" r="21.166656" gradientTransform="matrix(0.000000696682,-0.31253,-0.562554,-0.000000406155,139.991531,254.381332)">
<stop offset="0" style="stop-color:rgb(0%,0%,0%);stop-opacity:0.313725;"/>
<stop offset="0.222222" style="stop-color:rgb(0%,0%,0%);stop-opacity:0.27451;"/>
<stop offset="1" style="stop-color:rgb(0%,0%,0%);stop-opacity:0;"/>
</radialGradient>
<radialGradient id="radial1" gradientUnits="userSpaceOnUse" cx="450.908936" cy="189.579361" fx="450.908936" fy="189.579361" r="21.166656" gradientTransform="matrix(-0.000000696682,0.31253,0.562554,0.000000406155,-70.658966,-30.109915)">
<stop offset="0" style="stop-color:rgb(0%,0%,0%);stop-opacity:0.313725;"/>
<stop offset="0.222222" style="stop-color:rgb(0%,0%,0%);stop-opacity:0.27451;"/>
<stop offset="1" style="stop-color:rgb(0%,0%,0%);stop-opacity:0;"/>
</radialGradient>
<radialGradient id="radial2" gradientUnits="userSpaceOnUse" cx="450.908936" cy="189.579361" fx="450.908936" fy="189.579361" r="21.166656" gradientTransform="matrix(-0.000000696682,-0.31253,0.562554,-0.000000406155,-70.658966,254.381332)">
<stop offset="0" style="stop-color:rgb(0%,0%,0%);stop-opacity:0.313725;"/>
<stop offset="0.222222" style="stop-color:rgb(0%,0%,0%);stop-opacity:0.27451;"/>
<stop offset="1" style="stop-color:rgb(0%,0%,0%);stop-opacity:0;"/>
</radialGradient>
<radialGradient id="radial3" gradientUnits="userSpaceOnUse" cx="450.908936" cy="189.579361" fx="450.908936" fy="189.579361" r="21.166656" gradientTransform="matrix(0.000000696682,0.31253,-0.562554,0.000000406155,139.991516,-30.109917)">
<stop offset="0" style="stop-color:rgb(0%,0%,0%);stop-opacity:0.313725;"/>
<stop offset="0.222222" style="stop-color:rgb(0%,0%,0%);stop-opacity:0.27451;"/>
<stop offset="1" style="stop-color:rgb(0%,0%,0%);stop-opacity:0;"/>
</radialGradient>
<linearGradient id="linear0" gradientUnits="userSpaceOnUse" x1="960" y1="815.118103" x2="960" y2="175.118118" gradientTransform="matrix(0.0661523,0,0,0.0661523,-29.086271,58.213951)">
<stop offset="0" style="stop-color:rgb(69.019608%,74.509804%,77.254902%);stop-opacity:1;"/>
<stop offset="1" style="stop-color:rgb(81.176471%,84.705882%,86.27451%);stop-opacity:1;"/>
</linearGradient>
<radialGradient id="radial4" gradientUnits="userSpaceOnUse" cx="450.908936" cy="189.579361" fx="450.908936" fy="189.579361" r="21.166656" gradientTransform="matrix(0.000000696682,-0.31253,-0.562554,-0.000000406155,200.600098,254.381317)">
<stop offset="0" style="stop-color:rgb(0%,0%,0%);stop-opacity:0.313725;"/>
<stop offset="0.222222" style="stop-color:rgb(0%,0%,0%);stop-opacity:0.27451;"/>
<stop offset="1" style="stop-color:rgb(0%,0%,0%);stop-opacity:0;"/>
</radialGradient>
<radialGradient id="radial5" gradientUnits="userSpaceOnUse" cx="450.908936" cy="189.579361" fx="450.908936" fy="189.579361" r="21.166656" gradientTransform="matrix(-0.000000696682,0.31253,0.562554,0.000000406155,-10.050398,-30.109922)">
<stop offset="0" style="stop-color:rgb(0%,0%,0%);stop-opacity:0.313725;"/>
<stop offset="0.222222" style="stop-color:rgb(0%,0%,0%);stop-opacity:0.27451;"/>
<stop offset="1" style="stop-color:rgb(0%,0%,0%);stop-opacity:0;"/>
</radialGradient>
<radialGradient id="radial6" gradientUnits="userSpaceOnUse" cx="450.908936" cy="189.579361" fx="450.908936" fy="189.579361" r="21.166656" gradientTransform="matrix(-0.000000696682,-0.31253,0.562554,-0.000000406155,-10.050398,254.381317)">
<stop offset="0" style="stop-color:rgb(0%,0%,0%);stop-opacity:0.313725;"/>
<stop offset="0.222222" style="stop-color:rgb(0%,0%,0%);stop-opacity:0.27451;"/>
<stop offset="1" style="stop-color:rgb(0%,0%,0%);stop-opacity:0;"/>
</radialGradient>
<radialGradient id="radial7" gradientUnits="userSpaceOnUse" cx="450.908936" cy="189.579361" fx="450.908936" fy="189.579361" r="21.166656" gradientTransform="matrix(0.000000696682,0.31253,-0.562554,0.000000406155,200.600082,-30.109924)">
<stop offset="0" style="stop-color:rgb(0%,0%,0%);stop-opacity:0.313725;"/>
<stop offset="0.222222" style="stop-color:rgb(0%,0%,0%);stop-opacity:0.27451;"/>
<stop offset="1" style="stop-color:rgb(0%,0%,0%);stop-opacity:0;"/>
</radialGradient>
<linearGradient id="linear1" gradientUnits="userSpaceOnUse" x1="960" y1="815.118103" x2="960" y2="175.118118" gradientTransform="matrix(0.0661523,0,0,0.0661523,31.753033,0.661583)">
<stop offset="0" style="stop-color:rgb(69.019608%,74.509804%,77.254902%);stop-opacity:1;"/>
<stop offset="1" style="stop-color:rgb(81.176471%,84.705882%,86.27451%);stop-opacity:1;"/>
</linearGradient>
<linearGradient id="linear2" gradientUnits="userSpaceOnUse" x1="1240" y1="1695.118164" x2="1240" y2="1135.118164" gradientTransform="matrix(0.063898,0.0171214,-0.0171214,0.063898,42.834881,-18.04071)">
<stop offset="0" style="stop-color:rgb(39.215686%,70.980392%,96.470588%);stop-opacity:1;"/>
<stop offset="1" style="stop-color:rgb(56.470588%,79.215686%,97.647059%);stop-opacity:1;"/>
</linearGradient>
<linearGradient id="linear3" gradientUnits="userSpaceOnUse" x1="1240" y1="1695.118164" x2="1240" y2="1135.118164" gradientTransform="matrix(0.063898,0.0171214,-0.0171214,0.063898,-20.602394,-76.000381)">
<stop offset="0" style="stop-color:rgb(39.215686%,70.980392%,96.470588%);stop-opacity:1;"/>
<stop offset="1" style="stop-color:rgb(56.470588%,79.215686%,97.647059%);stop-opacity:1;"/>
</linearGradient>
</defs>
<g id="surface1">
<path style=" stroke:none;fill-rule:nonzero;fill:url(#radial0);" d="M 34.664062 112.136719 L 45.25 112.136719 L 45.25 106.84375 L 34.664062 106.84375 Z M 34.664062 112.136719 "/>
<path style=" stroke:none;fill-rule:nonzero;fill:url(#radial1);" d="M 34.664062 112.136719 L 24.082031 112.136719 L 24.082031 117.429688 L 34.664062 117.429688 Z M 34.664062 112.136719 "/>
<path style=" stroke:none;fill-rule:nonzero;fill:url(#radial2);" d="M 34.664062 112.136719 L 24.082031 112.136719 L 24.082031 106.84375 L 34.664062 106.84375 Z M 34.664062 112.136719 "/>
<path style=" stroke:none;fill-rule:nonzero;fill:url(#radial3);" d="M 34.664062 112.136719 L 45.25 112.136719 L 45.25 117.429688 L 34.664062 117.429688 Z M 34.664062 112.136719 "/>
<path style=" stroke:none;fill-rule:nonzero;fill:url(#linear0);" d="M 34.359375 69.796875 C 32.925781 69.796875 31.773438 70.976562 31.773438 72.445312 L 31.710938 72.445312 C 30.28125 72.445312 29.128906 73.625 29.128906 75.089844 C 29.128906 76.554688 30.28125 77.734375 31.710938 77.734375 L 31.773438 77.734375 L 31.773438 84.578125 L 26.9375 79.742188 L 26.980469 79.695312 C 27.992188 78.683594 27.972656 77.035156 26.9375 76 C 25.898438 74.960938 24.25 74.941406 23.238281 75.953125 L 23.195312 76 C 22.15625 74.960938 20.507812 74.941406 19.496094 75.953125 L 19.40625 76.042969 C 18.394531 77.054688 18.414062 78.703125 19.453125 79.742188 L 19.40625 79.785156 C 18.394531 80.796875 18.414062 82.445312 19.453125 83.484375 C 20.488281 84.519531 22.136719 84.539062 23.148438 83.527344 L 23.195312 83.484375 L 28.03125 88.320312 L 21.1875 88.320312 L 21.1875 88.257812 C 21.1875 86.828125 20.007812 85.675781 18.542969 85.675781 C 17.078125 85.675781 15.898438 86.828125 15.898438 88.257812 L 15.898438 88.320312 C 14.429688 88.320312 13.25 89.472656 13.25 90.90625 L 13.25 91.03125 C 13.25 92.460938 14.429688 93.613281 15.898438 93.613281 L 15.898438 93.675781 C 15.898438 95.109375 17.078125 96.257812 18.542969 96.257812 C 20.007812 96.257812 21.1875 95.109375 21.1875 93.675781 L 21.1875 93.613281 L 28.03125 93.613281 L 23.195312 98.453125 L 23.148438 98.40625 C 22.136719 97.394531 20.488281 97.414062 19.453125 98.453125 C 18.414062 99.488281 18.394531 101.136719 19.40625 102.148438 L 19.453125 102.195312 C 18.414062 103.230469 18.394531 104.878906 19.40625 105.890625 L 19.496094 105.980469 C 20.507812 106.992188 22.15625 106.972656 23.195312 105.9375 L 23.238281 105.980469 C 24.25 106.992188 25.898438 106.972656 26.9375 105.9375 C 27.972656 104.898438 27.992188 103.25 26.980469 102.238281 L 26.9375 102.195312 L 31.773438 97.355469 L 31.773438 104.195312 L 31.710938 104.195312 C 30.28125 104.195312 29.128906 105.378906 29.128906 106.84375 C 29.128906 108.308594 30.28125 109.488281 31.710938 109.488281 L 31.773438 109.488281 L 31.773438 109.492188 C 31.773438 110.957031 32.925781 112.136719 34.359375 112.136719 L 34.484375 112.136719 C 35.914062 112.136719 37.066406 110.957031 37.066406 109.492188 L 37.066406 109.488281 L 37.128906 109.488281 C 38.558594 109.488281 39.710938 108.308594 39.710938 106.84375 C 39.710938 105.378906 38.558594 104.195312 37.128906 104.195312 L 37.066406 104.195312 L 37.066406 97.355469 L 41.90625 102.195312 L 41.859375 102.238281 C 40.847656 103.25 40.867188 104.898438 41.90625 105.9375 C 42.941406 106.972656 44.589844 106.992188 45.601562 105.980469 L 45.648438 105.9375 C 46.683594 106.972656 48.332031 106.992188 49.34375 105.980469 L 49.433594 105.890625 C 50.445312 104.878906 50.425781 103.230469 49.390625 102.195312 L 49.433594 102.148438 C 50.445312 101.136719 50.425781 99.488281 49.390625 98.453125 C 48.351562 97.414062 46.703125 97.394531 45.691406 98.40625 L 45.648438 98.453125 L 40.808594 93.613281 L 47.648438 93.613281 L 47.648438 93.675781 C 47.648438 95.109375 48.828125 96.257812 50.296875 96.257812 C 51.761719 96.257812 52.941406 95.109375 52.941406 93.675781 L 52.941406 93.613281 C 54.40625 93.613281 55.589844 92.460938 55.589844 91.03125 L 55.589844 90.90625 C 55.589844 89.472656 54.40625 88.320312 52.941406 88.320312 L 52.941406 88.257812 C 52.941406 86.828125 51.761719 85.675781 50.296875 85.675781 C 48.828125 85.675781 47.648438 86.828125 47.648438 88.257812 L 47.648438 88.320312 L 40.808594 88.320312 L 45.648438 83.484375 L 45.691406 83.527344 C 46.703125 84.539062 48.351562 84.519531 49.390625 83.484375 C 50.425781 82.445312 50.445312 80.796875 49.433594 79.785156 L 49.390625 79.742188 C 50.425781 78.703125 50.445312 77.054688 49.433594 76.042969 L 49.34375 75.953125 C 48.332031 74.941406 46.683594 74.960938 45.648438 76 L 45.601562 75.953125 C 44.589844 74.941406 42.941406 74.960938 41.90625 76 C 40.867188 77.035156 40.847656 78.683594 41.859375 79.695312 L 41.90625 79.742188 L 37.066406 84.578125 L 37.066406 77.734375 L 37.128906 77.734375 C 38.558594 77.734375 39.710938 76.554688 39.710938 75.089844 C 39.710938 73.625 38.558594 72.445312 37.128906 72.445312 L 37.066406 72.445312 C 37.066406 70.976562 35.914062 69.796875 34.484375 69.796875 Z M 34.359375 69.796875 "/>
<path style=" stroke:none;fill-rule:nonzero;fill:rgb(100%,100%,100%);fill-opacity:0.392157;" d="M 34.359375 69.796875 C 32.925781 69.796875 31.773438 70.976562 31.773438 72.445312 L 31.710938 72.445312 C 30.28125 72.445312 29.128906 73.625 29.128906 75.089844 C 29.128906 75.203125 29.132812 75.3125 29.148438 75.421875 C 29.304688 74.113281 30.390625 73.105469 31.710938 73.105469 L 31.773438 73.105469 C 31.773438 71.640625 32.925781 70.460938 34.359375 70.460938 L 34.484375 70.460938 C 35.914062 70.460938 37.066406 71.640625 37.066406 73.105469 L 37.128906 73.105469 C 38.449219 73.105469 39.53125 74.113281 39.691406 75.421875 C 39.703125 75.3125 39.710938 75.203125 39.710938 75.089844 C 39.710938 73.625 38.558594 72.445312 37.128906 72.445312 L 37.066406 72.445312 C 37.066406 70.976562 35.914062 69.796875 34.484375 69.796875 Z M 25.078125 75.207031 C 24.410156 75.199219 23.742188 75.449219 23.238281 75.953125 L 23.195312 76 C 22.15625 74.960938 20.507812 74.941406 19.496094 75.953125 L 19.40625 76.042969 C 18.824219 76.625 18.585938 77.414062 18.683594 78.179688 C 18.75 77.640625 18.992188 77.117188 19.40625 76.703125 L 19.496094 76.617188 C 20.507812 75.601562 22.15625 75.625 23.195312 76.660156 L 23.238281 76.617188 C 24.25 75.601562 25.898438 75.625 26.9375 76.660156 C 27.375 77.101562 27.632812 77.652344 27.703125 78.21875 C 27.804688 77.4375 27.546875 76.609375 26.9375 76 C 26.417969 75.480469 25.746094 75.214844 25.078125 75.207031 Z M 43.761719 75.207031 C 43.09375 75.214844 42.421875 75.480469 41.90625 76 C 41.289062 76.609375 41.035156 77.4375 41.132812 78.21875 C 41.207031 77.652344 41.460938 77.101562 41.90625 76.660156 C 42.941406 75.625 44.589844 75.601562 45.601562 76.617188 L 45.648438 76.660156 C 46.683594 75.625 48.332031 75.601562 49.34375 76.617188 L 49.433594 76.703125 C 49.847656 77.117188 50.085938 77.640625 50.15625 78.179688 C 50.253906 77.414062 50.015625 76.625 49.433594 76.042969 L 49.34375 75.953125 C 48.332031 74.941406 46.683594 74.960938 45.648438 76 L 45.601562 75.953125 C 45.09375 75.449219 44.429688 75.199219 43.761719 75.207031 Z M 27.242188 80.046875 C 27.164062 80.15625 27.078125 80.261719 26.980469 80.359375 L 26.9375 80.402344 L 31.773438 85.242188 L 31.773438 84.578125 Z M 41.59375 80.046875 L 37.066406 84.578125 L 37.066406 85.242188 L 41.90625 80.402344 L 41.859375 80.359375 C 41.761719 80.261719 41.675781 80.15625 41.59375 80.046875 Z M 19.164062 80.066406 C 18.761719 80.609375 18.601562 81.273438 18.683594 81.921875 C 18.75 81.382812 18.992188 80.859375 19.40625 80.445312 L 19.453125 80.402344 C 19.34375 80.296875 19.25 80.183594 19.164062 80.066406 Z M 49.675781 80.066406 C 49.589844 80.183594 49.492188 80.296875 49.390625 80.402344 L 49.433594 80.445312 C 49.847656 80.859375 50.085938 81.382812 50.15625 81.921875 C 50.238281 81.273438 50.078125 80.609375 49.675781 80.066406 Z M 18.542969 85.675781 C 17.078125 85.675781 15.898438 86.828125 15.898438 88.257812 L 15.898438 88.320312 C 14.429688 88.320312 13.25 89.472656 13.25 90.90625 L 13.25 91.03125 C 13.25 91.121094 13.257812 91.210938 13.265625 91.296875 C 13.402344 89.992188 14.523438 88.984375 15.898438 88.984375 L 15.898438 88.921875 C 15.898438 87.488281 17.078125 86.335938 18.542969 86.335938 C 20.007812 86.335938 21.1875 87.488281 21.1875 88.921875 L 21.1875 88.984375 L 28.03125 88.984375 L 27.371094 88.320312 L 21.1875 88.320312 L 21.1875 88.257812 C 21.1875 86.828125 20.007812 85.675781 18.542969 85.675781 Z M 50.296875 85.675781 C 48.828125 85.675781 47.648438 86.828125 47.648438 88.257812 L 47.648438 88.320312 L 41.46875 88.320312 L 40.808594 88.984375 L 47.648438 88.984375 L 47.648438 88.921875 C 47.648438 87.488281 48.828125 86.335938 50.296875 86.335938 C 51.761719 86.335938 52.941406 87.488281 52.941406 88.921875 L 52.941406 88.984375 C 54.316406 88.984375 55.4375 89.992188 55.574219 91.296875 C 55.585938 91.210938 55.589844 91.121094 55.589844 91.03125 L 55.589844 90.90625 C 55.589844 89.472656 54.40625 88.320312 52.941406 88.320312 L 52.941406 88.257812 C 52.941406 86.828125 51.761719 85.675781 50.296875 85.675781 Z M 27.371094 94.273438 L 23.195312 98.453125 L 23.148438 98.40625 C 22.136719 97.394531 20.488281 97.414062 19.453125 98.453125 C 18.839844 99.0625 18.582031 99.890625 18.683594 100.671875 C 18.753906 100.105469 19.007812 99.554688 19.453125 99.113281 C 20.488281 98.078125 22.136719 98.054688 23.148438 99.070312 L 23.195312 99.113281 L 28.03125 94.273438 Z M 40.808594 94.273438 L 45.648438 99.113281 L 45.691406 99.070312 C 46.703125 98.054688 48.351562 98.078125 49.390625 99.113281 C 49.828125 99.554688 50.085938 100.105469 50.15625 100.671875 C 50.257812 99.890625 50 99.0625 49.390625 98.453125 C 48.351562 97.414062 46.703125 97.394531 45.691406 98.40625 L 45.648438 98.453125 L 41.46875 94.273438 Z M 19.164062 102.53125 C 18.761719 103.09375 18.597656 103.769531 18.683594 104.414062 C 18.753906 103.847656 19.007812 103.296875 19.453125 102.855469 L 19.40625 102.8125 C 19.320312 102.722656 19.238281 102.628906 19.164062 102.53125 Z M 49.675781 102.53125 C 49.601562 102.628906 49.523438 102.722656 49.433594 102.8125 L 49.390625 102.855469 C 49.828125 103.296875 50.085938 103.847656 50.15625 104.414062 C 50.242188 103.769531 50.078125 103.09375 49.671875 102.53125 Z M 27.242188 102.546875 L 26.9375 102.855469 L 26.980469 102.898438 C 27.394531 103.3125 27.632812 103.835938 27.703125 104.375 C 27.785156 103.738281 27.632812 103.085938 27.242188 102.546875 Z M 41.59375 102.546875 C 41.207031 103.085938 41.054688 103.738281 41.132812 104.375 C 41.203125 103.835938 41.445312 103.3125 41.859375 102.898438 L 41.90625 102.855469 Z M 31.710938 104.195312 C 30.28125 104.195312 29.128906 105.378906 29.128906 106.84375 C 29.128906 106.957031 29.132812 107.066406 29.148438 107.171875 C 29.304688 105.867188 30.390625 104.859375 31.710938 104.859375 L 31.773438 104.859375 L 31.773438 104.195312 Z M 37.066406 104.195312 L 37.066406 104.859375 L 37.128906 104.859375 C 38.449219 104.859375 39.53125 105.867188 39.691406 107.171875 C 39.703125 107.066406 39.710938 106.957031 39.710938 106.84375 C 39.710938 105.378906 38.558594 104.195312 37.128906 104.195312 Z M 37.066406 104.195312 "/>
<path style=" stroke:none;fill-rule:nonzero;fill:rgb(0%,0%,0%);fill-opacity:0.235294;" d="M 29.148438 74.757812 C 29.132812 74.867188 29.128906 74.976562 29.128906 75.089844 C 29.128906 76.554688 30.28125 77.734375 31.710938 77.734375 L 31.773438 77.734375 L 31.773438 77.074219 L 31.710938 77.074219 C 30.390625 77.074219 29.304688 76.070312 29.148438 74.757812 Z M 39.691406 74.757812 C 39.53125 76.070312 38.449219 77.074219 37.128906 77.074219 L 37.066406 77.074219 L 37.066406 77.734375 L 37.128906 77.734375 C 38.558594 77.734375 39.710938 76.554688 39.710938 75.089844 C 39.710938 74.976562 39.703125 74.867188 39.691406 74.757812 Z M 18.683594 77.519531 C 18.597656 78.164062 18.761719 78.84375 19.164062 79.402344 C 19.238281 79.304688 19.320312 79.210938 19.40625 79.125 L 19.453125 79.078125 C 19.007812 78.636719 18.753906 78.085938 18.683594 77.519531 Z M 50.15625 77.519531 C 50.085938 78.085938 49.828125 78.636719 49.390625 79.078125 L 49.433594 79.125 C 49.523438 79.210938 49.601562 79.304688 49.675781 79.402344 C 50.078125 78.84375 50.242188 78.164062 50.15625 77.519531 Z M 27.703125 77.558594 C 27.632812 78.101562 27.394531 78.621094 26.980469 79.035156 L 26.9375 79.078125 L 27.242188 79.386719 C 27.632812 78.851562 27.785156 78.195312 27.703125 77.558594 Z M 41.132812 77.558594 C 41.054688 78.195312 41.207031 78.851562 41.59375 79.386719 L 41.90625 79.078125 L 41.859375 79.035156 C 41.445312 78.621094 41.203125 78.101562 41.132812 77.558594 Z M 18.683594 81.261719 C 18.582031 82.042969 18.839844 82.871094 19.453125 83.484375 C 20.488281 84.519531 22.136719 84.539062 23.148438 83.527344 L 23.195312 83.484375 L 27.371094 87.660156 L 28.03125 87.660156 L 23.195312 82.820312 L 23.148438 82.867188 C 22.136719 83.878906 20.488281 83.859375 19.453125 82.820312 C 19.007812 82.378906 18.753906 81.828125 18.683594 81.261719 Z M 50.15625 81.261719 C 50.085938 81.828125 49.828125 82.378906 49.390625 82.820312 C 48.351562 83.859375 46.703125 83.878906 45.691406 82.867188 L 45.648438 82.820312 L 40.808594 87.660156 L 41.46875 87.660156 L 45.648438 83.484375 L 45.691406 83.527344 C 46.703125 84.539062 48.351562 84.519531 49.390625 83.484375 C 50 82.871094 50.257812 82.042969 50.15625 81.261719 Z M 13.265625 90.636719 C 13.257812 90.726562 13.25 90.8125 13.25 90.90625 L 13.25 91.03125 C 13.25 92.460938 14.429688 93.613281 15.898438 93.613281 L 15.898438 93.675781 C 15.898438 95.109375 17.078125 96.257812 18.542969 96.257812 C 20.007812 96.257812 21.1875 95.109375 21.1875 93.675781 L 21.1875 93.613281 L 27.371094 93.613281 L 28.03125 92.953125 L 21.1875 92.953125 L 21.1875 93.015625 C 21.1875 94.445312 20.007812 95.597656 18.542969 95.597656 C 17.078125 95.597656 15.898438 94.445312 15.898438 93.015625 L 15.898438 92.953125 C 14.523438 92.953125 13.402344 91.941406 13.265625 90.636719 Z M 55.574219 90.636719 C 55.4375 91.941406 54.316406 92.953125 52.941406 92.953125 L 52.941406 93.015625 C 52.941406 94.445312 51.761719 95.597656 50.296875 95.597656 C 48.828125 95.597656 47.648438 94.445312 47.648438 93.015625 L 47.648438 92.953125 L 40.808594 92.953125 L 41.46875 93.613281 L 47.648438 93.613281 L 47.648438 93.675781 C 47.648438 95.109375 48.828125 96.257812 50.296875 96.257812 C 51.761719 96.257812 52.941406 95.109375 52.941406 93.675781 L 52.941406 93.613281 C 54.40625 93.613281 55.589844 92.460938 55.589844 91.03125 L 55.589844 90.90625 C 55.589844 90.8125 55.585938 90.726562 55.574219 90.636719 Z M 31.773438 96.695312 L 26.9375 101.53125 L 26.980469 101.578125 C 27.078125 101.671875 27.164062 101.777344 27.242188 101.886719 L 31.773438 97.355469 Z M 37.066406 96.695312 L 37.066406 97.355469 L 41.597656 101.886719 C 41.675781 101.777344 41.761719 101.671875 41.859375 101.578125 L 41.90625 101.53125 Z M 18.683594 100.011719 C 18.601562 100.660156 18.761719 101.328125 19.164062 101.867188 C 19.25 101.75 19.34375 101.640625 19.453125 101.53125 L 19.40625 101.488281 C 18.992188 101.074219 18.75 100.554688 18.683594 100.011719 Z M 50.15625 100.011719 C 50.085938 100.554688 49.847656 101.074219 49.433594 101.488281 L 49.390625 101.53125 C 49.492188 101.640625 49.589844 101.75 49.671875 101.867188 C 50.078125 101.328125 50.238281 100.660156 50.15625 100.011719 Z M 27.703125 103.714844 C 27.632812 104.28125 27.375 104.832031 26.9375 105.273438 C 25.898438 106.3125 24.25 106.328125 23.238281 105.320312 L 23.195312 105.273438 C 22.15625 106.3125 20.507812 106.328125 19.496094 105.320312 L 19.40625 105.230469 C 18.992188 104.816406 18.75 104.296875 18.683594 103.753906 C 18.585938 104.519531 18.824219 105.308594 19.40625 105.890625 L 19.496094 105.980469 C 20.507812 106.992188 22.15625 106.972656 23.195312 105.9375 L 23.238281 105.980469 C 24.25 106.992188 25.898438 106.972656 26.9375 105.9375 C 27.546875 105.324219 27.804688 104.496094 27.703125 103.714844 Z M 41.132812 103.714844 C 41.035156 104.496094 41.289062 105.324219 41.90625 105.9375 C 42.941406 106.972656 44.589844 106.992188 45.601562 105.980469 L 45.648438 105.9375 C 46.683594 106.972656 48.332031 106.992188 49.34375 105.980469 L 49.433594 105.890625 C 50.015625 105.308594 50.253906 104.519531 50.15625 103.753906 C 50.085938 104.296875 49.847656 104.816406 49.433594 105.230469 L 49.34375 105.320312 C 48.332031 106.328125 46.683594 106.3125 45.648438 105.273438 L 45.601562 105.320312 C 44.589844 106.328125 42.941406 106.3125 41.90625 105.273438 C 41.460938 104.832031 41.207031 104.28125 41.132812 103.714844 Z M 29.148438 106.511719 C 29.132812 106.621094 29.128906 106.730469 29.128906 106.84375 C 29.128906 108.308594 30.28125 109.488281 31.710938 109.488281 L 31.773438 109.488281 L 31.773438 109.492188 C 31.773438 110.957031 32.925781 112.136719 34.359375 112.136719 L 34.484375 112.136719 C 35.914062 112.136719 37.066406 110.957031 37.066406 109.492188 L 37.066406 109.488281 L 37.128906 109.488281 C 38.558594 109.488281 39.710938 108.308594 39.710938 106.84375 C 39.710938 106.730469 39.703125 106.621094 39.691406 106.511719 C 39.53125 107.820312 38.449219 108.828125 37.128906 108.828125 L 37.066406 108.828125 C 37.066406 110.292969 35.914062 111.476562 34.484375 111.476562 L 34.359375 111.476562 C 32.925781 111.476562 31.773438 110.292969 31.773438 108.828125 L 31.710938 108.828125 C 30.390625 108.828125 29.304688 107.820312 29.148438 106.511719 Z M 29.148438 106.511719 "/>
<path style=" stroke:none;fill-rule:nonzero;fill:rgb(12.941177%,12.941177%,12.941177%);fill-opacity:1;" d="M 34.359375 69.421875 C 32.835938 69.421875 31.601562 70.601562 31.433594 72.097656 C 29.929688 72.242188 28.753906 73.523438 28.753906 75.089844 C 28.753906 76.644531 29.910156 77.917969 31.398438 78.078125 L 31.398438 83.671875 L 27.464844 79.742188 L 27.246094 79.960938 C 28.402344 78.804688 28.375 76.90625 27.203125 75.734375 C 26.09375 74.625 24.355469 74.550781 23.1875 75.511719 C 22.007812 74.574219 20.304688 74.613281 19.230469 75.6875 L 19.140625 75.777344 C 18.066406 76.851562 18.027344 78.554688 18.964844 79.734375 C 18.003906 80.902344 18.078125 82.640625 19.1875 83.75 C 20.359375 84.921875 22.257812 84.949219 23.414062 83.792969 L 23.195312 84.011719 L 27.125 87.945312 L 21.53125 87.945312 C 21.371094 86.457031 20.097656 85.300781 18.542969 85.300781 C 16.976562 85.300781 15.695312 86.476562 15.550781 87.980469 C 14.050781 88.148438 12.875 89.382812 12.875 90.90625 L 12.875 91.03125 C 12.875 92.550781 14.050781 93.785156 15.550781 93.953125 C 15.695312 95.457031 16.976562 96.632812 18.542969 96.632812 C 20.097656 96.632812 21.371094 95.476562 21.53125 93.988281 L 27.125 93.988281 L 23.195312 97.921875 L 23.414062 98.140625 C 22.257812 96.984375 20.359375 97.011719 19.1875 98.1875 C 18.078125 99.292969 18.003906 101.03125 18.964844 102.195312 C 18.027344 103.378906 18.066406 105.082031 19.140625 106.15625 L 19.230469 106.246094 C 20.304688 107.320312 22.007812 107.359375 23.1875 106.421875 C 24.355469 107.382812 26.09375 107.308594 27.203125 106.203125 C 28.375 105.023438 28.402344 103.132812 27.246094 101.972656 L 27.464844 102.195312 L 31.398438 98.261719 L 31.398438 103.855469 C 29.910156 104.015625 28.753906 105.289062 28.753906 106.84375 C 28.753906 108.410156 29.929688 109.691406 31.433594 109.835938 C 31.601562 111.335938 32.835938 112.511719 34.359375 112.511719 L 34.484375 112.511719 C 36.003906 112.511719 37.234375 111.335938 37.40625 109.835938 C 38.910156 109.691406 40.085938 108.410156 40.085938 106.84375 C 40.085938 105.289062 38.929688 104.015625 37.441406 103.855469 L 37.441406 98.261719 L 41.375 102.195312 L 41.59375 101.972656 C 40.4375 103.132812 40.464844 105.023438 41.640625 106.199219 C 42.746094 107.308594 44.484375 107.382812 45.648438 106.421875 C 46.828125 107.359375 48.535156 107.320312 49.609375 106.246094 L 49.699219 106.15625 C 50.773438 105.082031 50.8125 103.378906 49.875 102.195312 C 50.835938 101.03125 50.761719 99.292969 49.652344 98.1875 C 48.476562 97.011719 46.585938 96.984375 45.425781 98.140625 L 45.648438 97.921875 L 41.714844 93.988281 L 47.308594 93.988281 C 47.46875 95.476562 48.742188 96.632812 50.296875 96.632812 C 51.863281 96.632812 53.144531 95.457031 53.289062 93.953125 C 54.789062 93.78125 55.964844 92.550781 55.964844 91.03125 L 55.964844 90.90625 C 55.964844 89.382812 54.789062 88.148438 53.289062 87.980469 C 53.144531 86.476562 51.863281 85.300781 50.296875 85.300781 C 48.742188 85.300781 47.46875 86.457031 47.308594 87.945312 L 41.714844 87.945312 L 45.648438 84.011719 L 45.425781 83.792969 C 46.585938 84.949219 48.476562 84.921875 49.652344 83.75 C 50.761719 82.640625 50.835938 80.902344 49.875 79.734375 C 50.8125 78.554688 50.773438 76.851562 49.699219 75.777344 L 49.609375 75.6875 C 48.535156 74.613281 46.828125 74.574219 45.648438 75.511719 C 44.484375 74.550781 42.746094 74.625 41.640625 75.734375 C 40.464844 76.910156 40.4375 78.804688 41.59375 79.960938 L 41.375 79.742188 L 37.441406 83.671875 L 37.441406 78.078125 C 38.929688 77.917969 40.085938 76.644531 40.085938 75.089844 C 40.085938 73.523438 38.910156 72.242188 37.40625 72.097656 C 37.234375 70.601562 36.003906 69.421875 34.484375 69.421875 Z M 34.359375 70.171875 L 34.484375 70.171875 C 35.707031 70.171875 36.691406 71.175781 36.691406 72.445312 C 36.691406 72.652344 36.859375 72.820312 37.066406 72.820312 L 37.128906 72.820312 C 38.351562 72.820312 39.335938 73.820312 39.335938 75.089844 C 39.335938 76.359375 38.351562 77.359375 37.128906 77.359375 L 37.066406 77.359375 C 36.859375 77.359375 36.691406 77.53125 36.691406 77.734375 L 36.691406 84.578125 C 36.691406 84.730469 36.78125 84.867188 36.921875 84.925781 C 37.0625 84.984375 37.222656 84.953125 37.332031 84.84375 L 42.167969 80.007812 C 42.316406 79.859375 42.316406 79.621094 42.171875 79.476562 L 42.125 79.429688 C 41.257812 78.5625 41.273438 77.160156 42.167969 76.265625 C 43.066406 75.367188 44.46875 75.351562 45.335938 76.21875 L 45.382812 76.265625 C 45.453125 76.335938 45.546875 76.375 45.644531 76.375 C 45.746094 76.375 45.839844 76.335938 45.910156 76.265625 C 46.808594 75.367188 48.210938 75.351562 49.078125 76.21875 L 49.167969 76.308594 C 50.03125 77.171875 50.019531 78.578125 49.125 79.476562 C 49.054688 79.546875 49.011719 79.640625 49.011719 79.742188 C 49.011719 79.839844 49.054688 79.9375 49.125 80.007812 L 49.167969 80.050781 C 50.03125 80.917969 50.019531 82.320312 49.125 83.21875 C 48.226562 84.117188 46.820312 84.128906 45.957031 83.261719 L 45.910156 83.21875 C 45.765625 83.070312 45.527344 83.070312 45.382812 83.21875 L 40.542969 88.054688 C 40.4375 88.164062 40.402344 88.324219 40.460938 88.464844 C 40.519531 88.605469 40.65625 88.695312 40.808594 88.695312 L 47.648438 88.695312 C 47.859375 88.695312 48.023438 88.527344 48.023438 88.320312 L 48.023438 88.257812 C 48.023438 87.03125 49.027344 86.050781 50.296875 86.050781 C 51.566406 86.050781 52.566406 87.03125 52.566406 88.257812 L 52.566406 88.320312 C 52.566406 88.527344 52.734375 88.695312 52.941406 88.695312 C 54.210938 88.695312 55.210938 89.679688 55.210938 90.90625 L 55.210938 91.03125 C 55.210938 92.253906 54.210938 93.238281 52.941406 93.238281 C 52.734375 93.238281 52.566406 93.40625 52.566406 93.613281 L 52.566406 93.675781 C 52.566406 94.898438 51.566406 95.882812 50.296875 95.882812 C 49.027344 95.882812 48.023438 94.898438 48.023438 93.675781 L 48.023438 93.613281 C 48.023438 93.40625 47.859375 93.238281 47.648438 93.238281 L 40.808594 93.238281 C 40.65625 93.238281 40.519531 93.328125 40.460938 93.46875 C 40.402344 93.609375 40.4375 93.769531 40.542969 93.878906 L 45.382812 98.71875 C 45.527344 98.863281 45.765625 98.863281 45.910156 98.71875 L 45.953125 98.671875 C 46.820312 97.804688 48.226562 97.820312 49.125 98.714844 C 50.019531 99.613281 50.03125 101.015625 49.167969 101.882812 L 49.125 101.929688 C 49.054688 102 49.011719 102.09375 49.011719 102.195312 C 49.015625 102.296875 49.054688 102.390625 49.125 102.460938 C 50.019531 103.355469 50.03125 104.757812 49.167969 105.625 L 49.078125 105.714844 C 48.210938 106.582031 46.808594 106.566406 45.910156 105.671875 L 45.914062 105.675781 C 45.84375 105.601562 45.75 105.5625 45.648438 105.5625 C 45.546875 105.558594 45.453125 105.601562 45.382812 105.671875 L 45.335938 105.714844 C 44.46875 106.582031 43.066406 106.566406 42.167969 105.671875 C 41.273438 104.773438 41.257812 103.367188 42.125 102.503906 L 42.171875 102.457031 C 42.316406 102.3125 42.316406 102.074219 42.167969 101.929688 L 37.332031 97.089844 C 37.222656 96.984375 37.0625 96.949219 36.921875 97.007812 C 36.78125 97.066406 36.691406 97.203125 36.691406 97.355469 L 36.691406 104.195312 C 36.691406 104.40625 36.859375 104.570312 37.066406 104.570312 L 37.128906 104.570312 C 38.351562 104.570312 39.335938 105.574219 39.335938 106.84375 C 39.335938 108.113281 38.351562 109.113281 37.128906 109.113281 L 37.066406 109.113281 C 36.859375 109.113281 36.691406 109.28125 36.691406 109.488281 C 36.691406 110.757812 35.707031 111.761719 34.484375 111.761719 L 34.359375 111.761719 C 33.132812 111.761719 32.148438 110.757812 32.148438 109.488281 C 32.148438 109.28125 31.980469 109.113281 31.773438 109.113281 L 31.710938 109.113281 C 30.484375 109.113281 29.503906 108.113281 29.503906 106.84375 C 29.503906 105.574219 30.484375 104.570312 31.710938 104.570312 L 31.773438 104.570312 C 31.980469 104.570312 32.148438 104.40625 32.148438 104.195312 L 32.148438 97.355469 C 32.148438 97.203125 32.058594 97.066406 31.917969 97.007812 C 31.777344 96.949219 31.617188 96.984375 31.507812 97.089844 L 26.671875 101.929688 C 26.523438 102.074219 26.523438 102.3125 26.671875 102.457031 L 26.714844 102.5 C 27.582031 103.367188 27.570312 104.773438 26.671875 105.671875 C 25.773438 106.566406 24.367188 106.582031 23.503906 105.714844 L 23.460938 105.671875 C 23.390625 105.601562 23.292969 105.5625 23.195312 105.5625 C 23.09375 105.5625 23 105.601562 22.929688 105.671875 C 22.03125 106.566406 20.625 106.582031 19.761719 105.714844 L 19.671875 105.625 C 18.804688 104.757812 18.820312 103.355469 19.71875 102.460938 C 19.789062 102.386719 19.828125 102.292969 19.828125 102.195312 C 19.828125 102.09375 19.785156 102 19.714844 101.929688 L 19.671875 101.882812 C 18.804688 101.015625 18.820312 99.613281 19.71875 98.71875 C 20.613281 97.820312 22.015625 97.804688 22.882812 98.671875 L 22.929688 98.71875 C 23.074219 98.863281 23.3125 98.863281 23.460938 98.71875 L 28.296875 93.878906 C 28.40625 93.769531 28.4375 93.609375 28.378906 93.46875 C 28.320312 93.328125 28.183594 93.238281 28.03125 93.238281 L 21.1875 93.238281 C 20.984375 93.238281 20.8125 93.40625 20.8125 93.613281 L 20.8125 93.675781 C 20.8125 94.898438 19.8125 95.882812 18.542969 95.882812 C 17.273438 95.882812 16.273438 94.898438 16.273438 93.675781 L 16.273438 93.613281 C 16.273438 93.40625 16.105469 93.238281 15.898438 93.238281 C 14.628906 93.238281 13.625 92.253906 13.625 91.03125 L 13.625 90.90625 C 13.625 89.679688 14.628906 88.695312 15.898438 88.695312 C 16.105469 88.695312 16.273438 88.527344 16.273438 88.320312 L 16.273438 88.257812 C 16.273438 87.03125 17.273438 86.050781 18.542969 86.050781 C 19.8125 86.050781 20.8125 87.03125 20.8125 88.257812 L 20.8125 88.320312 C 20.8125 88.527344 20.984375 88.695312 21.1875 88.695312 L 28.03125 88.695312 C 28.183594 88.695312 28.320312 88.605469 28.378906 88.464844 C 28.4375 88.324219 28.40625 88.164062 28.296875 88.054688 L 23.460938 83.21875 C 23.3125 83.070312 23.074219 83.070312 22.929688 83.21875 L 22.882812 83.261719 C 22.015625 84.128906 20.613281 84.117188 19.71875 83.21875 L 19.714844 83.21875 C 18.820312 82.320312 18.804688 80.914062 19.671875 80.050781 L 19.714844 80.007812 C 19.785156 79.9375 19.828125 79.839844 19.828125 79.742188 C 19.828125 79.640625 19.789062 79.546875 19.71875 79.476562 C 18.820312 78.578125 18.804688 77.171875 19.671875 76.308594 L 19.761719 76.21875 C 20.625 75.351562 22.03125 75.367188 22.929688 76.265625 C 23 76.335938 23.09375 76.375 23.195312 76.375 C 23.292969 76.375 23.390625 76.335938 23.460938 76.261719 L 23.503906 76.21875 C 24.367188 75.351562 25.773438 75.367188 26.671875 76.265625 C 27.570312 77.160156 27.582031 78.5625 26.714844 79.429688 L 26.671875 79.476562 C 26.523438 79.621094 26.523438 79.859375 26.671875 80.007812 L 31.507812 84.84375 C 31.617188 84.953125 31.777344 84.984375 31.917969 84.925781 C 32.058594 84.867188 32.148438 84.730469 32.148438 84.578125 L 32.148438 77.734375 C 32.148438 77.53125 31.980469 77.359375 31.773438 77.359375 L 31.710938 77.359375 C 30.484375 77.359375 29.503906 76.359375 29.503906 75.089844 C 29.503906 73.820312 30.484375 72.820312 31.710938 72.820312 L 31.773438 72.820312 C 31.980469 72.820312 32.148438 72.652344 32.148438 72.445312 C 32.148438 71.175781 33.132812 70.171875 34.359375 70.171875 Z M 34.359375 70.171875 "/>
<path style=" stroke:none;fill-rule:nonzero;fill:url(#radial4);" d="M 95.273438 112.136719 L 105.859375 112.136719 L 105.859375 106.84375 L 95.273438 106.84375 Z M 95.273438 112.136719 "/>
<path style=" stroke:none;fill-rule:nonzero;fill:url(#radial5);" d="M 95.273438 112.136719 L 84.691406 112.136719 L 84.691406 117.429688 L 95.273438 117.429688 Z M 95.273438 112.136719 "/>
<path style=" stroke:none;fill-rule:nonzero;fill:url(#radial6);" d="M 95.273438 112.136719 L 84.691406 112.136719 L 84.691406 106.84375 L 95.273438 106.84375 Z M 95.273438 112.136719 "/>
<path style=" stroke:none;fill-rule:nonzero;fill:url(#radial7);" d="M 95.273438 112.136719 L 105.859375 112.136719 L 105.859375 117.429688 L 95.273438 117.429688 Z M 95.273438 112.136719 "/>
<path style=" stroke:none;fill-rule:nonzero;fill:url(#linear1);" d="M 95.195312 12.246094 C 93.765625 12.246094 92.613281 13.425781 92.613281 14.890625 L 92.550781 14.890625 C 91.117188 14.890625 89.96875 16.070312 89.96875 17.539062 C 89.96875 19.003906 91.117188 20.183594 92.550781 20.183594 L 92.613281 20.183594 L 92.613281 27.027344 L 87.773438 22.1875 L 87.820312 22.144531 C 88.832031 21.132812 88.8125 19.484375 87.773438 18.445312 C 86.738281 17.410156 85.089844 17.390625 84.078125 18.402344 L 84.03125 18.445312 C 82.996094 17.410156 81.347656 17.390625 80.335938 18.402344 L 80.246094 18.492188 C 79.234375 19.5 79.253906 21.152344 80.289062 22.1875 L 80.246094 22.234375 C 79.234375 23.242188 79.253906 24.894531 80.289062 25.929688 C 81.328125 26.96875 82.976562 26.984375 83.988281 25.976562 L 84.03125 25.929688 L 88.871094 30.769531 L 82.027344 30.769531 L 82.027344 30.707031 C 82.027344 29.273438 80.847656 28.121094 79.382812 28.121094 C 77.917969 28.121094 76.734375 29.273438 76.734375 30.707031 L 76.734375 30.769531 C 75.269531 30.769531 74.089844 31.921875 74.089844 33.351562 L 74.089844 33.476562 C 74.089844 34.90625 75.269531 36.0625 76.734375 36.0625 L 76.734375 36.125 C 76.734375 37.554688 77.917969 38.707031 79.382812 38.707031 C 80.847656 38.707031 82.027344 37.554688 82.027344 36.125 L 82.027344 36.0625 L 88.871094 36.0625 L 84.03125 40.898438 L 83.988281 40.855469 C 82.976562 39.84375 81.328125 39.863281 80.289062 40.898438 C 79.253906 41.9375 79.234375 43.585938 80.246094 44.597656 L 80.289062 44.640625 C 79.253906 45.679688 79.234375 47.328125 80.246094 48.339844 L 80.335938 48.429688 C 81.347656 49.4375 82.996094 49.421875 84.03125 48.382812 L 84.078125 48.429688 C 85.089844 49.4375 86.738281 49.421875 87.773438 48.382812 C 88.8125 47.347656 88.832031 45.695312 87.820312 44.6875 L 87.773438 44.640625 L 92.613281 39.804688 L 92.613281 46.644531 L 92.550781 46.644531 C 91.117188 46.644531 89.96875 47.824219 89.96875 49.289062 C 89.96875 50.757812 91.117188 51.9375 92.550781 51.9375 L 92.613281 51.9375 C 92.613281 53.402344 93.765625 54.582031 95.195312 54.582031 L 95.320312 54.582031 C 96.753906 54.582031 97.90625 53.402344 97.90625 51.9375 L 97.96875 51.9375 C 99.398438 51.9375 100.550781 50.757812 100.550781 49.289062 C 100.550781 47.824219 99.398438 46.644531 97.96875 46.644531 L 97.90625 46.644531 L 97.90625 39.804688 L 102.742188 44.640625 L 102.699219 44.6875 C 101.6875 45.695312 101.707031 47.347656 102.742188 48.382812 C 103.78125 49.421875 105.429688 49.4375 106.441406 48.429688 L 106.484375 48.382812 C 107.523438 49.421875 109.171875 49.4375 110.183594 48.429688 L 110.273438 48.339844 C 111.285156 47.328125 111.265625 45.679688 110.226562 44.640625 L 110.273438 44.597656 C 111.285156 43.585938 111.265625 41.9375 110.226562 40.898438 C 109.191406 39.863281 107.542969 39.84375 106.53125 40.855469 L 106.484375 40.898438 L 101.648438 36.0625 L 108.488281 36.0625 L 108.488281 36.125 C 108.488281 37.554688 109.671875 38.707031 111.136719 38.707031 C 112.601562 38.707031 113.78125 37.554688 113.78125 36.125 L 113.78125 36.0625 C 115.25 36.0625 116.429688 34.90625 116.429688 33.476562 L 116.429688 33.351562 C 116.429688 31.921875 115.25 30.769531 113.78125 30.769531 L 113.78125 30.707031 C 113.78125 29.273438 112.601562 28.121094 111.136719 28.121094 C 109.671875 28.121094 108.488281 29.273438 108.488281 30.707031 L 108.488281 30.769531 L 101.648438 30.769531 L 106.484375 25.929688 L 106.53125 25.976562 C 107.542969 26.984375 109.191406 26.96875 110.226562 25.929688 C 111.265625 24.894531 111.285156 23.242188 110.273438 22.234375 L 110.226562 22.1875 C 111.265625 21.152344 111.285156 19.5 110.273438 18.492188 L 110.183594 18.402344 C 109.171875 17.390625 107.523438 17.410156 106.484375 18.445312 L 106.441406 18.402344 C 105.429688 17.390625 103.78125 17.410156 102.742188 18.445312 C 101.707031 19.484375 101.6875 21.132812 102.699219 22.144531 L 102.742188 22.1875 L 97.90625 27.027344 L 97.90625 20.183594 L 97.96875 20.183594 C 99.398438 20.183594 100.550781 19.003906 100.550781 17.539062 C 100.550781 16.070312 99.398438 14.890625 97.96875 14.890625 L 97.90625 14.890625 C 97.90625 13.425781 96.753906 12.246094 95.320312 12.246094 Z M 95.195312 12.246094 "/>
<path style=" stroke:none;fill-rule:nonzero;fill:rgb(100%,100%,100%);fill-opacity:0.392157;" d="M 95.195312 12.246094 C 93.765625 12.246094 92.613281 13.425781 92.613281 14.890625 L 92.550781 14.890625 C 91.117188 14.890625 89.96875 16.070312 89.96875 17.539062 C 89.96875 17.648438 89.976562 17.761719 89.988281 17.867188 C 90.144531 16.5625 91.226562 15.554688 92.550781 15.554688 L 92.613281 15.554688 C 92.613281 14.085938 93.765625 12.90625 95.195312 12.90625 L 95.320312 12.90625 C 96.753906 12.90625 97.90625 14.085938 97.90625 15.554688 L 97.96875 15.554688 C 99.289062 15.554688 100.371094 16.5625 100.53125 17.867188 C 100.542969 17.761719 100.550781 17.648438 100.550781 17.539062 C 100.550781 16.070312 99.398438 14.890625 97.96875 14.890625 L 97.90625 14.890625 C 97.90625 13.425781 96.753906 12.246094 95.320312 12.246094 Z M 85.917969 17.65625 C 85.25 17.648438 84.582031 17.894531 84.078125 18.402344 L 84.03125 18.445312 C 82.996094 17.410156 81.347656 17.390625 80.335938 18.402344 L 80.246094 18.492188 C 79.664062 19.070312 79.425781 19.863281 79.523438 20.628906 C 79.589844 20.085938 79.832031 19.566406 80.246094 19.152344 L 80.335938 19.0625 C 81.347656 18.050781 82.996094 18.070312 84.03125 19.109375 L 84.078125 19.0625 C 85.089844 18.050781 86.738281 18.070312 87.773438 19.109375 C 88.214844 19.546875 88.472656 20.101562 88.542969 20.667969 C 88.644531 19.886719 88.386719 19.058594 87.773438 18.445312 C 87.257812 17.929688 86.585938 17.664062 85.917969 17.65625 Z M 104.601562 17.65625 C 103.933594 17.664062 103.261719 17.929688 102.742188 18.445312 C 102.132812 19.058594 101.875 19.886719 101.976562 20.667969 C 102.046875 20.101562 102.300781 19.546875 102.742188 19.109375 C 103.78125 18.070312 105.429688 18.050781 106.441406 19.0625 L 106.484375 19.109375 C 107.523438 18.070312 109.171875 18.050781 110.183594 19.0625 L 110.273438 19.152344 C 110.6875 19.566406 110.925781 20.085938 110.996094 20.628906 C 111.09375 19.863281 110.851562 19.070312 110.273438 18.492188 L 110.183594 18.402344 C 109.171875 17.390625 107.523438 17.410156 106.484375 18.445312 L 106.441406 18.402344 C 105.9375 17.894531 105.269531 17.648438 104.601562 17.65625 Z M 88.082031 22.496094 C 88.003906 22.605469 87.917969 22.707031 87.820312 22.804688 L 87.773438 22.851562 L 92.613281 27.6875 L 92.613281 27.027344 Z M 102.4375 22.496094 L 97.90625 27.027344 L 97.90625 27.6875 L 102.742188 22.851562 L 102.699219 22.804688 C 102.601562 22.707031 102.515625 22.605469 102.4375 22.496094 Z M 80.003906 22.511719 C 79.601562 23.054688 79.4375 23.722656 79.523438 24.371094 C 79.589844 23.828125 79.832031 23.308594 80.246094 22.894531 L 80.289062 22.851562 C 80.183594 22.742188 80.089844 22.632812 80.003906 22.511719 Z M 110.515625 22.511719 C 110.429688 22.632812 110.335938 22.742188 110.226562 22.851562 L 110.273438 22.894531 C 110.6875 23.308594 110.925781 23.828125 110.996094 24.371094 C 111.078125 23.722656 110.917969 23.054688 110.515625 22.511719 Z M 79.382812 28.121094 C 77.917969 28.121094 76.734375 29.273438 76.734375 30.707031 L 76.734375 30.769531 C 75.269531 30.769531 74.089844 31.921875 74.089844 33.351562 L 74.089844 33.476562 C 74.089844 33.566406 74.09375 33.65625 74.105469 33.746094 C 74.242188 32.441406 75.363281 31.429688 76.734375 31.429688 L 76.734375 31.367188 C 76.734375 29.9375 77.917969 28.785156 79.382812 28.785156 C 80.847656 28.785156 82.027344 29.9375 82.027344 31.367188 L 82.027344 31.429688 L 88.871094 31.429688 L 88.210938 30.769531 L 82.027344 30.769531 L 82.027344 30.707031 C 82.027344 29.273438 80.847656 28.121094 79.382812 28.121094 Z M 111.136719 28.121094 C 109.671875 28.121094 108.488281 29.273438 108.488281 30.707031 L 108.488281 30.769531 L 102.308594 30.769531 L 101.648438 31.429688 L 108.488281 31.429688 L 108.488281 31.367188 C 108.488281 29.9375 109.671875 28.785156 111.136719 28.785156 C 112.601562 28.785156 113.78125 29.9375 113.78125 31.367188 L 113.78125 31.429688 C 115.15625 31.429688 116.277344 32.441406 116.414062 33.746094 C 116.421875 33.65625 116.429688 33.566406 116.429688 33.476562 L 116.429688 33.351562 C 116.429688 31.921875 115.25 30.769531 113.78125 30.769531 L 113.78125 30.707031 C 113.78125 29.273438 112.601562 28.121094 111.136719 28.121094 Z M 88.210938 36.722656 L 84.03125 40.898438 L 83.988281 40.855469 C 82.976562 39.84375 81.328125 39.863281 80.289062 40.898438 C 79.679688 41.511719 79.421875 42.335938 79.523438 43.121094 C 79.59375 42.554688 79.851562 42 80.289062 41.5625 C 81.328125 40.523438 82.976562 40.503906 83.988281 41.515625 L 84.03125 41.5625 L 88.871094 36.722656 Z M 101.648438 36.722656 L 106.484375 41.5625 L 106.53125 41.515625 C 107.542969 40.503906 109.191406 40.523438 110.226562 41.5625 C 110.667969 42 110.925781 42.554688 110.996094 43.121094 C 111.097656 42.335938 110.839844 41.511719 110.226562 40.898438 C 109.191406 39.863281 107.542969 39.84375 106.53125 40.855469 L 106.484375 40.898438 L 102.308594 36.722656 Z M 80.003906 44.976562 C 79.601562 45.539062 79.4375 46.214844 79.523438 46.863281 C 79.59375 46.296875 79.851562 45.742188 80.289062 45.304688 L 80.246094 45.257812 C 80.15625 45.171875 80.078125 45.078125 80.003906 44.976562 Z M 110.515625 44.976562 C 110.441406 45.078125 110.359375 45.171875 110.273438 45.257812 L 110.226562 45.304688 C 110.667969 45.742188 110.925781 46.296875 110.996094 46.863281 C 111.078125 46.214844 110.917969 45.539062 110.515625 44.976562 Z M 88.082031 44.996094 L 87.773438 45.304688 L 87.820312 45.347656 C 88.234375 45.761719 88.476562 46.28125 88.542969 46.824219 C 88.625 46.1875 88.472656 45.53125 88.082031 44.996094 Z M 102.4375 44.996094 C 102.046875 45.53125 101.894531 46.1875 101.976562 46.824219 C 102.042969 46.28125 102.285156 45.761719 102.699219 45.347656 L 102.742188 45.304688 Z M 92.550781 46.644531 C 91.117188 46.644531 89.96875 47.824219 89.96875 49.289062 C 89.96875 49.402344 89.976562 49.515625 89.988281 49.621094 C 90.144531 48.3125 91.226562 47.304688 92.550781 47.304688 L 92.613281 47.304688 L 92.613281 46.644531 Z M 97.90625 46.644531 L 97.90625 47.304688 L 97.96875 47.304688 C 99.289062 47.304688 100.371094 48.3125 100.53125 49.621094 C 100.542969 49.515625 100.550781 49.402344 100.550781 49.289062 C 100.550781 47.824219 99.398438 46.644531 97.96875 46.644531 Z M 97.90625 46.644531 "/>
<path style=" stroke:none;fill-rule:nonzero;fill:rgb(0%,0%,0%);fill-opacity:0.235294;" d="M 89.988281 17.207031 C 89.976562 17.316406 89.96875 17.425781 89.96875 17.539062 C 89.96875 19.003906 91.117188 20.183594 92.550781 20.183594 L 92.613281 20.183594 L 92.613281 19.523438 L 92.550781 19.523438 C 91.226562 19.523438 90.144531 18.515625 89.988281 17.207031 Z M 100.53125 17.207031 C 100.371094 18.515625 99.289062 19.523438 97.96875 19.523438 L 97.90625 19.523438 L 97.90625 20.183594 L 97.96875 20.183594 C 99.398438 20.183594 100.550781 19.003906 100.550781 17.539062 C 100.550781 17.425781 100.542969 17.316406 100.53125 17.207031 Z M 79.523438 19.96875 C 79.4375 20.613281 79.601562 21.289062 80.003906 21.851562 C 80.078125 21.753906 80.15625 21.660156 80.246094 21.570312 L 80.289062 21.527344 C 79.851562 21.085938 79.59375 20.53125 79.523438 19.96875 Z M 110.996094 19.96875 C 110.925781 20.53125 110.667969 21.085938 110.226562 21.527344 L 110.273438 21.570312 C 110.359375 21.660156 110.441406 21.753906 110.515625 21.851562 C 110.917969 21.289062 111.078125 20.613281 110.996094 19.96875 Z M 88.542969 20.007812 C 88.476562 20.546875 88.234375 21.070312 87.820312 21.484375 L 87.773438 21.527344 L 88.082031 21.835938 C 88.472656 21.296875 88.625 20.640625 88.542969 20.007812 Z M 101.976562 20.007812 C 101.894531 20.640625 102.046875 21.296875 102.4375 21.835938 L 102.742188 21.527344 L 102.699219 21.484375 C 102.285156 21.070312 102.042969 20.546875 101.976562 20.007812 Z M 79.523438 23.710938 C 79.421875 24.492188 79.679688 25.320312 80.289062 25.929688 C 81.328125 26.96875 82.976562 26.984375 83.988281 25.976562 L 84.03125 25.929688 L 88.210938 30.109375 L 88.871094 30.109375 L 84.03125 25.269531 L 83.988281 25.3125 C 82.976562 26.324219 81.328125 26.304688 80.289062 25.269531 C 79.851562 24.828125 79.59375 24.273438 79.523438 23.710938 Z M 110.996094 23.710938 C 110.925781 24.273438 110.667969 24.828125 110.226562 25.269531 C 109.191406 26.304688 107.542969 26.324219 106.53125 25.3125 L 106.484375 25.269531 L 101.648438 30.109375 L 102.308594 30.109375 L 106.484375 25.929688 L 106.53125 25.976562 C 107.542969 26.984375 109.191406 26.96875 110.226562 25.929688 C 110.839844 25.320312 111.097656 24.492188 110.996094 23.710938 Z M 74.105469 33.085938 C 74.09375 33.171875 74.089844 33.261719 74.089844 33.351562 L 74.089844 33.476562 C 74.089844 34.90625 75.269531 36.0625 76.734375 36.0625 L 76.734375 36.125 C 76.734375 37.554688 77.917969 38.707031 79.382812 38.707031 C 80.847656 38.707031 82.027344 37.554688 82.027344 36.125 L 82.027344 36.0625 L 88.210938 36.0625 L 88.871094 35.398438 L 82.027344 35.398438 L 82.027344 35.460938 C 82.027344 36.890625 80.847656 38.046875 79.382812 38.046875 C 77.917969 38.046875 76.734375 36.890625 76.734375 35.460938 L 76.734375 35.398438 C 75.363281 35.398438 74.242188 34.390625 74.105469 33.085938 Z M 116.414062 33.085938 C 116.277344 34.390625 115.15625 35.398438 113.78125 35.398438 L 113.78125 35.460938 C 113.78125 36.890625 112.601562 38.046875 111.136719 38.046875 C 109.671875 38.046875 108.488281 36.890625 108.488281 35.460938 L 108.488281 35.398438 L 101.648438 35.398438 L 102.308594 36.0625 L 108.488281 36.0625 L 108.488281 36.125 C 108.488281 37.554688 109.671875 38.707031 111.136719 38.707031 C 112.601562 38.707031 113.78125 37.554688 113.78125 36.125 L 113.78125 36.0625 C 115.25 36.0625 116.429688 34.90625 116.429688 33.476562 L 116.429688 33.351562 C 116.429688 33.261719 116.421875 33.171875 116.414062 33.085938 Z M 92.613281 39.140625 L 87.773438 43.980469 L 87.820312 44.023438 C 87.917969 44.121094 88.003906 44.226562 88.082031 44.332031 L 92.613281 39.804688 Z M 97.90625 39.140625 L 97.90625 39.804688 L 102.4375 44.332031 C 102.515625 44.226562 102.601562 44.121094 102.699219 44.023438 L 102.742188 43.980469 Z M 79.523438 42.460938 C 79.4375 43.109375 79.601562 43.773438 80.003906 44.316406 C 80.089844 44.199219 80.183594 44.085938 80.289062 43.980469 L 80.246094 43.9375 C 79.832031 43.523438 79.589844 43 79.523438 42.460938 Z M 110.996094 42.460938 C 110.925781 43 110.6875 43.523438 110.273438 43.9375 L 110.226562 43.980469 C 110.335938 44.085938 110.429688 44.199219 110.515625 44.316406 C 110.917969 43.773438 111.078125 43.109375 110.996094 42.460938 Z M 88.542969 46.160156 C 88.472656 46.726562 88.214844 47.28125 87.773438 47.722656 C 86.738281 48.757812 85.089844 48.777344 84.078125 47.765625 L 84.03125 47.722656 C 82.996094 48.757812 81.347656 48.777344 80.335938 47.765625 L 80.246094 47.679688 C 79.832031 47.265625 79.589844 46.742188 79.523438 46.203125 C 79.425781 46.964844 79.664062 47.757812 80.246094 48.339844 L 80.335938 48.429688 C 81.347656 49.4375 82.996094 49.421875 84.03125 48.382812 L 84.078125 48.429688 C 85.089844 49.4375 86.738281 49.421875 87.773438 48.382812 C 88.386719 47.769531 88.644531 46.945312 88.542969 46.160156 Z M 101.976562 46.160156 C 101.875 46.945312 102.132812 47.769531 102.742188 48.382812 C 103.78125 49.421875 105.429688 49.4375 106.441406 48.429688 L 106.484375 48.382812 C 107.523438 49.421875 109.171875 49.4375 110.183594 48.429688 L 110.273438 48.339844 C 110.851562 47.757812 111.09375 46.964844 110.996094 46.203125 C 110.925781 46.742188 110.6875 47.265625 110.273438 47.679688 L 110.183594 47.765625 C 109.171875 48.777344 107.523438 48.757812 106.484375 47.722656 L 106.441406 47.765625 C 105.429688 48.777344 103.78125 48.757812 102.742188 47.722656 C 102.300781 47.28125 102.046875 46.726562 101.976562 46.160156 Z M 89.988281 48.960938 C 89.976562 49.070312 89.96875 49.179688 89.96875 49.289062 C 89.96875 50.757812 91.117188 51.9375 92.550781 51.9375 L 92.613281 51.9375 C 92.613281 53.402344 93.765625 54.582031 95.195312 54.582031 L 95.320312 54.582031 C 96.753906 54.582031 97.90625 53.402344 97.90625 51.9375 L 97.96875 51.9375 C 99.398438 51.9375 100.550781 50.757812 100.550781 49.289062 C 100.550781 49.179688 100.542969 49.070312 100.53125 48.960938 C 100.371094 50.269531 99.289062 51.273438 97.96875 51.273438 L 97.90625 51.273438 C 97.90625 52.742188 96.753906 53.921875 95.320312 53.921875 L 95.195312 53.921875 C 93.765625 53.921875 92.613281 52.742188 92.613281 51.273438 L 92.550781 51.273438 C 91.226562 51.273438 90.144531 50.269531 89.988281 48.960938 Z M 89.988281 48.960938 "/>
<path style=" stroke:none;fill-rule:nonzero;fill:rgb(12.941177%,12.941177%,12.941177%);fill-opacity:1;" d="M 95.195312 11.871094 C 93.675781 11.871094 92.441406 13.046875 92.273438 14.546875 C 90.765625 14.691406 89.59375 15.972656 89.59375 17.539062 C 89.59375 19.09375 90.75 20.367188 92.238281 20.527344 L 92.238281 26.121094 L 88.304688 22.1875 L 88.085938 22.40625 C 89.242188 21.25 89.214844 19.355469 88.039062 18.179688 C 86.933594 17.074219 85.195312 17 84.027344 17.960938 C 82.847656 17.019531 81.144531 17.0625 80.070312 18.136719 L 79.980469 18.226562 C 78.90625 19.300781 78.867188 21.003906 79.804688 22.183594 C 78.84375 23.351562 78.917969 25.089844 80.023438 26.195312 C 81.203125 27.371094 83.09375 27.398438 84.253906 26.242188 L 84.03125 26.460938 L 87.964844 30.394531 L 82.371094 30.394531 C 82.210938 28.90625 80.9375 27.746094 79.382812 27.746094 C 77.816406 27.746094 76.535156 28.921875 76.390625 30.429688 C 74.890625 30.597656 73.714844 31.832031 73.714844 33.351562 L 73.714844 33.476562 C 73.714844 35 74.890625 36.230469 76.390625 36.402344 C 76.535156 37.90625 77.816406 39.082031 79.382812 39.082031 C 80.9375 39.082031 82.210938 37.921875 82.371094 36.4375 L 87.964844 36.4375 L 84.03125 40.367188 L 84.253906 40.589844 C 83.09375 39.429688 81.203125 39.457031 80.023438 40.632812 C 78.917969 41.742188 78.84375 43.476562 79.804688 44.644531 C 78.867188 45.824219 78.90625 47.53125 79.980469 48.605469 L 80.070312 48.691406 C 81.144531 49.765625 82.847656 49.808594 84.027344 48.867188 C 85.195312 49.828125 86.933594 49.757812 88.039062 48.648438 C 89.214844 47.472656 89.242188 45.578125 88.085938 44.421875 L 88.304688 44.640625 L 92.238281 40.707031 L 92.238281 46.304688 C 90.75 46.464844 89.59375 47.738281 89.59375 49.289062 C 89.59375 50.855469 90.765625 52.136719 92.273438 52.28125 C 92.441406 53.78125 93.675781 54.957031 95.195312 54.957031 L 95.320312 54.957031 C 96.84375 54.957031 98.078125 53.78125 98.246094 52.28125 C 99.75 52.136719 100.925781 50.855469 100.925781 49.289062 C 100.925781 47.738281 99.765625 46.464844 98.28125 46.304688 L 98.28125 40.707031 L 102.210938 44.640625 L 102.433594 44.421875 C 101.277344 45.578125 101.304688 47.472656 102.476562 48.648438 C 103.585938 49.757812 105.320312 49.828125 106.488281 48.867188 C 107.667969 49.808594 109.375 49.765625 110.449219 48.691406 L 110.539062 48.605469 C 111.613281 47.527344 111.652344 45.824219 110.714844 44.644531 C 111.671875 43.476562 111.601562 41.742188 110.492188 40.632812 C 109.316406 39.457031 107.421875 39.429688 106.265625 40.589844 L 106.484375 40.367188 L 102.554688 36.4375 L 108.148438 36.4375 C 108.308594 37.921875 109.582031 39.082031 111.136719 39.082031 C 112.703125 39.082031 113.984375 37.90625 114.128906 36.402344 C 115.625 36.230469 116.804688 35 116.804688 33.476562 L 116.804688 33.351562 C 116.804688 31.832031 115.625 30.597656 114.128906 30.429688 C 113.984375 28.921875 112.703125 27.746094 111.136719 27.746094 C 109.582031 27.746094 108.308594 28.90625 108.148438 30.394531 L 102.554688 30.394531 L 106.484375 26.460938 L 106.265625 26.242188 C 107.421875 27.398438 109.316406 27.371094 110.492188 26.195312 C 111.601562 25.089844 111.671875 23.351562 110.714844 22.183594 C 111.652344 21.003906 111.613281 19.300781 110.539062 18.226562 L 110.449219 18.136719 C 109.375 17.0625 107.671875 17.019531 106.488281 17.960938 C 105.324219 17 103.585938 17.074219 102.476562 18.179688 C 101.304688 19.355469 101.277344 21.25 102.433594 22.410156 L 102.210938 22.1875 L 98.28125 26.121094 L 98.28125 20.527344 C 99.765625 20.367188 100.925781 19.09375 100.925781 17.539062 C 100.925781 15.972656 99.75 14.691406 98.246094 14.546875 C 98.078125 13.046875 96.84375 11.871094 95.320312 11.871094 Z M 95.195312 12.621094 L 95.320312 12.621094 C 96.546875 12.621094 97.53125 13.625 97.53125 14.890625 C 97.53125 15.101562 97.699219 15.265625 97.90625 15.265625 L 97.96875 15.265625 C 99.191406 15.265625 100.175781 16.269531 100.175781 17.539062 C 100.175781 18.808594 99.191406 19.808594 97.96875 19.808594 L 97.90625 19.808594 C 97.699219 19.808594 97.53125 19.976562 97.53125 20.183594 L 97.53125 27.027344 C 97.53125 27.179688 97.621094 27.316406 97.761719 27.375 C 97.902344 27.429688 98.0625 27.398438 98.171875 27.292969 L 103.007812 22.453125 C 103.15625 22.308594 103.15625 22.070312 103.007812 21.921875 L 102.964844 21.878906 C 102.097656 21.011719 102.109375 19.609375 103.007812 18.710938 C 103.90625 17.8125 105.308594 17.800781 106.175781 18.667969 L 106.21875 18.710938 C 106.289062 18.78125 106.386719 18.820312 106.484375 18.820312 C 106.585938 18.820312 106.679688 18.78125 106.75 18.710938 C 107.648438 17.8125 109.050781 17.800781 109.917969 18.667969 L 110.007812 18.757812 C 110.875 19.621094 110.859375 21.023438 109.960938 21.921875 C 109.890625 21.992188 109.851562 22.089844 109.851562 22.1875 C 109.851562 22.289062 109.890625 22.382812 109.960938 22.453125 L 110.007812 22.5 C 110.875 23.363281 110.859375 24.765625 109.960938 25.664062 C 109.0625 26.5625 107.660156 26.578125 106.796875 25.710938 L 106.75 25.664062 C 106.601562 25.519531 106.367188 25.519531 106.21875 25.664062 L 101.382812 30.503906 C 101.273438 30.609375 101.242188 30.773438 101.300781 30.914062 C 101.359375 31.050781 101.496094 31.144531 101.648438 31.144531 L 108.488281 31.144531 C 108.695312 31.144531 108.863281 30.976562 108.863281 30.769531 L 108.863281 30.707031 C 108.863281 29.480469 109.867188 28.496094 111.136719 28.496094 C 112.40625 28.496094 113.40625 29.480469 113.40625 30.707031 L 113.40625 30.769531 C 113.40625 30.976562 113.574219 31.144531 113.78125 31.144531 C 115.050781 31.144531 116.054688 32.125 116.054688 33.351562 L 116.054688 33.476562 C 116.054688 34.703125 115.050781 35.6875 113.78125 35.6875 C 113.574219 35.6875 113.40625 35.851562 113.40625 36.0625 L 113.40625 36.125 C 113.40625 37.347656 112.40625 38.332031 111.136719 38.332031 C 109.867188 38.332031 108.863281 37.347656 108.863281 36.125 L 108.863281 36.0625 C 108.863281 35.851562 108.695312 35.6875 108.488281 35.6875 L 101.648438 35.6875 C 101.496094 35.6875 101.359375 35.777344 101.300781 35.917969 C 101.242188 36.058594 101.273438 36.21875 101.382812 36.328125 L 106.21875 41.164062 C 106.367188 41.3125 106.601562 41.3125 106.75 41.164062 L 106.792969 41.121094 C 107.660156 40.253906 109.0625 40.265625 109.960938 41.164062 C 110.859375 42.0625 110.875 43.464844 110.007812 44.332031 L 109.960938 44.375 C 109.890625 44.445312 109.851562 44.542969 109.851562 44.640625 C 109.851562 44.742188 109.894531 44.839844 109.964844 44.910156 L 109.960938 44.90625 C 110.859375 45.804688 110.875 47.207031 110.007812 48.074219 L 109.917969 48.164062 C 109.050781 49.027344 107.648438 49.015625 106.75 48.117188 L 106.753906 48.121094 C 106.683594 48.050781 106.589844 48.007812 106.488281 48.007812 C 106.386719 48.007812 106.289062 48.046875 106.21875 48.117188 L 106.175781 48.164062 C 105.308594 49.027344 103.90625 49.015625 103.007812 48.117188 C 102.109375 47.21875 102.097656 45.816406 102.964844 44.949219 L 103.007812 44.90625 C 103.15625 44.757812 103.15625 44.523438 103.007812 44.375 L 98.171875 39.539062 C 98.0625 39.429688 97.902344 39.398438 97.761719 39.457031 C 97.621094 39.515625 97.53125 39.652344 97.53125 39.804688 L 97.53125 46.644531 C 97.53125 46.851562 97.699219 47.019531 97.90625 47.019531 L 97.96875 47.019531 C 99.191406 47.019531 100.175781 48.023438 100.175781 49.289062 C 100.175781 50.5625 99.191406 51.5625 97.96875 51.5625 L 97.90625 51.5625 C 97.699219 51.5625 97.53125 51.730469 97.53125 51.9375 C 97.53125 53.207031 96.546875 54.207031 95.320312 54.207031 L 95.195312 54.207031 C 93.972656 54.207031 92.988281 53.207031 92.988281 51.9375 C 92.988281 51.730469 92.820312 51.5625 92.613281 51.5625 L 92.550781 51.5625 C 91.324219 51.5625 90.34375 50.5625 90.34375 49.289062 C 90.34375 48.023438 91.324219 47.019531 92.550781 47.019531 L 92.613281 47.019531 C 92.820312 47.019531 92.988281 46.851562 92.988281 46.644531 L 92.988281 39.804688 C 92.988281 39.652344 92.898438 39.515625 92.757812 39.457031 C 92.617188 39.398438 92.453125 39.429688 92.347656 39.539062 L 87.507812 44.375 C 87.363281 44.523438 87.363281 44.757812 87.507812 44.90625 L 87.554688 44.949219 C 88.421875 45.816406 88.40625 47.21875 87.507812 48.117188 C 86.613281 49.015625 85.207031 49.027344 84.34375 48.164062 L 84.296875 48.117188 C 84.226562 48.046875 84.132812 48.007812 84.03125 48.007812 C 83.933594 48.007812 83.835938 48.046875 83.765625 48.117188 C 82.871094 49.015625 81.46875 49.027344 80.601562 48.164062 L 80.511719 48.074219 C 79.644531 47.207031 79.65625 45.804688 80.554688 44.90625 C 80.625 44.835938 80.664062 44.742188 80.664062 44.640625 C 80.664062 44.539062 80.625 44.445312 80.554688 44.375 L 80.511719 44.332031 C 79.644531 43.464844 79.65625 42.0625 80.554688 41.164062 C 81.453125 40.265625 82.855469 40.253906 83.722656 41.121094 L 83.765625 41.164062 C 83.914062 41.3125 84.152344 41.3125 84.296875 41.164062 L 89.136719 36.328125 C 89.242188 36.21875 89.273438 36.058594 89.21875 35.917969 C 89.160156 35.777344 89.023438 35.6875 88.871094 35.6875 L 82.027344 35.6875 C 81.820312 35.6875 81.652344 35.851562 81.652344 36.0625 L 81.652344 36.125 C 81.652344 37.347656 80.652344 38.332031 79.382812 38.332031 C 78.113281 38.332031 77.109375 37.347656 77.109375 36.125 L 77.109375 36.0625 C 77.109375 35.851562 76.945312 35.6875 76.734375 35.6875 C 75.46875 35.6875 74.464844 34.703125 74.464844 33.476562 L 74.464844 33.351562 C 74.464844 32.125 75.46875 31.144531 76.734375 31.144531 C 76.945312 31.144531 77.109375 30.976562 77.109375 30.769531 L 77.109375 30.707031 C 77.109375 29.480469 78.113281 28.496094 79.382812 28.496094 C 80.652344 28.496094 81.652344 29.480469 81.652344 30.707031 L 81.652344 30.769531 C 81.652344 30.976562 81.820312 31.144531 82.027344 31.144531 L 88.871094 31.144531 C 89.023438 31.144531 89.160156 31.050781 89.21875 30.914062 C 89.273438 30.773438 89.242188 30.609375 89.136719 30.503906 L 84.296875 25.664062 C 84.152344 25.519531 83.914062 25.519531 83.765625 25.664062 L 83.722656 25.710938 C 82.855469 26.574219 81.453125 26.5625 80.554688 25.664062 C 79.65625 24.765625 79.644531 23.363281 80.511719 22.5 L 80.554688 22.453125 C 80.625 22.382812 80.664062 22.289062 80.664062 22.1875 C 80.664062 22.089844 80.625 21.992188 80.554688 21.921875 C 79.65625 21.023438 79.644531 19.621094 80.511719 18.757812 L 80.601562 18.667969 C 81.46875 17.800781 82.871094 17.8125 83.765625 18.710938 C 83.835938 18.78125 83.933594 18.820312 84.03125 18.820312 C 84.132812 18.820312 84.226562 18.78125 84.296875 18.710938 L 84.34375 18.667969 C 85.207031 17.800781 86.613281 17.8125 87.507812 18.710938 C 88.40625 19.609375 88.421875 21.011719 87.554688 21.878906 L 87.507812 21.921875 C 87.363281 22.070312 87.363281 22.304688 87.507812 22.453125 L 92.347656 27.292969 C 92.453125 27.398438 92.617188 27.429688 92.757812 27.375 C 92.898438 27.3125 92.988281 27.179688 92.988281 27.027344 L 92.988281 20.183594 C 92.988281 19.976562 92.820312 19.808594 92.613281 19.808594 L 92.550781 19.808594 C 91.324219 19.808594 90.34375 18.808594 90.34375 17.539062 C 90.34375 16.269531 91.324219 15.265625 92.550781 15.265625 L 92.613281 15.265625 C 92.820312 15.265625 92.988281 15.097656 92.988281 14.890625 C 92.988281 13.621094 93.972656 12.621094 95.195312 12.621094 Z M 95.195312 12.621094 "/>
<path style=" stroke:none;fill-rule:nonzero;fill:url(#linear2);" d="M 85.5625 98.539062 C 84.042969 104.203125 87.382812 109.988281 93.046875 111.503906 C 98.710938 113.023438 104.492188 109.683594 106.007812 104.019531 C 108.578125 94.4375 104.164062 80.242188 102.632812 75.722656 C 99.050781 78.871094 88.300781 88.316406 85.5625 98.539062 Z M 85.5625 98.539062 "/>
<path style=" stroke:none;fill-rule:nonzero;fill:rgb(100%,100%,100%);fill-opacity:0.392157;" d="M 102.632812 75.722656 C 99.050781 78.871094 88.300781 88.316406 85.5625 98.539062 C 85.511719 98.722656 85.46875 98.90625 85.429688 99.089844 C 88.46875 89.148438 98.792969 80.074219 102.289062 77 C 103.78125 81.40625 108.015625 95.015625 105.84375 104.578125 C 105.902344 104.394531 105.957031 104.207031 106.007812 104.019531 C 108.578125 94.4375 104.164062 80.242188 102.632812 75.722656 Z M 102.632812 75.722656 "/>
<path style=" stroke:none;fill-rule:nonzero;fill:rgb(0%,0%,0%);fill-opacity:0.235294;" d="M 85.660156 98.1875 C 85.625 98.304688 85.59375 98.421875 85.5625 98.539062 C 84.042969 104.203125 87.382812 109.988281 93.046875 111.503906 C 98.710938 113.023438 104.492188 109.683594 106.007812 104.019531 C 106.039062 103.90625 106.070312 103.789062 106.097656 103.671875 C 104.464844 109.15625 98.78125 112.359375 93.21875 110.867188 C 87.648438 109.375 84.328125 103.757812 85.660156 98.1875 Z M 85.660156 98.1875 "/>
<path style=" stroke:none;fill-rule:nonzero;fill:rgb(12.941177%,12.941177%,12.941177%);fill-opacity:1;" d="M 102.726562 75.359375 C 102.605469 75.328125 102.476562 75.359375 102.386719 75.441406 C 98.804688 78.589844 87.988281 88.039062 85.199219 98.445312 C 83.628906 104.304688 87.089844 110.296875 92.949219 111.867188 C 98.804688 113.4375 104.800781 109.976562 106.371094 104.117188 C 108.992188 94.339844 104.523438 80.140625 102.988281 75.601562 C 102.949219 75.480469 102.847656 75.390625 102.726562 75.359375 Z M 102.449219 76.398438 C 104.078125 81.289062 108.09375 94.796875 105.648438 103.921875 C 104.179688 109.390625 98.613281 112.609375 93.140625 111.140625 C 87.671875 109.675781 84.457031 104.109375 85.921875 98.640625 C 88.539062 88.882812 98.585938 79.804688 102.449219 76.398438 Z M 102.449219 76.398438 "/>
<path style=" stroke:none;fill-rule:nonzero;fill:url(#linear3);" d="M 22.125 40.582031 C 20.605469 46.246094 23.945312 52.027344 29.609375 53.546875 C 35.273438 55.0625 41.054688 51.726562 42.570312 46.0625 C 45.140625 36.476562 40.726562 22.28125 39.195312 17.761719 C 35.613281 20.910156 24.863281 30.359375 22.125 40.582031 Z M 22.125 40.582031 "/>
<path style=" stroke:none;fill-rule:nonzero;fill:rgb(100%,100%,100%);fill-opacity:0.392157;" d="M 39.195312 17.761719 C 35.613281 20.910156 24.863281 30.359375 22.125 40.582031 C 22.074219 40.765625 22.03125 40.945312 21.992188 41.128906 C 25.03125 31.1875 35.355469 22.113281 38.851562 19.039062 C 40.34375 23.445312 44.578125 37.054688 42.40625 46.617188 C 42.464844 46.433594 42.523438 46.25 42.570312 46.0625 C 45.140625 36.476562 40.726562 22.28125 39.195312 17.761719 Z M 39.195312 17.761719 "/>
<path style=" stroke:none;fill-rule:nonzero;fill:rgb(0%,0%,0%);fill-opacity:0.235294;" d="M 22.222656 40.230469 C 22.1875 40.347656 22.15625 40.464844 22.125 40.582031 C 20.605469 46.246094 23.945312 52.027344 29.609375 53.546875 C 35.273438 55.0625 41.054688 51.726562 42.570312 46.0625 C 42.601562 45.945312 42.632812 45.828125 42.660156 45.710938 C 41.027344 51.199219 35.347656 54.398438 29.78125 52.90625 C 24.210938 51.414062 20.890625 45.800781 22.222656 40.230469 Z M 22.222656 40.230469 "/>
<path style=" stroke:none;fill-rule:nonzero;fill:rgb(12.941177%,12.941177%,12.941177%);fill-opacity:1;" d="M 39.289062 17.398438 C 39.167969 17.367188 39.039062 17.398438 38.949219 17.480469 C 35.367188 20.628906 24.550781 30.078125 21.761719 40.484375 C 20.191406 46.34375 23.652344 52.335938 29.511719 53.90625 C 35.371094 55.476562 41.363281 52.015625 42.933594 46.15625 C 45.554688 36.378906 41.085938 22.179688 39.550781 17.640625 C 39.511719 17.519531 39.410156 17.429688 39.289062 17.398438 Z M 39.011719 18.4375 C 40.640625 23.328125 44.65625 36.835938 42.210938 45.964844 C 40.742188 51.433594 35.175781 54.648438 29.707031 53.183594 C 24.234375 51.71875 21.019531 46.148438 22.484375 40.679688 C 25.101562 30.921875 35.148438 21.84375 39.011719 18.4375 Z M 39.011719 18.4375 "/>
</g>
</svg>
