<?xml version="1.0" encoding="UTF-8"?>
<svg xmlns="http://www.w3.org/2000/svg" xmlns:xlink="http://www.w3.org/1999/xlink" width="16pt" height="16pt" viewBox="0 0 16 16" version="1.1">
<defs>
<radialGradient id="radial0" gradientUnits="userSpaceOnUse" cx="450.908936" cy="189.579361" fx="450.908936" fy="189.579361" r="21.166656" gradientTransform="matrix(0.0000000870852,-0.0390662,-0.0703192,-0.0000000507693,22.261576,31.797665)">
<stop offset="0" style="stop-color:rgb(0%,0%,0%);stop-opacity:0.313725;"/>
<stop offset="0.222222" style="stop-color:rgb(0%,0%,0%);stop-opacity:0.27451;"/>
<stop offset="1" style="stop-color:rgb(0%,0%,0%);stop-opacity:0;"/>
</radialGradient>
<radialGradient id="radial1" gradientUnits="userSpaceOnUse" cx="450.908936" cy="189.579361" fx="450.908936" fy="189.579361" r="21.166656" gradientTransform="matrix(-0.0000000870852,0.0390662,0.0703192,0.0000000507693,-6.385059,-3.763741)">
<stop offset="0" style="stop-color:rgb(0%,0%,0%);stop-opacity:0.313725;"/>
<stop offset="0.222222" style="stop-color:rgb(0%,0%,0%);stop-opacity:0.27451;"/>
<stop offset="1" style="stop-color:rgb(0%,0%,0%);stop-opacity:0;"/>
</radialGradient>
<radialGradient id="radial2" gradientUnits="userSpaceOnUse" cx="450.908936" cy="189.579361" fx="450.908936" fy="189.579361" r="21.166656" gradientTransform="matrix(-0.0000000870852,-0.0390662,0.0703192,-0.0000000507693,-6.385059,31.797665)">
<stop offset="0" style="stop-color:rgb(0%,0%,0%);stop-opacity:0.313725;"/>
<stop offset="0.222222" style="stop-color:rgb(0%,0%,0%);stop-opacity:0.27451;"/>
<stop offset="1" style="stop-color:rgb(0%,0%,0%);stop-opacity:0;"/>
</radialGradient>
<radialGradient id="radial3" gradientUnits="userSpaceOnUse" cx="450.908936" cy="189.579361" fx="450.908936" fy="189.579361" r="21.166656" gradientTransform="matrix(0.0000000870852,0.0390662,-0.0703192,0.0000000507693,22.261575,-3.763741)">
<stop offset="0" style="stop-color:rgb(0%,0%,0%);stop-opacity:0.313725;"/>
<stop offset="0.222222" style="stop-color:rgb(0%,0%,0%);stop-opacity:0.27451;"/>
<stop offset="1" style="stop-color:rgb(0%,0%,0%);stop-opacity:0;"/>
</radialGradient>
<linearGradient id="linear0" gradientUnits="userSpaceOnUse" x1="255.323059" y1="233.5" x2="255.323044" y2="254.666656" gradientTransform="matrix(0.00668003,0,0,0.031253,6.232693,6.719392)">
<stop offset="0" style="stop-color:rgb(0%,0%,0%);stop-opacity:0.27451;"/>
<stop offset="1" style="stop-color:rgb(0%,0%,0%);stop-opacity:0;"/>
</linearGradient>
<linearGradient id="linear1" gradientUnits="userSpaceOnUse" x1="254" y1="-168.666672" x2="254" y2="233.5" >
<stop offset="0" style="stop-color:rgb(68.235294%,83.529412%,50.588235%);stop-opacity:1;"/>
<stop offset="1" style="stop-color:rgb(61.176471%,80%,39.607843%);stop-opacity:1;"/>
</linearGradient>
<radialGradient id="radial4" gradientUnits="userSpaceOnUse" cx="450.908936" cy="189.579361" fx="450.908936" fy="189.579361" r="21.166656" gradientTransform="matrix(0.0000000435426,-0.0390662,-0.0351596,-0.0000000507693,10.386577,31.797665)">
<stop offset="0" style="stop-color:rgb(0%,0%,0%);stop-opacity:0.196078;"/>
<stop offset="0.222222" style="stop-color:rgb(0%,0%,0%);stop-opacity:0.117647;"/>
<stop offset="1" style="stop-color:rgb(0%,0%,0%);stop-opacity:0;"/>
</radialGradient>
<radialGradient id="radial5" gradientUnits="userSpaceOnUse" cx="450.908936" cy="189.579361" fx="450.908936" fy="189.579361" r="21.166656" gradientTransform="matrix(-0.0000000435426,0.0390662,0.0351596,0.0000000507693,-2.779078,-3.763741)">
<stop offset="0" style="stop-color:rgb(0%,0%,0%);stop-opacity:0.196078;"/>
<stop offset="0.222222" style="stop-color:rgb(0%,0%,0%);stop-opacity:0.117647;"/>
<stop offset="1" style="stop-color:rgb(0%,0%,0%);stop-opacity:0;"/>
</radialGradient>
<radialGradient id="radial6" gradientUnits="userSpaceOnUse" cx="450.908936" cy="189.579361" fx="450.908936" fy="189.579361" r="21.166656" gradientTransform="matrix(-0.0000000435426,-0.0390662,0.0351596,-0.0000000507693,-2.779078,31.797665)">
<stop offset="0" style="stop-color:rgb(0%,0%,0%);stop-opacity:0.196078;"/>
<stop offset="0.222222" style="stop-color:rgb(0%,0%,0%);stop-opacity:0.117647;"/>
<stop offset="1" style="stop-color:rgb(0%,0%,0%);stop-opacity:0;"/>
</radialGradient>
<radialGradient id="radial7" gradientUnits="userSpaceOnUse" cx="450.908936" cy="189.579361" fx="450.908936" fy="189.579361" r="21.166656" gradientTransform="matrix(0.0000000435426,0.0390662,-0.0351596,0.0000000507693,10.386576,-3.763741)">
<stop offset="0" style="stop-color:rgb(0%,0%,0%);stop-opacity:0.196078;"/>
<stop offset="0.222222" style="stop-color:rgb(0%,0%,0%);stop-opacity:0.117647;"/>
<stop offset="1" style="stop-color:rgb(0%,0%,0%);stop-opacity:0;"/>
</radialGradient>
<linearGradient id="linear2" gradientUnits="userSpaceOnUse" x1="211.666672" y1="233.5" x2="211.666672" y2="43" gradientTransform="matrix(-0.031253,0,0,0.031253,15.876516,6.719392)">
<stop offset="0" style="stop-color:rgb(87.843137%,87.843137%,87.843137%);stop-opacity:1;"/>
<stop offset="1" style="stop-color:rgb(93.333333%,93.333333%,93.333333%);stop-opacity:1;"/>
</linearGradient>
<radialGradient id="radial8" gradientUnits="userSpaceOnUse" cx="450.908936" cy="189.579361" fx="450.908936" fy="189.579361" r="21.166656" gradientTransform="matrix(0.0000000435426,-0.0195331,-0.0351596,-0.0000000253846,18.655595,23.072686)">
<stop offset="0" style="stop-color:rgb(0%,0%,0%);stop-opacity:0.196078;"/>
<stop offset="0.222222" style="stop-color:rgb(0%,0%,0%);stop-opacity:0.117647;"/>
<stop offset="1" style="stop-color:rgb(0%,0%,0%);stop-opacity:0;"/>
</radialGradient>
<radialGradient id="radial9" gradientUnits="userSpaceOnUse" cx="450.908936" cy="189.579361" fx="450.908936" fy="189.579361" r="21.166656" gradientTransform="matrix(-0.0000000435426,0.0195331,0.0351596,0.0000000253846,5.489941,5.292002)">
<stop offset="0" style="stop-color:rgb(0%,0%,0%);stop-opacity:0.196078;"/>
<stop offset="0.222222" style="stop-color:rgb(0%,0%,0%);stop-opacity:0.117647;"/>
<stop offset="1" style="stop-color:rgb(0%,0%,0%);stop-opacity:0;"/>
</radialGradient>
<radialGradient id="radial10" gradientUnits="userSpaceOnUse" cx="450.908936" cy="189.579361" fx="450.908936" fy="189.579361" r="21.166656" gradientTransform="matrix(-0.0000000435426,-0.0195331,0.0351596,-0.0000000253846,5.489941,23.072686)">
<stop offset="0" style="stop-color:rgb(0%,0%,0%);stop-opacity:0.196078;"/>
<stop offset="0.222222" style="stop-color:rgb(0%,0%,0%);stop-opacity:0.117647;"/>
<stop offset="1" style="stop-color:rgb(0%,0%,0%);stop-opacity:0;"/>
</radialGradient>
<radialGradient id="radial11" gradientUnits="userSpaceOnUse" cx="450.908936" cy="189.579361" fx="450.908936" fy="189.579361" r="21.166656" gradientTransform="matrix(0.0000000435426,0.0195331,-0.0351596,0.0000000253846,18.655595,5.292002)">
<stop offset="0" style="stop-color:rgb(0%,0%,0%);stop-opacity:0.196078;"/>
<stop offset="0.222222" style="stop-color:rgb(0%,0%,0%);stop-opacity:0.117647;"/>
<stop offset="1" style="stop-color:rgb(0%,0%,0%);stop-opacity:0;"/>
</radialGradient>
<linearGradient id="linear3" gradientUnits="userSpaceOnUse" x1="211.666672" y1="233.5" x2="211.666672" y2="43" gradientTransform="matrix(0.031253,0,0,0.031253,0,6.719391)">
<stop offset="0" style="stop-color:rgb(87.843137%,87.843137%,87.843137%);stop-opacity:1;"/>
<stop offset="1" style="stop-color:rgb(93.333333%,93.333333%,93.333333%);stop-opacity:1;"/>
</linearGradient>
<linearGradient id="linear4" gradientUnits="userSpaceOnUse" x1="960" y1="1215.118164" x2="960" y2="495.118103" gradientTransform="matrix(0.00826902,0,0,0.00826902,0,0)">
<stop offset="0" style="stop-color:rgb(25.882353%,25.882353%,25.882353%);stop-opacity:1;"/>
<stop offset="1" style="stop-color:rgb(45.882353%,45.882353%,45.882353%);stop-opacity:1;"/>
</linearGradient>
</defs>
<g id="surface1">
<path style=" stroke:none;fill-rule:nonzero;fill:url(#radial0);" d="M 9.097656 14.015625 L 10.417969 14.015625 L 10.417969 13.355469 L 9.097656 13.355469 Z M 9.097656 14.015625 "/>
<path style=" stroke:none;fill-rule:nonzero;fill:url(#radial1);" d="M 6.78125 14.015625 L 5.457031 14.015625 L 5.457031 14.679688 L 6.78125 14.679688 Z M 6.78125 14.015625 "/>
<path style=" stroke:none;fill-rule:nonzero;fill:url(#radial2);" d="M 6.78125 14.015625 L 5.457031 14.015625 L 5.457031 13.355469 L 6.78125 13.355469 Z M 6.78125 14.015625 "/>
<path style=" stroke:none;fill-rule:nonzero;fill:url(#radial3);" d="M 9.097656 14.015625 L 10.417969 14.015625 L 10.417969 14.679688 L 9.097656 14.679688 Z M 9.097656 14.015625 "/>
<path style=" stroke:none;fill-rule:nonzero;fill:url(#linear0);" d="M 6.78125 13.851562 L 9.097656 13.851562 L 9.097656 14.679688 L 6.78125 14.679688 Z M 6.78125 13.851562 "/>
<path style="fill-rule:nonzero;fill:url(#linear1);stroke-width:3;stroke-linecap:round;stroke-linejoin:miter;stroke:rgb(20%,20%,20%);stroke-opacity:1;stroke-miterlimit:4;" d="M 253.975747 -168.629428 C 365.090136 -168.629428 455.081542 -78.638022 455.081542 32.476367 C 455.081542 143.465768 365.090136 233.457174 253.975747 233.457174 C 142.986345 233.457174 52.869951 143.465768 52.869951 32.476367 C 52.869951 -78.638022 142.986345 -168.629428 253.975747 -168.629428 Z M 253.975747 -168.629428 " transform="matrix(0.031253,0,0,0.031253,0,6.719392)"/>
<path style=" stroke:none;fill-rule:nonzero;fill:url(#radial4);" d="M 3.804688 14.015625 L 4.464844 14.015625 L 4.464844 13.355469 L 3.804688 13.355469 Z M 3.804688 14.015625 "/>
<path style=" stroke:none;fill-rule:nonzero;fill:url(#radial5);" d="M 3.804688 14.015625 L 3.140625 14.015625 L 3.140625 14.679688 L 3.804688 14.679688 Z M 3.804688 14.015625 "/>
<path style=" stroke:none;fill-rule:nonzero;fill:url(#radial6);" d="M 3.804688 14.015625 L 3.140625 14.015625 L 3.140625 13.355469 L 3.804688 13.355469 Z M 3.804688 14.015625 "/>
<path style=" stroke:none;fill-rule:nonzero;fill:url(#radial7);" d="M 3.804688 14.015625 L 4.464844 14.015625 L 4.464844 14.679688 L 3.804688 14.679688 Z M 3.804688 14.015625 "/>
<path style=" stroke:none;fill-rule:nonzero;fill:rgb(0%,0%,0%);fill-opacity:0.196078;" d="M 7.9375 14.015625 C 4.457031 14.015625 1.652344 11.214844 1.652344 7.734375 C 1.652344 7.710938 1.652344 7.691406 1.652344 7.671875 C 1.6875 11.125 4.476562 13.894531 7.9375 13.894531 C 11.398438 13.894531 14.191406 11.125 14.222656 7.671875 C 14.222656 7.691406 14.222656 7.710938 14.222656 7.734375 C 14.222656 11.214844 11.417969 14.015625 7.9375 14.015625 Z M 7.9375 14.015625 "/>
<path style=" stroke:none;fill-rule:nonzero;fill:rgb(100%,100%,100%);fill-opacity:0.392157;" d="M 7.9375 1.449219 C 4.457031 1.449219 1.652344 4.25 1.652344 7.734375 C 1.652344 7.753906 1.652344 7.773438 1.652344 7.792969 C 1.6875 4.339844 4.476562 1.570312 7.9375 1.570312 C 11.398438 1.570312 14.191406 4.339844 14.222656 7.792969 C 14.222656 7.773438 14.222656 7.753906 14.222656 7.734375 C 14.222656 4.25 11.417969 1.449219 7.9375 1.449219 Z M 7.9375 1.449219 "/>
<path style=" stroke:none;fill-rule:nonzero;fill:rgb(12.941177%,12.941177%,12.941177%);fill-opacity:1;" d="M 7.9375 1.402344 C 4.429688 1.402344 1.605469 4.226562 1.605469 7.734375 C 1.605469 11.238281 4.429688 14.0625 7.9375 14.0625 C 11.445312 14.0625 14.269531 11.238281 14.269531 7.734375 C 14.269531 4.226562 11.445312 1.402344 7.9375 1.402344 Z M 7.9375 1.496094 C 11.394531 1.496094 14.175781 4.277344 14.175781 7.734375 C 14.175781 11.1875 11.394531 13.96875 7.9375 13.96875 C 4.480469 13.96875 1.699219 11.1875 1.699219 7.734375 C 1.699219 4.277344 4.480469 1.496094 7.9375 1.496094 Z M 7.9375 1.496094 "/>
<path style=" stroke:none;fill-rule:evenodd;fill:url(#linear2);" d="M 9.261719 8.0625 L 8.351562 9.054688 L 10.914062 13.191406 L 12.074219 14.015625 L 11.90625 12.363281 Z M 9.261719 8.0625 "/>
<path style=" stroke:none;fill-rule:nonzero;fill:url(#radial8);" d="M 12.074219 14.183594 L 12.734375 14.183594 L 12.734375 13.851562 L 12.074219 13.851562 Z M 12.074219 14.183594 "/>
<path style=" stroke:none;fill-rule:nonzero;fill:url(#radial9);" d="M 12.074219 14.183594 L 11.410156 14.183594 L 11.410156 14.511719 L 12.074219 14.511719 Z M 12.074219 14.183594 "/>
<path style=" stroke:none;fill-rule:nonzero;fill:url(#radial10);" d="M 12.074219 14.183594 L 11.410156 14.183594 L 11.410156 13.851562 L 12.074219 13.851562 Z M 12.074219 14.183594 "/>
<path style=" stroke:none;fill-rule:nonzero;fill:url(#radial11);" d="M 12.074219 14.183594 L 12.734375 14.183594 L 12.734375 14.511719 L 12.074219 14.511719 Z M 12.074219 14.183594 "/>
<path style=" stroke:none;fill-rule:evenodd;fill:rgb(12.941177%,12.941177%,12.941177%);fill-opacity:1;" d="M 9.269531 7.984375 L 9.226562 8.03125 L 8.292969 9.050781 L 10.878906 13.222656 L 12.128906 14.117188 L 11.953125 12.347656 Z M 9.253906 8.140625 L 11.863281 12.378906 L 12.015625 13.917969 L 10.949219 13.15625 L 8.410156 9.0625 Z M 9.253906 8.140625 "/>
<path style=" stroke:none;fill-rule:evenodd;fill:url(#linear3);" d="M 11.578125 7.734375 C 11.578125 9.75 9.953125 11.371094 7.9375 11.371094 C 7.359375 11.371094 6.816406 11.238281 6.332031 11 L 7.441406 9.222656 L 6.613281 8.0625 L 3.96875 12.363281 L 3.804688 14.015625 L 4.960938 13.191406 L 5.625 12.125 C 6.316406 12.488281 7.101562 12.695312 7.9375 12.695312 C 10.6875 12.695312 12.898438 10.480469 12.898438 7.734375 Z M 11.578125 7.734375 "/>
<path style=" stroke:none;fill-rule:evenodd;fill:rgb(0%,0%,0%);fill-opacity:0.235294;" d="M 12.898438 7.734375 C 12.832031 10.421875 10.644531 12.570312 7.9375 12.570312 C 7.101562 12.570312 6.316406 12.363281 5.625 12 L 4.960938 13.066406 L 3.816406 13.882812 L 3.804688 14.015625 L 4.960938 13.191406 L 5.625 12.125 C 6.316406 12.488281 7.101562 12.695312 7.9375 12.695312 C 10.6875 12.695312 12.898438 10.480469 12.898438 7.734375 Z M 7.402344 9.164062 L 6.332031 10.875 C 6.351562 10.882812 6.371094 10.894531 6.390625 10.902344 L 7.441406 9.222656 Z M 7.402344 9.164062 "/>
<path style=" stroke:none;fill-rule:evenodd;fill:rgb(100%,100%,100%);fill-opacity:0.392157;" d="M 11.578125 7.734375 C 11.578125 9.75 9.953125 11.371094 7.9375 11.371094 C 7.382812 11.371094 6.859375 11.246094 6.390625 11.027344 L 6.332031 11.121094 C 6.816406 11.359375 7.359375 11.492188 7.9375 11.492188 C 9.953125 11.492188 11.578125 9.871094 11.578125 7.855469 L 12.898438 7.855469 C 12.898438 7.816406 12.898438 7.773438 12.898438 7.734375 Z M 6.613281 8.0625 L 3.96875 12.363281 L 3.804688 14.015625 L 3.816406 14.007812 L 3.96875 12.488281 L 6.613281 8.1875 L 7.402344 9.285156 L 7.441406 9.222656 Z M 6.613281 8.0625 "/>
<path style=" stroke:none;fill-rule:evenodd;fill:rgb(12.941177%,12.941177%,12.941177%);fill-opacity:1;" d="M 11.53125 7.6875 L 11.53125 7.734375 C 11.53125 9.722656 9.929688 11.324219 7.9375 11.324219 C 7.386719 11.324219 6.863281 11.199219 6.398438 10.980469 L 7.582031 9.050781 L 6.609375 7.984375 L 3.921875 12.347656 L 3.746094 14.113281 L 4.996094 13.222656 L 5.644531 12.1875 C 6.328125 12.542969 7.109375 12.742188 7.9375 12.742188 C 10.710938 12.742188 12.945312 10.507812 12.945312 7.734375 L 12.945312 7.6875 Z M 11.621094 7.78125 L 12.851562 7.78125 C 12.828125 10.480469 10.644531 12.648438 7.9375 12.648438 C 7.109375 12.648438 6.332031 12.445312 5.648438 12.085938 L 5.609375 12.066406 L 4.925781 13.15625 L 3.859375 13.917969 L 4.015625 12.378906 L 6.621094 8.140625 L 7.464844 9.0625 L 6.261719 11.019531 L 6.308594 11.042969 C 6.800781 11.28125 7.351562 11.417969 7.9375 11.417969 C 9.964844 11.417969 11.597656 9.796875 11.621094 7.78125 Z M 11.621094 7.78125 "/>
<path style=" stroke:none;fill-rule:nonzero;fill:url(#linear4);" d="M 7.9375 4.09375 C 7.570312 4.09375 7.277344 4.390625 7.277344 4.753906 L 7.277344 5.417969 L 6.945312 5.417969 C 6.578125 5.417969 6.285156 5.710938 6.285156 6.078125 L 6.285156 7.734375 L 7.9375 9.71875 L 9.59375 7.734375 L 9.59375 6.078125 C 9.59375 5.710938 9.296875 5.417969 8.929688 5.417969 L 8.601562 5.417969 L 8.601562 4.753906 C 8.601562 4.390625 8.304688 4.09375 7.9375 4.09375 Z M 7.9375 6.078125 C 8.394531 6.078125 8.765625 6.449219 8.765625 6.90625 C 8.765625 7.363281 8.394531 7.734375 7.9375 7.734375 C 7.480469 7.734375 7.113281 7.363281 7.113281 6.90625 C 7.113281 6.449219 7.480469 6.078125 7.9375 6.078125 Z M 7.9375 6.078125 "/>
<path style=" stroke:none;fill-rule:nonzero;fill:rgb(100%,100%,100%);fill-opacity:0.235294;" d="M 7.9375 4.09375 C 7.570312 4.09375 7.277344 4.390625 7.277344 4.753906 L 7.277344 4.839844 C 7.277344 4.472656 7.570312 4.175781 7.9375 4.175781 C 8.304688 4.175781 8.601562 4.472656 8.601562 4.839844 L 8.601562 4.753906 C 8.601562 4.390625 8.304688 4.09375 7.9375 4.09375 Z M 6.945312 5.417969 C 6.578125 5.417969 6.285156 5.710938 6.285156 6.078125 L 6.285156 6.160156 C 6.285156 5.792969 6.578125 5.5 6.945312 5.5 L 7.277344 5.5 L 7.277344 5.417969 Z M 8.601562 5.417969 L 8.601562 5.5 L 8.929688 5.5 C 9.296875 5.5 9.59375 5.792969 9.59375 6.160156 L 9.59375 6.078125 C 9.59375 5.710938 9.296875 5.417969 8.929688 5.417969 Z M 7.113281 6.945312 C 7.113281 6.960938 7.113281 6.972656 7.113281 6.988281 C 7.113281 7.445312 7.480469 7.816406 7.9375 7.816406 C 8.394531 7.816406 8.765625 7.445312 8.765625 6.988281 C 8.765625 6.972656 8.765625 6.960938 8.765625 6.945312 C 8.742188 7.386719 8.382812 7.734375 7.9375 7.734375 C 7.492188 7.734375 7.132812 7.386719 7.113281 6.945312 Z M 7.113281 6.945312 "/>
<path style=" stroke:none;fill-rule:nonzero;fill:rgb(0%,0%,0%);fill-opacity:0.235294;" d="M 7.9375 5.914062 C 7.480469 5.914062 7.113281 6.28125 7.113281 6.738281 C 7.113281 6.769531 7.113281 6.796875 7.117188 6.824219 C 7.15625 6.402344 7.507812 6.078125 7.9375 6.078125 C 8.367188 6.078125 8.71875 6.402344 8.761719 6.824219 C 8.765625 6.796875 8.765625 6.769531 8.765625 6.738281 C 8.765625 6.28125 8.394531 5.914062 7.9375 5.914062 Z M 6.285156 7.566406 L 6.285156 7.734375 L 7.9375 9.71875 L 9.59375 7.734375 L 9.59375 7.566406 L 7.9375 9.550781 Z M 6.285156 7.566406 "/>
<path style=" stroke:none;fill-rule:nonzero;fill:rgb(12.941177%,12.941177%,12.941177%);fill-opacity:1;" d="M 7.9375 4.046875 C 7.546875 4.046875 7.230469 4.363281 7.230469 4.753906 L 7.230469 5.371094 L 6.945312 5.371094 C 6.554688 5.371094 6.238281 5.6875 6.238281 6.078125 L 6.238281 7.75 L 7.9375 9.789062 L 9.640625 7.75 L 9.640625 6.078125 C 9.640625 5.6875 9.320312 5.371094 8.929688 5.371094 L 8.648438 5.371094 L 8.648438 4.753906 C 8.648438 4.363281 8.328125 4.046875 7.9375 4.046875 Z M 7.9375 4.140625 C 8.28125 4.140625 8.554688 4.414062 8.554688 4.753906 L 8.554688 5.464844 L 8.929688 5.464844 C 9.273438 5.464844 9.546875 5.738281 9.546875 6.078125 L 9.546875 7.714844 L 7.9375 9.644531 L 6.332031 7.714844 L 6.332031 6.078125 C 6.332031 5.738281 6.605469 5.464844 6.945312 5.464844 L 7.324219 5.464844 L 7.324219 4.753906 C 7.324219 4.414062 7.597656 4.140625 7.9375 4.140625 Z M 7.9375 6.03125 C 7.453125 6.03125 7.066406 6.421875 7.066406 6.90625 C 7.066406 7.390625 7.453125 7.78125 7.9375 7.78125 C 8.421875 7.78125 8.8125 7.390625 8.8125 6.90625 C 8.8125 6.421875 8.421875 6.03125 7.9375 6.03125 Z M 7.9375 6.125 C 8.371094 6.125 8.71875 6.472656 8.71875 6.90625 C 8.71875 7.339844 8.371094 7.6875 7.9375 7.6875 C 7.503906 7.6875 7.160156 7.339844 7.160156 6.90625 C 7.160156 6.472656 7.503906 6.125 7.9375 6.125 Z M 7.9375 6.125 "/>
</g>
</svg>
