<?xml version="1.0" encoding="UTF-8"?>
<svg xmlns="http://www.w3.org/2000/svg" xmlns:xlink="http://www.w3.org/1999/xlink" width="16px" height="16px" viewBox="0 0 16 16" version="1.1">
<defs>
<radialGradient id="radial0" gradientUnits="userSpaceOnUse" cx="450.908936" cy="189.579361" fx="450.908936" fy="189.579361" r="21.166656" gradientTransform="matrix(0.0000000870852,-0.0390662,-0.0703192,-0.0000000507693,25.238423,31.797665)">
<stop offset="0" style="stop-color:rgb(0%,0%,0%);stop-opacity:0.313726;"/>
<stop offset="0.222222" style="stop-color:rgb(0%,0%,0%);stop-opacity:0.27451;"/>
<stop offset="1" style="stop-color:rgb(0%,0%,0%);stop-opacity:0;"/>
</radialGradient>
<radialGradient id="radial1" gradientUnits="userSpaceOnUse" cx="450.908936" cy="189.579361" fx="450.908936" fy="189.579361" r="21.166656" gradientTransform="matrix(-0.0000000870852,0.0390662,0.0703192,0.0000000507693,-2.41593,-3.763741)">
<stop offset="0" style="stop-color:rgb(0%,0%,0%);stop-opacity:0.313726;"/>
<stop offset="0.222222" style="stop-color:rgb(0%,0%,0%);stop-opacity:0.27451;"/>
<stop offset="1" style="stop-color:rgb(0%,0%,0%);stop-opacity:0;"/>
</radialGradient>
<radialGradient id="radial2" gradientUnits="userSpaceOnUse" cx="450.908936" cy="189.579361" fx="450.908936" fy="189.579361" r="21.166656" gradientTransform="matrix(-0.0000000870852,-0.0390662,0.0703192,-0.0000000507693,-2.41593,31.797665)">
<stop offset="0" style="stop-color:rgb(0%,0%,0%);stop-opacity:0.313726;"/>
<stop offset="0.222222" style="stop-color:rgb(0%,0%,0%);stop-opacity:0.27451;"/>
<stop offset="1" style="stop-color:rgb(0%,0%,0%);stop-opacity:0;"/>
</radialGradient>
<radialGradient id="radial3" gradientUnits="userSpaceOnUse" cx="450.908936" cy="189.579361" fx="450.908936" fy="189.579361" r="21.166656" gradientTransform="matrix(0.0000000870852,0.0390662,-0.0703192,0.0000000507693,25.238422,-3.763741)">
<stop offset="0" style="stop-color:rgb(0%,0%,0%);stop-opacity:0.313726;"/>
<stop offset="0.222222" style="stop-color:rgb(0%,0%,0%);stop-opacity:0.27451;"/>
<stop offset="1" style="stop-color:rgb(0%,0%,0%);stop-opacity:0;"/>
</radialGradient>
<linearGradient id="linear0" gradientUnits="userSpaceOnUse" x1="255.323059" y1="233.5" x2="255.323044" y2="254.666656" gradientTransform="matrix(0.00668003,0,0,0.031253,9.705681,6.719392)">
<stop offset="0" style="stop-color:rgb(0%,0%,0%);stop-opacity:0.27451;"/>
<stop offset="1" style="stop-color:rgb(0%,0%,0%);stop-opacity:0;"/>
</linearGradient>
<linearGradient id="linear1" gradientUnits="userSpaceOnUse" x1="254" y1="148.833328" x2="254" y2="-168.666656" gradientTransform="matrix(0.0301881,-0.00808887,0.00808887,0.0301881,0.350704,10.087723)">
<stop offset="0" style="stop-color:rgb(74.117649%,74.117649%,74.117649%);stop-opacity:1;"/>
<stop offset="1" style="stop-color:rgb(87.843138%,87.843138%,87.843138%);stop-opacity:1;"/>
</linearGradient>
<linearGradient id="linear2" gradientUnits="userSpaceOnUse" x1="254" y1="127.666656" x2="254" y2="-147.5" gradientTransform="matrix(0.0301881,-0.00808887,0.00808887,0.0301881,0.350704,10.087723)">
<stop offset="0" style="stop-color:rgb(16.078432%,71.372551%,96.470588%);stop-opacity:1;"/>
<stop offset="1" style="stop-color:rgb(30.980393%,76.47059%,96.862745%);stop-opacity:1;"/>
</linearGradient>
<linearGradient id="linear3" gradientUnits="userSpaceOnUse" x1="960" y1="1295.118164" x2="960" y2="255.118118" gradientTransform="matrix(0.00798726,-0.00214018,0.00214018,0.00798726,-1.388402,3.597289)">
<stop offset="0" style="stop-color:rgb(25.882354%,25.882354%,25.882354%);stop-opacity:1;"/>
<stop offset="1" style="stop-color:rgb(38.039216%,38.039216%,38.039216%);stop-opacity:1;"/>
</linearGradient>
<linearGradient id="linear4" gradientUnits="userSpaceOnUse" x1="960" y1="1295.118164" x2="960" y2="255.118118" gradientTransform="matrix(0.00798726,-0.00214018,0.00214018,0.00798726,-1.388402,3.597289)">
<stop offset="0" style="stop-color:rgb(87.843138%,87.843138%,87.843138%);stop-opacity:1;"/>
<stop offset="1" style="stop-color:rgb(93.333334%,93.333334%,93.333334%);stop-opacity:1;"/>
</linearGradient>
<linearGradient id="linear5" gradientUnits="userSpaceOnUse" x1="301.625" y1="-84" x2="301.625" y2="-136.916672" gradientTransform="matrix(0.0301881,-0.00808887,0.00808887,0.0301881,2.672743,9.807963)">
<stop offset="0" style="stop-color:rgb(100%,65.490198%,14.901961%);stop-opacity:1;"/>
<stop offset="1" style="stop-color:rgb(100%,71.764708%,30.19608%);stop-opacity:1;"/>
</linearGradient>
<linearGradient id="linear6" gradientUnits="userSpaceOnUse" x1="254" y1="148.833328" x2="254" y2="-168.666656" gradientTransform="matrix(0.031253,0,0,0.031253,0,6.719392)">
<stop offset="0" style="stop-color:rgb(74.117649%,74.117649%,74.117649%);stop-opacity:1;"/>
<stop offset="1" style="stop-color:rgb(87.843138%,87.843138%,87.843138%);stop-opacity:1;"/>
</linearGradient>
<linearGradient id="linear7" gradientUnits="userSpaceOnUse" x1="254" y1="127.666656" x2="254" y2="-147.5" gradientTransform="matrix(0.031253,0,0,0.031253,0,6.719392)">
<stop offset="0" style="stop-color:rgb(47.450981%,52.549022%,79.607844%);stop-opacity:1;"/>
<stop offset="1" style="stop-color:rgb(36.078432%,41.960785%,75.294119%);stop-opacity:1;"/>
</linearGradient>
<linearGradient id="linear8" gradientUnits="userSpaceOnUse" x1="301.625" y1="-84" x2="301.625" y2="-136.916672" gradientTransform="matrix(0.031253,0,0,0.031253,0.33076,7.711674)">
<stop offset="0" style="stop-color:rgb(100%,65.490198%,14.901961%);stop-opacity:1;"/>
<stop offset="1" style="stop-color:rgb(100%,71.764708%,30.19608%);stop-opacity:1;"/>
</linearGradient>
<linearGradient id="linear9" gradientUnits="userSpaceOnUse" x1="960" y1="1295.118164" x2="960" y2="255.118118" gradientTransform="matrix(0.00826902,0,0,0.00826902,0,0)">
<stop offset="0" style="stop-color:rgb(25.882354%,25.882354%,25.882354%);stop-opacity:1;"/>
<stop offset="1" style="stop-color:rgb(38.039216%,38.039216%,38.039216%);stop-opacity:1;"/>
</linearGradient>
<linearGradient id="linear10" gradientUnits="userSpaceOnUse" x1="960" y1="1295.118164" x2="960" y2="255.118118" gradientTransform="matrix(0.00826902,0,0,0.00826902,0,0)">
<stop offset="0" style="stop-color:rgb(56.470591%,64.313728%,68.235296%);stop-opacity:1;"/>
<stop offset="1" style="stop-color:rgb(69.01961%,74.509805%,77.254903%);stop-opacity:1;"/>
</linearGradient>
<linearGradient id="linear11" gradientUnits="userSpaceOnUse" x1="359.833344" y1="191.166672" x2="359.833344" y2="90.625" gradientTransform="matrix(1,0,0,1,0,-281.791656)">
<stop offset="0" style="stop-color:rgb(25.882354%,25.882354%,25.882354%);stop-opacity:1;"/>
<stop offset="1" style="stop-color:rgb(38.039216%,38.039216%,38.039216%);stop-opacity:1;"/>
</linearGradient>
<linearGradient id="linear12" gradientUnits="userSpaceOnUse" x1="959.999939" y1="1375.118164" x2="960" y2="495.118103" gradientTransform="matrix(0.0065601,0,0,0.0065601,4.925764,4.98063)">
<stop offset="0" style="stop-color:rgb(74.117649%,74.117649%,74.117649%);stop-opacity:1;"/>
<stop offset="1" style="stop-color:rgb(87.843138%,87.843138%,87.843138%);stop-opacity:1;"/>
</linearGradient>
</defs>
<g id="surface1">
<path style=" stroke:none;fill-rule:nonzero;fill:url(#radial0);" d="M 12.074219 14.015625 L 13.394531 14.015625 L 13.394531 13.355469 L 12.074219 13.355469 Z M 12.074219 14.015625 "/>
<path style=" stroke:none;fill-rule:nonzero;fill:url(#radial1);" d="M 10.75 14.015625 L 9.425781 14.015625 L 9.425781 14.679688 L 10.75 14.679688 Z M 10.75 14.015625 "/>
<path style=" stroke:none;fill-rule:nonzero;fill:url(#radial2);" d="M 10.75 14.015625 L 9.425781 14.015625 L 9.425781 13.355469 L 10.75 13.355469 Z M 10.75 14.015625 "/>
<path style=" stroke:none;fill-rule:nonzero;fill:url(#radial3);" d="M 12.074219 14.015625 L 13.394531 14.015625 L 13.394531 14.679688 L 12.074219 14.679688 Z M 12.074219 14.015625 "/>
<path style=" stroke:none;fill-rule:nonzero;fill:url(#linear0);" d="M 10.75 13.851562 L 12.074219 13.851562 L 12.074219 14.679688 L 10.75 14.679688 Z M 10.75 13.851562 "/>
<path style=" stroke:none;fill-rule:nonzero;fill:url(#linear1);" d="M 0.902344 4.480469 L 12.40625 1.402344 C 12.757812 1.304688 13.121094 1.515625 13.214844 1.867188 L 15.441406 10.175781 C 15.535156 10.527344 15.324219 10.890625 14.972656 10.984375 L 3.472656 14.066406 C 3.117188 14.160156 2.757812 13.953125 2.660156 13.597656 L 0.4375 5.292969 C 0.339844 4.941406 0.550781 4.578125 0.902344 4.480469 Z M 0.902344 4.480469 "/>
<path style=" stroke:none;fill-rule:nonzero;fill:url(#linear2);" d="M 1.394531 5.035156 L 12.257812 2.125 C 12.433594 2.078125 12.613281 2.183594 12.660156 2.359375 L 14.714844 10.027344 C 14.761719 10.203125 14.660156 10.382812 14.484375 10.433594 L 3.621094 13.34375 C 3.445312 13.390625 3.261719 13.285156 3.214844 13.109375 L 1.160156 5.441406 C 1.113281 5.265625 1.21875 5.082031 1.394531 5.035156 Z M 1.394531 5.035156 "/>
<path style=" stroke:none;fill-rule:nonzero;fill:rgb(100%,100%,100%);fill-opacity:1;" d="M 0.902344 4.480469 C 0.550781 4.578125 0.339844 4.9375 0.4375 5.292969 L 0.492188 5.5 C 0.394531 5.144531 0.605469 4.785156 0.957031 4.691406 L 12.460938 1.609375 C 12.816406 1.511719 13.175781 1.722656 13.269531 2.074219 L 13.214844 1.867188 C 13.121094 1.515625 12.757812 1.304688 12.40625 1.402344 Z M 0.902344 4.480469 "/>
<path style=" stroke:none;fill-rule:nonzero;fill:rgb(0%,0%,0%);fill-opacity:0.235294;" d="M 3.472656 14.066406 C 3.117188 14.160156 2.757812 13.953125 2.660156 13.597656 L 2.605469 13.390625 C 2.699219 13.746094 3.0625 13.953125 3.414062 13.859375 L 14.917969 10.777344 C 15.273438 10.683594 15.480469 10.320312 15.386719 9.96875 L 15.441406 10.175781 C 15.535156 10.527344 15.328125 10.890625 14.972656 10.984375 Z M 3.472656 14.066406 "/>
<path style=" stroke:none;fill-rule:nonzero;fill:url(#linear3);" d="M 4.863281 6.503906 C 4.78125 6.527344 4.710938 6.582031 4.671875 6.65625 L 2.496094 10.425781 L 3.214844 13.109375 C 3.261719 13.285156 3.441406 13.390625 3.621094 13.34375 L 14.484375 10.433594 C 14.660156 10.382812 14.765625 10.203125 14.714844 10.027344 L 14.011719 7.402344 L 11.109375 5.945312 C 10.945312 5.863281 10.746094 5.929688 10.667969 6.09375 L 9.269531 8.933594 L 5.117188 6.535156 C 5.042969 6.492188 4.949219 6.480469 4.863281 6.503906 Z M 4.863281 6.503906 "/>
<path style="fill:none;stroke-width:3;stroke-linecap:round;stroke-linejoin:round;stroke:rgb(12.941177%,12.941177%,12.941177%);stroke-opacity:1;stroke-miterlimit:4;" d="M 63.485362 -168.733219 L 444.524095 -168.599165 C 456.198455 -168.705958 465.679409 -159.178098 465.665474 -147.536087 L 465.674174 127.694016 C 465.660239 139.336027 456.132378 148.816981 444.490367 148.803046 L 63.540014 148.82207 C 51.777273 148.775785 42.3847 139.401003 42.310255 127.605913 L 42.389934 -147.471111 C 42.283141 -159.145471 51.811001 -168.626425 63.485362 -168.733219 Z M 63.485362 -168.733219 " transform="matrix(0.0301881,-0.00808887,0.00808887,0.0301881,0.350704,10.087723)"/>
<path style="fill:none;stroke-width:3;stroke-linecap:round;stroke-linejoin:round;stroke:rgb(12.941177%,12.941177%,12.941177%);stroke-opacity:1;stroke-miterlimit:4;" d="M 74.103641 -147.513662 L 433.951767 -147.493536 C 439.772772 -147.486568 444.452884 -142.738812 444.445917 -136.917807 L 444.447816 117.089338 C 444.440849 122.910344 439.813822 127.622806 433.960467 127.736567 L 74.112342 127.716441 C 68.291337 127.709473 63.490495 122.929368 63.497463 117.108363 L 63.495563 -136.898783 C 63.502531 -142.719788 68.282636 -147.52063 74.103641 -147.513662 Z M 74.103641 -147.513662 " transform="matrix(0.0301881,-0.00808887,0.00808887,0.0301881,0.350704,10.087723)"/>
<path style=" stroke:none;fill-rule:nonzero;fill:url(#linear4);" d="M 4.863281 6.503906 C 4.78125 6.527344 4.710938 6.582031 4.671875 6.65625 L 3.757812 8.238281 L 4.222656 8.558594 C 4.425781 8.675781 4.890625 8.558594 5.296875 8.097656 C 5.527344 7.699219 5.917969 7.625 6.253906 7.84375 C 6.71875 8.085938 7.050781 7.972656 7.429688 7.871094 L 5.117188 6.535156 C 5.042969 6.492188 4.949219 6.480469 4.863281 6.503906 Z M 10.871094 5.921875 C 10.785156 5.949219 10.710938 6.007812 10.667969 6.09375 L 10.152344 7.140625 L 10.175781 7.132812 C 10.261719 7.242188 10.40625 7.671875 10.578125 7.367188 C 10.878906 6.851562 10.996094 7 11.199219 7.117188 C 11.5 7.292969 11.726562 7.488281 11.941406 7.34375 C 12.300781 7.078125 12.265625 6.664062 12 6.390625 L 11.109375 5.945312 C 11.03125 5.90625 10.949219 5.902344 10.871094 5.921875 Z M 10.871094 5.921875 "/>
<path style=" stroke:none;fill-rule:nonzero;fill:url(#linear5);" d="M 10.671875 3.234375 C 11.113281 3.117188 11.566406 3.378906 11.683594 3.820312 C 11.800781 4.261719 11.539062 4.714844 11.097656 4.832031 C 10.65625 4.949219 10.203125 4.6875 10.085938 4.246094 C 9.96875 3.804688 10.230469 3.351562 10.671875 3.234375 Z M 10.671875 3.234375 "/>
<path style=" stroke:none;fill-rule:nonzero;fill:url(#linear6);" d="M 1.984375 1.449219 L 13.890625 1.449219 C 14.257812 1.449219 14.554688 1.746094 14.554688 2.109375 L 14.554688 10.710938 C 14.554688 11.074219 14.257812 11.371094 13.890625 11.371094 L 1.984375 11.371094 C 1.621094 11.371094 1.324219 11.074219 1.324219 10.710938 L 1.324219 2.109375 C 1.324219 1.746094 1.621094 1.449219 1.984375 1.449219 Z M 1.984375 1.449219 "/>
<path style=" stroke:none;fill-rule:nonzero;fill:url(#linear7);" d="M 2.316406 2.109375 L 13.5625 2.109375 C 13.742188 2.109375 13.890625 2.257812 13.890625 2.441406 L 13.890625 10.378906 C 13.890625 10.5625 13.742188 10.710938 13.5625 10.710938 L 2.316406 10.710938 C 2.132812 10.710938 1.984375 10.5625 1.984375 10.378906 L 1.984375 2.441406 C 1.984375 2.257812 2.132812 2.109375 2.316406 2.109375 Z M 2.316406 2.109375 "/>
<path style=" stroke:none;fill-rule:nonzero;fill:rgb(100%,100%,100%);fill-opacity:1;" d="M 1.984375 1.449219 C 1.617188 1.449219 1.324219 1.742188 1.324219 2.109375 L 1.324219 2.324219 C 1.324219 1.957031 1.617188 1.664062 1.984375 1.664062 L 13.890625 1.664062 C 14.257812 1.664062 14.554688 1.957031 14.554688 2.324219 L 14.554688 2.109375 C 14.554688 1.742188 14.257812 1.449219 13.890625 1.449219 Z M 1.984375 1.449219 "/>
<path style=" stroke:none;fill-rule:nonzero;fill:rgb(0%,0%,0%);fill-opacity:0.235294;" d="M 1.984375 11.371094 C 1.617188 11.371094 1.324219 11.074219 1.324219 10.710938 L 1.324219 10.496094 C 1.324219 10.859375 1.617188 11.15625 1.984375 11.15625 L 13.890625 11.15625 C 14.257812 11.15625 14.554688 10.859375 14.554688 10.496094 L 14.554688 10.710938 C 14.554688 11.074219 14.257812 11.371094 13.890625 11.371094 Z M 1.984375 11.371094 "/>
<path style=" stroke:none;fill-rule:nonzero;fill:url(#linear8);" d="M 9.757812 3.433594 C 10.214844 3.433594 10.585938 3.804688 10.585938 4.257812 C 10.585938 4.714844 10.214844 5.085938 9.757812 5.085938 C 9.300781 5.085938 8.929688 4.714844 8.929688 4.257812 C 8.929688 3.804688 9.300781 3.433594 9.757812 3.433594 Z M 9.757812 3.433594 "/>
<path style=" stroke:none;fill-rule:nonzero;fill:url(#linear9);" d="M 5.289062 4.425781 C 5.203125 4.429688 5.121094 4.464844 5.058594 4.523438 L 1.984375 7.597656 L 1.984375 10.378906 C 1.984375 10.5625 2.132812 10.710938 2.316406 10.710938 L 13.5625 10.710938 C 13.746094 10.710938 13.890625 10.5625 13.890625 10.378906 L 13.890625 7.660156 L 11.464844 5.503906 C 11.328125 5.382812 11.117188 5.394531 11 5.53125 L 8.914062 7.914062 L 5.523438 4.523438 C 5.460938 4.460938 5.375 4.425781 5.289062 4.425781 Z M 5.289062 4.425781 "/>
<path style="fill:none;stroke-width:3;stroke-linecap:round;stroke-linejoin:round;stroke:rgb(12.941177%,12.941177%,12.941177%);stroke-opacity:1;stroke-miterlimit:4;" d="M 63.493937 -168.629428 L 444.457556 -168.629428 C 456.206434 -168.629428 465.705527 -159.130335 465.705527 -147.506445 L 465.705527 127.717272 C 465.705527 139.341162 456.206434 148.840255 444.457556 148.840255 L 63.493937 148.840255 C 51.870047 148.840255 42.370954 139.341162 42.370954 127.717272 L 42.370954 -147.506445 C 42.370954 -159.130335 51.870047 -168.629428 63.493937 -168.629428 Z M 63.493937 -168.629428 " transform="matrix(0.031253,0,0,0.031253,0,6.719392)"/>
<path style="fill:none;stroke-width:3;stroke-linecap:round;stroke-linejoin:round;stroke:rgb(12.941177%,12.941177%,12.941177%);stroke-opacity:1;stroke-miterlimit:4;" d="M 74.117922 -147.506445 L 433.958559 -147.506445 C 439.70801 -147.506445 444.457556 -142.756899 444.457556 -136.88246 L 444.457556 117.093287 C 444.457556 122.967726 439.70801 127.717272 433.958559 127.717272 L 74.117922 127.717272 C 68.243483 127.717272 63.493937 122.967726 63.493937 117.093287 L 63.493937 -136.88246 C 63.493937 -142.756899 68.243483 -147.506445 74.117922 -147.506445 Z M 74.117922 -147.506445 " transform="matrix(0.031253,0,0,0.031253,0,6.719392)"/>
<path style=" stroke:none;fill-rule:nonzero;fill:url(#linear10);" d="M 5.289062 4.425781 C 5.203125 4.429688 5.121094 4.464844 5.058594 4.523438 L 3.769531 5.8125 L 4.132812 6.242188 C 4.300781 6.410156 4.78125 6.417969 5.292969 6.078125 C 5.621094 5.753906 6.015625 5.78125 6.285156 6.078125 C 6.667969 6.433594 7.019531 6.410156 7.410156 6.410156 L 5.523438 4.523438 C 5.460938 4.460938 5.375 4.425781 5.289062 4.425781 Z M 11.242188 5.417969 C 11.152344 5.421875 11.0625 5.460938 11 5.53125 L 10.230469 6.410156 L 10.253906 6.410156 C 10.3125 6.535156 10.335938 6.988281 10.585938 6.738281 C 11.007812 6.316406 11.082031 6.492188 11.246094 6.65625 C 11.492188 6.90625 11.660156 7.152344 11.90625 7.070312 C 12.320312 6.90625 12.394531 6.496094 12.210938 6.164062 L 11.464844 5.503906 C 11.398438 5.445312 11.320312 5.417969 11.242188 5.417969 Z M 11.242188 5.417969 "/>
<path style="fill-rule:nonzero;fill:url(#linear11);stroke-width:3;stroke-linecap:round;stroke-linejoin:round;stroke:rgb(12.941177%,12.941177%,12.941177%);stroke-opacity:1;stroke-miterlimit:4;" d="M 359.840637 -185.836722 C 384.713262 -185.836722 404.83634 -165.713644 404.83634 -140.841019 C 404.83634 -116.093382 384.713262 -95.970304 359.840637 -95.970304 C 334.968012 -95.970304 314.844934 -116.093382 314.844934 -140.841019 C 314.844934 -165.713644 334.968012 -185.836722 359.840637 -185.836722 Z M 359.840637 -185.836722 " transform="matrix(0.031253,0,0,-0.031253,0,6.719392)"/>
<path style=" stroke:none;fill-rule:nonzero;fill:url(#linear12);" d="M 10.960938 8.230469 C 10.816406 8.230469 10.699219 8.34375 10.699219 8.492188 L 10.699219 9.082031 C 10.503906 9.128906 10.324219 9.207031 10.15625 9.304688 L 9.738281 8.886719 C 9.636719 8.785156 9.472656 8.785156 9.367188 8.886719 L 8.996094 9.257812 C 8.894531 9.363281 8.894531 9.527344 8.996094 9.628906 L 9.414062 10.046875 C 9.316406 10.214844 9.238281 10.398438 9.191406 10.589844 L 8.597656 10.589844 C 8.453125 10.589844 8.335938 10.707031 8.335938 10.851562 L 8.335938 11.378906 C 8.335938 11.523438 8.453125 11.640625 8.597656 11.640625 L 9.191406 11.640625 C 9.238281 11.832031 9.316406 12.015625 9.414062 12.183594 L 8.996094 12.597656 C 8.894531 12.703125 8.894531 12.867188 8.996094 12.96875 L 9.367188 13.339844 C 9.472656 13.445312 9.636719 13.445312 9.738281 13.339844 L 10.15625 12.925781 C 10.324219 13.023438 10.503906 13.097656 10.699219 13.148438 L 10.699219 13.738281 C 10.699219 13.882812 10.816406 14 10.960938 14 L 11.484375 14 C 11.632812 14 11.75 13.882812 11.75 13.738281 L 11.75 13.148438 C 11.941406 13.097656 12.125 13.023438 12.289062 12.925781 L 12.707031 13.339844 C 12.8125 13.445312 12.976562 13.445312 13.078125 13.339844 L 13.449219 12.96875 C 13.554688 12.867188 13.554688 12.703125 13.449219 12.597656 L 13.03125 12.183594 C 13.132812 12.015625 13.207031 11.832031 13.257812 11.640625 L 13.847656 11.640625 C 13.992188 11.640625 14.109375 11.523438 14.109375 11.378906 L 14.109375 10.851562 C 14.109375 10.707031 13.992188 10.589844 13.847656 10.589844 L 13.257812 10.589844 C 13.207031 10.398438 13.132812 10.214844 13.03125 10.046875 L 13.449219 9.628906 C 13.554688 9.527344 13.554688 9.363281 13.449219 9.257812 L 13.078125 8.886719 C 12.976562 8.785156 12.8125 8.785156 12.707031 8.886719 L 12.289062 9.304688 C 12.125 9.207031 11.941406 9.128906 11.75 9.082031 L 11.75 8.492188 C 11.75 8.34375 11.632812 8.230469 11.484375 8.230469 Z M 11.222656 9.804688 C 11.949219 9.804688 12.535156 10.386719 12.535156 11.113281 C 12.535156 11.84375 11.949219 12.425781 11.222656 12.425781 C 10.496094 12.425781 9.910156 11.84375 9.910156 11.113281 C 9.910156 10.386719 10.496094 9.804688 11.222656 9.804688 Z M 11.222656 9.804688 "/>
<path style=" stroke:none;fill-rule:nonzero;fill:rgb(100%,100%,100%);fill-opacity:0.964516;" d="M 10.960938 8.230469 C 10.816406 8.230469 10.699219 8.34375 10.699219 8.492188 L 10.699219 8.65625 C 10.699219 8.511719 10.816406 8.394531 10.960938 8.394531 L 11.484375 8.394531 C 11.632812 8.394531 11.75 8.511719 11.75 8.65625 L 11.75 8.492188 C 11.75 8.34375 11.632812 8.230469 11.484375 8.230469 Z M 9.554688 8.8125 C 9.488281 8.8125 9.417969 8.835938 9.367188 8.886719 L 8.996094 9.257812 C 8.925781 9.332031 8.902344 9.4375 8.933594 9.527344 C 8.945312 9.492188 8.96875 9.453125 8.996094 9.425781 L 9.367188 9.054688 C 9.472656 8.949219 9.636719 8.949219 9.738281 9.054688 L 10.15625 9.472656 C 10.324219 9.371094 10.503906 9.296875 10.699219 9.246094 L 10.699219 9.082031 C 10.503906 9.128906 10.324219 9.207031 10.15625 9.304688 L 9.738281 8.886719 C 9.6875 8.835938 9.621094 8.8125 9.554688 8.8125 Z M 12.894531 8.8125 C 12.828125 8.8125 12.757812 8.835938 12.707031 8.886719 L 12.289062 9.304688 C 12.125 9.207031 11.941406 9.128906 11.75 9.082031 L 11.75 9.246094 C 11.941406 9.296875 12.125 9.371094 12.289062 9.472656 L 12.707031 9.054688 C 12.8125 8.949219 12.976562 8.949219 13.078125 9.054688 L 13.449219 9.425781 C 13.480469 9.453125 13.5 9.492188 13.515625 9.527344 C 13.542969 9.4375 13.523438 9.332031 13.449219 9.257812 L 13.078125 8.886719 C 13.027344 8.835938 12.960938 8.8125 12.894531 8.8125 Z M 9.355469 10.15625 C 9.285156 10.292969 9.230469 10.4375 9.191406 10.589844 L 8.597656 10.589844 C 8.453125 10.589844 8.335938 10.707031 8.335938 10.851562 L 8.335938 11.019531 C 8.335938 10.871094 8.453125 10.753906 8.597656 10.753906 L 9.191406 10.753906 C 9.238281 10.5625 9.316406 10.378906 9.414062 10.214844 Z M 13.089844 10.15625 L 13.03125 10.214844 C 13.132812 10.378906 13.207031 10.5625 13.257812 10.753906 L 13.847656 10.753906 C 13.992188 10.753906 14.109375 10.871094 14.109375 11.019531 L 14.109375 10.851562 C 14.109375 10.707031 13.992188 10.589844 13.847656 10.589844 L 13.257812 10.589844 C 13.21875 10.4375 13.164062 10.292969 13.089844 10.15625 Z M 9.914062 11.199219 C 9.914062 11.226562 9.910156 11.253906 9.910156 11.28125 C 9.910156 12.007812 10.496094 12.59375 11.222656 12.59375 C 11.949219 12.59375 12.535156 12.007812 12.535156 11.28125 C 12.535156 11.253906 12.535156 11.226562 12.53125 11.199219 C 12.492188 11.886719 11.921875 12.425781 11.222656 12.425781 C 10.523438 12.425781 9.957031 11.886719 9.914062 11.199219 Z M 9.355469 12.242188 L 8.996094 12.597656 C 8.925781 12.671875 8.902344 12.777344 8.933594 12.867188 C 8.945312 12.832031 8.96875 12.792969 8.996094 12.765625 L 9.414062 12.347656 C 9.394531 12.3125 9.375 12.277344 9.355469 12.242188 Z M 13.089844 12.242188 C 13.074219 12.277344 13.054688 12.3125 13.03125 12.347656 L 13.449219 12.765625 C 13.480469 12.792969 13.5 12.832031 13.515625 12.867188 C 13.542969 12.777344 13.523438 12.671875 13.449219 12.597656 Z M 13.089844 12.242188 "/>
<path style=" stroke:none;fill-rule:nonzero;fill:rgb(0%,0%,0%);fill-opacity:0.235294;" d="M 8.925781 9.390625 C 8.90625 9.476562 8.929688 9.566406 8.996094 9.628906 L 9.375 10.007812 C 9.386719 9.984375 9.402344 9.960938 9.414062 9.9375 L 8.996094 9.523438 C 8.960938 9.484375 8.9375 9.4375 8.925781 9.390625 Z M 13.519531 9.390625 C 13.511719 9.4375 13.488281 9.484375 13.449219 9.523438 L 13.03125 9.9375 C 13.046875 9.960938 13.058594 9.984375 13.070312 10.007812 L 13.449219 9.628906 C 13.515625 9.566406 13.539062 9.476562 13.519531 9.390625 Z M 11.222656 9.695312 C 10.496094 9.695312 9.910156 10.28125 9.910156 11.007812 C 9.910156 11.023438 9.910156 11.042969 9.914062 11.0625 C 9.941406 10.359375 10.515625 9.804688 11.222656 9.804688 C 11.933594 9.804688 12.507812 10.359375 12.535156 11.0625 C 12.535156 11.042969 12.535156 11.023438 12.535156 11.007812 C 12.535156 10.28125 11.949219 9.695312 11.222656 9.695312 Z M 8.335938 11.269531 L 8.335938 11.378906 C 8.335938 11.523438 8.453125 11.640625 8.597656 11.640625 L 9.191406 11.640625 C 9.234375 11.804688 9.296875 11.964844 9.375 12.113281 L 9.414062 12.074219 C 9.316406 11.90625 9.238281 11.722656 9.191406 11.53125 L 8.597656 11.53125 C 8.453125 11.53125 8.335938 11.414062 8.335938 11.269531 Z M 14.109375 11.269531 C 14.109375 11.414062 13.992188 11.53125 13.847656 11.53125 L 13.257812 11.53125 C 13.207031 11.722656 13.132812 11.90625 13.03125 12.074219 L 13.070312 12.113281 C 13.152344 11.964844 13.214844 11.804688 13.257812 11.640625 L 13.847656 11.640625 C 13.992188 11.640625 14.109375 11.523438 14.109375 11.378906 Z M 8.925781 12.730469 C 8.90625 12.816406 8.929688 12.90625 8.996094 12.96875 L 9.367188 13.339844 C 9.472656 13.445312 9.636719 13.445312 9.738281 13.339844 L 10.15625 12.925781 C 10.324219 13.023438 10.503906 13.097656 10.699219 13.148438 L 10.699219 13.039062 C 10.503906 12.992188 10.324219 12.914062 10.15625 12.816406 L 9.738281 13.234375 C 9.636719 13.335938 9.472656 13.335938 9.367188 13.234375 L 8.996094 12.863281 C 8.960938 12.824219 8.9375 12.777344 8.925781 12.730469 Z M 13.519531 12.730469 C 13.511719 12.777344 13.488281 12.824219 13.449219 12.863281 L 13.078125 13.234375 C 12.976562 13.335938 12.8125 13.335938 12.707031 13.234375 L 12.289062 12.816406 C 12.125 12.914062 11.941406 12.992188 11.75 13.039062 L 11.75 13.148438 C 11.941406 13.097656 12.125 13.023438 12.289062 12.925781 L 12.707031 13.339844 C 12.8125 13.445312 12.976562 13.445312 13.078125 13.339844 L 13.449219 12.96875 C 13.515625 12.90625 13.539062 12.816406 13.519531 12.730469 Z M 10.699219 13.628906 L 10.699219 13.738281 C 10.699219 13.882812 10.816406 14 10.960938 14 L 11.484375 14 C 11.632812 14 11.75 13.882812 11.75 13.738281 L 11.75 13.628906 C 11.75 13.777344 11.632812 13.894531 11.484375 13.894531 L 10.960938 13.894531 C 10.816406 13.894531 10.699219 13.777344 10.699219 13.628906 Z M 10.699219 13.628906 "/>
<path style=" stroke:none;fill-rule:nonzero;fill:rgb(0%,0%,0%);fill-opacity:0.235294;" d="M 8.9375 9.535156 C 8.949219 9.570312 8.96875 9.601562 8.996094 9.628906 L 9.414062 10.046875 L 8.996094 9.628906 C 8.96875 9.601562 8.949219 9.570312 8.9375 9.535156 Z M 13.511719 9.535156 C 13.496094 9.570312 13.476562 9.601562 13.449219 9.628906 L 13.03125 10.046875 C 13.035156 10.046875 13.035156 10.046875 13.035156 10.046875 L 13.449219 9.628906 C 13.476562 9.601562 13.5 9.570312 13.511719 9.535156 Z M 11.222656 9.800781 C 10.496094 9.800781 9.910156 10.386719 9.910156 11.113281 C 9.910156 11.144531 9.914062 11.175781 9.914062 11.203125 C 9.960938 10.519531 10.527344 9.984375 11.222656 9.984375 C 11.917969 9.984375 12.484375 10.519531 12.53125 11.203125 C 12.535156 11.175781 12.535156 11.144531 12.535156 11.113281 C 12.535156 10.386719 11.949219 9.800781 11.222656 9.800781 Z M 8.335938 11.375 L 8.335938 11.378906 C 8.335938 11.523438 8.453125 11.640625 8.597656 11.640625 L 9.191406 11.640625 C 9.238281 11.832031 9.316406 12.015625 9.414062 12.179688 C 9.316406 12.011719 9.238281 11.832031 9.191406 11.636719 L 8.597656 11.636719 C 8.453125 11.636719 8.335938 11.519531 8.335938 11.375 Z M 14.109375 11.375 C 14.109375 11.519531 13.992188 11.636719 13.847656 11.636719 L 13.257812 11.636719 C 13.207031 11.832031 13.132812 12.011719 13.03125 12.179688 L 13.035156 12.179688 C 13.132812 12.015625 13.207031 11.832031 13.257812 11.640625 L 13.847656 11.640625 C 13.992188 11.640625 14.109375 11.523438 14.109375 11.378906 Z M 8.9375 12.875 C 8.949219 12.910156 8.96875 12.941406 8.996094 12.96875 L 9.367188 13.339844 C 9.472656 13.445312 9.636719 13.445312 9.738281 13.339844 L 10.15625 12.925781 C 10.324219 13.023438 10.503906 13.097656 10.699219 13.148438 C 10.503906 13.097656 10.324219 13.019531 10.15625 12.921875 L 9.738281 13.339844 C 9.636719 13.441406 9.472656 13.441406 9.367188 13.339844 L 8.996094 12.96875 C 8.96875 12.941406 8.949219 12.910156 8.9375 12.875 Z M 13.511719 12.875 C 13.496094 12.910156 13.476562 12.941406 13.449219 12.96875 L 13.078125 13.339844 C 12.976562 13.441406 12.8125 13.441406 12.707031 13.339844 L 12.289062 12.921875 C 12.125 13.019531 11.941406 13.097656 11.75 13.148438 C 11.941406 13.097656 12.125 13.023438 12.289062 12.925781 L 12.707031 13.339844 C 12.8125 13.445312 12.976562 13.445312 13.078125 13.339844 L 13.449219 12.96875 C 13.476562 12.941406 13.5 12.910156 13.511719 12.875 Z M 10.699219 13.738281 C 10.699219 13.882812 10.816406 14 10.960938 14 L 11.484375 14 C 11.632812 14 11.75 13.882812 11.75 13.738281 C 11.75 13.882812 11.632812 14 11.484375 14 L 10.960938 14 C 10.816406 14 10.699219 13.882812 10.699219 13.738281 Z M 10.699219 13.738281 "/>
<path style="fill:none;stroke-width:3;stroke-linecap:round;stroke-linejoin:round;stroke:rgb(12.941177%,12.941177%,12.941177%);stroke-opacity:1;stroke-miterlimit:4;" d="M 350.716508 48.349851 C 346.09195 48.349851 342.342308 51.974505 342.342308 56.724052 L 342.342308 75.597249 C 336.092905 77.097106 330.343454 79.596867 324.968967 82.721569 L 311.595244 69.347846 C 308.345554 66.098156 303.096056 66.098156 299.721378 69.347846 L 287.847512 81.221712 C 284.597822 84.59639 284.597822 89.845889 287.847512 93.095578 L 301.221235 106.469301 C 298.096533 111.843788 295.596772 117.718227 294.096915 123.842642 L 275.098729 123.842642 C 270.474171 123.842642 266.724529 127.592284 266.724529 132.216842 L 266.724529 149.090231 C 266.724529 153.714789 270.474171 157.464431 275.098729 157.464431 L 294.096915 157.464431 C 295.596772 163.588847 298.096533 169.463286 301.221235 174.837772 L 287.847512 188.086507 C 284.597822 191.461185 284.597822 196.710684 287.847512 199.960373 L 299.721378 211.834239 C 303.096056 215.208917 308.345554 215.208917 311.595244 211.834239 L 324.968967 198.585505 C 330.343454 201.710206 336.092905 204.084979 342.342308 205.709824 L 342.342308 224.583022 C 342.342308 229.20758 346.09195 232.957222 350.716508 232.957222 L 367.464909 232.957222 C 372.214455 232.957222 375.964097 229.20758 375.964097 224.583022 L 375.964097 205.709824 C 382.088512 204.084979 387.962951 201.710206 393.21245 198.585505 L 406.586173 211.834239 C 409.960851 215.208917 415.210349 215.208917 418.460039 211.834239 L 430.333905 199.960373 C 433.708583 196.710684 433.708583 191.461185 430.333905 188.086507 L 416.960182 174.837772 C 420.209872 169.463286 422.584645 163.588847 424.20949 157.464431 L 443.082688 157.464431 C 447.707246 157.464431 451.456888 153.714789 451.456888 149.090231 L 451.456888 132.216842 C 451.456888 127.592284 447.707246 123.842642 443.082688 123.842642 L 424.20949 123.842642 C 422.584645 117.718227 420.209872 111.843788 416.960182 106.469301 L 430.333905 93.095578 C 433.708583 89.845889 433.708583 84.59639 430.333905 81.221712 L 418.460039 69.347846 C 415.210349 66.098156 409.960851 66.098156 406.586173 69.347846 L 393.21245 82.721569 C 387.962951 79.596867 382.088512 77.097106 375.964097 75.597249 L 375.964097 56.724052 C 375.964097 51.974505 372.214455 48.349851 367.464909 48.349851 Z M 359.090709 98.720041 C 382.338488 98.720041 401.086698 117.343263 401.086698 140.591043 C 401.086698 163.963811 382.338488 182.587032 359.090709 182.587032 C 335.842929 182.587032 317.094719 163.963811 317.094719 140.591043 C 317.094719 117.343263 335.842929 98.720041 359.090709 98.720041 Z M 359.090709 98.720041 " transform="matrix(0.031253,0,0,0.031253,0,6.719392)"/>
</g>
</svg>
