<?xml version="1.0" encoding="UTF-8"?>
<svg xmlns="http://www.w3.org/2000/svg" xmlns:xlink="http://www.w3.org/1999/xlink" width="16pt" height="16pt" viewBox="0 0 16 16" version="1.1">
<defs>
<linearGradient id="linear0" gradientUnits="userSpaceOnUse" x1="254" y1="233.5" x2="254" y2="254.666672" gradientTransform="matrix(0.031253,0,0,0.031253,-0.00000190753,6.719393)">
<stop offset="0" style="stop-color:rgb(0%,0%,0%);stop-opacity:0.27451;"/>
<stop offset="1" style="stop-color:rgb(0%,0%,0%);stop-opacity:0;"/>
</linearGradient>
<radialGradient id="radial0" gradientUnits="userSpaceOnUse" cx="450.908936" cy="189.579361" fx="450.908936" fy="189.579361" r="21.166656" gradientTransform="matrix(0.0000000870852,-0.0390662,-0.0703192,-0.0000000507693,26.065324,31.797666)">
<stop offset="0" style="stop-color:rgb(0%,0%,0%);stop-opacity:0.313725;"/>
<stop offset="0.222222" style="stop-color:rgb(0%,0%,0%);stop-opacity:0.27451;"/>
<stop offset="1" style="stop-color:rgb(0%,0%,0%);stop-opacity:0;"/>
</radialGradient>
<radialGradient id="radial1" gradientUnits="userSpaceOnUse" cx="450.908936" cy="189.579361" fx="450.908936" fy="189.579361" r="21.166656" gradientTransform="matrix(-0.0000000870852,0.0390662,0.0703192,0.0000000507693,-10.188807,-3.763739)">
<stop offset="0" style="stop-color:rgb(0%,0%,0%);stop-opacity:0.313725;"/>
<stop offset="0.222222" style="stop-color:rgb(0%,0%,0%);stop-opacity:0.27451;"/>
<stop offset="1" style="stop-color:rgb(0%,0%,0%);stop-opacity:0;"/>
</radialGradient>
<radialGradient id="radial2" gradientUnits="userSpaceOnUse" cx="450.908936" cy="189.579361" fx="450.908936" fy="189.579361" r="21.166656" gradientTransform="matrix(-0.0000000870852,-0.0390662,0.0703192,-0.0000000507693,-10.188807,31.797666)">
<stop offset="0" style="stop-color:rgb(0%,0%,0%);stop-opacity:0.313725;"/>
<stop offset="0.222222" style="stop-color:rgb(0%,0%,0%);stop-opacity:0.27451;"/>
<stop offset="1" style="stop-color:rgb(0%,0%,0%);stop-opacity:0;"/>
</radialGradient>
<radialGradient id="radial3" gradientUnits="userSpaceOnUse" cx="450.908936" cy="189.579361" fx="450.908936" fy="189.579361" r="21.166656" gradientTransform="matrix(0.0000000870852,0.0390662,-0.0703192,0.0000000507693,26.065323,-3.76374)">
<stop offset="0" style="stop-color:rgb(0%,0%,0%);stop-opacity:0.313725;"/>
<stop offset="0.222222" style="stop-color:rgb(0%,0%,0%);stop-opacity:0.27451;"/>
<stop offset="1" style="stop-color:rgb(0%,0%,0%);stop-opacity:0;"/>
</radialGradient>
<linearGradient id="linear1" gradientUnits="userSpaceOnUse" x1="254" y1="233.5" x2="254" y2="-168.666672" gradientTransform="matrix(0.031253,0,0,0.031253,0,6.719392)">
<stop offset="0" style="stop-color:rgb(95.686275%,26.27451%,21.176471%);stop-opacity:1;"/>
<stop offset="1" style="stop-color:rgb(93.72549%,32.54902%,31.372549%);stop-opacity:1;"/>
</linearGradient>
<linearGradient id="linear2" gradientUnits="userSpaceOnUse" x1="520" y1="1535.118164" x2="520" y2="335.118103" >
<stop offset="0" style="stop-color:rgb(93.333333%,93.333333%,93.333333%);stop-opacity:1;"/>
<stop offset="1" style="stop-color:rgb(87.843137%,87.843137%,87.843137%);stop-opacity:1;"/>
</linearGradient>
<linearGradient id="linear3" gradientUnits="userSpaceOnUse" x1="520" y1="1535.118164" x2="520" y2="335.118103" gradientTransform="matrix(-0.264583,0,0,0.264583,508,-215)">
<stop offset="0" style="stop-color:rgb(93.333333%,93.333333%,93.333333%);stop-opacity:1;"/>
<stop offset="1" style="stop-color:rgb(87.843137%,87.843137%,87.843137%);stop-opacity:1;"/>
</linearGradient>
</defs>
<g id="surface1">
<path style=" stroke:none;fill-rule:nonzero;fill:url(#linear0);" d="M 2.976562 14.015625 L 12.898438 14.015625 L 12.898438 14.679688 L 2.976562 14.679688 Z M 2.976562 14.015625 "/>
<path style=" stroke:none;fill-rule:nonzero;fill:url(#radial0);" d="M 12.898438 14.015625 L 14.222656 14.015625 L 14.222656 13.355469 L 12.898438 13.355469 Z M 12.898438 14.015625 "/>
<path style=" stroke:none;fill-rule:nonzero;fill:url(#radial1);" d="M 2.976562 14.015625 L 1.652344 14.015625 L 1.652344 14.679688 L 2.976562 14.679688 Z M 2.976562 14.015625 "/>
<path style=" stroke:none;fill-rule:nonzero;fill:url(#radial2);" d="M 2.976562 14.015625 L 1.652344 14.015625 L 1.652344 13.355469 L 2.976562 13.355469 Z M 2.976562 14.015625 "/>
<path style=" stroke:none;fill-rule:nonzero;fill:url(#radial3);" d="M 12.898438 14.015625 L 14.222656 14.015625 L 14.222656 14.679688 L 12.898438 14.679688 Z M 12.898438 14.015625 "/>
<path style=" stroke:none;fill-rule:nonzero;fill:url(#linear1);" d="M 2.976562 1.449219 L 12.898438 1.449219 C 13.628906 1.449219 14.222656 2.039062 14.222656 2.769531 L 14.222656 12.695312 C 14.222656 13.425781 13.628906 14.015625 12.898438 14.015625 L 2.976562 14.015625 C 2.246094 14.015625 1.652344 13.425781 1.652344 12.695312 L 1.652344 2.769531 C 1.652344 2.039062 2.246094 1.449219 2.976562 1.449219 Z M 2.976562 1.449219 "/>
<path style=" stroke:none;fill-rule:nonzero;fill:rgb(100%,100%,100%);fill-opacity:0.392157;" d="M 2.976562 1.449219 C 2.242188 1.449219 1.652344 2.039062 1.652344 2.769531 L 1.652344 2.9375 C 1.652344 2.203125 2.242188 1.613281 2.976562 1.613281 L 12.898438 1.613281 C 13.632812 1.613281 14.222656 2.203125 14.222656 2.9375 L 14.222656 2.769531 C 14.222656 2.039062 13.632812 1.449219 12.898438 1.449219 Z M 2.976562 1.449219 "/>
<path style=" stroke:none;fill-rule:nonzero;fill:rgb(0%,0%,0%);fill-opacity:0.235294;" d="M 2.976562 14.015625 C 2.242188 14.015625 1.652344 13.425781 1.652344 12.695312 L 1.652344 12.527344 C 1.652344 13.261719 2.242188 13.851562 2.976562 13.851562 L 12.898438 13.851562 C 13.632812 13.851562 14.222656 13.261719 14.222656 12.527344 L 14.222656 12.695312 C 14.222656 13.425781 13.632812 14.015625 12.898438 14.015625 Z M 2.976562 14.015625 "/>
<path style=" stroke:none;fill-rule:nonzero;fill:rgb(12.941177%,12.941177%,12.941177%);fill-opacity:1;" d="M 2.976562 1.402344 C 2.21875 1.402344 1.605469 2.011719 1.605469 2.769531 L 1.605469 12.695312 C 1.605469 13.453125 2.21875 14.0625 2.976562 14.0625 L 12.898438 14.0625 C 13.65625 14.0625 14.269531 13.453125 14.269531 12.695312 L 14.269531 2.769531 C 14.269531 2.011719 13.65625 1.402344 12.898438 1.402344 Z M 2.976562 1.496094 L 12.898438 1.496094 C 13.609375 1.496094 14.175781 2.0625 14.175781 2.769531 L 14.175781 12.695312 C 14.175781 13.402344 13.609375 13.96875 12.898438 13.96875 L 2.976562 13.96875 C 2.269531 13.96875 1.699219 13.402344 1.699219 12.695312 L 1.699219 2.769531 C 1.699219 2.0625 2.269531 1.496094 2.976562 1.496094 Z M 2.976562 1.496094 "/>
<path style="fill-rule:nonzero;fill:url(#linear2);stroke-width:11.338583;stroke-linecap:round;stroke-linejoin:miter;stroke:rgb(12.941177%,12.941177%,12.941177%);stroke-opacity:1;stroke-miterlimit:4;" d="M 199.823448 334.928663 C 155.890633 334.928663 119.988548 370.830749 119.988548 415.235959 L 119.988548 535.224507 C 119.988548 579.629718 155.890633 615.059407 199.823448 615.059407 C 421.377105 615.059407 599.94274 757.722956 599.94274 935.343799 C 599.94274 1112.492246 421.377105 1255.155795 199.823448 1255.155795 C 155.890633 1255.155795 119.988548 1290.585485 119.988548 1334.990695 L 119.988548 1454.979243 C 119.988548 1499.384454 155.890633 1535.286539 199.823448 1535.286539 C 576.795343 1535.286539 880.073484 1269.327671 880.073484 939.122966 L 880.073484 931.092236 C 880.073484 600.887532 576.795343 334.928663 199.823448 334.928663 Z M 199.823448 334.928663 " transform="matrix(0.00826902,0,0,0.00826902,0,0)"/>
<path style="fill-rule:nonzero;fill:url(#linear3);stroke-width:3;stroke-linecap:round;stroke-linejoin:miter;stroke:rgb(12.941177%,12.941177%,12.941177%);stroke-opacity:1;stroke-miterlimit:4;" d="M 455.081542 -126.383462 C 466.83042 -126.383462 476.204525 -116.88437 476.204525 -105.135492 L 476.204525 -73.388523 C 476.204525 -61.639645 466.83042 -52.26554 455.081542 -52.26554 C 396.46214 -52.26554 349.216651 -14.519145 349.216651 32.476367 C 349.216651 79.346891 396.46214 117.093287 455.081542 117.093287 C 466.83042 117.093287 476.204525 126.467391 476.204525 138.21627 L 476.204525 169.963238 C 476.204525 181.712116 466.83042 191.211209 455.081542 191.211209 C 355.466055 191.211209 275.223717 120.842929 275.223717 33.476272 L 275.223717 31.351475 C 275.223717 -56.015182 355.466055 -126.383462 455.081542 -126.383462 Z M 455.081542 -126.383462 " transform="matrix(0.031253,0,0,0.031253,0,6.719392)"/>
</g>
</svg>
