<svg height="16" viewBox="0 0 16 16" width="16" xmlns="http://www.w3.org/2000/svg" xmlns:xlink="http://www.w3.org/1999/xlink"><linearGradient id="a"><stop offset="0" stop-opacity=".314"/><stop offset=".222" stop-opacity=".275"/><stop offset="1" stop-opacity="0"/></linearGradient><radialGradient id="b" cx="450.908997" cy="189.578995" gradientTransform="matrix(0 -.039065 -.07032 0 22.261499 31.797501)" gradientUnits="userSpaceOnUse" r="21.167" xlink:href="#a"/><radialGradient id="c" cx="450.908997" cy="189.578995" gradientTransform="matrix(0 .039065 .07032 0 -6.385 -3.76375)" gradientUnits="userSpaceOnUse" r="21.167" xlink:href="#a"/><radialGradient id="d" cx="450.908997" cy="189.578995" gradientTransform="matrix(0 -.039065 .07032 0 -6.385 31.797501)" gradientUnits="userSpaceOnUse" r="21.167" xlink:href="#a"/><radialGradient id="e" cx="450.908997" cy="189.578995" gradientTransform="matrix(0 .039065 -.07032 0 22.261499 -3.76375)" gradientUnits="userSpaceOnUse" r="21.167" xlink:href="#a"/><linearGradient id="f" gradientTransform="matrix(.00668 0 0 .0312525 6.2325 6.7195)" gradientUnits="userSpaceOnUse" x1="255.322998" x2="255.322998" y1="233.5" y2="254.667007"><stop offset="0" stop-opacity=".275"/><stop offset="1" stop-opacity="0"/></linearGradient><linearGradient id="g" gradientUnits="userSpaceOnUse" x1="232.832993" x2="232.832993" y1="233.5" y2="-168.667007"><stop offset="0" stop-color="#bdbdbd"/><stop offset="1" stop-color="#e0e0e0"/></linearGradient><linearGradient id="h" gradientUnits="userSpaceOnUse" x1="7.9392" x2="7.9392" y1="11.70302620734" y2="3.10222595097"><stop offset="0" stop-color="#616161"/><stop offset="1" stop-color="#757575"/></linearGradient><path d="m9.097656 14.015625h1.320313v-.660156h-1.320313zm0 0" fill="url(#b)"/><path d="m6.78125 14.015625h-1.324219v.664063h1.324219zm0 0" fill="url(#c)"/><path d="m6.78125 14.015625h-1.324219v-.660156h1.324219zm0 0" fill="url(#d)"/><path d="m9.097656 14.015625h1.320313v.664063h-1.320313zm0 0" fill="url(#e)"/><path d="m6.78125 13.851562h2.316406v.828126h-2.316406zm0 0" fill="url(#f)"/><path d="m253.979684-168.635513c111.116112 0 201.108914 89.992802 201.108914 201.108913 0 110.991122-89.992802 200.983924-201.108914 200.983924-110.991122 0-201.108913-89.992802-201.108913-200.983924 0-111.116111 90.117791-201.108913 201.108913-201.108913zm0 0" fill="url(#g)" stroke="#333" stroke-linecap="round" stroke-width="3" transform="matrix(.0312525 0 0 .0312525 0 6.7195)"/><path d="m7.9375 14.015625c-1.667969.003906-3.265625-.65625-4.445312-1.835937-1.179688-1.179688-1.84375-2.78125-1.839844-4.445313v-.0625c.035156 3.453125 2.824218 6.222656 6.285156 6.222656 3.449219.007813 6.257812-2.773437 6.285156-6.222656v.0625c.003906 1.664063-.65625 3.265625-1.835937 4.445313-1.179688 1.179687-2.78125 1.839843-4.449219 1.835937zm0 0" fill-opacity=".196"/><path d="m7.9375 1.449219c-1.667969-.003907-3.265625.65625-4.445312 1.835937-1.179688 1.179688-1.84375 2.78125-1.839844 4.449219v.058594c.035156-3.453125 2.824218-6.222657 6.285156-6.222657 3.449219-.007812 6.257812 2.773438 6.285156 6.222657v-.058594c.003906-1.667969-.65625-3.269531-1.835937-4.449219-1.179688-1.179687-2.78125-1.839844-4.449219-1.835937zm0 0" fill="#fff" fill-opacity=".392"/><path d="m7.9375 1.402344c-3.503906 0-6.332031 2.824218-6.332031 6.332031 0 3.503906 2.824219 6.328125 6.332031 6.328125 1.679688.003906 3.292969-.660156 4.480469-1.847656 1.1875-1.191406 1.855469-2.800782 1.851562-4.480469.003907-1.683594-.664062-3.292969-1.851562-4.484375-1.1875-1.1875-2.800781-1.851562-4.480469-1.847656zm0 .09375c1.65625-.003906 3.246094.652344 4.414062 1.820312 1.171876 1.171875 1.828126 2.761719 1.824219 4.417969.003907 1.652344-.652343 3.242187-1.824219 4.414063-1.167968 1.167968-2.757812 1.824218-4.414062 1.820312-1.65625.003906-3.242188-.652344-4.414062-1.820312-1.171876-1.171876-1.828126-2.761719-1.824219-4.417969-.003907-1.652344.652343-3.242188 1.824219-4.414063 1.171874-1.167968 2.757812-1.824218 4.414062-1.820312zm0 0" fill="#212121"/><path d="m7.9375 3.265625c-.21875 0-.429688.089844-.585938.242187-.152343.15625-.242187.367188-.242187.585938s.089844.429688.242187.585938c.15625.15625.367188.242187.585938.242187.234375 0 .445312-.097656.597656-.253906.09375.109375.1875.25.273438.410156-.460938.15625-.945313.371094-1.429688.648437-.738281.425782-1.351562.929688-1.796875 1.441407-.109375-.121094-.203125-.238281-.285156-.355469-.199219-.273438-.324219-.535156-.375-.757812-.050781-.222657-.03125-.394532.050781-.53125.078125-.140626.214844-.246094.433594-.308594.21875-.070313.507812-.09375.847656-.058594.257813.027344.546875.082031.847656.171875l.242188-.417969c-.367188-.113281-.71875-.1875-1.046875-.21875-.382813-.039062-.730469-.019531-1.027344.074219-.300781.089844-.554687.265625-.703125.519531-.152344.261719-.171875.566406-.101562.875.070312.304688.226562.613282.449218.925782.109376.152343.234376.304687.375.457031-.203124.292969-.347656.582031-.417968.867187-.222656.089844-.398438.269532-.480469.496094-.078125.230469-.054687.480469.066406.691406.109375.1875.289063.328125.503907.382813.210937.058593.4375.027343.625-.082031.191406-.109376.328124-.289063.386718-.503907.054688-.210937.027344-.4375-.082031-.625-.113281-.195312-.300781-.335937-.519531-.390625.054687-.15625.140625-.324218.257812-.5.375.347656.832032.683594 1.347656.980469.726563.417969 1.457032.699219 2.113282.832031-.058594.1875-.125.363282-.195313.519532-.140625.308593-.304687.546874-.472656.703124-.164063.152344-.324219.222657-.484375.222657s-.316406-.070313-.484375-.222657c-.167969-.15625-.332031-.394531-.472656-.703124-.109375-.238282-.203125-.515626-.277344-.824219h-.480469c.085938.375.195313.71875.332032 1.015625.160156.351562.347656.644531.578124.855468.230469.214844.507813.347657.804688.347657s.574219-.132813.804688-.347657c.230468-.210937.421874-.503906.578124-.855468.09375-.195313.171876-.410156.238282-.644532.367187.035157.703125.015626.996094-.070312.03125.027344.066406.050781.101562.070312.191406.113282.414062.140626.628906.085938.210938-.058594.390625-.195312.5-.386719.113282-.191406.140625-.417969.085938-.628906-.058594-.210937-.195313-.390625-.386719-.5-.191406-.113281-.417969-.140625-.628906-.085937-.210938.058593-.394531.195312-.503907.386718-.109374.195313-.140624.429688-.074218.644532-.175782.03125-.378906.042968-.605469.023437.101563-.476563.15625-1.003906.15625-1.5625 0-.886719-.136719-1.695313-.375-2.347656.179687-.042969.359375-.074219.539063-.089844.335937-.035156.628906-.011719.84375.054687.21875.066407.355468.171876.4375.308594.078124.140625.097656.3125.050781.53125-.050781.222656-.179688.484375-.375.761719-.152344.210937-.347657.433594-.578125.648437l.242187.421876c.285157-.261719.527344-.53125.714844-.796876.226563-.3125.382813-.625.449219-.929687.070312-.304687.050781-.613281-.097656-.871094-.152344-.257812-.40625-.429687-.707032-.523437-.296875-.089844-.644531-.113282-1.027344-.074219-.214843.019531-.441406.0625-.675781.117187-.144531-.292968-.316406-.539062-.515625-.726562.039063-.238281-.03125-.480469-.1875-.664062-.15625-.183594-.386718-.289063-.628906-.289063zm0 .5c.171875-.003906.3125.125.328125.292969-.003906.074218-.019531.148437-.050781.214844-.054688.089843-.160156.152343-.277344.152343-.085938 0-.171875-.035156-.234375-.097656s-.097656-.144531-.09375-.234375c0-.183594.144531-.328125.328125-.328125zm1.0625 1.746094c.222656.59375.359375 1.371093.359375 2.222656 0 .539063-.058594 1.046875-.152344 1.5-.601562-.117187-1.304687-.378906-1.996093-.78125-.5-.289063-.941407-.617187-1.300782-.949219.40625-.472656.992188-.960937 1.703125-1.371094.472657-.269531.945313-.480468 1.386719-.621093zm2.0625 3.199219c.058594 0 .117188.011718.171875.046874.160156.089844.214844.292969.121094.449219-.082031.148438-.265625.207031-.421875.136719-.058594-.039062-.113282-.089844-.15625-.148438-.054688-.101562-.050782-.222656.007812-.320312s.164063-.160156.277344-.164062zm-5.875.140624c.148438.007813.273438.109376.308594.253907.035156.140625-.027344.289062-.15625.363281-.152344.097656-.359375.054688-.457032-.097656-.101562-.152344-.054687-.359375.097657-.457032.066406-.03125.136719-.050781.207031-.0625zm0 0" fill="url(#h)"/><path d="m7.9375 3.265625c-.234375 0-.460938.101563-.617188.28125-.160156.175781-.230468.414063-.203124.648437.050781-.417968.402343-.730468.820312-.730468s.773438.3125.820312.726562c.003907-.03125.007813-.0625.007813-.097656 0-.21875-.085937-.429688-.242187-.585938-.15625-.152343-.367188-.242187-.585938-.242187zm.308594.910156c-.007813.035157-.015625.066407-.03125.097657-.054688.089843-.160156.152343-.277344.152343-.144531 0-.269531-.09375-.316406-.230469-.03125.097657-.011719.210938.050781.292969.0625.085938.160156.136719.265625.136719.117188 0 .222656-.0625.277344-.152344.03125-.066406.046875-.136718.050781-.214844 0-.027343-.007813-.054687-.019531-.078124zm.515625.050781c.007812.0625.003906.128907-.003907.191407.195313.191406.367188.433593.511719.730469.234375-.058594.460938-.097657.675781-.121094.382813-.035156.730469-.015625 1.027344.074218.300782.09375.558594.265626.707032.523438.078124.136719.121093.289062.132812.449219.019531-.230469-.023438-.453125-.132812-.648438-.152344-.257812-.40625-.429687-.707032-.523437-.296875-.089844-.644531-.113282-1.027344-.074219-.214843.019531-.441406.0625-.675781.117187-.144531-.289062-.3125-.53125-.507812-.71875zm-2.8125.445313c-.246094 0-.476563.03125-.679688.09375-.300781.089844-.554687.265625-.703125.519531-.113281.199219-.152344.417969-.136718.648438.011718-.15625.054687-.308594.136718-.445313.148438-.261719.402344-.429687.703125-.523437.296875-.09375.644531-.113282 1.027344-.074219.296875.027344.617187.09375.949219.191406l.097656-.171875c-.367188-.113281-.71875-.1875-1.046875-.21875-.117187-.011718-.230469-.019531-.347656-.019531zm2.765625.441406c-.464844.160157-.910156.367188-1.335938.613281-.738281.425782-1.351562.929688-1.796875 1.441407-.109375-.121094-.203125-.238281-.285156-.355469-.199219-.273438-.324219-.535156-.375-.757812-.007813-.039063-.015625-.082032-.019531-.121094-.015625.09375-.007813.199218.019531.320312.050781.21875.175781.484375.375.757813.082031.117187.175781.234375.285156.355469.445313-.511719 1.058594-1.015626 1.796875-1.4375.484375-.28125.96875-.496094 1.429688-.652344-.027344-.054688-.0625-.109375-.09375-.164063zm.800781.457031-.0625.015626c.226563.628906.363281 1.402343.375 2.25v-.101563c0-.804687-.113281-1.542969-.3125-2.164063zm1.828125.5c-.003906.039063-.011719.082032-.023438.121094-.046874.222656-.175781.488282-.371093.761719-.152344.210937-.347657.433594-.578125.648437l.074218.132813c.183594-.179687.351563-.375.503907-.582031.195312-.273438.324219-.539063.371093-.761719.03125-.117187.035157-.226563.023438-.316406zm-5.335938 1.523438c-.03125.035156-.066406.070312-.09375.109375.355469.332031.796876.660156 1.296876.949219.691406.402344 1.394531.664062 1.996093.78125.097657-.453125.152344-.960938.152344-1.5v-.097656c-.007813.46875-.058594.9375-.152344 1.398437-.601562-.117187-1.304687-.378906-1.996093-.78125-.429688-.246094-.832032-.535156-1.199219-.859375zm-.796874.066406c-.164063.25-.277344.503906-.339844.75-.351563.136719-.566406.496094-.519532.871094.03125-.257812.183594-.484375.40625-.613281.039063-.023438.078126-.042969.113282-.058594.070312-.285156.214844-.574219.417968-.867187-.027343-.027344-.050781-.054688-.078124-.082032zm5.859374.554688c-.234374 0-.460937.101562-.617187.277344-.160156.179687-.234375.414062-.203125.652343.03125-.277343.199219-.519531.449219-.644531.25-.121094.542969-.113281.785156.027344.222656.128906.375.355468.40625.613281.042969-.328125-.121094-.648437-.40625-.8125-.125-.074219-.269531-.113281-.414063-.113281zm-5.625.1875c-.03125.058594-.054687.117187-.074218.175781.210937.050781.402344.1875.519531.390625.054687.097656.089844.207031.105469.3125.019531-.175781-.015625-.359375-.105469-.511719-.101563-.171875-.257813-.304687-.445313-.367187zm5.941407.738281c-.007813.023437-.015625.046875-.03125.066406-.082031.148438-.265625.207031-.421875.136719-.058594-.039062-.113282-.089844-.15625-.148438-.007813-.015624-.015625-.035156-.023438-.050781-.027344.082031-.019531.171875.023438.25.042968.058594.09375.109375.15625.152344.15625.066406.339844.007813.421875-.136719.050781-.085937.058593-.183594.03125-.269531zm-1.144531.136719c-.175782.027344-.355469.035156-.53125.023437-.011719.066407-.023438.132813-.039063.199219.226563.015625.429687.003906.601563-.027344-.015626-.0625-.027344-.128906-.03125-.195312zm-5.382813.003906c-.027344.085938-.019531.183594.027344.265625.042969.078125.117187.132813.199219.15625.085937.019531.175781.007813.253906-.035156.132812-.078125.195312-.238281.148437-.386719-.023437.078125-.078125.144531-.148437.1875-.089844.050781-.191406.058594-.285156.023438-.09375-.039063-.167969-.113282-.195313-.210938zm1.363281.105469c.015625.066406.03125.132812.046875.199219h.433594c.074219.308593.167969.585937.277344.824218.140625.308594.304687.550782.472656.703125.167969.15625.324219.222657.484375.222657s.320312-.066407.484375-.222657c.167969-.152343.332031-.394531.472656-.703125.078125-.167968.140625-.34375.195313-.519531-.019532-.003906-.042969-.007813-.0625-.011719-.039063.109375-.082032.222656-.132813.332032-.140625.308593-.304687.546874-.472656.703124-.164063.152344-.324219.222657-.484375.222657s-.316406-.070313-.484375-.222657c-.167969-.15625-.332031-.394531-.472656-.703124-.109375-.238282-.203125-.515626-.277344-.824219zm0 0" fill="#fff" fill-opacity=".392"/><path d="m7.9375 3.765625c-.097656 0-.195312.046875-.257812.121094-.0625.078125-.085938.179687-.0625.277343.03125-.152343.164062-.261718.320312-.261718.152344 0 .277344.101562.320312.242187.003907-.027343.007813-.054687.007813-.082031-.015625-.167969-.15625-.296875-.328125-.296875zm.824219.398437c0 .019532-.003907.039063-.007813.058594.003906 0 .007813.003906.011719.007813 0-.019531 0-.042969-.003906-.066407zm-1.648438 0c-.019531.234376.058594.460938.214844.632813.15625.167969.378906.265625.609375.265625.234375 0 .445312-.097656.597656-.253906.070313.082031.140625.183594.210938.292968.019531-.003906.039062-.011718.0625-.019531-.074219-.148437-.167969-.285156-.273438-.410156-.15625.160156-.371094.253906-.597656.25-.429688.003906-.789062-.328125-.824219-.753906zm.164063.867188-.171875.300781c-.304688-.089843-.59375-.148437-.851563-.171875-.339844-.035156-.628906-.011718-.847656.054688-.214844.066406-.355469.171875-.433594.308594-.0625.105468-.089844.230468-.074218.378906.007812-.089844.03125-.167969.074218-.238282.078125-.140624.21875-.242187.433594-.3125.21875-.066406.507812-.089843.847656-.054687.257813.023437.546875.082031.847656.171875l.242188-.417969c-.023438-.003906-.042969-.011719-.066406-.019531zm3.015625.25c-.09375 0-.195313.007812-.300781.015625-.167969.015625-.351563.046875-.539063.089844.015625.042969.03125.085937.046875.128906.160156-.035156.328125-.0625.492188-.082031.335937-.03125.628906-.007813.84375.058594.21875.066406.355468.171874.4375.308593.039062.070313.066406.152344.074218.242188.011719-.152344-.015625-.277344-.074218-.378907-.082032-.140624-.21875-.242187-.4375-.308593-.148438-.046875-.332032-.070313-.542969-.074219zm-1.292969.234375c-.441406.140625-.914062.347656-1.386719.621094-.710937.410156-1.296875.898437-1.703125 1.367187.023438.023438.046875.042969.066406.0625.402344-.445312.964844-.902344 1.636719-1.292968.472657-.269532.945313-.476563 1.386719-.621094.214844.574218.347656 1.324218.359375 2.144531v-.0625c0-.851563-.136719-1.625-.359375-2.21875zm-4.574219.390625c-.003906.132812.007813.261719.039063.390625.066406.304687.226562.617187.449218.929687.09375.132813.199219.265626.320313.398438.015625-.027344.035156-.054688.054687-.078125-.136718-.144531-.261718-.296875-.375-.457031-.222656-.3125-.382812-.625-.449218-.929688-.019532-.085937-.03125-.167968-.039063-.253906zm7.390625.136719c-.003906.085937-.019531.171875-.039062.253906-.066406.308594-.222656.617187-.449219.929687-.1875.269532-.429687.535157-.714844.796876l-.1875-.328126c-.019531.015626-.035156.03125-.054687.050782l.242187.414062c.285157-.257812.527344-.527344.714844-.792968.226563-.3125.382813-.625.449219-.929688.03125-.128906.042968-.261719.039062-.394531zm-1.992187 1.753906c-.003907.535156-.054688 1.042969-.152344 1.503906h.027344c.082031-.441406.125-.921875.125-1.429687zm-4.199219.085937c-.113281.175782-.199219.34375-.253906.496094.015625.003906.03125.011719.050781.015625.050781-.117187.121094-.246093.203125-.375.378906.347657.835938.683594 1.351562.980469.707032.410156 1.425782.6875 2.070313.820312l.042969-.128906c-.660156-.128906-1.390625-.410156-2.113282-.832031-.515624-.296875-.972656-.628906-1.351562-.976563zm5.4375.832032c-.117188 0-.222656.066406-.28125.164062-.039062.074219-.050781.15625-.035156.234375.03125-.148437.164062-.257812.316406-.261719.058594 0 .117188.015626.171875.046876.085937.046874.140625.128906.160156.214843.027344-.140625-.035156-.285156-.160156-.355469-.050781-.03125-.113281-.046874-.171875-.042968zm-5.875.136718c-.070312.011719-.140625.03125-.207031.066407-.109375.074219-.160157.207031-.132813.335937.019532-.078125.0625-.148437.132813-.199218.066406-.03125.136719-.054688.207031-.0625.152344.007812.277344.113281.308594.261718.019531-.082031.003906-.164062-.035156-.234375-.058594-.097656-.160157-.160156-.273438-.167969zm6.707031.261719c-.011719.117188-.046875.234375-.109375.34375-.121094.210938-.324218.355469-.5625.402344-.238281.042969-.480468-.019531-.671875-.167969-.289062.085938-.625.105469-.992187.070313-.0625.21875-.140625.4375-.238282.644531-.15625.347656-.347656.640625-.578124.851562-.230469.214844-.507813.347657-.804688.347657s-.574219-.132813-.804688-.347657c-.230468-.210937-.421874-.503906-.578124-.851562-.125-.28125-.226563-.578125-.300782-.878906h-.03125c.082032.375.195313.71875.332032 1.019531.15625.347656.347656.636719.578124.851563.230469.210937.507813.347656.804688.347656s.574219-.136719.804688-.347656c.230468-.214844.421874-.503907.578124-.851563.097657-.210937.175782-.425781.238282-.648437.367187.035156.703125.015624.992187-.070313.191407.152344.433594.214844.671875.167969.238282-.042969.441406-.191406.5625-.398438.089844-.152344.121094-.320312.109375-.484375zm-1.648437 0c-.003906.054688-.003906.113281 0 .167969.011718-.003906.019531-.003906.027344-.007812-.015626-.050782-.023438-.105469-.027344-.160157zm-5.898438.140625c-.011718.167969.023438.335938.109375.480469.109375.191406.289063.332031.5.386719.214844.058594.441407.027344.628907-.082032.277343-.160156.4375-.464843.410156-.785156-.019532.269532-.175782.511719-.410156.644532-.1875.113281-.414063.140624-.628907.085937-.210937-.058594-.390625-.195313-.5-.386719-.0625-.105468-.097656-.222656-.109375-.34375zm0 0" fill-opacity=".235"/><path d="m7.9375 3.222656c-.230469-.003906-.453125.089844-.617188.253906-.164062.164063-.253906.386719-.253906.617188-.003906.347656.203125.660156.519532.800781.320312.140625.6875.078125.945312-.160156.070312.09375.140625.199219.210938.320313-.449219.152343-.917969.363281-1.386719.632812-.722657.417969-1.328125.90625-1.773438 1.410156-.089843-.101562-.171875-.203125-.25-.3125-.191406-.269531-.316406-.53125-.367187-.742187-.046875-.214844-.027344-.371094.046875-.496094.074219-.128906.199219-.222656.410156-.289063.207031-.066406.492187-.085937.824219-.054687.257812.023437.542968.082031.84375.171875.019531.003906.042968-.003906.054687-.023438l.242188-.417968c.003906-.011719.007812-.027344.003906-.039063-.007813-.011719-.019531-.023437-.03125-.027343-.371094-.117188-.726563-.191407-1.058594-.226563-.386719-.035156-.738281-.015625-1.046875.078125-.304687.097656-.574218.273438-.730468.546875-.15625.269531-.175782.589844-.105469.902344.074219.3125.230469.628906.457031.945312.101562.144531.222656.289063.351562.433594-.1875.277344-.324218.554687-.390624.832031-.234376.09375-.410157.285156-.492188.523438-.078125.238281-.050781.5.074219.71875.113281.199218.304687.34375.53125.40625.222656.058594.460937.027344.660156-.089844.203125-.113281.347656-.304688.410156-.53125.058594-.222656.027344-.460938-.089843-.660156-.109376-.191406-.285157-.332032-.496094-.398438.054687-.136718.121094-.269531.203125-.394531.375.335937.816406.65625 1.316406.945313.710937.410156 1.425781.691406 2.074219.824218-.046875.160156-.105469.316406-.175782.46875-.136718.304688-.300781.539063-.460937.6875-.160156.148438-.304687.210938-.453125.210938-.144531 0-.292969-.0625-.453125-.210938-.160156-.148437-.324219-.382812-.460937-.6875-.105469-.234375-.199219-.511718-.273438-.816406-.003906-.019531-.023438-.035156-.046875-.035156h-.480469c-.015625 0-.027344.007812-.035156.019531-.011719.007813-.011719.023437-.011719.039063.085938.378906.199219.722656.335938 1.027343.160156.351563.355469.648438.589843.867188.238282.21875.523438.359375.835938.359375s.601562-.140625.835938-.359375c.234374-.21875.429687-.515625.59375-.871094.082031-.1875.160156-.394531.222656-.613281.351562.03125.671875.011718.953125-.070313.027343.023438.058593.042969.089843.0625.359376.207031.8125.132813 1.089844-.175781.273438-.304688.296875-.765625.050782-1.097656-.242188-.335938-.6875-.449219-1.066407-.28125-.375.171875-.578125.585937-.488281.988281-.144531.023437-.308594.03125-.492188.019531.101563-.5.148438-1.011718.144532-1.519531 0-.867187-.128906-1.664063-.355469-2.3125.167969-.039063.328125-.066406.480469-.082031.332031-.03125.617187-.007813.828125.058594.207031.0625.335937.160156.40625.285156.074219.128906.09375.285156.046875.5-.050782.210937-.171875.46875-.367188.742187-.148437.210938-.34375.425781-.570312.644531-.015625.015626-.019532.039063-.007813.058594l.242188.417969c.007812.011719.019531.019531.035156.019531.011719.003906.027344 0 .039063-.007812.28125-.265625.527343-.535156.71875-.804688.226562-.316406.386718-.632812.457031-.945312.074219-.3125.050781-.636719-.105469-.90625-.15625-.269532-.421875-.449219-.730469-.542969-.304687-.09375-.660156-.113281-1.046875-.078125-.207031.019531-.425781.058594-.648437.109375-.140625-.269531-.300781-.503906-.488281-.6875.003906-.035156.007812-.074219.007812-.109375 0-.230469-.09375-.453125-.257812-.617188-.164063-.164062-.382813-.257812-.617188-.253906zm0 .09375c.230469-.003906.445312.097656.59375.269532.148438.171874.214844.402343.179688.628906-.003907.011718 0 .027344.011718.039062.195313.183594.359375.425782.503906.714844.011719.019531.03125.027344.050782.023438.222656-.054688.449218-.09375.675781-.117188.375-.035156.71875-.015625 1.007813.074219.292968.089843.535156.253906.675781.5.140625.246093.164062.542969.097656.835937-.070313.296875-.222656.605469-.441406.914063-.179688.25-.40625.503906-.667969.746093l-.191406-.335937c.21875-.207031.40625-.421875.554687-.628906.199219-.277344.328125-.546875.378907-.777344.054687-.230469.03125-.417969-.054688-.566406-.085938-.148438-.238281-.261719-.460938-.328125-.226562-.070313-.523437-.09375-.863281-.0625-.183593.019531-.367187.050781-.546875.09375-.011718.003906-.023437.011718-.027344.023437-.007812.011719-.007812.027344-.003906.039063.234375.644531.367188 1.453125.367188 2.332031 0 .554687-.050782 1.078125-.152344 1.554687 0 .011719 0 .027344.007812.039063.011719.007813.023438.015625.035157.019531.230469.015625.441406.003906.617187-.027344.011719-.003906.023438-.011718.03125-.023437.007813-.011719.007813-.023437.003906-.039063-.058593-.203124-.03125-.421874.074219-.605468.101563-.179688.273438-.308594.472657-.363282.199218-.054687.414062-.027343.59375.078126.179687.101562.308593.273437.363281.472656.054687.199218.027343.414062-.078125.59375-.113282.195312-.308594.335937-.53125.375-.222656.042968-.457032-.015625-.632813-.15625-.011719-.011719-.027343-.011719-.042969-.007813-.28125.082031-.613281.101563-.976562.070313-.023438-.003906-.042969.011718-.046875.03125-.070313.230468-.148437.445312-.238281.636718-.15625.347657-.34375.632813-.566406.839844-.222657.207032-.488282.335938-.773438.335938s-.550781-.128906-.773438-.335938c-.222656-.207031-.410156-.492187-.566406-.839844-.128906-.277343-.234375-.597656-.316406-.949218h.386719c.074219.296875.164062.5625.269531.796875.140625.3125.308594.558593.484375.71875.171875.160156.34375.234375.515625.234375s.347656-.074219.519531-.234375c.171875-.160157.339844-.40625.480469-.71875.074219-.160157.140625-.335938.195312-.527344.003907-.011719.003907-.027344-.003906-.039063-.007812-.007812-.015625-.015624-.03125-.019531-.652344-.128906-1.375-.410156-2.097656-.828125-.511719-.292968-.964844-.625-1.339844-.96875-.011718-.011718-.027344-.015625-.039062-.011718-.015625 0-.027344.007812-.035156.019531-.105469.15625-.191407.328125-.257813.507812-.003906.011719-.003906.027344 0 .039063.007813.007812.019531.019531.03125.019531.207031.050781.382813.183594.488281.371094.21875.375.089844.847656-.285156 1.066406-.375.214844-.847656.089844-1.066406-.285156-.101563-.179688-.132813-.394531-.078125-.59375.054687-.199219.183593-.371094.363281-.472657.035156-.023437.074219-.039062.109375-.054687.015625-.003906.023437-.015625.027344-.03125.066406-.277344.207031-.5625.410156-.851563.011719-.019531.007813-.042968-.007813-.058593-.132812-.144531-.253906-.292969-.367187-.453125-.222656-.308594-.375-.613282-.445313-.910156-.066406-.296876-.042968-.589844.097657-.839844.140625-.242188.386719-.410156.675781-.5.292969-.089844.632812-.109375 1.011719-.074219.304687.03125.636719.101563.980469.207031l-.191407.332032c-.292969-.082032-.574219-.140626-.824219-.164063-.34375-.03125-.640624-.011719-.867187.058594-.222656.070312-.375.179687-.460937.328125-.085938.152344-.105469.339844-.054688.566406.054688.230469.183594.5.382812.777344.082032.121094.179688.238281.289063.359375.007813.011719.019531.015625.035156.015625.011719 0 .023438-.003906.035157-.015625.441406-.507813 1.050781-1.007813 1.785156-1.429688.480468-.277343.960937-.492187 1.421875-.644531.011719-.003906.023437-.015625.027343-.027344.007813-.011718.007813-.027344 0-.039062-.089843-.167969-.183593-.308594-.28125-.421875-.007812-.011719-.019531-.015625-.035156-.015625-.011718 0-.023437.003906-.035156.011718-.144531.15625-.347656.242188-.5625.242188-.207031 0-.40625-.082031-.550781-.230469-.148438-.144531-.230469-.34375-.226563-.550781-.003906-.207031.078125-.40625.226563-.550781.144531-.148438.34375-.230469.550781-.226563zm0 .402344c-.136719-.003906-.265625.066406-.335938.183594-.066406.117187-.066406.265625 0 .382812.070313.117188.199219.191406.335938.1875.132812 0 .253906-.070312.320312-.175781 0 0 0-.003906.003907-.007813.027343-.070312.046875-.148437.054687-.226562 0-.003906 0-.003906-.003906-.007812-.019531-.191407-.179688-.339844-.375-.339844zm0 .089844c.148438 0 .265625.109375.28125.253906-.003906.066406-.019531.128906-.042969.1875-.054687.082031-.140625.128906-.238281.128906-.074219 0-.148438-.03125-.199219-.082031-.054687-.054687-.085937-.128906-.085937-.203125s.03125-.148438.085937-.199219c.050781-.054687.125-.085937.199219-.085937zm1.0625 1.65625c-.003906 0-.007812 0-.015625 0-.445313.144531-.917969.355468-1.394531.628906-.714844.410156-1.304688.902344-1.714844 1.378906-.015625.019532-.011719.046875.003906.066406.359375.332032.804688.664063 1.308594.953126.699219.40625 1.402344.667968 2.007812.789062.027344.003906.050782-.011719.058594-.035156.09375-.457032.152344-.96875.152344-1.511719 0-.855469-.140625-1.640625-.359375-2.238281-.007813-.019532-.027344-.03125-.046875-.03125zm-.027344.105468c.207032.582032.335938 1.335938.335938 2.164063 0 .515625-.050782 1.007813-.140625 1.445313-.582031-.121094-1.261719-.378907-1.933594-.769532-.484375-.277344-.910156-.589844-1.257813-.910156.398438-.457031.972657-.925781 1.660157-1.324219.425781-.246093.871093-.449219 1.335937-.605469zm2.089844 3.09375c-.132812.003907-.25.074219-.316406.1875-.066406.109376-.070313.25-.011719.367188 0 0 .003906.003906.003906.003906.050781.066406.109375.121094.175781.164063.175782.078125.386719.011719.484376-.15625.066406-.117188.066406-.261719-.003907-.378907-.070312-.117187-.195312-.1875-.332031-.1875zm0 .09375c.050781 0 .101562.011719.148438.039063.136718.078125.183593.25.105468.386719-.070312.125-.226562.179687-.359375.121094-.054687-.039063-.101562-.082032-.140625-.132813-.042968-.085937-.039062-.1875.007813-.269531.050781-.089844.144531-.140625.238281-.144532zm-5.871094.046876h-.007812c-.078125.011718-.152344.03125-.222656.066406-.003907 0-.007813.003906-.007813.003906-.15625.113281-.203125.328125-.105469.496094.101563.179687.335938.242187.515625.136718.179688-.101562.242188-.335937.136719-.515624-.0625-.109376-.179688-.183594-.308594-.1875zm0 .09375c.089844.003906.179688.054687.226563.140624.039062.066407.050781.144532.03125.214844-.019531.074219-.066407.136719-.132813.171875-.066406.039063-.144531.050781-.214844.03125-.074218-.019531-.136718-.066406-.171874-.132812-.074219-.125-.042969-.285157.074218-.371094.0625-.027344.125-.046875.1875-.054687zm0 0" fill="#212121"/></svg>