<?xml version="1.0" encoding="UTF-8"?>
<svg xmlns="http://www.w3.org/2000/svg" xmlns:xlink="http://www.w3.org/1999/xlink" width="16px" height="16px" viewBox="0 0 16 16" version="1.1">
<defs>
<radialGradient id="radial0" gradientUnits="userSpaceOnUse" cx="450.908936" cy="189.579361" fx="450.908936" fy="189.579361" r="21.166656" gradientTransform="matrix(0.0000000870852,-0.0390662,-0.0703192,-0.0000000507693,21.930815,31.797665)">
<stop offset="0" style="stop-color:rgb(0%,0%,0%);stop-opacity:0.313726;"/>
<stop offset="0.222222" style="stop-color:rgb(0%,0%,0%);stop-opacity:0.27451;"/>
<stop offset="1" style="stop-color:rgb(0%,0%,0%);stop-opacity:0;"/>
</radialGradient>
<radialGradient id="radial1" gradientUnits="userSpaceOnUse" cx="450.908936" cy="189.579361" fx="450.908936" fy="189.579361" r="21.166656" gradientTransform="matrix(-0.0000000870852,0.0390662,0.0703192,0.0000000507693,-6.054297,-3.763741)">
<stop offset="0" style="stop-color:rgb(0%,0%,0%);stop-opacity:0.313726;"/>
<stop offset="0.222222" style="stop-color:rgb(0%,0%,0%);stop-opacity:0.27451;"/>
<stop offset="1" style="stop-color:rgb(0%,0%,0%);stop-opacity:0;"/>
</radialGradient>
<radialGradient id="radial2" gradientUnits="userSpaceOnUse" cx="450.908936" cy="189.579361" fx="450.908936" fy="189.579361" r="21.166656" gradientTransform="matrix(-0.0000000870852,-0.0390662,0.0703192,-0.0000000507693,-6.054297,31.797665)">
<stop offset="0" style="stop-color:rgb(0%,0%,0%);stop-opacity:0.313726;"/>
<stop offset="0.222222" style="stop-color:rgb(0%,0%,0%);stop-opacity:0.27451;"/>
<stop offset="1" style="stop-color:rgb(0%,0%,0%);stop-opacity:0;"/>
</radialGradient>
<radialGradient id="radial3" gradientUnits="userSpaceOnUse" cx="450.908936" cy="189.579361" fx="450.908936" fy="189.579361" r="21.166656" gradientTransform="matrix(0.0000000870852,0.0390662,-0.0703192,0.0000000507693,21.930814,-3.763741)">
<stop offset="0" style="stop-color:rgb(0%,0%,0%);stop-opacity:0.313726;"/>
<stop offset="0.222222" style="stop-color:rgb(0%,0%,0%);stop-opacity:0.27451;"/>
<stop offset="1" style="stop-color:rgb(0%,0%,0%);stop-opacity:0;"/>
</radialGradient>
<linearGradient id="linear0" gradientUnits="userSpaceOnUse" x1="255.323059" y1="233.5" x2="255.323044" y2="254.666656" gradientTransform="matrix(0.00668003,0,0,0.031253,6.232693,6.719392)">
<stop offset="0" style="stop-color:rgb(0%,0%,0%);stop-opacity:0.27451;"/>
<stop offset="1" style="stop-color:rgb(0%,0%,0%);stop-opacity:0;"/>
</linearGradient>
<radialGradient id="radial4" gradientUnits="userSpaceOnUse" cx="232.833328" cy="53.583332" fx="232.833328" fy="53.583332" r="95.250023" gradientTransform="matrix(0.0381981,0.00000000274925,-0.00000000257401,0.0381981,-1.617049,6.34725)">
<stop offset="0" style="stop-color:rgb(47.450981%,52.549022%,79.607844%);stop-opacity:1;"/>
<stop offset="0.534635" style="stop-color:rgb(58.431375%,45.882353%,80.392158%);stop-opacity:1;"/>
<stop offset="1" style="stop-color:rgb(49.411765%,34.117648%,76.078433%);stop-opacity:1;"/>
</radialGradient>
<linearGradient id="linear1" gradientUnits="userSpaceOnUse" x1="720" y1="1055.117188" x2="960" y2="175.118118" gradientTransform="matrix(0.00826902,0,0,0.00826902,0.992282,0.661529)">
<stop offset="0" style="stop-color:rgb(92.54902%,25.098041%,47.843137%);stop-opacity:1;"/>
<stop offset="1" style="stop-color:rgb(100%,65.490198%,14.901961%);stop-opacity:1;"/>
</linearGradient>
<linearGradient id="linear2" gradientUnits="userSpaceOnUse" x1="960" y1="1695.118164" x2="960" y2="175.118118" gradientTransform="matrix(0.00826902,0,0,0.00826902,0,0)">
<stop offset="0" style="stop-color:rgb(92.54902%,25.098041%,47.843137%);stop-opacity:1;"/>
<stop offset="1" style="stop-color:rgb(100%,65.490198%,14.901961%);stop-opacity:1;"/>
</linearGradient>
<linearGradient id="linear3" gradientUnits="userSpaceOnUse" x1="488.59726" y1="116.201424" x2="455.083374" y2="-76.503448" gradientTransform="matrix(0.0197387,0,0,0.0197387,2.924621,9.40797)">
<stop offset="0" style="stop-color:rgb(92.54902%,25.098041%,47.843137%);stop-opacity:0;"/>
<stop offset="1" style="stop-color:rgb(100%,65.490198%,14.901961%);stop-opacity:1;"/>
</linearGradient>
<linearGradient id="linear4" gradientUnits="userSpaceOnUse" x1="317.5" y1="170" x2="423.333344" y2="74.75" gradientTransform="matrix(0.031253,0,0,0.031253,0,6.719392)">
<stop offset="0" style="stop-color:rgb(92.54902%,25.098041%,47.843137%);stop-opacity:0;"/>
<stop offset="1" style="stop-color:rgb(100%,65.490198%,14.901961%);stop-opacity:1;"/>
</linearGradient>
<linearGradient id="linear5" gradientUnits="userSpaceOnUse" x1="1000" y1="1575.118164" x2="960" y2="655.118103" gradientTransform="matrix(0.00826902,0,0,0.00826902,0,0)">
<stop offset="0" style="stop-color:rgb(92.54902%,25.098041%,47.843137%);stop-opacity:1;"/>
<stop offset="1" style="stop-color:rgb(100%,65.490198%,14.901961%);stop-opacity:1;"/>
</linearGradient>
</defs>
<g id="surface1">
<path style=" stroke:none;fill-rule:nonzero;fill:url(#radial0);" d="M 8.765625 14.015625 L 10.089844 14.015625 L 10.089844 13.355469 L 8.765625 13.355469 Z M 8.765625 14.015625 "/>
<path style=" stroke:none;fill-rule:nonzero;fill:url(#radial1);" d="M 7.113281 14.015625 L 5.789062 14.015625 L 5.789062 14.679688 L 7.113281 14.679688 Z M 7.113281 14.015625 "/>
<path style=" stroke:none;fill-rule:nonzero;fill:url(#radial2);" d="M 7.113281 14.015625 L 5.789062 14.015625 L 5.789062 13.355469 L 7.113281 13.355469 Z M 7.113281 14.015625 "/>
<path style=" stroke:none;fill-rule:nonzero;fill:url(#radial3);" d="M 8.765625 14.015625 L 10.089844 14.015625 L 10.089844 14.679688 L 8.765625 14.679688 Z M 8.765625 14.015625 "/>
<path style=" stroke:none;fill-rule:nonzero;fill:url(#linear0);" d="M 7.113281 13.851562 L 8.765625 13.851562 L 8.765625 14.679688 L 7.113281 14.679688 Z M 7.113281 13.851562 "/>
<path style=" stroke:none;fill-rule:nonzero;fill:url(#radial4);" d="M 7.9375 4.753906 C 9.582031 4.753906 10.914062 6.089844 10.914062 7.734375 C 10.914062 9.375 9.582031 10.710938 7.9375 10.710938 C 6.292969 10.710938 4.960938 9.375 4.960938 7.734375 C 4.960938 6.089844 6.292969 4.753906 7.9375 4.753906 Z M 7.9375 4.753906 "/>
<path style=" stroke:none;fill-rule:nonzero;fill:url(#linear1);" d="M 6.226562 2.714844 C 4.902344 3.34375 3.832031 4.425781 3.21875 5.761719 C 4.386719 5.195312 5.484375 4.988281 6.285156 4.589844 C 6.148438 4.535156 5.953125 4.425781 5.953125 4.09375 C 5.953125 3.597656 6.101562 3.042969 6.226562 2.714844 Z M 6.226562 2.714844 "/>
<path style="fill:none;stroke-width:3;stroke-linecap:round;stroke-linejoin:miter;stroke:rgb(12.941177%,12.941177%,12.941177%);stroke-opacity:1;stroke-miterlimit:4;" d="M 199.230974 -128.133295 C 156.860021 -108.010217 122.613291 -73.388523 102.990165 -30.642605 C 140.361596 -48.765875 143.736274 -50.140743 169.358827 -62.889526 C 164.984245 -64.639359 196.356249 -84.012509 190.48181 -84.012509 C 190.48181 -99.885993 195.231356 -117.634298 199.230974 -128.133295 Z M 199.230974 -128.133295 " transform="matrix(0.031253,0,0,0.031253,0,6.719392)"/>
<path style="fill:none;stroke-width:3;stroke-linecap:round;stroke-linejoin:miter;stroke:rgb(12.941177%,12.941177%,12.941177%);stroke-opacity:1;stroke-miterlimit:4;" d="M 253.975747 -62.889526 C 306.595722 -62.889526 349.216651 -20.143608 349.216651 32.476367 C 349.216651 84.971354 306.595722 127.717272 253.975747 127.717272 C 201.355771 127.717272 158.734842 84.971354 158.734842 32.476367 C 158.734842 -20.143608 201.355771 -62.889526 253.975747 -62.889526 Z M 253.975747 -62.889526 " transform="matrix(0.031253,0,0,0.031253,0,6.719392)"/>
<path style=" stroke:none;fill-rule:nonzero;fill:url(#linear2);" d="M 9.261719 1.449219 C 8.277344 2.460938 7.980469 3.203125 7.945312 4.09375 C 7.945312 4.09375 7.941406 4.09375 7.9375 4.09375 L 7.9375 4.753906 C 9.585938 4.753906 10.914062 6.082031 10.914062 7.734375 C 10.914062 9.382812 9.585938 10.710938 7.9375 10.710938 C 6.289062 10.710938 4.960938 9.382812 4.960938 7.734375 C 4.941406 5.546875 7.9375 7.070312 8.269531 5.746094 C 7.609375 5.417969 6.613281 4.257812 6.285156 4.09375 C 5.929688 3.882812 5.621094 3.433594 4.960938 3.433594 C 4.960938 2.9375 5.109375 2.378906 5.234375 2.054688 C 3.113281 3.058594 1.652344 5.21875 1.652344 7.734375 C 1.652344 11.214844 4.457031 14.015625 7.9375 14.015625 C 11.417969 14.015625 14.222656 11.214844 14.222656 7.734375 C 14.222656 4.425781 11.027344 3.648438 9.261719 1.449219 Z M 9.261719 1.449219 "/>
<path style=" stroke:none;fill-rule:nonzero;fill:rgb(0%,0%,0%);fill-opacity:0.235294;" d="M 5.234375 2.054688 C 5.210938 2.0625 5.191406 2.074219 5.167969 2.085938 C 5.058594 2.414062 4.960938 2.863281 4.960938 3.269531 C 4.964844 3.269531 4.964844 3.269531 4.964844 3.269531 C 4.992188 2.820312 5.121094 2.34375 5.234375 2.054688 Z M 7.9375 4.59375 L 7.9375 4.753906 C 9.558594 4.753906 10.871094 6.039062 10.914062 7.652344 C 10.914062 7.625 10.914062 7.597656 10.914062 7.570312 C 10.914062 5.921875 9.585938 4.59375 7.9375 4.59375 Z M 8.21875 5.722656 C 7.714844 6.796875 4.941406 5.46875 4.960938 7.570312 C 4.960938 7.59375 4.960938 7.621094 4.960938 7.644531 C 5.023438 5.589844 7.941406 7.054688 8.269531 5.746094 C 8.253906 5.738281 8.238281 5.730469 8.21875 5.722656 Z M 1.65625 7.652344 C 1.652344 7.679688 1.652344 7.707031 1.652344 7.734375 C 1.652344 11.214844 4.457031 14.015625 7.9375 14.015625 C 11.417969 14.015625 14.222656 11.214844 14.222656 7.734375 C 14.222656 7.707031 14.222656 7.679688 14.222656 7.65625 C 14.175781 11.097656 11.390625 13.855469 7.9375 13.855469 C 4.484375 13.855469 1.699219 11.09375 1.65625 7.652344 Z M 1.65625 7.652344 "/>
<path style=" stroke:none;fill-rule:nonzero;fill:url(#linear3);" d="M 8.929688 6.410156 C 10.394531 7.046875 10.585938 8.175781 10.585938 9.878906 C 10.585938 11.914062 9.128906 13.597656 7.199219 13.949219 C 7.4375 13.992188 7.6875 14.015625 7.9375 14.015625 C 10.136719 14.015625 11.90625 12.246094 11.90625 10.046875 C 11.90625 7.902344 11.054688 6.496094 8.929688 6.410156 Z M 8.929688 6.410156 "/>
<path style=" stroke:none;fill-rule:nonzero;fill:url(#linear4);" d="M 11.90625 3.433594 C 13.15625 4.425781 13.046875 5.566406 12.605469 7.210938 C 12.082031 9.175781 11.546875 10.539062 9.59375 10.378906 C 9.8125 10.484375 8.605469 13.265625 8.847656 13.332031 C 10.972656 13.898438 13.558594 10.929688 14.125 8.804688 C 14.683594 6.734375 13.9375 4.0625 11.90625 3.433594 Z M 11.90625 3.433594 "/>
<path style=" stroke:none;fill-rule:nonzero;fill:url(#linear5);" d="M 4.386719 5.425781 C 3.832031 5.429688 3.394531 5.625 3.394531 6.195312 C 3.394531 6.527344 4.960938 6.738281 4.960938 6.738281 C 4.6875 7.5625 4.867188 8.160156 5.125 8.714844 C 5.019531 8.40625 4.960938 8.078125 4.960938 7.734375 C 4.941406 5.589844 7.828125 7.015625 8.246094 5.820312 C 7.734375 5.90625 6.75 6 5.84375 5.699219 C 5.394531 5.550781 4.851562 5.421875 4.386719 5.425781 Z M 4.386719 5.425781 "/>
<path style=" stroke:none;fill-rule:nonzero;fill:rgb(100%,100%,100%);fill-opacity:0.392157;" d="M 9.261719 1.40625 C 8.277344 2.421875 7.980469 3.164062 7.945312 4.054688 C 7.945312 4.054688 7.941406 4.054688 7.9375 4.054688 L 7.9375 4.257812 C 7.941406 4.257812 7.945312 4.257812 7.945312 4.257812 C 7.980469 3.371094 8.277344 2.628906 9.261719 1.613281 C 10.242188 2.835938 11.667969 3.621094 12.738281 4.640625 C 12.679688 4.5 12.605469 4.359375 12.511719 4.226562 C 11.472656 3.300781 10.175781 2.546875 9.261719 1.40625 Z M 5.234375 2.011719 C 3.113281 3.019531 1.652344 5.179688 1.652344 7.691406 C 1.652344 7.726562 1.652344 7.757812 1.65625 7.792969 C 1.695312 5.359375 3.105469 3.269531 5.148438 2.261719 C 5.179688 2.167969 5.207031 2.085938 5.234375 2.011719 Z M 11.90625 3.390625 C 12.054688 3.507812 12.183594 3.628906 12.296875 3.75 C 13.601562 4.378906 14.273438 5.929688 14.304688 7.484375 C 14.335938 5.714844 13.535156 3.898438 11.90625 3.390625 Z M 4.96875 3.390625 C 4.964844 3.460938 4.960938 3.53125 4.960938 3.597656 C 5.621094 3.597656 5.929688 4.046875 6.285156 4.257812 C 6.605469 4.417969 7.542969 5.507812 8.203125 5.878906 C 8.230469 5.828125 8.253906 5.769531 8.269531 5.707031 C 7.609375 5.375 6.613281 4.21875 6.285156 4.054688 C 5.929688 3.839844 5.625 3.394531 4.96875 3.390625 Z M 8.929688 6.367188 C 9.105469 6.445312 9.265625 6.527344 9.40625 6.617188 C 9.996094 6.707031 10.46875 6.914062 10.839844 7.226562 C 10.820312 7.136719 10.792969 7.046875 10.765625 6.960938 C 10.308594 6.605469 9.703125 6.398438 8.929688 6.367188 Z M 4.964844 7.789062 C 4.960938 7.824219 4.960938 7.859375 4.960938 7.898438 C 4.960938 9.546875 6.289062 10.875 7.9375 10.875 C 9.078125 10.875 10.066406 10.238281 10.566406 9.300781 C 10.5625 9.238281 10.558594 9.175781 10.554688 9.117188 C 10.050781 10.042969 9.070312 10.667969 7.9375 10.667969 C 6.320312 10.667969 5.015625 9.394531 4.964844 7.789062 Z M 4.964844 7.789062 "/>
<path style="fill:none;stroke-width:11.338583;stroke-linecap:round;stroke-linejoin:miter;stroke:rgb(12.941177%,12.941177%,12.941177%);stroke-opacity:1;stroke-miterlimit:4;" d="M 1120.05058 175.258863 C 1001.006823 297.609391 965.104738 387.364604 960.853176 495.070859 C 960.853176 495.070859 960.38078 495.070859 959.908384 495.070859 L 959.908384 574.905759 C 1131.38808 574.905759 1274.051629 693.949516 1310.898506 854.091712 C 1309.008923 852.674524 1307.591735 851.257336 1305.702152 849.840149 C 1305.702152 849.367753 1305.229756 849.367753 1305.229756 849.367753 C 1301.922985 846.533378 1298.143818 843.699003 1294.837047 841.337023 C 1294.364651 841.337023 1294.364651 840.864628 1294.364651 840.864628 C 1290.585485 838.502648 1287.278713 835.668273 1283.499547 833.306294 C 1283.027151 833.306294 1283.027151 833.306294 1283.027151 832.833898 C 1279.247984 830.471919 1275.468817 828.109939 1271.68965 826.220356 C 1271.217254 825.74796 1271.217254 825.74796 1270.744858 825.74796 C 1266.965692 823.385981 1263.186525 821.024001 1258.934962 819.134418 C 1258.934962 818.662022 1258.462566 818.662022 1258.462566 818.662022 C 1256.572983 817.71723 1254.211003 816.772439 1252.32142 815.355251 C 1250.431837 814.410459 1248.069857 813.465668 1246.180274 812.520876 C 1246.180274 812.520876 1245.707878 812.520876 1245.707878 812.04848 C 1243.345899 811.103688 1241.456315 810.158897 1239.094336 809.214105 C 1236.732357 808.269313 1234.842773 807.324522 1232.480794 806.37973 C 1232.480794 806.37973 1232.480794 806.37973 1232.008398 806.37973 C 1230.118815 805.434938 1227.756835 804.490146 1225.867252 803.545355 C 1225.394856 803.545355 1225.394856 803.545355 1224.92246 803.545355 C 1223.032877 802.600563 1220.670897 801.655771 1218.781314 800.71098 C 1218.781314 800.71098 1218.308918 800.71098 1218.308918 800.71098 C 1216.419335 800.238584 1214.057355 799.293792 1211.695376 798.349 C 1211.695376 798.349 1211.22298 798.349 1210.750584 797.876604 C 1208.388605 797.404209 1206.499022 796.459417 1204.137042 795.987021 C 1201.775063 795.042229 1199.88548 794.569833 1197.5235 793.625042 C 1197.051105 793.625042 1196.578709 793.625042 1196.106313 793.152646 C 1191.382354 792.207854 1187.130792 790.790667 1182.406833 789.373479 C 1181.934437 789.373479 1181.462041 789.373479 1180.989645 789.373479 C 1178.627666 788.428687 1176.265687 787.956291 1173.903708 787.483896 C 1173.903708 787.483896 1173.431312 787.483896 1173.431312 787.483896 C 1171.069332 787.0115 1169.179749 786.066708 1166.81777 785.594312 C 1166.345374 785.594312 1165.872978 785.594312 1165.400582 785.594312 C 1163.038603 785.121916 1160.676624 784.64952 1158.314644 784.177125 C 1157.842248 784.177125 1157.369853 783.704729 1157.369853 783.704729 C 1155.007873 783.232333 1153.11829 783.232333 1150.75631 782.759937 C 1150.283915 782.759937 1149.811519 782.287541 1149.339123 782.287541 C 1146.977144 781.815145 1144.615164 781.342749 1141.780789 781.342749 C 1141.308393 780.870354 1140.835997 780.870354 1140.363602 780.870354 C 1138.474018 780.397958 1136.584435 780.397958 1134.222455 779.925562 C 1133.75006 779.925562 1133.277664 779.925562 1132.332872 779.925562 C 1129.970893 779.453166 1127.608913 778.98077 1125.246934 778.98077 C 1124.774538 778.508374 1124.302142 778.508374 1123.357351 778.508374 C 1121.467767 778.508374 1119.105788 778.035978 1117.216205 778.035978 C 1116.743809 777.563583 1115.799017 777.563583 1115.326621 777.563583 C 1112.964642 777.563583 1110.602663 777.091187 1107.768287 777.091187 C 1107.295892 777.091187 1106.823496 776.618791 1105.878704 776.618791 C 1103.516725 776.618791 1101.154745 776.146395 1098.792766 776.146395 C 1098.792766 776.146395 1098.32037 776.146395 1097.847974 776.146395 C 1095.485995 776.146395 1092.65162 775.673999 1090.289641 775.673999 C 1089.344849 775.673999 1088.872453 775.673999 1087.927661 775.673999 C 1085.565682 775.201603 1082.731307 775.201603 1079.896932 775.201603 C 1082.731307 776.146395 1085.093286 777.563583 1087.927661 778.508374 C 1088.400057 778.98077 1088.872453 778.98077 1089.817245 779.453166 C 1091.706828 780.397958 1093.124016 781.342749 1095.013599 781.815145 C 1095.958391 782.287541 1096.903183 782.759937 1097.847974 783.232333 C 1099.265162 784.177125 1100.68235 784.64952 1102.571933 785.594312 C 1103.516725 786.066708 1104.461516 786.539104 1104.933912 787.0115 C 1106.823496 787.956291 1108.240683 788.428687 1109.657871 789.373479 C 1110.602663 789.845875 1111.547454 790.318271 1112.01985 790.790667 C 1113.909434 791.735458 1115.799017 792.68025 1117.216205 793.625042 C 1117.6886 793.625042 1118.633392 794.097438 1119.105788 794.569833 C 1121.467767 795.514625 1123.357351 796.931813 1125.71933 798.349 C 1126.191726 798.349 1126.664122 798.821396 1127.136518 798.821396 C 1128.553705 800.238584 1130.443289 801.183375 1131.860476 802.128167 C 1132.805268 802.600563 1133.75006 803.072959 1134.222455 803.545355 C 1135.639643 804.490146 1137.056831 805.434938 1138.474018 805.907334 C 1138.946414 806.37973 1139.891206 807.324522 1140.835997 807.796917 C 1141.780789 808.269313 1143.197977 809.214105 1144.615164 810.158897 C 1145.08756 810.631293 1146.032352 811.103688 1146.977144 811.576084 C 1147.921935 812.520876 1149.339123 813.465668 1150.75631 814.410459 C 1151.228706 814.882855 1152.173498 815.355251 1152.645894 815.827647 C 1154.535477 817.244835 1155.952665 818.189626 1157.842248 819.606814 C 1157.842248 819.606814 1158.314644 820.07921 1158.314644 820.07921 C 1158.314644 820.07921 1158.314644 820.07921 1158.78704 820.551606 C 1160.204228 821.496397 1162.093811 822.913585 1163.983395 824.330772 C 1164.45579 824.803168 1164.928186 825.275564 1165.400582 825.74796 C 1166.81777 826.692752 1167.762561 827.637544 1169.179749 828.582335 C 1169.652145 829.527127 1170.596937 829.999523 1171.069332 830.471919 C 1172.48652 831.41671 1173.431312 832.361502 1174.376103 833.306294 C 1174.848499 833.77869 1175.793291 834.723481 1176.265687 835.195877 C 1177.682874 836.140669 1178.627666 837.085461 1179.572458 838.030252 C 1180.044854 838.502648 1180.51725 838.975044 1181.462041 839.919836 C 1182.406833 840.864628 1183.824021 841.809419 1184.768812 842.754211 C 1185.241208 843.226607 1185.713604 843.699003 1186.186 844.643794 C 1187.603187 846.060982 1189.020375 847.47817 1190.909958 848.895357 C 1191.382354 849.367753 1191.382354 849.840149 1191.85475 850.312545 C 1193.271938 851.729732 1194.216729 852.674524 1195.161521 854.091712 C 1195.633917 854.564107 1196.578709 855.036503 1197.051105 855.981295 C 1197.995896 856.926087 1198.468292 857.870878 1199.413084 858.81567 C 1200.357876 859.288066 1200.830271 860.232858 1201.302667 860.705254 C 1202.247459 861.650045 1203.192251 862.594837 1203.664647 864.012025 C 1204.609438 864.48442 1205.081834 864.956816 1205.55423 865.901608 C 1206.499022 866.8464 1206.971418 867.791191 1207.916209 869.208379 C 1208.388605 869.680775 1208.861001 870.153171 1209.333397 871.097962 C 1210.278189 872.042754 1211.22298 873.459942 1212.167772 874.877129 C 1213.112564 875.349525 1213.58496 876.294317 1214.057355 877.239109 C 1215.002147 878.656296 1215.946939 879.601088 1216.891731 881.018275 C 1217.364126 881.963067 1217.836522 882.907859 1218.308918 883.380255 C 1219.25371 884.325046 1219.726106 885.269838 1220.670897 886.687026 C 1221.143293 887.159422 1221.615689 888.104213 1222.088085 888.576609 C 1222.560481 889.993797 1223.505273 890.938588 1223.977669 891.88338 C 1224.450064 892.828172 1224.92246 893.300568 1225.394856 894.24536 C 1225.867252 895.190151 1226.812044 896.607339 1227.28444 897.552131 C 1227.756835 898.024526 1228.229231 898.969318 1228.701627 899.91411 C 1229.174023 900.858902 1230.118815 902.276089 1230.591211 903.220881 C 1231.063606 904.165673 1231.536002 904.638068 1232.008398 905.58286 C 1232.95319 907.472444 1233.897982 908.889631 1234.842773 910.779215 C 1235.315169 911.724006 1235.315169 912.196402 1235.787565 913.141194 C 1236.259961 914.085986 1237.204753 915.503173 1237.677148 916.447965 C 1238.149544 917.392757 1238.62194 918.337548 1239.094336 919.28234 C 1239.566732 920.227132 1240.039128 921.171923 1240.511524 922.116715 C 1240.983919 923.533903 1240.983919 924.478694 1241.456315 925.423486 C 1241.928711 926.368278 1242.401107 927.31307 1242.873503 928.257861 C 1243.345899 929.202653 1243.818295 930.147445 1244.29069 931.092236 C 1244.763086 932.037028 1245.235482 933.454216 1245.707878 934.399007 C 1245.707878 935.343799 1246.180274 936.288591 1246.65267 937.233383 C 1247.125066 938.178174 1247.597461 939.595362 1248.069857 940.540154 C 1248.542253 942.429737 1249.487045 944.31932 1249.959441 945.736508 C 1250.431837 947.153696 1250.904232 948.098487 1250.904232 949.043279 C 1251.376628 949.988071 1251.849024 950.932862 1252.32142 951.877654 C 1252.32142 953.294842 1252.793816 954.239633 1253.266212 955.184425 C 1253.738608 956.601613 1254.211003 957.546404 1254.211003 958.491196 C 1254.683399 959.435988 1255.155795 960.38078 1255.155795 961.797967 C 1255.628191 962.742759 1256.100587 963.687551 1256.100587 965.104738 C 1256.572983 966.04953 1257.045379 966.994322 1257.045379 967.939113 C 1257.517774 968.883905 1257.99017 970.301093 1257.99017 971.245884 C 1258.462566 972.663072 1258.934962 973.607864 1258.934962 974.552655 C 1259.407358 975.497447 1259.879754 976.914635 1259.879754 977.859426 C 1260.35215 979.276614 1260.824545 981.166197 1261.296941 982.583385 C 1261.296941 983.055781 1261.296941 983.528177 1261.769337 984.000573 C 1261.769337 984.945364 1262.241733 986.362552 1262.241733 987.307344 C 1262.714129 988.252135 1262.714129 989.669323 1263.186525 990.614115 C 1263.658921 992.031302 1263.658921 992.976094 1264.131316 994.393281 C 1264.131316 995.338073 1264.603712 996.282865 1264.603712 997.227657 C 1265.076108 998.644844 1265.076108 999.589636 1265.548504 1001.006823 C 1265.548504 1001.951615 1266.0209 1003.368803 1266.0209 1004.313594 C 1266.493296 1005.258386 1266.493296 1006.675574 1266.965692 1008.092761 C 1266.965692 1009.037553 1267.438087 1009.982345 1267.438087 1011.399532 C 1267.438087 1012.344324 1267.910483 1013.761512 1267.910483 1014.706303 C 1268.382879 1016.123491 1268.382879 1017.540678 1268.855275 1018.48547 C 1269.327671 1021.319845 1269.800067 1023.681825 1269.800067 1026.043804 C 1270.272463 1026.5162 1270.272463 1027.460992 1270.272463 1028.405783 C 1270.744858 1029.822971 1270.744858 1031.240158 1271.217254 1032.657346 C 1271.217254 1033.602138 1271.217254 1034.546929 1271.217254 1035.491721 C 1271.68965 1036.908909 1271.68965 1038.326096 1272.162046 1040.21568 C 1272.162046 1040.688076 1272.162046 1041.632867 1272.162046 1042.577659 C 1272.634442 1043.994847 1272.634442 1045.412034 1273.106838 1046.829222 C 1273.106838 1048.246409 1273.106838 1049.191201 1273.106838 1050.135993 C 1273.579234 1051.55318 1273.579234 1052.970368 1273.579234 1054.387555 C 1274.051629 1055.332347 1274.051629 1056.277139 1274.051629 1056.749535 C 1274.524025 1062.418285 1275.468817 1068.087035 1275.941213 1073.755786 C 1275.941213 1074.700577 1275.941213 1075.645369 1275.941213 1076.117765 C 1275.941213 1078.007348 1276.413609 1079.424536 1276.413609 1081.314119 C 1276.413609 1082.258911 1276.413609 1083.203703 1276.413609 1084.148494 C 1276.886005 1085.565682 1276.886005 1086.98287 1276.886005 1088.872453 C 1276.886005 1089.817245 1276.886005 1090.762037 1276.886005 1091.706828 C 1277.3584 1093.596412 1277.3584 1095.013599 1277.3584 1096.903183 C 1277.3584 1097.375579 1277.3584 1097.847974 1277.3584 1098.792766 C 1277.830796 1100.68235 1277.830796 1102.571933 1277.830796 1104.461516 C 1217.364126 1218.308918 1097.847974 1295.309443 959.908384 1295.309443 C 760.557332 1295.309443 599.94274 1134.694851 599.94274 935.343799 C 597.580761 670.802119 959.908384 855.036503 1000.062032 694.894307 C 920.227132 655.213055 799.766188 514.911485 760.084936 495.070859 C 717.096913 469.561483 679.77764 415.235959 599.94274 415.235959 C 599.94274 355.241685 617.893782 287.689078 633.01045 248.480221 C 376.499499 369.885957 199.823448 631.120867 199.823448 935.343799 C 199.823448 1354.358925 535.696903 1691.649568 954.239633 1694.956339 C 956.129217 1694.956339 958.0188 1694.956339 959.908384 1694.956339 C 962.270363 1694.956339 964.159947 1694.956339 966.04953 1694.956339 C 1342.549029 1692.121964 1651.968316 1418.132366 1710.073007 1058.166722 C 1711.017798 1053.91516 1711.96259 1050.135993 1712.907382 1046.356826 C 1713.379778 1044.467242 1713.852173 1042.105263 1714.324569 1040.21568 C 1714.796965 1038.326096 1715.269361 1036.436513 1715.741757 1034.546929 C 1716.686549 1030.295367 1717.158944 1026.5162 1718.103736 1022.737033 C 1718.103736 1022.264637 1718.103736 1022.264637 1718.103736 1022.264637 C 1718.576132 1020.375054 1719.048528 1018.48547 1719.048528 1016.595887 C 1719.048528 1016.595887 1719.520924 1016.123491 1719.520924 1016.123491 C 1726.606862 975.969843 1729.913633 935.343799 1729.913633 893.772964 C 1729.913633 891.88338 1729.913633 889.993797 1729.913633 887.631817 C 1729.913633 885.742234 1729.913633 883.380255 1729.913633 881.490671 C 1729.441237 879.601088 1729.441237 877.239109 1729.441237 875.349525 C 1729.441237 873.459942 1729.441237 871.097962 1729.441237 869.208379 C 1729.441237 867.318796 1728.968841 864.956816 1728.968841 863.067233 C 1728.968841 861.177649 1728.968841 859.288066 1728.496445 857.870878 C 1728.496445 857.398483 1728.496445 856.926087 1728.496445 856.453691 C 1728.496445 854.564107 1728.496445 852.674524 1728.496445 850.784941 C 1728.024049 848.422961 1728.024049 846.533378 1728.024049 844.643794 C 1728.024049 844.643794 1728.024049 844.643794 1728.024049 844.171399 C 1727.551653 842.281815 1727.551653 840.864628 1727.551653 838.975044 C 1727.551653 838.502648 1727.551653 838.502648 1727.079257 838.030252 C 1727.079257 836.613065 1727.079257 834.723481 1726.606862 833.306294 C 1726.606862 832.833898 1726.606862 832.361502 1726.606862 831.889106 C 1726.606862 829.999523 1726.606862 828.582335 1726.134466 827.165148 C 1726.134466 826.692752 1726.134466 826.220356 1726.134466 825.74796 C 1726.134466 824.330772 1725.66207 822.913585 1725.66207 821.496397 C 1725.66207 820.551606 1725.66207 820.07921 1725.189674 819.606814 C 1725.189674 817.71723 1725.189674 816.300043 1724.717278 814.882855 C 1724.717278 814.410459 1724.717278 813.938064 1724.717278 813.465668 C 1724.244882 812.04848 1724.244882 810.631293 1724.244882 809.214105 C 1724.244882 808.269313 1723.772486 807.796917 1723.772486 806.852126 C 1723.772486 805.907334 1723.300091 804.490146 1723.300091 803.072959 C 1723.300091 802.128167 1723.300091 801.655771 1722.827695 800.71098 C 1722.827695 799.766188 1722.827695 798.349 1722.355299 796.931813 C 1722.355299 795.987021 1722.355299 795.514625 1721.882903 794.569833 C 1721.882903 793.625042 1721.410507 792.207854 1721.410507 790.790667 C 1721.410507 789.845875 1721.410507 789.373479 1720.938111 788.901083 C 1720.938111 787.483896 1720.465715 786.066708 1720.465715 784.64952 C 1720.465715 784.177125 1719.99332 783.232333 1719.99332 782.287541 C 1719.99332 781.342749 1719.520924 779.925562 1719.520924 778.508374 C 1719.048528 777.563583 1719.048528 777.091187 1719.048528 776.618791 C 1718.576132 775.201603 1718.576132 773.784416 1718.103736 772.367228 C 1718.103736 771.894832 1718.103736 770.950041 1717.63134 770.477645 C 1717.63134 769.060457 1717.158944 767.64327 1717.158944 766.226082 C 1716.686549 765.753686 1716.686549 765.28129 1716.686549 764.336499 C 1716.214153 762.919311 1716.214153 761.502123 1715.741757 760.084936 C 1715.741757 759.61254 1715.741757 759.140144 1715.269361 758.195352 C 1715.269361 756.778165 1714.796965 755.360977 1714.324569 753.94379 C 1714.324569 753.471394 1714.324569 752.998998 1714.324569 752.526602 C 1713.852173 751.109414 1713.379778 749.692227 1713.379778 748.275039 C 1712.907382 747.802643 1712.907382 746.857852 1712.907382 746.385456 C 1712.434986 744.968268 1711.96259 744.023477 1711.96259 742.606289 C 1711.490194 742.133893 1711.490194 741.189101 1711.017798 740.24431 C 1711.017798 738.827122 1710.545402 737.88233 1710.545402 736.937539 C 1710.073007 735.992747 1710.073007 735.047955 1709.600611 734.103164 C 1709.600611 733.158372 1709.128215 731.741184 1708.655819 730.796393 C 1708.655819 729.851601 1708.655819 729.379205 1708.183423 728.434413 C 1707.711027 727.017226 1707.711027 725.600038 1707.238631 724.655246 C 1707.238631 723.710455 1706.766236 723.238059 1706.766236 722.765663 C 1706.29384 721.348475 1705.821444 719.931288 1705.821444 718.986496 C 1705.349048 718.041704 1705.349048 717.096913 1704.876652 716.624517 C 1704.876652 715.207329 1704.404256 714.262538 1703.93186 712.84535 C 1703.93186 712.372954 1703.459465 711.428162 1703.459465 710.955767 C 1702.987069 709.538579 1702.514673 708.593787 1702.042277 707.1766 C 1702.042277 706.231808 1701.569881 705.759412 1701.569881 704.81462 C 1701.097485 703.869829 1700.625089 702.452641 1700.625089 701.507849 C 1700.152694 700.563058 1700.152694 699.618266 1699.680298 699.14587 C 1699.207902 697.728683 1699.207902 696.783891 1698.735506 695.839099 C 1698.26311 694.894307 1698.26311 693.949516 1697.790714 693.47712 C 1697.318318 692.059932 1696.845923 691.11514 1696.845923 689.697953 C 1696.373527 689.225557 1696.373527 688.280765 1695.901131 687.808369 C 1695.428735 686.391182 1694.956339 685.44639 1694.483943 684.029203 C 1694.483943 683.084411 1694.011547 682.612015 1694.011547 681.667223 C 1693.539152 680.722432 1693.066756 679.77764 1692.59436 678.360452 C 1692.59436 677.888056 1692.121964 676.943265 1691.649568 675.998473 C 1691.649568 675.053681 1691.177172 674.10889 1690.704776 672.691702 C 1690.232381 671.74691 1690.232381 671.274514 1689.759985 670.329723 C 1689.287589 669.384931 1688.815193 668.440139 1688.815193 667.495348 C 1688.342797 666.550556 1687.870401 665.605764 1687.398005 664.660972 C 1686.92561 663.716181 1686.92561 662.771389 1686.453214 661.826597 C 1685.980818 660.881806 1685.508422 659.937014 1685.508422 658.992222 C 1685.036026 658.04743 1684.56363 657.102639 1684.091234 656.157847 C 1683.618838 655.213055 1683.146443 654.268264 1683.146443 653.323472 C 1682.674047 652.37868 1682.201651 651.433888 1681.729255 650.489097 C 1681.256859 649.544305 1681.256859 649.071909 1680.784463 648.127117 C 1680.312067 647.182326 1679.839672 645.765138 1679.367276 644.820346 C 1678.89488 644.347951 1678.89488 643.403159 1678.422484 642.458367 C 1677.950088 641.513575 1677.477692 640.568784 1677.005296 639.623992 C 1676.532901 638.6792 1676.060505 637.734409 1676.060505 637.262013 C 1675.588109 636.317221 1675.115713 634.900033 1674.643317 633.955242 C 1674.170921 633.01045 1673.698525 632.538054 1673.22613 631.593262 C 1672.753734 630.648471 1672.281338 629.703679 1672.281338 628.758887 C 1671.808942 627.814096 1671.336546 626.869304 1670.86415 626.396908 C 1670.391754 625.452116 1669.919359 624.034929 1669.446963 623.090137 C 1668.974567 622.617741 1668.502171 621.672949 1668.502171 621.200553 C 1667.557379 619.783366 1667.084983 618.838574 1666.612588 617.893782 C 1666.140192 616.948991 1666.140192 616.476595 1665.667796 615.531803 C 1665.1954 614.587011 1664.723004 613.64222 1664.250608 612.697428 C 1663.778212 612.225032 1663.305817 611.28024 1662.833421 610.335449 C 1662.361025 609.390657 1661.888629 608.445865 1661.416233 607.501074 C 1660.943837 606.556282 1660.471441 606.083886 1659.999046 605.139094 C 1659.52665 604.194303 1659.054254 603.249511 1658.581858 602.304719 C 1658.109462 601.359927 1657.637066 600.887532 1657.16467 599.94274 C 1656.692275 598.997948 1656.219879 598.053156 1655.747483 597.108365 C 1655.275087 596.163573 1654.802691 595.691177 1654.330295 594.746385 C 1653.857899 593.801594 1653.385504 592.856802 1652.913108 592.384406 C 1652.440712 591.439614 1651.968316 590.494823 1651.023524 589.550031 C 1650.551128 588.605239 1650.078733 588.132843 1649.606337 587.188052 C 1649.133941 586.24326 1648.661545 585.298468 1648.189149 584.353677 C 1647.716753 583.881281 1647.244357 582.936489 1646.771962 581.991697 C 1646.299566 581.519301 1645.82717 580.57451 1644.882378 579.629718 C 1644.409982 578.684926 1643.937586 577.740135 1643.465191 577.267739 C 1642.992795 576.322947 1642.520399 575.378155 1642.048003 574.433364 C 1641.575607 573.960968 1641.103211 573.016176 1640.630815 572.071384 C 1640.15842 571.598988 1639.213628 570.654197 1638.741232 569.709405 C 1638.268836 568.764613 1637.79644 568.292217 1637.324044 567.347426 C 1636.851649 566.402634 1635.906857 565.457842 1635.434461 564.985446 C 1634.962065 564.040655 1634.489669 563.095863 1634.017273 562.623467 C 1633.544878 561.678675 1633.072482 561.206279 1632.600086 560.261488 C 1631.655294 559.316696 1631.182898 558.371904 1630.710502 557.427113 C 1630.238107 556.954717 1629.765711 556.009925 1629.293315 555.537529 C 1628.348523 554.592737 1627.876127 553.647946 1627.403731 553.17555 C 1626.45894 552.230758 1625.986544 551.285966 1625.514148 550.813571 C 1625.041752 549.868779 1624.569356 548.923987 1623.624565 548.451591 C 1623.152169 547.5068 1622.679773 547.034404 1622.207377 546.089612 C 1621.734981 545.14482 1620.790189 544.672424 1620.317794 543.727633 C 1619.845398 542.782841 1618.900606 542.310445 1618.42821 541.365653 C 1617.955814 540.420862 1617.483418 539.948466 1617.011022 539.47607 C 1616.066231 538.531278 1615.593835 537.586487 1614.649043 536.641695 C 1614.176647 536.169299 1613.704251 535.224507 1613.231856 534.752111 C 1612.75946 533.80732 1611.814668 533.334924 1611.342272 532.390132 C 1610.869876 531.44534 1609.925085 530.972945 1609.452689 530.500549 C 1608.980293 529.555757 1608.035501 528.610965 1607.563105 528.138569 C 1607.090709 527.193778 1606.618314 526.721382 1605.673522 525.77659 C 1605.201126 525.304194 1604.72873 524.359403 1603.783938 523.414611 C 1603.311543 522.942215 1602.839147 521.997423 1601.894355 521.525027 C 1601.421959 520.580236 1600.477167 520.10784 1600.004772 519.163048 C 1599.532376 518.690652 1599.05998 517.745861 1598.115188 517.273465 C 1597.642792 516.328673 1596.698001 515.856277 1595.753209 514.911485 C 1595.280813 514.43909 1594.808417 513.494298 1594.336021 513.021902 C 1593.863625 512.549506 1592.918834 511.604714 1591.974042 510.659923 C 1591.501646 510.187527 1591.02925 509.715131 1590.556854 508.770339 C 1589.612063 508.297943 1589.139667 507.353152 1588.194875 506.880756 C 1587.722479 505.935964 1586.777688 505.463568 1586.305292 504.991172 C 1585.832896 504.046381 1584.888104 503.573985 1584.415708 502.629193 C 1583.470917 502.156797 1582.998521 501.212006 1582.053729 500.73961 C 1581.581333 500.267214 1580.636541 499.322422 1580.164146 498.850026 C 1579.69175 497.905235 1578.746958 497.432839 1578.274562 496.960443 C 1577.32977 496.015651 1576.857375 495.543255 1575.912583 494.598463 C 1575.440187 494.126068 1574.495395 493.653672 1574.022999 492.70888 C 1573.078208 492.236484 1572.605812 491.764088 1571.66102 490.819297 C 1571.188624 490.346901 1570.243833 489.874505 1569.771437 488.929713 C 1568.826645 488.457317 1568.354249 487.512526 1567.409457 487.04013 C 1566.937062 486.567734 1565.99227 486.095338 1565.519874 485.622942 C 1564.575082 484.67815 1564.102686 483.733359 1563.157895 483.260963 C 1562.213103 482.788567 1561.740707 482.316171 1561.268311 481.371379 C 1560.32352 480.898984 1559.851124 480.426588 1558.906332 479.954192 C 1557.96154 479.0094 1557.489144 478.537004 1556.544353 478.064608 C 1556.071957 477.119817 1555.127165 476.647421 1554.182373 476.175025 C 1553.709978 475.702629 1553.237582 474.757837 1552.29279 474.285442 C 1551.347998 473.813046 1550.403206 472.868254 1549.458415 472.395858 C 1548.986019 471.923462 1548.513623 471.451066 1548.041227 470.978671 C 1547.096435 470.033879 1546.151644 469.561483 1545.206852 469.089087 C 1544.26206 468.616691 1543.789664 468.144295 1543.317269 467.6719 C 1542.372477 466.727108 1541.427685 466.254712 1540.482893 465.782316 C 1540.010498 465.30992 1539.065706 464.837524 1538.59331 463.892733 C 1537.648518 463.420337 1536.703727 462.947941 1536.231331 462.475545 C 1535.286539 462.003149 1534.814143 461.530753 1533.869351 461.058358 C 1532.92456 460.113566 1531.979768 459.64117 1531.034976 459.168774 C 1530.56258 458.696378 1530.090185 458.223982 1529.145393 457.751587 C 1528.200601 456.806795 1527.255809 456.334399 1526.311018 455.862003 C 1525.366226 455.389607 1524.89383 454.917211 1524.421434 454.444816 C 1523.476643 453.97242 1522.059455 453.027628 1521.114663 452.555232 C 1520.642267 452.082836 1520.169872 451.61044 1519.697476 451.61044 C 1518.752684 450.665649 1517.807892 450.193253 1516.863101 449.720857 C 1515.918309 449.248461 1515.445913 448.776065 1514.501121 448.303669 C 1513.55633 447.831274 1512.611538 447.358878 1511.666746 446.886482 C 1511.19435 446.414086 1510.249559 445.94169 1509.777163 445.469294 C 1508.832371 444.996898 1507.415183 444.524503 1506.470392 443.579711 C 1505.997996 443.579711 1505.053204 443.107315 1504.580808 442.634919 C 1503.636017 442.162523 1502.691225 441.690127 1501.746433 441.217732 C 1500.801641 440.745336 1500.329246 440.27294 1499.384454 439.800544 C 1498.439662 439.328148 1497.49487 438.855752 1496.077683 437.910961 C 1495.605287 437.910961 1495.132891 437.438565 1494.660495 437.438565 C 1493.243308 436.493773 1492.298516 436.021377 1490.881328 435.548981 C 1490.408933 435.076585 1489.936537 435.076585 1489.464141 434.60419 C 1488.046953 434.131794 1487.102162 433.659398 1486.15737 433.187002 C 1485.212578 432.714606 1484.740182 432.714606 1483.79539 432.24221 C 1482.850599 431.769814 1481.433411 430.825023 1480.016224 430.352627 C 1479.543828 430.352627 1479.071432 429.880231 1479.071432 429.880231 C 1478.599036 429.880231 1478.599036 429.880231 1478.599036 429.880231 C 1477.654244 429.407835 1476.237057 428.463043 1474.819869 427.990647 C 1474.347473 427.990647 1473.875077 427.518252 1473.402682 427.518252 C 1471.985494 427.045856 1471.040702 426.57346 1469.623515 426.101064 C 1469.151119 425.628668 1468.678723 425.156272 1467.733931 425.156272 C 1466.316744 424.211481 1464.42716 423.739085 1462.537577 422.794293 C 1460.647993 422.321897 1458.75841 421.377105 1456.868827 420.90471 C 1454.979243 420.432314 1453.08966 419.487522 1451.200076 419.015126 C 1449.782889 418.54273 1447.893305 417.597939 1446.476118 417.125543 C 1446.003722 417.125543 1446.003722 417.125543 1445.531326 417.125543 C 1443.641743 416.180751 1441.752159 415.708355 1439.862576 415.235959 C 1442.224555 416.653147 1444.114138 418.54273 1446.476118 420.432314 C 1446.948514 420.432314 1446.948514 420.90471 1447.420909 421.377105 C 1449.782889 422.794293 1451.672472 424.683876 1453.562056 426.57346 C 1453.562056 426.57346 1454.034451 426.57346 1454.034451 426.57346 C 1455.924035 428.463043 1457.813618 429.880231 1459.230806 431.297419 C 1459.703202 431.769814 1460.175598 432.24221 1460.647993 432.714606 C 1462.537577 434.60419 1464.42716 436.021377 1466.316744 437.910961 C 1466.316744 437.910961 1466.78914 437.910961 1466.78914 437.910961 C 1468.206327 439.800544 1470.095911 441.217732 1471.985494 443.107315 C 1471.985494 443.579711 1472.45789 443.579711 1472.930286 444.052107 C 1474.819869 445.94169 1476.709453 447.358878 1478.12664 449.248461 C 1478.12664 449.248461 1478.599036 449.720857 1478.599036 449.720857 C 1480.016224 451.138045 1481.433411 453.027628 1482.850599 454.444816 C 1483.322995 454.917211 1483.79539 455.389607 1484.267786 455.862003 C 1486.15737 457.751587 1487.574557 459.168774 1488.991745 461.058358 C 1489.464141 461.058358 1489.464141 461.530753 1489.936537 462.003149 C 1491.353724 463.420337 1492.298516 464.837524 1493.715704 466.254712 C 1494.188099 466.727108 1494.660495 467.199504 1494.660495 467.6719 C 1496.077683 469.089087 1497.49487 470.978671 1498.912058 472.395858 C 1499.384454 472.868254 1499.85685 473.34065 1500.329246 473.813046 C 1501.274037 475.230233 1502.218829 476.647421 1503.163621 477.592213 C 1503.636017 478.537004 1504.108412 479.0094 1504.580808 479.481796 C 1505.5256 481.371379 1506.942788 482.788567 1507.887579 484.205755 C 1508.359975 485.150546 1508.832371 485.622942 1509.304767 486.095338 C 1510.249559 487.512526 1511.19435 488.457317 1511.666746 489.874505 C 1512.139142 490.346901 1512.611538 490.819297 1513.083934 491.764088 C 1514.501121 493.181276 1515.445913 494.598463 1516.390705 496.488047 C 1516.863101 496.960443 1517.335496 497.905235 1517.807892 498.37763 C 1518.280288 499.322422 1519.22508 500.73961 1519.697476 501.684401 C 1520.169872 502.156797 1520.642267 503.101589 1521.114663 504.046381 C 1522.059455 505.463568 1523.004247 506.880756 1523.949038 508.297943 C 1524.421434 509.242735 1524.89383 510.187527 1525.366226 510.659923 C 1525.838622 511.604714 1526.311018 513.021902 1527.255809 513.966694 C 1527.728205 514.43909 1527.728205 515.383881 1528.200601 516.328673 C 1529.145393 517.745861 1530.090185 519.163048 1531.034976 520.580236 C 1531.034976 521.525027 1531.507372 522.469819 1531.979768 523.414611 C 1532.452164 524.359403 1532.92456 525.304194 1533.396956 526.248986 C 1533.869351 527.193778 1534.341747 527.666174 1534.814143 528.610965 C 1535.286539 530.028153 1536.231331 531.917736 1536.703727 533.334924 C 1537.176122 534.279716 1537.648518 535.224507 1538.120914 535.696903 C 1538.59331 536.641695 1539.065706 538.058882 1539.538102 539.003674 C 1539.538102 539.47607 1540.010498 540.420862 1540.482893 541.365653 C 1411.046428 417.597939 1238.62194 323.118767 1120.05058 175.258863 Z M 1120.05058 175.258863 " transform="matrix(0.00826902,0,0,0.00826902,0,0)"/>
</g>
</svg>
