<svg height="16pt" viewBox="0 0 16 16" width="16pt" xmlns="http://www.w3.org/2000/svg" xmlns:xlink="http://www.w3.org/1999/xlink"><linearGradient id="a"><stop offset="0" stop-color="#424242"/><stop offset="1" stop-color="#616161"/></linearGradient><linearGradient id="b" gradientUnits="userSpaceOnUse" x1="169.333" x2="169.333" xlink:href="#a" y1="32.417" y2="-9.917"/><linearGradient id="c" gradientUnits="userSpaceOnUse" x1="-62.833" x2="-105.167" xlink:href="#a" y1="-269.875" y2="-269.875"/><linearGradient id="d" gradientUnits="userSpaceOnUse" x1="4.63021875" x2="4.63021875" y1="6.41009375" y2="1.77990625"><stop offset="0" stop-color="#ab47bc"/><stop offset="1" stop-color="#ba68c8"/></linearGradient><linearGradient id="e" gradientUnits="userSpaceOnUse" x1="9.2605" x2="9.2605" y1="14.016875" y2="14.67834375"><stop offset="0" stop-opacity=".275"/><stop offset="1" stop-opacity="0"/></linearGradient><linearGradient id="f"><stop offset="0" stop-opacity=".314"/><stop offset=".222" stop-opacity=".275"/><stop offset="1" stop-opacity="0"/></linearGradient><radialGradient id="g" cx="450.909" cy="189.579" gradientTransform="matrix(0 -.03907 -.07032 0 19.12 31.798)" gradientUnits="userSpaceOnUse" r="21.167" xlink:href="#f"/><radialGradient id="h" cx="450.909" cy="189.579" gradientTransform="matrix(0 .03907 .07032 0 -9.858 -3.764)" gradientUnits="userSpaceOnUse" r="21.167" xlink:href="#f"/><radialGradient id="i" cx="450.909" cy="189.579" gradientTransform="matrix(0 -.03907 .07032 0 -9.858 31.798)" gradientUnits="userSpaceOnUse" r="21.167" xlink:href="#f"/><radialGradient id="j" cx="450.909" cy="189.579" gradientTransform="matrix(0 .03907 -.07032 0 19.12 -3.764)" gradientUnits="userSpaceOnUse" r="21.167" xlink:href="#f"/><linearGradient id="k" gradientUnits="userSpaceOnUse" x1="159.417" x2="117.083" xlink:href="#a" y1="-275.167" y2="-275.167"/><linearGradient id="l" gradientUnits="userSpaceOnUse" x1="4.63021875" x2="4.63021875" y1="14.016875" y2="7.73303125"><stop offset="0" stop-color="#42a5f5"/><stop offset="1" stop-color="#64b5f6"/></linearGradient><linearGradient id="m" gradientUnits="userSpaceOnUse" x1="381" x2="381" xlink:href="#a" y1="64.167" y2=".667"/><linearGradient id="n" gradientUnits="userSpaceOnUse" x1="11.90625" x2="11.90625" y1="6.74084375" y2="1.44915625"><stop offset="0" stop-color="#ef5350"/><stop offset="1" stop-color="#e57373"/></linearGradient><linearGradient id="o" gradientTransform="matrix(0 .03125 -.03125 0 0 6.72)" gradientUnits="userSpaceOnUse" x1="212.333" x2="64.167" y1="-402.167" y2="-402.167"><stop offset="0" stop-color="#66bb6a"/><stop offset="1" stop-color="#81c784"/></linearGradient><path d="m126.988-62.89h42.37v105.865h-42.37zm0 0" fill="url(#b)" stroke="#212121" stroke-linejoin="round" stroke-width="3" transform="matrix(.03125 0 0 .03125 0 6.72)"/><path d="m-105.135-338.718h42.245v105.865h-42.245zm0 0" fill="url(#c)" stroke="#212121" stroke-linejoin="round" stroke-width="3" transform="matrix(0 .03125 -.03125 0 0 6.72)"/><path d="m1.984 1.777h5.293c.364 0 .66.297.66.664v3.305a.663.663 0 0 1 -.66.664h-5.293a.663.663 0 0 1 -.66-.664v-3.305c0-.367.297-.664.66-.664zm0 0" fill="url(#d)"/><path d="m3.309 14.016h2.644v.664h-2.643zm0 0" fill="url(#e)"/><path d="m5.953 14.016h1.324v-.66h-1.324zm0 0" fill="url(#g)"/><path d="m3.309 14.016h-1.325v.664h1.326zm0 0" fill="url(#h)"/><path d="m3.309 14.016h-1.325v-.66h1.326zm0 0" fill="url(#i)"/><path d="m5.953 14.016h1.324v.664h-1.324zm0 0" fill="url(#j)"/><path d="m117.093-317.47h42.371v105.865h-42.37zm0 0" fill="url(#k)" stroke="#212121" stroke-linejoin="round" stroke-width="3" transform="matrix(0 .03125 -.03125 0 0 6.72)"/><path d="m2.645 7.734h3.968a.66.66 0 0 1 .664.66v4.961a.66.66 0 0 1 -.664.66h-3.968a.66.66 0 0 1 -.66-.66v-4.96a.66.66 0 0 1 .66-.66zm0 0" fill="url(#l)"/><path d="m359.84-62.89h42.372v169.36h-42.372zm0 0" fill="url(#m)" stroke="#212121" stroke-linejoin="round" stroke-width="3" transform="matrix(.03125 0 0 .03125 0 6.72)"/><path d="m11.906 1.45a2.647 2.647 0 0 1 2.649 2.644 2.647 2.647 0 0 1 -5.293 0 2.644 2.644 0 0 1 2.644-2.645zm0 0" fill="url(#n)"/><path d="m14.555 9.387v3.308c0 .364-.239.66-.532.66h-4.233c-.289 0-.527-.296-.527-.66v-3.308c0-.367.238-.66.527-.66h4.234c.293 0 .532.293.532.66zm0 0" fill="url(#o)"/><path d="m1.984 1.777a.66.66 0 0 0 -.66.664v.164c0-.367.293-.66.66-.66h5.293c.368 0 .66.293.66.66v-.164a.66.66 0 0 0 -.66-.664zm0 0" fill="#fff" fill-opacity=".392"/><path d="m1.984 6.41a.66.66 0 0 1 -.66-.664v-.164c0 .367.293.66.66.66h5.293c.368 0 .66-.293.66-.66v.164a.66.66 0 0 1 -.66.664zm0 0" fill-opacity=".235"/><path d="m1.984 1.73a.708.708 0 0 0 -.707.711v3.305c0 .395.317.711.707.711h5.293c.391 0 .707-.316.707-.71v-3.307a.708.708 0 0 0 -.707-.71zm0 .094h5.293c.34 0 .614.274.614.617v3.305a.613.613 0 0 1 -.614.617h-5.293a.613.613 0 0 1 -.613-.617v-3.305c0-.343.274-.617.613-.617zm0 0" fill="#212121"/><path d="m11.906 1.45a2.639 2.639 0 0 0 -2.644 2.644v.082a2.64 2.64 0 0 1 2.644-2.563 2.64 2.64 0 0 1 2.645 2.563c.004-.028.004-.055.004-.082a2.64 2.64 0 0 0 -2.649-2.645zm0 0" fill="#fff" fill-opacity=".392"/><path d="m11.906 6.738a2.639 2.639 0 0 1 -2.644-2.644v-.082a2.64 2.64 0 0 0 2.644 2.562 2.64 2.64 0 0 0 2.645-2.562c.004.027.004.054.004.082a2.64 2.64 0 0 1 -2.649 2.644zm0 0" fill-opacity=".235"/><path d="m11.906 1.402a2.687 2.687 0 0 0 -2.691 2.692 2.687 2.687 0 0 0 2.691 2.691c1.492 0 2.696-1.2 2.696-2.691a2.687 2.687 0 0 0 -2.696-2.692zm0 .094a2.592 2.592 0 0 1 2.602 2.598 2.592 2.592 0 0 1 -2.602 2.597 2.589 2.589 0 0 1 -2.596-2.597 2.589 2.589 0 0 1 2.597-2.598zm0 0" fill="#212121"/><path d="m2.645 7.734a.66.66 0 0 0 -.66.66v.165a.66.66 0 0 1 .66-.66h3.968a.66.66 0 0 1 .664.66v-.164a.66.66 0 0 0 -.664-.66zm0 0" fill="#fff" fill-opacity=".392"/><path d="m6.613 14.016a.66.66 0 0 0 .664-.66v-.165c0 .364-.297.66-.664.66h-3.968a.662.662 0 0 1 -.66-.66v.164c0 .368.296.66.66.66zm0 0" fill-opacity=".235"/><path d="m2.645 7.688a.707.707 0 0 0 -.708.707v4.96c0 .391.317.707.708.707h3.968c.395 0 .711-.316.711-.707v-4.96a.708.708 0 0 0 -.71-.707zm0 .093h3.968a.61.61 0 0 1 .617.614v4.96c0 .34-.273.614-.617.614h-3.968a.612.612 0 0 1 -.614-.614v-4.96a.61.61 0 0 1 .614-.614zm0 0" fill="#212121"/><path d="m9.79 8.727c-.294 0-.528.293-.528.66v.164c0-.367.234-.66.527-.66h4.234c.293 0 .532.293.532.66v-.164c0-.367-.239-.66-.532-.66zm0 0" fill="#fff" fill-opacity=".392"/><path d="m9.79 13.355c-.294 0-.528-.296-.528-.66v-.168c0 .368.234.664.527.664h4.234c.293 0 .532-.296.532-.664v.168c0 .364-.239.66-.532.66zm0 0" fill-opacity=".235"/><path d="m14.602 9.387c0-.387-.254-.707-.579-.707h-4.233c-.324 0-.574.32-.574.707v3.308c0 .387.25.707.574.707h4.234c.325 0 .579-.32.579-.707zm-.094 0v3.308c0 .344-.223.614-.485.614h-4.233c-.262 0-.48-.27-.48-.614v-3.308c0-.348.218-.614.48-.614h4.234c.262 0 .485.266.485.614zm0 0" fill="#212121"/></svg>