<svg xmlns="http://www.w3.org/2000/svg" width="16pt" height="16pt" viewBox="0 0 16 16"><defs><linearGradient id="a" gradientUnits="userSpaceOnUse" x1="254" y1="233.5" x2="254" y2="254.667" gradientTransform="matrix(.03125 0 0 .03125 0 6.72)"><stop offset="0" stop-opacity=".275"/><stop offset="1" stop-opacity="0"/></linearGradient><radialGradient id="b" gradientUnits="userSpaceOnUse" cx="450.909" cy="189.579" fx="450.909" fy="189.579" r="21.167" gradientTransform="matrix(0 -.03907 -.07032 0 21.6 31.798)"><stop offset="0" stop-opacity=".314"/><stop offset=".222" stop-opacity=".275"/><stop offset="1" stop-opacity="0"/></radialGradient><radialGradient id="c" gradientUnits="userSpaceOnUse" cx="450.909" cy="189.579" fx="450.909" fy="189.579" r="21.167" gradientTransform="matrix(0 .03907 .07032 0 -5.724 -3.764)"><stop offset="0" stop-opacity=".314"/><stop offset=".222" stop-opacity=".275"/><stop offset="1" stop-opacity="0"/></radialGradient><radialGradient id="d" gradientUnits="userSpaceOnUse" cx="450.909" cy="189.579" fx="450.909" fy="189.579" r="21.167" gradientTransform="matrix(0 -.03907 .07032 0 -5.724 31.798)"><stop offset="0" stop-opacity=".314"/><stop offset=".222" stop-opacity=".275"/><stop offset="1" stop-opacity="0"/></radialGradient><radialGradient id="e" gradientUnits="userSpaceOnUse" cx="450.909" cy="189.579" fx="450.909" fy="189.579" r="21.167" gradientTransform="matrix(0 .03907 -.07032 0 21.6 -3.764)"><stop offset="0" stop-opacity=".314"/><stop offset=".222" stop-opacity=".275"/><stop offset="1" stop-opacity="0"/></radialGradient><linearGradient id="f" gradientUnits="userSpaceOnUse" x1="960" y1="1695.118" x2="960" y2="175.118"><stop offset="0" stop-color="#424242"/><stop offset="1" stop-color="#616161"/></linearGradient><linearGradient id="g" gradientUnits="userSpaceOnUse" x1="960" y1="1695.118" x2="960" y2="175.118"><stop offset="0" stop-color="#424242"/><stop offset="1" stop-color="#616161"/></linearGradient><linearGradient id="h" gradientUnits="userSpaceOnUse" x1="960" y1="615.118" x2="960" y2="175.118"><stop offset="0" stop-color="#e0e0e0"/><stop offset="1" stop-color="#eee"/></linearGradient></defs><path d="M7.441 14.016h.993v.664H7.44zm0 0" fill="url(#a)"/><path d="M8.434 14.016h1.324v-.66H8.434zm0 0" fill="url(#b)"/><path d="M7.441 14.016H6.117v.664h1.324zm0 0" fill="url(#c)"/><path d="M7.441 14.016H6.117v-.66h1.324zm0 0" fill="url(#d)"/><path d="M8.434 14.016h1.324v.664H8.434zm0 0" fill="url(#e)"/><path d="M959.908 170.063c-27.399 0-54.798 15.116-79.835 44.877l-680.25 800.239c-29.76 40.153-9.92 69.914 0 79.835 280.131 200.295 400.12 200.295 620.256 520.107 100.148 119.989 179.983 119.989 259.818 0 239.977-319.812 359.966-319.812 640.096-520.107 9.92-9.92 30.234-39.682 0-79.835L1040.216 214.94c-25.037-29.76-52.909-44.877-80.308-44.877zm0 0" transform="rotate(.882) scale(.00827)" fill-rule="evenodd" fill="url(#f)" stroke="url(#g)"/><path d="M959.908 170.063c-27.399 0-54.798 15.116-79.835 44.877L505.936 655.213C599.943 895.19 700.091 895.19 793.625 810.16c146.443-195.1 189.43 9.92 247.063-152.112 79.363-222.97 239.505 316.978 373.193-2.834L1040.216 214.94c-25.037-29.76-52.909-44.877-80.308-44.877zm0 0" transform="rotate(.882) scale(.00827)" fill-rule="evenodd" fill="url(#h)" stroke-width="11.339" stroke="#212121"/><path d="M7.938 1.406c-.227 0-.454.125-.66.371L1.651 8.395a.543.543 0 0 0-.125.406.626.626 0 0 1 .125-.281l5.625-6.618c.207-.246.434-.37.66-.37.227 0 .458.124.665.37l5.62 6.618a.586.586 0 0 1 .126.28.543.543 0 0 0-.125-.405L8.602 1.777c-.207-.246-.438-.37-.665-.37zm0 0" fill-rule="evenodd" fill="#fff" fill-opacity=".608"/><path d="M1.527 8.676a.452.452 0 0 0 .125.379c2.317 1.656 3.309 1.656 5.13 4.3.827.993 1.488.993 2.148 0 1.984-2.644 2.976-2.644 5.293-4.3a.44.44 0 0 0 .125-.38.44.44 0 0 1-.125.255c-2.317 1.656-3.309 1.656-5.293 4.3-.66.993-1.32.993-2.149 0-1.82-2.644-2.812-2.644-5.129-4.3a.44.44 0 0 1-.125-.254zm0 0" fill-rule="evenodd" fill-opacity=".275"/><path d="M7.938 1.36c-.243 0-.485.132-.696.39L1.617 8.363v.004c-.133.172-.156.332-.133.461a.51.51 0 0 0 .137.262h.004v.004c1.16.828 1.988 1.242 2.75 1.777.762.535 1.46 1.191 2.367 2.512l.004.004c.414.5.797.761 1.172.761.371 0 .715-.265 1.05-.765.989-1.32 1.727-1.977 2.512-2.512.782-.535 1.61-.95 2.77-1.777l.004-.004h.004a.51.51 0 0 0 .137-.262.602.602 0 0 0-.133-.46l-.004-.005L8.637 1.75c-.215-.258-.453-.39-.7-.39zm0 .093c.21 0 .425.113.625.356l5.624 6.613c.118.156.133.285.114.387a.421.421 0 0 1-.11.21c-1.152.825-1.976 1.235-2.765 1.774-.79.543-1.54 1.207-2.531 2.535H8.89c-.325.492-.645.727-.973.727-.328 0-.691-.239-1.102-.727C5.906 12 5.2 11.336 4.43 10.797c-.766-.543-1.59-.953-2.746-1.777a.421.421 0 0 1-.11-.211c-.015-.102 0-.23.117-.387l5.622-6.613c.199-.243.414-.356.625-.356zm0 0" fill-rule="evenodd" fill="#212121"/></svg>