<svg xmlns="http://www.w3.org/2000/svg" width="16pt" height="16pt" viewBox="0 0 16 16"><defs><radialGradient id="a" gradientUnits="userSpaceOnUse" cx="450.909" cy="189.579" fx="450.909" fy="189.579" r="21.167" gradientTransform="matrix(0 -.03907 -.07032 0 21.104 31.798)"><stop offset="0" stop-opacity=".314"/><stop offset=".222" stop-opacity=".275"/><stop offset="1" stop-opacity="0"/></radialGradient><radialGradient id="b" gradientUnits="userSpaceOnUse" cx="450.909" cy="189.579" fx="450.909" fy="189.579" r="21.167" gradientTransform="matrix(0 .03907 .07032 0 -5.227 -3.764)"><stop offset="0" stop-opacity=".314"/><stop offset=".222" stop-opacity=".275"/><stop offset="1" stop-opacity="0"/></radialGradient><radialGradient id="c" gradientUnits="userSpaceOnUse" cx="450.909" cy="189.579" fx="450.909" fy="189.579" r="21.167" gradientTransform="matrix(0 -.03907 .07032 0 -5.227 31.798)"><stop offset="0" stop-opacity=".314"/><stop offset=".222" stop-opacity=".275"/><stop offset="1" stop-opacity="0"/></radialGradient><radialGradient id="d" gradientUnits="userSpaceOnUse" cx="450.909" cy="189.579" fx="450.909" fy="189.579" r="21.167" gradientTransform="matrix(0 .03907 -.07032 0 21.104 -3.764)"><stop offset="0" stop-opacity=".314"/><stop offset=".222" stop-opacity=".275"/><stop offset="1" stop-opacity="0"/></radialGradient><linearGradient id="e" gradientUnits="userSpaceOnUse" x1="960" y1="1695.118" x2="960" y2="175.118"><stop offset="0" stop-color="#424242"/><stop offset="1" stop-color="#616161"/></linearGradient><linearGradient id="f" gradientUnits="userSpaceOnUse" x1="254" y1="191.167" x2="254" y2="-126.333" gradientTransform="matrix(.03125 0 0 .03125 0 6.72)"><stop offset="0" stop-color="#616161"/><stop offset="1" stop-color="#757575"/></linearGradient><linearGradient id="g" gradientUnits="userSpaceOnUse" x1="254" y1="53.583" x2="254" y2="11.25"><stop offset="0" stop-color="#424242"/><stop offset="1" stop-color="#616161"/></linearGradient></defs><path d="M7.938 14.016h1.324v-.66H7.937zm0 0" fill="url(#a)"/><path d="M7.938 14.016H6.612v.664h1.324zm0 0" fill="url(#b)"/><path d="M7.938 14.016H6.612v-.66h1.324zm0 0" fill="url(#c)"/><path d="M7.938 14.016h1.324v.664H7.937zm0 0" fill="url(#d)"/><path d="M959.908 175.259c-44.405 0-79.835 35.43-79.835 79.835v487.04L535.697 397.757c-31.178-31.178-81.725-31.178-112.903 0a78.993 78.993 0 0 0 0 112.903l343.904 344.377H280.131c-44.405 0-80.308 35.902-80.308 80.307 0 43.933 35.903 79.835 80.308 79.835h486.567l-343.904 344.376a78.993 78.993 0 0 0 0 112.903c31.178 31.178 81.725 31.178 112.903 0l344.376-344.377v487.04c0 44.406 35.43 79.835 79.835 79.835 44.406 0 80.308-35.43 80.308-79.835v-487.04l343.904 344.377c31.65 31.178 81.724 31.178 113.375 0 31.178-31.178 31.178-81.725 0-112.903l-344.377-344.376h487.04c43.933 0 79.835-35.902 79.835-79.835 0-44.405-35.902-80.307-79.835-80.307h-487.04l344.377-344.377c31.178-31.178 31.178-81.725 0-112.903-31.65-31.178-81.725-31.178-113.375 0l-343.904 344.377v-487.04c0-44.405-35.902-79.835-80.308-79.835zm0 0" transform="rotate(.882) scale(.00827)" fill="url(#e)" stroke-width="11.339" stroke-linecap="round" stroke="#212121"/><path d="M7.938 2.77a4.961 4.961 0 0 1 4.96 4.964 4.96 4.96 0 1 1-9.921 0 4.964 4.964 0 0 1 4.96-4.964zm0 0" fill="url(#f)"/><path d="M253.976 11.228c11.749 0 21.248 9.5 21.248 21.248 0 11.624-9.5 21.123-21.248 21.123-11.624 0-21.123-9.499-21.123-21.123 0-11.749 9.499-21.248 21.123-21.248zm0 0" transform="matrix(.03125 0 0 .03125 0 6.72)" fill="url(#g)" stroke-width="3" stroke-linecap="round" stroke="#212121"/><path d="M7.938 2.77a4.954 4.954 0 0 0-4.961 5.046 4.951 4.951 0 0 1 4.96-4.878 4.948 4.948 0 0 1 4.961 4.878v-.082c0-2.75-2.21-4.964-4.96-4.964zm0 0" fill="#fff" fill-opacity=".392"/><path d="M7.938 12.695a4.953 4.953 0 0 1-4.961-4.96v-.087a4.951 4.951 0 0 0 4.96 4.88 4.948 4.948 0 0 0 4.961-4.88v.086a4.95 4.95 0 0 1-4.96 4.961zm0 0" fill-opacity=".235"/><path d="M7.938 2.77a4.961 4.961 0 0 1 4.96 4.964 4.96 4.96 0 1 1-9.921 0 4.964 4.964 0 0 1 4.96-4.964zm0 0" fill="none" stroke-width=".09078125" stroke-linecap="round" stroke="#212121"/></svg>