<?xml version="1.0" encoding="UTF-8"?>
<svg xmlns="http://www.w3.org/2000/svg" xmlns:xlink="http://www.w3.org/1999/xlink" width="16pt" height="16pt" viewBox="0 0 16 16" version="1.1">
<defs>
<radialGradient id="radial0" gradientUnits="userSpaceOnUse" cx="450.908936" cy="189.579361" fx="450.908936" fy="189.579361" r="21.166656" gradientTransform="matrix(0.0000000870852,-0.0390662,-0.0703192,-0.0000000507693,21.930815,31.797665)">
<stop offset="0" style="stop-color:rgb(0%,0%,0%);stop-opacity:0.313725;"/>
<stop offset="0.222222" style="stop-color:rgb(0%,0%,0%);stop-opacity:0.27451;"/>
<stop offset="1" style="stop-color:rgb(0%,0%,0%);stop-opacity:0;"/>
</radialGradient>
<radialGradient id="radial1" gradientUnits="userSpaceOnUse" cx="450.908936" cy="189.579361" fx="450.908936" fy="189.579361" r="21.166656" gradientTransform="matrix(-0.0000000870852,0.0390662,0.0703192,0.0000000507693,-6.71582,-3.763741)">
<stop offset="0" style="stop-color:rgb(0%,0%,0%);stop-opacity:0.313725;"/>
<stop offset="0.222222" style="stop-color:rgb(0%,0%,0%);stop-opacity:0.27451;"/>
<stop offset="1" style="stop-color:rgb(0%,0%,0%);stop-opacity:0;"/>
</radialGradient>
<radialGradient id="radial2" gradientUnits="userSpaceOnUse" cx="450.908936" cy="189.579361" fx="450.908936" fy="189.579361" r="21.166656" gradientTransform="matrix(-0.0000000870852,-0.0390662,0.0703192,-0.0000000507693,-6.71582,31.797665)">
<stop offset="0" style="stop-color:rgb(0%,0%,0%);stop-opacity:0.313725;"/>
<stop offset="0.222222" style="stop-color:rgb(0%,0%,0%);stop-opacity:0.27451;"/>
<stop offset="1" style="stop-color:rgb(0%,0%,0%);stop-opacity:0;"/>
</radialGradient>
<radialGradient id="radial3" gradientUnits="userSpaceOnUse" cx="450.908936" cy="189.579361" fx="450.908936" fy="189.579361" r="21.166656" gradientTransform="matrix(0.0000000870852,0.0390662,-0.0703192,0.0000000507693,21.930814,-3.763741)">
<stop offset="0" style="stop-color:rgb(0%,0%,0%);stop-opacity:0.313725;"/>
<stop offset="0.222222" style="stop-color:rgb(0%,0%,0%);stop-opacity:0.27451;"/>
<stop offset="1" style="stop-color:rgb(0%,0%,0%);stop-opacity:0;"/>
</radialGradient>
<linearGradient id="linear0" gradientUnits="userSpaceOnUse" x1="255.323059" y1="233.5" x2="255.323044" y2="254.666656" gradientTransform="matrix(0.00668003,0,0,0.031253,5.901932,6.719392)">
<stop offset="0" style="stop-color:rgb(0%,0%,0%);stop-opacity:0.27451;"/>
<stop offset="1" style="stop-color:rgb(0%,0%,0%);stop-opacity:0;"/>
</linearGradient>
<linearGradient id="linear1" gradientUnits="userSpaceOnUse" x1="222.222565" y1="233.5" x2="232.805893" y2="-168.666672" gradientTransform="matrix(0.031253,0,0,0.031253,-0.329903,6.719392)">
<stop offset="0" style="stop-color:rgb(63.137255%,53.333333%,49.803922%);stop-opacity:1;"/>
<stop offset="1" style="stop-color:rgb(73.72549%,66.666667%,64.313725%);stop-opacity:1;"/>
</linearGradient>
<linearGradient id="linear2" gradientUnits="userSpaceOnUse" x1="316.079865" y1="-15.06434" x2="316.079865" y2="-105.022667" gradientTransform="matrix(0.806982,0,0,0.806982,-0.000000112907,-0.00000280117)">
<stop offset="0" style="stop-color:rgb(14.901961%,77.647059%,85.490196%);stop-opacity:1;"/>
<stop offset="1" style="stop-color:rgb(30.196078%,81.568627%,88.235294%);stop-opacity:1;"/>
</linearGradient>
<linearGradient id="linear3" gradientUnits="userSpaceOnUse" x1="316.079865" y1="-15.06434" x2="316.079865" y2="-105.022667" >
<stop offset="0" style="stop-color:rgb(100%,65.490196%,14.901961%);stop-opacity:1;"/>
<stop offset="1" style="stop-color:rgb(100%,71.764706%,30.196078%);stop-opacity:1;"/>
</linearGradient>
<linearGradient id="linear4" gradientUnits="userSpaceOnUse" x1="316.079865" y1="-15.06434" x2="316.079865" y2="-105.022667" >
<stop offset="0" style="stop-color:rgb(67.058824%,27.843137%,73.72549%);stop-opacity:1;"/>
<stop offset="1" style="stop-color:rgb(72.941176%,40.784314%,78.431373%);stop-opacity:1;"/>
</linearGradient>
<linearGradient id="linear5" gradientUnits="userSpaceOnUse" x1="316.079865" y1="-15.06434" x2="316.079865" y2="-105.022667" >
<stop offset="0" style="stop-color:rgb(61.176471%,80%,39.607843%);stop-opacity:1;"/>
<stop offset="1" style="stop-color:rgb(68.235294%,83.529412%,50.588235%);stop-opacity:1;"/>
</linearGradient>
<radialGradient id="radial4" gradientUnits="userSpaceOnUse" cx="450.908936" cy="189.579361" fx="450.908936" fy="189.579361" r="21.166656" gradientTransform="matrix(0.0000000435426,-0.0195331,-0.0351596,-0.0000000253846,17.828697,21.915022)">
<stop offset="0" style="stop-color:rgb(0%,0%,0%);stop-opacity:0.313725;"/>
<stop offset="0.222222" style="stop-color:rgb(0%,0%,0%);stop-opacity:0.27451;"/>
<stop offset="1" style="stop-color:rgb(0%,0%,0%);stop-opacity:0;"/>
</radialGradient>
<radialGradient id="radial5" gradientUnits="userSpaceOnUse" cx="450.908936" cy="189.579361" fx="450.908936" fy="189.579361" r="21.166656" gradientTransform="matrix(-0.0000000435426,0.0195331,0.0351596,0.0000000253846,4.663035,4.13434)">
<stop offset="0" style="stop-color:rgb(0%,0%,0%);stop-opacity:0.313725;"/>
<stop offset="0.222222" style="stop-color:rgb(0%,0%,0%);stop-opacity:0.27451;"/>
<stop offset="1" style="stop-color:rgb(0%,0%,0%);stop-opacity:0;"/>
</radialGradient>
<radialGradient id="radial6" gradientUnits="userSpaceOnUse" cx="450.908936" cy="189.579361" fx="450.908936" fy="189.579361" r="21.166656" gradientTransform="matrix(-0.0000000435426,-0.0195331,0.0351596,-0.0000000253846,4.663035,21.915022)">
<stop offset="0" style="stop-color:rgb(0%,0%,0%);stop-opacity:0.313725;"/>
<stop offset="0.222222" style="stop-color:rgb(0%,0%,0%);stop-opacity:0.27451;"/>
<stop offset="1" style="stop-color:rgb(0%,0%,0%);stop-opacity:0;"/>
</radialGradient>
<radialGradient id="radial7" gradientUnits="userSpaceOnUse" cx="450.908936" cy="189.579361" fx="450.908936" fy="189.579361" r="21.166656" gradientTransform="matrix(0.0000000435426,0.0195331,-0.0351596,0.0000000253846,17.828696,4.13434)">
<stop offset="0" style="stop-color:rgb(0%,0%,0%);stop-opacity:0.313725;"/>
<stop offset="0.222222" style="stop-color:rgb(0%,0%,0%);stop-opacity:0.27451;"/>
<stop offset="1" style="stop-color:rgb(0%,0%,0%);stop-opacity:0;"/>
</radialGradient>
<linearGradient id="linear6" gradientUnits="userSpaceOnUse" x1="187.386063" y1="195.040436" x2="256.177734" y2="75.889771" gradientTransform="matrix(0.0270659,-0.0156265,0.0156265,0.0270659,0.810974,10.673928)">
<stop offset="0" style="stop-color:rgb(55.294118%,43.137255%,38.823529%);stop-opacity:1;"/>
<stop offset="1" style="stop-color:rgb(63.137255%,53.333333%,49.803922%);stop-opacity:1;"/>
</linearGradient>
<linearGradient id="linear7" gradientUnits="userSpaceOnUse" x1="221.971863" y1="92.80275" x2="264.305206" y2="19.479267" gradientTransform="matrix(0.0270659,-0.0156265,0.0156265,0.0270659,0.810974,10.673928)">
<stop offset="0" style="stop-color:rgb(74.117647%,74.117647%,74.117647%);stop-opacity:1;"/>
<stop offset="1" style="stop-color:rgb(87.843137%,87.843137%,87.843137%);stop-opacity:1;"/>
</linearGradient>
<linearGradient id="linear8" gradientUnits="userSpaceOnUse" x1="243.416672" y1="64.166664" x2="243.416672" y2="-41.666668" gradientTransform="matrix(1,0,0,1,0,-31.74999)">
<stop offset="0" style="stop-color:rgb(38.039216%,38.039216%,38.039216%);stop-opacity:1;"/>
<stop offset="1" style="stop-color:rgb(45.882353%,45.882353%,45.882353%);stop-opacity:1;"/>
</linearGradient>
<linearGradient id="linear9" gradientUnits="userSpaceOnUse" x1="316.079865" y1="-15.06434" x2="316.079865" y2="-105.022667" gradientTransform="matrix(1,0,0,1,0,-0.000000000000056843)">
<stop offset="0" style="stop-color:rgb(93.72549%,32.54902%,31.372549%);stop-opacity:1;"/>
<stop offset="1" style="stop-color:rgb(89.803922%,45.098039%,45.098039%);stop-opacity:1;"/>
</linearGradient>
</defs>
<g id="surface1">
<path style=" stroke:none;fill-rule:nonzero;fill:url(#radial0);" d="M 8.765625 14.015625 L 10.089844 14.015625 L 10.089844 13.355469 L 8.765625 13.355469 Z M 8.765625 14.015625 "/>
<path style=" stroke:none;fill-rule:nonzero;fill:url(#radial1);" d="M 6.449219 14.015625 L 5.125 14.015625 L 5.125 14.679688 L 6.449219 14.679688 Z M 6.449219 14.015625 "/>
<path style=" stroke:none;fill-rule:nonzero;fill:url(#radial2);" d="M 6.449219 14.015625 L 5.125 14.015625 L 5.125 13.355469 L 6.449219 13.355469 Z M 6.449219 14.015625 "/>
<path style=" stroke:none;fill-rule:nonzero;fill:url(#radial3);" d="M 8.765625 14.015625 L 10.089844 14.015625 L 10.089844 14.679688 L 8.765625 14.679688 Z M 8.765625 14.015625 "/>
<path style=" stroke:none;fill-rule:nonzero;fill:url(#linear0);" d="M 6.449219 13.851562 L 8.765625 13.851562 L 8.765625 14.679688 L 6.449219 14.679688 Z M 6.449219 13.851562 "/>
<path style=" stroke:none;fill-rule:nonzero;fill:url(#linear1);" d="M 7.609375 1.449219 C 4.125 1.449219 1.324219 4.25 1.324219 7.734375 C 1.324219 11.214844 4.125 14.015625 7.609375 14.015625 C 8.105469 14.015625 8.589844 13.960938 9.054688 13.851562 C 10.914062 13.355469 6.617188 10.046875 9.261719 9.386719 C 11.910156 8.726562 13.894531 9.71875 13.894531 7.734375 C 13.894531 4.25 11.089844 1.449219 7.609375 1.449219 Z M 7.609375 1.449219 "/>
<path style="fill-rule:nonzero;fill:url(#linear2);stroke-width:2.420945;stroke-linecap:round;stroke-linejoin:round;stroke:rgb(12.941177%,12.941177%,12.941177%);stroke-opacity:1;stroke-miterlimit:4;" d="M 271.94695 -23.502293 C 261.448723 -19.810759 275.297449 -15.657784 264.352488 -16.119226 C 253.51921 -16.465307 260.555256 -21.425806 249.833662 -24.194456 C 239.112068 -26.847746 240.899 -10.812646 231.740972 -16.003865 C 222.694627 -21.195085 237.883552 -26.040223 230.624139 -34.692255 C 223.364726 -43.344287 223.476409 -27.078467 219.344128 -37.114824 C 215.211847 -47.151181 224.593242 -40.114195 224.369876 -50.842715 C 224.146509 -61.455875 212.084715 -53.957447 217.333829 -63.417002 C 222.694627 -72.876557 221.912844 -60.30227 230.177406 -68.031419 C 238.441968 -75.760568 231.629288 -79.221381 241.122367 -84.4126 C 250.615445 -89.488459 236.766719 -82.797554 248.158413 -82.566833 C 259.438424 -82.220752 258.209908 -87.06589 268.484769 -83.374356 C 278.871313 -79.682822 268.931502 -81.297868 278.201214 -75.875928 C 287.359242 -70.453988 279.988146 -77.490974 285.90736 -68.954303 C 291.71489 -60.417631 284.56716 -71.261511 287.024192 -61.225154 C 289.592908 -51.188796 292.608356 -63.417002 293.836872 -52.688482 C 295.177071 -41.959962 291.268157 -48.650867 287.917659 -38.72987 C 284.455477 -28.808873 296.293904 -34.000092 287.917659 -27.193827 C 279.541413 -20.387562 282.445178 -27.193827 271.94695 -23.502293 Z M 271.94695 -23.502293 " transform="matrix(0.0349761,0,0,0.0338613,-3.015561,13.05363)"/>
<path style="fill-rule:nonzero;fill:url(#linear3);stroke-width:3;stroke-linecap:round;stroke-linejoin:round;stroke:rgb(12.941177%,12.941177%,12.941177%);stroke-opacity:1;stroke-miterlimit:4;" d="M 338.092625 -33.947242 C 325.343842 -28.94772 331.218281 -16.323925 317.844558 -15.324021 C 304.470836 -14.449104 323.843986 -20.448532 309.720334 -23.698221 C 295.721671 -27.072899 302.471027 -16.198937 289.097304 -22.198364 C 275.848569 -28.072803 302.346038 -31.322493 292.346993 -40.821586 C 282.472936 -50.320679 279.473223 -38.821777 276.473509 -52.1955 C 273.348808 -65.569223 285.972602 -50.945619 285.347662 -65.819199 C 284.597733 -80.56779 271.973939 -68.9439 276.223533 -81.692683 C 280.348139 -94.316478 275.848569 -77.318101 285.347662 -87.192158 C 294.971743 -96.941227 287.472459 -93.191585 299.971265 -100.565881 C 312.59506 -107.940177 303.345943 -96.316287 316.844654 -96.191298 C 330.343365 -96.06631 315.219809 -109.565021 328.468544 -107.190248 C 341.592291 -104.815475 324.343938 -99.316 336.717756 -93.441561 C 349.091575 -87.442134 350.716419 -104.815475 358.840644 -93.691537 C 366.964868 -82.442611 343.842076 -81.692683 348.466634 -68.818912 C 353.091193 -55.945142 363.090238 -79.067934 360.090524 -64.694306 C 357.090811 -50.445667 358.715655 -56.07013 352.466252 -43.696312 C 346.091861 -31.447481 364.840071 -39.446717 354.716037 -29.197696 C 344.592004 -18.823687 350.966395 -39.071753 338.092625 -33.947242 Z M 338.092625 -33.947242 " transform="matrix(0.031253,0,0,0.031253,-6.597653,9.787515)"/>
<path style="fill-rule:nonzero;fill:url(#linear4);stroke-width:3;stroke-linecap:round;stroke-linejoin:round;stroke:rgb(12.941177%,12.941177%,12.941177%);stroke-opacity:1;stroke-miterlimit:4;" d="M 331.92618 -30.969367 C 319.67735 -25.719869 330.051359 -16.095788 317.302576 -15.345859 C 304.428806 -14.470943 318.677445 -16.345764 306.303627 -21.09531 C 293.929808 -25.844857 301.804056 -16.59574 288.930286 -21.970227 C 275.931527 -27.469702 297.05451 -32.219248 287.305441 -41.593353 C 277.431384 -50.84247 279.681169 -39.593544 276.806444 -52.467314 C 273.931718 -65.341085 277.306396 -55.717004 280.181121 -68.465787 C 282.930859 -81.214569 272.556849 -69.465691 276.431479 -81.589533 C 280.306109 -93.838364 277.68136 -79.589724 287.055465 -89.838746 C 296.304582 -99.962779 288.305346 -92.838459 300.429188 -100.087767 C 312.428042 -107.212086 298.929331 -98.212946 312.678018 -101.962588 C 326.551693 -105.587242 315.80272 -109.211896 328.426514 -106.96211 C 341.050309 -104.837313 332.55112 -107.587051 343.675058 -100.337743 C 354.798996 -93.088435 351.29933 -104.587337 359.173578 -93.838364 C 366.922838 -83.214378 349.549497 -91.213614 353.924079 -78.714808 C 358.173673 -66.216001 362.673244 -78.964784 359.67353 -65.216097 C 356.548829 -51.46741 360.673435 -64.34118 355.17396 -51.217434 C 349.549497 -38.093687 364.798041 -38.968603 355.048972 -29.094546 C 345.174915 -19.095501 344.299998 -36.093878 331.92618 -30.969367 Z M 331.92618 -30.969367 " transform="matrix(0.031253,0,0,0.031253,-5.115871,6.190541)"/>
<path style=" stroke:none;fill-rule:nonzero;fill:rgb(100%,100%,100%);fill-opacity:0.392157;" d="M 7.609375 1.449219 C 4.125 1.449219 1.324219 4.25 1.324219 7.734375 C 1.324219 7.761719 1.324219 7.789062 1.324219 7.816406 C 1.367188 4.371094 4.15625 1.613281 7.609375 1.613281 C 11.058594 1.613281 13.839844 4.363281 13.890625 7.796875 C 13.890625 7.777344 13.894531 7.753906 13.894531 7.734375 C 13.894531 4.25 11.089844 1.449219 7.609375 1.449219 Z M 8.378906 10.375 C 8.308594 11.265625 9.453125 12.585938 9.535156 13.382812 C 9.621094 12.65625 8.449219 11.324219 8.378906 10.375 Z M 8.378906 10.375 "/>
<path style=" stroke:none;fill-rule:nonzero;fill:rgb(0%,0%,0%);fill-opacity:0.235294;" d="M 13.890625 7.648438 C 13.855469 9.558594 11.882812 8.589844 9.261719 9.246094 C 8.566406 9.417969 8.351562 9.777344 8.378906 10.21875 C 8.402344 9.84375 8.640625 9.542969 9.261719 9.386719 C 11.910156 8.726562 13.894531 9.71875 13.894531 7.734375 C 13.894531 7.703125 13.894531 7.675781 13.890625 7.648438 Z M 1.324219 7.660156 C 1.324219 7.683594 1.324219 7.707031 1.324219 7.734375 C 1.324219 11.214844 4.125 14.015625 7.609375 14.015625 C 8.105469 14.015625 8.589844 13.960938 9.054688 13.851562 C 9.4375 13.75 9.5625 13.527344 9.535156 13.234375 C 9.511719 13.457031 9.375 13.625 9.054688 13.710938 C 8.589844 13.816406 8.105469 13.875 7.609375 13.875 C 4.148438 13.875 1.363281 11.109375 1.324219 7.660156 Z M 1.324219 7.660156 "/>
<path style="fill-rule:nonzero;fill:url(#linear5);stroke-width:3;stroke-linecap:round;stroke-linejoin:round;stroke:rgb(12.941177%,12.941177%,12.941177%);stroke-opacity:1;stroke-miterlimit:4;" d="M 340.663218 -22.051532 C 329.039328 -18.051914 329.53928 -16.052104 317.29045 -15.302176 C 305.041619 -14.552248 323.664841 -16.552057 311.166035 -17.801937 C 298.792216 -19.051818 301.291977 -16.802033 288.918159 -22.051532 C 276.544341 -27.176042 290.043052 -20.301699 283.543672 -31.050672 C 276.919305 -41.799646 279.544054 -40.174801 276.794317 -52.423631 C 274.169568 -64.79745 271.044866 -56.048285 273.419639 -68.297115 C 275.9194 -80.420958 272.669711 -69.92196 276.419353 -81.670838 C 280.168995 -93.294728 279.669042 -85.545468 288.918159 -95.169549 C 298.167276 -104.918618 288.793171 -93.16974 300.417061 -100.044084 C 311.915963 -106.918427 299.917109 -111.667974 312.290927 -111.168021 C 324.664745 -110.793057 316.290545 -109.168212 328.414387 -107.043415 C 340.53823 -104.918618 336.288635 -113.16783 347.662549 -106.418475 C 359.036463 -99.669119 351.662167 -104.16869 359.161451 -93.919669 C 366.535747 -83.670647 364.160974 -88.67017 366.910711 -76.42134 C 369.785437 -64.172509 362.536129 -78.29616 359.661403 -65.172414 C 356.66169 -52.048667 364.035986 -53.048572 360.53632 -40.924729 C 357.036654 -28.675899 364.41095 -38.424968 355.036845 -29.050863 C 345.66274 -19.55177 352.16212 -26.05115 340.663218 -22.051532 Z M 340.663218 -22.051532 " transform="matrix(0.031253,0,0,0.031253,-1.146742,5.52902)"/>
<path style=" stroke:none;fill-rule:nonzero;fill:url(#radial4);" d="M 11.246094 13.023438 L 11.90625 13.023438 L 11.90625 12.695312 L 11.246094 12.695312 Z M 11.246094 13.023438 "/>
<path style=" stroke:none;fill-rule:nonzero;fill:url(#radial5);" d="M 11.246094 13.023438 L 10.585938 13.023438 L 10.585938 13.355469 L 11.246094 13.355469 Z M 11.246094 13.023438 "/>
<path style=" stroke:none;fill-rule:nonzero;fill:url(#radial6);" d="M 11.246094 13.023438 L 10.585938 13.023438 L 10.585938 12.695312 L 11.246094 12.695312 Z M 11.246094 13.023438 "/>
<path style=" stroke:none;fill-rule:nonzero;fill:url(#radial7);" d="M 11.246094 13.023438 L 11.90625 13.023438 L 11.90625 13.355469 L 11.246094 13.355469 Z M 11.246094 13.023438 "/>
<path style=" stroke:none;fill-rule:nonzero;fill:rgb(12.941177%,12.941177%,12.941177%);fill-opacity:1;" d="M 7.609375 1.402344 C 4.101562 1.402344 1.277344 4.226562 1.277344 7.734375 C 1.277344 11.238281 4.101562 14.0625 7.609375 14.0625 C 8.109375 14.0625 8.597656 14.007812 9.066406 13.894531 C 9.308594 13.832031 9.460938 13.71875 9.53125 13.5625 C 9.605469 13.410156 9.597656 13.226562 9.546875 13.027344 C 9.441406 12.625 9.160156 12.144531 8.90625 11.660156 C 8.652344 11.175781 8.425781 10.6875 8.421875 10.292969 C 8.421875 10.097656 8.472656 9.925781 8.605469 9.777344 C 8.734375 9.632812 8.949219 9.511719 9.273438 9.433594 C 10.589844 9.101562 11.738281 9.1875 12.574219 9.101562 C 12.992188 9.058594 13.332031 8.976562 13.570312 8.769531 C 13.8125 8.5625 13.941406 8.238281 13.941406 7.734375 C 13.941406 4.226562 11.113281 1.402344 7.609375 1.402344 Z M 7.609375 1.496094 C 11.066406 1.496094 13.847656 4.277344 13.847656 7.734375 C 13.847656 8.222656 13.726562 8.515625 13.511719 8.699219 C 13.296875 8.886719 12.976562 8.96875 12.566406 9.007812 C 11.746094 9.089844 10.582031 9.007812 9.25 9.339844 C 8.914062 9.425781 8.683594 9.550781 8.535156 9.714844 C 8.386719 9.878906 8.328125 10.078125 8.328125 10.292969 C 8.332031 10.722656 8.566406 11.214844 8.824219 11.703125 C 9.078125 12.191406 9.359375 12.671875 9.457031 13.050781 C 9.503906 13.238281 9.507812 13.398438 9.449219 13.523438 C 9.390625 13.648438 9.269531 13.746094 9.042969 13.804688 C 8.582031 13.914062 8.101562 13.96875 7.609375 13.96875 C 4.152344 13.96875 1.371094 11.1875 1.371094 7.734375 C 1.371094 4.277344 4.152344 1.496094 7.609375 1.496094 Z M 7.609375 1.496094 "/>
<path style=" stroke:none;fill-rule:nonzero;fill:url(#linear6);" d="M 7.945312 7.152344 C 8.261719 6.96875 9.257812 8.105469 10.171875 9.6875 L 10.253906 9.828125 C 11.167969 11.410156 11.652344 12.84375 11.335938 13.023438 C 11.019531 13.207031 10.019531 12.074219 9.109375 10.492188 L 9.023438 10.347656 C 8.113281 8.765625 7.628906 7.335938 7.945312 7.152344 Z M 7.945312 7.152344 "/>
<path style=" stroke:none;fill-rule:nonzero;fill:rgb(0%,0%,0%);fill-opacity:0.235294;" d="M 7.851562 7.34375 C 7.800781 7.816406 8.261719 9.023438 9.023438 10.347656 L 9.109375 10.492188 C 10.023438 12.078125 11.015625 13.207031 11.335938 13.023438 C 11.414062 12.980469 11.445312 12.855469 11.429688 12.667969 C 11.417969 12.761719 11.386719 12.828125 11.335938 12.859375 C 11.015625 13.042969 10.023438 11.914062 9.109375 10.324219 L 9.023438 10.183594 C 8.339844 8.992188 7.894531 7.894531 7.851562 7.34375 Z M 7.851562 7.34375 "/>
<path style=" stroke:none;fill-rule:nonzero;fill:url(#linear7);" d="M 7.945312 7.152344 C 7.679688 7.304688 7.964844 8.308594 8.59375 9.546875 C 9.097656 9.882812 9.757812 9.386719 9.695312 8.910156 C 8.933594 7.75 8.207031 7 7.945312 7.152344 Z M 7.945312 7.152344 "/>
<path style=" stroke:none;fill-rule:nonzero;fill:rgb(100%,100%,100%);fill-opacity:0.392157;" d="M 8.019531 7.132812 C 7.992188 7.132812 7.964844 7.140625 7.945312 7.152344 C 7.859375 7.203125 7.832031 7.34375 7.855469 7.558594 C 7.867188 7.480469 7.898438 7.429688 7.945312 7.402344 C 8.261719 7.21875 9.253906 8.347656 10.171875 9.933594 L 10.253906 10.078125 C 10.921875 11.234375 11.355469 12.300781 11.421875 12.871094 C 11.503906 12.425781 11.035156 11.1875 10.253906 9.828125 L 10.171875 9.6875 C 9.320312 8.210938 8.402344 7.128906 8.019531 7.132812 Z M 8.019531 7.132812 "/>
<path style=" stroke:none;fill-rule:nonzero;fill:rgb(100%,100%,100%);fill-opacity:0.705882;" d="M 8.019531 7.132812 C 7.992188 7.132812 7.964844 7.140625 7.945312 7.152344 C 7.816406 7.226562 7.820312 7.496094 7.921875 7.898438 L 7.925781 7.898438 C 8.214844 7.898438 8.464844 7.730469 8.578125 7.488281 C 8.351562 7.265625 8.160156 7.136719 8.03125 7.132812 C 8.027344 7.132812 8.023438 7.132812 8.019531 7.132812 Z M 8.019531 7.132812 "/>
<path style=" stroke:none;fill-rule:nonzero;fill:rgb(12.941177%,12.941177%,12.941177%);fill-opacity:1;" d="M 8.019531 7.085938 C 8.011719 7.085938 8 7.085938 7.992188 7.085938 C 7.964844 7.089844 7.941406 7.097656 7.921875 7.113281 C 7.847656 7.152344 7.8125 7.238281 7.804688 7.34375 C 7.804688 7.347656 7.800781 7.351562 7.800781 7.355469 C 7.800781 7.359375 7.800781 7.363281 7.800781 7.371094 C 7.800781 7.375 7.800781 7.378906 7.800781 7.386719 C 7.800781 7.390625 7.800781 7.390625 7.800781 7.394531 C 7.800781 7.402344 7.800781 7.410156 7.800781 7.414062 C 7.800781 7.414062 7.800781 7.414062 7.800781 7.417969 C 7.800781 7.417969 7.800781 7.421875 7.800781 7.425781 C 7.800781 7.429688 7.800781 7.4375 7.800781 7.441406 C 7.800781 7.445312 7.800781 7.445312 7.800781 7.445312 C 7.800781 7.453125 7.800781 7.464844 7.800781 7.472656 C 7.800781 7.476562 7.800781 7.476562 7.800781 7.480469 C 7.800781 7.488281 7.800781 7.496094 7.804688 7.507812 C 7.804688 7.511719 7.804688 7.511719 7.804688 7.515625 C 7.804688 7.523438 7.804688 7.535156 7.808594 7.542969 C 7.808594 7.546875 7.808594 7.546875 7.808594 7.546875 C 7.808594 7.558594 7.808594 7.570312 7.8125 7.582031 C 7.8125 7.582031 7.8125 7.582031 7.8125 7.585938 C 7.816406 7.609375 7.820312 7.636719 7.824219 7.660156 C 7.824219 7.664062 7.824219 7.667969 7.824219 7.667969 C 7.828125 7.679688 7.828125 7.6875 7.828125 7.699219 C 7.832031 7.703125 7.832031 7.710938 7.832031 7.71875 C 7.835938 7.722656 7.835938 7.730469 7.835938 7.734375 C 7.839844 7.742188 7.839844 7.753906 7.84375 7.761719 C 7.84375 7.761719 7.84375 7.765625 7.84375 7.765625 C 7.871094 7.898438 7.914062 8.046875 7.96875 8.207031 C 7.96875 8.210938 7.96875 8.210938 7.96875 8.210938 C 7.972656 8.21875 7.972656 8.230469 7.976562 8.238281 C 7.984375 8.257812 7.992188 8.28125 8 8.300781 C 8.007812 8.328125 8.019531 8.359375 8.03125 8.390625 C 8.03125 8.390625 8.03125 8.394531 8.03125 8.394531 C 8.042969 8.425781 8.054688 8.457031 8.066406 8.484375 C 8.066406 8.488281 8.070312 8.492188 8.070312 8.496094 C 8.082031 8.527344 8.09375 8.558594 8.105469 8.589844 C 8.117188 8.621094 8.132812 8.652344 8.144531 8.6875 C 8.144531 8.6875 8.148438 8.691406 8.148438 8.691406 C 8.160156 8.722656 8.175781 8.757812 8.1875 8.789062 C 8.191406 8.792969 8.191406 8.792969 8.191406 8.796875 C 8.21875 8.863281 8.25 8.933594 8.28125 9.003906 C 8.28125 9.003906 8.28125 9.003906 8.28125 9.007812 C 8.46875 9.425781 8.707031 9.890625 8.984375 10.371094 L 9.066406 10.515625 C 9.527344 11.308594 10.003906 11.992188 10.410156 12.453125 C 10.613281 12.683594 10.796875 12.859375 10.953125 12.96875 C 11.035156 13.023438 11.105469 13.058594 11.171875 13.078125 C 11.238281 13.097656 11.304688 13.097656 11.359375 13.066406 C 11.410156 13.035156 11.445312 12.980469 11.460938 12.910156 C 11.480469 12.84375 11.484375 12.761719 11.476562 12.667969 C 11.460938 12.476562 11.398438 12.230469 11.300781 11.9375 C 11.105469 11.355469 10.753906 10.601562 10.292969 9.804688 L 10.210938 9.664062 C 9.957031 9.226562 9.699219 8.820312 9.449219 8.46875 C 9.425781 8.4375 9.402344 8.40625 9.382812 8.375 C 9.378906 8.371094 9.378906 8.371094 9.378906 8.367188 C 9.355469 8.335938 9.332031 8.308594 9.3125 8.277344 C 9.289062 8.246094 9.269531 8.21875 9.246094 8.191406 C 9.242188 8.1875 9.242188 8.183594 9.238281 8.179688 C 9.21875 8.152344 9.199219 8.128906 9.175781 8.101562 C 9.175781 8.097656 9.171875 8.09375 9.167969 8.089844 C 9.148438 8.0625 9.128906 8.039062 9.109375 8.015625 C 9.109375 8.011719 9.105469 8.011719 9.105469 8.007812 C 9.085938 7.984375 9.066406 7.960938 9.046875 7.9375 C 9.042969 7.929688 9.039062 7.925781 9.035156 7.921875 C 9.015625 7.898438 8.996094 7.875 8.976562 7.851562 C 8.976562 7.851562 8.972656 7.847656 8.96875 7.84375 C 8.949219 7.820312 8.933594 7.796875 8.914062 7.777344 C 8.914062 7.777344 8.910156 7.773438 8.910156 7.773438 C 8.894531 7.757812 8.882812 7.742188 8.867188 7.722656 C 8.863281 7.71875 8.855469 7.710938 8.851562 7.707031 C 8.847656 7.703125 8.847656 7.699219 8.84375 7.699219 C 8.824219 7.675781 8.804688 7.652344 8.785156 7.632812 C 8.746094 7.585938 8.703125 7.546875 8.664062 7.507812 C 8.628906 7.46875 8.589844 7.429688 8.554688 7.398438 C 8.554688 7.398438 8.550781 7.394531 8.550781 7.394531 C 8.546875 7.390625 8.539062 7.382812 8.535156 7.378906 C 8.527344 7.375 8.523438 7.367188 8.515625 7.363281 C 8.511719 7.359375 8.511719 7.359375 8.507812 7.355469 C 8.5 7.347656 8.492188 7.339844 8.484375 7.335938 C 8.480469 7.332031 8.480469 7.332031 8.476562 7.328125 C 8.433594 7.292969 8.394531 7.257812 8.355469 7.230469 C 8.34375 7.222656 8.332031 7.214844 8.324219 7.210938 C 8.3125 7.203125 8.304688 7.195312 8.296875 7.191406 C 8.296875 7.191406 8.292969 7.191406 8.292969 7.191406 C 8.285156 7.183594 8.277344 7.179688 8.269531 7.171875 C 8.261719 7.167969 8.257812 7.167969 8.253906 7.164062 C 8.25 7.164062 8.246094 7.160156 8.246094 7.160156 C 8.246094 7.160156 8.242188 7.160156 8.242188 7.160156 C 8.238281 7.15625 8.234375 7.152344 8.230469 7.152344 C 8.226562 7.148438 8.222656 7.148438 8.21875 7.144531 C 8.214844 7.140625 8.210938 7.140625 8.203125 7.136719 C 8.199219 7.136719 8.191406 7.132812 8.1875 7.128906 C 8.183594 7.128906 8.183594 7.128906 8.179688 7.125 C 8.125 7.101562 8.070312 7.085938 8.019531 7.085938 Z M 8.023438 7.179688 C 8.046875 7.179688 8.078125 7.1875 8.113281 7.199219 C 8.117188 7.203125 8.121094 7.203125 8.125 7.203125 C 8.125 7.203125 8.125 7.207031 8.128906 7.207031 C 8.132812 7.207031 8.136719 7.210938 8.140625 7.210938 C 8.144531 7.210938 8.144531 7.214844 8.148438 7.214844 C 8.15625 7.21875 8.164062 7.222656 8.171875 7.226562 C 8.179688 7.230469 8.1875 7.234375 8.195312 7.238281 C 8.199219 7.242188 8.207031 7.246094 8.210938 7.25 C 8.214844 7.25 8.214844 7.25 8.21875 7.253906 C 8.222656 7.253906 8.226562 7.257812 8.226562 7.257812 C 8.238281 7.265625 8.25 7.273438 8.261719 7.28125 C 8.269531 7.285156 8.277344 7.292969 8.285156 7.296875 C 8.292969 7.304688 8.300781 7.308594 8.308594 7.3125 C 8.339844 7.335938 8.371094 7.363281 8.402344 7.390625 C 8.40625 7.390625 8.40625 7.394531 8.410156 7.394531 C 8.414062 7.398438 8.421875 7.40625 8.425781 7.410156 C 8.433594 7.414062 8.4375 7.417969 8.441406 7.421875 C 8.445312 7.425781 8.449219 7.429688 8.453125 7.433594 C 8.460938 7.441406 8.46875 7.449219 8.476562 7.457031 C 8.480469 7.457031 8.480469 7.457031 8.480469 7.460938 C 8.523438 7.496094 8.566406 7.539062 8.609375 7.582031 C 8.625 7.597656 8.636719 7.613281 8.652344 7.628906 C 8.65625 7.632812 8.660156 7.636719 8.664062 7.640625 C 8.679688 7.65625 8.695312 7.671875 8.707031 7.6875 C 8.710938 7.691406 8.714844 7.695312 8.71875 7.699219 C 8.738281 7.71875 8.753906 7.738281 8.773438 7.757812 C 8.777344 7.761719 8.777344 7.765625 8.78125 7.765625 C 9.042969 8.0625 9.34375 8.460938 9.648438 8.925781 C 9.671875 9.136719 9.535156 9.363281 9.332031 9.492188 C 9.125 9.625 8.859375 9.664062 8.628906 9.515625 C 8.339844 8.941406 8.125 8.417969 8.003906 8.007812 C 7.996094 7.984375 7.988281 7.960938 7.984375 7.9375 C 7.980469 7.929688 7.976562 7.921875 7.976562 7.914062 C 7.976562 7.910156 7.972656 7.90625 7.972656 7.902344 C 7.96875 7.890625 7.964844 7.878906 7.964844 7.867188 C 7.964844 7.863281 7.960938 7.859375 7.960938 7.859375 C 7.957031 7.84375 7.953125 7.828125 7.949219 7.816406 C 7.949219 7.8125 7.949219 7.8125 7.949219 7.8125 C 7.949219 7.800781 7.945312 7.789062 7.941406 7.777344 C 7.941406 7.769531 7.9375 7.761719 7.9375 7.757812 C 7.9375 7.75 7.933594 7.742188 7.933594 7.738281 C 7.933594 7.730469 7.929688 7.722656 7.929688 7.714844 C 7.929688 7.710938 7.925781 7.707031 7.925781 7.703125 C 7.925781 7.691406 7.921875 7.683594 7.921875 7.675781 C 7.921875 7.675781 7.921875 7.671875 7.921875 7.671875 C 7.914062 7.628906 7.90625 7.589844 7.902344 7.550781 C 7.902344 7.539062 7.898438 7.53125 7.898438 7.523438 C 7.898438 7.519531 7.898438 7.519531 7.898438 7.515625 C 7.898438 7.507812 7.898438 7.503906 7.898438 7.496094 C 7.894531 7.492188 7.894531 7.488281 7.894531 7.484375 C 7.894531 7.476562 7.894531 7.472656 7.894531 7.46875 C 7.894531 7.457031 7.894531 7.449219 7.894531 7.4375 C 7.894531 7.429688 7.894531 7.417969 7.894531 7.410156 C 7.894531 7.410156 7.894531 7.410156 7.894531 7.40625 C 7.894531 7.398438 7.894531 7.390625 7.894531 7.382812 C 7.894531 7.382812 7.894531 7.382812 7.894531 7.378906 C 7.894531 7.371094 7.894531 7.367188 7.894531 7.359375 C 7.894531 7.355469 7.894531 7.355469 7.894531 7.355469 C 7.898438 7.347656 7.898438 7.34375 7.898438 7.339844 C 7.90625 7.273438 7.925781 7.226562 7.953125 7.203125 C 7.953125 7.203125 7.957031 7.199219 7.960938 7.199219 C 7.960938 7.195312 7.964844 7.195312 7.96875 7.191406 C 7.96875 7.191406 7.972656 7.191406 7.976562 7.1875 C 7.980469 7.1875 7.980469 7.1875 7.984375 7.183594 C 7.992188 7.183594 8 7.183594 8.007812 7.179688 C 8.011719 7.179688 8.019531 7.179688 8.023438 7.179688 Z M 9.738281 9.066406 C 9.871094 9.269531 10 9.484375 10.128906 9.710938 L 10.214844 9.851562 C 10.667969 10.644531 11.019531 11.394531 11.210938 11.96875 C 11.308594 12.253906 11.367188 12.496094 11.382812 12.675781 C 11.390625 12.765625 11.386719 12.835938 11.371094 12.886719 C 11.359375 12.941406 11.335938 12.96875 11.3125 12.984375 C 11.285156 13 11.25 13.003906 11.199219 12.988281 C 11.144531 12.972656 11.082031 12.941406 11.007812 12.890625 C 10.863281 12.789062 10.679688 12.617188 10.480469 12.390625 C 10.082031 11.9375 9.605469 11.257812 9.148438 10.46875 L 9.066406 10.324219 C 8.933594 10.097656 8.8125 9.875 8.699219 9.65625 C 8.933594 9.75 9.1875 9.699219 9.382812 9.574219 C 9.566406 9.453125 9.707031 9.269531 9.738281 9.066406 Z M 9.738281 9.066406 "/>
<path style="fill-rule:nonzero;fill:url(#linear8);stroke-width:3;stroke-linecap:round;stroke-linejoin:round;stroke:rgb(12.941177%,12.941177%,12.941177%);stroke-opacity:1;stroke-miterlimit:4;" d="M 269.849231 -78.76301 C 224.853528 -76.013273 201.105795 -47.016042 223.978611 -9.394634 C 232.852764 5.978898 244.101689 15.727967 254.850663 27.601833 C 259.475221 28.851713 265.224672 26.101976 266.849517 21.727394 C 263.599827 14.85305 261.974983 8.603647 268.974314 0.729399 C 298.97145 -33.767307 247.351379 -61.514657 305.595817 -70.763774 C 291.097202 -73.388523 291.097202 -78.76301 269.849231 -78.76301 Z M 269.849231 -78.76301 " transform="matrix(0.031253,0,0,0.031253,0,6.719392)"/>
<path style=" stroke:none;fill-rule:nonzero;fill:rgb(100%,100%,100%);fill-opacity:0.196078;" d="M 7.441406 6.738281 C 6.703125 5.730469 7.003906 4.894531 7.691406 4.589844 C 7.972656 4.449219 8.515625 4.34375 9.011719 4.507812 C 8.601562 4.464844 8.1875 4.507812 7.855469 4.671875 C 7.523438 4.839844 7.316406 5.210938 7.441406 5.417969 C 7.570312 5.570312 7.609375 4.589844 8.601562 4.714844 C 7.855469 4.878906 8.019531 5.417969 7.855469 5.832031 C 7.609375 6.492188 8.105469 7.566406 7.441406 6.738281 Z M 7.441406 6.738281 "/>
<path style="fill-rule:nonzero;fill:url(#linear9);stroke-width:3;stroke-linecap:round;stroke-linejoin:round;stroke:rgb(12.941177%,12.941177%,12.941177%);stroke-opacity:1;stroke-miterlimit:4;" d="M 357.293936 -30.696622 C 339.332267 -16.63378 353.434404 -20.14949 334.582074 -11.436642 C 330.277211 -9.296644 330.128768 -18.926634 324.933244 -19.996633 C 302.369826 -24.276629 321.964373 -16.480923 299.400955 -21.219489 C 294.056988 -22.442345 297.025858 -23.512344 293.017883 -27.180912 C 276.095319 -42.772324 286.337923 -19.079491 274.01711 -36.505188 C 271.196682 -40.632326 276.837537 -39.868042 276.54065 -45.370893 C 274.907771 -68.299441 271.345126 -54.236598 272.384231 -75.025148 C 272.532674 -80.069429 269.563803 -67.229442 271.790456 -72.120866 C 280.845512 -92.756559 279.657964 -79.305144 289.009907 -98.106553 C 291.23656 -102.692263 283.814383 -96.73084 288.416133 -99.023695 C 307.862237 -108.042257 290.049012 -111.557968 312.463987 -113.697966 C 317.807954 -114.309394 315.284414 -111.099397 319.73772 -109.112256 C 338.59005 -101.010836 331.316316 -104.985118 352.098412 -98.565124 C 356.997049 -97.036554 351.653081 -102.233692 353.434404 -97.647982 C 361.153468 -78.235145 359.223702 -95.049414 369.466306 -75.483719 C 371.841403 -70.89801 369.61475 -65.395158 368.872532 -60.045164 C 365.309887 -37.880901 368.575645 -57.293738 362.192573 -36.963759 C 360.708137 -32.225192 361.450355 -34.059476 357.293936 -30.696622 Z M 357.293936 -30.696622 " transform="matrix(0.0263147,0,0,0.0255549,3.168223,8.518825)"/>
</g>
</svg>
