<svg height="16" viewBox="0 0 16 16" width="16" xmlns="http://www.w3.org/2000/svg" xmlns:xlink="http://www.w3.org/1999/xlink"><linearGradient id="a" gradientUnits="userSpaceOnUse" x1="7.93826" x2="7.93826" y1="14.0169685" y2="14.67849050002"><stop offset="0" stop-opacity=".27451"/><stop offset="1" stop-opacity="0"/></linearGradient><linearGradient id="b"><stop offset="0" stop-opacity=".313726"/><stop offset=".222222" stop-opacity=".27451"/><stop offset="1" stop-opacity="0"/></linearGradient><radialGradient id="c" cx="450.908936" cy="189.579361" gradientTransform="matrix(.00000009 -.0390662 -.0703192 -.00000005 26.561465 31.797666)" gradientUnits="userSpaceOnUse" r="21.166656" xlink:href="#b"/><radialGradient id="d" cx="450.908936" cy="189.579361" gradientTransform="matrix(-.00000009 .0390662 .0703192 .00000005 -10.60226 -3.763739)" gradientUnits="userSpaceOnUse" r="21.166656" xlink:href="#b"/><radialGradient id="e" cx="450.908936" cy="189.579361" gradientTransform="matrix(-.00000009 -.0390662 .0703192 -.00000005 -10.60226 31.797666)" gradientUnits="userSpaceOnUse" r="21.166656" xlink:href="#b"/><radialGradient id="f" cx="450.908936" cy="189.579361" gradientTransform="matrix(.00000009 .0390662 -.0703192 .00000005 26.561464 -3.76374)" gradientUnits="userSpaceOnUse" r="21.166656" xlink:href="#b"/><linearGradient id="g"><stop offset="0" stop-color="#424242"/><stop offset="1" stop-color="#616161"/></linearGradient><linearGradient id="h" gradientUnits="userSpaceOnUse" x1="7.9382592" x2="7.9382592" xlink:href="#g" y1="14.01696600048" y2="1.44805535241"/><linearGradient id="i" gradientUnits="userSpaceOnUse" x1="254" x2="254" y1="95.916664" y2="-158.083328"><stop offset="0" stop-color="#e0e0e0"/><stop offset="1" stop-color="#eee"/></linearGradient><linearGradient id="j" gradientUnits="userSpaceOnUse" x1="338.452751" x2="252.804588" y1="118.178833" y2="-242.355362"><stop offset="0" stop-color="#757575"/><stop offset="1" stop-color="#bdbdbd"/></linearGradient><linearGradient id="k"><stop offset="0" stop-color="#ff7043"/><stop offset="1" stop-color="#ff8a65"/></linearGradient><linearGradient id="l" gradientUnits="userSpaceOnUse" x1="7.938262" x2="7.938262" xlink:href="#k" y1="14.0169665" y2="1.44805200003"/><linearGradient id="m" gradientTransform="matrix(.0301881 .00808887 -.00808887 .0301881 -2.209465 3.815781)" gradientUnits="userSpaceOnUse" x1="381" x2="381" xlink:href="#g" y1="201.75" y2="-168.666656"/><linearGradient id="n" gradientTransform="matrix(.0301881 .00808887 -.00808887 .0301881 -5.084878 3.045317)" gradientUnits="userSpaceOnUse" x1="536.258728" x2="440.387817" xlink:href="#k" y1="186.883102" y2="-170.911926"/><path d="m2.5625 14.015625h10.832031v.664063h-10.832031zm0 0" fill="url(#a)"/><path d="m13.394531 14.015625h1.324219v-.660156h-1.324219zm0 0" fill="url(#c)"/><path d="m2.5625 14.015625h-1.320312v.664063h1.320312zm0 0" fill="url(#d)"/><path d="m2.5625 14.015625h-1.320312v-.660156h1.320312zm0 0" fill="url(#e)"/><path d="m13.394531 14.015625h1.324219v.664063h-1.324219zm0 0" fill="url(#f)"/><path d="m6.613281 1.453125c-.277343 0-.527343.175781-.617187.4375l-2.816406 7.972656c.121093.113281.28125.183594.457031.183594h8.601562c.179688 0 .339844-.070313.457031-.183594l-2.8125-7.972656c-.09375-.261719-.34375-.4375-.621093-.4375zm0 0" fill="url(#h)"/><path d="m6.613281 1.453125c-.277343 0-.527343.175781-.617187.4375l-2.816406 7.972656c.011718.011719.023437.019531.03125.03125l2.785156-7.882812c.089844-.261719.339844-.441407.617187-.441407h2.648438c.277343 0 .527343.179688.621093.441407l2.78125 7.882812c.011719-.011719.023438-.019531.03125-.03125l-2.8125-7.972656c-.09375-.261719-.34375-.4375-.621093-.4375zm0 0" fill="#e8e8e8" fill-opacity=".392157"/><path d="m1.988281 13.300781c-.03125.371094.261719.714844.65625.714844h10.585938c.394531 0 .6875-.34375.65625-.714844-.027344.328125-.300781.601563-.65625.601563h-10.585938c-.355469 0-.628906-.273438-.65625-.601563zm0 0" fill-opacity=".235294"/><path d="m232.852764-158.130431h42.370953c5.749451 0 10.498998 4.749547 10.498998 10.623986v232.852763c0 5.874439-4.749547 10.623986-10.498998 10.623986h-42.370953c-5.874439 0-10.623986-4.749547-10.623986-10.623986v-232.852763c0-5.874439 4.749547-10.623986 10.623986-10.623986zm0 0" fill="url(#i)" stroke="#212121" stroke-linecap="round" stroke-linejoin="round" stroke-width="3" transform="matrix(.031253 0 0 .031253 0 6.719392)"/><g fill-opacity=".313726"><path d="m7.523438 1.945312c.046874 0 .085937.035157.085937.082032v7.277344c0 .042968-.039063.082031-.085937.082031-.042969 0-.082032-.039063-.082032-.082031v-7.277344c0-.046875.039063-.082032.082032-.082032zm0 0"/><path d="m8.351562 1.945312c.046876 0 .082032.035157.082032.082032v7.277344c0 .042968-.035156.082031-.082032.082031-.046874 0-.082031-.039063-.082031-.082031v-7.277344c0-.046875.035157-.082032.082031-.082032zm0 0"/><path d="m7.441406 2.191406c0 .046875 0 .082032-.003906.082032h-.324219s0-.035157 0-.082032c0-.042968 0-.082031 0-.082031h.324219c.003906 0 .003906.039063.003906.082031zm0 0"/><path d="m7.441406 2.769531c0 .046875 0 .085938-.003906.085938h-.324219s0-.039063 0-.085938c0-.042969 0-.082031 0-.082031h.324219c.003906 0 .003906.039062.003906.082031zm0 0"/><path d="m7.441406 3.351562c0 .042969 0 .082032-.003906.082032h-.324219s0-.039063 0-.082032c0-.046874 0-.085937 0-.085937h.324219c.003906 0 .003906.039063.003906.085937zm0 0"/><path d="m7.441406 3.929688c0 .042968 0 .082031-.003906.082031h-.324219s0-.039063 0-.082031c0-.046876 0-.082032 0-.082032h.324219c.003906 0 .003906.035156.003906.082032zm0 0"/><path d="m7.441406 4.589844c0 .046875 0 .082031-.003906.082031h-.324219s0-.035156 0-.082031 0-.082032 0-.082032h.324219c.003906 0 .003906.035157.003906.082032zm0 0"/><path d="m7.441406 5.167969c0 .046875 0 .082031-.003906.082031h-.324219s0-.035156 0-.082031c0-.042969 0-.082031 0-.082031h.324219c.003906 0 .003906.039062.003906.082031zm0 0"/><path d="m7.441406 5.746094c0 .046875 0 .085937-.003906.085937h-.324219s0-.039062 0-.085937c0-.042969 0-.082032 0-.082032h.324219c.003906 0 .003906.039063.003906.082032zm0 0"/><path d="m7.441406 6.328125c0 .042969 0 .082031-.003906.082031h-.324219s0-.039062 0-.082031c0-.046875 0-.085937 0-.085937h.324219c.003906 0 .003906.039062.003906.085937zm0 0"/><path d="m7.441406 6.988281c0 .046875 0 .082031-.003906.082031h-.324219s0-.035156 0-.082031 0-.082031 0-.082031h.324219c.003906 0 .003906.035156.003906.082031zm0 0"/><path d="m7.441406 7.566406c0 .046875 0 .082032-.003906.082032h-.324219s0-.035157 0-.082032 0-.082031 0-.082031h.324219c.003906 0 .003906.035156.003906.082031zm0 0"/><path d="m7.441406 8.144531c0 .046875 0 .085938-.003906.085938h-.324219s0-.039063 0-.085938c0-.042969 0-.082031 0-.082031h.324219c.003906 0 .003906.039062.003906.082031zm0 0"/><path d="m7.441406 8.726562c0 .042969 0 .082032-.003906.082032h-.324219s0-.039063 0-.082032c0-.046874 0-.085937 0-.085937h.324219c.003906 0 .003906.039063.003906.085937zm0 0"/><path d="m8.765625 2.191406c0 .046875-.003906.082032-.003906.082032h-.324219s-.003906-.035157-.003906-.082032c0-.042968.003906-.082031.003906-.082031h.324219s.003906.039063.003906.082031zm0 0"/><path d="m8.765625 2.769531c0 .046875-.003906.085938-.003906.085938h-.324219s-.003906-.039063-.003906-.085938c0-.042969.003906-.082031.003906-.082031h.324219s.003906.039062.003906.082031zm0 0"/><path d="m8.765625 3.351562c0 .042969-.003906.082032-.003906.082032h-.324219s-.003906-.039063-.003906-.082032c0-.046874.003906-.085937.003906-.085937h.324219s.003906.039063.003906.085937zm0 0"/><path d="m8.765625 3.929688c0 .042968-.003906.082031-.003906.082031h-.324219s-.003906-.039063-.003906-.082031c0-.046876.003906-.082032.003906-.082032h.324219s.003906.035156.003906.082032zm0 0"/><path d="m8.765625 4.589844c0 .046875-.003906.082031-.003906.082031h-.324219s-.003906-.035156-.003906-.082031.003906-.082032.003906-.082032h.324219s.003906.035157.003906.082032zm0 0"/></g><path d="m799.766188 175.731259c-33.540106 0-63.773441 21.257814-74.638546 52.908336l-340.597413 964.159947c14.644271 13.69948 34.012501 22.202605 55.270315 22.202605h1040.21568c21.730209 0 41.098439-8.503125 55.270315-22.202605l-340.125018-964.159947c-11.3375-31.650522-41.570835-52.908336-75.110941-52.908336zm0 0" fill="none" stroke="#212121" stroke-linecap="round" stroke-linejoin="round" stroke-width="11.338583" transform="scale(.00826902)"/><path d="m8.765625 5.167969c0 .046875-.003906.082031-.003906.082031h-.324219s-.003906-.035156-.003906-.082031c0-.042969.003906-.082031.003906-.082031h.324219s.003906.039062.003906.082031zm0 0" fill-opacity=".313726"/><path d="m10.496094 3.632812-1.71875 6.414063h.265625l1.605469-5.984375zm0 0" fill-opacity=".235294"/><path d="m8.765625 5.746094c0 .046875-.003906.085937-.003906.085937h-.324219s-.003906-.039062-.003906-.085937c0-.042969.003906-.082032.003906-.082032h.324219s.003906.039063.003906.082032zm0 0" fill-opacity=".313726"/><path d="m8.765625 6.328125c0 .042969-.003906.082031-.003906.082031h-.324219s-.003906-.039062-.003906-.082031c0-.046875.003906-.085937.003906-.085937h.324219s.003906.039062.003906.085937zm0 0" fill-opacity=".313726"/><path d="m8.765625 6.988281c0 .046875-.003906.082031-.003906.082031h-.324219s-.003906-.035156-.003906-.082031.003906-.082031.003906-.082031h.324219s.003906.035156.003906.082031zm0 0" fill-opacity=".313726"/><path d="m8.765625 7.566406c0 .046875-.003906.082032-.003906.082032h-.324219s-.003906-.035157-.003906-.082032.003906-.082031.003906-.082031h.324219s.003906.035156.003906.082031zm0 0" fill-opacity=".313726"/><path d="m8.765625 8.144531c0 .046875-.003906.085938-.003906.085938h-.324219s-.003906-.039063-.003906-.085938c0-.042969.003906-.082031.003906-.082031h.324219s.003906.039062.003906.082031zm0 0" fill-opacity=".313726"/><path d="m8.765625 8.726562c0 .042969-.003906.082032-.003906.082032h-.324219s-.003906-.039063-.003906-.082032c0-.046874.003906-.085937.003906-.085937h.324219s.003906.039063.003906.085937zm0 0" fill-opacity=".313726"/><path d="m288.648533-240.14603c5.821006-.006967 10.601111 4.793874 10.608079 10.61488l.023526 349.236646c.006968 5.821005-4.793874 10.601111-10.614879 10.608078-5.821005.006968-10.601111-4.793874-10.608078-10.614879l-.023527-349.236646c-.006968-5.821006 4.793874-10.601111 10.614879-10.608079zm0 0" fill="url(#j)" stroke="#212121" stroke-linecap="round" stroke-linejoin="round" stroke-width="3" transform="matrix(.0301881 .00808887 -.00808887 .0301881 0 6.719392)"/><path d="m3.179688 9.863281-1.15625 3.273438c-.148438.429687.167968.878906.621093.878906h10.585938c.453125 0 .773437-.449219.621093-.878906l-1.15625-3.273438c-.117187.113281-.277343.183594-.457031.183594h-8.601562c-.175781 0-.335938-.070313-.457031-.183594zm0 0" fill="url(#l)"/><path d="m8.105469 2.441406c0 .042969-.003907.082032-.003907.082032h-.324218c-.003906 0-.003906-.039063-.003906-.082032 0-.046875 0-.082031.003906-.082031h.324218s.003907.035156.003907.082031zm0 0" fill-opacity=".313726"/><path d="m8.105469 3.019531c0 .046875-.003907.082031-.003907.082031h-.324218c-.003906 0-.003906-.035156-.003906-.082031s0-.082031.003906-.082031h.324218s.003907.035156.003907.082031zm0 0" fill-opacity=".313726"/><path d="m8.105469 3.597656c0 .046875-.003907.082032-.003907.082032h-.324218c-.003906 0-.003906-.035157-.003906-.082032s0-.082031.003906-.082031h.324218s.003907.035156.003907.082031zm0 0" fill-opacity=".313726"/><path d="m8.105469 4.175781c0 .046875-.003907.082031-.003907.082031h-.324218c-.003906 0-.003906-.035156-.003906-.082031 0-.042969 0-.082031.003906-.082031h.324218s.003907.039062.003907.082031zm0 0" fill-opacity=".313726"/><path d="m8.105469 4.839844c0 .042968-.003907.082031-.003907.082031h-.324218c-.003906 0-.003906-.039063-.003906-.082031 0-.046875 0-.085938.003906-.085938h.324218s.003907.039063.003907.085938zm0 0" fill-opacity=".313726"/><path d="m8.105469 5.417969c0 .042969-.003907.082031-.003907.082031h-.324218c-.003906 0-.003906-.039062-.003906-.082031 0-.046875 0-.082031.003906-.082031h.324218s.003907.035156.003907.082031zm0 0" fill-opacity=".313726"/><path d="m8.105469 5.996094c0 .046875-.003907.082031-.003907.082031h-.324218c-.003906 0-.003906-.035156-.003906-.082031s0-.082032.003906-.082032h.324218s.003907.035157.003907.082032zm0 0" fill-opacity=".313726"/><path d="m8.105469 6.574219c0 .046875-.003907.082031-.003907.082031h-.324218c-.003906 0-.003906-.035156-.003906-.082031s0-.082031.003906-.082031h.324218s.003907.035156.003907.082031zm0 0" fill-opacity=".313726"/><path d="m8.105469 7.238281c0 .042969-.003907.082031-.003907.082031h-.324218c-.003906 0-.003906-.039062-.003906-.082031 0-.046875 0-.085937.003906-.085937h.324218s.003907.039062.003907.085937zm0 0" fill-opacity=".313726"/><path d="m8.105469 7.816406c0 .042969-.003907.082032-.003907.082032h-.324218c-.003906 0-.003906-.039063-.003906-.082032 0-.046875 0-.082031.003906-.082031h.324218s.003907.035156.003907.082031zm0 0" fill-opacity=".313726"/><path d="m8.105469 8.394531c0 .046875-.003907.082031-.003907.082031h-.324218c-.003906 0-.003906-.035156-.003906-.082031s0-.082031.003906-.082031h.324218s.003907.035156.003907.082031zm0 0" fill-opacity=".313726"/><path d="m8.105469 8.972656c0 .046875-.003907.082032-.003907.082032h-.324218c-.003906 0-.003906-.035157-.003906-.082032s0-.082031.003906-.082031h.324218s.003907.035156.003907.082031zm0 0" fill-opacity=".313726"/><path d="m10.65625 1.804688c-.175781-.046876-.355469.058593-.40625.234374l-.167969.640626.636719.171874.171875-.640624c.046875-.175782-.058594-.359376-.234375-.40625zm0 0" fill="url(#m)"/><path d="m10.65625 1.804688c-.175781-.046876-.355469.058593-.40625.234374l-.0625.242188c.046875-.179688.226562-.28125.40625-.234375.175781.046875.28125.226563.234375.402344l.0625-.238281c.046875-.175782-.058594-.359376-.234375-.40625zm0 0" fill="#fff" fill-opacity=".313726"/><path d="m10.082031 2.679688-.066406.238281.640625.171875.0625-.238282zm0 0" fill-opacity=".235294"/><path d="m340.967439-157.255514c-5.624463-1.499857-11.373914 1.874821-12.998758 7.499284l-5.374487 20.498042 20.373054 5.499475 5.499475-20.498043c1.499857-5.624463-1.874821-11.498902-7.499284-12.998758zm0 0" fill="none" stroke="#212121" stroke-linecap="round" stroke-linejoin="round" stroke-width="3" transform="matrix(.031253 0 0 .031253 0 6.719392)"/><path d="m8.375 6.679688c-.050781.171874.046875.363281.230469.414062l1.277343.34375c.21875.058594.429688-.117188.414063-.339844l-.003906-.101562c-.039063.179687-.222657.300781-.410157.25l-1.277343-.339844c-.117188-.03125-.199219-.121094-.230469-.226562zm0 0" fill-opacity=".235294"/><path d="m9.351562 5.394531c-.136718-.035156-.28125.019531-.359374.136719l-.578126.875c-.125.1875-.027343.441406.191407.5l1.277343.339844c.21875.058594.429688-.113282.414063-.335938l-.0625-1.046875c-.007813-.140625-.105469-.261719-.242187-.296875zm0 0" fill="url(#n)"/><path d="m9.261719 5.382812c-.105469.003907-.210938.054688-.269531.148438l-.578126.875c-.050781.078125-.0625.167969-.046874.253906.011718-.039062.023437-.074218.046874-.109375l.578126-.871093c.078124-.121094.222656-.175782.359374-.136719l.640626.167969c.136718.039062.234374.160156.242187.300781l.058594.972656c.003906-.023437.007812-.050781.003906-.074219l-.0625-1.046875c-.007813-.140625-.105469-.261719-.242187-.296875l-.640626-.171875c-.027343-.007812-.058593-.011719-.089843-.011719zm0 0" fill="#fff" fill-opacity=".392157"/><path d="m299.221426-42.391483c-4.374582-1.124893-8.999141.62494-11.498902 4.374582l-18.498234 27.997326c-3.999618 5.999427-.874916 14.123652 6.124416 15.998473l40.871097 10.873961c6.999331 1.874821 13.748687-3.624654 13.248734-10.748973l-1.999809-33.496802c-.249976-4.49957-3.374677-8.3742-7.74926-9.499092zm0 0" fill="none" stroke="#212121" stroke-linecap="round" stroke-linejoin="round" stroke-width="3" transform="matrix(.031253 0 0 .031253 0 6.719392)"/><path d="m3.179688 9.863281-1.15625 3.273438c-.148438.429687.167968.878906.621093.878906h10.585938c.453125 0 .773437-.449219.621093-.878906l-1.15625-3.273438c-.117187.113281-.277343.183594-.457031.183594h-8.601562c-.175781 0-.335938-.070313-.457031-.183594zm0 0" fill="url(#l)"/><path d="m1.996094 13.246094c-.066406.390625.234375.769531.648437.769531h10.585938c.414062 0 .714843-.378906.648437-.769531-.050781.300781-.3125.546875-.648437.546875h-10.585938c-.335937 0-.597656-.246094-.648437-.546875zm0 0" fill-opacity=".235294"/><path d="m3.179688 9.863281-1.15625 3.273438c-.03125.097656-.042969.195312-.03125.289062.003906-.046875.015624-.097656.03125-.148437l1.15625-3.269532c.121093.113282.28125.183594.457031.183594h8.601562c.179688 0 .339844-.070312.457031-.183594l1.15625 3.269532c.015626.050781.027344.101562.035157.148437.007812-.09375 0-.191406-.035157-.289062l-1.15625-3.273438c-.117187.113281-.277343.183594-.457031.183594h-8.601562c-.175781 0-.335938-.070313-.457031-.183594zm0 0" fill="#fff" fill-opacity=".392157"/><path d="m384.530229 1192.799542-139.829174 395.867729c-17.951043 51.963544 20.313021 106.289068 75.110941 106.289068h1280.192776c54.797919 0 93.53438-54.325524 75.110941-106.289068l-139.829174-395.867729c-14.171876 13.69948-33.540106 22.202605-55.270315 22.202605h-1040.21568c-21.257814 0-40.626044-8.503125-55.270315-22.202605zm0 0" style="fill:none;stroke-width:11.338583;stroke-linecap:round;stroke-linejoin:round;stroke:#212121;stroke-opacity:.996774" transform="scale(.00826902)"/></svg>