<svg xmlns="http://www.w3.org/2000/svg" width="16pt" height="16pt" viewBox="0 0 16 16"><defs><linearGradient id="a" gradientUnits="userSpaceOnUse" x1="254" y1="233.5" x2="254" y2="254.667" gradientTransform="matrix(.03125 0 0 .03125 0 6.72)"><stop offset="0" stop-opacity=".275"/><stop offset="1" stop-opacity="0"/></linearGradient><radialGradient id="b" gradientUnits="userSpaceOnUse" cx="450.909" cy="189.579" fx="450.909" fy="189.579" r="21.167" gradientTransform="matrix(0 -.03907 -.07032 0 26.561 31.798)"><stop offset="0" stop-opacity=".314"/><stop offset=".222" stop-opacity=".275"/><stop offset="1" stop-opacity="0"/></radialGradient><radialGradient id="c" gradientUnits="userSpaceOnUse" cx="450.909" cy="189.579" fx="450.909" fy="189.579" r="21.167" gradientTransform="matrix(0 .03907 .07032 0 -10.602 -3.764)"><stop offset="0" stop-opacity=".314"/><stop offset=".222" stop-opacity=".275"/><stop offset="1" stop-opacity="0"/></radialGradient><radialGradient id="d" gradientUnits="userSpaceOnUse" cx="450.909" cy="189.579" fx="450.909" fy="189.579" r="21.167" gradientTransform="matrix(0 -.03907 .07032 0 -10.602 31.798)"><stop offset="0" stop-opacity=".314"/><stop offset=".222" stop-opacity=".275"/><stop offset="1" stop-opacity="0"/></radialGradient><radialGradient id="e" gradientUnits="userSpaceOnUse" cx="450.909" cy="189.579" fx="450.909" fy="189.579" r="21.167" gradientTransform="matrix(0 .03907 -.07032 0 26.561 -3.764)"><stop offset="0" stop-opacity=".314"/><stop offset=".222" stop-opacity=".275"/><stop offset="1" stop-opacity="0"/></radialGradient><linearGradient id="f" gradientUnits="userSpaceOnUse" x1="254" y1="233.5" x2="254" y2="-168.667" gradientTransform="matrix(.03125 0 0 .03125 0 6.72)"><stop offset="0" stop-color="#e0e0e0"/><stop offset="1" stop-color="#eee"/></linearGradient><linearGradient id="g" gradientUnits="userSpaceOnUse" x1="254" y1="-84" x2="254" y2="-168.667" gradientTransform="matrix(3.77953 0 0 3.77953 0 812.598)"><stop offset="0" stop-color="#42a5f5"/><stop offset="1" stop-color="#64b5f6"/></linearGradient><linearGradient id="h" gradientUnits="userSpaceOnUse" x1="391.583" y1="233.5" x2="391.583" y2="-168.667" gradientTransform="translate(-84.667)"><stop offset="0" stop-color="#e57373"/><stop offset="1" stop-color="#ef9a9a"/></linearGradient></defs><path d="M2.563 14.016h10.832v.664H2.563zm0 0" fill="url(#a)"/><path d="M13.395 14.016h1.324v-.66h-1.324zm0 0" fill="url(#b)"/><path d="M2.563 14.016h-1.32v.664h1.32zm0 0" fill="url(#c)"/><path d="M2.563 14.016h-1.32v-.66h1.32zm0 0" fill="url(#d)"/><path d="M13.395 14.016h1.324v.664h-1.324zm0 0" fill="url(#e)"/><path d="M1.82 1.45H14.06c.273 0 .496.222.496.495V13.52a.497.497 0 0 1-.496.496H1.82a.497.497 0 0 1-.496-.496V1.945c0-.273.223-.496.496-.496zm0 0" fill="url(#f)"/><path d="M1.984 14.016a.657.657 0 0 1-.66-.66v-.083c0 .368.293.66.66.66h11.907a.66.66 0 0 0 .664-.66v.082a.66.66 0 0 1-.664.66zm0 0" fill-opacity=".196"/><path d="M1.984 1.45a.657.657 0 0 0-.66.66v.081c0-.367.293-.66.66-.66h11.907a.66.66 0 0 1 .664.66V2.11a.66.66 0 0 0-.664-.66zm0 0" fill="#fff" fill-opacity=".643"/><path d="M1.82 1.402c-.3 0-.543.243-.543.543V13.52c0 .3.243.543.543.543H14.06a.544.544 0 0 0 .543-.543V1.945c0-.3-.247-.543-.543-.543zm0 .094H14.06c.25 0 .449.2.449.45V13.52c0 .25-.2.449-.45.449H1.82c-.25 0-.449-.2-.449-.45V1.946c0-.25.2-.449.45-.449zm0 0" fill="#212121"/><path d="M220.136 175.259c-33.54 0-59.994 26.454-59.994 59.994v339.653h1600.005V235.253c0-33.54-26.927-59.994-59.994-59.994zm0 0" transform="rotate(.882) scale(.00827)" fill="url(#g)" stroke-width="11.339" stroke-linecap="round" stroke="#212121"/><path d="M5.953 5.746h1.324c.184 0 .332.149.332.332v1.324a.332.332 0 0 1-.332.332H5.953a.332.332 0 0 1-.332-.332V6.078c0-.183.149-.332.332-.332zm0 0M8.602 5.746h1.32c.183 0 .332.149.332.332v1.324a.332.332 0 0 1-.332.332h-1.32a.332.332 0 0 1-.332-.332V6.078c0-.183.148-.332.332-.332zm0 0M11.246 5.746h1.324a.33.33 0 0 1 .328.332v1.324a.33.33 0 0 1-.328.332h-1.324a.332.332 0 0 1-.332-.332V6.078c0-.183.149-.332.332-.332zm0 0M3.309 8.395h1.32c.184 0 .332.148.332.332v1.32a.332.332 0 0 1-.332.332h-1.32a.332.332 0 0 1-.332-.332v-1.32c0-.184.148-.332.332-.332zm0 0M5.953 8.395h1.324c.184 0 .332.148.332.332v1.32a.332.332 0 0 1-.332.332H5.953a.332.332 0 0 1-.332-.332v-1.32c0-.184.149-.332.332-.332zm0 0M11.246 8.395h1.324a.33.33 0 0 1 .328.332v1.32a.33.33 0 0 1-.328.332h-1.324a.332.332 0 0 1-.332-.332v-1.32c0-.184.149-.332.332-.332zm0 0" fill="#64b5f6" fill-opacity=".196" stroke-width=".09375" stroke-linecap="round" stroke="#212121"/><path d="M275.224 53.6h42.246c5.874 0 10.624 4.749 10.624 10.623v42.246c0 5.875-4.75 10.624-10.624 10.624h-42.246A10.615 10.615 0 0 1 264.6 106.47V64.223c0-5.874 4.75-10.624 10.624-10.624zm0 0" transform="matrix(.03125 0 0 .03125 0 6.72)" fill="url(#h)" stroke-width="3" stroke-linecap="round" stroke="#212121"/><path d="M3.309 11.04h1.32c.184 0 .332.148.332.331v1.324a.33.33 0 0 1-.332.328h-1.32a.33.33 0 0 1-.332-.328v-1.324c0-.183.148-.332.332-.332zm0 0M5.953 11.04h1.324c.184 0 .332.148.332.331v1.324a.33.33 0 0 1-.332.328H5.953a.33.33 0 0 1-.332-.328v-1.324c0-.183.149-.332.332-.332zm0 0M8.602 11.04h1.32c.183 0 .332.148.332.331v1.324a.33.33 0 0 1-.332.328h-1.32a.33.33 0 0 1-.332-.328v-1.324c0-.183.148-.332.332-.332zm0 0M3.309 5.746h1.32c.184 0 .332.149.332.332v1.324a.332.332 0 0 1-.332.332h-1.32a.332.332 0 0 1-.332-.332V6.078c0-.183.148-.332.332-.332zm0 0M11.246 11.04h1.324a.33.33 0 0 1 .328.331v1.324a.33.33 0 0 1-.328.328h-1.324a.33.33 0 0 1-.332-.328v-1.324c0-.183.149-.332.332-.332zm0 0" fill="#64b5f6" fill-opacity=".196" stroke-width=".09375" stroke-linecap="round" stroke="#212121"/><path d="M3.637 2.441a.66.66 0 0 1 0 1.32.66.66 0 1 1 0-1.32zm0 0M12.238 2.441a.66.66 0 1 1 .002 1.322.66.66 0 0 1-.002-1.322zm0 0" fill="#ef9a9a" fill-opacity=".196" stroke-width=".09375" stroke-linecap="round" stroke="#212121"/></svg>