<svg height="16pt" viewBox="0 0 16 16" width="16pt" xmlns="http://www.w3.org/2000/svg" xmlns:xlink="http://www.w3.org/1999/xlink"><linearGradient id="a"><stop offset="0" stop-opacity=".275"/><stop offset="1" stop-opacity="0"/></linearGradient><linearGradient id="b" gradientTransform="matrix(.0067 0 0 .03125 2.268 6.72)" gradientUnits="userSpaceOnUse" x1="254" x2="254" xlink:href="#a" y1="233.5" y2="254.667"/><linearGradient id="c"><stop offset="0" stop-opacity=".314"/><stop offset=".222" stop-opacity=".275"/><stop offset="1" stop-opacity="0"/></linearGradient><radialGradient id="d" cx="450.909" cy="189.579" gradientTransform="matrix(0 -.03907 -.07032 0 17.796 31.798)" gradientUnits="userSpaceOnUse" r="21.167" xlink:href="#c"/><radialGradient id="e" cx="450.909" cy="189.579" gradientTransform="matrix(0 .03907 .07032 0 -10.189 -3.764)" gradientUnits="userSpaceOnUse" r="21.167" xlink:href="#c"/><radialGradient id="f" cx="450.909" cy="189.579" gradientTransform="matrix(0 -.03907 .07032 0 -10.189 31.798)" gradientUnits="userSpaceOnUse" r="21.167" xlink:href="#c"/><radialGradient id="g" cx="450.909" cy="189.579" gradientTransform="matrix(0 .03907 -.07032 0 17.796 -3.764)" gradientUnits="userSpaceOnUse" r="21.167" xlink:href="#c"/><linearGradient id="h" gradientTransform="matrix(.0067 0 0 .03125 7.23 6.72)" gradientUnits="userSpaceOnUse" x1="254" x2="254" xlink:href="#a" y1="233.5" y2="254.667"/><radialGradient id="i" cx="450.909" cy="189.579" gradientTransform="matrix(0 -.03907 -.07032 0 22.758 31.798)" gradientUnits="userSpaceOnUse" r="21.167" xlink:href="#c"/><radialGradient id="j" cx="450.909" cy="189.579" gradientTransform="matrix(0 .03907 .07032 0 -5.227 -3.764)" gradientUnits="userSpaceOnUse" r="21.167" xlink:href="#c"/><radialGradient id="k" cx="450.909" cy="189.579" gradientTransform="matrix(0 -.03907 .07032 0 -5.227 31.798)" gradientUnits="userSpaceOnUse" r="21.167" xlink:href="#c"/><radialGradient id="l" cx="450.909" cy="189.579" gradientTransform="matrix(0 .03907 -.07032 0 22.758 -3.764)" gradientUnits="userSpaceOnUse" r="21.167" xlink:href="#c"/><linearGradient id="m" gradientTransform="matrix(.07326 0 0 .21137 -19.63 29.483)" gradientUnits="userSpaceOnUse" x1="305.955" x2="305.955" y1="-31.877" y2="-135.329"><stop offset="0" stop-color="#42a5f5"/><stop offset="1" stop-color="#9fa8da"/></linearGradient><linearGradient id="n" gradientUnits="userSpaceOnUse" x1="8.574" x2="8.574" y1="7.95349744" y2="4.09429744"><stop offset="0" stop-color="#fdd835"/><stop offset="1" stop-color="#fff176"/></linearGradient><path d="m2.977 13.992h1.652v.688h-1.652zm0 0" fill="url(#b)"/><path d="m4.629 14.016h1.324v-.66h-1.323zm0 0" fill="url(#d)"/><path d="m2.977 14.016h-1.325v.664h1.325zm0 0" fill="url(#e)"/><path d="m2.977 14.016h-1.325v-.66h1.325zm0 0" fill="url(#f)"/><path d="m4.629 14.016h1.324v.664h-1.323zm0 0" fill="url(#g)"/><path d="m7.938 13.992h1.656v.688h-1.656zm0 0" fill="url(#h)"/><path d="m9.594 14.016h1.32v-.66h-1.32zm0 0" fill="url(#i)"/><path d="m7.938 14.016h-1.326v.664h1.324zm0 0" fill="url(#j)"/><path d="m7.938 14.016h-1.326v-.66h1.324zm0 0" fill="url(#k)"/><path d="m9.594 14.016h1.32v.664h-1.32zm0 0" fill="url(#l)"/><path d="m6.285 1.45a1.32 1.32 0 0 0 -1.324 1.32c0 .632.402 1.265.781 1.984h-3.426a.664.664 0 0 0 -.664.664v3.426c.72-.375 1.352-.781 1.985-.781.734 0 1.324.59 1.324 1.324a1.32 1.32 0 0 1 -1.324 1.324c-.633 0-1.266-.406-1.985-.785v3.43c0 .367.297.66.664.66h3.426c-.379-.72-.781-1.352-.781-1.985 0-.73.59-1.32 1.324-1.32.73 0 1.324.59 1.324 1.32 0 .633-.406 1.266-.785 1.985h3.43c.367 0 .66-.293.66-.66v-3.43c.719.379 1.352.785 1.984.785a1.32 1.32 0 0 0 1.325-1.324 1.32 1.32 0 0 0 -1.325-1.325c-.632 0-1.265.407-1.984.782v-3.426a.66.66 0 0 0 -.66-.664h-3.43c.38-.719.785-1.352.785-1.984 0-.73-.593-1.32-1.324-1.32zm0 0" fill="url(#m)"/><path d="m8.098 4.754c.297.34.472.785.472 1.27 0 .718-.386 1.34-.96 1.671a1.9 1.9 0 0 0 .96.258c1.07 0 1.93-.86 1.93-1.93 0-.484-.176-.93-.473-1.27zm0 0" fill="url(#n)"/><path d="m6.285 1.45a1.32 1.32 0 0 0 -1.312 1.49 1.32 1.32 0 0 1 1.312-1.164c.68 0 1.235.508 1.313 1.164a1.322 1.322 0 0 0 -1.313-1.49zm-3.969 3.303a.664.664 0 0 0 -.664.664v.328c0-.363.297-.66.664-.66h3.426c-.058-.113-.117-.223-.176-.332zm4.688 0c-.059.11-.117.219-.18.332h3.43a.66.66 0 0 1 .66.66v-.328a.66.66 0 0 0 -.66-.664zm5.894 3.309c-.632 0-1.265.406-1.984.78v.333c.719-.38 1.352-.781 1.984-.781.68 0 1.235.503 1.313 1.156a1.32 1.32 0 0 0 -1.313-1.488zm-7.945 1.488a1.323 1.323 0 0 1 -1.316 1.16c-.633 0-1.266-.406-1.985-.785v.332c.72.379 1.352.781 1.985.781a1.32 1.32 0 0 0 1.323-1.318c0-.059-.004-.114-.008-.168zm.02 2.652c-.008.05-.012.106-.012.16 0 .535.289 1.067.605 1.653h.176c-.344-.653-.707-1.235-.77-1.813zm2.625 0c-.063.578-.43 1.16-.774 1.813h.18c.316-.586.605-1.118.605-1.653 0-.054-.004-.11-.011-.16zm0 0" fill="#fff" fill-opacity=".392"/><path d="m4.973 2.61c-.008.054-.012.109-.012.16 0 .535.289 1.07.605 1.656h.176c-.344-.656-.707-1.239-.77-1.817zm2.625 0c-.063.578-.43 1.16-.774 1.816h.18c.316-.586.605-1.121.605-1.656 0-.051-.004-.106-.011-.16zm-3.961 5.123c-.633 0-1.266.403-1.985.782v.328c.72-.375 1.352-.781 1.985-.781.68 0 1.234.503 1.316 1.16.004-.055.008-.11.008-.168 0-.73-.59-1.32-1.324-1.32zm10.573 1.49a1.316 1.316 0 0 1 -1.313 1.156c-.632 0-1.265-.402-1.984-.781v.328c.719.379 1.352.785 1.984.785a1.32 1.32 0 0 0 1.313-1.488zm-7.926 1.156a1.32 1.32 0 0 0 -1.312 1.492 1.316 1.316 0 0 1 1.312-1.16c.68 0 1.235.504 1.313 1.16a1.323 1.323 0 0 0 -1.313-1.492zm-4.633 2.644v.332c0 .368.297.66.664.66h3.426c-.058-.109-.117-.222-.176-.328h-3.25a.664.664 0 0 1 -.664-.664zm9.262 0a.66.66 0 0 1 -.66.665h-3.25c-.059.105-.117.218-.18.328h3.43c.367 0 .66-.293.66-.66zm0 0" fill-opacity=".235"/><path d="m6.285 1.402c-.758 0-1.37.61-1.37 1.368 0 .632.382 1.25.75 1.937h-3.35c-.394 0-.71.32-.71.711v3.504l.07-.035c.719-.38 1.351-.778 1.96-.778.712 0 1.278.57 1.278 1.278 0 .707-.566 1.277-1.277 1.277-.61 0-1.242-.398-1.961-.777l-.07-.035v3.503c0 .391.316.707.71.707h3.505l-.035-.066c-.379-.723-.777-1.351-.777-1.965 0-.707.57-1.273 1.277-1.273s1.277.566 1.277 1.273c0 .614-.398 1.242-.777 1.965l-.035.066h3.504c.39 0 .707-.316.707-.707v-3.347c.687.363 1.309.75 1.937.75a1.37 1.37 0 1 0 0-2.742c-.628 0-1.25.382-1.937.75v-3.348a.71.71 0 0 0 -.707-.711h-3.352c.368-.687.754-1.305.754-1.937 0-.758-.613-1.368-1.37-1.368zm0 .094c.707 0 1.277.567 1.277 1.274 0 .613-.398 1.242-.777 1.964l-.039.067h3.508c.34 0 .613.273.613.617v3.504l.07-.035c.72-.38 1.348-.778 1.961-.778.711 0 1.278.57 1.278 1.278 0 .707-.567 1.277-1.278 1.277-.613 0-1.242-.398-1.96-.777l-.07-.035v3.503c0 .34-.274.614-.614.614h-3.352c.368-.688.754-1.305.754-1.938 0-.758-.613-1.367-1.37-1.367-.759 0-1.372.61-1.372 1.367 0 .633.383 1.25.75 1.938h-3.348a.613.613 0 0 1 -.617-.614v-3.347c.692.363 1.309.75 1.938.75a1.37 1.37 0 1 0 0-2.742c-.63 0-1.246.382-1.938.75v-3.348c0-.344.274-.617.617-.617h3.504l-.035-.067c-.379-.722-.777-1.351-.777-1.964 0-.708.57-1.274 1.277-1.274zm0 0" fill="#212121"/></svg>