<?xml version="1.0" encoding="UTF-8"?>
<svg xmlns="http://www.w3.org/2000/svg" xmlns:xlink="http://www.w3.org/1999/xlink" width="16px" height="16px" viewBox="0 0 16 16" version="1.1">
<defs>
<linearGradient id="linear0" gradientUnits="userSpaceOnUse" x1="254" y1="233.5" x2="254" y2="254.666672" gradientTransform="matrix(0.031253,0,0,0.031253,-0.00000190753,6.719393)">
<stop offset="0" style="stop-color:rgb(0%,0%,0%);stop-opacity:0.27451;"/>
<stop offset="1" style="stop-color:rgb(0%,0%,0%);stop-opacity:0;"/>
</linearGradient>
<radialGradient id="radial0" gradientUnits="userSpaceOnUse" cx="450.908936" cy="189.579361" fx="450.908936" fy="189.579361" r="21.166656" gradientTransform="matrix(0.0000000870852,-0.0390662,-0.0703192,-0.0000000507693,26.065324,31.797666)">
<stop offset="0" style="stop-color:rgb(0%,0%,0%);stop-opacity:0.313726;"/>
<stop offset="0.222222" style="stop-color:rgb(0%,0%,0%);stop-opacity:0.27451;"/>
<stop offset="1" style="stop-color:rgb(0%,0%,0%);stop-opacity:0;"/>
</radialGradient>
<radialGradient id="radial1" gradientUnits="userSpaceOnUse" cx="450.908936" cy="189.579361" fx="450.908936" fy="189.579361" r="21.166656" gradientTransform="matrix(-0.0000000870852,0.0390662,0.0703192,0.0000000507693,-10.188807,-3.763739)">
<stop offset="0" style="stop-color:rgb(0%,0%,0%);stop-opacity:0.313726;"/>
<stop offset="0.222222" style="stop-color:rgb(0%,0%,0%);stop-opacity:0.27451;"/>
<stop offset="1" style="stop-color:rgb(0%,0%,0%);stop-opacity:0;"/>
</radialGradient>
<radialGradient id="radial2" gradientUnits="userSpaceOnUse" cx="450.908936" cy="189.579361" fx="450.908936" fy="189.579361" r="21.166656" gradientTransform="matrix(-0.0000000870852,-0.0390662,0.0703192,-0.0000000507693,-10.188807,31.797666)">
<stop offset="0" style="stop-color:rgb(0%,0%,0%);stop-opacity:0.313726;"/>
<stop offset="0.222222" style="stop-color:rgb(0%,0%,0%);stop-opacity:0.27451;"/>
<stop offset="1" style="stop-color:rgb(0%,0%,0%);stop-opacity:0;"/>
</radialGradient>
<radialGradient id="radial3" gradientUnits="userSpaceOnUse" cx="450.908936" cy="189.579361" fx="450.908936" fy="189.579361" r="21.166656" gradientTransform="matrix(0.0000000870852,0.0390662,-0.0703192,0.0000000507693,26.065323,-3.76374)">
<stop offset="0" style="stop-color:rgb(0%,0%,0%);stop-opacity:0.313726;"/>
<stop offset="0.222222" style="stop-color:rgb(0%,0%,0%);stop-opacity:0.27451;"/>
<stop offset="1" style="stop-color:rgb(0%,0%,0%);stop-opacity:0;"/>
</radialGradient>
<linearGradient id="linear1" gradientUnits="userSpaceOnUse" x1="254" y1="233.5" x2="254.000015" y2="-168.666672" gradientTransform="matrix(0.031253,0,0,0.031253,0,6.719392)">
<stop offset="0" style="stop-color:rgb(61.176473%,80.000001%,39.607844%);stop-opacity:1;"/>
<stop offset="1" style="stop-color:rgb(68.235296%,83.529413%,50.588238%);stop-opacity:1;"/>
</linearGradient>
<linearGradient id="linear2" gradientUnits="userSpaceOnUse" x1="179.916672" y1="-84" x2="179.916672" y2="-168.666656" gradientTransform="matrix(0.031253,0,0,0.031253,0,6.719392)">
<stop offset="0" style="stop-color:rgb(100%,54.11765%,39.607844%);stop-opacity:1;"/>
<stop offset="1" style="stop-color:rgb(100%,43.921569%,26.274511%);stop-opacity:1;"/>
</linearGradient>
<linearGradient id="linear3" gradientUnits="userSpaceOnUse" x1="179.916672" y1="-84" x2="179.916672" y2="-168.666656" gradientTransform="matrix(0.031253,0,0,0.031253,4.961412,6.719392)">
<stop offset="0" style="stop-color:rgb(100%,54.11765%,39.607844%);stop-opacity:1;"/>
<stop offset="1" style="stop-color:rgb(100%,43.921569%,26.274511%);stop-opacity:1;"/>
</linearGradient>
<linearGradient id="linear4" gradientUnits="userSpaceOnUse" x1="179.916672" y1="-84" x2="179.916672" y2="-168.666656" gradientTransform="matrix(0.031253,0,0,0.031253,-2.480706,9.200097)">
<stop offset="0" style="stop-color:rgb(100%,54.11765%,39.607844%);stop-opacity:1;"/>
<stop offset="1" style="stop-color:rgb(100%,43.921569%,26.274511%);stop-opacity:1;"/>
</linearGradient>
<linearGradient id="linear5" gradientUnits="userSpaceOnUse" x1="179.916672" y1="-84" x2="179.916672" y2="-168.666656" gradientTransform="matrix(0.031253,0,0,0.031253,2.480706,9.200097)">
<stop offset="0" style="stop-color:rgb(100%,54.11765%,39.607844%);stop-opacity:1;"/>
<stop offset="1" style="stop-color:rgb(100%,43.921569%,26.274511%);stop-opacity:1;"/>
</linearGradient>
<linearGradient id="linear6" gradientUnits="userSpaceOnUse" x1="179.916672" y1="-84" x2="179.916672" y2="-168.666656" gradientTransform="matrix(0.031253,0,0,0.031253,7.443581,9.200097)">
<stop offset="0" style="stop-color:rgb(100%,54.11765%,39.607844%);stop-opacity:1;"/>
<stop offset="1" style="stop-color:rgb(100%,43.921569%,26.274511%);stop-opacity:1;"/>
</linearGradient>
<linearGradient id="linear7" gradientUnits="userSpaceOnUse" x1="179.916672" y1="-84" x2="179.916672" y2="-168.666656" gradientTransform="matrix(0.031253,0,0,0.031253,0,11.680803)">
<stop offset="0" style="stop-color:rgb(47.450981%,52.549022%,79.607844%);stop-opacity:1;"/>
<stop offset="1" style="stop-color:rgb(36.078432%,41.960785%,75.294119%);stop-opacity:1;"/>
</linearGradient>
<linearGradient id="linear8" gradientUnits="userSpaceOnUse" x1="179.916672" y1="-84" x2="179.916672" y2="-168.666656" gradientTransform="matrix(0.031253,0,0,0.031253,4.961412,11.680803)">
<stop offset="0" style="stop-color:rgb(100%,54.11765%,39.607844%);stop-opacity:1;"/>
<stop offset="1" style="stop-color:rgb(100%,43.921569%,26.274511%);stop-opacity:1;"/>
</linearGradient>
<linearGradient id="linear9" gradientUnits="userSpaceOnUse" x1="179.916672" y1="-84" x2="179.916672" y2="-168.666656" gradientTransform="matrix(0.031253,0,0,0.031253,-2.480706,14.161508)">
<stop offset="0" style="stop-color:rgb(100%,54.11765%,39.607844%);stop-opacity:1;"/>
<stop offset="1" style="stop-color:rgb(100%,43.921569%,26.274511%);stop-opacity:1;"/>
</linearGradient>
<linearGradient id="linear10" gradientUnits="userSpaceOnUse" x1="179.916672" y1="-84" x2="179.916672" y2="-168.666656" gradientTransform="matrix(0.031253,0,0,0.031253,2.480706,14.161508)">
<stop offset="0" style="stop-color:rgb(100%,54.11765%,39.607844%);stop-opacity:1;"/>
<stop offset="1" style="stop-color:rgb(100%,43.921569%,26.274511%);stop-opacity:1;"/>
</linearGradient>
<linearGradient id="linear11" gradientUnits="userSpaceOnUse" x1="179.916672" y1="-84" x2="179.916672" y2="-168.666656" gradientTransform="matrix(0.031253,0,0,0.031253,7.443581,14.161508)">
<stop offset="0" style="stop-color:rgb(100%,54.11765%,39.607844%);stop-opacity:1;"/>
<stop offset="1" style="stop-color:rgb(100%,43.921569%,26.274511%);stop-opacity:1;"/>
</linearGradient>
<linearGradient id="linear12" gradientUnits="userSpaceOnUse" x1="179.916672" y1="-84" x2="179.916672" y2="-168.666656" gradientTransform="matrix(0.031253,0,0,0.031253,0,16.642214)">
<stop offset="0" style="stop-color:rgb(100%,54.11765%,39.607844%);stop-opacity:1;"/>
<stop offset="1" style="stop-color:rgb(100%,43.921569%,26.274511%);stop-opacity:1;"/>
</linearGradient>
<linearGradient id="linear13" gradientUnits="userSpaceOnUse" x1="179.916672" y1="-84" x2="179.916672" y2="-168.666656" gradientTransform="matrix(0.031253,0,0,0.031253,4.961412,16.642214)">
<stop offset="0" style="stop-color:rgb(100%,54.11765%,39.607844%);stop-opacity:1;"/>
<stop offset="1" style="stop-color:rgb(100%,43.921569%,26.274511%);stop-opacity:1;"/>
</linearGradient>
</defs>
<g id="surface1">
<path style=" stroke:none;fill-rule:nonzero;fill:url(#linear0);" d="M 2.976562 13.96875 L 12.898438 13.96875 L 12.898438 14.703125 L 2.976562 14.703125 Z M 2.976562 13.96875 "/>
<path style=" stroke:none;fill-rule:nonzero;fill:url(#radial0);" d="M 12.898438 14.015625 L 14.222656 14.015625 L 14.222656 13.355469 L 12.898438 13.355469 Z M 12.898438 14.015625 "/>
<path style=" stroke:none;fill-rule:nonzero;fill:url(#radial1);" d="M 2.976562 14.015625 L 1.652344 14.015625 L 1.652344 14.679688 L 2.976562 14.679688 Z M 2.976562 14.015625 "/>
<path style=" stroke:none;fill-rule:nonzero;fill:url(#radial2);" d="M 2.976562 14.015625 L 1.652344 14.015625 L 1.652344 13.355469 L 2.976562 13.355469 Z M 2.976562 14.015625 "/>
<path style=" stroke:none;fill-rule:nonzero;fill:url(#radial3);" d="M 12.898438 14.015625 L 14.222656 14.015625 L 14.222656 14.679688 L 12.898438 14.679688 Z M 12.898438 14.015625 "/>
<path style=" stroke:none;fill-rule:nonzero;fill:url(#linear1);" d="M 2.316406 1.449219 L 13.5625 1.449219 C 13.925781 1.449219 14.222656 1.746094 14.222656 2.109375 L 14.222656 13.355469 C 14.222656 13.722656 13.925781 14.015625 13.5625 14.015625 L 2.316406 14.015625 C 1.949219 14.015625 1.652344 13.722656 1.652344 13.355469 L 1.652344 2.109375 C 1.652344 1.746094 1.949219 1.449219 2.316406 1.449219 Z M 2.316406 1.449219 "/>
<path style=" stroke:none;fill-rule:nonzero;fill:rgb(90.196079%,90.196079%,90.196079%);fill-opacity:1;" d="M 2.316406 1.449219 C 1.949219 1.449219 1.652344 1.742188 1.652344 2.109375 L 1.652344 2.191406 C 1.652344 1.824219 1.949219 1.53125 2.316406 1.53125 L 13.5625 1.53125 C 13.925781 1.53125 14.222656 1.824219 14.222656 2.191406 L 14.222656 2.109375 C 14.222656 1.742188 13.925781 1.449219 13.5625 1.449219 Z M 2.316406 1.449219 "/>
<path style=" stroke:none;fill-rule:nonzero;fill:rgb(0%,0%,0%);fill-opacity:0.196078;" d="M 2.316406 14.015625 C 1.949219 14.015625 1.652344 13.722656 1.652344 13.355469 L 1.652344 13.273438 C 1.652344 13.640625 1.949219 13.933594 2.316406 13.933594 L 13.5625 13.933594 C 13.925781 13.933594 14.222656 13.640625 14.222656 13.273438 L 14.222656 13.355469 C 14.222656 13.722656 13.925781 14.015625 13.5625 14.015625 Z M 2.316406 14.015625 "/>
<path style="fill:none;stroke-width:3;stroke-linecap:round;stroke-linejoin:miter;stroke:rgb(12.941177%,12.941177%,12.941177%);stroke-opacity:1;stroke-miterlimit:4;" d="M 74.117922 -168.629428 L 433.958559 -168.629428 C 445.582449 -168.629428 455.081542 -159.130335 455.081542 -147.506445 L 455.081542 212.334192 C 455.081542 224.08307 445.582449 233.457174 433.958559 233.457174 L 74.117922 233.457174 C 62.369044 233.457174 52.869951 224.08307 52.869951 212.334192 L 52.869951 -147.506445 C 52.869951 -159.130335 62.369044 -168.629428 74.117922 -168.629428 Z M 74.117922 -168.629428 " transform="matrix(0.031253,0,0,0.031253,0,6.719392)"/>
<path style=" stroke:none;fill-rule:nonzero;fill:url(#linear2);" d="M 4.546875 1.53125 L 6.367188 1.53125 C 6.550781 1.53125 6.699219 1.679688 6.699219 1.863281 L 6.699219 3.679688 C 6.699219 3.863281 6.550781 4.011719 6.367188 4.011719 L 4.546875 4.011719 C 4.363281 4.011719 4.214844 3.863281 4.214844 3.679688 L 4.214844 1.863281 C 4.214844 1.679688 4.363281 1.53125 4.546875 1.53125 Z M 4.546875 1.53125 "/>
<path style=" stroke:none;fill-rule:nonzero;fill:url(#linear3);" d="M 9.507812 1.53125 L 11.328125 1.53125 C 11.511719 1.53125 11.660156 1.679688 11.660156 1.863281 L 11.660156 3.679688 C 11.660156 3.863281 11.511719 4.011719 11.328125 4.011719 L 9.507812 4.011719 C 9.324219 4.011719 9.175781 3.863281 9.175781 3.679688 L 9.175781 1.863281 C 9.175781 1.679688 9.324219 1.53125 9.507812 1.53125 Z M 9.507812 1.53125 "/>
<path style=" stroke:none;fill-rule:nonzero;fill:url(#linear4);" d="M 2.066406 4.011719 L 3.886719 4.011719 C 4.070312 4.011719 4.21875 4.160156 4.21875 4.34375 L 4.21875 6.160156 C 4.21875 6.34375 4.070312 6.492188 3.886719 6.492188 L 2.066406 6.492188 C 1.882812 6.492188 1.734375 6.34375 1.734375 6.160156 L 1.734375 4.34375 C 1.734375 4.160156 1.882812 4.011719 2.066406 4.011719 Z M 2.066406 4.011719 "/>
<path style=" stroke:none;fill-rule:nonzero;fill:url(#linear5);" d="M 7.027344 4.011719 L 8.847656 4.011719 C 9.03125 4.011719 9.179688 4.160156 9.179688 4.34375 L 9.179688 6.160156 C 9.179688 6.34375 9.03125 6.492188 8.847656 6.492188 L 7.027344 6.492188 C 6.84375 6.492188 6.695312 6.34375 6.695312 6.160156 L 6.695312 4.34375 C 6.695312 4.160156 6.84375 4.011719 7.027344 4.011719 Z M 7.027344 4.011719 "/>
<path style=" stroke:none;fill-rule:nonzero;fill:url(#linear6);" d="M 11.988281 4.011719 L 13.8125 4.011719 C 13.992188 4.011719 14.140625 4.160156 14.140625 4.34375 L 14.140625 6.160156 C 14.140625 6.34375 13.992188 6.492188 13.8125 6.492188 L 11.988281 6.492188 C 11.808594 6.492188 11.660156 6.34375 11.660156 6.160156 L 11.660156 4.34375 C 11.660156 4.160156 11.808594 4.011719 11.988281 4.011719 Z M 11.988281 4.011719 "/>
<path style=" stroke:none;fill-rule:nonzero;fill:rgb(0%,0%,0%);fill-opacity:0.235294;" d="M 4.546875 1.53125 C 4.363281 1.53125 4.214844 1.679688 4.214844 1.863281 L 4.214844 2.027344 C 4.214844 1.84375 4.363281 1.695312 4.546875 1.695312 L 6.367188 1.695312 C 6.550781 1.695312 6.699219 1.84375 6.699219 2.027344 L 6.699219 1.863281 C 6.699219 1.679688 6.550781 1.53125 6.367188 1.53125 Z M 4.546875 1.53125 "/>
<path style=" stroke:none;fill-rule:nonzero;fill:rgb(100%,100%,100%);fill-opacity:0.392157;" d="M 4.546875 4.175781 C 4.363281 4.175781 4.214844 4.03125 4.214844 3.847656 L 4.214844 3.679688 C 4.214844 3.863281 4.363281 4.011719 4.546875 4.011719 L 6.367188 4.011719 C 6.550781 4.011719 6.699219 3.863281 6.699219 3.679688 L 6.699219 3.847656 C 6.699219 4.03125 6.550781 4.175781 6.367188 4.175781 Z M 4.546875 4.175781 "/>
<path style="fill:none;stroke-width:3;stroke-linecap:round;stroke-linejoin:round;stroke:rgb(12.941177%,12.941177%,12.941177%);stroke-opacity:1;stroke-miterlimit:4;" d="M 145.486107 -166.004679 L 203.730545 -166.004679 C 209.604984 -166.004679 214.35453 -161.255132 214.35453 -155.380693 L 214.35453 -97.261243 C 214.35453 -91.386804 209.604984 -86.637258 203.730545 -86.637258 L 145.486107 -86.637258 C 139.611668 -86.637258 134.862121 -91.386804 134.862121 -97.261243 L 134.862121 -155.380693 C 134.862121 -161.255132 139.611668 -166.004679 145.486107 -166.004679 Z M 145.486107 -166.004679 " transform="matrix(0.031253,0,0,0.031253,0,6.719392)"/>
<path style=" stroke:none;fill-rule:nonzero;fill:rgb(0%,0%,0%);fill-opacity:0.235294;" d="M 9.507812 1.53125 C 9.324219 1.53125 9.179688 1.679688 9.179688 1.863281 L 9.179688 2.027344 C 9.179688 1.84375 9.324219 1.695312 9.507812 1.695312 L 11.328125 1.695312 C 11.511719 1.695312 11.660156 1.84375 11.660156 2.027344 L 11.660156 1.863281 C 11.660156 1.679688 11.511719 1.53125 11.328125 1.53125 Z M 9.507812 1.53125 "/>
<path style=" stroke:none;fill-rule:nonzero;fill:rgb(100%,100%,100%);fill-opacity:0.392157;" d="M 9.507812 4.175781 C 9.324219 4.175781 9.179688 4.03125 9.179688 3.847656 L 9.179688 3.679688 C 9.179688 3.863281 9.324219 4.011719 9.507812 4.011719 L 11.328125 4.011719 C 11.511719 4.011719 11.660156 3.863281 11.660156 3.679688 L 11.660156 3.847656 C 11.660156 4.03125 11.511719 4.175781 11.328125 4.175781 Z M 9.507812 4.175781 "/>
<path style="fill:none;stroke-width:3;stroke-linecap:round;stroke-linejoin:round;stroke:rgb(12.941177%,12.941177%,12.941177%);stroke-opacity:1;stroke-miterlimit:4;" d="M 145.423921 -166.004679 L 203.668359 -166.004679 C 209.542798 -166.004679 214.292344 -161.255132 214.292344 -155.380693 L 214.292344 -97.261243 C 214.292344 -91.386804 209.542798 -86.637258 203.668359 -86.637258 L 145.423921 -86.637258 C 139.67447 -86.637258 134.924923 -91.386804 134.924923 -97.261243 L 134.924923 -155.380693 C 134.924923 -161.255132 139.67447 -166.004679 145.423921 -166.004679 Z M 145.423921 -166.004679 " transform="matrix(0.031253,0,0,0.031253,4.962881,6.719392)"/>
<path style=" stroke:none;fill-rule:nonzero;fill:rgb(0%,0%,0%);fill-opacity:0.235294;" d="M 11.988281 4.011719 C 11.804688 4.011719 11.65625 4.160156 11.65625 4.34375 L 11.65625 4.507812 C 11.65625 4.324219 11.804688 4.175781 11.988281 4.175781 L 13.808594 4.175781 C 13.992188 4.175781 14.140625 4.324219 14.140625 4.507812 L 14.140625 4.34375 C 14.140625 4.160156 13.992188 4.011719 13.808594 4.011719 Z M 11.988281 4.011719 "/>
<path style=" stroke:none;fill-rule:nonzero;fill:rgb(100%,100%,100%);fill-opacity:0.392157;" d="M 11.988281 6.65625 C 11.804688 6.65625 11.65625 6.511719 11.65625 6.328125 L 11.65625 6.160156 C 11.65625 6.34375 11.804688 6.492188 11.988281 6.492188 L 13.808594 6.492188 C 13.992188 6.492188 14.140625 6.34375 14.140625 6.160156 L 14.140625 6.328125 C 14.140625 6.511719 13.992188 6.65625 13.808594 6.65625 Z M 11.988281 6.65625 "/>
<path style="fill:none;stroke-width:3;stroke-linecap:round;stroke-linejoin:round;stroke:rgb(12.941177%,12.941177%,12.941177%);stroke-opacity:1;stroke-miterlimit:4;" d="M 145.463369 -166.012258 L 203.707807 -166.012258 C 209.582246 -166.012258 214.331793 -161.262712 214.331793 -155.388273 L 214.331793 -97.268823 C 214.331793 -91.394384 209.582246 -86.644837 203.707807 -86.644837 L 145.463369 -86.644837 C 139.58893 -86.644837 134.839384 -91.394384 134.839384 -97.268823 L 134.839384 -155.388273 C 134.839384 -161.262712 139.58893 -166.012258 145.463369 -166.012258 Z M 145.463369 -166.012258 " transform="matrix(0.031253,0,0,0.031253,7.442117,9.200097)"/>
<path style=" stroke:none;fill-rule:nonzero;fill:rgb(0%,0%,0%);fill-opacity:0.235294;" d="M 7.027344 4.011719 C 6.84375 4.011719 6.695312 4.160156 6.695312 4.34375 L 6.695312 4.507812 C 6.695312 4.324219 6.84375 4.175781 7.027344 4.175781 L 8.847656 4.175781 C 9.03125 4.175781 9.179688 4.324219 9.179688 4.507812 L 9.179688 4.34375 C 9.179688 4.160156 9.03125 4.011719 8.847656 4.011719 Z M 7.027344 4.011719 "/>
<path style=" stroke:none;fill-rule:nonzero;fill:rgb(100%,100%,100%);fill-opacity:0.392157;" d="M 7.027344 6.65625 C 6.84375 6.65625 6.695312 6.511719 6.695312 6.328125 L 6.695312 6.160156 C 6.695312 6.34375 6.84375 6.492188 7.027344 6.492188 L 8.847656 6.492188 C 9.03125 6.492188 9.179688 6.34375 9.179688 6.160156 L 9.179688 6.328125 C 9.179688 6.511719 9.03125 6.65625 8.847656 6.65625 Z M 7.027344 6.65625 "/>
<path style="fill:none;stroke-width:3;stroke-linecap:round;stroke-linejoin:round;stroke:rgb(12.941177%,12.941177%,12.941177%);stroke-opacity:1;stroke-miterlimit:4;" d="M 145.478528 -166.012258 L 203.722965 -166.012258 C 209.597405 -166.012258 214.346951 -161.262712 214.346951 -155.388273 L 214.346951 -97.268823 C 214.346951 -91.394384 209.597405 -86.644837 203.722965 -86.644837 L 145.478528 -86.644837 C 139.604089 -86.644837 134.854542 -91.394384 134.854542 -97.268823 L 134.854542 -155.388273 C 134.854542 -161.262712 139.604089 -166.012258 145.478528 -166.012258 Z M 145.478528 -166.012258 " transform="matrix(0.031253,0,0,0.031253,2.480706,9.200097)"/>
<path style=" stroke:none;fill-rule:nonzero;fill:rgb(0%,0%,0%);fill-opacity:0.235294;" d="M 2.066406 4.011719 C 1.882812 4.011719 1.734375 4.160156 1.734375 4.34375 L 1.734375 4.507812 C 1.734375 4.324219 1.882812 4.175781 2.066406 4.175781 L 3.886719 4.175781 C 4.070312 4.175781 4.21875 4.324219 4.21875 4.507812 L 4.21875 4.34375 C 4.21875 4.160156 4.070312 4.011719 3.886719 4.011719 Z M 2.066406 4.011719 "/>
<path style=" stroke:none;fill-rule:nonzero;fill:rgb(100%,100%,100%);fill-opacity:0.392157;" d="M 2.066406 6.65625 C 1.882812 6.65625 1.734375 6.511719 1.734375 6.328125 L 1.734375 6.160156 C 1.734375 6.34375 1.882812 6.492188 2.066406 6.492188 L 3.886719 6.492188 C 4.070312 6.492188 4.21875 6.34375 4.21875 6.160156 L 4.21875 6.328125 C 4.21875 6.511719 4.070312 6.65625 3.886719 6.65625 Z M 2.066406 6.65625 "/>
<path style="fill:none;stroke-width:3;stroke-linecap:round;stroke-linejoin:round;stroke:rgb(12.941177%,12.941177%,12.941177%);stroke-opacity:1;stroke-miterlimit:4;" d="M 145.493686 -166.012258 L 203.738124 -166.012258 C 209.612563 -166.012258 214.362109 -161.262712 214.362109 -155.388273 L 214.362109 -97.268823 C 214.362109 -91.394384 209.612563 -86.644837 203.738124 -86.644837 L 145.493686 -86.644837 C 139.619247 -86.644837 134.869701 -91.394384 134.869701 -97.268823 L 134.869701 -155.388273 C 134.869701 -161.262712 139.619247 -166.012258 145.493686 -166.012258 Z M 145.493686 -166.012258 " transform="matrix(0.031253,0,0,0.031253,-2.480706,9.200097)"/>
<path style=" stroke:none;fill-rule:nonzero;fill:url(#linear7);" d="M 4.546875 6.492188 L 6.367188 6.492188 C 6.550781 6.492188 6.699219 6.640625 6.699219 6.824219 L 6.699219 8.640625 C 6.699219 8.824219 6.550781 8.972656 6.367188 8.972656 L 4.546875 8.972656 C 4.363281 8.972656 4.214844 8.824219 4.214844 8.640625 L 4.214844 6.824219 C 4.214844 6.640625 4.363281 6.492188 4.546875 6.492188 Z M 4.546875 6.492188 "/>
<path style=" stroke:none;fill-rule:nonzero;fill:url(#linear8);" d="M 9.507812 6.492188 L 11.328125 6.492188 C 11.511719 6.492188 11.660156 6.640625 11.660156 6.824219 L 11.660156 8.640625 C 11.660156 8.824219 11.511719 8.972656 11.328125 8.972656 L 9.507812 8.972656 C 9.324219 8.972656 9.175781 8.824219 9.175781 8.640625 L 9.175781 6.824219 C 9.175781 6.640625 9.324219 6.492188 9.507812 6.492188 Z M 9.507812 6.492188 "/>
<path style=" stroke:none;fill-rule:nonzero;fill:url(#linear9);" d="M 2.066406 8.972656 L 3.886719 8.972656 C 4.070312 8.972656 4.21875 9.121094 4.21875 9.304688 L 4.21875 11.121094 C 4.21875 11.304688 4.070312 11.453125 3.886719 11.453125 L 2.066406 11.453125 C 1.882812 11.453125 1.734375 11.304688 1.734375 11.121094 L 1.734375 9.304688 C 1.734375 9.121094 1.882812 8.972656 2.066406 8.972656 Z M 2.066406 8.972656 "/>
<path style=" stroke:none;fill-rule:nonzero;fill:url(#linear10);" d="M 7.027344 8.972656 L 8.847656 8.972656 C 9.03125 8.972656 9.179688 9.121094 9.179688 9.304688 L 9.179688 11.121094 C 9.179688 11.304688 9.03125 11.453125 8.847656 11.453125 L 7.027344 11.453125 C 6.84375 11.453125 6.695312 11.304688 6.695312 11.121094 L 6.695312 9.304688 C 6.695312 9.121094 6.84375 8.972656 7.027344 8.972656 Z M 7.027344 8.972656 "/>
<path style=" stroke:none;fill-rule:nonzero;fill:url(#linear11);" d="M 11.988281 8.972656 L 13.8125 8.972656 C 13.992188 8.972656 14.140625 9.121094 14.140625 9.304688 L 14.140625 11.121094 C 14.140625 11.304688 13.992188 11.453125 13.8125 11.453125 L 11.988281 11.453125 C 11.808594 11.453125 11.660156 11.304688 11.660156 11.121094 L 11.660156 9.304688 C 11.660156 9.121094 11.808594 8.972656 11.988281 8.972656 Z M 11.988281 8.972656 "/>
<path style=" stroke:none;fill-rule:nonzero;fill:url(#linear12);" d="M 4.546875 11.453125 L 6.367188 11.453125 C 6.550781 11.453125 6.699219 11.601562 6.699219 11.785156 L 6.699219 13.601562 C 6.699219 13.785156 6.550781 13.933594 6.367188 13.933594 L 4.546875 13.933594 C 4.363281 13.933594 4.214844 13.785156 4.214844 13.601562 L 4.214844 11.785156 C 4.214844 11.601562 4.363281 11.453125 4.546875 11.453125 Z M 4.546875 11.453125 "/>
<path style=" stroke:none;fill-rule:nonzero;fill:url(#linear13);" d="M 9.507812 11.453125 L 11.328125 11.453125 C 11.511719 11.453125 11.660156 11.601562 11.660156 11.785156 L 11.660156 13.601562 C 11.660156 13.785156 11.511719 13.933594 11.328125 13.933594 L 9.507812 13.933594 C 9.324219 13.933594 9.175781 13.785156 9.175781 13.601562 L 9.175781 11.785156 C 9.175781 11.601562 9.324219 11.453125 9.507812 11.453125 Z M 9.507812 11.453125 "/>
<path style=" stroke:none;fill-rule:nonzero;fill:rgb(0%,0%,0%);fill-opacity:0.235294;" d="M 4.546875 6.492188 C 4.363281 6.492188 4.214844 6.640625 4.214844 6.824219 L 4.214844 6.988281 C 4.214844 6.804688 4.363281 6.65625 4.546875 6.65625 L 6.367188 6.65625 C 6.550781 6.65625 6.699219 6.804688 6.699219 6.988281 L 6.699219 6.824219 C 6.699219 6.640625 6.550781 6.492188 6.367188 6.492188 Z M 4.546875 6.492188 "/>
<path style=" stroke:none;fill-rule:nonzero;fill:rgb(100%,100%,100%);fill-opacity:0.392157;" d="M 4.546875 9.136719 C 4.363281 9.136719 4.214844 8.992188 4.214844 8.808594 L 4.214844 8.640625 C 4.214844 8.824219 4.363281 8.972656 4.546875 8.972656 L 6.367188 8.972656 C 6.550781 8.972656 6.699219 8.824219 6.699219 8.640625 L 6.699219 8.808594 C 6.699219 8.992188 6.550781 9.136719 6.367188 9.136719 Z M 4.546875 9.136719 "/>
<path style="fill:none;stroke-width:3;stroke-linecap:round;stroke-linejoin:round;stroke:rgb(12.941177%,12.941177%,12.941177%);stroke-opacity:1;stroke-miterlimit:4;" d="M 145.486107 -166.020081 L 203.730545 -166.020081 C 209.604984 -166.020081 214.35453 -161.270535 214.35453 -155.396096 L 214.35453 -97.276646 C 214.35453 -91.402207 209.604984 -86.652661 203.730545 -86.652661 L 145.486107 -86.652661 C 139.611668 -86.652661 134.862121 -91.402207 134.862121 -97.276646 L 134.862121 -155.396096 C 134.862121 -161.270535 139.611668 -166.020081 145.486107 -166.020081 Z M 145.486107 -166.020081 " transform="matrix(0.031253,0,0,0.031253,0,11.68081)"/>
<path style=" stroke:none;fill-rule:nonzero;fill:rgb(0%,0%,0%);fill-opacity:0.235294;" d="M 9.507812 6.492188 C 9.324219 6.492188 9.179688 6.640625 9.179688 6.824219 L 9.179688 6.988281 C 9.179688 6.804688 9.324219 6.65625 9.507812 6.65625 L 11.328125 6.65625 C 11.511719 6.65625 11.660156 6.804688 11.660156 6.988281 L 11.660156 6.824219 C 11.660156 6.640625 11.511719 6.492188 11.328125 6.492188 Z M 9.507812 6.492188 "/>
<path style=" stroke:none;fill-rule:nonzero;fill:rgb(100%,100%,100%);fill-opacity:0.392157;" d="M 9.507812 9.136719 C 9.324219 9.136719 9.179688 8.992188 9.179688 8.808594 L 9.179688 8.640625 C 9.179688 8.824219 9.324219 8.972656 9.507812 8.972656 L 11.328125 8.972656 C 11.511719 8.972656 11.660156 8.824219 11.660156 8.640625 L 11.660156 8.808594 C 11.660156 8.992188 11.511719 9.136719 11.328125 9.136719 Z M 9.507812 9.136719 "/>
<path style="fill:none;stroke-width:3;stroke-linecap:round;stroke-linejoin:round;stroke:rgb(12.941177%,12.941177%,12.941177%);stroke-opacity:1;stroke-miterlimit:4;" d="M 145.423921 -166.020081 L 203.668359 -166.020081 C 209.542798 -166.020081 214.292344 -161.270535 214.292344 -155.396096 L 214.292344 -97.276646 C 214.292344 -91.402207 209.542798 -86.652661 203.668359 -86.652661 L 145.423921 -86.652661 C 139.67447 -86.652661 134.924923 -91.402207 134.924923 -97.276646 L 134.924923 -155.396096 C 134.924923 -161.270535 139.67447 -166.020081 145.423921 -166.020081 Z M 145.423921 -166.020081 " transform="matrix(0.031253,0,0,0.031253,4.962881,11.68081)"/>
<path style=" stroke:none;fill-rule:nonzero;fill:rgb(0%,0%,0%);fill-opacity:0.235294;" d="M 11.988281 8.972656 C 11.804688 8.972656 11.65625 9.121094 11.65625 9.304688 L 11.65625 9.46875 C 11.65625 9.285156 11.804688 9.136719 11.988281 9.136719 L 13.808594 9.136719 C 13.992188 9.136719 14.140625 9.285156 14.140625 9.46875 L 14.140625 9.304688 C 14.140625 9.121094 13.992188 8.972656 13.808594 8.972656 Z M 11.988281 8.972656 "/>
<path style=" stroke:none;fill-rule:nonzero;fill:rgb(100%,100%,100%);fill-opacity:0.392157;" d="M 11.988281 11.617188 C 11.804688 11.617188 11.65625 11.472656 11.65625 11.289062 L 11.65625 11.121094 C 11.65625 11.304688 11.804688 11.453125 11.988281 11.453125 L 13.808594 11.453125 C 13.992188 11.453125 14.140625 11.304688 14.140625 11.121094 L 14.140625 11.289062 C 14.140625 11.472656 13.992188 11.617188 13.808594 11.617188 Z M 11.988281 11.617188 "/>
<path style="fill:none;stroke-width:3;stroke-linecap:round;stroke-linejoin:round;stroke:rgb(12.941177%,12.941177%,12.941177%);stroke-opacity:1;stroke-miterlimit:4;" d="M 145.463369 -166.027661 L 203.707807 -166.027661 C 209.582246 -166.027661 214.331793 -161.278114 214.331793 -155.403675 L 214.331793 -97.284225 C 214.331793 -91.409786 209.582246 -86.66024 203.707807 -86.66024 L 145.463369 -86.66024 C 139.58893 -86.66024 134.839384 -91.409786 134.839384 -97.284225 L 134.839384 -155.403675 C 134.839384 -161.278114 139.58893 -166.027661 145.463369 -166.027661 Z M 145.463369 -166.027661 " transform="matrix(0.031253,0,0,0.031253,7.442117,14.161516)"/>
<path style=" stroke:none;fill-rule:nonzero;fill:rgb(0%,0%,0%);fill-opacity:0.235294;" d="M 7.027344 8.972656 C 6.84375 8.972656 6.695312 9.121094 6.695312 9.304688 L 6.695312 9.46875 C 6.695312 9.285156 6.84375 9.136719 7.027344 9.136719 L 8.847656 9.136719 C 9.03125 9.136719 9.179688 9.285156 9.179688 9.46875 L 9.179688 9.304688 C 9.179688 9.121094 9.03125 8.972656 8.847656 8.972656 Z M 7.027344 8.972656 "/>
<path style=" stroke:none;fill-rule:nonzero;fill:rgb(100%,100%,100%);fill-opacity:0.392157;" d="M 7.027344 11.617188 C 6.84375 11.617188 6.695312 11.472656 6.695312 11.289062 L 6.695312 11.121094 C 6.695312 11.304688 6.84375 11.453125 7.027344 11.453125 L 8.847656 11.453125 C 9.03125 11.453125 9.179688 11.304688 9.179688 11.121094 L 9.179688 11.289062 C 9.179688 11.472656 9.03125 11.617188 8.847656 11.617188 Z M 7.027344 11.617188 "/>
<path style="fill:none;stroke-width:3;stroke-linecap:round;stroke-linejoin:round;stroke:rgb(12.941177%,12.941177%,12.941177%);stroke-opacity:1;stroke-miterlimit:4;" d="M 145.478528 -166.027661 L 203.722965 -166.027661 C 209.597405 -166.027661 214.346951 -161.278114 214.346951 -155.403675 L 214.346951 -97.284225 C 214.346951 -91.409786 209.597405 -86.66024 203.722965 -86.66024 L 145.478528 -86.66024 C 139.604089 -86.66024 134.854542 -91.409786 134.854542 -97.284225 L 134.854542 -155.403675 C 134.854542 -161.278114 139.604089 -166.027661 145.478528 -166.027661 Z M 145.478528 -166.027661 " transform="matrix(0.031253,0,0,0.031253,2.480706,14.161516)"/>
<path style=" stroke:none;fill-rule:nonzero;fill:rgb(0%,0%,0%);fill-opacity:0.235294;" d="M 2.066406 8.972656 C 1.882812 8.972656 1.734375 9.121094 1.734375 9.304688 L 1.734375 9.46875 C 1.734375 9.285156 1.882812 9.136719 2.066406 9.136719 L 3.886719 9.136719 C 4.070312 9.136719 4.21875 9.285156 4.21875 9.46875 L 4.21875 9.304688 C 4.21875 9.121094 4.070312 8.972656 3.886719 8.972656 Z M 2.066406 8.972656 "/>
<path style=" stroke:none;fill-rule:nonzero;fill:rgb(100%,100%,100%);fill-opacity:0.392157;" d="M 2.066406 11.617188 C 1.882812 11.617188 1.734375 11.472656 1.734375 11.289062 L 1.734375 11.121094 C 1.734375 11.304688 1.882812 11.453125 2.066406 11.453125 L 3.886719 11.453125 C 4.070312 11.453125 4.21875 11.304688 4.21875 11.121094 L 4.21875 11.289062 C 4.21875 11.472656 4.070312 11.617188 3.886719 11.617188 Z M 2.066406 11.617188 "/>
<path style="fill:none;stroke-width:3;stroke-linecap:round;stroke-linejoin:round;stroke:rgb(12.941177%,12.941177%,12.941177%);stroke-opacity:1;stroke-miterlimit:4;" d="M 145.493686 -166.027661 L 203.738124 -166.027661 C 209.612563 -166.027661 214.362109 -161.278114 214.362109 -155.403675 L 214.362109 -97.284225 C 214.362109 -91.409786 209.612563 -86.66024 203.738124 -86.66024 L 145.493686 -86.66024 C 139.619247 -86.66024 134.869701 -91.409786 134.869701 -97.284225 L 134.869701 -155.403675 C 134.869701 -161.278114 139.619247 -166.027661 145.493686 -166.027661 Z M 145.493686 -166.027661 " transform="matrix(0.031253,0,0,0.031253,-2.480706,14.161516)"/>
<path style=" stroke:none;fill-rule:nonzero;fill:rgb(0%,0%,0%);fill-opacity:0.235294;" d="M 4.546875 11.453125 C 4.363281 11.453125 4.214844 11.601562 4.214844 11.785156 L 4.214844 11.949219 C 4.214844 11.765625 4.363281 11.617188 4.546875 11.617188 L 6.367188 11.617188 C 6.550781 11.617188 6.699219 11.765625 6.699219 11.949219 L 6.699219 11.785156 C 6.699219 11.601562 6.550781 11.453125 6.367188 11.453125 Z M 4.546875 11.453125 "/>
<path style="fill:none;stroke-width:3;stroke-linecap:round;stroke-linejoin:round;stroke:rgb(12.941177%,12.941177%,12.941177%);stroke-opacity:1;stroke-miterlimit:4;" d="M 145.486107 151.465004 L 203.730545 151.465004 C 209.604984 151.465004 214.35453 156.214551 214.35453 162.08899 L 214.35453 220.20844 C 214.35453 226.082879 209.604984 230.832425 203.730545 230.832425 L 145.486107 230.832425 C 139.611668 230.832425 134.862121 226.082879 134.862121 220.20844 L 134.862121 162.08899 C 134.862121 156.214551 139.611668 151.465004 145.486107 151.465004 Z M 145.486107 151.465004 " transform="matrix(0.031253,0,0,0.031253,0,6.719392)"/>
<path style=" stroke:none;fill-rule:nonzero;fill:rgb(0%,0%,0%);fill-opacity:0.235294;" d="M 9.507812 11.453125 C 9.324219 11.453125 9.179688 11.601562 9.179688 11.785156 L 9.179688 11.949219 C 9.179688 11.765625 9.324219 11.617188 9.507812 11.617188 L 11.328125 11.617188 C 11.511719 11.617188 11.660156 11.765625 11.660156 11.949219 L 11.660156 11.785156 C 11.660156 11.601562 11.511719 11.453125 11.328125 11.453125 Z M 9.507812 11.453125 "/>
<path style="fill:none;stroke-width:3;stroke-linecap:round;stroke-linejoin:round;stroke:rgb(12.941177%,12.941177%,12.941177%);stroke-opacity:1;stroke-miterlimit:4;" d="M 304.220948 151.465004 L 362.465386 151.465004 C 368.339825 151.465004 373.089372 156.214551 373.089372 162.08899 L 373.089372 220.20844 C 373.089372 226.082879 368.339825 230.832425 362.465386 230.832425 L 304.220948 230.832425 C 298.471497 230.832425 293.721951 226.082879 293.721951 220.20844 L 293.721951 162.08899 C 293.721951 156.214551 298.471497 151.465004 304.220948 151.465004 Z M 304.220948 151.465004 " transform="matrix(0.031253,0,0,0.031253,0,6.719392)"/>
</g>
</svg>
