<svg height="16pt" viewBox="0 0 16 16" width="16pt" xmlns="http://www.w3.org/2000/svg" xmlns:xlink="http://www.w3.org/1999/xlink"><linearGradient id="a"><stop offset="0" stop-opacity=".314"/><stop offset=".222" stop-opacity=".275"/><stop offset="1" stop-opacity="0"/></linearGradient><radialGradient id="b" cx="450.909" cy="189.579" gradientTransform="matrix(0 -.03907 -.07032 0 22.262 31.798)" gradientUnits="userSpaceOnUse" r="21.167" xlink:href="#a"/><radialGradient id="c" cx="450.909" cy="189.579" gradientTransform="matrix(0 .03907 .07032 0 -6.385 -3.764)" gradientUnits="userSpaceOnUse" r="21.167" xlink:href="#a"/><radialGradient id="d" cx="450.909" cy="189.579" gradientTransform="matrix(0 -.03907 .07032 0 -6.385 31.798)" gradientUnits="userSpaceOnUse" r="21.167" xlink:href="#a"/><radialGradient id="e" cx="450.909" cy="189.579" gradientTransform="matrix(0 .03907 -.07032 0 22.262 -3.764)" gradientUnits="userSpaceOnUse" r="21.167" xlink:href="#a"/><linearGradient id="f" gradientTransform="matrix(.00668 0 0 .03125 6.233 6.72)" gradientUnits="userSpaceOnUse" x1="255.323" x2="255.323" y1="233.5" y2="254.667"><stop offset="0" stop-opacity=".275"/><stop offset="1" stop-opacity="0"/></linearGradient><linearGradient id="g" gradientUnits="userSpaceOnUse" x1="7.9375" x2="7.9375" y1="14.016875" y2="1.44915625"><stop offset="0" stop-color="#7e57c2"/><stop offset="1" stop-color="#ba68c8"/></linearGradient><path d="m9.098 14.016h1.32v-.66h-1.32zm0 0" fill="url(#b)"/><path d="m6.781 14.016h-1.324v.664h1.324zm0 0" fill="url(#c)"/><path d="m6.781 14.016h-1.324v-.66h1.324zm0 0" fill="url(#d)"/><path d="m9.098 14.016h1.32v.664h-1.32zm0 0" fill="url(#e)"/><path d="m6.781 13.852h2.317v.828h-2.318zm0 0" fill="url(#f)"/><path d="m7.938 1.45a6.283 6.283 0 1 1 0 12.566 6.285 6.285 0 0 1 -6.286-6.282 6.286 6.286 0 0 1 6.285-6.284zm0 0" fill="url(#g)"/><path d="m3.629 3.148a6.369 6.369 0 0 0 -1.439 2.024c.22.055.235.246.372.242.09 0 .164.113.164.25-.122.242.234.219.25.414-.047.18-.168.184-.164.332 0 .184-.172.227-.293.332l-.29.25a.966.966 0 0 1 -.105.082h-.063a1.69 1.69 0 0 1 -.37-.043 6.94 6.94 0 0 0 -.04.703c0 .371.036.739.094 1.094a12.383 12.383 0 0 0 2.031-1.094c1.047-.703 1.328.313 2.149.332.644 0 1.16-.59 1.16-1.324v-.328c-.133-1.05-1-1.082-.992-1.656 0-.367-.446-.66-.992-.66-.891.449-.883-.7-1.473-.95zm6.691-1.238c.446.895.653 1.442.594 2.184.184.718.996.066.992.66 0 .734.934.824.696 1.418l-.364.898c.758.633 1.442.961 1.977 1.012.004-.117.008-.23.008-.348 0-2.64-1.61-4.886-3.903-5.824zm0 0" fill="#fff" fill-opacity=".314"/><path d="m1.82 3.266c-.074 0-.062-.329-.129-.356-.066-.027-.289.215-.34.164-.05-.05.192-.277.16-.344-.027-.066-.355-.054-.355-.125 0-.07.328-.058.356-.125.031-.066-.211-.292-.16-.343.05-.051.273.191.34.164.066-.028.054-.356.128-.356.07 0 .059.328.125.356.067.027.29-.215.34-.164.05.05-.187.277-.16.343.027.067.355.055.355.125s-.328.06-.355.125c-.027.067.21.293.16.344s-.273-.191-.34-.164c-.066.027-.054.356-.125.356zm0 0" fill="#f06292"/><path d="m1.156 5.418c-.05 0-.043-.246-.093-.27-.051-.02-.22.16-.254.125-.04-.039.14-.207.12-.257-.023-.051-.269-.04-.269-.094 0-.055.246-.047.27-.098.02-.047-.16-.215-.121-.254.035-.039.203.14.253.121.051-.02.043-.265.094-.265.055 0 .047.246.098.265.047.02.215-.16.254-.12.039.038-.14.206-.121.253.02.051.265.043.265.098s-.246.043-.265.094c-.02.05.16.218.12.257-.038.036-.206-.144-.253-.125-.05.024-.043.27-.098.27zm0 0" fill="#673ab7" fill-opacity=".98"/><path d="m7.938 1.45a6.27 6.27 0 0 0 -6.286 6.284c0 .04.004.079.004.121a6.268 6.268 0 0 1 6.282-6.164 6.273 6.273 0 0 1 6.285 6.164v-.12a6.27 6.27 0 0 0 -6.286-6.286zm0 0" fill="#fff" fill-opacity=".392"/><path d="m13.89 2.605c-.05 0-.042-.246-.093-.265-.05-.024-.219.16-.254.12-.04-.038.14-.206.121-.257-.023-.047-.27-.039-.27-.094 0-.054.247-.046.27-.093.02-.051-.16-.22-.121-.258.035-.04.203.144.254.12.05-.019.043-.265.094-.265.054 0 .046.246.097.266.047.023.215-.16.254-.121.04.039-.14.207-.12.258.019.046.265.039.265.093 0 .055-.246.047-.266.094-.02.05.16.219.121.258s-.207-.145-.254-.121c-.05.02-.043.265-.097.265zm0 0" fill="#03a9f4" fill-opacity=".98"/><path d="m14.223 12.695c-.07 0-.059-.328-.125-.355-.067-.031-.293.21-.344.16-.05-.05.191-.273.164-.34-.027-.066-.355-.055-.355-.129 0-.07.328-.058.355-.125.027-.066-.215-.289-.164-.34.05-.05.277.188.344.16.066-.027.054-.355.125-.355.07 0 .058.328.125.356.066.027.293-.211.343-.16.051.05-.191.273-.164.34.028.066.356.054.356.124 0 .074-.328.063-.356.13-.027.066.215.288.164.339-.05.05-.277-.191-.343-.16-.067.027-.055.355-.125.355zm0 0" fill="#ef5350" fill-opacity=".98"/><path d="m13.672 10.316c-.66.305-1.145.442-1.766.395-.719.18-.066.992-.66.992-.734 0-.82.934-1.418.692-1.312-.266-1.812.539-1.91 1.62h.02a6.266 6.266 0 0 0 5.734-3.699zm0 0" fill="#fff" fill-opacity=".314"/><path d="m7.938 14.016a6.27 6.27 0 0 1 -6.286-6.282c0-.043.004-.082.004-.125a6.268 6.268 0 0 0 6.282 6.164 6.273 6.273 0 0 0 6.285-6.164v.125a6.27 6.27 0 0 1 -6.286 6.282zm0 0" fill-opacity=".235"/><path d="m12.734 13.688c-.054 0-.046-.247-.093-.27-.051-.02-.22.16-.258.121-.04-.035.144-.203.12-.254-.019-.05-.265-.043-.265-.094 0-.054.246-.046.266-.097.023-.047-.16-.215-.121-.254.039-.04.207.14.258.12.046-.019.039-.265.093-.265.055 0 .047.246.094.266.05.02.219-.16.258-.121s-.145.207-.121.254c.02.05.265.043.265.097 0 .051-.246.043-.265.094-.024.05.16.219.12.254-.038.04-.206-.14-.257-.121-.047.023-.039.27-.094.27zm0 0" fill="#ffa726" fill-opacity=".98"/><path d="m7.938 1.402a6.318 6.318 0 0 0 -6.333 6.332 6.318 6.318 0 0 0 6.332 6.329 6.318 6.318 0 0 0 6.333-6.329 6.318 6.318 0 0 0 -6.332-6.332zm0 .094a6.223 6.223 0 0 1 6.238 6.238 6.222 6.222 0 0 1 -6.239 6.235 6.222 6.222 0 0 1 -6.237-6.235 6.223 6.223 0 0 1 6.239-6.238zm0 0" fill="#212121"/><path d="m1.652 13.023c-.07 0-.058-.328-.125-.355-.066-.027-.289.215-.34.164-.05-.05.188-.277.16-.344-.027-.066-.355-.054-.355-.125 0-.07.328-.058.356-.125.027-.066-.211-.293-.16-.343.05-.051.273.19.34.164.066-.028.054-.356.124-.356.075 0 .063.328.13.356.066.027.288-.215.34-.164.05.05-.188.277-.161.343.027.067.355.055.355.125s-.328.059-.355.125c-.027.067.21.293.16.344-.05.05-.273-.191-.34-.164-.066.027-.054.355-.129.355zm0 0" fill="#5c6bc0"/></svg>