<svg xmlns="http://www.w3.org/2000/svg" width="16pt" height="16pt" viewBox="0 0 16 16"><defs><radialGradient id="a" gradientUnits="userSpaceOnUse" cx="450.909" cy="189.579" fx="450.909" fy="189.579" r="21.167" gradientTransform="matrix(0 -.03907 -.07032 0 22.262 31.798)"><stop offset="0" stop-opacity=".314"/><stop offset=".222" stop-opacity=".275"/><stop offset="1" stop-opacity="0"/></radialGradient><radialGradient id="b" gradientUnits="userSpaceOnUse" cx="450.909" cy="189.579" fx="450.909" fy="189.579" r="21.167" gradientTransform="matrix(0 .03907 .07032 0 -6.385 -3.764)"><stop offset="0" stop-opacity=".314"/><stop offset=".222" stop-opacity=".275"/><stop offset="1" stop-opacity="0"/></radialGradient><radialGradient id="c" gradientUnits="userSpaceOnUse" cx="450.909" cy="189.579" fx="450.909" fy="189.579" r="21.167" gradientTransform="matrix(0 -.03907 .07032 0 -6.385 31.798)"><stop offset="0" stop-opacity=".314"/><stop offset=".222" stop-opacity=".275"/><stop offset="1" stop-opacity="0"/></radialGradient><radialGradient id="d" gradientUnits="userSpaceOnUse" cx="450.909" cy="189.579" fx="450.909" fy="189.579" r="21.167" gradientTransform="matrix(0 .03907 -.07032 0 22.262 -3.764)"><stop offset="0" stop-opacity=".314"/><stop offset=".222" stop-opacity=".275"/><stop offset="1" stop-opacity="0"/></radialGradient><linearGradient id="e" gradientUnits="userSpaceOnUse" x1="255.323" y1="233.5" x2="255.323" y2="254.667" gradientTransform="matrix(.00668 0 0 .03125 6.233 6.72)"><stop offset="0" stop-opacity=".275"/><stop offset="1" stop-opacity="0"/></linearGradient><linearGradient id="f" gradientUnits="userSpaceOnUse" x1="254" y1="-168.667" x2="254" y2="233.5" gradientTransform="matrix(.03125 0 0 .03125 0 6.72)"><stop offset="0" stop-color="#e0e0e0"/><stop offset="1" stop-color="#bdbdbd"/></linearGradient><linearGradient id="g" gradientUnits="userSpaceOnUse" x1="254" y1="117.083" x2="254" y2="-52.25" gradientTransform="matrix(3.77953 0 0 3.77953 0 812.598)"><stop offset="0" stop-color="#f5f5f5"/><stop offset="1" stop-color="#e0e0e0"/></linearGradient><linearGradient id="h" gradientUnits="userSpaceOnUse" x1="359.833" y1="233.5" x2="359.833" y2="32.417" gradientTransform="matrix(.03125 0 0 .03125 -3.308 6.766)"><stop offset="0" stop-color="#5c6bc0"/><stop offset=".481" stop-color="#7986cb"/><stop offset=".563" stop-color="#9fa8da"/><stop offset=".85" stop-color="#7986cb"/><stop offset=".955" stop-color="#9fa8da"/><stop offset="1" stop-color="#7986cb"/></linearGradient></defs><path d="M9.098 14.016h1.32v-.66h-1.32zm0 0" fill="url(#a)"/><path d="M6.781 14.016H5.457v.664h1.324zm0 0" fill="url(#b)"/><path d="M6.781 14.016H5.457v-.66h1.324zm0 0" fill="url(#c)"/><path d="M9.098 14.016h1.32v.664h-1.32zm0 0" fill="url(#d)"/><path d="M6.781 13.852h2.317v.828H6.78zm0 0" fill="url(#e)"/><path d="M7.938 1.45a6.27 6.27 0 0 0-6.286 6.284 6.27 6.27 0 0 0 6.285 6.282 6.27 6.27 0 0 0 6.286-6.282A6.27 6.27 0 0 0 7.937 1.45zm0 4.96c.734 0 1.324.59 1.324 1.324 0 .73-.59 1.32-1.325 1.32a1.322 1.322 0 1 1 0-2.644zm0 0" fill="url(#f)"/><path d="M7.938 14.016a6.27 6.27 0 0 1-6.286-6.282v-.062a6.273 6.273 0 0 0 6.285 6.223 6.27 6.27 0 0 0 6.286-6.223v.062a6.27 6.27 0 0 1-6.286 6.282zm0 0" fill-opacity=".196"/><path d="M7.938 1.45a6.27 6.27 0 0 0-6.286 6.284v.059A6.273 6.273 0 0 1 7.937 1.57a6.27 6.27 0 0 1 6.286 6.223v-.059A6.27 6.27 0 0 0 7.937 1.45zm0 0" fill="#fff" fill-opacity=".588"/><path d="M3.797 3.434a5.92 5.92 0 0 0-.91 1.199A6.01 6.01 0 0 0 2.3 6.02l1.34.359a4.531 4.531 0 0 1 1.136-1.965zm1.23 1.226a4.171 4.171 0 0 0-1.043 1.813l2.848.761c.059-.18.152-.343.281-.484zM9.223 7.97a1.34 1.34 0 0 1-.277.484l2.09 2.09a4.18 4.18 0 0 0 1.038-1.813zm3.195.855a4.567 4.567 0 0 1-1.137 1.969l.98.977a5.998 5.998 0 0 0 1.492-2.586zm0 0" fill="#fff" fill-opacity=".588"/><path d="M7.938 1.402a6.318 6.318 0 0 0-6.333 6.332 6.318 6.318 0 0 0 6.332 6.329 6.318 6.318 0 0 0 6.333-6.329 6.318 6.318 0 0 0-6.332-6.332zm0 .094a6.223 6.223 0 0 1 6.238 6.238 6.222 6.222 0 0 1-6.239 6.235A6.222 6.222 0 0 1 1.7 7.734a6.223 6.223 0 0 1 6.239-6.238zm0 0" fill="#212121"/><path d="M959.908 615.06c-177.148 0-319.812 142.663-319.812 320.284 0 177.148 142.664 319.812 319.812 319.812 177.149 0 320.285-142.664 320.285-319.812 0-177.621-143.136-320.285-320.285-320.285zm0 160.142c88.81 0 160.143 71.331 160.143 160.142 0 88.338-71.332 159.67-160.143 159.67-88.338 0-160.142-71.332-160.142-159.67 0-88.81 71.804-160.142 160.142-160.142zm0 0" transform="rotate(.882) scale(.00827)" fill="url(#g)" stroke-width="11.339" stroke-linecap="round" stroke="#333"/><path d="M7.61 7.781a.66.66 0 0 0-.665.66v1.985h-.992a.659.659 0 0 0-.5 1.09l1.984 2.316a.66.66 0 0 0 1.004 0l1.985-2.316a.66.66 0 0 0-.504-1.09H8.93V8.44a.657.657 0 0 0-.66-.66zm0 0" fill="url(#h)"/><path d="M7.61 7.781a.66.66 0 0 0-.665.66v.125c0-.367.297-.664.664-.664h.66a.66.66 0 0 1 .66.664v-.125a.657.657 0 0 0-.66-.66zm-1.657 2.645a.663.663 0 0 0-.66.726.66.66 0 0 1 .66-.601h.992v-.125zm2.977 0v.125h.992a.66.66 0 0 1 .66.601.663.663 0 0 0-.66-.726zm0 0" fill="#fff" fill-opacity=".392"/><path d="M5.297 10.996a.646.646 0 0 0 .156.52l1.984 2.316a.66.66 0 0 0 1.004 0l1.985-2.316a.643.643 0 0 0 .152-.52.647.647 0 0 1-.152.328L8.44 13.641a.66.66 0 0 1-1.004 0l-1.984-2.317a.654.654 0 0 1-.156-.328zm0 0" fill-opacity=".235"/><path d="M7.617 7.734a.708.708 0 0 0-.71.707v1.938H5.96c-.602 0-.93.71-.535 1.168l1.984 2.316a.71.71 0 0 0 1.074 0l1.985-2.316a.71.71 0 0 0-.54-1.168h-.945V8.44a.707.707 0 0 0-.707-.707zm0 .094h.66c.34 0 .614.27.614.613v1.985c0 .027.023.047.046.047h.993c.53 0 .812.613.468 1.015l-1.984 2.313a.61.61 0 0 1-.934 0l-1.984-2.313a.613.613 0 0 1 .465-1.015h.992c.027 0 .047-.02.047-.047V8.44a.61.61 0 0 1 .617-.613zm0 0" fill="#212121"/></svg>