<svg height="16pt" viewBox="0 0 16 16" width="16pt" xmlns="http://www.w3.org/2000/svg" xmlns:xlink="http://www.w3.org/1999/xlink"><linearGradient id="a" gradientUnits="userSpaceOnUse" x1="7.9375" x2="7.9375" y1="14.016875" y2="14.67834375"><stop offset="0" stop-opacity=".275"/><stop offset="1" stop-opacity="0"/></linearGradient><linearGradient id="b"><stop offset="0" stop-opacity=".314"/><stop offset=".222" stop-opacity=".275"/><stop offset="1" stop-opacity="0"/></linearGradient><radialGradient id="c" cx="450.909" cy="189.579" gradientTransform="matrix(0 -.03907 -.07032 0 24.494 31.798)" gradientUnits="userSpaceOnUse" r="21.167" xlink:href="#b"/><radialGradient id="d" cx="450.909" cy="189.579" gradientTransform="matrix(0 .03907 .07032 0 -1.92 -3.764)" gradientUnits="userSpaceOnUse" r="21.167" xlink:href="#b"/><radialGradient id="e" cx="450.909" cy="189.579" gradientTransform="matrix(0 -.03907 .07032 0 -1.92 31.798)" gradientUnits="userSpaceOnUse" r="21.167" xlink:href="#b"/><radialGradient id="f" cx="450.909" cy="189.579" gradientTransform="matrix(0 .03907 -.07032 0 24.494 -3.764)" gradientUnits="userSpaceOnUse" r="21.167" xlink:href="#b"/><linearGradient id="g" gradientUnits="userSpaceOnUse" x1="254" x2="254" y1="233.5" y2="-168.667"><stop offset="0" stop-color="#e0e0e0"/><stop offset="1" stop-color="#bdbdbd"/></linearGradient><linearGradient id="h" gradientTransform="matrix(.00826902 .0001273 -.0001273 .00826902 0 0)" gradientUnits="userSpaceOnUse" x1="960" x2="960" y1="1695.118" y2="175.118"><stop offset="0" stop-color="#78909c"/><stop offset="1" stop-color="#90a4ae"/></linearGradient><path d="m11.246 13.918h.082v.785h-.082zm0 0" fill="url(#a)"/><path d="m11.328 14.016h1.324v-.66h-1.324zm0 0" fill="url(#c)"/><path d="m11.246 14.016h-1.324v.664h1.324zm0 0" fill="url(#d)"/><path d="m11.246 14.016h-1.324v-.66h1.324zm0 0" fill="url(#e)"/><path d="m11.328 14.016h1.324v.664h-1.324zm0 0" fill="url(#f)"/><path d="m42.371 32.476 132.237-137.611 179.983-37.122 58.12 174.733-58.12 174.609-179.983-37.122zm0 0" fill="url(#g)" stroke="#000" stroke-width=".265" transform="matrix(.03125 0 0 .03125 0 6.72)"/><path d="m11.191 1.477a.555.555 0 0 0 -.16.011l-5.171 1.024a.67.67 0 0 0 -.55.664.664.664 0 0 0 -.852.145l-3.478 3.967a.681.681 0 0 0 0 .887l3.477 3.969c.211.25.57.308.852.14 0 .121.027.238.086.344.101.172.27.289.464.324l5.172 1.024a.672.672 0 0 0 .77-.442l1.699-4.991a.672.672 0 0 0 -.3-.809.718.718 0 0 0 .25-.246.685.685 0 0 0 .05-.566l-1.7-4.992a.674.674 0 0 0 -.609-.453zm-1.336 1.613-2.3 3.98h-4.595l2.508-2.863a.698.698 0 0 0 .172-.457.667.667 0 0 0 .48.078zm1.145.664 1.227 3.601c.054.16.164.293.308.38a.683.683 0 0 0 -.308.374l-1.227 3.602-2.297-3.977zm-8.039 4.64h4.594l2.3 3.981-3.734-.738a.68.68 0 0 0 -.484.078.675.675 0 0 0 -.168-.457zm0 0" fill="url(#h)"/><path d="m11.191 1.477a.555.555 0 0 0 -.16.011l-5.171 1.024a.67.67 0 0 0 -.55.664.664.664 0 0 0 -.852.145l-3.478 3.967a.68.68 0 0 0 -.156.555.706.706 0 0 1 .156-.332l3.477-3.969a.664.664 0 0 1 .852-.145.675.675 0 0 1 .55-.668l5.172-1.023a.672.672 0 0 1 .77.445l1.699 4.994a.539.539 0 0 1 .031.113.702.702 0 0 0 -.031-.336l-1.7-4.992a.674.674 0 0 0 -.609-.453zm-1.336 1.835-.144.028-2.156 3.73h-4.399l-.195.223h4.594zm-1.09 4.532-.062.11 2.297 3.979 1.227-3.602a.691.691 0 0 1 .308-.379.64.64 0 0 1 -.144-.11.691.691 0 0 0 -.164.266l-1.227 3.603zm4.579 0a.64.64 0 0 1 -.145.11.68.68 0 0 1 .332.476.675.675 0 0 0 -.187-.586zm-10.383.77 2.508 2.866c.11.125.172.29.168.457a.682.682 0 0 1 .484-.082l3.734.739-.144-.25-3.59-.707a.68.68 0 0 0 -.484.078.675.675 0 0 0 -.168-.457l-2.313-2.645zm0 0" fill="#fff" fill-opacity=".392"/><path d="m9.855 2.832-3.734.738a.667.667 0 0 1 -.48-.078.706.706 0 0 1 -.172.457l-2.509 2.864h.227l2.28-2.606a.698.698 0 0 0 .173-.457.667.667 0 0 0 .48.078l3.563-.703zm1.145.66-2.297 3.98.074.13 2.223-3.848 1.227 3.601a.66.66 0 0 0 .148.247.725.725 0 0 1 .16-.13.683.683 0 0 1 -.308-.374zm2.527 3.528a.732.732 0 0 1 -.078.207.686.686 0 0 1 -.25.246.645.645 0 0 1 .16.132c.036-.039.063-.078.09-.117a.68.68 0 0 0 .078-.468zm-12.699.585a.673.673 0 0 0 .152.57l3.477 3.97c.211.25.57.308.852.14 0 .121.027.238.086.344.101.172.27.289.464.324l5.172 1.024a.672.672 0 0 0 .77-.442l1.699-4.992a.685.685 0 0 0 .027-.355.713.713 0 0 1 -.027.097l-1.7 4.992a.675.675 0 0 1 -.769.442l-5.171-1.024a.682.682 0 0 1 -.464-.328.676.676 0 0 1 -.086-.34.67.67 0 0 1 -.852-.14l-3.478-3.969a.731.731 0 0 1 -.152-.313zm2.133.532.227.258h4.367l2.129 3.687.171.031-2.3-3.976zm0 0" fill-opacity=".314"/><path d="m11.191 1.477a.555.555 0 0 0 -.16.011l-5.171 1.024a.67.67 0 0 0 -.55.664.664.664 0 0 0 -.852.145l-3.478 3.967a.681.681 0 0 0 0 .887l3.477 3.969c.211.25.57.308.852.14 0 .121.027.238.086.344.101.172.27.289.464.324l5.172 1.024a.672.672 0 0 0 .77-.442l1.699-4.991a.672.672 0 0 0 -.3-.809.718.718 0 0 0 .25-.246.685.685 0 0 0 .05-.566l-1.7-4.992a.674.674 0 0 0 -.609-.453zm-1.336 1.613-2.3 3.98h-4.595l2.508-2.863a.698.698 0 0 0 .172-.457.667.667 0 0 0 .48.078zm1.145.664 1.227 3.601c.054.16.164.293.308.38a.683.683 0 0 0 -.308.374l-1.227 3.602-2.297-3.977zm-8.039 4.64h4.594l2.3 3.981-3.734-.738a.68.68 0 0 0 -.484.078.675.675 0 0 0 -.168-.457zm0 0" fill="none" stroke="#212121" stroke-linecap="round" stroke-linejoin="round" stroke-width=".093774"/><g fill-opacity=".235"><path d="m11.473 1.55-3.536 6.185h-7.12c0 .16.058.317.163.442l3.477 3.969c.211.25.57.308.852.14 0 .121.027.238.086.344.101.172.27.289.464.324l5.172 1.024a.672.672 0 0 0 .77-.442l1.699-4.993a.672.672 0 0 0 -.3-.809.718.718 0 0 0 .25-.246.685.685 0 0 0 .05-.566l-1.7-4.992a.683.683 0 0 0 -.327-.38zm-.473 2.205 1.227 3.601c.054.16.164.293.308.38a.683.683 0 0 0 -.308.374l-1.227 3.601-2.297-3.977zm-8.039 4.64h4.594l2.3 3.981-3.734-.738a.68.68 0 0 0 -.484.078.675.675 0 0 0 -.168-.457zm0 0"/><path d="m11.473 1.55-3.536 6.185 3.504 6.196a.687.687 0 0 0 .36-.395l1.699-4.993a.672.672 0 0 0 -.3-.809.718.718 0 0 0 .25-.246.685.685 0 0 0 .05-.566l-1.7-4.992a.683.683 0 0 0 -.327-.38zm-.473 2.205 1.227 3.601c.054.16.164.293.308.38a.683.683 0 0 0 -.308.374l-1.227 3.601-2.297-3.977zm0 0"/></g></svg>