<?xml version="1.0" encoding="UTF-8"?>
<svg xmlns="http://www.w3.org/2000/svg" xmlns:xlink="http://www.w3.org/1999/xlink" width="16pt" height="16pt" viewBox="0 0 16 16" version="1.1">
<defs>
<linearGradient id="linear0" gradientUnits="userSpaceOnUse" x1="254" y1="233.5" x2="254" y2="254.666672" gradientTransform="matrix(0.031253,0,0,0.031253,-0.00000190753,6.719393)">
<stop offset="0" style="stop-color:rgb(0%,0%,0%);stop-opacity:0.27451;"/>
<stop offset="1" style="stop-color:rgb(0%,0%,0%);stop-opacity:0;"/>
</linearGradient>
<radialGradient id="radial0" gradientUnits="userSpaceOnUse" cx="450.908936" cy="189.579361" fx="450.908936" fy="189.579361" r="21.166656" gradientTransform="matrix(0.0000000870852,-0.0390662,-0.0703192,-0.0000000507693,23.25386,31.797666)">
<stop offset="0" style="stop-color:rgb(0%,0%,0%);stop-opacity:0.313725;"/>
<stop offset="0.222222" style="stop-color:rgb(0%,0%,0%);stop-opacity:0.27451;"/>
<stop offset="1" style="stop-color:rgb(0%,0%,0%);stop-opacity:0;"/>
</radialGradient>
<radialGradient id="radial1" gradientUnits="userSpaceOnUse" cx="450.908936" cy="189.579361" fx="450.908936" fy="189.579361" r="21.166656" gradientTransform="matrix(-0.0000000870852,0.0390662,0.0703192,0.0000000507693,-7.377343,-3.763739)">
<stop offset="0" style="stop-color:rgb(0%,0%,0%);stop-opacity:0.313725;"/>
<stop offset="0.222222" style="stop-color:rgb(0%,0%,0%);stop-opacity:0.27451;"/>
<stop offset="1" style="stop-color:rgb(0%,0%,0%);stop-opacity:0;"/>
</radialGradient>
<radialGradient id="radial2" gradientUnits="userSpaceOnUse" cx="450.908936" cy="189.579361" fx="450.908936" fy="189.579361" r="21.166656" gradientTransform="matrix(-0.0000000870852,-0.0390662,0.0703192,-0.0000000507693,-7.377343,31.797666)">
<stop offset="0" style="stop-color:rgb(0%,0%,0%);stop-opacity:0.313725;"/>
<stop offset="0.222222" style="stop-color:rgb(0%,0%,0%);stop-opacity:0.27451;"/>
<stop offset="1" style="stop-color:rgb(0%,0%,0%);stop-opacity:0;"/>
</radialGradient>
<radialGradient id="radial3" gradientUnits="userSpaceOnUse" cx="450.908936" cy="189.579361" fx="450.908936" fy="189.579361" r="21.166656" gradientTransform="matrix(0.0000000870852,0.0390662,-0.0703192,0.0000000507693,23.253859,-3.76374)">
<stop offset="0" style="stop-color:rgb(0%,0%,0%);stop-opacity:0.313725;"/>
<stop offset="0.222222" style="stop-color:rgb(0%,0%,0%);stop-opacity:0.27451;"/>
<stop offset="1" style="stop-color:rgb(0%,0%,0%);stop-opacity:0;"/>
</radialGradient>
<linearGradient id="linear1" gradientUnits="userSpaceOnUse" x1="254" y1="233.5" x2="254" y2="-168.666656" gradientTransform="matrix(0.031253,0,0,0.031253,0,6.719391)">
<stop offset="0" style="stop-color:rgb(69.019608%,74.509804%,77.254902%);stop-opacity:1;"/>
<stop offset="1" style="stop-color:rgb(81.176471%,84.705882%,86.27451%);stop-opacity:1;"/>
</linearGradient>
<linearGradient id="linear2" gradientUnits="userSpaceOnUse" x1="960" y1="975.118103" x2="960" y2="535.118103" gradientTransform="matrix(0.264583,0,0,0.264583,-0.00000333333,-204.416428)">
<stop offset="0" style="stop-color:rgb(92.54902%,25.098039%,47.843137%);stop-opacity:1;"/>
<stop offset="1" style="stop-color:rgb(94.117647%,38.431373%,57.254902%);stop-opacity:1;"/>
</linearGradient>
</defs>
<g id="surface1">
<path style=" stroke:none;fill-rule:nonzero;fill:url(#linear0);" d="M 5.789062 14.015625 L 10.089844 14.015625 L 10.089844 14.679688 L 5.789062 14.679688 Z M 5.789062 14.015625 "/>
<path style=" stroke:none;fill-rule:nonzero;fill:url(#radial0);" d="M 10.089844 14.015625 L 11.410156 14.015625 L 11.410156 13.355469 L 10.089844 13.355469 Z M 10.089844 14.015625 "/>
<path style=" stroke:none;fill-rule:nonzero;fill:url(#radial1);" d="M 5.789062 14.015625 L 4.464844 14.015625 L 4.464844 14.679688 L 5.789062 14.679688 Z M 5.789062 14.015625 "/>
<path style=" stroke:none;fill-rule:nonzero;fill:url(#radial2);" d="M 5.789062 14.015625 L 4.464844 14.015625 L 4.464844 13.355469 L 5.789062 13.355469 Z M 5.789062 14.015625 "/>
<path style=" stroke:none;fill-rule:nonzero;fill:url(#radial3);" d="M 10.089844 14.015625 L 11.410156 14.015625 L 11.410156 14.679688 L 10.089844 14.679688 Z M 10.089844 14.015625 "/>
<path style=" stroke:none;fill-rule:nonzero;fill:url(#linear1);" d="M 5.292969 1.777344 C 3.308594 7.402344 6.945312 8.0625 7.609375 8.726562 L 7.441406 12.695312 C 7.441406 13.023438 7.277344 13.355469 6.945312 13.355469 L 5.457031 13.355469 C 5.273438 13.355469 5.125 13.496094 5.125 13.671875 L 5.125 13.699219 C 5.125 13.875 5.273438 14.015625 5.457031 14.015625 L 10.417969 14.015625 C 10.601562 14.015625 10.75 13.875 10.75 13.699219 L 10.75 13.671875 C 10.75 13.496094 10.601562 13.355469 10.417969 13.355469 L 8.929688 13.355469 C 8.601562 13.355469 8.433594 13.023438 8.433594 12.695312 L 8.269531 8.726562 C 8.929688 8.0625 12.570312 7.402344 10.585938 1.777344 Z M 5.292969 1.777344 "/>
<path style="fill-rule:nonzero;fill:url(#linear2);stroke-width:3;stroke-linecap:square;stroke-linejoin:round;stroke:rgb(12.941177%,12.941177%,12.941177%);stroke-opacity:1;stroke-miterlimit:4;" d="M 158.734842 -62.889526 C 158.734842 0.604411 211.604793 42.975365 243.476749 53.59935 C 248.726248 48.349851 259.350233 48.349851 264.599732 53.59935 C 296.3467 42.975365 349.216651 0.604411 349.216651 -62.889526 Z M 158.734842 -62.889526 " transform="matrix(0.031253,0,0,0.031253,0,6.719392)"/>
<path style=" stroke:none;fill-rule:nonzero;fill:rgb(100%,100%,100%);fill-opacity:0.392157;" d="M 5.292969 1.777344 C 4.867188 2.980469 4.699219 3.957031 4.707031 4.753906 C 4.710938 3.972656 4.882812 3.023438 5.292969 1.863281 L 10.585938 1.863281 C 10.996094 3.023438 11.164062 3.972656 11.171875 4.753906 C 11.175781 3.957031 11.007812 2.980469 10.585938 1.777344 Z M 7.605469 8.804688 L 7.441406 12.695312 C 7.441406 13.023438 7.277344 13.355469 6.945312 13.355469 L 5.457031 13.355469 C 5.273438 13.355469 5.125 13.496094 5.125 13.671875 L 5.125 13.699219 C 5.125 13.710938 5.128906 13.71875 5.128906 13.726562 C 5.140625 13.566406 5.285156 13.4375 5.457031 13.4375 L 6.945312 13.4375 C 7.277344 13.4375 7.441406 13.105469 7.441406 12.777344 L 7.609375 8.808594 C 7.605469 8.804688 7.605469 8.804688 7.605469 8.804688 Z M 8.273438 8.804688 C 8.269531 8.804688 8.269531 8.804688 8.269531 8.808594 L 8.433594 12.777344 C 8.433594 13.105469 8.601562 13.4375 8.929688 13.4375 L 10.417969 13.4375 C 10.59375 13.4375 10.734375 13.566406 10.75 13.726562 C 10.75 13.71875 10.75 13.710938 10.75 13.699219 L 10.75 13.671875 C 10.75 13.496094 10.601562 13.355469 10.417969 13.355469 L 8.929688 13.355469 C 8.601562 13.355469 8.433594 13.023438 8.433594 12.695312 Z M 8.273438 8.804688 "/>
<path style=" stroke:none;fill-rule:nonzero;fill:rgb(0%,0%,0%);fill-opacity:0.235294;" d="M 4.707031 4.683594 C 4.691406 7.671875 7.074219 8.199219 7.605469 8.722656 L 7.609375 8.664062 C 7.085938 8.144531 4.722656 7.621094 4.707031 4.683594 Z M 11.171875 4.683594 C 11.152344 7.621094 8.789062 8.144531 8.269531 8.664062 L 8.273438 8.722656 C 8.800781 8.199219 11.183594 7.671875 11.171875 4.683594 Z M 5.128906 13.65625 C 5.125 13.660156 5.125 13.664062 5.125 13.671875 L 5.125 13.699219 C 5.125 13.875 5.273438 14.015625 5.457031 14.015625 L 10.417969 14.015625 C 10.601562 14.015625 10.75 13.875 10.75 13.699219 L 10.75 13.671875 C 10.75 13.664062 10.75 13.660156 10.75 13.65625 C 10.742188 13.824219 10.597656 13.957031 10.417969 13.957031 L 5.457031 13.957031 C 5.28125 13.957031 5.136719 13.824219 5.128906 13.65625 Z M 5.128906 13.65625 "/>
<path style=" stroke:none;fill-rule:nonzero;fill:rgb(12.941177%,12.941177%,12.941177%);fill-opacity:1;" d="M 5.292969 1.730469 C 5.273438 1.730469 5.253906 1.746094 5.246094 1.761719 C 4.253906 4.582031 4.667969 6.175781 5.421875 7.140625 C 5.796875 7.625 6.257812 7.945312 6.664062 8.191406 C 7.058594 8.429688 7.402344 8.59375 7.558594 8.746094 L 7.394531 12.691406 C 7.394531 12.851562 7.355469 13.007812 7.277344 13.121094 C 7.203125 13.238281 7.097656 13.308594 6.945312 13.308594 L 5.457031 13.308594 C 5.25 13.308594 5.078125 13.46875 5.078125 13.671875 L 5.078125 13.699219 C 5.078125 13.902344 5.25 14.0625 5.457031 14.0625 L 10.417969 14.0625 C 10.625 14.0625 10.796875 13.902344 10.796875 13.699219 L 10.796875 13.671875 C 10.796875 13.46875 10.625 13.308594 10.417969 13.308594 L 8.929688 13.308594 C 8.78125 13.308594 8.671875 13.238281 8.597656 13.121094 C 8.519531 13.007812 8.480469 12.851562 8.480469 12.695312 L 8.316406 8.746094 C 8.476562 8.59375 8.820312 8.429688 9.214844 8.191406 C 9.617188 7.945312 10.078125 7.625 10.457031 7.140625 C 11.210938 6.175781 11.625 4.582031 10.628906 1.761719 C 10.621094 1.746094 10.605469 1.730469 10.585938 1.730469 Z M 5.324219 1.824219 L 10.550781 1.824219 C 11.527344 4.609375 11.113281 6.148438 10.382812 7.082031 C 10.015625 7.550781 9.566406 7.871094 9.164062 8.109375 C 8.765625 8.351562 8.414062 8.515625 8.234375 8.691406 C 8.226562 8.699219 8.222656 8.714844 8.222656 8.726562 L 8.386719 12.695312 C 8.386719 12.867188 8.429688 13.039062 8.519531 13.175781 C 8.609375 13.308594 8.75 13.402344 8.929688 13.402344 L 10.417969 13.402344 C 10.578125 13.402344 10.703125 13.523438 10.703125 13.671875 L 10.703125 13.699219 C 10.703125 13.851562 10.578125 13.96875 10.417969 13.96875 L 5.457031 13.96875 C 5.296875 13.96875 5.171875 13.851562 5.171875 13.699219 L 5.171875 13.671875 C 5.171875 13.523438 5.296875 13.402344 5.457031 13.402344 L 6.945312 13.402344 C 7.128906 13.402344 7.269531 13.308594 7.355469 13.175781 C 7.445312 13.039062 7.488281 12.867188 7.488281 12.695312 L 7.65625 8.726562 C 7.65625 8.714844 7.648438 8.699219 7.640625 8.691406 C 7.460938 8.515625 7.113281 8.351562 6.710938 8.109375 C 6.3125 7.871094 5.863281 7.550781 5.496094 7.082031 C 4.761719 6.148438 4.351562 4.609375 5.324219 1.824219 Z M 5.324219 1.824219 "/>
</g>
</svg>
