<svg height="16" viewBox="0 0 16 16" width="16" xmlns="http://www.w3.org/2000/svg" xmlns:xlink="http://www.w3.org/1999/xlink"><linearGradient id="a" gradientUnits="userSpaceOnUse" x1="7.93826" x2="7.93826" y1="14.0169685" y2="14.67849050002"><stop offset="0" stop-opacity=".27451"/><stop offset="1" stop-opacity="0"/></linearGradient><linearGradient id="b"><stop offset="0" stop-opacity=".313726"/><stop offset=".222222" stop-opacity=".27451"/><stop offset="1" stop-opacity="0"/></linearGradient><radialGradient id="c" cx="450.908936" cy="189.579361" gradientTransform="matrix(.00000009 -.0390662 -.0703192 -.00000005 24.411521 31.797666)" gradientUnits="userSpaceOnUse" r="21.166656" xlink:href="#b"/><radialGradient id="d" cx="450.908936" cy="189.579361" gradientTransform="matrix(-.00000009 .0390662 .0703192 .00000005 -8.535004 -3.763739)" gradientUnits="userSpaceOnUse" r="21.166656" xlink:href="#b"/><radialGradient id="e" cx="450.908936" cy="189.579361" gradientTransform="matrix(-.00000009 -.0390662 .0703192 -.00000005 -8.535004 31.797666)" gradientUnits="userSpaceOnUse" r="21.166656" xlink:href="#b"/><radialGradient id="f" cx="450.908936" cy="189.579361" gradientTransform="matrix(.00000009 .0390662 -.0703192 .00000005 24.41152 -3.76374)" gradientUnits="userSpaceOnUse" r="21.166656" xlink:href="#b"/><linearGradient id="g"><stop offset="0" stop-color="#bdbdbd"/><stop offset="1" stop-color="#e0e0e0"/></linearGradient><linearGradient id="h" gradientTransform="matrix(.0376748 0 0 .108706 -2.927007 16.820674)" gradientUnits="userSpaceOnUse" x1="306.916656" x2="305.954559" xlink:href="#g" y1="-25.791676" y2="-141.414581"/><linearGradient id="i" gradientUnits="userSpaceOnUse" x1="7.93826243764" x2="7.93826243764" xlink:href="#g" y1="10.70935806334" y2="2.10957456337"/><path d="m4.628906 14.015625h6.617188v.664063h-6.617188zm0 0" fill="url(#a)"/><path d="m11.246094 14.015625h1.324218v-.660156h-1.324218zm0 0" fill="url(#c)"/><path d="m4.628906 14.015625h-1.320312v.664063h1.320312zm0 0" fill="url(#d)"/><path d="m4.628906 14.015625h-1.320312v-.660156h1.320312zm0 0" fill="url(#e)"/><path d="m11.246094 14.015625h1.324218v.664063h-1.324218zm0 0" fill="url(#f)"/><path d="m3.96875 1.449219h7.9375c.367188 0 .664062.296875.664062.660156v11.246094c0 .367187-.296874.660156-.664062.660156h-7.9375c-.363281 0-.660156-.292969-.660156-.660156v-11.246094c0-.363281.296875-.660156.660156-.660156zm0 0" fill="url(#h)"/><path d="m3.96875 14.015625c-.367188 0-.660156-.292969-.660156-.660156v-.082031c0 .367187.292968.660156.660156.660156h7.9375c.367188 0 .664062-.292969.664062-.660156v.082031c0 .367187-.296874.660156-.664062.660156zm0 0" fill-opacity=".196078"/><path d="m3.96875 1.492188c-.367188 0-.660156.296874-.660156.664062v.082031c0-.367187.292968-.664062.660156-.664062h7.9375c.367188 0 .664062.296875.664062.664062v-.082031c0-.367188-.296874-.664062-.664062-.664062zm0 0" fill="#fff" fill-opacity=".862745"/><path d="m3.96875 1.402344c-.390625 0-.707031.316406-.707031.707031v11.246094c0 .390625.316406.707031.707031.707031h7.9375c.394531 0 .710938-.316406.710938-.707031v-11.246094c0-.390625-.316407-.707031-.710938-.707031zm0 .09375h7.9375c.34375 0 .617188.273437.617188.613281v11.246094c0 .339843-.273438.613281-.617188.613281h-7.9375c-.339844 0-.613281-.273438-.613281-.613281v-11.246094c0-.339844.273437-.613281.613281-.613281zm0 0" fill="#212121"/><g fill="#bdbdbd" fill-opacity=".392157"><path d="m4.300781 2.109375c.183594 0 .328125.148437.328125.332031 0 .179688-.144531.328125-.328125.328125-.183593 0-.332031-.148437-.332031-.328125 0-.183594.148438-.332031.332031-.332031zm0 0"/><path d="m11.578125 2.109375c.179687 0 .328125.148437.328125.332031 0 .179688-.148438.328125-.328125.328125-.183594 0-.332031-.148437-.332031-.328125 0-.183594.148437-.332031.332031-.332031zm0 0"/><path d="m11.578125 12.695312c.179687 0 .328125.148438.328125.328126 0 .183593-.148438.332031-.328125.332031-.183594 0-.332031-.148438-.332031-.332031 0-.179688.148437-.328126.332031-.328126zm0 0"/><path d="m4.300781 12.695312c.183594 0 .328125.148438.328125.328126 0 .183593-.144531.332031-.328125.332031-.183593 0-.332031-.148438-.332031-.332031 0-.179688.148438-.328126.332031-.328126zm0 0"/></g><path d="m4.960938 11.039062h5.953124c.183594 0 .332032.148438.332032.332032v.332031c0 .179687-.148438.328125-.332032.328125h-5.953124c-.183594 0-.332032-.148438-.332032-.328125v-.332031c0-.183594.148438-.332032.332032-.332032zm0 0" fill-opacity=".235294"/><path d="m4.960938 11.039062c-.183594 0-.332032.148438-.332032.332032v.164062c0-.183594.148438-.328125.332032-.328125h5.953124c.183594 0 .332032.144531.332032.328125v-.164062c0-.183594-.148438-.332032-.332032-.332032zm0 0" fill-opacity=".235294"/><path d="m4.960938 12.199219c-.183594 0-.332032-.148438-.332032-.332031v-.164063c0 .183594.148438.328125.332032.328125h5.953124c.183594 0 .332032-.144531.332032-.328125v.164063c0 .183593-.148438.332031-.332032.332031zm0 0" fill="#fff" fill-opacity=".470588"/><path d="m158.734842 138.21627h190.481809c5.874439 0 10.623986 4.749546 10.623986 10.623985v10.623985c0 5.749451-4.749547 10.498998-10.623986 10.498998h-190.481809c-5.874439 0-10.623986-4.749547-10.623986-10.498998v-10.623985c0-5.874439 4.749547-10.623985 10.623986-10.623985zm0 0" fill="none" stroke="#212121" stroke-linecap="round" stroke-width="3" transform="matrix(.031253 0 0 .031253 0 6.719392)"/><path d="m4.300781 2.152344c-.183593 0-.332031.144531-.332031.328125 0 .015625 0 .027343.003906.042969.019532-.164063.15625-.289063.328125-.289063.167969 0 .308594.125.328125.289063 0-.015626 0-.027344 0-.042969 0-.183594-.144531-.328125-.328125-.328125zm7.277344 0c-.183594 0-.332031.144531-.332031.328125 0 .015625 0 .027343.003906.042969.019531-.164063.15625-.289063.328125-.289063.167969 0 .304687.125.328125.289063 0-.015626 0-.027344 0-.042969 0-.183594-.144531-.328125-.328125-.328125zm-7.277344 10.582031c-.183593 0-.332031.148437-.332031.332031 0 .011719 0 .027344.003906.039063.019532-.160157.15625-.289063.328125-.289063.167969 0 .308594.128906.328125.289063 0-.011719 0-.027344 0-.039063 0-.183594-.144531-.332031-.328125-.332031zm7.277344 0c-.183594 0-.332031.148437-.332031.332031 0 .011719 0 .027344.003906.039063.019531-.160157.15625-.289063.328125-.289063.167969 0 .304687.128906.328125.289063 0-.011719 0-.027344 0-.039063 0-.183594-.144531-.332031-.328125-.332031zm0 0" fill="#fff" fill-opacity=".392157"/><path d="m4.300781 13.480469c-.183593 0-.332031-.148438-.332031-.332031 0-.015626 0-.027344.003906-.042969.019532.164062.15625.292969.328125.292969.167969 0 .308594-.128907.328125-.292969v.042969c0 .183593-.144531.332031-.328125.332031zm7.277344 0c-.183594 0-.332031-.148438-.332031-.332031 0-.015626 0-.027344.003906-.042969.019531.164062.15625.292969.328125.292969.167969 0 .304687-.128907.328125-.292969v.042969c0 .183593-.144531.332031-.328125.332031zm-7.277344-10.585938c-.183593 0-.332031-.148437-.332031-.332031 0-.011719 0-.027344.003906-.039062.019532.164062.15625.289062.328125.289062.167969 0 .308594-.125.328125-.289062v.039062c0 .183594-.144531.332031-.328125.332031zm7.277344 0c-.183594 0-.332031-.148437-.332031-.332031 0-.011719 0-.027344.003906-.039062.019531.164062.15625.289062.328125.289062.167969 0 .304687-.125.328125-.289062v.039062c0 .183594-.144531.332031-.328125.332031zm0 0" fill-opacity=".235294"/><path d="m137.611859-147.506445c5.874439 0 10.498997 4.749546 10.498997 10.623985 0 5.749451-4.624558 10.498998-10.498997 10.498998s-10.623986-4.749547-10.623986-10.498998c0-5.874439 4.749547-10.623985 10.623986-10.623985zm0 0" fill="none" stroke="#212121" stroke-linecap="round" stroke-width="2.999999" transform="matrix(.031253 0 0 .031253 0 6.719392)"/><path d="m370.464622-147.506445c5.749451 0 10.498998 4.749546 10.498998 10.623985 0 5.749451-4.749547 10.498998-10.498998 10.498998-5.874439 0-10.623985-4.749547-10.623985-10.498998 0-5.874439 4.749546-10.623985 10.623985-10.623985zm0 0" fill="none" stroke="#212121" stroke-linecap="round" stroke-width="3" transform="matrix(.031253 0 0 .031253 0 6.719392)"/><path d="m370.464622 191.211209c5.749451 0 10.498998 4.749546 10.498998 10.498997 0 5.874439-4.749547 10.623986-10.498998 10.623986-5.874439 0-10.623985-4.749547-10.623985-10.623986 0-5.749451 4.749546-10.498997 10.623985-10.498997zm0 0" fill="none" stroke="#212121" stroke-linecap="round" stroke-width="3" transform="matrix(.031253 0 0 .031253 0 6.719392)"/><path d="m137.611859 191.211209c5.874439 0 10.498997 4.749546 10.498997 10.498997 0 5.874439-4.624558 10.623986-10.498997 10.623986s-10.623986-4.749547-10.623986-10.623986c0-5.749451 4.749547-10.498997 10.623986-10.498997zm0 0" fill="none" stroke="#212121" stroke-linecap="round" stroke-width="3" transform="matrix(.031253 0 0 .031253 0 6.719392)"/><path d="m7.9375 3.433594c1.644531 0 2.976562 1.332031 2.976562 2.976562 0 1.644532-1.332031 2.976563-2.976562 2.976563s-2.976562-1.332031-2.976562-2.976563c0-1.644531 1.332031-2.976562 2.976562-2.976562zm0 0" fill="url(#i)"/><path d="m4.960938 6.53125v.085938c0 1.648437 1.328124 2.976562 2.976562 2.976562s2.976562-1.328125 2.976562-2.976562c0-.027344 0-.058594 0-.085938-.042968 1.613281-1.355468 2.894531-2.976562 2.894531s-2.929688-1.28125-2.976562-2.894531zm0 0" fill-opacity=".235294"/><path d="m4.960938 6.523438c0-.027344 0-.054688 0-.082032 0-1.648437 1.328124-2.976562 2.976562-2.976562s2.976562 1.328125 2.976562 2.976562v.082032c-.042968-1.609376-1.355468-2.894532-2.976562-2.894532s-2.929688 1.285156-2.976562 2.894532zm0 0" fill="#fff" fill-opacity=".588235"/><path d="m253.975747-105.135492c52.619975 0 95.240904 42.62093 95.240904 95.240905s-42.620929 95.240905-95.240904 95.240905c-52.619976 0-95.240905-42.62093-95.240905-95.240905s42.620929-95.240905 95.240905-95.240905zm0 0" fill="none" stroke="#212121" stroke-linecap="round" stroke-width="3" transform="matrix(.031253 0 0 .031253 0 6.719392)"/></svg>