<svg xmlns="http://www.w3.org/2000/svg" width="16pt" height="16pt" viewBox="0 0 16 16"><defs><linearGradient id="a" gradientUnits="userSpaceOnUse" x1="254" y1="233.5" x2="254" y2="254.667" gradientTransform="matrix(.05157 0 0 .03125 -5.325 6.72)"><stop offset="0" stop-opacity=".275"/><stop offset="1" stop-opacity="0"/></linearGradient><radialGradient id="b" gradientUnits="userSpaceOnUse" cx="450.909" cy="189.579" fx="450.909" fy="189.579" r="21.167" gradientTransform="matrix(0 -.03907 -.07032 0 26.396 31.798)"><stop offset="0" stop-opacity=".314"/><stop offset=".222" stop-opacity=".275"/><stop offset="1" stop-opacity="0"/></radialGradient><radialGradient id="c" gradientUnits="userSpaceOnUse" cx="450.909" cy="189.579" fx="450.909" fy="189.579" r="21.167" gradientTransform="matrix(0 .03907 .07032 0 -10.85 -3.764)"><stop offset="0" stop-opacity=".314"/><stop offset=".222" stop-opacity=".275"/><stop offset="1" stop-opacity="0"/></radialGradient><radialGradient id="d" gradientUnits="userSpaceOnUse" cx="450.909" cy="189.579" fx="450.909" fy="189.579" r="21.167" gradientTransform="matrix(0 -.03907 .07032 0 -10.85 31.798)"><stop offset="0" stop-opacity=".314"/><stop offset=".222" stop-opacity=".275"/><stop offset="1" stop-opacity="0"/></radialGradient><radialGradient id="e" gradientUnits="userSpaceOnUse" cx="450.909" cy="189.579" fx="450.909" fy="189.579" r="21.167" gradientTransform="matrix(0 .03907 -.07032 0 26.396 -3.764)"><stop offset="0" stop-opacity=".314"/><stop offset=".222" stop-opacity=".275"/><stop offset="1" stop-opacity="0"/></radialGradient><linearGradient id="f" gradientUnits="userSpaceOnUse" x1="179.917" y1="-84" x2="179.917" y2="-168.667"><stop offset="0" stop-color="#424242"/><stop offset="1" stop-color="#616161"/></linearGradient><linearGradient id="g" gradientUnits="userSpaceOnUse" x1="179.917" y1="-84" x2="179.917" y2="-168.667" gradientTransform="translate(55.5)"><stop offset="0" stop-color="#bdbdbd"/><stop offset="1" stop-color="#e0e0e0"/></linearGradient><linearGradient id="h" gradientUnits="userSpaceOnUse" x1="285.75" y1="-84" x2="285.75" y2="233.5" gradientTransform="matrix(.03125 0 0 -.03125 0 11.392)"><stop offset="0" stop-color="#bdbdbd"/><stop offset="1" stop-color="#e0e0e0"/></linearGradient><linearGradient id="i" gradientUnits="userSpaceOnUse" x1="285.75" y1="-84" x2="285.75" y2="233.5" gradientTransform="matrix(.03125 0 0 -.03125 0 11.392)"><stop offset="0" stop-color="#424242"/><stop offset="1" stop-color="#616161"/></linearGradient><linearGradient id="j" gradientUnits="userSpaceOnUse" x1="116.417" y1="191.167" x2="116.417" y2="159.417" gradientTransform="translate(-10.583 -10.583)"><stop offset="0" stop-color="#66bb6a"/><stop offset="1" stop-color="#81c784"/></linearGradient><linearGradient id="k" gradientUnits="userSpaceOnUse" x1="116.417" y1="191.167" x2="116.417" y2="159.417" gradientTransform="translate(52.917 -10.583)"><stop offset="0" stop-color="#66bb6a"/><stop offset="1" stop-color="#81c784"/></linearGradient><linearGradient id="l" gradientUnits="userSpaceOnUse" x1="116.417" y1="191.167" x2="116.417" y2="159.417" gradientTransform="translate(285.75 -10.583)"><stop offset="0" stop-color="#ef5350"/><stop offset="1" stop-color="#e57373"/></linearGradient><linearGradient id="m" gradientUnits="userSpaceOnUse" x1="285.75" y1="-84" x2="280.458" y2="-168.667" gradientTransform="translate(23.75)"><stop offset="0" stop-color="#bdbdbd"/><stop offset="1" stop-color="#e0e0e0"/></linearGradient></defs><path d="M2.316 14.016H13.23v.664H2.316zm0 0" fill="url(#a)"/><path d="M13.23 14.016h1.325v-.66H13.23zm0 0" fill="url(#b)"/><path d="M2.316 14.016H.992v.664h1.324zm0 0" fill="url(#c)"/><path d="M2.316 14.016H.992v-.66h1.324zm0 0" fill="url(#d)"/><path d="M13.23 14.016h1.325v.664H13.23zm0 0" fill="url(#e)"/><path d="M108.365-168.63c0 15.999 4.874 27.373 12.373 34.622 7.5 7.375 16.374 10.75 24.123 14.249 7.624 3.5 13.999 7 18.748 13.249 4.75 6.124 8.25 15.748 8.25 33.121h15.998c0-19.748-4.25-33.246-11.499-42.87-7.25-9.5-16.623-14.25-24.872-17.999-8.125-3.75-15.124-6.75-19.499-11.124-4.5-4.374-7.624-10.249-7.624-23.247zm0 0" transform="matrix(.03125 0 0 .03125 0 6.72)" fill="url(#f)" stroke-width="3" stroke="#212121"/><path d="M163.86-168.63c0 15.999 4.874 27.373 12.373 34.622 7.5 7.375 16.374 10.75 24.123 14.249 7.624 3.5 14.124 7 18.748 13.249 4.75 6.124 8.374 15.748 8.374 33.121h15.999c0-19.748-4.375-33.246-11.624-42.87-7.124-9.5-16.624-14.25-24.873-17.999-8.124-3.75-15.123-6.75-19.498-11.124-4.5-4.374-7.624-10.249-7.624-23.247zm0 0" transform="matrix(.03125 0 0 .03125 0 6.72)" fill="url(#g)" stroke-width="3" stroke="#212121"/><path d="M1.984 14.016a.659.659 0 0 1-.64-.809l1.984-8.598a.66.66 0 0 1 .64-.511h7.938a.66.66 0 0 1 .645.511l1.984 8.598a.661.661 0 0 1-.644.809zm0 0" fill="url(#h)"/><path d="M1.922 10.707l-.578 2.5a.659.659 0 0 0 .64.809h11.907a.661.661 0 0 0 .644-.809l-.578-2.5c-.023 0-.043.004-.066.004H1.984c-.023 0-.043-.004-.062-.004zm0 0" fill="url(#i)"/><path d="M1.984 14.016a.659.659 0 0 1-.64-.809l.004-.016c.07.282.324.496.636.496h11.907a.663.663 0 0 0 .64-.496l.004.016a.661.661 0 0 1-.644.809zm0 0" fill-opacity=".235"/><path d="M1.348 13.523a.62.62 0 0 1-.004-.316l1.984-8.598a.66.66 0 0 1 .64-.511h7.938a.66.66 0 0 1 .645.511l1.984 8.598c.024.11.02.215-.008.316l-1.976-8.582a.664.664 0 0 0-.645-.511H3.97a.663.663 0 0 0-.64.511zm0 0" fill="#fff" fill-opacity=".392"/><path d="M1.984 14.016a.659.659 0 0 1-.64-.809l1.984-8.598a.66.66 0 0 1 .64-.511h7.938a.66.66 0 0 1 .645.511l1.984 8.598a.661.661 0 0 1-.644.809zm0 0" fill="none" stroke-width=".09375" stroke-linecap="round" stroke-linejoin="round" stroke="#212121"/><path d="M105.865 148.84c11.624 0 21.123 7.125 21.123 15.874s-9.5 15.873-21.123 15.873c-11.749 0-21.248-7.124-21.248-15.873 0-8.75 9.499-15.874 21.248-15.874zm0 0" transform="matrix(.03125 0 0 .03125 0 6.72)" fill="url(#j)" stroke-width="3" stroke-linecap="round" stroke-linejoin="round" stroke="#212121"/><path d="M169.359 148.84c11.624 0 21.123 7.125 21.123 15.874s-9.5 15.873-21.123 15.873c-11.75 0-21.248-7.124-21.248-15.873 0-8.75 9.499-15.874 21.248-15.874zm0 0" transform="matrix(.03125 0 0 .03125 0 6.72)" fill="url(#k)" stroke-width="3" stroke-linecap="round" stroke-linejoin="round" stroke="#212121"/><path d="M402.212 148.84c11.623 0 21.123 7.125 21.123 15.874s-9.5 15.873-21.123 15.873c-11.75 0-21.248-7.124-21.248-15.873 0-8.75 9.499-15.874 21.248-15.874zm0 0" transform="matrix(.03125 0 0 .03125 0 6.72)" fill="url(#l)" stroke-width="3" stroke-linecap="round" stroke-linejoin="round" stroke="#212121"/><path d="M7.277 11.371c.364 0 .66.223.66.496 0 .274-.296.496-.66.496-.367 0-.664-.222-.664-.496 0-.273.297-.496.664-.496zm0 0" fill="#ffa726" stroke-width=".09375" stroke-linecap="round" stroke-linejoin="round" stroke="#212121"/><path d="M232.728-168.63c0 13.25 1.75 23.498 5.5 31.498 3.749 7.999 9.873 13.748 16.748 16.623 13.748 5.75 28.747 2.375 42.62.125 13.874-2.375 26.248-3.625 33.372-.125 3.625 1.75 6.375 4.25 8.75 9.749 2.374 5.625 4.124 14.249 4.124 26.747h15.999c0-13.873-1.75-24.622-5.5-33.121-3.624-8.375-9.499-14.499-16.373-17.749-13.749-6.749-29.122-3.624-42.996-1.375-13.999 2.375-26.748 4-33.747 1-3.625-1.5-6.124-3.624-8.5-8.624-2.374-5-3.999-12.999-3.999-24.747zm0 0" transform="matrix(.03125 0 0 .03125 0 6.72)" fill="url(#m)" stroke-width="3" stroke="#000"/></svg>