<svg height="24" viewBox="0 0 24 24" width="24" xmlns="http://www.w3.org/2000/svg" xmlns:xlink="http://www.w3.org/1999/xlink"><linearGradient id="a" gradientTransform="matrix(.0031253 0 0 .0468795 11.113563 10.079089)" gradientUnits="userSpaceOnUse" x1="254" x2="254" y1="233.5" y2="254.666672"><stop offset="0" stop-opacity=".27451"/><stop offset="1" stop-opacity="0"/></linearGradient><linearGradient id="b"><stop offset="0" stop-opacity=".313726"/><stop offset=".222222" stop-opacity=".27451"/><stop offset="1" stop-opacity="0"/></linearGradient><radialGradient id="c" cx="450.908936" cy="189.579361" gradientTransform="matrix(.00000013 -.0585994 -.105479 -.00000008 32.15201 47.696499)" gradientUnits="userSpaceOnUse" r="21.166656" xlink:href="#b"/><radialGradient id="d" cx="450.908936" cy="189.579361" gradientTransform="matrix(-.00000013 .0585994 .105479 .00000008 -8.33723 -5.645609)" gradientUnits="userSpaceOnUse" r="21.166656" xlink:href="#b"/><radialGradient id="e" cx="450.908936" cy="189.579361" gradientTransform="matrix(-.00000013 -.0585994 .105479 -.00000008 -8.33723 47.696499)" gradientUnits="userSpaceOnUse" r="21.166656" xlink:href="#b"/><radialGradient id="f" cx="450.908936" cy="189.579361" gradientTransform="matrix(.00000013 .0585994 -.105479 .00000008 32.152009 -5.64561)" gradientUnits="userSpaceOnUse" r="21.166656" xlink:href="#b"/><linearGradient id="g" gradientUnits="userSpaceOnUse" x1="11.90736" x2="11.90736" y1="21.02539814717" y2="2.17207757661"><stop offset="0" stop-color="#26c6da"/><stop offset="1" stop-color="#4dd0e1"/></linearGradient><linearGradient id="h" gradientUnits="userSpaceOnUse" x1="12.4035" x2="11.90736" y1="21.02539814717" y2="2.17207757661"><stop offset="0" stop-color="#e0e0e0"/><stop offset="1" stop-color="#eee"/></linearGradient><path d="m11.410156 20.953125h.992188v1.101563h-.992188zm0 0" fill="url(#a)"/><path d="m12.402344 21.027344h1.984375v-.996094h-1.984375zm0 0" fill="url(#c)"/><path d="m11.410156 21.027344h-1.984375v.992187h1.984375zm0 0" fill="url(#d)"/><path d="m11.410156 21.027344h-1.984375v-.996094h1.984375zm0 0" fill="url(#e)"/><path d="m12.402344 21.027344h1.984375v.992187h-1.984375zm0 0" fill="url(#f)"/><path d="m10.914062 2.175781c-.457031 0-.855468.316407-.960937.761719l-.371094 1.585938c-.359375.117187-.703125.261718-1.035156.429687l-1.382813-.859375c-.390624-.242188-.894531-.183594-1.21875.140625l-1.402343 1.40625c-.324219.320313-.382813.828125-.144531 1.214844l.859374 1.386719c-.164062.332031-.308593.675781-.425781 1.03125l-1.585937.375c-.449219.105468-.761719.503906-.761719.960937v1.984375c0 .457031.3125.855469.761719.960938l1.589844.375c.113281.355468.257812.699218.421874 1.027343l-.859374 1.386719c-.238282.390625-.179688.894531.144531 1.21875l1.402343 1.402344c.324219.324218.828126.382812 1.21875.144531l1.386719-.859375c.332031.164062.671875.304688 1.027344.421875l.375 1.59375c.105469.445313.503906.761719.960937.761719h1.984376c.460937 0 .859374-.316406.960937-.761719l.375-1.59375c.355469-.117187.699219-.257813 1.027344-.421875l1.390625.859375c.390625.238281.894531.179687 1.21875-.144531l1.402344-1.402344c.324218-.324219.382812-.828125.140624-1.21875l-.859374-1.386719c.167968-.328125.308593-.671875.425781-1.027343l1.589843-.375c.445313-.105469.761719-.503907.761719-.960938v-1.984375c0-.457031-.316406-.855469-.761719-.960937l-1.589843-.375c-.113281-.355469-.257813-.699219-.425781-1.03125l.859374-1.386719c.242188-.386719.183594-.894531-.140624-1.214844l-1.402344-1.40625c-.324219-.324219-.828125-.382813-1.21875-.140625l-1.386719.859375c-.328125-.167969-.675781-.3125-1.03125-.429687l-.375-1.585938c-.101563-.445312-.5-.761719-.960937-.761719zm0 0" fill="url(#g)"/><path d="m10.914062 2.175781c-.457031 0-.855468.316407-.960937.761719l-.371094 1.585938c-.359375.117187-.703125.261718-1.035156.429687l-1.382813-.859375c-.390624-.242188-.894531-.183594-1.21875.140625l-1.402343 1.40625c-.238281.234375-.332031.566406-.273438.878906.035157-.1875.128907-.367187.273438-.511719l1.402343-1.40625c.324219-.324218.828126-.382812 1.21875-.140624l1.382813.859374c.332031-.167968.675781-.3125 1.035156-.429687l.371094-1.585937c.105469-.445313.503906-.761719.960937-.761719h1.984376c.460937 0 .859374.316406.960937.761719l.375 1.585937c.355469.117187.703125.261719 1.03125.429687l1.386719-.859374c.390625-.242188.894531-.183594 1.21875.140624l1.402344 1.40625c.144531.144532.234374.324219.273437.511719.058594-.3125-.039063-.644531-.273437-.878906l-1.402344-1.40625c-.324219-.324219-.828125-.382813-1.21875-.140625l-1.386719.859375c-.328125-.167969-.675781-.3125-1.03125-.429687l-.375-1.585938c-.101563-.445312-.5-.761719-.960937-.761719zm-5.753906 6.273438c-.125.265625-.234375.542969-.328125.824219l-1.585937.375c-.449219.105468-.761719.503906-.761719.960937v.367187c0-.457031.3125-.855468.761719-.960937l1.585937-.375c.117188-.355469.261719-.699219.425781-1.03125zm13.496094 0-.101562.160156c.167968.332031.3125.675781.425781 1.03125l1.589843.375c.445313.105469.761719.503906.761719.960937v-.367187c0-.457031-.316406-.855469-.761719-.960937l-1.589843-.375c-.089844-.28125-.199219-.558594-.324219-.824219zm0 6.667969c-.035156.070312-.066406.140624-.101562.207031l.859374 1.386719c.066407.105468.109376.222656.132813.335937.042969-.234375 0-.484375-.132813-.703125zm-13.496094 0-.761718 1.226562c-.132813.21875-.171876.46875-.128907.703125.023438-.113281.066407-.230469.128907-.335937l.859374-1.386719c-.03125-.066407-.066406-.136719-.097656-.207031zm0 0" fill="#fff" fill-opacity=".392157"/><path d="m4.269531 6.148438c-.042969.238281-.003906.492187.128907.707031l.757812 1.222656c.03125-.070313.066406-.140625.101562-.210937l-.859374-1.386719c-.0625-.101563-.105469-.214844-.128907-.332031zm15.273438 0c-.019531.117187-.0625.230468-.128907.332031l-.859374 1.386719c.035156.070312.070312.140624.105468.210937l.753906-1.222656c.136719-.214844.175782-.46875.128907-.707031zm-17.058594 6.070312v.375c0 .457031.3125.855469.761719.960938l1.589844.375c.089843.28125.199218.550781.320312.816406l.101562-.164063c-.164062-.328125-.308593-.671875-.421874-1.027343l-1.589844-.375c-.449219-.105469-.761719-.503907-.761719-.960938zm18.847656 0c0 .457031-.316406.855469-.761719.960938l-1.589843.375c-.117188.355468-.257813.699218-.425781 1.027343l.101562.164063c.125-.265625.230469-.535156.324219-.816406l1.589843-.375c.445313-.105469.761719-.503907.761719-.960938zm-17.0625 4.457031c-.058593.316407.035157.652344.273438.886719l1.402343 1.402344c.324219.324218.828126.382812 1.21875.144531l1.386719-.859375c.332031.164062.671875.304688 1.027344.421875l.375 1.59375c.105469.445313.503906.761719.960937.761719h1.984376c.460937 0 .859374-.316406.960937-.761719l.375-1.59375c.355469-.117187.699219-.257813 1.027344-.421875l1.390625.859375c.390625.238281.894531.179687 1.21875-.144531l1.402344-1.402344c.238281-.234375.332031-.570312.269531-.886719-.035157.191407-.125.367188-.269531.511719l-1.402344 1.402344c-.324219.324218-.828125.382812-1.21875.144531l-1.390625-.863281c-.328125.167968-.671875.308594-1.027344.425781l-.375 1.589844c-.101563.449219-.5.761719-.960937.761719h-1.984376c-.457031 0-.855468-.3125-.960937-.761719l-.375-1.589844c-.355469-.117187-.695313-.257813-1.027344-.425781l-1.386719.863281c-.390624.238281-.894531.179687-1.21875-.144531l-1.402343-1.402344c-.144531-.144531-.234375-.320312-.273438-.511719zm0 0" fill-opacity=".235294"/><path d="m879.916018 175.416329c-36.846876 0-68.969795 25.509376-77.47292 61.411461l-29.918405 127.861813c-28.973612 9.447917-56.687503 21.100348-83.456601 34.642362l-111.485423-69.284725c-31.493057-19.525696-72.119101-14.801737-98.258338 11.3375l-113.060076 113.375006c-26.139237 25.824307-30.863196 66.765281-11.652431 97.943408l69.284726 111.800353c-13.227084 26.769099-24.879515 54.482989-34.327432 83.141671l-127.861813 30.233335c-36.217015 8.503126-61.411461 40.626044-61.411461 77.472921v159.98473c0 36.846877 25.194446 68.969796 61.411461 77.472921l128.176743 30.233335c9.132987 28.658682 20.785418 56.372573 34.012502 82.826741l-69.284726 111.800353c-19.210765 31.493057-14.486806 72.119101 11.652431 98.258338l113.060076 113.060076c26.139237 26.139237 66.765281 30.863196 98.258338 11.652431l111.800353-69.284726c26.769099 13.227084 54.168059 24.564585 82.826741 34.012502l30.233335 128.491673c8.503125 35.902085 40.626044 61.411462 77.47292 61.411462h159.984731c37.161808 0 69.284726-25.509377 77.472921-61.411462l30.233335-128.491673c28.658682-9.447917 56.372572-20.785418 82.82674-34.012502l112.115284 69.284726c31.493057 19.210765 72.119101 14.486806 98.258338-11.652431l113.060076-113.060076c26.139237-26.139237 30.863196-66.765281 11.3375-98.258338l-69.284725-111.800353c13.542014-26.454168 24.879515-54.168059 34.327432-82.826741l128.176743-30.233335c35.902085-8.503125 61.411461-40.626044 61.411461-77.472921v-159.98473c0-36.846877-25.509376-68.969795-61.411461-77.472921l-128.176743-30.233335c-9.132987-28.658682-20.785418-56.372572-34.327432-83.141671l69.284725-111.800353c19.525696-31.178127 14.801737-72.119101-11.3375-97.943408l-113.060076-113.375006c-26.139237-26.139237-66.765281-30.863196-98.258338-11.3375l-111.800353 69.284725c-26.454168-13.542014-54.482989-25.194445-83.141671-34.642362l-30.233335-127.861813c-8.188195-35.902085-40.311113-61.411461-77.472921-61.411461zm0 0" fill="none" stroke="#212121" stroke-linecap="round" stroke-linejoin="round" stroke-width="11.338583" transform="scale(.0124035)"/><path d="m11.90625 6.140625c-3.023438 0-5.457031 2.433594-5.457031 5.457031 0 3.023438 2.433593 5.457032 5.457031 5.457032 1.511719 0 2.878906-.605469 3.863281-1.59375l-1.402343-1.402344c-.628907.625-1.496094 1.011718-2.460938 1.011718-1.921875 0-3.472656-1.546874-3.472656-3.472656 0-1.921875 1.550781-3.472656 3.472656-3.472656.964844 0 1.832031.386719 2.460938 1.015625l1.402343-1.40625c-.984375-.984375-2.351562-1.59375-3.863281-1.59375zm0 0" fill="url(#h)"/><path d="m11.90625 6.140625c-3.023438 0-5.457031 2.433594-5.457031 5.457031 0 .0625 0 .125.003906.1875.097656-2.9375 2.492187-5.273437 5.453125-5.273437 1.417969 0 2.703125.535156 3.671875 1.414062l.191406-.191406c-.984375-.984375-2.351562-1.59375-3.863281-1.59375zm-3.46875 5.644531c0 .0625-.003906.125-.003906.1875 0 1.921875 1.550781 3.472656 3.472656 3.472656.964844 0 1.832031-.390624 2.460938-1.015624l1.210937 1.214843c.066406-.0625.128906-.121093.191406-.183593l-1.402343-1.402344c-.628907.625-1.496094 1.011718-2.460938 1.011718-1.859375 0-3.371094-1.449218-3.46875-3.285156zm0 0" fill="#fff" fill-opacity=".970968"/><path d="m15.515625 7.96875-1.148437 1.148438c-.628907-.625-1.496094-1.015626-2.460938-1.015626-1.921875 0-3.472656 1.550782-3.472656 3.472657 0 .085937.003906.167969.007812.25.128906-1.808594 1.625-3.226563 3.464844-3.226563.964844 0 1.832031.390625 2.460938 1.015625l1.402343-1.402343c-.082031-.085938-.167969-.164063-.253906-.242188zm-9.058594 3.855469c-.003906.082031-.007812.164062-.007812.246093 0 3.023438 2.433593 5.460938 5.457031 5.460938 1.511719 0 2.878906-.609375 3.863281-1.597656l-.253906-.253906c-.960937.84375-2.222656 1.355468-3.609375 1.355468-2.9375 0-5.320312-2.304687-5.449219-5.210937zm0 0" fill-opacity=".235294"/><path d="m959.908384 495.070859c-243.756263 0-439.958009 196.201747-439.958009 439.95801 0 243.756262 196.201746 439.958009 439.958009 439.958009 121.878131 0 232.103831-48.814239 311.466336-128.491674l-113.060076-113.060075c-50.703822 50.388892-120.618409 81.567018-198.40626 81.567018-154.945842 0-279.973279-124.712506-279.973279-279.973278 0-154.945842 125.027437-279.973279 279.973279-279.973279 77.787851 0 147.702438 31.178127 198.40626 81.881949l113.060076-113.375006c-79.362505-79.362504-189.588205-128.491674-311.466336-128.491674zm0 0" fill="none" stroke="#212121" stroke-linecap="round" stroke-linejoin="round" stroke-width="12.472441" transform="scale(.0124035)"/></svg>