<?xml version="1.0" encoding="UTF-8"?>
<svg xmlns="http://www.w3.org/2000/svg" xmlns:xlink="http://www.w3.org/1999/xlink" width="24px" height="24px" viewBox="0 0 24 24" version="1.1">
<defs>
<radialGradient id="radial0" gradientUnits="userSpaceOnUse" cx="450.908936" cy="189.579361" fx="450.908936" fy="189.579361" r="21.166656" gradientTransform="matrix(0.000000130628,-0.0585994,-0.105479,-0.0000000761539,33.392364,47.696497)">
<stop offset="0" style="stop-color:rgb(0%,0%,0%);stop-opacity:0.313726;"/>
<stop offset="0.222222" style="stop-color:rgb(0%,0%,0%);stop-opacity:0.27451;"/>
<stop offset="1" style="stop-color:rgb(0%,0%,0%);stop-opacity:0;"/>
</radialGradient>
<radialGradient id="radial1" gradientUnits="userSpaceOnUse" cx="450.908936" cy="189.579361" fx="450.908936" fy="189.579361" r="21.166656" gradientTransform="matrix(-0.000000130628,0.0585994,0.105479,0.0000000761539,-9.577589,-5.645612)">
<stop offset="0" style="stop-color:rgb(0%,0%,0%);stop-opacity:0.313726;"/>
<stop offset="0.222222" style="stop-color:rgb(0%,0%,0%);stop-opacity:0.27451;"/>
<stop offset="1" style="stop-color:rgb(0%,0%,0%);stop-opacity:0;"/>
</radialGradient>
<radialGradient id="radial2" gradientUnits="userSpaceOnUse" cx="450.908936" cy="189.579361" fx="450.908936" fy="189.579361" r="21.166656" gradientTransform="matrix(-0.000000130628,-0.0585994,0.105479,-0.0000000761539,-9.577589,47.696497)">
<stop offset="0" style="stop-color:rgb(0%,0%,0%);stop-opacity:0.313726;"/>
<stop offset="0.222222" style="stop-color:rgb(0%,0%,0%);stop-opacity:0.27451;"/>
<stop offset="1" style="stop-color:rgb(0%,0%,0%);stop-opacity:0;"/>
</radialGradient>
<radialGradient id="radial3" gradientUnits="userSpaceOnUse" cx="450.908936" cy="189.579361" fx="450.908936" fy="189.579361" r="21.166656" gradientTransform="matrix(0.000000130628,0.0585994,-0.105479,0.0000000761539,33.392362,-5.645612)">
<stop offset="0" style="stop-color:rgb(0%,0%,0%);stop-opacity:0.313726;"/>
<stop offset="0.222222" style="stop-color:rgb(0%,0%,0%);stop-opacity:0.27451;"/>
<stop offset="1" style="stop-color:rgb(0%,0%,0%);stop-opacity:0;"/>
</radialGradient>
<linearGradient id="linear0" gradientUnits="userSpaceOnUse" x1="255.323059" y1="233.5" x2="255.323044" y2="254.666656" gradientTransform="matrix(0.01002,0,0,0.0468795,9.34904,10.079088)">
<stop offset="0" style="stop-color:rgb(0%,0%,0%);stop-opacity:0.27451;"/>
<stop offset="1" style="stop-color:rgb(0%,0%,0%);stop-opacity:0;"/>
</linearGradient>
<linearGradient id="linear1" gradientUnits="userSpaceOnUse" x1="127" y1="233.5" x2="127" y2="-168.667007" gradientTransform="matrix(0.046879,0,0,0.046879,0.49625,10.107282)">
<stop offset="0" style="stop-color:rgb(100%,43.921569%,26.274511%);stop-opacity:1;"/>
<stop offset="1" style="stop-color:rgb(100%,54.11765%,39.607844%);stop-opacity:1;"/>
</linearGradient>
<linearGradient id="linear2" gradientUnits="userSpaceOnUse" x1="-275.166656" y1="-168.666672" x2="-275.166656" y2="233.5" gradientTransform="matrix(0.0468795,0,0,0.0468795,26.295481,10.079087)">
<stop offset="0" style="stop-color:rgb(70.19608%,61.56863%,85.882354%);stop-opacity:1;"/>
<stop offset="1" style="stop-color:rgb(49.411765%,34.117648%,76.078433%);stop-opacity:1;"/>
</linearGradient>
<linearGradient id="linear3" gradientUnits="userSpaceOnUse" x1="-1320" y1="175.118134" x2="-1320" y2="1695.118164" gradientTransform="matrix(0.0124035,0,0,0.0124035,26.295481,0.00000000000000141)">
<stop offset="0" style="stop-color:rgb(74.117649%,74.117649%,74.117649%);stop-opacity:1;"/>
<stop offset="1" style="stop-color:rgb(93.333334%,93.333334%,93.333334%);stop-opacity:1;"/>
</linearGradient>
<linearGradient id="linear4" gradientUnits="userSpaceOnUse" x1="-640" y1="1695.118164" x2="-640" y2="175.118134" gradientTransform="matrix(0.0124034,0,0,0.0124034,26.036008,-0.0000805181)">
<stop offset="0" style="stop-color:rgb(70.19608%,61.56863%,85.882354%);stop-opacity:1;"/>
<stop offset="1" style="stop-color:rgb(49.411765%,34.117648%,76.078433%);stop-opacity:1;"/>
</linearGradient>
<linearGradient id="linear5" gradientUnits="userSpaceOnUse" x1="-640" y1="1695.118164" x2="-640" y2="175.118134" gradientTransform="matrix(0.0124034,0,0,0.0124034,29.508998,-0.0000805181)">
<stop offset="0" style="stop-color:rgb(70.19608%,61.56863%,85.882354%);stop-opacity:1;"/>
<stop offset="1" style="stop-color:rgb(49.411765%,34.117648%,76.078433%);stop-opacity:1;"/>
</linearGradient>
</defs>
<g id="surface1">
<path style=" stroke:none;fill-rule:nonzero;fill:url(#radial0);" d="M 13.644531 21.027344 L 15.628906 21.027344 L 15.628906 20.03125 L 13.644531 20.03125 Z M 13.644531 21.027344 "/>
<path style=" stroke:none;fill-rule:nonzero;fill:url(#radial1);" d="M 10.171875 21.027344 L 8.1875 21.027344 L 8.1875 22.019531 L 10.171875 22.019531 Z M 10.171875 21.027344 "/>
<path style=" stroke:none;fill-rule:nonzero;fill:url(#radial2);" d="M 10.171875 21.027344 L 8.1875 21.027344 L 8.1875 20.03125 L 10.171875 20.03125 Z M 10.171875 21.027344 "/>
<path style=" stroke:none;fill-rule:nonzero;fill:url(#radial3);" d="M 13.644531 21.027344 L 15.628906 21.027344 L 15.628906 22.019531 L 13.644531 22.019531 Z M 13.644531 21.027344 "/>
<path style=" stroke:none;fill-rule:nonzero;fill:url(#linear0);" d="M 10.171875 20.777344 L 13.644531 20.777344 L 13.644531 22.019531 L 10.171875 22.019531 Z M 10.171875 20.777344 "/>
<path style=" stroke:none;fill-rule:nonzero;fill:url(#linear1);" d="M 10.914062 2.199219 C 8.414062 2.195312 6.011719 3.1875 4.242188 4.957031 C 2.476562 6.726562 1.484375 9.125 1.488281 11.628906 C 1.484375 14.128906 2.472656 16.53125 4.242188 18.300781 C 6.011719 20.066406 8.414062 21.058594 10.914062 21.054688 C 11.164062 21.054688 11.414062 21.042969 11.660156 21.023438 C 6.789062 20.648438 2.976562 16.597656 2.976562 11.628906 C 2.976562 6.65625 6.789062 2.605469 11.660156 2.230469 C 11.410156 2.210938 11.164062 2.199219 10.914062 2.199219 Z M 10.914062 2.199219 "/>
<path style=" stroke:none;fill-rule:nonzero;fill:url(#linear2);" d="M 12.898438 2.152344 C 7.675781 2.152344 3.453125 6.375 3.453125 11.597656 C 3.453125 16.824219 7.675781 21.042969 12.898438 21.042969 C 15.597656 21.042969 18.035156 19.917969 19.753906 18.109375 C 19.949219 17.902344 19.941406 17.578125 19.734375 17.382812 L 17.933594 15.671875 C 17.726562 15.476562 17.402344 15.484375 17.207031 15.691406 C 16.125 16.828125 14.601562 17.535156 12.898438 17.535156 C 9.601562 17.535156 6.964844 14.894531 6.964844 11.597656 C 6.964844 8.300781 9.601562 5.664062 12.898438 5.664062 C 14.601562 5.664062 16.125 6.371094 17.207031 7.507812 C 17.402344 7.710938 17.726562 7.722656 17.933594 7.527344 L 19.734375 5.816406 C 19.941406 5.621094 19.949219 5.292969 19.753906 5.089844 C 18.035156 3.277344 15.597656 2.152344 12.898438 2.152344 Z M 12.898438 7.113281 C 10.425781 7.113281 8.417969 9.125 8.417969 11.597656 C 8.417969 14.074219 10.425781 16.082031 12.898438 16.082031 C 14.179688 16.082031 15.335938 15.546875 16.152344 14.6875 C 16.347656 14.484375 16.339844 14.15625 16.132812 13.960938 L 15.054688 12.9375 C 14.847656 12.738281 14.523438 12.75 14.328125 12.953125 C 13.96875 13.332031 13.46875 13.566406 12.898438 13.566406 C 11.800781 13.566406 10.933594 12.695312 10.933594 11.597656 C 10.933594 10.5 11.800781 9.632812 12.898438 9.632812 C 13.46875 9.632812 13.96875 9.867188 14.328125 10.242188 C 14.523438 10.449219 14.847656 10.457031 15.054688 10.261719 L 16.132812 9.234375 C 16.339844 9.039062 16.347656 8.714844 16.152344 8.507812 C 15.335938 7.648438 14.179688 7.113281 12.898438 7.113281 Z M 12.898438 7.113281 "/>
<path style=" stroke:none;fill-rule:nonzero;fill:rgb(100%,100%,100%);fill-opacity:0.392157;" d="M 12.898438 2.152344 C 7.675781 2.152344 3.453125 6.375 3.453125 11.597656 C 3.453125 11.640625 3.453125 11.683594 3.457031 11.726562 C 3.53125 6.566406 7.722656 2.421875 12.898438 2.421875 C 15.597656 2.421875 18.035156 3.546875 19.753906 5.355469 C 19.816406 5.417969 19.855469 5.496094 19.875 5.574219 C 19.921875 5.410156 19.882812 5.222656 19.753906 5.089844 C 18.035156 3.277344 15.597656 2.152344 12.898438 2.152344 Z M 12.898438 7.113281 C 10.425781 7.113281 8.417969 9.125 8.417969 11.597656 C 8.417969 11.640625 8.417969 11.6875 8.417969 11.730469 C 8.488281 9.316406 10.46875 7.382812 12.898438 7.382812 C 14.179688 7.382812 15.335938 7.914062 16.152344 8.773438 C 16.214844 8.839844 16.253906 8.914062 16.277344 8.996094 C 16.320312 8.828125 16.28125 8.644531 16.152344 8.507812 C 15.335938 7.648438 14.179688 7.113281 12.898438 7.113281 Z M 6.964844 11.761719 C 6.964844 11.816406 6.964844 11.871094 6.964844 11.925781 C 6.964844 11.972656 6.964844 12.015625 6.964844 12.0625 C 6.964844 12.050781 6.964844 12.039062 6.964844 12.03125 C 7.050781 15.25 9.65625 17.800781 12.898438 17.800781 C 14.601562 17.800781 16.125 17.09375 17.207031 15.957031 C 17.402344 15.75 17.726562 15.742188 17.933594 15.9375 L 19.734375 17.648438 C 19.804688 17.714844 19.851562 17.800781 19.878906 17.886719 C 19.925781 17.710938 19.875 17.515625 19.734375 17.382812 L 17.933594 15.671875 C 17.726562 15.476562 17.402344 15.484375 17.207031 15.691406 C 16.125 16.828125 14.601562 17.535156 12.898438 17.535156 C 9.65625 17.535156 7.050781 14.984375 6.964844 11.761719 Z M 10.941406 11.761719 C 10.9375 11.816406 10.933594 11.871094 10.933594 11.925781 C 10.933594 11.972656 10.933594 12.015625 10.9375 12.0625 C 10.9375 12.050781 10.9375 12.039062 10.941406 12.03125 C 11.023438 13.046875 11.855469 13.832031 12.898438 13.832031 C 13.46875 13.832031 13.96875 13.597656 14.328125 13.222656 C 14.523438 13.015625 14.847656 13.007812 15.054688 13.203125 L 16.132812 14.226562 C 16.207031 14.296875 16.253906 14.378906 16.277344 14.46875 C 16.324219 14.292969 16.277344 14.097656 16.132812 13.960938 L 15.054688 12.9375 C 14.847656 12.738281 14.523438 12.75 14.328125 12.953125 C 13.96875 13.332031 13.46875 13.566406 12.898438 13.566406 C 11.855469 13.566406 11.023438 12.78125 10.941406 11.761719 Z M 10.941406 11.761719 "/>
<path style=" stroke:none;fill-rule:nonzero;fill:rgb(0%,0%,0%);fill-opacity:0.235294;" d="M 19.871094 5.289062 C 19.847656 5.371094 19.800781 5.445312 19.734375 5.507812 L 17.933594 7.21875 C 17.726562 7.414062 17.402344 7.40625 17.207031 7.199219 C 16.125 6.0625 14.601562 5.359375 12.898438 5.359375 C 9.601562 5.359375 6.964844 7.996094 6.964844 11.292969 C 6.964844 11.34375 6.964844 11.394531 6.964844 11.445312 C 7.046875 8.21875 9.652344 5.664062 12.898438 5.664062 C 14.601562 5.664062 16.125 6.371094 17.207031 7.507812 C 17.402344 7.710938 17.726562 7.722656 17.933594 7.527344 L 19.734375 5.816406 C 19.882812 5.675781 19.925781 5.46875 19.871094 5.289062 Z M 16.269531 8.710938 C 16.246094 8.789062 16.199219 8.867188 16.132812 8.929688 L 15.054688 9.957031 C 14.847656 10.152344 14.523438 10.144531 14.328125 9.9375 C 13.96875 9.5625 13.46875 9.328125 12.898438 9.328125 C 11.800781 9.328125 10.933594 10.195312 10.933594 11.292969 C 10.933594 11.34375 10.933594 11.394531 10.9375 11.445312 C 11.015625 10.421875 11.851562 9.632812 12.898438 9.632812 C 13.46875 9.632812 13.96875 9.867188 14.328125 10.242188 C 14.523438 10.449219 14.847656 10.457031 15.054688 10.261719 L 16.132812 9.234375 C 16.28125 9.097656 16.328125 8.890625 16.269531 8.710938 Z M 3.457031 11.445312 C 3.457031 11.496094 3.453125 11.546875 3.453125 11.597656 C 3.453125 16.824219 7.675781 21.042969 12.898438 21.042969 C 15.597656 21.042969 18.035156 19.917969 19.753906 18.109375 C 19.886719 17.96875 19.925781 17.773438 19.871094 17.601562 C 19.847656 17.675781 19.808594 17.746094 19.753906 17.804688 C 18.035156 19.613281 15.597656 20.738281 12.898438 20.738281 C 7.726562 20.738281 3.539062 16.597656 3.457031 11.445312 Z M 8.417969 11.445312 C 8.417969 11.496094 8.417969 11.546875 8.417969 11.597656 C 8.417969 14.074219 10.425781 16.082031 12.898438 16.082031 C 14.179688 16.082031 15.335938 15.546875 16.152344 14.6875 C 16.285156 14.550781 16.324219 14.355469 16.269531 14.183594 C 16.25 14.253906 16.210938 14.324219 16.152344 14.382812 C 15.335938 15.242188 14.179688 15.777344 12.898438 15.777344 C 10.476562 15.777344 8.5 13.851562 8.417969 11.445312 Z M 8.417969 11.445312 "/>
<path style="fill:none;stroke-width:3;stroke-linecap:round;stroke-linejoin:round;stroke:rgb(12.941177%,12.941177%,12.941177%);stroke-opacity:1;stroke-miterlimit:4;" d="M 275.140392 -169.087718 C 163.734364 -169.087718 73.659633 -79.012986 73.659633 32.393042 C 73.659633 143.882395 163.734364 233.873801 275.140392 233.873801 C 332.718227 233.873801 384.713262 209.876093 421.376427 171.296444 C 425.542696 166.880199 425.376045 159.964193 420.9598 155.797924 L 382.546802 119.301409 C 378.130557 115.13514 371.214551 115.301791 367.048282 119.718036 C 343.967153 143.96572 311.470256 159.047614 275.140392 159.047614 C 204.813775 159.047614 148.569146 102.719659 148.569146 32.393042 C 148.569146 -37.933576 204.813775 -94.178205 275.140392 -94.178205 C 311.470256 -94.178205 343.967153 -79.096311 367.048282 -54.848627 C 371.214551 -50.515707 378.130557 -50.265731 382.546802 -54.432 L 420.9598 -90.928515 C 425.376045 -95.094784 425.542696 -102.094115 421.376427 -106.427035 C 384.713262 -145.090009 332.718227 -169.087718 275.140392 -169.087718 Z M 275.140392 -63.26449 C 222.395429 -63.26449 179.566186 -20.351921 179.566186 32.393042 C 179.566186 85.22133 222.395429 128.050574 275.140392 128.050574 C 302.471115 128.050574 327.135427 116.634997 344.55043 98.303414 C 348.716699 93.970495 348.550048 86.971163 344.133804 82.804894 L 321.136 60.973646 C 316.719755 56.724052 309.803749 56.974028 305.63748 61.306947 C 297.971545 69.389509 287.305897 74.389031 275.140392 74.389031 C 251.725961 74.389031 233.227728 55.807473 233.227728 32.393042 C 233.227728 8.978611 251.725961 -9.519622 275.140392 -9.519622 C 287.305897 -9.519622 297.971545 -4.5201 305.63748 3.479136 C 309.803749 7.895381 316.719755 8.062032 321.136 3.895763 L 344.133804 -18.018811 C 348.550048 -22.18508 348.716699 -29.101086 344.55043 -33.517331 C 327.135427 -51.848913 302.471115 -63.26449 275.140392 -63.26449 Z M 275.140392 -63.26449 " transform="matrix(0.0468795,0,0,0.0468795,0,10.079087)"/>
<path style=" stroke:none;fill-rule:nonzero;fill:url(#linear3);" d="M 3.535156 10.359375 C 3.515625 10.523438 3.496094 10.6875 3.484375 10.855469 L 7.011719 10.855469 C 7.03125 10.6875 7.058594 10.519531 7.09375 10.359375 Z M 8.589844 10.359375 C 8.542969 10.519531 8.507812 10.6875 8.476562 10.855469 L 11.074219 10.855469 C 11.148438 10.671875 11.246094 10.507812 11.367188 10.359375 Z M 3.457031 11.351562 C 3.457031 11.433594 3.453125 11.515625 3.453125 11.597656 C 3.453125 11.683594 3.457031 11.765625 3.457031 11.847656 L 6.96875 11.847656 C 6.964844 11.765625 6.964844 11.683594 6.964844 11.597656 C 6.964844 11.515625 6.964844 11.433594 6.96875 11.351562 Z M 8.421875 11.351562 C 8.417969 11.433594 8.417969 11.515625 8.417969 11.597656 C 8.417969 11.683594 8.417969 11.765625 8.421875 11.847656 L 10.949219 11.847656 C 10.9375 11.765625 10.933594 11.683594 10.933594 11.597656 C 10.933594 11.515625 10.9375 11.433594 10.949219 11.351562 Z M 3.484375 12.34375 C 3.496094 12.507812 3.515625 12.675781 3.535156 12.839844 L 7.09375 12.839844 C 7.058594 12.675781 7.03125 12.511719 7.011719 12.34375 Z M 8.476562 12.34375 C 8.507812 12.511719 8.542969 12.675781 8.589844 12.839844 L 11.367188 12.839844 C 11.246094 12.691406 11.148438 12.523438 11.074219 12.34375 Z M 8.476562 12.34375 "/>
<path style=" stroke:none;fill-rule:nonzero;fill:rgb(0%,0%,0%);fill-opacity:0.235294;" d="M 3.535156 10.359375 C 3.53125 10.398438 3.523438 10.441406 3.519531 10.484375 L 7.066406 10.484375 C 7.074219 10.441406 7.082031 10.398438 7.09375 10.359375 Z M 8.589844 10.359375 C 8.578125 10.398438 8.566406 10.441406 8.554688 10.484375 L 11.273438 10.484375 C 11.304688 10.441406 11.332031 10.398438 11.367188 10.359375 Z M 3.457031 11.351562 C 3.457031 11.390625 3.457031 11.433594 3.457031 11.476562 L 6.964844 11.476562 C 6.964844 11.433594 6.96875 11.390625 6.96875 11.351562 Z M 8.421875 11.351562 C 8.421875 11.390625 8.417969 11.433594 8.417969 11.476562 L 10.9375 11.476562 C 10.941406 11.433594 10.945312 11.390625 10.949219 11.351562 Z M 3.484375 12.34375 C 3.488281 12.382812 3.488281 12.425781 3.492188 12.46875 L 7.027344 12.46875 C 7.019531 12.425781 7.015625 12.382812 7.011719 12.34375 Z M 8.476562 12.34375 C 8.484375 12.382812 8.492188 12.425781 8.5 12.46875 L 11.128906 12.46875 C 11.109375 12.425781 11.09375 12.386719 11.074219 12.34375 Z M 8.476562 12.34375 "/>
<path style=" stroke:none;fill-rule:nonzero;fill:rgb(100%,100%,100%);fill-opacity:0.392157;" d="M 3.484375 10.855469 C 3.480469 10.894531 3.476562 10.9375 3.476562 10.980469 L 6.996094 10.980469 C 7 10.9375 7.003906 10.894531 7.011719 10.855469 Z M 8.476562 10.855469 C 8.472656 10.894531 8.464844 10.9375 8.457031 10.980469 L 11.03125 10.980469 C 11.042969 10.9375 11.058594 10.894531 11.074219 10.855469 Z M 3.457031 11.847656 C 3.457031 11.886719 3.460938 11.929688 3.460938 11.972656 L 6.976562 11.972656 C 6.972656 11.929688 6.972656 11.886719 6.96875 11.847656 Z M 8.421875 11.847656 C 8.425781 11.886719 8.429688 11.929688 8.429688 11.972656 L 10.96875 11.972656 C 10.960938 11.929688 10.953125 11.886719 10.949219 11.847656 Z M 3.535156 12.839844 C 3.539062 12.878906 3.546875 12.921875 3.550781 12.964844 L 7.121094 12.964844 C 7.109375 12.921875 7.101562 12.878906 7.09375 12.839844 Z M 8.589844 12.839844 C 8.601562 12.878906 8.613281 12.921875 8.628906 12.964844 L 11.476562 12.964844 C 11.4375 12.921875 11.402344 12.882812 11.367188 12.839844 Z M 8.589844 12.839844 "/>
<path style="fill:none;stroke-width:2.12132;stroke-linecap:round;stroke-linejoin:round;stroke:rgb(12.941177%,12.941177%,12.941177%);stroke-opacity:1;stroke-miterlimit:4;" d="M 75.409465 5.978898 C 74.992839 9.478563 74.576212 12.978229 74.326236 16.56122 L 149.56905 16.56122 C 149.985677 12.978229 150.568955 9.395238 151.318883 5.978898 Z M 183.232502 5.978898 C 182.232598 9.395238 181.482669 12.978229 180.816066 16.56122 L 236.227441 16.56122 C 237.810624 12.644928 239.893758 9.145262 242.476845 5.978898 Z M 73.742958 27.143543 C 73.742958 28.893376 73.659633 30.643209 73.659633 32.393042 C 73.659633 34.2262 73.742958 35.976033 73.742958 37.725866 L 148.652471 37.725866 C 148.569146 35.976033 148.569146 34.2262 148.569146 32.393042 C 148.569146 30.643209 148.569146 28.893376 148.652471 27.143543 Z M 179.649511 27.143543 C 179.566186 28.893376 179.566186 30.643209 179.566186 32.393042 C 179.566186 34.2262 179.566186 35.976033 179.649511 37.725866 L 233.561029 37.725866 C 233.311053 35.976033 233.227728 34.2262 233.227728 32.393042 C 233.227728 30.643209 233.311053 28.893376 233.561029 27.143543 Z M 74.326236 48.308189 C 74.576212 51.807854 74.992839 55.390846 75.409465 58.890511 L 151.318883 58.890511 C 150.568955 55.390846 149.985677 51.89118 149.56905 48.308189 Z M 180.816066 48.308189 C 181.482669 51.89118 182.232598 55.390846 183.232502 58.890511 L 242.476845 58.890511 C 239.893758 55.724147 237.810624 52.141156 236.227441 48.308189 Z M 180.816066 48.308189 " transform="matrix(0.0468795,0,0,0.0468795,0,10.079087)"/>
<path style=" stroke:none;fill-rule:nonzero;fill:url(#linear4);" d="M 16.851562 10.109375 C 16.585938 10.109375 16.371094 10.332031 16.371094 10.605469 L 16.371094 11.101562 L 15.875 11.101562 C 15.601562 11.101562 15.378906 11.316406 15.378906 11.582031 L 15.378906 11.617188 C 15.378906 11.882812 15.601562 12.09375 15.875 12.09375 L 16.371094 12.09375 L 16.371094 12.589844 C 16.371094 12.867188 16.585938 13.085938 16.851562 13.085938 L 16.886719 13.085938 C 17.152344 13.085938 17.363281 12.867188 17.363281 12.589844 L 17.363281 12.09375 L 17.859375 12.09375 C 18.136719 12.09375 18.355469 11.882812 18.355469 11.617188 L 18.355469 11.582031 C 18.355469 11.316406 18.136719 11.101562 17.859375 11.101562 L 17.363281 11.101562 L 17.363281 10.605469 C 17.363281 10.332031 17.152344 10.109375 16.886719 10.109375 Z M 16.851562 10.109375 "/>
<path style=" stroke:none;fill-rule:nonzero;fill:rgb(100%,100%,100%);fill-opacity:0.392157;" d="M 16.851562 10.109375 C 16.585938 10.109375 16.371094 10.332031 16.371094 10.605469 L 16.371094 10.855469 C 16.371094 10.578125 16.585938 10.359375 16.851562 10.359375 L 16.886719 10.359375 C 17.152344 10.359375 17.363281 10.578125 17.363281 10.855469 L 17.363281 10.605469 C 17.363281 10.332031 17.152344 10.109375 16.886719 10.109375 Z M 15.875 11.101562 C 15.601562 11.101562 15.378906 11.316406 15.378906 11.582031 L 15.378906 11.617188 C 15.378906 11.652344 15.382812 11.6875 15.394531 11.722656 C 15.441406 11.507812 15.640625 11.351562 15.875 11.351562 L 16.371094 11.351562 L 16.371094 11.101562 Z M 17.363281 11.101562 L 17.363281 11.351562 L 17.859375 11.351562 C 18.097656 11.351562 18.296875 11.507812 18.34375 11.722656 C 18.351562 11.6875 18.355469 11.652344 18.355469 11.617188 L 18.355469 11.582031 C 18.355469 11.316406 18.136719 11.101562 17.859375 11.101562 Z M 17.363281 11.101562 "/>
<path style=" stroke:none;fill-rule:nonzero;fill:rgb(0%,0%,0%);fill-opacity:0.235294;" d="M 16.851562 13.085938 C 16.585938 13.085938 16.371094 12.867188 16.371094 12.589844 L 16.371094 12.34375 C 16.371094 12.617188 16.585938 12.839844 16.851562 12.839844 L 16.886719 12.839844 C 17.152344 12.839844 17.363281 12.617188 17.363281 12.34375 L 17.363281 12.589844 C 17.363281 12.867188 17.152344 13.085938 16.886719 13.085938 Z M 15.875 12.09375 C 15.601562 12.09375 15.378906 11.882812 15.378906 11.617188 L 15.378906 11.582031 C 15.378906 11.542969 15.382812 11.507812 15.394531 11.472656 C 15.441406 11.6875 15.640625 11.847656 15.875 11.847656 L 16.371094 11.847656 L 16.371094 12.09375 Z M 17.363281 12.09375 L 17.363281 11.847656 L 17.859375 11.847656 C 18.097656 11.847656 18.296875 11.6875 18.34375 11.472656 C 18.351562 11.507812 18.355469 11.542969 18.355469 11.582031 L 18.355469 11.617188 C 18.355469 11.882812 18.136719 12.09375 17.859375 12.09375 Z M 17.363281 12.09375 "/>
<path style="fill:none;stroke-width:11.338583;stroke-linecap:round;stroke-linejoin:round;stroke:rgb(12.941177%,12.941177%,12.941177%);stroke-opacity:1;stroke-miterlimit:4;" d="M -721.389544 815.040321 C -742.804823 815.040321 -760.126005 832.991363 -760.126005 855.036503 L -760.126005 895.032686 L -800.122187 895.032686 C -822.167327 895.032686 -840.11837 912.353867 -840.11837 933.769146 L -840.11837 936.603521 C -840.11837 958.0188 -822.167327 975.025051 -800.122187 975.025051 L -760.126005 975.025051 L -760.126005 1015.021234 C -760.126005 1037.381305 -742.804823 1055.017417 -721.389544 1055.017417 L -718.555169 1055.017417 C -697.13989 1055.017417 -680.133639 1037.381305 -680.133639 1015.021234 L -680.133639 975.025051 L -640.137457 975.025051 C -617.777386 975.025051 -600.141274 958.0188 -600.141274 936.603521 L -600.141274 933.769146 C -600.141274 912.353867 -617.777386 895.032686 -640.137457 895.032686 L -680.133639 895.032686 L -680.133639 855.036503 C -680.133639 832.991363 -697.13989 815.040321 -718.555169 815.040321 Z M -721.389544 815.040321 " transform="matrix(0.0124035,0,0,0.0124035,25.799338,0)"/>
<path style=" stroke:none;fill-rule:nonzero;fill:url(#linear5);" d="M 20.324219 10.109375 C 20.058594 10.109375 19.84375 10.332031 19.84375 10.605469 L 19.84375 11.101562 L 19.347656 11.101562 C 19.074219 11.101562 18.851562 11.316406 18.851562 11.582031 L 18.851562 11.617188 C 18.851562 11.882812 19.074219 12.09375 19.347656 12.09375 L 19.84375 12.09375 L 19.84375 12.589844 C 19.84375 12.867188 20.058594 13.085938 20.324219 13.085938 L 20.359375 13.085938 C 20.625 13.085938 20.839844 12.867188 20.839844 12.589844 L 20.839844 12.09375 L 21.335938 12.09375 C 21.609375 12.09375 21.832031 11.882812 21.832031 11.617188 L 21.832031 11.582031 C 21.832031 11.316406 21.609375 11.101562 21.335938 11.101562 L 20.839844 11.101562 L 20.839844 10.605469 C 20.839844 10.332031 20.625 10.109375 20.359375 10.109375 Z M 20.324219 10.109375 "/>
<path style=" stroke:none;fill-rule:nonzero;fill:rgb(100%,100%,100%);fill-opacity:0.392157;" d="M 20.324219 10.109375 C 20.058594 10.109375 19.84375 10.332031 19.84375 10.605469 L 19.84375 10.855469 C 19.84375 10.578125 20.058594 10.359375 20.324219 10.359375 L 20.359375 10.359375 C 20.625 10.359375 20.839844 10.578125 20.839844 10.855469 L 20.839844 10.605469 C 20.839844 10.332031 20.625 10.109375 20.359375 10.109375 Z M 19.347656 11.101562 C 19.074219 11.101562 18.851562 11.316406 18.851562 11.582031 L 18.851562 11.617188 C 18.851562 11.652344 18.859375 11.6875 18.867188 11.722656 C 18.914062 11.507812 19.113281 11.351562 19.347656 11.351562 L 19.84375 11.351562 L 19.84375 11.101562 Z M 20.839844 11.101562 L 20.839844 11.351562 L 21.335938 11.351562 C 21.570312 11.351562 21.769531 11.507812 21.816406 11.722656 C 21.824219 11.6875 21.832031 11.652344 21.832031 11.617188 L 21.832031 11.582031 C 21.832031 11.316406 21.609375 11.101562 21.335938 11.101562 Z M 20.839844 11.101562 "/>
<path style=" stroke:none;fill-rule:nonzero;fill:rgb(0%,0%,0%);fill-opacity:0.235294;" d="M 20.324219 13.085938 C 20.058594 13.085938 19.84375 12.867188 19.84375 12.589844 L 19.84375 12.34375 C 19.84375 12.617188 20.058594 12.839844 20.324219 12.839844 L 20.359375 12.839844 C 20.625 12.839844 20.839844 12.617188 20.839844 12.34375 L 20.839844 12.589844 C 20.839844 12.867188 20.625 13.085938 20.359375 13.085938 Z M 19.347656 12.09375 C 19.074219 12.09375 18.851562 11.882812 18.851562 11.617188 L 18.851562 11.582031 C 18.851562 11.542969 18.859375 11.507812 18.867188 11.472656 C 18.914062 11.6875 19.113281 11.847656 19.347656 11.847656 L 19.84375 11.847656 L 19.84375 12.09375 Z M 20.839844 12.09375 L 20.839844 11.847656 L 21.335938 11.847656 C 21.570312 11.847656 21.769531 11.6875 21.816406 11.472656 C 21.824219 11.507812 21.832031 11.542969 21.832031 11.582031 L 21.832031 11.617188 C 21.832031 11.882812 21.609375 12.09375 21.335938 12.09375 Z M 20.839844 12.09375 "/>
<path style="fill:none;stroke-width:11.338583;stroke-linecap:round;stroke-linejoin:round;stroke:rgb(12.941177%,12.941177%,12.941177%);stroke-opacity:1;stroke-miterlimit:4;" d="M -721.416434 815.040321 C -742.831713 815.040321 -760.152895 832.991363 -760.152895 855.036503 L -760.152895 895.032686 L -800.149077 895.032686 C -822.194217 895.032686 -840.14526 912.353867 -840.14526 933.769146 L -840.14526 936.603521 C -840.14526 958.0188 -822.194217 975.025051 -800.149077 975.025051 L -760.152895 975.025051 L -760.152895 1015.021234 C -760.152895 1037.381305 -742.831713 1055.017417 -721.416434 1055.017417 L -718.582059 1055.017417 C -697.16678 1055.017417 -679.845599 1037.381305 -679.845599 1015.021234 L -679.845599 975.025051 L -639.849416 975.025051 C -617.804276 975.025051 -599.853233 958.0188 -599.853233 936.603521 L -599.853233 933.769146 C -599.853233 912.353867 -617.804276 895.032686 -639.849416 895.032686 L -679.845599 895.032686 L -679.845599 855.036503 C -679.845599 832.991363 -697.16678 815.040321 -718.582059 815.040321 Z M -721.416434 815.040321 " transform="matrix(0.0124035,0,0,0.0124035,29.272327,0)"/>
</g>
</svg>
