<svg height="24" viewBox="0 0 24 24" width="24" xmlns="http://www.w3.org/2000/svg" xmlns:xlink="http://www.w3.org/1999/xlink"><linearGradient id="a"><stop offset="0" stop-opacity=".313726"/><stop offset=".222222" stop-opacity=".27451"/><stop offset="1" stop-opacity="0"/></linearGradient><radialGradient id="b" cx="450.908936" cy="189.579361" gradientTransform="matrix(.00000013 -.0585994 -.105479 -.00000008 33.392364 47.696497)" gradientUnits="userSpaceOnUse" r="21.166656" xlink:href="#a"/><radialGradient id="c" cx="450.908936" cy="189.579361" gradientTransform="matrix(-.00000013 .0585994 .105479 .00000008 -9.577589 -5.645612)" gradientUnits="userSpaceOnUse" r="21.166656" xlink:href="#a"/><radialGradient id="d" cx="450.908936" cy="189.579361" gradientTransform="matrix(-.00000013 -.0585994 .105479 -.00000008 -9.577589 47.696497)" gradientUnits="userSpaceOnUse" r="21.166656" xlink:href="#a"/><radialGradient id="e" cx="450.908936" cy="189.579361" gradientTransform="matrix(.00000013 .0585994 -.105479 .00000008 33.392362 -5.645612)" gradientUnits="userSpaceOnUse" r="21.166656" xlink:href="#a"/><linearGradient id="f" gradientTransform="matrix(.01002 0 0 .0468795 9.34904 10.079088)" gradientUnits="userSpaceOnUse" x1="255.323059" x2="255.323044" y1="233.5" y2="254.666656"><stop offset="0" stop-opacity=".27451"/><stop offset="1" stop-opacity="0"/></linearGradient><linearGradient id="g"><stop offset="0" stop-color="#bdbdbd"/><stop offset="1" stop-color="#e0e0e0"/></linearGradient><linearGradient id="h" gradientUnits="userSpaceOnUse" x1="11.907393" x2="11.907393" xlink:href="#g" y1="2.17207774998" y2="21.02545025"/><linearGradient id="i" gradientUnits="userSpaceOnUse" x1="11.907399" x2="11.907399" y1="3.66049745612" y2="19.53703225"><stop offset="0" stop-color="#616161"/><stop offset="1" stop-color="#424242"/></linearGradient><linearGradient id="j" gradientUnits="userSpaceOnUse" x1="11.87468" x2="11.87468" xlink:href="#g" y1="15.86967214717" y2="6.93915139056"/><path d="m13.644531 21.027344h1.984375v-.996094h-1.984375zm0 0" fill="url(#b)"/><path d="m10.171875 21.027344h-1.984375v.992187h1.984375zm0 0" fill="url(#c)"/><path d="m10.171875 21.027344h-1.984375v-.996094h1.984375zm0 0" fill="url(#d)"/><path d="m13.644531 21.027344h1.984375v.992187h-1.984375zm0 0" fill="url(#e)"/><path d="m10.171875 20.777344h3.472656v1.242187h-3.472656zm0 0" fill="url(#f)"/><path d="m11.90625 2.171875c5.207031 0 9.429688 4.21875 9.429688 9.425781 0 5.207032-4.222657 9.429688-9.429688 9.429688-5.203125 0-9.425781-4.222656-9.425781-9.429688 0-5.207031 4.222656-9.425781 9.425781-9.425781zm0 0" fill="url(#h)"/><path d="m11.90625 21.027344c-5.222656 0-9.425781-4.207032-9.425781-9.429688 0-.03125 0-.058594 0-.089844.050781 5.179688 4.234375 9.332032 9.425781 9.332032s9.378906-4.152344 9.425781-9.332032c0 .03125.003907.058594.003907.089844 0 5.222656-4.207032 9.429688-9.429688 9.429688zm0 0" fill-opacity=".196078"/><path d="m11.90625 2.171875c-5.222656 0-9.425781 4.203125-9.425781 9.425781v.117188c.070312-5.160156 4.25-9.292969 9.425781-9.292969 5.179688 0 9.359375 4.132813 9.425781 9.292969 0-.039063.003907-.078125.003907-.117188 0-5.222656-4.207032-9.425781-9.429688-9.425781zm0 0" fill="#fff" fill-opacity=".392157"/><path d="m11.90625 3.660156c4.386719 0 7.9375 3.554688 7.9375 7.9375 0 4.386719-3.550781 7.9375-7.9375 7.9375-4.382812 0-7.9375-3.550781-7.9375-7.9375 0-4.382812 3.554688-7.9375 7.9375-7.9375zm0 0" fill="url(#i)"/><path d="m253.975747-168.671091c111.072726 0 201.147458 89.991406 201.147458 201.064133 0 111.072726-90.074732 201.147458-201.147458 201.147458-110.989402 0-201.064133-90.074732-201.064133-201.147458 0-111.072727 90.074731-201.064133 201.064133-201.064133zm0 0" fill="none" stroke="#333" stroke-linecap="round" stroke-width="3" transform="matrix(.0468795 0 0 .0468795 0 10.079087)"/><path d="m11.875 6.9375c-1.925781 0-3.472656 1.109375-3.472656 2.480469v6.203125c0 .371094 1.734375.371094 1.734375 0v-2.726563h2.480469c.621093 0 .621093-1.488281 0-1.488281h-2.480469v-1.242188c0-.6875.777343-1.242187 1.738281-1.242187.84375 0 1.542969.425781 1.703125.992187.09375.3125.613281.246094.902344.25.480469 0 .867187-.109374.867187-.25v-.496093c0-1.371094-1.550781-2.480469-3.472656-2.480469zm0 0" fill="url(#j)"/><path d="m11.875 7.007812c-1.925781 0-3.472656 1.109376-3.472656 2.480469v.125c0-1.375 1.546875-2.480469 3.472656-2.480469 1.921875 0 3.472656 1.105469 3.472656 2.480469v-.125c0-1.371093-1.550781-2.480469-3.472656-2.480469zm-1.738281 4.46875v.121094h2.480469c.292968 0 .449218.332032.464843.683594.019531-.390625-.136719-.804688-.464843-.804688zm0 0" fill="#fff" fill-opacity=".392157"/><path d="m11.875 8.921875c-.960938 0-1.738281.554687-1.738281 1.242187v.371094c0-.6875.777343-1.238281 1.738281-1.238281.84375 0 1.542969.421875 1.703125.992187.09375.308594.613281.246094.902344.246094.480469 0 .867187-.109375.867187-.246094v-.375c0 .140626-.386718.25-.867187.25-.289063-.003906-.808594.0625-.902344-.25-.160156-.566406-.859375-.992187-1.703125-.992187zm1.195312 3.414063c-.042968.300781-.195312.558593-.453124.558593h-2.480469v.371094h2.480469c.363281 0 .515624-.507813.453124-.929687zm-4.667968 3.285156v.371094c0 .375 1.734375.375 1.734375 0v-.371094c0 .371094-1.734375.371094-1.734375 0zm0 0" fill-opacity=".235294"/><path d="m11.875 6.867188c-.976562 0-1.859375.28125-2.5.738281-.640625.460937-1.042969 1.101562-1.042969 1.8125v6.203125c0 .074218.042969.136718.101563.179687s.132812.074219.21875.097657c.175781.050781.394531.074218.617187.074218.222657 0 .445313-.023437.617188-.074218.085937-.023438.160156-.054688.21875-.097657.058593-.042969.101562-.105469.101562-.179687v-2.65625h2.410157c.183593 0 .328124-.117188.410156-.269532.085937-.15625.128906-.351562.128906-.546874 0-.195313-.042969-.390626-.128906-.546876-.082032-.152343-.226563-.265624-.410156-.265624h-2.410157v-1.171876c0-.316406.179688-.605468.480469-.820312s.71875-.351562 1.1875-.351562c.820312 0 1.484375.417968 1.632812.941406v.003906c.03125.09375.097657.164062.175782.207031.078125.046875.167968.070313.265625.082031.1875.023438.390625.007813.53125.007813.246093 0 .464843-.027344.632812-.074219.082031-.023437.152344-.054687.207031-.089844.050782-.035156.097657-.085937.097657-.15625v-.496093c0-.710938-.402344-1.351563-1.042969-1.8125-.644531-.457031-1.523438-.738281-2.5-.738281zm0 .140624c.949219 0 1.804688.273438 2.417969.714844.613281.4375.984375 1.035156.984375 1.695313v.496093c0 .003907-.003906.015626-.039063.039063-.03125.023437-.089843.050781-.164062.070313-.148438.042968-.359375.070312-.59375.070312-.148438 0-.347657.011719-.515625-.007812-.082032-.011719-.15625-.03125-.210938-.0625-.054687-.03125-.089844-.070313-.109375-.128907v.003907c-.171875-.613282-.902343-1.046876-1.769531-1.046876-.496094 0-.941406.144532-1.269531.378907s-.539063.5625-.539063.933593v1.3125h2.550782c.128906 0 .21875.070313.289062.195313s.109375.300781.109375.476563c0 .175781-.039063.351562-.109375.476562s-.160156.199219-.289062.199219h-2.550782v2.796875c0 .019531-.007812.039062-.042968.066406-.039063.027344-.097657.054688-.175782.074219-.152344.046875-.367187.070312-.578125.070312-.210937 0-.425781-.023437-.578125-.070312-.074218-.019531-.136718-.046875-.171875-.074219-.039062-.027344-.046875-.046875-.046875-.066406v-6.203125c0-.660157.371094-1.257813.984375-1.695313.613281-.441406 1.46875-.714844 2.417969-.714844zm0 0" fill="#212121"/><path d="m3.972656 11.785156c-.003906.0625-.003906.125-.003906.1875 0 4.394532 3.539062 7.9375 7.9375 7.9375s7.9375-3.542968 7.9375-7.9375c0-.0625 0-.125 0-.1875-.097656 4.3125-3.601562 7.75-7.9375 7.75s-7.835938-3.4375-7.933594-7.75zm0 0" fill-opacity=".235294"/><path d="m11.90625 3.660156c-4.398438 0-7.9375 3.539063-7.9375 7.9375v.082032c.042969-4.359376 3.566406-7.859376 7.9375-7.859376s7.894531 3.5 7.9375 7.859376c0-.027344 0-.054688 0-.082032 0-4.398437-3.539062-7.9375-7.9375-7.9375zm0 0" fill="#fff" fill-opacity=".235294"/><path d="m253.975747-136.924123c93.574397 0 169.317164 75.826093 169.317164 169.317165 0 93.574397-75.742767 169.317164-169.317164 169.317164-93.491073 0-169.317165-75.742767-169.317165-169.317164 0-93.491072 75.826092-169.317165 169.317165-169.317165zm0 0" fill="none" stroke="#212121" stroke-linecap="round" stroke-width="3" transform="matrix(.0468795 0 0 .0468795 0 10.079087)"/></svg>