<svg height="24" viewBox="0 0 24 24" width="24" xmlns="http://www.w3.org/2000/svg" xmlns:xlink="http://www.w3.org/1999/xlink"><linearGradient id="a"><stop offset="0" stop-opacity=".313726"/><stop offset=".222222" stop-opacity=".27451"/><stop offset="1" stop-opacity="0"/></linearGradient><radialGradient id="b" cx="450.908936" cy="189.579361" gradientTransform="matrix(.00000013 -.0585994 -.105479 -.00000008 26.94253 47.696497)" gradientUnits="userSpaceOnUse" r="21.166656" xlink:href="#a"/><radialGradient id="c" cx="450.908936" cy="189.579361" gradientTransform="matrix(-.00000013 .0585994 .105479 .00000008 -16.027423 -5.645612)" gradientUnits="userSpaceOnUse" r="21.166656" xlink:href="#a"/><radialGradient id="d" cx="450.908936" cy="189.579361" gradientTransform="matrix(-.00000013 -.0585994 .105479 -.00000008 -16.027423 47.696497)" gradientUnits="userSpaceOnUse" r="21.166656" xlink:href="#a"/><radialGradient id="e" cx="450.908936" cy="189.579361" gradientTransform="matrix(.00000013 .0585994 -.105479 .00000008 26.942528 -5.645612)" gradientUnits="userSpaceOnUse" r="21.166656" xlink:href="#a"/><linearGradient id="f" gradientTransform="matrix(.01002 0 0 .0468795 2.899205 10.079088)" gradientUnits="userSpaceOnUse" x1="255.323059" x2="255.323044" y1="233.5" y2="254.666656"><stop offset="0" stop-opacity=".27451"/><stop offset="1" stop-opacity="0"/></linearGradient><linearGradient id="g" gradientUnits="userSpaceOnUse" x1="11.90736" x2="11.90736" y1="24.49837814717" y2=".18751748979"><stop offset="0" stop-color="#f44336"/><stop offset="1" stop-color="#ef5350"/></linearGradient><linearGradient id="h" gradientUnits="userSpaceOnUse" x1="13.88727867178" x2="13.88728012505" y1="24.0022985" y2=".1875125"><stop offset="0" stop-color="#42a5f5"/><stop offset="1" stop-color="#64b5f6"/></linearGradient><path d="m7.195312 21.027344h1.984376v-.996094h-1.984376zm0 0" fill="url(#b)"/><path d="m3.722656 21.027344h-1.984375v.992187h1.984375zm0 0" fill="url(#c)"/><path d="m3.722656 21.027344h-1.984375v-.996094h1.984375zm0 0" fill="url(#d)"/><path d="m7.195312 21.027344h1.984376v.992187h-1.984376zm0 0" fill="url(#e)"/><path d="m3.722656 20.777344h3.472656v1.242187h-3.472656zm0 0" fill="url(#f)"/><path d="m3.96875 2.171875c-.550781 0-.992188.441406-.992188.992187v16.867188c0 .550781.441407.996094.992188.996094h2.976562c.550782 0 .992188-.445313.992188-.996094v-16.867188c0-.550781-.441406-.992187-.992188-.992187zm5.953125 0c-.546875 0-.992187.441406-.992187.992187v1.984376c0 .550781.445312.992187.992187.992187h9.921875c.550781 0 .996094-.441406.996094-.992187v-1.984376c0-.550781-.445313-.992187-.996094-.992187zm0 0" fill="url(#g)"/><path d="m9.945312 8.132812c-.554687-.015624-1.015624.429688-1.015624.984376v6.945312c0 .761719.828124 1.238281 1.484374.855469l5.957032-3.472657c.652344-.382812.652344-1.324218 0-1.707031l-5.957032-3.472656c-.140624-.085937-.304687-.128906-.46875-.132813zm0 0" fill="url(#h)"/><path d="m3.96875 2.171875c-.550781 0-.992188.441406-.992188.992187v.25c0-.550781.441407-.992187.992188-.992187h2.976562c.550782 0 .992188.441406.992188.992187v-.25c0-.550781-.441406-.992187-.992188-.992187zm5.953125 0c-.546875 0-.992187.441406-.992187.992187v.25c0-.550781.445312-.992187.992187-.992187h9.921875c.550781 0 .996094.441406.996094.992187v-.25c0-.550781-.445313-.992187-.996094-.992187zm0 0" fill="#fff" fill-opacity=".392157"/><path d="m9.917969 8.128906c-.542969 0-.988281.441406-.988281.988282v.25c0-.558594.460937-1.003907 1.015624-.988282.164063.003906.328126.050782.46875.132813l5.957032 3.472656c.285156.167969.445312.441406.480468.730469.046876-.371094-.113281-.761719-.480468-.976563l-5.957032-3.472656c-.140624-.082031-.304687-.128906-.46875-.132813-.007812-.003906-.015624-.003906-.027343-.003906zm0 0" fill="#fff" fill-opacity=".392157"/><path d="m8.929688 4.800781v.347657c0 .550781.445312.992187.992187.992187h9.921875c.550781 0 .996094-.441406.996094-.992187v-.347657c0 .550781-.445313.992188-.996094.992188h-9.921875c-.546875 0-.992187-.441407-.992187-.992188zm-5.953126 14.882813v.347656c0 .550781.441407.996094.992188.996094h2.976562c.550782 0 .992188-.445313.992188-.996094v-.347656c0 .550781-.441406.992187-.992188.992187h-2.976562c-.550781 0-.992188-.441406-.992188-.992187zm0 0" fill-opacity=".235294"/><path d="m16.84375 12.417969c-.046875.269531-.207031.519531-.472656.679687l-5.957032 3.472656c-.65625.382813-1.484374-.09375-1.484374-.855468v.347656c0 .761719.828124 1.238281 1.484374.855469l5.957032-3.472657c.382812-.226562.539062-.644531.472656-1.027343zm0 0" fill-opacity=".235294"/><g fill="none" stroke="#212121" stroke-linecap="round" stroke-linejoin="round"><path d="m319.969461 175.101398c-44.40521 0-79.992365 35.587155-79.992365 79.992365v1359.870211c0 44.40521 35.587155 80.307296 79.992365 80.307296h239.977096c44.405211 0 79.992366-35.902086 79.992366-80.307296v-1359.870211c0-44.40521-35.587155-79.992365-79.992366-79.992365zm484.993081 0c-44.40521 0-79.992365 35.587155-79.992365 79.992365v159.984731c0 44.405211 35.587155 79.992365 79.992365 79.992365h794.884764c44.405211 0 80.307296-35.587154 80.307296-79.992365v-159.984731c0-44.40521-35.902085-79.992365-80.307296-79.992365zm0 0" stroke-width="11.338583" transform="scale(.0124035)"/><path d="m212.146408-41.516567c-11.832204-.333301-21.664598 9.165792-21.664598 20.997995v148.152519c0 16.248448 17.66498 26.414144 31.663643 18.248257l127.071198-74.076259c13.915338-8.165887 13.915338-28.247303 0-36.41319l-127.071198-74.076259c-2.999714-1.833158-6.49938-2.749737-9.999045-2.833063zm0 0" stroke-width="3" transform="matrix(.0468795 0 0 .0468795 0 10.079087)"/></g></svg>