<?xml version="1.0" encoding="UTF-8"?>
<svg xmlns="http://www.w3.org/2000/svg" xmlns:xlink="http://www.w3.org/1999/xlink" width="24pt" height="24pt" viewBox="0 0 24 24" version="1.1">
<defs>
<radialGradient id="radial0" gradientUnits="userSpaceOnUse" cx="450.908936" cy="189.579361" fx="450.908936" fy="189.579361" r="21.166656" gradientTransform="matrix(0.000000130628,-0.0585994,-0.105479,-0.0000000761539,32.648152,47.696497)">
<stop offset="0" style="stop-color:rgb(0%,0%,0%);stop-opacity:0.313725;"/>
<stop offset="0.222222" style="stop-color:rgb(0%,0%,0%);stop-opacity:0.27451;"/>
<stop offset="1" style="stop-color:rgb(0%,0%,0%);stop-opacity:0;"/>
</radialGradient>
<radialGradient id="radial1" gradientUnits="userSpaceOnUse" cx="450.908936" cy="189.579361" fx="450.908936" fy="189.579361" r="21.166656" gradientTransform="matrix(-0.000000130628,0.0585994,0.105479,0.0000000761539,-8.833377,-5.645612)">
<stop offset="0" style="stop-color:rgb(0%,0%,0%);stop-opacity:0.313725;"/>
<stop offset="0.222222" style="stop-color:rgb(0%,0%,0%);stop-opacity:0.27451;"/>
<stop offset="1" style="stop-color:rgb(0%,0%,0%);stop-opacity:0;"/>
</radialGradient>
<radialGradient id="radial2" gradientUnits="userSpaceOnUse" cx="450.908936" cy="189.579361" fx="450.908936" fy="189.579361" r="21.166656" gradientTransform="matrix(-0.000000130628,-0.0585994,0.105479,-0.0000000761539,-8.833377,47.696497)">
<stop offset="0" style="stop-color:rgb(0%,0%,0%);stop-opacity:0.313725;"/>
<stop offset="0.222222" style="stop-color:rgb(0%,0%,0%);stop-opacity:0.27451;"/>
<stop offset="1" style="stop-color:rgb(0%,0%,0%);stop-opacity:0;"/>
</radialGradient>
<radialGradient id="radial3" gradientUnits="userSpaceOnUse" cx="450.908936" cy="189.579361" fx="450.908936" fy="189.579361" r="21.166656" gradientTransform="matrix(0.000000130628,0.0585994,-0.105479,0.0000000761539,32.648151,-5.645612)">
<stop offset="0" style="stop-color:rgb(0%,0%,0%);stop-opacity:0.313725;"/>
<stop offset="0.222222" style="stop-color:rgb(0%,0%,0%);stop-opacity:0.27451;"/>
<stop offset="1" style="stop-color:rgb(0%,0%,0%);stop-opacity:0;"/>
</radialGradient>
<linearGradient id="linear0" gradientUnits="userSpaceOnUse" x1="255.323059" y1="233.5" x2="255.323044" y2="254.666656" gradientTransform="matrix(0.01002,0,0,0.0468795,9.34904,10.079088)">
<stop offset="0" style="stop-color:rgb(0%,0%,0%);stop-opacity:0.27451;"/>
<stop offset="1" style="stop-color:rgb(0%,0%,0%);stop-opacity:0;"/>
</linearGradient>
<linearGradient id="linear1" gradientUnits="userSpaceOnUse" x1="195.791672" y1="53.583332" x2="195.791672" y2="85.333336" gradientTransform="matrix(0.0468795,0,0,0.0468795,5.457552,10.079087)">
<stop offset="0" style="stop-color:rgb(100%,71.764706%,30.196078%);stop-opacity:1;"/>
<stop offset="1" style="stop-color:rgb(100%,65.490196%,14.901961%);stop-opacity:1;"/>
</linearGradient>
<linearGradient id="linear2" gradientUnits="userSpaceOnUse" x1="195.791672" y1="53.583332" x2="195.791672" y2="85.333336" gradientTransform="matrix(0.0468795,0,0,0.0468795,5.457552,10.079087)">
<stop offset="0" style="stop-color:rgb(100%,71.764706%,30.196078%);stop-opacity:1;"/>
<stop offset="1" style="stop-color:rgb(100%,65.490196%,14.901961%);stop-opacity:1;"/>
</linearGradient>
<linearGradient id="linear3" gradientUnits="userSpaceOnUse" x1="960" y1="1695.118164" x2="960" y2="215.118118" gradientTransform="matrix(0.0124035,0,0,0.0124035,0,0)">
<stop offset="0" style="stop-color:rgb(14.901961%,65.098039%,60.392157%);stop-opacity:1;"/>
<stop offset="1" style="stop-color:rgb(30.196078%,71.372549%,67.45098%);stop-opacity:1;"/>
</linearGradient>
<linearGradient id="linear4" gradientUnits="userSpaceOnUse" x1="195.791672" y1="53.583332" x2="195.791672" y2="85.333336" gradientTransform="matrix(0.0468795,0,0,0.0468795,-0.0000012663,10.079087)">
<stop offset="0" style="stop-color:rgb(100%,71.764706%,30.196078%);stop-opacity:1;"/>
<stop offset="1" style="stop-color:rgb(100%,65.490196%,14.901961%);stop-opacity:1;"/>
</linearGradient>
<linearGradient id="linear5" gradientUnits="userSpaceOnUse" x1="195.791672" y1="53.583332" x2="195.791672" y2="85.333336" gradientTransform="matrix(0.499998,0,0,0.499998,211.667038,34.729259)">
<stop offset="0" style="stop-color:rgb(38.039216%,38.039216%,38.039216%);stop-opacity:1;"/>
<stop offset="1" style="stop-color:rgb(25.882353%,25.882353%,25.882353%);stop-opacity:1;"/>
</linearGradient>
<linearGradient id="linear6" gradientUnits="userSpaceOnUse" x1="195.791672" y1="53.583332" x2="195.791672" y2="85.333336" gradientTransform="matrix(0.499998,0,0,0.499998,100.542038,34.729259)">
<stop offset="0" style="stop-color:rgb(38.039216%,38.039216%,38.039216%);stop-opacity:1;"/>
<stop offset="1" style="stop-color:rgb(25.882353%,25.882353%,25.882353%);stop-opacity:1;"/>
</linearGradient>
</defs>
<g id="surface1">
<path style=" stroke:none;fill-rule:nonzero;fill:url(#radial0);" d="M 12.898438 21.027344 L 14.882812 21.027344 L 14.882812 20.03125 L 12.898438 20.03125 Z M 12.898438 21.027344 "/>
<path style=" stroke:none;fill-rule:nonzero;fill:url(#radial1);" d="M 10.914062 21.027344 L 8.929688 21.027344 L 8.929688 22.019531 L 10.914062 22.019531 Z M 10.914062 21.027344 "/>
<path style=" stroke:none;fill-rule:nonzero;fill:url(#radial2);" d="M 10.914062 21.027344 L 8.929688 21.027344 L 8.929688 20.03125 L 10.914062 20.03125 Z M 10.914062 21.027344 "/>
<path style=" stroke:none;fill-rule:nonzero;fill:url(#radial3);" d="M 12.898438 21.027344 L 14.882812 21.027344 L 14.882812 22.019531 L 12.898438 22.019531 Z M 12.898438 21.027344 "/>
<path style=" stroke:none;fill-rule:nonzero;fill:url(#linear0);" d="M 10.914062 20.777344 L 12.898438 20.777344 L 12.898438 22.019531 L 10.914062 22.019531 Z M 10.914062 20.777344 "/>
<path style=" stroke:none;fill-rule:nonzero;fill:url(#linear1);" d="M 14.636719 12.589844 C 15.046875 12.589844 15.378906 12.925781 15.378906 13.335938 C 15.378906 13.746094 15.046875 14.078125 14.636719 14.078125 C 14.226562 14.078125 13.890625 13.746094 13.890625 13.335938 C 13.890625 12.925781 14.226562 12.589844 14.636719 12.589844 Z M 14.636719 12.589844 "/>
<path style=" stroke:none;fill-rule:nonzero;fill:url(#linear2);" d="M 14.636719 12.589844 C 15.046875 12.589844 15.378906 12.925781 15.378906 13.335938 C 15.378906 13.746094 15.046875 14.078125 14.636719 14.078125 C 14.226562 14.078125 13.890625 13.746094 13.890625 13.335938 C 13.890625 12.925781 14.226562 12.589844 14.636719 12.589844 Z M 14.636719 12.589844 "/>
<path style=" stroke:none;fill-rule:nonzero;fill:url(#linear3);" d="M 11.90625 2.617188 C 11.410156 2.617188 10.667969 3.164062 10.171875 3.660156 C 9.179688 4.652344 7.691406 6.886719 7.195312 7.878906 C 6.699219 8.871094 6.945312 9.367188 7.441406 9.613281 C 8.433594 10.109375 8.929688 10.855469 8.929688 12.09375 L 8.929688 12.121094 C 8.363281 12.234375 7.9375 12.734375 7.9375 13.335938 C 7.9375 13.742188 8.132812 14.101562 8.433594 14.328125 L 8.433594 17.039062 C 6.640625 15.898438 5.457031 13.890625 5.457031 11.597656 C 5.457031 10.316406 5.828125 9.128906 6.464844 8.125 C 6.699219 7.628906 6.203125 6.886719 5.316406 8.125 C 4.773438 9.160156 4.464844 10.34375 4.464844 11.597656 C 4.464844 14.464844 6.070312 16.945312 8.433594 18.1875 C 8.445312 18.195312 8.457031 18.199219 8.464844 18.203125 C 8.484375 18.214844 8.503906 18.226562 8.523438 18.234375 C 8.539062 18.242188 8.554688 18.25 8.570312 18.257812 C 8.574219 18.257812 8.574219 18.257812 8.578125 18.261719 C 8.597656 18.273438 8.621094 18.28125 8.644531 18.292969 C 8.664062 18.300781 8.679688 18.3125 8.699219 18.320312 C 8.722656 18.332031 8.746094 18.34375 8.773438 18.355469 C 8.789062 18.363281 8.804688 18.371094 8.820312 18.378906 C 8.847656 18.386719 8.871094 18.398438 8.894531 18.410156 C 9.070312 18.488281 9.246094 18.558594 9.425781 18.621094 L 9.425781 15.082031 C 9.699219 15.230469 10.050781 15.339844 10.417969 15.414062 L 10.417969 19.902344 C 6.460938 19.203125 3.472656 15.761719 3.472656 11.597656 C 3.472656 8.363281 5.277344 5.5625 7.9375 4.148438 C 9.179688 3.535156 8.683594 2.792969 7.9375 3.039062 C 4.710938 4.53125 2.480469 7.796875 2.480469 11.597656 C 2.480469 16.3125 5.910156 20.199219 10.417969 20.910156 C 10.425781 20.910156 10.433594 20.910156 10.441406 20.914062 C 10.464844 20.917969 10.492188 20.921875 10.515625 20.925781 C 10.53125 20.925781 10.542969 20.929688 10.558594 20.929688 C 10.585938 20.933594 10.613281 20.9375 10.640625 20.941406 C 10.652344 20.941406 10.664062 20.945312 10.675781 20.945312 C 10.699219 20.949219 10.726562 20.953125 10.753906 20.957031 C 10.765625 20.957031 10.78125 20.960938 10.796875 20.960938 C 10.820312 20.964844 10.839844 20.964844 10.863281 20.96875 C 11.042969 20.988281 11.226562 21.003906 11.410156 21.011719 L 11.410156 15.550781 C 11.589844 15.5625 11.757812 15.566406 11.90625 15.566406 C 12.058594 15.566406 12.226562 15.5625 12.402344 15.550781 L 12.402344 21.011719 C 12.585938 21.003906 12.769531 20.988281 12.949219 20.96875 C 12.972656 20.964844 12.996094 20.964844 13.019531 20.960938 C 13.03125 20.960938 13.046875 20.957031 13.0625 20.957031 C 13.085938 20.953125 13.113281 20.949219 13.140625 20.945312 C 13.152344 20.945312 13.164062 20.941406 13.175781 20.941406 C 13.203125 20.9375 13.230469 20.933594 13.257812 20.929688 C 13.273438 20.929688 13.285156 20.925781 13.296875 20.925781 C 13.324219 20.921875 13.351562 20.917969 13.375 20.914062 C 13.382812 20.910156 13.390625 20.910156 13.394531 20.910156 C 17.90625 20.199219 21.335938 16.3125 21.335938 11.597656 C 21.335938 7.796875 19.105469 4.53125 15.875 3.039062 C 15.132812 2.792969 14.636719 3.535156 15.875 4.148438 C 18.539062 5.5625 20.339844 8.363281 20.339844 11.597656 C 20.339844 15.761719 17.355469 19.203125 13.394531 19.902344 L 13.394531 15.414062 C 13.765625 15.339844 14.117188 15.230469 14.386719 15.082031 L 14.386719 18.621094 C 14.570312 18.558594 14.746094 18.488281 14.917969 18.410156 C 14.945312 18.398438 14.96875 18.386719 14.992188 18.378906 C 15.007812 18.371094 15.027344 18.363281 15.042969 18.355469 C 15.066406 18.34375 15.089844 18.332031 15.117188 18.320312 C 15.132812 18.3125 15.152344 18.300781 15.171875 18.292969 C 15.191406 18.28125 15.214844 18.273438 15.238281 18.261719 C 15.238281 18.257812 15.242188 18.257812 15.242188 18.257812 C 15.257812 18.25 15.273438 18.242188 15.289062 18.234375 C 15.308594 18.226562 15.328125 18.214844 15.347656 18.203125 C 15.359375 18.199219 15.371094 18.195312 15.378906 18.1875 C 17.746094 16.945312 19.347656 14.464844 19.347656 11.597656 C 19.347656 10.34375 19.042969 9.160156 18.496094 8.125 C 17.613281 6.886719 17.117188 7.628906 17.347656 8.125 C 17.988281 9.128906 18.355469 10.316406 18.355469 11.597656 C 18.355469 13.890625 17.171875 15.898438 15.378906 17.039062 L 15.378906 14.328125 C 15.683594 14.101562 15.875 13.742188 15.875 13.335938 C 15.875 12.734375 15.453125 12.234375 14.882812 12.121094 L 14.882812 12.09375 C 14.882812 10.855469 15.378906 10.109375 16.371094 9.613281 C 16.867188 9.367188 17.117188 8.871094 16.621094 7.878906 C 16.125 6.886719 14.636719 4.652344 13.644531 3.660156 C 13.148438 3.164062 12.402344 2.617188 11.90625 2.617188 Z M 9.179688 12.589844 C 9.589844 12.589844 9.921875 12.921875 9.921875 13.335938 C 9.921875 13.746094 9.589844 14.078125 9.179688 14.078125 C 8.765625 14.078125 8.433594 13.746094 8.433594 13.335938 C 8.433594 12.921875 8.765625 12.589844 9.179688 12.589844 Z M 14.636719 12.589844 C 15.046875 12.589844 15.378906 12.921875 15.378906 13.335938 C 15.378906 13.746094 15.046875 14.078125 14.636719 14.078125 C 14.222656 14.078125 13.890625 13.746094 13.890625 13.335938 C 13.890625 12.921875 14.222656 12.589844 14.636719 12.589844 Z M 14.636719 12.589844 "/>
<path style=" stroke:none;fill-rule:nonzero;fill:url(#linear4);" d="M 9.179688 12.589844 C 9.589844 12.589844 9.921875 12.925781 9.921875 13.335938 C 9.921875 13.746094 9.589844 14.078125 9.179688 14.078125 C 8.769531 14.078125 8.433594 13.746094 8.433594 13.335938 C 8.433594 12.925781 8.769531 12.589844 9.179688 12.589844 Z M 9.179688 12.589844 "/>
<path style=" stroke:none;fill-rule:nonzero;fill:rgb(100%,100%,100%);fill-opacity:0.392157;" d="M 11.90625 2.617188 C 11.410156 2.617188 10.667969 3.164062 10.171875 3.660156 C 9.179688 4.652344 7.691406 6.886719 7.195312 7.878906 C 6.972656 8.316406 6.902344 8.660156 6.929688 8.925781 C 6.953125 8.699219 7.035156 8.433594 7.195312 8.113281 C 7.691406 7.121094 9.179688 4.886719 10.171875 3.894531 C 10.667969 3.398438 11.410156 2.855469 11.90625 2.855469 C 12.402344 2.855469 13.148438 3.398438 13.644531 3.894531 C 14.636719 4.886719 16.125 7.121094 16.621094 8.113281 C 16.78125 8.433594 16.863281 8.699219 16.886719 8.925781 C 16.914062 8.660156 16.839844 8.316406 16.621094 7.878906 C 16.125 6.886719 14.636719 4.652344 13.644531 3.660156 C 13.148438 3.164062 12.402344 2.617188 11.90625 2.617188 Z M 8.234375 2.992188 C 8.144531 2.988281 8.042969 3.003906 7.9375 3.039062 C 4.710938 4.53125 2.480469 7.796875 2.480469 11.597656 C 2.480469 11.636719 2.480469 11.679688 2.480469 11.71875 C 2.527344 7.964844 4.742188 4.753906 7.9375 3.277344 C 8.296875 3.15625 8.597656 3.265625 8.675781 3.480469 C 8.761719 3.203125 8.554688 2.996094 8.234375 2.992188 Z M 15.582031 2.992188 C 15.261719 2.996094 15.054688 3.203125 15.140625 3.480469 C 15.21875 3.265625 15.519531 3.15625 15.875 3.277344 C 19.070312 4.753906 21.289062 7.964844 21.332031 11.71875 C 21.332031 11.679688 21.335938 11.636719 21.335938 11.597656 C 21.335938 7.796875 19.105469 4.53125 15.875 3.039062 C 15.773438 3.003906 15.671875 2.988281 15.582031 2.992188 Z M 6.179688 7.445312 C 5.972656 7.445312 5.675781 7.621094 5.316406 8.125 C 4.773438 9.160156 4.464844 10.34375 4.464844 11.597656 C 4.464844 11.636719 4.464844 11.675781 4.464844 11.710938 C 4.484375 10.503906 4.789062 9.363281 5.316406 8.363281 C 5.988281 7.421875 6.433594 7.621094 6.511719 7.988281 C 6.5625 7.722656 6.4375 7.449219 6.179688 7.445312 Z M 17.632812 7.445312 C 17.375 7.449219 17.25 7.722656 17.304688 7.988281 C 17.382812 7.621094 17.828125 7.421875 18.496094 8.363281 C 19.023438 9.363281 19.328125 10.503906 19.347656 11.714844 C 19.347656 11.675781 19.347656 11.636719 19.347656 11.597656 C 19.347656 10.34375 19.042969 9.160156 18.496094 8.125 C 18.136719 7.621094 17.84375 7.445312 17.632812 7.445312 Z M 18.355469 11.714844 C 18.316406 13.957031 17.140625 15.917969 15.378906 17.039062 L 15.378906 17.277344 C 17.171875 16.132812 18.355469 14.128906 18.355469 11.835938 C 18.355469 11.792969 18.355469 11.753906 18.355469 11.714844 Z M 5.457031 11.714844 C 5.457031 11.753906 5.457031 11.792969 5.457031 11.835938 C 5.457031 14.128906 6.640625 16.132812 8.433594 17.277344 L 8.433594 17.039062 C 6.671875 15.917969 5.496094 13.957031 5.457031 11.714844 Z M 3.472656 11.714844 C 3.472656 11.753906 3.472656 11.792969 3.472656 11.835938 C 3.472656 16 6.460938 19.441406 10.417969 20.140625 L 10.417969 19.902344 C 6.5 19.210938 3.53125 15.828125 3.472656 11.714844 Z M 20.339844 11.714844 C 20.285156 15.828125 17.316406 19.210938 13.394531 19.902344 L 13.394531 20.140625 C 17.355469 19.441406 20.339844 16 20.339844 11.835938 C 20.339844 11.792969 20.339844 11.753906 20.339844 11.714844 Z M 8.925781 12.121094 C 8.359375 12.238281 7.9375 12.734375 7.9375 13.335938 C 7.9375 13.375 7.941406 13.414062 7.945312 13.453125 C 7.996094 12.90625 8.402344 12.460938 8.929688 12.355469 L 8.929688 12.332031 C 8.929688 12.257812 8.929688 12.1875 8.925781 12.121094 Z M 14.890625 12.121094 C 14.886719 12.1875 14.882812 12.257812 14.882812 12.332031 L 14.882812 12.355469 C 15.414062 12.460938 15.820312 12.90625 15.871094 13.453125 C 15.875 13.414062 15.875 13.375 15.875 13.335938 C 15.875 12.734375 15.453125 12.238281 14.890625 12.121094 Z M 8.445312 13.453125 C 8.4375 13.492188 8.433594 13.53125 8.433594 13.570312 C 8.433594 13.984375 8.765625 14.316406 9.179688 14.316406 C 9.589844 14.316406 9.921875 13.984375 9.921875 13.570312 C 9.921875 13.53125 9.917969 13.492188 9.914062 13.453125 C 9.855469 13.808594 9.550781 14.078125 9.179688 14.078125 C 8.804688 14.078125 8.5 13.808594 8.445312 13.453125 Z M 13.902344 13.453125 C 13.894531 13.492188 13.890625 13.53125 13.890625 13.570312 C 13.890625 13.984375 14.222656 14.316406 14.636719 14.316406 C 15.046875 14.316406 15.378906 13.984375 15.378906 13.570312 C 15.378906 13.53125 15.378906 13.492188 15.371094 13.453125 C 15.316406 13.808594 15.007812 14.078125 14.636719 14.078125 C 14.265625 14.078125 13.957031 13.808594 13.902344 13.453125 Z M 13.902344 13.453125 "/>
<path style=" stroke:none;fill-rule:nonzero;fill:rgb(0%,0%,0%);fill-opacity:0.235294;" d="M 8.671875 3.242188 C 8.605469 3.441406 8.386719 3.679688 7.9375 3.902344 C 5.277344 5.316406 3.472656 8.113281 3.472656 11.351562 C 3.472656 11.390625 3.472656 11.433594 3.472656 11.472656 C 3.519531 8.289062 5.3125 5.546875 7.9375 4.148438 C 8.585938 3.828125 8.761719 3.472656 8.671875 3.242188 Z M 15.144531 3.242188 C 15.054688 3.472656 15.226562 3.828125 15.875 4.148438 C 18.503906 5.546875 20.292969 8.289062 20.339844 11.472656 C 20.339844 11.433594 20.339844 11.390625 20.339844 11.351562 C 20.339844 8.113281 18.539062 5.316406 15.875 3.902344 C 15.429688 3.679688 15.207031 3.441406 15.144531 3.242188 Z M 6.507812 7.746094 C 6.5 7.789062 6.484375 7.835938 6.464844 7.878906 C 5.828125 8.878906 5.457031 10.070312 5.457031 11.351562 C 5.457031 11.390625 5.457031 11.433594 5.457031 11.472656 C 5.480469 10.242188 5.847656 9.09375 6.464844 8.125 C 6.523438 8.003906 6.535156 7.867188 6.507812 7.746094 Z M 17.304688 7.746094 C 17.277344 7.867188 17.292969 8.003906 17.347656 8.125 C 17.964844 9.09375 18.332031 10.242188 18.355469 11.472656 C 18.355469 11.433594 18.355469 11.390625 18.355469 11.351562 C 18.355469 10.070312 17.988281 8.878906 17.347656 7.878906 C 17.328125 7.835938 17.316406 7.789062 17.304688 7.746094 Z M 6.929688 8.683594 C 6.882812 9.160156 7.105469 9.445312 7.441406 9.613281 C 8.375 10.078125 8.867188 10.765625 8.925781 11.871094 C 8.925781 11.871094 8.929688 11.871094 8.929688 11.871094 L 8.929688 11.847656 C 8.929688 10.605469 8.433594 9.863281 7.441406 9.367188 C 7.167969 9.230469 6.96875 9.015625 6.929688 8.683594 Z M 16.882812 8.683594 C 16.847656 9.015625 16.648438 9.230469 16.371094 9.367188 C 15.378906 9.863281 14.882812 10.605469 14.882812 11.847656 L 14.882812 11.871094 C 14.886719 11.871094 14.886719 11.871094 14.890625 11.871094 C 14.945312 10.765625 15.441406 10.078125 16.371094 9.613281 C 16.710938 9.445312 16.933594 9.160156 16.882812 8.683594 Z M 19.347656 11.472656 C 19.304688 14.289062 17.710938 16.714844 15.378906 17.941406 C 15.371094 17.945312 15.359375 17.949219 15.347656 17.957031 C 15.328125 17.964844 15.308594 17.976562 15.289062 17.988281 C 15.273438 17.996094 15.257812 18.003906 15.242188 18.011719 C 15.242188 18.011719 15.238281 18.011719 15.238281 18.011719 C 15.214844 18.023438 15.191406 18.035156 15.171875 18.046875 C 15.152344 18.054688 15.132812 18.0625 15.117188 18.070312 C 15.117188 18.070312 15.117188 18.074219 15.117188 18.074219 C 15.089844 18.082031 15.066406 18.09375 15.042969 18.105469 C 15.027344 18.113281 15.007812 18.121094 14.992188 18.128906 C 14.96875 18.140625 14.945312 18.152344 14.917969 18.164062 C 14.746094 18.238281 14.570312 18.308594 14.386719 18.371094 L 14.386719 18.621094 C 14.570312 18.558594 14.746094 18.488281 14.917969 18.410156 C 14.945312 18.398438 14.96875 18.386719 14.992188 18.378906 C 15.007812 18.371094 15.027344 18.363281 15.042969 18.355469 C 15.066406 18.34375 15.089844 18.332031 15.117188 18.320312 C 15.132812 18.3125 15.152344 18.300781 15.171875 18.292969 C 15.191406 18.28125 15.214844 18.273438 15.238281 18.261719 C 15.238281 18.257812 15.242188 18.257812 15.242188 18.257812 C 15.257812 18.25 15.273438 18.242188 15.289062 18.234375 C 15.308594 18.226562 15.328125 18.214844 15.347656 18.203125 C 15.359375 18.199219 15.371094 18.195312 15.378906 18.1875 C 17.746094 16.945312 19.347656 14.464844 19.347656 11.597656 C 19.347656 11.558594 19.347656 11.515625 19.347656 11.472656 Z M 4.464844 11.472656 C 4.464844 11.515625 4.464844 11.558594 4.464844 11.597656 C 4.464844 14.464844 6.070312 16.945312 8.433594 18.1875 C 8.445312 18.195312 8.457031 18.199219 8.464844 18.203125 C 8.484375 18.214844 8.503906 18.226562 8.523438 18.234375 C 8.539062 18.242188 8.554688 18.25 8.570312 18.257812 C 8.574219 18.257812 8.574219 18.257812 8.578125 18.261719 C 8.597656 18.273438 8.621094 18.28125 8.644531 18.292969 C 8.664062 18.300781 8.679688 18.3125 8.699219 18.320312 C 8.722656 18.332031 8.746094 18.34375 8.773438 18.355469 C 8.789062 18.363281 8.804688 18.371094 8.820312 18.378906 C 8.847656 18.386719 8.871094 18.398438 8.894531 18.410156 C 9.070312 18.488281 9.246094 18.558594 9.425781 18.621094 L 9.425781 18.371094 C 9.246094 18.308594 9.070312 18.238281 8.894531 18.164062 C 8.871094 18.152344 8.847656 18.140625 8.820312 18.128906 C 8.804688 18.121094 8.789062 18.113281 8.773438 18.105469 C 8.746094 18.09375 8.722656 18.082031 8.699219 18.074219 C 8.699219 18.074219 8.699219 18.070312 8.699219 18.070312 C 8.679688 18.0625 8.664062 18.054688 8.644531 18.046875 C 8.621094 18.035156 8.597656 18.023438 8.578125 18.011719 C 8.574219 18.011719 8.574219 18.011719 8.570312 18.011719 C 8.554688 18.003906 8.539062 17.996094 8.523438 17.988281 C 8.503906 17.976562 8.484375 17.964844 8.464844 17.957031 C 8.457031 17.949219 8.445312 17.945312 8.433594 17.941406 C 6.105469 16.714844 4.511719 14.289062 4.464844 11.472656 Z M 2.480469 11.476562 C 2.480469 11.515625 2.480469 11.558594 2.480469 11.597656 C 2.480469 16.3125 5.910156 20.199219 10.417969 20.910156 C 10.425781 20.910156 10.433594 20.910156 10.441406 20.914062 C 10.464844 20.917969 10.492188 20.921875 10.515625 20.925781 C 10.53125 20.925781 10.542969 20.929688 10.558594 20.929688 C 10.585938 20.933594 10.613281 20.9375 10.640625 20.941406 C 10.652344 20.941406 10.664062 20.945312 10.675781 20.945312 C 10.699219 20.949219 10.726562 20.953125 10.753906 20.957031 C 10.765625 20.957031 10.78125 20.960938 10.796875 20.960938 C 10.820312 20.964844 10.839844 20.964844 10.863281 20.96875 C 11.042969 20.988281 11.226562 21.003906 11.410156 21.011719 L 11.410156 20.765625 C 11.226562 20.753906 11.042969 20.742188 10.863281 20.71875 C 10.839844 20.71875 10.820312 20.714844 10.796875 20.714844 C 10.78125 20.710938 10.765625 20.710938 10.753906 20.707031 C 10.726562 20.703125 10.699219 20.703125 10.675781 20.699219 C 10.664062 20.695312 10.652344 20.695312 10.640625 20.691406 C 10.613281 20.691406 10.585938 20.6875 10.558594 20.683594 C 10.542969 20.679688 10.53125 20.679688 10.515625 20.675781 C 10.492188 20.671875 10.464844 20.667969 10.441406 20.664062 C 10.433594 20.664062 10.425781 20.664062 10.417969 20.660156 C 5.949219 19.957031 2.542969 16.136719 2.480469 11.476562 Z M 21.332031 11.476562 C 21.273438 16.136719 17.867188 19.957031 13.394531 20.660156 C 13.390625 20.664062 13.382812 20.664062 13.375 20.664062 C 13.351562 20.667969 13.324219 20.671875 13.296875 20.675781 C 13.285156 20.679688 13.273438 20.679688 13.257812 20.683594 C 13.230469 20.6875 13.203125 20.691406 13.175781 20.691406 C 13.164062 20.695312 13.152344 20.695312 13.140625 20.699219 C 13.113281 20.703125 13.085938 20.703125 13.0625 20.707031 C 13.046875 20.710938 13.03125 20.710938 13.019531 20.714844 C 12.996094 20.714844 12.972656 20.71875 12.949219 20.71875 C 12.769531 20.742188 12.585938 20.753906 12.402344 20.765625 L 12.402344 21.011719 C 12.585938 21.003906 12.769531 20.988281 12.949219 20.96875 C 12.972656 20.964844 12.996094 20.964844 13.019531 20.960938 C 13.03125 20.960938 13.046875 20.957031 13.0625 20.957031 C 13.085938 20.953125 13.113281 20.949219 13.140625 20.945312 C 13.152344 20.945312 13.164062 20.941406 13.175781 20.941406 C 13.203125 20.9375 13.230469 20.933594 13.257812 20.929688 C 13.273438 20.929688 13.285156 20.925781 13.296875 20.925781 C 13.324219 20.921875 13.351562 20.917969 13.375 20.914062 C 13.382812 20.910156 13.390625 20.910156 13.394531 20.910156 C 17.90625 20.199219 21.335938 16.3125 21.335938 11.597656 C 21.335938 11.558594 21.332031 11.515625 21.332031 11.476562 Z M 9.179688 12.34375 C 8.765625 12.34375 8.433594 12.675781 8.433594 13.085938 C 8.433594 13.128906 8.4375 13.171875 8.445312 13.210938 C 8.503906 12.859375 8.808594 12.589844 9.179688 12.589844 C 9.546875 12.589844 9.855469 12.859375 9.914062 13.210938 C 9.917969 13.171875 9.921875 13.128906 9.921875 13.085938 C 9.921875 12.675781 9.589844 12.34375 9.179688 12.34375 Z M 14.636719 12.34375 C 14.222656 12.34375 13.890625 12.675781 13.890625 13.085938 C 13.890625 13.128906 13.894531 13.171875 13.902344 13.210938 C 13.960938 12.859375 14.265625 12.589844 14.636719 12.589844 C 15.007812 12.589844 15.3125 12.859375 15.371094 13.210938 C 15.375 13.171875 15.378906 13.128906 15.378906 13.085938 C 15.378906 12.675781 15.046875 12.34375 14.636719 12.34375 Z M 15.871094 13.210938 C 15.835938 13.566406 15.652344 13.878906 15.378906 14.082031 L 15.378906 14.328125 C 15.683594 14.101562 15.875 13.742188 15.875 13.335938 C 15.875 13.292969 15.875 13.253906 15.871094 13.210938 Z M 7.945312 13.210938 C 7.941406 13.253906 7.9375 13.292969 7.9375 13.335938 C 7.9375 13.742188 8.132812 14.101562 8.433594 14.328125 L 8.433594 14.082031 C 8.164062 13.878906 7.980469 13.566406 7.945312 13.210938 Z M 9.425781 14.832031 L 9.425781 15.082031 C 9.699219 15.230469 10.050781 15.339844 10.417969 15.414062 L 10.417969 15.167969 C 10.050781 15.089844 9.699219 14.980469 9.425781 14.832031 Z M 14.386719 14.832031 C 14.117188 14.980469 13.765625 15.089844 13.394531 15.167969 L 13.394531 15.414062 C 13.765625 15.339844 14.117188 15.230469 14.386719 15.082031 Z M 11.410156 15.300781 L 11.410156 15.550781 C 11.589844 15.5625 11.757812 15.566406 11.90625 15.566406 C 12.058594 15.566406 12.226562 15.5625 12.402344 15.550781 L 12.402344 15.300781 C 12.226562 15.3125 12.058594 15.320312 11.90625 15.320312 C 11.757812 15.320312 11.589844 15.3125 11.410156 15.300781 Z M 11.410156 15.300781 "/>
<path style="fill-rule:nonzero;fill:url(#linear5);stroke-width:2.249994;stroke-linecap:round;stroke-linejoin:round;stroke:rgb(12.941177%,12.941177%,12.941177%);stroke-opacity:1;stroke-miterlimit:4;" d="M 309.553772 61.556923 C 313.970017 61.556923 317.469683 65.056589 317.469683 69.472834 C 317.469683 73.805754 313.970017 77.388745 309.553772 77.388745 C 305.137527 77.388745 301.637862 73.805754 301.637862 69.472834 C 301.637862 65.056589 305.137527 61.556923 309.553772 61.556923 Z M 309.553772 61.556923 " transform="matrix(0.0468795,0,0,0.0468795,0,10.079087)"/>
<path style=" stroke:none;fill-rule:nonzero;fill:rgb(12.941177%,12.941177%,12.941177%);fill-opacity:1;" d="M 11.90625 2.546875 C 11.632812 2.546875 11.316406 2.691406 11 2.894531 C 10.683594 3.097656 10.371094 3.359375 10.121094 3.609375 C 9.117188 4.617188 7.632812 6.839844 7.132812 7.847656 C 6.878906 8.351562 6.808594 8.738281 6.878906 9.039062 C 6.945312 9.34375 7.148438 9.546875 7.410156 9.675781 C 8.378906 10.160156 8.851562 10.863281 8.859375 12.066406 C 8.289062 12.207031 7.867188 12.71875 7.867188 13.335938 C 7.867188 13.75 8.0625 14.121094 8.363281 14.359375 L 8.363281 16.90625 C 6.652344 15.765625 5.527344 13.820312 5.527344 11.597656 C 5.527344 10.332031 5.894531 9.152344 6.523438 8.164062 C 6.527344 8.160156 6.527344 8.160156 6.53125 8.15625 C 6.59375 8.015625 6.609375 7.863281 6.578125 7.726562 C 6.546875 7.589844 6.464844 7.46875 6.339844 7.410156 C 6.210938 7.351562 6.046875 7.367188 5.867188 7.472656 C 5.6875 7.578125 5.484375 7.769531 5.261719 8.085938 C 5.257812 8.085938 5.257812 8.089844 5.257812 8.09375 C 4.707031 9.136719 4.394531 10.332031 4.394531 11.597656 C 4.394531 14.488281 6.011719 16.992188 8.394531 18.246094 C 8.398438 18.25 8.398438 18.25 8.402344 18.25 C 8.414062 18.257812 8.425781 18.261719 8.433594 18.265625 C 8.453125 18.277344 8.472656 18.289062 8.492188 18.296875 C 8.507812 18.304688 8.523438 18.3125 8.539062 18.320312 C 8.542969 18.320312 8.542969 18.324219 8.546875 18.324219 C 8.566406 18.335938 8.589844 18.347656 8.613281 18.355469 C 8.632812 18.367188 8.648438 18.375 8.667969 18.382812 C 8.691406 18.394531 8.71875 18.40625 8.742188 18.417969 C 8.757812 18.425781 8.777344 18.433594 8.792969 18.441406 C 8.816406 18.453125 8.84375 18.464844 8.867188 18.476562 C 9.042969 18.550781 9.222656 18.621094 9.402344 18.6875 C 9.425781 18.695312 9.449219 18.691406 9.46875 18.679688 C 9.484375 18.664062 9.496094 18.644531 9.496094 18.621094 L 9.496094 15.195312 C 9.746094 15.316406 10.039062 15.40625 10.347656 15.472656 L 10.347656 19.816406 C 6.464844 19.089844 3.542969 15.699219 3.542969 11.597656 C 3.542969 8.390625 5.332031 5.613281 7.972656 4.210938 L 7.96875 4.210938 C 8.285156 4.054688 8.496094 3.890625 8.621094 3.726562 C 8.746094 3.5625 8.789062 3.394531 8.75 3.253906 C 8.710938 3.113281 8.597656 3.007812 8.449219 2.957031 C 8.300781 2.90625 8.113281 2.90625 7.917969 2.972656 C 7.914062 2.972656 7.910156 2.976562 7.910156 2.976562 C 4.65625 4.480469 2.410156 7.769531 2.410156 11.597656 C 2.410156 16.347656 5.863281 20.261719 10.402344 20.976562 C 10.40625 20.976562 10.40625 20.980469 10.40625 20.980469 C 10.414062 20.980469 10.421875 20.980469 10.429688 20.980469 C 10.453125 20.984375 10.480469 20.988281 10.507812 20.992188 C 10.519531 20.996094 10.53125 20.996094 10.546875 21 C 10.574219 21.003906 10.601562 21.007812 10.628906 21.011719 C 10.640625 21.011719 10.652344 21.015625 10.664062 21.015625 C 10.691406 21.019531 10.71875 21.023438 10.746094 21.027344 C 10.757812 21.027344 10.773438 21.027344 10.789062 21.03125 C 10.8125 21.035156 10.832031 21.035156 10.855469 21.039062 C 11.039062 21.058594 11.222656 21.074219 11.40625 21.082031 C 11.425781 21.082031 11.445312 21.078125 11.460938 21.0625 C 11.472656 21.050781 11.480469 21.03125 11.480469 21.011719 L 11.480469 15.625 C 11.632812 15.632812 11.777344 15.636719 11.90625 15.636719 C 12.039062 15.636719 12.183594 15.632812 12.332031 15.625 L 12.332031 21.011719 C 12.332031 21.03125 12.339844 21.050781 12.355469 21.0625 C 12.367188 21.078125 12.386719 21.082031 12.40625 21.082031 C 12.59375 21.074219 12.777344 21.058594 12.957031 21.039062 C 12.980469 21.035156 13.003906 21.035156 13.027344 21.03125 C 13.042969 21.027344 13.054688 21.027344 13.070312 21.027344 C 13.097656 21.023438 13.121094 21.019531 13.148438 21.015625 C 13.160156 21.015625 13.171875 21.011719 13.183594 21.011719 C 13.210938 21.007812 13.242188 21.003906 13.269531 21 C 13.28125 20.996094 13.296875 20.996094 13.308594 20.992188 C 13.335938 20.988281 13.359375 20.984375 13.386719 20.980469 C 13.390625 20.980469 13.398438 20.980469 13.40625 20.980469 C 13.410156 20.980469 13.410156 20.976562 13.410156 20.976562 C 17.953125 20.261719 21.40625 16.347656 21.40625 11.597656 C 21.40625 7.769531 19.160156 4.480469 15.90625 2.976562 C 15.902344 2.976562 15.902344 2.972656 15.898438 2.972656 C 15.699219 2.90625 15.515625 2.90625 15.367188 2.957031 C 15.214844 3.007812 15.101562 3.113281 15.0625 3.253906 C 15.027344 3.394531 15.066406 3.5625 15.191406 3.726562 C 15.316406 3.890625 15.527344 4.054688 15.84375 4.210938 C 18.480469 5.613281 20.269531 8.390625 20.269531 11.597656 C 20.269531 15.699219 17.351562 19.089844 13.464844 19.816406 L 13.464844 15.472656 C 13.773438 15.40625 14.070312 15.316406 14.316406 15.195312 L 14.316406 18.621094 C 14.316406 18.644531 14.328125 18.664062 14.347656 18.679688 C 14.367188 18.691406 14.390625 18.695312 14.410156 18.6875 C 14.59375 18.621094 14.773438 18.550781 14.949219 18.476562 C 14.972656 18.464844 14.996094 18.453125 15.023438 18.441406 C 15.039062 18.433594 15.054688 18.425781 15.074219 18.417969 C 15.097656 18.40625 15.121094 18.394531 15.144531 18.382812 C 15.164062 18.375 15.183594 18.367188 15.203125 18.355469 C 15.222656 18.347656 15.246094 18.335938 15.269531 18.324219 C 15.269531 18.324219 15.273438 18.320312 15.273438 18.320312 C 15.289062 18.3125 15.304688 18.304688 15.320312 18.296875 C 15.339844 18.289062 15.359375 18.277344 15.382812 18.265625 C 15.390625 18.261719 15.402344 18.257812 15.414062 18.25 C 15.414062 18.25 15.417969 18.25 15.417969 18.246094 C 17.800781 16.992188 19.417969 14.488281 19.417969 11.597656 C 19.417969 10.332031 19.109375 9.136719 18.558594 8.09375 C 18.558594 8.089844 18.554688 8.085938 18.554688 8.085938 C 18.328125 7.769531 18.128906 7.578125 17.945312 7.472656 C 17.765625 7.367188 17.601562 7.351562 17.476562 7.410156 C 17.347656 7.46875 17.269531 7.589844 17.238281 7.726562 C 17.207031 7.863281 17.21875 8.015625 17.285156 8.15625 C 17.285156 8.160156 17.289062 8.160156 17.289062 8.164062 C 17.921875 9.152344 18.285156 10.332031 18.285156 11.597656 C 18.285156 13.820312 17.160156 15.765625 15.449219 16.90625 L 15.449219 14.359375 C 15.753906 14.121094 15.945312 13.75 15.945312 13.335938 C 15.945312 12.71875 15.527344 12.207031 14.957031 12.066406 C 14.964844 10.863281 15.4375 10.160156 16.402344 9.675781 C 16.664062 9.546875 16.871094 9.34375 16.9375 9.039062 C 17.003906 8.738281 16.9375 8.351562 16.683594 7.847656 C 16.179688 6.839844 14.699219 4.617188 13.695312 3.609375 C 13.441406 3.359375 13.128906 3.097656 12.8125 2.894531 C 12.496094 2.691406 12.179688 2.546875 11.90625 2.546875 Z M 11.90625 2.6875 C 12.128906 2.6875 12.433594 2.816406 12.738281 3.011719 C 13.042969 3.207031 13.347656 3.464844 13.59375 3.710938 C 14.574219 4.691406 16.066406 6.929688 16.558594 7.910156 C 16.800781 8.398438 16.855469 8.753906 16.800781 9.007812 C 16.742188 9.265625 16.578125 9.433594 16.339844 9.550781 C 15.332031 10.054688 14.8125 10.835938 14.8125 12.09375 L 14.8125 12.121094 C 14.8125 12.152344 14.835938 12.183594 14.871094 12.1875 C 15.40625 12.296875 15.804688 12.765625 15.804688 13.335938 C 15.804688 13.71875 15.621094 14.058594 15.339844 14.273438 C 15.320312 14.285156 15.308594 14.304688 15.308594 14.328125 L 15.308594 17.039062 C 15.308594 17.066406 15.324219 17.089844 15.347656 17.101562 C 15.367188 17.113281 15.398438 17.113281 15.417969 17.097656 C 17.230469 15.945312 18.425781 13.914062 18.425781 11.597656 C 18.425781 10.308594 18.054688 9.105469 17.410156 8.09375 C 17.363281 7.984375 17.351562 7.859375 17.375 7.757812 C 17.398438 7.652344 17.453125 7.574219 17.535156 7.539062 C 17.613281 7.503906 17.722656 7.503906 17.875 7.59375 C 18.03125 7.683594 18.21875 7.859375 18.4375 8.164062 C 18.976562 9.1875 19.277344 10.355469 19.277344 11.597656 C 19.277344 14.441406 17.6875 16.894531 15.347656 18.125 C 15.335938 18.132812 15.328125 18.136719 15.316406 18.140625 C 15.296875 18.152344 15.277344 18.164062 15.257812 18.171875 C 15.242188 18.179688 15.226562 18.1875 15.210938 18.195312 C 15.210938 18.195312 15.210938 18.195312 15.207031 18.199219 C 15.183594 18.207031 15.164062 18.21875 15.140625 18.230469 C 15.121094 18.238281 15.105469 18.25 15.085938 18.257812 C 15.0625 18.269531 15.039062 18.28125 15.015625 18.289062 C 14.996094 18.296875 14.980469 18.304688 14.964844 18.3125 C 14.941406 18.324219 14.914062 18.335938 14.890625 18.347656 C 14.75 18.410156 14.605469 18.464844 14.457031 18.519531 L 14.457031 15.082031 C 14.457031 15.058594 14.445312 15.035156 14.425781 15.023438 C 14.402344 15.007812 14.375 15.007812 14.355469 15.019531 C 14.09375 15.164062 13.746094 15.269531 13.382812 15.347656 C 13.347656 15.355469 13.324219 15.382812 13.324219 15.414062 L 13.324219 19.902344 C 13.324219 19.925781 13.335938 19.945312 13.351562 19.957031 C 13.367188 19.96875 13.386719 19.976562 13.40625 19.972656 C 17.398438 19.265625 20.410156 15.796875 20.410156 11.597656 C 20.410156 8.335938 18.59375 5.515625 15.910156 4.085938 C 15.605469 3.9375 15.410156 3.78125 15.304688 3.640625 C 15.199219 3.5 15.175781 3.378906 15.199219 3.289062 C 15.222656 3.199219 15.296875 3.128906 15.410156 3.089844 C 15.523438 3.050781 15.679688 3.050781 15.851562 3.105469 C 19.054688 4.589844 21.265625 7.824219 21.265625 11.597656 C 21.265625 16.28125 17.863281 20.136719 13.386719 20.839844 C 13.375 20.839844 13.371094 20.84375 13.363281 20.84375 C 13.339844 20.847656 13.3125 20.851562 13.289062 20.855469 C 13.273438 20.855469 13.261719 20.859375 13.25 20.859375 C 13.222656 20.863281 13.195312 20.867188 13.167969 20.871094 C 13.152344 20.875 13.140625 20.875 13.132812 20.875 C 13.105469 20.878906 13.078125 20.882812 13.054688 20.886719 C 13.039062 20.886719 13.023438 20.890625 13.011719 20.890625 C 12.988281 20.894531 12.964844 20.894531 12.941406 20.898438 C 12.789062 20.914062 12.632812 20.929688 12.472656 20.9375 L 12.472656 15.550781 C 12.472656 15.53125 12.464844 15.511719 12.453125 15.5 C 12.4375 15.484375 12.417969 15.476562 12.398438 15.480469 C 12.222656 15.492188 12.054688 15.496094 11.90625 15.496094 C 11.757812 15.496094 11.59375 15.492188 11.417969 15.480469 C 11.398438 15.476562 11.378906 15.484375 11.363281 15.5 C 11.347656 15.511719 11.339844 15.53125 11.339844 15.550781 L 11.339844 20.9375 C 11.183594 20.929688 11.027344 20.914062 10.871094 20.898438 C 10.847656 20.894531 10.828125 20.894531 10.804688 20.890625 C 10.789062 20.890625 10.777344 20.886719 10.761719 20.886719 C 10.734375 20.882812 10.710938 20.878906 10.683594 20.875 C 10.671875 20.875 10.660156 20.875 10.648438 20.871094 C 10.621094 20.867188 10.59375 20.863281 10.566406 20.859375 C 10.554688 20.859375 10.539062 20.855469 10.527344 20.855469 C 10.5 20.851562 10.476562 20.847656 10.449219 20.84375 C 10.445312 20.84375 10.4375 20.839844 10.433594 20.839844 C 5.953125 20.136719 2.550781 16.28125 2.550781 11.597656 C 2.550781 7.824219 4.761719 4.589844 7.964844 3.105469 C 8.136719 3.050781 8.289062 3.050781 8.402344 3.089844 C 8.519531 3.128906 8.589844 3.199219 8.613281 3.289062 C 8.640625 3.378906 8.617188 3.5 8.511719 3.640625 C 8.402344 3.78125 8.210938 3.9375 7.90625 4.085938 C 5.222656 5.515625 3.402344 8.335938 3.402344 11.597656 C 3.402344 15.796875 6.414062 19.265625 10.40625 19.972656 C 10.425781 19.976562 10.449219 19.96875 10.464844 19.957031 C 10.480469 19.945312 10.488281 19.925781 10.488281 19.902344 L 10.488281 15.414062 C 10.488281 15.382812 10.464844 15.355469 10.433594 15.347656 C 10.066406 15.269531 9.722656 15.164062 9.460938 15.019531 C 9.4375 15.007812 9.414062 15.007812 9.390625 15.023438 C 9.371094 15.035156 9.355469 15.058594 9.355469 15.082031 L 9.355469 18.519531 C 9.210938 18.464844 9.066406 18.410156 8.925781 18.347656 C 8.898438 18.335938 8.875 18.324219 8.851562 18.3125 C 8.835938 18.304688 8.816406 18.296875 8.800781 18.289062 C 8.777344 18.28125 8.753906 18.269531 8.730469 18.257812 C 8.710938 18.25 8.691406 18.238281 8.675781 18.230469 C 8.652344 18.21875 8.628906 18.207031 8.609375 18.199219 C 8.605469 18.195312 8.605469 18.195312 8.601562 18.195312 C 8.585938 18.1875 8.574219 18.179688 8.558594 18.171875 C 8.539062 18.164062 8.519531 18.152344 8.5 18.140625 C 8.488281 18.136719 8.480469 18.132812 8.472656 18.128906 C 8.46875 18.125 8.46875 18.125 8.46875 18.125 C 6.125 16.894531 4.535156 14.441406 4.535156 11.597656 C 4.535156 10.355469 4.839844 9.1875 5.378906 8.164062 C 5.59375 7.859375 5.785156 7.683594 5.9375 7.59375 C 6.09375 7.503906 6.203125 7.503906 6.28125 7.539062 C 6.359375 7.574219 6.417969 7.652344 6.441406 7.757812 C 6.464844 7.859375 6.453125 7.984375 6.402344 8.09375 C 5.757812 9.105469 5.386719 10.308594 5.386719 11.597656 C 5.386719 13.914062 6.585938 15.945312 8.398438 17.097656 C 8.417969 17.113281 8.445312 17.113281 8.46875 17.101562 C 8.492188 17.089844 8.503906 17.066406 8.503906 17.039062 L 8.503906 14.328125 C 8.503906 14.304688 8.496094 14.285156 8.476562 14.273438 C 8.191406 14.058594 8.007812 13.71875 8.007812 13.335938 C 8.007812 12.765625 8.410156 12.296875 8.945312 12.1875 C 8.976562 12.183594 9 12.152344 9 12.121094 L 9 12.09375 C 9 10.835938 8.484375 10.054688 7.472656 9.550781 C 7.238281 9.433594 7.070312 9.265625 7.015625 9.007812 C 6.957031 8.753906 7.011719 8.398438 7.257812 7.910156 C 7.746094 6.929688 9.242188 4.691406 10.21875 3.710938 C 10.464844 3.464844 10.773438 3.207031 11.078125 3.011719 C 11.382812 2.816406 11.683594 2.6875 11.90625 2.6875 Z M 9.179688 12.519531 C 8.730469 12.519531 8.363281 12.886719 8.363281 13.335938 C 8.363281 13.785156 8.730469 14.148438 9.179688 14.148438 C 9.628906 14.148438 9.992188 13.785156 9.992188 13.335938 C 9.992188 12.886719 9.628906 12.519531 9.179688 12.519531 Z M 14.636719 12.519531 C 14.1875 12.519531 13.820312 12.886719 13.820312 13.335938 C 13.820312 13.785156 14.1875 14.148438 14.636719 14.148438 C 15.085938 14.148438 15.449219 13.785156 15.449219 13.335938 C 15.449219 12.886719 15.085938 12.519531 14.636719 12.519531 Z M 9.179688 12.660156 C 9.554688 12.660156 9.851562 12.960938 9.851562 13.335938 C 9.851562 13.710938 9.554688 14.007812 9.179688 14.007812 C 8.804688 14.007812 8.503906 13.710938 8.503906 13.335938 C 8.503906 12.960938 8.804688 12.660156 9.179688 12.660156 Z M 14.636719 12.660156 C 15.011719 12.660156 15.308594 12.960938 15.308594 13.335938 C 15.308594 13.710938 15.011719 14.007812 14.636719 14.007812 C 14.261719 14.007812 13.960938 13.710938 13.960938 13.335938 C 13.960938 12.960938 14.261719 12.660156 14.636719 12.660156 Z M 8.722656 18.253906 Z M 8.734375 18.257812 C 8.742188 18.261719 8.742188 18.265625 8.742188 18.265625 C 8.742188 18.265625 8.738281 18.261719 8.734375 18.257812 Z M 8.664062 18.382812 C 8.664062 18.382812 8.667969 18.382812 8.667969 18.382812 C 8.667969 18.382812 8.664062 18.382812 8.664062 18.382812 Z M 8.675781 18.386719 C 8.679688 18.386719 8.679688 18.386719 8.679688 18.386719 C 8.675781 18.386719 8.675781 18.386719 8.675781 18.386719 Z M 8.675781 18.386719 "/>
<path style=" stroke:none;fill-rule:nonzero;fill:rgb(100%,100%,100%);fill-opacity:0.235294;" d="M 9.242188 6.46875 L 9.273438 6.417969 C 9.632812 5.855469 10.105469 5.511719 10.332031 5.65625 L 10.351562 5.671875 C 10.578125 5.8125 10.46875 6.386719 10.109375 6.953125 L 10.078125 7 C 9.71875 7.566406 9.246094 7.90625 9.019531 7.761719 L 8.996094 7.75 C 8.773438 7.605469 8.882812 7.03125 9.242188 6.46875 Z M 9.242188 6.46875 "/>
<path style="fill-rule:nonzero;fill:url(#linear6);stroke-width:2.249994;stroke-linecap:round;stroke-linejoin:round;stroke:rgb(12.941177%,12.941177%,12.941177%);stroke-opacity:1;stroke-miterlimit:4;" d="M 198.397721 61.556923 C 202.813966 61.556923 206.396957 65.056589 206.396957 69.472834 C 206.396957 73.805754 202.813966 77.388745 198.397721 77.388745 C 194.064801 77.388745 190.48181 73.805754 190.48181 69.472834 C 190.48181 65.056589 194.064801 61.556923 198.397721 61.556923 Z M 198.397721 61.556923 " transform="matrix(0.0468795,0,0,0.0468795,0,10.079087)"/>
</g>
</svg>
