<?xml version="1.0" encoding="UTF-8"?>
<svg xmlns="http://www.w3.org/2000/svg" xmlns:xlink="http://www.w3.org/1999/xlink" width="24px" height="24px" viewBox="0 0 24 24" version="1.1">
<defs>
<radialGradient id="radial0" gradientUnits="userSpaceOnUse" cx="450.908936" cy="189.579361" fx="450.908936" fy="189.579361" r="21.166656" gradientTransform="matrix(0.000000130628,-0.0585994,-0.105479,-0.0000000761539,33.392364,47.6965)">
<stop offset="0" style="stop-color:rgb(0%,0%,0%);stop-opacity:0.313726;"/>
<stop offset="0.222222" style="stop-color:rgb(0%,0%,0%);stop-opacity:0.27451;"/>
<stop offset="1" style="stop-color:rgb(0%,0%,0%);stop-opacity:0;"/>
</radialGradient>
<radialGradient id="radial1" gradientUnits="userSpaceOnUse" cx="450.908936" cy="189.579361" fx="450.908936" fy="189.579361" r="21.166656" gradientTransform="matrix(-0.000000130628,0.0585994,0.105479,0.0000000761539,-9.577589,-5.645609)">
<stop offset="0" style="stop-color:rgb(0%,0%,0%);stop-opacity:0.313726;"/>
<stop offset="0.222222" style="stop-color:rgb(0%,0%,0%);stop-opacity:0.27451;"/>
<stop offset="1" style="stop-color:rgb(0%,0%,0%);stop-opacity:0;"/>
</radialGradient>
<radialGradient id="radial2" gradientUnits="userSpaceOnUse" cx="450.908936" cy="189.579361" fx="450.908936" fy="189.579361" r="21.166656" gradientTransform="matrix(-0.000000130628,-0.0585994,0.105479,-0.0000000761539,-9.577589,47.6965)">
<stop offset="0" style="stop-color:rgb(0%,0%,0%);stop-opacity:0.313726;"/>
<stop offset="0.222222" style="stop-color:rgb(0%,0%,0%);stop-opacity:0.27451;"/>
<stop offset="1" style="stop-color:rgb(0%,0%,0%);stop-opacity:0;"/>
</radialGradient>
<radialGradient id="radial3" gradientUnits="userSpaceOnUse" cx="450.908936" cy="189.579361" fx="450.908936" fy="189.579361" r="21.166656" gradientTransform="matrix(0.000000130628,0.0585994,-0.105479,0.0000000761539,33.392362,-5.645609)">
<stop offset="0" style="stop-color:rgb(0%,0%,0%);stop-opacity:0.313726;"/>
<stop offset="0.222222" style="stop-color:rgb(0%,0%,0%);stop-opacity:0.27451;"/>
<stop offset="1" style="stop-color:rgb(0%,0%,0%);stop-opacity:0;"/>
</radialGradient>
<linearGradient id="linear0" gradientUnits="userSpaceOnUse" x1="255.323059" y1="233.5" x2="255.323044" y2="254.666656" gradientTransform="matrix(0.01002,0,0,0.0468795,9.349039,10.07909)">
<stop offset="0" style="stop-color:rgb(0%,0%,0%);stop-opacity:0.27451;"/>
<stop offset="1" style="stop-color:rgb(0%,0%,0%);stop-opacity:0;"/>
</linearGradient>
<linearGradient id="linear1" gradientUnits="userSpaceOnUse" x1="254" y1="-168.666672" x2="254" y2="233.5" gradientTransform="matrix(0.0468795,0,0,0.0468795,0.000000923526,10.07909)">
<stop offset="0" style="stop-color:rgb(30.980393%,76.47059%,96.862745%);stop-opacity:1;"/>
<stop offset="1" style="stop-color:rgb(16.078432%,71.372551%,96.470588%);stop-opacity:1;"/>
</linearGradient>
<linearGradient id="linear2" gradientUnits="userSpaceOnUse" x1="264.583344" y1="233.5" x2="264.583344" y2="-179.25" gradientTransform="matrix(0.0468795,0,0,0.0468795,-0.4785,10.275365)">
<stop offset="0" style="stop-color:rgb(74.117649%,74.117649%,74.117649%);stop-opacity:1;"/>
<stop offset="1" style="stop-color:rgb(87.843138%,87.843138%,87.843138%);stop-opacity:1;"/>
</linearGradient>
</defs>
<g id="surface1">
<path style=" stroke:none;fill-rule:nonzero;fill:url(#radial0);" d="M 13.644531 21.027344 L 15.628906 21.027344 L 15.628906 20.03125 L 13.644531 20.03125 Z M 13.644531 21.027344 "/>
<path style=" stroke:none;fill-rule:nonzero;fill:url(#radial1);" d="M 10.171875 21.027344 L 8.1875 21.027344 L 8.1875 22.019531 L 10.171875 22.019531 Z M 10.171875 21.027344 "/>
<path style=" stroke:none;fill-rule:nonzero;fill:url(#radial2);" d="M 10.171875 21.027344 L 8.1875 21.027344 L 8.1875 20.03125 L 10.171875 20.03125 Z M 10.171875 21.027344 "/>
<path style=" stroke:none;fill-rule:nonzero;fill:url(#radial3);" d="M 13.644531 21.027344 L 15.628906 21.027344 L 15.628906 22.019531 L 13.644531 22.019531 Z M 13.644531 21.027344 "/>
<path style=" stroke:none;fill-rule:nonzero;fill:url(#linear0);" d="M 10.171875 20.777344 L 13.644531 20.777344 L 13.644531 22.019531 L 10.171875 22.019531 Z M 10.171875 20.777344 "/>
<path style=" stroke:none;fill-rule:nonzero;fill:url(#linear1);" d="M 11.90625 2.171875 C 17.113281 2.171875 21.335938 6.390625 21.335938 11.597656 C 21.335938 16.804688 17.113281 21.027344 11.90625 21.027344 C 6.703125 21.027344 2.480469 16.804688 2.480469 11.597656 C 2.480469 6.390625 6.703125 2.171875 11.90625 2.171875 Z M 11.90625 2.171875 "/>
<path style=" stroke:none;fill-rule:nonzero;fill:rgb(0%,0%,0%);fill-opacity:0.196078;" d="M 11.90625 21.027344 C 6.683594 21.027344 2.480469 16.820312 2.480469 11.597656 C 2.480469 11.566406 2.480469 11.539062 2.480469 11.507812 C 2.53125 16.6875 6.714844 20.839844 11.90625 20.839844 C 17.097656 20.839844 21.285156 16.6875 21.332031 11.507812 C 21.332031 11.539062 21.335938 11.566406 21.335938 11.597656 C 21.335938 16.820312 17.128906 21.027344 11.90625 21.027344 Z M 11.90625 21.027344 "/>
<path style=" stroke:none;fill-rule:nonzero;fill:rgb(100%,100%,100%);fill-opacity:0.392157;" d="M 11.90625 2.171875 C 6.683594 2.171875 2.480469 6.375 2.480469 11.597656 C 2.480469 11.628906 2.480469 11.660156 2.480469 11.691406 C 2.53125 6.511719 6.714844 2.355469 11.90625 2.355469 C 17.097656 2.355469 21.285156 6.511719 21.332031 11.691406 C 21.332031 11.660156 21.335938 11.628906 21.335938 11.597656 C 21.335938 6.375 17.128906 2.171875 11.90625 2.171875 Z M 11.90625 2.171875 "/>
<path style=" stroke:none;fill-rule:nonzero;fill:rgb(12.941177%,12.941177%,12.941177%);fill-opacity:1;" d="M 11.90625 2.101562 C 6.648438 2.101562 2.410156 6.339844 2.410156 11.597656 C 2.410156 16.859375 6.648438 21.097656 11.90625 21.097656 C 17.167969 21.097656 21.40625 16.859375 21.40625 11.597656 C 21.40625 6.339844 17.167969 2.101562 11.90625 2.101562 Z M 11.90625 2.242188 C 17.09375 2.242188 21.265625 6.414062 21.265625 11.597656 C 21.265625 16.785156 17.09375 20.957031 11.90625 20.957031 C 6.722656 20.957031 2.550781 16.785156 2.550781 11.597656 C 2.550781 6.414062 6.722656 2.242188 11.90625 2.242188 Z M 11.90625 2.242188 "/>
<path style=" stroke:none;fill-rule:nonzero;fill:url(#linear2);" d="M 8.929688 2.171875 C 8.285156 2.183594 7.765625 2.714844 7.777344 3.359375 L 7.777344 18.246094 C 7.777344 18.890625 8.300781 19.417969 8.949219 19.417969 C 8.949219 19.417969 11.832031 19.40625 14.613281 17.320312 C 17.394531 15.238281 20.042969 11.0625 20.042969 3.359375 C 20.050781 2.9375 19.828125 2.542969 19.460938 2.332031 C 19.097656 2.117188 18.644531 2.117188 18.28125 2.332031 C 17.914062 2.542969 17.691406 2.9375 17.699219 3.359375 C 17.699219 10.542969 15.386719 13.8125 13.207031 15.445312 C 12.046875 16.316406 10.925781 16.714844 10.121094 16.902344 L 10.121094 3.359375 C 10.125 3.042969 10 2.738281 9.777344 2.515625 C 9.550781 2.289062 9.246094 2.167969 8.929688 2.171875 Z M 8.929688 2.171875 "/>
<path style=" stroke:none;fill-rule:nonzero;fill:rgb(100%,100%,100%);fill-opacity:1;" d="M 8.929688 2.171875 C 8.285156 2.183594 7.765625 2.714844 7.777344 3.359375 L 7.777344 3.609375 C 7.765625 2.960938 8.285156 2.429688 8.929688 2.421875 C 9.246094 2.414062 9.550781 2.539062 9.777344 2.761719 C 10 2.988281 10.125 3.292969 10.121094 3.609375 L 10.121094 3.359375 C 10.125 3.042969 10 2.738281 9.777344 2.515625 C 9.550781 2.289062 9.246094 2.167969 8.929688 2.171875 Z M 18.851562 2.171875 C 18.207031 2.183594 17.691406 2.714844 17.699219 3.359375 C 17.699219 10.542969 15.386719 13.8125 13.207031 15.445312 C 12.046875 16.316406 10.925781 16.714844 10.121094 16.902344 L 10.121094 17.152344 C 10.925781 16.964844 12.046875 16.566406 13.207031 15.695312 C 15.386719 14.058594 17.699219 10.789062 17.699219 3.609375 C 17.683594 3.183594 17.898438 2.78125 18.265625 2.558594 C 18.628906 2.339844 19.085938 2.335938 19.457031 2.546875 C 19.824219 2.761719 20.050781 3.160156 20.042969 3.585938 C 20.042969 3.511719 20.042969 3.4375 20.042969 3.359375 C 20.046875 3.042969 19.921875 2.738281 19.699219 2.515625 C 19.476562 2.289062 19.171875 2.167969 18.851562 2.171875 Z M 18.851562 2.171875 "/>
<path style=" stroke:none;fill-rule:nonzero;fill:rgb(0%,0%,0%);fill-opacity:0.235294;" d="M 20.042969 3.710938 C 19.960938 11.191406 17.351562 15.269531 14.613281 17.320312 C 11.832031 19.40625 8.949219 19.417969 8.949219 19.417969 C 8.300781 19.417969 7.777344 18.890625 7.777344 18.246094 L 7.777344 18.644531 C 7.777344 19.292969 8.300781 19.816406 8.949219 19.816406 C 8.949219 19.816406 11.832031 19.808594 14.613281 17.722656 C 17.394531 15.636719 20.042969 11.464844 20.042969 3.761719 C 20.042969 3.746094 20.042969 3.726562 20.042969 3.710938 Z M 20.042969 3.710938 "/>
<path style="fill:none;stroke-width:3;stroke-linecap:round;stroke-linejoin:round;stroke:rgb(12.941177%,12.941177%,12.941177%);stroke-opacity:1;stroke-miterlimit:4;" d="M 190.48181 -168.671091 C 176.733123 -168.421115 165.650848 -157.088864 165.900824 -143.340177 L 165.900824 174.212832 C 165.900824 187.961519 177.066424 199.210445 190.898437 199.210445 C 190.898437 199.210445 252.392564 198.960469 311.720232 154.464718 C 371.0479 110.052292 427.542505 20.977465 427.542505 -143.340177 C 427.709156 -152.339317 422.959609 -160.75518 415.127024 -165.25475 C 407.377764 -169.837646 397.71202 -169.837646 389.96276 -165.25475 C 382.130175 -160.75518 377.380629 -152.339317 377.547279 -143.340177 C 377.547279 9.89519 328.218657 79.63853 281.723097 114.468537 C 256.97546 133.050096 233.061077 141.549285 215.89605 145.548903 L 215.89605 -143.340177 C 215.979375 -150.089532 213.312963 -156.588911 208.563417 -161.338458 C 203.730545 -166.17133 197.231165 -168.754416 190.48181 -168.671091 Z M 190.48181 -168.671091 " transform="matrix(0.0468795,0,0,0.0468795,0,10.079087)"/>
</g>
</svg>
