<?xml version="1.0" encoding="UTF-8"?>
<svg xmlns="http://www.w3.org/2000/svg" xmlns:xlink="http://www.w3.org/1999/xlink" width="24px" height="24px" viewBox="0 0 24 24" version="1.1">
<defs>
<linearGradient id="linear0" gradientUnits="userSpaceOnUse" x1="254" y1="233.5" x2="254" y2="254.666672" gradientTransform="matrix(0.0468795,0,0,0.0468795,-0.0000028613,9.086806)">
<stop offset="0" style="stop-color:rgb(0%,0%,0%);stop-opacity:0.27451;"/>
<stop offset="1" style="stop-color:rgb(0%,0%,0%);stop-opacity:0;"/>
</linearGradient>
<radialGradient id="radial0" gradientUnits="userSpaceOnUse" cx="450.908936" cy="189.579361" fx="450.908936" fy="189.579361" r="21.166656" gradientTransform="matrix(0.000000130628,-0.0585994,-0.105479,-0.0000000761539,40.090268,46.704216)">
<stop offset="0" style="stop-color:rgb(0%,0%,0%);stop-opacity:0.313726;"/>
<stop offset="0.222222" style="stop-color:rgb(0%,0%,0%);stop-opacity:0.27451;"/>
<stop offset="1" style="stop-color:rgb(0%,0%,0%);stop-opacity:0;"/>
</radialGradient>
<radialGradient id="radial1" gradientUnits="userSpaceOnUse" cx="450.908936" cy="189.579361" fx="450.908936" fy="189.579361" r="21.166656" gradientTransform="matrix(-0.000000130628,0.0585994,0.105479,0.0000000761539,-16.275496,-6.637892)">
<stop offset="0" style="stop-color:rgb(0%,0%,0%);stop-opacity:0.313726;"/>
<stop offset="0.222222" style="stop-color:rgb(0%,0%,0%);stop-opacity:0.27451;"/>
<stop offset="1" style="stop-color:rgb(0%,0%,0%);stop-opacity:0;"/>
</radialGradient>
<radialGradient id="radial2" gradientUnits="userSpaceOnUse" cx="450.908936" cy="189.579361" fx="450.908936" fy="189.579361" r="21.166656" gradientTransform="matrix(-0.000000130628,-0.0585994,0.105479,-0.0000000761539,-16.275496,46.704216)">
<stop offset="0" style="stop-color:rgb(0%,0%,0%);stop-opacity:0.313726;"/>
<stop offset="0.222222" style="stop-color:rgb(0%,0%,0%);stop-opacity:0.27451;"/>
<stop offset="1" style="stop-color:rgb(0%,0%,0%);stop-opacity:0;"/>
</radialGradient>
<radialGradient id="radial3" gradientUnits="userSpaceOnUse" cx="450.908936" cy="189.579361" fx="450.908936" fy="189.579361" r="21.166656" gradientTransform="matrix(0.000000130628,0.0585994,-0.105479,0.0000000761539,40.090267,-6.637893)">
<stop offset="0" style="stop-color:rgb(0%,0%,0%);stop-opacity:0.313726;"/>
<stop offset="0.222222" style="stop-color:rgb(0%,0%,0%);stop-opacity:0.27451;"/>
<stop offset="1" style="stop-color:rgb(0%,0%,0%);stop-opacity:0;"/>
</radialGradient>
<linearGradient id="linear1" gradientUnits="userSpaceOnUse" x1="306.916656" y1="-25.791676" x2="305.954559" y2="-135.329163" gradientTransform="matrix(0.0565122,0,0,0.163059,-4.39051,24.238729)">
<stop offset="0" style="stop-color:rgb(74.117649%,74.117649%,74.117649%);stop-opacity:1;"/>
<stop offset="1" style="stop-color:rgb(87.843138%,87.843138%,87.843138%);stop-opacity:1;"/>
</linearGradient>
<linearGradient id="linear2" gradientUnits="userSpaceOnUse" x1="306.916656" y1="-25.791676" x2="305.954559" y2="-135.329163" gradientTransform="matrix(1.20548,0,0,3.478261,-93.655266,302.043488)">
<stop offset="0" style="stop-color:rgb(25.882354%,25.882354%,25.882354%);stop-opacity:1;"/>
<stop offset="1" style="stop-color:rgb(38.039216%,38.039216%,38.039216%);stop-opacity:1;"/>
</linearGradient>
<linearGradient id="linear3" gradientUnits="userSpaceOnUse" x1="959.999939" y1="1375.118164" x2="960" y2="-309.035156" gradientTransform="matrix(0.0124035,0,0,0.0124035,5.457553,5.012926)">
<stop offset="0" style="stop-color:rgb(36.078432%,41.960785%,75.294119%);stop-opacity:1;"/>
<stop offset="1" style="stop-color:rgb(47.450981%,52.549022%,79.607844%);stop-opacity:1;"/>
</linearGradient>
<linearGradient id="linear4" gradientUnits="userSpaceOnUse" x1="254" y1="233.5" x2="254" y2="254.666672" gradientTransform="matrix(0.0468795,0,0,0.0468795,13.147742,11.071371)">
<stop offset="0" style="stop-color:rgb(0%,0%,0%);stop-opacity:0.27451;"/>
<stop offset="1" style="stop-color:rgb(0%,0%,0%);stop-opacity:0;"/>
</linearGradient>
<radialGradient id="radial4" gradientUnits="userSpaceOnUse" cx="450.908936" cy="189.579361" fx="450.908936" fy="189.579361" r="21.166656" gradientTransform="matrix(0.000000130628,-0.0585994,-0.105479,-0.0000000761539,37.857634,48.688781)">
<stop offset="0" style="stop-color:rgb(0%,0%,0%);stop-opacity:0.313726;"/>
<stop offset="0.222222" style="stop-color:rgb(0%,0%,0%);stop-opacity:0.27451;"/>
<stop offset="1" style="stop-color:rgb(0%,0%,0%);stop-opacity:0;"/>
</radialGradient>
<radialGradient id="radial5" gradientUnits="userSpaceOnUse" cx="450.908936" cy="189.579361" fx="450.908936" fy="189.579361" r="21.166656" gradientTransform="matrix(-0.000000130628,0.0585994,0.105479,0.0000000761539,-3.127752,-4.653327)">
<stop offset="0" style="stop-color:rgb(0%,0%,0%);stop-opacity:0.313726;"/>
<stop offset="0.222222" style="stop-color:rgb(0%,0%,0%);stop-opacity:0.27451;"/>
<stop offset="1" style="stop-color:rgb(0%,0%,0%);stop-opacity:0;"/>
</radialGradient>
<radialGradient id="radial6" gradientUnits="userSpaceOnUse" cx="450.908936" cy="189.579361" fx="450.908936" fy="189.579361" r="21.166656" gradientTransform="matrix(-0.000000130628,-0.0585994,0.105479,-0.0000000761539,-3.127752,48.688781)">
<stop offset="0" style="stop-color:rgb(0%,0%,0%);stop-opacity:0.313726;"/>
<stop offset="0.222222" style="stop-color:rgb(0%,0%,0%);stop-opacity:0.27451;"/>
<stop offset="1" style="stop-color:rgb(0%,0%,0%);stop-opacity:0;"/>
</radialGradient>
<radialGradient id="radial7" gradientUnits="userSpaceOnUse" cx="450.908936" cy="189.579361" fx="450.908936" fy="189.579361" r="21.166656" gradientTransform="matrix(0.000000130628,0.0585994,-0.105479,0.0000000761539,37.857632,-4.653328)">
<stop offset="0" style="stop-color:rgb(0%,0%,0%);stop-opacity:0.313726;"/>
<stop offset="0.222222" style="stop-color:rgb(0%,0%,0%);stop-opacity:0.27451;"/>
<stop offset="1" style="stop-color:rgb(0%,0%,0%);stop-opacity:0;"/>
</radialGradient>
</defs>
<g id="surface1">
<path style=" stroke:none;fill-rule:nonzero;fill:url(#linear0);" d="M 3.472656 20.03125 L 20.339844 20.03125 L 20.339844 21.027344 L 3.472656 21.027344 Z M 3.472656 20.03125 "/>
<path style=" stroke:none;fill-rule:nonzero;fill:url(#radial0);" d="M 20.339844 20.03125 L 22.328125 20.03125 L 22.328125 19.039062 L 20.339844 19.039062 Z M 20.339844 20.03125 "/>
<path style=" stroke:none;fill-rule:nonzero;fill:url(#radial1);" d="M 3.472656 20.03125 L 1.488281 20.03125 L 1.488281 21.027344 L 3.472656 21.027344 Z M 3.472656 20.03125 "/>
<path style=" stroke:none;fill-rule:nonzero;fill:url(#radial2);" d="M 3.472656 20.03125 L 1.488281 20.03125 L 1.488281 19.039062 L 3.472656 19.039062 Z M 3.472656 20.03125 "/>
<path style=" stroke:none;fill-rule:nonzero;fill:url(#radial3);" d="M 20.339844 20.03125 L 22.328125 20.03125 L 22.328125 21.027344 L 20.339844 21.027344 Z M 20.339844 20.03125 "/>
<path style=" stroke:none;fill-rule:nonzero;fill:url(#linear1);" d="M 2.480469 2.171875 L 21.335938 2.171875 C 21.882812 2.171875 22.328125 2.617188 22.328125 3.164062 L 22.328125 19.039062 C 22.328125 19.589844 21.882812 20.03125 21.335938 20.03125 L 2.480469 20.03125 C 1.933594 20.03125 1.488281 19.589844 1.488281 19.039062 L 1.488281 3.164062 C 1.488281 2.617188 1.933594 2.171875 2.480469 2.171875 Z M 2.480469 2.171875 "/>
<path style=" stroke:none;fill-rule:nonzero;fill:rgb(3.921569%,5.098039%,5.490196%);fill-opacity:0.235294;" d="M 1.488281 6.140625 L 22.328125 6.140625 L 22.328125 6.636719 L 1.488281 6.636719 Z M 1.488281 6.140625 "/>
<path style=" stroke:none;fill-rule:nonzero;fill:rgb(0%,0%,0%);fill-opacity:0.235294;" d="M 2.480469 20.042969 C 1.929688 20.042969 1.488281 19.601562 1.488281 19.050781 L 1.488281 18.792969 C 1.488281 19.34375 1.929688 19.785156 2.480469 19.785156 L 21.335938 19.785156 C 21.882812 19.785156 22.328125 19.34375 22.328125 18.792969 L 22.328125 19.050781 C 22.328125 19.601562 21.882812 20.042969 21.335938 20.042969 Z M 2.480469 20.042969 "/>
<path style="fill-rule:nonzero;fill:url(#linear2);stroke-width:3;stroke-linecap:round;stroke-linejoin:miter;stroke:rgb(12.941177%,12.941177%,12.941177%);stroke-opacity:1;stroke-miterlimit:4;" d="M 52.911614 -168.671091 C 41.162736 -168.671091 31.746968 -159.255323 31.746968 -147.506445 L 31.746968 -84.012509 L 476.28785 -84.012509 L 476.28785 -147.506445 C 476.28785 -159.255323 466.788757 -168.671091 455.123205 -168.671091 Z M 52.911614 -168.671091 " transform="matrix(0.0468795,0,0,0.0468795,0,10.079087)"/>
<path style=" stroke:none;fill-rule:nonzero;fill:rgb(100%,100%,100%);fill-opacity:0.392157;" d="M 2.480469 2.230469 C 1.929688 2.230469 1.488281 2.671875 1.488281 3.222656 L 1.488281 3.480469 C 1.488281 2.929688 1.929688 2.488281 2.480469 2.488281 L 21.335938 2.488281 C 21.882812 2.488281 22.328125 2.929688 22.328125 3.480469 L 22.328125 3.222656 C 22.328125 2.671875 21.882812 2.230469 21.335938 2.230469 Z M 2.480469 2.230469 "/>
<path style=" stroke:none;fill-rule:nonzero;fill:rgb(12.941177%,12.941177%,12.941177%);fill-opacity:1;" d="M 2.480469 2.101562 C 1.894531 2.101562 1.417969 2.578125 1.417969 3.164062 L 1.417969 19.039062 C 1.417969 19.628906 1.894531 20.101562 2.480469 20.101562 L 21.335938 20.101562 C 21.921875 20.101562 22.398438 19.628906 22.398438 19.039062 L 22.398438 3.164062 C 22.398438 2.578125 21.921875 2.101562 21.335938 2.101562 Z M 2.480469 2.242188 L 21.335938 2.242188 C 21.847656 2.242188 22.257812 2.652344 22.257812 3.164062 L 22.257812 19.039062 C 22.257812 19.554688 21.847656 19.960938 21.335938 19.960938 L 2.480469 19.960938 C 1.96875 19.960938 1.558594 19.554688 1.558594 19.039062 L 1.558594 3.164062 C 1.558594 2.652344 1.96875 2.242188 2.480469 2.242188 Z M 2.480469 2.242188 "/>
<path style=" stroke:none;fill-rule:nonzero;fill:url(#linear3);" d="M 16.867188 11.152344 C 16.59375 11.152344 16.371094 11.375 16.371094 11.648438 L 16.371094 12.765625 C 16.007812 12.859375 15.664062 13.003906 15.347656 13.191406 L 14.558594 12.402344 C 14.363281 12.207031 14.050781 12.207031 13.855469 12.402344 L 13.15625 13.101562 C 12.960938 13.296875 12.960938 13.609375 13.15625 13.804688 L 13.945312 14.59375 C 13.757812 14.910156 13.613281 15.253906 13.519531 15.621094 L 12.402344 15.621094 C 12.128906 15.621094 11.90625 15.839844 11.90625 16.117188 L 11.90625 17.109375 C 11.90625 17.382812 12.128906 17.605469 12.402344 17.605469 L 13.519531 17.605469 C 13.613281 17.96875 13.757812 18.3125 13.945312 18.628906 L 13.15625 19.417969 C 12.960938 19.613281 12.960938 19.925781 13.15625 20.121094 L 13.855469 20.820312 C 14.050781 21.015625 14.363281 21.015625 14.558594 20.820312 L 15.347656 20.03125 C 15.664062 20.21875 16.007812 20.363281 16.371094 20.457031 L 16.371094 21.574219 C 16.371094 21.847656 16.59375 22.070312 16.867188 22.070312 L 17.859375 22.070312 C 18.136719 22.070312 18.355469 21.847656 18.355469 21.574219 L 18.355469 20.457031 C 18.722656 20.363281 19.066406 20.21875 19.382812 20.03125 L 20.171875 20.820312 C 20.367188 21.015625 20.679688 21.015625 20.875 20.820312 L 21.574219 20.121094 C 21.769531 19.925781 21.769531 19.613281 21.574219 19.417969 L 20.785156 18.628906 C 20.972656 18.3125 21.117188 17.96875 21.210938 17.605469 L 22.328125 17.605469 C 22.601562 17.605469 22.824219 17.382812 22.824219 17.109375 L 22.824219 16.117188 C 22.824219 15.839844 22.601562 15.621094 22.328125 15.621094 L 21.210938 15.621094 C 21.117188 15.253906 20.972656 14.910156 20.785156 14.59375 L 21.574219 13.804688 C 21.769531 13.609375 21.769531 13.296875 21.574219 13.101562 L 20.875 12.402344 C 20.679688 12.207031 20.367188 12.207031 20.171875 12.402344 L 19.382812 13.191406 C 19.066406 13.003906 18.722656 12.859375 18.355469 12.765625 L 18.355469 11.648438 C 18.355469 11.375 18.136719 11.152344 17.859375 11.152344 Z M 17.363281 14.132812 C 18.738281 14.132812 19.84375 15.238281 19.84375 16.613281 C 19.84375 17.984375 18.738281 19.09375 17.363281 19.09375 C 15.992188 19.09375 14.882812 17.984375 14.882812 16.613281 C 14.882812 15.238281 15.992188 14.132812 17.363281 14.132812 Z M 17.363281 14.132812 "/>
<path style=" stroke:none;fill-rule:nonzero;fill:rgb(97.647059%,97.647059%,97.647059%);fill-opacity:0.392157;" d="M 16.867188 11.152344 C 16.59375 11.152344 16.371094 11.375 16.371094 11.648438 L 16.371094 12.023438 C 16.371094 11.746094 16.59375 11.527344 16.867188 11.527344 L 17.859375 11.527344 C 18.136719 11.527344 18.355469 11.746094 18.355469 12.023438 L 18.355469 11.648438 C 18.355469 11.375 18.136719 11.152344 17.859375 11.152344 Z M 14.207031 12.257812 C 14.082031 12.257812 13.953125 12.304688 13.855469 12.402344 L 13.15625 13.101562 C 13.007812 13.25 12.972656 13.460938 13.046875 13.640625 C 13.070312 13.582031 13.105469 13.523438 13.15625 13.476562 L 13.855469 12.773438 C 14.050781 12.578125 14.363281 12.578125 14.558594 12.773438 L 15.347656 13.5625 C 15.664062 13.375 16.007812 13.230469 16.371094 13.140625 L 16.371094 12.765625 C 16.007812 12.859375 15.664062 13.003906 15.347656 13.191406 L 14.558594 12.402344 C 14.460938 12.304688 14.335938 12.257812 14.207031 12.257812 Z M 20.523438 12.257812 C 20.394531 12.257812 20.269531 12.304688 20.171875 12.402344 L 19.382812 13.191406 C 19.066406 13.003906 18.722656 12.859375 18.355469 12.765625 L 18.355469 13.140625 C 18.722656 13.230469 19.066406 13.375 19.382812 13.5625 L 20.171875 12.773438 C 20.367188 12.578125 20.679688 12.578125 20.875 12.773438 L 21.574219 13.476562 C 21.625 13.523438 21.660156 13.582031 21.683594 13.640625 C 21.757812 13.460938 21.71875 13.25 21.574219 13.101562 L 20.875 12.402344 C 20.777344 12.304688 20.648438 12.257812 20.523438 12.257812 Z M 13.8125 14.835938 C 13.6875 15.082031 13.589844 15.34375 13.519531 15.621094 L 12.402344 15.621094 C 12.128906 15.621094 11.90625 15.839844 11.90625 16.117188 L 11.90625 16.488281 C 11.90625 16.210938 12.128906 15.992188 12.402344 15.992188 L 13.519531 15.992188 C 13.613281 15.625 13.757812 15.28125 13.945312 14.964844 Z M 20.917969 14.835938 L 20.785156 14.964844 C 20.972656 15.28125 21.117188 15.625 21.210938 15.992188 L 22.328125 15.992188 C 22.601562 15.992188 22.824219 16.210938 22.824219 16.488281 L 22.824219 16.117188 C 22.824219 15.839844 22.601562 15.621094 22.328125 15.621094 L 21.210938 15.621094 C 21.140625 15.34375 21.042969 15.082031 20.917969 14.835938 Z M 14.890625 16.796875 C 14.886719 16.859375 14.882812 16.921875 14.882812 16.984375 C 14.882812 18.359375 15.992188 19.464844 17.363281 19.464844 C 18.738281 19.464844 19.84375 18.359375 19.84375 16.984375 C 19.84375 16.921875 19.84375 16.859375 19.839844 16.796875 C 19.746094 18.085938 18.675781 19.09375 17.363281 19.09375 C 16.054688 19.09375 14.984375 18.085938 14.890625 16.796875 Z M 13.8125 18.761719 L 13.15625 19.417969 C 13.007812 19.5625 12.972656 19.777344 13.046875 19.957031 C 13.070312 19.894531 13.105469 19.839844 13.15625 19.789062 L 13.945312 19 C 13.898438 18.921875 13.851562 18.84375 13.8125 18.761719 Z M 20.917969 18.761719 C 20.875 18.84375 20.832031 18.921875 20.785156 19 L 21.574219 19.789062 C 21.625 19.839844 21.660156 19.894531 21.683594 19.957031 C 21.757812 19.777344 21.71875 19.5625 21.574219 19.417969 Z M 20.917969 18.761719 "/>
<path style=" stroke:none;fill-rule:nonzero;fill:rgb(0%,0%,0%);fill-opacity:0.235294;" d="M 13.09375 13.726562 C 12.964844 13.921875 12.984375 14.183594 13.15625 14.351562 L 13.753906 14.953125 C 13.8125 14.828125 13.875 14.710938 13.945312 14.59375 L 13.15625 13.804688 C 13.132812 13.78125 13.109375 13.753906 13.09375 13.726562 Z M 21.636719 13.726562 C 21.621094 13.753906 21.597656 13.78125 21.574219 13.804688 L 20.785156 14.59375 C 20.855469 14.710938 20.917969 14.828125 20.972656 14.953125 L 21.574219 14.351562 C 21.746094 14.183594 21.765625 13.921875 21.636719 13.726562 Z M 17.363281 14.132812 C 15.992188 14.132812 14.882812 15.238281 14.882812 16.613281 C 14.882812 16.703125 14.890625 16.796875 14.898438 16.886719 C 15.035156 15.640625 16.082031 14.679688 17.363281 14.679688 C 18.648438 14.679688 19.695312 15.640625 19.832031 16.886719 C 19.839844 16.796875 19.84375 16.703125 19.84375 16.613281 C 19.84375 15.238281 18.738281 14.132812 17.363281 14.132812 Z M 11.90625 17.109375 L 11.90625 17.65625 C 11.90625 17.929688 12.128906 18.152344 12.402344 18.152344 L 13.519531 18.152344 C 13.578125 18.382812 13.660156 18.605469 13.753906 18.816406 L 13.945312 18.628906 C 13.757812 18.3125 13.613281 17.96875 13.519531 17.605469 L 12.402344 17.605469 C 12.128906 17.605469 11.90625 17.382812 11.90625 17.109375 Z M 21.210938 17.605469 C 21.117188 17.96875 20.972656 18.3125 20.785156 18.628906 L 20.972656 18.816406 C 21.070312 18.605469 21.152344 18.382812 21.210938 18.152344 L 22.328125 18.152344 L 22.328125 17.605469 Z M 21.210938 17.605469 "/>
<path style="fill:none;stroke-width:3;stroke-linecap:round;stroke-linejoin:round;stroke:rgb(12.941177%,12.941177%,12.941177%);stroke-opacity:1;stroke-miterlimit:4;" d="M 359.798974 22.893949 C 353.966198 22.893949 349.216651 27.643495 349.216651 33.476272 L 349.216651 57.307329 C 341.467391 59.307138 334.134758 62.390177 327.385403 66.389795 L 310.553677 49.558069 C 306.387408 45.3918 299.721378 45.3918 295.555109 49.558069 L 280.639867 64.473312 C 276.473598 68.63958 276.473598 75.305611 280.639867 79.471879 L 297.471593 96.303605 C 293.471975 103.052961 290.388936 110.385594 288.389127 118.218179 L 264.558069 118.218179 C 258.725293 118.218179 253.975747 122.8844 253.975747 128.800502 L 253.975747 149.965148 C 253.975747 155.797924 258.725293 160.54747 264.558069 160.54747 L 288.389127 160.54747 C 290.388936 168.29673 293.471975 175.629363 297.471593 182.378719 L 280.639867 199.210445 C 276.473598 203.376714 276.473598 210.042744 280.639867 214.209013 L 295.555109 229.124255 C 299.721378 233.290524 306.387408 233.290524 310.553677 229.124255 L 327.385403 212.292529 C 334.134758 216.292147 341.467391 219.375186 349.216651 221.374995 L 349.216651 245.206053 C 349.216651 251.038829 353.966198 255.788375 359.798974 255.788375 L 380.96362 255.788375 C 386.879721 255.788375 391.545943 251.038829 391.545943 245.206053 L 391.545943 221.374995 C 399.378528 219.375186 406.711161 216.292147 413.460516 212.292529 L 430.292242 229.124255 C 434.458511 233.290524 441.124541 233.290524 445.29081 229.124255 L 460.206053 214.209013 C 464.372321 210.042744 464.372321 203.376714 460.206053 199.210445 L 443.374327 182.378719 C 447.373945 175.629363 450.456984 168.29673 452.456793 160.54747 L 476.28785 160.54747 C 482.120626 160.54747 486.870173 155.797924 486.870173 149.965148 L 486.870173 128.800502 C 486.870173 122.8844 482.120626 118.218179 476.28785 118.218179 L 452.456793 118.218179 C 450.456984 110.385594 447.373945 103.052961 443.374327 96.303605 L 460.206053 79.471879 C 464.372321 75.305611 464.372321 68.63958 460.206053 64.473312 L 445.29081 49.558069 C 441.124541 45.3918 434.458511 45.3918 430.292242 49.558069 L 413.460516 66.389795 C 406.711161 62.390177 399.378528 59.307138 391.545943 57.307329 L 391.545943 33.476272 C 391.545943 27.643495 386.879721 22.893949 380.96362 22.893949 Z M 370.381297 86.471211 C 399.711829 86.471211 423.292911 110.052292 423.292911 139.382825 C 423.292911 168.630032 399.711829 192.294439 370.381297 192.294439 C 341.13409 192.294439 317.469683 168.630032 317.469683 139.382825 C 317.469683 110.052292 341.13409 86.471211 370.381297 86.471211 Z M 370.381297 86.471211 " transform="matrix(0.0468795,0,0,0.0468795,0,10.079087)"/>
<path style=" stroke:none;fill-rule:nonzero;fill:url(#linear4);" d="M 16.621094 22.019531 L 18.109375 22.019531 L 18.109375 23.011719 L 16.621094 23.011719 Z M 16.621094 22.019531 "/>
<path style=" stroke:none;fill-rule:nonzero;fill:url(#radial4);" d="M 18.109375 22.019531 L 20.09375 22.019531 L 20.09375 21.027344 L 18.109375 21.027344 Z M 18.109375 22.019531 "/>
<path style=" stroke:none;fill-rule:nonzero;fill:url(#radial5);" d="M 16.621094 22.019531 L 14.636719 22.019531 L 14.636719 23.011719 L 16.621094 23.011719 Z M 16.621094 22.019531 "/>
<path style=" stroke:none;fill-rule:nonzero;fill:url(#radial6);" d="M 16.621094 22.019531 L 14.636719 22.019531 L 14.636719 21.027344 L 16.621094 21.027344 Z M 16.621094 22.019531 "/>
<path style=" stroke:none;fill-rule:nonzero;fill:url(#radial7);" d="M 18.109375 22.019531 L 20.09375 22.019531 L 20.09375 23.011719 L 18.109375 23.011719 Z M 18.109375 22.019531 "/>
</g>
</svg>
