<svg height="24" viewBox="0 0 24 24" width="24" xmlns="http://www.w3.org/2000/svg" xmlns:xlink="http://www.w3.org/1999/xlink"><linearGradient id="a" gradientTransform="matrix(.0558089 0 0 .0468795 -1.972752 10.079089)" gradientUnits="userSpaceOnUse" x1="254" x2="254" y1="233.5" y2="254.666672"><stop offset="0" stop-opacity=".27451"/><stop offset="1" stop-opacity="0"/></linearGradient><linearGradient id="b"><stop offset="0" stop-opacity=".313726"/><stop offset=".222222" stop-opacity=".27451"/><stop offset="1" stop-opacity="0"/></linearGradient><radialGradient id="c" cx="450.908936" cy="189.579361" gradientTransform="matrix(.00000013 -.0585994 -.105479 -.00000008 37.857636 47.696499)" gradientUnits="userSpaceOnUse" r="21.166656" xlink:href="#b"/><radialGradient id="d" cx="450.908936" cy="189.579361" gradientTransform="matrix(-.00000013 .0585994 .105479 .00000008 -14.042861 -5.645609)" gradientUnits="userSpaceOnUse" r="21.166656" xlink:href="#b"/><radialGradient id="e" cx="450.908936" cy="189.579361" gradientTransform="matrix(-.00000013 -.0585994 .105479 -.00000008 -14.042861 47.696499)" gradientUnits="userSpaceOnUse" r="21.166656" xlink:href="#b"/><radialGradient id="f" cx="450.908936" cy="189.579361" gradientTransform="matrix(.00000013 .0585994 -.105479 .00000008 37.857635 -5.64561)" gradientUnits="userSpaceOnUse" r="21.166656" xlink:href="#b"/><linearGradient id="g"><stop offset="0" stop-color="#7e57c2"/><stop offset="1" stop-color="#9575cd"/></linearGradient><linearGradient id="h" gradientUnits="userSpaceOnUse" x1="11.90736" x2="11.90736" xlink:href="#g" y1="21.02539814717" y2="2.17207757661"/><linearGradient id="i" gradientUnits="userSpaceOnUse" x1="11.90736" x2="11.90736" y1="20.03311814717" y2="3.16435757661"><stop offset="0" stop-color="#e0e0e0"/><stop offset="1" stop-color="#eee"/></linearGradient><linearGradient id="j" gradientUnits="userSpaceOnUse" x1="11.67485187502" x2="11.67485187502" xlink:href="#g" y1="16.31211799995" y2="5.89315020318"/><path d="m5.707031 21.027344h12.402344v.992187h-12.402344zm0 0" fill="url(#a)"/><path d="m18.109375 21.027344h1.984375v-.996094h-1.984375zm0 0" fill="url(#c)"/><path d="m5.707031 21.027344h-1.984375v.992187h1.984375zm0 0" fill="url(#d)"/><path d="m5.707031 21.027344h-1.984375v-.996094h1.984375zm0 0" fill="url(#e)"/><path d="m18.109375 21.027344h1.984375v.992187h-1.984375zm0 0" fill="url(#f)"/><path d="m4.960938 2.171875c-.550782 0-.992188.441406-.992188.992187v16.867188c0 .550781.441406.996094.992188.996094h13.890624c.550782 0 .992188-.445313.992188-.996094v-11.289062l-6.566406-6.570313zm10.417968 0 4.464844 4.464844v-3.472657c0-.550781-.441406-.992187-.992188-.992187zm0 0" fill="url(#h)"/><path d="m5.457031 3.164062c-.273437 0-.496093.222657-.496093.496094v15.875c0 .277344.222656.496094.496093.496094h12.898438c.277343 0 .496093-.21875.496093-.496094v-10.417968l-5.953124-5.953126zm0 0" fill="url(#i)"/><path d="m4.960938 2.171875c-.550782 0-.992188.441406-.992188.992187v.25c0-.550781.441406-.992187.992188-.992187h8.316406l6.566406 6.570313v-.25l-6.566406-6.570313zm10.417968 0 .25.25h3.222656c.550782 0 .992188.441406.992188.992187v-.25c0-.550781-.441406-.992187-.992188-.992187zm0 0" fill="#fff" fill-opacity=".392157"/><path d="m5.457031 3.164062c-.273437 0-.496093.222657-.496093.496094v.371094c0-.273438.222656-.496094.496093-.496094h7.441407l5.953124 5.953125v-.371093l-5.953124-5.953126zm0 0" fill-opacity=".235294"/><path d="m4.960938 19.554688v.234374c0 .273438.222656.496094.496093.496094h12.898438c.277343 0 .496093-.222656.496093-.496094v-.234374c0 .273437-.21875.496093-.496093.496093h-12.898438c-.273437 0-.496093-.222656-.496093-.496093zm0 0" fill="#fff" fill-opacity=".392157"/><path d="m439.958009 255.093763c-22.04514 0-39.996182 17.951043-39.996182 39.996183v1279.877845c0 22.360071 17.951042 39.996183 39.996182 39.996183h1039.900749c22.360071 0 39.996183-17.636112 39.996183-39.996183v-839.919836l-479.954192-479.954192zm0 0" fill="none" stroke="#212121" stroke-linecap="round" stroke-linejoin="round" stroke-width="11.338583" transform="scale(.0124035)"/><path d="m15.378906 2.171875 4.464844 4.464844v-.242188l-4.222656-4.222656zm-11.410156 17.621094v.238281c0 .550781.441406.996094.992188.996094h13.890624c.550782 0 .992188-.445313.992188-.996094v-.238281c0 .546875-.441406.992187-.992188.992187h-13.890624c-.550782 0-.992188-.445312-.992188-.992187zm0 0" fill-opacity=".235294"/><path d="m399.961827 175.101398c-44.405211 0-79.992366 35.587155-79.992366 79.992365v1359.870211c0 44.40521 35.587155 80.307296 79.992366 80.307296h1119.893114c44.405211 0 79.992365-35.902086 79.992365-80.307296v-910.149354l-529.398291-529.713222zm839.919835 0 359.965644 359.965644v-279.973279c0-44.40521-35.587154-79.992365-79.992365-79.992365zm0 0" fill="none" stroke="#212121" stroke-linecap="round" stroke-linejoin="round" stroke-width="11.338583" transform="scale(.0124035)"/><path d="m8.203125 7.382812c-.277344 0-.496094.21875-.496094.496094 0 .273438.21875.496094.496094.496094h7.441406c.273438 0 .496094-.222656.496094-.496094 0-.277344-.222656-.496094-.496094-.496094zm0 2.480469c-.277344 0-.496094.21875-.496094.496094 0 .273437.21875.496094.496094.496094h7.441406c.273438 0 .496094-.222657.496094-.496094 0-.277344-.222656-.496094-.496094-.496094zm0 2.480469c-.277344 0-.496094.210938-.496094.472656v.046875c0 .261719.21875.472657.496094.472657h7.441406c.273438 0 .496094-.210938.496094-.472657v-.046875c0-.261718-.222656-.472656-.496094-.472656zm0 2.480469c-.277344 0-.496094.222656-.496094.496093 0 .273438.21875.496094.496094.496094h7.441406c.273438 0 .496094-.222656.496094-.496094 0-.273437-.222656-.496093-.496094-.496093zm0 0" fill="url(#j)"/><path d="m8.203125 7.382812c-.277344 0-.496094.21875-.496094.496094 0 .042969.003907.082032.015625.121094.054688-.210938.246094-.371094.480469-.371094h7.441406c.230469 0 .425781.160156.480469.371094.007812-.039062.015625-.078125.015625-.121094 0-.277344-.222656-.496094-.496094-.496094zm0 2.480469c-.277344 0-.496094.21875-.496094.496094 0 .042969.003907.082031.015625.125.054688-.214844.246094-.375.480469-.375h7.441406c.230469 0 .425781.160156.480469.375.007812-.042969.015625-.082031.015625-.125 0-.277344-.222656-.496094-.496094-.496094zm0 2.480469c-.277344 0-.496094.210938-.496094.472656v.046875c0 .035157.003907.066407.011719.101563.046875-.214844.246094-.375.484375-.375h7.441406c.238281 0 .4375.160156.484375.375.007813-.035156.011719-.066406.011719-.101563v-.046875c0-.261718-.222656-.472656-.496094-.472656zm0 2.480469c-.277344 0-.496094.222656-.496094.496093 0 .042969.003907.082032.015625.125.054688-.214843.246094-.375.480469-.375h7.441406c.230469 0 .425781.160157.480469.375.007812-.042968.015625-.082031.015625-.125 0-.273437-.222656-.496093-.496094-.496093zm0 0" fill="#fff" fill-opacity=".392157"/><path d="m7.742188 8.125c-.023438.058594-.035157.121094-.035157.1875 0 .273438.21875.496094.496094.496094h7.441406c.273438 0 .496094-.222656.496094-.496094 0-.066406-.011719-.128906-.035156-.1875-.074219.183594-.253907.3125-.460938.3125h-7.441406c-.210937 0-.386719-.128906-.460937-.3125zm0 2.480469c-.023438.058593-.035157.121093-.035157.1875 0 .273437.21875.496093.496094.496093h7.441406c.273438 0 .496094-.222656.496094-.496093 0-.066407-.011719-.128907-.035156-.1875-.074219.183593-.253907.3125-.460938.3125h-7.441406c-.210937 0-.386719-.128907-.460937-.3125zm-.007813 2.480469c-.019531.050781-.027344.105468-.027344.164062v.046875c0 .261719.21875.472656.496094.472656h7.441406c.273438 0 .496094-.210937.496094-.472656v-.046875c0-.058594-.011719-.113281-.03125-.164062-.070313.183593-.25.3125-.464844.3125h-7.441406c-.214844 0-.398437-.128907-.46875-.3125zm.007813 2.480468c-.023438.058594-.035157.121094-.035157.1875 0 .273438.21875.496094.496094.496094h7.441406c.273438 0 .496094-.222656.496094-.496094 0-.066406-.011719-.128906-.035156-.1875-.074219.183594-.253907.3125-.460938.3125h-7.441406c-.210937 0-.386719-.128906-.460937-.3125zm0 0" fill-opacity=".235294"/><path d="m174.98329-57.515039c-5.916102 0-10.582323 4.666221-10.582323 10.582323 0 5.832776 4.666221 10.582322 10.582323 10.582322h158.734842c5.832776 0 10.582322-4.749546 10.582322-10.582322 0-5.916102-4.749546-10.582323-10.582322-10.582323zm0 52.911614c-5.916102 0-10.582323 4.6662209-10.582323 10.582323 0 5.832776 4.666221 10.582322 10.582323 10.582322h158.734842c5.832776 0 10.582322-4.749546 10.582322-10.582322 0-5.9161021-4.749546-10.582323-10.582322-10.582323zm0 52.911614c-5.916102 0-10.582323 4.49957-10.582323 10.08237v.999905c0 5.5828 4.666221 10.08237 10.582323 10.08237h158.734842c5.832776 0 10.582322-4.49957 10.582322-10.08237v-.999905c0-5.5828-4.749546-10.08237-10.582322-10.08237zm0 52.911614c-5.916102 0-10.582323 4.749546-10.582323 10.582322 0 5.832777 4.666221 10.582323 10.582323 10.582323h158.734842c5.832776 0 10.582322-4.749546 10.582322-10.582323 0-5.832776-4.749546-10.582322-10.582322-10.582322zm0 0" fill="none" stroke="#212121" stroke-linecap="round" stroke-linejoin="round" stroke-width="3" transform="matrix(.0468795 0 0 .0468795 0 10.079087)"/></svg>