<svg height="32" viewBox="0 0 24 24" width="32" xmlns="http://www.w3.org/2000/svg" xmlns:xlink="http://www.w3.org/1999/xlink"><linearGradient id="a"><stop offset="0" stop-opacity=".314"/><stop offset=".222" stop-opacity=".275"/><stop offset="1" stop-opacity="0"/></linearGradient><radialGradient id="b" cx="450.909" cy="189.579" gradientTransform="matrix(0 -.0586 -.10548 0 32.648 47.696)" gradientUnits="userSpaceOnUse" r="21.167" xlink:href="#a"/><radialGradient id="c" cx="450.909" cy="189.579" gradientTransform="matrix(0 .0586 .10548 0 -8.833 -5.646)" gradientUnits="userSpaceOnUse" r="21.167" xlink:href="#a"/><radialGradient id="d" cx="450.909" cy="189.579" gradientTransform="matrix(0 -.0586 .10548 0 -8.833 47.696)" gradientUnits="userSpaceOnUse" r="21.167" xlink:href="#a"/><radialGradient id="e" cx="450.909" cy="189.579" gradientTransform="matrix(0 .0586 -.10548 0 32.648 -5.646)" gradientUnits="userSpaceOnUse" r="21.167" xlink:href="#a"/><linearGradient id="f" gradientTransform="matrix(.01002 0 0 .04688 9.349 10.08)" gradientUnits="userSpaceOnUse" x1="255.323" x2="255.323" y1="233.5" y2="254.667"><stop offset="0" stop-opacity=".275"/><stop offset="1" stop-opacity="0"/></linearGradient><linearGradient id="g"><stop offset="0" stop-color="#616161"/><stop offset="1" stop-color="#424242"/></linearGradient><linearGradient id="h" gradientUnits="userSpaceOnUse" x1="11.90752" x2="11.90752" xlink:href="#g" y1="2.17289104" y2="21.02648"/><linearGradient id="i" gradientUnits="userSpaceOnUse" x1="253.99882" x2="253.99882" y1="-147.49897889" y2="212.33329611"><stop offset="0" stop-color="#eee"/><stop offset="1" stop-color="#bdbdbd"/></linearGradient><linearGradient id="j" gradientUnits="userSpaceOnUse" x1="254" x2="254" xlink:href="#g" y1="-168.667" y2="43"/><linearGradient id="k" gradientUnits="userSpaceOnUse" x1="11.90752" x2="11.90752" xlink:href="#g" y1="4.15682896" y2="15.56817104"/><linearGradient id="l" gradientTransform="matrix(-.02344 -.04059927 .04059927 -.02344 12.677905 24.903592)" gradientUnits="userSpaceOnUse" x1="444.398" x2="206.097" xlink:href="#g" y1="115.387" y2="-22.196"/><linearGradient id="m" gradientTransform="matrix(-.02344 .04059927 -.04059927 -.02344 23.044595 4.279197)" gradientUnits="userSpaceOnUse" x1="219.794" x2="375.606" xlink:href="#g" y1="110.754" y2="20.795"/><path d="m12.898 21.027h1.985v-.996h-1.985zm0 0" fill="url(#b)"/><path d="m10.914 21.027h-1.984v.993h1.984zm0 0" fill="url(#c)"/><path d="m10.914 21.027h-1.984v-.996h1.984zm0 0" fill="url(#d)"/><path d="m12.898 21.027h1.985v.993h-1.985zm0 0" fill="url(#e)"/><path d="m10.914 20.777h1.984v1.243h-1.984zm0 0" fill="url(#f)"/><path d="m11.906 2.172c5.207 0 9.43 4.219 9.43 9.426s-4.223 9.43-9.43 9.43c-5.203 0-9.426-4.223-9.426-9.43s4.223-9.426 9.426-9.426zm0 0" fill="url(#h)"/><path d="m253.976-147.506c99.407 0 179.9 80.575 179.9 179.899 0 99.407-80.493 179.9-179.9 179.9-99.324 0-179.9-80.493-179.9-179.9 0-99.324 80.576-179.9 179.9-179.9zm0 0" fill="url(#i)" stroke="#212121" stroke-linecap="round" stroke-linejoin="round" stroke-width="3" transform="matrix(.04688 0 0 .04688 0 10.08)"/><path d="m11.906 21.027a9.408 9.408 0 0 1 -9.426-9.43v-.09a9.404 9.404 0 0 0 9.426 9.333 9.402 9.402 0 0 0 9.426-9.332c0 .031.004.058.004.09a9.41 9.41 0 0 1 -9.43 9.43zm0 0" fill-opacity=".196"/><path d="m11.906 2.172a9.404 9.404 0 0 0 -9.426 9.52 9.408 9.408 0 0 1 9.426-9.337 9.405 9.405 0 0 1 9.426 9.336c0-.03.004-.062.004-.093a9.408 9.408 0 0 0 -9.43-9.426zm0 0" fill="#fff" fill-opacity=".392"/><path d="m253.976-126.342c35.08 0 63.494 28.414 63.494 63.494s-28.414 63.494-63.494 63.494-63.494-28.414-63.494-63.494 28.414-63.494 63.494-63.494zm0 0" fill="url(#j)" stroke="#212121" stroke-linecap="round" stroke-linejoin="round" stroke-width="3" transform="matrix(.04688 0 0 .04688 0 10.08)"/><path d="m11.906 2.102a9.48 9.48 0 0 0 -9.496 9.496 9.48 9.48 0 0 0 9.496 9.5 9.48 9.48 0 0 0 9.5-9.5 9.48 9.48 0 0 0 -9.5-9.496zm0 .14a9.335 9.335 0 0 1 9.36 9.356 9.336 9.336 0 0 1 -9.36 9.359 9.335 9.335 0 0 1 -9.355-9.36 9.334 9.334 0 0 1 9.355-9.355zm0 0" fill="#212121"/><path d="m11.668 4.164c-1.45.082-2.695 1.371-2.734 2.824-.106 1.45 1.007 2.852 2.445 3.074a2.985 2.985 0 0 0 2.836-1.042c1.933-.258 3.926 1.015 4.5 2.882a4.221 4.221 0 0 1 -.336 3.371c1.355-2.324 1.355-5.39-.106-7.664-.683-1.117-1.714-1.976-2.867-2.586-1.113-.691-2.437-.96-3.738-.859zm0 0" fill="url(#k)"/><path d="m5.59 15.52c.797 1.218 2.535 1.656 3.808.96 1.309-.636 1.97-2.3 1.446-3.656a2.993 2.993 0 0 0 -2.324-1.933c-1.188-1.547-1.082-3.91.246-5.336a4.216 4.216 0 0 1 3.086-1.399c-2.688-.011-5.34 1.524-6.582 3.922-.625 1.152-.856 2.477-.805 3.777-.043 1.313.383 2.59 1.125 3.665zm0 0" fill="url(#l)"/><path d="m18.465 15.11c.652-1.297.164-3.02-1.078-3.782-1.203-.812-2.973-.55-3.887.582a2.985 2.985 0 0 0 -.512 2.977c-.746 1.8-2.843 2.89-4.746 2.453a4.203 4.203 0 0 1 -2.75-1.973c1.332 2.336 3.988 3.867 6.688 3.738 1.308-.035 2.57-.496 3.672-1.19 1.156-.618 2.05-1.626 2.613-2.806zm0 0" fill="url(#m)"/><path d="m12.156 4.145c-.16 0-.324.007-.488.02-1.45.081-2.695 1.37-2.734 2.823a2.643 2.643 0 0 0 -.004.305c0-.023.004-.043.004-.066.039-1.454 1.285-2.743 2.734-2.82 1.3-.106 2.625.163 3.738.855 1.153.61 2.184 1.468 2.867 2.586.723 1.125 1.086 2.445 1.11 3.77.02-1.407-.344-2.817-1.11-4.009-.683-1.117-1.714-1.976-2.867-2.586-.972-.605-2.11-.886-3.25-.878zm6.762 9.175c-.02.68-.2 1.36-.54 1.953.165-.28.31-.574.434-.875a4.16 4.16 0 0 0 .106-1.078zm0 0" fill="#fff" fill-opacity=".392"/><path d="m11.852 4.156c-2.688-.011-5.34 1.524-6.582 3.922-.59 1.09-.829 2.332-.81 3.563.017-1.149.259-2.301.81-3.313.933-1.808 2.67-3.128 4.62-3.66a4.203 4.203 0 0 1 1.962-.512zm-4.157 4.348c-.027.937.246 1.883.825 2.633 1.05.16 1.972.933 2.324 1.933.105.278.164.57.176.864a2.768 2.768 0 0 0 -.176-1.11 2.993 2.993 0 0 0 -2.324-1.933 4.1 4.1 0 0 1 -.825-2.387zm-3.234 3.508c0 .05 0 .101.004.152v-.062c0-.032-.004-.059-.004-.09zm11.344-1.157c-.871-.003-1.746.364-2.305 1.055a3.01 3.01 0 0 0 -.703 2.059c.027-.664.27-1.317.703-1.82.914-1.13 2.684-1.395 3.887-.579.832.508 1.324 1.45 1.363 2.407.043-1.036-.46-2.098-1.363-2.649a2.834 2.834 0 0 0 -1.582-.473zm-2.864 4.141c-.785 1.738-2.836 2.774-4.699 2.344a4.203 4.203 0 0 1 -2.75-1.973 7.345 7.345 0 0 0 1.125 1.488 4.24 4.24 0 0 0 1.625.727c1.903.438 4-.652 4.746-2.453a5.083 5.083 0 0 1 -.047-.133zm0 0" fill="#fff" fill-opacity=".392"/><g fill-opacity=".235"><path d="m8.93 7.047c-.07 1.43 1.03 2.797 2.449 3.016a2.985 2.985 0 0 0 2.836-1.043c1.933-.258 3.926 1.015 4.5 2.882.125.38.191.774.203 1.168.016-.48-.05-.965-.203-1.425-.574-1.868-2.567-3.141-4.5-2.883a2.985 2.985 0 0 1 -2.836 1.043c-1.332-.207-2.383-1.426-2.45-2.758zm10.453 4.324a7.633 7.633 0 0 1 -.563 2.75c-.09.402-.238.793-.441 1.152a7.546 7.546 0 0 0 1.004-3.902zm0 0"/><path d="m12.797 13.727c-.012.347.035.699.144 1.03.016-.034.032-.073.047-.109a2.756 2.756 0 0 1 -.191-.921zm5.953.007a2.746 2.746 0 0 1 -.285 1.137c-.563 1.176-1.457 2.188-2.613 2.805-1.102.695-2.364 1.156-3.672 1.191-2.078.098-4.125-.785-5.57-2.258a4.193 4.193 0 0 1 -1.118-1.242c1.332 2.336 3.988 3.867 6.688 3.738 1.308-.035 2.57-.496 3.672-1.19 1.156-.618 2.05-1.626 2.613-2.806.215-.43.305-.902.285-1.375zm0 0"/><path d="m11.852 4.156h-.125zm-.059.004h-.02zm-.059 0h-.027zm-.058.004h-.028zm-.153 0h-.043zm.086.004h-.02zm-.214.004h-.04zm.152 0h-.02zm-.285.008c-.008 0-.02 0-.032.004.012-.004.024-.004.032-.004zm.148.004c-.008 0-.012.003-.015.003.003 0 .007-.003.015-.003zm-.281.007h-.02zm.223 0c-.008 0-.016.004-.024.004.008 0 .016-.004.024-.004zm-.063.008c-.008.004-.012.004-.02.004.008 0 .012 0 .02-.004zm-.062.012h-.016zm-.196.035c-.004 0-.011.004-.015.004.004 0 .011-.004.015-.004zm-.062.016h-.012zm-.063.011c-.004.004-.004.004-.008.004.004 0 .004 0 .008-.004zm-.058.016c-.004.004-.008.004-.012.004.004 0 .008 0 .012-.004zm-.192.055s-.004 0-.004.004c0-.004.004-.004.004-.004zm-.054.02c-.004 0-.008 0-.012.003.004-.004.008-.004.012-.004zm-.711.304c-.239.062-.47.14-.7.227a4.262 4.262 0 0 0 -.425.414c-.739.793-1.098 1.875-1.07 2.949.027-.992.386-1.973 1.07-2.703.32-.36.703-.66 1.125-.887zm-5.43 6.769c-.004.02-.004.043-.004.067 0-.024 0-.047.004-.066zm0 .083v.242c0-.051.004-.102.004-.153 0-.03-.004-.062-.004-.09zm-.004.027c0 .023 0 .043.004.066-.004-.023-.004-.043-.004-.066zm.008.371c-.004.055-.004.113-.004.168v-.074c0 .031.004.058.004.09v.062c.023 1.203.441 2.367 1.125 3.356.797 1.218 2.535 1.656 3.808.96.965-.468 1.579-1.496 1.622-2.55 0-.04-.004-.078-.008-.121-.086 1.007-.684 1.976-1.614 2.425-1.273.696-3.011.258-3.808-.96-.684-.989-1.102-2.153-1.125-3.356zm0 .246c-.004-.027-.004-.05-.004-.078 0 .027 0 .05.004.078zm6.555 1.563c.003.043.003.085.003.132 0-.046 0-.09-.003-.132zm.003.14c0 .02-.003.04-.003.059 0-.02.003-.04.003-.059zm0 0"/></g><path d="m12.188 4.016a5.98 5.98 0 0 0 -.372.011c-2.691.016-5.332 1.555-6.578 3.961-.629 1.164-.863 2.5-.812 3.809-.043 1.289.363 2.543 1.07 3.605 1.356 2.325 4.012 3.844 6.715 3.715 1.328-.035 2.598-.5 3.707-1.199 1.137-.605 2.02-1.586 2.59-2.73 1.332-2.336 1.32-5.395-.14-7.672-.696-1.13-1.735-2-2.895-2.61-.989-.613-2.133-.898-3.286-.89zm.003.14c1.125-.008 2.246.27 3.211.871h.004c1.14.606 2.164 1.457 2.84 2.563 1.172 1.824 1.395 4.168.719 6.215a4.205 4.205 0 0 0 -.152-1.98c-.583-1.903-2.606-3.196-4.575-2.934-.02 0-.035.011-.047.023-.644.809-1.75 1.215-2.77 1.024-1.398-.22-2.487-1.594-2.386-3.004.035-1.418 1.258-2.676 2.672-2.754.035-.004.066-.008.102-.008.023 0 .05-.004.074-.004.008 0 .015 0 .023-.004.094-.004.192-.008.285-.008zm-1.804.164a4.316 4.316 0 0 0 -1.64 1.125v.004c-1.356 1.453-1.462 3.852-.25 5.426.007.016.026.023.042.027a2.925 2.925 0 0 1 2.27 1.887c.507 1.32-.137 2.953-1.407 3.57-1.246.676-2.949.246-3.722-.933-.02-.031-.04-.059-.055-.086-.016-.02-.027-.043-.043-.067-.004-.007-.008-.015-.016-.02-.664-1.026-1.039-2.226-1-3.452v-.008c-.05-1.29.18-2.602.797-3.738.996-1.93 2.914-3.293 5.024-3.735zm-.09.184c-.809.527-1.375 1.434-1.402 2.422-.106 1.488 1.03 2.918 2.503 3.148 1.059.2 2.2-.21 2.883-1.047 1.887-.238 3.836 1.016 4.395 2.836.191.57.246 1.18.176 1.774-.051-.965-.555-1.91-1.395-2.426a2.918 2.918 0 0 0 -1.555-.484c-.914-.024-1.84.351-2.425 1.078a3.057 3.057 0 0 0 -.532 3.02c-.738 1.753-2.797 2.816-4.656 2.39a4.156 4.156 0 0 1 -1.621-.735c.86.438 1.93.473 2.793.004h.004c1.34-.652 2.012-2.351 1.476-3.742a3.067 3.067 0 0 0 -2.347-1.972c-1.154-1.516-1.044-3.832.258-5.227.398-.45.894-.8 1.445-1.04zm5.52 6.363c.027 0 .054 0 .081.004.524.012 1.043.16 1.48.457 1.212.742 1.692 2.43 1.056 3.692l-.047.09-.035.07a.03.03 0 0 0 -.008.02c-.559 1.09-1.41 2.019-2.492 2.597h-.008c-1.09.687-2.34 1.148-3.637 1.18-2.168.101-4.309-.875-5.742-2.485.52.422 1.137.723 1.793.86 1.937.445 4.07-.66 4.828-2.497a.058.058 0 0 0 0-.05 2.917 2.917 0 0 1 .5-2.91c.539-.668 1.387-1.024 2.23-1.028zm0 0" fill="#212121"/></svg>