<?xml version="1.0" encoding="UTF-8"?>
<svg xmlns="http://www.w3.org/2000/svg" xmlns:xlink="http://www.w3.org/1999/xlink" width="24pt" height="24pt" viewBox="0 0 24 24" version="1.1">
<defs>
<radialGradient id="radial0" gradientUnits="userSpaceOnUse" cx="450.90894" cy="189.57936" fx="450.90894" fy="189.57936" r="21.166656" gradientTransform="matrix(0.000000130628,-0.0585994,-0.105479,-0.0000000761539,33.392364,47.696499)">
<stop offset="0" style="stop-color:rgb(0%,0%,0%);stop-opacity:0.313725;"/>
<stop offset="0.222222" style="stop-color:rgb(0%,0%,0%);stop-opacity:0.27451;"/>
<stop offset="1" style="stop-color:rgb(0%,0%,0%);stop-opacity:0;"/>
</radialGradient>
<radialGradient id="radial1" gradientUnits="userSpaceOnUse" cx="450.90894" cy="189.57936" fx="450.90894" fy="189.57936" r="21.166656" gradientTransform="matrix(-0.000000130628,0.0585994,0.105479,0.0000000761539,-9.57759,-5.645611)">
<stop offset="0" style="stop-color:rgb(0%,0%,0%);stop-opacity:0.313725;"/>
<stop offset="0.222222" style="stop-color:rgb(0%,0%,0%);stop-opacity:0.27451;"/>
<stop offset="1" style="stop-color:rgb(0%,0%,0%);stop-opacity:0;"/>
</radialGradient>
<radialGradient id="radial2" gradientUnits="userSpaceOnUse" cx="450.90894" cy="189.57936" fx="450.90894" fy="189.57936" r="21.166656" gradientTransform="matrix(-0.000000130628,-0.0585994,0.105479,-0.0000000761539,-9.57759,47.696499)">
<stop offset="0" style="stop-color:rgb(0%,0%,0%);stop-opacity:0.313725;"/>
<stop offset="0.222222" style="stop-color:rgb(0%,0%,0%);stop-opacity:0.27451;"/>
<stop offset="1" style="stop-color:rgb(0%,0%,0%);stop-opacity:0;"/>
</radialGradient>
<radialGradient id="radial3" gradientUnits="userSpaceOnUse" cx="450.90894" cy="189.57936" fx="450.90894" fy="189.57936" r="21.166656" gradientTransform="matrix(0.000000130628,0.0585994,-0.105479,0.0000000761539,33.392363,-5.645611)">
<stop offset="0" style="stop-color:rgb(0%,0%,0%);stop-opacity:0.313725;"/>
<stop offset="0.222222" style="stop-color:rgb(0%,0%,0%);stop-opacity:0.27451;"/>
<stop offset="1" style="stop-color:rgb(0%,0%,0%);stop-opacity:0;"/>
</radialGradient>
<linearGradient id="linear0" gradientUnits="userSpaceOnUse" x1="255.32306" y1="233.5" x2="255.32304" y2="254.66666" gradientTransform="matrix(0.01002,0,0,0.0468795,9.349039,10.079088)">
<stop offset="0" style="stop-color:rgb(0%,0%,0%);stop-opacity:0.27451;"/>
<stop offset="1" style="stop-color:rgb(0%,0%,0%);stop-opacity:0;"/>
</linearGradient>
<linearGradient id="linear1" gradientUnits="userSpaceOnUse" x1="317.5" y1="148.83333" x2="317.5" y2="43" gradientTransform="matrix(0.0468795,0,0,0.0468795,-9.922822,1.6447)">
<stop offset="0" style="stop-color:rgb(100%,43.921569%,26.27451%);stop-opacity:1;"/>
<stop offset="1" style="stop-color:rgb(100%,67.058824%,56.862745%);stop-opacity:1;"/>
</linearGradient>
<linearGradient id="linear2" gradientUnits="userSpaceOnUse" x1="254" y1="233.5" x2="254" y2="-168.66667" gradientTransform="matrix(0.0468795,0,0,0.0468795,-0.000000444935,10.079087)">
<stop offset="0" style="stop-color:rgb(55.294118%,43.137255%,38.823529%);stop-opacity:1;"/>
<stop offset="1" style="stop-color:rgb(63.137255%,53.333333%,49.803922%);stop-opacity:1;"/>
</linearGradient>
<linearGradient id="linear3" gradientUnits="userSpaceOnUse" x1="317.5" y1="148.83333" x2="317.5" y2="43" gradientTransform="matrix(0.0468795,0,0,0.0468795,0.992282,11.071381)">
<stop offset="0" style="stop-color:rgb(47.058824%,56.470588%,61.176471%);stop-opacity:1;"/>
<stop offset="1" style="stop-color:rgb(69.019608%,74.509804%,77.254902%);stop-opacity:1;"/>
</linearGradient>
</defs>
<g id="surface1">
<path style=" stroke:none;fill-rule:nonzero;fill:url(#radial0);" d="M 13.644531 21.027344 L 15.628906 21.027344 L 15.628906 20.03125 L 13.644531 20.03125 Z M 13.644531 21.027344 "/>
<path style=" stroke:none;fill-rule:nonzero;fill:url(#radial1);" d="M 10.171875 21.027344 L 8.1875 21.027344 L 8.1875 22.019531 L 10.171875 22.019531 Z M 10.171875 21.027344 "/>
<path style=" stroke:none;fill-rule:nonzero;fill:url(#radial2);" d="M 10.171875 21.027344 L 8.1875 21.027344 L 8.1875 20.03125 L 10.171875 20.03125 Z M 10.171875 21.027344 "/>
<path style=" stroke:none;fill-rule:nonzero;fill:url(#radial3);" d="M 13.644531 21.027344 L 15.628906 21.027344 L 15.628906 22.019531 L 13.644531 22.019531 Z M 13.644531 21.027344 "/>
<path style=" stroke:none;fill-rule:nonzero;fill:url(#linear0);" d="M 10.171875 20.777344 L 13.644531 20.777344 L 13.644531 22.019531 L 10.171875 22.019531 Z M 10.171875 20.777344 "/>
<path style=" stroke:none;fill-rule:nonzero;fill:url(#linear1);" d="M 4.960938 3.660156 C 6.332031 3.660156 7.441406 4.769531 7.441406 6.140625 C 7.441406 7.511719 6.332031 8.621094 4.960938 8.621094 C 3.589844 8.621094 2.480469 7.511719 2.480469 6.140625 C 2.480469 4.769531 3.589844 3.660156 4.960938 3.660156 Z M 4.960938 3.660156 "/>
<path style=" stroke:none;fill-rule:nonzero;fill:rgb(100%,100%,100%);fill-opacity:0.313725;" d="M 5.679688 4.679688 C 5.433594 4.679688 5.230469 4.75 5.097656 4.925781 C 4.339844 5.933594 3.851562 5.039062 3.101562 5.3125 C 2.902344 5.351562 2.75 5.335938 2.632812 5.28125 C 2.535156 5.550781 2.480469 5.839844 2.480469 6.140625 C 2.480469 6.179688 2.480469 6.21875 2.484375 6.257812 C 2.660156 6.378906 2.8125 6.496094 2.894531 6.554688 C 3.71875 6.96875 4.105469 6.589844 4.960938 6.140625 C 5.539062 5.886719 6.53125 5.9375 7.433594 5.921875 C 7.40625 5.640625 7.335938 5.371094 7.226562 5.121094 C 7.203125 5.097656 7.179688 5.070312 7.15625 5.046875 C 6.621094 4.867188 6.089844 4.679688 5.679688 4.679688 Z M 5.679688 4.679688 "/>
<path style=" stroke:none;fill-rule:nonzero;fill:rgb(12.941176%,12.941176%,12.941176%);fill-opacity:1;" d="M 4.960938 3.589844 C 3.550781 3.589844 2.410156 4.730469 2.410156 6.140625 C 2.410156 7.554688 3.550781 8.691406 4.960938 8.691406 C 6.375 8.691406 7.511719 7.554688 7.511719 6.140625 C 7.511719 4.730469 6.375 3.589844 4.960938 3.589844 Z M 4.960938 3.730469 C 6.296875 3.730469 7.371094 4.804688 7.371094 6.140625 C 7.371094 7.476562 6.296875 8.550781 4.960938 8.550781 C 3.625 8.550781 2.550781 7.476562 2.550781 6.140625 C 2.550781 4.804688 3.625 3.730469 4.960938 3.730469 Z M 4.960938 3.730469 "/>
<path style=" stroke:none;fill-rule:nonzero;fill:url(#linear2);" d="M 11.90625 2.171875 C 17.113281 2.171875 21.335938 6.390625 21.335938 11.597656 C 21.335938 16.804688 17.113281 21.027344 11.90625 21.027344 C 6.703125 21.027344 2.480469 16.804688 2.480469 11.597656 C 2.480469 6.390625 6.703125 2.171875 11.90625 2.171875 Z M 11.90625 2.171875 "/>
<path style=" stroke:none;fill-rule:nonzero;fill:rgb(100%,100%,100%);fill-opacity:0.313725;" d="M 6.648438 3.765625 C 5.46875 4.558594 4.476562 5.609375 3.757812 6.84375 C 4.371094 7.175781 4.960938 7.425781 5.457031 7.132812 C 6.089844 6.789062 7.914062 8.246094 8.433594 8.621094 C 10.417969 9.613281 11.34375 8.703125 13.394531 7.628906 C 14.972656 6.941406 17.832031 7.1875 20.191406 7.082031 C 19.773438 6.320312 19.257812 5.621094 18.65625 5.007812 C 16.617188 4.320312 14.574219 3.578125 13.71875 4.714844 C 11.90625 7.132812 10.734375 4.984375 8.929688 5.644531 C 7.359375 5.949219 7.027344 4.824219 6.648438 3.765625 Z M 6.648438 3.765625 "/>
<path style=" stroke:none;fill-rule:nonzero;fill:rgb(100%,100%,100%);fill-opacity:0.313725;" d="M 20.507812 15.472656 C 19.515625 15.933594 18.792969 16.136719 17.859375 16.0625 C 16.785156 16.335938 17.761719 17.558594 16.867188 17.550781 C 15.769531 17.550781 11.90625 20.03125 9.425781 18.542969 C 8.382812 18.335938 6.535156 18.03125 5.007812 18.035156 C 6.726562 19.875 9.175781 21.027344 11.90625 21.027344 C 13.132812 21.027344 14.300781 20.792969 15.371094 20.375 C 17.679688 19.070312 19.714844 17.246094 20.507812 15.472656 Z M 20.507812 15.472656 "/>
<path style=" stroke:none;fill-rule:nonzero;fill:rgb(100%,100%,100%);fill-opacity:0.313725;" d="M 4.976562 8.5625 C 4.824219 8.5625 4.652344 8.582031 4.464844 8.621094 C 4.132812 8.816406 4.339844 9.363281 3.96875 9.613281 C 3.8125 9.871094 3.296875 9.453125 2.828125 9.042969 C 2.601562 9.855469 2.480469 10.710938 2.480469 11.597656 C 2.480469 11.960938 2.5 12.316406 2.539062 12.664062 C 3.542969 13.054688 4.632812 14.070312 5.457031 13.582031 C 6.089844 13.238281 7.914062 14.695312 8.433594 15.070312 C 10.417969 16.0625 11.34375 15.152344 13.394531 14.078125 C 15.195312 13.292969 18.664062 13.726562 21.152344 13.460938 C 21.269531 12.859375 21.335938 12.238281 21.335938 11.597656 C 21.335938 10.902344 21.257812 10.226562 21.117188 9.574219 C 18.667969 9.136719 17.007812 10.09375 15.875 11.597656 C 14.0625 14.019531 10.734375 11.433594 8.929688 12.09375 C 6.101562 12.640625 7.296875 8.558594 4.976562 8.5625 Z M 4.976562 8.5625 "/>
<path style=" stroke:none;fill-rule:nonzero;fill:rgb(100%,100%,100%);fill-opacity:0.392157;" d="M 11.90625 2.171875 C 6.683594 2.171875 2.480469 6.375 2.480469 11.597656 C 2.480469 11.660156 2.480469 11.71875 2.484375 11.78125 C 2.578125 6.644531 6.746094 2.535156 11.90625 2.535156 C 17.070312 2.535156 21.234375 6.644531 21.332031 11.78125 C 21.332031 11.71875 21.335938 11.660156 21.335938 11.597656 C 21.335938 6.375 17.128906 2.171875 11.90625 2.171875 Z M 11.90625 2.171875 "/>
<path style=" stroke:none;fill-rule:nonzero;fill:rgb(0%,0%,0%);fill-opacity:0.235294;" d="M 11.90625 21.027344 C 6.683594 21.027344 2.480469 16.820312 2.480469 11.597656 C 2.480469 11.539062 2.480469 11.476562 2.484375 11.417969 C 2.578125 16.554688 6.746094 20.660156 11.90625 20.660156 C 17.070312 20.660156 21.234375 16.554688 21.332031 11.417969 C 21.332031 11.476562 21.335938 11.539062 21.335938 11.597656 C 21.335938 16.820312 17.128906 21.027344 11.90625 21.027344 Z M 11.90625 21.027344 "/>
<path style=" stroke:none;fill-rule:nonzero;fill:rgb(12.941176%,12.941176%,12.941176%);fill-opacity:1;" d="M 11.90625 2.101562 C 6.648438 2.101562 2.410156 6.339844 2.410156 11.597656 C 2.410156 16.859375 6.648438 21.097656 11.90625 21.097656 C 17.167969 21.097656 21.40625 16.859375 21.40625 11.597656 C 21.40625 6.339844 17.167969 2.101562 11.90625 2.101562 Z M 11.90625 2.242188 C 17.09375 2.242188 21.265625 6.414062 21.265625 11.597656 C 21.265625 16.785156 17.09375 20.957031 11.90625 20.957031 C 6.722656 20.957031 2.550781 16.785156 2.550781 11.597656 C 2.550781 6.414062 6.722656 2.242188 11.90625 2.242188 Z M 11.90625 2.242188 "/>
<path style=" stroke:none;fill-rule:nonzero;fill:url(#linear3);" d="M 15.875 13.085938 C 17.246094 13.085938 18.355469 14.199219 18.355469 15.566406 C 18.355469 16.9375 17.246094 18.046875 15.875 18.046875 C 14.507812 18.046875 13.394531 16.9375 13.394531 15.566406 C 13.394531 14.199219 14.507812 13.085938 15.875 13.085938 Z M 15.875 13.085938 "/>
<path style=" stroke:none;fill-rule:nonzero;fill:rgb(100%,100%,100%);fill-opacity:0.313725;" d="M 16.59375 14.109375 C 16.347656 14.109375 16.144531 14.175781 16.011719 14.351562 C 15.257812 15.359375 14.765625 14.464844 14.015625 14.742188 C 13.816406 14.777344 13.664062 14.761719 13.546875 14.710938 C 13.449219 14.976562 13.394531 15.265625 13.394531 15.566406 C 13.394531 15.605469 13.398438 15.644531 13.398438 15.683594 C 13.574219 15.804688 13.730469 15.921875 13.808594 15.980469 C 14.636719 16.394531 15.023438 16.015625 15.875 15.566406 C 16.453125 15.316406 17.449219 15.363281 18.347656 15.351562 C 18.324219 15.066406 18.25 14.796875 18.140625 14.550781 C 18.117188 14.523438 18.09375 14.5 18.070312 14.472656 C 17.539062 14.296875 17.003906 14.109375 16.59375 14.109375 Z M 16.59375 14.109375 "/>
<path style=" stroke:none;fill-rule:nonzero;fill:rgb(100%,100%,100%);fill-opacity:0.392157;" d="M 15.875 13.085938 C 14.503906 13.085938 13.394531 14.195312 13.394531 15.566406 C 13.394531 15.597656 13.398438 15.628906 13.398438 15.660156 C 13.445312 14.332031 14.535156 13.273438 15.875 13.273438 C 17.21875 13.273438 18.308594 14.332031 18.355469 15.660156 C 18.355469 15.628906 18.355469 15.597656 18.355469 15.566406 C 18.355469 14.195312 17.25 13.085938 15.875 13.085938 Z M 15.875 13.085938 "/>
<path style=" stroke:none;fill-rule:nonzero;fill:rgb(12.941176%,12.941176%,12.941176%);fill-opacity:1;" d="M 15.875 13.015625 C 14.464844 13.015625 13.324219 14.15625 13.324219 15.566406 C 13.324219 16.980469 14.464844 18.117188 15.875 18.117188 C 17.289062 18.117188 18.425781 16.980469 18.425781 15.566406 C 18.425781 14.15625 17.289062 13.015625 15.875 13.015625 Z M 15.875 13.15625 C 17.214844 13.15625 18.285156 14.230469 18.285156 15.566406 C 18.285156 16.90625 17.214844 17.976562 15.875 17.976562 C 14.539062 17.976562 13.464844 16.90625 13.464844 15.566406 C 13.464844 14.230469 14.539062 13.15625 15.875 13.15625 Z M 15.875 13.15625 "/>
<path style=" stroke:none;fill-rule:nonzero;fill:rgb(0%,0%,0%);fill-opacity:0.235294;" d="M 13.402344 15.753906 C 13.398438 15.816406 13.394531 15.878906 13.394531 15.941406 C 13.394531 17.3125 14.503906 18.421875 15.875 18.421875 C 17.25 18.421875 18.355469 17.3125 18.355469 15.941406 C 18.355469 15.878906 18.355469 15.816406 18.351562 15.753906 C 18.253906 17.039062 17.1875 18.046875 15.875 18.046875 C 14.566406 18.046875 13.496094 17.039062 13.402344 15.753906 Z M 13.402344 15.753906 "/>
</g>
</svg>
