<?xml version="1.0" encoding="UTF-8"?>
<svg xmlns="http://www.w3.org/2000/svg" xmlns:xlink="http://www.w3.org/1999/xlink" width="24px" height="24px" viewBox="0 0 24 24" version="1.1">
<defs>
<linearGradient id="linear0" gradientUnits="userSpaceOnUse" x1="254" y1="233.5" x2="254" y2="254.666672" gradientTransform="matrix(0.0750072,0,0,0.0468795,-7.144439,10.079089)">
<stop offset="0" style="stop-color:rgb(0%,0%,0%);stop-opacity:0.27451;"/>
<stop offset="1" style="stop-color:rgb(0%,0%,0%);stop-opacity:0;"/>
</linearGradient>
<radialGradient id="radial0" gradientUnits="userSpaceOnUse" cx="450.908936" cy="189.579361" fx="450.908936" fy="189.579361" r="21.166656" gradientTransform="matrix(0.000000130628,-0.0585994,-0.105479,-0.0000000761539,39.594127,47.696499)">
<stop offset="0" style="stop-color:rgb(0%,0%,0%);stop-opacity:0.313726;"/>
<stop offset="0.222222" style="stop-color:rgb(0%,0%,0%);stop-opacity:0.27451;"/>
<stop offset="1" style="stop-color:rgb(0%,0%,0%);stop-opacity:0;"/>
</radialGradient>
<radialGradient id="radial1" gradientUnits="userSpaceOnUse" cx="450.908936" cy="189.579361" fx="450.908936" fy="189.579361" r="21.166656" gradientTransform="matrix(-0.000000130628,0.0585994,0.105479,0.0000000761539,-15.779356,-5.645609)">
<stop offset="0" style="stop-color:rgb(0%,0%,0%);stop-opacity:0.313726;"/>
<stop offset="0.222222" style="stop-color:rgb(0%,0%,0%);stop-opacity:0.27451;"/>
<stop offset="1" style="stop-color:rgb(0%,0%,0%);stop-opacity:0;"/>
</radialGradient>
<radialGradient id="radial2" gradientUnits="userSpaceOnUse" cx="450.908936" cy="189.579361" fx="450.908936" fy="189.579361" r="21.166656" gradientTransform="matrix(-0.000000130628,-0.0585994,0.105479,-0.0000000761539,-15.779356,47.696499)">
<stop offset="0" style="stop-color:rgb(0%,0%,0%);stop-opacity:0.313726;"/>
<stop offset="0.222222" style="stop-color:rgb(0%,0%,0%);stop-opacity:0.27451;"/>
<stop offset="1" style="stop-color:rgb(0%,0%,0%);stop-opacity:0;"/>
</radialGradient>
<radialGradient id="radial3" gradientUnits="userSpaceOnUse" cx="450.908936" cy="189.579361" fx="450.908936" fy="189.579361" r="21.166656" gradientTransform="matrix(0.000000130628,0.0585994,-0.105479,0.0000000761539,39.594126,-5.64561)">
<stop offset="0" style="stop-color:rgb(0%,0%,0%);stop-opacity:0.313726;"/>
<stop offset="0.222222" style="stop-color:rgb(0%,0%,0%);stop-opacity:0.27451;"/>
<stop offset="1" style="stop-color:rgb(0%,0%,0%);stop-opacity:0;"/>
</radialGradient>
<linearGradient id="linear1" gradientUnits="userSpaceOnUse" x1="254" y1="212.333328" x2="254.000031" y2="-189.833328" gradientTransform="matrix(0.0468795,0,0,0.0468795,-0.00000125821,11.07137)">
<stop offset="0" style="stop-color:rgb(25.882354%,25.882354%,25.882354%);stop-opacity:1;"/>
<stop offset="1" style="stop-color:rgb(38.039216%,38.039216%,38.039216%);stop-opacity:1;"/>
</linearGradient>
<linearGradient id="linear2" gradientUnits="userSpaceOnUse" x1="254.000031" y1="487.500092" x2="254.000031" y2="85.33342" gradientTransform="matrix(0.0468795,0,0,0.0468795,-0.00000125821,-1.828303)">
<stop offset="0" style="stop-color:rgb(25.882354%,25.882354%,25.882354%);stop-opacity:1;"/>
<stop offset="1" style="stop-color:rgb(38.039216%,38.039216%,38.039216%);stop-opacity:1;"/>
</linearGradient>
<linearGradient id="linear3" gradientUnits="userSpaceOnUse" x1="254.000031" y1="349.916656" x2="254.000031" y2="-52.249992" gradientTransform="matrix(0.0468795,0,0,0.0468795,-0.00000125821,4.621535)">
<stop offset="0" style="stop-color:rgb(25.882354%,25.882354%,25.882354%);stop-opacity:1;"/>
<stop offset="1" style="stop-color:rgb(38.039216%,38.039216%,38.039216%);stop-opacity:1;"/>
</linearGradient>
<linearGradient id="linear4" gradientUnits="userSpaceOnUse" x1="169.333328" y1="-4.625007" x2="84.666664" y2="-4.625007" gradientTransform="matrix(1,0,-0,1,-21.83333,94.583344)">
<stop offset="0" style="stop-color:rgb(25.882354%,25.882354%,25.882354%);stop-opacity:1;"/>
<stop offset="1" style="stop-color:rgb(38.039216%,38.039216%,38.039216%);stop-opacity:1;"/>
</linearGradient>
<linearGradient id="linear5" gradientUnits="userSpaceOnUse" x1="169.333328" y1="-4.625007" x2="84.666664" y2="-4.625007" gradientTransform="matrix(1,0,-0,1,-21.83333,115.750008)">
<stop offset="0" style="stop-color:rgb(25.882354%,25.882354%,25.882354%);stop-opacity:1;"/>
<stop offset="1" style="stop-color:rgb(38.039216%,38.039216%,38.039216%);stop-opacity:1;"/>
</linearGradient>
<linearGradient id="linear6" gradientUnits="userSpaceOnUse" x1="169.333328" y1="-4.625007" x2="84.666664" y2="-4.625007" gradientTransform="matrix(1,0,-0,1,-21.83333,136.916672)">
<stop offset="0" style="stop-color:rgb(25.882354%,25.882354%,25.882354%);stop-opacity:1;"/>
<stop offset="1" style="stop-color:rgb(38.039216%,38.039216%,38.039216%);stop-opacity:1;"/>
</linearGradient>
<linearGradient id="linear7" gradientUnits="userSpaceOnUse" x1="169.333328" y1="-4.625007" x2="84.666664" y2="-4.625007" gradientTransform="matrix(1,0,-0,1,-21.83333,158.083344)">
<stop offset="0" style="stop-color:rgb(25.882354%,25.882354%,25.882354%);stop-opacity:1;"/>
<stop offset="1" style="stop-color:rgb(38.039216%,38.039216%,38.039216%);stop-opacity:1;"/>
</linearGradient>
<linearGradient id="linear8" gradientUnits="userSpaceOnUse" x1="169.333328" y1="-4.625007" x2="84.666664" y2="-4.625007" gradientTransform="matrix(1,0,-0,1,-21.83333,179.250015)">
<stop offset="0" style="stop-color:rgb(25.882354%,25.882354%,25.882354%);stop-opacity:1;"/>
<stop offset="1" style="stop-color:rgb(38.039216%,38.039216%,38.039216%);stop-opacity:1;"/>
</linearGradient>
<linearGradient id="linear9" gradientUnits="userSpaceOnUse" x1="169.333328" y1="-4.625007" x2="84.666664" y2="-4.625007" gradientTransform="matrix(1,0,-0,1,-21.83333,200.416656)">
<stop offset="0" style="stop-color:rgb(25.882354%,25.882354%,25.882354%);stop-opacity:1;"/>
<stop offset="1" style="stop-color:rgb(38.039216%,38.039216%,38.039216%);stop-opacity:1;"/>
</linearGradient>
<linearGradient id="linear10" gradientUnits="userSpaceOnUse" x1="169.333328" y1="-4.625007" x2="84.666664" y2="-4.625007" gradientTransform="matrix(1,0,-0,1,-21.83333,221.583344)">
<stop offset="0" style="stop-color:rgb(25.882354%,25.882354%,25.882354%);stop-opacity:1;"/>
<stop offset="1" style="stop-color:rgb(38.039216%,38.039216%,38.039216%);stop-opacity:1;"/>
</linearGradient>
<linearGradient id="linear11" gradientUnits="userSpaceOnUse" x1="169.333328" y1="-4.625007" x2="84.666664" y2="-4.625007" gradientTransform="matrix(1,0,-0,1,-21.83333,94.583344)">
<stop offset="0" style="stop-color:rgb(25.882354%,25.882354%,25.882354%);stop-opacity:1;"/>
<stop offset="1" style="stop-color:rgb(38.039216%,38.039216%,38.039216%);stop-opacity:1;"/>
</linearGradient>
<linearGradient id="linear12" gradientUnits="userSpaceOnUse" x1="169.333328" y1="-4.625007" x2="84.666664" y2="-4.625007" gradientTransform="matrix(1,0,-0,1,-21.83333,115.750008)">
<stop offset="0" style="stop-color:rgb(25.882354%,25.882354%,25.882354%);stop-opacity:1;"/>
<stop offset="1" style="stop-color:rgb(38.039216%,38.039216%,38.039216%);stop-opacity:1;"/>
</linearGradient>
<linearGradient id="linear13" gradientUnits="userSpaceOnUse" x1="169.333328" y1="-4.625007" x2="84.666664" y2="-4.625007" gradientTransform="matrix(1,0,-0,1,-21.83333,136.916672)">
<stop offset="0" style="stop-color:rgb(25.882354%,25.882354%,25.882354%);stop-opacity:1;"/>
<stop offset="1" style="stop-color:rgb(38.039216%,38.039216%,38.039216%);stop-opacity:1;"/>
</linearGradient>
<linearGradient id="linear14" gradientUnits="userSpaceOnUse" x1="169.333328" y1="-4.625007" x2="84.666664" y2="-4.625007" gradientTransform="matrix(1,0,-0,1,-21.83333,158.083344)">
<stop offset="0" style="stop-color:rgb(25.882354%,25.882354%,25.882354%);stop-opacity:1;"/>
<stop offset="1" style="stop-color:rgb(38.039216%,38.039216%,38.039216%);stop-opacity:1;"/>
</linearGradient>
<linearGradient id="linear15" gradientUnits="userSpaceOnUse" x1="169.333328" y1="-4.625007" x2="84.666664" y2="-4.625007" gradientTransform="matrix(1,0,-0,1,-21.83333,179.250015)">
<stop offset="0" style="stop-color:rgb(25.882354%,25.882354%,25.882354%);stop-opacity:1;"/>
<stop offset="1" style="stop-color:rgb(38.039216%,38.039216%,38.039216%);stop-opacity:1;"/>
</linearGradient>
<linearGradient id="linear16" gradientUnits="userSpaceOnUse" x1="169.333328" y1="-4.625007" x2="84.666664" y2="-4.625007" gradientTransform="matrix(1,0,-0,1,-21.83333,200.416656)">
<stop offset="0" style="stop-color:rgb(25.882354%,25.882354%,25.882354%);stop-opacity:1;"/>
<stop offset="1" style="stop-color:rgb(38.039216%,38.039216%,38.039216%);stop-opacity:1;"/>
</linearGradient>
<linearGradient id="linear17" gradientUnits="userSpaceOnUse" x1="169.333328" y1="-4.625007" x2="84.666664" y2="-4.625007" gradientTransform="matrix(1,0,-0,1,-21.83333,221.583344)">
<stop offset="0" style="stop-color:rgb(25.882354%,25.882354%,25.882354%);stop-opacity:1;"/>
<stop offset="1" style="stop-color:rgb(38.039216%,38.039216%,38.039216%);stop-opacity:1;"/>
</linearGradient>
<linearGradient id="linear18" gradientUnits="userSpaceOnUse" x1="169.333328" y1="-4.625007" x2="84.666664" y2="-4.625007" gradientTransform="matrix(1,0,-0,1,-21.83333,94.583344)">
<stop offset="0" style="stop-color:rgb(25.882354%,25.882354%,25.882354%);stop-opacity:1;"/>
<stop offset="1" style="stop-color:rgb(38.039216%,38.039216%,38.039216%);stop-opacity:1;"/>
</linearGradient>
<linearGradient id="linear19" gradientUnits="userSpaceOnUse" x1="169.333328" y1="-4.625007" x2="84.666664" y2="-4.625007" gradientTransform="matrix(1,0,-0,1,-21.83333,115.750008)">
<stop offset="0" style="stop-color:rgb(25.882354%,25.882354%,25.882354%);stop-opacity:1;"/>
<stop offset="1" style="stop-color:rgb(38.039216%,38.039216%,38.039216%);stop-opacity:1;"/>
</linearGradient>
<linearGradient id="linear20" gradientUnits="userSpaceOnUse" x1="169.333328" y1="-4.625007" x2="84.666664" y2="-4.625007" gradientTransform="matrix(1,0,-0,1,-21.83333,136.916672)">
<stop offset="0" style="stop-color:rgb(25.882354%,25.882354%,25.882354%);stop-opacity:1;"/>
<stop offset="1" style="stop-color:rgb(38.039216%,38.039216%,38.039216%);stop-opacity:1;"/>
</linearGradient>
<linearGradient id="linear21" gradientUnits="userSpaceOnUse" x1="169.333328" y1="-4.625007" x2="84.666664" y2="-4.625007" gradientTransform="matrix(1,0,-0,1,-21.83333,158.083344)">
<stop offset="0" style="stop-color:rgb(25.882354%,25.882354%,25.882354%);stop-opacity:1;"/>
<stop offset="1" style="stop-color:rgb(38.039216%,38.039216%,38.039216%);stop-opacity:1;"/>
</linearGradient>
<linearGradient id="linear22" gradientUnits="userSpaceOnUse" x1="169.333328" y1="-4.625007" x2="84.666664" y2="-4.625007" gradientTransform="matrix(1,0,-0,1,-21.83333,179.250015)">
<stop offset="0" style="stop-color:rgb(25.882354%,25.882354%,25.882354%);stop-opacity:1;"/>
<stop offset="1" style="stop-color:rgb(38.039216%,38.039216%,38.039216%);stop-opacity:1;"/>
</linearGradient>
<linearGradient id="linear23" gradientUnits="userSpaceOnUse" x1="169.333328" y1="-4.625007" x2="84.666664" y2="-4.625007" gradientTransform="matrix(1,0,-0,1,-21.83333,200.416656)">
<stop offset="0" style="stop-color:rgb(25.882354%,25.882354%,25.882354%);stop-opacity:1;"/>
<stop offset="1" style="stop-color:rgb(38.039216%,38.039216%,38.039216%);stop-opacity:1;"/>
</linearGradient>
<linearGradient id="linear24" gradientUnits="userSpaceOnUse" x1="169.333328" y1="-4.625007" x2="84.666664" y2="-4.625007" gradientTransform="matrix(1,0,-0,1,-21.83333,221.583344)">
<stop offset="0" style="stop-color:rgb(25.882354%,25.882354%,25.882354%);stop-opacity:1;"/>
<stop offset="1" style="stop-color:rgb(38.039216%,38.039216%,38.039216%);stop-opacity:1;"/>
</linearGradient>
<linearGradient id="linear25" gradientUnits="userSpaceOnUse" x1="285.75" y1="-84" x2="285.75" y2="-126.333344" gradientTransform="matrix(0.0468795,0,0,0.0468795,0,10.079087)">
<stop offset="0" style="stop-color:rgb(100%,65.490198%,14.901961%);stop-opacity:1;"/>
<stop offset="1" style="stop-color:rgb(100%,71.764708%,30.19608%);stop-opacity:1;"/>
</linearGradient>
<linearGradient id="linear26" gradientUnits="userSpaceOnUse" x1="349.25" y1="-84" x2="349.25" y2="-126.333344" gradientTransform="matrix(0.0468795,0,0,0.0468795,0,10.079087)">
<stop offset="0" style="stop-color:rgb(40.000001%,73.333335%,41.568628%);stop-opacity:1;"/>
<stop offset="1" style="stop-color:rgb(50.588238%,78.039217%,51.764709%);stop-opacity:1;"/>
</linearGradient>
<linearGradient id="linear27" gradientUnits="userSpaceOnUse" x1="407.458344" y1="-84" x2="407.458344" y2="-126.333344" gradientTransform="matrix(0.0468795,0,0,0.0468795,0,10.079087)">
<stop offset="0" style="stop-color:rgb(93.725491%,32.549021%,31.37255%);stop-opacity:1;"/>
<stop offset="1" style="stop-color:rgb(89.803922%,45.09804%,45.09804%);stop-opacity:1;"/>
</linearGradient>
<linearGradient id="linear28" gradientUnits="userSpaceOnUse" x1="285.75" y1="-84" x2="285.75" y2="-126.333344" gradientTransform="matrix(0.0468795,0,0,0.0468795,0,16.528933)">
<stop offset="0" style="stop-color:rgb(100%,65.490198%,14.901961%);stop-opacity:1;"/>
<stop offset="1" style="stop-color:rgb(100%,71.764708%,30.19608%);stop-opacity:1;"/>
</linearGradient>
<linearGradient id="linear29" gradientUnits="userSpaceOnUse" x1="349.25" y1="-84" x2="349.25" y2="-126.333344" gradientTransform="matrix(0.0468795,0,0,0.0468795,0,16.528933)">
<stop offset="0" style="stop-color:rgb(40.000001%,73.333335%,41.568628%);stop-opacity:1;"/>
<stop offset="1" style="stop-color:rgb(50.588238%,78.039217%,51.764709%);stop-opacity:1;"/>
</linearGradient>
<linearGradient id="linear30" gradientUnits="userSpaceOnUse" x1="407.458344" y1="-84" x2="407.458344" y2="-126.333344" gradientTransform="matrix(0.0468795,0,0,0.0468795,0,16.528933)">
<stop offset="0" style="stop-color:rgb(93.725491%,32.549021%,31.37255%);stop-opacity:1;"/>
<stop offset="1" style="stop-color:rgb(89.803922%,45.09804%,45.09804%);stop-opacity:1;"/>
</linearGradient>
<linearGradient id="linear31" gradientUnits="userSpaceOnUse" x1="285.75" y1="-84" x2="285.75" y2="-126.333344" gradientTransform="matrix(0.0468795,0,0,0.0468795,0,22.978756)">
<stop offset="0" style="stop-color:rgb(100%,65.490198%,14.901961%);stop-opacity:1;"/>
<stop offset="1" style="stop-color:rgb(100%,71.764708%,30.19608%);stop-opacity:1;"/>
</linearGradient>
<linearGradient id="linear32" gradientUnits="userSpaceOnUse" x1="349.25" y1="-84" x2="349.25" y2="-126.333344" gradientTransform="matrix(0.0468795,0,0,0.0468795,0,22.978756)">
<stop offset="0" style="stop-color:rgb(40.000001%,73.333335%,41.568628%);stop-opacity:1;"/>
<stop offset="1" style="stop-color:rgb(50.588238%,78.039217%,51.764709%);stop-opacity:1;"/>
</linearGradient>
<linearGradient id="linear33" gradientUnits="userSpaceOnUse" x1="407.458344" y1="-84" x2="407.458344" y2="-126.333344" gradientTransform="matrix(0.0468795,0,0,0.0468795,0,22.978756)">
<stop offset="0" style="stop-color:rgb(93.725491%,32.549021%,31.37255%);stop-opacity:1;"/>
<stop offset="1" style="stop-color:rgb(89.803922%,45.09804%,45.09804%);stop-opacity:1;"/>
</linearGradient>
<linearGradient id="linear34" gradientUnits="userSpaceOnUse" x1="253.999985" y1="233.5" x2="254.000015" y2="-168.666672" gradientTransform="matrix(0.0297283,0,0,0.0297283,-0.400881,16.658737)">
<stop offset="0" style="stop-color:rgb(100%,79.215688%,15.686275%);stop-opacity:1;"/>
<stop offset="1" style="stop-color:rgb(100%,83.529413%,30.980393%);stop-opacity:1;"/>
</linearGradient>
</defs>
<g id="surface1">
<path style=" stroke:none;fill-rule:nonzero;fill:url(#linear0);" d="M 3.96875 21.027344 L 19.84375 21.027344 L 19.84375 22.019531 L 3.96875 22.019531 Z M 3.96875 21.027344 "/>
<path style=" stroke:none;fill-rule:nonzero;fill:url(#radial0);" d="M 19.84375 21.027344 L 21.832031 21.027344 L 21.832031 20.03125 L 19.84375 20.03125 Z M 19.84375 21.027344 "/>
<path style=" stroke:none;fill-rule:nonzero;fill:url(#radial1);" d="M 3.96875 21.027344 L 1.984375 21.027344 L 1.984375 22.019531 L 3.96875 22.019531 Z M 3.96875 21.027344 "/>
<path style=" stroke:none;fill-rule:nonzero;fill:url(#radial2);" d="M 3.96875 21.027344 L 1.984375 21.027344 L 1.984375 20.03125 L 3.96875 20.03125 Z M 3.96875 21.027344 "/>
<path style=" stroke:none;fill-rule:nonzero;fill:url(#radial3);" d="M 19.84375 21.027344 L 21.832031 21.027344 L 21.832031 22.019531 L 19.84375 22.019531 Z M 19.84375 21.027344 "/>
<path style=" stroke:none;fill-rule:nonzero;fill:url(#linear1);" d="M 2.976562 15.070312 L 20.839844 15.070312 C 21.386719 15.070312 21.832031 15.515625 21.832031 16.0625 L 21.832031 20.03125 C 21.832031 20.582031 21.386719 21.027344 20.839844 21.027344 L 2.976562 21.027344 C 2.429688 21.027344 1.984375 20.582031 1.984375 20.03125 L 1.984375 16.0625 C 1.984375 15.515625 2.429688 15.070312 2.976562 15.070312 Z M 2.976562 15.070312 "/>
<path style=" stroke:none;fill-rule:nonzero;fill:url(#linear2);" d="M 2.976562 2.171875 L 20.839844 2.171875 C 21.386719 2.171875 21.832031 2.617188 21.832031 3.164062 L 21.832031 7.132812 C 21.832031 7.679688 21.386719 8.125 20.839844 8.125 L 2.976562 8.125 C 2.429688 8.125 1.984375 7.679688 1.984375 7.132812 L 1.984375 3.164062 C 1.984375 2.617188 2.429688 2.171875 2.976562 2.171875 Z M 2.976562 2.171875 "/>
<path style=" stroke:none;fill-rule:nonzero;fill:rgb(100%,100%,100%);fill-opacity:0.392157;" d="M 2.976562 2.171875 C 2.425781 2.171875 1.984375 2.613281 1.984375 3.164062 L 1.984375 3.414062 C 1.984375 2.863281 2.425781 2.421875 2.976562 2.421875 L 20.839844 2.421875 C 21.386719 2.421875 21.832031 2.863281 21.832031 3.414062 L 21.832031 3.164062 C 21.832031 2.613281 21.386719 2.171875 20.839844 2.171875 Z M 2.976562 2.171875 "/>
<path style=" stroke:none;fill-rule:nonzero;fill:rgb(0%,0%,0%);fill-opacity:0.235294;" d="M 2.976562 21.027344 C 2.425781 21.027344 1.984375 20.582031 1.984375 20.03125 L 1.984375 19.785156 C 1.984375 20.335938 2.425781 20.777344 2.976562 20.777344 L 20.839844 20.777344 C 21.386719 20.777344 21.832031 20.335938 21.832031 19.785156 L 21.832031 20.03125 C 21.832031 20.582031 21.386719 21.027344 20.839844 21.027344 Z M 2.976562 21.027344 "/>
<path style=" stroke:none;fill-rule:nonzero;fill:url(#linear3);" d="M 2.976562 8.621094 L 20.839844 8.621094 C 21.386719 8.621094 21.832031 9.066406 21.832031 9.613281 L 21.832031 13.582031 C 21.832031 14.132812 21.386719 14.574219 20.839844 14.574219 L 2.976562 14.574219 C 2.429688 14.574219 1.984375 14.132812 1.984375 13.582031 L 1.984375 9.613281 C 1.984375 9.066406 2.429688 8.621094 2.976562 8.621094 Z M 2.976562 8.621094 "/>
<path style=" stroke:none;fill-rule:nonzero;fill:rgb(100%,100%,100%);fill-opacity:0.392157;" d="M 2.976562 8.621094 C 2.425781 8.621094 1.984375 9.066406 1.984375 9.613281 L 1.984375 9.863281 C 1.984375 9.3125 2.425781 8.871094 2.976562 8.871094 L 20.839844 8.871094 C 21.386719 8.871094 21.832031 9.3125 21.832031 9.863281 L 21.832031 9.613281 C 21.832031 9.066406 21.386719 8.621094 20.839844 8.621094 Z M 2.976562 8.621094 "/>
<path style=" stroke:none;fill-rule:nonzero;fill:rgb(100%,100%,100%);fill-opacity:0.392157;" d="M 2.976562 15.070312 C 2.425781 15.070312 1.984375 15.515625 1.984375 16.0625 L 1.984375 16.3125 C 1.984375 15.761719 2.425781 15.320312 2.976562 15.320312 L 20.839844 15.320312 C 21.386719 15.320312 21.832031 15.761719 21.832031 16.3125 L 21.832031 16.0625 C 21.832031 15.515625 21.386719 15.070312 20.839844 15.070312 Z M 2.976562 15.070312 "/>
<path style=" stroke:none;fill-rule:nonzero;fill:rgb(0%,0%,0%);fill-opacity:0.235294;" d="M 2.976562 14.574219 C 2.425781 14.574219 1.984375 14.132812 1.984375 13.582031 L 1.984375 13.335938 C 1.984375 13.886719 2.425781 14.328125 2.976562 14.328125 L 20.839844 14.328125 C 21.386719 14.328125 21.832031 13.886719 21.832031 13.335938 L 21.832031 13.582031 C 21.832031 14.132812 21.386719 14.574219 20.839844 14.574219 Z M 2.976562 14.574219 "/>
<path style=" stroke:none;fill-rule:nonzero;fill:rgb(0%,0%,0%);fill-opacity:0.235294;" d="M 2.976562 8.125 C 2.425781 8.125 1.984375 7.683594 1.984375 7.132812 L 1.984375 6.886719 C 1.984375 7.433594 2.425781 7.878906 2.976562 7.878906 L 20.839844 7.878906 C 21.386719 7.878906 21.832031 7.433594 21.832031 6.886719 L 21.832031 7.132812 C 21.832031 7.683594 21.386719 8.125 20.839844 8.125 Z M 2.976562 8.125 "/>
<path style=" stroke:none;fill-rule:nonzero;fill:rgb(12.941177%,12.941177%,12.941177%);fill-opacity:1;" d="M 2.976562 2.101562 C 2.390625 2.101562 1.914062 2.578125 1.914062 3.164062 L 1.914062 7.132812 C 1.914062 7.722656 2.390625 8.195312 2.976562 8.195312 L 20.839844 8.195312 C 21.425781 8.195312 21.902344 7.722656 21.902344 7.132812 L 21.902344 3.164062 C 21.902344 2.578125 21.425781 2.101562 20.839844 2.101562 Z M 2.976562 2.242188 L 20.839844 2.242188 C 21.351562 2.242188 21.761719 2.652344 21.761719 3.164062 L 21.761719 7.132812 C 21.761719 7.644531 21.351562 8.054688 20.839844 8.054688 L 2.976562 8.054688 C 2.464844 8.054688 2.054688 7.644531 2.054688 7.132812 L 2.054688 3.164062 C 2.054688 2.652344 2.464844 2.242188 2.976562 2.242188 Z M 2.976562 2.242188 "/>
<path style=" stroke:none;fill-rule:nonzero;fill:rgb(12.941177%,12.941177%,12.941177%);fill-opacity:1;" d="M 2.976562 8.621094 C 2.390625 8.621094 1.914062 9.097656 1.914062 9.683594 L 1.914062 13.652344 C 1.914062 14.242188 2.390625 14.714844 2.976562 14.714844 L 20.839844 14.714844 C 21.425781 14.714844 21.902344 14.242188 21.902344 13.652344 L 21.902344 9.683594 C 21.902344 9.097656 21.425781 8.621094 20.839844 8.621094 Z M 2.976562 8.761719 L 20.839844 8.761719 C 21.351562 8.761719 21.761719 9.171875 21.761719 9.683594 L 21.761719 13.652344 C 21.761719 14.164062 21.351562 14.574219 20.839844 14.574219 L 2.976562 14.574219 C 2.464844 14.574219 2.054688 14.164062 2.054688 13.652344 L 2.054688 9.683594 C 2.054688 9.171875 2.464844 8.761719 2.976562 8.761719 Z M 2.976562 8.761719 "/>
<path style=" stroke:none;fill-rule:nonzero;fill:rgb(12.941177%,12.941177%,12.941177%);fill-opacity:1;" d="M 2.976562 15.070312 C 2.390625 15.070312 1.914062 15.546875 1.914062 16.132812 L 1.914062 20.101562 C 1.914062 20.691406 2.390625 21.167969 2.976562 21.167969 L 20.839844 21.167969 C 21.425781 21.167969 21.902344 20.691406 21.902344 20.101562 L 21.902344 16.132812 C 21.902344 15.546875 21.425781 15.070312 20.839844 15.070312 Z M 2.976562 15.210938 L 20.839844 15.210938 C 21.351562 15.210938 21.761719 15.621094 21.761719 16.132812 L 21.761719 20.101562 C 21.761719 20.617188 21.351562 21.027344 20.839844 21.027344 L 2.976562 21.027344 C 2.464844 21.027344 2.054688 20.617188 2.054688 20.101562 L 2.054688 16.132812 C 2.054688 15.621094 2.464844 15.210938 2.976562 15.210938 Z M 2.976562 15.210938 "/>
<path style="fill-rule:nonzero;fill:url(#linear4);stroke-width:3;stroke-linecap:round;stroke-linejoin:round;stroke:rgb(12.941177%,12.941177%,12.941177%);stroke-opacity:1;stroke-miterlimit:4;" d="M 68.097362 84.658582 L 142.173621 84.658582 C 145.090009 84.658582 147.506445 87.075018 147.506445 89.991406 C 147.506445 92.907794 145.090009 95.240905 142.173621 95.240905 L 68.097362 95.240905 C 65.180974 95.240905 62.847863 92.907794 62.847863 89.991406 C 62.847863 87.075018 65.180974 84.658582 68.097362 84.658582 Z M 68.097362 84.658582 " transform="matrix(0.000000000000000003,-0.0468795,0.0468795,0.000000000000000003,0,10.079087)"/>
<path style="fill-rule:nonzero;fill:url(#linear5);stroke-width:3;stroke-linecap:round;stroke-linejoin:round;stroke:rgb(12.941177%,12.941177%,12.941177%);stroke-opacity:1;stroke-miterlimit:4;" d="M 68.097362 105.823228 L 142.173621 105.823228 C 145.090009 105.823228 147.506445 108.239664 147.506445 111.156052 C 147.506445 114.07244 145.090009 116.40555 142.173621 116.40555 L 68.097362 116.40555 C 65.180974 116.40555 62.847863 114.07244 62.847863 111.156052 C 62.847863 108.239664 65.180974 105.823228 68.097362 105.823228 Z M 68.097362 105.823228 " transform="matrix(0.000000000000000003,-0.0468795,0.0468795,0.000000000000000003,0,10.079087)"/>
<path style="fill-rule:nonzero;fill:url(#linear6);stroke-width:3;stroke-linecap:round;stroke-linejoin:round;stroke:rgb(12.941177%,12.941177%,12.941177%);stroke-opacity:1;stroke-miterlimit:4;" d="M 68.097362 126.987873 L 142.173621 126.987873 C 145.090009 126.987873 147.506445 129.404309 147.506445 132.320697 C 147.506445 135.237086 145.090009 137.570196 142.173621 137.570196 L 68.097362 137.570196 C 65.180974 137.570196 62.847863 135.237086 62.847863 132.320697 C 62.847863 129.404309 65.180974 126.987873 68.097362 126.987873 Z M 68.097362 126.987873 " transform="matrix(0.000000000000000003,-0.0468795,0.0468795,0.000000000000000003,0,10.079087)"/>
<path style="fill-rule:nonzero;fill:url(#linear7);stroke-width:3;stroke-linecap:round;stroke-linejoin:round;stroke:rgb(12.941177%,12.941177%,12.941177%);stroke-opacity:1;stroke-miterlimit:4;" d="M 68.097362 148.152519 L 142.173621 148.152519 C 145.090009 148.152519 147.506445 150.568955 147.506445 153.485343 C 147.506445 156.401731 145.090009 158.734842 142.173621 158.734842 L 68.097362 158.734842 C 65.180974 158.734842 62.847863 156.401731 62.847863 153.485343 C 62.847863 150.568955 65.180974 148.152519 68.097362 148.152519 Z M 68.097362 148.152519 " transform="matrix(0.000000000000000003,-0.0468795,0.0468795,0.000000000000000003,0,10.079087)"/>
<path style="fill-rule:nonzero;fill:url(#linear8);stroke-width:3;stroke-linecap:round;stroke-linejoin:round;stroke:rgb(12.941177%,12.941177%,12.941177%);stroke-opacity:1;stroke-miterlimit:4;" d="M 68.097362 169.317164 L 142.173621 169.317164 C 145.090009 169.317164 147.506445 171.7336 147.506445 174.649988 C 147.506445 177.566377 145.090009 179.899487 142.173621 179.899487 L 68.097362 179.899487 C 65.180974 179.899487 62.847863 177.566377 62.847863 174.649988 C 62.847863 171.7336 65.180974 169.317164 68.097362 169.317164 Z M 68.097362 169.317164 " transform="matrix(0.000000000000000003,-0.0468795,0.0468795,0.000000000000000003,0,10.079087)"/>
<path style="fill-rule:nonzero;fill:url(#linear9);stroke-width:3;stroke-linecap:round;stroke-linejoin:round;stroke:rgb(12.941177%,12.941177%,12.941177%);stroke-opacity:1;stroke-miterlimit:4;" d="M 68.097362 190.48181 L 142.173621 190.48181 C 145.090009 190.48181 147.506445 192.898246 147.506445 195.814634 C 147.506445 198.731022 145.090009 201.064133 142.173621 201.064133 L 68.097362 201.064133 C 65.180974 201.064133 62.847863 198.731022 62.847863 195.814634 C 62.847863 192.898246 65.180974 190.48181 68.097362 190.48181 Z M 68.097362 190.48181 " transform="matrix(0.000000000000000003,-0.0468795,0.0468795,0.000000000000000003,0,10.079087)"/>
<path style="fill-rule:nonzero;fill:url(#linear10);stroke-width:3;stroke-linecap:round;stroke-linejoin:round;stroke:rgb(12.941177%,12.941177%,12.941177%);stroke-opacity:1;stroke-miterlimit:4;" d="M 68.097362 211.646455 L 142.173621 211.646455 C 145.090009 211.646455 147.506445 214.062891 147.506445 216.97928 C 147.506445 219.895668 145.090009 222.228778 142.173621 222.228778 L 68.097362 222.228778 C 65.180974 222.228778 62.847863 219.895668 62.847863 216.97928 C 62.847863 214.062891 65.180974 211.646455 68.097362 211.646455 Z M 68.097362 211.646455 " transform="matrix(0.000000000000000003,-0.0468795,0.0468795,0.000000000000000003,0,10.079087)"/>
<path style="fill-rule:nonzero;fill:url(#linear11);stroke-width:3;stroke-linecap:round;stroke-linejoin:round;stroke:rgb(12.941177%,12.941177%,12.941177%);stroke-opacity:1;stroke-miterlimit:4;" d="M 68.110494 84.658582 L 142.186753 84.658582 C 145.103142 84.658582 147.519578 87.075018 147.519578 89.991406 C 147.519578 92.907794 145.103142 95.240905 142.186753 95.240905 L 68.110494 95.240905 C 65.194106 95.240905 62.860995 92.907794 62.860995 89.991406 C 62.860995 87.075018 65.194106 84.658582 68.110494 84.658582 Z M 68.110494 84.658582 " transform="matrix(0.000000000000000003,-0.0468795,0.0468795,0.000000000000000003,0,16.528922)"/>
<path style="fill-rule:nonzero;fill:url(#linear12);stroke-width:3;stroke-linecap:round;stroke-linejoin:round;stroke:rgb(12.941177%,12.941177%,12.941177%);stroke-opacity:1;stroke-miterlimit:4;" d="M 68.110494 105.823228 L 142.186753 105.823228 C 145.103142 105.823228 147.519578 108.239664 147.519578 111.156052 C 147.519578 114.07244 145.103142 116.40555 142.186753 116.40555 L 68.110494 116.40555 C 65.194106 116.40555 62.860995 114.07244 62.860995 111.156052 C 62.860995 108.239664 65.194106 105.823228 68.110494 105.823228 Z M 68.110494 105.823228 " transform="matrix(0.000000000000000003,-0.0468795,0.0468795,0.000000000000000003,0,16.528922)"/>
<path style="fill-rule:nonzero;fill:url(#linear13);stroke-width:3;stroke-linecap:round;stroke-linejoin:round;stroke:rgb(12.941177%,12.941177%,12.941177%);stroke-opacity:1;stroke-miterlimit:4;" d="M 68.110494 126.987873 L 142.186753 126.987873 C 145.103142 126.987873 147.519578 129.404309 147.519578 132.320697 C 147.519578 135.237086 145.103142 137.570196 142.186753 137.570196 L 68.110494 137.570196 C 65.194106 137.570196 62.860995 135.237086 62.860995 132.320697 C 62.860995 129.404309 65.194106 126.987873 68.110494 126.987873 Z M 68.110494 126.987873 " transform="matrix(0.000000000000000003,-0.0468795,0.0468795,0.000000000000000003,0,16.528922)"/>
<path style="fill-rule:nonzero;fill:url(#linear14);stroke-width:3;stroke-linecap:round;stroke-linejoin:round;stroke:rgb(12.941177%,12.941177%,12.941177%);stroke-opacity:1;stroke-miterlimit:4;" d="M 68.110494 148.152519 L 142.186753 148.152519 C 145.103142 148.152519 147.519578 150.568955 147.519578 153.485343 C 147.519578 156.401731 145.103142 158.734842 142.186753 158.734842 L 68.110494 158.734842 C 65.194106 158.734842 62.860995 156.401731 62.860995 153.485343 C 62.860995 150.568955 65.194106 148.152519 68.110494 148.152519 Z M 68.110494 148.152519 " transform="matrix(0.000000000000000003,-0.0468795,0.0468795,0.000000000000000003,0,16.528922)"/>
<path style="fill-rule:nonzero;fill:url(#linear15);stroke-width:3;stroke-linecap:round;stroke-linejoin:round;stroke:rgb(12.941177%,12.941177%,12.941177%);stroke-opacity:1;stroke-miterlimit:4;" d="M 68.110494 169.317164 L 142.186753 169.317164 C 145.103142 169.317164 147.519578 171.7336 147.519578 174.649988 C 147.519578 177.566377 145.103142 179.899487 142.186753 179.899487 L 68.110494 179.899487 C 65.194106 179.899487 62.860995 177.566377 62.860995 174.649988 C 62.860995 171.7336 65.194106 169.317164 68.110494 169.317164 Z M 68.110494 169.317164 " transform="matrix(0.000000000000000003,-0.0468795,0.0468795,0.000000000000000003,0,16.528922)"/>
<path style="fill-rule:nonzero;fill:url(#linear16);stroke-width:3;stroke-linecap:round;stroke-linejoin:round;stroke:rgb(12.941177%,12.941177%,12.941177%);stroke-opacity:1;stroke-miterlimit:4;" d="M 68.110494 190.48181 L 142.186753 190.48181 C 145.103142 190.48181 147.519578 192.898246 147.519578 195.814634 C 147.519578 198.731022 145.103142 201.064133 142.186753 201.064133 L 68.110494 201.064133 C 65.194106 201.064133 62.860995 198.731022 62.860995 195.814634 C 62.860995 192.898246 65.194106 190.48181 68.110494 190.48181 Z M 68.110494 190.48181 " transform="matrix(0.000000000000000003,-0.0468795,0.0468795,0.000000000000000003,0,16.528922)"/>
<path style="fill-rule:nonzero;fill:url(#linear17);stroke-width:3;stroke-linecap:round;stroke-linejoin:round;stroke:rgb(12.941177%,12.941177%,12.941177%);stroke-opacity:1;stroke-miterlimit:4;" d="M 68.110494 211.646455 L 142.186753 211.646455 C 145.103142 211.646455 147.519578 214.062891 147.519578 216.97928 C 147.519578 219.895668 145.103142 222.228778 142.186753 222.228778 L 68.110494 222.228778 C 65.194106 222.228778 62.860995 219.895668 62.860995 216.97928 C 62.860995 214.062891 65.194106 211.646455 68.110494 211.646455 Z M 68.110494 211.646455 " transform="matrix(0.000000000000000003,-0.0468795,0.0468795,0.000000000000000003,0,16.528922)"/>
<path style="fill-rule:nonzero;fill:url(#linear18);stroke-width:3;stroke-linecap:round;stroke-linejoin:round;stroke:rgb(12.941177%,12.941177%,12.941177%);stroke-opacity:1;stroke-miterlimit:4;" d="M 68.123626 84.658582 L 142.199886 84.658582 C 145.116274 84.658582 147.53271 87.075018 147.53271 89.991406 C 147.53271 92.907794 145.116274 95.240905 142.199886 95.240905 L 68.123626 95.240905 C 65.207238 95.240905 62.874128 92.907794 62.874128 89.991406 C 62.874128 87.075018 65.207238 84.658582 68.123626 84.658582 Z M 68.123626 84.658582 " transform="matrix(0.000000000000000003,-0.0468795,0.0468795,0.000000000000000003,0,22.978756)"/>
<path style="fill-rule:nonzero;fill:url(#linear19);stroke-width:3;stroke-linecap:round;stroke-linejoin:round;stroke:rgb(12.941177%,12.941177%,12.941177%);stroke-opacity:1;stroke-miterlimit:4;" d="M 68.123626 105.823228 L 142.199886 105.823228 C 145.116274 105.823228 147.53271 108.239664 147.53271 111.156052 C 147.53271 114.07244 145.116274 116.40555 142.199886 116.40555 L 68.123626 116.40555 C 65.207238 116.40555 62.874128 114.07244 62.874128 111.156052 C 62.874128 108.239664 65.207238 105.823228 68.123626 105.823228 Z M 68.123626 105.823228 " transform="matrix(0.000000000000000003,-0.0468795,0.0468795,0.000000000000000003,0,22.978756)"/>
<path style="fill-rule:nonzero;fill:url(#linear20);stroke-width:3;stroke-linecap:round;stroke-linejoin:round;stroke:rgb(12.941177%,12.941177%,12.941177%);stroke-opacity:1;stroke-miterlimit:4;" d="M 68.123626 126.987873 L 142.199886 126.987873 C 145.116274 126.987873 147.53271 129.404309 147.53271 132.320697 C 147.53271 135.237086 145.116274 137.570196 142.199886 137.570196 L 68.123626 137.570196 C 65.207238 137.570196 62.874128 135.237086 62.874128 132.320697 C 62.874128 129.404309 65.207238 126.987873 68.123626 126.987873 Z M 68.123626 126.987873 " transform="matrix(0.000000000000000003,-0.0468795,0.0468795,0.000000000000000003,0,22.978756)"/>
<path style="fill-rule:nonzero;fill:url(#linear21);stroke-width:3;stroke-linecap:round;stroke-linejoin:round;stroke:rgb(12.941177%,12.941177%,12.941177%);stroke-opacity:1;stroke-miterlimit:4;" d="M 68.123626 148.152519 L 142.199886 148.152519 C 145.116274 148.152519 147.53271 150.568955 147.53271 153.485343 C 147.53271 156.401731 145.116274 158.734842 142.199886 158.734842 L 68.123626 158.734842 C 65.207238 158.734842 62.874128 156.401731 62.874128 153.485343 C 62.874128 150.568955 65.207238 148.152519 68.123626 148.152519 Z M 68.123626 148.152519 " transform="matrix(0.000000000000000003,-0.0468795,0.0468795,0.000000000000000003,0,22.978756)"/>
<path style="fill-rule:nonzero;fill:url(#linear22);stroke-width:3;stroke-linecap:round;stroke-linejoin:round;stroke:rgb(12.941177%,12.941177%,12.941177%);stroke-opacity:1;stroke-miterlimit:4;" d="M 68.123626 169.317164 L 142.199886 169.317164 C 145.116274 169.317164 147.53271 171.7336 147.53271 174.649988 C 147.53271 177.566377 145.116274 179.899487 142.199886 179.899487 L 68.123626 179.899487 C 65.207238 179.899487 62.874128 177.566377 62.874128 174.649988 C 62.874128 171.7336 65.207238 169.317164 68.123626 169.317164 Z M 68.123626 169.317164 " transform="matrix(0.000000000000000003,-0.0468795,0.0468795,0.000000000000000003,0,22.978756)"/>
<path style="fill-rule:nonzero;fill:url(#linear23);stroke-width:3;stroke-linecap:round;stroke-linejoin:round;stroke:rgb(12.941177%,12.941177%,12.941177%);stroke-opacity:1;stroke-miterlimit:4;" d="M 68.123626 190.48181 L 142.199886 190.48181 C 145.116274 190.48181 147.53271 192.898246 147.53271 195.814634 C 147.53271 198.731022 145.116274 201.064133 142.199886 201.064133 L 68.123626 201.064133 C 65.207238 201.064133 62.874128 198.731022 62.874128 195.814634 C 62.874128 192.898246 65.207238 190.48181 68.123626 190.48181 Z M 68.123626 190.48181 " transform="matrix(0.000000000000000003,-0.0468795,0.0468795,0.000000000000000003,0,22.978756)"/>
<path style="fill-rule:nonzero;fill:url(#linear24);stroke-width:3;stroke-linecap:round;stroke-linejoin:round;stroke:rgb(12.941177%,12.941177%,12.941177%);stroke-opacity:1;stroke-miterlimit:4;" d="M 68.123626 211.646455 L 142.199886 211.646455 C 145.116274 211.646455 147.53271 214.062891 147.53271 216.97928 C 147.53271 219.895668 145.116274 222.228778 142.199886 222.228778 L 68.123626 222.228778 C 65.207238 222.228778 62.874128 219.895668 62.874128 216.97928 C 62.874128 214.062891 65.207238 211.646455 68.123626 211.646455 Z M 68.123626 211.646455 " transform="matrix(0.000000000000000003,-0.0468795,0.0468795,0.000000000000000003,0,22.978756)"/>
<path style=" stroke:none;fill-rule:nonzero;fill:url(#linear25);" d="M 13.394531 4.15625 C 13.945312 4.15625 14.386719 4.601562 14.386719 5.148438 C 14.386719 5.695312 13.945312 6.140625 13.394531 6.140625 C 12.847656 6.140625 12.402344 5.695312 12.402344 5.148438 C 12.402344 4.601562 12.847656 4.15625 13.394531 4.15625 Z M 13.394531 4.15625 "/>
<path style=" stroke:none;fill-rule:nonzero;fill:url(#linear26);" d="M 16.371094 4.15625 C 16.921875 4.15625 17.363281 4.601562 17.363281 5.148438 C 17.363281 5.695312 16.921875 6.140625 16.371094 6.140625 C 15.824219 6.140625 15.378906 5.695312 15.378906 5.148438 C 15.378906 4.601562 15.824219 4.15625 16.371094 4.15625 Z M 16.371094 4.15625 "/>
<path style=" stroke:none;fill-rule:nonzero;fill:url(#linear27);" d="M 19.347656 4.15625 C 19.898438 4.15625 20.339844 4.601562 20.339844 5.148438 C 20.339844 5.695312 19.898438 6.140625 19.347656 6.140625 C 18.800781 6.140625 18.355469 5.695312 18.355469 5.148438 C 18.355469 4.601562 18.800781 4.15625 19.347656 4.15625 Z M 19.347656 4.15625 "/>
<path style=" stroke:none;fill-rule:nonzero;fill:rgb(100%,100%,100%);fill-opacity:0.392157;" d="M 13.394531 4.15625 C 12.847656 4.15625 12.402344 4.597656 12.402344 5.148438 C 12.402344 5.191406 12.40625 5.230469 12.410156 5.273438 C 12.472656 4.78125 12.886719 4.40625 13.394531 4.40625 C 13.902344 4.40625 14.320312 4.78125 14.378906 5.273438 C 14.386719 5.230469 14.386719 5.191406 14.386719 5.148438 C 14.386719 4.597656 13.945312 4.15625 13.394531 4.15625 Z M 16.371094 4.15625 C 15.824219 4.15625 15.378906 4.597656 15.378906 5.148438 C 15.378906 5.191406 15.382812 5.230469 15.386719 5.273438 C 15.449219 4.78125 15.863281 4.40625 16.371094 4.40625 C 16.878906 4.40625 17.296875 4.78125 17.355469 5.273438 C 17.363281 5.230469 17.363281 5.191406 17.363281 5.148438 C 17.363281 4.597656 16.921875 4.15625 16.371094 4.15625 Z M 19.347656 4.15625 C 18.800781 4.15625 18.355469 4.597656 18.355469 5.148438 C 18.355469 5.191406 18.359375 5.230469 18.363281 5.273438 C 18.425781 4.78125 18.84375 4.40625 19.347656 4.40625 C 19.855469 4.40625 20.273438 4.78125 20.335938 5.273438 C 20.339844 5.230469 20.339844 5.191406 20.339844 5.148438 C 20.339844 4.597656 19.898438 4.15625 19.347656 4.15625 Z M 19.347656 4.15625 "/>
<path style=" stroke:none;fill-rule:nonzero;fill:rgb(0%,0%,0%);fill-opacity:0.235294;" d="M 13.394531 6.390625 C 12.847656 6.390625 12.402344 5.945312 12.402344 5.398438 C 12.402344 5.355469 12.40625 5.3125 12.410156 5.273438 C 12.472656 5.765625 12.886719 6.140625 13.394531 6.140625 C 13.902344 6.140625 14.320312 5.765625 14.378906 5.273438 C 14.386719 5.3125 14.386719 5.355469 14.386719 5.398438 C 14.386719 5.945312 13.945312 6.390625 13.394531 6.390625 Z M 16.371094 6.390625 C 15.824219 6.390625 15.378906 5.945312 15.378906 5.398438 C 15.378906 5.355469 15.382812 5.3125 15.386719 5.273438 C 15.449219 5.765625 15.863281 6.140625 16.371094 6.140625 C 16.878906 6.140625 17.296875 5.765625 17.355469 5.273438 C 17.363281 5.3125 17.363281 5.355469 17.363281 5.398438 C 17.363281 5.945312 16.921875 6.390625 16.371094 6.390625 Z M 19.347656 6.390625 C 18.800781 6.390625 18.355469 5.945312 18.355469 5.398438 C 18.355469 5.355469 18.359375 5.3125 18.363281 5.273438 C 18.425781 5.765625 18.84375 6.140625 19.347656 6.140625 C 19.855469 6.140625 20.273438 5.765625 20.335938 5.273438 C 20.339844 5.3125 20.339844 5.355469 20.339844 5.398438 C 20.339844 5.945312 19.898438 6.390625 19.347656 6.390625 Z M 19.347656 6.390625 "/>
<path style="fill:none;stroke-width:3;stroke-linecap:round;stroke-linejoin:round;stroke:rgb(12.941177%,12.941177%,12.941177%);stroke-opacity:1;stroke-miterlimit:4;" d="M 285.722715 -126.3418 C 297.471593 -126.3418 306.88736 -116.842707 306.88736 -105.177154 C 306.88736 -93.511602 297.471593 -84.012509 285.722715 -84.012509 C 274.057162 -84.012509 264.558069 -93.511602 264.558069 -105.177154 C 264.558069 -116.842707 274.057162 -126.3418 285.722715 -126.3418 Z M 285.722715 -126.3418 " transform="matrix(0.0468795,0,0,0.0468795,0,10.079087)"/>
<path style="fill:none;stroke-width:3;stroke-linecap:round;stroke-linejoin:round;stroke:rgb(12.941177%,12.941177%,12.941177%);stroke-opacity:1;stroke-miterlimit:4;" d="M 349.216651 -126.3418 C 360.96553 -126.3418 370.381297 -116.842707 370.381297 -105.177154 C 370.381297 -93.511602 360.96553 -84.012509 349.216651 -84.012509 C 337.551099 -84.012509 328.052006 -93.511602 328.052006 -105.177154 C 328.052006 -116.842707 337.551099 -126.3418 349.216651 -126.3418 Z M 349.216651 -126.3418 " transform="matrix(0.0468795,0,0,0.0468795,0,10.079087)"/>
<path style="fill:none;stroke-width:3;stroke-linecap:round;stroke-linejoin:round;stroke:rgb(12.941177%,12.941177%,12.941177%);stroke-opacity:1;stroke-miterlimit:4;" d="M 412.710588 -126.3418 C 424.459466 -126.3418 433.875234 -116.842707 433.875234 -105.177154 C 433.875234 -93.511602 424.459466 -84.012509 412.710588 -84.012509 C 401.045035 -84.012509 391.545943 -93.511602 391.545943 -105.177154 C 391.545943 -116.842707 401.045035 -126.3418 412.710588 -126.3418 Z M 412.710588 -126.3418 " transform="matrix(0.0468795,0,0,0.0468795,0,10.079087)"/>
<path style=" stroke:none;fill-rule:nonzero;fill:url(#linear28);" d="M 13.394531 10.605469 C 13.945312 10.605469 14.386719 11.050781 14.386719 11.597656 C 14.386719 12.148438 13.945312 12.589844 13.394531 12.589844 C 12.847656 12.589844 12.402344 12.148438 12.402344 11.597656 C 12.402344 11.050781 12.847656 10.605469 13.394531 10.605469 Z M 13.394531 10.605469 "/>
<path style=" stroke:none;fill-rule:nonzero;fill:url(#linear29);" d="M 16.371094 10.605469 C 16.921875 10.605469 17.363281 11.050781 17.363281 11.597656 C 17.363281 12.148438 16.921875 12.589844 16.371094 12.589844 C 15.824219 12.589844 15.378906 12.148438 15.378906 11.597656 C 15.378906 11.050781 15.824219 10.605469 16.371094 10.605469 Z M 16.371094 10.605469 "/>
<path style=" stroke:none;fill-rule:nonzero;fill:url(#linear30);" d="M 19.347656 10.605469 C 19.898438 10.605469 20.339844 11.050781 20.339844 11.597656 C 20.339844 12.148438 19.898438 12.589844 19.347656 12.589844 C 18.800781 12.589844 18.355469 12.148438 18.355469 11.597656 C 18.355469 11.050781 18.800781 10.605469 19.347656 10.605469 Z M 19.347656 10.605469 "/>
<path style=" stroke:none;fill-rule:nonzero;fill:rgb(100%,100%,100%);fill-opacity:0.392157;" d="M 13.394531 10.605469 C 12.847656 10.605469 12.402344 11.050781 12.402344 11.597656 C 12.402344 11.640625 12.40625 11.683594 12.410156 11.722656 C 12.472656 11.230469 12.886719 10.855469 13.394531 10.855469 C 13.902344 10.855469 14.320312 11.230469 14.378906 11.722656 C 14.386719 11.683594 14.386719 11.640625 14.386719 11.597656 C 14.386719 11.050781 13.945312 10.605469 13.394531 10.605469 Z M 16.371094 10.605469 C 15.824219 10.605469 15.378906 11.050781 15.378906 11.597656 C 15.378906 11.640625 15.382812 11.683594 15.386719 11.722656 C 15.449219 11.230469 15.863281 10.855469 16.371094 10.855469 C 16.878906 10.855469 17.296875 11.230469 17.355469 11.722656 C 17.363281 11.683594 17.363281 11.640625 17.363281 11.597656 C 17.363281 11.050781 16.921875 10.605469 16.371094 10.605469 Z M 19.347656 10.605469 C 18.800781 10.605469 18.355469 11.050781 18.355469 11.597656 C 18.355469 11.640625 18.359375 11.683594 18.363281 11.722656 C 18.425781 11.230469 18.84375 10.855469 19.347656 10.855469 C 19.855469 10.855469 20.273438 11.230469 20.335938 11.722656 C 20.339844 11.683594 20.339844 11.640625 20.339844 11.597656 C 20.339844 11.050781 19.898438 10.605469 19.347656 10.605469 Z M 19.347656 10.605469 "/>
<path style=" stroke:none;fill-rule:nonzero;fill:rgb(0%,0%,0%);fill-opacity:0.235294;" d="M 13.394531 12.839844 C 12.847656 12.839844 12.402344 12.398438 12.402344 11.847656 C 12.402344 11.804688 12.40625 11.761719 12.410156 11.722656 C 12.472656 12.214844 12.886719 12.589844 13.394531 12.589844 C 13.902344 12.589844 14.320312 12.214844 14.378906 11.722656 C 14.386719 11.761719 14.386719 11.804688 14.386719 11.847656 C 14.386719 12.398438 13.945312 12.839844 13.394531 12.839844 Z M 16.371094 12.839844 C 15.824219 12.839844 15.378906 12.398438 15.378906 11.847656 C 15.378906 11.804688 15.382812 11.761719 15.386719 11.722656 C 15.449219 12.214844 15.863281 12.589844 16.371094 12.589844 C 16.878906 12.589844 17.296875 12.214844 17.355469 11.722656 C 17.363281 11.761719 17.363281 11.804688 17.363281 11.847656 C 17.363281 12.398438 16.921875 12.839844 16.371094 12.839844 Z M 19.347656 12.839844 C 18.800781 12.839844 18.355469 12.398438 18.355469 11.847656 C 18.355469 11.804688 18.359375 11.761719 18.363281 11.722656 C 18.425781 12.214844 18.84375 12.589844 19.347656 12.589844 C 19.855469 12.589844 20.273438 12.214844 20.335938 11.722656 C 20.339844 11.761719 20.339844 11.804688 20.339844 11.847656 C 20.339844 12.398438 19.898438 12.839844 19.347656 12.839844 Z M 19.347656 12.839844 "/>
<path style="fill:none;stroke-width:3;stroke-linecap:round;stroke-linejoin:round;stroke:rgb(12.941177%,12.941177%,12.941177%);stroke-opacity:1;stroke-miterlimit:4;" d="M 285.722715 -126.355176 C 297.471593 -126.355176 306.88736 -116.856083 306.88736 -105.190531 C 306.88736 -93.441653 297.471593 -84.025885 285.722715 -84.025885 C 274.057162 -84.025885 264.558069 -93.441653 264.558069 -105.190531 C 264.558069 -116.856083 274.057162 -126.355176 285.722715 -126.355176 Z M 285.722715 -126.355176 " transform="matrix(0.0468795,0,0,0.0468795,0,16.528933)"/>
<path style="fill:none;stroke-width:3;stroke-linecap:round;stroke-linejoin:round;stroke:rgb(12.941177%,12.941177%,12.941177%);stroke-opacity:1;stroke-miterlimit:4;" d="M 349.216651 -126.355176 C 360.96553 -126.355176 370.381297 -116.856083 370.381297 -105.190531 C 370.381297 -93.441653 360.96553 -84.025885 349.216651 -84.025885 C 337.551099 -84.025885 328.052006 -93.441653 328.052006 -105.190531 C 328.052006 -116.856083 337.551099 -126.355176 349.216651 -126.355176 Z M 349.216651 -126.355176 " transform="matrix(0.0468795,0,0,0.0468795,0,16.528933)"/>
<path style="fill:none;stroke-width:3;stroke-linecap:round;stroke-linejoin:round;stroke:rgb(12.941177%,12.941177%,12.941177%);stroke-opacity:1;stroke-miterlimit:4;" d="M 412.710588 -126.355176 C 424.459466 -126.355176 433.875234 -116.856083 433.875234 -105.190531 C 433.875234 -93.441653 424.459466 -84.025885 412.710588 -84.025885 C 401.045035 -84.025885 391.545943 -93.441653 391.545943 -105.190531 C 391.545943 -116.856083 401.045035 -126.355176 412.710588 -126.355176 Z M 412.710588 -126.355176 " transform="matrix(0.0468795,0,0,0.0468795,0,16.528933)"/>
<path style=" stroke:none;fill-rule:nonzero;fill:url(#linear31);" d="M 13.394531 17.054688 C 13.945312 17.054688 14.386719 17.5 14.386719 18.046875 C 14.386719 18.597656 13.945312 19.039062 13.394531 19.039062 C 12.847656 19.039062 12.402344 18.597656 12.402344 18.046875 C 12.402344 17.5 12.847656 17.054688 13.394531 17.054688 Z M 13.394531 17.054688 "/>
<path style=" stroke:none;fill-rule:nonzero;fill:url(#linear32);" d="M 16.371094 17.054688 C 16.921875 17.054688 17.363281 17.5 17.363281 18.046875 C 17.363281 18.597656 16.921875 19.039062 16.371094 19.039062 C 15.824219 19.039062 15.378906 18.597656 15.378906 18.046875 C 15.378906 17.5 15.824219 17.054688 16.371094 17.054688 Z M 16.371094 17.054688 "/>
<path style=" stroke:none;fill-rule:nonzero;fill:url(#linear33);" d="M 19.347656 17.054688 C 19.898438 17.054688 20.339844 17.5 20.339844 18.046875 C 20.339844 18.597656 19.898438 19.039062 19.347656 19.039062 C 18.800781 19.039062 18.355469 18.597656 18.355469 18.046875 C 18.355469 17.5 18.800781 17.054688 19.347656 17.054688 Z M 19.347656 17.054688 "/>
<path style=" stroke:none;fill-rule:nonzero;fill:rgb(100%,100%,100%);fill-opacity:0.392157;" d="M 13.394531 17.054688 C 12.847656 17.054688 12.402344 17.5 12.402344 18.046875 C 12.402344 18.089844 12.40625 18.132812 12.410156 18.171875 C 12.472656 17.683594 12.886719 17.304688 13.394531 17.304688 C 13.902344 17.304688 14.320312 17.683594 14.378906 18.171875 C 14.386719 18.132812 14.386719 18.089844 14.386719 18.046875 C 14.386719 17.5 13.945312 17.054688 13.394531 17.054688 Z M 16.371094 17.054688 C 15.824219 17.054688 15.378906 17.5 15.378906 18.046875 C 15.378906 18.089844 15.382812 18.132812 15.386719 18.171875 C 15.449219 17.683594 15.863281 17.304688 16.371094 17.304688 C 16.878906 17.304688 17.296875 17.683594 17.355469 18.171875 C 17.363281 18.132812 17.363281 18.089844 17.363281 18.046875 C 17.363281 17.5 16.921875 17.054688 16.371094 17.054688 Z M 19.347656 17.054688 C 18.800781 17.054688 18.355469 17.5 18.355469 18.046875 C 18.355469 18.089844 18.359375 18.132812 18.363281 18.171875 C 18.425781 17.683594 18.84375 17.304688 19.347656 17.304688 C 19.855469 17.304688 20.273438 17.683594 20.335938 18.171875 C 20.339844 18.132812 20.339844 18.089844 20.339844 18.046875 C 20.339844 17.5 19.898438 17.054688 19.347656 17.054688 Z M 19.347656 17.054688 "/>
<path style=" stroke:none;fill-rule:nonzero;fill:rgb(0%,0%,0%);fill-opacity:0.235294;" d="M 13.394531 19.289062 C 12.847656 19.289062 12.402344 18.847656 12.402344 18.296875 C 12.402344 18.253906 12.40625 18.214844 12.410156 18.171875 C 12.472656 18.664062 12.886719 19.039062 13.394531 19.039062 C 13.902344 19.039062 14.320312 18.664062 14.378906 18.171875 C 14.386719 18.214844 14.386719 18.253906 14.386719 18.296875 C 14.386719 18.847656 13.945312 19.289062 13.394531 19.289062 Z M 16.371094 19.289062 C 15.824219 19.289062 15.378906 18.847656 15.378906 18.296875 C 15.378906 18.253906 15.382812 18.214844 15.386719 18.171875 C 15.449219 18.664062 15.863281 19.039062 16.371094 19.039062 C 16.878906 19.039062 17.296875 18.664062 17.355469 18.171875 C 17.363281 18.214844 17.363281 18.253906 17.363281 18.296875 C 17.363281 18.847656 16.921875 19.289062 16.371094 19.289062 Z M 19.347656 19.289062 C 18.800781 19.289062 18.355469 18.847656 18.355469 18.296875 C 18.355469 18.253906 18.359375 18.214844 18.363281 18.171875 C 18.425781 18.664062 18.84375 19.039062 19.347656 19.039062 C 19.855469 19.039062 20.273438 18.664062 20.335938 18.171875 C 20.339844 18.214844 20.339844 18.253906 20.339844 18.296875 C 20.339844 18.847656 19.898438 19.289062 19.347656 19.289062 Z M 19.347656 19.289062 "/>
<path style="fill:none;stroke-width:3;stroke-linecap:round;stroke-linejoin:round;stroke:rgb(12.941177%,12.941177%,12.941177%);stroke-opacity:1;stroke-miterlimit:4;" d="M 285.722715 -126.368064 C 297.471593 -126.368064 306.88736 -116.868971 306.88736 -105.203419 C 306.88736 -93.454541 297.471593 -84.038773 285.722715 -84.038773 C 274.057162 -84.038773 264.558069 -93.454541 264.558069 -105.203419 C 264.558069 -116.868971 274.057162 -126.368064 285.722715 -126.368064 Z M 285.722715 -126.368064 " transform="matrix(0.0468795,0,0,0.0468795,0,22.978756)"/>
<path style="fill:none;stroke-width:3;stroke-linecap:round;stroke-linejoin:round;stroke:rgb(12.941177%,12.941177%,12.941177%);stroke-opacity:1;stroke-miterlimit:4;" d="M 349.216651 -126.368064 C 360.96553 -126.368064 370.381297 -116.868971 370.381297 -105.203419 C 370.381297 -93.454541 360.96553 -84.038773 349.216651 -84.038773 C 337.551099 -84.038773 328.052006 -93.454541 328.052006 -105.203419 C 328.052006 -116.868971 337.551099 -126.368064 349.216651 -126.368064 Z M 349.216651 -126.368064 " transform="matrix(0.0468795,0,0,0.0468795,0,22.978756)"/>
<path style="fill:none;stroke-width:3;stroke-linecap:round;stroke-linejoin:round;stroke:rgb(12.941177%,12.941177%,12.941177%);stroke-opacity:1;stroke-miterlimit:4;" d="M 412.710588 -126.368064 C 424.459466 -126.368064 433.875234 -116.868971 433.875234 -105.203419 C 433.875234 -93.454541 424.459466 -84.038773 412.710588 -84.038773 C 401.045035 -84.038773 391.545943 -93.454541 391.545943 -105.203419 C 391.545943 -116.868971 401.045035 -126.368064 412.710588 -126.368064 Z M 412.710588 -126.368064 " transform="matrix(0.0468795,0,0,0.0468795,0,22.978756)"/>
<path style=" stroke:none;fill-rule:nonzero;fill:url(#linear34);" d="M 9.347656 14.132812 C 9.304688 14.132812 9.261719 14.152344 9.230469 14.191406 L 8.039062 15.679688 L 7.199219 15.398438 C 7.167969 15.390625 7.132812 15.390625 7.101562 15.398438 L 6.261719 15.679688 L 5.070312 14.191406 C 5.039062 14.15625 4.996094 14.132812 4.945312 14.132812 C 4.859375 14.132812 4.792969 14.203125 4.792969 14.289062 L 4.792969 16.410156 L 3.917969 16.992188 C 3.894531 17.007812 3.875 17.027344 3.863281 17.050781 L 3.5625 17.65625 L 2.003906 19.214844 C 1.929688 19.289062 1.949219 19.417969 2.046875 19.464844 L 3.304688 20.09375 C 3.339844 20.109375 3.378906 20.113281 3.417969 20.105469 L 5.496094 19.511719 L 6.066406 20.652344 C 6.085938 20.691406 6.117188 20.71875 6.15625 20.730469 L 7.101562 21.046875 C 7.132812 21.054688 7.167969 21.054688 7.199219 21.046875 L 8.144531 20.730469 C 8.183594 20.71875 8.214844 20.691406 8.234375 20.652344 L 8.804688 19.511719 L 10.882812 20.105469 C 10.921875 20.113281 10.960938 20.109375 10.996094 20.09375 L 12.253906 19.464844 C 12.351562 19.417969 12.371094 19.289062 12.292969 19.214844 L 10.738281 17.65625 L 10.4375 17.050781 C 10.425781 17.027344 10.40625 17.007812 10.382812 16.992188 L 9.507812 16.410156 L 9.507812 14.289062 C 9.507812 14.191406 9.429688 14.132812 9.347656 14.132812 Z M 4.320312 17.28125 L 4.789062 17.28125 C 4.914062 17.28125 4.988281 17.417969 4.921875 17.523438 L 4.605469 17.996094 C 4.566406 18.054688 4.492188 18.078125 4.425781 18.054688 L 3.953125 17.898438 C 3.84375 17.863281 3.8125 17.722656 3.894531 17.640625 L 4.207031 17.324219 C 4.238281 17.296875 4.277344 17.28125 4.320312 17.28125 Z M 5.890625 17.28125 L 6.363281 17.28125 C 6.40625 17.28125 6.445312 17.296875 6.472656 17.324219 L 6.789062 17.640625 C 6.871094 17.722656 6.839844 17.863281 6.726562 17.898438 L 6.253906 18.054688 C 6.1875 18.078125 6.113281 18.054688 6.074219 17.996094 L 5.761719 17.523438 C 5.691406 17.417969 5.765625 17.28125 5.890625 17.28125 Z M 7.9375 17.28125 L 8.410156 17.28125 C 8.535156 17.28125 8.609375 17.417969 8.539062 17.523438 L 8.222656 17.996094 C 8.183594 18.054688 8.113281 18.078125 8.042969 18.054688 L 7.574219 17.898438 C 7.460938 17.863281 7.429688 17.722656 7.511719 17.640625 L 7.824219 17.324219 C 7.855469 17.296875 7.894531 17.28125 7.9375 17.28125 Z M 9.511719 17.28125 L 9.980469 17.28125 C 10.023438 17.28125 10.0625 17.296875 10.09375 17.324219 L 10.40625 17.640625 C 10.488281 17.722656 10.457031 17.863281 10.347656 17.898438 L 9.875 18.054688 C 9.808594 18.078125 9.734375 18.054688 9.695312 17.996094 L 9.378906 17.523438 C 9.308594 17.417969 9.386719 17.28125 9.511719 17.28125 Z M 9.511719 17.28125 "/>
<path style=" stroke:none;fill-rule:nonzero;fill:rgb(100%,100%,100%);fill-opacity:0.392157;" d="M 9.347656 14.132812 C 9.304688 14.132812 9.261719 14.152344 9.230469 14.191406 L 8.039062 15.679688 L 7.199219 15.398438 C 7.167969 15.390625 7.132812 15.390625 7.101562 15.398438 L 6.261719 15.679688 L 5.070312 14.191406 C 5.039062 14.15625 4.996094 14.132812 4.945312 14.132812 C 4.859375 14.132812 4.792969 14.203125 4.792969 14.289062 L 4.792969 14.484375 C 4.792969 14.398438 4.859375 14.328125 4.945312 14.328125 C 4.996094 14.328125 5.039062 14.347656 5.070312 14.386719 L 6.261719 15.875 L 7.101562 15.59375 C 7.132812 15.582031 7.167969 15.582031 7.199219 15.59375 L 8.039062 15.875 L 9.230469 14.386719 C 9.261719 14.347656 9.304688 14.328125 9.347656 14.328125 C 9.429688 14.324219 9.507812 14.386719 9.507812 14.484375 L 9.507812 14.289062 C 9.507812 14.191406 9.429688 14.132812 9.347656 14.132812 Z M 4.792969 16.410156 L 3.917969 16.992188 C 3.894531 17.007812 3.875 17.027344 3.863281 17.050781 L 3.5625 17.65625 L 2.003906 19.214844 C 1.945312 19.273438 1.945312 19.363281 1.992188 19.421875 C 1.996094 19.417969 2 19.410156 2.003906 19.40625 L 3.5625 17.851562 L 3.863281 17.246094 C 3.875 17.222656 3.894531 17.199219 3.917969 17.1875 L 4.792969 16.601562 Z M 9.507812 16.410156 L 9.507812 16.601562 L 10.382812 17.1875 C 10.40625 17.199219 10.425781 17.222656 10.4375 17.246094 L 10.738281 17.851562 L 12.292969 19.40625 C 12.300781 19.410156 12.304688 19.417969 12.308594 19.421875 C 12.355469 19.363281 12.351562 19.273438 12.292969 19.214844 L 10.738281 17.65625 L 10.4375 17.050781 C 10.425781 17.027344 10.40625 17.007812 10.382812 16.992188 Z M 5.769531 17.535156 C 5.730469 17.582031 5.722656 17.65625 5.761719 17.71875 L 6.074219 18.1875 C 6.113281 18.25 6.1875 18.273438 6.253906 18.25 L 6.726562 18.09375 C 6.832031 18.058594 6.867188 17.929688 6.800781 17.847656 C 6.78125 17.871094 6.757812 17.890625 6.726562 17.898438 L 6.253906 18.054688 C 6.1875 18.078125 6.113281 18.054688 6.074219 17.996094 Z M 8.53125 17.535156 L 8.222656 17.996094 C 8.183594 18.054688 8.113281 18.078125 8.042969 18.054688 L 7.574219 17.898438 C 7.542969 17.890625 7.515625 17.871094 7.5 17.847656 C 7.433594 17.929688 7.46875 18.058594 7.574219 18.09375 L 8.042969 18.25 C 8.113281 18.273438 8.183594 18.25 8.222656 18.1875 L 8.539062 17.71875 C 8.578125 17.65625 8.570312 17.582031 8.53125 17.535156 Z M 9.386719 17.535156 C 9.347656 17.582031 9.339844 17.65625 9.378906 17.71875 L 9.695312 18.1875 C 9.734375 18.25 9.808594 18.273438 9.875 18.25 L 10.347656 18.09375 C 10.449219 18.058594 10.484375 17.929688 10.417969 17.847656 C 10.402344 17.871094 10.375 17.890625 10.347656 17.898438 L 9.875 18.054688 C 9.808594 18.078125 9.734375 18.054688 9.695312 17.996094 Z M 4.914062 17.535156 L 4.605469 17.996094 C 4.566406 18.054688 4.492188 18.078125 4.425781 18.054688 L 3.953125 17.898438 C 3.921875 17.890625 3.898438 17.871094 3.882812 17.847656 C 3.816406 17.929688 3.851562 18.058594 3.953125 18.09375 L 4.425781 18.25 C 4.492188 18.273438 4.566406 18.25 4.605469 18.1875 L 4.921875 17.71875 C 4.960938 17.65625 4.953125 17.582031 4.914062 17.535156 Z M 4.914062 17.535156 "/>
<path style=" stroke:none;fill-rule:nonzero;fill:rgb(0%,0%,0%);fill-opacity:0.235294;" d="M 4.320312 17.28125 C 4.277344 17.28125 4.238281 17.296875 4.207031 17.324219 L 3.894531 17.640625 C 3.839844 17.691406 3.835938 17.765625 3.867188 17.824219 C 3.875 17.8125 3.882812 17.800781 3.894531 17.789062 L 4.207031 17.472656 C 4.238281 17.445312 4.277344 17.429688 4.320312 17.429688 L 4.789062 17.429688 C 4.851562 17.429688 4.902344 17.464844 4.929688 17.511719 C 4.984375 17.410156 4.910156 17.28125 4.789062 17.28125 Z M 5.890625 17.28125 C 5.773438 17.28125 5.699219 17.410156 5.753906 17.511719 C 5.78125 17.464844 5.828125 17.429688 5.890625 17.429688 L 6.363281 17.429688 C 6.40625 17.429688 6.445312 17.445312 6.472656 17.472656 L 6.789062 17.789062 C 6.800781 17.800781 6.808594 17.8125 6.816406 17.824219 C 6.847656 17.765625 6.839844 17.691406 6.789062 17.640625 L 6.472656 17.324219 C 6.445312 17.296875 6.40625 17.28125 6.363281 17.28125 Z M 7.9375 17.28125 C 7.894531 17.28125 7.855469 17.296875 7.824219 17.324219 L 7.511719 17.640625 C 7.460938 17.691406 7.453125 17.765625 7.484375 17.824219 C 7.492188 17.8125 7.5 17.800781 7.511719 17.789062 L 7.824219 17.472656 C 7.855469 17.445312 7.894531 17.429688 7.9375 17.429688 L 8.410156 17.429688 C 8.472656 17.429688 8.519531 17.464844 8.546875 17.511719 C 8.601562 17.410156 8.527344 17.28125 8.410156 17.28125 Z M 9.511719 17.28125 C 9.390625 17.28125 9.316406 17.410156 9.371094 17.511719 C 9.398438 17.464844 9.449219 17.429688 9.511719 17.429688 L 9.980469 17.429688 C 10.023438 17.429688 10.0625 17.445312 10.09375 17.472656 L 10.40625 17.789062 C 10.417969 17.800781 10.425781 17.8125 10.433594 17.824219 C 10.464844 17.765625 10.460938 17.691406 10.40625 17.640625 L 10.09375 17.324219 C 10.0625 17.296875 10.023438 17.28125 9.980469 17.28125 Z M 12.320312 19.398438 C 12.308594 19.425781 12.285156 19.449219 12.253906 19.464844 L 10.996094 20.09375 C 10.960938 20.109375 10.921875 20.113281 10.882812 20.105469 L 8.804688 19.511719 L 8.234375 20.652344 C 8.214844 20.691406 8.183594 20.71875 8.144531 20.730469 L 7.261719 21.027344 L 7.707031 21.027344 L 8.144531 20.878906 C 8.183594 20.867188 8.214844 20.839844 8.234375 20.800781 L 8.804688 19.660156 L 10.882812 20.253906 C 10.921875 20.261719 10.960938 20.257812 10.996094 20.242188 L 12.253906 19.613281 C 12.335938 19.570312 12.363281 19.472656 12.320312 19.398438 Z M 1.984375 19.410156 L 1.984375 19.558594 C 2 19.582031 2.019531 19.597656 2.046875 19.613281 L 3.304688 20.242188 C 3.339844 20.257812 3.378906 20.261719 3.417969 20.253906 L 5.496094 19.660156 L 6.066406 20.800781 C 6.085938 20.839844 6.117188 20.867188 6.15625 20.878906 L 6.59375 21.027344 L 7.039062 21.027344 L 6.15625 20.730469 C 6.117188 20.71875 6.085938 20.691406 6.066406 20.652344 L 5.496094 19.511719 L 3.417969 20.105469 C 3.378906 20.113281 3.339844 20.109375 3.304688 20.09375 L 2.046875 19.464844 C 2.019531 19.449219 2 19.429688 1.984375 19.410156 Z M 1.984375 19.410156 "/>
<path style="fill:none;stroke-width:3;stroke-linecap:round;stroke-linejoin:round;stroke:rgb(12.941177%,12.941177%,12.941177%);stroke-opacity:1;stroke-miterlimit:4;" d="M 199.397625 86.471211 C 198.481046 86.471211 197.564467 86.887838 196.897864 87.721092 L 171.483624 119.46806 L 153.568668 113.468633 C 152.902065 113.301982 152.152137 113.301982 151.485534 113.468633 L 133.570578 119.46806 L 108.156338 87.721092 C 107.489735 86.971163 106.573156 86.471211 105.489926 86.471211 C 103.656768 86.471211 102.240237 87.971068 102.240237 89.804226 L 102.240237 135.049905 L 83.575352 147.465386 C 83.0754 147.798688 82.658773 148.215315 82.408797 148.715267 L 75.992743 161.6307 L 42.745918 194.877525 C 41.162736 196.460707 41.579363 199.210445 43.662497 200.210349 L 70.493268 213.625735 C 71.243197 213.959036 72.07645 214.042362 72.909704 213.875711 L 117.238804 201.210254 L 129.404309 225.541264 C 129.820936 226.374518 130.487539 226.957795 131.320793 227.207771 L 151.485534 233.957127 C 152.152137 234.123777 152.902065 234.123777 153.568668 233.957127 L 173.733409 227.207771 C 174.566663 226.957795 175.233266 226.374518 175.649893 225.541264 L 187.815398 201.210254 L 232.144498 213.875711 C 232.977752 214.042362 233.811005 213.959036 234.560934 213.625735 L 261.391705 200.210349 C 263.474839 199.210445 263.891466 196.460707 262.224959 194.877525 L 229.061459 161.6307 L 222.645405 148.715267 C 222.395429 148.215315 221.978802 147.798688 221.47885 147.465386 L 202.813966 135.049905 L 202.813966 89.804226 C 202.813966 87.721092 201.147458 86.471211 199.397625 86.471211 Z M 92.157866 153.631464 L 102.156911 153.631464 C 104.823323 153.631464 106.406505 156.547852 104.989974 158.797637 L 98.240618 168.880008 C 97.407365 170.129889 95.824183 170.629841 94.407651 170.129889 L 84.325281 166.796874 C 81.99217 166.046945 81.325567 163.047232 83.0754 161.297399 L 89.74143 154.548043 C 90.408033 153.964766 91.241287 153.631464 92.157866 153.631464 Z M 125.654667 153.631464 L 135.737038 153.631464 C 136.653617 153.631464 137.486871 153.964766 138.070148 154.548043 L 144.819504 161.297399 C 146.569337 163.047232 145.902734 166.046945 143.486298 166.796874 L 133.403927 170.129889 C 131.987396 170.629841 130.404214 170.129889 129.57096 168.880008 L 122.90493 158.797637 C 121.405073 156.547852 122.988255 153.631464 125.654667 153.631464 Z M 169.317164 153.631464 L 179.399535 153.631464 C 182.065947 153.631464 183.649129 156.547852 182.149272 158.797637 L 175.399917 168.880008 C 174.566663 170.129889 173.066806 170.629841 171.56695 170.129889 L 161.567904 166.796874 C 159.151468 166.046945 158.484865 163.047232 160.234698 161.297399 L 166.900728 154.548043 C 167.567331 153.964766 168.400585 153.631464 169.317164 153.631464 Z M 202.897291 153.631464 L 212.896336 153.631464 C 213.812915 153.631464 214.646169 153.964766 215.312772 154.548043 L 221.978802 161.297399 C 223.728635 163.047232 223.062032 166.046945 220.728921 166.796874 L 210.646551 170.129889 C 209.23002 170.629841 207.646837 170.129889 206.813584 168.880008 L 200.064228 158.797637 C 198.564371 156.547852 200.230879 153.631464 202.897291 153.631464 Z M 202.897291 153.631464 " transform="matrix(0.0468795,0,0,0.0468795,0,10.079087)"/>
</g>
</svg>
