<?xml version="1.0" encoding="UTF-8"?>
<svg xmlns="http://www.w3.org/2000/svg" xmlns:xlink="http://www.w3.org/1999/xlink" width="24px" height="24px" viewBox="0 0 24 24" version="1.1">
<defs>
<linearGradient id="linear0" gradientUnits="userSpaceOnUse" x1="254" y1="233.5" x2="254" y2="254.666672" gradientTransform="matrix(0.0468795,0,0,0.0468795,-10.915112,10.079087)">
<stop offset="0" style="stop-color:rgb(0%,0%,0%);stop-opacity:0.27451;"/>
<stop offset="1" style="stop-color:rgb(0%,0%,0%);stop-opacity:0;"/>
</linearGradient>
<radialGradient id="radial0" gradientUnits="userSpaceOnUse" cx="450.908936" cy="189.579361" fx="450.908936" fy="189.579361" r="21.166656" gradientTransform="matrix(0.000000130628,-0.0585994,-0.105479,-0.0000000761539,29.671303,47.696499)">
<stop offset="0" style="stop-color:rgb(0%,0%,0%);stop-opacity:0.313726;"/>
<stop offset="0.222222" style="stop-color:rgb(0%,0%,0%);stop-opacity:0.27451;"/>
<stop offset="1" style="stop-color:rgb(0%,0%,0%);stop-opacity:0;"/>
</radialGradient>
<radialGradient id="radial1" gradientUnits="userSpaceOnUse" cx="450.908936" cy="189.579361" fx="450.908936" fy="189.579361" r="21.166656" gradientTransform="matrix(-0.000000130628,0.0585994,0.105479,0.0000000761539,-16.771633,-5.645609)">
<stop offset="0" style="stop-color:rgb(0%,0%,0%);stop-opacity:0.313726;"/>
<stop offset="0.222222" style="stop-color:rgb(0%,0%,0%);stop-opacity:0.27451;"/>
<stop offset="1" style="stop-color:rgb(0%,0%,0%);stop-opacity:0;"/>
</radialGradient>
<radialGradient id="radial2" gradientUnits="userSpaceOnUse" cx="450.908936" cy="189.579361" fx="450.908936" fy="189.579361" r="21.166656" gradientTransform="matrix(-0.000000130628,-0.0585994,0.105479,-0.0000000761539,-16.771633,47.696499)">
<stop offset="0" style="stop-color:rgb(0%,0%,0%);stop-opacity:0.313726;"/>
<stop offset="0.222222" style="stop-color:rgb(0%,0%,0%);stop-opacity:0.27451;"/>
<stop offset="1" style="stop-color:rgb(0%,0%,0%);stop-opacity:0;"/>
</radialGradient>
<radialGradient id="radial3" gradientUnits="userSpaceOnUse" cx="450.908936" cy="189.579361" fx="450.908936" fy="189.579361" r="21.166656" gradientTransform="matrix(0.000000130628,0.0585994,-0.105479,0.0000000761539,29.671301,-5.64561)">
<stop offset="0" style="stop-color:rgb(0%,0%,0%);stop-opacity:0.313726;"/>
<stop offset="0.222222" style="stop-color:rgb(0%,0%,0%);stop-opacity:0.27451;"/>
<stop offset="1" style="stop-color:rgb(0%,0%,0%);stop-opacity:0;"/>
</radialGradient>
<linearGradient id="linear1" gradientUnits="userSpaceOnUse" x1="306.752655" y1="-16.485477" x2="305.954529" y2="-141.414581" gradientTransform="matrix(0.0540552,0,0,0.14297,-3.681905,23.382369)">
<stop offset="0" style="stop-color:rgb(69.01961%,74.509805%,77.254903%);stop-opacity:1;"/>
<stop offset="1" style="stop-color:rgb(81.176472%,84.705883%,86.274511%);stop-opacity:1;"/>
</linearGradient>
<linearGradient id="linear2" gradientUnits="userSpaceOnUse" x1="254" y1="233.5" x2="254" y2="-147.5" gradientTransform="matrix(0.0468795,0,0,0.0468795,-0.0000000161759,10.079088)">
<stop offset="0" style="stop-color:rgb(36.078432%,41.960785%,75.294119%);stop-opacity:1;"/>
<stop offset="1" style="stop-color:rgb(47.450981%,52.549022%,79.607844%);stop-opacity:1;"/>
</linearGradient>
<linearGradient id="linear3" gradientUnits="userSpaceOnUse" x1="306.752655" y1="-16.485477" x2="305.954529" y2="-141.414581" gradientTransform="matrix(0.0540552,0,0,0.14297,7.2332,23.382369)">
<stop offset="0" style="stop-color:rgb(69.01961%,74.509805%,77.254903%);stop-opacity:1;"/>
<stop offset="1" style="stop-color:rgb(81.176472%,84.705883%,86.274511%);stop-opacity:1;"/>
</linearGradient>
<linearGradient id="linear4" gradientUnits="userSpaceOnUse" x1="254" y1="233.5" x2="254" y2="-147.5" gradientTransform="matrix(0.0468795,0,0,0.0468795,10.915105,10.079088)">
<stop offset="0" style="stop-color:rgb(36.078432%,41.960785%,75.294119%);stop-opacity:1;"/>
<stop offset="1" style="stop-color:rgb(47.450981%,52.549022%,79.607844%);stop-opacity:1;"/>
</linearGradient>
<linearGradient id="linear5" gradientUnits="userSpaceOnUse" x1="254" y1="233.5" x2="254" y2="254.666672" gradientTransform="matrix(0.0468795,0,0,0.0468795,-0.00000858389,10.079087)">
<stop offset="0" style="stop-color:rgb(0%,0%,0%);stop-opacity:0.27451;"/>
<stop offset="1" style="stop-color:rgb(0%,0%,0%);stop-opacity:0;"/>
</linearGradient>
<radialGradient id="radial4" gradientUnits="userSpaceOnUse" cx="450.908936" cy="189.579361" fx="450.908936" fy="189.579361" r="21.166656" gradientTransform="matrix(0.000000130628,-0.0585994,-0.105479,-0.0000000761539,40.586407,47.696499)">
<stop offset="0" style="stop-color:rgb(0%,0%,0%);stop-opacity:0.313726;"/>
<stop offset="0.222222" style="stop-color:rgb(0%,0%,0%);stop-opacity:0.27451;"/>
<stop offset="1" style="stop-color:rgb(0%,0%,0%);stop-opacity:0;"/>
</radialGradient>
<radialGradient id="radial5" gradientUnits="userSpaceOnUse" cx="450.908936" cy="189.579361" fx="450.908936" fy="189.579361" r="21.166656" gradientTransform="matrix(-0.000000130628,0.0585994,0.105479,0.0000000761539,-5.85653,-5.645609)">
<stop offset="0" style="stop-color:rgb(0%,0%,0%);stop-opacity:0.313726;"/>
<stop offset="0.222222" style="stop-color:rgb(0%,0%,0%);stop-opacity:0.27451;"/>
<stop offset="1" style="stop-color:rgb(0%,0%,0%);stop-opacity:0;"/>
</radialGradient>
<radialGradient id="radial6" gradientUnits="userSpaceOnUse" cx="450.908936" cy="189.579361" fx="450.908936" fy="189.579361" r="21.166656" gradientTransform="matrix(-0.000000130628,-0.0585994,0.105479,-0.0000000761539,-5.85653,47.696499)">
<stop offset="0" style="stop-color:rgb(0%,0%,0%);stop-opacity:0.313726;"/>
<stop offset="0.222222" style="stop-color:rgb(0%,0%,0%);stop-opacity:0.27451;"/>
<stop offset="1" style="stop-color:rgb(0%,0%,0%);stop-opacity:0;"/>
</radialGradient>
<radialGradient id="radial7" gradientUnits="userSpaceOnUse" cx="450.908936" cy="189.579361" fx="450.908936" fy="189.579361" r="21.166656" gradientTransform="matrix(0.000000130628,0.0585994,-0.105479,0.0000000761539,40.586405,-5.64561)">
<stop offset="0" style="stop-color:rgb(0%,0%,0%);stop-opacity:0.313726;"/>
<stop offset="0.222222" style="stop-color:rgb(0%,0%,0%);stop-opacity:0.27451;"/>
<stop offset="1" style="stop-color:rgb(0%,0%,0%);stop-opacity:0;"/>
</radialGradient>
<linearGradient id="linear6" gradientUnits="userSpaceOnUse" x1="306.752655" y1="-16.485477" x2="305.954529" y2="-141.414581" gradientTransform="matrix(0.0540552,0,0,0.14297,7.2332,32.738173)">
<stop offset="0" style="stop-color:rgb(69.01961%,74.509805%,77.254903%);stop-opacity:1;"/>
<stop offset="1" style="stop-color:rgb(81.176472%,84.705883%,86.274511%);stop-opacity:1;"/>
</linearGradient>
<linearGradient id="linear7" gradientUnits="userSpaceOnUse" x1="254" y1="233.5" x2="254" y2="-147.5" gradientTransform="matrix(0.0468795,0,0,0.0468795,10.915105,19.434892)">
<stop offset="0" style="stop-color:rgb(36.078432%,41.960785%,75.294119%);stop-opacity:1;"/>
<stop offset="1" style="stop-color:rgb(47.450981%,52.549022%,79.607844%);stop-opacity:1;"/>
</linearGradient>
<linearGradient id="linear8" gradientUnits="userSpaceOnUse" x1="306.752655" y1="-16.485477" x2="305.954529" y2="-141.414581" gradientTransform="matrix(0.0540552,0,0,0.14297,-3.681905,32.738173)">
<stop offset="0" style="stop-color:rgb(69.01961%,74.509805%,77.254903%);stop-opacity:1;"/>
<stop offset="1" style="stop-color:rgb(81.176472%,84.705883%,86.274511%);stop-opacity:1;"/>
</linearGradient>
<linearGradient id="linear9" gradientUnits="userSpaceOnUse" x1="254" y1="233.5" x2="254" y2="-147.5" gradientTransform="matrix(0.0468795,0,0,0.0468795,0.0000000150771,19.434892)">
<stop offset="0" style="stop-color:rgb(36.078432%,41.960785%,75.294119%);stop-opacity:1;"/>
<stop offset="1" style="stop-color:rgb(47.450981%,52.549022%,79.607844%);stop-opacity:1;"/>
</linearGradient>
</defs>
<g id="surface1">
<path style=" stroke:none;fill-rule:nonzero;fill:url(#linear0);" d="M 2.976562 21.082031 L 9.921875 21.082031 L 9.921875 22.019531 L 2.976562 22.019531 Z M 2.976562 21.082031 "/>
<path style=" stroke:none;fill-rule:nonzero;fill:url(#radial0);" d="M 9.921875 21.027344 L 11.90625 21.027344 L 11.90625 20.03125 L 9.921875 20.03125 Z M 9.921875 21.027344 "/>
<path style=" stroke:none;fill-rule:nonzero;fill:url(#radial1);" d="M 2.976562 21.027344 L 0.992188 21.027344 L 0.992188 22.019531 L 2.976562 22.019531 Z M 2.976562 21.027344 "/>
<path style=" stroke:none;fill-rule:nonzero;fill:url(#radial2);" d="M 2.976562 21.027344 L 0.992188 21.027344 L 0.992188 20.03125 L 2.976562 20.03125 Z M 2.976562 21.027344 "/>
<path style=" stroke:none;fill-rule:nonzero;fill:url(#radial3);" d="M 9.921875 21.027344 L 11.90625 21.027344 L 11.90625 22.019531 L 9.921875 22.019531 Z M 9.921875 21.027344 "/>
<path style=" stroke:none;fill-rule:nonzero;fill:url(#linear1);" d="M 2.480469 3.164062 L 10.417969 3.164062 C 10.96875 3.164062 11.410156 3.582031 11.410156 4.101562 L 11.410156 10.734375 C 11.410156 11.25 10.96875 11.667969 10.417969 11.667969 L 2.480469 11.667969 C 1.933594 11.667969 1.488281 11.25 1.488281 10.734375 L 1.488281 4.101562 C 1.488281 3.582031 1.933594 3.164062 2.480469 3.164062 Z M 2.480469 3.164062 "/>
<path style=" stroke:none;fill-rule:nonzero;fill:url(#linear2);" d="M 2.976562 4.15625 L 9.921875 4.15625 C 10.195312 4.15625 10.417969 4.378906 10.417969 4.652344 L 10.417969 10.109375 C 10.417969 10.382812 10.195312 10.605469 9.921875 10.605469 L 2.976562 10.605469 C 2.703125 10.605469 2.480469 10.382812 2.480469 10.109375 L 2.480469 4.652344 C 2.480469 4.378906 2.703125 4.15625 2.976562 4.15625 Z M 2.976562 4.15625 "/>
<path style=" stroke:none;fill-rule:nonzero;fill:rgb(100%,100%,100%);fill-opacity:0.392157;" d="M 2.480469 3.164062 C 1.929688 3.164062 1.488281 3.582031 1.488281 4.101562 L 1.488281 4.347656 C 1.488281 3.832031 1.929688 3.414062 2.480469 3.414062 L 10.417969 3.414062 C 10.96875 3.414062 11.410156 3.832031 11.410156 4.347656 L 11.410156 4.101562 C 11.410156 3.582031 10.96875 3.164062 10.417969 3.164062 Z M 2.480469 3.164062 "/>
<path style=" stroke:none;fill-rule:nonzero;fill:rgb(0%,0%,0%);fill-opacity:0.235294;" d="M 2.480469 11.667969 C 1.929688 11.667969 1.488281 11.25 1.488281 10.730469 L 1.488281 10.484375 C 1.488281 11 1.929688 11.417969 2.480469 11.417969 L 10.417969 11.417969 C 10.96875 11.417969 11.410156 11 11.410156 10.484375 L 11.410156 10.730469 C 11.410156 11.25 10.96875 11.667969 10.417969 11.667969 Z M 2.480469 11.667969 "/>
<path style=" stroke:none;fill-rule:nonzero;fill:rgb(0%,0%,0%);fill-opacity:0.235294;" d="M 2.976562 4.15625 C 2.703125 4.15625 2.480469 4.378906 2.480469 4.652344 L 2.480469 4.902344 C 2.480469 4.625 2.703125 4.40625 2.976562 4.40625 L 9.921875 4.40625 C 10.199219 4.40625 10.417969 4.625 10.417969 4.902344 L 10.417969 4.652344 C 10.417969 4.378906 10.199219 4.15625 9.921875 4.15625 Z M 2.976562 4.15625 "/>
<path style=" stroke:none;fill-rule:nonzero;fill:rgb(100%,100%,100%);fill-opacity:0.392157;" d="M 2.976562 10.855469 C 2.703125 10.855469 2.480469 10.632812 2.480469 10.359375 L 2.480469 10.109375 C 2.480469 10.386719 2.703125 10.605469 2.976562 10.605469 L 9.921875 10.605469 C 10.199219 10.605469 10.417969 10.386719 10.417969 10.109375 L 10.417969 10.359375 C 10.417969 10.632812 10.199219 10.855469 9.921875 10.855469 Z M 2.976562 10.855469 "/>
<path style="fill:none;stroke-width:3;stroke-linecap:round;stroke-linejoin:round;stroke:rgb(12.941177%,12.941177%,12.941177%);stroke-opacity:1;stroke-miterlimit:4;" d="M 63.493937 -126.3418 L 211.646455 -126.3418 C 217.479232 -126.3418 222.228778 -121.592253 222.228778 -115.759477 L 222.228778 0.646073 C 222.228778 6.47885 217.479232 11.228396 211.646455 11.228396 L 63.493937 11.228396 C 57.66116 11.228396 52.911614 6.47885 52.911614 0.646073 L 52.911614 -115.759477 C 52.911614 -121.592253 57.66116 -126.3418 63.493937 -126.3418 Z M 63.493937 -126.3418 " transform="matrix(0.0468795,0,0,0.0468795,0,10.079087)"/>
<path style="fill:none;stroke-width:2.747377;stroke-linecap:round;stroke-linejoin:miter;stroke:rgb(12.941177%,12.941177%,12.941177%);stroke-opacity:1;stroke-miterlimit:4;" d="M 52.911614 -147.506445 L 222.228778 -147.506445 C 233.977656 -147.506445 243.393424 -138.59063 243.393424 -127.508355 L 243.393424 13.978134 C 243.393424 24.977083 233.977656 33.892899 222.228778 33.892899 L 52.911614 33.892899 C 41.246061 33.892899 31.746968 24.977083 31.746968 13.978134 L 31.746968 -127.508355 C 31.746968 -138.59063 41.246061 -147.506445 52.911614 -147.506445 Z M 52.911614 -147.506445 " transform="matrix(0.0468795,0,0,0.0468795,0,10.079087)"/>
<path style=" stroke:none;fill-rule:nonzero;fill:url(#linear3);" d="M 13.394531 3.164062 L 21.335938 3.164062 C 21.882812 3.164062 22.328125 3.582031 22.328125 4.101562 L 22.328125 10.734375 C 22.328125 11.25 21.882812 11.667969 21.335938 11.667969 L 13.394531 11.667969 C 12.847656 11.667969 12.402344 11.25 12.402344 10.734375 L 12.402344 4.101562 C 12.402344 3.582031 12.847656 3.164062 13.394531 3.164062 Z M 13.394531 3.164062 "/>
<path style=" stroke:none;fill-rule:nonzero;fill:url(#linear4);" d="M 13.890625 4.15625 L 20.839844 4.15625 C 21.113281 4.15625 21.335938 4.378906 21.335938 4.652344 L 21.335938 10.109375 C 21.335938 10.382812 21.113281 10.605469 20.839844 10.605469 L 13.890625 10.605469 C 13.617188 10.605469 13.394531 10.382812 13.394531 10.109375 L 13.394531 4.652344 C 13.394531 4.378906 13.617188 4.15625 13.890625 4.15625 Z M 13.890625 4.15625 "/>
<path style=" stroke:none;fill-rule:nonzero;fill:rgb(100%,100%,100%);fill-opacity:0.392157;" d="M 13.394531 3.164062 C 12.847656 3.164062 12.402344 3.582031 12.402344 4.101562 L 12.402344 4.347656 C 12.402344 3.832031 12.847656 3.414062 13.394531 3.414062 L 21.335938 3.414062 C 21.882812 3.414062 22.328125 3.832031 22.328125 4.347656 L 22.328125 4.101562 C 22.328125 3.582031 21.882812 3.164062 21.335938 3.164062 Z M 13.394531 3.164062 "/>
<path style=" stroke:none;fill-rule:nonzero;fill:rgb(0%,0%,0%);fill-opacity:0.235294;" d="M 13.394531 11.667969 C 12.847656 11.667969 12.402344 11.25 12.402344 10.730469 L 12.402344 10.484375 C 12.402344 11 12.847656 11.417969 13.394531 11.417969 L 21.335938 11.417969 C 21.882812 11.417969 22.328125 11 22.328125 10.484375 L 22.328125 10.730469 C 22.328125 11.25 21.882812 11.667969 21.335938 11.667969 Z M 13.394531 11.667969 "/>
<path style=" stroke:none;fill-rule:nonzero;fill:rgb(0%,0%,0%);fill-opacity:0.235294;" d="M 13.890625 4.15625 C 13.617188 4.15625 13.394531 4.378906 13.394531 4.652344 L 13.394531 4.902344 C 13.394531 4.625 13.617188 4.40625 13.890625 4.40625 L 20.839844 4.40625 C 21.113281 4.40625 21.335938 4.625 21.335938 4.902344 L 21.335938 4.652344 C 21.335938 4.378906 21.113281 4.15625 20.839844 4.15625 Z M 13.890625 4.15625 "/>
<path style=" stroke:none;fill-rule:nonzero;fill:rgb(100%,100%,100%);fill-opacity:0.392157;" d="M 13.890625 10.855469 C 13.617188 10.855469 13.394531 10.632812 13.394531 10.359375 L 13.394531 10.109375 C 13.394531 10.386719 13.617188 10.605469 13.890625 10.605469 L 20.839844 10.605469 C 21.113281 10.605469 21.335938 10.386719 21.335938 10.109375 L 21.335938 10.359375 C 21.335938 10.632812 21.113281 10.855469 20.839844 10.855469 Z M 13.890625 10.855469 "/>
<path style="fill:none;stroke-width:3;stroke-linecap:round;stroke-linejoin:round;stroke:rgb(12.941177%,12.941177%,12.941177%);stroke-opacity:1;stroke-miterlimit:4;" d="M 63.471694 -126.3418 L 211.707538 -126.3418 C 217.540315 -126.3418 222.289861 -121.592253 222.289861 -115.759477 L 222.289861 0.646073 C 222.289861 6.47885 217.540315 11.228396 211.707538 11.228396 L 63.471694 11.228396 C 57.638918 11.228396 52.889371 6.47885 52.889371 0.646073 L 52.889371 -115.759477 C 52.889371 -121.592253 57.638918 -126.3418 63.471694 -126.3418 Z M 63.471694 -126.3418 " transform="matrix(0.0468795,0,0,0.0468795,10.915105,10.079087)"/>
<path style="fill:none;stroke-width:2.747377;stroke-linecap:round;stroke-linejoin:miter;stroke:rgb(12.941177%,12.941177%,12.941177%);stroke-opacity:1;stroke-miterlimit:4;" d="M 52.889371 -147.506445 L 222.289861 -147.506445 C 233.955414 -147.506445 243.454507 -138.59063 243.454507 -127.508355 L 243.454507 13.978134 C 243.454507 24.977083 233.955414 33.892899 222.289861 33.892899 L 52.889371 33.892899 C 41.223819 33.892899 31.724726 24.977083 31.724726 13.978134 L 31.724726 -127.508355 C 31.724726 -138.59063 41.223819 -147.506445 52.889371 -147.506445 Z M 52.889371 -147.506445 " transform="matrix(0.0468795,0,0,0.0468795,10.915105,10.079087)"/>
<path style=" stroke:none;fill-rule:nonzero;fill:url(#linear5);" d="M 13.890625 21.082031 L 20.839844 21.082031 L 20.839844 22.019531 L 13.890625 22.019531 Z M 13.890625 21.082031 "/>
<path style=" stroke:none;fill-rule:nonzero;fill:url(#radial4);" d="M 20.839844 21.027344 L 22.824219 21.027344 L 22.824219 20.03125 L 20.839844 20.03125 Z M 20.839844 21.027344 "/>
<path style=" stroke:none;fill-rule:nonzero;fill:url(#radial5);" d="M 13.890625 21.027344 L 11.90625 21.027344 L 11.90625 22.019531 L 13.890625 22.019531 Z M 13.890625 21.027344 "/>
<path style=" stroke:none;fill-rule:nonzero;fill:url(#radial6);" d="M 13.890625 21.027344 L 11.90625 21.027344 L 11.90625 20.03125 L 13.890625 20.03125 Z M 13.890625 21.027344 "/>
<path style=" stroke:none;fill-rule:nonzero;fill:url(#radial7);" d="M 20.839844 21.027344 L 22.824219 21.027344 L 22.824219 22.019531 L 20.839844 22.019531 Z M 20.839844 21.027344 "/>
<path style=" stroke:none;fill-rule:nonzero;fill:url(#linear6);" d="M 13.394531 12.519531 L 21.335938 12.519531 C 21.882812 12.519531 22.328125 12.941406 22.328125 13.457031 L 22.328125 20.089844 C 22.328125 20.605469 21.882812 21.027344 21.335938 21.027344 L 13.394531 21.027344 C 12.847656 21.027344 12.402344 20.605469 12.402344 20.089844 L 12.402344 13.457031 C 12.402344 12.941406 12.847656 12.519531 13.394531 12.519531 Z M 13.394531 12.519531 "/>
<path style=" stroke:none;fill-rule:nonzero;fill:url(#linear7);" d="M 13.890625 13.511719 L 20.839844 13.511719 C 21.113281 13.511719 21.335938 13.734375 21.335938 14.007812 L 21.335938 19.464844 C 21.335938 19.738281 21.113281 19.960938 20.839844 19.960938 L 13.890625 19.960938 C 13.617188 19.960938 13.394531 19.738281 13.394531 19.464844 L 13.394531 14.007812 C 13.394531 13.734375 13.617188 13.511719 13.890625 13.511719 Z M 13.890625 13.511719 "/>
<path style=" stroke:none;fill-rule:nonzero;fill:rgb(100%,100%,100%);fill-opacity:0.392157;" d="M 13.394531 12.519531 C 12.847656 12.519531 12.402344 12.9375 12.402344 13.457031 L 12.402344 13.707031 C 12.402344 13.1875 12.847656 12.769531 13.394531 12.769531 L 21.335938 12.769531 C 21.882812 12.769531 22.328125 13.1875 22.328125 13.707031 L 22.328125 13.457031 C 22.328125 12.9375 21.882812 12.519531 21.335938 12.519531 Z M 13.394531 12.519531 "/>
<path style=" stroke:none;fill-rule:nonzero;fill:rgb(0%,0%,0%);fill-opacity:0.235294;" d="M 13.394531 21.023438 C 12.847656 21.023438 12.402344 20.605469 12.402344 20.085938 L 12.402344 19.839844 C 12.402344 20.359375 12.847656 20.777344 13.394531 20.777344 L 21.335938 20.777344 C 21.882812 20.777344 22.328125 20.359375 22.328125 19.839844 L 22.328125 20.085938 C 22.328125 20.605469 21.882812 21.023438 21.335938 21.023438 Z M 13.394531 21.023438 "/>
<path style=" stroke:none;fill-rule:nonzero;fill:rgb(0%,0%,0%);fill-opacity:0.235294;" d="M 13.890625 13.511719 C 13.617188 13.511719 13.394531 13.734375 13.394531 14.007812 L 13.394531 14.257812 C 13.394531 13.980469 13.617188 13.761719 13.890625 13.761719 L 20.839844 13.761719 C 21.113281 13.761719 21.335938 13.980469 21.335938 14.257812 L 21.335938 14.007812 C 21.335938 13.734375 21.113281 13.511719 20.839844 13.511719 Z M 13.890625 13.511719 "/>
<path style=" stroke:none;fill-rule:nonzero;fill:rgb(100%,100%,100%);fill-opacity:0.392157;" d="M 13.890625 20.210938 C 13.617188 20.210938 13.394531 19.988281 13.394531 19.714844 L 13.394531 19.464844 C 13.394531 19.742188 13.617188 19.960938 13.890625 19.960938 L 20.839844 19.960938 C 21.113281 19.960938 21.335938 19.742188 21.335938 19.464844 L 21.335938 19.714844 C 21.335938 19.988281 21.113281 20.210938 20.839844 20.210938 Z M 13.890625 20.210938 "/>
<path style="fill:none;stroke-width:3;stroke-linecap:round;stroke-linejoin:round;stroke:rgb(12.941177%,12.941177%,12.941177%);stroke-opacity:1;stroke-miterlimit:4;" d="M 63.471694 -126.34895 L 211.707538 -126.34895 C 217.540315 -126.34895 222.289861 -121.599404 222.289861 -115.766627 L 222.289861 0.638923 C 222.289861 6.471699 217.540315 11.221246 211.707538 11.221246 L 63.471694 11.221246 C 57.638918 11.221246 52.889371 6.471699 52.889371 0.638923 L 52.889371 -115.766627 C 52.889371 -121.599404 57.638918 -126.34895 63.471694 -126.34895 Z M 63.471694 -126.34895 " transform="matrix(0.0468795,0,0,0.0468795,10.915105,19.434891)"/>
<path style="fill:none;stroke-width:2.747377;stroke-linecap:round;stroke-linejoin:miter;stroke:rgb(12.941177%,12.941177%,12.941177%);stroke-opacity:1;stroke-miterlimit:4;" d="M 52.889371 -147.513596 L 222.289861 -147.513596 C 233.955414 -147.513596 243.454507 -138.514455 243.454507 -127.515506 L 243.454507 13.970983 C 243.454507 24.969933 233.955414 33.969073 222.289861 33.969073 L 52.889371 33.969073 C 41.223819 33.969073 31.724726 24.969933 31.724726 13.970983 L 31.724726 -127.515506 C 31.724726 -138.514455 41.223819 -147.513596 52.889371 -147.513596 Z M 52.889371 -147.513596 " transform="matrix(0.0468795,0,0,0.0468795,10.915105,19.434891)"/>
<path style=" stroke:none;fill-rule:nonzero;fill:url(#linear8);" d="M 2.480469 12.519531 L 10.417969 12.519531 C 10.96875 12.519531 11.410156 12.941406 11.410156 13.457031 L 11.410156 20.089844 C 11.410156 20.605469 10.96875 21.027344 10.417969 21.027344 L 2.480469 21.027344 C 1.933594 21.027344 1.488281 20.605469 1.488281 20.089844 L 1.488281 13.457031 C 1.488281 12.941406 1.933594 12.519531 2.480469 12.519531 Z M 2.480469 12.519531 "/>
<path style=" stroke:none;fill-rule:nonzero;fill:url(#linear9);" d="M 2.976562 13.511719 L 9.921875 13.511719 C 10.195312 13.511719 10.417969 13.734375 10.417969 14.007812 L 10.417969 19.464844 C 10.417969 19.738281 10.195312 19.960938 9.921875 19.960938 L 2.976562 19.960938 C 2.703125 19.960938 2.480469 19.738281 2.480469 19.464844 L 2.480469 14.007812 C 2.480469 13.734375 2.703125 13.511719 2.976562 13.511719 Z M 2.976562 13.511719 "/>
<path style=" stroke:none;fill-rule:nonzero;fill:rgb(100%,100%,100%);fill-opacity:0.392157;" d="M 2.480469 12.519531 C 1.929688 12.519531 1.488281 12.9375 1.488281 13.457031 L 1.488281 13.707031 C 1.488281 13.1875 1.929688 12.769531 2.480469 12.769531 L 10.417969 12.769531 C 10.96875 12.769531 11.410156 13.1875 11.410156 13.707031 L 11.410156 13.457031 C 11.410156 12.9375 10.96875 12.519531 10.417969 12.519531 Z M 2.480469 12.519531 "/>
<path style=" stroke:none;fill-rule:nonzero;fill:rgb(0%,0%,0%);fill-opacity:0.235294;" d="M 2.480469 21.023438 C 1.929688 21.023438 1.488281 20.605469 1.488281 20.085938 L 1.488281 19.839844 C 1.488281 20.359375 1.929688 20.777344 2.480469 20.777344 L 10.417969 20.777344 C 10.96875 20.777344 11.410156 20.359375 11.410156 19.839844 L 11.410156 20.085938 C 11.410156 20.605469 10.96875 21.023438 10.417969 21.023438 Z M 2.480469 21.023438 "/>
<path style=" stroke:none;fill-rule:nonzero;fill:rgb(0%,0%,0%);fill-opacity:0.235294;" d="M 2.976562 13.511719 C 2.703125 13.511719 2.480469 13.734375 2.480469 14.007812 L 2.480469 14.257812 C 2.480469 13.980469 2.703125 13.761719 2.976562 13.761719 L 9.921875 13.761719 C 10.199219 13.761719 10.417969 13.980469 10.417969 14.257812 L 10.417969 14.007812 C 10.417969 13.734375 10.199219 13.511719 9.921875 13.511719 Z M 2.976562 13.511719 "/>
<path style=" stroke:none;fill-rule:nonzero;fill:rgb(100%,100%,100%);fill-opacity:0.392157;" d="M 2.976562 20.210938 C 2.703125 20.210938 2.480469 19.988281 2.480469 19.714844 L 2.480469 19.464844 C 2.480469 19.742188 2.703125 19.960938 2.976562 19.960938 L 9.921875 19.960938 C 10.199219 19.960938 10.417969 19.742188 10.417969 19.464844 L 10.417969 19.714844 C 10.417969 19.988281 10.199219 20.210938 9.921875 20.210938 Z M 2.976562 20.210938 "/>
<path style="fill:none;stroke-width:3;stroke-linecap:round;stroke-linejoin:round;stroke:rgb(12.941177%,12.941177%,12.941177%);stroke-opacity:1;stroke-miterlimit:4;" d="M 63.493936 -126.34895 L 211.646455 -126.34895 C 217.479231 -126.34895 222.228778 -121.599404 222.228778 -115.766627 L 222.228778 0.638923 C 222.228778 6.471699 217.479231 11.221246 211.646455 11.221246 L 63.493936 11.221246 C 57.66116 11.221246 52.911613 6.471699 52.911613 0.638923 L 52.911613 -115.766627 C 52.911613 -121.599404 57.66116 -126.34895 63.493936 -126.34895 Z M 63.493936 -126.34895 " transform="matrix(0.0468795,0,0,0.0468795,0.000000031253,19.434891)"/>
<path style="fill:none;stroke-width:2.747377;stroke-linecap:round;stroke-linejoin:miter;stroke:rgb(12.941177%,12.941177%,12.941177%);stroke-opacity:1;stroke-miterlimit:4;" d="M 52.911613 -147.513596 L 222.228778 -147.513596 C 233.977656 -147.513596 243.393423 -138.514455 243.393423 -127.515506 L 243.393423 13.970983 C 243.393423 24.969933 233.977656 33.969073 222.228778 33.969073 L 52.911613 33.969073 C 41.246061 33.969073 31.746968 24.969933 31.746968 13.970983 L 31.746968 -127.515506 C 31.746968 -138.514455 41.246061 -147.513596 52.911613 -147.513596 Z M 52.911613 -147.513596 " transform="matrix(0.0468795,0,0,0.0468795,0.000000031253,19.434891)"/>
</g>
</svg>
