<svg height="24pt" viewBox="0 0 24 24" width="24pt" xmlns="http://www.w3.org/2000/svg" xmlns:xlink="http://www.w3.org/1999/xlink"><linearGradient id="a"><stop offset="0" stop-opacity=".313725"/><stop offset=".222222" stop-opacity=".27451"/><stop offset="1" stop-opacity="0"/></linearGradient><radialGradient id="b" cx="450.90894" cy="189.57936" gradientTransform="matrix(.00000013 -.0585994 -.105479 -.00000008 33.392365 47.696499)" gradientUnits="userSpaceOnUse" r="21.166656" xlink:href="#a"/><radialGradient id="c" cx="450.90894" cy="189.57936" gradientTransform="matrix(-.00000013 .0585994 .105479 .00000008 -9.57759 -5.645611)" gradientUnits="userSpaceOnUse" r="21.166656" xlink:href="#a"/><radialGradient id="d" cx="450.90894" cy="189.57936" gradientTransform="matrix(-.00000013 -.0585994 .105479 -.00000008 -9.57759 47.696499)" gradientUnits="userSpaceOnUse" r="21.166656" xlink:href="#a"/><radialGradient id="e" cx="450.90894" cy="189.57936" gradientTransform="matrix(.00000013 .0585994 -.105479 .00000008 33.392364 -5.645611)" gradientUnits="userSpaceOnUse" r="21.166656" xlink:href="#a"/><linearGradient id="f" gradientTransform="matrix(.01002 0 0 .0468795 9.349039 10.079088)" gradientUnits="userSpaceOnUse" x1="255.32306" x2="255.32304" y1="233.5" y2="254.66666"><stop offset="0" stop-opacity=".27451"/><stop offset="1" stop-opacity="0"/></linearGradient><linearGradient id="g" gradientUnits="userSpaceOnUse" x1="254" x2="254" y1="-168.66667" y2="233.5"><stop offset="0" stop-color="#82b1ff"/><stop offset="1" stop-color="#448aff"/></linearGradient><linearGradient id="h" gradientUnits="userSpaceOnUse" x1="11.83175" x2="11.83146114416" y1="21.0136985" y2="2.17207506167"><stop offset="0" stop-color="#1565c0"/><stop offset="1" stop-color="#1976d2"/></linearGradient><clipPath id="i"><path d="m0 0h24v24h-24z"/></clipPath><linearGradient id="j" gradientUnits="userSpaceOnUse" x1="11.90736" x2="11.90736" y1="17.8004885937" y2="5.14891735335"><stop offset="0" stop-color="#bbdefb"/><stop offset="1" stop-color="#e3f2fd"/></linearGradient><path d="m13.644531 21.027344h1.984375v-.996094h-1.984375zm0 0" fill="url(#b)"/><path d="m10.171875 21.027344h-1.984375v.992187h1.984375zm0 0" fill="url(#c)"/><path d="m10.171875 21.027344h-1.984375v-.996094h1.984375zm0 0" fill="url(#d)"/><path d="m13.644531 21.027344h1.984375v.992187h-1.984375zm0 0" fill="url(#e)"/><path d="m10.171875 20.777344h3.472656v1.242187h-3.472656zm0 0" fill="url(#f)"/><path d="m253.975747-168.671091c111.072726 0 201.147458 89.991406 201.147458 201.064133 0 111.072726-90.074732 201.147458-201.147458 201.147458-110.989402 0-201.064133-90.074732-201.064133-201.147458 0-111.072727 90.074731-201.064133 201.064133-201.064133zm0 0" fill="url(#g)" stroke="#333" stroke-linecap="round" stroke-width="3" transform="matrix(.0468795 0 0 .0468795 0 10.079087)"/><g clip-path="url(#i)"><path d="m11.925781 2.667969c-.726562.050781-1.433593.183593-2.125.410156-.246093.007813-.785156.324219-.351562.476563.203125.214843.683593.28125.625.632812.074219.308594-.71875.296875-.453125.574219.1875.246093.375.496093.5625.742187.347656-.113281.460937-.46875.652344-.738281.535156-.238281 1.292968-.308594 1.648437-.761719.109375-.324218.21875-.644531.332031-.964844-.296875-.125-.59375-.246093-.890625-.371093zm-2.578125.082031c-.332031-.035156-.542968.167969-.792968.300781-.304688.039063-.648438.152344-.839844.398438.339844.15625.558594-.011719.851562-.128907.273438-.140624 1.207032-.199218.78125-.570312zm-2.140625.984375c-.171875.261719.117188.640625-.273437.777344-.191406.242187-.359375.644531.121094.496093.117187-.359374.484374-.867187.902343-.65625.417969.113282.808594.820313 1.148438.261719 0-.144531-.53125-.230469-.519531-.585937-.238282-.101563-.746094.082031-.726563-.289063-.34375-.152343-.441406.605469-.5625.183594-.03125-.0625-.0625-.125-.089844-.1875zm9.296875.332031c-.40625.078125-.804687.171875-1.125.449219.089844.371094-.386718.433594-.601562.640625-.152344.085938.003906.761719.140625.65625.285156-.378906.433593-.050781.703125.136719.242187.222656.394531-.417969.265625-.597657-.074219-.289062.289062-.503906.421875-.742187.402344-.257813.0625.328125.050781.535156-.203125.605469.898437.015625.171875.46875-.195312.195313-.265625.484375-.566406.628907-.160156.195312-.777344.105468-.695313-.203126-.226562-.355468-.171875.425782-.246093.421876-.375-.113282-.484376.304687-.71875.503906-.179688.207031-.8125.078125-.339844.398437.34375.398438-.070313.324219-.355469.429688-.402344.070312-.335937.417969-.324219.738281.003906.171875.390625.433594.589844.308594.390625-.039063.292969-.519532.582031-.667969.238281-.203125.40625-.394531.765625-.398437.167969.160156.503906.398437.640625.527343-.375.410157.171875.375.226563.003907.1875-.207032-.613282-.691407-.085938-.476563.347656.113281.269532.46875.421875.707031.277344.46875.304688.121094.332031-.238281.472657-.171875.5.84375 1.113282.625.421875.011719.472656.289063.113281.496094-.25.304687-.714844.148437-1.03125.027343-.289063-.15625-.640625-.070312-.792969.226563-.339844-.292969-.578125-.753906-1.070312-.78125-.464844-.023437-.933594.101563-1.382813.226563-.511719.570312-1.320312.914062-1.523437 1.710937-.292969.292969.007812.527344-.082032.757813-.285156.253906-.226562.539062-.042968.835937.179687.691406.953125.929687 1.378906 1.4375.246094-.242187.480469-.480469.695312-.1875.289063-.253906.472657-.289063.714844-.066406.304688.050781.710938-.140625.902344.183593.28125.210938-.289062.621094.0625.820313.328125.210937.171875.59375.191406.917969.183594.285156.339844.574218.027344.832031-.28125.792969.203125 1.535156.484375 2.253906.0625.3125.160156.617188.128906.9375.207031-.324219.621094-.164062.886719-.457031.171875-.234375.652344-.457031.484375-.785156-.0625-.257813.6875-.390625.3125-.636719-.414063-.242187.042969-.425781.25-.613281.21875-.164063.621094-.34375.433594-.671875-.105469-.441407-.023438-.902344-.050781-1.355469.207031-.417969.429687-.824219.773437-1.148438.136719-.453124.46875-.871093.4375-1.355468-.804687.238281-.5625-.101563-.117187-.429688.308593-.226562.75-.4375.84375-.824218.066406-.378907-.230469-.972657-.492188-.414063-.125-.175781-.570312-.34375-.5625-.621094-.09375-.566406.152344-.226562.375.039063.511719-.378906 1.179688 1.050781.964844.03125-.292969-2.207032-1.414063-4.292969-3.089844-5.753906-.152344.160156-.40625.769531-.59375.417968-.261719-.277344-.46875-.527344.066406-.425781.523438-.140625.003906-.226563-.273437-.257813-.273438-.03125-.53125-.132812-.789063-.222656zm-10.261718.011719c-.347657.132813.171874.644531-.449219.480469-.683594.308594-1.136719 1.058594-1.609375 1.640625-1.105469 1.5625-1.707032 3.472656-1.703125 5.386719.179687.375.628906.5.960937.707031.339844.117187.769532.097656.9375.472656.191406.199219.441406.464844.714844.484375.414062-.132812.472656.246094.261719.523438-.023438.304687-.359375.550781-.324219.820312.078125.300781-.378906.628906-.070312.90625.320312.574219.664062 1.132812 1.097656 1.628906.273437.238282.238281.5625.210937.886719-.109375.347656.214844.546875.390625.796875-.425781.777344.726563.933594 1.210938 1.277344.242187-.222656.261718-.582032.664062-.59375.246094-.167969.296875-.554688.464844-.8125-.007812-.273438-.179688-.527344.101562-.824219.226563-.160156.617188-.113281.695313-.480469.253906-.289062.019531-.6875.027344-1.03125.207031-.25.570312-.417968.675781-.71875.296875-.65625-.460938-.730468-.910156-.964844-.496094-.21875-1.074219-.371093-1.222656-.957031-.191407-.203125-.691407.035157-.703126-.410156-.050781-.414063-.328124-.4375-.675781-.339844-.34375.121094-.457031-.347656-.683593-.519531-.203126-.390625-.433594.21875-.652344.339844-.199219.457031-.878906.167968-.90625-.308594.050781-.378906-.035156-.574219-.445313-.433594.15625-.417968.121094-1.28125-.332031-.621094-.160156.289063-.554688.183594-.6875-.046874-.019531-.308594-.082031-.714844.121094-.957032.25-.1875.480468-.4375.820312-.347656.109375-.289062.371094-.234375.695313-.125.183593.253906.429687.722656.382812.136719-.035156-.34375.097657-.59375.40625-.746094.289063-.164063.464844-.402344.515625-.730469-.015625-.449218.367188-.332031.660156-.402344.222657-.308593.652344-.207031.933594-.371093.238282-.296875.40625-.558594-.113281-.449219-.316406.003906-.796875.0625-.285156-.21875.210937-.269531.503906-.277344.816406-.277344.234375-.097656.734375-.121094.605469-.464844-.269532-.222656-.488282-.226562-.410156-.59375.019531-.53125-.558594.023438-.546876-.210937.203126-.269531-.398437-.5625-.511718-.429687-.113282.285156-.429688.53125-.308594.855468-.351562.058594-.515625.3125-.621094.628906-.105468.035157-.070312-.621093-.472656-.558593-.285156-.007813-.636719-.433594-.335938-.597657.410157-.261718.917969-.464843 1.179688-.878906.148438-.371094-.128906-.597656-.492188-.546875h-.054687zm7.097656.292969c-.226563.175781-.683594.054687-.777344.226562-.042969.339844.488281.335938.703125.144532.347656-.125.332031-.101563.074219-.371094zm-5.226563.308594c-.480469.144531-.089843.457031.226563.453124.375-.03125.023437-.449218-.226563-.453124zm5.734375.945312c-.035156.308594.261719.5.140625.832031-.191406.421875.078125.546875.40625.289063.433594-.269532-.328125-.851563-.429687-1.121094-.039063 0-.078125 0-.117188 0zm-.144531.492188c-.390625-.09375-.265625.726562.003906.445312.289063-.050781.011719-.277344-.003906-.445312zm-5.007813.742187c.058594.3125.078126.804687.304688.273437 0-.101562-.222656-.183593-.304688-.273437zm9.476563 3.203125c.460937.402344.648437.984375.910156 1.519531.386719.203125.15625.511719.210938.773438.539062.472656-.546875.222656-.414063-.292969-.085937-.597656-.472656-.996094-.785156-1.429688-.023438-.226562-.269531-.488281.078125-.570312zm0 0" fill="url(#h)"/></g><path d="m11.90625 2.171875c-5.222656 0-9.425781 4.203125-9.425781 9.425781v.09375c.050781-5.179687 4.234375-9.335937 9.425781-9.335937s9.378906 4.15625 9.425781 9.335937c0-.03125.003907-.0625.003907-.09375 0-5.222656-4.207032-9.425781-9.429688-9.425781zm0 0" fill="#fff" fill-opacity=".588235"/><path d="m11.90625 2.101562c-5.257812 0-9.496094 4.238282-9.496094 9.496094 0 5.261719 4.238282 9.5 9.496094 9.5 5.261719 0 9.5-4.238281 9.5-9.5 0-5.257812-4.238281-9.496094-9.5-9.496094zm0 .140626c5.1875 0 9.359375 4.171874 9.359375 9.355468 0 5.1875-4.171875 9.359375-9.359375 9.359375-5.183594 0-9.355469-4.171875-9.355469-9.359375 0-5.183594 4.171875-9.355468 9.355469-9.355468zm0 0" fill="#212121"/><path d="m11.90625 5.148438c-.605469.371093-1.019531 1.363281-.992188 1.984374 0 .8125.011719 1.71875.035157 2.648438-1.585938.605469-4.175781 1.914062-5.21875 2.84375-.335938.277344-.398438.523438-.023438.710938.949219.472656 3.71875-.992188 5.207031-.992188.042969.789062.148438 1.554688.253907 2.230469h-.003907c-.136718 0-.25.222656-.25.496093v.496094c0 .054688.003907.105469.011719.15625-.511719.144532-1.003906.410156-1.003906.835938 0 .324218.535156.367187 1.117187.375.496094.121094.621094.867187.867188.867187.25 0 .375-.746093.871094-.867187.578125 0 1.113281-.019532 1.113281-.375 0-.425782-.492187-.679688-1.003906-.824219.007812-.054687.011719-.109375.011719-.167969v-.496094c0-.273437-.109376-.496093-.246094-.496093h-.003906c.101562-.675781.210937-1.441407.25-2.230469 1.488281 0 4.265624 1.460938 5.210937.992188.371094-.1875.308594-.433594-.023437-.710938-1.046876-.929688-3.632813-2.238281-5.21875-2.84375.023437-.929688.03125-1.835938.03125-2.648438 0-.742187-.496094-1.984374-.992188-1.984374zm0 0" fill="url(#j)"/><path d="m11.90625 5.148438c-.605469.371093-1.019531 1.363281-.992188 1.984374v.355469c.03125-.621093.429688-1.5.992188-1.84375.484375 0 .96875 1.175781.992188 1.925781 0-.148437 0-.292968 0-.4375 0-.742187-.496094-1.984374-.992188-1.984374zm-.96875 4.636718c-1.585938.609375-4.164062 1.914063-5.207031 2.839844-.292969.242188-.375.460938-.148438.636719.042969-.046875.089844-.09375.148438-.140625 1.042969-.929688 3.632812-2.234375 5.21875-2.84375-.003907-.164063-.007813-.328125-.011719-.492188zm1.941406 0c-.003906.164063-.007812.328125-.011718.492188 1.585937.609375 4.171874 1.914062 5.21875 2.84375.058593.046875.105468.09375.144531.140625.230469-.175781.144531-.394531-.144531-.636719-1.042969-.925781-3.621094-2.230469-5.207032-2.839844zm-1.78125 4.808594c-.105468.058594-.183594.25-.183594.476562v.496094c0-.273437.113282-.496094.25-.496094h.003907c-.023438-.152343-.046875-.3125-.070313-.476562zm1.621094 0c-.023438.164062-.046875.324219-.070312.476562h.003906c.136718 0 .246094.222657.246094.496094v-.496094c0-.226562-.074219-.417968-.179688-.476562zm-1.804688 1.132812c-.507812.144532-.992187.410157-.992187.832032 0 .082031.035156.144531.09375.195312.167969-.253906.535156-.425781.910156-.535156-.007812-.050781-.011719-.101562-.011719-.15625zm1.984376.011719v.324219c0 .058594-.003907.113281-.011719.167969.378906.105469.753906.277343.917969.53125.054687-.050781.085937-.117188.085937-.203125 0-.421875-.484375-.675782-.992187-.820313zm0 0" fill="#fff"/><path d="m10.914062 7.488281v.140625c0 .667969.007813 1.402344.023438 2.15625.003906 0 .007812-.003906.011719-.003906-.019531-.796875-.03125-1.574219-.035157-2.292969zm1.984376.082031c-.003907.695313-.011719 1.445313-.03125 2.210938.003906 0 .007812.003906.011718.003906.011719-.753906.019532-1.488281.019532-2.15625 0-.019531 0-.039062 0-.058594zm-1.984376 4.773438c-1.488281 0-4.257812 1.464844-5.207031.992188-.050781-.023438-.089843-.050782-.125-.074219-.195312.21875-.183593.414062.125.570312.949219.472657 3.71875-.992187 5.207031-.992187.035157.609375.105469 1.203125.183594 1.753906.019532-.011719.042969-.019531.066406-.019531h.003907c-.105469-.675781-.210938-1.441407-.253907-2.230469zm1.984376 0c-.039063.789062-.148438 1.554688-.25 2.230469h.003906c.023437 0 .042968.007812.066406.019531.078125-.550781.148438-1.144531.179688-1.753906 1.488281 0 4.265624 1.460937 5.210937.992187.308594-.15625.316406-.351562.121094-.570312-.03125.023437-.074219.050781-.121094.074219-.945313.46875-3.722656-.992188-5.210937-.992188zm-1.984376 3.222656v.160156c.003907-.003906.007813-.003906.011719-.003906-.007812-.050781-.011719-.101562-.011719-.15625zm1.984376 0c0 .058594-.003907.113282-.011719.167969.003906 0 .007812 0 .011719.003906zm-2.882813 1.1875c-.058594.089844-.09375.191406-.09375.300782 0 .324218.535156.367187 1.117187.375.496094.121093.621094.867187.867188.867187.25 0 .375-.746094.871094-.867187.578125 0 1.113281-.019532 1.113281-.375 0-.105469-.03125-.203126-.085937-.292969-.175782.160156-.589844.171875-1.027344.171875-.496094.121094-.621094.867187-.871094.867187-.246094 0-.371094-.746093-.867188-.867187-.433593-.007813-.84375-.03125-1.023437-.179688zm0 0" fill-opacity=".235294"/><path d="m11.90625 5.078125c-.011719 0-.023438.003906-.035156.011719-.320313.195312-.582032.546875-.761719.929687-.179687.378907-.28125.789063-.265625 1.117188v-.003907c0 .800782.011719 1.691407.035156 2.601563-1.597656.617187-4.140625 1.902344-5.195312 2.839844-.171875.140625-.289063.28125-.300782.433593-.007812.078126.015626.152344.066407.21875.050781.066407.125.121094.226562.171876.261719.132812.625.125 1.046875.050781.421875-.070313.90625-.210938 1.40625-.363281.96875-.300782 2-.652344 2.722656-.671876.042969.746094.140626 1.460938.238282 2.105469-.070313.027344-.125.09375-.164063.167969-.050781.105469-.082031.238281-.082031.382812v.496094c0 .039063.003906.070313.007812.105469-.242187.074219-.476562.171875-.660156.308594-.199218.144531-.339844.339843-.339844.578125 0 .101562.046876.1875.121094.246094.070313.0625.164063.097656.273438.128906.214844.050781.492187.066406.78125.070312.214844.054688.359375.25.480468.445313.058594.101562.113282.199219.171876.277343.058593.078126.128906.144532.226562.144532s.167969-.066406.226562-.144532c.058594-.078124.113282-.175781.175782-.277343.121094-.195313.265625-.390625.476562-.445313.289063 0 .566406-.003906.78125-.054687.109375-.027344.207032-.066407.277344-.128907.074219-.0625.117188-.152343.117188-.261718 0-.238282-.140626-.429688-.339844-.574219-.183594-.132813-.417969-.226563-.65625-.300781.003906-.039063.003906-.074219.003906-.117188v-.496094c0-.144531-.027344-.277343-.078125-.382812-.039063-.074219-.09375-.140625-.164063-.167969.097657-.644531.195313-1.359375.238282-2.105469.71875.019532 1.753906.371094 2.722656.667969.5.15625.984375.292969 1.40625.367188.421875.070312.785156.078125 1.046875-.050781.097656-.050782.175781-.105469.226563-.171876.046874-.0625.070312-.140624.066406-.21875-.015625-.152343-.128906-.292968-.300782-.433593-1.054687-.9375-3.601562-2.222657-5.195312-2.839844.023438-.910156.03125-1.800781.03125-2.601563 0-.386718-.125-.886718-.316406-1.300781-.09375-.207031-.203125-.390625-.328125-.523437-.125-.136719-.261719-.230469-.417969-.230469zm.019531.144531c.089844.007813.191407.066406.292969.179688.109375.121094.214844.292968.308594.488281.179687.394531.300781.886719.300781 1.242187 0 .8125-.007813 1.71875-.03125 2.644532 0 .03125.015625.058594.042969.070312 1.578125.605469 4.171875 1.917969 5.199218 2.832032h.003907c.160156.132812.242187.253906.25.339843.003906.042969-.007813.082031-.039063.121094-.03125.042969-.089844.089844-.175781.132813-.210937.105468-.550781.105468-.960937.035156-.410157-.070313-.890626-.207032-1.386719-.359375-1-.308594-2.0625-.675781-2.832031-.675781-.035157 0-.066407.027343-.070313.066406-.039063.785156-.148437 1.546875-.25 2.226562-.003906.019532 0 .039063.015625.054688.011719.015625.03125.023437.054688.023437h.003906c.03125 0 .074218.03125.113281.109375.035156.074219.0625.191406.0625.316406v.496094c0 .054688-.003906.105469-.011719.15625-.007812.035156.015625.066406.050782.078125.25.070313.496093.171875.671874.296875.175782.128906.28125.277344.28125.460938 0 .070312-.019531.117187-.066406.15625-.046875.039062-.121094.074218-.21875.097656-.195312.042969-.46875.050781-.757812.050781-.007813 0-.011719 0-.019532 0-.277343.070313-.441406.308594-.570312.511719-.0625.101562-.117188.199219-.164062.265625-.050782.066406-.089844.089844-.117188.089844s-.0625-.023438-.113281-.089844-.105469-.164063-.167969-.265625c-.125-.203125-.289062-.441406-.570312-.511719-.003907 0-.007813 0-.015626 0-.289062-.003906-.5625-.019531-.757812-.066406-.097656-.027344-.175781-.058594-.21875-.097656-.046875-.039063-.070312-.078125-.070312-.140625 0-.183594.105468-.335938.28125-.464844.175781-.132812.421874-.234375.671874-.304688.035157-.007812.058594-.042968.050782-.078124-.007813-.046876-.011719-.09375-.011719-.144532v-.496094c0-.125.027344-.242187.066406-.316406.039063-.078125.082031-.109375.113281-.109375h.003907c.019531 0 .039062-.007812.054687-.023437.011719-.015625.019532-.035156.015625-.054688-.105469-.679687-.210937-1.441406-.253906-2.226562 0-.039063-.03125-.066406-.070313-.066406-.765624 0-1.832031.371093-2.828124.675781-.496094.152343-.976563.292969-1.386719.363281-.410157.066406-.75.066406-.960938-.039062-.089843-.042969-.144531-.089844-.175781-.132813-.035156-.039063-.042969-.078125-.039062-.121094.007812-.085937.089843-.207031.25-.339843h.003906c1.023437-.914063 3.617187-2.226563 5.195312-2.832032.027344-.011718.046875-.039062.046875-.070312-.023437-.925782-.035156-1.832032-.035156-2.644532 0 0 0 0 0-.003906-.011719-.292968.078125-.6875.25-1.050781.167969-.355469.414063-.679687.691406-.855469zm0 0" fill="#212121"/></svg>