<svg xmlns="http://www.w3.org/2000/svg" width="32" height="32" viewBox="0 0 24 24"><defs><linearGradient id="a" gradientUnits="userSpaceOnUse" x1="254" y1="233.5" x2="254" y2="254.667" gradientTransform="matrix(.04688 0 0 .04688 0 10.08)"><stop offset="0" stop-opacity=".275"/><stop offset="1" stop-opacity="0"/></linearGradient><radialGradient id="b" gradientUnits="userSpaceOnUse" cx="450.909" cy="189.579" fx="450.909" fy="189.579" r="21.167" gradientTransform="matrix(0 -.0586 -.10548 0 39.842 47.696)"><stop offset="0" stop-opacity=".314"/><stop offset=".222" stop-opacity=".275"/><stop offset="1" stop-opacity="0"/></radialGradient><radialGradient id="c" gradientUnits="userSpaceOnUse" cx="450.909" cy="189.579" fx="450.909" fy="189.579" r="21.167" gradientTransform="matrix(0 .0586 .10548 0 -15.903 -5.646)"><stop offset="0" stop-opacity=".314"/><stop offset=".222" stop-opacity=".275"/><stop offset="1" stop-opacity="0"/></radialGradient><radialGradient id="d" gradientUnits="userSpaceOnUse" cx="450.909" cy="189.579" fx="450.909" fy="189.579" r="21.167" gradientTransform="matrix(0 -.0586 .10548 0 -15.903 47.696)"><stop offset="0" stop-opacity=".314"/><stop offset=".222" stop-opacity=".275"/><stop offset="1" stop-opacity="0"/></radialGradient><radialGradient id="e" gradientUnits="userSpaceOnUse" cx="450.909" cy="189.579" fx="450.909" fy="189.579" r="21.167" gradientTransform="matrix(0 .0586 -.10548 0 39.842 -5.646)"><stop offset="0" stop-opacity=".314"/><stop offset=".222" stop-opacity=".275"/><stop offset="1" stop-opacity="0"/></radialGradient><linearGradient id="f" gradientUnits="userSpaceOnUse" x1="254" y1="-168.667" x2="254" y2="233.5" gradientTransform="matrix(.04688 0 0 .04688 0 10.08)"><stop offset="0" stop-color="#ffab91"/><stop offset="1" stop-color="#ff8a65"/></linearGradient><linearGradient id="g" gradientUnits="userSpaceOnUse" x1="254" y1="-147.5" x2="254" y2="-126.333"><stop offset="0" stop-color="#795548"/><stop offset="1" stop-color="#8d6e63"/></linearGradient><linearGradient id="h" gradientUnits="userSpaceOnUse" x1="254" y1="138.25" x2="254" y2="-73.417" gradientTransform="matrix(.04688 0 0 .04688 .262 10.08)"><stop offset="0" stop-color="#eee"/><stop offset="1" stop-color="#fafafa"/></linearGradient></defs><path d="M3.844 21.027h16.25v.993H3.844zm0 0" fill="url(#a)"/><path d="M20.094 21.027h1.984v-.996h-1.984zm0 0" fill="url(#b)"/><path d="M3.844 21.027H1.859v.993h1.985zm0 0" fill="url(#c)"/><path d="M3.844 21.027H1.859v-.996h1.985zm0 0" fill="url(#d)"/><path d="M20.094 21.027h1.984v.993h-1.984zm0 0" fill="url(#e)"/><path d="M2.73 2.172h18.356c.41 0 .746.332.746.746v17.363c0 .41-.336.746-.746.746H2.73a.746.746 0 0 1-.746-.746V2.918c0-.414.332-.746.746-.746zm0 0" fill="url(#f)"/><path d="M1.984 18.047h19.848v.125H1.984zm0 0" fill-opacity=".196"/><path d="M1.984 18.172h19.848v.125H1.984zm0 0" fill="#e6e6e6" fill-opacity=".588"/><path d="M1.984 18.11h19.848v.124H1.984zm0 0" fill="#212121" fill-opacity=".992"/><path d="M2.977 21.027a.992.992 0 0 1-.993-.996v-.12c0 .546.442.991.993.991H20.84a.994.994 0 0 0 .992-.992v.121c0 .551-.445.996-.992.996zm0 0" fill-opacity=".196"/><path d="M2.977 2.172a.989.989 0 0 0-.993.992v.125c0-.55.442-.992.993-.992H20.84c.547 0 .992.441.992.992v-.125a.991.991 0 0 0-.992-.992zm0 0" fill="#e6e6e6" fill-opacity=".588"/><path d="M2.977 21.027a.992.992 0 0 1-.993-.996v-.12c0 .546.442.991.993.991H20.84a.994.994 0 0 0 .992-.992v.121c0 .551-.445.996-.992.996zm0 0" fill-opacity=".196"/><path d="M2.977 2.172a.989.989 0 0 0-.993.992v.125c0-.55.442-.992.993-.992H20.84c.547 0 .992.441.992.992v-.125a.991.991 0 0 0-.992-.992zm0 0" fill="#e6e6e6" fill-opacity=".588"/><path d="M2.73 2.102a.814.814 0 0 0-.816.816v17.363c0 .45.363.817.816.817h18.356c.45 0 .816-.368.816-.817V2.918a.816.816 0 0 0-.816-.816zm0 .14h18.356c.375 0 .676.301.676.676v17.363c0 .375-.301.676-.676.676H2.73a.674.674 0 0 1-.675-.676V2.918c0-.375.3-.676.675-.676zm0 0" fill="#212121"/><path d="M84.659-147.506h338.634c5.916 0 10.582 4.75 10.582 10.582a10.544 10.544 0 0 1-10.582 10.582H84.659c-5.833 0-10.583-4.75-10.583-10.582 0-5.833 4.75-10.582 10.583-10.582zm0 0" transform="matrix(.04688 0 0 .04688 0 10.08)" fill="url(#g)" stroke-width="3" stroke-linecap="square" stroke-linejoin="bevel" stroke="#212121"/><path d="M14.082 8.207a.931.931 0 0 0 1.27-.34.928.928 0 0 0-.34-1.27.934.934 0 0 0-1.27.34.934.934 0 0 0 .34 1.27zm-1.898 6a2.72 2.72 0 0 1-1.141-.25l-.645 1.156a4.028 4.028 0 0 0 2.864.27c.058-.371.281-.715.633-.922a1.305 1.305 0 0 1 1.113-.09 4.008 4.008 0 0 0 1.199-2.613l-1.324-.02a2.708 2.708 0 0 1-2.7 2.469zm0-5.422a2.709 2.709 0 0 1 2.699 2.473l1.324-.02a4.026 4.026 0 0 0-1.2-2.617 1.305 1.305 0 0 1-1.112-.09 1.294 1.294 0 0 1-.633-.918 4.028 4.028 0 0 0-2.863.27l.644 1.156a2.665 2.665 0 0 1 1.14-.254zm-2.711 2.711c0-.918.457-1.726 1.152-2.219l-.68-1.136a4.038 4.038 0 0 0-1.664 2.343c.293.243.48.606.48 1.012 0 .41-.187.774-.48 1.012.25.972.852 1.8 1.664 2.344l.68-1.137a2.708 2.708 0 0 1-1.152-2.219zm4.609 3.293a.928.928 0 0 0 .93 1.605.928.928 0 0 0-.93-1.605zM7.457 10.57a.929.929 0 1 0-.002 1.857.929.929 0 0 0 .002-1.857" fill="url(#h)"/></svg>