<svg height="24" width="24" xmlns="http://www.w3.org/2000/svg" xmlns:xlink="http://www.w3.org/1999/xlink"><linearGradient id="a" gradientUnits="userSpaceOnUse" x1="11.90752" x2="11.90752" y1="21.02648" y2="22.01878896"><stop offset="0" stop-opacity=".275"/><stop offset="1" stop-opacity="0"/></linearGradient><linearGradient id="b"><stop offset="0" stop-opacity=".314"/><stop offset=".222" stop-opacity=".275"/><stop offset="1" stop-opacity="0"/></linearGradient><radialGradient id="c" cx="450.909" cy="189.579" gradientTransform="matrix(0 -.0586 -.10548 0 39.842 47.696)" gradientUnits="userSpaceOnUse" r="21.167" xlink:href="#b"/><radialGradient id="d" cx="450.909" cy="189.579" gradientTransform="matrix(0 .0586 .10548 0 -15.903 -5.646)" gradientUnits="userSpaceOnUse" r="21.167" xlink:href="#b"/><radialGradient id="e" cx="450.909" cy="189.579" gradientTransform="matrix(0 -.0586 .10548 0 -15.903 47.696)" gradientUnits="userSpaceOnUse" r="21.167" xlink:href="#b"/><radialGradient id="f" cx="450.909" cy="189.579" gradientTransform="matrix(0 .0586 -.10548 0 39.842 -5.646)" gradientUnits="userSpaceOnUse" r="21.167" xlink:href="#b"/><linearGradient id="g" gradientTransform="matrix(.04454 0 0 .04688 .595 10.08)" gradientUnits="userSpaceOnUse" x1="254" x2="254" y1="233.5" y2="-168.667"><stop offset="0" stop-color="#2979ff"/><stop offset="1" stop-color="#64b5f6"/></linearGradient><linearGradient id="h"><stop offset="0" stop-color="#bdbdbd"/><stop offset="1" stop-color="#e0e0e0"/></linearGradient><linearGradient id="i" gradientTransform="matrix(.01197748 -.00320936 .00320936 .01197748 -3.378348 2.07242)" gradientUnits="userSpaceOnUse" x1="408.61" x2="802.015" xlink:href="#h" y1="1691.376" y2="223.169"/><linearGradient id="j" gradientTransform="matrix(.01197748 .00320936 -.00320936 .01197748 8.958164 -3.220708)" gradientUnits="userSpaceOnUse" x1="735.425" x2="342.02" xlink:href="#h" y1="1826.756" y2="358.549"/><linearGradient id="k" gradientTransform="matrix(.01073872 .0062 -.0062 .01073872 16.696708 -.054348)" gradientUnits="userSpaceOnUse" x1="584.308" x2="-175.692" xlink:href="#h" y1="1625.066" y2="308.707"/><path d="m3.844 21.027h16.25v.993h-16.25zm0 0" fill="url(#a)"/><path d="m20.094 21.027h1.984v-.996h-1.984zm0 0" fill="url(#c)"/><path d="m3.844 21.027h-1.985v.993h1.985zm0 0" fill="url(#d)"/><path d="m3.844 21.027h-1.985v-.996h1.985zm0 0" fill="url(#e)"/><path d="m20.094 21.027h1.984v.993h-1.984zm0 0" fill="url(#f)"/><path d="m3.473 2.172h16.867c.55 0 .996.445.996.992v16.867c0 .551-.445.996-.996.996h-16.867a.994.994 0 0 1 -.993-.996v-16.867c0-.547.446-.992.993-.992zm0 0" fill="url(#g)"/><path d="m3.227 5.633a.5.5 0 0 0 -.352.61l2.184 8.144a.49.49 0 0 0 .605.351l1.918-.511a.497.497 0 0 0 .352-.61l-2.184-8.144a.497.497 0 0 0 -.61-.352zm2.823 10.543a.5.5 0 0 0 -.352.61l.387 1.437c.07.265.34.422.605.351l1.918-.515a.493.493 0 0 0 .352-.606l-.387-1.437a.495.495 0 0 0 -.605-.352zm0 0" fill="url(#i)"/><path d="m12.898 3.164a.493.493 0 0 0 -.605.352l-2.184 8.148a.495.495 0 0 0 .352.606l1.914.515c.266.07.54-.086.61-.351l2.183-8.149a.493.493 0 0 0 -.352-.605zm-2.824 10.543a.493.493 0 0 0 -.605.352l-.387 1.437a.5.5 0 0 0 .352.61l1.914.511c.265.07.539-.086.609-.351l.387-1.438a.493.493 0 0 0 -.352-.605zm0 0" fill="url(#j)"/><path d="m18.852 7.133a.495.495 0 0 0 -.676.183l-4.219 7.305a.494.494 0 0 0 .184.676l1.718.992c.239.137.54.059.676-.18l4.219-7.304a.498.498 0 0 0 -.184-.68zm-5.457 9.453a.494.494 0 0 0 -.676.184l-.746 1.289a.494.494 0 0 0 .183.675l1.719.993c.238.136.54.058.676-.18l.746-1.29a.498.498 0 0 0 -.184-.679zm0 0" fill="url(#k)"/><path d="m12.777 3.148a.493.493 0 0 0 -.484.368l-2.184 8.148a.493.493 0 0 0 .04.36l2.144-7.997a.493.493 0 0 1 .605-.351l1.918.515c.141.036.25.13.309.247l.043-.153a.493.493 0 0 0 -.352-.605l-1.918-.516a.43.43 0 0 0 -.12-.016zm-7.511 1.954c-.04.003-.082.007-.125.02l-1.914.51a.5.5 0 0 0 -.352.61l.04.153a.489.489 0 0 1 .312-.247l1.914-.515a.476.476 0 0 1 .125-.016.493.493 0 0 1 .484.367l2.14 7.996a.504.504 0 0 0 .044-.363l-2.184-8.144a.496.496 0 0 0 -.484-.371zm13.328 1.964a.495.495 0 0 0 -.418.25l-4.219 7.305a.486.486 0 0 0 .008.504l4.21-7.297a.495.495 0 0 1 .419-.25c.09 0 .18.02.258.07l1.718.993a.476.476 0 0 1 .18.171l.004-.007a.498.498 0 0 0 -.184-.68l-1.718-.992a.498.498 0 0 0 -.258-.067zm-8.645 6.625a.492.492 0 0 0 -.48.368l-.387 1.437a.493.493 0 0 0 .04.36l.347-1.286a.496.496 0 0 1 .48-.367c.043 0 .082.008.125.02l1.918.511c.137.04.246.13.309.246l.043-.152a.493.493 0 0 0 -.352-.605l-1.918-.516a.457.457 0 0 0 -.125-.016zm-1.86 1.954c-.038.003-.081.007-.12.02l-1.918.51a.5.5 0 0 0 -.352.61l.04.152a.489.489 0 0 1 .312-.246l1.918-.515a.493.493 0 0 1 .605.352l.344 1.285a.494.494 0 0 0 .043-.36l-.387-1.437a.496.496 0 0 0 -.484-.371zm5.048.875a.495.495 0 0 0 -.418.25l-.746 1.289a.486.486 0 0 0 .007.503l.739-1.28a.495.495 0 0 1 .676-.184l1.718.996a.476.476 0 0 1 .18.172l.004-.008a.498.498 0 0 0 -.184-.68l-1.718-.992a.518.518 0 0 0 -.258-.066zm0 0" fill="#fff"/><path d="m15.129 4.469-2.145 8.004a.497.497 0 0 1 -.609.351l-1.914-.511a.49.49 0 0 1 -.313-.254l-.039.14a.5.5 0 0 0 .352.61l1.914.511c.266.07.54-.086.61-.351l2.183-8.145a.503.503 0 0 0 -.04-.355zm-12.219 1.953a.483.483 0 0 0 -.035.355l2.184 8.149c.07.265.34.422.605.351l1.918-.515a.493.493 0 0 0 .352-.606l-.04-.14a.494.494 0 0 1 -.312.25l-1.918.515a.493.493 0 0 1 -.605-.351zm17.844 2.422-4.219 7.304a.494.494 0 0 1 -.676.184l-1.718-.992a.517.517 0 0 1 -.184-.184.5.5 0 0 0 .184.68l1.718.992c.239.137.54.055.676-.183l4.219-7.305a.49.49 0 0 0 0-.496zm-8.45 6.168-.347 1.297a.492.492 0 0 1 -.61.347l-1.913-.511a.49.49 0 0 1 -.313-.254l-.039.14c-.07.266.086.54.352.61l1.914.511a.492.492 0 0 0 .609-.347l.387-1.438a.503.503 0 0 0 -.04-.355zm-6.566 1.953a.485.485 0 0 0 -.039.355l.387 1.438c.07.265.34.422.605.351l1.918-.511a.5.5 0 0 0 .352-.61l-.04-.14a.5.5 0 0 1 -.312.254l-1.918.511a.493.493 0 0 1 -.605-.351zm9.559 1.332-.746 1.289a.494.494 0 0 1 -.676.184l-1.719-.997a.478.478 0 0 1 -.183-.18.494.494 0 0 0 .183.677l1.719.996c.238.136.54.054.676-.184l.746-1.289a.5.5 0 0 0 0-.496zm0 0" fill-opacity=".235"/><path d="m3.227 5.633a.5.5 0 0 0 -.352.61l2.184 8.144a.49.49 0 0 0 .605.351l1.918-.511a.497.497 0 0 0 .352-.61l-2.184-8.144a.497.497 0 0 0 -.61-.352zm2.823 10.543a.5.5 0 0 0 -.352.61l.387 1.437c.07.265.34.422.605.351l1.918-.515a.493.493 0 0 0 .352-.606l-.387-1.437a.495.495 0 0 0 -.605-.352zm6.848-13.012a.493.493 0 0 0 -.605.352l-2.184 8.148a.495.495 0 0 0 .352.606l1.914.515c.266.07.54-.086.61-.351l2.183-8.149a.493.493 0 0 0 -.352-.605zm-2.824 10.543a.493.493 0 0 0 -.605.352l-.387 1.437a.5.5 0 0 0 .352.61l1.914.511c.265.07.539-.086.609-.351l.387-1.438a.493.493 0 0 0 -.352-.605zm8.778-6.574a.495.495 0 0 0 -.676.183l-4.219 7.305a.494.494 0 0 0 .184.676l1.718.992c.239.137.54.059.676-.18l4.219-7.304a.498.498 0 0 0 -.184-.68zm-5.457 9.453a.494.494 0 0 0 -.676.184l-.746 1.289a.494.494 0 0 0 .183.675l1.719.993c.238.136.54.058.676-.18l.746-1.29a.498.498 0 0 0 -.184-.679zm0 0" fill="none" stroke="#212121" stroke-linecap="round" stroke-linejoin="round" stroke-width=".14064"/><path d="m3.473 2.172a.989.989 0 0 0 -.993.992v.254c0-.55.442-.992.993-.992h16.867c.55 0 .996.441.996.992v-.254a.992.992 0 0 0 -.996-.992zm0 0" fill="#fff" fill-opacity=".392"/><path d="m3.473 21.027a.992.992 0 0 1 -.993-.996v-.37c0 .55.442.991.993.991h16.867c.55 0 .996-.441.996-.992v.371c0 .551-.445.996-.996.996zm0 0" fill-opacity=".235"/><path d="m3.473 2.172h16.867c.55 0 .996.445.996.992v16.867c0 .551-.445.996-.996.996h-16.867a.994.994 0 0 1 -.993-.996v-16.867c0-.547.446-.992.993-.992zm0 0" fill="none" stroke="#212121" stroke-linecap="round" stroke-width=".14064"/></svg>