<svg xmlns="http://www.w3.org/2000/svg" width="32" height="32" viewBox="0 0 24 24"><defs><radialGradient id="a" gradientUnits="userSpaceOnUse" cx="450.909" cy="189.579" fx="450.909" fy="189.579" r="21.167" gradientTransform="matrix(0 -.0586 -.10548 0 31.656 47.696)"><stop offset="0" stop-opacity=".314"/><stop offset=".222" stop-opacity=".275"/><stop offset="1" stop-opacity="0"/></radialGradient><radialGradient id="b" gradientUnits="userSpaceOnUse" cx="450.909" cy="189.579" fx="450.909" fy="189.579" r="21.167" gradientTransform="matrix(0 .0586 .10548 0 -7.841 -5.646)"><stop offset="0" stop-opacity=".314"/><stop offset=".222" stop-opacity=".275"/><stop offset="1" stop-opacity="0"/></radialGradient><radialGradient id="c" gradientUnits="userSpaceOnUse" cx="450.909" cy="189.579" fx="450.909" fy="189.579" r="21.167" gradientTransform="matrix(0 -.0586 .10548 0 -7.841 47.696)"><stop offset="0" stop-opacity=".314"/><stop offset=".222" stop-opacity=".275"/><stop offset="1" stop-opacity="0"/></radialGradient><radialGradient id="d" gradientUnits="userSpaceOnUse" cx="450.909" cy="189.579" fx="450.909" fy="189.579" r="21.167" gradientTransform="matrix(0 .0586 -.10548 0 31.656 -5.646)"><stop offset="0" stop-opacity=".314"/><stop offset=".222" stop-opacity=".275"/><stop offset="1" stop-opacity="0"/></radialGradient><linearGradient id="e" gradientUnits="userSpaceOnUse" x1="111.281" y1="164.553" x2="395.656" y2="-119.822" gradientTransform="rotate(-45.001 24.63 6.294) scale(.04688)"><stop offset="0" stop-color="#66bb6a"/><stop offset="1" stop-color="#81c784"/></linearGradient><linearGradient id="f" gradientUnits="userSpaceOnUse" x1="800" y1="1535.118" x2="800" y2="255.118" gradientTransform="scale(.0124)"><stop offset="0" stop-color="#e0e0e0"/><stop offset="1" stop-color="#eee"/></linearGradient></defs><path d="M11.906 21.027h1.985v-.996h-1.985zm0 0" fill="url(#a)"/><path d="M11.906 21.027H9.922v.993h1.984zm0 0" fill="url(#b)"/><path d="M11.906 21.027H9.922v-.996h1.984zm0 0" fill="url(#c)"/><path d="M11.906 21.027h1.985v.993h-1.985zm0 0" fill="url(#d)"/><path d="M2.785 10.863l8.422-8.422a.993.993 0 0 1 1.402 0l8.418 8.422a.986.986 0 0 1 0 1.403l-8.418 8.418a.986.986 0 0 1-1.402 0l-8.422-8.418a.993.993 0 0 1 0-1.403zm0 0" fill="url(#e)"/><path d="M11.906 2.152a.972.972 0 0 0-.699.29l-8.422 8.421a.983.983 0 0 0-.277.856c.031-.203.125-.395.277-.551l8.422-8.418a.986.986 0 0 1 1.402 0l8.418 8.418c.157.156.25.348.282.55a.985.985 0 0 0-.282-.855L12.61 2.441a.987.987 0 0 0-.703-.289zm0 0" fill="#fff" fill-opacity=".392"/><path d="M11.906 20.977a.976.976 0 0 1-.699-.293l-8.422-8.418a.99.99 0 0 1-.277-.856c.031.2.125.39.277.547l8.422 8.418a.986.986 0 0 0 1.402 0l8.418-8.418a.988.988 0 0 0 .282-.547.992.992 0 0 1-.282.856l-8.418 8.418a.991.991 0 0 1-.703.293zm0 0" fill-opacity=".235"/><path d="M2.734 10.813a1.066 1.066 0 0 0 0 1.503l8.422 8.418a1.066 1.066 0 0 0 1.504 0l8.418-8.418a1.066 1.066 0 0 0 0-1.504L12.66 2.392a1.066 1.066 0 0 0-1.504 0zm.102.097l8.418-8.418a.917.917 0 0 1 1.305 0l8.421 8.418c.36.363.36.942 0 1.305l-8.421 8.422a.924.924 0 0 1-1.305 0l-8.418-8.422a.917.917 0 0 1 0-1.305zm0 0" fill="#212121"/><path d="M4.465 3.66a.743.743 0 0 0-.742.746c0 .41.332.742.742.742v12.348c-.016.399.129.805.437 1.113.582.582 1.52.582 2.106 0L20.465 5.15h.375c.41 0 .742-.333.742-.743a.743.743 0 0 0-.742-.746H16.37a.743.743 0 0 0-.742.746c0 .375.273.684.637.735L7.44 13.96V5.148a.744.744 0 1 0 0-1.488zm0 0" fill="url(#f)"/><path d="M4.465 3.66a.743.743 0 0 0-.742.746c0 .04.004.082.007.121a.74.74 0 0 1 .735-.617H7.44a.74.74 0 0 1 .735.617.744.744 0 0 0-.734-.867zm11.906 0a.743.743 0 0 0-.73.867.74.74 0 0 1 .73-.617h4.469a.74.74 0 0 1 .73.617.743.743 0 0 0-.73-.867zm-.3 1.672l-8.63 8.629v.25l8.825-8.82a.808.808 0 0 1-.196-.059zM4.464 17.496v.121zm0 0" fill="#fff" fill-opacity=".784"/><path d="M3.727 4.313c-.004.03-.004.062-.004.093 0 .41.332.742.742.742v-.187a.743.743 0 0 1-.738-.649zm4.453 0a.74.74 0 0 1-.739.648v.187a.743.743 0 0 0 .747-.742c0-.031-.004-.062-.008-.093zm13.394 0a.736.736 0 0 1-.734.648h-.375L7.008 18.42a1.488 1.488 0 0 1-2.106 0 1.488 1.488 0 0 1-.437-.991v.066c-.016.399.129.805.437 1.113.582.582 1.52.582 2.106 0L20.465 5.15h.375c.41 0 .742-.333.742-.743 0-.031-.004-.062-.008-.093zm-5.941 0c-.004.03-.004.062-.004.093 0 .32.203.594.484.696l.153-.149a.742.742 0 0 1-.633-.64zm0 0" fill-opacity=".235"/><path d="M4.465 3.59a.813.813 0 0 0-.813.816.81.81 0 0 0 .743.809v12.281-.004c-.016.418.136.844.457 1.168.609.61 1.593.61 2.203 0L20.496 5.22h.344c.45 0 .812-.364.812-.813a.813.813 0 0 0-.812-.816H16.37a.813.813 0 0 0-.246 1.59l-8.613 8.613V5.215a.813.813 0 0 0 .746-.809.816.816 0 0 0-.817-.816zm0 .14H7.44a.674.674 0 1 1 0 1.348.07.07 0 0 0-.07.07v8.813c0 .031.02.055.043.066a.072.072 0 0 0 .078-.015l8.82-8.82c.02-.02.028-.047.02-.075-.012-.023-.031-.043-.059-.047a.673.673 0 0 1 .098-1.34h4.469c.37 0 .672.301.672.676 0 .371-.301.672-.672.672h-.375a.065.065 0 0 0-.047.02L6.957 18.558a1.412 1.412 0 0 1-2.008 0 1.413 1.413 0 0 1-.414-1.062V5.148a.07.07 0 0 0-.07-.07.67.67 0 0 1-.672-.672.67.67 0 0 1 .672-.676zm0 0" fill="#212121"/></svg>