<svg height="24" viewBox="0 0 24 24" width="24" xmlns="http://www.w3.org/2000/svg" xmlns:xlink="http://www.w3.org/1999/xlink"><linearGradient id="a" gradientTransform="matrix(.0558089 0 0 .0468795 -1.972752 10.079089)" gradientUnits="userSpaceOnUse" x1="254" x2="254" y1="233.5" y2="254.666672"><stop offset="0" stop-opacity=".27451"/><stop offset="1" stop-opacity="0"/></linearGradient><linearGradient id="b"><stop offset="0" stop-opacity=".313726"/><stop offset=".222222" stop-opacity=".27451"/><stop offset="1" stop-opacity="0"/></linearGradient><radialGradient id="c" cx="450.908936" cy="189.579361" gradientTransform="matrix(.00000013 -.0585994 -.105479 -.00000008 37.857636 47.696499)" gradientUnits="userSpaceOnUse" r="21.166656" xlink:href="#b"/><radialGradient id="d" cx="450.908936" cy="189.579361" gradientTransform="matrix(-.00000013 .0585994 .105479 .00000008 -14.042861 -5.645609)" gradientUnits="userSpaceOnUse" r="21.166656" xlink:href="#b"/><radialGradient id="e" cx="450.908936" cy="189.579361" gradientTransform="matrix(-.00000013 -.0585994 .105479 -.00000008 -14.042861 47.696499)" gradientUnits="userSpaceOnUse" r="21.166656" xlink:href="#b"/><radialGradient id="f" cx="450.908936" cy="189.579361" gradientTransform="matrix(.00000013 .0585994 -.105479 .00000008 37.857635 -5.64561)" gradientUnits="userSpaceOnUse" r="21.166656" xlink:href="#b"/><linearGradient id="g" gradientUnits="userSpaceOnUse" x1="11.907393" x2="11.907393" y1="21.02545025" y2="2.17207774998"><stop offset="0" stop-color="#e0e0e0"/><stop offset="1" stop-color="#eee"/></linearGradient><linearGradient id="h"><stop offset="0" stop-color="#81c784"/><stop offset="1" stop-color="#66bb6a"/></linearGradient><linearGradient id="i" gradientUnits="userSpaceOnUse" x1="19.39462197061" x2="19.39462197061" xlink:href="#h" y1="-12.17469092323" y2="6.6786808736"/><linearGradient id="j" gradientUnits="userSpaceOnUse" x1="12.89967593755" x2="12.89967593755" xlink:href="#h" y1="6.26524443751" y2="16.68421293748"/><path d="m5.707031 21.027344h12.402344v.992187h-12.402344zm0 0" fill="url(#a)"/><path d="m18.109375 21.027344h1.984375v-.996094h-1.984375zm0 0" fill="url(#c)"/><path d="m5.707031 21.027344h-1.984375v.992187h1.984375zm0 0" fill="url(#d)"/><path d="m5.707031 21.027344h-1.984375v-.996094h1.984375zm0 0" fill="url(#e)"/><path d="m18.109375 21.027344h1.984375v.992187h-1.984375zm0 0" fill="url(#f)"/><path d="m14.929688 2.171875h-9.96875c-.550782 0-.992188.441406-.992188.992187v16.867188c0 .550781.441406.996094.992188.996094h13.890624c.550782 0 .992188-.445313.992188-.996094v-13.351562zm0 0" fill="url(#g)"/><path d="m14.929688 2.171875 4.914062 4.507813v-3.515626c0-.550781-.441406-.992187-.992188-.992187zm0 0" fill="url(#i)"/><path d="m3.96875 19.785156v.246094c0 .550781.441406.996094.992188.996094h13.890624c.550782 0 .992188-.445313.992188-.996094v-.246094c0 .550782-.441406.992188-.992188.992188h-13.890624c-.550782 0-.992188-.441406-.992188-.992188zm0 0" fill-opacity=".235294"/><path d="m4.960938 2.171875c-.550782 0-.992188.441406-.992188.992187v.496094c0-.550781.441406-.992187.992188-.992187h9.96875l4.914062 4.507812v-.496093l-4.914062-4.507813zm0 0" fill="#fff"/><path d="m14.929688 2.171875.539062.496094h3.382812c.550782 0 .992188.441406.992188.992187v-.496094c0-.550781-.441406-.992187-.992188-.992187zm0 0" fill="#fff" fill-opacity=".392157"/><path d="m14.929688 2.171875 4.914062 4.507813v-.414063l-4.464844-4.09375zm0 0" fill-opacity=".235294"/><path d="m1203.664647 175.101398h-803.70282c-44.405211 0-79.992366 35.587155-79.992366 79.992365v1359.870211c0 44.40521 35.587155 80.307296 79.992366 80.307296h1119.893114c44.405211 0 79.992365-35.902086 79.992365-80.307296v-1076.432696zm0 0" fill="none" stroke="#212121" stroke-linecap="round" stroke-linejoin="round" stroke-width="11.338583" transform="scale(.0124035)"/><path d="m318.469588-168.671091 104.823323 96.157484v-74.992838c0-11.748878-9.415768-21.164646-21.164646-21.164646zm0 0" fill="none" stroke="#212121" stroke-linecap="round" stroke-linejoin="round" stroke-width="3" transform="matrix(.0468795 0 0 .0468795 0 10.079087)"/><path d="m7.691406 8.496094 1.238282 7.445312h.992187l1.488281-6.699218 1.488282 6.699218h.992187c1.738281-2.976562 2.234375-6.203125 2.234375-8.683594l-1.488281.246094c0 2.234375-.03125 4.960938-.992188 7.195313l-1.488281-6.945313-.992188.246094-1.488281 6.699219-1.242187-5.953125.746094-.992188zm0 0" fill="url(#j)"/><path d="m16.125 7.320312-1.488281.246094c0 2.234375-.03125 4.957032-.992188 7.195313l-1.488281-6.945313-.992188.246094-1.488281 6.699219-1.199219-5.757813-.042968.050782 1.242187 5.953124 1.488281-6.695312.992188-.25 1.488281 6.945312c.960938-2.234374.992188-4.960937.992188-7.191406l1.484375-.25c.003906-.082031.003906-.164062.003906-.246094zm-6.945312.496094-1.488282.742188.035156.230468 1.15625-.578124zm0 0" fill="#fff" fill-opacity=".470588"/><path d="m16.125 7.753906h-.007812c-.0625 2.40625-.601563 5.40625-2.226563 8.1875h-.992187l-1.488282-6.699218-1.488281 6.699218h-.992187l-1.164063-6.984375-.074219.035157 1.238282 7.445312h.992187l1.488281-6.699219 1.488282 6.699219h.992187c1.738281-2.976562 2.234375-6.203125 2.234375-8.683594zm-6.945312.496094-.597657.296875-.148437.199219.082031.386718zm0 0" fill-opacity=".235294"/><path d="m164.067666-33.767307 26.414144 158.818167h21.164645l31.746969-142.90302 31.746968 142.90302h21.164646c37.079792-63.493937 47.662115-132.320697 47.662115-185.232311l-31.746969 5.249499c0 47.662115-.666603 105.823227-21.164645 153.485342l-31.746968-148.152518-21.164646 5.249498-31.746968 142.90302-26.49747-126.987873 15.915147-21.164645zm0 0" fill="none" stroke="#212121" stroke-linecap="round" stroke-linejoin="round" stroke-width="3" transform="matrix(.0468795 0 0 .0468795 0 10.079087)"/></svg>