<?xml version="1.0" encoding="UTF-8"?>
<svg xmlns="http://www.w3.org/2000/svg" xmlns:xlink="http://www.w3.org/1999/xlink" width="22px" height="22px" viewBox="0 0 22 22" version="1.1">
<g id="surface1">
<path style=" stroke:none;fill-rule:nonzero;fill:rgb(25.882354%,25.882354%,25.882354%);fill-opacity:1;" d="M 10.914062 20.183594 C 10.664062 20.183594 10.460938 19.980469 10.460938 19.726562 L 10.460938 2.445312 C 10.460938 2.195312 10.664062 1.992188 10.914062 1.992188 C 11.167969 1.992188 11.371094 2.195312 11.371094 2.445312 L 11.371094 19.726562 C 11.371094 19.980469 11.167969 20.183594 10.914062 20.183594 Z M 10.914062 20.183594 "/>
<path style=" stroke:none;fill-rule:nonzero;fill:rgb(25.882354%,25.882354%,25.882354%);fill-opacity:1;" d="M 20.011719 13.816406 C 20.011719 12.808594 19.199219 11.996094 18.191406 11.996094 L 15.464844 11.996094 C 14.457031 11.996094 13.644531 12.808594 13.644531 13.816406 L 13.644531 16.542969 C 13.644531 17.550781 14.457031 18.363281 15.464844 18.363281 L 18.191406 18.363281 C 19.199219 18.363281 20.011719 17.550781 20.011719 16.542969 Z M 18.191406 14.269531 L 18.191406 16.089844 C 18.191406 16.339844 17.988281 16.542969 17.738281 16.542969 L 15.917969 16.542969 C 15.664062 16.542969 15.464844 16.339844 15.464844 16.089844 L 15.464844 14.269531 C 15.464844 14.019531 15.664062 13.816406 15.917969 13.816406 L 17.738281 13.816406 C 17.988281 13.816406 18.191406 14.019531 18.191406 14.269531 Z M 18.191406 14.269531 "/>
<path style=" stroke:none;fill-rule:nonzero;fill:rgb(25.882354%,25.882354%,25.882354%);fill-opacity:1;" d="M 20.011719 5.628906 C 20.011719 4.621094 19.199219 3.808594 18.191406 3.808594 L 14.554688 3.808594 C 13.546875 3.808594 12.734375 4.621094 12.734375 5.628906 L 12.734375 8.359375 C 12.734375 9.367188 13.546875 10.175781 14.554688 10.175781 L 18.191406 10.175781 C 19.199219 10.175781 20.011719 9.367188 20.011719 8.359375 Z M 18.191406 6.085938 L 18.191406 7.902344 C 18.191406 8.15625 17.988281 8.359375 17.738281 8.359375 L 15.007812 8.359375 C 14.757812 8.359375 14.554688 8.15625 14.554688 7.902344 L 14.554688 6.085938 C 14.554688 5.832031 14.757812 5.628906 15.007812 5.628906 L 17.738281 5.628906 C 17.988281 5.628906 18.191406 5.832031 18.191406 6.085938 Z M 18.191406 6.085938 "/>
<path style=" stroke:none;fill-rule:nonzero;fill:rgb(25.882354%,25.882354%,25.882354%);fill-opacity:1;" d="M 7.277344 18.363281 C 8.285156 18.363281 9.097656 17.550781 9.097656 16.542969 L 9.097656 12.90625 C 9.097656 11.898438 8.285156 11.085938 7.277344 11.085938 L 4.546875 11.085938 C 3.539062 11.085938 2.730469 11.898438 2.730469 12.90625 L 2.730469 16.542969 C 2.730469 17.550781 3.539062 18.363281 4.546875 18.363281 Z M 7.277344 18.363281 "/>
</g>
</svg>
