<?xml version="1.0" encoding="UTF-8"?>
<svg xmlns="http://www.w3.org/2000/svg" xmlns:xlink="http://www.w3.org/1999/xlink" width="22pt" height="22pt" viewBox="0 0 22 22" version="1.1">
<g id="surface1">
<path style=" stroke:none;fill-rule:nonzero;fill:rgb(47.058824%,56.470591%,61.176473%);fill-opacity:1;" d="M 6.367188 9.269531 L 6.367188 12.960938 L 4.546875 12.960938 L 4.546875 9.269531 Z M 6.367188 9.269531 "/>
<path style=" stroke:none;fill-rule:nonzero;fill:rgb(47.058824%,56.470591%,61.176473%);fill-opacity:1;" d="M 17.28125 6.539062 L 9.953125 6.539062 L 9.953125 4.71875 L 17.28125 4.71875 Z M 17.28125 6.539062 "/>
<path style=" stroke:none;fill-rule:nonzero;fill:rgb(47.058824%,56.470591%,61.176473%);fill-opacity:1;" d="M 15.464844 12.960938 L 15.464844 6.539062 L 17.28125 6.539062 L 17.28125 12.960938 Z M 15.464844 12.960938 "/>
<path style=" stroke:none;fill-rule:nonzero;fill:rgb(25.882354%,25.882354%,25.882354%);fill-opacity:1;" d="M 3.183594 1.992188 C 2.425781 1.992188 1.820312 2.597656 1.820312 3.355469 L 1.820312 7.902344 C 1.820312 8.660156 2.425781 9.269531 3.183594 9.269531 L 8.640625 9.269531 C 9.398438 9.269531 10.003906 8.660156 10.003906 7.902344 L 10.003906 3.355469 C 10.003906 2.597656 9.398438 1.992188 8.640625 1.992188 Z M 4.09375 3.355469 L 7.730469 3.355469 C 8.234375 3.355469 8.640625 3.761719 8.640625 4.265625 L 8.640625 6.992188 C 8.640625 7.496094 8.234375 7.902344 7.730469 7.902344 L 4.09375 7.902344 C 3.589844 7.902344 3.183594 7.496094 3.183594 6.992188 L 3.183594 4.265625 C 3.183594 3.761719 3.589844 3.355469 4.09375 3.355469 Z M 4.09375 3.355469 "/>
<path style=" stroke:none;fill-rule:nonzero;fill:rgb(25.882354%,25.882354%,25.882354%);fill-opacity:1;" d="M 3.183594 12.90625 C 2.425781 12.90625 1.820312 13.515625 1.820312 14.269531 L 1.820312 18.820312 C 1.820312 19.574219 2.425781 20.183594 3.183594 20.183594 L 7.730469 20.183594 C 8.488281 20.183594 9.097656 19.574219 9.097656 18.820312 L 9.097656 14.269531 C 9.097656 13.515625 8.488281 12.90625 7.730469 12.90625 Z M 4.09375 14.269531 L 6.820312 14.269531 C 7.324219 14.269531 7.730469 14.675781 7.730469 15.179688 L 7.730469 17.910156 C 7.730469 18.414062 7.324219 18.820312 6.820312 18.820312 L 4.09375 18.820312 C 3.589844 18.820312 3.183594 18.414062 3.183594 17.910156 L 3.183594 15.179688 C 3.183594 14.675781 3.589844 14.269531 4.09375 14.269531 Z M 4.09375 14.269531 "/>
<path style=" stroke:none;fill-rule:nonzero;fill:rgb(25.882354%,25.882354%,25.882354%);fill-opacity:1;" d="M 14.097656 12.90625 C 13.34375 12.90625 12.734375 13.515625 12.734375 14.269531 L 12.734375 18.820312 C 12.734375 19.574219 13.34375 20.183594 14.097656 20.183594 L 18.648438 20.183594 C 19.402344 20.183594 20.011719 19.574219 20.011719 18.820312 L 20.011719 14.269531 C 20.011719 13.515625 19.402344 12.90625 18.648438 12.90625 Z M 15.007812 14.269531 L 17.738281 14.269531 C 18.242188 14.269531 18.648438 14.675781 18.648438 15.179688 L 18.648438 17.910156 C 18.648438 18.414062 18.242188 18.820312 17.738281 18.820312 L 15.007812 18.820312 C 14.503906 18.820312 14.097656 18.414062 14.097656 17.910156 L 14.097656 15.179688 C 14.097656 14.675781 14.503906 14.269531 15.007812 14.269531 Z M 15.007812 14.269531 "/>
</g>
</svg>
