<?xml version="1.0" encoding="UTF-8"?>
<svg xmlns="http://www.w3.org/2000/svg" xmlns:xlink="http://www.w3.org/1999/xlink" width="22pt" height="22pt" viewBox="0 0 22 22" version="1.1">
<g id="surface1">
<path style=" stroke:none;fill-rule:nonzero;fill:rgb(25.882354%,25.882354%,25.882354%);fill-opacity:1;" d="M 8.1875 1.992188 L 13.644531 1.992188 C 14.398438 1.992188 15.007812 2.601562 15.007812 3.355469 L 15.007812 8.8125 C 15.007812 9.566406 14.398438 10.175781 13.644531 10.175781 L 8.1875 10.175781 C 7.433594 10.175781 6.820312 9.566406 6.820312 8.8125 L 6.820312 3.355469 C 6.820312 2.601562 7.433594 1.992188 8.1875 1.992188 Z M 8.1875 1.992188 "/>
<path style=" stroke:none;fill-rule:nonzero;fill:rgb(25.882354%,25.882354%,25.882354%);fill-opacity:1;" d="M 3.183594 11.996094 L 8.640625 11.996094 C 9.394531 11.996094 10.003906 12.609375 10.003906 13.359375 L 10.003906 18.820312 C 10.003906 19.570312 9.394531 20.183594 8.640625 20.183594 L 3.183594 20.183594 C 2.429688 20.183594 1.820312 19.570312 1.820312 18.820312 L 1.820312 13.359375 C 1.820312 12.609375 2.429688 11.996094 3.183594 11.996094 Z M 3.183594 11.996094 "/>
<path style=" stroke:none;fill-rule:nonzero;fill:rgb(25.882354%,25.882354%,25.882354%);fill-opacity:1;" d="M 13.1875 11.996094 L 18.648438 11.996094 C 19.398438 11.996094 20.011719 12.609375 20.011719 13.359375 L 20.011719 18.820312 C 20.011719 19.570312 19.398438 20.183594 18.648438 20.183594 L 13.1875 20.183594 C 12.4375 20.183594 11.824219 19.570312 11.824219 18.820312 L 11.824219 13.359375 C 11.824219 12.609375 12.4375 11.996094 13.1875 11.996094 Z M 13.1875 11.996094 "/>
</g>
</svg>
