<svg xmlns="http://www.w3.org/2000/svg" width="22pt" height="22pt" viewBox="0 0 22 22"><path d="M10.914 1.082H4.547a1.814 1.814 0 0 0-1.817 1.82v16.371c0 1.008.81 1.82 1.817 1.82H17.28c1.008 0 1.82-.812 1.82-1.82V8.36a.68.68 0 0 0-.199-.484L12.31 1.281a.686.686 0 0 0-.485-.199zm-5.91 1.363h5.902V7.36c0 1.008.813 1.82 1.82 1.82h5.012v9.641a.905.905 0 0 1-.91.907H5.004a.905.905 0 0 1-.91-.907V3.355c0-.503.406-.91.91-.91zm7.266.73l4.644 4.641H13.18a.909.909 0 0 1-.91-.91zm0 0" fill="#424242"/><path d="M6.14 11.996h9.551a.681.681 0 0 1 0 1.363h-9.55a.681.681 0 1 1 0-1.363zm0 0" fill="#ab47bc"/><path d="M8.414 10.633c.375 0 .684.305.684.68v2.73a.684.684 0 0 1-1.368 0v-2.73c0-.376.305-.68.684-.68zm0 0M6.14 16.09h9.551a.681.681 0 0 1 0 1.363h-9.55a.681.681 0 1 1 0-1.363zm0 0" fill="#ab47bc"/><path d="M13.418 14.727a.68.68 0 0 1 .68.68v2.73a.684.684 0 0 1-.68.683.684.684 0 0 1-.684-.683v-2.73c0-.376.305-.68.684-.68zm0 0" fill="#ab47bc"/></svg>