<svg height="22" viewBox="0 0 22 22" width="22" xmlns="http://www.w3.org/2000/svg"><path d="m8.1875 2.90625c-.5 0-.90625.402344-.90625.902344 0 1.746094-.246094 2.601562-.644531 3-.398438.398437-1.253907.644531-3 .644531-.5 0-.902344.40625-.902344.90625v5.457031c0 .5.402344.90625.902344.90625 1.746093 0 2.601562.246094 3 .644532.398437.394531.644531 1.253906.644531 2.996093 0 .5.40625.90625.90625.90625h5.457031c.5 0 .90625-.40625.90625-.90625 0-1.742187.246094-2.601562.644531-2.996093.394532-.398438 1.253907-.644532 2.996094-.644532.5 0 .90625-.40625.90625-.90625v-5.457031c0-.5-.40625-.90625-.90625-.90625-1.742187 0-2.601562-.246094-2.996094-.644531-.398437-.398438-.644531-1.253906-.644531-3 0-.5-.40625-.902344-.90625-.902344zm.882812 1.808594h3.691407c.070312 1.445312.347656 2.570312 1.152343 3.375.804688.804687 1.925782 1.078125 3.371094 1.152344v3.691406c-1.445312.070312-2.566406.347656-3.371094 1.152344-.804687.804687-1.082031 1.925781-1.152343 3.371093h-3.691407c-.074218-1.445312-.347656-2.566406-1.152343-3.371093-.804688-.804688-1.929688-1.082032-3.375-1.152344v-3.691406c1.445312-.074219 2.570312-.347657 3.375-1.152344.804687-.804688 1.078125-1.929688 1.152343-3.375zm0 0" fill="#424242"/></svg>