
<svg xmlns="http://www.w3.org/2000/svg" xmlns:xlink="http://www.w3.org/1999/xlink" width="22px" height="22px" viewBox="0 0 22 22" version="1.1">
<g id="surface1">
<defs>
  <style id="current-color-scheme" type="text/css">
   .ColorScheme-Text { color:#424242; } .ColorScheme-Highlight { color:#eeeeee; }
  </style>
 </defs>
<path style="fill:currentColor" class="ColorScheme-Text" d="M 2.75 5.5 C 2.75 3.976562 3.976562 2.75 5.5 2.75 L 16.5 2.75 C 18.023438 2.75 19.25 3.976562 19.25 5.5 L 19.25 13.75 L 17.875 13.75 L 17.875 8.25 L 15.125 8.25 L 15.125 13.75 L 13.75 13.75 L 13.75 8.25 L 8.25 8.25 L 8.25 13.75 L 6.875 13.75 L 6.875 8.25 L 4.125 8.25 L 4.125 13.75 L 5.5 13.75 L 5.5 15.125 L 4.125 15.125 L 4.125 16.5 C 4.125 17.261719 4.738281 17.875 5.5 17.875 L 5.5 19.25 C 3.976562 19.25 2.75 18.023438 2.75 16.5 Z M 4.125 5.5 L 4.125 6.875 L 6.875 6.875 L 6.875 4.125 L 5.5 4.125 C 4.738281 4.125 4.125 4.738281 4.125 5.5 Z M 8.25 4.125 L 8.25 6.875 L 13.75 6.875 L 13.75 4.125 Z M 15.125 4.125 L 15.125 6.875 L 17.875 6.875 L 17.875 5.5 C 17.875 4.738281 17.261719 4.125 16.5 4.125 Z M 15.125 16.5 L 16.5 16.5 L 16.5 15.125 L 17.875 15.125 L 17.875 16.5 L 19.25 16.5 L 19.25 17.875 L 17.875 17.875 L 17.875 19.25 L 16.5 19.25 L 16.5 17.875 L 15.125 17.875 Z M 15.125 16.5 "/>
<path style=" stroke:none;fill-rule:nonzero;fill:rgb(95.686275%,26.274511%,21.176471%);fill-opacity:1;" d="M 13.75 13.75 L 5.5 13.75 L 5.5 15.125 L 6.875 17.875 L 5.5 17.875 L 5.5 19.25 L 13.75 19.25 L 13.75 17.875 L 12.375 15.125 L 13.75 15.125 Z M 12.375 17.875 L 11 17.875 L 9.625 15.125 L 11 15.125 Z M 9.625 17.875 L 8.25 17.875 L 6.875 15.125 L 8.25 15.125 Z M 9.625 17.875 "/>
</g>
</svg>
