<?xml version="1.0" encoding="UTF-8"?>
<svg xmlns="http://www.w3.org/2000/svg" xmlns:xlink="http://www.w3.org/1999/xlink" width="22pt" height="22pt" viewBox="0 0 22 22" version="1.1">
<defs>
<filter id="alpha" filterUnits="objectBoundingBox" x="0%" y="0%" width="100%" height="100%">
  <feColorMatrix type="matrix" in="SourceGraphic" values="0 0 0 0 1 0 0 0 0 1 0 0 0 0 1 0 0 0 1 0"/>
</filter>
<mask id="mask0">
  <g filter="url(#alpha)">
<rect x="0" y="0" width="22" height="22" style="fill:rgb(0%,0%,0%);fill-opacity:0.988235;stroke:none;"/>
  </g>
</mask>
<clipPath id="clip1">
  <rect x="0" y="0" width="22" height="22"/>
</clipPath>
<g id="surface5" clip-path="url(#clip1)">
<path style=" stroke:none;fill-rule:nonzero;fill:rgb(25.882354%,25.882354%,25.882354%);fill-opacity:1;" d="M 1.820312 10.175781 C 1.820312 5.136719 5.875 1.082031 10.914062 1.082031 C 15.953125 1.082031 20.011719 5.136719 20.011719 10.175781 L 20.011719 10.683594 C 20.011719 10.707031 20.007812 10.730469 20.003906 10.753906 C 20.007812 10.789062 20.011719 10.824219 20.011719 10.859375 C 20.011719 11.363281 19.65625 11.769531 19.214844 11.769531 L 18.988281 11.769531 C 18.546875 11.769531 18.191406 11.363281 18.191406 10.859375 C 18.191406 10.824219 18.195312 10.785156 18.195312 10.75 C 18.195312 10.730469 18.191406 10.707031 18.191406 10.683594 L 18.191406 10.175781 C 18.191406 6.144531 14.945312 2.902344 10.914062 2.902344 C 6.882812 2.902344 3.636719 6.144531 3.636719 10.175781 C 3.636719 13.742188 6.175781 16.691406 9.550781 17.328125 L 9.550781 19.171875 C 5.164062 18.519531 1.820312 14.753906 1.820312 10.175781 Z M 1.820312 10.175781 "/>
</g>
</defs>
<g id="surface1">
<use xlink:href="#surface5" mask="url(#mask0)"/>
<path style=" stroke:none;fill-rule:evenodd;fill:rgb(40.000001%,73.333335%,41.568628%);fill-opacity:1;" d="M 11.386719 15.636719 C 10.878906 15.625 10.460938 16.035156 10.460938 16.542969 L 10.460938 20.183594 C 10.460938 20.882812 11.214844 21.320312 11.820312 20.972656 L 15.003906 19.152344 C 15.617188 18.804688 15.617188 17.921875 15.003906 17.574219 L 11.820312 15.753906 C 11.6875 15.679688 11.539062 15.636719 11.386719 15.636719 Z M 11.386719 15.636719 "/>
</g>
</svg>
