<?xml version="1.0" encoding="UTF-8"?>
<svg xmlns="http://www.w3.org/2000/svg" xmlns:xlink="http://www.w3.org/1999/xlink" width="22px" height="22px" viewBox="0 0 22 22" version="1.1">
<g id="surface1">
<path style=" stroke:none;fill-rule:nonzero;fill:rgb(25.882354%,25.882354%,25.882354%);fill-opacity:1;" d="M 10.914062 1.992188 C 8.394531 1.992188 6.367188 4.019531 6.367188 6.539062 C 6.367188 9.058594 8.394531 11.085938 10.914062 11.085938 C 13.433594 11.085938 15.464844 9.058594 15.464844 6.539062 C 15.464844 4.019531 13.433594 1.992188 10.914062 1.992188 Z M 10.914062 3.808594 C 12.425781 3.808594 13.644531 5.027344 13.644531 6.539062 C 13.644531 8.050781 12.425781 9.269531 10.914062 9.269531 C 9.402344 9.269531 8.1875 8.050781 8.1875 6.539062 C 8.1875 5.027344 9.402344 3.808594 10.914062 3.808594 Z M 10.914062 3.808594 "/>
<path style=" stroke:none;fill-rule:nonzero;fill:rgb(25.882354%,25.882354%,25.882354%);fill-opacity:1;" d="M 7.726562 11.546875 C 7.636719 11.546875 7.542969 11.5625 7.457031 11.589844 C 6.851562 11.78125 5.753906 12.015625 4.746094 12.554688 C 3.738281 13.097656 2.734375 14.136719 2.734375 15.636719 L 2.734375 17 L 2.730469 17 L 2.730469 18.363281 C 2.730469 19.371094 3.539062 20.183594 4.546875 20.183594 L 12.734375 20.183594 L 12.734375 18.363281 L 5.457031 18.363281 C 4.953125 18.363281 4.546875 17.957031 4.546875 17.453125 L 4.546875 17 L 4.542969 17 L 4.542969 15.636719 C 4.542969 14.859375 4.902344 14.523438 5.601562 14.152344 C 6.214844 13.820312 7.007812 13.613281 7.710938 13.402344 C 9.90625 14.210938 11.925781 14.210938 14.121094 13.402344 C 14.160156 13.414062 14.199219 13.425781 14.238281 13.433594 L 16.40625 12.230469 C 15.613281 11.90625 14.84375 11.734375 14.363281 11.585938 C 14.277344 11.558594 14.1875 11.546875 14.097656 11.546875 C 13.980469 11.546875 13.867188 11.566406 13.761719 11.609375 C 11.644531 12.457031 10.1875 12.457031 8.066406 11.609375 C 7.957031 11.566406 7.84375 11.546875 7.726562 11.546875 Z M 7.726562 11.546875 "/>
<path style=" stroke:none;fill-rule:nonzero;fill:rgb(25.882354%,25.882354%,25.882354%);fill-opacity:1;" d="M 14.097656 16.089844 L 19.554688 16.089844 C 19.808594 16.089844 20.011719 16.292969 20.011719 16.542969 L 20.011719 17.453125 C 20.011719 17.707031 19.808594 17.910156 19.554688 17.910156 L 14.097656 17.910156 C 13.847656 17.910156 13.644531 17.707031 13.644531 17.453125 L 13.644531 16.542969 C 13.644531 16.292969 13.847656 16.089844 14.097656 16.089844 Z M 14.097656 16.089844 "/>
<path style=" stroke:none;fill-rule:nonzero;fill:rgb(25.882354%,25.882354%,25.882354%);fill-opacity:1;" d="M 17.738281 14.269531 L 17.738281 19.726562 C 17.738281 19.980469 17.535156 20.183594 17.28125 20.183594 L 16.371094 20.183594 C 16.121094 20.183594 15.917969 19.980469 15.917969 19.726562 L 15.917969 14.269531 C 15.917969 14.019531 16.121094 13.816406 16.371094 13.816406 L 17.28125 13.816406 C 17.535156 13.816406 17.738281 14.019531 17.738281 14.269531 Z M 17.738281 14.269531 "/>
</g>
</svg>
