<?xml version="1.0" encoding="UTF-8"?>
<svg xmlns="http://www.w3.org/2000/svg" xmlns:xlink="http://www.w3.org/1999/xlink" width="22px" height="22px" viewBox="0 0 22 22" version="1.1">
<g id="surface1">
<path style=" stroke:none;fill-rule:nonzero;fill:rgb(25.882354%,25.882354%,25.882354%);fill-opacity:1;" d="M 19.554688 4.71875 L 2.273438 4.71875 C 2.023438 4.71875 1.820312 4.515625 1.820312 4.265625 L 1.820312 3.355469 C 1.820312 3.105469 2.023438 2.902344 2.273438 2.902344 L 19.554688 2.902344 C 19.808594 2.902344 20.011719 3.105469 20.011719 3.355469 L 20.011719 4.265625 C 20.011719 4.515625 19.808594 4.71875 19.554688 4.71875 Z M 19.554688 4.71875 "/>
<path style=" stroke:none;fill-rule:nonzero;fill:rgb(25.882354%,25.882354%,25.882354%);fill-opacity:1;" d="M 16.828125 19.726562 L 5.003906 19.726562 C 4.75 19.726562 4.546875 19.523438 4.546875 19.273438 L 4.546875 18.363281 C 4.546875 18.113281 4.75 17.910156 5.003906 17.910156 L 16.828125 17.910156 C 17.078125 17.910156 17.28125 18.113281 17.28125 18.363281 L 17.28125 19.273438 C 17.28125 19.523438 17.078125 19.726562 16.828125 19.726562 Z M 16.828125 19.726562 "/>
<path style=" stroke:none;fill-rule:nonzero;fill:rgb(25.882354%,25.882354%,25.882354%);fill-opacity:1;" d="M 16.828125 14.726562 L 5.003906 14.726562 C 4.75 14.726562 4.546875 14.523438 4.546875 14.269531 L 4.546875 13.359375 C 4.546875 13.109375 4.75 12.90625 5.003906 12.90625 L 16.828125 12.90625 C 17.078125 12.90625 17.28125 13.109375 17.28125 13.359375 L 17.28125 14.269531 C 17.28125 14.523438 17.078125 14.726562 16.828125 14.726562 Z M 16.828125 14.726562 "/>
<path style=" stroke:none;fill-rule:nonzero;fill:rgb(25.882354%,25.882354%,25.882354%);fill-opacity:1;" d="M 16.828125 9.722656 L 5.003906 9.722656 C 4.75 9.722656 4.546875 9.519531 4.546875 9.269531 L 4.546875 8.359375 C 4.546875 8.105469 4.75 7.902344 5.003906 7.902344 L 16.828125 7.902344 C 17.078125 7.902344 17.28125 8.105469 17.28125 8.359375 L 17.28125 9.269531 C 17.28125 9.519531 17.078125 9.722656 16.828125 9.722656 Z M 16.828125 9.722656 "/>
</g>
</svg>
