<?xml version="1.0" encoding="UTF-8"?>
<svg xmlns="http://www.w3.org/2000/svg" xmlns:xlink="http://www.w3.org/1999/xlink" width="22pt" height="22pt" viewBox="0 0 22 22" version="1.1">
<g id="surface1">
<path style=" stroke:none;fill-rule:nonzero;fill:rgb(93.725491%,32.549021%,31.37255%);fill-opacity:1;" d="M 2.730469 6.539062 L 8.1875 6.539062 C 9.191406 6.539062 10.003906 7.351562 10.003906 8.359375 L 10.003906 13.816406 C 10.003906 14.820312 9.191406 15.636719 8.1875 15.636719 L 2.730469 15.636719 C 1.722656 15.636719 0.910156 14.820312 0.910156 13.816406 L 0.910156 8.359375 C 0.910156 7.351562 1.722656 6.539062 2.730469 6.539062 Z M 2.730469 6.539062 "/>
<path style=" stroke:none;fill-rule:nonzero;fill:rgb(93.725491%,32.549021%,31.37255%);fill-opacity:1;" d="M 13.644531 6.539062 L 19.101562 6.539062 C 20.105469 6.539062 20.921875 7.351562 20.921875 8.359375 L 20.921875 13.816406 C 20.921875 14.820312 20.105469 15.636719 19.101562 15.636719 L 13.644531 15.636719 C 12.640625 15.636719 11.824219 14.820312 11.824219 13.816406 L 11.824219 8.359375 C 11.824219 7.351562 12.640625 6.539062 13.644531 6.539062 Z M 13.644531 6.539062 "/>
</g>
</svg>
