<svg height="22" viewBox="0 0 22 22" width="22" xmlns="http://www.w3.org/2000/svg"><g fill="#424242"><path d="m3.636719 3.808594c-1.007813 0-1.816407.8125-1.816407 1.820312v10.914063c0 1.007812.808594 1.820312 1.816407 1.820312h8.1875v-1.820312h-7.277344c-.503906 0-.910156-.402344-.910156-.90625v-9.097657c0-.503906.40625-.910156.910156-.910156h12.734375c.503906 0 .910156.40625.910156.910156v3.636719h1.820313v-4.546875c0-1.007812-.8125-1.820312-1.820313-1.820312zm0 0"/><path d="m3.332031 4.042969-1.203125 1.351562 8.183594 7.277344c.34375.304687.859375.304687 1.203125 0l8.1875-7.277344-1.203125-1.351562-7.585938 6.742187zm0 0"/><path d="m19.554688 16.089844h-5.457032c-.25 0-.453125-.203125-.453125-.453125v-.910157c0-.253906.203125-.457031.453125-.457031h5.457032c.253906 0 .457031.203125.457031.457031v.910157c0 .25-.203125.453125-.457031.453125zm0 0"/><path d="m15.917969 17.910156v-5.457031c0-.253906.203125-.457031.453125-.457031h.910156c.253906 0 .457031.203125.457031.457031v5.457031c0 .25-.203125.453125-.457031.453125h-.910156c-.25 0-.453125-.203125-.453125-.453125zm0 0"/></g></svg>