<?xml version="1.0" encoding="UTF-8"?>
<svg xmlns="http://www.w3.org/2000/svg" xmlns:xlink="http://www.w3.org/1999/xlink" width="22px" height="22px" viewBox="0 0 22 22" version="1.1">
<g id="surface1">
<path style=" stroke:none;fill-rule:nonzero;fill:rgb(25.882354%,25.882354%,25.882354%);fill-opacity:1;" d="M 5.457031 18.363281 L 5.457031 13.816406 L 1.820312 16.089844 Z M 5.457031 18.363281 "/>
<path style=" stroke:none;fill-rule:nonzero;fill:rgb(25.882354%,25.882354%,25.882354%);fill-opacity:1;" d="M 10.460938 15.179688 L 8.867188 15.179688 C 8.617188 15.179688 8.414062 15.382812 8.414062 15.636719 L 8.414062 16.542969 C 8.414062 16.796875 8.617188 17 8.867188 17 L 10.460938 17 C 10.710938 17 10.914062 16.796875 10.914062 16.542969 L 10.914062 15.636719 C 10.914062 15.382812 10.710938 15.179688 10.460938 15.179688 Z M 10.460938 15.179688 "/>
<path style=" stroke:none;fill-rule:nonzero;fill:rgb(25.882354%,25.882354%,25.882354%);fill-opacity:1;" d="M 9.09375 18.363281 L 9.09375 13.816406 L 5.457031 16.089844 Z M 9.09375 18.363281 "/>
<path style=" stroke:none;fill-rule:nonzero;fill:rgb(25.882354%,25.882354%,25.882354%);fill-opacity:1;" d="M 3.636719 3.808594 L 18.191406 3.808594 C 19.199219 3.808594 20.011719 4.621094 20.011719 5.628906 L 20.011719 16.542969 C 20.011719 17.550781 19.199219 18.363281 18.191406 18.363281 L 12.734375 18.363281 L 12.734375 16.542969 L 17.28125 16.542969 C 17.785156 16.542969 18.191406 16.140625 18.191406 15.636719 L 18.191406 6.738281 L 11.515625 12.671875 C 11.171875 12.976562 10.65625 12.976562 10.3125 12.671875 L 3.636719 6.738281 L 3.636719 11.996094 L 1.820312 11.996094 L 1.820312 5.628906 C 1.820312 4.621094 2.628906 3.808594 3.636719 3.808594 Z M 16.714844 5.628906 L 5.113281 5.628906 L 10.914062 10.785156 Z M 16.714844 5.628906 "/>
</g>
</svg>
