<?xml version="1.0" encoding="UTF-8"?>
<svg xmlns="http://www.w3.org/2000/svg" xmlns:xlink="http://www.w3.org/1999/xlink" width="22px" height="22px" viewBox="0 0 22 22" version="1.1">
<g id="surface1">
<path style=" stroke:none;fill-rule:nonzero;fill:rgb(25.882354%,25.882354%,25.882354%);fill-opacity:1;" d="M 3.636719 1.992188 C 2.628906 1.992188 1.820312 2.800781 1.820312 3.808594 L 1.820312 18.363281 C 1.820312 19.371094 2.628906 20.183594 3.636719 20.183594 L 11.824219 20.183594 L 11.824219 18.363281 L 4.546875 18.363281 C 4.042969 18.363281 3.636719 17.957031 3.636719 17.453125 L 3.636719 4.71875 C 3.636719 4.214844 4.042969 3.808594 4.546875 3.808594 L 17.28125 3.808594 C 17.785156 3.808594 18.191406 4.214844 18.191406 4.71875 L 18.191406 11.996094 L 20.011719 11.996094 L 20.011719 3.808594 C 20.011719 2.800781 19.199219 1.992188 18.191406 1.992188 Z M 3.636719 1.992188 "/>
<path style=" stroke:none;fill-rule:nonzero;fill:rgb(25.882354%,25.882354%,25.882354%);fill-opacity:1;" d="M 15.464844 4.71875 C 15.964844 4.71875 16.371094 5.128906 16.371094 5.628906 C 16.371094 6.132812 15.964844 6.539062 15.464844 6.539062 C 14.960938 6.539062 14.554688 6.132812 14.554688 5.628906 C 14.554688 5.128906 14.960938 4.71875 15.464844 4.71875 Z M 15.464844 4.71875 "/>
<path style=" stroke:none;fill-rule:nonzero;fill:rgb(25.882354%,25.882354%,25.882354%);fill-opacity:1;" d="M 2.730469 7.449219 L 19.101562 7.449219 L 19.101562 8.359375 L 2.730469 8.359375 Z M 2.730469 7.449219 "/>
<path style=" stroke:none;fill-rule:nonzero;fill:rgb(25.882354%,25.882354%,25.882354%);fill-opacity:1;" d="M 6.367188 4.71875 C 6.871094 4.71875 7.277344 5.128906 7.277344 5.628906 C 7.277344 6.132812 6.871094 6.539062 6.367188 6.539062 C 5.863281 6.539062 5.457031 6.132812 5.457031 5.628906 C 5.457031 5.128906 5.863281 4.71875 6.367188 4.71875 Z M 6.367188 4.71875 "/>
<path style=" stroke:none;fill-rule:nonzero;fill:rgb(25.882354%,25.882354%,25.882354%);fill-opacity:1;" d="M 14.097656 13.816406 L 19.554688 13.816406 C 19.808594 13.816406 20.011719 14.019531 20.011719 14.269531 L 20.011719 15.179688 C 20.011719 15.429688 19.808594 15.636719 19.554688 15.636719 L 14.097656 15.636719 C 13.847656 15.636719 13.644531 15.429688 13.644531 15.179688 L 13.644531 14.269531 C 13.644531 14.019531 13.847656 13.816406 14.097656 13.816406 Z M 14.097656 13.816406 "/>
<path style=" stroke:none;fill-rule:nonzero;fill:rgb(25.882354%,25.882354%,25.882354%);fill-opacity:1;" d="M 15.464844 14.269531 L 15.464844 19.726562 C 15.464844 19.980469 15.257812 20.183594 15.007812 20.183594 L 14.097656 20.183594 C 13.847656 20.183594 13.644531 19.980469 13.644531 19.726562 L 13.644531 14.269531 C 13.644531 14.019531 13.847656 13.816406 14.097656 13.816406 L 15.007812 13.816406 C 15.257812 13.816406 15.464844 14.019531 15.464844 14.269531 Z M 15.464844 14.269531 "/>
<path style=" stroke:none;fill-rule:nonzero;fill:rgb(25.882354%,25.882354%,25.882354%);fill-opacity:1;" d="M 5.683594 10.175781 L 6.59375 10.175781 C 6.847656 10.175781 7.050781 10.382812 7.050781 10.632812 L 7.050781 11.542969 C 7.050781 11.792969 6.847656 11.996094 6.59375 11.996094 L 5.683594 11.996094 C 5.433594 11.996094 5.230469 11.792969 5.230469 11.542969 L 5.230469 10.632812 C 5.230469 10.382812 5.433594 10.175781 5.683594 10.175781 Z M 5.683594 10.175781 "/>
<path style=" stroke:none;fill-rule:nonzero;fill:rgb(25.882354%,25.882354%,25.882354%);fill-opacity:1;" d="M 8.867188 10.175781 L 9.777344 10.175781 C 10.027344 10.175781 10.234375 10.382812 10.234375 10.632812 L 10.234375 11.542969 C 10.234375 11.792969 10.027344 11.996094 9.777344 11.996094 L 8.867188 11.996094 C 8.617188 11.996094 8.414062 11.792969 8.414062 11.542969 L 8.414062 10.632812 C 8.414062 10.382812 8.617188 10.175781 8.867188 10.175781 Z M 8.867188 10.175781 "/>
<path style=" stroke:none;fill-rule:nonzero;fill:rgb(25.882354%,25.882354%,25.882354%);fill-opacity:1;" d="M 12.050781 10.175781 L 12.960938 10.175781 C 13.210938 10.175781 13.417969 10.382812 13.417969 10.632812 L 13.417969 11.542969 C 13.417969 11.792969 13.210938 11.996094 12.960938 11.996094 L 12.050781 11.996094 C 11.800781 11.996094 11.597656 11.792969 11.597656 11.542969 L 11.597656 10.632812 C 11.597656 10.382812 11.800781 10.175781 12.050781 10.175781 Z M 12.050781 10.175781 "/>
<path style=" stroke:none;fill-rule:nonzero;fill:rgb(25.882354%,25.882354%,25.882354%);fill-opacity:1;" d="M 15.234375 10.175781 L 16.144531 10.175781 C 16.394531 10.175781 16.601562 10.382812 16.601562 10.632812 L 16.601562 11.542969 C 16.601562 11.792969 16.394531 11.996094 16.144531 11.996094 L 15.234375 11.996094 C 14.984375 11.996094 14.78125 11.792969 14.78125 11.542969 L 14.78125 10.632812 C 14.78125 10.382812 14.984375 10.175781 15.234375 10.175781 Z M 15.234375 10.175781 "/>
<path style=" stroke:none;fill-rule:nonzero;fill:rgb(25.882354%,25.882354%,25.882354%);fill-opacity:1;" d="M 5.683594 13.359375 L 6.59375 13.359375 C 6.847656 13.359375 7.050781 13.566406 7.050781 13.816406 L 7.050781 14.726562 C 7.050781 14.976562 6.847656 15.179688 6.59375 15.179688 L 5.683594 15.179688 C 5.433594 15.179688 5.230469 14.976562 5.230469 14.726562 L 5.230469 13.816406 C 5.230469 13.566406 5.433594 13.359375 5.683594 13.359375 Z M 5.683594 13.359375 "/>
<path style=" stroke:none;fill-rule:nonzero;fill:rgb(25.882354%,25.882354%,25.882354%);fill-opacity:1;" d="M 8.867188 13.359375 L 9.777344 13.359375 C 10.027344 13.359375 10.234375 13.566406 10.234375 13.816406 L 10.234375 14.726562 C 10.234375 14.976562 10.027344 15.179688 9.777344 15.179688 L 8.867188 15.179688 C 8.617188 15.179688 8.414062 14.976562 8.414062 14.726562 L 8.414062 13.816406 C 8.414062 13.566406 8.617188 13.359375 8.867188 13.359375 Z M 8.867188 13.359375 "/>
<path style=" stroke:none;fill-rule:nonzero;fill:rgb(25.882354%,25.882354%,25.882354%);fill-opacity:1;" d="M 20.011719 14.269531 L 20.011719 19.726562 C 20.011719 19.980469 19.808594 20.183594 19.554688 20.183594 L 18.648438 20.183594 C 18.394531 20.183594 18.191406 19.980469 18.191406 19.726562 L 18.191406 14.269531 C 18.191406 14.019531 18.394531 13.816406 18.648438 13.816406 L 19.554688 13.816406 C 19.808594 13.816406 20.011719 14.019531 20.011719 14.269531 Z M 20.011719 14.269531 "/>
<path style=" stroke:none;fill-rule:nonzero;fill:rgb(25.882354%,25.882354%,25.882354%);fill-opacity:1;" d="M 19.554688 20.183594 L 14.097656 20.183594 C 13.847656 20.183594 13.644531 19.980469 13.644531 19.726562 L 13.644531 18.820312 C 13.644531 18.566406 13.847656 18.363281 14.097656 18.363281 L 19.554688 18.363281 C 19.808594 18.363281 20.011719 18.566406 20.011719 18.820312 L 20.011719 19.726562 C 20.011719 19.980469 19.808594 20.183594 19.554688 20.183594 Z M 19.554688 20.183594 "/>
</g>
</svg>
