
<svg xmlns="http://www.w3.org/2000/svg" xmlns:xlink="http://www.w3.org/1999/xlink" width="22px" height="22px" viewBox="0 0 22 22" version="1.1">
<g id="surface1">
<defs>
  <style id="current-color-scheme" type="text/css">
   .ColorScheme-Text { color:#424242; } .ColorScheme-Highlight { color:#eeeeee; }
  </style>
 </defs>
<path style="fill:currentColor" class="ColorScheme-Text" d="M 4.125 2.75 C 3.363281 2.75 2.75 3.363281 2.75 4.125 L 2.75 9.554688 L 4.125 9.554688 L 4.125 8.25 L 6.875 8.25 L 6.875 9.554688 L 8.25 9.554688 L 8.25 4.125 C 8.25 3.363281 7.636719 2.75 6.875 2.75 Z M 4.824219 4.125 L 6.175781 4.125 C 6.5625 4.125 6.875 4.4375 6.875 4.824219 L 6.875 6.875 L 4.125 6.875 L 4.125 4.824219 C 4.125 4.4375 4.4375 4.125 4.824219 4.125 Z M 9.625 4.125 L 9.625 5.5 L 19.25 5.5 L 19.25 4.125 Z M 9.625 9.625 L 9.625 11 L 19.25 11 L 19.25 9.625 Z M 2.75 12.375 L 2.75 13.75 L 6.589844 13.75 L 2.75 17.589844 L 2.75 19.25 L 8.25 19.25 L 8.25 17.875 L 4.410156 17.875 L 8.25 14.035156 L 8.25 12.375 Z M 9.625 15.125 L 9.625 16.5 L 19.25 16.5 L 19.25 15.125 Z M 9.625 15.125 "/>
</g>
</svg>
