
<svg xmlns="http://www.w3.org/2000/svg" xmlns:xlink="http://www.w3.org/1999/xlink" width="22px" height="22px" viewBox="0 0 22 22" version="1.1">
<g id="surface1">
<defs>
  <style id="current-color-scheme" type="text/css">
   .ColorScheme-Text { color:#424242; } .ColorScheme-Highlight { color:#eeeeee; }
  </style>
 </defs>
<path style="fill:currentColor" class="ColorScheme-Text" d="M 11 2.75 C 6.429688 2.75 2.75 6.429688 2.75 11 C 2.75 15.570312 6.429688 19.25 11 19.25 C 15.570312 19.25 19.25 15.570312 19.25 11 C 19.25 6.429688 15.570312 2.75 11 2.75 Z M 11 4.125 C 14.808594 4.125 17.875 7.191406 17.875 11 C 17.875 14.808594 14.808594 17.875 11 17.875 C 7.191406 17.875 4.125 14.808594 4.125 11 C 4.125 7.191406 7.191406 4.125 11 4.125 Z M 10.996094 6.199219 C 9.507812 6.203125 8.527344 6.613281 8.023438 7.359375 C 7.523438 8.105469 7.5625 8.9375 7.5625 9.625 L 8.9375 9.625 C 8.9375 8.9375 8.976562 8.40625 9.164062 8.128906 C 9.347656 7.851562 9.742188 7.578125 11.003906 7.574219 C 12.261719 7.566406 12.648438 7.839844 12.835938 8.117188 C 13.019531 8.398438 13.0625 8.9375 13.0625 9.625 C 13.0625 9.738281 13.046875 9.773438 12.878906 9.914062 C 12.714844 10.050781 12.414062 10.214844 12.070312 10.386719 C 11.726562 10.558594 11.339844 10.738281 10.988281 11.03125 C 10.640625 11.320312 10.3125 11.800781 10.3125 12.375 L 10.3125 13.097656 L 11.6875 13.097656 L 11.6875 12.375 C 11.6875 12.261719 11.703125 12.226562 11.871094 12.085938 C 12.035156 11.949219 12.335938 11.785156 12.679688 11.613281 C 13.023438 11.441406 13.410156 11.261719 13.761719 10.96875 C 14.109375 10.679688 14.4375 10.199219 14.4375 9.625 C 14.4375 8.9375 14.480469 8.101562 13.976562 7.351562 C 13.476562 6.601562 12.488281 6.191406 10.996094 6.199219 Z M 11 14.414062 C 10.605469 14.414062 10.289062 14.730469 10.289062 15.125 C 10.289062 15.519531 10.605469 15.832031 11 15.832031 C 11.394531 15.832031 11.710938 15.519531 11.710938 15.125 C 11.710938 14.730469 11.394531 14.414062 11 14.414062 Z M 11 14.414062 "/>
</g>
</svg>
