<svg height="22" viewBox="0 0 22 22" width="22" xmlns="http://www.w3.org/2000/svg"><g fill="#424242"><path d="m11.824219 3.808594c-.503907 0-.910157.40625-.910157.910156v2.273438h6.367188v-2.273438c0-.503906-.40625-.910156-.910156-.910156zm0 0"/><path d="m3.410156 2.902344c.378906 0 .683594.304687.683594.679687 0 .378907-.304688.683594-.683594.683594-.375 0-.679687-.304687-.679687-.683594 0-.375.304687-.679687.679687-.679687zm0 0"/><path d="m5.683594 3.355469c.316406 0 .570312.253906.570312.570312 0 .3125-.253906.566407-.570312.566407-.3125 0-.566406-.253907-.566406-.566407 0-.316406.253906-.570312.566406-.570312zm0 0"/><path d="m9.097656 5.175781c.25 0 .453125.203125.453125.453125s-.203125.457032-.453125.457032c-.253906 0-.457031-.207032-.457031-.457032s.203125-.453125.457031-.453125zm0 0"/><path d="m5.683594 6.539062c.316406 0 .570312.253907.570312.570313 0 .3125-.253906.566406-.570312.566406-.3125 0-.566406-.253906-.566406-.566406 0-.316406.253906-.570313.566406-.570313zm0 0"/><path d="m3.410156 4.945312c.378906 0 .683594.308594.683594.683594 0 .378906-.304688.683594-.683594.683594-.375 0-.679687-.304688-.679687-.683594 0-.375.304687-.683594.679687-.683594zm0 0"/><path d="m3.410156 6.992188c.378906 0 .683594.308593.683594.683593 0 .378907-.304688.683594-.683594.683594-.375 0-.679687-.304687-.679687-.683594 0-.375.304687-.683593.679687-.683593zm0 0"/><path d="m7.503906 4.492188c.25 0 .453125.203124.453125.453124 0 .253907-.203125.457032-.453125.457032s-.453125-.203125-.453125-.457032c0-.25.203125-.453124.453125-.453124zm0 0"/><path d="m7.503906 5.855469c.25 0 .453125.203125.453125.457031 0 .25-.203125.453125-.453125.453125s-.453125-.203125-.453125-.453125c0-.253906.203125-.457031.453125-.457031zm0 0"/><path d="m10.003906 7.902344c-.503906 0-.90625.40625-.90625.910156v9.550781c0 .503907.402344.910157.90625.910157h8.1875c.503906 0 .910156-.40625.910156-.910157v-9.550781c0-.503906-.40625-.910156-.910156-.910156zm1.367188 1.820312h5.457031c.25 0 .453125.203125.453125.453125v6.824219c0 .25-.203125.453125-.453125.453125h-5.457031c-.253906 0-.457032-.203125-.457032-.453125v-6.824219c0-.25.203126-.453125.457032-.453125zm0 0"/><path d="m5.683594 4.945312c.316406 0 .570312.257813.570312.570313s-.253906.570313-.570312.570313c-.3125 0-.566406-.257813-.566406-.570313s.253906-.570313.566406-.570313zm0 0"/></g></svg>