
<svg xmlns="http://www.w3.org/2000/svg" xmlns:xlink="http://www.w3.org/1999/xlink" width="22px" height="22px" viewBox="0 0 22 22" version="1.1">
<g id="surface1">
<defs>
  <style id="current-color-scheme" type="text/css">
   .ColorScheme-Text { color:#424242; } .ColorScheme-Highlight { color:#eeeeee; }
  </style>
 </defs>
<path style="fill:currentColor" class="ColorScheme-Text" d="M 11 2.75 C 6.429688 2.75 2.75 6.429688 2.75 11 C 2.75 15.570312 6.429688 19.25 11 19.25 L 11 17.875 C 7.191406 17.875 4.125 14.808594 4.125 11 C 4.125 7.191406 7.191406 4.125 11 4.125 C 14.808594 4.125 17.875 7.191406 17.875 11 L 19.25 11 C 19.25 6.429688 15.570312 2.75 11 2.75 Z M 11 5.5 L 11 6.875 C 13.285156 6.875 15.125 8.714844 15.125 11 L 16.5 11 C 16.5 7.953125 14.046875 5.5 11 5.5 Z M 11 8.25 C 9.476562 8.25 8.25 9.476562 8.25 11 C 8.25 12.523438 9.476562 13.75 11 13.75 C 12.523438 13.75 13.75 12.523438 13.75 11 C 13.75 9.476562 12.523438 8.25 11 8.25 Z M 11 9.625 C 11.761719 9.625 12.375 10.238281 12.375 11 C 12.375 11.761719 11.761719 12.375 11 12.375 C 10.238281 12.375 9.625 11.761719 9.625 11 C 9.625 10.238281 10.238281 9.625 11 9.625 Z M 5.5 11 C 5.5 14.046875 7.953125 16.5 11 16.5 L 11 15.125 C 8.714844 15.125 6.875 13.285156 6.875 11 Z M 15.125 12.375 L 15.125 16.589844 C 14.90625 16.539062 14.683594 16.5 14.4375 16.5 C 13.292969 16.5 12.375 17.113281 12.375 17.875 C 12.375 18.636719 13.292969 19.25 14.4375 19.25 C 15.582031 19.25 16.5 18.636719 16.5 17.875 L 16.5 13.75 L 19.25 13.75 L 19.25 12.375 Z M 15.125 12.375 "/>
</g>
</svg>
