
<svg xmlns="http://www.w3.org/2000/svg" xmlns:xlink="http://www.w3.org/1999/xlink" width="22px" height="22px" viewBox="0 0 22 22" version="1.1">
<g id="surface1">
<defs>
  <style id="current-color-scheme" type="text/css">
   .ColorScheme-Text { color:#424242; } .ColorScheme-Highlight { color:#eeeeee; }
  </style>
 </defs>
<path style="fill:currentColor" class="ColorScheme-Text" d="M 4.125 2.75 C 3.363281 2.75 2.75 3.363281 2.75 4.125 L 2.75 8.25 C 2.75 9.011719 3.363281 9.625 4.125 9.625 L 8.25 9.625 C 9.011719 9.625 9.625 9.011719 9.625 8.25 L 9.625 4.125 C 9.625 3.363281 9.011719 2.75 8.25 2.75 Z M 13.75 2.75 C 12.988281 2.75 12.375 3.363281 12.375 4.125 L 12.375 8.25 C 12.375 9.011719 12.988281 9.625 13.75 9.625 L 17.875 9.625 C 18.636719 9.625 19.25 9.011719 19.25 8.25 L 19.25 4.125 C 19.25 3.363281 18.636719 2.75 17.875 2.75 Z M 4.8125 4.125 L 7.5625 4.125 C 7.945312 4.125 8.25 4.429688 8.25 4.8125 L 8.25 7.5625 C 8.25 7.945312 7.945312 8.25 7.5625 8.25 L 4.8125 8.25 C 4.429688 8.25 4.125 7.945312 4.125 7.5625 L 4.125 4.8125 C 4.125 4.429688 4.429688 4.125 4.8125 4.125 Z M 14.4375 4.125 L 17.1875 4.125 C 17.570312 4.125 17.875 4.429688 17.875 4.8125 L 17.875 7.5625 C 17.875 7.945312 17.570312 8.25 17.1875 8.25 L 14.4375 8.25 C 14.054688 8.25 13.75 7.945312 13.75 7.5625 L 13.75 4.8125 C 13.75 4.429688 14.054688 4.125 14.4375 4.125 Z M 4.125 12.375 C 3.363281 12.375 2.75 12.988281 2.75 13.75 L 2.75 17.875 C 2.75 18.636719 3.363281 19.25 4.125 19.25 L 8.25 19.25 C 9.011719 19.25 9.625 18.636719 9.625 17.875 L 9.625 13.75 C 9.625 12.988281 9.011719 12.375 8.25 12.375 Z M 13.75 12.375 C 12.988281 12.375 12.375 12.988281 12.375 13.75 L 12.375 17.875 C 12.375 18.636719 12.988281 19.25 13.75 19.25 L 17.875 19.25 C 18.636719 19.25 19.25 18.636719 19.25 17.875 L 19.25 13.75 C 19.25 12.988281 18.636719 12.375 17.875 12.375 Z M 4.8125 13.75 L 7.5625 13.75 C 7.945312 13.75 8.25 14.054688 8.25 14.4375 L 8.25 17.1875 C 8.25 17.570312 7.945312 17.875 7.5625 17.875 L 4.8125 17.875 C 4.429688 17.875 4.125 17.570312 4.125 17.1875 L 4.125 14.4375 C 4.125 14.054688 4.429688 13.75 4.8125 13.75 Z M 14.4375 13.75 L 17.1875 13.75 C 17.570312 13.75 17.875 14.054688 17.875 14.4375 L 17.875 17.1875 C 17.875 17.570312 17.570312 17.875 17.1875 17.875 L 14.4375 17.875 C 14.054688 17.875 13.75 17.570312 13.75 17.1875 L 13.75 14.4375 C 13.75 14.054688 14.054688 13.75 14.4375 13.75 Z M 14.4375 13.75 "/>
</g>
</svg>
