<?xml version="1.0" encoding="UTF-8"?>
<svg xmlns="http://www.w3.org/2000/svg" xmlns:xlink="http://www.w3.org/1999/xlink" width="22pt" height="22pt" viewBox="0 0 22 22" version="1.1">
<g id="surface1">
<path style=" stroke:none;fill-rule:nonzero;fill:rgb(25.882354%,25.882354%,25.882354%);fill-opacity:1;" d="M 2.5 17.910156 L 12.050781 17.910156 C 12.429688 17.910156 12.734375 18.214844 12.734375 18.589844 C 12.734375 18.96875 12.429688 19.273438 12.050781 19.273438 L 2.5 19.273438 C 2.125 19.273438 1.820312 18.96875 1.820312 18.589844 C 1.820312 18.214844 2.125 17.910156 2.5 17.910156 Z M 2.5 17.910156 "/>
<path style=" stroke:none;fill-rule:nonzero;fill:rgb(25.882354%,25.882354%,25.882354%);fill-opacity:1;" d="M 2.5 12.90625 L 12.050781 12.90625 C 12.429688 12.90625 12.734375 13.210938 12.734375 13.589844 C 12.734375 13.964844 12.429688 14.269531 12.050781 14.269531 L 2.5 14.269531 C 2.125 14.269531 1.820312 13.964844 1.820312 13.589844 C 1.820312 13.210938 2.125 12.90625 2.5 12.90625 Z M 2.5 12.90625 "/>
<path style=" stroke:none;fill-rule:nonzero;fill:rgb(25.882354%,25.882354%,25.882354%);fill-opacity:1;" d="M 2.5 7.902344 L 19.328125 7.902344 C 19.707031 7.902344 20.011719 8.207031 20.011719 8.585938 C 20.011719 8.960938 19.707031 9.269531 19.328125 9.269531 L 2.5 9.269531 C 2.125 9.269531 1.820312 8.960938 1.820312 8.585938 C 1.820312 8.207031 2.125 7.902344 2.5 7.902344 Z M 2.5 7.902344 "/>
<path style=" stroke:none;fill-rule:nonzero;fill:rgb(25.882354%,25.882354%,25.882354%);fill-opacity:1;" d="M 2.5 2.902344 L 19.328125 2.902344 C 19.707031 2.902344 20.011719 3.207031 20.011719 3.582031 C 20.011719 3.960938 19.707031 4.265625 19.328125 4.265625 L 2.5 4.265625 C 2.125 4.265625 1.820312 3.960938 1.820312 3.582031 C 1.820312 3.207031 2.125 2.902344 2.5 2.902344 Z M 2.5 2.902344 "/>
<path style=" stroke:none;fill-rule:nonzero;fill:rgb(25.882354%,64.705884%,96.078432%);fill-opacity:1;" d="M 14.921875 12.71875 C 14.746094 12.710938 14.578125 12.773438 14.449219 12.894531 C 14.324219 13.019531 14.253906 13.183594 14.253906 13.359375 L 14.253906 18.820312 C 14.253906 19.050781 14.378906 19.265625 14.578125 19.378906 C 14.78125 19.492188 15.027344 19.492188 15.226562 19.371094 L 19.777344 16.640625 C 19.96875 16.527344 20.089844 16.316406 20.089844 16.089844 C 20.089844 15.863281 19.96875 15.652344 19.777344 15.535156 L 15.226562 12.808594 C 15.136719 12.753906 15.03125 12.722656 14.921875 12.71875 Z M 15.542969 14.5 L 18.191406 16.089844 L 15.542969 17.679688 Z M 15.542969 14.5 "/>
</g>
</svg>
