<?xml version="1.0" encoding="UTF-8"?>
<svg xmlns="http://www.w3.org/2000/svg" xmlns:xlink="http://www.w3.org/1999/xlink" width="22pt" height="22pt" viewBox="0 0 22 22" version="1.1">
<g id="surface1">
<path style=" stroke:none;fill-rule:nonzero;fill:rgb(25.882354%,25.882354%,25.882354%);fill-opacity:1;" d="M 7.277344 6.539062 C 6.773438 6.539062 6.367188 6.945312 6.367188 7.449219 L 6.367188 14.726562 C 6.367188 15.230469 6.773438 15.636719 7.277344 15.636719 L 14.554688 15.636719 C 15.058594 15.636719 15.464844 15.230469 15.464844 14.726562 L 15.464844 7.449219 C 15.464844 6.945312 15.058594 6.539062 14.554688 6.539062 Z M 8.414062 7.902344 L 13.417969 7.902344 C 13.792969 7.902344 14.097656 8.207031 14.097656 8.585938 L 14.097656 13.589844 C 14.097656 13.964844 13.792969 14.269531 13.417969 14.269531 L 8.414062 14.269531 C 8.035156 14.269531 7.730469 13.964844 7.730469 13.589844 L 7.730469 8.585938 C 7.730469 8.207031 8.035156 7.902344 8.414062 7.902344 Z M 8.414062 7.902344 "/>
<path style=" stroke:none;fill-rule:evenodd;fill:rgb(25.882354%,25.882354%,25.882354%);fill-opacity:1;" d="M 0.910156 11.085938 C 0.910156 11.363281 1.035156 11.621094 1.25 11.792969 L 3.523438 13.613281 C 3.796875 13.832031 4.171875 13.875 4.488281 13.722656 C 4.800781 13.570312 5.003906 13.253906 5.003906 12.902344 L 5.003906 9.265625 C 5.003906 8.914062 4.800781 8.597656 4.488281 8.445312 C 4.171875 8.292969 3.796875 8.335938 3.523438 8.554688 L 1.25 10.375 C 1.035156 10.546875 0.910156 10.808594 0.910156 11.085938 Z M 0.910156 11.085938 "/>
<path style=" stroke:none;fill-rule:evenodd;fill:rgb(25.882354%,25.882354%,25.882354%);fill-opacity:1;" d="M 20.921875 11.085938 C 20.917969 11.363281 20.792969 11.621094 20.578125 11.792969 L 18.304688 13.613281 C 18.03125 13.832031 17.660156 13.875 17.34375 13.722656 C 17.027344 13.570312 16.828125 13.253906 16.828125 12.902344 L 16.828125 9.265625 C 16.828125 8.914062 17.027344 8.597656 17.34375 8.445312 C 17.660156 8.292969 18.03125 8.335938 18.304688 8.554688 L 20.578125 10.375 C 20.796875 10.546875 20.921875 10.808594 20.921875 11.085938 Z M 20.921875 11.085938 "/>
<path style=" stroke:none;fill-rule:nonzero;fill:rgb(14.901961%,77.64706%,85.490197%);fill-opacity:0.996078;" d="M 2.730469 1.082031 C 1.722656 1.082031 0.910156 1.894531 0.910156 2.902344 L 0.910156 5.628906 C 0.910156 5.882812 1.207031 6.085938 1.578125 6.085938 L 1.605469 6.085938 C 1.976562 6.085938 2.273438 5.882812 2.273438 5.628906 L 2.273438 3.355469 C 2.273438 2.851562 2.679688 2.445312 3.183594 2.445312 L 5.457031 2.445312 C 5.710938 2.445312 5.914062 2.140625 5.914062 1.765625 C 5.914062 1.386719 5.710938 1.082031 5.457031 1.082031 Z M 16.371094 1.082031 C 16.121094 1.082031 15.917969 1.386719 15.917969 1.765625 C 15.917969 2.140625 16.121094 2.445312 16.371094 2.445312 L 18.648438 2.445312 C 19.152344 2.445312 19.554688 2.851562 19.554688 3.355469 L 19.554688 5.628906 C 19.554688 5.882812 19.859375 6.085938 20.238281 6.085938 C 20.617188 6.085938 20.921875 5.882812 20.921875 5.628906 L 20.921875 2.902344 C 20.921875 1.894531 20.109375 1.082031 19.101562 1.082031 Z M 1.578125 16.089844 C 1.207031 16.089844 0.910156 16.292969 0.910156 16.542969 L 0.910156 19.273438 C 0.910156 20.28125 1.722656 21.09375 2.730469 21.09375 L 5.457031 21.09375 C 5.710938 21.09375 5.914062 20.789062 5.914062 20.410156 C 5.914062 20.03125 5.710938 19.726562 5.457031 19.726562 L 3.183594 19.726562 C 2.679688 19.726562 2.273438 19.324219 2.273438 18.820312 L 2.273438 16.542969 C 2.273438 16.292969 1.976562 16.089844 1.605469 16.089844 Z M 20.238281 16.089844 C 19.859375 16.089844 19.554688 16.292969 19.554688 16.542969 L 19.554688 18.820312 C 19.554688 19.324219 19.152344 19.726562 18.648438 19.726562 L 16.371094 19.726562 C 16.121094 19.726562 15.917969 20.03125 15.917969 20.410156 C 15.917969 20.789062 16.121094 21.09375 16.371094 21.09375 L 19.101562 21.09375 C 20.109375 21.09375 20.921875 20.28125 20.921875 19.273438 L 20.921875 16.542969 C 20.921875 16.292969 20.617188 16.089844 20.238281 16.089844 Z M 20.238281 16.089844 "/>
</g>
</svg>
