<?xml version="1.0" encoding="UTF-8"?>
<svg xmlns="http://www.w3.org/2000/svg" xmlns:xlink="http://www.w3.org/1999/xlink" width="22px" height="22px" viewBox="0 0 22 22" version="1.1">
<g id="surface1">
<path style=" stroke:none;fill-rule:nonzero;fill:rgb(87.843138%,87.843138%,87.843138%);fill-opacity:1;" d="M 3.636719 1.992188 C 2.628906 1.992188 1.820312 2.800781 1.820312 3.808594 L 1.820312 18.363281 C 1.820312 19.371094 2.628906 20.183594 3.636719 20.183594 L 18.191406 20.183594 C 19.199219 20.183594 20.011719 19.371094 20.011719 18.363281 L 20.011719 3.808594 C 20.011719 2.800781 19.199219 1.992188 18.191406 1.992188 Z M 4.546875 3.808594 L 17.28125 3.808594 C 17.785156 3.808594 18.191406 4.214844 18.191406 4.71875 L 18.191406 17.453125 C 18.191406 17.957031 17.785156 18.363281 17.28125 18.363281 L 4.546875 18.363281 C 4.042969 18.363281 3.636719 17.957031 3.636719 17.453125 L 3.636719 4.71875 C 3.636719 4.214844 4.042969 3.808594 4.546875 3.808594 Z M 4.546875 3.808594 "/>
<path style=" stroke:none;fill-rule:nonzero;fill:rgb(87.843138%,87.843138%,87.843138%);fill-opacity:1;" d="M 8.195312 9.25 C 8.019531 9.246094 7.859375 9.339844 7.773438 9.496094 L 2.769531 18.589844 C 2.6875 18.738281 2.6875 18.921875 2.773438 19.066406 C 2.863281 19.214844 3.023438 19.300781 3.191406 19.296875 C 3.363281 19.292969 3.515625 19.195312 3.597656 19.046875 L 8.210938 10.660156 L 11.421875 15.882812 C 11.5 16.003906 11.625 16.085938 11.769531 16.101562 C 11.914062 16.121094 12.054688 16.070312 12.160156 15.96875 L 14.507812 13.621094 L 18.726562 19.105469 C 18.828125 19.242188 18.996094 19.3125 19.164062 19.292969 C 19.335938 19.269531 19.476562 19.160156 19.542969 19 C 19.605469 18.84375 19.582031 18.664062 19.476562 18.53125 L 14.925781 12.617188 C 14.84375 12.511719 14.71875 12.445312 14.585938 12.4375 C 14.449219 12.425781 14.316406 12.476562 14.21875 12.574219 L 11.914062 14.878906 L 8.589844 9.476562 C 8.503906 9.339844 8.355469 9.253906 8.195312 9.25 Z M 8.195312 9.25 "/>
<path style=" stroke:none;fill-rule:nonzero;fill:rgb(87.843138%,87.843138%,87.843138%);fill-opacity:1;" d="M 14.324219 5.613281 C 13.191406 5.613281 12.261719 6.542969 12.261719 7.675781 C 12.261719 8.8125 13.191406 9.738281 14.324219 9.738281 C 15.460938 9.738281 16.390625 8.8125 16.390625 7.675781 C 16.390625 6.542969 15.460938 5.613281 14.324219 5.613281 Z M 14.324219 6.554688 C 14.953125 6.554688 15.445312 7.046875 15.445312 7.675781 C 15.445312 8.304688 14.953125 8.796875 14.324219 8.796875 C 13.699219 8.796875 13.207031 8.304688 13.207031 7.675781 C 13.207031 7.046875 13.699219 6.554688 14.324219 6.554688 Z M 14.324219 6.554688 "/>
</g>
</svg>
