<?xml version="1.0" encoding="UTF-8"?>
<svg xmlns="http://www.w3.org/2000/svg" xmlns:xlink="http://www.w3.org/1999/xlink" width="512pt" height="512pt" viewBox="0 0 512 512" version="1.1">
<defs>
<linearGradient id="linear0" gradientUnits="userSpaceOnUse" x1="254" y1="233.5" x2="254" y2="254.666672" gradientTransform="matrix(1.000095,0,0,1.000095,-0.000061041,215.020562)">
<stop offset="0" style="stop-color:rgb(0%,0%,0%);stop-opacity:0.27451;"/>
<stop offset="1" style="stop-color:rgb(0%,0%,0%);stop-opacity:0;"/>
</linearGradient>
<radialGradient id="radial0" gradientUnits="userSpaceOnUse" cx="450.908936" cy="189.579361" fx="450.908936" fy="189.579361" r="21.166656" gradientTransform="matrix(0.00000278673,-1.250119,-2.250215,-0.00000162462,781.168722,1017.525321)">
<stop offset="0" style="stop-color:rgb(0%,0%,0%);stop-opacity:0.313725;"/>
<stop offset="0.222222" style="stop-color:rgb(0%,0%,0%);stop-opacity:0.27451;"/>
<stop offset="1" style="stop-color:rgb(0%,0%,0%);stop-opacity:0;"/>
</radialGradient>
<radialGradient id="radial1" gradientUnits="userSpaceOnUse" cx="450.908936" cy="189.579361" fx="450.908936" fy="189.579361" r="21.166656" gradientTransform="matrix(-0.00000278673,1.250119,2.250215,0.00000162462,-283.704519,-120.439662)">
<stop offset="0" style="stop-color:rgb(0%,0%,0%);stop-opacity:0.313725;"/>
<stop offset="0.222222" style="stop-color:rgb(0%,0%,0%);stop-opacity:0.27451;"/>
<stop offset="1" style="stop-color:rgb(0%,0%,0%);stop-opacity:0;"/>
</radialGradient>
<radialGradient id="radial2" gradientUnits="userSpaceOnUse" cx="450.908936" cy="189.579361" fx="450.908936" fy="189.579361" r="21.166656" gradientTransform="matrix(-0.00000278673,-1.250119,2.250215,-0.00000162462,-283.704519,1017.525321)">
<stop offset="0" style="stop-color:rgb(0%,0%,0%);stop-opacity:0.313725;"/>
<stop offset="0.222222" style="stop-color:rgb(0%,0%,0%);stop-opacity:0.27451;"/>
<stop offset="1" style="stop-color:rgb(0%,0%,0%);stop-opacity:0;"/>
</radialGradient>
<radialGradient id="radial3" gradientUnits="userSpaceOnUse" cx="450.908936" cy="189.579361" fx="450.908936" fy="189.579361" r="21.166656" gradientTransform="matrix(0.00000278673,1.250119,-2.250215,0.00000162462,781.168692,-120.43967)">
<stop offset="0" style="stop-color:rgb(0%,0%,0%);stop-opacity:0.313725;"/>
<stop offset="0.222222" style="stop-color:rgb(0%,0%,0%);stop-opacity:0.27451;"/>
<stop offset="1" style="stop-color:rgb(0%,0%,0%);stop-opacity:0;"/>
</radialGradient>
<filter id="alpha" filterUnits="objectBoundingBox" x="0%" y="0%" width="100%" height="100%">
  <feColorMatrix type="matrix" in="SourceGraphic" values="0 0 0 0 1 0 0 0 0 1 0 0 0 0 1 0 0 0 1 0"/>
</filter>
<mask id="mask0">
  <g filter="url(#alpha)">
<rect x="0" y="0" width="512" height="512" style="fill:rgb(0%,0%,0%);fill-opacity:0.988235;stroke:none;"/>
  </g>
</mask>
<linearGradient id="linear1" gradientUnits="userSpaceOnUse" x1="940" y1="1695.118164" x2="940" y2="175.118118" gradientTransform="matrix(0.264609,0,0,0.264609,0,0)">
<stop offset="0" style="stop-color:rgb(93.333333%,93.333333%,93.333333%);stop-opacity:1;"/>
<stop offset="1" style="stop-color:rgb(96.078431%,96.078431%,96.078431%);stop-opacity:1;"/>
</linearGradient>
<clipPath id="clip1">
  <rect x="0" y="0" width="512" height="512"/>
</clipPath>
<g id="surface5" clip-path="url(#clip1)">
<path style=" stroke:none;fill-rule:nonzero;fill:url(#linear1);" d="M 116.429688 46.335938 C 104.699219 46.335938 95.257812 55.777344 95.257812 67.507812 L 95.257812 427.375 C 95.257812 439.101562 104.699219 448.542969 116.429688 448.542969 L 381.035156 448.542969 C 392.765625 448.542969 402.203125 439.101562 402.203125 427.375 L 402.203125 141.597656 L 306.945312 46.335938 Z M 328.113281 46.335938 L 402.203125 120.429688 L 402.203125 67.507812 C 402.203125 55.777344 392.765625 46.335938 381.035156 46.335938 Z M 328.113281 46.335938 "/>
</g>
<mask id="mask1">
  <g filter="url(#alpha)">
<rect x="0" y="0" width="512" height="512" style="fill:rgb(0%,0%,0%);fill-opacity:0.988235;stroke:none;"/>
  </g>
</mask>
<linearGradient id="linear2" gradientUnits="userSpaceOnUse" x1="940" y1="1695.118164" x2="940" y2="175.118118" gradientTransform="matrix(0.264609,0,0,0.264609,0,0)">
<stop offset="0" style="stop-color:rgb(25.882353%,25.882353%,25.882353%);stop-opacity:1;"/>
<stop offset="1" style="stop-color:rgb(38.039216%,38.039216%,38.039216%);stop-opacity:1;"/>
</linearGradient>
<clipPath id="clip2">
  <rect x="0" y="0" width="512" height="512"/>
</clipPath>
<g id="surface8" clip-path="url(#clip2)">
<path style=" stroke:none;fill-rule:nonzero;fill:url(#linear2);" d="M 328.113281 46.335938 L 402.203125 120.429688 L 402.203125 67.507812 C 402.203125 55.777344 392.765625 46.335938 381.035156 46.335938 Z M 328.113281 46.335938 "/>
</g>
<mask id="mask2">
  <g filter="url(#alpha)">
<rect x="0" y="0" width="512" height="512" style="fill:rgb(0%,0%,0%);fill-opacity:0.988235;stroke:none;"/>
  </g>
</mask>
<clipPath id="clip3">
  <rect x="0" y="0" width="512" height="512"/>
</clipPath>
<g id="surface11" clip-path="url(#clip3)">
<path style=" stroke:none;fill-rule:nonzero;fill:rgb(100%,100%,100%);fill-opacity:0.392157;" d="M 116.429688 46.335938 C 104.699219 46.335938 95.257812 55.777344 95.257812 67.507812 L 95.257812 72.796875 C 95.257812 61.070312 104.699219 51.628906 116.429688 51.628906 L 306.945312 51.628906 L 402.203125 146.890625 L 402.203125 141.597656 L 306.945312 46.335938 Z M 328.113281 46.335938 L 333.40625 51.628906 L 381.035156 51.628906 C 392.765625 51.628906 402.203125 61.070312 402.203125 72.796875 L 402.203125 67.507812 C 402.203125 55.777344 392.765625 46.335938 381.035156 46.335938 Z M 328.113281 46.335938 "/>
</g>
<mask id="mask3">
  <g filter="url(#alpha)">
<rect x="0" y="0" width="512" height="512" style="fill:rgb(0%,0%,0%);fill-opacity:0.988235;stroke:none;"/>
  </g>
</mask>
<clipPath id="clip4">
  <rect x="0" y="0" width="512" height="512"/>
</clipPath>
<g id="surface14" clip-path="url(#clip4)">
<path style=" stroke:none;fill-rule:nonzero;fill:rgb(0%,0%,0%);fill-opacity:0.235294;" d="M 328.113281 46.335938 L 402.203125 120.429688 L 402.203125 112.574219 L 335.96875 46.335938 Z M 95.257812 419.519531 L 95.257812 427.375 C 95.257812 439.101562 104.699219 448.542969 116.429688 448.542969 L 381.035156 448.542969 C 392.765625 448.542969 402.203125 439.101562 402.203125 427.375 L 402.203125 419.519531 C 402.203125 431.246094 392.765625 440.691406 381.035156 440.691406 L 116.429688 440.691406 C 104.699219 440.691406 95.257812 431.246094 95.257812 419.519531 Z M 95.257812 419.519531 "/>
</g>
<mask id="mask4">
  <g filter="url(#alpha)">
<rect x="0" y="0" width="512" height="512" style="fill:rgb(0%,0%,0%);fill-opacity:0.988235;stroke:none;"/>
  </g>
</mask>
<clipPath id="clip5">
  <rect x="0" y="0" width="512" height="512"/>
</clipPath>
<g id="surface17" clip-path="url(#clip5)">
<path style=" stroke:none;fill-rule:nonzero;fill:rgb(12.941177%,12.941177%,12.941177%);fill-opacity:1;" d="M 116.429688 44.835938 C 103.894531 44.835938 93.757812 54.972656 93.757812 67.507812 L 93.757812 427.375 C 93.757812 439.90625 103.894531 450.042969 116.429688 450.042969 L 381.035156 450.042969 C 393.570312 450.042969 403.707031 439.90625 403.707031 427.375 L 403.707031 141.597656 C 403.707031 141.199219 403.546875 140.816406 403.265625 140.535156 L 308.007812 45.277344 C 307.726562 44.996094 307.34375 44.835938 306.945312 44.835938 Z M 328.113281 44.835938 C 327.507812 44.835938 326.960938 45.203125 326.726562 45.761719 C 326.496094 46.324219 326.625 46.96875 327.054688 47.398438 L 401.144531 121.488281 C 401.574219 121.917969 402.21875 122.046875 402.777344 121.8125 C 403.339844 121.582031 403.707031 121.035156 403.707031 120.429688 L 403.707031 67.507812 C 403.707031 54.972656 393.570312 44.835938 381.035156 44.835938 Z M 116.429688 47.835938 L 306.324219 47.835938 L 400.703125 142.21875 L 400.703125 427.375 C 400.703125 438.296875 391.957031 447.042969 381.035156 447.042969 L 116.429688 447.042969 C 105.503906 447.042969 96.757812 438.296875 96.757812 427.375 L 96.757812 67.507812 C 96.757812 56.582031 105.503906 47.835938 116.429688 47.835938 Z M 331.738281 47.835938 L 381.035156 47.835938 C 391.957031 47.835938 400.703125 56.582031 400.703125 67.507812 L 400.703125 116.804688 Z M 331.738281 47.835938 "/>
</g>
<linearGradient id="linear3" gradientUnits="userSpaceOnUse" x1="960" y1="1375.118164" x2="960" y2="775.118103" gradientTransform="matrix(0.264583,0,0,0.264583,-5.291663,-252.041412)">
<stop offset="0" style="stop-color:rgb(25.882353%,25.882353%,25.882353%);stop-opacity:1;"/>
<stop offset="1" style="stop-color:rgb(38.039216%,38.039216%,38.039216%);stop-opacity:1;"/>
</linearGradient>
</defs>
<g id="surface1">
<path style=" stroke:none;fill-rule:nonzero;fill:url(#linear0);" d="M 137.597656 448.542969 L 359.867188 448.542969 L 359.867188 469.710938 L 137.597656 469.710938 Z M 137.597656 448.542969 "/>
<path style=" stroke:none;fill-rule:nonzero;fill:url(#radial0);" d="M 359.867188 448.542969 L 402.207031 448.542969 L 402.207031 427.375 L 359.867188 427.375 Z M 359.867188 448.542969 "/>
<path style=" stroke:none;fill-rule:nonzero;fill:url(#radial1);" d="M 137.597656 448.542969 L 95.257812 448.542969 L 95.257812 469.710938 L 137.597656 469.710938 Z M 137.597656 448.542969 "/>
<path style=" stroke:none;fill-rule:nonzero;fill:url(#radial2);" d="M 137.597656 448.542969 L 95.257812 448.542969 L 95.257812 427.375 L 137.597656 427.375 Z M 137.597656 448.542969 "/>
<path style=" stroke:none;fill-rule:nonzero;fill:url(#radial3);" d="M 359.867188 448.542969 L 402.207031 448.542969 L 402.207031 469.710938 L 359.867188 469.710938 Z M 359.867188 448.542969 "/>
<use xlink:href="#surface5" mask="url(#mask0)"/>
<use xlink:href="#surface8" mask="url(#mask1)"/>
<use xlink:href="#surface11" mask="url(#mask2)"/>
<use xlink:href="#surface14" mask="url(#mask3)"/>
<use xlink:href="#surface17" mask="url(#mask4)"/>
<path style="fill-rule:nonzero;fill:url(#linear3);stroke-width:3;stroke-linecap:round;stroke-linejoin:miter;stroke:rgb(12.941177%,12.941177%,12.941177%);stroke-opacity:1;stroke-miterlimit:4;" d="M 243.418161 -46.957454 C 237.55544 -46.957454 232.833234 -42.239154 232.833234 -36.376433 L 232.833234 -18.093022 C 229.833521 -17.159518 226.950984 -15.960414 224.209058 -14.534768 L 211.292323 -27.451504 C 207.144281 -31.595639 200.469137 -31.595639 196.325002 -27.451504 L 188.841342 -19.967843 C 184.6933 -15.823708 184.6933 -9.148564 188.841342 -5.000523 L 201.758077 7.916213 C 200.328526 10.658138 199.133327 13.540675 198.195917 16.540389 L 179.916413 16.540389 C 174.053691 16.540389 169.331486 21.262594 169.331486 27.125316 L 169.331486 37.710242 C 169.331486 43.572964 174.053691 48.291263 179.916413 48.291263 L 198.195917 48.291263 C 199.133327 51.290977 200.328526 54.173514 201.758077 56.91544 L 188.841342 69.836081 C 184.6933 73.980216 184.6933 80.65536 188.841342 84.803401 L 196.325002 92.283156 C 200.469137 96.431197 207.144281 96.431197 211.292323 92.283156 L 224.209058 79.366421 C 226.950984 80.795972 229.833521 81.99117 232.833234 82.92858 L 232.833234 101.208085 C 232.833234 107.070806 237.55544 111.793012 243.418161 111.793012 L 253.999182 111.793012 C 259.861903 111.793012 264.584108 107.070806 264.584108 101.208085 L 264.584108 82.92858 C 267.583822 81.99117 270.466359 80.795972 273.208285 79.366421 L 286.12502 92.283156 C 290.273062 96.431197 296.948205 96.431197 301.092341 92.283156 L 308.576001 84.803401 C 312.724043 80.65536 312.724043 73.980216 308.576001 69.836081 L 295.659266 56.91544 C 297.084911 54.173514 298.284015 51.290977 299.21752 48.291263 L 317.50093 48.291263 C 323.363652 48.291263 328.081951 43.572964 328.081951 37.710242 L 328.081951 27.125316 C 328.081951 21.262594 323.363652 16.540389 317.50093 16.540389 L 299.21752 16.540389 C 298.284015 13.540675 297.084911 10.658138 295.659266 7.916213 L 308.576001 -5.000523 C 312.724043 -9.148564 312.724043 -15.823708 308.576001 -19.967843 L 301.092341 -27.451504 C 296.948205 -31.595639 290.273062 -31.595639 286.12502 -27.451504 L 273.208285 -14.534768 C 270.466359 -15.960414 267.583822 -17.159518 264.584108 -18.093022 L 264.584108 -36.376433 C 264.584108 -42.239154 259.861903 -46.957454 253.999182 -46.957454 Z M 248.706718 5.959368 C 263.365475 5.959368 275.165129 17.759023 275.165129 32.417779 C 275.165129 47.076535 263.365475 58.87619 248.706718 58.87619 C 234.051868 58.87619 222.248308 47.076535 222.248308 32.417779 C 222.248308 17.759023 234.051868 5.959368 248.706718 5.959368 Z M 248.706718 5.959368 " transform="matrix(1.000095,0,0,1.000095,0,215.020531)"/>
</g>
</svg>
