<svg xmlns="http://www.w3.org/2000/svg" width="512pt" height="512pt" viewBox="0 0 512 512"><defs><radialGradient id="a" gradientUnits="userSpaceOnUse" cx="450.909" cy="189.579" fx="450.909" fy="189.579" r="21.167" gradientTransform="matrix(0 -1.25012 -2.25021 0 675.325 1033.402)"><stop offset="0" stop-opacity=".314"/><stop offset=".222" stop-opacity=".275"/><stop offset="1" stop-opacity="0"/></radialGradient><radialGradient id="b" gradientUnits="userSpaceOnUse" cx="450.909" cy="189.579" fx="450.909" fy="189.579" r="21.167" gradientTransform="matrix(0 1.25012 2.25021 0 -167.277 -104.563)"><stop offset="0" stop-opacity=".314"/><stop offset=".222" stop-opacity=".275"/><stop offset="1" stop-opacity="0"/></radialGradient><radialGradient id="c" gradientUnits="userSpaceOnUse" cx="450.909" cy="189.579" fx="450.909" fy="189.579" r="21.167" gradientTransform="matrix(0 -1.25012 2.25021 0 -167.277 1033.402)"><stop offset="0" stop-opacity=".314"/><stop offset=".222" stop-opacity=".275"/><stop offset="1" stop-opacity="0"/></radialGradient><radialGradient id="d" gradientUnits="userSpaceOnUse" cx="450.909" cy="189.579" fx="450.909" fy="189.579" r="21.167" gradientTransform="matrix(0 1.25012 -2.25021 0 675.325 -104.563)"><stop offset="0" stop-opacity=".314"/><stop offset=".222" stop-opacity=".275"/><stop offset="1" stop-opacity="0"/></radialGradient><linearGradient id="e" gradientUnits="userSpaceOnUse" x1="254" y1="43" x2="254" y2="-168.667" gradientTransform="matrix(1.0001 0 0 1.0001 -.191 215.02)"><stop offset="0" stop-color="#a1887f"/><stop offset="1" stop-color="#bcaaa4"/></linearGradient><linearGradient id="f" gradientUnits="userSpaceOnUse" x1="232.833" y1="254.667" x2="232.833" y2="21.833" gradientTransform="matrix(1.0001 0 0 1.0001 0 215.02)"><stop offset="0" stop-color="#a1887f"/><stop offset="1" stop-color="#bcaaa4"/></linearGradient><linearGradient id="g" gradientUnits="userSpaceOnUse" x1="254" y1="43" x2="254" y2="-168.667" gradientTransform="matrix(1.0001 0 0 1.0001 -.191 215.02)"><stop offset="0" stop-color="#a1887f"/><stop offset="1" stop-color="#bcaaa4"/></linearGradient></defs><path d="M254.023 464.418h42.34V443.25h-42.34zm0 0" fill="url(#a)"/><path d="M254.023 464.418h-42.335v21.172h42.335zm0 0" fill="url(#b)"/><path d="M254.023 464.418h-42.335V443.25h42.335zm0 0" fill="url(#c)"/><path d="M254.023 464.418h42.34v21.172h-42.34zm0 0" fill="url(#d)"/><path d="M254.023 46.367a10.57 10.57 0 0 0-4.476.906L59.027 131.95c-7.957 3.54-8.453 14.649-.84 18.88l190.52 105.843a10.567 10.567 0 0 0 10.254 0l190.516-105.844c7.613-4.23 7.12-15.34-.84-18.879L258.12 47.273a10.516 10.516 0 0 0-4.098-.906zm0 0" fill="url(#e)"/><path d="M447.64 131.504l1 .445c7.958 3.54 8.45 14.649.837 18.88L258.96 256.671a10.567 10.567 0 0 1-10.254 0L58.187 150.828c-2.964-1.648-4.695-4.344-5.238-7.226v209.683c0 3.832 2.078 7.367 5.43 9.227l190.52 105.843c.066.04.136.07.206.11.09.047.18.094.274.137.121.062.246.12.371.175a10.514 10.514 0 0 0 .668.273l.133.048c.18.062.36.12.539.175.008.004.02.004.027.008.207.063.418.114.625.16a9.617 9.617 0 0 0 1.961.25c.106.004.215.004.32.004.11 0 .215 0 .325-.004.207-.003.414-.02.62-.035.009-.004.016-.004.024-.004a9.516 9.516 0 0 0 1.317-.21c.207-.047.414-.098.62-.16.012-.005.02-.005.032-.009a14.43 14.43 0 0 0 .668-.222c.152-.055.3-.113.45-.18.073-.027.144-.058.214-.09.129-.058.258-.117.383-.18.09-.042.176-.09.262-.136.07-.035.144-.07.214-.11l190.516-105.843a10.556 10.556 0 0 0 5.434-9.227V141.598c-.004-4.766-3.153-8.77-7.461-10.094zm0 0" fill="url(#f)"/><path d="M254.215 46.367a10.57 10.57 0 0 0-4.477.906L59.218 131.95c-.038.016-.077.035-.116.055-.063.027-.125.055-.188.086-3.133 1.504-5.047 4.215-5.703 7.176-.027.113-.05.226-.07.34-.016.078-.032.152-.043.23-.028.16-.051.32-.07.48-.005.047-.012.098-.016.145-.024.21-.04.426-.051.644 0 .036 0 .075-.004.11-.004.129-.008.254-.008.383v5.265c0-.129.004-.258.008-.383.004-.039.004-.074.004-.113.012-.215.027-.43.05-.644.005-.047.012-.094.016-.141a8.87 8.87 0 0 1 .114-.715c.02-.113.043-.226.07-.34.656-2.96 2.57-5.668 5.703-7.172.063-.03.125-.062.188-.09l.117-.054 190.52-84.672a10.515 10.515 0 0 1 4.476-.91 10.59 10.59 0 0 1 4.097.91l190.516 84.672.02.012c.07.027.136.062.207.093.09.043.18.086.265.13.04.019.075.038.114.058a10.36 10.36 0 0 1 5.312 6.637c0 .011.004.02.008.03v.009c.031.113.055.226.082.34l.07.332a17.288 17.288 0 0 1 .117.746c.004.039.012.078.016.117.024.215.04.43.047.648.004.043.004.09.004.133.004.121.012.242.012.367v-5.265c0-.121-.008-.246-.012-.368 0-.042 0-.085-.004-.128a11.915 11.915 0 0 0-.047-.653 5.084 5.084 0 0 0-.133-.86l-.07-.335c-.027-.113-.05-.227-.082-.34v-.008a10.378 10.378 0 0 0-5.32-6.668l-.114-.054c-.086-.047-.175-.09-.265-.133l-.207-.094c-.008-.004-.012-.008-.02-.008L258.313 47.273a10.516 10.516 0 0 0-4.098-.906zm0 0" fill="#fff" fill-opacity=".392"/><path d="M52.95 348.09v5.195c0 3.832 2.077 7.367 5.429 9.227l190.52 105.843c.066.04.136.07.206.11.09.047.18.094.274.137.121.062.246.12.371.175a10.514 10.514 0 0 0 .668.273l.133.048c.18.062.36.12.539.175.008.004.02.004.027.008.207.063.418.114.625.16a9.617 9.617 0 0 0 1.961.25c.106.004.215.004.32.004.11 0 .215 0 .325-.004.207-.003.414-.02.62-.035.009-.004.016-.004.024-.004a9.516 9.516 0 0 0 1.317-.21c.207-.047.414-.098.62-.16.012-.005.02-.005.032-.009a14.43 14.43 0 0 0 .668-.222c.152-.055.3-.113.45-.18.073-.027.144-.058.214-.09.129-.058.258-.117.383-.18.09-.042.176-.09.262-.136.07-.035.144-.07.214-.11l190.516-105.843a10.556 10.556 0 0 0 5.434-9.227v-5.195c0 3.836-2.082 7.367-5.434 9.23L259.152 463.164c-.07.04-.144.07-.214.11a5.47 5.47 0 0 1-.262.132c-.125.063-.254.125-.383.184-.07.031-.14.058-.215.09a8.965 8.965 0 0 1-.578.226c-.18.063-.36.121-.54.176-.01.004-.019.004-.03.008a9.695 9.695 0 0 1-1.277.285 9.538 9.538 0 0 1-.66.086h-.024c-.207.02-.414.035-.621.039-.11.004-.215 0-.325 0-.105 0-.214.004-.32 0a8.281 8.281 0 0 1-.621-.04h-.023a9.648 9.648 0 0 1-.664-.085 9.586 9.586 0 0 1-.653-.125 12.225 12.225 0 0 1-.625-.16c-.008-.004-.02-.004-.027-.008-.18-.055-.36-.113-.54-.176l-.132-.047a10.514 10.514 0 0 1-.445-.175c-.075-.032-.149-.067-.223-.098a6.438 6.438 0 0 1-.371-.176 3.61 3.61 0 0 1-.274-.14c-.07-.036-.14-.067-.207-.106L58.378 357.32a10.559 10.559 0 0 1-5.429-9.23zm0 0" fill-opacity=".196"/><path d="M52.922 139.371v13.23l195.808 108.63v208.48h10.727V261.148l195.668-108.546V142.02l-2.418.914L254.023 252.73 55.34 142.934zm0 0" fill="#fff" fill-opacity=".314"/><path d="M254.023 46.367a10.57 10.57 0 0 0-4.476.906L59.027 131.95c-7.957 3.54-8.453 14.649-.84 18.88l190.52 105.843a10.567 10.567 0 0 0 10.254 0l190.516-105.844c7.613-4.23 7.12-15.34-.84-18.879L258.12 47.273a10.516 10.516 0 0 0-4.098-.906zm0 0" fill="url(#g)"/><path d="M254.242 44.867a11.998 11.998 0 0 0-5.113 1.035l-190.52 84.676c-4.98 2.215-7.375 7.113-7.066 11.86.93-.239 1.883-.43 2.848-.567-.102-3.437 1.738-6.906 5.437-8.55l190.52-84.676a9.083 9.083 0 0 1 7.355 0L448.22 133.32c3.605 1.602 5.441 4.934 5.441 8.278h2.871c-.008-4.477-2.406-8.938-7.094-11.02L258.923 45.902a12.018 12.018 0 0 0-4.68-1.035zm0 0" fill="#212121"/><path d="M53.785 134.484a11.991 11.991 0 0 0-2.336 7.114v211.687c0 4.375 2.375 8.414 6.2 10.54l190.519 105.843c.14.078.219.113.234.121.098.055.203.106.313.16.137.067.277.133.422.2.093.042.18.078.258.109.164.066.332.137.507.203.07.023.121.039.149.05.195.071.398.137.613.2.043.016.055.016.04.012a12.094 12.094 0 0 0 1.457.328c.25.039.503.07.757.094.066.007.086.007.027.003.23.02.47.036.711.043.164.004.285.004.367.004.082 0 .207 0 .368-.004.242-.007.476-.023.707-.043h.004c-.024 0-.036.004.023-.003.258-.024.512-.055.762-.094.254-.043.504-.09.75-.145.242-.054.476-.117.71-.183-.019.004-.007 0 .032-.012.219-.063.422-.129.617-.2.024-.007.074-.023.149-.05.183-.066.351-.137.515-.207l.242-.102c.149-.066.293-.136.438-.207.105-.05.207-.105.297-.152a3.04 3.04 0 0 0 .242-.125l190.52-105.844a12.067 12.067 0 0 0 6.203-10.539V141.598c0-2.66-.875-5.118-2.34-7.114l-2.617 1.477a9.039 9.039 0 0 1 1.953 5.637v211.687a9.054 9.054 0 0 1-4.657 7.918l-190.52 105.844s-.058.027-.183.094c-.082.043-.156.078-.226.113-.11.055-.219.11-.332.156-.051.024-.114.05-.18.078-.14.059-.27.11-.39.157-.012.003-.048.015-.11.039-.164.054-.32.109-.465.152.012-.004.012-.004-.023.004-.184.055-.36.101-.535.14-.188.043-.375.079-.559.11a15.79 15.79 0 0 1-.582.07c-.188.016-.363.027-.535.035h-.551a13.162 13.162 0 0 1-.55-.035c-.192-.02-.38-.043-.571-.07a10.048 10.048 0 0 1-1.094-.246l-.023-.008-.004-.004c-.145-.043-.297-.094-.461-.148-.059-.02-.094-.036-.113-.04-.121-.046-.25-.097-.383-.152l-.192-.082-.004-.004c-.105-.047-.21-.094-.316-.148-.078-.04-.156-.078-.238-.121a1.887 1.887 0 0 0-.18-.09L59.11 361.203a9.057 9.057 0 0 1-4.66-7.918V141.598a9.03 9.03 0 0 1 1.957-5.633zm0 0" fill="#212121"/><path d="M254.023 53.238a9.932 9.932 0 0 0-1.32.067v204.62c.438.048.879.067 1.32.06.442.007.883-.012 1.325-.06V53.306a9.958 9.958 0 0 0-1.325-.067zm-8.796 216.348c.14.055.28.113.425.164-.144-.05-.285-.11-.425-.164zm3.402.719c.094.004.191.011.289.011-.098 0-.195-.007-.29-.011zm0 0" fill-opacity=".235"/><path d="M254.023 46.367a10.57 10.57 0 0 0-4.476.906L59.027 131.95c-7.957 3.54-8.453 14.649-.84 18.88l4.208 2.335c-5.594-4.676-4.61-13.984 2.476-17.125L249.68 54.117a10.259 10.259 0 0 1 8.316 0l184.809 81.922c7.078 3.137 8.07 12.426 2.5 17.106l4.172-2.317c7.613-4.23 7.12-15.34-.836-18.879L258.12 47.273a10.516 10.516 0 0 0-4.098-.906zm-41.988 189.93l36.672 20.375a10.567 10.567 0 0 0 10.254 0l32.176-17.879-32.325 17.914a10.284 10.284 0 0 1-9.949 0zm0 0" fill="#fff" fill-opacity=".392"/></svg>