<?xml version="1.0" encoding="UTF-8"?>
<svg xmlns="http://www.w3.org/2000/svg" xmlns:xlink="http://www.w3.org/1999/xlink" width="16px" height="16px" viewBox="0 0 16 16" version="1.1">
<g id="surface1">
<path style=" stroke:none;fill-rule:nonzero;fill:rgb(25.882354%,25.882354%,25.882354%);fill-opacity:1;" d="M 2.976562 1.449219 C 2.609375 1.449219 2.316406 1.742188 2.316406 2.109375 L 2.316406 4.761719 L 2.640625 4.761719 C 3.007812 4.761719 3.304688 5.054688 3.304688 5.417969 L 3.304688 5.421875 C 3.304688 5.785156 3.007812 6.078125 2.640625 6.078125 L 2.316406 6.078125 L 2.316406 7.070312 L 2.640625 7.070312 C 3.007812 7.070312 3.304688 7.363281 3.304688 7.726562 L 3.304688 7.738281 C 3.304688 8.101562 3.007812 8.394531 2.640625 8.394531 L 2.316406 8.394531 L 2.316406 9.386719 L 2.640625 9.386719 C 3.007812 9.386719 3.304688 9.679688 3.304688 10.042969 L 3.304688 10.046875 C 3.304688 10.410156 3.007812 10.707031 2.640625 10.707031 L 2.316406 10.707031 L 2.316406 13.355469 C 2.316406 13.722656 2.609375 14.015625 2.976562 14.015625 L 4.960938 14.015625 C 5.328125 14.015625 5.621094 13.722656 5.621094 13.355469 L 5.621094 7.925781 L 10.253906 11.578125 L 10.253906 13.355469 C 10.253906 13.722656 10.546875 14.015625 10.914062 14.015625 L 12.898438 14.015625 C 13.265625 14.015625 13.5625 13.722656 13.5625 13.355469 L 13.5625 10.707031 L 13.234375 10.707031 C 12.867188 10.707031 12.574219 10.410156 12.574219 10.046875 L 12.574219 10.042969 C 12.574219 9.679688 12.867188 9.386719 13.234375 9.386719 L 13.5625 9.386719 L 13.5625 8.394531 L 13.234375 8.394531 C 12.867188 8.394531 12.574219 8.101562 12.574219 7.738281 L 12.574219 7.726562 C 12.574219 7.363281 12.867188 7.070312 13.234375 7.070312 L 13.5625 7.070312 L 13.5625 6.078125 L 13.234375 6.078125 C 12.867188 6.078125 12.574219 5.785156 12.574219 5.421875 L 12.574219 5.417969 C 12.574219 5.054688 12.867188 4.761719 13.234375 4.761719 L 13.5625 4.761719 L 13.5625 2.109375 C 13.5625 1.742188 13.265625 1.449219 12.898438 1.449219 L 10.914062 1.449219 C 10.546875 1.449219 10.253906 1.742188 10.253906 2.109375 L 10.253906 7.609375 L 5.621094 3.953125 L 5.621094 2.109375 C 5.621094 1.742188 5.328125 1.449219 4.960938 1.449219 Z M 2.976562 1.449219 "/>
</g>
</svg>
