
<svg xmlns="http://www.w3.org/2000/svg" xmlns:xlink="http://www.w3.org/1999/xlink" width="22px" height="22px" viewBox="0 0 22 22" version="1.1">
<defs>
<linearGradient id="linear0" gradientUnits="userSpaceOnUse" x1="960" y1="1695.118164" x2="960" y2="815.118103" gradientTransform="matrix(0.0113699,0,0,0.0113699,0,-7.172976)">
<stop offset="0" style="stop-color:rgb(47.058824%,56.470588%,61.176471%);stop-opacity:1;"/>
<stop offset="1" style="stop-color:rgb(56.470588%,64.313725%,68.235294%);stop-opacity:1;"/>
</linearGradient>
<linearGradient id="linear1" gradientUnits="userSpaceOnUse" x1="254" y1="222.916672" x2="254" y2="95.916664" >
<stop offset="0" style="stop-color:rgb(47.058824%,56.470588%,61.176471%);stop-opacity:1;"/>
<stop offset="1" style="stop-color:rgb(56.470588%,64.313725%,68.235294%);stop-opacity:1;"/>
</linearGradient>
<linearGradient id="linear2" gradientUnits="userSpaceOnUse" x1="254" y1="222.916672" x2="254" y2="95.916664" >
<stop offset="0" style="stop-color:rgb(47.058824%,56.470588%,61.176471%);stop-opacity:1;"/>
<stop offset="1" style="stop-color:rgb(56.470588%,64.313725%,68.235294%);stop-opacity:1;"/>
</linearGradient>
<linearGradient id="linear3" gradientUnits="userSpaceOnUse" x1="254" y1="233.5" x2="254" y2="254.666672" gradientTransform="matrix(0.0429728,0,0,0.0429728,0.682194,8.784368)">
<stop offset="0" style="stop-color:rgb(0%,0%,0%);stop-opacity:0.27451;"/>
<stop offset="1" style="stop-color:rgb(0%,0%,0%);stop-opacity:0;"/>
</linearGradient>
<radialGradient id="radial0" gradientUnits="userSpaceOnUse" cx="450.908936" cy="189.579361" fx="450.908936" fy="189.579361" r="21.166656" gradientTransform="matrix(0.000000119742,-0.053716,-0.0966889,-0.0000000698079,30.837062,43.266995)">
<stop offset="0" style="stop-color:rgb(0%,0%,0%);stop-opacity:0.313725;"/>
<stop offset="0.222222" style="stop-color:rgb(0%,0%,0%);stop-opacity:0.27451;"/>
<stop offset="1" style="stop-color:rgb(0%,0%,0%);stop-opacity:0;"/>
</radialGradient>
<radialGradient id="radial1" gradientUnits="userSpaceOnUse" cx="450.908936" cy="189.579361" fx="450.908936" fy="189.579361" r="21.166656" gradientTransform="matrix(-0.000000119742,0.053716,0.0966889,0.0000000698079,-9.006857,-5.629938)">
<stop offset="0" style="stop-color:rgb(0%,0%,0%);stop-opacity:0.313725;"/>
<stop offset="0.222222" style="stop-color:rgb(0%,0%,0%);stop-opacity:0.27451;"/>
<stop offset="1" style="stop-color:rgb(0%,0%,0%);stop-opacity:0;"/>
</radialGradient>
<radialGradient id="radial2" gradientUnits="userSpaceOnUse" cx="450.908936" cy="189.579361" fx="450.908936" fy="189.579361" r="21.166656" gradientTransform="matrix(-0.000000119742,-0.053716,0.0966889,-0.0000000698079,-9.006857,43.266995)">
<stop offset="0" style="stop-color:rgb(0%,0%,0%);stop-opacity:0.313725;"/>
<stop offset="0.222222" style="stop-color:rgb(0%,0%,0%);stop-opacity:0.27451;"/>
<stop offset="1" style="stop-color:rgb(0%,0%,0%);stop-opacity:0;"/>
</radialGradient>
<radialGradient id="radial3" gradientUnits="userSpaceOnUse" cx="450.908936" cy="189.579361" fx="450.908936" fy="189.579361" r="21.166656" gradientTransform="matrix(0.000000119742,0.053716,-0.0966889,0.0000000698079,30.837062,-5.629938)">
<stop offset="0" style="stop-color:rgb(0%,0%,0%);stop-opacity:0.313725;"/>
<stop offset="0.222222" style="stop-color:rgb(0%,0%,0%);stop-opacity:0.27451;"/>
<stop offset="1" style="stop-color:rgb(0%,0%,0%);stop-opacity:0;"/>
</radialGradient>
<linearGradient id="linear4" gradientUnits="userSpaceOnUse" x1="254" y1="222.916672" x2="254" y2="95.916664" >
<stop offset="0" style="stop-color:rgb(47.058824%,56.470588%,61.176471%);stop-opacity:1;"/>
<stop offset="1" style="stop-color:rgb(56.470588%,64.313725%,68.235294%);stop-opacity:1;"/>
</linearGradient>
</defs>
<g id="surface1">
<path style=" stroke:none;fill-rule:nonzero;fill:url(#linear0);" d="M 15.007812 2.09375 C 13.007812 2.09375 11.289062 3.257812 10.488281 4.945312 C 10.1875 4.867188 9.875 4.824219 9.550781 4.824219 C 7.996094 4.824219 6.671875 5.792969 6.152344 7.160156 C 5.703125 6.835938 5.148438 6.644531 4.546875 6.644531 C 3.035156 6.644531 1.820312 7.859375 1.820312 9.371094 C 1.820312 10.882812 3.035156 12.101562 4.546875 12.101562 C 4.660156 12.101562 4.769531 12.09375 4.878906 12.082031 C 4.917969 12.09375 4.960938 12.101562 5.003906 12.101562 L 15.007812 12.101562 C 17.78125 12.101562 20.011719 9.867188 20.011719 7.097656 C 20.011719 4.324219 17.78125 2.09375 15.007812 2.09375 Z M 15.007812 2.09375 "/>
<path style=" stroke:none;fill-rule:nonzero;fill:rgb(100%,100%,100%);fill-opacity:0.392157;" d="M 15.007812 2.09375 C 13.007812 2.09375 11.289062 3.257812 10.488281 4.945312 C 10.1875 4.867188 9.875 4.824219 9.550781 4.824219 C 7.996094 4.824219 6.671875 5.792969 6.152344 7.160156 C 5.703125 6.835938 5.148438 6.644531 4.546875 6.644531 C 3.035156 6.644531 1.820312 7.859375 1.820312 9.371094 C 1.820312 9.410156 1.820312 9.449219 1.820312 9.484375 C 1.882812 8.027344 3.074219 6.871094 4.546875 6.871094 C 5.148438 6.871094 5.703125 7.0625 6.152344 7.386719 C 6.671875 6.019531 7.996094 5.050781 9.550781 5.050781 C 9.875 5.050781 10.1875 5.09375 10.488281 5.171875 C 11.289062 3.484375 13.007812 2.320312 15.007812 2.320312 C 17.742188 2.320312 19.949219 4.492188 20.007812 7.210938 C 20.011719 7.171875 20.011719 7.136719 20.011719 7.097656 C 20.011719 4.324219 17.78125 2.09375 15.007812 2.09375 Z M 15.007812 2.09375 "/>
<path style=" stroke:none;fill-rule:nonzero;fill:rgb(0%,0%,0%);fill-opacity:0.235294;" d="M 20.011719 6.992188 C 19.957031 9.71875 17.746094 11.890625 15.007812 11.894531 L 5.003906 11.894531 C 4.960938 11.894531 4.917969 11.886719 4.878906 11.871094 C 4.769531 11.886719 4.660156 11.894531 4.546875 11.894531 C 3.070312 11.894531 1.875 10.730469 1.820312 9.269531 C 1.820312 9.300781 1.820312 9.335938 1.820312 9.371094 C 1.820312 10.882812 3.035156 12.101562 4.546875 12.101562 C 4.660156 12.101562 4.769531 12.09375 4.878906 12.082031 C 4.917969 12.09375 4.960938 12.101562 5.003906 12.101562 L 15.007812 12.101562 C 17.78125 12.101562 20.011719 9.867188 20.011719 7.097656 C 20.011719 7.0625 20.011719 7.027344 20.011719 6.992188 Z M 20.011719 6.992188 "/>
<path style="fill:none;stroke-width:3;stroke-linecap:round;stroke-linejoin:miter;stroke:rgb(12.941177%,12.941177%,12.941177%);stroke-opacity:1;stroke-miterlimit:4;" d="M 349.239546 -166.277468 C 302.698513 -166.277468 262.702313 -139.189132 244.06772 -99.920136 C 237.068385 -101.738145 229.796349 -102.73805 222.251611 -102.73805 C 186.07323 -102.73805 155.257976 -80.194737 143.168216 -48.379578 C 132.714664 -55.924316 119.806799 -60.378438 105.808129 -60.378438 C 70.629653 -60.378438 42.359612 -32.108397 42.359612 3.070079 C 42.359612 38.248555 70.629653 66.609497 105.808129 66.609497 C 108.444242 66.609497 110.989455 66.427696 113.534668 66.154994 C 114.443672 66.427696 115.443577 66.609497 116.443482 66.609497 L 349.239546 66.609497 C 413.778869 66.609497 465.683028 14.614437 465.683028 -49.833985 C 465.683028 -114.373308 413.778869 -166.277468 349.239546 -166.277468 Z M 349.239546 -166.277468 " transform="matrix(0.0429728,0,0,0.0429728,0,9.239164)"/>
<path style="fill-rule:nonzero;fill:url(#linear1);stroke-width:3;stroke-linecap:square;stroke-linejoin:round;stroke:rgb(12.941177%,12.941177%,12.941177%);stroke-opacity:1;stroke-miterlimit:4;" d="M 68.811644 95.879443 L 439.230996 95.879443 C 445.048625 95.879443 449.775449 100.697167 449.775449 106.514796 C 449.775449 112.332425 445.048625 117.059249 439.230996 117.059249 L 68.811644 117.059249 C 62.903114 117.059249 58.176291 112.332425 58.176291 106.514796 C 58.176291 100.697167 62.903114 95.879443 68.811644 95.879443 Z M 68.811644 95.879443 " transform="matrix(0.0429728,0,0,0.0429728,0,9.239164)"/>
<path style="fill-rule:nonzero;fill:url(#linear2);stroke-width:3;stroke-linecap:square;stroke-linejoin:round;stroke:rgb(12.941177%,12.941177%,12.941177%);stroke-opacity:1;stroke-miterlimit:4;" d="M 132.260161 148.874408 L 375.691578 148.874408 C 381.509207 148.874408 386.326932 153.32853 386.326932 158.782558 L 386.326932 160.055164 C 386.326932 165.509191 381.509207 169.963313 375.691578 169.963313 L 132.260161 169.963313 C 126.442532 169.963313 121.715709 165.509191 121.715709 160.055164 L 121.715709 158.782558 C 121.715709 153.32853 126.442532 148.874408 132.260161 148.874408 Z M 132.260161 148.874408 " transform="matrix(0.0429728,0,0,0.0429728,0,9.239164)"/>
<path style=" stroke:none;fill-rule:nonzero;fill:url(#linear3);" d="M 9.097656 18.820312 L 12.734375 18.820312 L 12.734375 19.726562 L 9.097656 19.726562 Z M 9.097656 18.820312 "/>
<path style=" stroke:none;fill-rule:nonzero;fill:url(#radial0);" d="M 12.734375 18.820312 L 14.554688 18.820312 L 14.554688 17.910156 L 12.734375 17.910156 Z M 12.734375 18.820312 "/>
<path style=" stroke:none;fill-rule:nonzero;fill:url(#radial1);" d="M 9.097656 18.820312 L 7.277344 18.820312 L 7.277344 19.726562 L 9.097656 19.726562 Z M 9.097656 18.820312 "/>
<path style=" stroke:none;fill-rule:nonzero;fill:url(#radial2);" d="M 9.097656 18.820312 L 7.277344 18.820312 L 7.277344 17.910156 L 9.097656 17.910156 Z M 9.097656 18.820312 "/>
<path style=" stroke:none;fill-rule:nonzero;fill:url(#radial3);" d="M 12.734375 18.820312 L 14.554688 18.820312 L 14.554688 19.726562 L 12.734375 19.726562 Z M 12.734375 18.820312 "/>
<path style="fill-rule:nonzero;fill:url(#linear4);stroke-width:3;stroke-linecap:square;stroke-linejoin:round;stroke:rgb(12.941177%,12.941177%,12.941177%);stroke-opacity:1;stroke-miterlimit:4;" d="M 190.527353 201.778473 L 317.515287 201.778473 C 323.332917 201.778473 328.05974 205.959893 328.05974 211.141219 L 328.05974 213.504631 C 328.05974 218.685957 323.332917 222.958278 317.515287 222.958278 L 190.527353 222.958278 C 184.618823 222.958278 179.891999 218.685957 179.891999 213.504631 L 179.891999 211.141219 C 179.891999 205.959893 184.618823 201.778473 190.527353 201.778473 Z M 190.527353 201.778473 " transform="matrix(0.0429728,0,0,0.0429728,0,9.239164)"/>
</g>
</svg>
