
<svg xmlns="http://www.w3.org/2000/svg" xmlns:xlink="http://www.w3.org/1999/xlink" width="48px" height="48px" viewBox="0 0 48 48" version="1.1">
<defs>
<linearGradient id="linear0" gradientUnits="userSpaceOnUse" x1="254" y1="233.5" x2="254" y2="254.666672" gradientTransform="matrix(0.093759,0,0,0.093759,0.99228,20.158177)">
<stop offset="0" style="stop-color:rgb(0%,0%,0%);stop-opacity:0.27451;"/>
<stop offset="1" style="stop-color:rgb(0%,0%,0%);stop-opacity:0;"/>
</linearGradient>
<radialGradient id="radial0" gradientUnits="userSpaceOnUse" cx="450.908936" cy="189.579361" fx="450.908936" fy="189.579361" r="21.166656" gradientTransform="matrix(0.000000261256,-0.117199,-0.210958,-0.000000152308,74.226854,95.393)">
<stop offset="0" style="stop-color:rgb(0%,0%,0%);stop-opacity:0.313726;"/>
<stop offset="0.222222" style="stop-color:rgb(0%,0%,0%);stop-opacity:0.27451;"/>
<stop offset="1" style="stop-color:rgb(0%,0%,0%);stop-opacity:0;"/>
</radialGradient>
<radialGradient id="radial1" gradientUnits="userSpaceOnUse" cx="450.908936" cy="189.579361" fx="450.908936" fy="189.579361" r="21.166656" gradientTransform="matrix(-0.000000261256,0.117199,0.210958,0.000000152308,-27.589574,-11.291219)">
<stop offset="0" style="stop-color:rgb(0%,0%,0%);stop-opacity:0.313726;"/>
<stop offset="0.222222" style="stop-color:rgb(0%,0%,0%);stop-opacity:0.27451;"/>
<stop offset="1" style="stop-color:rgb(0%,0%,0%);stop-opacity:0;"/>
</radialGradient>
<radialGradient id="radial2" gradientUnits="userSpaceOnUse" cx="450.908936" cy="189.579361" fx="450.908936" fy="189.579361" r="21.166656" gradientTransform="matrix(-0.000000261256,-0.117199,0.210958,-0.000000152308,-27.589574,95.393)">
<stop offset="0" style="stop-color:rgb(0%,0%,0%);stop-opacity:0.313726;"/>
<stop offset="0.222222" style="stop-color:rgb(0%,0%,0%);stop-opacity:0.27451;"/>
<stop offset="1" style="stop-color:rgb(0%,0%,0%);stop-opacity:0;"/>
</radialGradient>
<radialGradient id="radial3" gradientUnits="userSpaceOnUse" cx="450.908936" cy="189.579361" fx="450.908936" fy="189.579361" r="21.166656" gradientTransform="matrix(0.000000261256,0.117199,-0.210958,0.000000152308,74.226849,-11.291219)">
<stop offset="0" style="stop-color:rgb(0%,0%,0%);stop-opacity:0.313726;"/>
<stop offset="0.222222" style="stop-color:rgb(0%,0%,0%);stop-opacity:0.27451;"/>
<stop offset="1" style="stop-color:rgb(0%,0%,0%);stop-opacity:0;"/>
</radialGradient>
<linearGradient id="linear1" gradientUnits="userSpaceOnUse" x1="940" y1="1695.118164" x2="940" y2="175.118118" gradientTransform="matrix(0.0248071,0,0,0.0248071,0,0)">
<stop offset="0" style="stop-color:rgb(50.196081%,79.607844%,76.862746%);stop-opacity:1;"/>
<stop offset="1" style="stop-color:rgb(69.803923%,87.450981%,85.882354%);stop-opacity:1;"/>
</linearGradient>
<linearGradient id="linear2" gradientUnits="userSpaceOnUse" x1="249.189423" y1="233.5" x2="249.189423" y2="254.666687" gradientTransform="matrix(0.0448412,0,0,0.164078,22.563635,-24.541366)">
<stop offset="0" style="stop-color:rgb(0%,0%,0%);stop-opacity:0.27451;"/>
<stop offset="1" style="stop-color:rgb(0%,0%,0%);stop-opacity:0;"/>
</linearGradient>
<linearGradient id="linear3" gradientUnits="userSpaceOnUse" x1="338.666656" y1="233.5" x2="338.666656" y2="-168.666672" gradientTransform="matrix(0.093759,0,0,0.093759,0,20.158174)">
<stop offset="0" style="stop-color:rgb(14.901961%,65.098041%,60.392159%);stop-opacity:1;"/>
<stop offset="1" style="stop-color:rgb(30.19608%,71.372551%,67.450982%);stop-opacity:1;"/>
</linearGradient>
<linearGradient id="linear4" gradientUnits="userSpaceOnUse" x1="880" y1="1695.118164" x2="880" y2="175.118118" >
<stop offset="0" style="stop-color:rgb(14.901961%,65.098041%,60.392159%);stop-opacity:1;"/>
<stop offset="1" style="stop-color:rgb(30.19608%,71.372551%,67.450982%);stop-opacity:1;"/>
</linearGradient>
</defs>
<g id="surface1">
<path style=" stroke:none;fill-rule:nonzero;fill:url(#linear0);" d="M 11.90625 42.050781 L 34.730469 42.050781 L 34.730469 44.035156 L 11.90625 44.035156 Z M 11.90625 42.050781 "/>
<path style=" stroke:none;fill-rule:nonzero;fill:url(#radial0);" d="M 34.730469 42.050781 L 38.699219 42.050781 L 38.699219 40.066406 L 34.730469 40.066406 Z M 34.730469 42.050781 "/>
<path style=" stroke:none;fill-rule:nonzero;fill:url(#radial1);" d="M 11.90625 42.050781 L 7.941406 42.050781 L 7.941406 44.035156 L 11.90625 44.035156 Z M 11.90625 42.050781 "/>
<path style=" stroke:none;fill-rule:nonzero;fill:url(#radial2);" d="M 11.90625 42.050781 L 7.941406 42.050781 L 7.941406 40.066406 L 11.90625 40.066406 Z M 11.90625 42.050781 "/>
<path style=" stroke:none;fill-rule:nonzero;fill:url(#radial3);" d="M 34.730469 42.050781 L 38.699219 42.050781 L 38.699219 44.035156 L 34.730469 44.035156 Z M 34.730469 42.050781 "/>
<path style=" stroke:none;fill-rule:nonzero;fill:url(#linear1);" d="M 27.816406 4.34375 L 9.921875 4.34375 C 8.824219 4.34375 7.941406 5.230469 7.941406 6.328125 L 7.941406 40.066406 C 7.941406 41.164062 8.824219 42.050781 9.921875 42.050781 L 36.714844 42.050781 C 37.8125 42.050781 38.699219 41.164062 38.699219 40.066406 L 38.699219 15.230469 Z M 27.816406 4.34375 "/>
<path style=" stroke:none;fill-rule:nonzero;fill:url(#linear2);" d="M 27.785156 13.769531 L 37.210938 13.769531 L 38.699219 15.257812 L 38.699219 17.246094 L 27.785156 17.246094 Z M 27.785156 13.769531 "/>
<path style=" stroke:none;fill-rule:nonzero;fill:rgb(0%,0%,0%);fill-opacity:0.235294;" d="M 7.941406 39.296875 L 7.941406 40.066406 C 7.941406 41.164062 8.824219 42.050781 9.921875 42.050781 L 36.714844 42.050781 C 37.8125 42.050781 38.699219 41.164062 38.699219 40.066406 L 38.699219 39.296875 C 38.699219 40.394531 37.8125 41.277344 36.714844 41.277344 L 9.921875 41.277344 C 8.824219 41.277344 7.941406 40.394531 7.941406 39.296875 Z M 7.941406 39.296875 "/>
<path style=" stroke:none;fill-rule:nonzero;fill:rgb(100%,100%,100%);fill-opacity:0.392157;" d="M 9.921875 4.34375 C 8.824219 4.34375 7.941406 5.230469 7.941406 6.328125 L 7.941406 7.074219 C 7.941406 5.972656 8.824219 5.089844 9.921875 5.089844 L 27.816406 5.089844 L 38.699219 15.976562 L 38.699219 15.230469 L 27.816406 4.34375 Z M 9.921875 4.34375 "/>
<path style=" stroke:none;fill-rule:nonzero;fill:url(#linear3);" d="M 38.699219 15.230469 L 27.816406 4.34375 L 27.816406 13.246094 C 27.816406 14.34375 28.699219 15.230469 29.796875 15.230469 Z M 38.699219 15.230469 "/>
<path style=" stroke:none;fill-rule:nonzero;fill:rgb(0%,0%,0%);fill-opacity:0.235294;" d="M 27.816406 12.777344 L 27.816406 13.246094 C 27.816406 14.34375 28.699219 15.230469 29.796875 15.230469 L 38.699219 15.230469 L 38.230469 14.761719 L 29.796875 14.761719 C 28.699219 14.761719 27.816406 13.878906 27.816406 12.777344 Z M 27.816406 12.777344 "/>
<path style=" stroke:none;fill-rule:nonzero;fill:rgb(100%,100%,100%);fill-opacity:0.392157;" d="M 27.816406 4.34375 L 27.816406 5.089844 L 37.953125 15.230469 L 38.699219 15.230469 Z M 27.816406 4.34375 "/>
<path style=" stroke:none;fill-rule:nonzero;fill:rgb(12.941177%,12.941177%,12.941177%);fill-opacity:1;" d="M 27.8125 4.203125 C 27.734375 4.203125 27.675781 4.269531 27.675781 4.34375 L 27.675781 13.246094 C 27.675781 14.417969 28.621094 15.371094 29.796875 15.371094 L 38.699219 15.371094 C 38.757812 15.371094 38.808594 15.335938 38.832031 15.285156 C 38.851562 15.230469 38.839844 15.167969 38.796875 15.132812 L 27.910156 4.246094 C 27.886719 4.21875 27.847656 4.203125 27.8125 4.203125 Z M 27.957031 4.683594 L 38.359375 15.089844 L 29.796875 15.089844 C 28.773438 15.089844 27.957031 14.269531 27.957031 13.246094 Z M 27.957031 4.683594 "/>
<path style=" stroke:none;fill-rule:nonzero;fill:rgb(12.941177%,12.941177%,12.941177%);fill-opacity:1;" d="M 9.921875 4.203125 C 8.746094 4.203125 7.800781 5.152344 7.800781 6.328125 L 7.800781 40.066406 C 7.800781 41.242188 8.746094 42.191406 9.921875 42.191406 L 36.714844 42.191406 C 37.890625 42.191406 38.839844 41.242188 38.839844 40.066406 L 38.839844 15.230469 C 38.839844 15.191406 38.824219 15.160156 38.796875 15.132812 L 27.910156 4.246094 C 27.886719 4.21875 27.847656 4.203125 27.816406 4.203125 Z M 9.921875 4.484375 L 27.753906 4.484375 L 38.558594 15.285156 L 38.558594 40.066406 C 38.558594 41.089844 37.738281 41.910156 36.714844 41.910156 L 9.921875 41.910156 C 8.898438 41.910156 8.082031 41.089844 8.082031 40.066406 L 8.082031 6.328125 C 8.082031 5.304688 8.898438 4.484375 9.921875 4.484375 Z M 9.921875 4.484375 "/>
<path style="fill-rule:nonzero;fill:url(#linear4);stroke-width:11.338583;stroke-linecap:round;stroke-linejoin:round;stroke:rgb(12.941177%,12.941177%,12.941177%);stroke-opacity:1;stroke-miterlimit:4;" d="M 680.092019 695.208674 C 668.911993 695.208674 660.093944 704.026723 660.093944 715.049284 L 660.093944 935.185576 L 599.942253 975.181726 L 660.093944 1015.020411 L 660.093944 1235.156702 C 660.093944 1246.179263 668.911993 1255.154777 680.092019 1255.154777 L 800.08047 1255.154777 C 811.103031 1255.154777 819.92108 1246.179263 819.92108 1235.156702 L 819.92108 1195.160552 C 819.92108 1184.137991 811.103031 1175.162477 800.08047 1175.162477 L 740.086244 1175.162477 L 740.086244 995.179801 L 710.010399 975.181726 L 740.086244 955.026186 L 740.086244 775.04351 L 800.08047 775.04351 C 811.103031 775.04351 819.92108 766.225461 819.92108 755.2029 L 819.92108 715.049284 C 819.92108 704.026723 811.103031 695.208674 800.08047 695.208674 Z M 1080.053521 695.208674 C 1068.873495 695.208674 1060.055446 704.026723 1060.055446 715.049284 L 1060.055446 755.2029 C 1060.055446 766.225461 1068.873495 775.04351 1080.053521 775.04351 L 1140.047747 775.04351 L 1140.047747 955.026186 L 1169.966127 975.181726 L 1140.047747 995.179801 L 1140.047747 1175.162477 L 1080.053521 1175.162477 C 1068.873495 1175.162477 1060.055446 1184.137991 1060.055446 1195.160552 L 1060.055446 1235.156702 C 1060.055446 1246.179263 1068.873495 1255.154777 1080.053521 1255.154777 L 1200.041972 1255.154777 C 1211.064533 1255.154777 1220.040047 1246.179263 1220.040047 1235.156702 L 1220.040047 1015.020411 L 1280.034273 975.181726 L 1220.040047 935.185576 L 1220.040047 715.049284 C 1220.040047 704.026723 1211.064533 695.208674 1200.041972 695.208674 Z M 939.90953 775.04351 C 906.841847 775.04351 879.915305 801.970052 879.915305 835.037735 C 879.915305 868.420348 906.841847 895.03196 939.90953 895.03196 C 973.292144 895.03196 999.903756 868.420348 999.903756 835.037735 C 999.903756 801.970052 973.292144 775.04351 939.90953 775.04351 Z M 939.90953 1055.174026 C 906.841847 1055.174026 879.915305 1081.943103 879.915305 1115.168252 C 879.915305 1148.3934 906.841847 1175.162477 939.90953 1175.162477 C 973.292144 1175.162477 999.903756 1148.3934 999.903756 1115.168252 C 999.903756 1081.943103 973.292144 1055.174026 939.90953 1055.174026 Z M 939.90953 1055.174026 " transform="matrix(0.0248071,0,0,0.0248071,0,0)"/>
</g>
</svg>
