<?xml version="1.0" encoding="UTF-8"?>
<svg xmlns="http://www.w3.org/2000/svg" xmlns:xlink="http://www.w3.org/1999/xlink" width="48px" height="48px" viewBox="0 0 48 48" version="1.1">
<defs>
<linearGradient id="linear0" gradientUnits="userSpaceOnUse" x1="254" y1="233.5" x2="254" y2="254.666672" gradientTransform="matrix(0.093759,0,0,0.093759,-0.00000572259,20.158181)">
<stop offset="0" style="stop-color:rgb(0%,0%,0%);stop-opacity:0.27451;"/>
<stop offset="1" style="stop-color:rgb(0%,0%,0%);stop-opacity:0;"/>
</linearGradient>
<radialGradient id="radial0" gradientUnits="userSpaceOnUse" cx="450.908936" cy="189.579361" fx="450.908936" fy="189.579361" r="21.166656" gradientTransform="matrix(0.000000261256,-0.117199,-0.210958,-0.000000152308,81.172819,95.393002)">
<stop offset="0" style="stop-color:rgb(0%,0%,0%);stop-opacity:0.313726;"/>
<stop offset="0.222222" style="stop-color:rgb(0%,0%,0%);stop-opacity:0.27451;"/>
<stop offset="1" style="stop-color:rgb(0%,0%,0%);stop-opacity:0;"/>
</radialGradient>
<radialGradient id="radial1" gradientUnits="userSpaceOnUse" cx="450.908936" cy="189.579361" fx="450.908936" fy="189.579361" r="21.166656" gradientTransform="matrix(-0.000000261256,0.117199,0.210958,0.000000152308,-33.543267,-11.291215)">
<stop offset="0" style="stop-color:rgb(0%,0%,0%);stop-opacity:0.313726;"/>
<stop offset="0.222222" style="stop-color:rgb(0%,0%,0%);stop-opacity:0.27451;"/>
<stop offset="1" style="stop-color:rgb(0%,0%,0%);stop-opacity:0;"/>
</radialGradient>
<radialGradient id="radial2" gradientUnits="userSpaceOnUse" cx="450.908936" cy="189.579361" fx="450.908936" fy="189.579361" r="21.166656" gradientTransform="matrix(-0.000000261256,-0.117199,0.210958,-0.000000152308,-33.543267,95.393002)">
<stop offset="0" style="stop-color:rgb(0%,0%,0%);stop-opacity:0.313726;"/>
<stop offset="0.222222" style="stop-color:rgb(0%,0%,0%);stop-opacity:0.27451;"/>
<stop offset="1" style="stop-color:rgb(0%,0%,0%);stop-opacity:0;"/>
</radialGradient>
<radialGradient id="radial3" gradientUnits="userSpaceOnUse" cx="450.908936" cy="189.579361" fx="450.908936" fy="189.579361" r="21.166656" gradientTransform="matrix(0.000000261256,0.117199,-0.210958,0.000000152308,81.172816,-11.291216)">
<stop offset="0" style="stop-color:rgb(0%,0%,0%);stop-opacity:0.313726;"/>
<stop offset="0.222222" style="stop-color:rgb(0%,0%,0%);stop-opacity:0.27451;"/>
<stop offset="1" style="stop-color:rgb(0%,0%,0%);stop-opacity:0;"/>
</radialGradient>
<linearGradient id="linear1" gradientUnits="userSpaceOnUse" x1="254" y1="-147.5" x2="254" y2="-31.083334" gradientTransform="matrix(0.093759,0,0,0.093759,0.00000187463,20.158172)">
<stop offset="0" style="stop-color:rgb(64.313728%,64.313728%,64.313728%);stop-opacity:0;"/>
<stop offset="1" style="stop-color:rgb(100%,100%,100%);stop-opacity:0.196078;"/>
</linearGradient>
<linearGradient id="linear2" gradientUnits="userSpaceOnUse" x1="254" y1="233.5" x2="254" y2="-105.166656" gradientTransform="matrix(0.093759,0,0,0.093759,-0.19427,20.158175)">
<stop offset="0" style="stop-color:rgb(34.509805%,34.509805%,34.509805%);stop-opacity:0;"/>
<stop offset="1" style="stop-color:rgb(98.039216%,98.039216%,98.039216%);stop-opacity:0.196078;"/>
</linearGradient>
</defs>
<g id="surface1">
<path style=" stroke:none;fill-rule:nonzero;fill:url(#linear0);" d="M 5.953125 42.050781 L 41.675781 42.050781 L 41.675781 44.035156 L 5.953125 44.035156 Z M 5.953125 42.050781 "/>
<path style=" stroke:none;fill-rule:nonzero;fill:url(#radial0);" d="M 41.675781 42.050781 L 45.644531 42.050781 L 45.644531 40.066406 L 41.675781 40.066406 Z M 41.675781 42.050781 "/>
<path style=" stroke:none;fill-rule:nonzero;fill:url(#radial1);" d="M 5.953125 42.050781 L 1.984375 42.050781 L 1.984375 44.035156 L 5.953125 44.035156 Z M 5.953125 42.050781 "/>
<path style=" stroke:none;fill-rule:nonzero;fill:url(#radial2);" d="M 5.953125 42.050781 L 1.984375 42.050781 L 1.984375 40.066406 L 5.953125 40.066406 Z M 5.953125 42.050781 "/>
<path style=" stroke:none;fill-rule:nonzero;fill:url(#radial3);" d="M 41.675781 42.050781 L 45.644531 42.050781 L 45.644531 44.035156 L 41.675781 44.035156 Z M 41.675781 42.050781 "/>
<path style=" stroke:none;fill-rule:nonzero;fill:rgb(56.470591%,79.215688%,97.647059%);fill-opacity:1;" d="M 10.914062 6.328125 L 43.164062 6.328125 C 44.261719 6.328125 45.148438 7.21875 45.148438 8.3125 L 45.148438 15.753906 C 45.148438 16.851562 44.261719 17.738281 43.164062 17.738281 L 10.914062 17.738281 C 9.820312 17.738281 8.929688 16.851562 8.929688 15.753906 L 8.929688 8.3125 C 8.929688 7.21875 9.820312 6.328125 10.914062 6.328125 Z M 10.914062 6.328125 "/>
<path style=" stroke:none;fill-rule:nonzero;fill:url(#linear1);" d="M 10.914062 6.328125 L 43.164062 6.328125 C 44.261719 6.328125 45.148438 7.21875 45.148438 8.3125 L 45.148438 15.753906 C 45.148438 16.851562 44.261719 17.738281 43.164062 17.738281 L 10.914062 17.738281 C 9.820312 17.738281 8.929688 16.851562 8.929688 15.753906 L 8.929688 8.3125 C 8.929688 7.21875 9.820312 6.328125 10.914062 6.328125 Z M 10.914062 6.328125 "/>
<path style=" stroke:none;fill-rule:nonzero;fill:rgb(96.862745%,96.862745%,96.862745%);fill-opacity:0.392157;" d="M 10.914062 6.460938 C 9.816406 6.460938 8.929688 7.347656 8.929688 8.445312 L 8.929688 8.695312 C 8.929688 7.59375 9.816406 6.710938 10.914062 6.710938 L 43.164062 6.710938 C 44.265625 6.710938 45.148438 7.59375 45.148438 8.695312 L 45.148438 8.445312 C 45.148438 7.347656 44.265625 6.460938 43.164062 6.460938 Z M 10.914062 6.460938 "/>
<path style=" stroke:none;fill-rule:nonzero;fill:rgb(12.941177%,12.941177%,12.941177%);fill-opacity:1;" d="M 10.914062 6.1875 C 9.738281 6.1875 8.789062 7.136719 8.789062 8.3125 L 8.789062 15.753906 C 8.789062 16.929688 9.738281 17.878906 10.914062 17.878906 L 43.164062 17.878906 C 44.339844 17.878906 45.289062 16.929688 45.289062 15.753906 L 45.289062 8.3125 C 45.289062 7.136719 44.339844 6.1875 43.164062 6.1875 Z M 10.914062 6.46875 L 43.164062 6.46875 C 44.1875 6.46875 45.007812 7.289062 45.007812 8.3125 L 45.007812 15.753906 C 45.007812 16.78125 44.1875 17.597656 43.164062 17.597656 L 10.914062 17.597656 C 9.890625 17.597656 9.070312 16.78125 9.070312 15.753906 L 9.070312 8.3125 C 9.070312 7.289062 9.890625 6.46875 10.914062 6.46875 Z M 10.914062 6.46875 "/>
<path style=" stroke:none;fill-rule:nonzero;fill:rgb(73.333335%,87.058824%,98.431373%);fill-opacity:1;" d="M 3.96875 10.296875 C 2.871094 10.296875 1.984375 11.183594 1.984375 12.28125 L 1.984375 40.066406 C 1.984375 41.164062 2.871094 42.050781 3.96875 42.050781 L 43.660156 42.050781 C 44.761719 42.050781 45.644531 41.164062 45.644531 40.066406 L 45.644531 15.257812 L 18.851562 15.257812 C 17.753906 15.257812 16.867188 14.375 16.867188 13.273438 L 16.867188 10.296875 Z M 3.96875 10.296875 "/>
<path style=" stroke:none;fill-rule:nonzero;fill:url(#linear2);" d="M 3.773438 10.296875 C 2.675781 10.296875 1.789062 11.183594 1.789062 12.28125 L 1.789062 40.066406 C 1.789062 41.164062 2.675781 42.050781 3.773438 42.050781 L 43.464844 42.050781 C 44.566406 42.050781 45.449219 41.164062 45.449219 40.066406 L 45.449219 15.257812 L 18.660156 15.257812 C 17.558594 15.257812 16.675781 14.375 16.675781 13.273438 L 16.675781 10.296875 Z M 3.773438 10.296875 "/>
<path style=" stroke:none;fill-rule:nonzero;fill:rgb(0%,0%,0%);fill-opacity:0.196078;" d="M 3.96875 42.050781 C 2.871094 42.050781 1.984375 41.164062 1.984375 40.066406 L 1.984375 39.816406 C 1.984375 40.917969 2.871094 41.804688 3.96875 41.804688 L 43.660156 41.804688 C 44.761719 41.804688 45.644531 40.917969 45.644531 39.816406 L 45.644531 40.066406 C 45.644531 41.164062 44.761719 42.050781 43.660156 42.050781 Z M 3.96875 42.050781 "/>
<path style=" stroke:none;fill-rule:nonzero;fill:rgb(100%,100%,100%);fill-opacity:0.392157;" d="M 3.96875 10.421875 C 2.871094 10.421875 1.984375 11.308594 1.984375 12.40625 L 1.984375 12.65625 C 1.984375 11.554688 2.871094 10.671875 3.96875 10.671875 L 16.867188 10.671875 L 16.867188 10.421875 Z M 3.96875 10.421875 "/>
<path style=" stroke:none;fill-rule:nonzero;fill:rgb(100%,100%,100%);fill-opacity:0.392157;" d="M 18.730469 15.507812 C 17.628906 15.507812 16.746094 14.621094 16.746094 13.523438 L 16.746094 13.273438 C 16.746094 14.375 17.628906 15.261719 18.730469 15.257812 L 45.644531 15.257812 L 45.644531 15.507812 Z M 18.730469 15.507812 "/>
<path style=" stroke:none;fill-rule:nonzero;fill:rgb(12.941177%,12.941177%,12.941177%);fill-opacity:1;" d="M 3.96875 10.15625 C 2.792969 10.15625 1.84375 11.109375 1.84375 12.28125 L 1.84375 40.066406 C 1.84375 41.242188 2.792969 42.191406 3.96875 42.191406 L 43.660156 42.191406 C 44.835938 42.191406 45.785156 41.242188 45.785156 40.066406 L 45.785156 14.976562 L 18.851562 14.976562 C 17.828125 14.976562 17.007812 14.15625 17.007812 13.132812 L 17.007812 10.15625 Z M 3.96875 10.4375 L 16.726562 10.4375 L 16.726562 13.132812 C 16.726562 14.308594 17.679688 15.257812 18.851562 15.257812 L 45.503906 15.257812 L 45.503906 40.066406 C 45.503906 41.089844 44.683594 41.910156 43.660156 41.910156 L 3.96875 41.910156 C 2.945312 41.910156 2.125 41.089844 2.125 40.066406 L 2.125 12.28125 C 2.125 11.257812 2.945312 10.4375 3.96875 10.4375 Z M 3.96875 10.4375 "/>
<path style=" stroke:none;fill-rule:nonzero;fill:rgb(39.215687%,70.980394%,96.470588%);fill-opacity:1;" d="M 24.648438 19.230469 C 24.09375 19.214844 23.625 19.636719 23.589844 20.191406 C 23.550781 20.746094 23.957031 21.226562 24.511719 21.285156 C 25.785156 21.433594 27.011719 21.996094 28 22.984375 C 30.328125 25.3125 30.328125 29.019531 28 31.351562 C 25.667969 33.679688 21.960938 33.679688 19.628906 31.351562 C 18.644531 30.363281 18.082031 29.136719 17.933594 27.863281 C 17.894531 27.492188 17.660156 27.175781 17.320312 27.027344 C 16.980469 26.878906 16.585938 26.925781 16.289062 27.148438 C 15.992188 27.371094 15.839844 27.734375 15.890625 28.105469 C 16.089844 29.820312 16.859375 31.488281 18.175781 32.804688 C 21.285156 35.917969 26.34375 35.917969 29.453125 32.804688 C 32.566406 29.695312 32.566406 24.640625 29.453125 21.527344 C 28.136719 20.210938 26.46875 19.445312 24.75 19.242188 C 24.71875 19.234375 24.683594 19.234375 24.648438 19.230469 Z M 18.550781 21.152344 C 18.359375 21.152344 18.164062 21.226562 18.019531 21.371094 C 17.726562 21.664062 17.726562 22.144531 18.019531 22.4375 L 22.585938 27.003906 C 22.578125 27.054688 22.574219 27.109375 22.574219 27.167969 C 22.574219 27.855469 23.128906 28.40625 23.816406 28.40625 C 24.449219 28.40625 24.964844 27.9375 25.042969 27.328125 L 27.628906 25.835938 C 27.988281 25.628906 28.113281 25.164062 27.90625 24.804688 C 27.699219 24.449219 27.234375 24.324219 26.875 24.53125 L 24.292969 26.019531 C 24.144531 25.960938 23.984375 25.925781 23.816406 25.925781 C 23.757812 25.925781 23.703125 25.929688 23.652344 25.9375 L 19.085938 21.371094 C 18.9375 21.226562 18.746094 21.152344 18.550781 21.152344 Z M 18.550781 21.152344 "/>
<path style=" stroke:none;fill-rule:nonzero;fill:rgb(0%,0%,0%);fill-opacity:0.235294;" d="M 24.648438 19.230469 C 24.347656 19.222656 24.0625 19.34375 23.859375 19.566406 C 23.65625 19.785156 23.558594 20.085938 23.59375 20.382812 C 23.660156 19.851562 24.117188 19.460938 24.648438 19.476562 C 24.683594 19.476562 24.71875 19.480469 24.75 19.484375 C 26.46875 19.6875 28.136719 20.453125 29.453125 21.773438 C 30.980469 23.296875 31.753906 25.289062 31.785156 27.289062 C 31.816406 25.207031 31.039062 23.113281 29.453125 21.527344 C 28.136719 20.210938 26.46875 19.445312 24.75 19.242188 C 24.71875 19.234375 24.683594 19.234375 24.648438 19.230469 Z M 18.550781 21.152344 C 18.359375 21.152344 18.164062 21.226562 18.019531 21.371094 C 17.84375 21.546875 17.773438 21.792969 17.8125 22.027344 C 17.835938 21.875 17.90625 21.730469 18.019531 21.617188 C 18.164062 21.46875 18.359375 21.398438 18.550781 21.398438 C 18.746094 21.398438 18.9375 21.46875 19.085938 21.617188 L 23.652344 26.179688 C 23.703125 26.175781 23.757812 26.171875 23.816406 26.171875 C 23.984375 26.171875 24.144531 26.203125 24.292969 26.265625 L 26.875 24.773438 C 27.234375 24.566406 27.699219 24.691406 27.90625 25.050781 C 27.949219 25.128906 27.980469 25.214844 27.996094 25.300781 C 28.023438 25.136719 27.996094 24.960938 27.90625 24.804688 C 27.699219 24.449219 27.234375 24.324219 26.875 24.53125 L 24.292969 26.019531 C 24.144531 25.960938 23.984375 25.925781 23.816406 25.925781 C 23.757812 25.925781 23.703125 25.929688 23.652344 25.9375 L 19.085938 21.371094 C 18.9375 21.226562 18.746094 21.152344 18.550781 21.152344 Z M 16.875 26.941406 C 16.585938 26.953125 16.3125 27.082031 16.128906 27.300781 C 15.941406 27.519531 15.851562 27.808594 15.886719 28.09375 C 15.949219 27.574219 16.390625 27.1875 16.914062 27.1875 C 17.4375 27.191406 17.875 27.585938 17.933594 28.105469 C 18.082031 29.378906 18.644531 30.609375 19.628906 31.59375 C 21.960938 33.925781 25.667969 33.925781 28 31.59375 C 29.195312 30.398438 29.777344 28.839844 29.746094 27.289062 C 29.714844 28.757812 29.132812 30.21875 28 31.351562 C 25.667969 33.679688 21.960938 33.679688 19.628906 31.351562 C 18.644531 30.363281 18.082031 29.136719 17.933594 27.863281 C 17.875 27.324219 17.414062 26.921875 16.875 26.941406 Z M 22.578125 27.238281 C 22.578125 27.253906 22.578125 27.273438 22.582031 27.289062 C 22.582031 27.277344 22.582031 27.261719 22.585938 27.246094 Z M 22.578125 27.238281 "/>
<path style=" stroke:none;fill-rule:nonzero;fill:rgb(100%,100%,100%);fill-opacity:0.392157;" d="M 23.617188 20.484375 C 23.546875 20.773438 23.605469 21.078125 23.777344 21.320312 C 23.949219 21.5625 24.214844 21.71875 24.511719 21.746094 C 25.785156 21.898438 27.011719 22.460938 28 23.445312 C 29.101562 24.550781 29.683594 25.960938 29.742188 27.390625 C 29.804688 25.800781 29.226562 24.191406 28 22.964844 C 27.011719 21.980469 25.785156 21.417969 24.511719 21.265625 C 24.074219 21.222656 23.71875 20.90625 23.617188 20.484375 Z M 17.839844 22.128906 C 17.753906 22.390625 17.8125 22.691406 18.019531 22.902344 L 22.585938 27.464844 C 22.578125 27.519531 22.574219 27.574219 22.574219 27.628906 C 22.574219 28.316406 23.128906 28.871094 23.816406 28.871094 C 24.449219 28.871094 24.964844 28.402344 25.042969 27.789062 L 27.628906 26.296875 C 27.945312 26.117188 28.078125 25.734375 27.964844 25.402344 C 27.910156 25.570312 27.792969 25.722656 27.628906 25.816406 L 25.042969 27.308594 C 24.964844 27.921875 24.449219 28.390625 23.816406 28.390625 C 23.128906 28.390625 22.574219 27.835938 22.574219 27.148438 C 22.574219 27.09375 22.578125 27.039062 22.585938 26.984375 L 18.019531 22.417969 C 17.933594 22.335938 17.875 22.234375 17.839844 22.128906 Z M 31.785156 27.390625 C 31.726562 29.351562 30.949219 31.292969 29.453125 32.789062 C 26.34375 35.898438 21.285156 35.898438 18.175781 32.789062 C 16.890625 31.503906 16.128906 29.882812 15.90625 28.210938 C 15.878906 28.328125 15.875 28.449219 15.890625 28.566406 C 16.089844 30.285156 16.859375 31.953125 18.175781 33.269531 C 21.285156 36.382812 26.34375 36.382812 29.453125 33.269531 C 31.070312 31.652344 31.847656 29.511719 31.785156 27.390625 Z M 31.785156 27.390625 "/>
<path style="fill:none;stroke-width:11.338583;stroke-linecap:round;stroke-linejoin:round;stroke:rgb(12.941177%,12.941177%,12.941177%);stroke-opacity:1;stroke-miterlimit:4;" d="M 993.605955 775.201603 C 971.245884 774.571742 952.35005 791.577993 950.932862 813.938064 C 949.35821 836.298134 965.734599 855.666364 988.09467 858.028344 C 1039.428353 864.012025 1088.872453 886.687026 1128.71117 926.525743 C 1222.560481 1020.375054 1222.560481 1169.80961 1128.71117 1263.816386 C 1034.704395 1357.665696 885.269838 1357.665696 791.263062 1263.816386 C 751.58181 1223.977669 728.906809 1174.533569 722.923128 1123.199885 C 721.348475 1108.240683 711.900558 1095.485995 698.201078 1089.502314 C 684.501598 1083.518633 668.597605 1085.408217 656.630243 1094.383738 C 644.662881 1103.359259 638.521735 1118.003531 640.568784 1132.962733 C 648.599513 1202.089994 679.620175 1269.327671 732.685976 1322.393472 C 858.028344 1447.893305 1061.945889 1447.893305 1187.288257 1322.393472 C 1312.78809 1197.051105 1312.78809 993.291024 1187.288257 867.791191 C 1134.222455 814.72539 1066.984778 783.862194 997.700052 775.673999 C 996.44033 775.359069 995.023143 775.359069 993.605955 775.201603 Z M 747.802643 852.674524 C 740.086844 852.674524 732.21358 855.666364 726.387365 861.49258 C 714.577468 873.302476 714.577468 892.670707 726.387365 904.480603 L 910.464284 1088.557522 C 910.149353 1090.604571 909.991888 1092.809085 909.991888 1095.171065 C 909.991888 1122.884955 932.351959 1145.08756 960.065849 1145.08756 C 985.575225 1145.08756 1006.360643 1126.191726 1009.509949 1101.627141 L 1113.751968 1041.475402 C 1128.238775 1033.129742 1133.277664 1014.391373 1124.932004 999.904566 C 1116.586343 985.575225 1097.847974 980.536336 1083.361168 988.881996 L 979.276614 1048.87627 C 973.292933 1046.514291 966.836856 1045.097104 960.065849 1045.097104 C 957.70387 1045.097104 955.499356 1045.254569 953.452307 1045.569499 L 769.375388 861.49258 C 763.391707 855.666364 755.675908 852.674524 747.802643 852.674524 Z M 747.802643 852.674524 " transform="matrix(0.0248071,0,0,0.0248071,0,0)"/>
</g>
</svg>
