<?xml version="1.0" encoding="UTF-8"?>
<svg xmlns="http://www.w3.org/2000/svg" xmlns:xlink="http://www.w3.org/1999/xlink" width="22pt" height="22pt" viewBox="0 0 22 22" version="1.1">
<g id="surface1">
<path style=" stroke:none;fill-rule:nonzero;fill:rgb(74.117649%,74.117649%,74.117649%);fill-opacity:1;" d="M 2.5 11.769531 L 19.328125 11.769531 C 19.707031 11.769531 20.011719 11.464844 20.011719 11.085938 C 20.011719 10.710938 19.707031 10.40625 19.328125 10.40625 L 2.5 10.40625 C 2.125 10.40625 1.820312 10.710938 1.820312 11.085938 C 1.820312 11.464844 2.125 11.769531 2.5 11.769531 Z M 2.5 11.769531 "/>
<path style=" stroke:none;fill-rule:nonzero;fill:rgb(74.117649%,74.117649%,74.117649%);fill-opacity:1;" d="M 3.183594 12.90625 C 2.425781 12.90625 1.820312 13.515625 1.820312 14.269531 L 1.820312 19.726562 C 1.820312 20.484375 2.425781 21.09375 3.183594 21.09375 L 7.730469 21.09375 C 8.488281 21.09375 9.097656 20.484375 9.097656 19.726562 L 9.097656 14.269531 C 9.097656 13.515625 8.488281 12.90625 7.730469 12.90625 Z M 3.636719 14.269531 L 7.277344 14.269531 C 7.527344 14.269531 7.730469 14.472656 7.730469 14.726562 L 7.730469 19.273438 C 7.730469 19.523438 7.527344 19.726562 7.277344 19.726562 L 3.636719 19.726562 C 3.386719 19.726562 3.183594 19.523438 3.183594 19.273438 L 3.183594 14.726562 C 3.183594 14.472656 3.386719 14.269531 3.636719 14.269531 Z M 3.636719 14.269531 "/>
<path style=" stroke:none;fill-rule:nonzero;fill:rgb(74.117649%,74.117649%,74.117649%);fill-opacity:1;" d="M 13.1875 12.90625 C 12.433594 12.90625 11.824219 13.515625 11.824219 14.269531 L 11.824219 18.820312 C 11.824219 19.574219 12.433594 20.183594 13.1875 20.183594 L 17.738281 20.183594 C 18.492188 20.183594 19.101562 19.574219 19.101562 18.820312 L 19.101562 14.269531 C 19.101562 13.515625 18.492188 12.90625 17.738281 12.90625 Z M 13.644531 14.269531 L 17.28125 14.269531 C 17.535156 14.269531 17.738281 14.472656 17.738281 14.726562 L 17.738281 18.363281 C 17.738281 18.617188 17.535156 18.820312 17.28125 18.820312 L 13.644531 18.820312 C 13.390625 18.820312 13.1875 18.617188 13.1875 18.363281 L 13.1875 14.726562 C 13.1875 14.472656 13.390625 14.269531 13.644531 14.269531 Z M 13.644531 14.269531 "/>
<path style=" stroke:none;fill-rule:nonzero;fill:rgb(100%,43.921569%,26.274511%);fill-opacity:0.988235;" d="M 12.734375 1.992188 C 11.976562 1.992188 11.371094 2.597656 11.371094 3.355469 L 11.371094 7.902344 C 11.371094 8.660156 11.976562 9.269531 12.734375 9.269531 L 18.191406 9.269531 C 18.949219 9.269531 19.554688 8.660156 19.554688 7.902344 L 19.554688 3.355469 C 19.554688 2.597656 18.949219 1.992188 18.191406 1.992188 Z M 13.1875 3.355469 L 17.738281 3.355469 C 17.988281 3.355469 18.191406 3.558594 18.191406 3.808594 L 18.191406 7.449219 C 18.191406 7.699219 17.988281 7.902344 17.738281 7.902344 L 13.1875 7.902344 C 12.9375 7.902344 12.734375 7.699219 12.734375 7.449219 L 12.734375 3.808594 C 12.734375 3.558594 12.9375 3.355469 13.1875 3.355469 Z M 13.1875 3.355469 "/>
</g>
</svg>
