<?xml version="1.0" encoding="UTF-8"?>
<svg xmlns="http://www.w3.org/2000/svg" xmlns:xlink="http://www.w3.org/1999/xlink" width="22px" height="22px" viewBox="0 0 22 22" version="1.1">
<g id="surface1">
<path style=" stroke:none;fill-rule:nonzero;fill:rgb(87.843138%,87.843138%,87.843138%);fill-opacity:1;" d="M 10.914062 1.992188 C 5.875 1.992188 1.820312 6.046875 1.820312 11.085938 C 1.820312 16.125 5.875 20.183594 10.914062 20.183594 C 12.210938 20.183594 13.441406 19.914062 14.554688 19.429688 L 14.554688 17.394531 C 13.484375 18.011719 12.242188 18.363281 10.914062 18.363281 C 6.882812 18.363281 3.636719 15.117188 3.636719 11.085938 C 3.636719 7.054688 6.882812 3.808594 10.914062 3.808594 C 14.945312 3.808594 18.191406 7.054688 18.191406 11.085938 L 20.011719 11.085938 C 20.011719 6.046875 15.953125 1.992188 10.914062 1.992188 Z M 10.914062 1.992188 "/>
<path style=" stroke:none;fill-rule:nonzero;fill:rgb(87.843138%,87.843138%,87.843138%);fill-opacity:1;" d="M 10.460938 4.71875 C 10.207031 4.71875 10.003906 4.921875 10.003906 5.175781 L 10.003906 11.085938 C 10.003906 11.589844 10.410156 11.996094 10.914062 11.996094 C 11.417969 11.996094 11.824219 11.589844 11.824219 11.085938 L 11.824219 5.175781 C 11.824219 4.921875 11.621094 4.71875 11.371094 4.71875 Z M 10.460938 4.71875 "/>
<path style=" stroke:none;fill-rule:nonzero;fill:rgb(87.843138%,87.843138%,87.843138%);fill-opacity:1;" d="M 16.949219 9.003906 C 16.886719 8.757812 16.636719 8.617188 16.394531 8.679688 L 10.683594 10.210938 C 10.195312 10.339844 9.910156 10.839844 10.039062 11.324219 C 10.171875 11.8125 10.667969 12.097656 11.152344 11.96875 L 16.863281 10.4375 C 17.109375 10.371094 17.25 10.125 17.1875 9.878906 Z M 16.949219 9.003906 "/>
<path style=" stroke:none;fill-rule:nonzero;fill:rgb(87.843138%,87.843138%,87.843138%);fill-opacity:1;" d="M 16.371094 13.359375 L 16.371094 16.542969 C 16.371094 16.796875 16.578125 17 16.828125 17 L 17.738281 17 C 17.988281 17 18.191406 16.796875 18.191406 16.542969 L 18.191406 13.359375 C 18.191406 13.109375 17.988281 12.90625 17.738281 12.90625 L 16.828125 12.90625 C 16.578125 12.90625 16.371094 13.109375 16.371094 13.359375 Z M 16.371094 13.359375 "/>
<path style=" stroke:none;fill-rule:nonzero;fill:rgb(87.843138%,87.843138%,87.843138%);fill-opacity:1;" d="M 16.828125 20.183594 L 17.738281 20.183594 C 17.988281 20.183594 18.191406 19.980469 18.191406 19.726562 L 18.191406 18.820312 C 18.191406 18.566406 17.988281 18.363281 17.738281 18.363281 L 16.828125 18.363281 C 16.578125 18.363281 16.371094 18.566406 16.371094 18.820312 L 16.371094 19.726562 C 16.371094 19.980469 16.578125 20.183594 16.828125 20.183594 Z M 16.828125 20.183594 "/>
</g>
</svg>
