<svg height="22" viewBox="0 0 22 22" width="22" xmlns="http://www.w3.org/2000/svg"><g fill="#e0e0e0"><path d="m17.738281 11.085938c-.253906 0-.457031.203124-.457031.457031v5c0 .503906-.40625.910156-.910156.910156h-10.914063c-.503906 0-.910156-.40625-.910156-.910156v-5c0-.253907-.203125-.457031-.453125-.457031h-.910156c-.253906 0-.453125.203124-.453125.457031v5.910156c0 1.007813.808593 1.820313 1.816406 1.820313h12.734375c1.007812 0 1.820312-.8125 1.820312-1.820313v-5.910156c0-.253907-.203124-.457031-.453124-.457031zm0 0"/><path d="m4.09375 15.179688h14.097656c.25 0 .457032.203124.457032.457031 0 .25-.207032.453125-.457032.453125h-14.097656c-.25 0-.457031-.203125-.457031-.453125 0-.253907.207031-.457031.457031-.457031zm0 0"/><path d="m10.914062 2.902344c-.144531 0-.277343.0625-.367187.175781-.902344 1.128906-1.714844 2.050781-2.316406 3.132813-.601563 1.085937-.96875 2.324218-.96875 3.980468 0 .046875.003906.09375.015625.140625.074218 1.949219 1.667968 3.5 3.636718 3.5 1.972657 0 3.566407-1.550781 3.636719-3.503906.011719-.042969.019531-.089844.019531-.136719 0-1.65625-.367187-2.894531-.96875-3.980468-.601562-1.082032-1.417968-2.003907-2.320312-3.132813-.089844-.113281-.222656-.179687-.367188-.175781zm0 1.222656c.746094.921875 1.40625 1.722656 1.863282 2.542969.535156.964843.851562 2 .851562 3.523437 0 .039063.003906.078125.011719.117188-.058594 1.457031-1.253906 2.613281-2.726563 2.613281-1.472656 0-2.664062-1.15625-2.726562-2.613281.011719-.035156.015625-.074219.015625-.117188 0-1.523437.3125-2.558594.847656-3.523437.460938-.820313 1.117188-1.621094 1.863281-2.542969zm0 0"/></g></svg>