
<svg xmlns="http://www.w3.org/2000/svg" xmlns:xlink="http://www.w3.org/1999/xlink" width="22px" height="22px" viewBox="0 0 22 22" version="1.1">
<g id="surface1">
<defs>
  <style id="current-color-scheme" type="text/css">
   .ColorScheme-Text { color:#eeeeee; } .ColorScheme-Highlight { color:#424242; }
  </style>
 </defs>
<path style="fill:currentColor" class="ColorScheme-Text" d="M 9.625 4.125 L 5.5 6.875 L 9.625 9.625 Z M 12.375 4.125 L 12.375 9.625 L 16.5 6.875 Z M 6.875 11 C 5.351562 11 4.125 12.226562 4.125 13.75 L 4.125 17.875 L 5.5 17.875 L 5.5 16.5 L 8.25 16.5 L 8.25 17.875 L 9.625 17.875 L 9.625 13.75 C 9.625 12.226562 8.398438 11 6.875 11 Z M 12.375 11 L 12.375 15.125 L 16.5 15.125 L 16.5 17.875 L 17.875 17.875 L 17.875 11 L 16.5 11 L 16.5 13.75 L 13.75 13.75 L 13.75 11 Z M 6.875 12.375 C 7.636719 12.375 8.25 12.988281 8.25 13.75 L 8.25 15.125 L 5.5 15.125 L 5.5 13.75 C 5.5 12.988281 6.113281 12.375 6.875 12.375 Z M 6.875 12.375 "/>
</g>
</svg>
