
<svg xmlns="http://www.w3.org/2000/svg" xmlns:xlink="http://www.w3.org/1999/xlink" width="22px" height="22px" viewBox="0 0 22 22" version="1.1">
<g id="surface1">
<defs>
  <style id="current-color-scheme" type="text/css">
   .ColorScheme-Text { color:#eeeeee; } .ColorScheme-Highlight { color:#424242; }
  </style>
 </defs>
<path style="fill:currentColor" class="ColorScheme-Text" d="M 4.125 2.75 L 4.125 16.5 L 2.75 16.5 L 2.75 17.875 L 4.125 17.875 L 4.125 19.25 L 5.5 19.25 L 5.5 17.875 L 16.5 17.875 L 16.5 19.25 L 17.875 19.25 L 17.875 17.875 L 19.25 17.875 L 19.25 16.5 L 17.875 16.5 L 17.875 2.75 L 16.5 2.75 L 16.5 16.5 L 5.5 16.5 L 5.5 2.75 Z M 6.875 5.5 L 6.875 8.25 L 7.667969 8.25 C 7.988281 8.25 8.25 7.945312 8.25 7.5625 L 8.25 6.875 L 9.625 6.875 L 9.625 14.4375 C 9.625 14.820312 9.855469 15.125 10.136719 15.125 L 11.863281 15.125 C 12.144531 15.125 12.375 14.820312 12.375 14.4375 L 12.375 6.875 L 13.75 6.875 L 13.75 7.5625 C 13.75 7.945312 14.011719 8.25 14.332031 8.25 L 15.125 8.25 L 15.125 5.5 Z M 6.875 5.5 "/>
</g>
</svg>
