<?xml version="1.0" encoding="UTF-8"?>
<svg xmlns="http://www.w3.org/2000/svg" xmlns:xlink="http://www.w3.org/1999/xlink" width="22pt" height="22pt" viewBox="0 0 22 22" version="1.1">
<g id="surface1">
<path style=" stroke:none;fill-rule:nonzero;fill:rgb(74.117649%,74.117649%,74.117649%);fill-opacity:1;" d="M 1.363281 1.535156 L 1.363281 20.636719 L 12.28125 20.636719 L 12.28125 18.820312 L 8.867188 18.820312 L 8.867188 14.953125 L 12.28125 14.953125 L 12.28125 13.132812 L 8.867188 13.132812 L 8.867188 9.039062 L 12.960938 9.039062 L 12.960938 7.222656 L 8.867188 7.222656 L 8.867188 3.355469 L 20.238281 3.355469 L 20.238281 11.085938 L 20.464844 11.085938 L 20.464844 1.535156 Z M 3.183594 3.355469 L 7.050781 3.355469 L 7.050781 7.222656 L 3.183594 7.222656 Z M 3.183594 9.039062 L 7.050781 9.039062 L 7.050781 13.132812 L 3.183594 13.132812 Z M 3.183594 14.953125 L 7.050781 14.953125 L 7.050781 18.820312 L 3.183594 18.820312 Z M 3.183594 14.953125 "/>
<path style=" stroke:none;fill-rule:nonzero;fill:rgb(100%,43.921569%,26.274511%);fill-opacity:1;" d="M 12.960938 3.355469 L 12.960938 12.453125 L 14.78125 12.453125 L 14.78125 10.292969 L 16.820312 12.453125 L 20.464844 12.453125 L 20.464844 3.355469 L 18.648438 3.355469 L 18.648438 6.765625 L 15.464844 3.355469 Z M 14.78125 5.246094 L 18.648438 9.339844 L 18.648438 11.8125 L 14.78125 7.71875 Z M 14.78125 5.246094 "/>
<path style=" stroke:none;fill-rule:nonzero;fill:rgb(74.117649%,74.117649%,74.117649%);fill-opacity:1;" d="M 15.917969 13.359375 L 15.917969 16.089844 L 13.1875 16.089844 L 13.1875 17.910156 L 15.917969 17.910156 L 15.917969 20.636719 L 17.738281 20.636719 L 17.738281 17.910156 L 20.464844 17.910156 L 20.464844 16.089844 L 17.738281 16.089844 L 17.738281 13.359375 Z M 15.917969 13.359375 "/>
</g>
</svg>
