<?xml version="1.0" encoding="UTF-8"?>
<svg xmlns="http://www.w3.org/2000/svg" xmlns:xlink="http://www.w3.org/1999/xlink" width="22pt" height="22pt" viewBox="0 0 22 22" version="1.1">
<g id="surface1">
<path style=" stroke:none;fill-rule:nonzero;fill:rgb(74.117649%,74.117649%,74.117649%);fill-opacity:1;" d="M 2.273438 1.082031 C 1.769531 1.082031 1.363281 1.488281 1.363281 1.992188 L 1.363281 19.726562 C 1.363281 20.230469 1.769531 20.636719 2.273438 20.636719 L 19.554688 20.636719 C 19.558594 20.636719 19.558594 20.636719 19.558594 20.636719 L 13.1875 20.636719 L 13.1875 19.273438 L 8.640625 19.273438 L 8.640625 14.726562 L 13.1875 14.726562 L 13.1875 13.359375 L 8.640625 13.359375 L 8.640625 8.8125 L 13.1875 8.8125 L 13.1875 7.449219 L 8.640625 7.449219 L 8.640625 2.445312 L 20.464844 2.445312 L 20.464844 1.992188 C 20.464844 1.488281 20.058594 1.082031 19.554688 1.082031 Z M 3.183594 2.445312 L 7.277344 2.445312 L 7.277344 7.449219 L 2.730469 7.449219 L 2.730469 2.902344 C 2.730469 2.648438 2.929688 2.445312 3.183594 2.445312 Z M 2.730469 8.8125 L 7.277344 8.8125 L 7.277344 13.359375 L 2.730469 13.359375 Z M 2.730469 14.726562 L 7.277344 14.726562 L 7.277344 19.273438 L 3.183594 19.273438 C 2.929688 19.273438 2.730469 19.070312 2.730469 18.820312 Z M 2.730469 14.726562 "/>
<path style=" stroke:none;fill-rule:nonzero;fill:rgb(100%,43.921569%,26.274511%);fill-opacity:1;" d="M 20.464844 2.445312 L 20.464844 11.085938 L 19.101562 11.085938 L 19.101562 8.921875 L 14.554688 4.375 L 14.554688 7.394531 L 18.246094 11.085938 L 16.316406 11.085938 L 14.554688 9.324219 L 14.554688 11.085938 L 13.1875 11.085938 L 13.1875 2.445312 L 14.554688 2.445312 L 19.101562 6.992188 L 19.101562 2.445312 Z M 20.464844 2.445312 "/>
<path style=" stroke:none;fill-rule:nonzero;fill:rgb(40.000001%,73.333335%,41.568628%);fill-opacity:1;" d="M 16.828125 13.359375 C 16.449219 13.359375 16.144531 13.664062 16.144531 14.042969 L 16.144531 16.316406 L 13.871094 16.316406 C 13.492188 16.316406 13.1875 16.621094 13.1875 17 C 13.1875 17.378906 13.492188 17.679688 13.871094 17.679688 L 16.144531 17.679688 L 16.144531 19.957031 C 16.144531 20.332031 16.449219 20.636719 16.828125 20.636719 C 17.207031 20.636719 17.507812 20.332031 17.507812 19.957031 L 17.507812 17.679688 L 19.785156 17.679688 C 20.160156 17.679688 20.464844 17.378906 20.464844 17 C 20.464844 16.621094 20.160156 16.316406 19.785156 16.316406 L 17.507812 16.316406 L 17.507812 14.042969 C 17.507812 13.664062 17.207031 13.359375 16.828125 13.359375 Z M 16.828125 13.359375 "/>
</g>
</svg>
