
<svg xmlns="http://www.w3.org/2000/svg" xmlns:xlink="http://www.w3.org/1999/xlink" width="22px" height="22px" viewBox="0 0 22 22" version="1.1">
<g id="surface1">
<defs>
  <style id="current-color-scheme" type="text/css">
   .ColorScheme-Text { color:#eeeeee; } .ColorScheme-Highlight { color:#424242; }
  </style>
 </defs>
<path style="fill:currentColor" class="ColorScheme-Text" d="M 8.9375 2.75 C 5.507812 2.75 2.75 5.507812 2.75 8.9375 C 2.75 10.210938 3.132812 11.394531 3.789062 12.375 L 5.574219 12.375 C 4.679688 11.503906 4.125 10.289062 4.125 8.9375 C 4.125 6.269531 6.269531 4.125 8.9375 4.125 C 11.605469 4.125 13.75 6.269531 13.75 8.9375 C 13.75 11.605469 11.605469 13.75 8.9375 13.75 C 8.703125 13.75 8.476562 13.714844 8.25 13.683594 L 8.25 15.054688 C 8.480469 15.082031 8.703125 15.125 8.9375 15.125 C 10.402344 15.125 11.726562 14.601562 12.785156 13.757812 L 18.171875 19.144531 L 19.144531 18.171875 L 13.757812 12.785156 C 14.601562 11.726562 15.125 10.402344 15.125 8.9375 C 15.125 5.507812 12.367188 2.75 8.9375 2.75 Z M 4.125 13.75 L 4.125 16.5 L 2.75 16.5 L 5.5 19.25 L 8.25 16.5 L 6.875 16.5 L 6.875 13.75 Z M 4.125 13.75 "/>
</g>
</svg>
