<?xml version="1.0" encoding="UTF-8"?>
<svg xmlns="http://www.w3.org/2000/svg" xmlns:xlink="http://www.w3.org/1999/xlink" width="22pt" height="22pt" viewBox="0 0 22 22" version="1.1">
<g id="surface1">
<path style=" stroke:none;fill-rule:nonzero;fill:rgb(74.117649%,74.117649%,74.117649%);fill-opacity:1;" d="M 0.910156 1.082031 L 0.910156 3.808594 C 10.484375 3.808594 18.191406 11.519531 18.191406 21.09375 L 20.921875 21.09375 C 20.921875 10.007812 11.996094 1.082031 0.910156 1.082031 Z M 0.910156 1.082031 "/>
<path style=" stroke:none;fill-rule:nonzero;fill:rgb(74.117649%,74.117649%,74.117649%);fill-opacity:1;" d="M 0.910156 6.539062 L 0.910156 9.269531 C 7.460938 9.269531 12.734375 14.542969 12.734375 21.09375 L 15.464844 21.09375 C 15.464844 13.03125 8.972656 6.539062 0.910156 6.539062 Z M 0.910156 6.539062 "/>
<path style=" stroke:none;fill-rule:nonzero;fill:rgb(74.117649%,74.117649%,74.117649%);fill-opacity:1;" d="M 4.320312 14.269531 C 6.203125 14.269531 7.730469 15.796875 7.730469 17.679688 C 7.730469 19.566406 6.203125 21.09375 4.320312 21.09375 C 2.4375 21.09375 0.910156 19.566406 0.910156 17.679688 C 0.910156 15.796875 2.4375 14.269531 4.320312 14.269531 Z M 4.320312 14.269531 "/>
</g>
</svg>
