<svg height="22" viewBox="0 0 22 22" width="22" xmlns="http://www.w3.org/2000/svg"><path d="m3.183594 5.628906c-.25 0-.453125.203125-.453125.457032v6.367187c0 .25.203125.453125.453125.453125h6.695312l-.3125 1.253906c-.074218.285156.144532.566406.4375.566406h9.550782c.421874-.003906.617187-.523437.300781-.796874l-3.25-2.84375 3.25-2.839844c.316406-.277344.121093-.796875-.300781-.796875h-7.148438l.3125-1.253907c.074219-.289062-.144531-.566406-.4375-.566406zm0 0" fill="#424242"/><g fill="#e0e0e0"><path d="m2.730469 3.355469h.90625c.253906 0 .457031.203125.457031.453125v15.917968c0 .253907-.203125.457032-.457031.457032h-.90625c-.253907 0-.457031-.203125-.457031-.457032v-15.917968c0-.25.203124-.453125.457031-.453125zm0 0"/><path d="m3.183594 1.992188c.753906 0 1.363281.609374 1.363281 1.363281 0 .753906-.609375 1.363281-1.363281 1.363281s-1.363282-.609375-1.363282-1.363281c0-.753907.609376-1.363281 1.363282-1.363281zm0 0"/></g></svg>