<svg xmlns="http://www.w3.org/2000/svg" width="22pt" height="22pt" viewBox="0 0 22 22"><path d="M12.734 1.082c-2.027 0-3.789.82-4.73 2.047l1.512.945c.574-.703 1.68-1.172 2.957-1.172h.523c1.871 0 3.375 1.012 3.375 2.274v2.726c-.96-.644-2.238-1.035-3.637-1.035-3.023 0-5.457 1.824-5.457 4.094v.453h.032c.3 2.05 2.605 3.637 5.425 3.637 1.399 0 2.676-.39 3.637-1.035v.937h1.82V5.176c0-2.27-2.433-4.094-5.457-4.094zm-.261 7.602h.523c1.871 0 3.375 1.015 3.375 2.277 0 1.258-1.504 2.273-3.375 2.273h-.523c-1.871 0-3.375-1.015-3.375-2.273 0-1.262 1.504-2.277 3.375-2.277zm0 0" fill="#bdbdbd"/><path d="M4.094 15.637c.25 0 .453.203.453.453v1.363H9.55c.254 0 .457.168.457.379v1.063c0 .21-.203.378-.457.378H4.547v1.364c0 .25-.203.453-.453.453v.004-.004a.464.464 0 0 1-.266-.082L.645 18.734a.459.459 0 0 1 0-.742l3.183-2.273a.47.47 0 0 1 .258-.082h.008zm0 0" fill="#5c6bc0"/></svg>