<svg xmlns="http://www.w3.org/2000/svg" width="22pt" height="22pt" viewBox="0 0 22 22"><path d="M6.367 2.902c-2.015 0-3.637 1.215-3.637 2.727v8.187h1.817v-3.64h3.64v3.64h1.817V5.63c0-1.512-1.621-2.727-3.637-2.727zm0 1.817c1.008 0 1.82.406 1.82.91v2.73h-3.64V5.63c0-.504.812-.91 1.82-.91zm0 0M3.867 15.637a.68.68 0 0 1 .68.68v2.273a.681.681 0 1 1-1.363 0v-2.274c0-.375.304-.68.683-.68zm0 0M13.871 2.902c.375 0 .684.305.684.68v9.55a.684.684 0 0 1-1.367 0v-9.55c0-.375.308-.68.683-.68zm0 0M18.418 2.902c.379 0 .684.305.684.68v9.55a.682.682 0 1 1-1.364 0v-9.55a.68.68 0 0 1 .68-.68zm0 0M8.867 15.637c.38 0 .684.304.684.68v2.273a.682.682 0 1 1-1.364 0v-2.274a.68.68 0 0 1 .68-.68zm0 0" fill="#bdbdbd"/><path d="M12.734 16.316l1.137 2.274 1.137-2.274M17.281 16.316l1.137 2.274 1.137-2.274" fill="none" stroke-width="1.3728915" stroke-linecap="round" stroke-linejoin="round" stroke="#26a69a"/></svg>