<svg xmlns="http://www.w3.org/2000/svg" width="22pt" height="22pt" viewBox="0 0 22 22"><path d="M20.922 11.086A9.984 9.984 0 0 0 10.914 1.082 9.981 9.981 0 0 0 .91 11.086a9.984 9.984 0 0 0 10.004 10.008 9.988 9.988 0 0 0 10.008-10.008zm-1.367 0c0 4.789-3.852 8.64-8.64 8.64a8.621 8.621 0 0 1-8.642-8.64 8.624 8.624 0 0 1 8.641-8.64c4.79 0 8.64 3.855 8.64 8.64zm0 0" fill="#bdbdbd"/><path d="M15.828 7.902a.68.68 0 0 0-.2-.48.677.677 0 0 0-.964 0l-3.7 3.7-3.698-3.7a.677.677 0 0 0-.965 0 .684.684 0 0 0 0 .965l4.183 4.18.024.023c.008.008.02.015.027.023.008.008.02.016.027.02.008.008.02.015.028.02.012.007.02.015.027.019.012.008.02.012.031.015.012.008.02.012.032.016.008.004.02.008.027.016h.004l.027.011c.012 0 .024.004.032.008a.114.114 0 0 0 .035.008c.008.004.02.008.03.008l.032.008c.012 0 .024 0 .031.004h.133c.012-.004.02-.004.031-.004.012-.004.024-.004.032-.008a.114.114 0 0 0 .035-.008.12.12 0 0 0 .031-.008c.012-.004.02-.008.031-.008.012-.003.02-.007.032-.011a.079.079 0 0 1 .03-.016c.009-.004.02-.008.028-.015a.117.117 0 0 0 .031-.016.119.119 0 0 0 .028-.02c.012-.004.02-.011.027-.02a.07.07 0 0 0 .028-.019c.011-.008.02-.015.027-.023.008-.008.02-.016.027-.024l4.18-4.18a.683.683 0 0 0 .2-.484zm0 0M7.504 13.395h6.82a.681.681 0 1 1 0 1.363h-6.82a.684.684 0 0 1-.684-.684c0-.375.309-.68.684-.68zm0 0" fill="#26a69a"/></svg>