<?xml version="1.0" encoding="UTF-8"?>
<svg xmlns="http://www.w3.org/2000/svg" xmlns:xlink="http://www.w3.org/1999/xlink" width="22pt" height="22pt" viewBox="0 0 22 22" version="1.1">
<g id="surface1">
<path style=" stroke:none;fill-rule:nonzero;fill:rgb(93.725491%,32.549021%,31.37255%);fill-opacity:1;" d="M 10.914062 1.082031 C 5.371094 1.082031 0.910156 5.542969 0.910156 11.085938 C 0.910156 16.628906 5.371094 21.09375 10.914062 21.09375 C 16.457031 21.09375 20.921875 16.628906 20.921875 11.085938 C 20.921875 5.542969 16.457031 1.082031 10.914062 1.082031 Z M 10.914062 2.902344 C 15.449219 2.902344 19.101562 6.550781 19.101562 11.085938 C 19.101562 15.621094 15.449219 19.273438 10.914062 19.273438 C 6.378906 19.273438 2.730469 15.621094 2.730469 11.085938 C 2.730469 6.550781 6.378906 2.902344 10.914062 2.902344 Z M 10.914062 2.902344 "/>
<path style=" stroke:none;fill-rule:nonzero;fill:rgb(93.725491%,32.549021%,31.37255%);fill-opacity:1;" d="M 5.457031 10.175781 L 16.371094 10.175781 L 16.371094 11.996094 L 5.457031 11.996094 Z M 5.457031 10.175781 "/>
</g>
</svg>
