<svg height="22" viewBox="0 0 22 22" width="22" xmlns="http://www.w3.org/2000/svg"><g fill="#e0e0e0"><path d="m3.636719 1.992188c-1.007813 0-1.816407.808593-1.816407 1.816406v.910156h1.816407c0-.503906.40625-.910156.910156-.910156h12.734375c.503906 0 .910156.40625.910156.910156v6.367188h1.820313v-7.277344c0-1.007813-.8125-1.816406-1.820313-1.816406zm-1.816407 7.277343v9.09375c0 1.007813.808594 1.820313 1.816407 1.820313h1.820312v-1.820313h-.910156c-.503906 0-.910156-.40625-.910156-.910156v-8.183594zm0 0"/><path d="m13.644531 12.90625c-.503906 0-.910156.40625-.910156.910156v5.457032c0 .503906.40625.910156.910156.910156h5.457031c.503907 0 .910157-.40625.910157-.910156v-5.457032c0-.503906-.40625-.910156-.910157-.910156zm1.363281 1.820312h2.730469c.25 0 .453125.203126.453125.453126v2.730468c0 .25-.203125.453125-.453125.453125h-2.730469c-.25 0-.453124-.203125-.453124-.453125v-2.730468c0-.25.203124-.453126.453124-.453126zm0 0"/><path d="m2.730469 6.539062c-.503907 0-.910157.40625-.910157.910157v11.824219c0 .503906.40625.910156.910157.910156h8.183593v-1.820313h-6.820312c-.253906 0-.457031-.203125-.457031-.453125v-9.097656c0-.25.203125-.453125.457031-.453125h8.1875c.25 0 .453125.203125.453125.453125v2.273438h1.820313v-3.636719c0-.503907-.40625-.910157-.910157-.910157zm0 0"/><path d="m5.914062 10.175781h4.546876c.25 0 .453124.207031.453124.457031s-.203124.453126-.453124.453126h-4.546876c-.253906 0-.457031-.203126-.457031-.453126s.203125-.457031.457031-.457031zm0 0"/><path d="m5.914062 12.90625h4.546876c.25 0 .453124.203125.453124.453125 0 .253906-.203124.457031-.453124.457031h-4.546876c-.253906 0-.457031-.203125-.457031-.457031 0-.25.203125-.453125.457031-.453125zm0 0"/><path d="m5.914062 15.636719h4.546876c.25 0 .453124.203125.453124.453125s-.203124.453125-.453124.453125h-4.546876c-.253906 0-.457031-.203125-.457031-.453125s.203125-.453125.457031-.453125zm0 0"/></g></svg>