<svg height="64pt" viewBox="0 0 64 64" width="64pt" xmlns="http://www.w3.org/2000/svg" xmlns:xlink="http://www.w3.org/1999/xlink"><linearGradient id="a"><stop offset="0" stop-opacity=".275"/><stop offset="1" stop-opacity="0"/></linearGradient><linearGradient id="b" gradientUnits="userSpaceOnUse" x1="33.07554" x2="33.07554" xlink:href="#a" y1="56.067835" y2="58.71392167"/><linearGradient id="c"><stop offset="0" stop-opacity=".314"/><stop offset=".222" stop-opacity=".275"/><stop offset="1" stop-opacity="0"/></linearGradient><radialGradient id="d" cx="450.909" cy="189.579" gradientTransform="matrix(0 -.15626 -.28128 0 98.97 127.19)" gradientUnits="userSpaceOnUse" r="21.167" xlink:href="#c"/><radialGradient id="e" cx="450.909" cy="189.579" gradientTransform="matrix(0 .15626 .28128 0 -36.786 -15.055)" gradientUnits="userSpaceOnUse" r="21.167" xlink:href="#c"/><radialGradient id="f" cx="450.909" cy="189.579" gradientTransform="matrix(0 -.15626 .28128 0 -36.786 127.19)" gradientUnits="userSpaceOnUse" r="21.167" xlink:href="#c"/><radialGradient id="g" cx="450.909" cy="189.579" gradientTransform="matrix(0 .15626 -.28128 0 98.97 -15.055)" gradientUnits="userSpaceOnUse" r="21.167" xlink:href="#c"/><linearGradient id="h" gradientUnits="userSpaceOnUse" x1="31.0952" x2="31.0952" y1="56.07450344" y2="5.79290344"><stop offset="0" stop-color="#80cbc4"/><stop offset="1" stop-color="#b2dfdb"/></linearGradient><linearGradient id="i" gradientTransform="matrix(.05979 0 0 .21877 30.085 -32.722)" gradientUnits="userSpaceOnUse" x1="249.189" x2="249.189" xlink:href="#a" y1="233.5" y2="254.667"/><linearGradient id="j"><stop offset="0" stop-color="#26a69a"/><stop offset="1" stop-color="#4db6ac"/></linearGradient><linearGradient id="k" gradientUnits="userSpaceOnUse" x1="42.33676167" x2="42.33676167" xlink:href="#j" y1="56.067835" y2="5.79293833"/><filter id="l" height="100%" width="100%" x="0%" y="0%"><feColorMatrix in="SourceGraphic" values="0 0 0 0 1 0 0 0 0 1 0 0 0 0 1 0 0 0 1 0"/></filter><mask id="m"><path d="m0 0h64v64h-64z" fill-opacity=".988" filter="url(#l)"/></mask><linearGradient id="n" gradientUnits="userSpaceOnUse" x1="248.708" x2="248.708" xlink:href="#j" y1="233.5" y2="-168.667"/><clipPath id="o"><path d="m0 0h64v64h-64z"/></clipPath><mask id="p"><path d="m0 0h64v64h-64z" fill-opacity=".988" filter="url(#l)"/></mask><clipPath id="q"><path d="m0 0h64v64h-64z"/></clipPath><mask id="r"><path d="m0 0h64v64h-64z" fill-opacity=".988" filter="url(#l)"/></mask><clipPath id="s"><path d="m0 0h64v64h-64z"/></clipPath><mask id="t"><path d="m0 0h64v64h-64z" fill-opacity=".988" filter="url(#l)"/></mask><clipPath id="u"><path d="m0 0h64v64h-64z"/></clipPath><mask id="v"><path d="m0 0h64v64h-64z" fill-opacity=".988" filter="url(#l)"/></mask><clipPath id="w"><path d="m0 0h64v64h-64z"/></clipPath><mask id="x"><path d="m0 0h64v64h-64z" fill-opacity=".988" filter="url(#l)"/></mask><clipPath id="y"><path d="m0 0h64v64h-64z"/></clipPath><mask id="z"><path d="m0 0h64v64h-64z" fill-opacity=".988" filter="url(#l)"/></mask><clipPath id="A"><path d="m0 0h64v64h-64z"/></clipPath><mask id="B"><path d="m0 0h64v64h-64z" fill-opacity=".988" filter="url(#l)"/></mask><clipPath id="C"><path d="m0 0h64v64h-64z"/></clipPath><mask id="D"><path d="m0 0h64v64h-64z" fill-opacity=".988" filter="url(#l)"/></mask><clipPath id="E"><path d="m0 0h64v64h-64z"/></clipPath><path d="m15.875 56.066h30.43v2.649h-30.43zm0 0" fill="url(#b)"/><path d="m46.305 56.066h5.293v-2.644h-5.293zm0 0" fill="url(#d)"/><path d="m15.875 56.066h-5.29v2.649h5.29zm0 0" fill="url(#e)"/><path d="m15.875 56.066h-5.29v-2.644h5.29zm0 0" fill="url(#f)"/><path d="m46.305 56.066h5.293v2.649h-5.293zm0 0" fill="url(#g)"/><path d="m37.086 5.793h-23.856a2.639 2.639 0 0 0 -2.644 2.644v44.985a2.639 2.639 0 0 0 2.644 2.644h35.723a2.639 2.639 0 0 0 2.645-2.644v-33.113zm0 0" fill="url(#h)"/><path d="m37.047 18.36h12.566l1.985 1.984v2.648h-14.551zm0 0" fill="url(#i)"/><path d="m10.586 52.395v1.027a2.639 2.639 0 0 0 2.644 2.644h35.723a2.639 2.639 0 0 0 2.645-2.644v-1.027a2.639 2.639 0 0 1 -2.645 2.644h-35.723a2.639 2.639 0 0 1 -2.644-2.644zm0 0" fill-opacity=".235"/><path d="m13.23 5.793a2.639 2.639 0 0 0 -2.644 2.644v.993a2.639 2.639 0 0 1 2.644-2.645h23.856l14.512 14.516v-.992l-14.512-14.516zm0 0" fill="#f6f6f6" fill-opacity=".588"/><path d="m51.598 20.309-14.512-14.516v11.867a2.642 2.642 0 0 0 2.644 2.649zm0 0" fill="url(#k)"/><path d="m37.086 17.04v.62a2.642 2.642 0 0 0 2.644 2.649h11.868l-.621-.625h-11.247a2.639 2.639 0 0 1 -2.644-2.645zm0 0" fill-opacity=".235"/><path d="m37.086 5.793v.992l13.52 13.524h.992zm0 0" fill="#fff" fill-opacity=".392"/><path d="m37.082 5.605a.187.187 0 0 0 -.184.188v11.867a2.832 2.832 0 0 0 2.832 2.836h11.868a.198.198 0 0 0 .175-.117.186.186 0 0 0 -.043-.203l-14.515-14.516a.186.186 0 0 0 -.133-.055zm.191.641 13.872 13.871h-11.415a2.444 2.444 0 0 1 -2.457-2.457zm0 0" fill="#212121"/><path d="m13.23 5.605a2.83 2.83 0 0 0 -2.832 2.832v44.985a2.83 2.83 0 0 0 2.832 2.832h35.723a2.83 2.83 0 0 0 2.832-2.832v-33.113c0-.051-.02-.098-.055-.133l-14.515-14.516a.184.184 0 0 0 -.13-.055zm0 .375h23.778l14.402 14.403v33.039a2.449 2.449 0 0 1 -2.457 2.457h-35.723a2.447 2.447 0 0 1 -2.457-2.457v-44.984a2.447 2.447 0 0 1 2.457-2.458zm0 0" fill="#212121"/><g clip-path="url(#o)" mask="url(#m)"><path d="m164.047-31.08h37.028c2.937 0 5.312 2.375 5.312 5.28v26.468c0 2.937-2.375 5.28-5.312 5.28h-37.028c-2.937 0-5.312-2.343-5.312-5.28v-26.468c0-2.906 2.375-5.281 5.312-5.281zm0 0" fill="url(#n)" stroke="#212121" stroke-linecap="round" stroke-linejoin="round" stroke-width="3" transform="matrix(.12501 0 0 .12501 0 26.878)"/></g><g clip-path="url(#q)" mask="url(#p)"><path d="m230.197-31.08h37.027a5.274 5.274 0 0 1 5.281 5.28v26.468a5.254 5.254 0 0 1 -5.28 5.28h-37.028c-2.937 0-5.312-2.343-5.312-5.28v-26.468c0-2.906 2.375-5.281 5.312-5.281zm0 0" fill="url(#n)" stroke="#212121" stroke-linecap="round" stroke-linejoin="round" stroke-width="3" transform="matrix(.12501 0 0 .12501 0 26.878)"/></g><g clip-path="url(#s)" mask="url(#r)"><path d="m296.347-31.08h37.027a5.274 5.274 0 0 1 5.281 5.28v26.468a5.254 5.254 0 0 1 -5.28 5.28h-37.028c-2.938 0-5.312-2.343-5.312-5.28v-26.468c0-2.906 2.374-5.281 5.312-5.281zm0 0" fill="url(#n)" stroke="#212121" stroke-linecap="round" stroke-linejoin="round" stroke-width="3" transform="matrix(.12501 0 0 .12501 0 26.878)"/></g><g clip-path="url(#u)" mask="url(#t)"><path d="m164.047 80.034h37.028a5.308 5.308 0 0 1 5.312 5.312v26.435a5.308 5.308 0 0 1 -5.312 5.312h-37.028a5.308 5.308 0 0 1 -5.312-5.312v-26.435a5.308 5.308 0 0 1 5.312-5.312zm0 0" fill="url(#n)" stroke="#212121" stroke-linecap="round" stroke-linejoin="round" stroke-width="3" transform="matrix(.12501 0 0 .12501 0 26.878)"/></g><g clip-path="url(#w)" mask="url(#v)"><path d="m230.197 80.034h37.027c2.938 0 5.281 2.375 5.281 5.312v26.435c0 2.938-2.343 5.312-5.28 5.312h-37.028a5.308 5.308 0 0 1 -5.312-5.312v-26.435a5.308 5.308 0 0 1 5.312-5.312zm0 0" fill="url(#n)" stroke="#212121" stroke-linecap="round" stroke-linejoin="round" stroke-width="3" transform="matrix(.12501 0 0 .12501 0 26.878)"/></g><g clip-path="url(#y)" mask="url(#x)"><path d="m296.347 80.034h37.027c2.938 0 5.281 2.375 5.281 5.312v26.435c0 2.938-2.343 5.312-5.28 5.312h-37.028a5.308 5.308 0 0 1 -5.312-5.312v-26.435a5.308 5.308 0 0 1 5.312-5.312zm0 0" fill="url(#n)" stroke="#212121" stroke-linecap="round" stroke-linejoin="round" stroke-width="3" transform="matrix(.12501 0 0 .12501 0 26.878)"/></g><g clip-path="url(#A)" mask="url(#z)"><path d="m164.047 24.477h37.028c2.937 0 5.312 2.375 5.312 5.28v26.467a5.308 5.308 0 0 1 -5.312 5.312h-37.028a5.308 5.308 0 0 1 -5.312-5.312v-26.466c0-2.906 2.375-5.28 5.312-5.28zm0 0" fill="url(#n)" stroke="#212121" stroke-linecap="round" stroke-linejoin="round" stroke-width="3" transform="matrix(.12501 0 0 .12501 0 26.878)"/></g><g clip-path="url(#C)" mask="url(#B)"><path d="m230.197 24.477h37.027a5.274 5.274 0 0 1 5.281 5.28v26.467c0 2.937-2.343 5.312-5.28 5.312h-37.028a5.308 5.308 0 0 1 -5.312-5.312v-26.466c0-2.906 2.375-5.28 5.312-5.28zm0 0" fill="url(#n)" stroke="#212121" stroke-linecap="round" stroke-linejoin="round" stroke-width="3" transform="matrix(.12501 0 0 .12501 0 26.878)"/></g><g clip-path="url(#E)" mask="url(#D)"><path d="m296.347 24.477h37.027a5.274 5.274 0 0 1 5.281 5.28v26.467c0 2.937-2.343 5.312-5.28 5.312h-37.028a5.308 5.308 0 0 1 -5.312-5.312v-26.466c0-2.906 2.374-5.28 5.312-5.28zm0 0" fill="url(#n)" stroke="#212121" stroke-linecap="round" stroke-linejoin="round" stroke-width="3" transform="matrix(.12501 0 0 .12501 0 26.878)"/></g></svg>