<?xml version="1.0" encoding="UTF-8"?>
<svg xmlns="http://www.w3.org/2000/svg" xmlns:xlink="http://www.w3.org/1999/xlink" width="48px" height="48px" viewBox="0 0 48 48" version="1.1">
<defs>
<linearGradient id="linear0" gradientUnits="userSpaceOnUse" x1="254" y1="233.5" x2="254" y2="254.666672" gradientTransform="matrix(0.09375,0,0,0.09375,-0.00000572205,20.156256)">
<stop offset="0" style="stop-color:rgb(0%,0%,0%);stop-opacity:0.27451;"/>
<stop offset="1" style="stop-color:rgb(0%,0%,0%);stop-opacity:0;"/>
</linearGradient>
<radialGradient id="radial0" gradientUnits="userSpaceOnUse" cx="450.908936" cy="189.579361" fx="450.908936" fy="189.579361" r="21.166656" gradientTransform="matrix(0.000000261231,-0.117188,-0.210938,-0.000000152293,81.165068,95.383893)">
<stop offset="0" style="stop-color:rgb(0%,0%,0%);stop-opacity:0.313726;"/>
<stop offset="0.222222" style="stop-color:rgb(0%,0%,0%);stop-opacity:0.27451;"/>
<stop offset="1" style="stop-color:rgb(0%,0%,0%);stop-opacity:0;"/>
</radialGradient>
<radialGradient id="radial1" gradientUnits="userSpaceOnUse" cx="450.908936" cy="189.579361" fx="450.908936" fy="189.579361" r="21.166656" gradientTransform="matrix(-0.000000261231,0.117188,0.210938,0.000000152293,-33.540064,-11.290137)">
<stop offset="0" style="stop-color:rgb(0%,0%,0%);stop-opacity:0.313726;"/>
<stop offset="0.222222" style="stop-color:rgb(0%,0%,0%);stop-opacity:0.27451;"/>
<stop offset="1" style="stop-color:rgb(0%,0%,0%);stop-opacity:0;"/>
</radialGradient>
<radialGradient id="radial2" gradientUnits="userSpaceOnUse" cx="450.908936" cy="189.579361" fx="450.908936" fy="189.579361" r="21.166656" gradientTransform="matrix(-0.000000261231,-0.117188,0.210938,-0.000000152293,-33.540064,95.383893)">
<stop offset="0" style="stop-color:rgb(0%,0%,0%);stop-opacity:0.313726;"/>
<stop offset="0.222222" style="stop-color:rgb(0%,0%,0%);stop-opacity:0.27451;"/>
<stop offset="1" style="stop-color:rgb(0%,0%,0%);stop-opacity:0;"/>
</radialGradient>
<radialGradient id="radial3" gradientUnits="userSpaceOnUse" cx="450.908936" cy="189.579361" fx="450.908936" fy="189.579361" r="21.166656" gradientTransform="matrix(0.000000261231,0.117188,-0.210938,0.000000152293,81.165065,-11.290138)">
<stop offset="0" style="stop-color:rgb(0%,0%,0%);stop-opacity:0.313726;"/>
<stop offset="0.222222" style="stop-color:rgb(0%,0%,0%);stop-opacity:0.27451;"/>
<stop offset="1" style="stop-color:rgb(0%,0%,0%);stop-opacity:0;"/>
</radialGradient>
<linearGradient id="linear1" gradientUnits="userSpaceOnUse" x1="254" y1="-147.5" x2="254" y2="-31.083334" gradientTransform="matrix(0.09375,0,0,0.09375,0.00000187445,20.156247)">
<stop offset="0" style="stop-color:rgb(64.313728%,64.313728%,64.313728%);stop-opacity:0;"/>
<stop offset="1" style="stop-color:rgb(100%,100%,100%);stop-opacity:0.196078;"/>
</linearGradient>
<linearGradient id="linear2" gradientUnits="userSpaceOnUse" x1="254" y1="233.5" x2="254" y2="-105.166656" gradientTransform="matrix(0.09375,0,0,0.09375,-0.00000271833,20.15625)">
<stop offset="0" style="stop-color:rgb(34.509805%,34.509805%,34.509805%);stop-opacity:0;"/>
<stop offset="1" style="stop-color:rgb(98.039216%,98.039216%,98.039216%);stop-opacity:0.196078;"/>
</linearGradient>
</defs>
<g id="surface1">
<path style=" stroke:none;fill-rule:nonzero;fill:url(#linear0);" d="M 5.953125 42.046875 L 41.671875 42.046875 L 41.671875 44.03125 L 5.953125 44.03125 Z M 5.953125 42.046875 "/>
<path style=" stroke:none;fill-rule:nonzero;fill:url(#radial0);" d="M 41.671875 42.046875 L 45.640625 42.046875 L 45.640625 40.0625 L 41.671875 40.0625 Z M 41.671875 42.046875 "/>
<path style=" stroke:none;fill-rule:nonzero;fill:url(#radial1);" d="M 5.953125 42.046875 L 1.984375 42.046875 L 1.984375 44.03125 L 5.953125 44.03125 Z M 5.953125 42.046875 "/>
<path style=" stroke:none;fill-rule:nonzero;fill:url(#radial2);" d="M 5.953125 42.046875 L 1.984375 42.046875 L 1.984375 40.0625 L 5.953125 40.0625 Z M 5.953125 42.046875 "/>
<path style=" stroke:none;fill-rule:nonzero;fill:url(#radial3);" d="M 41.671875 42.046875 L 45.640625 42.046875 L 45.640625 44.03125 L 41.671875 44.03125 Z M 41.671875 42.046875 "/>
<path style=" stroke:none;fill-rule:nonzero;fill:rgb(38.039216%,38.039216%,38.039216%);fill-opacity:1;" d="M 10.914062 6.328125 L 43.160156 6.328125 C 44.257812 6.328125 45.144531 7.214844 45.144531 8.3125 L 45.144531 15.753906 C 45.144531 16.851562 44.257812 17.738281 43.160156 17.738281 L 10.914062 17.738281 C 9.816406 17.738281 8.929688 16.851562 8.929688 15.753906 L 8.929688 8.3125 C 8.929688 7.214844 9.816406 6.328125 10.914062 6.328125 Z M 10.914062 6.328125 "/>
<path style=" stroke:none;fill-rule:nonzero;fill:url(#linear1);" d="M 10.914062 6.328125 L 43.160156 6.328125 C 44.257812 6.328125 45.144531 7.214844 45.144531 8.3125 L 45.144531 15.753906 C 45.144531 16.851562 44.257812 17.738281 43.160156 17.738281 L 10.914062 17.738281 C 9.816406 17.738281 8.929688 16.851562 8.929688 15.753906 L 8.929688 8.3125 C 8.929688 7.214844 9.816406 6.328125 10.914062 6.328125 Z M 10.914062 6.328125 "/>
<path style=" stroke:none;fill-rule:nonzero;fill:rgb(100%,100%,100%);fill-opacity:0.392157;" d="M 10.914062 6.453125 C 9.816406 6.453125 8.929688 7.335938 8.929688 8.4375 L 8.929688 8.683594 C 8.929688 7.585938 9.816406 6.699219 10.914062 6.699219 L 43.160156 6.699219 C 44.257812 6.699219 45.144531 7.585938 45.144531 8.683594 L 45.144531 8.4375 C 45.144531 7.335938 44.257812 6.453125 43.160156 6.453125 Z M 10.914062 6.453125 "/>
<path style=" stroke:none;fill-rule:nonzero;fill:rgb(12.941177%,12.941177%,12.941177%);fill-opacity:1;" d="M 10.914062 6.1875 C 9.738281 6.1875 8.789062 7.136719 8.789062 8.3125 L 8.789062 15.753906 C 8.789062 16.929688 9.738281 17.878906 10.914062 17.878906 L 43.160156 17.878906 C 44.335938 17.878906 45.285156 16.929688 45.285156 15.753906 L 45.285156 8.3125 C 45.285156 7.136719 44.335938 6.1875 43.160156 6.1875 Z M 10.914062 6.46875 L 43.160156 6.46875 C 44.183594 6.46875 45.003906 7.289062 45.003906 8.3125 L 45.003906 15.753906 C 45.003906 16.777344 44.183594 17.597656 43.160156 17.597656 L 10.914062 17.597656 C 9.890625 17.597656 9.070312 16.777344 9.070312 15.753906 L 9.070312 8.3125 C 9.070312 7.289062 9.890625 6.46875 10.914062 6.46875 Z M 10.914062 6.46875 "/>
<path style=" stroke:none;fill-rule:nonzero;fill:rgb(45.882353%,45.882353%,45.882353%);fill-opacity:1;" d="M 3.96875 10.296875 C 2.871094 10.296875 1.984375 11.183594 1.984375 12.28125 L 1.984375 40.0625 C 1.984375 41.160156 2.871094 42.046875 3.96875 42.046875 L 43.65625 42.046875 C 44.753906 42.046875 45.640625 41.160156 45.640625 40.0625 L 45.640625 15.257812 L 18.851562 15.257812 C 17.753906 15.257812 16.867188 14.371094 16.867188 13.273438 L 16.867188 10.296875 Z M 3.96875 10.296875 "/>
<path style=" stroke:none;fill-rule:nonzero;fill:url(#linear2);" d="M 3.96875 10.296875 C 2.871094 10.296875 1.984375 11.183594 1.984375 12.28125 L 1.984375 40.0625 C 1.984375 41.160156 2.871094 42.046875 3.96875 42.046875 L 43.65625 42.046875 C 44.753906 42.046875 45.640625 41.160156 45.640625 40.0625 L 45.640625 15.257812 L 18.851562 15.257812 C 17.753906 15.257812 16.867188 14.371094 16.867188 13.273438 L 16.867188 10.296875 Z M 3.96875 10.296875 "/>
<path style=" stroke:none;fill-rule:nonzero;fill:rgb(0%,0%,0%);fill-opacity:0.196078;" d="M 3.96875 42.046875 C 2.871094 42.046875 1.984375 41.160156 1.984375 40.0625 L 1.984375 39.816406 C 1.984375 40.914062 2.871094 41.800781 3.96875 41.800781 L 43.65625 41.800781 C 44.753906 41.800781 45.640625 40.914062 45.640625 39.816406 L 45.640625 40.0625 C 45.640625 41.160156 44.753906 42.046875 43.65625 42.046875 Z M 3.96875 42.046875 "/>
<path style=" stroke:none;fill-rule:nonzero;fill:rgb(100%,100%,100%);fill-opacity:0.392157;" d="M 3.96875 10.421875 C 2.871094 10.421875 1.984375 11.304688 1.984375 12.40625 L 1.984375 12.652344 C 1.984375 11.554688 2.871094 10.667969 3.96875 10.667969 L 16.867188 10.667969 L 16.867188 10.421875 Z M 3.96875 10.421875 "/>
<path style=" stroke:none;fill-rule:nonzero;fill:rgb(100%,100%,100%);fill-opacity:0.392157;" d="M 18.726562 15.507812 C 17.628906 15.507812 16.742188 14.621094 16.742188 13.523438 L 16.742188 13.273438 C 16.742188 14.371094 17.628906 15.261719 18.726562 15.257812 L 45.640625 15.257812 L 45.640625 15.507812 Z M 18.726562 15.507812 "/>
<path style=" stroke:none;fill-rule:nonzero;fill:rgb(12.941177%,12.941177%,12.941177%);fill-opacity:1;" d="M 3.96875 10.15625 C 2.792969 10.15625 1.84375 11.105469 1.84375 12.28125 L 1.84375 40.0625 C 1.84375 41.238281 2.792969 42.1875 3.96875 42.1875 L 43.65625 42.1875 C 44.832031 42.1875 45.78125 41.238281 45.78125 40.0625 L 45.78125 14.976562 L 18.851562 14.976562 C 17.828125 14.976562 17.007812 14.15625 17.007812 13.132812 L 17.007812 10.15625 Z M 3.96875 10.4375 L 16.726562 10.4375 L 16.726562 13.132812 C 16.726562 14.308594 17.675781 15.257812 18.851562 15.257812 L 45.5 15.257812 L 45.5 40.0625 C 45.5 41.085938 44.679688 41.90625 43.65625 41.90625 L 3.96875 41.90625 C 2.945312 41.90625 2.125 41.085938 2.125 40.0625 L 2.125 12.28125 C 2.125 11.257812 2.945312 10.4375 3.96875 10.4375 Z M 3.96875 10.4375 "/>
<path style=" stroke:none;fill-rule:nonzero;fill:rgb(25.882354%,25.882354%,25.882354%);fill-opacity:1;" d="M 22.058594 20.390625 C 18.34375 21.386719 16.152344 25.179688 17.148438 28.898438 C 18.144531 32.613281 21.9375 34.804688 25.652344 33.808594 C 29.371094 32.8125 31.5625 29.019531 30.566406 25.300781 C 29.570312 21.585938 25.773438 19.394531 22.058594 20.390625 Z M 22.570312 22.308594 C 24.144531 21.886719 25.738281 22.265625 26.925781 23.195312 L 19.246094 25.253906 C 19.808594 23.851562 21 22.730469 22.570312 22.308594 Z M 18.902344 27.398438 L 28.296875 24.882812 C 28.441406 25.175781 28.558594 25.488281 28.648438 25.816406 C 28.734375 26.140625 28.789062 26.46875 28.808594 26.796875 L 19.414062 29.3125 C 19.269531 29.019531 19.152344 28.710938 19.0625 28.382812 C 18.976562 28.054688 18.921875 27.726562 18.902344 27.398438 Z M 20.789062 31.003906 L 28.464844 28.949219 C 27.902344 30.347656 26.714844 31.46875 25.140625 31.890625 C 23.566406 32.3125 21.976562 31.933594 20.789062 31.003906 Z M 20.789062 31.003906 "/>
<path style=" stroke:none;fill-rule:nonzero;fill:rgb(0%,0%,0%);fill-opacity:0.235294;" d="M 23.796875 20.152344 C 23.222656 20.15625 22.640625 20.234375 22.058594 20.390625 C 18.851562 21.25 16.78125 24.191406 16.914062 27.367188 C 17.035156 24.414062 19.046875 21.769531 22.058594 20.960938 C 25.773438 19.96875 29.570312 22.15625 30.566406 25.875 C 30.703125 26.382812 30.777344 26.898438 30.800781 27.402344 C 30.828125 26.710938 30.753906 26.003906 30.566406 25.300781 C 29.726562 22.164062 26.890625 20.117188 23.796875 20.152344 Z M 26.316406 23.359375 L 19.570312 25.167969 C 19.445312 25.378906 19.339844 25.597656 19.246094 25.824219 L 26.925781 23.769531 C 26.730469 23.617188 26.527344 23.480469 26.316406 23.359375 Z M 28.742188 26.8125 L 19.414062 29.3125 C 19.269531 29.019531 19.152344 28.710938 19.0625 28.382812 C 19.027344 28.238281 18.996094 28.097656 18.96875 27.953125 L 18.902344 27.972656 C 18.921875 28.296875 18.976562 28.628906 19.0625 28.957031 C 19.152344 29.28125 19.269531 29.59375 19.414062 29.886719 L 28.808594 27.367188 C 28.796875 27.183594 28.773438 27 28.742188 26.8125 Z M 28.464844 29.523438 L 28.140625 29.609375 C 27.503906 30.695312 26.457031 31.539062 25.140625 31.890625 C 23.824219 32.242188 22.492188 32.035156 21.402344 31.414062 L 20.789062 31.578125 C 21.976562 32.507812 23.566406 32.886719 25.140625 32.464844 C 26.714844 32.042969 27.902344 30.917969 28.464844 29.523438 Z M 28.464844 29.523438 "/>
<path style=" stroke:none;fill-rule:nonzero;fill:rgb(100%,100%,100%);fill-opacity:0.392157;" d="M 23.894531 22.105469 C 23.460938 22.101562 23.015625 22.15625 22.570312 22.273438 C 21 22.695312 19.808594 23.820312 19.246094 25.21875 L 19.628906 25.117188 C 20.269531 24.078125 21.292969 23.273438 22.570312 22.929688 C 23.851562 22.589844 25.140625 22.773438 26.214844 23.351562 L 26.925781 23.164062 C 26.074219 22.492188 25.011719 22.109375 23.894531 22.105469 Z M 28.296875 24.851562 L 18.902344 27.367188 C 18.914062 27.578125 18.941406 27.789062 18.984375 28 L 28.296875 25.503906 C 28.441406 25.796875 28.558594 26.109375 28.648438 26.4375 C 28.679688 26.554688 28.707031 26.671875 28.726562 26.785156 L 28.808594 26.765625 C 28.789062 26.4375 28.734375 26.109375 28.648438 25.785156 C 28.558594 25.453125 28.441406 25.144531 28.296875 24.851562 Z M 16.914062 27.378906 C 16.882812 28.082031 16.957031 28.800781 17.148438 29.519531 C 18.144531 33.238281 21.9375 35.425781 25.652344 34.429688 C 28.875 33.570312 30.949219 30.605469 30.796875 27.410156 C 30.65625 30.347656 28.652344 32.972656 25.652344 33.777344 C 21.9375 34.773438 18.144531 32.582031 17.148438 28.863281 C 17.015625 28.367188 16.9375 27.871094 16.914062 27.378906 Z M 28.464844 28.917969 L 20.789062 30.972656 C 21.015625 31.148438 21.253906 31.304688 21.5 31.4375 L 28.082031 29.675781 C 28.230469 29.433594 28.359375 29.179688 28.464844 28.917969 Z M 28.464844 28.917969 "/>
<path style="fill:none;stroke-width:3;stroke-linecap:round;stroke-linejoin:round;stroke:rgb(12.941177%,12.941177%,12.941177%);stroke-opacity:1;stroke-miterlimit:4;" d="M 235.291667 2.5 C 195.666667 13.125 172.291667 53.583333 182.916667 93.25 C 193.541667 132.875 234 156.25 273.625 145.625 C 313.291667 135 336.666667 94.541667 326.041667 54.875 C 315.416667 15.25 274.916667 -8.125 235.291667 2.5 Z M 240.75 22.958333 C 257.541667 18.458333 274.541667 22.5 287.208333 32.416667 L 205.291667 54.375 C 211.291667 39.416667 224 27.458333 240.75 22.958333 Z M 201.625 77.25 L 301.833333 50.416667 C 303.375 53.541667 304.625 56.875 305.583333 60.375 C 306.5 63.833333 307.083333 67.333333 307.291667 70.833333 L 207.083333 97.666667 C 205.541667 94.541667 204.291667 91.25 203.333333 87.75 C 202.416667 84.25 201.833333 80.75 201.625 77.25 Z M 221.75 115.708333 L 303.625 93.791667 C 297.625 108.708333 284.958333 120.666667 268.166667 125.166667 C 251.375 129.666667 234.416667 125.625 221.75 115.708333 Z M 221.75 115.708333 " transform="matrix(0.09375,0,0,0.09375,0,20.15625)"/>
</g>
</svg>
