<?xml version="1.0" encoding="UTF-8"?>
<svg xmlns="http://www.w3.org/2000/svg" xmlns:xlink="http://www.w3.org/1999/xlink" width="48pt" height="48pt" viewBox="0 0 48 48" version="1.1">
<defs>
<linearGradient id="linear0" gradientUnits="userSpaceOnUse" x1="254" y1="233.5" x2="254" y2="254.666672" gradientTransform="matrix(0.093759,0,0,0.093759,-0.00000572259,20.158178)">
<stop offset="0" style="stop-color:rgb(0%,0%,0%);stop-opacity:0.27451;"/>
<stop offset="1" style="stop-color:rgb(0%,0%,0%);stop-opacity:0;"/>
</linearGradient>
<radialGradient id="radial0" gradientUnits="userSpaceOnUse" cx="450.908936" cy="189.579361" fx="450.908936" fy="189.579361" r="21.166656" gradientTransform="matrix(0.000000261256,-0.117199,-0.210958,-0.000000152308,81.172819,95.392999)">
<stop offset="0" style="stop-color:rgb(0%,0%,0%);stop-opacity:0.313725;"/>
<stop offset="0.222222" style="stop-color:rgb(0%,0%,0%);stop-opacity:0.27451;"/>
<stop offset="1" style="stop-color:rgb(0%,0%,0%);stop-opacity:0;"/>
</radialGradient>
<radialGradient id="radial1" gradientUnits="userSpaceOnUse" cx="450.908936" cy="189.579361" fx="450.908936" fy="189.579361" r="21.166656" gradientTransform="matrix(-0.000000261256,0.117199,0.210958,0.000000152308,-33.543267,-11.291218)">
<stop offset="0" style="stop-color:rgb(0%,0%,0%);stop-opacity:0.313725;"/>
<stop offset="0.222222" style="stop-color:rgb(0%,0%,0%);stop-opacity:0.27451;"/>
<stop offset="1" style="stop-color:rgb(0%,0%,0%);stop-opacity:0;"/>
</radialGradient>
<radialGradient id="radial2" gradientUnits="userSpaceOnUse" cx="450.908936" cy="189.579361" fx="450.908936" fy="189.579361" r="21.166656" gradientTransform="matrix(-0.000000261256,-0.117199,0.210958,-0.000000152308,-33.543267,95.392999)">
<stop offset="0" style="stop-color:rgb(0%,0%,0%);stop-opacity:0.313725;"/>
<stop offset="0.222222" style="stop-color:rgb(0%,0%,0%);stop-opacity:0.27451;"/>
<stop offset="1" style="stop-color:rgb(0%,0%,0%);stop-opacity:0;"/>
</radialGradient>
<radialGradient id="radial3" gradientUnits="userSpaceOnUse" cx="450.908936" cy="189.579361" fx="450.908936" fy="189.579361" r="21.166656" gradientTransform="matrix(0.000000261256,0.117199,-0.210958,0.000000152308,81.172816,-11.291219)">
<stop offset="0" style="stop-color:rgb(0%,0%,0%);stop-opacity:0.313725;"/>
<stop offset="0.222222" style="stop-color:rgb(0%,0%,0%);stop-opacity:0.27451;"/>
<stop offset="1" style="stop-color:rgb(0%,0%,0%);stop-opacity:0;"/>
</radialGradient>
<linearGradient id="linear1" gradientUnits="userSpaceOnUse" x1="359.833344" y1="-147.5" x2="359.833344" y2="-62.833332" gradientTransform="matrix(0.093759,0,0,0.093759,0,20.158175)">
<stop offset="0" style="stop-color:rgb(39.215686%,70.980392%,96.470588%);stop-opacity:1;"/>
<stop offset="1" style="stop-color:rgb(73.333333%,87.058824%,98.431373%);stop-opacity:1;"/>
</linearGradient>
<linearGradient id="linear2" gradientUnits="userSpaceOnUse" x1="254" y1="-105.166656" x2="254" y2="95.916672" gradientTransform="matrix(0.093759,0,0,0.093759,0,20.158174)">
<stop offset="0" style="stop-color:rgb(39.215686%,70.980392%,96.470588%);stop-opacity:1;"/>
<stop offset="1" style="stop-color:rgb(98.823529%,89.411765%,92.54902%);stop-opacity:1;"/>
</linearGradient>
<linearGradient id="linear3" gradientUnits="userSpaceOnUse" x1="880" y1="1695.118164" x2="880" y2="1095.118164" gradientTransform="matrix(0.0248071,0,0,0.0248071,0,0)">
<stop offset="0" style="stop-color:rgb(14.901961%,19.607843%,21.960784%);stop-opacity:1;"/>
<stop offset="0.666667" style="stop-color:rgb(27.058824%,35.294118%,39.215686%);stop-opacity:1;"/>
<stop offset="1" style="stop-color:rgb(38.039216%,38.039216%,38.039216%);stop-opacity:1;"/>
</linearGradient>
<linearGradient id="linear4" gradientUnits="userSpaceOnUse" x1="243.416672" y1="148.833328" x2="243.416672" y2="0.666668" gradientTransform="matrix(1,0,0,1,0.00001,0.000243333)">
<stop offset="0" style="stop-color:rgb(69.019608%,74.509804%,77.254902%);stop-opacity:1;"/>
<stop offset="0.375" style="stop-color:rgb(77.254902%,79.215686%,91.372549%);stop-opacity:1;"/>
<stop offset="1" style="stop-color:rgb(32.941176%,43.137255%,47.843137%);stop-opacity:1;"/>
</linearGradient>
</defs>
<g id="surface1">
<path style=" stroke:none;fill-rule:nonzero;fill:url(#linear0);" d="M 5.953125 42.050781 L 41.675781 42.050781 L 41.675781 44.035156 L 5.953125 44.035156 Z M 5.953125 42.050781 "/>
<path style=" stroke:none;fill-rule:nonzero;fill:url(#radial0);" d="M 41.675781 42.050781 L 45.644531 42.050781 L 45.644531 40.066406 L 41.675781 40.066406 Z M 41.675781 42.050781 "/>
<path style=" stroke:none;fill-rule:nonzero;fill:url(#radial1);" d="M 5.953125 42.050781 L 1.984375 42.050781 L 1.984375 44.035156 L 5.953125 44.035156 Z M 5.953125 42.050781 "/>
<path style=" stroke:none;fill-rule:nonzero;fill:url(#radial2);" d="M 5.953125 42.050781 L 1.984375 42.050781 L 1.984375 40.066406 L 5.953125 40.066406 Z M 5.953125 42.050781 "/>
<path style=" stroke:none;fill-rule:nonzero;fill:url(#radial3);" d="M 41.675781 42.050781 L 45.644531 42.050781 L 45.644531 44.035156 L 41.675781 44.035156 Z M 41.675781 42.050781 "/>
<path style=" stroke:none;fill-rule:nonzero;fill:url(#linear1);" d="M 10.914062 6.328125 L 43.164062 6.328125 C 44.261719 6.328125 45.148438 7.21875 45.148438 8.3125 L 45.148438 15.753906 C 45.148438 16.851562 44.261719 17.738281 43.164062 17.738281 L 10.914062 17.738281 C 9.820312 17.738281 8.929688 16.851562 8.929688 15.753906 L 8.929688 8.3125 C 8.929688 7.21875 9.820312 6.328125 10.914062 6.328125 Z M 10.914062 6.328125 "/>
<path style=" stroke:none;fill-rule:nonzero;fill:rgb(90.196079%,90.196079%,90.196079%);fill-opacity:0.588235;" d="M 10.914062 6.328125 C 9.816406 6.328125 8.929688 7.214844 8.929688 8.3125 L 8.929688 8.5625 C 8.929688 7.460938 9.816406 6.578125 10.914062 6.578125 L 43.164062 6.578125 C 44.265625 6.578125 45.148438 7.460938 45.148438 8.5625 L 45.148438 8.3125 C 45.148438 7.214844 44.265625 6.328125 43.164062 6.328125 Z M 10.914062 6.328125 "/>
<path style=" stroke:none;fill-rule:nonzero;fill:rgb(12.941177%,12.941177%,12.941177%);fill-opacity:1;" d="M 10.914062 6.1875 C 9.738281 6.1875 8.789062 7.136719 8.789062 8.3125 L 8.789062 15.753906 C 8.789062 16.929688 9.738281 17.878906 10.914062 17.878906 L 43.164062 17.878906 C 44.339844 17.878906 45.289062 16.929688 45.289062 15.753906 L 45.289062 8.3125 C 45.289062 7.136719 44.339844 6.1875 43.164062 6.1875 Z M 10.914062 6.46875 L 43.164062 6.46875 C 44.1875 6.46875 45.007812 7.289062 45.007812 8.3125 L 45.007812 15.753906 C 45.007812 16.78125 44.1875 17.597656 43.164062 17.597656 L 10.914062 17.597656 C 9.890625 17.597656 9.070312 16.78125 9.070312 15.753906 L 9.070312 8.3125 C 9.070312 7.289062 9.890625 6.46875 10.914062 6.46875 Z M 10.914062 6.46875 "/>
<path style=" stroke:none;fill-rule:nonzero;fill:url(#linear2);" d="M 3.96875 10.296875 C 2.871094 10.296875 1.984375 11.183594 1.984375 12.28125 L 1.984375 40.066406 C 1.984375 41.164062 2.871094 42.050781 3.96875 42.050781 L 43.660156 42.050781 C 44.761719 42.050781 45.644531 41.164062 45.644531 40.066406 L 45.644531 15.257812 L 18.851562 15.257812 C 17.753906 15.257812 16.867188 14.375 16.867188 13.273438 L 16.867188 10.296875 Z M 3.96875 10.296875 "/>
<path style=" stroke:none;fill-rule:nonzero;fill:url(#linear3);" d="M 1.984375 27.167969 L 1.984375 40.066406 C 1.984375 41.164062 2.871094 42.050781 3.96875 42.050781 L 43.660156 42.050781 C 44.761719 42.050781 45.644531 41.164062 45.644531 40.066406 L 45.644531 27.167969 C 43.96875 27.332031 43.660156 28.160156 40.1875 27.167969 C 39.320312 26.792969 37.085938 26.917969 34.730469 27.167969 C 32.746094 27.167969 30.761719 26.175781 29.273438 27.167969 C 28.777344 27.414062 27.832031 27.496094 26.613281 27.492188 C 23.320312 28.160156 20.339844 28.160156 17.390625 27.027344 C 15.875 26.671875 14.210938 27 12.898438 27.167969 C 9.425781 27.664062 8.929688 28.160156 7.441406 27.167969 C 5.953125 26.671875 4.464844 27.664062 1.984375 27.167969 Z M 1.984375 27.167969 "/>
<path style=" stroke:none;fill-rule:nonzero;fill:rgb(0%,0%,0%);fill-opacity:0.196078;" d="M 3.96875 42.050781 C 2.871094 42.050781 1.984375 41.164062 1.984375 40.066406 L 1.984375 39.816406 C 1.984375 40.917969 2.871094 41.804688 3.96875 41.804688 L 43.660156 41.804688 C 44.761719 41.804688 45.644531 40.917969 45.644531 39.816406 L 45.644531 40.066406 C 45.644531 41.164062 44.761719 42.050781 43.660156 42.050781 Z M 3.96875 42.050781 "/>
<path style=" stroke:none;fill-rule:nonzero;fill:rgb(90.196079%,90.196079%,90.196079%);fill-opacity:0.937255;" d="M 3.96875 10.296875 C 2.871094 10.296875 1.984375 11.183594 1.984375 12.28125 L 1.984375 12.53125 C 1.984375 11.429688 2.871094 10.546875 3.96875 10.546875 L 16.867188 10.546875 L 16.867188 10.296875 Z M 3.96875 10.296875 "/>
<path style=" stroke:none;fill-rule:nonzero;fill:rgb(90.196079%,90.196079%,90.196079%);fill-opacity:0.937255;" d="M 18.730469 15.382812 C 17.628906 15.382812 16.746094 14.5 16.746094 13.398438 L 16.746094 13.152344 C 16.746094 14.25 17.628906 15.136719 18.730469 15.136719 L 45.644531 15.136719 L 45.644531 15.382812 Z M 18.730469 15.382812 "/>
<path style=" stroke:none;fill-rule:nonzero;fill:rgb(12.941177%,12.941177%,12.941177%);fill-opacity:1;" d="M 3.96875 10.15625 C 2.792969 10.15625 1.84375 11.109375 1.84375 12.28125 L 1.84375 40.066406 C 1.84375 41.242188 2.792969 42.191406 3.96875 42.191406 L 43.660156 42.191406 C 44.835938 42.191406 45.785156 41.242188 45.785156 40.066406 L 45.785156 14.976562 L 18.851562 14.976562 C 17.828125 14.976562 17.007812 14.15625 17.007812 13.132812 L 17.007812 10.15625 Z M 3.96875 10.4375 L 16.726562 10.4375 L 16.726562 13.132812 C 16.726562 14.308594 17.679688 15.257812 18.851562 15.257812 L 45.503906 15.257812 L 45.503906 40.066406 C 45.503906 41.089844 44.683594 41.910156 43.660156 41.910156 L 3.96875 41.910156 C 2.945312 41.910156 2.125 41.089844 2.125 40.066406 L 2.125 12.28125 C 2.125 11.257812 2.945312 10.4375 3.96875 10.4375 Z M 3.96875 10.4375 "/>
<path style="fill-rule:nonzero;fill:url(#linear4);stroke-width:3;stroke-linecap:round;stroke-linejoin:miter;stroke:rgb(12.941177%,12.941177%,12.941177%);stroke-opacity:1;stroke-miterlimit:4;" d="M 190.48181 0.646073 C 184.649034 0.646073 179.899487 5.39562 179.899487 11.270059 L 179.899487 53.59935 C 179.899487 59.432126 184.649034 64.181673 190.48181 64.181673 L 232.852764 64.181673 C 238.68554 64.181673 243.435086 59.432126 243.435086 53.59935 L 243.435086 11.270059 C 243.435086 5.39562 238.68554 0.646073 232.852764 0.646073 Z M 275.182055 0.646073 C 269.307616 0.646073 264.599732 5.39562 264.599732 11.270059 L 264.599732 53.59935 C 264.599732 59.432126 269.307616 64.181673 275.182055 64.181673 L 317.511346 64.181673 C 323.344122 64.181673 328.093669 59.432126 328.093669 53.59935 L 328.093669 11.270059 C 328.093669 5.39562 323.344122 0.646073 317.511346 0.646073 Z M 190.48181 85.346318 C 184.649034 85.346318 179.899487 90.054202 179.899487 95.928641 L 179.899487 138.257932 C 179.899487 144.132371 184.649034 148.840255 190.48181 148.840255 L 232.852764 148.840255 C 238.68554 148.840255 243.435086 144.132371 243.435086 138.257932 L 243.435086 95.928641 C 243.435086 90.054202 238.68554 85.346318 232.852764 85.346318 Z M 275.182055 85.346318 C 269.307616 85.346318 264.599732 90.054202 264.599732 95.928641 L 264.599732 138.257932 C 264.599732 144.132371 269.307616 148.840255 275.182055 148.840255 L 317.511346 148.840255 C 323.344122 148.840255 328.093669 144.132371 328.093669 138.257932 L 328.093669 95.928641 C 328.093669 90.054202 323.344122 85.346318 317.511346 85.346318 Z M 275.182055 85.346318 " transform="matrix(0.093759,0,0,0.093759,0,20.158175)"/>
<path style=" stroke:none;fill-rule:nonzero;fill:rgb(25.882354%,25.882354%,25.882354%);fill-opacity:0.313725;" d="M 17.859375 28.160156 C 17.3125 28.160156 16.867188 28.601562 16.867188 29.152344 L 16.867188 33.121094 C 16.867188 33.671875 17.3125 34.113281 17.859375 34.113281 L 21.832031 34.113281 C 22.378906 34.113281 22.824219 33.671875 22.824219 33.121094 L 22.824219 29.152344 C 22.824219 28.601562 22.378906 28.160156 21.832031 28.160156 Z M 25.800781 28.160156 C 25.25 28.160156 24.808594 28.601562 24.808594 29.152344 L 24.808594 33.121094 C 24.808594 33.671875 25.25 34.113281 25.800781 34.113281 L 29.769531 34.113281 C 30.316406 34.113281 30.761719 33.671875 30.761719 33.121094 L 30.761719 29.152344 C 30.761719 28.601562 30.316406 28.160156 29.769531 28.160156 Z M 25.800781 28.160156 "/>
</g>
</svg>
