<?xml version="1.0" encoding="UTF-8"?>
<svg xmlns="http://www.w3.org/2000/svg" xmlns:xlink="http://www.w3.org/1999/xlink" width="22pt" height="22pt" viewBox="0 0 22 22" version="1.1">
<defs>
<linearGradient id="linear0" gradientUnits="userSpaceOnUse" x1="254" y1="233.5" x2="254" y2="254.666672" gradientTransform="matrix(0.0429729,0,0,0.0429729,-0.00000262285,9.239165)">
<stop offset="0" style="stop-color:rgb(0%,0%,0%);stop-opacity:0.27451;"/>
<stop offset="1" style="stop-color:rgb(0%,0%,0%);stop-opacity:0;"/>
</linearGradient>
<radialGradient id="radial0" gradientUnits="userSpaceOnUse" cx="450.908936" cy="189.579361" fx="450.908936" fy="189.579361" r="21.166656" gradientTransform="matrix(0.000000119742,-0.0537161,-0.0966889,-0.0000000698078,37.204209,43.721791)">
<stop offset="0" style="stop-color:rgb(0%,0%,0%);stop-opacity:0.313725;"/>
<stop offset="0.222222" style="stop-color:rgb(0%,0%,0%);stop-opacity:0.27451;"/>
<stop offset="1" style="stop-color:rgb(0%,0%,0%);stop-opacity:0;"/>
</radialGradient>
<radialGradient id="radial1" gradientUnits="userSpaceOnUse" cx="450.908936" cy="189.579361" fx="450.908936" fy="189.579361" r="21.166656" gradientTransform="matrix(-0.000000119742,0.0537161,0.0966889,0.0000000698078,-15.373997,-5.175142)">
<stop offset="0" style="stop-color:rgb(0%,0%,0%);stop-opacity:0.313725;"/>
<stop offset="0.222222" style="stop-color:rgb(0%,0%,0%);stop-opacity:0.27451;"/>
<stop offset="1" style="stop-color:rgb(0%,0%,0%);stop-opacity:0;"/>
</radialGradient>
<radialGradient id="radial2" gradientUnits="userSpaceOnUse" cx="450.908936" cy="189.579361" fx="450.908936" fy="189.579361" r="21.166656" gradientTransform="matrix(-0.000000119742,-0.0537161,0.0966889,-0.0000000698078,-15.373997,43.721791)">
<stop offset="0" style="stop-color:rgb(0%,0%,0%);stop-opacity:0.313725;"/>
<stop offset="0.222222" style="stop-color:rgb(0%,0%,0%);stop-opacity:0.27451;"/>
<stop offset="1" style="stop-color:rgb(0%,0%,0%);stop-opacity:0;"/>
</radialGradient>
<radialGradient id="radial3" gradientUnits="userSpaceOnUse" cx="450.908936" cy="189.579361" fx="450.908936" fy="189.579361" r="21.166656" gradientTransform="matrix(0.000000119742,0.0537161,-0.0966889,0.0000000698078,37.204207,-5.175142)">
<stop offset="0" style="stop-color:rgb(0%,0%,0%);stop-opacity:0.313725;"/>
<stop offset="0.222222" style="stop-color:rgb(0%,0%,0%);stop-opacity:0.27451;"/>
<stop offset="1" style="stop-color:rgb(0%,0%,0%);stop-opacity:0;"/>
</radialGradient>
<linearGradient id="linear1" gradientUnits="userSpaceOnUse" x1="296.333344" y1="233.5" x2="296.333344" y2="-147.5" gradientTransform="matrix(0.0429729,0,0,0.0429729,0,9.239163)">
<stop offset="0" style="stop-color:rgb(25.882353%,25.882353%,25.882353%);stop-opacity:1;"/>
<stop offset="1" style="stop-color:rgb(38.039216%,38.039216%,38.039216%);stop-opacity:1;"/>
</linearGradient>
<linearGradient id="linear2" gradientUnits="userSpaceOnUse" x1="254" y1="-147.5" x2="254" y2="233.5" gradientTransform="matrix(0.0429729,0,0,0.0429729,0,9.239163)">
<stop offset="0" style="stop-color:rgb(30.196078%,71.372549%,67.45098%);stop-opacity:1;"/>
<stop offset="1" style="stop-color:rgb(14.901961%,65.098039%,60.392157%);stop-opacity:1;"/>
</linearGradient>
<linearGradient id="linear3" gradientUnits="userSpaceOnUse" x1="141.691696" y1="205.766937" x2="409.750671" y2="-61.889683" gradientTransform="matrix(0.707107,-0.707107,0.707107,0.707107,8.309644,188.191963)">
<stop offset="0" style="stop-color:rgb(25.882353%,25.882353%,25.882353%);stop-opacity:1;"/>
<stop offset="1" style="stop-color:rgb(38.039216%,38.039216%,38.039216%);stop-opacity:1;"/>
</linearGradient>
</defs>
<g id="surface1">
<path style=" stroke:none;fill-rule:nonzero;fill:url(#linear0);" d="M 2.730469 19.273438 L 19.101562 19.273438 L 19.101562 20.183594 L 2.730469 20.183594 Z M 2.730469 19.273438 "/>
<path style=" stroke:none;fill-rule:nonzero;fill:url(#radial0);" d="M 19.101562 19.273438 L 20.921875 19.273438 L 20.921875 18.363281 L 19.101562 18.363281 Z M 19.101562 19.273438 "/>
<path style=" stroke:none;fill-rule:nonzero;fill:url(#radial1);" d="M 2.730469 19.273438 L 0.910156 19.273438 L 0.910156 20.183594 L 2.730469 20.183594 Z M 2.730469 19.273438 "/>
<path style=" stroke:none;fill-rule:nonzero;fill:url(#radial2);" d="M 2.730469 19.273438 L 0.910156 19.273438 L 0.910156 18.363281 L 2.730469 18.363281 Z M 2.730469 19.273438 "/>
<path style=" stroke:none;fill-rule:nonzero;fill:url(#radial3);" d="M 19.101562 19.273438 L 20.921875 19.273438 L 20.921875 20.183594 L 19.101562 20.183594 Z M 19.101562 19.273438 "/>
<path style=" stroke:none;fill-rule:nonzero;fill:url(#linear1);" d="M 5.003906 2.902344 L 19.785156 2.902344 C 20.285156 2.902344 20.691406 3.308594 20.691406 3.808594 L 20.691406 7.222656 C 20.691406 7.722656 20.285156 8.128906 19.785156 8.128906 L 5.003906 8.128906 C 4.5 8.128906 4.09375 7.722656 4.09375 7.222656 L 4.09375 3.808594 C 4.09375 3.308594 4.5 2.902344 5.003906 2.902344 Z M 5.003906 2.902344 "/>
<path style=" stroke:none;fill-rule:nonzero;fill:rgb(90.196079%,90.196079%,90.196079%);fill-opacity:0.588235;" d="M 5.003906 2.902344 C 4.5 2.902344 4.09375 3.304688 4.09375 3.808594 L 4.09375 3.925781 C 4.09375 3.421875 4.5 3.015625 5.003906 3.015625 L 19.785156 3.015625 C 20.289062 3.015625 20.691406 3.421875 20.691406 3.925781 L 20.691406 3.808594 C 20.691406 3.304688 20.289062 2.902344 19.785156 2.902344 Z M 5.003906 2.902344 "/>
<path style=" stroke:none;fill-rule:nonzero;fill:rgb(12.941177%,12.941177%,12.941177%);fill-opacity:1;" d="M 5.003906 2.835938 C 4.464844 2.835938 4.027344 3.273438 4.027344 3.808594 L 4.027344 7.222656 C 4.027344 7.757812 4.464844 8.195312 5.003906 8.195312 L 19.785156 8.195312 C 20.320312 8.195312 20.757812 7.757812 20.757812 7.222656 L 20.757812 3.808594 C 20.757812 3.273438 20.320312 2.835938 19.785156 2.835938 Z M 5.003906 2.964844 L 19.785156 2.964844 C 20.253906 2.964844 20.628906 3.339844 20.628906 3.808594 L 20.628906 7.222656 C 20.628906 7.691406 20.253906 8.066406 19.785156 8.066406 L 5.003906 8.066406 C 4.535156 8.066406 4.15625 7.691406 4.15625 7.222656 L 4.15625 3.808594 C 4.15625 3.339844 4.535156 2.964844 5.003906 2.964844 Z M 5.003906 2.964844 "/>
<path style=" stroke:none;fill-rule:nonzero;fill:url(#linear2);" d="M 1.820312 4.71875 C 1.316406 4.71875 0.910156 5.125 0.910156 5.628906 L 0.910156 18.363281 C 0.910156 18.867188 1.316406 19.273438 1.820312 19.273438 L 20.011719 19.273438 C 20.515625 19.273438 20.921875 18.867188 20.921875 18.363281 L 20.921875 6.992188 L 8.640625 6.992188 C 8.136719 6.992188 7.730469 6.589844 7.730469 6.085938 L 7.730469 4.71875 Z M 1.820312 4.71875 "/>
<path style=" stroke:none;fill-rule:nonzero;fill:rgb(0%,0%,0%);fill-opacity:0.196078;" d="M 1.820312 19.273438 C 1.316406 19.273438 0.910156 18.867188 0.910156 18.363281 L 0.910156 18.25 C 0.910156 18.753906 1.316406 19.160156 1.820312 19.160156 L 20.011719 19.160156 C 20.515625 19.160156 20.921875 18.753906 20.921875 18.25 L 20.921875 18.363281 C 20.921875 18.867188 20.515625 19.273438 20.011719 19.273438 Z M 1.820312 19.273438 "/>
<path style=" stroke:none;fill-rule:nonzero;fill:rgb(90.196079%,90.196079%,90.196079%);fill-opacity:0.937255;" d="M 1.820312 4.71875 C 1.316406 4.71875 0.910156 5.125 0.910156 5.628906 L 0.910156 5.742188 C 0.910156 5.238281 1.316406 4.832031 1.820312 4.832031 L 7.730469 4.832031 L 7.730469 4.71875 Z M 1.820312 4.71875 "/>
<path style=" stroke:none;fill-rule:nonzero;fill:rgb(90.196079%,90.196079%,90.196079%);fill-opacity:0.937255;" d="M 8.585938 7.050781 C 8.082031 7.050781 7.675781 6.644531 7.675781 6.140625 L 7.675781 6.027344 C 7.675781 6.53125 8.082031 6.9375 8.585938 6.9375 L 20.921875 6.9375 L 20.921875 7.050781 Z M 8.585938 7.050781 "/>
<path style=" stroke:none;fill-rule:nonzero;fill:rgb(12.941177%,12.941177%,12.941177%);fill-opacity:1;" d="M 1.820312 4.65625 C 1.28125 4.65625 0.84375 5.089844 0.84375 5.628906 L 0.84375 18.363281 C 0.84375 18.902344 1.28125 19.335938 1.820312 19.335938 L 20.011719 19.335938 C 20.550781 19.335938 20.984375 18.902344 20.984375 18.363281 L 20.984375 6.863281 L 8.640625 6.863281 C 8.171875 6.863281 7.796875 6.488281 7.796875 6.019531 L 7.796875 4.65625 Z M 1.820312 4.785156 L 7.667969 4.785156 L 7.667969 6.019531 C 7.667969 6.558594 8.101562 6.992188 8.640625 6.992188 L 20.855469 6.992188 L 20.855469 18.363281 C 20.855469 18.832031 20.480469 19.207031 20.011719 19.207031 L 1.820312 19.207031 C 1.351562 19.207031 0.972656 18.832031 0.972656 18.363281 L 0.972656 5.628906 C 0.972656 5.160156 1.351562 4.785156 1.820312 4.785156 Z M 1.820312 4.785156 "/>
<path style="fill-rule:nonzero;fill:url(#linear3);stroke-width:3;stroke-linecap:round;stroke-linejoin:miter;stroke:rgb(12.941177%,12.941177%,12.941177%);stroke-opacity:1;stroke-miterlimit:4;" d="M 180.891817 31.521913 C 168.43846 43.975269 168.43846 63.973359 180.891817 76.426716 L 203.344218 98.879117 L 278.155256 24.068079 L 255.702854 1.615678 C 243.340399 -10.837678 223.251408 -10.837678 210.798052 1.615678 Z M 195.890384 61.428148 C 199.980903 57.337629 206.707533 57.337629 210.798052 61.428148 C 214.97947 65.609567 214.97947 72.245297 210.798052 76.426716 C 206.707533 80.517234 199.980903 80.517234 195.890384 76.426716 C 191.708965 72.245297 191.708965 65.609567 195.890384 61.428148 Z M 218.342786 38.975747 C 222.433304 34.885228 228.796333 34.430726 232.432349 38.157643 L 234.159457 39.884751 C 237.795473 43.520767 237.431872 49.792895 233.250453 53.974314 C 229.159935 58.064833 222.887806 58.519335 219.160889 54.792418 L 217.433782 53.06531 C 213.797765 49.429294 214.161367 43.157165 218.342786 38.975747 Z M 240.795187 16.523345 C 244.885705 12.432827 251.248734 11.978325 254.884751 15.705241 L 256.611858 17.432349 C 260.247875 21.068366 259.884273 27.340494 255.702854 31.521913 C 251.612336 35.612431 245.340208 36.066933 241.613291 32.340017 L 239.886183 30.612909 C 236.250167 26.976892 236.613768 20.704764 240.795187 16.523345 Z M 195.890384 121.331518 C 187.618447 129.603456 187.618447 142.965816 195.890384 151.237753 C 204.162322 159.509691 217.524682 159.509691 225.796619 151.237753 L 330.604792 46.520481 C 338.87673 38.157643 338.87673 24.795283 330.604792 16.523345 C 322.241955 8.251408 308.970495 8.251408 300.607657 16.523345 Z M 248.249021 143.78392 C 256.520958 152.055857 269.883318 152.055857 278.155256 143.78392 L 323.060058 98.879117 C 331.422896 90.60718 331.422896 77.244819 323.060058 68.881982 Z M 248.249021 143.78392 " transform="matrix(0.0429729,0,0,0.0429729,0,9.239163)"/>
</g>
</svg>
