
<svg xmlns="http://www.w3.org/2000/svg" xmlns:xlink="http://www.w3.org/1999/xlink" width="22px" height="22px" viewBox="0 0 22 22" version="1.1">
<g id="surface1">
<defs>
  <style id="current-color-scheme" type="text/css">
   .ColorScheme-Text { color:#424242; } .ColorScheme-Highlight { color:#eeeeee; }
  </style>
 </defs>
<path style="fill:currentColor" class="ColorScheme-Text" d="M 11 2.75 C 6.429688 2.75 2.75 6.429688 2.75 11 C 2.75 13.28125 3.667969 15.34375 5.160156 16.839844 L 6.132812 15.867188 C 4.894531 14.625 4.125 12.90625 4.125 11 C 4.125 7.191406 7.191406 4.125 11 4.125 C 14.808594 4.125 17.875 7.191406 17.875 11 C 17.875 12.90625 17.105469 14.625 15.867188 15.867188 L 16.839844 16.839844 C 18.332031 15.34375 19.25 13.28125 19.25 11 C 19.25 6.429688 15.570312 2.75 11 2.75 Z M 11 5.5 C 7.953125 5.5 5.5 7.953125 5.5 11 C 5.5 12.523438 6.113281 13.894531 7.109375 14.886719 L 8.078125 13.921875 C 7.335938 13.175781 6.875 12.144531 6.875 11 C 6.875 8.71875 8.71875 6.875 11 6.875 C 13.28125 6.875 15.125 8.71875 15.125 11 C 15.125 12.144531 14.664062 13.175781 13.921875 13.921875 L 14.886719 14.886719 C 15.886719 13.894531 16.5 12.523438 16.5 11 C 16.5 7.953125 14.046875 5.5 11 5.5 Z M 10.9375 9.625 C 10.210938 9.625 9.625 10.238281 9.625 11 L 9.625 17.875 L 8.25 17.875 L 8.25 19.25 L 13.75 19.25 L 13.75 17.875 L 12.375 17.875 L 12.375 11 C 12.375 10.238281 11.789062 9.625 11.0625 9.625 Z M 10.9375 9.625 "/>
<defs>
  <style id="current-color-scheme" type="text/css">
   .ColorScheme-Text { color:#424242; } .ColorScheme-Highlight { color:#eeeeee; }
  </style>
 </defs>
<path style="fill:currentColor" class="ColorScheme-Text" d="M 11 2.75 C 6.429688 2.75 2.75 6.429688 2.75 11 C 2.75 13.28125 3.667969 15.34375 5.160156 16.839844 L 6.132812 15.867188 C 4.894531 14.625 4.125 12.90625 4.125 11 C 4.125 7.191406 7.191406 4.125 11 4.125 C 14.808594 4.125 17.875 7.191406 17.875 11 C 17.875 12.90625 17.105469 14.625 15.867188 15.867188 L 16.839844 16.839844 C 18.332031 15.34375 19.25 13.28125 19.25 11 C 19.25 6.429688 15.570312 2.75 11 2.75 Z M 11 5.5 C 7.953125 5.5 5.5 7.953125 5.5 11 C 5.5 12.523438 6.113281 13.894531 7.109375 14.886719 L 8.078125 13.921875 C 7.335938 13.175781 6.875 12.144531 6.875 11 C 6.875 8.71875 8.71875 6.875 11 6.875 C 13.28125 6.875 15.125 8.71875 15.125 11 C 15.125 12.144531 14.664062 13.175781 13.921875 13.921875 L 14.886719 14.886719 C 15.886719 13.894531 16.5 12.523438 16.5 11 C 16.5 7.953125 14.046875 5.5 11 5.5 Z M 10.9375 9.625 C 10.210938 9.625 9.625 10.238281 9.625 11 L 9.625 17.875 L 8.25 17.875 L 8.25 19.25 L 13.75 19.25 L 13.75 17.875 L 12.375 17.875 L 12.375 11 C 12.375 10.238281 11.789062 9.625 11.0625 9.625 Z M 10.9375 9.625 "/>
</g>
</svg>
