<svg xmlns="http://www.w3.org/2000/svg" width="24" height="24"><path d="M11.906 2.668a.991.991 0 0 0-.992.992v7.442H3.473a.991.991 0 0 0-.993.992c0 .55.442.992.993.992h7.441v7.445a.991.991 0 1 0 1.984 0v-7.445h7.442a.992.992 0 1 0 0-1.984h-7.442V3.66a.989.989 0 0 0-.992-.992zm0 0" fill="#26a69a" stroke-width="3.8430204" stroke-linecap="round" stroke-linejoin="round" stroke="#26a69a"/><path d="M11.906 2.668a.991.991 0 0 0-.992.992v7.442H3.473a.991.991 0 0 0-.993.992c0 .55.442.992.993.992h7.441v7.445a.991.991 0 1 0 1.984 0v-7.445h7.442a.992.992 0 1 0 0-1.984h-7.442V3.66a.989.989 0 0 0-.992-.992zm0 0" fill="#fafafa"/></svg>