<?xml version="1.0" encoding="UTF-8"?>
<svg xmlns="http://www.w3.org/2000/svg" xmlns:xlink="http://www.w3.org/1999/xlink" width="512pt" height="512pt" viewBox="0 0 512 512" version="1.1">
<g id="surface1">
<path style=" stroke:none;fill-rule:nonzero;fill:rgb(74.117649%,74.117649%,74.117649%);fill-opacity:1;" d="M 254.023438 490.878906 C 125.023438 490.878906 21.167969 387.027344 21.167969 258.023438 C 21.167969 129.023438 125.023438 25.167969 254.023438 25.167969 C 383.027344 25.167969 486.878906 129.023438 486.878906 258.023438 C 486.878906 387.027344 383.027344 490.878906 254.023438 490.878906 Z M 254.023438 448.542969 C 359.570312 448.542969 444.542969 363.570312 444.542969 258.023438 C 444.542969 152.476562 359.570312 67.507812 254.023438 67.507812 C 148.476562 67.507812 63.507812 152.476562 63.507812 258.023438 C 63.507812 363.570312 148.476562 448.542969 254.023438 448.542969 Z M 254.023438 448.542969 "/>
<path style=" stroke:none;fill-rule:evenodd;fill:rgb(25.882354%,64.705884%,96.078432%);fill-opacity:1;" d="M 169.347656 152.191406 C 157.871094 152.484375 148.71875 161.871094 148.71875 173.351562 L 148.71875 342.699219 C 148.722656 360.445312 169.25 370.3125 183.109375 359.230469 L 288.953125 274.554688 C 299.542969 266.078125 299.542969 249.972656 288.953125 241.496094 L 183.109375 156.820312 C 179.210938 153.703125 174.339844 152.0625 169.347656 152.191406 Z M 169.347656 152.191406 "/>
<path style=" stroke:none;fill-rule:nonzero;fill:rgb(25.882354%,64.705884%,96.078432%);fill-opacity:1;" d="M 329.640625 152.179688 L 326.585938 152.179688 C 315.738281 152.179688 306.945312 161.660156 306.945312 173.351562 L 306.945312 342.699219 C 306.945312 354.390625 315.738281 363.867188 326.585938 363.867188 L 329.640625 363.867188 C 340.488281 363.867188 349.285156 354.390625 349.285156 342.699219 L 349.285156 173.351562 C 349.285156 161.660156 340.488281 152.179688 329.640625 152.179688 Z M 329.640625 152.179688 "/>
</g>
</svg>
