<?xml version="1.0" encoding="UTF-8"?>
<svg xmlns="http://www.w3.org/2000/svg" xmlns:xlink="http://www.w3.org/1999/xlink" width="24pt" height="24pt" viewBox="0 0 24 24" version="1.1">
<defs>
<radialGradient id="radial0" gradientUnits="userSpaceOnUse" cx="450.908936" cy="189.579361" fx="450.908936" fy="189.579361" r="21.166656" gradientTransform="matrix(0.000000130628,-0.0585994,-0.105479,-0.0000000761539,26.198318,47.696497)">
<stop offset="0" style="stop-color:rgb(0%,0%,0%);stop-opacity:0.313725;"/>
<stop offset="0.222222" style="stop-color:rgb(0%,0%,0%);stop-opacity:0.27451;"/>
<stop offset="1" style="stop-color:rgb(0%,0%,0%);stop-opacity:0;"/>
</radialGradient>
<radialGradient id="radial1" gradientUnits="userSpaceOnUse" cx="450.908936" cy="189.579361" fx="450.908936" fy="189.579361" r="21.166656" gradientTransform="matrix(-0.000000130628,0.0585994,0.105479,0.0000000761539,-13.546718,-5.645612)">
<stop offset="0" style="stop-color:rgb(0%,0%,0%);stop-opacity:0.313725;"/>
<stop offset="0.222222" style="stop-color:rgb(0%,0%,0%);stop-opacity:0.27451;"/>
<stop offset="1" style="stop-color:rgb(0%,0%,0%);stop-opacity:0;"/>
</radialGradient>
<radialGradient id="radial2" gradientUnits="userSpaceOnUse" cx="450.908936" cy="189.579361" fx="450.908936" fy="189.579361" r="21.166656" gradientTransform="matrix(-0.000000130628,-0.0585994,0.105479,-0.0000000761539,-13.546718,47.696497)">
<stop offset="0" style="stop-color:rgb(0%,0%,0%);stop-opacity:0.313725;"/>
<stop offset="0.222222" style="stop-color:rgb(0%,0%,0%);stop-opacity:0.27451;"/>
<stop offset="1" style="stop-color:rgb(0%,0%,0%);stop-opacity:0;"/>
</radialGradient>
<radialGradient id="radial3" gradientUnits="userSpaceOnUse" cx="450.908936" cy="189.579361" fx="450.908936" fy="189.579361" r="21.166656" gradientTransform="matrix(0.000000130628,0.0585994,-0.105479,0.0000000761539,26.198316,-5.645612)">
<stop offset="0" style="stop-color:rgb(0%,0%,0%);stop-opacity:0.313725;"/>
<stop offset="0.222222" style="stop-color:rgb(0%,0%,0%);stop-opacity:0.27451;"/>
<stop offset="1" style="stop-color:rgb(0%,0%,0%);stop-opacity:0;"/>
</radialGradient>
<linearGradient id="linear0" gradientUnits="userSpaceOnUse" x1="255.323059" y1="233.5" x2="255.323044" y2="254.666656" gradientTransform="matrix(0.01002,0,0,0.0468795,5.37991,10.079088)">
<stop offset="0" style="stop-color:rgb(0%,0%,0%);stop-opacity:0.27451;"/>
<stop offset="1" style="stop-color:rgb(0%,0%,0%);stop-opacity:0;"/>
</linearGradient>
<radialGradient id="radial4" gradientUnits="userSpaceOnUse" cx="450.908936" cy="189.579361" fx="450.908936" fy="189.579361" r="21.166656" gradientTransform="matrix(0.000000130628,-0.0585994,-0.105479,-0.0000000761539,37.609565,47.696497)">
<stop offset="0" style="stop-color:rgb(0%,0%,0%);stop-opacity:0.313725;"/>
<stop offset="0.222222" style="stop-color:rgb(0%,0%,0%);stop-opacity:0.27451;"/>
<stop offset="1" style="stop-color:rgb(0%,0%,0%);stop-opacity:0;"/>
</radialGradient>
<radialGradient id="radial5" gradientUnits="userSpaceOnUse" cx="450.908936" cy="189.579361" fx="450.908936" fy="189.579361" r="21.166656" gradientTransform="matrix(-0.000000130628,0.0585994,0.105479,0.0000000761539,-2.135471,-5.645612)">
<stop offset="0" style="stop-color:rgb(0%,0%,0%);stop-opacity:0.313725;"/>
<stop offset="0.222222" style="stop-color:rgb(0%,0%,0%);stop-opacity:0.27451;"/>
<stop offset="1" style="stop-color:rgb(0%,0%,0%);stop-opacity:0;"/>
</radialGradient>
<radialGradient id="radial6" gradientUnits="userSpaceOnUse" cx="450.908936" cy="189.579361" fx="450.908936" fy="189.579361" r="21.166656" gradientTransform="matrix(-0.000000130628,-0.0585994,0.105479,-0.0000000761539,-2.135471,47.696497)">
<stop offset="0" style="stop-color:rgb(0%,0%,0%);stop-opacity:0.313725;"/>
<stop offset="0.222222" style="stop-color:rgb(0%,0%,0%);stop-opacity:0.27451;"/>
<stop offset="1" style="stop-color:rgb(0%,0%,0%);stop-opacity:0;"/>
</radialGradient>
<radialGradient id="radial7" gradientUnits="userSpaceOnUse" cx="450.908936" cy="189.579361" fx="450.908936" fy="189.579361" r="21.166656" gradientTransform="matrix(0.000000130628,0.0585994,-0.105479,0.0000000761539,37.609563,-5.645612)">
<stop offset="0" style="stop-color:rgb(0%,0%,0%);stop-opacity:0.313725;"/>
<stop offset="0.222222" style="stop-color:rgb(0%,0%,0%);stop-opacity:0.27451;"/>
<stop offset="1" style="stop-color:rgb(0%,0%,0%);stop-opacity:0;"/>
</radialGradient>
<linearGradient id="linear1" gradientUnits="userSpaceOnUse" x1="255.323059" y1="233.5" x2="255.323044" y2="254.666656" gradientTransform="matrix(0.01002,0,0,0.0468795,16.791157,10.079088)">
<stop offset="0" style="stop-color:rgb(0%,0%,0%);stop-opacity:0.27451;"/>
<stop offset="1" style="stop-color:rgb(0%,0%,0%);stop-opacity:0;"/>
</linearGradient>
<linearGradient id="linear2" gradientUnits="userSpaceOnUse" x1="254" y1="233.5" x2="254" y2="-168.666656" gradientTransform="matrix(0.0468795,0,0,0.0468795,0,10.079087)">
<stop offset="0" style="stop-color:rgb(100%,79.215686%,15.686275%);stop-opacity:1;"/>
<stop offset="1" style="stop-color:rgb(100%,83.529412%,30.980392%);stop-opacity:1;"/>
</linearGradient>
</defs>
<g id="surface1">
<path style=" stroke:none;fill-rule:nonzero;fill:url(#radial0);" d="M 6.449219 21.027344 L 8.433594 21.027344 L 8.433594 20.03125 L 6.449219 20.03125 Z M 6.449219 21.027344 "/>
<path style=" stroke:none;fill-rule:nonzero;fill:url(#radial1);" d="M 6.203125 21.027344 L 4.21875 21.027344 L 4.21875 22.019531 L 6.203125 22.019531 Z M 6.203125 21.027344 "/>
<path style=" stroke:none;fill-rule:nonzero;fill:url(#radial2);" d="M 6.203125 21.027344 L 4.21875 21.027344 L 4.21875 20.03125 L 6.203125 20.03125 Z M 6.203125 21.027344 "/>
<path style=" stroke:none;fill-rule:nonzero;fill:url(#radial3);" d="M 6.449219 21.027344 L 8.433594 21.027344 L 8.433594 22.019531 L 6.449219 22.019531 Z M 6.449219 21.027344 "/>
<path style=" stroke:none;fill-rule:nonzero;fill:url(#linear0);" d="M 6.203125 20.777344 L 6.449219 20.777344 L 6.449219 22.019531 L 6.203125 22.019531 Z M 6.203125 20.777344 "/>
<path style=" stroke:none;fill-rule:nonzero;fill:url(#radial4);" d="M 17.859375 21.027344 L 19.84375 21.027344 L 19.84375 20.03125 L 17.859375 20.03125 Z M 17.859375 21.027344 "/>
<path style=" stroke:none;fill-rule:nonzero;fill:url(#radial5);" d="M 17.613281 21.027344 L 15.628906 21.027344 L 15.628906 22.019531 L 17.613281 22.019531 Z M 17.613281 21.027344 "/>
<path style=" stroke:none;fill-rule:nonzero;fill:url(#radial6);" d="M 17.613281 21.027344 L 15.628906 21.027344 L 15.628906 20.03125 L 17.613281 20.03125 Z M 17.613281 21.027344 "/>
<path style=" stroke:none;fill-rule:nonzero;fill:url(#radial7);" d="M 17.859375 21.027344 L 19.84375 21.027344 L 19.84375 22.019531 L 17.859375 22.019531 Z M 17.859375 21.027344 "/>
<path style=" stroke:none;fill-rule:nonzero;fill:url(#linear1);" d="M 17.613281 20.777344 L 17.859375 20.777344 L 17.859375 22.019531 L 17.613281 22.019531 Z M 17.613281 20.777344 "/>
<path style=" stroke:none;fill-rule:nonzero;fill:url(#linear2);" d="M 11.90625 2.171875 C 13.246094 2.171875 13.742188 7.792969 14.824219 8.578125 C 15.90625 9.363281 21.402344 8.101562 21.816406 9.371094 C 22.230469 10.644531 17.039062 12.851562 16.625 14.125 C 16.210938 15.394531 19.113281 20.234375 18.03125 21.019531 C 16.949219 21.804688 13.246094 17.550781 11.90625 17.550781 C 10.570312 17.550781 6.863281 21.804688 5.785156 21.019531 C 4.703125 20.234375 7.601562 15.394531 7.1875 14.125 C 6.777344 12.851562 1.585938 10.644531 2 9.371094 C 2.410156 8.101562 7.910156 9.363281 8.992188 8.578125 C 10.074219 7.792969 10.570312 2.171875 11.90625 2.171875 Z M 11.90625 2.171875 "/>
<path style=" stroke:none;fill-rule:nonzero;fill:rgb(100%,100%,100%);fill-opacity:0.392157;" d="M 11.90625 2.109375 C 10.570312 2.109375 10.074219 7.730469 8.992188 8.515625 C 7.910156 9.300781 2.410156 8.039062 2 9.308594 C 1.96875 9.398438 1.96875 9.492188 1.988281 9.585938 C 1.992188 9.578125 1.996094 9.566406 2 9.558594 C 2.410156 8.285156 7.910156 9.550781 8.992188 8.761719 C 10.074219 7.976562 10.570312 2.359375 11.90625 2.359375 C 13.246094 2.359375 13.742188 7.976562 14.824219 8.761719 C 15.90625 9.550781 21.402344 8.285156 21.816406 9.558594 C 21.820312 9.566406 21.824219 9.578125 21.824219 9.585938 C 21.847656 9.492188 21.84375 9.398438 21.816406 9.308594 C 21.402344 8.039062 15.90625 9.300781 14.824219 8.515625 C 13.742188 7.730469 13.246094 2.109375 11.90625 2.109375 Z M 7.222656 14.496094 C 7.121094 15.933594 5.445312 19.070312 5.542969 20.425781 C 5.640625 18.871094 7.332031 15.710938 7.222656 14.496094 Z M 16.589844 14.496094 C 16.484375 15.710938 18.175781 18.871094 18.269531 20.425781 C 18.367188 19.070312 16.691406 15.933594 16.589844 14.496094 Z M 16.589844 14.496094 "/>
<path style=" stroke:none;fill-rule:nonzero;fill:rgb(0%,0%,0%);fill-opacity:0.235294;" d="M 1.980469 9.460938 C 1.820312 10.746094 6.785156 12.882812 7.1875 14.125 C 7.210938 14.195312 7.222656 14.277344 7.226562 14.367188 C 7.234375 14.226562 7.222656 14.101562 7.1875 14 C 6.796875 12.796875 2.125 10.753906 1.980469 9.460938 Z M 21.835938 9.460938 C 21.6875 10.753906 17.015625 12.796875 16.625 14 C 16.59375 14.101562 16.582031 14.226562 16.585938 14.367188 C 16.589844 14.277344 16.601562 14.195312 16.625 14.125 C 17.03125 12.882812 21.992188 10.746094 21.835938 9.460938 Z M 11.90625 17.429688 C 10.570312 17.429688 6.863281 21.683594 5.785156 20.898438 C 5.625 20.78125 5.550781 20.578125 5.542969 20.308594 C 5.53125 20.636719 5.601562 20.886719 5.785156 21.019531 C 6.863281 21.804688 10.570312 17.550781 11.90625 17.550781 C 13.246094 17.550781 16.949219 21.804688 18.03125 21.019531 C 18.214844 20.886719 18.285156 20.636719 18.273438 20.308594 C 18.265625 20.578125 18.191406 20.78125 18.03125 20.898438 C 16.949219 21.683594 13.246094 17.429688 11.90625 17.429688 Z M 11.90625 17.429688 "/>
<path style=" stroke:none;fill-rule:nonzero;fill:rgb(12.941177%,12.941177%,12.941177%);fill-opacity:1;" d="M 11.90625 2.101562 C 11.714844 2.101562 11.542969 2.203125 11.390625 2.367188 C 11.238281 2.53125 11.105469 2.757812 10.976562 3.03125 C 10.722656 3.578125 10.5 4.308594 10.285156 5.0625 C 10.070312 5.8125 9.867188 6.589844 9.648438 7.222656 C 9.429688 7.855469 9.191406 8.34375 8.949219 8.519531 C 8.710938 8.695312 8.167969 8.773438 7.5 8.785156 C 6.828125 8.796875 6.027344 8.75 5.246094 8.722656 C 4.464844 8.691406 3.703125 8.679688 3.105469 8.75 C 2.804688 8.789062 2.546875 8.847656 2.34375 8.941406 C 2.140625 9.035156 1.992188 9.167969 1.929688 9.351562 C 1.871094 9.53125 1.914062 9.726562 2.023438 9.921875 C 2.132812 10.117188 2.308594 10.316406 2.527344 10.523438 C 2.96875 10.933594 3.59375 11.371094 4.246094 11.804688 C 4.894531 12.242188 5.566406 12.675781 6.101562 13.078125 C 6.636719 13.484375 7.03125 13.863281 7.121094 14.144531 C 7.214844 14.429688 7.121094 14.964844 6.925781 15.605469 C 6.726562 16.246094 6.4375 16.996094 6.167969 17.730469 C 5.898438 18.464844 5.652344 19.183594 5.535156 19.777344 C 5.476562 20.074219 5.453125 20.335938 5.480469 20.558594 C 5.507812 20.78125 5.585938 20.964844 5.742188 21.078125 C 5.898438 21.191406 6.097656 21.210938 6.316406 21.164062 C 6.535156 21.121094 6.777344 21.019531 7.042969 20.871094 C 7.570312 20.578125 8.179688 20.121094 8.792969 19.636719 C 9.40625 19.152344 10.03125 18.648438 10.578125 18.261719 C 11.128906 17.878906 11.609375 17.621094 11.90625 17.621094 C 12.203125 17.621094 12.6875 17.878906 13.234375 18.261719 C 13.785156 18.648438 14.40625 19.152344 15.023438 19.636719 C 15.636719 20.121094 16.246094 20.578125 16.773438 20.871094 C 17.035156 21.019531 17.28125 21.121094 17.5 21.164062 C 17.71875 21.210938 17.917969 21.191406 18.074219 21.078125 C 18.226562 20.964844 18.308594 20.78125 18.335938 20.558594 C 18.359375 20.335938 18.335938 20.074219 18.277344 19.777344 C 18.164062 19.183594 17.914062 18.464844 17.644531 17.730469 C 17.375 16.996094 17.085938 16.246094 16.890625 15.605469 C 16.695312 14.964844 16.601562 14.429688 16.691406 14.144531 C 16.785156 13.863281 17.175781 13.484375 17.710938 13.078125 C 18.246094 12.675781 18.921875 12.242188 19.570312 11.804688 C 20.21875 11.371094 20.84375 10.933594 21.285156 10.523438 C 21.507812 10.316406 21.679688 10.117188 21.789062 9.921875 C 21.898438 9.726562 21.941406 9.53125 21.882812 9.351562 C 21.824219 9.167969 21.675781 9.035156 21.472656 8.941406 C 21.269531 8.847656 21.007812 8.789062 20.710938 8.75 C 20.113281 8.679688 19.351562 8.691406 18.566406 8.722656 C 17.785156 8.75 16.984375 8.796875 16.316406 8.785156 C 15.644531 8.773438 15.105469 8.695312 14.863281 8.519531 C 14.625 8.34375 14.382812 7.855469 14.167969 7.222656 C 13.949219 6.589844 13.742188 5.8125 13.527344 5.0625 C 13.316406 4.308594 13.09375 3.578125 12.839844 3.03125 C 12.710938 2.757812 12.574219 2.53125 12.421875 2.367188 C 12.273438 2.203125 12.097656 2.101562 11.90625 2.101562 Z M 11.90625 2.242188 C 12.050781 2.242188 12.183594 2.316406 12.320312 2.460938 C 12.457031 2.609375 12.585938 2.828125 12.710938 3.09375 C 12.960938 3.625 13.179688 4.347656 13.394531 5.097656 C 13.605469 5.851562 13.8125 6.625 14.03125 7.269531 C 14.253906 7.910156 14.480469 8.414062 14.78125 8.632812 C 15.082031 8.851562 15.636719 8.914062 16.3125 8.925781 C 16.992188 8.9375 17.792969 8.890625 18.574219 8.863281 C 19.351562 8.832031 20.109375 8.820312 20.691406 8.890625 C 20.984375 8.925781 21.230469 8.984375 21.414062 9.066406 C 21.59375 9.152344 21.707031 9.257812 21.75 9.394531 C 21.792969 9.527344 21.765625 9.679688 21.667969 9.855469 C 21.570312 10.027344 21.402344 10.21875 21.191406 10.421875 C 20.761719 10.820312 20.140625 11.253906 19.492188 11.6875 C 18.84375 12.125 18.167969 12.558594 17.628906 12.96875 C 17.085938 13.375 16.675781 13.75 16.558594 14.101562 C 16.445312 14.457031 16.558594 15 16.757812 15.648438 C 16.953125 16.296875 17.246094 17.046875 17.511719 17.777344 C 17.78125 18.511719 18.03125 19.226562 18.140625 19.804688 C 18.195312 20.089844 18.21875 20.34375 18.195312 20.542969 C 18.171875 20.742188 18.105469 20.878906 17.988281 20.964844 C 17.875 21.046875 17.722656 21.066406 17.527344 21.027344 C 17.332031 20.988281 17.097656 20.890625 16.839844 20.75 C 16.328125 20.464844 15.722656 20.007812 15.109375 19.527344 C 14.496094 19.042969 13.871094 18.535156 13.316406 18.148438 C 12.761719 17.757812 12.277344 17.480469 11.90625 17.480469 C 11.535156 17.480469 11.054688 17.757812 10.5 18.148438 C 9.941406 18.535156 9.320312 19.042969 8.707031 19.527344 C 8.09375 20.007812 7.488281 20.464844 6.972656 20.75 C 6.71875 20.890625 6.484375 20.988281 6.289062 21.027344 C 6.09375 21.066406 5.941406 21.046875 5.824219 20.964844 C 5.710938 20.878906 5.644531 20.742188 5.621094 20.542969 C 5.597656 20.34375 5.617188 20.089844 5.671875 19.804688 C 5.785156 19.226562 6.03125 18.511719 6.300781 17.777344 C 6.570312 17.046875 6.859375 16.296875 7.058594 15.648438 C 7.257812 15 7.371094 14.457031 7.253906 14.101562 C 7.140625 13.75 6.730469 13.375 6.1875 12.96875 C 5.644531 12.558594 4.972656 12.125 4.324219 11.6875 C 3.675781 11.253906 3.054688 10.820312 2.625 10.421875 C 2.410156 10.21875 2.246094 10.027344 2.148438 9.855469 C 2.050781 9.679688 2.019531 9.527344 2.066406 9.394531 C 2.109375 9.257812 2.222656 9.152344 2.402344 9.066406 C 2.582031 8.984375 2.832031 8.925781 3.121094 8.890625 C 3.703125 8.820312 4.460938 8.832031 5.242188 8.863281 C 6.019531 8.890625 6.824219 8.9375 7.5 8.925781 C 8.179688 8.914062 8.730469 8.851562 9.03125 8.632812 C 9.332031 8.414062 9.5625 7.910156 9.78125 7.269531 C 10.003906 6.625 10.207031 5.851562 10.421875 5.097656 C 10.632812 4.347656 10.855469 3.625 11.101562 3.09375 C 11.226562 2.828125 11.359375 2.609375 11.496094 2.460938 C 11.628906 2.316406 11.765625 2.242188 11.90625 2.242188 Z M 11.90625 2.242188 "/>
</g>
</svg>
