<svg xmlns="http://www.w3.org/2000/svg" width="32" height="32" viewBox="0 0 24 24"><path d="M17.777 3.281c-.535-.117-1.652.215-1.875.602l-.199.34a.24.24 0 0 0-.187-.024l-.477.13a.249.249 0 0 0-.176.304l.13.476a.24.24 0 0 0 .112.153l-.222.383a.255.255 0 0 0-.133 0l-.957.257a.245.245 0 0 0-.176.301l.258.961a.257.257 0 0 0 .066.113l-.023.043c.02.028.039.059.05.09l.196.52c.055.14-.023.277-.172.304l-.547.086a.24.24 0 0 1-.105 0l-.031.055a.24.24 0 0 0-.188-.023l-.48.128a.249.249 0 0 0-.176.305l.129.477a.24.24 0 0 0 .113.152l-.773 1.344-1.11-.067L9.7 12.645c-1.738-.532-3.199-.415-3.683.425l-.993 1.72c-.687 1.19.868 3.362 3.485 4.874 2.617 1.512 5.281 1.773 5.969.582l.992-1.719c.48-.84-.145-2.164-1.473-3.402l1.125-1.953-.61-.926 3.97-6.875c.222-.387-.047-1.52-.419-1.926.133.16.157.395.043.59l-5.187 8.985a.5.5 0 0 1-.688.199.503.503 0 0 1-.171-.696l5.187-8.984a.517.517 0 0 1 .531-.258zm-7.57 13.356l.078.043c1.168.675 1.996 1.41 1.86 1.648l-.497.86c-.136.238-1.187-.114-2.355-.79l-.078-.043c-1.172-.675-2-1.41-1.863-1.648l.496-.86c.136-.238 1.187.114 2.359.79zm0 0" fill="#bdbdbd"/></svg>