
<svg xmlns="http://www.w3.org/2000/svg" xmlns:xlink="http://www.w3.org/1999/xlink" width="16px" height="16px" viewBox="0 0 16 16" version="1.1">
<g id="surface1">
<defs>
  <style id="current-color-scheme" type="text/css">
   .ColorScheme-Text { color:#eeeeee; } .ColorScheme-Highlight { color:#424242; }
  </style>
 </defs>
<path style="fill:currentColor" class="ColorScheme-Text" d="M 4 4 L 2 7 L 4 6 L 6 13 L 8 12 L 14 13 L 12 9 L 10.625 7.6875 L 7 10 L 5 5 Z M 10.730469 5.269531 L 10 6 L 12 8 L 12.671875 5.984375 C 12.613281 5.988281 12.558594 6 12.5 6 C 11.808594 6 11.183594 5.722656 10.730469 5.269531 Z M 9 6 L 7 7 L 7 9 L 10 7 Z M 9 6 "/>
<path style=" stroke:none;fill-rule:nonzero;fill:rgb(14.901961%,65.098041%,60.392159%);fill-opacity:1;" d="M 12.5 2 C 13.328125 2 14 2.671875 14 3.5 C 14 4.328125 13.328125 5 12.5 5 C 11.671875 5 11 4.328125 11 3.5 C 11 2.671875 11.671875 2 12.5 2 Z M 12.5 2 "/>
</g>
</svg>
