<?xml version="1.0" encoding="UTF-8"?>
<svg xmlns="http://www.w3.org/2000/svg" xmlns:xlink="http://www.w3.org/1999/xlink" width="16pt" height="16pt" viewBox="0 0 16 16" version="1.1">
<g id="surface1">
<path style=" stroke:none;fill-rule:nonzero;fill:rgb(74.117649%,74.117649%,74.117649%);fill-opacity:1;" d="M 7.9375 15.339844 C 3.90625 15.339844 0.660156 12.09375 0.660156 8.0625 C 0.660156 4.03125 3.90625 0.785156 7.9375 0.785156 C 11.96875 0.785156 15.214844 4.03125 15.214844 8.0625 C 15.214844 12.09375 11.96875 15.339844 7.9375 15.339844 Z M 7.9375 14.015625 C 11.238281 14.015625 13.890625 11.363281 13.890625 8.0625 C 13.890625 4.765625 11.238281 2.109375 7.9375 2.109375 C 4.640625 2.109375 1.984375 4.765625 1.984375 8.0625 C 1.984375 11.363281 4.640625 14.015625 7.9375 14.015625 Z M 7.9375 14.015625 "/>
<path style=" stroke:none;fill-rule:nonzero;fill:rgb(25.882354%,64.705884%,96.078432%);fill-opacity:1;" d="M 5.292969 4.753906 L 5.953125 4.753906 C 6.320312 4.753906 6.613281 5.050781 6.613281 5.417969 L 6.613281 10.710938 C 6.613281 11.074219 6.320312 11.371094 5.953125 11.371094 L 5.292969 11.371094 C 4.925781 11.371094 4.628906 11.074219 4.628906 10.710938 L 4.628906 5.417969 C 4.628906 5.050781 4.925781 4.753906 5.292969 4.753906 Z M 5.292969 4.753906 "/>
<path style=" stroke:none;fill-rule:nonzero;fill:rgb(25.882354%,64.705884%,96.078432%);fill-opacity:1;" d="M 9.921875 4.753906 L 10.585938 4.753906 C 10.949219 4.753906 11.246094 5.050781 11.246094 5.417969 L 11.246094 10.710938 C 11.246094 11.074219 10.949219 11.371094 10.585938 11.371094 L 9.921875 11.371094 C 9.558594 11.371094 9.261719 11.074219 9.261719 10.710938 L 9.261719 5.417969 C 9.261719 5.050781 9.558594 4.753906 9.921875 4.753906 Z M 9.921875 4.753906 "/>
</g>
</svg>
