
<svg xmlns="http://www.w3.org/2000/svg" xmlns:xlink="http://www.w3.org/1999/xlink" width="16px" height="16px" viewBox="0 0 16 16" version="1.1">
<g id="surface1">
<defs>
  <style id="current-color-scheme" type="text/css">
   .ColorScheme-Text { color:#eeeeee; } .ColorScheme-Highlight { color:#424242; }
  </style>
 </defs>
<path style="fill:currentColor" class="ColorScheme-Text" d="M 6 2 C 5.445312 2 5 2.445312 5 3 L 5 4 L 7 4 L 7 3 C 7 2.445312 6.554688 2 6 2 Z M 10 2 C 9.445312 2 9 2.445312 9 3 L 9 8 L 11 8 L 11 3 C 11 2.445312 10.554688 2 10 2 Z M 3 5 C 2.445312 5 2 5.445312 2 6 C 2 6.554688 2.445312 7 3 7 L 8 7 L 8 5 Z M 12 5 L 12 7 L 13 7 C 13.554688 7 14 6.554688 14 6 C 14 5.445312 13.554688 5 13 5 Z M 5 8 L 5 13 C 5 13.554688 5.445312 14 6 14 C 6.554688 14 7 13.554688 7 13 L 7 8 Z M 3 9 C 2.445312 9 2 9.445312 2 10 C 2 10.554688 2.445312 11 3 11 L 4 11 L 4 9 Z M 8 9 L 8 11 L 13 11 C 13.554688 11 14 10.554688 14 10 C 14 9.445312 13.554688 9 13 9 Z M 9 12 L 9 13 C 9 13.554688 9.445312 14 10 14 C 10.554688 14 11 13.554688 11 13 L 11 12 Z M 9 12 "/>
</g>
</svg>
