
<svg xmlns="http://www.w3.org/2000/svg" xmlns:xlink="http://www.w3.org/1999/xlink" width="16px" height="16px" viewBox="0 0 16 16" version="1.1">
<g id="surface1">
<defs>
  <style id="current-color-scheme" type="text/css">
   .ColorScheme-Text { color:#eeeeee; } .ColorScheme-Highlight { color:#424242; }
  </style>
 </defs>
<path style="fill:currentColor" class="ColorScheme-Text" d="M 13.304688 1.925781 C 13.238281 1.933594 13.175781 1.949219 13.109375 1.972656 L 2.371094 6.222656 C 1.75 6.46875 1.789062 7.355469 2.425781 7.546875 L 7.058594 8.9375 L 8.449219 13.574219 C 8.644531 14.210938 9.53125 14.25 9.78125 13.625 L 14.023438 2.886719 C 14.132812 2.617188 14.0625 2.308594 13.847656 2.109375 C 13.699219 1.972656 13.5 1.910156 13.304688 1.925781 Z M 12.789062 3.171875 L 9.253906 12.367188 L 7.839844 8.121094 L 3.597656 6.707031 Z M 12.5 11 C 11.667969 11 11 11.667969 11 12.5 C 11 13.332031 11.667969 14 12.5 14 C 13.332031 14 14 13.332031 14 12.5 C 14 11.667969 13.332031 11 12.5 11 Z M 12.5 11 "/>
</g>
</svg>
