<?xml version="1.0" encoding="UTF-8"?>
<svg xmlns="http://www.w3.org/2000/svg" xmlns:xlink="http://www.w3.org/1999/xlink" width="128pt" height="128pt" viewBox="0 0 128 128" version="1.1">
<defs>
<linearGradient id="linear0" gradientUnits="userSpaceOnUse" x1="254" y1="233.5" x2="254" y2="254.666672" gradientTransform="matrix(0.250024,0,0,0.250024,-9.261321,53.75514)">
<stop offset="0" style="stop-color:rgb(0%,0%,0%);stop-opacity:0.27451;"/>
<stop offset="1" style="stop-color:rgb(0%,0%,0%);stop-opacity:0;"/>
</linearGradient>
<radialGradient id="radial0" gradientUnits="userSpaceOnUse" cx="450.908936" cy="189.579361" fx="450.908936" fy="189.579361" r="21.166656" gradientTransform="matrix(0.000000696681,-0.31253,-0.562554,-0.000000406154,193.969121,254.38133)">
<stop offset="0" style="stop-color:rgb(0%,0%,0%);stop-opacity:0.313725;"/>
<stop offset="0.222222" style="stop-color:rgb(0%,0%,0%);stop-opacity:0.27451;"/>
<stop offset="1" style="stop-color:rgb(0%,0%,0%);stop-opacity:0;"/>
</radialGradient>
<radialGradient id="radial1" gradientUnits="userSpaceOnUse" cx="450.908936" cy="189.579361" fx="450.908936" fy="189.579361" r="21.166656" gradientTransform="matrix(-0.000000696681,0.31253,0.562554,0.000000406154,-77.54134,-30.109915)">
<stop offset="0" style="stop-color:rgb(0%,0%,0%);stop-opacity:0.313725;"/>
<stop offset="0.222222" style="stop-color:rgb(0%,0%,0%);stop-opacity:0.27451;"/>
<stop offset="1" style="stop-color:rgb(0%,0%,0%);stop-opacity:0;"/>
</radialGradient>
<radialGradient id="radial2" gradientUnits="userSpaceOnUse" cx="450.908936" cy="189.579361" fx="450.908936" fy="189.579361" r="21.166656" gradientTransform="matrix(-0.000000696681,-0.31253,0.562554,-0.000000406154,-77.54134,254.38133)">
<stop offset="0" style="stop-color:rgb(0%,0%,0%);stop-opacity:0.313725;"/>
<stop offset="0.222222" style="stop-color:rgb(0%,0%,0%);stop-opacity:0.27451;"/>
<stop offset="1" style="stop-color:rgb(0%,0%,0%);stop-opacity:0;"/>
</radialGradient>
<radialGradient id="radial3" gradientUnits="userSpaceOnUse" cx="450.908936" cy="189.579361" fx="450.908936" fy="189.579361" r="21.166656" gradientTransform="matrix(0.000000696681,0.31253,-0.562554,0.000000406154,193.969113,-30.109917)">
<stop offset="0" style="stop-color:rgb(0%,0%,0%);stop-opacity:0.313725;"/>
<stop offset="0.222222" style="stop-color:rgb(0%,0%,0%);stop-opacity:0.27451;"/>
<stop offset="1" style="stop-color:rgb(0%,0%,0%);stop-opacity:0;"/>
</radialGradient>
<linearGradient id="linear1" gradientUnits="userSpaceOnUse" x1="306.916656" y1="-25.791676" x2="305.954559" y2="-141.414581" gradientTransform="matrix(0.301399,0,0,0.869648,-31.354312,134.565393)">
<stop offset="0" style="stop-color:rgb(61.960784%,61.960784%,61.960784%);stop-opacity:1;"/>
<stop offset="1" style="stop-color:rgb(87.843137%,87.843137%,87.843137%);stop-opacity:1;"/>
</linearGradient>
<linearGradient id="linear2" gradientUnits="userSpaceOnUse" x1="254" y1="159.416672" x2="254" y2="191.166672" gradientTransform="matrix(1,0,0,1,-31.75,-21.166668)">
<stop offset="0" style="stop-color:rgb(25.882353%,25.882353%,25.882353%);stop-opacity:1;"/>
<stop offset="1" style="stop-color:rgb(38.039216%,38.039216%,38.039216%);stop-opacity:1;"/>
</linearGradient>
<linearGradient id="linear3" gradientUnits="userSpaceOnUse" x1="254" y1="148.833328" x2="254" y2="-41.666668" gradientTransform="matrix(1,0,0,1,114.422974,84.666656)">
<stop offset="0" style="stop-color:rgb(37.647059%,49.019608%,54.509804%);stop-opacity:1;"/>
<stop offset="1" style="stop-color:rgb(47.058824%,56.470588%,61.176471%);stop-opacity:1;"/>
</linearGradient>
<linearGradient id="linear4" gradientUnits="userSpaceOnUse" x1="254" y1="-105.166656" x2="254" y2="85.333336" gradientTransform="matrix(0.250024,0,0,0.250024,-7.938257,54.062131)">
<stop offset="0" style="stop-color:rgb(14.901961%,65.098039%,60.392157%);stop-opacity:1;"/>
<stop offset="1" style="stop-color:rgb(0%,53.72549%,48.235294%);stop-opacity:1;"/>
</linearGradient>
<linearGradient id="linear5" gradientUnits="userSpaceOnUse" x1="1120" y1="775.118103" x2="1120" y2="415.118103" gradientTransform="matrix(0.0661521,0,0,0.0661521,-7.938257,0.306998)">
<stop offset="0" style="stop-color:rgb(80.392157%,86.27451%,22.352941%);stop-opacity:1;"/>
<stop offset="1" style="stop-color:rgb(86.27451%,90.588235%,45.882353%);stop-opacity:1;"/>
</linearGradient>
<linearGradient id="linear6" gradientUnits="userSpaceOnUse" x1="1040" y1="495.117188" x2="1040" y2="775.117188" gradientTransform="matrix(0.0661521,0,0,-0.0661521,-7.938257,102.858393)">
<stop offset="0" style="stop-color:rgb(95.686275%,26.27451%,21.176471%);stop-opacity:1;"/>
<stop offset="1" style="stop-color:rgb(89.803922%,45.098039%,45.098039%);stop-opacity:1;"/>
</linearGradient>
</defs>
<g id="surface1">
<path style=" stroke:none;fill-rule:nonzero;fill:url(#linear0);" d="M 27.785156 112.136719 L 88.644531 112.136719 L 88.644531 117.429688 L 27.785156 117.429688 Z M 27.785156 112.136719 "/>
<path style=" stroke:none;fill-rule:nonzero;fill:url(#radial0);" d="M 88.644531 112.136719 L 99.226562 112.136719 L 99.226562 106.84375 L 88.644531 106.84375 Z M 88.644531 112.136719 "/>
<path style=" stroke:none;fill-rule:nonzero;fill:url(#radial1);" d="M 27.785156 112.136719 L 17.199219 112.136719 L 17.199219 117.429688 L 27.785156 117.429688 Z M 27.785156 112.136719 "/>
<path style=" stroke:none;fill-rule:nonzero;fill:url(#radial2);" d="M 27.785156 112.136719 L 17.199219 112.136719 L 17.199219 106.84375 L 27.785156 106.84375 Z M 27.785156 112.136719 "/>
<path style=" stroke:none;fill-rule:nonzero;fill:url(#radial3);" d="M 88.644531 112.136719 L 99.226562 112.136719 L 99.226562 117.429688 L 88.644531 117.429688 Z M 88.644531 112.136719 "/>
<path style=" stroke:none;fill-rule:nonzero;fill:url(#linear1);" d="M 23.816406 11.585938 L 87.320312 11.585938 C 90.242188 11.585938 92.613281 13.953125 92.613281 16.875 L 92.613281 106.84375 C 92.613281 109.765625 90.242188 112.136719 87.320312 112.136719 L 23.816406 112.136719 C 20.890625 112.136719 18.523438 109.765625 18.523438 106.84375 L 18.523438 16.875 C 18.523438 13.953125 20.890625 11.585938 23.816406 11.585938 Z M 23.816406 11.585938 "/>
<path style=" stroke:none;fill-rule:nonzero;fill:rgb(0%,0%,0%);fill-opacity:0.196078;" d="M 23.816406 112.136719 C 20.882812 112.136719 18.523438 109.777344 18.523438 106.84375 L 18.523438 106.183594 C 18.523438 109.113281 20.882812 111.472656 23.816406 111.472656 L 87.320312 111.472656 C 90.253906 111.472656 92.613281 109.113281 92.613281 106.183594 L 92.613281 106.84375 C 92.613281 109.777344 90.253906 112.136719 87.320312 112.136719 Z M 23.816406 112.136719 "/>
<path style=" stroke:none;fill-rule:nonzero;fill:rgb(90.196079%,90.196079%,90.196079%);fill-opacity:0.937255;" d="M 23.816406 11.585938 C 20.882812 11.585938 18.523438 13.945312 18.523438 16.875 L 18.523438 17.539062 C 18.523438 14.605469 20.882812 12.242188 23.816406 12.246094 L 87.320312 12.246094 C 90.253906 12.242188 92.613281 14.605469 92.613281 17.539062 L 92.613281 16.875 C 92.613281 13.945312 90.253906 11.585938 87.320312 11.585938 Z M 23.816406 11.585938 "/>
<path style=" stroke:none;fill-rule:nonzero;fill:rgb(12.941177%,12.941177%,12.941177%);fill-opacity:1;" d="M 23.816406 11.210938 C 20.679688 11.210938 18.148438 13.742188 18.148438 16.875 L 18.148438 106.84375 C 18.148438 109.976562 20.679688 112.511719 23.816406 112.511719 L 87.320312 112.511719 C 90.453125 112.511719 92.988281 109.976562 92.988281 106.84375 L 92.988281 16.875 C 92.988281 13.742188 90.453125 11.210938 87.320312 11.210938 Z M 23.816406 11.960938 L 87.320312 11.960938 C 90.050781 11.960938 92.238281 14.144531 92.238281 16.875 L 92.238281 106.84375 C 92.238281 109.574219 90.050781 111.761719 87.320312 111.761719 L 23.816406 111.761719 C 21.085938 111.761719 18.898438 109.574219 18.898438 106.84375 L 18.898438 16.875 C 18.898438 14.144531 21.085938 11.960938 23.816406 11.960938 Z M 23.816406 11.960938 "/>
<path style="fill-rule:nonzero;fill:url(#linear2);stroke-width:3;stroke-linecap:round;stroke-linejoin:miter;stroke:rgb(12.941177%,12.941177%,12.941177%);stroke-opacity:1;stroke-miterlimit:4;" d="M 127.003497 138.247517 L 317.50093 138.247517 C 323.344122 138.247517 328.078045 142.981439 328.078045 148.840255 L 328.078045 159.41737 C 328.078045 165.260562 323.344122 169.994485 317.50093 169.994485 L 127.003497 169.994485 C 121.160305 169.994485 116.410758 165.260562 116.410758 159.41737 L 116.410758 148.840255 C 116.410758 142.981439 121.160305 138.247517 127.003497 138.247517 Z M 127.003497 138.247517 " transform="matrix(0.250024,0,0,0.250024,0,53.755133)"/>
<path style="fill-rule:nonzero;fill:rgb(74.117649%,74.117649%,74.117649%);fill-opacity:0.392157;stroke-width:2.999999;stroke-linecap:round;stroke-linejoin:miter;stroke:rgb(12.941177%,12.941177%,12.941177%);stroke-opacity:1;stroke-miterlimit:4;" d="M 105.833643 -147.506445 C 111.676835 -147.506445 116.410758 -142.756899 116.410758 -136.913707 C 116.410758 -131.070515 111.676835 -126.336592 105.833643 -126.336592 C 99.990451 -126.336592 95.256528 -131.070515 95.256528 -136.913707 C 95.256528 -142.756899 99.990451 -147.506445 105.833643 -147.506445 Z M 105.833643 -147.506445 " transform="matrix(0.250024,0,0,0.250024,0,53.755133)"/>
<path style="fill-rule:nonzero;fill:rgb(74.117649%,74.117649%,74.117649%);fill-opacity:0.392157;stroke-width:3;stroke-linecap:round;stroke-linejoin:miter;stroke:rgb(12.941177%,12.941177%,12.941177%);stroke-opacity:1;stroke-miterlimit:4;" d="M 338.670784 -147.506445 C 344.513976 -147.506445 349.247898 -142.756899 349.247898 -136.913707 C 349.247898 -131.070515 344.513976 -126.336592 338.670784 -126.336592 C 332.827592 -126.336592 328.078045 -131.070515 328.078045 -136.913707 C 328.078045 -142.756899 332.827592 -147.506445 338.670784 -147.506445 Z M 338.670784 -147.506445 " transform="matrix(0.250024,0,0,0.250024,0,53.755133)"/>
<path style="fill-rule:nonzero;fill:rgb(74.117649%,74.117649%,74.117649%);fill-opacity:0.392157;stroke-width:3;stroke-linecap:round;stroke-linejoin:miter;stroke:rgb(12.941177%,12.941177%,12.941177%);stroke-opacity:1;stroke-miterlimit:4;" d="M 338.670784 191.164338 C 344.513976 191.164338 349.247898 195.898261 349.247898 201.757077 C 349.247898 207.600269 344.513976 212.334192 338.670784 212.334192 C 332.827592 212.334192 328.078045 207.600269 328.078045 201.757077 C 328.078045 195.898261 332.827592 191.164338 338.670784 191.164338 Z M 338.670784 191.164338 " transform="matrix(0.250024,0,0,0.250024,0,53.755133)"/>
<path style="fill-rule:nonzero;fill:rgb(74.117649%,74.117649%,74.117649%);fill-opacity:0.392157;stroke-width:3;stroke-linecap:round;stroke-linejoin:miter;stroke:rgb(12.941177%,12.941177%,12.941177%);stroke-opacity:1;stroke-miterlimit:4;" d="M 105.833643 191.164338 C 111.676835 191.164338 116.410758 195.898261 116.410758 201.757077 C 116.410758 207.600269 111.676835 212.334192 105.833643 212.334192 C 99.990451 212.334192 95.256528 207.600269 95.256528 201.757077 C 95.256528 195.898261 99.990451 191.164338 105.833643 191.164338 Z M 105.833643 191.164338 " transform="matrix(0.250024,0,0,0.250024,0,53.755133)"/>
<path style="fill-rule:nonzero;fill:url(#linear3);stroke-width:3;stroke-linecap:round;stroke-linejoin:miter;stroke:rgb(12.941177%,12.941177%,12.941177%);stroke-opacity:1;stroke-miterlimit:4;" d="M 357.840828 44.990797 C 351.982012 44.990797 347.263713 49.709097 347.263713 55.583536 L 347.263713 74.75358 C 343.7328 75.878472 340.311252 77.284588 337.061562 78.956304 L 323.515981 65.410722 C 319.375751 61.254869 312.704513 61.254869 308.54866 65.410722 L 293.581339 80.378043 C 289.44111 84.518272 289.44111 91.18951 293.581339 95.345363 L 307.126921 108.890945 C 305.470829 112.140635 304.064713 115.546559 302.924197 119.077472 L 283.754153 119.077472 C 277.895337 119.077472 273.177038 123.795772 273.177038 129.654587 L 273.177038 150.824441 C 273.177038 156.683256 277.895337 161.417179 283.754153 161.417179 L 302.924197 161.417179 C 304.064713 164.948092 305.470829 168.354017 307.126921 171.603706 L 293.581339 185.149288 C 289.44111 189.289517 289.44111 195.960755 293.581339 200.116608 L 308.54866 215.083929 C 312.704513 219.224159 319.375751 219.224159 323.515981 215.083929 L 337.061562 201.538348 C 340.311252 203.194439 343.717177 204.600555 347.263713 205.741071 L 347.263713 224.911116 C 347.263713 230.769931 351.982012 235.488231 357.840828 235.488231 L 379.010681 235.488231 C 384.869497 235.488231 389.587796 230.769931 389.587796 224.911116 L 389.587796 205.741071 C 393.118709 204.600555 396.524634 203.194439 399.789947 201.538348 L 413.319905 215.083929 C 417.475758 219.224159 424.146996 219.224159 428.287226 215.083929 L 443.254546 200.116608 C 447.410399 195.960755 447.410399 189.289517 443.254546 185.149288 L 429.708965 171.603706 C 431.38068 168.354017 432.786796 164.948092 433.911689 161.417179 L 453.097356 161.417179 C 458.956172 161.417179 463.674471 156.683256 463.674471 150.824441 L 463.674471 129.654587 C 463.674471 123.795772 458.956172 119.077472 453.097356 119.077472 L 433.911689 119.077472 C 432.786796 115.546559 431.38068 112.140635 429.708965 108.890945 L 443.254546 95.345363 C 447.410399 91.18951 447.410399 84.518272 443.254546 80.378043 L 428.287226 65.410722 C 424.146996 61.254869 417.475758 61.254869 413.319905 65.410722 L 399.774323 78.956304 C 396.524634 77.284588 393.118709 75.878472 389.587796 74.75358 L 389.587796 55.583536 C 389.587796 49.709097 384.869497 44.990797 379.010681 44.990797 Z M 368.417943 97.907619 C 391.868828 97.907619 410.75765 116.79644 410.75765 140.247326 C 410.75765 163.698211 391.868828 182.571409 368.417943 182.571409 C 344.967057 182.571409 326.09386 163.698211 326.09386 140.247326 C 326.09386 116.79644 344.967057 97.907619 368.417943 97.907619 Z M 368.417943 97.907619 " transform="matrix(0.250024,0,0,0.250024,0,53.755133)"/>
<path style=" stroke:none;fill-rule:nonzero;fill:url(#linear4);" d="M 55.566406 27.769531 C 68.71875 27.769531 79.382812 38.429688 79.382812 51.582031 C 79.382812 64.734375 68.71875 75.398438 55.566406 75.398438 C 42.414062 75.398438 31.753906 64.734375 31.753906 51.582031 C 31.753906 38.429688 42.414062 27.769531 55.566406 27.769531 Z M 55.566406 27.769531 "/>
<path style=" stroke:none;fill-rule:nonzero;fill:url(#linear5);" d="M 55.566406 27.769531 L 55.566406 51.582031 L 79.382812 51.582031 C 79.382812 38.390625 68.761719 27.769531 55.566406 27.769531 Z M 55.566406 27.769531 "/>
<path style=" stroke:none;fill-rule:nonzero;fill:url(#linear6);" d="M 55.566406 51.582031 L 71.789062 69.050781 C 76.464844 64.707031 79.382812 58.5 79.382812 51.582031 Z M 55.566406 51.582031 "/>
<path style=" stroke:none;fill-rule:nonzero;fill:rgb(12.941177%,12.941177%,12.941177%);fill-opacity:1;" d="M 55.566406 27.460938 C 42.210938 27.460938 31.445312 38.226562 31.445312 51.582031 C 31.445312 64.941406 42.210938 75.703125 55.566406 75.703125 C 68.925781 75.703125 79.6875 64.941406 79.6875 51.582031 C 79.6875 38.226562 68.925781 27.460938 55.566406 27.460938 Z M 55.566406 28.074219 C 68.597656 28.074219 79.074219 38.554688 79.074219 51.582031 C 79.074219 64.613281 68.597656 75.089844 55.566406 75.089844 C 42.539062 75.089844 32.058594 64.613281 32.058594 51.582031 C 32.058594 38.554688 42.539062 28.074219 55.566406 28.074219 Z M 55.566406 28.074219 "/>
</g>
</svg>
