<svg xmlns="http://www.w3.org/2000/svg" width="128pt" height="128pt" viewBox="0 0 128 128"><defs><linearGradient id="a" gradientUnits="userSpaceOnUse" x1="254" y1="233.5" x2="254" y2="254.667" gradientTransform="matrix(.25002 0 0 .25002 13.23 53.755)"><stop offset="0" stop-opacity=".275"/><stop offset="1" stop-opacity="0"/></linearGradient><radialGradient id="b" gradientUnits="userSpaceOnUse" cx="450.909" cy="189.579" fx="450.909" fy="189.579" r="21.167" gradientTransform="matrix(0 -.31253 -.56255 0 221.753 254.381)"><stop offset="0" stop-opacity=".314"/><stop offset=".222" stop-opacity=".275"/><stop offset="1" stop-opacity="0"/></radialGradient><radialGradient id="c" gradientUnits="userSpaceOnUse" cx="450.909" cy="189.579" fx="450.909" fy="189.579" r="21.167" gradientTransform="matrix(0 .31253 .56255 0 4.487 -30.11)"><stop offset="0" stop-opacity=".314"/><stop offset=".222" stop-opacity=".275"/><stop offset="1" stop-opacity="0"/></radialGradient><radialGradient id="d" gradientUnits="userSpaceOnUse" cx="450.909" cy="189.579" fx="450.909" fy="189.579" r="21.167" gradientTransform="matrix(0 -.31253 .56255 0 4.487 254.381)"><stop offset="0" stop-opacity=".314"/><stop offset=".222" stop-opacity=".275"/><stop offset="1" stop-opacity="0"/></radialGradient><radialGradient id="e" gradientUnits="userSpaceOnUse" cx="450.909" cy="189.579" fx="450.909" fy="189.579" r="21.167" gradientTransform="matrix(0 .31253 -.56255 0 221.753 -30.11)"><stop offset="0" stop-opacity=".314"/><stop offset=".222" stop-opacity=".275"/><stop offset="1" stop-opacity="0"/></radialGradient><linearGradient id="f" gradientUnits="userSpaceOnUse" x1="31.75" y1="-31.083" x2="349.25" y2=".667" gradientTransform="matrix(.25002 0 0 .25002 0 53.755)"><stop offset="0" stop-color="#7e57c2"/><stop offset="1" stop-color="#9575cd"/></linearGradient><linearGradient id="g" gradientUnits="userSpaceOnUse" x1="31.75" y1="-31.083" x2="349.25" y2=".667" gradientTransform="matrix(.25002 0 0 .25002 34.401 77.187)"><stop offset="0" stop-color="#ff7043"/><stop offset="1" stop-color="#ff8a65"/></linearGradient></defs><path d="M109.813 111.742h6.617v5.883h-6.618zm0 0" fill="url(#a)"/><path d="M116.43 112.137h10.582v-5.293H116.43zm0 0" fill="url(#b)"/><path d="M109.813 112.137H99.227v5.293h10.585zm0 0" fill="url(#c)"/><path d="M109.813 112.137H99.227v-5.293h10.585zm0 0" fill="url(#d)"/><path d="M116.43 112.137h10.582v5.293H116.43zm0 0" fill="url(#e)"/><path d="M21.168 11.586c-1.984 0-6.078.082-11.766 2.926a2.646 2.646 0 0 0-1.46 2.363v60.863c0 1.965 2.066 3.242 3.824 2.364 4.898-2.45 7.418-2.368 9.402-2.368 10.145 0 17.734 2.528 27.059 5.192 9.324 2.664 20.277 5.394 36.449 5.394a2.644 2.644 0 0 0 2.644-2.644v-60.86a2.644 2.644 0 0 0-2.644-2.644c-15.582 0-25.801-2.563-34.996-5.192-9.2-2.628-17.485-5.394-28.512-5.394zm0 0" fill-rule="evenodd" fill="url(#f)"/><path d="M21.168 11.586c-1.984 0-6.078.082-11.766 2.926a2.646 2.646 0 0 0-1.46 2.363v1.324c0-1.004.566-1.918 1.46-2.367 5.688-2.844 9.782-2.926 11.766-2.926 11.027 0 19.312 2.766 28.512 5.395 9.195 2.629 19.414 5.191 34.996 5.191a2.644 2.644 0 0 1 2.644 2.645v-1.32a2.644 2.644 0 0 0-2.644-2.645c-15.582 0-25.801-2.563-34.996-5.192-9.2-2.628-17.485-5.394-28.512-5.394zm0 0" fill-rule="evenodd" fill="#fff" fill-opacity=".392"/><path d="M21.168 76.793c-1.984 0-4.504-.082-9.402 2.367-1.758.88-3.825-.398-3.825-2.363v.941c0 1.965 2.067 3.242 3.825 2.364 4.898-2.45 7.418-2.368 9.402-2.368 10.145 0 17.734 2.528 27.059 5.192 9.324 2.664 20.277 5.394 36.449 5.394a2.644 2.644 0 0 0 2.644-2.644v-.942a2.644 2.644 0 0 1-2.644 2.645c-16.172 0-27.125-2.73-36.45-5.395-9.324-2.664-16.913-5.191-27.058-5.191zm0 0" fill-rule="evenodd" fill-opacity=".235"/><path d="M21.168 11.21c-1.996 0-6.184.09-11.934 2.966a3.019 3.019 0 0 0-1.668 2.699v60.863c0 2.227 2.375 3.696 4.368 2.7 4.851-2.426 7.238-2.329 9.234-2.329 10.082 0 17.621 2.508 26.957 5.176 9.332 2.668 20.336 5.41 36.55 5.41a3.03 3.03 0 0 0 3.02-3.02V24.817c0-1.664-1.36-3.02-3.02-3.02-15.542 0-25.702-2.55-34.894-5.175-9.187-2.625-17.523-5.41-28.613-5.41zm0 .75c10.96 0 19.2 2.75 28.406 5.38 9.207 2.633 19.477 5.207 35.102 5.207a2.264 2.264 0 0 1 2.27 2.27v60.859a2.264 2.264 0 0 1-2.27 2.27c-16.13 0-27.031-2.72-36.348-5.38-9.316-2.664-16.953-5.207-27.16-5.207-1.973 0-4.621-.066-9.57 2.407a2.257 2.257 0 0 1-3.282-2.028V16.875c0-.86.485-1.645 1.254-2.027 5.625-2.813 9.625-2.887 11.598-2.887zm0 0" fill-rule="evenodd" fill="#212121"/><path d="M55.57 35.02c-1.984 0-6.082.082-11.765 2.925a2.639 2.639 0 0 0-1.465 2.364v60.859c0 1.965 2.07 3.242 3.828 2.363 4.898-2.445 7.418-2.363 9.402-2.363 10.145 0 17.73 2.523 27.059 5.187 9.324 2.665 20.277 5.395 36.445 5.395a2.644 2.644 0 0 0 2.645-2.645V48.246a2.644 2.644 0 0 0-2.645-2.644c-15.582 0-25.797-2.563-34.992-5.188-9.2-2.629-17.488-5.394-28.512-5.394zm0 0" fill-rule="evenodd" fill="url(#g)"/><path d="M55.57 35.02c-1.984 0-6.082.082-11.765 2.921a2.649 2.649 0 0 0-1.465 2.368v1.32c0-1 .566-1.918 1.465-2.363 5.683-2.844 9.78-2.926 11.765-2.926 11.024 0 19.313 2.765 28.512 5.394 9.195 2.625 19.41 5.188 34.992 5.188a2.644 2.644 0 0 1 2.645 2.644v-1.32a2.644 2.644 0 0 0-2.645-2.644c-15.582 0-25.797-2.563-34.992-5.188-9.2-2.629-17.488-5.394-28.512-5.394zm0 0" fill-rule="evenodd" fill="#fff" fill-opacity=".392"/><path d="M55.57 100.227c-1.984 0-4.504-.082-9.402 2.367-1.758.879-3.828-.399-3.828-2.367v.941c0 1.965 2.07 3.242 3.828 2.363 4.898-2.445 7.418-2.363 9.402-2.363 10.145 0 17.73 2.523 27.059 5.187 9.324 2.665 20.277 5.395 36.445 5.395a2.644 2.644 0 0 0 2.645-2.645v-.937a2.644 2.644 0 0 1-2.645 2.644c-16.168 0-27.12-2.73-36.445-5.394-9.328-2.664-16.914-5.191-27.059-5.191zm0 0" fill-rule="evenodd" fill-opacity=".235"/><path d="M55.57 34.645c-1.996 0-6.187.09-11.933 2.964a3.014 3.014 0 0 0-1.672 2.7v60.859c0 2.23 2.379 3.695 4.37 2.7 4.849-2.423 7.24-2.325 9.235-2.325 10.082 0 17.621 2.508 26.953 5.176 9.336 2.664 20.34 5.406 36.551 5.406a3.024 3.024 0 0 0 3.02-3.02V48.246a3.024 3.024 0 0 0-3.02-3.02c-15.539 0-25.703-2.55-34.89-5.175-9.188-2.625-17.528-5.406-28.614-5.406zm0 .75c10.961 0 19.2 2.746 28.407 5.378 9.207 2.63 19.476 5.204 35.097 5.204a2.264 2.264 0 0 1 2.27 2.27v60.858a2.264 2.264 0 0 1-2.27 2.27c-16.125 0-27.027-2.719-36.344-5.379-9.316-2.66-16.953-5.203-27.16-5.203-1.976 0-4.62-.07-9.57 2.406a2.26 2.26 0 0 1-3.285-2.031v-60.86c0-.859.484-1.644 1.254-2.03 5.625-2.813 9.625-2.883 11.601-2.883zm0 0" fill-rule="evenodd" fill="#212121"/></svg>