<svg xmlns="http://www.w3.org/2000/svg" width="128pt" height="128pt" viewBox="0 0 128 128"><defs><radialGradient id="a" gradientUnits="userSpaceOnUse" cx="450.909" cy="189.579" fx="450.909" fy="189.579" r="21.167" gradientTransform="matrix(0 -.31253 -.2344 0 109.597 254.381)"><stop offset="0" stop-opacity=".314"/><stop offset=".222" stop-opacity=".275"/><stop offset="1" stop-opacity="0"/></radialGradient><radialGradient id="b" gradientUnits="userSpaceOnUse" cx="450.909" cy="189.579" fx="450.909" fy="189.579" r="21.167" gradientTransform="matrix(0 .31253 .2344 0 17.415 -30.11)"><stop offset="0" stop-opacity=".314"/><stop offset=".222" stop-opacity=".275"/><stop offset="1" stop-opacity="0"/></radialGradient><radialGradient id="c" gradientUnits="userSpaceOnUse" cx="450.909" cy="189.579" fx="450.909" fy="189.579" r="21.167" gradientTransform="matrix(0 -.31253 .2344 0 17.415 254.381)"><stop offset="0" stop-opacity=".314"/><stop offset=".222" stop-opacity=".275"/><stop offset="1" stop-opacity="0"/></radialGradient><radialGradient id="d" gradientUnits="userSpaceOnUse" cx="450.909" cy="189.579" fx="450.909" fy="189.579" r="21.167" gradientTransform="matrix(0 .31253 -.2344 0 109.597 -30.11)"><stop offset="0" stop-opacity=".314"/><stop offset=".222" stop-opacity=".275"/><stop offset="1" stop-opacity="0"/></radialGradient><linearGradient id="e" gradientUnits="userSpaceOnUse" x1="255.323" y1="233.5" x2="255.323" y2="254.667" gradientTransform="matrix(.02227 0 0 .25002 57.82 53.755)"><stop offset="0" stop-opacity=".275"/><stop offset="1" stop-opacity="0"/></linearGradient><linearGradient id="f" gradientUnits="userSpaceOnUse" x1="960" y1="1695.118" x2="960" y2="175.118" gradientTransform="scale(.06615)"><stop offset="0" stop-color="#7e57c2"/><stop offset="1" stop-color="#9575cd"/></linearGradient></defs><path d="M65.71 112.137h4.411v-5.293h-4.41zm0 0" fill="url(#a)"/><path d="M61.3 112.137h-4.41v5.293h4.41zm0 0" fill="url(#b)"/><path d="M61.3 112.137h-4.41v-5.293h4.41zm0 0" fill="url(#c)"/><path d="M65.71 112.137h4.411v5.293h-4.41zm0 0" fill="url(#d)"/><path d="M61.3 110.813h4.41v6.617H61.3zm0 0" fill="url(#e)"/><path d="M63.508 11.586a5.279 5.279 0 0 0-5.293 5.289v7.121l-9.426-5.441a2.642 2.642 0 0 0-3.617.968 2.64 2.64 0 0 0 .969 3.614l12.074 6.968v22.59L38.652 41.402V27.461a2.639 2.639 0 0 0-2.644-2.645 2.64 2.64 0 0 0-2.649 2.645v10.883l-6.164-3.559a5.283 5.283 0 0 0-7.23 1.938 5.284 5.284 0 0 0 1.937 7.23l6.164 3.559-9.425 5.441a2.637 2.637 0 0 0-.965 3.613 2.637 2.637 0 0 0 3.613.97l12.07-6.97L52.922 61.86 33.359 73.156l-12.07-6.972a2.64 2.64 0 0 0-3.613.968 2.641 2.641 0 0 0 .965 3.618l9.425 5.44-6.164 3.56A5.283 5.283 0 0 0 19.965 87a5.283 5.283 0 0 0 7.23 1.938l6.164-3.563v10.887a2.64 2.64 0 0 0 2.649 2.644 2.639 2.639 0 0 0 2.644-2.644V82.32l19.563-11.293v22.586l-12.074 6.973a2.64 2.64 0 0 0-.97 3.613 2.646 2.646 0 0 0 3.618.969l9.426-5.441v7.117a5.28 5.28 0 0 0 5.293 5.293c2.93 0 5.289-2.36 5.289-5.293v-7.117l9.426 5.441c1.27.73 2.882.3 3.617-.969a2.64 2.64 0 0 0-.969-3.613l-12.074-6.973V71.027L88.359 82.32v13.942a2.639 2.639 0 0 0 2.645 2.644 2.64 2.64 0 0 0 2.648-2.644V85.375l6.164 3.563a5.283 5.283 0 0 0 7.23-1.938 5.283 5.283 0 0 0-1.937-7.23l-6.164-3.56 9.426-5.44a2.646 2.646 0 0 0 .969-3.618 2.646 2.646 0 0 0-3.617-.968l-12.07 6.972L74.09 61.86l19.562-11.293 12.07 6.97c1.27.734 2.883.3 3.618-.97.73-1.27.3-2.879-.969-3.613l-9.426-5.441 6.164-3.559a5.284 5.284 0 0 0 1.938-7.23 5.283 5.283 0 0 0-7.23-1.938l-6.165 3.559V27.46a2.64 2.64 0 0 0-2.648-2.645 2.639 2.639 0 0 0-2.645 2.645v13.941L68.797 52.695v-22.59l12.074-6.968a2.64 2.64 0 0 0 .969-3.614 2.642 2.642 0 0 0-3.617-.968l-9.426 5.441v-7.121c0-2.93-2.36-5.29-5.29-5.29zm-.004 50.273h.004v.004h-.004v-.004zm0 0" fill="url(#f)"/><path d="M63.508 11.586a5.279 5.279 0 0 0-5.293 5.289v1.324c0-2.93 2.36-5.293 5.293-5.293 2.93 0 5.289 2.364 5.289 5.293v-1.324c0-2.93-2.36-5.29-5.29-5.29zm-16.102 6.613a2.65 2.65 0 0 0-2.504 3.313 2.641 2.641 0 0 1 3.887-1.633l9.426 5.441v-1.324l-9.426-5.441a2.613 2.613 0 0 0-1.383-.356zm32.2 0a2.613 2.613 0 0 0-1.383.356l-9.426 5.441v1.324l9.426-5.441a2.641 2.641 0 0 1 3.886 1.633 2.635 2.635 0 0 0-.27-1.989 2.64 2.64 0 0 0-2.234-1.324zm-43.598 6.617a2.64 2.64 0 0 0-2.649 2.645v1.324a2.643 2.643 0 0 1 2.649-2.648 2.642 2.642 0 0 1 2.644 2.648v-1.324a2.639 2.639 0 0 0-2.644-2.645zm54.996 0a2.639 2.639 0 0 0-2.645 2.645v1.324a2.642 2.642 0 0 1 2.645-2.648 2.643 2.643 0 0 1 2.648 2.648v-1.324a2.64 2.64 0 0 0-2.648-2.645zm-66.57 9.258a5.278 5.278 0 0 0-4.47 2.649 5.299 5.299 0 0 0-.671 3.308c.086-.68.309-1.355.672-1.984a5.28 5.28 0 0 1 7.23-1.938l6.164 3.559v-1.324l-6.164-3.559a5.294 5.294 0 0 0-2.761-.71zm78.144 0a5.294 5.294 0 0 0-2.762.711l-6.164 3.559v1.324l6.164-3.559a5.28 5.28 0 0 1 7.23 1.938c.364.629.587 1.305.673 1.984a5.299 5.299 0 0 0-.672-3.308 5.273 5.273 0 0 0-4.469-2.649zm-63.926 7.328v1.32l19.563 11.294v-1.32zm49.707 0L68.797 52.695v1.32l19.562-11.292zm-61.437 6.77l-8.281 4.781a2.637 2.637 0 0 0-1.239 2.95 2.64 2.64 0 0 1 1.239-1.626l9.425-5.441zm73.168 0l-1.145.664 9.426 5.441a2.64 2.64 0 0 1 1.238 1.625 2.637 2.637 0 0 0-1.238-2.949zM51.777 62.523L33.36 73.156l-12.07-6.972a2.64 2.64 0 0 0-3.613.968 2.637 2.637 0 0 0-.274 1.989c.059-.227.149-.45.274-.664a2.637 2.637 0 0 1 3.613-.97l12.07 6.97 19.563-11.293zm23.457 0l-1.144.66 19.562 11.294 12.07-6.97a2.642 2.642 0 0 1 3.887 1.634 2.646 2.646 0 0 0-3.887-2.957l-12.07 6.972zm-11.73.66h.004zM26.922 76.872l-5.02 2.899a5.287 5.287 0 0 0-2.609 5.242 5.274 5.274 0 0 1 2.61-3.918l6.163-3.563zm73.168 0l-1.145.66 6.164 3.563a5.274 5.274 0 0 1 2.61 3.918 5.28 5.28 0 0 0-2.61-5.242zM58.215 93.613l-12.074 6.973a2.635 2.635 0 0 0-1.239 2.95 2.638 2.638 0 0 1 1.239-1.63l12.074-6.969zm10.582 0v1.325l12.074 6.968c.64.371 1.067.965 1.238 1.63a2.635 2.635 0 0 0-1.238-2.95zm0 0" fill="#fff" fill-opacity=".392"/><path d="M63.508 112.137a5.28 5.28 0 0 1-5.293-5.293v-1.324a5.28 5.28 0 0 0 5.293 5.293c2.93 0 5.289-2.36 5.289-5.293v1.324a5.279 5.279 0 0 1-5.29 5.293zm-16.102-6.614a2.65 2.65 0 0 1-2.504-3.312 2.646 2.646 0 0 0 3.887 1.633l9.426-5.442v1.32l-9.426 5.442a2.653 2.653 0 0 1-1.383.36zm32.2 0a2.654 2.654 0 0 1-1.383-.359l-9.426-5.441v-1.32l9.426 5.44a2.646 2.646 0 0 0 3.886-1.632c.168.648.094 1.36-.27 1.988a2.64 2.64 0 0 1-2.234 1.324zm-43.598-6.617a2.64 2.64 0 0 1-2.649-2.648v-1.32a2.64 2.64 0 0 0 2.649 2.644 2.639 2.639 0 0 0 2.644-2.644v1.32a2.64 2.64 0 0 1-2.644 2.648zm54.996 0a2.64 2.64 0 0 1-2.645-2.648v-1.32a2.639 2.639 0 0 0 2.645 2.644 2.64 2.64 0 0 0 2.648-2.644v1.32a2.64 2.64 0 0 1-2.648 2.648zm-66.57-9.258a5.282 5.282 0 0 1-4.47-2.652 5.299 5.299 0 0 1-.671-3.308c.086.68.309 1.355.672 1.988a5.283 5.283 0 0 0 7.23 1.937l6.164-3.562v1.324l-6.164 3.559a5.298 5.298 0 0 1-2.761.714zm78.144 0a5.298 5.298 0 0 1-2.762-.714l-6.164-3.559v-1.324l6.164 3.562a5.283 5.283 0 0 0 7.23-1.937 5.337 5.337 0 0 0 .673-1.989 5.299 5.299 0 0 1-.672 3.31 5.277 5.277 0 0 1-4.469 2.651zM38.652 82.32v-1.324l19.563-11.293v1.324zm49.707 0L68.797 71.027v-1.324l19.562 11.293zm-61.437-6.773l-8.281-4.781a2.637 2.637 0 0 1-1.239-2.95c.172.66.598 1.258 1.239 1.63l9.425 5.44zm73.168 0l-1.145-.66 9.426-5.442a2.648 2.648 0 0 0 1.238-1.629 2.637 2.637 0 0 1-1.238 2.95zM51.777 61.199L33.36 50.566l-12.07 6.97c-1.27.734-2.883.3-3.613-.97a2.637 2.637 0 0 1-.274-1.988c.059.23.149.453.274.664a2.637 2.637 0 0 0 3.613.969l12.07-6.969 19.563 11.293zm23.457 0l-1.144-.664 19.562-11.293 12.07 6.969a2.642 2.642 0 0 0 3.887-1.633c.168.649.09 1.36-.27 1.988a2.642 2.642 0 0 1-3.616.97l-12.07-6.97zm-11.73-.664h.004zM26.922 46.848l-5.02-2.899a5.284 5.284 0 0 1-2.609-5.242 5.28 5.28 0 0 0 2.61 3.922l6.163 3.559zm73.168 0l-1.145-.66 6.164-3.56a5.28 5.28 0 0 0 2.61-3.921 5.278 5.278 0 0 1-2.61 5.242zM58.215 30.105L46.14 23.137a2.64 2.64 0 0 1-1.239-2.953 2.638 2.638 0 0 0 1.239 1.628l12.074 6.97zm10.582 0v-1.324l12.074-6.968a2.638 2.638 0 0 0 1.238-1.63 2.64 2.64 0 0 1-1.238 2.954zm0 0" fill-opacity=".235"/><path d="M63.508 11.21a5.659 5.659 0 0 0-5.668 5.665v6.473l-8.863-5.118a3.022 3.022 0 0 0-4.13 1.106 3.024 3.024 0 0 0 1.106 4.125l11.887 6.863v21.719l-18.813-10.86V27.462a3.022 3.022 0 0 0-6.043 0v10.234l-5.601-3.234a5.662 5.662 0 0 0-7.742 2.074 5.662 5.662 0 0 0 2.074 7.742l5.601 3.235-8.863 5.117a3.024 3.024 0 0 0-1.105 4.125 3.027 3.027 0 0 0 4.129 1.11L33.359 51l18.813 10.86-18.813 10.863-11.882-6.864a3.029 3.029 0 0 0-4.13 1.106 3.029 3.029 0 0 0 1.106 4.129l8.863 5.117-5.601 3.234a5.662 5.662 0 0 0-2.074 7.743 5.666 5.666 0 0 0 7.742 2.074l5.601-3.235v10.235a3.025 3.025 0 0 0 3.024 3.02 3.024 3.024 0 0 0 3.02-3.02V82.539L57.84 71.676v21.722l-11.887 6.86a3.029 3.029 0 0 0-1.105 4.129 3.025 3.025 0 0 0 4.129 1.105l8.863-5.117v6.469a5.662 5.662 0 0 0 5.668 5.668 5.661 5.661 0 0 0 5.664-5.668v-6.469l8.863 5.117a3.025 3.025 0 0 0 4.13-1.105 3.029 3.029 0 0 0-1.106-4.13l-11.887-6.859V71.676l18.812 10.863v13.723a3.024 3.024 0 0 0 3.02 3.02 3.025 3.025 0 0 0 3.023-3.02V86.027l5.602 3.235a5.666 5.666 0 0 0 7.742-2.075 5.662 5.662 0 0 0-2.074-7.742l-5.602-3.234 8.864-5.117a3.029 3.029 0 0 0 1.105-4.13 3.029 3.029 0 0 0-4.129-1.105l-11.883 6.864L74.84 61.859 93.652 51l11.883 6.863a3.027 3.027 0 0 0 4.13-1.11 3.024 3.024 0 0 0-1.106-4.124l-8.864-5.117 5.602-3.235a5.662 5.662 0 0 0 2.074-7.742 5.662 5.662 0 0 0-7.742-2.074l-5.602 3.234V27.461a3.022 3.022 0 0 0-6.043 0v13.723L69.172 52.043V30.324l11.887-6.863a3.024 3.024 0 0 0 1.105-4.125 3.022 3.022 0 0 0-4.129-1.106l-8.863 5.118v-6.473a5.658 5.658 0 0 0-5.664-5.664zm0 .75a4.893 4.893 0 0 1 4.914 4.915v7.121a.38.38 0 0 0 .187.324.378.378 0 0 0 .375 0l9.426-5.441a2.259 2.259 0 0 1 3.106.832 2.262 2.262 0 0 1-.832 3.102L68.609 29.78a.38.38 0 0 0-.187.324v22.59a.38.38 0 0 0 .187.325.378.378 0 0 0 .375 0l19.563-11.293a.372.372 0 0 0 .187-.325V27.461a2.257 2.257 0 0 1 2.27-2.27 2.257 2.257 0 0 1 2.273 2.27v10.883c0 .136.07.258.188.328a.378.378 0 0 0 .375 0l6.164-3.563a4.903 4.903 0 0 1 6.719 1.801 4.904 4.904 0 0 1-1.801 6.719l-6.164 3.559a.372.372 0 0 0 0 .648l9.426 5.441a2.257 2.257 0 0 1 .828 3.102 2.253 2.253 0 0 1-3.102.832l-12.07-6.969a.378.378 0 0 0-.375 0L73.902 61.535a.379.379 0 0 0 0 .652L93.465 73.48a.378.378 0 0 0 .375 0l12.07-6.972a2.26 2.26 0 0 1 3.102.832 2.256 2.256 0 0 1-.828 3.101l-9.426 5.446a.368.368 0 0 0-.188.324c0 .133.07.258.188.324l6.164 3.559a4.903 4.903 0 0 1 1.8 6.719 4.899 4.899 0 0 1-6.718 1.796l-6.164-3.558a.378.378 0 0 0-.375 0 .372.372 0 0 0-.188.324v10.887a2.26 2.26 0 0 1-2.273 2.27 2.259 2.259 0 0 1-2.27-2.27V82.32a.372.372 0 0 0-.187-.324L68.984 70.703a.378.378 0 0 0-.375 0 .38.38 0 0 0-.187.324v22.586c0 .137.074.258.187.325l12.075 6.972a2.262 2.262 0 0 1 .832 3.102 2.262 2.262 0 0 1-3.106.832l-9.426-5.442a.36.36 0 0 0-.375 0 .376.376 0 0 0-.187.325v7.117a4.896 4.896 0 0 1-4.914 4.918 4.9 4.9 0 0 1-4.918-4.918v-7.117a.376.376 0 0 0-.188-.325.36.36 0 0 0-.375 0l-9.425 5.442a2.257 2.257 0 0 1-3.102-.832 2.257 2.257 0 0 1 .828-3.102l12.074-6.972a.376.376 0 0 0 .188-.325V71.027a.38.38 0 0 0-.188-.324.378.378 0 0 0-.375 0L38.465 81.996a.372.372 0 0 0-.188.324v13.942a2.259 2.259 0 0 1-2.27 2.27 2.26 2.26 0 0 1-2.273-2.27V85.375a.372.372 0 0 0-.187-.324.378.378 0 0 0-.375 0l-6.164 3.558a4.899 4.899 0 0 1-6.719-1.796 4.903 4.903 0 0 1 1.8-6.72l6.165-3.558a.372.372 0 0 0 .187-.324.368.368 0 0 0-.187-.324l-9.426-5.446A2.256 2.256 0 0 1 18 67.34a2.262 2.262 0 0 1 3.102-.832l12.07 6.972a.378.378 0 0 0 .375 0l19.562-11.293a.379.379 0 0 0 0-.652L33.547 50.242a.378.378 0 0 0-.375 0l-12.07 6.969A2.255 2.255 0 0 1 18 56.379a2.257 2.257 0 0 1 .828-3.102l9.426-5.441a.372.372 0 0 0 0-.648l-6.164-3.56a4.904 4.904 0 0 1-1.8-6.718 4.903 4.903 0 0 1 6.718-1.8l6.164 3.562a.378.378 0 0 0 .375 0 .379.379 0 0 0 .187-.328V27.46a2.257 2.257 0 0 1 2.274-2.27 2.257 2.257 0 0 1 2.27 2.27v13.941c0 .133.07.258.187.325L58.027 53.02a.378.378 0 0 0 .375 0 .38.38 0 0 0 .188-.325v-22.59a.38.38 0 0 0-.188-.324l-12.074-6.968a2.257 2.257 0 0 1-.828-3.102 2.253 2.253 0 0 1 3.102-.832l9.425 5.441a.378.378 0 0 0 .375 0 .38.38 0 0 0 .188-.324v-7.121a4.896 4.896 0 0 1 4.918-4.914zm-.004 49.524a.372.372 0 0 0-.324.188c.023-.04.023-.04 0 .004a.37.37 0 0 0 0 .37v.005c.023.039.023.039 0 0h.004c.015.031.039.058.062.082 0 0-.008-.012-.016-.02l.02.02a.371.371 0 0 0 .254.105h.004a.374.374 0 0 0 .308-.168c.004-.004.012-.011.016-.023a.25.25 0 0 0 .031-.074.056.056 0 0 0 .008-.024v-.004a.36.36 0 0 0-.039-.27.372.372 0 0 0-.324-.191zm.367.465c0 .004 0 .008-.008.024l.004-.004c.004-.012.004-.02.004-.02zm-.363-.46l.32.183.004.375-.324.187-.324-.187v-.371zm.285.14c.02.02.035.043.035.043s-.016-.024-.035-.043zm-.613.047s-.004.015-.012.027c.004-.012.012-.027.012-.027zm0 0" fill="#212121"/></svg>