<?xml version="1.0" encoding="UTF-8"?>
<svg xmlns="http://www.w3.org/2000/svg" xmlns:xlink="http://www.w3.org/1999/xlink" width="128pt" height="128pt" viewBox="0 0 128 128" version="1.1">
<defs>
<linearGradient id="linear0" gradientUnits="userSpaceOnUse" x1="254" y1="233.5" x2="254" y2="254.666672" gradientTransform="matrix(0.250024,0,0,0.250024,-0.0000152602,53.75514)">
<stop offset="0" style="stop-color:rgb(0%,0%,0%);stop-opacity:0.27451;"/>
<stop offset="1" style="stop-color:rgb(0%,0%,0%);stop-opacity:0;"/>
</linearGradient>
<radialGradient id="radial0" gradientUnits="userSpaceOnUse" cx="450.908936" cy="189.579361" fx="450.908936" fy="189.579361" r="21.166656" gradientTransform="matrix(0.000000696681,-0.31253,-0.562554,-0.000000406154,195.292181,254.38133)">
<stop offset="0" style="stop-color:rgb(0%,0%,0%);stop-opacity:0.313725;"/>
<stop offset="0.222222" style="stop-color:rgb(0%,0%,0%);stop-opacity:0.27451;"/>
<stop offset="1" style="stop-color:rgb(0%,0%,0%);stop-opacity:0;"/>
</radialGradient>
<radialGradient id="radial1" gradientUnits="userSpaceOnUse" cx="450.908936" cy="189.579361" fx="450.908936" fy="189.579361" r="21.166656" gradientTransform="matrix(-0.000000696681,0.31253,0.562554,0.000000406154,-70.92613,-30.109915)">
<stop offset="0" style="stop-color:rgb(0%,0%,0%);stop-opacity:0.313725;"/>
<stop offset="0.222222" style="stop-color:rgb(0%,0%,0%);stop-opacity:0.27451;"/>
<stop offset="1" style="stop-color:rgb(0%,0%,0%);stop-opacity:0;"/>
</radialGradient>
<radialGradient id="radial2" gradientUnits="userSpaceOnUse" cx="450.908936" cy="189.579361" fx="450.908936" fy="189.579361" r="21.166656" gradientTransform="matrix(-0.000000696681,-0.31253,0.562554,-0.000000406154,-70.92613,254.38133)">
<stop offset="0" style="stop-color:rgb(0%,0%,0%);stop-opacity:0.313725;"/>
<stop offset="0.222222" style="stop-color:rgb(0%,0%,0%);stop-opacity:0.27451;"/>
<stop offset="1" style="stop-color:rgb(0%,0%,0%);stop-opacity:0;"/>
</radialGradient>
<radialGradient id="radial3" gradientUnits="userSpaceOnUse" cx="450.908936" cy="189.579361" fx="450.908936" fy="189.579361" r="21.166656" gradientTransform="matrix(0.000000696681,0.31253,-0.562554,0.000000406154,195.292173,-30.109917)">
<stop offset="0" style="stop-color:rgb(0%,0%,0%);stop-opacity:0.313725;"/>
<stop offset="0.222222" style="stop-color:rgb(0%,0%,0%);stop-opacity:0.27451;"/>
<stop offset="1" style="stop-color:rgb(0%,0%,0%);stop-opacity:0;"/>
</radialGradient>
<linearGradient id="linear1" gradientUnits="userSpaceOnUse" x1="169.333328" y1="-168.666656" x2="169.333328" y2="233.5" gradientTransform="matrix(0.250024,0,0,0.250024,0,54.085894)">
<stop offset="0" style="stop-color:rgb(87.843137%,87.843137%,87.843137%);stop-opacity:1;"/>
<stop offset="1" style="stop-color:rgb(93.333333%,93.333333%,93.333333%);stop-opacity:1;"/>
</linearGradient>
<linearGradient id="linear2" gradientUnits="userSpaceOnUse" x1="700" y1="935.117188" x2="1180" y2="935.117188" gradientTransform="matrix(0.0661521,0,0,0.0661521,0,0)">
<stop offset="0" style="stop-color:rgb(95.686275%,26.27451%,21.176471%);stop-opacity:1;"/>
<stop offset="1" style="stop-color:rgb(93.72549%,32.54902%,31.372549%);stop-opacity:1;"/>
</linearGradient>
<linearGradient id="linear3" gradientUnits="userSpaceOnUse" x1="940" y1="1255.118164" x2="940" y2="615.118103" >
<stop offset="0" style="stop-color:rgb(9.803922%,46.27451%,82.352941%);stop-opacity:1;"/>
<stop offset="1" style="stop-color:rgb(11.764706%,53.333333%,89.803922%);stop-opacity:1;"/>
</linearGradient>
</defs>
<g id="surface1">
<path style=" stroke:none;fill-rule:nonzero;fill:url(#linear0);" d="M 34.398438 112.136719 L 89.96875 112.136719 L 89.96875 117.429688 L 34.398438 117.429688 Z M 34.398438 112.136719 "/>
<path style=" stroke:none;fill-rule:nonzero;fill:url(#radial0);" d="M 89.96875 112.136719 L 100.550781 112.136719 L 100.550781 106.84375 L 89.96875 106.84375 Z M 89.96875 112.136719 "/>
<path style=" stroke:none;fill-rule:nonzero;fill:url(#radial1);" d="M 34.398438 112.136719 L 23.816406 112.136719 L 23.816406 117.429688 L 34.398438 117.429688 Z M 34.398438 112.136719 "/>
<path style=" stroke:none;fill-rule:nonzero;fill:url(#radial2);" d="M 34.398438 112.136719 L 23.816406 112.136719 L 23.816406 106.84375 L 34.398438 106.84375 Z M 34.398438 112.136719 "/>
<path style=" stroke:none;fill-rule:nonzero;fill:url(#radial3);" d="M 89.96875 112.136719 L 100.550781 112.136719 L 100.550781 117.429688 L 89.96875 117.429688 Z M 89.96875 112.136719 "/>
<path style=" stroke:none;fill-rule:nonzero;fill:url(#linear1);" d="M 29.105469 11.914062 C 26.175781 11.914062 23.816406 14.277344 23.816406 17.207031 L 23.816406 107.175781 C 23.816406 110.105469 26.175781 112.464844 29.105469 112.464844 L 95.257812 112.464844 C 98.191406 112.464844 100.550781 110.105469 100.550781 107.175781 L 100.550781 27.792969 L 82.027344 11.914062 Z M 29.105469 11.914062 "/>
<path style=" stroke:none;fill-rule:nonzero;fill:rgb(0%,0%,0%);fill-opacity:0.196078;" d="M 29.4375 112.136719 C 26.503906 112.136719 24.144531 109.777344 24.144531 106.84375 L 24.144531 106.183594 C 24.144531 109.113281 26.503906 111.472656 29.4375 111.472656 L 95.257812 111.472656 C 98.191406 111.472656 100.550781 109.113281 100.550781 106.183594 L 100.550781 106.84375 C 100.550781 109.777344 98.191406 112.136719 95.257812 112.136719 Z M 29.4375 112.136719 "/>
<path style=" stroke:none;fill-rule:nonzero;fill:rgb(100%,100%,100%);fill-opacity:1;" d="M 29.105469 11.585938 C 26.175781 11.585938 23.816406 13.945312 23.816406 16.875 L 23.816406 17.539062 C 23.816406 14.605469 26.175781 12.246094 29.105469 12.246094 L 82.359375 12.246094 L 82.359375 11.585938 Z M 29.105469 11.585938 "/>
<path style=" stroke:none;fill-rule:nonzero;fill:rgb(12.941177%,12.941177%,12.941177%);fill-opacity:1;" d="M 29.105469 11.210938 C 25.972656 11.210938 23.441406 13.742188 23.441406 16.875 L 23.441406 106.84375 C 23.441406 109.976562 25.972656 112.511719 29.105469 112.511719 L 95.257812 112.511719 C 98.390625 112.511719 100.925781 109.976562 100.925781 106.84375 L 100.925781 27.289062 L 82.167969 11.210938 Z M 29.105469 11.960938 L 81.890625 11.960938 L 100.175781 27.632812 L 100.175781 106.84375 C 100.175781 109.574219 97.988281 111.761719 95.257812 111.761719 L 29.105469 111.761719 C 26.375 111.761719 24.191406 109.574219 24.191406 106.84375 L 24.191406 16.875 C 24.191406 14.144531 26.375 11.960938 29.105469 11.960938 Z M 29.105469 11.960938 "/>
<path style=" stroke:none;fill-rule:nonzero;fill:rgb(100%,65.490198%,14.901961%);fill-opacity:0.235294;" d="M 58.214844 40.691406 C 55.28125 40.691406 52.921875 43.050781 52.921875 45.984375 L 52.921875 61.859375 L 48.953125 61.859375 C 47.488281 61.859375 46.304688 63.039062 46.304688 64.507812 C 46.304688 68.476562 58.214844 80.382812 62.183594 83.027344 C 66.152344 80.382812 78.058594 67.152344 78.058594 64.507812 C 78.058594 63.039062 76.878906 61.859375 75.414062 61.859375 L 71.445312 61.859375 L 71.445312 45.984375 C 71.445312 43.050781 69.085938 40.691406 66.152344 40.691406 Z M 58.214844 40.691406 "/>
<path style=" stroke:none;fill-rule:nonzero;fill:url(#linear2);" d="M 58.214844 40.691406 C 55.28125 40.691406 52.921875 43.050781 52.921875 45.984375 L 52.921875 61.859375 L 48.953125 61.859375 C 47.488281 61.859375 46.304688 63.039062 46.304688 64.507812 C 46.304688 68.476562 58.214844 80.382812 62.183594 83.027344 C 66.152344 80.382812 78.058594 67.152344 78.058594 64.507812 C 78.058594 63.039062 76.878906 61.859375 75.414062 61.859375 L 71.445312 61.859375 L 71.445312 45.984375 C 71.445312 43.050781 69.085938 40.691406 66.152344 40.691406 Z M 58.214844 40.691406 "/>
<path style=" stroke:none;fill-rule:nonzero;fill:rgb(100%,100%,100%);fill-opacity:0.392157;" d="M 58.214844 40.691406 C 55.28125 40.691406 52.921875 43.050781 52.921875 45.984375 L 52.921875 46.644531 C 52.921875 43.714844 55.28125 41.351562 58.214844 41.351562 L 66.152344 41.351562 C 69.085938 41.351562 71.445312 43.714844 71.445312 46.644531 L 71.445312 45.984375 C 71.445312 43.050781 69.085938 40.691406 66.152344 40.691406 Z M 48.953125 61.859375 C 47.488281 61.859375 46.304688 63.039062 46.304688 64.507812 C 46.304688 64.605469 46.316406 64.710938 46.328125 64.824219 C 46.496094 63.519531 47.605469 62.523438 48.953125 62.523438 L 52.921875 62.523438 L 52.921875 61.859375 Z M 71.445312 61.859375 L 71.445312 62.523438 L 75.414062 62.523438 C 76.742188 62.523438 77.835938 63.492188 78.03125 64.765625 C 78.050781 64.667969 78.058594 64.582031 78.058594 64.507812 C 78.058594 63.039062 76.878906 61.859375 75.414062 61.859375 Z M 71.445312 61.859375 "/>
<path style=" stroke:none;fill-rule:nonzero;fill:rgb(0%,0%,0%);fill-opacity:0.235294;" d="M 78.03125 64.101562 C 77.371094 67.253906 66.035156 79.796875 62.183594 82.367188 C 58.3125 79.789062 46.902344 68.410156 46.328125 64.160156 C 46.316406 64.273438 46.304688 64.390625 46.304688 64.507812 C 46.304688 68.476562 58.214844 80.382812 62.183594 83.027344 C 66.152344 80.382812 78.058594 67.152344 78.058594 64.507812 C 78.058594 64.367188 78.050781 64.234375 78.03125 64.101562 Z M 78.03125 64.101562 "/>
<path style="fill-rule:nonzero;fill:url(#linear3);stroke-width:11.338583;stroke-linecap:square;stroke-linejoin:bevel;stroke:rgb(20%,20%,20%);stroke-opacity:1;stroke-miterlimit:4;" d="M 880.014434 615.118457 C 835.668273 615.118457 800.002386 650.784344 800.002386 695.130505 L 800.002386 935.107601 L 740.008112 935.107601 C 717.864556 935.107601 699.972563 952.940545 699.972563 975.14315 C 699.972563 1035.137424 880.014434 1215.120246 940.008708 1255.096746 C 1000.002982 1215.120246 1179.985804 1015.11965 1179.985804 975.14315 C 1179.985804 952.940545 1162.152861 935.107601 1140.009305 935.107601 L 1080.015031 935.107601 L 1080.015031 695.130505 C 1080.015031 650.784344 1044.349143 615.118457 1000.002982 615.118457 Z M 880.014434 615.118457 " transform="matrix(0.0661521,0,0,0.0661521,0,0)"/>
</g>
</svg>
