<?xml version="1.0" encoding="UTF-8"?>
<svg xmlns="http://www.w3.org/2000/svg" xmlns:xlink="http://www.w3.org/1999/xlink" width="128pt" height="128pt" viewBox="0 0 128 128" version="1.1">
<defs>
<linearGradient id="linear0" gradientUnits="userSpaceOnUse" x1="254" y1="233.5" x2="254" y2="254.666672" gradientTransform="matrix(0.250024,0,0,0.250024,-0.0000152602,53.75514)">
<stop offset="0" style="stop-color:rgb(0%,0%,0%);stop-opacity:0.27451;"/>
<stop offset="1" style="stop-color:rgb(0%,0%,0%);stop-opacity:0;"/>
</linearGradient>
<radialGradient id="radial0" gradientUnits="userSpaceOnUse" cx="450.908936" cy="189.579361" fx="450.908936" fy="189.579361" r="21.166656" gradientTransform="matrix(0.000000696681,-0.31253,-0.562554,-0.000000406154,195.292181,254.38133)">
<stop offset="0" style="stop-color:rgb(0%,0%,0%);stop-opacity:0.313725;"/>
<stop offset="0.222222" style="stop-color:rgb(0%,0%,0%);stop-opacity:0.27451;"/>
<stop offset="1" style="stop-color:rgb(0%,0%,0%);stop-opacity:0;"/>
</radialGradient>
<radialGradient id="radial1" gradientUnits="userSpaceOnUse" cx="450.908936" cy="189.579361" fx="450.908936" fy="189.579361" r="21.166656" gradientTransform="matrix(-0.000000696681,0.31253,0.562554,0.000000406154,-70.92613,-30.109915)">
<stop offset="0" style="stop-color:rgb(0%,0%,0%);stop-opacity:0.313725;"/>
<stop offset="0.222222" style="stop-color:rgb(0%,0%,0%);stop-opacity:0.27451;"/>
<stop offset="1" style="stop-color:rgb(0%,0%,0%);stop-opacity:0;"/>
</radialGradient>
<radialGradient id="radial2" gradientUnits="userSpaceOnUse" cx="450.908936" cy="189.579361" fx="450.908936" fy="189.579361" r="21.166656" gradientTransform="matrix(-0.000000696681,-0.31253,0.562554,-0.000000406154,-70.92613,254.38133)">
<stop offset="0" style="stop-color:rgb(0%,0%,0%);stop-opacity:0.313725;"/>
<stop offset="0.222222" style="stop-color:rgb(0%,0%,0%);stop-opacity:0.27451;"/>
<stop offset="1" style="stop-color:rgb(0%,0%,0%);stop-opacity:0;"/>
</radialGradient>
<radialGradient id="radial3" gradientUnits="userSpaceOnUse" cx="450.908936" cy="189.579361" fx="450.908936" fy="189.579361" r="21.166656" gradientTransform="matrix(0.000000696681,0.31253,-0.562554,0.000000406154,195.292173,-30.109917)">
<stop offset="0" style="stop-color:rgb(0%,0%,0%);stop-opacity:0.313725;"/>
<stop offset="0.222222" style="stop-color:rgb(0%,0%,0%);stop-opacity:0.27451;"/>
<stop offset="1" style="stop-color:rgb(0%,0%,0%);stop-opacity:0;"/>
</radialGradient>
<linearGradient id="linear1" gradientUnits="userSpaceOnUse" x1="232.833328" y1="233.5" x2="232.833328" y2="-168.666672" gradientTransform="matrix(0.250024,0,0,0.250024,0,53.755132)">
<stop offset="0" style="stop-color:rgb(93.333333%,93.333333%,93.333333%);stop-opacity:1;"/>
<stop offset="1" style="stop-color:rgb(87.843137%,87.843137%,87.843137%);stop-opacity:1;"/>
</linearGradient>
</defs>
<g id="surface1">
<path style=" stroke:none;fill-rule:nonzero;fill:url(#linear0);" d="M 34.398438 112.136719 L 89.96875 112.136719 L 89.96875 117.429688 L 34.398438 117.429688 Z M 34.398438 112.136719 "/>
<path style=" stroke:none;fill-rule:nonzero;fill:url(#radial0);" d="M 89.96875 112.136719 L 100.550781 112.136719 L 100.550781 106.84375 L 89.96875 106.84375 Z M 89.96875 112.136719 "/>
<path style=" stroke:none;fill-rule:nonzero;fill:url(#radial1);" d="M 34.398438 112.136719 L 23.816406 112.136719 L 23.816406 117.429688 L 34.398438 117.429688 Z M 34.398438 112.136719 "/>
<path style=" stroke:none;fill-rule:nonzero;fill:url(#radial2);" d="M 34.398438 112.136719 L 23.816406 112.136719 L 23.816406 106.84375 L 34.398438 106.84375 Z M 34.398438 112.136719 "/>
<path style=" stroke:none;fill-rule:nonzero;fill:url(#radial3);" d="M 89.96875 112.136719 L 100.550781 112.136719 L 100.550781 117.429688 L 89.96875 117.429688 Z M 89.96875 112.136719 "/>
<path style=" stroke:none;fill-rule:nonzero;fill:url(#linear1);" d="M 29.105469 11.585938 C 26.175781 11.585938 23.816406 13.945312 23.816406 16.875 L 23.816406 106.84375 C 23.816406 109.773438 26.175781 112.136719 29.105469 112.136719 L 95.257812 112.136719 C 98.191406 112.136719 100.550781 109.773438 100.550781 106.84375 L 100.550781 27.460938 L 82.027344 11.585938 Z M 29.105469 11.585938 "/>
<path style=" stroke:none;fill-rule:nonzero;fill:rgb(0%,0%,0%);fill-opacity:0.196078;" d="M 29.4375 112.136719 C 26.503906 112.136719 24.144531 109.777344 24.144531 106.84375 L 24.144531 106.183594 C 24.144531 109.113281 26.503906 111.472656 29.4375 111.472656 L 95.257812 111.472656 C 98.191406 111.472656 100.550781 109.113281 100.550781 106.183594 L 100.550781 106.84375 C 100.550781 109.777344 98.191406 112.136719 95.257812 112.136719 Z M 29.4375 112.136719 "/>
<path style=" stroke:none;fill-rule:nonzero;fill:rgb(100%,100%,100%);fill-opacity:1;" d="M 29.105469 11.585938 C 26.175781 11.585938 23.816406 13.945312 23.816406 16.875 L 23.816406 17.539062 C 23.816406 14.605469 26.175781 12.246094 29.105469 12.246094 L 82.359375 12.246094 L 82.359375 11.585938 Z M 29.105469 11.585938 "/>
<path style=" stroke:none;fill-rule:nonzero;fill:rgb(12.941177%,12.941177%,12.941177%);fill-opacity:1;" d="M 29.105469 11.210938 C 25.972656 11.210938 23.441406 13.742188 23.441406 16.875 L 23.441406 106.84375 C 23.441406 109.976562 25.972656 112.511719 29.105469 112.511719 L 95.257812 112.511719 C 98.390625 112.511719 100.925781 109.976562 100.925781 106.84375 L 100.925781 27.289062 L 82.167969 11.210938 Z M 29.105469 11.960938 L 81.890625 11.960938 L 100.175781 27.632812 L 100.175781 106.84375 C 100.175781 109.574219 97.988281 111.761719 95.257812 111.761719 L 29.105469 111.761719 C 26.375 111.761719 24.191406 109.574219 24.191406 106.84375 L 24.191406 16.875 C 24.191406 14.144531 26.375 11.960938 29.105469 11.960938 Z M 29.105469 11.960938 "/>
<path style=" stroke:none;fill-rule:nonzero;fill:rgb(25.882354%,25.882354%,25.882354%);fill-opacity:1;" d="M 41.015625 32.753906 L 91.289062 32.753906 C 92.019531 32.753906 92.613281 33.289062 92.613281 33.953125 L 92.613281 33.960938 C 92.613281 34.621094 92.019531 35.160156 91.289062 35.160156 L 41.015625 35.160156 C 40.285156 35.160156 39.691406 34.621094 39.691406 33.960938 L 39.691406 33.953125 C 39.691406 33.289062 40.285156 32.753906 41.015625 32.753906 Z M 41.015625 32.753906 "/>
<path style=" stroke:none;fill-rule:nonzero;fill:rgb(25.882354%,25.882354%,25.882354%);fill-opacity:1;" d="M 35.722656 43.097656 L 91.289062 43.097656 C 92.019531 43.097656 92.613281 43.6875 92.613281 44.421875 C 92.613281 45.152344 92.019531 45.742188 91.289062 45.742188 L 35.722656 45.742188 C 34.992188 45.742188 34.398438 45.152344 34.398438 44.421875 C 34.398438 43.6875 34.992188 43.097656 35.722656 43.097656 Z M 35.722656 43.097656 "/>
<path style=" stroke:none;fill-rule:nonzero;fill:rgb(25.882354%,25.882354%,25.882354%);fill-opacity:1;" d="M 35.722656 53.679688 L 91.289062 53.679688 C 92.019531 53.679688 92.613281 54.273438 92.613281 55.003906 C 92.613281 55.734375 92.019531 56.328125 91.289062 56.328125 L 35.722656 56.328125 C 34.992188 56.328125 34.398438 55.734375 34.398438 55.003906 C 34.398438 54.273438 34.992188 53.679688 35.722656 53.679688 Z M 35.722656 53.679688 "/>
<path style=" stroke:none;fill-rule:nonzero;fill:rgb(25.882354%,25.882354%,25.882354%);fill-opacity:1;" d="M 35.722656 64.265625 L 59.535156 64.265625 C 60.269531 64.265625 60.859375 64.78125 60.859375 65.414062 L 60.859375 66.003906 C 60.859375 66.636719 60.269531 67.152344 59.535156 67.152344 L 35.722656 67.152344 C 34.992188 67.152344 34.398438 66.636719 34.398438 66.003906 L 34.398438 65.414062 C 34.398438 64.78125 34.992188 64.265625 35.722656 64.265625 Z M 35.722656 64.265625 "/>
<path style=" stroke:none;fill-rule:nonzero;fill:rgb(25.882354%,25.882354%,25.882354%);fill-opacity:1;" d="M 35.722656 74.851562 L 59.535156 74.851562 C 60.269531 74.851562 60.859375 75.175781 60.859375 75.574219 L 60.859375 77.011719 C 60.859375 77.410156 60.269531 77.738281 59.535156 77.738281 L 35.722656 77.738281 C 34.992188 77.738281 34.398438 77.410156 34.398438 77.011719 L 34.398438 75.574219 C 34.398438 75.175781 34.992188 74.851562 35.722656 74.851562 Z M 35.722656 74.851562 "/>
<path style=" stroke:none;fill-rule:nonzero;fill:rgb(25.882354%,25.882354%,25.882354%);fill-opacity:1;" d="M 35.722656 85.433594 L 59.535156 85.433594 C 60.269531 85.433594 60.859375 85.863281 60.859375 86.394531 L 60.859375 87.363281 C 60.859375 87.890625 60.269531 88.320312 59.535156 88.320312 L 35.722656 88.320312 C 34.992188 88.320312 34.398438 87.890625 34.398438 87.363281 L 34.398438 86.394531 C 34.398438 85.863281 34.992188 85.433594 35.722656 85.433594 Z M 35.722656 85.433594 "/>
<path style=" stroke:none;fill-rule:nonzero;fill:rgb(25.882354%,25.882354%,25.882354%);fill-opacity:1;" d="M 79.382812 64.507812 C 77.917969 64.507812 76.738281 65.6875 76.738281 67.152344 L 76.738281 67.535156 C 76.117188 67.714844 75.527344 67.960938 74.972656 68.261719 L 74.703125 67.992188 C 73.667969 66.957031 72 66.957031 70.960938 67.992188 C 69.925781 69.03125 69.925781 70.699219 70.960938 71.734375 L 71.230469 72.003906 C 70.929688 72.558594 70.683594 73.148438 70.503906 73.765625 L 70.121094 73.765625 C 68.65625 73.765625 67.476562 74.949219 67.476562 76.414062 C 67.476562 77.878906 68.65625 79.058594 70.121094 79.058594 L 70.503906 79.058594 C 70.683594 79.675781 70.929688 80.269531 71.230469 80.824219 L 70.960938 81.089844 C 69.925781 82.128906 69.925781 83.796875 70.960938 84.832031 C 72 85.871094 73.667969 85.871094 74.703125 84.832031 L 74.972656 84.566406 C 75.527344 84.867188 76.117188 85.109375 76.738281 85.292969 L 76.738281 85.675781 C 76.738281 87.140625 77.917969 88.320312 79.382812 88.320312 C 80.847656 88.320312 82.027344 87.140625 82.027344 85.675781 L 82.027344 85.292969 C 82.644531 85.109375 83.238281 84.867188 83.792969 84.566406 L 84.058594 84.832031 C 85.097656 85.871094 86.765625 85.871094 87.800781 84.832031 C 88.839844 83.796875 88.839844 82.128906 87.800781 81.089844 L 87.535156 80.824219 C 87.835938 80.269531 88.078125 79.675781 88.261719 79.058594 L 88.644531 79.058594 C 90.109375 79.058594 91.289062 77.878906 91.289062 76.414062 C 91.289062 74.949219 90.109375 73.765625 88.644531 73.765625 L 88.261719 73.765625 C 88.078125 73.148438 87.835938 72.558594 87.535156 72.003906 L 87.800781 71.734375 C 88.839844 70.699219 88.839844 69.03125 87.800781 67.992188 C 86.765625 66.957031 85.097656 66.957031 84.058594 67.992188 L 83.792969 68.261719 C 83.238281 67.960938 82.644531 67.714844 82.027344 67.535156 L 82.027344 67.152344 C 82.027344 65.6875 80.847656 64.507812 79.382812 64.507812 Z M 79.304688 72.445312 L 79.460938 72.445312 C 81.617188 72.445312 83.351562 74.214844 83.351562 76.414062 C 83.351562 78.613281 81.617188 80.382812 79.460938 80.382812 L 79.304688 80.382812 C 77.148438 80.382812 75.414062 78.613281 75.414062 76.414062 C 75.414062 74.214844 77.148438 72.445312 79.304688 72.445312 Z M 79.304688 72.445312 "/>
</g>
</svg>
