<svg xmlns="http://www.w3.org/2000/svg" width="512pt" height="512pt" viewBox="0 0 512 512"><g fill="#424242"><path d="M190.52 46.336H317.53c17.535 0 31.754 14.219 31.754 31.754v127.012c0 17.539-14.219 31.753-31.754 31.753H190.52c-17.54 0-31.754-14.214-31.754-31.753V78.09c0-17.535 14.214-31.754 31.754-31.754zm0 0M74.09 279.191h127.012c17.539 0 31.753 14.22 31.753 31.754v127.012c0 17.54-14.214 31.754-31.753 31.754H74.09c-17.535 0-31.754-14.215-31.754-31.754V310.945c0-17.535 14.219-31.754 31.754-31.754zm0 0M306.945 279.191h127.012c17.54 0 31.754 14.22 31.754 31.754v127.012c0 17.54-14.215 31.754-31.754 31.754H306.945c-17.535 0-31.754-14.215-31.754-31.754V310.945c0-17.535 14.22-31.754 31.754-31.754zm0 0"/></g></svg>