<?xml version="1.0" encoding="UTF-8"?>
<svg xmlns="http://www.w3.org/2000/svg" xmlns:xlink="http://www.w3.org/1999/xlink" width="512pt" height="512pt" viewBox="0 0 512 512" version="1.1">
<g id="surface1">
<path style=" stroke:none;fill-rule:nonzero;fill:rgb(25.882354%,25.882354%,25.882354%);fill-opacity:1;" d="M 254.023438 25.167969 C 254.019531 25.167969 254.015625 25.167969 254.011719 25.167969 L 105.851562 25.167969 C 82.394531 25.167969 63.515625 44.050781 63.515625 67.507812 L 63.515625 448.542969 C 63.515625 471.996094 82.394531 490.878906 105.851562 490.878906 L 402.210938 490.878906 C 425.667969 490.878906 444.550781 471.996094 444.550781 448.542969 L 444.550781 205.101562 L 444.542969 205.101562 L 444.542969 194.519531 C 444.542969 190.308594 442.867188 186.269531 439.890625 183.292969 L 286.417969 29.820312 C 283.441406 26.839844 279.402344 25.167969 275.191406 25.167969 Z M 116.433594 56.921875 L 253.8125 56.921875 L 253.8125 171.316406 C 253.8125 194.773438 272.695312 213.65625 296.148438 213.65625 L 412.789062 213.65625 L 412.789062 215.6875 C 412.792969 215.757812 412.792969 215.832031 412.796875 215.902344 L 412.796875 437.957031 C 412.796875 449.6875 403.355469 459.125 391.628906 459.125 L 116.433594 459.125 C 104.707031 459.125 95.265625 449.6875 95.265625 437.957031 L 95.265625 78.089844 C 95.265625 66.363281 104.707031 56.921875 116.433594 56.921875 Z M 285.5625 73.867188 L 393.597656 181.902344 L 306.734375 181.902344 C 295.003906 181.902344 285.5625 172.460938 285.5625 160.734375 Z M 285.5625 73.867188 "/>
<path style=" stroke:none;fill-rule:nonzero;fill:rgb(14.901961%,65.098041%,60.392159%);fill-opacity:1;" d="M 121.71875 307.136719 C 121.554688 303.054688 123.0625 299.085938 125.890625 296.140625 C 128.71875 293.195312 132.625 291.527344 136.707031 291.527344 L 263.71875 291.527344 C 269.125 291.527344 274.113281 294.4375 276.773438 299.140625 C 279.4375 303.84375 279.363281 309.613281 276.585938 314.25 L 213.078125 420.089844 C 210.367188 424.609375 205.484375 427.371094 200.214844 427.371094 C 194.945312 427.371094 190.0625 424.609375 187.351562 420.089844 L 123.84375 314.25 C 122.550781 312.09375 121.820312 309.648438 121.71875 307.136719 Z M 163.203125 321.53125 L 200.214844 383.214844 L 237.226562 321.53125 Z M 163.203125 321.53125 "/>
</g>
</svg>
