<?xml version="1.0" encoding="UTF-8"?>
<svg xmlns="http://www.w3.org/2000/svg" xmlns:xlink="http://www.w3.org/1999/xlink" width="512pt" height="512pt" viewBox="0 0 512 512" version="1.1">
<g id="surface1">
<path style=" stroke:none;fill-rule:nonzero;fill:rgb(25.882354%,25.882354%,25.882354%);fill-opacity:1;" d="M 21.167969 25.167969 L 167.605469 25.167969 C 168.753906 32.050781 169.347656 39.121094 169.347656 46.335938 L 169.347656 46.339844 C 169.347656 116.703125 112.703125 173.351562 42.335938 173.351562 C 35.121094 173.351562 28.050781 172.753906 21.167969 171.609375 L 21.167969 344.441406 C 28.050781 343.296875 35.121094 342.699219 42.335938 342.699219 C 112.703125 342.699219 169.347656 399.347656 169.347656 469.710938 C 169.347656 476.925781 168.753906 484 167.605469 490.878906 L 340.441406 490.878906 C 339.296875 484 338.699219 476.925781 338.699219 469.710938 C 338.699219 399.347656 395.347656 342.699219 465.710938 342.699219 C 472.925781 342.699219 480 343.296875 486.878906 344.441406 L 486.878906 171.609375 C 480 172.753906 472.925781 173.351562 465.710938 173.351562 C 395.347656 173.351562 338.699219 116.703125 338.699219 46.339844 L 338.699219 46.335938 C 338.699219 39.121094 339.296875 32.050781 340.441406 25.167969 L 486.878906 25.167969 Z M 210.386719 67.503906 L 297.664062 67.507812 C 307.160156 144.332031 367.71875 204.886719 444.542969 214.386719 L 444.542969 301.664062 C 367.71875 311.160156 307.160156 371.71875 297.664062 448.542969 L 210.386719 448.542969 C 200.886719 371.71875 140.328125 311.160156 63.507812 301.664062 L 63.507812 214.386719 C 140.328125 204.886719 200.886719 144.328125 210.386719 67.503906 Z M 210.386719 67.503906 "/>
</g>
</svg>
