<svg xmlns="http://www.w3.org/2000/svg" width="512pt" height="512pt" viewBox="0 0 512 512"><path d="M455.125 25.168a21.123 21.123 0 0 1 21.172 21.168v412.793a21.123 21.123 0 0 1-21.172 21.168H52.879h148.223v-31.754h105.843V342.699H201.102v-31.754h105.843V205.102H201.102v-31.75h105.843V56.922H31.754V46.336a21.122 21.122 0 0 1 21.168-21.168zm-21.168 31.754h-95.258v116.43h105.844V67.508a10.562 10.562 0 0 0-10.586-10.586zm10.586 148.18H338.699v105.843h105.844zm0 137.597H338.699v105.844h95.258a10.562 10.562 0 0 0 10.586-10.586zm0 0" fill="#424242"/><path d="M201.102 56.922v201.101h-31.754v-50.351L63.508 101.828v70.238l85.957 85.957h-44.906l-41.051-41.05v41.05H31.754V56.922h31.754l105.84 105.844V56.922zm0 0" fill="#ff7043"/><path d="M116.43 310.945a15.843 15.843 0 0 1 15.875 15.88v52.921h52.922a15.838 15.838 0 0 1 15.875 15.875 15.838 15.838 0 0 1-15.875 15.875h-52.922v52.922a15.843 15.843 0 0 1-15.875 15.879 15.844 15.844 0 0 1-15.88-15.879v-52.922H47.63a15.838 15.838 0 0 1-15.875-15.875 15.838 15.838 0 0 1 15.875-15.875h52.922v-52.922a15.844 15.844 0 0 1 15.879-15.879zm0 0" fill="#66bb6a"/></svg>