<svg xmlns="http://www.w3.org/2000/svg" width="512pt" height="512pt" viewBox="0 0 512 512"><path d="M232.855 25.168v42.34a21.122 21.122 0 0 1 21.168 21.168 21.122 21.122 0 0 1-21.168 21.168v42.336h190.52V25.168zm0 0" fill="#424242"/><path d="M137.598 109.844c11.691 0 21.168 9.476 21.168 21.168 0 11.691-9.477 21.168-21.168 21.168-11.692 0-21.168-9.477-21.168-21.168 0-11.692 9.476-21.168 21.168-21.168zm0 0M190.52 67.508c11.69 0 21.167 9.476 21.167 21.168 0 11.691-9.476 21.168-21.167 21.168-11.692 0-21.172-9.477-21.172-21.168 0-11.692 9.48-21.168 21.172-21.168zm0 0M137.598 25.168c11.691 0 21.168 9.48 21.168 21.168 0 11.691-9.477 21.172-21.168 21.172-11.692 0-21.168-9.48-21.168-21.172 0-11.688 9.476-21.168 21.168-21.168zm0 0M95.258 162.766c11.691 0 21.172 9.476 21.172 21.168 0 11.691-9.48 21.168-21.172 21.168s-21.168-9.477-21.168-21.168c0-11.692 9.476-21.168 21.168-21.168zm0 0M52.922 109.844c11.691 0 21.168 9.476 21.168 21.168 0 11.691-9.477 21.168-21.168 21.168-11.692 0-21.168-9.477-21.168-21.168 0-11.692 9.476-21.168 21.168-21.168zm0 0M95.258 67.508c11.691 0 21.172 9.476 21.172 21.168 0 11.691-9.48 21.168-21.172 21.168S74.09 100.367 74.09 88.676c0-11.692 9.476-21.168 21.168-21.168zm0 0M52.922 25.168c11.691 0 21.168 9.48 21.168 21.168 0 11.691-9.477 21.172-21.168 21.172-11.692 0-21.168-9.48-21.168-21.172 0-11.688 9.476-21.168 21.168-21.168zm0 0M201.102 173.352c-17.59 0-31.754 14.16-31.754 31.75v254.023c0 17.594 14.164 31.754 31.754 31.754h254.023a31.682 31.682 0 0 0 31.754-31.754V205.102c0-17.59-14.16-31.75-31.754-31.75zm21.168 31.75h211.687a21.122 21.122 0 0 1 21.168 21.168v211.687a21.12 21.12 0 0 1-21.168 21.168H222.27a21.12 21.12 0 0 1-21.168-21.168V226.27a21.122 21.122 0 0 1 21.168-21.168zm0 0" fill="#ab47bc"/></svg>