<svg xmlns="http://www.w3.org/2000/svg" width="128pt" height="128pt" viewBox="0 0 128 128"><defs><linearGradient id="a" gradientUnits="userSpaceOnUse" x1="254" y1="233.5" x2="254" y2="254.667" gradientTransform="matrix(.25002 0 0 .25002 0 53.755)"><stop offset="0" stop-opacity=".275"/><stop offset="1" stop-opacity="0"/></linearGradient><radialGradient id="b" gradientUnits="userSpaceOnUse" cx="450.909" cy="189.579" fx="450.909" fy="189.579" r="21.167" gradientTransform="matrix(0 -.31253 -.56255 0 197.938 254.381)"><stop offset="0" stop-opacity=".314"/><stop offset=".222" stop-opacity=".275"/><stop offset="1" stop-opacity="0"/></radialGradient><radialGradient id="c" gradientUnits="userSpaceOnUse" cx="450.909" cy="189.579" fx="450.909" fy="189.579" r="21.167" gradientTransform="matrix(0 .31253 .56255 0 -70.926 -30.11)"><stop offset="0" stop-opacity=".314"/><stop offset=".222" stop-opacity=".275"/><stop offset="1" stop-opacity="0"/></radialGradient><radialGradient id="d" gradientUnits="userSpaceOnUse" cx="450.909" cy="189.579" fx="450.909" fy="189.579" r="21.167" gradientTransform="matrix(0 -.31253 .56255 0 -70.926 254.381)"><stop offset="0" stop-opacity=".314"/><stop offset=".222" stop-opacity=".275"/><stop offset="1" stop-opacity="0"/></radialGradient><radialGradient id="e" gradientUnits="userSpaceOnUse" cx="450.909" cy="189.579" fx="450.909" fy="189.579" r="21.167" gradientTransform="matrix(0 .31253 -.56255 0 197.938 -30.11)"><stop offset="0" stop-opacity=".314"/><stop offset=".222" stop-opacity=".275"/><stop offset="1" stop-opacity="0"/></radialGradient><linearGradient id="f" gradientUnits="userSpaceOnUse" x1="254" y1="-147.5" x2="254" y2="127.667" gradientTransform="matrix(.25002 0 0 .25002 0 53.755)"><stop offset="0" stop-color="#7986cb"/><stop offset="1" stop-color="#f8bbd0"/></linearGradient><linearGradient id="g" gradientUnits="userSpaceOnUse" x1="880" y1="1695.118" x2="880" y2="1095.118" gradientTransform="translate(2.646) scale(.06615)"><stop offset="0" stop-color="#263238"/><stop offset=".667" stop-color="#455a64"/><stop offset="1" stop-color="#616161"/></linearGradient><linearGradient id="h" gradientUnits="userSpaceOnUse" x1="275.167" y1="-105.167" x2="275.167" y2="-168.667"><stop offset="0" stop-color="#7986cb"/><stop offset="1" stop-color="#f8bbd0"/></linearGradient><linearGradient id="i" gradientUnits="userSpaceOnUse" x1="317.5" y1="-84" x2="317.5" y2="-147.5"><stop offset="0" stop-color="#7986cb"/><stop offset="1" stop-color="#f8bbd0"/></linearGradient><linearGradient id="j" gradientUnits="userSpaceOnUse" x1="880" y1="1695.118" x2="880" y2="1095.118" gradientTransform="translate(2.646) scale(.06615)"><stop offset="0" stop-color="#263238"/><stop offset=".667" stop-color="#455a64"/><stop offset="1" stop-color="#616161"/></linearGradient><linearGradient id="k" gradientUnits="userSpaceOnUse" x1="880" y1="1695.118" x2="880" y2="1095.118" gradientTransform="translate(2.646) scale(.06615)"><stop offset="0" stop-color="#263238"/><stop offset=".667" stop-color="#455a64"/><stop offset="1" stop-color="#616161"/></linearGradient><linearGradient id="l" gradientUnits="userSpaceOnUse" x1="275.167" y1="170" x2="275.167" y2="-62.833" gradientTransform="matrix(3.77953 0 0 3.77953 320 812.598)"><stop offset="0" stop-color="#f8bbd0"/><stop offset=".455" stop-color="#c5cae9"/><stop offset="1" stop-color="#546e7a"/></linearGradient></defs><path d="M34.398 112.137h58.215v5.293H34.398zm0 0" fill="url(#a)"/><path d="M92.613 112.137H103.2v-5.293H92.613zm0 0" fill="url(#b)"/><path d="M34.398 112.137H23.816v5.293h10.582zm0 0" fill="url(#c)"/><path d="M34.398 112.137H23.816v-5.293h10.582zm0 0" fill="url(#d)"/><path d="M92.613 112.137H103.2v5.293H92.613zm0 0" fill="url(#e)"/><path d="M29.105 27.46h68.801a5.295 5.295 0 0 1 5.293 5.294v74.09a5.295 5.295 0 0 1-5.293 5.293h-68.8a5.291 5.291 0 0 1-5.29-5.293v-74.09a5.291 5.291 0 0 1 5.29-5.293zm0 0" fill="url(#f)"/><path d="M84.992 71.27c-1.539.007-2.984.304-4.285 1.175-1.324.66-3.84.883-7.09.868-8.789 1.777-16.726 1.777-24.597-1.243-4.036-.949-8.48-.066-11.973.375-8.16 1.164-10.16 2.328-13.23.782v33.617c0 2.93 2.359 5.293 5.288 5.293h68.801a5.285 5.285 0 0 0 5.293-5.293v-35c-2.383.074-5.129.304-7.941.601-3.555 0-7.11-1.195-10.266-1.175zm0 0" fill="url(#g)"/><path d="M23.816 100.89H103.2v.66H23.816zm0 0" fill-opacity=".196"/><path d="M23.816 101.55H103.2v.66H23.816zm0 0" fill="#e6e6e6" fill-opacity=".588"/><path d="M23.816 101.219H103.2v.664H23.816zm0 0" fill="#212121" fill-opacity=".992"/><path d="M254.007-168.66c11.686 0 21.154 9.467 21.154 21.154 0 11.702-9.468 21.17-21.154 21.17-11.702 0-21.17-9.468-21.17-21.17 0-11.687 9.468-21.155 21.17-21.155zm0 0" transform="matrix(.25002 0 0 .25002 0 53.755)" fill="url(#h)" stroke-width="3" stroke-linecap="round" stroke="#212121"/><path d="M105.834-147.506h296.33c11.687 0 21.17 9.483 21.17 21.17 0 11.686-9.483 21.17-21.17 21.17h-296.33c-11.687 0-21.17-9.484-21.17-21.17 0-11.687 9.483-21.17 21.17-21.17zm0 0" transform="matrix(.25002 0 0 .25002 0 53.755)" fill="url(#i)" stroke-width="3" stroke-linecap="round" stroke="#212121"/><path d="M26.46 16.875a5.282 5.282 0 0 0-5.292 5.293v.664a5.28 5.28 0 0 1 5.293-5.293h74.09a5.28 5.28 0 0 1 5.293 5.293v-.664c0-2.93-2.36-5.293-5.293-5.293zm0 0" fill="#e6e6e6" fill-opacity=".588"/><path d="M26.46 27.46a5.28 5.28 0 0 1-5.292-5.292v-.66c0 2.93 2.36 5.293 5.293 5.293h74.09a5.282 5.282 0 0 0 5.293-5.293v.66a5.28 5.28 0 0 1-5.293 5.293zm0 0" fill-opacity=".196"/><path d="M26.46 16.5a5.665 5.665 0 0 0-5.667 5.668 5.665 5.665 0 0 0 5.668 5.668h74.09a5.665 5.665 0 0 0 5.668-5.668 5.665 5.665 0 0 0-5.668-5.668zm0 .75h74.09a4.9 4.9 0 0 1 4.919 4.918 4.9 4.9 0 0 1-4.918 4.918H26.46a4.9 4.9 0 0 1-4.918-4.918 4.9 4.9 0 0 1 4.918-4.918zm0 0" fill="#333"/><path d="M29.105 27.46c-2.93 0-5.289 2.36-5.289 5.294v.66c0-2.93 2.36-5.293 5.29-5.293h68.8a5.285 5.285 0 0 1 5.293 5.293v-.66a5.282 5.282 0 0 0-5.293-5.293zm0 0" fill="#e6e6e6" fill-opacity=".588"/><path d="M29.105 112.137c-2.93 0-5.289-2.36-5.289-5.293v-.66c0 2.93 2.36 5.289 5.29 5.289h68.8c2.93 0 5.293-2.36 5.293-5.29v.66a5.282 5.282 0 0 1-5.293 5.294zm0 0" fill-opacity=".196"/><path d="M29.105 27.46h68.801a5.295 5.295 0 0 1 5.293 5.294v74.09a5.295 5.295 0 0 1-5.293 5.293h-68.8a5.291 5.291 0 0 1-5.29-5.293v-74.09a5.291 5.291 0 0 1 5.29-5.293zm0 0" fill="none" stroke-width=".7500600000000001" stroke-linecap="round" stroke="#212121"/><path d="M84.992 71.27c-1.539.007-2.984.304-4.285 1.175-.36.176-.805.325-1.324.442v18.082c0 2.93 2.36 5.289 5.293 5.289 2.93 0 5.293-2.36 5.293-5.29v-19.12c-1.727-.297-3.403-.59-4.977-.578zm-39.836.378c-2.855-.02-5.707.493-8.11.797V90.97c0 2.93 2.36 5.289 5.29 5.289a5.279 5.279 0 0 0 5.293-5.29V71.817a18.647 18.647 0 0 0-2.473-.168zm23.64 2.465c-3.636.457-7.144.551-10.581.176v16.68c0 2.93 2.36 5.289 5.293 5.289 2.93 0 5.289-2.36 5.289-5.29zm0 0" fill="url(#j)"/><path d="M84.992 71.27c-1.539.007-2.984.304-4.285 1.175-1.324.66-3.84.883-7.09.868-8.789 1.777-16.726 1.777-24.597-1.243-4.036-.949-8.48-.066-11.973.375-8.16 1.164-10.16 2.328-13.23.782v33.617c0 2.93 2.359 5.293 5.288 5.293h68.801a5.285 5.285 0 0 0 5.293-5.293v-35c-2.383.074-5.129.304-7.941.601-3.555 0-7.11-1.195-10.266-1.175zm0 0" fill="url(#k)"/><path d="M639.978 575.142c-44.287 0-79.953 35.666-79.953 79.953v720.05c0 44.286 35.666 79.952 79.953 79.952 44.346 0 80.012-35.666 80.012-79.953V655.095c0-44.287-35.666-79.953-80.012-79.953zm320.048 0c-44.346 0-80.012 35.666-80.012 79.953v720.05c0 44.286 35.666 79.952 80.012 79.952 44.288 0 79.953-35.666 79.953-79.953V655.095c0-44.287-35.665-79.953-79.953-79.953zm319.99 0c-44.347 0-80.012 35.666-80.012 79.953v720.05c0 44.286 35.665 79.952 80.012 79.952 44.287 0 80.012-35.666 80.012-79.953V655.095c0-44.287-35.725-79.953-80.012-79.953zm0 0" transform="scale(.06615)" fill="url(#l)" stroke-width="11.339" stroke-linecap="round" stroke="#212121"/><path d="M84.992 71.27c-1.539.007-2.984.308-4.285 1.175-.36.176-.805.325-1.324.442v18.082c0 2.93 2.36 5.289 5.293 5.289 2.93 0 5.293-2.36 5.293-5.29v-19.12c-1.727-.297-3.403-.59-4.977-.578zm-39.836.378c-2.855-.02-5.707.493-8.11.797V90.97c0 2.93 2.36 5.289 5.29 5.289a5.279 5.279 0 0 0 5.293-5.29V71.817a18.647 18.647 0 0 0-2.473-.168zm23.64 2.465c-3.636.457-7.144.551-10.581.176v16.68c0 2.93 2.36 5.289 5.293 5.289 2.93 0 5.289-2.36 5.289-5.29zm0 0" fill="#424242" fill-opacity=".314"/></svg>