<svg xmlns="http://www.w3.org/2000/svg" width="256pt" height="256pt" viewBox="0 0 256 256"><defs><linearGradient id="a" gradientUnits="userSpaceOnUse" x1="254" y1="233.5" x2="254" y2="254.667" gradientTransform="matrix(.50005 0 0 .50005 13.23 107.51)"><stop offset="0" stop-opacity=".275"/><stop offset="1" stop-opacity="0"/></linearGradient><radialGradient id="b" gradientUnits="userSpaceOnUse" cx="450.909" cy="189.579" fx="450.909" fy="189.579" r="21.167" gradientTransform="matrix(0 -.62506 -1.1251 0 403.815 508.763)"><stop offset="0" stop-opacity=".314"/><stop offset=".222" stop-opacity=".275"/><stop offset="1" stop-opacity="0"/></radialGradient><radialGradient id="c" gradientUnits="userSpaceOnUse" cx="450.909" cy="189.579" fx="450.909" fy="189.579" r="21.167" gradientTransform="matrix(0 .62506 1.1251 0 -20.132 -60.22)"><stop offset="0" stop-opacity=".314"/><stop offset=".222" stop-opacity=".275"/><stop offset="1" stop-opacity="0"/></radialGradient><radialGradient id="d" gradientUnits="userSpaceOnUse" cx="450.909" cy="189.579" fx="450.909" fy="189.579" r="21.167" gradientTransform="matrix(0 -.62506 1.1251 0 -20.132 508.763)"><stop offset="0" stop-opacity=".314"/><stop offset=".222" stop-opacity=".275"/><stop offset="1" stop-opacity="0"/></radialGradient><radialGradient id="e" gradientUnits="userSpaceOnUse" cx="450.909" cy="189.579" fx="450.909" fy="189.579" r="21.167" gradientTransform="matrix(0 .62506 -1.1251 0 403.815 -60.22)"><stop offset="0" stop-opacity=".314"/><stop offset=".222" stop-opacity=".275"/><stop offset="1" stop-opacity="0"/></radialGradient><linearGradient id="f" gradientUnits="userSpaceOnUse" x1="254" y1="233.5" x2="254" y2="254.667" gradientTransform="matrix(.50005 0 0 .50005 -21.169 107.51)"><stop offset="0" stop-opacity=".275"/><stop offset="1" stop-opacity="0"/></linearGradient><radialGradient id="g" gradientUnits="userSpaceOnUse" cx="450.909" cy="189.579" fx="450.909" fy="189.579" r="21.167" gradientTransform="matrix(0 -.62506 -1.1251 0 369.416 508.763)"><stop offset="0" stop-opacity=".314"/><stop offset=".222" stop-opacity=".275"/><stop offset="1" stop-opacity="0"/></radialGradient><radialGradient id="h" gradientUnits="userSpaceOnUse" cx="450.909" cy="189.579" fx="450.909" fy="189.579" r="21.167" gradientTransform="matrix(0 .62506 1.1251 0 -54.531 -60.22)"><stop offset="0" stop-opacity=".314"/><stop offset=".222" stop-opacity=".275"/><stop offset="1" stop-opacity="0"/></radialGradient><radialGradient id="i" gradientUnits="userSpaceOnUse" cx="450.909" cy="189.579" fx="450.909" fy="189.579" r="21.167" gradientTransform="matrix(0 -.62506 1.1251 0 -54.531 508.763)"><stop offset="0" stop-opacity=".314"/><stop offset=".222" stop-opacity=".275"/><stop offset="1" stop-opacity="0"/></radialGradient><radialGradient id="j" gradientUnits="userSpaceOnUse" cx="450.909" cy="189.579" fx="450.909" fy="189.579" r="21.167" gradientTransform="matrix(0 .62506 -1.1251 0 369.416 -60.22)"><stop offset="0" stop-opacity=".314"/><stop offset=".222" stop-opacity=".275"/><stop offset="1" stop-opacity="0"/></radialGradient><linearGradient id="k" gradientUnits="userSpaceOnUse" x1="232.906" y1="-126.333" x2="232.833" y2="191.167" gradientTransform="matrix(.50005 0 0 .50005 -10.62 86.342)"><stop offset="0" stop-color="#ffd54f"/><stop offset="1" stop-color="#ffca28"/></linearGradient><linearGradient id="l" gradientUnits="userSpaceOnUse" x1="1320" y1="1695.118" x2="1320" y2="935.118" gradientTransform="scale(.1323)"><stop offset="0" stop-color="#78909c"/><stop offset="1" stop-color="#90a4ae"/></linearGradient><linearGradient id="m" gradientUnits="userSpaceOnUse" x1="349.25" y1="154.125" x2="349.25" y2="175.292"><stop offset="0" stop-color="#546e7a"/><stop offset="1" stop-color="#607d8b"/></linearGradient><linearGradient id="n" gradientUnits="userSpaceOnUse" x1="349.25" y1="154.125" x2="349.25" y2="170"><stop offset="0" stop-color="#e0e0e0"/><stop offset="1" stop-color="#9e9e9e"/></linearGradient></defs><path d="M190.52 224.27h2.644v10.585h-2.644zm0 0" fill="url(#a)"/><path d="M193.164 224.27h21.168v-10.583h-21.168zm0 0" fill="url(#b)"/><path d="M190.52 224.27h-21.172v10.585h21.172zm0 0" fill="url(#c)"/><path d="M190.52 224.27h-21.172v-10.583h21.172zm0 0" fill="url(#d)"/><path d="M193.164 224.27h21.168v10.585h-21.168zm0 0" fill="url(#e)"/><path d="M156.117 224.27h2.649v10.585h-2.649zm0 0" fill="url(#f)"/><path d="M158.766 224.27h21.168v-10.583h-21.168zm0 0" fill="url(#g)"/><path d="M156.117 224.27H134.95v10.585h21.168zm0 0" fill="url(#h)"/><path d="M156.117 224.27H134.95v-10.583h21.168zm0 0" fill="url(#i)"/><path d="M158.766 224.27h21.168v10.585h-21.168zm0 0" fill="url(#j)"/><path d="M105.844 23.168a10.558 10.558 0 0 0-10.305 8.16l-.059.254-.023.125a10.555 10.555 0 0 0-.2 2.617V76.09h-.034v56.441c-6.22-2.238-13.446-3.52-21.168-3.52-23.457 0-42.336 11.802-42.336 26.462s18.879 26.46 42.336 26.46c23.453 0 42.336-11.8 42.336-26.46V87.555c.023-.293.039-.582.039-.88v-34.55l47.629 27.5v25.574a10.558 10.558 0 0 0 10.582 10.582 10.561 10.561 0 0 0 10.586-10.582V73.445c0-4.36-2.61-8.082-6.356-9.71L111.937 25.09a10.55 10.55 0 0 0-6.093-1.922zm0 0" fill="url(#k)"/><path d="M105.844 23.168a10.558 10.558 0 0 0-10.305 8.16l-.059.254-.023.125a10.555 10.555 0 0 0-.2 2.617v1.008c.028-.527.095-1.055.2-1.578l.023-.125.06-.25a10.562 10.562 0 0 1 10.304-8.164c2.273 0 4.37.715 6.094 1.922l66.933 38.648a10.554 10.554 0 0 1 6.356 9.707v-2.047c0-4.36-2.61-8.082-6.356-9.71L111.937 25.09a10.55 10.55 0 0 0-6.093-1.922zM95.223 76.09v2.047h.035V76.09zm-21.168 52.922c-23.457 0-42.336 11.8-42.336 26.46 0 .344.008.684.027 1.024.856-14.18 19.402-25.437 42.309-25.437 7.722 0 14.949 1.28 21.168 3.52v-2.048c-6.22-2.238-13.446-3.52-21.168-3.52zm0 0" fill="#fff" fill-opacity=".392"/><path d="M95.258 33.285c-.016.348-.016.692 0 1.04zm21.172 16.82v2.02l47.629 27.5v-2.023zm0 34.547c0 .297-.016.59-.04.88v2.023c.024-.293.04-.582.04-.88zm47.629 18.524v2.023a10.558 10.558 0 0 0 10.582 10.582 10.561 10.561 0 0 0 10.586-10.582v-2.023a10.561 10.561 0 0 1-10.586 10.582 10.558 10.558 0 0 1-10.582-10.582zm-47.668 50.273c0 14.66-18.883 26.461-42.336 26.461-22.914 0-41.461-11.262-42.309-25.45-.02.337-.027.673-.027 1.013 0 14.66 18.879 26.46 42.336 26.46 23.453 0 42.336-11.8 42.336-26.46zm0 0" fill-opacity=".235"/><path d="M105.844 22.418a11.321 11.321 0 0 0-11.121 9.14c-.192.93-.258 1.872-.211 2.801l-.004-.035v41.54a.742.742 0 0 0-.035.226v55.426c-6.082-2.059-13.012-3.254-20.418-3.254-11.856 0-22.563 2.972-30.364 7.847-7.796 4.875-12.722 11.711-12.722 19.364 0 7.652 4.926 14.492 12.722 19.363 7.801 4.875 18.508 7.848 30.364 7.848 11.851 0 22.562-2.973 30.363-7.848 7.797-4.871 12.723-11.711 12.723-19.363V87.555c.023-.29.039-.582.039-.88v-33.25l46.129 26.634v25.14a11.323 11.323 0 0 0 11.332 11.332c6.265 0 11.336-5.066 11.336-11.332V73.445a11.32 11.32 0 0 0-6.805-10.398l.074.039-66.934-38.645.055.036a11.3 11.3 0 0 0-6.523-2.059zm0 1.5a9.78 9.78 0 0 1 5.66 1.785c.02.012.039.027.055.035l66.937 38.649c.027.011.05.027.078.039a9.8 9.8 0 0 1 5.903 9.02v31.753a9.796 9.796 0 0 1-9.836 9.832 9.793 9.793 0 0 1-9.832-9.832V79.625a.753.753 0 0 0-.375-.648l-47.63-27.5a.751.751 0 0 0-1.125.652v34.547c0 .273-.015.547-.034.816-.004.02-.004.04-.004.063v67.918c0 7.007-4.512 13.398-12.02 18.09-7.508 4.695-17.965 7.62-29.566 7.62-11.602 0-22.063-2.925-29.567-7.62-7.508-4.692-12.02-11.083-12.02-18.09 0-7.008 4.512-13.399 12.02-18.09 7.504-4.692 17.965-7.621 29.567-7.621 7.64 0 14.78 1.27 20.914 3.476a.747.747 0 0 0 1.004-.707V76.316a.724.724 0 0 0 .035-.226V34.324a9.966 9.966 0 0 1 .207-2.59c.015-.078.035-.152.055-.226a9.797 9.797 0 0 1 9.574-7.59zm0 0" fill="#212121"/><path d="M169.348 123.719a15.843 15.843 0 0 0-15.875 15.879v31.75c0 7.14 4.668 13.152 11.129 15.16-.23.699-.395 1.426-.48 2.18a15.868 15.868 0 0 0-6.68-1.461 15.843 15.843 0 0 0-15.876 15.875v5.293a15.84 15.84 0 0 0 15.875 15.875 15.84 15.84 0 0 0 15.88-15.875v-5.293a16.1 16.1 0 0 0-.239-2.762 10.763 10.763 0 0 0 3.121 0 16.1 16.1 0 0 0-.238 2.762v5.293a15.84 15.84 0 0 0 15.875 15.875 15.84 15.84 0 0 0 15.879-15.875v-5.293a15.843 15.843 0 0 0-15.88-15.875c-2.386 0-4.651.523-6.679 1.46a10.373 10.373 0 0 0-.48-2.18 15.837 15.837 0 0 0 11.129-15.16v-31.75a15.84 15.84 0 0 0-15.875-15.878v56.98a10.534 10.534 0 0 0-5.293-1.41c-1.93 0-3.735.512-5.293 1.41zm-11.907 74.09c3.664 0 6.618 2.363 6.618 5.293v5.293c0 2.933-2.954 5.292-6.618 5.292s-6.613-2.359-6.613-5.292v-5.293c0-2.93 2.95-5.293 6.613-5.293zm33.985 0h.832c3.433 0 6.199 2.144 6.199 4.808v6.262c0 2.664-2.766 4.809-6.2 4.809h-.831c-3.434 0-6.2-2.145-6.2-4.81v-6.26c0-2.665 2.766-4.81 6.2-4.81zm0 0" fill="url(#l)"/><path d="M349.248 154.121c5.85 0 10.585 4.742 10.585 10.585a10.578 10.578 0 0 1-10.585 10.585c-5.843 0-10.585-4.734-10.585-10.585 0-5.843 4.742-10.585 10.585-10.585zm0 0" transform="matrix(.50005 0 0 .50005 0 107.51)" fill="url(#m)" stroke-width="3" stroke-linecap="square" stroke-linejoin="round" stroke="#212121"/><path d="M349.248 159.417a5.294 5.294 0 0 1 5.296 5.289 5.3 5.3 0 0 1-5.296 5.296 5.294 5.294 0 0 1-5.289-5.296 5.288 5.288 0 0 1 5.289-5.289zm0 0" transform="matrix(.50005 0 0 .50005 0 107.51)" fill="url(#n)" stroke-width="3" stroke-linecap="square" stroke-linejoin="round" stroke="#212121"/><path d="M169.348 123.719a15.843 15.843 0 0 0-15.875 15.879v1.32a15.843 15.843 0 0 1 15.875-15.875zm10.586 0v1.324a15.84 15.84 0 0 1 15.875 15.875v-1.32a15.84 15.84 0 0 0-15.875-15.88zm-5.293 55.57c-1.93 0-3.735.512-5.293 1.41v1.324a10.559 10.559 0 0 1 5.293-1.414c1.933 0 3.738.516 5.293 1.414V180.7a10.534 10.534 0 0 0-5.293-1.41zm-17.2 7.938a15.843 15.843 0 0 0-15.875 15.875v1.324a15.84 15.84 0 0 1 15.875-15.875c2.391 0 4.653.523 6.68 1.46.086-.753.25-1.484.48-2.179-.109-.035-.218-.07-.324-.11-.066.317-.117.637-.156.965a15.868 15.868 0 0 0-6.68-1.46zm34.399 0c-2.387 0-4.653.523-6.68 1.46a9.733 9.733 0 0 0-.152-.964 8.07 8.07 0 0 1-.328.109c.234.695.398 1.426.48 2.18a15.882 15.882 0 0 1 6.68-1.461 15.84 15.84 0 0 1 15.879 15.875v-1.324a15.843 15.843 0 0 0-15.88-15.875zm-18.758 14.437c.156.895.238 1.82.238 2.762v-1.324c0-.477-.023-.95-.062-1.415l-.176-.023zm3.121 0l-.176.024a15.38 15.38 0 0 0-.062 1.414v1.324c0-.942.082-1.867.238-2.762zm-25.375 6.73v1.325c0 2.93 2.95 5.293 6.613 5.293 3.664 0 6.618-2.364 6.618-5.293v-1.324c0 2.933-2.954 5.292-6.618 5.292s-6.613-2.359-6.613-5.292zm34.399.485v1.324c0 2.664 2.765 4.809 6.199 4.809h.832c3.433 0 6.199-2.145 6.199-4.809v-1.324c0 2.664-2.766 4.809-6.2 4.809h-.831c-3.434 0-6.2-2.145-6.2-4.81zm0 0" fill="#fff" fill-opacity=".392"/><path d="M153.473 170.14v1.208c0 7.03 4.523 12.96 10.824 15.062.082-.379.183-.746.305-1.11a15.842 15.842 0 0 1-11.13-15.16zm42.336 0c0 7.141-4.664 13.153-11.13 15.16.122.364.223.731.305 1.11a15.839 15.839 0 0 0 10.825-15.062zm-38.368 26.462c-3.664 0-6.613 2.363-6.613 5.293v1.207c0-2.93 2.95-5.293 6.613-5.293 3.664 0 6.618 2.363 6.618 5.293v-1.207c0-2.93-2.954-5.293-6.618-5.293zm33.985 0c-3.434 0-6.2 2.144-6.2 4.808v1.207c0-2.664 2.766-4.808 6.2-4.808h.832c3.433 0 6.199 2.144 6.199 4.808v-1.207c0-2.664-2.766-4.808-6.2-4.808zm-18.344 2.53c.07.407.125.817.164 1.231a10.955 10.955 0 0 0 2.793 0c.04-.414.094-.824.164-1.23a10.817 10.817 0 0 1-3.121 0zm-31.516 8.055v1.208a15.84 15.84 0 0 0 15.875 15.875 15.84 15.84 0 0 0 15.88-15.875v-1.208a15.844 15.844 0 0 1-15.88 15.88 15.843 15.843 0 0 1-15.875-15.88zm34.399 0v1.208a15.84 15.84 0 0 0 15.875 15.875 15.84 15.84 0 0 0 15.879-15.875v-1.208a15.844 15.844 0 0 1-15.88 15.88 15.843 15.843 0 0 1-15.874-15.88zm0 0" fill-opacity=".235"/><path d="M169.347 123.718a15.843 15.843 0 0 0-15.875 15.88v31.75c0 7.14 4.668 13.152 11.13 15.16-.231.699-.395 1.425-.481 2.18a15.868 15.868 0 0 0-6.68-1.462 15.842 15.842 0 0 0-15.875 15.875v5.293a15.84 15.84 0 0 0 15.875 15.875 15.84 15.84 0 0 0 15.879-15.875v-5.293a16.1 16.1 0 0 0-.238-2.762 10.763 10.763 0 0 0 3.12 0 16.1 16.1 0 0 0-.238 2.762v5.293a15.84 15.84 0 0 0 15.875 15.875 15.84 15.84 0 0 0 15.88-15.875v-5.293a15.843 15.843 0 0 0-15.88-15.875c-2.386 0-4.652.524-6.68 1.461a10.373 10.373 0 0 0-.48-2.18 15.837 15.837 0 0 0 11.13-15.16v-31.75a15.84 15.84 0 0 0-15.876-15.879v56.98a10.534 10.534 0 0 0-5.293-1.41c-1.93 0-3.734.512-5.293 1.41zm-11.906 74.09c3.664 0 6.617 2.363 6.617 5.293v5.293c0 2.934-2.953 5.293-6.617 5.293s-6.613-2.36-6.613-5.293v-5.293c0-2.93 2.949-5.293 6.613-5.293zm33.984 0h.832c3.434 0 6.2 2.145 6.2 4.809v6.261c0 2.665-2.766 4.809-6.2 4.809h-.832c-3.433 0-6.199-2.144-6.199-4.809v-6.261c0-2.664 2.766-4.809 6.2-4.809zm0 0" fill="none" stroke-width="1.5001497000000001" stroke-linecap="square" stroke-linejoin="round" stroke="#212121"/></svg>