<svg xmlns="http://www.w3.org/2000/svg" width="256pt" height="256pt" viewBox="0 0 256 256"><defs><radialGradient id="a" gradientUnits="userSpaceOnUse" cx="450.909" cy="189.579" fx="450.909" fy="189.579" r="21.167" gradientTransform="matrix(0 -.62506 -1.1251 0 267.541 504.794)"><stop offset="0" stop-opacity=".314"/><stop offset=".222" stop-opacity=".275"/><stop offset="1" stop-opacity="0"/></radialGradient><radialGradient id="b" gradientUnits="userSpaceOnUse" cx="450.909" cy="189.579" fx="450.909" fy="189.579" r="21.167" gradientTransform="matrix(0 .62506 1.1251 0 -156.406 -64.189)"><stop offset="0" stop-opacity=".314"/><stop offset=".222" stop-opacity=".275"/><stop offset="1" stop-opacity="0"/></radialGradient><radialGradient id="c" gradientUnits="userSpaceOnUse" cx="450.909" cy="189.579" fx="450.909" fy="189.579" r="21.167" gradientTransform="matrix(0 -.62506 1.1251 0 -156.406 504.794)"><stop offset="0" stop-opacity=".314"/><stop offset=".222" stop-opacity=".275"/><stop offset="1" stop-opacity="0"/></radialGradient><radialGradient id="d" gradientUnits="userSpaceOnUse" cx="450.909" cy="189.579" fx="450.909" fy="189.579" r="21.167" gradientTransform="matrix(0 .62506 -1.1251 0 267.541 -64.189)"><stop offset="0" stop-opacity=".314"/><stop offset=".222" stop-opacity=".275"/><stop offset="1" stop-opacity="0"/></radialGradient><linearGradient id="e" gradientUnits="userSpaceOnUse" x1="255.323" y1="233.5" x2="255.323" y2="254.667" gradientTransform="matrix(.10688 0 0 .50005 45.478 103.541)"><stop offset="0" stop-opacity=".275"/><stop offset="1" stop-opacity="0"/></linearGradient><radialGradient id="f" gradientUnits="userSpaceOnUse" cx="450.909" cy="189.579" fx="450.909" fy="189.579" r="21.167" gradientTransform="matrix(0 -.62506 -1.1251 0 411.753 506.117)"><stop offset="0" stop-opacity=".314"/><stop offset=".222" stop-opacity=".275"/><stop offset="1" stop-opacity="0"/></radialGradient><radialGradient id="g" gradientUnits="userSpaceOnUse" cx="450.909" cy="189.579" fx="450.909" fy="189.579" r="21.167" gradientTransform="matrix(0 .62506 1.1251 0 -12.194 -62.866)"><stop offset="0" stop-opacity=".314"/><stop offset=".222" stop-opacity=".275"/><stop offset="1" stop-opacity="0"/></radialGradient><radialGradient id="h" gradientUnits="userSpaceOnUse" cx="450.909" cy="189.579" fx="450.909" fy="189.579" r="21.167" gradientTransform="matrix(0 -.62506 1.1251 0 -12.194 506.117)"><stop offset="0" stop-opacity=".314"/><stop offset=".222" stop-opacity=".275"/><stop offset="1" stop-opacity="0"/></radialGradient><radialGradient id="i" gradientUnits="userSpaceOnUse" cx="450.909" cy="189.579" fx="450.909" fy="189.579" r="21.167" gradientTransform="matrix(0 .62506 -1.1251 0 411.753 -62.866)"><stop offset="0" stop-opacity=".314"/><stop offset=".222" stop-opacity=".275"/><stop offset="1" stop-opacity="0"/></radialGradient><linearGradient id="j" gradientUnits="userSpaceOnUse" x1="255.323" y1="233.5" x2="255.323" y2="254.667" gradientTransform="matrix(.10688 0 0 .50005 189.69 104.864)"><stop offset="0" stop-opacity=".275"/><stop offset="1" stop-opacity="0"/></linearGradient><linearGradient id="k" gradientUnits="userSpaceOnUse" x1="254" y1="233.5" x2="254" y2="32.417" gradientTransform="matrix(.50005 0 0 .50005 0 107.51)"><stop offset="0" stop-color="#ffd54f"/><stop offset="1" stop-color="#ffca28"/></linearGradient><linearGradient id="l" gradientUnits="userSpaceOnUse" x1="960" y1="935.118" x2="960" y2="175.118" gradientTransform="scale(.1323)"><stop offset="0" stop-color="#ff7043"/><stop offset="1" stop-color="#ff8a65"/></linearGradient></defs><path d="M56.89 220.3H78.06V209.72H56.89zm0 0" fill="url(#a)"/><path d="M54.246 220.3H33.074v10.587h21.172zm0 0" fill="url(#b)"/><path d="M54.246 220.3H33.074V209.72h21.172zm0 0" fill="url(#c)"/><path d="M56.89 220.3H78.06v10.587H56.89zm0 0" fill="url(#d)"/><path d="M54.246 217.656h2.645v13.23h-2.645zm0 0" fill="url(#e)"/><path d="M201.102 221.625h21.168v-10.586h-21.168zm0 0" fill="url(#f)"/><path d="M198.457 221.625h-21.168v10.586h21.168zm0 0" fill="url(#g)"/><path d="M198.457 221.625h-21.168v-10.586h21.168zm0 0" fill="url(#h)"/><path d="M201.102 221.625h21.168v10.586h-21.168zm0 0" fill="url(#i)"/><path d="M198.457 218.98h2.645v13.23h-2.645zm0 0" fill="url(#j)"/><path d="M55.91 27.059c-2.703 0-5.41 1.035-7.484 3.109L33.457 45.137a10.565 10.565 0 0 0 0 14.968l63.617 63.614-63.617 63.617a10.565 10.565 0 0 0 0 14.969l14.969 14.968a10.565 10.565 0 0 0 14.969 0l63.617-63.617 63.617 63.617a10.565 10.565 0 0 0 14.969 0l14.968-14.968a10.565 10.565 0 0 0 0-14.97L156.95 123.72l63.617-63.614a10.565 10.565 0 0 0 0-14.968l-14.968-14.969a10.558 10.558 0 0 0-14.97 0l-63.616 63.613-63.617-63.613a10.539 10.539 0 0 0-7.485-3.11zm0 0" fill="url(#k)"/><path d="M55.91 27.059c-2.703 0-5.41 1.035-7.484 3.109L33.457 45.137a10.565 10.565 0 0 0 0 14.968l63.617 63.614c24.645-23.813 32.586 23.816 59.875 0l63.617-63.614a10.565 10.565 0 0 0 0-14.968l-14.968-14.969a10.558 10.558 0 0 0-14.97 0l-63.616 63.613-63.617-63.613a10.539 10.539 0 0 0-7.485-3.11zm0 0" fill="url(#l)"/><path d="M55.91 27.059c-2.703 0-5.41 1.035-7.484 3.109L33.457 45.137a10.552 10.552 0 0 0-2.96 9.222 10.539 10.539 0 0 1 2.96-5.746l14.969-14.968a10.552 10.552 0 0 1 7.484-3.11c2.707 0 5.414 1.035 7.485 3.11l63.617 63.613 63.617-63.613a10.558 10.558 0 0 1 14.969 0l14.968 14.968a10.539 10.539 0 0 1 2.961 5.746 10.541 10.541 0 0 0-2.96-9.222l-14.97-14.969a10.558 10.558 0 0 0-14.968 0l-63.617 63.613-63.617-63.613a10.539 10.539 0 0 0-7.485-3.11zm102.778 98.398l-1.739 1.738 63.617 63.618a10.552 10.552 0 0 1 2.961 5.746 10.548 10.548 0 0 0-2.96-9.223zm-63.352 0l-61.879 61.879a10.56 10.56 0 0 0-2.96 9.223 10.552 10.552 0 0 1 2.96-5.746l63.617-63.618zm0 0" fill="#fff" fill-opacity=".392"/><path d="M30.496 50.883a10.56 10.56 0 0 0 2.961 9.222l61.879 61.875 1.738-1.738L33.457 56.63a10.578 10.578 0 0 1-2.96-5.746zm193.031 0a10.552 10.552 0 0 1-2.96 5.746l-63.618 63.613 1.738 1.738 61.88-61.875a10.548 10.548 0 0 0 2.96-9.222zm-96.515 99.297l-63.617 63.617a10.565 10.565 0 0 1-14.97 0l-14.968-14.969a10.578 10.578 0 0 1-2.96-5.746 10.556 10.556 0 0 0 2.96 9.223l14.969 14.968a10.565 10.565 0 0 0 14.969 0l63.617-63.617 63.617 63.617a10.565 10.565 0 0 0 14.969 0l14.968-14.968a10.545 10.545 0 0 0 2.961-9.223 10.552 10.552 0 0 1-2.96 5.746l-14.97 14.969a10.565 10.565 0 0 1-14.968 0zm0 0" fill-opacity=".235"/><path d="M55.91 26.309a11.308 11.308 0 0 0-8.012 3.328L32.93 44.605a11.319 11.319 0 0 0 0 16.028l63.086 63.09-63.086 63.082c-4.434 4.433-4.434 11.601 0 16.03l14.968 14.97a11.326 11.326 0 0 0 16.028 0l63.086-63.086 63.086 63.086c4.43 4.43 11.597 4.43 16.03 0l14.97-14.97c4.43-4.429 4.43-11.597 0-16.03l-63.086-63.086 63.086-63.086a11.326 11.326 0 0 0 0-16.028l-14.97-14.968c-4.433-4.43-11.6-4.43-16.03 0l-63.086 63.086-63.086-63.086a11.31 11.31 0 0 0-8.016-3.328zM198.113 27.8a9.79 9.79 0 0 1 6.953 2.898l14.97 14.965a9.803 9.803 0 0 1 0 13.91l-64.15 64.145 64.15 64.148a9.799 9.799 0 0 1 0 13.906l-14.97 14.97a9.792 9.792 0 0 1-13.906 0l-64.148-64.145-64.145 64.144a9.796 9.796 0 0 1-13.91 0l-14.969-14.969a9.799 9.799 0 0 1 0-13.906l64.149-64.144-64.149-64.149a9.803 9.803 0 0 1 0-13.91L48.957 30.7a9.782 9.782 0 0 1 6.953-2.89 9.79 9.79 0 0 1 6.957 2.89l64.145 64.145 64.148-64.145a9.79 9.79 0 0 1 6.953-2.898zm0 0" fill="#212121"/></svg>