<?xml version="1.0" encoding="UTF-8"?>
<svg xmlns="http://www.w3.org/2000/svg" xmlns:xlink="http://www.w3.org/1999/xlink" width="256pt" height="256pt" viewBox="0 0 256 256" version="1.1">
<defs>
<linearGradient id="linear0" gradientUnits="userSpaceOnUse" x1="254" y1="233.5" x2="254" y2="254.666672" gradientTransform="matrix(0.500048,0,0,0.500048,-0.0000305205,103.002145)">
<stop offset="0" style="stop-color:rgb(0%,0%,0%);stop-opacity:0.27451;"/>
<stop offset="1" style="stop-color:rgb(0%,0%,0%);stop-opacity:0;"/>
</linearGradient>
<radialGradient id="radial0" gradientUnits="userSpaceOnUse" cx="450.908936" cy="189.579361" fx="450.908936" fy="189.579361" r="21.166656" gradientTransform="matrix(0.00000139336,-0.62506,-1.125108,-0.000000812309,411.753008,504.254524)">
<stop offset="0" style="stop-color:rgb(0%,0%,0%);stop-opacity:0.313725;"/>
<stop offset="0.222222" style="stop-color:rgb(0%,0%,0%);stop-opacity:0.27451;"/>
<stop offset="1" style="stop-color:rgb(0%,0%,0%);stop-opacity:0;"/>
</radialGradient>
<radialGradient id="radial1" gradientUnits="userSpaceOnUse" cx="450.908936" cy="189.579361" fx="450.908936" fy="189.579361" r="21.166656" gradientTransform="matrix(-0.00000139336,0.62506,1.125108,0.000000812309,-157.728776,-64.727967)">
<stop offset="0" style="stop-color:rgb(0%,0%,0%);stop-opacity:0.313725;"/>
<stop offset="0.222222" style="stop-color:rgb(0%,0%,0%);stop-opacity:0.27451;"/>
<stop offset="1" style="stop-color:rgb(0%,0%,0%);stop-opacity:0;"/>
</radialGradient>
<radialGradient id="radial2" gradientUnits="userSpaceOnUse" cx="450.908936" cy="189.579361" fx="450.908936" fy="189.579361" r="21.166656" gradientTransform="matrix(-0.00000139336,-0.62506,1.125108,-0.000000812309,-157.728776,504.254524)">
<stop offset="0" style="stop-color:rgb(0%,0%,0%);stop-opacity:0.313725;"/>
<stop offset="0.222222" style="stop-color:rgb(0%,0%,0%);stop-opacity:0.27451;"/>
<stop offset="1" style="stop-color:rgb(0%,0%,0%);stop-opacity:0;"/>
</radialGradient>
<radialGradient id="radial3" gradientUnits="userSpaceOnUse" cx="450.908936" cy="189.579361" fx="450.908936" fy="189.579361" r="21.166656" gradientTransform="matrix(0.00000139336,0.62506,-1.125108,0.000000812309,411.752993,-64.727971)">
<stop offset="0" style="stop-color:rgb(0%,0%,0%);stop-opacity:0.313725;"/>
<stop offset="0.222222" style="stop-color:rgb(0%,0%,0%);stop-opacity:0.27451;"/>
<stop offset="1" style="stop-color:rgb(0%,0%,0%);stop-opacity:0;"/>
</radialGradient>
<linearGradient id="linear1" gradientUnits="userSpaceOnUse" x1="127" y1="233.5" x2="127" y2="-158.083328" >
<stop offset="0" style="stop-color:rgb(39.215686%,70.980392%,96.470588%);stop-opacity:1;"/>
<stop offset="1" style="stop-color:rgb(56.470588%,79.215686%,97.647059%);stop-opacity:1;"/>
</linearGradient>
<linearGradient id="linear2" gradientUnits="userSpaceOnUse" x1="381" y1="233.5" x2="381" y2="-158.083328" >
<stop offset="0" style="stop-color:rgb(39.215686%,70.980392%,96.470588%);stop-opacity:1;"/>
<stop offset="1" style="stop-color:rgb(56.470588%,79.215686%,97.647059%);stop-opacity:1;"/>
</linearGradient>
<linearGradient id="linear3" gradientUnits="userSpaceOnUse" x1="127" y1="222.916672" x2="127" y2="-168.666656" >
<stop offset="0" style="stop-color:rgb(39.215686%,70.980392%,96.470588%);stop-opacity:1;"/>
<stop offset="1" style="stop-color:rgb(56.470588%,79.215686%,97.647059%);stop-opacity:1;"/>
</linearGradient>
<linearGradient id="linear4" gradientUnits="userSpaceOnUse" x1="129.645828" y1="233.5" x2="129.645828" y2="-168.666672" >
<stop offset="0" style="stop-color:rgb(39.215686%,70.980392%,96.470588%);stop-opacity:1;"/>
<stop offset="1" style="stop-color:rgb(56.470588%,79.215686%,97.647059%);stop-opacity:1;"/>
</linearGradient>
<linearGradient id="linear5" gradientUnits="userSpaceOnUse" x1="381" y1="222.916672" x2="381" y2="-147.5" >
<stop offset="0" style="stop-color:rgb(39.215686%,70.980392%,96.470588%);stop-opacity:1;"/>
<stop offset="1" style="stop-color:rgb(56.470588%,79.215686%,97.647059%);stop-opacity:1;"/>
</linearGradient>
<linearGradient id="linear6" gradientUnits="userSpaceOnUse" x1="381" y1="233.5" x2="381" y2="-168.666656" >
<stop offset="0" style="stop-color:rgb(39.215686%,70.980392%,96.470588%);stop-opacity:1;"/>
<stop offset="1" style="stop-color:rgb(56.470588%,79.215686%,97.647059%);stop-opacity:1;"/>
</linearGradient>
<linearGradient id="linear7" gradientUnits="userSpaceOnUse" x1="254" y1="212.333328" x2="254" y2="-168.666672" >
<stop offset="0" style="stop-color:rgb(39.215686%,70.980392%,96.470588%);stop-opacity:1;"/>
<stop offset="1" style="stop-color:rgb(56.470588%,79.215686%,97.647059%);stop-opacity:1;"/>
</linearGradient>
<linearGradient id="linear8" gradientUnits="userSpaceOnUse" x1="254" y1="222.916672" x2="254" y2="-168.666672" >
<stop offset="0" style="stop-color:rgb(39.215686%,70.980392%,96.470588%);stop-opacity:1;"/>
<stop offset="1" style="stop-color:rgb(56.470588%,79.215686%,97.647059%);stop-opacity:1;"/>
</linearGradient>
<linearGradient id="linear9" gradientUnits="userSpaceOnUse" x1="254" y1="-31.083334" x2="254" y2="-158.083328" >
<stop offset="0" style="stop-color:rgb(39.215686%,70.980392%,96.470588%);stop-opacity:1;"/>
<stop offset="1" style="stop-color:rgb(56.470588%,79.215686%,97.647059%);stop-opacity:1;"/>
</linearGradient>
<linearGradient id="linear10" gradientUnits="userSpaceOnUse" x1="381" y1="-41.666668" x2="381" y2="-147.5" >
<stop offset="0" style="stop-color:rgb(95.686275%,26.27451%,21.176471%);stop-opacity:1;"/>
<stop offset="1" style="stop-color:rgb(93.72549%,32.54902%,31.372549%);stop-opacity:1;"/>
</linearGradient>
<linearGradient id="linear11" gradientUnits="userSpaceOnUse" x1="381" y1="-41.666668" x2="381" y2="-147.5" gradientTransform="matrix(1,0,0,1,0,127.791328)">
<stop offset="0" style="stop-color:rgb(95.686275%,26.27451%,21.176471%);stop-opacity:1;"/>
<stop offset="1" style="stop-color:rgb(93.72549%,32.54902%,31.372549%);stop-opacity:1;"/>
</linearGradient>
<linearGradient id="linear12" gradientUnits="userSpaceOnUse" x1="127" y1="-73.416664" x2="127" y2="-115.75" gradientTransform="matrix(1,0,0,1,253.999985,254)">
<stop offset="0" style="stop-color:rgb(47.45098%,52.54902%,79.607843%);stop-opacity:1;"/>
<stop offset="1" style="stop-color:rgb(36.078431%,41.960784%,75.294118%);stop-opacity:1;"/>
</linearGradient>
<linearGradient id="linear13" gradientUnits="userSpaceOnUse" x1="127" y1="-73.416664" x2="127" y2="-115.75" gradientTransform="matrix(1,0,0,1,127,0)">
<stop offset="0" style="stop-color:rgb(47.45098%,52.54902%,79.607843%);stop-opacity:1;"/>
<stop offset="1" style="stop-color:rgb(36.078431%,41.960784%,75.294118%);stop-opacity:1;"/>
</linearGradient>
<linearGradient id="linear14" gradientUnits="userSpaceOnUse" x1="127" y1="-73.416664" x2="127" y2="-115.75" gradientTransform="matrix(1,0,0,1,127,127)">
<stop offset="0" style="stop-color:rgb(47.45098%,52.54902%,79.607843%);stop-opacity:1;"/>
<stop offset="1" style="stop-color:rgb(36.078431%,41.960784%,75.294118%);stop-opacity:1;"/>
</linearGradient>
</defs>
<g id="surface1">
<path style=" stroke:none;fill-rule:nonzero;fill:url(#linear0);" d="M 52.921875 219.371094 L 201.101562 219.371094 L 201.101562 230.738281 L 52.921875 230.738281 Z M 52.921875 219.371094 "/>
<path style=" stroke:none;fill-rule:nonzero;fill:url(#radial0);" d="M 201.101562 219.761719 L 222.269531 219.761719 L 222.269531 209.179688 L 201.101562 209.179688 Z M 201.101562 219.761719 "/>
<path style=" stroke:none;fill-rule:nonzero;fill:url(#radial1);" d="M 52.921875 219.761719 L 31.753906 219.761719 L 31.753906 230.347656 L 52.921875 230.347656 Z M 52.921875 219.761719 "/>
<path style=" stroke:none;fill-rule:nonzero;fill:url(#radial2);" d="M 52.921875 219.761719 L 31.753906 219.761719 L 31.753906 209.179688 L 52.921875 209.179688 Z M 52.921875 219.761719 "/>
<path style=" stroke:none;fill-rule:nonzero;fill:url(#radial3);" d="M 201.101562 219.761719 L 222.269531 219.761719 L 222.269531 230.347656 L 201.101562 230.347656 Z M 201.101562 219.761719 "/>
<path style="fill-rule:nonzero;fill:url(#linear1);stroke-width:3;stroke-linecap:round;stroke-linejoin:miter;stroke:rgb(12.941177%,12.941177%,12.941177%);stroke-opacity:1;stroke-miterlimit:4;" d="M 84.66379 -158.08356 L 190.497433 -158.08356 C 202.191629 -158.08356 211.667287 -148.607903 211.667287 -136.913707 L 211.667287 -31.080063 C 211.667287 -19.393679 202.191629 -9.918022 190.497433 -9.918022 L 84.66379 -9.918022 C 72.977406 -9.918022 63.501748 -19.393679 63.501748 -31.080063 L 63.501748 -136.913707 C 63.501748 -148.607903 72.977406 -158.08356 84.66379 -158.08356 Z M 84.66379 -158.08356 " transform="matrix(0.500048,0,0,0.500048,0,107.510266)"/>
<path style="fill-rule:nonzero;fill:url(#linear2);stroke-width:3;stroke-linecap:round;stroke-linejoin:miter;stroke:rgb(12.941177%,12.941177%,12.941177%);stroke-opacity:1;stroke-miterlimit:4;" d="M 317.50093 -158.08356 L 423.334574 -158.08356 C 435.020958 -158.08356 444.496615 -148.607903 444.496615 -136.913707 L 444.496615 -31.080063 C 444.496615 -19.393679 435.020958 -9.918022 423.334574 -9.918022 L 317.50093 -9.918022 C 305.806734 -9.918022 296.331077 -19.393679 296.331077 -31.080063 L 296.331077 -136.913707 C 296.331077 -148.607903 305.806734 -158.08356 317.50093 -158.08356 Z M 317.50093 -158.08356 " transform="matrix(0.500048,0,0,0.500048,0,107.510266)"/>
<path style="fill-rule:nonzero;fill:url(#linear3);stroke-width:3;stroke-linecap:round;stroke-linejoin:miter;stroke:rgb(12.941177%,12.941177%,12.941177%);stroke-opacity:1;stroke-miterlimit:4;" d="M 84.66379 74.75358 L 190.497433 74.75358 C 202.191629 74.75358 211.667287 84.229238 211.667287 95.915622 L 211.667287 201.749265 C 211.667287 213.443461 202.191629 222.919118 190.497433 222.919118 L 84.66379 222.919118 C 72.977406 222.919118 63.501748 213.443461 63.501748 201.749265 L 63.501748 95.915622 C 63.501748 84.229238 72.977406 74.75358 84.66379 74.75358 Z M 84.66379 74.75358 " transform="matrix(0.500048,0,0,0.500048,0,107.510266)"/>
<path style="fill-rule:nonzero;fill:url(#linear4);stroke-width:3;stroke-linecap:round;stroke-linejoin:miter;stroke:rgb(12.941177%,12.941177%,12.941177%);stroke-opacity:1;stroke-miterlimit:4;" d="M 63.501748 -31.080063 L 190.497433 -31.080063 L 190.497433 95.915622 L 63.501748 95.915622 Z M 63.501748 -31.080063 " transform="matrix(0.500048,0,0,0.500048,0,107.510266)"/>
<path style="fill-rule:nonzero;fill:url(#linear5);stroke-width:3;stroke-linecap:round;stroke-linejoin:miter;stroke:rgb(12.941177%,12.941177%,12.941177%);stroke-opacity:1;stroke-miterlimit:4;" d="M 317.50093 74.75358 L 423.334574 74.75358 C 435.020958 74.75358 444.496615 84.229238 444.496615 95.915622 L 444.496615 201.749265 C 444.496615 213.443461 435.020958 222.919118 423.334574 222.919118 L 317.50093 222.919118 C 305.806734 222.919118 296.331077 213.443461 296.331077 201.749265 L 296.331077 95.915622 C 296.331077 84.229238 305.806734 74.75358 317.50093 74.75358 Z M 317.50093 74.75358 " transform="matrix(0.500048,0,0,0.500048,0,107.510266)"/>
<path style="fill-rule:nonzero;fill:url(#linear6);stroke-width:3;stroke-linecap:round;stroke-linejoin:miter;stroke:rgb(12.941177%,12.941177%,12.941177%);stroke-opacity:1;stroke-miterlimit:4;" d="M 317.50093 -31.080063 L 444.496615 -31.080063 L 444.496615 95.915622 L 317.50093 95.915622 Z M 317.50093 -31.080063 " transform="matrix(0.500048,0,0,0.500048,0,107.510266)"/>
<path style="fill-rule:nonzero;fill:url(#linear7);stroke-width:3;stroke-linecap:round;stroke-linejoin:miter;stroke:rgb(12.941177%,12.941177%,12.941177%);stroke-opacity:1;stroke-miterlimit:4;" d="M 190.497433 -31.080063 L 317.50093 -31.080063 L 317.50093 95.915622 L 190.497433 95.915622 Z M 190.497433 -31.080063 " transform="matrix(0.500048,0,0,0.500048,0,107.510266)"/>
<path style="fill-rule:nonzero;fill:url(#linear8);stroke-width:3;stroke-linecap:round;stroke-linejoin:miter;stroke:rgb(12.941177%,12.941177%,12.941177%);stroke-opacity:1;stroke-miterlimit:4;" d="M 190.497433 95.915622 L 317.50093 95.915622 L 317.50093 222.919118 L 190.497433 222.919118 Z M 190.497433 95.915622 " transform="matrix(0.500048,0,0,0.500048,0,107.510266)"/>
<path style="fill-rule:nonzero;fill:url(#linear9);stroke-width:3;stroke-linecap:round;stroke-linejoin:miter;stroke:rgb(12.941177%,12.941177%,12.941177%);stroke-opacity:1;stroke-miterlimit:4;" d="M 190.497433 -158.08356 L 317.50093 -158.08356 L 317.50093 -31.080063 L 190.497433 -31.080063 Z M 190.497433 -158.08356 " transform="matrix(0.500048,0,0,0.500048,0,107.510266)"/>
<path style=" stroke:none;fill-rule:nonzero;fill:rgb(100%,100%,100%);fill-opacity:0.784314;" d="M 42.335938 28.460938 C 36.472656 28.460938 31.753906 33.179688 31.753906 39.046875 L 31.753906 40.488281 C 31.753906 34.625 36.472656 29.902344 42.335938 29.902344 L 211.6875 29.902344 C 217.550781 29.902344 222.269531 34.625 222.269531 40.488281 L 222.269531 39.046875 C 222.269531 33.179688 217.550781 28.460938 211.6875 28.460938 Z M 42.335938 28.460938 "/>
<path style=" stroke:none;fill-rule:nonzero;fill:rgb(0%,0%,0%);fill-opacity:0.235294;" d="M 42.335938 219.097656 C 36.472656 219.097656 31.753906 214.378906 31.753906 208.515625 L 31.753906 207.070312 C 31.753906 212.9375 36.472656 217.65625 42.335938 217.65625 L 211.6875 217.65625 C 217.550781 217.65625 222.269531 212.9375 222.269531 207.070312 L 222.269531 208.515625 C 222.269531 214.378906 217.550781 219.097656 211.6875 219.097656 Z M 42.335938 219.097656 "/>
<path style=" stroke:none;fill-rule:nonzero;fill:rgb(12.941177%,12.941177%,12.941177%);fill-opacity:1;" d="M 42.335938 27.710938 C 36.070312 27.710938 31.003906 32.78125 31.003906 39.046875 L 31.003906 208.394531 C 31.003906 214.660156 36.070312 219.730469 42.335938 219.730469 L 211.6875 219.730469 C 217.953125 219.730469 223.019531 214.660156 223.019531 208.394531 L 223.019531 39.046875 C 223.019531 32.78125 217.953125 27.710938 211.6875 27.710938 Z M 42.335938 29.210938 L 211.6875 29.210938 C 217.148438 29.210938 221.519531 33.585938 221.519531 39.046875 L 221.519531 208.394531 C 221.519531 213.855469 217.148438 218.230469 211.6875 218.230469 L 42.335938 218.230469 C 36.875 218.230469 32.503906 213.855469 32.503906 208.394531 L 32.503906 39.046875 C 32.503906 33.585938 36.875 29.210938 42.335938 29.210938 Z M 42.335938 29.210938 "/>
<path style="fill-rule:nonzero;fill:url(#linear10);stroke-width:3;stroke-linecap:round;stroke-linejoin:round;stroke:rgb(12.941177%,12.941177%,12.941177%);stroke-opacity:1;stroke-miterlimit:4;" d="M 433.388301 -146.967434 C 429.24026 -151.115476 422.56121 -151.115476 418.42098 -146.967434 L 381.002679 -109.549133 L 343.584377 -146.967434 C 339.436335 -151.115476 332.757286 -151.115476 328.617056 -146.967434 C 324.469015 -142.819393 324.469015 -136.148155 328.617056 -132.000114 L 366.035358 -94.581812 L 328.617056 -57.16351 C 324.469015 -53.023281 324.469015 -46.344231 328.617056 -42.196189 C 332.757286 -38.05596 339.436335 -38.05596 343.584377 -42.196189 L 381.002679 -79.614491 L 418.42098 -42.196189 C 422.56121 -38.05596 429.24026 -38.05596 433.388301 -42.196189 C 437.528531 -46.344231 437.528531 -53.023281 433.388301 -57.16351 L 395.969999 -94.581812 L 433.388301 -132.000114 C 437.528531 -136.148155 437.528531 -142.819393 433.388301 -146.967434 Z M 433.388301 -146.967434 " transform="matrix(0.500048,0,0,0.500048,0,107.510266)"/>
<path style="fill-rule:nonzero;fill:url(#linear11);stroke-width:3;stroke-linecap:round;stroke-linejoin:round;stroke:rgb(12.941177%,12.941177%,12.941177%);stroke-opacity:1;stroke-miterlimit:4;" d="M 433.388301 -19.17495 C 429.24026 -23.322992 422.56121 -23.322992 418.42098 -19.17495 L 381.002679 18.243351 L 343.584377 -19.17495 C 339.436335 -23.322992 332.757286 -23.322992 328.617056 -19.17495 C 324.469015 -15.034721 324.469015 -8.355671 328.617056 -4.20763 L 366.035358 33.210672 L 328.617056 70.628974 C 324.469015 74.769203 324.469015 81.448253 328.617056 85.596294 C 332.757286 89.736524 339.436335 89.736524 343.584377 85.596294 L 381.002679 48.177993 L 418.42098 85.596294 C 422.56121 89.736524 429.24026 89.736524 433.388301 85.596294 C 437.528531 81.448253 437.528531 74.769203 433.388301 70.628974 L 395.969999 33.210672 L 433.388301 -4.20763 C 437.528531 -8.355671 437.528531 -15.034721 433.388301 -19.17495 Z M 433.388301 -19.17495 " transform="matrix(0.500048,0,0,0.500048,0,107.510266)"/>
<path style="fill-rule:nonzero;fill:url(#linear12);stroke-width:3;stroke-linecap:round;stroke-linejoin:round;stroke:rgb(12.941177%,12.941177%,12.941177%);stroke-opacity:1;stroke-miterlimit:4;" d="M 381.002679 143.543886 C 389.767467 143.543886 396.876163 150.652582 396.876163 159.41737 C 396.876163 168.182158 389.767467 175.290854 381.002679 175.290854 C 372.230079 175.290854 365.121383 168.182158 365.121383 159.41737 C 365.121383 150.652582 372.230079 143.543886 381.002679 143.543886 Z M 381.002679 143.543886 " transform="matrix(0.500048,0,0,0.500048,0,107.510266)"/>
<path style="fill-rule:nonzero;fill:url(#linear13);stroke-width:3;stroke-linecap:round;stroke-linejoin:round;stroke:rgb(12.941177%,12.941177%,12.941177%);stroke-opacity:1;stroke-miterlimit:4;" d="M 253.999182 -110.455296 C 262.76397 -110.455296 269.872666 -103.354412 269.872666 -94.581812 C 269.872666 -85.817024 262.76397 -78.708328 253.999182 -78.708328 C 245.234394 -78.708328 238.125698 -85.817024 238.125698 -94.581812 C 238.125698 -103.354412 245.234394 -110.455296 253.999182 -110.455296 Z M 253.999182 -110.455296 " transform="matrix(0.500048,0,0,0.500048,0,107.510266)"/>
<path style="fill-rule:nonzero;fill:url(#linear14);stroke-width:3;stroke-linecap:round;stroke-linejoin:round;stroke:rgb(12.941177%,12.941177%,12.941177%);stroke-opacity:1;stroke-miterlimit:4;" d="M 253.999182 16.540389 C 262.76397 16.540389 269.872666 23.649085 269.872666 32.413873 C 269.872666 41.186473 262.76397 48.295169 253.999182 48.295169 C 245.234394 48.295169 238.125698 41.186473 238.125698 32.413873 C 238.125698 23.649085 245.234394 16.540389 253.999182 16.540389 Z M 253.999182 16.540389 " transform="matrix(0.500048,0,0,0.500048,0,107.510266)"/>
</g>
</svg>
