<svg xmlns="http://www.w3.org/2000/svg" width="256pt" height="256pt" viewBox="0 0 256 256"><defs><linearGradient id="a" gradientUnits="userSpaceOnUse" x1="254" y1="233.5" x2="254" y2="254.667" gradientTransform="matrix(.50005 0 0 .50005 0 107.51)"><stop offset="0" stop-opacity=".275"/><stop offset="1" stop-opacity="0"/></linearGradient><radialGradient id="b" gradientUnits="userSpaceOnUse" cx="450.909" cy="189.579" fx="450.909" fy="189.579" r="21.167" gradientTransform="matrix(0 -.62506 -1.1251 0 390.584 508.763)"><stop offset="0" stop-opacity=".314"/><stop offset=".222" stop-opacity=".275"/><stop offset="1" stop-opacity="0"/></radialGradient><radialGradient id="c" gradientUnits="userSpaceOnUse" cx="450.909" cy="189.579" fx="450.909" fy="189.579" r="21.167" gradientTransform="matrix(0 .62506 1.1251 0 -141.852 -60.22)"><stop offset="0" stop-opacity=".314"/><stop offset=".222" stop-opacity=".275"/><stop offset="1" stop-opacity="0"/></radialGradient><radialGradient id="d" gradientUnits="userSpaceOnUse" cx="450.909" cy="189.579" fx="450.909" fy="189.579" r="21.167" gradientTransform="matrix(0 -.62506 1.1251 0 -141.852 508.763)"><stop offset="0" stop-opacity=".314"/><stop offset=".222" stop-opacity=".275"/><stop offset="1" stop-opacity="0"/></radialGradient><radialGradient id="e" gradientUnits="userSpaceOnUse" cx="450.909" cy="189.579" fx="450.909" fy="189.579" r="21.167" gradientTransform="matrix(0 .62506 -1.1251 0 390.584 -60.22)"><stop offset="0" stop-opacity=".314"/><stop offset=".222" stop-opacity=".275"/><stop offset="1" stop-opacity="0"/></radialGradient><linearGradient id="f" gradientUnits="userSpaceOnUse" x1="960" y1="1695.118" x2="960" y2="175.118" gradientTransform="scale(.1323)"><stop offset="0" stop-color="#424242"/><stop offset="1" stop-color="#616161"/></linearGradient></defs><path d="M68.797 224.27h111.137v10.585H68.797zm0 0" fill="url(#a)"/><path d="M179.934 224.27h21.168v-10.583h-21.168zm0 0" fill="url(#b)"/><path d="M68.797 224.27H47.629v10.585h21.168zm0 0" fill="url(#c)"/><path d="M68.797 224.27H47.629v-10.583h21.168zm0 0" fill="url(#d)"/><path d="M179.934 224.27h21.168v10.585h-21.168zm0 0" fill="url(#e)"/><path d="M127.012 23.168c-26.387 0-47.63 21.242-47.63 47.629 0 26.387 21.243 47.633 47.63 47.633 26.386 0 47.629-21.246 47.629-47.633 0-26.387-21.243-47.629-47.63-47.629zm-36.11 110.508c-22.691 6.316-37.98 18.422-37.98 32.383v47.629a10.559 10.559 0 0 0 10.586 10.582H190.52a10.558 10.558 0 0 0 10.582-10.583V166.06c0-13.961-15.29-26.067-37.98-32.383-8.72 10.117-21.642 16.504-36.11 16.504-14.469 0-27.387-6.387-36.11-16.504zm0 0" fill="url(#f)"/><path d="M127.012 23.168c-26.387 0-47.63 21.242-47.63 47.629 0 .445.009.887.02 1.324.696-25.77 21.664-46.305 47.61-46.305 25.945 0 46.914 20.536 47.613 46.305a49.5 49.5 0 0 0 .016-1.324c0-26.387-21.243-47.629-47.63-47.629zm-36.11 110.508c-22.691 6.316-37.98 18.422-37.98 32.383v2.644c0-13.957 15.289-26.062 37.98-32.383 8.723 10.121 21.641 16.508 36.11 16.508 14.468 0 27.39-6.387 36.11-16.508 22.69 6.32 37.98 18.426 37.98 32.383v-2.644c0-13.961-15.29-26.067-37.98-32.383-8.72 10.117-21.642 16.504-36.11 16.504-14.469 0-27.387-6.387-36.11-16.504zm0 0" fill="#fff" fill-opacity=".235"/><path d="M79.395 69.691c-.008.368-.012.739-.012 1.106 0 26.387 21.242 47.633 47.629 47.633 26.386 0 47.629-21.246 47.629-47.633 0-.367-.004-.738-.012-1.106-.586 25.871-21.602 46.52-47.617 46.52-26.016 0-47.032-20.648-47.617-46.52zM52.922 211.473v2.214a10.559 10.559 0 0 0 10.586 10.583H190.52a10.558 10.558 0 0 0 10.582-10.583v-2.214a10.558 10.558 0 0 1-10.582 10.582H63.508a10.559 10.559 0 0 1-10.586-10.582zm0 0" fill-opacity=".235"/><path d="M127.012 22.355c-26.825 0-48.442 21.622-48.442 48.442 0 26.824 21.618 48.445 48.442 48.445s48.441-21.62 48.441-48.445c0-26.82-21.617-48.442-48.441-48.442zm0 1.625a46.695 46.695 0 0 1 46.816 46.817 46.696 46.696 0 0 1-46.816 46.82c-25.95 0-46.817-20.867-46.817-46.82a46.698 46.698 0 0 1 46.817-46.817zm36.086 108.883a.817.817 0 0 0-.59.282c-8.574 9.949-21.266 16.222-35.496 16.222-14.227 0-26.922-6.273-35.492-16.222a.813.813 0 0 0-.836-.25c-11.43 3.18-21.02 7.82-27.801 13.484-6.781 5.664-10.774 12.402-10.774 19.68v47.629c0 6.3 5.098 11.394 11.399 11.394H190.52a11.387 11.387 0 0 0 11.394-11.394v-47.63c0-7.277-3.992-14.015-10.773-19.68-6.778-5.663-16.371-10.304-27.801-13.483a.842.842 0 0 0-.242-.032zm-72.453 1.739c8.863 10.058 21.855 16.39 36.367 16.39 14.515 0 27.504-6.332 36.367-16.39 11.047 3.128 20.281 7.644 26.723 13.023 6.535 5.457 10.187 11.75 10.187 18.434v47.629a9.731 9.731 0 0 1-9.77 9.769H63.509a9.732 9.732 0 0 1-9.774-9.77V166.06c0-6.684 3.653-12.977 10.188-18.434 6.445-5.379 15.676-9.895 26.723-13.023zm0 0" fill="#212121"/></svg>