<svg xmlns="http://www.w3.org/2000/svg" width="256pt" height="256pt" viewBox="0 0 256 256"><defs><linearGradient id="a" gradientUnits="userSpaceOnUse" x1="960" y1="1615.118" x2="960" y2="175.118" gradientTransform="scale(.1323)"><stop offset="0" stop-color="#e0e0e0"/><stop offset="1" stop-color="#eee"/></linearGradient><radialGradient id="b" gradientUnits="userSpaceOnUse" cx="450.909" cy="189.579" fx="450.909" fy="189.579" r="21.167" gradientTransform="matrix(0 -.85946 -3.1503 0 731.652 611.477)"><stop offset="0" stop-opacity=".314"/><stop offset=".222" stop-opacity=".275"/><stop offset="1" stop-opacity="0"/></radialGradient><radialGradient id="c" gradientUnits="userSpaceOnUse" cx="450.909" cy="189.579" fx="450.909" fy="189.579" r="21.167" gradientTransform="matrix(0 .85946 3.1503 0 -477.627 -170.873)"><stop offset="0" stop-opacity=".314"/><stop offset=".222" stop-opacity=".275"/><stop offset="1" stop-opacity="0"/></radialGradient><radialGradient id="d" gradientUnits="userSpaceOnUse" cx="450.909" cy="189.579" fx="450.909" fy="189.579" r="21.167" gradientTransform="matrix(0 -.85946 3.1503 0 -477.627 611.477)"><stop offset="0" stop-opacity=".314"/><stop offset=".222" stop-opacity=".275"/><stop offset="1" stop-opacity="0"/></radialGradient><radialGradient id="e" gradientUnits="userSpaceOnUse" cx="450.909" cy="189.579" fx="450.909" fy="189.579" r="21.167" gradientTransform="matrix(0 .85946 -3.1503 0 731.652 -170.873)"><stop offset="0" stop-opacity=".314"/><stop offset=".222" stop-opacity=".275"/><stop offset="1" stop-opacity="0"/></radialGradient><linearGradient id="f" gradientUnits="userSpaceOnUse" x1="255.323" y1="233.5" x2="255.323" y2="254.667" gradientTransform="matrix(.29927 0 0 .68756 50.603 59.756)"><stop offset="0" stop-opacity=".275"/><stop offset="1" stop-opacity="0"/></linearGradient><linearGradient id="g" gradientUnits="userSpaceOnUse" x1="960" y1="1695.118" x2="960" y2="855.118" gradientTransform="scale(.1323)"><stop offset="0" stop-color="#66bb6a"/><stop offset="1" stop-color="#81c784"/></linearGradient><linearGradient id="h" gradientUnits="userSpaceOnUse" x1="960" y1="1695.118" x2="960" y2="175.118" gradientTransform="scale(.1323)"><stop offset="0" stop-color="#bdbdbd"/><stop offset="1" stop-color="#e0e0e0"/></linearGradient></defs><path d="M105.844 23.168a10.564 10.564 0 0 0-10.586 10.586 10.561 10.561 0 0 0 10.586 10.582v68.488c-22.758 23.156-56.61 59.977-63.508 80.668-10.582 31.754 84.676 30.778 84.676 30.778s95.258.976 84.675-30.778c-6.898-20.691-40.75-57.512-63.507-80.668V44.336a10.561 10.561 0 0 0 10.586-10.582 10.564 10.564 0 0 0-10.586-10.586zm0 0" fill="url(#a)"/><path d="M141.832 220.3h59.27v-14.55h-59.27zm0 0" fill="url(#b)"/><path d="M112.195 220.3H52.922v14.555h59.273zm0 0" fill="url(#c)"/><path d="M112.195 220.3H52.922v-14.55h59.273zm0 0" fill="url(#d)"/><path d="M141.832 220.3h59.27v14.555h-59.27zm0 0" fill="url(#e)"/><path d="M112.195 216.664h29.637v18.191h-29.637zm0 0" fill="url(#f)"/><path d="M73.707 155.473c-9.793 12.027-17.844 23.644-20.676 32.144-9.23 27.696 73.86 26.848 73.86 26.848s83.093.847 73.863-26.848c-2.836-8.5-10.883-20.117-20.676-32.144-24.238 11.222-93.527-10.891-106.371 0zm0 0" fill="url(#g)"/><path d="M105.844 23.168c-5.864 0-10.586 4.566-10.586 10.238v.696c0 5.671 4.722 10.234 10.586 10.234v68.488c-22.758 23.156-56.61 59.977-63.508 80.668-10.582 31.754 84.676 30.778 84.676 30.778s95.258.976 84.675-30.778c-6.898-20.691-40.75-57.512-63.507-80.668V44.336c5.863 0 10.586-4.563 10.586-10.234v-.696c0-5.672-4.723-10.238-10.586-10.238zm2.644 2.648h37.047c5.863 0 10.582 3.54 10.582 7.938s-4.719 7.937-10.582 7.937h-37.047c-5.863 0-10.582-3.539-10.582-7.937 0-4.399 4.719-7.938 10.582-7.938zm2.649 18.52h31.75v72.918c19.851 20.195 51.847 52.312 57.867 70.363 9.23 27.696-73.863 26.848-73.863 26.848s-83.09.847-73.86-26.848c6.016-18.05 38.254-50.168 58.106-70.363zm0 0" fill="url(#h)"/><path d="M105.844 44.336h42.336v3.973h-42.336zm0 0" fill-opacity=".235"/><path d="M111.137 166.059a5.292 5.292 0 1 1 0 10.582 5.289 5.289 0 0 1-5.293-5.29 5.29 5.29 0 0 1 5.293-5.292zm0 0M134.95 160.766a5.29 5.29 0 0 1 5.292 5.293 5.292 5.292 0 1 1-10.582 0 5.289 5.289 0 0 1 5.29-5.293zm0 0M153.473 176.64a5.295 5.295 0 0 1 5.293 5.294 5.295 5.295 0 0 1-5.293 5.293 5.295 5.295 0 0 1-5.293-5.293 5.295 5.295 0 0 1 5.293-5.293zm0 0M142.887 192.52a5.29 5.29 0 0 1 5.293 5.292 5.289 5.289 0 0 1-5.293 5.29 5.288 5.288 0 0 1-5.29-5.29 5.289 5.289 0 0 1 5.29-5.292zm0 0M105.844 187.227a5.292 5.292 0 1 1 0 10.585 5.292 5.292 0 1 1 0-10.586zm0 0M95.258 155.473a5.292 5.292 0 0 1 5.293 5.293 5.292 5.292 0 1 1-10.582 0 5.291 5.291 0 0 1 5.289-5.293zm0 0" fill="#fff" fill-opacity=".196"/><path d="M105.844 23.168a10.564 10.564 0 0 0-10.586 10.586h.336a10.556 10.556 0 0 1 10.25-7.938h42.336c4.949 0 9.082 3.364 10.254 7.938h.332a10.564 10.564 0 0 0-10.586-10.586zm0 0" fill="#fff" fill-opacity=".588"/><path d="M121.719 197.813a5.289 5.289 0 0 1 5.293 5.289 5.29 5.29 0 0 1-5.293 5.293 5.289 5.289 0 0 1-5.29-5.293 5.288 5.288 0 0 1 5.29-5.29zm0 0M127.012 181.934a5.295 5.295 0 0 1 5.293 5.293 5.295 5.295 0 0 1-5.293 5.293 5.295 5.295 0 0 1-5.293-5.293 5.295 5.295 0 0 1 5.293-5.293zm0 0M164.059 160.766a5.289 5.289 0 0 1 5.289 5.293 5.291 5.291 0 1 1-10.582 0 5.29 5.29 0 0 1 5.293-5.293zm0 0" fill="#fff" fill-opacity=".196"/><path d="M109.98 115.781c-19.921 20.25-51.046 51.48-56.949 69.188-.652 1.957-.843 3.765-.636 5.449.105-.902.316-1.832.636-2.8 6.016-18.052 38.254-50.169 58.106-70.364.66-.809 0-2.133-1.157-1.473zm-68.394 81.121c-2.45 24.07 66.46 27.032 85.426 27.368v-2.645c-18.274-.324-83.117-3.086-85.426-24.723zm0 0" fill-opacity=".235"/><path d="M116.43 60.215c1.46 0 2.644 8.629 2.644 19.277v6.426c0 10.648-1.183 19.281-2.644 19.281-1.465 0-2.649-8.633-2.649-19.281v-6.426c0-10.648 1.184-19.277 2.649-19.277zm0 0" fill="#fff" fill-opacity=".464"/><path d="M80.605 156.43c5.93-5.93 12.801-8.68 15.344-6.137 2.543 2.543-.207 9.41-6.136 15.344-5.934 5.93-12.801 8.68-15.344 6.136-2.543-2.543.203-9.41 6.136-15.343zm0 0" fill="#fff" fill-opacity=".392"/><path d="M106.2 27.137c1.265.73 1.273 3.082.023 5.254l-.758 1.308c-1.254 2.168-3.293 3.336-4.559 2.606-1.265-.73-1.277-3.082-.023-5.25l.754-1.313c1.254-2.168 3.297-3.336 4.562-2.605zm0 0" fill="#fff" fill-opacity=".863"/><path d="M211.688 196.902c-2.31 21.637-66.403 24.399-84.676 24.723v2.645c18.965-.336 87.125-3.297 84.675-27.368zm0 0" fill-opacity=".235"/><path d="M105.844 44.336h42.336" fill="none" stroke-width="1.50015" stroke="#212121"/><path d="M105.844 22.418c-6.254 0-11.336 4.898-11.336 10.988v.696c0 5.84 4.683 10.574 10.586 10.949v67.472c-11.352 11.555-25.41 26.457-37.528 41.082-12.191 14.711-22.418 29.083-25.941 39.653-1.375 4.125-1.035 7.84.648 11.023 1.684 3.184 4.653 5.832 8.45 8.063 7.593 4.465 18.57 7.316 29.859 9.187 22.582 3.739 46.438 3.489 46.438 3.489.046.003 23.863.246 46.421-3.489 11.29-1.87 22.266-4.722 29.86-9.187 3.797-2.23 6.765-4.88 8.449-8.063 1.684-3.183 2.023-6.898.648-11.023-3.523-10.57-13.746-24.942-25.941-39.653-12.117-14.625-26.176-29.527-37.527-41.082V45.051c5.902-.375 10.586-5.11 10.586-10.95v-.695c0-6.09-5.082-10.988-11.336-10.988zm0 1.5h42.336c5.476 0 9.836 4.234 9.836 9.488v.696c0 5.253-4.36 9.484-9.836 9.484a.75.75 0 0 0-.75.75v68.488c0 .2.078.387.215.528 11.37 11.566 25.511 26.55 37.66 41.21 12.148 14.66 22.297 29.047 25.672 39.168 1.27 3.81.949 7.012-.551 9.852-1.504 2.84-4.238 5.328-7.883 7.469-7.29 4.285-18.145 7.144-29.348 9-22.402 3.71-46.175 3.469-46.175 3.469h-.016s-23.774.242-46.176-3.47c-11.2-1.855-22.055-4.714-29.344-9-3.644-2.14-6.382-4.628-7.882-7.468-1.504-2.84-1.825-6.043-.551-9.852 3.37-10.12 13.523-24.507 25.668-39.167 12.148-14.66 26.289-29.645 37.66-41.211a.755.755 0 0 0 .215-.528V44.336a.75.75 0 0 0-.75-.75c-5.477 0-9.836-4.23-9.836-9.484v-.696c0-5.254 4.36-9.488 9.836-9.488zm0 0" fill="#212121"/></svg>