<?xml version="1.0" encoding="UTF-8"?>
<svg xmlns="http://www.w3.org/2000/svg" xmlns:xlink="http://www.w3.org/1999/xlink" width="16px" height="16px" viewBox="0 0 16 16" version="1.1">
<g id="surface1">
<path style=" stroke:none;fill-rule:nonzero;fill:rgb(25.882354%,25.882354%,25.882354%);fill-opacity:1;" d="M 5.375 0.785156 C 4.414062 0.785156 3.636719 1.5625 3.636719 2.523438 C 3.636719 3.484375 4.414062 4.257812 5.375 4.257812 C 6.335938 4.257812 7.113281 3.484375 7.113281 2.523438 C 7.113281 1.5625 6.335938 0.785156 5.375 0.785156 Z M 10.585938 4.257812 C 8.414062 4.257812 8.414062 10.335938 7.113281 10.335938 C 5.808594 10.335938 5.375 6.863281 4.507812 6.863281 C 3.203125 6.863281 1.902344 11.191406 1.902344 13.808594 C 1.902344 14.292969 2.289062 14.679688 2.769531 14.679688 L 13.1875 14.679688 C 13.671875 14.679688 14.058594 14.292969 14.058594 13.808594 C 14.121094 10.410156 12.753906 4.257812 10.585938 4.257812 Z M 10.585938 4.257812 "/>
</g>
</svg>
