
<svg xmlns="http://www.w3.org/2000/svg" xmlns:xlink="http://www.w3.org/1999/xlink" width="32px" height="32px" viewBox="0 0 32 32" version="1.1">
<defs>
<linearGradient id="linear0" gradientUnits="userSpaceOnUse" x1="33.076088" y1="52.098743" x2="33.076088" y2="54.744831" gradientTransform="matrix(0.5,0,0,0.5,0,0)">
<stop offset="0" style="stop-color:rgb(0%,0%,0%);stop-opacity:0.27451;"/>
<stop offset="1" style="stop-color:rgb(0%,0%,0%);stop-opacity:0;"/>
</linearGradient>
<radialGradient id="radial0" gradientUnits="userSpaceOnUse" cx="450.908936" cy="189.579361" fx="450.908936" fy="189.579361" r="21.166656" gradientTransform="matrix(0.000000175,-0.0781325,-0.140639,-0.0000001,53.453693,61.610771)">
<stop offset="0" style="stop-color:rgb(0%,0%,0%);stop-opacity:0.313725;"/>
<stop offset="0.222222" style="stop-color:rgb(0%,0%,0%);stop-opacity:0.27451;"/>
<stop offset="1" style="stop-color:rgb(0%,0%,0%);stop-opacity:0;"/>
</radialGradient>
<radialGradient id="radial1" gradientUnits="userSpaceOnUse" cx="450.908936" cy="189.579361" fx="450.908936" fy="189.579361" r="21.166656" gradientTransform="matrix(-0.000000175,0.0781325,0.140639,0.0000001,-21.700661,-9.512043)">
<stop offset="0" style="stop-color:rgb(0%,0%,0%);stop-opacity:0.313725;"/>
<stop offset="0.222222" style="stop-color:rgb(0%,0%,0%);stop-opacity:0.27451;"/>
<stop offset="1" style="stop-color:rgb(0%,0%,0%);stop-opacity:0;"/>
</radialGradient>
<radialGradient id="radial2" gradientUnits="userSpaceOnUse" cx="450.908936" cy="189.579361" fx="450.908936" fy="189.579361" r="21.166656" gradientTransform="matrix(-0.000000175,-0.0781325,0.140639,-0.0000001,-21.700661,61.610771)">
<stop offset="0" style="stop-color:rgb(0%,0%,0%);stop-opacity:0.313725;"/>
<stop offset="0.222222" style="stop-color:rgb(0%,0%,0%);stop-opacity:0.27451;"/>
<stop offset="1" style="stop-color:rgb(0%,0%,0%);stop-opacity:0;"/>
</radialGradient>
<radialGradient id="radial3" gradientUnits="userSpaceOnUse" cx="450.908936" cy="189.579361" fx="450.908936" fy="189.579361" r="21.166656" gradientTransform="matrix(0.000000175,0.0781325,-0.140639,0.0000001,53.453693,-9.512044)">
<stop offset="0" style="stop-color:rgb(0%,0%,0%);stop-opacity:0.313725;"/>
<stop offset="0.222222" style="stop-color:rgb(0%,0%,0%);stop-opacity:0.27451;"/>
<stop offset="1" style="stop-color:rgb(0%,0%,0%);stop-opacity:0;"/>
</radialGradient>
<linearGradient id="linear1" gradientUnits="userSpaceOnUse" x1="31.753048" y1="61.360043" x2="31.753048" y2="3.146122" gradientTransform="matrix(0.5,0,0,0.5,0,0)">
<stop offset="0" style="stop-color:rgb(74.117649%,74.117649%,74.117649%);stop-opacity:1;"/>
<stop offset="1" style="stop-color:rgb(87.843138%,87.843138%,87.843138%);stop-opacity:1;"/>
</linearGradient>
<linearGradient id="linear2" gradientUnits="userSpaceOnUse" x1="31.753048" y1="52.098736" x2="31.753048" y2="12.407427" gradientTransform="matrix(0.5,0,0,0.5,0,0)">
<stop offset="0" style="stop-color:rgb(100%,43.921569%,26.274511%);stop-opacity:1;"/>
<stop offset="1" style="stop-color:rgb(100%,71.764708%,30.19608%);stop-opacity:1;"/>
</linearGradient>
<linearGradient id="linear3" gradientUnits="userSpaceOnUse" x1="31.753056" y1="52.098766" x2="31.753056" y2="12.407444" gradientTransform="matrix(0.5,0,0,0.5,0,0)">
<stop offset="0" style="stop-color:rgb(25.882354%,25.882354%,25.882354%);stop-opacity:1;"/>
<stop offset="1" style="stop-color:rgb(38.039216%,38.039216%,38.039216%);stop-opacity:1;"/>
</linearGradient>
<linearGradient id="linear4" gradientUnits="userSpaceOnUse" x1="33.076092" y1="52.098736" x2="33.076092" y2="12.407427" gradientTransform="matrix(0.5,0,0,0.5,0,0)">
<stop offset="0" style="stop-color:rgb(100%,43.921569%,26.274511%);stop-opacity:1;"/>
<stop offset="1" style="stop-color:rgb(100%,71.764708%,30.19608%);stop-opacity:1;"/>
</linearGradient>
</defs>
<g id="surface1">
<path style=" stroke:none;fill-rule:nonzero;fill:url(#linear0);" d="M 4.632812 26.046875 L 27.125 26.046875 L 27.125 27.375 L 4.632812 27.375 Z M 4.632812 26.046875 "/>
<path style=" stroke:none;fill-rule:nonzero;fill:url(#radial0);" d="M 27.125 26.046875 L 29.765625 26.046875 L 29.765625 24.726562 L 27.125 24.726562 Z M 27.125 26.046875 "/>
<path style=" stroke:none;fill-rule:nonzero;fill:url(#radial1);" d="M 4.632812 26.046875 L 1.984375 26.046875 L 1.984375 27.375 L 4.632812 27.375 Z M 4.632812 26.046875 "/>
<path style=" stroke:none;fill-rule:nonzero;fill:url(#radial2);" d="M 4.632812 26.046875 L 1.984375 26.046875 L 1.984375 24.726562 L 4.632812 24.726562 Z M 4.632812 26.046875 "/>
<path style=" stroke:none;fill-rule:nonzero;fill:url(#radial3);" d="M 27.125 26.046875 L 29.765625 26.046875 L 29.765625 27.375 L 27.125 27.375 Z M 27.125 26.046875 "/>
<path style=" stroke:none;fill-rule:nonzero;fill:url(#linear1);" d="M 3.96875 6.203125 L 27.78125 6.203125 C 28.515625 6.203125 29.109375 6.796875 29.109375 7.527344 L 29.109375 24.726562 C 29.109375 25.457031 28.515625 26.046875 27.78125 26.046875 L 3.96875 26.046875 C 3.238281 26.046875 2.648438 25.457031 2.648438 24.726562 L 2.648438 7.527344 C 2.648438 6.796875 3.238281 6.203125 3.96875 6.203125 Z M 3.96875 6.203125 "/>
<path style=" stroke:none;fill-rule:nonzero;fill:url(#linear2);" d="M 29.109375 16.304688 C 23.601562 21.570312 14.273438 25.238281 3.421875 25.929688 C 3.585938 26.007812 3.773438 26.046875 3.96875 26.046875 L 27.78125 26.046875 C 28.515625 26.046875 29.109375 25.460938 29.109375 24.726562 Z M 29.109375 16.304688 "/>
<path style=" stroke:none;fill-rule:nonzero;fill:rgb(100%,100%,100%);fill-opacity:0.588235;" d="M 3.96875 6.203125 C 3.234375 6.203125 2.648438 6.792969 2.648438 7.527344 L 2.648438 7.859375 C 2.648438 7.125 3.234375 6.535156 3.96875 6.535156 L 27.78125 6.535156 C 28.515625 6.535156 29.109375 7.125 29.109375 7.859375 L 29.109375 7.527344 C 29.109375 6.792969 28.515625 6.203125 27.78125 6.203125 Z M 3.96875 6.203125 "/>
<path style=" stroke:none;fill-rule:nonzero;fill:rgb(0%,0%,0%);fill-opacity:0.235294;" d="M 2.648438 24.40625 L 2.648438 24.726562 C 2.648438 25.460938 3.234375 26.046875 3.96875 26.046875 L 27.78125 26.046875 C 28.515625 26.046875 29.109375 25.460938 29.109375 24.726562 L 29.109375 24.40625 C 29.109375 25.140625 28.515625 25.730469 27.78125 25.730469 L 3.96875 25.730469 C 3.234375 25.730469 2.648438 25.140625 2.648438 24.40625 Z M 2.648438 24.40625 "/>
<path style="fill:none;stroke-width:3;stroke-linecap:round;stroke-linejoin:round;stroke:rgb(12.941177%,12.941177%,12.941177%);stroke-opacity:1;stroke-miterlimit:4;" d="M 63.493907 -115.759414 L 444.519842 -115.759414 C 456.206221 -115.759414 465.705309 -106.260326 465.705309 -94.573947 L 465.705309 180.587147 C 465.705309 192.273526 456.206221 201.772614 444.519842 201.772614 L 63.493907 201.772614 C 51.807528 201.772614 42.370934 192.273526 42.370934 180.587147 L 42.370934 -94.573947 C 42.370934 -106.260326 51.807528 -115.759414 63.493907 -115.759414 Z M 63.493907 -115.759414 " transform="matrix(0.062506,0,0,0.062506,0,13.438783)"/>
<path style="fill:none;stroke-width:11.338583;stroke-linecap:round;stroke-linejoin:round;stroke:rgb(12.941177%,12.941177%,12.941177%);stroke-opacity:1;stroke-miterlimit:4;" d="M 1760.14554 985.889357 C 1427.10673 1304.283907 863.066533 1526.073582 206.909218 1567.880582 C 216.829523 1572.604537 228.167014 1575.202712 239.976901 1575.202712 L 1680.074507 1575.202712 C 1724.479682 1575.202712 1760.14554 1539.536854 1760.14554 1495.131679 Z M 1760.14554 985.889357 " transform="matrix(0.0165381,0,0,0.0165381,0,0)"/>
<path style=" stroke:none;fill-rule:nonzero;fill:url(#linear3);" d="M 13.917969 13.917969 C 13.0625 13.917969 12.378906 14.589844 12.378906 15.429688 C 12.378906 16.28125 13.046875 16.9375 13.90625 16.9375 C 14.148438 16.9375 14.355469 16.890625 14.609375 16.769531 L 14.609375 16.109375 C 14.386719 16.332031 14.1875 16.421875 13.929688 16.421875 C 13.363281 16.421875 12.960938 16.011719 12.960938 15.425781 C 12.960938 14.871094 13.375 14.433594 13.90625 14.433594 C 14.171875 14.433594 14.375 14.53125 14.609375 14.757812 L 14.609375 14.09375 C 14.367188 13.96875 14.160156 13.917969 13.917969 13.917969 Z M 11.25 13.9375 C 10.742188 13.9375 10.351562 14.289062 10.351562 14.765625 C 10.351562 15.164062 10.53125 15.367188 11.0625 15.554688 C 11.28125 15.632812 11.398438 15.6875 11.453125 15.71875 C 11.5625 15.796875 11.621094 15.898438 11.621094 16.019531 C 11.621094 16.253906 11.4375 16.429688 11.183594 16.429688 C 10.914062 16.429688 10.695312 16.292969 10.570312 16.042969 L 10.203125 16.390625 C 10.460938 16.773438 10.773438 16.945312 11.203125 16.945312 C 11.789062 16.945312 12.203125 16.554688 12.203125 15.992188 C 12.203125 15.535156 12.011719 15.328125 11.371094 15.09375 C 11.03125 14.96875 10.929688 14.882812 10.929688 14.726562 C 10.929688 14.546875 11.109375 14.40625 11.351562 14.40625 C 11.523438 14.40625 11.660156 14.476562 11.804688 14.640625 L 12.101562 14.257812 C 11.859375 14.042969 11.570312 13.9375 11.25 13.9375 Z M 6.789062 13.984375 L 6.789062 16.875 L 7.613281 16.875 C 8.050781 16.875 8.367188 16.769531 8.644531 16.539062 C 8.972656 16.265625 9.167969 15.855469 9.167969 15.429688 C 9.167969 14.578125 8.53125 13.984375 7.617188 13.984375 Z M 9.429688 13.984375 L 9.429688 16.875 L 9.992188 16.875 L 9.992188 13.984375 Z M 17.695312 13.984375 L 18.921875 16.945312 L 19.226562 16.945312 L 20.476562 13.984375 L 19.863281 13.984375 L 19.082031 15.921875 L 18.3125 13.984375 Z M 20.726562 13.984375 L 20.726562 16.875 L 22.328125 16.875 L 22.328125 16.382812 L 21.292969 16.382812 L 21.292969 15.601562 L 22.289062 15.601562 L 22.289062 15.117188 L 21.292969 15.117188 L 21.292969 14.472656 L 22.328125 14.472656 L 22.328125 13.984375 Z M 22.703125 13.984375 L 22.703125 16.875 L 23.265625 16.875 L 23.265625 15.710938 L 23.335938 15.710938 L 24.117188 16.875 L 24.8125 16.875 L 23.902344 15.65625 C 24.328125 15.570312 24.5625 15.28125 24.5625 14.835938 C 24.5625 14.296875 24.1875 13.984375 23.539062 13.984375 Z M 23.265625 14.4375 L 23.4375 14.4375 C 23.789062 14.4375 23.980469 14.585938 23.980469 14.867188 C 23.980469 15.15625 23.789062 15.3125 23.429688 15.3125 L 23.265625 15.3125 Z M 7.351562 14.472656 L 7.503906 14.472656 C 7.867188 14.472656 8.089844 14.539062 8.273438 14.707031 C 8.46875 14.882812 8.585938 15.148438 8.585938 15.425781 C 8.585938 15.703125 8.46875 15.980469 8.273438 16.15625 C 8.097656 16.3125 7.867188 16.382812 7.503906 16.382812 L 7.351562 16.382812 Z M 7.351562 14.472656 "/>
<path style=" stroke:none;fill-rule:nonzero;fill:url(#linear4);" d="M 16.375 13.976562 C 17.195312 13.976562 17.859375 14.640625 17.859375 15.464844 C 17.859375 16.289062 17.195312 16.953125 16.375 16.953125 C 15.550781 16.953125 14.882812 16.289062 14.882812 15.464844 C 14.882812 14.640625 15.550781 13.976562 16.375 13.976562 Z M 16.375 13.976562 "/>
<path style="fill:none;stroke-width:11.338583;stroke-linecap:butt;stroke-linejoin:miter;stroke:rgb(12.941177%,12.941177%,12.941177%);stroke-opacity:1;stroke-miterlimit:4;" d="M 841.572539 841.572539 C 790.081432 841.572539 748.51063 882.19855 748.51063 932.981063 C 748.51063 984.47217 788.900444 1024.389588 840.863946 1024.389588 C 855.508206 1024.389588 868.026686 1021.319017 883.615736 1013.996887 L 883.615736 974.07947 C 869.916267 987.542741 857.870183 993.211487 842.51733 993.211487 C 808.03246 993.211487 783.704093 968.174526 783.704093 932.744866 C 783.704093 899.204787 808.977251 872.75064 840.863946 872.75064 C 857.16159 872.75064 869.443872 878.655584 883.615736 892.355053 L 883.615736 852.437635 C 868.735279 844.64311 856.216799 841.572539 841.572539 841.572539 Z M 680.485682 842.753528 C 649.543778 842.753528 625.924005 864.247522 625.924005 892.827448 C 625.924005 916.919617 637.025298 929.2019 668.911993 940.775589 C 682.375264 945.499544 689.224998 948.570114 692.531767 950.695894 C 699.381501 955.183651 702.688269 961.324792 702.688269 968.646922 C 702.688269 982.818786 691.586976 993.447684 676.234123 993.447684 C 659.936479 993.447684 646.945603 985.180763 639.151078 970.064108 L 616.948491 991.321905 C 632.773739 1014.233085 651.669558 1024.625786 677.651309 1024.625786 C 713.08097 1024.625786 737.881732 1001.006012 737.881732 967.229735 C 737.881732 939.358402 726.308043 926.839922 687.571614 912.668058 C 667.022411 905.10973 661.117467 900.149578 661.117467 890.701668 C 661.117467 879.600375 671.746366 871.333454 686.626823 871.333454 C 696.783326 871.333454 705.050247 875.348815 714.025761 885.505318 L 731.740591 862.121742 C 717.096331 849.130867 699.617699 842.753528 680.485682 842.753528 Z M 410.511668 845.587901 L 410.511668 1020.374226 L 460.349391 1020.374226 C 486.803537 1020.374226 505.935554 1013.996887 522.705593 1000.061221 C 542.546203 983.763577 554.35609 958.726617 554.35609 932.981063 C 554.35609 881.489957 515.855859 845.587901 460.585588 845.587901 Z M 570.181339 845.587901 L 570.181339 1020.374226 L 604.193813 1020.374226 L 604.193813 845.587901 Z M 1069.975751 845.587901 L 1144.141841 1024.861983 L 1162.565264 1024.861983 L 1238.14854 845.587901 L 1201.065496 845.587901 L 1153.825948 962.978176 L 1107.294994 845.587901 Z M 1253.501393 845.587901 L 1253.501393 1020.374226 L 1350.106268 1020.374226 L 1350.106268 990.849509 L 1287.513868 990.849509 L 1287.513868 943.609962 L 1347.980488 943.609962 L 1347.980488 914.085244 L 1287.513868 914.085244 L 1287.513868 875.112618 L 1350.106268 875.112618 L 1350.106268 845.587901 Z M 1372.781251 845.587901 L 1372.781251 1020.374226 L 1406.793725 1020.374226 L 1406.793725 950.223498 L 1411.281482 950.223498 L 1458.52103 1020.374226 L 1500.328029 1020.374226 L 1445.293956 946.680532 C 1471.03951 941.484182 1485.211374 924.005549 1485.211374 897.079007 C 1485.211374 864.48372 1462.536391 845.587901 1423.327567 845.587901 Z M 1406.793725 872.986838 L 1417.186425 872.986838 C 1438.444222 872.986838 1450.017911 881.962352 1450.017911 898.968589 C 1450.017911 916.68342 1438.444222 926.131329 1416.71403 926.131329 L 1406.793725 926.131329 Z M 444.524142 875.112618 L 453.735854 875.112618 C 475.702243 875.112618 489.165515 879.127979 500.503006 889.284482 C 512.312893 899.91338 519.398825 915.974826 519.398825 932.744866 C 519.398825 949.514905 512.312893 966.284944 500.503006 976.913843 C 489.63791 986.59795 475.702243 990.849509 453.735854 990.849509 L 444.524142 990.849509 Z M 444.524142 875.112618 " transform="matrix(0.0165381,0,0,0.0165381,0,0)"/>
<path style="fill:none;stroke-width:3;stroke-linecap:round;stroke-linejoin:round;stroke:rgb(12.941177%,12.941177%,12.941177%);stroke-opacity:1;stroke-miterlimit:4;" d="M 261.97486 8.603651 C 275.098601 8.603651 285.785075 19.290126 285.785075 32.413866 C 285.785075 45.600101 275.098601 56.224081 261.97486 56.224081 C 248.788625 56.224081 238.164645 45.600101 238.164645 32.413866 C 238.164645 19.290126 248.788625 8.603651 261.97486 8.603651 Z M 261.97486 8.603651 " transform="matrix(0.062506,0,0,0.062506,0,13.438783)"/>
</g>
</svg>
