<?xml version="1.0" encoding="UTF-8"?>
<svg xmlns="http://www.w3.org/2000/svg" xmlns:xlink="http://www.w3.org/1999/xlink" width="48px" height="48px" viewBox="0 0 48 48" version="1.1">
<g id="surface1">
<path style="fill-rule:nonzero;fill:rgb(95.686275%,26.274511%,21.176471%);fill-opacity:1;stroke-width:82;stroke-linecap:round;stroke-linejoin:round;stroke:rgb(95.686275%,26.274511%,21.176471%);stroke-opacity:1;stroke-miterlimit:4;" d="M 43.017027 -444.499219 C 54.68258 -444.499219 64.181673 -435.041789 64.181673 -423.334574 L 64.181673 -84.658582 C 64.181673 -72.99303 54.68258 -63.493937 43.017027 -63.493937 C 31.309812 -63.493937 21.852382 -72.99303 21.852382 -84.658582 L 21.852382 -423.334574 C 21.852382 -435.041789 31.309812 -444.499219 43.017027 -444.499219 Z M 43.017027 -444.499219 " transform="matrix(0.000000000000000006,0.093759,-0.093759,0.000000000000000006,0,20.158175)"/>
<path style=" stroke:none;fill-rule:nonzero;fill:rgb(98.039216%,98.039216%,98.039216%);fill-opacity:1;" d="M 41.675781 24.191406 C 41.675781 25.285156 40.789062 26.175781 39.691406 26.175781 L 7.9375 26.175781 C 6.84375 26.175781 5.953125 25.285156 5.953125 24.191406 C 5.953125 23.09375 6.84375 22.207031 7.9375 22.207031 L 39.691406 22.207031 C 40.789062 22.207031 41.675781 23.09375 41.675781 24.191406 Z M 41.675781 24.191406 "/>
</g>
</svg>
