
<svg xmlns="http://www.w3.org/2000/svg" xmlns:xlink="http://www.w3.org/1999/xlink" width="48px" height="48px" viewBox="0 0 48 48" version="1.1">
<g id="surface1">
<defs>
  <style id="current-color-scheme" type="text/css">
   .ColorScheme-Text { color:#424242; } .ColorScheme-Highlight { color:#eeeeee; }
  </style>
 </defs>
<path style="fill:currentColor" class="ColorScheme-Text" d="M 24 6 C 14.027344 6 6 14.027344 6 24 C 6 33.972656 14.027344 42 24 42 C 33.972656 42 42 33.972656 42 24 C 42 14.027344 33.972656 6 24 6 Z M 24 9 C 32.308594 9 39 15.691406 39 24 C 39 32.308594 32.308594 39 24 39 C 15.691406 39 9 32.308594 9 24 C 9 15.691406 15.691406 9 24 9 Z M 24 15 C 22.148438 15 20.4375 15.5625 19.007812 16.511719 L 20.671875 19.007812 C 21.621094 18.363281 22.769531 18 24 18 C 27.328125 18 30 20.671875 30 24 L 27 24 L 31.5 30 L 36 24 L 33 24 C 33 19.019531 28.980469 15 24 15 Z M 16.5 18 L 12 24 L 15 24 C 15 28.980469 19.019531 33 24 33 C 25.851562 33 27.5625 32.4375 28.992188 31.488281 L 27.328125 28.992188 C 26.378906 29.636719 25.230469 30 24 30 C 20.671875 30 18 27.328125 18 24 L 21 24 Z M 16.5 18 "/>
</g>
</svg>
