<?xml version="1.0" encoding="UTF-8"?>
<svg xmlns="http://www.w3.org/2000/svg" xmlns:xlink="http://www.w3.org/1999/xlink" width="48px" height="48px" viewBox="0 0 48 48" version="1.1">
<g id="surface1">
<path style=" stroke:none;fill-rule:nonzero;fill:rgb(25.882354%,25.882354%,25.882354%);fill-opacity:0.392157;" d="M 21.832031 6.328125 C 18.53125 6.328125 15.875 8.984375 15.875 12.28125 L 15.875 26.175781 C 15.875 26.289062 15.878906 26.40625 15.886719 26.519531 L 31.574219 10.828125 C 30.929688 8.238281 28.597656 6.328125 25.800781 6.328125 Z M 31.753906 21.851562 L 21.488281 32.117188 C 21.601562 32.125 21.714844 32.128906 21.832031 32.128906 L 25.800781 32.128906 C 29.097656 32.128906 31.753906 29.472656 31.753906 26.175781 Z M 31.753906 21.851562 "/>
<path style=" stroke:none;fill-rule:nonzero;fill:rgb(25.882354%,25.882354%,25.882354%);fill-opacity:0.392157;" d="M 35.746094 18.21875 C 35.726562 18.214844 35.710938 18.214844 35.691406 18.21875 C 35.578125 18.21875 35.464844 18.230469 35.351562 18.25 L 33.78125 19.824219 C 33.757812 19.953125 33.746094 20.085938 33.746094 20.21875 L 33.746094 21.214844 L 32.390625 21.214844 L 31.753906 21.851562 L 31.753906 23.199219 L 33.746094 23.199219 L 33.746094 26.175781 C 33.746094 30.613281 30.238281 34.121094 25.800781 34.121094 L 21.832031 34.121094 C 21.109375 34.121094 20.410156 34.027344 19.75 33.855469 L 16.699219 36.90625 C 17.96875 37.515625 19.367188 37.910156 20.839844 38.03125 L 20.839844 40.066406 C 20.839844 41.164062 21.722656 42.050781 22.824219 42.050781 L 24.808594 42.050781 C 25.90625 42.050781 26.792969 41.164062 26.792969 40.066406 L 26.792969 38.03125 C 32.886719 37.523438 37.699219 32.398438 37.699219 26.175781 L 37.699219 20.21875 C 37.714844 19.125 36.835938 18.230469 35.746094 18.21875 Z M 11.929688 18.21875 C 11.914062 18.21875 11.894531 18.21875 11.878906 18.21875 C 10.789062 18.234375 9.917969 19.128906 9.933594 20.21875 L 9.933594 26.175781 C 9.933594 28.011719 10.351562 29.75 11.097656 31.304688 L 14.152344 28.253906 C 13.976562 27.59375 13.882812 26.894531 13.882812 26.175781 L 13.882812 23.199219 L 15.875 23.199219 L 15.875 21.214844 L 13.882812 21.214844 L 13.882812 20.21875 C 13.898438 19.125 13.019531 18.230469 11.929688 18.21875 Z M 11.929688 18.21875 "/>
<path style=" stroke:none;fill-rule:nonzero;fill:rgb(25.882354%,25.882354%,25.882354%);fill-opacity:1;" d="M 38.550781 9.457031 C 39.324219 10.230469 39.324219 11.488281 38.550781 12.261719 L 11.886719 38.925781 C 11.113281 39.699219 9.855469 39.699219 9.082031 38.925781 C 8.304688 38.148438 8.304688 36.894531 9.082031 36.117188 L 35.742188 9.457031 C 36.519531 8.679688 37.773438 8.679688 38.550781 9.457031 Z M 38.550781 9.457031 "/>
</g>
</svg>
