
<svg xmlns="http://www.w3.org/2000/svg" xmlns:xlink="http://www.w3.org/1999/xlink" width="48px" height="48px" viewBox="0 0 48 48" version="1.1">
<defs>
<radialGradient id="radial0" gradientUnits="userSpaceOnUse" cx="450.908997" cy="189.578995" fx="450.908997" fy="189.578995" r="21.167" gradientTransform="matrix(0,-0.11721,-0.21096,0,52.497002,95.394001)">
<stop offset="0" style="stop-color:rgb(0%,0%,0%);stop-opacity:0.314;"/>
<stop offset="0.222" style="stop-color:rgb(0%,0%,0%);stop-opacity:0.275;"/>
<stop offset="1" style="stop-color:rgb(0%,0%,0%);stop-opacity:0;"/>
</radialGradient>
<radialGradient id="radial1" gradientUnits="userSpaceOnUse" cx="450.908997" cy="189.578995" fx="450.908997" fy="189.578995" r="21.167" gradientTransform="matrix(0,0.11721,0.21096,0,-26.495999,-11.292)">
<stop offset="0" style="stop-color:rgb(0%,0%,0%);stop-opacity:0.314;"/>
<stop offset="0.222" style="stop-color:rgb(0%,0%,0%);stop-opacity:0.275;"/>
<stop offset="1" style="stop-color:rgb(0%,0%,0%);stop-opacity:0;"/>
</radialGradient>
<radialGradient id="radial2" gradientUnits="userSpaceOnUse" cx="450.908997" cy="189.578995" fx="450.908997" fy="189.578995" r="21.167" gradientTransform="matrix(0,-0.11721,0.21096,0,-26.495999,95.394001)">
<stop offset="0" style="stop-color:rgb(0%,0%,0%);stop-opacity:0.314;"/>
<stop offset="0.222" style="stop-color:rgb(0%,0%,0%);stop-opacity:0.275;"/>
<stop offset="1" style="stop-color:rgb(0%,0%,0%);stop-opacity:0;"/>
</radialGradient>
<radialGradient id="radial3" gradientUnits="userSpaceOnUse" cx="450.908997" cy="189.578995" fx="450.908997" fy="189.578995" r="21.167" gradientTransform="matrix(0,0.11721,-0.21096,0,52.497002,-11.292)">
<stop offset="0" style="stop-color:rgb(0%,0%,0%);stop-opacity:0.314;"/>
<stop offset="0.222" style="stop-color:rgb(0%,0%,0%);stop-opacity:0.275;"/>
<stop offset="1" style="stop-color:rgb(0%,0%,0%);stop-opacity:0;"/>
</radialGradient>
<linearGradient id="linear0" gradientUnits="userSpaceOnUse" x1="960" y1="815.117981" x2="960" y2="175.117996" gradientTransform="matrix(0.02481,0,0,0.02481,-10.908,21.831)">
<stop offset="0" style="stop-color:rgb(69.01961%,74.509805%,77.254903%);stop-opacity:1;"/>
<stop offset="1" style="stop-color:rgb(81.176472%,84.705883%,86.274511%);stop-opacity:1;"/>
</linearGradient>
<radialGradient id="radial4" gradientUnits="userSpaceOnUse" cx="450.908997" cy="189.578995" fx="450.908997" fy="189.578995" r="21.167" gradientTransform="matrix(0,-0.11721,-0.21096,0,75.225002,95.394001)">
<stop offset="0" style="stop-color:rgb(0%,0%,0%);stop-opacity:0.314;"/>
<stop offset="0.222" style="stop-color:rgb(0%,0%,0%);stop-opacity:0.275;"/>
<stop offset="1" style="stop-color:rgb(0%,0%,0%);stop-opacity:0;"/>
</radialGradient>
<radialGradient id="radial5" gradientUnits="userSpaceOnUse" cx="450.908997" cy="189.578995" fx="450.908997" fy="189.578995" r="21.167" gradientTransform="matrix(0,0.11721,0.21096,0,-3.768,-11.292)">
<stop offset="0" style="stop-color:rgb(0%,0%,0%);stop-opacity:0.314;"/>
<stop offset="0.222" style="stop-color:rgb(0%,0%,0%);stop-opacity:0.275;"/>
<stop offset="1" style="stop-color:rgb(0%,0%,0%);stop-opacity:0;"/>
</radialGradient>
<radialGradient id="radial6" gradientUnits="userSpaceOnUse" cx="450.908997" cy="189.578995" fx="450.908997" fy="189.578995" r="21.167" gradientTransform="matrix(0,-0.11721,0.21096,0,-3.768,95.394001)">
<stop offset="0" style="stop-color:rgb(0%,0%,0%);stop-opacity:0.314;"/>
<stop offset="0.222" style="stop-color:rgb(0%,0%,0%);stop-opacity:0.275;"/>
<stop offset="1" style="stop-color:rgb(0%,0%,0%);stop-opacity:0;"/>
</radialGradient>
<radialGradient id="radial7" gradientUnits="userSpaceOnUse" cx="450.908997" cy="189.578995" fx="450.908997" fy="189.578995" r="21.167" gradientTransform="matrix(0,0.11721,-0.21096,0,75.225002,-11.292)">
<stop offset="0" style="stop-color:rgb(0%,0%,0%);stop-opacity:0.314;"/>
<stop offset="0.222" style="stop-color:rgb(0%,0%,0%);stop-opacity:0.275;"/>
<stop offset="1" style="stop-color:rgb(0%,0%,0%);stop-opacity:0;"/>
</radialGradient>
<linearGradient id="linear1" gradientUnits="userSpaceOnUse" x1="960" y1="815.117981" x2="960" y2="175.117996" gradientTransform="matrix(0.02481,0,0,0.02481,11.91,0.249)">
<stop offset="0" style="stop-color:rgb(69.01961%,74.509805%,77.254903%);stop-opacity:1;"/>
<stop offset="1" style="stop-color:rgb(81.176472%,84.705883%,86.274511%);stop-opacity:1;"/>
</linearGradient>
<linearGradient id="linear2" gradientUnits="userSpaceOnUse" x1="1240" y1="1695.118042" x2="1240" y2="1135.118042" gradientTransform="matrix(0.0239618,0.00643176,-0.00643176,0.0239618,16.089282,-6.780552)">
<stop offset="0" style="stop-color:rgb(39.215687%,70.980394%,96.470588%);stop-opacity:1;"/>
<stop offset="1" style="stop-color:rgb(56.470591%,79.215688%,97.647059%);stop-opacity:1;"/>
</linearGradient>
<linearGradient id="linear3" gradientUnits="userSpaceOnUse" x1="1240" y1="1695.118042" x2="1240" y2="1135.118042" gradientTransform="matrix(0.0239618,0.00643176,-0.00643176,0.0239618,-7.745601,-28.547333)">
<stop offset="0" style="stop-color:rgb(39.215687%,70.980394%,96.470588%);stop-opacity:1;"/>
<stop offset="1" style="stop-color:rgb(56.470591%,79.215688%,97.647059%);stop-opacity:1;"/>
</linearGradient>
</defs>
<g id="surface1">
<path style=" stroke:none;fill-rule:nonzero;fill:url(#radial0);" d="M 12.996094 42.046875 L 16.96875 42.046875 L 16.96875 40.066406 L 12.996094 40.066406 Z M 12.996094 42.046875 "/>
<path style=" stroke:none;fill-rule:nonzero;fill:url(#radial1);" d="M 12.996094 42.046875 L 9.035156 42.046875 L 9.035156 44.039062 L 12.996094 44.039062 Z M 12.996094 42.046875 "/>
<path style=" stroke:none;fill-rule:nonzero;fill:url(#radial2);" d="M 12.996094 42.046875 L 9.035156 42.046875 L 9.035156 40.066406 L 12.996094 40.066406 Z M 12.996094 42.046875 "/>
<path style=" stroke:none;fill-rule:nonzero;fill:url(#radial3);" d="M 12.996094 42.046875 L 16.96875 42.046875 L 16.96875 44.039062 L 12.996094 44.039062 Z M 12.996094 42.046875 "/>
<path style=" stroke:none;fill-rule:nonzero;fill:url(#linear0);" d="M 12.878906 26.179688 C 12.621094 26.179688 12.375 26.285156 12.199219 26.472656 C 12.011719 26.660156 11.917969 26.90625 11.917969 27.164062 L 11.894531 27.164062 C 11.355469 27.175781 10.921875 27.621094 10.921875 28.160156 C 10.921875 28.710938 11.355469 29.15625 11.894531 29.15625 L 11.917969 29.15625 L 11.917969 31.722656 L 10.101562 29.90625 L 10.113281 29.882812 C 10.300781 29.695312 10.394531 29.449219 10.394531 29.191406 C 10.394531 28.933594 10.289062 28.675781 10.101562 28.5 C 9.925781 28.3125 9.667969 28.207031 9.410156 28.207031 C 9.152344 28.207031 8.90625 28.300781 8.71875 28.488281 L 8.695312 28.5 C 8.507812 28.3125 8.261719 28.207031 8.003906 28.207031 C 7.746094 28.207031 7.5 28.300781 7.3125 28.488281 L 7.277344 28.511719 C 6.902344 28.898438 6.902344 29.519531 7.289062 29.90625 L 7.277344 29.917969 C 6.902344 30.304688 6.914062 30.925781 7.289062 31.300781 C 7.476562 31.488281 7.722656 31.59375 7.980469 31.605469 C 8.25 31.605469 8.496094 31.5 8.683594 31.324219 L 8.695312 31.300781 L 10.511719 33.117188 L 7.945312 33.117188 L 7.945312 33.09375 C 7.945312 32.554688 7.5 32.132812 6.949219 32.132812 C 6.691406 32.132812 6.445312 32.226562 6.257812 32.402344 C 6.070312 32.589844 5.964844 32.835938 5.964844 33.09375 L 5.964844 33.117188 C 5.425781 33.105469 4.96875 33.550781 4.96875 34.089844 L 4.96875 34.136719 C 4.96875 34.675781 5.414062 35.109375 5.964844 35.109375 L 5.964844 35.132812 C 5.964844 35.660156 6.398438 36.09375 6.949219 36.09375 C 7.488281 36.105469 7.933594 35.671875 7.945312 35.132812 L 7.945312 35.109375 L 10.511719 35.109375 L 8.695312 36.914062 L 8.683594 36.902344 C 8.296875 36.515625 7.664062 36.515625 7.277344 36.902344 C 6.890625 37.289062 6.890625 37.921875 7.277344 38.308594 L 7.289062 38.320312 C 6.902344 38.707031 6.902344 39.328125 7.277344 39.714844 L 7.3125 39.738281 C 7.5 39.925781 7.746094 40.019531 8.003906 40.019531 C 8.261719 40.019531 8.507812 39.914062 8.695312 39.726562 L 8.71875 39.738281 C 8.90625 39.925781 9.152344 40.019531 9.410156 40.019531 C 9.667969 40.019531 9.925781 39.914062 10.101562 39.726562 C 10.289062 39.550781 10.394531 39.292969 10.394531 39.035156 C 10.394531 38.777344 10.300781 38.53125 10.113281 38.34375 L 10.101562 38.320312 L 11.917969 36.503906 L 11.917969 39.070312 L 11.894531 39.070312 C 11.355469 39.070312 10.921875 39.527344 10.921875 40.066406 C 10.921875 40.617188 11.355469 41.0625 11.894531 41.0625 L 11.917969 41.0625 C 11.917969 41.613281 12.351562 42.046875 12.878906 42.046875 L 12.925781 42.046875 C 13.464844 42.046875 13.898438 41.613281 13.898438 41.0625 L 13.921875 41.0625 C 14.460938 41.0625 14.894531 40.617188 14.894531 40.066406 C 14.90625 39.527344 14.460938 39.070312 13.921875 39.070312 L 13.898438 39.070312 L 13.898438 36.503906 L 15.714844 38.320312 L 15.703125 38.34375 C 15.515625 38.53125 15.410156 38.777344 15.421875 39.035156 C 15.421875 39.292969 15.527344 39.550781 15.714844 39.726562 C 15.890625 39.914062 16.148438 40.019531 16.40625 40.019531 C 16.664062 40.019531 16.910156 39.925781 17.097656 39.738281 L 17.121094 39.726562 C 17.296875 39.914062 17.554688 40.019531 17.8125 40.019531 C 18.070312 40.019531 18.316406 39.925781 18.503906 39.738281 L 18.539062 39.714844 C 18.726562 39.527344 18.820312 39.269531 18.820312 39.011719 C 18.808594 38.753906 18.703125 38.496094 18.515625 38.320312 L 18.539062 38.308594 C 18.726562 38.121094 18.820312 37.875 18.820312 37.605469 C 18.808594 37.347656 18.703125 37.101562 18.515625 36.914062 C 18.140625 36.527344 17.519531 36.527344 17.132812 36.902344 L 17.121094 36.914062 L 15.304688 35.109375 L 17.871094 35.109375 L 17.871094 35.132812 C 17.871094 35.660156 18.316406 36.09375 18.855469 36.09375 C 19.394531 36.105469 19.839844 35.671875 19.851562 35.132812 L 19.851562 35.109375 C 20.390625 35.121094 20.835938 34.675781 20.847656 34.136719 L 20.847656 34.089844 C 20.835938 33.550781 20.390625 33.105469 19.851562 33.117188 L 19.851562 33.09375 C 19.851562 32.554688 19.40625 32.132812 18.855469 32.132812 C 18.316406 32.132812 17.871094 32.554688 17.871094 33.09375 L 17.871094 33.117188 L 15.304688 33.117188 L 17.121094 31.300781 L 17.132812 31.324219 C 17.320312 31.5 17.566406 31.605469 17.824219 31.605469 C 18.082031 31.59375 18.328125 31.488281 18.515625 31.300781 C 18.703125 31.125 18.808594 30.878906 18.820312 30.621094 C 18.820312 30.351562 18.726562 30.105469 18.539062 29.917969 L 18.515625 29.90625 C 18.703125 29.730469 18.808594 29.472656 18.820312 29.214844 C 18.820312 28.957031 18.726562 28.699219 18.539062 28.511719 L 18.503906 28.488281 C 18.316406 28.300781 18.070312 28.207031 17.8125 28.207031 C 17.554688 28.207031 17.296875 28.3125 17.121094 28.5 L 17.097656 28.488281 C 16.910156 28.300781 16.664062 28.207031 16.40625 28.207031 C 16.148438 28.207031 15.902344 28.3125 15.714844 28.5 C 15.527344 28.675781 15.421875 28.921875 15.421875 29.191406 C 15.421875 29.449219 15.515625 29.695312 15.703125 29.882812 L 15.714844 29.90625 L 13.898438 31.722656 L 13.898438 29.15625 L 13.921875 29.15625 C 14.460938 29.15625 14.894531 28.710938 14.894531 28.160156 C 14.90625 27.621094 14.460938 27.175781 13.921875 27.164062 L 13.898438 27.164062 C 13.898438 26.90625 13.804688 26.660156 13.617188 26.472656 C 13.441406 26.285156 13.183594 26.179688 12.925781 26.179688 Z M 12.878906 26.179688 "/>
<path style=" stroke:none;fill-rule:nonzero;fill:rgb(100%,100%,100%);fill-opacity:0.392;" d="M 12.878906 26.179688 C 12.621094 26.179688 12.375 26.285156 12.199219 26.472656 C 12.011719 26.660156 11.917969 26.90625 11.917969 27.164062 L 11.894531 27.164062 C 11.613281 27.164062 11.355469 27.292969 11.167969 27.503906 C 10.980469 27.714844 10.898438 27.996094 10.933594 28.277344 C 10.992188 27.796875 11.390625 27.410156 11.894531 27.410156 L 11.917969 27.410156 C 11.917969 26.859375 12.351562 26.425781 12.878906 26.425781 L 12.925781 26.425781 C 13.464844 26.425781 13.898438 26.859375 13.898438 27.410156 L 13.921875 27.410156 C 14.414062 27.410156 14.824219 27.796875 14.882812 28.277344 C 14.894531 28.242188 14.894531 28.195312 14.894531 28.160156 C 14.894531 27.621094 14.460938 27.175781 13.921875 27.164062 L 13.898438 27.164062 C 13.898438 26.90625 13.804688 26.660156 13.617188 26.472656 C 13.441406 26.285156 13.183594 26.179688 12.925781 26.179688 Z M 9.398438 28.207031 C 9.140625 28.195312 8.894531 28.300781 8.71875 28.488281 L 8.695312 28.5 C 8.507812 28.3125 8.261719 28.207031 8.003906 28.207031 C 7.746094 28.207031 7.5 28.300781 7.3125 28.488281 L 7.277344 28.511719 C 7.066406 28.722656 6.960938 29.027344 7.007812 29.320312 C 7.03125 29.109375 7.125 28.921875 7.277344 28.769531 L 7.3125 28.734375 C 7.5 28.546875 7.746094 28.453125 8.003906 28.453125 C 8.261719 28.453125 8.507812 28.558594 8.695312 28.746094 L 8.71875 28.734375 C 8.90625 28.546875 9.152344 28.453125 9.410156 28.453125 C 9.667969 28.453125 9.925781 28.558594 10.101562 28.746094 C 10.253906 28.910156 10.359375 29.109375 10.394531 29.332031 C 10.429688 29.027344 10.324219 28.710938 10.101562 28.5 C 9.914062 28.3125 9.667969 28.207031 9.398438 28.207031 Z M 16.40625 28.207031 C 16.148438 28.207031 15.902344 28.3125 15.714844 28.5 C 15.492188 28.710938 15.386719 29.027344 15.421875 29.332031 C 15.457031 29.109375 15.5625 28.910156 15.714844 28.746094 C 15.890625 28.558594 16.148438 28.453125 16.40625 28.453125 C 16.664062 28.453125 16.910156 28.546875 17.097656 28.734375 L 17.121094 28.746094 C 17.296875 28.558594 17.554688 28.453125 17.8125 28.453125 C 18.070312 28.453125 18.316406 28.546875 18.503906 28.734375 L 18.539062 28.769531 C 18.691406 28.921875 18.785156 29.109375 18.808594 29.320312 C 18.84375 29.027344 18.75 28.722656 18.539062 28.511719 L 18.503906 28.488281 C 18.316406 28.300781 18.070312 28.207031 17.8125 28.207031 C 17.554688 28.207031 17.296875 28.3125 17.121094 28.5 L 17.097656 28.488281 C 16.921875 28.300781 16.664062 28.195312 16.40625 28.207031 Z M 10.21875 30.023438 L 10.113281 30.128906 L 10.101562 30.152344 L 11.917969 31.96875 L 11.917969 31.722656 Z M 15.597656 30.023438 L 13.898438 31.722656 L 13.898438 31.96875 L 15.714844 30.152344 L 15.703125 30.128906 C 15.65625 30.09375 15.632812 30.058594 15.597656 30.023438 Z M 7.183594 30.023438 C 7.03125 30.222656 6.972656 30.480469 7.007812 30.726562 C 7.03125 30.515625 7.125 30.316406 7.277344 30.164062 L 7.289062 30.152344 Z M 18.632812 30.023438 C 18.597656 30.070312 18.5625 30.105469 18.515625 30.152344 L 18.539062 30.164062 C 18.691406 30.328125 18.785156 30.515625 18.808594 30.726562 C 18.84375 30.480469 18.785156 30.222656 18.632812 30.023438 Z M 6.949219 32.132812 C 6.691406 32.132812 6.445312 32.226562 6.257812 32.402344 C 6.070312 32.589844 5.964844 32.835938 5.964844 33.09375 L 5.964844 33.117188 C 5.425781 33.105469 4.96875 33.550781 4.96875 34.089844 L 4.96875 34.242188 C 5.027344 33.738281 5.460938 33.363281 5.964844 33.363281 L 5.964844 33.339844 C 5.964844 32.8125 6.398438 32.378906 6.949219 32.378906 C 7.5 32.378906 7.945312 32.8125 7.945312 33.339844 L 7.945312 33.363281 L 10.511719 33.363281 L 10.265625 33.117188 L 7.945312 33.117188 L 7.945312 33.09375 C 7.945312 32.554688 7.5 32.132812 6.949219 32.132812 Z M 18.855469 32.132812 C 18.316406 32.132812 17.871094 32.554688 17.871094 33.09375 L 17.871094 33.117188 L 15.550781 33.117188 L 15.304688 33.363281 L 17.871094 33.363281 L 17.871094 33.339844 C 17.871094 32.8125 18.316406 32.378906 18.855469 32.378906 C 19.40625 32.378906 19.851562 32.8125 19.851562 33.339844 L 19.851562 33.363281 C 20.367188 33.363281 20.789062 33.75 20.835938 34.242188 C 20.847656 34.207031 20.847656 34.171875 20.847656 34.136719 L 20.847656 34.089844 C 20.835938 33.550781 20.390625 33.105469 19.851562 33.117188 L 19.851562 33.09375 C 19.851562 32.554688 19.40625 32.132812 18.855469 32.132812 Z M 10.265625 35.355469 L 8.695312 36.914062 L 8.683594 36.902344 C 8.378906 36.597656 7.921875 36.527344 7.535156 36.726562 C 7.160156 36.914062 6.9375 37.335938 7.007812 37.757812 C 7.03125 37.535156 7.125 37.324219 7.289062 37.171875 C 7.476562 36.984375 7.722656 36.878906 7.980469 36.867188 C 8.25 36.867188 8.496094 36.960938 8.683594 37.148438 L 8.695312 37.171875 L 10.511719 35.355469 Z M 15.304688 35.355469 L 17.121094 37.171875 L 17.132812 37.148438 C 17.320312 36.972656 17.566406 36.867188 17.824219 36.867188 C 18.082031 36.878906 18.339844 36.984375 18.515625 37.171875 C 18.691406 37.335938 18.785156 37.535156 18.808594 37.757812 C 18.84375 37.441406 18.738281 37.136719 18.515625 36.914062 C 18.140625 36.527344 17.519531 36.527344 17.132812 36.902344 L 17.121094 36.914062 L 15.550781 35.355469 Z M 7.183594 38.449219 C 7.03125 38.648438 6.972656 38.90625 7.007812 39.152344 C 7.03125 38.941406 7.125 38.730469 7.289062 38.566406 L 7.277344 38.554688 C 7.242188 38.519531 7.21875 38.484375 7.183594 38.449219 Z M 18.632812 38.449219 C 18.597656 38.484375 18.574219 38.519531 18.539062 38.554688 L 18.515625 38.566406 C 18.691406 38.730469 18.785156 38.941406 18.808594 39.152344 C 18.84375 38.90625 18.785156 38.648438 18.632812 38.449219 Z M 10.21875 38.460938 L 10.101562 38.566406 L 10.113281 38.589844 C 10.265625 38.742188 10.359375 38.929688 10.394531 39.140625 C 10.417969 38.894531 10.359375 38.660156 10.21875 38.460938 Z M 15.597656 38.460938 C 15.457031 38.660156 15.398438 38.90625 15.421875 39.140625 C 15.457031 38.929688 15.550781 38.742188 15.703125 38.589844 L 15.714844 38.566406 Z M 11.894531 39.070312 C 11.613281 39.070312 11.34375 39.199219 11.15625 39.410156 C 10.980469 39.632812 10.898438 39.914062 10.933594 40.195312 C 10.980469 39.703125 11.402344 39.316406 11.894531 39.316406 L 11.917969 39.316406 L 11.917969 39.070312 Z M 13.898438 39.070312 L 13.898438 39.316406 L 13.921875 39.316406 C 14.414062 39.316406 14.824219 39.703125 14.882812 40.195312 C 14.894531 40.148438 14.894531 40.113281 14.894531 40.066406 C 14.90625 39.527344 14.460938 39.070312 13.921875 39.070312 Z M 13.898438 39.070312 "/>
<path style=" stroke:none;fill-rule:nonzero;fill:rgb(0%,0%,0%);fill-opacity:0.235;" d="M 10.933594 28.03125 C 10.921875 28.078125 10.921875 28.113281 10.921875 28.160156 C 10.921875 28.710938 11.355469 29.15625 11.894531 29.15625 L 11.917969 29.15625 L 11.917969 28.898438 L 11.894531 28.898438 C 11.402344 28.898438 10.980469 28.523438 10.933594 28.03125 Z M 14.882812 28.03125 C 14.824219 28.523438 14.414062 28.898438 13.921875 28.898438 L 13.898438 28.898438 L 13.898438 29.15625 L 13.921875 29.15625 C 14.460938 29.15625 14.894531 28.710938 14.894531 28.160156 C 14.894531 28.113281 14.894531 28.078125 14.882812 28.03125 Z M 7.007812 29.074219 C 6.972656 29.320312 7.03125 29.578125 7.183594 29.777344 L 7.277344 29.671875 L 7.289062 29.660156 C 7.136719 29.496094 7.03125 29.296875 7.007812 29.074219 Z M 18.808594 29.074219 C 18.785156 29.296875 18.679688 29.507812 18.515625 29.660156 L 18.539062 29.671875 C 18.574219 29.707031 18.597656 29.742188 18.632812 29.777344 C 18.785156 29.566406 18.84375 29.308594 18.808594 29.074219 Z M 10.394531 29.085938 C 10.359375 29.296875 10.265625 29.484375 10.113281 29.636719 L 10.101562 29.660156 L 10.21875 29.765625 C 10.359375 29.566406 10.417969 29.320312 10.394531 29.085938 Z M 15.421875 29.085938 C 15.398438 29.320312 15.457031 29.566406 15.597656 29.765625 L 15.714844 29.660156 L 15.703125 29.636719 C 15.550781 29.484375 15.457031 29.296875 15.421875 29.085938 Z M 7.007812 30.46875 C 6.972656 30.773438 7.078125 31.078125 7.289062 31.300781 C 7.476562 31.488281 7.722656 31.59375 7.980469 31.605469 C 8.25 31.605469 8.496094 31.5 8.683594 31.324219 L 8.695312 31.300781 L 10.265625 32.871094 L 10.511719 32.871094 L 8.695312 31.054688 L 8.683594 31.078125 C 8.414062 31.347656 8.015625 31.429688 7.652344 31.300781 C 7.300781 31.171875 7.042969 30.84375 7.007812 30.46875 Z M 18.808594 30.46875 C 18.785156 30.691406 18.679688 30.902344 18.515625 31.054688 C 18.140625 31.441406 17.519531 31.453125 17.132812 31.078125 L 17.121094 31.054688 L 15.304688 32.871094 L 15.550781 32.871094 L 17.121094 31.300781 L 17.132812 31.324219 C 17.320312 31.5 17.566406 31.605469 17.824219 31.605469 C 18.082031 31.59375 18.328125 31.488281 18.515625 31.300781 C 18.738281 31.089844 18.84375 30.773438 18.808594 30.46875 Z M 4.96875 33.984375 L 4.96875 34.136719 C 4.96875 34.675781 5.414062 35.109375 5.964844 35.109375 L 5.964844 35.132812 C 5.964844 35.660156 6.398438 36.09375 6.949219 36.09375 C 7.488281 36.105469 7.933594 35.671875 7.945312 35.132812 L 7.945312 35.109375 L 10.265625 35.109375 L 10.511719 34.851562 L 7.945312 34.851562 L 7.945312 34.875 C 7.945312 35.414062 7.5 35.847656 6.949219 35.847656 C 6.691406 35.847656 6.433594 35.753906 6.257812 35.566406 C 6.070312 35.390625 5.964844 35.132812 5.964844 34.875 L 5.964844 34.851562 C 5.460938 34.863281 5.027344 34.488281 4.96875 33.984375 Z M 20.835938 33.984375 C 20.789062 34.488281 20.355469 34.863281 19.851562 34.851562 L 19.851562 34.875 C 19.851562 35.414062 19.40625 35.847656 18.855469 35.847656 C 18.316406 35.847656 17.871094 35.414062 17.871094 34.875 L 17.871094 34.851562 L 15.304688 34.851562 L 15.550781 35.109375 L 17.871094 35.109375 L 17.871094 35.132812 C 17.871094 35.660156 18.316406 36.09375 18.855469 36.09375 C 19.394531 36.105469 19.839844 35.671875 19.851562 35.132812 L 19.851562 35.109375 C 20.390625 35.121094 20.835938 34.675781 20.847656 34.136719 L 20.847656 34.089844 C 20.847656 34.054688 20.847656 34.019531 20.835938 33.984375 Z M 11.917969 36.257812 L 10.101562 38.074219 L 10.113281 38.085938 C 10.148438 38.132812 10.183594 38.167969 10.21875 38.203125 L 11.917969 36.503906 Z M 13.898438 36.257812 L 13.898438 36.503906 L 15.597656 38.203125 C 15.632812 38.167969 15.65625 38.132812 15.703125 38.085938 L 15.714844 38.074219 Z M 7.007812 37.5 C 6.972656 37.746094 7.03125 38.003906 7.183594 38.203125 C 7.21875 38.15625 7.253906 38.109375 7.289062 38.074219 L 7.277344 38.0625 C 7.125 37.910156 7.03125 37.710938 7.007812 37.5 Z M 18.808594 37.5 C 18.785156 37.710938 18.691406 37.910156 18.539062 38.0625 L 18.515625 38.074219 C 18.5625 38.109375 18.597656 38.15625 18.632812 38.203125 C 18.785156 37.992188 18.84375 37.746094 18.808594 37.5 Z M 10.394531 38.894531 C 10.359375 39.117188 10.253906 39.316406 10.101562 39.480469 C 9.925781 39.667969 9.667969 39.773438 9.410156 39.773438 C 9.152344 39.773438 8.90625 39.679688 8.71875 39.492188 L 8.695312 39.480469 C 8.507812 39.667969 8.261719 39.773438 8.003906 39.773438 C 7.746094 39.773438 7.5 39.679688 7.3125 39.492188 L 7.277344 39.457031 C 7.125 39.304688 7.03125 39.117188 7.007812 38.90625 C 6.960938 39.199219 7.066406 39.503906 7.277344 39.714844 L 7.3125 39.738281 C 7.5 39.925781 7.746094 40.019531 8.003906 40.019531 C 8.261719 40.019531 8.507812 39.914062 8.695312 39.726562 L 8.71875 39.738281 C 8.90625 39.925781 9.152344 40.019531 9.410156 40.019531 C 9.667969 40.019531 9.925781 39.914062 10.101562 39.726562 C 10.324219 39.503906 10.429688 39.199219 10.394531 38.894531 Z M 15.421875 38.894531 C 15.386719 39.1875 15.480469 39.492188 15.714844 39.726562 C 15.890625 39.914062 16.148438 40.019531 16.40625 40.019531 C 16.664062 40.019531 16.910156 39.925781 17.097656 39.738281 L 17.121094 39.726562 C 17.296875 39.914062 17.554688 40.019531 17.8125 40.019531 C 18.070312 40.019531 18.316406 39.925781 18.503906 39.738281 L 18.539062 39.714844 C 18.75 39.503906 18.84375 39.199219 18.808594 38.90625 C 18.785156 39.117188 18.691406 39.304688 18.539062 39.457031 L 18.503906 39.492188 C 18.316406 39.679688 18.070312 39.773438 17.8125 39.773438 C 17.554688 39.773438 17.296875 39.667969 17.121094 39.480469 L 17.097656 39.492188 C 16.910156 39.679688 16.664062 39.773438 16.40625 39.773438 C 16.148438 39.773438 15.902344 39.667969 15.714844 39.480469 C 15.5625 39.316406 15.457031 39.117188 15.421875 38.894531 Z M 10.933594 39.9375 C 10.921875 39.984375 10.921875 40.019531 10.921875 40.066406 C 10.921875 40.617188 11.355469 41.0625 11.894531 41.0625 L 11.917969 41.0625 C 11.917969 41.613281 12.351562 42.046875 12.878906 42.046875 L 12.925781 42.046875 C 13.464844 42.046875 13.898438 41.613281 13.898438 41.0625 L 13.921875 41.0625 C 14.460938 41.0625 14.894531 40.617188 14.894531 40.066406 C 14.894531 40.019531 14.894531 39.984375 14.882812 39.9375 C 14.824219 40.429688 14.414062 40.804688 13.921875 40.804688 L 13.898438 40.804688 L 13.898438 40.816406 C 13.898438 41.355469 13.464844 41.800781 12.925781 41.800781 L 12.878906 41.800781 C 12.339844 41.789062 11.917969 41.355469 11.917969 40.816406 L 11.917969 40.804688 L 11.894531 40.804688 C 11.402344 40.804688 10.980469 40.429688 10.933594 39.9375 Z M 10.933594 39.9375 "/>
<path style=" stroke:none;fill-rule:nonzero;fill:rgb(12.941177%,12.941177%,12.941177%);fill-opacity:1;" d="M 12.878906 26.039062 C 12.316406 26.050781 11.847656 26.472656 11.789062 27.035156 C 11.214844 27.09375 10.769531 27.574219 10.769531 28.160156 C 10.769531 28.734375 11.203125 29.226562 11.777344 29.285156 L 11.777344 31.382812 L 10.300781 29.90625 L 10.21875 29.988281 C 10.652344 29.542969 10.640625 28.828125 10.195312 28.394531 C 9.785156 27.996094 9.140625 27.960938 8.695312 28.3125 C 8.25 27.960938 7.617188 27.984375 7.207031 28.382812 L 7.183594 28.417969 C 6.785156 28.828125 6.75 29.460938 7.113281 29.90625 C 6.75 30.351562 6.785156 31.007812 7.195312 31.40625 C 7.40625 31.617188 7.6875 31.746094 7.980469 31.746094 C 8.285156 31.746094 8.566406 31.628906 8.777344 31.417969 L 8.695312 31.5 L 10.171875 32.976562 L 8.074219 32.976562 C 8.003906 32.414062 7.523438 31.980469 6.949219 31.992188 C 6.375 31.980469 5.894531 32.414062 5.835938 32.988281 C 5.273438 33.046875 4.839844 33.515625 4.828125 34.089844 L 4.828125 34.136719 C 4.828125 34.710938 5.273438 35.167969 5.835938 35.238281 C 5.894531 35.8125 6.375 36.246094 6.949219 36.234375 C 7.523438 36.246094 8.003906 35.8125 8.074219 35.25 L 10.171875 35.25 L 8.695312 36.714844 L 8.777344 36.808594 C 8.566406 36.597656 8.285156 36.480469 7.980469 36.480469 C 7.6875 36.480469 7.40625 36.609375 7.195312 36.820312 C 6.785156 37.21875 6.75 37.875 7.113281 38.320312 C 6.75 38.765625 6.785156 39.410156 7.183594 39.808594 L 7.207031 39.84375 C 7.617188 40.242188 8.261719 40.265625 8.695312 39.902344 C 9.140625 40.277344 9.796875 40.230469 10.195312 39.820312 C 10.40625 39.609375 10.535156 39.328125 10.535156 39.035156 C 10.535156 38.742188 10.429688 38.449219 10.21875 38.238281 L 10.300781 38.320312 L 11.777344 36.84375 L 11.777344 38.941406 C 11.191406 38.988281 10.734375 39.480469 10.734375 40.078125 C 10.746094 40.664062 11.203125 41.15625 11.789062 41.191406 C 11.847656 41.753906 12.316406 42.1875 12.878906 42.1875 L 12.925781 42.1875 C 13.5 42.1875 13.96875 41.753906 14.027344 41.191406 C 14.601562 41.132812 15.046875 40.652344 15.046875 40.066406 C 15.046875 39.492188 14.613281 39 14.039062 38.941406 L 14.039062 36.84375 L 15.515625 38.320312 L 15.597656 38.238281 C 15.164062 38.683594 15.175781 39.386719 15.609375 39.820312 C 16.03125 40.242188 16.675781 40.265625 17.121094 39.902344 C 17.566406 40.265625 18.199219 40.242188 18.597656 39.84375 L 18.632812 39.808594 C 19.03125 39.410156 19.066406 38.753906 18.703125 38.320312 C 19.066406 37.875 19.03125 37.21875 18.621094 36.820312 C 18.410156 36.609375 18.128906 36.480469 17.835938 36.480469 C 17.53125 36.480469 17.25 36.597656 17.039062 36.808594 L 17.121094 36.714844 L 15.644531 35.25 L 17.742188 35.25 C 17.800781 35.800781 18.28125 36.234375 18.855469 36.234375 C 19.453125 36.234375 19.933594 35.800781 19.980469 35.238281 C 20.542969 35.179688 20.976562 34.710938 20.988281 34.136719 L 20.988281 34.089844 C 20.976562 33.515625 20.542969 33.046875 19.980469 32.988281 C 19.921875 32.414062 19.429688 31.980469 18.855469 31.992188 C 18.292969 31.992188 17.8125 32.414062 17.742188 32.976562 L 15.644531 32.976562 L 17.121094 31.5 L 17.039062 31.417969 C 17.25 31.628906 17.53125 31.746094 17.835938 31.746094 C 18.128906 31.746094 18.410156 31.617188 18.621094 31.40625 C 19.03125 31.007812 19.066406 30.351562 18.703125 29.90625 C 19.066406 29.472656 19.03125 28.828125 18.632812 28.417969 L 18.597656 28.382812 C 18.199219 27.984375 17.554688 27.960938 17.121094 28.3125 C 16.664062 27.949219 16.019531 27.996094 15.609375 28.394531 C 15.175781 28.839844 15.164062 29.542969 15.597656 29.988281 L 15.515625 29.90625 L 14.039062 31.382812 L 14.039062 29.285156 C 14.625 29.238281 15.082031 28.746094 15.082031 28.148438 C 15.082031 27.5625 14.613281 27.070312 14.027344 27.035156 C 13.96875 26.472656 13.5 26.039062 12.925781 26.039062 Z M 12.878906 26.320312 L 12.925781 26.320312 C 13.394531 26.320312 13.757812 26.695312 13.757812 27.164062 C 13.757812 27.246094 13.816406 27.304688 13.898438 27.304688 L 13.921875 27.304688 C 14.144531 27.304688 14.355469 27.398438 14.519531 27.5625 C 14.671875 27.726562 14.753906 27.9375 14.753906 28.160156 C 14.753906 28.382812 14.671875 28.605469 14.519531 28.757812 C 14.355469 28.921875 14.144531 29.015625 13.921875 29.015625 L 13.898438 29.015625 C 13.863281 29.015625 13.828125 29.027344 13.792969 29.050781 C 13.769531 29.085938 13.757812 29.121094 13.757812 29.15625 L 13.757812 31.722656 C 13.757812 31.78125 13.792969 31.828125 13.851562 31.851562 C 13.898438 31.863281 13.957031 31.851562 14.003906 31.816406 L 15.808594 30 C 15.867188 29.953125 15.867188 29.859375 15.808594 29.800781 L 15.796875 29.789062 C 15.46875 29.460938 15.480469 28.921875 15.808594 28.59375 C 16.136719 28.265625 16.675781 28.253906 17.003906 28.582031 L 17.015625 28.59375 C 17.039062 28.628906 17.074219 28.640625 17.121094 28.640625 C 17.15625 28.640625 17.191406 28.628906 17.214844 28.59375 C 17.542969 28.265625 18.082031 28.253906 18.410156 28.582031 L 18.433594 28.617188 C 18.761719 28.945312 18.761719 29.460938 18.421875 29.800781 C 18.398438 29.835938 18.375 29.871094 18.375 29.90625 C 18.375 29.941406 18.398438 29.976562 18.421875 30 L 18.433594 30.023438 C 18.761719 30.339844 18.761719 30.867188 18.421875 31.207031 C 18.269531 31.371094 18.058594 31.464844 17.835938 31.464844 C 17.613281 31.464844 17.390625 31.371094 17.238281 31.21875 L 17.214844 31.207031 C 17.191406 31.183594 17.15625 31.160156 17.109375 31.160156 C 17.074219 31.160156 17.039062 31.183594 17.015625 31.207031 L 15.199219 33.023438 C 15.164062 33.058594 15.152344 33.117188 15.175781 33.175781 C 15.199219 33.222656 15.246094 33.257812 15.304688 33.257812 L 17.871094 33.257812 C 17.941406 33.257812 18.011719 33.199219 18.011719 33.117188 L 18.011719 33.09375 C 18.011719 32.636719 18.386719 32.273438 18.855469 32.273438 C 19.335938 32.273438 19.710938 32.636719 19.710938 33.09375 L 19.710938 33.117188 C 19.710938 33.199219 19.78125 33.257812 19.851562 33.257812 C 20.074219 33.257812 20.285156 33.339844 20.449219 33.492188 C 20.613281 33.65625 20.707031 33.867188 20.707031 34.089844 L 20.707031 34.136719 C 20.707031 34.359375 20.613281 34.570312 20.449219 34.734375 C 20.285156 34.886719 20.074219 34.96875 19.851562 34.96875 C 19.769531 34.96875 19.710938 35.027344 19.710938 35.109375 L 19.710938 35.132812 C 19.710938 35.355469 19.617188 35.566406 19.453125 35.71875 C 19.289062 35.871094 19.078125 35.953125 18.855469 35.953125 C 18.632812 35.953125 18.421875 35.871094 18.257812 35.71875 C 18.105469 35.566406 18.011719 35.355469 18.011719 35.132812 L 18.011719 35.109375 C 18.011719 35.027344 17.953125 34.96875 17.871094 34.96875 L 15.304688 34.96875 C 15.246094 34.96875 15.199219 35.003906 15.175781 35.050781 C 15.152344 35.109375 15.164062 35.167969 15.199219 35.203125 L 17.015625 37.019531 C 17.074219 37.078125 17.15625 37.078125 17.214844 37.019531 L 17.238281 37.007812 C 17.390625 36.84375 17.613281 36.761719 17.835938 36.761719 C 18.058594 36.761719 18.269531 36.855469 18.421875 37.019531 C 18.761719 37.359375 18.761719 37.886719 18.433594 38.203125 L 18.421875 38.226562 C 18.398438 38.25 18.375 38.285156 18.375 38.320312 C 18.375 38.355469 18.398438 38.402344 18.421875 38.425781 C 18.761719 38.753906 18.761719 39.28125 18.433594 39.609375 L 18.410156 39.644531 C 18.246094 39.796875 18.035156 39.890625 17.8125 39.878906 C 17.578125 39.878906 17.367188 39.785156 17.214844 39.621094 L 17.214844 39.632812 C 17.191406 39.597656 17.15625 39.585938 17.121094 39.585938 C 17.085938 39.585938 17.039062 39.597656 17.015625 39.621094 L 17.003906 39.644531 C 16.839844 39.796875 16.628906 39.890625 16.40625 39.878906 C 16.171875 39.878906 15.960938 39.785156 15.808594 39.621094 C 15.644531 39.46875 15.5625 39.257812 15.5625 39.035156 C 15.550781 38.8125 15.644531 38.589844 15.796875 38.4375 L 15.808594 38.425781 C 15.867188 38.367188 15.867188 38.273438 15.808594 38.226562 L 14.003906 36.410156 C 13.957031 36.363281 13.898438 36.351562 13.851562 36.375 C 13.804688 36.398438 13.757812 36.445312 13.757812 36.503906 L 13.757812 39.070312 C 13.757812 39.152344 13.816406 39.210938 13.898438 39.210938 L 13.921875 39.210938 C 14.144531 39.210938 14.355469 39.304688 14.519531 39.46875 C 14.671875 39.621094 14.753906 39.84375 14.753906 40.066406 C 14.753906 40.289062 14.671875 40.511719 14.519531 40.664062 C 14.367188 40.828125 14.144531 40.921875 13.921875 40.921875 L 13.898438 40.921875 C 13.863281 40.921875 13.828125 40.933594 13.792969 40.957031 C 13.769531 40.992188 13.757812 41.027344 13.757812 41.0625 C 13.757812 41.285156 13.675781 41.496094 13.523438 41.660156 C 13.359375 41.8125 13.148438 41.90625 12.925781 41.90625 L 12.878906 41.90625 C 12.65625 41.90625 12.445312 41.8125 12.292969 41.660156 C 12.140625 41.496094 12.058594 41.285156 12.058594 41.0625 C 12.058594 40.980469 12 40.921875 11.917969 40.921875 L 11.894531 40.921875 C 11.671875 40.921875 11.460938 40.828125 11.296875 40.664062 C 11.144531 40.511719 11.0625 40.289062 11.0625 40.066406 C 11.0625 39.84375 11.144531 39.621094 11.296875 39.46875 C 11.460938 39.304688 11.671875 39.210938 11.894531 39.210938 L 11.917969 39.210938 C 11.988281 39.210938 12.058594 39.152344 12.058594 39.070312 L 12.058594 36.503906 C 12.058594 36.445312 12.023438 36.398438 11.964844 36.375 C 11.917969 36.351562 11.859375 36.363281 11.8125 36.410156 L 9.996094 38.226562 C 9.949219 38.273438 9.949219 38.367188 9.996094 38.425781 L 10.019531 38.4375 C 10.347656 38.765625 10.335938 39.292969 9.996094 39.621094 C 9.84375 39.785156 9.632812 39.878906 9.410156 39.878906 C 9.1875 39.890625 8.976562 39.796875 8.8125 39.644531 L 8.800781 39.621094 C 8.765625 39.597656 8.730469 39.585938 8.695312 39.585938 C 8.660156 39.585938 8.625 39.597656 8.601562 39.621094 C 8.449219 39.785156 8.238281 39.878906 8.003906 39.890625 C 7.78125 39.890625 7.570312 39.808594 7.40625 39.644531 L 7.382812 39.609375 C 7.230469 39.457031 7.136719 39.234375 7.136719 39.011719 C 7.136719 38.789062 7.230469 38.578125 7.394531 38.425781 C 7.417969 38.390625 7.429688 38.355469 7.429688 38.320312 C 7.429688 38.285156 7.417969 38.25 7.394531 38.226562 L 7.382812 38.203125 C 7.230469 38.050781 7.136719 37.828125 7.136719 37.605469 C 7.136719 37.382812 7.230469 37.171875 7.394531 37.019531 C 7.546875 36.855469 7.757812 36.761719 7.980469 36.761719 C 8.203125 36.761719 8.425781 36.855469 8.578125 37.007812 L 8.601562 37.019531 C 8.648438 37.078125 8.742188 37.078125 8.800781 37.019531 L 10.605469 35.203125 C 10.652344 35.167969 10.664062 35.109375 10.640625 35.050781 C 10.617188 35.003906 10.570312 34.96875 10.511719 34.96875 L 7.945312 34.96875 C 7.910156 34.96875 7.875 34.980469 7.839844 35.003906 C 7.816406 35.039062 7.804688 35.074219 7.804688 35.109375 L 7.804688 35.132812 C 7.804688 35.355469 7.710938 35.566406 7.546875 35.71875 C 7.382812 35.871094 7.171875 35.964844 6.949219 35.953125 C 6.726562 35.953125 6.515625 35.871094 6.363281 35.71875 C 6.199219 35.566406 6.105469 35.355469 6.105469 35.132812 L 6.105469 35.109375 C 6.105469 35.074219 6.09375 35.039062 6.070312 35.003906 C 6.035156 34.980469 6 34.96875 5.964844 34.96875 C 5.742188 34.96875 5.519531 34.886719 5.367188 34.734375 C 5.203125 34.570312 5.109375 34.359375 5.109375 34.136719 L 5.109375 34.089844 C 5.109375 33.867188 5.203125 33.65625 5.367188 33.492188 C 5.519531 33.339844 5.742188 33.257812 5.964844 33.257812 C 6.035156 33.257812 6.105469 33.199219 6.105469 33.117188 L 6.105469 33.09375 C 6.105469 32.636719 6.480469 32.273438 6.949219 32.273438 C 7.429688 32.273438 7.804688 32.636719 7.804688 33.09375 L 7.804688 33.117188 C 7.804688 33.199219 7.863281 33.257812 7.945312 33.257812 L 10.511719 33.257812 C 10.570312 33.257812 10.617188 33.222656 10.640625 33.175781 C 10.664062 33.117188 10.652344 33.058594 10.605469 33.023438 L 8.800781 31.207031 C 8.742188 31.148438 8.648438 31.148438 8.601562 31.207031 L 8.578125 31.21875 C 8.425781 31.371094 8.203125 31.464844 7.980469 31.464844 C 7.757812 31.464844 7.546875 31.371094 7.394531 31.207031 C 7.230469 31.054688 7.136719 30.84375 7.136719 30.621094 C 7.136719 30.398438 7.230469 30.175781 7.382812 30.023438 L 7.394531 30 C 7.417969 29.976562 7.429688 29.941406 7.429688 29.90625 C 7.429688 29.871094 7.417969 29.824219 7.394531 29.800781 C 7.230469 29.648438 7.136719 29.4375 7.136719 29.214844 C 7.136719 28.992188 7.21875 28.769531 7.382812 28.617188 L 7.40625 28.582031 C 7.746094 28.253906 8.273438 28.265625 8.601562 28.59375 C 8.625 28.628906 8.660156 28.640625 8.695312 28.640625 C 8.730469 28.640625 8.777344 28.628906 8.800781 28.59375 L 8.8125 28.582031 C 8.964844 28.429688 9.1875 28.335938 9.410156 28.335938 C 9.632812 28.347656 9.84375 28.429688 9.996094 28.59375 C 10.160156 28.746094 10.253906 28.957031 10.253906 29.191406 C 10.265625 29.414062 10.171875 29.625 10.019531 29.789062 L 9.996094 29.800781 C 9.949219 29.859375 9.949219 29.953125 9.996094 30 L 11.8125 31.816406 C 11.859375 31.851562 11.90625 31.863281 11.964844 31.851562 C 12.023438 31.828125 12.058594 31.78125 12.058594 31.722656 L 12.058594 29.15625 C 12.058594 29.085938 12 29.015625 11.917969 29.015625 L 11.894531 29.015625 C 11.671875 29.015625 11.460938 28.921875 11.296875 28.769531 C 11.144531 28.605469 11.0625 28.382812 11.0625 28.160156 C 11.0625 27.9375 11.144531 27.726562 11.296875 27.5625 C 11.460938 27.398438 11.671875 27.316406 11.894531 27.304688 L 11.917969 27.304688 C 11.988281 27.304688 12.058594 27.246094 12.058594 27.164062 C 12.058594 26.695312 12.421875 26.320312 12.878906 26.320312 Z M 12.878906 26.320312 "/>
<path style=" stroke:none;fill-rule:nonzero;fill:url(#radial4);" d="M 35.730469 42.046875 L 39.691406 42.046875 L 39.691406 40.066406 L 35.730469 40.066406 Z M 35.730469 42.046875 "/>
<path style=" stroke:none;fill-rule:nonzero;fill:url(#radial5);" d="M 35.730469 42.046875 L 31.757812 42.046875 L 31.757812 44.039062 L 35.730469 44.039062 Z M 35.730469 42.046875 "/>
<path style=" stroke:none;fill-rule:nonzero;fill:url(#radial6);" d="M 35.730469 42.046875 L 31.757812 42.046875 L 31.757812 40.066406 L 35.730469 40.066406 Z M 35.730469 42.046875 "/>
<path style=" stroke:none;fill-rule:nonzero;fill:url(#radial7);" d="M 35.730469 42.046875 L 39.691406 42.046875 L 39.691406 44.039062 L 35.730469 44.039062 Z M 35.730469 42.046875 "/>
<path style=" stroke:none;fill-rule:nonzero;fill:url(#linear1);" d="M 35.695312 4.59375 C 35.15625 4.59375 34.734375 5.039062 34.734375 5.589844 L 34.710938 5.589844 C 34.453125 5.589844 34.195312 5.695312 34.019531 5.882812 C 33.832031 6.058594 33.738281 6.316406 33.738281 6.574219 C 33.738281 7.125 34.171875 7.570312 34.710938 7.570312 L 34.734375 7.570312 L 34.734375 10.136719 L 32.917969 8.320312 L 32.929688 8.308594 C 33.117188 8.121094 33.222656 7.875 33.210938 7.605469 C 33.210938 7.347656 33.105469 7.101562 32.917969 6.914062 C 32.730469 6.726562 32.484375 6.621094 32.226562 6.621094 C 31.957031 6.621094 31.710938 6.714844 31.523438 6.902344 L 31.511719 6.914062 C 31.335938 6.726562 31.078125 6.621094 30.820312 6.621094 C 30.5625 6.621094 30.316406 6.714844 30.128906 6.902344 L 30.09375 6.9375 C 29.90625 7.125 29.800781 7.371094 29.8125 7.628906 C 29.8125 7.886719 29.917969 8.132812 30.105469 8.320312 L 30.09375 8.332031 C 29.90625 8.519531 29.8125 8.765625 29.8125 9.035156 C 29.8125 9.292969 29.917969 9.539062 30.105469 9.726562 C 30.292969 9.914062 30.539062 10.019531 30.796875 10.019531 C 31.066406 10.019531 31.3125 9.925781 31.5 9.738281 L 31.511719 9.726562 L 33.328125 11.542969 L 30.761719 11.542969 L 30.761719 11.519531 C 30.75 10.980469 30.304688 10.546875 29.765625 10.546875 C 29.507812 10.546875 29.25 10.640625 29.074219 10.828125 C 28.886719 11.015625 28.78125 11.261719 28.78125 11.519531 L 28.78125 11.542969 C 28.523438 11.542969 28.265625 11.636719 28.078125 11.8125 C 27.890625 12 27.785156 12.246094 27.785156 12.503906 L 27.785156 12.550781 C 27.785156 13.089844 28.230469 13.523438 28.78125 13.523438 L 28.78125 13.546875 C 28.78125 14.085938 29.214844 14.519531 29.765625 14.519531 C 30.304688 14.53125 30.75 14.085938 30.761719 13.546875 L 30.761719 13.523438 L 33.328125 13.523438 L 31.511719 15.339844 L 31.5 15.316406 C 31.101562 14.941406 30.480469 14.953125 30.105469 15.339844 C 29.917969 15.515625 29.8125 15.773438 29.8125 16.03125 C 29.800781 16.289062 29.90625 16.535156 30.09375 16.722656 L 30.105469 16.746094 C 29.917969 16.921875 29.8125 17.179688 29.8125 17.4375 C 29.800781 17.695312 29.90625 17.941406 30.09375 18.128906 L 30.128906 18.164062 C 30.515625 18.539062 31.136719 18.527344 31.511719 18.140625 L 31.523438 18.164062 C 31.921875 18.539062 32.542969 18.527344 32.917969 18.140625 C 33.105469 17.964844 33.210938 17.707031 33.210938 17.449219 C 33.222656 17.191406 33.117188 16.945312 32.929688 16.757812 L 32.917969 16.746094 L 34.734375 14.929688 L 34.734375 17.496094 L 34.710938 17.496094 C 34.453125 17.496094 34.195312 17.601562 34.019531 17.789062 C 33.832031 17.964844 33.738281 18.222656 33.738281 18.480469 C 33.738281 19.03125 34.171875 19.476562 34.710938 19.476562 L 34.734375 19.476562 C 34.734375 20.027344 35.15625 20.472656 35.695312 20.472656 L 35.742188 20.472656 C 36.28125 20.472656 36.714844 20.027344 36.714844 19.476562 L 36.738281 19.476562 C 37.277344 19.476562 37.710938 19.03125 37.710938 18.480469 C 37.710938 18.222656 37.617188 17.964844 37.429688 17.789062 C 37.242188 17.601562 36.996094 17.496094 36.738281 17.496094 L 36.714844 17.496094 L 36.714844 14.929688 L 38.53125 16.746094 L 38.507812 16.757812 C 38.132812 17.144531 38.144531 17.765625 38.53125 18.140625 C 38.90625 18.527344 39.527344 18.539062 39.914062 18.164062 L 39.9375 18.140625 C 40.3125 18.527344 40.933594 18.539062 41.320312 18.164062 L 41.355469 18.128906 C 41.730469 17.742188 41.71875 17.121094 41.332031 16.746094 L 41.355469 16.722656 C 41.730469 16.335938 41.71875 15.714844 41.332031 15.339844 C 40.957031 14.953125 40.335938 14.941406 39.949219 15.316406 L 39.9375 15.339844 L 38.121094 13.523438 L 40.6875 13.523438 L 40.6875 13.546875 C 40.6875 14.085938 41.121094 14.519531 41.671875 14.519531 C 42.210938 14.53125 42.667969 14.085938 42.667969 13.546875 L 42.667969 13.523438 C 43.207031 13.535156 43.664062 13.089844 43.664062 12.550781 L 43.664062 12.503906 C 43.664062 11.964844 43.21875 11.542969 42.667969 11.542969 L 42.667969 11.519531 C 42.667969 10.980469 42.210938 10.546875 41.671875 10.546875 C 41.414062 10.546875 41.15625 10.640625 40.980469 10.828125 C 40.792969 11.015625 40.6875 11.261719 40.6875 11.519531 L 40.6875 11.542969 L 38.121094 11.542969 L 39.9375 9.726562 L 39.949219 9.738281 C 40.136719 9.925781 40.382812 10.019531 40.640625 10.019531 C 40.898438 10.019531 41.15625 9.914062 41.332031 9.726562 C 41.71875 9.351562 41.730469 8.71875 41.355469 8.332031 L 41.332031 8.320312 C 41.71875 7.945312 41.730469 7.324219 41.355469 6.9375 L 41.320312 6.902344 C 41.132812 6.714844 40.886719 6.621094 40.628906 6.621094 C 40.371094 6.621094 40.125 6.726562 39.9375 6.914062 L 39.914062 6.902344 C 39.726562 6.714844 39.480469 6.621094 39.222656 6.621094 C 38.964844 6.621094 38.707031 6.726562 38.53125 6.914062 C 38.144531 7.300781 38.132812 7.921875 38.507812 8.308594 L 38.53125 8.320312 L 36.714844 10.136719 L 36.714844 7.570312 L 36.738281 7.570312 C 37.277344 7.570312 37.710938 7.125 37.710938 6.574219 C 37.710938 6.316406 37.617188 6.058594 37.429688 5.882812 C 37.242188 5.695312 36.996094 5.589844 36.738281 5.589844 L 36.714844 5.589844 C 36.714844 5.050781 36.28125 4.59375 35.742188 4.59375 Z M 35.695312 4.59375 "/>
<path style=" stroke:none;fill-rule:nonzero;fill:rgb(100%,100%,100%);fill-opacity:0.392;" d="M 35.695312 4.59375 C 35.15625 4.59375 34.734375 5.039062 34.734375 5.589844 L 34.710938 5.589844 C 34.429688 5.589844 34.160156 5.707031 33.972656 5.929688 C 33.796875 6.140625 33.714844 6.421875 33.75 6.703125 C 33.796875 6.210938 34.21875 5.835938 34.710938 5.835938 L 34.734375 5.835938 C 34.734375 5.285156 35.15625 4.839844 35.695312 4.839844 L 35.742188 4.839844 C 36.28125 4.839844 36.714844 5.285156 36.714844 5.835938 L 36.738281 5.835938 C 37.230469 5.835938 37.640625 6.210938 37.699219 6.703125 C 37.699219 6.65625 37.710938 6.621094 37.710938 6.574219 C 37.710938 6.316406 37.617188 6.058594 37.429688 5.882812 C 37.242188 5.695312 36.996094 5.589844 36.738281 5.589844 L 36.714844 5.589844 C 36.714844 5.050781 36.28125 4.59375 35.742188 4.59375 Z M 32.214844 6.621094 C 31.957031 6.621094 31.710938 6.726562 31.523438 6.902344 L 31.511719 6.914062 C 31.335938 6.726562 31.078125 6.621094 30.820312 6.621094 C 30.5625 6.621094 30.316406 6.714844 30.128906 6.902344 L 30.09375 6.9375 C 29.882812 7.148438 29.777344 7.441406 29.824219 7.734375 C 29.847656 7.523438 29.941406 7.335938 30.09375 7.183594 L 30.128906 7.148438 C 30.515625 6.773438 31.125 6.785156 31.511719 7.160156 L 31.523438 7.148438 C 31.792969 6.890625 32.191406 6.808594 32.542969 6.925781 C 32.894531 7.054688 33.152344 7.371094 33.199219 7.746094 C 33.234375 7.464844 33.152344 7.171875 32.964844 6.960938 C 32.777344 6.738281 32.496094 6.621094 32.214844 6.621094 Z M 39.222656 6.621094 C 38.964844 6.621094 38.71875 6.726562 38.53125 6.914062 C 38.308594 7.136719 38.203125 7.441406 38.238281 7.746094 C 38.273438 7.523438 38.378906 7.324219 38.53125 7.160156 C 38.90625 6.785156 39.527344 6.773438 39.914062 7.148438 L 39.9375 7.160156 C 40.3125 6.773438 40.933594 6.773438 41.320312 7.148438 L 41.355469 7.183594 C 41.507812 7.335938 41.601562 7.535156 41.625 7.734375 C 41.660156 7.441406 41.566406 7.148438 41.355469 6.9375 L 41.320312 6.902344 C 41.132812 6.714844 40.886719 6.621094 40.628906 6.621094 C 40.371094 6.621094 40.125 6.726562 39.9375 6.914062 L 39.914062 6.902344 C 39.726562 6.714844 39.480469 6.621094 39.222656 6.621094 Z M 33.035156 8.4375 C 33 8.472656 32.964844 8.519531 32.929688 8.554688 L 32.917969 8.566406 L 34.734375 10.382812 L 34.734375 10.136719 Z M 38.414062 8.4375 L 36.714844 10.136719 L 36.714844 10.382812 L 38.53125 8.566406 L 38.507812 8.554688 C 38.472656 8.519531 38.4375 8.484375 38.414062 8.4375 Z M 30 8.4375 C 29.847656 8.636719 29.789062 8.894531 29.824219 9.140625 C 29.847656 8.929688 29.941406 8.742188 30.09375 8.589844 L 30.105469 8.566406 C 30.070312 8.519531 30.035156 8.484375 30 8.4375 Z M 41.4375 8.4375 C 41.414062 8.484375 41.378906 8.53125 41.332031 8.566406 L 41.355469 8.589844 C 41.507812 8.742188 41.601562 8.941406 41.625 9.140625 C 41.660156 8.894531 41.589844 8.636719 41.4375 8.4375 Z M 29.765625 10.546875 C 29.507812 10.546875 29.25 10.640625 29.074219 10.828125 C 28.886719 11.015625 28.78125 11.261719 28.78125 11.519531 L 28.78125 11.542969 C 28.523438 11.542969 28.265625 11.636719 28.078125 11.8125 C 27.890625 12 27.785156 12.246094 27.785156 12.503906 L 27.785156 12.65625 C 27.84375 12.152344 28.277344 11.777344 28.78125 11.789062 L 28.78125 11.765625 C 28.78125 11.226562 29.214844 10.792969 29.765625 10.792969 C 30.316406 10.792969 30.761719 11.226562 30.761719 11.765625 L 30.761719 11.789062 L 33.328125 11.789062 L 33.082031 11.542969 L 30.761719 11.542969 L 30.761719 11.519531 C 30.75 10.980469 30.304688 10.546875 29.765625 10.546875 Z M 41.671875 10.546875 C 41.414062 10.546875 41.15625 10.640625 40.980469 10.828125 C 40.792969 11.015625 40.6875 11.261719 40.6875 11.519531 L 40.6875 11.542969 L 38.367188 11.542969 L 38.121094 11.789062 L 40.6875 11.789062 L 40.6875 11.765625 C 40.6875 11.226562 41.121094 10.792969 41.671875 10.792969 C 42.222656 10.792969 42.667969 11.226562 42.667969 11.765625 L 42.667969 11.789062 C 43.183594 11.789062 43.605469 12.164062 43.652344 12.65625 C 43.664062 12.621094 43.664062 12.585938 43.664062 12.550781 L 43.664062 12.503906 C 43.664062 11.964844 43.21875 11.542969 42.667969 11.542969 L 42.667969 11.519531 C 42.667969 10.980469 42.210938 10.546875 41.671875 10.546875 Z M 33.082031 13.769531 L 31.511719 15.339844 L 31.5 15.316406 C 31.101562 14.941406 30.480469 14.953125 30.105469 15.339844 C 29.882812 15.550781 29.777344 15.867188 29.824219 16.171875 C 29.847656 15.960938 29.941406 15.75 30.105469 15.585938 C 30.292969 15.398438 30.539062 15.292969 30.796875 15.292969 C 31.066406 15.28125 31.3125 15.386719 31.5 15.574219 L 31.511719 15.585938 L 33.328125 13.769531 Z M 38.121094 13.769531 L 39.9375 15.585938 L 39.949219 15.574219 C 40.136719 15.386719 40.382812 15.28125 40.640625 15.292969 C 40.898438 15.292969 41.15625 15.398438 41.332031 15.585938 C 41.496094 15.75 41.601562 15.960938 41.625 16.171875 C 41.660156 15.867188 41.554688 15.550781 41.332031 15.339844 C 40.957031 14.953125 40.335938 14.941406 39.949219 15.316406 L 39.9375 15.339844 L 38.367188 13.769531 Z M 30 16.863281 C 29.847656 17.0625 29.789062 17.320312 29.824219 17.578125 C 29.847656 17.355469 29.941406 17.144531 30.105469 16.992188 L 30.09375 16.96875 C 30.058594 16.933594 30.023438 16.898438 30 16.863281 Z M 41.4375 16.863281 C 41.414062 16.898438 41.390625 16.933594 41.355469 16.96875 L 41.332031 16.992188 C 41.496094 17.15625 41.601562 17.355469 41.625 17.578125 C 41.660156 17.320312 41.589844 17.0625 41.4375 16.863281 Z M 33.035156 16.875 L 32.917969 16.992188 L 32.929688 17.003906 C 33.082031 17.15625 33.175781 17.355469 33.199219 17.554688 C 33.234375 17.308594 33.175781 17.074219 33.035156 16.875 Z M 38.414062 16.875 C 38.273438 17.0625 38.203125 17.308594 38.238281 17.554688 C 38.261719 17.34375 38.355469 17.144531 38.507812 17.003906 L 38.53125 16.992188 Z M 34.710938 17.496094 C 34.429688 17.496094 34.160156 17.613281 33.972656 17.835938 C 33.796875 18.046875 33.714844 18.328125 33.75 18.609375 C 33.796875 18.117188 34.21875 17.742188 34.710938 17.742188 L 34.734375 17.742188 L 34.734375 17.496094 Z M 36.714844 17.496094 L 36.714844 17.742188 L 36.738281 17.742188 C 37.230469 17.742188 37.640625 18.117188 37.699219 18.609375 C 37.699219 18.5625 37.710938 18.527344 37.710938 18.480469 C 37.710938 18.222656 37.617188 17.964844 37.429688 17.777344 C 37.242188 17.601562 36.996094 17.496094 36.738281 17.496094 Z M 36.714844 17.496094 "/>
<path style=" stroke:none;fill-rule:nonzero;fill:rgb(0%,0%,0%);fill-opacity:0.235;" d="M 33.75 6.457031 C 33.738281 6.492188 33.738281 6.539062 33.738281 6.574219 C 33.738281 7.125 34.171875 7.570312 34.710938 7.570312 L 34.734375 7.570312 L 34.734375 7.324219 L 34.710938 7.324219 C 34.21875 7.324219 33.796875 6.949219 33.75 6.457031 Z M 37.699219 6.457031 C 37.640625 6.949219 37.230469 7.324219 36.738281 7.324219 L 36.714844 7.324219 L 36.714844 7.570312 L 36.738281 7.570312 C 37.277344 7.570312 37.710938 7.125 37.710938 6.574219 C 37.710938 6.539062 37.699219 6.492188 37.699219 6.457031 Z M 29.824219 7.488281 C 29.789062 7.734375 29.847656 7.992188 30 8.191406 C 30.023438 8.15625 30.058594 8.121094 30.09375 8.085938 L 30.105469 8.074219 C 29.953125 7.910156 29.847656 7.710938 29.824219 7.488281 Z M 41.625 7.488281 C 41.589844 7.710938 41.496094 7.921875 41.332031 8.074219 L 41.355469 8.085938 C 41.390625 8.121094 41.414062 8.15625 41.4375 8.191406 C 41.589844 7.992188 41.660156 7.734375 41.625 7.488281 Z M 33.199219 7.5 C 33.175781 7.710938 33.082031 7.910156 32.929688 8.050781 L 32.917969 8.074219 L 33.035156 8.191406 C 33.175781 7.992188 33.234375 7.746094 33.199219 7.5 Z M 38.238281 7.5 C 38.203125 7.746094 38.273438 7.992188 38.414062 8.191406 L 38.53125 8.074219 L 38.507812 8.050781 C 38.355469 7.910156 38.261719 7.710938 38.238281 7.5 Z M 29.824219 8.894531 C 29.777344 9.199219 29.882812 9.503906 30.105469 9.726562 C 30.292969 9.914062 30.539062 10.019531 30.796875 10.019531 C 31.066406 10.019531 31.3125 9.925781 31.5 9.738281 L 31.511719 9.726562 L 33.082031 11.285156 L 33.328125 11.285156 L 31.511719 9.480469 L 31.5 9.492188 C 31.230469 9.75 30.832031 9.84375 30.480469 9.714844 C 30.117188 9.585938 29.871094 9.269531 29.824219 8.894531 Z M 41.625 8.894531 C 41.589844 9.117188 41.484375 9.316406 41.332031 9.480469 C 40.957031 9.867188 40.335938 9.867188 39.949219 9.492188 L 39.9375 9.480469 L 38.121094 11.285156 L 38.367188 11.285156 L 39.9375 9.726562 L 39.949219 9.738281 C 40.136719 9.925781 40.382812 10.019531 40.640625 10.019531 C 40.898438 10.019531 41.15625 9.914062 41.332031 9.726562 C 41.554688 9.503906 41.660156 9.199219 41.625 8.894531 Z M 27.785156 12.410156 L 27.785156 12.550781 C 27.785156 13.089844 28.230469 13.523438 28.78125 13.523438 L 28.78125 13.546875 C 28.78125 14.085938 29.214844 14.519531 29.765625 14.519531 C 30.304688 14.53125 30.75 14.085938 30.761719 13.546875 L 30.761719 13.523438 L 33.082031 13.523438 L 33.328125 13.277344 L 30.761719 13.277344 L 30.761719 13.300781 C 30.761719 13.839844 30.316406 14.261719 29.765625 14.261719 C 29.507812 14.273438 29.261719 14.167969 29.074219 13.992188 C 28.886719 13.804688 28.78125 13.558594 28.78125 13.300781 L 28.78125 13.277344 C 28.277344 13.277344 27.855469 12.902344 27.785156 12.410156 Z M 43.652344 12.410156 C 43.59375 12.914062 43.171875 13.277344 42.667969 13.277344 L 42.667969 13.300781 C 42.667969 13.839844 42.222656 14.261719 41.671875 14.261719 C 41.414062 14.273438 41.167969 14.167969 40.980469 13.992188 C 40.792969 13.804688 40.6875 13.558594 40.6875 13.300781 L 40.6875 13.277344 L 38.121094 13.277344 L 38.367188 13.523438 L 40.6875 13.523438 L 40.6875 13.546875 C 40.6875 14.085938 41.121094 14.519531 41.671875 14.519531 C 42.210938 14.53125 42.667969 14.085938 42.667969 13.546875 L 42.667969 13.523438 C 43.207031 13.535156 43.664062 13.089844 43.664062 12.550781 L 43.664062 12.503906 C 43.664062 12.46875 43.664062 12.445312 43.652344 12.410156 Z M 34.734375 14.683594 L 32.917969 16.488281 L 32.929688 16.511719 C 32.964844 16.546875 33 16.582031 33.035156 16.628906 L 34.734375 14.929688 Z M 36.714844 14.683594 L 36.714844 14.929688 L 38.414062 16.628906 C 38.4375 16.582031 38.472656 16.546875 38.507812 16.511719 L 38.53125 16.488281 Z M 29.824219 15.925781 C 29.789062 16.171875 29.847656 16.417969 30 16.617188 L 30.105469 16.488281 L 30.09375 16.476562 C 29.941406 16.324219 29.847656 16.136719 29.824219 15.925781 Z M 41.625 15.925781 C 41.601562 16.136719 41.507812 16.324219 41.355469 16.476562 L 41.332031 16.488281 C 41.378906 16.535156 41.414062 16.570312 41.4375 16.617188 C 41.589844 16.417969 41.660156 16.171875 41.625 15.925781 Z M 33.199219 17.308594 C 33.152344 17.683594 32.90625 18 32.554688 18.140625 C 32.191406 18.269531 31.792969 18.175781 31.523438 17.917969 L 31.511719 17.894531 C 31.136719 18.28125 30.515625 18.292969 30.128906 17.917969 L 30.09375 17.882812 C 29.941406 17.730469 29.847656 17.53125 29.824219 17.320312 C 29.777344 17.613281 29.882812 17.917969 30.09375 18.128906 L 30.128906 18.164062 C 30.515625 18.539062 31.136719 18.527344 31.511719 18.140625 L 31.523438 18.164062 C 31.921875 18.539062 32.542969 18.527344 32.917969 18.140625 C 33.140625 17.917969 33.246094 17.613281 33.199219 17.308594 Z M 38.238281 17.308594 C 38.203125 17.613281 38.308594 17.929688 38.53125 18.140625 C 38.90625 18.527344 39.527344 18.539062 39.914062 18.164062 L 39.9375 18.140625 C 40.3125 18.527344 40.933594 18.539062 41.320312 18.164062 L 41.355469 18.128906 C 41.566406 17.917969 41.660156 17.613281 41.625 17.320312 C 41.601562 17.53125 41.507812 17.730469 41.355469 17.882812 L 41.320312 17.917969 C 40.933594 18.292969 40.3125 18.28125 39.9375 17.894531 L 39.914062 17.917969 C 39.527344 18.292969 38.90625 18.28125 38.53125 17.894531 C 38.367188 17.742188 38.273438 17.53125 38.238281 17.308594 Z M 33.75 18.363281 C 33.738281 18.398438 33.738281 18.445312 33.738281 18.480469 C 33.738281 19.03125 34.171875 19.476562 34.710938 19.476562 L 34.734375 19.476562 C 34.734375 20.027344 35.15625 20.472656 35.695312 20.472656 L 35.742188 20.472656 C 36.28125 20.472656 36.714844 20.027344 36.714844 19.476562 L 36.738281 19.476562 C 37.277344 19.476562 37.710938 19.03125 37.710938 18.480469 C 37.710938 18.445312 37.699219 18.398438 37.699219 18.363281 C 37.640625 18.855469 37.230469 19.230469 36.738281 19.230469 L 36.714844 19.230469 C 36.714844 19.488281 36.609375 19.746094 36.433594 19.921875 C 36.246094 20.109375 36 20.214844 35.742188 20.214844 L 35.695312 20.214844 C 35.4375 20.214844 35.191406 20.109375 35.003906 19.921875 C 34.828125 19.734375 34.722656 19.488281 34.734375 19.230469 L 34.710938 19.230469 C 34.21875 19.230469 33.796875 18.855469 33.75 18.363281 Z M 33.75 18.363281 "/>
<path style=" stroke:none;fill-rule:nonzero;fill:rgb(12.941177%,12.941177%,12.941177%);fill-opacity:1;" d="M 35.695312 4.453125 C 35.132812 4.464844 34.664062 4.886719 34.605469 5.449219 C 34.03125 5.507812 33.597656 6 33.597656 6.574219 C 33.597656 7.160156 34.03125 7.640625 34.59375 7.699219 L 34.59375 9.796875 L 33.117188 8.320312 L 33.035156 8.402344 C 33.246094 8.191406 33.363281 7.898438 33.351562 7.605469 C 33.351562 7.3125 33.222656 7.019531 33.011719 6.820312 C 32.613281 6.398438 31.957031 6.363281 31.511719 6.738281 C 31.066406 6.375 30.433594 6.410156 30.023438 6.796875 L 29.988281 6.832031 C 29.589844 7.242188 29.566406 7.875 29.929688 8.320312 C 29.554688 8.765625 29.589844 9.421875 30.011719 9.820312 C 30.222656 10.03125 30.503906 10.160156 30.796875 10.160156 C 31.089844 10.160156 31.382812 10.054688 31.59375 9.84375 L 31.511719 9.925781 L 32.988281 11.402344 L 30.890625 11.402344 C 30.820312 10.828125 30.339844 10.40625 29.765625 10.40625 C 29.191406 10.40625 28.699219 10.839844 28.640625 11.414062 C 28.078125 11.472656 27.65625 11.941406 27.644531 12.503906 L 27.644531 12.550781 C 27.644531 13.125 28.089844 13.582031 28.640625 13.652344 C 28.699219 14.214844 29.179688 14.660156 29.765625 14.660156 C 30.339844 14.671875 30.832031 14.238281 30.890625 13.664062 L 32.988281 13.664062 L 31.511719 15.140625 L 31.59375 15.222656 C 31.148438 14.789062 30.445312 14.800781 30.011719 15.234375 C 29.601562 15.644531 29.566406 16.300781 29.929688 16.746094 C 29.578125 17.179688 29.601562 17.8125 29.988281 18.222656 L 30.023438 18.257812 C 30.433594 18.667969 31.066406 18.679688 31.511719 18.328125 C 31.945312 18.691406 32.601562 18.65625 33.011719 18.246094 C 33.457031 17.8125 33.46875 17.097656 33.035156 16.652344 L 33.117188 16.746094 L 34.59375 15.269531 L 34.59375 17.367188 C 34.03125 17.4375 33.597656 17.90625 33.597656 18.480469 C 33.597656 19.066406 34.042969 19.546875 34.605469 19.605469 C 34.664062 20.167969 35.132812 20.613281 35.695312 20.613281 L 35.742188 20.613281 C 36.316406 20.601562 36.785156 20.167969 36.84375 19.605469 C 37.417969 19.546875 37.851562 19.054688 37.851562 18.480469 C 37.851562 17.90625 37.417969 17.4375 36.855469 17.367188 L 36.855469 15.269531 L 38.332031 16.746094 L 38.414062 16.652344 C 38.097656 16.921875 37.945312 17.34375 38.027344 17.753906 C 38.109375 18.152344 38.414062 18.492188 38.8125 18.609375 C 39.210938 18.726562 39.644531 18.621094 39.9375 18.328125 C 40.371094 18.679688 41.015625 18.667969 41.414062 18.257812 L 41.449219 18.222656 C 41.847656 17.824219 41.882812 17.179688 41.519531 16.746094 C 41.90625 16.277344 41.859375 15.585938 41.414062 15.175781 C 40.957031 14.765625 40.265625 14.789062 39.84375 15.222656 L 39.9375 15.140625 L 38.460938 13.664062 L 40.558594 13.664062 C 40.617188 14.226562 41.097656 14.660156 41.671875 14.660156 C 42.246094 14.660156 42.738281 14.226562 42.796875 13.652344 C 43.359375 13.59375 43.792969 13.125 43.804688 12.550781 L 43.804688 12.503906 C 43.792969 11.941406 43.359375 11.472656 42.796875 11.414062 C 42.738281 10.839844 42.246094 10.40625 41.671875 10.40625 C 41.097656 10.40625 40.617188 10.839844 40.558594 11.402344 L 38.460938 11.402344 L 39.9375 9.925781 L 39.84375 9.84375 C 40.289062 10.277344 40.992188 10.265625 41.4375 9.820312 C 41.847656 9.410156 41.882812 8.765625 41.519531 8.320312 C 41.882812 7.875 41.847656 7.230469 41.449219 6.832031 L 41.414062 6.796875 C 41.003906 6.410156 40.371094 6.375 39.9375 6.738281 C 39.492188 6.363281 38.835938 6.398438 38.425781 6.820312 C 37.992188 7.253906 37.980469 7.957031 38.414062 8.402344 L 38.332031 8.320312 L 36.855469 9.796875 L 36.855469 7.699219 C 37.429688 7.628906 37.851562 7.148438 37.851562 6.574219 C 37.851562 6 37.417969 5.507812 36.84375 5.449219 C 36.773438 4.886719 36.304688 4.464844 35.742188 4.453125 Z M 35.695312 4.734375 L 35.742188 4.734375 C 35.964844 4.734375 36.175781 4.828125 36.339844 4.992188 C 36.492188 5.144531 36.574219 5.367188 36.574219 5.589844 C 36.574219 5.660156 36.632812 5.730469 36.714844 5.730469 L 36.738281 5.730469 C 37.195312 5.730469 37.570312 6.117188 37.570312 6.574219 C 37.570312 6.796875 37.488281 7.019531 37.335938 7.171875 C 37.171875 7.335938 36.960938 7.429688 36.738281 7.429688 L 36.714844 7.429688 C 36.679688 7.429688 36.644531 7.441406 36.609375 7.464844 C 36.585938 7.5 36.574219 7.535156 36.574219 7.570312 L 36.574219 10.136719 C 36.574219 10.195312 36.609375 10.242188 36.65625 10.265625 C 36.714844 10.289062 36.773438 10.277344 36.808594 10.230469 L 38.625 8.425781 C 38.683594 8.367188 38.683594 8.273438 38.625 8.226562 L 38.613281 8.203125 C 38.460938 8.039062 38.367188 7.828125 38.378906 7.605469 C 38.378906 7.382812 38.460938 7.171875 38.625 7.019531 C 38.953125 6.691406 39.480469 6.679688 39.820312 6.996094 L 39.832031 7.019531 C 39.855469 7.042969 39.890625 7.054688 39.9375 7.054688 C 39.972656 7.054688 40.007812 7.042969 40.03125 7.019531 C 40.183594 6.855469 40.394531 6.761719 40.617188 6.761719 C 40.839844 6.761719 41.050781 6.84375 41.214844 6.996094 L 41.25 7.03125 C 41.402344 7.195312 41.496094 7.40625 41.496094 7.628906 C 41.496094 7.851562 41.402344 8.074219 41.238281 8.226562 C 41.214844 8.25 41.191406 8.285156 41.191406 8.320312 C 41.191406 8.355469 41.214844 8.390625 41.238281 8.425781 L 41.25 8.4375 C 41.578125 8.765625 41.578125 9.292969 41.238281 9.621094 C 40.910156 9.949219 40.382812 9.960938 40.042969 9.644531 L 40.03125 9.621094 C 39.972656 9.574219 39.890625 9.574219 39.832031 9.621094 L 38.015625 11.4375 C 37.980469 11.484375 37.96875 11.542969 37.992188 11.589844 C 38.003906 11.648438 38.0625 11.683594 38.121094 11.683594 L 40.6875 11.683594 C 40.757812 11.683594 40.828125 11.625 40.828125 11.542969 L 40.828125 11.519531 C 40.828125 11.050781 41.203125 10.6875 41.671875 10.6875 C 42.152344 10.6875 42.527344 11.050781 42.527344 11.519531 L 42.527344 11.542969 C 42.527344 11.613281 42.585938 11.683594 42.667969 11.683594 C 43.148438 11.683594 43.523438 12.046875 43.523438 12.503906 L 43.523438 12.550781 C 43.523438 12.773438 43.429688 12.984375 43.265625 13.148438 C 43.113281 13.300781 42.890625 13.382812 42.667969 13.382812 C 42.632812 13.382812 42.597656 13.394531 42.5625 13.417969 C 42.539062 13.453125 42.527344 13.488281 42.527344 13.523438 L 42.527344 13.546875 C 42.527344 13.769531 42.433594 13.980469 42.269531 14.144531 C 42.117188 14.296875 41.894531 14.378906 41.671875 14.378906 C 41.214844 14.378906 40.828125 14.015625 40.828125 13.546875 L 40.828125 13.523438 C 40.828125 13.453125 40.769531 13.382812 40.6875 13.382812 L 38.121094 13.382812 C 38.0625 13.382812 38.003906 13.417969 37.992188 13.464844 C 37.96875 13.523438 37.980469 13.582031 38.015625 13.617188 L 39.832031 15.433594 C 39.890625 15.492188 39.972656 15.492188 40.03125 15.433594 L 40.042969 15.421875 C 40.382812 15.09375 40.910156 15.105469 41.238281 15.433594 C 41.402344 15.585938 41.496094 15.808594 41.496094 16.03125 C 41.496094 16.253906 41.402344 16.464844 41.25 16.628906 L 41.238281 16.640625 C 41.203125 16.664062 41.191406 16.710938 41.191406 16.746094 C 41.191406 16.78125 41.214844 16.816406 41.238281 16.839844 C 41.578125 17.179688 41.578125 17.707031 41.25 18.023438 L 41.214844 18.058594 C 41.050781 18.210938 40.839844 18.304688 40.617188 18.304688 C 40.394531 18.292969 40.183594 18.210938 40.03125 18.046875 C 40.007812 18.023438 39.972656 18 39.9375 18 C 39.902344 18 39.855469 18.023438 39.832031 18.046875 L 39.820312 18.058594 C 39.480469 18.386719 38.953125 18.375 38.625 18.046875 C 38.296875 17.71875 38.285156 17.179688 38.613281 16.851562 L 38.625 16.839844 C 38.648438 16.816406 38.671875 16.78125 38.671875 16.734375 C 38.671875 16.699219 38.648438 16.664062 38.625 16.640625 L 36.808594 14.824219 C 36.773438 14.789062 36.714844 14.777344 36.65625 14.800781 C 36.609375 14.8125 36.574219 14.871094 36.574219 14.929688 L 36.574219 17.496094 C 36.574219 17.566406 36.632812 17.636719 36.714844 17.636719 L 36.738281 17.636719 C 37.195312 17.636719 37.570312 18.023438 37.570312 18.480469 C 37.570312 18.703125 37.488281 18.925781 37.335938 19.078125 C 37.171875 19.242188 36.960938 19.335938 36.738281 19.335938 L 36.714844 19.335938 C 36.679688 19.335938 36.644531 19.347656 36.609375 19.371094 C 36.585938 19.40625 36.574219 19.441406 36.574219 19.476562 C 36.574219 19.699219 36.492188 19.910156 36.339844 20.074219 C 36.175781 20.238281 35.964844 20.332031 35.742188 20.332031 L 35.695312 20.332031 C 35.472656 20.332031 35.261719 20.238281 35.109375 20.074219 C 34.957031 19.910156 34.863281 19.699219 34.875 19.476562 C 34.875 19.394531 34.816406 19.335938 34.734375 19.335938 L 34.710938 19.335938 C 34.488281 19.335938 34.265625 19.242188 34.113281 19.078125 C 33.960938 18.925781 33.878906 18.703125 33.878906 18.480469 C 33.878906 18.011719 34.242188 17.636719 34.710938 17.636719 L 34.734375 17.636719 C 34.804688 17.636719 34.875 17.566406 34.875 17.496094 L 34.875 14.929688 C 34.875 14.871094 34.839844 14.8125 34.78125 14.800781 C 34.734375 14.777344 34.675781 14.789062 34.628906 14.824219 L 32.8125 16.640625 C 32.765625 16.699219 32.765625 16.78125 32.8125 16.839844 L 32.835938 16.851562 C 33.152344 17.191406 33.152344 17.71875 32.8125 18.046875 C 32.660156 18.210938 32.449219 18.292969 32.226562 18.304688 C 32.003906 18.304688 31.78125 18.210938 31.628906 18.058594 L 31.617188 18.046875 C 31.582031 18.023438 31.546875 18 31.511719 18 C 31.476562 18 31.441406 18.023438 31.417969 18.046875 C 31.089844 18.375 30.550781 18.386719 30.222656 18.058594 L 30.1875 18.023438 C 30.035156 17.859375 29.953125 17.648438 29.953125 17.425781 C 29.953125 17.203125 30.046875 16.992188 30.210938 16.839844 C 30.234375 16.816406 30.246094 16.78125 30.246094 16.746094 C 30.246094 16.699219 30.234375 16.664062 30.210938 16.640625 L 30.1875 16.628906 C 29.871094 16.289062 29.871094 15.761719 30.210938 15.433594 C 30.363281 15.269531 30.574219 15.1875 30.796875 15.1875 C 31.019531 15.175781 31.242188 15.269531 31.394531 15.421875 L 31.417969 15.433594 C 31.464844 15.492188 31.558594 15.492188 31.617188 15.433594 L 33.421875 13.617188 C 33.46875 13.582031 33.480469 13.523438 33.457031 13.464844 C 33.433594 13.417969 33.386719 13.382812 33.328125 13.382812 L 30.761719 13.382812 C 30.726562 13.382812 30.691406 13.394531 30.65625 13.417969 C 30.632812 13.453125 30.621094 13.488281 30.621094 13.523438 L 30.621094 13.546875 C 30.621094 13.769531 30.527344 13.980469 30.363281 14.144531 C 30.210938 14.296875 29.988281 14.378906 29.765625 14.378906 C 29.308594 14.378906 28.933594 14.003906 28.921875 13.546875 L 28.921875 13.523438 C 28.921875 13.441406 28.863281 13.382812 28.78125 13.382812 C 28.558594 13.382812 28.347656 13.300781 28.183594 13.148438 C 28.019531 12.984375 27.925781 12.773438 27.925781 12.550781 L 27.925781 12.503906 C 27.925781 12.046875 28.300781 11.683594 28.78125 11.683594 C 28.863281 11.683594 28.921875 11.625 28.921875 11.542969 L 28.921875 11.519531 C 28.921875 11.050781 29.296875 10.6875 29.765625 10.6875 C 30.246094 10.6875 30.621094 11.050781 30.621094 11.519531 L 30.621094 11.542969 C 30.621094 11.613281 30.679688 11.683594 30.761719 11.683594 L 33.328125 11.683594 C 33.386719 11.683594 33.433594 11.648438 33.457031 11.589844 C 33.480469 11.542969 33.46875 11.484375 33.421875 11.4375 L 31.617188 9.621094 C 31.558594 9.574219 31.464844 9.574219 31.417969 9.621094 L 31.394531 9.644531 C 31.230469 9.796875 31.019531 9.878906 30.796875 9.878906 C 30.574219 9.878906 30.363281 9.785156 30.210938 9.621094 C 30.046875 9.46875 29.953125 9.257812 29.953125 9.035156 C 29.953125 8.8125 30.035156 8.601562 30.1875 8.4375 L 30.210938 8.425781 C 30.234375 8.390625 30.246094 8.355469 30.246094 8.320312 C 30.246094 8.285156 30.234375 8.25 30.210938 8.226562 C 29.871094 7.898438 29.859375 7.371094 30.1875 7.03125 L 30.222656 6.996094 C 30.5625 6.667969 31.089844 6.679688 31.417969 7.019531 C 31.441406 7.042969 31.476562 7.054688 31.511719 7.054688 C 31.546875 7.054688 31.582031 7.042969 31.617188 7.019531 L 31.628906 6.996094 C 31.792969 6.84375 32.003906 6.761719 32.226562 6.761719 C 32.449219 6.761719 32.660156 6.855469 32.8125 7.019531 C 33.152344 7.347656 33.152344 7.875 32.835938 8.203125 L 32.8125 8.226562 C 32.765625 8.273438 32.765625 8.367188 32.8125 8.425781 L 34.628906 10.230469 C 34.675781 10.277344 34.734375 10.289062 34.78125 10.265625 C 34.839844 10.242188 34.875 10.195312 34.875 10.136719 L 34.875 7.570312 C 34.875 7.488281 34.816406 7.429688 34.734375 7.429688 L 34.710938 7.429688 C 34.488281 7.429688 34.265625 7.335938 34.113281 7.171875 C 33.960938 7.019531 33.867188 6.796875 33.878906 6.574219 C 33.878906 6.105469 34.242188 5.730469 34.710938 5.730469 L 34.734375 5.730469 C 34.816406 5.730469 34.875 5.671875 34.875 5.589844 C 34.875 5.109375 35.238281 4.734375 35.695312 4.734375 Z M 35.695312 4.734375 "/>
<path style=" stroke:none;fill-rule:nonzero;fill:url(#linear2);" d="M 32.085938 36.949219 C 31.511719 39.082031 32.765625 41.25 34.886719 41.8125 C 35.90625 42.09375 36.984375 41.953125 37.898438 41.425781 C 38.8125 40.898438 39.480469 40.03125 39.75 39.011719 C 40.710938 35.414062 39.058594 30.09375 38.484375 28.394531 C 37.148438 29.578125 33.117188 33.117188 32.085938 36.949219 Z M 32.085938 36.949219 "/>
<path style=" stroke:none;fill-rule:nonzero;fill:rgb(100%,100%,100%);fill-opacity:0.392;" d="M 38.484375 28.394531 C 37.148438 29.578125 33.117188 33.117188 32.085938 36.949219 C 32.0625 37.019531 32.050781 37.089844 32.039062 37.160156 C 33.175781 33.433594 37.042969 30.023438 38.355469 28.875 C 38.917969 30.527344 40.511719 35.625 39.691406 39.210938 C 39.714844 39.140625 39.738281 39.082031 39.75 39.011719 C 40.710938 35.414062 39.058594 30.09375 38.484375 28.394531 Z M 38.484375 28.394531 "/>
<path style=" stroke:none;fill-rule:nonzero;fill:rgb(0%,0%,0%);fill-opacity:0.235;" d="M 32.121094 36.820312 L 32.085938 36.949219 C 31.511719 39.082031 32.765625 41.25 34.886719 41.8125 C 35.90625 42.09375 36.984375 41.953125 37.898438 41.425781 C 38.8125 40.898438 39.480469 40.03125 39.75 39.011719 L 39.785156 38.871094 C 39.222656 40.992188 37.042969 42.246094 34.921875 41.671875 C 32.8125 41.109375 31.558594 38.941406 32.121094 36.820312 Z M 32.121094 36.820312 "/>
<path style=" stroke:none;fill-rule:nonzero;fill:rgb(12.941177%,12.941177%,12.941177%);fill-opacity:1;" d="M 38.519531 28.253906 C 38.472656 28.253906 38.425781 28.253906 38.390625 28.289062 C 37.054688 29.472656 33 33.011719 31.945312 36.914062 C 31.359375 39.105469 32.660156 41.367188 34.851562 41.953125 C 37.042969 42.539062 39.304688 41.238281 39.890625 39.046875 C 40.875 35.378906 39.199219 30.046875 38.625 28.347656 C 38.601562 28.300781 38.566406 28.265625 38.519531 28.253906 Z M 38.414062 28.652344 C 39.023438 30.480469 40.535156 35.542969 39.621094 38.976562 C 39.070312 41.015625 36.972656 42.222656 34.921875 41.671875 C 32.882812 41.132812 31.675781 39.023438 32.226562 36.984375 C 33.199219 33.328125 36.972656 29.929688 38.414062 28.652344 Z M 38.414062 28.652344 "/>
<path style=" stroke:none;fill-rule:nonzero;fill:url(#linear3);" d="M 8.296875 15.222656 C 7.722656 17.34375 8.976562 19.511719 11.097656 20.074219 C 12.117188 20.355469 13.195312 20.214844 14.109375 19.6875 C 15.023438 19.160156 15.691406 18.292969 15.960938 17.273438 C 16.921875 13.675781 15.269531 8.355469 14.695312 6.65625 C 13.359375 7.839844 9.328125 11.378906 8.296875 15.222656 Z M 8.296875 15.222656 "/>
<path style=" stroke:none;fill-rule:nonzero;fill:rgb(100%,100%,100%);fill-opacity:0.392;" d="M 14.695312 6.65625 C 13.359375 7.839844 9.328125 11.378906 8.296875 15.222656 C 8.273438 15.28125 8.261719 15.351562 8.25 15.421875 C 9.386719 11.695312 13.253906 8.296875 14.566406 7.136719 C 15.128906 8.789062 16.722656 13.898438 15.902344 17.484375 C 15.925781 17.414062 15.949219 17.34375 15.960938 17.273438 C 16.921875 13.675781 15.269531 8.355469 14.695312 6.65625 Z M 14.695312 6.65625 "/>
<path style=" stroke:none;fill-rule:nonzero;fill:rgb(0%,0%,0%);fill-opacity:0.235;" d="M 8.332031 15.082031 L 8.296875 15.222656 C 7.722656 17.34375 8.976562 19.511719 11.097656 20.074219 C 12.117188 20.355469 13.195312 20.214844 14.109375 19.6875 C 15.023438 19.160156 15.691406 18.292969 15.960938 17.273438 L 15.996094 17.144531 C 15.363281 19.183594 13.230469 20.355469 11.167969 19.804688 C 9.105469 19.242188 7.851562 17.15625 8.332031 15.082031 Z M 8.332031 15.082031 "/>
<path style=" stroke:none;fill-rule:nonzero;fill:rgb(12.941177%,12.941177%,12.941177%);fill-opacity:1;" d="M 14.730469 6.527344 C 14.683594 6.515625 14.636719 6.527344 14.601562 6.550781 C 13.265625 7.734375 9.210938 11.285156 8.15625 15.1875 C 7.570312 17.378906 8.871094 19.628906 11.0625 20.214844 C 12.117188 20.496094 13.242188 20.355469 14.191406 19.804688 C 15.128906 19.265625 15.820312 18.363281 16.101562 17.308594 C 17.085938 13.640625 15.410156 8.320312 14.835938 6.621094 C 14.8125 6.574219 14.777344 6.539062 14.730469 6.527344 Z M 14.625 6.914062 C 15.234375 8.753906 16.746094 13.816406 15.832031 17.238281 C 15.574219 18.222656 14.929688 19.054688 14.050781 19.570312 C 13.171875 20.074219 12.128906 20.214844 11.144531 19.945312 C 10.160156 19.6875 9.328125 19.042969 8.8125 18.164062 C 8.308594 17.285156 8.167969 16.242188 8.4375 15.257812 C 9.410156 11.601562 13.183594 8.191406 14.625 6.914062 Z M 14.625 6.914062 "/>
</g>
</svg>
