<?xml version="1.0" encoding="UTF-8"?>
<svg xmlns="http://www.w3.org/2000/svg" xmlns:xlink="http://www.w3.org/1999/xlink" width="256pt" height="256pt" viewBox="0 0 256 256" version="1.1">
<defs>
<linearGradient id="linear0" gradientUnits="userSpaceOnUse" x1="254" y1="233.500015" x2="254" y2="254.666672" gradientTransform="matrix(0.500048,0,0,0.500048,2.646066,107.510266)">
<stop offset="0" style="stop-color:rgb(0%,0%,0%);stop-opacity:0.27451;"/>
<stop offset="1" style="stop-color:rgb(0%,0%,0%);stop-opacity:0;"/>
</linearGradient>
<radialGradient id="radial0" gradientUnits="userSpaceOnUse" cx="450.908936" cy="189.579361" fx="450.908936" fy="189.579361" r="21.166656" gradientTransform="matrix(0.00000139336,-0.62506,-1.125108,-0.000000812309,366.769549,508.762691)">
<stop offset="0" style="stop-color:rgb(0%,0%,0%);stop-opacity:0.313725;"/>
<stop offset="0.222222" style="stop-color:rgb(0%,0%,0%);stop-opacity:0.27451;"/>
<stop offset="1" style="stop-color:rgb(0%,0%,0%);stop-opacity:0;"/>
</radialGradient>
<radialGradient id="radial1" gradientUnits="userSpaceOnUse" cx="450.908936" cy="189.579361" fx="450.908936" fy="189.579361" r="21.166656" gradientTransform="matrix(-0.00000139336,0.62506,1.125108,0.000000812309,-70.407907,-60.219823)">
<stop offset="0" style="stop-color:rgb(0%,0%,0%);stop-opacity:0.313725;"/>
<stop offset="0.222222" style="stop-color:rgb(0%,0%,0%);stop-opacity:0.27451;"/>
<stop offset="1" style="stop-color:rgb(0%,0%,0%);stop-opacity:0;"/>
</radialGradient>
<radialGradient id="radial2" gradientUnits="userSpaceOnUse" cx="450.908936" cy="189.579361" fx="450.908936" fy="189.579361" r="21.166656" gradientTransform="matrix(-0.00000139336,-0.62506,1.125108,-0.000000812309,-70.407907,508.762691)">
<stop offset="0" style="stop-color:rgb(0%,0%,0%);stop-opacity:0.313725;"/>
<stop offset="0.222222" style="stop-color:rgb(0%,0%,0%);stop-opacity:0.27451;"/>
<stop offset="1" style="stop-color:rgb(0%,0%,0%);stop-opacity:0;"/>
</radialGradient>
<radialGradient id="radial3" gradientUnits="userSpaceOnUse" cx="450.908936" cy="189.579361" fx="450.908936" fy="189.579361" r="21.166656" gradientTransform="matrix(0.00000139336,0.62506,-1.125108,0.000000812309,366.769534,-60.21985)">
<stop offset="0" style="stop-color:rgb(0%,0%,0%);stop-opacity:0.313725;"/>
<stop offset="0.222222" style="stop-color:rgb(0%,0%,0%);stop-opacity:0.27451;"/>
<stop offset="1" style="stop-color:rgb(0%,0%,0%);stop-opacity:0;"/>
</radialGradient>
<linearGradient id="linear1" gradientUnits="userSpaceOnUse" x1="1040" y1="1695.118164" x2="1040" y2="175.118134" gradientTransform="matrix(0.132304,0,0,0.132304,10.584349,0)">
<stop offset="0" style="stop-color:rgb(100%,43.921569%,26.27451%);stop-opacity:1;"/>
<stop offset="1" style="stop-color:rgb(100%,54.117647%,39.607843%);stop-opacity:1;"/>
</linearGradient>
<linearGradient id="linear2" gradientUnits="userSpaceOnUse" x1="275.166656" y1="-9.916667" x2="275.166656" y2="180.583328" gradientTransform="matrix(1,0,0,1,21.166677,0)">
<stop offset="0" style="stop-color:rgb(74.117647%,74.117647%,74.117647%);stop-opacity:1;"/>
<stop offset="1" style="stop-color:rgb(93.333333%,93.333333%,93.333333%);stop-opacity:1;"/>
</linearGradient>
<linearGradient id="linear3" gradientUnits="userSpaceOnUse" x1="275.166656" y1="-9.916667" x2="275.166656" y2="180.583344" gradientTransform="matrix(0.277804,0,0,0.277804,71.738326,126.47503)">
<stop offset="0" style="stop-color:rgb(25.882353%,64.705882%,96.078431%);stop-opacity:1;"/>
<stop offset="1" style="stop-color:rgb(12.941176%,58.823529%,95.294118%);stop-opacity:1;"/>
</linearGradient>
</defs>
<g id="surface1">
<path style=" stroke:none;fill-rule:nonzero;fill:url(#linear0);" d="M 140.242188 220.300781 L 156.117188 220.300781 L 156.117188 234.855469 L 140.242188 234.855469 Z M 140.242188 220.300781 "/>
<path style=" stroke:none;fill-rule:nonzero;fill:url(#radial0);" d="M 156.117188 224.269531 L 177.289062 224.269531 L 177.289062 213.6875 L 156.117188 213.6875 Z M 156.117188 224.269531 "/>
<path style=" stroke:none;fill-rule:nonzero;fill:url(#radial1);" d="M 140.242188 224.269531 L 119.074219 224.269531 L 119.074219 234.855469 L 140.242188 234.855469 Z M 140.242188 224.269531 "/>
<path style=" stroke:none;fill-rule:nonzero;fill:url(#radial2);" d="M 140.242188 224.269531 L 119.074219 224.269531 L 119.074219 213.6875 L 140.242188 213.6875 Z M 140.242188 224.269531 "/>
<path style=" stroke:none;fill-rule:nonzero;fill:url(#radial3);" d="M 156.117188 224.269531 L 177.289062 224.269531 L 177.289062 234.855469 L 156.117188 234.855469 Z M 156.117188 224.269531 "/>
<path style=" stroke:none;fill-rule:nonzero;fill:url(#linear1);" d="M 140.898438 23.871094 C 137.902344 23.882812 134.898438 24.769531 132.273438 26.609375 L 131.527344 27.132812 C 124.53125 32.03125 122.957031 41.777344 128.003906 48.980469 L 146.984375 76.089844 L 47.628906 76.089844 C 38.832031 76.089844 31.753906 82.96875 31.753906 91.511719 L 31.753906 92.421875 C 31.753906 100.964844 38.832031 107.84375 47.628906 107.84375 L 87.300781 107.84375 C 87.210938 107.972656 87.121094 108.101562 87.03125 108.230469 L 35.410156 169.753906 C 29.753906 176.488281 30.472656 186.335938 37.015625 191.828125 L 37.714844 192.414062 C 44.257812 197.902344 54.078125 196.902344 59.734375 190.164062 L 76.726562 169.910156 C 85.320312 201.320312 113.972656 224.269531 148.179688 224.269531 C 189.226562 224.269531 222.269531 191.226562 222.269531 150.179688 C 222.269531 130.183594 214.332031 117.105469 201.640625 98.785156 L 154.011719 30.769531 C 150.859375 26.265625 145.890625 23.851562 140.898438 23.871094 Z M 140.898438 23.871094 "/>
<path style="fill-rule:nonzero;fill:url(#linear2);stroke-width:3;stroke-linecap:square;stroke-linejoin:round;stroke:rgb(12.941177%,12.941177%,12.941177%);stroke-opacity:1;stroke-miterlimit:4;" d="M 296.331077 -9.918022 C 348.935428 -9.918022 391.579793 32.726343 391.579793 85.330695 C 391.579793 137.935046 348.935428 180.587223 296.331077 180.587223 C 243.726725 180.587223 201.08236 137.935046 201.08236 85.330695 C 201.08236 32.726343 243.726725 -9.918022 296.331077 -9.918022 Z M 296.331077 -9.918022 " transform="matrix(0.500048,0,0,0.500048,0,107.510266)"/>
<path style=" stroke:none;fill-rule:nonzero;fill:url(#linear3);" d="M 148.179688 123.71875 C 162.792969 123.71875 174.640625 135.566406 174.640625 150.179688 C 174.640625 164.796875 162.792969 176.640625 148.179688 176.640625 C 133.566406 176.640625 121.71875 164.796875 121.71875 150.179688 C 121.71875 135.566406 133.566406 123.71875 148.179688 123.71875 Z M 148.179688 123.71875 "/>
<path style=" stroke:none;fill-rule:nonzero;fill:rgb(100%,100%,100%);fill-opacity:0.392157;" d="M 140.898438 23.871094 C 137.902344 23.882812 134.898438 24.769531 132.273438 26.609375 L 131.527344 27.132812 C 126.824219 30.425781 124.570312 35.910156 125.132812 41.34375 C 125.578125 37.058594 127.769531 33.03125 131.527344 30.398438 L 132.273438 29.875 C 134.898438 28.035156 137.902344 27.148438 140.898438 27.136719 C 145.890625 27.117188 150.859375 29.53125 154.011719 34.035156 L 201.640625 102.050781 C 213.984375 119.871094 221.832031 132.734375 222.253906 151.824219 C 222.265625 151.277344 222.269531 150.730469 222.269531 150.179688 C 222.269531 130.183594 214.332031 117.105469 201.640625 98.785156 L 154.011719 30.769531 C 150.859375 26.265625 145.890625 23.851562 140.898438 23.871094 Z M 47.628906 76.089844 C 38.832031 76.089844 31.753906 82.96875 31.753906 91.511719 L 31.753906 92.421875 C 31.753906 92.820312 31.769531 93.210938 31.796875 93.601562 C 32.414062 85.609375 39.242188 79.355469 47.628906 79.355469 L 146.984375 79.355469 L 144.699219 76.089844 Z M 84.617188 111.109375 L 35.410156 169.753906 C 32.464844 173.257812 31.25 177.609375 31.683594 181.746094 C 32.003906 178.660156 33.234375 175.609375 35.410156 173.019531 L 87.03125 111.496094 C 87.121094 111.367188 87.210938 111.238281 87.300781 111.109375 Z M 84.617188 111.109375 "/>
<path style=" stroke:none;fill-rule:nonzero;fill:rgb(0%,0%,0%);fill-opacity:0.235294;" d="M 125.097656 38.445312 C 124.8125 42.023438 125.746094 45.757812 128.003906 48.980469 L 145.210938 73.558594 L 146.984375 73.558594 L 128.003906 46.453125 C 126.273438 43.980469 125.320312 41.214844 125.097656 38.445312 Z M 31.773438 90.703125 C 31.761719 90.96875 31.753906 91.238281 31.753906 91.511719 L 31.753906 92.421875 C 31.753906 100.964844 38.832031 107.84375 47.628906 107.84375 L 85.234375 107.84375 L 87.03125 105.699219 C 87.121094 105.570312 87.210938 105.441406 87.300781 105.3125 L 47.628906 105.3125 C 39.113281 105.3125 32.207031 98.867188 31.773438 90.703125 Z M 222.257812 148.925781 C 221.585938 189.378906 188.800781 221.742188 148.179688 221.742188 C 113.972656 221.742188 85.320312 198.789062 76.726562 167.378906 L 59.734375 187.632812 C 54.078125 194.371094 44.257812 195.375 37.714844 189.882812 L 37.015625 189.296875 C 33.777344 186.578125 31.96875 182.796875 31.648438 178.851562 C 31.261719 183.667969 33.089844 188.53125 37.015625 191.828125 L 37.714844 192.414062 C 44.257812 197.902344 54.078125 196.902344 59.734375 190.164062 L 76.726562 169.910156 C 85.320312 201.320312 113.972656 224.269531 148.179688 224.269531 C 189.226562 224.269531 222.269531 191.226562 222.269531 150.179688 C 222.269531 149.757812 222.265625 149.339844 222.257812 148.925781 Z M 222.257812 148.925781 "/>
<path style=" stroke:none;fill-rule:nonzero;fill:rgb(12.941177%,12.941177%,12.941177%);fill-opacity:1;" d="M 140.894531 23.121094 C 137.753906 23.132812 134.59375 24.066406 131.84375 25.996094 L 131.097656 26.515625 C 123.757812 31.65625 122.117188 41.886719 127.386719 49.410156 L 145.542969 75.339844 L 47.628906 75.339844 C 38.441406 75.339844 31.003906 82.554688 31.003906 91.511719 L 31.003906 92.421875 C 31.003906 101.378906 38.441406 108.59375 47.628906 108.59375 L 85.746094 108.59375 L 34.835938 169.269531 C 28.929688 176.308594 29.671875 186.644531 36.535156 192.402344 L 37.230469 192.988281 C 44.09375 198.746094 54.402344 197.683594 60.308594 190.644531 L 76.425781 171.433594 C 85.550781 202.46875 114.128906 225.023438 148.179688 225.023438 C 189.628906 225.023438 223.019531 191.628906 223.019531 150.179688 C 223.019531 129.988281 214.960938 116.695312 202.257812 98.359375 L 154.628906 30.339844 C 151.332031 25.636719 146.132812 23.101562 140.894531 23.121094 Z M 140.902344 24.621094 C 145.648438 24.605469 150.386719 26.894531 153.398438 31.199219 L 201.023438 99.21875 C 213.707031 117.515625 221.519531 130.386719 221.519531 150.179688 C 221.519531 190.824219 188.824219 223.519531 148.179688 223.519531 C 114.308594 223.519531 85.957031 200.800781 77.449219 169.710938 C 77.375 169.445312 77.160156 169.238281 76.886719 169.179688 C 76.613281 169.117188 76.332031 169.214844 76.152344 169.429688 L 59.15625 189.679688 C 53.753906 196.117188 44.425781 197.0625 38.195312 191.835938 L 37.5 191.253906 C 31.273438 186.027344 30.582031 176.671875 35.984375 170.234375 L 87.605469 108.710938 C 87.621094 108.691406 87.636719 108.671875 87.652344 108.652344 C 87.734375 108.527344 87.824219 108.402344 87.917969 108.273438 C 88.078125 108.042969 88.09375 107.742188 87.964844 107.496094 C 87.835938 107.25 87.578125 107.09375 87.300781 107.09375 L 47.628906 107.09375 C 39.226562 107.09375 32.503906 100.550781 32.503906 92.421875 L 32.503906 91.511719 C 32.503906 83.382812 39.226562 76.839844 47.628906 76.839844 L 146.984375 76.839844 C 147.265625 76.839844 147.519531 76.683594 147.648438 76.4375 C 147.777344 76.1875 147.757812 75.890625 147.597656 75.660156 L 128.617188 48.550781 C 123.796875 41.667969 125.300781 32.410156 131.957031 27.746094 L 132.703125 27.222656 C 135.199219 25.476562 138.050781 24.632812 140.902344 24.621094 Z M 140.902344 24.621094 "/>
<path style=" stroke:none;fill-rule:nonzero;fill:rgb(100%,100%,100%);fill-opacity:0.392157;" d="M 148.179688 123.71875 C 133.523438 123.71875 121.71875 135.523438 121.71875 150.179688 C 121.71875 150.625 121.730469 151.066406 121.753906 151.503906 C 122.4375 137.464844 133.964844 126.367188 148.179688 126.367188 C 162.394531 126.367188 173.921875 137.464844 174.609375 151.503906 C 174.628906 151.066406 174.640625 150.625 174.640625 150.179688 C 174.640625 135.523438 162.839844 123.71875 148.179688 123.71875 Z M 148.179688 123.71875 "/>
<path style=" stroke:none;fill-rule:nonzero;fill:rgb(0%,0%,0%);fill-opacity:0.235294;" d="M 148.179688 176.640625 C 133.523438 176.640625 121.71875 164.839844 121.71875 150.179688 C 121.71875 149.738281 121.730469 149.296875 121.753906 148.859375 C 122.4375 162.898438 133.964844 173.996094 148.179688 173.996094 C 162.394531 173.996094 173.921875 162.898438 174.609375 148.859375 C 174.628906 149.296875 174.640625 149.738281 174.640625 150.179688 C 174.640625 164.839844 162.839844 176.640625 148.179688 176.640625 Z M 148.179688 176.640625 "/>
<path style=" stroke:none;fill-rule:nonzero;fill:rgb(12.941177%,12.941177%,12.941177%);fill-opacity:1;" d="M 148.179688 122.96875 C 133.121094 122.96875 120.96875 135.121094 120.96875 150.179688 C 120.96875 165.242188 133.121094 177.390625 148.179688 177.390625 C 163.242188 177.390625 175.390625 165.242188 175.390625 150.179688 C 175.390625 135.121094 163.242188 122.96875 148.179688 122.96875 Z M 148.179688 124.46875 C 162.4375 124.46875 173.890625 135.925781 173.890625 150.179688 C 173.890625 164.4375 162.4375 175.890625 148.179688 175.890625 C 133.925781 175.890625 122.46875 164.4375 122.46875 150.179688 C 122.46875 135.925781 133.925781 124.46875 148.179688 124.46875 Z M 148.179688 124.46875 "/>
</g>
</svg>
