<?xml version="1.0" encoding="UTF-8"?>
<svg xmlns="http://www.w3.org/2000/svg" xmlns:xlink="http://www.w3.org/1999/xlink" width="256pt" height="256pt" viewBox="0 0 256 256" version="1.1">
<defs>
<radialGradient id="radial0" gradientUnits="userSpaceOnUse" cx="450.908936" cy="189.579361" fx="450.908936" fy="189.579361" r="21.166656" gradientTransform="matrix(0.00000139336,-0.62506,-1.125108,-0.000000812309,356.185215,508.762635)">
<stop offset="0" style="stop-color:rgb(0%,0%,0%);stop-opacity:0.313725;"/>
<stop offset="0.222222" style="stop-color:rgb(0%,0%,0%);stop-opacity:0.27451;"/>
<stop offset="1" style="stop-color:rgb(0%,0%,0%);stop-opacity:0;"/>
</radialGradient>
<radialGradient id="radial1" gradientUnits="userSpaceOnUse" cx="450.908936" cy="189.579361" fx="450.908936" fy="189.579361" r="21.166656" gradientTransform="matrix(-0.00000139336,0.62506,1.125108,0.000000812309,-102.160949,-60.219856)">
<stop offset="0" style="stop-color:rgb(0%,0%,0%);stop-opacity:0.313725;"/>
<stop offset="0.222222" style="stop-color:rgb(0%,0%,0%);stop-opacity:0.27451;"/>
<stop offset="1" style="stop-color:rgb(0%,0%,0%);stop-opacity:0;"/>
</radialGradient>
<radialGradient id="radial2" gradientUnits="userSpaceOnUse" cx="450.908936" cy="189.579361" fx="450.908936" fy="189.579361" r="21.166656" gradientTransform="matrix(-0.00000139336,-0.62506,1.125108,-0.000000812309,-102.160949,508.762635)">
<stop offset="0" style="stop-color:rgb(0%,0%,0%);stop-opacity:0.313725;"/>
<stop offset="0.222222" style="stop-color:rgb(0%,0%,0%);stop-opacity:0.27451;"/>
<stop offset="1" style="stop-color:rgb(0%,0%,0%);stop-opacity:0;"/>
</radialGradient>
<radialGradient id="radial3" gradientUnits="userSpaceOnUse" cx="450.908936" cy="189.579361" fx="450.908936" fy="189.579361" r="21.166656" gradientTransform="matrix(0.00000139336,0.62506,-1.125108,0.000000812309,356.1852,-60.21986)">
<stop offset="0" style="stop-color:rgb(0%,0%,0%);stop-opacity:0.313725;"/>
<stop offset="0.222222" style="stop-color:rgb(0%,0%,0%);stop-opacity:0.27451;"/>
<stop offset="1" style="stop-color:rgb(0%,0%,0%);stop-opacity:0;"/>
</radialGradient>
<linearGradient id="linear0" gradientUnits="userSpaceOnUse" x1="255.323059" y1="233.5" x2="255.323044" y2="254.666656" gradientTransform="matrix(0.10688,0,0,0.500048,99.723089,107.510269)">
<stop offset="0" style="stop-color:rgb(0%,0%,0%);stop-opacity:0.27451;"/>
<stop offset="1" style="stop-color:rgb(0%,0%,0%);stop-opacity:0;"/>
</linearGradient>
<linearGradient id="linear1" gradientUnits="userSpaceOnUse" x1="254" y1="-168.666672" x2="254" y2="233.5" >
<stop offset="0" style="stop-color:rgb(93.333333%,93.333333%,93.333333%);stop-opacity:1;"/>
<stop offset="1" style="stop-color:rgb(87.843137%,87.843137%,87.843137%);stop-opacity:1;"/>
</linearGradient>
<linearGradient id="linear2" gradientUnits="userSpaceOnUse" x1="960" y1="1695.118164" x2="960" y2="175.118118" >
<stop offset="0" style="stop-color:rgb(92.54902%,25.098039%,47.843137%);stop-opacity:1;"/>
<stop offset="1" style="stop-color:rgb(94.117647%,38.431373%,57.254902%);stop-opacity:1;"/>
</linearGradient>
<linearGradient id="linear3" gradientUnits="userSpaceOnUse" x1="275.166656" y1="127.666656" x2="275.166656" y2="-62.833332" gradientTransform="matrix(0.500048,0,0,0.500048,0,107.510266)">
<stop offset="0" style="stop-color:rgb(87.843137%,87.843137%,87.843137%);stop-opacity:1;"/>
<stop offset="1" style="stop-color:rgb(93.333333%,93.333333%,93.333333%);stop-opacity:1;"/>
</linearGradient>
<linearGradient id="linear4" gradientUnits="userSpaceOnUse" x1="254" y1="90.625" x2="254" y2="-25.791666" >
<stop offset="0" style="stop-color:rgb(94.117647%,38.431373%,57.254902%);stop-opacity:1;"/>
<stop offset="1" style="stop-color:rgb(92.54902%,25.098039%,47.843137%);stop-opacity:1;"/>
</linearGradient>
</defs>
<g id="surface1">
<path style=" stroke:none;fill-rule:nonzero;fill:url(#radial0);" d="M 145.535156 224.269531 L 166.703125 224.269531 L 166.703125 213.6875 L 145.535156 213.6875 Z M 145.535156 224.269531 "/>
<path style=" stroke:none;fill-rule:nonzero;fill:url(#radial1);" d="M 108.488281 224.269531 L 87.320312 224.269531 L 87.320312 234.855469 L 108.488281 234.855469 Z M 108.488281 224.269531 "/>
<path style=" stroke:none;fill-rule:nonzero;fill:url(#radial2);" d="M 108.488281 224.269531 L 87.320312 224.269531 L 87.320312 213.6875 L 108.488281 213.6875 Z M 108.488281 224.269531 "/>
<path style=" stroke:none;fill-rule:nonzero;fill:url(#radial3);" d="M 145.535156 224.269531 L 166.703125 224.269531 L 166.703125 234.855469 L 145.535156 234.855469 Z M 145.535156 224.269531 "/>
<path style=" stroke:none;fill-rule:nonzero;fill:url(#linear0);" d="M 108.488281 221.625 L 145.535156 221.625 L 145.535156 234.855469 L 108.488281 234.855469 Z M 108.488281 221.625 "/>
<path style="fill-rule:nonzero;fill:url(#linear1);stroke-width:3;stroke-linecap:round;stroke-linejoin:miter;stroke:rgb(20%,20%,20%);stroke-opacity:1;stroke-miterlimit:4;" d="M 253.999182 -168.668487 C 365.058889 -168.668487 455.081542 -78.638022 455.081542 32.413873 C 455.081542 143.47358 365.058889 233.496233 253.999182 233.496233 C 142.947287 233.496233 52.916822 143.47358 52.916822 32.413873 C 52.916822 -78.638022 142.947287 -168.668487 253.999182 -168.668487 Z M 253.999182 -168.668487 " transform="matrix(0.500048,0,0,0.500048,0,107.510266)"/>
<path style="fill-rule:nonzero;fill:url(#linear2);stroke-width:11.338583;stroke-linecap:round;stroke-linejoin:miter;stroke:rgb(12.941177%,12.941177%,12.941177%);stroke-opacity:1;stroke-miterlimit:4;" d="M 966.758124 175.170289 C 786.804827 275.170587 706.822303 415.147385 706.822303 695.130505 L 966.817173 695.130505 C 966.817173 417.745562 1123.829747 277.768765 1243.434473 229.348189 C 1157.871773 195.158539 1064.573591 175.996982 966.758124 175.170289 Z M 488.339218 338.324009 C 414.291168 396.812521 351.492043 468.852889 303.602913 550.754521 C 301.418082 754.268562 383.17209 892.591974 623.975879 1031.62398 L 753.973314 806.468304 C 516.446772 669.325882 472.012037 466.372811 488.339218 338.324009 Z M 1371.837572 488.516367 C 1274.376402 489.165911 1168.50068 524.241304 1039.65471 598.614127 L 1169.652145 823.769802 C 1411.253102 684.294925 1611.903242 751.847533 1713.08453 831.800532 C 1710.338729 811.54656 1706.825285 791.49926 1702.544198 771.776733 C 1685.862719 700.592582 1658.552333 630.530372 1619.993021 563.774932 C 1537.205647 514.143842 1457.813618 487.925872 1371.837572 488.516367 Z M 1289.670218 838.620747 L 1159.672782 1063.776423 C 1400.683244 1202.926528 1442.874099 1409.776864 1424.539235 1537.47137 C 1449.10382 1518.546011 1472.428365 1498.144415 1494.453822 1476.38468 C 1538.209488 1431.595648 1577.182147 1380.60642 1610.013659 1323.771294 C 1613.409004 1117.895274 1532.156916 978.597545 1289.670218 838.620747 Z M 207.677029 1043.906272 C 221.199361 1139.064513 252.229864 1228.435904 297.402717 1308.684151 C 472.543482 1412.315992 633.217123 1410.633082 873.961862 1271.630601 L 743.964427 1046.4454 C 507.914122 1182.731605 310.954574 1121.379193 207.677029 1043.906272 Z M 946.828923 1175.114222 C 946.828923 1450.048611 792.562151 1589.995884 673.370771 1639.597449 C 757.959154 1673.875674 850.253495 1693.391528 947.035597 1694.985864 C 1126.870795 1595.01509 1206.823794 1455.008768 1206.823794 1175.114222 Z M 946.828923 1175.114222 " transform="matrix(0.132304,0,0,0.132304,0,0)"/>
<path style=" stroke:none;fill-rule:nonzero;fill:rgb(0%,0%,0%);fill-opacity:0.196078;" d="M 127.011719 224.269531 C 71.308594 224.269531 26.460938 179.425781 26.460938 123.71875 C 26.460938 123.390625 26.464844 123.0625 26.46875 122.734375 C 26.992188 177.984375 71.636719 222.300781 127.011719 222.300781 C 182.390625 222.300781 227.03125 177.984375 227.558594 122.734375 C 227.558594 123.0625 227.5625 123.390625 227.5625 123.71875 C 227.5625 179.425781 182.71875 224.269531 127.011719 224.269531 Z M 127.011719 224.269531 "/>
<path style=" stroke:none;fill-rule:nonzero;fill:rgb(100%,100%,100%);fill-opacity:0.588235;" d="M 127.011719 23.167969 C 71.308594 23.167969 26.460938 68.015625 26.460938 123.71875 C 26.460938 124.046875 26.464844 124.375 26.46875 124.703125 C 26.992188 69.457031 71.636719 25.136719 127.011719 25.136719 C 182.390625 25.136719 227.03125 69.457031 227.558594 124.703125 C 227.558594 124.375 227.5625 124.046875 227.5625 123.71875 C 227.5625 68.015625 182.71875 23.167969 127.011719 23.167969 Z M 127.011719 23.167969 "/>
<path style=" stroke:none;fill-rule:nonzero;fill:rgb(12.941177%,12.941177%,12.941177%);fill-opacity:1;" d="M 127.011719 22.417969 C 70.902344 22.417969 25.710938 67.613281 25.710938 123.71875 C 25.710938 179.828125 70.902344 225.023438 127.011719 225.023438 C 183.121094 225.023438 228.3125 179.828125 228.3125 123.71875 C 228.3125 67.613281 183.121094 22.417969 127.011719 22.417969 Z M 127.011719 23.917969 C 182.316406 23.917969 226.8125 68.417969 226.8125 123.71875 C 226.8125 179.023438 182.316406 223.519531 127.011719 223.519531 C 71.710938 223.519531 27.210938 179.023438 27.210938 123.71875 C 27.210938 68.417969 71.710938 23.917969 127.011719 23.917969 Z M 127.011719 23.917969 "/>
<path style=" stroke:none;fill-rule:nonzero;fill:url(#linear3);" d="M 127.011719 76.089844 C 153.316406 76.089844 174.640625 97.414062 174.640625 123.71875 C 174.640625 150.023438 153.316406 171.351562 127.011719 171.351562 C 100.707031 171.351562 79.382812 150.023438 79.382812 123.71875 C 79.382812 97.414062 100.707031 76.089844 127.011719 76.089844 Z M 127.011719 76.089844 "/>
<path style="fill-rule:nonzero;fill:url(#linear4);stroke-width:3;stroke-linecap:round;stroke-linejoin:miter;stroke:rgb(12.941177%,12.941177%,12.941177%);stroke-opacity:1;stroke-miterlimit:4;" d="M 232.83714 -20.502949 C 222.252213 -25.791506 211.667287 -11.058538 211.667287 0.666905 L 211.667287 64.168653 C 211.667287 75.894096 222.252213 92.65812 232.83714 85.330695 L 301.627446 37.710242 C 313.532559 29.7735 313.532559 29.7735 301.627446 21.836758 Z M 232.83714 -20.502949 " transform="matrix(0.500048,0,0,0.500048,0,107.510266)"/>
<path style=" stroke:none;fill-rule:nonzero;fill:rgb(100%,100%,100%);fill-opacity:0.709804;" d="M 127.011719 76.089844 C 103.816406 76.089844 84.597656 92.503906 80.289062 114.398438 C 85.589844 93.875 104.167969 78.800781 126.398438 78.800781 C 152.785156 78.800781 174.027344 100.042969 174.027344 126.429688 C 174.027344 129.621094 173.714844 132.738281 173.121094 135.75 C 174.113281 131.910156 174.640625 127.878906 174.640625 123.71875 C 174.640625 97.332031 153.398438 76.089844 127.011719 76.089844 Z M 127.011719 76.089844 "/>
<path style=" stroke:none;fill-rule:nonzero;fill:rgb(0%,0%,0%);fill-opacity:0.196078;" d="M 127.011719 171.351562 C 103.816406 171.351562 84.597656 154.933594 80.289062 133.042969 C 85.589844 153.566406 104.167969 168.640625 126.398438 168.640625 C 152.785156 168.640625 174.027344 147.398438 174.027344 121.011719 C 174.027344 117.820312 173.714844 114.703125 173.121094 111.6875 C 174.113281 115.53125 174.640625 119.5625 174.640625 123.71875 C 174.640625 150.105469 153.398438 171.351562 127.011719 171.351562 Z M 127.011719 171.351562 "/>
<path style=" stroke:none;fill-rule:nonzero;fill:rgb(12.941177%,12.941177%,12.941177%);fill-opacity:1;" d="M 127.011719 75.339844 C 100.222656 75.339844 78.632812 96.929688 78.632812 123.71875 C 78.632812 150.507812 100.222656 172.097656 127.011719 172.097656 C 153.800781 172.097656 175.390625 150.507812 175.390625 123.71875 C 175.390625 96.929688 153.800781 75.339844 127.011719 75.339844 Z M 127.011719 76.839844 C 152.996094 76.839844 173.890625 97.734375 173.890625 123.71875 C 173.890625 149.703125 152.996094 170.597656 127.011719 170.597656 C 101.027344 170.597656 80.132812 149.703125 80.132812 123.71875 C 80.132812 97.734375 101.027344 76.839844 127.011719 76.839844 Z M 127.011719 76.839844 "/>
</g>
</svg>
