<?xml version="1.0" encoding="UTF-8"?>
<svg xmlns="http://www.w3.org/2000/svg" xmlns:xlink="http://www.w3.org/1999/xlink" width="256pt" height="256pt" viewBox="0 0 256 256" version="1.1">
<defs>
<linearGradient id="linear0" gradientUnits="userSpaceOnUse" x1="254" y1="233.5" x2="254" y2="254.666672" gradientTransform="matrix(0.500048,0,0,0.500048,-0.0000305205,107.510266)">
<stop offset="0" style="stop-color:rgb(0%,0%,0%);stop-opacity:0.27451;"/>
<stop offset="1" style="stop-color:rgb(0%,0%,0%);stop-opacity:0;"/>
</linearGradient>
<radialGradient id="radial0" gradientUnits="userSpaceOnUse" cx="450.908936" cy="189.579361" fx="450.908936" fy="189.579361" r="21.166656" gradientTransform="matrix(0.00000139336,-0.62506,-1.125108,-0.000000812309,427.629528,508.762645)">
<stop offset="0" style="stop-color:rgb(0%,0%,0%);stop-opacity:0.313725;"/>
<stop offset="0.222222" style="stop-color:rgb(0%,0%,0%);stop-opacity:0.27451;"/>
<stop offset="1" style="stop-color:rgb(0%,0%,0%);stop-opacity:0;"/>
</radialGradient>
<radialGradient id="radial1" gradientUnits="userSpaceOnUse" cx="450.908936" cy="189.579361" fx="450.908936" fy="189.579361" r="21.166656" gradientTransform="matrix(-0.00000139336,0.62506,1.125108,0.000000812309,-173.605291,-60.219846)">
<stop offset="0" style="stop-color:rgb(0%,0%,0%);stop-opacity:0.313725;"/>
<stop offset="0.222222" style="stop-color:rgb(0%,0%,0%);stop-opacity:0.27451;"/>
<stop offset="1" style="stop-color:rgb(0%,0%,0%);stop-opacity:0;"/>
</radialGradient>
<radialGradient id="radial2" gradientUnits="userSpaceOnUse" cx="450.908936" cy="189.579361" fx="450.908936" fy="189.579361" r="21.166656" gradientTransform="matrix(-0.00000139336,-0.62506,1.125108,-0.000000812309,-173.605291,508.762645)">
<stop offset="0" style="stop-color:rgb(0%,0%,0%);stop-opacity:0.313725;"/>
<stop offset="0.222222" style="stop-color:rgb(0%,0%,0%);stop-opacity:0.27451;"/>
<stop offset="1" style="stop-color:rgb(0%,0%,0%);stop-opacity:0;"/>
</radialGradient>
<radialGradient id="radial3" gradientUnits="userSpaceOnUse" cx="450.908936" cy="189.579361" fx="450.908936" fy="189.579361" r="21.166656" gradientTransform="matrix(0.00000139336,0.62506,-1.125108,0.000000812309,427.629513,-60.21985)">
<stop offset="0" style="stop-color:rgb(0%,0%,0%);stop-opacity:0.313725;"/>
<stop offset="0.222222" style="stop-color:rgb(0%,0%,0%);stop-opacity:0.27451;"/>
<stop offset="1" style="stop-color:rgb(0%,0%,0%);stop-opacity:0;"/>
</radialGradient>
<linearGradient id="linear1" gradientUnits="userSpaceOnUse" x1="306.916656" y1="-25.791676" x2="305.954559" y2="-135.329163" gradientTransform="matrix(0.602797,0,0,1.739297,-46.832105,269.130786)">
<stop offset="0" style="stop-color:rgb(74.117647%,74.117647%,74.117647%);stop-opacity:1;"/>
<stop offset="1" style="stop-color:rgb(87.843137%,87.843137%,87.843137%);stop-opacity:1;"/>
</linearGradient>
<linearGradient id="linear2" gradientUnits="userSpaceOnUse" x1="306.916656" y1="-25.791676" x2="305.954559" y2="-135.329163" gradientTransform="matrix(4.556143,0,0,13.146184,-353.972656,2034.180176)">
<stop offset="0" style="stop-color:rgb(25.882353%,25.882353%,25.882353%);stop-opacity:1;"/>
<stop offset="1" style="stop-color:rgb(38.039216%,38.039216%,38.039216%);stop-opacity:1;"/>
</linearGradient>
<linearGradient id="linear3" gradientUnits="userSpaceOnUse" x1="349.25" y1="-158.083328" x2="349.25" y2="-115.75" gradientTransform="matrix(0.749999,0,0,0.749999,71.437767,-2.479259)">
<stop offset="0" style="stop-color:rgb(40%,73.333333%,41.568627%);stop-opacity:1;"/>
<stop offset="1" style="stop-color:rgb(50.588235%,78.039216%,51.764706%);stop-opacity:1;"/>
</linearGradient>
<linearGradient id="linear4" gradientUnits="userSpaceOnUse" x1="349.25" y1="-158.083328" x2="349.25" y2="-115.75" gradientTransform="matrix(0.750001,0,0,0.750001,124.353661,-2.47902)">
<stop offset="0" style="stop-color:rgb(100%,83.529412%,30.980392%);stop-opacity:1;"/>
<stop offset="1" style="stop-color:rgb(100%,87.843137%,50.980392%);stop-opacity:1;"/>
</linearGradient>
<linearGradient id="linear5" gradientUnits="userSpaceOnUse" x1="349.25" y1="-158.083328" x2="349.25" y2="-115.75" gradientTransform="matrix(0.75,0,0,0.75,177.270798,-2.479186)">
<stop offset="0" style="stop-color:rgb(89.803922%,45.098039%,45.098039%);stop-opacity:1;"/>
<stop offset="1" style="stop-color:rgb(93.72549%,60.392157%,60.392157%);stop-opacity:1;"/>
</linearGradient>
<linearGradient id="linear6" gradientUnits="userSpaceOnUse" x1="234.776657" y1="-38.282547" x2="234.776657" y2="141.634109" gradientTransform="matrix(0.537171,0,0,0.537171,-10.14314,121.776302)">
<stop offset="0" style="stop-color:rgb(47.058824%,56.470588%,61.176471%);stop-opacity:1;"/>
<stop offset="1" style="stop-color:rgb(37.647059%,49.019608%,54.509804%);stop-opacity:1;"/>
</linearGradient>
</defs>
<g id="surface1">
<path style=" stroke:none;fill-rule:nonzero;fill:url(#linear0);" d="M 37.046875 224.269531 L 216.980469 224.269531 L 216.980469 234.855469 L 37.046875 234.855469 Z M 37.046875 224.269531 "/>
<path style=" stroke:none;fill-rule:nonzero;fill:url(#radial0);" d="M 216.980469 224.269531 L 238.148438 224.269531 L 238.148438 213.6875 L 216.980469 213.6875 Z M 216.980469 224.269531 "/>
<path style=" stroke:none;fill-rule:nonzero;fill:url(#radial1);" d="M 37.046875 224.269531 L 15.875 224.269531 L 15.875 234.855469 L 37.046875 234.855469 Z M 37.046875 224.269531 "/>
<path style=" stroke:none;fill-rule:nonzero;fill:url(#radial2);" d="M 37.046875 224.269531 L 15.875 224.269531 L 15.875 213.6875 L 37.046875 213.6875 Z M 37.046875 224.269531 "/>
<path style=" stroke:none;fill-rule:nonzero;fill:url(#radial3);" d="M 216.980469 224.269531 L 238.148438 224.269531 L 238.148438 234.855469 L 216.980469 234.855469 Z M 216.980469 224.269531 "/>
<path style=" stroke:none;fill-rule:nonzero;fill:url(#linear1);" d="M 26.460938 33.753906 L 227.5625 33.753906 C 233.410156 33.753906 238.148438 38.492188 238.148438 44.335938 L 238.148438 213.6875 C 238.148438 219.53125 233.410156 224.269531 227.5625 224.269531 L 26.460938 224.269531 C 20.617188 224.269531 15.875 219.53125 15.875 213.6875 L 15.875 44.335938 C 15.875 38.492188 20.617188 33.753906 26.460938 33.753906 Z M 26.460938 33.753906 "/>
<path style=" stroke:none;fill-rule:nonzero;fill:rgb(0%,0%,0%);fill-opacity:0.235294;" d="M 26.460938 224.375 C 20.597656 224.375 15.875 219.65625 15.875 213.792969 L 15.875 211.039062 C 15.875 216.90625 20.597656 221.625 26.460938 221.625 L 227.5625 221.625 C 233.425781 221.625 238.148438 216.90625 238.148438 211.039062 L 238.148438 213.792969 C 238.148438 219.65625 233.425781 224.375 227.5625 224.375 Z M 26.460938 224.375 "/>
<path style="fill-rule:nonzero;fill:url(#linear2);stroke-width:11.338583;stroke-linecap:round;stroke-linejoin:miter;stroke:rgb(12.941177%,12.941177%,12.941177%);stroke-opacity:1;stroke-miterlimit:4;" d="M 200.000596 255.123288 C 155.68396 255.123288 119.988548 290.789175 119.988548 335.105812 L 119.988548 575.112433 L 1800.005368 575.112433 L 1800.005368 335.105812 C 1800.005368 290.789175 1764.309956 255.123288 1719.99332 255.123288 Z M 200.000596 255.123288 " transform="matrix(0.132304,0,0,0.132304,0,0)"/>
<path style=" stroke:none;fill-rule:nonzero;fill:rgb(100%,100%,100%);fill-opacity:0.392157;" d="M 26.460938 34.363281 C 20.597656 34.363281 15.875 39.085938 15.875 44.949219 L 15.875 47.699219 C 15.875 41.835938 20.597656 37.113281 26.460938 37.113281 L 227.5625 37.113281 C 233.425781 37.113281 238.148438 41.835938 238.148438 47.699219 L 238.148438 44.949219 C 238.148438 39.085938 233.425781 34.363281 227.5625 34.363281 Z M 26.460938 34.363281 "/>
<path style=" stroke:none;fill-rule:nonzero;fill:rgb(12.941177%,12.941177%,12.941177%);fill-opacity:1;" d="M 26.460938 33.003906 C 20.195312 33.003906 15.125 38.070312 15.125 44.335938 L 15.125 213.6875 C 15.125 219.953125 20.195312 225.023438 26.460938 225.023438 L 227.5625 225.023438 C 233.828125 225.023438 238.898438 219.953125 238.898438 213.6875 L 238.898438 44.335938 C 238.898438 38.070312 233.828125 33.003906 227.5625 33.003906 Z M 26.460938 34.503906 L 227.5625 34.503906 C 233.023438 34.503906 237.398438 38.875 237.398438 44.335938 L 237.398438 213.6875 C 237.398438 219.148438 233.023438 223.519531 227.5625 223.519531 L 26.460938 223.519531 C 21 223.519531 16.625 219.148438 16.625 213.6875 L 16.625 44.335938 C 16.625 38.875 21 34.503906 26.460938 34.503906 Z M 26.460938 34.503906 "/>
<path style="fill-rule:nonzero;fill:url(#linear3);stroke-width:3;stroke-linecap:round;stroke-linejoin:miter;stroke:rgb(12.941177%,12.941177%,12.941177%);stroke-opacity:1;stroke-miterlimit:4;" d="M 333.374414 -121.040223 C 342.139202 -121.040223 349.247898 -113.931527 349.247898 -105.166739 C 349.247898 -96.401951 342.139202 -89.293254 333.374414 -89.293254 C 324.609626 -89.293254 317.50093 -96.401951 317.50093 -105.166739 C 317.50093 -113.931527 324.609626 -121.040223 333.374414 -121.040223 Z M 333.374414 -121.040223 " transform="matrix(0.500048,0,0,0.500048,0,107.510266)"/>
<path style="fill-rule:nonzero;fill:url(#linear4);stroke-width:3;stroke-linecap:round;stroke-linejoin:miter;stroke:rgb(12.941177%,12.941177%,12.941177%);stroke-opacity:1;stroke-miterlimit:4;" d="M 386.291236 -121.040223 C 395.056024 -121.040223 402.16472 -113.931527 402.16472 -105.166739 C 402.16472 -96.401951 395.056024 -89.293254 386.291236 -89.293254 C 377.526448 -89.293254 370.417752 -96.401951 370.417752 -105.166739 C 370.417752 -113.931527 377.526448 -121.040223 386.291236 -121.040223 Z M 386.291236 -121.040223 " transform="matrix(0.500048,0,0,0.500048,0,107.510266)"/>
<path style="fill-rule:nonzero;fill:url(#linear5);stroke-width:3;stroke-linecap:round;stroke-linejoin:miter;stroke:rgb(12.941177%,12.941177%,12.941177%);stroke-opacity:1;stroke-miterlimit:4;" d="M 439.208058 -121.040223 C 447.972846 -121.040223 455.081542 -113.931527 455.081542 -105.166739 C 455.081542 -96.401951 447.972846 -89.293254 439.208058 -89.293254 C 430.44327 -89.293254 423.334574 -96.401951 423.334574 -105.166739 C 423.334574 -113.931527 430.44327 -121.040223 439.208058 -121.040223 Z M 439.208058 -121.040223 " transform="matrix(0.500048,0,0,0.500048,0,107.510266)"/>
<path style=" stroke:none;fill-rule:nonzero;fill:url(#linear6);" d="M 156.152344 101.746094 C 137.558594 101.746094 134.074219 130.003906 144.535156 130.003906 C 154.992188 130.003906 174.75 101.746094 156.152344 101.746094 Z M 127.511719 106.09375 C 127.21875 106.09375 126.90625 106.121094 126.574219 106.148438 C 116.03125 107.476562 119.742188 125.3125 125.351562 125.644531 C 130.773438 125.96875 136.71875 106.117188 127.5 106.085938 Z M 109.242188 112.675781 C 108.597656 112.632812 107.882812 112.757812 107.089844 113.082031 C 98.621094 116.5625 105.804688 130.917969 110.546875 129.957031 C 114.847656 129.082031 115.46875 113.078125 109.242188 112.675781 Z M 95.421875 124.414062 C 94.683594 124.386719 93.886719 124.648438 93.035156 125.277344 C 86.257812 130.339844 95.320312 142.566406 99.308594 140.667969 C 102.796875 139.007812 100.574219 124.601562 95.417969 124.414062 Z M 135.460938 136.085938 C 120.773438 135.832031 101.394531 143.28125 98.085938 158.265625 C 94.507812 174.464844 112.820312 196.949219 131.917969 196.949219 C 141.320312 196.949219 152.160156 188.359375 154.191406 177.480469 C 155.738281 169.1875 135.960938 172.511719 136.667969 177.996094 C 137.519531 184.574219 131.902344 187.828125 126.398438 183.585938 C 108.871094 170.085938 155.417969 163.347656 152.34375 144.902344 C 151.386719 139.160156 144.261719 136.238281 135.453125 136.085938 Z M 135.460938 136.085938 "/>
<path style=" stroke:none;fill-rule:nonzero;fill:rgb(12.941177%,12.941177%,12.941177%);fill-opacity:1;" d="M 156.152344 100.941406 C 151.300781 100.941406 147.375 102.804688 144.464844 105.578125 C 141.558594 108.351562 139.644531 112.007812 138.667969 115.664062 C 137.691406 119.324219 137.632812 122.980469 138.554688 125.835938 C 139.015625 127.261719 139.726562 128.496094 140.730469 129.390625 C 141.738281 130.285156 143.042969 130.808594 144.535156 130.808594 C 147.511719 130.808594 150.796875 128.910156 153.90625 126.195312 C 157.015625 123.476562 159.929688 119.890625 161.945312 116.265625 C 163.957031 112.640625 165.117188 108.980469 164.441406 105.980469 C 164.101562 104.484375 163.246094 103.160156 161.851562 102.277344 C 160.460938 101.394531 158.578125 100.941406 156.152344 100.941406 Z M 156.152344 102.550781 C 158.375 102.550781 159.945312 102.976562 160.988281 103.640625 C 162.035156 104.304688 162.609375 105.1875 162.867188 106.339844 C 163.386719 108.640625 162.445312 112.042969 160.535156 115.480469 C 158.625 118.921875 155.800781 122.398438 152.847656 124.980469 C 149.890625 127.5625 146.785156 129.195312 144.535156 129.195312 C 143.40625 129.195312 142.535156 128.835938 141.804688 128.1875 C 141.070312 127.535156 140.480469 126.5625 140.089844 125.339844 C 139.300781 122.898438 139.316406 119.488281 140.226562 116.082031 C 141.136719 112.675781 142.929688 109.269531 145.578125 106.742188 C 148.226562 104.21875 151.707031 102.550781 156.152344 102.550781 Z M 124.71875 105.269531 L 125.292969 105.636719 C 123.070312 106.230469 121.425781 107.566406 120.445312 109.3125 C 119.292969 111.363281 118.9375 113.875 119.101562 116.324219 C 119.265625 118.773438 119.945312 121.171875 120.988281 123.039062 C 122.03125 124.90625 123.480469 126.339844 125.300781 126.449219 C 127.15625 126.558594 128.699219 125.09375 129.945312 123.167969 C 131.195312 121.242188 132.179688 118.71875 132.707031 116.160156 C 133.230469 113.601562 133.308594 111.015625 132.578125 108.933594 C 131.84375 106.851562 130.097656 105.289062 127.503906 105.277344 Z M 127.511719 106.898438 L 127.542969 106.898438 C 129.523438 106.921875 130.484375 107.84375 131.054688 109.46875 C 131.632812 111.105469 131.613281 113.46875 131.128906 115.835938 C 130.640625 118.203125 129.699219 120.585938 128.59375 122.292969 C 127.488281 124 126.257812 124.890625 125.398438 124.839844 C 124.414062 124.78125 123.296875 123.863281 122.394531 122.25 C 121.496094 120.640625 120.855469 118.433594 120.710938 116.214844 C 120.5625 114 120.90625 111.78125 121.851562 110.101562 C 122.789062 108.429688 124.261719 107.253906 126.664062 106.949219 C 126.988281 106.921875 127.273438 106.898438 127.511719 106.898438 Z M 109.292969 111.871094 C 108.507812 111.820312 107.667969 111.976562 106.785156 112.335938 C 104.449219 113.296875 103.101562 115.105469 102.605469 117.128906 C 102.113281 119.15625 102.398438 121.386719 103.101562 123.445312 C 103.804688 125.503906 104.921875 127.402344 106.230469 128.769531 C 107.539062 130.140625 109.097656 131.070312 110.707031 130.746094 C 112.25 130.429688 113.1875 128.957031 113.792969 127.207031 C 114.402344 125.453125 114.691406 123.285156 114.648438 121.121094 C 114.605469 118.957031 114.230469 116.800781 113.40625 115.074219 C 112.699219 113.59375 111.554688 112.4375 110.046875 112.046875 L 110.046875 111.917969 Z M 109.191406 113.480469 C 110.402344 113.558594 111.273438 114.355469 111.949219 115.769531 C 112.628906 117.1875 112.996094 119.160156 113.035156 121.15625 C 113.078125 123.148438 112.796875 125.171875 112.273438 126.679688 C 111.75 128.1875 110.996094 129.042969 110.386719 129.164062 C 109.621094 129.320312 108.503906 128.816406 107.398438 127.65625 C 106.289062 126.496094 105.253906 124.769531 104.625 122.925781 C 104 121.078125 103.78125 119.125 104.171875 117.511719 C 104.566406 115.898438 105.496094 114.609375 107.394531 113.828125 C 108.097656 113.542969 108.6875 113.449219 109.191406 113.480469 Z M 95.445312 123.609375 C 94.5 123.574219 93.511719 123.921875 92.558594 124.632812 L 92.554688 124.632812 C 90.667969 126.042969 89.835938 128.042969 89.792969 130.066406 C 89.746094 132.089844 90.421875 134.152344 91.429688 135.972656 C 92.441406 137.792969 93.792969 139.378906 95.21875 140.425781 C 96.640625 141.472656 98.246094 142.066406 99.65625 141.394531 C 100.964844 140.773438 101.480469 139.261719 101.699219 137.558594 C 101.914062 135.851562 101.792969 133.820312 101.394531 131.832031 C 101 129.839844 100.328125 127.894531 99.375 126.371094 C 98.4375 124.878906 97.15625 123.730469 95.539062 123.628906 L 95.542969 123.617188 L 95.539062 123.617188 L 95.539062 123.628906 C 95.507812 123.625 95.480469 123.613281 95.449219 123.609375 C 95.445312 123.609375 95.445312 123.609375 95.445312 123.609375 Z M 95.386719 125.21875 C 95.386719 125.21875 95.386719 125.21875 95.390625 125.21875 C 96.304688 125.253906 97.203125 125.945312 98.007812 127.226562 C 98.8125 128.507812 99.449219 130.304688 99.816406 132.148438 C 100.183594 133.988281 100.285156 135.886719 100.097656 137.351562 C 99.914062 138.820312 99.398438 139.734375 98.964844 139.941406 C 98.375 140.21875 97.355469 139.996094 96.171875 139.125 C 94.984375 138.257812 93.746094 136.820312 92.839844 135.191406 C 91.933594 133.558594 91.367188 131.734375 91.402344 130.101562 C 91.4375 128.46875 92.015625 127.046875 93.515625 125.925781 C 94.257812 125.375 94.863281 125.199219 95.386719 125.21875 Z M 135.453125 135.277344 L 135.453125 135.28125 C 127.972656 135.15625 119.359375 136.976562 112.132812 140.75 C 104.898438 144.523438 99.019531 150.304688 97.300781 158.09375 C 95.429688 166.550781 99.246094 176.417969 105.886719 184.203125 C 112.523438 191.992188 122.054688 197.753906 131.917969 197.753906 C 141.808594 197.753906 152.875 188.941406 154.980469 177.628906 C 155.203125 176.445312 155.042969 175.367188 154.554688 174.5 C 154.0625 173.628906 153.273438 172.996094 152.351562 172.5625 C 150.507812 171.6875 148.089844 171.519531 145.664062 171.769531 C 143.234375 172.019531 140.800781 172.703125 138.9375 173.730469 C 138.007812 174.242188 137.214844 174.839844 136.648438 175.5625 C 136.082031 176.285156 135.75 177.171875 135.871094 178.097656 C 136.265625 181.148438 135.1875 183.21875 133.523438 184.144531 C 131.863281 185.070312 129.457031 184.925781 126.890625 182.949219 C 124.78125 181.324219 123.726562 179.863281 123.382812 178.59375 C 123.039062 177.324219 123.324219 176.164062 124.164062 174.882812 C 125.84375 172.324219 129.855469 169.617188 134.378906 166.78125 C 138.898438 163.949219 143.917969 160.945312 147.671875 157.417969 C 151.425781 153.890625 153.960938 149.714844 153.140625 144.769531 C 152.609375 141.601562 150.351562 139.214844 147.199219 137.671875 C 144.042969 136.132812 139.960938 135.359375 135.472656 135.277344 C 135.472656 135.277344 135.46875 135.277344 135.46875 135.277344 C 135.464844 135.277344 135.460938 135.28125 135.460938 135.28125 L 135.460938 135.277344 Z M 135.441406 136.890625 C 135.441406 136.890625 135.445312 136.890625 135.445312 136.890625 C 135.449219 136.890625 135.453125 136.890625 135.453125 136.890625 C 135.457031 136.890625 135.457031 136.890625 135.460938 136.890625 C 139.773438 136.96875 143.644531 137.730469 146.492188 139.121094 C 149.339844 140.515625 151.121094 142.460938 151.550781 145.035156 C 152.261719 149.3125 150.132812 152.898438 146.570312 156.242188 C 143.007812 159.589844 138.0625 162.570312 133.523438 165.417969 C 128.984375 168.261719 124.835938 170.921875 122.816406 174 C 121.804688 175.535156 121.351562 177.261719 121.828125 179.015625 C 122.304688 180.769531 123.632812 182.476562 125.90625 184.226562 C 128.839844 186.488281 132 186.839844 134.308594 185.554688 C 136.617188 184.265625 137.925781 181.421875 137.46875 177.890625 C 137.410156 177.449219 137.542969 177.03125 137.917969 176.554688 C 138.292969 176.078125 138.914062 175.582031 139.714844 175.140625 C 141.3125 174.257812 143.59375 173.601562 145.828125 173.371094 C 148.0625 173.140625 150.257812 173.351562 151.660156 174.019531 C 152.363281 174.351562 152.859375 174.777344 153.152344 175.292969 C 153.441406 175.808594 153.5625 176.441406 153.398438 177.332031 C 151.449219 187.777344 140.828125 196.144531 131.917969 196.144531 C 122.6875 196.144531 113.511719 190.664062 107.113281 183.160156 C 100.714844 175.65625 97.164062 166.179688 98.875 158.441406 C 100.460938 151.246094 105.921875 145.808594 112.878906 142.175781 C 119.832031 138.546875 128.238281 136.765625 135.441406 136.890625 Z M 135.441406 136.890625 "/>
</g>
</svg>
