<?xml version="1.0" encoding="UTF-8"?>
<svg xmlns="http://www.w3.org/2000/svg" xmlns:xlink="http://www.w3.org/1999/xlink" width="256pt" height="256pt" viewBox="0 0 256 256" version="1.1">
<defs>
<linearGradient id="linear0" gradientUnits="userSpaceOnUse" x1="254" y1="233.5" x2="254" y2="254.666672" gradientTransform="matrix(0.500048,0,0,0.500048,-0.0000305205,118.09462)">
<stop offset="0" style="stop-color:rgb(0%,0%,0%);stop-opacity:0.27451;"/>
<stop offset="1" style="stop-color:rgb(0%,0%,0%);stop-opacity:0;"/>
</linearGradient>
<radialGradient id="radial0" gradientUnits="userSpaceOnUse" cx="450.908936" cy="189.579361" fx="450.908936" fy="189.579361" r="21.166656" gradientTransform="matrix(0.00000139336,-0.62506,-1.125108,-0.000000812309,432.921701,519.346999)">
<stop offset="0" style="stop-color:rgb(0%,0%,0%);stop-opacity:0.313725;"/>
<stop offset="0.222222" style="stop-color:rgb(0%,0%,0%);stop-opacity:0.27451;"/>
<stop offset="1" style="stop-color:rgb(0%,0%,0%);stop-opacity:0;"/>
</radialGradient>
<radialGradient id="radial1" gradientUnits="userSpaceOnUse" cx="450.908936" cy="189.579361" fx="450.908936" fy="189.579361" r="21.166656" gradientTransform="matrix(-0.00000139336,0.62506,1.125108,0.000000812309,-178.897423,-49.635492)">
<stop offset="0" style="stop-color:rgb(0%,0%,0%);stop-opacity:0.313725;"/>
<stop offset="0.222222" style="stop-color:rgb(0%,0%,0%);stop-opacity:0.27451;"/>
<stop offset="1" style="stop-color:rgb(0%,0%,0%);stop-opacity:0;"/>
</radialGradient>
<radialGradient id="radial2" gradientUnits="userSpaceOnUse" cx="450.908936" cy="189.579361" fx="450.908936" fy="189.579361" r="21.166656" gradientTransform="matrix(-0.00000139336,-0.62506,1.125108,-0.000000812309,-178.897423,519.346999)">
<stop offset="0" style="stop-color:rgb(0%,0%,0%);stop-opacity:0.313725;"/>
<stop offset="0.222222" style="stop-color:rgb(0%,0%,0%);stop-opacity:0.27451;"/>
<stop offset="1" style="stop-color:rgb(0%,0%,0%);stop-opacity:0;"/>
</radialGradient>
<radialGradient id="radial3" gradientUnits="userSpaceOnUse" cx="450.908936" cy="189.579361" fx="450.908936" fy="189.579361" r="21.166656" gradientTransform="matrix(0.00000139336,0.62506,-1.125108,0.000000812309,432.921686,-49.635496)">
<stop offset="0" style="stop-color:rgb(0%,0%,0%);stop-opacity:0.313725;"/>
<stop offset="0.222222" style="stop-color:rgb(0%,0%,0%);stop-opacity:0.27451;"/>
<stop offset="1" style="stop-color:rgb(0%,0%,0%);stop-opacity:0;"/>
</radialGradient>
<linearGradient id="linear1" gradientUnits="userSpaceOnUse" x1="254" y1="-168.666656" x2="254" y2="-62.833332" >
<stop offset="0" style="stop-color:rgb(89.803922%,45.098039%,45.098039%);stop-opacity:1;"/>
<stop offset="1" style="stop-color:rgb(93.72549%,32.54902%,31.372549%);stop-opacity:1;"/>
</linearGradient>
<linearGradient id="linear2" gradientUnits="userSpaceOnUse" x1="222.25" y1="-94.583336" x2="222.25" y2="233.5" gradientTransform="matrix(0.500048,0,0,0.500048,0,107.510266)">
<stop offset="0" style="stop-color:rgb(69.019608%,74.509804%,77.254902%);stop-opacity:1;"/>
<stop offset="1" style="stop-color:rgb(81.176471%,84.705882%,86.27451%);stop-opacity:1;"/>
</linearGradient>
<linearGradient id="linear3" gradientUnits="userSpaceOnUse" x1="880" y1="1695.117188" x2="880" y2="1295.117188" gradientTransform="matrix(0.132304,0,0,0.132304,0,-37.045087)">
<stop offset="0" style="stop-color:rgb(0%,0%,0%);stop-opacity:0.0784314;"/>
<stop offset="1" style="stop-color:rgb(0%,0%,0%);stop-opacity:0;"/>
</linearGradient>
<linearGradient id="linear4" gradientUnits="userSpaceOnUse" x1="254" y1="170" x2="254" y2="-20.5" >
<stop offset="0" style="stop-color:rgb(93.72549%,32.54902%,31.372549%);stop-opacity:1;"/>
<stop offset="1" style="stop-color:rgb(89.803922%,45.098039%,45.098039%);stop-opacity:1;"/>
</linearGradient>
</defs>
<g id="surface1">
<path style=" stroke:none;fill-rule:nonzero;fill:url(#linear0);" d="M 31.753906 234.855469 L 222.269531 234.855469 L 222.269531 245.441406 L 31.753906 245.441406 Z M 31.753906 234.855469 "/>
<path style=" stroke:none;fill-rule:nonzero;fill:url(#radial0);" d="M 222.269531 234.855469 L 243.441406 234.855469 L 243.441406 224.269531 L 222.269531 224.269531 Z M 222.269531 234.855469 "/>
<path style=" stroke:none;fill-rule:nonzero;fill:url(#radial1);" d="M 31.753906 234.855469 L 10.585938 234.855469 L 10.585938 245.441406 L 31.753906 245.441406 Z M 31.753906 234.855469 "/>
<path style=" stroke:none;fill-rule:nonzero;fill:url(#radial2);" d="M 31.753906 234.855469 L 10.585938 234.855469 L 10.585938 224.269531 L 31.753906 224.269531 Z M 31.753906 234.855469 "/>
<path style=" stroke:none;fill-rule:nonzero;fill:url(#radial3);" d="M 222.269531 234.855469 L 243.441406 234.855469 L 243.441406 245.441406 L 222.269531 245.441406 Z M 222.269531 234.855469 "/>
<path style="fill-rule:nonzero;fill:url(#linear1);stroke-width:3;stroke-linecap:round;stroke-linejoin:round;stroke:rgb(12.941177%,12.941177%,12.941177%);stroke-opacity:1;stroke-miterlimit:4;" d="M 252.858666 -169.988673 C 244.937547 -169.855874 237.15704 -168.129476 229.938979 -165.090704 C 210.683006 -156.989915 194.582981 -140.764902 183.62309 -121.938574 C 172.655387 -103.104435 166.648148 -81.411195 170.054073 -61.17094 C 170.600896 -57.600968 173.02254 -54.593443 176.405029 -53.320127 C 179.779707 -52.038999 183.584031 -52.679563 186.357204 -54.991843 C 189.130376 -57.311933 190.434939 -60.944399 189.778752 -64.498747 C 187.443038 -78.356799 191.778561 -96.198845 200.90269 -111.869223 C 210.03463 -127.547414 223.759882 -140.796149 237.688239 -146.654964 C 251.624409 -152.521591 264.951261 -152.209121 279.113971 -140.593043 C 293.276681 -128.976965 308.05652 -104.291822 318.352411 -60.546 C 319.125775 -57.022899 321.742713 -54.195044 325.187696 -53.140457 C 328.63268 -52.08587 332.382322 -52.968598 334.999259 -55.444924 C 337.616197 -57.929062 338.694219 -61.624022 337.819302 -65.123687 C 326.945341 -111.330212 311.181221 -140.155585 291.800259 -156.060316 C 279.684229 -165.996867 266.068342 -170.207402 252.858666 -169.988673 Z M 252.858666 -169.988673 " transform="matrix(0.500048,0,0,0.500048,0,107.510266)"/>
<path style=" stroke:none;fill-rule:nonzero;fill:url(#linear2);" d="M 26.460938 60.214844 L 227.5625 60.214844 C 233.410156 60.214844 238.148438 64.953125 238.148438 70.796875 L 238.148438 224.269531 C 238.148438 230.117188 233.410156 234.855469 227.5625 234.855469 L 26.460938 234.855469 C 20.617188 234.855469 15.875 230.117188 15.875 224.269531 L 15.875 70.796875 C 15.875 64.953125 20.617188 60.214844 26.460938 60.214844 Z M 26.460938 60.214844 "/>
<path style=" stroke:none;fill-rule:nonzero;fill:rgb(49.411765%,34.117648%,76.078433%);fill-opacity:0.470588;" d="M 201.101562 123.71875 C 160.054688 123.71875 127.011719 156.765625 127.011719 197.8125 C 127.011719 211.324219 130.59375 223.96875 136.863281 234.855469 L 227.5625 234.855469 C 233.425781 234.855469 238.148438 230.136719 238.148438 224.269531 L 238.148438 133.574219 C 227.261719 127.300781 214.617188 123.71875 201.101562 123.71875 Z M 201.101562 166.058594 C 218.695312 166.058594 232.855469 180.21875 232.855469 197.8125 C 232.855469 215.402344 218.695312 229.5625 201.101562 229.5625 C 183.511719 229.5625 169.347656 215.402344 169.347656 197.8125 C 169.347656 180.21875 183.511719 166.058594 201.101562 166.058594 Z M 201.101562 171.351562 C 186.441406 171.351562 174.640625 183.152344 174.640625 197.8125 C 174.640625 212.46875 186.441406 224.269531 201.101562 224.269531 C 215.761719 224.269531 227.5625 212.46875 227.5625 197.8125 C 227.5625 183.152344 215.761719 171.351562 201.101562 171.351562 Z M 201.101562 181.933594 C 209.898438 181.933594 216.980469 189.015625 216.980469 197.8125 C 216.980469 206.605469 209.898438 213.6875 201.101562 213.6875 C 192.308594 213.6875 185.226562 206.605469 185.226562 197.8125 C 185.226562 189.015625 192.308594 181.933594 201.101562 181.933594 Z M 201.101562 181.933594 "/>
<path style=" stroke:none;fill-rule:nonzero;fill:rgb(0%,0%,0%);fill-opacity:0.235294;" d="M 26.460938 234.855469 C 20.597656 234.855469 15.875 230.136719 15.875 224.269531 L 15.875 220.300781 C 15.875 226.167969 20.597656 230.886719 26.460938 230.886719 L 227.5625 230.886719 C 233.425781 230.886719 238.148438 226.167969 238.148438 220.300781 L 238.148438 224.269531 C 238.148438 230.136719 233.425781 234.855469 227.5625 234.855469 Z M 26.460938 234.855469 "/>
<path style=" stroke:none;fill-rule:nonzero;fill:rgb(100%,100%,100%);fill-opacity:0.784314;" d="M 15.957031 67.496094 C 15.90625 67.929688 15.875 68.371094 15.875 68.820312 C 15.875 69.039062 15.882812 69.257812 15.898438 69.476562 C 15.910156 69.253906 15.929688 69.035156 15.957031 68.820312 C 16.605469 74.054688 21.046875 78.082031 26.460938 78.082031 L 227.5625 78.082031 C 232.980469 78.082031 237.417969 74.054688 238.066406 68.820312 C 238.09375 69.035156 238.113281 69.253906 238.128906 69.476562 C 238.140625 69.257812 238.148438 69.039062 238.148438 68.820312 C 238.148438 68.371094 238.121094 67.929688 238.066406 67.496094 C 237.417969 72.730469 232.980469 76.757812 227.5625 76.757812 L 26.460938 76.757812 C 21.046875 76.757812 16.605469 72.730469 15.957031 67.496094 Z M 15.957031 67.496094 "/>
<path style=" stroke:none;fill-rule:nonzero;fill:rgb(12.941177%,12.941177%,12.941177%);fill-opacity:1;" d="M 26.460938 59.464844 C 21.171875 59.464844 16.734375 63.066406 15.480469 67.964844 C 15.449219 68.089844 15.449219 68.214844 15.480469 68.339844 C 16.734375 73.238281 21.171875 76.839844 26.460938 76.839844 L 227.5625 76.839844 C 232.851562 76.839844 237.292969 73.238281 238.542969 68.339844 C 238.574219 68.214844 238.574219 68.089844 238.542969 67.964844 C 237.292969 63.066406 232.851562 59.464844 227.5625 59.464844 Z M 26.460938 60.964844 L 227.5625 60.964844 C 232.105469 60.964844 235.886719 64 237.035156 68.152344 C 235.886719 72.304688 232.105469 75.339844 227.5625 75.339844 L 26.460938 75.339844 C 21.917969 75.339844 18.140625 72.304688 16.988281 68.152344 C 18.140625 64 21.917969 60.964844 26.460938 60.964844 Z M 26.460938 60.964844 "/>
<path style="fill-rule:nonzero;fill:rgb(0%,0%,0%);fill-opacity:0.313725;stroke-width:3;stroke-linecap:round;stroke-linejoin:round;stroke:rgb(12.941177%,12.941177%,12.941177%);stroke-opacity:1;stroke-miterlimit:4;" d="M 75.992784 -336.785519 C 87.68573 -336.78459 97.159205 -329.676213 97.158274 -320.912675 C 97.155156 -312.141638 87.685128 -305.033247 75.992182 -305.034176 C 64.299237 -305.035104 54.825761 -312.143481 54.828879 -320.914519 C 54.82981 -329.678057 64.299838 -336.786447 75.992784 -336.785519 Z M 75.992784 -336.785519 " transform="matrix(0.140013,0.480046,-0.480046,0.140013,0,107.510266)"/>
<path style="fill-rule:nonzero;fill:rgb(0%,0%,0%);fill-opacity:0.313725;stroke-width:3;stroke-linecap:round;stroke-linejoin:round;stroke:rgb(12.941177%,12.941177%,12.941177%);stroke-opacity:1;stroke-miterlimit:4;" d="M -66.217961 150.795524 C -54.522828 150.788953 -45.049352 157.89733 -45.052471 166.668367 C -45.053402 175.431905 -54.523429 182.540296 -66.216375 182.539367 C -77.909321 182.538439 -87.384984 175.437561 -87.381866 166.666524 C -87.380935 157.902986 -77.910907 150.794595 -66.217961 150.795524 Z M -66.217961 150.795524 " transform="matrix(-0.140013,0.480046,0.480046,0.140013,0,107.510266)"/>
<path style=" stroke:none;fill-rule:nonzero;fill:rgb(0%,0%,0%);fill-opacity:0.196078;" d="M 26.460938 60.214844 C 21.511719 60.214844 17.375 63.578125 16.207031 68.152344 C 17.375 72.726562 21.511719 76.089844 26.460938 76.089844 L 227.5625 76.089844 C 232.511719 76.089844 236.648438 72.726562 237.816406 68.152344 C 236.648438 63.578125 232.511719 60.214844 227.5625 60.214844 Z M 26.460938 60.214844 "/>
<path style=" stroke:none;fill-rule:nonzero;fill:url(#linear3);" d="M 15.875 134.304688 L 15.875 176.640625 C 15.875 182.503906 20.597656 187.226562 26.460938 187.226562 L 227.5625 187.226562 C 233.425781 187.226562 238.148438 182.503906 238.148438 176.640625 L 238.148438 134.304688 Z M 15.875 134.304688 "/>
<path style="fill-rule:nonzero;fill:url(#linear4);stroke-width:3;stroke-linecap:round;stroke-linejoin:round;stroke:rgb(12.941177%,12.941177%,12.941177%);stroke-opacity:1;stroke-miterlimit:4;" d="M 328.195221 -20.057679 C 323.062899 -20.104549 318.727376 -16.261166 318.157118 -11.160091 C 308.142449 68.9182 292.91734 115.01536 278.410913 135.646202 C 271.153794 145.96553 264.841896 149.551125 259.64708 150.269806 C 254.444452 150.996299 248.655942 149.105855 241.74254 143.450145 C 227.923547 132.146537 212.932791 106.352125 202.99624 77.206471 C 193.059689 48.053005 187.778943 15.446743 189.880305 -9.058729 C 190.224022 -12.644324 188.622612 -16.136178 185.677581 -18.206293 C 182.73255 -20.276408 178.90479 -20.604501 175.655101 -19.065586 C 172.397599 -17.52667 170.225932 -14.36291 169.95252 -10.769503 C 167.491818 17.930881 173.389692 52.326034 184.060548 83.658979 C 194.739216 114.984113 209.776842 143.137675 229.079686 158.933041 C 238.735014 166.830724 250.288599 171.767753 262.404629 170.080414 C 274.528471 168.385264 285.527421 160.300098 294.768726 147.152916 C 313.259148 120.858552 327.804634 72.847512 338.006784 -8.675953 C 338.405184 -11.527243 337.553703 -14.40978 335.678882 -16.58926 C 333.796249 -18.760927 331.069947 -20.026432 328.195221 -20.057679 Z M 328.195221 -20.057679 " transform="matrix(0.500048,0,0,0.500048,0,107.510266)"/>
<path style="fill-rule:nonzero;fill:rgb(0%,0%,0%);fill-opacity:0.313725;stroke-width:11.338583;stroke-linecap:round;stroke-linejoin:round;stroke:rgb(12.941177%,12.941177%,12.941177%);stroke-opacity:1;stroke-miterlimit:4;" d="M 685.121618 556.482321 C 670.12305 556.187074 655.065432 563.095863 642.576466 575.112433 L 721.614198 575.112433 C 715.236854 567.081703 706.969926 561.176755 697.197237 558.312855 C 693.211397 557.16139 689.166508 556.54137 685.121618 556.482321 Z M 685.121618 556.482321 " transform="matrix(0.132304,0,0,0.132304,0,0)"/>
<path style="fill-rule:nonzero;fill:rgb(0%,0%,0%);fill-opacity:0.313725;stroke-width:11.338583;stroke-linecap:round;stroke-linejoin:round;stroke:rgb(12.941177%,12.941177%,12.941177%);stroke-opacity:1;stroke-miterlimit:4;" d="M 1234.488476 550.075452 C 1230.443587 550.164026 1226.398697 550.754521 1222.412857 551.905986 C 1210.189614 555.47848 1200.357876 563.804457 1193.53766 575.112433 L 1282.997626 575.112433 C 1269.534344 559.169072 1251.967123 549.75068 1234.488476 550.075452 Z M 1234.488476 550.075452 " transform="matrix(0.132304,0,0,0.132304,0,0)"/>
<path style=" stroke:none;fill-rule:nonzero;fill:rgb(12.941177%,12.941177%,12.941177%);fill-opacity:1;" d="M 26.460938 59.464844 C 20.195312 59.464844 15.125 64.53125 15.125 70.796875 L 15.125 224.269531 C 15.125 230.539062 20.195312 235.605469 26.460938 235.605469 L 227.5625 235.605469 C 233.828125 235.605469 238.898438 230.539062 238.898438 224.269531 L 238.898438 70.796875 C 238.898438 64.53125 233.828125 59.464844 227.5625 59.464844 Z M 26.460938 60.964844 L 227.5625 60.964844 C 233.023438 60.964844 237.398438 65.335938 237.398438 70.796875 L 237.398438 224.269531 C 237.398438 229.734375 233.023438 234.105469 227.5625 234.105469 L 26.460938 234.105469 C 21 234.105469 16.625 229.734375 16.625 224.269531 L 16.625 70.796875 C 16.625 65.335938 21 60.964844 26.460938 60.964844 Z M 26.460938 60.964844 "/>
</g>
</svg>
