<svg height="64pt" viewBox="0 0 64 64" width="64pt" xmlns="http://www.w3.org/2000/svg" xmlns:xlink="http://www.w3.org/1999/xlink"><linearGradient id="a"><stop offset="0" stop-opacity=".27451"/><stop offset="1" stop-opacity="0"/></linearGradient><linearGradient id="b" gradientUnits="userSpaceOnUse" x1="33.076089" x2="33.076089" xlink:href="#a" y1="56.067871" y2="58.71395875004"/><linearGradient id="c"><stop offset="0" stop-opacity=".313725"/><stop offset=".222222" stop-opacity=".27451"/><stop offset="1" stop-opacity="0"/></linearGradient><radialGradient id="d" cx="450.90894" cy="189.57936" gradientTransform="matrix(.00000035 -.156265 -.281277 -.0000002 98.969136 127.190669)" gradientUnits="userSpaceOnUse" r="21.166656" xlink:href="#c"/><radialGradient id="e" cx="450.90894" cy="189.57936" gradientTransform="matrix(-.00000035 .156265 .281277 .0000002 -36.786104 -15.054957)" gradientUnits="userSpaceOnUse" r="21.166656" xlink:href="#c"/><radialGradient id="f" cx="450.90894" cy="189.57936" gradientTransform="matrix(-.00000035 -.156265 .281277 -.0000002 -36.786104 127.190669)" gradientUnits="userSpaceOnUse" r="21.166656" xlink:href="#c"/><radialGradient id="g" cx="450.90894" cy="189.57936" gradientTransform="matrix(.00000035 .156265 -.281277 .0000002 98.969133 -15.054959)" gradientUnits="userSpaceOnUse" r="21.166656" xlink:href="#c"/><linearGradient id="h" gradientUnits="userSpaceOnUse" x1="31.091534" x2="31.091534" y1="56.06789909502" y2="5.79222444893"><stop offset="0" stop-color="#ce93d8"/><stop offset="1" stop-color="#e1bee7"/></linearGradient><linearGradient id="i" gradientTransform="matrix(.0597883 0 0 .218771 30.084846 -32.721819)" gradientUnits="userSpaceOnUse" x1="249.18942" x2="249.18942" xlink:href="#a" y1="233.5" y2="254.66669"/><linearGradient id="j"><stop offset="0" stop-color="#ab47bc"/><stop offset="1" stop-color="#ba68c8"/></linearGradient><linearGradient id="k" gradientUnits="userSpaceOnUse" x1="42.33739649992" x2="42.33739649992" xlink:href="#j" y1="56.067868" y2="5.79220824996"/><filter id="l" height="100%" width="100%" x="0%" y="0%"><feColorMatrix in="SourceGraphic" type="matrix" values="0 0 0 0 1 0 0 0 0 1 0 0 0 0 1 0 0 0 1 0"/></filter><mask id="m"><g filter="url(#l)"><path d="m0 0h64v64h-64z" fill-opacity=".988235"/></g></mask><linearGradient id="n" gradientUnits="userSpaceOnUse" x1="959.9985249261" x2="939.9984842897" xlink:href="#j" y1="1695.1157464686" y2="175.1176322626"/><clipPath id="o"><path d="m0 0h64v64h-64z"/></clipPath><path d="m15.875 56.066406h30.429688v2.648438h-30.429688zm0 0" fill="url(#b)"/><path d="m46.304688 56.066406h5.292968v-2.644531h-5.292968zm0 0" fill="url(#d)"/><path d="m15.875 56.066406h-5.289062v2.648438h5.289062zm0 0" fill="url(#e)"/><path d="m15.875 56.066406h-5.289062v-2.644531h5.289062zm0 0" fill="url(#f)"/><path d="m46.304688 56.066406h5.292968v2.648438h-5.292968zm0 0" fill="url(#g)"/><path d="m37.085938 5.792969h-23.855469c-1.464844 0-2.644531 1.179687-2.644531 2.644531v44.984375c0 1.464844 1.179687 2.644531 2.644531 2.644531h35.722656c1.464844 0 2.644531-1.179687 2.644531-2.644531v-33.113281zm0 0" fill="url(#h)"/><path d="m37.046875 18.359375h12.566406l1.984375 1.984375v2.648438h-14.550781zm0 0" fill="url(#i)"/><path d="m10.585938 52.394531v1.027344c0 1.464844 1.179687 2.644531 2.644531 2.644531h35.722656c1.464844 0 2.644531-1.179687 2.644531-2.644531v-1.027344c0 1.464844-1.179687 2.644531-2.644531 2.644531h-35.722656c-1.464844 0-2.644531-1.179687-2.644531-2.644531zm0 0" fill-opacity=".235294"/><path d="m13.230469 5.792969c-1.464844 0-2.644531 1.179687-2.644531 2.644531v.992188c0-1.464844 1.179687-2.644532 2.644531-2.644532h23.855469l14.511718 14.515625v-.992187l-14.511718-14.515625zm0 0" fill="#f6f6f6" fill-opacity=".588235"/><path d="m51.597656 20.308594-14.511718-14.515625v11.867187c0 1.464844 1.179687 2.648438 2.644531 2.648438zm0 0" fill="url(#k)"/><path d="m37.085938 17.039062v.621094c0 1.464844 1.179687 2.648438 2.644531 2.648438h11.867187l-.621094-.625h-11.246093c-1.464844 0-2.644531-1.179688-2.644531-2.644532zm0 0" fill-opacity=".235294"/><path d="m37.085938 5.792969v.992187l13.519531 13.523438h.992187zm0 0" fill="#fff" fill-opacity=".392157"/><path d="m37.082031 5.605469c-.101562 0-.183593.085937-.183593.1875v11.867187c0 1.566406 1.265624 2.835938 2.832031 2.835938h11.867187c.078125-.003906.144532-.046875.175782-.117188.027343-.070312.011718-.152344-.042969-.203125l-14.515625-14.515625c-.035156-.035156-.082032-.054687-.132813-.054687zm.191407.640625 13.871093 13.871094h-11.414062c-1.367188 0-2.457031-1.089844-2.457031-2.457032zm0 0" fill="#212121"/><path d="m13.230469 5.605469c-1.566407 0-2.832031 1.265625-2.832031 2.832031v44.984375c0 1.566406 1.265624 2.832031 2.832031 2.832031h35.722656c1.566406 0 2.832031-1.265625 2.832031-2.832031v-33.113281c0-.050782-.019531-.097656-.054687-.132813l-14.515625-14.515625c-.035156-.035156-.082032-.054687-.128906-.054687zm0 .375h23.777343l14.402344 14.402343v33.039063c0 1.363281-1.09375 2.457031-2.457031 2.457031h-35.722656c-1.367188 0-2.457031-1.09375-2.457031-2.457031v-44.984375c0-1.363281 1.089843-2.457031 2.457031-2.457031zm0 0" fill="#212121"/><g clip-path="url(#o)" mask="url(#m)"><path d="m939.949621 695.130478c-188.367841 0-340.006905 98.140235-340.006905 220.018362 0 121.878126 151.639064 220.018362 340.006905 220.018362l260.05391 119.988543v-197.933857c49.95586-38.382162 79.952996-87.865626 79.952996-142.073048 0-121.878127-151.639065-220.018362-340.006906-220.018362zm0 0" fill="url(#n)" stroke="#212121" stroke-linecap="round" stroke-linejoin="round" stroke-width="11.338583" transform="scale(.0330761)"/></g></svg>