<svg xmlns="http://www.w3.org/2000/svg" width="32pt" height="32pt" viewBox="0 0 32 32"><path d="M3.969 6.203a1.982 1.982 0 0 0-1.985 1.984v15.88c0 1.097.887 1.984 1.985 1.984h12.398a7.314 7.314 0 0 1-.46-1.985H5.292a1.32 1.32 0 0 1-1.324-1.324V9.512c0-.735.59-1.325 1.324-1.325h19.844c.734 0 1.324.59 1.324 1.325v7.402a7.287 7.287 0 0 1 3.387 3.617c.351-.234.582-.636.582-1.097V12.82a1.32 1.32 0 0 0-1.325-1.324h-.66V8.187a1.982 1.982 0 0 0-1.984-1.984zm0 0" fill="#424242"/><path d="M26.129 18.11l-7.277 5.956h3.308l-1.984 4.63 7.277-5.954h-3.308zm0 0" fill-rule="evenodd" fill="#ff7043"/><path d="M15.133 10.172h.164c.687 0 1.242.594 1.242 1.324v5.293c0 .73-.555 1.32-1.242 1.32h-.164c-.688 0-1.242-.59-1.242-1.32v-5.293c0-.73.554-1.324 1.242-1.324zm0 0M15.215 19.434a1.325 1.325 0 0 1 0 2.648 1.325 1.325 0 0 1 0-2.648zm0 0" fill="#ef5350" fill-opacity=".957"/></svg>