
<svg xmlns="http://www.w3.org/2000/svg" xmlns:xlink="http://www.w3.org/1999/xlink" width="32px" height="32px" viewBox="0 0 32 32" version="1.1">
<defs>
<radialGradient id="radial0" gradientUnits="userSpaceOnUse" cx="450.908997" cy="189.578995" fx="450.908997" fy="189.578995" r="21.167" gradientTransform="matrix(0,-0.07814,-0.14064,0,44.523998,63.596001)">
<stop offset="0" style="stop-color:rgb(0%,0%,0%);stop-opacity:0.314;"/>
<stop offset="0.222" style="stop-color:rgb(0%,0%,0%);stop-opacity:0.275;"/>
<stop offset="1" style="stop-color:rgb(0%,0%,0%);stop-opacity:0;"/>
</radialGradient>
<radialGradient id="radial1" gradientUnits="userSpaceOnUse" cx="450.908997" cy="189.578995" fx="450.908997" fy="189.578995" r="21.167" gradientTransform="matrix(0,0.07814,0.14064,0,-12.77,-7.528)">
<stop offset="0" style="stop-color:rgb(0%,0%,0%);stop-opacity:0.314;"/>
<stop offset="0.222" style="stop-color:rgb(0%,0%,0%);stop-opacity:0.275;"/>
<stop offset="1" style="stop-color:rgb(0%,0%,0%);stop-opacity:0;"/>
</radialGradient>
<radialGradient id="radial2" gradientUnits="userSpaceOnUse" cx="450.908997" cy="189.578995" fx="450.908997" fy="189.578995" r="21.167" gradientTransform="matrix(0,-0.07814,0.14064,0,-12.77,63.596001)">
<stop offset="0" style="stop-color:rgb(0%,0%,0%);stop-opacity:0.314;"/>
<stop offset="0.222" style="stop-color:rgb(0%,0%,0%);stop-opacity:0.275;"/>
<stop offset="1" style="stop-color:rgb(0%,0%,0%);stop-opacity:0;"/>
</radialGradient>
<radialGradient id="radial3" gradientUnits="userSpaceOnUse" cx="450.908997" cy="189.578995" fx="450.908997" fy="189.578995" r="21.167" gradientTransform="matrix(0,0.07814,-0.14064,0,44.523998,-7.528)">
<stop offset="0" style="stop-color:rgb(0%,0%,0%);stop-opacity:0.314;"/>
<stop offset="0.222" style="stop-color:rgb(0%,0%,0%);stop-opacity:0.275;"/>
<stop offset="1" style="stop-color:rgb(0%,0%,0%);stop-opacity:0;"/>
</radialGradient>
<linearGradient id="linear0" gradientUnits="userSpaceOnUse" x1="255.322998" y1="233.5" x2="255.322998" y2="254.667007" gradientTransform="matrix(0.01336,0,0,0.0625,12.466,13.44)">
<stop offset="0" style="stop-color:rgb(0%,0%,0%);stop-opacity:0.275;"/>
<stop offset="1" style="stop-color:rgb(0%,0%,0%);stop-opacity:0;"/>
</linearGradient>
<linearGradient id="linear1" gradientUnits="userSpaceOnUse" x1="275.166992" y1="233.5" x2="275.166992" y2="-168.667007" >
<stop offset="0" style="stop-color:rgb(93.725491%,32.549021%,31.37255%);stop-opacity:1;"/>
<stop offset="1" style="stop-color:rgb(89.803922%,45.09804%,45.09804%);stop-opacity:1;"/>
</linearGradient>
<linearGradient id="linear2" gradientUnits="userSpaceOnUse" x1="254" y1="159.417007" x2="254" y2="-105.167" gradientTransform="matrix(3.77953,0,0,3.77953,-0.000000000000005329,812.598022)">
<stop offset="0" style="stop-color:rgb(87.843138%,87.843138%,87.843138%);stop-opacity:1;"/>
<stop offset="1" style="stop-color:rgb(93.333334%,93.333334%,93.333334%);stop-opacity:1;"/>
</linearGradient>
</defs>
<g id="surface1">
<path style=" stroke:none;fill-rule:nonzero;fill:url(#radial0);" d="M 18.195312 28.03125 L 20.835938 28.03125 L 20.835938 26.710938 L 18.195312 26.710938 Z M 18.195312 28.03125 "/>
<path style=" stroke:none;fill-rule:nonzero;fill:url(#radial1);" d="M 13.5625 28.03125 L 10.914062 28.03125 L 10.914062 29.359375 L 13.5625 29.359375 Z M 13.5625 28.03125 "/>
<path style=" stroke:none;fill-rule:nonzero;fill:url(#radial2);" d="M 13.5625 28.03125 L 10.914062 28.03125 L 10.914062 26.710938 L 13.5625 26.710938 Z M 13.5625 28.03125 "/>
<path style=" stroke:none;fill-rule:nonzero;fill:url(#radial3);" d="M 18.195312 28.03125 L 20.835938 28.03125 L 20.835938 29.359375 L 18.195312 29.359375 Z M 18.195312 28.03125 "/>
<path style=" stroke:none;fill-rule:nonzero;fill:url(#linear0);" d="M 13.5625 27.703125 L 18.195312 27.703125 L 18.195312 29.359375 L 13.5625 29.359375 Z M 13.5625 27.703125 "/>
<path style="fill-rule:nonzero;fill:url(#linear1);stroke-width:3;stroke-linecap:round;stroke-linejoin:miter;stroke:rgb(20%,20%,20%);stroke-opacity:1;stroke-miterlimit:4;" d="M 254 -168.664993 C 365.125 -168.664993 455.125 -78.664993 455.125 32.460007 C 455.125 143.460007 365.125 233.460007 254 233.460007 C 143 233.460007 52.875 143.460007 52.875 32.460007 C 52.875 -78.664993 143 -168.664993 254 -168.664993 Z M 254 -168.664993 " transform="matrix(0.0625,0,0,0.0625,0,13.44)"/>
<path style=" stroke:none;fill-rule:nonzero;fill:rgb(0%,0%,0%);fill-opacity:0.196;" d="M 15.875 28.03125 C 12.539062 28.039062 9.335938 26.71875 6.976562 24.359375 C 4.617188 22.007812 3.296875 18.804688 3.304688 15.46875 L 3.304688 15.34375 C 3.359375 22.242188 8.976562 27.804688 15.875 27.789062 C 22.773438 27.804688 28.390625 22.242188 28.445312 15.34375 L 28.445312 15.46875 C 28.453125 18.804688 27.132812 22.007812 24.773438 24.359375 C 22.414062 26.71875 19.210938 28.039062 15.875 28.03125 Z M 15.875 28.03125 "/>
<path style=" stroke:none;fill-rule:nonzero;fill:rgb(100%,100%,100%);fill-opacity:0.392;" d="M 15.875 2.898438 C 12.539062 2.890625 9.335938 4.210938 6.976562 6.570312 C 4.617188 8.929688 3.296875 12.132812 3.304688 15.46875 L 3.304688 15.585938 C 3.359375 8.6875 8.976562 3.125 15.875 3.140625 C 22.773438 3.125 28.390625 8.6875 28.445312 15.585938 L 28.445312 15.46875 C 28.453125 12.132812 27.132812 8.929688 24.773438 6.570312 C 22.414062 4.210938 19.210938 2.890625 15.875 2.898438 Z M 15.875 2.898438 "/>
<path style=" stroke:none;fill-rule:nonzero;fill:rgb(12.941177%,12.941177%,12.941177%);fill-opacity:1;" d="M 15.875 2.804688 C 12.515625 2.796875 9.289062 4.125 6.914062 6.507812 C 4.53125 8.882812 3.203125 12.109375 3.210938 15.46875 C 3.203125 18.828125 4.539062 22.054688 6.914062 24.429688 C 9.289062 26.804688 12.515625 28.132812 15.875 28.125 C 19.234375 28.132812 22.460938 26.804688 24.835938 24.429688 C 27.210938 22.054688 28.546875 18.828125 28.539062 15.46875 C 28.546875 12.109375 27.21875 8.882812 24.835938 6.507812 C 22.460938 4.125 19.234375 2.796875 15.875 2.804688 Z M 15.875 2.992188 C 19.1875 2.984375 22.367188 4.296875 24.703125 6.640625 C 27.046875 8.976562 28.359375 12.15625 28.351562 15.46875 C 28.359375 18.78125 27.046875 21.953125 24.703125 24.296875 C 22.359375 26.632812 19.1875 27.945312 15.875 27.9375 C 12.5625 27.945312 9.390625 26.632812 7.046875 24.296875 C 4.703125 21.953125 3.390625 18.78125 3.398438 15.46875 C 3.390625 12.15625 4.703125 8.976562 7.046875 6.632812 C 9.390625 4.296875 12.5625 2.984375 15.875 2.992188 Z M 15.875 2.992188 "/>
<path style="fill-rule:nonzero;fill:url(#linear2);stroke-width:11.339;stroke-linecap:square;stroke-linejoin:round;stroke:rgb(12.941177%,12.941177%,12.941177%);stroke-opacity:1;stroke-miterlimit:4;" d="M 879.854675 415.389924 C 857.650065 415.259369 839.972302 433.010162 839.834476 454.742488 L 839.956577 1015.001957 C 839.826022 1037.206567 858.056369 1055.349344 880.260979 1055.479898 L 1040.401544 1055.376505 C 1062.133869 1055.51433 1079.804362 1037.291254 1079.934917 1015.086644 L 1079.812816 454.827175 C 1079.950642 433.094849 1061.727566 415.424356 1039.99524 415.28653 Z M 960.049141 1175.184865 C 893.442582 1175.265485 839.937007 1228.525133 840.017627 1295.131692 C 840.090976 1361.265966 893.357895 1415.243825 959.964454 1415.163205 C 1026.571012 1415.082585 1080.069316 1361.350653 1079.995967 1295.216379 C 1079.915347 1228.60982 1026.655699 1175.104245 960.049141 1175.184865 Z M 960.049141 1175.184865 " transform="matrix(0.016538,0.000254604,-0.000254604,0.016538,0,0)"/>
</g>
</svg>
