<?xml version="1.0" encoding="UTF-8"?>
<svg xmlns="http://www.w3.org/2000/svg" xmlns:xlink="http://www.w3.org/1999/xlink" width="24pt" height="24pt" viewBox="0 0 24 24" version="1.1">
<defs>
<linearGradient id="linear0" gradientUnits="userSpaceOnUse" x1="254" y1="233.5" x2="254" y2="254.666672" gradientTransform="matrix(0.0468795,0,0,0.0468795,-0.0000028613,10.079089)">
<stop offset="0" style="stop-color:rgb(0%,0%,0%);stop-opacity:0.27451;"/>
<stop offset="1" style="stop-color:rgb(0%,0%,0%);stop-opacity:0;"/>
</linearGradient>
<radialGradient id="radial0" gradientUnits="userSpaceOnUse" cx="450.908936" cy="189.579361" fx="450.908936" fy="189.579361" r="21.166656" gradientTransform="matrix(0.000000130628,-0.0585994,-0.105479,-0.0000000761539,39.842197,47.696499)">
<stop offset="0" style="stop-color:rgb(0%,0%,0%);stop-opacity:0.313725;"/>
<stop offset="0.222222" style="stop-color:rgb(0%,0%,0%);stop-opacity:0.27451;"/>
<stop offset="1" style="stop-color:rgb(0%,0%,0%);stop-opacity:0;"/>
</radialGradient>
<radialGradient id="radial1" gradientUnits="userSpaceOnUse" cx="450.908936" cy="189.579361" fx="450.908936" fy="189.579361" r="21.166656" gradientTransform="matrix(-0.000000130628,0.0585994,0.105479,0.0000000761539,-15.90339,-5.645609)">
<stop offset="0" style="stop-color:rgb(0%,0%,0%);stop-opacity:0.313725;"/>
<stop offset="0.222222" style="stop-color:rgb(0%,0%,0%);stop-opacity:0.27451;"/>
<stop offset="1" style="stop-color:rgb(0%,0%,0%);stop-opacity:0;"/>
</radialGradient>
<radialGradient id="radial2" gradientUnits="userSpaceOnUse" cx="450.908936" cy="189.579361" fx="450.908936" fy="189.579361" r="21.166656" gradientTransform="matrix(-0.000000130628,-0.0585994,0.105479,-0.0000000761539,-15.90339,47.696499)">
<stop offset="0" style="stop-color:rgb(0%,0%,0%);stop-opacity:0.313725;"/>
<stop offset="0.222222" style="stop-color:rgb(0%,0%,0%);stop-opacity:0.27451;"/>
<stop offset="1" style="stop-color:rgb(0%,0%,0%);stop-opacity:0;"/>
</radialGradient>
<radialGradient id="radial3" gradientUnits="userSpaceOnUse" cx="450.908936" cy="189.579361" fx="450.908936" fy="189.579361" r="21.166656" gradientTransform="matrix(0.000000130628,0.0585994,-0.105479,0.0000000761539,39.842196,-5.64561)">
<stop offset="0" style="stop-color:rgb(0%,0%,0%);stop-opacity:0.313725;"/>
<stop offset="0.222222" style="stop-color:rgb(0%,0%,0%);stop-opacity:0.27451;"/>
<stop offset="1" style="stop-color:rgb(0%,0%,0%);stop-opacity:0;"/>
</radialGradient>
<linearGradient id="linear1" gradientUnits="userSpaceOnUse" x1="254" y1="106.500008" x2="254" y2="233.5" gradientTransform="matrix(0.0468795,0,0,0.0468795,0,10.079087)">
<stop offset="0" style="stop-color:rgb(63.137255%,53.333333%,49.803922%);stop-opacity:1;"/>
<stop offset="1" style="stop-color:rgb(55.294118%,43.137255%,38.823529%);stop-opacity:1;"/>
</linearGradient>
<linearGradient id="linear2" gradientUnits="userSpaceOnUse" x1="254" y1="-168.666656" x2="254" y2="106.5" gradientTransform="matrix(0.0468795,0,0,0.0468795,0,10.079087)">
<stop offset="0" style="stop-color:rgb(63.137255%,53.333333%,49.803922%);stop-opacity:1;"/>
<stop offset="1" style="stop-color:rgb(55.294118%,43.137255%,38.823529%);stop-opacity:1;"/>
</linearGradient>
<linearGradient id="linear3" gradientUnits="userSpaceOnUse" x1="291.041656" y1="138.25" x2="291.041656" y2="201.75" gradientTransform="matrix(1,0,0,1,-201.083313,-0.0000152588)">
<stop offset="0" style="stop-color:rgb(100%,99.215686%,90.588235%);stop-opacity:1;"/>
<stop offset="1" style="stop-color:rgb(100%,97.647059%,76.862745%);stop-opacity:1;"/>
</linearGradient>
<linearGradient id="linear4" gradientUnits="userSpaceOnUse" x1="254" y1="85.333336" x2="254" y2="-147.5" gradientTransform="matrix(0.0468795,0,0,0.0468795,0,10.079087)">
<stop offset="0" style="stop-color:rgb(63.137255%,53.333333%,49.803922%);stop-opacity:1;"/>
<stop offset="1" style="stop-color:rgb(55.294118%,43.137255%,38.823529%);stop-opacity:1;"/>
</linearGradient>
<linearGradient id="linear5" gradientUnits="userSpaceOnUse" x1="291.041656" y1="138.25" x2="291.041656" y2="201.75" gradientTransform="matrix(1,0,0,1,116.416687,-0.0000152588)">
<stop offset="0" style="stop-color:rgb(100%,99.215686%,90.588235%);stop-opacity:1;"/>
<stop offset="1" style="stop-color:rgb(100%,97.647059%,76.862745%);stop-opacity:1;"/>
</linearGradient>
<linearGradient id="linear6" gradientUnits="userSpaceOnUse" x1="254" y1="138.25" x2="254" y2="201.75" gradientTransform="matrix(0.0468795,0,0,0.0468795,0,10.079087)">
<stop offset="0" style="stop-color:rgb(100%,67.058824%,56.862745%);stop-opacity:1;"/>
<stop offset="1" style="stop-color:rgb(98.431373%,91.372549%,90.588235%);stop-opacity:1;"/>
</linearGradient>
<linearGradient id="linear7" gradientUnits="userSpaceOnUse" x1="211.666672" y1="201.75" x2="211.666672" y2="127.666656" gradientTransform="matrix(0.0468795,0,0,0.0401824,0,11.430221)">
<stop offset="0" style="stop-color:rgb(93.72549%,32.54902%,31.372549%);stop-opacity:1;"/>
<stop offset="1" style="stop-color:rgb(89.803922%,45.098039%,45.098039%);stop-opacity:1;"/>
</linearGradient>
<linearGradient id="linear8" gradientUnits="userSpaceOnUse" x1="254" y1="-94.583336" x2="254" y2="32.416664" gradientTransform="matrix(0.0468795,0,0,0.0468795,0,10.079087)">
<stop offset="0" style="stop-color:rgb(30.588235%,20.392157%,18.039216%);stop-opacity:1;"/>
<stop offset="1" style="stop-color:rgb(47.45098%,33.333333%,28.235294%);stop-opacity:1;"/>
</linearGradient>
<linearGradient id="linear9" gradientUnits="userSpaceOnUse" x1="960" y1="1135.118164" x2="960" y2="255.118118" gradientTransform="matrix(0.0124035,0,0,0.0124035,0,0)">
<stop offset="0" style="stop-color:rgb(100%,99.215686%,90.588235%);stop-opacity:1;"/>
<stop offset="1" style="stop-color:rgb(100%,97.647059%,76.862745%);stop-opacity:1;"/>
</linearGradient>
</defs>
<g id="surface1">
<path style=" stroke:none;fill-rule:nonzero;fill:url(#linear0);" d="M 3.84375 21.027344 L 20.09375 21.027344 L 20.09375 22.019531 L 3.84375 22.019531 Z M 3.84375 21.027344 "/>
<path style=" stroke:none;fill-rule:nonzero;fill:url(#radial0);" d="M 20.09375 21.027344 L 22.078125 21.027344 L 22.078125 20.03125 L 20.09375 20.03125 Z M 20.09375 21.027344 "/>
<path style=" stroke:none;fill-rule:nonzero;fill:url(#radial1);" d="M 3.84375 21.027344 L 1.859375 21.027344 L 1.859375 22.019531 L 3.84375 22.019531 Z M 3.84375 21.027344 "/>
<path style=" stroke:none;fill-rule:nonzero;fill:url(#radial2);" d="M 3.84375 21.027344 L 1.859375 21.027344 L 1.859375 20.03125 L 3.84375 20.03125 Z M 3.84375 21.027344 "/>
<path style=" stroke:none;fill-rule:nonzero;fill:url(#radial3);" d="M 20.09375 21.027344 L 22.078125 21.027344 L 22.078125 22.019531 L 20.09375 22.019531 Z M 20.09375 21.027344 "/>
<path style=" stroke:none;fill-rule:nonzero;fill:url(#linear1);" d="M 2.730469 15.070312 C 2.316406 15.070312 1.984375 15.402344 1.984375 15.816406 L 1.984375 20.28125 C 1.984375 20.695312 2.316406 21.027344 2.730469 21.027344 L 21.085938 21.027344 C 21.5 21.027344 21.832031 20.695312 21.832031 20.28125 L 21.832031 15.816406 C 21.832031 15.402344 21.5 15.070312 21.085938 15.070312 Z M 2.730469 15.070312 "/>
<path style=" stroke:none;fill-rule:nonzero;fill:url(#linear2);" d="M 2.730469 2.171875 L 21.085938 2.171875 C 21.496094 2.171875 21.832031 2.503906 21.832031 2.917969 L 21.832031 14.328125 C 21.832031 14.738281 21.496094 15.070312 21.085938 15.070312 L 2.730469 15.070312 C 2.316406 15.070312 1.984375 14.738281 1.984375 14.328125 L 1.984375 2.917969 C 1.984375 2.503906 2.316406 2.171875 2.730469 2.171875 Z M 2.730469 2.171875 "/>
<path style=" stroke:none;fill-rule:nonzero;fill:rgb(0%,0%,0%);fill-opacity:0.196078;" d="M 2.976562 21.027344 C 2.425781 21.027344 1.984375 20.582031 1.984375 20.03125 L 1.984375 19.910156 C 1.984375 20.457031 2.425781 20.902344 2.976562 20.902344 L 20.839844 20.902344 C 21.386719 20.902344 21.832031 20.457031 21.832031 19.910156 L 21.832031 20.03125 C 21.832031 20.582031 21.386719 21.027344 20.839844 21.027344 Z M 2.976562 21.027344 "/>
<path style=" stroke:none;fill-rule:nonzero;fill:rgb(90.196079%,90.196079%,90.196079%);fill-opacity:0.588235;" d="M 2.976562 2.171875 C 2.425781 2.171875 1.984375 2.613281 1.984375 3.164062 L 1.984375 3.289062 C 1.984375 2.738281 2.425781 2.296875 2.976562 2.296875 L 20.839844 2.296875 C 21.386719 2.296875 21.832031 2.738281 21.832031 3.289062 L 21.832031 3.164062 C 21.832031 2.613281 21.386719 2.171875 20.839844 2.171875 Z M 2.976562 2.171875 "/>
<path style="fill-rule:nonzero;fill:url(#linear3);stroke-width:3;stroke-linecap:round;stroke-linejoin:miter;stroke:rgb(12.941177%,12.941177%,12.941177%);stroke-opacity:1;stroke-miterlimit:4;" d="M 95.240905 138.21627 C 112.822559 138.21627 126.987873 152.464909 126.987873 169.963238 C 126.987873 187.544892 112.822559 201.710206 95.240905 201.710206 C 77.742576 201.710206 63.493937 187.544892 63.493937 169.963238 C 63.493937 152.464909 77.742576 138.21627 95.240905 138.21627 Z M 95.240905 138.21627 " transform="matrix(0.0468795,0,0,0.0468795,0,10.079087)"/>
<path style=" stroke:none;fill-rule:nonzero;fill:rgb(90.196079%,90.196079%,90.196079%);fill-opacity:0.588235;" d="M 2.976562 15.070312 C 2.425781 15.070312 1.984375 15.515625 1.984375 16.0625 L 1.984375 16.1875 C 1.984375 15.636719 2.425781 15.195312 2.976562 15.195312 L 20.839844 15.195312 C 21.386719 15.195312 21.832031 15.636719 21.832031 16.1875 L 21.832031 16.0625 C 21.832031 15.515625 21.386719 15.070312 20.839844 15.070312 Z M 2.976562 15.070312 "/>
<path style=" stroke:none;fill-rule:nonzero;fill:url(#linear4);" d="M 3.96875 3.164062 L 19.84375 3.164062 C 20.394531 3.164062 20.839844 3.609375 20.839844 4.15625 L 20.839844 13.085938 C 20.839844 13.636719 20.394531 14.078125 19.84375 14.078125 L 3.96875 14.078125 C 3.421875 14.078125 2.976562 13.636719 2.976562 13.085938 L 2.976562 4.15625 C 2.976562 3.609375 3.421875 3.164062 3.96875 3.164062 Z M 3.96875 3.164062 "/>
<path style="fill-rule:nonzero;fill:url(#linear5);stroke-width:3;stroke-linecap:round;stroke-linejoin:miter;stroke:rgb(12.941177%,12.941177%,12.941177%);stroke-opacity:1;stroke-miterlimit:4;" d="M 412.710588 138.21627 C 430.292242 138.21627 444.540882 152.464909 444.540882 169.963238 C 444.540882 187.544892 430.292242 201.710206 412.710588 201.710206 C 395.212259 201.710206 380.96362 187.544892 380.96362 169.963238 C 380.96362 152.464909 395.212259 138.21627 412.710588 138.21627 Z M 412.710588 138.21627 " transform="matrix(0.0468795,0,0,0.0468795,0,10.079087)"/>
<path style=" stroke:none;fill-rule:nonzero;fill:url(#linear6);" d="M 7.441406 16.558594 L 16.371094 16.558594 C 16.648438 16.558594 16.867188 16.78125 16.867188 17.054688 L 16.867188 19.039062 C 16.867188 19.316406 16.648438 19.535156 16.371094 19.535156 L 7.441406 19.535156 C 7.167969 19.535156 6.945312 19.316406 6.945312 19.039062 L 6.945312 17.054688 C 6.945312 16.78125 7.167969 16.558594 7.441406 16.558594 Z M 7.441406 16.558594 "/>
<path style=" stroke:none;fill-rule:nonzero;fill:rgb(25.882354%,25.882354%,25.882354%);fill-opacity:1;" d="M 11.785156 18.046875 L 12.03125 18.046875 L 12.03125 19.535156 L 11.785156 19.535156 Z M 11.785156 18.046875 "/>
<path style=" stroke:none;fill-rule:nonzero;fill:rgb(25.882354%,25.882354%,25.882354%);fill-opacity:1;" d="M 12.777344 18.046875 L 13.023438 18.046875 L 13.023438 19.535156 L 12.777344 19.535156 Z M 12.777344 18.046875 "/>
<path style=" stroke:none;fill-rule:nonzero;fill:rgb(25.882354%,25.882354%,25.882354%);fill-opacity:1;" d="M 13.769531 18.046875 L 14.015625 18.046875 L 14.015625 19.535156 L 13.769531 19.535156 Z M 13.769531 18.046875 "/>
<path style=" stroke:none;fill-rule:nonzero;fill:rgb(25.882354%,25.882354%,25.882354%);fill-opacity:1;" d="M 14.761719 18.046875 L 15.007812 18.046875 L 15.007812 19.535156 L 14.761719 19.535156 Z M 14.761719 18.046875 "/>
<path style=" stroke:none;fill-rule:nonzero;fill:rgb(25.882354%,25.882354%,25.882354%);fill-opacity:1;" d="M 15.753906 18.046875 L 16 18.046875 L 16 19.535156 L 15.753906 19.535156 Z M 15.753906 18.046875 "/>
<path style=" stroke:none;fill-rule:nonzero;fill:rgb(25.882354%,25.882354%,25.882354%);fill-opacity:1;" d="M 7.8125 18.046875 L 8.0625 18.046875 L 8.0625 19.535156 L 7.8125 19.535156 Z M 7.8125 18.046875 "/>
<path style=" stroke:none;fill-rule:nonzero;fill:rgb(25.882354%,25.882354%,25.882354%);fill-opacity:1;" d="M 8.804688 18.046875 L 9.054688 18.046875 L 9.054688 19.535156 L 8.804688 19.535156 Z M 8.804688 18.046875 "/>
<path style=" stroke:none;fill-rule:nonzero;fill:url(#linear7);" d="M 9.675781 16.558594 L 10.171875 16.558594 L 10.171875 19.535156 L 9.675781 19.535156 Z M 9.675781 16.558594 "/>
<path style=" stroke:none;fill-rule:nonzero;fill:rgb(25.882354%,25.882354%,25.882354%);fill-opacity:1;" d="M 10.792969 18.046875 L 11.039062 18.046875 L 11.039062 19.535156 L 10.792969 19.535156 Z M 10.792969 18.046875 "/>
<path style="fill:none;stroke-width:3;stroke-linecap:square;stroke-linejoin:bevel;stroke:rgb(12.941177%,12.941177%,12.941177%);stroke-opacity:1;stroke-miterlimit:4;" d="M 158.734842 138.21627 L 349.216651 138.21627 C 355.132753 138.21627 359.798974 142.965816 359.798974 148.798592 L 359.798974 191.127883 C 359.798974 197.043985 355.132753 201.710206 349.216651 201.710206 L 158.734842 201.710206 C 152.902065 201.710206 148.152519 197.043985 148.152519 191.127883 L 148.152519 148.798592 C 148.152519 142.965816 152.902065 138.21627 158.734842 138.21627 Z M 158.734842 138.21627 " transform="matrix(0.0468795,0,0,0.0468795,0,10.079087)"/>
<path style=" stroke:none;fill-rule:nonzero;fill:url(#linear8);" d="M 11.90625 5.644531 C 14.648438 5.644531 16.867188 6.976562 16.867188 8.621094 C 16.867188 10.265625 14.648438 11.597656 11.90625 11.597656 C 9.167969 11.597656 6.945312 10.265625 6.945312 8.621094 C 6.945312 6.976562 9.167969 5.644531 11.90625 5.644531 Z M 11.90625 5.644531 "/>
<path style=" stroke:none;fill-rule:nonzero;fill:url(#linear9);" d="M 3.96875 3.164062 L 3.96875 3.660156 L 3.472656 3.660156 L 3.472656 3.296875 C 3.378906 3.351562 3.296875 3.417969 3.226562 3.5 L 3.226562 3.660156 L 3.109375 3.660156 C 3.066406 3.738281 3.03125 3.820312 3.007812 3.910156 L 3.226562 3.910156 L 3.226562 4.40625 L 2.976562 4.40625 L 2.976562 4.652344 L 3.226562 4.652344 L 3.226562 5.148438 L 2.976562 5.148438 L 2.976562 5.398438 L 3.226562 5.398438 L 3.226562 5.894531 L 2.976562 5.894531 L 2.976562 6.140625 L 3.226562 6.140625 L 3.226562 6.636719 L 2.976562 6.636719 L 2.976562 6.886719 L 3.226562 6.886719 L 3.226562 7.382812 L 2.976562 7.382812 L 2.976562 7.628906 L 3.226562 7.628906 L 3.226562 8.125 L 2.976562 8.125 L 2.976562 8.375 L 3.226562 8.375 L 3.226562 8.871094 L 2.976562 8.871094 L 2.976562 9.117188 L 3.226562 9.117188 L 3.226562 9.613281 L 2.976562 9.613281 L 2.976562 9.863281 L 3.226562 9.863281 L 3.226562 10.359375 L 2.976562 10.359375 L 2.976562 10.605469 L 3.226562 10.605469 L 3.226562 11.101562 L 2.976562 11.101562 L 2.976562 11.351562 L 3.226562 11.351562 L 3.226562 11.847656 L 2.976562 11.847656 L 2.976562 12.09375 L 3.226562 12.09375 L 3.226562 12.589844 L 2.976562 12.589844 L 2.976562 12.839844 L 3.226562 12.839844 L 3.226562 13.335938 L 3.007812 13.335938 C 3.03125 13.421875 3.066406 13.507812 3.109375 13.582031 L 3.226562 13.582031 L 3.226562 13.746094 C 3.296875 13.824219 3.378906 13.894531 3.472656 13.945312 L 3.472656 13.582031 L 3.96875 13.582031 L 3.96875 14.078125 L 4.21875 14.078125 L 4.21875 13.582031 L 4.714844 13.582031 L 4.714844 14.078125 L 4.960938 14.078125 L 4.960938 13.582031 L 5.457031 13.582031 L 5.457031 14.078125 L 5.707031 14.078125 L 5.707031 13.582031 L 6.203125 13.582031 L 6.203125 14.078125 L 6.449219 14.078125 L 6.449219 13.582031 L 6.945312 13.582031 L 6.945312 14.078125 L 7.195312 14.078125 L 7.195312 13.582031 L 7.691406 13.582031 L 7.691406 14.078125 L 7.9375 14.078125 L 7.9375 13.582031 L 8.433594 13.582031 L 8.433594 14.078125 L 8.683594 14.078125 L 8.683594 13.582031 L 9.179688 13.582031 L 9.179688 14.078125 L 9.425781 14.078125 L 9.425781 13.582031 L 9.921875 13.582031 L 9.921875 14.078125 L 10.171875 14.078125 L 10.171875 13.582031 L 10.667969 13.582031 L 10.667969 14.078125 L 10.914062 14.078125 L 10.914062 13.582031 L 11.410156 13.582031 L 11.410156 14.078125 L 11.660156 14.078125 L 11.660156 13.582031 L 12.15625 13.582031 L 12.15625 14.078125 L 12.402344 14.078125 L 12.402344 13.582031 L 12.898438 13.582031 L 12.898438 14.078125 L 13.148438 14.078125 L 13.148438 13.582031 L 13.644531 13.582031 L 13.644531 14.078125 L 13.890625 14.078125 L 13.890625 13.582031 L 14.386719 13.582031 L 14.386719 14.078125 L 14.636719 14.078125 L 14.636719 13.582031 L 15.132812 13.582031 L 15.132812 14.078125 L 15.378906 14.078125 L 15.378906 13.582031 L 15.875 13.582031 L 15.875 14.078125 L 16.125 14.078125 L 16.125 13.582031 L 16.621094 13.582031 L 16.621094 14.078125 L 16.867188 14.078125 L 16.867188 13.582031 L 17.363281 13.582031 L 17.363281 14.078125 L 17.613281 14.078125 L 17.613281 13.582031 L 18.109375 13.582031 L 18.109375 14.078125 L 18.355469 14.078125 L 18.355469 13.582031 L 18.851562 13.582031 L 18.851562 14.078125 L 19.101562 14.078125 L 19.101562 13.582031 L 19.597656 13.582031 L 19.597656 14.078125 L 19.84375 14.078125 L 19.84375 13.582031 L 20.339844 13.582031 L 20.339844 13.945312 C 20.433594 13.894531 20.519531 13.824219 20.589844 13.746094 L 20.589844 13.582031 L 20.707031 13.582031 C 20.75 13.507812 20.785156 13.421875 20.808594 13.335938 L 20.589844 13.335938 L 20.589844 12.839844 L 20.839844 12.839844 L 20.839844 12.589844 L 20.589844 12.589844 L 20.589844 12.09375 L 20.839844 12.09375 L 20.839844 11.847656 L 20.589844 11.847656 L 20.589844 11.351562 L 20.839844 11.351562 L 20.839844 11.101562 L 20.589844 11.101562 L 20.589844 10.605469 L 20.839844 10.605469 L 20.839844 10.359375 L 20.589844 10.359375 L 20.589844 9.863281 L 20.839844 9.863281 L 20.839844 9.613281 L 20.589844 9.613281 L 20.589844 9.117188 L 20.839844 9.117188 L 20.839844 8.871094 L 20.589844 8.871094 L 20.589844 8.375 L 20.839844 8.375 L 20.839844 8.125 L 20.589844 8.125 L 20.589844 7.628906 L 20.839844 7.628906 L 20.839844 7.382812 L 20.589844 7.382812 L 20.589844 6.886719 L 20.839844 6.886719 L 20.839844 6.636719 L 20.589844 6.636719 L 20.589844 6.140625 L 20.839844 6.140625 L 20.839844 5.894531 L 20.589844 5.894531 L 20.589844 5.398438 L 20.839844 5.398438 L 20.839844 5.148438 L 20.589844 5.148438 L 20.589844 4.652344 L 20.839844 4.652344 L 20.839844 4.40625 L 20.589844 4.40625 L 20.589844 3.910156 L 20.808594 3.910156 C 20.785156 3.820312 20.75 3.738281 20.707031 3.660156 L 20.589844 3.660156 L 20.589844 3.5 C 20.519531 3.417969 20.433594 3.351562 20.339844 3.296875 L 20.339844 3.660156 L 19.84375 3.660156 L 19.84375 3.164062 L 19.597656 3.164062 L 19.597656 3.660156 L 19.101562 3.660156 L 19.101562 3.164062 L 18.851562 3.164062 L 18.851562 3.660156 L 18.355469 3.660156 L 18.355469 3.164062 L 18.109375 3.164062 L 18.109375 3.660156 L 17.613281 3.660156 L 17.613281 3.164062 L 17.363281 3.164062 L 17.363281 3.660156 L 16.867188 3.660156 L 16.867188 3.164062 L 16.621094 3.164062 L 16.621094 3.660156 L 16.125 3.660156 L 16.125 3.164062 L 15.875 3.164062 L 15.875 3.660156 L 15.378906 3.660156 L 15.378906 3.164062 L 15.132812 3.164062 L 15.132812 3.660156 L 14.636719 3.660156 L 14.636719 3.164062 L 14.386719 3.164062 L 14.386719 3.660156 L 13.890625 3.660156 L 13.890625 3.164062 L 13.644531 3.164062 L 13.644531 3.660156 L 13.148438 3.660156 L 13.148438 3.164062 L 12.898438 3.164062 L 12.898438 3.660156 L 12.402344 3.660156 L 12.402344 3.164062 L 12.15625 3.164062 L 12.15625 3.660156 L 11.660156 3.660156 L 11.660156 3.164062 L 11.410156 3.164062 L 11.410156 3.660156 L 10.914062 3.660156 L 10.914062 3.164062 L 10.667969 3.164062 L 10.667969 3.660156 L 10.171875 3.660156 L 10.171875 3.164062 L 9.921875 3.164062 L 9.921875 3.660156 L 9.425781 3.660156 L 9.425781 3.164062 L 9.179688 3.164062 L 9.179688 3.660156 L 8.683594 3.660156 L 8.683594 3.164062 L 8.433594 3.164062 L 8.433594 3.660156 L 7.9375 3.660156 L 7.9375 3.164062 L 7.691406 3.164062 L 7.691406 3.660156 L 7.195312 3.660156 L 7.195312 3.164062 L 6.945312 3.164062 L 6.945312 3.660156 L 6.449219 3.660156 L 6.449219 3.164062 L 6.203125 3.164062 L 6.203125 3.660156 L 5.707031 3.660156 L 5.707031 3.164062 L 5.457031 3.164062 L 5.457031 3.660156 L 4.960938 3.660156 L 4.960938 3.164062 L 4.714844 3.164062 L 4.714844 3.660156 L 4.21875 3.660156 L 4.21875 3.164062 Z M 3.472656 3.910156 L 3.96875 3.910156 L 3.96875 4.40625 L 3.472656 4.40625 Z M 4.21875 3.910156 L 4.714844 3.910156 L 4.714844 4.40625 L 4.21875 4.40625 Z M 4.960938 3.910156 L 5.457031 3.910156 L 5.457031 4.40625 L 4.960938 4.40625 Z M 5.707031 3.910156 L 6.203125 3.910156 L 6.203125 4.40625 L 5.707031 4.40625 Z M 6.449219 3.910156 L 6.945312 3.910156 L 6.945312 4.40625 L 6.449219 4.40625 Z M 7.195312 3.910156 L 7.691406 3.910156 L 7.691406 4.40625 L 7.195312 4.40625 Z M 7.9375 3.910156 L 8.433594 3.910156 L 8.433594 4.40625 L 7.9375 4.40625 Z M 8.683594 3.910156 L 9.179688 3.910156 L 9.179688 4.40625 L 8.683594 4.40625 Z M 9.425781 3.910156 L 9.921875 3.910156 L 9.921875 4.40625 L 9.425781 4.40625 Z M 10.171875 3.910156 L 10.667969 3.910156 L 10.667969 4.40625 L 10.171875 4.40625 Z M 10.914062 3.910156 L 11.410156 3.910156 L 11.410156 4.40625 L 10.914062 4.40625 Z M 11.660156 3.910156 L 12.15625 3.910156 L 12.15625 4.40625 L 11.660156 4.40625 Z M 12.402344 3.910156 L 12.898438 3.910156 L 12.898438 4.40625 L 12.402344 4.40625 Z M 13.148438 3.910156 L 13.644531 3.910156 L 13.644531 4.40625 L 13.148438 4.40625 Z M 13.890625 3.910156 L 14.386719 3.910156 L 14.386719 4.40625 L 13.890625 4.40625 Z M 14.636719 3.910156 L 15.132812 3.910156 L 15.132812 4.40625 L 14.636719 4.40625 Z M 15.378906 3.910156 L 15.875 3.910156 L 15.875 4.40625 L 15.378906 4.40625 Z M 16.125 3.910156 L 16.621094 3.910156 L 16.621094 4.40625 L 16.125 4.40625 Z M 16.867188 3.910156 L 17.363281 3.910156 L 17.363281 4.40625 L 16.867188 4.40625 Z M 17.613281 3.910156 L 18.109375 3.910156 L 18.109375 4.40625 L 17.613281 4.40625 Z M 18.355469 3.910156 L 18.851562 3.910156 L 18.851562 4.40625 L 18.355469 4.40625 Z M 19.101562 3.910156 L 19.597656 3.910156 L 19.597656 4.40625 L 19.101562 4.40625 Z M 19.84375 3.910156 L 20.339844 3.910156 L 20.339844 4.40625 L 19.84375 4.40625 Z M 3.472656 4.652344 L 3.96875 4.652344 L 3.96875 5.148438 L 3.472656 5.148438 Z M 4.21875 4.652344 L 4.714844 4.652344 L 4.714844 5.148438 L 4.21875 5.148438 Z M 4.960938 4.652344 L 5.457031 4.652344 L 5.457031 5.148438 L 4.960938 5.148438 Z M 5.707031 4.652344 L 6.203125 4.652344 L 6.203125 5.148438 L 5.707031 5.148438 Z M 6.449219 4.652344 L 6.945312 4.652344 L 6.945312 5.148438 L 6.449219 5.148438 Z M 7.195312 4.652344 L 7.691406 4.652344 L 7.691406 5.148438 L 7.195312 5.148438 Z M 7.9375 4.652344 L 8.433594 4.652344 L 8.433594 5.148438 L 7.9375 5.148438 Z M 8.683594 4.652344 L 9.179688 4.652344 L 9.179688 5.148438 L 8.683594 5.148438 Z M 9.425781 4.652344 L 9.921875 4.652344 L 9.921875 5.148438 L 9.425781 5.148438 Z M 10.171875 4.652344 L 10.667969 4.652344 L 10.667969 5.148438 L 10.171875 5.148438 Z M 10.914062 4.652344 L 11.410156 4.652344 L 11.410156 5.148438 L 10.914062 5.148438 Z M 11.660156 4.652344 L 12.15625 4.652344 L 12.15625 5.148438 L 11.660156 5.148438 Z M 12.402344 4.652344 L 12.898438 4.652344 L 12.898438 5.148438 L 12.402344 5.148438 Z M 13.148438 4.652344 L 13.644531 4.652344 L 13.644531 5.148438 L 13.148438 5.148438 Z M 13.890625 4.652344 L 14.386719 4.652344 L 14.386719 5.148438 L 13.890625 5.148438 Z M 14.636719 4.652344 L 15.132812 4.652344 L 15.132812 5.148438 L 14.636719 5.148438 Z M 15.378906 4.652344 L 15.875 4.652344 L 15.875 5.148438 L 15.378906 5.148438 Z M 16.125 4.652344 L 16.621094 4.652344 L 16.621094 5.148438 L 16.125 5.148438 Z M 16.867188 4.652344 L 17.363281 4.652344 L 17.363281 5.148438 L 16.867188 5.148438 Z M 17.613281 4.652344 L 18.109375 4.652344 L 18.109375 5.148438 L 17.613281 5.148438 Z M 18.355469 4.652344 L 18.851562 4.652344 L 18.851562 5.148438 L 18.355469 5.148438 Z M 19.101562 4.652344 L 19.597656 4.652344 L 19.597656 5.148438 L 19.101562 5.148438 Z M 19.84375 4.652344 L 20.339844 4.652344 L 20.339844 5.148438 L 19.84375 5.148438 Z M 3.472656 5.398438 L 3.96875 5.398438 L 3.96875 5.894531 L 3.472656 5.894531 Z M 4.21875 5.398438 L 4.714844 5.398438 L 4.714844 5.894531 L 4.21875 5.894531 Z M 4.960938 5.398438 L 5.457031 5.398438 L 5.457031 5.894531 L 4.960938 5.894531 Z M 5.707031 5.398438 L 6.203125 5.398438 L 6.203125 5.894531 L 5.707031 5.894531 Z M 6.449219 5.398438 L 6.945312 5.398438 L 6.945312 5.894531 L 6.449219 5.894531 Z M 7.195312 5.398438 L 7.691406 5.398438 L 7.691406 5.894531 L 7.195312 5.894531 Z M 7.9375 5.398438 L 8.433594 5.398438 L 8.433594 5.894531 L 7.9375 5.894531 Z M 8.683594 5.398438 L 9.179688 5.398438 L 9.179688 5.894531 L 8.683594 5.894531 Z M 9.425781 5.398438 L 9.921875 5.398438 L 9.921875 5.894531 L 9.425781 5.894531 Z M 10.171875 5.398438 L 10.667969 5.398438 L 10.667969 5.894531 L 10.171875 5.894531 Z M 10.914062 5.398438 L 11.410156 5.398438 L 11.410156 5.894531 L 10.914062 5.894531 Z M 11.660156 5.398438 L 12.15625 5.398438 L 12.15625 5.894531 L 11.660156 5.894531 Z M 12.402344 5.398438 L 12.898438 5.398438 L 12.898438 5.894531 L 12.402344 5.894531 Z M 13.148438 5.398438 L 13.644531 5.398438 L 13.644531 5.894531 L 13.148438 5.894531 Z M 13.890625 5.398438 L 14.386719 5.398438 L 14.386719 5.894531 L 13.890625 5.894531 Z M 14.636719 5.398438 L 15.132812 5.398438 L 15.132812 5.894531 L 14.636719 5.894531 Z M 15.378906 5.398438 L 15.875 5.398438 L 15.875 5.894531 L 15.378906 5.894531 Z M 16.125 5.398438 L 16.621094 5.398438 L 16.621094 5.894531 L 16.125 5.894531 Z M 16.867188 5.398438 L 17.363281 5.398438 L 17.363281 5.894531 L 16.867188 5.894531 Z M 17.613281 5.398438 L 18.109375 5.398438 L 18.109375 5.894531 L 17.613281 5.894531 Z M 18.355469 5.398438 L 18.851562 5.398438 L 18.851562 5.894531 L 18.355469 5.894531 Z M 19.101562 5.398438 L 19.597656 5.398438 L 19.597656 5.894531 L 19.101562 5.894531 Z M 19.84375 5.398438 L 20.339844 5.398438 L 20.339844 5.894531 L 19.84375 5.894531 Z M 3.472656 6.140625 L 3.96875 6.140625 L 3.96875 6.636719 L 3.472656 6.636719 Z M 4.21875 6.140625 L 4.714844 6.140625 L 4.714844 6.636719 L 4.21875 6.636719 Z M 4.960938 6.140625 L 5.457031 6.140625 L 5.457031 6.636719 L 4.960938 6.636719 Z M 5.707031 6.140625 L 6.203125 6.140625 L 6.203125 6.636719 L 5.707031 6.636719 Z M 6.449219 6.140625 L 6.945312 6.140625 L 6.945312 6.636719 L 6.449219 6.636719 Z M 7.195312 6.140625 L 7.691406 6.140625 L 7.691406 6.636719 L 7.195312 6.636719 Z M 7.9375 6.140625 L 8.433594 6.140625 L 8.433594 6.636719 L 7.9375 6.636719 Z M 8.683594 6.140625 L 9.179688 6.140625 L 9.179688 6.636719 L 8.683594 6.636719 Z M 9.425781 6.140625 L 9.921875 6.140625 L 9.921875 6.636719 L 9.425781 6.636719 Z M 10.171875 6.140625 L 10.667969 6.140625 L 10.667969 6.636719 L 10.171875 6.636719 Z M 10.914062 6.140625 L 11.410156 6.140625 L 11.410156 6.636719 L 10.914062 6.636719 Z M 11.660156 6.140625 L 12.15625 6.140625 L 12.15625 6.636719 L 11.660156 6.636719 Z M 12.402344 6.140625 L 12.898438 6.140625 L 12.898438 6.636719 L 12.402344 6.636719 Z M 13.148438 6.140625 L 13.644531 6.140625 L 13.644531 6.636719 L 13.148438 6.636719 Z M 13.890625 6.140625 L 14.386719 6.140625 L 14.386719 6.636719 L 13.890625 6.636719 Z M 14.636719 6.140625 L 15.132812 6.140625 L 15.132812 6.636719 L 14.636719 6.636719 Z M 15.378906 6.140625 L 15.875 6.140625 L 15.875 6.636719 L 15.378906 6.636719 Z M 16.125 6.140625 L 16.621094 6.140625 L 16.621094 6.636719 L 16.125 6.636719 Z M 16.867188 6.140625 L 17.363281 6.140625 L 17.363281 6.636719 L 16.867188 6.636719 Z M 17.613281 6.140625 L 18.109375 6.140625 L 18.109375 6.636719 L 17.613281 6.636719 Z M 18.355469 6.140625 L 18.851562 6.140625 L 18.851562 6.636719 L 18.355469 6.636719 Z M 19.101562 6.140625 L 19.597656 6.140625 L 19.597656 6.636719 L 19.101562 6.636719 Z M 19.84375 6.140625 L 20.339844 6.140625 L 20.339844 6.636719 L 19.84375 6.636719 Z M 3.472656 6.886719 L 3.96875 6.886719 L 3.96875 7.382812 L 3.472656 7.382812 Z M 4.21875 6.886719 L 4.714844 6.886719 L 4.714844 7.382812 L 4.21875 7.382812 Z M 4.960938 6.886719 L 5.457031 6.886719 L 5.457031 7.382812 L 4.960938 7.382812 Z M 5.707031 6.886719 L 6.203125 6.886719 L 6.203125 7.382812 L 5.707031 7.382812 Z M 6.449219 6.886719 L 6.945312 6.886719 L 6.945312 7.382812 L 6.449219 7.382812 Z M 7.195312 6.886719 L 7.691406 6.886719 L 7.691406 7.382812 L 7.195312 7.382812 Z M 7.9375 6.886719 L 8.433594 6.886719 L 8.433594 7.382812 L 7.9375 7.382812 Z M 8.683594 6.886719 L 9.179688 6.886719 L 9.179688 7.382812 L 8.683594 7.382812 Z M 9.425781 6.886719 L 9.921875 6.886719 L 9.921875 7.382812 L 9.425781 7.382812 Z M 10.171875 6.886719 L 10.667969 6.886719 L 10.667969 7.382812 L 10.171875 7.382812 Z M 10.914062 6.886719 L 11.410156 6.886719 L 11.410156 7.382812 L 10.914062 7.382812 Z M 11.660156 6.886719 L 12.15625 6.886719 L 12.15625 7.382812 L 11.660156 7.382812 Z M 12.402344 6.886719 L 12.898438 6.886719 L 12.898438 7.382812 L 12.402344 7.382812 Z M 13.148438 6.886719 L 13.644531 6.886719 L 13.644531 7.382812 L 13.148438 7.382812 Z M 13.890625 6.886719 L 14.386719 6.886719 L 14.386719 7.382812 L 13.890625 7.382812 Z M 14.636719 6.886719 L 15.132812 6.886719 L 15.132812 7.382812 L 14.636719 7.382812 Z M 15.378906 6.886719 L 15.875 6.886719 L 15.875 7.382812 L 15.378906 7.382812 Z M 16.125 6.886719 L 16.621094 6.886719 L 16.621094 7.382812 L 16.125 7.382812 Z M 16.867188 6.886719 L 17.363281 6.886719 L 17.363281 7.382812 L 16.867188 7.382812 Z M 17.613281 6.886719 L 18.109375 6.886719 L 18.109375 7.382812 L 17.613281 7.382812 Z M 18.355469 6.886719 L 18.851562 6.886719 L 18.851562 7.382812 L 18.355469 7.382812 Z M 19.101562 6.886719 L 19.597656 6.886719 L 19.597656 7.382812 L 19.101562 7.382812 Z M 19.84375 6.886719 L 20.339844 6.886719 L 20.339844 7.382812 L 19.84375 7.382812 Z M 3.472656 7.628906 L 3.96875 7.628906 L 3.96875 8.125 L 3.472656 8.125 Z M 4.21875 7.628906 L 4.714844 7.628906 L 4.714844 8.125 L 4.21875 8.125 Z M 4.960938 7.628906 L 5.457031 7.628906 L 5.457031 8.125 L 4.960938 8.125 Z M 5.707031 7.628906 L 6.203125 7.628906 L 6.203125 8.125 L 5.707031 8.125 Z M 6.449219 7.628906 L 6.945312 7.628906 L 6.945312 8.125 L 6.449219 8.125 Z M 7.195312 7.628906 L 7.691406 7.628906 L 7.691406 8.125 L 7.195312 8.125 Z M 7.9375 7.628906 L 8.433594 7.628906 L 8.433594 8.125 L 7.9375 8.125 Z M 8.683594 7.628906 L 9.179688 7.628906 L 9.179688 8.125 L 8.683594 8.125 Z M 9.425781 7.628906 L 9.921875 7.628906 L 9.921875 8.125 L 9.425781 8.125 Z M 10.171875 7.628906 L 10.667969 7.628906 L 10.667969 8.125 L 10.171875 8.125 Z M 10.914062 7.628906 L 11.410156 7.628906 L 11.410156 8.125 L 10.914062 8.125 Z M 11.660156 7.628906 L 12.15625 7.628906 L 12.15625 8.125 L 11.660156 8.125 Z M 12.402344 7.628906 L 12.898438 7.628906 L 12.898438 8.125 L 12.402344 8.125 Z M 13.148438 7.628906 L 13.644531 7.628906 L 13.644531 8.125 L 13.148438 8.125 Z M 13.890625 7.628906 L 14.386719 7.628906 L 14.386719 8.125 L 13.890625 8.125 Z M 14.636719 7.628906 L 15.132812 7.628906 L 15.132812 8.125 L 14.636719 8.125 Z M 15.378906 7.628906 L 15.875 7.628906 L 15.875 8.125 L 15.378906 8.125 Z M 16.125 7.628906 L 16.621094 7.628906 L 16.621094 8.125 L 16.125 8.125 Z M 16.867188 7.628906 L 17.363281 7.628906 L 17.363281 8.125 L 16.867188 8.125 Z M 17.613281 7.628906 L 18.109375 7.628906 L 18.109375 8.125 L 17.613281 8.125 Z M 18.355469 7.628906 L 18.851562 7.628906 L 18.851562 8.125 L 18.355469 8.125 Z M 19.101562 7.628906 L 19.597656 7.628906 L 19.597656 8.125 L 19.101562 8.125 Z M 19.84375 7.628906 L 20.339844 7.628906 L 20.339844 8.125 L 19.84375 8.125 Z M 3.472656 8.375 L 3.96875 8.375 L 3.96875 8.871094 L 3.472656 8.871094 Z M 4.21875 8.375 L 4.714844 8.375 L 4.714844 8.871094 L 4.21875 8.871094 Z M 4.960938 8.375 L 5.457031 8.375 L 5.457031 8.871094 L 4.960938 8.871094 Z M 5.707031 8.375 L 6.203125 8.375 L 6.203125 8.871094 L 5.707031 8.871094 Z M 6.449219 8.375 L 6.945312 8.375 L 6.945312 8.871094 L 6.449219 8.871094 Z M 7.195312 8.375 L 7.691406 8.375 L 7.691406 8.871094 L 7.195312 8.871094 Z M 7.9375 8.375 L 8.433594 8.375 L 8.433594 8.871094 L 7.9375 8.871094 Z M 8.683594 8.375 L 9.179688 8.375 L 9.179688 8.871094 L 8.683594 8.871094 Z M 9.425781 8.375 L 9.921875 8.375 L 9.921875 8.871094 L 9.425781 8.871094 Z M 10.171875 8.375 L 10.667969 8.375 L 10.667969 8.871094 L 10.171875 8.871094 Z M 10.914062 8.375 L 11.410156 8.375 L 11.410156 8.871094 L 10.914062 8.871094 Z M 11.660156 8.375 L 12.15625 8.375 L 12.15625 8.871094 L 11.660156 8.871094 Z M 12.402344 8.375 L 12.898438 8.375 L 12.898438 8.871094 L 12.402344 8.871094 Z M 13.148438 8.375 L 13.644531 8.375 L 13.644531 8.871094 L 13.148438 8.871094 Z M 13.890625 8.375 L 14.386719 8.375 L 14.386719 8.871094 L 13.890625 8.871094 Z M 14.636719 8.375 L 15.132812 8.375 L 15.132812 8.871094 L 14.636719 8.871094 Z M 15.378906 8.375 L 15.875 8.375 L 15.875 8.871094 L 15.378906 8.871094 Z M 16.125 8.375 L 16.621094 8.375 L 16.621094 8.871094 L 16.125 8.871094 Z M 16.867188 8.375 L 17.363281 8.375 L 17.363281 8.871094 L 16.867188 8.871094 Z M 17.613281 8.375 L 18.109375 8.375 L 18.109375 8.871094 L 17.613281 8.871094 Z M 18.355469 8.375 L 18.851562 8.375 L 18.851562 8.871094 L 18.355469 8.871094 Z M 19.101562 8.375 L 19.597656 8.375 L 19.597656 8.871094 L 19.101562 8.871094 Z M 19.84375 8.375 L 20.339844 8.375 L 20.339844 8.871094 L 19.84375 8.871094 Z M 3.472656 9.117188 L 3.96875 9.117188 L 3.96875 9.613281 L 3.472656 9.613281 Z M 4.21875 9.117188 L 4.714844 9.117188 L 4.714844 9.613281 L 4.21875 9.613281 Z M 4.960938 9.117188 L 5.457031 9.117188 L 5.457031 9.613281 L 4.960938 9.613281 Z M 5.707031 9.117188 L 6.203125 9.117188 L 6.203125 9.613281 L 5.707031 9.613281 Z M 6.449219 9.117188 L 6.945312 9.117188 L 6.945312 9.613281 L 6.449219 9.613281 Z M 7.195312 9.117188 L 7.691406 9.117188 L 7.691406 9.613281 L 7.195312 9.613281 Z M 7.9375 9.117188 L 8.433594 9.117188 L 8.433594 9.613281 L 7.9375 9.613281 Z M 8.683594 9.117188 L 9.179688 9.117188 L 9.179688 9.613281 L 8.683594 9.613281 Z M 9.425781 9.117188 L 9.921875 9.117188 L 9.921875 9.613281 L 9.425781 9.613281 Z M 10.171875 9.117188 L 10.667969 9.117188 L 10.667969 9.613281 L 10.171875 9.613281 Z M 10.914062 9.117188 L 11.410156 9.117188 L 11.410156 9.613281 L 10.914062 9.613281 Z M 11.660156 9.117188 L 12.15625 9.117188 L 12.15625 9.613281 L 11.660156 9.613281 Z M 12.402344 9.117188 L 12.898438 9.117188 L 12.898438 9.613281 L 12.402344 9.613281 Z M 13.148438 9.117188 L 13.644531 9.117188 L 13.644531 9.613281 L 13.148438 9.613281 Z M 13.890625 9.117188 L 14.386719 9.117188 L 14.386719 9.613281 L 13.890625 9.613281 Z M 14.636719 9.117188 L 15.132812 9.117188 L 15.132812 9.613281 L 14.636719 9.613281 Z M 15.378906 9.117188 L 15.875 9.117188 L 15.875 9.613281 L 15.378906 9.613281 Z M 16.125 9.117188 L 16.621094 9.117188 L 16.621094 9.613281 L 16.125 9.613281 Z M 16.867188 9.117188 L 17.363281 9.117188 L 17.363281 9.613281 L 16.867188 9.613281 Z M 17.613281 9.117188 L 18.109375 9.117188 L 18.109375 9.613281 L 17.613281 9.613281 Z M 18.355469 9.117188 L 18.851562 9.117188 L 18.851562 9.613281 L 18.355469 9.613281 Z M 19.101562 9.117188 L 19.597656 9.117188 L 19.597656 9.613281 L 19.101562 9.613281 Z M 19.84375 9.117188 L 20.339844 9.117188 L 20.339844 9.613281 L 19.84375 9.613281 Z M 3.472656 9.863281 L 3.96875 9.863281 L 3.96875 10.359375 L 3.472656 10.359375 Z M 4.21875 9.863281 L 4.714844 9.863281 L 4.714844 10.359375 L 4.21875 10.359375 Z M 4.960938 9.863281 L 5.457031 9.863281 L 5.457031 10.359375 L 4.960938 10.359375 Z M 5.707031 9.863281 L 6.203125 9.863281 L 6.203125 10.359375 L 5.707031 10.359375 Z M 6.449219 9.863281 L 6.945312 9.863281 L 6.945312 10.359375 L 6.449219 10.359375 Z M 7.195312 9.863281 L 7.691406 9.863281 L 7.691406 10.359375 L 7.195312 10.359375 Z M 7.9375 9.863281 L 8.433594 9.863281 L 8.433594 10.359375 L 7.9375 10.359375 Z M 8.683594 9.863281 L 9.179688 9.863281 L 9.179688 10.359375 L 8.683594 10.359375 Z M 9.425781 9.863281 L 9.921875 9.863281 L 9.921875 10.359375 L 9.425781 10.359375 Z M 10.171875 9.863281 L 10.667969 9.863281 L 10.667969 10.359375 L 10.171875 10.359375 Z M 10.914062 9.863281 L 11.410156 9.863281 L 11.410156 10.359375 L 10.914062 10.359375 Z M 11.660156 9.863281 L 12.15625 9.863281 L 12.15625 10.359375 L 11.660156 10.359375 Z M 12.402344 9.863281 L 12.898438 9.863281 L 12.898438 10.359375 L 12.402344 10.359375 Z M 13.148438 9.863281 L 13.644531 9.863281 L 13.644531 10.359375 L 13.148438 10.359375 Z M 13.890625 9.863281 L 14.386719 9.863281 L 14.386719 10.359375 L 13.890625 10.359375 Z M 14.636719 9.863281 L 15.132812 9.863281 L 15.132812 10.359375 L 14.636719 10.359375 Z M 15.378906 9.863281 L 15.875 9.863281 L 15.875 10.359375 L 15.378906 10.359375 Z M 16.125 9.863281 L 16.621094 9.863281 L 16.621094 10.359375 L 16.125 10.359375 Z M 16.867188 9.863281 L 17.363281 9.863281 L 17.363281 10.359375 L 16.867188 10.359375 Z M 17.613281 9.863281 L 18.109375 9.863281 L 18.109375 10.359375 L 17.613281 10.359375 Z M 18.355469 9.863281 L 18.851562 9.863281 L 18.851562 10.359375 L 18.355469 10.359375 Z M 19.101562 9.863281 L 19.597656 9.863281 L 19.597656 10.359375 L 19.101562 10.359375 Z M 19.84375 9.863281 L 20.339844 9.863281 L 20.339844 10.359375 L 19.84375 10.359375 Z M 3.472656 10.605469 L 3.96875 10.605469 L 3.96875 11.101562 L 3.472656 11.101562 Z M 4.21875 10.605469 L 4.714844 10.605469 L 4.714844 11.101562 L 4.21875 11.101562 Z M 4.960938 10.605469 L 5.457031 10.605469 L 5.457031 11.101562 L 4.960938 11.101562 Z M 5.707031 10.605469 L 6.203125 10.605469 L 6.203125 11.101562 L 5.707031 11.101562 Z M 6.449219 10.605469 L 6.945312 10.605469 L 6.945312 11.101562 L 6.449219 11.101562 Z M 7.195312 10.605469 L 7.691406 10.605469 L 7.691406 11.101562 L 7.195312 11.101562 Z M 7.9375 10.605469 L 8.433594 10.605469 L 8.433594 11.101562 L 7.9375 11.101562 Z M 8.683594 10.605469 L 9.179688 10.605469 L 9.179688 11.101562 L 8.683594 11.101562 Z M 9.425781 10.605469 L 9.921875 10.605469 L 9.921875 11.101562 L 9.425781 11.101562 Z M 10.171875 10.605469 L 10.667969 10.605469 L 10.667969 11.101562 L 10.171875 11.101562 Z M 10.914062 10.605469 L 11.410156 10.605469 L 11.410156 11.101562 L 10.914062 11.101562 Z M 11.660156 10.605469 L 12.15625 10.605469 L 12.15625 11.101562 L 11.660156 11.101562 Z M 12.402344 10.605469 L 12.898438 10.605469 L 12.898438 11.101562 L 12.402344 11.101562 Z M 13.148438 10.605469 L 13.644531 10.605469 L 13.644531 11.101562 L 13.148438 11.101562 Z M 13.890625 10.605469 L 14.386719 10.605469 L 14.386719 11.101562 L 13.890625 11.101562 Z M 14.636719 10.605469 L 15.132812 10.605469 L 15.132812 11.101562 L 14.636719 11.101562 Z M 15.378906 10.605469 L 15.875 10.605469 L 15.875 11.101562 L 15.378906 11.101562 Z M 16.125 10.605469 L 16.621094 10.605469 L 16.621094 11.101562 L 16.125 11.101562 Z M 16.867188 10.605469 L 17.363281 10.605469 L 17.363281 11.101562 L 16.867188 11.101562 Z M 17.613281 10.605469 L 18.109375 10.605469 L 18.109375 11.101562 L 17.613281 11.101562 Z M 18.355469 10.605469 L 18.851562 10.605469 L 18.851562 11.101562 L 18.355469 11.101562 Z M 19.101562 10.605469 L 19.597656 10.605469 L 19.597656 11.101562 L 19.101562 11.101562 Z M 19.84375 10.605469 L 20.339844 10.605469 L 20.339844 11.101562 L 19.84375 11.101562 Z M 3.472656 11.351562 L 3.96875 11.351562 L 3.96875 11.847656 L 3.472656 11.847656 Z M 4.21875 11.351562 L 4.714844 11.351562 L 4.714844 11.847656 L 4.21875 11.847656 Z M 4.960938 11.351562 L 5.457031 11.351562 L 5.457031 11.847656 L 4.960938 11.847656 Z M 5.707031 11.351562 L 6.203125 11.351562 L 6.203125 11.847656 L 5.707031 11.847656 Z M 6.449219 11.351562 L 6.945312 11.351562 L 6.945312 11.847656 L 6.449219 11.847656 Z M 7.195312 11.351562 L 7.691406 11.351562 L 7.691406 11.847656 L 7.195312 11.847656 Z M 7.9375 11.351562 L 8.433594 11.351562 L 8.433594 11.847656 L 7.9375 11.847656 Z M 8.683594 11.351562 L 9.179688 11.351562 L 9.179688 11.847656 L 8.683594 11.847656 Z M 9.425781 11.351562 L 9.921875 11.351562 L 9.921875 11.847656 L 9.425781 11.847656 Z M 10.171875 11.351562 L 10.667969 11.351562 L 10.667969 11.847656 L 10.171875 11.847656 Z M 10.914062 11.351562 L 11.410156 11.351562 L 11.410156 11.847656 L 10.914062 11.847656 Z M 11.660156 11.351562 L 12.15625 11.351562 L 12.15625 11.847656 L 11.660156 11.847656 Z M 12.402344 11.351562 L 12.898438 11.351562 L 12.898438 11.847656 L 12.402344 11.847656 Z M 13.148438 11.351562 L 13.644531 11.351562 L 13.644531 11.847656 L 13.148438 11.847656 Z M 13.890625 11.351562 L 14.386719 11.351562 L 14.386719 11.847656 L 13.890625 11.847656 Z M 14.636719 11.351562 L 15.132812 11.351562 L 15.132812 11.847656 L 14.636719 11.847656 Z M 15.378906 11.351562 L 15.875 11.351562 L 15.875 11.847656 L 15.378906 11.847656 Z M 16.125 11.351562 L 16.621094 11.351562 L 16.621094 11.847656 L 16.125 11.847656 Z M 16.867188 11.351562 L 17.363281 11.351562 L 17.363281 11.847656 L 16.867188 11.847656 Z M 17.613281 11.351562 L 18.109375 11.351562 L 18.109375 11.847656 L 17.613281 11.847656 Z M 18.355469 11.351562 L 18.851562 11.351562 L 18.851562 11.847656 L 18.355469 11.847656 Z M 19.101562 11.351562 L 19.597656 11.351562 L 19.597656 11.847656 L 19.101562 11.847656 Z M 19.84375 11.351562 L 20.339844 11.351562 L 20.339844 11.847656 L 19.84375 11.847656 Z M 3.472656 12.09375 L 3.96875 12.09375 L 3.96875 12.589844 L 3.472656 12.589844 Z M 4.21875 12.09375 L 4.714844 12.09375 L 4.714844 12.589844 L 4.21875 12.589844 Z M 4.960938 12.09375 L 5.457031 12.09375 L 5.457031 12.589844 L 4.960938 12.589844 Z M 5.707031 12.09375 L 6.203125 12.09375 L 6.203125 12.589844 L 5.707031 12.589844 Z M 6.449219 12.09375 L 6.945312 12.09375 L 6.945312 12.589844 L 6.449219 12.589844 Z M 7.195312 12.09375 L 7.691406 12.09375 L 7.691406 12.589844 L 7.195312 12.589844 Z M 7.9375 12.09375 L 8.433594 12.09375 L 8.433594 12.589844 L 7.9375 12.589844 Z M 8.683594 12.09375 L 9.179688 12.09375 L 9.179688 12.589844 L 8.683594 12.589844 Z M 9.425781 12.09375 L 9.921875 12.09375 L 9.921875 12.589844 L 9.425781 12.589844 Z M 10.171875 12.09375 L 10.667969 12.09375 L 10.667969 12.589844 L 10.171875 12.589844 Z M 10.914062 12.09375 L 11.410156 12.09375 L 11.410156 12.589844 L 10.914062 12.589844 Z M 11.660156 12.09375 L 12.15625 12.09375 L 12.15625 12.589844 L 11.660156 12.589844 Z M 12.402344 12.09375 L 12.898438 12.09375 L 12.898438 12.589844 L 12.402344 12.589844 Z M 13.148438 12.09375 L 13.644531 12.09375 L 13.644531 12.589844 L 13.148438 12.589844 Z M 13.890625 12.09375 L 14.386719 12.09375 L 14.386719 12.589844 L 13.890625 12.589844 Z M 14.636719 12.09375 L 15.132812 12.09375 L 15.132812 12.589844 L 14.636719 12.589844 Z M 15.378906 12.09375 L 15.875 12.09375 L 15.875 12.589844 L 15.378906 12.589844 Z M 16.125 12.09375 L 16.621094 12.09375 L 16.621094 12.589844 L 16.125 12.589844 Z M 16.867188 12.09375 L 17.363281 12.09375 L 17.363281 12.589844 L 16.867188 12.589844 Z M 17.613281 12.09375 L 18.109375 12.09375 L 18.109375 12.589844 L 17.613281 12.589844 Z M 18.355469 12.09375 L 18.851562 12.09375 L 18.851562 12.589844 L 18.355469 12.589844 Z M 19.101562 12.09375 L 19.597656 12.09375 L 19.597656 12.589844 L 19.101562 12.589844 Z M 19.84375 12.09375 L 20.339844 12.09375 L 20.339844 12.589844 L 19.84375 12.589844 Z M 3.472656 12.839844 L 3.96875 12.839844 L 3.96875 13.335938 L 3.472656 13.335938 Z M 4.21875 12.839844 L 4.714844 12.839844 L 4.714844 13.335938 L 4.21875 13.335938 Z M 4.960938 12.839844 L 5.457031 12.839844 L 5.457031 13.335938 L 4.960938 13.335938 Z M 5.707031 12.839844 L 6.203125 12.839844 L 6.203125 13.335938 L 5.707031 13.335938 Z M 6.449219 12.839844 L 6.945312 12.839844 L 6.945312 13.335938 L 6.449219 13.335938 Z M 7.195312 12.839844 L 7.691406 12.839844 L 7.691406 13.335938 L 7.195312 13.335938 Z M 7.9375 12.839844 L 8.433594 12.839844 L 8.433594 13.335938 L 7.9375 13.335938 Z M 8.683594 12.839844 L 9.179688 12.839844 L 9.179688 13.335938 L 8.683594 13.335938 Z M 9.425781 12.839844 L 9.921875 12.839844 L 9.921875 13.335938 L 9.425781 13.335938 Z M 10.171875 12.839844 L 10.667969 12.839844 L 10.667969 13.335938 L 10.171875 13.335938 Z M 10.914062 12.839844 L 11.410156 12.839844 L 11.410156 13.335938 L 10.914062 13.335938 Z M 11.660156 12.839844 L 12.15625 12.839844 L 12.15625 13.335938 L 11.660156 13.335938 Z M 12.402344 12.839844 L 12.898438 12.839844 L 12.898438 13.335938 L 12.402344 13.335938 Z M 13.148438 12.839844 L 13.644531 12.839844 L 13.644531 13.335938 L 13.148438 13.335938 Z M 13.890625 12.839844 L 14.386719 12.839844 L 14.386719 13.335938 L 13.890625 13.335938 Z M 14.636719 12.839844 L 15.132812 12.839844 L 15.132812 13.335938 L 14.636719 13.335938 Z M 15.378906 12.839844 L 15.875 12.839844 L 15.875 13.335938 L 15.378906 13.335938 Z M 16.125 12.839844 L 16.621094 12.839844 L 16.621094 13.335938 L 16.125 13.335938 Z M 16.867188 12.839844 L 17.363281 12.839844 L 17.363281 13.335938 L 16.867188 13.335938 Z M 17.613281 12.839844 L 18.109375 12.839844 L 18.109375 13.335938 L 17.613281 13.335938 Z M 18.355469 12.839844 L 18.851562 12.839844 L 18.851562 13.335938 L 18.355469 13.335938 Z M 19.101562 12.839844 L 19.597656 12.839844 L 19.597656 13.335938 L 19.101562 13.335938 Z M 19.84375 12.839844 L 20.339844 12.839844 L 20.339844 13.335938 L 19.84375 13.335938 Z M 19.84375 12.839844 "/>
<path style="fill:none;stroke-width:3;stroke-linecap:square;stroke-linejoin:bevel;stroke:rgb(12.941177%,12.941177%,12.941177%);stroke-opacity:1;stroke-miterlimit:4;" d="M 84.658582 -147.506445 L 423.292911 -147.506445 C 435.041789 -147.506445 444.540882 -138.007352 444.540882 -126.3418 L 444.540882 64.14001 C 444.540882 75.888888 435.041789 85.304656 423.292911 85.304656 L 84.658582 85.304656 C 72.99303 85.304656 63.493937 75.888888 63.493937 64.14001 L 63.493937 -126.3418 C 63.493937 -138.007352 72.99303 -147.506445 84.658582 -147.506445 Z M 84.658582 -147.506445 " transform="matrix(0.0468795,0,0,0.0468795,0,10.079087)"/>
<path style=" stroke:none;fill-rule:nonzero;fill:rgb(12.941177%,12.941177%,12.941177%);fill-opacity:1;" d="M 2.730469 15 C 2.277344 15 1.914062 15.367188 1.914062 15.816406 L 1.914062 20.28125 C 1.914062 20.730469 2.277344 21.097656 2.730469 21.097656 L 21.085938 21.097656 C 21.535156 21.097656 21.902344 20.730469 21.902344 20.28125 L 21.902344 15.816406 C 21.902344 15.367188 21.535156 15 21.085938 15 Z M 2.730469 15.140625 L 21.085938 15.140625 C 21.460938 15.140625 21.761719 15.441406 21.761719 15.816406 L 21.761719 20.28125 C 21.761719 20.65625 21.460938 20.957031 21.085938 20.957031 L 2.730469 20.957031 C 2.355469 20.957031 2.054688 20.65625 2.054688 20.28125 L 2.054688 15.816406 C 2.054688 15.441406 2.355469 15.140625 2.730469 15.140625 Z M 2.730469 15.140625 "/>
<path style=" stroke:none;fill-rule:nonzero;fill:rgb(12.941177%,12.941177%,12.941177%);fill-opacity:1;" d="M 2.730469 2.101562 C 2.277344 2.101562 1.914062 2.464844 1.914062 2.917969 L 1.914062 14.328125 C 1.914062 14.777344 2.277344 15.140625 2.730469 15.140625 L 21.085938 15.140625 C 21.535156 15.140625 21.902344 14.777344 21.902344 14.328125 L 21.902344 2.917969 C 21.902344 2.464844 21.535156 2.101562 21.085938 2.101562 Z M 2.730469 2.242188 L 21.085938 2.242188 C 21.460938 2.242188 21.761719 2.542969 21.761719 2.917969 L 21.761719 14.328125 C 21.761719 14.703125 21.460938 15 21.085938 15 L 2.730469 15 C 2.355469 15 2.054688 14.703125 2.054688 14.328125 L 2.054688 2.917969 C 2.054688 2.542969 2.355469 2.242188 2.730469 2.242188 Z M 2.730469 2.242188 "/>
</g>
</svg>
