<?xml version="1.0" encoding="UTF-8"?>
<svg xmlns="http://www.w3.org/2000/svg" xmlns:xlink="http://www.w3.org/1999/xlink" width="24pt" height="24pt" viewBox="0 0 24 24" version="1.1">
<defs>
<radialGradient id="radial0" gradientUnits="userSpaceOnUse" cx="450.908936" cy="189.579361" fx="450.908936" fy="189.579361" r="21.166656" gradientTransform="matrix(0.000000130628,-0.0585994,-0.105479,-0.0000000761539,33.392364,47.696497)">
<stop offset="0" style="stop-color:rgb(0%,0%,0%);stop-opacity:0.313725;"/>
<stop offset="0.222222" style="stop-color:rgb(0%,0%,0%);stop-opacity:0.27451;"/>
<stop offset="1" style="stop-color:rgb(0%,0%,0%);stop-opacity:0;"/>
</radialGradient>
<radialGradient id="radial1" gradientUnits="userSpaceOnUse" cx="450.908936" cy="189.579361" fx="450.908936" fy="189.579361" r="21.166656" gradientTransform="matrix(-0.000000130628,0.0585994,0.105479,0.0000000761539,-9.577589,-5.645612)">
<stop offset="0" style="stop-color:rgb(0%,0%,0%);stop-opacity:0.313725;"/>
<stop offset="0.222222" style="stop-color:rgb(0%,0%,0%);stop-opacity:0.27451;"/>
<stop offset="1" style="stop-color:rgb(0%,0%,0%);stop-opacity:0;"/>
</radialGradient>
<radialGradient id="radial2" gradientUnits="userSpaceOnUse" cx="450.908936" cy="189.579361" fx="450.908936" fy="189.579361" r="21.166656" gradientTransform="matrix(-0.000000130628,-0.0585994,0.105479,-0.0000000761539,-9.577589,47.696497)">
<stop offset="0" style="stop-color:rgb(0%,0%,0%);stop-opacity:0.313725;"/>
<stop offset="0.222222" style="stop-color:rgb(0%,0%,0%);stop-opacity:0.27451;"/>
<stop offset="1" style="stop-color:rgb(0%,0%,0%);stop-opacity:0;"/>
</radialGradient>
<radialGradient id="radial3" gradientUnits="userSpaceOnUse" cx="450.908936" cy="189.579361" fx="450.908936" fy="189.579361" r="21.166656" gradientTransform="matrix(0.000000130628,0.0585994,-0.105479,0.0000000761539,33.392362,-5.645612)">
<stop offset="0" style="stop-color:rgb(0%,0%,0%);stop-opacity:0.313725;"/>
<stop offset="0.222222" style="stop-color:rgb(0%,0%,0%);stop-opacity:0.27451;"/>
<stop offset="1" style="stop-color:rgb(0%,0%,0%);stop-opacity:0;"/>
</radialGradient>
<linearGradient id="linear0" gradientUnits="userSpaceOnUse" x1="255.323059" y1="233.5" x2="255.323044" y2="254.666656" gradientTransform="matrix(0.01002,0,0,0.0468795,9.34904,10.079088)">
<stop offset="0" style="stop-color:rgb(0%,0%,0%);stop-opacity:0.27451;"/>
<stop offset="1" style="stop-color:rgb(0%,0%,0%);stop-opacity:0;"/>
</linearGradient>
<linearGradient id="linear1" gradientUnits="userSpaceOnUse" x1="254" y1="233.5" x2="254" y2="-168.666672" gradientTransform="matrix(1,0,0,1,0,0)">
<stop offset="0" style="stop-color:rgb(14.901961%,77.647059%,85.490196%);stop-opacity:1;"/>
<stop offset="1" style="stop-color:rgb(30.196078%,81.568627%,88.235294%);stop-opacity:1;"/>
</linearGradient>
<linearGradient id="linear2" gradientUnits="userSpaceOnUse" x1="254" y1="127.666656" x2="254" y2="-62.833332" gradientTransform="matrix(1,0,0,1,0,0)">
<stop offset="0" style="stop-color:rgb(93.72549%,32.54902%,31.372549%);stop-opacity:1;"/>
<stop offset="1" style="stop-color:rgb(89.803922%,45.098039%,45.098039%);stop-opacity:1;"/>
</linearGradient>
<linearGradient id="linear3" gradientUnits="userSpaceOnUse" x1="254" y1="127.666656" x2="254" y2="-62.833332" gradientTransform="matrix(1,0,0,1,2.745937,0)">
<stop offset="0" style="stop-color:rgb(100%,54.117647%,39.607843%);stop-opacity:1;"/>
<stop offset="1" style="stop-color:rgb(100%,67.058824%,56.862745%);stop-opacity:1;"/>
</linearGradient>
</defs>
<g id="surface1">
<path style=" stroke:none;fill-rule:nonzero;fill:url(#radial0);" d="M 13.644531 21.027344 L 15.628906 21.027344 L 15.628906 20.03125 L 13.644531 20.03125 Z M 13.644531 21.027344 "/>
<path style=" stroke:none;fill-rule:nonzero;fill:url(#radial1);" d="M 10.171875 21.027344 L 8.1875 21.027344 L 8.1875 22.019531 L 10.171875 22.019531 Z M 10.171875 21.027344 "/>
<path style=" stroke:none;fill-rule:nonzero;fill:url(#radial2);" d="M 10.171875 21.027344 L 8.1875 21.027344 L 8.1875 20.03125 L 10.171875 20.03125 Z M 10.171875 21.027344 "/>
<path style=" stroke:none;fill-rule:nonzero;fill:url(#radial3);" d="M 13.644531 21.027344 L 15.628906 21.027344 L 15.628906 22.019531 L 13.644531 22.019531 Z M 13.644531 21.027344 "/>
<path style=" stroke:none;fill-rule:nonzero;fill:url(#linear0);" d="M 10.171875 20.777344 L 13.644531 20.777344 L 13.644531 22.019531 L 10.171875 22.019531 Z M 10.171875 20.777344 "/>
<path style="fill-rule:nonzero;fill:url(#linear1);stroke-width:3;stroke-linecap:round;stroke-linejoin:miter;stroke:rgb(20%,20%,20%);stroke-opacity:1;stroke-miterlimit:4;" d="M 253.975747 -168.671091 C 365.048473 -168.671091 455.123205 -78.679685 455.123205 32.393042 C 455.123205 143.465768 365.048473 233.5405 253.975747 233.5405 C 142.986345 233.5405 52.911614 143.465768 52.911614 32.393042 C 52.911614 -78.679685 142.986345 -168.671091 253.975747 -168.671091 Z M 253.975747 -168.671091 " transform="matrix(0.0468795,0,0,0.0468795,0,10.079087)"/>
<path style=" stroke:none;fill-rule:nonzero;fill:rgb(0%,0%,0%);fill-opacity:0.235294;" d="M 2.480469 11.523438 C 2.480469 11.546875 2.480469 11.574219 2.480469 11.597656 C 2.480469 16.820312 6.683594 21.027344 11.90625 21.027344 C 17.128906 21.027344 21.335938 16.820312 21.335938 11.597656 C 21.335938 11.574219 21.332031 11.546875 21.332031 11.523438 C 21.292969 16.710938 17.105469 20.875 11.90625 20.875 C 6.710938 20.875 2.519531 16.710938 2.480469 11.523438 Z M 2.480469 11.523438 "/>
<path style=" stroke:none;fill-rule:nonzero;fill:rgb(100%,100%,100%);fill-opacity:0.588235;" d="M 11.90625 2.171875 C 6.683594 2.171875 2.480469 6.375 2.480469 11.597656 C 2.480469 11.628906 2.480469 11.660156 2.480469 11.691406 C 2.53125 6.511719 6.714844 2.355469 11.90625 2.355469 C 17.097656 2.355469 21.285156 6.511719 21.332031 11.691406 C 21.332031 11.660156 21.335938 11.628906 21.335938 11.597656 C 21.335938 6.375 17.128906 2.171875 11.90625 2.171875 Z M 11.90625 2.171875 "/>
<path style=" stroke:none;fill-rule:nonzero;fill:rgb(12.941177%,12.941177%,12.941177%);fill-opacity:1;" d="M 11.90625 2.101562 C 6.648438 2.101562 2.410156 6.339844 2.410156 11.597656 C 2.410156 16.859375 6.648438 21.097656 11.90625 21.097656 C 17.167969 21.097656 21.40625 16.859375 21.40625 11.597656 C 21.40625 6.339844 17.167969 2.101562 11.90625 2.101562 Z M 11.90625 2.242188 C 17.09375 2.242188 21.265625 6.414062 21.265625 11.597656 C 21.265625 16.785156 17.09375 20.957031 11.90625 20.957031 C 6.722656 20.957031 2.550781 16.785156 2.550781 11.597656 C 2.550781 6.414062 6.722656 2.242188 11.90625 2.242188 Z M 11.90625 2.242188 "/>
<path style="fill-rule:nonzero;fill:url(#linear2);stroke-width:3;stroke-linecap:square;stroke-linejoin:round;stroke:rgb(12.941177%,12.941177%,12.941177%);stroke-opacity:1;stroke-miterlimit:4;" d="M 253.975747 -62.847863 C 306.637384 -62.847863 349.216651 -20.185271 349.216651 32.393042 C 349.216651 85.05468 306.637384 127.633947 253.975747 127.633947 C 201.397434 127.633947 158.734842 85.05468 158.734842 32.393042 C 158.734842 -20.185271 201.397434 -62.847863 253.975747 -62.847863 Z M 253.975747 -62.847863 " transform="matrix(0.0468795,0,0,0.0468795,0,10.079087)"/>
<path style="fill-rule:nonzero;fill:url(#linear3);stroke-width:2.828427;stroke-linecap:square;stroke-linejoin:round;stroke:rgb(12.941177%,12.941177%,12.941177%);stroke-opacity:1;stroke-miterlimit:4;" d="M 160.568 48.224863 C 133.320602 72.805849 119.405264 95.053725 126.32127 107.052579 C 138.070148 127.383971 204.730449 110.718895 275.806995 69.639485 C 346.883541 28.6434 394.712307 -20.768548 382.963429 -41.09994 C 375.964097 -53.098794 349.799929 -52.182215 314.886596 -40.933289 C 318.802889 -37.6836 322.552531 -34.100608 325.968872 -30.184316 C 341.13409 -32.850728 351.883064 -31.434196 355.466055 -25.184793 C 364.215219 -10.019575 326.385498 28.226773 270.474171 60.473694 C 214.646169 92.720614 162.567809 106.385976 153.818644 91.220757 C 150.235653 84.971354 154.401922 75.055634 164.234316 63.223431 C 162.567809 58.223908 161.317928 53.224386 160.568 48.224863 Z M 160.568 48.224863 " transform="matrix(0.0468795,0,0,0.0468795,0,10.079087)"/>
<path style="fill-rule:nonzero;fill:rgb(100%,83.529413%,30.980393%);fill-opacity:0.980392;stroke-width:3;stroke-linecap:square;stroke-linejoin:round;stroke:rgb(12.941177%,12.941177%,12.941177%);stroke-opacity:1;stroke-miterlimit:4;" d="M 174.649988 -84.012509 C 173.150132 -84.012509 171.900251 -89.76196 170.900346 -90.84519 C 169.817117 -91.928419 164.067666 -93.094975 164.067666 -94.594831 C 164.067666 -96.094688 169.817117 -97.261243 170.900346 -98.344473 C 171.900251 -99.344378 173.150132 -105.177154 174.649988 -105.177154 C 176.06652 -105.177154 177.3164 -99.344378 178.39963 -98.344473 C 179.399535 -97.261243 185.232311 -96.094688 185.232311 -94.594831 C 185.232311 -93.094975 179.399535 -91.928419 178.39963 -90.84519 C 177.3164 -89.76196 176.06652 -84.012509 174.649988 -84.012509 Z M 174.649988 -84.012509 " transform="matrix(0.0468795,0,0,0.0468795,0,10.079087)"/>
<path style="fill-rule:nonzero;fill:rgb(100%,83.529413%,30.980393%);fill-opacity:0.980392;stroke-width:3;stroke-linecap:square;stroke-linejoin:round;stroke:rgb(12.941177%,12.941177%,12.941177%);stroke-opacity:1;stroke-miterlimit:4;" d="M 238.143925 -115.759477 C 236.644068 -115.759477 235.394188 -121.508928 234.394283 -122.592158 C 233.311053 -123.675388 227.561602 -124.841943 227.561602 -126.3418 C 227.561602 -127.841657 233.311053 -129.008212 234.394283 -130.091442 C 235.394188 -131.091346 236.644068 -136.924123 238.143925 -136.924123 C 239.643782 -136.924123 240.810337 -131.091346 241.893567 -130.091442 C 242.893471 -129.008212 248.726248 -127.841657 248.726248 -126.3418 C 248.726248 -124.841943 242.893471 -123.675388 241.893567 -122.592158 C 240.810337 -121.508928 239.643782 -115.759477 238.143925 -115.759477 Z M 238.143925 -115.759477 " transform="matrix(0.0468795,0,0,0.0468795,0,10.079087)"/>
<path style="fill-rule:nonzero;fill:rgb(100%,83.529413%,30.980393%);fill-opacity:0.980392;stroke-width:3;stroke-linecap:square;stroke-linejoin:round;stroke:rgb(12.941177%,12.941177%,12.941177%);stroke-opacity:1;stroke-miterlimit:4;" d="M 312.220184 -73.430186 C 310.720328 -73.430186 309.553772 -79.179637 308.470543 -80.262867 C 307.387313 -81.346097 301.637862 -82.512652 301.637862 -84.012509 C 301.637862 -85.512365 307.387313 -86.678921 308.470543 -87.762151 C 309.553772 -88.762055 310.720328 -94.594831 312.220184 -94.594831 C 313.720041 -94.594831 314.886596 -88.762055 315.969826 -87.762151 C 316.969731 -86.678921 322.802507 -85.512365 322.802507 -84.012509 C 322.802507 -82.512652 316.969731 -81.346097 315.969826 -80.262867 C 314.886596 -79.179637 313.720041 -73.430186 312.220184 -73.430186 Z M 312.220184 -73.430186 " transform="matrix(0.0468795,0,0,0.0468795,0,10.079087)"/>
<path style="fill-rule:nonzero;fill:rgb(100%,83.529413%,30.980393%);fill-opacity:0.980392;stroke-width:3;stroke-linecap:square;stroke-linejoin:round;stroke:rgb(12.941177%,12.941177%,12.941177%);stroke-opacity:1;stroke-miterlimit:4;" d="M 391.545943 74.722333 C 390.129411 74.722333 388.879531 68.972882 387.879626 67.889652 C 386.796396 66.889748 380.96362 65.639867 380.96362 64.14001 C 380.96362 62.723479 386.796396 61.473598 387.879626 60.390368 C 388.879531 59.390464 390.129411 53.557687 391.545943 53.557687 C 393.045799 53.557687 394.29568 59.390464 395.295584 60.390368 C 396.378814 61.473598 402.128265 62.723479 402.128265 64.14001 C 402.128265 65.639867 396.378814 66.889748 395.295584 67.889652 C 394.29568 68.972882 393.045799 74.722333 391.545943 74.722333 Z M 391.545943 74.722333 " transform="matrix(0.0468795,0,0,0.0468795,0,10.079087)"/>
<path style="fill-rule:nonzero;fill:rgb(100%,83.529413%,30.980393%);fill-opacity:0.980392;stroke-width:3;stroke-linecap:square;stroke-linejoin:round;stroke:rgb(12.941177%,12.941177%,12.941177%);stroke-opacity:1;stroke-miterlimit:4;" d="M 354.549476 159.380915 C 353.049619 159.380915 351.883064 153.631464 350.799834 152.548234 C 349.716604 151.54833 343.967153 150.298449 343.967153 148.798592 C 343.967153 147.382061 349.716604 146.13218 350.799834 145.132276 C 351.883064 144.049046 353.049619 138.21627 354.549476 138.21627 C 356.049332 138.21627 357.215888 144.049046 358.299117 145.132276 C 359.299022 146.13218 365.131798 147.382061 365.131798 148.798592 C 365.131798 150.298449 359.299022 151.54833 358.299117 152.548234 C 357.215888 153.631464 356.049332 159.380915 354.549476 159.380915 Z M 354.549476 159.380915 " transform="matrix(0.0468795,0,0,0.0468795,0,10.079087)"/>
<path style="fill-rule:nonzero;fill:rgb(100%,83.529413%,30.980393%);fill-opacity:0.980392;stroke-width:3;stroke-linecap:square;stroke-linejoin:round;stroke:rgb(12.941177%,12.941177%,12.941177%);stroke-opacity:1;stroke-miterlimit:4;" d="M 190.48181 169.963238 C 188.981953 169.963238 187.815398 164.213787 186.732168 163.130557 C 185.732263 162.130652 179.899487 160.880772 179.899487 159.380915 C 179.899487 157.964384 185.732263 156.714503 186.732168 155.714599 C 187.815398 154.631369 188.981953 148.798592 190.48181 148.798592 C 191.981667 148.798592 193.231547 154.631369 194.231452 155.714599 C 195.314682 156.714503 201.064133 157.964384 201.064133 159.380915 C 201.064133 160.880772 195.314682 162.130652 194.231452 163.130557 C 193.231547 164.213787 191.981667 169.963238 190.48181 169.963238 Z M 190.48181 169.963238 " transform="matrix(0.0468795,0,0,0.0468795,0,10.079087)"/>
<path style="fill-rule:nonzero;fill:rgb(100%,83.529413%,30.980393%);fill-opacity:0.980392;stroke-width:3;stroke-linecap:square;stroke-linejoin:round;stroke:rgb(12.941177%,12.941177%,12.941177%);stroke-opacity:1;stroke-miterlimit:4;" d="M 259.308571 196.460707 C 257.808714 196.460707 256.558833 190.627931 255.558929 189.628027 C 254.475699 188.544797 248.726248 187.378241 248.726248 185.878385 C 248.726248 184.378528 254.475699 183.211973 255.558929 182.128743 C 256.558833 181.045513 257.808714 175.296062 259.308571 175.296062 C 260.808427 175.296062 261.974983 181.045513 263.058213 182.128743 C 264.058117 183.211973 269.890893 184.378528 269.890893 185.878385 C 269.890893 187.378241 264.058117 188.544797 263.058213 189.628027 C 261.974983 190.627931 260.808427 196.460707 259.308571 196.460707 Z M 259.308571 196.460707 " transform="matrix(0.0468795,0,0,0.0468795,0,10.079087)"/>
<path style="fill-rule:nonzero;fill:rgb(100%,83.529413%,30.980393%);fill-opacity:0.980392;stroke-width:3;stroke-linecap:square;stroke-linejoin:round;stroke:rgb(12.941177%,12.941177%,12.941177%);stroke-opacity:1;stroke-miterlimit:4;" d="M 100.573729 27.143543 C 99.073872 27.143543 97.823992 21.310767 96.824087 20.310862 C 95.740857 19.227632 89.991406 18.061077 89.991406 16.56122 C 89.991406 15.061364 95.740857 13.811483 96.824087 12.811578 C 97.823992 11.728349 99.073872 5.978898 100.573729 5.978898 C 101.99026 5.978898 103.240141 11.728349 104.323371 12.811578 C 105.323275 13.811483 111.156052 15.061364 111.156052 16.56122 C 111.156052 18.061077 105.323275 19.227632 104.323371 20.310862 C 103.240141 21.310767 101.99026 27.143543 100.573729 27.143543 Z M 100.573729 27.143543 " transform="matrix(0.0468795,0,0,0.0468795,0,10.079087)"/>
</g>
</svg>
