<?xml version="1.0" encoding="UTF-8"?>
<svg xmlns="http://www.w3.org/2000/svg" xmlns:xlink="http://www.w3.org/1999/xlink" width="24pt" height="24pt" viewBox="0 0 24 24" version="1.1">
<defs>
<radialGradient id="radial0" gradientUnits="userSpaceOnUse" cx="450.908936" cy="189.579361" fx="450.908936" fy="189.579361" r="21.166656" gradientTransform="matrix(0.000000130628,-0.0585994,-0.105479,-0.0000000761539,33.392364,47.696497)">
<stop offset="0" style="stop-color:rgb(0%,0%,0%);stop-opacity:0.313725;"/>
<stop offset="0.222222" style="stop-color:rgb(0%,0%,0%);stop-opacity:0.27451;"/>
<stop offset="1" style="stop-color:rgb(0%,0%,0%);stop-opacity:0;"/>
</radialGradient>
<radialGradient id="radial1" gradientUnits="userSpaceOnUse" cx="450.908936" cy="189.579361" fx="450.908936" fy="189.579361" r="21.166656" gradientTransform="matrix(-0.000000130628,0.0585994,0.105479,0.0000000761539,-9.577589,-5.645612)">
<stop offset="0" style="stop-color:rgb(0%,0%,0%);stop-opacity:0.313725;"/>
<stop offset="0.222222" style="stop-color:rgb(0%,0%,0%);stop-opacity:0.27451;"/>
<stop offset="1" style="stop-color:rgb(0%,0%,0%);stop-opacity:0;"/>
</radialGradient>
<radialGradient id="radial2" gradientUnits="userSpaceOnUse" cx="450.908936" cy="189.579361" fx="450.908936" fy="189.579361" r="21.166656" gradientTransform="matrix(-0.000000130628,-0.0585994,0.105479,-0.0000000761539,-9.577589,47.696497)">
<stop offset="0" style="stop-color:rgb(0%,0%,0%);stop-opacity:0.313725;"/>
<stop offset="0.222222" style="stop-color:rgb(0%,0%,0%);stop-opacity:0.27451;"/>
<stop offset="1" style="stop-color:rgb(0%,0%,0%);stop-opacity:0;"/>
</radialGradient>
<radialGradient id="radial3" gradientUnits="userSpaceOnUse" cx="450.908936" cy="189.579361" fx="450.908936" fy="189.579361" r="21.166656" gradientTransform="matrix(0.000000130628,0.0585994,-0.105479,0.0000000761539,33.392362,-5.645612)">
<stop offset="0" style="stop-color:rgb(0%,0%,0%);stop-opacity:0.313725;"/>
<stop offset="0.222222" style="stop-color:rgb(0%,0%,0%);stop-opacity:0.27451;"/>
<stop offset="1" style="stop-color:rgb(0%,0%,0%);stop-opacity:0;"/>
</radialGradient>
<linearGradient id="linear0" gradientUnits="userSpaceOnUse" x1="255.323059" y1="233.5" x2="255.323044" y2="254.666656" gradientTransform="matrix(0.01002,0,0,0.0468795,9.34904,10.079088)">
<stop offset="0" style="stop-color:rgb(0%,0%,0%);stop-opacity:0.27451;"/>
<stop offset="1" style="stop-color:rgb(0%,0%,0%);stop-opacity:0;"/>
</linearGradient>
<linearGradient id="linear1" gradientUnits="userSpaceOnUse" x1="254" y1="-168.666672" x2="254" y2="233.5" gradientTransform="matrix(0.0468795,0,0,0.0468795,0,10.079087)">
<stop offset="0" style="stop-color:rgb(56.470588%,79.215686%,97.647059%);stop-opacity:1;"/>
<stop offset="1" style="stop-color:rgb(25.882353%,64.705882%,96.078431%);stop-opacity:1;"/>
</linearGradient>
<linearGradient id="linear2" gradientUnits="userSpaceOnUse" x1="840" y1="1495.118164" x2="840" y2="575.118103" gradientTransform="matrix(0.0124035,0,0,0.0124035,0,-0.248059)">
<stop offset="0" style="stop-color:rgb(27.058824%,35.294118%,39.215686%);stop-opacity:1;"/>
<stop offset="1" style="stop-color:rgb(32.941176%,43.137255%,47.843137%);stop-opacity:1;"/>
</linearGradient>
<linearGradient id="linear3" gradientUnits="userSpaceOnUse" x1="359.833344" y1="-105.166672" x2="359.833344" y2="-20.5" gradientTransform="matrix(1,0,0,1,0,0)">
<stop offset="0" style="stop-color:rgb(27.058824%,35.294118%,39.215686%);stop-opacity:1;"/>
<stop offset="1" style="stop-color:rgb(32.941176%,43.137255%,47.843137%);stop-opacity:1;"/>
</linearGradient>
<linearGradient id="linear4" gradientUnits="userSpaceOnUse" x1="1360" y1="695.118164" x2="1360" y2="455.118103" gradientTransform="matrix(1,0,0,1,0,0)">
<stop offset="0" style="stop-color:rgb(56.470588%,79.215686%,97.647059%);stop-opacity:1;"/>
<stop offset="1" style="stop-color:rgb(25.882353%,64.705882%,96.078431%);stop-opacity:1;"/>
</linearGradient>
<linearGradient id="linear5" gradientUnits="userSpaceOnUse" x1="1274.330688" y1="575.117188" x2="1445.669312" y2="575.117188" gradientTransform="matrix(1,0,0,1,0,0)">
<stop offset="0" style="stop-color:rgb(20%,20%,20%);stop-opacity:1;"/>
<stop offset="1" style="stop-color:rgb(12.941176%,12.941176%,12.941176%);stop-opacity:1;"/>
</linearGradient>
</defs>
<g id="surface1">
<path style=" stroke:none;fill-rule:nonzero;fill:url(#radial0);" d="M 13.644531 21.027344 L 15.628906 21.027344 L 15.628906 20.03125 L 13.644531 20.03125 Z M 13.644531 21.027344 "/>
<path style=" stroke:none;fill-rule:nonzero;fill:url(#radial1);" d="M 10.171875 21.027344 L 8.1875 21.027344 L 8.1875 22.019531 L 10.171875 22.019531 Z M 10.171875 21.027344 "/>
<path style=" stroke:none;fill-rule:nonzero;fill:url(#radial2);" d="M 10.171875 21.027344 L 8.1875 21.027344 L 8.1875 20.03125 L 10.171875 20.03125 Z M 10.171875 21.027344 "/>
<path style=" stroke:none;fill-rule:nonzero;fill:url(#radial3);" d="M 13.644531 21.027344 L 15.628906 21.027344 L 15.628906 22.019531 L 13.644531 22.019531 Z M 13.644531 21.027344 "/>
<path style=" stroke:none;fill-rule:nonzero;fill:url(#linear0);" d="M 10.171875 20.777344 L 13.644531 20.777344 L 13.644531 22.019531 L 10.171875 22.019531 Z M 10.171875 20.777344 "/>
<path style=" stroke:none;fill-rule:nonzero;fill:url(#linear1);" d="M 11.90625 2.171875 C 6.683594 2.171875 2.480469 6.375 2.480469 11.597656 C 2.480469 16.820312 6.683594 21.027344 11.90625 21.027344 C 17.128906 21.027344 21.335938 16.820312 21.335938 11.597656 C 21.335938 6.375 17.128906 2.171875 11.90625 2.171875 Z M 11.410156 7.132812 C 14.433594 7.132812 16.867188 9.566406 16.867188 12.589844 C 16.867188 15.613281 14.433594 18.046875 11.410156 18.046875 C 8.386719 18.046875 5.953125 15.613281 5.953125 12.589844 C 5.953125 9.566406 8.386719 7.132812 11.410156 7.132812 Z M 11.410156 7.132812 "/>
<path style=" stroke:none;fill-rule:nonzero;fill:rgb(0%,0%,0%);fill-opacity:0.196078;" d="M 11.90625 21.027344 C 6.6875 21.027344 2.480469 16.820312 2.480469 11.597656 C 2.480469 11.566406 2.480469 11.539062 2.480469 11.507812 C 2.53125 16.6875 6.714844 20.839844 11.90625 20.839844 C 17.097656 20.839844 21.285156 16.6875 21.335938 11.507812 C 21.335938 11.539062 21.335938 11.566406 21.335938 11.597656 C 21.335938 16.820312 17.128906 21.027344 11.90625 21.027344 Z M 11.90625 21.027344 "/>
<path style=" stroke:none;fill-rule:nonzero;fill:rgb(100%,100%,100%);fill-opacity:0.392157;" d="M 11.90625 2.171875 C 6.683594 2.171875 2.480469 6.375 2.480469 11.597656 C 2.480469 11.628906 2.480469 11.660156 2.480469 11.691406 C 2.53125 6.511719 6.714844 2.355469 11.90625 2.355469 C 17.097656 2.355469 21.285156 6.511719 21.332031 11.691406 C 21.332031 11.660156 21.335938 11.628906 21.335938 11.597656 C 21.335938 6.375 17.128906 2.171875 11.90625 2.171875 Z M 11.90625 2.171875 "/>
<path style=" stroke:none;fill-rule:nonzero;fill:rgb(12.941177%,12.941177%,12.941177%);fill-opacity:1;" d="M 11.90625 2.101562 C 6.648438 2.101562 2.410156 6.339844 2.410156 11.597656 C 2.410156 16.859375 6.648438 21.097656 11.90625 21.097656 C 17.167969 21.097656 21.40625 16.859375 21.40625 11.597656 C 21.40625 6.339844 17.167969 2.101562 11.90625 2.101562 Z M 11.90625 2.242188 C 17.09375 2.242188 21.265625 6.414062 21.265625 11.597656 C 21.265625 16.785156 17.09375 20.957031 11.90625 20.957031 C 6.722656 20.957031 2.550781 16.785156 2.550781 11.597656 C 2.550781 6.414062 6.722656 2.242188 11.90625 2.242188 Z M 11.410156 7.0625 C 8.351562 7.0625 5.882812 9.53125 5.882812 12.589844 C 5.882812 15.652344 8.351562 18.117188 11.410156 18.117188 C 14.472656 18.117188 16.9375 15.652344 16.9375 12.589844 C 16.9375 9.53125 14.472656 7.0625 11.410156 7.0625 Z M 11.410156 7.203125 C 14.398438 7.203125 16.796875 9.605469 16.796875 12.589844 C 16.796875 15.578125 14.398438 17.976562 11.410156 17.976562 C 8.425781 17.976562 6.023438 15.578125 6.023438 12.589844 C 6.023438 9.605469 8.425781 7.203125 11.410156 7.203125 Z M 11.410156 7.203125 "/>
<path style=" stroke:none;fill-rule:nonzero;fill:url(#linear2);" d="M 6.945312 6.886719 C 6.449219 6.886719 6.039062 7.246094 5.964844 7.722656 L 8.929688 12.589844 L 5.964844 17.460938 C 6.039062 17.9375 6.449219 18.296875 6.945312 18.296875 L 9.425781 18.296875 L 10.914062 15.851562 L 12.402344 18.296875 L 14.882812 18.296875 C 15.378906 18.296875 15.789062 17.9375 15.863281 17.460938 L 12.898438 12.589844 L 15.863281 7.71875 C 15.789062 7.246094 15.378906 6.886719 14.882812 6.886719 L 12.402344 6.886719 L 10.914062 9.332031 L 9.425781 6.886719 Z M 6.945312 6.886719 "/>
<path style=" stroke:none;fill-rule:nonzero;fill:rgb(100%,100%,100%);fill-opacity:0.235294;" d="M 6.945312 6.886719 C 6.449219 6.886719 6.039062 7.246094 5.964844 7.722656 L 6.011719 7.792969 C 6.144531 7.410156 6.511719 7.132812 6.945312 7.132812 L 9.425781 7.132812 L 10.914062 9.578125 L 12.402344 7.132812 L 14.882812 7.132812 C 15.316406 7.132812 15.683594 7.410156 15.820312 7.792969 L 15.863281 7.71875 C 15.789062 7.246094 15.378906 6.886719 14.882812 6.886719 L 12.402344 6.886719 L 10.914062 9.332031 L 9.425781 6.886719 Z M 8.855469 12.714844 L 5.964844 17.460938 C 5.976562 17.523438 5.992188 17.582031 6.011719 17.636719 L 8.929688 12.839844 Z M 12.976562 12.714844 L 12.898438 12.839844 L 15.820312 17.636719 C 15.839844 17.582031 15.855469 17.523438 15.863281 17.460938 Z M 12.976562 12.714844 "/>
<path style=" stroke:none;fill-rule:nonzero;fill:rgb(0%,0%,0%);fill-opacity:0.235294;" d="M 15.820312 7.546875 L 12.898438 12.34375 L 12.976562 12.46875 L 15.863281 7.71875 C 15.855469 7.660156 15.839844 7.601562 15.820312 7.546875 Z M 6.011719 7.546875 C 5.992188 7.601562 5.976562 7.660156 5.964844 7.722656 L 8.855469 12.46875 L 8.929688 12.34375 Z M 10.914062 15.601562 L 9.425781 18.046875 L 6.945312 18.046875 C 6.511719 18.046875 6.144531 17.773438 6.011719 17.386719 L 5.964844 17.460938 C 6.039062 17.9375 6.449219 18.296875 6.945312 18.296875 L 9.425781 18.296875 L 10.914062 15.851562 L 12.402344 18.296875 L 14.882812 18.296875 C 15.378906 18.296875 15.789062 17.9375 15.863281 17.460938 L 15.820312 17.386719 C 15.683594 17.773438 15.316406 18.046875 14.882812 18.046875 L 12.402344 18.046875 Z M 10.914062 15.601562 "/>
<path style=" stroke:none;fill-rule:nonzero;fill:rgb(12.941177%,12.941177%,12.941177%);fill-opacity:1;" d="M 6.945312 6.816406 C 6.414062 6.816406 5.976562 7.203125 5.898438 7.710938 C 5.894531 7.726562 5.898438 7.742188 5.90625 7.757812 L 8.847656 12.589844 L 5.90625 17.425781 C 5.898438 17.4375 5.894531 17.457031 5.898438 17.472656 C 5.976562 17.980469 6.414062 18.367188 6.945312 18.367188 L 9.425781 18.367188 C 9.453125 18.367188 9.472656 18.355469 9.488281 18.332031 L 10.914062 15.988281 L 12.34375 18.332031 C 12.355469 18.355469 12.378906 18.367188 12.402344 18.367188 L 14.882812 18.367188 C 15.414062 18.367188 15.855469 17.980469 15.933594 17.472656 C 15.9375 17.457031 15.933594 17.4375 15.925781 17.425781 L 12.980469 12.589844 L 15.925781 7.757812 C 15.933594 7.742188 15.9375 7.726562 15.933594 7.710938 C 15.855469 7.203125 15.414062 6.816406 14.882812 6.816406 L 12.402344 6.816406 C 12.378906 6.816406 12.355469 6.828125 12.34375 6.847656 L 10.914062 9.195312 L 9.488281 6.847656 C 9.472656 6.828125 9.453125 6.816406 9.425781 6.816406 Z M 6.945312 6.957031 L 9.386719 6.957031 L 10.855469 9.367188 C 10.867188 9.386719 10.890625 9.402344 10.914062 9.402344 C 10.941406 9.402344 10.960938 9.386719 10.976562 9.367188 L 12.441406 6.957031 L 14.882812 6.957031 C 15.339844 6.957031 15.710938 7.28125 15.789062 7.707031 L 12.839844 12.554688 C 12.824219 12.578125 12.824219 12.605469 12.839844 12.628906 L 15.789062 17.472656 C 15.710938 17.902344 15.339844 18.226562 14.882812 18.226562 L 12.441406 18.226562 L 10.976562 15.816406 C 10.960938 15.792969 10.941406 15.78125 10.914062 15.78125 C 10.890625 15.78125 10.867188 15.792969 10.855469 15.816406 L 9.386719 18.226562 L 6.945312 18.226562 C 6.492188 18.226562 6.121094 17.902344 6.042969 17.472656 L 8.992188 12.628906 C 9.003906 12.605469 9.003906 12.578125 8.992188 12.554688 L 6.042969 7.710938 C 6.121094 7.28125 6.492188 6.957031 6.945312 6.957031 Z M 6.945312 6.957031 "/>
<path style="fill-rule:nonzero;fill:url(#linear3);stroke-width:3;stroke-linecap:square;stroke-linejoin:round;stroke:rgb(12.941177%,12.941177%,12.941177%);stroke-opacity:1;stroke-miterlimit:4;" d="M 359.798974 -105.177154 C 383.213405 -105.177154 402.128265 -86.178968 402.128265 -62.847863 C 402.128265 -39.433432 383.213405 -20.518572 359.798974 -20.518572 C 336.467869 -20.518572 317.469683 -39.433432 317.469683 -62.847863 C 317.469683 -86.178968 336.467869 -105.177154 359.798974 -105.177154 Z M 359.798974 -105.177154 " transform="matrix(0.0468795,0,0,0.0468795,0,10.079087)"/>
<path style="fill-rule:nonzero;fill:url(#linear4);stroke-width:11.338583;stroke-linecap:square;stroke-linejoin:round;stroke:url(#linear5);stroke-miterlimit:4;" d="M 1319.874028 455.074677 C 1297.828888 455.074677 1279.877845 473.025719 1279.877845 495.070859 L 1359.87021 495.070859 C 1371.207711 495.070859 1380.025767 503.888915 1380.025767 515.226416 L 1380.025767 535.067042 C 1380.025767 546.089612 1371.207711 555.222599 1359.87021 555.222599 L 1279.877845 555.222599 L 1279.877845 595.218781 L 1359.87021 595.218781 C 1371.207711 595.218781 1380.025767 604.036837 1380.025767 615.059407 L 1380.025767 635.214964 C 1380.025767 646.237534 1371.207711 655.05559 1359.87021 655.05559 L 1279.877845 655.05559 C 1279.877845 677.415661 1297.828888 695.051773 1319.874028 695.051773 L 1399.866393 695.051773 C 1422.226464 695.051773 1439.862576 677.415661 1439.862576 655.05559 L 1439.862576 495.070859 C 1439.862576 473.025719 1422.226464 455.074677 1399.866393 455.074677 Z M 1319.874028 455.074677 " transform="matrix(0.0124035,0,0,0.0124035,0,0)"/>
</g>
</svg>
