<?xml version="1.0" encoding="UTF-8"?>
<svg xmlns="http://www.w3.org/2000/svg" xmlns:xlink="http://www.w3.org/1999/xlink" width="48px" height="48px" viewBox="0 0 48 48" version="1.1">
<g id="surface1">
<path style=" stroke:none;fill-rule:nonzero;fill:rgb(25.882354%,25.882354%,25.882354%);fill-opacity:1;" d="M 15.875 14.265625 C 10.378906 14.265625 5.953125 18.691406 5.953125 24.191406 C 5.953125 29.6875 10.378906 34.113281 15.875 34.113281 C 20.335938 34.113281 24.089844 31.199219 25.347656 27.167969 L 28.777344 27.167969 L 28.777344 29.648438 C 28.777344 30.472656 29.441406 31.136719 30.265625 31.136719 C 31.089844 31.136719 31.753906 30.472656 31.753906 29.648438 L 31.753906 27.167969 L 35.722656 27.167969 L 35.722656 30.640625 C 35.722656 31.464844 36.386719 32.128906 37.210938 32.128906 C 38.035156 32.128906 38.699219 31.464844 38.699219 30.640625 L 38.699219 27.167969 C 40.347656 27.167969 41.675781 25.839844 41.675781 24.191406 C 41.675781 22.539062 40.347656 21.214844 38.699219 21.214844 L 25.347656 21.214844 C 24.089844 17.179688 20.335938 14.265625 15.875 14.265625 Z M 15.875 20.21875 C 18.074219 20.21875 19.84375 21.992188 19.84375 24.191406 C 19.84375 26.390625 18.074219 28.160156 15.875 28.160156 C 13.675781 28.160156 11.90625 26.390625 11.90625 24.191406 C 11.90625 21.992188 13.675781 20.21875 15.875 20.21875 Z M 15.875 20.21875 "/>
</g>
</svg>
