<?xml version="1.0" encoding="UTF-8"?>
<svg xmlns="http://www.w3.org/2000/svg" xmlns:xlink="http://www.w3.org/1999/xlink" width="48px" height="48px" viewBox="0 0 48 48" version="1.1">
<defs>
<linearGradient id="linear0" gradientUnits="userSpaceOnUse" x1="254" y1="233.5" x2="254" y2="254.666672" gradientTransform="matrix(0.09375,0,0,0.09375,-0.00000572205,20.156256)">
<stop offset="0" style="stop-color:rgb(0%,0%,0%);stop-opacity:0.27451;"/>
<stop offset="1" style="stop-color:rgb(0%,0%,0%);stop-opacity:0;"/>
</linearGradient>
<radialGradient id="radial0" gradientUnits="userSpaceOnUse" cx="450.908936" cy="189.579361" fx="450.908936" fy="189.579361" r="21.166656" gradientTransform="matrix(0.000000261231,-0.117188,-0.210938,-0.000000152293,81.165068,95.383893)">
<stop offset="0" style="stop-color:rgb(0%,0%,0%);stop-opacity:0.313726;"/>
<stop offset="0.222222" style="stop-color:rgb(0%,0%,0%);stop-opacity:0.27451;"/>
<stop offset="1" style="stop-color:rgb(0%,0%,0%);stop-opacity:0;"/>
</radialGradient>
<radialGradient id="radial1" gradientUnits="userSpaceOnUse" cx="450.908936" cy="189.579361" fx="450.908936" fy="189.579361" r="21.166656" gradientTransform="matrix(-0.000000261231,0.117188,0.210938,0.000000152293,-33.540064,-11.290137)">
<stop offset="0" style="stop-color:rgb(0%,0%,0%);stop-opacity:0.313726;"/>
<stop offset="0.222222" style="stop-color:rgb(0%,0%,0%);stop-opacity:0.27451;"/>
<stop offset="1" style="stop-color:rgb(0%,0%,0%);stop-opacity:0;"/>
</radialGradient>
<radialGradient id="radial2" gradientUnits="userSpaceOnUse" cx="450.908936" cy="189.579361" fx="450.908936" fy="189.579361" r="21.166656" gradientTransform="matrix(-0.000000261231,-0.117188,0.210938,-0.000000152293,-33.540064,95.383893)">
<stop offset="0" style="stop-color:rgb(0%,0%,0%);stop-opacity:0.313726;"/>
<stop offset="0.222222" style="stop-color:rgb(0%,0%,0%);stop-opacity:0.27451;"/>
<stop offset="1" style="stop-color:rgb(0%,0%,0%);stop-opacity:0;"/>
</radialGradient>
<radialGradient id="radial3" gradientUnits="userSpaceOnUse" cx="450.908936" cy="189.579361" fx="450.908936" fy="189.579361" r="21.166656" gradientTransform="matrix(0.000000261231,0.117188,-0.210938,0.000000152293,81.165065,-11.290138)">
<stop offset="0" style="stop-color:rgb(0%,0%,0%);stop-opacity:0.313726;"/>
<stop offset="0.222222" style="stop-color:rgb(0%,0%,0%);stop-opacity:0.27451;"/>
<stop offset="1" style="stop-color:rgb(0%,0%,0%);stop-opacity:0;"/>
</radialGradient>
<linearGradient id="linear1" gradientUnits="userSpaceOnUse" x1="254" y1="-147.5" x2="254" y2="-31.083334" gradientTransform="matrix(0.09375,0,0,0.09375,0.00000187445,20.156247)">
<stop offset="0" style="stop-color:rgb(64.313728%,64.313728%,64.313728%);stop-opacity:0;"/>
<stop offset="1" style="stop-color:rgb(100%,100%,100%);stop-opacity:0.196078;"/>
</linearGradient>
<linearGradient id="linear2" gradientUnits="userSpaceOnUse" x1="254" y1="233.5" x2="254" y2="-105.166656" gradientTransform="matrix(0.09375,0,0,0.09375,-0.00000271833,20.15625)">
<stop offset="0" style="stop-color:rgb(34.509805%,34.509805%,34.509805%);stop-opacity:0;"/>
<stop offset="1" style="stop-color:rgb(98.039216%,98.039216%,98.039216%);stop-opacity:0.196078;"/>
</linearGradient>
</defs>
<g id="surface1">
<path style=" stroke:none;fill-rule:nonzero;fill:url(#linear0);" d="M 5.953125 42.046875 L 41.671875 42.046875 L 41.671875 44.03125 L 5.953125 44.03125 Z M 5.953125 42.046875 "/>
<path style=" stroke:none;fill-rule:nonzero;fill:url(#radial0);" d="M 41.671875 42.046875 L 45.640625 42.046875 L 45.640625 40.0625 L 41.671875 40.0625 Z M 41.671875 42.046875 "/>
<path style=" stroke:none;fill-rule:nonzero;fill:url(#radial1);" d="M 5.953125 42.046875 L 1.984375 42.046875 L 1.984375 44.03125 L 5.953125 44.03125 Z M 5.953125 42.046875 "/>
<path style=" stroke:none;fill-rule:nonzero;fill:url(#radial2);" d="M 5.953125 42.046875 L 1.984375 42.046875 L 1.984375 40.0625 L 5.953125 40.0625 Z M 5.953125 42.046875 "/>
<path style=" stroke:none;fill-rule:nonzero;fill:url(#radial3);" d="M 41.671875 42.046875 L 45.640625 42.046875 L 45.640625 44.03125 L 41.671875 44.03125 Z M 41.671875 42.046875 "/>
<path style=" stroke:none;fill-rule:nonzero;fill:rgb(0%,67.450982%,75.686276%);fill-opacity:1;" d="M 10.914062 6.328125 L 43.160156 6.328125 C 44.257812 6.328125 45.144531 7.214844 45.144531 8.3125 L 45.144531 15.753906 C 45.144531 16.851562 44.257812 17.738281 43.160156 17.738281 L 10.914062 17.738281 C 9.816406 17.738281 8.929688 16.851562 8.929688 15.753906 L 8.929688 8.3125 C 8.929688 7.214844 9.816406 6.328125 10.914062 6.328125 Z M 10.914062 6.328125 "/>
<path style=" stroke:none;fill-rule:nonzero;fill:url(#linear1);" d="M 10.914062 6.328125 L 43.160156 6.328125 C 44.257812 6.328125 45.144531 7.214844 45.144531 8.3125 L 45.144531 15.753906 C 45.144531 16.851562 44.257812 17.738281 43.160156 17.738281 L 10.914062 17.738281 C 9.816406 17.738281 8.929688 16.851562 8.929688 15.753906 L 8.929688 8.3125 C 8.929688 7.214844 9.816406 6.328125 10.914062 6.328125 Z M 10.914062 6.328125 "/>
<path style=" stroke:none;fill-rule:nonzero;fill:rgb(100%,100%,100%);fill-opacity:0.392157;" d="M 10.914062 6.457031 C 9.816406 6.457031 8.929688 7.339844 8.929688 8.441406 L 8.929688 8.6875 C 8.929688 7.589844 9.816406 6.703125 10.914062 6.703125 L 43.160156 6.703125 C 44.257812 6.703125 45.144531 7.589844 45.144531 8.6875 L 45.144531 8.441406 C 45.144531 7.339844 44.257812 6.457031 43.160156 6.457031 Z M 10.914062 6.457031 "/>
<path style=" stroke:none;fill-rule:nonzero;fill:rgb(12.941177%,12.941177%,12.941177%);fill-opacity:1;" d="M 10.914062 6.1875 C 9.738281 6.1875 8.789062 7.136719 8.789062 8.3125 L 8.789062 15.753906 C 8.789062 16.929688 9.738281 17.878906 10.914062 17.878906 L 43.160156 17.878906 C 44.335938 17.878906 45.285156 16.929688 45.285156 15.753906 L 45.285156 8.3125 C 45.285156 7.136719 44.335938 6.1875 43.160156 6.1875 Z M 10.914062 6.46875 L 43.160156 6.46875 C 44.183594 6.46875 45.003906 7.289062 45.003906 8.3125 L 45.003906 15.753906 C 45.003906 16.777344 44.183594 17.597656 43.160156 17.597656 L 10.914062 17.597656 C 9.890625 17.597656 9.070312 16.777344 9.070312 15.753906 L 9.070312 8.3125 C 9.070312 7.289062 9.890625 6.46875 10.914062 6.46875 Z M 10.914062 6.46875 "/>
<path style=" stroke:none;fill-rule:nonzero;fill:rgb(14.901961%,77.64706%,85.490197%);fill-opacity:1;" d="M 3.96875 10.296875 C 2.871094 10.296875 1.984375 11.183594 1.984375 12.28125 L 1.984375 40.0625 C 1.984375 41.160156 2.871094 42.046875 3.96875 42.046875 L 43.65625 42.046875 C 44.753906 42.046875 45.640625 41.160156 45.640625 40.0625 L 45.640625 15.257812 L 18.851562 15.257812 C 17.753906 15.257812 16.867188 14.371094 16.867188 13.273438 L 16.867188 10.296875 Z M 3.96875 10.296875 "/>
<path style=" stroke:none;fill-rule:nonzero;fill:url(#linear2);" d="M 3.96875 10.296875 C 2.871094 10.296875 1.984375 11.183594 1.984375 12.28125 L 1.984375 40.0625 C 1.984375 41.160156 2.871094 42.046875 3.96875 42.046875 L 43.65625 42.046875 C 44.753906 42.046875 45.640625 41.160156 45.640625 40.0625 L 45.640625 15.257812 L 18.851562 15.257812 C 17.753906 15.257812 16.867188 14.371094 16.867188 13.273438 L 16.867188 10.296875 Z M 3.96875 10.296875 "/>
<path style=" stroke:none;fill-rule:nonzero;fill:rgb(0%,0%,0%);fill-opacity:0.196078;" d="M 3.96875 42.046875 C 2.871094 42.046875 1.984375 41.160156 1.984375 40.0625 L 1.984375 39.816406 C 1.984375 40.914062 2.871094 41.800781 3.96875 41.800781 L 43.65625 41.800781 C 44.753906 41.800781 45.640625 40.914062 45.640625 39.816406 L 45.640625 40.0625 C 45.640625 41.160156 44.753906 42.046875 43.65625 42.046875 Z M 3.96875 42.046875 "/>
<path style=" stroke:none;fill-rule:nonzero;fill:rgb(100%,100%,100%);fill-opacity:0.392157;" d="M 3.96875 10.425781 C 2.871094 10.425781 1.984375 11.308594 1.984375 12.410156 L 1.984375 12.65625 C 1.984375 11.558594 2.871094 10.671875 3.96875 10.671875 L 16.867188 10.671875 L 16.867188 10.425781 Z M 3.96875 10.425781 "/>
<path style=" stroke:none;fill-rule:nonzero;fill:rgb(100%,100%,100%);fill-opacity:0.392157;" d="M 18.726562 15.511719 C 17.628906 15.511719 16.742188 14.625 16.742188 13.527344 L 16.742188 13.277344 C 16.742188 14.378906 17.628906 15.265625 18.726562 15.261719 L 45.640625 15.261719 L 45.640625 15.511719 Z M 18.726562 15.511719 "/>
<path style=" stroke:none;fill-rule:nonzero;fill:rgb(12.941177%,12.941177%,12.941177%);fill-opacity:1;" d="M 3.96875 10.15625 C 2.792969 10.15625 1.84375 11.105469 1.84375 12.28125 L 1.84375 40.0625 C 1.84375 41.238281 2.792969 42.1875 3.96875 42.1875 L 43.65625 42.1875 C 44.832031 42.1875 45.78125 41.238281 45.78125 40.0625 L 45.78125 14.976562 L 18.851562 14.976562 C 17.828125 14.976562 17.007812 14.15625 17.007812 13.132812 L 17.007812 10.15625 Z M 3.96875 10.4375 L 16.726562 10.4375 L 16.726562 13.132812 C 16.726562 14.308594 17.675781 15.257812 18.851562 15.257812 L 45.5 15.257812 L 45.5 40.0625 C 45.5 41.085938 44.679688 41.90625 43.65625 41.90625 L 3.96875 41.90625 C 2.945312 41.90625 2.125 41.085938 2.125 40.0625 L 2.125 12.28125 C 2.125 11.257812 2.945312 10.4375 3.96875 10.4375 Z M 3.96875 10.4375 "/>
<path style=" stroke:none;fill-rule:nonzero;fill:rgb(0%,67.450982%,75.686276%);fill-opacity:1;" d="M 22.820312 19.210938 C 22.269531 19.210938 21.828125 19.652344 21.828125 20.203125 L 21.828125 29.132812 C 21.828125 29.679688 22.269531 30.125 22.820312 30.125 L 24.804688 30.125 C 25.355469 30.125 25.796875 29.679688 25.796875 29.132812 L 25.796875 20.203125 C 25.796875 19.652344 25.355469 19.210938 24.804688 19.210938 Z M 22.820312 32.109375 C 22.269531 32.109375 21.828125 32.550781 21.828125 33.101562 L 21.828125 34.09375 C 21.828125 34.640625 22.269531 35.085938 22.820312 35.085938 L 24.804688 35.085938 C 25.355469 35.085938 25.796875 34.640625 25.796875 34.09375 L 25.796875 33.101562 C 25.796875 32.550781 25.355469 32.109375 24.804688 32.109375 Z M 22.820312 32.109375 "/>
<path style=" stroke:none;fill-rule:nonzero;fill:rgb(0%,0%,0%);fill-opacity:0.235294;" d="M 22.820312 19.210938 C 22.269531 19.210938 21.828125 19.652344 21.828125 20.203125 L 21.828125 20.589844 C 21.828125 20.042969 22.269531 19.597656 22.820312 19.597656 L 24.804688 19.597656 C 25.355469 19.597656 25.796875 20.042969 25.796875 20.589844 L 25.796875 20.203125 C 25.796875 19.652344 25.355469 19.210938 24.804688 19.210938 Z M 22.820312 32.109375 C 22.269531 32.109375 21.828125 32.550781 21.828125 33.101562 L 21.828125 33.488281 C 21.828125 32.941406 22.269531 32.496094 22.820312 32.496094 L 24.804688 32.496094 C 25.355469 32.496094 25.796875 32.941406 25.796875 33.488281 L 25.796875 33.101562 C 25.796875 32.550781 25.355469 32.109375 24.804688 32.109375 Z M 22.820312 32.109375 "/>
<path style=" stroke:none;fill-rule:nonzero;fill:rgb(100%,100%,100%);fill-opacity:0.392157;" d="M 21.828125 29.148438 L 21.828125 29.519531 C 21.828125 30.070312 22.269531 30.511719 22.820312 30.511719 L 24.804688 30.511719 C 25.355469 30.511719 25.796875 30.070312 25.796875 29.519531 L 25.796875 29.148438 C 25.796875 29.699219 25.355469 30.140625 24.804688 30.140625 L 22.820312 30.140625 C 22.269531 30.140625 21.828125 29.699219 21.828125 29.148438 Z M 21.828125 34.109375 L 21.828125 34.480469 C 21.828125 35.03125 22.269531 35.472656 22.820312 35.472656 L 24.804688 35.472656 C 25.355469 35.472656 25.796875 35.03125 25.796875 34.480469 L 25.796875 34.109375 C 25.796875 34.660156 25.355469 35.101562 24.804688 35.101562 L 22.820312 35.101562 C 22.269531 35.101562 21.828125 34.660156 21.828125 34.109375 Z M 21.828125 34.109375 "/>
<path style=" stroke:none;fill-rule:nonzero;fill:rgb(12.941177%,12.941177%,12.941177%);fill-opacity:1;" d="M 22.820312 19.070312 C 22.195312 19.070312 21.6875 19.578125 21.6875 20.203125 L 21.6875 29.132812 C 21.6875 29.757812 22.195312 30.265625 22.820312 30.265625 L 24.804688 30.265625 C 25.429688 30.265625 25.9375 29.757812 25.9375 29.132812 L 25.9375 20.203125 C 25.9375 19.578125 25.429688 19.070312 24.804688 19.070312 Z M 22.820312 19.351562 L 24.804688 19.351562 C 25.277344 19.351562 25.65625 19.726562 25.65625 20.203125 L 25.65625 29.132812 C 25.65625 29.605469 25.277344 29.984375 24.804688 29.984375 L 22.820312 29.984375 C 22.347656 29.984375 21.96875 29.605469 21.96875 29.132812 L 21.96875 20.203125 C 21.96875 19.726562 22.347656 19.351562 22.820312 19.351562 Z M 22.820312 31.96875 C 22.195312 31.96875 21.6875 32.476562 21.6875 33.101562 L 21.6875 34.09375 C 21.6875 34.71875 22.195312 35.226562 22.820312 35.226562 L 24.804688 35.226562 C 25.429688 35.226562 25.9375 34.71875 25.9375 34.09375 L 25.9375 33.101562 C 25.9375 32.476562 25.429688 31.96875 24.804688 31.96875 Z M 22.820312 32.25 L 24.804688 32.25 C 25.277344 32.25 25.65625 32.625 25.65625 33.101562 L 25.65625 34.09375 C 25.65625 34.566406 25.277344 34.945312 24.804688 34.945312 L 22.820312 34.945312 C 22.347656 34.945312 21.96875 34.566406 21.96875 34.09375 L 21.96875 33.101562 C 21.96875 32.625 22.347656 32.25 22.820312 32.25 Z M 22.820312 32.25 "/>
</g>
</svg>
