<?xml version="1.0" encoding="UTF-8"?>
<svg xmlns="http://www.w3.org/2000/svg" xmlns:xlink="http://www.w3.org/1999/xlink" width="24pt" height="24pt" viewBox="0 0 24 24" version="1.1">
<g id="surface1">
<path style=" stroke:none;fill-rule:nonzero;fill:rgb(25.882354%,25.882354%,25.882354%);fill-opacity:1;" d="M 0.992188 1.179688 L 0.992188 23.011719 L 22.824219 23.011719 L 22.824219 1.179688 L 18.851562 1.179688 L 18.851562 3.164062 L 16.867188 3.164062 L 16.867188 1.179688 L 6.945312 1.179688 L 6.945312 3.164062 L 4.960938 3.164062 L 4.960938 1.179688 Z M 2.976562 5.148438 L 20.839844 5.148438 L 20.839844 21.027344 L 2.976562 21.027344 Z M 2.976562 5.148438 "/>
<path style=" stroke:none;fill-rule:nonzero;fill:rgb(25.882354%,25.882354%,25.882354%);fill-opacity:1;" d="M 4.960938 12.09375 L 6.945312 12.09375 L 6.945312 14.078125 L 4.960938 14.078125 Z M 4.960938 12.09375 "/>
<path style=" stroke:none;fill-rule:nonzero;fill:rgb(25.882354%,25.882354%,25.882354%);fill-opacity:1;" d="M 8.929688 12.09375 L 10.914062 12.09375 L 10.914062 14.078125 L 8.929688 14.078125 Z M 8.929688 12.09375 "/>
<path style=" stroke:none;fill-rule:nonzero;fill:rgb(25.882354%,25.882354%,25.882354%);fill-opacity:1;" d="M 12.898438 12.09375 L 14.882812 12.09375 L 14.882812 14.078125 L 12.898438 14.078125 Z M 12.898438 12.09375 "/>
<path style=" stroke:none;fill-rule:nonzero;fill:rgb(25.882354%,25.882354%,25.882354%);fill-opacity:1;" d="M 16.867188 12.09375 L 18.851562 12.09375 L 18.851562 14.078125 L 16.867188 14.078125 Z M 16.867188 12.09375 "/>
<path style=" stroke:none;fill-rule:nonzero;fill:rgb(25.882354%,25.882354%,25.882354%);fill-opacity:1;" d="M 4.960938 8.125 L 6.945312 8.125 L 6.945312 10.109375 L 4.960938 10.109375 Z M 4.960938 8.125 "/>
<path style=" stroke:none;fill-rule:nonzero;fill:rgb(25.882354%,25.882354%,25.882354%);fill-opacity:1;" d="M 8.929688 8.125 L 10.914062 8.125 L 10.914062 10.109375 L 8.929688 10.109375 Z M 8.929688 8.125 "/>
<path style=" stroke:none;fill-rule:nonzero;fill:rgb(93.725491%,32.549021%,31.37255%);fill-opacity:1;" d="M 11.90625 7.132812 L 15.875 7.132812 L 15.875 11.101562 L 11.90625 11.101562 Z M 11.90625 7.132812 "/>
<path style=" stroke:none;fill-rule:nonzero;fill:rgb(25.882354%,25.882354%,25.882354%);fill-opacity:1;" d="M 16.867188 8.125 L 18.851562 8.125 L 18.851562 10.109375 L 16.867188 10.109375 Z M 16.867188 8.125 "/>
<path style=" stroke:none;fill-rule:nonzero;fill:rgb(25.882354%,25.882354%,25.882354%);fill-opacity:1;" d="M 4.960938 16.0625 L 6.945312 16.0625 L 6.945312 18.046875 L 4.960938 18.046875 Z M 4.960938 16.0625 "/>
<path style=" stroke:none;fill-rule:nonzero;fill:rgb(25.882354%,25.882354%,25.882354%);fill-opacity:1;" d="M 8.929688 16.0625 L 10.914062 16.0625 L 10.914062 18.046875 L 8.929688 18.046875 Z M 8.929688 16.0625 "/>
<path style=" stroke:none;fill-rule:nonzero;fill:rgb(25.882354%,25.882354%,25.882354%);fill-opacity:1;" d="M 12.898438 16.0625 L 14.882812 16.0625 L 14.882812 18.046875 L 12.898438 18.046875 Z M 12.898438 16.0625 "/>
<path style=" stroke:none;fill-rule:nonzero;fill:rgb(25.882354%,25.882354%,25.882354%);fill-opacity:1;" d="M 16.867188 16.0625 L 18.851562 16.0625 L 18.851562 18.046875 L 16.867188 18.046875 Z M 16.867188 16.0625 "/>
</g>
</svg>
