<?xml version="1.0" encoding="UTF-8"?>
<svg xmlns="http://www.w3.org/2000/svg" xmlns:xlink="http://www.w3.org/1999/xlink" width="24pt" height="24pt" viewBox="0 0 24 24" version="1.1">
<g id="surface1">
<path style=" stroke:none;fill-rule:nonzero;fill:rgb(25.882354%,25.882354%,25.882354%);fill-opacity:1;" d="M 22.824219 23.011719 L 22.824219 12.09375 L 20.839844 12.09375 L 20.839844 21.027344 L 14.882812 21.027344 L 14.882812 23.011719 Z M 2.976562 9.117188 L 2.976562 3.164062 L 11.90625 3.164062 L 11.90625 1.179688 L 0.992188 1.179688 L 0.992188 9.117188 Z M 2.976562 9.117188 "/>
<path style=" stroke:none;fill-rule:nonzero;fill:rgb(25.882354%,25.882354%,25.882354%);fill-opacity:1;" d="M 10.914062 23.011719 L 10.914062 13.085938 L 0.992188 13.085938 L 0.992188 23.011719 Z M 8.929688 21.027344 L 2.976562 21.027344 L 2.976562 15.070312 L 8.929688 15.070312 Z M 8.929688 21.027344 "/>
<path style=" stroke:none;fill-rule:evenodd;fill:rgb(25.882354%,25.882354%,25.882354%);fill-opacity:1;" d="M 12.898438 12.09375 L 20.839844 7.132812 L 22.824219 9.117188 L 22.824219 1.179688 L 14.882812 1.179688 L 16.867188 3.164062 L 11.90625 11.101562 Z M 12.898438 12.09375 "/>
</g>
</svg>
