<svg xmlns="http://www.w3.org/2000/svg" width="32pt" height="32pt" viewBox="0 0 32 32"><defs><linearGradient id="a" gradientUnits="userSpaceOnUse" x1="254" y1="233.5" x2="254" y2="254.667" gradientTransform="matrix(.0625 0 0 .0625 .662 13.439)"><stop offset="0" stop-opacity=".275"/><stop offset="1" stop-opacity="0"/></linearGradient><radialGradient id="b" gradientUnits="userSpaceOnUse" cx="450.909" cy="189.579" fx="450.909" fy="189.579" r="21.167" gradientTransform="matrix(0 -.07813 -.14064 0 49.485 63.595)"><stop offset="0" stop-opacity=".314"/><stop offset=".222" stop-opacity=".275"/><stop offset="1" stop-opacity="0"/></radialGradient><radialGradient id="c" gradientUnits="userSpaceOnUse" cx="450.909" cy="189.579" fx="450.909" fy="189.579" r="21.167" gradientTransform="matrix(0 .07813 .14064 0 -18.393 -7.527)"><stop offset="0" stop-opacity=".314"/><stop offset=".222" stop-opacity=".275"/><stop offset="1" stop-opacity="0"/></radialGradient><radialGradient id="d" gradientUnits="userSpaceOnUse" cx="450.909" cy="189.579" fx="450.909" fy="189.579" r="21.167" gradientTransform="matrix(0 -.07813 .14064 0 -18.393 63.595)"><stop offset="0" stop-opacity=".314"/><stop offset=".222" stop-opacity=".275"/><stop offset="1" stop-opacity="0"/></radialGradient><radialGradient id="e" gradientUnits="userSpaceOnUse" cx="450.909" cy="189.579" fx="450.909" fy="189.579" r="21.167" gradientTransform="matrix(0 .07813 -.14064 0 49.485 -7.527)"><stop offset="0" stop-opacity=".314"/><stop offset=".222" stop-opacity=".275"/><stop offset="1" stop-opacity="0"/></radialGradient><linearGradient id="f" gradientUnits="userSpaceOnUse" x1="940" y1="1695.118" x2="940" y2="175.118" gradientTransform="rotate(.891) scale(.01654)"><stop offset="0" stop-color="#f48fb1"/><stop offset="1" stop-color="#f8bbd0"/></linearGradient><linearGradient id="g" gradientUnits="userSpaceOnUse" x1="249.189" y1="233.5" x2="249.189" y2="254.667" gradientTransform="matrix(.0299 0 0 .10938 15.042 -16.36)"><stop offset="0" stop-opacity=".275"/><stop offset="1" stop-opacity="0"/></linearGradient><linearGradient id="h" gradientUnits="userSpaceOnUse" x1="338.667" y1="233.5" x2="338.667" y2="-168.667" gradientTransform="matrix(.0625 0 0 .0625 0 13.439)"><stop offset="0" stop-color="#ec407a"/><stop offset="1" stop-color="#f06292"/></linearGradient><linearGradient id="i" gradientUnits="userSpaceOnUse" x1="248.708" y1="233.5" x2="243.417" y2="-168.667" gradientTransform="matrix(1.14105 0 0 1.14105 -31.893 -8.592)"><stop offset="0" stop-color="#ec407a"/><stop offset="1" stop-color="#f06292"/></linearGradient></defs><path d="M7.938 28.035h15.214v1.32H7.937zm0 0" fill="url(#a)"/><path d="M23.152 28.035h2.649v-1.324h-2.649zm0 0" fill="url(#b)"/><path d="M7.938 28.035H5.293v1.32h2.644zm0 0" fill="url(#c)"/><path d="M7.938 28.035H5.293v-1.324h2.644zm0 0" fill="url(#d)"/><path d="M23.152 28.035h2.649v1.32h-2.649zm0 0" fill="url(#e)"/><path d="M18.543 2.895H6.613c-.73 0-1.32.59-1.32 1.324V26.71c0 .734.59 1.324 1.32 1.324h17.864a1.32 1.32 0 0 0 1.324-1.324V10.152zm0 0" fill="url(#f)"/><path d="M18.523 9.18h6.286l.992.992v1.324h-7.278zm0 0" fill="url(#g)"/><path d="M5.293 26.195v.516c0 .734.59 1.324 1.32 1.324h17.864a1.32 1.32 0 0 0 1.324-1.324v-.516a1.32 1.32 0 0 1-1.324 1.325H6.613c-.73 0-1.32-.59-1.32-1.325zm0 0" fill-opacity=".235"/><path d="M6.613 2.895c-.73 0-1.32.59-1.32 1.324v.496c0-.735.59-1.324 1.32-1.324h11.93l7.258 7.257v-.496l-7.258-7.257zm0 0" fill="#fff" fill-opacity=".392"/><path d="M25.8 10.152l-7.257-7.257v5.937c0 .73.59 1.32 1.32 1.32zm0 0" fill="url(#h)"/><path d="M18.543 8.52v.312c0 .73.59 1.32 1.32 1.32h5.938l-.313-.308h-5.625c-.73 0-1.32-.59-1.32-1.324zm0 0" fill-opacity=".235"/><path d="M18.543 2.895v.496l6.762 6.761h.496zm0 0" fill="#fff" fill-opacity=".392"/><path d="M18.54 2.8a.094.094 0 0 0-.09.095v5.937c0 .781.632 1.414 1.413 1.414h5.938c.035 0 .07-.023.086-.059.015-.035.004-.074-.02-.101L18.61 2.828a.112.112 0 0 0-.07-.027zm.097.321l6.937 6.938h-5.71c-.68 0-1.227-.547-1.227-1.227zm0 0" fill="#212121"/><path d="M6.613 2.8C5.832 2.8 5.2 3.439 5.2 4.22V26.71c0 .785.633 1.418 1.414 1.418h17.864c.78 0 1.418-.633 1.418-1.418V10.152a.11.11 0 0 0-.028-.066L18.61 2.828a.11.11 0 0 0-.066-.027zm0 .188h11.89l7.204 7.203v16.52c0 .684-.547 1.23-1.23 1.23H6.613c-.68 0-1.226-.546-1.226-1.23V4.219c0-.684.547-1.23 1.226-1.23zm0 0" fill="#212121"/><path d="M324.969 52.662c-7 .062-13.124 1.625-18.186 4.062-1.875-3.562-3.812-6.687-4.124-9-.313-2.686-.75-4.311-.313-7.56.438-3.188 2.375-7.75 2.375-8.125-.063-.313-.438-2-4.5-2-4-.125-7.499.75-7.874 1.75-.437 1-1.187 3.312-1.687 5.687-.75 3.5-8.124 15.998-12.312 22.498-1.374-2.5-2.562-4.75-2.75-6.562-.374-2.687-.812-4.312-.374-7.562.437-3.187 2.374-7.75 2.374-8.124 0-.375-.437-2-4.437-2-4.062-.125-7.561.75-7.936 1.75s-.813 3.375-1.688 5.687c-.812 2.312-10.624 23.123-13.186 28.56a145.283 145.283 0 0 1-3.25 6.437c-.812 1.5-.062.124-.125.25-.687 1.312-1.124 2-1.124 2v.062c-.5.937-1.125 1.875-1.375 1.875-.188 0-.625-2.5.062-5.937 1.438-7.25 5-18.499 4.937-18.874 0-.187.688-2.187-2.25-3.187-2.874-1-3.874.625-4.124.625-.25 0-.438.625-.438.625s3.188-12.686-6.062-12.686c-5.812 0-13.81 6.062-17.81 11.499-2.5 1.312-7.812 4.124-13.5 7.062-2.124 1.124-4.374 2.312-6.498 3.374l-.438-.437c-11.186-11.374-31.934-19.436-31.06-34.81.313-5.561 2.313-20.247 39.81-38.058 30.746-14.561 55.306-10.562 59.619-1.688 6.061 12.75-13.124 36.372-45.059 39.747-12.186 1.312-18.56-3.188-20.185-4.812-1.688-1.813-1.938-1.875-2.562-1.5-1 .5-.375 2.062 0 3 .937 2.374 4.874 6.561 11.56 8.624 5.813 1.812 20.124 2.874 37.372-3.5 19.311-7.124 34.435-26.935 29.997-43.496-4.5-16.873-33.871-22.435-61.556-12.999C199.73-19.519 181.858-10.77 168.984.73c-15.311 13.624-17.686 25.498-16.686 30.435 3.562 17.623 28.997 29.06 39.246 37.559-.562.25-1 .5-1.437.75-5.125 2.375-24.498 12.061-29.372 22.31-5.5 11.562.875 19.936 5.062 21.06 13.123 3.438 26.56-2.812 33.809-13.06 7.187-10.312 6.374-23.623 3-29.748l-.125-.187 4-2.25a333.87 333.87 0 0 1 7.374-3.937c-1.25 3.25-2.125 7.062-2.625 12.686-.563 6.562 2.312 15.124 6 18.498 1.687 1.438 3.624 1.438 4.874 1.438 4.312 0 6.25-3.375 8.374-7.437 2.687-5 5.062-10.749 5.062-10.749s-2.937 15.624 5.062 15.624c2.937 0 5.937-3.625 7.25-5.5v.063s.062-.125.25-.375c.312-.438.437-.688.437-.688v-.125c1.187-1.937 3.812-6.374 7.749-13.749 5.062-9.499 9.937-21.372 9.937-21.372s.437 2.937 1.874 7.686c.875 2.875 2.75 5.937 4.25 9-1.187 1.562-1.937 2.437-1.937 2.437l.062.125c-.937 1.187-2 2.437-3.125 3.687-4 4.562-8.749 9.749-9.374 11.249-.75 1.812-.625 3.062.875 4.124 1.063.75 2.938.938 4.937.75 3.562-.187 6.125-1.062 7.375-1.625 1.937-.625 4.187-1.624 6.312-3.124 3.937-2.813 6.311-6.687 6.124-11.937-.125-2.874-1.125-5.75-2.312-8.436.312-.438.687-.938 1.062-1.5 6.187-8.624 10.936-18.123 10.936-18.123s.5 2.937 1.938 7.686c.75 2.438 2.25 5.125 3.562 7.75-5.812 4.5-9.437 9.749-10.687 13.186-2.312 6.312-.5 9.186 2.875 9.874 1.563.312 3.75-.375 5.375-1 2.062-.687 4.562-1.75 6.812-3.375 3.937-2.75 7.686-6.624 7.499-11.811-.125-2.375-.813-4.75-1.688-7 4.938-1.937 11.312-3.062 19.436-2.124 17.436 1.937 20.936 12.374 20.248 16.686-.687 4.312-4.312 6.75-5.5 7.499-1.25.687-1.624.937-1.5 1.5.126.75.688.75 1.75.562 1.438-.187 9.187-3.562 9.5-11.561.437-10.25-9.75-21.436-27.935-21.373zM190.357 95.908c-5.812 6-13.936 8.312-17.374 6.374-3.687-2.062-2.25-10.936 4.813-17.31 4.312-3.875 9.936-7.5 13.623-9.687.813-.5 2.125-1.188 3.562-2.063.25-.125.438-.187.438-.187.25-.187.562-.375.875-.562 2.625 9.124.125 17.123-5.937 23.435zm42.12-27.31c-1.999 4.687-6.186 16.686-8.748 15.998-2.188-.562-3.563-9.624-.438-18.623 1.563-4.5 4.875-9.874 6.875-11.999 3.187-3.374 6.624-4.5 7.499-3.124 1 1.812-3.875 14.81-5.187 17.748zm34.81 15.873c-.875.375-1.625.688-2 .438-.25-.125.375-.688.375-.688s4.312-4.437 6.062-6.499c1-1.187 2.187-2.562 3.437-4.187v.5c0 5.374-5.437 8.937-7.874 10.374zm26.872-5.874c-.687-.437-.562-1.812 1.563-6.124.812-1.75 2.687-4.625 5.937-7.375.375 1.125.625 2.25.562 3.25 0 6.687-5.062 9.187-8.062 10.249zm0 0" transform="matrix(.0625 0 0 .0625 0 13.439)" fill="url(#i)" stroke-width="3" stroke="#212121"/></svg>