<svg xmlns="http://www.w3.org/2000/svg" width="32" height="32" viewBox="0 0 24 24"><defs><radialGradient id="a" gradientUnits="userSpaceOnUse" cx="450.909" cy="189.579" fx="450.909" fy="189.579" r="21.167" gradientTransform="matrix(0 -.0586 -.10548 0 31.656 48.44)"><stop offset="0" stop-opacity=".314"/><stop offset=".222" stop-opacity=".275"/><stop offset="1" stop-opacity="0"/></radialGradient><radialGradient id="b" gradientUnits="userSpaceOnUse" cx="450.909" cy="189.579" fx="450.909" fy="189.579" r="21.167" gradientTransform="matrix(0 .0586 .10548 0 -7.841 -4.901)"><stop offset="0" stop-opacity=".314"/><stop offset=".222" stop-opacity=".275"/><stop offset="1" stop-opacity="0"/></radialGradient><radialGradient id="c" gradientUnits="userSpaceOnUse" cx="450.909" cy="189.579" fx="450.909" fy="189.579" r="21.167" gradientTransform="matrix(0 -.0586 .10548 0 -7.841 48.44)"><stop offset="0" stop-opacity=".314"/><stop offset=".222" stop-opacity=".275"/><stop offset="1" stop-opacity="0"/></radialGradient><radialGradient id="d" gradientUnits="userSpaceOnUse" cx="450.909" cy="189.579" fx="450.909" fy="189.579" r="21.167" gradientTransform="matrix(0 .0586 -.10548 0 31.656 -4.901)"><stop offset="0" stop-opacity=".314"/><stop offset=".222" stop-opacity=".275"/><stop offset="1" stop-opacity="0"/></radialGradient><linearGradient id="e" gradientUnits="userSpaceOnUse" x1="254" y1="43" x2="254" y2="-168.667" gradientTransform="matrix(.04688 0 0 .04688 -.009 10.08)"><stop offset="0" stop-color="#a1887f"/><stop offset="1" stop-color="#bcaaa4"/></linearGradient><linearGradient id="f" gradientUnits="userSpaceOnUse" x1="232.833" y1="254.667" x2="232.833" y2="21.833" gradientTransform="matrix(.04688 0 0 .04688 0 10.08)"><stop offset="0" stop-color="#a1887f"/><stop offset="1" stop-color="#bcaaa4"/></linearGradient><linearGradient id="g" gradientUnits="userSpaceOnUse" x1="254" y1="43" x2="254" y2="-168.667" gradientTransform="matrix(.04688 0 0 .04688 -.009 10.08)"><stop offset="0" stop-color="#a1887f"/><stop offset="1" stop-color="#bcaaa4"/></linearGradient></defs><path d="M11.906 21.77h1.985v-.993h-1.985zm0 0" fill="url(#a)"/><path d="M11.906 21.77H9.922v.992h1.984zm0 0" fill="url(#b)"/><path d="M11.906 21.77H9.922v-.993h1.984zm0 0" fill="url(#c)"/><path d="M11.906 21.77h1.985v.992h-1.985zm0 0" fill="url(#d)"/><path d="M11.906 2.172a.53.53 0 0 0-.207.043L2.766 6.184a.497.497 0 0 0-.04.886l8.93 4.961a.507.507 0 0 0 .485 0l8.93-4.96a.497.497 0 0 0-.04-.887l-8.933-3.97a.526.526 0 0 0-.192-.042zm0 0" fill="url(#e)"/><path d="M20.984 6.164l.047.02a.497.497 0 0 1 .04.886l-8.93 4.961a.507.507 0 0 1-.485 0l-8.93-4.96a.5.5 0 0 1-.246-.34v9.828c0 .18.098.347.258.433l8.93 4.961.008.008c.004 0 .008.004.015.004a.03.03 0 0 0 .016.008c.004.004.008.004.012.004l.02.011h.007a.056.056 0 0 0 .024.008c.011.004.02.008.03.008l.032.008c.008 0 .02.004.031.004h.09c.012 0 .02-.004.031-.004.008-.004.02-.004.032-.008.007 0 .02-.004.027-.008h.004a.056.056 0 0 0 .023-.008h.008c.004-.004.012-.008.02-.011.004 0 .007 0 .011-.004a.03.03 0 0 0 .016-.008c.004 0 .008-.004.012-.004.004-.004.008-.004.011-.008l8.93-4.96a.496.496 0 0 0 .254-.434V6.637a.497.497 0 0 0-.348-.473zm0 0" fill="url(#f)"/><path d="M11.918 2.172a.55.55 0 0 0-.211.043l-8.93 3.969c-.004.003-.004.003-.007.003-.004 0-.004.004-.008.004a.474.474 0 0 0-.266.336c-.004.008-.004.012-.004.016-.004.004-.004.008-.004.012 0 .008 0 .015-.004.023V6.621c-.004.004-.004.012-.004.016v.246c0-.004 0-.012.004-.016V6.86v-.027-.008c.004-.008.004-.015.004-.023 0-.004 0-.008.004-.012 0-.004 0-.008.004-.016a.474.474 0 0 1 .266-.335c.004 0 .004 0 .008-.004h.007l8.93-3.973a.54.54 0 0 1 .402 0l8.93 3.973c.004 0 .008 0 .012.003.004 0 .008.004.012.004 0 .004.003.004.003.004.133.07.215.184.25.313 0 .008.004.012.004.015 0 .008.004.012.004.016v.012a.05.05 0 0 1 .004.023v.008c.004.008.004.02.004.027v.024-.246-.016-.008c0-.008 0-.02-.004-.031v-.004c0-.008 0-.016-.004-.023v-.012l-.004-.016c0-.004-.004-.011-.004-.015a.484.484 0 0 0-.25-.313l-.003-.004c-.004 0-.008-.004-.012-.004-.004-.003-.008-.003-.012-.007l-8.93-3.97a.545.545 0 0 0-.191-.042zm0 0" fill="#fff" fill-opacity=".392"/><path d="M2.48 16.316v.243c0 .18.098.347.258.433l8.93 4.961.008.008c.004 0 .008.004.015.004a.03.03 0 0 0 .016.008c.004.004.008.004.012.004l.02.011h.007a.056.056 0 0 0 .024.008c.011.004.02.008.03.008l.032.008c.008 0 .02.004.031.004h.09c.012 0 .02-.004.031-.004.008-.004.02-.004.032-.008.007 0 .02-.004.027-.008h.004a.056.056 0 0 0 .023-.008h.008c.004-.004.012-.008.02-.011.004 0 .007 0 .011-.004a.03.03 0 0 0 .016-.008c.004 0 .008-.004.012-.004.004-.004.008-.004.011-.008l8.93-4.96a.496.496 0 0 0 .254-.434v-.243c0 .18-.098.348-.254.434l-8.93 4.96c-.003 0-.007.005-.011.005-.004.004-.008.004-.012.008s-.012.004-.016.007c-.004 0-.007.004-.011.004-.008.004-.016.008-.02.008s-.004.004-.008.004c-.008.004-.015.004-.023.008h-.004c-.008.004-.02.004-.027.008-.012.004-.024.004-.032.008-.011 0-.02 0-.03.003h-.091c-.011-.003-.023-.003-.031-.003-.012-.004-.02-.004-.031-.008-.012-.004-.02-.004-.031-.008-.008-.004-.016-.004-.024-.008-.004 0-.004-.004-.008-.004a.03.03 0 0 1-.02-.008c-.003 0-.007-.004-.011-.004-.004-.003-.012-.003-.016-.007-.007-.004-.011-.004-.015-.008-.004 0-.004-.004-.008-.004l-8.93-4.961a.492.492 0 0 1-.258-.434zm0 0" fill-opacity=".196"/><path d="M2.48 6.531v.621l9.18 5.094v9.774h.504v-9.778l9.172-5.09v-.496l-.117.043-9.313 5.149-9.312-5.149zm0 0" fill="#fff" fill-opacity=".314"/><path d="M11.906 2.172a.53.53 0 0 0-.207.043L2.766 6.184a.497.497 0 0 0-.04.886l8.93 4.961a.507.507 0 0 0 .485 0l8.93-4.96a.497.497 0 0 0-.04-.887l-8.933-3.97a.526.526 0 0 0-.192-.042zm0 0" fill="url(#g)"/><path d="M11.918 2.102a.556.556 0 0 0-.238.05l-8.934 3.97a.56.56 0 0 0-.328.554c.043-.012.086-.02.133-.028a.416.416 0 0 1 .254-.398l8.93-3.969a.414.414 0 0 1 .18-.039.46.46 0 0 1 .163.04l8.934 3.968c.168.074.254.23.254.387h.132a.55.55 0 0 0-.332-.516l-8.93-3.969a.616.616 0 0 0-.218-.05zm0 0" fill="#212121"/><path d="M2.52 6.305a.573.573 0 0 0-.11.332v9.922a.57.57 0 0 0 .293.496l8.93 4.96a.03.03 0 0 0 .012.005c.003.003.007.007.015.007.004.004.012.008.02.012.004 0 .008.004.011.004l.024.012h.008c.007.004.015.008.027.011 0 0 .004 0 0 0 .012 0 .023.004.035.008.012.004.024.004.035.008.012 0 .024 0 .035.004.004 0 .004 0 0 0h.106c.012-.004.023-.004.035-.004.012-.004.024-.004.035-.008.012-.004.02-.008.031-.008h.004l.028-.011h.008l.023-.012c.004 0 .008-.004.012-.004.008-.004.011-.008.02-.012.003 0 .011-.004.015-.004 0-.003.004-.003.012-.007l8.93-4.961c.179-.102.288-.29.288-.496V6.637a.546.546 0 0 0-.109-.332l-.121.07c.055.07.09.164.09.262v9.922a.418.418 0 0 1-.219.37l-8.93 4.966s-.004 0-.008.003c-.003 0-.007.004-.011.004-.004.004-.012.004-.016.008 0 0-.004.004-.008.004l-.02.008h-.003c-.008.004-.016.004-.024.008.004 0 .004 0 0 0-.007.004-.015.004-.023.008-.012 0-.02.003-.027.003-.008 0-.02.004-.028.004.004 0 .004 0 0 0H11.867c-.008 0-.015-.004-.023-.004-.012 0-.02-.003-.028-.003-.007-.004-.015-.004-.027-.008l-.02-.008h-.007c-.004-.004-.012-.004-.016-.008-.004 0-.008-.004-.012-.004-.004-.004-.007-.004-.015-.008 0 0-.004-.004-.008-.004l-.012-.003-8.93-4.965a.426.426 0 0 1-.218-.371V6.637c0-.098.035-.192.094-.262zm0 0" fill="#212121"/><path d="M11.906 2.496c-.02 0-.039 0-.062.004v9.59a.357.357 0 0 0 .062.004c.024 0 .043 0 .063-.004V2.5c-.02-.004-.04-.004-.063-.004zm-.41 10.14c.004.005.012.005.02.009-.008-.004-.016-.004-.02-.008zm.16.036h.012-.012zm0 0" fill-opacity=".235"/><path d="M11.906 2.172a.53.53 0 0 0-.207.043L2.766 6.184a.497.497 0 0 0-.04.886l.2.11a.48.48 0 0 1 .113-.805l8.664-3.84a.522.522 0 0 1 .39 0l8.665 3.84a.482.482 0 0 1 .117.805l.195-.11a.497.497 0 0 0-.039-.886l-8.933-3.97a.526.526 0 0 0-.192-.042zm-1.969 8.906l1.72.953a.507.507 0 0 0 .484 0l1.507-.836-1.515.836a.477.477 0 0 1-.469 0zm0 0" fill="#fff" fill-opacity=".392"/></svg>