<?xml version="1.0" encoding="UTF-8"?>
<svg xmlns="http://www.w3.org/2000/svg" xmlns:xlink="http://www.w3.org/1999/xlink" width="512pt" height="512pt" viewBox="0 0 512 512" version="1.1">
<defs>
<radialGradient id="radial0" gradientUnits="userSpaceOnUse" cx="450.908936" cy="189.579361" fx="450.908936" fy="189.579361" r="21.166656" gradientTransform="matrix(0.00000278673,-1.250119,-2.250215,-0.00000162462,712.37043,1017.52527)">
<stop offset="0" style="stop-color:rgb(0%,0%,0%);stop-opacity:0.313725;"/>
<stop offset="0.222222" style="stop-color:rgb(0%,0%,0%);stop-opacity:0.27451;"/>
<stop offset="1" style="stop-color:rgb(0%,0%,0%);stop-opacity:0;"/>
</radialGradient>
<radialGradient id="radial1" gradientUnits="userSpaceOnUse" cx="450.908936" cy="189.579361" fx="450.908936" fy="189.579361" r="21.166656" gradientTransform="matrix(-0.00000278673,1.250119,2.250215,0.00000162462,-204.321898,-120.439713)">
<stop offset="0" style="stop-color:rgb(0%,0%,0%);stop-opacity:0.313725;"/>
<stop offset="0.222222" style="stop-color:rgb(0%,0%,0%);stop-opacity:0.27451;"/>
<stop offset="1" style="stop-color:rgb(0%,0%,0%);stop-opacity:0;"/>
</radialGradient>
<radialGradient id="radial2" gradientUnits="userSpaceOnUse" cx="450.908936" cy="189.579361" fx="450.908936" fy="189.579361" r="21.166656" gradientTransform="matrix(-0.00000278673,-1.250119,2.250215,-0.00000162462,-204.321898,1017.52527)">
<stop offset="0" style="stop-color:rgb(0%,0%,0%);stop-opacity:0.313725;"/>
<stop offset="0.222222" style="stop-color:rgb(0%,0%,0%);stop-opacity:0.27451;"/>
<stop offset="1" style="stop-color:rgb(0%,0%,0%);stop-opacity:0;"/>
</radialGradient>
<radialGradient id="radial3" gradientUnits="userSpaceOnUse" cx="450.908936" cy="189.579361" fx="450.908936" fy="189.579361" r="21.166656" gradientTransform="matrix(0.00000278673,1.250119,-2.250215,0.00000162462,712.3704,-120.43972)">
<stop offset="0" style="stop-color:rgb(0%,0%,0%);stop-opacity:0.313725;"/>
<stop offset="0.222222" style="stop-color:rgb(0%,0%,0%);stop-opacity:0.27451;"/>
<stop offset="1" style="stop-color:rgb(0%,0%,0%);stop-opacity:0;"/>
</radialGradient>
<linearGradient id="linear0" gradientUnits="userSpaceOnUse" x1="255.323059" y1="233.5" x2="255.323044" y2="254.666656" gradientTransform="matrix(0.213761,0,0,1.000095,199.446179,215.020539)">
<stop offset="0" style="stop-color:rgb(0%,0%,0%);stop-opacity:0.27451;"/>
<stop offset="1" style="stop-color:rgb(0%,0%,0%);stop-opacity:0;"/>
</linearGradient>
<linearGradient id="linear1" gradientUnits="userSpaceOnUse" x1="264.583313" y1="-168.666656" x2="264.583313" y2="233.5" gradientTransform="matrix(1.000095,0,0,1.000095,0.0000233356,215.020511)">
<stop offset="0" style="stop-color:rgb(100%,71.764706%,30.196078%);stop-opacity:1;"/>
<stop offset="1" style="stop-color:rgb(100%,65.490196%,14.901961%);stop-opacity:1;"/>
</linearGradient>
<linearGradient id="linear2" gradientUnits="userSpaceOnUse" x1="229.272812" y1="7.689433" x2="275.065155" y2="53.481777" gradientTransform="matrix(0.969862,-0.000000000000000056,0.000000000000000056,0.969862,-115.770332,-280.808167)">
<stop offset="0" style="stop-color:rgb(38.039216%,38.039216%,38.039216%);stop-opacity:1;"/>
<stop offset="1" style="stop-color:rgb(25.882353%,25.882353%,25.882353%);stop-opacity:1;"/>
</linearGradient>
</defs>
<g id="surface1">
<path style=" stroke:none;fill-rule:nonzero;fill:url(#radial0);" d="M 291.070312 448.542969 L 333.40625 448.542969 L 333.40625 427.375 L 291.070312 427.375 Z M 291.070312 448.542969 "/>
<path style=" stroke:none;fill-rule:nonzero;fill:url(#radial1);" d="M 216.980469 448.542969 L 174.640625 448.542969 L 174.640625 469.710938 L 216.980469 469.710938 Z M 216.980469 448.542969 "/>
<path style=" stroke:none;fill-rule:nonzero;fill:url(#radial2);" d="M 216.980469 448.542969 L 174.640625 448.542969 L 174.640625 427.375 L 216.980469 427.375 Z M 216.980469 448.542969 "/>
<path style=" stroke:none;fill-rule:nonzero;fill:url(#radial3);" d="M 291.070312 448.542969 L 333.40625 448.542969 L 333.40625 469.710938 L 291.070312 469.710938 Z M 291.070312 448.542969 "/>
<path style=" stroke:none;fill-rule:nonzero;fill:url(#linear0);" d="M 216.980469 443.25 L 291.070312 443.25 L 291.070312 469.710938 L 216.980469 469.710938 Z M 216.980469 443.25 "/>
<path style=" stroke:none;fill-rule:nonzero;fill:url(#linear1);" d="M 254.023438 46.335938 C 142.613281 46.335938 52.921875 136.027344 52.921875 247.441406 C 52.921875 358.851562 142.613281 448.542969 254.023438 448.542969 C 321.105469 448.542969 380.3125 416.023438 416.808594 365.828125 L 254.023438 247.441406 L 416.808594 129.050781 C 380.3125 78.855469 321.105469 46.335938 254.023438 46.335938 Z M 254.023438 46.335938 "/>
<path style="fill-rule:nonzero;fill:url(#linear2);stroke-width:3;stroke-linecap:round;stroke-linejoin:round;stroke:rgb(12.941177%,12.941177%,12.941177%);stroke-opacity:1;stroke-miterlimit:4;" d="M 130.575101 -280.159482 C 147.579948 -280.162243 161.367213 -266.374977 161.367212 -249.367368 C 161.367211 -232.35976 147.582706 -218.575257 130.575097 -218.575258 C 113.567489 -218.575259 99.780224 -232.362526 99.782987 -249.367372 C 99.782988 -266.374981 113.567493 -280.159484 130.575101 -280.159482 Z M 130.575101 -280.159482 " transform="matrix(0.707174,0.707174,-0.707174,0.707174,0,215.020531)"/>
<path style=" stroke:none;fill-rule:nonzero;fill:rgb(100%,100%,100%);fill-opacity:0.392157;" d="M 254.023438 46.335938 C 142.613281 46.335938 52.921875 136.027344 52.921875 247.441406 C 52.921875 248.765625 52.9375 250.089844 52.964844 251.410156 C 55.066406 141.84375 143.941406 54.277344 254.023438 54.277344 C 318.792969 54.277344 376.214844 84.589844 412.949219 131.859375 L 416.808594 129.050781 C 380.3125 78.855469 321.105469 46.335938 254.023438 46.335938 Z M 259.480469 251.410156 L 254.023438 255.378906 L 412.949219 370.960938 C 414.261719 369.269531 415.550781 367.5625 416.808594 365.828125 Z M 259.480469 251.410156 "/>
<path style=" stroke:none;fill-rule:nonzero;fill:rgb(0%,0%,0%);fill-opacity:0.235294;" d="M 254.023438 448.542969 C 142.613281 448.542969 52.921875 358.851562 52.921875 247.441406 C 52.921875 246.113281 52.9375 244.792969 52.964844 243.472656 C 55.066406 353.035156 143.941406 440.605469 254.023438 440.605469 C 318.792969 440.605469 376.214844 410.289062 412.949219 363.019531 L 416.808594 365.828125 C 380.3125 416.023438 321.105469 448.542969 254.023438 448.542969 Z M 259.480469 243.472656 L 254.023438 239.503906 L 412.949219 123.921875 C 414.261719 125.609375 415.550781 127.320312 416.808594 129.050781 Z M 259.480469 243.472656 "/>
<path style=" stroke:none;fill-rule:nonzero;fill:rgb(12.941177%,12.941177%,12.941177%);fill-opacity:1;" d="M 254.023438 44.835938 C 141.808594 44.835938 51.421875 135.222656 51.421875 247.441406 C 51.421875 359.65625 141.808594 450.042969 254.023438 450.042969 C 321.589844 450.042969 381.253906 417.28125 418.023438 366.710938 L 418.90625 365.5 L 256.574219 247.441406 L 418.90625 129.382812 L 418.023438 128.167969 C 381.253906 77.597656 321.589844 44.835938 254.023438 44.835938 Z M 254.023438 47.835938 C 320.082031 47.835938 378.40625 79.601562 414.695312 128.734375 L 251.472656 247.441406 L 414.695312 366.148438 C 378.40625 415.28125 320.082031 447.042969 254.023438 447.042969 C 143.417969 447.042969 54.421875 358.046875 54.421875 247.441406 C 54.421875 136.835938 143.417969 47.835938 254.023438 47.835938 Z M 254.023438 47.835938 "/>
</g>
</svg>
