<svg height="64pt" viewBox="0 0 64 64" width="64pt" xmlns="http://www.w3.org/2000/svg" xmlns:xlink="http://www.w3.org/1999/xlink"><linearGradient id="a"><stop offset="0" stop-opacity=".313725"/><stop offset=".222222" stop-opacity=".27451"/><stop offset="1" stop-opacity="0"/></linearGradient><radialGradient id="b" cx="450.90894" cy="189.57936" gradientTransform="matrix(.00000035 -.156265 -.281277 -.0000002 89.046304 127.190664)" gradientUnits="userSpaceOnUse" r="21.166656" xlink:href="#a"/><radialGradient id="c" cx="450.90894" cy="189.57936" gradientTransform="matrix(-.00000035 .156265 .281277 .0000002 -25.540241 -15.054962)" gradientUnits="userSpaceOnUse" r="21.166656" xlink:href="#a"/><radialGradient id="d" cx="450.90894" cy="189.57936" gradientTransform="matrix(-.00000035 -.156265 .281277 -.0000002 -25.540241 127.190664)" gradientUnits="userSpaceOnUse" r="21.166656" xlink:href="#a"/><radialGradient id="e" cx="450.90894" cy="189.57936" gradientTransform="matrix(.00000035 .156265 -.281277 .0000002 89.0463 -15.054964)" gradientUnits="userSpaceOnUse" r="21.166656" xlink:href="#a"/><linearGradient id="f" gradientTransform="matrix(.0267201 0 0 .125012 24.930772 26.877567)" gradientUnits="userSpaceOnUse" x1="255.32306" x2="255.32304" y1="233.5" y2="254.66666"><stop offset="0" stop-opacity=".27451"/><stop offset="1" stop-opacity="0"/></linearGradient><linearGradient id="g" gradientUnits="userSpaceOnUse" x1="960.000112" x2="960.000112" y1="175.11802806824" y2="1695.118218"><stop offset="0" stop-color="#757575"/><stop offset="1" stop-color="#616161"/></linearGradient><linearGradient id="h" gradientUnits="userSpaceOnUse" x1="960.000112" x2="960.000112" y1="1255.11819186352" y2="615.118092"><stop offset="0" stop-color="#f5f5f5"/><stop offset="1" stop-color="#e0e0e0"/></linearGradient><path d="m36.382812 56.066406h5.292969v-2.644531h-5.292969zm0 0" fill="url(#b)"/><path d="m27.121094 56.066406h-5.289063v2.648438h5.289063zm0 0" fill="url(#c)"/><path d="m27.121094 56.066406h-5.289063v-2.644531h5.289063zm0 0" fill="url(#d)"/><path d="m36.382812 56.066406h5.292969v2.648438h-5.292969zm0 0" fill="url(#e)"/><path d="m27.121094 55.40625h9.261718v3.308594h-9.261718zm0 0" fill="url(#f)"/><path d="m960.026444 175.140757c-421.022791 0-760.084905 338.944015-760.084905 759.966807s339.062114 759.966806 760.084905 759.966806c421.022792 0 759.966807-338.944014 759.966807-759.966806s-338.944015-759.966807-759.966807-759.966807zm0 599.942716c88.57422 0 160.024091 71.449871 160.024091 160.024091 0 88.692319-71.449871 160.02409-160.024091 160.02409-88.692318 0-160.02409-71.331771-160.02409-160.02409 0-88.57422 71.331772-160.024091 160.02409-160.024091zm0 0" fill="url(#g)" stroke="#333" stroke-linecap="round" stroke-width="11.338583" transform="scale(.0330761)"/><path d="m31.753906 56.066406c-13.925781 0-25.140625-11.210937-25.140625-25.136718 0-.082032.003907-.164063.003907-.246094.128906 13.8125 11.292968 24.890625 25.136718 24.890625s25.003906-11.078125 25.136719-24.890625v.246094c0 13.925781-11.210937 25.136718-25.136719 25.136718zm0 0" fill-opacity=".196078"/><path d="m13.847656 13.566406c-1.488281 1.519532-2.777344 3.21875-3.839844 5.0625-1.0625 1.839844-1.890624 3.808594-2.464843 5.851563l5.648437 1.515625c.867188-3.125 2.515625-5.980469 4.789063-8.296875zm5.179688 5.183594c-2.085938 2.128906-3.601563 4.757812-4.398438 7.632812l12.027344 3.222657c.234375-.761719.636719-1.460938 1.179688-2.050781zm17.707031 13.945312c-.117187.378907-.277344.746094-.476563 1.089844-.199218.34375-.433593.664063-.707031.957032l8.816407 8.8125c2.085937-2.132813 3.597656-4.761719 4.394531-7.636719zm13.464844 3.605469c-.867188 3.128907-2.515625 5.984375-4.785157 8.300781l4.128907 4.128907c1.488281-1.519531 2.777343-3.21875 3.835937-5.0625 1.066406-1.839844 1.894532-3.804688 2.464844-5.851563zm0 0" fill="#fff" fill-opacity=".156863"/><path d="m31.753906 5.792969c-13.925781 0-25.140625 11.210937-25.140625 25.136719 0 .082031.003907.164062.003907.246093.128906-13.8125 11.292968-24.890625 25.136718-24.890625s25.003906 11.078125 25.136719 24.890625c0-.082031 0-.164062 0-.246093 0-13.925782-11.210937-25.136719-25.136719-25.136719zm0 0" fill="#fff" fill-opacity=".588235"/><path d="m31.753906 5.605469c-14.027344 0-25.328125 11.296875-25.328125 25.324219 0 14.027343 11.300781 25.324218 25.328125 25.324218s25.324219-11.296875 25.324219-25.324218c0-14.027344-11.296875-25.324219-25.324219-25.324219zm0 .375c13.824219 0 24.949219 11.125 24.949219 24.949219 0 13.824218-11.125 24.949218-24.949219 24.949218-13.828125 0-24.953125-11.125-24.953125-24.949218 0-13.824219 11.125-24.949219 24.953125-24.949219zm0 0" fill="#212121"/><path d="m960.026444 615.059383c-177.266538 0-320.048181 142.781642-320.048181 320.048181s142.781643 320.048181 320.048181 320.048181c177.266539 0 319.930083-142.781642 319.930083-320.048181s-142.663544-320.048181-319.930083-320.048181zm0 160.02409c88.57422 0 160.024091 71.449871 160.024091 160.024091 0 88.692319-71.449871 160.02409-160.024091 160.02409-88.692318 0-160.02409-71.331771-160.02409-160.02409 0-88.57422 71.331772-160.024091 160.02409-160.024091zm0 0" fill="url(#h)" stroke="#333" stroke-linecap="round" stroke-width="11.338583" transform="scale(.0330761)"/></svg>