<?xml version="1.0" encoding="UTF-8"?>
<svg xmlns="http://www.w3.org/2000/svg" xmlns:xlink="http://www.w3.org/1999/xlink" width="64pt" height="64pt" viewBox="0 0 64 64" version="1.1">
<defs>
<linearGradient id="linear0" gradientUnits="userSpaceOnUse" x1="254" y1="233.5" x2="254" y2="254.666672" gradientTransform="matrix(0.200019,0,0,0.125012,-19.051837,24.231482)">
<stop offset="0" style="stop-color:rgb(0%,0%,0%);stop-opacity:0.27451;"/>
<stop offset="1" style="stop-color:rgb(0%,0%,0%);stop-opacity:0;"/>
</linearGradient>
<radialGradient id="radial0" gradientUnits="userSpaceOnUse" cx="450.908936" cy="189.579361" fx="450.908936" fy="189.579361" r="21.166656" gradientTransform="matrix(0.000000348341,-0.156265,-0.281277,-0.000000203077,105.584339,124.544577)">
<stop offset="0" style="stop-color:rgb(0%,0%,0%);stop-opacity:0.313725;"/>
<stop offset="0.222222" style="stop-color:rgb(0%,0%,0%);stop-opacity:0.27451;"/>
<stop offset="1" style="stop-color:rgb(0%,0%,0%);stop-opacity:0;"/>
</radialGradient>
<radialGradient id="radial1" gradientUnits="userSpaceOnUse" cx="450.908936" cy="189.579361" fx="450.908936" fy="189.579361" r="21.166656" gradientTransform="matrix(-0.000000348341,0.156265,0.281277,0.000000203077,-42.078282,-17.701046)">
<stop offset="0" style="stop-color:rgb(0%,0%,0%);stop-opacity:0.313725;"/>
<stop offset="0.222222" style="stop-color:rgb(0%,0%,0%);stop-opacity:0.27451;"/>
<stop offset="1" style="stop-color:rgb(0%,0%,0%);stop-opacity:0;"/>
</radialGradient>
<radialGradient id="radial2" gradientUnits="userSpaceOnUse" cx="450.908936" cy="189.579361" fx="450.908936" fy="189.579361" r="21.166656" gradientTransform="matrix(-0.000000348341,-0.156265,0.281277,-0.000000203077,-42.078282,124.544577)">
<stop offset="0" style="stop-color:rgb(0%,0%,0%);stop-opacity:0.313725;"/>
<stop offset="0.222222" style="stop-color:rgb(0%,0%,0%);stop-opacity:0.27451;"/>
<stop offset="1" style="stop-color:rgb(0%,0%,0%);stop-opacity:0;"/>
</radialGradient>
<radialGradient id="radial3" gradientUnits="userSpaceOnUse" cx="450.908936" cy="189.579361" fx="450.908936" fy="189.579361" r="21.166656" gradientTransform="matrix(0.000000348341,0.156265,-0.281277,0.000000203077,105.584335,-17.701047)">
<stop offset="0" style="stop-color:rgb(0%,0%,0%);stop-opacity:0.313725;"/>
<stop offset="0.222222" style="stop-color:rgb(0%,0%,0%);stop-opacity:0.27451;"/>
<stop offset="1" style="stop-color:rgb(0%,0%,0%);stop-opacity:0;"/>
</radialGradient>
<linearGradient id="linear1" gradientUnits="userSpaceOnUse" x1="254" y1="212.333328" x2="254" y2="-147.5" gradientTransform="matrix(0.125012,0,0,0.125012,0,26.877566)">
<stop offset="0" style="stop-color:rgb(25.882353%,25.882353%,25.882353%);stop-opacity:1;"/>
<stop offset="1" style="stop-color:rgb(38.039216%,38.039216%,38.039216%);stop-opacity:1;"/>
</linearGradient>
<linearGradient id="linear2" gradientUnits="userSpaceOnUse" x1="275.166656" y1="191.166672" x2="275.166656" y2="-41.666668" gradientTransform="matrix(1,0,0,1,0.031501,40.947899)">
<stop offset="0" style="stop-color:rgb(73.72549%,66.666667%,64.313725%);stop-opacity:1;"/>
<stop offset="1" style="stop-color:rgb(84.313725%,80%,78.431373%);stop-opacity:1;"/>
</linearGradient>
</defs>
<g id="surface1">
<path style=" stroke:none;fill-rule:nonzero;fill:url(#linear0);" d="M 10.585938 53.421875 L 52.921875 53.421875 L 52.921875 56.066406 L 10.585938 56.066406 Z M 10.585938 53.421875 "/>
<path style=" stroke:none;fill-rule:nonzero;fill:url(#radial0);" d="M 52.921875 53.421875 L 58.214844 53.421875 L 58.214844 50.777344 L 52.921875 50.777344 Z M 52.921875 53.421875 "/>
<path style=" stroke:none;fill-rule:nonzero;fill:url(#radial1);" d="M 10.585938 53.421875 L 5.292969 53.421875 L 5.292969 56.066406 L 10.585938 56.066406 Z M 10.585938 53.421875 "/>
<path style=" stroke:none;fill-rule:nonzero;fill:url(#radial2);" d="M 10.585938 53.421875 L 5.292969 53.421875 L 5.292969 50.777344 L 10.585938 50.777344 Z M 10.585938 53.421875 "/>
<path style=" stroke:none;fill-rule:nonzero;fill:url(#radial3);" d="M 52.921875 53.421875 L 58.214844 53.421875 L 58.214844 56.066406 L 52.921875 56.066406 Z M 52.921875 53.421875 "/>
<path style=" stroke:none;fill-rule:nonzero;fill:url(#linear1);" d="M 7.9375 8.4375 L 55.566406 8.4375 C 57.027344 8.4375 58.214844 9.621094 58.214844 11.085938 L 58.214844 50.777344 C 58.214844 52.238281 57.027344 53.421875 55.566406 53.421875 L 7.9375 53.421875 C 6.476562 53.421875 5.292969 52.238281 5.292969 50.777344 L 5.292969 11.085938 C 5.292969 9.621094 6.476562 8.4375 7.9375 8.4375 Z M 7.9375 8.4375 "/>
<path style=" stroke:none;fill-rule:nonzero;fill:rgb(100%,100%,100%);fill-opacity:0.392157;" d="M 7.9375 8.4375 C 6.472656 8.4375 5.292969 9.617188 5.292969 11.085938 L 5.292969 11.746094 C 5.292969 10.28125 6.472656 9.101562 7.9375 9.101562 L 55.566406 9.101562 C 57.035156 9.101562 58.214844 10.28125 58.214844 11.746094 L 58.214844 11.085938 C 58.214844 9.617188 57.035156 8.4375 55.566406 8.4375 Z M 7.9375 8.4375 "/>
<path style=" stroke:none;fill-rule:nonzero;fill:rgb(0%,0%,0%);fill-opacity:0.235294;" d="M 7.9375 53.421875 C 6.472656 53.421875 5.292969 52.242188 5.292969 50.777344 L 5.292969 50.113281 C 5.292969 51.582031 6.472656 52.761719 7.9375 52.761719 L 55.566406 52.761719 C 57.035156 52.761719 58.214844 51.582031 58.214844 50.113281 L 58.214844 50.777344 C 58.214844 52.242188 57.035156 53.421875 55.566406 53.421875 Z M 7.9375 53.421875 "/>
<path style=" stroke:none;fill-rule:nonzero;fill:rgb(0%,0%,0%);fill-opacity:1;" d="M 7.9375 8.25 C 6.371094 8.25 5.105469 9.519531 5.105469 11.085938 L 5.105469 50.777344 C 5.105469 52.34375 6.371094 53.609375 7.9375 53.609375 L 55.566406 53.609375 C 57.132812 53.609375 58.402344 52.34375 58.402344 50.777344 L 58.402344 11.085938 C 58.402344 9.519531 57.132812 8.25 55.566406 8.25 Z M 7.9375 8.625 L 55.566406 8.625 C 56.933594 8.625 58.027344 9.71875 58.027344 11.085938 L 58.027344 50.777344 C 58.027344 52.140625 56.933594 53.234375 55.566406 53.234375 L 7.9375 53.234375 C 6.574219 53.234375 5.480469 52.140625 5.480469 50.777344 L 5.480469 11.085938 C 5.480469 9.71875 6.574219 8.625 7.9375 8.625 Z M 7.9375 8.625 "/>
<path style=" stroke:none;fill-rule:nonzero;fill:rgb(100%,100%,100%);fill-opacity:0.588235;" d="M 31.757812 20.171875 C 26.992188 20.171875 23.15625 24.007812 23.15625 28.773438 C 23.15625 31.828125 24.734375 34.503906 27.125 36.027344 L 27.125 33.503906 C 25.902344 32.304688 25.140625 30.628906 25.140625 28.773438 C 25.140625 25.105469 28.09375 22.15625 31.757812 22.15625 C 35.421875 22.15625 38.371094 25.105469 38.371094 28.773438 C 38.371094 30.628906 37.613281 32.304688 36.386719 33.503906 L 36.386719 36.027344 C 38.777344 34.503906 40.355469 31.828125 40.355469 28.773438 C 40.355469 24.007812 36.519531 20.171875 31.757812 20.171875 Z M 31.757812 24.140625 C 29.191406 24.140625 27.125 26.207031 27.125 28.773438 C 27.125 31.335938 29.191406 33.402344 31.757812 33.402344 C 34.324219 33.402344 36.386719 31.335938 36.386719 28.773438 C 36.386719 26.207031 34.324219 24.140625 31.757812 24.140625 Z M 31.757812 26.125 C 33.222656 26.125 34.402344 27.304688 34.402344 28.773438 C 34.402344 30.238281 33.222656 31.417969 31.757812 31.417969 C 30.292969 31.417969 29.109375 30.238281 29.109375 28.773438 C 29.109375 27.304688 30.292969 26.125 31.757812 26.125 Z M 31.757812 26.125 "/>
<path style="fill-rule:nonzero;fill:url(#linear2);stroke-width:3;stroke-linecap:square;stroke-linejoin:round;stroke:rgb(12.941177%,12.941177%,12.941177%);stroke-opacity:1;stroke-miterlimit:4;" d="M 254.038241 -0.707964 C 242.32061 -0.707964 232.852764 8.728635 232.852764 20.446266 L 232.852764 126.279909 C 232.852764 127.904754 233.040246 129.498352 233.383963 131.029456 C 233.227728 131.904372 233.10274 132.810536 233.008999 133.716699 L 228.946887 129.654587 C 220.63518 121.342881 207.292705 121.342881 199.012245 129.654587 C 190.700539 137.935046 190.700539 151.277522 199.012245 159.589229 L 236.414924 196.991907 C 237.383581 197.991811 238.44598 198.835481 239.539625 199.585409 C 251.163515 218.833571 276.723574 232.113553 306.501981 232.113553 L 307.408144 232.113553 C 348.1855 232.113553 381.026114 207.178434 381.026114 176.212641 L 381.026114 171.61933 C 381.026114 171.056883 381.026114 170.525684 380.994867 169.994485 C 381.026114 169.52578 381.026114 169.088321 381.026114 168.619616 L 381.026114 136.872648 C 381.026114 121.092905 369.620953 108.062899 354.559891 105.563138 L 354.559891 105.12568 C 354.559891 93.376801 345.123292 83.940203 333.405661 83.940203 C 326.937529 83.940203 321.188078 86.814928 317.282201 91.376992 C 315.782344 81.159218 307.001933 73.378711 296.377947 73.378711 C 284.629069 73.378711 275.19247 82.81531 275.19247 94.532941 L 275.19247 20.446266 C 275.19247 8.728635 265.755872 -0.707964 254.038241 -0.707964 Z M 254.038241 -0.707964 " transform="matrix(0.125012,0,0,0.125012,0,26.877566)"/>
</g>
</svg>
