<svg height="48pt" viewBox="0 0 48 48" width="48pt" xmlns="http://www.w3.org/2000/svg" xmlns:xlink="http://www.w3.org/1999/xlink"><linearGradient id="a" gradientTransform="matrix(.0729236 0 0 .093759 -2.039696 19.165894)" gradientUnits="userSpaceOnUse" x1="254" x2="254" y1="233.5" y2="254.666672"><stop offset="0" stop-opacity=".27451"/><stop offset="1" stop-opacity="0"/></linearGradient><linearGradient id="b"><stop offset="0" stop-opacity=".313726"/><stop offset=".222222" stop-opacity=".27451"/><stop offset="1" stop-opacity="0"/></linearGradient><radialGradient id="c" cx="450.908936" cy="189.579361" gradientTransform="matrix(.0000002 -.117199 -.164078 -.00000015 54.920529 94.400716)" gradientUnits="userSpaceOnUse" r="21.166656" xlink:href="#b"/><radialGradient id="d" cx="450.908936" cy="189.579361" gradientTransform="matrix(-.0000002 .117199 .164078 .00000015 -7.290972 -12.283502)" gradientUnits="userSpaceOnUse" r="21.166656" xlink:href="#b"/><radialGradient id="e" cx="450.908936" cy="189.579361" gradientTransform="matrix(-.0000002 -.117199 .164078 -.00000015 -7.290972 94.400716)" gradientUnits="userSpaceOnUse" r="21.166656" xlink:href="#b"/><radialGradient id="f" cx="450.908936" cy="189.579361" gradientTransform="matrix(.0000002 .117199 -.164078 .00000015 54.920527 -12.283502)" gradientUnits="userSpaceOnUse" r="21.166656" xlink:href="#b"/><linearGradient id="g" gradientTransform="matrix(.0662976 .0662976 -.0662976 .0662976 9.116283 4.205459)" gradientUnits="userSpaceOnUse" x1="254" x2="254" y1="222.916672" y2="-158.083328"><stop offset="0" stop-color="#bdbdbd"/><stop offset="1" stop-color="#e0e0e0"/></linearGradient><linearGradient id="h" gradientUnits="userSpaceOnUse" x1="23.814786" x2="23.814786" y1="41.05861925005" y2="5.33644025005"><stop offset="0" stop-color="#26a69a"/><stop offset="1" stop-color="#4db6ac"/></linearGradient><path d="m23.429688 41.058594h.769531v1.984375h-.769531zm0 0" fill="url(#a)"/><path d="m24.199219 41.058594h3.089843v-1.984375h-3.089843zm0 0" fill="url(#c)"/><path d="m23.429688 41.058594h-3.089844v1.984375h3.089844zm0 0" fill="url(#d)"/><path d="m23.429688 41.058594h-3.089844v-1.984375h3.089844zm0 0" fill="url(#e)"/><path d="m24.199219 41.058594h3.089843v1.984375h-3.089843zm0 0" fill="url(#f)"/><path d="m21.832031 5.339844c-.503906 0-.925781.375-.984375.875l-.414062 3.5c-1.34375.335937-2.609375.863281-3.765625 1.558594l-2.765625-2.183594c-.394532-.3125-.957032-.277344-1.3125.078125l-2.808594 2.804687c-.351562.355469-.386719.917969-.074219 1.3125l2.179688 2.765625c-.691407 1.15625-1.21875 2.421875-1.554688 3.769531l-3.503906.410157c-.496094.058593-.875.480469-.875.984375v3.96875c0 .5.378906.925781.875.984375l3.507813.410156c.332031 1.34375.859374 2.613281 1.554687 3.765625l-2.183594 2.765625c-.3125.394531-.277343.960937.074219 1.316406l2.808594 2.804688c.355468.355469.917968.386719 1.3125.078125l2.207031-1.742188-1.339844-1.339844c-.902343-.90625-1.066406-2.210937-.640625-3.234374.320313-.769532.988282-1.421876 1.847656-1.695313-1.308593-1.679687-2.085937-3.796875-2.085937-6.097656 0-5.5 4.425781-9.925781 9.925781-9.925781 5.496094 0 9.921875 4.425781 9.921875 9.925781 0 2.300781-.777343 4.417969-2.085937 6.097656.859375.273437 1.53125.925781 1.847656 1.695313.425781 1.023437.261719 2.328124-.640625 3.234374l-1.339844 1.339844 2.207031 1.742188c.394532.308594.957032.277344 1.3125-.078125l2.808594-2.804688c.355469-.355469.386719-.921875.078125-1.316406l-2.183593-2.765625c.691406-1.15625 1.21875-2.421875 1.554687-3.765625l3.503906-.410156c.5-.058594.875-.484375.875-.984375v-3.96875c0-.503906-.375-.925782-.875-.984375l-3.503906-.410157c-.335937-1.347656-.863281-2.613281-1.554687-3.769531l2.183593-2.765625c.308594-.394531.277344-.957031-.078125-1.3125l-2.808594-2.804687c-.355468-.355469-.917968-.390625-1.3125-.078125l-2.765624 2.183594c-1.15625-.695313-2.421876-1.222657-3.765626-1.558594l-.414062-3.5c-.058594-.5-.480469-.875-.980469-.875zm0 0" fill="url(#g)"/><path d="m21.832031 5.339844c-.425781 0-.792969.265625-.933593.652344.105468-.039063.21875-.058594.339843-.058594h3.96875c.5 0 .921875.375.984375.871094l.410156 3.503906c1.34375.335937 2.613282.863281 3.769532 1.554687l2.761718-2.179687c.394532-.3125.960938-.277344 1.316407.074218l2.804687 2.808594c.355469.355469.386719.917969.078125 1.3125l-2.183593 2.765625c.691406 1.15625 1.222656 2.421875 1.554687 3.765625l3.503906.414063c.5.058593.875.480469.875.984375v3.96875c0 .117187-.019531.230468-.058593.335937.382812-.136719.652343-.503906.652343-.929687v-3.96875c0-.503906-.375-.925782-.875-.984375l-3.503906-.410157c-.335937-1.347656-.863281-2.613281-1.554687-3.769531l2.183593-2.765625c.308594-.394531.277344-.957031-.078125-1.3125l-2.808594-2.804687c-.355468-.355469-.917968-.390625-1.3125-.078125l-2.765624 2.183594c-1.15625-.695313-2.421876-1.222657-3.765626-1.558594l-.414062-3.5c-.058594-.5-.480469-.875-.980469-.875zm-8.558593 3.535156c-.246094.003906-.496094.101562-.683594.292969l-.59375.589843c.355468-.351562.917968-.386718 1.3125-.074218l2.765625 2.179687c1.15625-.691406 2.421875-1.21875 3.769531-1.554687l.050781-.445313c-1.144531.332031-2.226562.808594-3.226562 1.410157l-2.765625-2.183594c-.183594-.144532-.40625-.214844-.628906-.214844zm3.226562 7.601562c-1.96875 1.8125-3.199219 4.414063-3.199219 7.3125 0 2.203126.710938 4.234376 1.914063 5.878907.230468-.15625.488281-.28125.761718-.371094-1.308593-1.679687-2.085937-3.796875-2.085937-6.097656 0-2.597657.988281-4.957031 2.609375-6.722657zm-6.613281 3.394532-3.058594.359375c-.378906.046875-.6875.304687-.8125.644531.070313-.023438.144531-.042969.21875-.050781l3.507813-.414063c.042968-.179687.09375-.359375.144531-.539062zm27.261719 7.25-.445313.050781c-.335937 1.34375-.863281 2.609375-1.554687 3.765625l2.183593 2.765625c.308594.394531.277344.960937-.078125 1.3125l.59375-.589844c.355469-.355469.386719-.921875.078125-1.316406l-2.183593-2.765625c.597656-1 1.074218-2.082031 1.40625-3.222656zm-20.28125 4.023437c-.101563 0-.195313.011719-.28125.035157.511718.460937 1.074218.867187 1.675781 1.214843v2.515625l.589843.59375v-3.703125c-.34375-.199219-.675781-.417969-.992187-.65625zm12.902343 0c-.316406.238281-.648437.457031-.992187.65625v.222657c.394531-.265626.769531-.558594 1.117187-.878907zm0 0" fill="#fff" fill-opacity=".588235"/><path d="m21.425781 5.425781c-.308593.136719-.535156.429688-.578125.789063l-.367187 3.121094c.148437-.042969.300781-.082032.453125-.121094l.414062-3.503906c.011719-.101563.039063-.195313.078125-.285157zm-11.144531 6.046875-.5.5c-.351562.355469-.386719.917969-.074219 1.3125l2.179688 2.765625c-.613281 1.023438-1.097657 2.136719-1.429688 3.3125l.375-.046875c.335938-1.34375.863281-2.609375 1.558594-3.765625l-2.183594-2.765625c-.3125-.394531-.277343-.957031.074219-1.3125zm14.035156 1.300782c-2.878906 0-5.460937 1.210937-7.269531 3.15625 1.769531-1.648438 4.148437-2.65625 6.769531-2.65625 5.496094 0 9.921875 4.425781 9.921875 9.925781 0 2.300781-.777343 4.417969-2.085937 6.097656.019531.007813.042968.015625.0625.023437 1.570312-1.753906 2.523437-4.074218 2.523437-6.625 0-2.746093-1.105469-5.226562-2.898437-7.019531-1.796875-1.796875-4.277344-2.902343-7.023438-2.902343zm-17.773437 7.535156c-.351563.15625-.589844.507812-.589844.90625v3.96875c0 .5.378906.925781.875.984375l3.507813.410156c.332031 1.34375.859374 2.613281 1.554687 3.765625l-2.183594 2.765625c-.3125.394531-.277343.960937.074219 1.316406l2.808594 2.804688c.355468.355469.917968.386719 1.3125.078125l2.207031-1.742188-.058594-.058594-1.648437 1.300782c-.394532.308594-.957032.277344-1.3125-.078125l-2.808594-2.808594c-.351562-.351563-.386719-.917969-.074219-1.3125l2.183594-2.765625c-.695313-1.15625-1.222656-2.421875-1.554687-3.765625l-3.507813-.414063c-.496094-.058593-.871094-.480468-.871094-.980468v-3.96875c0-.144532.027344-.28125.085938-.40625zm35.046875 5.277344c-.089844.039062-.1875.066406-.289063.078124l-3.503906.414063c-.039063.152344-.078125.304687-.121094.457031l3.125-.367187c.355469-.042969.648438-.269531.789063-.582031zm-9.570313 9.480468-.5.5 2.207031 1.742188c.394532.308594.957032.277344 1.3125-.078125l.5-.5c-.351562.355469-.917968.386719-1.3125.078125zm0 0" fill-opacity=".235294"/><path d="m21.832031 15.269531c-1.09375 0-1.976562.882813-1.976562 1.972657v12.910156h-2.988281c-1.757813 0-2.640626 2.128906-1.394532 3.371094l6.945313 6.949218c.773437.769532 2.023437.769532 2.792969 0l6.945312-6.949218c1.246094-1.242188.363281-3.371094-1.394531-3.371094h-2.988281v-12.910156c0-1.089844-.882813-1.972657-1.972657-1.972657zm0 0" fill="url(#h)"/><path d="m21.832031 15.269531c-1.09375 0-1.976562.882813-1.976562 1.972657v.738281c0-1.09375.882812-1.976563 1.976562-1.976563h3.96875c1.089844 0 1.972657.882813 1.972657 1.976563v-.738281c0-1.089844-.882813-1.972657-1.972657-1.972657zm-4.964843 14.882813c-1.332032 0-2.160157 1.222656-1.941407 2.355468.164063-.871093.898438-1.621093 1.941407-1.621093h2.988281v-.734375zm10.90625 0v.734375h2.988281c1.042969 0 1.777343.75 1.941406 1.621093.21875-1.132812-.609375-2.355468-1.941406-2.355468zm0 0" fill="#fff" fill-opacity=".392157"/><path d="m14.925781 31.761719c-.113281.597656.039063 1.253906.546875 1.761719l6.945313 6.949218c.773437.769532 2.023437.769532 2.792969 0l6.945312-6.949218c.507812-.507813.664062-1.164063.546875-1.761719-.070313.359375-.246094.710937-.546875 1.007812l-6.945312 6.949219c-.769532.769531-2.019532.769531-2.792969 0l-6.945313-6.949219c-.300781-.296875-.476562-.648437-.546875-1.007812zm0 0" fill-opacity=".235294"/><g fill="#212121"><path d="m21.832031 5.199219c-.574219 0-1.058593.429687-1.125.996093l-.402343 3.410157c-1.289063.328125-2.507813.839843-3.625 1.496093l-2.691407-2.121093c-.449219-.355469-1.09375-.316407-1.5.085937l-2.804687 2.808594c-.40625.402344-.441406 1.050781-.089844 1.5l2.125 2.6875c-.660156 1.121094-1.167969 2.335938-1.496094 3.628906l-3.410156.398438c-.566406.070312-1 .550781-1 1.125v3.96875c0 .570312.433594 1.054687 1 1.121094l3.410156.402343c.332032 1.289063.839844 2.507813 1.496094 3.625l-2.125 2.691407c-.351562.449218-.316406 1.097656.089844 1.5l2.804687 2.808593c.40625.402344 1.050781.441407 1.5.085938l2.207031-1.742188c.035157-.023437.050782-.0625.054688-.101562.003906-.039063-.011719-.078125-.039062-.109375l-1.332032-1.332032.003906.007813c-.003906-.003906-.007812-.007813-.011718-.015625-.863282-.863281-1.015625-2.109375-.613282-3.078125.304688-.734375.945313-1.355469 1.761719-1.613281.042969-.015625.078125-.050782.09375-.09375.011719-.042969.003907-.089844-.023437-.128906-1.289063-1.65625-2.058594-3.742188-2.058594-6.011719 0-5.421875 4.363281-9.785157 9.785156-9.785157s9.78125 4.363282 9.78125 9.785157c0 2.269531-.765625 4.355469-2.058594 6.011719-.027343.039062-.035156.085937-.023437.128906.015625.042968.050781.078125.09375.09375.820313.257812 1.457031.878906 1.761719 1.613281.402344.96875.25 2.214844-.613282 3.078125-.003906.007812-.007812.011719-.011718.015625l.007812-.007813-1.332031 1.332032c-.03125.027344-.046875.070312-.042969.109375.003906.039062.023438.078125.054688.101562l2.207031 1.742188c.449219.355469 1.09375.316406 1.5-.085938l2.804687-2.808593c.40625-.402344.445313-1.050782.089844-1.5l-2.125-2.691407c.65625-1.117187 1.167969-2.335937 1.496094-3.625l3.410156-.402343c.570313-.066407 1-.550782 1-1.121094v-3.96875c0-.574219-.429687-1.054688-1-1.125l-3.410156-.398438c-.328125-1.292968-.835938-2.511718-1.496094-3.628906l2.125-2.6875c.355469-.449219.316406-1.097656-.089844-1.5l-2.804687-2.808594c-.40625-.402344-1.050781-.441406-1.5-.085937l-2.691406 2.121093c-1.117188-.65625-2.335938-1.167968-3.625-1.496093l-.402344-3.410157c-.066406-.566406-.550781-.996093-1.121094-.996093zm0 .28125h3.96875c.429688 0 .792969.320312.84375.75l.410157 3.503906c.007812.058594.050781.105469.105468.117187 1.332032.332032 2.585938.855469 3.730469 1.539063.050781.03125.113281.027344.160156-.007813l2.761719-2.183593c.339844-.265625.824219-.238281 1.128906.066406l2.804688 2.808594c.304687.304687.335937.785156.066406 1.125l-2.179688 2.765625c-.039062.042968-.042968.109375-.011718.160156.683594 1.144531 1.207031 2.394531 1.539062 3.726562.011719.058594.0625.101563.121094.105469l3.503906.414063c.425782.050781.75.410156.75.84375v3.96875c0 .429687-.324218.792968-.75.84375l-3.507812.410156c-.054688.007812-.105469.050781-.117188.109375-.332031 1.328125-.855468 2.582031-1.539062 3.726563-.03125.050781-.027344.113281.007812.160156l2.183594 2.765625c.269531.339843.238281.820312-.066406 1.125l-2.804688 2.808593c-.304687.304688-.789062.332032-1.128906.066407l-2.082031-1.644531 1.226562-1.230469h.003907c.945312-.945313 1.113281-2.3125.671874-3.386719-.3125-.753906-.945312-1.386719-1.757812-1.703125 1.257812-1.679687 2.003906-3.769531 2.003906-6.035156 0-5.574219-4.492187-10.066407-10.0625-10.066407-5.574218 0-10.066406 4.492188-10.066406 10.066407 0 2.265625.746094 4.355469 2.003906 6.035156-.8125.316406-1.445312.949219-1.757812 1.703125-.441406 1.070312-.273438 2.433594.667968 3.382812.003907 0 .003907.003907.007813.003907l1.226563 1.230469-2.082032 1.644531c-.339844.265625-.824218.238281-1.128906-.066407l-2.804688-2.808593c-.304687-.304688-.335937-.789063-.066406-1.125l2.183594-2.765625c.035156-.046875.039062-.109375.007812-.160156-.683593-1.144532-1.207031-2.398438-1.539062-3.726563-.011719-.058594-.058594-.101563-.117188-.109375l-3.507812-.410156c-.425781-.050782-.75-.414063-.75-.84375v-3.96875c0-.433594.324219-.792969.75-.84375l3.507812-.414063c.054688-.003906.105469-.046875.117188-.105469.332031-1.332031.855469-2.582031 1.539062-3.726562.03125-.050781.027344-.113281-.007812-.160156l-2.183594-2.765625c-.269531-.339844-.238281-.820313.066406-1.125l2.804688-2.808594c.304688-.304687.789062-.332031 1.128906-.066406l2.761719 2.183593c.046875.035157.109375.039063.160156.011719 1.144531-.6875 2.398438-1.210937 3.730469-1.542969.058594-.011718.097656-.058593.105469-.117187l.414062-3.503906c.050781-.429688.410157-.75.84375-.75zm0 0"/><path d="m21.832031 15.128906c-1.167969 0-2.117187.949219-2.117187 2.113282v12.769531h-2.847656c-.933594 0-1.648438.570312-1.953126 1.308593-.304687.734376-.203124 1.640626.457032 2.304688l6.949218 6.945312c.824219.824219 2.164063.824219 2.992188 0l6.945312-6.945312c.660157-.664062.761719-1.570312.457032-2.304688-.304688-.738281-1.019532-1.308593-1.953125-1.308593h-2.847657v-12.769531c0-1.164063-.949218-2.113282-2.113281-2.113282zm0 .28125h3.96875c1.011719 0 1.832031.820313 1.832031 1.832032v12.910156c0 .078125.0625.140625.140626.140625h2.988281c.820312 0 1.429687.492187 1.695312 1.132812.261719.640625.183594 1.417969-.398437 2l-6.945313 6.945313c-.71875.71875-1.878906.71875-2.597656 0l-6.945313-6.945313c-.582031-.582031-.660156-1.359375-.394531-2 .261719-.640625.871094-1.132812 1.691407-1.132812h2.988281c.078125 0 .140625-.0625.140625-.140625v-12.910156c0-1.011719.820312-1.832032 1.835937-1.832032zm0 0"/></g></svg>