<svg height="48" viewBox="0 0 48 48" width="48" xmlns="http://www.w3.org/2000/svg" xmlns:xlink="http://www.w3.org/1999/xlink"><linearGradient id="a" gradientUnits="userSpaceOnUse" x1="23.81478" x2="23.81478" y1="42.0509045" y2="44.03547050005"><stop offset="0" stop-opacity=".27451"/><stop offset="1" stop-opacity="0"/></linearGradient><linearGradient id="b"><stop offset="0" stop-opacity=".313726"/><stop offset=".222222" stop-opacity=".27451"/><stop offset="1" stop-opacity="0"/></linearGradient><radialGradient id="c" cx="450.908936" cy="189.579361" gradientTransform="matrix(.00000026 -.117199 -.210958 -.00000015 78.195972 95.392999)" gradientUnits="userSpaceOnUse" r="21.166656" xlink:href="#b"/><radialGradient id="d" cx="450.908936" cy="189.579361" gradientTransform="matrix(-.00000026 .117199 .210958 .00000015 -30.56642 -11.291218)" gradientUnits="userSpaceOnUse" r="21.166656" xlink:href="#b"/><radialGradient id="e" cx="450.908936" cy="189.579361" gradientTransform="matrix(-.00000026 -.117199 .210958 -.00000015 -30.56642 95.392999)" gradientUnits="userSpaceOnUse" r="21.166656" xlink:href="#b"/><radialGradient id="f" cx="450.908936" cy="189.579361" gradientTransform="matrix(.00000026 .117199 -.210958 .00000015 78.195969 -11.291219)" gradientUnits="userSpaceOnUse" r="21.166656" xlink:href="#b"/><linearGradient id="g" gradientUnits="userSpaceOnUse" x1="15.87652349995" x2="15.87652349995" y1="42.0509015" y2="4.3441580001"><stop offset="0" stop-color="#9ccc65"/><stop offset="1" stop-color="#aed581"/></linearGradient><linearGradient id="h" gradientUnits="userSpaceOnUse" x1="23.814816" x2="23.81481751323" y1="42.05096580616" y2="4.34417266504"><stop offset="0" stop-color="#424242"/><stop offset="1" stop-color="#616161"/></linearGradient><linearGradient id="i" gradientUnits="userSpaceOnUse" x1="15.87652349995" x2="15.87652349995" y1="24.189811" y2="4.3441570001"><stop offset="0" stop-opacity=".156863"/><stop offset="1" stop-color="#aed581" stop-opacity=".004405"/></linearGradient><path d="m8.929688 41.902344h29.769531v2.207031h-29.769531zm0 0" fill="url(#a)"/><path d="m38.699219 42.050781h3.96875v-1.984375h-3.96875zm0 0" fill="url(#c)"/><path d="m8.929688 42.050781h-3.96875v1.984375h3.96875zm0 0" fill="url(#d)"/><path d="m8.929688 42.050781h-3.96875v-1.984375h3.96875zm0 0" fill="url(#e)"/><path d="m38.699219 42.050781h3.96875v1.984375h-3.96875zm0 0" fill="url(#f)"/><path d="m6.945312 4.34375h33.738282c1.097656 0 1.984375.890625 1.984375 1.984375v33.738281c0 1.097656-.886719 1.984375-1.984375 1.984375h-33.738282c-1.09375 0-1.984374-.886719-1.984374-1.984375v-33.738281c0-1.09375.890624-1.984375 1.984374-1.984375zm0 0" fill="url(#g)"/><path d="m42.667969 12.3125c-2.328125.101562-4.636719.433594-6.898438.992188-11.566406 2.828124-17.140625 9.542968-17.140625 9.542968s3.515625 8.578125 10.039063 13.535156c2.25 1.703126 4.605469 3.265626 7.054687 4.675782h-6.699218c-.675782-.40625-1.34375-.832032-1.972657-1.269532-4.160156-2.910156-8.859375-8.363281-8.859375-8.363281-1.414062 1.058594-3.058594 1.039063-4.453125 1.683594-1.390625.644531-2.308593 1.128906-2.308593 1.128906s1.269531 1.726563 6.570312 5.59375c.609375.441407 1.210938.851563 1.800781 1.230469h-5.125l-.105469-.023438h-6.34375l-3.003906.011719c.339844.597657.984375 1 1.722656 1h33.738282c.925781 0 1.703125-.628906 1.921875-1.484375l-1.988281.007813c-1.457032-.785157-6.054688-3.492188-9.734376-8.164063-4.4375-5.628906-4.4375-7.570312-4.4375-7.570312s4.605469-4.632813 9.289063-6.546875c2.324219-.945313 4.910156-1.6875 6.933594-2.199219zm0 6.839844c-6.933594 3.1875-9.789063 7.792968-9.789063 7.792968s1.375 4.425782 6.15625 9.242188c0 0-1.183594-5.90625-1.308594-8.171875 1.378907-1.796875 3.050782-3.34375 4.941407-4.578125zm0 0" fill="url(#h)"/><path d="m6.945312 4.441406c-1.097656 0-1.984374.886719-1.984374 1.984375v.25c0-1.101562.886718-1.988281 1.984374-1.984375h33.738282c1.097656-.003906 1.984375.882813 1.984375 1.984375v-.25c0-1.097656-.886719-1.984375-1.984375-1.984375zm0 0" fill="#fff" fill-opacity=".392157"/><path d="m6.945312 41.925781c-1.097656 0-1.984374-.882812-1.984374-1.984375v-.246094c0 1.097657.886718 1.984376 1.984374 1.984376h33.738282c1.097656 0 1.984375-.886719 1.984375-1.984376v.246094c0 1.101563-.886719 1.984375-1.984375 1.984375zm0 0" fill-opacity=".196078"/><path d="m74.076259-168.671091h359.840637c11.707216 0 21.164646 9.499093 21.164646 21.164646v359.840637c0 11.707215-9.45743 21.164645-21.164646 21.164645h-359.840637c-11.665552 0-21.164645-9.45743-21.164645-21.164645v-359.840637c0-11.665553 9.499093-21.164646 21.164645-21.164646zm0 0" fill="none" stroke="#212121" stroke-linecap="round" stroke-width="3" transform="matrix(.093759 0 0 .093759 0 20.158175)"/><path d="m42.667969 12.4375c-2.328125.101562-4.636719.433594-6.898438.988281-11.566406 2.832031-17.140625 9.546875-17.140625 9.546875s.023438.054688.0625.144532c.617188-.707032 6.191406-6.8125 17.078125-9.472657 2.261719-.558593 4.570313-.886719 6.898438-.988281zm0 6.839844c-6.933594 3.183594-9.789063 7.792968-9.789063 7.792968s.019532.058594.050782.144532c.390624-.597656 3.3125-4.769532 9.738281-7.722656zm-16.195313 5.878906c-.007812.007812-.027344.023438-.027344.023438s0 1.941406 4.4375 7.570312c3.679688 4.671875 8.277344 7.378906 9.734376 8.167969l1.917968-.011719c.027344-.070312.050782-.144531.070313-.214844l-1.988281.007813c-1.457032-.785157-6.054688-3.492188-9.734376-8.164063-3.65625-4.640625-4.296874-6.769531-4.410156-7.378906zm11.265625 3.183594c-.003906.003906-.007812.011718-.011719.015625.109376 1.976562 1.023438 6.726562 1.257813 7.902343.015625.019532.035156.035157.050781.054688 0 0-1.121094-5.582031-1.296875-7.972656zm-19.546875 3.210937c-1.414062 1.058594-3.058594 1.039063-4.453125 1.683594-1.390625.644531-2.308593 1.125-2.308593 1.125s.039062.054687.125.152344c.265624-.136719 1.054687-.539063 2.183593-1.0625 1.394531-.640625 3.039063-.621094 4.453125-1.683594 0 0 4.699219 5.453125 8.859375 8.363281.628907.4375 1.296875.863282 1.972657 1.269532h6.699218c-.125-.070313-.25-.144532-.371094-.214844h-6.328124c-.675782-.410156-1.34375-.832032-1.972657-1.273438-4.160156-2.90625-8.859375-8.359375-8.859375-8.359375zm-9.964844 9.613281-3.003906.011719c.042969.074219.089844.148438.140625.214844l2.863281-.011719h6.34375l.105469.023438h5.125c-.109375-.070313-.222656-.144532-.332031-.214844h-4.792969l-.105469-.023438zm0 0" fill="#fff" fill-opacity=".313726"/><path d="m1719.99332 496.330582c-93.849311 4.094097-186.911295 17.478646-278.083696 39.996182-466.254712 114.004867-690.957675 384.687694-690.957675 384.687694s141.718758 345.793768 404.685785 545.617216c90.700005 68.654865 185.651573 131.640979 284.382307 188.485948h-270.052966c-27.241494-16.37639-54.168058-33.540106-79.519969-51.176218-167.70053-117.311638-357.131269-337.133178-357.131269-337.133178-57.002433 42.673093-123.295319 41.885766-179.510426 67.867539-56.057642 25.981772-93.061984 45.507467-93.061984 45.507467s51.176218 69.599657 264.856611 225.49029c24.564585 17.793577 48.814239 34.327432 72.591497 49.601565h-206.594455l-4.251563-.944792h-255.723625l-121.090805.472396c13.69948 24.092189 39.681253 40.311113 69.442192 40.311113h1360.027675c37.319273 0 68.654865-25.351911 77.472921-59.836808l-80.149831.31493c-58.734551-31.650522-244.071193-140.773965-392.403492-329.102448-178.880565-226.907477-178.880565-305.167724-178.880565-305.167724s185.651572-186.753829 374.45245-263.911819c93.691845-38.1066 197.933864-68.025004 279.500883-88.652956zm0 275.721716c-279.500883 128.491673-394.608007 314.143245-394.608007 314.143245s55.42778 178.408169 248.165291 372.562867c0 0-47.711982-238.087513-52.750871-329.417378 55.585246-72.434032 122.980388-134.790285 199.193587-184.549316zm0 0" fill="none" stroke="#212121" stroke-width="11.338583" transform="scale(.0248071)"/><path d="m42.667969 16.238281c-2.023438.507813-4.609375 1.253907-6.933594 2.199219-4.683594 1.914062-9.289063 6.546875-9.289063 6.546875s0 .148437.09375.480469c.644532-.632813 4.882813-4.691406 9.195313-6.453125 2.324219-.949219 4.910156-1.691407 6.933594-2.199219zm-23.871094 7.136719c-.109375.121094-.167969.191406-.167969.191406s3.515625 8.574219 10.039063 13.53125c1.953125 1.476563 3.980469 2.847656 6.082031 4.105469h.972656c-2.449218-1.410156-4.804687-2.972656-7.054687-4.679687-5.703125-4.332032-9.105469-11.429688-9.871094-13.148438zm23.871094.207031c-1.890625 1.234375-3.5625 2.78125-4.941407 4.578125.007813.15625.019532.332032.039063.519532 1.371094-1.773438 3.027344-3.304688 4.902344-4.527344zm-9.65625 3.882813c-.085938.128906-.132813.199218-.132813.199218s1.375 4.421876 6.15625 9.238282c0 0-.058594-.292969-.136718-.710938-3.863282-3.9375-5.449219-7.582031-5.886719-8.726562zm-21.242188 7.3125c-.21875.109375-.339843.175781-.339843.175781s1.269531 1.726563 6.570312 5.59375c.3125.230469.625.449219.933594.660156h.867187c-.589843-.378906-1.191406-.789062-1.800781-1.230469-3.851562-2.8125-5.574219-4.492187-6.230469-5.199218zm0 0" fill-opacity=".235294"/><path d="m6.945312 4.34375c-1.097656 0-1.984374.886719-1.984374 1.984375v16.871094h37.707031v-16.871094c0-1.097656-.886719-1.984375-1.984375-1.984375zm0 0" fill="url(#i)"/></svg>