<svg height="48pt" viewBox="0 0 48 48" width="48pt" xmlns="http://www.w3.org/2000/svg" xmlns:xlink="http://www.w3.org/1999/xlink"><linearGradient id="a"><stop offset="0" stop-opacity=".313725"/><stop offset=".222222" stop-opacity=".27451"/><stop offset="1" stop-opacity="0"/></linearGradient><radialGradient id="b" cx="450.90894" cy="189.57936" gradientTransform="matrix(.00000026 -.117199 -.210958 -.00000015 66.784728 95.392998)" gradientUnits="userSpaceOnUse" r="21.166656" xlink:href="#a"/><radialGradient id="c" cx="450.90894" cy="189.57936" gradientTransform="matrix(-.00000026 .117199 .210958 .00000015 -19.155181 -11.291222)" gradientUnits="userSpaceOnUse" r="21.166656" xlink:href="#a"/><radialGradient id="d" cx="450.90894" cy="189.57936" gradientTransform="matrix(-.00000026 -.117199 .210958 -.00000015 -19.155181 95.392998)" gradientUnits="userSpaceOnUse" r="21.166656" xlink:href="#a"/><radialGradient id="e" cx="450.90894" cy="189.57936" gradientTransform="matrix(.00000026 .117199 -.210958 .00000015 66.784725 -11.291223)" gradientUnits="userSpaceOnUse" r="21.166656" xlink:href="#a"/><linearGradient id="f" gradientTransform="matrix(.0200401 0 0 .093759 18.698079 20.158175)" gradientUnits="userSpaceOnUse" x1="255.32306" x2="255.32304" y1="233.5" y2="254.66666"><stop offset="0" stop-opacity=".27451"/><stop offset="1" stop-opacity="0"/></linearGradient><linearGradient id="g" gradientUnits="userSpaceOnUse" x1="254" x2="254" y1="-168.66667" y2="233.5"><stop offset="0" stop-color="#616161"/><stop offset="1" stop-color="#424242"/></linearGradient><linearGradient id="h"><stop offset="0" stop-color="#bdbdbd"/><stop offset="1" stop-color="#e0e0e0"/></linearGradient><linearGradient id="i" gradientUnits="userSpaceOnUse" x1="23.81474652347" x2="23.81474652347" xlink:href="#h" y1="42.0504557748" y2="4.34376221001"/><linearGradient id="j" gradientUnits="userSpaceOnUse" x1="24.822186" x2="24.822186" xlink:href="#h" y1="41.8142895" y2="4.10754562506"/><path d="m27.289062 42.050781h3.96875v-1.984375h-3.96875zm0 0" fill="url(#b)"/><path d="m20.339844 42.050781h-3.96875v1.984375h3.96875zm0 0" fill="url(#c)"/><path d="m20.339844 42.050781h-3.96875v-1.984375h3.96875zm0 0" fill="url(#d)"/><path d="m27.289062 42.050781h3.96875v1.984375h-3.96875zm0 0" fill="url(#e)"/><path d="m20.339844 41.554688h6.949218v2.480468h-6.949218zm0 0" fill="url(#f)"/><path d="m254.017409-168.671091c111.031064 0 201.064133 90.033069 201.064133 201.105795 0 111.031064-90.033069 201.064133-201.064133 201.064133-111.072726 0-201.105795-90.033069-201.105795-201.064133 0-111.072726 90.033069-201.105795 201.105795-201.105795zm0 0" fill="url(#g)" stroke="#333" stroke-linecap="round" stroke-width="3" transform="matrix(.093759 0 0 .093759 0 20.158175)"/><path d="m23.816406 42.050781c-10.445312 0-18.855468-8.410156-18.855468-18.851562 0-.0625 0-.125 0-.1875.101562 10.359375 8.472656 18.667969 18.855468 18.667969 10.382813 0 18.753906-8.308594 18.851563-18.667969v.1875c0 10.441406-8.410157 18.851562-18.851563 18.851562zm0 0" fill-opacity=".196078"/><path d="m23.816406 4.34375c-10.445312 0-18.855468 8.410156-18.855468 18.855469v.183593c.101562-10.359374 8.472656-18.667968 18.855468-18.667968 10.382813 0 18.753906 8.308594 18.851563 18.667968 0-.0625 0-.125 0-.183593 0-10.445313-8.410157-18.855469-18.851563-18.855469zm0 0" fill="#fff" fill-opacity=".392157"/><path d="m23.816406 4.203125c-10.523437 0-18.996094 8.472656-18.996094 18.996094 0 10.519531 8.472657 18.992187 18.996094 18.992187 10.519532 0 18.992188-8.472656 18.992188-18.992187 0-10.523438-8.472656-18.996094-18.992188-18.996094zm0 .28125c10.367188 0 18.710938 8.34375 18.710938 18.714844 0 10.367187-8.34375 18.710937-18.710938 18.710937-10.371094 0-18.714844-8.34375-18.714844-18.710937 0-10.371094 8.34375-18.714844 18.714844-18.714844zm0 0" fill="#212121"/><path d="m12.875 11.203125v1.625c-.535156.105469-.984375.300781-1.347656.589844-.5625.457031-.84375 1.078125-.84375 1.871093 0 .421876.085937.789063.257812 1.105469.171875.3125.402344.589844.6875.824219.289063.238281.722656.484375 1.296875.742188.613281.277343 1.019531.480468 1.21875.609374.199219.125.355469.257813.457031.398438.101563.132812.152344.289062.152344.464844 0 .3125-.117187.550781-.351562.710937-.234375.160157-.566406.238281-1.007813.238281-.363281 0-.769531-.054687-1.210937-.164062-.4375-.113281-.972656-.300781-1.609375-.570312v1.765624c.675781.3125 1.449219.480469 2.300781.523438v1.550781h1.535156v-1.644531c.550782-.113281 1.011719-.308594 1.382813-.589844.613281-.464844.921875-1.105468.921875-1.914062 0-.582032-.164063-1.074219-.488282-1.476563-.328124-.402343-.933593-.804687-1.8125-1.207031-.667968-.300781-1.089843-.511719-1.269531-.625-.175781-.117188-.304687-.238281-.386719-.363281-.082031-.125-.121093-.273438-.121093-.441407 0-.269531.101562-.484374.300781-.652343.203125-.167969.492188-.253907.871094-.253907.316406 0 .640625.039063.964844.117188.332031.078125.75.214844 1.25.410156l.644531-1.476562c-.484375-.199219-.949219-.355469-1.398438-.464844-.277343-.070312-.5625-.113281-.859375-.140625v-1.5625zm20.195312 4.648437c-.574218-.34375-.820312-.34375-1.316406 0l-3.988281 2.914063.929687 1.273437 3.695313-2.769531 3.707031 2.777344.929688-1.269531zm-13.285156 8.789063v1.535156h8.0625v-1.535156zm0 0" fill="url(#i)"/><path d="m12.875 11.203125v.527344h1.535156v-.527344zm1.535156 1.5625v.523437c.296875.027344.582032.070313.859375.140626.386719.097656.789063.226562 1.207031.386718l.191407-.445312c-.484375-.199219-.949219-.355469-1.398438-.464844-.277343-.070312-.5625-.113281-.859375-.140625zm-1.535156.0625c-.535156.105469-.984375.300781-1.347656.589844-.5625.457031-.84375 1.078125-.84375 1.871093 0 .089844.003906.171876.011718.257813.054688-.667969.332032-1.203125.832032-1.601563.363281-.289062.8125-.484374 1.347656-.589843zm-.203125 2.660156c-.023437.082031-.035156.167969-.035156.265625 0 .167969.039062.3125.121093.441406.082032.121094.210938.242188.386719.359376.179688.117187.601563.324218 1.269531.625.878907.402343 1.484376.804687 1.8125 1.207031.277344.339843.433594.746093.476563 1.21875.007813-.085938.011719-.175781.011719-.265625 0-.582032-.164063-1.074219-.488282-1.476563-.328124-.402343-.933593-.804687-1.8125-1.207031-.667968-.300781-1.089843-.511719-1.269531-.625-.175781-.117188-.304687-.238281-.386719-.363281-.035156-.054688-.0625-.117188-.085937-.179688zm19.710937.105469c-.195312 0-.382812.085938-.628906.257812l-3.988281 2.914063.25.339844 3.738281-2.730469c.496094-.34375.742188-.34375 1.316406 0l3.707032 2.742188.25-.339844-3.957032-2.925782c-.285156-.171874-.492187-.257812-.6875-.257812zm-21.808593 4.054688v.523437c.636719.269531 1.171875.460937 1.609375.570313.441406.109374.847656.164062 1.210937.164062.441407 0 .773438-.078125 1.007813-.238281.234375-.160157.351562-.394531.351562-.710938 0-.085937-.011718-.167969-.035156-.242187-.050781.175781-.15625.320312-.316406.429687-.234375.160157-.566406.238281-1.007813.238281-.363281 0-.769531-.054687-1.210937-.164062-.4375-.113281-.972656-.300781-1.609375-.570312zm9.210937 4.992187v.523437h8.0625v-.523437zm0 0" fill="#fff" fill-opacity=".588235"/><path d="m16.40625 14.058594-.382812.871094c-.5-.195313-.917969-.332032-1.25-.410157-.324219-.078125-.648438-.117187-.964844-.117187-.378906 0-.667969.082031-.871094.25-.199219.167968-.300781.386718-.300781.65625 0 .128906.023437.246094.070312.351562.050781-.109375.128907-.210937.230469-.292968.203125-.167969.492188-.253907.871094-.253907.316406 0 .640625.039063.964844.117188.332031.078125.75.214843 1.25.410156l.644531-1.476563c-.085938-.035156-.175781-.070312-.261719-.105468zm-5.703125 1.660156c-.011719.117188-.019531.238281-.019531.363281 0 .421875.085937.789063.257812 1.105469.171875.3125.402344.589844.6875.824219.289063.238281.722656.484375 1.296875.742187.613281.277344 1.019531.480469 1.21875.609375.199219.125.355469.257813.457031.398438.03125.039062.058594.085937.082032.132812.046875-.113281.070312-.238281.070312-.378906 0-.175781-.050781-.332031-.152344-.46875-.101562-.136719-.257812-.269531-.457031-.398437-.199219-.125-.605469-.328126-1.21875-.605469-.574219-.257813-1.007812-.503907-1.296875-.742188-.285156-.238281-.515625-.511719-.6875-.828125-.125-.222656-.203125-.476562-.238281-.753906zm21.6875 1.632812-3.695313 2.765626-.589843-.808594-.339844.25.929687 1.273437 3.695313-2.769531 3.707031 2.777344.929688-1.269532-.339844-.25-.589844.808594zm-15.699219 2.429688c-.078125.640625-.378906 1.160156-.898437 1.554688-.371094.28125-.832031.476562-1.382813.589843v.710938c.550782-.109375 1.011719-.308594 1.382813-.589844.613281-.464844.921875-1.105469.921875-1.914063 0-.121093-.007813-.238281-.023438-.351562zm-6.117187 1.710938v.714843c.675781.3125 1.449219.480469 2.300781.523438v-.714844c-.851562-.039063-1.625-.207031-2.300781-.523437zm2.300781 2.074218v.714844h1.535156v-.714844zm6.910156 2.6875v.714844h8.0625v-.714844zm0 0" fill-opacity=".235294"/><path d="m519.005562 451.610422v65.505557c-21.572743 4.251562-39.68125 12.124826-54.325521 23.777257-22.675001 18.423438-34.012501 43.460417-34.012501 75.425869 0 17.00625 3.464236 31.807986 10.392709 44.562674 6.928472 12.597223 16.218923 23.777257 27.713889 33.225174 11.652431 9.605382 29.131077 19.525695 52.278473 29.918403 24.722049 11.180035 41.098438 19.36823 49.129167 24.564584 8.030729 5.038889 14.32934 10.392708 18.423438 16.061459 4.094097 5.353819 6.141146 11.65243 6.141146 18.738368 0 12.597222-4.723959 22.202604-14.171876 28.658681-9.447916 6.456076-22.832465 9.605382-40.626042 9.605382-14.644271 0-31.02066-2.204514-48.814236-6.613542-17.636112-4.566493-39.208855-12.124826-64.875696-22.989931v71.174307c27.241494 12.597222 58.419619 19.368229 92.74705 21.100347v62.513716h61.883855v-66.292883c22.202604-4.566493 40.783507-12.439757 55.742709-23.777257 24.722049-18.738368 37.161806-44.562674 37.161806-77.157987 0-23.462327-6.613542-43.302952-19.68316-59.521876-13.227083-16.218923-37.634202-32.437847-73.06389-48.656771-26.926563-12.124827-43.932813-20.627952-51.176216-25.194445-7.085937-4.723958-12.282291-9.605382-15.589062-14.644271s-4.881424-11.022569-4.881424-17.793576c0-10.865105 4.094097-19.525695 12.124827-26.296702 8.188194-6.771007 19.840625-10.235243 35.114757-10.235243 12.754688 0 25.824306 1.574652 38.893924 4.723958 13.384549 3.149306 30.233334 8.66059 50.38889 16.533854l25.981771-59.521875c-19.525695-8.03073-38.264063-14.329341-56.37257-18.738369-11.180035-2.834375-22.675001-4.566493-34.642362-5.66875v-62.986112zm814.095496 187.383683c-23.147396-13.856944-33.067708-13.856944-53.065799 0l-160.77205 117.469099 37.476736 51.333681 148.962155-111.642883 149.43455 111.957814 37.476737-51.176216zm-535.539416 354.29688v61.883855h325.008337v-61.883855zm0 0" fill="none" stroke="#212121" stroke-width="11.338583" transform="scale(.0248071)"/><path d="m38.699219 27.167969c-.144531.003906-.28125.050781-.402344.128906-5.632813 3.757813-18.5625 5.828125-26.375 5.828125-.269531-.003906-.523437.140625-.65625.371094-.136719.234375-.136719.523437 0 .757812.132813.234375.386719.375.65625.371094 8.0625 0 20.933594-1.894531 27.207031-6.078125.285156-.183594.410156-.53125.308594-.855469-.097656-.320312-.402344-.535156-.738281-.523437zm0 0" fill="url(#j)"/><path d="m38.699219 27.167969c-.144531.003906-.28125.050781-.402344.128906-5.632813 3.757813-18.5625 5.828125-26.375 5.828125-.246094-.003906-.476563.117188-.621094.316406-.140625.199219-.175781.457032-.09375.6875.109375-.300781.394531-.5.714844-.496094 7.8125 0 20.742187-2.070312 26.375-5.828124.121094-.078126.257813-.125.402344-.128907.324219-.011719.617187.1875.730469.496094.082031-.234375.046874-.496094-.101563-.695313-.144531-.203124-.382813-.316406-.628906-.308593zm0 0" fill="#fff" fill-opacity=".588235"/><path d="m39.375 28.300781c-.0625.101563-.144531.191407-.246094.257813-6.273437 4.183594-19.144531 6.078125-27.207031 6.078125-.273437.003906-.523437-.140625-.660156-.375-.132813.230469-.132813.519531.003906.75.136719.234375.386719.375.65625.371093 8.0625 0 20.933594-1.898437 27.207031-6.082031.335938-.214843.441406-.65625.246094-1zm0 0" fill-opacity=".235294"/><path d="m412.752251 74.763996c-1.54152.041662-2.999714.541615-4.291257 1.374868-60.077596 40.079506-197.981094 62.160731-281.30647 62.160731-2.874725-.041663-5.5828 1.499857-6.999332 3.957955-1.458194 2.499762-1.458194 5.5828 0 8.082562 1.416532 2.499761 4.124607 3.999618 6.999332 3.957955 85.991788 0 223.270345-20.206404 290.180622-64.827143 3.041377-1.958146 4.374583-5.666125 3.291353-9.124128-1.041567-3.416341-4.291257-5.707788-7.874248-5.5828zm0 0" fill="none" stroke="#212121" stroke-linecap="round" stroke-linejoin="round" stroke-width="3" transform="matrix(.093759 0 0 .093759 0 20.158175)"/></svg>