<?xml version="1.0" encoding="UTF-8"?>
<svg xmlns="http://www.w3.org/2000/svg" xmlns:xlink="http://www.w3.org/1999/xlink" width="48pt" height="48pt" viewBox="0 0 48 48" version="1.1">
<defs>
<linearGradient id="linear0" gradientUnits="userSpaceOnUse" x1="254" y1="233.5" x2="254" y2="254.666672" gradientTransform="matrix(0.093759,0,0,0.093759,-0.00000572259,20.158178)">
<stop offset="0" style="stop-color:rgb(0%,0%,0%);stop-opacity:0.27451;"/>
<stop offset="1" style="stop-color:rgb(0%,0%,0%);stop-opacity:0;"/>
</linearGradient>
<radialGradient id="radial0" gradientUnits="userSpaceOnUse" cx="450.908936" cy="189.579361" fx="450.908936" fy="189.579361" r="21.166656" gradientTransform="matrix(0.000000261256,-0.117199,-0.210958,-0.000000152308,75.219126,95.392999)">
<stop offset="0" style="stop-color:rgb(0%,0%,0%);stop-opacity:0.313725;"/>
<stop offset="0.222222" style="stop-color:rgb(0%,0%,0%);stop-opacity:0.27451;"/>
<stop offset="1" style="stop-color:rgb(0%,0%,0%);stop-opacity:0;"/>
</radialGradient>
<radialGradient id="radial1" gradientUnits="userSpaceOnUse" cx="450.908936" cy="189.579361" fx="450.908936" fy="189.579361" r="21.166656" gradientTransform="matrix(-0.000000261256,0.117199,0.210958,0.000000152308,-27.589573,-11.291218)">
<stop offset="0" style="stop-color:rgb(0%,0%,0%);stop-opacity:0.313725;"/>
<stop offset="0.222222" style="stop-color:rgb(0%,0%,0%);stop-opacity:0.27451;"/>
<stop offset="1" style="stop-color:rgb(0%,0%,0%);stop-opacity:0;"/>
</radialGradient>
<radialGradient id="radial2" gradientUnits="userSpaceOnUse" cx="450.908936" cy="189.579361" fx="450.908936" fy="189.579361" r="21.166656" gradientTransform="matrix(-0.000000261256,-0.117199,0.210958,-0.000000152308,-27.589573,95.392999)">
<stop offset="0" style="stop-color:rgb(0%,0%,0%);stop-opacity:0.313725;"/>
<stop offset="0.222222" style="stop-color:rgb(0%,0%,0%);stop-opacity:0.27451;"/>
<stop offset="1" style="stop-color:rgb(0%,0%,0%);stop-opacity:0;"/>
</radialGradient>
<radialGradient id="radial3" gradientUnits="userSpaceOnUse" cx="450.908936" cy="189.579361" fx="450.908936" fy="189.579361" r="21.166656" gradientTransform="matrix(0.000000261256,0.117199,-0.210958,0.000000152308,75.219123,-11.291219)">
<stop offset="0" style="stop-color:rgb(0%,0%,0%);stop-opacity:0.313725;"/>
<stop offset="0.222222" style="stop-color:rgb(0%,0%,0%);stop-opacity:0.27451;"/>
<stop offset="1" style="stop-color:rgb(0%,0%,0%);stop-opacity:0;"/>
</radialGradient>
<linearGradient id="linear1" gradientUnits="userSpaceOnUse" x1="840" y1="1455.118164" x2="840" y2="1695.118164" gradientTransform="matrix(0.0248071,0,0,-0.0248071,0.00000062506,78.148064)">
<stop offset="0" style="stop-color:rgb(38.039216%,38.039216%,38.039216%);stop-opacity:1;"/>
<stop offset="1" style="stop-color:rgb(25.882353%,25.882353%,25.882353%);stop-opacity:1;"/>
</linearGradient>
<linearGradient id="linear2" gradientUnits="userSpaceOnUse" x1="306.916656" y1="-25.791676" x2="305.954559" y2="-141.414581" gradientTransform="matrix(0.113024,0,0,0.326118,-8.78102,50.462022)">
<stop offset="0" style="stop-color:rgb(87.843137%,87.843137%,87.843137%);stop-opacity:1;"/>
<stop offset="1" style="stop-color:rgb(93.333333%,93.333333%,93.333333%);stop-opacity:1;"/>
</linearGradient>
<linearGradient id="linear3" gradientUnits="userSpaceOnUse" x1="444.5" y1="185.875" x2="444.5" y2="148.833328" gradientTransform="matrix(0.5,0,0,0.571428,169.333206,-297.38092)">
<stop offset="0" style="stop-color:rgb(30.196078%,71.372549%,67.45098%);stop-opacity:1;"/>
<stop offset="1" style="stop-color:rgb(0%,58.823529%,53.333333%);stop-opacity:1;"/>
</linearGradient>
<linearGradient id="linear4" gradientUnits="userSpaceOnUse" x1="960" y1="1415.118164" x2="960" y2="295.118103" gradientTransform="matrix(1,0,0,1,0,0)">
<stop offset="0" style="stop-color:rgb(93.72549%,32.54902%,31.372549%);stop-opacity:1;"/>
<stop offset="1" style="stop-color:rgb(89.803922%,45.098039%,45.098039%);stop-opacity:1;"/>
</linearGradient>
</defs>
<g id="surface1">
<path style=" stroke:none;fill-rule:nonzero;fill:url(#linear0);" d="M 11.90625 42.050781 L 35.722656 42.050781 L 35.722656 44.035156 L 11.90625 44.035156 Z M 11.90625 42.050781 "/>
<path style=" stroke:none;fill-rule:nonzero;fill:url(#radial0);" d="M 35.722656 42.050781 L 39.691406 42.050781 L 39.691406 40.066406 L 35.722656 40.066406 Z M 35.722656 42.050781 "/>
<path style=" stroke:none;fill-rule:nonzero;fill:url(#radial1);" d="M 11.90625 42.050781 L 7.9375 42.050781 L 7.9375 44.035156 L 11.90625 44.035156 Z M 11.90625 42.050781 "/>
<path style=" stroke:none;fill-rule:nonzero;fill:url(#radial2);" d="M 11.90625 42.050781 L 7.9375 42.050781 L 7.9375 40.066406 L 11.90625 40.066406 Z M 11.90625 42.050781 "/>
<path style=" stroke:none;fill-rule:nonzero;fill:url(#radial3);" d="M 35.722656 42.050781 L 39.691406 42.050781 L 39.691406 44.035156 L 35.722656 44.035156 Z M 35.722656 42.050781 "/>
<path style=" stroke:none;fill-rule:nonzero;fill:url(#linear1);" d="M 9.921875 42.050781 C 8.824219 42.050781 7.9375 41.164062 7.9375 40.066406 L 7.9375 36.097656 L 39.691406 36.097656 L 39.691406 40.066406 C 39.691406 41.164062 38.804688 42.050781 37.707031 42.050781 Z M 9.921875 42.050781 "/>
<path style=" stroke:none;fill-rule:nonzero;fill:rgb(0%,0%,0%);fill-opacity:0.235294;" d="M 9.921875 41.925781 C 8.824219 41.925781 7.9375 41.042969 7.9375 39.941406 L 7.9375 39.695312 C 7.9375 40.792969 8.824219 41.679688 9.921875 41.679688 L 37.707031 41.679688 C 38.804688 41.679688 39.691406 40.792969 39.691406 39.695312 L 39.691406 39.941406 C 39.691406 41.042969 38.804688 41.925781 37.707031 41.925781 Z M 9.921875 41.925781 "/>
<path style="fill:none;stroke-width:3;stroke-linecap:round;stroke-linejoin:miter;stroke:rgb(12.941177%,12.941177%,12.941177%);stroke-opacity:1;stroke-miterlimit:4;" d="M 105.823228 233.498837 C 94.116012 233.498837 84.658582 224.041407 84.658582 212.334192 L 84.658582 170.004901 L 423.334574 170.004901 L 423.334574 212.334192 C 423.334574 224.041407 413.877143 233.498837 402.169928 233.498837 Z M 105.823228 233.498837 " transform="matrix(0.093759,0,0,0.093759,0,20.158175)"/>
<path style=" stroke:none;fill-rule:nonzero;fill:url(#linear2);" d="M 3.96875 4.34375 L 43.660156 4.34375 C 44.757812 4.34375 45.644531 5.234375 45.644531 6.328125 L 45.644531 35.105469 C 45.644531 36.199219 44.757812 37.089844 43.660156 37.089844 L 3.96875 37.089844 C 2.875 37.089844 1.984375 36.199219 1.984375 35.105469 L 1.984375 6.328125 C 1.984375 5.234375 2.875 4.34375 3.96875 4.34375 Z M 3.96875 4.34375 "/>
<path style=" stroke:none;fill-rule:nonzero;fill:rgb(0%,0%,0%);fill-opacity:0.196078;" d="M 3.96875 37.089844 C 2.871094 37.089844 1.984375 36.203125 1.984375 35.105469 L 1.984375 34.855469 C 1.984375 35.957031 2.871094 36.839844 3.96875 36.839844 L 43.660156 36.839844 C 44.761719 36.839844 45.644531 35.957031 45.644531 34.855469 L 45.644531 35.105469 C 45.644531 36.203125 44.761719 37.089844 43.660156 37.089844 Z M 3.96875 37.089844 "/>
<path style=" stroke:none;fill-rule:nonzero;fill:rgb(90.196079%,90.196079%,90.196079%);fill-opacity:0.937255;" d="M 3.96875 4.34375 C 2.871094 4.34375 1.984375 5.230469 1.984375 6.328125 L 1.984375 6.578125 C 1.984375 5.476562 2.871094 4.589844 3.96875 4.59375 L 43.660156 4.59375 C 44.761719 4.589844 45.644531 5.476562 45.644531 6.578125 L 45.644531 6.328125 C 45.644531 5.230469 44.761719 4.34375 43.660156 4.34375 Z M 3.96875 4.34375 "/>
<path style="fill-rule:nonzero;fill:url(#linear3);stroke-width:3;stroke-linecap:round;stroke-linejoin:miter;stroke:rgb(12.941177%,12.941177%,12.941177%);stroke-opacity:1;stroke-miterlimit:4;" d="M 391.587605 -212.334192 C 397.420382 -212.334192 402.169928 -207.584645 402.169928 -201.751869 C 402.169928 -195.919093 397.420382 -191.169546 391.587605 -191.169546 C 385.754829 -191.169546 381.005282 -195.919093 381.005282 -201.751869 C 381.005282 -207.584645 385.754829 -212.334192 391.587605 -212.334192 Z M 391.587605 -212.334192 " transform="matrix(0.093759,0,0,-0.093759,0,20.158175)"/>
<path style=" stroke:none;fill-rule:nonzero;fill:rgb(12.941177%,12.941177%,12.941177%);fill-opacity:1;" d="M 3.96875 4.203125 C 2.792969 4.203125 1.84375 5.152344 1.84375 6.328125 L 1.84375 35.105469 C 1.84375 36.28125 2.792969 37.230469 3.96875 37.230469 L 43.660156 37.230469 C 44.835938 37.230469 45.785156 36.28125 45.785156 35.105469 L 45.785156 6.328125 C 45.785156 5.152344 44.835938 4.203125 43.660156 4.203125 Z M 3.96875 4.484375 L 43.660156 4.484375 C 44.683594 4.484375 45.503906 5.304688 45.503906 6.328125 L 45.503906 35.105469 C 45.503906 36.128906 44.683594 36.949219 43.660156 36.949219 L 3.96875 36.949219 C 2.945312 36.949219 2.125 36.128906 2.125 35.105469 L 2.125 6.328125 C 2.125 5.304688 2.945312 4.484375 3.96875 4.484375 Z M 3.96875 4.484375 "/>
<path style="fill-rule:nonzero;fill:url(#linear4);stroke-width:11.338583;stroke-linecap:round;stroke-linejoin:round;stroke:rgb(12.941177%,12.941177%,12.941177%);stroke-opacity:1;stroke-miterlimit:4;" d="M 1559.693658 296.034738 C 1545.364317 296.034738 1531.034976 303.435606 1523.634108 318.237343 L 1443.641743 478.222074 C 1430.257193 505.148638 1449.782889 536.641695 1479.701293 536.641695 L 1520.012406 536.641695 L 1520.012406 1212.797633 L 447.201412 430.510092 L 470.66374 398.229708 C 483.733359 380.436131 479.954192 355.556616 462.63301 342.329532 C 462.003149 342.014601 461.530753 341.542205 460.900892 341.06981 C 456.019468 337.763039 450.508183 335.558525 444.839433 334.613733 L 268.320847 305.010259 C 235.568068 299.498974 210.688553 333.826406 225.962685 363.272415 L 308.0021 522.154889 C 321.859045 548.766522 358.705922 551.600897 376.499499 527.508708 L 399.961827 495.070859 L 1442.224555 1255.155795 L 441.532662 1255.155795 L 441.532662 1215.159612 C 441.532662 1192.327146 422.794293 1174.218638 399.961827 1174.848499 C 394.135611 1175.005965 388.466861 1176.423152 383.113041 1179.100062 L 223.12831 1259.092427 C 193.524837 1273.894164 193.524837 1316.252326 223.12831 1331.211528 L 383.113041 1411.203894 C 410.039605 1424.588443 441.532662 1405.062747 441.532662 1375.144343 L 441.532662 1335.14816 L 1567.724388 1335.14816 C 1585.517965 1335.14816 1600.004772 1317.354583 1600.004772 1295.151978 L 1600.004772 536.641695 L 1639.686024 536.641695 C 1662.361025 536.641695 1680.626998 517.903326 1679.997137 495.070859 C 1679.839672 489.244644 1678.422484 483.575893 1675.745574 478.222074 L 1595.753209 318.237343 C 1588.35234 303.435606 1574.022999 296.034738 1559.693658 296.034738 Z M 1705.191583 399.961827 C 1701.569881 403.268598 1698.892971 407.20523 1696.845923 411.456792 Z M 1705.191583 399.961827 " transform="matrix(0.0248071,0,0,0.0248071,0,0)"/>
</g>
</svg>
