<?xml version="1.0" encoding="UTF-8"?>
<svg xmlns="http://www.w3.org/2000/svg" xmlns:xlink="http://www.w3.org/1999/xlink" width="48px" height="48px" viewBox="0 0 48 48" version="1.1">
<defs>
<linearGradient id="linear0" gradientUnits="userSpaceOnUse" x1="254" y1="233.5" x2="254" y2="254.666672" gradientTransform="matrix(0.093759,0,0,0.093759,0.0482071,18.306976)">
<stop offset="0" style="stop-color:rgb(0%,0%,0%);stop-opacity:0.27451;"/>
<stop offset="1" style="stop-color:rgb(0%,0%,0%);stop-opacity:0;"/>
</linearGradient>
<radialGradient id="radial0" gradientUnits="userSpaceOnUse" cx="450.908936" cy="189.579361" fx="450.908936" fy="189.579361" r="21.166656" gradientTransform="matrix(0.000000261256,-0.117199,-0.210958,-0.000000152308,73.282781,93.541797)">
<stop offset="0" style="stop-color:rgb(0%,0%,0%);stop-opacity:0.313726;"/>
<stop offset="0.222222" style="stop-color:rgb(0%,0%,0%);stop-opacity:0.27451;"/>
<stop offset="1" style="stop-color:rgb(0%,0%,0%);stop-opacity:0;"/>
</radialGradient>
<radialGradient id="radial1" gradientUnits="userSpaceOnUse" cx="450.908936" cy="189.579361" fx="450.908936" fy="189.579361" r="21.166656" gradientTransform="matrix(-0.000000261256,0.117199,0.210958,0.000000152308,-26.549086,-13.14242)">
<stop offset="0" style="stop-color:rgb(0%,0%,0%);stop-opacity:0.313726;"/>
<stop offset="0.222222" style="stop-color:rgb(0%,0%,0%);stop-opacity:0.27451;"/>
<stop offset="1" style="stop-color:rgb(0%,0%,0%);stop-opacity:0;"/>
</radialGradient>
<radialGradient id="radial2" gradientUnits="userSpaceOnUse" cx="450.908936" cy="189.579361" fx="450.908936" fy="189.579361" r="21.166656" gradientTransform="matrix(-0.000000261256,-0.117199,0.210958,-0.000000152308,-26.549086,93.541797)">
<stop offset="0" style="stop-color:rgb(0%,0%,0%);stop-opacity:0.313726;"/>
<stop offset="0.222222" style="stop-color:rgb(0%,0%,0%);stop-opacity:0.27451;"/>
<stop offset="1" style="stop-color:rgb(0%,0%,0%);stop-opacity:0;"/>
</radialGradient>
<radialGradient id="radial3" gradientUnits="userSpaceOnUse" cx="450.908936" cy="189.579361" fx="450.908936" fy="189.579361" r="21.166656" gradientTransform="matrix(0.000000261256,0.117199,-0.210958,0.000000152308,73.282778,-13.14242)">
<stop offset="0" style="stop-color:rgb(0%,0%,0%);stop-opacity:0.313726;"/>
<stop offset="0.222222" style="stop-color:rgb(0%,0%,0%);stop-opacity:0.27451;"/>
<stop offset="1" style="stop-color:rgb(0%,0%,0%);stop-opacity:0;"/>
</radialGradient>
<filter id="alpha" filterUnits="objectBoundingBox" x="0%" y="0%" width="100%" height="100%">
  <feColorMatrix type="matrix" in="SourceGraphic" values="0 0 0 0 1 0 0 0 0 1 0 0 0 0 1 0 0 0 1 0"/>
</filter>
<mask id="mask0">
  <g filter="url(#alpha)">
<rect x="0" y="0" width="48" height="48" style="fill:rgb(0%,0%,0%);fill-opacity:0.99;stroke:none;"/>
  </g>
</mask>
<linearGradient id="linear1" gradientUnits="userSpaceOnUse" x1="940" y1="1695.118164" x2="940" y2="175.118118" gradientTransform="matrix(0.0248071,0,0,0.0248071,0,0)">
<stop offset="0" style="stop-color:rgb(93.333334%,93.333334%,93.333334%);stop-opacity:1;"/>
<stop offset="1" style="stop-color:rgb(96.078432%,96.078432%,96.078432%);stop-opacity:1;"/>
</linearGradient>
<clipPath id="clip1">
  <rect x="0" y="0" width="48" height="48"/>
</clipPath>
<g id="surface5" clip-path="url(#clip1)">
<path style=" stroke:none;fill-rule:nonzero;fill:url(#linear1);" d="M 10.914062 4.34375 C 9.816406 4.34375 8.929688 5.230469 8.929688 6.328125 L 8.929688 40.066406 C 8.929688 41.164062 9.816406 42.050781 10.914062 42.050781 L 35.722656 42.050781 C 36.820312 42.050781 37.707031 41.164062 37.707031 40.066406 L 37.707031 13.273438 L 28.777344 4.34375 Z M 30.761719 4.34375 L 37.707031 11.289062 L 37.707031 6.328125 C 37.707031 5.230469 36.820312 4.34375 35.722656 4.34375 Z M 30.761719 4.34375 "/>
</g>
<mask id="mask1">
  <g filter="url(#alpha)">
<rect x="0" y="0" width="48" height="48" style="fill:rgb(0%,0%,0%);fill-opacity:0.99;stroke:none;"/>
  </g>
</mask>
<linearGradient id="linear2" gradientUnits="userSpaceOnUse" x1="940" y1="1695.118164" x2="940" y2="175.118118" gradientTransform="matrix(0.0248071,0,0,0.0248071,0,0)">
<stop offset="0" style="stop-color:rgb(61.176473%,80.000001%,39.607844%);stop-opacity:1;"/>
<stop offset="1" style="stop-color:rgb(68.235296%,83.529413%,50.588238%);stop-opacity:1;"/>
</linearGradient>
<clipPath id="clip2">
  <rect x="0" y="0" width="48" height="48"/>
</clipPath>
<g id="surface8" clip-path="url(#clip2)">
<path style=" stroke:none;fill-rule:nonzero;fill:url(#linear2);" d="M 30.761719 4.34375 L 37.707031 11.289062 L 37.707031 6.328125 C 37.707031 5.230469 36.820312 4.34375 35.722656 4.34375 Z M 30.761719 4.34375 "/>
</g>
<mask id="mask2">
  <g filter="url(#alpha)">
<rect x="0" y="0" width="48" height="48" style="fill:rgb(0%,0%,0%);fill-opacity:0.99;stroke:none;"/>
  </g>
</mask>
<clipPath id="clip3">
  <rect x="0" y="0" width="48" height="48"/>
</clipPath>
<g id="surface11" clip-path="url(#clip3)">
<path style=" stroke:none;fill-rule:nonzero;fill:rgb(100%,100%,100%);fill-opacity:0.392157;" d="M 10.914062 4.34375 C 9.816406 4.34375 8.929688 5.230469 8.929688 6.328125 L 8.929688 6.824219 C 8.929688 5.726562 9.816406 4.839844 10.914062 4.839844 L 28.777344 4.839844 L 37.707031 13.769531 L 37.707031 13.273438 L 28.777344 4.34375 Z M 30.761719 4.34375 L 31.257812 4.839844 L 35.722656 4.839844 C 36.820312 4.839844 37.707031 5.726562 37.707031 6.824219 L 37.707031 6.328125 C 37.707031 5.230469 36.820312 4.34375 35.722656 4.34375 Z M 30.761719 4.34375 "/>
</g>
<linearGradient id="linear3" gradientUnits="userSpaceOnUse" x1="254" y1="233.5" x2="254" y2="254.666672" gradientTransform="matrix(0.10001,0,0,0.093759,-1.587653,20.158175)">
<stop offset="0" style="stop-color:rgb(0%,0%,0%);stop-opacity:0.27451;"/>
<stop offset="1" style="stop-color:rgb(0%,0%,0%);stop-opacity:0;"/>
</linearGradient>
<radialGradient id="radial4" gradientUnits="userSpaceOnUse" cx="450.908936" cy="189.579361" fx="450.908936" fy="189.579361" r="21.166656" gradientTransform="matrix(0.000000261256,-0.117199,-0.210958,-0.000000152308,79.188254,95.392996)">
<stop offset="0" style="stop-color:rgb(0%,0%,0%);stop-opacity:0.313726;"/>
<stop offset="0.222222" style="stop-color:rgb(0%,0%,0%);stop-opacity:0.27451;"/>
<stop offset="1" style="stop-color:rgb(0%,0%,0%);stop-opacity:0;"/>
</radialGradient>
<radialGradient id="radial5" gradientUnits="userSpaceOnUse" cx="450.908936" cy="189.579361" fx="450.908936" fy="189.579361" r="21.166656" gradientTransform="matrix(-0.000000261256,0.117199,0.210958,0.000000152308,-31.558706,-11.291221)">
<stop offset="0" style="stop-color:rgb(0%,0%,0%);stop-opacity:0.313726;"/>
<stop offset="0.222222" style="stop-color:rgb(0%,0%,0%);stop-opacity:0.27451;"/>
<stop offset="1" style="stop-color:rgb(0%,0%,0%);stop-opacity:0;"/>
</radialGradient>
<radialGradient id="radial6" gradientUnits="userSpaceOnUse" cx="450.908936" cy="189.579361" fx="450.908936" fy="189.579361" r="21.166656" gradientTransform="matrix(-0.000000261256,-0.117199,0.210958,-0.000000152308,-31.558706,95.392996)">
<stop offset="0" style="stop-color:rgb(0%,0%,0%);stop-opacity:0.313726;"/>
<stop offset="0.222222" style="stop-color:rgb(0%,0%,0%);stop-opacity:0.27451;"/>
<stop offset="1" style="stop-color:rgb(0%,0%,0%);stop-opacity:0;"/>
</radialGradient>
<radialGradient id="radial7" gradientUnits="userSpaceOnUse" cx="450.908936" cy="189.579361" fx="450.908936" fy="189.579361" r="21.166656" gradientTransform="matrix(0.000000261256,0.117199,-0.210958,0.000000152308,79.188251,-11.291222)">
<stop offset="0" style="stop-color:rgb(0%,0%,0%);stop-opacity:0.313726;"/>
<stop offset="0.222222" style="stop-color:rgb(0%,0%,0%);stop-opacity:0.27451;"/>
<stop offset="1" style="stop-color:rgb(0%,0%,0%);stop-opacity:0;"/>
</radialGradient>
<mask id="mask3">
  <g filter="url(#alpha)">
<rect x="0" y="0" width="48" height="48" style="fill:rgb(0%,0%,0%);fill-opacity:0.99;stroke:none;"/>
  </g>
</mask>
<clipPath id="clip4">
  <rect x="0" y="0" width="48" height="48"/>
</clipPath>
<g id="surface14" clip-path="url(#clip4)">
<path style=" stroke:none;fill-rule:nonzero;fill:rgb(0%,0%,0%);fill-opacity:0.235294;" d="M 30.761719 4.34375 L 37.707031 11.289062 L 37.707031 10.554688 L 31.496094 4.34375 Z M 8.929688 39.328125 L 8.929688 40.066406 C 8.929688 41.164062 9.816406 42.050781 10.914062 42.050781 L 35.722656 42.050781 C 36.820312 42.050781 37.707031 41.164062 37.707031 40.066406 L 37.707031 39.328125 C 37.707031 40.429688 36.820312 41.316406 35.722656 41.316406 L 10.914062 41.316406 C 9.816406 41.316406 8.929688 40.429688 8.929688 39.328125 Z M 8.929688 39.328125 "/>
</g>
<mask id="mask4">
  <g filter="url(#alpha)">
<rect x="0" y="0" width="48" height="48" style="fill:rgb(0%,0%,0%);fill-opacity:0.99;stroke:none;"/>
  </g>
</mask>
<clipPath id="clip5">
  <rect x="0" y="0" width="48" height="48"/>
</clipPath>
<g id="surface17" clip-path="url(#clip5)">
<path style=" stroke:none;fill-rule:nonzero;fill:rgb(12.941177%,12.941177%,12.941177%);fill-opacity:1;" d="M 10.914062 4.203125 C 9.738281 4.203125 8.789062 5.152344 8.789062 6.328125 L 8.789062 40.066406 C 8.789062 41.242188 9.738281 42.191406 10.914062 42.191406 L 35.722656 42.191406 C 36.898438 42.191406 37.847656 41.242188 37.847656 40.066406 L 37.847656 13.273438 C 37.847656 13.238281 37.832031 13.203125 37.804688 13.175781 L 28.875 4.246094 C 28.847656 4.21875 28.8125 4.203125 28.777344 4.203125 Z M 30.761719 4.203125 C 30.703125 4.203125 30.652344 4.238281 30.628906 4.289062 C 30.609375 4.34375 30.621094 4.402344 30.660156 4.445312 L 37.605469 11.390625 C 37.648438 11.429688 37.707031 11.441406 37.761719 11.421875 C 37.8125 11.398438 37.847656 11.347656 37.847656 11.289062 L 37.847656 6.328125 C 37.847656 5.152344 36.898438 4.203125 35.722656 4.203125 Z M 10.914062 4.484375 L 28.71875 4.484375 L 37.566406 13.332031 L 37.566406 40.066406 C 37.566406 41.089844 36.746094 41.910156 35.722656 41.910156 L 10.914062 41.910156 C 9.890625 41.910156 9.070312 41.089844 9.070312 40.066406 L 9.070312 6.328125 C 9.070312 5.304688 9.890625 4.484375 10.914062 4.484375 Z M 31.101562 4.484375 L 35.722656 4.484375 C 36.746094 4.484375 37.566406 5.304688 37.566406 6.328125 L 37.566406 10.949219 Z M 31.101562 4.484375 "/>
</g>
<linearGradient id="linear4" gradientUnits="userSpaceOnUse" x1="248.708344" y1="254.666672" x2="243.416672" y2="-84" gradientTransform="matrix(0.093759,0,0,0.093759,0.0482106,18.306972)">
<stop offset="0" style="stop-color:rgb(61.176473%,80.000001%,39.607844%);stop-opacity:1;"/>
<stop offset="1" style="stop-color:rgb(68.235296%,83.529413%,50.588238%);stop-opacity:1;"/>
</linearGradient>
</defs>
<g id="surface1">
<path style=" stroke:none;fill-rule:nonzero;fill:url(#linear0);" d="M 12.949219 40.199219 L 33.785156 40.199219 L 33.785156 42.183594 L 12.949219 42.183594 Z M 12.949219 40.199219 "/>
<path style=" stroke:none;fill-rule:nonzero;fill:url(#radial0);" d="M 33.785156 40.199219 L 37.753906 40.199219 L 37.753906 38.214844 L 33.785156 38.214844 Z M 33.785156 40.199219 "/>
<path style=" stroke:none;fill-rule:nonzero;fill:url(#radial1);" d="M 12.949219 40.199219 L 8.980469 40.199219 L 8.980469 42.183594 L 12.949219 42.183594 Z M 12.949219 40.199219 "/>
<path style=" stroke:none;fill-rule:nonzero;fill:url(#radial2);" d="M 12.949219 40.199219 L 8.980469 40.199219 L 8.980469 38.214844 L 12.949219 38.214844 Z M 12.949219 40.199219 "/>
<path style=" stroke:none;fill-rule:nonzero;fill:url(#radial3);" d="M 33.785156 40.199219 L 37.753906 40.199219 L 37.753906 42.183594 L 33.785156 42.183594 Z M 33.785156 40.199219 "/>
<use xlink:href="#surface5" mask="url(#mask0)"/>
<use xlink:href="#surface8" mask="url(#mask1)"/>
<use xlink:href="#surface11" mask="url(#mask2)"/>
<path style=" stroke:none;fill-rule:nonzero;fill:url(#linear3);" d="M 7.9375 41.902344 L 39.691406 41.902344 L 39.691406 44.109375 L 7.9375 44.109375 Z M 7.9375 41.902344 "/>
<path style=" stroke:none;fill-rule:nonzero;fill:url(#radial4);" d="M 39.691406 42.050781 L 43.660156 42.050781 L 43.660156 40.066406 L 39.691406 40.066406 Z M 39.691406 42.050781 "/>
<path style=" stroke:none;fill-rule:nonzero;fill:url(#radial5);" d="M 7.9375 42.050781 L 3.96875 42.050781 L 3.96875 44.035156 L 7.9375 44.035156 Z M 7.9375 42.050781 "/>
<path style=" stroke:none;fill-rule:nonzero;fill:url(#radial6);" d="M 7.9375 42.050781 L 3.96875 42.050781 L 3.96875 40.066406 L 7.9375 40.066406 Z M 7.9375 42.050781 "/>
<path style=" stroke:none;fill-rule:nonzero;fill:url(#radial7);" d="M 39.691406 42.050781 L 43.660156 42.050781 L 43.660156 44.035156 L 39.691406 44.035156 Z M 39.691406 42.050781 "/>
<use xlink:href="#surface14" mask="url(#mask3)"/>
<use xlink:href="#surface17" mask="url(#mask4)"/>
<path style=" stroke:none;fill-rule:nonzero;fill:url(#linear4);" d="M 5.925781 10.441406 C 4.863281 10.484375 4.027344 11.355469 4.027344 12.414062 L 4.027344 40.199219 C 4.027344 41.289062 4.910156 42.175781 6 42.175781 L 41.722656 42.175781 C 42.566406 42.175781 43.316406 41.636719 43.59375 40.839844 C 43.867188 40.042969 43.601562 39.160156 42.9375 38.640625 L 7.214844 10.855469 C 6.847656 10.570312 6.390625 10.425781 5.925781 10.441406 Z M 7.976562 16.453125 L 35.96875 38.222656 L 7.976562 38.222656 Z M 7.976562 16.453125 "/>
<path style=" stroke:none;fill-rule:nonzero;fill:rgb(25.882354%,25.882354%,25.882354%);fill-opacity:0.908451;" d="M 6.996094 39.703125 C 6.71875 39.703125 6.496094 39.925781 6.496094 40.199219 L 6.496094 42.183594 L 7.492188 42.183594 L 7.492188 40.199219 C 7.492188 39.925781 7.269531 39.703125 6.996094 39.703125 Z M 9.972656 39.703125 C 9.695312 39.703125 9.476562 39.925781 9.476562 40.199219 L 9.476562 42.183594 L 10.46875 42.183594 L 10.46875 40.199219 C 10.46875 39.925781 10.246094 39.703125 9.972656 39.703125 Z M 12.949219 39.703125 C 12.671875 39.703125 12.453125 39.925781 12.453125 40.199219 L 12.453125 42.183594 L 13.445312 42.183594 L 13.445312 40.199219 C 13.445312 39.925781 13.222656 39.703125 12.949219 39.703125 Z M 15.925781 39.703125 C 15.648438 39.703125 15.429688 39.925781 15.429688 40.199219 L 15.429688 42.183594 L 16.421875 42.183594 L 16.421875 40.199219 C 16.421875 39.925781 16.199219 39.703125 15.925781 39.703125 Z M 18.902344 39.703125 C 18.625 39.703125 18.40625 39.925781 18.40625 40.199219 L 18.40625 42.183594 L 19.398438 42.183594 L 19.398438 40.199219 C 19.398438 39.925781 19.175781 39.703125 18.902344 39.703125 Z M 21.878906 39.703125 C 21.605469 39.703125 21.382812 39.925781 21.382812 40.199219 L 21.382812 42.183594 L 22.375 42.183594 L 22.375 40.199219 C 22.375 39.925781 22.152344 39.703125 21.878906 39.703125 Z M 24.855469 39.703125 C 24.582031 39.703125 24.359375 39.925781 24.359375 40.199219 L 24.359375 42.183594 L 25.351562 42.183594 L 25.351562 40.199219 C 25.351562 39.925781 25.128906 39.703125 24.855469 39.703125 Z M 27.832031 39.703125 C 27.558594 39.703125 27.335938 39.925781 27.335938 40.199219 L 27.335938 42.183594 L 28.328125 42.183594 L 28.328125 40.199219 C 28.328125 39.925781 28.105469 39.703125 27.832031 39.703125 Z M 30.808594 39.703125 C 30.535156 39.703125 30.3125 39.925781 30.3125 40.199219 L 30.3125 42.183594 L 31.304688 42.183594 L 31.304688 40.199219 C 31.304688 39.925781 31.082031 39.703125 30.808594 39.703125 Z M 33.785156 39.703125 C 33.511719 39.703125 33.289062 39.925781 33.289062 40.199219 L 33.289062 42.183594 L 34.28125 42.183594 L 34.28125 40.199219 C 34.28125 39.925781 34.0625 39.703125 33.785156 39.703125 Z M 36.761719 39.703125 C 36.488281 39.703125 36.265625 39.925781 36.265625 40.199219 L 36.265625 42.183594 L 37.257812 42.183594 L 37.257812 40.199219 C 37.257812 39.925781 37.039062 39.703125 36.761719 39.703125 Z M 39.738281 39.703125 C 39.464844 39.703125 39.242188 39.925781 39.242188 40.199219 L 39.242188 42.183594 L 40.234375 42.183594 L 40.234375 40.199219 C 40.234375 39.925781 40.015625 39.703125 39.738281 39.703125 Z M 39.738281 39.703125 "/>
<path style=" stroke:none;fill-rule:nonzero;fill:rgb(100%,100%,100%);fill-opacity:0.392157;" d="M 5.925781 10.441406 C 4.863281 10.484375 4.027344 11.355469 4.027344 12.414062 L 4.027344 13.148438 C 4.027344 12.089844 4.863281 11.21875 5.925781 11.175781 C 6.390625 11.15625 6.847656 11.304688 7.214844 11.589844 L 42.9375 39.375 C 43.3125 39.667969 43.570312 40.089844 43.660156 40.5625 C 43.796875 39.835938 43.519531 39.09375 42.9375 38.640625 L 7.214844 10.855469 C 6.847656 10.570312 6.390625 10.425781 5.925781 10.441406 Z M 7.976562 38.222656 L 7.976562 38.957031 L 34.78125 38.957031 L 35.023438 39.148438 L 35.96875 39.148438 L 34.78125 38.222656 Z M 7.976562 38.222656 "/>
<path style=" stroke:none;fill-rule:nonzero;fill:rgb(0%,0%,0%);fill-opacity:0.235294;" d="M 7.976562 15.949219 L 7.976562 16.453125 L 35.316406 37.71875 L 35.96875 37.71875 Z M 4.027344 39.695312 L 4.027344 40.199219 C 4.027344 41.289062 4.910156 42.175781 6 42.175781 L 41.722656 42.175781 C 42.292969 42.175781 42.835938 41.929688 43.210938 41.5 C 43.585938 41.070312 43.757812 40.503906 43.679688 39.9375 C 43.558594 40.925781 42.71875 41.667969 41.722656 41.667969 L 6 41.667969 C 4.910156 41.667969 4.027344 40.785156 4.027344 39.695312 Z M 4.027344 39.695312 "/>
<path style=" stroke:none;fill-rule:nonzero;fill:rgb(12.941177%,12.941177%,12.941177%);fill-opacity:1;" d="M 5.917969 10.300781 C 4.785156 10.347656 3.886719 11.28125 3.886719 12.414062 L 3.886719 40.199219 C 3.886719 41.367188 4.835938 42.316406 6 42.316406 L 41.722656 42.316406 C 42.628906 42.316406 43.433594 41.742188 43.726562 40.886719 C 44.019531 40.03125 43.734375 39.085938 43.023438 38.53125 L 7.300781 10.746094 C 6.90625 10.441406 6.417969 10.28125 5.917969 10.300781 Z M 5.929688 10.582031 C 6.363281 10.566406 6.785156 10.703125 7.128906 10.96875 L 42.851562 38.75 C 43.46875 39.234375 43.714844 40.054688 43.457031 40.792969 C 43.203125 41.535156 42.507812 42.035156 41.722656 42.035156 L 6 42.035156 C 4.988281 42.035156 4.167969 41.214844 4.167969 40.199219 L 4.167969 12.414062 C 4.167969 11.429688 4.945312 10.621094 5.929688 10.582031 Z M 7.972656 16.3125 C 7.894531 16.316406 7.835938 16.378906 7.835938 16.453125 L 7.835938 38.222656 C 7.835938 38.300781 7.898438 38.363281 7.976562 38.363281 L 35.96875 38.363281 C 36.027344 38.363281 36.082031 38.328125 36.101562 38.269531 C 36.121094 38.214844 36.101562 38.152344 36.054688 38.113281 L 8.0625 16.34375 C 8.039062 16.324219 8.003906 16.3125 7.972656 16.3125 Z M 8.117188 16.742188 L 35.558594 38.082031 L 8.117188 38.082031 Z M 8.117188 16.742188 "/>
</g>
</svg>
