<?xml version="1.0" encoding="UTF-8"?>
<svg xmlns="http://www.w3.org/2000/svg" xmlns:xlink="http://www.w3.org/1999/xlink" width="48pt" height="48pt" viewBox="0 0 48 48" version="1.1">
<defs>
<linearGradient id="linear0" gradientUnits="userSpaceOnUse" x1="254" y1="233.5" x2="254" y2="254.666672" gradientTransform="matrix(0.093759,0,0,0.093759,-0.00000572259,20.158178)">
<stop offset="0" style="stop-color:rgb(0%,0%,0%);stop-opacity:0.27451;"/>
<stop offset="1" style="stop-color:rgb(0%,0%,0%);stop-opacity:0;"/>
</linearGradient>
<radialGradient id="radial0" gradientUnits="userSpaceOnUse" cx="450.908936" cy="189.579361" fx="450.908936" fy="189.579361" r="21.166656" gradientTransform="matrix(0.000000261256,-0.117199,-0.210958,-0.000000152308,81.172819,95.392999)">
<stop offset="0" style="stop-color:rgb(0%,0%,0%);stop-opacity:0.313725;"/>
<stop offset="0.222222" style="stop-color:rgb(0%,0%,0%);stop-opacity:0.27451;"/>
<stop offset="1" style="stop-color:rgb(0%,0%,0%);stop-opacity:0;"/>
</radialGradient>
<radialGradient id="radial1" gradientUnits="userSpaceOnUse" cx="450.908936" cy="189.579361" fx="450.908936" fy="189.579361" r="21.166656" gradientTransform="matrix(-0.000000261256,0.117199,0.210958,0.000000152308,-33.543267,-11.291218)">
<stop offset="0" style="stop-color:rgb(0%,0%,0%);stop-opacity:0.313725;"/>
<stop offset="0.222222" style="stop-color:rgb(0%,0%,0%);stop-opacity:0.27451;"/>
<stop offset="1" style="stop-color:rgb(0%,0%,0%);stop-opacity:0;"/>
</radialGradient>
<radialGradient id="radial2" gradientUnits="userSpaceOnUse" cx="450.908936" cy="189.579361" fx="450.908936" fy="189.579361" r="21.166656" gradientTransform="matrix(-0.000000261256,-0.117199,0.210958,-0.000000152308,-33.543267,95.392999)">
<stop offset="0" style="stop-color:rgb(0%,0%,0%);stop-opacity:0.313725;"/>
<stop offset="0.222222" style="stop-color:rgb(0%,0%,0%);stop-opacity:0.27451;"/>
<stop offset="1" style="stop-color:rgb(0%,0%,0%);stop-opacity:0;"/>
</radialGradient>
<radialGradient id="radial3" gradientUnits="userSpaceOnUse" cx="450.908936" cy="189.579361" fx="450.908936" fy="189.579361" r="21.166656" gradientTransform="matrix(0.000000261256,0.117199,-0.210958,0.000000152308,81.172816,-11.291219)">
<stop offset="0" style="stop-color:rgb(0%,0%,0%);stop-opacity:0.313725;"/>
<stop offset="0.222222" style="stop-color:rgb(0%,0%,0%);stop-opacity:0.27451;"/>
<stop offset="1" style="stop-color:rgb(0%,0%,0%);stop-opacity:0;"/>
</radialGradient>
<linearGradient id="linear1" gradientUnits="userSpaceOnUse" x1="306.916656" y1="-25.791676" x2="305.954559" y2="-141.414581" gradientTransform="matrix(0.113024,0,0,0.326118,-8.78102,50.462022)">
<stop offset="0" style="stop-color:rgb(21.568627%,27.843137%,30.980392%);stop-opacity:1;"/>
<stop offset="1" style="stop-color:rgb(27.058824%,35.294118%,39.215686%);stop-opacity:1;"/>
</linearGradient>
<filter id="alpha" filterUnits="objectBoundingBox" x="0%" y="0%" width="100%" height="100%">
  <feColorMatrix type="matrix" in="SourceGraphic" values="0 0 0 0 1 0 0 0 0 1 0 0 0 0 1 0 0 0 1 0"/>
</filter>
<mask id="mask0">
  <g filter="url(#alpha)">
<rect x="0" y="0" width="48" height="48" style="fill:rgb(0%,0%,0%);fill-opacity:0.988235;stroke:none;"/>
  </g>
</mask>
<linearGradient id="linear2" gradientUnits="userSpaceOnUse" x1="1040" y1="315.117218" x2="1040" y2="1355.117188" gradientTransform="matrix(0.0248071,0,0,0.0248071,0,2.480728)">
<stop offset="0" style="stop-color:rgb(87.843137%,87.843137%,87.843137%);stop-opacity:1;"/>
<stop offset="1" style="stop-color:rgb(61.960784%,61.960784%,61.960784%);stop-opacity:1;"/>
</linearGradient>
<clipPath id="clip1">
  <rect x="0" y="0" width="48" height="48"/>
</clipPath>
<g id="surface5" clip-path="url(#clip1)">
<path style=" stroke:none;fill-rule:nonzero;fill:url(#linear2);" d="M 5.953125 10.296875 C 5.679688 10.296875 5.457031 10.519531 5.457031 10.792969 C 5.457031 11.070312 5.679688 11.289062 5.953125 11.289062 C 6.230469 11.289062 6.449219 11.070312 6.449219 10.792969 C 6.449219 10.519531 6.230469 10.296875 5.953125 10.296875 Z M 11.90625 10.296875 C 11.632812 10.296875 11.410156 10.519531 11.410156 10.792969 C 11.410156 11.070312 11.632812 11.289062 11.90625 11.289062 C 12.183594 11.289062 12.402344 11.070312 12.402344 10.792969 C 12.402344 10.519531 12.183594 10.296875 11.90625 10.296875 Z M 17.859375 10.296875 C 17.585938 10.296875 17.363281 10.519531 17.363281 10.792969 C 17.363281 11.070312 17.585938 11.289062 17.859375 11.289062 C 18.136719 11.289062 18.355469 11.070312 18.355469 10.792969 C 18.355469 10.519531 18.136719 10.296875 17.859375 10.296875 Z M 23.816406 10.296875 C 23.539062 10.296875 23.320312 10.519531 23.320312 10.792969 C 23.320312 11.070312 23.539062 11.289062 23.816406 11.289062 C 24.089844 11.289062 24.3125 11.070312 24.3125 10.792969 C 24.3125 10.519531 24.089844 10.296875 23.816406 10.296875 Z M 29.769531 10.296875 C 29.492188 10.296875 29.273438 10.519531 29.273438 10.792969 C 29.273438 11.070312 29.492188 11.289062 29.769531 11.289062 C 30.042969 11.289062 30.265625 11.070312 30.265625 10.792969 C 30.265625 10.519531 30.042969 10.296875 29.769531 10.296875 Z M 35.722656 10.296875 C 35.449219 10.296875 35.226562 10.519531 35.226562 10.792969 C 35.226562 11.070312 35.449219 11.289062 35.722656 11.289062 C 35.996094 11.289062 36.21875 11.070312 36.21875 10.792969 C 36.21875 10.519531 35.996094 10.296875 35.722656 10.296875 Z M 41.675781 10.296875 C 41.402344 10.296875 41.179688 10.519531 41.179688 10.792969 C 41.179688 11.070312 41.402344 11.289062 41.675781 11.289062 C 41.949219 11.289062 42.171875 11.070312 42.171875 10.792969 C 42.171875 10.519531 41.949219 10.296875 41.675781 10.296875 Z M 5.953125 15.257812 C 5.679688 15.257812 5.457031 15.480469 5.457031 15.753906 C 5.457031 16.03125 5.679688 16.25 5.953125 16.25 C 6.230469 16.25 6.449219 16.03125 6.449219 15.753906 C 6.449219 15.480469 6.230469 15.257812 5.953125 15.257812 Z M 11.90625 15.257812 C 11.632812 15.257812 11.410156 15.480469 11.410156 15.753906 C 11.410156 16.03125 11.632812 16.25 11.90625 16.25 C 12.183594 16.25 12.402344 16.03125 12.402344 15.753906 C 12.402344 15.480469 12.183594 15.257812 11.90625 15.257812 Z M 17.859375 15.257812 C 17.585938 15.257812 17.363281 15.480469 17.363281 15.753906 C 17.363281 16.03125 17.585938 16.25 17.859375 16.25 C 18.136719 16.25 18.355469 16.03125 18.355469 15.753906 C 18.355469 15.480469 18.136719 15.257812 17.859375 15.257812 Z M 23.816406 15.257812 C 23.539062 15.257812 23.320312 15.480469 23.320312 15.753906 C 23.320312 16.03125 23.539062 16.25 23.816406 16.25 C 24.089844 16.25 24.3125 16.03125 24.3125 15.753906 C 24.3125 15.480469 24.089844 15.257812 23.816406 15.257812 Z M 29.769531 15.257812 C 29.492188 15.257812 29.273438 15.480469 29.273438 15.753906 C 29.273438 16.03125 29.492188 16.25 29.769531 16.25 C 30.042969 16.25 30.265625 16.03125 30.265625 15.753906 C 30.265625 15.480469 30.042969 15.257812 29.769531 15.257812 Z M 35.722656 15.257812 C 35.449219 15.257812 35.226562 15.480469 35.226562 15.753906 C 35.226562 16.03125 35.449219 16.25 35.722656 16.25 C 35.996094 16.25 36.21875 16.03125 36.21875 15.753906 C 36.21875 15.480469 35.996094 15.257812 35.722656 15.257812 Z M 41.675781 15.257812 C 41.402344 15.257812 41.179688 15.480469 41.179688 15.753906 C 41.179688 16.03125 41.402344 16.25 41.675781 16.25 C 41.949219 16.25 42.171875 16.03125 42.171875 15.753906 C 42.171875 15.480469 41.949219 15.257812 41.675781 15.257812 Z M 5.953125 20.21875 C 5.679688 20.21875 5.457031 20.441406 5.457031 20.71875 C 5.457031 20.992188 5.679688 21.214844 5.953125 21.214844 C 6.230469 21.214844 6.449219 20.992188 6.449219 20.71875 C 6.449219 20.441406 6.230469 20.21875 5.953125 20.21875 Z M 11.90625 20.21875 C 11.632812 20.21875 11.410156 20.441406 11.410156 20.71875 C 11.410156 20.992188 11.632812 21.214844 11.90625 21.214844 C 12.183594 21.214844 12.402344 20.992188 12.402344 20.71875 C 12.402344 20.441406 12.183594 20.21875 11.90625 20.21875 Z M 17.859375 20.21875 C 17.585938 20.21875 17.363281 20.441406 17.363281 20.71875 C 17.363281 20.992188 17.585938 21.214844 17.859375 21.214844 C 18.136719 21.214844 18.355469 20.992188 18.355469 20.71875 C 18.355469 20.441406 18.136719 20.21875 17.859375 20.21875 Z M 23.816406 20.21875 C 23.539062 20.21875 23.320312 20.441406 23.320312 20.71875 C 23.320312 20.992188 23.539062 21.214844 23.816406 21.214844 C 24.089844 21.214844 24.3125 20.992188 24.3125 20.71875 C 24.3125 20.441406 24.089844 20.21875 23.816406 20.21875 Z M 29.769531 20.21875 C 29.492188 20.21875 29.273438 20.441406 29.273438 20.71875 C 29.273438 20.992188 29.492188 21.214844 29.769531 21.214844 C 30.042969 21.214844 30.265625 20.992188 30.265625 20.71875 C 30.265625 20.441406 30.042969 20.21875 29.769531 20.21875 Z M 35.722656 20.21875 C 35.449219 20.21875 35.226562 20.441406 35.226562 20.71875 C 35.226562 20.992188 35.449219 21.214844 35.722656 21.214844 C 35.996094 21.214844 36.21875 20.992188 36.21875 20.71875 C 36.21875 20.441406 35.996094 20.21875 35.722656 20.21875 Z M 41.675781 20.21875 C 41.402344 20.21875 41.179688 20.441406 41.179688 20.71875 C 41.179688 20.992188 41.402344 21.214844 41.675781 21.214844 C 41.949219 21.214844 42.171875 20.992188 42.171875 20.71875 C 42.171875 20.441406 41.949219 20.21875 41.675781 20.21875 Z M 5.953125 25.183594 C 5.695312 25.183594 5.484375 25.375 5.460938 25.628906 C 5.460938 25.636719 5.457031 25.644531 5.457031 25.652344 C 5.457031 25.660156 5.457031 25.667969 5.457031 25.679688 C 5.457031 25.953125 5.679688 26.175781 5.953125 26.175781 C 6.230469 26.175781 6.449219 25.953125 6.449219 25.679688 C 6.449219 25.402344 6.230469 25.183594 5.953125 25.183594 Z M 11.90625 25.183594 C 11.898438 25.183594 11.890625 25.183594 11.882812 25.183594 C 11.636719 25.195312 11.4375 25.386719 11.414062 25.628906 C 11.414062 25.636719 11.414062 25.644531 11.410156 25.652344 C 11.410156 25.660156 11.410156 25.667969 11.410156 25.679688 C 11.410156 25.953125 11.632812 26.175781 11.90625 26.175781 C 12.183594 26.175781 12.402344 25.953125 12.402344 25.679688 C 12.402344 25.667969 12.402344 25.660156 12.402344 25.652344 C 12.390625 25.390625 12.171875 25.183594 11.90625 25.183594 Z M 17.859375 25.183594 C 17.851562 25.183594 17.84375 25.183594 17.835938 25.183594 C 17.589844 25.195312 17.390625 25.386719 17.367188 25.628906 C 17.367188 25.636719 17.367188 25.644531 17.367188 25.652344 C 17.363281 25.660156 17.363281 25.667969 17.363281 25.679688 C 17.363281 25.953125 17.585938 26.175781 17.859375 26.175781 C 18.136719 26.175781 18.355469 25.953125 18.355469 25.679688 C 18.355469 25.667969 18.355469 25.660156 18.355469 25.652344 C 18.34375 25.390625 18.128906 25.183594 17.859375 25.183594 Z M 23.816406 25.183594 C 23.804688 25.183594 23.796875 25.183594 23.789062 25.183594 C 23.542969 25.195312 23.34375 25.386719 23.320312 25.628906 C 23.320312 25.636719 23.320312 25.644531 23.320312 25.652344 C 23.320312 25.660156 23.320312 25.667969 23.320312 25.679688 C 23.320312 25.953125 23.539062 26.175781 23.816406 26.175781 C 24.089844 26.175781 24.3125 25.953125 24.3125 25.679688 C 24.3125 25.667969 24.3125 25.660156 24.308594 25.652344 C 24.296875 25.390625 24.082031 25.183594 23.816406 25.183594 Z M 29.769531 25.183594 C 29.761719 25.183594 29.75 25.183594 29.742188 25.183594 C 29.496094 25.195312 29.300781 25.386719 29.273438 25.628906 C 29.273438 25.636719 29.273438 25.644531 29.273438 25.652344 C 29.273438 25.660156 29.273438 25.667969 29.273438 25.679688 C 29.273438 25.953125 29.492188 26.175781 29.769531 26.175781 C 30.042969 26.175781 30.265625 25.953125 30.265625 25.679688 C 30.265625 25.667969 30.265625 25.660156 30.265625 25.652344 C 30.25 25.390625 30.035156 25.183594 29.769531 25.183594 Z M 35.722656 25.183594 C 35.714844 25.183594 35.703125 25.183594 35.695312 25.183594 C 35.449219 25.195312 35.253906 25.386719 35.230469 25.628906 C 35.226562 25.636719 35.226562 25.644531 35.226562 25.652344 C 35.226562 25.660156 35.226562 25.667969 35.226562 25.679688 C 35.226562 25.953125 35.449219 26.175781 35.722656 26.175781 C 35.996094 26.175781 36.21875 25.953125 36.21875 25.679688 C 36.21875 25.667969 36.21875 25.660156 36.21875 25.652344 C 36.203125 25.390625 35.988281 25.183594 35.722656 25.183594 Z M 41.675781 25.183594 C 41.667969 25.183594 41.660156 25.183594 41.648438 25.183594 C 41.40625 25.195312 41.207031 25.386719 41.183594 25.628906 C 41.179688 25.636719 41.179688 25.644531 41.179688 25.652344 C 41.179688 25.660156 41.179688 25.667969 41.179688 25.679688 C 41.179688 25.953125 41.402344 26.175781 41.675781 26.175781 C 41.949219 26.175781 42.171875 25.953125 42.171875 25.679688 C 42.171875 25.667969 42.171875 25.660156 42.171875 25.652344 C 42.15625 25.390625 41.941406 25.183594 41.675781 25.183594 Z M 5.953125 30.144531 C 5.679688 30.144531 5.457031 30.363281 5.457031 30.640625 C 5.457031 30.914062 5.679688 31.136719 5.953125 31.136719 C 6.230469 31.136719 6.449219 30.914062 6.449219 30.640625 C 6.449219 30.363281 6.230469 30.144531 5.953125 30.144531 Z M 11.90625 30.144531 C 11.632812 30.144531 11.410156 30.363281 11.410156 30.640625 C 11.410156 30.914062 11.632812 31.136719 11.90625 31.136719 C 12.183594 31.136719 12.402344 30.914062 12.402344 30.640625 C 12.402344 30.363281 12.183594 30.144531 11.90625 30.144531 Z M 17.859375 30.144531 C 17.585938 30.144531 17.363281 30.363281 17.363281 30.640625 C 17.363281 30.914062 17.585938 31.136719 17.859375 31.136719 C 18.136719 31.136719 18.355469 30.914062 18.355469 30.640625 C 18.355469 30.363281 18.136719 30.144531 17.859375 30.144531 Z M 23.816406 30.144531 C 23.539062 30.144531 23.320312 30.363281 23.320312 30.640625 C 23.320312 30.914062 23.539062 31.136719 23.816406 31.136719 C 24.089844 31.136719 24.3125 30.914062 24.3125 30.640625 C 24.3125 30.363281 24.089844 30.144531 23.816406 30.144531 Z M 29.769531 30.144531 C 29.492188 30.144531 29.273438 30.363281 29.273438 30.640625 C 29.273438 30.914062 29.492188 31.136719 29.769531 31.136719 C 30.042969 31.136719 30.265625 30.914062 30.265625 30.640625 C 30.265625 30.363281 30.042969 30.144531 29.769531 30.144531 Z M 35.722656 30.144531 C 35.449219 30.144531 35.226562 30.363281 35.226562 30.640625 C 35.226562 30.914062 35.449219 31.136719 35.722656 31.136719 C 35.996094 31.136719 36.21875 30.914062 36.21875 30.640625 C 36.21875 30.363281 35.996094 30.144531 35.722656 30.144531 Z M 41.675781 30.144531 C 41.402344 30.144531 41.179688 30.363281 41.179688 30.640625 C 41.179688 30.914062 41.402344 31.136719 41.675781 31.136719 C 41.949219 31.136719 42.171875 30.914062 42.171875 30.640625 C 42.171875 30.363281 41.949219 30.144531 41.675781 30.144531 Z M 5.953125 35.105469 C 5.679688 35.105469 5.457031 35.328125 5.457031 35.601562 C 5.457031 35.875 5.679688 36.097656 5.953125 36.097656 C 6.230469 36.097656 6.449219 35.875 6.449219 35.601562 C 6.449219 35.328125 6.230469 35.105469 5.953125 35.105469 Z M 11.90625 35.105469 C 11.632812 35.105469 11.410156 35.328125 11.410156 35.601562 C 11.410156 35.875 11.632812 36.097656 11.90625 36.097656 C 12.183594 36.097656 12.402344 35.875 12.402344 35.601562 C 12.402344 35.328125 12.183594 35.105469 11.90625 35.105469 Z M 17.859375 35.105469 C 17.585938 35.105469 17.363281 35.328125 17.363281 35.601562 C 17.363281 35.875 17.585938 36.097656 17.859375 36.097656 C 18.136719 36.097656 18.355469 35.875 18.355469 35.601562 C 18.355469 35.328125 18.136719 35.105469 17.859375 35.105469 Z M 23.816406 35.105469 C 23.539062 35.105469 23.320312 35.328125 23.320312 35.601562 C 23.320312 35.875 23.539062 36.097656 23.816406 36.097656 C 24.089844 36.097656 24.3125 35.875 24.3125 35.601562 C 24.3125 35.328125 24.089844 35.105469 23.816406 35.105469 Z M 29.769531 35.105469 C 29.492188 35.105469 29.273438 35.328125 29.273438 35.601562 C 29.273438 35.875 29.492188 36.097656 29.769531 36.097656 C 30.042969 36.097656 30.265625 35.875 30.265625 35.601562 C 30.265625 35.328125 30.042969 35.105469 29.769531 35.105469 Z M 35.722656 35.105469 C 35.449219 35.105469 35.226562 35.328125 35.226562 35.601562 C 35.226562 35.875 35.449219 36.097656 35.722656 36.097656 C 35.996094 36.097656 36.21875 35.875 36.21875 35.601562 C 36.21875 35.328125 35.996094 35.105469 35.722656 35.105469 Z M 41.675781 35.105469 C 41.402344 35.105469 41.179688 35.328125 41.179688 35.601562 C 41.179688 35.875 41.402344 36.097656 41.675781 36.097656 C 41.949219 36.097656 42.171875 35.875 42.171875 35.601562 C 42.171875 35.328125 41.949219 35.105469 41.675781 35.105469 Z M 41.675781 35.105469 "/>
</g>
<mask id="mask1">
  <g filter="url(#alpha)">
<rect x="0" y="0" width="48" height="48" style="fill:rgb(0%,0%,0%);fill-opacity:0.988235;stroke:none;"/>
  </g>
</mask>
<linearGradient id="linear3" gradientUnits="userSpaceOnUse" x1="164.041672" y1="-46.958332" x2="164.041672" y2="-99.875" gradientTransform="matrix(0.093759,0,0,0.093759,0,20.158175)">
<stop offset="0" style="stop-color:rgb(100%,43.921569%,26.27451%);stop-opacity:1;"/>
<stop offset="1" style="stop-color:rgb(100%,54.117647%,39.607843%);stop-opacity:1;"/>
</linearGradient>
<clipPath id="clip2">
  <rect x="0" y="0" width="48" height="48"/>
</clipPath>
<g id="surface8" clip-path="url(#clip2)">
<path style=" stroke:none;fill-rule:nonzero;fill:url(#linear3);" d="M 5.953125 10.296875 L 17.859375 10.296875 C 18.136719 10.296875 18.355469 10.519531 18.355469 10.792969 L 18.355469 15.753906 C 18.355469 16.03125 18.136719 16.25 17.859375 16.25 L 5.953125 16.25 C 5.679688 16.25 5.457031 16.03125 5.457031 15.753906 L 5.457031 10.792969 C 5.457031 10.519531 5.679688 10.296875 5.953125 10.296875 Z M 5.953125 10.296875 "/>
</g>
<mask id="mask2">
  <g filter="url(#alpha)">
<rect x="0" y="0" width="48" height="48" style="fill:rgb(0%,0%,0%);fill-opacity:0.988235;stroke:none;"/>
  </g>
</mask>
<linearGradient id="linear4" gradientUnits="userSpaceOnUse" x1="190.5" y1="58.875" x2="190.5" y2="5.958333" gradientTransform="matrix(0.093759,0,0,0.093759,0,20.158175)">
<stop offset="0" style="stop-color:rgb(25.882353%,64.705882%,96.078431%);stop-opacity:1;"/>
<stop offset="1" style="stop-color:rgb(39.215686%,70.980392%,96.470588%);stop-opacity:1;"/>
</linearGradient>
<clipPath id="clip3">
  <rect x="0" y="0" width="48" height="48"/>
</clipPath>
<g id="surface11" clip-path="url(#clip3)">
<path style=" stroke:none;fill-rule:nonzero;fill:url(#linear4);" d="M 5.953125 20.21875 L 23.816406 20.21875 C 24.089844 20.21875 24.3125 20.441406 24.3125 20.71875 L 24.3125 25.679688 C 24.3125 25.953125 24.089844 26.175781 23.816406 26.175781 L 5.953125 26.175781 C 5.679688 26.175781 5.457031 25.953125 5.457031 25.679688 L 5.457031 20.71875 C 5.457031 20.441406 5.679688 20.21875 5.953125 20.21875 Z M 5.953125 20.21875 "/>
</g>
<mask id="mask3">
  <g filter="url(#alpha)">
<rect x="0" y="0" width="48" height="48" style="fill:rgb(0%,0%,0%);fill-opacity:0.988235;stroke:none;"/>
  </g>
</mask>
<linearGradient id="linear5" gradientUnits="userSpaceOnUse" x1="100.541656" y1="164.708328" x2="100.541656" y2="111.791656" gradientTransform="matrix(0.093759,0,0,0.093759,0,20.158175)">
<stop offset="0" style="stop-color:rgb(49.411765%,34.117647%,76.078431%);stop-opacity:1;"/>
<stop offset="1" style="stop-color:rgb(58.431373%,45.882353%,80.392157%);stop-opacity:1;"/>
</linearGradient>
<clipPath id="clip4">
  <rect x="0" y="0" width="48" height="48"/>
</clipPath>
<g id="surface14" clip-path="url(#clip4)">
<path style=" stroke:none;fill-rule:nonzero;fill:url(#linear5);" d="M 5.953125 30.144531 L 11.90625 30.144531 C 12.179688 30.144531 12.402344 30.367188 12.402344 30.640625 L 12.402344 35.601562 C 12.402344 35.875 12.179688 36.097656 11.90625 36.097656 L 5.953125 36.097656 C 5.679688 36.097656 5.457031 35.875 5.457031 35.601562 L 5.457031 30.640625 C 5.457031 30.367188 5.679688 30.144531 5.953125 30.144531 Z M 5.953125 30.144531 "/>
</g>
<mask id="mask4">
  <g filter="url(#alpha)">
<rect x="0" y="0" width="48" height="48" style="fill:rgb(0%,0%,0%);fill-opacity:0.988235;stroke:none;"/>
  </g>
</mask>
<linearGradient id="linear6" gradientUnits="userSpaceOnUse" x1="412.75" y1="159.416672" x2="412.75" y2="-94.583336" gradientTransform="matrix(0.093759,0,0,0.093759,0,20.158175)">
<stop offset="0" style="stop-color:rgb(100%,93.333333%,34.509804%);stop-opacity:1;"/>
<stop offset="1" style="stop-color:rgb(100%,94.509804%,46.27451%);stop-opacity:1;"/>
</linearGradient>
<clipPath id="clip5">
  <rect x="0" y="0" width="48" height="48"/>
</clipPath>
<g id="surface17" clip-path="url(#clip5)">
<path style=" stroke:none;fill-rule:nonzero;fill:url(#linear6);" d="M 35.722656 10.296875 L 41.675781 10.296875 C 41.949219 10.296875 42.171875 10.519531 42.171875 10.792969 L 42.171875 35.601562 C 42.171875 35.875 41.949219 36.097656 41.675781 36.097656 L 35.722656 36.097656 C 35.449219 36.097656 35.226562 35.875 35.226562 35.601562 L 35.226562 10.792969 C 35.226562 10.519531 35.449219 10.296875 35.722656 10.296875 Z M 35.722656 10.296875 "/>
</g>
</defs>
<g id="surface1">
<path style=" stroke:none;fill-rule:nonzero;fill:url(#linear0);" d="M 5.953125 42.050781 L 41.675781 42.050781 L 41.675781 44.035156 L 5.953125 44.035156 Z M 5.953125 42.050781 "/>
<path style=" stroke:none;fill-rule:nonzero;fill:url(#radial0);" d="M 41.675781 42.050781 L 45.644531 42.050781 L 45.644531 40.066406 L 41.675781 40.066406 Z M 41.675781 42.050781 "/>
<path style=" stroke:none;fill-rule:nonzero;fill:url(#radial1);" d="M 5.953125 42.050781 L 1.984375 42.050781 L 1.984375 44.035156 L 5.953125 44.035156 Z M 5.953125 42.050781 "/>
<path style=" stroke:none;fill-rule:nonzero;fill:url(#radial2);" d="M 5.953125 42.050781 L 1.984375 42.050781 L 1.984375 40.066406 L 5.953125 40.066406 Z M 5.953125 42.050781 "/>
<path style=" stroke:none;fill-rule:nonzero;fill:url(#radial3);" d="M 41.675781 42.050781 L 45.644531 42.050781 L 45.644531 44.035156 L 41.675781 44.035156 Z M 41.675781 42.050781 "/>
<path style=" stroke:none;fill-rule:nonzero;fill:url(#linear1);" d="M 2.976562 4.34375 L 44.652344 4.34375 C 45.75 4.34375 46.636719 5.234375 46.636719 6.328125 L 46.636719 40.066406 C 46.636719 41.164062 45.75 42.050781 44.652344 42.050781 L 2.976562 42.050781 C 1.878906 42.050781 0.992188 41.164062 0.992188 40.066406 L 0.992188 6.328125 C 0.992188 5.234375 1.878906 4.34375 2.976562 4.34375 Z M 2.976562 4.34375 "/>
<use xlink:href="#surface5" mask="url(#mask0)"/>
<path style=" stroke:none;fill-rule:nonzero;fill:rgb(0%,0%,0%);fill-opacity:0.196078;" d="M 2.976562 42.050781 C 1.878906 42.050781 0.992188 41.164062 0.992188 40.066406 L 0.992188 39.816406 C 0.992188 40.917969 1.878906 41.804688 2.976562 41.804688 L 44.652344 41.804688 C 45.753906 41.804688 46.636719 40.917969 46.636719 39.816406 L 46.636719 40.066406 C 46.636719 41.164062 45.753906 42.050781 44.652344 42.050781 Z M 2.976562 42.050781 "/>
<path style=" stroke:none;fill-rule:nonzero;fill:rgb(90.196079%,90.196079%,90.196079%);fill-opacity:0.937255;" d="M 2.976562 4.34375 C 1.878906 4.34375 0.992188 5.230469 0.992188 6.328125 L 0.992188 6.578125 C 0.992188 5.476562 1.878906 4.589844 2.976562 4.59375 L 44.652344 4.59375 C 45.753906 4.589844 46.636719 5.476562 46.636719 6.578125 L 46.636719 6.328125 C 46.636719 5.230469 45.753906 4.34375 44.652344 4.34375 Z M 2.976562 4.34375 "/>
<path style=" stroke:none;fill-rule:nonzero;fill:rgb(12.941177%,12.941177%,12.941177%);fill-opacity:1;" d="M 2.976562 4.203125 C 1.800781 4.203125 0.851562 5.152344 0.851562 6.328125 L 0.851562 40.066406 C 0.851562 41.242188 1.800781 42.191406 2.976562 42.191406 L 44.652344 42.191406 C 45.828125 42.191406 46.777344 41.242188 46.777344 40.066406 L 46.777344 6.328125 C 46.777344 5.152344 45.828125 4.203125 44.652344 4.203125 Z M 2.976562 4.484375 L 44.652344 4.484375 C 45.675781 4.484375 46.496094 5.304688 46.496094 6.328125 L 46.496094 40.066406 C 46.496094 41.089844 45.675781 41.910156 44.652344 41.910156 L 2.976562 41.910156 C 1.953125 41.910156 1.132812 41.089844 1.132812 40.066406 L 1.132812 6.328125 C 1.132812 5.304688 1.953125 4.484375 2.976562 4.484375 Z M 2.976562 4.484375 "/>
<use xlink:href="#surface8" mask="url(#mask1)"/>
<use xlink:href="#surface11" mask="url(#mask2)"/>
<use xlink:href="#surface14" mask="url(#mask3)"/>
<use xlink:href="#surface17" mask="url(#mask4)"/>
</g>
</svg>
