<svg height="48" viewBox="0 0 48 48" width="48" xmlns="http://www.w3.org/2000/svg" xmlns:xlink="http://www.w3.org/1999/xlink"><linearGradient id="a" gradientTransform="matrix(.150014 0 0 .093759 -14.288878 18.173611)" gradientUnits="userSpaceOnUse" x1="254" x2="254" y1="233.5" y2="254.666672"><stop offset="0" stop-opacity=".27451"/><stop offset="1" stop-opacity="0"/></linearGradient><linearGradient id="b"><stop offset="0" stop-opacity=".313726"/><stop offset=".222222" stop-opacity=".27451"/><stop offset="1" stop-opacity="0"/></linearGradient><radialGradient id="c" cx="450.908936" cy="189.579361" gradientTransform="matrix(.00000026 -.117199 -.210958 -.00000015 79.188254 93.408432)" gradientUnits="userSpaceOnUse" r="21.166656" xlink:href="#b"/><radialGradient id="d" cx="450.908936" cy="189.579361" gradientTransform="matrix(-.00000026 .117199 .210958 .00000015 -31.558712 -13.275785)" gradientUnits="userSpaceOnUse" r="21.166656" xlink:href="#b"/><radialGradient id="e" cx="450.908936" cy="189.579361" gradientTransform="matrix(-.00000026 -.117199 .210958 -.00000015 -31.558712 93.408432)" gradientUnits="userSpaceOnUse" r="21.166656" xlink:href="#b"/><radialGradient id="f" cx="450.908936" cy="189.579361" gradientTransform="matrix(.00000026 .117199 -.210958 .00000015 79.188251 -13.275785)" gradientUnits="userSpaceOnUse" r="21.166656" xlink:href="#b"/><linearGradient id="g" gradientUnits="userSpaceOnUse" x1="23.814786" x2="23.814786" y1="40.06633549995" y2="6.3287225"><stop offset="0" stop-color="#616161"/><stop offset="1" stop-color="#757575"/></linearGradient><linearGradient id="h" gradientTransform="matrix(.944444 0 0 1.071429 3.527778 -13.654765)" gradientUnits="userSpaceOnUse" x1="254" x2="254" y1="191.166672" y2="-105.166656"><stop offset="0" stop-color="#424242"/><stop offset="1" stop-color="#616161"/></linearGradient><path d="m7.9375 40.066406h31.753906v1.984375h-31.753906zm0 0" fill="url(#a)"/><path d="m39.691406 40.066406h3.96875v-1.984375h-3.96875zm0 0" fill="url(#c)"/><path d="m7.9375 40.066406h-3.96875v1.984375h3.96875zm0 0" fill="url(#d)"/><path d="m7.9375 40.066406h-3.96875v-1.984375h3.96875zm0 0" fill="url(#e)"/><path d="m39.691406 40.066406h3.96875v1.984375h-3.96875zm0 0" fill="url(#f)"/><path d="m5.953125 6.328125h35.722656c1.097657 0 1.984375.890625 1.984375 1.984375v29.769531c0 1.097657-.886718 1.984375-1.984375 1.984375h-35.722656c-1.09375 0-1.984375-.886718-1.984375-1.984375v-29.769531c0-1.09375.890625-1.984375 1.984375-1.984375zm0 0" fill="url(#g)"/><path d="m83.492027-126.3418h319.844456c11.040613 0 19.998091 10.165696 19.998091 22.706165v272.140679c0 12.498806-8.957478 22.664502-19.998091 22.664502h-319.844456c-11.040612 0-19.99809-10.165696-19.99809-22.664502v-272.140679c0-12.540469 8.957478-22.706165 19.99809-22.706165zm0 0" fill="url(#h)" stroke="#212121" stroke-linecap="round" stroke-linejoin="round" stroke-width="3.017804" transform="matrix(.093759 0 0 .093759 0 20.158175)"/><path d="m444.499219 21.852382c5.832776 0 10.582323 4.291257 10.582323 9.624081v1.916483c0 5.291162-4.749547 9.624081-10.582323 9.624081s-10.582323-4.332919-10.582323-9.624081v-1.916483c0-5.332824 4.749547-9.624081 10.582323-9.624081zm0 0" fill="none" stroke="#212121" stroke-linecap="round" stroke-linejoin="round" stroke-width="3" transform="matrix(.093759 0 0 .093759 0 20.158175)"/><path d="m5.953125 6.328125c-1.097656 0-1.984375.886719-1.984375 1.984375v.496094c0-1.097656.886719-1.984375 1.984375-1.984375h35.722656c1.097657 0 1.984375.886719 1.984375 1.984375v-.496094c0-1.097656-.886718-1.984375-1.984375-1.984375zm0 0" fill="#fff" fill-opacity=".392157"/><path d="m5.953125 40.066406c-1.097656 0-1.984375-.886718-1.984375-1.984375v-.496093c0 1.097656.886719 1.984374 1.984375 1.984374h35.722656c1.097657 0 1.984375-.886718 1.984375-1.984374v.496093c0 1.097657-.886718 1.984375-1.984375 1.984375zm0 0" fill-opacity=".235294"/><path d="m5.953125 6.1875c-1.175781 0-2.125.949219-2.125 2.125v29.769531c0 1.175781.949219 2.125 2.125 2.125h35.722656c1.175781 0 2.125-.949219 2.125-2.125v-29.769531c0-1.175781-.949219-2.125-2.125-2.125zm0 .28125h35.722656c1.023438 0 1.84375.820312 1.84375 1.84375v29.769531c0 1.023438-.820312 1.84375-1.84375 1.84375h-35.722656c-1.023437 0-1.84375-.820312-1.84375-1.84375v-29.769531c0-1.023438.820313-1.84375 1.84375-1.84375zm0 0" fill="#212121"/><g fill="none" stroke="#212121" stroke-linecap="round" stroke-linejoin="round" stroke-width="3" transform="matrix(.093759 0 0 .093759 0 20.158175)"><path d="m444.499219-31.100895c5.832776 0 10.582323 4.33292 10.582323 9.624081v1.916484c0 5.332824-4.749547 9.624081-10.582323 9.624081s-10.582323-4.291257-10.582323-9.624081v-1.916484c0-5.291161 4.749547-9.624081 10.582323-9.624081zm0 0"/><path d="m444.499219 74.763996c5.832776 0 10.582323 4.291256 10.582323 9.624081v1.916483c0 5.291162-4.749547 9.624081-10.582323 9.624081s-10.582323-4.332919-10.582323-9.624081v-1.916483c0-5.332825 4.749547-9.624081 10.582323-9.624081zm0 0"/></g></svg>