<?xml version="1.0" encoding="UTF-8"?>
<svg xmlns="http://www.w3.org/2000/svg" xmlns:xlink="http://www.w3.org/1999/xlink" width="48pt" height="48pt" viewBox="0 0 48 48" version="1.1">
<defs>
<linearGradient id="linear0" gradientUnits="userSpaceOnUse" x1="254" y1="233.5" x2="254" y2="254.666672" gradientTransform="matrix(0.093759,0,0,0.093759,-0.00000572259,20.158178)">
<stop offset="0" style="stop-color:rgb(0%,0%,0%);stop-opacity:0.27451;"/>
<stop offset="1" style="stop-color:rgb(0%,0%,0%);stop-opacity:0;"/>
</linearGradient>
<radialGradient id="radial0" gradientUnits="userSpaceOnUse" cx="450.908936" cy="189.579361" fx="450.908936" fy="189.579361" r="21.166656" gradientTransform="matrix(0.000000261256,-0.117199,-0.210958,-0.000000152308,75.219128,95.392999)">
<stop offset="0" style="stop-color:rgb(0%,0%,0%);stop-opacity:0.313726;"/>
<stop offset="0.222222" style="stop-color:rgb(0%,0%,0%);stop-opacity:0.27451;"/>
<stop offset="1" style="stop-color:rgb(0%,0%,0%);stop-opacity:0;"/>
</radialGradient>
<radialGradient id="radial1" gradientUnits="userSpaceOnUse" cx="450.908936" cy="189.579361" fx="450.908936" fy="189.579361" r="21.166656" gradientTransform="matrix(-0.000000261256,0.117199,0.210958,0.000000152308,-27.589573,-11.29122)">
<stop offset="0" style="stop-color:rgb(0%,0%,0%);stop-opacity:0.313726;"/>
<stop offset="0.222222" style="stop-color:rgb(0%,0%,0%);stop-opacity:0.27451;"/>
<stop offset="1" style="stop-color:rgb(0%,0%,0%);stop-opacity:0;"/>
</radialGradient>
<radialGradient id="radial2" gradientUnits="userSpaceOnUse" cx="450.908936" cy="189.579361" fx="450.908936" fy="189.579361" r="21.166656" gradientTransform="matrix(-0.000000261256,-0.117199,0.210958,-0.000000152308,-27.589573,95.392999)">
<stop offset="0" style="stop-color:rgb(0%,0%,0%);stop-opacity:0.313726;"/>
<stop offset="0.222222" style="stop-color:rgb(0%,0%,0%);stop-opacity:0.27451;"/>
<stop offset="1" style="stop-color:rgb(0%,0%,0%);stop-opacity:0;"/>
</radialGradient>
<radialGradient id="radial3" gradientUnits="userSpaceOnUse" cx="450.908936" cy="189.579361" fx="450.908936" fy="189.579361" r="21.166656" gradientTransform="matrix(0.000000261256,0.117199,-0.210958,0.000000152308,75.219126,-11.291219)">
<stop offset="0" style="stop-color:rgb(0%,0%,0%);stop-opacity:0.313726;"/>
<stop offset="0.222222" style="stop-color:rgb(0%,0%,0%);stop-opacity:0.27451;"/>
<stop offset="1" style="stop-color:rgb(0%,0%,0%);stop-opacity:0;"/>
</radialGradient>
<linearGradient id="linear1" gradientUnits="userSpaceOnUse" x1="288.395844" y1="-25.791676" x2="288.395844" y2="-141.414581" gradientTransform="matrix(0.113024,0,0,0.326118,-8.78102,50.462022)">
<stop offset="0" style="stop-color:rgb(25.882354%,25.882354%,25.882354%);stop-opacity:1;"/>
<stop offset="1" style="stop-color:rgb(38.039216%,38.039216%,38.039216%);stop-opacity:1;"/>
</linearGradient>
<linearGradient id="linear2" gradientUnits="userSpaceOnUse" x1="285.75" y1="212.333328" x2="285.75" y2="-147.5" gradientTransform="matrix(0.093759,0,0,0.093759,0,20.158175)">
<stop offset="0" style="stop-color:rgb(87.843138%,87.843138%,87.843138%);stop-opacity:1;"/>
<stop offset="1" style="stop-color:rgb(93.333334%,93.333334%,93.333334%);stop-opacity:1;"/>
</linearGradient>
<linearGradient id="linear3" gradientUnits="userSpaceOnUse" x1="174.625" y1="-131.625" x2="174.625" y2="-94.583336" gradientTransform="matrix(1,0,0,1,0,0)">
<stop offset="0" style="stop-color:rgb(25.882354%,25.882354%,25.882354%);stop-opacity:1;"/>
<stop offset="1" style="stop-color:rgb(38.039216%,38.039216%,38.039216%);stop-opacity:1;"/>
</linearGradient>
<linearGradient id="linear4" gradientUnits="userSpaceOnUse" x1="174.625" y1="-131.625" x2="174.625" y2="-94.583336" gradientTransform="matrix(1,0,0,1,0,148.166672)">
<stop offset="0" style="stop-color:rgb(25.882354%,25.882354%,25.882354%);stop-opacity:1;"/>
<stop offset="1" style="stop-color:rgb(38.039216%,38.039216%,38.039216%);stop-opacity:1;"/>
</linearGradient>
<linearGradient id="linear5" gradientUnits="userSpaceOnUse" x1="174.625" y1="-131.625" x2="174.625" y2="-94.583336" gradientTransform="matrix(1,0,0,1,0,296.333344)">
<stop offset="0" style="stop-color:rgb(25.882354%,25.882354%,25.882354%);stop-opacity:1;"/>
<stop offset="1" style="stop-color:rgb(38.039216%,38.039216%,38.039216%);stop-opacity:1;"/>
</linearGradient>
<linearGradient id="linear6" gradientUnits="userSpaceOnUse" x1="174.625" y1="-131.625" x2="174.625" y2="-94.583336" gradientTransform="matrix(1,0,0,1,0,74.083336)">
<stop offset="0" style="stop-color:rgb(25.882354%,25.882354%,25.882354%);stop-opacity:1;"/>
<stop offset="1" style="stop-color:rgb(38.039216%,38.039216%,38.039216%);stop-opacity:1;"/>
</linearGradient>
<linearGradient id="linear7" gradientUnits="userSpaceOnUse" x1="174.625" y1="-131.625" x2="174.625" y2="-94.583336" gradientTransform="matrix(1,0,0,1,0,222.250015)">
<stop offset="0" style="stop-color:rgb(25.882354%,25.882354%,25.882354%);stop-opacity:1;"/>
<stop offset="1" style="stop-color:rgb(38.039216%,38.039216%,38.039216%);stop-opacity:1;"/>
</linearGradient>
<linearGradient id="linear8" gradientUnits="userSpaceOnUse" x1="1400" y1="1615.118164" x2="1400" y2="1335.118164" gradientTransform="matrix(0.0248071,0,0,0.0248071,0,0.00000000000000282)">
<stop offset="0" style="stop-color:rgb(61.960787%,61.960787%,61.960787%);stop-opacity:1;"/>
<stop offset="1" style="stop-color:rgb(87.843138%,87.843138%,87.843138%);stop-opacity:1;"/>
</linearGradient>
<linearGradient id="linear9" gradientUnits="userSpaceOnUse" x1="104.333328" y1="-115.750008" x2="181.416656" y2="-115.750008" gradientTransform="matrix(0.093759,0,0,0.093759,0,20.158175)">
<stop offset="0" style="stop-color:rgb(93.725491%,32.549021%,31.37255%);stop-opacity:1;"/>
<stop offset="1" style="stop-color:rgb(89.803922%,45.09804%,45.09804%);stop-opacity:1;"/>
</linearGradient>
<linearGradient id="linear10" gradientUnits="userSpaceOnUse" x1="104.333328" y1="-115.750008" x2="181.416656" y2="-115.750008" gradientTransform="matrix(0.093759,0,0,0.093759,0,27.104152)">
<stop offset="0" style="stop-color:rgb(93.725491%,32.549021%,31.37255%);stop-opacity:1;"/>
<stop offset="1" style="stop-color:rgb(89.803922%,45.09804%,45.09804%);stop-opacity:1;"/>
</linearGradient>
<linearGradient id="linear11" gradientUnits="userSpaceOnUse" x1="104.333328" y1="-115.750008" x2="181.416656" y2="-115.750008" gradientTransform="matrix(0.093759,0,0,0.093759,0,34.050128)">
<stop offset="0" style="stop-color:rgb(93.725491%,32.549021%,31.37255%);stop-opacity:1;"/>
<stop offset="1" style="stop-color:rgb(89.803922%,45.09804%,45.09804%);stop-opacity:1;"/>
</linearGradient>
<linearGradient id="linear12" gradientUnits="userSpaceOnUse" x1="104.333328" y1="-115.750008" x2="181.416656" y2="-115.750008" gradientTransform="matrix(0.093759,0,0,0.093759,0,40.996103)">
<stop offset="0" style="stop-color:rgb(93.725491%,32.549021%,31.37255%);stop-opacity:1;"/>
<stop offset="1" style="stop-color:rgb(89.803922%,45.09804%,45.09804%);stop-opacity:1;"/>
</linearGradient>
<linearGradient id="linear13" gradientUnits="userSpaceOnUse" x1="104.333328" y1="-115.750008" x2="181.416656" y2="-115.750008" gradientTransform="matrix(0.093759,0,0,0.093759,0,47.942079)">
<stop offset="0" style="stop-color:rgb(93.725491%,32.549021%,31.37255%);stop-opacity:1;"/>
<stop offset="1" style="stop-color:rgb(89.803922%,45.09804%,45.09804%);stop-opacity:1;"/>
</linearGradient>
</defs>
<g id="surface1">
<path style=" stroke:none;fill-rule:nonzero;fill:url(#linear0);" d="M 11.90625 42.050781 L 35.722656 42.050781 L 35.722656 44.035156 L 11.90625 44.035156 Z M 11.90625 42.050781 "/>
<path style=" stroke:none;fill-rule:nonzero;fill:url(#radial0);" d="M 35.722656 42.050781 L 39.691406 42.050781 L 39.691406 40.066406 L 35.722656 40.066406 Z M 35.722656 42.050781 "/>
<path style=" stroke:none;fill-rule:nonzero;fill:url(#radial1);" d="M 11.90625 42.050781 L 7.9375 42.050781 L 7.9375 44.035156 L 11.90625 44.035156 Z M 11.90625 42.050781 "/>
<path style=" stroke:none;fill-rule:nonzero;fill:url(#radial2);" d="M 11.90625 42.050781 L 7.9375 42.050781 L 7.9375 40.066406 L 11.90625 40.066406 Z M 11.90625 42.050781 "/>
<path style=" stroke:none;fill-rule:nonzero;fill:url(#radial3);" d="M 35.722656 42.050781 L 39.691406 42.050781 L 39.691406 44.035156 L 35.722656 44.035156 Z M 35.722656 42.050781 "/>
<path style=" stroke:none;fill-rule:nonzero;fill:url(#linear1);" d="M 9.921875 4.34375 L 37.707031 4.34375 C 38.804688 4.34375 39.691406 5.234375 39.691406 6.328125 L 39.691406 40.066406 C 39.691406 41.164062 38.804688 42.050781 37.707031 42.050781 L 9.921875 42.050781 C 8.828125 42.050781 7.9375 41.164062 7.9375 40.066406 L 7.9375 6.328125 C 7.9375 5.234375 8.828125 4.34375 9.921875 4.34375 Z M 9.921875 4.34375 "/>
<path style=" stroke:none;fill-rule:nonzero;fill:rgb(0%,0%,0%);fill-opacity:0.196078;" d="M 9.921875 41.9375 C 8.824219 41.9375 7.9375 41.054688 7.9375 39.953125 L 7.9375 39.707031 C 7.9375 40.804688 8.824219 41.691406 9.921875 41.691406 L 37.707031 41.691406 C 38.804688 41.691406 39.691406 40.804688 39.691406 39.707031 L 39.691406 39.953125 C 39.691406 41.054688 38.804688 41.9375 37.707031 41.9375 Z M 9.921875 41.9375 "/>
<path style=" stroke:none;fill-rule:nonzero;fill:rgb(100%,100%,100%);fill-opacity:0.392157;" d="M 9.921875 4.46875 C 8.824219 4.46875 7.9375 5.355469 7.9375 6.453125 L 7.9375 6.703125 C 7.9375 5.601562 8.824219 4.714844 9.921875 4.71875 L 37.707031 4.71875 C 38.804688 4.714844 39.691406 5.601562 39.691406 6.703125 L 39.691406 6.453125 C 39.691406 5.355469 38.804688 4.46875 37.707031 4.46875 Z M 9.921875 4.46875 "/>
<path style=" stroke:none;fill-rule:nonzero;fill:url(#linear2);" d="M 13.890625 6.328125 L 37.707031 6.328125 C 38.253906 6.328125 38.699219 6.773438 38.699219 7.320312 L 38.699219 39.074219 C 38.699219 39.621094 38.253906 40.066406 37.707031 40.066406 L 13.890625 40.066406 C 13.34375 40.066406 12.898438 39.621094 12.898438 39.074219 L 12.898438 7.320312 C 12.898438 6.773438 13.34375 6.328125 13.890625 6.328125 Z M 13.890625 6.328125 "/>
<path style=" stroke:none;fill-rule:nonzero;fill:rgb(100%,100%,100%);fill-opacity:0.987952;" d="M 13.890625 6.328125 C 13.34375 6.328125 12.898438 6.769531 12.898438 7.320312 L 12.898438 7.816406 C 12.898438 7.265625 13.34375 6.824219 13.890625 6.824219 L 37.707031 6.824219 C 38.257812 6.824219 38.699219 7.265625 38.699219 7.816406 L 38.699219 7.320312 C 38.699219 6.769531 38.257812 6.328125 37.707031 6.328125 Z M 13.890625 6.328125 "/>
<path style=" stroke:none;fill-rule:nonzero;fill:rgb(12.941177%,12.941177%,12.941177%);fill-opacity:1;" d="M 13.890625 6.1875 C 13.265625 6.1875 12.757812 6.695312 12.757812 7.320312 L 12.757812 39.074219 C 12.757812 39.699219 13.265625 40.207031 13.890625 40.207031 L 37.707031 40.207031 C 38.332031 40.207031 38.839844 39.699219 38.839844 39.074219 L 38.839844 7.320312 C 38.839844 6.695312 38.332031 6.1875 37.707031 6.1875 Z M 13.890625 6.46875 L 37.707031 6.46875 C 38.179688 6.46875 38.558594 6.847656 38.558594 7.320312 L 38.558594 39.074219 C 38.558594 39.546875 38.179688 39.925781 37.707031 39.925781 L 13.890625 39.925781 C 13.417969 39.925781 13.039062 39.546875 13.039062 39.074219 L 13.039062 7.320312 C 13.039062 6.847656 13.417969 6.46875 13.890625 6.46875 Z M 13.890625 6.46875 "/>
<path style=" stroke:none;fill-rule:nonzero;fill:rgb(0%,0%,0%);fill-opacity:0.313726;" d="M 13.890625 40.5625 C 13.34375 40.5625 12.898438 40.121094 12.898438 39.570312 L 12.898438 39.074219 C 12.898438 39.625 13.34375 40.066406 13.890625 40.066406 L 37.707031 40.066406 C 38.257812 40.066406 38.699219 39.625 38.699219 39.074219 L 38.699219 39.570312 C 38.699219 40.121094 38.257812 40.5625 37.707031 40.5625 Z M 13.890625 40.5625 "/>
<path style="fill-rule:nonzero;fill:url(#linear3);stroke-width:3;stroke-linecap:round;stroke-linejoin:round;stroke:rgb(12.941177%,12.941177%,12.941177%);stroke-opacity:1;stroke-miterlimit:4;" d="M 174.608326 -131.632961 C 180.482765 -131.632961 185.190649 -126.883415 185.190649 -121.050638 L 185.190649 -110.468316 C 185.190649 -104.593877 180.482765 -99.885993 174.608326 -99.885993 C 168.775549 -99.885993 164.026003 -104.593877 164.026003 -110.468316 L 164.026003 -121.050638 C 164.026003 -126.883415 168.775549 -131.632961 174.608326 -131.632961 Z M 174.608326 -131.632961 " transform="matrix(0.093759,0,0,0.093759,0,20.158175)"/>
<path style="fill-rule:nonzero;fill:url(#linear4);stroke-width:3;stroke-linecap:round;stroke-linejoin:round;stroke:rgb(12.941177%,12.941177%,12.941177%);stroke-opacity:1;stroke-miterlimit:4;" d="M 174.608326 16.56122 C 180.482765 16.56122 185.190649 21.269104 185.190649 27.143543 L 185.190649 37.725866 C 185.190649 43.558642 180.482765 48.308189 174.608326 48.308189 C 168.775549 48.308189 164.026003 43.558642 164.026003 37.725866 L 164.026003 27.143543 C 164.026003 21.269104 168.775549 16.56122 174.608326 16.56122 Z M 174.608326 16.56122 " transform="matrix(0.093759,0,0,0.093759,0,20.158175)"/>
<path style="fill-rule:nonzero;fill:url(#linear5);stroke-width:3;stroke-linecap:round;stroke-linejoin:round;stroke:rgb(12.941177%,12.941177%,12.941177%);stroke-opacity:1;stroke-miterlimit:4;" d="M 174.608326 164.713739 C 180.482765 164.713739 185.190649 169.463286 185.190649 175.296062 L 185.190649 185.878385 C 185.190649 191.711161 180.482765 196.460707 174.608326 196.460707 C 168.775549 196.460707 164.026003 191.711161 164.026003 185.878385 L 164.026003 175.296062 C 164.026003 169.463286 168.775549 164.713739 174.608326 164.713739 Z M 174.608326 164.713739 " transform="matrix(0.093759,0,0,0.093759,0,20.158175)"/>
<path style="fill-rule:nonzero;fill:url(#linear6);stroke-width:3;stroke-linecap:round;stroke-linejoin:round;stroke:rgb(12.941177%,12.941177%,12.941177%);stroke-opacity:1;stroke-miterlimit:4;" d="M 174.608326 -57.556702 C 180.482765 -57.556702 185.190649 -52.807155 185.190649 -46.974379 L 185.190649 -36.392056 C 185.190649 -30.517617 180.482765 -25.809733 174.608326 -25.809733 C 168.775549 -25.809733 164.026003 -30.517617 164.026003 -36.392056 L 164.026003 -46.974379 C 164.026003 -52.807155 168.775549 -57.556702 174.608326 -57.556702 Z M 174.608326 -57.556702 " transform="matrix(0.093759,0,0,0.093759,0,20.158175)"/>
<path style="fill-rule:nonzero;fill:url(#linear7);stroke-width:3;stroke-linecap:round;stroke-linejoin:round;stroke:rgb(12.941177%,12.941177%,12.941177%);stroke-opacity:1;stroke-miterlimit:4;" d="M 174.608326 90.63748 C 180.482765 90.63748 185.190649 95.345363 185.190649 101.219803 L 185.190649 111.802125 C 185.190649 117.634902 180.482765 122.384448 174.608326 122.384448 C 168.775549 122.384448 164.026003 117.634902 164.026003 111.802125 L 164.026003 101.219803 C 164.026003 95.345363 168.775549 90.63748 174.608326 90.63748 Z M 174.608326 90.63748 " transform="matrix(0.093759,0,0,0.093759,0,20.158175)"/>
<path style=" stroke:none;fill-rule:nonzero;fill:rgb(12.941177%,12.941177%,12.941177%);fill-opacity:1;" d="M 9.921875 4.203125 C 8.746094 4.203125 7.796875 5.152344 7.796875 6.328125 L 7.796875 40.066406 C 7.796875 41.242188 8.746094 42.191406 9.921875 42.191406 L 37.707031 42.191406 C 38.882812 42.191406 39.832031 41.242188 39.832031 40.066406 L 39.832031 6.328125 C 39.832031 5.152344 38.882812 4.203125 37.707031 4.203125 Z M 9.921875 4.484375 L 37.707031 4.484375 C 38.730469 4.484375 39.550781 5.304688 39.550781 6.328125 L 39.550781 40.066406 C 39.550781 41.089844 38.730469 41.910156 37.707031 41.910156 L 9.921875 41.910156 C 8.898438 41.910156 8.078125 41.089844 8.078125 40.066406 L 8.078125 6.328125 C 8.078125 5.304688 8.898438 4.484375 9.921875 4.484375 Z M 9.921875 4.484375 "/>
<path style=" stroke:none;fill-rule:nonzero;fill:url(#linear8);" d="M 32.746094 33.121094 C 32.195312 33.121094 31.753906 33.5625 31.753906 34.113281 L 31.753906 40.066406 L 38.699219 33.121094 Z M 32.746094 33.121094 "/>
<path style=" stroke:none;fill-rule:nonzero;fill:url(#linear9);" d="M 10.417969 8.3125 L 16.371094 8.3125 C 16.648438 8.3125 16.867188 8.535156 16.867188 8.808594 L 16.867188 9.800781 C 16.867188 10.074219 16.648438 10.296875 16.371094 10.296875 L 10.417969 10.296875 C 10.144531 10.296875 9.921875 10.074219 9.921875 9.800781 L 9.921875 8.808594 C 9.921875 8.535156 10.144531 8.3125 10.417969 8.3125 Z M 10.417969 8.3125 "/>
<path style=" stroke:none;fill-rule:nonzero;fill:rgb(12.941177%,12.941177%,12.941177%);fill-opacity:0.927711;" d="M 10.417969 8.171875 C 10.070312 8.171875 9.78125 8.460938 9.78125 8.808594 L 9.78125 9.800781 C 9.78125 10.152344 10.070312 10.4375 10.417969 10.4375 L 16.371094 10.4375 C 16.722656 10.4375 17.007812 10.152344 17.007812 9.800781 L 17.007812 8.808594 C 17.007812 8.460938 16.722656 8.171875 16.371094 8.171875 Z M 10.417969 8.453125 L 16.371094 8.453125 C 16.570312 8.453125 16.726562 8.609375 16.726562 8.808594 L 16.726562 9.800781 C 16.726562 10 16.570312 10.15625 16.371094 10.15625 L 10.417969 10.15625 C 10.21875 10.15625 10.0625 10 10.0625 9.800781 L 10.0625 8.808594 C 10.0625 8.609375 10.21875 8.453125 10.417969 8.453125 Z M 10.417969 8.453125 "/>
<path style=" stroke:none;fill-rule:nonzero;fill:url(#linear10);" d="M 10.417969 15.257812 L 16.371094 15.257812 C 16.648438 15.257812 16.867188 15.480469 16.867188 15.753906 L 16.867188 16.746094 C 16.867188 17.023438 16.648438 17.242188 16.371094 17.242188 L 10.417969 17.242188 C 10.144531 17.242188 9.921875 17.023438 9.921875 16.746094 L 9.921875 15.753906 C 9.921875 15.480469 10.144531 15.257812 10.417969 15.257812 Z M 10.417969 15.257812 "/>
<path style=" stroke:none;fill-rule:nonzero;fill:rgb(12.941177%,12.941177%,12.941177%);fill-opacity:0.927711;" d="M 10.417969 15.117188 C 10.070312 15.117188 9.78125 15.40625 9.78125 15.753906 L 9.78125 16.746094 C 9.78125 17.097656 10.070312 17.382812 10.417969 17.382812 L 16.371094 17.382812 C 16.722656 17.382812 17.007812 17.097656 17.007812 16.746094 L 17.007812 15.753906 C 17.007812 15.40625 16.722656 15.117188 16.371094 15.117188 Z M 10.417969 15.398438 L 16.371094 15.398438 C 16.570312 15.398438 16.726562 15.554688 16.726562 15.753906 L 16.726562 16.746094 C 16.726562 16.945312 16.570312 17.101562 16.371094 17.101562 L 10.417969 17.101562 C 10.21875 17.101562 10.0625 16.945312 10.0625 16.746094 L 10.0625 15.753906 C 10.0625 15.554688 10.21875 15.398438 10.417969 15.398438 Z M 10.417969 15.398438 "/>
<path style=" stroke:none;fill-rule:nonzero;fill:url(#linear11);" d="M 10.417969 22.207031 L 16.371094 22.207031 C 16.648438 22.207031 16.867188 22.425781 16.867188 22.703125 L 16.867188 23.695312 C 16.867188 23.96875 16.648438 24.191406 16.371094 24.191406 L 10.417969 24.191406 C 10.144531 24.191406 9.921875 23.96875 9.921875 23.695312 L 9.921875 22.703125 C 9.921875 22.425781 10.144531 22.207031 10.417969 22.207031 Z M 10.417969 22.207031 "/>
<path style=" stroke:none;fill-rule:nonzero;fill:rgb(12.941177%,12.941177%,12.941177%);fill-opacity:0.927711;" d="M 10.417969 22.066406 C 10.070312 22.066406 9.78125 22.351562 9.78125 22.703125 L 9.78125 23.695312 C 9.78125 24.042969 10.070312 24.332031 10.417969 24.332031 L 16.371094 24.332031 C 16.722656 24.332031 17.007812 24.042969 17.007812 23.695312 L 17.007812 22.703125 C 17.007812 22.351562 16.722656 22.066406 16.371094 22.066406 Z M 10.417969 22.347656 L 16.371094 22.347656 C 16.570312 22.347656 16.726562 22.503906 16.726562 22.703125 L 16.726562 23.695312 C 16.726562 23.894531 16.570312 24.050781 16.371094 24.050781 L 10.417969 24.050781 C 10.21875 24.050781 10.0625 23.894531 10.0625 23.695312 L 10.0625 22.703125 C 10.0625 22.503906 10.21875 22.347656 10.417969 22.347656 Z M 10.417969 22.347656 "/>
<path style=" stroke:none;fill-rule:nonzero;fill:url(#linear12);" d="M 10.417969 29.152344 L 16.371094 29.152344 C 16.648438 29.152344 16.867188 29.375 16.867188 29.648438 L 16.867188 30.640625 C 16.867188 30.914062 16.648438 31.136719 16.371094 31.136719 L 10.417969 31.136719 C 10.144531 31.136719 9.921875 30.914062 9.921875 30.640625 L 9.921875 29.648438 C 9.921875 29.375 10.144531 29.152344 10.417969 29.152344 Z M 10.417969 29.152344 "/>
<path style=" stroke:none;fill-rule:nonzero;fill:rgb(12.941177%,12.941177%,12.941177%);fill-opacity:0.927711;" d="M 10.417969 29.011719 C 10.070312 29.011719 9.78125 29.296875 9.78125 29.648438 L 9.78125 30.640625 C 9.78125 30.988281 10.070312 31.277344 10.417969 31.277344 L 16.371094 31.277344 C 16.722656 31.277344 17.007812 30.988281 17.007812 30.640625 L 17.007812 29.648438 C 17.007812 29.296875 16.722656 29.011719 16.371094 29.011719 Z M 10.417969 29.292969 L 16.371094 29.292969 C 16.570312 29.292969 16.726562 29.449219 16.726562 29.648438 L 16.726562 30.640625 C 16.726562 30.839844 16.570312 30.996094 16.371094 30.996094 L 10.417969 30.996094 C 10.21875 30.996094 10.0625 30.839844 10.0625 30.640625 L 10.0625 29.648438 C 10.0625 29.449219 10.21875 29.292969 10.417969 29.292969 Z M 10.417969 29.292969 "/>
<path style=" stroke:none;fill-rule:nonzero;fill:url(#linear13);" d="M 10.417969 36.097656 L 16.371094 36.097656 C 16.648438 36.097656 16.867188 36.320312 16.867188 36.59375 L 16.867188 37.585938 C 16.867188 37.859375 16.648438 38.082031 16.371094 38.082031 L 10.417969 38.082031 C 10.144531 38.082031 9.921875 37.859375 9.921875 37.585938 L 9.921875 36.59375 C 9.921875 36.320312 10.144531 36.097656 10.417969 36.097656 Z M 10.417969 36.097656 "/>
<path style=" stroke:none;fill-rule:nonzero;fill:rgb(12.941177%,12.941177%,12.941177%);fill-opacity:0.927711;" d="M 10.417969 35.957031 C 10.070312 35.957031 9.78125 36.242188 9.78125 36.59375 L 9.78125 37.585938 C 9.78125 37.9375 10.070312 38.222656 10.417969 38.222656 L 16.371094 38.222656 C 16.722656 38.222656 17.007812 37.9375 17.007812 37.585938 L 17.007812 36.59375 C 17.007812 36.242188 16.722656 35.957031 16.371094 35.957031 Z M 10.417969 36.238281 L 16.371094 36.238281 C 16.570312 36.238281 16.726562 36.394531 16.726562 36.59375 L 16.726562 37.585938 C 16.726562 37.785156 16.570312 37.941406 16.371094 37.941406 L 10.417969 37.941406 C 10.21875 37.941406 10.0625 37.785156 10.0625 37.585938 L 10.0625 36.59375 C 10.0625 36.394531 10.21875 36.238281 10.417969 36.238281 Z M 10.417969 36.238281 "/>
<path style="fill:none;stroke-width:11.338583;stroke-linecap:butt;stroke-linejoin:miter;stroke:rgb(12.941177%,12.941177%,12.941177%);stroke-opacity:1;stroke-miterlimit:4;" d="M 1320.031493 1335.14816 C 1297.828888 1335.14816 1280.03531 1352.941738 1280.03531 1375.144343 L 1280.03531 1615.121439 L 1560.008589 1335.14816 Z M 1320.031493 1335.14816 " transform="matrix(0.0248071,0,0,0.0248071,0,0)"/>
<path style="fill:none;stroke-width:22;stroke-linecap:round;stroke-linejoin:round;stroke:rgb(25.882354%,25.882354%,25.882354%);stroke-opacity:1;stroke-miterlimit:4;" d="M 349.258314 -62.847863 L 349.258314 -94.594831 L 232.852764 -94.594831 L 296.3467 -9.936249 L 222.270441 106.510964 L 359.840637 106.510964 L 359.840637 74.763996 " transform="matrix(0.093759,0,0,0.093759,0,20.158175)"/>
</g>
</svg>
