<?xml version="1.0" encoding="UTF-8"?>
<svg xmlns="http://www.w3.org/2000/svg" xmlns:xlink="http://www.w3.org/1999/xlink" width="48pt" height="48pt" viewBox="0 0 48 48" version="1.1">
<defs>
<linearGradient id="linear0" gradientUnits="userSpaceOnUse" x1="254" y1="233.5" x2="254" y2="254.666672" gradientTransform="matrix(0.093759,0,0,0.093759,-0.00000572259,20.158178)">
<stop offset="0" style="stop-color:rgb(0%,0%,0%);stop-opacity:0.27451;"/>
<stop offset="1" style="stop-color:rgb(0%,0%,0%);stop-opacity:0;"/>
</linearGradient>
<radialGradient id="radial0" gradientUnits="userSpaceOnUse" cx="450.908936" cy="189.579361" fx="450.908936" fy="189.579361" r="21.166656" gradientTransform="matrix(0.000000261256,-0.117199,-0.210958,-0.000000152308,79.684395,95.392999)">
<stop offset="0" style="stop-color:rgb(0%,0%,0%);stop-opacity:0.313726;"/>
<stop offset="0.222222" style="stop-color:rgb(0%,0%,0%);stop-opacity:0.27451;"/>
<stop offset="1" style="stop-color:rgb(0%,0%,0%);stop-opacity:0;"/>
</radialGradient>
<radialGradient id="radial1" gradientUnits="userSpaceOnUse" cx="450.908936" cy="189.579361" fx="450.908936" fy="189.579361" r="21.166656" gradientTransform="matrix(-0.000000261256,0.117199,0.210958,0.000000152308,-31.80678,-11.291218)">
<stop offset="0" style="stop-color:rgb(0%,0%,0%);stop-opacity:0.313726;"/>
<stop offset="0.222222" style="stop-color:rgb(0%,0%,0%);stop-opacity:0.27451;"/>
<stop offset="1" style="stop-color:rgb(0%,0%,0%);stop-opacity:0;"/>
</radialGradient>
<radialGradient id="radial2" gradientUnits="userSpaceOnUse" cx="450.908936" cy="189.579361" fx="450.908936" fy="189.579361" r="21.166656" gradientTransform="matrix(-0.000000261256,-0.117199,0.210958,-0.000000152308,-31.80678,95.392999)">
<stop offset="0" style="stop-color:rgb(0%,0%,0%);stop-opacity:0.313726;"/>
<stop offset="0.222222" style="stop-color:rgb(0%,0%,0%);stop-opacity:0.27451;"/>
<stop offset="1" style="stop-color:rgb(0%,0%,0%);stop-opacity:0;"/>
</radialGradient>
<radialGradient id="radial3" gradientUnits="userSpaceOnUse" cx="450.908936" cy="189.579361" fx="450.908936" fy="189.579361" r="21.166656" gradientTransform="matrix(0.000000261256,0.117199,-0.210958,0.000000152308,79.684393,-11.291219)">
<stop offset="0" style="stop-color:rgb(0%,0%,0%);stop-opacity:0.313726;"/>
<stop offset="0.222222" style="stop-color:rgb(0%,0%,0%);stop-opacity:0.27451;"/>
<stop offset="1" style="stop-color:rgb(0%,0%,0%);stop-opacity:0;"/>
</radialGradient>
<linearGradient id="linear1" gradientUnits="userSpaceOnUse" x1="254" y1="233.5" x2="254" y2="-168.666672" gradientTransform="matrix(0.093759,0,0,0.093759,0,20.158174)">
<stop offset="0" style="stop-color:rgb(48.627451%,70.19608%,25.882354%);stop-opacity:1;"/>
<stop offset="1" style="stop-color:rgb(54.509807%,76.47059%,29.019609%);stop-opacity:1;"/>
</linearGradient>
<linearGradient id="linear2" gradientUnits="userSpaceOnUse" x1="1352.427002" y1="1220.092529" x2="786.741577" y2="654.407166" gradientTransform="matrix(0.0175412,0.0175412,-0.0175412,0.0175412,21.493463,-12.004827)">
<stop offset="0" style="stop-color:rgb(74.117649%,74.117649%,74.117649%);stop-opacity:1;"/>
<stop offset="1" style="stop-color:rgb(87.843138%,87.843138%,87.843138%);stop-opacity:1;"/>
</linearGradient>
</defs>
<g id="surface1">
<path style=" stroke:none;fill-rule:nonzero;fill:url(#linear0);" d="M 7.691406 42.050781 L 40.1875 42.050781 L 40.1875 44.035156 L 7.691406 44.035156 Z M 7.691406 42.050781 "/>
<path style=" stroke:none;fill-rule:nonzero;fill:url(#radial0);" d="M 40.1875 42.050781 L 44.15625 42.050781 L 44.15625 40.066406 L 40.1875 40.066406 Z M 40.1875 42.050781 "/>
<path style=" stroke:none;fill-rule:nonzero;fill:url(#radial1);" d="M 7.691406 42.050781 L 3.722656 42.050781 L 3.722656 44.035156 L 7.691406 44.035156 Z M 7.691406 42.050781 "/>
<path style=" stroke:none;fill-rule:nonzero;fill:url(#radial2);" d="M 7.691406 42.050781 L 3.722656 42.050781 L 3.722656 40.066406 L 7.691406 40.066406 Z M 7.691406 42.050781 "/>
<path style=" stroke:none;fill-rule:nonzero;fill:url(#radial3);" d="M 40.1875 42.050781 L 44.15625 42.050781 L 44.15625 44.035156 L 40.1875 44.035156 Z M 40.1875 42.050781 "/>
<path style=" stroke:none;fill-rule:nonzero;fill:url(#linear1);" d="M 5.457031 4.34375 C 5.433594 4.34375 5.40625 4.34375 5.378906 4.347656 C 5.328125 4.347656 5.28125 4.355469 5.230469 4.359375 C 5.15625 4.371094 5.082031 4.390625 5.015625 4.410156 C 4.96875 4.425781 4.921875 4.441406 4.878906 4.460938 C 4.789062 4.5 4.703125 4.542969 4.625 4.597656 C 4.585938 4.625 4.546875 4.652344 4.507812 4.683594 C 4.472656 4.714844 4.4375 4.746094 4.402344 4.777344 C 4.371094 4.8125 4.339844 4.847656 4.308594 4.882812 C 4.292969 4.902344 4.277344 4.921875 4.265625 4.941406 C 4.234375 4.980469 4.207031 5.019531 4.183594 5.058594 C 4.148438 5.121094 4.113281 5.183594 4.085938 5.253906 C 4.078125 5.273438 4.066406 5.296875 4.058594 5.320312 C 4.050781 5.34375 4.042969 5.367188 4.035156 5.390625 C 4.027344 5.414062 4.023438 5.4375 4.015625 5.460938 C 4.003906 5.507812 3.992188 5.554688 3.984375 5.605469 C 3.984375 5.628906 3.980469 5.65625 3.976562 5.679688 C 3.972656 5.730469 3.96875 5.78125 3.96875 5.832031 L 3.96875 40.5625 C 3.96875 41.386719 4.632812 42.050781 5.457031 42.050781 L 42.171875 42.050781 C 42.996094 42.050781 43.660156 41.386719 43.660156 40.5625 L 43.660156 5.832031 C 43.660156 5.523438 43.566406 5.238281 43.40625 5 C 43.378906 4.960938 43.351562 4.921875 43.320312 4.882812 C 43.292969 4.847656 43.257812 4.8125 43.226562 4.777344 C 43.191406 4.746094 43.15625 4.714844 43.121094 4.683594 C 43.082031 4.652344 43.042969 4.625 43.003906 4.597656 C 42.925781 4.542969 42.839844 4.5 42.753906 4.460938 C 42.707031 4.441406 42.664062 4.425781 42.617188 4.410156 C 42.546875 4.390625 42.472656 4.371094 42.398438 4.359375 C 42.351562 4.355469 42.300781 4.347656 42.25 4.347656 C 42.222656 4.34375 42.199219 4.34375 42.171875 4.34375 Z M 5.457031 4.34375 "/>
<path style=" stroke:none;fill-rule:nonzero;fill:rgb(100%,100%,100%);fill-opacity:0.392157;" d="M 5.457031 4.34375 C 4.632812 4.34375 3.96875 5.007812 3.96875 5.832031 L 3.96875 6.082031 C 3.96875 5.257812 4.632812 4.59375 5.457031 4.59375 L 42.171875 4.59375 C 42.996094 4.59375 43.660156 5.257812 43.660156 6.082031 L 43.660156 5.832031 C 43.660156 5.007812 42.996094 4.34375 42.171875 4.34375 Z M 5.457031 4.34375 "/>
<path style=" stroke:none;fill-rule:nonzero;fill:rgb(1.176471%,1.176471%,1.176471%);fill-opacity:0.235294;" d="M 5.457031 42.050781 C 4.632812 42.050781 3.96875 41.386719 3.96875 40.5625 L 3.96875 40.3125 C 3.96875 41.136719 4.632812 41.800781 5.457031 41.800781 L 42.171875 41.800781 C 42.996094 41.800781 43.660156 41.136719 43.660156 40.3125 L 43.660156 40.5625 C 43.660156 41.386719 42.996094 42.050781 42.171875 42.050781 Z M 5.457031 42.050781 "/>
<path style=" stroke:none;fill-rule:nonzero;fill:rgb(40.784314%,62.352943%,21.960784%);fill-opacity:1;" d="M 23.816406 8.3125 C 32.035156 8.3125 38.699219 14.976562 38.699219 23.199219 C 38.699219 31.417969 32.035156 38.082031 23.816406 38.082031 C 15.59375 38.082031 8.929688 31.417969 8.929688 23.199219 C 8.929688 14.976562 15.59375 8.3125 23.816406 8.3125 Z M 23.816406 8.3125 "/>
<path style=" stroke:none;fill-rule:nonzero;fill:rgb(12.941177%,12.941177%,12.941177%);fill-opacity:1;" d="M 5.457031 4.203125 C 4.558594 4.203125 3.828125 4.933594 3.828125 5.832031 L 3.828125 40.5625 C 3.828125 41.460938 4.558594 42.191406 5.457031 42.191406 L 42.171875 42.191406 C 43.070312 42.191406 43.800781 41.460938 43.800781 40.5625 L 43.800781 5.832031 C 43.800781 4.933594 43.070312 4.203125 42.171875 4.203125 Z M 5.457031 4.484375 L 42.171875 4.484375 C 42.921875 4.484375 43.519531 5.082031 43.519531 5.832031 L 43.519531 40.5625 C 43.519531 41.3125 42.921875 41.910156 42.171875 41.910156 L 5.457031 41.910156 C 4.707031 41.910156 4.109375 41.3125 4.109375 40.5625 L 4.109375 5.832031 C 4.109375 5.082031 4.707031 4.484375 5.457031 4.484375 Z M 5.457031 4.484375 "/>
<path style=" stroke:none;fill-rule:nonzero;fill:url(#linear2);" d="M 27.542969 13.875 C 26.019531 13.875 24.5 14.457031 23.332031 15.625 C 22.222656 16.734375 21.644531 18.164062 21.589844 19.609375 L 17.308594 15.332031 C 16.53125 14.554688 15.4375 14.398438 14.851562 14.980469 C 14.269531 15.5625 14.425781 16.660156 15.203125 17.4375 L 21.167969 23.402344 L 15.613281 28.957031 C 14.835938 29.734375 14.835938 30.984375 15.613281 31.761719 C 16.269531 32.417969 17.265625 32.519531 18.027344 32.070312 L 17.371094 31.410156 C 17.175781 31.21875 17.175781 30.90625 17.371094 30.710938 L 17.71875 30.359375 C 17.914062 30.164062 18.226562 30.164062 18.421875 30.359375 L 19.125 31.0625 L 19.824219 30.359375 L 19.472656 30.007812 C 19.28125 29.8125 19.28125 29.5 19.472656 29.308594 L 19.824219 28.957031 C 20.019531 28.761719 20.332031 28.761719 20.527344 28.957031 L 20.878906 29.308594 L 21.578125 28.605469 L 20.878906 27.902344 C 20.683594 27.710938 20.683594 27.394531 20.878906 27.203125 L 21.226562 26.851562 C 21.421875 26.65625 21.734375 26.65625 21.929688 26.851562 L 22.632812 27.554688 L 23.976562 26.207031 L 29.238281 31.46875 C 30.015625 32.246094 31.109375 32.402344 31.691406 31.820312 C 32.277344 31.238281 32.121094 30.140625 31.34375 29.363281 L 27.765625 25.789062 C 29.214844 25.734375 30.644531 25.152344 31.753906 24.042969 C 34.085938 21.710938 34.085938 17.957031 31.753906 15.625 C 30.585938 14.457031 29.066406 13.875 27.542969 13.875 Z M 28.246094 16.152344 C 29.003906 16.152344 29.765625 16.445312 30.351562 17.027344 C 31.515625 18.195312 31.515625 20.070312 30.351562 21.238281 C 29.183594 22.402344 27.304688 22.402344 26.140625 21.238281 C 24.972656 20.070312 24.972656 18.195312 26.140625 17.027344 C 26.722656 16.445312 27.484375 16.152344 28.246094 16.152344 Z M 28.246094 16.152344 "/>
<path style=" stroke:none;fill-rule:nonzero;fill:rgb(100%,100%,100%);fill-opacity:0.392157;" d="M 8.9375 22.828125 C 8.933594 22.953125 8.929688 23.074219 8.929688 23.199219 C 8.929688 31.445312 15.570312 38.082031 23.816406 38.082031 C 32.0625 38.082031 38.699219 31.445312 38.699219 23.199219 C 38.699219 23.074219 38.695312 22.953125 38.695312 22.828125 C 38.484375 30.890625 31.929688 37.316406 23.816406 37.316406 C 15.703125 37.316406 9.144531 30.890625 8.9375 22.828125 Z M 8.9375 22.828125 "/>
<path style=" stroke:none;fill-rule:nonzero;fill:rgb(0%,0%,0%);fill-opacity:0.235294;" d="M 8.9375 23.695312 C 8.933594 23.527344 8.929688 23.363281 8.929688 23.199219 C 8.929688 14.953125 15.570312 8.3125 23.816406 8.3125 C 32.0625 8.3125 38.699219 14.953125 38.699219 23.199219 C 38.699219 23.363281 38.695312 23.527344 38.691406 23.695312 C 38.429688 15.679688 31.894531 9.304688 23.816406 9.304688 C 15.734375 9.304688 9.199219 15.679688 8.9375 23.695312 Z M 8.9375 23.695312 "/>
<path style=" stroke:none;fill-rule:nonzero;fill:rgb(12.941177%,12.941177%,12.941177%);fill-opacity:1;" d="M 23.816406 8.171875 C 15.492188 8.171875 8.789062 14.875 8.789062 23.199219 C 8.789062 31.519531 15.492188 38.222656 23.816406 38.222656 C 32.136719 38.222656 38.839844 31.519531 38.839844 23.199219 C 38.839844 14.875 32.136719 8.171875 23.816406 8.171875 Z M 23.816406 8.453125 C 31.984375 8.453125 38.558594 15.027344 38.558594 23.199219 C 38.558594 31.367188 31.984375 37.941406 23.816406 37.941406 C 15.644531 37.941406 9.070312 31.367188 9.070312 23.199219 C 9.070312 15.027344 15.644531 8.453125 23.816406 8.453125 Z M 23.816406 8.453125 "/>
<path style=" stroke:none;fill-rule:nonzero;fill:rgb(100%,100%,100%);fill-opacity:1;" d="M 27.542969 13.875 C 26.019531 13.875 24.5 14.457031 23.332031 15.625 C 22.222656 16.734375 21.644531 18.164062 21.589844 19.609375 L 17.308594 15.332031 C 16.53125 14.554688 15.4375 14.398438 14.851562 14.980469 C 14.515625 15.320312 14.425781 15.832031 14.5625 16.355469 C 14.621094 16.171875 14.714844 16.003906 14.851562 15.867188 C 15.4375 15.285156 16.53125 15.441406 17.308594 16.21875 L 21.589844 20.5 C 21.644531 19.050781 22.222656 17.621094 23.332031 16.511719 C 24.5 15.347656 26.019531 14.761719 27.542969 14.761719 C 29.066406 14.761719 30.585938 15.347656 31.753906 16.511719 C 32.804688 17.566406 33.382812 18.90625 33.484375 20.277344 C 33.609375 18.613281 33.03125 16.902344 31.753906 15.625 C 30.585938 14.457031 29.066406 13.875 27.542969 13.875 Z M 25.296875 19.578125 C 25.164062 20.476562 25.441406 21.429688 26.140625 22.125 C 27.304688 23.292969 29.183594 23.292969 30.351562 22.125 C 31.046875 21.429688 31.328125 20.476562 31.191406 19.578125 C 31.097656 20.183594 30.820312 20.769531 30.351562 21.238281 C 29.183594 22.402344 27.304688 22.402344 26.140625 21.238281 C 25.671875 20.769531 25.390625 20.183594 25.296875 19.578125 Z M 20.726562 23.84375 L 15.613281 28.957031 C 15.113281 29.457031 14.933594 30.160156 15.082031 30.804688 C 15.164062 30.453125 15.339844 30.117188 15.613281 29.84375 L 21.167969 24.289062 Z M 28.570312 26.589844 C 28.304688 26.636719 28.035156 26.667969 27.765625 26.675781 L 31.34375 30.25 C 31.667969 30.578125 31.882812 30.957031 31.984375 31.332031 C 32.167969 30.738281 31.9375 29.957031 31.34375 29.363281 Z M 20.96875 27.996094 L 20.878906 28.089844 C 20.683594 28.285156 20.683594 28.597656 20.878906 28.792969 L 21.136719 29.050781 L 21.578125 28.605469 Z M 19.566406 30.101562 L 19.472656 30.195312 C 19.3125 30.355469 19.285156 30.601562 19.394531 30.789062 L 19.824219 30.359375 Z M 17.460938 31.503906 L 17.371094 31.597656 C 17.175781 31.792969 17.175781 32.105469 17.371094 32.300781 L 17.382812 32.3125 C 17.605469 32.269531 17.824219 32.191406 18.027344 32.070312 Z M 17.460938 31.503906 "/>
<path style=" stroke:none;fill-rule:nonzero;fill:rgb(0%,0%,0%);fill-opacity:0.235294;" d="M 28.246094 16.140625 C 27.484375 16.140625 26.722656 16.429688 26.140625 17.015625 C 25.472656 17.679688 25.1875 18.578125 25.28125 19.441406 C 25.355469 18.792969 25.640625 18.160156 26.140625 17.660156 C 26.722656 17.078125 27.484375 16.785156 28.246094 16.785156 C 29.003906 16.785156 29.765625 17.078125 30.351562 17.660156 C 30.851562 18.160156 31.136719 18.792969 31.207031 19.441406 C 31.300781 18.578125 31.015625 17.679688 30.351562 17.015625 C 29.765625 16.429688 29.003906 16.140625 28.246094 16.140625 Z M 14.535156 16.210938 C 14.40625 16.789062 14.644531 17.511719 15.203125 18.070312 L 20.847656 23.710938 L 21.167969 23.386719 L 15.203125 17.421875 C 14.839844 17.058594 14.613281 16.628906 14.535156 16.210938 Z M 33.492188 20.144531 C 33.417969 21.554688 32.835938 22.945312 31.753906 24.03125 C 30.644531 25.140625 29.214844 25.722656 27.765625 25.773438 L 28.363281 26.371094 C 29.601562 26.199219 30.796875 25.632812 31.753906 24.679688 C 33 23.429688 33.582031 21.773438 33.492188 20.144531 Z M 23.976562 26.195312 L 22.632812 27.539062 L 21.929688 26.835938 C 21.734375 26.644531 21.421875 26.644531 21.226562 26.835938 L 20.878906 27.1875 C 20.691406 27.375 20.683594 27.667969 20.851562 27.863281 C 20.859375 27.851562 20.867188 27.84375 20.878906 27.835938 L 21.226562 27.484375 C 21.421875 27.289062 21.734375 27.289062 21.929688 27.484375 L 22.632812 28.1875 L 23.976562 26.839844 L 29.238281 32.101562 C 30.015625 32.878906 31.109375 33.035156 31.691406 32.453125 C 32.003906 32.140625 32.105469 31.683594 32.011719 31.207031 C 31.964844 31.4375 31.855469 31.640625 31.691406 31.804688 C 31.109375 32.390625 30.015625 32.230469 29.238281 31.453125 Z M 20.175781 28.796875 C 20.050781 28.796875 19.921875 28.84375 19.824219 28.941406 L 19.472656 29.292969 C 19.289062 29.476562 19.28125 29.773438 19.449219 29.96875 C 19.457031 29.957031 19.464844 29.949219 19.472656 29.941406 L 19.824219 29.589844 C 20.019531 29.394531 20.332031 29.394531 20.527344 29.589844 L 20.878906 29.941406 L 21.578125 29.238281 L 21.253906 28.914062 L 20.878906 29.292969 L 20.527344 28.941406 C 20.429688 28.84375 20.300781 28.796875 20.175781 28.796875 Z M 18.070312 30.199219 C 17.945312 30.199219 17.816406 30.25 17.71875 30.34375 L 17.371094 30.695312 C 17.183594 30.882812 17.175781 31.175781 17.34375 31.371094 C 17.351562 31.363281 17.359375 31.351562 17.371094 31.34375 L 17.71875 30.992188 C 17.914062 30.796875 18.226562 30.796875 18.421875 30.992188 L 19.125 31.695312 L 19.824219 30.992188 L 19.5 30.667969 L 19.125 31.046875 L 18.421875 30.34375 C 18.324219 30.25 18.199219 30.199219 18.070312 30.199219 Z M 15.058594 30.667969 C 14.957031 31.277344 15.144531 31.925781 15.613281 32.394531 C 16.269531 33.050781 17.265625 33.15625 18.027344 32.703125 L 17.574219 32.25 C 16.902344 32.449219 16.148438 32.28125 15.613281 31.75 C 15.308594 31.441406 15.125 31.0625 15.058594 30.667969 Z M 15.058594 30.667969 "/>
<path style=" stroke:none;fill-rule:nonzero;fill:rgb(12.941177%,12.941177%,12.941177%);fill-opacity:1;" d="M 27.542969 13.734375 C 25.984375 13.734375 24.425781 14.332031 23.234375 15.523438 C 22.179688 16.578125 21.589844 17.917969 21.46875 19.292969 L 17.410156 15.230469 C 17 14.824219 16.507812 14.574219 16.027344 14.507812 C 15.550781 14.4375 15.082031 14.554688 14.753906 14.878906 C 14.425781 15.207031 14.3125 15.675781 14.378906 16.15625 C 14.449219 16.632812 14.695312 17.125 15.105469 17.535156 L 20.96875 23.402344 L 15.515625 28.855469 C 14.683594 29.6875 14.683594 31.03125 15.515625 31.863281 C 16.21875 32.5625 17.28125 32.675781 18.097656 32.191406 L 18.253906 32.097656 L 17.46875 31.3125 C 17.328125 31.171875 17.328125 30.949219 17.46875 30.808594 L 17.820312 30.457031 C 17.960938 30.316406 18.179688 30.316406 18.320312 30.457031 L 19.125 31.261719 L 20.023438 30.359375 L 19.574219 29.910156 C 19.433594 29.769531 19.433594 29.546875 19.574219 29.40625 L 19.925781 29.054688 C 20.066406 28.914062 20.285156 28.914062 20.425781 29.054688 L 20.878906 29.503906 L 21.777344 28.605469 L 20.976562 27.804688 C 20.835938 27.664062 20.835938 27.441406 20.976562 27.300781 L 21.328125 26.949219 C 21.46875 26.808594 21.691406 26.808594 21.832031 26.949219 L 22.632812 27.75 L 23.976562 26.40625 L 29.136719 31.570312 C 29.546875 31.976562 30.039062 32.226562 30.519531 32.292969 C 30.996094 32.363281 31.464844 32.246094 31.792969 31.917969 C 32.121094 31.59375 32.234375 31.121094 32.167969 30.644531 C 32.097656 30.167969 31.851562 29.671875 31.441406 29.265625 L 28.085938 25.910156 C 29.457031 25.785156 30.796875 25.199219 31.851562 24.144531 C 34.238281 21.757812 34.238281 17.910156 31.851562 15.523438 C 30.660156 14.332031 29.101562 13.734375 27.542969 13.734375 Z M 27.542969 14.015625 C 29.027344 14.015625 30.515625 14.585938 31.652344 15.722656 C 33.933594 18.003906 33.933594 21.667969 31.652344 23.945312 C 30.570312 25.027344 29.175781 25.59375 27.761719 25.648438 L 27.441406 25.660156 L 31.242188 29.464844 C 31.609375 29.832031 31.828125 30.273438 31.886719 30.683594 C 31.945312 31.09375 31.847656 31.464844 31.59375 31.71875 C 31.335938 31.976562 30.96875 32.074219 30.558594 32.015625 C 30.148438 31.957031 29.707031 31.738281 29.335938 31.371094 L 23.976562 26.007812 L 22.632812 27.355469 L 22.03125 26.75 C 21.78125 26.503906 21.375 26.503906 21.128906 26.75 L 20.777344 27.101562 C 20.53125 27.351562 20.53125 27.753906 20.777344 28.003906 L 21.378906 28.605469 L 20.878906 29.109375 L 20.625 28.855469 C 20.378906 28.609375 19.972656 28.609375 19.726562 28.855469 L 19.375 29.207031 C 19.128906 29.457031 19.128906 29.859375 19.375 30.109375 L 19.625 30.359375 L 19.125 30.863281 L 18.519531 30.261719 C 18.273438 30.011719 17.867188 30.011719 17.621094 30.261719 L 17.269531 30.609375 C 17.023438 30.859375 17.023438 31.261719 17.269531 31.511719 L 17.792969 32.035156 C 17.109375 32.351562 16.28125 32.226562 15.714844 31.664062 C 14.992188 30.9375 14.992188 29.78125 15.714844 29.054688 L 21.367188 23.402344 L 15.304688 17.335938 C 14.933594 16.96875 14.714844 16.523438 14.65625 16.117188 C 14.597656 15.707031 14.695312 15.335938 14.953125 15.078125 C 15.207031 14.824219 15.578125 14.726562 15.988281 14.785156 C 16.398438 14.84375 16.839844 15.0625 17.210938 15.429688 L 21.71875 19.9375 L 21.730469 19.617188 C 21.78125 18.203125 22.347656 16.808594 23.433594 15.722656 C 24.570312 14.585938 26.058594 14.015625 27.542969 14.015625 Z M 28.246094 16.011719 C 27.449219 16.011719 26.648438 16.320312 26.039062 16.929688 C 24.820312 18.148438 24.820312 20.117188 26.039062 21.335938 C 27.261719 22.558594 29.230469 22.558594 30.449219 21.335938 C 31.667969 20.117188 31.667969 18.148438 30.449219 16.929688 C 29.839844 16.320312 29.042969 16.011719 28.246094 16.011719 Z M 28.246094 16.292969 C 28.96875 16.292969 29.695312 16.570312 30.25 17.128906 C 31.363281 18.238281 31.363281 20.027344 30.25 21.136719 C 29.136719 22.25 27.351562 22.25 26.238281 21.136719 C 25.125 20.027344 25.125 18.238281 26.238281 17.128906 C 26.796875 16.570312 27.519531 16.292969 28.246094 16.292969 Z M 28.246094 16.292969 "/>
</g>
</svg>
