<svg height="48pt" viewBox="0 0 48 48" width="48pt" xmlns="http://www.w3.org/2000/svg" xmlns:xlink="http://www.w3.org/1999/xlink"><linearGradient id="a"><stop offset="0" stop-opacity=".313725"/><stop offset=".222222" stop-opacity=".27451"/><stop offset="1" stop-opacity="0"/></linearGradient><radialGradient id="b" cx="450.908936" cy="189.579361" gradientTransform="matrix(.00000026 -.117199 -.210958 -.00000015 63.31174 95.392999)" gradientUnits="userSpaceOnUse" r="21.166656" xlink:href="#a"/><radialGradient id="c" cx="450.908936" cy="189.579361" gradientTransform="matrix(-.00000026 .117199 .210958 .00000015 -15.682186 -11.291218)" gradientUnits="userSpaceOnUse" r="21.166656" xlink:href="#a"/><radialGradient id="d" cx="450.908936" cy="189.579361" gradientTransform="matrix(-.00000026 -.117199 .210958 -.00000015 -15.682186 95.392999)" gradientUnits="userSpaceOnUse" r="21.166656" xlink:href="#a"/><radialGradient id="e" cx="450.908936" cy="189.579361" gradientTransform="matrix(.00000026 .117199 -.210958 .00000015 63.311737 -11.291219)" gradientUnits="userSpaceOnUse" r="21.166656" xlink:href="#a"/><linearGradient id="f"><stop offset="0" stop-color="#424242"/><stop offset="1" stop-color="#616161"/></linearGradient><linearGradient id="g" gradientUnits="userSpaceOnUse" x1="960" x2="960" xlink:href="#f" y1="1695.118164" y2="175.118134"/><linearGradient id="h" gradientUnits="userSpaceOnUse" x1="23.814786" x2="23.814786" y1="38.08177100005" y2="8.3132869999"><stop offset="0" stop-color="#616161"/><stop offset="1" stop-color="#757575"/></linearGradient><linearGradient id="i" gradientUnits="userSpaceOnUse" x1="254" x2="254" xlink:href="#f" y1="53.583332" y2="11.25"/><path d="m23.816406 42.050781h3.96875v-1.984375h-3.96875zm0 0" fill="url(#b)"/><path d="m23.816406 42.050781h-3.972656v1.984375h3.972656zm0 0" fill="url(#c)"/><path d="m23.816406 42.050781h-3.972656v-1.984375h3.972656zm0 0" fill="url(#d)"/><path d="m23.816406 42.050781h3.96875v1.984375h-3.96875zm0 0" fill="url(#e)"/><path d="m960.065849 175.101398c-44.405211 0-79.992365 35.74462-79.992365 79.992365v486.882665l-344.376581-344.219115c-31.335592-31.335592-81.724483-31.335592-113.060075 0-31.335592 31.335591-31.335592 81.724483 0 113.060075l344.219115 344.376581h-486.882664c-44.247746 0-79.992366 35.587154-79.992366 79.992365 0 44.247745 35.74462 79.992365 79.992366 79.992365h486.882664l-344.219115 344.219116c-31.335592 31.335591-31.335592 81.724483 0 113.060075s81.724483 31.335592 113.060075 0l344.376581-344.219115v486.882664c0 44.247745 35.587154 79.992365 79.992365 79.992365 44.247745 0 79.992365-35.74462 79.992365-79.992365v-486.882664l344.219116 344.219115c31.335592 31.335592 81.724483 31.335592 113.060075 0s31.335592-81.724484 0-113.060075l-344.219115-344.219116h486.882664c44.247746 0 79.992366-35.74462 79.992366-79.992365 0-44.405211-35.74462-79.992365-79.992366-79.992365h-486.882664l344.219115-344.376581c31.335592-31.335592 31.335592-81.724484 0-113.060075-31.335592-31.335592-81.724483-31.335592-113.060075 0l-344.219116 344.219115v-486.882665c0-44.247745-35.74462-79.992365-79.992365-79.992365zm0 0" fill="url(#g)" stroke="#212121" stroke-linecap="round" stroke-width="11.338583" transform="scale(.0248071)"/><path d="m23.816406 8.3125c8.21875 0 14.882813 6.664062 14.882813 14.886719 0 8.21875-6.664063 14.882812-14.882813 14.882812-8.222656 0-14.886718-6.664062-14.886718-14.882812 0-8.222657 6.664062-14.886719 14.886718-14.886719zm0 0" fill="url(#h)"/><path d="m254.017409 11.270059c11.665553 0 21.164646 9.45743 21.164646 21.164645 0 11.665553-9.499093 21.164646-21.164646 21.164646-11.707215 0-21.164645-9.499093-21.164645-21.164646 0-11.707215 9.45743-21.164645 21.164645-21.164645zm0 0" fill="url(#i)" stroke="#212121" stroke-linecap="round" stroke-width="3" transform="matrix(.093759 0 0 .093759 0 20.158175)"/><path d="m23.816406 8.3125c-8.246094 0-14.886718 6.640625-14.886718 14.886719 0 .082031 0 .164062.003906.246093.128906-8.128906 6.71875-14.636718 14.882812-14.636718 8.160156 0 14.75 6.507812 14.878906 14.636718.003907-.082031.003907-.164062.003907-.246093 0-8.246094-6.636719-14.886719-14.882813-14.886719zm0 0" fill="#fff" fill-opacity=".392157"/><path d="m23.816406 38.082031c-8.246094 0-14.886718-6.636719-14.886718-14.882812 0-.085938 0-.167969.003906-.25.128906 8.128906 6.71875 14.636719 14.882812 14.636719 8.160156 0 14.75-6.507813 14.878906-14.636719.003907.082031.003907.164062.003907.25 0 8.246093-6.636719 14.882812-14.882813 14.882812zm0 0" fill-opacity=".235294"/><path d="m254.017409-126.3418c87.658296 0 158.734842 71.076546 158.734842 158.776504 0 87.658296-71.076546 158.734842-158.734842 158.734842-87.699958 0-158.776504-71.076546-158.776504-158.734842 0-87.699958 71.076546-158.776504 158.776504-158.776504zm0 0" fill="none" stroke="#212121" stroke-linecap="round" stroke-width="2.904737" transform="matrix(.093759 0 0 .093759 0 20.158175)"/></svg>