<?xml version="1.0" encoding="UTF-8"?>
<svg xmlns="http://www.w3.org/2000/svg" xmlns:xlink="http://www.w3.org/1999/xlink" width="48px" height="48px" viewBox="0 0 48 48" version="1.1">
<defs>
<linearGradient id="linear0" gradientUnits="userSpaceOnUse" x1="254" y1="233.5" x2="254" y2="254.666672" gradientTransform="matrix(0.093759,0,0,0.093759,-0.00000572259,20.158178)">
<stop offset="0" style="stop-color:rgb(0%,0%,0%);stop-opacity:0.27451;"/>
<stop offset="1" style="stop-color:rgb(0%,0%,0%);stop-opacity:0;"/>
</linearGradient>
<radialGradient id="radial0" gradientUnits="userSpaceOnUse" cx="450.908936" cy="189.579361" fx="450.908936" fy="189.579361" r="21.166656" gradientTransform="matrix(0.000000261256,-0.117199,-0.210958,-0.000000152308,78.195972,95.392999)">
<stop offset="0" style="stop-color:rgb(0%,0%,0%);stop-opacity:0.313726;"/>
<stop offset="0.222222" style="stop-color:rgb(0%,0%,0%);stop-opacity:0.27451;"/>
<stop offset="1" style="stop-color:rgb(0%,0%,0%);stop-opacity:0;"/>
</radialGradient>
<radialGradient id="radial1" gradientUnits="userSpaceOnUse" cx="450.908936" cy="189.579361" fx="450.908936" fy="189.579361" r="21.166656" gradientTransform="matrix(-0.000000261256,0.117199,0.210958,0.000000152308,-30.56642,-11.291218)">
<stop offset="0" style="stop-color:rgb(0%,0%,0%);stop-opacity:0.313726;"/>
<stop offset="0.222222" style="stop-color:rgb(0%,0%,0%);stop-opacity:0.27451;"/>
<stop offset="1" style="stop-color:rgb(0%,0%,0%);stop-opacity:0;"/>
</radialGradient>
<radialGradient id="radial2" gradientUnits="userSpaceOnUse" cx="450.908936" cy="189.579361" fx="450.908936" fy="189.579361" r="21.166656" gradientTransform="matrix(-0.000000261256,-0.117199,0.210958,-0.000000152308,-31.558706,91.920015)">
<stop offset="0" style="stop-color:rgb(0%,0%,0%);stop-opacity:0.313726;"/>
<stop offset="0.222222" style="stop-color:rgb(0%,0%,0%);stop-opacity:0.27451;"/>
<stop offset="1" style="stop-color:rgb(0%,0%,0%);stop-opacity:0;"/>
</radialGradient>
<radialGradient id="radial3" gradientUnits="userSpaceOnUse" cx="450.908936" cy="189.579361" fx="450.908936" fy="189.579361" r="21.166656" gradientTransform="matrix(0.000000261256,0.117199,-0.210958,0.000000152308,78.195969,-11.291219)">
<stop offset="0" style="stop-color:rgb(0%,0%,0%);stop-opacity:0.313726;"/>
<stop offset="0.222222" style="stop-color:rgb(0%,0%,0%);stop-opacity:0.27451;"/>
<stop offset="1" style="stop-color:rgb(0%,0%,0%);stop-opacity:0;"/>
</radialGradient>
<linearGradient id="linear1" gradientUnits="userSpaceOnUse" x1="190.5" y1="-184.541901" x2="201.083328" y2="291.708099" gradientTransform="matrix(-0.093759,0.000000000000000011,-0.000000000000000011,-0.093759,50.606395,28.717611)">
<stop offset="0" style="stop-color:rgb(25.882354%,25.882354%,25.882354%);stop-opacity:1;"/>
<stop offset="1" style="stop-color:rgb(38.039216%,38.039216%,38.039216%);stop-opacity:1;"/>
</linearGradient>
<radialGradient id="radial4" gradientUnits="userSpaceOnUse" cx="450.908936" cy="189.579361" fx="450.908936" fy="189.579361" r="21.166656" gradientTransform="matrix(0.000000261256,-0.117199,-0.210958,-0.000000152308,78.195974,95.392999)">
<stop offset="0" style="stop-color:rgb(0%,0%,0%);stop-opacity:0.313726;"/>
<stop offset="0.222222" style="stop-color:rgb(0%,0%,0%);stop-opacity:0.27451;"/>
<stop offset="1" style="stop-color:rgb(0%,0%,0%);stop-opacity:0;"/>
</radialGradient>
<linearGradient id="linear2" gradientUnits="userSpaceOnUse" x1="169.333328" y1="233.5" x2="169.333328" y2="-168.666656" gradientTransform="matrix(0.093759,0,0,0.093759,-0.00000093759,20.158175)">
<stop offset="0" style="stop-color:rgb(87.843138%,87.843138%,87.843138%);stop-opacity:1;"/>
<stop offset="1" style="stop-color:rgb(93.333334%,93.333334%,93.333334%);stop-opacity:1;"/>
</linearGradient>
<linearGradient id="linear3" gradientUnits="userSpaceOnUse" x1="253.999985" y1="233.5" x2="254.000015" y2="-168.666672" gradientTransform="matrix(0.093759,0,0,0.093759,1.984564,21.894643)">
<stop offset="0" style="stop-color:rgb(25.882354%,25.882354%,25.882354%);stop-opacity:1;"/>
<stop offset="1" style="stop-color:rgb(38.039216%,38.039216%,38.039216%);stop-opacity:1;"/>
</linearGradient>
</defs>
<g id="surface1">
<path style=" stroke:none;fill-rule:nonzero;fill:url(#linear0);" d="M 8.929688 41.902344 L 38.699219 41.902344 L 38.699219 44.109375 L 8.929688 44.109375 Z M 8.929688 41.902344 "/>
<path style=" stroke:none;fill-rule:nonzero;fill:url(#radial0);" d="M 38.699219 42.050781 L 42.667969 42.050781 L 42.667969 40.066406 L 38.699219 40.066406 Z M 38.699219 42.050781 "/>
<path style=" stroke:none;fill-rule:nonzero;fill:url(#radial1);" d="M 8.929688 39.074219 L 4.960938 39.074219 L 4.960938 44.035156 L 8.929688 44.035156 Z M 8.929688 39.074219 "/>
<path style=" stroke:none;fill-rule:nonzero;fill:url(#radial2);" d="M 7.9375 41.058594 L 3.96875 41.058594 L 3.96875 36.59375 L 7.9375 36.59375 Z M 7.9375 41.058594 "/>
<path style=" stroke:none;fill-rule:nonzero;fill:url(#radial3);" d="M 38.699219 42.050781 L 42.667969 42.050781 L 42.667969 44.035156 L 38.699219 44.035156 Z M 38.699219 42.050781 "/>
<path style=" stroke:none;fill-rule:nonzero;fill:url(#linear1);" d="M 6.945312 4.34375 C 5.847656 4.34375 4.960938 5.230469 4.960938 6.328125 L 4.960938 37.089844 C 4.960938 37.808594 5.457031 38.453125 5.953125 38.949219 L 8.558594 41.554688 L 8.464844 39.074219 L 23.816406 39.074219 L 23.816406 41.554688 L 40.683594 41.554688 C 41.78125 41.554688 42.667969 40.667969 42.667969 39.570312 L 42.667969 8.808594 C 42.667969 8.09375 42.25 7.355469 41.675781 6.949219 L 38.699219 4.839844 C 38.203125 4.34375 37.210938 4.34375 36.714844 4.34375 Z M 6.945312 4.34375 "/>
<path style=" stroke:none;fill-rule:nonzero;fill:url(#radial4);" d="M 38.699219 42.050781 L 42.667969 42.050781 L 42.667969 40.066406 L 38.699219 40.066406 Z M 38.699219 42.050781 "/>
<path style=" stroke:none;fill-rule:nonzero;fill:url(#linear2);" d="M 9.921875 7.320312 L 40.683594 7.320312 C 41.78125 7.320312 42.667969 8.210938 42.667969 9.304688 L 42.667969 40.066406 C 42.667969 41.164062 41.78125 42.050781 40.683594 42.050781 L 9.921875 42.050781 C 8.828125 42.050781 7.9375 41.164062 7.9375 40.066406 L 7.9375 9.304688 C 7.9375 8.210938 8.828125 7.320312 9.921875 7.320312 Z M 9.921875 7.320312 "/>
<path style=" stroke:none;fill-rule:nonzero;fill:rgb(0%,0%,0%);fill-opacity:0.196078;" d="M 9.921875 41.925781 C 8.824219 41.925781 7.9375 41.042969 7.9375 39.941406 L 7.9375 39.695312 C 7.9375 40.792969 8.824219 41.679688 9.921875 41.679688 L 40.683594 41.679688 C 41.78125 41.679688 42.667969 40.792969 42.667969 39.695312 L 42.667969 39.941406 C 42.667969 41.042969 41.78125 41.925781 40.683594 41.925781 Z M 9.921875 41.925781 "/>
<path style=" stroke:none;fill-rule:nonzero;fill:url(#linear3);" d="M 14.882812 12.53125 C 14.335938 12.53125 13.890625 12.972656 13.890625 13.523438 L 13.890625 14.515625 C 13.890625 15.066406 14.335938 15.507812 14.882812 15.507812 L 16.867188 15.507812 L 16.867188 34.359375 L 14.882812 34.359375 C 14.335938 34.359375 13.890625 34.804688 13.890625 35.351562 L 13.890625 36.34375 C 13.890625 36.894531 14.335938 37.335938 14.882812 37.335938 L 21.832031 37.335938 C 22.378906 37.335938 22.824219 36.894531 22.824219 36.34375 L 22.824219 35.351562 C 22.824219 34.804688 22.378906 34.359375 21.832031 34.359375 L 19.84375 34.359375 L 19.84375 23.445312 L 31.753906 36.34375 C 32.496094 37.335938 32.496094 37.335938 32.746094 37.335938 L 36.714844 37.335938 C 37.265625 37.335938 37.707031 36.894531 37.707031 36.34375 L 37.707031 35.351562 C 37.707031 34.804688 37.265625 34.359375 36.714844 34.359375 L 34.730469 34.359375 L 34.730469 15.507812 L 36.714844 15.507812 C 37.265625 15.507812 37.707031 15.066406 37.707031 14.515625 L 37.707031 13.523438 C 37.707031 12.972656 37.265625 12.53125 36.714844 12.53125 L 29.769531 12.53125 C 29.21875 12.53125 28.777344 12.972656 28.777344 13.523438 L 28.777344 14.515625 C 28.777344 15.066406 29.21875 15.507812 29.769531 15.507812 L 31.753906 15.507812 L 31.753906 27.054688 L 19.84375 13.523438 C 19.101562 12.53125 19.101562 12.53125 18.851562 12.53125 Z M 14.882812 12.53125 "/>
<path style=" stroke:none;fill-rule:nonzero;fill:rgb(100%,100%,100%);fill-opacity:0.392157;" d="M 14.882812 12.53125 C 14.335938 12.53125 13.890625 12.972656 13.890625 13.523438 L 13.890625 14.019531 C 13.890625 13.46875 14.335938 13.027344 14.882812 13.027344 L 18.851562 13.027344 C 19.101562 13.027344 19.101562 13.027344 19.84375 14.019531 L 31.753906 27.550781 L 31.753906 27.054688 L 19.84375 13.523438 C 19.101562 12.53125 19.101562 12.53125 18.851562 12.53125 Z M 29.769531 12.53125 C 29.21875 12.53125 28.777344 12.972656 28.777344 13.523438 L 28.777344 14.019531 C 28.777344 13.46875 29.21875 13.027344 29.769531 13.027344 L 36.714844 13.027344 C 37.265625 13.027344 37.707031 13.46875 37.707031 14.019531 L 37.707031 13.523438 C 37.707031 12.972656 37.265625 12.53125 36.714844 12.53125 Z M 14.882812 34.359375 C 14.335938 34.359375 13.890625 34.804688 13.890625 35.351562 L 13.890625 35.847656 C 13.890625 35.300781 14.335938 34.855469 14.882812 34.855469 L 16.867188 34.855469 L 16.867188 34.359375 Z M 19.84375 34.359375 L 19.84375 34.855469 L 21.832031 34.855469 C 22.378906 34.855469 22.824219 35.300781 22.824219 35.847656 L 22.824219 35.351562 C 22.824219 34.804688 22.378906 34.359375 21.832031 34.359375 Z M 34.730469 34.359375 L 34.730469 34.855469 L 36.714844 34.855469 C 37.265625 34.855469 37.707031 35.300781 37.707031 35.847656 L 37.707031 35.351562 C 37.707031 34.804688 37.265625 34.359375 36.714844 34.359375 Z M 34.730469 34.359375 "/>
<path style=" stroke:none;fill-rule:nonzero;fill:rgb(0%,0%,0%);fill-opacity:0.235294;" d="M 13.890625 14.515625 L 13.890625 15.257812 C 13.890625 15.808594 14.335938 16.25 14.882812 16.25 L 16.867188 16.25 L 16.867188 15.507812 L 14.882812 15.507812 C 14.335938 15.507812 13.890625 15.066406 13.890625 14.515625 Z M 28.777344 14.515625 L 28.777344 15.257812 C 28.777344 15.808594 29.21875 16.25 29.769531 16.25 L 31.753906 16.25 L 31.753906 15.507812 L 29.769531 15.507812 C 29.21875 15.507812 28.777344 15.066406 28.777344 14.515625 Z M 37.707031 14.515625 C 37.707031 15.066406 37.265625 15.507812 36.714844 15.507812 L 34.730469 15.507812 L 34.730469 16.25 L 36.714844 16.25 C 37.265625 16.25 37.707031 15.808594 37.707031 15.257812 Z M 19.84375 23.445312 L 19.84375 24.191406 L 31.753906 37.089844 C 32.496094 38.082031 32.496094 38.082031 32.746094 38.082031 L 36.714844 38.082031 C 37.265625 38.082031 37.707031 37.640625 37.707031 37.089844 L 37.707031 36.34375 C 37.707031 36.894531 37.265625 37.335938 36.714844 37.335938 L 32.746094 37.335938 C 32.496094 37.335938 32.496094 37.335938 31.753906 36.34375 Z M 13.890625 36.34375 L 13.890625 37.089844 C 13.890625 37.640625 14.335938 38.082031 14.882812 38.082031 L 21.832031 38.082031 C 22.378906 38.082031 22.824219 37.640625 22.824219 37.089844 L 22.824219 36.34375 C 22.824219 36.894531 22.378906 37.335938 21.832031 37.335938 L 14.882812 37.335938 C 14.335938 37.335938 13.890625 36.894531 13.890625 36.34375 Z M 13.890625 36.34375 "/>
<path style="fill:none;stroke-width:3;stroke-linecap:round;stroke-linejoin:round;stroke:rgb(12.941177%,12.941177%,12.941177%);stroke-opacity:1;stroke-miterlimit:4;" d="M 158.734842 -81.346097 C 152.902065 -81.346097 148.152519 -76.638213 148.152519 -70.763774 L 148.152519 -60.181451 C 148.152519 -54.307012 152.902065 -49.599128 158.734842 -49.599128 L 179.899487 -49.599128 L 179.899487 151.465004 L 158.734842 151.465004 C 152.902065 151.465004 148.152519 156.214551 148.152519 162.047327 L 148.152519 172.62965 C 148.152519 178.504089 152.902065 183.211973 158.734842 183.211973 L 232.852764 183.211973 C 238.68554 183.211973 243.435086 178.504089 243.435086 172.62965 L 243.435086 162.047327 C 243.435086 156.214551 238.68554 151.465004 232.852764 151.465004 L 211.646455 151.465004 L 211.646455 35.059454 L 338.675991 172.62965 C 346.591902 183.211973 346.591902 183.211973 349.258314 183.211973 L 391.587605 183.211973 C 397.462044 183.211973 402.169928 178.504089 402.169928 172.62965 L 402.169928 162.047327 C 402.169928 156.214551 397.462044 151.465004 391.587605 151.465004 L 370.42296 151.465004 L 370.42296 -49.599128 L 391.587605 -49.599128 C 397.462044 -49.599128 402.169928 -54.307012 402.169928 -60.181451 L 402.169928 -70.763774 C 402.169928 -76.638213 397.462044 -81.346097 391.587605 -81.346097 L 317.511346 -81.346097 C 311.636907 -81.346097 306.929023 -76.638213 306.929023 -70.763774 L 306.929023 -60.181451 C 306.929023 -54.307012 311.636907 -49.599128 317.511346 -49.599128 L 338.675991 -49.599128 L 338.675991 73.555778 L 211.646455 -70.763774 C 203.730545 -81.346097 203.730545 -81.346097 201.064133 -81.346097 Z M 158.734842 -81.346097 " transform="matrix(0.093759,0,0,0.093759,0,20.158175)"/>
<path style=" stroke:none;fill-rule:nonzero;fill:rgb(100%,100%,100%);fill-opacity:1;" d="M 9.921875 7.320312 C 8.824219 7.320312 7.9375 8.207031 7.9375 9.304688 L 7.9375 9.800781 C 7.9375 8.703125 8.824219 7.816406 9.921875 7.816406 L 40.683594 7.816406 C 41.78125 7.816406 42.667969 8.703125 42.667969 9.800781 L 42.667969 9.304688 C 42.667969 8.207031 41.78125 7.320312 40.683594 7.320312 Z M 9.921875 7.320312 "/>
<path style="fill:none;stroke-width:3;stroke-linecap:round;stroke-linejoin:miter;stroke:rgb(12.941177%,12.941177%,12.941177%);stroke-opacity:1;stroke-miterlimit:4;" d="M 105.823228 -136.924123 L 433.916896 -136.924123 C 445.624112 -136.924123 455.081542 -127.42503 455.081542 -115.759477 L 455.081542 212.334192 C 455.081542 224.041407 445.624112 233.498837 433.916896 233.498837 L 105.823228 233.498837 C 94.157675 233.498837 84.658582 224.041407 84.658582 212.334192 L 84.658582 -115.759477 C 84.658582 -127.42503 94.157675 -136.924123 105.823228 -136.924123 Z M 105.823228 -136.924123 " transform="matrix(0.093759,0,0,0.093759,0,20.158175)"/>
</g>
</svg>
