<?xml version="1.0" encoding="UTF-8"?>
<svg xmlns="http://www.w3.org/2000/svg" xmlns:xlink="http://www.w3.org/1999/xlink" width="48pt" height="48pt" viewBox="0 0 48 48" version="1.1">
<defs>
<linearGradient id="linear0" gradientUnits="userSpaceOnUse" x1="254" y1="233.5" x2="254" y2="254.666672" gradientTransform="matrix(0.093759,0,0,0.093759,-0.00000572259,20.158178)">
<stop offset="0" style="stop-color:rgb(0%,0%,0%);stop-opacity:0.27451;"/>
<stop offset="1" style="stop-color:rgb(0%,0%,0%);stop-opacity:0;"/>
</linearGradient>
<radialGradient id="radial0" gradientUnits="userSpaceOnUse" cx="450.908936" cy="189.579361" fx="450.908936" fy="189.579361" r="21.166656" gradientTransform="matrix(0.000000261256,-0.117199,-0.210958,-0.000000152308,69.761579,95.392999)">
<stop offset="0" style="stop-color:rgb(0%,0%,0%);stop-opacity:0.313726;"/>
<stop offset="0.222222" style="stop-color:rgb(0%,0%,0%);stop-opacity:0.27451;"/>
<stop offset="1" style="stop-color:rgb(0%,0%,0%);stop-opacity:0;"/>
</radialGradient>
<radialGradient id="radial1" gradientUnits="userSpaceOnUse" cx="450.908936" cy="189.579361" fx="450.908936" fy="189.579361" r="21.166656" gradientTransform="matrix(-0.000000261256,0.117199,0.210958,0.000000152308,-22.132029,-11.291218)">
<stop offset="0" style="stop-color:rgb(0%,0%,0%);stop-opacity:0.313726;"/>
<stop offset="0.222222" style="stop-color:rgb(0%,0%,0%);stop-opacity:0.27451;"/>
<stop offset="1" style="stop-color:rgb(0%,0%,0%);stop-opacity:0;"/>
</radialGradient>
<radialGradient id="radial2" gradientUnits="userSpaceOnUse" cx="450.908936" cy="189.579361" fx="450.908936" fy="189.579361" r="21.166656" gradientTransform="matrix(-0.000000261256,-0.117199,0.210958,-0.000000152308,-22.132029,95.392999)">
<stop offset="0" style="stop-color:rgb(0%,0%,0%);stop-opacity:0.313726;"/>
<stop offset="0.222222" style="stop-color:rgb(0%,0%,0%);stop-opacity:0.27451;"/>
<stop offset="1" style="stop-color:rgb(0%,0%,0%);stop-opacity:0;"/>
</radialGradient>
<radialGradient id="radial3" gradientUnits="userSpaceOnUse" cx="450.908936" cy="189.579361" fx="450.908936" fy="189.579361" r="21.166656" gradientTransform="matrix(0.000000261256,0.117199,-0.210958,0.000000152308,69.761576,-11.291219)">
<stop offset="0" style="stop-color:rgb(0%,0%,0%);stop-opacity:0.313726;"/>
<stop offset="0.222222" style="stop-color:rgb(0%,0%,0%);stop-opacity:0.27451;"/>
<stop offset="1" style="stop-color:rgb(0%,0%,0%);stop-opacity:0;"/>
</radialGradient>
<linearGradient id="linear1" gradientUnits="userSpaceOnUse" x1="960" y1="1715.118164" x2="960" y2="215.118118" gradientTransform="matrix(0.0248071,0,0,0.0248071,0,0.00000000000000282)">
<stop offset="0" style="stop-color:rgb(37.64706%,49.019608%,54.509807%);stop-opacity:1;"/>
<stop offset="1" style="stop-color:rgb(47.058824%,56.470591%,61.176473%);stop-opacity:1;"/>
</linearGradient>
<linearGradient id="linear2" gradientUnits="userSpaceOnUse" x1="254" y1="222.916672" x2="254" y2="-147.5" gradientTransform="matrix(0.093759,0,0,0.093759,0,20.158175)">
<stop offset="0" style="stop-color:rgb(56.470591%,64.313728%,68.235296%);stop-opacity:1;"/>
<stop offset="1" style="stop-color:rgb(69.01961%,74.509805%,77.254903%);stop-opacity:1;"/>
</linearGradient>
</defs>
<g id="surface1">
<path style=" stroke:none;fill-rule:nonzero;fill:url(#linear0);" d="M 17.363281 42.050781 L 30.265625 42.050781 L 30.265625 44.035156 L 17.363281 44.035156 Z M 17.363281 42.050781 "/>
<path style=" stroke:none;fill-rule:nonzero;fill:url(#radial0);" d="M 30.265625 42.050781 L 34.234375 42.050781 L 34.234375 40.066406 L 30.265625 40.066406 Z M 30.265625 42.050781 "/>
<path style=" stroke:none;fill-rule:nonzero;fill:url(#radial1);" d="M 17.363281 42.050781 L 13.394531 42.050781 L 13.394531 44.035156 L 17.363281 44.035156 Z M 17.363281 42.050781 "/>
<path style=" stroke:none;fill-rule:nonzero;fill:url(#radial2);" d="M 17.363281 42.050781 L 13.394531 42.050781 L 13.394531 40.066406 L 17.363281 40.066406 Z M 17.363281 42.050781 "/>
<path style=" stroke:none;fill-rule:nonzero;fill:url(#radial3);" d="M 30.265625 42.050781 L 34.234375 42.050781 L 34.234375 44.035156 L 30.265625 44.035156 Z M 30.265625 42.050781 "/>
<path style=" stroke:none;fill-rule:nonzero;fill:url(#linear1);" d="M 15.875 5.335938 C 9.921875 22.207031 20.839844 24.191406 22.824219 26.175781 L 22.328125 38.082031 C 22.328125 39.074219 21.832031 40.066406 20.839844 40.066406 L 16.371094 40.066406 C 15.824219 40.066406 15.378906 40.488281 15.378906 41.015625 L 15.378906 41.101562 C 15.378906 41.628906 15.824219 42.050781 16.371094 42.050781 L 31.257812 42.050781 C 31.804688 42.050781 32.25 41.628906 32.25 41.101562 L 32.25 41.015625 C 32.25 40.488281 31.804688 40.066406 31.257812 40.066406 L 26.792969 40.066406 C 25.800781 40.066406 25.304688 39.074219 25.304688 38.082031 L 24.808594 26.175781 C 26.792969 24.191406 37.707031 22.207031 31.753906 5.335938 Z M 15.875 5.335938 "/>
<path style=" stroke:none;fill-rule:nonzero;fill:rgb(100%,100%,100%);fill-opacity:0.392157;" d="M 15.875 5.335938 C 14.601562 8.945312 14.101562 11.875 14.121094 14.265625 C 14.136719 11.921875 14.644531 9.070312 15.875 5.585938 L 31.753906 5.585938 C 32.984375 9.070312 33.492188 11.921875 33.511719 14.265625 C 33.527344 11.875 33.027344 8.945312 31.753906 5.335938 Z M 22.8125 26.414062 L 22.328125 38.082031 C 22.328125 39.074219 21.832031 40.066406 20.839844 40.066406 L 16.371094 40.066406 C 15.824219 40.066406 15.378906 40.488281 15.378906 41.015625 L 15.378906 41.101562 C 15.378906 41.128906 15.382812 41.15625 15.382812 41.183594 C 15.425781 40.695312 15.851562 40.3125 16.371094 40.3125 L 20.839844 40.3125 C 21.832031 40.3125 22.328125 39.320312 22.328125 38.328125 L 22.824219 26.421875 C 22.820312 26.417969 22.816406 26.417969 22.8125 26.414062 Z M 24.816406 26.414062 C 24.8125 26.417969 24.808594 26.417969 24.808594 26.421875 L 25.304688 38.328125 C 25.304688 39.320312 25.800781 40.3125 26.792969 40.3125 L 31.257812 40.3125 C 31.777344 40.3125 32.203125 40.695312 32.246094 41.183594 C 32.246094 41.15625 32.25 41.128906 32.25 41.101562 L 32.25 41.015625 C 32.25 40.488281 31.804688 40.066406 31.257812 40.066406 L 26.792969 40.066406 C 25.800781 40.066406 25.304688 39.074219 25.304688 38.082031 Z M 24.816406 26.414062 "/>
<path style=" stroke:none;fill-rule:nonzero;fill:rgb(0%,0%,0%);fill-opacity:0.235294;" d="M 14.121094 14.054688 C 14.074219 23.015625 21.226562 24.597656 22.816406 26.167969 L 22.824219 25.988281 C 21.261719 24.429688 14.171875 22.867188 14.121094 14.054688 Z M 33.511719 14.054688 C 33.457031 22.867188 26.367188 24.429688 24.808594 25.988281 L 24.816406 26.167969 C 26.402344 24.597656 33.554688 23.015625 33.511719 14.054688 Z M 15.382812 40.964844 C 15.378906 40.980469 15.378906 40.996094 15.378906 41.015625 L 15.378906 41.101562 C 15.378906 41.628906 15.824219 42.050781 16.371094 42.050781 L 31.257812 42.050781 C 31.804688 42.050781 32.25 41.628906 32.25 41.101562 L 32.25 41.015625 C 32.25 40.996094 32.25 40.980469 32.246094 40.964844 C 32.222656 41.46875 31.789062 41.867188 31.257812 41.867188 L 16.371094 41.867188 C 15.839844 41.867188 15.40625 41.46875 15.382812 40.964844 Z M 15.382812 40.964844 "/>
<path style=" stroke:none;fill-rule:nonzero;fill:rgb(12.941177%,12.941177%,12.941177%);fill-opacity:1;" d="M 15.875 5.195312 C 15.816406 5.195312 15.765625 5.234375 15.742188 5.289062 C 12.757812 13.75 14 18.53125 16.261719 21.421875 C 17.394531 22.871094 18.773438 23.839844 19.988281 24.574219 C 21.171875 25.285156 22.203125 25.785156 22.679688 26.234375 L 22.1875 38.074219 C 22.1875 38.554688 22.066406 39.027344 21.835938 39.367188 C 21.609375 39.710938 21.289062 39.925781 20.835938 39.925781 L 16.371094 39.925781 C 15.75 39.925781 15.238281 40.410156 15.238281 41.015625 L 15.238281 41.101562 C 15.238281 41.707031 15.75 42.191406 16.371094 42.191406 L 31.257812 42.191406 C 31.878906 42.191406 32.390625 41.707031 32.390625 41.101562 L 32.390625 41.015625 C 32.390625 40.410156 31.878906 39.925781 31.257812 39.925781 L 26.792969 39.925781 C 26.34375 39.925781 26.019531 39.710938 25.792969 39.367188 C 25.5625 39.027344 25.445312 38.554688 25.445312 38.082031 L 24.949219 26.234375 C 25.429688 25.785156 26.457031 25.285156 27.640625 24.574219 C 28.855469 23.839844 30.234375 22.871094 31.367188 21.421875 C 33.632812 18.53125 34.871094 13.75 31.886719 5.289062 C 31.867188 5.234375 31.8125 5.195312 31.753906 5.195312 Z M 15.976562 5.476562 L 31.652344 5.476562 C 34.578125 13.824219 33.339844 18.449219 31.144531 21.25 C 30.046875 22.65625 28.695312 23.609375 27.496094 24.332031 C 26.292969 25.058594 25.242188 25.542969 24.707031 26.074219 C 24.679688 26.101562 24.664062 26.140625 24.667969 26.179688 L 25.164062 38.085938 L 25.164062 38.082031 C 25.164062 38.601562 25.289062 39.121094 25.558594 39.523438 C 25.828125 39.925781 26.25 40.207031 26.792969 40.207031 L 31.257812 40.207031 C 31.734375 40.207031 32.109375 40.566406 32.109375 41.015625 L 32.109375 41.101562 C 32.109375 41.550781 31.734375 41.910156 31.257812 41.910156 L 16.371094 41.910156 C 15.894531 41.910156 15.519531 41.550781 15.519531 41.101562 L 15.519531 41.015625 C 15.519531 40.566406 15.894531 40.207031 16.371094 40.207031 L 20.835938 40.207031 C 21.382812 40.207031 21.804688 39.925781 22.070312 39.523438 C 22.339844 39.121094 22.46875 38.601562 22.46875 38.082031 L 22.464844 38.085938 L 22.964844 26.179688 C 22.964844 26.140625 22.949219 26.101562 22.921875 26.074219 C 22.386719 25.542969 21.335938 25.058594 20.136719 24.332031 C 18.933594 23.609375 17.585938 22.65625 16.484375 21.25 C 14.289062 18.449219 13.050781 13.824219 15.976562 5.476562 Z M 15.976562 5.476562 "/>
<path style=" stroke:none;fill-rule:nonzero;fill:url(#linear2);" d="M 31.015625 5.910156 C 28.074219 6 25.117188 5.921875 22.167969 5.949219 C 20.214844 5.949219 18.265625 5.949219 16.3125 5.949219 C 15.0625 9.683594 14.136719 13.773438 15.191406 17.667969 C 15.992188 20.71875 18.488281 23.039062 21.234375 24.421875 C 21.976562 24.859375 22.832031 25.234375 23.351562 25.941406 C 23.53125 27.347656 23.238281 28.75 23.261719 30.160156 C 23.109375 33.148438 23.125 36.160156 22.792969 39.132812 C 22.476562 40.253906 21.238281 40.917969 20.121094 40.6875 C 18.777344 40.734375 17.378906 40.535156 16.070312 40.800781 C 15.804688 41.175781 16.273438 41.625 16.660156 41.4375 C 21.605469 41.402344 26.566406 41.519531 31.5 41.375 C 31.851562 41.0625 31.429688 40.472656 31.011719 40.671875 C 29.355469 40.609375 27.660156 40.847656 26.027344 40.523438 C 24.808594 39.972656 24.597656 38.457031 24.660156 37.265625 C 24.535156 33.515625 24.269531 29.753906 24.242188 26.007812 C 24.914062 24.964844 26.21875 24.671875 27.1875 23.984375 C 29.652344 22.546875 31.855469 20.308594 32.496094 17.433594 C 33.460938 13.640625 32.546875 9.679688 31.347656 6.050781 C 31.277344 5.9375 31.140625 5.894531 31.015625 5.910156 Z M 31.015625 5.910156 "/>
<path style="fill-rule:nonzero;fill:rgb(92.54902%,25.098041%,47.843137%);fill-opacity:1;stroke-width:11.338583;stroke-linecap:square;stroke-linejoin:round;stroke:rgb(12.941177%,12.941177%,12.941177%);stroke-opacity:1;stroke-miterlimit:4;" d="M 1321.763611 640.253853 C 1258.777497 649.859236 1190.909958 655.05559 1120.05058 655.05559 L 799.923653 655.05559 C 729.22174 655.05559 661.354201 649.859236 598.368087 640.253853 C 601.359927 664.346042 605.926421 688.438231 612.382497 712.215489 C 644.190485 833.621224 742.606289 926.210813 851.572267 982.268454 C 886.372095 977.544496 922.746576 975.182517 960.065849 975.182517 C 997.857518 975.182517 1034.86186 977.701961 1070.134084 982.42592 C 1079.109605 977.701961 1087.770196 972.663072 1095.958391 966.836856 C 1195.318986 908.889631 1284.129408 818.662022 1309.953715 702.767572 C 1315.150069 681.982154 1319.086701 661.196736 1321.763611 640.253853 Z M 1321.763611 640.253853 " transform="matrix(0.0248071,0,0,0.0248071,0,0)"/>
<path style=" stroke:none;fill-rule:nonzero;fill:rgb(92.54902%,93.725491%,94.509804%);fill-opacity:0.392157;" d="M 19.84375 22.207031 C 19.84375 22.207031 14.882812 18.234375 15.875 14.265625 C 16.921875 11.828125 19.09375 20.328125 19.84375 22.207031 Z M 19.84375 22.207031 "/>
<path style=" stroke:none;fill-rule:nonzero;fill:rgb(100%,100%,100%);fill-opacity:0.392157;" d="M 16.316406 5.90625 C 16.332031 5.90625 16.347656 5.90625 16.363281 5.910156 C 19.304688 6 22.261719 5.921875 25.210938 5.949219 L 31.0625 5.949219 C 31.160156 6.238281 31.257812 6.53125 31.347656 6.824219 C 28.628906 4.976562 17.832031 8.285156 16.027344 6.050781 C 16.089844 5.953125 16.203125 5.90625 16.316406 5.90625 Z M 16.316406 5.90625 "/>
<path style=" stroke:none;fill-rule:nonzero;fill:rgb(92.54902%,93.725491%,94.509804%);fill-opacity:0.392157;" d="M 29.636719 7.597656 C 29.636719 7.597656 32.359375 11.585938 30.761719 14.265625 C 29.460938 15.820312 29.765625 9.132812 29.636719 7.597656 Z M 29.636719 7.597656 "/>
</g>
</svg>
