<?xml version="1.0" encoding="UTF-8"?>
<svg xmlns="http://www.w3.org/2000/svg" xmlns:xlink="http://www.w3.org/1999/xlink" width="48px" height="48px" viewBox="0 0 48 48" version="1.1">
<defs>
<linearGradient id="linear0" gradientUnits="userSpaceOnUse" x1="254" y1="233.5" x2="254" y2="254.666672" gradientTransform="matrix(0.09375,0,0,0.09375,-0.00000572205,20.156253)">
<stop offset="0" style="stop-color:rgb(0%,0%,0%);stop-opacity:0.27451;"/>
<stop offset="1" style="stop-color:rgb(0%,0%,0%);stop-opacity:0;"/>
</linearGradient>
<radialGradient id="radial0" gradientUnits="userSpaceOnUse" cx="450.908936" cy="189.579361" fx="450.908936" fy="189.579361" r="21.166656" gradientTransform="matrix(0.000000261231,-0.117188,-0.210938,-0.000000152293,73.227569,95.38389)">
<stop offset="0" style="stop-color:rgb(0%,0%,0%);stop-opacity:0.313726;"/>
<stop offset="0.222222" style="stop-color:rgb(0%,0%,0%);stop-opacity:0.27451;"/>
<stop offset="1" style="stop-color:rgb(0%,0%,0%);stop-opacity:0;"/>
</radialGradient>
<radialGradient id="radial1" gradientUnits="userSpaceOnUse" cx="450.908936" cy="189.579361" fx="450.908936" fy="189.579361" r="21.166656" gradientTransform="matrix(-0.000000261231,0.117188,0.210938,0.000000152293,-25.602568,-11.29014)">
<stop offset="0" style="stop-color:rgb(0%,0%,0%);stop-opacity:0.313726;"/>
<stop offset="0.222222" style="stop-color:rgb(0%,0%,0%);stop-opacity:0.27451;"/>
<stop offset="1" style="stop-color:rgb(0%,0%,0%);stop-opacity:0;"/>
</radialGradient>
<radialGradient id="radial2" gradientUnits="userSpaceOnUse" cx="450.908936" cy="189.579361" fx="450.908936" fy="189.579361" r="21.166656" gradientTransform="matrix(-0.000000261231,-0.117188,0.210938,-0.000000152293,-25.602568,95.38389)">
<stop offset="0" style="stop-color:rgb(0%,0%,0%);stop-opacity:0.313726;"/>
<stop offset="0.222222" style="stop-color:rgb(0%,0%,0%);stop-opacity:0.27451;"/>
<stop offset="1" style="stop-color:rgb(0%,0%,0%);stop-opacity:0;"/>
</radialGradient>
<radialGradient id="radial3" gradientUnits="userSpaceOnUse" cx="450.908936" cy="189.579361" fx="450.908936" fy="189.579361" r="21.166656" gradientTransform="matrix(0.000000261231,0.117188,-0.210938,0.000000152293,73.227566,-11.290141)">
<stop offset="0" style="stop-color:rgb(0%,0%,0%);stop-opacity:0.313726;"/>
<stop offset="0.222222" style="stop-color:rgb(0%,0%,0%);stop-opacity:0.27451;"/>
<stop offset="1" style="stop-color:rgb(0%,0%,0%);stop-opacity:0;"/>
</radialGradient>
<linearGradient id="linear1" gradientUnits="userSpaceOnUse" x1="306.916656" y1="-25.791676" x2="305.954559" y2="-141.414581" gradientTransform="matrix(0.113014,0,0,0.326087,-8.780181,50.457204)">
<stop offset="0" style="stop-color:rgb(74.117649%,74.117649%,74.117649%);stop-opacity:1;"/>
<stop offset="1" style="stop-color:rgb(87.843138%,87.843138%,87.843138%);stop-opacity:1;"/>
</linearGradient>
<linearGradient id="linear2" gradientUnits="userSpaceOnUse" x1="254.000046" y1="127.666946" x2="254.000046" y2="-147.49971" gradientTransform="matrix(0.09375,0,0,0.09375,-0.000004125,20.156223)">
<stop offset="0" style="stop-color:rgb(74.117649%,74.117649%,74.117649%);stop-opacity:1;"/>
<stop offset="1" style="stop-color:rgb(87.843138%,87.843138%,87.843138%);stop-opacity:1;"/>
</linearGradient>
</defs>
<g id="surface1">
<path style=" stroke:none;fill-rule:nonzero;fill:url(#linear0);" d="M 13.890625 42.046875 L 33.734375 42.046875 L 33.734375 44.03125 L 13.890625 44.03125 Z M 13.890625 42.046875 "/>
<path style=" stroke:none;fill-rule:nonzero;fill:url(#radial0);" d="M 33.734375 42.046875 L 37.703125 42.046875 L 37.703125 40.0625 L 33.734375 40.0625 Z M 33.734375 42.046875 "/>
<path style=" stroke:none;fill-rule:nonzero;fill:url(#radial1);" d="M 13.890625 42.046875 L 9.921875 42.046875 L 9.921875 44.03125 L 13.890625 44.03125 Z M 13.890625 42.046875 "/>
<path style=" stroke:none;fill-rule:nonzero;fill:url(#radial2);" d="M 13.890625 42.046875 L 9.921875 42.046875 L 9.921875 40.0625 L 13.890625 40.0625 Z M 13.890625 42.046875 "/>
<path style=" stroke:none;fill-rule:nonzero;fill:url(#radial3);" d="M 33.734375 42.046875 L 37.703125 42.046875 L 37.703125 44.03125 L 33.734375 44.03125 Z M 33.734375 42.046875 "/>
<path style=" stroke:none;fill-rule:nonzero;fill:url(#linear1);" d="M 11.90625 4.34375 L 35.71875 4.34375 C 36.816406 4.34375 37.703125 5.230469 37.703125 6.328125 L 37.703125 40.0625 C 37.703125 41.160156 36.816406 42.046875 35.71875 42.046875 L 11.90625 42.046875 C 10.808594 42.046875 9.921875 41.160156 9.921875 40.0625 L 9.921875 6.328125 C 9.921875 5.230469 10.808594 4.34375 11.90625 4.34375 Z M 11.90625 4.34375 "/>
<path style=" stroke:none;fill-rule:nonzero;fill:rgb(0%,0%,0%);fill-opacity:0.196078;" d="M 11.90625 42.046875 C 10.808594 42.046875 9.921875 41.160156 9.921875 40.0625 L 9.921875 39.816406 C 9.921875 40.914062 10.808594 41.800781 11.90625 41.800781 L 35.71875 41.800781 C 36.816406 41.800781 37.703125 40.914062 37.703125 39.816406 L 37.703125 40.0625 C 37.703125 41.160156 36.816406 42.046875 35.71875 42.046875 Z M 11.90625 42.046875 "/>
<path style=" stroke:none;fill-rule:nonzero;fill:rgb(100%,100%,100%);fill-opacity:0.862745;" d="M 11.90625 4.476562 C 10.808594 4.476562 9.921875 5.363281 9.921875 6.460938 L 9.921875 6.710938 C 9.921875 5.609375 10.808594 4.722656 11.90625 4.726562 L 35.71875 4.726562 C 36.816406 4.722656 37.703125 5.609375 37.703125 6.710938 L 37.703125 6.460938 C 37.703125 5.363281 36.816406 4.476562 35.71875 4.476562 Z M 11.90625 4.476562 "/>
<path style=" stroke:none;fill-rule:nonzero;fill:rgb(12.941177%,12.941177%,12.941177%);fill-opacity:1;" d="M 11.90625 4.203125 C 10.730469 4.203125 9.78125 5.152344 9.78125 6.328125 L 9.78125 40.0625 C 9.78125 41.238281 10.730469 42.1875 11.90625 42.1875 L 35.71875 42.1875 C 36.894531 42.1875 37.84375 41.238281 37.84375 40.0625 L 37.84375 6.328125 C 37.84375 5.152344 36.894531 4.203125 35.71875 4.203125 Z M 11.90625 4.484375 L 35.71875 4.484375 C 36.742188 4.484375 37.5625 5.304688 37.5625 6.328125 L 37.5625 40.0625 C 37.5625 41.085938 36.742188 41.90625 35.71875 41.90625 L 11.90625 41.90625 C 10.882812 41.90625 10.0625 41.085938 10.0625 40.0625 L 10.0625 6.328125 C 10.0625 5.304688 10.882812 4.484375 11.90625 4.484375 Z M 11.90625 4.484375 "/>
<path style=" stroke:none;fill-rule:nonzero;fill:rgb(74.117649%,74.117649%,74.117649%);fill-opacity:0.392157;" d="M 12.898438 6.328125 C 13.445312 6.328125 13.890625 6.773438 13.890625 7.320312 C 13.890625 7.867188 13.445312 8.3125 12.898438 8.3125 C 12.351562 8.3125 11.90625 7.867188 11.90625 7.320312 C 11.90625 6.773438 12.351562 6.328125 12.898438 6.328125 Z M 12.898438 6.328125 "/>
<path style=" stroke:none;fill-rule:nonzero;fill:rgb(74.117649%,74.117649%,74.117649%);fill-opacity:0.392157;" d="M 34.726562 6.328125 C 35.273438 6.328125 35.71875 6.773438 35.71875 7.320312 C 35.71875 7.867188 35.273438 8.3125 34.726562 8.3125 C 34.179688 8.3125 33.734375 7.867188 33.734375 7.320312 C 33.734375 6.773438 34.179688 6.328125 34.726562 6.328125 Z M 34.726562 6.328125 "/>
<path style=" stroke:none;fill-rule:nonzero;fill:rgb(74.117649%,74.117649%,74.117649%);fill-opacity:0.392157;" d="M 34.726562 38.078125 C 35.273438 38.078125 35.71875 38.523438 35.71875 39.070312 C 35.71875 39.617188 35.273438 40.0625 34.726562 40.0625 C 34.179688 40.0625 33.734375 39.617188 33.734375 39.070312 C 33.734375 38.523438 34.179688 38.078125 34.726562 38.078125 Z M 34.726562 38.078125 "/>
<path style=" stroke:none;fill-rule:nonzero;fill:rgb(74.117649%,74.117649%,74.117649%);fill-opacity:0.392157;" d="M 12.898438 38.078125 C 13.445312 38.078125 13.890625 38.523438 13.890625 39.070312 C 13.890625 39.617188 13.445312 40.0625 12.898438 40.0625 C 12.351562 40.0625 11.90625 39.617188 11.90625 39.070312 C 11.90625 38.523438 12.351562 38.078125 12.898438 38.078125 Z M 12.898438 38.078125 "/>
<path style=" stroke:none;fill-rule:nonzero;fill:rgb(0%,0%,0%);fill-opacity:0.235294;" d="M 14.636719 34.109375 L 21.828125 34.109375 C 22.375 34.109375 22.820312 34.554688 22.820312 35.101562 C 22.820312 35.648438 22.375 36.09375 21.828125 36.09375 L 14.636719 36.09375 C 14.085938 36.09375 13.644531 35.648438 13.644531 35.101562 C 13.644531 34.554688 14.085938 34.109375 14.636719 34.109375 Z M 14.636719 34.109375 "/>
<path style=" stroke:none;fill-rule:nonzero;fill:rgb(0%,0%,0%);fill-opacity:0.235294;" d="M 14.632812 34.109375 C 14.085938 34.109375 13.640625 34.550781 13.640625 35.101562 L 13.640625 35.597656 C 13.640625 35.046875 14.085938 34.605469 14.632812 34.605469 L 21.828125 34.605469 C 22.378906 34.605469 22.820312 35.046875 22.820312 35.597656 L 22.820312 35.101562 C 22.820312 34.550781 22.378906 34.109375 21.828125 34.109375 Z M 14.632812 34.109375 "/>
<path style=" stroke:none;fill-rule:nonzero;fill:rgb(100%,100%,100%);fill-opacity:0.470588;" d="M 14.636719 36.589844 C 14.085938 36.589844 13.640625 36.148438 13.640625 35.597656 L 13.640625 35.101562 C 13.640625 35.652344 14.085938 36.09375 14.636719 36.09375 L 21.828125 36.09375 C 22.378906 36.09375 22.820312 35.652344 22.820312 35.101562 L 22.820312 35.597656 C 22.820312 36.148438 22.378906 36.589844 21.828125 36.589844 Z M 14.636719 36.589844 "/>
<path style="fill:none;stroke-width:3;stroke-linecap:round;stroke-linejoin:miter;stroke:rgb(12.941177%,12.941177%,12.941177%);stroke-opacity:1;stroke-miterlimit:4;" d="M 158.770833 148.833333 L 235.479167 148.833333 C 241.3125 148.833333 246.0625 153.583333 246.0625 159.416667 C 246.0625 165.25 241.3125 170 235.479167 170 L 158.770833 170 C 152.895833 170 148.1875 165.25 148.1875 159.416667 C 148.1875 153.583333 152.895833 148.833333 158.770833 148.833333 Z M 158.770833 148.833333 " transform="matrix(0.09375,0,0,0.09375,-0.248047,20.15625)"/>
<path style=" stroke:none;fill-rule:nonzero;fill:rgb(100%,100%,100%);fill-opacity:0.392157;" d="M 12.898438 6.453125 C 12.347656 6.453125 11.90625 6.894531 11.90625 7.445312 C 11.90625 7.488281 11.910156 7.527344 11.914062 7.570312 C 11.976562 7.078125 12.390625 6.699219 12.898438 6.699219 C 13.40625 6.699219 13.820312 7.078125 13.882812 7.570312 C 13.886719 7.527344 13.890625 7.488281 13.890625 7.445312 C 13.890625 6.894531 13.449219 6.453125 12.898438 6.453125 Z M 34.726562 6.453125 C 34.175781 6.453125 33.734375 6.894531 33.734375 7.445312 C 33.734375 7.488281 33.738281 7.527344 33.742188 7.570312 C 33.804688 7.078125 34.21875 6.699219 34.726562 6.699219 C 35.234375 6.699219 35.648438 7.078125 35.710938 7.570312 C 35.714844 7.527344 35.71875 7.488281 35.71875 7.445312 C 35.71875 6.894531 35.277344 6.453125 34.726562 6.453125 Z M 12.898438 38.203125 C 12.347656 38.203125 11.90625 38.644531 11.90625 39.195312 C 11.90625 39.238281 11.910156 39.277344 11.914062 39.316406 C 11.976562 38.828125 12.390625 38.449219 12.898438 38.449219 C 13.40625 38.449219 13.820312 38.828125 13.882812 39.316406 C 13.886719 39.277344 13.890625 39.238281 13.890625 39.195312 C 13.890625 38.644531 13.449219 38.203125 12.898438 38.203125 Z M 34.726562 38.203125 C 34.175781 38.203125 33.734375 38.644531 33.734375 39.195312 C 33.734375 39.238281 33.738281 39.277344 33.742188 39.316406 C 33.804688 38.828125 34.21875 38.449219 34.726562 38.449219 C 35.234375 38.449219 35.648438 38.828125 35.710938 39.316406 C 35.714844 39.277344 35.71875 39.238281 35.71875 39.195312 C 35.71875 38.644531 35.277344 38.203125 34.726562 38.203125 Z M 34.726562 38.203125 "/>
<path style=" stroke:none;fill-rule:nonzero;fill:rgb(0%,0%,0%);fill-opacity:0.235294;" d="M 12.898438 40.433594 C 12.347656 40.433594 11.90625 39.992188 11.90625 39.441406 C 11.90625 39.398438 11.910156 39.359375 11.914062 39.316406 C 11.976562 39.808594 12.390625 40.1875 12.898438 40.1875 C 13.40625 40.1875 13.820312 39.808594 13.882812 39.316406 C 13.886719 39.359375 13.890625 39.398438 13.890625 39.441406 C 13.890625 39.992188 13.449219 40.433594 12.898438 40.433594 Z M 34.726562 40.433594 C 34.175781 40.433594 33.734375 39.992188 33.734375 39.441406 C 33.734375 39.398438 33.738281 39.359375 33.742188 39.316406 C 33.804688 39.808594 34.21875 40.1875 34.726562 40.1875 C 35.234375 40.1875 35.648438 39.808594 35.710938 39.316406 C 35.714844 39.359375 35.71875 39.398438 35.71875 39.441406 C 35.71875 39.992188 35.277344 40.433594 34.726562 40.433594 Z M 12.898438 8.683594 C 12.347656 8.683594 11.90625 8.242188 11.90625 7.691406 C 11.90625 7.648438 11.910156 7.609375 11.914062 7.570312 C 11.976562 8.058594 12.390625 8.4375 12.898438 8.4375 C 13.40625 8.4375 13.820312 8.058594 13.882812 7.570312 C 13.886719 7.609375 13.890625 7.648438 13.890625 7.691406 C 13.890625 8.242188 13.449219 8.683594 12.898438 8.683594 Z M 34.726562 8.683594 C 34.175781 8.683594 33.734375 8.242188 33.734375 7.691406 C 33.734375 7.648438 33.738281 7.609375 33.742188 7.570312 C 33.804688 8.058594 34.21875 8.4375 34.726562 8.4375 C 35.234375 8.4375 35.648438 8.058594 35.710938 7.570312 C 35.714844 7.609375 35.71875 7.648438 35.71875 7.691406 C 35.71875 8.242188 35.277344 8.683594 34.726562 8.683594 Z M 34.726562 8.683594 "/>
<path style="fill:none;stroke-width:2.999999;stroke-linecap:round;stroke-linejoin:miter;stroke:rgb(12.941177%,12.941177%,12.941177%);stroke-opacity:1;stroke-miterlimit:4;" d="M 137.583333 -147.5 C 143.416667 -147.5 148.166667 -142.75 148.166667 -136.916667 C 148.166667 -131.083333 143.416667 -126.333333 137.583333 -126.333333 C 131.75 -126.333333 127 -131.083333 127 -136.916667 C 127 -142.75 131.75 -147.5 137.583333 -147.5 Z M 137.583333 -147.5 " transform="matrix(0.09375,0,0,0.09375,0,20.15625)"/>
<path style="fill:none;stroke-width:3;stroke-linecap:round;stroke-linejoin:miter;stroke:rgb(12.941177%,12.941177%,12.941177%);stroke-opacity:1;stroke-miterlimit:4;" d="M 370.416667 -147.5 C 376.25 -147.5 381 -142.75 381 -136.916667 C 381 -131.083333 376.25 -126.333333 370.416667 -126.333333 C 364.583333 -126.333333 359.833333 -131.083333 359.833333 -136.916667 C 359.833333 -142.75 364.583333 -147.5 370.416667 -147.5 Z M 370.416667 -147.5 " transform="matrix(0.09375,0,0,0.09375,0,20.15625)"/>
<path style="fill:none;stroke-width:3;stroke-linecap:round;stroke-linejoin:miter;stroke:rgb(12.941177%,12.941177%,12.941177%);stroke-opacity:1;stroke-miterlimit:4;" d="M 370.416667 191.166667 C 376.25 191.166667 381 195.916667 381 201.75 C 381 207.583333 376.25 212.333333 370.416667 212.333333 C 364.583333 212.333333 359.833333 207.583333 359.833333 201.75 C 359.833333 195.916667 364.583333 191.166667 370.416667 191.166667 Z M 370.416667 191.166667 " transform="matrix(0.09375,0,0,0.09375,0,20.15625)"/>
<path style="fill:none;stroke-width:3;stroke-linecap:round;stroke-linejoin:miter;stroke:rgb(12.941177%,12.941177%,12.941177%);stroke-opacity:1;stroke-miterlimit:4;" d="M 137.583333 191.166667 C 143.416667 191.166667 148.166667 195.916667 148.166667 201.75 C 148.166667 207.583333 143.416667 212.333333 137.583333 212.333333 C 131.75 212.333333 127 207.583333 127 201.75 C 127 195.916667 131.75 191.166667 137.583333 191.166667 Z M 137.583333 191.166667 " transform="matrix(0.09375,0,0,0.09375,0,20.15625)"/>
<path style=" stroke:none;fill-rule:nonzero;fill:url(#linear2);" d="M 23.8125 10.296875 C 28.746094 10.296875 32.742188 14.292969 32.742188 19.226562 C 32.742188 24.160156 28.746094 28.15625 23.8125 28.15625 C 18.878906 28.15625 14.882812 24.160156 14.882812 19.226562 C 14.882812 14.292969 18.878906 10.296875 23.8125 10.296875 Z M 23.8125 10.296875 "/>
<path style=" stroke:none;fill-rule:nonzero;fill:rgb(0%,0%,0%);fill-opacity:0.235294;" d="M 14.886719 19.597656 C 14.882812 19.679688 14.882812 19.761719 14.882812 19.84375 C 14.882812 24.792969 18.867188 28.773438 23.8125 28.773438 C 28.757812 28.773438 32.742188 24.792969 32.742188 19.84375 C 32.742188 19.761719 32.742188 19.679688 32.738281 19.597656 C 32.609375 24.429688 28.675781 28.277344 23.8125 28.277344 C 18.949219 28.277344 15.015625 24.429688 14.886719 19.597656 Z M 14.886719 19.597656 "/>
<path style=" stroke:none;fill-rule:nonzero;fill:rgb(100%,100%,100%);fill-opacity:0.588235;" d="M 14.886719 19.570312 C 14.882812 19.488281 14.882812 19.40625 14.882812 19.324219 C 14.882812 14.375 18.867188 10.394531 23.8125 10.394531 C 28.757812 10.394531 32.742188 14.375 32.742188 19.324219 C 32.742188 19.40625 32.742188 19.488281 32.738281 19.570312 C 32.609375 14.738281 28.675781 10.890625 23.8125 10.890625 C 18.949219 10.890625 15.015625 14.738281 14.886719 19.570312 Z M 14.886719 19.570312 "/>
<path style="fill:none;stroke-width:3;stroke-linecap:round;stroke-linejoin:miter;stroke:rgb(12.941177%,12.941177%,12.941177%);stroke-opacity:1;stroke-miterlimit:4;" d="M 254 -105.166667 C 306.625 -105.166667 349.25 -62.541667 349.25 -9.916667 C 349.25 42.708333 306.625 85.333333 254 85.333333 C 201.375 85.333333 158.75 42.708333 158.75 -9.916667 C 158.75 -62.541667 201.375 -105.166667 254 -105.166667 Z M 254 -105.166667 " transform="matrix(0.09375,0,0,0.09375,0,20.15625)"/>
<path style=" stroke:none;fill-rule:nonzero;fill:rgb(0%,0%,0%);fill-opacity:0.235294;" d="M 25.796875 34.109375 L 32.988281 34.109375 C 33.539062 34.109375 33.984375 34.554688 33.984375 35.101562 C 33.984375 35.648438 33.539062 36.09375 32.988281 36.09375 L 25.796875 36.09375 C 25.25 36.09375 24.804688 35.648438 24.804688 35.101562 C 24.804688 34.554688 25.25 34.109375 25.796875 34.109375 Z M 25.796875 34.109375 "/>
<path style=" stroke:none;fill-rule:nonzero;fill:rgb(0%,0%,0%);fill-opacity:0.235294;" d="M 25.796875 34.109375 C 25.246094 34.109375 24.804688 34.550781 24.804688 35.101562 L 24.804688 35.597656 C 24.804688 35.046875 25.246094 34.605469 25.796875 34.605469 L 32.988281 34.605469 C 33.539062 34.605469 33.980469 35.046875 33.980469 35.597656 L 33.980469 35.101562 C 33.980469 34.550781 33.539062 34.109375 32.988281 34.109375 Z M 25.796875 34.109375 "/>
<path style=" stroke:none;fill-rule:nonzero;fill:rgb(100%,100%,100%);fill-opacity:0.470588;" d="M 25.796875 36.589844 C 25.246094 36.589844 24.804688 36.148438 24.804688 35.597656 L 24.804688 35.101562 C 24.804688 35.652344 25.246094 36.09375 25.796875 36.09375 L 32.992188 36.09375 C 33.539062 36.09375 33.984375 35.652344 33.984375 35.101562 L 33.984375 35.597656 C 33.984375 36.148438 33.539062 36.589844 32.992188 36.589844 Z M 25.796875 36.589844 "/>
<path style="fill:none;stroke-width:3;stroke-linecap:round;stroke-linejoin:miter;stroke:rgb(12.941177%,12.941177%,12.941177%);stroke-opacity:1;stroke-miterlimit:4;" d="M 158.749995 148.833333 L 235.458328 148.833333 C 241.333328 148.833333 246.083328 153.583333 246.083328 159.416667 C 246.083328 165.25 241.333328 170 235.458328 170 L 158.749995 170 C 152.916662 170 148.166662 165.25 148.166662 159.416667 C 148.166662 153.583333 152.916662 148.833333 158.749995 148.833333 Z M 158.749995 148.833333 " transform="matrix(0.09375,0,0,0.09375,10.914063,20.15625)"/>
<path style=" stroke:none;fill-rule:nonzero;fill:rgb(0%,0%,0%);fill-opacity:0.235294;" d="M 14.636719 30.636719 L 21.828125 30.636719 C 22.375 30.636719 22.820312 31.082031 22.820312 31.628906 C 22.820312 32.175781 22.375 32.621094 21.828125 32.621094 L 14.636719 32.621094 C 14.085938 32.621094 13.644531 32.175781 13.644531 31.628906 C 13.644531 31.082031 14.085938 30.636719 14.636719 30.636719 Z M 14.636719 30.636719 "/>
<path style=" stroke:none;fill-rule:nonzero;fill:rgb(0%,0%,0%);fill-opacity:0.235294;" d="M 14.632812 30.636719 C 14.085938 30.636719 13.640625 31.078125 13.640625 31.628906 L 13.640625 32.125 C 13.640625 31.574219 14.085938 31.132812 14.632812 31.132812 L 21.828125 31.132812 C 22.378906 31.132812 22.820312 31.574219 22.820312 32.125 L 22.820312 31.628906 C 22.820312 31.078125 22.378906 30.636719 21.828125 30.636719 Z M 14.632812 30.636719 "/>
<path style=" stroke:none;fill-rule:nonzero;fill:rgb(100%,100%,100%);fill-opacity:0.470588;" d="M 14.636719 33.117188 C 14.085938 33.117188 13.640625 32.675781 13.640625 32.125 L 13.640625 31.628906 C 13.640625 32.179688 14.085938 32.621094 14.636719 32.621094 L 21.828125 32.621094 C 22.378906 32.621094 22.820312 32.179688 22.820312 31.628906 L 22.820312 32.125 C 22.820312 32.675781 22.378906 33.117188 21.828125 33.117188 Z M 14.636719 33.117188 "/>
<path style="fill:none;stroke-width:3;stroke-linecap:round;stroke-linejoin:miter;stroke:rgb(12.941177%,12.941177%,12.941177%);stroke-opacity:1;stroke-miterlimit:4;" d="M 158.770833 148.833338 L 235.479167 148.833338 C 241.3125 148.833338 246.0625 153.583338 246.0625 159.416672 C 246.0625 165.250005 241.3125 170.000005 235.479167 170.000005 L 158.770833 170.000005 C 152.895833 170.000005 148.1875 165.250005 148.1875 159.416672 C 148.1875 153.583338 152.895833 148.833338 158.770833 148.833338 Z M 158.770833 148.833338 " transform="matrix(0.09375,0,0,0.09375,-0.248047,16.683593)"/>
<path style=" stroke:none;fill-rule:nonzero;fill:rgb(0%,0%,0%);fill-opacity:0.235294;" d="M 25.796875 30.636719 L 32.988281 30.636719 C 33.539062 30.636719 33.984375 31.082031 33.984375 31.628906 C 33.984375 32.175781 33.539062 32.621094 32.988281 32.621094 L 25.796875 32.621094 C 25.25 32.621094 24.804688 32.175781 24.804688 31.628906 C 24.804688 31.082031 25.25 30.636719 25.796875 30.636719 Z M 25.796875 30.636719 "/>
<path style=" stroke:none;fill-rule:nonzero;fill:rgb(0%,0%,0%);fill-opacity:0.235294;" d="M 25.796875 30.636719 C 25.246094 30.636719 24.804688 31.078125 24.804688 31.628906 L 24.804688 32.125 C 24.804688 31.574219 25.246094 31.132812 25.796875 31.132812 L 32.988281 31.132812 C 33.539062 31.132812 33.980469 31.574219 33.980469 32.125 L 33.980469 31.628906 C 33.980469 31.078125 33.539062 30.636719 32.988281 30.636719 Z M 25.796875 30.636719 "/>
<path style=" stroke:none;fill-rule:nonzero;fill:rgb(100%,100%,100%);fill-opacity:0.470588;" d="M 25.796875 33.117188 C 25.246094 33.117188 24.804688 32.675781 24.804688 32.125 L 24.804688 31.628906 C 24.804688 32.179688 25.246094 32.621094 25.796875 32.621094 L 32.992188 32.621094 C 33.539062 32.621094 33.984375 32.179688 33.984375 31.628906 L 33.984375 32.125 C 33.984375 32.675781 33.539062 33.117188 32.992188 33.117188 Z M 25.796875 33.117188 "/>
<path style="fill:none;stroke-width:3;stroke-linecap:round;stroke-linejoin:miter;stroke:rgb(12.941177%,12.941177%,12.941177%);stroke-opacity:1;stroke-miterlimit:4;" d="M 158.749995 148.833338 L 235.458328 148.833338 C 241.333328 148.833338 246.083328 153.583338 246.083328 159.416672 C 246.083328 165.250005 241.333328 170.000005 235.458328 170.000005 L 158.749995 170.000005 C 152.916662 170.000005 148.166662 165.250005 148.166662 159.416672 C 148.166662 153.583338 152.916662 148.833338 158.749995 148.833338 Z M 158.749995 148.833338 " transform="matrix(0.09375,0,0,0.09375,10.914063,16.683593)"/>
</g>
</svg>
