
<svg xmlns="http://www.w3.org/2000/svg" xmlns:xlink="http://www.w3.org/1999/xlink" width="32px" height="32px" viewBox="0 0 32 32" version="1.1">
<g id="surface1">
<defs>
  <style id="current-color-scheme" type="text/css">
   .ColorScheme-Text { color:#424242; } .ColorScheme-Highlight { color:#eeeeee; }
  </style>
 </defs>
<path style="fill:currentColor" class="ColorScheme-Text" d="M 16 4 C 9.351562 4 4 9.351562 4 16 C 4 22.648438 9.351562 28 16 28 C 22.648438 28 28 22.648438 28 16 C 28 14.59375 27.75 13.25 27.304688 12 L 25.710938 13.6875 C 25.882812 14.4375 26 15.203125 26 16 C 26 21.539062 21.539062 26 16 26 C 10.460938 26 6 21.539062 6 16 C 6 10.460938 10.460938 6 16 6 C 18.296875 6 20.375 6.796875 22.0625 8.085938 C 22.734375 7.398438 22.90625 7.21875 23.492188 6.625 C 21.4375 4.984375 18.84375 4 16 4 Z M 16 4 "/>
<path style=" stroke:none;fill-rule:nonzero;fill:rgb(14.901961%,65.098041%,60.392159%);fill-opacity:1;" d="M 24.484375 8.6875 L 16 17.171875 L 11.757812 12.929688 L 10.34375 14.34375 L 16 20 L 25.898438 10.101562 Z M 24.484375 8.6875 "/>
</g>
</svg>
