<svg xmlns="http://www.w3.org/2000/svg" width="64pt" height="64pt" viewBox="0 0 64 64"><defs><linearGradient id="a" gradientUnits="userSpaceOnUse" x1="254" y1="233.5" x2="254" y2="254.667" gradientTransform="translate(-12.569 26.878) scale(.12501)"><stop offset="0" stop-opacity=".275"/><stop offset="1" stop-opacity="0"/></linearGradient><radialGradient id="b" gradientUnits="userSpaceOnUse" cx="450.909" cy="189.579" fx="450.909" fy="189.579" r="21.167" gradientTransform="matrix(0 -.15626 -.28128 0 85.077 127.19)"><stop offset="0" stop-opacity=".314"/><stop offset=".222" stop-opacity=".275"/><stop offset="1" stop-opacity="0"/></radialGradient><radialGradient id="c" gradientUnits="userSpaceOnUse" cx="450.909" cy="189.579" fx="450.909" fy="189.579" r="21.167" gradientTransform="matrix(0 .15626 .28128 0 -21.571 -15.055)"><stop offset="0" stop-opacity=".314"/><stop offset=".222" stop-opacity=".275"/><stop offset="1" stop-opacity="0"/></radialGradient><radialGradient id="d" gradientUnits="userSpaceOnUse" cx="450.909" cy="189.579" fx="450.909" fy="189.579" r="21.167" gradientTransform="matrix(0 -.15626 .28128 0 -21.571 127.19)"><stop offset="0" stop-opacity=".314"/><stop offset=".222" stop-opacity=".275"/><stop offset="1" stop-opacity="0"/></radialGradient><radialGradient id="e" gradientUnits="userSpaceOnUse" cx="450.909" cy="189.579" fx="450.909" fy="189.579" r="21.167" gradientTransform="matrix(0 .15626 -.28128 0 85.077 -15.055)"><stop offset="0" stop-opacity=".314"/><stop offset=".222" stop-opacity=".275"/><stop offset="1" stop-opacity="0"/></radialGradient><linearGradient id="f" gradientUnits="userSpaceOnUse" x1="201.083" y1="106.5" x2="201.083" y2="53.583"><stop offset="0" stop-color="#424242"/><stop offset="1" stop-color="#616161"/></linearGradient><linearGradient id="g" gradientUnits="userSpaceOnUse" x1="306.917" y1="106.5" x2="306.917" y2="53.583"><stop offset="0" stop-color="#424242"/><stop offset="1" stop-color="#616161"/></linearGradient><linearGradient id="h" gradientUnits="userSpaceOnUse" x1="169.333" y1="11.25" x2="169.333" y2="-168.667" gradientTransform="translate(0 26.878) scale(.12501)"><stop offset="0" stop-color="#f06292"/><stop offset="1" stop-color="#f48fb1"/></linearGradient><linearGradient id="i" gradientUnits="userSpaceOnUse" x1="960" y1="1695.118" x2="960" y2="615.118" gradientTransform="scale(.03308)"><stop offset="0" stop-color="#7986cb"/><stop offset="1" stop-color="#9fa8da"/></linearGradient><linearGradient id="j" gradientUnits="userSpaceOnUse" x1="201.083" y1=".667" x2="201.083" y2="127.667"><stop offset="0" stop-color="#e0e0e0"/><stop offset="1" stop-color="#eee"/></linearGradient><linearGradient id="k" gradientUnits="userSpaceOnUse" x1="296.333" y1=".667" x2="296.333" y2="127.667"><stop offset="0" stop-color="#e0e0e0"/><stop offset="1" stop-color="#eee"/></linearGradient><linearGradient id="l" gradientUnits="userSpaceOnUse" x1="222.25" y1="85.333" x2="222.25" y2="43"><stop offset="0" stop-color="#424242"/><stop offset="1" stop-color="#616161"/></linearGradient><linearGradient id="m" gradientUnits="userSpaceOnUse" x1="285.75" y1="85.333" x2="285.75" y2="43"><stop offset="0" stop-color="#424242"/><stop offset="1" stop-color="#616161"/></linearGradient><linearGradient id="n" gradientUnits="userSpaceOnUse" x1="960" y1="1495.118" x2="960" y2="1055.118" gradientTransform="matrix(.26458 0 0 .26458 0 -193.833)"><stop offset="0" stop-color="#ffa726"/><stop offset="1" stop-color="#ffb74d"/></linearGradient></defs><path d="M31.09 56.066h1.324v2.649H31.09zm0 0" fill="url(#a)"/><path d="M32.414 56.066h5.293v-2.644h-5.293zm0 0" fill="url(#b)"/><path d="M31.09 56.066H25.8v2.649h5.29zm0 0" fill="url(#c)"/><path d="M31.09 56.066H25.8v-2.644h5.29zm0 0" fill="url(#d)"/><path d="M32.414 56.066h5.293v2.649h-5.293zm0 0" fill="url(#e)"/><path d="M201.075 53.568c11.686 0 21.185 11.655 21.185 25.998v.937c0 14.374-9.5 25.998-21.185 25.998-11.687 0-21.155-11.624-21.155-25.998v-.937c0-14.343 9.468-25.998 21.155-25.998zm0 0" transform="translate(0 26.878) scale(.12501)" fill="url(#f)" stroke-width="2.739" stroke-linecap="round" stroke-linejoin="round" stroke="#212121"/><path d="M306.908 53.568c11.687 0 21.186 11.874 21.186 26.466 0 14.624-9.5 26.467-21.186 26.467s-21.154-11.843-21.154-26.467c0-14.592 9.468-26.466 21.154-26.466zm0 0" transform="translate(0 26.878) scale(.12501)" fill="url(#g)" stroke-width="2.739" stroke-linecap="round" stroke-linejoin="round" stroke="#212121"/><path d="M26.46 5.793a7.913 7.913 0 0 0-7.886 7.047 7.918 7.918 0 0 0-5.344 7.504 7.922 7.922 0 0 0 7.938 7.941c2.039 0 3.89-.762 5.293-2.012a7.922 7.922 0 0 0 5.293 2.012 7.93 7.93 0 0 0 5.293-2.012 7.92 7.92 0 0 0 5.289 2.012 7.925 7.925 0 0 0 7.941-7.941 7.915 7.915 0 0 0-4.152-6.98 7.918 7.918 0 0 0-7.758-6.25 7.91 7.91 0 0 0-5.375 2.09 7.925 7.925 0 0 0-6.531-3.411zm0 0" fill="url(#h)"/><path d="M26.46 5.793a7.913 7.913 0 0 0-7.886 7.047 7.918 7.918 0 0 0-5.344 7.504c0 .093.004.183.004.277a7.927 7.927 0 0 1 5.34-7.226 7.916 7.916 0 0 1 7.887-7.047 7.919 7.919 0 0 1 6.531 3.414 7.892 7.892 0 0 1 5.375-2.09 7.919 7.919 0 0 1 7.758 6.246 7.921 7.921 0 0 1 4.145 6.7c.003-.09.007-.18.007-.274a7.915 7.915 0 0 0-4.152-6.98 7.918 7.918 0 0 0-7.758-6.25 7.91 7.91 0 0 0-5.375 2.09 7.925 7.925 0 0 0-6.531-3.411zm0 0" fill="#fff" fill-opacity=".392"/><path d="M26.46 5.605a8.103 8.103 0 0 0-8.058 7.098 8.107 8.107 0 0 0-5.359 7.64c0 4.5 3.629 8.13 8.125 8.13a8.1 8.1 0 0 0 5.293-1.961 8.1 8.1 0 0 0 5.293 1.96 8.107 8.107 0 0 0 5.293-1.96 8.089 8.089 0 0 0 5.289 1.96c4.5 0 8.129-3.628 8.129-8.128a8.113 8.113 0 0 0-4.176-7.106 8.11 8.11 0 0 0-7.922-6.312c-2.05 0-3.918.758-5.347 2.004a8.105 8.105 0 0 0-6.56-3.325zm0 .375a7.723 7.723 0 0 1 6.376 3.332.19.19 0 0 0 .281.032 7.712 7.712 0 0 1 5.25-2.04 7.731 7.731 0 0 1 7.578 6.098.18.18 0 0 0 .094.125 7.733 7.733 0 0 1 4.05 6.817c0 4.3-3.456 7.754-7.753 7.754a7.716 7.716 0 0 1-5.164-1.965.182.182 0 0 0-.25 0 7.733 7.733 0 0 1-5.168 1.965 7.726 7.726 0 0 1-5.168-1.965.182.182 0 0 0-.25 0 7.726 7.726 0 0 1-5.168 1.965 7.73 7.73 0 0 1-7.75-7.754 7.735 7.735 0 0 1 5.215-7.328.18.18 0 0 0 .125-.157A7.727 7.727 0 0 1 26.46 5.98zm0 0" fill="#212121"/><path d="M11.313 19.992a23.763 23.763 0 0 0-3.376 12.262 23.762 23.762 0 0 0 23.817 23.812 23.761 23.761 0 0 0 23.812-23.812c0-4.492-1.23-8.684-3.37-12.262-4.801 1.813-12.063 2.965-20.22 2.965h-.449c-8.152 0-15.414-1.152-20.215-2.965zm0 0" fill="url(#i)"/><path d="M201.075.667c29.247 0 52.932 28.435 52.932 63.494 0 35.09-23.685 63.494-52.932 63.494-29.216 0-52.902-28.404-52.902-63.494 0-35.06 23.686-63.494 52.902-63.494zm0 0" transform="translate(0 26.878) scale(.12501)" fill="url(#j)" stroke-width="3" stroke-linecap="round" stroke-linejoin="round" stroke="#212121"/><path d="M306.908.667c29.247 0 52.933 28.435 52.933 63.494 0 35.09-23.686 63.494-52.933 63.494-29.216 0-52.901-28.404-52.901-63.494 0-35.06 23.685-63.494 52.901-63.494zm0 0" transform="translate(0 26.878) scale(.12501)" fill="url(#k)" stroke-width="3" stroke-linecap="round" stroke-linejoin="round" stroke="#212121"/><path d="M221.76 43.007h.969c11.436 0 20.685 9.467 20.685 21.154 0 11.686-9.249 21.185-20.685 21.185h-.969c-11.405 0-20.685-9.499-20.685-21.185 0-11.687 9.28-21.154 20.685-21.154zm0 0" transform="translate(0 26.878) scale(.12501)" fill="url(#l)" stroke-width="3" stroke-linecap="round" stroke-linejoin="round" stroke="#212121"/><path d="M285.754 43.007c11.686 0 21.154 9.467 21.154 21.154 0 11.686-9.468 21.185-21.154 21.185s-21.186-9.499-21.186-21.185c0-11.687 9.5-21.154 21.186-21.154zm0 0" transform="translate(0 26.878) scale(.12501)" fill="url(#m)" stroke-width="3" stroke-linecap="round" stroke-linejoin="round" stroke="#212121"/><path d="M201.075 127.655c0 31.747 42.34 74.086 52.932 74.086 10.561 0 52.901-42.34 52.901-74.086-52.901-52.901-52.901-52.901-105.833 0zm0 0" transform="translate(0 26.878) scale(.12501)" fill="url(#n)" stroke-width="3" stroke-linecap="round" stroke-linejoin="round" stroke="#212121"/><path d="M11.313 19.684a23.763 23.763 0 0 0-3.368 12.761A23.737 23.737 0 0 1 11.312 20.7c4.801 1.813 12.063 2.965 20.215 2.965h.45c8.156 0 15.418-1.152 20.218-2.965a23.777 23.777 0 0 1 3.367 11.746c.004-.164.004-.332.004-.5 0-4.492-1.23-8.683-3.37-12.261-4.801 1.812-12.063 2.964-20.22 2.964h-.449c-8.152 0-15.414-1.152-20.215-2.964zm0 0" fill="#fff" fill-opacity=".392"/><path d="M7.941 31.906c-.003.114-.003.23-.003.348a23.762 23.762 0 0 0 23.816 23.812 23.761 23.761 0 0 0 23.812-23.812v-.348a23.764 23.764 0 0 1-23.812 23.465c-13.078 0-23.629-10.434-23.813-23.465zm0 0" fill-opacity=".235"/><path d="M52.2 19.805a.204.204 0 0 0-.071.011c-4.766 1.801-12.016 2.954-20.152 2.954h-.45c-8.136 0-15.382-1.153-20.148-2.954a.188.188 0 0 0-.227.082A23.95 23.95 0 0 0 7.75 32.254c0 13.293 10.71 24 24.004 24 13.293 0 24-10.707 24-24 0-4.527-1.238-8.75-3.399-12.356a.193.193 0 0 0-.156-.093zm-40.802.418c4.832 1.793 12.04 2.922 20.13 2.922h.449c8.09 0 15.3-1.13 20.132-2.922a23.575 23.575 0 0 1 3.27 12.03A23.566 23.566 0 0 1 31.754 55.88 23.57 23.57 0 0 1 8.125 32.254c0-4.402 1.195-8.512 3.273-12.031zm0 0" fill="#212121"/></svg>