<svg height="64" viewBox="0 0 64 64" width="64" xmlns="http://www.w3.org/2000/svg" xmlns:xlink="http://www.w3.org/1999/xlink"><linearGradient id="a" gradientUnits="userSpaceOnUse" x1="31.753048" x2="31.753048" y1="52.098737" y2="9.76133899994"><stop offset="0" stop-color="#e0e0e0"/><stop offset="1" stop-color="#eee"/></linearGradient><linearGradient id="b"><stop offset="0" stop-opacity=".27451"/><stop offset="1" stop-opacity="0"/></linearGradient><linearGradient id="c" gradientUnits="userSpaceOnUse" x1="31.75304" x2="31.75304" xlink:href="#b" y1="56.067872" y2="58.71396000006"/><linearGradient id="d"><stop offset="0" stop-opacity=".313726"/><stop offset=".222222" stop-opacity=".27451"/><stop offset="1" stop-opacity="0"/></linearGradient><radialGradient id="e" cx="450.908936" cy="189.579361" gradientTransform="matrix(.00000035 -.156265 -.281277 -.0000002 87.061738 127.190665)" gradientUnits="userSpaceOnUse" r="21.166656" xlink:href="#d"/><radialGradient id="f" cx="450.908936" cy="189.579361" gradientTransform="matrix(-.00000035 .156265 .281277 .0000002 -23.555678 -15.054958)" gradientUnits="userSpaceOnUse" r="21.166656" xlink:href="#d"/><radialGradient id="g" cx="450.908936" cy="189.579361" gradientTransform="matrix(-.00000035 -.156265 .281277 -.0000002 -23.555678 127.190665)" gradientUnits="userSpaceOnUse" r="21.166656" xlink:href="#d"/><radialGradient id="h" cx="450.908936" cy="189.579361" gradientTransform="matrix(.00000035 .156265 -.281277 .0000002 87.061734 -15.054959)" gradientUnits="userSpaceOnUse" r="21.166656" xlink:href="#d"/><linearGradient id="i"><stop offset="0" stop-color="#424242"/><stop offset="1" stop-color="#616161"/></linearGradient><linearGradient id="j" gradientTransform="matrix(1.4 0 0 1.3625 -101.600014 44.869808)" gradientUnits="userSpaceOnUse" x1="253.999985" x2="254" xlink:href="#i" y1="74.75" y2="-105.166656"/><linearGradient id="k"><stop offset="0" stop-color="#9e9e9e"/><stop offset="1" stop-color="#bdbdbd"/></linearGradient><linearGradient id="l" gradientUnits="userSpaceOnUse" x1="21.16869799994" x2="21.16869799994" xlink:href="#k" y1="56.067868" y2="5.79221000013"/><linearGradient id="m" gradientTransform="matrix(1.2 0 0 1.125 -50.800041 43.572906)" gradientUnits="userSpaceOnUse" x1="253.999985" x2="254" xlink:href="#i" y1="74.75" y2="-105.166656"/><linearGradient id="n" gradientUnits="userSpaceOnUse" x1="31.753048" x2="31.753048" xlink:href="#b" y1="52.098737" y2="9.76133899994"/><linearGradient id="o" gradientUnits="userSpaceOnUse" x1="31.753048" x2="31.753048" xlink:href="#i" y1="54.74482500006" y2="36.222213"/><linearGradient id="p" gradientUnits="userSpaceOnUse" x1="31.753048" x2="31.753048" xlink:href="#i" y1="38.86829999997" y2="52.098737"/><linearGradient id="q" gradientUnits="userSpaceOnUse" x1="31.75305801764" x2="31.75305801764" xlink:href="#k" y1="50.77572190428" y2="40.19136990428"/><path d="m31.753906 9.761719c11.691406 0 21.167969 9.476562 21.167969 21.167969 0 11.691406-9.476563 21.167968-21.167969 21.167968s-21.167968-9.476562-21.167968-21.167968c0-11.691407 9.476562-21.167969 21.167968-21.167969zm0 0" fill="url(#a)"/><path d="m29.105469 55.871094h5.292969v2.941406h-5.292969zm0 0" fill="url(#c)"/><path d="m34.398438 56.066406h5.292968v-2.644531h-5.292968zm0 0" fill="url(#e)"/><path d="m29.105469 56.066406h-5.289063v2.648438h5.289063zm0 0" fill="url(#f)"/><path d="m29.105469 56.066406h-5.289063v-2.644531h5.289063zm0 0" fill="url(#g)"/><path d="m34.398438 56.066406h5.292968v2.648438h-5.292968zm0 0" fill="url(#h)"/><path d="m120.644729-84.012509h266.693282c8.186718 0 14.842333 6.468133 14.842333 14.436122v201.88697c0 7.936743-6.655615 14.404875-14.842333 14.404875h-266.693282c-8.186718 0-14.811086-6.468132-14.811086-14.404875v-201.88697c0-7.967989 6.624368-14.436122 14.811086-14.436122zm0 0" fill="url(#j)" stroke="#212121" stroke-linecap="round" stroke-linejoin="round" stroke-width="4.143368" transform="matrix(.125012 0 0 .125012 0 26.877566)"/><path d="m31.753906 5.792969c-10.746094 0-19.875 6.671875-23.484375 16.121093l-2.683593-.71875c-.109376-.03125-.21875-.046874-.328126-.046874-.589843-.007813-1.132812.382812-1.292968.980468l-.683594 2.554688c-.1875.710937.226562 1.433594.9375 1.621094l2.695312.722656c-.195312 1.273437-.300781 2.574218-.300781 3.902344 0 3.648437.769531 7.105468 2.15625 10.230468l-2.414062 1.390625c-.632813.367188-.851563 1.171875-.484375 1.808594l1.324218 2.292969c.367188.632812 1.171876.847656 1.808594.480468l2.410156-1.390624c4.5625 6.265624 11.960938 10.324218 20.339844 10.324218 6 0 11.5-2.082031 15.8125-5.566406l1.972656 1.972656c.515626.515625 1.351563.515625 1.871094 0l1.871094-1.871094c.515625-.519531.515625-1.355468 0-1.871093l-1.972656-1.972657c1.640625-2.023437 2.96875-4.308593 3.917968-6.785156l2.691407.722656c.710937.1875 1.433593-.226562 1.621093-.9375l.683594-2.554687c.191406-.707031-.226562-1.429687-.933594-1.621094l-2.703124-.722656c.199218-1.28125.304687-2.59375.304687-3.929687 0-1.328126-.101563-2.628907-.296875-3.902344l2.695312-.722656c.707032-.1875 1.125-.910157.933594-1.621094l-.683594-2.554688c-.1875-.707031-.910156-1.125-1.621093-.933594l-2.679688.71875c-3.613281-9.449218-12.742187-16.121093-23.484375-16.121093zm0 3.96875c11.726563 0 21.167969 9.441406 21.167969 21.167969 0 11.726562-9.441406 21.167968-21.167969 21.167968-11.726562 0-21.167968-9.441406-21.167968-21.167968 0-11.726563 9.441406-21.167969 21.167968-21.167969zm0 0" fill="url(#l)"/><path d="m10.59375 31.589844c-.003906.222656-.007812.441406-.007812.664062 0 11.726563 9.441406 21.167969 21.167968 21.167969 11.726563 0 21.167969-9.441406 21.167969-21.167969 0-.222656-.003906-.441406-.011719-.664062-.347656 11.421875-9.652344 20.507812-21.15625 20.507812-11.507812 0-20.8125-9.085937-21.160156-20.507812zm0 0" fill="#fff" fill-opacity=".392157"/><path d="m31.753906 9.761719c11.691406 0 21.167969 9.476562 21.167969 21.167969 0 11.691406-9.476563 21.167968-21.167969 21.167968s-21.167968-9.476562-21.167968-21.167968c0-11.691407 9.476562-21.167969 21.167968-21.167969zm0 0" fill="#fff" fill-opacity=".392157"/><path d="m137.580612-62.827032h232.821516c5.874439 0 10.592739 4.7183 10.592739 10.561492v169.358827c0 5.843192-4.7183 10.561491-10.592739 10.561491h-232.821516c-5.843192 0-10.592739-4.718299-10.592739-10.561491v-169.358827c0-5.843192 4.749547-10.561492 10.592739-10.561492zm0 0" fill="url(#m)" stroke="#212121" stroke-linecap="round" stroke-linejoin="round" stroke-width="3.485685" transform="matrix(.125012 0 0 .125012 0 26.877566)"/><path d="m254.006994-136.913707c93.522319 0 169.32758 75.805261 169.32758 169.32758s-75.805261 169.32758-169.32758 169.32758c-93.52232 0-169.32758-75.805261-169.32758-169.32758s75.80526-169.32758 169.32758-169.32758zm0 0" fill="none" stroke="#212121" stroke-linecap="round" stroke-width="3" transform="matrix(.125012 0 0 .125012 0 26.877566)"/><path d="m31.753906 9.761719c11.691406 0 21.167969 9.476562 21.167969 21.167969 0 11.691406-9.476563 21.167968-21.167969 21.167968s-21.167968-9.476562-21.167968-21.167968c0-11.691407 9.476562-21.167969 21.167968-21.167969zm0 0" fill="url(#n)"/><path d="m31.753906 36.222656c5.113282 0 9.261719 4.144532 9.261719 9.261719 0 5.113281-4.148437 9.261719-9.261719 9.261719-5.117187 0-9.261718-4.148438-9.261718-9.261719 0-5.117187 4.144531-9.261719 9.261718-9.261719zm0 0" fill="url(#o)"/><path d="m31.753906 38.867188c3.652344 0 6.613282 2.960937 6.613282 6.617187 0 3.652344-2.960938 6.613281-6.613282 6.613281-3.65625 0-6.617187-2.960937-6.617187-6.613281 0-3.65625 2.960937-6.617187 6.617187-6.617187zm0 0" fill="url(#p)"/><path d="m31.753906 40.191406c-.734375 0-1.324218.589844-1.324218 1.324219 0 .730469.589843 1.320313 1.324218 1.320313.730469 0 1.320313-.589844 1.320313-1.320313 0-.734375-.589844-1.324219-1.320313-1.324219zm2.804688 1.160156c-.335938 0-.675782.128907-.933594.390626-.519531.515624-.519531 1.351562 0 1.871093.515625.515625 1.351562.515625 1.871094 0 .515625-.519531.515625-1.355469 0-1.871093-.261719-.261719-.597656-.390626-.9375-.390626zm-5.613282 0c-.335937 0-.675781.128907-.933593.390626-.519531.515624-.519531 1.351562 0 1.871093.515625.515625 1.351562.515625 1.871093 0 .515626-.519531.515626-1.355469 0-1.871093-.261718-.261719-.597656-.390626-.9375-.390626zm-1.160156 2.808594c-.734375 0-1.324218.589844-1.324218 1.324219 0 .730469.589843 1.320313 1.324218 1.320313.730469 0 1.320313-.589844 1.320313-1.320313 0-.734375-.589844-1.324219-1.320313-1.324219zm7.9375 0c-.734375 0-1.324218.589844-1.324218 1.324219 0 .730469.589843 1.320313 1.324218 1.320313s1.324219-.589844 1.324219-1.320313c0-.734375-.589844-1.324219-1.324219-1.324219zm-6.777344 2.804688c-.335937 0-.675781.128906-.933593.390625-.519531.515625-.519531 1.351562 0 1.871093.515625.515626 1.351562.515626 1.871093 0 .515626-.519531.515626-1.355468 0-1.871093-.261718-.261719-.597656-.390625-.9375-.390625zm5.613282 0c-.335938 0-.675782.128906-.933594.390625-.519531.515625-.519531 1.351562 0 1.871093.515625.515626 1.351562.515626 1.871094 0 .515625-.519531.515625-1.355468 0-1.871093-.261719-.261719-.597656-.390625-.9375-.390625zm-2.804688 1.164062c-.734375 0-1.324218.589844-1.324218 1.324219s.589843 1.324219 1.324218 1.324219c.730469 0 1.320313-.589844 1.320313-1.324219s-.589844-1.324219-1.320313-1.324219zm0 0" fill="url(#q)"/><path d="m31.753906 40.191406c-.734375 0-1.324218.589844-1.324218 1.324219 0 .054687.003906.109375.011718.164063.082032-.65625.636719-1.15625 1.3125-1.15625.675782 0 1.230469.5 1.3125 1.15625.003906-.054688.007813-.109376.007813-.164063 0-.734375-.589844-1.324219-1.320313-1.324219zm2.804688 1.160156c-.335938 0-.675782.128907-.933594.390626-.300781.300781-.429688.710937-.378906 1.101562.035156-.28125.160156-.554688.378906-.773438.257812-.257812.597656-.386718.933594-.386718.339844 0 .675781.128906.9375.386718.214844.21875.34375.492188.378906.773438.046875-.390625-.078125-.800781-.378906-1.101562-.261719-.261719-.597656-.390626-.9375-.390626zm-5.613282 0c-.335937 0-.675781.128907-.933593.390626-.300781.300781-.429688.710937-.378907 1.101562.035157-.28125.160157-.554688.378907-.773438.257812-.257812.597656-.386718.933593-.386718.339844 0 .675782.128906.9375.386718.214844.21875.34375.492188.378907.773438.046875-.390625-.078125-.800781-.378907-1.101562-.261718-.261719-.597656-.390626-.9375-.390626zm-1.160156 2.808594c-.734375 0-1.324218.589844-1.324218 1.324219 0 .054687.003906.109375.011718.164063.082032-.652344.632813-1.15625 1.3125-1.15625.113282 0 .222656.011718.328125.039062.152344.125.324219.210938.503907.253906.257812.210938.4375.515625.480468.863282.003906-.054688.007813-.109376.007813-.164063 0-.417969-.1875-.785156-.488281-1.027344-.179688-.046875-.351563-.132812-.503907-.253906-.105469-.027344-.214843-.042969-.328125-.042969zm7.9375 0c-.113281 0-.226562.015625-.332031.042969-.152344.121094-.324219.207031-.503906.253906-.296875.242188-.488281.609375-.488281 1.027344 0 .054687.003906.109375.011718.164063.042969-.347657.21875-.652344.476563-.863282.179687-.042968.351562-.128906.503906-.253906.105469-.027344.21875-.039062.332031-.039062.675782 0 1.230469.503906 1.3125 1.15625.007813-.054688.011719-.109376.011719-.164063 0-.734375-.589844-1.324219-1.324219-1.324219zm-6.777344 2.804688c-.109374 0-.21875.015625-.328124.042968-.144532.117188-.316407.207032-.503907.253907-.035156.027343-.070312.058593-.101562.09375-.300781.300781-.429688.710937-.378907 1.101562.035157-.28125.160157-.554687.378907-.773437.03125-.03125.066406-.0625.101562-.089844.1875-.050781.359375-.136719.503907-.253906.109374-.027344.21875-.042969.328124-.042969.339844 0 .675782.128906.9375.386719.214844.21875.34375.492187.378907.773437.046875-.390625-.078125-.800781-.378907-1.101562-.261718-.261719-.597656-.390625-.9375-.390625zm5.613282 0c-.335938 0-.675782.128906-.933594.390625-.300781.300781-.429688.710937-.378906 1.101562.035156-.28125.160156-.554687.378906-.773437.257812-.257813.597656-.386719.933594-.386719.109375 0 .222656.015625.328125.042969.144531.117187.316406.203125.503906.253906.035156.027344.070313.058594.105469.089844.214844.21875.34375.492187.378906.773437.046875-.390625-.078125-.800781-.378906-1.101562-.035156-.035157-.070313-.066407-.105469-.09375-.1875-.046875-.359375-.136719-.503906-.253907-.105469-.027343-.21875-.042968-.328125-.042968zm-2.804688 1.164062c-.734375 0-1.324218.589844-1.324218 1.324219 0 .054687.003906.109375.011718.164063.082032-.652344.636719-1.15625 1.3125-1.15625.675782 0 1.230469.503906 1.3125 1.15625.003906-.054688.007813-.109376.007813-.164063 0-.734375-.589844-1.324219-1.320313-1.324219zm0 0" fill="#fff"/><path d="m30.453125 41.761719c-.015625.082031-.023437.164062-.023437.25 0 .730469.589843 1.320312 1.324218 1.320312.730469 0 1.320313-.589843 1.320313-1.320312 0-.085938-.007813-.167969-.023438-.25-.113281.613281-.648437 1.074219-1.296875 1.074219-.648437 0-1.183594-.460938-1.300781-1.074219zm-2.808594 1.164062c-.078125.414063.042969.859375.367188 1.183594.03125.03125.066406.0625.101562.09375.1875.046875.359375.132813.503907.253906.4375.109375.921874-.003906 1.265624-.347656.320313-.324219.445313-.769531.363282-1.183594-.046875.25-.167969.492188-.363282.6875-.519531.515625-1.355468.515625-1.871093 0-.195313-.195312-.316407-.4375-.367188-.6875zm5.613281 0c-.078124.414063.042969.859375.367188 1.183594.34375.34375.824219.457031 1.261719.347656.144531-.121093.316406-.207031.503906-.253906.035156-.03125.070313-.0625.105469-.09375.320312-.324219.445312-.769531.363281-1.183594-.046875.25-.167969.492188-.363281.6875-.519532.515625-1.355469.515625-1.871094 0-.195312-.195312-.316406-.4375-.367188-.6875zm-6.773437 2.804688c-.015625.082031-.023437.164062-.023437.25 0 .730469.589843 1.320312 1.324218 1.320312.113282 0 .222656-.011719.328125-.039062.152344-.125.324219-.207031.503907-.253907.300781-.242187.488281-.613281.488281-1.027343 0-.085938-.007813-.167969-.023438-.25-.113281.613281-.648437 1.074219-1.296875 1.074219-.648437 0-1.183594-.460938-1.300781-1.074219zm7.9375 0c-.015625.082031-.023437.164062-.023437.25 0 .414062.191406.785156.488281 1.027343.179687.046876.351562.128907.503906.253907.105469.027343.21875.039062.332031.039062.734375 0 1.324219-.589843 1.324219-1.320312 0-.085938-.011719-.167969-.023437-.25-.117188.613281-.652344 1.074219-1.300782 1.074219-.648437 0-1.183594-.460938-1.300781-1.074219zm-4.175781 2.808593c-.046875.25-.167969.492188-.363282.6875-.519531.515626-1.355468.515626-1.871093 0-.195313-.195312-.316407-.4375-.367188-.6875-.078125.414063.042969.859376.367188 1.183594.515625.515625 1.351562.515625 1.871093 0 .320313-.324218.445313-.769531.363282-1.183594zm3.011718 0c-.078124.414063.042969.859376.367188 1.183594.515625.515625 1.351562.515625 1.871094 0 .320312-.324218.445312-.769531.363281-1.183594-.046875.25-.167969.492188-.363281.6875-.519532.515626-1.355469.515626-1.871094 0-.195312-.195312-.316406-.4375-.367188-.6875zm-2.804687 1.160157c-.015625.082031-.023437.164062-.023437.25 0 .734375.589843 1.324219 1.324218 1.324219.730469 0 1.320313-.589844 1.320313-1.324219 0-.085938-.007813-.167969-.023438-.25-.113281.613281-.648437 1.078125-1.296875 1.078125-.648437 0-1.183594-.464844-1.300781-1.078125zm0 0" fill-opacity=".235294"/><path d="m960.026483 1215.120246c-22.202606 0-40.035549 17.832944-40.035549 40.035549 0 22.084507 17.832943 39.91745 40.035549 39.91745 22.084506 0 39.91745-17.832943 39.91745-39.91745 0-22.202605-17.832944-40.035549-39.91745-40.035549zm84.795056 35.075393c-10.156511 0-20.431121 3.897265-28.225652 11.809896-15.707163 15.589063-15.707163 40.862242 0 56.569404 15.589063 15.589063 40.862242 15.589063 56.569404 0 15.589063-15.707162 15.589063-40.980341 0-56.569404-7.912631-7.912631-18.069142-11.809896-28.343752-11.809896zm-169.708212 0c-10.156511 0-20.431121 3.897265-28.225652 11.809896-15.707163 15.589063-15.707163 40.862242 0 56.569404 15.589063 15.589063 40.862241 15.589063 56.569404 0 15.589063-15.707162 15.589063-40.980341 0-56.569404-7.912631-7.912631-18.069142-11.809896-28.343752-11.809896zm-35.075392 84.913155c-22.202606 0-40.035549 17.832944-40.035549 40.035549 0 22.084506 17.832943 39.91745 40.035549 39.91745 22.084506 0 39.91745-17.832944 39.91745-39.91745 0-22.202605-17.832944-40.035549-39.91745-40.035549zm239.977096 0c-22.202606 0-40.035549 17.832944-40.035549 40.035549 0 22.084506 17.832943 39.91745 40.035549 39.91745 22.202605 0 40.035549-17.832944 40.035549-39.91745 0-22.202605-17.832944-40.035549-40.035549-40.035549zm-204.901704 84.795057c-10.156511 0-20.431121 3.897266-28.225652 11.809896-15.707163 15.589063-15.707163 40.862242 0 56.569404 15.589063 15.589063 40.862241 15.589063 56.569404 0 15.589063-15.707162 15.589063-40.980341 0-56.569404-7.912631-7.91263-18.069142-11.809896-28.343752-11.809896zm169.708212 0c-10.156511 0-20.431121 3.897266-28.225652 11.809896-15.707163 15.589063-15.707163 40.862242 0 56.569404 15.589063 15.589063 40.862242 15.589063 56.569404 0 15.589063-15.707162 15.589063-40.980341 0-56.569404-7.912631-7.91263-18.069142-11.809896-28.343752-11.809896zm-84.795056 35.193491c-22.202606 0-40.035549 17.832944-40.035549 40.035549s17.832943 40.035549 40.035549 40.035549c22.084506 0 39.91745-17.832944 39.91745-40.035549s-17.832944-40.035549-39.91745-40.035549zm0 0" fill="none" stroke="#212121" stroke-linecap="round" stroke-width="11.338583" transform="scale(.0330761)"/><path d="m31.753906 36.222656c-5.132812 0-9.261718 4.128906-9.261718 9.261719 0 .109375.003906.21875.007812.328125.171875-4.972656 4.234375-8.929688 9.253906-8.929688 5.019532 0 9.082032 3.957032 9.253906 8.929688.003907-.109375.007813-.21875.007813-.328125 0-5.132813-4.132813-9.261719-9.261719-9.261719zm0 0" fill="#fff" fill-opacity=".392157"/><path d="m22.503906 45.980469c-.007812.164062-.011718.328125-.011718.496093 0 5.128907 4.128906 9.261719 9.261718 9.261719 5.128906 0 9.261719-4.132812 9.261719-9.261719 0-.167968-.007813-.332031-.015625-.496093-.253906 4.898437-4.28125 8.765625-9.246094 8.765625s-8.992187-3.867188-9.25-8.765625zm0 0" fill-opacity=".235294"/><path d="m254.006994 74.75358c40.902344 0 74.086675 33.153084 74.086675 74.086675 0 40.902344-33.184331 74.086675-74.086675 74.086675-40.933591 0-74.086676-33.184331-74.086676-74.086675 0-40.933591 33.153085-74.086675 74.086676-74.086675zm0 0" fill="none" stroke="#212121" stroke-linecap="round" stroke-width="3" transform="matrix(.125012 0 0 .125012 0 26.877566)"/><path d="m26.300781 16.214844c1.550781 1.550781.710938 4.902344-1.871093 7.484375-2.582032 2.585937-5.933594 3.421875-7.484376 1.871093-1.550781-1.550781-.710937-4.898437 1.871094-7.484374 2.582032-2.582032 5.933594-3.421876 7.484375-1.871094zm0 0" fill="#fff" fill-opacity=".156863"/><path d="m29.644531 24.191406c.800781.800782.367188 2.523438-.960937 3.855469-1.332032 1.332031-3.058594 1.761719-3.859375.964844-.796875-.796875-.363281-2.523438.964843-3.855469 1.332032-1.332031 3.058594-1.761719 3.855469-.964844zm0 0" fill="#fff" fill-opacity=".156863"/><path d="m960.026483 175.140764c-324.890252 0-600.887532 201.713032-710.010975 487.394427l-81.133989-21.730209c-3.306771-.944792-6.613542-1.417188-9.920313-1.417188-17.832943-.236198-34.248699 11.573699-39.090757 29.64284l-20.667319 77.236723c-5.66875 21.494011 6.84974 43.34232 28.343752 49.01107l81.488285 21.848309c-5.904948 38.500262-9.09362 77.827217-9.09362 117.980865 0 110.304433 23.265496 214.822017 65.190628 309.301188l-72.98516 42.043232c-19.132032 11.101302-25.745574 35.429689-14.644271 54.67982l40.035549 69.324093c11.101302 19.132032 35.429689 25.627475 54.67982 14.526172l72.867061-42.043231c137.939591 189.430739 361.61903 312.135563 614.941309 312.135563 181.400009 0 347.683351-62.946748 478.064608-168.291024l59.639977 59.639977c15.589064 15.589063 40.862242 15.589063 56.569404 0l56.569404-56.569404c15.589064-15.707163 15.589064-40.980341 0-56.569404l-59.639977-59.639977c49.601565-61.175264 89.755213-130.263158 118.453262-205.137902l81.370186 21.848309c21.494012 5.66875 43.34232-6.84974 49.011071-28.343752l20.667318-77.236723c5.78685-21.375912-6.84974-43.224221-28.225652-49.01107l-81.724484-21.848308c6.023048-38.736461 9.21172-78.417713 9.21172-118.807559 0-40.153648-3.070574-79.480603-8.975522-117.980865l81.488286-21.848309c21.375912-5.66875 34.012502-27.517059 28.225652-49.01107l-20.667318-77.236723c-5.668751-21.375912-27.517059-34.012502-49.011071-28.225652l-81.015889 21.730209c-109.241543-285.681395-385.238823-487.394427-710.010975-487.394427zm0 0" fill="none" stroke="#212121" stroke-linecap="round" stroke-width="11.338583" transform="scale(.0330761)"/><path d="m31.753906 9.761719c-11.726562 0-21.167968 9.441406-21.167968 21.167969v.332031c.175781-11.574219 9.550781-20.839844 21.167968-20.839844 11.617188 0 20.988282 9.265625 21.164063 20.839844.003906-.109375.003906-.222657.003906-.332031 0-11.726563-9.441406-21.167969-21.167969-21.167969zm0 0" fill-opacity=".392157"/><path d="m254.006994-168.660675c111.051895 0 201.074548 90.022653 201.074548 201.074548s-90.022653 201.074548-201.074548 201.074548c-111.051896 0-201.105796-90.022653-201.105796-201.074548s90.0539-201.074548 201.105796-201.074548zm0 0" fill="none" stroke="#212121" stroke-linecap="round" stroke-width="3" transform="matrix(.125012 0 0 .125012 0 26.877566)"/><path d="m31.753906 9.761719c-11.726562 0-21.167968 9.441406-21.167968 21.167969 0 5.070312 1.761718 9.710937 4.714843 13.347656 9.21875-10.378906 22.28125-17.261719 37.003907-18.453125-2.273438-9.246094-10.585938-16.0625-20.550782-16.0625zm0 0" fill="#fff" fill-opacity=".117647"/></svg>