<svg height="64pt" viewBox="0 0 64 64" width="64pt" xmlns="http://www.w3.org/2000/svg" xmlns:xlink="http://www.w3.org/1999/xlink"><linearGradient id="a" gradientTransform="matrix(.0838724 .0838724 -.0838724 .0838724 1.625197 25.793225)" gradientUnits="userSpaceOnUse" x1="344.714539" x2="52.856232" y1="-14.495687" y2="-306.354004"><stop offset="0" stop-color="#424242"/><stop offset="1" stop-color="#616161"/></linearGradient><linearGradient id="b" gradientUnits="userSpaceOnUse" x1="31.753056" x2="31.753056" y1="52.09876590428" y2="5.792224912"><stop offset="0" stop-color="#bdbdbd"/><stop offset="1" stop-color="#e0e0e0"/></linearGradient><linearGradient id="c" gradientTransform="matrix(.0852354 0 0 .125012 10.103224 26.87757)" gradientUnits="userSpaceOnUse" x1="254" x2="254" y1="233.5" y2="254.666672"><stop offset="0" stop-opacity=".27451"/><stop offset="1" stop-opacity="0"/></linearGradient><linearGradient id="d"><stop offset="0" stop-opacity=".313726"/><stop offset=".222222" stop-opacity=".27451"/><stop offset="1" stop-opacity="0"/></linearGradient><radialGradient id="e" cx="450.908936" cy="189.579361" gradientTransform="matrix(.00000024 -.156265 -.19178 -.0000002 69.012493 127.190665)" gradientUnits="userSpaceOnUse" r="21.166656" xlink:href="#d"/><radialGradient id="f" cx="450.908936" cy="189.579361" gradientTransform="matrix(-.00000024 .156265 .19178 .0000002 -5.506422 -15.054958)" gradientUnits="userSpaceOnUse" r="21.166656" xlink:href="#d"/><radialGradient id="g" cx="450.908936" cy="189.579361" gradientTransform="matrix(-.00000024 -.156265 .19178 -.0000002 -5.506422 127.190665)" gradientUnits="userSpaceOnUse" r="21.166656" xlink:href="#d"/><radialGradient id="h" cx="450.908936" cy="189.579361" gradientTransform="matrix(.00000024 .156265 -.19178 .0000002 69.01249 -15.054959)" gradientUnits="userSpaceOnUse" r="21.166656" xlink:href="#d"/><path d="m33.511719 6.421875 21.523437 21.527344c.972656.96875.972656 2.542969 0 3.511719l-21.523437 21.527343c-.972657.96875-2.546875.96875-3.515625 0l-21.527344-21.527343c-.96875-.96875-.96875-2.542969 0-3.511719l21.527344-21.527344c.96875-.96875 2.542968-.96875 3.515625 0zm0 0" fill="url(#a)"/><path d="m49.980469 22.890625c-.203125.195313-.414063.363281-.625.503906l5.679687 5.679688c.34375.34375.5625.757812.664063 1.195312.191406-.808593-.03125-1.691406-.664063-2.320312zm-37.144531.691406-4.367188 4.367188c-.628906.628906-.851562 1.511719-.664062 2.320312.101562-.4375.324218-.851562.664062-1.195312l4.808594-4.808594c-.152344-.21875-.296875-.445313-.441406-.683594zm0 0" fill="#ebebeb" fill-opacity=".392157"/><path d="m31.753906 5.691406c-.636718 0-1.269531.242188-1.757812.730469l-17.160156 17.160156c3.570312 6.003907 10.589843 5.777344 13.40625 3.214844 4.847656-6.453125 6.265624.332031 8.179687-5.03125 2.339844-6.578125 10.644531 5.871094 15.558594 1.125l-16.46875-16.46875c-.488281-.488281-1.125-.730469-1.757813-.730469zm0 0" fill="url(#b)" fill-rule="evenodd"/><path d="m30.398438 56.066406h2.707031v2.648438h-2.707031zm0 0" fill="url(#c)"/><path d="m33.105469 56.066406h3.609375v-2.644531h-3.609375zm0 0" fill="url(#e)"/><path d="m30.398438 56.066406h-3.605469v2.648438h3.605469zm0 0" fill="url(#f)"/><path d="m30.398438 56.066406h-3.605469v-2.644531h3.605469zm0 0" fill="url(#g)"/><path d="m33.105469 56.066406h3.609375v2.648438h-3.609375zm0 0" fill="url(#h)"/><path d="m31.753906 5.691406c-.636718 0-1.269531.242188-1.757812.730469l-17.160156 17.160156c.144531.238281.289062.464844.441406.683594l16.71875-16.714844c.972656-.976562 2.539062-.976562 3.515625 0l15.84375 15.84375c.210937-.140625.421875-.308593.625-.503906l-16.46875-16.46875c-.488281-.488281-1.125-.730469-1.757813-.730469zm0 0" fill="#ebebeb"/><path d="m73.848991-305.256623 243.508741.022095c10.981204-.022095 19.88548 8.882181 19.863385 19.863384l.022095 243.508741c-.022095 10.981204-8.926371 19.885479-19.88548 19.885479h-243.530836c-10.959108 0-19.863384-8.904275-19.863384-19.863384v-243.530836c0-10.959108 8.904276-19.863384 19.885479-19.885479zm0 0" fill="none" stroke="#212121" stroke-linecap="round" stroke-linejoin="round" stroke-width="3" transform="matrix(.0883968 .0883968 -.0883968 .0883968 0 26.877566)"/><g fill="#ef5350"><path d="m31.753906 48.128906c2.191406 0 3.96875 1.777344 3.96875 3.96875s-1.777344 3.96875-3.96875 3.96875-3.96875-1.777344-3.96875-3.96875 1.777344-3.96875 3.96875-3.96875zm0 0"/><path d="m7.9375 26.960938c1.460938 0 2.648438 1.183593 2.648438 2.644531 0 1.464843-1.1875 2.648437-2.648438 2.648437s-2.644531-1.183594-2.644531-2.648437c0-1.460938 1.183593-2.644531 2.644531-2.644531zm0 0"/><path d="m7.664062 30.929688.9375-.933594 24.320313 24.320312-.933594.9375zm0 0"/><path d="m55.84375 30.929688-.9375-.933594-24.324219 24.320312.9375.9375zm0 0"/><path d="m55.566406 26.960938c1.460938 0 2.648438 1.183593 2.648438 2.644531 0 1.464843-1.1875 2.648437-2.648438 2.648437-1.460937 0-2.644531-1.183594-2.644531-2.648437 0-1.460938 1.183594-2.644531 2.644531-2.644531zm0 0"/></g><path d="m10.570312 29.328125c-.058593.558594-.285156 1.058594-.628906 1.457031l.234375.234375c.257813-.40625.410157-.890625.410157-1.414062 0-.09375-.007813-.183594-.015626-.277344zm42.367188 0c-.011719.09375-.015625.183594-.015625.277344 0 .523437.148437 1.007812.40625 1.414062l.234375-.234375c-.34375-.398437-.570312-.898437-.625-1.457031zm-47.632812.003906c-.007813.089844-.011719.183594-.011719.273438 0 1.46875 1.179687 2.648437 2.644531 2.648437.316406 0 .617188-.054687.894531-.15625l18.980469 18.980469c.019531-.160156.046875-.316406.082031-.46875l-19.0625-19.0625c-.277343.101563-.578125.15625-.894531.15625-1.371094 0-2.496094-1.035156-2.632812-2.371094zm52.894531 0c-.136719 1.335938-1.257813 2.371094-2.632813 2.371094-.3125 0-.613281-.054687-.894531-.15625l-19.0625 19.0625c.039063.152344.066406.308594.085937.46875l18.976563-18.980469c.28125.101563.582031.15625.894531.15625 1.46875 0 2.648438-1.179687 2.648438-2.648437 0-.089844-.003906-.183594-.015625-.273438zm-22.488281 22.492188c-.140626 2.070312-1.851563 3.691406-3.957032 3.691406-2.105468 0-3.820312-1.621094-3.960937-3.691406-.003907.089843-.007813.183593-.007813.273437 0 2.199219 1.769532 3.96875 3.96875 3.96875 2.199219 0 3.96875-1.769531 3.96875-3.96875 0-.089844-.003906-.183594-.011718-.273437zm0 0" fill-opacity=".235294"/><path d="m9.515625 26.902344-.359375.359375c.769531.394531 1.3125 1.15625 1.410156 2.058593.011719-.097656.019532-.191406.019532-.289062 0-.875-.421876-1.648438-1.070313-2.128906zm44.476563 0c-.652344.480468-1.070313 1.253906-1.070313 2.128906 0 .097656.003906.191406.015625.289062.097656-.902343.644531-1.664062 1.410156-2.058593zm-43.804688 4.105468c-.074219.117188-.15625.230469-.246094.335938l18.527344 18.523438c.714844-1.046876 1.914062-1.734376 3.285156-1.734376 1.367188 0 2.570313.6875 3.285156 1.734376l18.523438-18.523438c-.089844-.105469-.171875-.21875-.246094-.335938l-18.277344 18.28125c-.714843-1.050781-1.917968-1.734374-3.285156-1.734374-1.371094 0-2.570312.683593-3.285156 1.734374zm0 0" fill-opacity=".235294"/><path d="m7.9375 26.960938c-1.464844 0-2.644531 1.179687-2.644531 2.644531 0 .101562.003906.195312.015625.292969.144531-1.328126 1.261718-2.355469 2.628906-2.355469s2.484375 1.027343 2.628906 2.351562c.011719-.09375.019532-.191406.019532-.289062 0-1.464844-1.183594-2.644531-2.648438-2.644531zm47.628906 0c-1.464844 0-2.644531 1.179687-2.644531 2.644531 0 .097656.003906.195312.015625.289062.144531-1.324219 1.261719-2.351562 2.628906-2.351562 1.367188 0 2.488282 1.027343 2.632813 2.355469.007812-.097657.015625-.191407.015625-.292969 0-1.464844-1.179688-2.644531-2.648438-2.644531zm-45.378906 4.621093c-.074219.121094-.15625.230469-.246094.335938l18.527344 18.527343c.714844-1.046874 1.914062-1.734374 3.285156-1.734374 1.367188 0 2.570313.6875 3.285156 1.734374l18.523438-18.527343c-.089844-.105469-.171875-.214844-.246094-.335938l-18.277344 18.28125c-.714843-1.046875-1.917968-1.734375-3.285156-1.734375-1.371094 0-2.570312.6875-3.285156 1.734375zm25.511719 20.074219-.089844.085938c.050781.210937.085937.425781.101563.648437.007812-.09375.011718-.191406.011718-.292969 0-.148437-.007812-.296875-.023437-.441406zm-7.890625 0c-.015625.144531-.023438.292969-.023438.441406 0 .101563.003906.199219.007813.292969.015625-.222656.050781-.4375.101562-.648437zm0 0" fill="#fff" fill-opacity=".392157"/><path d="m239.977096 815.119053c-44.287112 0-79.952999 35.665888-79.952999 79.952999 0 44.405211 35.665887 80.071098 79.952999 80.071098 9.566016 0 18.659636-1.653385 27.044663-4.723958l576.322947 576.322947c-2.125782 9.09362-3.306771 18.541537-3.306771 28.343751 0 66.489717 53.498831 119.988548 119.988548 119.988548s119.988548-53.498831 119.988548-119.988548c0-9.802214-1.18099-19.250131-3.42487-28.343751l576.322947-576.322947c8.503125 3.070573 17.596745 4.723958 27.044663 4.723958 44.40521 0 80.071098-35.665887 80.071098-80.071098 0-44.287111-35.665888-79.952999-80.071098-79.952999-44.287112 0-79.952999 35.665888-79.952999 79.952999 0 20.076824 7.322135 38.382164 19.36823 52.317842l-560.02529 560.143388c-21.612111-31.650522-57.986592-52.43594-99.321229-52.43594-41.452737 0-77.709119 20.785418-99.321229 52.43594l-560.143389-560.143388c12.164193-13.935678 19.486329-32.241018 19.486329-52.317842 0-44.287111-35.783986-79.952999-80.071098-79.952999zm0 0" fill="none" stroke="#212121" stroke-linecap="round" stroke-linejoin="round" stroke-width="11.338583" transform="scale(.0330761)"/><path d="m31.765625 5.691406h-.003906c.632812.003906 1.261719.246094 1.75.730469l16.464843 16.46875c-4.910156 4.742187-13.214843-7.703125-15.558593-1.128906-1.910157 5.367187-3.328125-1.417969-8.175781 5.035156-2.816407 2.5625-9.832032 2.785156-13.402344-3.21875l17.15625-17.15625c.304687-.304687.664062-.511719 1.046875-.625-.402344.117187-.785157.335937-1.101563.652344l-17.832031 17.832031c3.710937 6.238281 11.003906 6.003906 13.933594 3.339844 5.035156-6.703125 6.507812.347656 8.496093-5.226563 2.433594-6.835937 11.0625 6.097657 16.167969 1.167969l-17.113281-17.113281c-.507812-.503907-1.167969-.757813-1.828125-.757813zm0 0" fill-opacity=".235294" fill-rule="evenodd"/></svg>