<?xml version="1.0" encoding="UTF-8"?>
<svg xmlns="http://www.w3.org/2000/svg" xmlns:xlink="http://www.w3.org/1999/xlink" width="64pt" height="64pt" viewBox="0 0 64 64" version="1.1">
<defs>
<linearGradient id="linear0" gradientUnits="userSpaceOnUse" x1="254" y1="233.5" x2="254" y2="254.666672" gradientTransform="matrix(0.125012,0,0,0.125012,-0.00000763012,26.87757)">
<stop offset="0" style="stop-color:rgb(0%,0%,0%);stop-opacity:0.27451;"/>
<stop offset="1" style="stop-color:rgb(0%,0%,0%);stop-opacity:0;"/>
</linearGradient>
<radialGradient id="radial0" gradientUnits="userSpaceOnUse" cx="450.908936" cy="189.579361" fx="450.908936" fy="189.579361" r="21.166656" gradientTransform="matrix(0.000000348341,-0.156265,-0.281277,-0.000000203077,100.292171,127.190665)">
<stop offset="0" style="stop-color:rgb(0%,0%,0%);stop-opacity:0.313726;"/>
<stop offset="0.222222" style="stop-color:rgb(0%,0%,0%);stop-opacity:0.27451;"/>
<stop offset="1" style="stop-color:rgb(0%,0%,0%);stop-opacity:0;"/>
</radialGradient>
<radialGradient id="radial1" gradientUnits="userSpaceOnUse" cx="450.908936" cy="189.579361" fx="450.908936" fy="189.579361" r="21.166656" gradientTransform="matrix(-0.000000348341,0.156265,0.281277,0.000000203077,-36.786098,-15.054961)">
<stop offset="0" style="stop-color:rgb(0%,0%,0%);stop-opacity:0.313726;"/>
<stop offset="0.222222" style="stop-color:rgb(0%,0%,0%);stop-opacity:0.27451;"/>
<stop offset="1" style="stop-color:rgb(0%,0%,0%);stop-opacity:0;"/>
</radialGradient>
<radialGradient id="radial2" gradientUnits="userSpaceOnUse" cx="450.908936" cy="189.579361" fx="450.908936" fy="189.579361" r="21.166656" gradientTransform="matrix(-0.000000348341,-0.156265,0.281277,-0.000000203077,-36.786098,127.190665)">
<stop offset="0" style="stop-color:rgb(0%,0%,0%);stop-opacity:0.313726;"/>
<stop offset="0.222222" style="stop-color:rgb(0%,0%,0%);stop-opacity:0.27451;"/>
<stop offset="1" style="stop-color:rgb(0%,0%,0%);stop-opacity:0;"/>
</radialGradient>
<radialGradient id="radial3" gradientUnits="userSpaceOnUse" cx="450.908936" cy="189.579361" fx="450.908936" fy="189.579361" r="21.166656" gradientTransform="matrix(0.000000348341,0.156265,-0.281277,0.000000203077,100.292167,-15.054959)">
<stop offset="0" style="stop-color:rgb(0%,0%,0%);stop-opacity:0.313726;"/>
<stop offset="0.222222" style="stop-color:rgb(0%,0%,0%);stop-opacity:0.27451;"/>
<stop offset="1" style="stop-color:rgb(0%,0%,0%);stop-opacity:0;"/>
</radialGradient>
<linearGradient id="linear1" gradientUnits="userSpaceOnUse" x1="288.395844" y1="-25.791676" x2="288.395844" y2="-141.414581" gradientTransform="matrix(0.150699,0,0,0.434824,-11.708026,67.282696)">
<stop offset="0" style="stop-color:rgb(25.882354%,25.882354%,25.882354%);stop-opacity:1;"/>
<stop offset="1" style="stop-color:rgb(38.039216%,38.039216%,38.039216%);stop-opacity:1;"/>
</linearGradient>
<linearGradient id="linear2" gradientUnits="userSpaceOnUse" x1="285.75" y1="212.333328" x2="285.75" y2="-147.5" gradientTransform="matrix(0.125012,0,0,0.125012,0,26.877566)">
<stop offset="0" style="stop-color:rgb(87.843138%,87.843138%,87.843138%);stop-opacity:1;"/>
<stop offset="1" style="stop-color:rgb(93.333334%,93.333334%,93.333334%);stop-opacity:1;"/>
</linearGradient>
<linearGradient id="linear3" gradientUnits="userSpaceOnUse" x1="174.625" y1="-131.625" x2="174.625" y2="-94.583336" >
<stop offset="0" style="stop-color:rgb(25.882354%,25.882354%,25.882354%);stop-opacity:1;"/>
<stop offset="1" style="stop-color:rgb(38.039216%,38.039216%,38.039216%);stop-opacity:1;"/>
</linearGradient>
<linearGradient id="linear4" gradientUnits="userSpaceOnUse" x1="174.625" y1="-131.625" x2="174.625" y2="-94.583336" gradientTransform="matrix(1,0,0,1,0,148.166672)">
<stop offset="0" style="stop-color:rgb(25.882354%,25.882354%,25.882354%);stop-opacity:1;"/>
<stop offset="1" style="stop-color:rgb(38.039216%,38.039216%,38.039216%);stop-opacity:1;"/>
</linearGradient>
<linearGradient id="linear5" gradientUnits="userSpaceOnUse" x1="174.625" y1="-131.625" x2="174.625" y2="-94.583336" gradientTransform="matrix(1,0,0,1,0,296.333344)">
<stop offset="0" style="stop-color:rgb(25.882354%,25.882354%,25.882354%);stop-opacity:1;"/>
<stop offset="1" style="stop-color:rgb(38.039216%,38.039216%,38.039216%);stop-opacity:1;"/>
</linearGradient>
<linearGradient id="linear6" gradientUnits="userSpaceOnUse" x1="174.625" y1="-131.625" x2="174.625" y2="-94.583336" gradientTransform="matrix(1,0,0,1,0,74.083336)">
<stop offset="0" style="stop-color:rgb(25.882354%,25.882354%,25.882354%);stop-opacity:1;"/>
<stop offset="1" style="stop-color:rgb(38.039216%,38.039216%,38.039216%);stop-opacity:1;"/>
</linearGradient>
<linearGradient id="linear7" gradientUnits="userSpaceOnUse" x1="174.625" y1="-131.625" x2="174.625" y2="-94.583336" gradientTransform="matrix(1,0,0,1,0,222.250015)">
<stop offset="0" style="stop-color:rgb(25.882354%,25.882354%,25.882354%);stop-opacity:1;"/>
<stop offset="1" style="stop-color:rgb(38.039216%,38.039216%,38.039216%);stop-opacity:1;"/>
</linearGradient>
<linearGradient id="linear8" gradientUnits="userSpaceOnUse" x1="1400" y1="1615.118164" x2="1400" y2="1335.118164" gradientTransform="matrix(0.0330761,0,0,0.0330761,0,0)">
<stop offset="0" style="stop-color:rgb(61.960787%,61.960787%,61.960787%);stop-opacity:1;"/>
<stop offset="1" style="stop-color:rgb(87.843138%,87.843138%,87.843138%);stop-opacity:1;"/>
</linearGradient>
<linearGradient id="linear9" gradientUnits="userSpaceOnUse" x1="104.333328" y1="-115.750008" x2="181.416656" y2="-115.750008" gradientTransform="matrix(0.125012,0,0,0.125012,0,26.877566)">
<stop offset="0" style="stop-color:rgb(93.725491%,32.549021%,31.37255%);stop-opacity:1;"/>
<stop offset="1" style="stop-color:rgb(89.803922%,45.09804%,45.09804%);stop-opacity:1;"/>
</linearGradient>
<linearGradient id="linear10" gradientUnits="userSpaceOnUse" x1="104.333328" y1="-115.750008" x2="181.416656" y2="-115.750008" gradientTransform="matrix(0.125012,0,0,0.125012,0,36.138869)">
<stop offset="0" style="stop-color:rgb(93.725491%,32.549021%,31.37255%);stop-opacity:1;"/>
<stop offset="1" style="stop-color:rgb(89.803922%,45.09804%,45.09804%);stop-opacity:1;"/>
</linearGradient>
<linearGradient id="linear11" gradientUnits="userSpaceOnUse" x1="104.333328" y1="-115.750008" x2="181.416656" y2="-115.750008" gradientTransform="matrix(0.125012,0,0,0.125012,0,45.400171)">
<stop offset="0" style="stop-color:rgb(93.725491%,32.549021%,31.37255%);stop-opacity:1;"/>
<stop offset="1" style="stop-color:rgb(89.803922%,45.09804%,45.09804%);stop-opacity:1;"/>
</linearGradient>
<linearGradient id="linear12" gradientUnits="userSpaceOnUse" x1="104.333328" y1="-115.750008" x2="181.416656" y2="-115.750008" gradientTransform="matrix(0.125012,0,0,0.125012,0,54.661471)">
<stop offset="0" style="stop-color:rgb(93.725491%,32.549021%,31.37255%);stop-opacity:1;"/>
<stop offset="1" style="stop-color:rgb(89.803922%,45.09804%,45.09804%);stop-opacity:1;"/>
</linearGradient>
<linearGradient id="linear13" gradientUnits="userSpaceOnUse" x1="104.333328" y1="-115.750008" x2="181.416656" y2="-115.750008" gradientTransform="matrix(0.125012,0,0,0.125012,0,63.922772)">
<stop offset="0" style="stop-color:rgb(93.725491%,32.549021%,31.37255%);stop-opacity:1;"/>
<stop offset="1" style="stop-color:rgb(89.803922%,45.09804%,45.09804%);stop-opacity:1;"/>
</linearGradient>
</defs>
<g id="surface1">
<path style=" stroke:none;fill-rule:nonzero;fill:url(#linear0);" d="M 15.875 56.066406 L 47.628906 56.066406 L 47.628906 58.714844 L 15.875 58.714844 Z M 15.875 56.066406 "/>
<path style=" stroke:none;fill-rule:nonzero;fill:url(#radial0);" d="M 47.628906 56.066406 L 52.921875 56.066406 L 52.921875 53.421875 L 47.628906 53.421875 Z M 47.628906 56.066406 "/>
<path style=" stroke:none;fill-rule:nonzero;fill:url(#radial1);" d="M 15.875 56.066406 L 10.585938 56.066406 L 10.585938 58.714844 L 15.875 58.714844 Z M 15.875 56.066406 "/>
<path style=" stroke:none;fill-rule:nonzero;fill:url(#radial2);" d="M 15.875 56.066406 L 10.585938 56.066406 L 10.585938 53.421875 L 15.875 53.421875 Z M 15.875 56.066406 "/>
<path style=" stroke:none;fill-rule:nonzero;fill:url(#radial3);" d="M 47.628906 56.066406 L 52.921875 56.066406 L 52.921875 58.714844 L 47.628906 58.714844 Z M 47.628906 56.066406 "/>
<path style=" stroke:none;fill-rule:nonzero;fill:url(#linear1);" d="M 13.230469 5.792969 L 50.277344 5.792969 C 51.738281 5.792969 52.921875 6.976562 52.921875 8.4375 L 52.921875 53.421875 C 52.921875 54.882812 51.738281 56.066406 50.277344 56.066406 L 13.230469 56.066406 C 11.769531 56.066406 10.585938 54.882812 10.585938 53.421875 L 10.585938 8.4375 C 10.585938 6.976562 11.769531 5.792969 13.230469 5.792969 Z M 13.230469 5.792969 "/>
<path style=" stroke:none;fill-rule:nonzero;fill:rgb(0%,0%,0%);fill-opacity:0.196078;" d="M 13.230469 55.917969 C 11.765625 55.917969 10.585938 54.738281 10.585938 53.273438 L 10.585938 52.941406 C 10.585938 54.40625 11.765625 55.585938 13.230469 55.585938 L 50.277344 55.585938 C 51.742188 55.585938 52.921875 54.40625 52.921875 52.941406 L 52.921875 53.273438 C 52.921875 54.738281 51.742188 55.917969 50.277344 55.917969 Z M 13.230469 55.917969 "/>
<path style=" stroke:none;fill-rule:nonzero;fill:rgb(100%,100%,100%);fill-opacity:0.392157;" d="M 13.230469 5.957031 C 11.765625 5.957031 10.585938 7.140625 10.585938 8.605469 L 10.585938 8.933594 C 10.585938 7.46875 11.765625 6.285156 13.230469 6.289062 L 50.277344 6.289062 C 51.742188 6.285156 52.921875 7.46875 52.921875 8.933594 L 52.921875 8.605469 C 52.921875 7.140625 51.742188 5.957031 50.277344 5.957031 Z M 13.230469 5.957031 "/>
<path style=" stroke:none;fill-rule:nonzero;fill:url(#linear2);" d="M 18.523438 8.4375 L 50.277344 8.4375 C 51.007812 8.4375 51.597656 9.03125 51.597656 9.761719 L 51.597656 52.097656 C 51.597656 52.828125 51.007812 53.421875 50.277344 53.421875 L 18.523438 53.421875 C 17.792969 53.421875 17.199219 52.828125 17.199219 52.097656 L 17.199219 9.761719 C 17.199219 9.03125 17.792969 8.4375 18.523438 8.4375 Z M 18.523438 8.4375 "/>
<path style=" stroke:none;fill-rule:nonzero;fill:rgb(100%,100%,100%);fill-opacity:0.987952;" d="M 18.523438 8.4375 C 17.789062 8.4375 17.199219 9.027344 17.199219 9.761719 L 17.199219 10.421875 C 17.199219 9.691406 17.789062 9.101562 18.523438 9.101562 L 50.277344 9.101562 C 51.007812 9.101562 51.597656 9.691406 51.597656 10.421875 L 51.597656 9.761719 C 51.597656 9.027344 51.007812 8.4375 50.277344 8.4375 Z M 18.523438 8.4375 "/>
<path style=" stroke:none;fill-rule:nonzero;fill:rgb(12.941177%,12.941177%,12.941177%);fill-opacity:1;" d="M 18.523438 8.25 C 17.6875 8.25 17.011719 8.929688 17.011719 9.761719 L 17.011719 52.097656 C 17.011719 52.933594 17.6875 53.609375 18.523438 53.609375 L 50.277344 53.609375 C 51.109375 53.609375 51.785156 52.933594 51.785156 52.097656 L 51.785156 9.761719 C 51.785156 8.929688 51.109375 8.25 50.277344 8.25 Z M 18.523438 8.625 L 50.277344 8.625 C 50.90625 8.625 51.410156 9.128906 51.410156 9.761719 L 51.410156 52.097656 C 51.410156 52.730469 50.90625 53.234375 50.277344 53.234375 L 18.523438 53.234375 C 17.890625 53.234375 17.386719 52.730469 17.386719 52.097656 L 17.386719 9.761719 C 17.386719 9.128906 17.890625 8.625 18.523438 8.625 Z M 18.523438 8.625 "/>
<path style=" stroke:none;fill-rule:nonzero;fill:rgb(0%,0%,0%);fill-opacity:0.313726;" d="M 18.523438 54.082031 C 17.789062 54.082031 17.199219 53.492188 17.199219 52.761719 L 17.199219 52.097656 C 17.199219 52.832031 17.789062 53.421875 18.523438 53.421875 L 50.277344 53.421875 C 51.007812 53.421875 51.597656 52.832031 51.597656 52.097656 L 51.597656 52.761719 C 51.597656 53.492188 51.007812 54.082031 50.277344 54.082031 Z M 18.523438 54.082031 "/>
<path style="fill-rule:nonzero;fill:url(#linear3);stroke-width:3;stroke-linecap:round;stroke-linejoin:round;stroke:rgb(12.941177%,12.941177%,12.941177%);stroke-opacity:1;stroke-miterlimit:4;" d="M 174.639573 -131.632961 C 180.482765 -131.632961 185.201064 -126.883415 185.201064 -121.040223 L 185.201064 -110.447484 C 185.201064 -104.604292 180.482765 -99.885993 174.639573 -99.885993 C 168.765134 -99.885993 164.046834 -104.604292 164.046834 -110.447484 L 164.046834 -121.040223 C 164.046834 -126.883415 168.765134 -131.632961 174.639573 -131.632961 Z M 174.639573 -131.632961 " transform="matrix(0.125012,0,0,0.125012,0,26.877566)"/>
<path style="fill-rule:nonzero;fill:url(#linear4);stroke-width:3;stroke-linecap:round;stroke-linejoin:round;stroke:rgb(12.941177%,12.941177%,12.941177%);stroke-opacity:1;stroke-miterlimit:4;" d="M 174.639573 16.540389 C 180.482765 16.540389 185.201064 21.289935 185.201064 27.133127 L 185.201064 37.694619 C 185.201064 43.537811 180.482765 48.287357 174.639573 48.287357 C 168.765134 48.287357 164.046834 43.537811 164.046834 37.694619 L 164.046834 27.133127 C 164.046834 21.289935 168.765134 16.540389 174.639573 16.540389 Z M 174.639573 16.540389 " transform="matrix(0.125012,0,0,0.125012,0,26.877566)"/>
<path style="fill-rule:nonzero;fill:url(#linear5);stroke-width:3;stroke-linecap:round;stroke-linejoin:round;stroke:rgb(12.941177%,12.941177%,12.941177%);stroke-opacity:1;stroke-miterlimit:4;" d="M 174.639573 164.713739 C 180.482765 164.713739 185.201064 169.432039 185.201064 175.306478 L 185.201064 185.867969 C 185.201064 191.711161 180.482765 196.460707 174.639573 196.460707 C 168.765134 196.460707 164.046834 191.711161 164.046834 185.867969 L 164.046834 175.306478 C 164.046834 169.432039 168.765134 164.713739 174.639573 164.713739 Z M 174.639573 164.713739 " transform="matrix(0.125012,0,0,0.125012,0,26.877566)"/>
<path style="fill-rule:nonzero;fill:url(#linear6);stroke-width:3;stroke-linecap:round;stroke-linejoin:round;stroke:rgb(12.941177%,12.941177%,12.941177%);stroke-opacity:1;stroke-miterlimit:4;" d="M 174.639573 -57.546286 C 180.482765 -57.546286 185.201064 -52.79674 185.201064 -46.953548 L 185.201064 -36.360809 C 185.201064 -30.517617 180.482765 -25.799318 174.639573 -25.799318 C 168.765134 -25.799318 164.046834 -30.517617 164.046834 -36.360809 L 164.046834 -46.953548 C 164.046834 -52.79674 168.765134 -57.546286 174.639573 -57.546286 Z M 174.639573 -57.546286 " transform="matrix(0.125012,0,0,0.125012,0,26.877566)"/>
<path style="fill-rule:nonzero;fill:url(#linear7);stroke-width:3;stroke-linecap:round;stroke-linejoin:round;stroke:rgb(12.941177%,12.941177%,12.941177%);stroke-opacity:1;stroke-miterlimit:4;" d="M 174.639573 90.627064 C 180.482765 90.627064 185.201064 95.376611 185.201064 101.219803 L 185.201064 111.781294 C 185.201064 117.624486 180.482765 122.374032 174.639573 122.374032 C 168.765134 122.374032 164.046834 117.624486 164.046834 111.781294 L 164.046834 101.219803 C 164.046834 95.376611 168.765134 90.627064 174.639573 90.627064 Z M 174.639573 90.627064 " transform="matrix(0.125012,0,0,0.125012,0,26.877566)"/>
<path style=" stroke:none;fill-rule:nonzero;fill:rgb(12.941177%,12.941177%,12.941177%);fill-opacity:1;" d="M 13.230469 5.605469 C 11.664062 5.605469 10.398438 6.871094 10.398438 8.4375 L 10.398438 53.421875 C 10.398438 54.988281 11.664062 56.253906 13.230469 56.253906 L 50.277344 56.253906 C 51.84375 56.253906 53.109375 54.988281 53.109375 53.421875 L 53.109375 8.4375 C 53.109375 6.871094 51.84375 5.605469 50.277344 5.605469 Z M 13.230469 5.980469 L 50.277344 5.980469 C 51.640625 5.980469 52.734375 7.074219 52.734375 8.4375 L 52.734375 53.421875 C 52.734375 54.789062 51.640625 55.878906 50.277344 55.878906 L 13.230469 55.878906 C 11.863281 55.878906 10.773438 54.789062 10.773438 53.421875 L 10.773438 8.4375 C 10.773438 7.074219 11.863281 5.980469 13.230469 5.980469 Z M 13.230469 5.980469 "/>
<path style=" stroke:none;fill-rule:nonzero;fill:url(#linear8);" d="M 43.660156 44.160156 C 42.925781 44.160156 42.335938 44.75 42.335938 45.484375 L 42.335938 53.421875 L 51.597656 44.160156 Z M 43.660156 44.160156 "/>
<path style=" stroke:none;fill-rule:nonzero;fill:url(#linear9);" d="M 13.890625 11.085938 L 21.832031 11.085938 C 22.195312 11.085938 22.492188 11.378906 22.492188 11.746094 L 22.492188 13.070312 C 22.492188 13.433594 22.195312 13.730469 21.832031 13.730469 L 13.890625 13.730469 C 13.527344 13.730469 13.230469 13.433594 13.230469 13.070312 L 13.230469 11.746094 C 13.230469 11.378906 13.527344 11.085938 13.890625 11.085938 Z M 13.890625 11.085938 "/>
<path style=" stroke:none;fill-rule:nonzero;fill:rgb(12.941177%,12.941177%,12.941177%);fill-opacity:0.927711;" d="M 13.890625 10.898438 C 13.425781 10.898438 13.042969 11.277344 13.042969 11.746094 L 13.042969 13.070312 C 13.042969 13.535156 13.425781 13.917969 13.890625 13.917969 L 21.832031 13.917969 C 22.296875 13.917969 22.679688 13.535156 22.679688 13.070312 L 22.679688 11.746094 C 22.679688 11.277344 22.296875 10.898438 21.832031 10.898438 Z M 13.890625 11.273438 L 21.832031 11.273438 C 22.097656 11.273438 22.304688 11.480469 22.304688 11.746094 L 22.304688 13.070312 C 22.304688 13.335938 22.097656 13.542969 21.832031 13.542969 L 13.890625 13.542969 C 13.625 13.542969 13.417969 13.335938 13.417969 13.070312 L 13.417969 11.746094 C 13.417969 11.480469 13.625 11.273438 13.890625 11.273438 Z M 13.890625 11.273438 "/>
<path style=" stroke:none;fill-rule:nonzero;fill:url(#linear10);" d="M 13.890625 20.34375 L 21.832031 20.34375 C 22.195312 20.34375 22.492188 20.640625 22.492188 21.007812 L 22.492188 22.332031 C 22.492188 22.695312 22.195312 22.992188 21.832031 22.992188 L 13.890625 22.992188 C 13.527344 22.992188 13.230469 22.695312 13.230469 22.332031 L 13.230469 21.007812 C 13.230469 20.640625 13.527344 20.34375 13.890625 20.34375 Z M 13.890625 20.34375 "/>
<path style=" stroke:none;fill-rule:nonzero;fill:rgb(12.941177%,12.941177%,12.941177%);fill-opacity:0.927711;" d="M 13.890625 20.15625 C 13.425781 20.15625 13.042969 20.539062 13.042969 21.007812 L 13.042969 22.332031 C 13.042969 22.796875 13.425781 23.179688 13.890625 23.179688 L 21.832031 23.179688 C 22.296875 23.179688 22.679688 22.796875 22.679688 22.332031 L 22.679688 21.007812 C 22.679688 20.539062 22.296875 20.15625 21.832031 20.15625 Z M 13.890625 20.53125 L 21.832031 20.53125 C 22.097656 20.53125 22.304688 20.742188 22.304688 21.007812 L 22.304688 22.332031 C 22.304688 22.597656 22.097656 22.804688 21.832031 22.804688 L 13.890625 22.804688 C 13.625 22.804688 13.417969 22.597656 13.417969 22.332031 L 13.417969 21.007812 C 13.417969 20.742188 13.625 20.53125 13.890625 20.53125 Z M 13.890625 20.53125 "/>
<path style=" stroke:none;fill-rule:nonzero;fill:url(#linear11);" d="M 13.890625 29.605469 L 21.832031 29.605469 C 22.195312 29.605469 22.492188 29.902344 22.492188 30.269531 L 22.492188 31.589844 C 22.492188 31.957031 22.195312 32.253906 21.832031 32.253906 L 13.890625 32.253906 C 13.527344 32.253906 13.230469 31.957031 13.230469 31.589844 L 13.230469 30.269531 C 13.230469 29.902344 13.527344 29.605469 13.890625 29.605469 Z M 13.890625 29.605469 "/>
<path style=" stroke:none;fill-rule:nonzero;fill:rgb(12.941177%,12.941177%,12.941177%);fill-opacity:0.927711;" d="M 13.890625 29.417969 C 13.425781 29.417969 13.042969 29.800781 13.042969 30.269531 L 13.042969 31.589844 C 13.042969 32.058594 13.425781 32.441406 13.890625 32.441406 L 21.832031 32.441406 C 22.296875 32.441406 22.679688 32.058594 22.679688 31.589844 L 22.679688 30.269531 C 22.679688 29.800781 22.296875 29.417969 21.832031 29.417969 Z M 13.890625 29.792969 L 21.832031 29.792969 C 22.097656 29.792969 22.304688 30.003906 22.304688 30.269531 L 22.304688 31.589844 C 22.304688 31.855469 22.097656 32.066406 21.832031 32.066406 L 13.890625 32.066406 C 13.625 32.066406 13.417969 31.855469 13.417969 31.589844 L 13.417969 30.269531 C 13.417969 30.003906 13.625 29.792969 13.890625 29.792969 Z M 13.890625 29.792969 "/>
<path style=" stroke:none;fill-rule:nonzero;fill:url(#linear12);" d="M 13.890625 38.867188 L 21.832031 38.867188 C 22.195312 38.867188 22.492188 39.164062 22.492188 39.53125 L 22.492188 40.851562 C 22.492188 41.21875 22.195312 41.515625 21.832031 41.515625 L 13.890625 41.515625 C 13.527344 41.515625 13.230469 41.21875 13.230469 40.851562 L 13.230469 39.53125 C 13.230469 39.164062 13.527344 38.867188 13.890625 38.867188 Z M 13.890625 38.867188 "/>
<path style=" stroke:none;fill-rule:nonzero;fill:rgb(12.941177%,12.941177%,12.941177%);fill-opacity:0.927711;" d="M 13.890625 38.679688 C 13.425781 38.679688 13.042969 39.0625 13.042969 39.53125 L 13.042969 40.851562 C 13.042969 41.320312 13.425781 41.703125 13.890625 41.703125 L 21.832031 41.703125 C 22.296875 41.703125 22.679688 41.320312 22.679688 40.851562 L 22.679688 39.53125 C 22.679688 39.0625 22.296875 38.679688 21.832031 38.679688 Z M 13.890625 39.054688 L 21.832031 39.054688 C 22.097656 39.054688 22.304688 39.265625 22.304688 39.53125 L 22.304688 40.851562 C 22.304688 41.117188 22.097656 41.328125 21.832031 41.328125 L 13.890625 41.328125 C 13.625 41.328125 13.417969 41.117188 13.417969 40.851562 L 13.417969 39.53125 C 13.417969 39.265625 13.625 39.054688 13.890625 39.054688 Z M 13.890625 39.054688 "/>
<path style=" stroke:none;fill-rule:nonzero;fill:url(#linear13);" d="M 13.890625 48.128906 L 21.832031 48.128906 C 22.195312 48.128906 22.492188 48.425781 22.492188 48.792969 L 22.492188 50.113281 C 22.492188 50.480469 22.195312 50.777344 21.832031 50.777344 L 13.890625 50.777344 C 13.527344 50.777344 13.230469 50.480469 13.230469 50.113281 L 13.230469 48.792969 C 13.230469 48.425781 13.527344 48.128906 13.890625 48.128906 Z M 13.890625 48.128906 "/>
<path style=" stroke:none;fill-rule:nonzero;fill:rgb(12.941177%,12.941177%,12.941177%);fill-opacity:0.927711;" d="M 13.890625 47.941406 C 13.425781 47.941406 13.042969 48.324219 13.042969 48.792969 L 13.042969 50.113281 C 13.042969 50.582031 13.425781 50.964844 13.890625 50.964844 L 21.832031 50.964844 C 22.296875 50.964844 22.679688 50.582031 22.679688 50.113281 L 22.679688 48.792969 C 22.679688 48.324219 22.296875 47.941406 21.832031 47.941406 Z M 13.890625 48.316406 L 21.832031 48.316406 C 22.097656 48.316406 22.304688 48.523438 22.304688 48.792969 L 22.304688 50.113281 C 22.304688 50.378906 22.097656 50.589844 21.832031 50.589844 L 13.890625 50.589844 C 13.625 50.589844 13.417969 50.378906 13.417969 50.113281 L 13.417969 48.792969 C 13.417969 48.523438 13.625 48.316406 13.890625 48.316406 Z M 13.890625 48.316406 "/>
<path style="fill:none;stroke-width:11.338583;stroke-linecap:butt;stroke-linejoin:miter;stroke:rgb(12.941177%,12.941177%,12.941177%);stroke-opacity:1;stroke-miterlimit:4;" d="M 1319.992127 1335.108794 C 1297.789521 1335.108794 1279.956578 1352.941738 1279.956578 1375.144343 L 1279.956578 1615.121439 L 1559.969223 1335.108794 Z M 1319.992127 1335.108794 " transform="matrix(0.0330761,0,0,0.0330761,0,0)"/>
<path style="fill:none;stroke-width:22;stroke-linecap:round;stroke-linejoin:round;stroke:rgb(25.882354%,25.882354%,25.882354%);stroke-opacity:1;stroke-miterlimit:4;" d="M 349.247898 -62.827032 L 349.247898 -94.574 L 232.821517 -94.574 L 296.3467 -9.925834 L 222.260025 106.500548 L 359.840637 106.500548 L 359.840637 74.75358 " transform="matrix(0.125012,0,0,0.125012,0,26.877566)"/>
</g>
</svg>
