<svg height="64pt" viewBox="0 0 64 64" width="64pt" xmlns="http://www.w3.org/2000/svg" xmlns:xlink="http://www.w3.org/1999/xlink"><linearGradient id="a"><stop offset="0" stop-opacity=".314"/><stop offset=".222" stop-opacity=".275"/><stop offset="1" stop-opacity="0"/></linearGradient><radialGradient id="b" cx="450.909" cy="189.579" gradientTransform="matrix(0 -.15626 -.28128 0 89.046 127.19)" gradientUnits="userSpaceOnUse" r="21.167" xlink:href="#a"/><radialGradient id="c" cx="450.909" cy="189.579" gradientTransform="matrix(0 .15626 .28128 0 -25.54 -15.055)" gradientUnits="userSpaceOnUse" r="21.167" xlink:href="#a"/><radialGradient id="d" cx="450.909" cy="189.579" gradientTransform="matrix(0 -.15626 .28128 0 -25.54 127.19)" gradientUnits="userSpaceOnUse" r="21.167" xlink:href="#a"/><radialGradient id="e" cx="450.909" cy="189.579" gradientTransform="matrix(0 .15626 -.28128 0 89.046 -15.055)" gradientUnits="userSpaceOnUse" r="21.167" xlink:href="#a"/><linearGradient id="f" gradientTransform="matrix(.02672 0 0 .12501 24.93 26.878)" gradientUnits="userSpaceOnUse" x1="255.323" x2="255.323" y1="233.5" y2="254.667"><stop offset="0" stop-opacity=".275"/><stop offset="1" stop-opacity="0"/></linearGradient><linearGradient id="g" gradientUnits="userSpaceOnUse" x1="31.75254" x2="31.75254" y1="56.067835" y2="5.79293833"><stop offset="0" stop-color="#ec407a"/><stop offset="1" stop-color="#f06292"/></linearGradient><path d="m36.383 56.066h5.293v-2.644h-5.293zm0 0" fill="url(#b)"/><path d="m27.121 56.066h-5.289v2.649h5.29zm0 0" fill="url(#c)"/><path d="m27.121 56.066h-5.289v-2.644h5.29zm0 0" fill="url(#d)"/><path d="m36.383 56.066h5.293v2.649h-5.293zm0 0" fill="url(#e)"/><path d="m27.121 55.406h9.262v3.309h-9.263zm0 0" fill="url(#f)"/><path d="m31.754 5.793c13.883 0 25.137 11.254 25.137 25.137s-11.254 25.136-25.137 25.136-25.14-11.254-25.14-25.136c0-13.883 11.257-25.137 25.14-25.137zm0 0" fill="url(#g)"/><g fill="#fff"><path d="m46.133 10.04a25.117 25.117 0 0 1 7.707 8.21c-1.63.883-3.207 1.555-4.531.773-1.684-.918-6.551 2.961-7.938 3.97-5.293 2.644-7.762.214-13.23-2.65-4.203-1.831-11.832-1.171-18.118-1.46a25.095 25.095 0 0 1 4.086-5.531c5.446-1.836 10.895-3.809 13.168-.782 4.832 6.453 7.961.72 12.77 2.485 4.195.808 5.074-2.192 6.086-5.016zm-37.317 31.226c2.649 1.222 4.579 1.761 7.059 1.57 2.875.73.27 3.984 2.648 3.969 2.93 0 13.23 6.617 19.844 2.648 2.785-.562 7.711-1.371 11.79-1.363a25.06 25.06 0 0 1 -18.403 7.976c-3.266 0-6.379-.613-9.234-1.738-6.157-3.476-11.582-8.34-13.704-13.062zm0 0" fill-opacity=".314"/><path d="m13.277 22.836c-.414 0-.867.05-1.37.156-.88.512-.329 1.98-1.321 2.645-.418.691-1.793-.434-3.043-1.524a25.302 25.302 0 0 0 -.77 9.657c2.68 1.042 5.579 3.75 7.782 2.453 1.683-.918 6.55 2.96 7.937 3.968 5.293 2.645 7.762.215 13.23-2.644 4.794-2.098 14.051-.942 20.68-1.652.32-1.602.489-3.262.489-4.965 0-1.856-.2-3.664-.578-5.403-6.528-1.164-10.958 1.391-13.977 5.403-4.832 6.453-13.711-.442-18.52 1.324-7.55 1.457-4.355-9.434-10.539-9.418zm0 0" fill-opacity=".314"/><path d="m31.754 5.793a25.085 25.085 0 0 0 -25.14 25.137c0 .164.003.324.007.488a25.079 25.079 0 0 1 25.133-24.652 25.081 25.081 0 0 1 25.133 24.652c.004-.164.004-.324.004-.488a25.082 25.082 0 0 0 -25.137-25.137zm0 0" fill-opacity=".392"/></g><path d="m31.754 56.066a25.085 25.085 0 0 1 -25.134-25.62 25.078 25.078 0 0 0 25.133 24.648c13.762 0 24.875-10.95 25.133-24.649a25.082 25.082 0 0 1 -25.133 25.621zm0 0" fill-opacity=".235"/><path d="m31.754 5.605c-14.027 0-25.328 11.297-25.328 25.325 0 14.027 11.3 25.324 25.328 25.324a25.272 25.272 0 0 0 25.324-25.324 25.272 25.272 0 0 0 -25.324-25.325zm0 .375a24.892 24.892 0 0 1 24.95 24.95 24.892 24.892 0 0 1 -24.95 24.949 24.892 24.892 0 0 1 -24.954-24.95 24.892 24.892 0 0 1 24.954-24.949zm0 0" fill="#212121"/></svg>