<svg height="64pt" viewBox="0 0 64 64" width="64pt" xmlns="http://www.w3.org/2000/svg" xmlns:xlink="http://www.w3.org/1999/xlink"><linearGradient id="a" gradientUnits="userSpaceOnUse" x1="46.30582917" x2="46.30582917" y1="12.21911167" y2="53.2327675"><stop offset="0" stop-color="#5d4037"/><stop offset="1" stop-color="#6d4c41" stop-opacity=".392"/></linearGradient><linearGradient id="b" gradientUnits="userSpaceOnUse" x1="31.75254" x2="31.75254" y1="52.097835" y2="54.74392167"><stop offset="0" stop-opacity=".275"/><stop offset="1" stop-opacity="0"/></linearGradient><linearGradient id="c"><stop offset="0" stop-opacity=".314"/><stop offset=".222" stop-opacity=".275"/><stop offset="1" stop-opacity="0"/></linearGradient><radialGradient id="d" cx="450.909" cy="189.579" gradientTransform="matrix(0 -.15626 -.28128 0 104.261 123.222)" gradientUnits="userSpaceOnUse" r="21.167" xlink:href="#c"/><radialGradient id="e" cx="450.909" cy="189.579" gradientTransform="matrix(0 .15626 .28128 0 -40.755 -19.024)" gradientUnits="userSpaceOnUse" r="21.167" xlink:href="#c"/><radialGradient id="f" cx="450.909" cy="189.579" gradientTransform="matrix(0 -.15626 .28128 0 -40.755 123.222)" gradientUnits="userSpaceOnUse" r="21.167" xlink:href="#c"/><radialGradient id="g" cx="450.909" cy="189.579" gradientTransform="matrix(0 .15626 -.28128 0 104.261 -19.024)" gradientUnits="userSpaceOnUse" r="21.167" xlink:href="#c"/><linearGradient id="h"><stop offset="0" stop-color="#8d6e63"/><stop offset="1" stop-color="#a1887f"/></linearGradient><linearGradient id="i" gradientUnits="userSpaceOnUse" x1="31.75254" x2="31.75254" xlink:href="#h" y1="52.0987675" y2="11.08511167"/><linearGradient id="j" gradientUnits="userSpaceOnUse" x1="31.75254" x2="31.75254" xlink:href="#h" y1="34.89951667" y2="8.439025"/><linearGradient id="k" gradientTransform="matrix(.625 0 0 1 95.25 -63.5)" gradientUnits="userSpaceOnUse" x1="254" x2="254" y1="48.292" y2="-4.625"><stop offset="0" stop-color="#9e9e9e"/><stop offset="1" stop-color="#e0e0e0"/></linearGradient><linearGradient id="l" gradientUnits="userSpaceOnUse" x1="31.7568" x2="31.7568" y1="8.43930344" y2="12.40890344"><stop offset="0" stop-color="#fff" stop-opacity=".235"/><stop offset="1" stop-color="#fff" stop-opacity="0"/></linearGradient><path d="m45.523 31.414-2.57.242v10.399l2.543-.38v-4.433l3.422 4.918 2.68-.836-3.504-4.726 3.531-4.461-2.734-.614-3.395 4.457zm-5.828 2.535c-.027.004-.062.008-.082.031l-1.011.993a.124.124 0 0 0 -.016.156l1.18 1.914c-.211.348-.38.719-.5 1.113l-2.172.442a.13.13 0 0 0 -.102.129v1.402c0 .059.047.11.102.125l2.105.5c.114.457.285.89.516 1.289l-1.219 1.824a.12.12 0 0 0 .02.16l1.007.993a.13.13 0 0 0 .16.015l1.915-1.137c.375.211.777.383 1.207.497l.445 2.101a.126.126 0 0 0 .125.106h1.43c.058 0 .113-.04.125-.098l.527-2.113c.441-.118.86-.29 1.242-.512l1.883 1.21a.136.136 0 0 0 .168-.015l1.004-.992c.043-.043.055-.105.023-.156l-.687-1.11-.227.07c-.031.009-.066-.007-.086-.034 0 0-.433-.625-1-1.438a4.1 4.1 0 0 1 -3.648 2.188c-2.258 0-4.094-1.797-4.094-4.016 0-1.633.996-3.035 2.418-3.664v-1.035c-.258.09-.508.199-.746.324v-.004l-1.93-1.242c-.023-.016-.05-.016-.082-.016zm0 0" fill="url(#a)"/><path d="m11.906 52.098h39.692v2.648h-39.692zm0 0" fill="url(#b)"/><path d="m51.598 52.098h5.293v-2.645h-5.293zm0 0" fill="url(#d)"/><path d="m11.906 52.098h-5.293v2.648h5.293zm0 0" fill="url(#e)"/><path d="m11.906 52.098h-5.293v-2.645h5.293zm0 0" fill="url(#f)"/><path d="m51.598 52.098h5.293v2.648h-5.293zm0 0" fill="url(#g)"/><path d="m9.262 11.086h44.984a2.644 2.644 0 0 1 2.645 2.644v35.723a2.644 2.644 0 0 1 -2.645 2.645h-44.984a2.647 2.647 0 0 1 -2.649-2.645v-35.723a2.647 2.647 0 0 1 2.649-2.644zm0 0" fill="url(#i)"/><path d="m45.523 31.414-2.57.242v10.399l2.543-.38v-4.433l3.422 4.918 2.68-.836-3.504-4.726 3.531-4.461-2.734-.614-3.395 4.457zm-5.828 2.535c-.027.004-.062.008-.082.031l-1.011.993a.124.124 0 0 0 -.016.156l1.18 1.914c-.211.348-.38.719-.5 1.113l-2.172.442a.13.13 0 0 0 -.102.129v1.402c0 .059.047.11.102.125l2.105.5c.114.457.285.89.516 1.289l-1.219 1.824a.12.12 0 0 0 .02.16l1.007.993a.13.13 0 0 0 .16.015l1.915-1.137c.375.211.777.383 1.207.497l.445 2.101a.126.126 0 0 0 .125.106h1.43c.058 0 .113-.04.125-.098l.527-2.113c.441-.118.86-.29 1.242-.512l1.883 1.21a.136.136 0 0 0 .168-.015l1.004-.992c.043-.043.055-.105.023-.156l-.687-1.11-.227.07c-.031.009-.066-.007-.086-.034 0 0-.433-.625-1-1.438a4.1 4.1 0 0 1 -3.648 2.188c-2.258 0-4.094-1.797-4.094-4.016 0-1.633.996-3.035 2.418-3.664v-1.035c-.258.09-.508.199-.746.324v-.004l-1.93-1.242c-.023-.016-.05-.016-.082-.016zm0 0" fill="#3e2723" fill-opacity=".471"/><path d="m9.262 11.086a2.642 2.642 0 0 0 -2.649 2.644v.66a2.642 2.642 0 0 1 2.649-2.644h44.984a2.639 2.639 0 0 1 2.645 2.645v-.66a2.639 2.639 0 0 0 -2.645-2.645zm0 0" fill="#fff" fill-opacity=".392"/><path d="m8.64 48.14c-.038.91.844 2.075 1.801 1.75.621-.367.168-1.085-.351-1.269-.305-.355-.188-1.176-.852-1.086-.328-.027-.601.297-.597.606zm.137-2.113c.598.59 1.336-.195 1.11-.87-.117-.81.258-1.813-.242-2.485-.676-.52-1.215.43-1.008 1.05.066.762-.153 1.583.14 2.305zm0-5.004c.598.594 1.336-.195 1.11-.867-.117-.808.258-1.812-.242-2.484-.676-.524-1.215.43-1.008 1.047.066.761-.153 1.586.14 2.304zm0-5c.598.594 1.336-.195 1.11-.867-.117-.808.258-1.812-.242-2.484-.676-.524-1.215.43-1.008 1.047.066.761-.153 1.586.14 2.304zm0-5c.598.594 1.336-.195 1.11-.867-.117-.808.258-1.812-.242-2.484-.676-.524-1.215.43-1.008 1.047.066.761-.153 1.586.14 2.304zm0-5c.598.594 1.336-.195 1.11-.87-.117-.805.258-1.81-.242-2.481-.676-.524-1.215.43-1.008 1.047.066.761-.153 1.586.14 2.304zm0-5c.598.594 1.336-.195 1.11-.87-.117-.805.258-1.81-.242-2.485-.676-.52-1.215.43-1.008 1.05.066.762-.153 1.583.14 2.305zm0-5c.598.594 1.336-.195 1.11-.87-.149-.876 1.09-.653 1.172-1.383-.16-1.067-1.516-.59-1.957.02-.516.597-.598 1.523-.325 2.233zm3.305 33.723c.617.652 1.645.195 2.445.332.618.195 1.582-.324 1.07-1-.632-.523-1.593-.125-2.359-.25-.61-.098-1.445.125-1.156.918zm.3-35.723c.618.653 1.645.196 2.446.332.617.196 1.582-.324 1.07-1-.632-.523-1.593-.125-2.359-.25-.61-.097-1.445.125-1.156.918zm4.7 35.723c.617.652 1.645.195 2.445.332.618.195 1.582-.324 1.07-1-.632-.523-1.59-.125-2.359-.25-.61-.098-1.445.125-1.156.918zm.3-35.723c.618.653 1.645.196 2.446.332.617.196 1.582-.324 1.07-1-.632-.523-1.59-.125-2.359-.25-.61-.097-1.445.125-1.156.918zm4.7 35.723c.617.652 1.645.195 2.445.332.618.195 1.582-.324 1.07-1-.632-.523-1.59-.125-2.359-.25-.61-.098-1.445.125-1.156.918zm.3-35.723c.618.653 1.645.196 2.446.332.617.196 1.582-.324 1.07-1-.632-.523-1.59-.125-2.359-.25-.61-.097-1.445.125-1.156.918zm4.7 35.723c.617.652 1.648.195 2.445.332.621.195 1.582-.324 1.07-1-.628-.523-1.59-.125-2.359-.25-.61-.098-1.445.125-1.156.918zm.3-35.723c.618.653 1.645.196 2.446.332.621.196 1.582-.324 1.07-1-.628-.523-1.59-.125-2.359-.25-.61-.097-1.445.125-1.156.918zm4.7 35.723c.617.652 1.648.195 2.445.332.621.195 1.582-.324 1.07-1-.628-.523-1.59-.125-2.355-.25-.613-.098-1.445.125-1.16.918zm.3-35.723c.618.653 1.65.196 2.446.332.621.196 1.582-.324 1.07-1-.628-.523-1.59-.125-2.359-.25-.61-.097-1.441.125-1.156.918zm4.7 35.723c.621.652 1.648.195 2.45.332.616.195 1.577-.324 1.066-1-.63-.523-1.59-.125-2.356-.25-.61-.098-1.445.125-1.16.918zm.3-35.723c.622.653 1.65.196 2.446.332.621.196 1.582-.324 1.07-1-.628-.523-1.59-.125-2.355-.25-.61-.097-1.445.125-1.16.918zm4.7 35.723c.621.652 1.648.195 2.45.332.616.195 1.581-.324 1.07-1-.633-.523-1.594-.125-2.36-.25-.61-.098-1.445.125-1.16.918zm.3-35.723c.622.653 1.65.196 2.45.332.617.196 1.582-.324 1.07-1-.632-.523-1.593-.125-2.359-.25-.61-.097-1.445.125-1.16.918zm4.704 35.723c.617.652 1.644.195 2.445.332.617.195 1.582-.324 1.07-1-.632-.523-1.593-.125-2.359-.25-.61-.098-1.445.125-1.156.918zm.3-35.723c.618.653 1.645.196 2.446.332.617.196 1.582-.324 1.07-1-.632-.523-1.593-.125-2.359-.25-.61-.097-1.445.125-1.156.918zm4.7 35.723c.852.816 2.394.047 2.687-1.008.286-.59-.015-1.613-.824-1.297-.523.336-.14 1.332-.953 1.383-.574-.082-1.156.285-.91.922zm.285-35.75c.309.504 1.297.27 1.25 1.07-.254.72.695 1.461 1.156.715.504-1.234-.648-2.949-2.035-2.605-.367.066-.465.508-.37.82zm1.39 31.895c.594.593 1.337-.196 1.11-.871-.117-.81.258-1.81-.246-2.485-.672-.52-1.21.43-1.004 1.05.066.763-.152 1.583.14 2.306zm0-5c.594.59 1.337-.196 1.11-.871-.117-.81.258-1.813-.246-2.485-.672-.52-1.21.43-1.004 1.05.066.763-.152 1.583.14 2.306zm0-5.004c.594.593 1.337-.196 1.11-.867-.117-.81.258-1.813-.246-2.485-.672-.523-1.21.43-1.004 1.047.066.762-.152 1.586.14 2.305zm0-5c.594.593 1.337-.196 1.11-.867-.117-.81.258-1.813-.246-2.485-.672-.523-1.21.43-1.004 1.047.066.762-.152 1.586.14 2.305zm0-5c.594.593 1.337-.196 1.11-.867-.117-.81.258-1.813-.246-2.485-.672-.523-1.21.43-1.004 1.047.066.762-.152 1.586.14 2.305zm0-5c.594.593 1.337-.196 1.11-.871-.117-.805.258-1.809-.246-2.48-.672-.524-1.21.425-1.004 1.046.066.762-.152 1.586.14 2.305zm0 0" fill="#5d4037"/><path d="m9.262 10.898a2.832 2.832 0 0 0 -2.836 2.832v35.723a2.832 2.832 0 0 0 2.836 2.832h44.984a2.83 2.83 0 0 0 2.832-2.832v-35.723a2.83 2.83 0 0 0 -2.832-2.832zm0 .375h44.984a2.449 2.449 0 0 1 2.457 2.457v35.723a2.449 2.449 0 0 1 -2.457 2.457h-44.984a2.45 2.45 0 0 1 -2.462-2.457v-35.723a2.45 2.45 0 0 1 2.46-2.457zm0 0" fill="#212121"/><path d="m26.46 9.762h10.587a2.644 2.644 0 0 1 2.644 2.644v15.88a2.644 2.644 0 0 1 -2.644 2.644h-10.587a2.644 2.644 0 0 1 -2.645-2.645v-15.879a2.644 2.644 0 0 1 2.645-2.644zm0 0" fill-opacity=".235"/><path d="m26.46 8.438h10.587a2.645 2.645 0 0 1 2.644 2.648v15.874a2.644 2.644 0 0 1 -2.644 2.644h-10.587a2.644 2.644 0 0 1 -2.645-2.644v-15.874a2.645 2.645 0 0 1 2.645-2.649zm0 0" fill="url(#j)"/><path d="m9.262 52.098a2.642 2.642 0 0 1 -2.649-2.645v-.66a2.642 2.642 0 0 0 2.649 2.645h44.984a2.639 2.639 0 0 0 2.645-2.645v.66a2.639 2.639 0 0 1 -2.645 2.645zm0 0" fill-opacity=".235"/><path d="m254.007-68.139c14.592 0 26.466 11.874 26.466 26.466 0 14.624-11.874 26.466-26.466 26.466-14.624 0-26.466-11.842-26.466-26.466 0-14.592 11.842-26.466 26.466-26.466zm0 0" fill="url(#k)" stroke="#212121" stroke-linecap="round" stroke-linejoin="round" stroke-width="2.372" transform="matrix(.12501 0 0 .12501 0 26.878)"/><path d="m26.46 8.438a2.64 2.64 0 0 0 -2.644 2.648v.66a2.639 2.639 0 0 1 2.645-2.644h10.586a2.639 2.639 0 0 1 2.644 2.644v-.66a2.64 2.64 0 0 0 -2.644-2.649zm0 0" fill="#fff" fill-opacity=".392"/><path d="m26.46 29.605a2.639 2.639 0 0 1 -2.644-2.644v-.66a2.639 2.639 0 0 0 2.645 2.644h10.586a2.639 2.639 0 0 0 2.644-2.644v.66a2.639 2.639 0 0 1 -2.644 2.644zm0 0" fill-opacity=".235"/><path d="m26.46 8.25a2.832 2.832 0 0 0 -2.831 2.836v15.874a2.83 2.83 0 0 0 2.832 2.832h10.586a2.83 2.83 0 0 0 2.832-2.832v-15.874a2.832 2.832 0 0 0 -2.832-2.836zm0 .375h10.587a2.45 2.45 0 0 1 2.457 2.46v15.876a2.449 2.449 0 0 1 -2.457 2.457h-10.587a2.447 2.447 0 0 1 -2.457-2.457v-15.875c0-1.367 1.09-2.461 2.457-2.461zm0 0" fill="#212121"/><path d="m26.46 8.438a2.64 2.64 0 0 0 -2.644 2.648v3.637a2.639 2.639 0 0 1 2.645-2.645h10.586a2.639 2.639 0 0 1 2.644 2.645v-3.637a2.64 2.64 0 0 0 -2.644-2.649zm0 0" fill="url(#l)"/><path d="m37.727 11.137c-.04 0-.079.004-.118.008-.914.402-.398 1.539-.527 2.293-.203.582.188 1.718.953 1.257.664-.613.09-1.601.305-2.375.07-.465-.055-1.16-.613-1.183zm-11.907.043c-.039 0-.082.004-.125.008-.91.414-.386 1.546-.52 2.3-.175.567.134 1.633.891 1.293.727-.59.184-1.61.352-2.383.078-.472-.008-1.207-.598-1.218zm11.899 4.957c-.035 0-.07.004-.11.008-.914.406-.398 1.546-.527 2.293-.176.562.129 1.648.895 1.292.761-.593.136-1.66.363-2.46.074-.45-.082-1.125-.621-1.133zm-11.91.043c-.036 0-.075.004-.114.008-.906.41-.39 1.546-.52 2.292-.175.563.126 1.645.891 1.297.766-.593.141-1.66.368-2.46.074-.454-.082-1.13-.625-1.137zm11.863 4.96c-.02 0-.043 0-.063.005-.914.402-.398 1.543-.527 2.293-.168.558.105 1.617.871 1.308.777-.543.188-1.586.379-2.355.086-.489-.02-1.278-.66-1.25zm-11.852.04c-.039 0-.082.004-.125.008-.906.417-.39 1.55-.52 2.3-.175.567.13 1.633.891 1.297.727-.59.188-1.613.352-2.387.078-.472-.008-1.207-.598-1.218zm11.852 4.945h-.055c-.613.273-1.09 1.258-1.902.828-.805-.144-1.098 1.309-.176 1.266 1.09.261 2.723-.297 2.672-1.61a.582.582 0 0 0 -.54-.484zm-11.82.023c-.88.211-.528 1.34.046 1.696.684.379 1.63.648 2.372.27.636-.302.238-1.208-.395-1.118-.516.004-1.137.121-1.414-.445-.164-.172-.348-.406-.61-.403zm6.992.801c-.907.246-1.996-.277-2.797.305-.406.601.394 1.277.98.976.82-.082 1.93.329 2.559-.382.172-.453-.3-.91-.742-.899zm0 0" fill="#5d4037"/><path d="m30.156 19.957c.516-.516 1.145-.727 1.403-.465.257.258.05.887-.47 1.403-.515.515-1.144.726-1.401.468-.258-.261-.047-.886.468-1.406zm0 0" fill="#fff" fill-opacity=".588"/><g fill-opacity=".235"><path d="m45.523 31.414-2.57.242v.32l2.567-.242zm3.368.11-3.395 4.456v.32l3.395-4.456 2.52.566.214-.273zm-9.196 2.425c-.027.004-.062.008-.082.031l-1.011.993a.124.124 0 0 0 -.016.156l.066.113.961-.941c.02-.024.055-.028.082-.031.032 0 .059 0 .082.015l1.93 1.242v.004c.238-.125.488-.234.746-.324v-.32c-.258.09-.508.199-.746.324v-.004l-1.93-1.242c-.023-.016-.05-.016-.082-.016zm8.52 2.813-.121.156 3.312 4.469.192-.063zm-8.547.449a4.95 4.95 0 0 0 -.402.945l-2.172.442a.13.13 0 0 0 -.102.129v.32a.13.13 0 0 1 .102-.129l2.172-.441c.12-.395.289-.766.5-1.114zm.371 2.531c0 .055-.004.11-.004.164 0 2.219 1.836 4.016 4.094 4.016a4.1 4.1 0 0 0 3.648-2.188c.567.813 1 1.438 1 1.438.02.027.055.043.086.035l.227-.07.617.996.047-.051c.043-.043.055-.105.023-.156l-.687-1.11-.227.07c-.031.009-.066-.007-.086-.034 0 0-.433-.625-1-1.438a4.1 4.1 0 0 1 -3.648 2.188c-2.203 0-4.004-1.715-4.09-3.86zm-.418 2.446-1.125 1.68a.12.12 0 0 0 .02.16l.05.054 1.149-1.719zm0 0" fill="#050505"/><path d="m45.523 31.414h-.003l-.024 4.148h.004zm5.82.66-3.25 4.106.16.215 3.372-4.258zm-12.652 2.813-.09.086a.124.124 0 0 0 -.015.156l1.055 1.715c.039-.074.082-.145.125-.219zm3.762.617c-1.422.629-2.418 2.031-2.418 3.664 0 .07.004.145.008.215.078-1.547 1.047-2.856 2.41-3.461zm3.043 1.32v.418l3.422 4.918 2.68-.836-.25-.336-2.43.758zm-8.504 2.887v.418c0 .059.047.11.102.125l2.105.5c.09.371.223.726.39 1.059l.126-.188a4.945 4.945 0 0 1 -.516-1.29l-2.105-.5c-.055-.015-.102-.065-.102-.124zm8.504 1.547-2.543.379v.418l2.543-.38zm1.204 2.202c-.383.223-.8.394-1.242.512l-.527 2.113a.126.126 0 0 1 -.125.098h-1.43a.126.126 0 0 1 -.125-.106l-.445-2.101a5.13 5.13 0 0 1 -1.207-.497l-1.914 1.137a.13.13 0 0 1 -.16-.015l-.919-.903-.109.168a.12.12 0 0 0 .02.16l1.007.993a.13.13 0 0 0 .16.015l1.915-1.137c.375.211.777.383 1.207.497l.445 2.101a.126.126 0 0 0 .125.106h1.43c.058 0 .113-.04.125-.098l.527-2.113c.441-.118.86-.29 1.242-.512l1.883 1.21a.136.136 0 0 0 .168-.015l1.004-.992c.043-.043.055-.105.023-.156l-.109-.176-.918.906a.136.136 0 0 1 -.168.016zm0 0" fill="#fff"/></g></svg>