<svg height="64pt" viewBox="0 0 64 64" width="64pt" xmlns="http://www.w3.org/2000/svg" xmlns:xlink="http://www.w3.org/1999/xlink"><linearGradient id="a" gradientUnits="userSpaceOnUse" x1="31.75304" x2="31.75304" y1="49.452659" y2="52.09874700006"><stop offset="0" stop-opacity=".27451"/><stop offset="1" stop-opacity="0"/></linearGradient><linearGradient id="b"><stop offset="0" stop-opacity=".313726"/><stop offset=".222222" stop-opacity=".27451"/><stop offset="1" stop-opacity="0"/></linearGradient><radialGradient id="c" cx="450.908936" cy="189.579361" gradientTransform="matrix(.00000035 -.156265 -.281277 -.0000002 106.24586 120.575451)" gradientUnits="userSpaceOnUse" r="21.166656" xlink:href="#b"/><radialGradient id="d" cx="450.908936" cy="189.579361" gradientTransform="matrix(-.00000035 .156265 .281277 .0000002 -42.409041 -21.670171)" gradientUnits="userSpaceOnUse" r="21.166656" xlink:href="#b"/><radialGradient id="e" cx="450.908936" cy="189.579361" gradientTransform="matrix(-.00000035 -.156265 .281277 -.0000002 -42.409041 120.575451)" gradientUnits="userSpaceOnUse" r="21.166656" xlink:href="#b"/><radialGradient id="f" cx="450.908936" cy="189.579361" gradientTransform="matrix(.00000035 .156265 -.281277 .0000002 106.245857 -21.670172)" gradientUnits="userSpaceOnUse" r="21.166656" xlink:href="#b"/><linearGradient id="g" gradientUnits="userSpaceOnUse" x1="31.753048" x2="31.753048" y1="50.77569400006" y2="11.08438199987"><stop offset="0" stop-color="#bdbdbd"/><stop offset="1" stop-color="#e0e0e0"/></linearGradient><linearGradient id="h" gradientUnits="userSpaceOnUse" x1="31.746588" x2="31.746588" y1="40.84258649998" y2="20.99693300013"><stop offset="0" stop-color="#f44336"/><stop offset="1" stop-color="#ef5350"/></linearGradient><path d="m10.253906 49.453125h43.328125v2.644531h-43.328125zm0 0" fill="url(#a)"/><path d="m53.582031 49.453125h5.292969v-2.648437h-5.292969zm0 0" fill="url(#c)"/><path d="m10.253906 49.453125h-5.292968v2.644531h5.292968zm0 0" fill="url(#d)"/><path d="m10.253906 49.453125h-5.292968v-2.648437h5.292968zm0 0" fill="url(#e)"/><path d="m53.582031 49.453125h5.292969v2.644531h-5.292969zm0 0" fill="url(#f)"/><path d="m58.214844 17.699219c-.640625-2.371094-2.507813-4.238281-4.878906-4.878907-4.332032-1.183593-21.660157-1.183593-21.660157-1.183593s-17.324219 0-21.65625 1.136719c-2.324219.640624-4.242187 2.554687-4.878906 4.925781-1.140625 4.332031-1.140625 13.3125-1.140625 13.3125s0 9.03125 1.140625 13.316406c.636719 2.371094 2.507813 4.238281 4.878906 4.878906 4.375 1.183594 21.65625 1.183594 21.65625 1.183594s17.328125 0 21.660157-1.140625c2.371093-.636719 4.238281-2.507812 4.878906-4.875 1.140625-4.332031 1.140625-13.316406 1.140625-13.316406s.042969-9.027344-1.140625-13.359375zm0 0" fill="url(#g)"/><path d="m31.675781 11.636719s-17.324219 0-21.65625 1.136719c-2.324219.640624-4.242187 2.554687-4.878906 4.925781-1.140625 4.332031-1.140625 13.3125-1.140625 13.3125s0 .167969.003906.457031c.015625-1.859375.148438-9.109375 1.136719-12.863281.636719-2.371094 2.554687-4.289063 4.878906-4.925781 4.332031-1.140626 21.65625-1.140626 21.65625-1.140626s17.328125 0 21.660157 1.1875c2.371093.636719 4.238281 2.507813 4.878906 4.878907 1.003906 3.671875 1.125 10.707031 1.136718 12.761719 0-.160157.003907-.308594.003907-.308594s.042969-9.027344-1.140625-13.359375c-.640625-2.371094-2.507813-4.238281-4.878906-4.878907-4.332032-1.183593-21.660157-1.183593-21.660157-1.183593zm0 0" fill="#fff" fill-opacity=".980645"/><path d="m31.675781 50.445312s-17.324219 0-21.65625-1.140624c-2.324219-.636719-4.242187-2.554688-4.878906-4.925782-1.140625-4.328125-1.140625-13.3125-1.140625-13.3125s0-.167968.003906-.453125c.015625 1.859375.148438 9.105469 1.136719 12.863281.636719 2.371094 2.554687 4.285157 4.878906 4.925782 4.332031 1.136718 21.65625 1.136718 21.65625 1.136718s17.328125 0 21.660157-1.183593c2.371093-.640625 4.238281-2.507813 4.878906-4.878907 1.003906-3.675781 1.125-10.710937 1.136718-12.765624 0 .160156.003907.308593.003907.308593s.042969 9.03125-1.140625 13.359375c-.640625 2.371094-2.507813 4.242188-4.878906 4.878906-4.332032 1.1875-21.660157 1.1875-21.660157 1.1875zm0 0" fill-opacity=".235294"/><path d="m26.5 21.003906c-.746094-.023437-1.363281.570313-1.363281 1.316406v17.199219c0 1.019531 1.109375 1.652344 1.988281 1.132813l14.550781-8.597656c.863281-.511719.863281-1.757813 0-2.269532l-14.550781-8.597656c-.191406-.113281-.40625-.175781-.625-.183594zm0 0" fill="url(#h)"/><path d="m26.429688 21.003906c-.714844.011719-1.292969.59375-1.292969 1.316406v.652344c0-.742187.617187-1.339844 1.363281-1.3125.21875.003906.433594.070313.625.179688l14.550781 8.601562c.324219.191406.527344.484375.609375.804688.132813-.535156-.070312-1.140625-.609375-1.460938l-14.550781-8.597656c-.191406-.113281-.40625-.175781-.625-.183594-.023438 0-.046875 0-.070312 0zm0 0" fill="#fff" fill-opacity=".235294"/><path d="m26.429688 40.84375c-.714844-.015625-1.292969-.597656-1.292969-1.316406v-.65625c0 .746094.617187 1.339844 1.363281 1.316406.21875-.007812.433594-.070312.625-.183594l14.550781-8.597656c.324219-.191406.527344-.488281.609375-.808594.132813.535156-.070312 1.144532-.609375 1.460938l-14.550781 8.601562c-.191406.113282-.40625.175782-.625.183594-.023438 0-.046875 0-.070312 0zm0 0" fill-opacity=".235294"/><g fill="#212121"><path d="m26.503906 20.816406c-.847656-.027344-1.554687.65625-1.554687 1.503906v17.199219c0 1.15625 1.277343 1.882813 2.269531 1.296875l14.554688-8.601562c.976562-.578125.976562-2.011719 0-2.589844l-14.554688-8.601562c-.214844-.125-.460938-.199219-.714844-.207032zm-.011718.375c.1875.007813.375.058594.535156.15625l14.554687 8.601563c.746094.441406.746094 1.5 0 1.941406l-14.554687 8.601563c-.757813.449218-1.703125-.089844-1.703125-.972657v-17.199219c0-.640624.527343-1.148437 1.167969-1.128906zm0 0"/><path d="m31.675781 11.40625s-4.332031 0-9.210937.144531c-4.875.140625-10.265625.414063-12.503906 1.003907h-.003907c-2.40625.660156-4.375 2.632812-5.035156 5.085937h-.003906c-.578125 2.203125-.859375 5.535156-1.003907 8.328125-.140624 2.792969-.140624 5.042969-.140624 5.042969s0 2.265625.140624 5.0625c.144532 2.800781.425782 6.128906 1.007813 8.3125.65625 2.449219 2.589844 4.378906 5.039063 5.039062 2.261718.613281 7.648437.898438 12.523437 1.046875 4.871094.148438 9.191406.148438 9.191406.148438s4.335938 0 9.210938-.144532c4.878906-.140624 10.269531-.414062 12.507812-1.003906 2.449219-.660156 4.378907-2.589844 5.039063-5.039062v-.003906c.582031-2.203126.863281-5.53125 1.003906-8.328126.144531-2.789062.144531-5.039062.144531-5.042968 0 0 .011719-2.261719-.125-5.066406-.136719-2.804688-.417969-6.144532-1.023437-8.351563-.660156-2.449219-2.589844-4.378906-5.039063-5.039063-2.238281-.613281-7.628906-.898437-12.503906-1.046874-4.878906-.148438-9.214844-.148438-9.214844-.148438zm0 .457031s4.332031 0 9.199219.148438c4.867188.148437 10.308594.457031 12.398438 1.027343l.003906.003907c2.289062.613281 4.097656 2.421875 4.714844 4.714843.582031 2.128907.871093 5.464844 1.007812 8.257813s.125 5.042969.125 5.042969 0 2.242187-.140625 5.023437c-.144531 2.777344-.429687 6.105469-.992187 8.234375-.617188 2.289063-2.425782 4.097656-4.714844 4.714844-2.09375.550781-7.53125.847656-12.402344.988281-4.867188.144531-9.199219.144531-9.199219.144531s-4.316406 0-9.179687-.148437c-4.863282-.148437-10.300782-.457031-12.417969-1.03125-2.292969-.617187-4.101563-2.425781-4.71875-4.714844-.558594-2.105469-.847656-5.429687-.988281-8.21875-.140625-2.785156-.144532-5.039062-.144532-5.039062s.003907-2.238281.144532-5.019531.429687-6.105469.988281-8.234376c.617187-2.289062 2.476563-4.148437 4.71875-4.761718 2.097656-.550782 7.535156-.847656 12.402344-.992188 4.867187-.140625 9.195312-.140625 9.195312-.140625zm0 0"/></g></svg>