<svg xmlns="http://www.w3.org/2000/svg" width="64pt" height="64pt" viewBox="0 0 64 64"><defs><linearGradient id="a" gradientUnits="userSpaceOnUse" x1="254" y1="233.5" x2="254" y2="254.667" gradientTransform="translate(0 26.878) scale(.12501)"><stop offset="0" stop-opacity=".275"/><stop offset="1" stop-opacity="0"/></linearGradient><radialGradient id="b" gradientUnits="userSpaceOnUse" cx="450.909" cy="189.579" fx="450.909" fy="189.579" r="21.167" gradientTransform="matrix(0 -.15626 -.28128 0 106.907 127.19)"><stop offset="0" stop-opacity=".314"/><stop offset=".222" stop-opacity=".275"/><stop offset="1" stop-opacity="0"/></radialGradient><radialGradient id="c" gradientUnits="userSpaceOnUse" cx="450.909" cy="189.579" fx="450.909" fy="189.579" r="21.167" gradientTransform="matrix(0 .15626 .28128 0 -43.401 -15.055)"><stop offset="0" stop-opacity=".314"/><stop offset=".222" stop-opacity=".275"/><stop offset="1" stop-opacity="0"/></radialGradient><radialGradient id="d" gradientUnits="userSpaceOnUse" cx="450.909" cy="189.579" fx="450.909" fy="189.579" r="21.167" gradientTransform="matrix(0 -.15626 .28128 0 -43.401 127.19)"><stop offset="0" stop-opacity=".314"/><stop offset=".222" stop-opacity=".275"/><stop offset="1" stop-opacity="0"/></radialGradient><radialGradient id="e" gradientUnits="userSpaceOnUse" cx="450.909" cy="189.579" fx="450.909" fy="189.579" r="21.167" gradientTransform="matrix(0 .15626 -.28128 0 106.907 -15.055)"><stop offset="0" stop-opacity=".314"/><stop offset=".222" stop-opacity=".275"/><stop offset="1" stop-opacity="0"/></radialGradient><linearGradient id="f" gradientUnits="userSpaceOnUse" x1="305.955" y1="-31.877" x2="305.955" y2="-135.329" gradientTransform="matrix(.1507 0 0 .43482 -11.708 67.283)"><stop offset="0" stop-color="#42a5f5"/><stop offset="1" stop-color="#9fa8da"/></linearGradient><linearGradient id="g" gradientUnits="userSpaceOnUse" x1="960" y1="1615.118" x2="960" y2="1015.118" gradientTransform="matrix(.03308 0 0 .03308 0 2.646)"><stop offset="0" stop-color="#37474f"/><stop offset="1" stop-color="#455a64"/></linearGradient><linearGradient id="h" gradientUnits="userSpaceOnUse" x1="1400" y1="695.118" x2="1400" y2="455.118" gradientTransform="scale(.03308)"><stop offset="0" stop-color="#fdd835"/><stop offset="1" stop-color="#fff176"/></linearGradient></defs><path d="M9.262 56.066h44.984v2.575H9.262zm0 0" fill="url(#a)"/><path d="M54.246 56.066h5.29v-2.644h-5.29zm0 0" fill="url(#b)"/><path d="M9.262 56.066H3.969v2.649h5.293zm0 0" fill="url(#c)"/><path d="M9.262 56.066H3.969v-2.644h5.293zm0 0" fill="url(#d)"/><path d="M54.246 56.066h5.29v2.649h-5.29zm0 0" fill="url(#e)"/><path d="M6.613 8.438h50.278a2.645 2.645 0 0 1 2.644 2.648v42.336a2.644 2.644 0 0 1-2.644 2.644H6.613a2.644 2.644 0 0 1-2.644-2.644V11.086a2.645 2.645 0 0 1 2.644-2.649zm0 0" fill="url(#f)"/><path d="M3.969 41.516v11.906a2.639 2.639 0 0 0 2.644 2.644h50.278a2.639 2.639 0 0 0 2.644-2.644V41.516c-11 6.437-14.57-.735-19.055-1.91-4.8-1.258-5.718 4.453-10.562 3.87-4.844-.581-11.016-7.882-15.48-7.425-4.461.46-6.708 3.094-10.47 5.465zm0 0" fill="url(#g)"/><path d="M46.305 15.055c-.723 0-1.399.191-1.985.527a3.95 3.95 0 0 1 1.985 3.441 3.955 3.955 0 0 1-1.985 3.442 3.972 3.972 0 0 0 1.985.527c2.199 0 3.972-1.77 3.972-3.969s-1.773-3.968-3.972-3.968zm0 0" fill="url(#h)"/><path d="M10.586 12.406a2.64 2.64 0 0 0-2.649 2.649v31.75a2.64 2.64 0 0 0 2.649 2.648h42.336a2.64 2.64 0 0 0 2.644-2.648v-31.75a2.64 2.64 0 0 0-2.644-2.649zm0 .332h42.336a2.311 2.311 0 0 1 2.316 2.317v31.75a2.311 2.311 0 0 1-2.316 2.316H10.586a2.309 2.309 0 0 1-2.316-2.316v-31.75a2.309 2.309 0 0 1 2.316-2.317zm0 0" fill-opacity=".471"/><path d="M10.586 12.738a2.309 2.309 0 0 0-2.316 2.317v31.75a2.309 2.309 0 0 0 2.316 2.316h42.336a2.311 2.311 0 0 0 2.316-2.316v-31.75a2.311 2.311 0 0 0-2.316-2.317zm0 .332h42.336a1.98 1.98 0 0 1 1.984 1.985v31.75a1.983 1.983 0 0 1-1.984 1.988H10.586a1.98 1.98 0 0 1-1.984-1.988v-31.75c0-1.102.882-1.985 1.984-1.985zm0 0" fill="#d7d7d7" fill-opacity=".588"/><path d="M10.586 13.07h42.336c1.098 0 1.984.852 1.984 1.907v31.906c0 1.054-.886 1.91-1.984 1.91H10.586c-1.098 0-1.984-.855-1.984-1.91V14.977c0-1.055.886-1.907 1.984-1.907zm0 0" fill-opacity=".196"/><path d="M10.586 13.398c-.918 0-1.656.739-1.656 1.657v11.082c10.578-4.48 23.543-7.114 37.586-7.114 2.73 0 5.422.098 8.058.293v-4.261c0-.918-.734-1.657-1.652-1.657zm0 0" fill="#e3e3e3" fill-opacity=".118"/><path d="M6.613 8.438a2.64 2.64 0 0 0-2.644 2.648v.984a2.639 2.639 0 0 1 2.644-2.644h50.278a2.639 2.639 0 0 1 2.644 2.644v-.984a2.64 2.64 0 0 0-2.644-2.649zm0 0" fill="#fff" fill-opacity=".392"/><path d="M6.613 56.07a2.64 2.64 0 0 1-2.644-2.648v-.984a2.639 2.639 0 0 0 2.644 2.644h50.278a2.639 2.639 0 0 0 2.644-2.645v.985a2.64 2.64 0 0 1-2.644 2.648zm0 0" fill-opacity=".235"/><path d="M6.613 8.437h50.278a2.645 2.645 0 0 1 2.644 2.649v42.336a2.644 2.644 0 0 1-2.644 2.644H6.613a2.644 2.644 0 0 1-2.644-2.644V11.086a2.645 2.645 0 0 1 2.644-2.649zm0 0" fill="none" stroke-width=".37503000000000003" stroke-linecap="round" stroke="#212121"/></svg>