<svg height="64" viewBox="0 0 64 64" width="64" xmlns="http://www.w3.org/2000/svg" xmlns:xlink="http://www.w3.org/1999/xlink"><linearGradient id="a" gradientTransform="matrix(.132825 0 0 .125012 -1.984574 26.87757)" gradientUnits="userSpaceOnUse" x1="254" x2="254" y1="233.5" y2="254.666672"><stop offset="0" stop-opacity=".27451"/><stop offset="1" stop-opacity="0"/></linearGradient><linearGradient id="b"><stop offset="0" stop-opacity=".313726"/><stop offset=".222222" stop-opacity=".27451"/><stop offset="1" stop-opacity="0"/></linearGradient><radialGradient id="c" cx="450.908936" cy="189.579361" gradientTransform="matrix(.00000037 -.156265 -.298857 -.0000002 104.575878 127.190665)" gradientUnits="userSpaceOnUse" r="21.166656" xlink:href="#b"/><radialGradient id="d" cx="450.908936" cy="189.579361" gradientTransform="matrix(-.00000037 .156265 .298857 .0000002 -41.069799 -15.054961)" gradientUnits="userSpaceOnUse" r="21.166656" xlink:href="#b"/><radialGradient id="e" cx="450.908936" cy="189.579361" gradientTransform="matrix(-.00000037 -.156265 .298857 -.0000002 -41.069799 127.190665)" gradientUnits="userSpaceOnUse" r="21.166656" xlink:href="#b"/><radialGradient id="f" cx="450.908936" cy="189.579361" gradientTransform="matrix(.00000037 .156265 -.298857 .0000002 104.575874 -15.054959)" gradientUnits="userSpaceOnUse" r="21.166656" xlink:href="#b"/><linearGradient id="g" gradientUnits="userSpaceOnUse" x1="34.39913399987" x2="31.753048" y1="56.067868" y2="5.79220799994"><stop offset="0" stop-color="#424242"/><stop offset="1" stop-color="#616161"/></linearGradient><linearGradient id="h"><stop offset="0" stop-color="#9ccc65"/><stop offset="1" stop-color="#aed581"/></linearGradient><linearGradient id="i" gradientUnits="userSpaceOnUse" x1="15.87649200013" x2="15.87649200013" xlink:href="#h" y1="5.79220799994" y2="56.067868"/><linearGradient id="j" gradientUnits="userSpaceOnUse" x1="15.87649200013" x2="15.87649200013" xlink:href="#h" y1="15.05350899994" y2="65.329169"/><linearGradient id="k" gradientUnits="userSpaceOnUse" x1="15.87649200013" x2="15.87649200013" xlink:href="#h" y1="24.31484199994" y2="74.590502"/><linearGradient id="l" gradientUnits="userSpaceOnUse" x1="15.87649200013" x2="15.87649200013" xlink:href="#h" y1="33.57614199994" y2="83.851802"/><linearGradient id="m" gradientUnits="userSpaceOnUse" x1="15.87649200013" x2="15.87649200013" xlink:href="#h" y1="42.83741399994" y2="93.113074"/><linearGradient id="n" gradientUnits="userSpaceOnUse" x1="48.95256500013" x2="48.95256500013" xlink:href="#h" y1="5.79220799994" y2="56.067868"/><linearGradient id="o" gradientUnits="userSpaceOnUse" x1="48.95256500013" x2="48.95256500013" xlink:href="#h" y1="15.05350899994" y2="65.329169"/><linearGradient id="p" gradientUnits="userSpaceOnUse" x1="48.95256500013" x2="48.95256500013" xlink:href="#h" y1="24.31484199994" y2="74.590502"/><linearGradient id="q" gradientUnits="userSpaceOnUse" x1="48.95256500013" x2="48.95256500013" xlink:href="#h" y1="33.57614199994" y2="83.851802"/><linearGradient id="r" gradientUnits="userSpaceOnUse" x1="48.95256500013" x2="48.95256500013" xlink:href="#h" y1="42.83741399994" y2="93.113074"/><linearGradient id="s" gradientTransform="matrix(.108264 .062506 -.062506 .108264 6.280335 11.543978)" gradientUnits="userSpaceOnUse" x1="174.916672" x2="333.083313" xlink:href="#h" y1="32.416668" y2="32.416668"/><filter id="t" height="100%" width="100%" x="0%" y="0%"><feColorMatrix in="SourceGraphic" type="matrix" values="0 0 0 0 1 0 0 0 0 1 0 0 0 0 1 0 0 0 1 0"/></filter><mask id="u"><g filter="url(#t)"><path d="m0 0h64v64h-64z" fill-opacity=".573"/></g></mask><linearGradient id="v" gradientTransform="matrix(-.062506 .108264 -.108264 -.062506 48.809769 -5.817662)" gradientUnits="userSpaceOnUse" x1="232.833328" x2="269.875" y1="-28.815508" y2="-28.81551"><stop offset="0"/><stop offset="1" stop-opacity="0"/></linearGradient><clipPath id="w"><path d="m0 0h64v64h-64z"/></clipPath><mask id="x"><g filter="url(#t)"><path d="m0 0h64v64h-64z" fill-opacity=".573"/></g></mask><clipPath id="y"><path d="m0 0h64v64h-64z"/></clipPath><path d="m14.882812 56.066406h33.738282v2.648438h-33.738282zm0 0" fill="url(#a)"/><path d="m48.621094 56.066406h5.625v-2.644531h-5.625zm0 0" fill="url(#c)"/><path d="m14.882812 56.066406h-5.621093v2.648438h5.621093zm0 0" fill="url(#d)"/><path d="m14.882812 56.066406h-5.621093v-2.644531h5.621093zm0 0" fill="url(#e)"/><path d="m48.621094 56.066406h5.625v2.648438h-5.625zm0 0" fill="url(#f)"/><path d="m11.90625 5.792969h39.691406c1.460938 0 2.648438 1.183593 2.648438 2.644531v44.984375c0 1.460937-1.1875 2.644531-2.648438 2.644531h-39.691406c-1.460938 0-2.644531-1.183594-2.644531-2.644531v-44.984375c0-1.460938 1.183593-2.644531 2.644531-2.644531zm0 0" fill="url(#g)"/><path d="m13.230469 9.761719h3.96875c.730469 0 1.324219.59375 1.324219 1.324219v2.644531c0 .730469-.59375 1.324219-1.324219 1.324219h-3.96875c-.730469 0-1.324219-.59375-1.324219-1.324219v-2.644531c0-.730469.59375-1.324219 1.324219-1.324219zm0 0" fill="url(#i)"/><path d="m11.90625 13.730469v.660156c0 .734375.589844 1.324219 1.324219 1.324219h3.96875c.734375 0 1.324219-.589844 1.324219-1.324219v-.660156c0 .734375-.589844 1.324219-1.324219 1.324219h-3.96875c-.734375 0-1.324219-.589844-1.324219-1.324219zm0 0" fill="#fff" fill-opacity=".313726"/><path d="m13.230469 9.761719c-.734375 0-1.324219.589843-1.324219 1.324219v.660156c0-.734375.589844-1.324219 1.324219-1.324219h3.96875c.734375 0 1.324219.589844 1.324219 1.324219v-.660156c0-.734376-.589844-1.324219-1.324219-1.324219zm0 0" fill-opacity=".235294"/><path d="m-455.083044-136.913707h31.746969c5.843192 0 10.592738 4.749547 10.592738 10.592739v21.154229c0 5.843192-4.749546 10.592739-10.592738 10.592739h-31.746969c-5.843192 0-10.592738-4.749547-10.592738-10.592739v-21.154229c0-5.843192 4.749546-10.592739 10.592738-10.592739zm0 0" fill="none" stroke="#212121" stroke-linecap="round" stroke-linejoin="round" stroke-width="3" transform="matrix(.125012 0 0 .125012 70.121281 26.877566)"/><path d="m11.90625 5.65625c-1.464844 0-2.644531 1.179688-2.644531 2.648438v.660156c0-1.464844 1.179687-2.644532 2.644531-2.644532h39.691406c1.46875 0 2.648438 1.179688 2.648438 2.644532v-.660156c0-1.46875-1.179688-2.648438-2.648438-2.648438zm0 0" fill="#fff" fill-opacity=".313726"/><path d="m11.90625 56.066406c-1.464844 0-2.644531-1.179687-2.644531-2.644531v-.660156c0 1.464843 1.179687 2.644531 2.644531 2.644531h39.691406c1.46875 0 2.648438-1.179688 2.648438-2.644531v.660156c0 1.464844-1.179688 2.644531-2.648438 2.644531zm0 0" fill-opacity=".235294"/><path d="m95.240905-168.660675h317.50093c11.686384 0 21.185477 9.467846 21.185477 21.15423v359.840637c0 11.686384-9.499093 21.154229-21.185477 21.154229h-317.50093c-11.686384 0-21.15423-9.467845-21.15423-21.154229v-359.840637c0-11.686384 9.467846-21.15423 21.15423-21.15423zm0 0" fill="none" stroke="#212121" stroke-linecap="round" stroke-width="3" transform="matrix(.125012 0 0 .125012 0 26.877566)"/><path d="m13.230469 19.023438h3.96875c.730469 0 1.324219.589843 1.324219 1.320312v2.648438c0 .730468-.59375 1.324218-1.324219 1.324218h-3.96875c-.730469 0-1.324219-.59375-1.324219-1.324218v-2.648438c0-.730469.59375-1.320312 1.324219-1.320312zm0 0" fill="url(#j)"/><path d="m11.90625 22.992188v.660156c0 .734375.589844 1.324218 1.324219 1.324218h3.96875c.734375 0 1.324219-.589843 1.324219-1.324218v-.660156c0 .734374-.589844 1.324218-1.324219 1.324218h-3.96875c-.734375 0-1.324219-.589844-1.324219-1.324218zm0 0" fill="#fff" fill-opacity=".313726"/><path d="m13.230469 19.023438c-.734375 0-1.324219.589843-1.324219 1.320312v.664062c0-.734374.589844-1.324218 1.324219-1.324218h3.96875c.734375 0 1.324219.589844 1.324219 1.324218v-.664062c0-.730469-.589844-1.320312-1.324219-1.320312zm0 0" fill-opacity=".235294"/><path d="m-455.083044-136.91036h31.746969c5.843192 0 10.592738 4.718299 10.592738 10.561491v21.185477c0 5.843192-4.749546 10.592739-10.592738 10.592739h-31.746969c-5.843192 0-10.592738-4.749547-10.592738-10.592739v-21.185477c0-5.843192 4.749546-10.561491 10.592738-10.561491zm0 0" fill="none" stroke="#212121" stroke-linecap="round" stroke-linejoin="round" stroke-width="3" transform="matrix(.125012 0 0 .125012 70.121281 36.138867)"/><path d="m13.230469 28.285156h3.96875c.730469 0 1.324219.589844 1.324219 1.320313v2.648437c0 .730469-.59375 1.320313-1.324219 1.320313h-3.96875c-.730469 0-1.324219-.589844-1.324219-1.320313v-2.648437c0-.730469.59375-1.320313 1.324219-1.320313zm0 0" fill="url(#k)"/><path d="m11.90625 32.253906v.660156c0 .734376.589844 1.324219 1.324219 1.324219h3.96875c.734375 0 1.324219-.589843 1.324219-1.324219v-.660156c0 .730469-.589844 1.320313-1.324219 1.320313h-3.96875c-.734375 0-1.324219-.589844-1.324219-1.320313zm0 0" fill="#fff" fill-opacity=".313726"/><path d="m13.230469 28.285156c-.734375 0-1.324219.589844-1.324219 1.320313v.664062c0-.734375.589844-1.324219 1.324219-1.324219h3.96875c.734375 0 1.324219.589844 1.324219 1.324219v-.664062c0-.730469-.589844-1.320313-1.324219-1.320313zm0 0" fill-opacity=".235294"/><path d="m-455.083044-136.907273h31.746969c5.843192 0 10.592738 4.7183 10.592738 10.561492v21.185477c0 5.843192-4.749546 10.561491-10.592738 10.561491h-31.746969c-5.843192 0-10.592738-4.718299-10.592738-10.561491v-21.185477c0-5.843192 4.749546-10.561492 10.592738-10.561492zm0 0" fill="none" stroke="#212121" stroke-linecap="round" stroke-linejoin="round" stroke-width="3" transform="matrix(.125012 0 0 .125012 70.121281 45.4002)"/><path d="m13.230469 37.546875h3.96875c.730469 0 1.324219.589844 1.324219 1.320313v2.648437c0 .730469-.59375 1.320313-1.324219 1.320313h-3.96875c-.730469 0-1.324219-.589844-1.324219-1.320313v-2.648437c0-.730469.59375-1.320313 1.324219-1.320313zm0 0" fill="url(#l)"/><path d="m11.90625 41.515625v.660156c0 .734375.589844 1.324219 1.324219 1.324219h3.96875c.734375 0 1.324219-.589844 1.324219-1.324219v-.660156c0 .730469-.589844 1.320313-1.324219 1.320313h-3.96875c-.734375 0-1.324219-.589844-1.324219-1.320313zm0 0" fill="#fff" fill-opacity=".313726"/><path d="m13.230469 37.546875c-.734375 0-1.324219.589844-1.324219 1.320313v.664062c0-.734375.589844-1.324219 1.324219-1.324219h3.96875c.734375 0 1.324219.589844 1.324219 1.324219v-.664062c0-.730469-.589844-1.320313-1.324219-1.320313zm0 0" fill-opacity=".235294"/><path d="m-455.083044-136.903926h31.746969c5.843192 0 10.592738 4.7183 10.592738 10.561492v21.185477c0 5.843192-4.749546 10.561491-10.592738 10.561491h-31.746969c-5.843192 0-10.592738-4.718299-10.592738-10.561491v-21.185477c0-5.843192 4.749546-10.561492 10.592738-10.561492zm0 0" fill="none" stroke="#212121" stroke-linecap="round" stroke-linejoin="round" stroke-width="3" transform="matrix(.125012 0 0 .125012 70.121281 54.6615)"/><path d="m13.230469 46.804688h3.96875c.730469 0 1.324219.59375 1.324219 1.324218v2.648438c0 .730468-.59375 1.320312-1.324219 1.320312h-3.96875c-.730469 0-1.324219-.589844-1.324219-1.320312v-2.648438c0-.730468.59375-1.324218 1.324219-1.324218zm0 0" fill="url(#m)"/><path d="m11.90625 50.777344v.660156c0 .734375.589844 1.324219 1.324219 1.324219h3.96875c.734375 0 1.324219-.589844 1.324219-1.324219v-.660156c0 .730468-.589844 1.320312-1.324219 1.320312h-3.96875c-.734375 0-1.324219-.589844-1.324219-1.320312zm0 0" fill="#fff" fill-opacity=".313726"/><path d="m13.230469 46.804688c-.734375 0-1.324219.59375-1.324219 1.324218v.664063c0-.734375.589844-1.324219 1.324219-1.324219h3.96875c.734375 0 1.324219.589844 1.324219 1.324219v-.664063c0-.730468-.589844-1.324218-1.324219-1.324218zm0 0" fill-opacity=".235294"/><path d="m-455.083044-136.931597h31.746969c5.843192 0 10.592738 4.749546 10.592738 10.592738v21.185477c0 5.843192-4.749546 10.561492-10.592738 10.561492h-31.746969c-5.843192 0-10.592738-4.7183-10.592738-10.561492v-21.185477c0-5.843192 4.749546-10.592738 10.592738-10.592738zm0 0" fill="none" stroke="#212121" stroke-linecap="round" stroke-linejoin="round" stroke-width="3" transform="matrix(.125012 0 0 .125012 70.121281 63.922772)"/><path d="m46.304688 9.761719h3.972656c.730468 0 1.320312.59375 1.320312 1.324219v2.644531c0 .730469-.589844 1.324219-1.320312 1.324219h-3.972656c-.730469 0-1.320313-.59375-1.320313-1.324219v-2.644531c0-.730469.589844-1.324219 1.320313-1.324219zm0 0" fill="url(#n)"/><path d="m44.984375 13.730469v.660156c0 .734375.589844 1.324219 1.320313 1.324219h3.972656c.730468 0 1.320312-.589844 1.320312-1.324219v-.660156c0 .734375-.589844 1.324219-1.320312 1.324219h-3.972656c-.730469 0-1.320313-.589844-1.320313-1.324219zm0 0" fill="#fff" fill-opacity=".313726"/><path d="m46.304688 9.761719c-.730469 0-1.320313.589843-1.320313 1.324219v.660156c0-.734375.589844-1.324219 1.320313-1.324219h3.972656c.730468 0 1.320312.589844 1.320312 1.324219v-.660156c0-.734376-.589844-1.324219-1.320312-1.324219zm0 0" fill-opacity=".235294"/><path d="m-455.097872-136.913707h31.778216c5.843192 0 10.561491 4.749547 10.561491 10.592739v21.154229c0 5.843192-4.718299 10.592739-10.561491 10.592739h-31.778216c-5.843192 0-10.561491-4.749547-10.561491-10.592739v-21.154229c0-5.843192 4.718299-10.592739 10.561491-10.592739zm0 0" fill="none" stroke="#212121" stroke-linecap="round" stroke-linejoin="round" stroke-width="3" transform="matrix(.125012 0 0 .125012 103.197354 26.877566)"/><path d="m46.304688 19.023438h3.972656c.730468 0 1.320312.589843 1.320312 1.320312v2.648438c0 .730468-.589844 1.324218-1.320312 1.324218h-3.972656c-.730469 0-1.320313-.59375-1.320313-1.324218v-2.648438c0-.730469.589844-1.320312 1.320313-1.320312zm0 0" fill="url(#o)"/><path d="m44.984375 22.992188v.660156c0 .734375.589844 1.324218 1.320313 1.324218h3.972656c.730468 0 1.320312-.589843 1.320312-1.324218v-.660156c0 .734374-.589844 1.324218-1.320312 1.324218h-3.972656c-.730469 0-1.320313-.589844-1.320313-1.324218zm0 0" fill="#fff" fill-opacity=".313726"/><path d="m46.304688 19.023438c-.730469 0-1.320313.589843-1.320313 1.320312v.664062c0-.734374.589844-1.324218 1.320313-1.324218h3.972656c.730468 0 1.320312.589844 1.320312 1.324218v-.664062c0-.730469-.589844-1.320312-1.320312-1.320312zm0 0" fill-opacity=".235294"/><path d="m-455.097872-136.91036h31.778216c5.843192 0 10.561491 4.718299 10.561491 10.561491v21.185477c0 5.843192-4.718299 10.592739-10.561491 10.592739h-31.778216c-5.843192 0-10.561491-4.749547-10.561491-10.592739v-21.185477c0-5.843192 4.718299-10.561491 10.561491-10.561491zm0 0" fill="none" stroke="#212121" stroke-linecap="round" stroke-linejoin="round" stroke-width="3" transform="matrix(.125012 0 0 .125012 103.197354 36.138867)"/><path d="m46.304688 28.285156h3.972656c.730468 0 1.320312.589844 1.320312 1.320313v2.648437c0 .730469-.589844 1.320313-1.320312 1.320313h-3.972656c-.730469 0-1.320313-.589844-1.320313-1.320313v-2.648437c0-.730469.589844-1.320313 1.320313-1.320313zm0 0" fill="url(#p)"/><path d="m44.984375 32.253906v.660156c0 .734376.589844 1.324219 1.320313 1.324219h3.972656c.730468 0 1.320312-.589843 1.320312-1.324219v-.660156c0 .730469-.589844 1.320313-1.320312 1.320313h-3.972656c-.730469 0-1.320313-.589844-1.320313-1.320313zm0 0" fill="#fff" fill-opacity=".313726"/><path d="m46.304688 28.285156c-.730469 0-1.320313.589844-1.320313 1.320313v.664062c0-.734375.589844-1.324219 1.320313-1.324219h3.972656c.730468 0 1.320312.589844 1.320312 1.324219v-.664062c0-.730469-.589844-1.320313-1.320312-1.320313zm0 0" fill-opacity=".235294"/><path d="m-455.097872-136.907273h31.778216c5.843192 0 10.561491 4.7183 10.561491 10.561492v21.185477c0 5.843192-4.718299 10.561491-10.561491 10.561491h-31.778216c-5.843192 0-10.561491-4.718299-10.561491-10.561491v-21.185477c0-5.843192 4.718299-10.561492 10.561491-10.561492zm0 0" fill="none" stroke="#212121" stroke-linecap="round" stroke-linejoin="round" stroke-width="3" transform="matrix(.125012 0 0 .125012 103.197354 45.4002)"/><path d="m46.304688 37.546875h3.972656c.730468 0 1.320312.589844 1.320312 1.320313v2.648437c0 .730469-.589844 1.320313-1.320312 1.320313h-3.972656c-.730469 0-1.320313-.589844-1.320313-1.320313v-2.648437c0-.730469.589844-1.320313 1.320313-1.320313zm0 0" fill="url(#q)"/><path d="m44.984375 41.515625v.660156c0 .734375.589844 1.324219 1.320313 1.324219h3.972656c.730468 0 1.320312-.589844 1.320312-1.324219v-.660156c0 .730469-.589844 1.320313-1.320312 1.320313h-3.972656c-.730469 0-1.320313-.589844-1.320313-1.320313zm0 0" fill="#fff" fill-opacity=".313726"/><path d="m46.304688 37.546875c-.730469 0-1.320313.589844-1.320313 1.320313v.664062c0-.734375.589844-1.324219 1.320313-1.324219h3.972656c.730468 0 1.320312.589844 1.320312 1.324219v-.664062c0-.730469-.589844-1.320313-1.320312-1.320313zm0 0" fill-opacity=".235294"/><path d="m-455.097872-136.903926h31.778216c5.843192 0 10.561491 4.7183 10.561491 10.561492v21.185477c0 5.843192-4.718299 10.561491-10.561491 10.561491h-31.778216c-5.843192 0-10.561491-4.718299-10.561491-10.561491v-21.185477c0-5.843192 4.718299-10.561492 10.561491-10.561492zm0 0" fill="none" stroke="#212121" stroke-linecap="round" stroke-linejoin="round" stroke-width="3" transform="matrix(.125012 0 0 .125012 103.197354 54.6615)"/><path d="m46.304688 46.804688h3.972656c.730468 0 1.320312.59375 1.320312 1.324218v2.648438c0 .730468-.589844 1.320312-1.320312 1.320312h-3.972656c-.730469 0-1.320313-.589844-1.320313-1.320312v-2.648438c0-.730468.589844-1.324218 1.320313-1.324218zm0 0" fill="url(#r)"/><path d="m44.984375 50.777344v.660156c0 .734375.589844 1.324219 1.320313 1.324219h3.972656c.730468 0 1.320312-.589844 1.320312-1.324219v-.660156c0 .730468-.589844 1.320312-1.320312 1.320312h-3.972656c-.730469 0-1.320313-.589844-1.320313-1.320312zm0 0" fill="#fff" fill-opacity=".313726"/><path d="m46.304688 46.804688c-.730469 0-1.320313.59375-1.320313 1.324218v.664063c0-.734375.589844-1.324219 1.320313-1.324219h3.972656c.730468 0 1.320312.589844 1.320312 1.324219v-.664063c0-.730468-.589844-1.324218-1.320312-1.324218zm0 0" fill-opacity=".235294"/><path d="m-455.097872-136.931597h31.778216c5.843192 0 10.561491 4.749546 10.561491 10.592738v21.185477c0 5.843192-4.718299 10.561492-10.561491 10.561492h-31.778216c-5.843192 0-10.561491-4.7183-10.561491-10.561492v-21.185477c0-5.843192 4.718299-10.592738 10.561491-10.592738zm0 0" fill="none" stroke="#212121" stroke-linecap="round" stroke-linejoin="round" stroke-width="3" transform="matrix(.125012 0 0 .125012 103.197354 63.922772)"/><path d="m37.65625 20.589844.101562.058594c4.402344 2.539062 5.304688 9.21875 2.015626 14.914062-3.289063 5.695312-9.519532 8.25-13.921876 5.710938l-.105468-.0625c-4.398438-2.539063-5.300782-9.214844-2.011719-14.910157 3.285156-5.695312 9.519531-8.253906 13.921875-5.710937zm0 0" fill="url(#s)"/><g clip-path="url(#w)" mask="url(#u)"><path d="m38.269531 24.746094-.011719.023437c-.546874.941407-1.976562 1.136719-3.195312.429688-1.222656-.703125-1.769531-2.039063-1.226562-2.980469l.011718-.023438c.546875-.941406 1.976563-1.136718 3.199219-.429687 1.21875.703125 1.765625 2.039063 1.222656 2.980469zm0 0" fill="url(#v)"/></g><path d="m-167.829374-256.588696.209235-.012559c8.708922.023234 15.780161 9.146278 15.756707 20.417074.019231 11.282234-7.048241 20.413973-15.74154 20.4178l-.209234.012559c-8.708923-.023234-15.780162-9.146278-15.772332-20.444136-.003606-11.255172 7.063865-20.386912 15.757164-20.390738zm0 0" fill="none" stroke="#212121" stroke-linecap="round" stroke-linejoin="round" stroke-width="3" transform="matrix(-.062506 .108264 -.108264 -.062506 0 26.877566)"/><g clip-path="url(#y)" mask="url(#x)"><path d="m33.46875 21.21875c-3.148438.050781-6.53125 2.175781-8.589844 5.742188-2.058594 3.566406-2.210937 7.558593-.679687 10.308593-.144531-2.976562.632812-6.257812 2.398437-9.316406s4.21875-5.371094 6.871094-6.734375zm0 0" fill="#fff" fill-opacity=".235294"/></g><path d="m33.84375 19.597656c-3.695312.019532-7.6875 2.507813-10.109375 6.703125-1.414063 2.441407-2.054687 5.054688-1.984375 7.449219.066406-2.191406.710938-4.53125 1.984375-6.730469 3.296875-5.714843 9.503906-8.261719 13.921875-5.710937l.101562.058594c2.527344 1.460937 3.902344 4.261718 3.996094 7.464843.105469-3.496093-1.28125-6.617187-3.996094-8.183593l-.101562-.058594c-1.175781-.679688-2.472656-.996094-3.8125-.992188zm0 0" fill="#fff" fill-opacity=".392157"/><path d="m41.75 28.910156c-.085938 2.152344-.734375 4.4375-1.976562 6.59375-3.296876 5.710938-9.507813 8.257813-13.921876 5.710938l-.105468-.0625c-2.488282-1.4375-3.859375-4.183594-3.992188-7.328125-.140625 3.554687 1.242188 6.734375 3.992188 8.320312l.105468.0625c4.414063 2.546875 10.625 0 13.921876-5.710937 1.4375-2.492188 2.078124-5.15625 1.976562-7.585938zm0 0" fill-opacity=".235294"/><path d="m235.716752-194.169078.937931-.000301c40.6527-.018232 73.619923 42.646551 73.61388 95.25606-.006043 52.609508-32.9501 95.226707-73.6028 95.24494l-.980616-.011137c-40.625639.002609-73.577238-42.635114-73.571195-95.244622-.021018-52.593885 32.934477-95.253769 73.6028-95.24494zm0 0" fill="none" stroke="#212121" stroke-linecap="round" stroke-linejoin="round" stroke-width="3" transform="matrix(.108264 .062506 -.062506 .108264 0 26.877566)"/></svg>