<svg height="64pt" viewBox="0 0 64 64" width="64pt" xmlns="http://www.w3.org/2000/svg" xmlns:xlink="http://www.w3.org/1999/xlink"><linearGradient id="a" gradientTransform="matrix(.01042 0 0 .12501 29.217 29.854)" gradientUnits="userSpaceOnUse" x1="254" x2="254" y1="233.5" y2="254.667"><stop offset="0" stop-opacity=".275"/><stop offset="1" stop-opacity="0"/></linearGradient><linearGradient id="b"><stop offset="0" stop-opacity=".314"/><stop offset=".222" stop-opacity=".275"/><stop offset="1" stop-opacity="0"/></linearGradient><radialGradient id="c" cx="450.909" cy="189.579" gradientTransform="matrix(0 -.15626 -.28128 0 85.739 130.168)" gradientUnits="userSpaceOnUse" r="21.167" xlink:href="#b"/><radialGradient id="d" cx="450.909" cy="189.579" gradientTransform="matrix(0 .15626 .28128 0 -22.233 -12.078)" gradientUnits="userSpaceOnUse" r="21.167" xlink:href="#b"/><radialGradient id="e" cx="450.909" cy="189.579" gradientTransform="matrix(0 -.15626 .28128 0 -22.233 130.168)" gradientUnits="userSpaceOnUse" r="21.167" xlink:href="#b"/><radialGradient id="f" cx="450.909" cy="189.579" gradientTransform="matrix(0 .15626 -.28128 0 85.739 -12.078)" gradientUnits="userSpaceOnUse" r="21.167" xlink:href="#b"/><linearGradient id="g" gradientUnits="userSpaceOnUse" x1="31.7568" x2="31.7568" y1="58.72090344" y2="5.13130344"><stop offset="0" stop-color="#ff7043"/><stop offset="1" stop-color="#ffb74d"/></linearGradient><path d="m30.43 58.383h2.644v3.308h-2.644zm0 0" fill="url(#a)"/><path d="m33.074 59.043h5.293v-2.645h-5.293zm0 0" fill="url(#c)"/><path d="m30.43 59.043h-5.293v2.648h5.293zm0 0" fill="url(#d)"/><path d="m30.43 59.043h-5.293v-2.645h5.293zm0 0" fill="url(#e)"/><path d="m33.074 59.043h5.293v2.648h-5.293zm0 0" fill="url(#f)"/><path d="m27.273 5.629c-2.851.402-.468 5.594-.296 4.89-2.391.387-3.957 2.77-6.278 2.942-1.77.254-5.883.508-4.914 3.113 1.106 1.238 3.164 1.473 1.602 3.36-.23 2.734-3.422 3.617-4.242 6.132-.508 3.067 5.488.176 3.578 3.692-.793 1.695-2.137 6.289 1.254 5.3 2.207-2.015 3.128 1.598 5.097 2.43 2.801 2.028 6.29 2.762 9.688 2.778 4.008.472 6.715 5.082 5.207 8.82-1.285 3.941-6.567 5.637-9.918 3.207-3.504-2.191-3.91-7.719-.746-10.39 2.3-1.247-1.985-1.106-2.88-2.087-2.144-2.129-3.226 1.5-3.968 3.2-1.914 5.39.707 11.898 5.867 14.398 5 2.668 11.742 1.117 15.047-3.48 3.57-4.602 2.883-11.77-1.355-15.72-2.34-2.304-5.645-3.425-8.899-3.347-3.351-.094-6.652-3.012-6.191-6.531.488-4.273 5.777-6.504 9.472-4.746 3.368.996 6.211 3.176 9.375 4.582 2.313-.77-.152-2.5-1.336-3.098-1.355-.86-2.71-1.719-4.07-2.578-1.304-2.785 2.13-2.098 3.41-.883 1.934 1.168 4.137 2.215 5.504 4.051.168 1.164-2.687 3.211.02 2.621 2.488-1.043 5.496-3.148 4.879-6.262-.91-3.523-4.082-5.812-6.942-7.753-.086-2.793-.894-6.204-3.633-7.508-3.02-1.364-2.593 3.476-2.996 4.242-1.98-1.063-4.73-.34-6.16-2.227-1.496-1.32-3.094-2.941-5.176-3.148zm11.758 8.101c1.762 1.239.028 2.797-1.27 1.313-1.277-.926-3.726-.906-4.542-1.508 1.664-1.015 4.156-.703 5.812.195zm0 0" fill="url(#g)"/><path d="m27.273 5.629c-.953.012-1.367.734-1.312 1.703.047-.805.469-1.367 1.312-1.379 1.196-.016 3.239 1.094 6.262 4.234 1.73.18 3.61.602 5.41 1.258-.008-.113-.02-.222-.027-.332a23.06 23.06 0 0 0 -5.383-1.25c-3.023-3.14-5.066-4.246-6.262-4.234zm13.34.937c-.902.012-1.781.672-1.742 3.293.059-3.828 2.258-3.027 3.191-2.578 1.555.914 3.11 3.504 3.176 7.313 3.422 2.195 6.899 5.347 7.02 8.414.125-3.168-3.477-6.465-7.02-8.738-.066-3.81-1.62-6.399-3.175-7.313-.36-.172-.907-.398-1.45-.39zm-13.472 3.904a15.076 15.076 0 0 0 -5.246 2.902c-4.329.234-6.606 1.277-6.395 2.574.188-1.144 2.434-2.039 6.395-2.25a15.103 15.103 0 0 1 5.46-2.968c-.074-.086-.144-.172-.214-.258zm6.18 3.297a.855.855 0 0 0 -.247.289c2.317.328 3.64.66 5.293 1.652 1.13.676 1.508.219 1.422-.414-.078.437-.5.645-1.422.09-1.594-.953-2.883-1.297-5.047-1.617zm-15.33 4.693a15.11 15.11 0 0 0 -1.12 3.312c-3.024 2.59-3.919 4.082-3.798 4.934.114-.89 1.125-2.32 3.797-4.61.27-1.257.692-2.456 1.246-3.577-.043-.02-.086-.04-.125-.06zm20.079 3.29a1.48 1.48 0 0 0 .297 1.07l4.965 3.14c.738.528 1.34.99 1.465 1.423.168-.531-.543-1.086-1.465-1.746l-4.965-3.14a1.439 1.439 0 0 1 -.297-.747zm9.207 4.219c-.105.629-.738 1.468-1.113 1.824-.2.187-.223.355-.121.469a.965.965 0 0 1 .121-.149c.445-.418 1.25-1.523 1.113-2.144zm-30.277 3.078c-.953 2.344-1.29 3.851-1.246 4.797.039-.973.41-2.438 1.297-4.598-.016-.066-.035-.133-.051-.2zm7.895.062c-.004.055-.004.106-.004.16 0 1.876.968 3.54 2.492 4.63.73.66 2.715 1.324 4.367 1.324h.23c.06.004.114.004.168.007h.036a3.4 3.4 0 0 1 .195.008 45.147 45.147 0 0 0 .23.016l.157.012h.03c.063.007.126.011.188.02.012 0 .02 0 .028.003.054.004.11.012.164.016a.133.133 0 0 0 .039.004l.168.023a3.096 3.096 0 0 1 .207.031 10789.483 10789.483 0 0 1 .191.027c.008.005.02.005.032.008.058.012.12.02.18.032h.003c.063.015.129.027.191.039.008 0 .016.004.024.004l.152.035c.016.004.032.004.043.008.059.015.121.027.18.043l.184.046c.007 0 .015.004.023.004.05.016.102.028.152.043l.043.012c.117.031.239.066.356.106.008 0 .011.003.02.003a2.801 2.801 0 0 0 .179.059l.363.129c.004 0 .008.004.016.004.055.023.11.043.164.066a.03.03 0 0 1 .016.004l.175.07c.059.024.118.047.172.075.008 0 .012.004.02.008a20219.878 20219.878 0 0 0 .172.074 10.844 10.844 0 0 1 1.207.625v.004h.004c.132.078.265.16.394.246h.004c.117.078.234.156.352.238l.011.012a6.99 6.99 0 0 1 .352.254c.058.043.113.086.172.132a4.891 4.891 0 0 1 .172.137 4.798 4.798 0 0 0 .164.137c.004.004.004.008.007.008.06.05.118.101.176.152a6.53 6.53 0 0 0 .188.172c.004 0 .004.004.008.008l.164.152c.007.008.011.016.02.02.054.054.109.105.163.16 0 0 0 .004.004.004v.004c.004 0 .008.003.008.007.055.055.11.106.16.16v.004h.004l.164.176c0 .004.004.008.008.012l.004.004c.05.055.101.11.152.168a.085.085 0 0 0 .016.02l.148.171s0 .004.004.004c0 .004.004.004.008.008l.012.02.14.164v.007h.004c.047.059.094.118.137.176l.012.016.007.008c.004.003.004.003.004.007.047.059.09.118.133.176l.024.028c.043.058.082.117.125.175 0 0 .003.004.003.008h.004v.004c.004 0 .004.004.008.008.043.062.086.12.125.183a2.8 2.8 0 0 1 .13.196c.003.008.007.011.01.02a.054.054 0 0 1 .013.015c.003 0 .003.004.007.008.035.058.075.117.11.175a.054.054 0 0 0 .011.016l.012.024c.04.062.074.125.113.187 0 .004 0 .004.004.004v.004c.004.004.004.008.008.012a7.68 7.68 0 0 1 .11.191l.003.012c.04.062.075.129.11.195l.012.02c0 .003.003.007.007.015 0 .004 0 .004.004.008.032.062.067.125.098.187a.03.03 0 0 0 .008.016v.004l.011.023.094.188v.004c.004.004.008.008.008.015l.012.024.082.18s.004 0 .004.004a43732.218 43732.218 0 0 0 .098.219l.003.015c.004.008.012.02.016.031.027.067.055.129.078.195a.03.03 0 0 1 .008.02h.004v.004l.011.027c.024.063.051.125.075.192v.004c.004.003.004.011.007.015 0 .008.004.016.008.024.024.058.043.12.067.18 0 .003 0 .007.004.011.003.012.007.02.007.031l.07.2c0 .003.005.011.005.015a.27.27 0 0 1 .011.031c0 .004 0 .004.004.008l.059.192c.004.007.004.015.008.023 0 .004.004.008.004.012 0 .008.003.015.007.023.02.063.035.125.055.192 0 .003 0 .003.004.007v.004l.004.016c.004.008.004.02.008.031.015.059.035.121.05.184v.004l.012.039.047.199c.004.004.004.012.004.016l.012.043v.007c.015.067.03.133.047.2v.007c.003.016.007.028.007.04.004.003.004.007.004.011.012.063.028.125.04.188v.011a.05.05 0 0 1 .003.024l.004.004c0 .011.004.023.004.039.012.054.023.11.031.164 0 .008.004.015.004.02 0 .011.004.027.004.038.004 0 .004.004.004.004.012.07.02.137.031.207v.012c.004.016.004.027.008.043v.008c.012.066.02.137.027.203 0 .004 0 .008.004.012 0 .015 0 .027.004.039v.023l.024.18v.027c0 .004 0 .004.004.008.015.164.027.332.039.496v.055l.011.226v.047c.004.075.004.149.008.227v-.156-.157-.011c-.004-.078-.004-.153-.008-.227v-.004-.039-.004l-.011-.222v-.004-.047-.004a21.525 21.525 0 0 0 -.04-.5c0-.004-.003-.004-.003-.008v-.027a2.805 2.805 0 0 1 -.02-.18c-.004-.008-.004-.016-.004-.02-.004-.015-.004-.027-.004-.042 0-.004-.004-.008-.004-.012a4.178 4.178 0 0 0 -.027-.203v-.008c-.004-.012-.004-.028-.008-.043v-.012l-.031-.203c0-.004 0-.008-.004-.008 0-.011-.004-.023-.004-.039 0-.004-.004-.012-.004-.02a2.423 2.423 0 0 0 -.031-.163c0-.012-.004-.028-.004-.04h-.004c0-.011 0-.019-.004-.027v-.012c-.011-.062-.027-.12-.039-.183 0-.008 0-.012-.004-.016a.114.114 0 0 0 -.007-.035v-.012l-.047-.199v-.008l-.012-.043c0-.004 0-.011-.004-.015l-.047-.2-.012-.039v-.003c-.015-.063-.035-.125-.05-.184-.004-.012-.004-.02-.008-.031l-.004-.016v-.004c-.004-.004-.004-.004-.004-.008-.02-.062-.035-.129-.055-.191-.004-.008-.007-.016-.007-.023 0-.004-.004-.008-.004-.012-.004-.008-.004-.016-.008-.02l-.059-.195c-.004-.004-.004-.004-.004-.008l-.011-.031c0-.004-.004-.008-.004-.016l-.07-.199c0-.012-.005-.02-.008-.031-.004-.004-.004-.008-.004-.012-.024-.059-.043-.121-.067-.18-.004-.007-.008-.015-.008-.023-.003-.004-.003-.012-.007-.016v-.004c-.028-.062-.051-.129-.075-.191-.004-.008-.007-.02-.011-.027v-.004h-.005c0-.008-.004-.012-.008-.02a3.94 3.94 0 0 0 -.078-.191v-.004a.117.117 0 0 1 -.016-.031 4.876 4.876 0 0 0 -.098-.227c-.003-.004-.003-.004-.003-.008l-.004-.004c-.028-.058-.055-.12-.082-.18l-.012-.023c-.004-.004-.004-.011-.008-.015v-.004l-.094-.188-.011-.023c-.004-.008-.008-.012-.008-.02-.035-.062-.066-.125-.098-.187-.004 0-.004-.004-.004-.008a.03.03 0 0 1 -.007-.016c-.004-.008-.008-.011-.012-.02-.035-.066-.07-.132-.11-.195 0-.003-.003-.007-.003-.011-.004-.004-.004-.004-.004-.008l-.106-.184-.008-.011-.004-.004v-.004l-.113-.188-.012-.02c-.003-.007-.007-.01-.011-.019a4.44 4.44 0 0 0 -.114-.176c0-.003-.003-.003-.003-.007l-.012-.016-.012-.02a4.178 4.178 0 0 0 -.129-.195l-.125-.183c-.004 0-.004-.004-.008-.008 0-.004 0-.004-.004-.004 0-.004-.003-.004-.003-.008-.043-.059-.082-.117-.125-.172-.008-.012-.016-.023-.024-.031-.043-.059-.086-.117-.133-.176 0-.004-.004-.004-.004-.008-.004 0-.004-.004-.007-.007-.004-.004-.008-.008-.012-.016a2.93 2.93 0 0 0 -.137-.172v-.004h-.004v-.004c-.047-.058-.093-.113-.14-.168-.004-.008-.008-.011-.012-.02a.008.008 0 0 1 -.008-.007c-.004 0-.004-.004-.004-.004-.05-.059-.097-.113-.148-.168a5.721 5.721 0 0 0 -.168-.191l-.004-.004c-.004-.004-.008-.008-.008-.012l-.164-.176h-.004c-.055-.054-.105-.11-.16-.164 0-.004-.004-.004-.008-.008v-.004c-.004 0-.004 0-.004-.003l-.164-.157-.02-.023-.163-.153-.008-.007c-.004-.004-.008-.008-.012-.008-.059-.055-.117-.11-.176-.16-.058-.055-.117-.106-.176-.157-.003 0-.007-.003-.007-.003l-.004-.004c-.055-.047-.11-.09-.16-.133l-.008-.008a2.786 2.786 0 0 0 -.168-.133l-.168-.133c-.004 0-.004-.004-.008-.004a11.035 11.035 0 0 0 -.344-.25c-.004-.003-.008-.007-.011-.007a18.879 18.879 0 0 0 -.352-.242h-.004c-.129-.086-.262-.165-.394-.247h-.004v-.004c-.11-.062-.223-.128-.336-.19a13.077 13.077 0 0 0 -.52-.27l-.351-.164h-.004s0-.004-.004-.004l-.164-.07c-.008-.005-.012-.009-.02-.009-.054-.027-.113-.05-.172-.074l-.175-.07c-.008 0-.012-.004-.016-.004a2.132 2.132 0 0 0 -.168-.062c-.004-.004-.008-.004-.012-.008-.12-.043-.242-.086-.363-.125-.004-.004-.008-.004-.012-.004-.058-.02-.113-.04-.168-.055-.008-.004-.015-.004-.02-.008-.116-.035-.238-.07-.359-.105l-.039-.012a2.18 2.18 0 0 0 -.152-.039c-.008-.004-.016-.004-.023-.008-.063-.015-.125-.031-.184-.047-.063-.015-.121-.027-.18-.043-.011 0-.027-.004-.043-.007-.05-.012-.101-.024-.152-.032-.008-.004-.016-.004-.027-.007l-.188-.036-.004-.004a2.882 2.882 0 0 1 -.18-.03c-.011 0-.023-.005-.03-.005a2.394 2.394 0 0 0 -.165-.027c-.008 0-.02-.004-.027-.004a3.097 3.097 0 0 0 -.188-.027c-.007 0-.011-.004-.02-.004-.054-.008-.109-.016-.167-.02-.012-.004-.028-.004-.04-.008-.054-.003-.109-.011-.163-.015-.008 0-.016-.004-.028-.004-.062-.008-.125-.012-.187-.016-.012-.004-.024-.004-.031-.004a28.006 28.006 0 0 1 -.157-.011c-.015 0-.03-.004-.047-.004a45.147 45.147 0 0 1 -.183-.012c-.066-.004-.133-.004-.195-.008h-.036c-.054-.004-.109-.004-.168-.004h-.03c-.067-.004-.13-.004-.196-.004h-.004c-1.652 0-3.637-.66-4.367-1.324-1.477-1.054-2.434-2.656-2.488-4.465zm-2.07 9.805a11.864 11.864 0 0 0 -2.981 7.89c0 .063.004.126.004.188a11.86 11.86 0 0 1 2.976-7.754 16.45 16.45 0 0 0 5.11 2.16c.12-.086.242-.164.367-.242a16.458 16.458 0 0 1 -5.477-2.242zm2.316 8.055c-.004.054-.004.11-.004.16a6.605 6.605 0 0 0 6.617 6.617 6.602 6.602 0 0 0 6.613-6.617v-.156a6.6 6.6 0 0 1 -6.613 6.449 6.601 6.601 0 0 1 -6.613-6.453zm0 0" fill="#fff" fill-opacity=".392"/><path d="m25.96 7.004c-.058.898.356 2.094 1.177 3.133.074-.02.144-.043.218-.067-.859-.98-1.343-2.136-1.394-3.066zm12.911 2.504c-.008.375.008.8.047 1.273l.027.012c-.047-.477-.07-.902-.074-1.285zm-3.344 3.097c-1.164.012-2.195.266-2.453.793.09.012.172.028.254.04 1.059-.801 4.508-.602 5.703.292.41.286.696.801.758 1.235.078-.469-.234-1.203-.758-1.567-.703-.527-2.187-.812-3.504-.793zm-20.027 3.012c-.133.77.664 1.653 2.488 2.52l.13-.27c-1.653-.765-2.5-1.543-2.618-2.25zm23.492 4.395c-.582-.008-.992.707-.918 1.41.063-.594.446-1.11.957-1.078.742.086 6.403 3.031 8.14 5.086a.469.469 0 0 1 .106.21c.035-.214.012-.406-.105-.542-1.734-2.051-7.399-5-8.14-5.082-.012 0-.028-.004-.04-.004zm-7.362 2.648c-3.734 0-6.738 2.656-6.738 5.957 0 .051 0 .106.004.16.101-3.218 3.066-5.785 6.734-5.785h.125c.594-.004 1.488.164 2.644.598 2.735.863 5.29 2.398 8.118 4.031.98.332 1.18.957 1.972.168.301-.242.383-.484.309-.73-.043.132-.145.265-.309.398-.793.793-.992.164-1.972-.164-2.828-1.633-5.383-3.172-8.118-4.035-1.156-.434-2.05-.598-2.644-.598zm20.629.027c-.078 1.88-1.465 3.715-4.957 5.266-.61.203-1.09.156-1.254-.02-.266.41.36.649 1.254.352 3.695-1.644 5.035-3.605 4.957-5.598zm-39.185 3.693c-.215 1.644 2.633 1.426 3.703 1.305.063.347.137.695.223 1.035.016-.043.035-.082.05-.125-.109-.41-.198-.824-.273-1.242-.992.113-3.511.308-3.703-.973zm2.68 7.137c-.129 3.214 3.371 1.05 3.894.699a15.07 15.07 0 0 0 2.774 2.797c.05.039.105.078.156.117.031.023.063.05.098.074.05.04.105.078.16.117l.105.075.133.093c.047.032.094.063.137.094l.105.07c.055.04.114.075.172.114l.102.066.133.082c.02.012.039.023.054.035a15.193 15.193 0 0 0 7.977 2.242 6.6 6.6 0 0 1 6.613 6.446v-.16a6.602 6.602 0 0 0 -6.613-6.618 15.158 15.158 0 0 1 -8.031-2.277l-.133-.082c-.035-.02-.067-.043-.102-.066a2.611 2.611 0 0 1 -.172-.114 1.566 1.566 0 0 1 -.105-.066c-.043-.031-.09-.063-.137-.094-.043-.031-.09-.062-.133-.094-.035-.027-.07-.05-.105-.078a5.69 5.69 0 0 1 -.16-.117 2.115 2.115 0 0 1 -.098-.07c-.05-.043-.105-.082-.156-.121-.031-.028-.067-.051-.098-.078a15.175 15.175 0 0 1 -2.676-2.715c-.503.336-3.773 2.355-3.894-.371zm12.172 7.558a6.598 6.598 0 0 0 -2.785 5.574 6.602 6.602 0 0 1 3.16-5.492zm-8.078 5.59c0 .047-.004.094-.004.14 0 6.598 5.312 11.91 11.91 11.91h.152c.739-.007 1.461-.077 2.16-.21.008-.004.016-.004.024-.004.066-.016.129-.027.195-.04.29-.062.57-.132.848-.21.004 0 .004-.004.008-.004.066-.02.129-.035.191-.055.012-.004.02-.007.027-.011.063-.016.121-.035.184-.055l.035-.012c.059-.02.117-.043.18-.062.008-.004.015-.004.027-.008.328-.117.649-.246.961-.387.012-.004.024-.011.035-.015.051-.024.106-.051.16-.075l.04-.02c.054-.026.109-.05.16-.077.015-.008.027-.016.039-.02l.164-.082a12.277 12.277 0 0 0 .723-.414c.011-.004.023-.012.035-.02.046-.027.09-.058.136-.085l.059-.035c.043-.032.086-.06.125-.086l.062-.04c.043-.03.082-.058.125-.085.02-.016.04-.028.059-.043.043-.028.086-.059.129-.09.016-.012.027-.024.043-.032l.137-.101a8.2 8.2 0 0 0 .289-.227c.02-.011.035-.027.05-.039.036-.027.07-.058.106-.086.023-.02.05-.039.074-.062l.098-.082c.023-.024.05-.043.074-.063.031-.03.062-.058.098-.086l.074-.07c.031-.027.062-.055.094-.086l.074-.07c.031-.028.058-.055.09-.086.027-.024.054-.05.082-.078l.078-.078c.054-.055.105-.106.152-.157.024-.023.047-.05.07-.074.032-.031.06-.062.09-.094.024-.027.047-.05.07-.078l.083-.093a1.44 1.44 0 0 1 .074-.079c.023-.03.05-.062.078-.093l.07-.082a1.71 1.71 0 0 0 .078-.098c.024-.027.047-.055.067-.082a2.213 2.213 0 0 0 .14-.176c.043-.054.086-.11.125-.164.004-.004.012-.012.016-.02l.137-.183c.015-.023.031-.043.043-.066.031-.04.058-.082.09-.121a.884.884 0 0 1 .05-.079c.028-.039.055-.078.079-.12l.046-.071.082-.129c.016-.023.032-.047.043-.07.028-.043.055-.086.082-.133.016-.02.028-.043.043-.066.032-.051.059-.106.09-.157l.024-.043.117-.207c.004-.008.008-.015.012-.027.03-.059.066-.121.097-.18.008-.02.02-.039.028-.058.027-.051.05-.102.074-.149l.039-.074c.02-.047.043-.094.066-.14.012-.028.024-.051.032-.075.023-.047.046-.097.066-.144.012-.024.02-.047.031-.07l.07-.16.024-.06c.027-.07.059-.144.086-.214.027-.078.058-.153.086-.23l.012-.032c.023-.063.042-.125.066-.191.008-.02.016-.043.023-.067.016-.05.036-.105.051-.16l.024-.074.046-.153.024-.078.047-.168c.004-.02.011-.039.015-.058.02-.067.036-.13.051-.196l.012-.039c.02-.078.039-.16.055-.238.226-1.324.222-1.84.226-2.644v-.137c-.004.7-.02 1.238-.226 2.45-.016.081-.036.16-.055.237l-.012.043c-.015.063-.031.13-.05.192-.005.02-.012.039-.016.058l-.047.172-.024.074-.046.153-.024.078c-.015.05-.035.105-.05.16l-.024.063c-.023.066-.043.128-.066.191a.269.269 0 0 1 -.012.031c-.028.078-.059.156-.086.23-.027.075-.059.145-.086.22-.008.019-.016.035-.023.054-.024.055-.047.11-.07.16-.009.024-.02.047-.032.07-.02.047-.043.098-.066.145-.008.027-.02.05-.032.074-.023.047-.047.094-.066.141-.012.023-.024.05-.04.074-.023.051-.046.102-.073.149-.008.02-.02.039-.028.058-.031.063-.066.121-.097.184l-.012.023-.117.207c-.008.016-.016.032-.024.043-.031.055-.058.106-.09.157-.015.023-.027.046-.043.07l-.082.133c-.011.023-.027.047-.043.07-.027.039-.054.082-.082.125l-.046.07c-.024.043-.051.082-.079.125a.497.497 0 0 0 -.05.074c-.032.04-.059.083-.09.122-.012.023-.028.043-.043.066-.047.062-.09.125-.137.184v.003a2.51 2.51 0 0 1 -.14.18.75.75 0 0 1 -.051.067c-.028.039-.059.074-.09.113-.02.027-.043.05-.067.078a.95.95 0 0 1 -.078.098l-.07.082c-.027.03-.055.062-.078.093l-.074.082c-.028.028-.055.059-.082.09a1.408 1.408 0 0 1 -.07.078l-.09.094c-.024.028-.047.05-.07.074-.048.051-.099.106-.153.157-.024.027-.051.05-.078.078l-.082.082c-.032.027-.059.054-.09.082l-.074.074-.094.082-.074.07c-.036.028-.067.059-.098.086l-.074.063c-.032.027-.067.054-.098.086-.023.02-.05.039-.074.058-.035.032-.07.059-.106.086-.015.016-.03.028-.05.043-.094.074-.192.153-.29.227-.046.031-.09.066-.136.097-.016.012-.028.024-.043.032l-.129.093c-.02.012-.04.028-.059.04-.043.027-.082.058-.125.085-.02.012-.039.028-.062.04-.04.03-.082.058-.125.085l-.059.036-.136.086-.036.023c-.226.14-.46.27-.695.395l-.027.015-.164.082c-.012.008-.024.012-.04.02-.05.027-.105.054-.16.078-.011.008-.023.012-.039.02-.054.027-.109.05-.16.074-.011.007-.023.011-.035.015-.312.145-.633.274-.96.387-.013.004-.02.008-.028.012l-.18.058-.035.012-.184.059c-.007 0-.015.003-.027.007-.062.02-.125.04-.191.055v.004h-.008a9.95 9.95 0 0 1 -.848.21c-.066.013-.129.028-.195.04-.008 0-.016.004-.024.004-.699.133-1.421.207-2.16.21h-.152a11.88 11.88 0 0 1 -11.906-11.718zm0 0" fill-opacity=".235"/><path d="m27.27 5.441c-.512.008-.918.211-1.168.551-.25.336-.352.79-.332 1.29.035.929.48 2.046 1.27 3.027a15.292 15.292 0 0 0 -5.22 2.879c-1.648.093-3.008.3-4.047.601-1.054.309-1.793.7-2.183 1.2-.195.25-.3.53-.293.823.008.297.129.59.336.876.402.542 1.144 1.074 2.238 1.597-.512 1.067-.91 2.2-1.168 3.387-1.879 1.613-2.941 2.805-3.45 3.707-.257.453-.378.84-.378 1.176.004.336.137.62.348.82.425.406 1.113.531 1.793.566a9.662 9.662 0 0 0 1.609-.058c.066.347.14.687.23 1.027-.94 2.297-1.304 3.817-1.293 4.824.004.508.11.891.297 1.168.188.278.465.442.766.504.594.125 1.277-.09 1.867-.347.5-.22.887-.454 1.113-.598a15.415 15.415 0 0 0 2.602 2.617c.031.027.066.055.102.082.05.04.105.078.156.121.031.024.066.047.098.07.054.04.109.083.164.122.035.023.07.05.105.074.047.035.09.066.137.098.047.03.093.062.14.093.032.024.067.047.102.07.059.04.117.079.176.114.035.023.07.047.105.066.043.032.086.059.133.086.016.012.035.02.055.035a15.359 15.359 0 0 0 8.074 2.27 6.408 6.408 0 0 1 6.426 6.426 6.41 6.41 0 0 1 -6.426 6.43 6.41 6.41 0 0 1 -6.43-6.43 6.41 6.41 0 0 1 3.074-5.489.181.181 0 0 0 .086-.191.188.188 0 0 0 -.144-.152 16.253 16.253 0 0 1 -5.414-2.22.19.19 0 0 0 -.242.036 12.068 12.068 0 0 0 -3.028 8.016c0 6.699 5.399 12.097 12.098 12.097h.156c.75-.007 1.48-.082 2.192-.215.011-.003.02-.003.023-.003.066-.016.133-.028.2-.04.292-.062.577-.132.862-.214l.004-.004c.012-.004.004 0 .008 0 .063-.02.125-.04.192-.059.007 0 .015-.004.027-.008.059-.02.121-.039.184-.058l.035-.012.18-.059.03-.011c.333-.117.657-.246.977-.39.008-.009.02-.013.031-.017.06-.027.114-.05.168-.078.012-.007.028-.011.04-.02.054-.026.109-.05.164-.077a.182.182 0 0 1 .039-.02c.054-.027.109-.058.164-.086a11.436 11.436 0 0 0 .734-.418c.012-.004.023-.011.035-.02.047-.03.094-.058.14-.085a.509.509 0 0 1 .06-.04c.042-.027.085-.058.128-.085.02-.016.043-.028.063-.043.043-.028.086-.055.125-.086.023-.012.039-.027.058-.04l.133-.093c.016-.012.032-.023.043-.035.047-.031.094-.066.14-.098.099-.078.196-.152.294-.23.015-.016.035-.028.05-.043.04-.028.075-.059.11-.086l.074-.063.098-.086c.027-.02.05-.042.074-.062l.102-.09c.023-.023.05-.043.074-.066.031-.032.062-.059.094-.086.027-.028.054-.051.078-.074.031-.028.058-.055.09-.086a.812.812 0 0 0 .082-.082c.027-.024.054-.051.082-.079v-.003c.054-.051.105-.102.156-.157.023-.027.047-.05.07-.074.028-.031.059-.062.09-.094.023-.027.05-.054.074-.082.028-.03.055-.062.082-.093.028-.028.051-.055.075-.082l.082-.094.07-.082c.027-.035.055-.067.082-.098l.066-.086c.032-.035.059-.074.09-.113l.05-.063.13-.168c0-.004.008-.007.012-.015v-.004h.003v-.004c.047-.059.09-.121.137-.184.016-.023.031-.047.047-.066.027-.043.059-.082.086-.125.02-.027.035-.055.05-.078.028-.04.055-.082.087-.121.015-.028.03-.051.047-.074l.082-.13c.015-.023.027-.046.043-.07.027-.047.054-.09.082-.136a1.11 1.11 0 0 0 .043-.07l.093-.157c.008-.016.016-.027.024-.047.039-.066.078-.137.117-.207.004-.012.012-.02.012-.027a4.18 4.18 0 0 0 .097-.184l.032-.058c.027-.051.05-.102.078-.153.011-.027.023-.05.035-.074.023-.05.047-.098.066-.145.012-.023.024-.05.035-.074.024-.05.047-.097.067-.148.012-.024.02-.047.031-.07l.07-.165c.008-.015.016-.035.024-.054.031-.074.058-.149.09-.223.027-.078.058-.156.086-.234.004-.012.007-.024.011-.032.024-.062.047-.128.067-.19.011-.024.015-.048.023-.067.02-.055.035-.11.055-.164l.023-.078c.016-.051.032-.102.047-.157l.024-.074c.015-.059.03-.117.046-.172.008-.02.012-.039.02-.062.016-.067.035-.13.05-.196 0-.011.005-.023.009-.043.02-.078.039-.16.058-.242.23-1.34.227-1.879.23-2.683v-.157-.03.023-.004c0-.078-.003-.153-.007-.227 0-.004 0-.004 0 0v-.004-.004-.039-.004c-.004-.078-.004-.152-.012-.23v-.051a18.615 18.615 0 0 0 -.039-.5v.004l-.004-.008v-.02.005c0-.012 0-.02-.004-.028-.004-.062-.011-.12-.02-.18v-.023c-.003-.012-.003-.027-.007-.043v-.012c-.008-.07-.02-.136-.027-.203v-.008c-.004-.015-.008-.03-.008-.046 0-.008-.004-.012-.004-.012-.008-.07-.02-.14-.031-.207v-.008c-.004-.012-.004-.027-.008-.04 0-.007-.004-.015-.004-.019-.008-.054-.02-.109-.027-.168-.004-.011-.004-.023-.008-.039v.004c-.004-.015-.004-.023-.008-.031v-.012c-.012-.062-.027-.125-.04-.187 0-.004 0-.008-.003-.016 0-.012-.004-.023-.008-.035v-.012a16.49 16.49 0 0 0 -.047-.203v-.008c-.004-.015-.008-.027-.011-.043 0-.007-.004-.015-.004-.015l-.047-.2h-.004c-.004-.015-.004-.03-.008-.042 0-.004-.004-.004-.004-.004v-.004a3.213 3.213 0 0 0 -.05-.184c0-.008-.005-.015-.008-.031 0-.008-.004-.012-.004-.016v-.004c0-.004-.004-.007-.004-.007-.02-.067-.035-.133-.055-.196-.004-.004-.004-.011-.008-.023 0 0-.004-.004-.004-.012-.004-.012-.004-.016-.008-.02v-.003c-.019-.063-.039-.13-.062-.196 0 .004 0 0-.004-.007a.074.074 0 0 0 -.008-.032c-.004-.008-.004-.011-.004-.015l-.07-.196c-.004-.02-.008-.027-.012-.039-.004-.008-.004-.011-.004-.011l-.066-.184c-.004-.004-.004-.012-.008-.023-.004-.004-.004-.008-.008-.012 0-.008-.004-.012-.004-.016-.023-.062-.046-.125-.074-.187 0-.004-.004-.012-.008-.024l-.003-.004v-.004c-.004-.011-.008-.015-.008-.02a9.895 9.895 0 0 0 -.082-.194v-.004a.117.117 0 0 0 -.016-.032c-.004-.007-.004-.011-.004-.015-.031-.07-.062-.145-.097-.215v-.008h-.004v-.004a3.872 3.872 0 0 0 -.098-.207c-.004-.008-.004-.011-.008-.015v-.004l-.094-.192c-.004-.004-.007-.011-.011-.02v-.003l-.004-.004c-.004-.008-.004-.012-.008-.016 0 0 0-.004-.004-.008.004.004.008.016.012.024-.008-.016-.02-.031-.024-.031 0-.004.004-.004.012.008-.031-.06-.062-.122-.094-.18 0-.004 0-.004-.004-.012-.004-.004-.004-.008-.007-.016-.008-.007-.008-.015-.012-.02a5.028 5.028 0 0 0 -.11-.198c-.003-.004-.003-.008-.007-.012 0-.004-.004-.008-.004-.008-.035-.062-.07-.125-.106-.183 0-.004-.004-.008-.004-.012h-.004c-.003-.008-.003-.008 0-.004-.003-.008-.007-.008-.003-.008a4.785 4.785 0 0 1 -.114-.187c-.004-.004-.008-.012-.015-.024-.004-.008-.008-.011-.008-.015a4.551 4.551 0 0 1 -.113-.18c-.004 0-.004-.004-.008-.008-.004-.008-.008-.012-.008-.016-.008-.011-.012-.015-.012-.02a5.88 5.88 0 0 1 -.133-.198l-.128-.184s-.004-.004-.008-.012l-.008-.011c0 .004.016.023.004.008-.004-.004-.004-.008-.004-.008l-.129-.176c-.008-.012-.016-.02-.02-.031l-.136-.176c.004 0 0 0-.004-.008-.004-.004-.004-.008-.008-.012s-.008-.011-.012-.011c-.043-.059-.09-.118-.136-.176-.004 0-.004 0-.004-.004-.004-.008-.008-.008-.004-.004l.004.004c-.012-.016-.012-.016-.004-.004l-.14-.172c-.005-.004-.009-.012-.016-.02l-.008-.007c-.004-.004-.004-.008-.004-.004a3.121 3.121 0 0 0 -.149-.172 5.72 5.72 0 0 0 -.168-.191c-.003 0-.003-.004-.007-.008l-.008-.008a2.398 2.398 0 0 0 -.168-.176v-.004l-.004-.004a6.267 6.267 0 0 0 -.16-.164l-.004-.004c-.012-.015-.012-.015-.008-.007l-.004-.004-.164-.16a.047.047 0 0 0 -.02-.02c-.054-.055-.109-.105-.167-.16l-.004-.004-.012-.012c-.063-.054-.121-.11-.18-.164-.062-.05-.12-.101-.18-.152l-.007-.008c-.004-.004-.004-.004-.008-.004-.05-.047-.106-.09-.16-.137-.004-.004-.008-.004-.008-.007l-.168-.133c-.059-.043-.113-.09-.172-.133-.004-.004-.008-.004-.008-.008l-.347-.254c-.008-.004-.012-.004-.012-.008-.121-.082-.238-.164-.36-.242-.136-.086-.269-.172-.406-.25a10.959 10.959 0 0 0 -.87-.472l.01.007.028.016c-.035-.027-.066-.035-.039-.023a14.82 14.82 0 0 0 -.36-.168l.016.007c-.015-.007-.023-.011-.02-.011h-.003l-.164-.07a.085.085 0 0 1 -.02-.012l-.175-.07c-.059-.028-.121-.051-.18-.075-.008-.004-.012-.004-.016-.004-.054-.023-.113-.043-.168-.066-.004 0-.007 0-.015-.004a5.827 5.827 0 0 0 -.367-.129c-.004 0-.008-.004-.012-.004-.059-.02-.117-.039-.172-.055-.008-.003-.012-.003-.02-.007a6.358 6.358 0 0 0 -.402-.118c-.055-.015-.105-.03-.156-.043-.008-.003-.016-.003-.024-.007l-.187-.047c-.063-.012-.121-.028-.184-.043-.011 0-.027-.004-.043-.008-.05-.012-.101-.023-.152-.031-.008-.004-.02-.004-.027-.008l-.188-.035c-.008-.004-.004-.004-.004-.004h-.004a3.618 3.618 0 0 0 -.183-.031c-.012-.004-.024-.004-.035-.008a1.952 1.952 0 0 1 -.16-.028c-.012 0-.02 0-.032-.003-.062-.008-.129-.02-.191-.028-.008 0-.016 0-.02-.004-.054-.008-.113-.011-.168-.02-.015-.003-.027-.003-.043-.003a2.346 2.346 0 0 0 -.164-.02c-.008 0-.015-.004-.027-.004-.063-.007-.129-.011-.191-.015-.012-.004-.024-.004-.036-.004l-.156-.012c-.016-.004-.031-.004-.047-.004l-.187-.011c-.067-.004-.133-.008-.2-.008h-.035c-.054-.004-.109-.004-.168-.004-.011-.004-.023-.004-.03-.004h-.204c-.805 0-1.695-.164-2.473-.406-.78-.242-1.445-.575-1.77-.867-.007-.008-.01-.012-.019-.016-1.476-1.059-2.41-2.668-2.41-4.477 0-3.183 2.906-5.765 6.55-5.765h.138c.558 0 1.433.16 2.57.586 2.71.855 5.254 2.386 8.086 4.02.012.003.023.01.035.015.457.152.73.383 1.05.5.161.058.348.082.536.02.187-.063.367-.192.578-.4l-.016.013c.23-.184.372-.395.399-.622.027-.23-.059-.449-.2-.644-.277-.398-.784-.77-1.367-1.184 0 0-.003-.004-.007-.004l-4.93-3.125c-.27-.351-.305-.828-.18-1.207.067-.195.168-.359.293-.464a.54.54 0 0 1 .399-.153c.05.008.218.059.441.145.223.09.508.219.836.379.66.316 1.488.758 2.348 1.254 1.715 1 3.562 2.257 4.394 3.242.067.078.09.199.063.379a2.092 2.092 0 0 1 -.23.617 4.89 4.89 0 0 1 -.829 1.11c-.148.144-.246.3-.238.476s.137.312.289.383c.305.14.746.12 1.273-.055a.03.03 0 0 0 .016-.008c2.367-1.05 3.8-2.242 4.52-3.515.714-1.278.69-2.63.183-3.934-1-2.578-3.844-5.02-6.656-6.836-.094-3.805-1.637-6.414-3.262-7.371a.03.03 0 0 0 -.015-.008c-.54-.258-1.516-.664-2.336-.207-.41.23-.75.676-.942 1.402-.18.676-.234 1.61-.129 2.868a23.497 23.497 0 0 0 -5.117-1.168c-3.008-3.114-5.043-4.258-6.351-4.244zm9.808 30.493h-.004zm-9.8-30.118c1.077-.011 3.113 1.051 6.12 4.176.032.031.075.051.118.059 1.714.18 3.578.597 5.367 1.25.062.02.129.008.18-.031a.18.18 0 0 0 .07-.165c-.14-1.39-.078-2.363.097-3.023.172-.66.454-1 .762-1.172.613-.344 1.473-.031 1.985.215 1.464.867 3.007 3.395 3.074 7.148 0 .063.031.122.086.153 2.808 1.804 5.64 4.261 6.593 6.715.477 1.226.497 2.437-.164 3.613-.66 1.172-2.015 2.324-4.332 3.355-.464.153-.847.133-.992.067-.07-.035-.07-.047-.07-.063 0-.015.016-.082.121-.183.273-.258.64-.72.902-1.207.13-.243.23-.493.27-.735.039-.242.012-.492-.149-.68-.906-1.07-2.757-2.312-4.492-3.324a35.155 35.155 0 0 0 -2.37-1.265 14.697 14.697 0 0 0 -.86-.39c-.235-.095-.403-.153-.543-.169a.921.921 0 0 0 -.688.242c-.183.16-.316.383-.398.63-.164.495-.121 1.109.258 1.581a.115.115 0 0 0 .047.04l4.957 3.14c.574.41 1.058.785 1.273 1.09.11.152.145.277.133.383-.012.109-.078.23-.262.375-.004.004-.012.007-.016.015-.187.184-.328.274-.43.309a.412.412 0 0 1 -.288-.016c-.219-.078-.532-.32-1.04-.496-2.816-1.625-5.374-3.168-8.132-4.039v-.004c-1.172-.433-2.082-.61-2.711-.605h-.125c-3.82 0-6.926 2.73-6.926 6.14 0 1.938 1.004 3.66 2.567 4.782.406.359 1.093.687 1.894.937.813.254 1.734.422 2.586.422h.004c.062 0 .129 0 .191.004h.032c.054 0 .109 0 .168.004h.03c.063.004.13.004.192.008l.184.011a101471.513 101471.513 0 0 1 .2.016h.03c.063.008.125.012.188.02h-.004c.008 0 .02 0 .027.003.055.004.11.012.16.016.016.004.028.004.043.004l.164.023h.016c.063.012.125.02.188.028.007.004.015.004.027.004.055.011.105.02.16.027.008 0 .02.004.031.004.059.012.117.023.172.031.012.004.012.004 0 0 .004.004.008.004.012.004h-.004l.187.035c.008.004.016.004.028.008.047.008.097.02.148.031.016.004.028.008.043.008.059.016.113.027.172.043.063.016.125.027.184.047a.05.05 0 0 1 .023.004c.05.011.102.027.149.039l.042.012.352.105c.004 0 .008.004.016.004.058.02.113.035.168.055.004.004.007.004.011.004.121.039.239.082.356.124.004.004.008.004.015.008.055.02.11.04.165.063.007 0 .011.004.011.004l.176.07c.059.023.113.047.168.07.008.004.016.004.02.008l.164.07c.004.004.004.004.004 0 .117.055.23.11.343.165h.004c.176.085.344.175.512.265.11.063.223.125.328.192h.004c.133.078.262.16.39.242h-.003.004l.003.004c.118.074.23.152.348.234.004.004.008.004.012.008.113.082.226.164.336.246.004.004.008.004.008.008.058.043.113.086.168.129.054.043.109.086.16.129.004.003.008.003.008.007l.16.13.004.003s0 .004.007.008c.059.05.118.102.172.152.059.051.117.102.176.157.008.004.008.007.012.007-.004 0 0 .004.004.008l.164.153c.004.007.011.011.02.02.054.05.105.105.16.155l.003.004c.008.008.008.008 0 .004a49.459 49.459 0 0 0 .164.168c0-.004 0-.004.004 0 .055.059.11.117.16.176.008.004.008.008.012.008 0 0 0 .004.004.008l.148.164c.004.007.012.011.016.02.05.054.098.112.145.167l.004.004.007.008c.004.004.008.012.016.02l.133.163v-.004c.008.012.008.012 0 0l.004.004c.004.008.004.008 0 .004l.14.176a.048.048 0 0 0 .008.012c.004.004.004.008.008.012 0-.004 0 0 .008.007.043.055.086.114.129.168.008.012.011.024.02.032.042.058.085.113.124.171a.012.012 0 0 1 .004.008l.004.004c0-.004 0 0 .008.008.043.062.082.121.125.18.043.066.086.129.125.195.008.008.012.012.012.016l.011.015s0 .004.004.008c.04.059.074.117.11.176.007.008.007.012.011.015a4.537 4.537 0 0 1 .121.203l.004.004v-.003.007h.004c0 .004 0 .008.004.012.035.063.07.121.106.184.003.004.003.008.003.004l.008.011c.035.067.07.13.106.196.004.007.008.015.008.02.003.003.007.007.007.015l.008.008c.031.062.063.12.094.183l.008.016c-.004-.004-.004-.004.004.008v-.004c0 .004.004.011.007.023.032.063.063.121.094.184v.004c.004.007.008.011.008.015.004.004.004.012.012.024l.082.175v.004c.004.004.004.004.004.008.03.07.062.137.093.207a.117.117 0 0 0 .02.047c-.004-.004-.004-.004 0 .004.027.063.055.125.078.188.004.011.008.015.008.02v-.005c-.004-.012 0 .008.016.035l-.016-.027c0-.004 0-.004 0 0l.012.027c.023.063.047.121.07.18.012.031.02.04.016.031-.004 0-.008-.008-.008-.015 0 .004.004.007.004.011s.004.012.007.024c.024.058.043.117.067.18 0 .003.004.007.004.007.004.012.008.02.008.032v-.016c.004 0 .18-.047.18-.047v.188l-.18-.125.07.199c0 .008.004.011.004.011.004.012.008.02.008.032 0 0 .004 0 .004.008.02.066.042.128.062.19 0 .009.004.017.004.02 0 0 .004.004.004.012.004.004.004.012.008.024.02.062.035.125.054.187 0 .004.004.008.004.008v.004c0 .008.004.012.004.015.004.008.004.016.008.032.016.058.035.12.05.18v.007c.005.012.009.024.009.035h.003v.004-.004l.047.196c0 .011.004.015.004.015.004.016.008.028.008.043 0 0 0 .004.004.012v-.004c.016.066.027.129.043.195 0 .008.004.012.004.012 0 .012.004.024.008.035v.016c.015.059.027.121.039.184v.007c.004.012.004.02.008.028l-.004-.016c.004.05 0 .04 0-.02 0 .012 0 .024.004.036 0 .011.003.023.003.039.012.054.02.11.032.164 0 .008.004.015.004.02 0 .011.004.023.004.034l.003.008c.008.067.02.133.032.2v.011c.004.016.004.031.007.043v.012c.008.062.02.129.028.195v.016a.108.108 0 0 1 .004.035 2.686 2.686 0 0 1 .023.2c0 .01.004.023.004.027.016.171.031.336.04.5v-.004-.004.011c0 .016.003.032.003.047v.004c.004.07.008.145.008.219v.004c0 .008.004.023.004.035 0 .082.004.156.004.23v.165c-.004.804.004 1.296-.223 2.609a6.45 6.45 0 0 1 -.055.23c0 .008-.004.024-.008.04-.015.062-.035.124-.05.187-.004.02-.012.04-.016.063l-.047.164-.023.074c-.012.05-.028.101-.043.148l-.024.078c-.02.051-.035.106-.054.157-.008.023-.012.046-.02.066l-.066.188a3.516 3.516 0 0 1 -.184.469.228.228 0 0 1 -.023.058c-.02.05-.043.105-.067.156-.008.024-.02.043-.027.066-.023.051-.043.098-.066.145-.012.023-.024.047-.032.07-.023.047-.047.094-.066.141-.012.023-.024.05-.035.074-.028.047-.051.098-.074.145-.012.02-.02.039-.032.058l-.093.18c-.004.012-.012.02-.012.023-.04.07-.074.137-.113.204-.008.011-.016.027-.028.043-.027.05-.058.105-.086.152-.015.023-.027.047-.043.07-.027.043-.05.086-.078.13-.015.023-.027.046-.043.07-.027.038-.054.081-.082.124l-.047.07c-.023.04-.05.079-.078.118-.015.027-.035.05-.05.074a1.35 1.35 0 0 1 -.087.121c-.015.024-.027.047-.043.067-.042.058-.09.12-.132.18l-.016.023c-.039.05-.082.105-.121.16-.016.02-.035.039-.05.062-.032.04-.06.075-.09.11-.02.027-.044.054-.063.082l-.082.094c-.02.027-.043.054-.067.082-.027.03-.054.058-.078.09-.023.027-.047.054-.07.078l-.082.093a1.41 1.41 0 0 0 -.07.078c-.032.028-.059.059-.09.09-.024.028-.043.051-.067.075l-.148.152c-.027.023-.055.05-.082.078l-.078.078c-.032.027-.059.055-.09.082-.024.024-.05.05-.074.07a1.825 1.825 0 0 1 -.09.086c-.024.024-.05.043-.074.067l-.098.086-.07.058c-.032.032-.067.059-.098.086-.023.02-.047.04-.074.059a1.073 1.073 0 0 1 -.102.086c-.015.011-.031.023-.047.039-.097.074-.191.148-.289.222-.043.032-.086.067-.133.098a1.085 1.085 0 0 1 -.042.031c-.043.032-.086.063-.13.09a.474.474 0 0 1 -.054.04c-.04.03-.082.058-.125.085-.02.012-.04.028-.059.04l-.125.081c-.02.012-.039.028-.058.04l-.133.081-.035.024c-.223.137-.453.266-.688.39l-.023.012-.16.082c-.012.008-.028.012-.04.02-.05.027-.105.05-.156.078l-.039.016c-.054.027-.11.05-.16.078l-.031.011c-.309.141-.625.27-.95.383-.011 0-.019.004-.027.008l-.175.059-.036.011a9.823 9.823 0 0 1 -.203.067c-.066.02-.129.039-.191.054l-.008.004a11.762 11.762 0 0 1 -1.027.246c-.012 0-.016 0-.02.004-.691.13-1.402.2-2.129.207h-.152a11.688 11.688 0 0 1 -11.719-11.717 11.67 11.67 0 0 1 2.828-7.653 16.53 16.53 0 0 0 4.973 2.082 6.799 6.799 0 0 0 -2.887 5.57c0 3.766 3.04 6.801 6.805 6.801 3.766 0 6.8-3.035 6.8-6.8a6.792 6.792 0 0 0 -6.8-6.805 15.01 15.01 0 0 1 -7.875-2.211.51.51 0 0 1 -.059-.04c-.043-.026-.086-.05-.129-.077-.035-.024-.066-.047-.101-.067l-.172-.113a1.44 1.44 0 0 1 -.098-.066c-.047-.032-.093-.063-.136-.094-.047-.031-.09-.063-.133-.094a1.737 1.737 0 0 1 -.106-.074l-.16-.117-.094-.07-.152-.118-.102-.078a14.936 14.936 0 0 1 -2.64-2.683.184.184 0 0 0 -.25-.04c-.164.106-.645.41-1.203.653-.559.242-1.196.418-1.64.324a.785.785 0 0 1 -.532-.348c-.137-.195-.23-.504-.235-.96-.011-.919.336-2.426 1.29-4.735a.214.214 0 0 0 .007-.121c-.109-.402-.199-.809-.273-1.227a.184.184 0 0 0 -.207-.152c-.406.047-1.07.11-1.715.07-.644-.035-1.258-.18-1.555-.46a.7.7 0 0 1 -.23-.551c-.004-.246.09-.57.324-.992.477-.836 1.524-2.024 3.418-3.645a.212.212 0 0 0 .063-.102c.261-1.242.68-2.43 1.226-3.535a.187.187 0 0 0 .012-.144.213.213 0 0 0 -.102-.11c-1.156-.535-1.902-1.082-2.258-1.562-.18-.238-.257-.461-.261-.66-.008-.2.058-.39.21-.586.305-.39.977-.774 1.993-1.067 1.012-.293 2.367-.504 4.023-.593a.222.222 0 0 0 .114-.043 14.923 14.923 0 0 1 5.394-2.934.181.181 0 0 0 .125-.129.184.184 0 0 0 -.039-.176c-.851-.968-1.32-2.129-1.351-3.011-.016-.438.074-.805.257-1.051.184-.246.453-.39.875-.399zm8.484 6.93c-.64-.008-1.258.05-1.762.188-.504.136-.918.347-1.094.714a.204.204 0 0 0 .004.172c.028.051.082.086.14.098 2.305.328 3.59.648 5.223 1.629.497.297.875.406 1.184.344.309-.063.492-.336.523-.621.067-.57-.27-1.293-.84-1.692-.734-.547-2.097-.812-3.378-.832zm-.004.375c1.23.02 2.57.316 3.16.758.445.309.73.98.691 1.348-.023.183-.074.265-.23.296-.152.032-.457-.027-.914-.3-1.59-.953-2.91-1.309-5.02-1.625.149-.118.367-.227.653-.301.457-.125 1.047-.184 1.66-.176zm-1.762 21.8h.004zm-.004.376h.004zm4.133 1.656a.147.147 0 0 0 .031.02h-.004c-.015-.012-.03-.02-.027-.016zm4.078 4.516c0 .004.004.004.004.004zm.016.031c0 .004.004.008.004.012-.004-.004-.004-.008-.004-.012zm.777 1.145h.004zm.172.136v.004zm.004.043v.004zm.14.805h.004zm.051.016a.04.04 0 0 1 .012.003zm.11.16v.004zm-.375 0v.011-.004zm0 0" fill="#212121"/></svg>