<?xml version="1.0" encoding="UTF-8"?>
<svg xmlns="http://www.w3.org/2000/svg" xmlns:xlink="http://www.w3.org/1999/xlink" width="64px" height="64px" viewBox="0 0 64 64" version="1.1">
<defs>
<radialGradient id="radial0" gradientUnits="userSpaceOnUse" cx="450.908936" cy="189.579361" fx="450.908936" fy="189.579361" r="21.166656" gradientTransform="matrix(0.000000348341,-0.156265,-0.281277,-0.000000203077,89.046304,127.190659)">
<stop offset="0" style="stop-color:rgb(0%,0%,0%);stop-opacity:0.313726;"/>
<stop offset="0.222222" style="stop-color:rgb(0%,0%,0%);stop-opacity:0.27451;"/>
<stop offset="1" style="stop-color:rgb(0%,0%,0%);stop-opacity:0;"/>
</radialGradient>
<radialGradient id="radial1" gradientUnits="userSpaceOnUse" cx="450.908936" cy="189.579361" fx="450.908936" fy="189.579361" r="21.166656" gradientTransform="matrix(-0.000000348341,0.156265,0.281277,0.000000203077,-25.540237,-15.054964)">
<stop offset="0" style="stop-color:rgb(0%,0%,0%);stop-opacity:0.313726;"/>
<stop offset="0.222222" style="stop-color:rgb(0%,0%,0%);stop-opacity:0.27451;"/>
<stop offset="1" style="stop-color:rgb(0%,0%,0%);stop-opacity:0;"/>
</radialGradient>
<radialGradient id="radial2" gradientUnits="userSpaceOnUse" cx="450.908936" cy="189.579361" fx="450.908936" fy="189.579361" r="21.166656" gradientTransform="matrix(-0.000000348341,-0.156265,0.281277,-0.000000203077,-25.540237,127.190659)">
<stop offset="0" style="stop-color:rgb(0%,0%,0%);stop-opacity:0.313726;"/>
<stop offset="0.222222" style="stop-color:rgb(0%,0%,0%);stop-opacity:0.27451;"/>
<stop offset="1" style="stop-color:rgb(0%,0%,0%);stop-opacity:0;"/>
</radialGradient>
<radialGradient id="radial3" gradientUnits="userSpaceOnUse" cx="450.908936" cy="189.579361" fx="450.908936" fy="189.579361" r="21.166656" gradientTransform="matrix(0.000000348341,0.156265,-0.281277,0.000000203077,89.0463,-15.054965)">
<stop offset="0" style="stop-color:rgb(0%,0%,0%);stop-opacity:0.313726;"/>
<stop offset="0.222222" style="stop-color:rgb(0%,0%,0%);stop-opacity:0.27451;"/>
<stop offset="1" style="stop-color:rgb(0%,0%,0%);stop-opacity:0;"/>
</radialGradient>
<linearGradient id="linear0" gradientUnits="userSpaceOnUse" x1="255.323059" y1="233.5" x2="255.323044" y2="254.666656" gradientTransform="matrix(0.0267201,0,0,0.125012,24.930772,26.877567)">
<stop offset="0" style="stop-color:rgb(0%,0%,0%);stop-opacity:0.27451;"/>
<stop offset="1" style="stop-color:rgb(0%,0%,0%);stop-opacity:0;"/>
</linearGradient>
<linearGradient id="linear1" gradientUnits="userSpaceOnUse" x1="254" y1="-168.666672" x2="254" y2="233.5" gradientTransform="matrix(0.125012,0,0,0.125012,0.000000328156,26.877566)">
<stop offset="0" style="stop-color:rgb(38.039216%,38.039216%,38.039216%);stop-opacity:1;"/>
<stop offset="1" style="stop-color:rgb(25.882354%,25.882354%,25.882354%);stop-opacity:1;"/>
</linearGradient>
<linearGradient id="linear2" gradientUnits="userSpaceOnUse" x1="254" y1="326.307678" x2="254" y2="-261.474335" gradientTransform="matrix(0.0855345,0,0,0.0855345,10.027272,28.157291)">
<stop offset="0" style="stop-color:rgb(74.117649%,74.117649%,74.117649%);stop-opacity:1;"/>
<stop offset="1" style="stop-color:rgb(87.843138%,87.843138%,87.843138%);stop-opacity:1;"/>
</linearGradient>
</defs>
<g id="surface1">
<path style=" stroke:none;fill-rule:nonzero;fill:url(#radial0);" d="M 36.382812 56.066406 L 41.675781 56.066406 L 41.675781 53.421875 L 36.382812 53.421875 Z M 36.382812 56.066406 "/>
<path style=" stroke:none;fill-rule:nonzero;fill:url(#radial1);" d="M 27.121094 56.066406 L 21.832031 56.066406 L 21.832031 58.714844 L 27.121094 58.714844 Z M 27.121094 56.066406 "/>
<path style=" stroke:none;fill-rule:nonzero;fill:url(#radial2);" d="M 27.121094 56.066406 L 21.832031 56.066406 L 21.832031 53.421875 L 27.121094 53.421875 Z M 27.121094 56.066406 "/>
<path style=" stroke:none;fill-rule:nonzero;fill:url(#radial3);" d="M 36.382812 56.066406 L 41.675781 56.066406 L 41.675781 58.714844 L 36.382812 58.714844 Z M 36.382812 56.066406 "/>
<path style=" stroke:none;fill-rule:nonzero;fill:url(#linear0);" d="M 27.121094 55.40625 L 36.382812 55.40625 L 36.382812 58.714844 L 27.121094 58.714844 Z M 27.121094 55.40625 "/>
<path style=" stroke:none;fill-rule:nonzero;fill:url(#linear1);" d="M 31.753906 5.792969 C 45.636719 5.792969 56.890625 17.046875 56.890625 30.929688 C 56.890625 44.8125 45.636719 56.066406 31.753906 56.066406 C 17.871094 56.066406 6.613281 44.8125 6.613281 30.929688 C 6.613281 17.046875 17.871094 5.792969 31.753906 5.792969 Z M 31.753906 5.792969 "/>
<path style=" stroke:none;fill-rule:nonzero;fill:rgb(0%,0%,0%);fill-opacity:0.196078;" d="M 31.753906 56.066406 C 17.828125 56.066406 6.613281 44.855469 6.613281 30.929688 C 6.613281 30.847656 6.617188 30.765625 6.617188 30.683594 C 6.746094 44.496094 17.910156 55.574219 31.753906 55.574219 C 45.597656 55.574219 56.757812 44.496094 56.890625 30.683594 C 56.890625 30.765625 56.890625 30.847656 56.890625 30.929688 C 56.890625 44.855469 45.679688 56.066406 31.753906 56.066406 Z M 31.753906 56.066406 "/>
<path style=" stroke:none;fill-rule:nonzero;fill:rgb(100%,100%,100%);fill-opacity:0.392157;" d="M 31.753906 5.792969 C 17.828125 5.792969 6.613281 17.003906 6.613281 30.929688 C 6.613281 31.035156 6.617188 31.140625 6.617188 31.242188 C 6.800781 17.480469 17.941406 6.453125 31.753906 6.453125 C 45.5625 6.453125 56.703125 17.480469 56.886719 31.242188 C 56.890625 31.140625 56.890625 31.035156 56.890625 30.929688 C 56.890625 17.003906 45.679688 5.792969 31.753906 5.792969 Z M 31.753906 5.792969 "/>
<path style="fill:none;stroke-width:3;stroke-linecap:round;stroke-linejoin:miter;stroke:rgb(20%,20%,20%);stroke-opacity:1;stroke-miterlimit:4;" d="M 254.006994 -168.660675 C 365.058889 -168.660675 455.081542 -78.638022 455.081542 32.413873 C 455.081542 143.465768 365.058889 233.488421 254.006994 233.488421 C 142.955098 233.488421 52.901198 143.465768 52.901198 32.413873 C 52.901198 -78.638022 142.955098 -168.660675 254.006994 -168.660675 Z M 254.006994 -168.660675 " transform="matrix(0.125012,0,0,0.125012,0,26.877566)"/>
<path style=" stroke:none;fill-rule:nonzero;fill:url(#linear2);" d="M 33.738281 9.761719 L 29.769531 11.746094 L 29.769531 13.84375 C 21.832031 14.746094 15.570312 21.007812 14.664062 28.945312 L 10.585938 28.945312 L 12.570312 32.914062 L 14.664062 32.914062 C 15.570312 40.851562 21.832031 47.113281 29.769531 48.015625 L 29.769531 50.105469 L 33.738281 52.089844 L 33.738281 48.015625 C 41.894531 47.089844 48.28125 40.5 48.902344 32.253906 L 50.9375 32.253906 L 52.921875 28.285156 L 48.75 28.285156 C 47.585938 20.664062 41.453125 14.722656 33.738281 13.84375 Z M 29.769531 17.847656 L 29.769531 21.667969 L 33.738281 21.667969 L 33.738281 17.847656 C 39.25 18.667969 43.628906 22.867188 44.722656 28.285156 L 41.015625 28.285156 L 41.015625 32.253906 L 44.917969 32.253906 C 44.324219 38.300781 39.691406 43.125 33.738281 44.015625 L 33.738281 40.191406 L 29.769531 40.191406 L 29.769531 44.015625 C 24.035156 43.160156 19.523438 38.648438 18.667969 32.914062 L 22.492188 32.914062 L 22.492188 28.945312 L 18.667969 28.945312 C 19.523438 23.210938 24.035156 18.703125 29.769531 17.847656 Z M 29.769531 17.847656 "/>
<path style=" stroke:none;fill-rule:nonzero;fill:rgb(100%,100%,100%);fill-opacity:1;" d="M 33.738281 9.761719 L 29.769531 11.746094 L 29.769531 12.40625 L 33.738281 10.421875 Z M 29.769531 13.84375 C 21.832031 14.746094 15.570312 21.007812 14.664062 28.945312 L 10.585938 28.945312 L 10.914062 29.605469 L 14.664062 29.605469 C 15.570312 21.671875 21.832031 15.40625 29.769531 14.503906 Z M 33.738281 13.84375 L 33.738281 14.503906 C 41.453125 15.382812 47.585938 21.324219 48.75 28.945312 L 52.589844 28.945312 L 52.921875 28.285156 L 48.75 28.285156 C 47.585938 20.664062 41.453125 14.722656 33.738281 13.84375 Z M 41.015625 28.285156 L 41.015625 28.945312 L 44.722656 28.945312 C 44.675781 28.722656 44.625 28.503906 44.570312 28.285156 Z M 18.785156 28.945312 C 18.742188 29.164062 18.703125 29.382812 18.667969 29.605469 L 22.492188 29.605469 L 22.492188 28.945312 Z M 44.835938 32.914062 C 43.980469 38.648438 39.472656 43.160156 33.738281 44.015625 L 33.738281 44.675781 C 39.691406 43.789062 44.324219 38.960938 44.917969 32.914062 Z M 18.667969 33.574219 C 19.523438 39.3125 24.035156 43.820312 29.769531 44.675781 L 29.769531 44.015625 C 24.257812 43.191406 19.878906 38.992188 18.785156 33.574219 Z M 29.769531 40.191406 L 29.769531 40.851562 L 33.738281 40.851562 L 33.738281 40.191406 Z M 29.769531 40.191406 "/>
<path style=" stroke:none;fill-rule:nonzero;fill:rgb(0%,0%,0%);fill-opacity:0.235294;" d="M 29.769531 17.847656 C 24.035156 18.703125 19.523438 23.210938 18.667969 28.945312 L 18.902344 28.945312 C 20.15625 23.777344 24.433594 19.820312 29.769531 19.023438 Z M 33.738281 17.847656 L 33.738281 19.023438 C 38.84375 19.785156 42.976562 23.441406 44.425781 28.285156 L 44.722656 28.285156 C 43.628906 22.867188 39.25 18.667969 33.738281 17.847656 Z M 29.769531 21.667969 L 29.769531 22.84375 L 33.738281 22.84375 L 33.738281 21.667969 Z M 52.332031 29.460938 L 50.9375 32.253906 L 48.902344 32.253906 C 48.28125 40.5 41.894531 47.089844 33.738281 48.015625 L 33.738281 49.195312 C 41.894531 48.265625 48.28125 41.675781 48.902344 33.429688 L 50.9375 33.429688 L 52.921875 29.460938 Z M 10.585938 30.121094 L 12.570312 34.089844 L 14.664062 34.089844 C 15.570312 42.027344 21.832031 48.289062 29.769531 49.195312 L 29.769531 48.015625 C 21.832031 47.113281 15.570312 40.851562 14.664062 32.914062 L 12.570312 32.914062 L 11.171875 30.121094 Z M 41.015625 32.253906 L 41.015625 33.429688 L 44.75 33.429688 C 44.824219 33.042969 44.878906 32.652344 44.917969 32.253906 Z M 18.667969 32.914062 C 18.730469 33.3125 18.804688 33.707031 18.898438 34.089844 L 22.492188 34.089844 L 22.492188 32.914062 Z M 29.769531 50.105469 L 29.769531 51.28125 L 33.738281 53.265625 L 33.738281 52.089844 Z M 29.769531 50.105469 "/>
<path style="fill:none;stroke-width:11.338583;stroke-linecap:round;stroke-linejoin:miter;stroke:rgb(12.941177%,12.941177%,12.941177%);stroke-opacity:1;stroke-miterlimit:4;" d="M 1020.020757 295.129312 L 900.032209 355.123586 L 900.032209 418.54273 C 660.055113 445.823591 470.742473 635.136231 443.343513 875.113327 L 320.048194 875.113327 L 380.042468 995.101875 L 443.343513 995.101875 C 470.742473 1235.078971 660.055113 1424.391611 900.032209 1451.672472 L 900.032209 1514.855418 L 1020.020757 1574.849692 L 1020.020757 1451.672472 C 1266.611395 1423.683018 1459.703202 1224.450064 1478.480937 975.14315 L 1540.010498 975.14315 L 1600.004772 855.154602 L 1473.875077 855.154602 C 1438.681586 624.743522 1253.266212 445.114997 1020.020757 418.54273 Z M 900.032209 539.594169 L 900.032209 655.094956 L 1020.020757 655.094956 L 1020.020757 539.594169 C 1186.658396 564.394952 1319.047335 691.351338 1352.115045 855.154602 L 1240.039128 855.154602 L 1240.039128 975.14315 L 1358.019993 975.14315 C 1340.068951 1157.960347 1200.003579 1303.812569 1020.020757 1330.739132 L 1020.020757 1215.120246 L 900.032209 1215.120246 L 900.032209 1330.739132 C 726.662929 1304.875459 590.258625 1168.471155 564.394952 995.101875 L 680.013838 995.101875 L 680.013838 875.113327 L 564.394952 875.113327 C 590.258625 701.744047 726.662929 565.457842 900.032209 539.594169 Z M 900.032209 539.594169 " transform="matrix(0.0330761,0,0,0.0330761,0,0)"/>
</g>
</svg>
