<?xml version="1.0" encoding="UTF-8"?>
<svg xmlns="http://www.w3.org/2000/svg" xmlns:xlink="http://www.w3.org/1999/xlink" width="64pt" height="64pt" viewBox="0 0 64 64" version="1.1">
<defs>
<radialGradient id="radial0" gradientUnits="userSpaceOnUse" cx="450.908936" cy="189.579361" fx="450.908936" fy="189.579361" r="21.166656" gradientTransform="matrix(0.000000348341,-0.156265,-0.281277,-0.000000203077,100.292173,127.190665)">
<stop offset="0" style="stop-color:rgb(0%,0%,0%);stop-opacity:0.313725;"/>
<stop offset="0.222222" style="stop-color:rgb(0%,0%,0%);stop-opacity:0.27451;"/>
<stop offset="1" style="stop-color:rgb(0%,0%,0%);stop-opacity:0;"/>
</radialGradient>
<radialGradient id="radial1" gradientUnits="userSpaceOnUse" cx="450.908936" cy="189.579361" fx="450.908936" fy="189.579361" r="21.166656" gradientTransform="matrix(-0.000000348341,0.156265,0.281277,0.000000203077,-5.033073,-15.054958)">
<stop offset="0" style="stop-color:rgb(0%,0%,0%);stop-opacity:0.313725;"/>
<stop offset="0.222222" style="stop-color:rgb(0%,0%,0%);stop-opacity:0.27451;"/>
<stop offset="1" style="stop-color:rgb(0%,0%,0%);stop-opacity:0;"/>
</radialGradient>
<radialGradient id="radial2" gradientUnits="userSpaceOnUse" cx="450.908936" cy="189.579361" fx="450.908936" fy="189.579361" r="21.166656" gradientTransform="matrix(-0.000000348341,-0.156265,0.281277,-0.000000203077,-5.033073,127.190665)">
<stop offset="0" style="stop-color:rgb(0%,0%,0%);stop-opacity:0.313725;"/>
<stop offset="0.222222" style="stop-color:rgb(0%,0%,0%);stop-opacity:0.27451;"/>
<stop offset="1" style="stop-color:rgb(0%,0%,0%);stop-opacity:0;"/>
</radialGradient>
<radialGradient id="radial3" gradientUnits="userSpaceOnUse" cx="450.908936" cy="189.579361" fx="450.908936" fy="189.579361" r="21.166656" gradientTransform="matrix(0.000000348341,0.156265,-0.281277,0.000000203077,100.292169,-15.054959)">
<stop offset="0" style="stop-color:rgb(0%,0%,0%);stop-opacity:0.313725;"/>
<stop offset="0.222222" style="stop-color:rgb(0%,0%,0%);stop-opacity:0.27451;"/>
<stop offset="1" style="stop-color:rgb(0%,0%,0%);stop-opacity:0;"/>
</radialGradient>
<linearGradient id="linear0" gradientUnits="userSpaceOnUse" x1="254" y1="233.5" x2="254" y2="-147.5" >
<stop offset="0" style="stop-color:rgb(39.215686%,70.980392%,96.470588%);stop-opacity:1;"/>
<stop offset="1" style="stop-color:rgb(56.470588%,79.215686%,97.647059%);stop-opacity:1;"/>
</linearGradient>
<linearGradient id="linear1" gradientUnits="userSpaceOnUse" x1="349.25" y1="233.5" x2="349.25" y2="-147.5" gradientTransform="matrix(0.125012,0,0,0.125012,0,26.877566)">
<stop offset="0" style="stop-color:rgb(56.470588%,79.215686%,97.647059%);stop-opacity:1;"/>
<stop offset="1" style="stop-color:rgb(73.333333%,87.058824%,98.431373%);stop-opacity:1;"/>
</linearGradient>
</defs>
<g id="surface1">
<path style=" stroke:none;fill-rule:nonzero;fill:url(#radial0);" d="M 47.628906 56.066406 L 52.921875 56.066406 L 52.921875 53.421875 L 47.628906 53.421875 Z M 47.628906 56.066406 "/>
<path style=" stroke:none;fill-rule:nonzero;fill:url(#radial1);" d="M 47.628906 56.066406 L 42.335938 56.066406 L 42.335938 58.714844 L 47.628906 58.714844 Z M 47.628906 56.066406 "/>
<path style=" stroke:none;fill-rule:nonzero;fill:url(#radial2);" d="M 47.628906 56.066406 L 42.335938 56.066406 L 42.335938 53.421875 L 47.628906 53.421875 Z M 47.628906 56.066406 "/>
<path style=" stroke:none;fill-rule:nonzero;fill:url(#radial3);" d="M 47.628906 56.066406 L 52.921875 56.066406 L 52.921875 58.714844 L 47.628906 58.714844 Z M 47.628906 56.066406 "/>
<path style="fill-rule:nonzero;fill:url(#linear0);stroke-width:3.267419;stroke-linecap:butt;stroke-linejoin:miter;stroke:rgb(12.941177%,12.941177%,12.941177%);stroke-opacity:1;stroke-miterlimit:4;" d="M 211.667287 183.24322 C 206.386541 183.24322 205.042919 183.24322 201.074548 169.994485 L 179.920318 85.346318 L 433.927312 -136.913707 C 414.960373 -9.175905 211.667287 180.587223 211.667287 183.24322 Z M 211.667287 183.24322 " transform="matrix(0.125012,0,0,0.125012,0,26.877566)"/>
<path style=" stroke:none;fill-rule:nonzero;fill:rgb(0%,0%,0%);fill-opacity:0.235294;" d="M 54.246094 9.761719 L 53.726562 10.214844 C 49.40625 26.050781 26.460938 47.484375 26.460938 47.796875 C 25.800781 47.796875 25.632812 47.796875 25.136719 46.144531 L 22.898438 37.1875 L 22.492188 37.546875 L 25.136719 48.128906 C 25.632812 49.785156 25.800781 49.785156 26.460938 49.785156 C 26.460938 49.453125 51.875 25.730469 54.246094 9.761719 Z M 54.246094 9.761719 "/>
<path style=" stroke:none;fill-rule:nonzero;fill:rgb(66.274512%,78.823531%,86.666667%);fill-opacity:1;" d="M 26.460938 49.785156 C 27.949219 49.949219 31.089844 45.484375 33.074219 42.835938 L 30.429688 41.515625 C 29.105469 44.820312 28.445312 47.46875 26.460938 49.785156 Z M 26.460938 49.785156 "/>
<path style=" stroke:none;fill-rule:nonzero;fill:rgb(0%,0%,0%);fill-opacity:0.235294;" d="M 32.714844 42.65625 C 30.992188 44.976562 28.605469 48.253906 27.089844 48.980469 C 26.894531 49.253906 26.6875 49.519531 26.460938 49.785156 C 27.949219 49.949219 31.089844 45.484375 33.074219 42.835938 Z M 32.714844 42.65625 "/>
<path style=" stroke:none;fill-rule:nonzero;fill:rgb(12.941177%,12.941177%,12.941177%);fill-opacity:1;" d="M 30.332031 41.253906 L 30.253906 41.445312 C 28.929688 44.765625 28.269531 47.382812 26.320312 49.660156 L 26.085938 49.929688 L 26.441406 49.96875 C 26.910156 50.023438 27.410156 49.734375 27.960938 49.285156 C 28.511719 48.835938 29.109375 48.203125 29.726562 47.488281 C 30.953125 46.050781 32.234375 44.269531 33.226562 42.949219 L 33.359375 42.769531 Z M 30.53125 41.773438 L 32.792969 42.90625 C 31.816406 44.210938 30.601562 45.882812 29.441406 47.242188 C 28.832031 47.953125 28.246094 48.570312 27.726562 48.996094 C 27.421875 49.242188 27.152344 49.40625 26.917969 49.5 C 28.644531 47.292969 29.335938 44.796875 30.53125 41.773438 Z M 30.53125 41.773438 "/>
<path style=" stroke:none;fill-rule:nonzero;fill:url(#linear1);" d="M 30.429688 41.515625 L 46 55.164062 C 48.253906 56.40625 49.878906 55.761719 50.441406 53.070312 L 56.890625 11.746094 C 57.550781 7.777344 53.582031 8.4375 52.261719 9.101562 L 7.855469 29.566406 C 4.628906 30.859375 4.648438 32.65625 7.265625 33.457031 L 22.492188 37.546875 L 48.953125 15.054688 C 49.613281 14.390625 54.90625 10.421875 51.597656 15.054688 Z M 30.429688 41.515625 "/>
<path style=" stroke:none;fill-rule:nonzero;fill:rgb(100%,100%,100%);fill-opacity:0.392157;" d="M 54.480469 8.601562 C 53.625 8.605469 52.757812 8.851562 52.261719 9.101562 L 7.855469 29.566406 C 5.78125 30.398438 5.050781 31.4375 5.484375 32.289062 C 5.765625 31.695312 6.542969 31.085938 7.855469 30.558594 L 52.261719 10.09375 C 53.414062 9.515625 56.585938 8.9375 56.933594 11.441406 C 57.183594 9.210938 55.847656 8.59375 54.480469 8.601562 Z M 52.445312 13.832031 C 52.429688 13.832031 52.40625 13.835938 52.386719 13.835938 C 52.214844 14.152344 51.957031 14.550781 51.597656 15.054688 L 30.429688 41.515625 L 30.898438 41.921875 L 51.597656 16.046875 C 52.789062 14.382812 52.867188 13.828125 52.445312 13.832031 Z M 52.445312 13.832031 "/>
<path style=" stroke:none;fill-rule:nonzero;fill:rgb(12.941177%,12.941177%,12.941177%);fill-opacity:1;" d="M 54.480469 8.410156 C 53.589844 8.410156 52.707031 8.667969 52.175781 8.933594 L 7.773438 29.398438 L 7.785156 29.394531 C 6.964844 29.722656 6.34375 30.085938 5.910156 30.46875 C 5.476562 30.851562 5.226562 31.261719 5.183594 31.679688 C 5.140625 32.097656 5.324219 32.5 5.671875 32.832031 C 6.023438 33.160156 6.539062 33.433594 7.210938 33.636719 L 7.214844 33.640625 L 22.539062 37.75 L 49.078125 15.191406 L 49.085938 15.1875 C 49.230469 15.042969 49.6875 14.664062 50.222656 14.273438 C 50.753906 13.886719 51.371094 13.476562 51.847656 13.238281 C 52.085938 13.117188 52.292969 13.042969 52.410156 13.03125 C 52.46875 13.023438 52.496094 13.035156 52.496094 13.035156 C 52.492188 13.03125 52.484375 13.011719 52.488281 13.035156 C 52.496094 13.082031 52.457031 13.292969 52.292969 13.613281 C 52.132812 13.929688 51.855469 14.371094 51.449219 14.941406 L 30.171875 41.539062 L 30.304688 41.65625 L 45.890625 55.316406 L 45.910156 55.328125 C 47.066406 55.964844 48.101562 56.140625 48.933594 55.761719 C 49.765625 55.386719 50.339844 54.488281 50.625 53.109375 L 50.625 53.105469 L 57.074219 11.777344 C 57.074219 11.777344 57.074219 11.777344 57.074219 11.773438 C 57.246094 10.753906 57.121094 10 56.792969 9.464844 C 56.460938 8.929688 55.933594 8.636719 55.363281 8.503906 C 55.074219 8.4375 54.777344 8.410156 54.480469 8.410156 Z M 54.480469 8.789062 C 54.753906 8.789062 55.027344 8.8125 55.277344 8.867188 C 55.78125 8.984375 56.203125 9.226562 56.472656 9.664062 C 56.742188 10.101562 56.867188 10.75 56.707031 11.714844 L 50.257812 53.035156 C 49.984375 54.347656 49.464844 55.113281 48.777344 55.421875 C 48.097656 55.730469 47.195312 55.605469 46.105469 55.003906 L 30.6875 41.492188 L 51.75 15.167969 L 51.75 15.164062 C 52.167969 14.578125 52.453125 14.128906 52.628906 13.78125 C 52.804688 13.433594 52.894531 13.199219 52.859375 12.980469 C 52.84375 12.867188 52.773438 12.757812 52.671875 12.703125 C 52.574219 12.648438 52.46875 12.644531 52.367188 12.65625 C 52.164062 12.679688 51.9375 12.773438 51.679688 12.902344 C 51.164062 13.160156 50.542969 13.574219 50 13.972656 C 49.457031 14.367188 49.007812 14.734375 48.820312 14.921875 L 48.832031 14.910156 L 22.445312 37.339844 L 7.320312 33.277344 C 6.683594 33.085938 6.21875 32.832031 5.929688 32.558594 C 5.640625 32.285156 5.527344 32.007812 5.558594 31.714844 C 5.585938 31.421875 5.769531 31.089844 6.160156 30.75 C 6.546875 30.40625 7.132812 30.058594 7.921875 29.742188 L 7.929688 29.738281 L 52.339844 9.269531 L 52.34375 9.265625 C 52.808594 9.035156 53.660156 8.796875 54.480469 8.789062 Z M 54.480469 8.789062 "/>
<path style=" stroke:none;fill-rule:nonzero;fill:rgb(0%,0%,0%);fill-opacity:0.235294;" d="M 56.871094 10.132812 L 50.441406 51.328125 C 49.878906 54.023438 48.253906 54.664062 46 53.421875 L 31.25 40.492188 L 30.429688 41.515625 L 46 55.164062 C 48.253906 56.40625 49.878906 55.761719 50.441406 53.070312 L 56.890625 11.746094 C 57 11.089844 56.980469 10.558594 56.871094 10.132812 Z M 50.277344 13.070312 L 22.492188 35.804688 L 7.265625 31.71875 C 6.574219 31.503906 6.0625 31.222656 5.746094 30.898438 C 4.902344 31.898438 5.476562 32.910156 7.265625 33.457031 L 22.492188 37.546875 L 48.953125 15.054688 C 49.285156 14.722656 51.929688 13.230469 52.921875 12.738281 C 53.328125 11.15625 50.980469 12.371094 50.277344 13.070312 Z M 50.277344 13.070312 "/>
</g>
</svg>
