<svg height="64" viewBox="0 0 64 64" width="64" xmlns="http://www.w3.org/2000/svg" xmlns:xlink="http://www.w3.org/1999/xlink"><linearGradient id="a" gradientUnits="userSpaceOnUse" x1="31.75304" x2="31.75304" y1="56.067872" y2="58.71396000006"><stop offset="0" stop-opacity=".27451"/><stop offset="1" stop-opacity="0"/></linearGradient><linearGradient id="b"><stop offset="0" stop-opacity=".313726"/><stop offset=".222222" stop-opacity=".27451"/><stop offset="1" stop-opacity="0"/></linearGradient><radialGradient id="c" cx="450.908936" cy="189.579361" gradientTransform="matrix(.00000035 -.156265 -.281277 -.0000002 104.261296 127.190665)" gradientUnits="userSpaceOnUse" r="21.166656" xlink:href="#b"/><radialGradient id="d" cx="450.908936" cy="189.579361" gradientTransform="matrix(-.00000035 .156265 .281277 .0000002 -40.755227 -15.054958)" gradientUnits="userSpaceOnUse" r="21.166656" xlink:href="#b"/><radialGradient id="e" cx="450.908936" cy="189.579361" gradientTransform="matrix(-.00000035 -.156265 .281277 -.0000002 -40.755227 127.190665)" gradientUnits="userSpaceOnUse" r="21.166656" xlink:href="#b"/><radialGradient id="f" cx="450.908936" cy="189.579361" gradientTransform="matrix(.00000035 .156265 -.281277 .0000002 104.261293 -15.054959)" gradientUnits="userSpaceOnUse" r="21.166656" xlink:href="#b"/><linearGradient id="g" gradientUnits="userSpaceOnUse" x1="21.16869799994" x2="21.16869799994" y1="56.067868" y2="5.79221000013"><stop offset="0" stop-color="#9ccc65"/><stop offset="1" stop-color="#aed581"/></linearGradient><linearGradient id="h"><stop offset="0" stop-color="#424242"/><stop offset="1" stop-color="#616161"/></linearGradient><linearGradient id="i" gradientUnits="userSpaceOnUse" x1="22.28286573678" x2="22.28286573678" xlink:href="#h" y1="53.4218165" y2="8.43826952643"/><linearGradient id="j" gradientUnits="userSpaceOnUse" x1="31.75304612482" x2="31.75304987518" xlink:href="#h" y1="56.067868" y2="5.79220799994"/><path d="m11.90625 55.871094h39.691406v2.941406h-39.691406zm0 0" fill="url(#a)"/><path d="m51.597656 56.066406h5.292969v-2.644531h-5.292969zm0 0" fill="url(#c)"/><path d="m11.90625 56.066406h-5.292969v2.648438h5.292969zm0 0" fill="url(#d)"/><path d="m11.90625 56.066406h-5.292969v-2.644531h5.292969zm0 0" fill="url(#e)"/><path d="m51.597656 56.066406h5.292969v2.648438h-5.292969zm0 0" fill="url(#f)"/><path d="m9.261719 5.792969h44.984375c1.460937 0 2.644531 1.183593 2.644531 2.644531v44.984375c0 1.460937-1.183594 2.644531-2.644531 2.644531h-44.984375c-1.460938 0-2.648438-1.183594-2.648438-2.644531v-44.984375c0-1.460938 1.1875-2.644531 2.648438-2.644531zm0 0" fill="url(#g)"/><path d="m28.148438 12.753906c-2.441407.480469-4.710938 1.433594-6.703126 2.765625.523438 1.410157.214844 3.050781-.917968 4.183594-1.136719 1.136719-2.777344 1.441406-4.183594.917969-1.332031 1.996094-2.289062 4.261718-2.765625 6.707031 1.359375.625 2.296875 2 2.296875 3.601563 0 1.601562-.9375 2.976562-2.296875 3.605468.476563 2.441406 1.433594 4.710938 2.765625 6.703125.441406-.164062.910156-.246093 1.375-.246093 1.015625 0 2.03125.386718 2.808594 1.164062 1.132812 1.136719 1.441406 2.777344.917968 4.183594 1.992188 1.332031 4.261719 2.285156 6.703126 2.765625.628906-1.359375 2.003906-2.300781 3.605468-2.300781 1.601563 0 2.972656.941406 3.601563 2.300781 2.445312-.480469 4.710937-1.433594 6.703125-2.765625-.519532-1.40625-.214844-3.046875.921875-4.183594.777343-.777344 1.789062-1.164062 2.804687-1.164062.46875 0 .933594.082031 1.378906.246093 1.332032-1.992187 2.285157-4.261719 2.765626-6.703125-1.359376-.628906-2.300782-2.003906-2.300782-3.605468 0-1.601563.941406-2.976563 2.300782-3.601563-.480469-2.445313-1.433594-4.710937-2.765626-6.707031-1.410156.523437-3.050781.21875-4.183593-.917969-1.136719-1.132813-1.441407-2.773437-.921875-4.183594-1.992188-1.332031-4.257813-2.285156-6.703125-2.765625-.628907 1.359375-2 2.300782-3.601563 2.300782-1.601562 0-2.976562-.941407-3.605468-2.300782zm0 0" fill-opacity=".098039"/><path d="m9.261719 5.792969c-1.464844 0-2.648438 1.179687-2.648438 2.644531v.332031c0-1.464843 1.183594-2.648437 2.648438-2.648437h44.984375c1.464844 0 2.644531 1.183594 2.644531 2.648437v-.332031c0-1.464844-1.179687-2.644531-2.644531-2.644531zm0 0" fill="#e6e6e6" fill-opacity=".392157"/><path d="m9.261719 56.066406c-1.464844 0-2.648438-1.179687-2.648438-2.644531v-.332031c0 1.46875 1.183594 2.648437 2.648438 2.648437h44.984375c1.464844 0 2.644531-1.179687 2.644531-2.648437v.332031c0 1.464844-1.179687 2.644531-2.644531 2.644531zm0 0" fill-opacity=".196078"/><path d="m74.086675-168.660675h359.840637c11.686384 0 21.15423 9.467846 21.15423 21.15423v359.840637c0 11.686384-9.467846 21.154229-21.15423 21.154229h-359.840637c-11.686384 0-21.185477-9.467845-21.185477-21.154229v-359.840637c0-11.686384 9.499093-21.15423 21.185477-21.15423zm0 0" fill="none" stroke="#212121" stroke-linecap="round" stroke-width="3" transform="matrix(.125012 0 0 .125012 0 26.877566)"/><path d="m10.585938 8.4375c-.734376 0-1.324219.589844-1.324219 1.324219v42.335937c0 .734375.589843 1.324219 1.324219 1.324219h42.335937c.734375 0 1.324219-.589844 1.324219-1.324219v-42.335937c0-.734375-.589844-1.324219-1.324219-1.324219zm.660156 1.324219h41.015625c.363281 0 .660156.292969.660156.660156v41.015625c0 .367188-.296875.660156-.660156.660156h-41.015625c-.367188 0-.660156-.292968-.660156-.660156v-41.015625c0-.367187.292968-.660156.660156-.660156zm0 0" fill="url(#i)"/><path d="m10.585938 8.4375c-.734376 0-1.324219.589844-1.324219 1.324219v.445312c0-.734375.589843-1.324219 1.324219-1.324219h42.335937c.734375 0 1.324219.589844 1.324219 1.324219v-.445312c0-.734375-.589844-1.324219-1.324219-1.324219zm0 43v.445312c0 .367188.292968.660157.660156.660157h41.015625c.363281 0 .660156-.292969.660156-.660157v-.445312c0 .367188-.296875.660156-.660156.660156h-41.015625c-.367188 0-.660156-.292968-.660156-.660156zm0 0" fill="#fff" fill-opacity=".392157"/><path d="m11.246094 9.785156c-.367188 0-.660156.292969-.660156.660156v.742188c0-.367188.292968-.660156.660156-.660156h41.015625c.363281 0 .660156.292968.660156.660156v-.742188c0-.367187-.296875-.660156-.660156-.660156zm-1.984375 42.335938v.742187c0 .734375.589843 1.324219 1.324219 1.324219h42.335937c.734375 0 1.324219-.589844 1.324219-1.324219v-.742187c0 .734375-.589844 1.324218-1.324219 1.324218h-42.335937c-.734376 0-1.324219-.589843-1.324219-1.324218zm0 0" fill-opacity=".235294"/><path d="m320.048194 255.093763c-22.202605 0-40.035549 17.832944-40.035549 40.035549v1279.956578c0 22.202605 17.832944 40.035549 40.035549 40.035549h1279.956578c22.202605 0 40.035549-17.832944 40.035549-40.035549v-1279.956578c0-22.202605-17.832944-40.035549-40.035549-40.035549zm19.958725 40.035549h1240.039128c10.983203 0 19.958725 8.857423 19.958725 19.958725v1240.039128c0 11.101303-8.975522 19.958725-19.958725 19.958725h-1240.039128c-11.101303 0-19.958725-8.857422-19.958725-19.958725v-1240.039128c0-11.101302 8.857422-19.958725 19.958725-19.958725zm0 0" fill="none" stroke="#212121" stroke-linecap="round" stroke-width="11.338583" transform="scale(.0330761)"/><path d="m39.03125 18.328125c-1.269531-.734375-2.882812-.304687-3.617188.964844-.730468 1.269531-.300781 2.882812.96875 3.617187 1.269532.730469 2.882813.300782 3.617188-.96875.730469-1.269531.300781-2.882812-.96875-3.613281zm-5.296875 2.199219c-2.199219-.425782-4.453125-.128906-6.445313.796875l2 3.460937c1.816407-.730468 3.9375-.644531 5.773438.414063 1.832031 1.0625 2.96875 2.855469 3.246094 4.792969h3.996094c-.195313-2.1875-1.066407-4.289063-2.53125-5.980469-1.199219.730469-2.746094.796875-4.050782.042969-1.304687-.753907-2.019531-2.125-1.988281-3.527344zm-8.070313 1.734375c-1.21875.859375-2.277343 1.992187-3.078124 3.375-.339844.589843-.617188 1.195312-.832032 1.8125.023438.011719.046875.023437.066406.039062 1.191407.683594 1.992188 1.964844 1.992188 3.445313 0 1.503906-.832031 2.808594-2.0625 3.484375.707031 2.035156 2.042969 3.863281 3.917969 5.175781l2-3.460938c-2.5625-2-3.316407-5.613281-1.644531-8.511718.4375-.753906.996093-1.390625 1.640624-1.898438zm16.640626 9.605469h-4c-.117188.8125-.386719 1.613281-.824219 2.371093-1.671875 2.898438-5.175781 4.050781-8.191407 2.832031l-1.996093 3.460938c2.074219.96875 4.324219 1.207031 6.441406.804688-.03125-1.402344.683594-2.773438 1.988281-3.527344 1.277344-.738282 2.789063-.6875 3.976563 0 .023437.015625.046875.027344.066406.039062.425781-.496094.8125-1.039062 1.152344-1.625.800781-1.382812 1.253906-2.867187 1.386719-4.355468zm-21.089844-3.199219c-.398438-.242188-.867188-.382813-1.371094-.382813-1.46875 0-2.648438 1.179688-2.648438 2.648438 0 1.464844 1.179688 2.644531 2.648438 2.644531 1.464844 0 2.644531-1.179687 2.644531-2.644531 0-.964844-.507812-1.800782-1.273437-2.265625zm17.765625 10.253906c-.78125-.429687-1.761719-.449219-2.597657.03125-1.269531.734375-1.699218 2.347656-.96875 3.617187.734376 1.269532 2.347657 1.699219 3.617188.96875 1.269531-.734374 1.699219-2.347656.96875-3.617187-.253906-.4375-.609375-.773437-1.019531-1zm0 0" fill="url(#j)"/><path d="m37.648438 17.96875c-.894532.019531-1.753907.492188-2.234376 1.324219-.300781.519531-.402343 1.097656-.335937 1.648437.042969-.34375.152344-.683594.335937-1 .734376-1.269531 2.347657-1.703125 3.617188-.96875.75.433594 1.207031 1.171875 1.304688 1.96875.125-1.023437-.355469-2.066406-1.304688-2.613281-.4375-.253906-.914062-.367187-1.382812-.359375zm-5.980469 2.367188c-1.515625.011718-3.011719.351562-4.378907.988281l.296876.511719c1.917968-.820313 4.058593-1.066407 6.148437-.664063-.03125 1.402344.683594 2.777344 1.988281 3.53125 1.304688.75 2.851563.683594 4.050782-.046875 1.320312 1.527344 2.160156 3.382812 2.453124 5.335938h.078126c-.195313-2.1875-1.066407-4.289063-2.53125-5.980469-1.199219.730469-2.746094.796875-4.050782.042969-1.304687-.753907-2.019531-2.125-1.988281-3.527344-.6875-.132813-1.378906-.195313-2.066406-.191406zm-6.003907 1.925781c-1.21875.859375-2.277343 1.992187-3.078124 3.375-.339844.589843-.617188 1.195312-.832032 1.8125.023438.011719.046875.023437.066406.039062.046876.023438.089844.050781.136719.078125.175781-.433594.386719-.863281.628907-1.28125.800781-1.382812 1.859374-2.519531 3.078124-3.378906l1.75 3.027344c.082032-.074219.164063-.144532.25-.210938zm-5.820312 6.023437c-1.46875 0-2.648438 1.179688-2.648438 2.648438 0 .109375.007813.214844.019532.320312.160156-1.3125 1.269531-2.320312 2.628906-2.320312.503906 0 .972656.136718 1.371094.378906.679687.410156 1.15625 1.117188 1.253906 1.941406.011719-.105468.019531-.210937.019531-.320312 0-.964844-.507812-1.800782-1.273437-2.265625-.398438-.242188-.867188-.382813-1.371094-.382813zm5.296875 2.96875c-.097656 1.992188.714844 3.96875 2.273437 5.316406l.253907-.4375c-1.546875-1.207031-2.4375-3.007812-2.527344-4.878906zm-1.34375 0c-.109375 1.371094-.90625 2.539063-2.046875 3.164063.0625.175781.128906.351562.199219.527343 1.121093-.699218 1.863281-1.945312 1.863281-3.367187 0-.109375-.003906-.214844-.015625-.324219zm14.507813.613282c-.117188.8125-.386719 1.613281-.824219 2.371093-1.671875 2.898438-5.175781 4.050781-8.191407 2.832031l-1.996093 3.460938c.097656.042969.199219.089844.296875.128906l1.699218-2.945312c3.015626 1.21875 6.519532.066406 8.191407-2.832032.4375-.753906.707031-1.558593.824219-2.371093h3.921874c.03125-.214844.058594-.429688.078126-.644531zm-.605469 6.730468c-.445313 0-.898438.117188-1.316407.355469-.949218.550781-1.429687 1.59375-1.304687 2.613281.097656-.792968.554687-1.535156 1.304687-1.964844.835938-.484374 1.816407-.460937 2.597657-.03125.410156.222657.765625.5625 1.019531 1 .183594.316407.292969.65625.335938 1 .066406-.550781-.039063-1.128906-.335938-1.648437-.253906-.4375-.609375-.773437-1.019531-1-.390625-.214844-.832031-.324219-1.28125-.324219zm0 0" fill="#fff" fill-opacity=".392157"/><path d="m312.220184-68.389001c-10.15528-5.874439-23.060297-2.437267-28.934736 7.718013-5.843192 10.155281-2.406021 23.060298 7.74926 28.934737 10.15528 5.843192 23.060297 2.40602 28.934736-7.74926 5.843192-10.15528 2.406021-23.060298-7.74926-28.90349zm-42.370953 17.59207c-17.59207-3.405924-35.621599-1.031151-51.557577 6.374392l15.998472 27.684856c14.529863-5.843192 31.496993-5.155758 46.18309 3.312184 14.654851 8.499188 23.747732 22.841568 25.96627 38.340088h31.965698c-1.562351-17.498329-8.530435-34.309223-20.248066-47.839181-9.592834 5.843192-21.966653 6.374391-32.403156.343717-10.436504-6.030674-16.154707-16.998377-15.904731-28.216056zm-64.556335 13.873676c-9.74907 6.874343-18.217011 15.935978-24.622649 26.997421-2.718491 4.7183-4.937029 9.561587-6.655615 14.498616.187483.093741.374965.187482.5312.31247 9.53034 5.468228 15.935978 15.717249 15.935978 27.559868 0 12.030101-6.655615 22.466605-16.498425 27.872338 5.65571 16.279696 16.34219 30.903299 31.340758 41.402297l15.998472-27.684856c-20.498043-15.998473-26.528717-44.901963-13.154994-68.087248 3.499666-6.0306745 7.967989-11.123938 13.123747-15.18605zm133.112288 76.836412h-31.996945c-.93741 6.499379-3.093454 12.905018-6.59312 18.966939-13.373723 23.185286-41.402296 32.403155-65.524993 22.654086l-15.967225 27.684857c16.592166 7.74926 34.590447 9.655328 51.52633 6.436885-.249976-11.217679 5.468227-22.185381 15.904731-28.216056 10.217774-5.905686 22.310369-5.499474 31.809462 0 .187482.124988.374964.21873.531199.312471 3.405925-3.968371 6.49938-8.311707 9.21787-12.998759 6.405639-11.061444 10.030292-22.93531 11.092691-34.840423zm-168.70264-25.591306c-3.187195-1.937315-6.936837-3.062208-10.967702-3.062208-11.748878 0-21.185477 9.436599-21.185477 21.185477 0 11.717631 9.436599 21.15423 21.185477 21.15423 11.717631 0 21.154229-9.436599 21.154229-21.15423 0-7.718013-4.062112-14.404874-10.186527-18.123269zm142.111429 82.023417c-6.249403-3.437172-14.092404-3.593407-20.779265.249976-10.155281 5.874439-13.592452 18.779457-7.74926 28.934737 5.874439 10.15528 18.779456 13.592452 28.934736 7.74926 10.155281-5.874439 13.592452-18.779457 7.74926-28.934737-2.031056-3.499666-4.874534-6.186909-8.155471-7.999236zm0 0" fill="none" stroke="#212121" stroke-linecap="round" stroke-linejoin="round" stroke-width="3" transform="matrix(.125012 0 0 .125012 0 26.877566)"/><path d="m28.148438 49.933594c-2.441407-.480469-4.710938-1.433594-6.703126-2.765625.066407-.179688.117188-.359375.160157-.542969 1.953125 1.277344 4.164062 2.195312 6.542969 2.664062.628906-1.359374 2.003906-2.300781 3.605468-2.300781 1.601563 0 2.972656.941407 3.601563 2.300781 2.378906-.46875 4.59375-1.386718 6.546875-2.664062.039062.183594.09375.363281.15625.542969-1.992188 1.332031-4.257813 2.285156-6.703125 2.765625-.628907-1.359375-2-2.300782-3.601563-2.300782-1.601562 0-2.976562.941407-3.605468 2.300782zm-6.46875-4.464844c-.074219-.90625-.457032-1.789062-1.152344-2.484375-1.136719-1.136719-2.777344-1.441406-4.183594-.921875-1.332031-1.992188-2.289062-4.257812-2.765625-6.703125.042969-.019531.082031-.039063.125-.058594.507813 2.21875 1.414063 4.285157 2.640625 6.117188 1.40625-.519531 3.046875-.214844 4.183594.921875.859375.859375 1.242187 2.007812 1.152344 3.128906zm20.148437 0c-.09375-1.121094.292969-2.269531 1.152344-3.128906 1.132812-1.136719 2.773437-1.441406 4.183593-.921875 1.222657-1.832031 2.128907-3.898438 2.640626-6.117188.039062.019531.082031.039063.125.058594-.480469 2.445313-1.433594 4.710937-2.765626 6.703125-1.410156-.519531-3.050781-.214844-4.183593.921875-.695313.695313-1.078125 1.578125-1.152344 2.484375zm-25.964844-14.035156c-.117187-1.460938-1.019531-2.695313-2.285156-3.28125.039063-.195313.082031-.390625.125-.582032 1.292969.652344 2.171875 1.988282 2.171875 3.542969 0 .109375-.003906.214844-.011719.320313zm31.78125 0c-.011719-.105469-.015625-.210938-.015625-.320313 0-1.554687.882813-2.890625 2.175782-3.542969.042968.191407.085937.386719.125.582032-1.269532.585937-2.171876 1.820312-2.285157 3.28125zm-25.964843-14.03125c-.03125-.359375-.105469-.714844-.234376-1.054688.054688-.035156.105469-.070312.15625-.105468.085938.382812.109376.773437.078126 1.160156zm20.148437 0c-.03125-.386719-.007813-.777344.074219-1.160156.054687.035156.105468.070312.15625.105468-.125.339844-.203125.695313-.230469 1.054688zm0 0" fill="#fff" fill-opacity=".392157"/><path d="m851.021138 385.593119c-73.811852 14.526173-142.427351 43.34232-202.657823 83.614067 15.825262 42.633726 6.495443 92.235291-27.753256 126.483991-34.366799 34.366799-83.968364 43.578518-126.483991 27.753257-40.271747 60.348571-69.205994 128.84597-83.614067 202.775922 41.098439 18.895834 69.442191 60.46667 69.442191 108.887245 0 48.420576-28.343752 89.991411-69.442191 109.005345 14.408073 73.811852 43.34232 142.427351 83.614067 202.657823 13.345183-4.960157 27.517058-7.440235 41.570835-7.440235 30.705731 0 61.411462 11.691797 84.913156 35.193491 34.248699 34.366799 43.578518 83.968364 27.753256 126.483991 60.230472 40.271747 128.845971 69.087895 202.657823 83.614067 19.013934-41.098439 60.584769-69.56029 109.005345-69.56029 48.420575 0 89.873312 28.461851 108.887245 69.56029 73.929952-14.526172 142.427351-43.34232 202.657823-83.614067-15.707162-42.515627-6.495443-92.117192 27.871356-126.483991 23.501694-23.501694 54.089326-35.193491 84.795056-35.193491 14.171876 0 28.225653 2.480078 41.688935 7.440235 40.271747-60.230472 69.087894-128.845971 83.614067-202.657823-41.09844-19.013934-69.56029-60.584769-69.56029-109.005345 0-48.420575 28.46185-89.991411 69.56029-108.887245-14.526173-73.929952-43.34232-142.427351-83.614067-202.775922-42.633726 15.825261-92.235291 6.613542-126.483991-27.753257-34.366799-34.2487-43.578518-83.850265-27.871356-126.483991-60.230472-40.271747-128.727871-69.087894-202.657823-83.614067-19.013933 41.09844-60.46667 69.56029-108.887245 69.56029-48.420576 0-89.991411-28.46185-109.005345-69.56029zm0 0" fill="none" stroke="#212121" stroke-linecap="round" stroke-linejoin="round" stroke-width="11.338583" transform="scale(.0330761)"/><g fill-opacity=".235294"><path d="m28.148438 12.753906c-2.441407.480469-4.710938 1.433594-6.703126 2.765625.066407.179688.117188.359375.160157.542969 1.953125-1.28125 4.164062-2.199219 6.542969-2.664062.628906 1.359374 2.003906 2.300781 3.605468 2.300781 1.601563 0 2.972656-.941407 3.601563-2.300781 2.378906.464843 4.59375 1.382812 6.546875 2.664062.039062-.183594.09375-.363281.15625-.542969-1.992188-1.332031-4.257813-2.285156-6.703125-2.765625-.628907 1.359375-2 2.300782-3.601563 2.300782-1.601562 0-2.976562-.941407-3.605468-2.300782zm-6.46875 4.464844c-.074219.90625-.457032 1.789062-1.152344 2.484375-1.136719 1.136719-2.777344 1.441406-4.183594.917969-1.332031 1.996094-2.289062 4.261718-2.765625 6.707031.042969.019531.082031.039063.125.058594.507813-2.21875 1.414063-4.285157 2.640625-6.121094 1.40625.523437 3.046875.21875 4.183594-.917969.859375-.859375 1.242187-2.007812 1.152344-3.128906zm20.148437 0c-.09375 1.121094.292969 2.269531 1.152344 3.128906 1.132812 1.136719 2.773437 1.441406 4.183593.917969 1.222657 1.835937 2.128907 3.902344 2.640626 6.121094.039062-.019531.082031-.039063.125-.058594-.480469-2.445313-1.433594-4.710937-2.765626-6.707031-1.410156.523437-3.050781.21875-4.183593-.917969-.695313-.695313-1.078125-1.578125-1.152344-2.484375zm-25.964844 14.035156c-.117187 1.460938-1.019531 2.695313-2.285156 3.28125.039063.195313.082031.390625.125.582032 1.292969-.652344 2.171875-1.992188 2.171875-3.542969 0-.109375-.003906-.214844-.011719-.320313zm31.78125 0c-.011719.105469-.015625.210938-.015625.320313 0 1.550781.882813 2.890625 2.175782 3.542969.042968-.191407.085937-.386719.125-.582032-1.269532-.585937-2.171876-1.820312-2.285157-3.28125zm-25.964843 14.03125c-.03125.359375-.105469.714844-.234376 1.054688.054688.035156.105469.070312.15625.105468.085938-.382812.109376-.773437.078126-1.160156zm20.148437 0c-.03125.386719-.007813.777344.074219 1.160156.054687-.035156.105468-.070312.15625-.105468-.125-.339844-.203125-.695313-.230469-1.054688zm0 0"/><path d="m40.246094 21.367188c-.058594.195312-.140625.386718-.246094.574218-.734375 1.269532-2.347656 1.699219-3.617188.96875-.613281-.355468-1.027343-.914062-1.214843-1.539062-.320313 1.074218.074219 2.253906 1.019531 2.914062.996094.414063 2.085938.394532 3.035156.003906.308594-.214843.574219-.5.777344-.847656.378906-.65625.445312-1.40625.246094-2.074218zm-12.257813 1.164062c-.238281.089844-.46875.1875-.699219.292969l2 3.460937c1.816407-.730468 3.9375-.644531 5.773438.417969 1.832031 1.058594 2.96875 2.851563 3.246094 4.789063h3.996094c-.046876-.503907-.125-1.007813-.242188-1.5h-3.753906c-.277344-1.9375-1.414063-3.730469-3.246094-4.792969-1.835938-1.058594-3.957031-1.144531-5.773438-.414063zm-.898437 3.699219c-.402344.40625-.765625.871093-1.066406 1.390625-.738282 1.28125-1.003907 2.703125-.847657 4.0625.101563-.875.378907-1.746094.847657-2.558594.4375-.757812.996093-1.394531 1.640624-1.902344zm-4.839844 1.539062c-.191406.390625-.355469.78125-.496094 1.179688.023438.011719.046875.027343.066406.039062.984376.5625 1.703126 1.539063 1.921876 2.695313.042968-.246094.070312-.496094.070312-.75 0-1.292969-.613281-2.4375-1.5625-3.164063zm.132812 3.910157c-.324218 1.101562-1.335937 1.898437-2.539062 1.898437-1.207031 0-2.21875-.796875-2.539062-1.894531-.070313.238281-.109376.488281-.109376.75 0 1.464844 1.179688 2.644531 2.648438 2.644531 1.464844 0 2.644531-1.179687 2.644531-2.644531 0-.261719-.039062-.515625-.105469-.753906zm19.675782 1.6875c-.234375.976562-.609375 1.9375-1.140625 2.855468-.339844.585938-.726563 1.128906-1.152344 1.625-.019531-.011718-.042969-.023437-.066406-.039062-1.1875-.6875-2.699219-.738282-3.976563 0-1.304687.753906-2.019531 2.125-1.988281 3.527344-1.882813.359374-3.867187.207031-5.746094-.511719l-.695312 1.207031c2.074219.96875 4.324219 1.210938 6.441406.804688-.03125-1.402344.683594-2.773438 1.988281-3.527344.152344-.085938.308594-.164063.464844-.230469.0625-.042969.128906-.085937.195312-.125.835938-.480469 1.816407-.460937 2.597657-.03125.082031.046875.164062.097656.242187.152344.164063.066406.324219.148437.476563.234375.023437.015625.046875.027344.066406.042968.425781-.496093.8125-1.039062 1.152344-1.628906.800781-1.382812 1.253906-2.867187 1.386719-4.355468zm-19.816406 2.230468c-.15625.117188-.320313.226563-.492188.320313.707031 2.035156 2.042969 3.863281 3.917969 5.175781l2-3.460938c-.203125-.15625-.394531-.328124-.578125-.503906l-1.421875 2.464844c-1.503907-1.054688-2.660157-2.4375-3.425781-3.996094zm12.925781 6.394532c-.199219.671874-.132813 1.421874.246093 2.078124.734376 1.269532 2.347657 1.699219 3.617188.96875 1.082031-.625 1.554688-1.894531 1.214844-3.039062-.1875.625-.601563 1.183594-1.214844 1.539062-1.269531.730469-2.882812.300782-3.617188-.96875-.105468-.1875-.1875-.378906-.246093-.578124zm0 0"/></g></svg>