<svg height="64pt" viewBox="0 0 64 64" width="64pt" xmlns="http://www.w3.org/2000/svg" xmlns:xlink="http://www.w3.org/1999/xlink"><linearGradient id="a" gradientUnits="userSpaceOnUse" x1="30.43" x2="30.43" y1="56.067872" y2="58.71396000006"><stop offset="0" stop-opacity=".27451"/><stop offset="1" stop-opacity="0"/></linearGradient><linearGradient id="b"><stop offset="0" stop-opacity=".313726"/><stop offset=".222222" stop-opacity=".27451"/><stop offset="1" stop-opacity="0"/></linearGradient><radialGradient id="c" cx="450.908936" cy="189.579361" gradientTransform="matrix(.00000035 -.156265 -.281277 -.0000002 104.261307 127.190665)" gradientUnits="userSpaceOnUse" r="21.166656" xlink:href="#b"/><radialGradient id="d" cx="450.908936" cy="189.579361" gradientTransform="matrix(-.00000035 .156265 .281277 .0000002 -36.786105 -15.054958)" gradientUnits="userSpaceOnUse" r="21.166656" xlink:href="#b"/><radialGradient id="e" cx="450.908936" cy="189.579361" gradientTransform="matrix(-.00000035 -.156265 .281277 -.0000002 -36.786105 127.190665)" gradientUnits="userSpaceOnUse" r="21.166656" xlink:href="#b"/><radialGradient id="f" cx="450.908936" cy="189.579361" gradientTransform="matrix(.00000035 .156265 -.281277 .0000002 104.261303 -15.054959)" gradientUnits="userSpaceOnUse" r="21.166656" xlink:href="#b"/><linearGradient id="g" gradientUnits="userSpaceOnUse" x1="31.091534" x2="31.091534" y1="56.06789790428" y2="5.79222438278"><stop offset="0" stop-color="#26c6da"/><stop offset="1" stop-color="#4dd0e1"/></linearGradient><linearGradient id="h"><stop offset="0" stop-color="#424242"/><stop offset="1" stop-color="#616161"/></linearGradient><linearGradient id="i" gradientUnits="userSpaceOnUse" x1="31.091534" x2="31.091534" xlink:href="#h" y1="56.06789790428" y2="5.79222438278"/><linearGradient id="j"><stop offset="0" stop-color="#81d4fa" stop-opacity=".392157"/><stop offset="1" stop-color="#b3e5fc" stop-opacity=".392157"/></linearGradient><linearGradient id="k" gradientUnits="userSpaceOnUse" x1="-814.916641" x2="-814.916641" xlink:href="#j" y1="74.75" y2="222.916672"/><linearGradient id="l" gradientTransform="matrix(-.0330761 0 0 .0330761 70.784157 0)" gradientUnits="userSpaceOnUse" x1="680" x2="680" xlink:href="#h" y1="1695.118164" y2="1055.118164"/><linearGradient id="m" gradientUnits="userSpaceOnUse" x1="613.833359" x2="613.833359" xlink:href="#j" y1="74.75" y2="222.916672"/><linearGradient id="n" gradientUnits="userSpaceOnUse" x1="23.154629" x2="23.154629" xlink:href="#h" y1="56.06789790428" y2="34.89919390428"/><linearGradient id="o" gradientUnits="userSpaceOnUse" x1="23.154647" x2="23.154647" xlink:href="#h" y1="56.067869" y2="42.83743099987"/><linearGradient id="p" gradientTransform="matrix(-.125012 0 0 .125012 119.73676 26.877567)" gradientUnits="userSpaceOnUse" x1="571.5" x2="571.5" xlink:href="#h" y1="233.5" y2="127.666656"/><path d="m15.875 56.066406h35.722656v2.648438h-35.722656zm0 0" fill="url(#a)"/><path d="m51.597656 56.066406h5.292969v-2.644531h-5.292969zm0 0" fill="url(#c)"/><path d="m15.875 56.066406h-5.289062v2.648438h5.289062zm0 0" fill="url(#d)"/><path d="m15.875 56.066406h-5.289062v-2.644531h5.289062zm0 0" fill="url(#e)"/><path d="m51.597656 56.066406h5.292969v2.648438h-5.292969zm0 0" fill="url(#f)"/><path d="m14.554688 5.792969c-1.46875 0-2.648438 1.179687-2.648438 2.644531v44.984375c0 1.464844 1.179688 2.644531 2.648438 2.644531h33.074218c1.464844 0 2.648438-1.179687 2.648438-2.644531v-35.722656l-11.910156-11.90625zm26.460937 0 9.261719 9.261719v-6.617188c0-1.464844-1.183594-2.644531-2.648438-2.644531zm0 0" fill="url(#g)"/><path d="m41.015625 5.792969 9.261719 9.261719v-6.617188c0-1.464844-1.183594-2.644531-2.648438-2.644531zm0 0" fill="url(#i)"/><path d="m14.554688 5.792969c-1.46875 0-2.648438 1.179687-2.648438 2.644531v.664062c0-1.46875 1.179688-2.648437 2.648438-2.648437h23.8125l11.910156 11.90625v-.660156l-11.910156-11.90625zm26.460937 0 .660156.660156h5.953125c1.464844 0 2.648438 1.179687 2.648438 2.648437v-.664062c0-1.464844-1.183594-2.644531-2.648438-2.644531zm0 0" fill="#fff" fill-opacity=".392157"/><path d="m41.015625 5.792969 9.261719 9.261719v-.984376l-8.28125-8.277343zm-29.109375 46.648437v.980469c0 1.464844 1.179688 2.644531 2.648438 2.644531h33.074218c1.464844 0 2.648438-1.179687 2.648438-2.644531v-.980469c0 1.464844-1.183594 2.644532-2.648438 2.644532h-33.074218c-1.46875 0-2.648438-1.179688-2.648438-2.644532zm0 0" fill-opacity=".235294"/><path d="m14.554688 5.605469c-1.566407 0-2.835938 1.265625-2.835938 2.832031v44.984375c0 1.566406 1.269531 2.832031 2.835938 2.832031h33.074218c1.566406 0 2.835938-1.265625 2.835938-2.832031v-35.722656c0-.050781-.019532-.097657-.054688-.132813l-11.910156-11.90625c-.035156-.035156-.082031-.054687-.132812-.054687zm26.460937 0c-.078125 0-.144531.042969-.175781.113281-.027344.070312-.011719.152344.042968.207031l9.261719 9.261719c.050781.050781.132813.066406.203125.039062.070313-.027343.117188-.097656.117188-.171874v-6.617188c0-1.566406-1.269532-2.832031-2.835938-2.832031zm-26.460937.375h23.734374l11.800782 11.796875v35.644531c0 1.363281-1.09375 2.457031-2.460938 2.457031h-33.074218c-1.367188 0-2.460938-1.09375-2.460938-2.457031v-44.984375c0-1.363281 1.09375-2.457031 2.460938-2.457031zm26.914062 0h6.160156c1.367188 0 2.460938 1.09375 2.460938 2.457031v6.164062zm0 0" fill="#212121"/><path d="m-814.920995 69.472833c43.839563 0 79.367421 35.527857 79.367421 79.367421 0 43.839563-35.527858 79.36742-79.367421 79.36742-43.839564 0-79.367421-35.527857-79.367421-79.36742 0-43.839564 35.527857-79.367421 79.367421-79.367421zm0 0" fill="url(#k)" stroke="#212121" stroke-linecap="round" stroke-linejoin="round" stroke-width="3" transform="matrix(-.125012 0 0 .125012 -53.581883 26.877567)"/><path d="m48.292969 34.898438c5.863281 0 10.582031 4.722656 10.582031 10.585937s-4.71875 10.582031-10.582031 10.582031-10.585938-4.71875-10.585938-10.582031 4.722657-10.585937 10.585938-10.585937zm0 1.324218c-5.132813 0-9.261719 4.128906-9.261719 9.261719 0 5.128906 4.128906 9.261719 9.261719 9.261719 5.128906 0 9.261719-4.132813 9.261719-9.261719 0-5.132813-4.132813-9.261719-9.261719-9.261719zm0 0" fill="url(#l)"/><path d="m48.292969 34.898438c5.863281 0 10.582031 4.722656 10.582031 10.585937v.164063c-.085938-5.785157-4.773438-10.417969-10.582031-10.417969-5.808594 0-10.496094 4.632812-10.582031 10.417969-.003907-.054688-.003907-.109376-.003907-.164063 0-5.863281 4.722657-10.585937 10.585938-10.585937zm9.257812 10.75c0 .054687.003907.109374.003907.164062 0 5.132812-4.132813 9.261719-9.261719 9.261719-5.132813 0-9.261719-4.128907-9.261719-9.261719 0-.054688 0-.109375 0-.164062.089844 5.054687 4.1875 9.097656 9.261719 9.097656s9.171875-4.042969 9.257812-9.097656zm0 0" fill="#fff" fill-opacity=".313726"/><path d="m48.292969 56.066406c5.863281 0 10.582031-4.71875 10.582031-10.582031 0-.054687 0-.109375 0-.167969-.085938 5.789063-4.773438 10.421875-10.582031 10.421875-5.808594 0-10.496094-4.632812-10.582031-10.421875-.003907.058594-.003907.113282-.003907.167969 0 5.863281 4.722657 10.582031 10.585938 10.582031zm9.257812-10.75c0-.054687.003907-.109375.003907-.164062 0-5.128906-4.132813-9.261719-9.261719-9.261719-5.132813 0-9.261719 4.132813-9.261719 9.261719v.164062c.089844-5.050781 4.1875-9.09375 9.261719-9.09375s9.171875 4.042969 9.257812 9.09375zm0 0" fill-opacity=".235294"/><path d="m679.983635 1055.096144c-177.266546 0-319.930095 142.781648-319.930095 320.048194s142.663549 319.930095 319.930095 319.930095 320.048194-142.663549 320.048194-319.930095-142.781648-320.048194-320.048194-320.048194zm0 40.035549c155.182039 0 280.012645 124.830606 280.012645 280.012645 0 155.063941-124.830606 280.012645-280.012645 280.012645-155.063941 0-280.012645-124.948704-280.012645-280.012645 0-155.182039 124.948704-280.012645 280.012645-280.012645zm0 0" fill="none" stroke="#212121" stroke-linecap="round" stroke-linejoin="round" stroke-width="11.338583" transform="matrix(-.0330761 0 0 .0330761 70.784157 0)"/><path d="m613.846447 69.472833c43.839563 0 79.367421 35.527857 79.367421 79.367421 0 43.839563-35.527858 79.36742-79.367421 79.36742-43.839564 0-79.398668-35.527857-79.398668-79.36742 0-43.839564 35.559104-79.367421 79.398668-79.367421zm0 0" fill="url(#m)" stroke="#212121" stroke-linecap="round" stroke-linejoin="round" stroke-width="3" transform="matrix(.125012 0 0 .125012 -53.581883 26.877567)"/><path d="m23.15625 34.898438c-5.867188 0-10.585938 4.722656-10.585938 10.585937s4.71875 10.582031 10.585938 10.582031c5.863281 0 10.582031-4.71875 10.582031-10.582031s-4.71875-10.585937-10.582031-10.585937zm0 1.324218c5.128906 0 9.257812 4.128906 9.257812 9.261719 0 5.128906-4.128906 9.261719-9.257812 9.261719-5.132812 0-9.261719-4.132813-9.261719-9.261719 0-5.132813 4.128907-9.261719 9.261719-9.261719zm0 0" fill="url(#n)"/><path d="m23.15625 34.898438c-5.867188 0-10.585938 4.722656-10.585938 10.585937v.164063c.089844-5.785157 4.777344-10.417969 10.585938-10.417969s10.492188 4.632812 10.582031 10.417969c0-.054688 0-.109376 0-.164063 0-5.863281-4.71875-10.585937-10.582031-10.585937zm-9.261719 10.75v.164062c0 5.132812 4.128907 9.261719 9.261719 9.261719 5.128906 0 9.257812-4.128907 9.257812-9.261719 0-.054688 0-.109375 0-.164062-.089843 5.054687-4.183593 9.097656-9.257812 9.097656-5.078125 0-9.171875-4.042969-9.261719-9.097656zm0 0" fill="#fff" fill-opacity=".313726"/><path d="m23.15625 56.066406c-5.867188 0-10.585938-4.71875-10.585938-10.582031 0-.054687 0-.109375 0-.167969.089844 5.789063 4.777344 10.421875 10.585938 10.421875s10.492188-4.632812 10.582031-10.421875v.167969c0 5.863281-4.71875 10.582031-10.582031 10.582031zm-9.261719-10.75c0-.054687 0-.109375 0-.164062 0-5.128906 4.128907-9.261719 9.261719-9.261719 5.128906 0 9.257812 4.132813 9.257812 9.261719v.164062c-.089843-5.050781-4.183593-9.09375-9.257812-9.09375-5.078125 0-9.171875 4.042969-9.261719 9.09375zm0 0" fill-opacity=".235294"/><path d="m680.049558 1055.096144c-177.384645 0-320.048194 142.781648-320.048194 320.048194s142.663549 319.930095 320.048194 319.930095c177.266546 0 319.930095-142.663549 319.930095-319.930095s-142.663549-320.048194-319.930095-320.048194zm0 40.035549c155.063941 0 279.894546 124.830606 279.894546 280.012645 0 155.063941-124.830605 280.012645-279.894546 280.012645-155.182039 0-280.012645-124.948704-280.012645-280.012645 0-155.182039 124.830606-280.012645 280.012645-280.012645zm0 0" fill="none" stroke="#212121" stroke-linecap="round" stroke-linejoin="round" stroke-width="11.338583" transform="matrix(.0330761 0 0 .0330761 .662881 0)"/><path d="m12.570312 42.835938h6.613282c11.945312-.054688 33.078125 0 35.722656 9.261718.664062 1.324219.664062 3.96875-1.984375 3.96875-3.304687 0-.660156-6.613281-7.277344-7.9375-11.402343-3.078125-21.625-.421875-33.074219 0-2.644531 0-2.644531-5.292968 0-5.292968zm0 0" fill="url(#o)"/><path d="m21.527344 42.832031c-.8125 0-1.59375 0-2.34375.003907h-6.613282c-1.378906 0-2.039062 1.4375-1.980468 2.8125.050781-1.265626.710937-2.480469 1.980468-2.480469h6.613282c11.945312-.054688 33.078125 0 35.722656 9.261719.199219.398437.339844.917968.363281 1.449218.03125-.640625-.121093-1.296875-.363281-1.78125-2.480469-8.679687-21.207031-9.273437-33.378906-9.265625zm0 0" fill="#fff" fill-opacity=".313726"/><path d="m10.589844 45.324219c-.054688 1.375.605468 2.804687 1.980468 2.804687 11.449219-.421875 21.671876-3.078125 33.074219 0 6.617188 1.324219 3.972657 7.9375 7.277344 7.9375 1.84375 0 2.402344-1.285156 2.347656-2.511718-.050781 1.121093-.660156 2.195312-2.347656 2.195312-3.304687 0-.660156-6.613281-7.277344-7.9375-11.402343-3.078125-21.625-.421875-33.074219 0-1.269531 0-1.929687-1.21875-1.980468-2.488281zm0 0" fill-opacity=".235294"/><path d="m12.570312 42.648438c-2.894531 0-2.894531 5.667968 0 5.667968 11.480469-.421875 21.679688-3.070312 33.027344-.007812.003906.003906.007813.003906.011719.003906 1.621094.324219 2.652344.964844 3.359375 1.742188.707031.777343 1.089844 1.699218 1.378906 2.597656.285156.898437.46875 1.769531.804688 2.445312.339844.675782.882812 1.15625 1.769531 1.15625 1.386719 0 2.148437-.730468 2.414063-1.621094.261718-.875.09375-1.878906-.246094-2.585937l-.003906-.003906c-.679688-2.375-2.542969-4.152344-5.109376-5.472657-2.570312-1.320312-5.847656-2.195312-9.414062-2.78125-7.128906-1.167968-15.40625-1.167968-21.375-1.140624zm0 .375h6.617188c5.96875-.027344 14.230469-.023438 21.316406 1.136718 3.539063.578125 6.789063 1.449219 9.300782 2.742188 2.511718 1.292968 4.277343 2.996094 4.921874 5.246094.003907.011718.007813.023437.011719.035156.308594.617187.46875 1.578125.238281 2.34375-.230468.761718-.792968 1.351562-2.054687 1.351562-.761719 0-1.128906-.34375-1.433594-.949218-.300781-.605469-.492187-1.472657-.785156-2.390626-.292969-.921874-.695313-1.902343-1.457031-2.738281-.757813-.835937-1.875-1.515625-3.5625-1.855469-11.449219-3.085937-21.695313-.425781-33.113282-.003906-2.394531 0-2.394531-4.917968 0-4.917968zm0 0" fill="#212121"/><path d="m58.875 42.835938h-6.613281c-11.941407-.054688-33.078125 0-35.722657 9.261718-.660156 1.324219-.660156 3.96875 1.984376 3.96875 3.308593 0 .660156-6.613281 7.277343-7.9375 11.402344-3.078125 21.628907-.421875 33.074219 0 2.648438 0 2.648438-5.292968 0-5.292968zm0 0" fill="url(#p)"/><path d="m49.921875 42.832031c.8125 0 1.59375 0 2.339844.003907h6.613281c1.378906 0 2.039062 1.4375 1.984375 2.8125-.054687-1.265626-.714844-2.480469-1.984375-2.480469h-6.613281c-11.941407-.054688-33.078125 0-35.722657 9.261719-.199218.398437-.339843.917968-.363281 1.449218-.03125-.640625.121094-1.296875.363281-1.78125 2.480469-8.679687 21.210938-9.273437 33.382813-9.265625zm0 0" fill="#fff" fill-opacity=".313726"/><path d="m60.859375 45.324219c.054687 1.375-.605469 2.804687-1.984375 2.804687-11.445312-.421875-21.671875-3.078125-33.074219 0-6.617187 1.324219-3.96875 7.9375-7.277343 7.9375-1.84375 0-2.402344-1.285156-2.347657-2.511718.050781 1.121093.664063 2.195312 2.347657 2.195312 3.308593 0 .660156-6.613281 7.277343-7.9375 11.402344-3.078125 21.628907-.421875 33.074219 0 1.273438 0 1.933594-1.21875 1.984375-2.488281zm0 0" fill-opacity=".235294"/><path d="m58.875 42.648438c2.898438 0 2.898438 5.667968 0 5.667968-11.480469-.421875-21.675781-3.070312-33.027344-.007812-.003906.003906-.007812.003906-.011718.003906-1.621094.324219-2.652344.964844-3.359376 1.742188-.707031.777343-1.089843 1.699218-1.375 2.597656-.285156.898437-.46875 1.769531-.808593 2.445312-.335938.675782-.878907 1.15625-1.769531 1.15625-1.386719 0-2.144532-.730468-2.410157-1.621094-.265625-.875-.097656-1.878906.246094-2.585937v-.003906c.683594-2.375 2.546875-4.152344 5.113281-5.472657 2.566406-1.320312 5.847656-2.195312 9.410156-2.78125 7.128907-1.167968 15.40625-1.167968 21.378907-1.140624zm0 .375h-6.613281c-5.972657-.027344-14.234375-.023438-21.316407 1.136718-3.542968.578125-6.789062 1.449219-9.300781 2.742188-2.511719 1.292968-4.28125 2.996094-4.925781 5.246094-.003906.011718-.007812.023437-.011719.035156-.308593.617187-.464843 1.578125-.234375 2.34375.226563.761718.789063 1.351562 2.050782 1.351562.765624 0 1.132812-.34375 1.433593-.949218.304688-.605469.492188-1.472657.785157-2.390626.292968-.921874.695312-1.902343 1.457031-2.738281.761719-.835937 1.878906-1.515625 3.5625-1.855469 11.449219-3.085937 21.699219-.425781 33.117187-.003906 2.394532 0 2.394532-4.917968-.003906-4.917968zm0 0" fill="#212121"/></svg>