<svg height="64" viewBox="0 0 64 64" width="64" xmlns="http://www.w3.org/2000/svg" xmlns:xlink="http://www.w3.org/1999/xlink"><linearGradient id="a" gradientTransform="matrix(.00833412 0 0 .125012 8.467483 27.07358)" gradientUnits="userSpaceOnUse" x1="254" x2="254" y1="233.5" y2="254.666672"><stop offset="0" stop-opacity=".27451"/><stop offset="1" stop-opacity="0"/></linearGradient><linearGradient id="b"><stop offset="0" stop-opacity=".313726"/><stop offset=".222222" stop-opacity=".27451"/><stop offset="1" stop-opacity="0"/></linearGradient><radialGradient id="c" cx="450.908936" cy="189.579361" gradientTransform="matrix(.00000035 -.156265 -.281277 -.0000002 64.570008 127.386675)" gradientUnits="userSpaceOnUse" r="21.166656" xlink:href="#b"/><radialGradient id="d" cx="450.908936" cy="189.579361" gradientTransform="matrix(-.00000035 .156265 .281277 .0000002 -43.4013 -14.858948)" gradientUnits="userSpaceOnUse" r="21.166656" xlink:href="#b"/><radialGradient id="e" cx="450.908936" cy="189.579361" gradientTransform="matrix(-.00000035 -.156265 .281277 -.0000002 -43.4013 127.386675)" gradientUnits="userSpaceOnUse" r="21.166656" xlink:href="#b"/><radialGradient id="f" cx="450.908936" cy="189.579361" gradientTransform="matrix(.00000035 .156265 -.281277 .0000002 64.570004 -14.858948)" gradientUnits="userSpaceOnUse" r="21.166656" xlink:href="#b"/><linearGradient id="g" gradientTransform="matrix(-.125012 0 0 -.125012 63.50606 32.325946)" gradientUnits="userSpaceOnUse" x1="254" x2="253.999985" y1="212.333328" y2="-189.91713"><stop offset="0" stop-color="#81c784"/><stop offset="1" stop-color="#66bb6a"/></linearGradient><linearGradient id="h"><stop offset="0" stop-color="#e0e0e0"/><stop offset="1" stop-color="#eee"/></linearGradient><linearGradient id="i" gradientUnits="userSpaceOnUse" x1="30.828792" x2="30.828792" xlink:href="#h" y1="42.24707149987" y2="17.770765"/><linearGradient id="j" gradientUnits="userSpaceOnUse" x1="31.753048" x2="31.753048" xlink:href="#h" y1="53.42177999994" y2="5.79220799994"/><path d="m9.261719 56.066406h2.644531v2.941406h-2.644531zm0 0" fill="url(#a)"/><path d="m11.90625 56.265625h5.292969v-2.648437h-5.292969zm0 0" fill="url(#c)"/><path d="m9.261719 56.265625h-5.292969v2.644531h5.292969zm0 0" fill="url(#d)"/><path d="m9.261719 56.265625h-5.292969v-2.648437h5.292969zm0 0" fill="url(#e)"/><path d="m11.90625 56.265625h5.292969v2.644531h-5.292969zm0 0" fill="url(#f)"/><path d="m9.273438 56.140625h.003906c3.132812-.042969 6.5625-1.089844 9.328125-2.488281 1.191406-.605469 2.257812-1.269532 3.125-1.996094 3.089843 1.132812 6.472656 1.753906 10.023437 1.753906 14.660156 0 26.460938-10.621094 26.460938-23.8125 0-13.195312-11.800782-23.816406-26.460938-23.816406s-26.460937 10.621094-26.460937 23.816406c0 4.714844 1.507812 9.101563 4.113281 12.789063 1.039062 4.6875-.132812 8.160156-1.410156 11.996093-.289063.867188.359375 1.761719 1.277344 1.757813zm0 0" fill="url(#g)"/><path d="m20.527344 21.636719c-.625.613281-.785156 1.5625-.382813 2.339843 1.140625 3.875 3.753907 7.625 6.933594 10.773438 3.152344 3.179688 6.898437 5.796875 10.773437 6.9375.78125.398438 1.730469.242188 2.339844-.386719l2.808594-2.804687c.78125-.78125.78125-2.046875 0-2.824219l-3.742188-3.742187c-.78125-.78125-2.042968-.78125-2.824218 0l-2.808594 2.804687c-.066406.070313-.132812.148437-.191406.226563-1.222656-.890626-2.421875-1.914063-3.53125-3.035157-1.117188-1.105469-2.144532-2.304687-3.035156-3.53125.082031-.058593.15625-.121093.226562-.191406l2.808594-2.804687c.78125-.78125.78125-2.046876 0-2.824219l-3.742188-3.742188c-.78125-.78125-2.042968-.78125-2.824218 0zm0 0" fill="url(#i)"/><path d="m24.71875 18.246094c-.519531.007812-1.015625.21875-1.382812.585937l-2.808594 2.804688c-.503906.492187-.710938 1.210937-.546875 1.898437.089843-.367187.277343-.703125.546875-.96875l2.808594-2.804687c.78125-.78125 2.042968-.78125 2.824218 0l3.742188 3.742187c.257812.257813.441406.585938.527344.945313.160156-.675781-.039063-1.386719-.527344-1.875l-3.742188-3.742188c-.382812-.382812-.902344-.59375-1.441406-.585937zm2.5625 10.703125-.1875.183593c-.070312.070313-.144531.132813-.226562.191407.890624 1.226562 1.917968 2.425781 3.035156 3.53125 1.109375 1.121093 2.308594 2.144531 3.53125 3.035156.058594-.078125.125-.15625.191406-.226563l2.808594-2.804687c.78125-.78125 2.042968-.78125 2.824218 0l3.742188 3.742187c.257812.257813.441406.585938.527344.945313.160156-.675781-.039063-1.386719-.527344-1.875l-3.742188-3.742187c-.78125-.78125-2.042968-.78125-2.824218 0l-2.808594 2.804687c-.066406.070313-.132812.148437-.191406.226563-1.222656-.890626-2.421875-1.914063-3.53125-3.035157-.949219-.9375-1.832032-1.945312-2.621094-2.976562zm0 0" fill="#fff"/><path d="m20.105469 23.796875c-.253907.550781-.238281 1.191406.039062 1.734375 1.140625 3.875 3.753907 7.621094 6.933594 10.773438 3.152344 3.179687 6.898437 5.792968 10.773437 6.933593.78125.398438 1.730469.242188 2.339844-.386719l2.808594-2.804687c.589844-.589844.75-1.484375.402344-2.242187-.097656.21875-.234375.417968-.402344.589843l-2.808594 2.804688c-.609375.628906-1.558594.785156-2.339844.386719-3.875-1.140626-7.621093-3.757813-10.773437-6.933594-3.179687-3.152344-5.792969-6.902344-6.933594-10.773438-.015625-.027344-.027343-.054687-.039062-.082031zm10.199219.910156c-.097657.21875-.234376.417969-.402344.589844l-2.808594 2.804687c-.070312.070313-.144531.132813-.226562.191407.234374.324219.480468.644531.730468.960937l2.304688-2.304687c.589844-.589844.75-1.484375.402344-2.242188zm0 0" fill-opacity=".235294"/><path d="m164.203069-41.922778c-4.999522 4.905781-6.28065 12.498806-3.062207 18.716963 9.124129 30.99704 30.028382 60.994175 55.463453 86.17927 25.216342 25.435071 55.182231 46.370572 86.179271 55.4947 6.249403 3.187196 13.842428 1.937315 18.716962-3.093454l22.466605-22.435358c6.249403-6.249403 6.249403-16.373436 0-22.591592l-29.934642-29.934642c-6.249403-6.249403-16.342189-6.249403-22.591592 0l-22.466605 22.435358c-.531199.562446-1.062398 1.187386-1.531104 1.812327-9.780316-7.12432-19.37315-15.311038-28.247302-24.278932-8.936647-8.842905-17.154612-18.435739-24.278932-28.247302.656188-.468706 1.249881-.968658 1.812327-1.531104l22.466605-22.435358c6.249403-6.249403 6.249403-16.373436 0-22.591592l-29.934641-29.934642c-6.249404-6.249403-16.34219-6.249403-22.591593 0zm0 0" fill="none" stroke="#212121" stroke-linecap="round" stroke-linejoin="round" stroke-width="3" transform="matrix(.125012 0 0 .125012 0 26.877566)"/><path d="m31.753906 5.78125c-14.660156 0-26.460937 10.621094-26.460937 23.816406 0 .167969 0 .335938.003906.5.289063-12.964844 11.980469-23.324218 26.457031-23.324218 14.472656 0 26.164063 10.355468 26.453125 23.320312.003907-.167969.007813-.332031.007813-.496094 0-13.195312-11.800782-23.816406-26.460938-23.816406zm-21.957031 40.664062c-.089844 2.816407-.917969 5.292969-1.800781 7.9375-.105469.316407-.085938.636719.027344.914063.972656-2.921875 1.875-5.640625 1.773437-8.851563zm0 0" fill="#fff" fill-opacity=".392157"/><path d="m58.207031 29.15625c-.257812 12.988281-11.957031 23.375-26.453125 23.375-3.550781 0-6.933594-.625-10.023437-1.753906-.867188.722656-1.933594 1.390625-3.125 1.992187-2.765625 1.398438-6.195313 2.445313-9.328125 2.488281h-.003906c-.601563.003907-1.089844-.378906-1.269532-.890624-.003906.003906-.003906.011718-.007812.015624-.289063.867188.359375 1.761719 1.277344 1.757813h.003906c3.132812-.042969 6.5625-1.089844 9.328125-2.488281 1.191406-.605469 2.257812-1.269532 3.125-1.996094 3.089843 1.132812 6.472656 1.753906 10.023437 1.753906 14.660156 0 26.460938-10.621094 26.460938-23.8125 0-.148437-.003906-.296875-.007813-.441406zm-52.910156.011719c-.003906.140625-.003906.285156-.003906.429687 0 4.714844 1.507812 9.101563 4.113281 12.789063.242188 1.097656.363281 2.128906.394531 3.113281.03125-1.246094-.078125-2.5625-.394531-3.992188-2.523438-3.574218-4.015625-7.796874-4.109375-12.339843zm0 0" fill-opacity=".235294"/><path d="m74.180416 234.082115h.031247c25.060107-.343717 52.494987-8.717918 74.617874-19.904349 9.53034-4.843288 18.060776-10.155281 24.997613-15.967226 24.71639 9.061635 51.776306 14.029911 80.179844 14.029911 117.270051 0 211.667286-84.960637 211.667286-190.48181 0-105.552421-94.397235-190.513057-211.667286-190.513057-117.270052 0-211.667287 84.960636-211.667287 190.513057 0 37.715148 12.061348 72.805547 32.903108 102.30273 8.311706 37.49642-1.062399 65.275017-11.280173 95.959587-2.312279 6.936837 2.874725 14.092404 10.217774 14.061157zm0 0" fill="none" stroke="#212121" stroke-linecap="round" stroke-linejoin="round" stroke-width="3" transform="matrix(.125012 0 0 .125012 0 26.877566)"/><path d="m31.753906 8.429688c-13.09375 0-23.824218 9.371093-23.824218 21.175781 0 11.808593 10.730468 21.179687 23.824218 21.179687 13.089844 0 23.824219-9.371094 23.824219-21.179687 0-11.804688-10.734375-21.175781-23.824219-21.175781zm0 2.664062c11.828125 0 21.15625 8.328125 21.15625 18.511719 0 10.183593-9.328125 18.511719-21.15625 18.511719s-21.160156-8.328126-21.160156-18.511719c0-10.183594 9.332031-18.511719 21.160156-18.511719zm0 0" fill="url(#j)"/><path d="m31.753906 8.429688c-13.09375 0-23.828125 9.371093-23.828125 21.175781 0 .140625.003907.277343.007813.417969.25-11.605469 10.882812-20.757813 23.820312-20.757813 12.933594 0 23.566406 9.152344 23.820313 20.757813.003906-.140626.003906-.277344.003906-.417969 0-11.804688-10.734375-21.175781-23.824219-21.175781zm-21.152344 21.679687c-.003906.164063-.007812.332031-.007812.5 0 .144531.003906.285156.007812.425781 0-.03125 0-.058594 0-.089844.300782 9.953126 9.515626 18.011719 21.152344 18.011719 11.632813 0 20.847656-8.058593 21.148438-18.011719.003906.03125.003906.058594.003906.089844.003906-.140625.003906-.28125.003906-.425781 0-.167969 0-.335937-.007812-.5-.300782 9.953125-9.515625 18.007813-21.148438 18.007813-11.636718 0-20.851562-8.054688-21.152344-18.007813zm0 0" fill="#fff"/><path d="m31.753906 11.085938c-11.828125 0-21.160156 8.328124-21.160156 18.511718 0 .164063.003906.332032.007812.496094.296876-9.957031 9.515626-18.015625 21.152344-18.015625 11.636719 0 20.851563 8.058594 21.148438 18.015625.007812-.164062.007812-.332031.007812-.496094 0-10.183594-9.328125-18.511718-21.15625-18.511718zm-23.820312 19.007812c-.003906.164062-.007813.328125-.007813.496094 0 11.804687 10.734375 21.179687 23.828125 21.179687 13.089844 0 23.824219-9.375 23.824219-21.179687 0-.167969-.003906-.332032-.007813-.496094-.292968 11.570312-10.910156 20.683594-23.816406 20.683594-12.910156 0-23.523437-9.113282-23.820312-20.683594zm0 0" fill-opacity=".235294"/><path d="m254.006994-147.568939c-104.739998 0-190.575551 74.961591-190.575551 169.390074 0 94.459729 85.835553 169.421321 190.575551 169.421321 104.70875 0 190.57555-74.961592 190.57555-169.421321 0-94.428483-85.8668-169.390074-190.57555-169.390074zm0 21.310465c94.615964 0 169.233839 66.618638 169.233839 148.079609s-74.617875 148.079609-169.233839 148.079609c-94.615965 0-169.265086-66.618638-169.265086-148.079609s74.649121-148.079609 169.265086-148.079609zm0 0" fill="none" stroke="#212121" stroke-linecap="round" stroke-linejoin="round" stroke-width="3" transform="matrix(.125012 0 0 .125012 0 26.877566)"/></svg>