<svg xmlns="http://www.w3.org/2000/svg" xmlns:xlink="http://www.w3.org/1999/xlink" width="64pt" height="64pt" viewBox="0 0 64 64"><defs><radialGradient id="g" gradientUnits="userSpaceOnUse" cx="450.909" cy="189.579" fx="450.909" fy="189.579" r="21.167" gradientTransform="matrix(0 -.15626 -.28128 0 84.416 127.19)"><stop offset="0" stop-opacity=".314"/><stop offset=".222" stop-opacity=".275"/><stop offset="1" stop-opacity="0"/></radialGradient><radialGradient id="h" gradientUnits="userSpaceOnUse" cx="450.909" cy="189.579" fx="450.909" fy="189.579" r="21.167" gradientTransform="matrix(0 .15626 .28128 0 -20.91 -15.055)"><stop offset="0" stop-opacity=".314"/><stop offset=".222" stop-opacity=".275"/><stop offset="1" stop-opacity="0"/></radialGradient><radialGradient id="i" gradientUnits="userSpaceOnUse" cx="450.909" cy="189.579" fx="450.909" fy="189.579" r="21.167" gradientTransform="matrix(0 -.15626 .28128 0 -20.91 127.19)"><stop offset="0" stop-opacity=".314"/><stop offset=".222" stop-opacity=".275"/><stop offset="1" stop-opacity="0"/></radialGradient><radialGradient id="j" gradientUnits="userSpaceOnUse" cx="450.909" cy="189.579" fx="450.909" fy="189.579" r="21.167" gradientTransform="matrix(0 .15626 -.28128 0 84.416 -15.055)"><stop offset="0" stop-opacity=".314"/><stop offset=".222" stop-opacity=".275"/><stop offset="1" stop-opacity="0"/></radialGradient><filter id="a" filterUnits="objectBoundingBox" x="0%" y="0%" width="100%" height="100%"><feColorMatrix in="SourceGraphic" values="0 0 0 0 1 0 0 0 0 1 0 0 0 0 1 0 0 0 1 0"/></filter><mask id="l"><path fill-opacity=".988" d="M0 0h64v64H0z" filter="url(#a)"/></mask><linearGradient id="c" gradientUnits="userSpaceOnUse" x1="960" y1="1695.118" x2="960" y2="175.118" gradientTransform="matrix(.0441 0 0 .0441 -30.147 7.505)"><stop offset="0" stop-color="#bdbdbd"/><stop offset="1" stop-color="#e0e0e0"/></linearGradient><clipPath id="b"><path d="M0 0h64v64H0z"/></clipPath><g id="k" clip-path="url(#b)"><path d="M23.152 5.793a.657.657 0 0 0-.66.66v28.445H13.23c-2.457 0-3.585 3.059-1.722 4.657L30.03 55.43a2.643 2.643 0 0 0 3.446 0l18.52-15.875c1.866-1.598.733-4.657-1.72-4.657h-5.953-3.308V6.453a.66.66 0 0 0-.664-.66zm0 0" fill="url(#c)"/></g><mask id="n"><path fill-opacity=".988" d="M0 0h64v64H0z" filter="url(#a)"/></mask><clipPath id="d"><path d="M0 0h64v64H0z"/></clipPath><g id="m" clip-path="url(#d)"><path d="M23.152 5.957a.66.66 0 0 0-.66.664v.66c0-.367.293-.66.66-.66h17.2a.66.66 0 0 1 .664.66v-.66a.664.664 0 0 0-.664-.664zm-9.922 29.11c-1.742 0-2.816 1.535-2.628 2.995.152-1.23 1.152-2.335 2.628-2.335h9.262v-.66H19.56zm31.094 0h-3.308v.66h9.261c1.477 0 2.473 1.105 2.63 2.336.183-1.461-.891-2.997-2.63-2.997zm0 0" fill="#fff" fill-opacity=".784"/></g><mask id="p"><path fill-opacity=".988" d="M0 0h64v64H0z" filter="url(#a)"/></mask><clipPath id="e"><path d="M0 0h64v64H0z"/></clipPath><g id="o" clip-path="url(#e)"><path d="M10.59 37.14c-.07.786.203 1.618.918 2.231L30.03 55.246a2.652 2.652 0 0 0 3.446 0l18.52-15.875a2.573 2.573 0 0 0 .917-2.23 2.587 2.587 0 0 1-.918 1.742l-18.52 15.875a2.643 2.643 0 0 1-3.445 0L11.508 38.883a2.587 2.587 0 0 1-.918-1.742zm0 0" fill-opacity=".235"/></g><linearGradient id="q" gradientUnits="userSpaceOnUse" x1="285.75" y1="267.364" x2="285.75" y2="-134.803" gradientTransform="translate(0 22.644) scale(.12501)"><stop offset="0" stop-color="#7986cb"/><stop offset="1" stop-color="#3f51b5"/></linearGradient><mask id="s"><path fill-opacity=".988" d="M0 0h64v64H0z" filter="url(#a)"/></mask><clipPath id="f"><path d="M0 0h64v64H0z"/></clipPath><g id="r" clip-path="url(#f)"><path d="M23.332 5.48c-.676 0-1.352.258-1.871.778l-1.871 1.87a2.643 2.643 0 0 0 0 3.743l2.902 2.899v7.296l-2.902 2.899a2.643 2.643 0 0 0 0 3.742l1.871 1.871c.3.3.656.516 1.031.64v3.68H13.23c-2.457 0-3.585 3.06-1.722 4.657L30.03 55.43a2.643 2.643 0 0 0 3.446 0l18.52-15.875c1.866-1.598.734-4.657-1.72-4.657h-5.953-3.308v-3.68c.375-.124.726-.34 1.027-.64l1.871-1.87a2.636 2.636 0 0 0 0-3.743l-2.898-2.899V14.77l2.898-2.899a2.636 2.636 0 0 0 0-3.742l-1.871-1.871a2.636 2.636 0 0 0-3.117-.465H24.582c-.39-.211-.82-.313-1.25-.313zm0 0" fill="none" stroke-width=".37509412" stroke-linecap="round" stroke-linejoin="round" stroke="#212121"/></g></defs><path d="M31.754 56.066h5.293v-2.644h-5.293zm0 0" fill="url(#g)"/><path d="M31.754 56.066H26.46v2.649h5.293zm0 0" fill="url(#h)"/><path d="M31.754 56.066H26.46v-2.644h5.293zm0 0" fill="url(#i)"/><path d="M31.754 56.066h5.293v2.649h-5.293zm0 0" fill="url(#j)"/><use xlink:href="#k" mask="url(#l)"/><use xlink:href="#m" mask="url(#n)"/><use xlink:href="#o" mask="url(#p)"/><path d="M42.043 6.258a2.636 2.636 0 0 0-3.742 0l-6.547 6.547-6.55-6.547a2.636 2.636 0 0 0-3.743 0l-1.871 1.87a2.643 2.643 0 0 0 0 3.743l6.55 6.547-6.55 6.547a2.643 2.643 0 0 0 0 3.742l1.87 1.871a2.636 2.636 0 0 0 3.743 0l6.55-6.547 6.548 6.547a2.636 2.636 0 0 0 3.742 0l1.871-1.871a2.636 2.636 0 0 0 0-3.742l-6.547-6.547 6.547-6.547a2.636 2.636 0 0 0 0-3.742zm0 0" fill="url(#q)"/><path d="M23.121 5.48c-.308 0-.613.051-.906.16-.008.223-.074.419-.383.528-.34.43-.637 1.137.211.879.207-.637.855-1.531 1.59-1.156.629.168 1.219 1.093 1.754.757l-.395-.39a2.636 2.636 0 0 0-1.87-.778zm16.137.094a2.614 2.614 0 0 0-1.168.684l-2.23 2.226c.019 0 .035-.004.05-.02.508-.667.774-.089 1.246.243.422.395.696-.734.469-1.055-.133-.511.512-.89.742-1.308.711-.457.11.578.086.941-.355 1.067 1.59.031.309.828-.344.344-.473.856-1 1.11-.285.347-1.375.183-1.227-.36-.398-.625-.3.75-.437.742-.657-.195-.856.54-1.266.891-.316.367-1.434.14-.602.703.61.703-.12.57-.625.758-.71.125-.59.742-.574 1.3.012.31.696.766 1.04.552.69-.075.519-.922 1.027-1.18.422-.363.722-.695 1.359-.707.293.281.887.703 1.125.933-.664.723.305.665.398.004.329-.363-1.078-1.218-.152-.84.617.2.473.829.75 1.254.484.82.535.207.582-.43.832-.296.887 1.493 1.965 1.11.172.004.309.035.41.082l2.168-2.164a2.59 2.59 0 0 0 .617-.973 15.752 15.752 0 0 0-3.246-4.015c-.203.27-.422.445-.605.101-.39-.414-.711-.796-.23-.793a14.536 14.536 0 0 0-.747-.543 5.412 5.412 0 0 1-.234-.074zm-17.586.336c-.149.102-.29.215-.422.348l-1.59 1.59c.7-.422 1.52-.782 1.953-1.47a.82.82 0 0 0 .059-.468zm2.238.559c-.848.25-.156.804.399.797.66-.051.046-.793-.399-.797zm-1.12.824c-.083-.004-.15.012-.188.059-.204.5-.758.933-.547 1.507-.621.102-.91.551-1.094 1.106-.188.066-.129-1.09-.836-.985-.39-.007-.855-.468-.79-.808a2.641 2.641 0 0 0 .044 3.7l1.226 1.222c.137-.453.696-.317 1.133-.422.39-.547 1.153-.371 1.645-.656.422-.528.722-.989-.195-.793-.563.004-1.41.109-.508-.387.379-.473.894-.488 1.441-.488.414-.172 1.3-.215 1.067-.825-.473-.39-.856-.398-.72-1.043.036-.937-.984.04-.968-.375.293-.382-.352-.8-.71-.812zm12.276 1.984l-.886.891c.086.25.425.246.808-.055.332-.203.27-.511.078-.836zm-10.129 1.036c.098.55.137 1.421.54.484 0-.184-.399-.324-.54-.485zm11.13 3.578c-.77-.008-1.544.195-2.286.402-.906 1.004-2.336 1.617-2.687 3.02-.52.519.011.93-.149 1.34-.504.445-.398.949-.078 1.472.317 1.223 1.684 1.637 2.434 2.54.433-.43.847-.852 1.23-.337.508-.45.828-.508 1.258-.113.54.09 1.254-.246 1.59.324.5.371-.508 1.094.113 1.45.578.366.301 1.046.34 1.613.324.507.602 1.011.047 1.472-.496 1.395.36 2.703.855 3.977v.004c.387.203.813.304 1.239.3a15.99 15.99 0 0 0 2.093-1.851.53.53 0 0 0-.136-.117c-.727-.426.078-.75.445-1.082.379-.29 1.094-.606.762-1.184-.188-.777-.043-1.594-.09-2.39l.14-.278-6.03-6.035 3.284-3.29c-.324-.03-.66-.148-.937-.253-.508-.277-1.129-.125-1.399.398-.597-.515-1.02-1.332-1.886-1.378-.051 0-.102-.004-.153-.004zm-13.044 7.43l-3.644 3.644a2.66 2.66 0 0 0-.688 1.191c.473.801.98 1.57 1.598 2.274.473.414.418.984.367 1.554l.594.594a2.636 2.636 0 0 0 3.742 0l.399-.398a.995.995 0 0 1 .265-.461 1.38 1.38 0 0 1 .367-.172l1.043-1.04c.102-.452-.148-.984-.136-1.456.363-.438 1.008-.735 1.191-1.266.524-1.156-.816-1.293-1.605-1.703-.875-.387-1.899-.656-2.157-1.687-.336-.364-1.222.058-1.238-.727-.02-.14-.05-.254-.098-.348zm0 0" fill="#fff" fill-opacity=".314"/><path d="M23.332 5.477a2.64 2.64 0 0 0-1.871.78L19.59 8.13a2.639 2.639 0 0 0-.735 2.332 2.62 2.62 0 0 1 .735-1.406l1.87-1.871a2.636 2.636 0 0 1 3.743 0l6.55 6.546 6.548-6.546a2.636 2.636 0 0 1 3.742 0l1.871 1.87c.398.4.645.891.738 1.407a2.642 2.642 0 0 0-.738-2.332l-1.871-1.871a2.636 2.636 0 0 0-3.742 0l-6.547 6.547-6.55-6.547a2.633 2.633 0 0 0-1.872-.781zm2.797 12.882l-6.54 6.606a2.66 2.66 0 0 0-.734 2.336c.09-.516.336-1.008.735-1.41l7.531-7.532zm11.246 0h-.992l7.531 7.532c.402.402.645.894.738 1.41a2.653 2.653 0 0 0-.738-2.336zm0 0" fill="#fff" fill-opacity=".471"/><path d="M23.332 31.328a2.652 2.652 0 0 1-1.871-.777L19.59 28.68a2.647 2.647 0 0 1-.735-2.336c.09.515.336 1.008.735 1.41l1.87 1.871a2.643 2.643 0 0 0 3.743 0l6.55-6.55 6.548 6.55a2.643 2.643 0 0 0 3.742 0l1.871-1.871c.398-.402.645-.895.738-1.41a2.65 2.65 0 0 1-.738 2.336l-1.871 1.87a2.643 2.643 0 0 1-3.742 0L31.754 24l-6.55 6.55a2.645 2.645 0 0 1-1.872.778zm2.797-12.969l-6.54-6.52a2.643 2.643 0 0 1-.734-2.335 2.63 2.63 0 0 0 .735 1.41l7.531 7.445zm11.246 0h-.992l7.531-7.445c.402-.398.645-.894.738-1.41.145.824-.101 1.7-.738 2.336zm0 0" fill-opacity=".235"/><use xlink:href="#r" mask="url(#s)"/><path d="M42.043 6.258a2.636 2.636 0 0 0-3.742 0l-6.547 6.547-6.55-6.547a2.636 2.636 0 0 0-3.743 0l-1.871 1.87a2.643 2.643 0 0 0 0 3.743l6.55 6.547-6.55 6.547a2.643 2.643 0 0 0 0 3.742l1.87 1.871a2.636 2.636 0 0 0 3.743 0l6.55-6.547 6.548 6.547a2.636 2.636 0 0 0 3.742 0l1.871-1.871a2.636 2.636 0 0 0 0-3.742l-6.547-6.547 6.547-6.547a2.636 2.636 0 0 0 0-3.742zm0 0" fill="none" stroke-width=".37503000000000003" stroke-linecap="round" stroke-linejoin="round" stroke="#212121"/></svg>