<?xml version="1.0" encoding="UTF-8"?>
<svg xmlns="http://www.w3.org/2000/svg" xmlns:xlink="http://www.w3.org/1999/xlink" width="64px" height="64px" viewBox="0 0 64 64" version="1.1">
<defs>
<radialGradient id="radial0" gradientUnits="userSpaceOnUse" cx="450.908936" cy="189.579361" fx="450.908936" fy="189.579361" r="21.166656" gradientTransform="matrix(0.000000348341,-0.156265,-0.281277,-0.000000203077,84.415651,127.190665)">
<stop offset="0" style="stop-color:rgb(0%,0%,0%);stop-opacity:0.313726;"/>
<stop offset="0.222222" style="stop-color:rgb(0%,0%,0%);stop-opacity:0.27451;"/>
<stop offset="1" style="stop-color:rgb(0%,0%,0%);stop-opacity:0;"/>
</radialGradient>
<radialGradient id="radial1" gradientUnits="userSpaceOnUse" cx="450.908936" cy="189.579361" fx="450.908936" fy="189.579361" r="21.166656" gradientTransform="matrix(-0.000000348341,0.156265,0.281277,0.000000203077,-20.909582,-15.054958)">
<stop offset="0" style="stop-color:rgb(0%,0%,0%);stop-opacity:0.313726;"/>
<stop offset="0.222222" style="stop-color:rgb(0%,0%,0%);stop-opacity:0.27451;"/>
<stop offset="1" style="stop-color:rgb(0%,0%,0%);stop-opacity:0;"/>
</radialGradient>
<radialGradient id="radial2" gradientUnits="userSpaceOnUse" cx="450.908936" cy="189.579361" fx="450.908936" fy="189.579361" r="21.166656" gradientTransform="matrix(-0.000000348341,-0.156265,0.281277,-0.000000203077,-20.909582,127.190665)">
<stop offset="0" style="stop-color:rgb(0%,0%,0%);stop-opacity:0.313726;"/>
<stop offset="0.222222" style="stop-color:rgb(0%,0%,0%);stop-opacity:0.27451;"/>
<stop offset="1" style="stop-color:rgb(0%,0%,0%);stop-opacity:0;"/>
</radialGradient>
<radialGradient id="radial3" gradientUnits="userSpaceOnUse" cx="450.908936" cy="189.579361" fx="450.908936" fy="189.579361" r="21.166656" gradientTransform="matrix(0.000000348341,0.156265,-0.281277,0.000000203077,84.415648,-15.054959)">
<stop offset="0" style="stop-color:rgb(0%,0%,0%);stop-opacity:0.313726;"/>
<stop offset="0.222222" style="stop-color:rgb(0%,0%,0%);stop-opacity:0.27451;"/>
<stop offset="1" style="stop-color:rgb(0%,0%,0%);stop-opacity:0;"/>
</radialGradient>
<filter id="alpha" filterUnits="objectBoundingBox" x="0%" y="0%" width="100%" height="100%">
  <feColorMatrix type="matrix" in="SourceGraphic" values="0 0 0 0 1 0 0 0 0 1 0 0 0 0 1 0 0 0 1 0"/>
</filter>
<mask id="mask0">
  <g filter="url(#alpha)">
<rect x="0" y="0" width="64" height="64" style="fill:rgb(0%,0%,0%);fill-opacity:0.99;stroke:none;"/>
  </g>
</mask>
<linearGradient id="linear0" gradientUnits="userSpaceOnUse" x1="960" y1="1695.118164" x2="960.000122" y2="175.118134" gradientTransform="matrix(0.0441056,0,0,0.0441056,-30.147119,7.505387)">
<stop offset="0" style="stop-color:rgb(74.117649%,74.117649%,74.117649%);stop-opacity:1;"/>
<stop offset="1" style="stop-color:rgb(87.843138%,87.843138%,87.843138%);stop-opacity:1;"/>
</linearGradient>
<clipPath id="clip1">
  <rect x="0" y="0" width="64" height="64"/>
</clipPath>
<g id="surface5" clip-path="url(#clip1)">
<path style=" stroke:none;fill-rule:nonzero;fill:url(#linear0);" d="M 23.152344 5.792969 C 22.785156 5.792969 22.492188 6.085938 22.492188 6.453125 L 22.492188 34.898438 L 19.5625 34.898438 C 19.558594 34.898438 19.558594 34.898438 19.558594 34.898438 L 13.230469 34.898438 C 10.773438 34.898438 9.644531 37.957031 11.507812 39.554688 L 30.03125 55.429688 C 31.023438 56.28125 32.484375 56.28125 33.476562 55.429688 L 51.996094 39.554688 C 53.863281 37.957031 52.730469 34.898438 50.277344 34.898438 L 44.324219 34.898438 C 44.324219 34.898438 44.324219 34.898438 44.320312 34.898438 L 41.015625 34.898438 L 41.015625 6.453125 C 41.015625 6.085938 40.71875 5.792969 40.351562 5.792969 Z M 23.152344 5.792969 "/>
</g>
<mask id="mask1">
  <g filter="url(#alpha)">
<rect x="0" y="0" width="64" height="64" style="fill:rgb(0%,0%,0%);fill-opacity:0.99;stroke:none;"/>
  </g>
</mask>
<clipPath id="clip2">
  <rect x="0" y="0" width="64" height="64"/>
</clipPath>
<g id="surface8" clip-path="url(#clip2)">
<path style=" stroke:none;fill-rule:nonzero;fill:rgb(100%,100%,100%);fill-opacity:0.784314;" d="M 23.152344 5.957031 C 22.785156 5.957031 22.492188 6.253906 22.492188 6.621094 L 22.492188 7.28125 C 22.492188 6.914062 22.785156 6.621094 23.152344 6.621094 L 40.351562 6.621094 C 40.71875 6.621094 41.015625 6.914062 41.015625 7.28125 L 41.015625 6.621094 C 41.015625 6.253906 40.71875 5.957031 40.351562 5.957031 Z M 13.230469 35.066406 C 11.488281 35.066406 10.414062 36.601562 10.601562 38.0625 C 10.753906 36.832031 11.753906 35.726562 13.230469 35.726562 L 19.558594 35.726562 C 19.558594 35.726562 19.558594 35.726562 19.5625 35.726562 L 22.492188 35.726562 L 22.492188 35.066406 L 19.5625 35.066406 C 19.558594 35.066406 19.558594 35.066406 19.558594 35.066406 Z M 44.324219 35.066406 C 44.324219 35.066406 44.324219 35.066406 44.320312 35.066406 L 41.015625 35.066406 L 41.015625 35.726562 L 44.320312 35.726562 C 44.324219 35.726562 44.324219 35.726562 44.324219 35.726562 L 50.277344 35.726562 C 51.753906 35.726562 52.75 36.832031 52.90625 38.0625 C 53.089844 36.601562 52.015625 35.066406 50.277344 35.066406 Z M 44.324219 35.066406 "/>
</g>
<mask id="mask2">
  <g filter="url(#alpha)">
<rect x="0" y="0" width="64" height="64" style="fill:rgb(0%,0%,0%);fill-opacity:0.99;stroke:none;"/>
  </g>
</mask>
<clipPath id="clip3">
  <rect x="0" y="0" width="64" height="64"/>
</clipPath>
<g id="surface11" clip-path="url(#clip3)">
<path style=" stroke:none;fill-rule:nonzero;fill:rgb(0%,0%,0%);fill-opacity:0.235294;" d="M 10.589844 37.140625 C 10.519531 37.925781 10.792969 38.757812 11.507812 39.371094 L 30.03125 55.246094 C 31.023438 56.09375 32.484375 56.09375 33.476562 55.246094 L 51.996094 39.371094 C 52.714844 38.757812 52.988281 37.925781 52.914062 37.140625 C 52.855469 37.769531 52.566406 38.394531 51.996094 38.882812 L 33.476562 54.757812 C 32.484375 55.609375 31.023438 55.609375 30.03125 54.757812 L 11.507812 38.882812 C 10.9375 38.394531 10.648438 37.769531 10.589844 37.140625 Z M 10.589844 37.140625 "/>
</g>
<linearGradient id="linear1" gradientUnits="userSpaceOnUse" x1="285.75" y1="267.363831" x2="285.75" y2="-134.802826" gradientTransform="matrix(0.125012,0,0,0.125012,0,22.644182)">
<stop offset="0" style="stop-color:rgb(47.450981%,52.549022%,79.607844%);stop-opacity:1;"/>
<stop offset="1" style="stop-color:rgb(24.705882%,31.764707%,70.980394%);stop-opacity:1;"/>
</linearGradient>
<mask id="mask3">
  <g filter="url(#alpha)">
<rect x="0" y="0" width="64" height="64" style="fill:rgb(0%,0%,0%);fill-opacity:0.99;stroke:none;"/>
  </g>
</mask>
<clipPath id="clip4">
  <rect x="0" y="0" width="64" height="64"/>
</clipPath>
<g id="surface14" clip-path="url(#clip4)">
<path style="fill:none;stroke-width:11.338583;stroke-linecap:round;stroke-linejoin:round;stroke:rgb(12.941177%,12.941177%,12.941177%);stroke-opacity:1;stroke-miterlimit:4;" d="M 705.405115 165.692847 C 684.973994 165.692847 664.542873 173.487379 648.835711 189.194541 L 592.266307 245.763945 C 560.970082 277.060171 560.970082 327.488429 592.266307 358.902753 L 680.013838 446.532185 L 680.013838 667.141051 L 592.266307 754.770482 C 560.970082 786.184807 560.970082 836.613065 592.266307 867.90929 L 648.835711 924.478694 C 657.929331 933.572315 668.676337 940.067758 680.013838 943.846925 L 680.013838 1055.096149 L 591.439614 1055.096149 C 591.321515 1055.096149 591.321515 1055.096149 591.321515 1055.096149 L 400.001193 1055.096149 C 325.716944 1055.096149 291.586343 1147.567638 347.91955 1195.870115 L 907.944839 1675.824307 C 937.941976 1701.569881 982.110989 1701.569881 1012.108126 1675.824307 L 1572.015317 1195.870115 C 1628.466622 1147.567638 1594.217922 1055.096149 1520.051773 1055.096149 L 1340.068951 1055.096149 C 1340.068951 1055.096149 1340.068951 1055.096149 1339.950852 1055.096149 L 1240.039128 1055.096149 L 1240.039128 943.846925 C 1251.376628 940.067758 1262.005535 933.572315 1271.099155 924.478694 L 1327.668559 867.90929 C 1359.082884 836.613065 1359.082884 786.184807 1327.668559 754.770482 L 1240.039128 667.141051 L 1240.039128 446.532185 L 1327.668559 358.902753 C 1359.082884 327.488429 1359.082884 277.060171 1327.668559 245.763945 L 1271.099155 189.194541 C 1245.47168 163.567066 1207.089517 158.843107 1176.856182 175.140764 L 743.196784 175.140764 C 731.386887 168.76342 718.396001 165.692847 705.405115 165.692847 Z M 705.405115 165.692847 " transform="matrix(0.0330761,0,0,0.0330761,0,0)"/>
</g>
</defs>
<g id="surface1">
<path style=" stroke:none;fill-rule:nonzero;fill:url(#radial0);" d="M 31.753906 56.066406 L 37.046875 56.066406 L 37.046875 53.421875 L 31.753906 53.421875 Z M 31.753906 56.066406 "/>
<path style=" stroke:none;fill-rule:nonzero;fill:url(#radial1);" d="M 31.753906 56.066406 L 26.460938 56.066406 L 26.460938 58.714844 L 31.753906 58.714844 Z M 31.753906 56.066406 "/>
<path style=" stroke:none;fill-rule:nonzero;fill:url(#radial2);" d="M 31.753906 56.066406 L 26.460938 56.066406 L 26.460938 53.421875 L 31.753906 53.421875 Z M 31.753906 56.066406 "/>
<path style=" stroke:none;fill-rule:nonzero;fill:url(#radial3);" d="M 31.753906 56.066406 L 37.046875 56.066406 L 37.046875 58.714844 L 31.753906 58.714844 Z M 31.753906 56.066406 "/>
<use xlink:href="#surface5" mask="url(#mask0)"/>
<use xlink:href="#surface8" mask="url(#mask1)"/>
<use xlink:href="#surface11" mask="url(#mask2)"/>
<path style=" stroke:none;fill-rule:nonzero;fill:url(#linear1);" d="M 42.042969 6.257812 C 41.007812 5.21875 39.339844 5.21875 38.300781 6.257812 L 31.753906 12.804688 L 25.203125 6.257812 C 24.167969 5.21875 22.5 5.21875 21.460938 6.257812 L 19.589844 8.128906 C 18.554688 9.164062 18.554688 10.832031 19.589844 11.871094 L 26.140625 18.417969 L 19.589844 24.964844 C 18.554688 26.003906 18.554688 27.671875 19.589844 28.707031 L 21.460938 30.578125 C 22.5 31.617188 24.167969 31.617188 25.203125 30.578125 L 31.753906 24.03125 L 38.300781 30.578125 C 39.339844 31.617188 41.007812 31.617188 42.042969 30.578125 L 43.914062 28.707031 C 44.953125 27.671875 44.953125 26.003906 43.914062 24.964844 L 37.367188 18.417969 L 43.914062 11.871094 C 44.953125 10.832031 44.953125 9.164062 43.914062 8.128906 Z M 42.042969 6.257812 "/>
<path style=" stroke:none;fill-rule:nonzero;fill:rgb(100%,100%,100%);fill-opacity:0.313726;" d="M 23.121094 5.480469 C 22.8125 5.480469 22.507812 5.53125 22.214844 5.640625 C 22.207031 5.863281 22.140625 6.058594 21.832031 6.167969 C 21.492188 6.597656 21.195312 7.304688 22.042969 7.046875 C 22.25 6.410156 22.898438 5.515625 23.632812 5.890625 C 24.261719 6.058594 24.851562 6.984375 25.386719 6.648438 L 24.992188 6.257812 C 24.472656 5.738281 23.796875 5.480469 23.121094 5.480469 Z M 39.257812 5.574219 C 38.832031 5.691406 38.425781 5.917969 38.089844 6.257812 L 35.859375 8.484375 C 35.878906 8.484375 35.894531 8.480469 35.910156 8.464844 C 36.417969 7.796875 36.683594 8.375 37.15625 8.707031 C 37.578125 9.101562 37.851562 7.972656 37.625 7.652344 C 37.492188 7.140625 38.136719 6.761719 38.367188 6.34375 C 39.078125 5.886719 38.476562 6.921875 38.453125 7.285156 C 38.097656 8.351562 40.042969 7.316406 38.761719 8.113281 C 38.417969 8.457031 38.289062 8.96875 37.761719 9.222656 C 37.476562 9.570312 36.386719 9.40625 36.535156 8.863281 C 36.136719 8.238281 36.234375 9.613281 36.097656 9.605469 C 35.441406 9.410156 35.242188 10.144531 34.832031 10.496094 C 34.515625 10.863281 33.398438 10.636719 34.230469 11.199219 C 34.839844 11.902344 34.109375 11.769531 33.605469 11.957031 C 32.894531 12.082031 33.015625 12.699219 33.03125 13.257812 C 33.042969 13.566406 33.726562 14.023438 34.070312 13.808594 C 34.761719 13.734375 34.589844 12.886719 35.097656 12.628906 C 35.519531 12.265625 35.820312 11.933594 36.457031 11.921875 C 36.75 12.203125 37.34375 12.625 37.582031 12.855469 C 36.917969 13.578125 37.886719 13.519531 37.980469 12.859375 C 38.308594 12.496094 36.902344 11.640625 37.828125 12.019531 C 38.445312 12.21875 38.300781 12.847656 38.578125 13.273438 C 39.0625 14.09375 39.113281 13.480469 39.160156 12.84375 C 39.992188 12.546875 40.046875 14.335938 41.125 13.953125 C 41.296875 13.957031 41.433594 13.988281 41.535156 14.035156 L 43.703125 11.871094 C 43.988281 11.585938 44.195312 11.253906 44.320312 10.898438 C 43.464844 9.386719 42.363281 8.027344 41.074219 6.882812 C 40.871094 7.152344 40.652344 7.328125 40.46875 6.984375 C 40.078125 6.570312 39.757812 6.1875 40.238281 6.191406 C 39.996094 6.003906 39.746094 5.820312 39.492188 5.648438 C 39.414062 5.625 39.335938 5.601562 39.257812 5.574219 Z M 21.671875 5.910156 C 21.523438 6.011719 21.382812 6.125 21.25 6.257812 L 19.660156 7.847656 C 20.359375 7.425781 21.179688 7.066406 21.613281 6.378906 C 21.683594 6.203125 21.699219 6.046875 21.671875 5.910156 Z M 23.910156 6.46875 C 23.0625 6.71875 23.753906 7.273438 24.308594 7.265625 C 24.96875 7.214844 24.355469 6.472656 23.910156 6.46875 Z M 22.789062 7.292969 C 22.707031 7.289062 22.640625 7.304688 22.601562 7.351562 C 22.398438 7.851562 21.84375 8.285156 22.054688 8.859375 C 21.433594 8.960938 21.144531 9.410156 20.960938 9.964844 C 20.773438 10.03125 20.832031 8.875 20.125 8.980469 C 19.734375 8.972656 19.269531 8.511719 19.335938 8.171875 C 18.34375 9.210938 18.355469 10.847656 19.378906 11.871094 L 20.605469 13.09375 C 20.742188 12.640625 21.300781 12.777344 21.738281 12.671875 C 22.128906 12.125 22.890625 12.300781 23.382812 12.015625 C 23.804688 11.488281 24.105469 11.027344 23.1875 11.222656 C 22.625 11.226562 21.777344 11.332031 22.679688 10.835938 C 23.058594 10.363281 23.574219 10.347656 24.121094 10.347656 C 24.535156 10.175781 25.421875 10.132812 25.1875 9.523438 C 24.714844 9.132812 24.332031 9.125 24.46875 8.480469 C 24.503906 7.542969 23.484375 8.519531 23.5 8.105469 C 23.792969 7.722656 23.148438 7.304688 22.789062 7.292969 Z M 35.066406 9.277344 L 34.179688 10.167969 C 34.265625 10.417969 34.605469 10.414062 34.988281 10.113281 C 35.320312 9.910156 35.257812 9.601562 35.066406 9.277344 Z M 24.9375 10.3125 C 25.035156 10.863281 25.074219 11.734375 25.476562 10.796875 C 25.476562 10.613281 25.078125 10.472656 24.9375 10.3125 Z M 36.066406 13.890625 C 35.296875 13.882812 34.523438 14.085938 33.78125 14.292969 C 32.875 15.296875 31.445312 15.910156 31.09375 17.3125 C 30.574219 17.832031 31.105469 18.242188 30.945312 18.652344 C 30.441406 19.097656 30.546875 19.601562 30.867188 20.125 C 31.183594 21.347656 32.550781 21.761719 33.300781 22.664062 C 33.734375 22.234375 34.148438 21.8125 34.53125 22.328125 C 35.039062 21.878906 35.359375 21.820312 35.789062 22.214844 C 36.328125 22.304688 37.042969 21.96875 37.378906 22.539062 C 37.878906 22.910156 36.871094 23.632812 37.492188 23.988281 C 38.070312 24.355469 37.792969 25.035156 37.832031 25.601562 C 38.15625 26.109375 38.433594 26.613281 37.878906 27.074219 C 37.382812 28.46875 38.238281 29.777344 38.734375 31.050781 C 38.734375 31.050781 38.734375 31.054688 38.734375 31.054688 C 39.121094 31.257812 39.546875 31.359375 39.972656 31.355469 C 40.722656 30.800781 41.425781 30.179688 42.066406 29.503906 C 42.035156 29.464844 41.992188 29.425781 41.929688 29.386719 C 41.203125 28.960938 42.007812 28.636719 42.375 28.304688 C 42.753906 28.015625 43.46875 27.699219 43.136719 27.121094 C 42.949219 26.34375 43.09375 25.527344 43.046875 24.730469 C 43.09375 24.636719 43.140625 24.542969 43.1875 24.453125 L 37.15625 18.417969 L 40.441406 15.128906 C 40.117188 15.097656 39.78125 14.980469 39.503906 14.875 C 38.996094 14.597656 38.375 14.75 38.105469 15.273438 C 37.507812 14.757812 37.085938 13.941406 36.21875 13.894531 C 36.167969 13.894531 36.117188 13.890625 36.066406 13.890625 Z M 23.023438 21.320312 L 19.378906 24.964844 C 19.035156 25.308594 18.808594 25.722656 18.691406 26.15625 C 19.164062 26.957031 19.671875 27.726562 20.289062 28.429688 C 20.761719 28.84375 20.707031 29.414062 20.65625 29.984375 L 21.25 30.578125 C 22.285156 31.617188 23.957031 31.617188 24.992188 30.578125 L 25.390625 30.179688 C 25.425781 30.03125 25.503906 29.878906 25.65625 29.71875 C 25.761719 29.640625 25.890625 29.59375 26.023438 29.546875 L 27.066406 28.507812 C 27.167969 28.054688 26.917969 27.523438 26.929688 27.050781 C 27.292969 26.613281 27.9375 26.316406 28.121094 25.785156 C 28.644531 24.628906 27.304688 24.492188 26.515625 24.082031 C 25.640625 23.695312 24.617188 23.425781 24.359375 22.394531 C 24.023438 22.03125 23.136719 22.453125 23.121094 21.667969 C 23.101562 21.527344 23.070312 21.414062 23.023438 21.320312 Z M 23.023438 21.320312 "/>
<path style=" stroke:none;fill-rule:nonzero;fill:rgb(100%,100%,100%);fill-opacity:0.470588;" d="M 23.332031 5.476562 C 22.65625 5.476562 21.980469 5.738281 21.460938 6.257812 L 19.589844 8.128906 C 18.953125 8.765625 18.710938 9.640625 18.855469 10.460938 C 18.945312 9.945312 19.191406 9.453125 19.589844 9.054688 L 21.460938 7.183594 C 22.5 6.144531 24.167969 6.144531 25.203125 7.183594 L 31.753906 13.730469 L 38.300781 7.183594 C 39.339844 6.144531 41.007812 6.144531 42.042969 7.183594 L 43.914062 9.054688 C 44.3125 9.453125 44.558594 9.945312 44.652344 10.460938 C 44.796875 9.640625 44.550781 8.765625 43.914062 8.128906 L 42.042969 6.257812 C 41.007812 5.21875 39.339844 5.21875 38.300781 6.257812 L 31.753906 12.804688 L 25.203125 6.257812 C 24.6875 5.738281 24.007812 5.476562 23.332031 5.476562 Z M 26.128906 18.359375 L 19.589844 24.964844 C 18.957031 25.605469 18.710938 26.480469 18.855469 27.300781 C 18.945312 26.785156 19.191406 26.292969 19.589844 25.890625 L 27.121094 18.359375 Z M 37.375 18.359375 L 36.382812 18.359375 L 43.914062 25.890625 C 44.316406 26.292969 44.558594 26.785156 44.652344 27.300781 C 44.796875 26.480469 44.550781 25.605469 43.914062 24.964844 Z M 37.375 18.359375 "/>
<path style=" stroke:none;fill-rule:nonzero;fill:rgb(0%,0%,0%);fill-opacity:0.235294;" d="M 23.332031 31.328125 C 22.65625 31.328125 21.980469 31.066406 21.460938 30.550781 L 19.589844 28.679688 C 18.953125 28.042969 18.710938 27.164062 18.855469 26.34375 C 18.945312 26.859375 19.191406 27.351562 19.589844 27.753906 L 21.460938 29.625 C 22.5 30.660156 24.167969 30.660156 25.203125 29.625 L 31.753906 23.074219 L 38.300781 29.625 C 39.339844 30.660156 41.007812 30.660156 42.042969 29.625 L 43.914062 27.753906 C 44.3125 27.351562 44.558594 26.859375 44.652344 26.34375 C 44.796875 27.164062 44.550781 28.042969 43.914062 28.679688 L 42.042969 30.550781 C 41.007812 31.585938 39.339844 31.585938 38.300781 30.550781 L 31.753906 24 L 25.203125 30.550781 C 24.6875 31.066406 24.007812 31.328125 23.332031 31.328125 Z M 26.128906 18.359375 L 19.589844 11.839844 C 18.953125 11.203125 18.710938 10.328125 18.855469 9.503906 C 18.945312 10.019531 19.191406 10.515625 19.589844 10.914062 L 27.121094 18.359375 Z M 37.375 18.359375 L 36.382812 18.359375 L 43.914062 10.914062 C 44.316406 10.515625 44.558594 10.019531 44.652344 9.503906 C 44.796875 10.328125 44.550781 11.203125 43.914062 11.839844 Z M 37.375 18.359375 "/>
<use xlink:href="#surface14" mask="url(#mask3)"/>
<path style="fill:none;stroke-width:3;stroke-linecap:round;stroke-linejoin:round;stroke:rgb(12.941177%,12.941177%,12.941177%);stroke-opacity:1;stroke-miterlimit:4;" d="M 336.311634 -164.94228 C 328.031175 -173.253987 314.688699 -173.253987 306.376992 -164.94228 L 254.006994 -112.572281 L 201.605748 -164.94228 C 193.325288 -173.253987 179.982812 -173.253987 171.671106 -164.94228 L 156.703786 -149.97496 C 148.423326 -141.6945 148.423326 -128.352024 156.703786 -120.040318 L 209.105031 -67.670319 L 156.703786 -15.30032 C 148.423326 -6.988614 148.423326 6.353862 156.703786 14.634321 L 171.671106 29.601642 C 179.982812 37.913348 193.325288 37.913348 201.605748 29.601642 L 254.006994 -22.768357 L 306.376992 29.601642 C 314.688699 37.913348 328.031175 37.913348 336.311634 29.601642 L 351.278955 14.634321 C 359.590661 6.353862 359.590661 -6.988614 351.278955 -15.30032 L 298.908956 -67.670319 L 351.278955 -120.040318 C 359.590661 -128.352024 359.590661 -141.6945 351.278955 -149.97496 Z M 336.311634 -164.94228 " transform="matrix(0.125012,0,0,0.125012,0,26.877566)"/>
</g>
</svg>
