<svg xmlns="http://www.w3.org/2000/svg" xmlns:xlink="http://www.w3.org/1999/xlink" width="512mm" height="512mm" viewBox="0 0 512 512"><defs><linearGradient id="i"><stop offset="0" stop-color="#f44336"/><stop offset="1" stop-color="#e57373"/></linearGradient><linearGradient id="c"><stop offset="0" stop-color="#b0bec5"/><stop offset="1" stop-color="#90a4ae"/></linearGradient><linearGradient id="h"><stop offset="0" stop-color="#26a69a"/><stop offset="1" stop-color="#4db6ac"/></linearGradient><linearGradient id="g"><stop offset="0" stop-color="#eee"/><stop offset="1" stop-color="#f5f5f5"/></linearGradient><linearGradient id="e"><stop offset="0" stop-color="#424242"/><stop offset="1" stop-color="#616161"/></linearGradient><linearGradient id="f"><stop offset="0" stop-color="#e0e0e0"/><stop offset="1" stop-color="#eee"/></linearGradient><linearGradient id="d"><stop offset="0" stop-color="#424242"/><stop offset="1" stop-color="#616161"/></linearGradient><linearGradient id="b"><stop offset="0" stop-opacity=".314"/><stop offset=".222" stop-opacity=".275"/><stop offset="1" stop-opacity="0"/></linearGradient><linearGradient id="a"><stop offset="0" stop-opacity=".275"/><stop offset="1" stop-opacity="0"/></linearGradient><linearGradient xlink:href="#a" id="j" gradientUnits="userSpaceOnUse" gradientTransform="translate(-963.083 423.333)" x1="254" y1="233.5" x2="254" y2="254.667"/><radialGradient xlink:href="#b" id="k" gradientUnits="userSpaceOnUse" gradientTransform="matrix(0 1.25 -2.25 0 -134.364 -1225.762)" cx="450.909" cy="189.579" fx="450.909" fy="189.579" r="21.167"/><radialGradient xlink:href="#b" id="l" gradientUnits="userSpaceOnUse" gradientTransform="matrix(0 1.25 -2.25 0 1283.802 87.905)" cx="450.909" cy="189.579" fx="450.909" fy="189.579" r="21.167"/><radialGradient xlink:href="#b" id="m" gradientUnits="userSpaceOnUse" gradientTransform="matrix(0 1.25 -2.25 0 1283.802 -1225.762)" cx="450.909" cy="189.579" fx="450.909" fy="189.579" r="21.167"/><radialGradient xlink:href="#b" id="n" gradientUnits="userSpaceOnUse" gradientTransform="matrix(0 1.25 -2.25 0 -134.364 87.905)" cx="450.909" cy="189.579" fx="450.909" fy="189.579" r="21.167"/><linearGradient xlink:href="#c" id="s" x1="254" y1="53.583" x2="254" y2="233.5" gradientUnits="userSpaceOnUse"/><linearGradient xlink:href="#d" id="q" x1="169.333" y1="64.167" x2="169.333" y2=".667" gradientUnits="userSpaceOnUse" gradientTransform="translate(-42.333 10.583)"/><linearGradient xlink:href="#d" id="r" gradientUnits="userSpaceOnUse" x1="169.333" y1="64.167" x2="169.333" y2=".667" gradientTransform="translate(243.417 10.583)"/><linearGradient xlink:href="#c" id="u" x1="254" y1="170" x2="254" y2="233.5" gradientUnits="userSpaceOnUse"/><linearGradient xlink:href="#c" id="o" x1="254" y1="74.75" x2="254" y2="-168.667" gradientUnits="userSpaceOnUse"/><linearGradient xlink:href="#e" id="t" x1="254" y1="127.667" x2="254" y2="212.333" gradientUnits="userSpaceOnUse"/><linearGradient xlink:href="#f" id="v" x1="275.167" y1="201.75" x2="275.167" y2="148.833" gradientUnits="userSpaceOnUse"/><linearGradient xlink:href="#g" id="p" x1="254" y1="85.333" x2="254" y2="-147.5" gradientUnits="userSpaceOnUse"/><linearGradient xlink:href="#h" id="w" x1="84.667" y1="106.5" x2="84.667" y2="90.625" gradientUnits="userSpaceOnUse"/><linearGradient xlink:href="#h" id="x" gradientUnits="userSpaceOnUse" x1="84.667" y1="106.5" x2="84.667" y2="90.625" gradientTransform="translate(47.625)"/><linearGradient xlink:href="#i" id="y" gradientUnits="userSpaceOnUse" gradientTransform="translate(338.667)" x1="84.667" y1="106.5" x2="84.667" y2="90.625"/></defs><g transform="translate(0 215)"><g transform="translate(963.083 -423.333)"><rect ry="0" y="656.833" x="-862.542" height="19.801" width="306.917" fill="url(#j)"/><path transform="scale(1 -1)" fill="url(#k)" d="M-555.625-656.833h42.333v21.167h-42.333z"/><path transform="scale(-1 1)" fill="url(#l)" d="M862.542 656.833h42.333V678h-42.333z"/><path transform="scale(-1)" fill="url(#m)" d="M862.542-656.833h42.333v21.167h-42.333z"/><path fill="url(#n)" d="M-555.625 656.833h42.333V678h-42.333z"/></g><rect width="296.333" height="158.75" x="105.833" y="-84" rx="10.583" ry="10.583" fill="url(#o)" stroke="#212121" stroke-width="3" stroke-linecap="square" stroke-linejoin="round"/><rect width="275.167" height="254" x="116.417" y="-168.667" rx="10.583" ry="10.583" fill="url(#p)" stroke="#212121" stroke-width="3" stroke-linecap="square" stroke-linejoin="round"/><rect width="52.917" height="63.5" x="84.667" y="11.25" rx="10.583" ry="10.583" fill="url(#q)" stroke="#212121" stroke-width="3" stroke-linecap="round"/><rect ry="10.583" rx="10.583" y="11.25" x="370.417" height="63.5" width="52.917" fill="url(#r)" stroke="#212121" stroke-width="3" stroke-linecap="round"/><rect width="423.333" height="127" x="42.333" y="53.583" rx="15.875" ry="15.875" fill="url(#s)" stroke="#212121" stroke-width="3" stroke-linecap="round"/><g transform="matrix(1.05263 0 0 1 198.298 -51.594)"><rect width="402.167" height="2.646" x="-148.167" y="125.021" rx="0" ry="0" fill-opacity=".196"/><rect ry="0" rx="0" y="127.667" x="-148.167" height="2.646" width="402.167" fill="#e6e6e6" fill-opacity=".588"/><rect ry="0" rx="0" y="126.344" x="-148.167" height="2.646" width="402.167" fill="#212121" fill-opacity=".992"/></g><rect width="317.5" height="84.667" x="95.25" y="127.667" rx="10.583" ry="10.583" fill="url(#t)" stroke="#212121" stroke-width="3" stroke-linecap="square" stroke-linejoin="round"/><path d="M63.5 180.583a21.12 21.12 0 0 1-21.167-21.166v-2.646A21.12 21.12 0 0 0 63.5 177.937h381a21.12 21.12 0 0 0 21.167-21.166v2.646a21.12 21.12 0 0 1-21.167 21.166z" fill-opacity=".196"/><path d="M63.5 53.583A21.12 21.12 0 0 0 42.333 74.75v2.646A21.12 21.12 0 0 1 63.5 56.229h381a21.12 21.12 0 0 1 21.167 21.167V74.75A21.12 21.12 0 0 0 444.5 53.583H246.063z" fill="#e6e6e6" fill-opacity=".588"/><path style="line-height:normal;font-variant-ligatures:normal;font-variant-position:normal;font-variant-caps:normal;font-variant-numeric:normal;font-variant-alternates:normal;font-feature-settings:normal;text-indent:0;text-align:start;text-decoration-line:none;text-decoration-style:solid;text-decoration-color:#000;text-transform:none;text-orientation:mixed;shape-padding:0;isolation:auto;mix-blend-mode:normal" d="M58.209 52.084c-9.6 0-17.375 7.775-17.375 17.375v95.25c0 9.6 7.775 17.375 17.375 17.375h391.582c9.6 0 17.375-7.775 17.375-17.375v-95.25c0-9.6-7.775-17.375-17.375-17.375zm0 3h391.582a14.31 14.31 0 0 1 14.375 14.375v95.25a14.31 14.31 0 0 1-14.375 14.375H58.209a14.31 14.31 0 0 1-14.375-14.375v-95.25a14.31 14.31 0 0 1 14.375-14.375z" color="#000" font-weight="400" font-family="sans-serif" white-space="normal" overflow="visible" fill="#212121"/><rect width="359.833" height="63.5" x="74.083" y="170" rx="10.583" ry="10.583" fill="url(#u)"/><rect width="359.833" height="63.5" x="74.083" y="170" rx="10.583" ry="10.583" fill="#fff" fill-opacity=".039"/><path d="M84.667 170a10.56 10.56 0 0 0-10.584 10.583v2.646a10.56 10.56 0 0 1 10.584-10.583h338.666a10.56 10.56 0 0 1 10.584 10.583v-2.646A10.56 10.56 0 0 0 423.333 170H84.667z" fill="#fff" fill-opacity=".392"/><rect ry="10.583" rx="10.583" y="170" x="74.083" height="63.5" width="359.833" fill="none" stroke="#212121" stroke-width="3" stroke-linecap="square" stroke-linejoin="round"/><rect width="285.75" height="52.917" x="111.125" y="148.833" rx="10.583" ry="10.583" fill="url(#v)" stroke="#212121" stroke-width="3" stroke-linecap="square" stroke-linejoin="round"/><rect width="31.75" height="15.875" x="68.792" y="90.625" rx="5.292" ry="5.292" fill="url(#w)" stroke="#212121" stroke-width="3" stroke-linecap="square" stroke-linejoin="round"/><rect ry="5.292" rx="5.292" y="90.625" x="116.417" height="15.875" width="31.75" fill="url(#x)" stroke="#212121" stroke-width="3" stroke-linecap="square" stroke-linejoin="round"/><rect width="31.75" height="15.875" x="407.458" y="90.625" rx="5.292" ry="5.292" fill="url(#y)" stroke="#212121" stroke-width="3" stroke-linecap="square" stroke-linejoin="round"/><rect ry="10.583" rx="10.583" y="170" x="74.083" height="63.5" width="359.833" fill="#fff" fill-opacity=".039"/><path d="M74.083 220.271v2.646A10.56 10.56 0 0 0 84.667 233.5h338.666a10.56 10.56 0 0 0 10.584-10.583v-2.646a10.56 10.56 0 0 1-10.584 10.583H84.667a10.56 10.56 0 0 1-10.584-10.583z" fill-opacity=".235"/></g></svg>