<?xml version="1.0" encoding="UTF-8"?>
<svg xmlns="http://www.w3.org/2000/svg" xmlns:xlink="http://www.w3.org/1999/xlink" width="22px" height="22px" viewBox="0 0 22 22" version="1.1">
<g id="surface1">
<path style=" stroke:none;fill-rule:nonzero;fill:rgb(93.333334%,93.333334%,93.333334%);fill-opacity:1;" d="M 10.820312 3.808594 L 11.007812 3.808594 C 12.632812 3.808594 13.945312 5.335938 13.945312 7.222656 C 13.945312 9.105469 12.632812 10.632812 11.007812 10.632812 L 10.820312 10.632812 C 9.199219 10.632812 7.882812 9.105469 7.882812 7.222656 C 7.882812 5.335938 9.199219 3.808594 10.820312 3.808594 Z M 10.820312 3.808594 "/>
<path style=" stroke:none;fill-rule:nonzero;fill:rgb(93.333334%,93.333334%,93.333334%);fill-opacity:1;" d="M 7.984375 10.808594 C 6.460938 11.527344 5.457031 12.789062 5.457031 14.234375 L 5.457031 17.453125 C 5.457031 17.957031 5.863281 18.363281 6.367188 18.363281 L 15.464844 18.363281 C 15.96875 18.363281 16.371094 17.957031 16.371094 17.453125 L 16.371094 14.234375 C 16.371094 12.789062 15.367188 11.527344 13.847656 10.808594 C 13.097656 11.550781 12.121094 11.996094 11.054688 11.996094 L 10.777344 11.996094 C 9.710938 11.996094 8.734375 11.550781 7.984375 10.808594 Z M 7.984375 10.808594 "/>
</g>
</svg>
