<svg xmlns="http://www.w3.org/2000/svg" width="22pt" height="22pt" viewBox="0 0 22 22"><g fill="#78909c"><path d="M10.914 13.93a4.54 4.54 0 0 0-3.36 1.476l2.423 3.528c.484.453 1.394.453 1.875 0l2.425-3.528a4.548 4.548 0 0 0-3.363-1.476zm0 0M10.914 3.016a15.408 15.408 0 0 0-9.598 3.32l1.551 2.258a12.691 12.691 0 0 1 8.047-2.852c3.059 0 5.856 1.067 8.047 2.852l1.55-2.258a15.408 15.408 0 0 0-9.597-3.32zm0 0"/><path d="M10.914 8.473c-2.48 0-4.746.894-6.492 2.379l1.558 2.27a7.248 7.248 0 0 1 4.934-1.923c1.91 0 3.64.727 4.934 1.922l1.558-2.27a9.969 9.969 0 0 0-6.492-2.378zm0 0"/></g></svg>