<svg xmlns="http://www.w3.org/2000/svg" width="22pt" height="22pt" viewBox="0 0 22 22"><g fill="#bdbdbd"><path d="M10.914 3.016a15.408 15.408 0 0 0-9.598 3.32l1.551 2.258a12.691 12.691 0 0 1 8.047-2.852c3.059 0 5.856 1.067 8.047 2.852l1.55-2.258a15.408 15.408 0 0 0-9.597-3.32zm0 0" fill-opacity=".392"/><path d="M10.914 8.473c-2.48 0-4.746.894-6.492 2.379l1.558 2.27a7.248 7.248 0 0 1 4.934-1.923c1.91 0 3.64.727 4.934 1.922l1.558-2.27a9.969 9.969 0 0 0-6.492-2.378zm0 0" fill-opacity=".392"/><path d="M10.914 12.453a2.268 2.268 0 0 0-2.273 2.274c0 .933.558 1.734 1.363 2.085v2.008c0 .25.203.453.457.453h.91c.25 0 .453-.203.453-.453v-2.008a2.272 2.272 0 0 0 1.364-2.085 2.266 2.266 0 0 0-2.274-2.274zm0 0"/></g></svg>