<?xml version="1.0" encoding="UTF-8"?>
<svg xmlns="http://www.w3.org/2000/svg" xmlns:xlink="http://www.w3.org/1999/xlink" width="22px" height="22px" viewBox="0 0 22 22" version="1.1">
<g id="surface1">
<path style=" stroke:none;fill-rule:nonzero;fill:rgb(93.333334%,93.333334%,93.333334%);fill-opacity:0.392157;" d="M 3.867188 4.480469 C 3.230469 4.480469 2.714844 4.996094 2.714844 5.628906 L 2.714844 14.726562 C 2.714844 15.359375 3.230469 15.875 3.867188 15.875 L 5.714844 15.875 L 6.746094 17.589844 C 6.953125 17.9375 7.328125 18.148438 7.730469 18.148438 L 12.488281 18.148438 C 12.566406 17.839844 12.722656 17.550781 12.960938 17.3125 L 14.238281 16.035156 L 13.769531 15.570312 L 13.546875 15.851562 L 8.382812 15.851562 L 7.351562 14.132812 C 7.144531 13.789062 6.769531 13.574219 6.367188 13.574219 L 5.015625 13.574219 L 5.015625 6.777344 L 6.820312 6.777344 L 6.820312 7.449219 C 6.820312 7.953125 7.226562 8.359375 7.730469 8.359375 C 8.234375 8.359375 8.640625 7.953125 8.640625 7.449219 L 8.640625 6.777344 L 10.003906 6.777344 L 10.003906 7.449219 C 10.003906 7.953125 10.410156 8.359375 10.914062 8.359375 C 11.417969 8.359375 11.824219 7.953125 11.824219 7.449219 L 11.824219 6.777344 L 13.1875 6.777344 L 13.1875 7.449219 C 13.1875 7.953125 13.59375 8.359375 14.097656 8.359375 C 14.601562 8.359375 15.007812 7.953125 15.007812 7.449219 L 15.007812 6.777344 L 16.816406 6.777344 L 16.816406 13.429688 L 16.828125 13.445312 L 18.105469 12.167969 C 18.386719 11.886719 18.742188 11.71875 19.113281 11.660156 L 19.113281 5.628906 C 19.113281 4.996094 18.597656 4.480469 17.964844 4.480469 Z M 3.867188 4.480469 "/>
<path style=" stroke:none;fill-rule:nonzero;fill:rgb(93.725491%,32.549021%,31.37255%);fill-opacity:1;" d="M 19.882812 12.980469 C 19.617188 12.710938 19.183594 12.710938 18.917969 12.980469 L 16.828125 15.070312 L 14.738281 12.980469 C 14.46875 12.710938 14.039062 12.710938 13.773438 12.980469 C 13.503906 13.246094 13.503906 13.675781 13.773438 13.945312 L 15.863281 16.035156 L 13.773438 18.125 C 13.503906 18.390625 13.503906 18.824219 13.773438 19.089844 C 14.039062 19.355469 14.46875 19.355469 14.738281 19.089844 L 16.828125 17 L 18.917969 19.089844 C 19.183594 19.355469 19.617188 19.355469 19.882812 19.089844 C 20.148438 18.824219 20.148438 18.390625 19.882812 18.125 L 17.792969 16.035156 L 19.882812 13.945312 C 20.148438 13.675781 20.148438 13.246094 19.882812 12.980469 Z M 19.882812 12.980469 "/>
</g>
</svg>
