<svg xmlns="http://www.w3.org/2000/svg" width="22" height="22"><g fill="#bdbdbd"><path d="M15.434 13.219a.57.57 0 0 0-.403.164c-.027.027-.05.058-.074.09a3.168 3.168 0 0 0 0 4.324.568.568 0 1 0 .793-.785 2.053 2.053 0 0 1-.52-1.375c0-.535.196-1.016.52-1.38a.568.568 0 0 0-.316-1.043zm0 0M19.133 18.055a.566.566 0 0 0 .472-.258 3.168 3.168 0 0 0 0-4.324.563.563 0 0 0-.875-.09.568.568 0 0 0 .086.875c.325.363.52.844.52 1.379 0 .531-.195 1.011-.52 1.375a.568.568 0 0 0 .316 1.043zm0 0"/><path d="M10.89 4s-5.956 0-7.445.39a2.44 2.44 0 0 0-1.68 1.696c-.39 1.488-.39 4.574-.39 4.574s0 3.106.39 4.578a2.392 2.392 0 0 0 1.68 1.676c1.504.406 7.446.406 7.446.406s1.472 0 3.14-.047a3.647 3.647 0 0 1-.386-1.636 3.631 3.631 0 0 1 3.636-3.64c1.242 0 2.336.616 2.992 1.562.13-1.407.13-2.883.13-2.883s.015-3.102-.391-4.59a2.384 2.384 0 0 0-1.68-1.68C16.844 4 10.891 4 10.891 4zM9.07 7.176h.028a.476.476 0 0 1 .214.066l5.067 2.992c.3.176.3.614 0 .79l-5.066 2.992a.457.457 0 0 1-.692-.395V7.637a.46.46 0 0 1 .45-.461zm0 0"/></g></svg>