<svg height="48" viewBox="0 0 48 48" width="48" xmlns="http://www.w3.org/2000/svg" xmlns:xlink="http://www.w3.org/1999/xlink"><linearGradient id="a" gradientUnits="userSpaceOnUse" x1="23.81478" x2="23.81478" y1="42.0509045" y2="44.03547050005"><stop offset="0" stop-opacity=".27451"/><stop offset="1" stop-opacity="0"/></linearGradient><linearGradient id="b"><stop offset="0" stop-opacity=".313726"/><stop offset=".222222" stop-opacity=".27451"/><stop offset="1" stop-opacity="0"/></linearGradient><radialGradient id="c" cx="450.908936" cy="189.579361" gradientTransform="matrix(.00000026 -.117199 -.210958 -.00000015 78.195972 95.392999)" gradientUnits="userSpaceOnUse" r="21.166656" xlink:href="#b"/><radialGradient id="d" cx="450.908936" cy="189.579361" gradientTransform="matrix(-.00000026 .117199 .210958 .00000015 -30.56642 -11.291218)" gradientUnits="userSpaceOnUse" r="21.166656" xlink:href="#b"/><radialGradient id="e" cx="450.908936" cy="189.579361" gradientTransform="matrix(-.00000026 -.117199 .210958 -.00000015 -30.56642 95.392999)" gradientUnits="userSpaceOnUse" r="21.166656" xlink:href="#b"/><radialGradient id="f" cx="450.908936" cy="189.579361" gradientTransform="matrix(.00000026 .117199 -.210958 .00000015 78.195969 -11.291219)" gradientUnits="userSpaceOnUse" r="21.166656" xlink:href="#b"/><linearGradient id="g" gradientUnits="userSpaceOnUse" x1="15.87652349995" x2="15.87652349995" y1="42.0509015" y2="4.3441580001"><stop offset="0" stop-color="#3f51b5"/><stop offset="1" stop-color="#5c6bc0"/></linearGradient><linearGradient id="h"><stop offset="0" stop-color="#bdbdbd"/><stop offset="1" stop-color="#e0e0e0"/></linearGradient><linearGradient id="i" gradientUnits="userSpaceOnUse" x1="16.71212415259" x2="16.71212415259" xlink:href="#h" y1="40.0663276" y2="6.32872769482"/><linearGradient id="j" gradientUnits="userSpaceOnUse" x1="25.7993504999" x2="25.7993504999" xlink:href="#h" y1="42.0509015" y2="4.34415649995"/><linearGradient id="k" gradientUnits="userSpaceOnUse" x1="23.814786" x2="23.81478740639" y1="42.0509015" y2="4.34415649995"><stop offset="0" stop-color="#ffa726"/><stop offset="1" stop-color="#ffb74d"/></linearGradient><path d="m8.929688 41.902344h29.769531v2.207031h-29.769531zm0 0" fill="url(#a)"/><path d="m38.699219 42.050781h3.96875v-1.984375h-3.96875zm0 0" fill="url(#c)"/><path d="m8.929688 42.050781h-3.96875v1.984375h3.96875zm0 0" fill="url(#d)"/><path d="m8.929688 42.050781h-3.96875v-1.984375h3.96875zm0 0" fill="url(#e)"/><path d="m38.699219 42.050781h3.96875v1.984375h-3.96875zm0 0" fill="url(#f)"/><path d="m6.945312 4.34375h33.738282c1.097656 0 1.984375.890625 1.984375 1.984375v33.738281c0 1.097656-.886719 1.984375-1.984375 1.984375h-33.738282c-1.09375 0-1.984374-.886719-1.984374-1.984375v-33.738281c0-1.09375.890624-1.984375 1.984374-1.984375zm0 0" fill="url(#g)"/><path d="m6.945312 4.34375c-1.097656 0-1.984374.886719-1.984374 1.984375v.25c0-1.101563.886718-1.988281 1.984374-1.984375h33.738282c1.097656-.003906 1.984375.882812 1.984375 1.984375v-.25c0-1.097656-.886719-1.984375-1.984375-1.984375zm0 0" fill="#e6e6e6" fill-opacity=".392157"/><path d="m6.945312 42.050781c-1.097656 0-1.984374-.886719-1.984374-1.984375v-.25c0 1.101563.886718 1.988282 1.984374 1.988282h33.738282c1.097656 0 1.984375-.886719 1.984375-1.988282v.25c0 1.097656-.886719 1.984375-1.984375 1.984375zm0 0" fill-opacity=".196078"/><path d="m74.076259-168.671091h359.840637c11.707216 0 21.164646 9.499093 21.164646 21.164646v359.840637c0 11.707215-9.45743 21.164645-21.164646 21.164645h-359.840637c-11.665552 0-21.164645-9.45743-21.164645-21.164645v-359.840637c0-11.665553 9.499093-21.164646 21.164645-21.164646zm0 0" fill="none" stroke="#212121" stroke-linecap="round" stroke-width="3" transform="matrix(.093759 0 0 .093759 0 20.158175)"/><path d="m7.9375 6.328125c-.550781 0-.992188.441406-.992188.992187v31.753907c0 .550781.441407.992187.992188.992187h31.753906c.550782 0 .992188-.441406.992188-.992187v-31.753907c0-.550781-.441406-.992187-.992188-.992187zm.496094.992187h30.761718c.273438 0 .496094.222657.496094.496094v30.761719c0 .273437-.222656.496094-.496094.496094h-30.761718c-.273438 0-.496094-.222657-.496094-.496094v-30.761719c0-.273437.222656-.496094.496094-.496094zm0 0" fill="url(#i)"/><path d="m7.9375 6.328125c-.550781 0-.992188.441406-.992188.992187v.335938c0-.550781.441407-.992188.992188-.992188h31.753906c.550782 0 .992188.441407.992188.992188v-.335938c0-.550781-.441406-.992187-.992188-.992187zm0 32.25v.335937c0 .273438.222656.496094.496094.496094h30.761718c.273438 0 .496094-.222656.496094-.496094v-.335937c0 .273437-.222656.496094-.496094.496094h-30.761718c-.273438 0-.496094-.222657-.496094-.496094zm0 0" fill="#fff" fill-opacity=".588235"/><path d="m8.433594 7.339844c-.273438 0-.496094.21875-.496094.496094v.554687c0-.273437.222656-.496094.496094-.496094h30.761718c.273438 0 .496094.222657.496094.496094v-.554687c0-.277344-.222656-.496094-.496094-.496094zm-1.488282 31.75v.558594c0 .550781.441407.992187.992188.992187h31.753906c.550782 0 .992188-.441406.992188-.992187v-.558594c0 .550781-.441406.992187-.992188.992187h-31.753906c-.550781 0-.992188-.441406-.992188-.992187zm0 0" fill-opacity=".235294"/><path d="m319.969461 255.093763c-22.202605 0-39.996182 17.793578-39.996182 39.996183v1280.03531c0 22.202606 17.793577 39.996183 39.996182 39.996183h1280.035311c22.202605 0 39.996182-17.793577 39.996182-39.996183v-1280.03531c0-22.202605-17.793577-39.996183-39.996182-39.996183zm19.998092 39.996183h1240.039127c11.02257 0 19.998092 8.975521 19.998092 19.998091v1240.039128c0 11.02257-8.975522 19.998091-19.998092 19.998091h-1240.039127c-11.02257 0-19.998092-8.975521-19.998092-19.998091v-1240.039128c0-11.02257 8.975522-19.998091 19.998092-19.998091zm0 0" fill="none" stroke="#212121" stroke-linecap="round" stroke-width="11.338583" transform="scale(.0248071)"/><g fill-rule="evenodd"><path d="m25.042969 21.960938c0 1.046874.027343 1.917968-.480469 2.847656-.40625.753906-1.054688 1.21875-1.777344 1.21875-.984375 0-1.554687-.78125-1.554687-1.941406 0-2.289063 1.957031-2.707032 3.8125-2.707032zm2.589843 6.542968c-.167968.160156-.414062.171875-.605468.066406-.851563-.742187-1.003906-1.085937-1.476563-1.792968-1.40625 1.503906-2.402343 1.953125-4.230469 1.953125-2.15625 0-3.839843-1.390625-3.839843-4.179688 0-2.179687 1.128906-3.664062 2.734375-4.390625 1.390625-.640625 3.335937-.753906 4.824218-.933594v-.34375c0-.640624.050782-1.394531-.304687-1.945312-.316406-.496094-.914063-.699219-1.441406-.699219-.980469 0-1.851563.523438-2.066407 1.613281-.042968.242188-.210937.480469-.445312.492188l-2.488281-.28125c-.210938-.050781-.441407-.226562-.382813-.5625.574219-3.148438 3.300782-4.101562 5.738282-4.101562 1.25 0 2.882812.34375 3.863281 1.335937 1.25 1.21875 1.132812 2.84375 1.132812 4.613281v4.183594c0 1.257812.496094 1.808594.964844 2.488281.167969.242188.203125.535157-.003906.714844-.527344.460937-1.457031 1.304687-1.96875 1.78125l-.011719-.007813" fill="url(#j)"/><path d="m32.121094 28.726562c-.695313.011719-1.519532.171876-2.144532.621094-.195312.136719-.160156.328125.054688.300782.699219-.085938 2.269531-.277344 2.546875.089843.28125.363281-.3125 1.875-.574219 2.546875-.078125.207032.09375.289063.269532.132813 1.175781-1.003907 1.476562-3.105469 1.234374-3.410157-.117187-.148437-.6875-.289062-1.386718-.28125zm-18.328125.40625c-.148438.019532-.210938.199219-.058594.339844 2.601563 2.410156 6.042969 3.859375 9.863281 3.859375 2.722656 0 5.886719-.882812 8.070313-2.53125.363281-.277343.054687-.683593-.316407-.523437-2.445312 1.066406-5.109374 1.578125-7.523437 1.578125-3.585937 0-7.0625-1.007813-9.871094-2.683594-.058593-.035156-.117187-.046875-.164062-.039063zm0 0" fill="url(#k)"/><path d="m23.648438 13.398438c-2.4375 0-5.164063.953124-5.738282 4.101562-.019531.109375-.007812.199219.019532.273438.621093-3.058594 3.3125-3.988282 5.71875-3.988282 1.25 0 2.882812.347656 3.863281 1.335938 1.007812.984375 1.125 2.230468 1.132812 3.605468.007813-1.527343-.03125-2.917968-1.132812-3.992187-.980469-.988281-2.613281-1.335937-3.863281-1.335937zm1.394531 5.304687c0 .058594-.003907.121094-.003907.179687v.34375c-1.488281.179688-3.433593.292969-4.824218.933594-1.605469.726563-2.734375 2.210938-2.734375 4.390625 0 .0625 0 .128907.003906.195313.0625-2.074219 1.171875-3.492188 2.730469-4.195313 1.390625-.640625 3.335937-.753906 4.824218-.933593v-.347657c0-.179687.003907-.375.003907-.566406zm0 3.257813v.390624zm0 .417968c-.003907.867188-.042969 1.628906-.480469 2.429688-.40625.753906-1.054688 1.21875-1.777344 1.21875-.929687 0-1.492187-.699219-1.550781-1.757813-.003906.066407-.003906.136719-.003906.203125 0 1.160156.570312 1.945313 1.554687 1.945313.722656 0 1.371094-.464844 1.777344-1.21875.503906-.921875.480469-1.785157.480469-2.820313zm3.601562 1.152344v.390625c0 1.257813.496094 1.808594.964844 2.488281.042969.058594.074219.125.097656.1875.082031-.171875.03125-.390625-.097656-.578125-.46875-.679687-.964844-1.230469-.964844-2.488281zm0 0" fill="#fff"/><path d="m32.25 28.726562c-.039062 0-.085938 0-.128906 0-.695313.011719-1.519532.171876-2.144532.621094-.191406.136719-.160156.320313.042969.304688.617188-.429688 1.421875-.582032 2.101563-.589844.699218-.011719 1.269531.128906 1.386718.28125.039063.042969.058594.128906.070313.242188.019531-.285157-.003906-.496094-.070313-.578126-.109374-.140624-.617187-.273437-1.257812-.28125zm-18.441406.40625c-.003906 0-.011719 0-.015625 0-.148438.019532-.210938.199219-.058594.339844l.007813.007813c.015624-.007813.03125-.011719.050781-.015625.046875-.003906.105469.003906.164062.042968 2.808594 1.675782 6.285157 2.679688 9.871094 2.679688 2.414063 0 5.078125-.511719 7.523437-1.578125.179688-.074219.339844-.023437.421876.082031.179687-.257812-.097657-.554687-.421876-.414062-2.445312 1.066406-5.109374 1.578125-7.523437 1.578125-3.585937 0-7.0625-1.007813-9.871094-2.683594-.050781-.03125-.101562-.042969-.148437-.039063zm18.832031 1.09375c-.070313.613282-.441406 1.5625-.636719 2.058594-.042968.109375-.011718.183594.050782.207032.246093-.636719.675781-1.773438.585937-2.265626zm0 0" fill="#fff" fill-opacity=".392157"/><path d="m23.292969 16.238281c-.980469 0-1.851563.523438-2.066407 1.613281-.042968.242188-.210937.480469-.445312.492188l-2.488281-.28125c-.125-.027344-.257813-.105469-.332031-.230469-.019532.082031-.035157.164063-.050782.25-.058594.335938.171875.511719.382813.5625l2.488281.28125c.234375-.015625.402344-.25.445312-.492187.214844-1.089844 1.085938-1.613282 2.066407-1.613282.527343 0 1.125.203126 1.441406.699219.242187.378907.296875.851563.308594 1.316407 0-.628907.039062-1.359376-.308594-1.898438-.316406-.496094-.914063-.699219-1.441406-.699219zm5.351562 2.601563v.507812.582032c0-.367188.003907-.734376 0-1.089844zm-3.601562 2.539062c-1.855469 0-3.8125.417969-3.8125 2.707032 0 .09375.003906.1875.011719.277343.164062-2.023437 2.03125-2.402343 3.800781-2.402343zm-7.554688 3.464844c-.007812.09375-.007812.191406-.007812.289062 0 2.789063 1.683593 4.179688 3.839843 4.179688 1.828126 0 2.824219-.449219 4.230469-1.953125.472657.707031.625 1.050781 1.476563 1.792969.1875.101562.433594.089844.597656-.0625l.007812-.003906c-.003906 0-.003906 0-.007812.003906l.011719.007812c.511719-.476562 1.441406-1.320312 1.96875-1.78125.183593-.160156.175781-.414062.050781-.636718-.015625.019531-.03125.035156-.050781.054687-.527344.460937-1.457031 1.304687-1.96875 1.78125l-.011719-.007813c-.164062.15625-.410156.164063-.597656.0625-.851563-.742187-1.003906-1.085937-1.476563-1.792968-1.40625 1.503906-2.402343 1.953125-4.230469 1.953125-2.082031 0-3.71875-1.292969-3.832031-3.886719zm10.136719 3.664062c.003906 0 .003906-.003906.007812-.003906zm0 0" fill-opacity=".235294"/><path d="m31.652344 29.519531c-.328125 0-.695313.027344-1.023438.0625-.230468.089844-.453125.203125-.652344.347657-.195312.136718-.160156.328124.054688.300781.699219-.085938 2.269531-.277344 2.546875.089843.015625.019532.027344.042969.039063.066407.050781-.289063.050781-.53125-.039063-.648438-.121094-.160156-.492187-.214843-.925781-.21875zm-17.84375.191407c-.003906.003906-.011719.003906-.015625.003906-.148438.015625-.210938.199218-.058594.339844 2.601563 2.410156 6.042969 3.859374 9.863281 3.859374 2.722656 0 5.886719-.882812 8.070313-2.53125.269531-.203124.171875-.480468-.046875-.546874-2.183594 1.625-5.320313 2.496093-8.023438 2.496093-3.582031 0-6.828125-1.273437-9.363281-3.417969-.09375-.050781-.183594-.105468-.277344-.160156-.050781-.03125-.101562-.042968-.148437-.042968zm19.757812.027343c-.089844.785157-.484375 1.992188-1.292968 2.679688-.042969.039062-.085938.0625-.125.074219-.050782.140624-.101563.269531-.144532.375-.078125.203124.09375.289062.269532.132812 1.054687-.902344 1.40625-2.6875 1.292968-3.261719zm0 0" fill-opacity=".235294"/></g><path d="m267.099493 19.227632c0 11.165601.291639 20.45638-5.12451 30.3721-4.33292 8.040899-11.248926 12.998759-18.956523 12.998759-10.498998 0-16.58175-8.332538-16.58175-20.706356 0-24.414336 20.873006-28.872243 40.662783-28.872243zm27.622362 69.785003c-1.791495 1.70817-4.416244 1.833158-6.457716.708266-9.082466-7.915911-10.707311-11.582228-15.748496-19.123174-14.998568 16.040135-25.622553 20.831344-45.120691 20.831344-22.997804 0-40.954423-14.831917-40.954423-44.579076 0-23.24778 12.040517-39.079602 29.163882-46.8288618 14.831917-6.8326812 35.579935-8.0408992 51.45342-9.9573822v-3.666317c0-6.832681.541615-14.873579-3.24969-20.748018-3.374678-5.291162-9.749069-7.457622-15.373532-7.457622-10.457335 0-19.748114 5.582801-22.039562 17.206691-.45829 2.583086-2.249785 5.12451-4.749546 5.249498l-26.539133-2.999713c-2.249785-.541615-4.707883-2.416436-4.082943-5.999427 6.124415-33.580127 35.204971-43.745823 61.202489-43.745823 13.33206 0 30.747063 3.666317 41.204398 14.248639 13.33206 12.998759 12.08218 30.330437 12.08218 49.203635v44.620739c0 13.415386 5.291161 19.289825 10.290684 26.539132 1.791495 2.583087 2.166459 5.707789-.041663 7.624272-5.624463 4.916197-15.540183 13.915338-20.997995 18.998186l-.124988-.083325" fill="none" stroke="#212121" stroke-width="3" transform="matrix(.093759 0 0 .093759 0 20.158175)"/><path d="m342.592284 91.387408c-7.415958.124988-16.206786 1.833158-22.872816 6.624368-2.083134 1.458194-1.70817 3.499665.583278 3.208027 7.457621-.91658 24.206022-2.958051 27.164073.958241 2.999713 3.87463-3.333015 19.998091-6.124416 27.164073-.833253 2.208122.999905 3.083039 2.874726 1.416531 12.540469-10.70731 15.748496-33.121837 13.165409-36.371526-1.24988-1.583182-7.332633-3.083039-14.790254-2.999714zm-195.481332 4.33292c-1.583183.208313-2.249786 2.124797-.624941 3.624654 27.747351 25.705878 64.452179 41.162735 105.198288 41.162735 29.038893 0 62.785671-9.415767 86.075113-26.997421 3.87463-2.958051.583278-7.290971-3.374677-5.582801-26.080843 11.373914-54.494796 16.831726-80.242338 16.831726-38.246347 0-75.32614-10.748973-105.281612-28.622266-.624941-.374965-1.249881-.499953-1.749833-.416627zm0 0" fill="none" stroke="#212121" stroke-width="3" transform="matrix(.093759 0 0 .093759 0 20.158175)"/></svg>