<?xml version="1.0" encoding="UTF-8"?>
<svg xmlns="http://www.w3.org/2000/svg" xmlns:xlink="http://www.w3.org/1999/xlink" width="48px" height="48px" viewBox="0 0 48 48" version="1.1">
<defs>
<radialGradient id="radial0" gradientUnits="userSpaceOnUse" cx="450.908936" cy="189.579361" fx="450.908936" fy="189.579361" r="21.166656" gradientTransform="matrix(0.000000261256,-0.117199,-0.210958,-0.000000152308,66.758187,95.519628)">
<stop offset="0" style="stop-color:rgb(0%,0%,0%);stop-opacity:0.313726;"/>
<stop offset="0.222222" style="stop-color:rgb(0%,0%,0%);stop-opacity:0.27451;"/>
<stop offset="1" style="stop-color:rgb(0%,0%,0%);stop-opacity:0;"/>
</radialGradient>
<radialGradient id="radial1" gradientUnits="userSpaceOnUse" cx="450.908936" cy="189.579361" fx="450.908936" fy="189.579361" r="21.166656" gradientTransform="matrix(-0.000000261256,0.117199,0.210958,0.000000152308,-19.181719,-11.164589)">
<stop offset="0" style="stop-color:rgb(0%,0%,0%);stop-opacity:0.313726;"/>
<stop offset="0.222222" style="stop-color:rgb(0%,0%,0%);stop-opacity:0.27451;"/>
<stop offset="1" style="stop-color:rgb(0%,0%,0%);stop-opacity:0;"/>
</radialGradient>
<radialGradient id="radial2" gradientUnits="userSpaceOnUse" cx="450.908936" cy="189.579361" fx="450.908936" fy="189.579361" r="21.166656" gradientTransform="matrix(-0.000000261256,-0.117199,0.210958,-0.000000152308,-19.181719,95.519628)">
<stop offset="0" style="stop-color:rgb(0%,0%,0%);stop-opacity:0.313726;"/>
<stop offset="0.222222" style="stop-color:rgb(0%,0%,0%);stop-opacity:0.27451;"/>
<stop offset="1" style="stop-color:rgb(0%,0%,0%);stop-opacity:0;"/>
</radialGradient>
<radialGradient id="radial3" gradientUnits="userSpaceOnUse" cx="450.908936" cy="189.579361" fx="450.908936" fy="189.579361" r="21.166656" gradientTransform="matrix(0.000000261256,0.117199,-0.210958,0.000000152308,66.758184,-11.16459)">
<stop offset="0" style="stop-color:rgb(0%,0%,0%);stop-opacity:0.313726;"/>
<stop offset="0.222222" style="stop-color:rgb(0%,0%,0%);stop-opacity:0.27451;"/>
<stop offset="1" style="stop-color:rgb(0%,0%,0%);stop-opacity:0;"/>
</radialGradient>
<linearGradient id="linear0" gradientUnits="userSpaceOnUse" x1="255.323059" y1="233.5" x2="255.323044" y2="254.666656" gradientTransform="matrix(0.0200401,0,0,0.093759,18.671538,20.284809)">
<stop offset="0" style="stop-color:rgb(0%,0%,0%);stop-opacity:0.27451;"/>
<stop offset="1" style="stop-color:rgb(0%,0%,0%);stop-opacity:0;"/>
</linearGradient>
<linearGradient id="linear1" gradientUnits="userSpaceOnUse" x1="254" y1="-168.666672" x2="254" y2="233.5" gradientTransform="matrix(1,0,0,1,-0.28308,1.350643)">
<stop offset="0" style="stop-color:rgb(100%,71.764708%,30.19608%);stop-opacity:1;"/>
<stop offset="1" style="stop-color:rgb(100%,65.490198%,14.901961%);stop-opacity:1;"/>
</linearGradient>
<linearGradient id="linear2" gradientUnits="userSpaceOnUse" x1="160.656616" y1="641.880188" x2="160.656616" y2="-718.119812" gradientTransform="matrix(0.0248071,0,0,0.0248071,19.802815,24.269802)">
<stop offset="0" style="stop-color:rgb(100%,79.215688%,15.686275%);stop-opacity:1;"/>
<stop offset="1" style="stop-color:rgb(100%,83.529413%,30.980393%);stop-opacity:1;"/>
</linearGradient>
</defs>
<g id="surface1">
<path style=" stroke:none;fill-rule:nonzero;fill:url(#radial0);" d="M 27.261719 42.175781 L 31.230469 42.175781 L 31.230469 40.191406 L 27.261719 40.191406 Z M 27.261719 42.175781 "/>
<path style=" stroke:none;fill-rule:nonzero;fill:url(#radial1);" d="M 20.316406 42.175781 L 16.347656 42.175781 L 16.347656 44.160156 L 20.316406 44.160156 Z M 20.316406 42.175781 "/>
<path style=" stroke:none;fill-rule:nonzero;fill:url(#radial2);" d="M 20.316406 42.175781 L 16.347656 42.175781 L 16.347656 40.191406 L 20.316406 40.191406 Z M 20.316406 42.175781 "/>
<path style=" stroke:none;fill-rule:nonzero;fill:url(#radial3);" d="M 27.261719 42.175781 L 31.230469 42.175781 L 31.230469 44.160156 L 27.261719 44.160156 Z M 27.261719 42.175781 "/>
<path style=" stroke:none;fill-rule:nonzero;fill:url(#linear0);" d="M 20.316406 41.679688 L 27.261719 41.679688 L 27.261719 44.160156 L 20.316406 44.160156 Z M 20.316406 41.679688 "/>
<path style="fill-rule:nonzero;fill:url(#linear1);stroke-width:3;stroke-linecap:round;stroke-linejoin:miter;stroke:rgb(20%,20%,20%);stroke-opacity:1;stroke-miterlimit:4;" d="M 253.72577 -167.296222 C 364.756834 -167.296222 454.789903 -77.304816 454.789903 33.767911 C 454.789903 144.840637 364.756834 234.832043 253.72577 234.832043 C 142.653044 234.832043 52.619975 144.840637 52.619975 33.767911 C 52.619975 -77.304816 142.653044 -167.296222 253.72577 -167.296222 Z M 253.72577 -167.296222 " transform="matrix(0.093759,0,0,0.093759,0,20.158175)"/>
<path style=" stroke:none;fill-rule:nonzero;fill:rgb(0%,0%,0%);fill-opacity:0.196078;" d="M 23.789062 42.175781 C 13.34375 42.175781 4.933594 33.769531 4.933594 23.324219 C 4.933594 23.261719 4.933594 23.199219 4.9375 23.140625 C 5.035156 33.5 13.40625 41.808594 23.789062 41.808594 C 34.171875 41.808594 42.542969 33.5 42.640625 23.140625 C 42.640625 23.199219 42.640625 23.261719 42.640625 23.324219 C 42.640625 33.769531 34.234375 42.175781 23.789062 42.175781 Z M 23.789062 42.175781 "/>
<path style=" stroke:none;fill-rule:nonzero;fill:rgb(100%,100%,100%);fill-opacity:0.392157;" d="M 23.789062 4.472656 C 13.34375 4.472656 4.933594 12.878906 4.933594 23.324219 C 4.933594 23.386719 4.933594 23.449219 4.9375 23.507812 C 5.035156 13.148438 13.40625 4.839844 23.789062 4.839844 C 34.171875 4.839844 42.542969 13.148438 42.640625 23.507812 C 42.640625 23.449219 42.640625 23.386719 42.640625 23.324219 C 42.640625 12.878906 34.234375 4.472656 23.789062 4.472656 Z M 23.789062 4.472656 "/>
<path style=" stroke:none;fill-rule:nonzero;fill:rgb(12.941177%,12.941177%,12.941177%);fill-opacity:1;" d="M 23.789062 4.332031 C 13.269531 4.332031 4.792969 12.804688 4.792969 23.324219 C 4.792969 33.84375 13.269531 42.316406 23.789062 42.316406 C 34.308594 42.316406 42.78125 33.84375 42.78125 23.324219 C 42.78125 12.804688 34.308594 4.332031 23.789062 4.332031 Z M 23.789062 4.613281 C 34.15625 4.613281 42.5 12.953125 42.5 23.324219 C 42.5 33.695312 34.15625 42.035156 23.789062 42.035156 C 13.417969 42.035156 5.074219 33.695312 5.074219 23.324219 C 5.074219 12.953125 13.417969 4.613281 23.789062 4.613281 Z M 23.789062 4.613281 "/>
<path style=" stroke:none;fill-rule:nonzero;fill:url(#linear2);" d="M 23.789062 6.675781 C 22.242188 6.675781 20.695312 6.964844 19.261719 7.535156 C 18.511719 7.835938 18.136719 8.679688 18.410156 9.4375 L 22.378906 20.355469 C 22.601562 20.957031 23.179688 21.355469 23.820312 21.339844 C 24.4375 21.328125 24.984375 20.933594 25.195312 20.355469 L 29.164062 9.4375 C 29.441406 8.679688 29.0625 7.835938 28.3125 7.535156 C 26.882812 6.964844 25.335938 6.675781 23.789062 6.675781 Z M 13.320312 11.1875 C 12.992188 11.1875 12.660156 11.289062 12.382812 11.507812 C 9.957031 13.417969 8.296875 16.292969 7.855469 19.347656 C 7.742188 20.148438 8.28125 20.894531 9.078125 21.035156 L 20.515625 23.054688 C 21.125 23.164062 21.738281 22.886719 22.058594 22.359375 C 22.390625 21.808594 22.335938 21.109375 21.925781 20.617188 L 14.457031 11.722656 C 14.164062 11.375 13.746094 11.191406 13.320312 11.1875 Z M 34.253906 11.1875 C 33.832031 11.191406 33.414062 11.375 33.121094 11.722656 L 25.652344 20.617188 C 25.238281 21.109375 25.1875 21.808594 25.519531 22.359375 C 25.839844 22.886719 26.453125 23.164062 27.058594 23.054688 L 38.496094 21.035156 C 39.292969 20.894531 39.835938 20.148438 39.71875 19.347656 C 39.28125 16.292969 37.617188 13.417969 35.195312 11.507812 C 34.917969 11.289062 34.585938 11.1875 34.253906 11.1875 Z M 20.753906 23.5625 C 20.675781 23.5625 20.59375 23.570312 20.515625 23.582031 L 9.078125 25.605469 C 8.28125 25.746094 7.742188 26.492188 7.855469 27.292969 C 8.296875 30.347656 9.957031 33.222656 12.382812 35.128906 C 13.019531 35.628906 13.933594 35.535156 14.457031 34.917969 L 21.925781 26.023438 C 22.320312 25.546875 22.386719 24.878906 22.089844 24.339844 C 21.820312 23.847656 21.300781 23.550781 20.753906 23.5625 Z M 26.824219 23.5625 C 26.273438 23.550781 25.757812 23.847656 25.488281 24.339844 C 25.191406 24.878906 25.253906 25.546875 25.652344 26.023438 L 33.121094 34.917969 C 33.640625 35.535156 34.558594 35.628906 35.195312 35.128906 C 37.617188 33.222656 39.28125 30.347656 39.71875 27.292969 C 39.835938 26.492188 39.292969 25.746094 38.496094 25.605469 L 27.058594 23.582031 C 26.980469 23.570312 26.902344 23.5625 26.824219 23.5625 Z M 23.761719 25.300781 C 23.144531 25.3125 22.59375 25.699219 22.378906 26.285156 L 18.410156 37.199219 C 18.136719 37.960938 18.511719 38.800781 19.261719 39.101562 C 22.128906 40.25 25.449219 40.25 28.3125 39.101562 C 29.0625 38.800781 29.441406 37.960938 29.164062 37.199219 L 25.195312 26.285156 C 24.984375 25.703125 24.4375 25.3125 23.820312 25.300781 C 23.800781 25.300781 23.78125 25.300781 23.761719 25.300781 Z M 23.761719 25.300781 "/>
<path style=" stroke:none;fill-rule:nonzero;fill:rgb(100%,100%,100%);fill-opacity:0.392157;" d="M 23.789062 6.675781 C 22.242188 6.675781 20.695312 6.964844 19.261719 7.535156 C 18.554688 7.820312 18.179688 8.585938 18.371094 9.3125 C 18.488281 8.871094 18.808594 8.488281 19.261719 8.308594 C 20.695312 7.734375 22.242188 7.449219 23.789062 7.449219 C 25.335938 7.449219 26.882812 7.734375 28.3125 8.308594 C 28.769531 8.488281 29.085938 8.871094 29.203125 9.3125 C 29.398438 8.585938 29.023438 7.820312 28.3125 7.535156 C 26.882812 6.964844 25.335938 6.675781 23.789062 6.675781 Z M 13.320312 11.1875 C 12.992188 11.1875 12.660156 11.289062 12.382812 11.507812 C 9.957031 13.417969 8.296875 16.292969 7.855469 19.347656 C 7.828125 19.546875 7.839844 19.742188 7.886719 19.925781 C 8.367188 16.945312 10.007812 14.148438 12.382812 12.28125 C 12.660156 12.0625 12.992188 11.957031 13.320312 11.957031 C 13.746094 11.960938 14.164062 12.144531 14.457031 12.492188 L 21.925781 21.386719 C 22.070312 21.558594 22.167969 21.757812 22.222656 21.964844 C 22.347656 21.503906 22.242188 21 21.925781 20.617188 L 14.457031 11.722656 C 14.164062 11.375 13.746094 11.191406 13.320312 11.1875 Z M 34.253906 11.1875 C 33.832031 11.191406 33.414062 11.375 33.121094 11.722656 L 25.652344 20.617188 C 25.332031 21 25.230469 21.503906 25.351562 21.964844 C 25.40625 21.757812 25.507812 21.558594 25.652344 21.386719 L 33.121094 12.492188 C 33.414062 12.144531 33.832031 11.960938 34.253906 11.957031 C 34.585938 11.957031 34.917969 12.0625 35.195312 12.28125 C 37.566406 14.148438 39.210938 16.945312 39.691406 19.925781 C 39.734375 19.742188 39.75 19.546875 39.71875 19.347656 C 39.28125 16.292969 37.617188 13.417969 35.195312 11.507812 C 34.917969 11.289062 34.585938 11.1875 34.253906 11.1875 Z M 21.417969 23.703125 C 21.144531 23.835938 20.828125 23.882812 20.515625 23.828125 L 19.828125 23.703125 L 9.078125 25.605469 C 8.28125 25.746094 7.742188 26.492188 7.855469 27.292969 C 7.867188 27.355469 7.875 27.421875 7.886719 27.484375 C 8.027344 26.929688 8.480469 26.480469 9.078125 26.375 L 20.515625 24.355469 C 20.59375 24.339844 20.675781 24.332031 20.753906 24.332031 C 21.300781 24.320312 21.820312 24.617188 22.089844 25.109375 C 22.148438 25.214844 22.191406 25.328125 22.222656 25.445312 C 22.320312 25.078125 22.277344 24.683594 22.089844 24.339844 C 21.933594 24.054688 21.695312 23.835938 21.417969 23.703125 Z M 26.160156 23.703125 C 25.878906 23.835938 25.640625 24.054688 25.488281 24.339844 C 25.296875 24.683594 25.253906 25.078125 25.351562 25.445312 C 25.382812 25.328125 25.429688 25.214844 25.488281 25.109375 C 25.757812 24.617188 26.273438 24.320312 26.824219 24.332031 C 26.902344 24.332031 26.980469 24.339844 27.058594 24.355469 L 38.496094 26.375 C 39.097656 26.480469 39.550781 26.929688 39.691406 27.484375 C 39.699219 27.421875 39.710938 27.355469 39.71875 27.292969 C 39.835938 26.492188 39.292969 25.746094 38.496094 25.605469 L 27.75 23.703125 L 27.058594 23.828125 C 26.746094 23.882812 26.433594 23.835938 26.160156 23.703125 Z M 23.761719 25.300781 C 23.144531 25.3125 22.59375 25.699219 22.378906 26.285156 L 18.410156 37.199219 C 18.304688 37.5 18.296875 37.8125 18.371094 38.097656 C 18.382812 38.054688 18.394531 38.011719 18.410156 37.972656 L 22.378906 27.054688 C 22.59375 26.472656 23.144531 26.082031 23.761719 26.070312 C 23.78125 26.070312 23.800781 26.070312 23.820312 26.070312 C 24.4375 26.082031 24.984375 26.476562 25.195312 27.054688 L 29.164062 37.972656 C 29.179688 38.011719 29.191406 38.054688 29.203125 38.097656 C 29.28125 37.8125 29.273438 37.5 29.164062 37.199219 L 25.195312 26.285156 C 24.984375 25.703125 24.4375 25.3125 23.820312 25.300781 C 23.800781 25.300781 23.78125 25.300781 23.761719 25.300781 Z M 23.761719 25.300781 "/>
<path style=" stroke:none;fill-rule:nonzero;fill:rgb(0%,0%,0%);fill-opacity:0.235294;" d="M 29.207031 9.304688 C 29.195312 9.351562 29.179688 9.394531 29.164062 9.4375 L 25.195312 20.355469 C 24.984375 20.933594 24.4375 21.328125 23.820312 21.339844 C 23.179688 21.355469 22.601562 20.957031 22.378906 20.355469 L 18.410156 9.4375 C 18.394531 9.394531 18.382812 9.351562 18.371094 9.304688 C 18.296875 9.589844 18.304688 9.898438 18.410156 10.195312 L 22.378906 21.109375 C 22.601562 21.714844 23.179688 22.109375 23.820312 22.09375 C 24.4375 22.082031 24.984375 21.691406 25.195312 21.109375 L 29.164062 10.195312 C 29.273438 9.898438 29.28125 9.589844 29.207031 9.304688 Z M 7.886719 19.917969 C 7.875 19.980469 7.867188 20.042969 7.855469 20.101562 C 7.742188 20.902344 8.28125 21.652344 9.078125 21.792969 L 19.871094 23.699219 L 20.515625 23.582031 C 20.59375 23.570312 20.675781 23.5625 20.753906 23.5625 C 20.980469 23.558594 21.199219 23.605469 21.402344 23.699219 C 21.667969 23.574219 21.898438 23.375 22.058594 23.113281 C 22.273438 22.757812 22.324219 22.34375 22.226562 21.957031 C 22.191406 22.097656 22.132812 22.230469 22.058594 22.359375 C 21.738281 22.886719 21.125 23.164062 20.515625 23.054688 L 9.078125 21.035156 C 8.476562 20.929688 8.023438 20.476562 7.886719 19.917969 Z M 39.691406 19.917969 C 39.554688 20.476562 39.097656 20.929688 38.496094 21.035156 L 27.058594 23.054688 C 26.453125 23.164062 25.839844 22.886719 25.519531 22.359375 C 25.441406 22.230469 25.386719 22.097656 25.351562 21.957031 C 25.25 22.34375 25.304688 22.757812 25.519531 23.113281 C 25.679688 23.375 25.910156 23.574219 26.175781 23.699219 C 26.375 23.605469 26.597656 23.558594 26.824219 23.5625 C 26.902344 23.5625 26.980469 23.570312 27.058594 23.582031 L 27.707031 23.699219 L 38.496094 21.792969 C 39.292969 21.652344 39.835938 20.902344 39.71875 20.101562 C 39.710938 20.042969 39.699219 19.980469 39.691406 19.917969 Z M 25.351562 25.4375 C 25.230469 25.898438 25.335938 26.398438 25.652344 26.777344 L 33.121094 35.671875 C 33.640625 36.292969 34.558594 36.386719 35.195312 35.886719 C 37.617188 33.976562 39.28125 31.101562 39.71875 28.046875 C 39.746094 27.851562 39.734375 27.65625 39.691406 27.476562 C 39.210938 30.460938 37.570312 33.261719 35.195312 35.128906 C 34.558594 35.628906 33.640625 35.535156 33.121094 34.917969 L 25.652344 26.023438 C 25.507812 25.847656 25.40625 25.648438 25.351562 25.4375 Z M 22.226562 25.4375 C 22.171875 25.648438 22.070312 25.847656 21.925781 26.023438 L 14.457031 34.917969 C 13.933594 35.535156 13.019531 35.628906 12.382812 35.128906 C 10.007812 33.261719 8.363281 30.460938 7.886719 27.476562 C 7.839844 27.65625 7.828125 27.851562 7.855469 28.046875 C 8.296875 31.101562 9.957031 33.976562 12.382812 35.886719 C 13.019531 36.386719 13.933594 36.292969 14.457031 35.671875 L 21.925781 26.777344 C 22.242188 26.398438 22.347656 25.898438 22.226562 25.4375 Z M 18.371094 38.089844 C 18.179688 38.8125 18.554688 39.574219 19.261719 39.859375 C 22.128906 41.003906 25.449219 41.003906 28.3125 39.859375 C 29.019531 39.574219 29.394531 38.8125 29.207031 38.089844 C 29.089844 38.535156 28.773438 38.917969 28.3125 39.101562 C 25.449219 40.25 22.128906 40.25 19.261719 39.101562 C 18.804688 38.917969 18.488281 38.535156 18.371094 38.089844 Z M 18.371094 38.089844 "/>
<path style="fill:none;stroke-width:11.338583;stroke-linecap:round;stroke-linejoin:round;stroke:rgb(12.941177%,12.941177%,12.941177%);stroke-opacity:1;stroke-miterlimit:4;" d="M 160.69008 -709.234562 C 98.333827 -709.234562 35.977574 -697.58213 -21.812186 -674.592199 C -52.045521 -662.467372 -67.162189 -628.45487 -56.139618 -597.906604 L 103.845112 -157.79113 C 112.820633 -133.541476 136.125496 -117.480017 161.949803 -118.109878 C 186.829318 -118.582274 208.874458 -134.486268 217.377583 -157.79113 L 377.362314 -597.906604 C 388.542349 -628.45487 373.268217 -662.467372 343.034882 -674.592199 C 285.402587 -697.58213 223.046334 -709.234562 160.69008 -709.234562 Z M -261.316886 -527.362156 C -274.54397 -527.362156 -287.92852 -523.268059 -299.108555 -514.450003 C -396.894498 -437.449478 -463.817244 -321.555027 -481.610821 -198.417174 C -486.177315 -166.13679 -464.447105 -136.06092 -432.324187 -130.39217 L 28.734171 -48.982617 C 53.298755 -44.573589 78.020805 -55.753624 90.932959 -77.011438 C 104.317508 -99.214043 102.112994 -127.40033 85.579139 -147.240956 L -215.494488 -505.789412 C -227.304384 -519.803822 -244.15317 -527.204691 -261.316886 -527.362156 Z M 582.539582 -527.362156 C 565.533331 -527.204691 548.684545 -519.803822 536.874649 -505.789412 L 235.801022 -147.240956 C 219.109702 -127.40033 217.062653 -99.214043 230.447202 -77.011438 C 243.359356 -55.753624 268.081405 -44.573589 292.488525 -48.982617 L 753.546882 -130.39217 C 785.669801 -136.06092 807.557476 -166.13679 802.833517 -198.417174 C 785.197405 -321.555027 718.117193 -437.449478 620.488716 -514.450003 C 609.30868 -523.268059 595.924131 -527.362156 582.539582 -527.362156 Z M 38.339553 -28.51213 C 35.190247 -28.51213 31.883476 -28.197199 28.734171 -27.724804 L -432.324187 53.842215 C -464.447105 59.510965 -486.177315 89.586835 -481.610821 121.867218 C -463.817244 245.005072 -396.894498 360.899522 -299.108555 437.742582 C -273.441713 457.898139 -236.594836 454.118972 -215.494488 429.239457 L 85.579139 70.691 C 101.483133 51.480235 104.160043 24.553671 92.192681 2.823462 C 81.327576 -17.017164 60.384693 -28.984526 38.339553 -28.51213 Z M 283.040608 -28.51213 C 260.838002 -28.984526 240.052585 -17.017164 229.18748 2.823462 C 217.220118 24.553671 219.739563 51.480235 235.801022 70.691 L 536.874649 429.239457 C 557.817532 454.118972 594.821874 457.898139 620.488716 437.742582 C 718.117193 360.899522 785.197405 245.005072 802.833517 121.867218 C 807.557476 89.586835 785.669801 59.510965 753.546882 53.842215 L 292.488525 -27.724804 C 289.339219 -28.197199 286.189913 -28.51213 283.040608 -28.51213 Z M 159.587823 41.559922 C 134.708308 42.032318 112.505703 57.621381 103.845112 81.241174 L -56.139618 521.199184 C -67.162189 551.904914 -52.045521 585.759951 -21.812186 597.884778 C 93.767334 644.179572 227.612827 644.179572 343.034882 597.884778 C 373.268217 585.759951 388.542349 551.904914 377.362314 521.199184 L 217.377583 81.241174 C 208.874458 57.778847 186.829318 42.032318 161.949803 41.559922 C 161.162476 41.559922 160.37515 41.559922 159.587823 41.559922 Z M 159.587823 41.559922 " transform="matrix(0.0248071,0,0,0.0248071,19.802815,24.269802)"/>
</g>
</svg>
