<?xml version="1.0" encoding="UTF-8"?>
<svg xmlns="http://www.w3.org/2000/svg" xmlns:xlink="http://www.w3.org/1999/xlink" width="48px" height="48px" viewBox="0 0 48 48" version="1.1">
<defs>
<radialGradient id="radial0" gradientUnits="userSpaceOnUse" cx="450.908936" cy="189.579361" fx="450.908936" fy="189.579361" r="21.166656" gradientTransform="matrix(0.000000261256,-0.117199,-0.210958,-0.000000152308,66.784728,95.392994)">
<stop offset="0" style="stop-color:rgb(0%,0%,0%);stop-opacity:0.313726;"/>
<stop offset="0.222222" style="stop-color:rgb(0%,0%,0%);stop-opacity:0.27451;"/>
<stop offset="1" style="stop-color:rgb(0%,0%,0%);stop-opacity:0;"/>
</radialGradient>
<radialGradient id="radial1" gradientUnits="userSpaceOnUse" cx="450.908936" cy="189.579361" fx="450.908936" fy="189.579361" r="21.166656" gradientTransform="matrix(-0.000000261256,0.117199,0.210958,0.000000152308,-19.155178,-11.291223)">
<stop offset="0" style="stop-color:rgb(0%,0%,0%);stop-opacity:0.313726;"/>
<stop offset="0.222222" style="stop-color:rgb(0%,0%,0%);stop-opacity:0.27451;"/>
<stop offset="1" style="stop-color:rgb(0%,0%,0%);stop-opacity:0;"/>
</radialGradient>
<radialGradient id="radial2" gradientUnits="userSpaceOnUse" cx="450.908936" cy="189.579361" fx="450.908936" fy="189.579361" r="21.166656" gradientTransform="matrix(-0.000000261256,-0.117199,0.210958,-0.000000152308,-19.155178,95.392994)">
<stop offset="0" style="stop-color:rgb(0%,0%,0%);stop-opacity:0.313726;"/>
<stop offset="0.222222" style="stop-color:rgb(0%,0%,0%);stop-opacity:0.27451;"/>
<stop offset="1" style="stop-color:rgb(0%,0%,0%);stop-opacity:0;"/>
</radialGradient>
<radialGradient id="radial3" gradientUnits="userSpaceOnUse" cx="450.908936" cy="189.579361" fx="450.908936" fy="189.579361" r="21.166656" gradientTransform="matrix(0.000000261256,0.117199,-0.210958,0.000000152308,66.784725,-11.291224)">
<stop offset="0" style="stop-color:rgb(0%,0%,0%);stop-opacity:0.313726;"/>
<stop offset="0.222222" style="stop-color:rgb(0%,0%,0%);stop-opacity:0.27451;"/>
<stop offset="1" style="stop-color:rgb(0%,0%,0%);stop-opacity:0;"/>
</radialGradient>
<linearGradient id="linear0" gradientUnits="userSpaceOnUse" x1="255.323059" y1="233.5" x2="255.323044" y2="254.666656" gradientTransform="matrix(0.0200401,0,0,0.093759,18.698079,20.158175)">
<stop offset="0" style="stop-color:rgb(0%,0%,0%);stop-opacity:0.27451;"/>
<stop offset="1" style="stop-color:rgb(0%,0%,0%);stop-opacity:0;"/>
</linearGradient>
<linearGradient id="linear1" gradientUnits="userSpaceOnUse" x1="254" y1="-168.666672" x2="254" y2="233.5" gradientTransform="matrix(0.093759,0,0,0.093759,0,20.158175)">
<stop offset="0" style="stop-color:rgb(100%,54.11765%,39.607844%);stop-opacity:1;"/>
<stop offset="1" style="stop-color:rgb(100%,43.921569%,26.274511%);stop-opacity:1;"/>
</linearGradient>
<linearGradient id="linear2" gradientUnits="userSpaceOnUse" x1="254" y1="233.5" x2="254" y2="-168.666672" gradientTransform="matrix(0.107395,0,0,0.107395,-3.64001,19.716325)">
<stop offset="0" style="stop-color:rgb(74.117649%,74.117649%,74.117649%);stop-opacity:1;"/>
<stop offset="1" style="stop-color:rgb(87.843138%,87.843138%,87.843138%);stop-opacity:1;"/>
</linearGradient>
</defs>
<g id="surface1">
<path style=" stroke:none;fill-rule:nonzero;fill:url(#radial0);" d="M 27.289062 42.050781 L 31.257812 42.050781 L 31.257812 40.066406 L 27.289062 40.066406 Z M 27.289062 42.050781 "/>
<path style=" stroke:none;fill-rule:nonzero;fill:url(#radial1);" d="M 20.339844 42.050781 L 16.371094 42.050781 L 16.371094 44.035156 L 20.339844 44.035156 Z M 20.339844 42.050781 "/>
<path style=" stroke:none;fill-rule:nonzero;fill:url(#radial2);" d="M 20.339844 42.050781 L 16.371094 42.050781 L 16.371094 40.066406 L 20.339844 40.066406 Z M 20.339844 42.050781 "/>
<path style=" stroke:none;fill-rule:nonzero;fill:url(#radial3);" d="M 27.289062 42.050781 L 31.257812 42.050781 L 31.257812 44.035156 L 27.289062 44.035156 Z M 27.289062 42.050781 "/>
<path style=" stroke:none;fill-rule:nonzero;fill:url(#linear0);" d="M 20.339844 41.554688 L 27.289062 41.554688 L 27.289062 44.035156 L 20.339844 44.035156 Z M 20.339844 41.554688 "/>
<path style=" stroke:none;fill-rule:nonzero;fill:url(#linear1);" d="M 23.816406 4.34375 C 34.226562 4.34375 42.667969 12.785156 42.667969 23.199219 C 42.667969 33.609375 34.226562 42.050781 23.816406 42.050781 C 13.402344 42.050781 4.960938 33.609375 4.960938 23.199219 C 4.960938 12.785156 13.402344 4.34375 23.816406 4.34375 Z M 23.816406 4.34375 "/>
<path style=" stroke:none;fill-rule:nonzero;fill:rgb(0%,0%,0%);fill-opacity:0.196078;" d="M 23.816406 42.050781 C 13.371094 42.050781 4.960938 33.640625 4.960938 23.199219 C 4.960938 23.136719 4.960938 23.074219 4.960938 23.011719 C 5.0625 33.371094 13.433594 41.679688 23.816406 41.679688 C 34.199219 41.679688 42.570312 33.371094 42.667969 23.011719 C 42.667969 23.074219 42.667969 23.136719 42.667969 23.199219 C 42.667969 33.640625 34.257812 42.050781 23.816406 42.050781 Z M 23.816406 42.050781 "/>
<path style=" stroke:none;fill-rule:nonzero;fill:rgb(100%,100%,100%);fill-opacity:0.392157;" d="M 23.816406 4.34375 C 13.371094 4.34375 4.960938 12.753906 4.960938 23.199219 C 4.960938 23.257812 4.960938 23.320312 4.960938 23.382812 C 5.0625 13.023438 13.433594 4.714844 23.816406 4.714844 C 34.199219 4.714844 42.570312 13.023438 42.667969 23.382812 C 42.667969 23.320312 42.667969 23.257812 42.667969 23.199219 C 42.667969 12.753906 34.257812 4.34375 23.816406 4.34375 Z M 23.816406 4.34375 "/>
<path style=" stroke:none;fill-rule:nonzero;fill:rgb(12.941177%,12.941177%,12.941177%);fill-opacity:1;" d="M 23.816406 4.203125 C 13.292969 4.203125 4.820312 12.675781 4.820312 23.199219 C 4.820312 33.71875 13.292969 42.191406 23.816406 42.191406 C 34.335938 42.191406 42.808594 33.71875 42.808594 23.199219 C 42.808594 12.675781 34.335938 4.203125 23.816406 4.203125 Z M 23.816406 4.484375 C 34.183594 4.484375 42.527344 12.828125 42.527344 23.199219 C 42.527344 33.566406 34.183594 41.910156 23.816406 41.910156 C 13.445312 41.910156 5.101562 33.566406 5.101562 23.199219 C 5.101562 12.828125 13.445312 4.484375 23.816406 4.484375 Z M 23.816406 4.484375 "/>
<path style=" stroke:none;fill-rule:nonzero;fill:url(#linear2);" d="M 23.636719 12.28125 L 19.164062 14.535156 L 23.636719 16.789062 L 25.933594 15.613281 L 25.933594 14.511719 C 25.933594 14.515625 25.929688 14.457031 25.941406 14.402344 C 25.960938 14.316406 25.976562 14.296875 25.976562 14.308594 C 25.980469 14.300781 25.980469 14.289062 25.984375 14.28125 C 25.992188 14.265625 26 14.261719 26.003906 14.25 L 26.003906 14.253906 C 26.003906 14.253906 26.003906 14.25 26.003906 14.25 C 26.007812 14.25 26.007812 14.25 26.007812 14.25 C 26.011719 14.242188 26.015625 14.230469 26.015625 14.230469 C 26.015625 14.230469 26.035156 14.207031 26.035156 14.207031 C 26.035156 14.207031 26.039062 14.203125 26.042969 14.199219 C 26.042969 14.199219 26.046875 14.199219 26.046875 14.195312 C 26.050781 14.191406 26.050781 14.183594 26.054688 14.179688 C 26.066406 14.15625 26.082031 14.132812 26.097656 14.117188 L 26.207031 14.007812 C 26.246094 13.96875 26.296875 13.949219 26.351562 13.949219 L 26.363281 13.949219 L 26.652344 13.804688 Z M 32.296875 12.363281 L 28.589844 14.226562 L 28.355469 14.347656 C 28.355469 14.347656 28.351562 14.351562 28.347656 14.351562 L 28.117188 14.460938 L 27.847656 14.601562 L 28.121094 14.738281 C 28.125 14.738281 28.125 14.738281 28.125 14.742188 L 28.351562 14.863281 L 28.578125 14.96875 L 29.367188 15.367188 L 29.574219 15.476562 L 29.773438 15.570312 L 32.296875 16.847656 L 36.75 14.605469 Z M 25.992188 14.292969 C 25.992188 14.292969 25.988281 14.292969 25.988281 14.292969 C 25.988281 14.300781 25.988281 14.300781 25.988281 14.300781 C 25.988281 14.304688 25.988281 14.304688 25.988281 14.304688 C 25.988281 14.300781 25.988281 14.296875 25.992188 14.292969 Z M 25.96875 14.335938 L 25.964844 14.363281 C 25.960938 14.363281 25.960938 14.367188 25.960938 14.367188 C 25.964844 14.359375 25.96875 14.347656 25.96875 14.335938 Z M 17.785156 15.207031 L 17.761719 15.21875 L 13.304688 17.460938 L 17.6875 19.675781 L 17.738281 19.695312 C 17.742188 19.699219 17.746094 19.699219 17.75 19.703125 L 17.792969 19.722656 L 17.824219 19.707031 L 22.265625 17.460938 L 20.429688 16.539062 L 19.460938 16.054688 Z M 27.097656 15.578125 L 27.097656 18.601562 L 29.367188 19.746094 L 29.578125 19.855469 L 29.617188 19.875 C 29.671875 19.894531 29.71875 19.921875 29.753906 19.949219 C 29.765625 19.953125 29.769531 19.960938 29.78125 19.96875 C 29.796875 19.976562 29.808594 19.988281 29.824219 20 L 29.792969 19.96875 L 29.800781 19.96875 C 29.914062 19.96875 30.003906 20.058594 30.003906 20.171875 L 30.003906 20.351562 C 30.007812 20.375 30.015625 20.394531 30.015625 20.433594 L 30.015625 20.441406 C 30.015625 20.449219 30.015625 20.453125 30.011719 20.460938 L 30.003906 20.585938 L 30.003906 21.550781 L 31.6875 22.402344 L 31.6875 17.914062 L 29.417969 16.769531 L 29.203125 16.65625 L 29 16.546875 L 27.757812 15.921875 L 27.519531 15.796875 L 27.289062 15.675781 Z M 37.5 15.589844 L 32.910156 17.914062 L 32.910156 22.402344 L 33.101562 22.304688 L 33.335938 22.179688 C 33.335938 22.179688 33.339844 22.179688 33.34375 22.175781 L 33.574219 22.066406 L 37.5 20.089844 Z M 25.933594 16.988281 L 24.988281 17.464844 L 25.933594 17.941406 Z M 23.582031 18.222656 L 23.5625 18.234375 L 19.128906 20.460938 L 20.855469 21.328125 L 23.550781 22.691406 L 23.582031 22.707031 L 23.613281 22.691406 L 27.289062 20.839844 L 27.523438 20.71875 C 27.523438 20.714844 27.527344 20.714844 27.53125 20.714844 L 27.761719 20.601562 L 28.035156 20.460938 L 26.511719 19.699219 L 26.304688 19.589844 L 26.105469 19.492188 L 23.605469 18.234375 Z M 12.558594 18.460938 L 12.558594 22.964844 L 12.585938 22.976562 L 17.183594 25.292969 L 17.183594 20.785156 L 17.132812 20.761719 Z M 29.839844 20.082031 C 29.839844 20.082031 29.839844 20.085938 29.84375 20.082031 C 29.84375 20.082031 29.839844 20.082031 29.839844 20.082031 Z M 18.378906 21.457031 L 18.378906 25.9375 L 18.410156 25.953125 L 20.855469 27.183594 L 22.972656 28.253906 L 22.972656 23.765625 L 22.933594 23.746094 L 20.398438 22.46875 Z M 28.78125 21.457031 L 28.582031 21.558594 L 28.351562 21.667969 L 28.125 21.789062 L 24.230469 23.746094 L 24.191406 23.765625 L 24.191406 28.253906 L 28.75 25.953125 L 28.78125 25.9375 Z M 30.082031 22.859375 L 30.082031 25.28125 L 33.953125 23.328125 L 33.847656 23.273438 L 32.699219 23.855469 L 32.6875 23.871094 C 32.648438 23.90625 32.597656 23.929688 32.546875 23.929688 L 32.484375 23.929688 C 32.476562 23.929688 32.480469 23.929688 32.472656 23.929688 C 32.46875 23.933594 32.460938 23.933594 32.453125 23.9375 C 32.449219 23.9375 32.445312 23.941406 32.441406 23.941406 C 32.4375 23.941406 32.433594 23.945312 32.429688 23.945312 C 32.421875 23.949219 32.417969 23.953125 32.378906 23.953125 C 32.378906 23.953125 32.316406 23.945312 32.246094 23.929688 C 32.246094 23.929688 32.179688 23.921875 32.128906 23.898438 C 32.121094 23.894531 32.105469 23.886719 32.089844 23.875 Z M 12.558594 24.339844 L 12.558594 28.847656 L 17.183594 31.171875 L 17.183594 26.664062 Z M 34.683594 24.339844 L 30.070312 26.664062 L 30.070312 31.171875 L 34.683594 28.847656 Z M 18.402344 27.277344 L 18.402344 31.789062 L 18.441406 31.8125 L 23.015625 34.109375 L 23.015625 29.597656 L 22.976562 29.578125 Z M 28.847656 27.277344 L 24.277344 29.578125 L 24.238281 29.597656 L 24.238281 34.109375 L 28.808594 31.8125 L 28.847656 31.792969 Z M 28.847656 27.277344 "/>
<path style=" stroke:none;fill-rule:nonzero;fill:rgb(100%,100%,100%);fill-opacity:1;" d="M 23.636719 12.28125 L 19.164062 14.535156 L 19.757812 14.835938 L 23.636719 12.878906 L 26.09375 14.121094 C 26.097656 14.117188 26.097656 14.117188 26.097656 14.117188 L 26.207031 14.007812 C 26.246094 13.96875 26.296875 13.949219 26.351562 13.949219 L 26.363281 13.949219 L 26.652344 13.804688 Z M 32.296875 12.363281 L 28.589844 14.226562 L 28.355469 14.347656 C 28.355469 14.347656 28.351562 14.351562 28.347656 14.351562 L 28.117188 14.460938 L 27.847656 14.601562 L 28.121094 14.738281 C 28.125 14.738281 28.125 14.738281 28.125 14.742188 L 28.351562 14.863281 L 28.4375 14.902344 L 28.589844 14.820312 L 32.296875 12.960938 L 36.160156 14.902344 L 36.75 14.605469 Z M 17.785156 15.207031 L 17.761719 15.21875 L 13.304688 17.460938 L 13.898438 17.761719 L 17.761719 15.816406 L 17.785156 15.804688 L 19.460938 16.652344 L 20.429688 17.132812 L 21.675781 17.761719 L 22.265625 17.460938 L 20.429688 16.539062 L 19.460938 16.054688 Z M 27.097656 15.578125 L 27.097656 16.175781 L 27.289062 16.273438 L 27.519531 16.394531 L 27.753906 16.515625 C 27.753906 16.515625 27.757812 16.519531 27.757812 16.519531 L 29 17.144531 L 29.203125 17.253906 L 29.414062 17.363281 C 29.414062 17.367188 29.414062 17.367188 29.417969 17.367188 L 31.6875 18.511719 L 31.6875 17.914062 L 29.417969 16.769531 C 29.414062 16.769531 29.414062 16.769531 29.414062 16.769531 L 29.203125 16.65625 L 29 16.546875 L 27.757812 15.921875 C 27.757812 15.921875 27.753906 15.921875 27.753906 15.921875 L 27.519531 15.796875 L 27.289062 15.675781 Z M 37.5 15.589844 L 32.910156 17.914062 L 32.910156 18.511719 L 37.5 16.1875 Z M 25.933594 16.988281 L 24.988281 17.464844 L 25.578125 17.765625 L 25.933594 17.585938 Z M 23.582031 18.222656 L 23.5625 18.234375 C 23.558594 18.234375 23.558594 18.234375 23.558594 18.234375 L 19.128906 20.460938 L 19.722656 20.757812 L 23.558594 18.832031 C 23.558594 18.832031 23.558594 18.828125 23.5625 18.828125 L 23.582031 18.820312 L 23.601562 18.828125 C 23.601562 18.828125 23.605469 18.832031 23.605469 18.832031 L 26.101562 20.085938 C 26.101562 20.089844 26.105469 20.089844 26.105469 20.089844 L 26.304688 20.183594 L 26.507812 20.292969 C 26.507812 20.292969 26.511719 20.292969 26.511719 20.296875 L 27.441406 20.761719 L 27.523438 20.71875 C 27.523438 20.714844 27.527344 20.714844 27.53125 20.714844 L 27.761719 20.601562 L 28.035156 20.460938 L 26.511719 19.699219 C 26.511719 19.699219 26.507812 19.695312 26.507812 19.695312 L 26.304688 19.589844 L 26.105469 19.492188 C 26.105469 19.492188 26.101562 19.492188 26.101562 19.492188 L 23.605469 18.234375 C 23.605469 18.234375 23.601562 18.234375 23.601562 18.234375 Z M 12.558594 18.460938 L 12.558594 19.058594 L 17.132812 21.359375 L 17.183594 21.382812 L 17.183594 20.785156 L 17.132812 20.761719 Z M 30.003906 21.0625 L 30.003906 21.480469 L 30.011719 21.351562 C 30.015625 21.347656 30.015625 21.339844 30.015625 21.335938 L 30.015625 21.324219 C 30.015625 21.285156 30.007812 21.269531 30.003906 21.242188 Z M 18.378906 21.457031 L 18.378906 22.050781 L 20.398438 23.066406 L 22.933594 24.339844 L 22.972656 24.363281 L 22.972656 23.765625 L 22.933594 23.746094 L 20.398438 22.46875 Z M 28.78125 21.457031 L 28.582031 21.558594 C 28.582031 21.558594 28.582031 21.558594 28.578125 21.558594 L 28.351562 21.667969 L 28.125 21.789062 C 28.125 21.789062 28.125 21.789062 28.121094 21.789062 L 24.230469 23.746094 L 24.191406 23.765625 L 24.191406 24.359375 L 24.230469 24.339844 L 28.121094 22.386719 C 28.125 22.386719 28.125 22.386719 28.125 22.382812 L 28.351562 22.265625 L 28.578125 22.15625 C 28.582031 22.15625 28.582031 22.15625 28.582031 22.15625 L 28.78125 22.054688 Z M 30.082031 22.859375 L 30.082031 23.457031 L 31.886719 24.367188 L 33.953125 23.328125 L 33.847656 23.273438 L 32.699219 23.855469 L 32.6875 23.871094 C 32.648438 23.90625 32.597656 23.929688 32.546875 23.929688 L 32.484375 23.929688 C 32.476562 23.929688 32.480469 23.929688 32.472656 23.929688 C 32.46875 23.933594 32.460938 23.933594 32.453125 23.9375 C 32.449219 23.9375 32.445312 23.941406 32.441406 23.941406 C 32.4375 23.941406 32.433594 23.945312 32.429688 23.945312 C 32.421875 23.949219 32.417969 23.953125 32.378906 23.953125 C 32.378906 23.953125 32.316406 23.945312 32.246094 23.929688 C 32.246094 23.929688 32.179688 23.921875 32.128906 23.898438 C 32.121094 23.894531 32.105469 23.886719 32.089844 23.875 Z M 12.558594 24.339844 L 12.558594 24.933594 L 17.183594 27.257812 L 17.183594 26.664062 Z M 34.683594 24.339844 L 30.070312 26.664062 L 30.070312 27.257812 L 34.683594 24.9375 Z M 18.402344 27.277344 L 18.402344 27.875 L 22.976562 30.171875 L 23.015625 30.195312 L 23.015625 29.597656 L 22.976562 29.578125 Z M 28.847656 27.277344 L 24.277344 29.578125 L 24.238281 29.597656 L 24.238281 30.195312 L 24.277344 30.171875 L 28.847656 27.875 Z M 28.847656 27.277344 "/>
<path style=" stroke:none;fill-rule:nonzero;fill:rgb(0%,0%,0%);fill-opacity:0.235294;" d="M 25.933594 14.769531 L 25.933594 15.613281 L 23.636719 16.792969 L 20.480469 15.203125 L 19.164062 15.867188 L 23.636719 18.117188 L 25.933594 16.941406 L 25.933594 15.839844 C 25.933594 15.84375 25.929688 15.789062 25.941406 15.730469 C 25.960938 15.644531 25.976562 15.625 25.976562 15.640625 C 25.980469 15.628906 25.980469 15.617188 25.984375 15.609375 C 25.992188 15.59375 26 15.589844 26.003906 15.582031 C 26.003906 15.582031 26.003906 15.578125 26.003906 15.578125 C 26.007812 15.578125 26.007812 15.578125 26.007812 15.578125 C 26.011719 15.570312 26.015625 15.558594 26.015625 15.558594 C 26.015625 15.558594 26.035156 15.535156 26.035156 15.535156 C 26.035156 15.535156 26.039062 15.53125 26.042969 15.53125 C 26.042969 15.527344 26.046875 15.527344 26.046875 15.523438 C 26.050781 15.519531 26.050781 15.515625 26.054688 15.507812 C 26.066406 15.484375 26.082031 15.464844 26.097656 15.445312 L 26.207031 15.335938 C 26.246094 15.300781 26.296875 15.277344 26.351562 15.277344 L 26.363281 15.277344 L 26.652344 15.132812 Z M 26.003906 15.582031 Z M 29.164062 15.265625 L 28.589844 15.554688 L 28.355469 15.675781 C 28.355469 15.679688 28.351562 15.679688 28.347656 15.679688 L 28.117188 15.792969 L 27.847656 15.929688 L 28.121094 16.066406 C 28.125 16.066406 28.125 16.070312 28.125 16.070312 L 28.351562 16.191406 L 28.578125 16.296875 C 28.582031 16.300781 28.582031 16.300781 28.582031 16.300781 L 29.367188 16.695312 C 29.371094 16.695312 29.371094 16.695312 29.371094 16.699219 L 29.574219 16.804688 L 29.773438 16.902344 C 29.777344 16.902344 29.777344 16.902344 29.78125 16.902344 L 32.296875 18.175781 L 36.75 15.933594 L 35.433594 15.273438 L 32.296875 16.851562 L 29.78125 15.578125 C 29.777344 15.574219 29.777344 15.574219 29.773438 15.574219 L 29.574219 15.480469 L 29.371094 15.371094 C 29.371094 15.371094 29.371094 15.371094 29.367188 15.371094 Z M 25.992188 15.621094 C 25.992188 15.621094 25.988281 15.625 25.988281 15.625 C 25.988281 15.628906 25.988281 15.628906 25.988281 15.632812 C 25.988281 15.632812 25.988281 15.636719 25.988281 15.636719 C 25.988281 15.632812 25.988281 15.625 25.992188 15.621094 Z M 25.96875 15.664062 C 25.96875 15.667969 25.96875 15.667969 25.96875 15.667969 Z M 25.96875 15.667969 L 25.964844 15.691406 C 25.960938 15.691406 25.960938 15.695312 25.960938 15.695312 C 25.964844 15.6875 25.96875 15.679688 25.96875 15.667969 Z M 20.953125 18.128906 L 17.824219 19.710938 L 17.792969 19.722656 L 17.75 19.703125 C 17.746094 19.703125 17.742188 19.699219 17.738281 19.699219 L 17.6875 19.679688 L 14.621094 18.128906 L 13.304688 18.792969 L 17.6875 21.003906 L 17.738281 21.023438 C 17.742188 21.027344 17.746094 21.027344 17.75 21.03125 L 17.792969 21.050781 L 17.824219 21.035156 L 22.265625 18.792969 Z M 25.933594 18.320312 L 24.988281 18.792969 L 25.933594 19.273438 Z M 27.097656 18.601562 L 27.097656 19.929688 L 29.367188 21.074219 C 29.371094 21.074219 29.371094 21.074219 29.371094 21.074219 L 29.578125 21.1875 L 29.617188 21.207031 C 29.671875 21.222656 29.71875 21.25 29.753906 21.277344 C 29.765625 21.285156 29.769531 21.292969 29.78125 21.296875 C 29.796875 21.308594 29.808594 21.320312 29.824219 21.332031 L 29.792969 21.300781 L 29.800781 21.300781 C 29.910156 21.300781 30 21.390625 30.003906 21.5 L 30.003906 20.589844 L 30.011719 20.464844 C 30.015625 20.457031 30.015625 20.453125 30.015625 20.445312 L 30.015625 20.4375 C 30.015625 20.398438 30.007812 20.378906 30.003906 20.351562 L 30.003906 20.175781 C 30.003906 20.0625 29.914062 19.972656 29.800781 19.972656 L 29.792969 19.972656 L 29.824219 20.003906 C 29.808594 19.992188 29.796875 19.980469 29.78125 19.972656 C 29.769531 19.964844 29.765625 19.957031 29.753906 19.949219 C 29.71875 19.921875 29.671875 19.894531 29.617188 19.878906 L 29.578125 19.859375 L 29.371094 19.75 C 29.371094 19.75 29.371094 19.75 29.367188 19.746094 Z M 29.839844 20.085938 C 29.839844 20.085938 29.84375 20.085938 29.84375 20.085938 C 29.84375 20.085938 29.839844 20.085938 29.839844 20.085938 Z M 37.5 20.089844 L 33.574219 22.066406 L 33.339844 22.179688 C 33.339844 22.179688 33.335938 22.183594 33.335938 22.183594 L 33.101562 22.304688 L 32.910156 22.402344 L 32.910156 23.730469 L 33.101562 23.632812 L 33.335938 23.507812 C 33.335938 23.507812 33.339844 23.507812 33.339844 23.507812 L 33.574219 23.394531 L 37.5 21.417969 Z M 20.449219 21.125 L 19.128906 21.789062 L 20.855469 22.660156 C 20.855469 22.660156 20.859375 22.660156 20.859375 22.660156 L 23.550781 24.023438 L 23.582031 24.035156 L 23.613281 24.023438 L 27.289062 22.167969 L 27.523438 22.046875 C 27.523438 22.042969 27.527344 22.042969 27.53125 22.042969 L 27.761719 21.929688 L 28.035156 21.792969 L 26.71875 21.132812 L 23.613281 22.695312 L 23.582031 22.710938 L 23.550781 22.695312 L 20.859375 21.332031 C 20.859375 21.332031 20.855469 21.332031 20.855469 21.332031 Z M 29.839844 21.414062 C 29.839844 21.414062 29.84375 21.414062 29.84375 21.414062 C 29.84375 21.414062 29.839844 21.414062 29.839844 21.414062 Z M 30.003906 21.554688 L 30.003906 21.679688 C 30.007812 21.707031 30.015625 21.722656 30.015625 21.761719 L 30.015625 21.773438 C 30.015625 21.777344 30.015625 21.785156 30.011719 21.789062 L 30.003906 21.917969 L 30.003906 22.878906 L 30.082031 22.921875 L 30.082031 22.863281 L 31.6875 23.671875 L 31.6875 22.402344 Z M 12.558594 22.964844 L 12.558594 24.292969 L 12.585938 24.308594 C 12.589844 24.308594 12.589844 24.308594 12.589844 24.308594 L 17.183594 26.621094 L 17.183594 25.296875 L 12.589844 22.980469 C 12.589844 22.980469 12.589844 22.980469 12.585938 22.980469 Z M 33.847656 24.601562 L 32.699219 25.1875 L 32.6875 25.199219 C 32.648438 25.234375 32.597656 25.257812 32.546875 25.257812 L 32.484375 25.257812 C 32.476562 25.257812 32.480469 25.257812 32.472656 25.261719 C 32.46875 25.261719 32.460938 25.265625 32.453125 25.265625 C 32.449219 25.269531 32.445312 25.269531 32.441406 25.269531 C 32.4375 25.273438 32.433594 25.273438 32.429688 25.273438 C 32.421875 25.277344 32.417969 25.28125 32.378906 25.28125 C 32.378906 25.28125 32.316406 25.277344 32.246094 25.257812 C 32.246094 25.257812 32.179688 25.25 32.128906 25.230469 C 32.121094 25.222656 32.105469 25.214844 32.089844 25.203125 L 31.164062 24.734375 L 30.082031 25.28125 L 30.082031 26.609375 L 33.953125 24.65625 Z M 28.78125 25.941406 L 28.753906 25.953125 C 28.753906 25.953125 28.75 25.957031 28.75 25.957031 L 24.191406 28.257812 L 24.191406 29.585938 L 28.75 27.28125 C 28.75 27.28125 28.753906 27.28125 28.753906 27.28125 L 28.78125 27.265625 Z M 18.378906 25.941406 L 18.378906 27.265625 L 18.410156 27.28125 C 18.410156 27.28125 18.414062 27.28125 18.414062 27.28125 L 20.769531 28.46875 L 22.972656 29.578125 L 22.972656 28.257812 L 20.859375 27.1875 C 20.859375 27.1875 20.855469 27.1875 20.855469 27.1875 L 18.414062 25.957031 C 18.414062 25.957031 18.410156 25.957031 18.410156 25.953125 Z M 12.558594 28.847656 L 12.558594 30.175781 L 17.183594 32.5 L 17.183594 31.175781 Z M 34.683594 28.847656 L 30.070312 31.171875 L 30.070312 32.5 L 34.683594 30.175781 Z M 18.402344 31.792969 L 18.402344 33.121094 L 18.441406 33.140625 L 23.015625 35.4375 L 23.015625 34.113281 L 18.441406 31.816406 Z M 28.847656 31.792969 L 28.808594 31.816406 L 24.238281 34.113281 L 24.238281 35.4375 L 28.808594 33.140625 L 28.847656 33.121094 Z M 28.847656 31.792969 "/>
<path style="fill:none;stroke-width:3;stroke-linecap:butt;stroke-linejoin:miter;stroke:rgb(12.941177%,12.941177%,12.941177%);stroke-opacity:1;stroke-miterlimit:4;" d="M 252.100926 -84.012509 L 204.397148 -59.973138 L 252.100926 -35.933767 L 276.598586 -48.474236 L 276.598586 -60.223114 C 276.598586 -60.181451 276.556923 -60.806391 276.681912 -61.389669 C 276.890225 -62.306248 277.056876 -62.514562 277.056876 -62.389574 C 277.098538 -62.472899 277.098538 -62.597887 277.140201 -62.681212 C 277.223526 -62.847863 277.306852 -62.889526 277.348515 -63.014514 L 277.348515 -62.972851 C 277.348515 -62.972851 277.348515 -63.014514 277.348515 -63.014514 C 277.390177 -63.014514 277.390177 -63.014514 277.390177 -63.014514 C 277.43184 -63.097839 277.473503 -63.222827 277.473503 -63.222827 C 277.473503 -63.222827 277.681816 -63.472803 277.681816 -63.472803 C 277.681816 -63.472803 277.723479 -63.514466 277.765141 -63.556129 C 277.765141 -63.556129 277.806804 -63.556129 277.806804 -63.597792 C 277.848467 -63.639454 277.848467 -63.72278 277.890129 -63.764442 C 278.015118 -64.014418 278.181768 -64.264395 278.348419 -64.431045 L 279.514974 -65.597601 C 279.931601 -66.014227 280.473216 -66.222541 281.056494 -66.222541 L 281.181482 -66.222541 L 284.264521 -67.76406 Z M 344.467105 -83.137592 L 304.929214 -63.26449 L 302.429453 -61.972947 C 302.429453 -61.972947 302.38779 -61.931284 302.346127 -61.931284 L 299.888029 -60.764729 L 297.013303 -59.264872 L 299.929691 -57.806678 C 299.971354 -57.806678 299.971354 -57.806678 299.971354 -57.765015 L 302.38779 -56.473472 L 304.804226 -55.348579 L 313.220089 -51.098985 L 315.428211 -49.93243 L 317.553009 -48.932525 L 344.467105 -35.308826 L 391.962569 -59.223209 Z M 277.223526 -62.556224 C 277.223526 -62.556224 277.181864 -62.556224 277.181864 -62.556224 C 277.181864 -62.472899 277.181864 -62.472899 277.181864 -62.472899 C 277.181864 -62.431236 277.181864 -62.431236 277.181864 -62.431236 C 277.181864 -62.472899 277.181864 -62.514562 277.223526 -62.556224 Z M 276.97355 -62.097935 L 276.931888 -61.806296 C 276.890225 -61.806296 276.890225 -61.764633 276.890225 -61.764633 C 276.931888 -61.847959 276.97355 -61.972947 276.97355 -62.097935 Z M 189.690219 -52.807155 L 189.440243 -52.682167 L 141.903116 -28.767784 L 188.648652 -5.14504 L 189.190267 -4.936727 C 189.231929 -4.895064 189.273592 -4.895064 189.315255 -4.853401 L 189.773544 -4.645088 L 190.106846 -4.811739 L 237.477322 -28.767784 L 217.895859 -38.600179 L 207.563512 -43.766352 Z M 289.014067 -48.8492 L 289.014067 -16.602279 L 313.220089 -4.395112 L 315.469874 -3.228556 L 315.886501 -3.020243 C 316.469779 -2.81193 316.969731 -2.520291 317.344695 -2.228652 C 317.469683 -2.186989 317.511346 -2.103664 317.636334 -2.020339 C 317.802985 -1.937013 317.927973 -1.812025 318.094623 -1.687037 L 317.761322 -2.020339 L 317.844647 -2.020339 C 319.052865 -2.020339 320.011107 -1.062097 320.011107 0.146121 L 320.011107 2.062605 C 320.05277 2.312581 320.136095 2.520894 320.136095 2.937521 L 320.136095 3.020847 C 320.136095 3.104172 320.136095 3.145835 320.094433 3.22916 L 320.011107 4.562366 L 320.011107 14.85305 L 337.967726 23.935516 L 337.967726 -23.934912 L 313.761704 -36.14208 L 311.470256 -37.350298 L 309.303796 -38.516853 L 296.055061 -45.182883 L 293.513638 -46.516089 L 291.055539 -47.807633 Z M 399.961806 -48.724212 L 351.008147 -23.934912 L 351.008147 23.935516 L 353.049619 22.893949 L 355.54938 21.560743 C 355.54938 21.560743 355.591043 21.560743 355.632705 21.51908 L 358.090804 20.352525 L 399.961806 -0.728795 Z M 276.598586 -33.80897 L 266.516216 -28.726122 L 276.598586 -23.643274 Z M 251.517648 -20.64356 L 251.309334 -20.518572 L 204.022184 3.22916 L 222.437092 12.478277 L 251.184346 27.018555 L 251.517648 27.185206 L 251.850949 27.018555 L 291.055539 7.270441 L 293.5553 5.978898 C 293.5553 5.937235 293.596963 5.937235 293.638626 5.937235 L 296.096724 4.729017 L 299.013112 3.22916 L 282.764664 -4.895064 L 280.556542 -6.061619 L 278.431744 -7.103186 L 251.767624 -20.518572 Z M 133.945542 -18.102136 L 133.945542 29.934943 L 134.237181 30.059931 L 183.274165 54.765905 L 183.274165 6.687163 L 182.73255 6.437187 Z M 318.261274 -0.812121 C 318.261274 -0.812121 318.261274 -0.770458 318.302937 -0.812121 C 318.302937 -0.812121 318.261274 -0.812121 318.261274 -0.812121 Z M 196.022947 13.853146 L 196.022947 61.640249 L 196.356249 61.8069 L 222.437092 74.930646 L 245.018269 86.346223 L 245.018269 38.475794 L 244.601642 38.267481 L 217.562557 24.643782 Z M 306.970686 13.853146 L 304.845889 14.936376 L 302.38779 16.102931 L 299.971354 17.394474 L 258.433654 38.267481 L 258.017027 38.475794 L 258.017027 86.346223 L 306.637384 61.8069 L 306.970686 61.640249 Z M 320.844361 28.810051 L 320.844361 54.640917 L 362.132085 33.809573 L 361.007192 33.226296 L 348.758362 39.434036 L 348.633374 39.600687 C 348.216747 39.975651 347.675132 40.225627 347.133517 40.225627 L 346.466914 40.225627 C 346.383589 40.225627 346.425251 40.225627 346.341926 40.225627 C 346.300263 40.26729 346.216938 40.26729 346.133613 40.308953 C 346.09195 40.308953 346.050287 40.350615 346.008624 40.350615 C 345.966962 40.350615 345.925299 40.392278 345.883636 40.392278 C 345.800311 40.433941 345.758648 40.475603 345.342021 40.475603 C 345.342021 40.475603 344.675418 40.392278 343.92549 40.225627 C 343.92549 40.225627 343.217224 40.142302 342.675609 39.892326 C 342.592284 39.850663 342.425633 39.767338 342.258983 39.64235 Z M 133.945542 44.600209 L 133.945542 92.678951 L 183.274165 117.468251 L 183.274165 69.389509 Z M 369.923007 44.600209 L 320.719373 69.389509 L 320.719373 117.468251 L 369.923007 92.678951 Z M 196.272924 75.930551 L 196.272924 124.050956 L 196.68955 124.300932 L 245.476558 148.798592 L 245.476558 100.678188 L 245.059931 100.469874 Z M 307.678951 75.930551 L 258.933606 100.469874 L 258.51698 100.678188 L 258.51698 148.798592 L 307.262325 124.300932 L 307.678951 124.092618 Z M 307.678951 75.930551 " transform="matrix(0.093759,0,0,0.093759,0,20.158175)"/>
</g>
</svg>
