<?xml version="1.0" encoding="UTF-8"?>
<svg xmlns="http://www.w3.org/2000/svg" xmlns:xlink="http://www.w3.org/1999/xlink" width="48px" height="48px" viewBox="0 0 48 48" version="1.1">
<defs>
<radialGradient id="radial0" gradientUnits="userSpaceOnUse" cx="450.908936" cy="189.579361" fx="450.908936" fy="189.579361" r="21.166656" gradientTransform="matrix(0.000000261256,-0.117199,-0.210958,-0.000000152308,66.784728,95.392994)">
<stop offset="0" style="stop-color:rgb(0%,0%,0%);stop-opacity:0.313726;"/>
<stop offset="0.222222" style="stop-color:rgb(0%,0%,0%);stop-opacity:0.27451;"/>
<stop offset="1" style="stop-color:rgb(0%,0%,0%);stop-opacity:0;"/>
</radialGradient>
<radialGradient id="radial1" gradientUnits="userSpaceOnUse" cx="450.908936" cy="189.579361" fx="450.908936" fy="189.579361" r="21.166656" gradientTransform="matrix(-0.000000261256,0.117199,0.210958,0.000000152308,-19.155178,-11.291223)">
<stop offset="0" style="stop-color:rgb(0%,0%,0%);stop-opacity:0.313726;"/>
<stop offset="0.222222" style="stop-color:rgb(0%,0%,0%);stop-opacity:0.27451;"/>
<stop offset="1" style="stop-color:rgb(0%,0%,0%);stop-opacity:0;"/>
</radialGradient>
<radialGradient id="radial2" gradientUnits="userSpaceOnUse" cx="450.908936" cy="189.579361" fx="450.908936" fy="189.579361" r="21.166656" gradientTransform="matrix(-0.000000261256,-0.117199,0.210958,-0.000000152308,-19.155178,95.392994)">
<stop offset="0" style="stop-color:rgb(0%,0%,0%);stop-opacity:0.313726;"/>
<stop offset="0.222222" style="stop-color:rgb(0%,0%,0%);stop-opacity:0.27451;"/>
<stop offset="1" style="stop-color:rgb(0%,0%,0%);stop-opacity:0;"/>
</radialGradient>
<radialGradient id="radial3" gradientUnits="userSpaceOnUse" cx="450.908936" cy="189.579361" fx="450.908936" fy="189.579361" r="21.166656" gradientTransform="matrix(0.000000261256,0.117199,-0.210958,0.000000152308,66.784725,-11.291224)">
<stop offset="0" style="stop-color:rgb(0%,0%,0%);stop-opacity:0.313726;"/>
<stop offset="0.222222" style="stop-color:rgb(0%,0%,0%);stop-opacity:0.27451;"/>
<stop offset="1" style="stop-color:rgb(0%,0%,0%);stop-opacity:0;"/>
</radialGradient>
<linearGradient id="linear0" gradientUnits="userSpaceOnUse" x1="255.323059" y1="233.5" x2="255.323044" y2="254.666656" gradientTransform="matrix(0.0200401,0,0,0.093759,18.698079,20.158175)">
<stop offset="0" style="stop-color:rgb(0%,0%,0%);stop-opacity:0.27451;"/>
<stop offset="1" style="stop-color:rgb(0%,0%,0%);stop-opacity:0;"/>
</linearGradient>
<linearGradient id="linear1" gradientUnits="userSpaceOnUse" x1="254" y1="-168.666672" x2="254" y2="233.5" gradientTransform="matrix(0.093759,0,0,0.093759,0.00000190753,20.158174)">
<stop offset="0" style="stop-color:rgb(50.196081%,79.607844%,76.862746%);stop-opacity:1;"/>
<stop offset="1" style="stop-color:rgb(14.901961%,65.098041%,60.392159%);stop-opacity:1;"/>
</linearGradient>
<linearGradient id="linear2" gradientUnits="userSpaceOnUse" x1="254" y1="127.666656" x2="254" y2="-62.833332" gradientTransform="matrix(1,0,0,1,0,0)">
<stop offset="0" style="stop-color:rgb(95.686275%,26.274511%,21.176471%);stop-opacity:1;"/>
<stop offset="1" style="stop-color:rgb(93.725491%,32.549021%,31.37255%);stop-opacity:1;"/>
</linearGradient>
<linearGradient id="linear3" gradientUnits="userSpaceOnUse" x1="254" y1="-147.5" x2="254" y2="212.333328" gradientTransform="matrix(0.093759,0,0,0.093759,0,20.158175)">
<stop offset="0" style="stop-color:rgb(94.117647%,38.431373%,57.254905%);stop-opacity:1;"/>
<stop offset="1" style="stop-color:rgb(95.686275%,56.078434%,69.411767%);stop-opacity:1;"/>
</linearGradient>
<linearGradient id="linear4" gradientUnits="userSpaceOnUse" x1="318.477539" y1="187.709076" x2="188.950897" y2="-125.209373" gradientTransform="matrix(0.0866306,0.0358591,-0.0358591,0.0866306,2.955943,11.392368)">
<stop offset="0" style="stop-color:rgb(95.686275%,56.078434%,69.411767%);stop-opacity:1;"/>
<stop offset="1" style="stop-color:rgb(97.254902%,73.333335%,81.568629%);stop-opacity:1;"/>
</linearGradient>
<linearGradient id="linear5" gradientUnits="userSpaceOnUse" x1="264.583344" y1="-41.666668" x2="264.583344" y2="106.5" gradientTransform="matrix(0.093759,0,0,0.093759,0,20.158175)">
<stop offset="0" style="stop-color:rgb(100%,65.490198%,14.901961%);stop-opacity:1;"/>
<stop offset="1" style="stop-color:rgb(100%,71.764708%,30.19608%);stop-opacity:1;"/>
</linearGradient>
</defs>
<g id="surface1">
<path style=" stroke:none;fill-rule:nonzero;fill:url(#radial0);" d="M 27.289062 42.050781 L 31.257812 42.050781 L 31.257812 40.066406 L 27.289062 40.066406 Z M 27.289062 42.050781 "/>
<path style=" stroke:none;fill-rule:nonzero;fill:url(#radial1);" d="M 20.339844 42.050781 L 16.371094 42.050781 L 16.371094 44.035156 L 20.339844 44.035156 Z M 20.339844 42.050781 "/>
<path style=" stroke:none;fill-rule:nonzero;fill:url(#radial2);" d="M 20.339844 42.050781 L 16.371094 42.050781 L 16.371094 40.066406 L 20.339844 40.066406 Z M 20.339844 42.050781 "/>
<path style=" stroke:none;fill-rule:nonzero;fill:url(#radial3);" d="M 27.289062 42.050781 L 31.257812 42.050781 L 31.257812 44.035156 L 27.289062 44.035156 Z M 27.289062 42.050781 "/>
<path style=" stroke:none;fill-rule:nonzero;fill:url(#linear0);" d="M 20.339844 41.554688 L 27.289062 41.554688 L 27.289062 44.035156 L 20.339844 44.035156 Z M 20.339844 41.554688 "/>
<path style=" stroke:none;fill-rule:nonzero;fill:url(#linear1);" d="M 23.816406 4.34375 C 34.226562 4.34375 42.667969 12.785156 42.667969 23.199219 C 42.667969 33.609375 34.226562 42.050781 23.816406 42.050781 C 13.402344 42.050781 4.960938 33.609375 4.960938 23.199219 C 4.960938 12.785156 13.402344 4.34375 23.816406 4.34375 Z M 23.816406 4.34375 "/>
<path style=" stroke:none;fill-rule:nonzero;fill:rgb(0%,0%,0%);fill-opacity:0.196078;" d="M 23.816406 42.050781 C 13.371094 42.050781 4.960938 33.640625 4.960938 23.199219 C 4.960938 23.136719 4.960938 23.074219 4.960938 23.011719 C 5.0625 33.371094 13.433594 41.679688 23.816406 41.679688 C 34.199219 41.679688 42.570312 33.371094 42.667969 23.011719 C 42.667969 23.074219 42.667969 23.136719 42.667969 23.199219 C 42.667969 33.640625 34.257812 42.050781 23.816406 42.050781 Z M 23.816406 42.050781 "/>
<path style=" stroke:none;fill-rule:nonzero;fill:rgb(0%,0%,0%);fill-opacity:0.235294;" d="M 12.136719 12.648438 C 11.605469 13.765625 14.230469 17.558594 14.714844 19.484375 C 14.726562 19.46875 14.730469 19.453125 14.738281 19.4375 C 15.195312 18.335938 12.601562 14.59375 12.136719 12.648438 Z M 35.492188 12.648438 C 35.027344 14.59375 32.433594 18.335938 32.890625 19.4375 C 32.898438 19.453125 32.90625 19.46875 32.914062 19.484375 C 33.398438 17.558594 36.023438 13.765625 35.492188 12.648438 Z M 7.644531 23.640625 C 7.515625 23.78125 7.441406 23.925781 7.441406 24.082031 C 7.441406 25.539062 14.015625 26.453125 14.714844 27.792969 C 14.804688 27.445312 14.820312 27.15625 14.738281 26.957031 C 14.230469 25.734375 8.769531 24.871094 7.644531 23.640625 Z M 39.984375 23.640625 C 38.859375 24.871094 33.398438 25.734375 32.890625 26.957031 C 32.808594 27.15625 32.824219 27.445312 32.914062 27.792969 C 33.613281 26.453125 40.1875 25.539062 40.1875 24.082031 C 40.1875 23.925781 40.117188 23.78125 39.984375 23.640625 Z M 19.753906 32.21875 C 18.03125 32.203125 13.21875 35.753906 12.238281 34.773438 C 12.195312 34.734375 12.164062 34.683594 12.136719 34.628906 C 12.027344 35.09375 12.035156 35.457031 12.238281 35.65625 C 13.28125 36.703125 18.691406 32.589844 20.054688 33.15625 C 21.421875 33.722656 22.335938 40.453125 23.816406 40.453125 C 25.292969 40.453125 26.210938 33.722656 27.574219 33.15625 C 28.9375 32.589844 34.347656 36.703125 35.390625 35.65625 C 35.59375 35.457031 35.601562 35.09375 35.492188 34.628906 C 35.464844 34.683594 35.433594 34.734375 35.390625 34.773438 C 34.347656 35.820312 28.9375 31.707031 27.574219 32.273438 C 26.210938 32.839844 25.292969 39.570312 23.816406 39.570312 C 22.335938 39.570312 21.421875 32.839844 20.054688 32.273438 C 19.96875 32.238281 19.867188 32.222656 19.753906 32.21875 Z M 19.753906 32.21875 "/>
<path style="fill-rule:nonzero;fill:url(#linear2);stroke-width:3;stroke-linecap:round;stroke-linejoin:miter;stroke:rgb(12.941177%,12.941177%,12.941177%);stroke-opacity:1;stroke-miterlimit:4;" d="M 254.017409 -62.847863 C 306.595722 -62.847863 349.258314 -20.185271 349.258314 32.434704 C 349.258314 85.013017 306.595722 127.675609 254.017409 127.675609 C 201.397434 127.675609 158.734842 85.013017 158.734842 32.434704 C 158.734842 -20.185271 201.397434 -62.847863 254.017409 -62.847863 Z M 254.017409 -62.847863 " transform="matrix(0.093759,0,0,0.093759,0,20.158175)"/>
<path style=" stroke:none;fill-rule:nonzero;fill:rgb(100%,100%,100%);fill-opacity:0.392157;" d="M 23.816406 4.34375 C 13.371094 4.34375 4.960938 12.753906 4.960938 23.199219 C 4.960938 23.257812 4.960938 23.320312 4.960938 23.382812 C 5.0625 13.023438 13.433594 4.714844 23.816406 4.714844 C 34.199219 4.714844 42.570312 13.023438 42.667969 23.382812 C 42.667969 23.320312 42.667969 23.257812 42.667969 23.199219 C 42.667969 12.753906 34.257812 4.34375 23.816406 4.34375 Z M 23.816406 4.34375 "/>
<path style=" stroke:none;fill-rule:nonzero;fill:rgb(12.941177%,12.941177%,12.941177%);fill-opacity:1;" d="M 23.816406 4.203125 C 13.292969 4.203125 4.820312 12.675781 4.820312 23.199219 C 4.820312 33.71875 13.292969 42.191406 23.816406 42.191406 C 34.335938 42.191406 42.808594 33.71875 42.808594 23.199219 C 42.808594 12.675781 34.335938 4.203125 23.816406 4.203125 Z M 23.816406 4.484375 C 34.183594 4.484375 42.527344 12.828125 42.527344 23.199219 C 42.527344 33.566406 34.183594 41.910156 23.816406 41.910156 C 13.445312 41.910156 5.101562 33.566406 5.101562 23.199219 C 5.101562 12.828125 13.445312 4.484375 23.816406 4.484375 Z M 23.816406 4.484375 "/>
<path style=" stroke:none;fill-rule:nonzero;fill:url(#linear3);" d="M 23.816406 6.824219 C 25.292969 6.824219 26.210938 13.554688 27.574219 14.121094 C 28.9375 14.6875 34.347656 10.574219 35.390625 11.621094 C 36.4375 12.664062 32.324219 18.074219 32.890625 19.4375 C 33.457031 20.804688 40.1875 21.71875 40.1875 23.199219 C 40.1875 24.675781 33.457031 25.59375 32.890625 26.957031 C 32.324219 28.320312 36.4375 33.730469 35.390625 34.773438 C 34.347656 35.820312 28.9375 31.707031 27.574219 32.273438 C 26.210938 32.839844 25.292969 39.570312 23.816406 39.570312 C 22.335938 39.570312 21.421875 32.839844 20.054688 32.273438 C 18.691406 31.707031 13.28125 35.820312 12.238281 34.773438 C 11.191406 33.730469 15.304688 28.320312 14.738281 26.957031 C 14.171875 25.59375 7.441406 24.675781 7.441406 23.199219 C 7.441406 21.71875 14.171875 20.804688 14.738281 19.4375 C 15.304688 18.074219 11.191406 12.664062 12.238281 11.621094 C 13.28125 10.574219 18.691406 14.6875 20.054688 14.121094 C 21.421875 13.554688 22.335938 6.824219 23.816406 6.824219 Z M 23.816406 6.824219 "/>
<path style=" stroke:none;fill-rule:nonzero;fill:rgb(91.37255%,91.37255%,91.37255%);fill-opacity:0.392157;" d="M 23.816406 6.824219 C 22.335938 6.824219 21.421875 13.554688 20.054688 14.121094 C 18.691406 14.6875 13.28125 10.574219 12.238281 11.621094 C 12.0625 11.796875 12.03125 12.097656 12.101562 12.484375 C 12.128906 12.390625 12.175781 12.3125 12.238281 12.25 C 13.28125 11.203125 18.691406 15.316406 20.054688 14.75 C 21.421875 14.183594 22.335938 7.453125 23.816406 7.453125 C 25.292969 7.453125 26.210938 14.183594 27.574219 14.75 C 28.9375 15.316406 34.347656 11.203125 35.390625 12.25 C 35.457031 12.3125 35.5 12.390625 35.527344 12.484375 C 35.597656 12.097656 35.570312 11.796875 35.390625 11.621094 C 34.347656 10.574219 28.9375 14.6875 27.574219 14.121094 C 26.210938 13.554688 25.292969 6.824219 23.816406 6.824219 Z M 14.753906 19.398438 C 14.75 19.410156 14.746094 19.425781 14.738281 19.4375 C 14.171875 20.804688 7.441406 21.71875 7.441406 23.199219 C 7.441406 23.304688 7.476562 23.410156 7.542969 23.511719 C 8.390625 22.210938 14.214844 21.332031 14.738281 20.066406 C 14.808594 19.898438 14.808594 19.671875 14.753906 19.398438 Z M 32.875 19.398438 C 32.824219 19.671875 32.820312 19.898438 32.890625 20.066406 C 33.414062 21.332031 39.238281 22.210938 40.085938 23.511719 C 40.152344 23.410156 40.1875 23.304688 40.1875 23.199219 C 40.1875 21.71875 33.457031 20.804688 32.890625 19.4375 C 32.886719 19.425781 32.878906 19.410156 32.875 19.398438 Z M 14.753906 27.625 C 14.398438 29.449219 11.730469 33.28125 12.101562 34.539062 C 12.445312 32.667969 15.144531 28.808594 14.753906 27.625 Z M 32.875 27.625 C 32.484375 28.808594 35.183594 32.667969 35.527344 34.539062 C 35.902344 33.28125 33.230469 29.449219 32.875 27.625 Z M 32.875 27.625 "/>
<path style="fill:none;stroke-width:3;stroke-linecap:round;stroke-linejoin:round;stroke:rgb(12.941177%,12.941177%,12.941177%);stroke-opacity:0.992806;stroke-miterlimit:4;" d="M 254.017409 -142.215284 C 269.765905 -142.215284 279.556637 -70.430472 294.096915 -64.389383 C 308.637193 -58.348293 366.340016 -102.219103 377.463954 -91.053503 C 388.629554 -79.929565 344.758744 -22.226742 350.799834 -7.686464 C 356.840923 6.895477 428.625735 16.644546 428.625735 32.434704 C 428.625735 48.183201 356.840923 57.973932 350.799834 72.51421 C 344.758744 87.054489 388.629554 144.757312 377.463954 155.881249 C 366.340016 167.04685 308.637193 123.176039 294.096915 129.217129 C 279.556637 135.258219 269.765905 207.04303 254.017409 207.04303 C 238.22725 207.04303 228.478181 135.258219 213.896241 129.217129 C 199.355962 123.176039 141.653139 167.04685 130.529202 155.881249 C 119.363601 144.757312 163.234412 87.054489 157.193322 72.51421 C 151.152232 57.973932 79.367421 48.183201 79.367421 32.434704 C 79.367421 16.644546 151.152232 6.895477 157.193322 -7.686464 C 163.234412 -22.226742 119.363601 -79.929565 130.529202 -91.053503 C 141.653139 -102.219103 199.355962 -58.348293 213.896241 -64.389383 C 228.478181 -70.430472 238.22725 -142.215284 254.017409 -142.215284 Z M 254.017409 -142.215284 " transform="matrix(0.093759,0,0,0.093759,0,20.158175)"/>
<path style=" stroke:none;fill-rule:nonzero;fill:url(#linear4);" d="M 30.058594 8.179688 C 31.425781 8.746094 29.699219 15.316406 30.742188 16.359375 C 31.789062 17.40625 38.355469 15.675781 38.921875 17.039062 C 39.488281 18.40625 33.621094 21.828125 33.621094 23.304688 C 33.621094 24.785156 39.492188 28.207031 38.925781 29.570312 C 38.359375 30.9375 31.789062 29.207031 30.746094 30.253906 C 29.703125 31.296875 31.433594 37.867188 30.066406 38.433594 C 28.703125 39 25.277344 33.132812 23.800781 33.132812 C 22.324219 33.132812 18.902344 39 17.535156 38.4375 C 16.171875 37.871094 17.898438 31.300781 16.851562 30.257812 C 15.808594 29.210938 9.238281 30.941406 8.671875 29.578125 C 8.105469 28.214844 13.972656 24.789062 13.972656 23.3125 C 13.972656 21.832031 8.105469 18.414062 8.667969 17.046875 C 9.234375 15.683594 15.804688 17.410156 16.851562 16.363281 C 17.894531 15.320312 16.164062 8.75 17.527344 8.183594 C 18.894531 7.617188 22.316406 13.484375 23.796875 13.484375 C 25.273438 13.484375 28.695312 7.617188 30.058594 8.179688 Z M 30.058594 8.179688 "/>
<path style=" stroke:none;fill-rule:nonzero;fill:url(#linear5);" d="M 23.816406 16.996094 C 24.84375 17.011719 24.832031 17.882812 25.800781 18.234375 C 26.699219 18.5625 27.234375 17.878906 27.960938 18.503906 C 28.738281 19.179688 28.167969 19.839844 28.683594 20.730469 C 29.164062 21.558594 30.015625 21.378906 30.167969 22.324219 C 30.332031 23.34375 29.46875 23.480469 29.289062 24.496094 C 29.125 25.4375 29.890625 25.847656 29.402344 26.671875 C 28.871094 27.554688 28.121094 27.105469 27.335938 27.769531 C 26.601562 28.386719 26.925781 29.191406 26.019531 29.507812 C 25.046875 29.84375 24.761719 29.019531 23.730469 29.019531 C 22.773438 29.019531 22.503906 29.847656 21.609375 29.507812 C 20.648438 29.140625 20.957031 28.324219 20.167969 27.664062 C 19.433594 27.046875 18.695312 27.507812 18.230469 26.671875 C 17.726562 25.769531 18.488281 25.347656 18.3125 24.332031 C 18.144531 23.386719 17.28125 23.265625 17.464844 22.324219 C 17.65625 21.3125 18.515625 21.476562 19.027344 20.585938 C 19.507812 19.757812 18.925781 19.109375 19.667969 18.503906 C 20.46875 17.855469 21.019531 18.53125 21.988281 18.179688 C 22.886719 17.851562 22.855469 16.980469 23.816406 16.996094 Z M 23.816406 16.996094 "/>
<path style=" stroke:none;fill-rule:nonzero;fill:rgb(0%,0%,0%);fill-opacity:0.235294;" d="M 23.769531 16.996094 C 22.855469 17.007812 22.871094 17.855469 21.988281 18.179688 C 21.019531 18.53125 20.46875 17.855469 19.667969 18.503906 C 18.925781 19.109375 19.507812 19.757812 19.027344 20.585938 C 18.515625 21.476562 17.65625 21.3125 17.464844 22.324219 C 17.417969 22.566406 17.4375 22.753906 17.5 22.914062 C 17.75 22.074219 18.542969 22.175781 19.027344 21.332031 C 19.507812 20.5 18.925781 19.855469 19.667969 19.25 C 20.46875 18.597656 21.019531 19.277344 21.988281 18.921875 C 22.886719 18.597656 22.855469 17.726562 23.816406 17.738281 C 24.84375 17.753906 24.832031 18.628906 25.800781 18.980469 C 26.699219 19.308594 27.234375 18.621094 27.960938 19.25 C 28.738281 19.921875 28.167969 20.582031 28.683594 21.476562 C 29.136719 22.257812 29.917969 22.140625 30.132812 22.917969 C 30.1875 22.753906 30.203125 22.5625 30.167969 22.324219 C 30.015625 21.378906 29.164062 21.558594 28.683594 20.730469 C 28.167969 19.839844 28.738281 19.179688 27.960938 18.503906 C 27.234375 17.878906 26.699219 18.5625 25.800781 18.234375 C 24.832031 17.882812 24.84375 17.011719 23.816406 16.996094 C 23.800781 16.996094 23.785156 16.996094 23.769531 16.996094 Z M 18.300781 25.015625 C 18.195312 25.519531 17.941406 25.890625 18.113281 26.410156 C 18.214844 26.027344 18.410156 25.644531 18.3125 25.074219 C 18.308594 25.054688 18.304688 25.035156 18.300781 25.015625 Z M 29.3125 25.136719 C 29.304688 25.171875 29.296875 25.203125 29.289062 25.238281 C 29.199219 25.757812 29.390625 26.117188 29.5 26.472656 C 29.691406 25.972656 29.421875 25.617188 29.3125 25.136719 Z M 29.3125 25.136719 "/>
<path style=" stroke:none;fill-rule:nonzero;fill:rgb(100%,100%,100%);fill-opacity:0.392157;" d="M 17.492188 22.945312 C 17.480469 22.984375 17.472656 23.027344 17.464844 23.070312 C 17.285156 24 18.125 24.128906 18.304688 25.046875 C 18.34375 24.851562 18.355469 24.636719 18.3125 24.386719 C 18.183594 23.671875 17.660156 23.429688 17.492188 22.945312 Z M 30.140625 22.949219 C 29.980469 23.503906 29.429688 23.761719 29.289062 24.550781 C 29.25 24.785156 29.265625 24.984375 29.304688 25.167969 C 29.511719 24.21875 30.328125 24.0625 30.167969 23.070312 C 30.160156 23.027344 30.152344 22.988281 30.140625 22.949219 Z M 18.105469 26.441406 C 18.03125 26.734375 18.015625 27.03125 18.230469 27.414062 C 18.695312 28.25 19.433594 27.789062 20.167969 28.40625 C 20.957031 29.066406 20.648438 29.882812 21.609375 30.25 C 22.503906 30.59375 22.773438 29.765625 23.730469 29.765625 C 24.761719 29.765625 25.046875 30.589844 26.019531 30.25 C 26.925781 29.9375 26.601562 29.128906 27.335938 28.511719 C 28.121094 27.851562 28.871094 28.296875 29.402344 27.414062 C 29.613281 27.058594 29.589844 26.78125 29.507812 26.5 C 29.484375 26.574219 29.445312 26.648438 29.402344 26.726562 C 28.871094 27.609375 28.121094 27.164062 27.335938 27.824219 C 26.601562 28.441406 26.925781 29.246094 26.019531 29.5625 C 25.046875 29.898438 24.761719 29.074219 23.730469 29.074219 C 22.773438 29.074219 22.503906 29.902344 21.609375 29.5625 C 20.648438 29.195312 20.957031 28.378906 20.167969 27.71875 C 19.433594 27.101562 18.695312 27.5625 18.230469 26.726562 C 18.171875 26.625 18.132812 26.53125 18.105469 26.441406 Z M 18.105469 26.441406 "/>
<path style="fill:none;stroke-width:3;stroke-linecap:round;stroke-linejoin:round;stroke:rgb(12.941177%,12.941177%,12.941177%);stroke-opacity:0.992806;stroke-miterlimit:4;" d="M 254.017409 -33.725644 C 264.974696 -33.558993 264.849708 -24.268214 275.182055 -20.518572 C 284.764473 -17.018906 290.472261 -24.309877 298.221521 -17.643847 C 306.512396 -10.436202 300.429644 -3.395207 305.929119 6.103886 C 311.053629 14.936376 320.136095 13.019892 321.76094 23.102262 C 323.510773 33.976224 314.303319 35.434418 312.386835 46.266717 C 310.637002 56.307425 318.802889 60.682007 313.595053 69.472834 C 307.928928 78.888602 299.929691 74.097393 291.555491 81.18005 C 283.722906 87.762754 287.180909 96.345268 277.515165 99.719946 C 267.141156 103.302937 264.09978 94.51211 253.10083 94.51211 C 242.893471 94.51211 240.018746 103.3446 230.47799 99.719946 C 220.228969 95.803653 223.520322 87.096151 215.104459 80.055157 C 207.271873 73.472452 199.397625 78.388649 194.439765 69.472834 C 189.065279 59.848753 197.189503 55.349183 195.314682 44.516884 C 193.523186 34.434514 184.315732 33.14297 186.273878 23.102262 C 188.31535 12.311626 197.481141 14.061459 202.938954 4.562366 C 208.063464 -4.270124 201.855724 -11.18613 209.771634 -17.643847 C 218.312486 -24.559853 224.186925 -17.352208 234.519271 -21.10185 C 244.101689 -24.601515 243.768388 -33.892295 254.017409 -33.725644 Z M 254.017409 -33.725644 " transform="matrix(0.093759,0,0,0.093759,0,20.158175)"/>
<path style=" stroke:none;fill-rule:nonzero;fill:rgb(91.37255%,91.37255%,91.37255%);fill-opacity:0.392157;" d="M 29.855469 8.144531 C 28.378906 8.152344 25.203125 13.484375 23.796875 13.484375 C 22.316406 13.484375 18.894531 7.617188 17.527344 8.183594 C 17.054688 8.378906 16.953125 9.300781 16.980469 10.464844 C 17.003906 9.609375 17.144531 8.972656 17.527344 8.8125 C 18.894531 8.246094 22.316406 14.113281 23.796875 14.113281 C 25.273438 14.113281 28.695312 8.246094 30.058594 8.808594 C 30.445312 8.96875 30.585938 9.609375 30.609375 10.464844 C 30.636719 9.300781 30.535156 8.378906 30.058594 8.179688 C 29.996094 8.15625 29.925781 8.140625 29.855469 8.144531 Z M 30.390625 14.921875 C 30.367188 15.894531 30.433594 16.683594 30.742188 16.988281 C 31.765625 18.011719 38.089844 16.371094 38.878906 17.589844 C 38.96875 17.382812 38.988281 17.195312 38.921875 17.039062 C 38.355469 15.675781 31.789062 17.40625 30.742188 16.359375 C 30.503906 16.121094 30.410156 15.597656 30.390625 14.921875 Z M 17.199219 14.933594 C 17.179688 15.605469 17.085938 16.125 16.851562 16.363281 C 15.804688 17.410156 9.234375 15.683594 8.667969 17.046875 C 8.605469 17.203125 8.625 17.390625 8.710938 17.59375 C 9.503906 16.378906 15.828125 18.015625 16.851562 16.992188 C 17.15625 16.683594 17.222656 15.902344 17.199219 14.933594 Z M 33.695312 23.621094 C 33.648438 23.734375 33.621094 23.839844 33.621094 23.933594 C 33.621094 25.242188 38.214844 28.070312 38.882812 29.652344 C 38.898438 29.625 38.914062 29.597656 38.925781 29.570312 C 39.453125 28.296875 34.363281 25.222656 33.695312 23.621094 Z M 13.902344 23.625 C 13.234375 25.230469 8.144531 28.300781 8.671875 29.578125 C 8.683594 29.605469 8.699219 29.632812 8.714844 29.65625 C 9.382812 28.078125 13.972656 25.246094 13.972656 23.941406 C 13.972656 23.84375 13.949219 23.738281 13.902344 23.625 Z M 30.394531 32.3125 C 30.359375 33.574219 30.582031 35.359375 30.613281 36.78125 C 30.652344 35.496094 30.429688 33.710938 30.394531 32.3125 Z M 17.203125 32.324219 C 17.171875 33.71875 16.949219 35.496094 16.988281 36.78125 C 17.019531 35.359375 17.242188 33.582031 17.203125 32.324219 Z M 17.203125 32.324219 "/>
<path style=" stroke:none;fill-rule:nonzero;fill:rgb(0%,0%,0%);fill-opacity:0.235294;" d="M 16.984375 10.609375 C 16.933594 11.863281 17.152344 13.628906 17.195312 15.042969 C 17.25 13.820312 17.03125 12.050781 16.984375 10.609375 Z M 30.605469 10.613281 C 30.558594 12.050781 30.34375 13.816406 30.394531 15.035156 C 30.441406 13.625 30.65625 11.863281 30.605469 10.613281 Z M 38.800781 17.746094 C 37.914062 19.351562 33.621094 22.042969 33.621094 23.304688 C 33.621094 23.4375 33.667969 23.585938 33.753906 23.746094 C 34.621094 22.113281 39.4375 19.164062 38.921875 17.921875 C 38.894531 17.855469 38.855469 17.800781 38.800781 17.746094 Z M 8.789062 17.753906 C 8.738281 17.804688 8.695312 17.863281 8.667969 17.929688 C 8.15625 19.171875 12.972656 22.121094 13.839844 23.753906 C 13.925781 23.59375 13.972656 23.445312 13.972656 23.3125 C 13.972656 22.046875 9.675781 19.359375 8.789062 17.753906 Z M 38.804688 29.746094 C 37.746094 30.777344 31.742188 29.257812 30.746094 30.253906 C 30.425781 30.574219 30.367188 31.421875 30.398438 32.457031 C 30.425781 31.839844 30.523438 31.359375 30.746094 31.136719 C 31.789062 30.089844 38.359375 31.820312 38.925781 30.453125 C 39.007812 30.257812 38.953125 30.015625 38.804688 29.746094 Z M 8.792969 29.753906 C 8.644531 30.023438 8.589844 30.265625 8.671875 30.460938 C 9.238281 31.824219 15.808594 30.09375 16.851562 31.140625 C 17.078125 31.363281 17.175781 31.84375 17.199219 32.464844 C 17.234375 31.429688 17.175781 30.578125 16.851562 30.257812 C 15.859375 29.261719 9.851562 30.785156 8.792969 29.753906 Z M 23.800781 33.132812 C 22.324219 33.132812 18.902344 39 17.535156 38.4375 C 17.167969 38.285156 17.023438 37.691406 16.992188 36.886719 C 16.953125 38.121094 17.042969 39.113281 17.535156 39.320312 C 18.902344 39.882812 22.324219 34.015625 23.800781 34.015625 C 25.277344 34.015625 28.703125 39.882812 30.066406 39.316406 C 30.5625 39.113281 30.648438 38.121094 30.609375 36.890625 C 30.578125 37.691406 30.433594 38.28125 30.066406 38.433594 C 28.703125 39 25.277344 33.132812 23.800781 33.132812 Z M 23.800781 33.132812 "/>
<path style="fill:none;stroke-width:3;stroke-linecap:round;stroke-linejoin:round;stroke:rgb(12.941177%,12.941177%,12.941177%);stroke-opacity:0.992806;stroke-miterlimit:4;" d="M 253.984934 -142.217054 C 269.768715 -142.212275 279.555414 -70.420457 294.088086 -64.39672 C 308.675189 -58.350423 366.326623 -102.189394 377.469503 -91.065065 C 388.628317 -79.902242 344.767082 -22.247118 350.790262 -7.695952 C 356.829375 6.89371 428.646063 16.666152 428.62535 32.411438 C 428.620571 48.195219 356.812819 57.943422 350.805017 72.51459 C 344.78128 87.047263 388.636185 144.737192 377.473362 155.896007 C 366.349033 167.038887 308.655414 123.193586 294.104248 129.216765 C 279.553082 135.239945 269.764705 207.018137 253.996858 207.051854 C 238.251572 207.03114 228.464874 135.239323 213.893706 129.231521 C 199.345099 123.169288 141.65517 167.024194 130.51229 155.899865 C 119.36941 144.775537 163.21471 87.081918 157.191531 72.530752 C 151.152417 57.94109 79.390159 48.191208 79.356443 32.423362 C 79.377156 16.678076 151.168973 6.891378 157.215271 -7.695724 C 163.239008 -22.228397 119.384103 -79.918327 130.508431 -91.061207 C 141.671254 -102.220021 199.326378 -58.358786 213.91604 -64.3979 C 228.467206 -70.421079 238.255583 -142.199272 253.984934 -142.217054 Z M 253.984934 -142.217054 " transform="matrix(0.0866306,0.0358591,-0.0358591,0.0866306,2.955943,11.392368)"/>
</g>
</svg>
