<svg height="48" viewBox="0 0 48 48" width="48" xmlns="http://www.w3.org/2000/svg" xmlns:xlink="http://www.w3.org/1999/xlink"><linearGradient id="a" gradientUnits="userSpaceOnUse" x1="23.81478" x2="23.81478" y1="42.0509045" y2="44.03547050005"><stop offset="0" stop-opacity=".27451"/><stop offset="1" stop-opacity="0"/></linearGradient><linearGradient id="b"><stop offset="0" stop-opacity=".313726"/><stop offset=".222222" stop-opacity=".27451"/><stop offset="1" stop-opacity="0"/></linearGradient><radialGradient id="c" cx="450.908936" cy="189.579361" gradientTransform="matrix(.00000026 -.117199 -.210958 -.00000015 73.234562 95.392999)" gradientUnits="userSpaceOnUse" r="21.166656" xlink:href="#b"/><radialGradient id="d" cx="450.908936" cy="189.579361" gradientTransform="matrix(-.00000026 .117199 .210958 .00000015 -25.605013 -11.291218)" gradientUnits="userSpaceOnUse" r="21.166656" xlink:href="#b"/><radialGradient id="e" cx="450.908936" cy="189.579361" gradientTransform="matrix(-.00000026 -.117199 .210958 -.00000015 -25.605013 95.392999)" gradientUnits="userSpaceOnUse" r="21.166656" xlink:href="#b"/><radialGradient id="f" cx="450.908936" cy="189.579361" gradientTransform="matrix(.00000026 .117199 -.210958 .00000015 73.234559 -11.291219)" gradientUnits="userSpaceOnUse" r="21.166656" xlink:href="#b"/><linearGradient id="g"><stop offset="0" stop-color="#bdbdbd"/><stop offset="1" stop-color="#e0e0e0"/></linearGradient><linearGradient id="h" gradientTransform="matrix(.113024 0 0 .326118 -8.78102 50.462022)" gradientUnits="userSpaceOnUse" x1="306.916656" x2="305.954559" xlink:href="#g" y1="-25.791676" y2="-141.414581"/><linearGradient id="i" gradientUnits="userSpaceOnUse" x1="23.814786" x2="23.814786" y1="26.67051912502" y2="11.78627787502"><stop offset="0" stop-color="#424242"/><stop offset="1" stop-color="#616161"/></linearGradient><linearGradient id="j" gradientUnits="userSpaceOnUse" x1="23.814786" x2="23.814786" y1="26.67051912502" y2="11.78627787502"><stop offset="0" stop-color="#9ccc65"/><stop offset="1" stop-color="#aed581"/></linearGradient><linearGradient id="k" gradientUnits="userSpaceOnUse" x1="21.83022031287" x2="21.83022031287" xlink:href="#g" y1="28.15894169006" y2="10.29785359645"/><path d="m13.890625 42.050781h19.847656v1.984375h-19.847656zm0 0" fill="url(#a)"/><path d="m33.738281 42.050781h3.96875v-1.984375h-3.96875zm0 0" fill="url(#c)"/><path d="m13.890625 42.050781h-3.96875v1.984375h3.96875zm0 0" fill="url(#d)"/><path d="m13.890625 42.050781h-3.96875v-1.984375h3.96875zm0 0" fill="url(#e)"/><path d="m33.738281 42.050781h3.96875v1.984375h-3.96875zm0 0" fill="url(#f)"/><path d="m11.90625 4.34375h23.816406c1.09375 0 1.984375.890625 1.984375 1.984375v33.738281c0 1.097656-.890625 1.984375-1.984375 1.984375h-23.816406c-1.09375 0-1.984375-.886719-1.984375-1.984375v-33.738281c0-1.09375.890625-1.984375 1.984375-1.984375zm0 0" fill="url(#h)"/><path d="m11.90625 42.050781c-1.097656 0-1.984375-.886719-1.984375-1.984375v-.25c0 1.101563.886719 1.988282 1.984375 1.988282h23.816406c1.097656 0 1.984375-.886719 1.984375-1.988282v.25c0 1.097656-.886719 1.984375-1.984375 1.984375zm0 0" fill-opacity=".196078"/><path d="m11.90625 4.480469c-1.097656 0-1.984375.882812-1.984375 1.984375v.246094c0-1.097657.886719-1.984376 1.984375-1.984376h23.816406c1.097656 0 1.984375.886719 1.984375 1.984376v-.246094c0-1.101563-.886719-1.984375-1.984375-1.984375zm0 0" fill="#fff" fill-opacity=".862745"/><path d="m11.90625 4.203125c-1.171875 0-2.125.949219-2.125 2.125v33.738281c0 1.175782.953125 2.125 2.125 2.125h23.816406c1.175782 0 2.125-.949218 2.125-2.125v-33.738281c0-1.175781-.949218-2.125-2.125-2.125zm0 .28125h23.816406c1.023438 0 1.84375.820313 1.84375 1.84375v33.738281c0 1.023438-.820312 1.84375-1.84375 1.84375h-23.816406c-1.023438 0-1.84375-.820312-1.84375-1.84375v-33.738281c0-1.023437.820312-1.84375 1.84375-1.84375zm0 0" fill="#212121"/><g fill="#bdbdbd" fill-opacity=".392157"><path d="m12.898438 6.328125c.550781 0 .992187.445313.992187.992187 0 .546876-.441406.992188-.992187.992188-.546876 0-.992188-.445312-.992188-.992188 0-.546874.445312-.992187.992188-.992187zm0 0"/><path d="m34.730469 6.328125c.546875 0 .992187.445313.992187.992187 0 .546876-.445312.992188-.992187.992188s-.992188-.445312-.992188-.992188c0-.546874.445313-.992187.992188-.992187zm0 0"/><path d="m34.730469 38.082031c.546875 0 .992187.445313.992187.992188s-.445312.992187-.992187.992187-.992188-.445312-.992188-.992187.445313-.992188.992188-.992188zm0 0"/><path d="m12.898438 38.082031c.550781 0 .992187.445313.992187.992188s-.441406.992187-.992187.992187c-.546876 0-.992188-.445312-.992188-.992187s.445312-.992188.992188-.992188zm0 0"/></g><path d="m14.882812 33.121094h17.863282c.546875 0 .992187.445312.992187.992187v.992188c0 .546875-.445312.992187-.992187.992187h-17.863282c-.546874 0-.992187-.445312-.992187-.992187v-.992188c0-.546875.445313-.992187.992187-.992187zm0 0" fill-opacity=".235294"/><path d="m14.882812 33.121094c-.546874 0-.992187.441406-.992187.992187v.496094c0-.550781.445313-.992187.992187-.992187h17.863282c.550781 0 .992187.441406.992187.992187v-.496094c0-.550781-.441406-.992187-.992187-.992187zm0 0" fill-opacity=".235294"/><path d="m14.882812 36.59375c-.546874 0-.992187-.441406-.992187-.992188v-.496093c0 .550781.445313.992187.992187.992187h17.863282c.550781 0 .992187-.441406.992187-.992187v.496093c0 .550782-.441406.992188-.992187.992188zm0 0" fill="#fff" fill-opacity=".470588"/><path d="m158.734842 138.257932h190.523472c5.832776 0 10.582323 4.749547 10.582323 10.582323v10.582323c0 5.832776-4.749547 10.582323-10.582323 10.582323h-190.523472c-5.832777 0-10.582323-4.749547-10.582323-10.582323v-10.582323c0-5.832776 4.749546-10.582323 10.582323-10.582323zm0 0" fill="none" stroke="#212121" stroke-linecap="round" stroke-width="3" transform="matrix(.093759 0 0 .093759 0 20.158175)"/><path d="m12.898438 6.453125c-.546876 0-.992188.441406-.992188.992187 0 .042969.003906.082032.007812.125.0625-.492187.476563-.871093.984376-.871093.507812 0 .925781.378906.984374.871093.007813-.042968.007813-.082031.007813-.125 0-.550781-.441406-.992187-.992187-.992187zm21.832031 0c-.550781 0-.992188.441406-.992188.992187 0 .042969.003907.082032.007813.125.058594-.492187.476562-.871093.984375-.871093.507812 0 .921875.378906.984375.871093.003906-.042968.007812-.082031.007812-.125 0-.550781-.441406-.992187-.992187-.992187zm-21.832031 31.753906c-.546876 0-.992188.441407-.992188.992188 0 .039062.003906.082031.007812.121093.0625-.488281.476563-.867187.984376-.867187.507812 0 .925781.378906.984374.867187.007813-.039062.007813-.082031.007813-.121093 0-.550781-.441406-.992188-.992187-.992188zm21.832031 0c-.550781 0-.992188.441407-.992188.992188 0 .039062.003907.082031.007813.121093.058594-.488281.476562-.867187.984375-.867187.507812 0 .921875.378906.984375.867187.003906-.039062.007812-.082031.007812-.121093 0-.550781-.441406-.992188-.992187-.992188zm0 0" fill="#fff" fill-opacity=".392157"/><path d="m12.898438 40.4375c-.546876 0-.992188-.441406-.992188-.992188 0-.042968.003906-.082031.007812-.125.0625.492188.476563.871094.984376.871094.507812 0 .925781-.378906.984374-.871094.007813.042969.007813.082032.007813.125 0 .550782-.441406.992188-.992187.992188zm21.832031 0c-.550781 0-.992188-.441406-.992188-.992188 0-.042968.003907-.082031.007813-.125.058594.492188.476562.871094.984375.871094.507812 0 .921875-.378906.984375-.871094.003906.042969.007812.082032.007812.125 0 .550782-.441406.992188-.992187.992188zm-21.832031-31.753906c-.546876 0-.992188-.441406-.992188-.992188 0-.039062.003906-.082031.007812-.121094.0625.488282.476563.867188.984376.867188.507812 0 .925781-.378906.984374-.867188.007813.039063.007813.082032.007813.121094 0 .550782-.441406.992188-.992187.992188zm21.832031 0c-.550781 0-.992188-.441406-.992188-.992188 0-.039062.003907-.082031.007813-.121094.058594.488282.476562.867188.984375.867188.507812 0 .921875-.378906.984375-.867188.003906.039063.007812.082032.007812.121094 0 .550782-.441406.992188-.992187.992188zm0 0" fill-opacity=".235294"/><path d="m137.570196-147.506445c5.874439 0 10.582323 4.749546 10.582323 10.582322 0 5.832777-4.707884 10.582323-10.582323 10.582323-5.832776 0-10.582323-4.749546-10.582323-10.582323 0-5.832776 4.749547-10.582322 10.582323-10.582322zm0 0" fill="none" stroke="#212121" stroke-linecap="round" stroke-width="2.999999" transform="matrix(.093759 0 0 .093759 0 20.158175)"/><path d="m370.42296-147.506445c5.832776 0 10.582322 4.749546 10.582322 10.582322 0 5.832777-4.749546 10.582323-10.582322 10.582323-5.832777 0-10.582323-4.749546-10.582323-10.582323 0-5.832776 4.749546-10.582322 10.582323-10.582322zm0 0" fill="none" stroke="#212121" stroke-linecap="round" stroke-width="3" transform="matrix(.093759 0 0 .093759 0 20.158175)"/><path d="m370.42296 191.169546c5.832776 0 10.582322 4.749547 10.582322 10.582323s-4.749546 10.582323-10.582322 10.582323c-5.832777 0-10.582323-4.749547-10.582323-10.582323s4.749546-10.582323 10.582323-10.582323zm0 0" fill="none" stroke="#212121" stroke-linecap="round" stroke-width="3" transform="matrix(.093759 0 0 .093759 0 20.158175)"/><path d="m137.570196 191.169546c5.874439 0 10.582323 4.749547 10.582323 10.582323s-4.707884 10.582323-10.582323 10.582323c-5.832776 0-10.582323-4.749547-10.582323-10.582323s4.749547-10.582323 10.582323-10.582323zm0 0" fill="none" stroke="#212121" stroke-linecap="round" stroke-width="3" transform="matrix(.093759 0 0 .093759 0 20.158175)"/><path d="m23.816406 11.785156c4.109375 0 7.441406 3.332032 7.441406 7.441406 0 4.113282-3.332031 7.445313-7.441406 7.445313-4.113281 0-7.445312-3.332031-7.445312-7.445313 0-4.109374 3.332031-7.441406 7.445312-7.441406zm0 0" fill="url(#i)"/><path d="m20.820312 14.25c-.214843.007812-.402343.148438-.46875.351562l-1.371093 4.113282h-2.359375c-.1875-.003906-.359375.09375-.453125.253906s-.09375.359375 0 .519531c.09375.160157.265625.257813.453125.253907h2.726562c.222656 0 .417969-.140626.488282-.351563l.988281-2.960937 2.5 7.914062c.066406.210938.257812.355469.476562.359375.21875.007813.417969-.128906.496094-.332031l2.464844-6.578125.535156 1.597656c.070313.210937.265625.351563.488281.351563h3.222656c.1875.003906.359376-.09375.453126-.253907.09375-.160156.09375-.359375 0-.519531s-.265626-.257812-.453126-.253906h-2.851562l-.875-2.625c-.070312-.207032-.261719-.347656-.480469-.351563-.21875-.003906-.414062.128907-.492187.332031l-2.453125 6.542969-2.527344-8.003906c-.070313-.222656-.277344-.367187-.507813-.359375zm0 0" fill="url(#j)"/><path d="m14.886719 19.476562c0 .082032-.003907.164063-.003907.246094 0 4.949219 3.984376 8.933594 8.933594 8.933594 4.945313 0 8.929688-3.984375 8.929688-8.933594 0-.082031-.003906-.164062-.003906-.246094-.128907 4.832032-4.0625 8.683594-8.925782 8.683594-4.867187 0-8.796875-3.851562-8.929687-8.683594zm0 0" fill-opacity=".235294"/><path d="m14.886719 19.476562c0-.082031-.003907-.164062-.003907-.25 0-4.945312 3.984376-8.929687 8.933594-8.929687 4.945313 0 8.929688 3.984375 8.929688 8.929687 0 .085938-.003906.167969-.003906.25-.128907-4.832031-4.0625-8.683593-8.925782-8.683593-4.867187 0-8.796875 3.851562-8.929687 8.683593zm0 0" fill="#fff" fill-opacity=".470588"/><path d="m222.062127-63.014514c-2.291447.083325-4.291256 1.583182-4.999522 3.749642l-14.623604 43.870811h-25.164263c-1.999809-.041663-3.832968.999904-4.832872 2.708074-.999905 1.708171-.999905 3.832968 0 5.541138.999904 1.70817 2.833063 2.749737 4.832872 2.708075h29.080556c2.374773 0 4.457908-1.499857 5.207836-3.749642l10.54066-31.580318 26.664121 84.408606c.708265 2.249785 2.749737 3.791305 5.082847 3.832967 2.333111.083326 4.457908-1.374868 5.291162-3.541328l26.289156-70.159967 5.707788 17.04004c.749929 2.249785 2.833063 3.749642 5.207836 3.749642h34.371718c1.999809.041662 3.832967-.999905 4.832872-2.708075.999904-1.70817.999904-3.832967 0-5.541138-.999905-1.70817-2.833063-2.749737-4.832872-2.708074h-30.413762l-9.332442-27.997327c-.749929-2.208122-2.791401-3.707979-5.124511-3.749642-2.333111-.041662-4.416245 1.374869-5.249499 3.541329l-26.164168 69.785002-26.955759-85.366848c-.749928-2.374773-2.958051-3.916292-5.41615-3.832967zm0 0" fill="none" stroke="#212121" stroke-linecap="round" stroke-linejoin="round" stroke-width="3" transform="matrix(.093759 0 0 .093759 0 20.158175)"/><path d="m23.816406 10.296875c-4.949218 0-8.933594 3.984375-8.933594 8.929687 0 4.949219 3.984376 8.933594 8.933594 8.933594 4.945313 0 8.929688-3.984375 8.929688-8.933594 0-4.945312-3.984375-8.929687-8.929688-8.929687zm0 1.488281c4.121094 0 7.441406 3.320313 7.441406 7.441406 0 4.125-3.320312 7.445313-7.441406 7.445313-4.125 0-7.445312-3.320313-7.445312-7.445313 0-4.121093 3.320312-7.441406 7.445312-7.441406zm0 0" fill="url(#k)"/><path d="m254.017409-89.30367c43.829148 0 79.367421 35.538273 79.367421 79.367421 0 43.87081-35.538273 79.409083-79.367421 79.409083-43.87081 0-79.409083-35.538273-79.409083-79.409083 0-43.829148 35.538273-79.367421 79.409083-79.367421zm0 0" fill="none" stroke="#212121" stroke-linecap="round" stroke-linejoin="round" stroke-width="3" transform="matrix(.093759 0 0 .093759 0 20.158175)"/><path d="m254.017409-105.177154c52.578313 0 95.240905 42.662592 95.240905 95.240905 0 52.619975-42.662592 95.282567-95.240905 95.282567-52.619975 0-95.282567-42.662592-95.282567-95.282567 0-52.578313 42.662592-95.240905 95.282567-95.240905zm0 0" fill="none" stroke="#212121" stroke-linecap="round" stroke-width="3" transform="matrix(.093759 0 0 .093759 0 20.158175)"/></svg>