<?xml version="1.0" encoding="UTF-8"?>
<svg xmlns="http://www.w3.org/2000/svg" xmlns:xlink="http://www.w3.org/1999/xlink" width="48px" height="48px" viewBox="0 0 48 48" version="1.1">
<defs>
<radialGradient id="radial0" gradientUnits="userSpaceOnUse" cx="450.908936" cy="189.579361" fx="450.908936" fy="189.579361" r="21.166656" gradientTransform="matrix(0.000000261256,-0.117199,-0.210958,-0.000000152308,66.784728,95.392999)">
<stop offset="0" style="stop-color:rgb(0%,0%,0%);stop-opacity:0.313726;"/>
<stop offset="0.222222" style="stop-color:rgb(0%,0%,0%);stop-opacity:0.27451;"/>
<stop offset="1" style="stop-color:rgb(0%,0%,0%);stop-opacity:0;"/>
</radialGradient>
<radialGradient id="radial1" gradientUnits="userSpaceOnUse" cx="450.908936" cy="189.579361" fx="450.908936" fy="189.579361" r="21.166656" gradientTransform="matrix(-0.000000261256,0.117199,0.210958,0.000000152308,-19.155178,-11.291218)">
<stop offset="0" style="stop-color:rgb(0%,0%,0%);stop-opacity:0.313726;"/>
<stop offset="0.222222" style="stop-color:rgb(0%,0%,0%);stop-opacity:0.27451;"/>
<stop offset="1" style="stop-color:rgb(0%,0%,0%);stop-opacity:0;"/>
</radialGradient>
<radialGradient id="radial2" gradientUnits="userSpaceOnUse" cx="450.908936" cy="189.579361" fx="450.908936" fy="189.579361" r="21.166656" gradientTransform="matrix(-0.000000261256,-0.117199,0.210958,-0.000000152308,-19.155178,95.392999)">
<stop offset="0" style="stop-color:rgb(0%,0%,0%);stop-opacity:0.313726;"/>
<stop offset="0.222222" style="stop-color:rgb(0%,0%,0%);stop-opacity:0.27451;"/>
<stop offset="1" style="stop-color:rgb(0%,0%,0%);stop-opacity:0;"/>
</radialGradient>
<radialGradient id="radial3" gradientUnits="userSpaceOnUse" cx="450.908936" cy="189.579361" fx="450.908936" fy="189.579361" r="21.166656" gradientTransform="matrix(0.000000261256,0.117199,-0.210958,0.000000152308,66.784725,-11.291218)">
<stop offset="0" style="stop-color:rgb(0%,0%,0%);stop-opacity:0.313726;"/>
<stop offset="0.222222" style="stop-color:rgb(0%,0%,0%);stop-opacity:0.27451;"/>
<stop offset="1" style="stop-color:rgb(0%,0%,0%);stop-opacity:0;"/>
</radialGradient>
<linearGradient id="linear0" gradientUnits="userSpaceOnUse" x1="255.323059" y1="233.5" x2="255.323044" y2="254.666656" gradientTransform="matrix(0.0200401,0,0,0.093759,18.698079,20.158181)">
<stop offset="0" style="stop-color:rgb(0%,0%,0%);stop-opacity:0.27451;"/>
<stop offset="1" style="stop-color:rgb(0%,0%,0%);stop-opacity:0;"/>
</linearGradient>
<linearGradient id="linear1" gradientUnits="userSpaceOnUse" x1="254" y1="-168.666672" x2="254" y2="233.5" gradientTransform="matrix(0.093759,0,0,0.093759,0.00000184705,20.15818)">
<stop offset="0" style="stop-color:rgb(30.980393%,76.47059%,96.862745%);stop-opacity:1;"/>
<stop offset="1" style="stop-color:rgb(16.078432%,71.372551%,96.470588%);stop-opacity:1;"/>
</linearGradient>
<linearGradient id="linear2" gradientUnits="userSpaceOnUse" x1="264.583344" y1="233.5" x2="264.583344" y2="-179.25" gradientTransform="matrix(0.093759,0,0,0.093759,-0.957001,20.55073)">
<stop offset="0" style="stop-color:rgb(74.117649%,74.117649%,74.117649%);stop-opacity:1;"/>
<stop offset="1" style="stop-color:rgb(87.843138%,87.843138%,87.843138%);stop-opacity:1;"/>
</linearGradient>
</defs>
<g id="surface1">
<path style=" stroke:none;fill-rule:nonzero;fill:url(#radial0);" d="M 27.289062 42.050781 L 31.257812 42.050781 L 31.257812 40.066406 L 27.289062 40.066406 Z M 27.289062 42.050781 "/>
<path style=" stroke:none;fill-rule:nonzero;fill:url(#radial1);" d="M 20.339844 42.050781 L 16.371094 42.050781 L 16.371094 44.035156 L 20.339844 44.035156 Z M 20.339844 42.050781 "/>
<path style=" stroke:none;fill-rule:nonzero;fill:url(#radial2);" d="M 20.339844 42.050781 L 16.371094 42.050781 L 16.371094 40.066406 L 20.339844 40.066406 Z M 20.339844 42.050781 "/>
<path style=" stroke:none;fill-rule:nonzero;fill:url(#radial3);" d="M 27.289062 42.050781 L 31.257812 42.050781 L 31.257812 44.035156 L 27.289062 44.035156 Z M 27.289062 42.050781 "/>
<path style=" stroke:none;fill-rule:nonzero;fill:url(#linear0);" d="M 20.339844 41.554688 L 27.289062 41.554688 L 27.289062 44.035156 L 20.339844 44.035156 Z M 20.339844 41.554688 "/>
<path style=" stroke:none;fill-rule:nonzero;fill:url(#linear1);" d="M 23.816406 4.34375 C 34.226562 4.34375 42.667969 12.785156 42.667969 23.199219 C 42.667969 33.609375 34.226562 42.050781 23.816406 42.050781 C 13.402344 42.050781 4.960938 33.609375 4.960938 23.199219 C 4.960938 12.785156 13.402344 4.34375 23.816406 4.34375 Z M 23.816406 4.34375 "/>
<path style=" stroke:none;fill-rule:nonzero;fill:rgb(0%,0%,0%);fill-opacity:0.196078;" d="M 23.816406 42.050781 C 13.371094 42.050781 4.960938 33.640625 4.960938 23.199219 C 4.960938 23.136719 4.960938 23.074219 4.960938 23.011719 C 5.0625 33.371094 13.433594 41.679688 23.816406 41.679688 C 34.199219 41.679688 42.570312 33.371094 42.667969 23.011719 C 42.667969 23.074219 42.667969 23.136719 42.667969 23.199219 C 42.667969 33.640625 34.257812 42.050781 23.816406 42.050781 Z M 23.816406 42.050781 "/>
<path style=" stroke:none;fill-rule:nonzero;fill:rgb(100%,100%,100%);fill-opacity:0.392157;" d="M 23.816406 4.34375 C 13.371094 4.34375 4.960938 12.753906 4.960938 23.199219 C 4.960938 23.257812 4.960938 23.320312 4.960938 23.382812 C 5.0625 13.023438 13.433594 4.714844 23.816406 4.714844 C 34.199219 4.714844 42.570312 13.023438 42.667969 23.382812 C 42.667969 23.320312 42.667969 23.257812 42.667969 23.199219 C 42.667969 12.753906 34.257812 4.34375 23.816406 4.34375 Z M 23.816406 4.34375 "/>
<path style=" stroke:none;fill-rule:nonzero;fill:rgb(12.941177%,12.941177%,12.941177%);fill-opacity:1;" d="M 23.816406 4.203125 C 13.292969 4.203125 4.820312 12.675781 4.820312 23.199219 C 4.820312 33.71875 13.292969 42.191406 23.816406 42.191406 C 34.335938 42.191406 42.808594 33.71875 42.808594 23.199219 C 42.808594 12.675781 34.335938 4.203125 23.816406 4.203125 Z M 23.816406 4.484375 C 34.183594 4.484375 42.527344 12.828125 42.527344 23.199219 C 42.527344 33.566406 34.183594 41.910156 23.816406 41.910156 C 13.445312 41.910156 5.101562 33.566406 5.101562 23.199219 C 5.101562 12.828125 13.445312 4.484375 23.816406 4.484375 Z M 23.816406 4.484375 "/>
<path style=" stroke:none;fill-rule:nonzero;fill:url(#linear2);" d="M 17.859375 4.34375 C 16.566406 4.363281 15.535156 5.425781 15.550781 6.722656 L 15.550781 36.488281 C 15.550781 37.785156 16.601562 38.832031 17.894531 38.832031 C 17.894531 38.832031 23.664062 38.816406 29.226562 34.644531 C 34.785156 30.472656 40.085938 22.125 40.085938 6.722656 C 40.097656 5.875 39.652344 5.089844 38.921875 4.664062 C 38.195312 4.238281 37.289062 4.238281 36.558594 4.664062 C 35.832031 5.089844 35.386719 5.875 35.398438 6.722656 C 35.398438 21.085938 30.773438 27.621094 26.414062 30.894531 C 24.089844 32.632812 21.847656 33.429688 20.242188 33.804688 L 20.242188 6.722656 C 20.25 6.085938 20 5.476562 19.554688 5.03125 C 19.105469 4.582031 18.496094 4.335938 17.859375 4.34375 Z M 17.859375 4.34375 "/>
<path style=" stroke:none;fill-rule:nonzero;fill:rgb(100%,100%,100%);fill-opacity:1;" d="M 17.859375 4.34375 C 16.566406 4.363281 15.535156 5.425781 15.550781 6.722656 L 15.550781 7.21875 C 15.535156 5.921875 16.566406 4.859375 17.859375 4.839844 C 18.496094 4.832031 19.105469 5.078125 19.554688 5.527344 C 20 5.972656 20.25 6.582031 20.242188 7.21875 L 20.242188 6.722656 C 20.25 6.085938 20 5.476562 19.554688 5.03125 C 19.105469 4.582031 18.496094 4.335938 17.859375 4.34375 Z M 37.707031 4.34375 C 36.414062 4.363281 35.378906 5.425781 35.398438 6.722656 C 35.398438 21.085938 30.773438 27.621094 26.414062 30.894531 C 24.089844 32.632812 21.847656 33.429688 20.242188 33.804688 L 20.242188 34.300781 C 21.847656 33.925781 24.089844 33.132812 26.414062 31.390625 C 30.773438 28.117188 35.398438 21.582031 35.398438 7.21875 C 35.363281 6.363281 35.796875 5.5625 36.527344 5.121094 C 37.257812 4.679688 38.171875 4.667969 38.910156 5.097656 C 39.652344 5.523438 40.101562 6.316406 40.085938 7.171875 C 40.085938 7.019531 40.085938 6.871094 40.085938 6.722656 C 40.09375 6.085938 39.847656 5.476562 39.398438 5.03125 C 38.949219 4.582031 38.339844 4.335938 37.707031 4.34375 Z M 37.707031 4.34375 "/>
<path style=" stroke:none;fill-rule:nonzero;fill:rgb(0%,0%,0%);fill-opacity:0.235294;" d="M 40.082031 7.417969 C 39.925781 22.378906 34.703125 30.535156 29.226562 34.644531 C 23.664062 38.816406 17.894531 38.832031 17.894531 38.832031 C 16.601562 38.832031 15.550781 37.785156 15.550781 36.488281 L 15.550781 37.292969 C 15.550781 38.585938 16.601562 39.636719 17.894531 39.636719 C 17.894531 39.636719 23.664062 39.617188 29.226562 35.445312 C 34.785156 31.273438 40.085938 22.929688 40.085938 7.523438 C 40.085938 7.488281 40.085938 7.453125 40.082031 7.417969 Z M 40.082031 7.417969 "/>
<path style="fill:none;stroke-width:3;stroke-linecap:round;stroke-linejoin:round;stroke:rgb(12.941177%,12.941177%,12.941177%);stroke-opacity:1;stroke-miterlimit:4;" d="M 190.48181 -168.671091 C 176.69146 -168.462777 165.69251 -157.130526 165.859161 -143.298514 L 165.859161 174.171169 C 165.859161 188.003182 177.066424 199.168782 190.856774 199.168782 C 190.856774 199.168782 252.392564 199.002131 311.720232 154.506381 C 371.006237 110.01063 427.542505 20.977465 427.542505 -143.298514 C 427.667493 -152.339317 422.917947 -160.713517 415.127024 -165.25475 C 407.377764 -169.795983 397.71202 -169.795983 389.921098 -165.25475 C 382.171838 -160.713517 377.422291 -152.339317 377.547279 -143.298514 C 377.547279 9.89519 328.218657 79.596867 281.723097 114.5102 C 256.933797 133.050096 233.019414 141.549285 215.89605 145.548903 L 215.89605 -143.298514 C 215.979375 -150.089532 213.312963 -156.588911 208.563417 -161.338458 C 203.772207 -166.129667 197.272828 -168.754416 190.48181 -168.671091 Z M 190.48181 -168.671091 " transform="matrix(0.093759,0,0,0.093759,0,20.158175)"/>
</g>
</svg>
