<?xml version="1.0" encoding="UTF-8"?>
<svg xmlns="http://www.w3.org/2000/svg" xmlns:xlink="http://www.w3.org/1999/xlink" width="48pt" height="48pt" viewBox="0 0 48 48" version="1.1">
<defs>
<radialGradient id="radial0" gradientUnits="userSpaceOnUse" cx="450.908936" cy="189.579361" fx="450.908936" fy="189.579361" r="21.166656" gradientTransform="matrix(0.000000261256,-0.117199,-0.210958,-0.000000152308,66.784728,95.392994)">
<stop offset="0" style="stop-color:rgb(0%,0%,0%);stop-opacity:0.313725;"/>
<stop offset="0.222222" style="stop-color:rgb(0%,0%,0%);stop-opacity:0.27451;"/>
<stop offset="1" style="stop-color:rgb(0%,0%,0%);stop-opacity:0;"/>
</radialGradient>
<radialGradient id="radial1" gradientUnits="userSpaceOnUse" cx="450.908936" cy="189.579361" fx="450.908936" fy="189.579361" r="21.166656" gradientTransform="matrix(-0.000000261256,0.117199,0.210958,0.000000152308,-19.155178,-11.291223)">
<stop offset="0" style="stop-color:rgb(0%,0%,0%);stop-opacity:0.313725;"/>
<stop offset="0.222222" style="stop-color:rgb(0%,0%,0%);stop-opacity:0.27451;"/>
<stop offset="1" style="stop-color:rgb(0%,0%,0%);stop-opacity:0;"/>
</radialGradient>
<radialGradient id="radial2" gradientUnits="userSpaceOnUse" cx="450.908936" cy="189.579361" fx="450.908936" fy="189.579361" r="21.166656" gradientTransform="matrix(-0.000000261256,-0.117199,0.210958,-0.000000152308,-19.155178,95.392994)">
<stop offset="0" style="stop-color:rgb(0%,0%,0%);stop-opacity:0.313725;"/>
<stop offset="0.222222" style="stop-color:rgb(0%,0%,0%);stop-opacity:0.27451;"/>
<stop offset="1" style="stop-color:rgb(0%,0%,0%);stop-opacity:0;"/>
</radialGradient>
<radialGradient id="radial3" gradientUnits="userSpaceOnUse" cx="450.908936" cy="189.579361" fx="450.908936" fy="189.579361" r="21.166656" gradientTransform="matrix(0.000000261256,0.117199,-0.210958,0.000000152308,66.784725,-11.291224)">
<stop offset="0" style="stop-color:rgb(0%,0%,0%);stop-opacity:0.313725;"/>
<stop offset="0.222222" style="stop-color:rgb(0%,0%,0%);stop-opacity:0.27451;"/>
<stop offset="1" style="stop-color:rgb(0%,0%,0%);stop-opacity:0;"/>
</radialGradient>
<linearGradient id="linear0" gradientUnits="userSpaceOnUse" x1="255.323059" y1="233.5" x2="255.323044" y2="254.666656" gradientTransform="matrix(0.0200401,0,0,0.093759,18.698079,20.158175)">
<stop offset="0" style="stop-color:rgb(0%,0%,0%);stop-opacity:0.27451;"/>
<stop offset="1" style="stop-color:rgb(0%,0%,0%);stop-opacity:0;"/>
</linearGradient>
<linearGradient id="linear1" gradientUnits="userSpaceOnUse" x1="960" y1="1695.118164" x2="960" y2="175.118118" gradientTransform="matrix(0.0248071,0,0,0.0248071,0,0)">
<stop offset="0" style="stop-color:rgb(11.764706%,53.333333%,89.803922%);stop-opacity:1;"/>
<stop offset="1" style="stop-color:rgb(12.941176%,58.823529%,95.294118%);stop-opacity:1;"/>
</linearGradient>
</defs>
<g id="surface1">
<path style=" stroke:none;fill-rule:nonzero;fill:url(#radial0);" d="M 27.289062 42.050781 L 31.257812 42.050781 L 31.257812 40.066406 L 27.289062 40.066406 Z M 27.289062 42.050781 "/>
<path style=" stroke:none;fill-rule:nonzero;fill:url(#radial1);" d="M 20.339844 42.050781 L 16.371094 42.050781 L 16.371094 44.035156 L 20.339844 44.035156 Z M 20.339844 42.050781 "/>
<path style=" stroke:none;fill-rule:nonzero;fill:url(#radial2);" d="M 20.339844 42.050781 L 16.371094 42.050781 L 16.371094 40.066406 L 20.339844 40.066406 Z M 20.339844 42.050781 "/>
<path style=" stroke:none;fill-rule:nonzero;fill:url(#radial3);" d="M 27.289062 42.050781 L 31.257812 42.050781 L 31.257812 44.035156 L 27.289062 44.035156 Z M 27.289062 42.050781 "/>
<path style=" stroke:none;fill-rule:nonzero;fill:url(#linear0);" d="M 20.339844 41.554688 L 27.289062 41.554688 L 27.289062 44.035156 L 20.339844 44.035156 Z M 20.339844 41.554688 "/>
<path style=" stroke:none;fill-rule:nonzero;fill:url(#linear1);" d="M 23.816406 4.34375 C 15.019531 4.34375 7.9375 12.753906 7.9375 23.199219 C 7.9375 33.640625 15.019531 42.050781 23.816406 42.050781 C 32.609375 42.050781 39.691406 33.640625 39.691406 23.199219 C 39.691406 12.753906 32.609375 4.34375 23.816406 4.34375 Z M 23.816406 8.3125 C 28.210938 8.3125 31.753906 14.953125 31.753906 23.199219 C 31.753906 31.445312 28.210938 38.082031 23.816406 38.082031 C 19.417969 38.082031 15.875 31.445312 15.875 23.199219 C 15.875 14.953125 19.417969 8.3125 23.816406 8.3125 Z M 23.816406 8.3125 "/>
<path style=" stroke:none;fill-rule:nonzero;fill:rgb(0%,0%,0%);fill-opacity:0.196078;" d="M 23.816406 7.898438 C 19.417969 7.898438 15.875 14.535156 15.875 22.78125 C 15.875 22.851562 15.875 22.921875 15.878906 22.988281 C 15.9375 14.839844 19.453125 8.3125 23.816406 8.3125 C 28.175781 8.3125 31.695312 14.839844 31.753906 22.988281 C 31.753906 22.921875 31.753906 22.851562 31.753906 22.78125 C 31.753906 14.535156 28.210938 7.898438 23.816406 7.898438 Z M 7.9375 22.988281 C 7.9375 23.058594 7.9375 23.128906 7.9375 23.199219 C 7.9375 33.640625 15.019531 42.050781 23.816406 42.050781 C 32.609375 42.050781 39.691406 33.640625 39.691406 23.199219 C 39.691406 23.128906 39.691406 23.058594 39.691406 22.988281 C 39.597656 33.339844 32.550781 41.636719 23.816406 41.636719 C 15.078125 41.636719 8.03125 33.339844 7.9375 22.988281 Z M 7.9375 22.988281 "/>
<path style=" stroke:none;fill-rule:nonzero;fill:rgb(100%,100%,100%);fill-opacity:0.392157;" d="M 23.816406 4.34375 C 15.019531 4.34375 7.9375 12.753906 7.9375 23.199219 C 7.9375 23.28125 7.9375 23.363281 7.941406 23.445312 C 8.050781 13.117188 15.089844 4.839844 23.816406 4.839844 C 32.539062 4.839844 39.578125 13.117188 39.691406 23.445312 C 39.691406 23.363281 39.691406 23.28125 39.691406 23.199219 C 39.691406 12.753906 32.609375 4.34375 23.816406 4.34375 Z M 15.878906 23.445312 C 15.878906 23.527344 15.875 23.609375 15.875 23.695312 C 15.875 31.941406 19.417969 38.578125 23.816406 38.578125 C 28.210938 38.578125 31.753906 31.941406 31.753906 23.695312 C 31.753906 23.609375 31.753906 23.527344 31.75 23.445312 C 31.683594 31.574219 28.167969 38.082031 23.816406 38.082031 C 19.460938 38.082031 15.949219 31.574219 15.878906 23.445312 Z M 15.878906 23.445312 "/>
<path style=" stroke:none;fill-rule:nonzero;fill:rgb(12.941177%,12.941177%,12.941177%);fill-opacity:1;" d="M 23.816406 4.203125 C 14.929688 4.203125 7.796875 12.6875 7.796875 23.199219 C 7.796875 33.707031 14.929688 42.191406 23.816406 42.191406 C 32.699219 42.191406 39.832031 33.707031 39.832031 23.199219 C 39.832031 12.6875 32.699219 4.203125 23.816406 4.203125 Z M 23.816406 4.484375 C 32.519531 4.484375 39.550781 12.816406 39.550781 23.199219 C 39.550781 33.578125 32.519531 41.910156 23.816406 41.910156 C 15.109375 41.910156 8.078125 33.578125 8.078125 23.199219 C 8.078125 12.816406 15.109375 4.484375 23.816406 4.484375 Z M 23.816406 8.171875 C 21.546875 8.171875 19.519531 9.878906 18.074219 12.597656 C 16.625 15.3125 15.734375 19.054688 15.734375 23.199219 C 15.734375 27.339844 16.625 31.082031 18.074219 33.796875 C 19.519531 36.515625 21.546875 38.222656 23.816406 38.222656 C 26.085938 38.222656 28.109375 36.515625 29.558594 33.796875 C 31.007812 31.082031 31.894531 27.339844 31.894531 23.199219 C 31.894531 19.054688 31.007812 15.3125 29.558594 12.597656 C 28.109375 9.878906 26.085938 8.171875 23.816406 8.171875 Z M 23.816406 8.453125 C 25.941406 8.453125 27.886719 10.066406 29.308594 12.730469 C 30.730469 15.394531 31.613281 19.09375 31.613281 23.199219 C 31.613281 27.300781 30.730469 31 29.308594 33.664062 C 27.886719 36.328125 25.941406 37.941406 23.816406 37.941406 C 21.6875 37.941406 19.742188 36.328125 18.320312 33.664062 C 16.898438 31 16.015625 27.300781 16.015625 23.199219 C 16.015625 19.09375 16.898438 15.394531 18.320312 12.730469 C 19.742188 10.066406 21.6875 8.453125 23.816406 8.453125 Z M 23.816406 8.453125 "/>
</g>
</svg>
