<svg height="48pt" viewBox="0 0 48 48" width="48pt" xmlns="http://www.w3.org/2000/svg" xmlns:xlink="http://www.w3.org/1999/xlink"><linearGradient id="a"><stop offset="0" stop-opacity=".313726"/><stop offset=".222222" stop-opacity=".27451"/><stop offset="1" stop-opacity="0"/></linearGradient><radialGradient id="b" cx="450.908936" cy="189.579361" gradientTransform="matrix(.00000026 -.117199 -.210958 -.00000015 66.784728 95.392994)" gradientUnits="userSpaceOnUse" r="21.166656" xlink:href="#a"/><radialGradient id="c" cx="450.908936" cy="189.579361" gradientTransform="matrix(-.00000026 .117199 .210958 .00000015 -19.155178 -11.291223)" gradientUnits="userSpaceOnUse" r="21.166656" xlink:href="#a"/><radialGradient id="d" cx="450.908936" cy="189.579361" gradientTransform="matrix(-.00000026 -.117199 .210958 -.00000015 -19.155178 95.392994)" gradientUnits="userSpaceOnUse" r="21.166656" xlink:href="#a"/><radialGradient id="e" cx="450.908936" cy="189.579361" gradientTransform="matrix(.00000026 .117199 -.210958 .00000015 66.784725 -11.291224)" gradientUnits="userSpaceOnUse" r="21.166656" xlink:href="#a"/><linearGradient id="f" gradientTransform="matrix(.0200401 0 0 .093759 18.698079 20.158175)" gradientUnits="userSpaceOnUse" x1="255.323059" x2="255.323044" y1="233.5" y2="254.666656"><stop offset="0" stop-opacity=".27451"/><stop offset="1" stop-opacity="0"/></linearGradient><linearGradient id="g" gradientUnits="userSpaceOnUse" x1="23.814816" x2="23.814816" y1="42.05096580616" y2="4.34417266504"><stop offset="0" stop-color="#e0e0e0"/><stop offset="1" stop-color="#eee"/></linearGradient><linearGradient id="h" gradientTransform="matrix(.0175412 -.0175412 -.0175412 -.0175412 23.378315 56.440223)" gradientUnits="userSpaceOnUse" x1="422.598206" x2="1497.400513" y1="397.716309" y2="1472.518677"><stop offset="0" stop-color="#ef5350"/><stop offset="1" stop-color="#e57373"/></linearGradient><path d="m27.289062 42.050781h3.96875v-1.984375h-3.96875zm0 0" fill="url(#b)"/><path d="m20.339844 42.050781h-3.96875v1.984375h3.96875zm0 0" fill="url(#c)"/><path d="m20.339844 42.050781h-3.96875v-1.984375h3.96875zm0 0" fill="url(#d)"/><path d="m27.289062 42.050781h3.96875v1.984375h-3.96875zm0 0" fill="url(#e)"/><path d="m20.339844 41.554688h6.949218v2.480468h-6.949218zm0 0" fill="url(#f)"/><path d="m23.816406 4.34375c-10.445312 0-18.855468 8.410156-18.855468 18.855469 0 10.441406 8.410156 18.851562 18.855468 18.851562 10.441406 0 18.851563-8.410156 18.851563-18.851562 0-10.445313-8.410157-18.855469-18.851563-18.855469zm0 10.914062c4.394532 0 7.9375 3.542969 7.9375 7.941407 0 4.394531-3.542968 7.9375-7.9375 7.9375-4.398437 0-7.941406-3.542969-7.941406-7.9375 0-4.398438 3.542969-7.941407 7.941406-7.941407zm0 0" fill="url(#g)"/><path d="m23.816406 4.34375c-10.445312 0-18.855468 8.410156-18.855468 18.855469 0 .121093.003906.246093.003906.371093.199218-10.273437 8.53125-18.480468 18.851562-18.480468 10.320313 0 18.652344 8.207031 18.847656 18.480468.003907-.125.003907-.25.003907-.371093 0-10.445313-8.410157-18.855469-18.851563-18.855469zm-7.929687 19.226562c-.007813.121094-.011719.246094-.011719.371094 0 4.398438 3.542969 7.9375 7.941406 7.9375 4.394532 0 7.9375-3.539062 7.9375-7.9375 0-.125-.003906-.25-.007812-.371094-.195313 4.222657-3.660156 7.566407-7.929688 7.566407-4.273437 0-7.738281-3.34375-7.929687-7.566407zm0 0" fill="#f8f8f8"/><path d="m10.484375 9.867188c-1.335937 1.335937-2.429687 2.816406-3.28125 4.394531l9.246094 5.777343.140625-.140624c.382812-.835938.921875-1.621094 1.613281-2.3125.691406-.691407 1.476563-1.230469 2.3125-1.613282l.140625-.140625-5.777344-9.246093c-1.578125.851562-3.058594 1.945312-4.394531 3.28125zm-3.28125 22.265624c.851563 1.578126 1.945313 3.058594 3.28125 4.394532 1.335937 1.335937 2.816406 2.429687 4.394531 3.285156l5.777344-9.246094-.140625-.144531c-.835937-.382813-1.621094-.917969-2.3125-1.609375s-1.230469-1.480469-1.613281-2.316406l-.140625-.140625zm25.546875-25.546874-5.777344 9.246093.140625.140625c.835938.382813 1.625.921875 2.316407 1.613282.691406.691406 1.226562 1.476562 1.609374 2.3125l.144532.140624 9.246094-5.777343c-.855469-1.578125-1.949219-3.058594-3.285157-4.394531-1.332031-1.335938-2.816406-2.429688-4.394531-3.28125zm-5.777344 23.980468 5.777344 9.246094c1.578125-.855469 3.0625-1.949219 4.394531-3.285156 1.335938-1.335938 2.429688-2.816406 3.285157-4.394532l-9.246094-5.777343-.144532.140625c-.382812.835937-.917968 1.625-1.609374 2.316406-.691407.691406-1.480469 1.226562-2.316407 1.609375zm0 0" fill="url(#h)"/><path d="m23.816406 4.203125c-10.523437 0-18.996094 8.472656-18.996094 18.996094 0 10.519531 8.472657 18.992187 18.996094 18.992187 10.519532 0 18.992188-8.472656 18.992188-18.992187 0-10.523438-8.472656-18.996094-18.992188-18.996094zm0 .28125c10.367188 0 18.710938 8.34375 18.710938 18.714844 0 10.367187-8.34375 18.710937-18.710938 18.710937-10.371094 0-18.714844-8.34375-18.714844-18.710937 0-10.371094 8.34375-18.714844 18.714844-18.714844zm0 0" fill="#212121"/><path d="m4.964844 22.808594c0 .128906-.003906.257812-.003906.390625 0 10.441406 8.410156 18.851562 18.855468 18.851562 10.441406 0 18.851563-8.410156 18.851563-18.851562 0-.132813 0-.261719-.003907-.390625-.207031 10.261718-8.535156 18.460937-18.847656 18.460937-10.316406 0-18.644531-8.199219-18.851562-18.460937zm0 0" fill-opacity=".235294"/><path d="m23.816406 4.203125c-10.523437 0-18.996094 8.472656-18.996094 18.996094 0 10.519531 8.472657 18.992187 18.996094 18.992187 10.519532 0 18.992188-8.472656 18.992188-18.992187 0-10.523438-8.472656-18.996094-18.992188-18.996094zm0 .28125c10.367188 0 18.710938 8.34375 18.710938 18.714844 0 10.367187-8.34375 18.710937-18.710938 18.710937-10.371094 0-18.714844-8.34375-18.714844-18.710937 0-10.371094 8.34375-18.714844 18.714844-18.714844zm0 10.632813c-4.476562 0-8.082031 3.605468-8.082031 8.082031 0 4.472656 3.605469 8.078125 8.082031 8.078125 4.472656 0 8.078125-3.605469 8.078125-8.078125 0-4.476563-3.605469-8.082031-8.078125-8.082031zm0 .28125c4.320313 0 7.796875 3.476562 7.796875 7.800781 0 4.320312-3.476562 7.796875-7.796875 7.796875-4.324218 0-7.800781-3.476563-7.800781-7.796875 0-4.324219 3.476563-7.800781 7.800781-7.800781zm0 0" fill="#333"/><path d="m14.878906 6.585938c-1.578125.851562-3.058594 1.945312-4.394531 3.28125-1.335937 1.335937-2.429687 2.816406-3.28125 4.394531l.292969.183593c.804687-1.378906 1.800781-2.679687 2.988281-3.867187 1.335937-1.335937 2.816406-2.429687 4.394531-3.28125l5.472656 8.753906c.054688-.027343.109376-.054687.164063-.078125l.140625-.140625zm17.871094 0-5.777344 9.246093.140625.140625c.054688.023438.109375.050782.167969.078125l5.46875-8.753906c1.578125.851563 3.0625 1.945313 4.394531 3.28125 1.1875 1.1875 2.183594 2.488281 2.988281 3.867187l.296876-.183593c-.855469-1.578125-1.949219-3.058594-3.285157-4.394531-1.332031-1.335938-2.816406-2.429688-4.394531-3.28125zm-16.300781 19.769531-9.246094 5.777343c.09375.175782.191406.351563.292969.527344l8.953125-5.59375.140625.140625c.382812.839844.921875 1.625 1.613281 2.316407.644531.644531 1.371094 1.15625 2.148437 1.535156l.304688-.492188-.140625-.144531c-.835937-.382813-1.621094-.917969-2.3125-1.609375-.691406-.695312-1.230469-1.480469-1.613281-2.316406zm14.734375 0-.144532.140625c-.382812.835937-.917968 1.621094-1.609374 2.316406-.691407.691406-1.480469 1.226562-2.316407 1.609375l-.140625.144531.308594.492188c.773438-.378906 1.5-.890625 2.148438-1.535156.691406-.691407 1.226562-1.476563 1.609374-2.316407l.144532-.140625 8.949218 5.59375c.101563-.175781.199219-.351562.296876-.527344zm0 0" fill="#fff" fill-opacity=".392157"/><path d="m111.822655-109.76005c-14.24864 14.248639-25.914192 30.038798-34.996658 46.870524l98.615582 61.619116 1.499857-1.499857c4.082944-8.915815 9.832395-17.290015 17.20669-24.664311 7.374296-7.374296 15.748497-13.123747 24.664312-17.20669l1.499857-1.499857-61.619116-98.615583c-16.831726 9.082466-32.621885 20.748019-46.870524 34.996658zm-34.996658 237.477322c9.082466 16.831726 20.748018 32.621885 34.996658 46.870524 14.248639 14.24864 30.038798 25.914192 46.870524 35.038321l61.619116-98.615583-1.499857-1.541519c-8.915815-4.082944-17.290016-9.790732-24.664312-17.165028-7.374295-7.374296-13.123746-15.790159-17.20669-24.705974l-1.499857-1.499857zm272.47398-272.47398-61.619116 98.615583 1.499857 1.499857c8.915815 4.082943 17.331678 9.832394 24.705974 17.20669s13.082084 15.748496 17.165027 24.664311l1.54152 1.499857 98.615583-61.619116c-9.124129-16.831726-20.789682-32.621885-35.038321-46.870524-14.206977-14.248639-30.038798-25.914192-46.870524-34.996658zm-61.619116 255.767242 61.619116 98.615583c16.831726-9.124129 32.663547-20.789681 46.870524-35.038321 14.248639-14.248639 25.914192-30.038798 35.038321-46.870524l-98.615583-61.619116-1.54152 1.499857c-4.082943 8.915815-9.790731 17.331678-17.165027 24.705974s-15.790159 13.082084-24.705974 17.165028zm0 0" fill="none" stroke="#212121" stroke-linecap="square" stroke-linejoin="bevel" stroke-width="3" transform="matrix(.093759 0 0 .093759 0 20.158175)"/></svg>