
<svg xmlns="http://www.w3.org/2000/svg" xmlns:xlink="http://www.w3.org/1999/xlink" width="16px" height="16px" viewBox="0 0 16 16" version="1.1">
<g id="surface1">
<defs>
  <style id="current-color-scheme" type="text/css">
   .ColorScheme-Text { color:#eeeeee; } .ColorScheme-Highlight { color:#424242; }
  </style>
 </defs>
<path style="fill:currentColor;fill-opacity:0.5" class="ColorScheme-Text" d="M 7 2 C 5.890625 2 5 2.890625 5 4 L 5 7 L 4 7 L 4 5.5 C 4 5.222656 3.777344 5 3.5 5 C 3.222656 5 3 5.222656 3 5.5 L 3 9 C 3 11.214844 4.785156 13 7 13 L 7 14 L 9 14 L 9 13 C 11.214844 13 13 11.214844 13 9 L 13 5.5 C 13 5.222656 12.777344 5 12.5 5 C 12.222656 5 12 5.222656 12 5.5 L 12 7 L 11 7 L 11 4 C 11 2.890625 10.109375 2 9 2 Z M 7 3 L 9 3 C 9.554688 3 10 3.445312 10 4 L 10 9 C 10 9.554688 9.554688 10 9 10 L 7 10 C 6.445312 10 6 9.554688 6 9 L 6 4 C 6 3.863281 6.027344 3.730469 6.078125 3.609375 C 6.230469 3.25 6.585938 3 7 3 Z M 4 8 L 5 8 L 5 9 C 5 10.109375 5.890625 11 7 11 L 9 11 C 10.109375 11 11 10.109375 11 9 L 11 8 L 12 8 L 12 9 C 12 10.660156 10.660156 12 9 12 L 7 12 C 5.339844 12 4 10.660156 4 9 Z M 4 8 "/>
</g>
</svg>
