
<svg xmlns="http://www.w3.org/2000/svg" xmlns:xlink="http://www.w3.org/1999/xlink" width="16px" height="16px" viewBox="0 0 16 16" version="1.1">
<g id="surface1">
<defs>
  <style id="current-color-scheme" type="text/css">
   .ColorScheme-Text { color:#eeeeee; } .ColorScheme-Highlight { color:#424242; }
  </style>
 </defs>
<path style="fill:currentColor;fill-opacity:0.5" class="ColorScheme-Text" d="M 12.5 2 C 12.222656 2 12 2.222656 12 2.5 L 12 8 L 13 8 L 13 2.5 C 13 2.222656 12.777344 2 12.5 2 Z M 9.5 5 C 9.222656 5 9 5.222656 9 5.5 L 9 8 L 10 8 L 10 5.5 C 10 5.222656 9.777344 5 9.5 5 Z M 6.5 8 C 6.222656 8 6 8.222656 6 8.5 L 6 13.5 C 6 13.777344 6.222656 14 6.5 14 C 6.777344 14 7 13.777344 7 13.5 L 7 8.5 C 7 8.222656 6.777344 8 6.5 8 Z M 3.5 11 C 3.222656 11 3 11.222656 3 11.5 L 3 13.5 C 3 13.777344 3.222656 14 3.5 14 C 3.777344 14 4 13.777344 4 13.5 L 4 11.5 C 4 11.222656 3.777344 11 3.5 11 Z M 3.5 11 "/>
<path style=" stroke:none;fill-rule:nonzero;fill:rgb(95.686275%,26.274511%,21.176471%);fill-opacity:1;" d="M 13.292969 9.050781 L 11.523438 10.816406 L 9.757812 9.050781 L 9.050781 9.757812 L 10.816406 11.523438 L 9.050781 13.292969 L 9.757812 14 L 11.523438 12.230469 L 13.292969 14 L 14 13.292969 L 12.230469 11.523438 L 14 9.757812 Z M 13.292969 9.050781 "/>
</g>
</svg>
