<?xml version="1.0" encoding="UTF-8"?>
<svg xmlns="http://www.w3.org/2000/svg" xmlns:xlink="http://www.w3.org/1999/xlink" width="16px" height="16px" viewBox="0 0 16 16" version="1.1">
<g id="surface1">
<path style=" stroke:none;fill-rule:nonzero;fill:rgb(93.333334%,93.333334%,93.333334%);fill-opacity:1;" d="M 2.644531 2.109375 C 1.914062 2.109375 1.324219 2.699219 1.324219 3.433594 L 1.324219 10.710938 C 1.324219 11.441406 1.914062 12.03125 2.644531 12.03125 L 10.300781 12.03125 L 12.570312 14.015625 L 12.570312 12.03125 L 13.230469 12.03125 C 13.964844 12.03125 14.554688 11.441406 14.554688 10.710938 L 14.554688 3.433594 C 14.554688 2.699219 13.964844 2.109375 13.230469 2.109375 Z M 7.9375 4.09375 C 9.585938 4.09375 10.914062 5.421875 10.914062 7.070312 C 10.914062 8.71875 9.585938 10.046875 7.9375 10.046875 C 6.289062 10.046875 4.960938 8.71875 4.960938 7.070312 C 4.960938 5.421875 6.289062 4.09375 7.9375 4.09375 Z M 7.9375 4.09375 "/>
<path style=" stroke:none;fill-rule:nonzero;fill:rgb(93.333334%,93.333334%,93.333334%);fill-opacity:1;" d="M 7.9375 8.0625 C 8.304688 8.0625 8.601562 8.359375 8.601562 8.726562 C 8.601562 9.089844 8.304688 9.386719 7.9375 9.386719 C 7.574219 9.386719 7.277344 9.089844 7.277344 8.726562 C 7.277344 8.359375 7.574219 8.0625 7.9375 8.0625 Z M 7.9375 8.0625 "/>
<path style=" stroke:none;fill-rule:nonzero;fill:rgb(93.333334%,93.333334%,93.333334%);fill-opacity:1;" d="M 7.9375 6.410156 C 8.304688 6.410156 8.601562 6.707031 8.601562 7.070312 C 8.601562 7.4375 8.304688 7.734375 7.9375 7.734375 C 7.574219 7.734375 7.277344 7.4375 7.277344 7.070312 C 7.277344 6.707031 7.574219 6.410156 7.9375 6.410156 Z M 7.9375 6.410156 "/>
<path style=" stroke:none;fill-rule:nonzero;fill:rgb(93.333334%,93.333334%,93.333334%);fill-opacity:1;" d="M 7.9375 4.753906 C 8.304688 4.753906 8.601562 5.050781 8.601562 5.417969 C 8.601562 5.78125 8.304688 6.078125 7.9375 6.078125 C 7.574219 6.078125 7.277344 5.78125 7.277344 5.417969 C 7.277344 5.050781 7.574219 4.753906 7.9375 4.753906 Z M 7.9375 4.753906 "/>
</g>
</svg>
