<?xml version="1.0" encoding="UTF-8"?>
<svg xmlns="http://www.w3.org/2000/svg" xmlns:xlink="http://www.w3.org/1999/xlink" width="128pt" height="128pt" viewBox="0 0 128 128" version="1.1">
<defs>
<radialGradient id="radial0" gradientUnits="userSpaceOnUse" cx="450.908936" cy="189.579361" fx="450.908936" fy="189.579361" r="21.166656" gradientTransform="matrix(0.000000696681,-0.31253,-0.562554,-0.000000406154,178.092608,254.381318)">
<stop offset="0" style="stop-color:rgb(0%,0%,0%);stop-opacity:0.313725;"/>
<stop offset="0.222222" style="stop-color:rgb(0%,0%,0%);stop-opacity:0.27451;"/>
<stop offset="1" style="stop-color:rgb(0%,0%,0%);stop-opacity:0;"/>
</radialGradient>
<radialGradient id="radial1" gradientUnits="userSpaceOnUse" cx="450.908936" cy="189.579361" fx="450.908936" fy="189.579361" r="21.166656" gradientTransform="matrix(-0.000000696681,0.31253,0.562554,0.000000406154,-51.080475,-30.109928)">
<stop offset="0" style="stop-color:rgb(0%,0%,0%);stop-opacity:0.313725;"/>
<stop offset="0.222222" style="stop-color:rgb(0%,0%,0%);stop-opacity:0.27451;"/>
<stop offset="1" style="stop-color:rgb(0%,0%,0%);stop-opacity:0;"/>
</radialGradient>
<radialGradient id="radial2" gradientUnits="userSpaceOnUse" cx="450.908936" cy="189.579361" fx="450.908936" fy="189.579361" r="21.166656" gradientTransform="matrix(-0.000000696681,-0.31253,0.562554,-0.000000406154,-51.080475,254.381318)">
<stop offset="0" style="stop-color:rgb(0%,0%,0%);stop-opacity:0.313725;"/>
<stop offset="0.222222" style="stop-color:rgb(0%,0%,0%);stop-opacity:0.27451;"/>
<stop offset="1" style="stop-color:rgb(0%,0%,0%);stop-opacity:0;"/>
</radialGradient>
<radialGradient id="radial3" gradientUnits="userSpaceOnUse" cx="450.908936" cy="189.579361" fx="450.908936" fy="189.579361" r="21.166656" gradientTransform="matrix(0.000000696681,0.31253,-0.562554,0.000000406154,178.0926,-30.10993)">
<stop offset="0" style="stop-color:rgb(0%,0%,0%);stop-opacity:0.313725;"/>
<stop offset="0.222222" style="stop-color:rgb(0%,0%,0%);stop-opacity:0.27451;"/>
<stop offset="1" style="stop-color:rgb(0%,0%,0%);stop-opacity:0;"/>
</radialGradient>
<linearGradient id="linear0" gradientUnits="userSpaceOnUse" x1="255.323059" y1="233.5" x2="255.323044" y2="254.666656" gradientTransform="matrix(0.0534402,0,0,0.250024,49.861545,53.755135)">
<stop offset="0" style="stop-color:rgb(0%,0%,0%);stop-opacity:0.27451;"/>
<stop offset="1" style="stop-color:rgb(0%,0%,0%);stop-opacity:0;"/>
</linearGradient>
<linearGradient id="linear1" gradientUnits="userSpaceOnUse" x1="254" y1="-168.666672" x2="254" y2="233.5" gradientTransform="matrix(0.250024,0,0,0.250024,0,53.755132)">
<stop offset="0" style="stop-color:rgb(47.45098%,52.54902%,79.607843%);stop-opacity:1;"/>
<stop offset="1" style="stop-color:rgb(36.078431%,41.960784%,75.294118%);stop-opacity:1;"/>
</linearGradient>
<linearGradient id="linear2" gradientUnits="userSpaceOnUse" x1="840" y1="1495.118164" x2="840" y2="575.118103" gradientTransform="matrix(0.0661521,0,0,0.0661521,0,-1.322983)">
<stop offset="0" style="stop-color:rgb(27.058824%,35.294118%,39.215686%);stop-opacity:1;"/>
<stop offset="1" style="stop-color:rgb(32.941176%,43.137255%,47.843137%);stop-opacity:1;"/>
</linearGradient>
<linearGradient id="linear3" gradientUnits="userSpaceOnUse" x1="1400" y1="455.118103" x2="1400" y2="855.118103" >
<stop offset="0" style="stop-color:rgb(93.333333%,93.333333%,93.333333%);stop-opacity:1;"/>
<stop offset="1" style="stop-color:rgb(74.117647%,74.117647%,74.117647%);stop-opacity:1;"/>
</linearGradient>
</defs>
<g id="surface1">
<path style=" stroke:none;fill-rule:nonzero;fill:url(#radial0);" d="M 72.765625 112.136719 L 83.351562 112.136719 L 83.351562 106.84375 L 72.765625 106.84375 Z M 72.765625 112.136719 "/>
<path style=" stroke:none;fill-rule:nonzero;fill:url(#radial1);" d="M 54.246094 112.136719 L 43.660156 112.136719 L 43.660156 117.429688 L 54.246094 117.429688 Z M 54.246094 112.136719 "/>
<path style=" stroke:none;fill-rule:nonzero;fill:url(#radial2);" d="M 54.246094 112.136719 L 43.660156 112.136719 L 43.660156 106.84375 L 54.246094 106.84375 Z M 54.246094 112.136719 "/>
<path style=" stroke:none;fill-rule:nonzero;fill:url(#radial3);" d="M 72.765625 112.136719 L 83.351562 112.136719 L 83.351562 117.429688 L 72.765625 117.429688 Z M 72.765625 112.136719 "/>
<path style=" stroke:none;fill-rule:nonzero;fill:url(#linear0);" d="M 54.246094 110.8125 L 72.765625 110.8125 L 72.765625 117.429688 L 54.246094 117.429688 Z M 54.246094 110.8125 "/>
<path style=" stroke:none;fill-rule:nonzero;fill:url(#linear1);" d="M 63.507812 11.585938 C 35.652344 11.585938 13.230469 34.007812 13.230469 61.859375 C 13.230469 89.710938 35.652344 112.136719 63.507812 112.136719 C 91.359375 112.136719 113.78125 89.710938 113.78125 61.859375 C 113.78125 34.007812 91.359375 11.585938 63.507812 11.585938 Z M 60.859375 38.046875 C 76.984375 38.046875 89.96875 51.027344 89.96875 67.152344 C 89.96875 83.277344 76.984375 96.257812 60.859375 96.257812 C 44.734375 96.257812 31.753906 83.277344 31.753906 67.152344 C 31.753906 51.027344 44.734375 38.046875 60.859375 38.046875 Z M 60.859375 38.046875 "/>
<path style=" stroke:none;fill-rule:nonzero;fill:rgb(0%,0%,0%);fill-opacity:0.196078;" d="M 63.507812 112.136719 C 35.65625 112.136719 13.234375 89.710938 13.234375 61.859375 C 13.234375 61.695312 13.234375 61.53125 13.238281 61.367188 C 13.5 88.992188 35.820312 111.152344 63.507812 111.152344 C 91.199219 111.152344 113.519531 88.992188 113.78125 61.367188 C 113.78125 61.53125 113.785156 61.695312 113.785156 61.859375 C 113.785156 89.710938 91.363281 112.136719 63.507812 112.136719 Z M 63.507812 112.136719 "/>
<path style=" stroke:none;fill-rule:nonzero;fill:rgb(100%,100%,100%);fill-opacity:0.392157;" d="M 63.507812 11.585938 C 35.652344 11.585938 13.230469 34.007812 13.230469 61.859375 C 13.230469 62.023438 13.230469 62.1875 13.234375 62.351562 C 13.496094 34.726562 35.816406 12.570312 63.507812 12.570312 C 91.195312 12.570312 113.515625 34.726562 113.777344 62.351562 C 113.78125 62.1875 113.78125 62.023438 113.78125 61.859375 C 113.78125 34.007812 91.359375 11.585938 63.507812 11.585938 Z M 63.507812 11.585938 "/>
<path style=" stroke:none;fill-rule:nonzero;fill:rgb(12.941177%,12.941177%,12.941177%);fill-opacity:1;" d="M 63.507812 11.210938 C 35.453125 11.210938 12.855469 33.804688 12.855469 61.859375 C 12.855469 89.914062 35.453125 112.511719 63.507812 112.511719 C 91.558594 112.511719 114.15625 89.914062 114.15625 61.859375 C 114.15625 33.804688 91.558594 11.210938 63.507812 11.210938 Z M 63.507812 11.960938 C 91.15625 11.960938 113.40625 34.207031 113.40625 61.859375 C 113.40625 89.511719 91.15625 111.761719 63.507812 111.761719 C 35.855469 111.761719 13.605469 89.511719 13.605469 61.859375 C 13.605469 34.207031 35.855469 11.960938 63.507812 11.960938 Z M 60.859375 37.671875 C 44.535156 37.671875 31.378906 50.824219 31.378906 67.152344 C 31.378906 83.480469 44.535156 96.632812 60.859375 96.632812 C 77.1875 96.632812 90.34375 83.480469 90.34375 67.152344 C 90.34375 50.824219 77.1875 37.671875 60.859375 37.671875 Z M 60.859375 38.421875 C 76.785156 38.421875 89.59375 51.226562 89.59375 67.152344 C 89.59375 83.074219 76.785156 95.882812 60.859375 95.882812 C 44.9375 95.882812 32.128906 83.074219 32.128906 67.152344 C 32.128906 51.226562 44.9375 38.421875 60.859375 38.421875 Z M 60.859375 38.421875 "/>
<path style=" stroke:none;fill-rule:nonzero;fill:url(#linear2);" d="M 37.046875 36.722656 C 34.398438 36.722656 32.21875 38.644531 31.820312 41.175781 L 47.628906 67.152344 L 31.820312 93.128906 C 32.21875 95.660156 34.398438 97.582031 37.046875 97.582031 L 50.277344 97.582031 L 58.214844 84.539062 L 66.152344 97.582031 L 79.382812 97.582031 C 82.03125 97.582031 84.210938 95.660156 84.609375 93.128906 L 68.796875 67.152344 L 84.609375 41.175781 C 84.210938 38.644531 82.03125 36.722656 79.382812 36.722656 L 66.152344 36.722656 L 58.214844 49.761719 L 50.277344 36.722656 Z M 37.046875 36.722656 "/>
<path style=" stroke:none;fill-rule:nonzero;fill:rgb(100%,100%,100%);fill-opacity:0.235294;" d="M 37.046875 36.722656 C 34.398438 36.722656 32.21875 38.644531 31.820312 41.175781 L 32.054688 41.566406 C 32.78125 39.511719 34.734375 38.046875 37.046875 38.046875 L 50.277344 38.046875 L 58.214844 51.085938 L 66.152344 38.046875 L 79.382812 38.046875 C 81.691406 38.046875 83.648438 39.511719 84.371094 41.566406 L 84.609375 41.175781 C 84.210938 38.644531 82.03125 36.722656 79.382812 36.722656 L 66.152344 36.722656 L 58.214844 49.761719 L 50.277344 36.722656 Z M 47.226562 67.8125 L 31.820312 93.128906 C 31.871094 93.449219 31.949219 93.761719 32.054688 94.0625 L 47.628906 68.476562 Z M 69.199219 67.8125 L 68.796875 68.476562 L 84.371094 94.0625 C 84.476562 93.761719 84.558594 93.449219 84.609375 93.128906 Z M 69.199219 67.8125 "/>
<path style=" stroke:none;fill-rule:nonzero;fill:rgb(0%,0%,0%);fill-opacity:0.235294;" d="M 84.371094 40.242188 L 68.796875 65.828125 L 69.199219 66.492188 L 84.609375 41.175781 C 84.558594 40.855469 84.476562 40.542969 84.371094 40.242188 Z M 32.054688 40.242188 C 31.949219 40.542969 31.871094 40.855469 31.820312 41.175781 L 47.226562 66.492188 L 47.628906 65.828125 Z M 58.214844 83.21875 L 50.277344 96.257812 L 37.046875 96.257812 C 34.734375 96.257812 32.78125 94.792969 32.054688 92.738281 L 31.820312 93.128906 C 32.21875 95.660156 34.398438 97.582031 37.046875 97.582031 L 50.277344 97.582031 L 58.214844 84.539062 L 66.152344 97.582031 L 79.382812 97.582031 C 82.03125 97.582031 84.210938 95.660156 84.609375 93.128906 L 84.371094 92.738281 C 83.648438 94.792969 81.691406 96.257812 79.382812 96.257812 L 66.152344 96.257812 Z M 58.214844 83.21875 "/>
<path style=" stroke:none;fill-rule:nonzero;fill:rgb(12.941177%,12.941177%,12.941177%);fill-opacity:1;" d="M 37.046875 36.347656 C 34.214844 36.347656 31.875 38.410156 31.449219 41.117188 C 31.433594 41.207031 31.453125 41.296875 31.5 41.371094 L 47.191406 67.152344 L 31.5 92.933594 C 31.453125 93.007812 31.433594 93.097656 31.449219 93.1875 C 31.875 95.894531 34.214844 97.957031 37.046875 97.957031 L 50.277344 97.957031 C 50.40625 97.957031 50.527344 97.890625 50.597656 97.777344 L 58.214844 85.261719 L 65.832031 97.777344 C 65.898438 97.890625 66.023438 97.957031 66.152344 97.957031 L 79.382812 97.957031 C 82.210938 97.957031 84.550781 95.894531 84.980469 93.1875 C 84.992188 93.097656 84.976562 93.007812 84.929688 92.933594 L 69.238281 67.152344 L 84.929688 41.371094 C 84.976562 41.296875 84.992188 41.207031 84.980469 41.117188 C 84.550781 38.410156 82.210938 36.347656 79.382812 36.347656 L 66.152344 36.347656 C 66.019531 36.347656 65.898438 36.414062 65.832031 36.527344 L 58.214844 49.042969 L 50.597656 36.527344 C 50.527344 36.414062 50.40625 36.347656 50.277344 36.347656 Z M 37.046875 37.097656 L 50.066406 37.097656 L 57.894531 49.957031 C 57.960938 50.070312 58.082031 50.140625 58.214844 50.140625 C 58.34375 50.140625 58.464844 50.070312 58.535156 49.957031 L 66.363281 37.097656 L 79.382812 37.097656 C 81.804688 37.097656 83.785156 38.824219 84.207031 41.113281 L 68.476562 66.957031 C 68.40625 67.078125 68.40625 67.226562 68.476562 67.347656 L 84.207031 93.191406 C 83.785156 95.480469 81.804688 97.207031 79.382812 97.207031 L 66.363281 97.207031 L 58.535156 84.347656 C 58.464844 84.234375 58.34375 84.164062 58.214844 84.164062 C 58.082031 84.164062 57.960938 84.234375 57.894531 84.347656 L 50.066406 97.207031 L 37.046875 97.207031 C 34.625 97.207031 32.640625 95.480469 32.21875 93.191406 L 47.949219 67.347656 C 48.023438 67.226562 48.023438 67.078125 47.949219 66.957031 L 32.21875 41.113281 C 32.640625 38.824219 34.625 37.097656 37.046875 37.097656 Z M 37.046875 37.097656 "/>
<path style="fill-rule:nonzero;fill:url(#linear3);stroke-width:11.338583;stroke-linecap:square;stroke-linejoin:round;stroke:rgb(12.941177%,12.941177%,12.941177%);stroke-opacity:1;stroke-miterlimit:4;" d="M 1280.015627 455.09436 C 1279.307033 455.09436 1278.59844 455.153409 1277.948895 455.153409 C 1275.882163 455.271508 1273.874481 455.507706 1271.925848 455.921053 C 1269.977215 456.334399 1268.087632 456.865844 1266.198048 457.515389 C 1265.017059 457.987784 1263.77702 458.51923 1262.655079 459.050675 C 1261.47409 459.582121 1260.35215 460.231665 1259.230209 460.881209 C 1256.454884 462.534595 1253.974805 464.542277 1251.671876 466.786157 C 1250.786133 467.730949 1249.900391 468.675741 1249.132748 469.620532 C 1248.719402 470.151978 1248.306055 470.624374 1247.951758 471.155819 C 1246.770769 472.691106 1245.707878 474.344491 1244.822136 475.997877 C 1244.526888 476.588371 1244.231641 477.178866 1243.936394 477.769361 C 1243.345899 478.891301 1242.873503 480.13134 1242.401107 481.31233 C 1241.751563 483.201913 1241.220117 485.091497 1240.806771 487.04013 C 1240.570573 488.339218 1240.334375 489.697356 1240.216276 490.996445 C 1240.098177 492.354583 1239.980078 493.712721 1239.980078 495.129909 L 1239.980078 655.094956 C 1239.980078 662.417092 1241.928711 669.266832 1245.353581 675.112731 C 1241.928711 681.017679 1239.980078 687.808369 1239.980078 695.130505 L 1239.980078 815.119053 C 1239.980078 837.262609 1257.813022 855.095553 1280.015627 855.095553 C 1302.159183 855.095553 1319.992127 837.262609 1319.992127 815.119053 L 1319.992127 695.130505 L 1404.491936 695.130505 C 1404.314787 699.20492 1404.728134 703.338383 1405.850074 707.530897 L 1436.910102 823.44503 C 1442.637901 844.820943 1464.48621 857.457532 1485.862122 851.729732 C 1507.297084 846.001932 1519.874624 824.153624 1514.146824 802.718662 L 1485.212578 694.776208 C 1504.876056 692.237081 1519.992723 675.526077 1519.992723 655.094956 L 1519.992723 495.129909 C 1519.992723 489.579258 1518.870783 484.323854 1516.863101 479.540846 C 1516.626903 478.891301 1516.331655 478.300806 1516.095457 477.769361 C 1514.087775 473.635897 1511.489598 469.974829 1508.300926 466.786157 C 1506.057045 464.542277 1503.517918 462.534595 1500.742592 460.881209 C 1499.679701 460.231665 1498.557761 459.582121 1497.376771 459.050675 C 1496.195782 458.51923 1495.014792 457.987784 1493.774753 457.515389 C 1491.944219 456.865844 1490.054636 456.334399 1488.106003 455.921053 C 1486.09832 455.507706 1484.090638 455.271508 1482.082956 455.153409 C 1481.374362 455.153409 1480.665768 455.09436 1480.016224 455.09436 Z M 1340.009901 535.106408 L 1420.02195 535.106408 C 1431.064203 535.106408 1439.980675 544.02288 1439.980675 555.124183 L 1439.980675 595.100682 C 1439.980675 606.201985 1431.064203 615.118457 1420.02195 615.118457 L 1340.009901 615.118457 C 1328.908598 615.118457 1319.992127 606.201985 1319.992127 595.100682 L 1319.992127 555.124183 C 1319.992127 544.02288 1328.908598 535.106408 1340.009901 535.106408 Z M 1340.009901 535.106408 " transform="matrix(0.0661521,0,0,0.0661521,0,0)"/>
</g>
</svg>
