<?xml version="1.0" encoding="UTF-8"?>
<svg xmlns="http://www.w3.org/2000/svg" xmlns:xlink="http://www.w3.org/1999/xlink" width="22pt" height="22pt" viewBox="0 0 22 22" version="1.1">
<defs>
<radialGradient id="radial0" gradientUnits="userSpaceOnUse" cx="450.908936" cy="189.579361" fx="450.908936" fy="189.579361" r="21.166656" gradientTransform="matrix(0.000000119742,-0.0537161,-0.0966889,-0.0000000698078,30.609667,43.721789)">
<stop offset="0" style="stop-color:rgb(0%,0%,0%);stop-opacity:0.313725;"/>
<stop offset="0.222222" style="stop-color:rgb(0%,0%,0%);stop-opacity:0.27451;"/>
<stop offset="1" style="stop-color:rgb(0%,0%,0%);stop-opacity:0;"/>
</radialGradient>
<radialGradient id="radial1" gradientUnits="userSpaceOnUse" cx="450.908936" cy="189.579361" fx="450.908936" fy="189.579361" r="21.166656" gradientTransform="matrix(-0.000000119742,0.0537161,0.0966889,0.0000000698078,-8.779457,-5.175144)">
<stop offset="0" style="stop-color:rgb(0%,0%,0%);stop-opacity:0.313725;"/>
<stop offset="0.222222" style="stop-color:rgb(0%,0%,0%);stop-opacity:0.27451;"/>
<stop offset="1" style="stop-color:rgb(0%,0%,0%);stop-opacity:0;"/>
</radialGradient>
<radialGradient id="radial2" gradientUnits="userSpaceOnUse" cx="450.908936" cy="189.579361" fx="450.908936" fy="189.579361" r="21.166656" gradientTransform="matrix(-0.000000119742,-0.0537161,0.0966889,-0.0000000698078,-8.779457,43.721789)">
<stop offset="0" style="stop-color:rgb(0%,0%,0%);stop-opacity:0.313725;"/>
<stop offset="0.222222" style="stop-color:rgb(0%,0%,0%);stop-opacity:0.27451;"/>
<stop offset="1" style="stop-color:rgb(0%,0%,0%);stop-opacity:0;"/>
</radialGradient>
<radialGradient id="radial3" gradientUnits="userSpaceOnUse" cx="450.908936" cy="189.579361" fx="450.908936" fy="189.579361" r="21.166656" gradientTransform="matrix(0.000000119742,0.0537161,-0.0966889,0.0000000698078,30.609666,-5.175144)">
<stop offset="0" style="stop-color:rgb(0%,0%,0%);stop-opacity:0.313725;"/>
<stop offset="0.222222" style="stop-color:rgb(0%,0%,0%);stop-opacity:0.27451;"/>
<stop offset="1" style="stop-color:rgb(0%,0%,0%);stop-opacity:0;"/>
</radialGradient>
<linearGradient id="linear0" gradientUnits="userSpaceOnUse" x1="255.323059" y1="233.5" x2="255.323044" y2="254.666656" gradientTransform="matrix(0.00918504,0,0,0.0429729,8.569953,9.239164)">
<stop offset="0" style="stop-color:rgb(0%,0%,0%);stop-opacity:0.27451;"/>
<stop offset="1" style="stop-color:rgb(0%,0%,0%);stop-opacity:0;"/>
</linearGradient>
<linearGradient id="linear1" gradientUnits="userSpaceOnUse" x1="254" y1="-168.666672" x2="254" y2="233.5" >
<stop offset="0" style="stop-color:rgb(63.137255%,53.333333%,49.803922%);stop-opacity:1;"/>
<stop offset="1" style="stop-color:rgb(55.294118%,43.137255%,38.823529%);stop-opacity:1;"/>
</linearGradient>
<linearGradient id="linear2" gradientUnits="userSpaceOnUse" x1="960" y1="415.118103" x2="960" y2="1455.118164" gradientTransform="matrix(1,0,0,1,0,0)">
<stop offset="0" style="stop-color:rgb(87.843137%,87.843137%,87.843137%);stop-opacity:1;"/>
<stop offset="1" style="stop-color:rgb(96.078431%,96.078431%,96.078431%);stop-opacity:1;"/>
</linearGradient>
</defs>
<g id="surface1">
<path style=" stroke:none;fill-rule:nonzero;fill:url(#radial0);" d="M 12.507812 19.273438 L 14.324219 19.273438 L 14.324219 18.363281 L 12.507812 18.363281 Z M 12.507812 19.273438 "/>
<path style=" stroke:none;fill-rule:nonzero;fill:url(#radial1);" d="M 9.324219 19.273438 L 7.503906 19.273438 L 7.503906 20.183594 L 9.324219 20.183594 Z M 9.324219 19.273438 "/>
<path style=" stroke:none;fill-rule:nonzero;fill:url(#radial2);" d="M 9.324219 19.273438 L 7.503906 19.273438 L 7.503906 18.363281 L 9.324219 18.363281 Z M 9.324219 19.273438 "/>
<path style=" stroke:none;fill-rule:nonzero;fill:url(#radial3);" d="M 12.507812 19.273438 L 14.324219 19.273438 L 14.324219 20.183594 L 12.507812 20.183594 Z M 12.507812 19.273438 "/>
<path style=" stroke:none;fill-rule:nonzero;fill:url(#linear0);" d="M 9.324219 19.046875 L 12.507812 19.046875 L 12.507812 20.183594 L 9.324219 20.183594 Z M 9.324219 19.046875 "/>
<path style="fill-rule:nonzero;fill:url(#linear1);stroke-width:3;stroke-linecap:round;stroke-linejoin:miter;stroke:rgb(20%,20%,20%);stroke-opacity:1;stroke-miterlimit:4;" d="M 253.975747 -168.640791 C 365.056048 -168.640791 455.047454 -78.649384 455.047454 32.430917 C 455.047454 143.511218 365.056048 233.502625 253.975747 233.502625 C 142.986345 233.502625 52.904039 143.511218 52.904039 32.430917 C 52.904039 -78.649384 142.986345 -168.640791 253.975747 -168.640791 Z M 253.975747 -168.640791 " transform="matrix(0.0429729,0,0,0.0429729,0,9.239163)"/>
<path style=" stroke:none;fill-rule:nonzero;fill:rgb(0%,0%,0%);fill-opacity:0.196078;" d="M 10.914062 19.273438 C 6.128906 19.273438 2.273438 15.417969 2.273438 10.632812 C 2.273438 10.605469 2.273438 10.574219 2.273438 10.546875 C 2.320312 15.296875 6.15625 19.105469 10.914062 19.105469 C 15.675781 19.105469 19.511719 15.296875 19.554688 10.546875 C 19.554688 10.574219 19.554688 10.605469 19.554688 10.632812 C 19.554688 15.417969 15.703125 19.273438 10.914062 19.273438 Z M 10.914062 19.273438 "/>
<path style=" stroke:none;fill-rule:nonzero;fill:rgb(100%,100%,100%);fill-opacity:0.392157;" d="M 10.914062 1.992188 C 6.128906 1.992188 2.273438 5.84375 2.273438 10.632812 C 2.273438 10.660156 2.273438 10.6875 2.273438 10.71875 C 2.320312 5.96875 6.15625 2.160156 10.914062 2.160156 C 15.675781 2.160156 19.511719 5.96875 19.554688 10.71875 C 19.554688 10.6875 19.554688 10.660156 19.554688 10.632812 C 19.554688 5.84375 15.703125 1.992188 10.914062 1.992188 Z M 10.914062 1.992188 "/>
<path style=" stroke:none;fill-rule:nonzero;fill:rgb(12.941177%,12.941177%,12.941177%);fill-opacity:1;" d="M 10.914062 1.925781 C 6.09375 1.925781 2.210938 5.808594 2.210938 10.632812 C 2.210938 15.453125 6.09375 19.335938 10.914062 19.335938 C 15.738281 19.335938 19.621094 15.453125 19.621094 10.632812 C 19.621094 5.808594 15.738281 1.925781 10.914062 1.925781 Z M 10.914062 2.054688 C 15.667969 2.054688 19.492188 5.878906 19.492188 10.632812 C 19.492188 15.382812 15.667969 19.207031 10.914062 19.207031 C 6.164062 19.207031 2.339844 15.382812 2.339844 10.632812 C 2.339844 5.878906 6.164062 2.054688 10.914062 2.054688 Z M 10.914062 2.054688 "/>
<path style="fill-rule:nonzero;fill:url(#linear2);stroke-width:11.338583;stroke-linecap:butt;stroke-linejoin:miter;stroke:rgb(12.941177%,12.941177%,12.941177%);stroke-opacity:1;stroke-miterlimit:4;" d="M 959.908384 415.021234 C 907.343608 415.021234 860.619363 497.475784 831.41671 624.936775 C 720.790189 555.193969 629.746624 530.114043 592.298516 567.562151 C 554.850408 604.666698 580.273894 696.053824 649.67314 806.680345 C 522.212149 835.539438 440.101159 882.263683 440.101159 935.172019 C 440.101159 987.736794 522.212149 1034.461039 649.67314 1063.663692 C 580.273894 1174.290213 554.850408 1265.333779 592.298516 1302.781887 C 629.746624 1340.229995 720.790189 1314.806509 831.41671 1245.407262 C 860.619363 1372.868254 907.343608 1454.979243 959.908384 1454.979243 C 1012.81672 1454.979243 1059.540965 1372.868254 1088.400057 1245.407262 C 1199.370139 1314.806509 1290.413704 1340.229995 1327.861812 1302.781887 C 1364.96636 1265.333779 1339.886434 1174.290213 1270.487188 1063.663692 C 1397.604619 1034.461039 1480.059169 987.736794 1480.059169 935.172019 C 1480.059169 882.263683 1397.604619 835.539438 1270.487188 806.680345 C 1339.886434 696.053824 1364.96636 604.666698 1327.861812 567.562151 C 1290.413704 530.114043 1199.370139 555.193969 1088.400057 624.936775 C 1059.540965 497.475784 1012.81672 415.021234 959.908384 415.021234 Z M 959.908384 575.120485 C 989.454597 575.120485 1016.252326 606.728062 1037.209524 659.292838 C 1012.129599 677.15799 986.018991 697.084506 959.908384 718.728826 C 933.797776 697.084506 908.03073 677.15799 882.607243 659.292838 C 903.564441 606.728062 930.36217 575.120485 959.908384 575.120485 Z M 745.870115 666.507611 C 766.140192 666.507611 791.220117 673.378823 819.392089 685.403445 C 814.238679 715.980341 810.115952 748.275039 807.023906 781.94398 C 773.011404 785.379587 740.716706 789.502314 710.13981 794.655724 C 687.808369 742.778069 684.716324 701.550794 705.329961 680.593596 C 714.949659 670.973899 728.692084 666.507611 745.870115 666.507611 Z M 1174.290213 666.507611 C 1191.468244 666.507611 1205.210669 670.973899 1214.486806 680.593596 C 1235.444004 701.550794 1232.008398 742.778069 1209.676958 794.655724 C 1179.100062 789.502314 1146.805363 785.379587 1113.136422 781.94398 C 1109.700816 748.275039 1105.578088 715.980341 1100.424679 685.403445 C 1128.59665 673.378823 1153.676576 666.507611 1174.290213 666.507611 Z M 866.459894 709.109128 C 885.355728 720.103068 905.282245 733.158372 925.895882 747.931479 C 915.245503 757.207616 904.938684 766.483752 894.288305 776.447011 C 879.858758 776.790571 865.772773 777.821253 851.686787 778.508374 C 855.809515 753.772009 860.619363 730.409887 866.459894 709.109128 Z M 1053.700434 709.109128 C 1059.197404 730.409887 1064.350814 753.772009 1068.12998 778.508374 C 1054.387555 777.821253 1039.958009 776.790571 1025.872024 776.447011 C 1015.221644 766.483752 1004.571265 757.207616 994.264446 747.931479 C 1014.534523 733.158372 1034.461039 720.103068 1053.700434 709.109128 Z M 959.908384 774.042086 C 960.595505 774.385647 960.939066 774.729207 961.282626 775.072768 C 960.939066 775.072768 960.595505 775.072768 959.908384 775.072768 C 959.564823 775.072768 959.221263 775.072768 958.534141 775.072768 C 959.221263 774.729207 959.564823 774.385647 959.908384 774.042086 Z M 959.908384 815.269361 C 976.742854 815.269361 993.233764 815.612922 1009.381114 816.300043 C 1021.062175 826.950422 1033.086797 838.287923 1044.767858 850.312545 C 1056.79248 861.993606 1068.12998 874.018228 1078.78036 886.04285 C 1079.467481 901.846638 1080.154602 918.337548 1080.154602 935.172019 C 1080.154602 952.006489 1079.467481 968.153839 1078.78036 984.301188 C 1068.12998 996.32581 1056.79248 1008.006871 1044.767858 1020.031493 C 1033.086797 1031.712554 1021.062175 1043.050055 1009.381114 1054.043995 C 993.233764 1054.731116 976.742854 1055.074677 959.908384 1055.074677 C 943.417474 1055.074677 926.926564 1054.731116 910.779215 1054.043995 C 898.754593 1043.050055 887.073531 1031.712554 875.04891 1020.031493 C 863.367848 1008.006871 852.030348 996.32581 841.036408 984.301188 C 840.349287 968.153839 840.005726 952.006489 840.005726 935.172019 C 840.005726 918.337548 840.349287 901.846638 841.036408 886.04285 C 852.030348 874.018228 863.367848 861.993606 875.04891 850.312545 C 887.073531 838.287923 898.754593 826.950422 910.779215 816.300043 C 926.926564 815.612922 943.417474 815.269361 959.908384 815.269361 Z M 847.90762 821.109892 C 847.56406 821.453452 847.220499 821.797013 846.876938 822.140574 C 846.533378 822.140574 846.189817 822.484134 845.846257 822.827695 C 845.846257 822.484134 846.189817 821.797013 846.189817 821.109892 C 846.533378 821.109892 847.220499 821.109892 847.90762 821.109892 Z M 1072.252708 821.109892 C 1072.596269 821.109892 1073.28339 821.109892 1073.970511 821.109892 C 1073.970511 821.797013 1073.970511 822.484134 1073.970511 822.827695 C 1073.62695 822.484134 1073.62695 822.140574 1073.28339 822.140574 C 1072.939829 821.797013 1072.596269 821.453452 1072.252708 821.109892 Z M 803.5883 826.950422 C 802.557618 841.036408 801.870497 855.122393 801.183375 869.208379 C 791.563678 879.858758 781.94398 890.509138 772.667844 900.815956 C 757.894737 880.54588 745.182994 860.619363 734.189054 841.723529 C 755.489812 835.882998 778.508374 831.07315 803.5883 826.950422 Z M 1116.572028 826.950422 C 1141.308393 831.07315 1164.670516 835.882998 1185.971274 841.723529 C 1174.977334 860.619363 1161.922031 880.54588 1147.148924 900.815956 C 1137.872787 890.509138 1128.59665 879.858758 1118.633392 869.208379 C 1118.289832 855.122393 1117.60271 841.036408 1116.572028 826.950422 Z M 684.029203 857.870878 C 701.894355 882.950804 721.820871 909.061411 743.465191 935.172019 C 721.820871 961.282626 701.894355 987.049673 684.029203 1012.473159 C 631.464427 991.515961 599.85685 964.718233 599.85685 935.172019 C 599.85685 905.625805 631.464427 878.828076 684.029203 857.870878 Z M 1235.787565 857.870878 C 1288.35234 878.828076 1319.959918 905.625805 1319.959918 935.172019 C 1319.959918 964.718233 1288.35234 991.515961 1235.787565 1012.473159 C 1217.922413 987.049673 1197.995896 961.282626 1176.351577 935.172019 C 1197.995896 909.061411 1217.922413 882.950804 1235.787565 857.870878 Z M 959.908384 894.975426 C 937.920504 894.975426 920.055351 912.840578 920.055351 935.172019 C 920.055351 957.159899 937.920504 975.025051 959.908384 975.025051 C 982.239824 975.025051 1000.104977 957.159899 1000.104977 935.172019 C 1000.104977 912.840578 982.239824 894.975426 959.908384 894.975426 Z M 800.152694 933.797776 C 800.152694 934.141337 800.152694 934.828458 800.152694 935.172019 C 800.152694 935.515579 800.152694 935.85914 800.152694 936.546261 C 799.809133 935.85914 799.122012 935.515579 798.778451 935.172019 C 799.122012 934.828458 799.809133 934.141337 800.152694 933.797776 Z M 1120.007635 933.797776 C 1120.351195 934.141337 1120.694756 934.828458 1121.038317 935.172019 C 1120.694756 935.515579 1120.351195 935.85914 1120.007635 936.546261 C 1120.007635 935.85914 1120.007635 935.515579 1120.007635 935.172019 C 1120.007635 934.828458 1120.007635 934.141337 1120.007635 933.797776 Z M 772.667844 969.184521 C 781.94398 979.8349 791.563678 990.485279 801.183375 1000.792098 C 801.870497 1015.221644 802.557618 1029.30763 803.5883 1043.393615 C 778.508374 1039.270888 755.489812 1034.461039 734.189054 1028.620509 C 745.182994 1009.724674 757.894737 989.798158 772.667844 969.184521 Z M 1147.148924 969.184521 C 1161.922031 989.798158 1174.977334 1009.724674 1185.971274 1028.620509 C 1164.670516 1034.461039 1141.308393 1039.270888 1116.572028 1043.393615 C 1117.60271 1029.30763 1118.289832 1015.221644 1118.633392 1000.792098 C 1128.59665 990.485279 1137.872787 979.8349 1147.148924 969.184521 Z M 845.846257 1047.172782 C 846.189817 1047.516343 846.533378 1047.859904 846.876938 1048.203464 C 847.220499 1048.547025 847.56406 1048.890585 847.90762 1049.234146 C 847.220499 1049.234146 846.533378 1049.234146 846.189817 1048.890585 C 846.189817 1048.547025 845.846257 1047.859904 845.846257 1047.172782 Z M 1073.970511 1047.172782 C 1073.970511 1047.859904 1073.970511 1048.547025 1073.970511 1048.890585 C 1073.28339 1049.234146 1072.596269 1049.234146 1072.252708 1049.234146 C 1072.596269 1048.890585 1072.939829 1048.547025 1073.28339 1048.203464 C 1073.62695 1047.859904 1073.62695 1047.516343 1073.970511 1047.172782 Z M 710.13981 1075.688314 C 740.716706 1080.841723 773.011404 1084.964451 807.023906 1088.056497 C 810.115952 1122.068998 814.238679 1154.363697 819.392089 1184.940593 C 767.514434 1207.272033 726.287159 1210.364079 705.329961 1189.750441 C 684.716324 1168.793243 687.808369 1127.565968 710.13981 1075.688314 Z M 1209.676958 1075.688314 C 1232.008398 1127.565968 1235.444004 1168.793243 1214.486806 1189.750441 C 1193.873169 1210.364079 1152.302333 1207.272033 1100.424679 1184.940593 C 1105.578088 1154.363697 1109.700816 1122.068998 1113.136422 1088.056497 C 1146.805363 1084.964451 1179.100062 1080.841723 1209.676958 1075.688314 Z M 851.686787 1091.835663 C 865.772773 1092.522785 879.858758 1093.209906 894.288305 1093.897027 C 904.938684 1103.516725 915.245503 1113.136422 925.895882 1122.412559 C 905.282245 1137.185666 885.355728 1149.897409 866.459894 1160.891349 C 860.619363 1139.59059 855.809515 1116.572028 851.686787 1091.835663 Z M 1068.12998 1091.835663 C 1064.350814 1116.572028 1059.197404 1139.59059 1053.700434 1160.891349 C 1034.461039 1149.897409 1014.534523 1137.185666 994.264446 1122.412559 C 1004.571265 1113.136422 1015.221644 1103.516725 1025.872024 1093.897027 C 1039.958009 1093.209906 1054.387555 1092.522785 1068.12998 1091.835663 Z M 958.534141 1095.27127 C 959.221263 1095.27127 959.564823 1095.27127 959.908384 1095.27127 C 960.595505 1095.27127 960.939066 1095.27127 961.282626 1095.27127 C 960.939066 1095.61483 960.595505 1095.958391 959.908384 1096.301952 C 959.564823 1095.958391 959.221263 1095.61483 958.534141 1095.27127 Z M 959.908384 1151.615212 C 986.018991 1173.259531 1012.129599 1193.186048 1037.209524 1211.0512 C 1016.252326 1263.615976 989.454597 1295.223553 959.908384 1295.223553 C 930.36217 1295.223553 903.564441 1263.615976 882.607243 1211.0512 C 908.03073 1193.186048 933.797776 1173.259531 959.908384 1151.615212 Z M 959.908384 1151.615212 " transform="matrix(0.0113699,0,0,0.0113699,0,0)"/>
</g>
</svg>
