<svg height="22pt" viewBox="0 0 22 22" width="22pt" xmlns="http://www.w3.org/2000/svg" xmlns:xlink="http://www.w3.org/1999/xlink"><linearGradient id="a"><stop offset="0" stop-opacity=".275"/><stop offset="1" stop-opacity="0"/></linearGradient><linearGradient id="b" gradientTransform="matrix(.0018 0 0 .04297 3.866 4.691)" gradientUnits="userSpaceOnUse" x1="254" x2="254" xlink:href="#a" y1="233.5" y2="254.667"/><linearGradient id="c"><stop offset="0" stop-opacity=".314"/><stop offset=".222" stop-opacity=".275"/><stop offset="1" stop-opacity="0"/></linearGradient><radialGradient id="d" cx="450.909" cy="189.579" gradientTransform="matrix(0 -.05372 -.09669 0 22.65 39.174)" gradientUnits="userSpaceOnUse" r="21.167" xlink:href="#c"/><radialGradient id="e" cx="450.909" cy="189.579" gradientTransform="matrix(0 .05372 .09669 0 -14.01 -9.723)" gradientUnits="userSpaceOnUse" r="21.167" xlink:href="#c"/><radialGradient id="f" cx="450.909" cy="189.579" gradientTransform="matrix(0 -.05372 .09669 0 -14.01 39.174)" gradientUnits="userSpaceOnUse" r="21.167" xlink:href="#c"/><radialGradient id="g" cx="450.909" cy="189.579" gradientTransform="matrix(0 .05372 -.09669 0 22.65 -9.723)" gradientUnits="userSpaceOnUse" r="21.167" xlink:href="#c"/><filter id="h" height="100%" width="100%" x="0%" y="0%"><feColorMatrix in="SourceGraphic" values="0 0 0 0 1 0 0 0 0 1 0 0 0 0 1 0 0 0 1 0"/></filter><mask id="i"><path d="m0 0h22v22h-22z" fill-opacity=".988" filter="url(#h)"/></mask><linearGradient id="j"><stop offset="0" stop-color="#5c6bc0"/><stop offset="1" stop-color="#7986cb"/></linearGradient><linearGradient id="k" gradientTransform="matrix(.0113699 .00004763 -.00004763 .0113699 0 0)" gradientUnits="userSpaceOnUse" x1="960" x2="960" xlink:href="#j" y1="735.118" y2="175.118"/><clipPath id="l"><path d="m0 0h22v22h-22z"/></clipPath><mask id="m"><path d="m0 0h22v22h-22z" fill-opacity=".988" filter="url(#h)"/></mask><clipPath id="n"><path d="m0 0h22v22h-22z"/></clipPath><mask id="o"><path d="m0 0h22v22h-22z" fill-opacity=".988" filter="url(#h)"/></mask><clipPath id="p"><path d="m0 0h22v22h-22z"/></clipPath><linearGradient id="q" gradientUnits="userSpaceOnUse" x1="296.333" x2="296.333" y1="244.083" y2="-126.333"><stop offset="0" stop-color="#ef5350"/><stop offset="1" stop-color="#ffb74d"/></linearGradient><linearGradient id="r" gradientTransform="matrix(.0018 0 0 .04297 17.055 4.691)" gradientUnits="userSpaceOnUse" x1="254" x2="254" xlink:href="#a" y1="233.5" y2="254.667"/><radialGradient id="s" cx="450.909" cy="189.579" gradientTransform="matrix(0 -.05372 -.09669 0 35.84 39.174)" gradientUnits="userSpaceOnUse" r="21.167" xlink:href="#c"/><radialGradient id="t" cx="450.909" cy="189.579" gradientTransform="matrix(0 .05372 .09669 0 -.82 -9.723)" gradientUnits="userSpaceOnUse" r="21.167" xlink:href="#c"/><radialGradient id="u" cx="450.909" cy="189.579" gradientTransform="matrix(0 -.05372 .09669 0 -.82 39.174)" gradientUnits="userSpaceOnUse" r="21.167" xlink:href="#c"/><radialGradient id="v" cx="450.909" cy="189.579" gradientTransform="matrix(0 .05372 -.09669 0 35.84 -9.723)" gradientUnits="userSpaceOnUse" r="21.167" xlink:href="#c"/><mask id="w"><path d="m0 0h22v22h-22z" fill-opacity=".988" filter="url(#h)"/></mask><clipPath id="x"><path d="m0 0h22v22h-22z"/></clipPath><mask id="y"><path d="m0 0h22v22h-22z" fill-opacity=".988" filter="url(#h)"/></mask><linearGradient id="z" gradientUnits="userSpaceOnUse" x1="17.5088675" x2="17.5088675" xlink:href="#j" y1="14.72585099" y2="8.359115"/><clipPath id="A"><path d="m0 0h22v22h-22z"/></clipPath><mask id="B"><path d="m0 0h22v22h-22z" fill-opacity=".988" filter="url(#h)"/></mask><clipPath id="C"><path d="m0 0h22v22h-22z"/></clipPath><mask id="D"><path d="m0 0h22v22h-22z" fill-opacity=".988" filter="url(#h)"/></mask><clipPath id="E"><path d="m0 0h22v22h-22z"/></clipPath><mask id="F"><path d="m0 0h22v22h-22z" fill-opacity=".988" filter="url(#h)"/></mask><clipPath id="G"><path d="m0 0h22v22h-22z"/></clipPath><mask id="H"><path d="m0 0h22v22h-22z" fill-opacity=".988" filter="url(#h)"/></mask><linearGradient id="I" gradientTransform="matrix(-.04297 0 0 .04297 22.058 9.24)" gradientUnits="userSpaceOnUse" x1="412.75" x2="412.75" xlink:href="#j" y1="127.667" y2="-20.5"/><clipPath id="J"><path d="m0 0h22v22h-22z"/></clipPath><mask id="K"><path d="m0 0h22v22h-22z" fill-opacity=".988" filter="url(#h)"/></mask><clipPath id="L"><path d="m0 0h22v22h-22z"/></clipPath><mask id="M"><path d="m0 0h22v22h-22z" fill-opacity=".988" filter="url(#h)"/></mask><clipPath id="N"><path d="m0 0h22v22h-22z"/></clipPath><mask id="O"><path d="m0 0h22v22h-22z" fill-opacity=".988" filter="url(#h)"/></mask><clipPath id="P"><path d="m0 0h22v22h-22z"/></clipPath><path d="m4.094 14.727h.453v.91h-.453zm0 0" fill="url(#b)"/><path d="m4.547 14.727h1.82v-.91h-1.82zm0 0" fill="url(#d)"/><path d="m4.094 14.727h-1.82v.91h1.82zm0 0" fill="url(#e)"/><path d="m4.094 14.727h-1.82v-.91h1.82zm0 0" fill="url(#f)"/><path d="m4.547 14.727h1.82v.91h-1.82zm0 0" fill="url(#g)"/><g clip-path="url(#l)" mask="url(#i)"><path d="m10.914 1.992a6.353 6.353 0 0 0 -6.367 6.368v4.547c0 .25.203.453.457.453h.945a5.447 5.447 0 0 1 -.492-2.273v-2.728a5.445 5.445 0 0 1 5.457-5.457 5.445 5.445 0 0 1 5.457 5.457v2.727c0 .812-.176 1.582-.488 2.273h.945c.25 0 .453-.203.453-.453v-4.546a6.353 6.353 0 0 0 -6.367-6.367zm0 0" fill="url(#k)"/></g><g clip-path="url(#n)" mask="url(#m)"><path d="m10.914 1.992a6.353 6.353 0 0 0 -6.367 6.368v.227a6.353 6.353 0 0 1 6.367-6.367 6.353 6.353 0 0 1 6.367 6.367v-.227a6.353 6.353 0 0 0 -6.367-6.367zm-5.457 9.094v.226c0 .727.14 1.418.395 2.047h.097a5.447 5.447 0 0 1 -.492-2.273zm10.914 0c0 .812-.176 1.582-.488 2.273h.097c.254-.629.391-1.32.391-2.046zm0 0" fill="#fff" fill-opacity=".392"/></g><g clip-path="url(#p)" mask="url(#o)"><path d="m10.914 2.672a5.445 5.445 0 0 0 -5.457 5.457v.23a5.445 5.445 0 0 1 5.457-5.457 5.445 5.445 0 0 1 5.457 5.457v-.23a5.445 5.445 0 0 0 -5.457-5.457zm-6.367 10.008v.226c0 .25.203.453.457.453h.945a3.952 3.952 0 0 1 -.097-.226h-.848a.454.454 0 0 1 -.457-.453zm12.734 0c0 .25-.203.453-.453.453h-.848c-.03.078-.066.152-.097.226h.945c.25 0 .453-.203.453-.453zm0 0" fill-opacity=".235"/></g><path d="m5.57 8.36v6.367h-.113v-6.368zm0 0" fill-opacity=".196"/><path d="m5.457 8.36v6.367h-.113v-6.368zm0 0" fill="#e6e6e6" fill-opacity=".588"/><path d="m5.516 8.36v6.367h-.114v-6.368zm0 0" fill="#333" fill-opacity=".992"/><path d="m243.522-123.281c-3.727 0-7 2.727-7.545 6.544l-35.542 266.43-23.725-150.169a7.48 7.48 0 0 0 -7.18-6.363 7.525 7.525 0 0 0 -7.545 6l-9.363 46.904h-4.454c-2.727 0-5.182 1.363-6.545 3.727-1.364 2.363-1.364 5.272 0 7.545 1.363 2.363 3.818 3.817 6.545 3.727h10.544c3.636 0 6.727-2.546 7.363-6l2.363-11.817 25.27 159.712c.546 3.636 3.728 6.363 7.455 6.272 3.727 0 6.817-2.818 7.363-6.454l35.36-265.338 44.996 297.153c.636 3.818 3.908 6.545 7.726 6.363 3.818-.09 6.908-3.09 7.181-6.908l16.817-243.25 10.635 63.994c.636 3.636 3.727 6.273 7.454 6.273h21.18c2.636.09 5.181-1.364 6.545-3.727 1.363-2.273 1.363-5.182 0-7.545-1.364-2.364-3.91-3.727-6.545-3.727h-14.817l-20.18-120.715c-.636-3.727-3.909-6.454-7.726-6.272-3.818.182-6.909 3.182-7.09 7l-16.545 238.886-42.723-281.882a7.51 7.51 0 0 0 -7.272-6.363zm0 0" style="fill-rule:evenodd;stroke-width:3;stroke-linecap:round;stroke-linejoin:round;stroke:#212121;fill:url(#q)" transform="matrix(.04297 0 0 .04297 0 9.24)"/><path d="m17.281 14.727h.457v.91h-.457zm0 0" fill="url(#r)"/><path d="m17.738 14.727h1.817v-.91h-1.817zm0 0" fill="url(#s)"/><path d="m17.281 14.727h-1.816v.91h1.816zm0 0" fill="url(#t)"/><path d="m17.281 14.727h-1.816v-.91h1.816zm0 0" fill="url(#u)"/><path d="m17.738 14.727h1.817v.91h-1.817zm0 0" fill="url(#v)"/><g clip-path="url(#x)" mask="url(#w)"><path d="m10.914 1.926a6.418 6.418 0 0 0 -6.43 6.433v4.547c0 .285.23.52.52.52h.91c.012 0 .027 0 .04-.004.019 0 .038-.012.05-.031.012-.016.012-.04.004-.059a5.377 5.377 0 0 1 -.485-2.246v-2.727a5.38 5.38 0 0 1 5.391-5.394 5.383 5.383 0 0 1 5.395 5.394v2.727c0 .805-.176 1.562-.485 2.246a.053.053 0 0 0 .004.059.05.05 0 0 0 .047.03.16.16 0 0 0 .043.005h.91c.285 0 .52-.235.52-.52v-4.546a6.422 6.422 0 0 0 -6.434-6.433zm0 .129a6.292 6.292 0 0 1 6.305 6.304v4.547a.39.39 0 0 1 -.39.39h-.852c.296-.675.46-1.421.46-2.21v-2.727a5.513 5.513 0 0 0 -5.523-5.523 5.51 5.51 0 0 0 -5.52 5.523v2.727c0 .789.165 1.535.458 2.21h-.848a.387.387 0 0 1 -.39-.39v-4.546a6.288 6.288 0 0 1 6.3-6.304zm0 0" fill="#212121"/></g><g clip-path="url(#A)" mask="url(#y)"><path d="m16.371 8.36c-.375 0-.68.406-.68.91v4.546c0 .504.305.91.68.91h1.137c1.262 0 2.277-.812 2.277-1.82v-2.73c0-1.008-1.015-1.817-2.277-1.817zm0 0" fill="url(#z)"/></g><path d="m16.258 8.36v6.367h.113v-6.368zm0 0" fill-opacity=".196"/><path d="m16.371 8.36v6.367h.117v-6.368zm0 0" fill="#e6e6e6" fill-opacity=".588"/><path d="m16.316 8.36v6.367h.114v-6.368zm0 0" fill="#333" fill-opacity=".992"/><g clip-path="url(#C)" mask="url(#B)"><path d="m16.371 8.36c-.375 0-.68.406-.68.91v.226c0-.504.305-.91.68-.91h1.137c1.262 0 2.277.812 2.277 1.82v-.23c0-1.008-1.015-1.817-2.277-1.817zm0 0" fill="#fff" fill-opacity=".392"/></g><g clip-path="url(#E)" mask="url(#D)"><path d="m16.371 14.727c-.375 0-.68-.407-.68-.91v-.227c0 .504.305.906.68.906h1.137c1.262 0 2.277-.809 2.277-1.816v.226c0 1.008-1.015 1.82-2.277 1.82zm0 0" fill-opacity=".235"/></g><g clip-path="url(#G)" mask="url(#F)"><path d="m16.371 8.293c-.21 0-.398.117-.531.293a1.14 1.14 0 0 0 -.215.684v4.546c0 .266.082.504.215.684.133.176.32.29.531.29h1.137c1.289 0 2.34-.833 2.34-1.884v-2.73c0-1.051-1.051-1.883-2.34-1.883zm0 .129h1.137c1.234 0 2.21.789 2.21 1.754v2.73c0 .965-.976 1.754-2.21 1.754h-1.138a.538.538 0 0 1 -.43-.238 1.024 1.024 0 0 1 -.187-.606v-4.546c0-.243.074-.454.187-.606.114-.152.266-.242.43-.242zm0 0" fill="#212121"/></g><g clip-path="url(#J)" mask="url(#H)"><path d="m5.457 8.36c.379 0 .684.406.684.91v4.546c0 .504-.305.91-.684.91h-1.137c-1.258 0-2.273-.812-2.273-1.82v-2.73c0-1.008 1.015-1.817 2.273-1.817zm0 0" fill="url(#I)"/></g><path d="m5.57 8.36v6.367h-.113v-6.368zm0 0" fill-opacity=".196"/><path d="m5.457 8.36v6.367h-.113v-6.368zm0 0" fill="#e6e6e6" fill-opacity=".588"/><path d="m5.516 8.36v6.367h-.114v-6.368zm0 0" fill="#333" fill-opacity=".992"/><g clip-path="url(#L)" mask="url(#K)"><path d="m5.457 8.36c.379 0 .684.406.684.91v.226c0-.504-.305-.91-.684-.91h-1.137c-1.258 0-2.273.812-2.273 1.82v-.23c0-1.008 1.015-1.817 2.273-1.817zm0 0" fill="#fff" fill-opacity=".392"/></g><g clip-path="url(#N)" mask="url(#M)"><path d="m5.457 14.727c.379 0 .684-.407.684-.91v-.227c0 .504-.305.906-.684.906h-1.137c-1.258 0-2.273-.809-2.273-1.816v.226c0 1.008 1.015 1.82 2.273 1.82zm0 0" fill-opacity=".235"/></g><g clip-path="url(#P)" mask="url(#O)"><path d="m5.457 8.293c.211 0 .402.117.535.293s.211.418.211.684v4.546c0 .266-.078.504-.21.684a.679.679 0 0 1 -.536.29h-1.137c-1.289 0-2.34-.833-2.34-1.884v-2.73c0-1.051 1.051-1.883 2.34-1.883zm0 .129h-1.137c-1.23 0-2.21.789-2.21 1.754v2.73c0 .965.98 1.754 2.21 1.754h1.137c.168 0 .316-.086.434-.238.113-.152.183-.367.183-.606v-4.546c0-.243-.07-.454-.183-.606-.118-.152-.266-.242-.434-.242zm0 0" fill="#212121"/></g></svg>