<svg height="22pt" viewBox="0 0 22 22" width="22pt" xmlns="http://www.w3.org/2000/svg" xmlns:xlink="http://www.w3.org/1999/xlink"><linearGradient id="a"><stop offset="0" stop-opacity=".314"/><stop offset=".222" stop-opacity=".275"/><stop offset="1" stop-opacity="0"/></linearGradient><radialGradient id="b" cx="450.909" cy="189.579" gradientTransform="matrix(0 -.05372 -.09669 0 29.018 43.722)" gradientUnits="userSpaceOnUse" r="21.167" xlink:href="#a"/><radialGradient id="c" cx="450.909" cy="189.579" gradientTransform="matrix(0 .05372 .09669 0 -7.188 -5.175)" gradientUnits="userSpaceOnUse" r="21.167" xlink:href="#a"/><radialGradient id="d" cx="450.909" cy="189.579" gradientTransform="matrix(0 -.05372 .09669 0 -7.188 43.722)" gradientUnits="userSpaceOnUse" r="21.167" xlink:href="#a"/><radialGradient id="e" cx="450.909" cy="189.579" gradientTransform="matrix(0 .05372 -.09669 0 29.018 -5.175)" gradientUnits="userSpaceOnUse" r="21.167" xlink:href="#a"/><linearGradient id="f" gradientUnits="userSpaceOnUse" x1="10.9082" x2="10.9082" y1="19.28049166" y2="1.99809166"><stop offset="0" stop-color="#42a5f5"/><stop offset="1" stop-color="#4dd0e1"/></linearGradient><path d="m10.914 19.273h1.82v-.91h-1.82zm0 0" fill="url(#b)"/><path d="m10.914 19.273h-1.816v.91h1.816zm0 0" fill="url(#c)"/><path d="m10.914 19.273h-1.816v-.91h1.816zm0 0" fill="url(#d)"/><path d="m10.914 19.273h1.82v.91h-1.82zm0 0" fill="url(#e)"/><path d="m8.18 2a.905.905 0 0 0 -.91.906v9.098h-2.73c-.845 0-1.231 1.05-.59 1.601l6.366 5.457a.907.907 0 0 0 1.184 0l6.367-5.457c.64-.55.25-1.601-.594-1.601h-2.726v-9.098a.905.905 0 0 0 -.91-.906zm0 0" fill="url(#f)"/><path d="m8.188 1.992a.909.909 0 0 0 -.91.91v.34c0-.504.406-.91.91-.91h5.457c.503 0 .91.406.91.91v-.34a.909.909 0 0 0 -.91-.91zm-3.642 10.004c-.621 0-.996.57-.895 1.09a.9.9 0 0 1 .895-.75h2.73v-.34zm10.008 0v.34h2.726a.9.9 0 0 1 .895.75c.101-.52-.274-1.09-.895-1.09zm0 0" fill="#fff" fill-opacity=".392"/><path d="m3.64 12.832c-.023.27.07.555.317.766l6.367 5.457a.907.907 0 0 0 1.184 0l6.367-5.457a.892.892 0 0 0 .316-.766.908.908 0 0 1 -.316.598l-6.367 5.457a.907.907 0 0 1 -1.184 0l-6.367-5.457a.891.891 0 0 1 -.316-.598zm0 0" fill-opacity=".235"/><path d="m8.188 1.926a.977.977 0 0 0 -.977.976v9.032h-2.664a.965.965 0 0 0 -.914.632.967.967 0 0 0 .281 1.079l6.367 5.457a.977.977 0 0 0 1.27 0l6.367-5.457c.34-.29.41-.723.277-1.079a.961.961 0 0 0 -.914-.632h-2.664v-9.032a.974.974 0 0 0 -.972-.976zm0 .129h5.457c.468 0 .843.375.843.847v9.094c0 .035.032.066.067.066h2.726c.395 0 .68.243.793.551a.826.826 0 0 1 -.242.934l-6.367 5.457a.842.842 0 0 1 -1.102 0l-6.367-5.457a.832.832 0 0 1 -.242-.934.831.831 0 0 1 .793-.55h2.73c.035 0 .063-.032.063-.067v-9.094c0-.472.379-.847.848-.847zm0 0" fill="#212121"/><path d="m8.188 7.676h.68a.23.23 0 0 1 .23.226v.457a.23.23 0 0 1 -.23.227h-.68a.23.23 0 0 1 -.231-.227v-.457a.23.23 0 0 1 .23-.226zm0-4.774h.68a.23.23 0 0 1 .23.227v.453a.23.23 0 0 1 -.23.227h-.68a.23.23 0 0 1 -.231-.227v-.453a.23.23 0 0 1 .23-.227zm0 1.59h.68a.23.23 0 0 1 .23.227v.457a.23.23 0 0 1 -.23.226h-.68a.23.23 0 0 1 -.231-.226v-.457a.23.23 0 0 1 .23-.227zm0 1.594h.68a.23.23 0 0 1 .23.226v.454a.23.23 0 0 1 -.23.226h-.68a.23.23 0 0 1 -.231-.226v-.454a.23.23 0 0 1 .23-.226zm0 0" fill-opacity=".118"/><path d="m7.957 8.36v.226c0 .125.102.226.23.226h.68c.13 0 .23-.101.23-.226v-.227a.228.228 0 0 1 -.23.227h-.68a.228.228 0 0 1 -.23-.227zm0 0" fill="#fff" fill-opacity=".392"/><path d="m7.957 4.945v-.225c0-.125.102-.227.23-.227h.68c.13 0 .23.102.23.227v.226a.228.228 0 0 0 -.23-.226h-.68a.228.228 0 0 0 -.23.226zm0 0" fill-opacity=".235"/><path d="m7.957 3.582v.227c0 .128.102.23.23.23h.68c.13 0 .23-.101.23-.23v-.227a.228.228 0 0 1 -.23.227h-.68a.228.228 0 0 1 -.23-.227zm0 0" fill="#fff" fill-opacity=".392"/><path d="m7.957 9.723v-.227c0-.125.102-.226.23-.226h.68c.13 0 .23.101.23.226v.227a.228.228 0 0 0 -.23-.227h-.68a.228.228 0 0 0 -.23.227zm0 0" fill-opacity=".235"/><path d="m7.957 5.176v.226c0 .125.102.227.23.227h.68c.13 0 .23-.102.23-.227v-.226a.228.228 0 0 1 -.23.226h-.68a.228.228 0 0 1 -.23-.226zm0 0" fill="#fff" fill-opacity=".392"/><path d="m7.957 8.129v-.227c0-.125.102-.226.23-.226h.68c.13 0 .23.101.23.226v.227a.228.228 0 0 0 -.23-.227h-.68a.228.228 0 0 0 -.23.227zm0 0" fill-opacity=".235"/><path d="m7.957 6.766v.226c0 .13.102.23.23.23h.68c.13 0 .23-.1.23-.23v-.226a.228.228 0 0 1 -.23.226h-.68a.228.228 0 0 1 -.23-.226zm0 0" fill="#fff" fill-opacity=".392"/><path d="m7.957 6.54v-.228c0-.125.102-.226.23-.226h.68c.13 0 .23.101.23.226v.227a.228.228 0 0 0 -.23-.226h-.68a.228.228 0 0 0 -.23.226zm0-3.185v-.225c0-.125.102-.227.23-.227h.68c.13 0 .23.102.23.227v.226a.228.228 0 0 0 -.23-.226h-.68a.228.228 0 0 0 -.23.226zm0 0" fill-opacity=".235"/><path d="m8.188 7.676h.68a.23.23 0 0 1 .23.226v.457a.23.23 0 0 1 -.23.227h-.68a.23.23 0 0 1 -.231-.227v-.457a.23.23 0 0 1 .23-.226zm0-4.774h.68a.23.23 0 0 1 .23.227v.453a.23.23 0 0 1 -.23.227h-.68a.23.23 0 0 1 -.231-.227v-.453a.23.23 0 0 1 .23-.227zm0 1.59h.68a.23.23 0 0 1 .23.227v.457a.23.23 0 0 1 -.23.226h-.68a.23.23 0 0 1 -.231-.226v-.457a.23.23 0 0 1 .23-.227zm0 1.594h.68a.23.23 0 0 1 .23.226v.454a.23.23 0 0 1 -.23.226h-.68a.23.23 0 0 1 -.231-.226v-.454a.23.23 0 0 1 .23-.226zm0 0" fill="none" stroke="#424242" stroke-linecap="round" stroke-linejoin="round" stroke-width=".12891"/><path d="m12.96 7.676h.685c.125 0 .226.101.226.226v.457a.227.227 0 0 1 -.226.227h-.684a.227.227 0 0 1 -.227-.227v-.457c0-.125.102-.226.227-.226zm0-4.774h.685c.125 0 .226.102.226.227v.453a.227.227 0 0 1 -.226.227h-.684a.227.227 0 0 1 -.227-.227v-.453c0-.125.102-.227.227-.227zm0 1.59h.685c.125 0 .226.102.226.227v.457a.227.227 0 0 1 -.226.226h-.684a.227.227 0 0 1 -.227-.226v-.457c0-.125.102-.227.227-.227zm0 1.594h.685c.125 0 .226.101.226.226v.454a.227.227 0 0 1 -.226.226h-.684a.227.227 0 0 1 -.227-.226v-.454c0-.125.102-.226.227-.226zm0 0" fill-opacity=".118"/><path d="m12.734 8.36v.226c0 .125.102.226.227.226h.684a.227.227 0 0 0 .226-.226v-.227a.227.227 0 0 1 -.226.227h-.684a.227.227 0 0 1 -.227-.227zm0 0" fill="#fff" fill-opacity=".392"/><path d="m12.734 4.945v-.225c0-.125.102-.227.227-.227h.684c.125 0 .226.102.226.227v.226a.227.227 0 0 0 -.226-.226h-.684a.227.227 0 0 0 -.227.226zm0 0" fill-opacity=".235"/><path d="m12.734 3.582v.227c0 .128.102.23.227.23h.684a.228.228 0 0 0 .226-.23v-.227a.227.227 0 0 1 -.226.227h-.684a.227.227 0 0 1 -.227-.227zm0 0" fill="#fff" fill-opacity=".392"/><path d="m12.734 9.723v-.227c0-.125.102-.226.227-.226h.684c.125 0 .226.101.226.226v.227a.227.227 0 0 0 -.226-.227h-.684a.227.227 0 0 0 -.227.227zm0 0" fill-opacity=".235"/><path d="m12.734 5.176v.226c0 .125.102.227.227.227h.684a.227.227 0 0 0 .226-.227v-.226a.227.227 0 0 1 -.226.226h-.684a.227.227 0 0 1 -.227-.226zm0 0" fill="#fff" fill-opacity=".392"/><path d="m12.734 8.129v-.227c0-.125.102-.226.227-.226h.684c.125 0 .226.101.226.226v.227a.227.227 0 0 0 -.226-.227h-.684a.227.227 0 0 0 -.227.227zm0 0" fill-opacity=".235"/><path d="m12.734 6.766v.226c0 .13.102.23.227.23h.684a.228.228 0 0 0 .226-.23v-.226a.227.227 0 0 1 -.226.226h-.684a.227.227 0 0 1 -.227-.226zm0 0" fill="#fff" fill-opacity=".392"/><path d="m12.734 6.54v-.228c0-.125.102-.226.227-.226h.684c.125 0 .226.101.226.226v.227a.227.227 0 0 0 -.226-.226h-.684a.227.227 0 0 0 -.227.226zm0-3.185v-.225c0-.125.102-.227.227-.227h.684c.125 0 .226.102.226.227v.226a.227.227 0 0 0 -.226-.226h-.684a.227.227 0 0 0 -.227.226zm0 0" fill-opacity=".235"/><path d="m12.961 7.676h.684c.125 0 .226.101.226.226v.457a.227.227 0 0 1 -.226.227h-.684a.227.227 0 0 1 -.227-.227v-.457c0-.125.102-.226.227-.226zm0-4.774h.684c.125 0 .226.102.226.227v.453a.227.227 0 0 1 -.226.227h-.684a.227.227 0 0 1 -.227-.227v-.453c0-.125.102-.227.227-.227zm0 1.59h.684c.125 0 .226.102.226.227v.457a.227.227 0 0 1 -.226.226h-.684a.227.227 0 0 1 -.227-.226v-.457c0-.125.102-.227.227-.227zm0 1.594h.684c.125 0 .226.101.226.226v.454a.227.227 0 0 1 -.226.226h-.684a.227.227 0 0 1 -.227-.226v-.454c0-.125.102-.226.227-.226zm0 0" fill="none" stroke="#424242" stroke-linecap="round" stroke-linejoin="round" stroke-width=".12891"/><path d="m8.188 9.27h.68a.23.23 0 0 1 .23.226v.453a.23.23 0 0 1 -.23.227h-.68a.23.23 0 0 1 -.231-.227v-.453a.23.23 0 0 1 .23-.226zm0 0" fill-opacity=".118"/><path d="m7.957 9.95v.226c0 .129.102.23.23.23h.68c.13 0 .23-.101.23-.23v-.227a.228.228 0 0 1 -.23.227h-.68a.228.228 0 0 1 -.23-.227zm0 0" fill="#fff" fill-opacity=".392"/><path d="m8.188 9.27h.68a.23.23 0 0 1 .23.226v.453a.23.23 0 0 1 -.23.227h-.68a.23.23 0 0 1 -.231-.227v-.453a.23.23 0 0 1 .23-.226zm0 0" fill="none" stroke="#424242" stroke-linecap="round" stroke-linejoin="round" stroke-width=".12891"/><path d="m12.96 9.27h.685c.125 0 .226.101.226.226v.453a.227.227 0 0 1 -.226.227h-.684a.227.227 0 0 1 -.227-.227v-.453c0-.125.102-.226.227-.226zm0 0" fill-opacity=".118"/><path d="m12.734 9.95v.226c0 .129.102.23.227.23h.684a.228.228 0 0 0 .226-.23v-.227a.227.227 0 0 1 -.226.227h-.684a.227.227 0 0 1 -.227-.227zm0 0" fill="#fff" fill-opacity=".392"/><path d="m12.961 9.27h.684c.125 0 .226.101.226.226v.453a.227.227 0 0 1 -.226.227h-.684a.227.227 0 0 1 -.227-.227v-.453c0-.125.102-.226.227-.226zm0 0" fill="none" stroke="#424242" stroke-linecap="round" stroke-linejoin="round" stroke-width=".12891"/><path d="m7.957 11.313v-.227c0-.125.102-.227.23-.227h.68c.13 0 .23.102.23.227v.226a.228.228 0 0 0 -.23-.226h-.68a.228.228 0 0 0 -.23.226zm4.777 0v-.227c0-.125.102-.227.227-.227h.684c.125 0 .226.102.226.227v.226a.227.227 0 0 0 -.226-.226h-.684a.227.227 0 0 0 -.227.226zm0 0" fill-opacity=".235"/><path d="m8.188 10.86h.68a.23.23 0 0 1 .23.226v.457a.23.23 0 0 1 -.23.227h-.68a.23.23 0 0 1 -.231-.227v-.457a.23.23 0 0 1 .23-.227zm0 0" fill-opacity=".118"/><path d="m7.957 11.543v.227c0 .125.102.226.23.226h.68c.13 0 .23-.101.23-.226v-.227a.228.228 0 0 1 -.23.227h-.68a.228.228 0 0 1 -.23-.227zm0 0" fill="#fff" fill-opacity=".392"/><path d="m8.188 10.86h.68a.23.23 0 0 1 .23.226v.457a.23.23 0 0 1 -.23.227h-.68a.23.23 0 0 1 -.231-.227v-.457a.23.23 0 0 1 .23-.227zm0 0" fill="none" stroke="#424242" stroke-linecap="round" stroke-linejoin="round" stroke-width=".12891"/><path d="m12.96 10.86h.685c.125 0 .226.1.226.226v.457a.227.227 0 0 1 -.226.227h-.684a.227.227 0 0 1 -.227-.227v-.457c0-.125.102-.227.227-.227zm0 0" fill-opacity=".118"/><path d="m12.734 11.543v.227c0 .125.102.226.227.226h.684a.227.227 0 0 0 .226-.226v-.227a.227.227 0 0 1 -.226.227h-.684a.227.227 0 0 1 -.227-.227zm0 0" fill="#fff" fill-opacity=".392"/><path d="m12.961 10.86h.684c.125 0 .226.1.226.226v.457a.227.227 0 0 1 -.226.227h-.684a.227.227 0 0 1 -.227-.227v-.457c0-.125.102-.227.227-.227zm0 0" fill="none" stroke="#424242" stroke-linecap="round" stroke-linejoin="round" stroke-width=".12891"/></svg>