<svg xmlns="http://www.w3.org/2000/svg" width="22pt" height="22pt" viewBox="0 0 22 22"><defs><linearGradient id="a" gradientUnits="userSpaceOnUse" x1="254" y1="233.5" x2="254" y2="254.667" gradientTransform="matrix(.04297 0 0 .04297 -1.592 9.24)"><stop offset="0" stop-opacity=".275"/><stop offset="1" stop-opacity="0"/></linearGradient><radialGradient id="b" gradientUnits="userSpaceOnUse" cx="450.909" cy="189.579" fx="450.909" fy="189.579" r="21.167" gradientTransform="matrix(0 -.05372 -.09669 0 33.338 43.722)"><stop offset="0" stop-opacity=".314"/><stop offset=".222" stop-opacity=".275"/><stop offset="1" stop-opacity="0"/></radialGradient><radialGradient id="c" gradientUnits="userSpaceOnUse" cx="450.909" cy="189.579" fx="450.909" fy="189.579" r="21.167" gradientTransform="matrix(0 .05372 .09669 0 -13.327 -5.175)"><stop offset="0" stop-opacity=".314"/><stop offset=".222" stop-opacity=".275"/><stop offset="1" stop-opacity="0"/></radialGradient><radialGradient id="d" gradientUnits="userSpaceOnUse" cx="450.909" cy="189.579" fx="450.909" fy="189.579" r="21.167" gradientTransform="matrix(0 -.05372 .09669 0 -13.327 43.722)"><stop offset="0" stop-opacity=".314"/><stop offset=".222" stop-opacity=".275"/><stop offset="1" stop-opacity="0"/></radialGradient><radialGradient id="e" gradientUnits="userSpaceOnUse" cx="450.909" cy="189.579" fx="450.909" fy="189.579" r="21.167" gradientTransform="matrix(0 .05372 -.09669 0 33.338 -5.175)"><stop offset="0" stop-opacity=".314"/><stop offset=".222" stop-opacity=".275"/><stop offset="1" stop-opacity="0"/></radialGradient><linearGradient id="f" gradientUnits="userSpaceOnUse" x1="306.917" y1="-25.792" x2="305.955" y2="-141.415" gradientTransform="matrix(.0518 0 0 .14947 -5.389 23.128)"><stop offset="0" stop-color="#9e9e9e"/><stop offset="1" stop-color="#e0e0e0"/></linearGradient><linearGradient id="g" gradientUnits="userSpaceOnUse" x1="254" y1="159.417" x2="254" y2="191.167" gradientTransform="translate(-31.75 -21.167)"><stop offset="0" stop-color="#424242"/><stop offset="1" stop-color="#616161"/></linearGradient><linearGradient id="h" gradientUnits="userSpaceOnUse" x1="254" y1="148.833" x2="254" y2="-41.667" gradientTransform="translate(114.423 84.667)"><stop offset="0" stop-color="#607d8b"/><stop offset="1" stop-color="#78909c"/></linearGradient><linearGradient id="i" gradientUnits="userSpaceOnUse" x1="254" y1="-105.167" x2="254" y2="85.333" gradientTransform="matrix(.04297 0 0 .04297 -1.364 9.292)"><stop offset="0" stop-color="#26a69a"/><stop offset="1" stop-color="#00897b"/></linearGradient><linearGradient id="j" gradientUnits="userSpaceOnUse" x1="1120" y1="775.118" x2="1120" y2="415.118" gradientTransform="matrix(.01137 0 0 .01137 -1.364 .053)"><stop offset="0" stop-color="#cddc39"/><stop offset="1" stop-color="#dce775"/></linearGradient><linearGradient id="k" gradientUnits="userSpaceOnUse" x1="1040" y1="495.117" x2="1040" y2="775.117" gradientTransform="matrix(.01137 0 0 -.01137 -1.364 17.679)"><stop offset="0" stop-color="#f44336"/><stop offset="1" stop-color="#e57373"/></linearGradient></defs><path d="M4.773 19.273h10.461v.91H4.774zm0 0" fill="url(#a)"/><path d="M15.234 19.273h1.82v-.91h-1.82zm0 0" fill="url(#b)"/><path d="M4.773 19.273H2.957v.91h1.816zm0 0" fill="url(#c)"/><path d="M4.773 19.273H2.957v-.91h1.816zm0 0" fill="url(#d)"/><path d="M15.234 19.273h1.82v.91h-1.82zm0 0" fill="url(#e)"/><path d="M4.094 1.992h10.914c.504 0 .91.406.91.91v15.461c0 .504-.406.91-.91.91H4.094a.909.909 0 0 1-.91-.91V2.903c0-.505.406-.91.91-.91zm0 0" fill="url(#f)"/><path d="M4.094 19.273a.909.909 0 0 1-.91-.91v-.113c0 .504.406.91.91.91h10.914c.504 0 .91-.406.91-.91v.113c0 .504-.406.91-.91.91zm0 0" fill-opacity=".196"/><path d="M4.094 1.992a.909.909 0 0 0-.91.91v.114c0-.504.406-.91.91-.91h10.914c.504 0 .91.406.91.91v-.114a.909.909 0 0 0-.91-.91zm0 0" fill="#e6e6e6" fill-opacity=".937"/><path d="M4.094 1.926a.974.974 0 0 0-.973.976v15.461c0 .54.434.973.973.973h10.914a.97.97 0 0 0 .972-.973V2.903a.974.974 0 0 0-.972-.977zm0 .129h10.914c.469 0 .844.375.844.847v15.461a.84.84 0 0 1-.844.844H4.094a.84.84 0 0 1-.844-.844V2.903c0-.473.375-.848.844-.848zm0 0" fill="#212121"/><path d="M126.988 138.239h190.527c5.818 0 10.545 4.727 10.545 10.635v10.545c0 5.817-4.727 10.544-10.545 10.544H126.988c-5.818 0-10.545-4.727-10.545-10.544v-10.545c0-5.908 4.727-10.635 10.545-10.635zm0 0" transform="matrix(.04297 0 0 .04297 0 9.24)" fill="url(#g)" stroke-width="3" stroke-linecap="round" stroke="#212121"/><path d="M4.547 2.902c.254 0 .457.203.457.453a.454.454 0 0 1-.91 0c0-.25.203-.453.453-.453zm0 0M14.555 2.902a.453.453 0 0 1 0 .907.454.454 0 0 1-.457-.454c0-.25.203-.453.457-.453zm0 0M14.555 17.453a.454.454 0 0 1 0 .91.454.454 0 1 1 0-.91zm0 0M4.547 17.453a.455.455 0 1 1 .004.91.455.455 0 0 1-.004-.91zm0 0" fill="#bdbdbd" fill-opacity=".392" stroke-width=".12891" stroke-linecap="round" stroke="#212121"/><path d="M357.875 44.975a10.591 10.591 0 0 0-10.635 10.636v19.18c-3.546 1.09-6.909 2.454-10.181 4.18l-13.544-13.543c-4.182-4.182-10.818-4.182-14.999 0l-14.908 14.907c-4.181 4.182-4.181 10.818 0 14.999l13.544 13.544c-1.727 3.273-3.09 6.636-4.18 10.181h-19.18a10.591 10.591 0 0 0-10.636 10.635v21.09a10.591 10.591 0 0 0 10.635 10.635h19.18c1.09 3.545 2.454 6.908 4.181 10.18l-13.544 13.545c-4.181 4.181-4.181 10.817 0 14.998l14.908 14.908c4.181 4.181 10.817 4.181 14.999 0l13.544-13.544c3.272 1.727 6.635 3.09 10.18 4.272v19.09a10.591 10.591 0 0 0 10.636 10.634h21.089a10.591 10.591 0 0 0 10.635-10.635v-19.089c3.545-1.182 6.909-2.545 10.181-4.272l13.544 13.544c4.182 4.181 10.817 4.181 14.999 0l14.907-14.908c4.182-4.181 4.182-10.817 0-14.998l-13.544-13.545c1.727-3.272 3.09-6.635 4.273-10.18h19.089a10.591 10.591 0 0 0 10.635-10.636v-21.089a10.591 10.591 0 0 0-10.635-10.635h-19.09c-1.181-3.545-2.545-6.908-4.272-10.18l13.544-13.545c4.182-4.181 4.182-10.817 0-14.999l-14.907-14.907c-4.182-4.182-10.817-4.182-14.999 0L399.78 78.972c-3.272-1.727-6.636-3.09-10.18-4.181V55.61a10.591 10.591 0 0 0-10.636-10.636zm10.544 52.904c23.453 0 42.36 18.907 42.36 42.36 0 23.452-18.907 42.36-42.36 42.36-23.452 0-42.36-18.908-42.36-42.36 0-23.453 18.908-42.36 42.36-42.36zm0 0" transform="matrix(.04297 0 0 .04297 0 9.24)" fill="url(#h)" stroke-width="3" stroke-linecap="round" stroke="#212121"/><path d="M9.55 4.773a4.093 4.093 0 1 1 0 8.184 4.092 4.092 0 1 1 0-8.184zm0 0" fill="url(#i)"/><path d="M9.55 4.773v4.094h4.095A4.085 4.085 0 0 0 9.55 4.773zm0 0" fill="url(#j)"/><path d="M9.55 8.867l2.79 3a4.088 4.088 0 0 0 1.305-3zm0 0" fill="url(#k)"/><path d="M9.55 4.719a4.138 4.138 0 0 0-4.144 4.148 4.137 4.137 0 0 0 4.145 4.145 4.137 4.137 0 0 0 4.144-4.145A4.138 4.138 0 0 0 9.551 4.72zm0 .105a4.03 4.03 0 0 1 4.04 4.043 4.03 4.03 0 0 1-4.04 4.04 4.03 4.03 0 0 1-4.038-4.04A4.03 4.03 0 0 1 9.55 4.824zm0 0" fill="#212121"/></svg>