<?xml version="1.0" encoding="UTF-8"?>
<svg xmlns="http://www.w3.org/2000/svg" xmlns:xlink="http://www.w3.org/1999/xlink" width="22px" height="22px" viewBox="0 0 22 22" version="1.1">
<defs>
<linearGradient id="linear0" gradientUnits="userSpaceOnUse" x1="254" y1="233.5" x2="254" y2="254.666672" gradientTransform="matrix(0.0429729,0,0,0.0429729,6.367143,9.239165)">
<stop offset="0" style="stop-color:rgb(0%,0%,0%);stop-opacity:0.27451;"/>
<stop offset="1" style="stop-color:rgb(0%,0%,0%);stop-opacity:0;"/>
</linearGradient>
<radialGradient id="radial0" gradientUnits="userSpaceOnUse" cx="450.908936" cy="189.579361" fx="450.908936" fy="189.579361" r="21.166656" gradientTransform="matrix(0.000000119742,-0.0537161,-0.0966889,-0.0000000698078,35.612424,43.721791)">
<stop offset="0" style="stop-color:rgb(0%,0%,0%);stop-opacity:0.313726;"/>
<stop offset="0.222222" style="stop-color:rgb(0%,0%,0%);stop-opacity:0.27451;"/>
<stop offset="1" style="stop-color:rgb(0%,0%,0%);stop-opacity:0;"/>
</radialGradient>
<radialGradient id="radial1" gradientUnits="userSpaceOnUse" cx="450.908936" cy="189.579361" fx="450.908936" fy="189.579361" r="21.166656" gradientTransform="matrix(-0.000000119742,0.0537161,0.0966889,0.0000000698078,-1.047925,-5.175142)">
<stop offset="0" style="stop-color:rgb(0%,0%,0%);stop-opacity:0.313726;"/>
<stop offset="0.222222" style="stop-color:rgb(0%,0%,0%);stop-opacity:0.27451;"/>
<stop offset="1" style="stop-color:rgb(0%,0%,0%);stop-opacity:0;"/>
</radialGradient>
<radialGradient id="radial2" gradientUnits="userSpaceOnUse" cx="450.908936" cy="189.579361" fx="450.908936" fy="189.579361" r="21.166656" gradientTransform="matrix(-0.000000119742,-0.0537161,0.0966889,-0.0000000698078,-1.047925,43.721791)">
<stop offset="0" style="stop-color:rgb(0%,0%,0%);stop-opacity:0.313726;"/>
<stop offset="0.222222" style="stop-color:rgb(0%,0%,0%);stop-opacity:0.27451;"/>
<stop offset="1" style="stop-color:rgb(0%,0%,0%);stop-opacity:0;"/>
</radialGradient>
<radialGradient id="radial3" gradientUnits="userSpaceOnUse" cx="450.908936" cy="189.579361" fx="450.908936" fy="189.579361" r="21.166656" gradientTransform="matrix(0.000000119742,0.0537161,-0.0966889,0.0000000698078,35.612422,-5.175142)">
<stop offset="0" style="stop-color:rgb(0%,0%,0%);stop-opacity:0.313726;"/>
<stop offset="0.222222" style="stop-color:rgb(0%,0%,0%);stop-opacity:0.27451;"/>
<stop offset="1" style="stop-color:rgb(0%,0%,0%);stop-opacity:0;"/>
</radialGradient>
<linearGradient id="linear1" gradientUnits="userSpaceOnUse" x1="254" y1="233.5" x2="254" y2="254.666672" gradientTransform="matrix(0.0429729,0,0,0.0429729,-6.367145,9.239165)">
<stop offset="0" style="stop-color:rgb(0%,0%,0%);stop-opacity:0.27451;"/>
<stop offset="1" style="stop-color:rgb(0%,0%,0%);stop-opacity:0;"/>
</linearGradient>
<radialGradient id="radial4" gradientUnits="userSpaceOnUse" cx="450.908936" cy="189.579361" fx="450.908936" fy="189.579361" r="21.166656" gradientTransform="matrix(0.000000119742,-0.0537161,-0.0966889,-0.0000000698078,22.878136,43.721791)">
<stop offset="0" style="stop-color:rgb(0%,0%,0%);stop-opacity:0.313726;"/>
<stop offset="0.222222" style="stop-color:rgb(0%,0%,0%);stop-opacity:0.27451;"/>
<stop offset="1" style="stop-color:rgb(0%,0%,0%);stop-opacity:0;"/>
</radialGradient>
<radialGradient id="radial5" gradientUnits="userSpaceOnUse" cx="450.908936" cy="189.579361" fx="450.908936" fy="189.579361" r="21.166656" gradientTransform="matrix(-0.000000119742,0.0537161,0.0966889,0.0000000698078,-13.782213,-5.175142)">
<stop offset="0" style="stop-color:rgb(0%,0%,0%);stop-opacity:0.313726;"/>
<stop offset="0.222222" style="stop-color:rgb(0%,0%,0%);stop-opacity:0.27451;"/>
<stop offset="1" style="stop-color:rgb(0%,0%,0%);stop-opacity:0;"/>
</radialGradient>
<radialGradient id="radial6" gradientUnits="userSpaceOnUse" cx="450.908936" cy="189.579361" fx="450.908936" fy="189.579361" r="21.166656" gradientTransform="matrix(-0.000000119742,-0.0537161,0.0966889,-0.0000000698078,-13.782213,43.721791)">
<stop offset="0" style="stop-color:rgb(0%,0%,0%);stop-opacity:0.313726;"/>
<stop offset="0.222222" style="stop-color:rgb(0%,0%,0%);stop-opacity:0.27451;"/>
<stop offset="1" style="stop-color:rgb(0%,0%,0%);stop-opacity:0;"/>
</radialGradient>
<radialGradient id="radial7" gradientUnits="userSpaceOnUse" cx="450.908936" cy="189.579361" fx="450.908936" fy="189.579361" r="21.166656" gradientTransform="matrix(0.000000119742,0.0537161,-0.0966889,0.0000000698078,22.878134,-5.175142)">
<stop offset="0" style="stop-color:rgb(0%,0%,0%);stop-opacity:0.313726;"/>
<stop offset="0.222222" style="stop-color:rgb(0%,0%,0%);stop-opacity:0.27451;"/>
<stop offset="1" style="stop-color:rgb(0%,0%,0%);stop-opacity:0;"/>
</radialGradient>
<linearGradient id="linear2" gradientUnits="userSpaceOnUse" x1="960" y1="1695.118164" x2="960" y2="95.118111" gradientTransform="matrix(0.0113699,0,0,0.0113699,0,0)">
<stop offset="0" style="stop-color:rgb(61.176473%,80.000001%,39.607844%);stop-opacity:1;"/>
<stop offset="1" style="stop-color:rgb(68.235296%,83.529413%,50.588238%);stop-opacity:1;"/>
</linearGradient>
<linearGradient id="linear3" gradientUnits="userSpaceOnUse" x1="254" y1="212.333328" x2="254" y2="-147.5" gradientTransform="matrix(0.0322296,0,0,0.0322296,2.728776,9.018928)">
<stop offset="0" style="stop-color:rgb(95.686275%,26.274511%,21.176471%);stop-opacity:1;"/>
<stop offset="1" style="stop-color:rgb(93.725491%,32.549021%,31.37255%);stop-opacity:1;"/>
</linearGradient>
<linearGradient id="linear4" gradientUnits="userSpaceOnUse" x1="254" y1="212.333328" x2="254" y2="-147.5" gradientTransform="matrix(0.0322296,0,0,0.0322296,2.728776,10.951821)">
<stop offset="0" style="stop-color:rgb(95.686275%,26.274511%,21.176471%);stop-opacity:1;"/>
<stop offset="1" style="stop-color:rgb(93.725491%,32.549021%,31.37255%);stop-opacity:1;"/>
</linearGradient>
<linearGradient id="linear5" gradientUnits="userSpaceOnUse" x1="254" y1="212.333328" x2="254" y2="-147.5" gradientTransform="matrix(0.0322296,0,0,0.0322296,2.728776,12.771005)">
<stop offset="0" style="stop-color:rgb(95.686275%,26.274511%,21.176471%);stop-opacity:1;"/>
<stop offset="1" style="stop-color:rgb(93.725491%,32.549021%,31.37255%);stop-opacity:1;"/>
</linearGradient>
<linearGradient id="linear6" gradientUnits="userSpaceOnUse" x1="254" y1="212.333328" x2="254" y2="-147.5" gradientTransform="matrix(0.0322296,0,0,0.0322296,2.728776,14.590179)">
<stop offset="0" style="stop-color:rgb(95.686275%,26.274511%,21.176471%);stop-opacity:1;"/>
<stop offset="1" style="stop-color:rgb(93.725491%,32.549021%,31.37255%);stop-opacity:1;"/>
</linearGradient>
<linearGradient id="linear7" gradientUnits="userSpaceOnUse" x1="254" y1="212.333328" x2="254" y2="5.958337" gradientTransform="matrix(0.0859457,0,0,0.0859457,-13.643889,1.478982)">
<stop offset="0" style="stop-color:rgb(25.882354%,25.882354%,25.882354%);stop-opacity:1;"/>
<stop offset="1" style="stop-color:rgb(38.039216%,38.039216%,38.039216%);stop-opacity:1;"/>
</linearGradient>
<linearGradient id="linear8" gradientUnits="userSpaceOnUse" x1="254" y1="212.333328" x2="254" y2="5.958337" gradientTransform="matrix(-0.0859457,0,0,0.0859457,35.466193,1.478982)">
<stop offset="0" style="stop-color:rgb(25.882354%,25.882354%,25.882354%);stop-opacity:1;"/>
<stop offset="1" style="stop-color:rgb(38.039216%,38.039216%,38.039216%);stop-opacity:1;"/>
</linearGradient>
<linearGradient id="linear9" gradientUnits="userSpaceOnUse" x1="254.221695" y1="82.687233" x2="254.221695" y2="-1.979437" gradientTransform="matrix(0.0429729,0,0,0.0429729,-2.738303,3.440526)">
<stop offset="0" style="stop-color:rgb(61.960787%,61.960787%,61.960787%);stop-opacity:1;"/>
<stop offset="1" style="stop-color:rgb(74.117649%,74.117649%,74.117649%);stop-opacity:1;"/>
</linearGradient>
<linearGradient id="linear10" gradientUnits="userSpaceOnUse" x1="254.221695" y1="82.687233" x2="254.221695" y2="-1.979437" gradientTransform="matrix(0.0429729,0,0,0.0429729,2.738303,3.440526)">
<stop offset="0" style="stop-color:rgb(61.960787%,61.960787%,61.960787%);stop-opacity:1;"/>
<stop offset="1" style="stop-color:rgb(74.117649%,74.117649%,74.117649%);stop-opacity:1;"/>
</linearGradient>
</defs>
<g id="surface1">
<path style=" stroke:none;fill-rule:nonzero;fill:url(#linear0);" d="M 17.054688 19.273438 L 17.507812 19.273438 L 17.507812 20.183594 L 17.054688 20.183594 Z M 17.054688 19.273438 "/>
<path style=" stroke:none;fill-rule:nonzero;fill:url(#radial0);" d="M 17.507812 19.273438 L 19.328125 19.273438 L 19.328125 18.363281 L 17.507812 18.363281 Z M 17.507812 19.273438 "/>
<path style=" stroke:none;fill-rule:nonzero;fill:url(#radial1);" d="M 17.054688 19.273438 L 15.234375 19.273438 L 15.234375 20.183594 L 17.054688 20.183594 Z M 17.054688 19.273438 "/>
<path style=" stroke:none;fill-rule:nonzero;fill:url(#radial2);" d="M 17.054688 19.273438 L 15.234375 19.273438 L 15.234375 18.363281 L 17.054688 18.363281 Z M 17.054688 19.273438 "/>
<path style=" stroke:none;fill-rule:nonzero;fill:url(#radial3);" d="M 17.507812 19.273438 L 19.328125 19.273438 L 19.328125 20.183594 L 17.507812 20.183594 Z M 17.507812 19.273438 "/>
<path style=" stroke:none;fill-rule:nonzero;fill:url(#linear1);" d="M 4.320312 19.273438 L 4.773438 19.273438 L 4.773438 20.183594 L 4.320312 20.183594 Z M 4.320312 19.273438 "/>
<path style=" stroke:none;fill-rule:nonzero;fill:url(#radial4);" d="M 4.773438 19.273438 L 6.59375 19.273438 L 6.59375 18.363281 L 4.773438 18.363281 Z M 4.773438 19.273438 "/>
<path style=" stroke:none;fill-rule:nonzero;fill:url(#radial5);" d="M 4.320312 19.273438 L 2.5 19.273438 L 2.5 20.183594 L 4.320312 20.183594 Z M 4.320312 19.273438 "/>
<path style=" stroke:none;fill-rule:nonzero;fill:url(#radial6);" d="M 4.320312 19.273438 L 2.5 19.273438 L 2.5 18.363281 L 4.320312 18.363281 Z M 4.320312 19.273438 "/>
<path style=" stroke:none;fill-rule:nonzero;fill:url(#radial7);" d="M 4.773438 19.273438 L 6.59375 19.273438 L 6.59375 20.183594 L 4.773438 20.183594 Z M 4.773438 19.273438 "/>
<path style=" stroke:none;fill-rule:nonzero;fill:url(#linear2);" d="M 4.488281 1.992188 C 4.019531 1.992188 3.636719 2.398438 3.636719 2.902344 L 3.636719 3.808594 L 2.730469 3.808594 C 2.226562 3.808594 1.820312 4.191406 1.820312 4.660156 L 1.820312 4.777344 C 1.820312 5.25 2.226562 5.628906 2.730469 5.628906 L 3.636719 5.628906 L 3.636719 8.417969 C 3.636719 8.648438 3.738281 8.859375 3.894531 9.011719 C 4.050781 9.167969 4.257812 9.269531 4.488281 9.269531 L 6.367188 9.269531 L 6.367188 11.996094 L 4.488281 11.996094 C 4.257812 11.996094 4.050781 12.09375 3.894531 12.253906 C 3.738281 12.40625 3.636719 12.617188 3.636719 12.847656 L 3.636719 15.636719 L 2.730469 15.636719 C 2.226562 15.636719 1.820312 16.015625 1.820312 16.488281 L 1.820312 16.601562 C 1.820312 17.074219 2.226562 17.453125 2.730469 17.453125 L 3.636719 17.453125 L 3.636719 18.363281 C 3.636719 18.867188 4.019531 19.273438 4.488281 19.273438 L 4.605469 19.273438 C 5.078125 19.273438 5.457031 18.867188 5.457031 18.363281 L 5.457031 13.816406 L 6.367188 13.816406 C 6.367188 16.335938 8.394531 18.363281 10.914062 18.363281 C 13.433594 18.363281 15.464844 16.335938 15.464844 13.816406 L 16.371094 13.816406 L 16.371094 18.363281 C 16.371094 18.867188 16.753906 19.273438 17.222656 19.273438 L 17.339844 19.273438 C 17.8125 19.273438 18.191406 18.867188 18.191406 18.363281 L 18.191406 17.453125 L 19.101562 17.453125 C 19.605469 17.453125 20.011719 17.074219 20.011719 16.601562 L 20.011719 16.488281 C 20.011719 16.015625 19.605469 15.636719 19.101562 15.636719 L 18.191406 15.636719 L 18.191406 12.847656 C 18.191406 12.617188 18.09375 12.40625 17.933594 12.253906 C 17.78125 12.09375 17.570312 11.996094 17.339844 11.996094 L 15.464844 11.996094 L 15.464844 9.269531 L 17.339844 9.269531 C 17.570312 9.269531 17.78125 9.167969 17.933594 9.011719 C 18.09375 8.859375 18.191406 8.648438 18.191406 8.417969 L 18.191406 5.628906 L 19.101562 5.628906 C 19.605469 5.628906 20.011719 5.25 20.011719 4.777344 L 20.011719 4.660156 C 20.011719 4.191406 19.605469 3.808594 19.101562 3.808594 L 18.191406 3.808594 L 18.191406 2.902344 C 18.191406 2.398438 17.8125 1.992188 17.339844 1.992188 L 17.222656 1.992188 C 16.753906 1.992188 16.371094 2.398438 16.371094 2.902344 L 16.371094 7.449219 L 15.464844 7.449219 C 15.464844 4.929688 13.433594 2.902344 10.914062 2.902344 C 8.394531 2.902344 6.367188 4.929688 6.367188 7.449219 L 5.457031 7.449219 L 5.457031 2.902344 C 5.457031 2.398438 5.078125 1.992188 4.605469 1.992188 Z M 4.488281 1.992188 "/>
<path style=" stroke:none;fill-rule:nonzero;fill:rgb(100%,100%,100%);fill-opacity:0.392157;" d="M 4.488281 1.992188 C 4.019531 1.992188 3.636719 2.398438 3.636719 2.902344 L 3.636719 3.128906 C 3.636719 2.625 4.019531 2.21875 4.488281 2.21875 L 4.605469 2.21875 C 5.078125 2.21875 5.457031 2.625 5.457031 3.128906 L 5.457031 2.902344 C 5.457031 2.398438 5.078125 1.992188 4.605469 1.992188 Z M 17.222656 1.992188 C 16.753906 1.992188 16.371094 2.398438 16.371094 2.902344 L 16.371094 3.128906 C 16.371094 2.625 16.753906 2.21875 17.222656 2.21875 L 17.339844 2.21875 C 17.8125 2.21875 18.191406 2.625 18.191406 3.128906 L 18.191406 2.902344 C 18.191406 2.398438 17.8125 1.992188 17.339844 1.992188 Z M 10.914062 2.902344 C 8.394531 2.902344 6.367188 4.929688 6.367188 7.449219 L 5.457031 7.449219 L 5.457031 7.675781 L 6.367188 7.675781 C 6.367188 5.15625 8.394531 3.128906 10.914062 3.128906 C 13.433594 3.128906 15.464844 5.15625 15.464844 7.675781 L 16.371094 7.675781 L 16.371094 7.449219 L 15.464844 7.449219 C 15.464844 4.929688 13.433594 2.902344 10.914062 2.902344 Z M 2.730469 3.808594 C 2.226562 3.808594 1.820312 4.191406 1.820312 4.660156 L 1.820312 4.777344 C 1.820312 4.796875 1.820312 4.816406 1.820312 4.832031 C 1.851562 4.386719 2.246094 4.039062 2.730469 4.039062 L 3.636719 4.039062 L 3.636719 3.808594 Z M 18.191406 3.808594 L 18.191406 4.039062 L 19.101562 4.039062 C 19.585938 4.039062 19.980469 4.386719 20.007812 4.832031 C 20.011719 4.816406 20.011719 4.796875 20.011719 4.777344 L 20.011719 4.660156 C 20.011719 4.191406 19.605469 3.808594 19.101562 3.808594 Z M 4.488281 11.996094 C 4.257812 11.996094 4.050781 12.09375 3.894531 12.253906 C 3.738281 12.40625 3.636719 12.617188 3.636719 12.847656 L 3.636719 13.074219 C 3.636719 12.84375 3.738281 12.632812 3.894531 12.480469 C 4.050781 12.320312 4.257812 12.222656 4.488281 12.222656 L 6.367188 12.222656 L 6.367188 11.996094 Z M 15.464844 11.996094 L 15.464844 12.222656 L 17.339844 12.222656 C 17.570312 12.222656 17.78125 12.320312 17.933594 12.480469 C 18.09375 12.632812 18.191406 12.84375 18.191406 13.074219 L 18.191406 12.847656 C 18.191406 12.617188 18.09375 12.40625 17.933594 12.253906 C 17.78125 12.09375 17.570312 11.996094 17.339844 11.996094 Z M 2.730469 15.636719 C 2.226562 15.636719 1.820312 16.015625 1.820312 16.488281 L 1.820312 16.601562 C 1.820312 16.621094 1.820312 16.640625 1.820312 16.660156 C 1.851562 16.210938 2.246094 15.863281 2.730469 15.863281 L 3.636719 15.863281 L 3.636719 15.636719 Z M 18.191406 15.636719 L 18.191406 15.863281 L 19.101562 15.863281 C 19.585938 15.863281 19.980469 16.210938 20.007812 16.660156 C 20.011719 16.640625 20.011719 16.621094 20.011719 16.601562 L 20.011719 16.488281 C 20.011719 16.015625 19.605469 15.636719 19.101562 15.636719 Z M 18.191406 15.636719 "/>
<path style=" stroke:none;fill-rule:nonzero;fill:rgb(1.568628%,1.960784%,0.784314%);fill-opacity:0.235294;" d="M 1.828125 4.550781 C 1.820312 4.585938 1.820312 4.625 1.820312 4.660156 L 1.820312 4.777344 C 1.820312 5.25 2.226562 5.628906 2.730469 5.628906 L 3.636719 5.628906 L 3.636719 5.289062 L 2.730469 5.289062 C 2.265625 5.289062 1.886719 4.96875 1.828125 4.550781 Z M 20.003906 4.550781 C 19.945312 4.96875 19.566406 5.289062 19.101562 5.289062 L 18.191406 5.289062 L 18.191406 5.628906 L 19.101562 5.628906 C 19.605469 5.628906 20.011719 5.25 20.011719 4.777344 L 20.011719 4.660156 C 20.011719 4.625 20.007812 4.585938 20.003906 4.550781 Z M 3.636719 8.074219 L 3.636719 8.417969 C 3.636719 8.648438 3.738281 8.859375 3.894531 9.011719 C 4.050781 9.167969 4.257812 9.269531 4.488281 9.269531 L 6.367188 9.269531 L 6.367188 8.925781 L 4.488281 8.925781 C 4.257812 8.925781 4.050781 8.828125 3.894531 8.667969 C 3.738281 8.515625 3.636719 8.308594 3.636719 8.074219 Z M 18.191406 8.074219 C 18.191406 8.308594 18.09375 8.515625 17.933594 8.667969 C 17.78125 8.828125 17.570312 8.925781 17.339844 8.925781 L 15.464844 8.925781 L 15.464844 9.269531 L 17.339844 9.269531 C 17.570312 9.269531 17.78125 9.167969 17.933594 9.011719 C 18.09375 8.859375 18.191406 8.648438 18.191406 8.417969 Z M 5.457031 13.476562 L 5.457031 13.816406 L 6.367188 13.816406 C 6.367188 16.335938 8.394531 18.363281 10.914062 18.363281 C 13.433594 18.363281 15.464844 16.335938 15.464844 13.816406 L 16.371094 13.816406 L 16.371094 13.476562 L 15.464844 13.476562 C 15.464844 15.996094 13.433594 18.023438 10.914062 18.023438 C 8.394531 18.023438 6.367188 15.996094 6.367188 13.476562 Z M 1.828125 16.375 C 1.820312 16.410156 1.820312 16.449219 1.820312 16.488281 L 1.820312 16.601562 C 1.820312 17.074219 2.226562 17.453125 2.730469 17.453125 L 3.636719 17.453125 L 3.636719 17.113281 L 2.730469 17.113281 C 2.265625 17.113281 1.886719 16.792969 1.828125 16.375 Z M 20.003906 16.375 C 19.945312 16.792969 19.566406 17.113281 19.101562 17.113281 L 18.191406 17.113281 L 18.191406 17.453125 L 19.101562 17.453125 C 19.605469 17.453125 20.011719 17.074219 20.011719 16.601562 L 20.011719 16.488281 C 20.011719 16.449219 20.007812 16.410156 20.003906 16.375 Z M 3.636719 18.023438 L 3.636719 18.363281 C 3.636719 18.867188 4.019531 19.273438 4.488281 19.273438 L 4.605469 19.273438 C 5.078125 19.273438 5.457031 18.867188 5.457031 18.363281 L 5.457031 18.023438 C 5.457031 18.527344 5.078125 18.933594 4.605469 18.933594 L 4.488281 18.933594 C 4.019531 18.933594 3.636719 18.527344 3.636719 18.023438 Z M 16.371094 18.023438 L 16.371094 18.363281 C 16.371094 18.867188 16.753906 19.273438 17.222656 19.273438 L 17.339844 19.273438 C 17.8125 19.273438 18.191406 18.867188 18.191406 18.363281 L 18.191406 18.023438 C 18.191406 18.527344 17.8125 18.933594 17.339844 18.933594 L 17.222656 18.933594 C 16.753906 18.933594 16.371094 18.527344 16.371094 18.023438 Z M 16.371094 18.023438 "/>
<path style="fill:none;stroke-width:11.338583;stroke-linecap:round;stroke-linejoin:round;stroke:rgb(12.941177%,12.941177%,12.941177%);stroke-opacity:1;stroke-miterlimit:4;" d="M 394.751157 175.215918 C 353.523882 175.215918 319.854941 210.946223 319.854941 255.265544 L 319.854941 334.971609 L 240.148876 334.971609 C 195.829556 334.971609 160.099251 368.64055 160.099251 409.867825 L 160.099251 420.174643 C 160.099251 461.745479 195.829556 495.070859 240.148876 495.070859 L 319.854941 495.070859 L 319.854941 740.373145 C 319.854941 760.643222 328.787517 779.195496 342.529942 792.59436 C 356.272367 806.336785 374.48108 815.269361 394.751157 815.269361 L 560.003817 815.269361 L 560.003817 1055.074677 L 394.751157 1055.074677 C 374.48108 1055.074677 356.272367 1063.663692 342.529942 1077.749678 C 328.787517 1091.148542 319.854941 1109.700816 319.854941 1129.970893 L 319.854941 1375.273178 L 240.148876 1375.273178 C 195.829556 1375.273178 160.099251 1408.598559 160.099251 1450.169394 L 160.099251 1460.132653 C 160.099251 1501.703488 195.829556 1535.028869 240.148876 1535.028869 L 319.854941 1535.028869 L 319.854941 1615.078494 C 319.854941 1659.397814 353.523882 1695.128119 394.751157 1695.128119 L 405.057976 1695.128119 C 446.628811 1695.128119 479.954192 1659.397814 479.954192 1615.078494 L 479.954192 1215.173928 L 560.003817 1215.173928 C 560.003817 1436.77053 738.311781 1615.078494 959.908384 1615.078494 C 1181.504986 1615.078494 1360.156511 1436.77053 1360.156511 1215.173928 L 1439.862576 1215.173928 L 1439.862576 1615.078494 C 1439.862576 1659.397814 1473.531517 1695.128119 1514.758792 1695.128119 L 1525.06561 1695.128119 C 1566.636446 1695.128119 1599.961827 1659.397814 1599.961827 1615.078494 L 1599.961827 1535.028869 L 1680.011452 1535.028869 C 1724.330772 1535.028869 1760.061077 1501.703488 1760.061077 1460.132653 L 1760.061077 1450.169394 C 1760.061077 1408.598559 1724.330772 1375.273178 1680.011452 1375.273178 L 1599.961827 1375.273178 L 1599.961827 1129.970893 C 1599.961827 1109.700816 1591.372811 1091.148542 1577.286825 1077.749678 C 1563.887961 1063.663692 1545.335687 1055.074677 1525.06561 1055.074677 L 1360.156511 1055.074677 L 1360.156511 815.269361 L 1525.06561 815.269361 C 1545.335687 815.269361 1563.887961 806.336785 1577.286825 792.59436 C 1591.372811 779.195496 1599.961827 760.643222 1599.961827 740.373145 L 1599.961827 495.070859 L 1680.011452 495.070859 C 1724.330772 495.070859 1760.061077 461.745479 1760.061077 420.174643 L 1760.061077 409.867825 C 1760.061077 368.64055 1724.330772 334.971609 1680.011452 334.971609 L 1599.961827 334.971609 L 1599.961827 255.265544 C 1599.961827 210.946223 1566.636446 175.215918 1525.06561 175.215918 L 1514.758792 175.215918 C 1473.531517 175.215918 1439.862576 210.946223 1439.862576 255.265544 L 1439.862576 655.17011 L 1360.156511 655.17011 C 1360.156511 433.573508 1181.504986 255.265544 959.908384 255.265544 C 738.311781 255.265544 560.003817 433.573508 560.003817 655.17011 L 479.954192 655.17011 L 479.954192 255.265544 C 479.954192 210.946223 446.628811 175.215918 405.057976 175.215918 Z M 394.751157 175.215918 " transform="matrix(0.0113699,0,0,0.0113699,0,0)"/>
<path style=" stroke:none;fill-rule:nonzero;fill:url(#linear3);" d="M 10.914062 9.722656 C 11.292969 9.722656 11.597656 10.027344 11.597656 10.40625 C 11.597656 10.78125 11.292969 11.085938 10.914062 11.085938 C 10.539062 11.085938 10.234375 10.78125 10.234375 10.40625 C 10.234375 10.027344 10.539062 9.722656 10.914062 9.722656 Z M 10.914062 9.722656 "/>
<path style=" stroke:none;fill-rule:nonzero;fill:rgb(100%,100%,100%);fill-opacity:0.392157;" d="M 10.914062 9.722656 C 10.539062 9.722656 10.234375 10.027344 10.234375 10.40625 C 10.234375 10.445312 10.234375 10.480469 10.242188 10.519531 C 10.296875 10.195312 10.574219 9.949219 10.914062 9.949219 C 11.253906 9.949219 11.535156 10.195312 11.585938 10.519531 C 11.59375 10.480469 11.597656 10.445312 11.597656 10.40625 C 11.597656 10.027344 11.292969 9.722656 10.914062 9.722656 Z M 10.914062 9.722656 "/>
<path style=" stroke:none;fill-rule:nonzero;fill:rgb(0%,0%,0%);fill-opacity:0.235294;" d="M 10.914062 11.3125 C 10.539062 11.3125 10.234375 11.011719 10.234375 10.632812 C 10.234375 10.59375 10.234375 10.554688 10.242188 10.519531 C 10.296875 10.84375 10.574219 11.085938 10.914062 11.085938 C 11.253906 11.085938 11.535156 10.84375 11.585938 10.519531 C 11.59375 10.554688 11.597656 10.59375 11.597656 10.632812 C 11.597656 11.011719 11.292969 11.3125 10.914062 11.3125 Z M 10.914062 11.3125 "/>
<path style="fill:none;stroke-width:3;stroke-linecap:round;stroke-linejoin:round;stroke:rgb(12.941177%,12.941177%,12.941177%);stroke-opacity:1;stroke-miterlimit:4;" d="M 253.975747 11.251121 C 262.793086 11.251121 269.883318 18.341353 269.883318 27.158693 C 269.883318 35.885133 262.793086 42.975365 253.975747 42.975365 C 245.249307 42.975365 238.159075 35.885133 238.159075 27.158693 C 238.159075 18.341353 245.249307 11.251121 253.975747 11.251121 Z M 253.975747 11.251121 " transform="matrix(0.0429729,0,0,0.0429729,0,9.239163)"/>
<path style=" stroke:none;fill-rule:nonzero;fill:url(#linear4);" d="M 10.914062 11.65625 C 11.292969 11.65625 11.597656 11.960938 11.597656 12.335938 C 11.597656 12.714844 11.292969 13.019531 10.914062 13.019531 C 10.539062 13.019531 10.234375 12.714844 10.234375 12.335938 C 10.234375 11.960938 10.539062 11.65625 10.914062 11.65625 Z M 10.914062 11.65625 "/>
<path style=" stroke:none;fill-rule:nonzero;fill:rgb(100%,100%,100%);fill-opacity:0.392157;" d="M 10.914062 11.65625 C 10.539062 11.65625 10.234375 11.960938 10.234375 12.335938 C 10.234375 12.375 10.234375 12.414062 10.242188 12.453125 C 10.296875 12.128906 10.574219 11.882812 10.914062 11.882812 C 11.253906 11.882812 11.535156 12.128906 11.585938 12.453125 C 11.59375 12.414062 11.597656 12.375 11.597656 12.335938 C 11.597656 11.960938 11.292969 11.65625 10.914062 11.65625 Z M 10.914062 11.65625 "/>
<path style=" stroke:none;fill-rule:nonzero;fill:rgb(0%,0%,0%);fill-opacity:0.235294;" d="M 10.914062 13.246094 C 10.539062 13.246094 10.234375 12.941406 10.234375 12.566406 C 10.234375 12.527344 10.234375 12.488281 10.242188 12.453125 C 10.296875 12.773438 10.574219 13.019531 10.914062 13.019531 C 11.253906 13.019531 11.535156 12.773438 11.585938 12.453125 C 11.59375 12.488281 11.597656 12.527344 11.597656 12.566406 C 11.597656 12.941406 11.292969 13.246094 10.914062 13.246094 Z M 10.914062 13.246094 "/>
<path style="fill:none;stroke-width:3;stroke-linecap:round;stroke-linejoin:round;stroke:rgb(12.941177%,12.941177%,12.941177%);stroke-opacity:1;stroke-miterlimit:4;" d="M 253.975747 11.267412 C 262.793086 11.267412 269.883318 18.357644 269.883318 27.084084 C 269.883318 35.901424 262.793086 42.991656 253.975747 42.991656 C 245.249307 42.991656 238.159075 35.901424 238.159075 27.084084 C 238.159075 18.357644 245.249307 11.267412 253.975747 11.267412 Z M 253.975747 11.267412 " transform="matrix(0.0429729,0,0,0.0429729,0,11.172057)"/>
<path style=" stroke:none;fill-rule:nonzero;fill:url(#linear5);" d="M 10.914062 13.476562 C 11.292969 13.476562 11.597656 13.78125 11.597656 14.15625 C 11.597656 14.535156 11.292969 14.839844 10.914062 14.839844 C 10.539062 14.839844 10.234375 14.535156 10.234375 14.15625 C 10.234375 13.78125 10.539062 13.476562 10.914062 13.476562 Z M 10.914062 13.476562 "/>
<path style=" stroke:none;fill-rule:nonzero;fill:rgb(100%,100%,100%);fill-opacity:0.392157;" d="M 10.914062 13.476562 C 10.539062 13.476562 10.234375 13.777344 10.234375 14.15625 C 10.234375 14.195312 10.234375 14.234375 10.242188 14.269531 C 10.296875 13.945312 10.574219 13.703125 10.914062 13.703125 C 11.253906 13.703125 11.535156 13.945312 11.585938 14.269531 C 11.59375 14.234375 11.597656 14.195312 11.597656 14.15625 C 11.597656 13.777344 11.292969 13.476562 10.914062 13.476562 Z M 10.914062 13.476562 "/>
<path style=" stroke:none;fill-rule:nonzero;fill:rgb(0%,0%,0%);fill-opacity:0.235294;" d="M 10.914062 15.066406 C 10.539062 15.066406 10.234375 14.761719 10.234375 14.382812 C 10.234375 14.34375 10.234375 14.308594 10.242188 14.269531 C 10.296875 14.59375 10.574219 14.839844 10.914062 14.839844 C 11.253906 14.839844 11.535156 14.59375 11.585938 14.269531 C 11.59375 14.308594 11.597656 14.34375 11.597656 14.382812 C 11.597656 14.761719 11.292969 15.066406 10.914062 15.066406 Z M 10.914062 15.066406 "/>
<path style="fill:none;stroke-width:3;stroke-linecap:round;stroke-linejoin:round;stroke:rgb(12.941177%,12.941177%,12.941177%);stroke-opacity:1;stroke-miterlimit:4;" d="M 253.975747 11.293672 C 262.793086 11.293672 269.883318 18.383904 269.883318 27.110343 C 269.883318 35.927683 262.793086 43.017915 253.975747 43.017915 C 245.249307 43.017915 238.159075 35.927683 238.159075 27.110343 C 238.159075 18.383904 245.249307 11.293672 253.975747 11.293672 Z M 253.975747 11.293672 " transform="matrix(0.0429729,0,0,0.0429729,0,12.991241)"/>
<path style=" stroke:none;fill-rule:nonzero;fill:url(#linear6);" d="M 10.914062 15.292969 C 11.292969 15.292969 11.597656 15.597656 11.597656 15.976562 C 11.597656 16.351562 11.292969 16.660156 10.914062 16.660156 C 10.539062 16.660156 10.234375 16.351562 10.234375 15.976562 C 10.234375 15.597656 10.539062 15.292969 10.914062 15.292969 Z M 10.914062 15.292969 "/>
<path style=" stroke:none;fill-rule:nonzero;fill:rgb(100%,100%,100%);fill-opacity:0.392157;" d="M 10.914062 15.292969 C 10.539062 15.292969 10.234375 15.597656 10.234375 15.976562 C 10.234375 16.015625 10.234375 16.054688 10.242188 16.089844 C 10.296875 15.765625 10.574219 15.519531 10.914062 15.519531 C 11.253906 15.519531 11.535156 15.765625 11.585938 16.089844 C 11.59375 16.054688 11.597656 16.015625 11.597656 15.976562 C 11.597656 15.597656 11.292969 15.292969 10.914062 15.292969 Z M 10.914062 15.292969 "/>
<path style=" stroke:none;fill-rule:nonzero;fill:rgb(0%,0%,0%);fill-opacity:0.235294;" d="M 10.914062 16.886719 C 10.539062 16.886719 10.234375 16.582031 10.234375 16.203125 C 10.234375 16.164062 10.234375 16.125 10.242188 16.089844 C 10.296875 16.414062 10.574219 16.660156 10.914062 16.660156 C 11.253906 16.660156 11.535156 16.414062 11.585938 16.089844 C 11.59375 16.125 11.597656 16.164062 11.597656 16.203125 C 11.597656 16.582031 11.292969 16.886719 10.914062 16.886719 Z M 10.914062 16.886719 "/>
<path style="fill:none;stroke-width:3;stroke-linecap:round;stroke-linejoin:round;stroke:rgb(12.941177%,12.941177%,12.941177%);stroke-opacity:1;stroke-miterlimit:4;" d="M 253.975747 11.229278 C 262.793086 11.229278 269.883318 18.31951 269.883318 27.13685 C 269.883318 35.863289 262.793086 43.044422 253.975747 43.044422 C 245.249307 43.044422 238.159075 35.863289 238.159075 27.13685 C 238.159075 18.31951 245.249307 11.229278 253.975747 11.229278 Z M 253.975747 11.229278 " transform="matrix(0.0429729,0,0,0.0429729,0,14.810415)"/>
<path style=" stroke:none;fill-rule:nonzero;fill:url(#linear7);" d="M 8.1875 3.355469 C 9.191406 3.355469 10.003906 4.171875 10.003906 5.175781 C 10.003906 6.179688 9.191406 6.992188 8.1875 6.992188 C 7.179688 6.992188 6.367188 6.179688 6.367188 5.175781 C 6.367188 4.171875 7.179688 3.355469 8.1875 3.355469 Z M 8.1875 3.355469 "/>
<path style=" stroke:none;fill-rule:nonzero;fill:rgb(100%,100%,100%);fill-opacity:0.313726;" d="M 8.1875 3.355469 C 7.179688 3.355469 6.367188 4.167969 6.367188 5.175781 C 6.367188 5.210938 6.367188 5.25 6.371094 5.289062 C 6.429688 4.332031 7.214844 3.582031 8.1875 3.582031 C 9.15625 3.582031 9.945312 4.332031 10 5.289062 C 10.003906 5.25 10.003906 5.210938 10.003906 5.175781 C 10.003906 4.167969 9.195312 3.355469 8.1875 3.355469 Z M 8.1875 3.355469 "/>
<path style=" stroke:none;fill-rule:nonzero;fill:rgb(0%,0%,0%);fill-opacity:0.235294;" d="M 9.996094 5.34375 C 9.910156 6.273438 9.136719 6.992188 8.1875 6.992188 C 7.492188 6.992188 6.894531 6.609375 6.585938 6.042969 C 6.5625 6.113281 6.542969 6.183594 6.523438 6.257812 C 6.804688 6.894531 7.441406 7.335938 8.1875 7.335938 C 9.195312 7.335938 10.003906 6.523438 10.003906 5.515625 C 10.003906 5.457031 10.003906 5.402344 9.996094 5.34375 Z M 9.996094 5.34375 "/>
<path style="fill:none;stroke-width:3;stroke-linecap:round;stroke-linejoin:round;stroke:rgb(12.941177%,12.941177%,12.941177%);stroke-opacity:1;stroke-miterlimit:4;" d="M 190.52726 -136.916548 C 213.888666 -136.916548 232.795951 -117.918362 232.795951 -94.556956 C 232.795951 -71.195551 213.888666 -52.288265 190.52726 -52.288265 C 167.074954 -52.288265 148.167669 -71.195551 148.167669 -94.556956 C 148.167669 -117.918362 167.074954 -136.916548 190.52726 -136.916548 Z M 190.52726 -136.916548 " transform="matrix(0.0429729,0,0,0.0429729,0,9.239163)"/>
<path style=" stroke:none;fill-rule:nonzero;fill:url(#linear8);" d="M 13.636719 3.355469 C 12.632812 3.355469 11.816406 4.171875 11.816406 5.175781 C 11.816406 6.179688 12.632812 6.992188 13.636719 6.992188 C 14.640625 6.992188 15.457031 6.179688 15.457031 5.175781 C 15.457031 4.171875 14.640625 3.355469 13.636719 3.355469 Z M 13.636719 3.355469 "/>
<path style=" stroke:none;fill-rule:nonzero;fill:rgb(100%,100%,100%);fill-opacity:0.313726;" d="M 13.636719 3.355469 C 14.644531 3.355469 15.457031 4.167969 15.457031 5.175781 C 15.457031 5.210938 15.453125 5.25 15.453125 5.289062 C 15.394531 4.332031 14.605469 3.582031 13.636719 3.582031 C 12.667969 3.582031 11.878906 4.332031 11.820312 5.289062 C 11.816406 5.25 11.816406 5.210938 11.816406 5.175781 C 11.816406 4.167969 12.628906 3.355469 13.636719 3.355469 Z M 13.636719 3.355469 "/>
<path style=" stroke:none;fill-rule:nonzero;fill:rgb(0%,0%,0%);fill-opacity:0.235294;" d="M 11.824219 5.34375 C 11.910156 6.273438 12.6875 6.992188 13.636719 6.992188 C 14.328125 6.992188 14.929688 6.609375 15.234375 6.042969 C 15.257812 6.113281 15.28125 6.183594 15.296875 6.257812 C 15.015625 6.894531 14.378906 7.335938 13.636719 7.335938 C 12.628906 7.335938 11.816406 6.523438 11.816406 5.515625 C 11.816406 5.457031 11.820312 5.402344 11.824219 5.34375 Z M 11.824219 5.34375 "/>
<path style="fill:none;stroke-width:3;stroke-linecap:round;stroke-linejoin:round;stroke:rgb(12.941177%,12.941177%,12.941177%);stroke-opacity:1;stroke-miterlimit:4;" d="M 190.482707 -136.916548 C 213.844113 -136.916548 232.842299 -117.918362 232.842299 -94.556956 C 232.842299 -71.195551 213.844113 -52.288265 190.482707 -52.288265 C 167.121302 -52.288265 148.123116 -71.195551 148.123116 -94.556956 C 148.123116 -117.918362 167.121302 -136.916548 190.482707 -136.916548 Z M 190.482707 -136.916548 " transform="matrix(-0.0429729,0,0,0.0429729,21.822304,9.239163)"/>
<path style=" stroke:none;fill-rule:nonzero;fill:url(#linear9);" d="M 8.175781 3.925781 C 8.554688 3.925781 8.859375 4.230469 8.859375 4.605469 C 8.859375 4.984375 8.554688 5.289062 8.175781 5.289062 C 7.800781 5.289062 7.496094 4.984375 7.496094 4.605469 C 7.496094 4.230469 7.800781 3.925781 8.175781 3.925781 Z M 8.175781 3.925781 "/>
<path style=" stroke:none;fill-rule:nonzero;fill:rgb(100%,100%,100%);fill-opacity:0.392157;" d="M 8.175781 3.925781 C 7.800781 3.925781 7.496094 4.226562 7.496094 4.605469 C 7.496094 4.644531 7.496094 4.683594 7.503906 4.71875 C 7.558594 4.394531 7.835938 4.152344 8.175781 4.152344 C 8.515625 4.152344 8.796875 4.394531 8.847656 4.71875 C 8.855469 4.683594 8.859375 4.644531 8.859375 4.605469 C 8.859375 4.226562 8.554688 3.925781 8.175781 3.925781 Z M 8.175781 3.925781 "/>
<path style=" stroke:none;fill-rule:nonzero;fill:rgb(0%,0%,0%);fill-opacity:0.235294;" d="M 8.175781 5.515625 C 7.800781 5.515625 7.496094 5.210938 7.496094 4.832031 C 7.496094 4.792969 7.496094 4.757812 7.503906 4.71875 C 7.558594 5.042969 7.835938 5.289062 8.175781 5.289062 C 8.515625 5.289062 8.796875 5.042969 8.847656 4.71875 C 8.855469 4.757812 8.859375 4.792969 8.859375 4.832031 C 8.859375 5.210938 8.554688 5.515625 8.175781 5.515625 Z M 8.175781 5.515625 "/>
<path style="fill:none;stroke-width:3;stroke-linecap:round;stroke-linejoin:round;stroke:rgb(12.941177%,12.941177%,12.941177%);stroke-opacity:1;stroke-miterlimit:4;" d="M 253.976246 11.292138 C 262.793586 11.292138 269.883818 18.38237 269.883818 27.108809 C 269.883818 35.926149 262.793586 43.016381 253.976246 43.016381 C 245.249807 43.016381 238.159575 35.926149 238.159575 27.108809 C 238.159575 18.38237 245.249807 11.292138 253.976246 11.292138 Z M 253.976246 11.292138 " transform="matrix(0.0429729,0,0,0.0429729,-2.738303,3.440526)"/>
<path style=" stroke:none;fill-rule:nonzero;fill:url(#linear10);" d="M 13.652344 3.925781 C 14.03125 3.925781 14.335938 4.230469 14.335938 4.605469 C 14.335938 4.984375 14.03125 5.289062 13.652344 5.289062 C 13.277344 5.289062 12.972656 4.984375 12.972656 4.605469 C 12.972656 4.230469 13.277344 3.925781 13.652344 3.925781 Z M 13.652344 3.925781 "/>
<path style=" stroke:none;fill-rule:nonzero;fill:rgb(100%,100%,100%);fill-opacity:0.392157;" d="M 13.652344 3.925781 C 13.277344 3.925781 12.972656 4.226562 12.972656 4.605469 C 12.972656 4.644531 12.972656 4.683594 12.980469 4.71875 C 13.035156 4.394531 13.3125 4.152344 13.652344 4.152344 C 13.992188 4.152344 14.273438 4.394531 14.324219 4.71875 C 14.332031 4.683594 14.335938 4.644531 14.335938 4.605469 C 14.335938 4.226562 14.03125 3.925781 13.652344 3.925781 Z M 13.652344 3.925781 "/>
<path style=" stroke:none;fill-rule:nonzero;fill:rgb(0%,0%,0%);fill-opacity:0.235294;" d="M 13.652344 5.515625 C 13.277344 5.515625 12.972656 5.210938 12.972656 4.832031 C 12.972656 4.792969 12.972656 4.757812 12.980469 4.71875 C 13.035156 5.042969 13.3125 5.289062 13.652344 5.289062 C 13.992188 5.289062 14.273438 5.042969 14.324219 4.71875 C 14.332031 4.757812 14.335938 4.792969 14.335938 4.832031 C 14.335938 5.210938 14.03125 5.515625 13.652344 5.515625 Z M 13.652344 5.515625 "/>
<path style="fill:none;stroke-width:3;stroke-linecap:round;stroke-linejoin:round;stroke:rgb(12.941177%,12.941177%,12.941177%);stroke-opacity:1;stroke-miterlimit:4;" d="M 253.975235 11.292138 C 262.792575 11.292138 269.882807 18.38237 269.882807 27.108809 C 269.882807 35.926149 262.792575 43.016381 253.975235 43.016381 C 245.248796 43.016381 238.158564 35.926149 238.158564 27.108809 C 238.158564 18.38237 245.248796 11.292138 253.975235 11.292138 Z M 253.975235 11.292138 " transform="matrix(0.0429729,0,0,0.0429729,2.738303,3.440526)"/>
</g>
</svg>
