<?xml version="1.0" encoding="UTF-8"?>
<svg xmlns="http://www.w3.org/2000/svg" xmlns:xlink="http://www.w3.org/1999/xlink" width="22pt" height="22pt" viewBox="0 0 22 22" version="1.1">
<defs>
<linearGradient id="linear0" gradientUnits="userSpaceOnUse" x1="254" y1="233.5" x2="254" y2="254.666672" gradientTransform="matrix(0.0429729,0,0,0.0429729,-0.00000262285,8.329573)">
<stop offset="0" style="stop-color:rgb(0%,0%,0%);stop-opacity:0.27451;"/>
<stop offset="1" style="stop-color:rgb(0%,0%,0%);stop-opacity:0;"/>
</linearGradient>
<radialGradient id="radial0" gradientUnits="userSpaceOnUse" cx="450.908936" cy="189.579361" fx="450.908936" fy="189.579361" r="21.166656" gradientTransform="matrix(0.000000119742,-0.0537161,-0.0966889,-0.0000000698078,36.749412,42.8122)">
<stop offset="0" style="stop-color:rgb(0%,0%,0%);stop-opacity:0.313725;"/>
<stop offset="0.222222" style="stop-color:rgb(0%,0%,0%);stop-opacity:0.27451;"/>
<stop offset="1" style="stop-color:rgb(0%,0%,0%);stop-opacity:0;"/>
</radialGradient>
<radialGradient id="radial1" gradientUnits="userSpaceOnUse" cx="450.908936" cy="189.579361" fx="450.908936" fy="189.579361" r="21.166656" gradientTransform="matrix(-0.000000119742,0.0537161,0.0966889,0.0000000698078,-14.919205,-6.084733)">
<stop offset="0" style="stop-color:rgb(0%,0%,0%);stop-opacity:0.313725;"/>
<stop offset="0.222222" style="stop-color:rgb(0%,0%,0%);stop-opacity:0.27451;"/>
<stop offset="1" style="stop-color:rgb(0%,0%,0%);stop-opacity:0;"/>
</radialGradient>
<radialGradient id="radial2" gradientUnits="userSpaceOnUse" cx="450.908936" cy="189.579361" fx="450.908936" fy="189.579361" r="21.166656" gradientTransform="matrix(-0.000000119742,-0.0537161,0.0966889,-0.0000000698078,-14.919205,42.8122)">
<stop offset="0" style="stop-color:rgb(0%,0%,0%);stop-opacity:0.313725;"/>
<stop offset="0.222222" style="stop-color:rgb(0%,0%,0%);stop-opacity:0.27451;"/>
<stop offset="1" style="stop-color:rgb(0%,0%,0%);stop-opacity:0;"/>
</radialGradient>
<radialGradient id="radial3" gradientUnits="userSpaceOnUse" cx="450.908936" cy="189.579361" fx="450.908936" fy="189.579361" r="21.166656" gradientTransform="matrix(0.000000119742,0.0537161,-0.0966889,0.0000000698078,36.749411,-6.084734)">
<stop offset="0" style="stop-color:rgb(0%,0%,0%);stop-opacity:0.313725;"/>
<stop offset="0.222222" style="stop-color:rgb(0%,0%,0%);stop-opacity:0.27451;"/>
<stop offset="1" style="stop-color:rgb(0%,0%,0%);stop-opacity:0;"/>
</radialGradient>
<linearGradient id="linear1" gradientUnits="userSpaceOnUse" x1="305.954559" y1="-31.87709" x2="305.954559" y2="-135.329163" gradientTransform="matrix(0.0518029,0,0,0.149471,-4.024634,23.128427)">
<stop offset="0" style="stop-color:rgb(25.882353%,64.705882%,96.078431%);stop-opacity:1;"/>
<stop offset="1" style="stop-color:rgb(62.352941%,65.882353%,85.490196%);stop-opacity:1;"/>
</linearGradient>
<linearGradient id="linear2" gradientUnits="userSpaceOnUse" x1="960" y1="1615.118164" x2="960" y2="1015.118103" gradientTransform="matrix(0.0113699,0,0,0.0113699,0,0)">
<stop offset="0" style="stop-color:rgb(21.568627%,27.843137%,30.980392%);stop-opacity:1;"/>
<stop offset="1" style="stop-color:rgb(27.058824%,35.294118%,39.215686%);stop-opacity:1;"/>
</linearGradient>
<linearGradient id="linear3" gradientUnits="userSpaceOnUse" x1="1400" y1="695.118103" x2="1400" y2="455.118103" gradientTransform="matrix(0.0113699,0,0,0.0113699,0,0)">
<stop offset="0" style="stop-color:rgb(99.215686%,84.705882%,20.784314%);stop-opacity:1;"/>
<stop offset="1" style="stop-color:rgb(100%,94.509804%,46.27451%);stop-opacity:1;"/>
</linearGradient>
<linearGradient id="linear4" gradientUnits="userSpaceOnUse" x1="305.954559" y1="-31.87709" x2="305.954559" y2="-135.329163" gradientTransform="matrix(4.556143,0,0,13.146184,-353.972656,2034.180176)">
<stop offset="0" style="stop-color:rgb(69.803922%,92.156863%,94.901961%);stop-opacity:1;"/>
<stop offset="1" style="stop-color:rgb(87.843137%,96.862745%,98.039216%);stop-opacity:1;"/>
</linearGradient>
<linearGradient id="linear5" gradientUnits="userSpaceOnUse" x1="296.776154" y1="-51.378063" x2="296.776154" y2="-139.478302" gradientTransform="matrix(0.0116292,0,0,0.0335547,-0.0403045,12.356172)">
<stop offset="0" style="stop-color:rgb(50.588235%,83.137255%,98.039216%);stop-opacity:1;"/>
<stop offset="1" style="stop-color:rgb(98.823529%,89.411765%,92.54902%);stop-opacity:1;"/>
</linearGradient>
<linearGradient id="linear6" gradientUnits="userSpaceOnUse" x1="320.931091" y1="-35.456806" x2="320.931091" y2="-125.664146" gradientTransform="matrix(0.0104839,0,0,0.03025,0.728548,7.611605)">
<stop offset="0" style="stop-color:rgb(25.882353%,64.705882%,96.078431%);stop-opacity:1;"/>
<stop offset="1" style="stop-color:rgb(62.352941%,65.882353%,85.490196%);stop-opacity:1;"/>
</linearGradient>
<linearGradient id="linear7" gradientUnits="userSpaceOnUse" x1="960" y1="1615.118164" x2="960" y2="1015.118103" gradientTransform="matrix(0.00230105,0,0,0.00230105,1.543058,2.930852)">
<stop offset="0" style="stop-color:rgb(21.568627%,27.843137%,30.980392%);stop-opacity:1;"/>
<stop offset="1" style="stop-color:rgb(27.058824%,35.294118%,39.215686%);stop-opacity:1;"/>
</linearGradient>
<linearGradient id="linear8" gradientUnits="userSpaceOnUse" x1="1400" y1="695.118103" x2="1400" y2="455.118103" gradientTransform="matrix(0.00230105,0,0,0.00230105,1.123454,3.043375)">
<stop offset="0" style="stop-color:rgb(99.215686%,84.705882%,20.784314%);stop-opacity:1;"/>
<stop offset="1" style="stop-color:rgb(100%,94.509804%,46.27451%);stop-opacity:1;"/>
</linearGradient>
<linearGradient id="linear9" gradientUnits="userSpaceOnUse" x1="960" y1="1615.118164" x2="960" y2="1015.118103" gradientTransform="matrix(0.00255243,0,0,0.00255243,0.863185,7.164079)">
<stop offset="0" style="stop-color:rgb(27.058824%,35.294118%,39.215686%);stop-opacity:1;"/>
<stop offset="1" style="stop-color:rgb(47.058824%,56.470588%,61.176471%);stop-opacity:1;"/>
</linearGradient>
<linearGradient id="linear10" gradientUnits="userSpaceOnUse" x1="359.833344" y1="-20.5" x2="359.833344" y2="-105.166672" gradientTransform="matrix(0.00964697,0,0,0.00964697,0.863185,9.238177)">
<stop offset="0" style="stop-color:rgb(89.803922%,45.098039%,45.098039%);stop-opacity:1;"/>
<stop offset="1" style="stop-color:rgb(93.72549%,60.392157%,60.392157%);stop-opacity:1;"/>
</linearGradient>
</defs>
<g id="surface1">
<path style=" stroke:none;fill-rule:nonzero;fill:url(#linear0);" d="M 3.183594 18.363281 L 18.648438 18.363281 L 18.648438 19.25 L 3.183594 19.25 Z M 3.183594 18.363281 "/>
<path style=" stroke:none;fill-rule:nonzero;fill:url(#radial0);" d="M 18.648438 18.363281 L 20.464844 18.363281 L 20.464844 17.453125 L 18.648438 17.453125 Z M 18.648438 18.363281 "/>
<path style=" stroke:none;fill-rule:nonzero;fill:url(#radial1);" d="M 3.183594 18.363281 L 1.363281 18.363281 L 1.363281 19.273438 L 3.183594 19.273438 Z M 3.183594 18.363281 "/>
<path style=" stroke:none;fill-rule:nonzero;fill:url(#radial2);" d="M 3.183594 18.363281 L 1.363281 18.363281 L 1.363281 17.453125 L 3.183594 17.453125 Z M 3.183594 18.363281 "/>
<path style=" stroke:none;fill-rule:nonzero;fill:url(#radial3);" d="M 18.648438 18.363281 L 20.464844 18.363281 L 20.464844 19.273438 L 18.648438 19.273438 Z M 18.648438 18.363281 "/>
<path style=" stroke:none;fill-rule:nonzero;fill:url(#linear1);" d="M 2.273438 2.902344 L 19.554688 2.902344 C 20.058594 2.902344 20.464844 3.308594 20.464844 3.808594 L 20.464844 17.453125 C 20.464844 17.957031 20.058594 18.363281 19.554688 18.363281 L 2.273438 18.363281 C 1.773438 18.363281 1.363281 17.957031 1.363281 17.453125 L 1.363281 3.808594 C 1.363281 3.308594 1.773438 2.902344 2.273438 2.902344 Z M 2.273438 2.902344 "/>
<path style=" stroke:none;fill-rule:nonzero;fill:url(#linear2);" d="M 1.363281 13.359375 L 1.363281 17.453125 C 1.363281 17.957031 1.769531 18.363281 2.273438 18.363281 L 19.554688 18.363281 C 20.058594 18.363281 20.464844 17.957031 20.464844 17.453125 L 20.464844 13.359375 C 16.683594 15.574219 15.457031 13.109375 13.914062 12.703125 C 12.265625 12.273438 11.949219 14.234375 10.285156 14.035156 C 8.617188 13.835938 6.496094 11.328125 4.964844 11.484375 C 3.429688 11.640625 2.65625 12.546875 1.363281 13.359375 Z M 1.363281 13.359375 "/>
<path style=" stroke:none;fill-rule:nonzero;fill:rgb(0%,0%,0%);fill-opacity:0.196078;" d="M 2.273438 18.363281 C 1.769531 18.363281 1.363281 17.957031 1.363281 17.453125 L 1.363281 17.339844 C 1.363281 17.84375 1.769531 18.25 2.273438 18.25 L 19.554688 18.25 C 20.058594 18.25 20.464844 17.84375 20.464844 17.339844 L 20.464844 17.453125 C 20.464844 17.957031 20.058594 18.363281 19.554688 18.363281 Z M 2.273438 18.363281 "/>
<path style=" stroke:none;fill-rule:nonzero;fill:rgb(90.196079%,90.196079%,90.196079%);fill-opacity:0.937255;" d="M 2.273438 2.902344 C 1.769531 2.902344 1.363281 3.304688 1.363281 3.808594 L 1.363281 3.925781 C 1.363281 3.421875 1.769531 3.011719 2.273438 3.015625 L 19.554688 3.015625 C 20.058594 3.011719 20.464844 3.421875 20.464844 3.925781 L 20.464844 3.808594 C 20.464844 3.304688 20.058594 2.902344 19.554688 2.902344 Z M 2.273438 2.902344 "/>
<path style=" stroke:none;fill-rule:nonzero;fill:rgb(12.941177%,12.941177%,12.941177%);fill-opacity:1;" d="M 2.273438 2.835938 C 1.734375 2.835938 1.300781 3.273438 1.300781 3.808594 L 1.300781 17.453125 C 1.300781 17.992188 1.734375 18.429688 2.273438 18.429688 L 19.554688 18.429688 C 20.09375 18.429688 20.53125 17.992188 20.53125 17.453125 L 20.53125 3.808594 C 20.53125 3.273438 20.09375 2.835938 19.554688 2.835938 Z M 2.273438 2.964844 L 19.554688 2.964844 C 20.027344 2.964844 20.402344 3.339844 20.402344 3.808594 L 20.402344 17.453125 C 20.402344 17.921875 20.027344 18.300781 19.554688 18.300781 L 2.273438 18.300781 C 1.804688 18.300781 1.429688 17.921875 1.429688 17.453125 L 1.429688 3.808594 C 1.429688 3.339844 1.804688 2.964844 2.273438 2.964844 Z M 2.273438 2.964844 "/>
<path style=" stroke:none;fill-rule:nonzero;fill:url(#linear3);" d="M 15.917969 5.175781 C 15.667969 5.175781 15.4375 5.242188 15.234375 5.355469 C 15.644531 5.589844 15.917969 6.03125 15.917969 6.539062 C 15.917969 7.046875 15.644531 7.488281 15.234375 7.722656 C 15.4375 7.835938 15.667969 7.902344 15.917969 7.902344 C 16.671875 7.902344 17.28125 7.292969 17.28125 6.539062 C 17.28125 5.78125 16.671875 5.175781 15.917969 5.175781 Z M 15.917969 5.175781 "/>
<path style="fill-rule:nonzero;fill:url(#linear4);stroke-width:11.338583;stroke-linecap:round;stroke-linejoin:miter;stroke:rgb(12.941177%,12.941177%,12.941177%);stroke-opacity:1;stroke-miterlimit:4;" d="M 199.952283 255.265544 C 155.632963 255.265544 119.902658 290.652288 119.902658 334.971609 L 119.902658 1535.028869 C 119.902658 1579.348189 155.632963 1615.078494 199.952283 1615.078494 L 1719.864484 1615.078494 C 1764.183805 1615.078494 1799.91411 1579.348189 1799.91411 1535.028869 L 1799.91411 334.971609 C 1799.91411 290.652288 1764.183805 255.265544 1719.864484 255.265544 Z M 599.85685 334.971609 L 1640.15842 334.971609 C 1684.47774 334.971609 1719.864484 370.701913 1719.864484 415.021234 L 1719.864484 1454.979243 C 1719.864484 1499.298564 1684.47774 1535.028869 1640.15842 1535.028869 L 599.85685 1535.028869 C 555.537529 1535.028869 520.150785 1499.298564 520.150785 1454.979243 L 520.150785 415.021234 C 520.150785 370.701913 555.537529 334.971609 599.85685 334.971609 Z M 599.85685 334.971609 " transform="matrix(0.0113699,0,0,0.0113699,0,0)"/>
<path style=" stroke:none;fill-rule:nonzero;fill:url(#linear5);" d="M 2.730469 7.902344 C 2.476562 7.902344 2.273438 8.105469 2.273438 8.359375 L 2.273438 10.175781 C 2.273438 10.429688 2.476562 10.632812 2.730469 10.632812 L 4.546875 10.632812 C 4.800781 10.632812 5.003906 10.429688 5.003906 10.175781 L 5.003906 8.359375 C 5.003906 8.105469 4.800781 7.902344 4.546875 7.902344 Z M 2.730469 7.902344 "/>
<path style=" stroke:none;fill-rule:nonzero;fill:url(#linear6);" d="M 2.730469 3.808594 C 2.476562 3.808594 2.273438 4.011719 2.273438 4.265625 L 2.273438 6.085938 C 2.273438 6.335938 2.476562 6.539062 2.730469 6.539062 L 4.546875 6.539062 C 4.800781 6.539062 5.003906 6.335938 5.003906 6.085938 L 5.003906 4.265625 C 5.003906 4.011719 4.800781 3.808594 4.546875 3.808594 Z M 2.730469 3.808594 "/>
<path style=" stroke:none;fill-rule:nonzero;fill:url(#linear7);" d="M 2.578125 5.253906 C 2.566406 5.253906 2.558594 5.253906 2.546875 5.253906 C 2.441406 5.265625 2.355469 5.292969 2.273438 5.332031 L 2.273438 6.085938 C 2.273438 6.335938 2.476562 6.539062 2.730469 6.539062 L 4.546875 6.539062 C 4.800781 6.539062 5.003906 6.335938 5.003906 6.085938 L 5.003906 5.808594 C 4.722656 5.761719 4.550781 5.550781 4.359375 5.503906 C 4.023438 5.414062 3.960938 5.8125 3.625 5.769531 C 3.296875 5.730469 2.882812 5.253906 2.578125 5.253906 Z M 2.578125 5.253906 "/>
<path style=" stroke:none;fill-rule:nonzero;fill:url(#linear8);" d="M 4.34375 4.089844 C 4.292969 4.089844 4.246094 4.105469 4.207031 4.128906 C 4.289062 4.175781 4.34375 4.265625 4.34375 4.367188 C 4.34375 4.46875 4.289062 4.558594 4.207031 4.605469 C 4.246094 4.628906 4.292969 4.644531 4.34375 4.644531 C 4.496094 4.644531 4.621094 4.519531 4.621094 4.367188 C 4.621094 4.214844 4.496094 4.089844 4.34375 4.089844 Z M 4.34375 4.089844 "/>
<path style="fill:none;stroke-width:3;stroke-linecap:round;stroke-linejoin:round;stroke:rgb(12.941177%,12.941177%,12.941177%);stroke-opacity:1;stroke-miterlimit:4;" d="M 63.539387 -126.3721 L 105.808078 -126.3721 C 111.716604 -126.3721 116.443426 -121.554378 116.443426 -115.736752 L 116.443426 -73.377161 C 116.443426 -67.559534 111.716604 -62.832713 105.808078 -62.832713 L 63.539387 -62.832713 C 57.63086 -62.832713 52.904039 -67.559534 52.904039 -73.377161 L 52.904039 -115.736752 C 52.904039 -121.554378 57.63086 -126.3721 63.539387 -126.3721 Z M 63.539387 -126.3721 " transform="matrix(0.0429729,0,0,0.0429729,0,9.239163)"/>
<path style=" stroke:none;fill-rule:nonzero;fill:url(#linear9);" d="M 2.273438 9.820312 L 2.273438 10.175781 C 2.273438 10.429688 2.476562 10.632812 2.730469 10.632812 L 4.546875 10.632812 C 4.738281 10.632812 4.898438 10.519531 4.964844 10.355469 C 4.480469 10.4375 4.253906 10.085938 3.988281 10.015625 C 3.617188 9.917969 3.546875 10.359375 3.171875 10.316406 C 2.898438 10.28125 2.566406 9.96875 2.273438 9.820312 Z M 2.273438 9.820312 "/>
<path style=" stroke:none;fill-rule:nonzero;fill:url(#linear10);" d="M 4.335938 8.222656 C 4.558594 8.222656 4.742188 8.40625 4.742188 8.632812 C 4.742188 8.859375 4.558594 9.039062 4.335938 9.039062 C 4.109375 9.039062 3.925781 8.859375 3.925781 8.632812 C 3.925781 8.40625 4.109375 8.222656 4.335938 8.222656 Z M 4.335938 8.222656 "/>
<path style="fill:none;stroke-width:3;stroke-linecap:round;stroke-linejoin:round;stroke:rgb(12.941177%,12.941177%,12.941177%);stroke-opacity:1;stroke-miterlimit:4;" d="M 63.539387 -31.10847 L 105.808078 -31.10847 C 111.716604 -31.10847 116.443426 -26.381649 116.443426 -20.473122 L 116.443426 21.795569 C 116.443426 27.704096 111.716604 32.430917 105.808078 32.430917 L 63.539387 32.430917 C 57.63086 32.430917 52.904039 27.704096 52.904039 21.795569 L 52.904039 -20.473122 C 52.904039 -26.381649 57.63086 -31.10847 63.539387 -31.10847 Z M 63.539387 -31.10847 " transform="matrix(0.0429729,0,0,0.0429729,0,9.239163)"/>
</g>
</svg>
