<svg height="22pt" viewBox="0 0 22 22" width="22pt" xmlns="http://www.w3.org/2000/svg" xmlns:xlink="http://www.w3.org/1999/xlink"><linearGradient id="a"><stop offset="0" stop-opacity=".314"/><stop offset=".222" stop-opacity=".275"/><stop offset="1" stop-opacity="0"/></linearGradient><radialGradient id="b" cx="450.909" cy="189.579" gradientTransform="matrix(0 -.05372 -.09669 0 21.969 42.425)" gradientUnits="userSpaceOnUse" r="21.167" xlink:href="#a"/><radialGradient id="c" cx="450.909" cy="189.579" gradientTransform="matrix(0 .05372 .09669 0 -14.237 -6.472)" gradientUnits="userSpaceOnUse" r="21.167" xlink:href="#a"/><radialGradient id="d" cx="450.909" cy="189.579" gradientTransform="matrix(0 -.05372 .09669 0 -14.237 42.425)" gradientUnits="userSpaceOnUse" r="21.167" xlink:href="#a"/><radialGradient id="e" cx="450.909" cy="189.579" gradientTransform="matrix(0 .05372 -.09669 0 21.969 -6.472)" gradientUnits="userSpaceOnUse" r="21.167" xlink:href="#a"/><radialGradient id="f" cx="450.909" cy="189.579" gradientTransform="matrix(0 -.05372 -.09669 0 31.064 42.425)" gradientUnits="userSpaceOnUse" r="21.167" xlink:href="#a"/><radialGradient id="g" cx="450.909" cy="189.579" gradientTransform="matrix(0 .05372 .09669 0 -5.141 -6.472)" gradientUnits="userSpaceOnUse" r="21.167" xlink:href="#a"/><radialGradient id="h" cx="450.909" cy="189.579" gradientTransform="matrix(0 -.05372 .09669 0 -5.141 42.425)" gradientUnits="userSpaceOnUse" r="21.167" xlink:href="#a"/><radialGradient id="i" cx="450.909" cy="189.579" gradientTransform="matrix(0 .05372 -.09669 0 31.064 -6.472)" gradientUnits="userSpaceOnUse" r="21.167" xlink:href="#a"/><linearGradient id="j"><stop offset="0" stop-color="#ef5350"/><stop offset="1" stop-color="#e57373"/></linearGradient><linearGradient id="k" gradientUnits="userSpaceOnUse" x1="296.333" x2="296.333" xlink:href="#j" y1="212.333" y2="106.5"/><radialGradient id="l" cx="450.909" cy="189.579" gradientTransform="matrix(0 -.05372 -.09669 0 35.612 42.425)" gradientUnits="userSpaceOnUse" r="21.167" xlink:href="#a"/><radialGradient id="m" cx="450.909" cy="189.579" gradientTransform="matrix(0 .05372 .09669 0 -.593 -6.472)" gradientUnits="userSpaceOnUse" r="21.167" xlink:href="#a"/><radialGradient id="n" cx="450.909" cy="189.579" gradientTransform="matrix(0 -.05372 .09669 0 -.593 42.425)" gradientUnits="userSpaceOnUse" r="21.167" xlink:href="#a"/><radialGradient id="o" cx="450.909" cy="189.579" gradientTransform="matrix(0 .05372 -.09669 0 35.612 -6.472)" gradientUnits="userSpaceOnUse" r="21.167" xlink:href="#a"/><linearGradient id="p" gradientUnits="userSpaceOnUse" x1="402.167" x2="402.167" xlink:href="#j" y1="191.166" y2="106.5"/><linearGradient id="q" gradientUnits="userSpaceOnUse" x1="84.667" x2="84.667" xlink:href="#j" y1="191.166" y2="106.5"/><linearGradient id="r"><stop offset="0" stop-color="#81c784"/><stop offset="1" stop-color="#a5d6a7"/></linearGradient><linearGradient id="s" gradientUnits="userSpaceOnUse" x1="296.333" x2="296.333" xlink:href="#r" y1="85.333" y2="-20.5"/><linearGradient id="t" gradientUnits="userSpaceOnUse" x1="190.5" x2="190.5" xlink:href="#j" y1="-41.667" y2="-126.334"/><radialGradient id="u" cx="450.909" cy="189.579" gradientTransform="matrix(0 -.05372 -.09669 0 26.517 42.425)" gradientUnits="userSpaceOnUse" r="21.167" xlink:href="#a"/><radialGradient id="v" cx="450.909" cy="189.579" gradientTransform="matrix(0 .05372 .09669 0 -9.69 -6.472)" gradientUnits="userSpaceOnUse" r="21.167" xlink:href="#a"/><radialGradient id="w" cx="450.909" cy="189.579" gradientTransform="matrix(0 -.05372 .09669 0 -9.69 42.425)" gradientUnits="userSpaceOnUse" r="21.167" xlink:href="#a"/><radialGradient id="x" cx="450.909" cy="189.579" gradientTransform="matrix(0 .05372 -.09669 0 26.516 -6.472)" gradientUnits="userSpaceOnUse" r="21.167" xlink:href="#a"/><linearGradient id="y" gradientUnits="userSpaceOnUse" x1="190.5" x2="190.5" xlink:href="#r" y1="201.75" y2="95.917"/><linearGradient id="z" gradientUnits="userSpaceOnUse" x1="190.5" x2="190.5" xlink:href="#r" y1="85.333" y2="-20.5"/><linearGradient id="A" gradientUnits="userSpaceOnUse" x1="84.666" x2="84.666" xlink:href="#r" y1="85.333" y2="-20.5"/><linearGradient id="B" gradientUnits="userSpaceOnUse" x1="84.666" x2="84.666" xlink:href="#r" y1="-31.083" y2="-136.916"/><path d="m3.867 17.977h1.817v-.91h-1.817zm0 0" fill="url(#b)"/><path d="m3.867 17.977h-1.82v.91h1.82zm0 0" fill="url(#c)"/><path d="m3.867 17.977h-1.82v-.91h1.82zm0 0" fill="url(#d)"/><path d="m3.867 17.977h1.817v.91h-1.817zm0 0" fill="url(#e)"/><path d="m12.96 17.977h1.821v-.91h-1.82zm0 0" fill="url(#f)"/><path d="m12.96 17.977h-1.82v.91h1.82zm0 0" fill="url(#g)"/><path d="m12.96 17.977h-1.82v-.91h1.82zm0 0" fill="url(#h)"/><path d="m12.96 17.977h1.821v.91h-1.82zm0 0" fill="url(#i)"/><path d="m301.608 106.515c26.36 0 47.631 21.27 47.631 47.632 0 26.27-21.27 47.631-47.631 47.631-26.27 0-47.632-21.361-47.632-47.631 0-26.362 21.361-47.632 47.632-47.632zm0 0" fill="url(#k)" stroke="#333" stroke-linecap="square" stroke-linejoin="bevel" stroke-width="3" transform="matrix(.04297 0 0 .04297 0 9.24)"/><path d="m17.508 17.977h1.82v-.91h-1.82zm0 0" fill="url(#l)"/><path d="m17.508 17.977h-1.818v.91h1.817zm0 0" fill="url(#m)"/><path d="m17.508 17.977h-1.818v-.91h1.817zm0 0" fill="url(#n)"/><path d="m17.508 17.977h1.82v.91h-1.82zm0 0" fill="url(#o)"/><g stroke="#333" stroke-linecap="square" stroke-linejoin="bevel" stroke-width="3"><path d="m407.416 106.515c26.36 0 47.631 21.27 47.631 47.632 0 26.27-21.27 47.631-47.631 47.631-26.27 0-47.541-21.361-47.541-47.631 0-26.362 21.27-47.632 47.54-47.632zm0 0" fill="url(#p)" transform="matrix(.04297 0 0 .04297 0 9.24)"/><path d="m89.991 106.515c26.27 0 47.632 21.27 47.632 47.632 0 26.27-21.361 47.631-47.632 47.631-26.36 0-47.631-21.361-47.631-47.631 0-26.362 21.27-47.632 47.631-47.632zm0 0" fill="url(#q)" transform="matrix(.04297 0 0 .04297 0 9.24)"/><path d="m301.608-9.929c26.36 0 47.631 21.362 47.631 47.632s-21.27 47.632-47.631 47.632c-26.27 0-47.632-21.362-47.632-47.632s21.361-47.632 47.632-47.632zm0 0" fill="url(#s)" transform="matrix(.04297 0 0 .04297 0 9.24)"/><path d="m195.8-126.372c26.27 0 47.631 21.361 47.631 47.632 0 26.36-21.361 47.632-47.632 47.632-26.27 0-47.631-21.271-47.631-47.632 0-26.27 21.361-47.632 47.631-47.632zm0 0" fill="url(#t)" transform="matrix(.04297 0 0 .04297 0 9.24)"/></g><path d="m8.414 17.977h1.82v-.91h-1.82zm0 0" fill="url(#u)"/><path d="m8.414 17.977h-1.82v.91h1.82zm0 0" fill="url(#v)"/><path d="m8.414 17.977h-1.82v-.91h1.82zm0 0" fill="url(#w)"/><path d="m8.414 17.977h1.82v.91h-1.82zm0 0" fill="url(#x)"/><path d="m195.8 106.515c26.27 0 47.631 21.27 47.631 47.632 0 26.27-21.361 47.631-47.632 47.631-26.27 0-47.631-21.361-47.631-47.631 0-26.362 21.361-47.632 47.631-47.632zm0 0" fill="url(#y)" stroke="#333" stroke-linecap="square" stroke-linejoin="bevel" stroke-width="3" transform="matrix(.04297 0 0 .04297 0 9.24)"/><path d="m195.8-9.929c26.27 0 47.631 21.362 47.631 47.632s-21.361 47.632-47.631 47.632-47.631-21.362-47.631-47.632 21.361-47.632 47.631-47.632zm0 0" fill="url(#z)" stroke="#333" stroke-linecap="square" stroke-linejoin="bevel" stroke-width="3" transform="matrix(.04297 0 0 .04297 0 9.24)"/><path d="m89.991-9.929c26.27 0 47.632 21.362 47.632 47.632s-21.361 47.632-47.632 47.632c-26.36 0-47.631-21.362-47.631-47.632s21.27-47.632 47.63-47.632zm0 0" fill="url(#A)" stroke="#333" stroke-linecap="square" stroke-linejoin="bevel" stroke-width="3" transform="matrix(.04297 0 0 .04297 0 9.24)"/><path d="m89.991-126.372c26.27 0 47.632 21.361 47.632 47.632 0 26.36-21.361 47.632-47.632 47.632-26.36 0-47.631-21.271-47.631-47.632 0-26.27 21.27-47.632 47.631-47.632zm0 0" fill="url(#B)" stroke="#333" stroke-linecap="square" stroke-linejoin="bevel" stroke-width="3" transform="matrix(.04297 0 0 .04297 0 9.24)"/></svg>