<?xml version="1.0" encoding="UTF-8"?>
<svg xmlns="http://www.w3.org/2000/svg" xmlns:xlink="http://www.w3.org/1999/xlink" width="22pt" height="22pt" viewBox="0 0 22 22" version="1.1">
<defs>
<linearGradient id="linear0" gradientUnits="userSpaceOnUse" x1="254" y1="233.5" x2="254" y2="254.66667" gradientTransform="matrix(0.309405,0,0,0.0429729,-109.287555,9.239164)">
<stop offset="0" style="stop-color:rgb(0%,0%,0%);stop-opacity:0.27451;"/>
<stop offset="1" style="stop-color:rgb(0%,0%,0%);stop-opacity:0;"/>
</linearGradient>
<radialGradient id="radial0" gradientUnits="userSpaceOnUse" cx="450.90894" cy="189.57936" fx="450.90894" fy="189.57936" r="21.166656" gradientTransform="matrix(0.000000119742,-0.0537161,-0.0966889,-0.0000000698078,36.522014,43.721792)">
<stop offset="0" style="stop-color:rgb(0%,0%,0%);stop-opacity:0.313725;"/>
<stop offset="0.222222" style="stop-color:rgb(0%,0%,0%);stop-opacity:0.27451;"/>
<stop offset="1" style="stop-color:rgb(0%,0%,0%);stop-opacity:0;"/>
</radialGradient>
<radialGradient id="radial1" gradientUnits="userSpaceOnUse" cx="450.90894" cy="189.57936" fx="450.90894" fy="189.57936" r="21.166656" gradientTransform="matrix(-0.000000119742,0.0537161,0.0966889,0.0000000698078,-7.869864,-5.175142)">
<stop offset="0" style="stop-color:rgb(0%,0%,0%);stop-opacity:0.313725;"/>
<stop offset="0.222222" style="stop-color:rgb(0%,0%,0%);stop-opacity:0.27451;"/>
<stop offset="1" style="stop-color:rgb(0%,0%,0%);stop-opacity:0;"/>
</radialGradient>
<radialGradient id="radial2" gradientUnits="userSpaceOnUse" cx="450.90894" cy="189.57936" fx="450.90894" fy="189.57936" r="21.166656" gradientTransform="matrix(-0.000000119742,-0.0537161,0.0966889,-0.0000000698078,-7.869864,43.721792)">
<stop offset="0" style="stop-color:rgb(0%,0%,0%);stop-opacity:0.313725;"/>
<stop offset="0.222222" style="stop-color:rgb(0%,0%,0%);stop-opacity:0.27451;"/>
<stop offset="1" style="stop-color:rgb(0%,0%,0%);stop-opacity:0;"/>
</radialGradient>
<radialGradient id="radial3" gradientUnits="userSpaceOnUse" cx="450.90894" cy="189.57936" fx="450.90894" fy="189.57936" r="21.166656" gradientTransform="matrix(0.000000119742,0.0537161,-0.0966889,0.0000000698078,36.522013,-5.175142)">
<stop offset="0" style="stop-color:rgb(0%,0%,0%);stop-opacity:0.313725;"/>
<stop offset="0.222222" style="stop-color:rgb(0%,0%,0%);stop-opacity:0.27451;"/>
<stop offset="1" style="stop-color:rgb(0%,0%,0%);stop-opacity:0;"/>
</radialGradient>
<linearGradient id="linear1" gradientUnits="userSpaceOnUse" x1="169.33333" y1="233.5" x2="169.33333" y2="-31.083334" gradientTransform="matrix(0.0429729,0,0,0.0429729,6.821941,9.239163)">
<stop offset="0" style="stop-color:rgb(95.686275%,26.27451%,21.176471%);stop-opacity:1;"/>
<stop offset="1" style="stop-color:rgb(93.72549%,32.54902%,31.372549%);stop-opacity:1;"/>
</linearGradient>
<linearGradient id="linear2" gradientUnits="userSpaceOnUse" x1="-529.16669" y1="87.97892" x2="-529.16669" y2="-176.60442" gradientTransform="matrix(0.0429729,0,0,0.0429729,38.202867,15.037834)">
<stop offset="0" style="stop-color:rgb(87.843137%,87.843137%,87.843137%);stop-opacity:1;"/>
<stop offset="1" style="stop-color:rgb(93.333333%,93.333333%,93.333333%);stop-opacity:1;"/>
</linearGradient>
<linearGradient id="linear3" gradientUnits="userSpaceOnUse" x1="169.33333" y1="233.5" x2="169.33333" y2="-31.083334" gradientTransform="matrix(0.0429729,0,0,0.0429729,0.000000143243,3.099428)">
<stop offset="0" style="stop-color:rgb(14.901961%,65.098039%,60.392157%);stop-opacity:1;"/>
<stop offset="1" style="stop-color:rgb(30.196078%,71.372549%,67.45098%);stop-opacity:1;"/>
</linearGradient>
<linearGradient id="linear4" gradientUnits="userSpaceOnUse" x1="640" y1="1695.1182" x2="640" y2="695.1181" gradientTransform="matrix(0.0113699,0,0,0.0113699,-0.227398,-6.367134)">
<stop offset="0" style="stop-color:rgb(87.843137%,87.843137%,87.843137%);stop-opacity:1;"/>
<stop offset="1" style="stop-color:rgb(93.333333%,93.333333%,93.333333%);stop-opacity:1;"/>
</linearGradient>
</defs>
<g id="surface1">
<path style=" stroke:none;fill-rule:nonzero;fill:url(#linear0);" d="M 10.234375 19.207031 L 18.417969 19.207031 L 18.417969 20.214844 L 10.234375 20.214844 Z M 10.234375 19.207031 "/>
<path style=" stroke:none;fill-rule:nonzero;fill:url(#radial0);" d="M 18.417969 19.273438 L 20.238281 19.273438 L 20.238281 18.363281 L 18.417969 18.363281 Z M 18.417969 19.273438 "/>
<path style=" stroke:none;fill-rule:nonzero;fill:url(#radial1);" d="M 10.234375 19.273438 L 8.414062 19.273438 L 8.414062 20.183594 L 10.234375 20.183594 Z M 10.234375 19.273438 "/>
<path style=" stroke:none;fill-rule:nonzero;fill:url(#radial2);" d="M 10.234375 19.273438 L 8.414062 19.273438 L 8.414062 18.363281 L 10.234375 18.363281 Z M 10.234375 19.273438 "/>
<path style=" stroke:none;fill-rule:nonzero;fill:url(#radial3);" d="M 18.417969 19.273438 L 20.238281 19.273438 L 20.238281 20.183594 L 18.417969 20.183594 Z M 18.417969 19.273438 "/>
<path style=" stroke:none;fill-rule:nonzero;fill:url(#linear1);" d="M 9.550781 7.902344 L 19.101562 7.902344 C 19.605469 7.902344 20.011719 8.3125 20.011719 8.8125 L 20.011719 18.363281 C 20.011719 18.867188 19.605469 19.273438 19.101562 19.273438 L 9.550781 19.273438 C 9.046875 19.273438 8.640625 18.867188 8.640625 18.363281 L 8.640625 8.8125 C 8.640625 8.3125 9.046875 7.902344 9.550781 7.902344 Z M 9.550781 7.902344 "/>
<path style=" stroke:none;fill-rule:nonzero;fill:rgb(100%,100%,100%);fill-opacity:0.313725;" d="M 9.550781 7.902344 C 9.046875 7.902344 8.640625 8.308594 8.640625 8.8125 L 8.640625 9.039062 C 8.640625 8.535156 9.046875 8.128906 9.550781 8.128906 L 19.101562 8.128906 C 19.605469 8.128906 20.011719 8.535156 20.011719 9.039062 L 20.011719 8.8125 C 20.011719 8.308594 19.605469 7.902344 19.101562 7.902344 Z M 9.550781 7.902344 "/>
<path style=" stroke:none;fill-rule:nonzero;fill:rgb(0%,0%,0%);fill-opacity:0.235294;" d="M 8.640625 18.128906 L 8.640625 18.363281 C 8.640625 18.867188 9.046875 19.273438 9.550781 19.273438 L 19.101562 19.273438 C 19.605469 19.273438 20.011719 18.867188 20.011719 18.363281 L 20.011719 18.128906 C 20.011719 18.632812 19.605469 19.039062 19.101562 19.039062 L 9.550781 19.039062 C 9.046875 19.039062 8.640625 18.632812 8.640625 18.128906 Z M 8.640625 18.128906 "/>
<path style="fill:none;stroke-width:3;stroke-linecap:butt;stroke-linejoin:miter;stroke:rgb(12.941176%,12.941176%,12.941176%);stroke-opacity:1;stroke-miterlimit:4;" d="M 222.251503 -31.10847 L 444.503007 -31.10847 C 456.22916 -31.10847 465.682802 -21.563927 465.682802 -9.928674 L 465.682802 212.322829 C 465.682802 224.048982 456.22916 233.502625 444.503007 233.502625 L 222.251503 233.502625 C 210.52535 233.502625 201.071708 224.048982 201.071708 212.322829 L 201.071708 -9.928674 C 201.071708 -21.563927 210.52535 -31.10847 222.251503 -31.10847 Z M 222.251503 -31.10847 " transform="matrix(0.0429729,0,0,0.0429729,0,9.239163)"/>
<path style=" stroke:none;fill-rule:nonzero;fill:url(#linear2);" d="M 12.28125 9.269531 C 11.777344 9.269531 11.371094 9.671875 11.371094 10.175781 L 11.371094 16.089844 C 11.371094 16.59375 11.777344 17 12.28125 17 L 16.371094 17 C 16.875 17 17.28125 16.59375 17.28125 16.089844 L 17.28125 13.816406 C 17.28125 13.3125 16.875 12.90625 16.371094 12.90625 C 16.875 12.90625 17.28125 12.5 17.28125 11.996094 L 17.28125 10.175781 C 17.28125 9.671875 16.875 9.269531 16.371094 9.269531 Z M 13.1875 10.632812 L 15.464844 10.632812 C 15.714844 10.632812 15.917969 10.835938 15.917969 11.085938 L 15.917969 11.769531 C 15.917969 12.019531 15.714844 12.222656 15.464844 12.222656 L 13.1875 12.222656 C 12.9375 12.222656 12.734375 12.019531 12.734375 11.769531 L 12.734375 11.085938 C 12.734375 10.835938 12.9375 10.632812 13.1875 10.632812 Z M 13.1875 13.589844 L 15.464844 13.589844 C 15.714844 13.589844 15.917969 13.792969 15.917969 14.042969 L 15.917969 15.179688 C 15.917969 15.433594 15.714844 15.636719 15.464844 15.636719 L 13.1875 15.636719 C 12.9375 15.636719 12.734375 15.433594 12.734375 15.179688 L 12.734375 14.042969 C 12.734375 13.792969 12.9375 13.589844 13.1875 13.589844 Z M 13.1875 13.589844 "/>
<path style=" stroke:none;fill-rule:nonzero;fill:rgb(100%,100%,100%);fill-opacity:1;" d="M 12.28125 9.269531 C 11.777344 9.269531 11.371094 9.671875 11.371094 10.175781 L 11.371094 10.519531 C 11.371094 10.015625 11.777344 9.609375 12.28125 9.609375 L 16.371094 9.609375 C 16.875 9.609375 17.28125 10.015625 17.28125 10.519531 L 17.28125 10.175781 C 17.28125 9.671875 16.875 9.269531 16.371094 9.269531 Z M 12.734375 11.769531 L 12.734375 12.109375 C 12.734375 12.363281 12.9375 12.566406 13.1875 12.566406 L 15.464844 12.566406 C 15.714844 12.566406 15.917969 12.363281 15.917969 12.109375 L 15.917969 11.769531 C 15.917969 12.019531 15.714844 12.222656 15.464844 12.222656 L 13.1875 12.222656 C 12.9375 12.222656 12.734375 12.019531 12.734375 11.769531 Z M 16.902344 13.078125 C 16.753906 13.183594 16.570312 13.246094 16.371094 13.246094 C 16.875 13.246094 17.28125 13.652344 17.28125 14.15625 L 17.28125 13.816406 C 17.28125 13.511719 17.132812 13.242188 16.902344 13.078125 Z M 12.734375 15.179688 L 12.734375 15.519531 C 12.734375 15.773438 12.9375 15.976562 13.1875 15.976562 L 15.464844 15.976562 C 15.714844 15.976562 15.917969 15.773438 15.917969 15.519531 L 15.917969 15.179688 C 15.917969 15.433594 15.714844 15.636719 15.464844 15.636719 L 13.1875 15.636719 C 12.9375 15.636719 12.734375 15.433594 12.734375 15.179688 Z M 12.734375 15.179688 "/>
<path style=" stroke:none;fill-rule:nonzero;fill:rgb(0%,0%,0%);fill-opacity:0.235294;" d="M 13.1875 10.632812 C 12.9375 10.632812 12.734375 10.835938 12.734375 11.085938 L 12.734375 11.429688 C 12.734375 11.175781 12.9375 10.972656 13.1875 10.972656 L 15.464844 10.972656 C 15.714844 10.972656 15.917969 11.175781 15.917969 11.429688 L 15.917969 11.085938 C 15.917969 10.835938 15.714844 10.632812 15.464844 10.632812 Z M 17.28125 11.996094 C 17.28125 12.5 16.875 12.90625 16.371094 12.90625 C 16.570312 12.90625 16.753906 12.96875 16.902344 13.078125 C 17.132812 12.910156 17.28125 12.644531 17.28125 12.335938 Z M 13.1875 13.589844 C 12.9375 13.589844 12.734375 13.792969 12.734375 14.042969 L 12.734375 14.382812 C 12.734375 14.132812 12.9375 13.929688 13.1875 13.929688 L 15.464844 13.929688 C 15.714844 13.929688 15.917969 14.132812 15.917969 14.382812 L 15.917969 14.042969 C 15.917969 13.792969 15.714844 13.589844 15.464844 13.589844 Z M 11.371094 16.089844 L 11.371094 16.429688 C 11.371094 16.933594 11.777344 17.339844 12.28125 17.339844 L 16.371094 17.339844 C 16.875 17.339844 17.28125 16.933594 17.28125 16.429688 L 17.28125 16.089844 C 17.28125 16.59375 16.875 17 16.371094 17 L 12.28125 17 C 11.777344 17 11.371094 16.59375 11.371094 16.089844 Z M 11.371094 16.089844 "/>
<path style="fill:none;stroke-width:3;stroke-linecap:round;stroke-linejoin:round;stroke:rgb(12.941176%,12.941176%,12.941176%);stroke-opacity:1;stroke-miterlimit:4;" d="M -195.750778 -134.231319 C -207.476931 -134.231319 -216.930574 -124.868577 -216.930574 -113.142424 L -216.930574 24.480797 C -216.930574 36.20695 -207.476931 45.660593 -195.750778 45.660593 L -100.578048 45.660593 C -88.851895 45.660593 -79.398253 36.20695 -79.398253 24.480797 L -79.398253 -28.423242 C -79.398253 -40.149395 -88.851895 -49.603037 -100.578048 -49.603037 C -88.851895 -49.603037 -79.398253 -59.05668 -79.398253 -70.782833 L -79.398253 -113.142424 C -79.398253 -124.868577 -88.851895 -134.231319 -100.578048 -134.231319 Z M -174.661883 -102.507076 L -121.666944 -102.507076 C -115.849317 -102.507076 -111.122496 -97.780255 -111.122496 -91.962628 L -111.122496 -76.055057 C -111.122496 -70.23743 -115.849317 -65.510609 -121.666944 -65.510609 L -174.661883 -65.510609 C -180.479509 -65.510609 -185.20633 -70.23743 -185.20633 -76.055057 L -185.20633 -91.962628 C -185.20633 -97.780255 -180.479509 -102.507076 -174.661883 -102.507076 Z M -174.661883 -33.695465 L -121.666944 -33.695465 C -115.849317 -33.695465 -111.122496 -28.968644 -111.122496 -23.151018 L -111.122496 3.301002 C -111.122496 9.209528 -115.849317 13.93635 -121.666944 13.93635 L -174.661883 13.93635 C -180.479509 13.93635 -185.20633 9.209528 -185.20633 3.301002 L -185.20633 -23.151018 C -185.20633 -28.968644 -180.479509 -33.695465 -174.661883 -33.695465 Z M -174.661883 -33.695465 " transform="matrix(0.0429729,0,0,0.0429729,20.693219,15.037834)"/>
<path style=" stroke:none;fill-rule:nonzero;fill:url(#linear3);" d="M 2.730469 1.765625 L 12.28125 1.765625 C 12.78125 1.765625 13.1875 2.171875 13.1875 2.671875 L 13.1875 12.222656 C 13.1875 12.726562 12.78125 13.132812 12.28125 13.132812 L 2.730469 13.132812 C 2.226562 13.132812 1.820312 12.726562 1.820312 12.222656 L 1.820312 2.671875 C 1.820312 2.171875 2.226562 1.765625 2.730469 1.765625 Z M 2.730469 1.765625 "/>
<path style=" stroke:none;fill-rule:nonzero;fill:rgb(100%,100%,100%);fill-opacity:0.313725;" d="M 2.730469 1.765625 C 2.226562 1.765625 1.820312 2.167969 1.820312 2.671875 L 1.820312 2.902344 C 1.820312 2.398438 2.226562 1.992188 2.730469 1.992188 L 12.28125 1.992188 C 12.785156 1.992188 13.1875 2.398438 13.1875 2.902344 L 13.1875 2.671875 C 13.1875 2.167969 12.785156 1.765625 12.28125 1.765625 Z M 2.730469 1.765625 "/>
<path style=" stroke:none;fill-rule:nonzero;fill:rgb(0%,0%,0%);fill-opacity:0.235294;" d="M 1.820312 11.992188 L 1.820312 12.222656 C 1.820312 12.726562 2.226562 13.132812 2.730469 13.132812 L 12.28125 13.132812 C 12.785156 13.132812 13.1875 12.726562 13.1875 12.222656 L 13.1875 11.992188 C 13.1875 12.496094 12.785156 12.898438 12.28125 12.898438 L 2.730469 12.898438 C 2.226562 12.898438 1.820312 12.496094 1.820312 11.992188 Z M 1.820312 11.992188 "/>
<path style="fill:none;stroke-width:3;stroke-linecap:butt;stroke-linejoin:miter;stroke:rgb(12.941176%,12.941176%,12.941176%);stroke-opacity:1;stroke-miterlimit:4;" d="M 63.539387 -173.913015 L 285.79089 -173.913015 C 297.426143 -173.913015 306.879785 -164.459372 306.879785 -152.824119 L 306.879785 69.427384 C 306.879785 81.153537 297.426143 90.60718 285.79089 90.60718 L 63.539387 90.60718 C 51.813234 90.60718 42.359591 81.153537 42.359591 69.427384 L 42.359591 -152.824119 C 42.359591 -164.459372 51.813234 -173.913015 63.539387 -173.913015 Z M 63.539387 -173.913015 " transform="matrix(0.0429729,0,0,0.0429729,0,9.239163)"/>
<path style=" stroke:none;fill-rule:nonzero;fill:url(#linear4);" d="M 5.230469 3.355469 C 4.726562 3.355469 4.320312 3.761719 4.320312 4.265625 L 4.320312 10.859375 L 5.683594 10.859375 L 5.683594 8.359375 L 8.867188 8.359375 L 8.867188 10.859375 L 10.234375 10.859375 L 10.234375 4.265625 C 10.234375 3.761719 9.828125 3.355469 9.324219 3.355469 Z M 6.140625 4.71875 L 8.414062 4.71875 C 8.664062 4.71875 8.867188 4.921875 8.867188 5.175781 L 8.867188 6.992188 L 5.683594 6.992188 L 5.683594 5.175781 C 5.683594 4.921875 5.886719 4.71875 6.140625 4.71875 Z M 6.140625 4.71875 "/>
<path style=" stroke:none;fill-rule:nonzero;fill:rgb(97.647059%,97.647059%,97.647059%);fill-opacity:1;" d="M 5.230469 3.355469 C 4.726562 3.355469 4.320312 3.761719 4.320312 4.265625 L 4.320312 4.605469 C 4.320312 4.101562 4.726562 3.695312 5.230469 3.695312 L 9.324219 3.695312 C 9.828125 3.695312 10.234375 4.101562 10.234375 4.605469 L 10.234375 4.265625 C 10.234375 3.761719 9.828125 3.355469 9.324219 3.355469 Z M 5.683594 6.992188 L 5.683594 7.335938 L 8.867188 7.335938 L 8.867188 6.992188 Z M 5.683594 6.992188 "/>
<path style=" stroke:none;fill-rule:nonzero;fill:rgb(0%,0%,0%);fill-opacity:0.235294;" d="M 6.140625 4.71875 C 5.886719 4.71875 5.683594 4.921875 5.683594 5.175781 L 5.683594 5.515625 C 5.683594 5.265625 5.886719 5.0625 6.140625 5.0625 L 8.414062 5.0625 C 8.664062 5.0625 8.867188 5.265625 8.867188 5.515625 L 8.867188 5.175781 C 8.867188 4.921875 8.664062 4.71875 8.414062 4.71875 Z M 5.683594 8.359375 L 5.683594 8.699219 L 8.867188 8.699219 L 8.867188 8.359375 Z M 4.320312 10.859375 L 4.320312 11.199219 L 5.683594 11.199219 L 5.683594 10.859375 Z M 8.867188 10.859375 L 8.867188 11.199219 L 10.234375 11.199219 L 10.234375 10.859375 Z M 8.867188 10.859375 "/>
<path style="fill:none;stroke-width:3;stroke-linecap:butt;stroke-linejoin:miter;stroke:rgb(12.941176%,12.941176%,12.941176%);stroke-opacity:1;stroke-miterlimit:4;" d="M 285.757319 11.249872 C 274.031167 11.249872 264.577524 20.703515 264.577524 32.429668 L 264.577524 185.869561 L 296.301767 185.869561 L 296.301767 127.693298 L 370.385602 127.693298 L 370.385602 185.869561 L 402.200745 185.869561 L 402.200745 32.429668 C 402.200745 20.703515 392.747102 11.249872 381.02095 11.249872 Z M 306.937115 42.974116 L 359.841154 42.974116 C 365.65878 42.974116 370.385602 47.700937 370.385602 53.609464 L 370.385602 95.878155 L 296.301767 95.878155 L 296.301767 53.609464 C 296.301767 47.700937 301.028588 42.974116 306.937115 42.974116 Z M 306.937115 42.974116 " transform="matrix(0.0429729,0,0,0.0429729,-7.049339,2.87203)"/>
</g>
</svg>
