<svg xmlns="http://www.w3.org/2000/svg" width="22pt" height="22pt" viewBox="0 0 22 22"><defs><linearGradient id="a" gradientUnits="userSpaceOnUse" x1="254" y1="233.5" x2="254" y2="254.667" gradientTransform="matrix(.04297 0 0 .04297 .91 9.24)"><stop offset="0" stop-opacity=".275"/><stop offset="1" stop-opacity="0"/></linearGradient><radialGradient id="b" gradientUnits="userSpaceOnUse" cx="450.909" cy="189.579" fx="450.909" fy="189.579" r="21.167" gradientTransform="matrix(0 -.05372 -.09669 0 29.018 43.722)"><stop offset="0" stop-opacity=".314"/><stop offset=".222" stop-opacity=".275"/><stop offset="1" stop-opacity="0"/></radialGradient><radialGradient id="c" gradientUnits="userSpaceOnUse" cx="450.909" cy="189.579" fx="450.909" fy="189.579" r="21.167" gradientTransform="matrix(0 .05372 .09669 0 -7.87 -5.175)"><stop offset="0" stop-opacity=".314"/><stop offset=".222" stop-opacity=".275"/><stop offset="1" stop-opacity="0"/></radialGradient><radialGradient id="d" gradientUnits="userSpaceOnUse" cx="450.909" cy="189.579" fx="450.909" fy="189.579" r="21.167" gradientTransform="matrix(0 -.05372 .09669 0 -7.87 43.722)"><stop offset="0" stop-opacity=".314"/><stop offset=".222" stop-opacity=".275"/><stop offset="1" stop-opacity="0"/></radialGradient><radialGradient id="e" gradientUnits="userSpaceOnUse" cx="450.909" cy="189.579" fx="450.909" fy="189.579" r="21.167" gradientTransform="matrix(0 .05372 -.09669 0 29.018 -5.175)"><stop offset="0" stop-opacity=".314"/><stop offset=".222" stop-opacity=".275"/><stop offset="1" stop-opacity="0"/></radialGradient><linearGradient id="f" gradientUnits="userSpaceOnUse" x1="254" y1="233.5" x2="254" y2="-168.667" gradientTransform="matrix(.04297 0 0 .04297 0 9.24)"><stop offset="0" stop-color="#ab47bc"/><stop offset="1" stop-color="#ef5350"/></linearGradient><linearGradient id="g" gradientUnits="userSpaceOnUse" x1="960" y1="1255.118" x2="960" y2="695.118"><stop offset="0" stop-color="#e0e0e0"/><stop offset="1" stop-color="#bdbdbd"/></linearGradient></defs><path d="M10.234 19.207h.68v1.008h-.68zm0 0" fill="url(#a)"/><path d="M10.914 19.273h1.82v-.91h-1.82zm0 0" fill="url(#b)"/><path d="M10.234 19.273h-1.82v.91h1.82zm0 0" fill="url(#c)"/><path d="M10.234 19.273h-1.82v-.91h1.82zm0 0" fill="url(#d)"/><path d="M10.914 19.273h1.82v.91h-1.82zm0 0" fill="url(#e)"/><path d="M1.82 12.453c0-4.324 8.64-15.465 18.192-7.734 1.82 16.828-14.555 18.648-18.192 7.734zm0 0" fill="url(#f)"/><path d="M640.053 695.023c-22.331 0-40.196 17.865-40.196 40.197v479.954c0 21.988 17.865 39.853 40.196 39.853h80.05c21.988 0 39.853-17.865 39.853-39.853V855.122H879.86v360.052c0 21.988 17.865 39.853 40.196 39.853h80.05c21.988 0 39.853-17.865 39.853-39.853V855.122h119.903v360.052c0 21.988 17.865 39.853 40.196 39.853h80.05c21.988 0 39.853-17.865 39.853-39.853V775.073c0-44.32-35.73-80.05-80.05-80.05zm0 0" transform="rotate(.24) scale(.01137)" fill="url(#g)" stroke-width="11.339" stroke-linecap="round" stroke-linejoin="round" stroke="#212121"/><path d="M13.242 2.059C6.73 2.059 1.82 9.195 1.82 12.453c0 .008.004.016.008.027C2.145 7.996 10.641-2.586 20.012 5a24.5 24.5 0 0 1 .14 2.383c.004-.844-.039-1.73-.14-2.664-2.352-1.903-4.645-2.66-6.77-2.66zm0 0" fill="#fff" fill-opacity=".392"/><path d="M20.152 7.07c-.117 14.285-14.863 15.344-18.32 5.082a3.947 3.947 0 0 0-.012.301c3.461 10.383 18.446 9.242 18.332-5.383zm0 0" fill-opacity=".235"/><path d="M13.137 1.992c-2.168.028-4.157.836-5.84 2.02-1.688 1.187-3.07 2.75-4.031 4.289-.965 1.535-1.512 3.05-1.512 4.152v.008l.004.012c1.828 5.484 6.867 7.78 11.222 6.578 4.352-1.203 8.008-5.903 7.094-14.336v-.027l-.023-.02c-2.395-1.938-4.742-2.7-6.914-2.676zm.004.13c2.129-.024 4.437.718 6.808 2.632.899 8.375-2.722 12.988-7.004 14.172-4.285 1.183-9.25-1.063-11.062-6.485.004-1.058.539-2.554 1.492-4.074.953-1.523 2.328-3.074 3.996-4.25 1.668-1.172 3.633-1.969 5.77-1.996zm0 0" fill="#212121"/></svg>