<svg xmlns="http://www.w3.org/2000/svg" width="22pt" height="22pt" viewBox="0 0 22 22"><defs><linearGradient id="a" gradientUnits="userSpaceOnUse" x1="179.917" y1="117.083" x2="179.917" y2="53.583" gradientTransform="matrix(.04297 0 0 .04297 0 9.24)"><stop offset="0" stop-color="#bdbdbd"/><stop offset="1" stop-color="#e0e0e0"/></linearGradient><radialGradient id="b" gradientUnits="userSpaceOnUse" cx="450.909" cy="189.579" fx="450.909" fy="189.579" r="21.167" gradientTransform="matrix(0 -.05372 -.05801 0 22.732 43.722)"><stop offset="0" stop-opacity=".314"/><stop offset=".222" stop-opacity=".275"/><stop offset="1" stop-opacity="0"/></radialGradient><radialGradient id="c" gradientUnits="userSpaceOnUse" cx="450.909" cy="189.579" fx="450.909" fy="189.579" r="21.167" gradientTransform="matrix(0 .05372 .05801 0 -.902 -5.175)"><stop offset="0" stop-opacity=".314"/><stop offset=".222" stop-opacity=".275"/><stop offset="1" stop-opacity="0"/></radialGradient><radialGradient id="d" gradientUnits="userSpaceOnUse" cx="450.909" cy="189.579" fx="450.909" fy="189.579" r="21.167" gradientTransform="matrix(0 -.05372 .05801 0 -.902 43.722)"><stop offset="0" stop-opacity=".314"/><stop offset=".222" stop-opacity=".275"/><stop offset="1" stop-opacity="0"/></radialGradient><radialGradient id="e" gradientUnits="userSpaceOnUse" cx="450.909" cy="189.579" fx="450.909" fy="189.579" r="21.167" gradientTransform="matrix(0 .05372 -.05801 0 22.732 -5.175)"><stop offset="0" stop-opacity=".314"/><stop offset=".222" stop-opacity=".275"/><stop offset="1" stop-opacity="0"/></radialGradient><linearGradient id="f" gradientUnits="userSpaceOnUse" x1="255.323" y1="233.5" x2="255.323" y2="254.667" gradientTransform="matrix(.00551 0 0 .04297 9.508 9.24)"><stop offset="0" stop-opacity=".275"/><stop offset="1" stop-opacity="0"/></linearGradient><linearGradient id="g" gradientUnits="userSpaceOnUse" x1="148.167" y1="233.5" x2="148.167" y2="-168.667" gradientTransform="matrix(.04297 0 0 .04297 0 9.24)"><stop offset="0" stop-color="#78909c"/><stop offset="1" stop-color="#90a4ae"/></linearGradient><linearGradient id="h" gradientUnits="userSpaceOnUse" x1="179.917" y1="117.083" x2="179.917" y2="53.583" gradientTransform="matrix(-.04297 0 0 .04297 21.83 9.24)"><stop offset="0" stop-color="#bdbdbd"/><stop offset="1" stop-color="#e0e0e0"/></linearGradient><linearGradient id="i" gradientUnits="userSpaceOnUse" x1="148.167" y1="233.5" x2="148.167" y2="-168.667" gradientTransform="matrix(-.04297 0 0 .04297 21.83 9.24)"><stop offset="0" stop-color="#78909c"/><stop offset="1" stop-color="#90a4ae"/></linearGradient><linearGradient id="j" gradientUnits="userSpaceOnUse" x1="960" y1="1695.118" x2="960" y2="175.118" gradientTransform="rotate(.24) scale(.01137)"><stop offset="0" stop-color="#78909c"/><stop offset="1" stop-color="#90a4ae"/></linearGradient><linearGradient id="k" gradientUnits="userSpaceOnUse" x1="301.625" y1="-15.208" x2="301.625" y2="-36.375" gradientTransform="matrix(.04297 0 0 .04297 -4.093 9.24)"><stop offset="0" stop-color="#455a64"/><stop offset="1" stop-color="#90a4ae"/></linearGradient><linearGradient id="l" gradientUnits="userSpaceOnUse" x1="301.625" y1="-15.208" x2="301.625" y2="-36.375" gradientTransform="matrix(-.04297 0 0 .04297 25.923 9.24)"><stop offset="0" stop-color="#455a64"/><stop offset="1" stop-color="#90a4ae"/></linearGradient></defs><path d="M9.063 9.781a.254.254 0 0 0-.227.125c.125.114.254.246.371.403.242.32.434.714.586 1.246.055-.078.105-.157.16-.235a.263.263 0 0 0 .008-.277l-.684-1.137a.265.265 0 0 0-.214-.125zm-.813 1.586c-.488.91-1.168 1.645-2.04 2.078-.241.125-.155.492.118.492.875 0 1.64-.414 2.313-1.03-.106-.774-.246-1.247-.391-1.54zm0 0" fill="url(#a)"/><path d="M8.96 9.8a.254.254 0 0 0-.124.106c.125.114.254.246.371.403.242.32.434.714.586 1.246.055-.078.105-.157.16-.235a.255.255 0 0 0 .016-.258.117.117 0 0 1-.016.032c-.055.078-.105.156-.16.234-.152-.531-.344-.926-.586-1.246-.078-.105-.16-.2-.246-.281zm-.347 2.907c-.668.602-1.425 1-2.285 1a.252.252 0 0 1-.234-.145c-.074.157.023.376.234.376.875 0 1.64-.415 2.313-1.032-.008-.07-.02-.136-.028-.199zm0 0" fill-opacity=".235"/><path d="M9.063 9.781a.254.254 0 0 0-.227.125c.043.04.082.078.125.121a.293.293 0 0 1 .101-.02c.09.005.168.052.215.126l.684 1.137c.004.007.004.015.008.02a.262.262 0 0 0-.008-.247l-.684-1.137a.265.265 0 0 0-.214-.125zm-.813 1.586c-.488.91-1.168 1.645-2.04 2.078a.258.258 0 0 0-.116.344.254.254 0 0 1 .117-.113c.871-.438 1.55-1.172 2.039-2.082.129.27.258.683.363 1.34l.028-.028c-.106-.773-.246-1.246-.391-1.539zm0 0" fill="#e5e5e5"/><path d="M9.063 9.781a.254.254 0 0 0-.227.125c.125.114.254.246.371.403.242.32.434.714.586 1.246.055-.078.105-.157.16-.235a.263.263 0 0 0 .008-.277l-.684-1.137a.265.265 0 0 0-.214-.125zm-.813 1.586c-.488.91-1.168 1.645-2.04 2.078-.241.125-.155.493.118.493.875 0 1.64-.415 2.313-1.032-.106-.773-.246-1.246-.391-1.539zm0 0" fill="none" stroke-width=".12891" stroke-linecap="round" stroke-linejoin="round" stroke="#212121"/><path d="M11.871 19.273h1.09v-.91h-1.09zm0 0" fill="url(#b)"/><path d="M9.96 19.273H8.868v.91h1.094zm0 0" fill="url(#c)"/><path d="M9.96 19.273H8.868v-.91h1.094zm0 0" fill="url(#d)"/><path d="M11.871 19.273h1.09v.91h-1.09zm0 0" fill="url(#e)"/><path d="M9.96 19.047h1.911v1.137h-1.91zm0 0" fill="url(#f)"/><path d="M3.637 2.902c2.73 0 5.336.672 5.46 4.547-.57 2.149-1.82 5.457-4.55 5.457-.91 0-.91-3.636-1.817-5.004-.91-2.273-2.054-5.218.907-5zm0 0" fill="url(#g)"/><path d="M3.309 2.89c-1.258.008-1.63.704-1.575 1.665.055-.852.551-1.414 1.903-1.313 2.66 0 5.203.64 5.445 4.258.004-.016.008-.035.016-.05-.125-3.876-2.73-4.548-5.461-4.548a2.345 2.345 0 0 0-.328-.011zm0 0" fill="#fff" fill-opacity=".235"/><path d="M3.637 2.902c2.73 0 5.336.672 5.46 4.547-.57 2.149-1.82 5.457-4.55 5.457-.91 0-.91-3.636-1.817-5.004-.91-2.273-2.054-5.218.907-5zm0 0" fill="none" stroke-width=".12891" stroke-linecap="round" stroke-linejoin="round" stroke="#212121"/><path d="M1.73 4.3c-.027 1.013.516 2.403 1 3.602.907 1.368.907 5.004 1.817 5.004 2.73 0 3.98-3.308 4.55-5.457-.003-.047-.003-.097-.007-.144-.57 2.152-1.824 5.437-4.543 5.437-.91 0-.91-3.637-1.817-5.004-.457-1.136-.972-2.445-1-3.437zm0 0" fill-opacity=".235"/><path d="M12.766 9.781a.256.256 0 0 1 .23.125 2.883 2.883 0 0 0-.375.403c-.238.32-.434.714-.582 1.246-.055-.078-.11-.157-.16-.235a.255.255 0 0 1-.008-.277l.684-1.137a.259.259 0 0 1 .21-.125zm.816 1.586c.484.91 1.168 1.645 2.035 2.078.242.125.156.492-.113.492-.875 0-1.645-.414-2.316-1.03.109-.774.25-1.247.394-1.54zm0 0" fill="url(#h)"/><path d="M12.867 9.8c.055.02.098.06.13.106a2.883 2.883 0 0 0-.376.403c-.238.32-.434.714-.582 1.246-.055-.078-.11-.157-.16-.235a.255.255 0 0 1-.02-.258l.02.032c.05.078.105.156.16.234.149-.531.344-.926.582-1.246.082-.105.164-.2.246-.281zm.352 2.907c.664.602 1.422 1 2.285 1a.246.246 0 0 0 .23-.145c.079.157-.023.376-.23.376-.875 0-1.645-.415-2.316-1.032.011-.07.019-.136.03-.199zm0 0" fill-opacity=".235"/><path d="M12.766 9.781a.256.256 0 0 1 .23.125 3.66 3.66 0 0 0-.129.121.293.293 0 0 0-.101-.02.259.259 0 0 0-.211.126l-.684 1.137a.085.085 0 0 1-.012.02.252.252 0 0 1 .012-.247l.684-1.137a.259.259 0 0 1 .21-.125zm.816 1.586c.484.91 1.168 1.645 2.035 2.078a.255.255 0 0 1 .117.344.237.237 0 0 0-.117-.113c-.867-.438-1.55-1.172-2.035-2.082-.133.27-.262.683-.363 1.34-.012-.008-.02-.02-.031-.028.109-.773.25-1.246.394-1.539zm0 0" fill="#e5e5e5"/><path d="M12.766 9.781a.256.256 0 0 1 .23.125 2.883 2.883 0 0 0-.375.403c-.238.32-.434.714-.582 1.246a8.329 8.329 0 0 1-.16-.235.255.255 0 0 1-.008-.277l.684-1.137a.259.259 0 0 1 .21-.125zm.816 1.586c.484.91 1.168 1.645 2.035 2.078.242.125.156.493-.113.493-.875 0-1.645-.415-2.317-1.032.11-.773.25-1.246.395-1.539zm0 0" fill="none" stroke-width=".12891" stroke-linecap="round" stroke-linejoin="round" stroke="#212121"/><path d="M18.191 2.902c-2.726 0-5.332.672-5.457 4.547.57 2.149 1.82 5.457 4.547 5.457.91 0 .91-3.636 1.82-5.004.91-2.273 2.055-5.218-.91-5zm0 0" fill="url(#i)"/><path d="M18.52 2.89c1.261.008 1.628.704 1.574 1.665-.055-.852-.551-1.414-1.903-1.313-2.66 0-5.199.64-5.441 4.258-.008-.016-.012-.035-.016-.05.125-3.876 2.73-4.548 5.457-4.548.118-.011.227-.015.329-.011zm0 0" fill="#fff" fill-opacity=".235"/><path d="M18.191 2.902c-2.726 0-5.332.672-5.457 4.547.57 2.149 1.82 5.457 4.547 5.457.91 0 .91-3.636 1.82-5.004.91-2.273 2.055-5.218-.91-5zm0 0" fill="none" stroke-width=".12891" stroke-linecap="round" stroke-linejoin="round" stroke="#212121"/><path d="M20.098 4.3c.03 1.013-.516 2.403-.996 3.602-.91 1.368-.91 5.004-1.82 5.004-2.727 0-3.977-3.308-4.548-5.457 0-.047.004-.097.004-.144.575 2.152 1.825 5.437 4.543 5.437.91 0 .91-3.637 1.82-5.004.458-1.136.97-2.445.997-3.437zm0 0" fill-opacity=".235"/><path d="M10.914 1.992c-5.91 0-5.894 6.762-4.547 8.64 1.363 1.821 2.73 0 2.73 7.278 0 .754.81 1.363 1.817 1.363 1.008 0 1.82-.609 1.82-1.363 0-7.277 1.364-5.457 2.73-7.277 1.348-1.88 1.364-8.64-4.55-8.64zm0 0" fill="url(#j)"/><path d="M10.914 1.992c-4.082 0-5.336 3.223-5.281 5.836.058-2.543 1.375-5.496 5.281-5.496 3.906 0 5.227 2.953 5.281 5.496.059-2.613-1.199-5.836-5.28-5.836zm0 0" fill="#fff" fill-opacity=".392"/><path d="M5.637 7.465c-.035 1.316.27 2.527.73 3.168 1.363 1.82 2.73 0 2.73 7.277 0 .754.81 1.363 1.817 1.363 1.008 0 1.82-.609 1.82-1.363 0-7.277 1.364-5.457 2.73-7.277.458-.64.763-1.852.731-3.168-.03 1.16-.316 2.2-.73 2.777-1.367 1.82-2.73 0-2.73 7.278 0 .757-.813 1.363-1.82 1.363-1.009 0-1.817-.606-1.817-1.363 0-7.278-1.368-5.457-2.73-7.278-.415-.578-.704-1.617-.731-2.777zm0 0" fill-opacity=".235"/><path d="M10.914 1.992c-5.91 0-5.894 6.762-4.547 8.64 1.363 1.821 2.73 0 2.73 7.278 0 .754.81 1.363 1.817 1.363 1.008 0 1.82-.609 1.82-1.363 0-7.277 1.364-5.457 2.73-7.277 1.348-1.88 1.364-8.64-4.55-8.64zm0 0" fill="none" stroke-width=".12892443" stroke-linecap="round" stroke-linejoin="round" stroke="#212121"/><path d="M9.777 13.816c.457-.457 1.82-.457 2.274 0M9.777 12.453c.457-.457 1.82-.457 2.274 0" fill="none" stroke-width=".21485" stroke-linecap="round" stroke-linejoin="round" stroke="#000" stroke-opacity=".392"/><path d="M8.188 7.902a.681.681 0 1 0 1.363 0c0-.41-.446-.136-.684-.136-.312.02-.68-.274-.68.136zm0 0" fill="url(#k)"/><path d="M8.188 7.902a.681.681 0 1 0 1.363 0c0-.41.008.227-.227.227-.312.02-1.136-.637-1.136-.227zm0 0" fill="none" stroke-width=".12891" stroke-linecap="round" stroke-linejoin="round" stroke="#212121"/><path d="M8.867 9.04c.457 0 1.137-.454 1.137-.911M12.961 9.04c-.453 0-1.137-.454-1.137-.911M9.777 13.133c.457-.453 1.82-.453 2.274 0" fill="none" stroke-width=".21485" stroke-linecap="round" stroke-linejoin="round" stroke="#000" stroke-opacity=".392"/><path d="M13.645 7.902a.682.682 0 1 1-1.364 0c0-.41.446-.136.68-.136.312.02.684-.274.684.136zm0 0" fill="url(#l)"/><path d="M13.645 7.902a.682.682 0 1 1-1.364 0c0-.41-.008.227.227.227.312.02 1.137-.637 1.137-.227zm0 0" fill="none" stroke-width=".12891" stroke-linecap="round" stroke-linejoin="round" stroke="#212121"/></svg>