<svg height="22" viewBox="0 0 22 22" width="22" xmlns="http://www.w3.org/2000/svg" xmlns:xlink="http://www.w3.org/1999/xlink"><linearGradient id="a"><stop offset="0" stop-opacity=".313726"/><stop offset=".222222" stop-opacity=".27451"/><stop offset="1" stop-opacity="0"/></linearGradient><radialGradient id="b" cx="450.908936" cy="189.579361" gradientTransform="matrix(.00000012 -.0537161 -.0966889 -.00000007 36.976812 44.062888)" gradientUnits="userSpaceOnUse" r="21.166656" xlink:href="#a"/><radialGradient id="c" cx="450.908936" cy="189.579361" gradientTransform="matrix(-.00000012 .0537161 .0966889 .00000007 .543864 -4.834045)" gradientUnits="userSpaceOnUse" r="21.166656" xlink:href="#a"/><radialGradient id="d" cx="450.908936" cy="189.579361" gradientTransform="matrix(-.00000012 -.0537161 .0966889 -.00000007 .543864 44.062888)" gradientUnits="userSpaceOnUse" r="21.166656" xlink:href="#a"/><radialGradient id="e" cx="450.908936" cy="189.579361" gradientTransform="matrix(.00000012 .0537161 -.0966889 .00000007 36.976811 -4.834046)" gradientUnits="userSpaceOnUse" r="21.166656" xlink:href="#a"/><linearGradient id="f" gradientTransform="matrix(.00918504 0 0 .0429729 13.68641 9.580262)" gradientUnits="userSpaceOnUse" x1="255.323059" x2="255.323044" y1="233.5" y2="254.666656"><stop offset="0" stop-opacity=".27451"/><stop offset="1" stop-opacity="0"/></linearGradient><linearGradient id="g" gradientTransform="matrix(.0303864 -.0303864 .0303864 .0303864 2.21172 17.365408)" gradientUnits="userSpaceOnUse" x1="224.070801" x2="444.835419" y1="294.342865" y2="66.094696"><stop offset="0" stop-color="#bdbdbd"/><stop offset="1" stop-color="#e0e0e0"/></linearGradient><linearGradient id="h" gradientTransform="matrix(.0303864 -.0303864 .0303864 .0303864 1.221709 16.375397)" gradientUnits="userSpaceOnUse" x1="96.850502" x2="411.159454" y1="222.153946" y2="-92.155022"><stop offset="0" stop-color="#424242"/><stop offset="1" stop-color="#616161"/></linearGradient><path d="m18.875 19.613281h1.816406v-.910156h-1.816406zm0 0" fill="url(#b)"/><path d="m18.648438 19.613281h-1.820313v.910157h1.820313zm0 0" fill="url(#c)"/><path d="m18.648438 19.613281h-1.820313v-.910156h1.820313zm0 0" fill="url(#d)"/><path d="m18.875 19.613281h1.816406v.910157h-1.816406zm0 0" fill="url(#e)"/><path d="m18.648438 19.613281h.226562v.910157h-.226562zm0 0" fill="url(#f)"/><path d="m11.273438 10.992188c.355468-.355469.933593-.355469 1.285156 0l7.078125 7.074218c.355469.355469.355469.929688 0 1.285156-.355469.355469-.933594.355469-1.289063 0l-7.074218-7.074218c-.355469-.355469-.355469-.929688 0-1.285156zm0 0" fill="url(#g)"/><path d="m11.023438 11.460938c-.054688.285156.027343.59375.25.816406l7.074218 7.074218c.359375.359376.929688.359376 1.289063 0 .222656-.222656.304687-.527343.25-.816406-.035157.171875-.117188.339844-.25.472656-.359375.355469-.929688.355469-1.289063 0l-7.074218-7.074218c-.132813-.136719-.214844-.300782-.25-.472656zm0 0" fill-opacity=".235294"/><path d="m11.917969 10.722656c-.234375 0-.464844.089844-.644531.269532-.214844.214843-.300782.507812-.253907.785156.027344-.183594.113281-.359375.253907-.503906.355468-.355469.929687-.355469 1.285156 0l7.078125 7.078124c.140625.140626.226562.316407.253906.5.042969-.277343-.039063-.570312-.253906-.785156l-7.078125-7.074218c-.175782-.179688-.410156-.269532-.640625-.269532zm0 0" fill="#fff" fill-opacity=".392157"/><path d="m156.655851 214.346933c11.698286 0 21.211178 9.512891 21.146902 21.146901l.064276 232.873023c0 11.698286-9.448615 21.146901-21.146901 21.146901s-21.211178-9.512892-21.211178-21.211178v-232.808746c0-11.698286 9.448615-21.146901 21.146901-21.146901zm0 0" fill="none" stroke="#212121" stroke-linecap="round" stroke-linejoin="round" stroke-width="3" transform="matrix(.0303864 -.0303864 .0303864 .0303864 0 9.239163)"/><path d="m2.210938 1.898438c-.144532.128906-.191407.332031-.125.515624l5.46875 14.46875c.140624.375.65625.414063.851562.0625l3.152344-5.667968 5.671875-3.152344c.347656-.195312.3125-.710938-.0625-.851562l-14.472657-5.46875c-.167968-.0625-.351562-.027344-.484374.09375zm0 0" fill="url(#h)"/><path d="m2.535156 1.773438c-.117187 0-.234375.042968-.324218.125-.136719.121093-.1875.3125-.132813.488281.023437-.078125.070313-.152344.132813-.210938.089843-.082031.207031-.125.324218-.121093.054688 0 .109375.011718.160156.03125l14.472657 5.464843c.148437.058594.242187.171875.28125.300781.070312-.222656-.03125-.484374-.28125-.578124l-14.472657-5.46875c-.050781-.019532-.105468-.03125-.160156-.03125zm0 0" fill="#fff" fill-opacity=".392157"/><path d="m12.351562 10.835938-.792968.441406-.441406.792968c.042968.074219.09375.144532.15625.207032l.285156-.507813 1.144531-.636719-.144531-.140624c-.0625-.0625-.132813-.117188-.207032-.15625zm0 0" fill-opacity=".235294"/><path d="m2.15625 1.953125c-.097656.128906-.128906.304687-.070312.460937l5.46875 14.46875c.140624.375.65625.414063.851562.0625l3.152344-5.667968 5.671875-3.152344c.28125-.15625.3125-.523438.117187-.734375-.035156.035156-.074218.066406-.117187.089844l-5.671875 3.152343-3.152344 5.671876c-.195312.347656-.710938.3125-.851562-.0625zm0 0" fill-opacity=".235294"/><g fill="none" stroke-linecap="round" stroke-linejoin="round"><path d="m156.655851 214.346933c11.698286 0 21.211178 9.512891 21.146902 21.146901l.064276 232.873023c0 11.698286-9.448615 21.146901-21.146901 21.146901s-21.211178-9.512892-21.211178-21.211178v-232.808746c0-11.698286 9.448615-21.146901 21.146901-21.146901zm0 0" stroke="#e0e0e0" stroke-width=".023813" transform="matrix(.0303864 -.0303864 .0303864 .0303864 0 9.239163)"/><path d="m51.449632-170.822401c-3.363315 2.999714-4.45412 7.726535-2.908813 11.998855l127.260575 336.69512c3.272414 8.726439 15.271269 9.635443 19.816289 1.454406l73.356631-131.896495 131.987396-73.356631c8.090137-4.545021 7.272033-16.543875-1.454406-19.81629l-336.786021-127.260574c-3.908718-1.454407-8.181037-.636303-11.271651 2.181609zm0 0" stroke="#e0e0e0" stroke-width=".174228" transform="matrix(.0429729 0 0 .0429729 0 9.239163)"/><path d="m51.449632-170.822401c-3.363315 2.999714-4.45412 7.726535-2.908813 11.998855l127.260575 336.69512c3.272414 8.726439 15.271269 9.635443 19.816289 1.454406l73.356631-131.896495 131.987396-73.356631c8.090137-4.545021 7.272033-16.543875-1.454406-19.81629l-336.786021-127.260574c-3.908718-1.454407-8.181037-.636303-11.271651 2.181609zm0 0" stroke="#212121" stroke-width="3" transform="matrix(.0429729 0 0 .0429729 0 9.239163)"/></g></svg>