<svg height="22" viewBox="0 0 22 22" width="22" xmlns="http://www.w3.org/2000/svg" xmlns:xlink="http://www.w3.org/1999/xlink"><linearGradient id="a"><stop offset="0" stop-opacity=".313726"/><stop offset=".222222" stop-opacity=".27451"/><stop offset="1" stop-opacity="0"/></linearGradient><radialGradient id="b" cx="450.908936" cy="189.579361" gradientTransform="matrix(.00000012 -.0537161 -.0966889 -.00000007 30.609667 43.721789)" gradientUnits="userSpaceOnUse" r="21.166656" xlink:href="#a"/><radialGradient id="c" cx="450.908936" cy="189.579361" gradientTransform="matrix(-.00000012 .0537161 .0966889 .00000007 -8.779457 -5.175144)" gradientUnits="userSpaceOnUse" r="21.166656" xlink:href="#a"/><radialGradient id="d" cx="450.908936" cy="189.579361" gradientTransform="matrix(-.00000012 -.0537161 .0966889 -.00000007 -8.779457 43.721789)" gradientUnits="userSpaceOnUse" r="21.166656" xlink:href="#a"/><radialGradient id="e" cx="450.908936" cy="189.579361" gradientTransform="matrix(.00000012 .0537161 -.0966889 .00000007 30.609666 -5.175144)" gradientUnits="userSpaceOnUse" r="21.166656" xlink:href="#a"/><linearGradient id="f" gradientTransform="matrix(.00918504 0 0 .0429729 8.569953 9.239164)" gradientUnits="userSpaceOnUse" x1="255.323059" x2="255.323044" y1="233.5" y2="254.666656"><stop offset="0" stop-opacity=".27451"/><stop offset="1" stop-opacity="0"/></linearGradient><linearGradient id="g" gradientUnits="userSpaceOnUse" x1="254" x2="254" y1="-168.666672" y2="233.5"><stop offset="0" stop-color="#757575"/><stop offset="1" stop-color="#424242"/></linearGradient><linearGradient id="h" gradientUnits="userSpaceOnUse" x1="10.8457666" x2="10.84550177315" y1="19.2625529" y2="1.99107131979"><stop offset="0" stop-color="#9e9e9e"/><stop offset="1" stop-color="#e0e0e0"/></linearGradient><linearGradient id="i" gradientUnits="userSpaceOnUse" x1="10.915104" x2="10.91510469356" y1="21.31991591584" y2="1.30889208639"><stop offset="0" stop-color="#ffca28"/><stop offset="1" stop-color="#ffd54f"/></linearGradient><path d="m12.507812 19.273438h1.816407v-.910157h-1.816407zm0 0" fill="url(#b)"/><path d="m9.324219 19.273438h-1.820313v.910156h1.820313zm0 0" fill="url(#c)"/><path d="m9.324219 19.273438h-1.820313v-.910157h1.820313zm0 0" fill="url(#d)"/><path d="m12.507812 19.273438h1.816407v.910156h-1.816407zm0 0" fill="url(#e)"/><path d="m9.324219 19.046875h3.183593v1.136719h-3.183593zm0 0" fill="url(#f)"/><path d="m253.975747-168.640791c111.080301 0 201.071707 89.991407 201.071707 201.071708s-89.991406 201.071708-201.071707 201.071708c-110.989402 0-201.071708-89.991407-201.071708-201.071708s90.082306-201.071708 201.071708-201.071708zm0 0" fill="url(#g)" stroke="#333" stroke-linecap="round" stroke-width="3" transform="matrix(.0429729 0 0 .0429729 0 9.239163)"/><path d="m10.929688 2.445312c-.664063.046876-1.3125.167969-1.945313.375-.226563.007813-.71875.300782-.324219.4375.1875.195313.625.257813.574219.582032.070313.28125-.660156.269531-.417969.527344.171875.222656.347656.449218.519532.675781.316406-.101563.421874-.425781.597656-.675781.488281-.21875 1.183594-.28125 1.507812-.699219.101563-.292969.203125-.589844.304688-.882813-.269532-.113281-.542969-.226562-.816406-.339844zm-2.359376.078126c-.304687-.035157-.5.152343-.726562.273437-.28125.035156-.597656.140625-.773438.363281.3125.144532.511719-.007812.78125-.117187.253907-.128907 1.109376-.179688.71875-.519531zm-1.964843.902343c-.15625.238281.109375.582031-.25.707031-.175781.226563-.328125.59375.113281.460938.105469-.332031.441406-.796875.824219-.605469.382812.105469.742187.75 1.054687.238281 0-.132812-.488281-.210937-.476562-.535156-.21875-.09375-.683594.074219-.667969-.261718-.3125-.140626-.402344.554687-.515625.164062-.027344-.054688-.054688-.113281-.082031-.167969zm8.523437.300781c-.371094.074219-.738281.160157-1.03125.414063.082032.339844-.355468.398437-.550781.585937-.140625.082032.003906.699219.125.601563.265625-.347656.402344-.046875.648437.125.21875.203125.359376-.382813.242188-.546875-.066406-.265625.265625-.460938.386719-.679688.367187-.238281.058593.300782.046875.488282-.1875.554687.824218.015625.15625.429687-.175782.179688-.242188.445313-.519532.578125-.144531.179688-.710937.09375-.636718-.1875-.207032-.324218-.15625.390625-.226563.386719-.339843-.101563-.441406.28125-.65625.460937-.167969.191407-.746093.074219-.3125.367188.316407.363281-.0625.296875-.324219.394531-.371093.0625-.308593.382813-.300781.675781.007813.160157.363281.394532.542969.285157.355469-.039063.265625-.480469.53125-.613281.222656-.1875.375-.363282.707031-.367188.152344.144531.460938.363281.585938.484375-.347657.375.15625.34375.207031.003906.167969-.191406-.5625-.632812-.078125-.4375.316406.105469.242187.429688.386719.648438.25.429687.277344.109375.300781-.21875.433594-.15625.460937.773437 1.023437.574219.386719.007812.433594.261718.105469.453124-.234375.28125-.65625.136719-.949219.023438-.261718-.140625-.585937-.0625-.726562.210938-.308594-.269532-.527344-.695313-.980469-.71875-.425781-.019532-.855469.09375-1.265625.207031-.46875.523437-1.214844.839843-1.398437 1.570312-.269531.269531.007812.480469-.074219.695313-.261719.230468-.207031.492187-.039062.765625.164062.636719.871093.851562 1.261718 1.320312.226563-.226562.441406-.441406.640625-.175781.261719-.234375.429688-.265625.652344-.058594.28125.046875.652344-.128906.828125.167969.257812.191406-.265625.566406.058594.753906.300781.191407.15625.542969.175781.835938.167969.265625.3125.527343.023437.765625-.257812.726562.1875 1.40625.445313 2.066406.054687.285156.144531.566406.117187.859375.1875-.296875.566407-.152344.8125-.417969.15625-.214844.597657-.421875.445313-.71875-.058594-.238281.628906-.359375.285156-.585937-.378906-.222657.039063-.390625.230469-.5625.199219-.152344.570312-.316407.394531-.617188-.09375-.402343-.019531-.828125-.042969-1.238281.1875-.382812.390626-.757812.707032-1.054688.125-.417968.429687-.796874.398437-1.242187-.734375.21875-.511719-.09375-.105469-.394531.285157-.207032.6875-.402344.773438-.753906.0625-.351563-.210938-.894532-.449219-.378907-.117187-.164062-.523437-.316406-.515625-.574219-.089844-.515624.140625-.207031.339844.039063.46875-.347656 1.082031.960937.886719.027344-.269531-2.023438-1.296875-3.933594-2.832031-5.273438-.140626.148438-.375.707031-.542969.382813-.242188-.253906-.429688-.484375.058593-.390625.480469-.128907.003907-.207031-.25-.234375-.25-.03125-.484374-.125-.722656-.207032zm-9.40625.011719c-.320312.121094.15625.589844-.414062.441407-.625.28125-1.039063.96875-1.476563 1.503906-1.011719 1.433594-1.5625 3.183594-1.558593 4.9375.167968.339844.578124.457031.882812.648437.3125.105469.703125.089844.859375.433594.171875.179687.40625.425781.652344.445313.378906-.121094.433593.222656.242187.476562-.019531.28125-.332031.503906-.296875.75.070313.277344-.347656.582031-.066406.832031.292969.527344.609375 1.039063 1.007813 1.492188.25.21875.21875.519531.191406.816406-.097656.316406.199218.5.359375.726563-.390625.714843.667969.859374 1.109375 1.171874.222656-.203124.238281-.53125.609375-.542968.222656-.15625.269531-.507813.425781-.742188-.003906-.25-.164062-.484375.09375-.757812.207031-.148438.5625-.101563.636719-.441406.234375-.265626.019531-.628907.023437-.945313.191406-.226563.527344-.382813.621094-.65625.273438-.601563-.421875-.671875-.835938-.882813-.453124-.203124-.984374-.34375-1.121093-.878906-.171875-.1875-.632813.03125-.640625-.378906-.046875-.378906-.300782-.398438-.621094-.308594-.316406.109375-.417969-.320312-.628906-.476562-.183594-.359375-.394532.199218-.59375.3125-.183594.417968-.808594.152344-.832032-.285156.046876-.347657-.03125-.527344-.410156-.398438.144532-.382812.113282-1.171875-.304687-.570312-.148438.265624-.507813.171874-.628907-.042969-.019531-.28125-.074218-.652344.113282-.875.226562-.171875.4375-.402344.75-.320313.101562-.265625.339844-.214844.636718-.113281.171876.234375.394532.664063.351563.125-.03125-.3125.085937-.542969.371094-.683594.265625-.148437.429687-.367187.472656-.671875-.011719-.410156.339844-.300781.605469-.367187.203125-.28125.597656-.191407.855468-.339844.21875-.273437.375-.511719-.101562-.410156-.292969 0-.734375.054687-.265625-.203125.195313-.246094.464844-.253906.75-.253906.214844-.085938.675781-.109376.554687-.425782-.246093-.203125-.445312-.207031-.371093-.542968.015625-.484376-.515625.019531-.507813-.195313.1875-.246094-.363281-.515625-.464844-.390625-.105468.257812-.394531.484375-.285156.785156-.320312.050782-.472656.285156-.570312.574219-.09375.03125-.0625-.570313-.433594-.515625-.257812-.003906-.582031-.394531-.304688-.546875.375-.238281.839844-.421875 1.078126-.804687.136718-.339844-.113282-.546876-.449219-.5l-.046875-.003907zm6.507813.269531c-.207031.160157-.628907.050782-.714844.203126-.039063.316406.449219.3125.644531.136718.316406-.117187.304688-.09375.070313-.339844zm-4.792969.285157c-.441406.128906-.082031.417969.207031.414062.34375-.027343.023438-.414062-.207031-.414062zm5.257812.863281c-.03125.28125.238282.457031.125.761719-.175781.386719.074219.503906.375.265625.398438-.246094-.300781-.78125-.394531-1.027344-.035156 0-.070312 0-.105469 0zm-.132812.453125c-.359375-.089844-.246094.664063 0 .40625.265625-.046875.011719-.253906 0-.40625zm-4.59375.679687c.054688.285157.074219.738282.28125.25 0-.09375-.207031-.167968-.28125-.25zm8.691406 2.933594c.421875.371094.59375.902344.832032 1.394532.355468.183593.144531.46875.191406.710937.496094.429687-.5.199219-.378906-.269531-.078126-.550782-.429688-.914063-.71875-1.3125-.023438-.207032-.246094-.449219.074218-.523438zm0 0" fill="url(#h)"/><path d="m10.914062 1.992188c-4.785156 0-8.640624 3.851562-8.640624 8.640624v.085938c.046874-4.75 3.882812-8.558594 8.640624-8.558594 4.761719 0 8.597657 3.808594 8.640626 8.558594 0-.03125 0-.058594 0-.085938 0-4.789062-3.851563-8.640624-8.640626-8.640624zm0 0" fill="#fff" fill-opacity=".588235"/><path d="m10.914062 1.925781c-4.820312 0-8.703124 3.882813-8.703124 8.707031 0 4.820313 3.882812 8.703126 8.703124 8.703126 4.824219 0 8.707032-3.882813 8.707032-8.703126 0-4.824218-3.882813-8.707031-8.707032-8.707031zm0 .128907c4.753907 0 8.578126 3.824218 8.578126 8.578124 0 4.75-3.824219 8.574219-8.578126 8.574219-4.75 0-8.574218-3.824219-8.574218-8.574219 0-4.753906 3.824218-8.578124 8.574218-8.578124zm0 0" fill="#212121"/><path d="m7.957031 7.449219c-.125 0-.226562.101562-.226562.226562v2.5l-.679688.457031.679688.453126v2.503906c0 .125.101562.226562.226562.226562h1.367188c.125 0 .226562-.101562.226562-.226562v-.457032c0-.125-.101562-.226562-.226562-.226562h-.683594v-2.046875l-.339844-.226563.339844-.226562v-2.046875h.683594c.125 0 .226562-.101563.226562-.230469v-.453125c0-.125-.101562-.226562-.226562-.226562zm4.550781 0c-.125 0-.226562.101562-.226562.226562v.453125c0 .128906.101562.230469.226562.230469h.679688v2.046875l.34375.226562-.34375.226563v2.046875h-.679688c-.125 0-.226562.101562-.226562.226562v.457032c0 .125.101562.226562.226562.226562h1.363282c.125 0 .226562-.101562.226562-.226562v-2.503906l.683594-.453126-.683594-.457031v-2.5c0-.125-.101562-.226562-.226562-.226562zm0 0" fill="url(#i)"/><path d="m7.957031 7.449219c-.125 0-.226562.101562-.226562.226562v.226563c0-.125.101562-.226563.226562-.226563h1.367188c.125 0 .226562.101563.226562.226563v-.226563c0-.125-.101562-.226562-.226562-.226562zm4.550781 0c-.125 0-.226562.101562-.226562.226562v.226563c0-.125.101562-.226563.226562-.226563h1.363282c.125 0 .226562.101563.226562.226563v-.226563c0-.125-.101562-.226562-.226562-.226562zm-4.777343 2.726562-.679688.457031.167969.113282.511719-.339844zm6.367187 0v.230469l.511719.339844.171875-.113282zm-5.628906.570313-.167969.113281.339844.226563v-.226563zm4.890625 0-.171875.113281v.226563l.34375-.226563zm-4.71875 2.160156v.226562h.683594c.125 0 .226562.101563.226562.226563v-.226563c0-.125-.101562-.226562-.226562-.226562zm3.867187 0c-.125 0-.226562.101562-.226562.226562v.226563c0-.125.101562-.226563.226562-.226563h.679688v-.226562zm0 0" fill="#fff" fill-opacity=".392157"/><path d="m9.550781 8.128906c0 .128906-.101562.230469-.226562.230469h-.683594v.339844h.683594c.125 0 .226562-.101563.226562-.226563zm2.730469 0v.34375c0 .125.101562.226563.226562.226563h.679688v-.339844h-.679688c-.125 0-.226562-.101563-.226562-.230469zm-3.640625 2.277344-.339844.226562.253907.171876.085937-.058594zm4.546875 0v.339844l.085938.058594.257812-.171876zm-5.882812.398438-.253907.167968.679688.457032v-.34375zm7.21875 0-.425782.28125v.34375l.683594-.457032zm-6.792969 2.785156v.339844c0 .125.101562.226562.226562.226562h1.367188c.125 0 .226562-.101562.226562-.226562v-.339844c0 .125-.101562.226562-.226562.226562h-1.367188c-.125 0-.226562-.101562-.226562-.226562zm4.550781 0v.339844c0 .125.101562.226562.226562.226562h1.363282c.125 0 .226562-.101562.226562-.226562v-.339844c0 .125-.101562.226562-.226562.226562h-1.363282c-.125 0-.226562-.101562-.226562-.226562zm0 0" fill-opacity=".235294"/><path d="m185.164136-41.652917c-2.908813 0-5.272224 2.36341-5.272224 5.272223v58.176263l-15.816671 10.635348 15.816671 10.544448v58.267163c0 2.908813 2.363411 5.272223 5.272224 5.272223h31.815144c2.908813 0 5.272223-2.36341 5.272223-5.272223v-10.635348c0-2.908814-2.36341-5.272224-5.272223-5.272224h-15.907572v-47.631815l-7.908336-5.272224 7.908336-5.272224v-47.631815h15.907572c2.908813 0 5.272223-2.363411 5.272223-5.363124v-10.544448c0-2.908813-2.36341-5.272223-5.272223-5.272223zm105.898978 0c-2.908813 0-5.272224 2.36341-5.272224 5.272223v10.544448c0 2.999713 2.363411 5.363124 5.272224 5.363124h15.816671v47.631815l7.999236 5.272224-7.999236 5.272224v47.631815h-15.816671c-2.908813 0-5.272224 2.36341-5.272224 5.272224v10.635348c0 2.908813 2.363411 5.272223 5.272224 5.272223h31.724243c2.908813 0 5.272224-2.36341 5.272224-5.272223v-58.267163l15.907572-10.544448-15.907572-10.635348v-58.176263c0-2.908813-2.363411-5.272223-5.272224-5.272223zm0 0" fill="none" stroke="#212121" stroke-linecap="round" stroke-linejoin="round" stroke-width="3" transform="matrix(.0429729 0 0 .0429729 0 9.239163)"/></svg>