<svg height="22" viewBox="0 0 22 22" width="22" xmlns="http://www.w3.org/2000/svg" xmlns:xlink="http://www.w3.org/1999/xlink"><linearGradient id="a"><stop offset="0" stop-opacity=".27451"/><stop offset="1" stop-opacity="0"/></linearGradient><linearGradient id="b" gradientTransform="matrix(.0096689 0 0 .0429729 2.660556 8.329573)" gradientUnits="userSpaceOnUse" x1="254" x2="254" xlink:href="#a" y1="233.5" y2="254.666672"/><linearGradient id="c"><stop offset="0" stop-opacity=".313726"/><stop offset=".222222" stop-opacity=".27451"/><stop offset="1" stop-opacity="0"/></linearGradient><radialGradient id="d" cx="450.908936" cy="189.579361" gradientTransform="matrix(.00000012 -.0537161 -.0966889 -.00000007 24.242525 42.8122)" gradientUnits="userSpaceOnUse" r="21.166656" xlink:href="#c"/><radialGradient id="e" cx="450.908936" cy="189.579361" gradientTransform="matrix(-.00000012 .0537161 .0966889 .00000007 -14.009612 -6.084733)" gradientUnits="userSpaceOnUse" r="21.166656" xlink:href="#c"/><radialGradient id="f" cx="450.908936" cy="189.579361" gradientTransform="matrix(-.00000012 -.0537161 .0966889 -.00000007 -14.009612 42.8122)" gradientUnits="userSpaceOnUse" r="21.166656" xlink:href="#c"/><radialGradient id="g" cx="450.908936" cy="189.579361" gradientTransform="matrix(.00000012 .0537161 -.0966889 .00000007 24.242522 -6.084734)" gradientUnits="userSpaceOnUse" r="21.166656" xlink:href="#c"/><linearGradient id="h" gradientTransform="matrix(.0096689 0 0 .0429729 9.937294 8.329573)" gradientUnits="userSpaceOnUse" x1="254" x2="254" xlink:href="#a" y1="233.5" y2="254.666672"/><radialGradient id="i" cx="450.908936" cy="189.579361" gradientTransform="matrix(.00000012 -.0537161 -.0966889 -.00000007 31.519263 42.8122)" gradientUnits="userSpaceOnUse" r="21.166656" xlink:href="#c"/><radialGradient id="j" cx="450.908936" cy="189.579361" gradientTransform="matrix(-.00000012 .0537161 .0966889 .00000007 -6.732874 -6.084733)" gradientUnits="userSpaceOnUse" r="21.166656" xlink:href="#c"/><radialGradient id="k" cx="450.908936" cy="189.579361" gradientTransform="matrix(-.00000012 -.0537161 .0966889 -.00000007 -6.732874 42.8122)" gradientUnits="userSpaceOnUse" r="21.166656" xlink:href="#c"/><radialGradient id="l" cx="450.908936" cy="189.579361" gradientTransform="matrix(.00000012 .0537161 -.0966889 .00000007 31.519261 -6.084734)" gradientUnits="userSpaceOnUse" r="21.166656" xlink:href="#c"/><linearGradient id="m" gradientUnits="userSpaceOnUse" x1="8.641124" x2="8.641124" y1="18.36373201286" y2="1.99107567177"><stop offset="0" stop-color="#5c6bc0"/><stop offset="1" stop-color="#7986cb"/></linearGradient><path d="m4.09375 18.363281h2.046875v.910157h-2.046875zm0 0" fill="url(#b)"/><path d="m6.140625 18.363281h1.816406v-.910156h-1.816406zm0 0" fill="url(#d)"/><path d="m4.09375 18.363281h-1.820312v.910157h1.820312zm0 0" fill="url(#e)"/><path d="m4.09375 18.363281h-1.820312v-.910156h1.820312zm0 0" fill="url(#f)"/><path d="m6.140625 18.363281h1.816406v.910157h-1.816406zm0 0" fill="url(#g)"/><path d="m11.371094 18.363281h2.046875v.910157h-2.046875zm0 0" fill="url(#h)"/><path d="m13.417969 18.363281h1.816406v-.910156h-1.816406zm0 0" fill="url(#i)"/><path d="m11.371094 18.363281h-1.820313v.910157h1.820313zm0 0" fill="url(#j)"/><path d="m11.371094 18.363281h-1.820313v-.910156h1.820313zm0 0" fill="url(#k)"/><path d="m13.417969 18.363281h1.816406v.910157h-1.816406zm0 0" fill="url(#l)"/><path d="m8.640625 1.992188c-1.257813 0-2.273437 1.011718-2.273437 2.273437 0 .746094.355468 1.40625.910156 1.820313v.453124h-4.09375c-.253906 0-.453125.203126-.453125.453126v4.09375h.449219c.414062-.550782 1.074218-.910157 1.824218-.910157 1.257813 0 2.273438 1.015625 2.273438 2.277344 0 1.257813-1.015625 2.273437-2.273438 2.273437-.75 0-1.410156-.359374-1.824218-.910156h-.449219v4.09375c0 .25.199219.453125.453125.453125h4.09375v-.453125c-.554688-.414062-.910156-1.074218-.910156-1.820312 0-1.261719 1.015624-2.273438 2.273437-2.273438 1.261719 0 2.273437 1.011719 2.273437 2.273438 0 .746094-.355468 1.40625-.910156 1.820312v.453125h4.09375c.253906 0 .457032-.203125.457032-.453125v-4.09375h.449218c.414063.550782 1.078125.910156 1.824219.910156 1.257813 0 2.273437-1.015624 2.273437-2.273437 0-1.261719-1.015624-2.277344-2.273437-2.277344-.746094 0-1.410156.359375-1.824219.910157h-.449218v-4.09375c0-.25-.203126-.453126-.457032-.453126h-4.09375v-.453124c.554688-.414063.910156-1.074219.910156-1.820313 0-1.261719-1.011718-2.273437-2.273437-2.273437zm0 0" fill="url(#m)"/><path d="m8.640625 1.992188c-1.257813 0-2.273437 1.011718-2.273437 2.273437 0 .054687.003906.113281.007812.167969.085938-1.179688 1.0625-2.101563 2.265625-2.101563s2.179687.921875 2.269531 2.101563c.003906-.054688.003906-.113282.003906-.167969 0-1.261719-1.011718-2.273437-2.273437-2.273437zm-5.457031 4.546874c-.253906 0-.453125.203126-.453125.453126v.34375c0-.253907.199219-.457032.453125-.457032h4.09375v-.339844zm6.820312 0v.339844h4.09375c.253906 0 .457032.203125.457032.457032v-.34375c0-.25-.203126-.453126-.457032-.453126zm6.824219 3.636719c-.746094 0-1.410156.359375-1.824219.910157h-.449218v.34375h.449218c.414063-.554688 1.078125-.910157 1.824219-.910157 1.203125 0 2.179687.921875 2.265625 2.101563.003906-.054688.007812-.113282.007812-.167969 0-1.261719-1.015624-2.277344-2.273437-2.277344zm-9.558594 2.445313c-.085937 1.179687-1.0625 2.105468-2.265625 2.105468-.75 0-1.410156-.359374-1.824218-.910156h-.449219v.339844h.449219c.414062.554688 1.074218.910156 1.824218.910156 1.257813 0 2.273438-1.015625 2.273438-2.273437 0-.058594-.003906-.113281-.007813-.171875zm-.894531 3.636718c-.003906.058594-.007812.113282-.007812.171876 0 .75.355468 1.410156.910156 1.824218v-.34375c-.511719-.382812-.855469-.972656-.902344-1.652344zm4.535156 0c-.050781.679688-.394531 1.269532-.90625 1.652344v.34375c.554688-.414062.910156-1.074218.910156-1.824218 0-.058594 0-.113282-.003906-.171876zm0 0" fill="#fff" fill-opacity=".392157"/><path d="m6.375 4.09375c-.003906.054688-.007812.113281-.007812.171875 0 .746094.355468 1.40625.910156 1.820313v-.339844c-.511719-.382813-.855469-.976563-.902344-1.652344zm4.535156 0c-.050781.675781-.394531 1.269531-.90625 1.652344v.339844c.554688-.414063.910156-1.074219.910156-1.820313 0-.058594 0-.117187-.003906-.171875zm-5.90625 5.742188c-.75 0-1.410156.355468-1.824218.910156h-.449219v.339844h.449219c.414062-.550782 1.074218-.910157 1.824218-.910157 1.203125 0 2.179688.925781 2.265625 2.105469.003907-.058594.007813-.113281.007813-.171875 0-1.257813-1.015625-2.273437-2.273438-2.273437zm14.089844 2.445312c-.085938 1.179688-1.0625 2.101562-2.265625 2.101562-.746094 0-1.410156-.355468-1.824219-.90625h-.449218v.339844h.449218c.414063.550782 1.078125.910156 1.824219.910156 1.257813 0 2.273437-1.015624 2.273437-2.273437 0-.058594-.003906-.117187-.007812-.171875zm-10.453125 1.195312c-1.257813 0-2.273437 1.011719-2.273437 2.273438 0 .054688.003906.113281.007812.167969.085938-1.179688 1.0625-2.101563 2.265625-2.101563s2.179687.921875 2.269531 2.101563c.003906-.054688.003906-.113281.003906-.167969 0-1.261719-1.011718-2.273438-2.273437-2.273438zm-5.910156 4.089844v.34375c0 .25.199219.453125.453125.453125h4.09375v-.339843h-4.09375c-.253906 0-.453125-.203126-.453125-.457032zm11.824219 0c0 .253906-.203126.457032-.457032.457032h-4.09375v.339843h4.09375c.253906 0 .457032-.203125.457032-.453125zm0 0" fill-opacity=".235294"/><path d="m759.956101 175.215918c-110.626521 0-199.952284 88.982202-199.952284 199.952284 0 65.620079 31.264017 123.681824 80.049626 160.09925v39.853033h-360.051534c-22.331441 0-39.853033 17.865152-39.853033 39.853032v360.051534h39.509472c36.417426-48.442048 94.479172-80.049625 160.442811-80.049625 110.626521 0 199.952284 89.325762 199.952284 200.295844 0 110.626521-89.325763 199.952283-199.952284 199.952283-65.963639 0-124.025385-31.607577-160.442811-80.049625h-39.509472v360.051534c0 21.98788 17.521592 39.853032 39.853033 39.853032h360.051534v-39.853032c-48.785609-36.417427-80.049626-94.479172-80.049626-160.099251 0-110.970082 89.325763-199.952283 199.952284-199.952283 110.970081 0 199.952283 88.982201 199.952283 199.952283 0 65.620079-31.264017 123.681824-80.049626 160.099251v39.853032h360.051534c22.331441 0 40.196593-17.865152 40.196593-39.853032v-360.051534h39.509472c36.417426 48.442048 94.822733 80.049625 160.442812 80.049625 110.626521 0 199.952283-89.325762 199.952283-199.952283 0-110.970082-89.325762-200.295844-199.952283-200.295844-65.620079 0-124.025386 31.607577-160.442812 80.049625h-39.509472v-360.051534c0-21.98788-17.865152-39.853032-40.196593-39.853032h-360.051534v-39.853033c48.785609-36.417426 80.049626-94.479171 80.049626-160.09925 0-110.970082-88.982202-199.952284-199.952283-199.952284zm0 0" fill="none" stroke="#212121" stroke-linecap="round" stroke-linejoin="round" stroke-width="11.338583" transform="scale(.0113699)"/></svg>