<svg xmlns="http://www.w3.org/2000/svg" width="22pt" height="22pt" viewBox="0 0 22 22"><defs><linearGradient id="a" gradientUnits="userSpaceOnUse" x1="254" y1="233.5" x2="254" y2="254.667" gradientTransform="matrix(.04297 0 0 .04297 0 9.24)"><stop offset="0" stop-opacity=".275"/><stop offset="1" stop-opacity="0"/></linearGradient><radialGradient id="b" gradientUnits="userSpaceOnUse" cx="450.909" cy="189.579" fx="450.909" fy="189.579" r="21.167" gradientTransform="matrix(0 -.05372 -.09669 0 36.522 43.722)"><stop offset="0" stop-opacity=".314"/><stop offset=".222" stop-opacity=".275"/><stop offset="1" stop-opacity="0"/></radialGradient><radialGradient id="c" gradientUnits="userSpaceOnUse" cx="450.909" cy="189.579" fx="450.909" fy="189.579" r="21.167" gradientTransform="matrix(0 .05372 .09669 0 -14.578 -5.175)"><stop offset="0" stop-opacity=".314"/><stop offset=".222" stop-opacity=".275"/><stop offset="1" stop-opacity="0"/></radialGradient><radialGradient id="d" gradientUnits="userSpaceOnUse" cx="450.909" cy="189.579" fx="450.909" fy="189.579" r="21.167" gradientTransform="matrix(0 -.05372 .09669 0 -14.578 43.722)"><stop offset="0" stop-opacity=".314"/><stop offset=".222" stop-opacity=".275"/><stop offset="1" stop-opacity="0"/></radialGradient><radialGradient id="e" gradientUnits="userSpaceOnUse" cx="450.909" cy="189.579" fx="450.909" fy="189.579" r="21.167" gradientTransform="matrix(0 .05372 -.09669 0 36.522 -5.175)"><stop offset="0" stop-opacity=".314"/><stop offset=".222" stop-opacity=".275"/><stop offset="1" stop-opacity="0"/></radialGradient><linearGradient id="f" gradientUnits="userSpaceOnUse" x1="254" y1="-168.667" x2="254" y2="233.5" gradientTransform="matrix(.04297 0 0 .04297 0 9.24)"><stop offset="0" stop-color="#a1887f"/><stop offset="1" stop-color="#8d6e63"/></linearGradient><linearGradient id="g" gradientUnits="userSpaceOnUse" x1="254" y1="-158.083" x2="254" y2="222.917"><stop offset="0" stop-color="#fffde7"/><stop offset="1" stop-color="#fff9c4"/></linearGradient><linearGradient id="h" gradientUnits="userSpaceOnUse" x1="254" y1="64.167" x2="254" y2="-136.917"><stop offset="0" stop-color="#8d6e63"/><stop offset="1" stop-color="#795548"/></linearGradient><linearGradient id="i" gradientUnits="userSpaceOnUse" x1="254" y1="95.917" x2="254" y2="201.75"><stop offset="0" stop-color="#a1887f"/><stop offset="1" stop-color="#8d6e63"/></linearGradient><linearGradient id="j" gradientUnits="userSpaceOnUse" x1="291.042" y1="138.25" x2="291.042" y2="201.75" gradientTransform="matrix(.66667 0 0 .66667 194.028 35.5)"><stop offset="0" stop-color="#fffde7"/><stop offset="1" stop-color="#fff9c4"/></linearGradient><linearGradient id="k" gradientUnits="userSpaceOnUse" x1="254" y1="138.25" x2="254" y2="201.75" gradientTransform="matrix(.04297 0 0 .04297 0 8.33)"><stop offset="0" stop-color="#ffab91"/><stop offset="1" stop-color="#fbe9e7"/></linearGradient><linearGradient id="l" gradientUnits="userSpaceOnUse" x1="211.667" y1="201.75" x2="211.667" y2="127.667" gradientTransform="matrix(.04297 0 0 .03683 0 9.568)"><stop offset="0" stop-color="#ef5350"/><stop offset="1" stop-color="#e57373"/></linearGradient><linearGradient id="m" gradientUnits="userSpaceOnUse" x1="254" y1="-94.583" x2="254" y2="32.417" gradientTransform="matrix(.04297 0 0 .04297 0 9.24)"><stop offset="0" stop-color="#5d4037"/><stop offset="1" stop-color="#a1887f"/></linearGradient><linearGradient id="n" gradientUnits="userSpaceOnUse" x1="291.042" y1="138.25" x2="291.042" y2="201.75" gradientTransform="matrix(.66667 0 0 .66667 -81.139 35.5)"><stop offset="0" stop-color="#fffde7"/><stop offset="1" stop-color="#fff9c4"/></linearGradient></defs><path d="M3.523 19.273h14.895v.91H3.523zm0 0" fill="url(#a)"/><path d="M18.418 19.273h1.82v-.91h-1.82zm0 0" fill="url(#b)"/><path d="M3.523 19.273H1.707v.91h1.816zm0 0" fill="url(#c)"/><path d="M3.523 19.273H1.707v-.91h1.816zm0 0" fill="url(#d)"/><path d="M18.418 19.273h1.82v.91h-1.82zm0 0" fill="url(#e)"/><path d="M2.5 1.992h16.828c.379 0 .684.305.684.68V18.59a.682.682 0 0 1-.684.683H2.5a.681.681 0 0 1-.68-.683V2.672a.68.68 0 0 1 .68-.68zm0 0" fill="url(#f)"/><path d="M63.54-158.096h380.963c5.818 0 10.544 4.726 10.544 10.635v359.784c0 5.817-4.726 10.635-10.544 10.635H63.539c-5.908 0-10.635-4.818-10.635-10.635v-359.784a10.591 10.591 0 0 1 10.635-10.635zm0 0" transform="matrix(.04297 0 0 .04297 0 9.24)" fill="url(#g)" stroke-width="3" stroke-linecap="square" stroke-linejoin="round" stroke="#212121"/><path d="M85.355-136.917h337.332c6.181 0 11.272 5 11.272 11.272V63.52c0 6.181-5.09 11.272-11.272 11.272H85.355c-6.272 0-11.271-5.09-11.271-11.272v-189.164c0-6.272 5-11.272 11.271-11.272zm0 0" transform="matrix(.04297 0 0 .04297 0 9.24)" fill="url(#h)" stroke-width="3.188" stroke-linecap="square" stroke-linejoin="round" stroke="#212121"/><path d="M2.73 1.992a.909.909 0 0 0-.91.91v.114c0-.504.407-.91.91-.91h16.372c.503 0 .91.406.91.91v-.114a.909.909 0 0 0-.91-.91zm0 0" fill="#e6e6e6" fill-opacity=".588"/><path d="M84.628 95.88h338.695c5.818 0 10.636 4.817 10.636 10.635v84.628c0 5.909-4.818 10.635-10.636 10.635H84.628c-5.817 0-10.544-4.726-10.544-10.635v-84.628c0-5.818 4.727-10.636 10.544-10.636zm0 0" transform="matrix(.04297 0 0 .04297 0 9.24)" fill="url(#i)" stroke-width="3" stroke-linecap="square" stroke-linejoin="round" stroke="#212121"/><path d="M391.599 127.695c11.635 0 21.18 9.453 21.18 21.18 0 11.635-9.545 21.088-21.18 21.088-11.726 0-21.18-9.453-21.18-21.089a21.143 21.143 0 0 1 21.18-21.18zm0 0" transform="matrix(.04297 0 0 .04297 0 9.24)" fill="url(#j)" stroke-width="3" stroke-linecap="round" stroke="#212121"/><path d="M6.82 14.27h8.188c.25 0 .457.203.457.457v1.816a.458.458 0 0 1-.457.457H6.82a.454.454 0 0 1-.453-.457v-1.816c0-.254.203-.457.453-.457zm0 0" fill="url(#k)"/><path d="M10.8 14.953h.227v1.363h-.226zm0 0M11.71 14.953h.227v1.363h-.226zm0 0M12.621 14.953h.227v1.363h-.227zm0 0M13.531 14.953h.227v1.363h-.227zm0 0M14.441 14.953h.227v1.363h-.227zm0 0M7.164 14.953h.227v1.363h-.227zm0 0M8.074 14.953h.227v1.363h-.227zm0 0" fill="#424242"/><path d="M8.867 14.27h.457V17h-.457zm0 0" fill="url(#l)"/><path d="M9.89 14.953h.231v1.363h-.23zm0 0" fill="#424242"/><path d="M6.82 14.27h8.188c.25 0 .457.203.457.457v1.816a.458.458 0 0 1-.457.457H6.82a.454.454 0 0 1-.453-.457v-1.816c0-.254.203-.457.453-.457zm0 0" fill="none" stroke-width=".12891" stroke-linecap="square" stroke-linejoin="bevel" stroke="#212121"/><path d="M10.914 5.176c2.512 0 4.55 1.219 4.55 2.726 0 1.508-2.038 2.73-4.55 2.73S6.367 9.41 6.367 7.903c0-1.507 2.035-2.726 4.547-2.726zm0 0" fill="url(#m)"/><path d="M3.668 3.355h-.031v.395H3.19a.641.641 0 0 0-.007.09v.137h.453v.453h-.453v.226h.453v.457h-.453v.227h.453v.457h-.453v.226h.453v.454h-.453v.226h.453v.457h-.453v.227h.453v.453h-.453v.23h.453v.453h-.453v.227h.453v.457h-.453v.227h.453v.453h-.453v.23h.453v.453h-.453v.227h.453v.457h-.453v.226h.453v.454h-.453v.035c0 .07.015.133.039.195h.414v.285c.011 0 .02.004.031.004h.2v-.289h.452v.29h.227v-.29h.457v.29h.226v-.29h.454v.29h.23v-.29h.453v.29h.227v-.29h.457v.29h.226v-.29h.453v.29h.227v-.29h.457v.29h.227v-.29h.457v.29h.226v-.29h.453v.29h.227v-.29h.457v.29h.226v-.29h.454v.29h.23v-.29h.453v.29h.227v-.29h.457v.29h.226v-.29h.454v.29h.23v-.29h.453v.29h.227v-.29h.457v.29h.226v-.29h.453v.29h.23v-.29h.454v.29h.227v-.29h.457v.29h.226v-.29h.453v.29h.227v-.29h.457v.29h.2c.007 0 .019-.005.026-.005v-.285h.414a.475.475 0 0 0 .043-.195v-.035h-.457v-.454h.457v-.226h-.457v-.457h.457v-.227h-.457v-.453h.457v-.23h-.457v-.453h.457v-.227h-.457V8.75h.457v-.227h-.457V8.07h.457v-.23h-.457v-.453h.457V7.16h-.457v-.457h.457v-.226h-.457v-.454h.457v-.226h-.457V5.34h.457v-.227h-.457v-.457h.457V4.43h-.457v-.453h.457V3.84a.333.333 0 0 0-.011-.09h-.446v-.395h-.227v.395h-.456v-.395h-.227v.395h-.453v-.395h-.226v.395h-.457v-.395h-.227v.395h-.453v-.395h-.23v.395h-.454v-.395h-.226v.395h-.457v-.395h-.227v.395h-.453v-.395h-.23v.395h-.454v-.395h-.226v.395h-.457v-.395h-.227v.395h-.453v-.395h-.23v.395h-.454v-.395h-.226v.395h-.457v-.395h-.227v.395h-.453v-.395h-.226v.395H8.64v-.395h-.227v.395h-.457v-.395H7.73v.395h-.453v-.395h-.226v.395h-.457v-.395h-.227v.395h-.453v-.395h-.23v.395H5.23v-.395h-.226v.395h-.457v-.395H4.32v.395h-.453v-.395zm.2.622h.452v.453h-.453zm.679 0h.457v.453h-.457zm.683 0h.454v.453H5.23zm.684 0h.453v.453h-.453zm.68 0h.457v.453h-.457zm.683 0h.453v.453h-.453zm.68 0h.457v.453h-.457zm.684 0h.457v.453H8.64zm.683 0h.453v.453h-.453zm.68 0h.457v.453h-.457zm.684 0h.453v.453h-.454zm.683 0h.453v.453h-.453zm.68 0h.457v.453h-.457zm.683 0h.454v.453h-.454zm.684 0h.453v.453h-.453zm.68 0h.457v.453h-.457zm.683 0h.453v.453h-.453zm.684 0h.453v.453h-.453zm.68 0h.457v.453h-.457zm.683 0h.453v.453h-.453zm.68 0h.457v.453h-.457zm-13.64.68h.452v.456h-.453zm.679 0h.457v.456h-.457zm.683 0h.454v.456H5.23zm.684 0h.453v.456h-.453zm.68 0h.457v.456h-.457zm.683 0h.453v.456h-.453zm.68 0h.457v.456h-.457zm.684 0h.457v.456H8.64zm.683 0h.453v.456h-.453zm.68 0h.457v.456h-.457zm.684 0h.453v.456h-.454zm.683 0h.453v.456h-.453zm.68 0h.457v.456h-.457zm.683 0h.454v.456h-.454zm.684 0h.453v.456h-.453zm.68 0h.457v.456h-.457zm.683 0h.453v.456h-.453zm.684 0h.453v.456h-.453zm.68 0h.457v.456h-.457zm.683 0h.453v.456h-.453zm.68 0h.457v.456h-.457zm-13.64.683h.452v.457h-.453zm.679 0h.457v.457h-.457zm.683 0h.454v.457H5.23zm.684 0h.453v.457h-.453zm.68 0h.457v.457h-.457zm.683 0h.453v.457h-.453zm.68 0h.457v.457h-.457zm.684 0h.457v.457H8.64zm.683 0h.453v.457h-.453zm.68 0h.457v.457h-.457zm.684 0h.453v.457h-.454zm.683 0h.453v.457h-.453zm.68 0h.457v.457h-.457zm.683 0h.454v.457h-.454zm.684 0h.453v.457h-.453zm.68 0h.457v.457h-.457zm.683 0h.453v.457h-.453zm.684 0h.453v.457h-.453zm.68 0h.457v.457h-.457zm.683 0h.453v.457h-.453zm.68 0h.457v.457h-.457zm-13.64.683h.452v.454h-.453zm.679 0h.457v.454h-.457zm.683 0h.454v.454H5.23zm.684 0h.453v.454h-.453zm.68 0h.457v.454h-.457zm.683 0h.453v.454h-.453zm.68 0h.457v.454h-.457zm.684 0h.457v.454H8.64zm.683 0h.453v.454h-.453zm.68 0h.457v.454h-.457zm.684 0h.453v.454h-.454zm.683 0h.453v.454h-.453zm.68 0h.457v.454h-.457zm.683 0h.454v.454h-.454zm.684 0h.453v.454h-.453zm.68 0h.457v.454h-.457zm.683 0h.453v.454h-.453zm.684 0h.453v.454h-.453zm.68 0h.457v.454h-.457zm.683 0h.453v.454h-.453zm.68 0h.457v.454h-.457zm-13.64.68h.452v.457h-.453zm.679 0h.457v.457h-.457zm.683 0h.454v.457H5.23zm.684 0h.453v.457h-.453zm.68 0h.457v.457h-.457zm.683 0h.453v.457h-.453zm.68 0h.457v.457h-.457zm.684 0h.457v.457H8.64zm.683 0h.453v.457h-.453zm.68 0h.457v.457h-.457zm.684 0h.453v.457h-.454zm.683 0h.453v.457h-.453zm.68 0h.457v.457h-.457zm.683 0h.454v.457h-.454zm.684 0h.453v.457h-.453zm.68 0h.457v.457h-.457zm.683 0h.453v.457h-.453zm.684 0h.453v.457h-.453zm.68 0h.457v.457h-.457zm.683 0h.453v.457h-.453zm.68 0h.457v.457h-.457zm-13.64.684h.452v.453h-.453zm.679 0h.457v.453h-.457zm.683 0h.454v.453H5.23zm.684 0h.453v.453h-.453zm.68 0h.457v.453h-.457zm.683 0h.453v.453h-.453zm.68 0h.457v.453h-.457zm.684 0h.457v.453H8.64zm.683 0h.453v.453h-.453zm.68 0h.457v.453h-.457zm.684 0h.453v.453h-.454zm.683 0h.453v.453h-.453zm.68 0h.457v.453h-.457zm.683 0h.454v.453h-.454zm.684 0h.453v.453h-.453zm.68 0h.457v.453h-.457zm.683 0h.453v.453h-.453zm.684 0h.453v.453h-.453zm.68 0h.457v.453h-.457zm.683 0h.453v.453h-.453zm.68 0h.457v.453h-.457zm-13.64.683h.452v.453h-.453zm.679 0h.457v.453h-.457zm.683 0h.454v.453H5.23zm.684 0h.453v.453h-.453zm.68 0h.457v.453h-.457zm.683 0h.453v.453h-.453zm.68 0h.457v.453h-.457zm.684 0h.457v.453H8.64zm.683 0h.453v.453h-.453zm.68 0h.457v.453h-.457zm.684 0h.453v.453h-.454zm.683 0h.453v.453h-.453zm.68 0h.457v.453h-.457zm.683 0h.454v.453h-.454zm.684 0h.453v.453h-.453zm.68 0h.457v.453h-.457zm.683 0h.453v.453h-.453zm.684 0h.453v.453h-.453zm.68 0h.457v.453h-.457zm.683 0h.453v.453h-.453zm.68 0h.457v.453h-.457zm-13.64.68h.452v.457h-.453zm.679 0h.457v.457h-.457zm.683 0h.454v.457H5.23zm.684 0h.453v.457h-.453zm.68 0h.457v.457h-.457zm.683 0h.453v.457h-.453zm.68 0h.457v.457h-.457zm.684 0h.457v.457H8.64zm.683 0h.453v.457h-.453zm.68 0h.457v.457h-.457zm.684 0h.453v.457h-.454zm.683 0h.453v.457h-.453zm.68 0h.457v.457h-.457zm.683 0h.454v.457h-.454zm.684 0h.453v.457h-.453zm.68 0h.457v.457h-.457zm.683 0h.453v.457h-.453zm.684 0h.453v.457h-.453zm.68 0h.457v.457h-.457zm.683 0h.453v.457h-.453zm.68 0h.457v.457h-.457zm-13.64.684h.452v.453h-.453zm.679 0h.457v.453h-.457zm.683 0h.454v.453H5.23zm.684 0h.453v.453h-.453zm.68 0h.457v.453h-.457zm.683 0h.453v.453h-.453zm.68 0h.457v.453h-.457zm.684 0h.457v.453H8.64zm.683 0h.453v.453h-.453zm.68 0h.457v.453h-.457zm.684 0h.453v.453h-.454zm.683 0h.453v.453h-.453zm.68 0h.457v.453h-.457zm.683 0h.454v.453h-.454zm.684 0h.453v.453h-.453zm.68 0h.457v.453h-.457zm.683 0h.453v.453h-.453zm.684 0h.453v.453h-.453zm.68 0h.457v.453h-.457zm.683 0h.453v.453h-.453zm.68 0h.457v.453h-.457zm-13.64.683h.452v.453h-.453zm.679 0h.457v.453h-.457zm.683 0h.454v.453H5.23zm.684 0h.453v.453h-.453zm.68 0h.457v.453h-.457zm.683 0h.453v.453h-.453zm.68 0h.457v.453h-.457zm.684 0h.457v.453H8.64zm.683 0h.453v.453h-.453zm.68 0h.457v.453h-.457zm.684 0h.453v.453h-.454zm.683 0h.453v.453h-.453zm.68 0h.457v.453h-.457zm.683 0h.454v.453h-.454zm.684 0h.453v.453h-.453zm.68 0h.457v.453h-.457zm.683 0h.453v.453h-.453zm.684 0h.453v.453h-.453zm.68 0h.457v.453h-.457zm.683 0h.453v.453h-.453zm.68 0h.457v.453h-.457zm-13.64.68h.452v.457h-.453zm.679 0h.457v.457h-.457zm.683 0h.454v.457H5.23zm.684 0h.453v.457h-.453zm.68 0h.457v.457h-.457zm.683 0h.453v.457h-.453zm.68 0h.457v.457h-.457zm.684 0h.457v.457H8.64zm.683 0h.453v.457h-.453zm.68 0h.457v.457h-.457zm.684 0h.453v.457h-.454zm.683 0h.453v.457h-.453zm.68 0h.457v.457h-.457zm.683 0h.454v.457h-.454zm.684 0h.453v.457h-.453zm.68 0h.457v.457h-.457zm.683 0h.453v.457h-.453zm.684 0h.453v.457h-.453zm.68 0h.457v.457h-.457zm.683 0h.453v.457h-.453zm.68 0h.457v.457h-.457zm-13.64.683h.452v.454h-.453zm.679 0h.457v.454h-.457zm.683 0h.454v.454H5.23zm.684 0h.453v.454h-.453zm.68 0h.457v.454h-.457zm.683 0h.453v.454h-.453zm.68 0h.457v.454h-.457zm.684 0h.457v.454H8.64zm.683 0h.453v.454h-.453zm.68 0h.457v.454h-.457zm.684 0h.453v.454h-.454zm.683 0h.453v.454h-.453zm.68 0h.457v.454h-.457zm.683 0h.454v.454h-.454zm.684 0h.453v.454h-.453zm.68 0h.457v.454h-.457zm.683 0h.453v.454h-.453zm.684 0h.453v.454h-.453zm.68 0h.457v.454h-.457zm.683 0h.453v.454h-.453zm.68 0h.457v.454h-.457zm0 0" fill="#bcaaa4"/><path d="M2.73 1.992h16.372c.503 0 .91.406.91.91v15.461c0 .504-.407.91-.91.91H2.73a.909.909 0 0 1-.91-.91V2.903c0-.505.407-.91.91-.91zm0 0" fill="none" stroke-width=".12891" stroke-linecap="square" stroke-linejoin="bevel" stroke="#212121"/><path d="M116.443 127.695c11.636 0 21.18 9.453 21.18 21.18 0 11.635-9.544 21.088-21.18 21.088-11.726 0-21.18-9.453-21.18-21.089a21.143 21.143 0 0 1 21.18-21.18zm0 0" transform="matrix(.04297 0 0 .04297 0 9.24)" fill="url(#n)" stroke-width="3" stroke-linecap="round" stroke="#212121"/><path d="M3.668 3.355h14.496c.266 0 .484.215.484.485v8.129a.487.487 0 0 1-.484.484H3.668a.484.484 0 0 1-.484-.484v-8.13c0-.269.214-.484.484-.484zm0 0" fill="none" stroke-width=".13698836" stroke-linecap="square" stroke-linejoin="round" stroke="#212121"/></svg>