<svg xmlns="http://www.w3.org/2000/svg" width="22pt" height="22pt" viewBox="0 0 22 22"><defs><radialGradient id="a" gradientUnits="userSpaceOnUse" cx="450.909" cy="189.579" fx="450.909" fy="189.579" r="21.167" gradientTransform="matrix(0 -.05372 -.09669 0 30.382 43.722)"><stop offset="0" stop-opacity=".314"/><stop offset=".222" stop-opacity=".275"/><stop offset="1" stop-opacity="0"/></radialGradient><radialGradient id="b" gradientUnits="userSpaceOnUse" cx="450.909" cy="189.579" fx="450.909" fy="189.579" r="21.167" gradientTransform="matrix(0 .05372 .09669 0 -8.552 -5.175)"><stop offset="0" stop-opacity=".314"/><stop offset=".222" stop-opacity=".275"/><stop offset="1" stop-opacity="0"/></radialGradient><radialGradient id="c" gradientUnits="userSpaceOnUse" cx="450.909" cy="189.579" fx="450.909" fy="189.579" r="21.167" gradientTransform="matrix(0 -.05372 .09669 0 -8.552 43.722)"><stop offset="0" stop-opacity=".314"/><stop offset=".222" stop-opacity=".275"/><stop offset="1" stop-opacity="0"/></radialGradient><radialGradient id="d" gradientUnits="userSpaceOnUse" cx="450.909" cy="189.579" fx="450.909" fy="189.579" r="21.167" gradientTransform="matrix(0 .05372 -.09669 0 30.382 -5.175)"><stop offset="0" stop-opacity=".314"/><stop offset=".222" stop-opacity=".275"/><stop offset="1" stop-opacity="0"/></radialGradient><linearGradient id="e" gradientUnits="userSpaceOnUse" x1="255.323" y1="233.5" x2="255.323" y2="254.667" gradientTransform="matrix(.00919 0 0 .04297 8.57 9.24)"><stop offset="0" stop-opacity=".275"/><stop offset="1" stop-opacity="0"/></linearGradient><linearGradient id="f" gradientUnits="userSpaceOnUse" x1="254" y1="-168.667" x2="254" y2="32.417"><stop offset="0" stop-color="#ffd54f"/><stop offset="1" stop-color="#ffca28"/></linearGradient><linearGradient id="g" gradientUnits="userSpaceOnUse" x1="254" y1="-168.667" x2="254" y2="32.416" gradientTransform="rotate(180 254 32.417)"><stop offset="0" stop-color="#ef5350"/><stop offset="1" stop-color="#e57373"/></linearGradient><linearGradient id="h" gradientUnits="userSpaceOnUse" x1="275.167" y1="32.417" x2="275.167" y2="-168.667" gradientTransform="matrix(3.77953 0 0 3.77953 0 812.598)"><stop offset="0" stop-color="#66bb6a"/><stop offset="1" stop-color="#81c784"/></linearGradient><linearGradient id="i" gradientUnits="userSpaceOnUse" x1="254" y1="-168.667" x2="254" y2="32.417"><stop offset="0" stop-color="#80deea"/><stop offset="1" stop-color="#26c6da"/></linearGradient><linearGradient id="j" gradientUnits="userSpaceOnUse" x1="232.833" y1="32.416" x2="232.833" y2="-168.667" gradientTransform="matrix(1 0 0 -1 0 64.833)"><stop offset="0" stop-color="#64b5f6"/><stop offset="1" stop-color="#42a5f5"/></linearGradient><linearGradient id="k" gradientUnits="userSpaceOnUse" x1="111.812" y1="-109.771" x2="254" y2="32.417" gradientTransform="rotate(-135 254 32.416)"><stop offset="0" stop-color="#ec407a"/><stop offset="1" stop-color="#f06292"/></linearGradient><linearGradient id="l" gradientUnits="userSpaceOnUse" x1="254" y1="-168.667" x2="254" y2="32.417" gradientTransform="matrix(-1 0 0 1 508 0)"><stop offset="0" stop-color="#ff8a65"/><stop offset="1" stop-color="#ff7043"/></linearGradient><linearGradient id="m" gradientUnits="userSpaceOnUse" x1="111.812" y1="-109.771" x2="254" y2="32.417" gradientTransform="scale(1 -1) rotate(45 331.916 -.83)"><stop offset="0" stop-color="#7e57c2"/><stop offset="1" stop-color="#9575cd"/></linearGradient><linearGradient id="n" gradientUnits="userSpaceOnUse" x1="243.417" y1="-20.5" x2="243.417" y2="85.333" gradientTransform="matrix(1.8 0 0 1.8 -203.2 -25.933)"><stop offset="0" stop-color="#b0bec5"/><stop offset="1" stop-color="#cfd8dc"/></linearGradient></defs><path d="M12.281 19.273h1.817v-.91H12.28zm0 0" fill="url(#a)"/><path d="M9.55 19.273H7.73v.91h1.82zm0 0" fill="url(#b)"/><path d="M9.55 19.273H7.73v-.91h1.82zm0 0" fill="url(#c)"/><path d="M12.281 19.273h1.817v.91H12.28zm0 0" fill="url(#d)"/><path d="M9.55 18.82h2.731v1.364h-2.73zm0 0" fill="url(#e)"/><path d="M253.976-168.64c111.08 0 201.071 89.99 201.071 201.07 0 111.081-89.991 201.073-201.071 201.073-110.99 0-201.072-89.992-201.072-201.072s90.082-201.072 201.072-201.072zm0 0" transform="matrix(.04297 0 0 .04297 0 9.24)" fill="url(#f)" stroke-width="3" stroke-linecap="round" stroke="#333"/><path d="M253.976 233.503c111.444 0 201.071-89.72 201.071-201.072H253.976zm0 0" transform="matrix(.04297 0 0 .04297 0 9.24)" fill="url(#g)" stroke-width="3" stroke-linecap="round" stroke="#333"/><path d="M959.908 175.216c-420.861 0-759.956 338.75-759.956 759.956h759.956zm0 0" transform="rotate(.24) scale(.01137)" fill="url(#h)" stroke-width="11.339" stroke-linecap="round" stroke="#333"/><path d="M111.717-109.92C75.357-73.558 52.904-23.29 52.904 32.43h201.072zm0 0" transform="matrix(.04297 0 0 .04297 0 9.24)" fill="url(#i)" stroke-width="3" stroke-linecap="round" stroke="#333"/><path d="M253.976 233.503c-111.353 0-201.072-89.72-201.072-201.072h201.072zm0 0" transform="matrix(.04297 0 0 .04297 0 9.24)" fill="url(#j)" stroke-width="3" stroke-linecap="round" stroke="#333"/><path d="M253.976 233.684c51.45 0 102.808-19.725 142.168-59.085L253.976 32.431zm0 0" transform="matrix(.04297 0 0 .04297 0 9.24)" fill="url(#k)" stroke-width="3" stroke-linecap="round" stroke="#333"/><path d="M396.326-109.92c36.36 36.361 58.721 86.629 58.721 142.35H253.976zm0 0" transform="matrix(.04297 0 0 .04297 0 9.24)" fill="url(#l)" stroke-width="3" stroke-linecap="round" stroke="#333"/><path d="M253.34 233.684c-51.45 0-102.809-19.725-142.26-59.085L253.34 32.431zm0 0" transform="matrix(.04297 0 0 .04297 0 9.24)" fill="url(#m)" stroke-width="3" stroke-linecap="round" stroke="#333"/><path d="M10.914 19.273a8.624 8.624 0 0 1-8.64-8.64v-.086a8.624 8.624 0 0 0 8.64 8.558 8.62 8.62 0 0 0 8.64-8.558v.086a8.621 8.621 0 0 1-8.64 8.64zm0 0" fill-opacity=".196"/><path d="M10.914 1.992a8.621 8.621 0 0 0-8.64 8.64v.087a8.624 8.624 0 0 1 8.64-8.559 8.62 8.62 0 0 1 8.64 8.559v-.086c0-4.79-3.85-8.64-8.64-8.64zm0 0" fill="#fff" fill-opacity=".392"/><path d="M10.914 1.926a8.686 8.686 0 0 0-8.703 8.707 8.686 8.686 0 0 0 8.703 8.703 8.686 8.686 0 0 0 8.707-8.703 8.687 8.687 0 0 0-8.707-8.707zm0 .129a8.557 8.557 0 0 1 8.578 8.578 8.556 8.556 0 0 1-8.578 8.574 8.556 8.556 0 0 1-8.574-8.574 8.556 8.556 0 0 1 8.574-8.578zm0 0" fill="#212121"/><path d="M253.976-62.833c52.631 0 95.263 42.633 95.263 95.264 0 52.631-42.632 95.264-95.263 95.264-52.54 0-95.264-42.633-95.264-95.264 0-52.631 42.723-95.264 95.264-95.264zm0 0" transform="matrix(.04297 0 0 .04297 0 9.24)" fill="url(#n)" stroke-width="3" stroke-linecap="square" stroke-linejoin="round" stroke="#212121"/></svg>