<?xml version="1.0" encoding="UTF-8"?>
<svg xmlns="http://www.w3.org/2000/svg" xmlns:xlink="http://www.w3.org/1999/xlink" width="22px" height="22px" viewBox="0 0 22 22" version="1.1">
<defs>
<linearGradient id="linear0" gradientUnits="userSpaceOnUse" x1="254" y1="233.5" x2="254" y2="254.666672" gradientTransform="matrix(0.0429729,0,0,0.0429729,-0.454803,9.239163)">
<stop offset="0" style="stop-color:rgb(0%,0%,0%);stop-opacity:0.27451;"/>
<stop offset="1" style="stop-color:rgb(0%,0%,0%);stop-opacity:0;"/>
</linearGradient>
<radialGradient id="radial0" gradientUnits="userSpaceOnUse" cx="450.908936" cy="189.579361" fx="450.908936" fy="189.579361" r="21.166656" gradientTransform="matrix(0.000000119742,-0.0537161,-0.0966889,-0.0000000698078,36.749411,43.721791)">
<stop offset="0" style="stop-color:rgb(0%,0%,0%);stop-opacity:0.313726;"/>
<stop offset="0.222222" style="stop-color:rgb(0%,0%,0%);stop-opacity:0.27451;"/>
<stop offset="1" style="stop-color:rgb(0%,0%,0%);stop-opacity:0;"/>
</radialGradient>
<radialGradient id="radial1" gradientUnits="userSpaceOnUse" cx="450.908936" cy="189.579361" fx="450.908936" fy="189.579361" r="21.166656" gradientTransform="matrix(-0.000000119742,0.0537161,0.0966889,0.0000000698078,-14.919199,-5.175142)">
<stop offset="0" style="stop-color:rgb(0%,0%,0%);stop-opacity:0.313726;"/>
<stop offset="0.222222" style="stop-color:rgb(0%,0%,0%);stop-opacity:0.27451;"/>
<stop offset="1" style="stop-color:rgb(0%,0%,0%);stop-opacity:0;"/>
</radialGradient>
<radialGradient id="radial2" gradientUnits="userSpaceOnUse" cx="450.908936" cy="189.579361" fx="450.908936" fy="189.579361" r="21.166656" gradientTransform="matrix(-0.000000119742,-0.0537161,0.0966889,-0.0000000698078,-14.919199,43.721791)">
<stop offset="0" style="stop-color:rgb(0%,0%,0%);stop-opacity:0.313726;"/>
<stop offset="0.222222" style="stop-color:rgb(0%,0%,0%);stop-opacity:0.27451;"/>
<stop offset="1" style="stop-color:rgb(0%,0%,0%);stop-opacity:0;"/>
</radialGradient>
<radialGradient id="radial3" gradientUnits="userSpaceOnUse" cx="450.908936" cy="189.579361" fx="450.908936" fy="189.579361" r="21.166656" gradientTransform="matrix(0.000000119742,0.0537161,-0.0966889,0.0000000698078,36.74941,-5.175142)">
<stop offset="0" style="stop-color:rgb(0%,0%,0%);stop-opacity:0.313726;"/>
<stop offset="0.222222" style="stop-color:rgb(0%,0%,0%);stop-opacity:0.27451;"/>
<stop offset="1" style="stop-color:rgb(0%,0%,0%);stop-opacity:0;"/>
</radialGradient>
<linearGradient id="linear1" gradientUnits="userSpaceOnUse" x1="306.752655" y1="-16.485477" x2="305.954529" y2="-141.414581" gradientTransform="matrix(0.0495506,0,0,0.131056,-3.375079,21.433838)">
<stop offset="0" style="stop-color:rgb(74.117649%,74.117649%,74.117649%);stop-opacity:1;"/>
<stop offset="1" style="stop-color:rgb(87.843138%,87.843138%,87.843138%);stop-opacity:1;"/>
</linearGradient>
<linearGradient id="linear2" gradientUnits="userSpaceOnUse" x1="254" y1="233.5" x2="254" y2="-147.5" gradientTransform="matrix(0.0429729,0,0,0.0429729,0,9.239163)">
<stop offset="0" style="stop-color:rgb(25.882354%,25.882354%,25.882354%);stop-opacity:1;"/>
<stop offset="1" style="stop-color:rgb(38.039216%,38.039216%,38.039216%);stop-opacity:1;"/>
</linearGradient>
<linearGradient id="linear3" gradientUnits="userSpaceOnUse" x1="444.5" y1="85.333336" x2="63.499989" y2="85.333336" gradientTransform="matrix(0.000000000000000003,0.0429729,-0.0429729,0.000000000000000003,10.034162,0.626688)">
<stop offset="0" style="stop-color:rgb(40.000001%,73.333335%,41.568628%);stop-opacity:1;"/>
<stop offset="1" style="stop-color:rgb(50.588238%,78.039217%,51.764709%);stop-opacity:1;"/>
</linearGradient>
<linearGradient id="linear4" gradientUnits="userSpaceOnUse" x1="444.5" y1="64.166672" x2="63.499989" y2="64.166672" gradientTransform="matrix(0.000000000000000003,0.0429729,-0.0429729,0.000000000000000003,10.034162,0.626688)">
<stop offset="0" style="stop-color:rgb(95.686275%,26.274511%,21.176471%);stop-opacity:1;"/>
<stop offset="1" style="stop-color:rgb(93.725491%,32.549021%,31.37255%);stop-opacity:1;"/>
</linearGradient>
<linearGradient id="linear5" gradientUnits="userSpaceOnUse" x1="444.5" y1="117.083344" x2="63.499989" y2="117.083344" gradientTransform="matrix(0.000000000000000003,0.0429729,-0.0429729,0.000000000000000003,10.034162,0.626688)">
<stop offset="0" style="stop-color:rgb(25.882354%,64.705884%,96.078432%);stop-opacity:1;"/>
<stop offset="1" style="stop-color:rgb(39.215687%,70.980394%,96.470588%);stop-opacity:1;"/>
</linearGradient>
<linearGradient id="linear6" gradientUnits="userSpaceOnUse" x1="444.5" y1="85.333336" x2="63.499989" y2="85.333336" gradientTransform="matrix(0.000000000000000003,0.0429729,-0.0429729,0.000000000000000003,14.127326,0.626688)">
<stop offset="0" style="stop-color:rgb(95.686275%,26.274511%,21.176471%);stop-opacity:1;"/>
<stop offset="1" style="stop-color:rgb(93.725491%,32.549021%,31.37255%);stop-opacity:1;"/>
</linearGradient>
<linearGradient id="linear7" gradientUnits="userSpaceOnUse" x1="444.5" y1="64.166672" x2="63.499989" y2="64.166672" gradientTransform="matrix(0.000000000000000003,0.0429729,-0.0429729,0.000000000000000003,14.127326,0.626688)">
<stop offset="0" style="stop-color:rgb(25.882354%,64.705884%,96.078432%);stop-opacity:1;"/>
<stop offset="1" style="stop-color:rgb(39.215687%,70.980394%,96.470588%);stop-opacity:1;"/>
</linearGradient>
<linearGradient id="linear8" gradientUnits="userSpaceOnUse" x1="444.5" y1="117.083344" x2="63.499989" y2="117.083344" gradientTransform="matrix(0.000000000000000003,0.0429729,-0.0429729,0.000000000000000003,14.127326,0.626688)">
<stop offset="0" style="stop-color:rgb(40.000001%,73.333335%,41.568628%);stop-opacity:1;"/>
<stop offset="1" style="stop-color:rgb(50.588238%,78.039217%,51.764709%);stop-opacity:1;"/>
</linearGradient>
<linearGradient id="linear9" gradientUnits="userSpaceOnUse" x1="444.5" y1="85.333336" x2="63.499989" y2="85.333336" gradientTransform="matrix(0.000000000000000003,0.0429729,-0.0429729,0.000000000000000003,18.22049,0.626688)">
<stop offset="0" style="stop-color:rgb(25.882354%,64.705884%,96.078432%);stop-opacity:1;"/>
<stop offset="1" style="stop-color:rgb(39.215687%,70.980394%,96.470588%);stop-opacity:1;"/>
</linearGradient>
<linearGradient id="linear10" gradientUnits="userSpaceOnUse" x1="444.5" y1="64.166672" x2="63.499989" y2="64.166672" gradientTransform="matrix(0.000000000000000003,0.0429729,-0.0429729,0.000000000000000003,18.22049,0.626688)">
<stop offset="0" style="stop-color:rgb(40.000001%,73.333335%,41.568628%);stop-opacity:1;"/>
<stop offset="1" style="stop-color:rgb(50.588238%,78.039217%,51.764709%);stop-opacity:1;"/>
</linearGradient>
<linearGradient id="linear11" gradientUnits="userSpaceOnUse" x1="444.5" y1="117.083344" x2="63.499989" y2="117.083344" gradientTransform="matrix(0.000000000000000003,0.0429729,-0.0429729,0.000000000000000003,18.22049,0.626688)">
<stop offset="0" style="stop-color:rgb(95.686275%,26.274511%,21.176471%);stop-opacity:1;"/>
<stop offset="1" style="stop-color:rgb(93.725491%,32.549021%,31.37255%);stop-opacity:1;"/>
</linearGradient>
</defs>
<g id="surface1">
<path style=" stroke:none;fill-rule:nonzero;fill:url(#linear0);" d="M 3.183594 19.324219 L 18.648438 19.324219 L 18.648438 20.183594 L 3.183594 20.183594 Z M 3.183594 19.324219 "/>
<path style=" stroke:none;fill-rule:nonzero;fill:url(#radial0);" d="M 18.648438 19.273438 L 20.464844 19.273438 L 20.464844 18.363281 L 18.648438 18.363281 Z M 18.648438 19.273438 "/>
<path style=" stroke:none;fill-rule:nonzero;fill:url(#radial1);" d="M 3.183594 19.273438 L 1.363281 19.273438 L 1.363281 20.183594 L 3.183594 20.183594 Z M 3.183594 19.273438 "/>
<path style=" stroke:none;fill-rule:nonzero;fill:url(#radial2);" d="M 3.183594 19.273438 L 1.363281 19.273438 L 1.363281 18.363281 L 3.183594 18.363281 Z M 3.183594 19.273438 "/>
<path style=" stroke:none;fill-rule:nonzero;fill:url(#radial3);" d="M 18.648438 19.273438 L 20.464844 19.273438 L 20.464844 20.183594 L 18.648438 20.183594 Z M 18.648438 19.273438 "/>
<path style=" stroke:none;fill-rule:nonzero;fill:url(#linear1);" d="M 2.273438 2.902344 L 19.554688 2.902344 C 20.058594 2.902344 20.464844 3.285156 20.464844 3.757812 L 20.464844 18.414062 C 20.464844 18.890625 20.058594 19.273438 19.554688 19.273438 L 2.273438 19.273438 C 1.773438 19.273438 1.363281 18.890625 1.363281 18.414062 L 1.363281 3.757812 C 1.363281 3.285156 1.773438 2.902344 2.273438 2.902344 Z M 2.273438 2.902344 "/>
<path style=" stroke:none;fill-rule:nonzero;fill:url(#linear2);" d="M 2.730469 3.808594 L 19.101562 3.808594 C 19.351562 3.808594 19.554688 4.015625 19.554688 4.265625 L 19.554688 17.910156 C 19.554688 18.160156 19.351562 18.363281 19.101562 18.363281 L 2.730469 18.363281 C 2.476562 18.363281 2.273438 18.160156 2.273438 17.910156 L 2.273438 4.265625 C 2.273438 4.015625 2.476562 3.808594 2.730469 3.808594 Z M 2.730469 3.808594 "/>
<path style=" stroke:none;fill-rule:nonzero;fill:rgb(100%,100%,100%);fill-opacity:0.588235;" d="M 2.273438 2.902344 C 1.769531 2.902344 1.363281 3.285156 1.363281 3.757812 L 1.363281 3.988281 C 1.363281 3.511719 1.769531 3.128906 2.273438 3.128906 L 19.554688 3.128906 C 20.058594 3.128906 20.464844 3.511719 20.464844 3.988281 L 20.464844 3.757812 C 20.464844 3.285156 20.058594 2.902344 19.554688 2.902344 Z M 2.273438 2.902344 "/>
<path style=" stroke:none;fill-rule:nonzero;fill:rgb(0%,0%,0%);fill-opacity:0.235294;" d="M 2.273438 19.28125 C 1.769531 19.28125 1.363281 18.898438 1.363281 18.421875 L 1.363281 18.191406 C 1.363281 18.667969 1.769531 19.050781 2.273438 19.050781 L 19.554688 19.050781 C 20.058594 19.050781 20.464844 18.667969 20.464844 18.191406 L 20.464844 18.421875 C 20.464844 18.898438 20.058594 19.28125 19.554688 19.28125 Z M 2.273438 19.28125 "/>
<path style="fill:none;stroke-width:3;stroke-linecap:round;stroke-linejoin:miter;stroke:rgb(12.941177%,12.941177%,12.941177%);stroke-opacity:1;stroke-miterlimit:4;" d="M 52.904039 -147.460995 L 455.047454 -147.460995 C 466.773607 -147.460995 476.22725 -138.552755 476.22725 -127.553805 L 476.22725 213.504534 C 476.22725 224.594384 466.773607 233.502625 455.047454 233.502625 L 52.904039 233.502625 C 41.268786 233.502625 31.724243 224.594384 31.724243 213.504534 L 31.724243 -127.553805 C 31.724243 -138.552755 41.268786 -147.460995 52.904039 -147.460995 Z M 52.904039 -147.460995 " transform="matrix(0.0429729,0,0,0.0429729,0,9.239163)"/>
<path style=" stroke:none;fill-rule:nonzero;fill:rgb(0%,0%,0%);fill-opacity:0.235294;" d="M 2.730469 3.867188 C 2.476562 3.867188 2.273438 4.070312 2.273438 4.320312 L 2.273438 4.492188 C 2.273438 4.242188 2.476562 4.039062 2.730469 4.039062 L 19.101562 4.039062 C 19.351562 4.039062 19.554688 4.242188 19.554688 4.492188 L 19.554688 4.320312 C 19.554688 4.070312 19.351562 3.867188 19.101562 3.867188 Z M 2.730469 3.867188 "/>
<path style=" stroke:none;fill-rule:nonzero;fill:rgb(100%,100%,100%);fill-opacity:0.588235;" d="M 2.730469 18.597656 C 2.476562 18.597656 2.273438 18.394531 2.273438 18.140625 L 2.273438 17.96875 C 2.273438 18.222656 2.476562 18.425781 2.730469 18.425781 L 19.101562 18.425781 C 19.351562 18.425781 19.554688 18.222656 19.554688 17.96875 L 19.554688 18.140625 C 19.554688 18.394531 19.351562 18.597656 19.101562 18.597656 Z M 2.730469 18.597656 "/>
<path style="fill:none;stroke-width:3;stroke-linecap:round;stroke-linejoin:round;stroke:rgb(12.941177%,12.941177%,12.941177%);stroke-opacity:1;stroke-miterlimit:4;" d="M 63.539387 -126.3721 L 444.503007 -126.3721 C 450.320633 -126.3721 455.047454 -121.554378 455.047454 -115.736752 L 455.047454 201.778381 C 455.047454 207.596008 450.320633 212.322829 444.503007 212.322829 L 63.539387 212.322829 C 57.63086 212.322829 52.904039 207.596008 52.904039 201.778381 L 52.904039 -115.736752 C 52.904039 -121.554378 57.63086 -126.3721 63.539387 -126.3721 Z M 63.539387 -126.3721 " transform="matrix(0.0429729,0,0,0.0429729,0,9.239163)"/>
<path style=" stroke:none;fill-rule:nonzero;fill:rgb(100%,100%,100%);fill-opacity:0.0588235;" d="M 2.730469 3.808594 C 2.476562 3.808594 2.273438 4.011719 2.273438 4.265625 L 2.273438 7.957031 C 7.351562 7.320312 12.652344 6.984375 18.101562 6.984375 C 18.589844 6.984375 19.074219 6.988281 19.554688 6.992188 L 19.554688 4.265625 C 19.554688 4.011719 19.351562 3.808594 19.101562 3.808594 Z M 2.730469 3.808594 "/>
<path style="fill-rule:nonzero;fill:rgb(100%,100%,100%);fill-opacity:0.196078;stroke-width:11.338583;stroke-linecap:round;stroke-linejoin:round;stroke:rgb(12.941177%,12.941177%,12.941177%);stroke-opacity:1;stroke-miterlimit:4;" d="M 1640.108781 415.021205 C 1617.77734 415.021205 1599.912188 432.886358 1599.912188 455.217798 L 1599.912188 695.023114 C 1599.912188 717.354554 1617.77734 735.219707 1640.108781 735.219707 L 1799.864471 735.219707 L 1799.864471 415.021205 Z M 1640.108781 415.021205 " transform="matrix(0.0113699,0,0,0.0113699,-0.909592,0.000000327857)"/>
<path style="fill-rule:nonzero;fill:rgb(100%,100%,100%);fill-opacity:0.196078;stroke-width:11.338583;stroke-linecap:round;stroke-linejoin:round;stroke:rgb(12.941177%,12.941177%,12.941177%);stroke-opacity:1;stroke-miterlimit:4;" d="M 1640.108781 815.26939 C 1617.77734 815.26939 1599.912188 832.790982 1599.912188 855.122422 L 1599.912188 1095.271299 C 1599.912188 1117.259178 1617.77734 1135.124331 1640.108781 1135.124331 L 1799.864471 1135.124331 L 1799.864471 815.26939 Z M 1640.108781 815.26939 " transform="matrix(0.0113699,0,0,0.0113699,-0.909592,-0.000000327857)"/>
<path style="fill-rule:nonzero;fill:rgb(100%,100%,100%);fill-opacity:0.196078;stroke-width:11.338583;stroke-linecap:round;stroke-linejoin:round;stroke:rgb(12.941177%,12.941177%,12.941177%);stroke-opacity:1;stroke-miterlimit:4;" d="M 1640.108781 1215.173928 C 1617.77734 1215.173928 1599.912188 1233.03908 1599.912188 1255.02696 L 1599.912188 1495.175836 C 1599.912188 1517.163716 1617.77734 1535.028869 1640.108781 1535.028869 L 1799.864471 1535.028869 L 1799.864471 1215.173928 Z M 1640.108781 1215.173928 " transform="matrix(0.0113699,0,0,0.0113699,-0.909592,0)"/>
<path style=" stroke:none;fill-rule:nonzero;fill:url(#linear3);" d="M 6.367188 9.949219 L 6.367188 12.222656 C 6.367188 12.347656 6.265625 12.453125 6.140625 12.453125 L 3.867188 12.453125 C 3.738281 12.453125 3.636719 12.347656 3.636719 12.222656 L 3.636719 9.949219 C 3.636719 9.824219 3.738281 9.722656 3.867188 9.722656 L 6.140625 9.722656 C 6.265625 9.722656 6.367188 9.824219 6.367188 9.949219 Z M 6.367188 9.949219 "/>
<path style=" stroke:none;fill-rule:nonzero;fill:url(#linear4);" d="M 6.367188 5.402344 L 6.367188 7.675781 C 6.367188 7.800781 6.265625 7.902344 6.140625 7.902344 L 3.867188 7.902344 C 3.738281 7.902344 3.636719 7.800781 3.636719 7.675781 L 3.636719 5.402344 C 3.636719 5.277344 3.738281 5.175781 3.867188 5.175781 L 6.140625 5.175781 C 6.265625 5.175781 6.367188 5.277344 6.367188 5.402344 Z M 6.367188 5.402344 "/>
<path style=" stroke:none;fill-rule:nonzero;fill:url(#linear5);" d="M 6.367188 14.496094 L 6.367188 16.773438 C 6.367188 16.898438 6.265625 17 6.140625 17 L 3.867188 17 C 3.738281 17 3.636719 16.898438 3.636719 16.773438 L 3.636719 14.496094 C 3.636719 14.371094 3.738281 14.269531 3.867188 14.269531 L 6.140625 14.269531 C 6.265625 14.269531 6.367188 14.371094 6.367188 14.496094 Z M 6.367188 14.496094 "/>
<path style=" stroke:none;fill-rule:nonzero;fill:rgb(100%,100%,100%);fill-opacity:0.392157;" d="M 3.867188 5.175781 C 3.738281 5.175781 3.636719 5.277344 3.636719 5.402344 L 3.636719 5.628906 C 3.636719 5.503906 3.738281 5.402344 3.867188 5.402344 L 6.140625 5.402344 C 6.265625 5.402344 6.367188 5.503906 6.367188 5.628906 L 6.367188 5.402344 C 6.367188 5.277344 6.265625 5.175781 6.140625 5.175781 Z M 3.867188 9.722656 C 3.738281 9.722656 3.636719 9.824219 3.636719 9.949219 L 3.636719 10.175781 C 3.636719 10.050781 3.738281 9.949219 3.867188 9.949219 L 6.140625 9.949219 C 6.265625 9.949219 6.367188 10.050781 6.367188 10.175781 L 6.367188 9.949219 C 6.367188 9.824219 6.265625 9.722656 6.140625 9.722656 Z M 3.867188 14.269531 C 3.738281 14.269531 3.636719 14.371094 3.636719 14.496094 L 3.636719 14.726562 C 3.636719 14.597656 3.738281 14.496094 3.867188 14.496094 L 6.140625 14.496094 C 6.265625 14.496094 6.367188 14.597656 6.367188 14.726562 L 6.367188 14.496094 C 6.367188 14.371094 6.265625 14.269531 6.140625 14.269531 Z M 3.867188 14.269531 "/>
<path style=" stroke:none;fill-rule:nonzero;fill:rgb(0%,0%,0%);fill-opacity:0.235294;" d="M 3.867188 17.226562 C 3.738281 17.226562 3.636719 17.125 3.636719 17 L 3.636719 16.773438 C 3.636719 16.898438 3.738281 17 3.867188 17 L 6.140625 17 C 6.265625 17 6.367188 16.898438 6.367188 16.773438 L 6.367188 17 C 6.367188 17.125 6.265625 17.226562 6.140625 17.226562 Z M 3.867188 12.679688 C 3.738281 12.679688 3.636719 12.578125 3.636719 12.453125 L 3.636719 12.222656 C 3.636719 12.351562 3.738281 12.453125 3.867188 12.453125 L 6.140625 12.453125 C 6.265625 12.453125 6.367188 12.351562 6.367188 12.222656 L 6.367188 12.453125 C 6.367188 12.578125 6.265625 12.679688 6.140625 12.679688 Z M 3.867188 8.128906 C 3.738281 8.128906 3.636719 8.03125 3.636719 7.902344 L 3.636719 7.675781 C 3.636719 7.800781 3.738281 7.902344 3.867188 7.902344 L 6.140625 7.902344 C 6.265625 7.902344 6.367188 7.800781 6.367188 7.675781 L 6.367188 7.902344 C 6.367188 8.03125 6.265625 8.128906 6.140625 8.128906 Z M 3.867188 8.128906 "/>
<path style="fill:none;stroke-width:3;stroke-linecap:round;stroke-linejoin:round;stroke:rgb(12.941177%,12.941177%,12.941177%);stroke-opacity:1;stroke-miterlimit:4;" d="M 16.523345 -148.167669 L 69.427384 -148.167669 C 72.336197 -148.167669 74.790508 -145.804258 74.790508 -142.895445 L 74.790508 -89.991406 C 74.790508 -86.991693 72.336197 -84.628282 69.427384 -84.628282 L 16.523345 -84.628282 C 13.614532 -84.628282 11.251121 -86.991693 11.251121 -89.991406 L 11.251121 -142.895445 C 11.251121 -145.804258 13.614532 -148.167669 16.523345 -148.167669 Z M 16.523345 -148.167669 " transform="matrix(0.000000000000000003,0.0429729,-0.0429729,0.000000000000000003,0,9.239163)"/>
<path style="fill:none;stroke-width:3;stroke-linecap:round;stroke-linejoin:round;stroke:rgb(12.941177%,12.941177%,12.941177%);stroke-opacity:1;stroke-miterlimit:4;" d="M -89.284732 -148.167669 L -36.380694 -148.167669 C -33.471881 -148.167669 -31.10847 -145.804258 -31.10847 -142.895445 L -31.10847 -89.991406 C -31.10847 -86.991693 -33.471881 -84.628282 -36.380694 -84.628282 L -89.284732 -84.628282 C -92.193546 -84.628282 -94.556956 -86.991693 -94.556956 -89.991406 L -94.556956 -142.895445 C -94.556956 -145.804258 -92.193546 -148.167669 -89.284732 -148.167669 Z M -89.284732 -148.167669 " transform="matrix(0.000000000000000003,0.0429729,-0.0429729,0.000000000000000003,0,9.239163)"/>
<path style="fill:none;stroke-width:3;stroke-linecap:round;stroke-linejoin:round;stroke:rgb(12.941177%,12.941177%,12.941177%);stroke-opacity:1;stroke-miterlimit:4;" d="M 122.331423 -148.167669 L 175.326362 -148.167669 C 178.235175 -148.167669 180.598586 -145.804258 180.598586 -142.895445 L 180.598586 -89.991406 C 180.598586 -86.991693 178.235175 -84.628282 175.326362 -84.628282 L 122.331423 -84.628282 C 119.42261 -84.628282 117.059199 -86.991693 117.059199 -89.991406 L 117.059199 -142.895445 C 117.059199 -145.804258 119.42261 -148.167669 122.331423 -148.167669 Z M 122.331423 -148.167669 " transform="matrix(0.000000000000000003,0.0429729,-0.0429729,0.000000000000000003,0,9.239163)"/>
<path style=" stroke:none;fill-rule:nonzero;fill:url(#linear6);" d="M 10.460938 9.949219 L 10.460938 12.222656 C 10.460938 12.347656 10.359375 12.453125 10.234375 12.453125 L 7.957031 12.453125 C 7.832031 12.453125 7.730469 12.347656 7.730469 12.222656 L 7.730469 9.949219 C 7.730469 9.824219 7.832031 9.722656 7.957031 9.722656 L 10.234375 9.722656 C 10.359375 9.722656 10.460938 9.824219 10.460938 9.949219 Z M 10.460938 9.949219 "/>
<path style=" stroke:none;fill-rule:nonzero;fill:url(#linear7);" d="M 10.460938 5.402344 L 10.460938 7.675781 C 10.460938 7.800781 10.359375 7.902344 10.234375 7.902344 L 7.957031 7.902344 C 7.832031 7.902344 7.730469 7.800781 7.730469 7.675781 L 7.730469 5.402344 C 7.730469 5.277344 7.832031 5.175781 7.957031 5.175781 L 10.234375 5.175781 C 10.359375 5.175781 10.460938 5.277344 10.460938 5.402344 Z M 10.460938 5.402344 "/>
<path style=" stroke:none;fill-rule:nonzero;fill:url(#linear8);" d="M 10.460938 14.496094 L 10.460938 16.773438 C 10.460938 16.898438 10.359375 17 10.234375 17 L 7.957031 17 C 7.832031 17 7.730469 16.898438 7.730469 16.773438 L 7.730469 14.496094 C 7.730469 14.371094 7.832031 14.269531 7.957031 14.269531 L 10.234375 14.269531 C 10.359375 14.269531 10.460938 14.371094 10.460938 14.496094 Z M 10.460938 14.496094 "/>
<path style=" stroke:none;fill-rule:nonzero;fill:rgb(100%,100%,100%);fill-opacity:0.392157;" d="M 7.957031 5.175781 C 7.832031 5.175781 7.730469 5.277344 7.730469 5.402344 L 7.730469 5.628906 C 7.730469 5.503906 7.832031 5.402344 7.957031 5.402344 L 10.234375 5.402344 C 10.359375 5.402344 10.460938 5.503906 10.460938 5.628906 L 10.460938 5.402344 C 10.460938 5.277344 10.359375 5.175781 10.234375 5.175781 Z M 7.957031 9.722656 C 7.832031 9.722656 7.730469 9.824219 7.730469 9.949219 L 7.730469 10.175781 C 7.730469 10.050781 7.832031 9.949219 7.957031 9.949219 L 10.234375 9.949219 C 10.359375 9.949219 10.460938 10.050781 10.460938 10.175781 L 10.460938 9.949219 C 10.460938 9.824219 10.359375 9.722656 10.234375 9.722656 Z M 7.957031 14.269531 C 7.832031 14.269531 7.730469 14.371094 7.730469 14.496094 L 7.730469 14.726562 C 7.730469 14.597656 7.832031 14.496094 7.957031 14.496094 L 10.234375 14.496094 C 10.359375 14.496094 10.460938 14.597656 10.460938 14.726562 L 10.460938 14.496094 C 10.460938 14.371094 10.359375 14.269531 10.234375 14.269531 Z M 7.957031 14.269531 "/>
<path style=" stroke:none;fill-rule:nonzero;fill:rgb(0%,0%,0%);fill-opacity:0.235294;" d="M 7.957031 17.226562 C 7.832031 17.226562 7.730469 17.125 7.730469 17 L 7.730469 16.773438 C 7.730469 16.898438 7.832031 17 7.957031 17 L 10.234375 17 C 10.359375 17 10.460938 16.898438 10.460938 16.773438 L 10.460938 17 C 10.460938 17.125 10.359375 17.226562 10.234375 17.226562 Z M 7.957031 12.679688 C 7.832031 12.679688 7.730469 12.578125 7.730469 12.453125 L 7.730469 12.222656 C 7.730469 12.351562 7.832031 12.453125 7.957031 12.453125 L 10.234375 12.453125 C 10.359375 12.453125 10.460938 12.351562 10.460938 12.222656 L 10.460938 12.453125 C 10.460938 12.578125 10.359375 12.679688 10.234375 12.679688 Z M 7.957031 8.128906 C 7.832031 8.128906 7.730469 8.03125 7.730469 7.902344 L 7.730469 7.675781 C 7.730469 7.800781 7.832031 7.902344 7.957031 7.902344 L 10.234375 7.902344 C 10.359375 7.902344 10.460938 7.800781 10.460938 7.675781 L 10.460938 7.902344 C 10.460938 8.03125 10.359375 8.128906 10.234375 8.128906 Z M 7.957031 8.128906 "/>
<path style="fill:none;stroke-width:3;stroke-linecap:round;stroke-linejoin:round;stroke:rgb(12.941177%,12.941177%,12.941177%);stroke-opacity:1;stroke-miterlimit:4;" d="M 16.523345 -148.181299 L 69.427384 -148.181299 C 72.336197 -148.181299 74.790508 -145.817888 74.790508 -142.909075 L 74.790508 -89.914136 C 74.790508 -87.005323 72.336197 -84.641912 69.427384 -84.641912 L 16.523345 -84.641912 C 13.614532 -84.641912 11.251121 -87.005323 11.251121 -89.914136 L 11.251121 -142.909075 C 11.251121 -145.817888 13.614532 -148.181299 16.523345 -148.181299 Z M 16.523345 -148.181299 " transform="matrix(0.000000000000000003,0.0429729,-0.0429729,0.000000000000000003,4.093164,9.239163)"/>
<path style="fill:none;stroke-width:3;stroke-linecap:round;stroke-linejoin:round;stroke:rgb(12.941177%,12.941177%,12.941177%);stroke-opacity:1;stroke-miterlimit:4;" d="M -89.284732 -148.181299 L -36.380694 -148.181299 C -33.471881 -148.181299 -31.10847 -145.817888 -31.10847 -142.909075 L -31.10847 -89.914136 C -31.10847 -87.005323 -33.471881 -84.641912 -36.380694 -84.641912 L -89.284732 -84.641912 C -92.193546 -84.641912 -94.556956 -87.005323 -94.556956 -89.914136 L -94.556956 -142.909075 C -94.556956 -145.817888 -92.193546 -148.181299 -89.284732 -148.181299 Z M -89.284732 -148.181299 " transform="matrix(0.000000000000000003,0.0429729,-0.0429729,0.000000000000000003,4.093164,9.239163)"/>
<path style="fill:none;stroke-width:3;stroke-linecap:round;stroke-linejoin:round;stroke:rgb(12.941177%,12.941177%,12.941177%);stroke-opacity:1;stroke-miterlimit:4;" d="M 122.331423 -148.181299 L 175.326362 -148.181299 C 178.235175 -148.181299 180.598586 -145.817888 180.598586 -142.909075 L 180.598586 -89.914136 C 180.598586 -87.005323 178.235175 -84.641912 175.326362 -84.641912 L 122.331423 -84.641912 C 119.42261 -84.641912 117.059199 -87.005323 117.059199 -89.914136 L 117.059199 -142.909075 C 117.059199 -145.817888 119.42261 -148.181299 122.331423 -148.181299 Z M 122.331423 -148.181299 " transform="matrix(0.000000000000000003,0.0429729,-0.0429729,0.000000000000000003,4.093164,9.239163)"/>
<path style=" stroke:none;fill-rule:nonzero;fill:url(#linear9);" d="M 14.554688 9.949219 L 14.554688 12.222656 C 14.554688 12.347656 14.453125 12.453125 14.324219 12.453125 L 12.050781 12.453125 C 11.925781 12.453125 11.824219 12.347656 11.824219 12.222656 L 11.824219 9.949219 C 11.824219 9.824219 11.925781 9.722656 12.050781 9.722656 L 14.324219 9.722656 C 14.453125 9.722656 14.554688 9.824219 14.554688 9.949219 Z M 14.554688 9.949219 "/>
<path style=" stroke:none;fill-rule:nonzero;fill:url(#linear10);" d="M 14.554688 5.402344 L 14.554688 7.675781 C 14.554688 7.800781 14.453125 7.902344 14.324219 7.902344 L 12.050781 7.902344 C 11.925781 7.902344 11.824219 7.800781 11.824219 7.675781 L 11.824219 5.402344 C 11.824219 5.277344 11.925781 5.175781 12.050781 5.175781 L 14.324219 5.175781 C 14.453125 5.175781 14.554688 5.277344 14.554688 5.402344 Z M 14.554688 5.402344 "/>
<path style=" stroke:none;fill-rule:nonzero;fill:url(#linear11);" d="M 14.554688 14.496094 L 14.554688 16.773438 C 14.554688 16.898438 14.453125 17 14.324219 17 L 12.050781 17 C 11.925781 17 11.824219 16.898438 11.824219 16.773438 L 11.824219 14.496094 C 11.824219 14.371094 11.925781 14.269531 12.050781 14.269531 L 14.324219 14.269531 C 14.453125 14.269531 14.554688 14.371094 14.554688 14.496094 Z M 14.554688 14.496094 "/>
<path style=" stroke:none;fill-rule:nonzero;fill:rgb(100%,100%,100%);fill-opacity:0.392157;" d="M 12.050781 5.175781 C 11.925781 5.175781 11.824219 5.277344 11.824219 5.402344 L 11.824219 5.628906 C 11.824219 5.503906 11.925781 5.402344 12.050781 5.402344 L 14.324219 5.402344 C 14.453125 5.402344 14.554688 5.503906 14.554688 5.628906 L 14.554688 5.402344 C 14.554688 5.277344 14.453125 5.175781 14.324219 5.175781 Z M 12.050781 9.722656 C 11.925781 9.722656 11.824219 9.824219 11.824219 9.949219 L 11.824219 10.175781 C 11.824219 10.050781 11.925781 9.949219 12.050781 9.949219 L 14.324219 9.949219 C 14.453125 9.949219 14.554688 10.050781 14.554688 10.175781 L 14.554688 9.949219 C 14.554688 9.824219 14.453125 9.722656 14.324219 9.722656 Z M 12.050781 14.269531 C 11.925781 14.269531 11.824219 14.371094 11.824219 14.496094 L 11.824219 14.726562 C 11.824219 14.597656 11.925781 14.496094 12.050781 14.496094 L 14.324219 14.496094 C 14.453125 14.496094 14.554688 14.597656 14.554688 14.726562 L 14.554688 14.496094 C 14.554688 14.371094 14.453125 14.269531 14.324219 14.269531 Z M 12.050781 14.269531 "/>
<path style=" stroke:none;fill-rule:nonzero;fill:rgb(0%,0%,0%);fill-opacity:0.235294;" d="M 12.050781 17.226562 C 11.925781 17.226562 11.824219 17.125 11.824219 17 L 11.824219 16.773438 C 11.824219 16.898438 11.925781 17 12.050781 17 L 14.324219 17 C 14.453125 17 14.554688 16.898438 14.554688 16.773438 L 14.554688 17 C 14.554688 17.125 14.453125 17.226562 14.324219 17.226562 Z M 12.050781 12.679688 C 11.925781 12.679688 11.824219 12.578125 11.824219 12.453125 L 11.824219 12.222656 C 11.824219 12.351562 11.925781 12.453125 12.050781 12.453125 L 14.324219 12.453125 C 14.453125 12.453125 14.554688 12.351562 14.554688 12.222656 L 14.554688 12.453125 C 14.554688 12.578125 14.453125 12.679688 14.324219 12.679688 Z M 12.050781 8.128906 C 11.925781 8.128906 11.824219 8.03125 11.824219 7.902344 L 11.824219 7.675781 C 11.824219 7.800781 11.925781 7.902344 12.050781 7.902344 L 14.324219 7.902344 C 14.453125 7.902344 14.554688 7.800781 14.554688 7.675781 L 14.554688 7.902344 C 14.554688 8.03125 14.453125 8.128906 14.324219 8.128906 Z M 12.050781 8.128906 "/>
<path style="fill:none;stroke-width:3;stroke-linecap:round;stroke-linejoin:round;stroke:rgb(12.941177%,12.941177%,12.941177%);stroke-opacity:1;stroke-miterlimit:4;" d="M 16.523345 -148.194929 L 69.427384 -148.194929 C 72.336197 -148.194929 74.790508 -145.831518 74.790508 -142.831805 L 74.790508 -89.927766 C 74.790508 -87.018953 72.336197 -84.655542 69.427384 -84.655542 L 16.523345 -84.655542 C 13.614532 -84.655542 11.251121 -87.018953 11.251121 -89.927766 L 11.251121 -142.831805 C 11.251121 -145.831518 13.614532 -148.194929 16.523345 -148.194929 Z M 16.523345 -148.194929 " transform="matrix(0.000000000000000003,0.0429729,-0.0429729,0.000000000000000003,8.186329,9.239163)"/>
<path style="fill:none;stroke-width:3;stroke-linecap:round;stroke-linejoin:round;stroke:rgb(12.941177%,12.941177%,12.941177%);stroke-opacity:1;stroke-miterlimit:4;" d="M -89.284732 -148.194929 L -36.380694 -148.194929 C -33.471881 -148.194929 -31.10847 -145.831518 -31.10847 -142.831805 L -31.10847 -89.927766 C -31.10847 -87.018953 -33.471881 -84.655542 -36.380694 -84.655542 L -89.284732 -84.655542 C -92.193546 -84.655542 -94.556956 -87.018953 -94.556956 -89.927766 L -94.556956 -142.831805 C -94.556956 -145.831518 -92.193546 -148.194929 -89.284732 -148.194929 Z M -89.284732 -148.194929 " transform="matrix(0.000000000000000003,0.0429729,-0.0429729,0.000000000000000003,8.186329,9.239163)"/>
<path style="fill:none;stroke-width:3;stroke-linecap:round;stroke-linejoin:round;stroke:rgb(12.941177%,12.941177%,12.941177%);stroke-opacity:1;stroke-miterlimit:4;" d="M 122.331423 -148.194929 L 175.326362 -148.194929 C 178.235175 -148.194929 180.598586 -145.831518 180.598586 -142.831805 L 180.598586 -89.927766 C 180.598586 -87.018953 178.235175 -84.655542 175.326362 -84.655542 L 122.331423 -84.655542 C 119.42261 -84.655542 117.059199 -87.018953 117.059199 -89.927766 L 117.059199 -142.831805 C 117.059199 -145.831518 119.42261 -148.194929 122.331423 -148.194929 Z M 122.331423 -148.194929 " transform="matrix(0.000000000000000003,0.0429729,-0.0429729,0.000000000000000003,8.186329,9.239163)"/>
</g>
</svg>
