<svg xmlns="http://www.w3.org/2000/svg" xmlns:xlink="http://www.w3.org/1999/xlink" width="32" height="32" viewBox="0 0 24 24"><defs><linearGradient id="d" gradientUnits="userSpaceOnUse" x1="254" y1="233.5" x2="254" y2="254.667" gradientTransform="matrix(.04688 0 0 .04688 0 10.08)"><stop offset="0" stop-opacity=".275"/><stop offset="1" stop-opacity="0"/></linearGradient><radialGradient id="e" gradientUnits="userSpaceOnUse" cx="450.909" cy="189.579" fx="450.909" fy="189.579" r="21.167" gradientTransform="matrix(0 -.0586 -.10548 0 39.842 47.696)"><stop offset="0" stop-opacity=".314"/><stop offset=".222" stop-opacity=".275"/><stop offset="1" stop-opacity="0"/></radialGradient><radialGradient id="f" gradientUnits="userSpaceOnUse" cx="450.909" cy="189.579" fx="450.909" fy="189.579" r="21.167" gradientTransform="matrix(0 .0586 .10548 0 -15.903 -5.646)"><stop offset="0" stop-opacity=".314"/><stop offset=".222" stop-opacity=".275"/><stop offset="1" stop-opacity="0"/></radialGradient><radialGradient id="g" gradientUnits="userSpaceOnUse" cx="450.909" cy="189.579" fx="450.909" fy="189.579" r="21.167" gradientTransform="matrix(0 -.0586 .10548 0 -15.903 47.696)"><stop offset="0" stop-opacity=".314"/><stop offset=".222" stop-opacity=".275"/><stop offset="1" stop-opacity="0"/></radialGradient><radialGradient id="h" gradientUnits="userSpaceOnUse" cx="450.909" cy="189.579" fx="450.909" fy="189.579" r="21.167" gradientTransform="matrix(0 .0586 -.10548 0 39.842 -5.646)"><stop offset="0" stop-opacity=".314"/><stop offset=".222" stop-opacity=".275"/><stop offset="1" stop-opacity="0"/></radialGradient><linearGradient id="i" gradientUnits="userSpaceOnUse" x1="254" y1="233.5" x2="254" y2="-168.667" gradientTransform="matrix(.04688 0 0 .04688 0 10.08)"><stop offset="0" stop-color="#ff7043"/><stop offset="1" stop-color="#ff8a65"/></linearGradient><filter id="a" filterUnits="objectBoundingBox" x="0%" y="0%" width="100%" height="100%"><feColorMatrix in="SourceGraphic" values="0 0 0 0 1 0 0 0 0 1 0 0 0 0 1 0 0 0 1 0"/></filter><mask id="k"><path fill-opacity=".988" d="M0 0h24v24H0z" filter="url(#a)"/></mask><linearGradient id="c" gradientUnits="userSpaceOnUse" x1="1040" y1="415.118" x2="1040" y2="1575.118"><stop offset="0" stop-color="#bdbdbd"/><stop offset="1" stop-color="#e0e0e0"/></linearGradient><clipPath id="b"><path d="M0 0h24v24H0z"/></clipPath><g id="j" clip-path="url(#b)"><path d="M319.97 415.078c-22.046 0-39.997 17.952-39.997 39.997v79.992c0 22.36 17.951 39.996 39.996 39.996 531.918 0 959.909 428.306 959.909 959.909 0 22.36 17.95 39.996 39.996 39.996h79.992c22.36 0 39.997-17.636 39.997-39.996 0-620.414-499.48-1119.894-1119.894-1119.894zm0 319.97c-22.046 0-39.997 17.951-39.997 39.996v79.993c0 22.36 17.951 39.996 39.996 39.996 354.612 0 639.94 285.642 639.94 639.939 0 22.36 17.95 39.996 39.996 39.996h79.992c22.36 0 39.996-17.636 39.996-39.996 0-443.108-356.816-799.924-799.924-799.924zm180.14 399.962c-121.878 0-220.137 98.258-220.137 220.136s98.259 219.822 220.137 219.822 219.821-97.944 219.821-219.822-97.943-220.136-219.821-220.136zm0 0" transform="scale(.0124)" fill="url(#c)" stroke-width="11.339" stroke-linecap="round" stroke-linejoin="round" stroke="#212121"/></g></defs><path d="M3.844 21.027h16.25v.993H3.844zm0 0" fill="url(#d)"/><path d="M20.094 21.027h1.984v-.996h-1.984zm0 0" fill="url(#e)"/><path d="M3.844 21.027H1.859v.993h1.985zm0 0" fill="url(#f)"/><path d="M3.844 21.027H1.859v-.996h1.985zm0 0" fill="url(#g)"/><path d="M20.094 21.027h1.984v.993h-1.984zm0 0" fill="url(#h)"/><path d="M2.73 2.172h18.356c.41 0 .746.332.746.746v17.363c0 .41-.336.746-.746.746H2.73a.746.746 0 0 1-.746-.746V2.918c0-.414.332-.746.746-.746zm0 0" fill="url(#i)"/><path d="M2.73 2.172a.744.744 0 0 0-.746.746v.121c0-.41.332-.742.746-.742h18.356c.414 0 .746.332.746.742v-.121a.744.744 0 0 0-.746-.746zm0 0" fill="#fff" fill-opacity=".392"/><path d="M2.73 21.023a.743.743 0 0 1-.746-.742v-.125c0 .414.332.746.746.746h18.356a.744.744 0 0 0 .746-.746v.125c0 .41-.332.742-.746.742zm0 0" fill="#030303" fill-opacity=".235"/><path d="M2.73 2.102a.814.814 0 0 0-.816.816v17.363c0 .45.363.817.816.817h18.356c.45 0 .816-.368.816-.817V2.918a.816.816 0 0 0-.816-.816zm0 .14h18.356c.375 0 .676.301.676.676v17.363c0 .375-.301.676-.676.676H2.73a.674.674 0 0 1-.675-.676V2.918c0-.375.3-.676.675-.676zm0 0" fill="#212121"/><use xlink:href="#j" mask="url(#k)"/></svg>