<svg height="32" viewBox="0 0 24 24" width="32" xmlns="http://www.w3.org/2000/svg" xmlns:xlink="http://www.w3.org/1999/xlink"><linearGradient id="a" gradientUnits="userSpaceOnUse" x1="11.41152" x2="11.41152" y1="20.97048" y2="21.96278896"><stop offset="0" stop-opacity=".275"/><stop offset="1" stop-opacity="0"/></linearGradient><linearGradient id="b"><stop offset="0" stop-opacity=".314"/><stop offset=".222" stop-opacity=".275"/><stop offset="1" stop-opacity="0"/></linearGradient><radialGradient id="c" cx="450.909" cy="189.579" gradientTransform="matrix(0 -.0586 -.10548 0 40.09 47.641)" gradientUnits="userSpaceOnUse" r="21.167" xlink:href="#b"/><radialGradient id="d" cx="450.909" cy="189.579" gradientTransform="matrix(0 .0586 .10548 0 -16.275 -5.7)" gradientUnits="userSpaceOnUse" r="21.167" xlink:href="#b"/><radialGradient id="e" cx="450.909" cy="189.579" gradientTransform="matrix(0 -.0586 .10548 0 -16.275 47.641)" gradientUnits="userSpaceOnUse" r="21.167" xlink:href="#b"/><radialGradient id="f" cx="450.909" cy="189.579" gradientTransform="matrix(0 .0586 -.10548 0 40.09 -5.7)" gradientUnits="userSpaceOnUse" r="21.167" xlink:href="#b"/><linearGradient id="g"><stop offset="0" stop-color="#424242"/><stop offset="1" stop-color="#616161"/></linearGradient><linearGradient id="h" gradientTransform="matrix(.05406 0 0 .14297 -3.682 23.382)" gradientUnits="userSpaceOnUse" x1="307.627" x2="305.955" xlink:href="#g" y1="-22.391" y2="-141.415"/><linearGradient id="i" gradientTransform="matrix(.04848 0 0 .11914 -1.99 21.005)" gradientUnits="userSpaceOnUse" x1="307.159" x2="307.159" xlink:href="#g" y1=".172" y2="-149.743"/><path d="m3.473 21.027h16.867v.934h-16.867zm0 0" fill="url(#a)"/><path d="m20.34 20.969h1.988v-.992h-1.988zm0 0" fill="url(#c)"/><path d="m3.473 20.969h-1.985v.992h1.985zm0 0" fill="url(#d)"/><path d="m3.473 20.969h-1.985v-.992h1.985zm0 0" fill="url(#e)"/><path d="m20.34 20.969h1.988v.992h-1.988zm0 0" fill="url(#f)"/><path d="m2.48 3.164h18.856c.547 0 .992.418.992.938v15.988c0 .515-.445.937-.992.937h-18.856c-.546 0-.992-.422-.992-.937v-15.988c0-.52.446-.938.992-.938zm0 0" fill="url(#h)"/><path d="m2.48 3.164c-.55 0-.992.418-.992.938v.246c0-.516.442-.934.992-.934h18.856c.547 0 .992.418.992.934v-.246c0-.52-.445-.938-.992-.938zm0 0" fill="#fff" fill-opacity=".392"/><path d="m2.48 21.02c-.55 0-.992-.418-.992-.938v-.246c0 .52.442.937.992.937h18.856c.547 0 .992-.418.992-.937v.246c0 .52-.445.938-.992.938zm0 0" fill-opacity=".235"/><path d="m2.977 4.098a.557.557 0 0 0 -.555.554v13.891c0 .309.25.555.555.555h17.863a.554.554 0 0 0 .555-.555v-13.89a.557.557 0 0 0 -.555-.555zm0 .117h17.863c.242 0 .437.195.437.437v13.891a.434.434 0 0 1 -.437.437h-17.863a.434.434 0 0 1 -.438-.437v-13.89c0-.243.195-.438.438-.438zm0 0" fill="#111" fill-opacity=".588"/><path d="m9.43 7.395a.236.236 0 0 0 -.207.117l-1.918 3.355h-2.84a.236.236 0 0 0 -.207.117.257.257 0 0 0 0 .239c.043.07.12.117.207.113h2.975a.225.225 0 0 0 .204-.117l1.793-3.133 4.75 7.605c.042.067.117.11.195.11a.222.222 0 0 0 .199-.102l2.91-4.363h1.856a.233.233 0 0 0 .207-.352.236.236 0 0 0 -.207-.117h-1.985a.238.238 0 0 0 -.195.106l-2.773 4.164-4.77-7.633a.236.236 0 0 0 -.195-.11zm0 0" style="fill:#80deea;stroke-width:1.4064;stroke-linecap:round;stroke-linejoin:round;stroke:#80deea;stroke-opacity:.255"/><path d="m4.465 5.09a.06.06 0 0 0 -.059.058v.926h-.933a.064.064 0 0 0 -.059.035c-.012.02-.012.043 0 .067.012.02.035.031.059.031h.933v.86h-.933a.068.068 0 0 0 -.067.066c0 .039.031.066.067.066h.933v.86h-.933a.064.064 0 0 0 -.059.035c-.012.02-.012.043 0 .066.012.02.035.031.059.031h.933v.86h-.933a.064.064 0 0 0 -.059.035.067.067 0 0 0 0 .066c.012.02.035.032.059.032h.933v.859h-.933a.064.064 0 0 0 -.059.035.067.067 0 0 0 0 .067c.012.02.035.03.059.03h.933v.86h-.933a.068.068 0 0 0 -.067.067c0 .039.031.066.067.066h.933v.86h-.933a.068.068 0 0 0 -.067.066c0 .039.031.066.067.066h.933v.86h-.933a.064.064 0 0 0 -.059.035.067.067 0 0 0 0 .066c.012.02.035.035.059.031h.933v.86h-.933a.068.068 0 0 0 -.067.066c0 .04.031.067.067.07h.933v.856h-.933a.064.064 0 0 0 -.059.035.067.067 0 0 0 0 .066c.012.02.035.036.059.036h.933v.855h-.933a.064.064 0 0 0 -.059.035.067.067 0 0 0 0 .067c.012.02.035.035.059.035h.933v.855h-.933a.068.068 0 0 0 -.067.067c0 .039.031.066.067.07h.933v.922c0 .023.012.043.032.055.015.007.039.007.058 0a.068.068 0 0 0 .027-.055v-.922h.875v.922c0 .023.012.043.032.055.015.007.039.007.058 0a.068.068 0 0 0 .028-.055v-.922h.875v.922c0 .023.011.043.03.055.016.007.04.007.06 0a.068.068 0 0 0 .027-.055v-.922h.875v.922c0 .023.012.043.031.055.016.007.04.007.059 0a.068.068 0 0 0 .027-.055v-.922h.875v.922c0 .023.012.043.031.055.016.007.04.007.059 0a.068.068 0 0 0 .027-.055v-.922h.875v.922c0 .023.012.043.031.055.016.007.04.007.059 0a.068.068 0 0 0 .027-.055v-.922h.875v.922c0 .023.012.043.032.055.015.007.039.007.058 0a.068.068 0 0 0 .028-.055v-.922h.875v.922c0 .023.011.043.03.055.016.007.04.007.06 0a.068.068 0 0 0 .027-.055v-.922h.875v.922c0 .023.011.043.031.055.016.007.04.007.059 0 .02-.012.027-.032.027-.055v-.922h.875v.922c0 .023.012.043.031.055.016.007.04.007.059 0 .02-.012.027-.032.027-.055v-.922h.875v.922c0 .023.012.043.031.055.016.007.04.007.059 0 .02-.012.027-.032.027-.055v-.922h.875v.922c0 .023.012.043.032.055.02.007.039.007.058 0 .02-.012.027-.032.027-.055v-.922h.876v.922c0 .023.011.043.03.055.02.007.04.007.06 0 .019-.012.027-.032.027-.055v-.922h.875v.922c0 .023.011.043.03.055.02.007.04.007.06 0 .02-.012.027-.032.027-.055v-.922h.875v.922c0 .023.012.043.031.055.02.007.04.007.059 0 .02-.012.031-.032.027-.055v-.922h.875v.922c0 .023.012.043.031.055.02.007.04.007.059 0 .02-.012.031-.032.027-.055v-.922h.934c.039-.004.066-.031.066-.07a.066.066 0 0 0 -.066-.067h-.934v-.855h.934a.067.067 0 0 0 .058-.035.053.053 0 0 0 0-.067.06.06 0 0 0 -.058-.035h-.934v-.855h.934a.067.067 0 0 0 .058-.036.053.053 0 0 0 0-.066.06.06 0 0 0 -.058-.035h-.934v-.856h.934c.039-.003.066-.03.066-.07a.066.066 0 0 0 -.066-.066h-.934v-.86h.934c.027.004.047-.011.058-.03a.053.053 0 0 0 0-.067.06.06 0 0 0 -.058-.035h-.934v-.86h.934c.039 0 .066-.027.066-.066a.066.066 0 0 0 -.066-.067h-.934v-.859h.934c.039 0 .066-.027.066-.066a.066.066 0 0 0 -.066-.067h-.934v-.86h.934a.064.064 0 0 0 .058-.03.053.053 0 0 0 0-.067.06.06 0 0 0 -.058-.035h-.934v-.86h.934a.064.064 0 0 0 .058-.03.053.053 0 0 0 0-.067.06.06 0 0 0 -.058-.035h-.934v-.86h.934a.064.064 0 0 0 .058-.03c.016-.024.016-.048 0-.067a.06.06 0 0 0 -.058-.035h-.934v-.86h.934c.039 0 .066-.027.066-.066a.066.066 0 0 0 -.066-.067h-.934v-.859h.934a.064.064 0 0 0 .058-.031c.016-.024.016-.047 0-.067a.06.06 0 0 0 -.058-.035h-.934v-.926c.004-.015-.004-.03-.015-.043a.059.059 0 0 0 -.043-.015.06.06 0 0 0 -.059.058v.926h-.875v-.926c.004-.015-.004-.03-.016-.043a.059.059 0 0 0 -.043-.015.06.06 0 0 0 -.058.058v.926h-.875v-.926a.059.059 0 0 0 -.016-.043.059.059 0 0 0 -.043-.015.06.06 0 0 0 -.058.058v.926h-.875v-.926a.059.059 0 0 0 -.016-.043.059.059 0 0 0 -.043-.015.06.06 0 0 0 -.058.058v.926h-.875v-.926a.059.059 0 0 0 -.016-.043.059.059 0 0 0 -.043-.015.06.06 0 0 0 -.059.058v.926h-.875v-.926a.059.059 0 0 0 -.015-.043.059.059 0 0 0 -.043-.015.06.06 0 0 0 -.059.058v.926h-.875v-.926a.059.059 0 0 0 -.015-.043.059.059 0 0 0 -.043-.015.06.06 0 0 0 -.06.058v.926h-.874v-.926a.059.059 0 0 0 -.016-.043.059.059 0 0 0 -.043-.015.06.06 0 0 0 -.058.058v.926h-.875v-.926a.059.059 0 0 0 -.016-.043.059.059 0 0 0 -.043-.015.06.06 0 0 0 -.058.058v.926h-.875v-.926a.059.059 0 0 0 -.016-.043.059.059 0 0 0 -.043-.015.06.06 0 0 0 -.059.058v.926h-.875v-.926a.059.059 0 0 0 -.015-.043.059.059 0 0 0 -.043-.015.06.06 0 0 0 -.059.058v.926h-.875v-.926a.059.059 0 0 0 -.015-.043.059.059 0 0 0 -.043-.015.06.06 0 0 0 -.059.058v.926h-.875v-.926a.059.059 0 0 0 -.016-.043.059.059 0 0 0 -.043-.015.06.06 0 0 0 -.058.058v.926h-.875v-.926a.059.059 0 0 0 -.016-.043.059.059 0 0 0 -.043-.015.06.06 0 0 0 -.058.058v.926h-.875v-.926a.059.059 0 0 0 -.016-.043.059.059 0 0 0 -.043-.015.06.06 0 0 0 -.059.058v.926h-.875v-.926a.059.059 0 0 0 -.015-.043.059.059 0 0 0 -.043-.015zm.058 1.117h.875v.86h-.875zm.993 0h.875v.86h-.875zm.992 0h.875v.86h-.875zm.992 0h.875v.86h-.875zm.992 0h.875v.86h-.875zm.992 0h.875v.86h-.875zm.993 0h.875v.86h-.875zm.992 0h.875v.86h-.875zm.992 0h.875v.86h-.875zm.992 0h.875v.86h-.875zm.992 0h.875v.86h-.875zm.992 0h.876v.86h-.875zm.993 0h.875v.86h-.875zm.992 0h.875v.86h-.875zm.992 0h.875v.86h-.875zm-13.89.992h.874v.86h-.875zm.992 0h.875v.86h-.875zm.992 0h.875v.86h-.875zm.992 0h.875v.86h-.875zm.992 0h.875v.86h-.875zm.992 0h.875v.86h-.875zm.993 0h.875v.86h-.875zm.992 0h.875v.86h-.875zm.992 0h.875v.86h-.875zm.992 0h.875v.86h-.875zm.992 0h.875v.86h-.875zm.992 0h.876v.86h-.875zm.993 0h.875v.86h-.875zm.992 0h.875v.86h-.875zm.992 0h.875v.86h-.875zm-13.89.992h.874v.86h-.875zm.992 0h.875v.86h-.875zm.992 0h.875v.86h-.875zm.992 0h.875v.86h-.875zm.992 0h.875v.86h-.875zm.992 0h.875v.86h-.875zm.993 0h.875v.86h-.875zm.992 0h.875v.86h-.875zm.992 0h.875v.86h-.875zm.992 0h.875v.86h-.875zm.992 0h.875v.86h-.875zm.992 0h.876v.86h-.875zm.993 0h.875v.86h-.875zm.992 0h.875v.86h-.875zm.992 0h.875v.86h-.875zm-13.89.993h.874v.859h-.875zm.992 0h.875v.859h-.875zm.992 0h.875v.859h-.875zm.992 0h.875v.859h-.875zm.992 0h.875v.859h-.875zm.992 0h.875v.859h-.875zm.993 0h.875v.859h-.875zm.992 0h.875v.859h-.875zm.992 0h.875v.859h-.875zm.992 0h.875v.859h-.875zm.992 0h.875v.859h-.875zm.992 0h.876v.859h-.875zm.993 0h.875v.859h-.875zm.992 0h.875v.859h-.875zm.992 0h.875v.859h-.875zm-13.89.992h.874v.86h-.875zm.992 0h.875v.86h-.875zm.992 0h.875v.86h-.875zm.992 0h.875v.86h-.875zm.992 0h.875v.86h-.875zm.992 0h.875v.86h-.875zm.993 0h.875v.86h-.875zm.992 0h.875v.86h-.875zm.992 0h.875v.86h-.875zm.992 0h.875v.86h-.875zm.992 0h.875v.86h-.875zm.992 0h.876v.86h-.875zm.993 0h.875v.86h-.875zm.992 0h.875v.86h-.875zm.992 0h.875v.86h-.875zm-13.89.992h.874v.86h-.875zm.992 0h.875v.86h-.875zm.992 0h.875v.86h-.875zm.992 0h.875v.86h-.875zm.992 0h.875v.86h-.875zm.992 0h.875v.86h-.875zm.993 0h.875v.86h-.875zm.992 0h.875v.86h-.875zm.992 0h.875v.86h-.875zm.992 0h.875v.86h-.875zm.992 0h.875v.86h-.875zm.992 0h.876v.86h-.875zm.993 0h.875v.86h-.875zm.992 0h.875v.86h-.875zm.992 0h.875v.86h-.875zm-13.89.992h.874v.86h-.875zm.992 0h.875v.86h-.875zm.992 0h.875v.86h-.875zm.992 0h.875v.86h-.875zm.992 0h.875v.86h-.875zm.992 0h.875v.86h-.875zm.993 0h.875v.86h-.875zm.992 0h.875v.86h-.875zm.992 0h.875v.86h-.875zm.992 0h.875v.86h-.875zm.992 0h.875v.86h-.875zm.992 0h.876v.86h-.875zm.993 0h.875v.86h-.875zm.992 0h.875v.86h-.875zm.992 0h.875v.86h-.875zm-13.89.992h.874v.86h-.875zm.992 0h.875v.86h-.875zm.992 0h.875v.86h-.875zm.992 0h.875v.86h-.875zm.992 0h.875v.86h-.875zm.992 0h.875v.86h-.875zm.993 0h.875v.86h-.875zm.992 0h.875v.86h-.875zm.992 0h.875v.86h-.875zm.992 0h.875v.86h-.875zm.992 0h.875v.86h-.875zm.992 0h.876v.86h-.875zm.993 0h.875v.86h-.875zm.992 0h.875v.86h-.875zm.992 0h.875v.86h-.875zm-13.89.996h.874v.856h-.875zm.992 0h.875v.856h-.875zm.992 0h.875v.856h-.875zm.992 0h.875v.856h-.875zm.992 0h.875v.856h-.875zm.992 0h.875v.856h-.875zm.993 0h.875v.856h-.875zm.992 0h.875v.856h-.875zm.992 0h.875v.856h-.875zm.992 0h.875v.856h-.875zm.992 0h.875v.856h-.875zm.992 0h.876v.856h-.875zm.993 0h.875v.856h-.875zm.992 0h.875v.856h-.875zm.992 0h.875v.856h-.875zm-13.89.993h.874v.855h-.875zm.992 0h.875v.855h-.875zm.992 0h.875v.855h-.875zm.992 0h.875v.855h-.875zm.992 0h.875v.855h-.875zm.992 0h.875v.855h-.875zm.993 0h.875v.855h-.875zm.992 0h.875v.855h-.875zm.992 0h.875v.855h-.875zm.992 0h.875v.855h-.875zm.992 0h.875v.855h-.875zm.992 0h.876v.855h-.875zm.993 0h.875v.855h-.875zm.992 0h.875v.855h-.875zm.992 0h.875v.855h-.875zm-13.89.992h.874v.855h-.875zm.992 0h.875v.855h-.875zm.992 0h.875v.855h-.875zm.992 0h.875v.855h-.875zm.992 0h.875v.855h-.875zm.992 0h.875v.855h-.875zm.993 0h.875v.855h-.875zm.992 0h.875v.855h-.875zm.992 0h.875v.855h-.875zm.992 0h.875v.855h-.875zm.992 0h.875v.855h-.875zm.992 0h.876v.855h-.875zm.993 0h.875v.855h-.875zm.992 0h.875v.855h-.875zm.992 0h.875v.855h-.875zm0 0" fill="#4dd0e1" fill-opacity=".588"/><path d="m21.11 4.238-18.32 14.657c.089.09.214.144.35.144h17.7a.494.494 0 0 0 .496-.496v-13.89a.486.486 0 0 0 -.227-.415zm0 0" fill="url(#i)"/><path d="m2.977 4.223a.428.428 0 0 0 -.43.43v13.89c0 .238.191.434.43.434h17.863c.234 0 .43-.196.43-.434v-13.89a.43.43 0 0 0 -.43-.43zm0 .117h17.863a.31.31 0 0 1 .312.312v13.891c0 .176-.14.316-.312.316h-17.863a.312.312 0 0 1 -.313-.316v-13.89c0-.176.137-.313.313-.313zm0 0" fill="#dedede" fill-opacity=".706"/><path d="m2.48 3.164h18.856c.547 0 .992.418.992.938v15.988c0 .515-.445.937-.992.937h-18.856c-.546 0-.992-.422-.992-.937v-15.988c0-.52.446-.938.992-.938zm0 0" fill="none" stroke="#212121" stroke-linecap="round" stroke-width=".14064"/><path d="m16.664 12.969a.495.495 0 0 0 -.703 0 .49.49 0 0 0 0 .699l1.402 1.402-1.402 1.407a.49.49 0 0 0 0 .699.495.495 0 0 0 .703 0l1.754-1.754.035-.035a.497.497 0 0 0 -.035-.664zm0 0" fill="#ececec" fill-opacity=".588"/></svg>