<svg height="24" viewBox="0 0 24 24" width="24" xmlns="http://www.w3.org/2000/svg" xmlns:xlink="http://www.w3.org/1999/xlink"><linearGradient id="a" gradientUnits="userSpaceOnUse" x1="11.90739" x2="11.90739" y1="21.02545225" y2="22.01773525002"><stop offset="0" stop-opacity=".27451"/><stop offset="1" stop-opacity="0"/></linearGradient><linearGradient id="b"><stop offset="0" stop-opacity=".313726"/><stop offset=".222222" stop-opacity=".27451"/><stop offset="1" stop-opacity="0"/></linearGradient><radialGradient id="c" cx="450.908936" cy="189.579361" gradientTransform="matrix(.00000013 -.0585994 -.105479 -.00000008 39.097986 47.696499)" gradientUnits="userSpaceOnUse" r="21.166656" xlink:href="#b"/><radialGradient id="d" cx="450.908936" cy="189.579361" gradientTransform="matrix(-.00000013 .0585994 .105479 .00000008 -15.28321 -5.645609)" gradientUnits="userSpaceOnUse" r="21.166656" xlink:href="#b"/><radialGradient id="e" cx="450.908936" cy="189.579361" gradientTransform="matrix(-.00000013 -.0585994 .105479 -.00000008 -15.28321 47.696499)" gradientUnits="userSpaceOnUse" r="21.166656" xlink:href="#b"/><radialGradient id="f" cx="450.908936" cy="189.579361" gradientTransform="matrix(.00000013 .0585994 -.105479 .00000008 39.097985 -5.64561)" gradientUnits="userSpaceOnUse" r="21.166656" xlink:href="#b"/><linearGradient id="g" gradientUnits="userSpaceOnUse" x1="7.93826174998" x2="7.93826174998" y1="21.02545025" y2="2.17207850005"><stop offset="0" stop-color="#29b6f6"/><stop offset="1" stop-color="#4fc3f7"/></linearGradient><linearGradient id="h" gradientUnits="userSpaceOnUse" x1="11.907393" x2="11.907393" y1="21.02545025" y2="2.17207850005"><stop offset="0" stop-color="#5c6bc0"/><stop offset="1" stop-color="#7986cb"/></linearGradient><path d="m4.464844 20.953125h14.882812v1.101563h-14.882812zm0 0" fill="url(#a)"/><path d="m19.347656 21.027344h1.988282v-.996094h-1.988282zm0 0" fill="url(#c)"/><path d="m4.464844 21.027344h-1.984375v.992187h1.984375zm0 0" fill="url(#d)"/><path d="m4.464844 21.027344h-1.984375v-.996094h1.984375zm0 0" fill="url(#e)"/><path d="m19.347656 21.027344h1.988282v.992187h-1.988282zm0 0" fill="url(#f)"/><path d="m3.472656 2.171875h16.867188c.550781 0 .996094.445313.996094.992187v16.867188c0 .550781-.445313.996094-.996094.996094h-16.867188c-.546875 0-.992187-.445313-.992187-.996094v-16.867188c0-.546874.445312-.992187.992187-.992187zm0 0" fill="url(#g)"/><path d="m3.472656 2.171875c-.550781 0-.992187.441406-.992187.992187v.125c0-.550781.441406-.992187.992187-.992187h16.867188c.550781 0 .996094.441406.996094.992187v-.125c0-.550781-.445313-.992187-.996094-.992187zm0 0" fill="#e6e6e6" fill-opacity=".392157"/><path d="m3.472656 21.027344c-.550781 0-.992187-.445313-.992187-.996094v-.121094c0 .546875.441406.992188.992187.992188h16.867188c.550781 0 .996094-.445313.996094-.992188v.121094c0 .550781-.445313.996094-.996094.996094zm0 0" fill-opacity=".196078"/><path d="m74.076259-168.671091h359.798975c11.748878 0 21.247971 9.499093 21.247971 21.164646v359.798974c0 11.748878-9.499093 21.247971-21.247971 21.247971h-359.798975c-11.665552 0-21.164645-9.499093-21.164645-21.247971v-359.798974c0-11.665553 9.499093-21.164646 21.164645-21.164646zm0 0" fill="none" stroke="#212121" stroke-linecap="round" stroke-width="3" transform="matrix(.0468795 0 0 .0468795 0 10.079087)"/><path d="m6.019531 15.835938c-1.976562-.515626-2.792969-2.015626-2.34375-4.292969.546875-2.773438 2.484375-4.3125 5.417969-4.296875 4.421875.015625 5.742188.105468 5.714844.378906-.023438.238281-.050782.257812-.390625.296875-.5.054687-.503907-.042969.121093 2.890625.558594 2.617188.613282 2.804688.808594 2.59375.246094-.269531 3.25-5.332031 3.203125-5.40625-.027343-.042969-.230469-.078125-.453125-.078125-.421875 0-.449218-.03125-.351562-.386719.050781-.199218 2.484375-.304687 2.484375-.109375 0 .304688-.171875.496094-.441407.496094-.371093 0-.300781-.105469-2.550781 3.644531-2.824219 4.703125-2.457031 4.230469-3.253906 4.203125-.742187-.027343-.589844.394531-1.578125-4.324219-.601562-2.859374-1.253906-3.644531-3.027344-3.644531-2.015625 0-3.324218 1.890625-3.460937 5.003907-.09375 2.1875 1.128906 3.121093 3.101562 2.359374.527344-.203124.542969-.230468.773438-1.371093.257812-1.273438.257812-1.285157-.335938-1.285157-.460937 0-.460937 0-.402343-.265624.082031-.398438.066406-.394532 1.601562-.371094 1.671875.027344 1.527344-.207032 1.136719 1.878906-.292969 1.554688-.222657 1.480469-1.882813 1.929688-.945312.257812-3.171875.347656-3.890625.15625zm0 0" fill="url(#h)"/><path d="m9.09375 7.289062c-2.933594-.015624-4.871094 1.523438-5.417969 4.296876-.085937.441406-.128906.851562-.121093 1.234374.007812-.332031.046874-.6875.121093-1.0625.546875-2.773437 2.484375-4.3125 5.417969-4.296874 4.101562.015624 5.535156.09375 5.699219.320312.007812-.03125.011719-.070312.015625-.113281.027344-.273438-1.292969-.359375-5.714844-.378907zm10.363281.078126c-.714843 0-1.679687.085937-1.710937.210937-.042969.152344-.0625.246094-.035156.304687.007812-.039062.019531-.082031.035156-.132812.046875-.1875 2.265625-.292969 2.472656-.132812.007812-.046876.011719-.097657.011719-.148438 0-.074219-.339844-.101562-.773438-.101562zm-.964843.816406c-.421876.820312-2.921876 5.019531-3.144532 5.265625-.195312.210937-.25.023437-.808594-2.59375-.300781-1.410157-.453124-2.117188-.480468-2.480469-.027344.289062.121094.972656.480468 2.652344.558594 2.621094.613282 2.804687.808594 2.59375.246094-.269532 3.25-5.332032 3.203125-5.402344-.007812-.015625-.027343-.023438-.058593-.035156zm-8.640626 3.722656c-.726562.003906-.734374.070312-.796874.378906-.027344.117188-.039063.179688-.011719.21875.003906-.015625.007812-.03125.011719-.046875.082031-.398437.066406-.394531 1.601562-.367187.992188.015625 1.347656-.0625 1.386719.3125.042969-.570313-.261719-.46875-1.386719-.488282-.335938-.003906-.597656-.007812-.804688-.007812zm.101563 1.027344c-.015625.191406-.074219.472656-.160156.902344-.230469 1.140624-.246094 1.167968-.773438 1.371093-1.871093.722657-3.070312-.082031-3.105469-2.035156-.03125 2.078125 1.179688 2.949219 3.105469 2.207031.527344-.203125.542969-.230468.773438-1.371094.117187-.582031.183593-.902343.160156-1.074218zm0 0" fill="#fff" fill-opacity=".392157"/><path d="m20.160156 7.804688c-.074218.125-.203125.199218-.371094.199218-.371093 0-.300781-.105468-2.550781 3.644532-2.824219 4.703124-2.457031 4.230468-3.253906 4.203124-.742187-.027343-.589844.394532-1.578125-4.324218-.601562-2.859375-1.253906-3.644532-3.027344-3.644532-2.015625 0-3.324218 1.890626-3.460937 5.003907-.003907.140625-.003907.277343 0 .40625 0-.019531 0-.039063 0-.058594.136719-3.113281 1.445312-5.003906 3.460937-5.003906 1.773438 0 2.425782.785156 3.027344 3.644531.988281 4.71875.835938 4.296875 1.578125 4.324219.796875.027343.429687.5 3.253906-4.203125 2.25-3.75 2.179688-3.644532 2.550781-3.644532.269532 0 .441407-.191406.441407-.496093 0-.019531-.023438-.039063-.070313-.050781zm-5.441406.132812c-.054688.035156-.144531.046875-.300781.066406-.28125.03125-.40625.011719-.347657.519532.039063-.152344.15625-.152344.347657-.171876.339843-.039062.367187-.058593.390625-.300781.003906-.039062-.023438-.078125-.089844-.113281zm3.027344.023438c-.097656.359374-.070313.390624.351562.390624.117188 0 .226563.007813.3125.023438.09375-.171875.148438-.28125.140625-.292969-.027343-.042969-.230469-.078125-.453125-.078125-.1875 0-.296875-.007812-.351562-.042968zm-5.714844 4.589843c-.035156.277344-.128906.683594-.238281 1.28125-.292969 1.550781-.222657 1.476563-1.882813 1.929688-.945312.253906-3.171875.347656-3.890625.15625-1.566406-.410157-2.402343-1.433594-2.460937-2.972657-.0625 1.730469.78125 2.882813 2.460937 3.320313.71875.191406 2.945313.097656 3.890625-.15625 1.660156-.453125 1.589844-.378906 1.882813-1.929687.171875-.921876.296875-1.390626.238281-1.628907zm-2.953125.015625c-.007813.03125-.015625.066406-.023437.105469-.058594.265625-.058594.265625.402343.265625.285157 0 .433594.003906.484375.148438.066406-.492188-.054687-.496094-.484375-.496094-.210937 0-.324219 0-.378906-.023438zm0 0" fill-opacity=".235294"/><path d="m128.404405 122.801075c-42.162641-10.99895-59.577644-42.995894-49.995226-91.574588 11.665553-59.161018 52.994939-91.991216 115.572297-91.657914 94.324326.333301 122.488303 2.249785 121.905025 8.082561-.499952 5.082848-1.08323 5.499475-8.332538 6.332729-10.665648 1.166555-10.748973-.916579 2.583087 61.660778 11.915529 55.828002 13.082084 59.82762 17.248353 55.32805 5.249499-5.749451 69.326713-113.739138 68.326808-115.322321-.583277-.916579-4.916197-1.666507-9.665743-1.666507-8.999141 0-9.582419-.666603-7.499284-8.249212 1.08323-4.249595 52.994939-6.49938 52.994939-2.333111 0 6.499379-3.666316 10.582323-9.415767 10.582323-7.915911 0-6.416054-2.249785-54.411471 77.742576-60.244247 100.323753-52.411662 90.241382-69.410038 89.658105-15.831822-.583278-12.582132 8.415863-33.663452-92.241192-12.832108-60.994175-26.747446-77.742576-64.577167-77.742576-42.995894 0-70.909895 40.329482-73.826283 106.739807-1.999809 46.662211 24.081034 66.576976 66.160349 50.328527 11.248925-4.332919 11.582227-4.916197 16.498424-29.247207 5.499475-27.164072 5.499475-27.414049-7.165982-27.414049-9.832395 0-9.832395 0-8.582514-5.666125 1.749833-8.499188 1.416531-8.415863 34.163404-7.915911 35.663261.583278 32.580222-4.416245 24.247685 40.079506-6.249404 33.1635-4.749547 31.580318-40.162832 41.162736-20.164741 5.499475-67.660205 7.415958-82.992074 3.333015zm0 0" fill="none" stroke="#212121" stroke-width="3" transform="matrix(.0468795 0 0 .0468795 0 10.079087)"/></svg>