<?xml version="1.0" encoding="UTF-8"?>
<svg xmlns="http://www.w3.org/2000/svg" xmlns:xlink="http://www.w3.org/1999/xlink" width="24px" height="24px" viewBox="0 0 24 24" version="1.1">
<defs>
<linearGradient id="linear0" gradientUnits="userSpaceOnUse" x1="254" y1="233.5" x2="254" y2="254.666672" gradientTransform="matrix(0.0468795,0,0,0.0468795,-0.496149,10.079087)">
<stop offset="0" style="stop-color:rgb(0%,0%,0%);stop-opacity:0.27451;"/>
<stop offset="1" style="stop-color:rgb(0%,0%,0%);stop-opacity:0;"/>
</linearGradient>
<radialGradient id="radial0" gradientUnits="userSpaceOnUse" cx="450.908936" cy="189.579361" fx="450.908936" fy="189.579361" r="21.166656" gradientTransform="matrix(0.000000130628,-0.0585994,-0.105479,-0.0000000761539,40.090266,47.696499)">
<stop offset="0" style="stop-color:rgb(0%,0%,0%);stop-opacity:0.313726;"/>
<stop offset="0.222222" style="stop-color:rgb(0%,0%,0%);stop-opacity:0.27451;"/>
<stop offset="1" style="stop-color:rgb(0%,0%,0%);stop-opacity:0;"/>
</radialGradient>
<radialGradient id="radial1" gradientUnits="userSpaceOnUse" cx="450.908936" cy="189.579361" fx="450.908936" fy="189.579361" r="21.166656" gradientTransform="matrix(-0.000000130628,0.0585994,0.105479,0.0000000761539,-16.27549,-5.645609)">
<stop offset="0" style="stop-color:rgb(0%,0%,0%);stop-opacity:0.313726;"/>
<stop offset="0.222222" style="stop-color:rgb(0%,0%,0%);stop-opacity:0.27451;"/>
<stop offset="1" style="stop-color:rgb(0%,0%,0%);stop-opacity:0;"/>
</radialGradient>
<radialGradient id="radial2" gradientUnits="userSpaceOnUse" cx="450.908936" cy="189.579361" fx="450.908936" fy="189.579361" r="21.166656" gradientTransform="matrix(-0.000000130628,-0.0585994,0.105479,-0.0000000761539,-16.27549,47.696499)">
<stop offset="0" style="stop-color:rgb(0%,0%,0%);stop-opacity:0.313726;"/>
<stop offset="0.222222" style="stop-color:rgb(0%,0%,0%);stop-opacity:0.27451;"/>
<stop offset="1" style="stop-color:rgb(0%,0%,0%);stop-opacity:0;"/>
</radialGradient>
<radialGradient id="radial3" gradientUnits="userSpaceOnUse" cx="450.908936" cy="189.579361" fx="450.908936" fy="189.579361" r="21.166656" gradientTransform="matrix(0.000000130628,0.0585994,-0.105479,0.0000000761539,40.090265,-5.64561)">
<stop offset="0" style="stop-color:rgb(0%,0%,0%);stop-opacity:0.313726;"/>
<stop offset="0.222222" style="stop-color:rgb(0%,0%,0%);stop-opacity:0.27451;"/>
<stop offset="1" style="stop-color:rgb(0%,0%,0%);stop-opacity:0;"/>
</radialGradient>
<linearGradient id="linear1" gradientUnits="userSpaceOnUse" x1="306.752655" y1="-16.485477" x2="305.954529" y2="-141.414581" gradientTransform="matrix(0.0540552,0,0,0.14297,-3.681905,23.382369)">
<stop offset="0" style="stop-color:rgb(36.078432%,41.960785%,75.294119%);stop-opacity:1;"/>
<stop offset="1" style="stop-color:rgb(47.450981%,52.549022%,79.607844%);stop-opacity:1;"/>
</linearGradient>
<linearGradient id="linear2" gradientUnits="userSpaceOnUse" x1="254" y1="233.5" x2="254" y2="-147.5" gradientTransform="matrix(0.0468795,0,0,0.0468795,0,10.079087)">
<stop offset="0" style="stop-color:rgb(47.450981%,52.549022%,79.607844%);stop-opacity:1;"/>
<stop offset="1" style="stop-color:rgb(62.352943%,65.882355%,85.490197%);stop-opacity:1;"/>
</linearGradient>
</defs>
<g id="surface1">
<path style=" stroke:none;fill-rule:nonzero;fill:url(#linear0);" d="M 3.472656 21.082031 L 20.339844 21.082031 L 20.339844 22.019531 L 3.472656 22.019531 Z M 3.472656 21.082031 "/>
<path style=" stroke:none;fill-rule:nonzero;fill:url(#radial0);" d="M 20.339844 21.027344 L 22.328125 21.027344 L 22.328125 20.03125 L 20.339844 20.03125 Z M 20.339844 21.027344 "/>
<path style=" stroke:none;fill-rule:nonzero;fill:url(#radial1);" d="M 3.472656 21.027344 L 1.488281 21.027344 L 1.488281 22.019531 L 3.472656 22.019531 Z M 3.472656 21.027344 "/>
<path style=" stroke:none;fill-rule:nonzero;fill:url(#radial2);" d="M 3.472656 21.027344 L 1.488281 21.027344 L 1.488281 20.03125 L 3.472656 20.03125 Z M 3.472656 21.027344 "/>
<path style=" stroke:none;fill-rule:nonzero;fill:url(#radial3);" d="M 20.339844 21.027344 L 22.328125 21.027344 L 22.328125 22.019531 L 20.339844 22.019531 Z M 20.339844 21.027344 "/>
<path style=" stroke:none;fill-rule:nonzero;fill:url(#linear1);" d="M 2.480469 3.164062 L 21.335938 3.164062 C 21.882812 3.164062 22.328125 3.582031 22.328125 4.101562 L 22.328125 20.089844 C 22.328125 20.605469 21.882812 21.027344 21.335938 21.027344 L 2.480469 21.027344 C 1.933594 21.027344 1.488281 20.605469 1.488281 20.089844 L 1.488281 4.101562 C 1.488281 3.582031 1.933594 3.164062 2.480469 3.164062 Z M 2.480469 3.164062 "/>
<path style=" stroke:none;fill-rule:nonzero;fill:url(#linear2);" d="M 2.976562 4.15625 L 20.839844 4.15625 C 21.113281 4.15625 21.335938 4.378906 21.335938 4.652344 L 21.335938 17.550781 C 21.335938 17.828125 21.113281 18.046875 20.839844 18.046875 L 2.976562 18.046875 C 2.703125 18.046875 2.480469 17.828125 2.480469 17.550781 L 2.480469 4.652344 C 2.480469 4.378906 2.703125 4.15625 2.976562 4.15625 Z M 2.976562 4.15625 "/>
<path style=" stroke:none;fill-rule:nonzero;fill:rgb(100%,100%,100%);fill-opacity:0.313726;" d="M 2.480469 3.164062 C 1.929688 3.164062 1.488281 3.582031 1.488281 4.101562 L 1.488281 4.347656 C 1.488281 3.832031 1.929688 3.414062 2.480469 3.414062 L 21.335938 3.414062 C 21.882812 3.414062 22.328125 3.832031 22.328125 4.347656 L 22.328125 4.101562 C 22.328125 3.582031 21.882812 3.164062 21.335938 3.164062 Z M 2.480469 3.164062 "/>
<path style=" stroke:none;fill-rule:nonzero;fill:rgb(0%,0%,0%);fill-opacity:0.235294;" d="M 2.480469 21.03125 C 1.929688 21.03125 1.488281 20.613281 1.488281 20.09375 L 1.488281 19.847656 C 1.488281 20.367188 1.929688 20.785156 2.480469 20.785156 L 21.335938 20.785156 C 21.882812 20.785156 22.328125 20.367188 22.328125 19.847656 L 22.328125 20.09375 C 22.328125 20.613281 21.882812 21.03125 21.335938 21.03125 Z M 2.480469 21.03125 "/>
<path style="fill:none;stroke-width:3;stroke-linecap:round;stroke-linejoin:miter;stroke:rgb(12.941177%,12.941177%,12.941177%);stroke-opacity:1;stroke-miterlimit:4;" d="M 52.911614 -147.506445 L 455.123205 -147.506445 C 466.788757 -147.506445 476.28785 -138.59063 476.28785 -127.508355 L 476.28785 213.54241 C 476.28785 224.541359 466.788757 233.5405 455.123205 233.5405 L 52.911614 233.5405 C 41.246061 233.5405 31.746968 224.541359 31.746968 213.54241 L 31.746968 -127.508355 C 31.746968 -138.59063 41.246061 -147.506445 52.911614 -147.506445 Z M 52.911614 -147.506445 " transform="matrix(0.0468795,0,0,0.0468795,0,10.079087)"/>
<path style=" stroke:none;fill-rule:nonzero;fill:rgb(0%,0%,0%);fill-opacity:0.235294;" d="M 2.976562 4.21875 C 2.703125 4.21875 2.480469 4.441406 2.480469 4.714844 L 2.480469 4.902344 C 2.480469 4.625 2.703125 4.40625 2.976562 4.40625 L 20.839844 4.40625 C 21.113281 4.40625 21.335938 4.625 21.335938 4.902344 L 21.335938 4.714844 C 21.335938 4.441406 21.113281 4.21875 20.839844 4.21875 Z M 2.976562 4.21875 "/>
<path style=" stroke:none;fill-rule:nonzero;fill:rgb(100%,100%,100%);fill-opacity:0.392157;" d="M 2.976562 18.296875 C 2.703125 18.296875 2.480469 18.074219 2.480469 17.800781 L 2.480469 17.613281 C 2.480469 17.890625 2.703125 18.109375 2.976562 18.109375 L 20.839844 18.109375 C 21.113281 18.109375 21.335938 17.890625 21.335938 17.613281 L 21.335938 17.800781 C 21.335938 18.074219 21.113281 18.296875 20.839844 18.296875 Z M 2.976562 18.296875 "/>
<path style="fill:none;stroke-width:3;stroke-linecap:round;stroke-linejoin:round;stroke:rgb(12.941177%,12.941177%,12.941177%);stroke-opacity:1;stroke-miterlimit:4;" d="M 63.493937 -126.3418 L 444.540882 -126.3418 C 450.373658 -126.3418 455.123205 -121.592253 455.123205 -115.759477 L 455.123205 159.380915 C 455.123205 165.297017 450.373658 169.963238 444.540882 169.963238 L 63.493937 169.963238 C 57.66116 169.963238 52.911614 165.297017 52.911614 159.380915 L 52.911614 -115.759477 C 52.911614 -121.592253 57.66116 -126.3418 63.493937 -126.3418 Z M 63.493937 -126.3418 " transform="matrix(0.0468795,0,0,0.0468795,0,10.079087)"/>
<path style=" stroke:none;fill-rule:nonzero;fill:rgb(30.19608%,81.568629%,88.235295%);fill-opacity:1;" d="M 20.355469 18.792969 C 20.632812 18.792969 20.851562 19.015625 20.851562 19.289062 C 20.851562 19.5625 20.632812 19.785156 20.355469 19.785156 C 20.082031 19.785156 19.859375 19.5625 19.859375 19.289062 C 19.859375 19.015625 20.082031 18.792969 20.355469 18.792969 Z M 20.355469 18.792969 "/>
<path style=" stroke:none;fill-rule:nonzero;fill:rgb(23.529412%,23.529412%,23.529412%);fill-opacity:0.235294;" d="M 20.355469 18.792969 C 20.082031 18.792969 19.859375 19.015625 19.859375 19.289062 C 19.859375 19.332031 19.867188 19.375 19.875 19.414062 C 19.929688 19.199219 20.125 19.039062 20.355469 19.039062 C 20.589844 19.039062 20.78125 19.199219 20.839844 19.414062 C 20.847656 19.375 20.851562 19.332031 20.851562 19.289062 C 20.851562 19.015625 20.632812 18.792969 20.355469 18.792969 Z M 20.355469 18.792969 "/>
<path style=" stroke:none;fill-rule:nonzero;fill:rgb(100%,100%,100%);fill-opacity:0.392157;" d="M 20.355469 19.972656 C 20.082031 19.972656 19.859375 19.75 19.859375 19.476562 C 19.859375 19.433594 19.867188 19.390625 19.875 19.351562 C 19.929688 19.566406 20.125 19.722656 20.355469 19.722656 C 20.589844 19.722656 20.78125 19.566406 20.839844 19.351562 C 20.847656 19.390625 20.851562 19.433594 20.851562 19.476562 C 20.851562 19.75 20.632812 19.972656 20.355469 19.972656 Z M 20.355469 19.972656 "/>
<path style="fill:none;stroke-width:3;stroke-linecap:round;stroke-linejoin:round;stroke:rgb(12.941177%,12.941177%,12.941177%);stroke-opacity:1;stroke-miterlimit:4;" d="M 349.210603 196.461472 C 355.126704 196.461472 359.792925 201.211018 359.792925 207.043794 C 359.792925 212.876571 355.126704 217.626117 349.210603 217.626117 C 343.377826 217.626117 338.62828 212.876571 338.62828 207.043794 C 338.62828 201.211018 343.377826 196.461472 349.210603 196.461472 Z M 349.210603 196.461472 " transform="matrix(0.0468795,0,0,0.0468795,3.984659,9.582958)"/>
<path style=" stroke:none;fill-rule:nonzero;fill:rgb(30.19608%,81.568629%,88.235295%);fill-opacity:1;" d="M 18.835938 18.792969 C 19.113281 18.792969 19.332031 19.015625 19.332031 19.289062 C 19.332031 19.5625 19.113281 19.785156 18.835938 19.785156 C 18.5625 19.785156 18.339844 19.5625 18.339844 19.289062 C 18.339844 19.015625 18.5625 18.792969 18.835938 18.792969 Z M 18.835938 18.792969 "/>
<path style=" stroke:none;fill-rule:nonzero;fill:rgb(23.529412%,23.529412%,23.529412%);fill-opacity:0.235294;" d="M 18.835938 18.792969 C 18.5625 18.792969 18.339844 19.015625 18.339844 19.289062 C 18.339844 19.332031 18.347656 19.375 18.355469 19.414062 C 18.410156 19.199219 18.605469 19.039062 18.835938 19.039062 C 19.070312 19.039062 19.261719 19.199219 19.320312 19.414062 C 19.328125 19.375 19.332031 19.332031 19.332031 19.289062 C 19.332031 19.015625 19.113281 18.792969 18.835938 18.792969 Z M 18.835938 18.792969 "/>
<path style=" stroke:none;fill-rule:nonzero;fill:rgb(100%,100%,100%);fill-opacity:0.392157;" d="M 18.835938 19.972656 C 18.5625 19.972656 18.339844 19.75 18.339844 19.476562 C 18.339844 19.433594 18.347656 19.390625 18.355469 19.351562 C 18.410156 19.566406 18.605469 19.722656 18.835938 19.722656 C 19.070312 19.722656 19.261719 19.566406 19.320312 19.351562 C 19.328125 19.390625 19.332031 19.433594 19.332031 19.476562 C 19.332031 19.75 19.113281 19.972656 18.835938 19.972656 Z M 18.835938 19.972656 "/>
<path style="fill:none;stroke-width:3;stroke-linecap:round;stroke-linejoin:round;stroke:rgb(12.941177%,12.941177%,12.941177%);stroke-opacity:1;stroke-miterlimit:4;" d="M 349.209549 196.461472 C 355.125651 196.461472 359.791872 201.211018 359.791872 207.043794 C 359.791872 212.876571 355.125651 217.626117 349.209549 217.626117 C 343.376773 217.626117 338.627226 212.876571 338.627226 207.043794 C 338.627226 201.211018 343.376773 196.461472 349.209549 196.461472 Z M 349.209549 196.461472 " transform="matrix(0.0468795,0,0,0.0468795,2.465177,9.582958)"/>
<path style=" stroke:none;fill-rule:nonzero;fill:rgb(100%,100%,100%);fill-opacity:0.0784314;" d="M 2.480469 4.148438 L 2.480469 9.847656 C 8.003906 8.726562 13.925781 8.117188 20.09375 8.117188 C 20.507812 8.117188 20.921875 8.121094 21.335938 8.125 L 21.335938 4.148438 Z M 2.480469 4.148438 "/>
</g>
</svg>
