<?xml version="1.0" encoding="UTF-8"?>
<svg xmlns="http://www.w3.org/2000/svg" xmlns:xlink="http://www.w3.org/1999/xlink" width="24px" height="24px" viewBox="0 0 24 24" version="1.1">
<defs>
<radialGradient id="radial0" gradientUnits="userSpaceOnUse" cx="450.908936" cy="189.579361" fx="450.908936" fy="189.579361" r="21.166656" gradientTransform="matrix(0.000000130628,-0.0585994,-0.105479,-0.0000000761539,33.392364,47.696497)">
<stop offset="0" style="stop-color:rgb(0%,0%,0%);stop-opacity:0.313726;"/>
<stop offset="0.222222" style="stop-color:rgb(0%,0%,0%);stop-opacity:0.27451;"/>
<stop offset="1" style="stop-color:rgb(0%,0%,0%);stop-opacity:0;"/>
</radialGradient>
<radialGradient id="radial1" gradientUnits="userSpaceOnUse" cx="450.908936" cy="189.579361" fx="450.908936" fy="189.579361" r="21.166656" gradientTransform="matrix(-0.000000130628,0.0585994,0.105479,0.0000000761539,-9.577589,-5.645612)">
<stop offset="0" style="stop-color:rgb(0%,0%,0%);stop-opacity:0.313726;"/>
<stop offset="0.222222" style="stop-color:rgb(0%,0%,0%);stop-opacity:0.27451;"/>
<stop offset="1" style="stop-color:rgb(0%,0%,0%);stop-opacity:0;"/>
</radialGradient>
<radialGradient id="radial2" gradientUnits="userSpaceOnUse" cx="450.908936" cy="189.579361" fx="450.908936" fy="189.579361" r="21.166656" gradientTransform="matrix(-0.000000130628,-0.0585994,0.105479,-0.0000000761539,-9.577589,47.696497)">
<stop offset="0" style="stop-color:rgb(0%,0%,0%);stop-opacity:0.313726;"/>
<stop offset="0.222222" style="stop-color:rgb(0%,0%,0%);stop-opacity:0.27451;"/>
<stop offset="1" style="stop-color:rgb(0%,0%,0%);stop-opacity:0;"/>
</radialGradient>
<radialGradient id="radial3" gradientUnits="userSpaceOnUse" cx="450.908936" cy="189.579361" fx="450.908936" fy="189.579361" r="21.166656" gradientTransform="matrix(0.000000130628,0.0585994,-0.105479,0.0000000761539,33.392362,-5.645612)">
<stop offset="0" style="stop-color:rgb(0%,0%,0%);stop-opacity:0.313726;"/>
<stop offset="0.222222" style="stop-color:rgb(0%,0%,0%);stop-opacity:0.27451;"/>
<stop offset="1" style="stop-color:rgb(0%,0%,0%);stop-opacity:0;"/>
</radialGradient>
<linearGradient id="linear0" gradientUnits="userSpaceOnUse" x1="255.323059" y1="233.5" x2="255.323044" y2="254.666656" gradientTransform="matrix(0.01002,0,0,0.0468795,9.34904,10.079088)">
<stop offset="0" style="stop-color:rgb(0%,0%,0%);stop-opacity:0.27451;"/>
<stop offset="1" style="stop-color:rgb(0%,0%,0%);stop-opacity:0;"/>
</linearGradient>
<linearGradient id="linear1" gradientUnits="userSpaceOnUse" x1="254" y1="-168.666672" x2="254" y2="233.5" gradientTransform="matrix(0.0468795,0,0,0.0468795,0.000000953765,10.079087)">
<stop offset="0" style="stop-color:rgb(93.333334%,93.333334%,93.333334%);stop-opacity:1;"/>
<stop offset="1" style="stop-color:rgb(87.843138%,87.843138%,87.843138%);stop-opacity:1;"/>
</linearGradient>
<linearGradient id="linear2" gradientUnits="userSpaceOnUse" x1="940" y1="1295.118164" x2="940" y2="575.118103" gradientTransform="matrix(0.0124035,0,0,0.0124035,-2.410376,-2.054877)">
<stop offset="0" style="stop-color:rgb(25.882354%,25.882354%,25.882354%);stop-opacity:1;"/>
<stop offset="1" style="stop-color:rgb(38.039216%,38.039216%,38.039216%);stop-opacity:1;"/>
</linearGradient>
<linearGradient id="linear3" gradientUnits="userSpaceOnUse" x1="940" y1="1295.118164" x2="940" y2="575.118103" gradientTransform="matrix(0.0124035,0,0,0.0124035,4.001785,2.597195)">
<stop offset="0" style="stop-color:rgb(25.882354%,25.882354%,25.882354%);stop-opacity:1;"/>
<stop offset="1" style="stop-color:rgb(38.039216%,38.039216%,38.039216%);stop-opacity:1;"/>
</linearGradient>
</defs>
<g id="surface1">
<path style=" stroke:none;fill-rule:nonzero;fill:url(#radial0);" d="M 13.644531 21.027344 L 15.628906 21.027344 L 15.628906 20.03125 L 13.644531 20.03125 Z M 13.644531 21.027344 "/>
<path style=" stroke:none;fill-rule:nonzero;fill:url(#radial1);" d="M 10.171875 21.027344 L 8.1875 21.027344 L 8.1875 22.019531 L 10.171875 22.019531 Z M 10.171875 21.027344 "/>
<path style=" stroke:none;fill-rule:nonzero;fill:url(#radial2);" d="M 10.171875 21.027344 L 8.1875 21.027344 L 8.1875 20.03125 L 10.171875 20.03125 Z M 10.171875 21.027344 "/>
<path style=" stroke:none;fill-rule:nonzero;fill:url(#radial3);" d="M 13.644531 21.027344 L 15.628906 21.027344 L 15.628906 22.019531 L 13.644531 22.019531 Z M 13.644531 21.027344 "/>
<path style=" stroke:none;fill-rule:nonzero;fill:url(#linear0);" d="M 10.171875 20.777344 L 13.644531 20.777344 L 13.644531 22.019531 L 10.171875 22.019531 Z M 10.171875 20.777344 "/>
<path style=" stroke:none;fill-rule:nonzero;fill:url(#linear1);" d="M 11.90625 2.171875 C 17.113281 2.171875 21.335938 6.390625 21.335938 11.597656 C 21.335938 16.804688 17.113281 21.027344 11.90625 21.027344 C 6.703125 21.027344 2.480469 16.804688 2.480469 11.597656 C 2.480469 6.390625 6.703125 2.171875 11.90625 2.171875 Z M 11.90625 2.171875 "/>
<path style=" stroke:none;fill-rule:nonzero;fill:rgb(0%,0%,0%);fill-opacity:0.196078;" d="M 11.90625 21.027344 C 6.683594 21.027344 2.480469 16.820312 2.480469 11.597656 C 2.480469 11.566406 2.480469 11.539062 2.480469 11.507812 C 2.53125 16.6875 6.714844 20.839844 11.90625 20.839844 C 17.097656 20.839844 21.285156 16.6875 21.332031 11.507812 C 21.332031 11.539062 21.335938 11.566406 21.335938 11.597656 C 21.335938 16.820312 17.128906 21.027344 11.90625 21.027344 Z M 11.90625 21.027344 "/>
<path style=" stroke:none;fill-rule:nonzero;fill:rgb(100%,100%,100%);fill-opacity:0.967626;" d="M 11.90625 2.171875 C 6.683594 2.171875 2.480469 6.375 2.480469 11.597656 C 2.480469 11.628906 2.480469 11.660156 2.480469 11.691406 C 2.53125 6.511719 6.714844 2.355469 11.90625 2.355469 C 17.097656 2.355469 21.285156 6.511719 21.332031 11.691406 C 21.332031 11.660156 21.335938 11.628906 21.335938 11.597656 C 21.335938 6.375 17.128906 2.171875 11.90625 2.171875 Z M 11.90625 2.171875 "/>
<path style=" stroke:none;fill-rule:nonzero;fill:rgb(12.941177%,12.941177%,12.941177%);fill-opacity:1;" d="M 11.90625 2.101562 C 6.648438 2.101562 2.410156 6.339844 2.410156 11.597656 C 2.410156 16.859375 6.648438 21.097656 11.90625 21.097656 C 17.167969 21.097656 21.40625 16.859375 21.40625 11.597656 C 21.40625 6.339844 17.167969 2.101562 11.90625 2.101562 Z M 11.90625 2.242188 C 17.09375 2.242188 21.265625 6.414062 21.265625 11.597656 C 21.265625 16.785156 17.09375 20.957031 11.90625 20.957031 C 6.722656 20.957031 2.550781 16.785156 2.550781 11.597656 C 2.550781 6.414062 6.722656 2.242188 11.90625 2.242188 Z M 11.90625 2.242188 "/>
<path style=" stroke:none;fill-rule:nonzero;fill:url(#linear2);" d="M 9.25 5.078125 C 7.324219 5.078125 5.777344 6.183594 5.777344 7.558594 L 5.777344 13.761719 C 5.777344 14.132812 7.511719 14.132812 7.511719 13.761719 L 7.511719 11.03125 L 9.992188 11.03125 C 10.613281 11.03125 10.613281 9.542969 9.992188 9.542969 L 7.511719 9.542969 L 7.511719 8.304688 C 7.511719 7.617188 8.285156 7.0625 9.25 7.0625 C 10.09375 7.0625 10.789062 7.488281 10.949219 8.054688 C 11.046875 8.367188 11.566406 8.300781 11.855469 8.304688 C 12.335938 8.304688 12.722656 8.191406 12.722656 8.054688 L 12.722656 7.558594 C 12.722656 6.183594 11.171875 5.078125 9.25 5.078125 Z M 9.25 5.078125 "/>
<path style=" stroke:none;fill-rule:nonzero;fill:rgb(100%,100%,100%);fill-opacity:0.392157;" d="M 9.25 5.148438 C 7.324219 5.148438 5.777344 6.253906 5.777344 7.628906 L 5.777344 7.753906 C 5.777344 6.378906 7.324219 5.273438 9.25 5.273438 C 11.171875 5.273438 12.722656 6.378906 12.722656 7.753906 L 12.722656 7.628906 C 12.722656 6.253906 11.171875 5.148438 9.25 5.148438 Z M 7.511719 9.613281 L 7.511719 9.738281 L 9.992188 9.738281 C 10.285156 9.738281 10.441406 10.070312 10.457031 10.417969 C 10.476562 10.027344 10.320312 9.613281 9.992188 9.613281 Z M 7.511719 9.613281 "/>
<path style=" stroke:none;fill-rule:nonzero;fill:rgb(0%,0%,0%);fill-opacity:0.235294;" d="M 9.25 7.0625 C 8.285156 7.0625 7.511719 7.617188 7.511719 8.304688 L 7.511719 8.675781 C 7.511719 7.988281 8.285156 7.433594 9.25 7.433594 C 10.09375 7.433594 10.789062 7.859375 10.949219 8.425781 C 11.046875 8.738281 11.566406 8.671875 11.855469 8.675781 C 12.335938 8.675781 12.722656 8.566406 12.722656 8.425781 L 12.722656 8.054688 C 12.722656 8.191406 12.335938 8.304688 11.855469 8.304688 C 11.566406 8.300781 11.046875 8.367188 10.949219 8.054688 C 10.789062 7.488281 10.09375 7.0625 9.25 7.0625 Z M 10.445312 10.472656 C 10.402344 10.773438 10.25 11.03125 9.992188 11.03125 L 7.511719 11.03125 L 7.511719 11.40625 L 9.992188 11.40625 C 10.355469 11.40625 10.507812 10.898438 10.445312 10.472656 Z M 5.777344 13.761719 L 5.777344 14.132812 C 5.777344 14.503906 7.511719 14.503906 7.511719 14.132812 L 7.511719 13.761719 C 7.511719 14.132812 5.777344 14.132812 5.777344 13.761719 Z M 5.777344 13.761719 "/>
<path style=" stroke:none;fill-rule:nonzero;fill:rgb(12.941177%,12.941177%,12.941177%);fill-opacity:1;" d="M 9.25 5.007812 C 8.273438 5.007812 7.390625 5.289062 6.75 5.746094 C 6.109375 6.203125 5.707031 6.847656 5.707031 7.558594 L 5.707031 13.761719 C 5.707031 13.835938 5.75 13.898438 5.808594 13.941406 C 5.867188 13.984375 5.941406 14.011719 6.027344 14.039062 C 6.199219 14.085938 6.421875 14.109375 6.644531 14.109375 C 6.867188 14.109375 7.085938 14.085938 7.261719 14.039062 C 7.347656 14.011719 7.421875 13.984375 7.480469 13.941406 C 7.539062 13.898438 7.582031 13.835938 7.582031 13.761719 L 7.582031 11.101562 L 9.992188 11.101562 C 10.175781 11.101562 10.316406 10.988281 10.402344 10.832031 C 10.488281 10.679688 10.527344 10.484375 10.527344 10.289062 C 10.527344 10.09375 10.488281 9.894531 10.402344 9.742188 C 10.316406 9.589844 10.175781 9.472656 9.992188 9.472656 L 7.582031 9.472656 L 7.582031 8.304688 C 7.582031 7.988281 7.761719 7.695312 8.0625 7.484375 C 8.359375 7.269531 8.78125 7.132812 9.25 7.132812 C 10.066406 7.132812 10.734375 7.550781 10.882812 8.074219 L 10.882812 8.078125 C 10.914062 8.171875 10.980469 8.242188 11.058594 8.285156 C 11.136719 8.332031 11.226562 8.351562 11.320312 8.363281 C 11.511719 8.390625 11.714844 8.371094 11.851562 8.375 L 11.855469 8.375 C 12.101562 8.375 12.320312 8.347656 12.488281 8.296875 C 12.570312 8.273438 12.640625 8.246094 12.695312 8.210938 C 12.746094 8.175781 12.792969 8.121094 12.792969 8.054688 L 12.792969 7.558594 C 12.792969 6.847656 12.390625 6.203125 11.746094 5.746094 C 11.105469 5.289062 10.222656 5.007812 9.25 5.007812 Z M 9.25 5.148438 C 10.199219 5.148438 11.050781 5.421875 11.667969 5.859375 C 12.28125 6.300781 12.652344 6.898438 12.652344 7.558594 L 12.652344 8.054688 C 12.652344 8.058594 12.648438 8.070312 12.613281 8.09375 C 12.582031 8.117188 12.523438 8.140625 12.449219 8.164062 C 12.300781 8.207031 12.089844 8.234375 11.855469 8.234375 C 11.703125 8.230469 11.507812 8.246094 11.339844 8.226562 C 11.257812 8.214844 11.179688 8.195312 11.125 8.164062 C 11.070312 8.132812 11.035156 8.09375 11.019531 8.035156 C 10.847656 7.425781 10.117188 6.992188 9.25 6.992188 C 8.753906 6.992188 8.308594 7.132812 7.980469 7.367188 C 7.652344 7.601562 7.441406 7.933594 7.441406 8.304688 L 7.441406 9.613281 L 9.992188 9.613281 C 10.121094 9.613281 10.210938 9.6875 10.28125 9.8125 C 10.351562 9.9375 10.386719 10.113281 10.386719 10.289062 C 10.386719 10.464844 10.351562 10.640625 10.28125 10.765625 C 10.210938 10.890625 10.121094 10.960938 9.992188 10.960938 L 7.441406 10.960938 L 7.441406 13.761719 C 7.441406 13.78125 7.433594 13.800781 7.394531 13.828125 C 7.359375 13.851562 7.296875 13.882812 7.222656 13.902344 C 7.070312 13.945312 6.855469 13.96875 6.644531 13.96875 C 6.433594 13.96875 6.21875 13.945312 6.066406 13.902344 C 5.988281 13.882812 5.929688 13.851562 5.890625 13.828125 C 5.855469 13.800781 5.847656 13.78125 5.847656 13.761719 L 5.847656 7.558594 C 5.847656 6.898438 6.21875 6.300781 6.832031 5.859375 C 7.445312 5.421875 8.300781 5.148438 9.25 5.148438 Z M 9.25 5.148438 "/>
<path style=" stroke:none;fill-rule:nonzero;fill:url(#linear3);" d="M 15.660156 9.730469 C 13.738281 9.730469 12.1875 10.835938 12.1875 12.210938 L 12.1875 18.414062 C 12.1875 18.785156 13.925781 18.785156 13.925781 18.414062 L 13.925781 15.683594 L 16.40625 15.683594 C 17.027344 15.683594 17.027344 14.195312 16.40625 14.195312 L 13.925781 14.195312 L 13.925781 12.957031 C 13.925781 12.269531 14.699219 11.714844 15.660156 11.714844 C 16.503906 11.714844 17.203125 12.140625 17.363281 12.707031 C 17.460938 13.019531 17.976562 12.953125 18.265625 12.957031 C 18.746094 12.957031 19.132812 12.84375 19.132812 12.707031 L 19.132812 12.210938 C 19.132812 10.835938 17.585938 9.730469 15.660156 9.730469 Z M 15.660156 9.730469 "/>
<path style=" stroke:none;fill-rule:nonzero;fill:rgb(100%,100%,100%);fill-opacity:0.392157;" d="M 15.660156 9.800781 C 13.738281 9.800781 12.1875 10.90625 12.1875 12.28125 L 12.1875 12.40625 C 12.1875 11.03125 13.738281 9.925781 15.660156 9.925781 C 17.585938 9.925781 19.132812 11.03125 19.132812 12.40625 L 19.132812 12.28125 C 19.132812 10.90625 17.585938 9.800781 15.660156 9.800781 Z M 13.925781 14.265625 L 13.925781 14.390625 L 16.40625 14.390625 C 16.699219 14.390625 16.851562 14.722656 16.867188 15.070312 C 16.886719 14.679688 16.734375 14.265625 16.40625 14.265625 Z M 13.925781 14.265625 "/>
<path style=" stroke:none;fill-rule:nonzero;fill:rgb(0%,0%,0%);fill-opacity:0.235294;" d="M 15.660156 11.714844 C 14.699219 11.714844 13.925781 12.269531 13.925781 12.957031 L 13.925781 13.328125 C 13.925781 12.640625 14.699219 12.085938 15.660156 12.085938 C 16.503906 12.085938 17.203125 12.511719 17.363281 13.078125 C 17.460938 13.390625 17.976562 13.324219 18.265625 13.328125 C 18.746094 13.328125 19.132812 13.21875 19.132812 13.078125 L 19.132812 12.707031 C 19.132812 12.84375 18.746094 12.957031 18.265625 12.957031 C 17.976562 12.953125 17.460938 13.019531 17.363281 12.707031 C 17.203125 12.140625 16.503906 11.714844 15.660156 11.714844 Z M 16.855469 15.125 C 16.8125 15.425781 16.664062 15.683594 16.40625 15.683594 L 13.925781 15.683594 L 13.925781 16.054688 L 16.40625 16.054688 C 16.769531 16.054688 16.917969 15.546875 16.855469 15.125 Z M 12.1875 18.414062 L 12.1875 18.785156 C 12.1875 19.15625 13.925781 19.15625 13.925781 18.785156 L 13.925781 18.414062 C 13.925781 18.785156 12.1875 18.785156 12.1875 18.414062 Z M 12.1875 18.414062 "/>
<path style=" stroke:none;fill-rule:nonzero;fill:rgb(12.941177%,12.941177%,12.941177%);fill-opacity:1;" d="M 15.660156 9.660156 C 14.6875 9.660156 13.804688 9.941406 13.164062 10.398438 C 12.519531 10.855469 12.117188 11.496094 12.117188 12.210938 L 12.117188 18.414062 C 12.117188 18.488281 12.164062 18.550781 12.222656 18.59375 C 12.277344 18.632812 12.355469 18.664062 12.441406 18.691406 C 12.613281 18.738281 12.835938 18.761719 13.054688 18.761719 C 13.277344 18.761719 13.5 18.738281 13.671875 18.691406 C 13.757812 18.664062 13.832031 18.632812 13.890625 18.59375 C 13.949219 18.550781 13.996094 18.488281 13.996094 18.414062 L 13.996094 15.753906 L 16.40625 15.753906 C 16.589844 15.753906 16.730469 15.640625 16.816406 15.484375 C 16.902344 15.332031 16.941406 15.136719 16.941406 14.941406 C 16.941406 14.746094 16.902344 14.546875 16.816406 14.394531 C 16.730469 14.242188 16.589844 14.125 16.40625 14.125 L 13.996094 14.125 L 13.996094 12.957031 C 13.996094 12.636719 14.171875 12.347656 14.472656 12.136719 C 14.773438 11.921875 15.195312 11.785156 15.660156 11.785156 C 16.480469 11.785156 17.148438 12.203125 17.296875 12.726562 C 17.324219 12.824219 17.390625 12.894531 17.46875 12.9375 C 17.546875 12.980469 17.640625 13.003906 17.734375 13.015625 C 17.921875 13.039062 18.128906 13.023438 18.265625 13.027344 C 18.511719 13.027344 18.734375 13 18.898438 12.949219 C 18.984375 12.925781 19.050781 12.898438 19.105469 12.863281 C 19.160156 12.824219 19.203125 12.773438 19.203125 12.707031 L 19.203125 12.210938 C 19.203125 11.496094 18.800781 10.855469 18.160156 10.398438 C 17.519531 9.941406 16.636719 9.660156 15.660156 9.660156 Z M 15.660156 9.800781 C 16.609375 9.800781 17.464844 10.074219 18.078125 10.511719 C 18.691406 10.953125 19.0625 11.550781 19.0625 12.210938 L 19.0625 12.707031 C 19.0625 12.707031 19.0625 12.722656 19.027344 12.746094 C 18.992188 12.769531 18.933594 12.792969 18.859375 12.816406 C 18.714844 12.859375 18.5 12.886719 18.265625 12.886719 C 18.117188 12.882812 17.917969 12.898438 17.75 12.878906 C 17.667969 12.867188 17.59375 12.847656 17.539062 12.816406 C 17.484375 12.785156 17.449219 12.746094 17.429688 12.6875 C 17.257812 12.078125 16.527344 11.644531 15.660156 11.644531 C 15.167969 11.644531 14.71875 11.785156 14.390625 12.019531 C 14.0625 12.253906 13.855469 12.585938 13.855469 12.957031 L 13.855469 14.265625 L 16.40625 14.265625 C 16.53125 14.265625 16.625 14.335938 16.691406 14.460938 C 16.761719 14.585938 16.800781 14.765625 16.800781 14.941406 C 16.800781 15.117188 16.761719 15.292969 16.691406 15.417969 C 16.625 15.542969 16.53125 15.613281 16.40625 15.613281 L 13.855469 15.613281 L 13.855469 18.414062 C 13.855469 18.433594 13.84375 18.453125 13.808594 18.480469 C 13.773438 18.503906 13.710938 18.53125 13.632812 18.554688 C 13.480469 18.597656 13.269531 18.621094 13.054688 18.621094 C 12.84375 18.621094 12.632812 18.597656 12.480469 18.554688 C 12.402344 18.53125 12.339844 18.503906 12.304688 18.480469 C 12.269531 18.453125 12.257812 18.433594 12.257812 18.414062 L 12.257812 12.210938 C 12.257812 11.550781 12.628906 10.953125 13.242188 10.511719 C 13.859375 10.074219 14.710938 9.800781 15.660156 9.800781 Z M 15.660156 9.800781 "/>
</g>
</svg>
