<svg height="32" viewBox="0 0 24 24" width="32" xmlns="http://www.w3.org/2000/svg" xmlns:xlink="http://www.w3.org/1999/xlink"><linearGradient id="a" gradientUnits="userSpaceOnUse" x1="11.90752" x2="11.90752" y1="21.02648" y2="22.01878896"><stop offset="0" stop-opacity=".275"/><stop offset="1" stop-opacity="0"/></linearGradient><linearGradient id="b"><stop offset="0" stop-opacity=".314"/><stop offset=".222" stop-opacity=".275"/><stop offset="1" stop-opacity="0"/></linearGradient><radialGradient id="c" cx="450.909" cy="189.579" gradientTransform="matrix(0 -.0586 -.10548 0 39.842 47.696)" gradientUnits="userSpaceOnUse" r="21.167" xlink:href="#b"/><radialGradient id="d" cx="450.909" cy="189.579" gradientTransform="matrix(0 .0586 .10548 0 -15.903 -5.646)" gradientUnits="userSpaceOnUse" r="21.167" xlink:href="#b"/><radialGradient id="e" cx="450.909" cy="189.579" gradientTransform="matrix(0 -.0586 .10548 0 -15.903 47.696)" gradientUnits="userSpaceOnUse" r="21.167" xlink:href="#b"/><radialGradient id="f" cx="450.909" cy="189.579" gradientTransform="matrix(0 .0586 -.10548 0 39.842 -5.646)" gradientUnits="userSpaceOnUse" r="21.167" xlink:href="#b"/><linearGradient id="g"><stop offset="0" stop-color="#424242"/><stop offset="1" stop-color="#616161"/></linearGradient><linearGradient id="h" gradientUnits="userSpaceOnUse" x1="11.90752" x2="11.90752" xlink:href="#g" y1="21.02648" y2="2.17289104"/><linearGradient id="i" gradientUnits="userSpaceOnUse" x1="254" x2="254" y1="-115.75" y2="212.333"><stop offset="0" stop-color="#90a4ae"/><stop offset="1" stop-color="#b0bec5"/></linearGradient><linearGradient id="j" gradientUnits="userSpaceOnUse" x1="960" x2="960" xlink:href="#g" y1="1295.118" y2="575.118"/><path d="m3.844 21.027h16.25v.993h-16.25zm0 0" fill="url(#a)"/><path d="m20.094 21.027h1.984v-.996h-1.984zm0 0" fill="url(#c)"/><path d="m3.844 21.027h-1.985v.993h1.985zm0 0" fill="url(#d)"/><path d="m3.844 21.027h-1.985v-.996h1.985zm0 0" fill="url(#e)"/><path d="m20.094 21.027h1.984v.993h-1.984zm0 0" fill="url(#f)"/><path d="m2.234 2.172h19.348c.41 0 .746.332.746.746v17.363c0 .41-.336.746-.746.746h-19.348a.746.746 0 0 1 -.746-.746v-17.363c0-.414.332-.746.746-.746zm0 0" fill="url(#h)"/><path d="m2.234 2.172a.744.744 0 0 0 -.746.746v.246c0-.41.332-.742.746-.742h19.348c.414 0 .746.332.746.742v-.246a.744.744 0 0 0 -.746-.746zm0 0" fill="#fff" fill-opacity=".392"/><path d="m2.234 21.027a.744.744 0 0 1 -.746-.746v-.25c0 .414.332.746.746.746h19.348a.744.744 0 0 0 .746-.746v.25a.744.744 0 0 1 -.746.746zm0 0" fill-opacity=".235"/><path d="m2.234 2.102a.814.814 0 0 0 -.816.816v17.363c0 .45.363.817.816.817h19.348c.45 0 .816-.368.816-.817v-17.363a.816.816 0 0 0 -.816-.816zm0 .14h19.348c.375 0 .676.301.676.676v17.363c0 .375-.301.676-.676.676h-19.348a.674.674 0 0 1 -.675-.676v-17.363c0-.375.3-.676.675-.676zm0 0" fill="#212121"/><g stroke="#212121" stroke-linecap="round" stroke-linejoin="round"><path d="m63.494-115.76h381.046c5.833 0 10.582 4.75 10.582 10.583v306.887c0 5.916-4.75 10.583-10.582 10.583h-381.046a10.544 10.544 0 0 1 -10.582-10.583v-306.887c0-5.833 4.75-10.582 10.582-10.582zm0 0" fill="url(#i)" stroke-width="3" transform="matrix(.04688 0 0 .04688 0 10.08)"/><path d="m959.908 615.06c-177.306 0-319.97 71.489-319.97 159.984 0 88.81 142.664 159.985 319.97 159.985s319.97-71.174 319.97-159.985c0-88.495-142.664-159.985-319.97-159.985zm-309.891 279.972c-6.614 12.912-10.078 26.139-10.078 39.996 0 88.81 142.663 159.985 319.97 159.985 177.305 0 319.969-71.175 319.969-159.985 0-13.857-3.464-27.084-9.763-39.996-35.587 69.284-160.615 119.988-310.207 119.988s-274.62-50.704-309.891-119.988zm0 159.984c-6.614 12.913-10.078 26.14-10.078 39.997 0 88.81 142.663 159.984 319.97 159.984 177.305 0 319.969-71.174 319.969-159.984 0-13.857-3.464-27.084-9.763-39.997-35.587 69.285-160.615 119.989-310.207 119.989s-274.62-50.704-309.891-119.989zm0 0" fill="url(#j)" stroke-width="11.339" transform="scale(.0124)"/></g></svg>