<svg height="32" viewBox="0 0 24 24" width="32" xmlns="http://www.w3.org/2000/svg" xmlns:xlink="http://www.w3.org/1999/xlink"><linearGradient id="a" gradientUnits="userSpaceOnUse" x1="11.90752" x2="11.90752" y1="20.03348" y2="21.02578896"><stop offset="0" stop-opacity=".275"/><stop offset="1" stop-opacity="0"/></linearGradient><linearGradient id="b"><stop offset="0" stop-opacity=".314"/><stop offset=".222" stop-opacity=".275"/><stop offset="1" stop-opacity="0"/></linearGradient><radialGradient id="c" cx="450.909" cy="189.579" gradientTransform="matrix(0 -.0586 -.10548 0 40.09 46.704)" gradientUnits="userSpaceOnUse" r="21.167" xlink:href="#b"/><radialGradient id="d" cx="450.909" cy="189.579" gradientTransform="matrix(0 .0586 .10548 0 -16.275 -6.638)" gradientUnits="userSpaceOnUse" r="21.167" xlink:href="#b"/><radialGradient id="e" cx="450.909" cy="189.579" gradientTransform="matrix(0 -.0586 .10548 0 -16.275 46.704)" gradientUnits="userSpaceOnUse" r="21.167" xlink:href="#b"/><radialGradient id="f" cx="450.909" cy="189.579" gradientTransform="matrix(0 .0586 -.10548 0 40.09 -6.638)" gradientUnits="userSpaceOnUse" r="21.167" xlink:href="#b"/><linearGradient id="g"><stop offset="0" stop-color="#42a5f5"/><stop offset="1" stop-color="#9fa8da"/></linearGradient><linearGradient id="h" gradientTransform="matrix(.05651 0 0 .16306 -4.39 25.231)" gradientUnits="userSpaceOnUse" x1="305.955" x2="305.955" xlink:href="#g" y1="-31.877" y2="-135.329"/><linearGradient id="i"><stop offset="0" stop-color="#37474f"/><stop offset="1" stop-color="#455a64"/></linearGradient><linearGradient id="j" gradientUnits="userSpaceOnUse" x1="11.904" x2="11.904" xlink:href="#i" y1="20.0274632" y2="12.5874632"/><linearGradient id="k"><stop offset="0" stop-color="#fdd835"/><stop offset="1" stop-color="#fff176"/></linearGradient><linearGradient id="l" gradientUnits="userSpaceOnUse" x1="17.36" x2="17.36" xlink:href="#k" y1="8.6194632" y2="5.6434632"/><linearGradient id="m" gradientTransform="matrix(4.55614 0 0 13.14618 -353.973 2034.18)" gradientUnits="userSpaceOnUse" x1="305.955" x2="305.955" y1="-31.877" y2="-135.329"><stop offset="0" stop-color="#b2ebf2"/><stop offset="1" stop-color="#e0f7fa"/></linearGradient><linearGradient id="n" gradientTransform="matrix(.01269 0 0 .0366 -.044 13.48)" gradientUnits="userSpaceOnUse" x1="296.776" x2="296.776" y1="-51.378" y2="-139.478"><stop offset="0" stop-color="#81d4fa"/><stop offset="1" stop-color="#fce4ec"/></linearGradient><linearGradient id="o" gradientTransform="matrix(.01144 0 0 .033 .795 8.304)" gradientUnits="userSpaceOnUse" x1="320.931" x2="320.931" xlink:href="#g" y1="-35.457" y2="-125.664"/><linearGradient id="p" gradientUnits="userSpaceOnUse" x1="4.0926" x2="4.0926" xlink:href="#i" y1="7.25094618" y2="5.74494618"/><linearGradient id="q" gradientUnits="userSpaceOnUse" x1="4.74" x2="4.74" xlink:href="#k" y1="5.06474618" y2="4.46234618"/><linearGradient id="r" gradientUnits="userSpaceOnUse" x1="3.6108" x2="3.6108" y1="12.30502804" y2="10.63702804"><stop offset="0" stop-color="#455a64"/><stop offset="1" stop-color="#78909c"/></linearGradient><linearGradient id="s" gradientUnits="userSpaceOnUse" x1="4.72744316" x2="4.72744316" y1="9.86234" y2="8.97164316"><stop offset="0" stop-color="#e57373"/><stop offset="1" stop-color="#ef9a9a"/></linearGradient><path d="m3.473 20.031h16.867v.965h-16.867zm0 0" fill="url(#a)"/><path d="m20.34 20.031h1.988v-.992h-1.988zm0 0" fill="url(#c)"/><path d="m3.473 20.031h-1.985v.996h1.985zm0 0" fill="url(#d)"/><path d="m3.473 20.031h-1.985v-.992h1.985zm0 0" fill="url(#e)"/><path d="m20.34 20.031h1.988v.996h-1.988zm0 0" fill="url(#f)"/><path d="m2.48 3.164h18.856c.547 0 .992.445.992.992v14.884c0 .55-.445.992-.992.992h-18.856a.991.991 0 0 1 -.992-.992v-14.884c0-.547.446-.992.992-.992zm0 0" fill="url(#h)"/><path d="m1.488 14.574v4.465c0 .55.442.992.992.992h18.856a.991.991 0 0 0 .992-.992v-4.465c-4.125 2.414-5.465-.273-7.148-.715-1.801-.472-2.145 1.672-3.961 1.454-1.817-.22-4.13-2.958-5.805-2.786-1.672.172-2.516 1.16-3.926 2.047zm0 0" fill="url(#j)"/><path d="m2.48 20.031a.989.989 0 0 1 -.992-.992v-.121c0 .547.442.992.992.992h18.856a.994.994 0 0 0 .992-.992v.121c0 .55-.445.992-.992.992zm0 0" fill-opacity=".196"/><path d="m2.48 3.164a.989.989 0 0 0 -.992.992v.125c0-.55.442-.992.992-.992h18.856c.547 0 .992.441.992.992v-.125a.991.991 0 0 0 -.992-.992zm0 0" fill="#e6e6e6" fill-opacity=".937"/><path d="m2.48 3.094c-.585 0-1.062.476-1.062 1.062v14.884c0 .59.477 1.063 1.062 1.063h18.856c.586 0 1.062-.473 1.062-1.063v-14.884c0-.586-.476-1.062-1.062-1.062zm0 .14h18.856c.512 0 .922.41.922.922v14.884c0 .516-.41.922-.922.922h-18.856a.916.916 0 0 1 -.921-.922v-14.884c0-.511.41-.922.921-.922zm0 0" fill="#212121"/><path d="m17.363 5.645c-.27 0-.523.074-.742.199.445.258.742.738.742 1.289 0 .554-.297 1.035-.742 1.293.219.125.473.195.742.195.828 0 1.489-.664 1.489-1.488s-.66-1.488-1.489-1.488zm0 0" fill="url(#l)"/><path d="m199.98 255.094c-44.404 0-79.991 35.587-79.991 79.992v1199.886c0 44.405 35.587 79.992 79.992 79.992h1520.17c44.09 0 79.992-35.587 79.992-79.992v-1199.886c0-44.405-35.902-79.992-79.992-79.992zm399.963 79.992h1039.9c44.406 0 80.308 35.587 80.308 79.992v1039.902c0 44.405-35.902 79.993-80.308 79.993h-1039.9c-44.405 0-79.993-35.588-79.993-79.993v-1039.9c0-44.406 35.588-79.993 79.993-79.993zm0 0" fill="url(#m)" stroke="#212121" stroke-linecap="round" stroke-width="11.339" transform="scale(.0124)"/><path d="m2.977 8.621a.497.497 0 0 0 -.497.496v1.985c0 .277.223.496.497.496h1.983a.494.494 0 0 0 .496-.496v-1.985a.497.497 0 0 0 -.496-.496zm0 0" fill="url(#n)"/><path d="m2.977 4.156a.497.497 0 0 0 -.497.496v1.985c0 .277.223.496.497.496h1.983a.494.494 0 0 0 .496-.496v-1.985a.497.497 0 0 0 -.496-.496zm0 0" fill="url(#o)"/><path d="m2.813 5.73a.85.85 0 0 0 -.332.086v.82c0 .278.222.497.496.497h1.983a.494.494 0 0 0 .496-.496v-.301c-.309-.05-.492-.277-.703-.332-.363-.098-.434.336-.8.293-.356-.043-.806-.567-1.142-.567zm0 0" fill="url(#p)"/><path d="m4.738 4.46a.275.275 0 0 0 -.148.044c.09.05.148.148.148.262 0 .109-.058.207-.148.257a.275.275 0 0 0 .148.043.304.304 0 0 0 .305-.3.305.305 0 0 0 -.305-.305zm0 0" fill="url(#q)"/><path d="m2.977 4.156h1.983c.273 0 .496.223.496.496v1.985a.497.497 0 0 1 -.496.496h-1.983a.497.497 0 0 1 -.497-.496v-1.985c0-.273.223-.496.497-.496zm0 0" fill="none" stroke="#212121" stroke-linecap="round" stroke-linejoin="round" stroke-width=".14064"/><path d="m2.48 10.71v.392c0 .277.223.496.497.496h1.983a.489.489 0 0 0 .457-.301c-.527.086-.777-.293-1.07-.371-.403-.106-.48.375-.887.328-.3-.04-.66-.379-.98-.543zm0 0" fill="url(#r)"/><path d="m4.73 8.973c.243 0 .446.199.446.445a.448.448 0 0 1 -.895 0c0-.246.203-.445.45-.445zm0 0" fill="url(#s)"/><path d="m2.977 8.621h1.983c.273 0 .496.223.496.496v1.985a.497.497 0 0 1 -.496.496h-1.983a.497.497 0 0 1 -.497-.496v-1.985c0-.273.223-.496.497-.496zm0 0" fill="none" stroke="#212121" stroke-linecap="round" stroke-linejoin="round" stroke-width=".14064"/></svg>