<svg height="24" width="24" xmlns="http://www.w3.org/2000/svg" xmlns:xlink="http://www.w3.org/1999/xlink"><linearGradient id="a"><stop offset="0" stop-opacity=".275"/><stop offset="1" stop-opacity="0"/></linearGradient><linearGradient id="b" gradientTransform="matrix(.00313 0 0 .04688 19.548 10.153)" gradientUnits="userSpaceOnUse" x1="254" x2="254" xlink:href="#a" y1="233.5" y2="254.667"/><linearGradient id="c"><stop offset="0" stop-opacity=".314"/><stop offset=".222" stop-opacity=".275"/><stop offset="1" stop-opacity="0"/></linearGradient><radialGradient id="d" cx="450.909" cy="189.579" gradientTransform="matrix(0 -.0586 -.10548 0 40.586 47.77)" gradientUnits="userSpaceOnUse" r="21.167" xlink:href="#c"/><radialGradient id="e" cx="450.909" cy="189.579" gradientTransform="matrix(0 .0586 .10548 0 .097 -5.572)" gradientUnits="userSpaceOnUse" r="21.167" xlink:href="#c"/><radialGradient id="f" cx="450.909" cy="189.579" gradientTransform="matrix(0 -.0586 .10548 0 .097 47.77)" gradientUnits="userSpaceOnUse" r="21.167" xlink:href="#c"/><radialGradient id="g" cx="450.909" cy="189.579" gradientTransform="matrix(0 .0586 -.10548 0 40.586 -5.572)" gradientUnits="userSpaceOnUse" r="21.167" xlink:href="#c"/><linearGradient id="h" gradientTransform="matrix(.00313 0 0 .04688 11.114 10.153)" gradientUnits="userSpaceOnUse" x1="254" x2="254" xlink:href="#a" y1="233.5" y2="254.667"/><radialGradient id="i" cx="450.909" cy="189.579" gradientTransform="matrix(0 -.0586 -.10548 0 32.152 47.77)" gradientUnits="userSpaceOnUse" r="21.167" xlink:href="#c"/><radialGradient id="j" cx="450.909" cy="189.579" gradientTransform="matrix(0 .0586 .10548 0 -8.337 -5.572)" gradientUnits="userSpaceOnUse" r="21.167" xlink:href="#c"/><radialGradient id="k" cx="450.909" cy="189.579" gradientTransform="matrix(0 -.0586 .10548 0 -8.337 47.77)" gradientUnits="userSpaceOnUse" r="21.167" xlink:href="#c"/><radialGradient id="l" cx="450.909" cy="189.579" gradientTransform="matrix(0 .0586 -.10548 0 32.152 -5.572)" gradientUnits="userSpaceOnUse" r="21.167" xlink:href="#c"/><linearGradient id="m" gradientTransform="matrix(.0452826 -.01213344 -.01213344 -.0452826 -.727544 17.580441)" gradientUnits="userSpaceOnUse" x1="241.315" x2="345.403" y1="-140.743" y2="247.72"><stop offset="0" stop-color="#bdbdbd"/><stop offset="1" stop-color="#e0e0e0"/></linearGradient><linearGradient id="n"><stop offset="0" stop-color="#424242"/><stop offset="1" stop-color="#616161"/></linearGradient><linearGradient id="o" gradientTransform="matrix(.04528218 .01213502 -.01213502 .04528218 -1.484261 7.38456)" gradientUnits="userSpaceOnUse" x1="232.833" x2="232.833" xlink:href="#n" y1="-168.667" y2="233.5"/><linearGradient id="p" gradientTransform="matrix(-.04528 .01213 .01213 .04528 25.299 7.384)" gradientUnits="userSpaceOnUse" x1="232.833" x2="232.833" xlink:href="#n" y1="-168.667" y2="233.5"/><path d="m19.844 21.027h.996v1.102h-.996zm0 0" fill="url(#b)"/><path d="m20.84 21.098h1.984v-.993h-1.984zm0 0" fill="url(#d)"/><path d="m19.844 21.098h-1.985v.992h1.985zm0 0" fill="url(#e)"/><path d="m19.844 21.098h-1.985v-.993h1.985zm0 0" fill="url(#f)"/><path d="m20.84 21.098h1.984v.992h-1.984zm0 0" fill="url(#g)"/><path d="m11.41 21.027h.992v1.102h-.992zm0 0" fill="url(#h)"/><path d="m12.402 21.098h1.985v-.993h-1.985zm0 0" fill="url(#i)"/><path d="m11.41 21.098h-1.984v.992h1.984zm0 0" fill="url(#j)"/><path d="m11.41 21.098h-1.984v-.993h1.984zm0 0" fill="url(#k)"/><path d="m12.402 21.098h1.985v.992h-1.985zm0 0" fill="url(#l)"/><path d="m11.906 2.172a9.403 9.403 0 0 0 -7.37 3.539 2.474 2.474 0 0 0 -3.047 2.414c0 .863.433 1.617 1.097 2.063-.07.46-.106.93-.106 1.41a9.408 9.408 0 0 0 9.426 9.43c1.188 0 2.32-.22 3.364-.614.937.227 2.046.473 2.335.531 1.137.239 2.48.285 3.622-.004h.003a.498.498 0 0 0 .29-.757c-.735-1.114-1.407-2.13-1.618-3.579a9.377 9.377 0 0 0 1.434-5.007c0-.48-.04-.95-.106-1.41a2.48 2.48 0 0 0 1.098-2.063 2.477 2.477 0 0 0 -3.05-2.414 9.39 9.39 0 0 0 -7.372-3.54zm0 0" fill="url(#m)"/><path d="m9.344 7.234c1.32.356 2.05 1.93 1.625 3.52-.426 1.586-1.844 2.586-3.168 2.23-1.324-.351-2.051-1.93-1.625-3.515.426-1.59 1.844-2.59 3.168-2.235zm0 0" fill="url(#o)"/><path d="m14.473 7.234c-1.325.356-2.051 1.93-1.625 3.52.425 1.586 1.843 2.586 3.164 2.23 1.324-.351 2.054-1.93 1.629-3.515-.426-1.59-1.844-2.59-3.168-2.235zm0 0" fill="url(#p)"/><path d="m8.781 7.164c-1.144.008-2.238.934-2.605 2.305-.11.402-.14.804-.114 1.187.02-.215.055-.43.114-.648.426-1.594 1.84-2.59 3.168-2.23.988.265 1.644 1.206 1.734 2.327.11-1.351-.59-2.562-1.734-2.87a1.984 1.984 0 0 0 -.563-.07zm6.254 0a1.984 1.984 0 0 0 -.562.07c-1.149.309-1.844 1.52-1.739 2.871.09-1.12.746-2.062 1.739-2.328 1.328-.359 2.738.637 3.168 2.23.058.22.093.434.109.65a3.552 3.552 0 0 0 -.11-1.188c-.367-1.371-1.46-2.297-2.605-2.305zm0 0" fill-opacity=".235"/><path d="m11.07 10.164c-.02.18-.054.363-.101.543-.426 1.594-1.84 2.59-3.168 2.234-.961-.257-1.606-1.152-1.727-2.23-.152 1.39.551 2.66 1.727 2.973 1.328.359 2.742-.637 3.168-2.23.117-.442.148-.88.101-1.29zm1.672.024c-.043.402-.012.832.106 1.265.425 1.594 1.84 2.59 3.164 2.23 1.172-.312 1.875-1.566 1.73-2.949-.113 1.086-.762 1.993-1.73 2.25-1.325.356-2.739-.64-3.164-2.234a3.56 3.56 0 0 1 -.106-.563zm0 0" fill="#fff" fill-opacity=".784"/><path d="m9.344 7.234c1.32.356 2.05 1.93 1.625 3.52-.426 1.586-1.844 2.586-3.168 2.23-1.324-.351-2.051-1.93-1.625-3.515.426-1.59 1.844-2.59 3.168-2.235zm5.129 0c-1.325.356-2.051 1.93-1.625 3.52.425 1.586 1.843 2.586 3.164 2.23 1.324-.351 2.054-1.93 1.629-3.515-.426-1.59-1.844-2.59-3.168-2.235zm0 0" fill="none" stroke="#212121" stroke-linecap="round" stroke-linejoin="round" stroke-width=".14064"/><path d="m11.906 2.172a9.403 9.403 0 0 0 -7.37 3.539 2.474 2.474 0 0 0 -3.036 2.664 2.478 2.478 0 0 1 3.034-2.168 9.403 9.403 0 0 1 7.371-3.539 9.39 9.39 0 0 1 7.371 3.539 2.472 2.472 0 0 1 3.035 2.168c.008-.082.016-.164.016-.25a2.477 2.477 0 0 0 -3.05-2.414 9.39 9.39 0 0 0 -7.372-3.54zm-9.379 8.473a9.613 9.613 0 0 0 -.043 1.203 8.77 8.77 0 0 1 .102-1.164c-.02-.012-.04-.028-.059-.04zm18.758 0c-.015.011-.035.027-.055.039.055.379.09.77.102 1.164 0-.082.004-.164.004-.25 0-.32-.02-.641-.05-.953zm-1.312 6.347c-.024.035-.047.074-.07.11.21 1.449.882 2.464 1.617 3.578a.063.063 0 0 1 .015.027.497.497 0 0 0 -.015-.523c-.665-1.012-1.286-1.942-1.547-3.192zm0 0" fill="#fff" fill-opacity=".784"/><path d="m1.496 7.938a2.474 2.474 0 0 0 1.043 2.219c.012-.118.027-.235.047-.348a2.478 2.478 0 0 1 -1.09-1.871zm20.824 0a2.478 2.478 0 0 1 -1.09 1.87c.016.114.032.231.043.348a2.477 2.477 0 0 0 1.047-2.219zm-19.836 3.467c-.004.063-.004.13-.004.192a9.408 9.408 0 0 0 9.426 9.43c1.188 0 2.32-.22 3.364-.614.937.227 2.046.473 2.335.531 1.137.239 2.48.285 3.622-.004h.003a.5.5 0 0 0 .336-.671.507.507 0 0 1 -.336.293h-.003c-1.141.289-2.485.242-3.622.003a80.513 80.513 0 0 1 -2.335-.535 9.399 9.399 0 0 1 -3.364.614 9.4 9.4 0 0 1 -9.422-9.239zm18.848.004a9.37 9.37 0 0 1 -1.43 4.817c.016.101.032.199.051.296a9.409 9.409 0 0 0 1.383-4.925c0-.063-.004-.125-.004-.188zm0 0" fill-opacity=".235"/><path d="m11.906 2.172a9.403 9.403 0 0 0 -7.37 3.539 2.474 2.474 0 0 0 -3.047 2.414c0 .863.433 1.617 1.097 2.062-.07.461-.106.93-.106 1.41a9.407 9.407 0 0 0 9.426 9.43c1.188 0 2.32-.218 3.363-.613.938.227 2.047.473 2.336.531 1.137.239 2.48.285 3.622-.004h.003a.498.498 0 0 0 .29-.757c-.735-1.114-1.407-2.13-1.618-3.579a9.377 9.377 0 0 0 1.434-5.007c0-.48-.04-.95-.106-1.41a2.48 2.48 0 0 0 1.098-2.063 2.477 2.477 0 0 0 -3.05-2.414 9.39 9.39 0 0 0 -7.372-3.54zm0 0" fill="none" stroke="#212121" stroke-linecap="round" stroke-linejoin="round" stroke-width=".140604"/></svg>