<?xml version="1.0" encoding="UTF-8"?>
<svg xmlns="http://www.w3.org/2000/svg" xmlns:xlink="http://www.w3.org/1999/xlink" width="24px" height="24px" viewBox="0 0 24 24" version="1.1">
<defs>
<linearGradient id="linear0" gradientUnits="userSpaceOnUse" x1="254" y1="233.500015" x2="254" y2="254.666672" gradientTransform="matrix(0.046875,0,0,0.046875,-1.488281,10.078124)">
<stop offset="0" style="stop-color:rgb(0%,0%,0%);stop-opacity:0.27451;"/>
<stop offset="1" style="stop-color:rgb(0%,0%,0%);stop-opacity:0;"/>
</linearGradient>
<radialGradient id="radial0" gradientUnits="userSpaceOnUse" cx="450.908936" cy="189.579361" fx="450.908936" fy="189.579361" r="21.166656" gradientTransform="matrix(0.000000130615,-0.0585938,-0.105469,-0.0000000761467,32.645036,47.691947)">
<stop offset="0" style="stop-color:rgb(0%,0%,0%);stop-opacity:0.313726;"/>
<stop offset="0.222222" style="stop-color:rgb(0%,0%,0%);stop-opacity:0.27451;"/>
<stop offset="1" style="stop-color:rgb(0%,0%,0%);stop-opacity:0;"/>
</radialGradient>
<radialGradient id="radial1" gradientUnits="userSpaceOnUse" cx="450.908936" cy="189.579361" fx="450.908936" fy="189.579361" r="21.166656" gradientTransform="matrix(-0.000000130615,0.0585938,0.105469,0.0000000761467,-8.336437,-5.645071)">
<stop offset="0" style="stop-color:rgb(0%,0%,0%);stop-opacity:0.313726;"/>
<stop offset="0.222222" style="stop-color:rgb(0%,0%,0%);stop-opacity:0.27451;"/>
<stop offset="1" style="stop-color:rgb(0%,0%,0%);stop-opacity:0;"/>
</radialGradient>
<radialGradient id="radial2" gradientUnits="userSpaceOnUse" cx="450.908936" cy="189.579361" fx="450.908936" fy="189.579361" r="21.166656" gradientTransform="matrix(-0.000000130615,-0.0585938,0.105469,-0.0000000761467,-8.336437,47.691947)">
<stop offset="0" style="stop-color:rgb(0%,0%,0%);stop-opacity:0.313726;"/>
<stop offset="0.222222" style="stop-color:rgb(0%,0%,0%);stop-opacity:0.27451;"/>
<stop offset="1" style="stop-color:rgb(0%,0%,0%);stop-opacity:0;"/>
</radialGradient>
<radialGradient id="radial3" gradientUnits="userSpaceOnUse" cx="450.908936" cy="189.579361" fx="450.908936" fy="189.579361" r="21.166656" gradientTransform="matrix(0.000000130615,0.0585938,-0.105469,0.0000000761467,32.645034,-5.645073)">
<stop offset="0" style="stop-color:rgb(0%,0%,0%);stop-opacity:0.313726;"/>
<stop offset="0.222222" style="stop-color:rgb(0%,0%,0%);stop-opacity:0.27451;"/>
<stop offset="1" style="stop-color:rgb(0%,0%,0%);stop-opacity:0;"/>
</radialGradient>
<linearGradient id="linear1" gradientUnits="userSpaceOnUse" x1="254" y1="233.5" x2="254" y2="-168.666656" gradientTransform="matrix(0.046875,0,0,0.046875,0,10.078125)">
<stop offset="0" style="stop-color:rgb(74.117649%,74.117649%,74.117649%);stop-opacity:1;"/>
<stop offset="1" style="stop-color:rgb(87.843138%,87.843138%,87.843138%);stop-opacity:1;"/>
</linearGradient>
<linearGradient id="linear2" gradientUnits="userSpaceOnUse" x1="254" y1="95.916664" x2="254" y2="-31.083334" gradientTransform="matrix(0.0507812,0,0,0.0507812,-0.992187,9.951497)">
<stop offset="0" style="stop-color:rgb(40.000001%,73.333335%,41.568628%);stop-opacity:1;"/>
<stop offset="1" style="stop-color:rgb(50.588238%,78.039217%,51.764709%);stop-opacity:1;"/>
</linearGradient>
</defs>
<g id="surface1">
<path style=" stroke:none;fill-rule:nonzero;fill:url(#linear0);" d="M 11.410156 20.652344 L 12.898438 20.652344 L 12.898438 22.015625 L 11.410156 22.015625 Z M 11.410156 20.652344 "/>
<path style=" stroke:none;fill-rule:nonzero;fill:url(#radial0);" d="M 12.898438 21.023438 L 14.882812 21.023438 L 14.882812 20.03125 L 12.898438 20.03125 Z M 12.898438 21.023438 "/>
<path style=" stroke:none;fill-rule:nonzero;fill:url(#radial1);" d="M 11.410156 21.023438 L 9.425781 21.023438 L 9.425781 22.015625 L 11.410156 22.015625 Z M 11.410156 21.023438 "/>
<path style=" stroke:none;fill-rule:nonzero;fill:url(#radial2);" d="M 11.410156 21.023438 L 9.425781 21.023438 L 9.425781 20.03125 L 11.410156 20.03125 Z M 11.410156 21.023438 "/>
<path style=" stroke:none;fill-rule:nonzero;fill:url(#radial3);" d="M 12.898438 21.023438 L 14.882812 21.023438 L 14.882812 22.015625 L 12.898438 22.015625 Z M 12.898438 21.023438 "/>
<path style=" stroke:none;fill-rule:nonzero;fill:url(#linear1);" d="M 11.90625 2.152344 C 11.238281 2.152344 10.585938 2.222656 9.957031 2.355469 C 9.683594 2.410156 9.503906 2.675781 9.554688 2.949219 C 9.742188 4.011719 9.320312 5.050781 8.425781 5.566406 C 7.527344 6.085938 6.414062 5.929688 5.589844 5.234375 C 5.375 5.054688 5.058594 5.074219 4.875 5.28125 C 4.003906 6.25 3.332031 7.398438 2.921875 8.667969 C 2.835938 8.929688 2.976562 9.214844 3.238281 9.308594 C 4.253906 9.675781 4.941406 10.5625 4.941406 11.597656 C 4.941406 12.632812 4.253906 13.519531 3.238281 13.886719 C 2.976562 13.980469 2.835938 14.265625 2.921875 14.527344 C 3.332031 15.796875 4.003906 16.945312 4.875 17.914062 C 5.058594 18.121094 5.375 18.140625 5.589844 17.960938 C 6.078125 17.546875 6.675781 17.328125 7.261719 17.324219 C 7.664062 17.320312 8.058594 17.417969 8.425781 17.628906 C 9.320312 18.144531 9.742188 19.183594 9.554688 20.246094 C 9.503906 20.519531 9.683594 20.785156 9.957031 20.839844 C 10.585938 20.972656 11.238281 21.042969 11.90625 21.042969 C 12.574219 21.042969 13.226562 20.972656 13.855469 20.839844 C 14.128906 20.785156 14.308594 20.519531 14.257812 20.246094 C 14.070312 19.183594 14.492188 18.144531 15.386719 17.628906 C 15.753906 17.417969 16.148438 17.320312 16.550781 17.324219 C 17.136719 17.328125 17.734375 17.546875 18.222656 17.960938 C 18.4375 18.140625 18.753906 18.121094 18.9375 17.914062 C 19.808594 16.945312 20.480469 15.796875 20.890625 14.527344 C 20.976562 14.265625 20.835938 13.980469 20.574219 13.886719 C 19.558594 13.519531 18.871094 12.632812 18.871094 11.597656 C 18.871094 10.5625 19.558594 9.675781 20.574219 9.308594 C 20.835938 9.214844 20.976562 8.929688 20.890625 8.667969 C 20.480469 7.398438 19.808594 6.25 18.9375 5.28125 C 18.753906 5.074219 18.4375 5.054688 18.222656 5.234375 C 17.398438 5.929688 16.285156 6.085938 15.386719 5.566406 C 14.492188 5.050781 14.070312 4.011719 14.257812 2.949219 C 14.308594 2.675781 14.128906 2.410156 13.855469 2.355469 C 13.226562 2.222656 12.574219 2.152344 11.90625 2.152344 Z M 11.90625 8.621094 C 13.554688 8.621094 14.882812 9.949219 14.882812 11.597656 C 14.882812 13.246094 13.554688 14.574219 11.90625 14.574219 C 10.257812 14.574219 8.929688 13.246094 8.929688 11.597656 C 8.929688 9.949219 10.257812 8.621094 11.90625 8.621094 Z M 11.90625 8.621094 "/>
<path style=" stroke:none;fill-rule:nonzero;fill:rgb(0%,0%,0%);fill-opacity:0.156863;" d="M 11.90625 6.140625 C 8.882812 6.140625 6.449219 8.574219 6.449219 11.597656 C 6.449219 14.621094 8.882812 17.054688 11.90625 17.054688 C 14.929688 17.054688 17.363281 14.621094 17.363281 11.597656 C 17.363281 8.574219 14.929688 6.140625 11.90625 6.140625 Z M 11.90625 8.621094 C 13.554688 8.621094 14.882812 9.949219 14.882812 11.597656 C 14.882812 13.246094 13.554688 14.574219 11.90625 14.574219 C 10.257812 14.574219 8.929688 13.246094 8.929688 11.597656 C 8.929688 9.949219 10.257812 8.621094 11.90625 8.621094 Z M 11.90625 8.621094 "/>
<path style="fill:none;stroke-width:0.264583;stroke-linecap:butt;stroke-linejoin:miter;stroke:rgb(0%,0%,0%);stroke-opacity:1;stroke-miterlimit:4;" d="M 254 32.416667 L 10.583333 32.416667 " transform="matrix(0.046875,0,0,0.046875,0,10.078125)"/>
<path style=" stroke:none;fill-rule:nonzero;fill:rgb(0%,0%,0%);fill-opacity:0.235294;" d="M 9.554688 2.761719 C 9.542969 2.820312 9.542969 2.882812 9.554688 2.949219 C 9.578125 3.082031 9.59375 3.21875 9.597656 3.351562 C 9.605469 3.15625 9.589844 2.960938 9.554688 2.761719 Z M 14.257812 2.761719 C 14.222656 2.960938 14.207031 3.15625 14.214844 3.351562 C 14.21875 3.21875 14.234375 3.082031 14.257812 2.949219 C 14.269531 2.882812 14.269531 2.820312 14.257812 2.761719 Z M 11.90625 8.429688 C 10.257812 8.429688 8.929688 9.757812 8.929688 11.40625 C 8.929688 11.4375 8.929688 11.46875 8.929688 11.5 C 8.980469 9.898438 10.289062 8.621094 11.90625 8.621094 C 13.523438 8.621094 14.832031 9.898438 14.882812 11.5 C 14.882812 11.46875 14.882812 11.4375 14.882812 11.40625 C 14.882812 9.757812 13.554688 8.429688 11.90625 8.429688 Z M 2.90625 8.730469 C 2.859375 8.972656 2.996094 9.222656 3.238281 9.308594 C 4.222656 9.664062 4.898438 10.507812 4.941406 11.5 C 4.941406 11.46875 4.941406 11.4375 4.941406 11.40625 C 4.941406 10.371094 4.253906 9.484375 3.238281 9.117188 C 3.0625 9.054688 2.941406 8.902344 2.90625 8.730469 Z M 20.90625 8.730469 C 20.871094 8.902344 20.75 9.054688 20.574219 9.117188 C 19.558594 9.484375 18.871094 10.371094 18.871094 11.40625 C 18.871094 11.4375 18.871094 11.46875 18.871094 11.5 C 18.914062 10.507812 19.589844 9.664062 20.574219 9.308594 C 20.816406 9.222656 20.953125 8.972656 20.90625 8.730469 Z M 2.90625 14.273438 C 2.890625 14.355469 2.894531 14.445312 2.921875 14.527344 C 3.332031 15.796875 4.003906 16.945312 4.875 17.914062 C 5.058594 18.121094 5.375 18.140625 5.589844 17.960938 C 6.078125 17.546875 6.675781 17.328125 7.261719 17.324219 C 7.664062 17.320312 8.058594 17.417969 8.425781 17.628906 C 9.152344 18.046875 9.566406 18.8125 9.597656 19.652344 C 9.628906 18.738281 9.207031 17.886719 8.425781 17.4375 C 8.058594 17.226562 7.664062 17.128906 7.261719 17.132812 C 6.675781 17.136719 6.078125 17.355469 5.589844 17.769531 C 5.375 17.949219 5.058594 17.929688 4.875 17.722656 C 4.003906 16.753906 3.332031 15.605469 2.921875 14.335938 C 2.914062 14.316406 2.910156 14.296875 2.90625 14.273438 Z M 20.90625 14.273438 C 20.902344 14.296875 20.898438 14.316406 20.890625 14.335938 C 20.480469 15.605469 19.808594 16.753906 18.9375 17.722656 C 18.753906 17.929688 18.4375 17.949219 18.222656 17.769531 C 17.734375 17.355469 17.136719 17.136719 16.550781 17.132812 C 16.148438 17.128906 15.753906 17.226562 15.386719 17.4375 C 14.605469 17.886719 14.183594 18.738281 14.214844 19.652344 C 14.246094 18.8125 14.660156 18.046875 15.386719 17.628906 C 15.753906 17.417969 16.148438 17.320312 16.550781 17.324219 C 17.136719 17.328125 17.734375 17.546875 18.222656 17.960938 C 18.4375 18.140625 18.753906 18.121094 18.9375 17.914062 C 19.808594 16.945312 20.480469 15.796875 20.890625 14.527344 C 20.917969 14.445312 20.921875 14.355469 20.90625 14.273438 Z M 9.554688 20.242188 C 9.554688 20.242188 9.554688 20.246094 9.554688 20.246094 C 9.503906 20.519531 9.683594 20.785156 9.957031 20.839844 C 10.585938 20.972656 11.238281 21.042969 11.90625 21.042969 C 12.574219 21.042969 13.226562 20.972656 13.855469 20.839844 C 14.128906 20.785156 14.308594 20.519531 14.257812 20.246094 C 14.257812 20.246094 14.257812 20.242188 14.257812 20.242188 C 14.21875 20.441406 14.066406 20.605469 13.855469 20.648438 C 13.226562 20.78125 12.574219 20.851562 11.90625 20.851562 C 11.238281 20.851562 10.585938 20.78125 9.957031 20.648438 C 9.746094 20.605469 9.59375 20.441406 9.554688 20.242188 Z M 9.554688 20.242188 "/>
<path style=" stroke:none;fill-rule:nonzero;fill:rgb(100%,100%,100%);fill-opacity:0.588235;" d="M 11.90625 2.152344 C 11.238281 2.152344 10.585938 2.222656 9.957031 2.355469 C 9.683594 2.410156 9.503906 2.675781 9.554688 2.949219 C 9.554688 2.953125 9.554688 2.957031 9.554688 2.960938 C 9.597656 2.765625 9.75 2.601562 9.957031 2.558594 C 10.585938 2.425781 11.238281 2.359375 11.90625 2.359375 C 12.574219 2.359375 13.226562 2.425781 13.855469 2.558594 C 14.0625 2.601562 14.214844 2.765625 14.257812 2.960938 C 14.257812 2.957031 14.257812 2.953125 14.257812 2.949219 C 14.308594 2.675781 14.128906 2.410156 13.855469 2.355469 C 13.226562 2.222656 12.574219 2.152344 11.90625 2.152344 Z M 9.597656 3.546875 C 9.566406 4.386719 9.148438 5.148438 8.425781 5.566406 C 7.527344 6.085938 6.414062 5.929688 5.589844 5.234375 C 5.375 5.054688 5.058594 5.074219 4.875 5.28125 C 4.003906 6.25 3.332031 7.398438 2.921875 8.667969 C 2.894531 8.753906 2.890625 8.84375 2.90625 8.925781 C 2.910156 8.910156 2.917969 8.890625 2.921875 8.871094 C 3.332031 7.601562 4.003906 6.453125 4.875 5.488281 C 5.058594 5.28125 5.375 5.257812 5.589844 5.4375 C 6.414062 6.136719 7.527344 6.289062 8.425781 5.769531 C 9.207031 5.320312 9.632812 4.464844 9.597656 3.546875 Z M 14.214844 3.546875 C 14.179688 4.464844 14.605469 5.320312 15.386719 5.769531 C 16.285156 6.289062 17.398438 6.136719 18.222656 5.4375 C 18.4375 5.257812 18.753906 5.28125 18.9375 5.488281 C 19.808594 6.453125 20.480469 7.601562 20.890625 8.871094 C 20.894531 8.890625 20.902344 8.910156 20.90625 8.925781 C 20.921875 8.84375 20.917969 8.753906 20.890625 8.667969 C 20.480469 7.398438 19.808594 6.25 18.9375 5.28125 C 18.753906 5.074219 18.4375 5.054688 18.222656 5.234375 C 17.398438 5.929688 16.285156 6.085938 15.386719 5.566406 C 14.664062 5.148438 14.246094 4.386719 14.214844 3.546875 Z M 4.941406 11.699219 C 4.898438 12.691406 4.21875 13.53125 3.238281 13.886719 C 2.996094 13.972656 2.859375 14.226562 2.90625 14.472656 C 2.941406 14.300781 3.0625 14.152344 3.238281 14.089844 C 4.253906 13.722656 4.941406 12.835938 4.941406 11.800781 C 4.941406 11.769531 4.941406 11.734375 4.941406 11.699219 Z M 8.929688 11.699219 C 8.929688 11.734375 8.929688 11.769531 8.929688 11.800781 C 8.929688 13.449219 10.257812 14.777344 11.90625 14.777344 C 13.554688 14.777344 14.882812 13.449219 14.882812 11.800781 C 14.882812 11.769531 14.882812 11.734375 14.882812 11.699219 C 14.828125 13.300781 13.519531 14.574219 11.90625 14.574219 C 10.292969 14.574219 8.984375 13.300781 8.929688 11.699219 Z M 18.871094 11.699219 C 18.871094 11.734375 18.871094 11.769531 18.871094 11.800781 C 18.871094 12.835938 19.558594 13.722656 20.574219 14.089844 C 20.75 14.152344 20.871094 14.300781 20.90625 14.472656 C 20.953125 14.226562 20.816406 13.972656 20.574219 13.886719 C 19.59375 13.53125 18.914062 12.691406 18.871094 11.699219 Z M 9.597656 19.851562 C 9.59375 19.984375 9.578125 20.113281 9.554688 20.246094 C 9.542969 20.3125 9.542969 20.378906 9.554688 20.4375 C 9.589844 20.242188 9.605469 20.042969 9.597656 19.851562 Z M 14.214844 19.851562 C 14.207031 20.042969 14.222656 20.242188 14.257812 20.4375 C 14.269531 20.378906 14.269531 20.3125 14.257812 20.246094 C 14.234375 20.113281 14.21875 19.984375 14.214844 19.851562 Z M 14.214844 19.851562 "/>
<path style="fill:none;stroke-width:11.338583;stroke-linecap:round;stroke-linejoin:round;stroke:rgb(12.941177%,12.941177%,12.941177%);stroke-opacity:1;stroke-miterlimit:4;" d="M 960.00005 173.543316 C 906.14178 173.543316 853.543352 179.212608 802.834688 189.92127 C 780.787443 194.330719 766.299253 215.748043 770.393741 237.795288 C 785.511852 323.464584 751.496102 407.244116 679.370114 448.818921 C 606.929166 490.708687 517.165382 478.110261 450.708685 422.047266 C 433.38585 407.559077 407.874037 409.13388 393.070887 425.826794 C 322.834663 503.937034 268.661431 596.535464 235.590564 698.897675 C 228.661429 720.000038 240.000013 742.992165 261.102376 750.551221 C 342.992144 780.157521 398.425218 851.653588 398.425218 935.118159 C 398.425218 1018.582731 342.992144 1090.078797 261.102376 1119.685098 C 240.000013 1127.244154 228.661429 1150.236281 235.590564 1171.338644 C 268.661431 1273.700854 322.834663 1366.299284 393.070887 1444.409525 C 407.874037 1461.102439 433.38585 1462.677242 450.708685 1448.189053 C 490.078766 1414.803224 538.267745 1397.165428 585.511842 1396.850467 C 617.952788 1396.535506 649.763814 1404.409523 679.370114 1421.417398 C 751.496102 1462.992203 785.511852 1546.771735 770.393741 1632.441031 C 766.299253 1654.488276 780.787443 1675.9056 802.834688 1680.315049 C 853.543352 1691.023711 906.14178 1696.693003 960.00005 1696.693003 C 1013.858321 1696.693003 1066.456749 1691.023711 1117.165413 1680.315049 C 1139.212658 1675.9056 1153.700848 1654.488276 1149.60636 1632.441031 C 1134.488249 1546.771735 1168.503998 1462.992203 1240.629986 1421.417398 C 1270.236287 1404.409523 1302.047313 1396.535506 1334.488259 1396.850467 C 1381.732356 1397.165428 1429.921335 1414.803224 1469.291416 1448.189053 C 1486.614251 1462.677242 1512.126064 1461.102439 1526.929214 1444.409525 C 1597.165438 1366.299284 1651.338669 1273.700854 1684.409537 1171.338644 C 1691.338672 1150.236281 1680.000088 1127.244154 1658.897725 1119.685098 C 1577.007957 1090.078797 1521.574883 1018.582731 1521.574883 935.118159 C 1521.574883 851.653588 1577.007957 780.157521 1658.897725 750.551221 C 1680.000088 742.992165 1691.338672 720.000038 1684.409537 698.897675 C 1651.338669 596.535464 1597.165438 503.937034 1526.929214 425.826794 C 1512.126064 409.13388 1486.614251 407.559077 1469.291416 422.047266 C 1402.834719 478.110261 1313.070935 490.708687 1240.629986 448.818921 C 1168.503998 407.244116 1134.488249 323.464584 1149.60636 237.795288 C 1153.700848 215.748043 1139.212658 194.330719 1117.165413 189.92127 C 1066.456749 179.212608 1013.858321 173.543316 960.00005 173.543316 Z M 960.00005 695.118147 C 1092.913443 695.118147 1200.000063 802.204767 1200.000063 935.118159 C 1200.000063 1068.031552 1092.913443 1175.118172 960.00005 1175.118172 C 827.086658 1175.118172 720.000038 1068.031552 720.000038 935.118159 C 720.000038 802.204767 827.086658 695.118147 960.00005 695.118147 Z M 960.00005 695.118147 " transform="matrix(0.0124023,0,0,0.0124023,0,0)"/>
<path style=" stroke:none;fill-rule:nonzero;fill:rgb(0%,0%,0%);fill-opacity:0.235294;" d="M 11.90625 6.140625 C 8.882812 6.140625 6.449219 8.574219 6.449219 11.597656 C 6.449219 11.679688 6.449219 11.761719 6.453125 11.84375 C 6.582031 8.9375 8.964844 6.636719 11.90625 6.636719 C 14.847656 6.636719 17.230469 8.9375 17.359375 11.84375 C 17.363281 11.761719 17.363281 11.679688 17.363281 11.597656 C 17.363281 8.574219 14.929688 6.140625 11.90625 6.140625 Z M 11.90625 6.140625 "/>
<path style=" stroke:none;fill-rule:nonzero;fill:rgb(100%,100%,100%);fill-opacity:0.392157;" d="M 11.90625 8.515625 C 11.878906 8.515625 11.855469 8.515625 11.828125 8.519531 C 11.855469 8.515625 11.878906 8.515625 11.90625 8.515625 C 11.933594 8.515625 11.957031 8.515625 11.984375 8.519531 C 11.957031 8.515625 11.933594 8.515625 11.90625 8.515625 Z M 8.929688 11.148438 C 8.929688 11.171875 8.929688 11.195312 8.929688 11.21875 C 8.929688 11.195312 8.929688 11.171875 8.929688 11.148438 Z M 8.929688 11.25 C 8.933594 11.261719 8.933594 11.273438 8.933594 11.285156 C 8.933594 11.273438 8.933594 11.261719 8.929688 11.25 Z M 8.933594 11.328125 C 8.933594 11.332031 8.9375 11.339844 8.9375 11.34375 C 8.9375 11.339844 8.933594 11.332031 8.933594 11.328125 Z M 8.929688 11.492188 C 8.929688 11.515625 8.929688 11.539062 8.929688 11.5625 C 8.929688 11.539062 8.929688 11.515625 8.929688 11.492188 Z M 8.929688 11.59375 C 8.933594 11.605469 8.933594 11.617188 8.933594 11.628906 C 8.933594 11.617188 8.933594 11.605469 8.929688 11.59375 Z M 8.933594 11.671875 C 8.933594 11.675781 8.9375 11.683594 8.9375 11.691406 C 8.9375 11.683594 8.933594 11.675781 8.933594 11.671875 Z M 6.453125 11.816406 C 6.449219 11.875 6.449219 11.933594 6.449219 11.988281 C 6.449219 15.011719 8.882812 17.445312 11.90625 17.445312 C 14.929688 17.445312 17.363281 15.011719 17.363281 11.988281 C 17.363281 11.933594 17.363281 11.875 17.359375 11.816406 C 17.269531 14.761719 14.871094 17.101562 11.90625 17.101562 C 8.941406 17.101562 6.542969 14.761719 6.453125 11.816406 Z M 6.453125 11.816406 "/>
<path style="fill:none;stroke-width:11.338583;stroke-linecap:round;stroke-linejoin:round;stroke:rgb(12.941177%,12.941177%,12.941177%);stroke-opacity:1;stroke-miterlimit:4;" d="M 960.00005 495.118136 C 716.22051 495.118136 520.000027 691.338619 520.000027 935.118159 C 520.000027 1178.8977 716.22051 1375.118183 960.00005 1375.118183 C 1203.779591 1375.118183 1400.000074 1178.8977 1400.000074 935.118159 C 1400.000074 691.338619 1203.779591 495.118136 960.00005 495.118136 Z M 960.00005 695.118147 C 1092.913443 695.118147 1200.000063 802.204767 1200.000063 935.118159 C 1200.000063 1068.031552 1092.913443 1175.118172 960.00005 1175.118172 C 827.086658 1175.118172 720.000038 1068.031552 720.000038 935.118159 C 720.000038 802.204767 827.086658 695.118147 960.00005 695.118147 Z M 960.00005 695.118147 " transform="matrix(0.0124023,0,0,0.0124023,0,0)"/>
<path style=" stroke:none;fill-rule:nonzero;fill:url(#linear2);" d="M 14.21875 2.171875 C 13.761719 2.171875 13.394531 2.558594 13.394531 3.039062 L 13.394531 8.734375 C 12.949219 8.503906 12.445312 8.371094 11.90625 8.371094 C 10.121094 8.371094 8.679688 9.8125 8.679688 11.597656 C 8.679688 13.382812 10.121094 14.820312 11.90625 14.820312 C 13.691406 14.820312 15.128906 13.382812 15.128906 11.597656 C 15.128906 11.570312 15.128906 11.542969 15.128906 11.515625 C 15.128906 11.5 15.128906 11.488281 15.128906 11.472656 L 15.128906 3.90625 L 17.984375 3.90625 C 18.464844 3.90625 18.851562 3.519531 18.851562 3.039062 C 18.851562 2.558594 18.464844 2.171875 17.984375 2.171875 Z M 14.21875 2.171875 "/>
<path style=" stroke:none;fill-rule:nonzero;fill:rgb(100%,100%,100%);fill-opacity:0.392157;" d="M 14.21875 2.171875 C 13.761719 2.171875 13.394531 2.558594 13.394531 3.039062 L 13.394531 3.289062 C 13.394531 2.808594 13.761719 2.417969 14.21875 2.417969 L 17.984375 2.417969 C 18.421875 2.417969 18.78125 2.742188 18.84375 3.164062 C 18.847656 3.125 18.851562 3.082031 18.851562 3.039062 C 18.851562 2.558594 18.464844 2.171875 17.984375 2.171875 Z M 11.90625 8.371094 C 10.121094 8.371094 8.679688 9.8125 8.679688 11.597656 C 8.679688 11.640625 8.683594 11.679688 8.683594 11.722656 C 8.75 9.992188 10.160156 8.621094 11.90625 8.621094 C 12.445312 8.621094 12.949219 8.75 13.394531 8.980469 L 13.394531 8.734375 C 12.949219 8.503906 12.445312 8.371094 11.90625 8.371094 Z M 11.90625 8.371094 "/>
<path style=" stroke:none;fill-rule:nonzero;fill:rgb(0%,0%,0%);fill-opacity:0.235294;" d="M 15.128906 11.484375 C 15.128906 11.5 15.128906 11.511719 15.128906 11.523438 C 15.128906 11.554688 15.128906 11.582031 15.128906 11.609375 Z M 15.128906 11.609375 C 15.128906 13.394531 13.691406 14.832031 11.90625 14.832031 C 10.183594 14.832031 8.78125 13.492188 8.6875 11.792969 C 8.683594 11.855469 8.679688 11.917969 8.679688 11.980469 C 8.679688 13.765625 10.121094 15.207031 11.90625 15.207031 C 13.691406 15.207031 15.128906 13.765625 15.128906 11.980469 C 15.128906 11.953125 15.128906 11.925781 15.128906 11.898438 C 15.128906 11.882812 15.128906 11.871094 15.128906 11.855469 Z M 15.128906 11.609375 "/>
<path style="fill:none;stroke-width:11.338583;stroke-linecap:round;stroke-linejoin:round;stroke:rgb(12.941177%,12.941177%,12.941177%);stroke-opacity:1;stroke-miterlimit:4;" d="M 1146.456753 175.118119 C 1109.606358 175.118119 1080.000057 206.299223 1080.000057 245.039383 L 1080.000057 704.252006 C 1044.094543 685.669327 1003.46462 674.960665 960.00005 674.960665 C 816.063035 674.960665 699.842556 791.181144 699.842556 935.118159 C 699.842556 1079.055175 816.063035 1194.960693 960.00005 1194.960693 C 1103.937066 1194.960693 1219.842584 1079.055175 1219.842584 935.118159 C 1219.842584 932.913435 1219.842584 930.70871 1219.842584 928.503986 C 1219.842584 927.244143 1219.842584 926.299261 1219.842584 925.039419 L 1219.842584 314.960646 L 1450.078816 314.960646 C 1488.818976 314.960646 1520.00008 283.779542 1520.00008 245.039383 C 1520.00008 206.299223 1488.818976 175.118119 1450.078816 175.118119 Z M 1146.456753 175.118119 " transform="matrix(0.0124023,0,0,0.0124023,0,0)"/>
</g>
</svg>
