<svg height="24" viewBox="0 0 24 24" width="24" xmlns="http://www.w3.org/2000/svg" xmlns:xlink="http://www.w3.org/1999/xlink"><linearGradient id="a" gradientUnits="userSpaceOnUse" x1="11.90739" x2="11.90739" y1="21.02545225" y2="22.01773525002"><stop offset="0" stop-opacity=".27451"/><stop offset="1" stop-opacity="0"/></linearGradient><linearGradient id="b"><stop offset="0" stop-opacity=".313726"/><stop offset=".222222" stop-opacity=".27451"/><stop offset="1" stop-opacity="0"/></linearGradient><radialGradient id="c" cx="450.908936" cy="189.579361" gradientTransform="matrix(.00000013 -.0585994 -.105479 -.00000008 39.097986 47.696499)" gradientUnits="userSpaceOnUse" r="21.166656" xlink:href="#b"/><radialGradient id="d" cx="450.908936" cy="189.579361" gradientTransform="matrix(-.00000013 .0585994 .105479 .00000008 -15.28321 -5.645609)" gradientUnits="userSpaceOnUse" r="21.166656" xlink:href="#b"/><radialGradient id="e" cx="450.908936" cy="189.579361" gradientTransform="matrix(-.00000013 -.0585994 .105479 -.00000008 -15.28321 47.696499)" gradientUnits="userSpaceOnUse" r="21.166656" xlink:href="#b"/><radialGradient id="f" cx="450.908936" cy="189.579361" gradientTransform="matrix(.00000013 .0585994 -.105479 .00000008 39.097985 -5.64561)" gradientUnits="userSpaceOnUse" r="21.166656" xlink:href="#b"/><linearGradient id="g" gradientUnits="userSpaceOnUse" x1="7.93826174998" x2="7.93826174998" y1="21.02546125" y2="2.17208950005"><stop offset="0" stop-color="#8d6e63"/><stop offset="1" stop-color="#a1887f"/></linearGradient><linearGradient id="h" gradientUnits="userSpaceOnUse" x1="960" x2="960" y1="1695.118164" y2="175.118118"><stop offset="0" stop-color="#424242"/><stop offset="1" stop-color="#616161"/></linearGradient><linearGradient id="i" gradientUnits="userSpaceOnUse" x1="11.90735924339" x2="11.90736" y1="21.02539814717" y2="2.17207777507"><stop offset="0" stop-color="#e0e0e0"/><stop offset="1" stop-color="#eee"/></linearGradient><path d="m4.464844 20.953125h14.882812v1.101563h-14.882812zm0 0" fill="url(#a)"/><path d="m19.347656 21.027344h1.988282v-.996094h-1.988282zm0 0" fill="url(#c)"/><path d="m4.464844 21.027344h-1.984375v.992187h1.984375zm0 0" fill="url(#d)"/><path d="m4.464844 21.027344h-1.984375v-.996094h1.984375zm0 0" fill="url(#e)"/><path d="m19.347656 21.027344h1.988282v.992187h-1.988282zm0 0" fill="url(#f)"/><path d="m3.472656 2.171875h16.867188c.550781 0 .996094.445313.996094.992187v16.867188c0 .550781-.445313.996094-.996094.996094h-16.867188c-.546875 0-.992187-.445313-.992187-.996094v-16.867188c0-.546874.445312-.992187.992187-.992187zm0 0" fill="url(#g)"/><path d="m3.472656 2.171875c-.550781 0-.992187.441406-.992187.992187v.125c0-.550781.441406-.992187.992187-.992187h16.867188c.550781 0 .996094.441406.996094.992187v-.125c0-.550781-.445313-.992187-.996094-.992187zm0 0" fill="#e6e6e6" fill-opacity=".392157"/><path d="m3.472656 21.027344c-.550781 0-.992187-.445313-.992187-.996094v-.121094c0 .546875.441406.992188.992187.992188h16.867188c.550781 0 .996094-.445313.996094-.992188v.121094c0 .550781-.445313.996094-.996094.996094zm0 0" fill-opacity=".196078"/><path d="m3.472656 2.234375c-.550781 0-.992187.441406-.992187.992187v.125c0-.550781.441406-.996093.992187-.992187h16.867188c.550781-.003906.996094.441406.996094.992187v-.125c0-.550781-.445313-.992187-.996094-.992187zm0 0" fill="#fff" fill-opacity=".392157"/><path d="m74.076259-168.671091h359.798975c11.748878 0 21.247971 9.499093 21.247971 21.164646v359.798974c0 11.748878-9.499093 21.247971-21.247971 21.247971h-359.798975c-11.665552 0-21.164645-9.499093-21.164645-21.247971v-359.798974c0-11.665553 9.499093-21.164646 21.164645-21.164646zm0 0" fill="none" stroke="#212121" stroke-linecap="round" stroke-width="3" transform="matrix(.0468795 0 0 .0468795 0 10.079087)"/><path d="m3.472656 21.027344c-.550781 0-.992187-.445313-.992187-.996094v-.121094c0 .546875.441406.992188.992187.992188h16.867188c.550781 0 .996094-.445313.996094-.992188v.121094c0 .550781-.445313.996094-.996094.996094zm0 0" fill-opacity=".196078"/><path d="m639.938923 495.38579c-22.045141 0-39.681253 17.636112-39.681253 39.681252v360.280575h-120.303478c-22.04514 0-39.681252 17.636112-39.681252 39.681252v399.961826c-.314931 14.486806 7.243403 27.713891 19.525695 34.957294 12.597223 7.243403 27.713891 7.243403 40.311114 0 12.282292-7.243403 19.840626-20.470488 19.840626-34.957294v-359.965644h114.004867c4.094097.629861 8.188195.629861 11.967361 0h114.319798v359.965644c-.31493 14.486806 7.243403 27.713891 19.840626 34.957294 12.282292 7.243403 27.71389 7.243403 39.996183 0 12.282292-7.243403 19.840626-20.470488 19.840626-34.957294v-359.965644h240.292026v359.965644c-.31493 14.486806 7.243403 27.713891 19.840626 34.957294 12.282293 7.243403 27.713891 7.243403 39.996183 0s19.840626-20.470488 19.840626-34.957294v-359.965644h114.004867c4.094098.629861 8.188195.629861 12.282292 0h114.004868v359.965644c-.314931 14.486806 7.243403 27.713891 19.840626 34.957294 12.282292 7.243403 27.71389 7.243403 39.996182 0 12.282293-7.243403 19.840626-20.470488 19.840626-34.957294v-399.961826c0-22.04514-17.951042-39.681252-39.996182-39.681252h-119.988548v-360.280575c0-22.04514-17.951043-39.681252-39.996183-39.681252zm39.996182 79.677435h560.261488v320.284392h-560.261488zm0 0" fill="url(#h)" stroke="#212121" stroke-linecap="round" stroke-linejoin="round" stroke-width="11.338583" transform="scale(.0124035)"/><path d="m11.410156 5.148438c-.273437 0-.496094.222656-.496094.496093v1.984375c0 .277344.222657.496094.496094.496094h.992188c.277344 0 .496094-.21875.496094-.496094v-1.984375c0-.273437-.21875-.496093-.496094-.496093zm-3.96875 4.960937c-.273437 0-.496094.222656-.496094.496094v1.984375c0 .277344.222657.496094.496094.496094h.992188c.277344 0 .496094-.21875.496094-.496094v-1.984375c0-.273438-.21875-.496094-.496094-.496094zm7.9375 0c-.273437 0-.496094.222656-.496094.496094v1.984375c0 .277344.222657.496094.496094.496094h.992188c.277344 0 .496094-.21875.496094-.496094v-1.984375c0-.273438-.21875-.496094-.496094-.496094zm-9.921875 4.960937c-.273437 0-.496093.222657-.496093.496094v1.984375c0 .277344.222656.496094.496093.496094h.992188c.277343 0 .496093-.21875.496093-.496094v-1.984375c0-.273437-.21875-.496094-.496093-.496094zm3.96875 0c-.273437 0-.496093.222657-.496093.496094v1.984375c0 .277344.222656.496094.496093.496094h.992188c.277343 0 .496093-.21875.496093-.496094v-1.984375c0-.273437-.21875-.496094-.496093-.496094zm3.96875 0c-.273437 0-.496093.222657-.496093.496094v1.984375c0 .277344.222656.496094.496093.496094h.992188c.277343 0 .496093-.21875.496093-.496094v-1.984375c0-.273437-.21875-.496094-.496093-.496094zm3.96875 0c-.273437 0-.496093.222657-.496093.496094v1.984375c0 .277344.222656.496094.496093.496094h.992188c.277343 0 .496093-.21875.496093-.496094v-1.984375c0-.273437-.21875-.496094-.496093-.496094zm0 0" fill="url(#i)"/><path d="m11.410156 5.148438c-.273437 0-.496094.222656-.496094.496093v.25c0-.277343.222657-.496093.496094-.496093h.992188c.277344 0 .496094.21875.496094.496093v-.25c0-.273437-.21875-.496093-.496094-.496093zm-3.96875 4.960937c-.273437 0-.496094.222656-.496094.496094v.25c0-.277344.222657-.496094.496094-.496094h.992188c.277344 0 .496094.21875.496094.496094v-.25c0-.273438-.21875-.496094-.496094-.496094zm7.9375 0c-.273437 0-.496094.222656-.496094.496094v.25c0-.277344.222657-.496094.496094-.496094h.992188c.277344 0 .496094.21875.496094.496094v-.25c0-.273438-.21875-.496094-.496094-.496094zm-9.921875 4.960937c-.273437 0-.496093.222657-.496093.496094v.25c0-.273437.222656-.496094.496093-.496094h.992188c.277343 0 .496093.222657.496093.496094v-.25c0-.273437-.21875-.496094-.496093-.496094zm3.96875 0c-.273437 0-.496093.222657-.496093.496094v.25c0-.273437.222656-.496094.496093-.496094h.992188c.277343 0 .496093.222657.496093.496094v-.25c0-.273437-.21875-.496094-.496093-.496094zm3.96875 0c-.273437 0-.496093.222657-.496093.496094v.25c0-.273437.222656-.496094.496093-.496094h.992188c.277343 0 .496093.222657.496093.496094v-.25c0-.273437-.21875-.496094-.496093-.496094zm3.96875 0c-.273437 0-.496093.222657-.496093.496094v.25c0-.273437.222656-.496094.496093-.496094h.992188c.277343 0 .496093.222657.496093.496094v-.25c0-.273437-.21875-.496094-.496093-.496094zm0 0" fill="#fff" fill-opacity=".980392"/><path d="m10.914062 7.628906v.25c0 .273438.222657.496094.496094.496094h.992188c.277344 0 .496094-.222656.496094-.496094v-.25c0 .277344-.21875.496094-.496094.496094h-.992188c-.273437 0-.496094-.21875-.496094-.496094zm-3.96875 4.960938v.25c0 .273437.222657.496094.496094.496094h.992188c.277344 0 .496094-.222657.496094-.496094v-.25c0 .277344-.21875.496094-.496094.496094h-.992188c-.273437 0-.496094-.21875-.496094-.496094zm7.9375 0v.25c0 .273437.222657.496094.496094.496094h.992188c.277344 0 .496094-.222657.496094-.496094v-.25c0 .277344-.21875.496094-.496094.496094h-.992188c-.273437 0-.496094-.21875-.496094-.496094zm-9.921874 4.960937v.25c0 .273438.222656.496094.496093.496094h.992188c.277343 0 .496093-.222656.496093-.496094v-.25c0 .277344-.21875.496094-.496093.496094h-.992188c-.273437 0-.496093-.21875-.496093-.496094zm3.96875 0v.25c0 .273438.222656.496094.496093.496094h.992188c.277343 0 .496093-.222656.496093-.496094v-.25c0 .277344-.21875.496094-.496093.496094h-.992188c-.273437 0-.496093-.21875-.496093-.496094zm3.96875 0v.25c0 .273438.222656.496094.496093.496094h.992188c.277343 0 .496093-.222656.496093-.496094v-.25c0 .277344-.21875.496094-.496093.496094h-.992188c-.273437 0-.496093-.21875-.496093-.496094zm3.96875 0v.25c0 .273438.222656.496094.496093.496094h.992188c.277343 0 .496093-.222656.496093-.496094v-.25c0 .277344-.21875.496094-.496093.496094h-.992188c-.273437 0-.496093-.21875-.496093-.496094zm0 0" fill-opacity=".235294"/><path d="m919.912201 415.078494c-22.04514 0-39.996183 17.951043-39.996183 39.996183v159.98473c0 22.360071 17.951043 39.996183 39.996183 39.996183h79.992365c22.360071 0 39.996183-17.636112 39.996183-39.996183v-159.98473c0-22.04514-17.636112-39.996183-39.996183-39.996183zm-319.969461 399.961827c-22.04514 0-39.996183 17.951042-39.996183 39.996182v159.984731c0 22.360071 17.951043 39.996183 39.996183 39.996183h79.992365c22.360071 0 39.996183-17.636112 39.996183-39.996183v-159.984731c0-22.04514-17.636112-39.996182-39.996183-39.996182zm639.938922 0c-22.04514 0-39.996182 17.951042-39.996182 39.996182v159.984731c0 22.360071 17.951042 39.996183 39.996182 39.996183h79.992366c22.36007 0 39.996182-17.636112 39.996182-39.996183v-159.984731c0-22.04514-17.636112-39.996182-39.996182-39.996182zm-799.923653 399.961826c-22.04514 0-39.996182 17.951043-39.996182 39.996183v159.98473c0 22.360071 17.951042 39.996183 39.996182 39.996183h79.992366c22.36007 0 39.996182-17.636112 39.996182-39.996183v-159.98473c0-22.04514-17.636112-39.996183-39.996182-39.996183zm319.969462 0c-22.045141 0-39.996183 17.951043-39.996183 39.996183v159.98473c0 22.360071 17.951042 39.996183 39.996183 39.996183h79.992365c22.36007 0 39.996182-17.636112 39.996182-39.996183v-159.98473c0-22.04514-17.636112-39.996183-39.996182-39.996183zm319.969461 0c-22.04514 0-39.996183 17.951043-39.996183 39.996183v159.98473c0 22.360071 17.951043 39.996183 39.996183 39.996183h79.992365c22.360071 0 39.996183-17.636112 39.996183-39.996183v-159.98473c0-22.04514-17.636112-39.996183-39.996183-39.996183zm319.969461 0c-22.04514 0-39.996183 17.951043-39.996183 39.996183v159.98473c0 22.360071 17.951043 39.996183 39.996183 39.996183h79.992365c22.360071 0 39.996183-17.636112 39.996183-39.996183v-159.98473c0-22.04514-17.636112-39.996183-39.996183-39.996183zm0 0" fill="none" stroke="#212121" stroke-linecap="round" stroke-linejoin="round" stroke-width="11.338583" transform="scale(.0124035)"/></svg>