<svg xmlns="http://www.w3.org/2000/svg" width="32" height="32" viewBox="0 0 24 24"><defs><linearGradient id="a" gradientUnits="userSpaceOnUse" x1="254" y1="233.5" x2="254" y2="254.667" gradientTransform="matrix(.04688 0 0 .04688 0 10.08)"><stop offset="0" stop-opacity=".275"/><stop offset="1" stop-opacity="0"/></linearGradient><radialGradient id="b" gradientUnits="userSpaceOnUse" cx="450.909" cy="189.579" fx="450.909" fy="189.579" r="21.167" gradientTransform="matrix(0 -.0586 -.10548 0 39.842 47.696)"><stop offset="0" stop-opacity=".314"/><stop offset=".222" stop-opacity=".275"/><stop offset="1" stop-opacity="0"/></radialGradient><radialGradient id="c" gradientUnits="userSpaceOnUse" cx="450.909" cy="189.579" fx="450.909" fy="189.579" r="21.167" gradientTransform="matrix(0 .0586 .10548 0 -15.903 -5.646)"><stop offset="0" stop-opacity=".314"/><stop offset=".222" stop-opacity=".275"/><stop offset="1" stop-opacity="0"/></radialGradient><radialGradient id="d" gradientUnits="userSpaceOnUse" cx="450.909" cy="189.579" fx="450.909" fy="189.579" r="21.167" gradientTransform="matrix(0 -.0586 .10548 0 -15.903 47.696)"><stop offset="0" stop-opacity=".314"/><stop offset=".222" stop-opacity=".275"/><stop offset="1" stop-opacity="0"/></radialGradient><radialGradient id="e" gradientUnits="userSpaceOnUse" cx="450.909" cy="189.579" fx="450.909" fy="189.579" r="21.167" gradientTransform="matrix(0 .0586 -.10548 0 39.842 -5.646)"><stop offset="0" stop-opacity=".314"/><stop offset=".222" stop-opacity=".275"/><stop offset="1" stop-opacity="0"/></radialGradient><linearGradient id="f" gradientUnits="userSpaceOnUse" x1="254" y1="233.5" x2="254" y2="-168.667" gradientTransform="matrix(.04688 0 0 .04688 0 10.08)"><stop offset="0" stop-color="#2196f3"/><stop offset="1" stop-color="#42a5f5"/></linearGradient><linearGradient id="g" gradientUnits="userSpaceOnUse" x1="254" y1="-168.667" x2="254" y2="233.5" gradientTransform="matrix(3.77953 0 0 3.77953 0 812.599)"><stop offset="0" stop-color="#e0e0e0"/><stop offset="1" stop-color="#eee"/></linearGradient><linearGradient id="h" gradientUnits="userSpaceOnUse" x1="232.37" y1="183.329" x2="232.37" y2="-120.775" gradientTransform="matrix(3.94602 0 0 3.94602 -36.937 811.698)"><stop offset="0" stop-color="#2196f3"/><stop offset="1" stop-color="#42a5f5"/></linearGradient></defs><path d="M3.844 21.027h16.25v.993H3.844zm0 0" fill="url(#a)"/><path d="M20.094 21.027h1.984v-.996h-1.984zm0 0" fill="url(#b)"/><path d="M3.844 21.027H1.859v.993h1.985zm0 0" fill="url(#c)"/><path d="M3.844 21.027H1.859v-.996h1.985zm0 0" fill="url(#d)"/><path d="M20.094 21.027h1.984v.993h-1.984zm0 0" fill="url(#e)"/><path d="M2.73 2.172h-.039c-.027.004-.05.004-.078.008-.035.007-.07.015-.105.027-.024.004-.047.016-.07.023a.788.788 0 0 0-.126.07l-.058.04c-.016.015-.035.031-.05.05-.02.016-.036.036-.052.051a.07.07 0 0 1-.02.028.337.337 0 0 0-.038.062c-.02.028-.035.063-.051.094l-.012.035-.011.035-.012.035c-.008.024-.012.047-.016.07 0 .016-.004.028-.004.04-.004.023-.004.05-.004.078v17.363c0 .414.332.746.746.746h18.356a.744.744 0 0 0 .746-.746V2.918c0-.156-.047-.3-.129-.418-.012-.02-.027-.04-.043-.059-.015-.015-.031-.035-.047-.05-.015-.02-.035-.036-.054-.051l-.055-.04a.68.68 0 0 0-.129-.07c-.02-.007-.043-.02-.066-.023a.895.895 0 0 0-.11-.027c-.023-.004-.05-.004-.074-.008h-.04zm0 0" fill="url(#f)"/><path d="M789.846 175.101L677.73 497.905C534.437 590.18 439.958 751.11 439.958 935.03c0 206.28 118.729 383.585 291.626 467.672L629.86 1695.27H929.99l84.401-242.811c262.338-27.084 465.468-247.536 465.468-517.431 0-272.415-207.54-494.756-473.97-518.06l84.086-241.868zm0 0" transform="scale(.0124)" fill="url(#g)" stroke-width="11.339" stroke-linecap="round" stroke-linejoin="round" stroke="#212121"/><path d="M2.73 2.172a.744.744 0 0 0-.746.746v.121c0-.41.332-.742.746-.742h18.356c.414 0 .746.332.746.742v-.121a.744.744 0 0 0-.746-.746zm0 0" fill="#fff" fill-opacity=".392"/><path d="M2.73 21.023a.743.743 0 0 1-.746-.742v-.125c0 .414.332.746.746.746h18.356a.744.744 0 0 0 .746-.746v.125c0 .41-.332.742-.746.742zm0 0" fill="#030303" fill-opacity=".235"/><path d="M2.73 2.102a.814.814 0 0 0-.816.816v17.363c0 .45.363.817.816.817h18.356c.45 0 .816-.368.816-.817V2.918a.816.816 0 0 0-.816-.816zm0 .14h18.356c.375 0 .676.301.676.676v17.363c0 .375-.301.676-.676.676H2.73a.674.674 0 0 1-.675-.676V2.918c0-.375.3-.676.675-.676zm0 0" fill="#212121"/><path d="M830.787 335.086C752.684 560.891 631.75 930.62 558.372 1134.065c5.669 1.575 11.022.945 17.006.945 32.123 0 64.246.315 96.369 0 4.409 0 3.78-6.299 5.669-8.818 38.736-109.281 83.456-233.049 122.508-342.015 2.204-6.613 4.724-13.857 7.873-20.47 20.155.315 39.996-.315 60.152 0-42.201 118.414-89.756 252.259-132.586 370.358 4.409 1.89 9.133.945 13.542.945 33.697-.315 67.395.63 101.093 0 38.106-107.392 82.826-229.585 121.248-337.29 8.188-22.046 9.448-50.075-4.724-68.026-29.289-38.106-94.794-44.72-137.31-46.295 25.51-71.804 82.827-240.607 119.989-348.313zm245.96 364.06c-.944 1.89-1.26 5.984-2.204 7.873-75.583 211.948-206.91 586.716-293.2 827.953h96.369c46.61-125.658 118.098-319.025 146.757-399.017 42.2-.63 84.087-.315 126.287-1.26 26.454-.945 67.08-17.006 75.899-42.83 35.587-100.149 71.174-199.352 105.501-299.815 5.67-15.116 9.133-31.808 4.41-47.554-5.984-20.156-24.25-35.587-44.09-40.941-17.322-5.354-34.643-2.834-52.28-3.464-53.853 0-109.28-.315-163.448-.945zm96.37 63.3c19.21.63 39.366 0 57.002.316-36.532 103.612-73.379 206.91-108.966 310.836-20.156 1.575-41.256 0-61.412 0 36.847-102.667 73.38-205.65 110.226-308.632.63-.944.945-1.89 3.15-2.52zm0 0" transform="scale(.0124)" fill="url(#h)" stroke-width="11.339" stroke="#212121"/></svg>