<svg height="32" viewBox="0 0 24 24" width="32" xmlns="http://www.w3.org/2000/svg" xmlns:xlink="http://www.w3.org/1999/xlink"><linearGradient id="a" gradientUnits="userSpaceOnUse" x1="11.90752" x2="11.90752" y1="18.54448" y2="19.53678896"><stop offset="0" stop-opacity=".275"/><stop offset="1" stop-opacity="0"/></linearGradient><linearGradient id="b"><stop offset="0" stop-opacity=".314"/><stop offset=".222" stop-opacity=".275"/><stop offset="1" stop-opacity="0"/></linearGradient><radialGradient id="c" cx="450.909" cy="189.579" gradientTransform="matrix(0 -.0586 -.10548 0 39.842 45.216)" gradientUnits="userSpaceOnUse" r="21.167" xlink:href="#b"/><radialGradient id="d" cx="450.909" cy="189.579" gradientTransform="matrix(0 .0586 .10548 0 -15.903 -8.126)" gradientUnits="userSpaceOnUse" r="21.167" xlink:href="#b"/><radialGradient id="e" cx="450.909" cy="189.579" gradientTransform="matrix(0 -.0586 .10548 0 -15.903 45.216)" gradientUnits="userSpaceOnUse" r="21.167" xlink:href="#b"/><radialGradient id="f" cx="450.909" cy="189.579" gradientTransform="matrix(0 .0586 -.10548 0 39.842 -8.126)" gradientUnits="userSpaceOnUse" r="21.167" xlink:href="#b"/><linearGradient id="g" gradientUnits="userSpaceOnUse" x1="11.90752" x2="11.90752" y1="19.04190896" y2="4.15750896"><stop offset="0" stop-color="#bdbdbd"/><stop offset="1" stop-color="#e0e0e0"/></linearGradient><linearGradient id="h" gradientUnits="userSpaceOnUse" x1="11.90552" x2="11.90552" y1="15.31597104" y2="7.87377104"><stop offset="0" stop-color="#f44336"/><stop offset="1" stop-color="#ef5350"/></linearGradient><path d="m3.844 18.543h16.25v.992h-16.25zm0 0" fill="url(#a)"/><path d="m20.094 18.543h1.984v-.992h-1.984zm0 0" fill="url(#c)"/><path d="m3.844 18.543h-1.985v.992h1.985zm0 0" fill="url(#d)"/><path d="m3.844 18.543h-1.985v-.992h1.985zm0 0" fill="url(#e)"/><path d="m20.094 18.543h1.984v.992h-1.984zm0 0" fill="url(#f)"/><path d="m21.832 6.637a2.607 2.607 0 0 0 -1.832-1.828c-1.625-.446-8.121-.446-8.121-.446s-6.496 0-8.121.426c-.871.242-1.59.961-1.832 1.848-.426 1.625-.426 4.992-.426 4.992s0 3.387.426 4.992c.242.89.941 1.594 1.832 1.832 1.64.445 8.12.445 8.12.445s6.497 0 8.122-.43a2.607 2.607 0 0 0 1.832-1.827c.426-1.625.426-4.993.426-4.993s.015-3.386-.426-5.011zm0 0" fill="url(#g)"/><path d="m11.879 4.363s-6.496 0-8.121.426c-.871.242-1.59.961-1.832 1.848-.426 1.625-.426 4.992-.426 4.992v.172c.008-.7.059-3.414.426-4.824.242-.891.96-1.606 1.832-1.848 1.625-.426 8.12-.426 8.12-.426s6.497 0 8.122.445a2.6 2.6 0 0 1 1.832 1.829c.375 1.378.422 4.015.426 4.785v-.114s.015-3.386-.426-5.011a2.607 2.607 0 0 0 -1.832-1.828c-1.625-.446-8.121-.446-8.121-.446zm0 0" fill="#fff" fill-opacity=".981"/><path d="m11.879 18.918s-6.496 0-8.121-.43a2.663 2.663 0 0 1 -1.832-1.843c-.426-1.625-.426-4.997-.426-4.997v-.168c.008.696.059 3.415.426 4.825.242.886.96 1.605 1.832 1.843 1.625.43 8.12.43 8.12.43s6.497 0 8.122-.445a2.607 2.607 0 0 0 1.832-1.828c.375-1.38.422-4.016.426-4.79v.118s.015 3.387-.426 5.012a2.607 2.607 0 0 1 -1.832 1.828c-1.625.445-8.121.445-8.121.445zm0 0" fill-opacity=".235"/><path d="m9.938 7.875a.495.495 0 0 0 -.512.496v6.45c0 .382.418.617.746.425l5.457-3.226a.494.494 0 0 0 0-.852l-5.457-3.223a.497.497 0 0 0 -.235-.07zm0 0" fill="url(#h)"/><path d="m9.91 7.875a.497.497 0 0 0 -.484.496v.246a.495.495 0 0 1 .746-.426l5.457 3.223a.499.499 0 0 1 .226.305.494.494 0 0 0 -.226-.551l-5.457-3.223a.497.497 0 0 0 -.235-.07zm0 0" fill="#fff" fill-opacity=".235"/><path d="m9.91 15.316a.494.494 0 0 1 -.484-.492v-.246a.495.495 0 0 0 .746.426l5.457-3.227a.491.491 0 0 0 .226-.3.49.49 0 0 1 -.226.546l-5.457 3.223a.497.497 0 0 1 -.235.07zm0 0" fill-opacity=".235"/><g fill="#212121"><path d="m9.938 7.805a.568.568 0 0 0 -.583.566v6.45c0 .433.48.706.852.484l5.457-3.223a.567.567 0 0 0 0-.973l-5.457-3.226a.584.584 0 0 0 -.27-.078zm-.004.14c.07.004.14.024.203.059l5.457 3.226a.422.422 0 0 1 0 .73l-5.457 3.224a.422.422 0 0 1 -.64-.364v-6.449c0-.242.198-.434.437-.426zm0 0"/><path d="m11.879 4.277s-1.625 0-3.453.055c-1.828.05-3.852.156-4.692.375-.902.25-1.64.988-1.89 1.906v.004c-.215.824-.32 2.074-.375 3.121s-.055 1.89-.055 1.89 0 .849.055 1.9c.054 1.05.16 2.3.375 3.117.25.918.972 1.644 1.89 1.89.848.23 2.871.336 4.696.39 1.828.055 3.449.06 3.449.06s1.625 0 3.453-.055 3.852-.157 4.691-.38a2.688 2.688 0 0 0 1.891-1.886v-.004c.215-.824.32-2.074.375-3.12.055-1.048.055-1.892.055-1.892s.004-.847-.047-1.902c-.05-1.05-.156-2.305-.383-3.133a2.688 2.688 0 0 0 -1.89-1.886c-.84-.23-2.86-.336-4.692-.395-1.828-.055-3.453-.055-3.453-.055zm0 .172s1.625 0 3.45.055c1.823.055 3.866.172 4.648.387.863.23 1.539.91 1.77 1.77.218.796.327 2.046.378 3.093.05 1.047.047 1.894.047 1.894s0 .84-.055 1.883c-.05 1.043-.16 2.29-.37 3.086-.231.86-.907 1.54-1.767 1.77-.785.207-2.828.316-4.652.37-1.824.055-3.45.055-3.45.055s-1.616 0-3.44-.054c-1.825-.059-3.864-.172-4.657-.387a2.514 2.514 0 0 1 -1.77-1.77c-.21-.788-.32-2.038-.37-3.081-.055-1.047-.055-1.891-.055-1.891s0-.84.055-1.883c.05-1.043.16-2.289.37-3.086.231-.86.926-1.555 1.77-1.785.785-.207 2.824-.32 4.649-.371 1.824-.055 3.449-.055 3.449-.055zm0 0"/></g></svg>