<?xml version="1.0" encoding="UTF-8"?>
<svg xmlns="http://www.w3.org/2000/svg" xmlns:xlink="http://www.w3.org/1999/xlink" width="24pt" height="24pt" viewBox="0 0 24 24" version="1.1">
<defs>
<linearGradient id="linear0" gradientUnits="userSpaceOnUse" x1="254" y1="233.5" x2="254" y2="254.666672" gradientTransform="matrix(0.0468795,0,0,0.0468795,0.99228,10.079089)">
<stop offset="0" style="stop-color:rgb(0%,0%,0%);stop-opacity:0.27451;"/>
<stop offset="1" style="stop-color:rgb(0%,0%,0%);stop-opacity:0;"/>
</linearGradient>
<radialGradient id="radial0" gradientUnits="userSpaceOnUse" cx="450.908936" cy="189.579361" fx="450.908936" fy="189.579361" r="21.166656" gradientTransform="matrix(0.000000130628,-0.0585994,-0.105479,-0.0000000761539,31.65587,47.696499)">
<stop offset="0" style="stop-color:rgb(0%,0%,0%);stop-opacity:0.313725;"/>
<stop offset="0.222222" style="stop-color:rgb(0%,0%,0%);stop-opacity:0.27451;"/>
<stop offset="1" style="stop-color:rgb(0%,0%,0%);stop-opacity:0;"/>
</radialGradient>
<radialGradient id="radial1" gradientUnits="userSpaceOnUse" cx="450.908936" cy="189.579361" fx="450.908936" fy="189.579361" r="21.166656" gradientTransform="matrix(-0.000000130628,0.0585994,0.105479,0.0000000761539,-8.585308,-5.645609)">
<stop offset="0" style="stop-color:rgb(0%,0%,0%);stop-opacity:0.313725;"/>
<stop offset="0.222222" style="stop-color:rgb(0%,0%,0%);stop-opacity:0.27451;"/>
<stop offset="1" style="stop-color:rgb(0%,0%,0%);stop-opacity:0;"/>
</radialGradient>
<radialGradient id="radial2" gradientUnits="userSpaceOnUse" cx="450.908936" cy="189.579361" fx="450.908936" fy="189.579361" r="21.166656" gradientTransform="matrix(-0.000000130628,-0.0585994,0.105479,-0.0000000761539,-8.585308,47.696499)">
<stop offset="0" style="stop-color:rgb(0%,0%,0%);stop-opacity:0.313725;"/>
<stop offset="0.222222" style="stop-color:rgb(0%,0%,0%);stop-opacity:0.27451;"/>
<stop offset="1" style="stop-color:rgb(0%,0%,0%);stop-opacity:0;"/>
</radialGradient>
<radialGradient id="radial3" gradientUnits="userSpaceOnUse" cx="450.908936" cy="189.579361" fx="450.908936" fy="189.579361" r="21.166656" gradientTransform="matrix(0.000000130628,0.0585994,-0.105479,0.0000000761539,31.655869,-5.64561)">
<stop offset="0" style="stop-color:rgb(0%,0%,0%);stop-opacity:0.313725;"/>
<stop offset="0.222222" style="stop-color:rgb(0%,0%,0%);stop-opacity:0.27451;"/>
<stop offset="1" style="stop-color:rgb(0%,0%,0%);stop-opacity:0;"/>
</radialGradient>
<linearGradient id="linear1" gradientUnits="userSpaceOnUse" x1="254" y1="233.5" x2="254" y2="-168.666687" gradientTransform="matrix(0.0468795,0,0,0.0468795,0,10.079087)">
<stop offset="0" style="stop-color:rgb(67.058824%,27.843137%,73.72549%);stop-opacity:1;"/>
<stop offset="1" style="stop-color:rgb(93.72549%,32.54902%,31.372549%);stop-opacity:1;"/>
</linearGradient>
<linearGradient id="linear2" gradientUnits="userSpaceOnUse" x1="960" y1="1255.118164" x2="960" y2="695.118103" gradientTransform="matrix(1,0,0,1,0,0)">
<stop offset="0" style="stop-color:rgb(87.843137%,87.843137%,87.843137%);stop-opacity:1;"/>
<stop offset="1" style="stop-color:rgb(74.117647%,74.117647%,74.117647%);stop-opacity:1;"/>
</linearGradient>
</defs>
<g id="surface1">
<path style=" stroke:none;fill-rule:nonzero;fill:url(#linear0);" d="M 11.164062 20.953125 L 11.90625 20.953125 L 11.90625 22.054688 L 11.164062 22.054688 Z M 11.164062 20.953125 "/>
<path style=" stroke:none;fill-rule:nonzero;fill:url(#radial0);" d="M 11.90625 21.027344 L 13.890625 21.027344 L 13.890625 20.03125 L 11.90625 20.03125 Z M 11.90625 21.027344 "/>
<path style=" stroke:none;fill-rule:nonzero;fill:url(#radial1);" d="M 11.164062 21.027344 L 9.179688 21.027344 L 9.179688 22.019531 L 11.164062 22.019531 Z M 11.164062 21.027344 "/>
<path style=" stroke:none;fill-rule:nonzero;fill:url(#radial2);" d="M 11.164062 21.027344 L 9.179688 21.027344 L 9.179688 20.03125 L 11.164062 20.03125 Z M 11.164062 21.027344 "/>
<path style=" stroke:none;fill-rule:nonzero;fill:url(#radial3);" d="M 11.90625 21.027344 L 13.890625 21.027344 L 13.890625 22.019531 L 11.90625 22.019531 Z M 11.90625 21.027344 "/>
<path style=" stroke:none;fill-rule:nonzero;fill:url(#linear1);" d="M 1.984375 13.582031 C 1.984375 8.871094 11.410156 -3.285156 21.832031 5.148438 C 23.816406 23.507812 5.953125 25.492188 1.984375 13.582031 Z M 1.984375 13.582031 "/>
<path style="fill-rule:nonzero;fill:url(#linear2);stroke-width:11.338583;stroke-linecap:round;stroke-linejoin:round;stroke:rgb(12.941177%,12.941177%,12.941177%);stroke-opacity:1;stroke-miterlimit:4;" d="M 639.938923 695.051773 C 617.893782 695.051773 599.94274 713.002815 599.94274 735.047955 L 599.94274 1215.002147 C 599.94274 1237.362218 617.893782 1254.99833 639.938923 1254.99833 L 719.931288 1254.99833 C 742.291358 1254.99833 759.927471 1237.362218 759.927471 1215.002147 L 759.927471 855.036503 L 879.916018 855.036503 L 879.916018 1215.002147 C 879.916018 1237.362218 897.867061 1254.99833 919.912201 1254.99833 L 999.904566 1254.99833 C 1022.264637 1254.99833 1039.900749 1237.362218 1039.900749 1215.002147 L 1039.900749 855.036503 L 1159.889297 855.036503 L 1159.889297 1215.002147 C 1159.889297 1237.362218 1177.84034 1254.99833 1199.88548 1254.99833 L 1279.877845 1254.99833 C 1302.237916 1254.99833 1319.874028 1237.362218 1319.874028 1215.002147 L 1319.874028 775.044138 C 1319.874028 730.953858 1284.286873 695.051773 1239.881662 695.051773 Z M 639.938923 695.051773 " transform="matrix(0.0124035,0,0,0.0124035,0,0)"/>
<path style=" stroke:none;fill-rule:nonzero;fill:rgb(100%,100%,100%);fill-opacity:0.392157;" d="M 14.445312 2.246094 C 7.34375 2.246094 1.984375 10.03125 1.984375 13.582031 C 1.988281 13.59375 1.992188 13.601562 1.996094 13.613281 C 2.339844 8.722656 11.609375 -2.820312 21.832031 5.453125 C 21.929688 6.359375 21.976562 7.226562 21.984375 8.054688 C 21.988281 7.136719 21.941406 6.167969 21.832031 5.148438 C 19.265625 3.074219 16.761719 2.246094 14.445312 2.246094 Z M 14.445312 2.246094 "/>
<path style=" stroke:none;fill-rule:nonzero;fill:rgb(0%,0%,0%);fill-opacity:0.235294;" d="M 21.984375 7.710938 C 21.855469 23.296875 5.769531 24.449219 2 13.253906 C 1.988281 13.367188 1.984375 13.476562 1.984375 13.582031 C 5.761719 24.910156 22.109375 23.667969 21.984375 7.710938 Z M 21.984375 7.710938 "/>
<path style=" stroke:none;fill-rule:nonzero;fill:rgb(12.941177%,12.941177%,12.941177%);fill-opacity:1;" d="M 14.332031 2.175781 C 11.96875 2.203125 9.796875 3.085938 7.960938 4.378906 C 6.121094 5.671875 4.613281 7.375 3.5625 9.054688 C 2.507812 10.730469 1.914062 12.382812 1.914062 13.582031 L 1.914062 13.59375 L 1.917969 13.605469 C 3.914062 19.589844 9.410156 22.09375 14.160156 20.78125 C 18.90625 19.472656 22.894531 14.34375 21.898438 5.140625 L 21.898438 5.113281 L 21.875 5.09375 C 19.257812 2.976562 16.699219 2.148438 14.332031 2.175781 Z M 14.335938 2.316406 C 16.660156 2.289062 19.175781 3.101562 21.761719 5.1875 C 22.742188 14.324219 18.792969 19.355469 14.121094 20.648438 C 9.445312 21.9375 4.03125 19.488281 2.054688 13.574219 C 2.058594 12.417969 2.640625 10.785156 3.679688 9.128906 C 4.722656 7.464844 6.21875 5.773438 8.039062 4.492188 C 9.859375 3.210938 12.003906 2.34375 14.335938 2.316406 Z M 14.335938 2.316406 "/>
</g>
</svg>
