<?xml version="1.0" encoding="UTF-8"?>
<svg xmlns="http://www.w3.org/2000/svg" xmlns:xlink="http://www.w3.org/1999/xlink" width="24pt" height="24pt" viewBox="0 0 24 24" version="1.1">
<defs>
<linearGradient id="linear0" gradientUnits="userSpaceOnUse" x1="254" y1="233.5" x2="254" y2="254.666672" gradientTransform="matrix(0.0468795,0,0,0.0468795,-0.0000028613,10.079089)">
<stop offset="0" style="stop-color:rgb(0%,0%,0%);stop-opacity:0.27451;"/>
<stop offset="1" style="stop-color:rgb(0%,0%,0%);stop-opacity:0;"/>
</linearGradient>
<radialGradient id="radial0" gradientUnits="userSpaceOnUse" cx="450.908936" cy="189.579361" fx="450.908936" fy="189.579361" r="21.166656" gradientTransform="matrix(0.000000130628,-0.0585994,-0.105479,-0.0000000761539,39.842197,47.696499)">
<stop offset="0" style="stop-color:rgb(0%,0%,0%);stop-opacity:0.313725;"/>
<stop offset="0.222222" style="stop-color:rgb(0%,0%,0%);stop-opacity:0.27451;"/>
<stop offset="1" style="stop-color:rgb(0%,0%,0%);stop-opacity:0;"/>
</radialGradient>
<radialGradient id="radial1" gradientUnits="userSpaceOnUse" cx="450.908936" cy="189.579361" fx="450.908936" fy="189.579361" r="21.166656" gradientTransform="matrix(-0.000000130628,0.0585994,0.105479,0.0000000761539,-15.90339,-5.645609)">
<stop offset="0" style="stop-color:rgb(0%,0%,0%);stop-opacity:0.313725;"/>
<stop offset="0.222222" style="stop-color:rgb(0%,0%,0%);stop-opacity:0.27451;"/>
<stop offset="1" style="stop-color:rgb(0%,0%,0%);stop-opacity:0;"/>
</radialGradient>
<radialGradient id="radial2" gradientUnits="userSpaceOnUse" cx="450.908936" cy="189.579361" fx="450.908936" fy="189.579361" r="21.166656" gradientTransform="matrix(-0.000000130628,-0.0585994,0.105479,-0.0000000761539,-15.90339,47.696499)">
<stop offset="0" style="stop-color:rgb(0%,0%,0%);stop-opacity:0.313725;"/>
<stop offset="0.222222" style="stop-color:rgb(0%,0%,0%);stop-opacity:0.27451;"/>
<stop offset="1" style="stop-color:rgb(0%,0%,0%);stop-opacity:0;"/>
</radialGradient>
<radialGradient id="radial3" gradientUnits="userSpaceOnUse" cx="450.908936" cy="189.579361" fx="450.908936" fy="189.579361" r="21.166656" gradientTransform="matrix(0.000000130628,0.0585994,-0.105479,0.0000000761539,39.842196,-5.64561)">
<stop offset="0" style="stop-color:rgb(0%,0%,0%);stop-opacity:0.313725;"/>
<stop offset="0.222222" style="stop-color:rgb(0%,0%,0%);stop-opacity:0.27451;"/>
<stop offset="1" style="stop-color:rgb(0%,0%,0%);stop-opacity:0;"/>
</radialGradient>
<linearGradient id="linear1" gradientUnits="userSpaceOnUse" x1="254" y1="233.5" x2="254" y2="-168.666672" gradientTransform="matrix(0.0468795,0,0,0.0468795,0,10.079087)">
<stop offset="0" style="stop-color:rgb(25.882353%,64.705882%,96.078431%);stop-opacity:1;"/>
<stop offset="1" style="stop-color:rgb(39.215686%,70.980392%,96.470588%);stop-opacity:1;"/>
</linearGradient>
<linearGradient id="linear2" gradientUnits="userSpaceOnUse" x1="759.999939" y1="302.605469" x2="799.999939" y2="1822.605469" gradientTransform="matrix(1,0,0,1,-79.999954,-127.487358)">
<stop offset="0" style="stop-color:rgb(9.803922%,46.27451%,82.352941%);stop-opacity:1;"/>
<stop offset="1" style="stop-color:rgb(11.764706%,53.333333%,89.803922%);stop-opacity:1;"/>
</linearGradient>
</defs>
<g id="surface1">
<path style=" stroke:none;fill-rule:nonzero;fill:url(#linear0);" d="M 3.84375 21.027344 L 20.09375 21.027344 L 20.09375 22.019531 L 3.84375 22.019531 Z M 3.84375 21.027344 "/>
<path style=" stroke:none;fill-rule:nonzero;fill:url(#radial0);" d="M 20.09375 21.027344 L 22.078125 21.027344 L 22.078125 20.03125 L 20.09375 20.03125 Z M 20.09375 21.027344 "/>
<path style=" stroke:none;fill-rule:nonzero;fill:url(#radial1);" d="M 3.84375 21.027344 L 1.859375 21.027344 L 1.859375 22.019531 L 3.84375 22.019531 Z M 3.84375 21.027344 "/>
<path style=" stroke:none;fill-rule:nonzero;fill:url(#radial2);" d="M 3.84375 21.027344 L 1.859375 21.027344 L 1.859375 20.03125 L 3.84375 20.03125 Z M 3.84375 21.027344 "/>
<path style=" stroke:none;fill-rule:nonzero;fill:url(#radial3);" d="M 20.09375 21.027344 L 22.078125 21.027344 L 22.078125 22.019531 L 20.09375 22.019531 Z M 20.09375 21.027344 "/>
<path style=" stroke:none;fill-rule:nonzero;fill:url(#linear1);" d="M 2.730469 2.171875 L 21.085938 2.171875 C 21.496094 2.171875 21.832031 2.503906 21.832031 2.917969 L 21.832031 20.28125 C 21.832031 20.691406 21.496094 21.027344 21.085938 21.027344 L 2.730469 21.027344 C 2.316406 21.027344 1.984375 20.691406 1.984375 20.28125 L 1.984375 2.917969 C 1.984375 2.503906 2.316406 2.171875 2.730469 2.171875 Z M 2.730469 2.171875 "/>
<path style="fill-rule:nonzero;fill:url(#linear2);stroke-width:11.338583;stroke-linecap:square;stroke-linejoin:bevel;stroke:rgb(12.941177%,12.941177%,12.941177%);stroke-opacity:1;stroke-miterlimit:4;" d="M 523.414611 493.181276 C 477.434747 493.496206 460.428496 558.371904 485.622942 592.384406 C 520.895166 637.104547 561.52121 679.935105 575.693086 737.252469 C 592.384406 796.144486 599.94274 775.044138 655.685451 901.646228 C 679.935105 975.025051 650.961493 1013.13165 660.094479 1115.169156 C 664.503507 1175.320895 639.938923 1315.150069 719.931288 1315.150069 C 759.927471 1315.150069 759.927471 1095.013599 788.271222 1154.850408 C 866.374004 1251.849024 1096.903183 1533.711886 1242.086176 1513.87126 C 1204.609438 1355.776113 1109.815336 1234.527843 1051.868111 1102.571933 C 999.904566 1009.982345 948.885814 915.818104 887.474352 828.897266 C 821.968793 751.109414 740.086844 681.194827 639.938923 655.05559 C 583.56635 638.994131 570.339266 625.137186 530.028153 564.985446 C 510.502457 524.989264 525.934055 526.563917 549.868779 535.067042 C 626.081977 566.560099 610.020518 575.063225 709.85351 615.059407 C 849.997614 675.211147 919.912201 715.207329 980.06394 795.199695 C 1054.702486 888.104213 1220.041036 1195.161521 1260.037219 1294.994513 C 1309.166388 1429.784797 1325.227847 1584.730639 1336.880279 1695.27127 L 1466.946605 1695.27127 C 1443.011881 1619.373002 1321.13375 1432.934103 1340.029584 1395.142434 C 1380.025767 1355.146252 1448.995562 1349.477501 1491.82612 1340.974376 C 1546.93897 1335.620556 1459.703202 1275.153886 1440.807367 1257.202844 C 1388.528892 1209.963258 1321.13375 1185.083743 1263.816386 1145.717421 C 1100.052488 835.195877 1072.968459 702.925037 860.075392 595.218781 C 807.167056 561.206279 701.980245 563.410794 660.094479 535.067042 C 610.650379 515.541347 567.819822 493.181276 523.414611 493.181276 Z M 523.414611 493.181276 " transform="matrix(0.0124035,0,0,0.0124035,0,0)"/>
<path style=" stroke:none;fill-rule:nonzero;fill:rgb(100%,100%,100%);fill-opacity:0.392157;" d="M 2.730469 2.234375 C 2.316406 2.234375 1.984375 2.566406 1.984375 2.976562 L 1.984375 3.101562 C 1.984375 2.6875 2.316406 2.355469 2.730469 2.355469 L 21.085938 2.355469 C 21.5 2.355469 21.832031 2.6875 21.832031 3.101562 L 21.832031 2.976562 C 21.832031 2.566406 21.5 2.234375 21.085938 2.234375 Z M 2.730469 2.234375 "/>
<path style=" stroke:none;fill-rule:nonzero;fill:rgb(1.176471%,1.176471%,1.176471%);fill-opacity:0.235294;" d="M 2.730469 20.964844 C 2.316406 20.964844 1.984375 20.632812 1.984375 20.21875 L 1.984375 20.09375 C 1.984375 20.507812 2.316406 20.839844 2.730469 20.839844 L 21.085938 20.839844 C 21.5 20.839844 21.832031 20.507812 21.832031 20.09375 L 21.832031 20.21875 C 21.832031 20.632812 21.5 20.964844 21.085938 20.964844 Z M 2.730469 20.964844 "/>
<path style=" stroke:none;fill-rule:nonzero;fill:rgb(12.941177%,12.941177%,12.941177%);fill-opacity:1;" d="M 2.730469 2.101562 C 2.277344 2.101562 1.914062 2.464844 1.914062 2.917969 L 1.914062 20.28125 C 1.914062 20.730469 2.277344 21.097656 2.730469 21.097656 L 21.085938 21.097656 C 21.535156 21.097656 21.902344 20.730469 21.902344 20.28125 L 21.902344 2.917969 C 21.902344 2.464844 21.535156 2.101562 21.085938 2.101562 Z M 2.730469 2.242188 L 21.085938 2.242188 C 21.460938 2.242188 21.761719 2.542969 21.761719 2.917969 L 21.761719 20.28125 C 21.761719 20.65625 21.460938 20.957031 21.085938 20.957031 L 2.730469 20.957031 C 2.355469 20.957031 2.054688 20.65625 2.054688 20.28125 L 2.054688 2.917969 C 2.054688 2.542969 2.355469 2.242188 2.730469 2.242188 Z M 2.730469 2.242188 "/>
</g>
</svg>
