<svg xmlns="http://www.w3.org/2000/svg" width="32" height="32" viewBox="0 0 24 24"><defs><linearGradient id="a" gradientUnits="userSpaceOnUse" x1="254" y1="-126.333" x2="254" y2="180.583" gradientTransform="matrix(3.77953 0 0 3.77953 0 812.598)"><stop offset="0" stop-color="#f06292"/><stop offset="1" stop-color="#ec407a"/></linearGradient><radialGradient id="b" gradientUnits="userSpaceOnUse" cx="450.909" cy="189.579" fx="450.909" fy="189.579" r="21.167" gradientTransform="matrix(0 -.0586 -.10548 0 33.392 47.696)"><stop offset="0" stop-opacity=".314"/><stop offset=".222" stop-opacity=".275"/><stop offset="1" stop-opacity="0"/></radialGradient><radialGradient id="c" gradientUnits="userSpaceOnUse" cx="450.909" cy="189.579" fx="450.909" fy="189.579" r="21.167" gradientTransform="matrix(0 .0586 .10548 0 -9.578 -5.646)"><stop offset="0" stop-opacity=".314"/><stop offset=".222" stop-opacity=".275"/><stop offset="1" stop-opacity="0"/></radialGradient><radialGradient id="d" gradientUnits="userSpaceOnUse" cx="450.909" cy="189.579" fx="450.909" fy="189.579" r="21.167" gradientTransform="matrix(0 -.0586 .10548 0 -9.578 47.696)"><stop offset="0" stop-opacity=".314"/><stop offset=".222" stop-opacity=".275"/><stop offset="1" stop-opacity="0"/></radialGradient><radialGradient id="e" gradientUnits="userSpaceOnUse" cx="450.909" cy="189.579" fx="450.909" fy="189.579" r="21.167" gradientTransform="matrix(0 .0586 -.10548 0 33.392 -5.646)"><stop offset="0" stop-opacity=".314"/><stop offset=".222" stop-opacity=".275"/><stop offset="1" stop-opacity="0"/></radialGradient><linearGradient id="f" gradientUnits="userSpaceOnUse" x1="255.323" y1="233.5" x2="255.323" y2="254.667" gradientTransform="matrix(.01002 0 0 .04688 9.349 10.08)"><stop offset="0" stop-opacity=".275"/><stop offset="1" stop-opacity="0"/></linearGradient><linearGradient id="g" gradientUnits="userSpaceOnUse" x1="254" y1="-115.75" x2="254" y2="191.167" gradientTransform="matrix(3.77953 0 0 3.77953 0 812.598)"><stop offset="0" stop-color="#ff8a65"/><stop offset="1" stop-color="#ff7043"/></linearGradient><linearGradient id="h" gradientUnits="userSpaceOnUse" x1="960" y1="575.118" x2="960" y2="175.118"><stop offset="0" stop-color="#26c6da"/><stop offset="1" stop-color="#4dd0e1"/></linearGradient><linearGradient id="i" gradientUnits="userSpaceOnUse" x1="960" y1="574.199" x2="960" y2="175.118" gradientTransform="matrix(1 0 0 -1 0 1869.317)"><stop offset="0" stop-color="#ffb74d"/><stop offset="1" stop-color="#ffa726"/></linearGradient></defs><path d="M959.908 175.101c-421.062 0-759.927 338.866-759.927 759.928s338.865 760.242 759.927 760.242c421.063 0 760.243-339.18 760.243-760.242 0-421.062-339.18-759.928-760.243-759.928zM719.931 535.067h479.954c44.406 0 79.993 35.587 79.993 79.992V1255c0 44.405-35.587 79.992-79.993 79.992H839.92c-39.996 60.151-59.837 119.988-99.833 119.988-22.36 0-39.996-17.636-39.996-39.996v-79.992c-30.234 0-60.152-19.84-60.152-79.993V615.06c0-44.405 35.587-79.992 79.992-79.992zm0 0" transform="scale(.0124)" fill="url(#a)" stroke-width="11.339" stroke-linecap="round" stroke="#333"/><path d="M13.645 21.027h1.984v-.996h-1.984zm0 0" fill="url(#b)"/><path d="M10.172 21.027H8.187v.993h1.985zm0 0" fill="url(#c)"/><path d="M10.172 21.027H8.187v-.996h1.985zm0 0" fill="url(#d)"/><path d="M13.645 21.027h1.984v.993h-1.984zm0 0" fill="url(#e)"/><path d="M10.172 20.777h3.473v1.243h-3.473zm0 0" fill="url(#f)"/><path d="M959.908 175.101v359.966h239.977c44.406 0 79.993 35.587 79.993 79.992V1255c0 44.405-35.587 79.992-79.993 79.992H959.908v360.28c421.063 0 760.243-339.18 760.243-760.242 0-421.062-339.18-759.928-760.243-759.928zm0 0" transform="scale(.0124)" fill="url(#g)" stroke-width="11.339" stroke-linecap="round" stroke="#333"/><path d="M959.908 175.101c-202.185 0-385.475 78.103-521.21 205.965l221.396 174.157h6.929c14.172-12.598 32.753-20.156 52.908-20.156h479.954c20.471 0 39.052 7.558 53.224 20.156h6.928l213.838-181.085C1338.77 250.37 1158.63 175.1 959.908 175.1zm0 0" transform="scale(.0124)" fill-rule="evenodd" fill="url(#h)" stroke-width="11.339" stroke="#000"/><path d="M1254.054 1314.205c-14.172 12.912-33.068 20.786-54.169 20.786H839.92c-39.996 60.151-59.837 119.988-99.833 119.988-22.36 0-39.996-17.636-39.996-39.996v-79.992c-15.747 0-31.178-5.354-42.516-18.896l-218.877 171.952c135.735 127.862 319.025 206.28 521.21 206.28 198.722 0 378.862-75.584 513.967-199.352l-213.838-180.77zm0 0" transform="scale(.0124)" fill-rule="evenodd" fill="url(#i)" stroke-width="11.339" stroke="#000"/><path d="M11.906 21.027a9.408 9.408 0 0 1-9.426-9.43v-.09a9.404 9.404 0 0 0 9.426 9.333 9.402 9.402 0 0 0 9.426-9.332c0 .031.004.058.004.09a9.41 9.41 0 0 1-9.43 9.43zm0 0" fill-opacity=".196"/><path d="M11.906 2.172a9.404 9.404 0 0 0-9.426 9.52 9.408 9.408 0 0 1 9.426-9.337 9.405 9.405 0 0 1 9.426 9.336c0-.03.004-.062.004-.093a9.408 9.408 0 0 0-9.43-9.426zm0 0" fill="#fff" fill-opacity=".392"/><path d="M11.906 2.102a9.48 9.48 0 0 0-9.496 9.496 9.48 9.48 0 0 0 9.496 9.5 9.48 9.48 0 0 0 9.5-9.5 9.48 9.48 0 0 0-9.5-9.496zm0 .14a9.335 9.335 0 0 1 9.36 9.356 9.336 9.336 0 0 1-9.36 9.359 9.335 9.335 0 0 1-9.355-9.36 9.334 9.334 0 0 1 9.355-9.355zm0 0" fill="#212121"/></svg>