<?xml version="1.0" encoding="UTF-8"?>
<svg xmlns="http://www.w3.org/2000/svg" xmlns:xlink="http://www.w3.org/1999/xlink" width="24pt" height="24pt" viewBox="0 0 24 24" version="1.1">
<defs>
<linearGradient id="linear0" gradientUnits="userSpaceOnUse" x1="254" y1="233.5" x2="254" y2="254.666672" gradientTransform="matrix(0.0468795,0,0,0.0468795,-3.969133,10.079089)">
<stop offset="0" style="stop-color:rgb(0%,0%,0%);stop-opacity:0.27451;"/>
<stop offset="1" style="stop-color:rgb(0%,0%,0%);stop-opacity:0;"/>
</linearGradient>
<radialGradient id="radial0" gradientUnits="userSpaceOnUse" cx="450.908936" cy="189.579361" fx="450.908936" fy="189.579361" r="21.166656" gradientTransform="matrix(0.000000130628,-0.0585994,-0.105479,-0.0000000761539,30.663586,47.696499)">
<stop offset="0" style="stop-color:rgb(0%,0%,0%);stop-opacity:0.313725;"/>
<stop offset="0.222222" style="stop-color:rgb(0%,0%,0%);stop-opacity:0.27451;"/>
<stop offset="1" style="stop-color:rgb(0%,0%,0%);stop-opacity:0;"/>
</radialGradient>
<radialGradient id="radial1" gradientUnits="userSpaceOnUse" cx="450.908936" cy="189.579361" fx="450.908936" fy="189.579361" r="21.166656" gradientTransform="matrix(-0.000000130628,0.0585994,0.105479,0.0000000761539,-14.787076,-5.645609)">
<stop offset="0" style="stop-color:rgb(0%,0%,0%);stop-opacity:0.313725;"/>
<stop offset="0.222222" style="stop-color:rgb(0%,0%,0%);stop-opacity:0.27451;"/>
<stop offset="1" style="stop-color:rgb(0%,0%,0%);stop-opacity:0;"/>
</radialGradient>
<radialGradient id="radial2" gradientUnits="userSpaceOnUse" cx="450.908936" cy="189.579361" fx="450.908936" fy="189.579361" r="21.166656" gradientTransform="matrix(-0.000000130628,-0.0585994,0.105479,-0.0000000761539,-14.787076,47.696499)">
<stop offset="0" style="stop-color:rgb(0%,0%,0%);stop-opacity:0.313725;"/>
<stop offset="0.222222" style="stop-color:rgb(0%,0%,0%);stop-opacity:0.27451;"/>
<stop offset="1" style="stop-color:rgb(0%,0%,0%);stop-opacity:0;"/>
</radialGradient>
<radialGradient id="radial3" gradientUnits="userSpaceOnUse" cx="450.908936" cy="189.579361" fx="450.908936" fy="189.579361" r="21.166656" gradientTransform="matrix(0.000000130628,0.0585994,-0.105479,0.0000000761539,30.663585,-5.64561)">
<stop offset="0" style="stop-color:rgb(0%,0%,0%);stop-opacity:0.313725;"/>
<stop offset="0.222222" style="stop-color:rgb(0%,0%,0%);stop-opacity:0.27451;"/>
<stop offset="1" style="stop-color:rgb(0%,0%,0%);stop-opacity:0;"/>
</radialGradient>
<linearGradient id="linear1" gradientUnits="userSpaceOnUse" x1="179.916672" y1="-168.666672" x2="179.916672" y2="64.166664" gradientTransform="matrix(0.0468795,0,0,0.0468795,8.434399,10.079087)">
<stop offset="0" style="stop-color:rgb(25.882353%,25.882353%,25.882353%);stop-opacity:1;"/>
<stop offset="1" style="stop-color:rgb(38.039216%,38.039216%,38.039216%);stop-opacity:1;"/>
</linearGradient>
<linearGradient id="linear2" gradientUnits="userSpaceOnUse" x1="179.916672" y1="-168.666672" x2="179.916672" y2="64.166664" gradientTransform="matrix(0.0468795,0,0,0.0468795,-0.992284,18.017346)">
<stop offset="0" style="stop-color:rgb(74.117647%,74.117647%,74.117647%);stop-opacity:1;"/>
<stop offset="1" style="stop-color:rgb(87.843137%,87.843137%,87.843137%);stop-opacity:1;"/>
</linearGradient>
<linearGradient id="linear3" gradientUnits="userSpaceOnUse" x1="1360" y1="295.118103" x2="1360" y2="775.118103" gradientTransform="matrix(0.264583,0,0,0.264583,3.65456,-193.833084)">
<stop offset="0" style="stop-color:rgb(74.117647%,74.117647%,74.117647%);stop-opacity:1;"/>
<stop offset="1" style="stop-color:rgb(87.843137%,87.843137%,87.843137%);stop-opacity:1;"/>
</linearGradient>
<linearGradient id="linear4" gradientUnits="userSpaceOnUse" x1="148.166656" y1="207.041672" x2="148.166656" y2="80.041664" gradientTransform="matrix(1,0,0,1,10.58333,-26.458334)">
<stop offset="0" style="stop-color:rgb(25.882353%,25.882353%,25.882353%);stop-opacity:1;"/>
<stop offset="1" style="stop-color:rgb(38.039216%,38.039216%,38.039216%);stop-opacity:1;"/>
</linearGradient>
</defs>
<g id="surface1">
<path style=" stroke:none;fill-rule:nonzero;fill:url(#linear0);" d="M 4.960938 21.027344 L 10.914062 21.027344 L 10.914062 22.019531 L 4.960938 22.019531 Z M 4.960938 21.027344 "/>
<path style=" stroke:none;fill-rule:nonzero;fill:url(#radial0);" d="M 10.914062 21.027344 L 12.898438 21.027344 L 12.898438 20.03125 L 10.914062 20.03125 Z M 10.914062 21.027344 "/>
<path style=" stroke:none;fill-rule:nonzero;fill:url(#radial1);" d="M 4.960938 21.027344 L 2.976562 21.027344 L 2.976562 22.019531 L 4.960938 22.019531 Z M 4.960938 21.027344 "/>
<path style=" stroke:none;fill-rule:nonzero;fill:url(#radial2);" d="M 4.960938 21.027344 L 2.976562 21.027344 L 2.976562 20.03125 L 4.960938 20.03125 Z M 4.960938 21.027344 "/>
<path style=" stroke:none;fill-rule:nonzero;fill:url(#radial3);" d="M 10.914062 21.027344 L 12.898438 21.027344 L 12.898438 22.019531 L 10.914062 22.019531 Z M 10.914062 21.027344 "/>
<path style=" stroke:none;fill-rule:nonzero;fill:url(#linear1);" d="M 13.394531 2.171875 L 20.339844 2.171875 C 21.4375 2.171875 22.328125 3.0625 22.328125 4.15625 L 22.328125 11.101562 C 22.328125 12.199219 21.4375 13.085938 20.339844 13.085938 L 13.394531 13.085938 C 12.300781 13.085938 11.410156 12.199219 11.410156 11.101562 L 11.410156 4.15625 C 11.410156 3.0625 12.300781 2.171875 13.394531 2.171875 Z M 13.394531 2.171875 "/>
<path style=" stroke:none;fill-rule:nonzero;fill:rgb(100%,100%,100%);fill-opacity:0.313725;" d="M 13.394531 2.171875 C 12.296875 2.171875 11.410156 3.058594 11.410156 4.15625 L 11.410156 4.332031 C 11.410156 3.230469 12.296875 2.347656 13.394531 2.347656 L 20.339844 2.347656 C 21.441406 2.347656 22.328125 3.230469 22.328125 4.332031 L 22.328125 4.15625 C 22.328125 3.058594 21.441406 2.171875 20.339844 2.171875 Z M 13.394531 2.171875 "/>
<path style=" stroke:none;fill-rule:nonzero;fill:rgb(0%,0%,0%);fill-opacity:0.235294;" d="M 11.410156 10.925781 L 11.410156 11.101562 C 11.410156 12.203125 12.296875 13.085938 13.394531 13.085938 L 20.339844 13.085938 C 21.441406 13.085938 22.328125 12.203125 22.328125 11.101562 L 22.328125 10.925781 C 22.328125 12.027344 21.441406 12.910156 20.339844 12.910156 L 13.394531 12.910156 C 12.296875 12.910156 11.410156 12.027344 11.410156 10.925781 Z M 11.410156 10.925781 "/>
<path style=" stroke:none;fill-rule:nonzero;fill:rgb(12.941177%,12.941177%,12.941177%);fill-opacity:1;" d="M 13.394531 2.101562 C 12.257812 2.101562 11.339844 3.019531 11.339844 4.15625 L 11.339844 11.101562 C 11.339844 12.238281 12.257812 13.15625 13.394531 13.15625 L 20.34375 13.15625 C 21.480469 13.15625 22.398438 12.238281 22.398438 11.101562 L 22.398438 4.15625 C 22.398438 3.019531 21.480469 2.101562 20.34375 2.101562 Z M 13.394531 2.242188 L 20.34375 2.242188 C 21.402344 2.242188 22.257812 3.09375 22.257812 4.15625 L 22.257812 11.101562 C 22.257812 12.164062 21.402344 13.015625 20.34375 13.015625 L 13.394531 13.015625 C 12.335938 13.015625 11.480469 12.164062 11.480469 11.101562 L 11.480469 4.15625 C 11.480469 3.09375 12.335938 2.242188 13.394531 2.242188 Z M 13.394531 2.242188 "/>
<path style=" stroke:none;fill-rule:nonzero;fill:url(#linear2);" d="M 3.96875 10.109375 L 10.914062 10.109375 C 12.011719 10.109375 12.898438 11 12.898438 12.09375 L 12.898438 19.039062 C 12.898438 20.136719 12.011719 21.027344 10.914062 21.027344 L 3.96875 21.027344 C 2.875 21.027344 1.984375 20.136719 1.984375 19.039062 L 1.984375 12.09375 C 1.984375 11 2.875 10.109375 3.96875 10.109375 Z M 3.96875 10.109375 "/>
<path style=" stroke:none;fill-rule:nonzero;fill:rgb(100%,100%,100%);fill-opacity:0.313725;" d="M 3.96875 10.09375 C 2.871094 10.09375 1.984375 10.980469 1.984375 12.078125 L 1.984375 12.253906 C 1.984375 11.15625 2.871094 10.269531 3.96875 10.269531 L 10.914062 10.269531 C 12.015625 10.269531 12.898438 11.15625 12.898438 12.253906 L 12.898438 12.078125 C 12.898438 10.980469 12.015625 10.09375 10.914062 10.09375 Z M 3.96875 10.09375 "/>
<path style=" stroke:none;fill-rule:nonzero;fill:rgb(0%,0%,0%);fill-opacity:0.235294;" d="M 1.984375 18.847656 L 1.984375 19.023438 C 1.984375 20.125 2.871094 21.007812 3.96875 21.007812 L 10.914062 21.007812 C 12.015625 21.007812 12.898438 20.125 12.898438 19.023438 L 12.898438 18.847656 C 12.898438 19.949219 12.015625 20.835938 10.914062 20.835938 L 3.96875 20.835938 C 2.871094 20.835938 1.984375 19.949219 1.984375 18.847656 Z M 1.984375 18.847656 "/>
<path style=" stroke:none;fill-rule:nonzero;fill:rgb(12.941177%,12.941177%,12.941177%);fill-opacity:1;" d="M 3.96875 10.023438 C 2.832031 10.023438 1.914062 10.941406 1.914062 12.078125 L 1.914062 19.023438 C 1.914062 20.164062 2.832031 21.078125 3.96875 21.078125 L 10.914062 21.078125 C 12.050781 21.078125 12.96875 20.164062 12.96875 19.023438 L 12.96875 12.078125 C 12.96875 10.941406 12.050781 10.023438 10.914062 10.023438 Z M 3.96875 10.164062 L 10.914062 10.164062 C 11.976562 10.164062 12.828125 11.015625 12.828125 12.078125 L 12.828125 19.023438 C 12.828125 20.085938 11.976562 20.9375 10.914062 20.9375 L 3.96875 20.9375 C 2.90625 20.9375 2.054688 20.085938 2.054688 19.023438 L 2.054688 12.078125 C 2.054688 11.015625 2.90625 10.164062 3.96875 10.164062 Z M 3.96875 10.164062 "/>
<path style="fill-rule:nonzero;fill:url(#linear3);stroke-width:3;stroke-linecap:square;stroke-linejoin:bevel;stroke:rgb(12.941177%,12.941177%,12.941177%);stroke-opacity:1;stroke-miterlimit:4;" d="M 363.465291 -115.759477 C 357.632514 -115.759477 352.882968 -111.009931 352.882968 -105.177154 L 352.882968 -94.594831 L 321.136 -94.594831 C 315.303223 -94.594831 310.553677 -89.845285 310.553677 -84.012509 C 310.553677 -78.096407 315.303223 -73.430186 321.136 -73.430186 L 345.217033 -73.430186 L 310.720328 -13.769217 C 307.80394 -8.686369 309.553772 -2.270315 314.63662 0.646073 C 319.719468 3.562462 326.135522 1.895954 329.05191 -3.186894 L 352.882968 -44.432955 L 352.882968 0.646073 C 352.882968 6.562175 357.632514 11.228396 363.465291 11.228396 C 369.381393 11.228396 374.047614 6.562175 374.047614 0.646073 L 374.047614 -43.099749 L 398.045322 -1.520386 C 401.045035 3.562462 407.461089 5.312295 412.543937 2.395906 C 417.626785 -0.603807 419.376618 -7.019861 416.376905 -12.102709 L 380.96362 -73.430186 L 405.794582 -73.430186 C 411.710684 -73.430186 416.376905 -78.096407 416.376905 -84.012509 C 416.376905 -89.845285 411.710684 -94.594831 405.794582 -94.594831 L 374.047614 -94.594831 L 374.047614 -105.177154 C 374.047614 -111.009931 369.381393 -115.759477 363.465291 -115.759477 Z M 363.465291 -115.759477 " transform="matrix(0.0468795,0,0,0.0468795,0,10.079087)"/>
<path style="fill-rule:nonzero;fill:url(#linear4);stroke-width:3;stroke-linecap:square;stroke-linejoin:bevel;stroke:rgb(12.941177%,12.941177%,12.941177%);stroke-opacity:1;stroke-miterlimit:4;" d="M 126.987873 53.557687 C 121.155097 53.557687 116.40555 58.307234 116.40555 64.14001 L 116.40555 169.963238 C 116.40555 175.87934 121.155097 180.545561 126.987873 180.545561 L 137.570196 180.545561 L 137.570196 127.633947 C 137.570196 124.717559 139.903307 122.384448 142.90302 122.384448 L 174.649988 122.384448 C 177.566377 122.384448 179.899487 124.717559 179.899487 127.633947 L 179.899487 180.545561 L 190.48181 180.545561 C 196.397912 180.545561 201.064133 175.87934 201.064133 169.963238 L 201.064133 64.14001 C 201.064133 58.307234 196.397912 53.557687 190.48181 53.557687 Z M 142.90302 74.722333 L 174.649988 74.722333 C 177.566377 74.722333 179.899487 77.138769 179.899487 80.055157 L 179.899487 101.219803 C 179.899487 104.136191 177.566377 106.469301 174.649988 106.469301 L 142.90302 106.469301 C 139.903307 106.469301 137.570196 104.136191 137.570196 101.219803 L 137.570196 80.055157 C 137.570196 77.138769 139.903307 74.722333 142.90302 74.722333 Z M 142.90302 74.722333 " transform="matrix(0.0468795,0,0,0.0468795,0,10.079087)"/>
</g>
</svg>
