<?xml version="1.0" encoding="UTF-8"?>
<svg xmlns="http://www.w3.org/2000/svg" xmlns:xlink="http://www.w3.org/1999/xlink" width="24px" height="24px" viewBox="0 0 24 24" version="1.1">
<defs>
<linearGradient id="linear0" gradientUnits="userSpaceOnUse" x1="254" y1="233.5" x2="254" y2="254.666672" gradientTransform="matrix(0.0468795,0,0,0.0468795,-0.0000028613,10.079087)">
<stop offset="0" style="stop-color:rgb(0%,0%,0%);stop-opacity:0.27451;"/>
<stop offset="1" style="stop-color:rgb(0%,0%,0%);stop-opacity:0;"/>
</linearGradient>
<radialGradient id="radial0" gradientUnits="userSpaceOnUse" cx="450.908936" cy="189.579361" fx="450.908936" fy="189.579361" r="21.166656" gradientTransform="matrix(0.000000130628,-0.0585994,-0.105479,-0.0000000761539,40.090268,47.696498)">
<stop offset="0" style="stop-color:rgb(0%,0%,0%);stop-opacity:0.313726;"/>
<stop offset="0.222222" style="stop-color:rgb(0%,0%,0%);stop-opacity:0.27451;"/>
<stop offset="1" style="stop-color:rgb(0%,0%,0%);stop-opacity:0;"/>
</radialGradient>
<radialGradient id="radial1" gradientUnits="userSpaceOnUse" cx="450.908936" cy="189.579361" fx="450.908936" fy="189.579361" r="21.166656" gradientTransform="matrix(-0.000000130628,0.0585994,0.105479,0.0000000761539,-16.275496,-5.645611)">
<stop offset="0" style="stop-color:rgb(0%,0%,0%);stop-opacity:0.313726;"/>
<stop offset="0.222222" style="stop-color:rgb(0%,0%,0%);stop-opacity:0.27451;"/>
<stop offset="1" style="stop-color:rgb(0%,0%,0%);stop-opacity:0;"/>
</radialGradient>
<radialGradient id="radial2" gradientUnits="userSpaceOnUse" cx="450.908936" cy="189.579361" fx="450.908936" fy="189.579361" r="21.166656" gradientTransform="matrix(-0.000000130628,-0.0585994,0.105479,-0.0000000761539,-16.275496,47.696498)">
<stop offset="0" style="stop-color:rgb(0%,0%,0%);stop-opacity:0.313726;"/>
<stop offset="0.222222" style="stop-color:rgb(0%,0%,0%);stop-opacity:0.27451;"/>
<stop offset="1" style="stop-color:rgb(0%,0%,0%);stop-opacity:0;"/>
</radialGradient>
<radialGradient id="radial3" gradientUnits="userSpaceOnUse" cx="450.908936" cy="189.579361" fx="450.908936" fy="189.579361" r="21.166656" gradientTransform="matrix(0.000000130628,0.0585994,-0.105479,0.0000000761539,40.090267,-5.645611)">
<stop offset="0" style="stop-color:rgb(0%,0%,0%);stop-opacity:0.313726;"/>
<stop offset="0.222222" style="stop-color:rgb(0%,0%,0%);stop-opacity:0.27451;"/>
<stop offset="1" style="stop-color:rgb(0%,0%,0%);stop-opacity:0;"/>
</radialGradient>
<linearGradient id="linear1" gradientUnits="userSpaceOnUse" x1="306.916656" y1="-25.791676" x2="305.954559" y2="-135.329163" gradientTransform="matrix(0.0565122,0,0,0.163059,-4.39051,25.231011)">
<stop offset="0" style="stop-color:rgb(74.117649%,74.117649%,74.117649%);stop-opacity:1;"/>
<stop offset="1" style="stop-color:rgb(87.843138%,87.843138%,87.843138%);stop-opacity:1;"/>
</linearGradient>
<linearGradient id="linear2" gradientUnits="userSpaceOnUse" x1="306.916656" y1="-25.791676" x2="305.954559" y2="-135.329163" gradientTransform="matrix(4.556143,0,0,13.146184,-353.972656,2034.180176)">
<stop offset="0" style="stop-color:rgb(25.882354%,25.882354%,25.882354%);stop-opacity:1;"/>
<stop offset="1" style="stop-color:rgb(38.039216%,38.039216%,38.039216%);stop-opacity:1;"/>
</linearGradient>
<linearGradient id="linear3" gradientUnits="userSpaceOnUse" x1="349.25" y1="-158.083328" x2="349.25" y2="-115.75" gradientTransform="matrix(0.749999,0,0,0.749999,71.437767,-2.479259)">
<stop offset="0" style="stop-color:rgb(40.000001%,73.333335%,41.568628%);stop-opacity:1;"/>
<stop offset="1" style="stop-color:rgb(50.588238%,78.039217%,51.764709%);stop-opacity:1;"/>
</linearGradient>
<linearGradient id="linear4" gradientUnits="userSpaceOnUse" x1="349.25" y1="-158.083328" x2="349.25" y2="-115.75" gradientTransform="matrix(0.750001,0,0,0.750001,124.353661,-2.47902)">
<stop offset="0" style="stop-color:rgb(100%,83.529413%,30.980393%);stop-opacity:1;"/>
<stop offset="1" style="stop-color:rgb(100%,87.843138%,50.980395%);stop-opacity:1;"/>
</linearGradient>
<linearGradient id="linear5" gradientUnits="userSpaceOnUse" x1="349.25" y1="-158.083328" x2="349.25" y2="-115.75" gradientTransform="matrix(0.75,0,0,0.75,177.270798,-2.479186)">
<stop offset="0" style="stop-color:rgb(89.803922%,45.09804%,45.09804%);stop-opacity:1;"/>
<stop offset="1" style="stop-color:rgb(93.725491%,60.392159%,60.392159%);stop-opacity:1;"/>
</linearGradient>
<linearGradient id="linear6" gradientUnits="userSpaceOnUse" x1="254" y1="214.044342" x2="254" y2="-251.622314" gradientTransform="matrix(0.0468795,0,0,0.0468795,0.000000309405,12.975723)">
<stop offset="0" style="stop-color:rgb(47.058824%,56.470591%,61.176473%);stop-opacity:1;"/>
<stop offset="1" style="stop-color:rgb(56.470591%,64.313728%,68.235296%);stop-opacity:1;"/>
</linearGradient>
</defs>
<g id="surface1">
<path style=" stroke:none;fill-rule:nonzero;fill:url(#linear0);" d="M 3.472656 21.027344 L 20.339844 21.027344 L 20.339844 22.019531 L 3.472656 22.019531 Z M 3.472656 21.027344 "/>
<path style=" stroke:none;fill-rule:nonzero;fill:url(#radial0);" d="M 20.339844 21.027344 L 22.328125 21.027344 L 22.328125 20.03125 L 20.339844 20.03125 Z M 20.339844 21.027344 "/>
<path style=" stroke:none;fill-rule:nonzero;fill:url(#radial1);" d="M 3.472656 21.027344 L 1.488281 21.027344 L 1.488281 22.019531 L 3.472656 22.019531 Z M 3.472656 21.027344 "/>
<path style=" stroke:none;fill-rule:nonzero;fill:url(#radial2);" d="M 3.472656 21.027344 L 1.488281 21.027344 L 1.488281 20.03125 L 3.472656 20.03125 Z M 3.472656 21.027344 "/>
<path style=" stroke:none;fill-rule:nonzero;fill:url(#radial3);" d="M 20.339844 21.027344 L 22.328125 21.027344 L 22.328125 22.019531 L 20.339844 22.019531 Z M 20.339844 21.027344 "/>
<path style=" stroke:none;fill-rule:nonzero;fill:url(#linear1);" d="M 2.480469 3.164062 L 21.335938 3.164062 C 21.882812 3.164062 22.328125 3.609375 22.328125 4.15625 L 22.328125 20.03125 C 22.328125 20.582031 21.882812 21.027344 21.335938 21.027344 L 2.480469 21.027344 C 1.933594 21.027344 1.488281 20.582031 1.488281 20.03125 L 1.488281 4.15625 C 1.488281 3.609375 1.933594 3.164062 2.480469 3.164062 Z M 2.480469 3.164062 "/>
<path style=" stroke:none;fill-rule:nonzero;fill:rgb(3.921569%,5.098039%,5.490196%);fill-opacity:0.235294;" d="M 1.488281 7.132812 L 22.328125 7.132812 L 22.328125 7.628906 L 1.488281 7.628906 Z M 1.488281 7.132812 "/>
<path style=" stroke:none;fill-rule:nonzero;fill:rgb(0%,0%,0%);fill-opacity:0.235294;" d="M 2.480469 21.035156 C 1.929688 21.035156 1.488281 20.59375 1.488281 20.042969 L 1.488281 19.785156 C 1.488281 20.335938 1.929688 20.777344 2.480469 20.777344 L 21.335938 20.777344 C 21.882812 20.777344 22.328125 20.335938 22.328125 19.785156 L 22.328125 20.042969 C 22.328125 20.59375 21.882812 21.035156 21.335938 21.035156 Z M 2.480469 21.035156 "/>
<path style="fill-rule:nonzero;fill:url(#linear2);stroke-width:11.338583;stroke-linecap:round;stroke-linejoin:miter;stroke:rgb(12.941177%,12.941177%,12.941177%);stroke-opacity:1;stroke-miterlimit:4;" d="M 199.980913 255.093763 C 155.575703 255.093763 119.988548 290.680918 119.988548 335.086129 L 119.988548 575.063225 L 1800.14315 575.063225 L 1800.14315 335.086129 C 1800.14315 290.680918 1764.241065 255.093763 1720.150785 255.093763 Z M 199.980913 255.093763 " transform="matrix(0.0124035,0,0,0.0124035,0,0)"/>
<path style=" stroke:none;fill-rule:nonzero;fill:rgb(100%,100%,100%);fill-opacity:0.392157;" d="M 2.480469 3.222656 C 1.929688 3.222656 1.488281 3.664062 1.488281 4.214844 L 1.488281 4.472656 C 1.488281 3.921875 1.929688 3.480469 2.480469 3.480469 L 21.335938 3.480469 C 21.882812 3.480469 22.328125 3.921875 22.328125 4.472656 L 22.328125 4.214844 C 22.328125 3.664062 21.882812 3.222656 21.335938 3.222656 Z M 2.480469 3.222656 "/>
<path style=" stroke:none;fill-rule:nonzero;fill:rgb(12.941177%,12.941177%,12.941177%);fill-opacity:1;" d="M 2.480469 3.09375 C 1.894531 3.09375 1.417969 3.570312 1.417969 4.15625 L 1.417969 20.03125 C 1.417969 20.621094 1.894531 21.097656 2.480469 21.097656 L 21.335938 21.097656 C 21.921875 21.097656 22.398438 20.621094 22.398438 20.03125 L 22.398438 4.15625 C 22.398438 3.570312 21.921875 3.09375 21.335938 3.09375 Z M 2.480469 3.234375 L 21.335938 3.234375 C 21.847656 3.234375 22.257812 3.644531 22.257812 4.15625 L 22.257812 20.03125 C 22.257812 20.546875 21.847656 20.957031 21.335938 20.957031 L 2.480469 20.957031 C 1.96875 20.957031 1.558594 20.546875 1.558594 20.03125 L 1.558594 4.15625 C 1.558594 3.644531 1.96875 3.234375 2.480469 3.234375 Z M 2.480469 3.234375 "/>
<path style="fill-rule:nonzero;fill:url(#linear3);stroke-width:3;stroke-linecap:round;stroke-linejoin:miter;stroke:rgb(12.941177%,12.941177%,12.941177%);stroke-opacity:1;stroke-miterlimit:4;" d="M 333.38483 -121.008976 C 342.133995 -121.008976 349.216651 -113.926319 349.216651 -105.177154 C 349.216651 -96.42799 342.133995 -89.262007 333.38483 -89.262007 C 324.635666 -89.262007 317.469683 -96.42799 317.469683 -105.177154 C 317.469683 -113.926319 324.635666 -121.008976 333.38483 -121.008976 Z M 333.38483 -121.008976 " transform="matrix(0.0468795,0,0,0.0468795,0,10.079087)"/>
<path style="fill-rule:nonzero;fill:url(#linear4);stroke-width:3;stroke-linecap:round;stroke-linejoin:miter;stroke:rgb(12.941177%,12.941177%,12.941177%);stroke-opacity:1;stroke-miterlimit:4;" d="M 386.296444 -121.008976 C 395.045608 -121.008976 402.128265 -113.926319 402.128265 -105.177154 C 402.128265 -96.42799 395.045608 -89.262007 386.296444 -89.262007 C 377.547279 -89.262007 370.381297 -96.42799 370.381297 -105.177154 C 370.381297 -113.926319 377.547279 -121.008976 386.296444 -121.008976 Z M 386.296444 -121.008976 " transform="matrix(0.0468795,0,0,0.0468795,0,10.079087)"/>
<path style="fill-rule:nonzero;fill:url(#linear5);stroke-width:3;stroke-linecap:round;stroke-linejoin:miter;stroke:rgb(12.941177%,12.941177%,12.941177%);stroke-opacity:1;stroke-miterlimit:4;" d="M 439.208058 -121.008976 C 447.957222 -121.008976 455.123205 -113.926319 455.123205 -105.177154 C 455.123205 -96.42799 447.957222 -89.262007 439.208058 -89.262007 C 430.458893 -89.262007 423.292911 -96.42799 423.292911 -105.177154 C 423.292911 -113.926319 430.458893 -121.008976 439.208058 -121.008976 Z M 439.208058 -121.008976 " transform="matrix(0.0468795,0,0,0.0468795,0,10.079087)"/>
<path style=" stroke:none;fill-rule:nonzero;fill:url(#linear6);" d="M 11.660156 10.109375 C 11.382812 10.109375 11.164062 10.332031 11.164062 10.605469 L 11.164062 10.941406 C 10.820312 11.019531 10.503906 11.152344 10.210938 11.332031 L 9.976562 11.097656 C 9.878906 11 9.753906 10.953125 9.628906 10.953125 C 9.5 10.953125 9.375 11 9.277344 11.097656 L 8.925781 11.449219 C 8.730469 11.644531 8.730469 11.957031 8.925781 12.148438 L 9.160156 12.386719 C 8.980469 12.675781 8.847656 12.992188 8.769531 13.335938 L 8.433594 13.335938 C 8.160156 13.335938 7.9375 13.554688 7.9375 13.832031 L 7.9375 14.328125 C 7.9375 14.601562 8.160156 14.824219 8.433594 14.824219 L 8.769531 14.824219 C 8.847656 15.164062 8.980469 15.484375 9.160156 15.773438 L 8.925781 16.007812 C 8.730469 16.203125 8.730469 16.515625 8.925781 16.710938 L 9.277344 17.0625 C 9.46875 17.253906 9.785156 17.253906 9.976562 17.0625 L 10.210938 16.828125 C 10.503906 17.003906 10.820312 17.136719 11.164062 17.21875 L 11.164062 17.550781 C 11.164062 17.828125 11.382812 18.046875 11.660156 18.046875 L 12.15625 18.046875 C 12.429688 18.046875 12.652344 17.828125 12.652344 17.550781 L 12.652344 17.21875 C 12.992188 17.136719 13.3125 17.003906 13.601562 16.828125 L 13.835938 17.0625 C 14.03125 17.253906 14.34375 17.253906 14.539062 17.0625 L 14.890625 16.710938 C 15.082031 16.515625 15.082031 16.203125 14.890625 16.007812 L 14.65625 15.773438 C 14.832031 15.484375 14.964844 15.164062 15.046875 14.824219 L 15.378906 14.824219 C 15.65625 14.824219 15.875 14.601562 15.875 14.328125 L 15.875 13.832031 C 15.875 13.554688 15.65625 13.335938 15.378906 13.335938 L 15.046875 13.335938 C 14.964844 12.992188 14.832031 12.675781 14.65625 12.386719 L 14.890625 12.148438 C 15.082031 11.957031 15.082031 11.644531 14.890625 11.449219 L 14.539062 11.097656 C 14.441406 11 14.316406 10.953125 14.1875 10.953125 C 14.0625 10.953125 13.933594 11 13.835938 11.097656 L 13.601562 11.332031 C 13.3125 11.152344 12.992188 11.019531 12.652344 10.941406 L 12.652344 10.605469 C 12.652344 10.332031 12.429688 10.109375 12.15625 10.109375 Z M 11.90625 12.09375 C 13.007812 12.09375 13.890625 12.980469 13.890625 14.078125 C 13.890625 15.179688 13.007812 16.0625 11.90625 16.0625 C 10.808594 16.0625 9.921875 15.179688 9.921875 14.078125 C 9.921875 12.980469 10.808594 12.09375 11.90625 12.09375 Z M 11.90625 12.09375 "/>
<path style=" stroke:none;fill-rule:nonzero;fill:rgb(100%,100%,100%);fill-opacity:0.392157;" d="M 11.660156 10.171875 C 11.382812 10.171875 11.164062 10.394531 11.164062 10.667969 L 11.164062 10.792969 C 11.164062 10.519531 11.382812 10.296875 11.660156 10.296875 L 12.15625 10.296875 C 12.429688 10.296875 12.652344 10.519531 12.652344 10.792969 L 12.652344 10.667969 C 12.652344 10.394531 12.429688 10.171875 12.15625 10.171875 Z M 11.164062 11.003906 C 10.820312 11.082031 10.503906 11.214844 10.210938 11.394531 L 9.976562 11.160156 C 9.878906 11.0625 9.753906 11.015625 9.628906 11.015625 C 9.5 11.015625 9.375 11.0625 9.277344 11.160156 L 8.925781 11.511719 C 8.8125 11.625 8.765625 11.777344 8.785156 11.921875 C 8.796875 11.816406 8.84375 11.714844 8.925781 11.632812 L 9.277344 11.285156 C 9.375 11.1875 9.5 11.136719 9.628906 11.136719 C 9.753906 11.136719 9.878906 11.1875 9.976562 11.285156 L 10.210938 11.519531 C 10.503906 11.339844 10.820312 11.207031 11.164062 11.125 Z M 12.652344 11.003906 L 12.652344 11.125 C 12.992188 11.207031 13.3125 11.339844 13.601562 11.519531 L 13.835938 11.285156 C 13.933594 11.1875 14.0625 11.136719 14.1875 11.136719 C 14.316406 11.136719 14.441406 11.1875 14.539062 11.285156 L 14.890625 11.632812 C 14.96875 11.714844 15.019531 11.816406 15.03125 11.921875 C 15.050781 11.777344 15.003906 11.625 14.890625 11.511719 L 14.539062 11.160156 C 14.441406 11.0625 14.316406 11.015625 14.1875 11.015625 C 14.0625 11.015625 13.933594 11.0625 13.835938 11.160156 L 13.601562 11.394531 C 13.3125 11.214844 12.992188 11.082031 12.652344 11.003906 Z M 9.113281 12.523438 C 8.957031 12.792969 8.839844 13.085938 8.769531 13.398438 L 8.433594 13.398438 C 8.160156 13.398438 7.9375 13.617188 7.9375 13.894531 L 7.9375 14.015625 C 7.9375 13.742188 8.160156 13.519531 8.433594 13.519531 L 8.769531 13.519531 C 8.847656 13.179688 8.980469 12.859375 9.160156 12.570312 Z M 14.699219 12.523438 L 14.65625 12.570312 C 14.832031 12.859375 14.964844 13.179688 15.046875 13.519531 L 15.378906 13.519531 C 15.65625 13.519531 15.875 13.742188 15.875 14.015625 L 15.875 13.894531 C 15.875 13.617188 15.65625 13.398438 15.378906 13.398438 L 15.046875 13.398438 C 14.972656 13.085938 14.855469 12.792969 14.699219 12.523438 Z M 9.925781 14.203125 C 9.921875 14.222656 9.921875 14.246094 9.921875 14.265625 C 9.921875 15.363281 10.808594 16.25 11.90625 16.25 C 13.007812 16.25 13.890625 15.363281 13.890625 14.265625 C 13.890625 14.246094 13.890625 14.222656 13.890625 14.203125 C 13.859375 15.273438 12.984375 16.125 11.90625 16.125 C 10.828125 16.125 9.957031 15.273438 9.925781 14.203125 Z M 9.113281 15.882812 L 8.925781 16.070312 C 8.8125 16.183594 8.765625 16.335938 8.785156 16.484375 C 8.796875 16.378906 8.84375 16.277344 8.925781 16.195312 L 9.160156 15.960938 C 9.144531 15.933594 9.128906 15.910156 9.113281 15.882812 Z M 14.699219 15.882812 C 14.683594 15.910156 14.671875 15.933594 14.65625 15.960938 L 14.890625 16.195312 C 14.96875 16.277344 15.019531 16.378906 15.03125 16.484375 C 15.050781 16.335938 15.003906 16.183594 14.890625 16.070312 Z M 14.699219 15.882812 "/>
<path style=" stroke:none;fill-rule:nonzero;fill:rgb(0%,0%,0%);fill-opacity:0.235294;" d="M 8.789062 11.964844 C 8.757812 12.121094 8.804688 12.285156 8.925781 12.40625 L 9.089844 12.574219 C 9.113281 12.535156 9.136719 12.496094 9.160156 12.457031 L 8.925781 12.222656 C 8.851562 12.148438 8.804688 12.058594 8.789062 11.964844 Z M 15.027344 11.964844 C 15.007812 12.058594 14.960938 12.148438 14.890625 12.222656 L 14.65625 12.457031 C 14.679688 12.496094 14.699219 12.535156 14.722656 12.574219 L 14.890625 12.40625 C 15.011719 12.285156 15.054688 12.121094 15.027344 11.964844 Z M 11.90625 12.167969 C 10.808594 12.167969 9.921875 13.050781 9.921875 14.152344 C 9.921875 14.183594 9.921875 14.214844 9.925781 14.242188 C 9.972656 13.1875 10.839844 12.351562 11.90625 12.351562 C 12.976562 12.351562 13.839844 13.1875 13.890625 14.242188 C 13.890625 14.214844 13.890625 14.183594 13.890625 14.152344 C 13.890625 13.050781 13.007812 12.167969 11.90625 12.167969 Z M 7.9375 14.398438 L 7.9375 14.585938 C 7.9375 14.859375 8.160156 15.082031 8.433594 15.082031 L 8.769531 15.082031 C 8.835938 15.375 8.949219 15.65625 9.089844 15.914062 L 9.160156 15.84375 C 8.980469 15.554688 8.847656 15.234375 8.769531 14.894531 L 8.433594 14.894531 C 8.160156 14.894531 7.9375 14.675781 7.9375 14.398438 Z M 15.875 14.398438 C 15.875 14.675781 15.65625 14.894531 15.378906 14.894531 L 15.046875 14.894531 C 14.964844 15.234375 14.832031 15.554688 14.65625 15.84375 L 14.722656 15.914062 C 14.867188 15.65625 14.976562 15.375 15.046875 15.082031 L 15.378906 15.082031 C 15.65625 15.082031 15.875 14.859375 15.875 14.585938 Z M 8.789062 16.523438 C 8.757812 16.679688 8.804688 16.847656 8.925781 16.96875 L 9.277344 17.320312 C 9.46875 17.511719 9.785156 17.511719 9.976562 17.320312 L 10.210938 17.085938 C 10.503906 17.261719 10.820312 17.394531 11.164062 17.476562 L 11.164062 17.289062 C 10.820312 17.210938 10.503906 17.078125 10.210938 16.898438 L 9.976562 17.132812 C 9.785156 17.328125 9.46875 17.328125 9.277344 17.132812 L 8.925781 16.78125 C 8.851562 16.707031 8.804688 16.617188 8.789062 16.523438 Z M 15.027344 16.523438 C 15.007812 16.617188 14.960938 16.707031 14.890625 16.78125 L 14.539062 17.132812 C 14.34375 17.328125 14.03125 17.328125 13.835938 17.132812 L 13.601562 16.898438 C 13.3125 17.078125 12.992188 17.210938 12.652344 17.289062 L 12.652344 17.476562 C 12.992188 17.394531 13.3125 17.261719 13.601562 17.085938 L 13.835938 17.320312 C 14.03125 17.511719 14.34375 17.511719 14.539062 17.320312 L 14.890625 16.96875 C 15.011719 16.847656 15.054688 16.679688 15.027344 16.523438 Z M 11.164062 17.625 L 11.164062 17.808594 C 11.164062 18.085938 11.382812 18.304688 11.660156 18.304688 L 12.15625 18.304688 C 12.429688 18.304688 12.652344 18.085938 12.652344 17.808594 L 12.652344 17.625 C 12.652344 17.898438 12.429688 18.121094 12.15625 18.121094 L 11.660156 18.121094 C 11.382812 18.121094 11.164062 17.898438 11.164062 17.625 Z M 11.164062 17.625 "/>
<path style="fill:none;stroke-width:3;stroke-linecap:round;stroke-linejoin:round;stroke:rgb(12.941177%,12.941177%,12.941177%);stroke-opacity:1;stroke-miterlimit:4;" d="M 248.726248 0.646073 C 242.810146 0.646073 238.143925 5.39562 238.143925 11.228396 L 238.143925 18.394379 C 230.811292 20.060886 224.061936 22.893949 217.812533 26.726916 L 212.813011 21.727394 C 210.729876 19.644259 208.063464 18.644355 205.397052 18.644355 C 202.647315 18.644355 199.980903 19.644259 197.897768 21.727394 L 190.398485 29.226678 C 186.232216 33.392946 186.232216 40.058976 190.398485 44.14192 L 195.398007 49.224768 C 191.56504 55.390846 188.731977 62.140201 187.065469 69.472834 L 179.899487 69.472834 C 174.066711 69.472834 169.317164 74.139055 169.317164 80.055157 L 169.317164 90.63748 C 169.317164 96.470256 174.066711 101.219803 179.899487 101.219803 L 187.065469 101.219803 C 188.731977 108.46911 191.56504 115.301791 195.398007 121.467869 L 190.398485 126.467391 C 186.232216 130.63366 186.232216 137.29969 190.398485 141.465959 L 197.897768 148.965243 C 201.980712 153.048186 208.730067 153.048186 212.813011 148.965243 L 217.812533 143.96572 C 224.061936 147.715362 230.811292 150.548425 238.143925 152.298258 L 238.143925 159.380915 C 238.143925 165.297017 242.810146 169.963238 248.726248 169.963238 L 259.308571 169.963238 C 265.141347 169.963238 269.890893 165.297017 269.890893 159.380915 L 269.890893 152.298258 C 277.140201 150.548425 283.972882 147.715362 290.13896 143.96572 L 295.138482 148.965243 C 299.304751 153.048186 305.970781 153.048186 310.13705 148.965243 L 317.636334 141.465959 C 321.719277 137.29969 321.719277 130.63366 317.636334 126.467391 L 312.636811 121.467869 C 316.386453 115.301791 319.219516 108.46911 320.969349 101.219803 L 328.052006 101.219803 C 333.968108 101.219803 338.634329 96.470256 338.634329 90.63748 L 338.634329 80.055157 C 338.634329 74.139055 333.968108 69.472834 328.052006 69.472834 L 320.969349 69.472834 C 319.219516 62.140201 316.386453 55.390846 312.636811 49.224768 L 317.636334 44.14192 C 321.719277 40.058976 321.719277 33.392946 317.636334 29.226678 L 310.13705 21.727394 C 308.053916 19.644259 305.387504 18.644355 302.637766 18.644355 C 299.971354 18.644355 297.221617 19.644259 295.138482 21.727394 L 290.13896 26.726916 C 283.972882 22.893949 277.140201 20.060886 269.890893 18.394379 L 269.890893 11.228396 C 269.890893 5.39562 265.141347 0.646073 259.308571 0.646073 Z M 253.975747 42.975365 C 277.473503 42.975365 296.305038 61.890225 296.305038 85.304656 C 296.305038 108.802412 277.473503 127.633947 253.975747 127.633947 C 230.561316 127.633947 211.646455 108.802412 211.646455 85.304656 C 211.646455 61.890225 230.561316 42.975365 253.975747 42.975365 Z M 253.975747 42.975365 " transform="matrix(0.0468795,0,0,0.0468795,0,10.079087)"/>
</g>
</svg>
