<svg xmlns="http://www.w3.org/2000/svg" width="32" height="32" viewBox="0 0 24 24"><defs><linearGradient id="a" gradientUnits="userSpaceOnUse" x1="254" y1="233.5" x2="254" y2="254.667" gradientTransform="matrix(.04688 0 0 .04688 9.923 10.08)"><stop offset="0" stop-opacity=".275"/><stop offset="1" stop-opacity="0"/></linearGradient><radialGradient id="b" gradientUnits="userSpaceOnUse" cx="450.909" cy="189.579" fx="450.909" fy="189.579" r="21.167" gradientTransform="matrix(0 -.0586 -.10548 0 41.083 47.696)"><stop offset="0" stop-opacity=".314"/><stop offset=".222" stop-opacity=".275"/><stop offset="1" stop-opacity="0"/></radialGradient><radialGradient id="c" gradientUnits="userSpaceOnUse" cx="450.909" cy="189.579" fx="450.909" fy="189.579" r="21.167" gradientTransform="matrix(0 .0586 .10548 0 -.895 -5.646)"><stop offset="0" stop-opacity=".314"/><stop offset=".222" stop-opacity=".275"/><stop offset="1" stop-opacity="0"/></radialGradient><radialGradient id="d" gradientUnits="userSpaceOnUse" cx="450.909" cy="189.579" fx="450.909" fy="189.579" r="21.167" gradientTransform="matrix(0 -.0586 .10548 0 -.895 47.696)"><stop offset="0" stop-opacity=".314"/><stop offset=".222" stop-opacity=".275"/><stop offset="1" stop-opacity="0"/></radialGradient><radialGradient id="e" gradientUnits="userSpaceOnUse" cx="450.909" cy="189.579" fx="450.909" fy="189.579" r="21.167" gradientTransform="matrix(0 .0586 -.10548 0 41.083 -5.646)"><stop offset="0" stop-opacity=".314"/><stop offset=".222" stop-opacity=".275"/><stop offset="1" stop-opacity="0"/></radialGradient><linearGradient id="f" gradientUnits="userSpaceOnUse" x1="254" y1="233.5" x2="254" y2="254.667" gradientTransform="matrix(.04688 0 0 .04688 -6.45 10.08)"><stop offset="0" stop-opacity=".275"/><stop offset="1" stop-opacity="0"/></linearGradient><radialGradient id="g" gradientUnits="userSpaceOnUse" cx="450.909" cy="189.579" fx="450.909" fy="189.579" r="21.167" gradientTransform="matrix(0 -.0586 -.10548 0 24.71 47.696)"><stop offset="0" stop-opacity=".314"/><stop offset=".222" stop-opacity=".275"/><stop offset="1" stop-opacity="0"/></radialGradient><radialGradient id="h" gradientUnits="userSpaceOnUse" cx="450.909" cy="189.579" fx="450.909" fy="189.579" r="21.167" gradientTransform="matrix(0 .0586 .10548 0 -17.268 -5.646)"><stop offset="0" stop-opacity=".314"/><stop offset=".222" stop-opacity=".275"/><stop offset="1" stop-opacity="0"/></radialGradient><radialGradient id="i" gradientUnits="userSpaceOnUse" cx="450.909" cy="189.579" fx="450.909" fy="189.579" r="21.167" gradientTransform="matrix(0 -.0586 .10548 0 -17.268 47.696)"><stop offset="0" stop-opacity=".314"/><stop offset=".222" stop-opacity=".275"/><stop offset="1" stop-opacity="0"/></radialGradient><radialGradient id="j" gradientUnits="userSpaceOnUse" cx="450.909" cy="189.579" fx="450.909" fy="189.579" r="21.167" gradientTransform="matrix(0 .0586 -.10548 0 24.71 -5.646)"><stop offset="0" stop-opacity=".314"/><stop offset=".222" stop-opacity=".275"/><stop offset="1" stop-opacity="0"/></radialGradient><linearGradient id="k" gradientUnits="userSpaceOnUse" x1="148.167" y1="21.833" x2="148.167" y2="-84" gradientTransform="matrix(.04688 0 0 .04688 -2.729 20.002)"><stop offset="0" stop-color="#689f38"/><stop offset="1" stop-color="#7cb342"/></linearGradient><linearGradient id="l" gradientUnits="userSpaceOnUse" x1="254" y1="233.5" x2="254" y2="254.667" gradientTransform="matrix(.04688 0 0 .04688 -.992 10.08)"><stop offset="0" stop-opacity=".275"/><stop offset="1" stop-opacity="0"/></linearGradient><radialGradient id="m" gradientUnits="userSpaceOnUse" cx="450.909" cy="189.579" fx="450.909" fy="189.579" r="21.167" gradientTransform="matrix(0 -.0586 -.10548 0 30.167 47.696)"><stop offset="0" stop-opacity=".314"/><stop offset=".222" stop-opacity=".275"/><stop offset="1" stop-opacity="0"/></radialGradient><radialGradient id="n" gradientUnits="userSpaceOnUse" cx="450.909" cy="189.579" fx="450.909" fy="189.579" r="21.167" gradientTransform="matrix(0 .0586 .10548 0 -11.81 -5.646)"><stop offset="0" stop-opacity=".314"/><stop offset=".222" stop-opacity=".275"/><stop offset="1" stop-opacity="0"/></radialGradient><radialGradient id="o" gradientUnits="userSpaceOnUse" cx="450.909" cy="189.579" fx="450.909" fy="189.579" r="21.167" gradientTransform="matrix(0 -.0586 .10548 0 -11.81 47.696)"><stop offset="0" stop-opacity=".314"/><stop offset=".222" stop-opacity=".275"/><stop offset="1" stop-opacity="0"/></radialGradient><radialGradient id="p" gradientUnits="userSpaceOnUse" cx="450.909" cy="189.579" fx="450.909" fy="189.579" r="21.167" gradientTransform="matrix(0 .0586 -.10548 0 30.167 -5.646)"><stop offset="0" stop-opacity=".314"/><stop offset=".222" stop-opacity=".275"/><stop offset="1" stop-opacity="0"/></radialGradient><linearGradient id="q" gradientUnits="userSpaceOnUse" x1="254" y1="233.5" x2="254" y2="254.667" gradientTransform="matrix(.04688 0 0 .04688 4.465 10.08)"><stop offset="0" stop-opacity=".275"/><stop offset="1" stop-opacity="0"/></linearGradient><radialGradient id="r" gradientUnits="userSpaceOnUse" cx="450.909" cy="189.579" fx="450.909" fy="189.579" r="21.167" gradientTransform="matrix(0 -.0586 -.10548 0 35.625 47.696)"><stop offset="0" stop-opacity=".314"/><stop offset=".222" stop-opacity=".275"/><stop offset="1" stop-opacity="0"/></radialGradient><radialGradient id="s" gradientUnits="userSpaceOnUse" cx="450.909" cy="189.579" fx="450.909" fy="189.579" r="21.167" gradientTransform="matrix(0 .0586 .10548 0 -6.353 -5.646)"><stop offset="0" stop-opacity=".314"/><stop offset=".222" stop-opacity=".275"/><stop offset="1" stop-opacity="0"/></radialGradient><radialGradient id="t" gradientUnits="userSpaceOnUse" cx="450.909" cy="189.579" fx="450.909" fy="189.579" r="21.167" gradientTransform="matrix(0 -.0586 .10548 0 -6.353 47.696)"><stop offset="0" stop-opacity=".314"/><stop offset=".222" stop-opacity=".275"/><stop offset="1" stop-opacity="0"/></radialGradient><radialGradient id="u" gradientUnits="userSpaceOnUse" cx="450.909" cy="189.579" fx="450.909" fy="189.579" r="21.167" gradientTransform="matrix(0 .0586 -.10548 0 35.625 -5.646)"><stop offset="0" stop-opacity=".314"/><stop offset=".222" stop-opacity=".275"/><stop offset="1" stop-opacity="0"/></radialGradient><linearGradient id="v" gradientUnits="userSpaceOnUse" x1="148.167" y1="21.833" x2="148.167" y2="-84" gradientTransform="matrix(.04688 0 0 .04688 2.729 20.002)"><stop offset="0" stop-color="#689f38"/><stop offset="1" stop-color="#7cb342"/></linearGradient><linearGradient id="w" gradientUnits="userSpaceOnUse" x1="148.167" y1="21.833" x2="148.167" y2="-84" gradientTransform="matrix(.04688 0 0 .04688 8.186 20.002)"><stop offset="0" stop-color="#689f38"/><stop offset="1" stop-color="#7cb342"/></linearGradient><linearGradient id="x" gradientUnits="userSpaceOnUse" x1="148.167" y1="21.833" x2="148.167" y2="-84" gradientTransform="matrix(.04688 0 0 .04688 13.644 20.002)"><stop offset="0" stop-color="#689f38"/><stop offset="1" stop-color="#7cb342"/></linearGradient><linearGradient id="y" gradientUnits="userSpaceOnUse" x1="148.167" y1="21.833" x2="148.167" y2="-84" gradientTransform="matrix(.04688 0 0 .04688 2.729 14.544)"><stop offset="0" stop-color="#689f38"/><stop offset="1" stop-color="#7cb342"/></linearGradient><linearGradient id="z" gradientUnits="userSpaceOnUse" x1="148.167" y1="21.833" x2="148.167" y2="-84" gradientTransform="matrix(.04688 0 0 .04688 13.644 6.11)"><stop offset="0" stop-color="#1976d2"/><stop offset="1" stop-color="#1e88e5"/></linearGradient><linearGradient id="A" gradientUnits="userSpaceOnUse" x1="148.167" y1="21.833" x2="148.167" y2="-84" gradientTransform="matrix(.04688 0 0 .04688 8.186 6.11)"><stop offset="0" stop-color="#1976d2"/><stop offset="1" stop-color="#1e88e5"/></linearGradient><linearGradient id="B" gradientUnits="userSpaceOnUse" x1="148.167" y1="21.833" x2="148.167" y2="-84" gradientTransform="matrix(.04688 0 0 .04688 2.729 6.11)"><stop offset="0" stop-color="#1976d2"/><stop offset="1" stop-color="#1e88e5"/></linearGradient><linearGradient id="C" gradientUnits="userSpaceOnUse" x1="148.167" y1="21.833" x2="148.167" y2="-84" gradientTransform="matrix(.04688 0 0 .04688 -2.729 6.11)"><stop offset="0" stop-color="#1976d2"/><stop offset="1" stop-color="#1e88e5"/></linearGradient><linearGradient id="D" gradientUnits="userSpaceOnUse" x1="148.167" y1="21.833" x2="148.167" y2="-84" gradientTransform="matrix(.04688 0 0 .04688 13.644 11.568)"><stop offset="0" stop-color="#1976d2"/><stop offset="1" stop-color="#1e88e5"/></linearGradient></defs><path d="M18.852 21.027h2.484v.993h-2.484zm0 0" fill="url(#a)"/><path d="M21.336 21.027h1.984v-.996h-1.984zm0 0" fill="url(#b)"/><path d="M18.852 21.027h-1.985v.993h1.985zm0 0" fill="url(#c)"/><path d="M18.852 21.027h-1.985v-.996h1.985zm0 0" fill="url(#d)"/><path d="M21.336 21.027h1.984v.993h-1.984zm0 0" fill="url(#e)"/><path d="M2.48 21.027h2.48v.993H2.48zm0 0" fill="url(#f)"/><path d="M4.96 21.027h1.985v-.996H4.961zm0 0" fill="url(#g)"/><path d="M2.48 21.027H.496v.993H2.48zm0 0" fill="url(#h)"/><path d="M2.48 21.027H.496v-.996H2.48zm0 0" fill="url(#i)"/><path d="M4.96 21.027h1.985v.993H4.961zm0 0" fill="url(#j)"/><path d="M2.234 16.063h2.977c.547 0 .992.445.992.992v2.976c0 .551-.445.996-.992.996H2.234a.992.992 0 0 1-.992-.996v-2.976c0-.547.442-.992.992-.992zm0 0" fill="url(#k)"/><path d="M2.234 16.063a.991.991 0 0 0-.992.992v.25c0-.551.442-.992.992-.992h2.977c.547 0 .992.44.992.992v-.25a.994.994 0 0 0-.992-.992zm0 0" fill="#fff" fill-opacity=".392"/><path d="M2.234 21.027a.992.992 0 0 1-.992-.996v-.246c0 .55.442.992.992.992h2.977a.991.991 0 0 0 .992-.992v.246c0 .551-.445.996-.992.996zm0 0" fill-opacity=".235"/><path d="M2.234 16.063h2.977c.547 0 .992.445.992.992v2.976c0 .551-.445.996-.992.996H2.234a.992.992 0 0 1-.992-.996v-2.976c0-.547.442-.992.992-.992zm0 0" fill="none" stroke-width=".14064" stroke-linecap="round" stroke="#212121"/><path d="M7.938 21.027h2.48v.993h-2.48zm0 0" fill="url(#l)"/><path d="M10.418 21.027h1.984v-.996h-1.984zm0 0" fill="url(#m)"/><path d="M7.938 21.027H5.952v.993h1.984zm0 0" fill="url(#n)"/><path d="M7.938 21.027H5.952v-.996h1.984zm0 0" fill="url(#o)"/><path d="M10.418 21.027h1.984v.993h-1.984zm0 0" fill="url(#p)"/><path d="M13.395 21.027h2.48v.993h-2.48zm0 0" fill="url(#q)"/><path d="M15.875 21.027h1.984v-.996h-1.984zm0 0" fill="url(#r)"/><path d="M13.395 21.027H11.41v.993h1.985zm0 0" fill="url(#s)"/><path d="M13.395 21.027H11.41v-.996h1.985zm0 0" fill="url(#t)"/><path d="M15.875 21.027h1.984v.993h-1.984zm0 0" fill="url(#u)"/><path d="M7.691 16.063h2.977c.547 0 .992.445.992.992v2.976c0 .551-.445.996-.992.996H7.691a.992.992 0 0 1-.992-.996v-2.976c0-.547.442-.992.992-.992zm0 0" fill="url(#v)"/><path d="M7.691 16.063a.991.991 0 0 0-.992.992v.25c0-.551.442-.992.992-.992h2.977c.547 0 .992.44.992.992v-.25a.994.994 0 0 0-.992-.992zm0 0" fill="#fff" fill-opacity=".392"/><path d="M7.691 21.027a.992.992 0 0 1-.992-.996v-.246c0 .55.442.992.992.992h2.977a.991.991 0 0 0 .992-.992v.246c0 .551-.445.996-.992.996zm0 0" fill-opacity=".235"/><path d="M7.691 16.063h2.977c.547 0 .992.445.992.992v2.976c0 .551-.445.996-.992.996H7.691a.992.992 0 0 1-.992-.996v-2.976c0-.547.442-.992.992-.992zm0 0" fill="none" stroke-width=".14064" stroke-linecap="round" stroke="#212121"/><path d="M13.148 16.063h2.977c.547 0 .992.445.992.992v2.976c0 .551-.445.996-.992.996h-2.977a.994.994 0 0 1-.992-.996v-2.976c0-.547.446-.992.992-.992zm0 0" fill="url(#w)"/><path d="M13.148 16.063a.991.991 0 0 0-.992.992v.25c0-.551.442-.992.992-.992h2.977c.55 0 .992.44.992.992v-.25a.991.991 0 0 0-.992-.992zm0 0" fill="#fff" fill-opacity=".392"/><path d="M13.148 21.027a.992.992 0 0 1-.992-.996v-.246c0 .55.442.992.992.992h2.977c.55 0 .992-.441.992-.992v.246c0 .551-.441.996-.992.996zm0 0" fill-opacity=".235"/><path d="M13.148 16.063h2.977c.547 0 .992.445.992.992v2.976c0 .551-.445.996-.992.996h-2.977a.994.994 0 0 1-.992-.996v-2.976c0-.547.446-.992.992-.992zm0 0" fill="none" stroke-width=".14064" stroke-linecap="round" stroke="#212121"/><path d="M18.605 16.063h2.977c.547 0 .992.445.992.992v2.976c0 .551-.445.996-.992.996h-2.977a.994.994 0 0 1-.992-.996v-2.976c0-.547.446-.992.992-.992zm0 0" fill="url(#x)"/><path d="M18.605 16.063a.991.991 0 0 0-.992.992v.25c0-.551.442-.992.992-.992h2.977c.55 0 .992.44.992.992v-.25a.991.991 0 0 0-.992-.992zm0 0" fill="#fff" fill-opacity=".392"/><path d="M18.605 21.027a.992.992 0 0 1-.992-.996v-.246c0 .55.442.992.992.992h2.977c.55 0 .992-.441.992-.992v.246c0 .551-.441.996-.992.996zm0 0" fill-opacity=".235"/><path d="M18.605 16.063h2.977c.547 0 .992.445.992.992v2.976c0 .551-.445.996-.992.996h-2.977a.994.994 0 0 1-.992-.996v-2.976c0-.547.446-.992.992-.992zm0 0" fill="none" stroke-width=".14064" stroke-linecap="round" stroke="#212121"/><path d="M7.691 10.605h2.977c.547 0 .992.446.992.993v2.976c0 .551-.445.992-.992.992H7.691a.989.989 0 0 1-.992-.992v-2.976c0-.547.442-.993.992-.993zm0 0" fill="url(#y)"/><path d="M7.691 10.605a.991.991 0 0 0-.992.993v.25c0-.551.442-.993.992-.993h2.977c.547 0 .992.442.992.993v-.25a.994.994 0 0 0-.992-.993zm0 0" fill="#fff" fill-opacity=".392"/><path d="M7.691 15.566a.989.989 0 0 1-.992-.992v-.246c0 .55.442.992.992.992h2.977a.991.991 0 0 0 .992-.992v.246c0 .551-.445.992-.992.992zm0 0" fill-opacity=".235"/><path d="M7.691 10.605h2.977c.547 0 .992.446.992.993v2.976c0 .551-.445.992-.992.992H7.691a.989.989 0 0 1-.992-.992v-2.976c0-.547.442-.993.992-.993zm0 0" fill="none" stroke-width=".14064" stroke-linecap="round" stroke="#212121"/><path d="M18.605 2.172h2.977c.547 0 .992.445.992.992v2.977a.994.994 0 0 1-.992.992h-2.977a.994.994 0 0 1-.992-.992V3.164c0-.547.446-.992.992-.992zm0 0" fill="url(#z)"/><path d="M18.605 2.172a.989.989 0 0 0-.992.992v.25c0-.55.442-.992.992-.992h2.977c.55 0 .992.441.992.992v-.25a.989.989 0 0 0-.992-.992zm0 0" fill="#fff" fill-opacity=".392"/><path d="M18.605 7.133a.989.989 0 0 1-.992-.992v-.246c0 .546.442.992.992.992h2.977c.55 0 .992-.446.992-.992v.246c0 .55-.441.992-.992.992zm0 0" fill-opacity=".235"/><path d="M18.605 2.172h2.977c.547 0 .992.445.992.992v2.977a.994.994 0 0 1-.992.992h-2.977a.994.994 0 0 1-.992-.992V3.164c0-.547.446-.992.992-.992zm0 0" fill="none" stroke-width=".14064" stroke-linecap="round" stroke="#212121"/><path d="M13.148 2.172h2.977c.547 0 .992.445.992.992v2.977a.994.994 0 0 1-.992.992h-2.977a.994.994 0 0 1-.992-.992V3.164c0-.547.446-.992.992-.992zm0 0" fill="url(#A)"/><path d="M13.148 2.172a.989.989 0 0 0-.992.992v.25c0-.55.442-.992.992-.992h2.977c.55 0 .992.441.992.992v-.25a.989.989 0 0 0-.992-.992zm0 0" fill="#fff" fill-opacity=".392"/><path d="M13.148 7.133a.989.989 0 0 1-.992-.992v-.246c0 .546.442.992.992.992h2.977c.55 0 .992-.446.992-.992v.246c0 .55-.441.992-.992.992zm0 0" fill-opacity=".235"/><path d="M13.148 2.172h2.977c.547 0 .992.445.992.992v2.977a.994.994 0 0 1-.992.992h-2.977a.994.994 0 0 1-.992-.992V3.164c0-.547.446-.992.992-.992zm0 0" fill="none" stroke-width=".14064" stroke-linecap="round" stroke="#212121"/><path d="M7.691 2.172h2.977c.547 0 .992.445.992.992v2.977a.994.994 0 0 1-.992.992H7.691A.991.991 0 0 1 6.7 6.14V3.164c0-.547.442-.992.992-.992zm0 0" fill="url(#B)"/><path d="M7.691 2.172a.989.989 0 0 0-.992.992v.25c0-.55.442-.992.992-.992h2.977c.547 0 .992.441.992.992v-.25a.991.991 0 0 0-.992-.992zm0 0" fill="#fff" fill-opacity=".392"/><path d="M7.691 7.133A.989.989 0 0 1 6.7 6.14v-.246c0 .546.442.992.992.992h2.977a.994.994 0 0 0 .992-.992v.246c0 .55-.445.992-.992.992zm0 0" fill-opacity=".235"/><path d="M7.691 2.172h2.977c.547 0 .992.445.992.992v2.977a.994.994 0 0 1-.992.992H7.691A.991.991 0 0 1 6.7 6.14V3.164c0-.547.442-.992.992-.992zm0 0" fill="none" stroke-width=".14064" stroke-linecap="round" stroke="#212121"/><path d="M2.234 2.172h2.977c.547 0 .992.445.992.992v2.977a.994.994 0 0 1-.992.992H2.234a.991.991 0 0 1-.992-.992V3.164c0-.547.442-.992.992-.992zm0 0" fill="url(#C)"/><path d="M2.234 2.172a.989.989 0 0 0-.992.992v.25c0-.55.442-.992.992-.992h2.977c.547 0 .992.441.992.992v-.25a.991.991 0 0 0-.992-.992zm0 0" fill="#fff" fill-opacity=".392"/><path d="M2.234 7.133a.989.989 0 0 1-.992-.992v-.246c0 .546.442.992.992.992h2.977a.994.994 0 0 0 .992-.992v.246c0 .55-.445.992-.992.992zm0 0" fill-opacity=".235"/><path d="M2.234 2.172h2.977c.547 0 .992.445.992.992v2.977a.994.994 0 0 1-.992.992H2.234a.991.991 0 0 1-.992-.992V3.164c0-.547.442-.992.992-.992zm0 0" fill="none" stroke-width=".14064" stroke-linecap="round" stroke="#212121"/><path d="M18.605 7.629h2.977c.547 0 .992.445.992.992v2.977c0 .55-.445.992-.992.992h-2.977a.991.991 0 0 1-.992-.992V8.62c0-.547.446-.992.992-.992zm0 0" fill="url(#D)"/><path d="M18.605 7.629a.989.989 0 0 0-.992.992v.25c0-.55.442-.992.992-.992h2.977c.55 0 .992.441.992.992v-.25a.989.989 0 0 0-.992-.992zm0 0" fill="#fff" fill-opacity=".392"/><path d="M18.605 12.59a.989.989 0 0 1-.992-.992v-.246c0 .55.442.992.992.992h2.977c.55 0 .992-.442.992-.992v.246c0 .55-.441.992-.992.992zm0 0" fill-opacity=".235"/><path d="M18.605 7.629h2.977c.547 0 .992.445.992.992v2.977c0 .55-.445.992-.992.992h-2.977a.991.991 0 0 1-.992-.992V8.62c0-.547.446-.992.992-.992zm0 0" fill="none" stroke-width=".14064" stroke-linecap="round" stroke="#212121"/></svg>