<svg height="32" viewBox="0 0 24 24" width="32" xmlns="http://www.w3.org/2000/svg" xmlns:xlink="http://www.w3.org/1999/xlink"><linearGradient id="a" gradientUnits="userSpaceOnUse" x1="12.15552" x2="12.15552" y1="21.02648" y2="22.01878896"><stop offset="0" stop-opacity=".275"/><stop offset="1" stop-opacity="0"/></linearGradient><linearGradient id="b"><stop offset="0" stop-opacity=".314"/><stop offset=".222" stop-opacity=".275"/><stop offset="1" stop-opacity="0"/></linearGradient><radialGradient id="c" cx="450.909" cy="189.579" gradientTransform="matrix(0 -.0586 -.10548 0 37.61 47.696)" gradientUnits="userSpaceOnUse" r="21.167" xlink:href="#b"/><radialGradient id="d" cx="450.909" cy="189.579" gradientTransform="matrix(0 .0586 .10548 0 -2.88 -5.646)" gradientUnits="userSpaceOnUse" r="21.167" xlink:href="#b"/><radialGradient id="e" cx="450.909" cy="189.579" gradientTransform="matrix(0 -.0586 .10548 0 -2.88 47.696)" gradientUnits="userSpaceOnUse" r="21.167" xlink:href="#b"/><radialGradient id="f" cx="450.909" cy="189.579" gradientTransform="matrix(0 .0586 -.10548 0 37.61 -5.646)" gradientUnits="userSpaceOnUse" r="21.167" xlink:href="#b"/><linearGradient id="g" gradientTransform="matrix(.00876812 -.00876812 .00876812 .00876812 -6.203641 16.713442)" gradientUnits="userSpaceOnUse" x1="1102.303" x2="1611.42" y1="1593.402" y2="1084.285"><stop offset="0" stop-color="#ff7043"/><stop offset="1" stop-color="#ff8a65"/></linearGradient><linearGradient id="h" gradientUnits="userSpaceOnUse" x1="8.93064" x2="8.93064" y1="17.05729104" y2="2.17289104"><stop offset="0" stop-color="#42a5f5"/><stop offset="1" stop-color="#64b5f6"/></linearGradient><path d="m16.867 21.027h.992v.993h-.992zm0 0" fill="url(#a)"/><path d="m17.86 21.027h1.984v-.996h-1.985zm0 0" fill="url(#c)"/><path d="m16.867 21.027h-1.984v.993h1.984zm0 0" fill="url(#d)"/><path d="m16.867 21.027h-1.984v-.996h1.984zm0 0" fill="url(#e)"/><path d="m17.86 21.027h1.984v.993h-1.985zm0 0" fill="url(#f)"/><path d="m17.547 12.148a4.452 4.452 0 0 0 -3.16 1.313l-.7-.703-.527 2.633c-.176.875-.176.875.703.699l2.63-.527-.7-.7a2.473 2.473 0 0 1 3.824.387l1.418-1.422a4.857 4.857 0 0 0 -.332-.367 4.45 4.45 0 0 0 -3.156-1.313zm4.156 4.786c-.125 0-.312.039-.586.093l-2.633.524.703.703a2.473 2.473 0 0 1 -3.824-.387l-1.422 1.422c.106.125.215.25.332.367a4.456 4.456 0 0 0 6.317 0l.703.703.523-2.632c.122-.602.16-.79-.113-.793zm0 0" fill="#fff" fill-opacity=".392"/><path d="m17.547 12.148a4.452 4.452 0 0 0 -3.16 1.313l-.7-.703-.527 2.633c-.176.875-.176.875.703.699l2.63-.527-.7-.7a2.473 2.473 0 0 1 3.824.387l1.418-1.422a4.857 4.857 0 0 0 -.332-.367 4.45 4.45 0 0 0 -3.156-1.313zm4.156 4.786c-.125 0-.312.039-.586.093l-2.633.524.703.703a2.473 2.473 0 0 1 -3.824-.387l-1.422 1.422c.106.125.215.25.332.367a4.456 4.456 0 0 0 6.317 0l.703.703.523-2.632c.122-.602.16-.79-.113-.793zm0 0" fill="url(#g)"/><path d="m17.547 12.148a4.452 4.452 0 0 0 -3.16 1.313l-.7-.703-.527 2.633c-.066.34-.11.546-.082.664.012-.117.043-.27.082-.47l.527-2.632.7.703a4.452 4.452 0 0 1 3.16-1.312 4.45 4.45 0 0 1 3.398 1.574l.09-.09a4.857 4.857 0 0 0 -.332-.367 4.45 4.45 0 0 0 -3.156-1.313zm-1.656 2.817a1.084 1.084 0 0 0 -.098.094l.535.539.164-.036zm5.812 1.969c-.125 0-.312.039-.586.093l-2.633.524.164.164 2.47-.492c.273-.055.46-.094.585-.094.117.004.18.039.2.129.027-.238-.016-.32-.2-.324zm-6.34.933-1.422 1.422c.032.035.059.07.09.106l1.332-1.332c.09.136.196.265.317.386a2.473 2.473 0 0 0 3.508 0l-.102-.101a2.471 2.471 0 0 1 -3.723-.48zm0 0" fill="#fff" fill-opacity=".392"/><path d="m21 13.785-1.383 1.383a2.473 2.473 0 0 0 -3.824-.387l.039.043a2.476 2.476 0 0 1 3.785.426l1.418-1.422zm-4.574 1.711-2.563.512c-.578.117-.773.156-.793-.078-.02.324.157.289.793.16l2.63-.527zm5.48 1.61c-.004.124-.039.3-.09.539l-.523 2.632-.703-.703a4.456 4.456 0 0 1 -6.61-.324l-.039.04c.106.124.215.25.332.366a4.456 4.456 0 0 0 6.317 0l.703.703.523-2.632c.063-.301.102-.497.09-.622zm-3.351.433-.07.012.66.66a.389.389 0 0 0 .043-.04zm0 0" fill-opacity=".235"/><path d="m17.547 12.078c-1.14 0-2.277.43-3.156 1.281l-.657-.652a.068.068 0 0 0 -.066-.016c-.027.008-.047.028-.05.051l-.528 2.633a5.53 5.53 0 0 0 -.086.512c-.012.129-.008.23.062.297.07.07.172.078.297.066.13-.012.293-.047.512-.09l2.633-.527c.023-.004.047-.024.05-.047.008-.027.005-.055-.015-.07l-.652-.653a2.405 2.405 0 0 1 3.359.051c.117.113.219.242.309.375a.061.061 0 0 0 .05.027.057.057 0 0 0 .055-.02l1.422-1.417a.071.071 0 0 0 .004-.094 4.537 4.537 0 0 0 -3.543-1.707zm0 .14a4.381 4.381 0 0 1 3.39 1.606l-1.312 1.317a2.542 2.542 0 0 0 -3.883-.328.073.073 0 0 0 0 .101l.61.606-2.504.503a6.435 6.435 0 0 1 -.496.086c-.114.008-.168-.004-.184-.023-.02-.02-.035-.074-.027-.188.011-.113.043-.277.09-.496l.5-2.504.609.61c.027.027.07.027.098 0a4.39 4.39 0 0 1 3.109-1.29zm4.156 4.645c-.14 0-.328.04-.601.094l-2.63.527a.068.068 0 0 0 -.054.047c-.008.028 0 .051.016.07l.652.653a2.405 2.405 0 0 1 -3.664-.426.087.087 0 0 0 -.05-.031.08.08 0 0 0 -.06.023l-1.417 1.418c-.028.024-.028.067-.008.094.105.129.218.254.34.375a4.527 4.527 0 0 0 6.363.047l.652.656c.02.016.043.024.07.016a.068.068 0 0 0 .047-.055l.528-2.629c.058-.3.101-.5.09-.64a.24.24 0 0 0 -.079-.18.291.291 0 0 0 -.195-.059zm0 .14c.059 0 .09.013.106.024.015.012.023.032.027.082.012.106-.027.305-.086.606l-.5 2.5-.61-.606a.073.073 0 0 0 -.1 0 4.383 4.383 0 0 1 -6.5-.316l1.312-1.316a2.549 2.549 0 0 0 3.883.328.067.067 0 0 0 0-.102l-.606-.61 2.5-.5c.273-.054.465-.09.574-.09zm0 0" fill="#212121"/><path d="m2.973 2.176a.991.991 0 0 0 -.985.988v12.899c0 .75.801 1.226 1.457.87l11.91-6.449a.99.99 0 0 0 0-1.738l-11.91-6.45a.989.989 0 0 0 -.472-.12zm0 0" fill="url(#h)"/><path d="m2.973 2.176a.991.991 0 0 0 -.985.988v.242c0-.543.442-.984.985-.984a.943.943 0 0 1 .472.117l11.91 6.45c.301.163.473.448.508.745a.973.973 0 0 0 -.508-.988l-11.91-6.45a.989.989 0 0 0 -.472-.12zm0 0" fill="#fff" fill-opacity=".392"/><path d="m2.973 17.055a.985.985 0 0 1 -.985-.985v-.246a.986.986 0 0 0 1.457.871l11.91-6.453a.97.97 0 0 0 .508-.746.981.981 0 0 1 -.508.992l-11.91 6.45a.943.943 0 0 1 -.472.117zm0 0" fill-opacity=".235"/><path d="m2.973 2.105a1.061 1.061 0 0 0 -1.055 1.06v12.898c0 .8.86 1.312 1.562.933l11.907-6.453a1.057 1.057 0 0 0 0-1.86l-11.907-6.448a1.055 1.055 0 0 0 -.507-.129zm0 .141c.156 0 .304.04.441.113l11.906 6.451a.915.915 0 0 1 0 1.613l-11.906 6.45a.917.917 0 0 1 -1.355-.81v-12.898c0-.504.41-.914.914-.918zm0 0" fill="#212121"/></svg>