<svg height="32" viewBox="0 0 24 24" width="32" xmlns="http://www.w3.org/2000/svg" xmlns:xlink="http://www.w3.org/1999/xlink"><linearGradient id="a"><stop offset="0" stop-opacity=".314"/><stop offset=".222" stop-opacity=".275"/><stop offset="1" stop-opacity="0"/></linearGradient><radialGradient id="b" cx="450.909" cy="189.579" gradientTransform="matrix(0 -.0586 -.07032 0 26.23 47.696)" gradientUnits="userSpaceOnUse" r="21.167" xlink:href="#a"/><radialGradient id="c" cx="450.909" cy="189.579" gradientTransform="matrix(0 .0586 .07032 0 -2.416 -5.646)" gradientUnits="userSpaceOnUse" r="21.167" xlink:href="#a"/><radialGradient id="d" cx="450.909" cy="189.579" gradientTransform="matrix(0 -.0586 .07032 0 -2.416 47.696)" gradientUnits="userSpaceOnUse" r="21.167" xlink:href="#a"/><radialGradient id="e" cx="450.909" cy="189.579" gradientTransform="matrix(0 .0586 -.07032 0 26.23 -5.646)" gradientUnits="userSpaceOnUse" r="21.167" xlink:href="#a"/><linearGradient id="f" gradientTransform="matrix(.00668 0 0 .04688 10.202 10.08)" gradientUnits="userSpaceOnUse" x1="255.323" x2="255.323" y1="233.5" y2="254.667"><stop offset="0" stop-opacity=".275"/><stop offset="1" stop-opacity="0"/></linearGradient><linearGradient id="g"><stop offset="0" stop-color="#757575"/><stop offset="1" stop-color="#bdbdbd"/></linearGradient><linearGradient id="h" gradientUnits="userSpaceOnUse" x1="11.90752" x2="11.90752" xlink:href="#g" y1="21.02648" y2="18.0496"/><linearGradient id="i"><stop offset="0" stop-color="#66bb6a"/><stop offset="1" stop-color="#81c784"/></linearGradient><linearGradient id="j" gradientUnits="userSpaceOnUse" x1="3.96918896" x2="3.96918896" xlink:href="#i" y1="21.02648" y2="2.17289104"/><linearGradient id="k" gradientUnits="userSpaceOnUse" x1="4.46532" x2="4.46532" xlink:href="#g" y1="21.02648" y2="16.06502896"/><linearGradient id="l" gradientUnits="userSpaceOnUse" x1="5.45762896" x2="5.45762896" xlink:href="#g" y1="12.59197104" y2="9.11896"/><linearGradient id="m" gradientTransform="matrix(-.04688 0 0 .04688 23.681 10.08)" gradientUnits="userSpaceOnUse" x1="84.667" x2="84.667" xlink:href="#i" y1="233.5" y2="-168.667"/><linearGradient id="n" gradientTransform="matrix(-.04688 0 0 .04688 23.681 10.08)" gradientUnits="userSpaceOnUse" x1="95.25" x2="95.25" xlink:href="#g" y1="233.5" y2="127.667"/><linearGradient id="o" gradientUnits="userSpaceOnUse" x1="18.35762896" x2="18.35762896" xlink:href="#g" y1="12.59197104" y2="9.11896"/><linearGradient id="p" gradientUnits="userSpaceOnUse" x1="11.904" x2="11.904" xlink:href="#i" y1="20.0274632" y2="2.1714632"/><linearGradient id="q" gradientUnits="userSpaceOnUse" x1="11.90752" x2="11.90752" y1="12.59197104" y2="7.63052"><stop offset="0" stop-color="#bdbdbd"/><stop offset="1" stop-color="#e0e0e0"/></linearGradient><linearGradient id="r" gradientUnits="userSpaceOnUse" x1="11.906" x2="11.906" y1="12.755825" y2="7.4641625"><stop offset="0" stop-color="#81c784"/><stop offset="1" stop-color="#a5d6a7"/></linearGradient><linearGradient id="s" gradientUnits="userSpaceOnUse" x1="11.9065" x2="11.9065" y1="11.4334125" y2="8.78758125"><stop offset="0" stop-color="#4caf50"/><stop offset="1" stop-color="#66bb6a"/></linearGradient><path d="m13.066 21.027h1.32v-.996h-1.32zm0 0" fill="url(#b)"/><path d="m10.75 21.027h-1.324v.993h1.324zm0 0" fill="url(#c)"/><path d="m10.75 21.027h-1.324v-.996h1.324zm0 0" fill="url(#d)"/><path d="m13.066 21.027h1.32v.993h-1.32zm0 0" fill="url(#e)"/><path d="m10.75 20.777h2.316v1.243h-2.316zm0 0" fill="url(#f)"/><path d="m11.906 18.047c1.371 0 2.48.668 2.48 1.488 0 .824-1.109 1.492-2.48 1.492-1.367 0-2.48-.668-2.48-1.492 0-.82 1.113-1.488 2.48-1.488zm0 0" fill="url(#h)"/><path d="m9.434 19.414a1.26 1.26 0 0 0 -.008.121c0 .828 1.105 1.492 2.48 1.492s2.48-.664 2.48-1.492c0-.039 0-.082-.007-.12-.106.765-1.168 1.362-2.473 1.362-1.304 0-2.367-.597-2.472-1.363zm0 0" fill-opacity=".235"/><path d="m9.445 18.668c-.011.062-.02.125-.02.187 0 .825 1.106 1.489 2.481 1.489s2.48-.664 2.48-1.489a.765.765 0 0 0 -.019-.187c-.148.738-1.191 1.305-2.46 1.305-1.27 0-2.31-.567-2.462-1.305zm0 0" fill-opacity=".235"/><path d="m11.906 18.047c1.371 0 2.48.668 2.48 1.488 0 .824-1.109 1.492-2.48 1.492-1.367 0-2.48-.668-2.48-1.492 0-.82 1.113-1.488 2.48-1.488zm0 0" fill="none" stroke="#212121" stroke-linecap="round" stroke-linejoin="round" stroke-width=".14064"/><path d="m4.96 10.105c-.92 0-1.718.36-2.241.934-.528.578-.785 1.328-.86 2.102-.148 1.546.403 3.265 1.582 4.445a.748.748 0 1 0 1.059-1.059c-.805-.804-1.25-2.187-1.148-3.246.05-.527.222-.957.472-1.234.25-.274.57-.445 1.137-.445a.746.746 0 0 0 .656-1.125.754.754 0 0 0 -.656-.372zm0 0" fill="url(#j)"/><path d="m4.96 10.105c-.92 0-1.718.36-2.241.934-.528.578-.785 1.328-.86 2.102a5.036 5.036 0 0 0 -.02.687c.005-.105.009-.207.02-.312.075-.774.332-1.52.86-2.098.523-.578 1.32-.934 2.242-.934a.75.75 0 0 1 .734.559.744.744 0 0 0 -.136-.648.746.746 0 0 0 -.598-.29zm-1.62 3.676c-.055 1.04.383 2.348 1.16 3.121a.78.78 0 0 1 .203.352.757.757 0 0 0 -.203-.727c-.684-.683-1.11-1.78-1.16-2.746zm0 0" fill="#fff" fill-opacity=".392"/><path d="m5.703 10.7a.75.75 0 0 1 -.742.593c-.566 0-.887.172-1.137.445-.25.274-.422.703-.472 1.235-.016.148-.02.304-.012.464.004-.054.004-.105.012-.156.05-.527.222-.957.472-1.234.25-.274.57-.445 1.137-.445a.75.75 0 0 0 .59-.274c.14-.176.199-.406.152-.629zm-3.863 2.783c-.043 1.454.508 3.008 1.601 4.102a.74.74 0 0 0 .887.137.752.752 0 0 0 .383-.813.756.756 0 0 1 -.527.563.746.746 0 0 1 -.743-.196c-1.015-1.015-1.562-2.433-1.601-3.793zm0 0" fill-opacity=".235"/><path d="m4.96 10.105c-.92 0-1.718.36-2.241.934-.528.578-.785 1.328-.86 2.102-.148 1.547.403 3.265 1.582 4.445a.748.748 0 1 0 1.059-1.059c-.805-.804-1.25-2.187-1.148-3.246.05-.527.222-.957.472-1.234.25-.274.57-.445 1.137-.445a.746.746 0 0 0 .656-1.125.754.754 0 0 0 -.656-.372zm0 0" fill="none" stroke="#212121" stroke-linecap="round" stroke-linejoin="round" stroke-width=".14064"/><path d="m3.473 16.559c-.754.437-1.016 1.293-.93 2.058.086.766.547 1.563 1.39 1.926a.75.75 0 1 0 .59-1.379c-.296-.125-.457-.402-.492-.71-.035-.313.086-.536.192-.599.105-.058.355-.05.609.133.25.188.41.465.371.782a.747.747 0 0 0 .293.695c.215.164.5.2.746.09a.744.744 0 0 0 .45-.606c.109-.91-.352-1.707-.973-2.164s-1.492-.66-2.246-.226zm0 0" fill="url(#k)"/><path d="m4.387 16.32a1.778 1.778 0 0 0 -.914.239c-.711.414-.985 1.199-.942 1.933.043-.637.328-1.27.942-1.62.754-.438 1.625-.235 2.246.222.523.386.933 1.008.984 1.742.059-.863-.39-1.613-.984-2.05-.38-.282-.848-.466-1.332-.466zm-.348 2.18a1.137 1.137 0 0 0 -.008.262c.035.308.196.586.492.715a.75.75 0 0 1 .45.535.751.751 0 0 0 -.45-.848c-.28-.117-.437-.371-.484-.664zm1.16.355c-.004.051 0 .098.012.145a.866.866 0 0 0 -.012-.145zm0 0" fill="#fff" fill-opacity=".392"/><path d="m4.375 17.574a.325.325 0 0 0 -.152.035c-.106.063-.227.286-.192.594 0 .008.004.012.004.02.027-.192.11-.32.188-.368.105-.058.355-.05.609.133a.888.888 0 0 1 .367.575c.004-.012.004-.028.004-.04.04-.32-.121-.597-.371-.78a.797.797 0 0 0 -.457-.169zm-1.844.64c-.008.138-.004.27.012.403.086.766.547 1.563 1.39 1.926.255.11.547.074.762-.094a.742.742 0 0 0 .282-.715.754.754 0 0 1 -.383.536.754.754 0 0 1 -.66.023c-.844-.36-1.305-1.156-1.391-1.922l-.012-.156zm4.172.34-.012.15a.748.748 0 0 1 -1.484.034c0 .012-.004.024-.004.032a.757.757 0 0 0 .293.699c.215.16.5.195.746.09.25-.11.418-.34.45-.61.015-.133.019-.265.011-.394zm0 0" fill-opacity=".235"/><path d="m3.473 16.559c-.754.437-1.016 1.293-.93 2.058.086.766.547 1.563 1.39 1.926a.75.75 0 1 0 .59-1.379c-.296-.125-.457-.402-.492-.71-.035-.313.086-.536.192-.599.105-.058.355-.05.609.133.25.188.41.465.371.782a.747.747 0 0 0 .293.695c.215.164.5.2.746.09a.744.744 0 0 0 .45-.606c.109-.91-.352-1.707-.973-2.164s-1.492-.66-2.246-.226zm0 0" fill="none" stroke="#212121" stroke-linecap="round" stroke-linejoin="round" stroke-width=".14064"/><path d="m5.457 9.117c.547 0 .992.445.992.992v1.489a.991.991 0 1 1 -1.984 0v-1.489c0-.546.445-.992.992-.992zm0 0" fill="url(#l)"/><path d="m5.457 9.117a.991.991 0 0 0 -.992.992v.375a.992.992 0 1 1 1.984 0v-.375a.991.991 0 0 0 -.992-.992zm0 0" fill="#fff" fill-opacity=".392"/><path d="m5.457 12.59a.989.989 0 0 1 -.992-.992v-.371c0 .55.441.992.992.992.55 0 .992-.442.992-.992v.37c0 .551-.441.993-.992.993zm0 0" fill-opacity=".235"/><path d="m5.457 9.117c.547 0 .992.445.992.992v1.489a.991.991 0 1 1 -1.984 0v-1.489c0-.547.445-.992.992-.992zm0 0" fill="none" stroke="#212121" stroke-linecap="round" stroke-linejoin="round" stroke-width=".14064"/><path d="m18.719 10.105c.922 0 1.718.36 2.246.934.523.578.785 1.328.855 2.102.149 1.546-.398 3.265-1.578 4.445a.748.748 0 1 1 -1.058-1.059c.804-.804 1.25-2.187 1.148-3.246-.05-.527-.227-.957-.477-1.234-.25-.274-.566-.445-1.136-.445a.746.746 0 0 1 -.657-1.125.754.754 0 0 1 .657-.372zm0 0" fill="url(#m)"/><path d="m18.719 10.105c.922 0 1.718.36 2.246.934.523.578.785 1.328.855 2.102.024.226.032.457.024.687a4.203 4.203 0 0 0 -.024-.312c-.07-.774-.332-1.52-.855-2.098-.527-.578-1.324-.934-2.246-.934a.745.745 0 0 0 -.73.559.742.742 0 0 1 .132-.648.751.751 0 0 1 .598-.29zm1.62 3.676c.06 1.04-.382 2.348-1.155 3.121a.78.78 0 0 0 -.204.352.74.74 0 0 1 .204-.727c.683-.683 1.105-1.78 1.156-2.746zm0 0" fill="#fff" fill-opacity=".392"/><path d="m17.98 10.7c.07.347.383.597.739.593.57 0 .886.172 1.136.445.25.274.426.703.477 1.235.012.148.016.304.008.464 0-.054-.004-.105-.008-.156-.05-.527-.227-.957-.477-1.234-.25-.274-.566-.445-1.136-.445a.745.745 0 0 1 -.738-.902zm3.864 2.784c.043 1.454-.508 3.008-1.602 4.102a.747.747 0 0 1 -.89.137.744.744 0 0 1 -.38-.813.75.75 0 0 0 1.27.367c1.016-1.015 1.563-2.433 1.602-3.793zm0 0" fill-opacity=".235"/><path d="m18.719 10.105c.922 0 1.718.36 2.246.934.523.578.785 1.328.855 2.102.149 1.547-.398 3.265-1.578 4.445a.748.748 0 1 1 -1.058-1.059c.804-.804 1.25-2.187 1.148-3.246-.05-.527-.227-.957-.477-1.234-.25-.274-.566-.445-1.136-.445a.746.746 0 0 1 -.657-1.125.754.754 0 0 1 .657-.372zm0 0" fill="none" stroke="#212121" stroke-linecap="round" stroke-linejoin="round" stroke-width=".14064"/><path d="m20.207 16.559c.754.437 1.016 1.293.93 2.058-.086.766-.543 1.563-1.39 1.926a.748.748 0 1 1 -.586-1.379c.292-.125.452-.402.487-.71.036-.313-.082-.536-.187-.599-.106-.058-.36-.05-.61.133-.253.188-.413.465-.374.782a.744.744 0 0 1 -.29.695c-.214.164-.5.2-.75.09a.74.74 0 0 1 -.445-.606c-.113-.91.348-1.707.969-2.164s1.492-.66 2.246-.226zm0 0" fill="url(#n)"/><path d="m19.293 16.32c.309-.004.621.07.914.239.715.414.984 1.199.941 1.933-.039-.637-.328-1.27-.941-1.62-.754-.438-1.625-.235-2.246.222-.52.386-.93 1.008-.98 1.742-.063-.863.386-1.613.98-2.05.379-.282.852-.466 1.332-.466zm.348 2.18c.015.078.02.164.007.262-.035.308-.195.586-.488.715a.742.742 0 0 0 -.45.535.747.747 0 0 1 .45-.848c.277-.117.438-.371.48-.664zm-1.157.355c0 .051-.004.098-.011.145 0-.05.004-.098.011-.145zm0 0" fill="#fff" fill-opacity=".392"/><path d="m19.305 17.574c.066 0 .117.016.156.035.105.063.223.286.187.594v.02c-.027-.192-.113-.32-.187-.368-.106-.058-.36-.05-.61.133a.894.894 0 0 0 -.37.575c0-.012 0-.028-.004-.04-.04-.32.12-.597.375-.78a.786.786 0 0 1 .453-.169zm1.843.64c.008.138.004.27-.011.403-.086.766-.543 1.563-1.39 1.926a.75.75 0 1 1 -1.043-.809c.038.227.183.426.386.536.203.109.445.117.656.023.848-.36 1.305-1.156 1.39-1.922.009-.05.012-.105.012-.156zm-4.171.34c.003.051.007.098.015.15a.746.746 0 1 0 1.48.035.754.754 0 0 1 -.285.73.76.76 0 0 1 -.75.09.751.751 0 0 1 -.445-.61 1.918 1.918 0 0 1 -.015-.394zm0 0" fill-opacity=".235"/><path d="m20.207 16.559c.754.437 1.016 1.293.93 2.058-.086.766-.543 1.563-1.39 1.926a.748.748 0 1 1 -.586-1.379c.292-.125.452-.402.487-.71.036-.313-.082-.536-.187-.599-.106-.058-.36-.05-.61.133-.253.188-.414.465-.374.782a.744.744 0 0 1 -.29.695c-.214.164-.5.2-.75.09a.74.74 0 0 1 -.445-.606c-.113-.91.348-1.707.969-2.164s1.492-.66 2.246-.226zm0 0" fill="none" stroke="#212121" stroke-linecap="round" stroke-linejoin="round" stroke-width=".14064"/><path d="m18.355 9.117c.551 0 .993.445.993.992v1.489c0 .55-.442.992-.993.992a.991.991 0 0 1 -.992-.992v-1.489c0-.546.446-.992.992-.992zm0 0" fill="url(#o)"/><path d="m18.355 9.117a.994.994 0 0 0 -.992.992v.375a.992.992 0 1 1 1.984 0v-.375a.991.991 0 0 0 -.992-.992zm0 0" fill="#fff" fill-opacity=".392"/><path d="m18.355 12.59a.991.991 0 0 1 -.992-.992v-.371c0 .55.446.992.992.992.551 0 .993-.442.993-.992v.37c0 .551-.442.993-.993.993zm0 0" fill-opacity=".235"/><path d="m18.355 9.117c.551 0 .993.445.993.992v1.489c0 .55-.442.992-.993.992a.991.991 0 0 1 -.992-.992v-1.489c0-.547.446-.992.992-.992zm0 0" fill="none" stroke="#212121" stroke-linecap="round" stroke-linejoin="round" stroke-width=".14064"/><path d="m11.906 2.172h-.05c-.012 0-.024 0-.036.004h-.015c-.016 0-.032 0-.043.004h-.008c-.016 0-.031 0-.047.004-2.488.25-6.25 5.054-6.25 8.918 0 3.472 2.977 8.93 6.45 8.93 3.472 0 6.448-5.458 6.448-8.93 0-3.864-3.757-8.668-6.246-8.918-.02-.004-.035-.004-.05-.004h-.004c-.016-.004-.032-.004-.043-.004h-.02c-.012-.004-.02-.004-.031-.004zm0 0" fill="url(#p)"/><path d="m11.906 7.629a2.481 2.481 0 0 1 0 4.96 2.481 2.481 0 0 1 0-4.96zm0 0" fill="url(#q)"/><path d="m9.438 10.36a2.474 2.474 0 0 0 2.469 2.727 2.474 2.474 0 0 0 2.468-2.728 2.469 2.469 0 0 1 -2.469 2.23 2.474 2.474 0 0 1 -2.469-2.23zm0 0" fill-opacity=".235"/><path d="m11.906 7.629a2.474 2.474 0 0 0 -2.48 2.48c0 .063.004.125.008.188a2.473 2.473 0 0 1 2.472-2.297 2.48 2.48 0 0 1 2.477 2.297c.004-.063.004-.125.004-.188a2.474 2.474 0 0 0 -2.48-2.48zm0 0" fill="#fff" fill-opacity=".235"/><path d="m11.906 7.629a2.481 2.481 0 0 1 0 4.96 2.481 2.481 0 0 1 0-4.96zm0 0" fill="none" stroke="#212121" stroke-linecap="round" stroke-linejoin="round" stroke-width=".14064"/><path d="m11.906 8.125a1.985 1.985 0 1 1 0 3.97 1.985 1.985 0 0 1 0-3.97zm0 0" fill="url(#r)"/><path d="m11.906 9.117c.551 0 .992.445.992.992a.991.991 0 1 1 -.992-.992zm0 0" fill="url(#s)"/><path d="m11.41 9.117a.497.497 0 1 1 -.001.994.497.497 0 0 1 .001-.994zm0 0" fill="#fff" fill-opacity=".392"/><path d="m11.906 2.172h-.05c-.012 0-.024 0-.036.004h-.015c-.016 0-.032 0-.043.004h-.008c-.016 0-.031 0-.047.004-2.488.25-6.25 5.054-6.25 8.918 0 .062 0 .125.004.187.117-3.832 3.797-8.484 6.246-8.734.016 0 .031-.004.047-.004h.008c.011 0 .027-.004.043-.004h.05c.016-.004.036-.004.051-.004.02 0 .035 0 .055.004h.051c.011 0 .027.004.043.004h.004c.015 0 .03.004.05.004 2.446.25 6.13 4.902 6.246 8.734v-.187c0-3.864-3.757-8.668-6.246-8.918-.02-.004-.035-.004-.05-.004h-.004c-.016-.004-.032-.004-.043-.004h-.02c-.012-.004-.02-.004-.031-.004zm0 0" fill="#fff" fill-opacity=".392"/><path d="m5.46 10.914c-.003.063-.003.125-.003.188 0 3.472 2.977 8.93 6.45 8.93 3.472 0 6.448-5.458 6.448-8.93v-.188c-.105 3.477-3.039 8.742-6.449 8.742s-6.34-5.265-6.445-8.742zm0 0" fill-opacity=".235"/><path d="m11.906 2.172h-.05c-.012 0-.024 0-.036.004h-.015c-.016 0-.032 0-.043.004h-.008c-.016 0-.031 0-.047.004-2.488.25-6.25 5.054-6.25 8.918 0 3.472 2.977 8.93 6.45 8.93 3.472 0 6.448-5.458 6.448-8.93 0-3.864-3.757-8.668-6.246-8.918-.02-.004-.035-.004-.05-.004h-.004c-.016-.004-.032-.004-.043-.004h-.02c-.012-.004-.02-.004-.031-.004zm0 0" fill="none" stroke="#212121" stroke-linecap="round" stroke-linejoin="round" stroke-width=".140604"/><path d="m9.426 14.078v1.102c.254.254.594.468.992.62v-1.722zm1.984 0v1.957c.164.02.328.027.496.027.172 0 .336-.007.496-.027v-1.957zm1.985 0v1.723c.398-.153.738-.367.992-.621v-1.102zm0 0" fill-opacity=".392"/></svg>