<?xml version="1.0" encoding="UTF-8"?>
<svg xmlns="http://www.w3.org/2000/svg" xmlns:xlink="http://www.w3.org/1999/xlink" width="24pt" height="24pt" viewBox="0 0 24 24" version="1.1">
<defs>
<linearGradient id="linear0" gradientUnits="userSpaceOnUse" x1="190.5" y1="-168.666656" x2="190.5" y2="170" gradientTransform="matrix(1,0,0,1,74.083374,-0.0000133568)">
<stop offset="0" style="stop-color:rgb(87.843137%,87.843137%,87.843137%);stop-opacity:1;"/>
<stop offset="1" style="stop-color:rgb(74.117647%,74.117647%,74.117647%);stop-opacity:1;"/>
</linearGradient>
<linearGradient id="linear1" gradientUnits="userSpaceOnUse" x1="179.916672" y1="95.916664" x2="179.916672" y2="-147.5" gradientTransform="matrix(1,0,0,1,52.916706,-0.0000133568)">
<stop offset="0" style="stop-color:rgb(25.882353%,25.882353%,25.882353%);stop-opacity:1;"/>
<stop offset="1" style="stop-color:rgb(38.039216%,38.039216%,38.039216%);stop-opacity:1;"/>
</linearGradient>
<linearGradient id="linear2" gradientUnits="userSpaceOnUse" x1="190.5" y1="-168.666656" x2="190.5" y2="170" gradientTransform="matrix(1,0.000000000000000028,-0.000000000000000028,1,74.083374,-0.0000133568)">
<stop offset="0" style="stop-color:rgb(87.843137%,87.843137%,87.843137%);stop-opacity:1;"/>
<stop offset="1" style="stop-color:rgb(74.117647%,74.117647%,74.117647%);stop-opacity:1;"/>
</linearGradient>
<linearGradient id="linear3" gradientUnits="userSpaceOnUse" x1="179.916672" y1="95.916664" x2="179.916672" y2="-147.5" gradientTransform="matrix(1,0.000000000000000028,-0.000000000000000028,1,52.916706,-0.0000133568)">
<stop offset="0" style="stop-color:rgb(25.882353%,25.882353%,25.882353%);stop-opacity:1;"/>
<stop offset="1" style="stop-color:rgb(38.039216%,38.039216%,38.039216%);stop-opacity:1;"/>
</linearGradient>
<linearGradient id="linear4" gradientUnits="userSpaceOnUse" x1="254" y1="233.5" x2="254" y2="254.666672" gradientTransform="matrix(0.0468795,0,0,0.0468795,1.984561,7.184935)">
<stop offset="0" style="stop-color:rgb(0%,0%,0%);stop-opacity:0.27451;"/>
<stop offset="1" style="stop-color:rgb(0%,0%,0%);stop-opacity:0;"/>
</linearGradient>
<radialGradient id="radial0" gradientUnits="userSpaceOnUse" cx="450.908936" cy="189.579361" fx="450.908936" fy="189.579361" r="21.166656" gradientTransform="matrix(0.000000130628,-0.0585994,-0.105479,-0.0000000761539,37.113425,44.719654)">
<stop offset="0" style="stop-color:rgb(0%,0%,0%);stop-opacity:0.313725;"/>
<stop offset="0.222222" style="stop-color:rgb(0%,0%,0%);stop-opacity:0.27451;"/>
<stop offset="1" style="stop-color:rgb(0%,0%,0%);stop-opacity:0;"/>
</radialGradient>
<radialGradient id="radial1" gradientUnits="userSpaceOnUse" cx="450.908936" cy="189.579361" fx="450.908936" fy="189.579361" r="21.166656" gradientTransform="matrix(-0.000000130628,0.0585994,0.105479,0.0000000761539,-13.298646,-8.622454)">
<stop offset="0" style="stop-color:rgb(0%,0%,0%);stop-opacity:0.313725;"/>
<stop offset="0.222222" style="stop-color:rgb(0%,0%,0%);stop-opacity:0.27451;"/>
<stop offset="1" style="stop-color:rgb(0%,0%,0%);stop-opacity:0;"/>
</radialGradient>
<radialGradient id="radial2" gradientUnits="userSpaceOnUse" cx="450.908936" cy="189.579361" fx="450.908936" fy="189.579361" r="21.166656" gradientTransform="matrix(-0.000000130628,-0.0585994,0.105479,-0.0000000761539,-13.298646,44.719654)">
<stop offset="0" style="stop-color:rgb(0%,0%,0%);stop-opacity:0.313725;"/>
<stop offset="0.222222" style="stop-color:rgb(0%,0%,0%);stop-opacity:0.27451;"/>
<stop offset="1" style="stop-color:rgb(0%,0%,0%);stop-opacity:0;"/>
</radialGradient>
<radialGradient id="radial3" gradientUnits="userSpaceOnUse" cx="450.908936" cy="189.579361" fx="450.908936" fy="189.579361" r="21.166656" gradientTransform="matrix(0.000000130628,0.0585994,-0.105479,0.0000000761539,37.113423,-8.622454)">
<stop offset="0" style="stop-color:rgb(0%,0%,0%);stop-opacity:0.313725;"/>
<stop offset="0.222222" style="stop-color:rgb(0%,0%,0%);stop-opacity:0.27451;"/>
<stop offset="1" style="stop-color:rgb(0%,0%,0%);stop-opacity:0;"/>
</radialGradient>
<linearGradient id="linear5" gradientUnits="userSpaceOnUse" x1="190.5" y1="-168.666656" x2="190.5" y2="170" gradientTransform="matrix(1,0,0,1,74.083374,-0.00001)">
<stop offset="0" style="stop-color:rgb(93.333333%,93.333333%,93.333333%);stop-opacity:1;"/>
<stop offset="1" style="stop-color:rgb(74.117647%,74.117647%,74.117647%);stop-opacity:1;"/>
</linearGradient>
<linearGradient id="linear6" gradientUnits="userSpaceOnUse" x1="201.083298" y1="170.000015" x2="201.083298" y2="-147.499985" gradientTransform="matrix(0.0468795,0,0,0.0468795,2.480707,10.079087)">
<stop offset="0" style="stop-color:rgb(50.588235%,83.137255%,98.039216%);stop-opacity:1;"/>
<stop offset="1" style="stop-color:rgb(98.823529%,89.411765%,92.54902%);stop-opacity:1;"/>
</linearGradient>
<linearGradient id="linear7" gradientUnits="userSpaceOnUse" x1="960" y1="1615.118164" x2="960" y2="1015.118103" gradientTransform="matrix(0.0124035,0,0,0.0124035,3.969128,-5.45754)">
<stop offset="0" style="stop-color:rgb(27.058824%,35.294118%,39.215686%);stop-opacity:1;"/>
<stop offset="1" style="stop-color:rgb(47.058824%,56.470588%,61.176471%);stop-opacity:1;"/>
</linearGradient>
<linearGradient id="linear8" gradientUnits="userSpaceOnUse" x1="359.833344" y1="-20.5" x2="359.833344" y2="-105.166672" gradientTransform="matrix(0.0351596,0,0,0.0351596,2.728776,7.854266)">
<stop offset="0" style="stop-color:rgb(89.803922%,45.098039%,45.098039%);stop-opacity:1;"/>
<stop offset="1" style="stop-color:rgb(93.72549%,60.392157%,60.392157%);stop-opacity:1;"/>
</linearGradient>
</defs>
<g id="surface1">
<path style="fill-rule:nonzero;fill:url(#linear0);stroke-width:3;stroke-linecap:round;stroke-linejoin:miter;stroke:rgb(12.941177%,12.941177%,12.941177%);stroke-opacity:1;stroke-miterlimit:4;" d="M 116.440602 -168.692724 L 391.608895 -168.631721 C 403.272472 -168.698272 412.713183 -159.181194 412.779734 -147.517617 L 412.747098 148.793148 C 412.711597 160.515645 403.275005 169.977922 391.611428 170.044473 L 116.443134 169.98347 C 104.699071 170.028455 95.25836 160.511377 95.272296 148.869366 L 95.246011 -147.543451 C 95.259947 -159.185462 104.696538 -168.647739 116.440602 -168.692724 Z M 116.440602 -168.692724 " transform="matrix(0.0452821,-0.0121333,0.0121333,0.0452821,-1.530562,14.731257)"/>
<path style="fill-rule:nonzero;fill:url(#linear1);stroke-width:3;stroke-linecap:round;stroke-linejoin:miter;stroke:rgb(12.941177%,12.941177%,12.941177%);stroke-opacity:1;stroke-miterlimit:4;" d="M 137.589874 -147.498133 L 370.414305 -147.482449 C 382.077882 -147.549 391.599079 -138.010356 391.585143 -126.368345 L 391.618177 74.723702 C 391.582676 86.446199 382.146084 95.908476 370.402021 95.953461 L 137.57759 95.937776 C 125.855093 95.902275 116.392816 86.465683 116.428318 74.743186 L 116.395284 -126.348861 C 116.409219 -137.990872 125.867377 -147.533635 137.589874 -147.498133 Z M 137.589874 -147.498133 " transform="matrix(0.0452821,-0.0121333,0.0121333,0.0452821,-1.530562,14.731257)"/>
<path style="fill-rule:nonzero;fill:url(#linear2);stroke-width:3;stroke-linecap:round;stroke-linejoin:miter;stroke:rgb(12.941177%,12.941177%,12.941177%);stroke-opacity:1;stroke-miterlimit:4;" d="M 116.42296 -168.702833 L 391.57188 -168.676451 C 403.2944 -168.64969 412.7612 -159.158563 412.7133 -147.516642 L 412.728594 148.812623 C 412.782431 160.514005 403.291305 169.980805 391.589923 170.034643 L 116.441003 170.008261 C 104.718483 169.9815 95.251683 160.490373 95.218983 148.869591 L 95.284289 -147.480813 C 95.230451 -159.182195 104.721578 -168.648995 116.42296 -168.702833 Z M 116.42296 -168.702833 " transform="matrix(0.0453459,0.0118926,-0.0118926,0.0453459,2.269065,8.656033)"/>
<path style="fill-rule:nonzero;fill:url(#linear3);stroke-width:3;stroke-linecap:round;stroke-linejoin:miter;stroke:rgb(12.941177%,12.941177%,12.941177%);stroke-opacity:1;stroke-miterlimit:4;" d="M 137.585518 -147.462424 L 370.412071 -147.535031 C 382.134591 -147.508269 391.601391 -138.017143 391.574629 -126.294623 L 391.584725 74.761412 C 391.557963 86.483932 382.147436 95.929594 370.424916 95.902832 L 137.577225 95.89484 C 125.875843 95.948678 116.409043 86.457551 116.435805 74.735031 L 116.425709 -126.321004 C 116.452471 -138.043524 125.862998 -147.489186 137.585518 -147.462424 Z M 137.585518 -147.462424 " transform="matrix(0.0453459,0.0118926,-0.0118926,0.0453459,2.269065,8.656033)"/>
<path style=" stroke:none;fill-rule:nonzero;fill:url(#linear4);" d="M 6.449219 17.882812 L 17.363281 17.882812 L 17.363281 19.039062 L 6.449219 19.039062 Z M 6.449219 17.882812 "/>
<path style=" stroke:none;fill-rule:nonzero;fill:url(#radial0);" d="M 17.363281 18.046875 L 19.347656 18.046875 L 19.347656 17.054688 L 17.363281 17.054688 Z M 17.363281 18.046875 "/>
<path style=" stroke:none;fill-rule:nonzero;fill:url(#radial1);" d="M 6.449219 18.046875 L 4.464844 18.046875 L 4.464844 19.039062 L 6.449219 19.039062 Z M 6.449219 18.046875 "/>
<path style=" stroke:none;fill-rule:nonzero;fill:url(#radial2);" d="M 6.449219 18.046875 L 4.464844 18.046875 L 4.464844 17.054688 L 6.449219 17.054688 Z M 6.449219 18.046875 "/>
<path style=" stroke:none;fill-rule:nonzero;fill:url(#radial3);" d="M 17.363281 18.046875 L 19.347656 18.046875 L 19.347656 19.039062 L 17.363281 19.039062 Z M 17.363281 18.046875 "/>
<path style="fill-rule:nonzero;fill:url(#linear5);stroke-width:3;stroke-linecap:round;stroke-linejoin:miter;stroke:rgb(12.941177%,12.941177%,12.941177%);stroke-opacity:1;stroke-miterlimit:4;" d="M 116.40555 -168.671091 L 391.545943 -168.671091 C 403.294821 -168.671091 412.710588 -159.171998 412.710588 -147.506445 L 412.710588 148.798592 C 412.710588 160.54747 403.294821 169.963238 391.545943 169.963238 L 116.40555 169.963238 C 104.739998 169.963238 95.240905 160.54747 95.240905 148.798592 L 95.240905 -147.506445 C 95.240905 -159.171998 104.739998 -168.671091 116.40555 -168.671091 Z M 116.40555 -168.671091 " transform="matrix(0.0468795,0,0,0.0468795,0,10.079087)"/>
<path style=" stroke:none;fill-rule:nonzero;fill:url(#linear6);" d="M 6.449219 3.164062 L 17.363281 3.164062 C 17.914062 3.164062 18.355469 3.609375 18.355469 4.15625 L 18.355469 13.085938 C 18.355469 13.636719 17.914062 14.078125 17.363281 14.078125 L 6.449219 14.078125 C 5.902344 14.078125 5.457031 13.636719 5.457031 13.085938 L 5.457031 4.15625 C 5.457031 3.609375 5.902344 3.164062 6.449219 3.164062 Z M 6.449219 3.164062 "/>
<path style=" stroke:none;fill-rule:nonzero;fill:url(#linear7);" d="M 5.457031 11.472656 L 5.457031 13.082031 C 5.457031 13.628906 5.898438 14.074219 6.449219 14.074219 L 17.363281 14.074219 C 17.914062 14.074219 18.355469 13.628906 18.355469 13.082031 L 18.355469 10.605469 C 14.230469 13.019531 13.890625 10.476562 12.152344 10.429688 C 11.113281 10.402344 10.417969 11.785156 9.355469 11.695312 C 8.414062 11.617188 8.1875 10.480469 6.929688 10.542969 C 6.433594 10.570312 6.203125 10.480469 5.457031 11.472656 Z M 5.457031 11.472656 "/>
<path style="fill-rule:nonzero;fill:rgb(90.196079%,90.196079%,90.196079%);fill-opacity:0.588235;stroke-width:2;stroke-linecap:butt;stroke-linejoin:miter;stroke:rgb(100%,100%,100%);stroke-opacity:1;stroke-miterlimit:4;" d="M 116.40555 -168.671091 C 104.656672 -168.671091 95.240905 -159.255323 95.240905 -147.506445 L 95.240905 -144.840033 C 95.240905 -156.588911 104.656672 -166.004679 116.40555 -166.004679 L 391.545943 -166.004679 C 403.294821 -166.004679 412.710588 -156.588911 412.710588 -144.840033 L 412.710588 -147.506445 C 412.710588 -159.255323 403.294821 -168.671091 391.545943 -168.671091 Z M 116.40555 -168.671091 " transform="matrix(0.0468795,0,0,0.0468795,0,10.079087)"/>
<path style=" stroke:none;fill-rule:nonzero;fill:rgb(12.941177%,12.941177%,12.941177%);fill-opacity:1;" d="M 5.457031 2.101562 C 4.871094 2.101562 4.394531 2.578125 4.394531 3.164062 L 4.394531 17.054688 C 4.394531 17.644531 4.871094 18.117188 5.457031 18.117188 L 18.355469 18.117188 C 18.945312 18.117188 19.417969 17.644531 19.417969 17.054688 L 19.417969 3.164062 C 19.417969 2.578125 18.945312 2.101562 18.355469 2.101562 Z M 5.457031 2.242188 L 18.355469 2.242188 C 18.871094 2.242188 19.277344 2.652344 19.277344 3.164062 L 19.277344 17.054688 C 19.277344 17.566406 18.871094 17.976562 18.355469 17.976562 L 5.457031 17.976562 C 4.945312 17.976562 4.535156 17.566406 4.535156 17.054688 L 4.535156 3.164062 C 4.535156 2.652344 4.945312 2.242188 5.457031 2.242188 Z M 5.457031 2.242188 "/>
<path style=" stroke:none;fill-rule:nonzero;fill:url(#linear8);" d="M 15.378906 4.15625 C 16.203125 4.15625 16.867188 4.824219 16.867188 5.644531 C 16.867188 6.46875 16.203125 7.132812 15.378906 7.132812 C 14.558594 7.132812 13.890625 6.46875 13.890625 5.644531 C 13.890625 4.824219 14.558594 4.15625 15.378906 4.15625 Z M 15.378906 4.15625 "/>
<path style=" stroke:none;fill-rule:nonzero;fill:rgb(12.941177%,12.941177%,12.941177%);fill-opacity:1;" d="M 6.449219 3.09375 C 5.863281 3.09375 5.386719 3.570312 5.386719 4.15625 L 5.386719 13.085938 C 5.386719 13.675781 5.863281 14.148438 6.449219 14.148438 L 17.363281 14.148438 C 17.953125 14.148438 18.425781 13.675781 18.425781 13.085938 L 18.425781 4.15625 C 18.425781 3.570312 17.953125 3.09375 17.363281 3.09375 Z M 6.449219 3.234375 L 17.363281 3.234375 C 17.875 3.234375 18.285156 3.644531 18.285156 4.15625 L 18.285156 13.085938 C 18.285156 13.597656 17.875 14.007812 17.363281 14.007812 L 6.449219 14.007812 C 5.9375 14.007812 5.527344 13.597656 5.527344 13.085938 L 5.527344 4.15625 C 5.527344 3.644531 5.9375 3.234375 6.449219 3.234375 Z M 6.449219 3.234375 "/>
<path style="fill:none;stroke-width:3;stroke-linecap:round;stroke-linejoin:round;stroke:rgb(10.196079%,13.725491%,49.411765%);stroke-opacity:1;stroke-miterlimit:4;" d="M 221.597272 136.384121 C 219.430812 122.135482 237.012466 115.636103 229.01323 137.13405 C 221.930573 156.04891 212.43148 156.798839 212.598131 151.965967 C 213.34806 145.049961 221.930573 148.549626 228.346627 149.38288 C 236.845816 150.382785 245.178353 138.300605 244.595076 130.218044 " transform="matrix(0.0468795,0,0,0.0468795,3.224917,9.582946)"/>
<path style="fill:none;stroke-width:3;stroke-linecap:round;stroke-linejoin:round;stroke:rgb(10.196079%,13.725491%,49.411765%);stroke-opacity:1;stroke-miterlimit:4;" d="M 239.178926 128.30156 C 243.595171 113.969595 267.75953 107.386891 259.760294 128.884838 C 252.677637 147.799698 241.09541 147.633047 239.845529 142.966826 C 238.595649 138.383931 244.761726 130.134718 244.595076 130.218044 " transform="matrix(0.0468795,0,0,0.0468795,3.224917,9.582946)"/>
<path style="fill:none;stroke-width:3;stroke-linecap:round;stroke-linejoin:round;stroke:rgb(10.196079%,13.725491%,49.411765%);stroke-opacity:1;stroke-miterlimit:4;" d="M 265.343094 121.302228 C 283.008074 116.636007 280.424987 109.886652 279.758384 107.553541 C 270.092641 126.635052 269.176062 143.216802 269.842665 138.21728 " transform="matrix(0.0468795,0,0,0.0468795,3.224917,9.582946)"/>
<path style="fill:none;stroke-width:3;stroke-linecap:round;stroke-linejoin:round;stroke:rgb(10.196079%,13.725491%,49.411765%);stroke-opacity:1;stroke-miterlimit:4;" d="M 285.257859 112.719715 C 285.507835 101.137487 304.506021 103.97055 294.506976 114.052921 C 286.174438 122.302133 275.092163 126.968354 279.258432 133.301083 C 284.424605 140.133763 298.089967 129.884742 291.423937 123.385363 C 285.007883 117.719237 283.591352 115.636103 283.008074 113.302992 " transform="matrix(0.0468795,0,0,0.0468795,3.224917,9.582946)"/>
<path style="fill:none;stroke-width:3;stroke-linecap:round;stroke-linejoin:round;stroke:rgb(10.196079%,13.725491%,49.411765%);stroke-opacity:1;stroke-miterlimit:4;" d="M 214.347964 166.047955 C 267.259578 139.550486 328.087103 139.550486 314.838368 144.88331 " transform="matrix(0.0468795,0,0,0.0468795,3.224917,9.582946)"/>
</g>
</svg>
