<svg xmlns="http://www.w3.org/2000/svg" width="32" height="32" viewBox="0 0 24 24"><defs><linearGradient id="a" gradientUnits="userSpaceOnUse" x1="254" y1="233.5" x2="254" y2="254.667" gradientTransform="matrix(.04688 0 0 .04688 0 10.08)"><stop offset="0" stop-opacity=".275"/><stop offset="1" stop-opacity="0"/></linearGradient><radialGradient id="b" gradientUnits="userSpaceOnUse" cx="450.909" cy="189.579" fx="450.909" fy="189.579" r="21.167" gradientTransform="matrix(0 -.0586 -.10548 0 39.842 47.696)"><stop offset="0" stop-opacity=".314"/><stop offset=".222" stop-opacity=".275"/><stop offset="1" stop-opacity="0"/></radialGradient><radialGradient id="c" gradientUnits="userSpaceOnUse" cx="450.909" cy="189.579" fx="450.909" fy="189.579" r="21.167" gradientTransform="matrix(0 .0586 .10548 0 -15.903 -5.646)"><stop offset="0" stop-opacity=".314"/><stop offset=".222" stop-opacity=".275"/><stop offset="1" stop-opacity="0"/></radialGradient><radialGradient id="d" gradientUnits="userSpaceOnUse" cx="450.909" cy="189.579" fx="450.909" fy="189.579" r="21.167" gradientTransform="matrix(0 -.0586 .10548 0 -15.903 47.696)"><stop offset="0" stop-opacity=".314"/><stop offset=".222" stop-opacity=".275"/><stop offset="1" stop-opacity="0"/></radialGradient><radialGradient id="e" gradientUnits="userSpaceOnUse" cx="450.909" cy="189.579" fx="450.909" fy="189.579" r="21.167" gradientTransform="matrix(0 .0586 -.10548 0 39.842 -5.646)"><stop offset="0" stop-opacity=".314"/><stop offset=".222" stop-opacity=".275"/><stop offset="1" stop-opacity="0"/></radialGradient><linearGradient id="f" gradientUnits="userSpaceOnUse" x1="254" y1="233.5" x2="254" y2="-168.667" gradientTransform="matrix(.04688 0 0 .04688 0 10.082)"><stop offset="0" stop-color="#424242"/><stop offset="1" stop-color="#616161"/></linearGradient><linearGradient id="g" gradientUnits="userSpaceOnUse" x1="254" y1="148.833" x2="254" y2="-84" gradientTransform="matrix(3.77953 0 0 3.77953 0 812.598)"><stop offset="0" stop-color="#ffa726"/><stop offset="1" stop-color="#ffb74d"/></linearGradient></defs><path d="M3.844 21.027h16.25v.993H3.844zm0 0" fill="url(#a)"/><path d="M20.094 21.027h1.984v-.996h-1.984zm0 0" fill="url(#b)"/><path d="M3.844 21.027H1.859v.993h1.985zm0 0" fill="url(#c)"/><path d="M3.844 21.027H1.859v-.996h1.985zm0 0" fill="url(#d)"/><path d="M20.094 21.027h1.984v.993h-1.984zm0 0" fill="url(#e)"/><path d="M2.73 2.176h18.356c.41 0 .746.332.746.742v17.367c0 .41-.336.742-.746.742H2.73a.743.743 0 0 1-.746-.742V2.918c0-.41.332-.742.746-.742zm0 0" fill="url(#f)"/><path d="M2.73 2.172a.744.744 0 0 0-.746.746v.121c0-.41.332-.742.746-.742h18.356c.414 0 .746.332.746.742v-.121a.744.744 0 0 0-.746-.746zm0 0" fill="#fff" fill-opacity=".392"/><path d="M2.73 21.023a.743.743 0 0 1-.746-.742v-.125c0 .414.332.746.746.746h18.356a.744.744 0 0 0 .746-.746v.125c0 .41-.332.742-.746.742zm0 0" fill="#030303" fill-opacity=".235"/><path d="M2.73 2.102a.814.814 0 0 0-.816.816v17.363c0 .45.363.817.816.817h18.356c.45 0 .816-.368.816-.817V2.918a.816.816 0 0 0-.816-.816zm0 .14h18.356c.375 0 .676.301.676.676v17.363c0 .375-.301.676-.676.676H2.73a.674.674 0 0 1-.675-.676V2.918c0-.375.3-.676.675-.676zm0 0" fill="#212121"/><path d="M1276.099 495.07c-8.503-.314-20.156 2.205-36.217 6.614L679.935 688.438c-61.411 27.714-59.837 90.385-59.837 131.011 0 79.993-5.039 106.762 59.837 126.602l345.479 115.265-345.479 115.265v.315c-69.914 26.454-59.837 46.61-59.837 126.602s0 90.07 59.837 73.378l559.947-186.753c65.19-20.156 60.151-46.61 60.151-126.602 0-78.418 0-114.32-60.151-131.327-114.32-37.476-230.53-76.528-345.48-114.95l345.48-115.264v-.315c70.23-26.454 60.151-46.61 60.151-126.602 0-58.577 0-79.677-23.934-79.992zm0 0" transform="scale(.0124)" fill="url(#g)" stroke-width="11.339" stroke-linecap="round" stroke="#263238"/></svg>