<svg height="32" viewBox="0 0 24 24" width="32" xmlns="http://www.w3.org/2000/svg" xmlns:xlink="http://www.w3.org/1999/xlink"><linearGradient id="a" gradientTransform="matrix(.075 0 0 .04688 -7.144 9.087)" gradientUnits="userSpaceOnUse" x1="254" x2="254" y1="233.5" y2="254.667"><stop offset="0" stop-opacity=".275"/><stop offset="1" stop-opacity="0"/></linearGradient><linearGradient id="b"><stop offset="0" stop-opacity=".314"/><stop offset=".222" stop-opacity=".275"/><stop offset="1" stop-opacity="0"/></linearGradient><radialGradient id="c" cx="450.909" cy="189.579" gradientTransform="matrix(0 -.0586 -.10548 0 39.594 46.704)" gradientUnits="userSpaceOnUse" r="21.167" xlink:href="#b"/><radialGradient id="d" cx="450.909" cy="189.579" gradientTransform="matrix(0 .0586 .10548 0 -15.78 -6.638)" gradientUnits="userSpaceOnUse" r="21.167" xlink:href="#b"/><radialGradient id="e" cx="450.909" cy="189.579" gradientTransform="matrix(0 -.0586 .10548 0 -15.78 46.704)" gradientUnits="userSpaceOnUse" r="21.167" xlink:href="#b"/><radialGradient id="f" cx="450.909" cy="189.579" gradientTransform="matrix(0 .0586 -.10548 0 39.594 -6.638)" gradientUnits="userSpaceOnUse" r="21.167" xlink:href="#b"/><linearGradient id="g" gradientUnits="userSpaceOnUse" x1="11.90752" x2="11.90752" y1="20.03417104" y2="3.1652"><stop offset="0" stop-color="#5c6bc0"/><stop offset="1" stop-color="#7986cb"/></linearGradient><linearGradient id="h" gradientUnits="userSpaceOnUse" x1="12.90082896" x2="12.90082896" y1="20.96090896" y2="10.04565104"><stop offset="0" stop-color="#bcaaa4"/><stop offset="1" stop-color="#d7ccc8"/></linearGradient><path d="m3.969 20.031h15.875v.996h-15.875zm0 0" fill="url(#a)"/><path d="m19.844 20.031h1.988v-.992h-1.988zm0 0" fill="url(#c)"/><path d="m3.969 20.031h-1.985v.996h1.986zm0 0" fill="url(#d)"/><path d="m3.969 20.031h-1.985v-.992h1.986zm0 0" fill="url(#e)"/><path d="m19.844 20.031h1.988v.996h-1.988zm0 0" fill="url(#f)"/><path d="m2.977 3.164h17.863c.547 0 .992.445.992.992v14.884c0 .55-.445.992-.992.992h-17.863a.991.991 0 0 1 -.993-.992v-14.884c0-.547.446-.992.993-.992zm0 0" fill="url(#g)"/><path d="m2.977 3.164a.989.989 0 0 0 -.993.992v.25c0-.55.442-.992.993-.992h17.863c.547 0 .992.441.992.992v-.25a.991.991 0 0 0 -.992-.992zm0 0" fill="#fff" fill-opacity=".392"/><path d="m2.977 20.031a.989.989 0 0 1 -.993-.992v-.246c0 .55.442.992.993.992h17.863a.991.991 0 0 0 .992-.992v.246c0 .55-.445.992-.992.992zm0 0" fill-opacity=".235"/><path d="m11.906 9.613a1.488 1.488 0 1 1 .001 2.976 1.488 1.488 0 0 1 0-2.976zm0 0" style="fill:none;stroke-width:.998544;stroke-linecap:round;stroke-linejoin:round;stroke:#fff;stroke-opacity:.392"/><path d="m11.906 7.133a3.97 3.97 0 1 1 -.001 7.939 3.97 3.97 0 0 1 .001-7.94zm0 0" style="fill:none;stroke-width:.990715;stroke-linecap:round;stroke-linejoin:round;stroke:#fff;stroke-opacity:.392"/><path d="m2.977 3.094c-.586 0-1.063.476-1.063 1.062v14.884c0 .59.477 1.063 1.063 1.063h17.863c.586 0 1.062-.473 1.062-1.063v-14.884c0-.586-.476-1.062-1.062-1.062zm0 .14h17.863c.512 0 .922.41.922.922v14.884c0 .516-.41.922-.922.922h-17.863a.916.916 0 0 1 -.922-.922v-14.884c0-.511.41-.922.922-.922zm0 0"/><path d="m11.91 10.047a.989.989 0 0 0 -.992.992v4.961c0 .074.008.148.023.223-.007.039-.011.082-.02.125l-.19-.192a.993.993 0 0 0 -1.403 1.403l1.754 1.753c.047.047.098.09.148.125.543.899 1.743 1.524 3.137 1.524h.043c1.914 0 3.453-1.168 3.453-2.621v-.215c0-.027 0-.05-.004-.078.004-.02.004-.043.004-.063v-1.488c0-.742-.535-1.351-1.242-1.469v-.02a.989.989 0 0 0 -.992-.991.98.98 0 0 0 -.754.347.986.986 0 0 0 -.98-.843.989.989 0 0 0 -.993.992v-3.473a.991.991 0 0 0 -.992-.992zm0 0" fill="url(#h)"/><path d="m11.91 10.047a.989.989 0 0 0 -.992.992v.438a.991.991 0 1 1 1.984 0v-.438a.991.991 0 0 0 -.992-.992zm1.985 3.473a.989.989 0 0 0 -.993.992v.437c0-.55.442-.992.993-.992.5 0 .91.363.98.844a.98.98 0 0 1 .754-.348c.55 0 .992.442.992.992v.02a1.484 1.484 0 0 1 1.242 1.469v-.438c0-.742-.535-1.351-1.242-1.469v-.02a.989.989 0 0 0 -.992-.991.98.98 0 0 0 -.754.347.986.986 0 0 0 -.98-.843zm-3.864 2.347a.987.987 0 0 0 -.969 1.211.993.993 0 0 1 1.668-.484l.192.191c.008-.043.012-.086.02-.125a1.078 1.078 0 0 1 -.024-.223v-.097l-.188-.184a.972.972 0 0 0 -.699-.289zm0 0" fill="#fff" fill-opacity=".392"/><path d="m10.918 15.504v.34l.004.008c.008-.043.012-.086.02-.125a1.078 1.078 0 0 1 -.024-.223zm-1.848 1.105a.986.986 0 0 0 .258.95l1.754 1.753c.047.047.098.09.148.125.543.899 1.743 1.524 3.137 1.524h.043c1.914 0 3.453-1.168 3.453-2.621v-.215c0-.027 0-.05-.004-.078.004-.02.004-.043.004-.063v-.14c0 1.453-1.539 2.62-3.453 2.62h-.043c-1.394 0-2.594-.624-3.137-1.523a1.095 1.095 0 0 1 -.148-.125l-1.754-1.753a.981.981 0 0 1 -.258-.454zm8.793.88c0 .019 0 .042-.004.062.004.027.004.05.004.078zm0 0" fill-opacity=".235"/><path d="m11.91 9.977c-.59 0-1.062.472-1.062 1.062v4.961c0 .066.007.129.02.191l-.087-.086a1.06 1.06 0 0 0 -1.5 0 1.059 1.059 0 0 0 0 1.504l1.754 1.754a.85.85 0 0 0 .145.121c.562.922 1.777 1.547 3.187 1.547h.043c.973 0 1.848-.297 2.485-.781.64-.484 1.039-1.16 1.039-1.91v-.215c0-.027 0-.05-.004-.074.004-.024.004-.047.004-.067v-1.488c0-.754-.536-1.379-1.247-1.523a1.056 1.056 0 0 0 -1.773-.746 1.057 1.057 0 0 0 -1.941-.235v-2.952c0-.59-.477-1.062-1.063-1.062zm0 .14c.512 0 .922.41.922.922v3.473h.14c0-.512.41-.922.923-.922.464 0 .843.336.91.781.004.027.023.05.05.059.028.008.055 0 .075-.024a.92.92 0 0 1 .699-.32c.512 0 .922.41.922.922v.02c0 .034.027.062.058.07.672.109 1.184.691 1.184 1.398v1.488c0 .02 0 .04-.004.063v.004c.004.023.004.05.004.074v.215c0 .7-.371 1.336-.98 1.797-.614.465-1.461.754-2.403.754h-.043c-1.375 0-2.547-.618-3.078-1.493a.047.047 0 0 0 -.02-.02 1.237 1.237 0 0 1 -.136-.112l-1.754-1.754a.917.917 0 0 1 0-1.305.917.917 0 0 1 1.305 0l.191.191c.02.02.047.024.074.016a.063.063 0 0 0 .043-.059 1.12 1.12 0 0 1 .02-.12v-.028a.91.91 0 0 1 -.024-.207v-4.96c0-.513.41-.923.922-.923zm0 0" fill="#212121"/></svg>