<svg height="32" viewBox="0 0 24 24" width="32" xmlns="http://www.w3.org/2000/svg" xmlns:xlink="http://www.w3.org/1999/xlink"><linearGradient id="a"><stop offset="0" stop-opacity=".314"/><stop offset=".222" stop-opacity=".275"/><stop offset="1" stop-opacity="0"/></linearGradient><radialGradient id="b" cx="450.909" cy="189.579" gradientTransform="matrix(0 -.0586 -.10548 0 37.61 45.712)" gradientUnits="userSpaceOnUse" r="21.167" xlink:href="#a"/><radialGradient id="c" cx="450.909" cy="189.579" gradientTransform="matrix(0 .0586 .10548 0 -14.787 -7.63)" gradientUnits="userSpaceOnUse" r="21.167" xlink:href="#a"/><radialGradient id="d" cx="450.909" cy="189.579" gradientTransform="matrix(0 -.0586 .10548 0 -14.787 45.712)" gradientUnits="userSpaceOnUse" r="21.167" xlink:href="#a"/><radialGradient id="e" cx="450.909" cy="189.579" gradientTransform="matrix(0 .0586 -.10548 0 37.61 -7.63)" gradientUnits="userSpaceOnUse" r="21.167" xlink:href="#a"/><linearGradient id="f" gradientTransform="matrix(.01002 0 0 .04688 7.613 8.095)" gradientUnits="userSpaceOnUse" x1="255.323" x2="255.323" y1="233.5" y2="254.667"><stop offset="0" stop-opacity=".275"/><stop offset="1" stop-opacity="0"/></linearGradient><linearGradient id="g" gradientUnits="userSpaceOnUse" x1="11.90752" x2="11.90752" y1="19.04190896" y2="4.15750896"><stop offset="0" stop-color="#b0bec5"/><stop offset="1" stop-color="#cfd8dc"/></linearGradient><linearGradient id="h" gradientUnits="userSpaceOnUse" x1="227.542" x2="227.542" y1="244.083" y2="-168.667"><stop offset="0" stop-color="#607d8b"/><stop offset="1" stop-color="#78909c"/></linearGradient><path d="m17.86 19.04h1.984v-.993h-1.985zm0 0" fill="url(#b)"/><path d="m4.96 19.04h-1.982v.991h1.982zm0 0" fill="url(#c)"/><path d="m4.96 19.04h-1.982v-.993h1.982zm0 0" fill="url(#d)"/><path d="m17.86 19.04h1.984v.991h-1.985zm0 0" fill="url(#e)"/><path d="m4.96 18.793h12.9v1.238h-12.9zm0 0" fill="url(#f)"/><path d="m11.402 4.148c-3.847 0-6.945 3.274-6.945 7.336v.211c0 .133 0 .266.008.399-1.672.105-2.988 1.535-2.988 3.289v.355c0 1.825 1.425 3.293 3.191 3.293h2.773v.008h10.419c2.75 0 4.965-2.21 4.965-4.96a4.954 4.954 0 0 0 -4.844-4.962c-.93-2.894-3.515-4.969-6.578-4.969zm0 0" fill="url(#g)"/><path d="m4.941 12.094a3.473 3.473 0 0 0 -3.488 3.472v.157a3.477 3.477 0 0 1 3.488-3.317 3.472 3.472 0 0 1 3.489 3.317 3.474 3.474 0 0 0 -3.488-3.629zm0 0" fill="#fafafa" fill-opacity=".588"/><path d="m11.402 4.148c-3.847 0-6.945 3.274-6.945 7.336v.293c.043-4.023 3.125-7.25 6.945-7.25 3.063 0 5.649 2.075 6.578 4.973a4.948 4.948 0 0 1 4.84 4.77c0-.067.004-.13.004-.192a4.954 4.954 0 0 0 -4.844-4.96c-.93-2.895-3.515-4.97-6.578-4.97zm-6.945 7.946c-1.668.113-2.98 1.535-2.98 3.289v.355l.003.012c.004-1.75 1.317-3.168 2.985-3.277-.004-.125-.008-.25-.008-.38zm0 0" fill="#fff" fill-opacity=".392"/><path d="m201.064-72.93c-26.08 0-47.329 18.498-47.329 41.662v63.078c0 7.166 5.75 12.915 12.916 12.915s13.082-5.75 13.082-12.915v-17.25c0-5.582 4.333-9.915 9.916-9.915h22.914c5.5 0 10 4.416 10 9.915v17.25c0 7.166 5.832 12.915 12.915 12.915 7.165 0 12.998-5.75 12.998-12.915v-63.078c0-23.164-21.248-41.662-47.412-41.662zm0 25.997c4.083 0 9.75 1 14.165 3.25 4.417 2.166 7.416 5.25 7.333 9.5v8.582c0 5.582-4.5 10.082-9.999 10.082h-22.914c-5.583 0-9.916-4.5-9.916-10.082v-8.583c0-4.25 3-7.333 7.332-9.582 4.417-2.167 10-3.167 14-3.167zm0 0" fill="url(#h)" stroke="#212121" stroke-width="3" transform="matrix(.04688 0 0 .04688 0 10.08)"/><path d="m4.457 11.398v.317h.008c-.004-.106-.008-.211-.008-.317zm18.363 2.489a4.954 4.954 0 0 1 -4.96 4.773h-10.42v-.008h-2.772c-1.762 0-3.184-1.46-3.188-3.28l-.003.01v.356c0 1.825 1.425 3.293 3.191 3.293h2.773v.008h10.419c2.75 0 4.965-2.21 4.965-4.96 0-.063-.004-.13-.004-.192zm0 0" fill-opacity=".235"/><path d="m17.984 9.117c-2.68 0-4.836 2.215-4.836 4.961 0 .063 0 .125.004.188.094-2.66 2.215-4.778 4.832-4.778 2.621 0 4.739 2.117 4.836 4.778 0-.063.004-.125.004-.188 0-2.746-2.16-4.96-4.84-4.96zm0 0" fill="#fafafa" fill-opacity=".588"/><path d="m11.402 4.078c-3.89 0-7.015 3.305-7.015 7.406v.211c0 .114.004.227.008.336-1.68.145-2.989 1.586-2.989 3.352v.355c0 1.86 1.457 3.364 3.262 3.364h2.746c.008.003.02.007.027.007h10.419a5.024 5.024 0 0 0 5.036-5.03 5.022 5.022 0 0 0 -4.866-5.029c-.949-2.899-3.55-4.973-6.629-4.973zm0 .14c3.032 0 5.594 2.052 6.512 4.923a.068.068 0 0 0 .066.046 4.88 4.88 0 0 1 4.774 4.891c0 2.711-2.184 4.89-4.895 4.89h-10.386c-.012-.003-.02-.007-.032-.007h-2.773c-1.727 0-3.121-1.434-3.121-3.223v-.355c0-1.719 1.289-3.113 2.922-3.219.039-.004.07-.035.066-.074-.008-.13-.008-.262-.008-.395v-.21c0-4.028 3.067-7.266 6.875-7.266zm0 0" fill="#212121"/></svg>