<svg height="32" viewBox="0 0 24 24" width="32" xmlns="http://www.w3.org/2000/svg" xmlns:xlink="http://www.w3.org/1999/xlink"><linearGradient id="a"><stop offset="0" stop-opacity=".314"/><stop offset=".222" stop-opacity=".275"/><stop offset="1" stop-opacity="0"/></linearGradient><radialGradient id="b" cx="450.909" cy="189.579" gradientTransform="matrix(0 -.0586 -.10548 0 31.656 47.696)" gradientUnits="userSpaceOnUse" r="21.167" xlink:href="#a"/><radialGradient id="c" cx="450.909" cy="189.579" gradientTransform="matrix(0 .0586 .10548 0 -7.841 -5.646)" gradientUnits="userSpaceOnUse" r="21.167" xlink:href="#a"/><radialGradient id="d" cx="450.909" cy="189.579" gradientTransform="matrix(0 -.0586 .10548 0 -7.841 47.696)" gradientUnits="userSpaceOnUse" r="21.167" xlink:href="#a"/><radialGradient id="e" cx="450.909" cy="189.579" gradientTransform="matrix(0 .0586 -.10548 0 31.656 -5.646)" gradientUnits="userSpaceOnUse" r="21.167" xlink:href="#a"/><linearGradient id="f" gradientUnits="userSpaceOnUse" x1="12.89982896" x2="12.89982896" y1="21.02648" y2="2.17289104"><stop offset="0" stop-color="#424242"/><stop offset="1" stop-color="#616161"/></linearGradient><linearGradient id="g" gradientUnits="userSpaceOnUse" x1="11.90752" x2="11.90752" y1="21.02648" y2="2.17289104"><stop offset="0" stop-color="#ef5350"/><stop offset="1" stop-color="#e57373"/></linearGradient><path d="m11.906 21.027h1.985v-.996h-1.985zm0 0" fill="url(#b)"/><path d="m11.906 21.027h-1.984v.993h1.984zm0 0" fill="url(#c)"/><path d="m11.906 21.027h-1.984v-.996h1.984zm0 0" fill="url(#d)"/><path d="m11.906 21.027h1.985v.993h-1.985zm0 0" fill="url(#e)"/><path d="m11.926 2.172a.722.722 0 0 0 -.39.101l-7.693 4.465a.743.743 0 0 0 -.371.645v8.433c0 .266.14.512.37.645l7.692 4.465c.23.133.516.133.746 0l7.692-4.465a.748.748 0 0 0 .367-.645v-8.433a.748.748 0 0 0 -.367-.645l-7.692-4.465a.763.763 0 0 0 -.355-.101zm0 0" fill="url(#f)"/><path d="m11.926 2.172a.722.722 0 0 0 -.39.101l-7.693 4.465a.743.743 0 0 0 -.371.645v8.433c0 .266.14.512.37.645l7.692 4.465c.23.133.516.133.746 0l7.692-4.465a.748.748 0 0 0 .367-.645v-8.433a.748.748 0 0 0 -.367-.645l-7.692-4.465a.763.763 0 0 0 -.355-.101zm-.02 1.605 6.946 4.032v7.578l-6.946 4.035-6.945-4.035v-7.578zm0 0" fill="url(#g)"/><path d="m10.168 8.535c-.984-.008-1.93.711-2.16 1.68-.09.363-.086.738-.035 1.094.218.832.808 1.492 1.379 2.109.765.785 1.597 1.523 2.554 2.066.957-.543 1.79-1.28 2.559-2.066.566-.617 1.16-1.277 1.379-2.11.047-.355.054-.73-.04-1.093-.226-.969-1.171-1.688-2.16-1.68-.062 0-.128.004-.195.012a2.238 2.238 0 0 0 -1.543.82 2.23 2.23 0 0 0 -1.539-.82 1.704 1.704 0 0 0 -.199-.012zm0 0" fill="url(#g)"/><path d="m10.168 8.535c-.984-.008-1.93.711-2.16 1.68a2.616 2.616 0 0 0 -.067.738c.004-.164.028-.328.067-.492.23-.969 1.176-1.684 2.16-1.676.066 0 .133.004.2.012a2.225 2.225 0 0 1 1.538.816c.375-.465.946-.77 1.543-.816.067-.008.133-.012.196-.012.988-.008 1.933.707 2.16 1.676.043.164.062.328.07.492a2.619 2.619 0 0 0 -.07-.738c-.227-.969-1.172-1.688-2.16-1.68-.063 0-.13.004-.196.012a2.238 2.238 0 0 0 -1.543.82 2.23 2.23 0 0 0 -1.539-.82 1.704 1.704 0 0 0 -.199-.012zm0 0" fill="#fff" fill-opacity=".392"/><path d="m7.941 10.684c-.011.21.004.421.032.625.218.832.808 1.492 1.379 2.109.765.785 1.597 1.523 2.554 2.066.957-.543 1.79-1.28 2.559-2.066.566-.617 1.16-1.277 1.379-2.11.027-.203.039-.413.031-.624a4.662 4.662 0 0 1 -.031.336c-.219.832-.813 1.492-1.38 2.109-.769.781-1.6 1.523-2.558 2.066-.957-.543-1.789-1.285-2.554-2.066-.57-.617-1.16-1.277-1.38-2.11a3.156 3.156 0 0 1 -.03-.335zm0 0" fill-opacity=".235"/><path d="m10.168 8.465c-1.02-.008-1.992.73-2.227 1.73-.093.38-.09.762-.039 1.125v.008c.227.852.828 1.524 1.395 2.14.773.786 1.61 1.532 2.574 2.079.024.012.05.012.07 0 .965-.547 1.805-1.293 2.575-2.078.57-.617 1.171-1.29 1.394-2.14 0-.005.004-.005.004-.009a3.043 3.043 0 0 0 -.039-1.125c-.238-1-1.207-1.738-2.23-1.73-.067 0-.133.008-.204.012-.59.05-1.148.34-1.535.785a2.317 2.317 0 0 0 -1.535-.785c-.066-.004-.133-.012-.203-.012zm0 .14c.062 0 .129.004.191.012a2.15 2.15 0 0 1 1.493.793c.015.016.035.027.054.027a.068.068 0 0 0 .055-.027 2.165 2.165 0 0 1 1.492-.793c.067-.008.129-.012.195-.012.95-.007 1.872.692 2.09 1.625.086.352.082.72.035 1.067-.214.805-.793 1.46-1.359 2.074-.758.77-1.574 1.496-2.508 2.031-.933-.535-1.75-1.261-2.504-2.03-.566-.614-1.144-1.27-1.359-2.075a2.729 2.729 0 0 1 .035-1.067c.219-.933 1.137-1.632 2.09-1.625zm0 0" fill="#212121"/><path d="m11.926 2.172a.722.722 0 0 0 -.39.101l-7.693 4.465a.743.743 0 0 0 -.371.645v.246c0-.266.14-.512.37-.645l7.692-4.464a.754.754 0 0 1 .746 0l7.692 4.464a.748.748 0 0 1 .367.645v-.246a.748.748 0 0 0 -.367-.645l-7.692-4.465a.763.763 0 0 0 -.355-.101zm-6.966 13.215v.25l6.945 4.031 6.946-4.031v-.25l-6.946 4.035zm0 0" fill="#fff" fill-opacity=".392"/><path d="m11.926 21.027a.758.758 0 0 1 -.39-.101l-7.693-4.466a.743.743 0 0 1 -.371-.645v-.246c0 .262.14.508.37.64l7.692 4.466c.117.07.254.105.39.101a.763.763 0 0 0 .356-.101l7.692-4.465a.746.746 0 0 0 .367-.64v.245c0 .266-.14.512-.367.645l-7.692 4.465a.763.763 0 0 1 -.355.101zm-6.966-13.217v-.247l6.945-4.03 6.946 4.03v.247l-6.946-4.032zm0 0" fill-opacity=".235"/><path d="m11.93 2.102a.82.82 0 0 0 -.43.109l-7.691 4.465a.822.822 0 0 0 -.407.707v8.433c0 .29.157.559.407.704l7.691 4.464c.25.149.563.149.816 0l7.692-4.464a.812.812 0 0 0 .402-.704v-8.433a.818.818 0 0 0 -.402-.707l-7.692-4.466a.835.835 0 0 0 -.386-.11zm-.004.14a.705.705 0 0 1 .32.09l7.691 4.465a.675.675 0 0 1 .333.586v8.433c0 .239-.125.461-.332.582l-7.692 4.465a.674.674 0 0 1 -.676 0l-7.69-4.465a.677.677 0 0 1 -.336-.582v-8.433c0-.242.129-.465.336-.586l7.691-4.465a.66.66 0 0 1 .356-.09zm-.016 1.465c-.015 0-.027.004-.039.008l-6.945 4.035a.073.073 0 0 0 -.035.059v7.578c0 .027.015.05.035.062l6.945 4.031c.024.016.05.016.07 0l6.95-4.03c.02-.012.03-.036.03-.063v-7.578a.069.069 0 0 0 -.03-.059l-6.95-4.035a.074.074 0 0 0 -.03-.008zm-.004.152 6.875 3.993v7.496l-6.875 3.992-6.875-3.992v-7.496zm0 0" fill="#212121"/><path d="m8.84 9.688.004-.004c.386-.387.883-.512 1.113-.286l.047.051c.23.227.101.727-.285 1.114l-.004.003c-.387.387-.883.516-1.113.286l-.052-.052c-.227-.227-.098-.727.289-1.114zm0 0" fill="#fff" fill-opacity=".235"/></svg>