<?xml version="1.0" encoding="UTF-8"?>
<svg xmlns="http://www.w3.org/2000/svg" xmlns:xlink="http://www.w3.org/1999/xlink" width="16pt" height="16pt" viewBox="0 0 16 16" version="1.1">
<g id="surface1">
<path style=" stroke:none;fill-rule:nonzero;fill:rgb(25.882354%,25.882354%,25.882354%);fill-opacity:1;" d="M 0.660156 0.785156 L 0.660156 3.433594 L 1.984375 3.433594 L 1.984375 2.109375 L 3.308594 2.109375 L 3.308594 0.785156 Z M 12.570312 0.785156 L 12.570312 2.109375 L 13.890625 2.109375 L 13.890625 3.433594 L 15.214844 3.433594 L 15.214844 0.785156 Z M 0.660156 12.695312 L 0.660156 15.339844 L 3.308594 15.339844 L 3.308594 14.015625 L 1.984375 14.015625 L 1.984375 12.695312 Z M 13.890625 12.695312 L 13.890625 14.015625 L 12.570312 14.015625 L 12.570312 15.339844 L 15.214844 15.339844 L 15.214844 12.695312 Z M 13.890625 12.695312 "/>
<path style=" stroke:none;fill-rule:nonzero;fill:rgb(25.882354%,25.882354%,25.882354%);fill-opacity:0.196078;" d="M 2.644531 2.769531 L 2.644531 7.402344 L 7.277344 7.402344 L 7.277344 2.769531 Z M 3.96875 4.09375 L 5.953125 4.09375 L 5.953125 6.078125 L 3.96875 6.078125 Z M 3.96875 4.09375 "/>
<path style=" stroke:none;fill-rule:nonzero;fill:rgb(25.882354%,25.882354%,25.882354%);fill-opacity:0.196078;" d="M 8.601562 2.769531 L 8.601562 7.402344 L 13.230469 7.402344 L 13.230469 2.769531 Z M 9.921875 4.09375 L 11.90625 4.09375 L 11.90625 6.078125 L 9.921875 6.078125 Z M 9.921875 4.09375 "/>
<path style=" stroke:none;fill-rule:nonzero;fill:rgb(25.882354%,25.882354%,25.882354%);fill-opacity:0.196078;" d="M 2.644531 8.726562 L 2.644531 13.355469 L 7.277344 13.355469 L 7.277344 8.726562 Z M 3.96875 10.046875 L 5.953125 10.046875 L 5.953125 12.03125 L 3.96875 12.03125 Z M 3.96875 10.046875 "/>
<path style=" stroke:none;fill-rule:nonzero;fill:rgb(25.882354%,25.882354%,25.882354%);fill-opacity:0.196078;" d="M 8.601562 8.726562 L 8.601562 13.355469 L 13.230469 13.355469 L 13.230469 8.726562 Z M 9.921875 10.046875 L 11.90625 10.046875 L 11.90625 12.03125 L 9.921875 12.03125 Z M 9.921875 10.046875 "/>
</g>
</svg>
