<?xml version="1.0" encoding="UTF-8"?>
<svg xmlns="http://www.w3.org/2000/svg" xmlns:xlink="http://www.w3.org/1999/xlink" width="16pt" height="16pt" viewBox="0 0 16 16" version="1.1">
<g id="surface1">
<path style=" stroke:none;fill-rule:nonzero;fill:rgb(25.882354%,25.882354%,25.882354%);fill-opacity:1;" d="M 0.660156 0.785156 L 0.660156 6.738281 L 6.613281 6.738281 L 6.613281 0.785156 Z M 0.660156 0.785156 "/>
<path style=" stroke:none;fill-rule:nonzero;fill:rgb(25.882354%,25.882354%,25.882354%);fill-opacity:1;" d="M 0.660156 9.386719 L 0.660156 15.339844 L 6.613281 15.339844 L 6.613281 9.386719 Z M 1.984375 10.710938 L 5.292969 10.710938 L 5.292969 14.015625 L 1.984375 14.015625 Z M 1.984375 10.710938 "/>
<path style=" stroke:none;fill-rule:nonzero;fill:rgb(25.882354%,25.882354%,25.882354%);fill-opacity:1;" d="M 7.9375 1.449219 L 15.214844 1.449219 L 15.214844 2.769531 L 7.9375 2.769531 Z M 7.9375 1.449219 "/>
<path style=" stroke:none;fill-rule:nonzero;fill:rgb(25.882354%,25.882354%,25.882354%);fill-opacity:1;" d="M 7.9375 13.355469 L 15.214844 13.355469 L 15.214844 14.679688 L 7.9375 14.679688 Z M 7.9375 13.355469 "/>
<path style=" stroke:none;fill-rule:nonzero;fill:rgb(25.882354%,25.882354%,25.882354%);fill-opacity:1;" d="M 7.9375 5.417969 L 15.214844 5.417969 L 15.214844 6.738281 L 7.9375 6.738281 Z M 7.9375 5.417969 "/>
<path style=" stroke:none;fill-rule:nonzero;fill:rgb(25.882354%,25.882354%,25.882354%);fill-opacity:1;" d="M 7.9375 9.386719 L 15.214844 9.386719 L 15.214844 10.710938 L 7.9375 10.710938 Z M 7.9375 9.386719 "/>
</g>
</svg>
