<svg xmlns="http://www.w3.org/2000/svg" width="256pt" height="256pt" viewBox="0 0 256 256"><defs><radialGradient id="a" gradientUnits="userSpaceOnUse" cx="450.909" cy="189.579" fx="450.909" fy="189.579" r="21.167" gradientTransform="matrix(0 -.62506 -1.1251 0 356.185 508.763)"><stop offset="0" stop-opacity=".314"/><stop offset=".222" stop-opacity=".275"/><stop offset="1" stop-opacity="0"/></radialGradient><radialGradient id="b" gradientUnits="userSpaceOnUse" cx="450.909" cy="189.579" fx="450.909" fy="189.579" r="21.167" gradientTransform="matrix(0 .62506 1.1251 0 -102.16 -60.22)"><stop offset="0" stop-opacity=".314"/><stop offset=".222" stop-opacity=".275"/><stop offset="1" stop-opacity="0"/></radialGradient><radialGradient id="c" gradientUnits="userSpaceOnUse" cx="450.909" cy="189.579" fx="450.909" fy="189.579" r="21.167" gradientTransform="matrix(0 -.62506 1.1251 0 -102.16 508.763)"><stop offset="0" stop-opacity=".314"/><stop offset=".222" stop-opacity=".275"/><stop offset="1" stop-opacity="0"/></radialGradient><radialGradient id="d" gradientUnits="userSpaceOnUse" cx="450.909" cy="189.579" fx="450.909" fy="189.579" r="21.167" gradientTransform="matrix(0 .62506 -1.1251 0 356.185 -60.22)"><stop offset="0" stop-opacity=".314"/><stop offset=".222" stop-opacity=".275"/><stop offset="1" stop-opacity="0"/></radialGradient><linearGradient id="e" gradientUnits="userSpaceOnUse" x1="255.323" y1="233.5" x2="255.323" y2="254.667" gradientTransform="matrix(.10688 0 0 .50005 99.723 107.51)"><stop offset="0" stop-opacity=".275"/><stop offset="1" stop-opacity="0"/></linearGradient><linearGradient id="f" gradientUnits="userSpaceOnUse" x1="254" y1="-20.5" x2="254" y2="233.5" gradientTransform="matrix(.50005 0 0 .50005 0 107.51)"><stop offset="0" stop-color="#616161"/><stop offset="1" stop-color="#424242"/></linearGradient><linearGradient id="g" gradientUnits="userSpaceOnUse" x1="960" y1="735.118" x2="960" y2="175.118" gradientTransform="scale(.1323)"><stop offset="0" stop-color="#616161"/><stop offset="1" stop-color="#757575"/></linearGradient><linearGradient id="h" gradientUnits="userSpaceOnUse" x1="960" y1="735.118" x2="960" y2="175.118" gradientTransform="scale(.1323)"><stop offset="0" stop-color="#616161"/><stop offset="1" stop-color="#757575"/></linearGradient><linearGradient id="i" gradientUnits="userSpaceOnUse" x1="254" y1="64.167" x2="254" y2="-41.667" gradientTransform="translate(0 -42.333)"><stop offset="0" stop-color="#616161"/><stop offset="1" stop-color="#9e9e9e"/></linearGradient></defs><path d="M105.844 23.168h42.336c29.23 0 52.922 23.695 52.922 52.922v95.262c0 29.226-23.692 52.918-52.922 52.918h-42.336c-29.227 0-52.922-23.692-52.922-52.918V76.09c0-29.227 23.695-52.922 52.922-52.922zm0 0" fill="#fbc02d" stroke-width="1.50015" stroke-linecap="square" stroke-linejoin="round" stroke="#212121"/><path d="M145.535 224.27h21.168v-10.583h-21.168zm0 0" fill="url(#a)"/><path d="M108.488 224.27H87.32v10.585h21.168zm0 0" fill="url(#b)"/><path d="M108.488 224.27H87.32v-10.583h21.168zm0 0" fill="url(#c)"/><path d="M145.535 224.27h21.168v10.585h-21.168zm0 0" fill="url(#d)"/><path d="M108.488 221.625h37.047v13.23h-37.047zm0 0" fill="url(#e)"/><path d="M105.844 23.168c-29.32 0-52.922 23.605-52.922 52.922v31.754a10.562 10.562 0 0 1 10.586 10.586v52.918a10.561 10.561 0 0 1-9.547 10.535c4.86 24.238 26.172 42.387 51.883 42.387h42.336c25.71 0 47.023-18.149 51.882-42.387a10.558 10.558 0 0 1-9.542-10.535V118.43a10.559 10.559 0 0 1 10.582-10.586V76.09c0-29.317-23.602-52.922-52.922-52.922zm0 0" fill="url(#f)"/><path d="M105.844 23.168c-29.32 0-52.922 23.605-52.922 52.922v21.168h148.18V76.09c0-29.317-23.602-52.922-52.922-52.922zm0 0" fill="url(#g)"/><path d="M105.844 23.168c-29.32 0-52.922 23.605-52.922 52.922v21.168h74.09v-74.09zm0 0" fill="url(#h)"/><path d="M128.336 23.168v74.09h-1.324v-74.09zm0 0" fill-opacity=".196"/><path d="M127.012 23.168v74.09h-1.325v-74.09zm0 0" fill="#e6e6e6" fill-opacity=".588"/><path d="M127.672 23.168v74.09h-1.32v-74.09zm0 0" fill="#212121" fill-opacity=".992"/><path d="M52.922 95.938h148.18v1.32H52.922zm0 0" fill-opacity=".196"/><path d="M52.922 97.258h148.18v1.324H52.922zm0 0" fill="#e6e6e6" fill-opacity=".588"/><path d="M52.922 96.598h148.18v1.324H52.922zm0 0" fill="#212121" fill-opacity=".992"/><path d="M254-83.997c11.693 0 21.169 4.734 21.169 10.577v84.672c0 5.843-9.476 10.585-21.17 10.585-11.686 0-21.162-4.742-21.162-10.585V-73.42c0-5.843 9.476-10.577 21.162-10.577zm0 0" transform="matrix(.50005 0 0 .50005 0 107.51)" fill="url(#i)" stroke-width="3" stroke-linecap="square" stroke-linejoin="round" stroke="#212121"/><path d="M137.207 184.785a10.585 10.585 0 0 1-10.883 7.711 10.586 10.586 0 1 1 9.668-16.168l-8.98 5.606zm0 0" fill="#fbc02d" stroke-width="1.50015" stroke-linecap="square" stroke-linejoin="round" stroke="#212121"/><path d="M105.844 22.46c-29.32 0-52.922 23.602-52.922 52.923v2.644c0-29.316 23.601-52.922 52.922-52.922h42.336c29.32 0 52.922 23.606 52.922 52.922v-2.644c0-29.32-23.602-52.922-52.922-52.922zM63.508 170.64a10.564 10.564 0 0 1-9.547 10.536c.176.863.371 1.722.586 2.57a10.559 10.559 0 0 0 8.96-10.457zm127.012 0v2.65c0 5.308 3.87 9.679 8.957 10.456.214-.848.414-1.707.585-2.57a10.558 10.558 0 0 1-9.542-10.535zm0 0" fill="#fff" fill-opacity=".314"/><path d="M53.906 105.926v2.594a10.564 10.564 0 0 1 10.586 10.585v-2.597a10.561 10.561 0 0 0-10.586-10.582zm148.18 0a10.558 10.558 0 0 0-10.582 10.582v2.597a10.561 10.561 0 0 1 10.582-10.585zM55.52 182.488c-.192.028-.38.055-.575.07 4.86 24.239 26.172 42.391 51.883 42.391h42.336c25.711 0 47.024-18.152 51.883-42.39a9.593 9.593 0 0 1-.574-.07 52.793 52.793 0 0 1-51.309 39.863h-42.336a52.797 52.797 0 0 1-51.308-39.864zm0 0" fill-opacity=".314"/><path d="M105.844 22.418c-29.723 0-53.672 23.953-53.672 53.672v31.754c0 .414.336.75.75.75a9.797 9.797 0 0 1 9.836 9.836v52.918a9.799 9.799 0 0 1-8.867 9.789.748.748 0 0 0-.664.895c4.925 24.581 26.554 42.988 52.617 42.988h42.336c26.062 0 47.691-18.407 52.617-42.989a.748.748 0 0 0-.664-.894 9.798 9.798 0 0 1-8.863-9.79V118.43a9.794 9.794 0 0 1 9.832-9.836.75.75 0 0 0 .75-.75V76.09c0-29.719-23.95-53.672-53.672-53.672zm0 1.5h42.336c28.918 0 52.172 23.258 52.172 52.172v31.043c-5.915.387-10.582 5.281-10.582 11.297v52.918a11.317 11.317 0 0 0 9.382 11.16c-5.082 23.504-25.89 41.012-50.972 41.012h-42.336c-25.082 0-45.89-17.508-50.973-41.012 5.336-.922 9.387-5.559 9.387-11.16V118.43c0-6.016-4.672-10.91-10.586-11.297V76.09c0-28.914 23.254-52.172 52.172-52.172zm0 0" fill="#212121"/></svg>