<?xml version="1.0" encoding="UTF-8"?>
<svg xmlns="http://www.w3.org/2000/svg" xmlns:xlink="http://www.w3.org/1999/xlink" width="48px" height="48px" viewBox="0 0 48 48" version="1.1">
<defs>
<radialGradient id="radial0" gradientUnits="userSpaceOnUse" cx="450.908936" cy="189.579361" fx="450.908936" fy="189.579361" r="21.166656" gradientTransform="matrix(0.000000261256,-0.117199,-0.210958,-0.000000152308,66.784728,95.392994)">
<stop offset="0" style="stop-color:rgb(0%,0%,0%);stop-opacity:0.313726;"/>
<stop offset="0.222222" style="stop-color:rgb(0%,0%,0%);stop-opacity:0.27451;"/>
<stop offset="1" style="stop-color:rgb(0%,0%,0%);stop-opacity:0;"/>
</radialGradient>
<radialGradient id="radial1" gradientUnits="userSpaceOnUse" cx="450.908936" cy="189.579361" fx="450.908936" fy="189.579361" r="21.166656" gradientTransform="matrix(-0.000000261256,0.117199,0.210958,0.000000152308,-19.155178,-11.291223)">
<stop offset="0" style="stop-color:rgb(0%,0%,0%);stop-opacity:0.313726;"/>
<stop offset="0.222222" style="stop-color:rgb(0%,0%,0%);stop-opacity:0.27451;"/>
<stop offset="1" style="stop-color:rgb(0%,0%,0%);stop-opacity:0;"/>
</radialGradient>
<radialGradient id="radial2" gradientUnits="userSpaceOnUse" cx="450.908936" cy="189.579361" fx="450.908936" fy="189.579361" r="21.166656" gradientTransform="matrix(-0.000000261256,-0.117199,0.210958,-0.000000152308,-19.155178,95.392994)">
<stop offset="0" style="stop-color:rgb(0%,0%,0%);stop-opacity:0.313726;"/>
<stop offset="0.222222" style="stop-color:rgb(0%,0%,0%);stop-opacity:0.27451;"/>
<stop offset="1" style="stop-color:rgb(0%,0%,0%);stop-opacity:0;"/>
</radialGradient>
<radialGradient id="radial3" gradientUnits="userSpaceOnUse" cx="450.908936" cy="189.579361" fx="450.908936" fy="189.579361" r="21.166656" gradientTransform="matrix(0.000000261256,0.117199,-0.210958,0.000000152308,66.784725,-11.291224)">
<stop offset="0" style="stop-color:rgb(0%,0%,0%);stop-opacity:0.313726;"/>
<stop offset="0.222222" style="stop-color:rgb(0%,0%,0%);stop-opacity:0.27451;"/>
<stop offset="1" style="stop-color:rgb(0%,0%,0%);stop-opacity:0;"/>
</radialGradient>
<linearGradient id="linear0" gradientUnits="userSpaceOnUse" x1="255.323059" y1="233.5" x2="255.323044" y2="254.666656" gradientTransform="matrix(0.0200401,0,0,0.093759,18.698079,20.158175)">
<stop offset="0" style="stop-color:rgb(0%,0%,0%);stop-opacity:0.27451;"/>
<stop offset="1" style="stop-color:rgb(0%,0%,0%);stop-opacity:0;"/>
</linearGradient>
<linearGradient id="linear1" gradientUnits="userSpaceOnUse" x1="254" y1="-168.666672" x2="254" y2="233.5" gradientTransform="matrix(1,0,0,1,0,0)">
<stop offset="0" style="stop-color:rgb(68.235296%,83.529413%,50.588238%);stop-opacity:1;"/>
<stop offset="1" style="stop-color:rgb(61.176473%,80.000001%,39.607844%);stop-opacity:1;"/>
</linearGradient>
<linearGradient id="linear2" gradientUnits="userSpaceOnUse" x1="264.583344" y1="-168.666656" x2="264.583344" y2="233.5" gradientTransform="matrix(0.093759,0,0,0.093759,0,20.158174)">
<stop offset="0" style="stop-color:rgb(93.333334%,93.333334%,93.333334%);stop-opacity:1;"/>
<stop offset="1" style="stop-color:rgb(87.843138%,87.843138%,87.843138%);stop-opacity:1;"/>
</linearGradient>
</defs>
<g id="surface1">
<path style=" stroke:none;fill-rule:nonzero;fill:url(#radial0);" d="M 27.289062 42.050781 L 31.257812 42.050781 L 31.257812 40.066406 L 27.289062 40.066406 Z M 27.289062 42.050781 "/>
<path style=" stroke:none;fill-rule:nonzero;fill:url(#radial1);" d="M 20.339844 42.050781 L 16.371094 42.050781 L 16.371094 44.035156 L 20.339844 44.035156 Z M 20.339844 42.050781 "/>
<path style=" stroke:none;fill-rule:nonzero;fill:url(#radial2);" d="M 20.339844 42.050781 L 16.371094 42.050781 L 16.371094 40.066406 L 20.339844 40.066406 Z M 20.339844 42.050781 "/>
<path style=" stroke:none;fill-rule:nonzero;fill:url(#radial3);" d="M 27.289062 42.050781 L 31.257812 42.050781 L 31.257812 44.035156 L 27.289062 44.035156 Z M 27.289062 42.050781 "/>
<path style=" stroke:none;fill-rule:nonzero;fill:url(#linear0);" d="M 20.339844 41.554688 L 27.289062 41.554688 L 27.289062 44.035156 L 20.339844 44.035156 Z M 20.339844 41.554688 "/>
<path style="fill-rule:nonzero;fill:url(#linear1);stroke-width:3;stroke-linecap:round;stroke-linejoin:miter;stroke:rgb(20%,20%,20%);stroke-opacity:1;stroke-miterlimit:4;" d="M 254.017409 -168.671091 C 365.048473 -168.671091 455.081542 -78.638022 455.081542 32.434704 C 455.081542 143.465768 365.048473 233.498837 254.017409 233.498837 C 142.944683 233.498837 52.911614 143.465768 52.911614 32.434704 C 52.911614 -78.638022 142.944683 -168.671091 254.017409 -168.671091 Z M 254.017409 -168.671091 " transform="matrix(0.093759,0,0,0.093759,0,20.158175)"/>
<path style=" stroke:none;fill-rule:nonzero;fill:rgb(0%,0%,0%);fill-opacity:0.196078;" d="M 23.816406 42.050781 C 13.371094 42.050781 4.960938 33.640625 4.960938 23.199219 C 4.960938 23.136719 4.960938 23.074219 4.960938 23.011719 C 5.0625 33.371094 13.433594 41.679688 23.816406 41.679688 C 34.199219 41.679688 42.570312 33.371094 42.667969 23.011719 C 42.667969 23.074219 42.667969 23.136719 42.667969 23.199219 C 42.667969 33.640625 34.257812 42.050781 23.816406 42.050781 Z M 23.816406 42.050781 "/>
<path style=" stroke:none;fill-rule:nonzero;fill:rgb(100%,100%,100%);fill-opacity:0.392157;" d="M 23.816406 4.34375 C 13.371094 4.34375 4.960938 12.753906 4.960938 23.199219 C 4.960938 23.257812 4.960938 23.320312 4.960938 23.382812 C 5.0625 13.023438 13.433594 4.714844 23.816406 4.714844 C 34.199219 4.714844 42.570312 13.023438 42.667969 23.382812 C 42.667969 23.320312 42.667969 23.257812 42.667969 23.199219 C 42.667969 12.753906 34.257812 4.34375 23.816406 4.34375 Z M 23.816406 4.34375 "/>
<path style=" stroke:none;fill-rule:nonzero;fill:rgb(12.941177%,12.941177%,12.941177%);fill-opacity:1;" d="M 23.816406 4.203125 C 13.292969 4.203125 4.820312 12.675781 4.820312 23.199219 C 4.820312 33.71875 13.292969 42.191406 23.816406 42.191406 C 34.335938 42.191406 42.808594 33.71875 42.808594 23.199219 C 42.808594 12.675781 34.335938 4.203125 23.816406 4.203125 Z M 23.816406 4.484375 C 34.183594 4.484375 42.527344 12.828125 42.527344 23.199219 C 42.527344 33.566406 34.183594 41.910156 23.816406 41.910156 C 13.445312 41.910156 5.101562 33.566406 5.101562 23.199219 C 5.101562 12.828125 13.445312 4.484375 23.816406 4.484375 Z M 23.816406 4.484375 "/>
<path style=" stroke:none;fill-rule:nonzero;fill:url(#linear2);" d="M 23.738281 10.136719 C 20.128906 10.136719 16.875 11.597656 14.53125 13.96875 L 16.292969 15.050781 C 18.25 13.257812 20.859375 12.160156 23.738281 12.160156 C 29.828125 12.160156 34.730469 17.066406 34.730469 23.15625 L 34.730469 24.070312 C 34.730469 30.160156 29.828125 35.0625 23.738281 35.0625 C 20.359375 35.0625 17.34375 33.554688 15.328125 31.167969 L 13.539062 32.132812 C 15.902344 35.152344 19.585938 37.089844 23.738281 37.089844 C 30.90625 37.089844 36.675781 31.320312 36.675781 24.152344 L 36.675781 23.074219 C 36.675781 15.90625 30.90625 10.136719 23.738281 10.136719 Z M 10.898438 13.761719 C 10.878906 13.761719 10.863281 13.761719 10.84375 13.761719 C 10.042969 13.800781 9.417969 14.460938 9.417969 15.257812 L 9.417969 30.144531 C 9.417969 31.277344 10.628906 32 11.625 31.460938 L 24.523438 24.515625 C 25.539062 23.96875 25.582031 22.527344 24.601562 21.921875 L 11.699219 13.984375 C 11.460938 13.835938 11.179688 13.757812 10.898438 13.761719 Z M 23.738281 14.230469 C 21.613281 14.230469 19.664062 14.957031 18.125 16.179688 L 19.984375 17.324219 C 21.070312 16.644531 22.355469 16.25 23.738281 16.25 C 27.652344 16.25 30.804688 19.402344 30.804688 23.316406 L 30.804688 23.90625 C 30.804688 27.820312 27.652344 30.972656 23.738281 30.972656 C 21.921875 30.972656 20.273438 30.296875 19.023438 29.179688 L 17.175781 30.175781 C 18.816406 31.914062 21.144531 32.996094 23.738281 32.996094 C 28.726562 32.996094 32.746094 28.980469 32.746094 23.988281 L 32.746094 23.238281 C 32.746094 18.246094 28.726562 14.230469 23.738281 14.230469 Z M 23.738281 14.230469 "/>
<path style=" stroke:none;fill-rule:nonzero;fill:rgb(100%,100%,100%);fill-opacity:1;" d="M 23.738281 10.136719 C 20.128906 10.136719 16.875 11.597656 14.53125 13.96875 L 15.109375 14.324219 C 17.394531 12.28125 20.417969 11.042969 23.738281 11.042969 C 30.902344 11.042969 36.671875 16.808594 36.675781 23.972656 L 36.675781 23.074219 C 36.675781 15.90625 30.90625 10.136719 23.738281 10.136719 Z M 10.898438 13.761719 C 10.878906 13.761719 10.863281 13.761719 10.84375 13.761719 C 10.042969 13.800781 9.417969 14.460938 9.417969 15.257812 L 9.417969 16.164062 C 9.417969 15.367188 10.042969 14.707031 10.84375 14.667969 C 10.863281 14.667969 10.878906 14.667969 10.898438 14.667969 C 11.179688 14.664062 11.460938 14.742188 11.699219 14.890625 L 24.601562 22.828125 C 24.929688 23.03125 25.140625 23.324219 25.242188 23.648438 C 25.4375 23.03125 25.226562 22.308594 24.601562 21.921875 L 11.699219 13.984375 C 11.460938 13.835938 11.179688 13.757812 10.898438 13.761719 Z M 23.738281 14.230469 C 21.613281 14.230469 19.664062 14.957031 18.125 16.179688 L 18.804688 16.597656 C 20.21875 15.671875 21.914062 15.136719 23.738281 15.136719 C 28.695312 15.136719 32.691406 19.097656 32.746094 24.042969 C 32.746094 24.023438 32.746094 24.007812 32.746094 23.988281 L 32.746094 23.238281 C 32.746094 18.246094 28.726562 14.230469 23.738281 14.230469 Z M 30.796875 24.191406 C 30.652344 27.972656 27.558594 30.972656 23.738281 30.972656 C 21.921875 30.972656 20.273438 30.296875 19.023438 29.179688 L 17.175781 30.175781 C 17.367188 30.378906 17.570312 30.570312 17.78125 30.753906 L 19.023438 30.085938 C 20.273438 31.203125 21.921875 31.878906 23.738281 31.878906 C 27.558594 31.878906 30.652344 28.878906 30.796875 25.097656 C 30.800781 25.136719 30.800781 25.179688 30.800781 25.222656 C 30.804688 25.171875 30.804688 25.117188 30.804688 25.0625 L 30.804688 24.472656 C 30.804688 24.378906 30.800781 24.285156 30.796875 24.191406 Z M 34.730469 24.191406 C 34.664062 30.222656 29.789062 35.0625 23.738281 35.0625 C 20.359375 35.0625 17.34375 33.554688 15.328125 31.167969 L 13.539062 32.132812 C 13.707031 32.347656 13.882812 32.554688 14.0625 32.757812 L 15.328125 32.074219 C 17.34375 34.460938 20.359375 35.96875 23.738281 35.96875 C 29.789062 35.96875 34.664062 31.128906 34.730469 25.097656 C 34.730469 25.136719 34.730469 25.175781 34.730469 25.214844 L 34.730469 24.308594 C 34.730469 24.269531 34.730469 24.230469 34.730469 24.191406 Z M 34.730469 24.191406 "/>
<path style=" stroke:none;fill-rule:nonzero;fill:rgb(0%,0%,0%);fill-opacity:0.235294;" d="M 23.738281 12.335938 C 20.859375 12.335938 18.25 13.429688 16.292969 15.226562 L 15.003906 14.433594 C 14.84375 14.582031 14.683594 14.730469 14.53125 14.886719 L 16.292969 15.972656 C 18.25 14.175781 20.859375 13.082031 23.738281 13.082031 C 29.773438 13.082031 34.640625 17.898438 34.730469 23.914062 C 34.730469 23.859375 34.730469 23.804688 34.730469 23.75 L 34.730469 23.007812 C 34.730469 23.058594 34.730469 23.113281 34.730469 23.167969 C 34.640625 17.152344 29.773438 12.335938 23.738281 12.335938 Z M 23.738281 16.425781 C 22.355469 16.425781 21.070312 16.820312 19.984375 17.5 L 18.679688 16.695312 C 18.488281 16.824219 18.304688 16.957031 18.125 17.097656 L 19.984375 18.242188 C 21.070312 17.5625 22.355469 17.171875 23.738281 17.171875 C 27.542969 17.171875 30.628906 20.148438 30.796875 23.914062 C 30.800781 23.804688 30.804688 23.695312 30.804688 23.585938 L 30.804688 22.996094 C 30.804688 22.972656 30.804688 22.945312 30.804688 22.921875 C 30.800781 23.003906 30.800781 23.085938 30.796875 23.167969 C 30.628906 19.40625 27.542969 16.425781 23.738281 16.425781 Z M 25.265625 23.746094 C 25.167969 24.128906 24.921875 24.476562 24.523438 24.691406 L 11.625 31.636719 C 10.628906 32.175781 9.417969 31.453125 9.417969 30.320312 L 9.417969 31.0625 C 9.417969 32.195312 10.628906 32.917969 11.625 32.382812 L 24.523438 25.4375 C 25.171875 25.085938 25.425781 24.371094 25.265625 23.746094 Z M 32.746094 24.164062 C 32.746094 29.152344 28.726562 33.171875 23.738281 33.171875 C 21.394531 33.171875 19.265625 32.285156 17.667969 30.832031 L 17.175781 31.09375 C 18.816406 32.832031 21.144531 33.914062 23.738281 33.914062 C 28.726562 33.914062 32.746094 29.898438 32.746094 24.90625 Z M 36.675781 24.328125 C 36.675781 31.496094 30.90625 37.265625 23.738281 37.265625 C 19.828125 37.265625 16.332031 35.546875 13.964844 32.824219 L 13.539062 33.050781 C 15.902344 36.074219 19.585938 38.007812 23.738281 38.007812 C 30.90625 38.007812 36.675781 32.238281 36.675781 25.070312 Z M 36.675781 24.328125 "/>
<path style="fill:none;stroke-width:11.338583;stroke-linecap:round;stroke-linejoin:round;stroke:rgb(12.941177%,12.941177%,12.941177%);stroke-opacity:1;stroke-miterlimit:4;" d="M 956.916543 408.622417 C 811.418619 408.622417 680.250036 467.514434 585.770864 563.095863 L 656.787708 606.713747 C 735.677816 534.437181 840.864628 490.189435 956.916543 490.189435 C 1202.404924 490.189435 1400.023858 687.965835 1400.023858 933.454216 L 1400.023858 970.301093 C 1400.023858 1215.789474 1202.404924 1413.408408 956.916543 1413.408408 C 820.709071 1413.408408 699.14587 1352.626807 617.893782 1256.415517 L 545.774681 1295.309443 C 641.04118 1417.030109 789.530944 1495.132891 956.916543 1495.132891 C 1245.865343 1495.132891 1478.441571 1262.556664 1478.441571 973.607864 L 1478.441571 930.147445 C 1478.441571 641.198645 1245.865343 408.622417 956.916543 408.622417 Z M 439.328148 554.750203 C 438.540822 554.750203 437.910961 554.750203 437.123634 554.750203 C 404.84325 556.324856 379.648805 582.936489 379.648805 615.059407 L 379.648805 1215.159612 C 379.648805 1260.824545 428.463043 1289.955623 468.616691 1268.225414 L 988.567066 988.252135 C 1029.50804 966.206995 1031.240158 908.102305 991.716372 883.695185 L 471.608532 563.725724 C 462.003149 557.742043 450.665649 554.592737 439.328148 554.750203 Z M 956.916543 573.646037 C 871.255428 573.646037 792.68025 602.93458 730.638927 652.221215 L 805.592403 698.358544 C 849.367753 670.959584 901.173832 655.05559 956.916543 655.05559 C 1114.69676 655.05559 1241.771246 782.130076 1241.771246 939.910292 L 1241.771246 963.687551 C 1241.771246 1121.467767 1114.69676 1248.542253 956.916543 1248.542253 C 883.695185 1248.542253 817.244835 1221.300759 766.855943 1176.265687 L 692.374863 1216.419335 C 758.510283 1286.491387 852.359593 1330.109271 956.916543 1330.109271 C 1157.999714 1330.109271 1320.031493 1168.234957 1320.031493 966.994322 L 1320.031493 936.760987 C 1320.031493 735.520351 1157.999714 573.646037 956.916543 573.646037 Z M 956.916543 573.646037 " transform="matrix(0.0248071,0,0,0.0248071,0,0)"/>
</g>
</svg>
