<svg xmlns="http://www.w3.org/2000/svg" width="24" height="24"><defs><linearGradient id="a" gradientUnits="userSpaceOnUse" x1="254" y1="233.5" x2="254" y2="254.667" gradientTransform="matrix(.04688 0 0 .04688 0 10.08)"><stop offset="0" stop-opacity=".275"/><stop offset="1" stop-opacity="0"/></linearGradient><radialGradient id="b" gradientUnits="userSpaceOnUse" cx="450.909" cy="189.579" fx="450.909" fy="189.579" r="21.167" gradientTransform="matrix(0 -.0586 -.10548 0 40.586 47.697)"><stop offset="0" stop-opacity=".314"/><stop offset=".222" stop-opacity=".275"/><stop offset="1" stop-opacity="0"/></radialGradient><radialGradient id="c" gradientUnits="userSpaceOnUse" cx="450.909" cy="189.579" fx="450.909" fy="189.579" r="21.167" gradientTransform="matrix(0 .0586 .10548 0 -16.772 -5.646)"><stop offset="0" stop-opacity=".314"/><stop offset=".222" stop-opacity=".275"/><stop offset="1" stop-opacity="0"/></radialGradient><radialGradient id="d" gradientUnits="userSpaceOnUse" cx="450.909" cy="189.579" fx="450.909" fy="189.579" r="21.167" gradientTransform="matrix(0 -.0586 .10548 0 -16.772 47.697)"><stop offset="0" stop-opacity=".314"/><stop offset=".222" stop-opacity=".275"/><stop offset="1" stop-opacity="0"/></radialGradient><radialGradient id="e" gradientUnits="userSpaceOnUse" cx="450.909" cy="189.579" fx="450.909" fy="189.579" r="21.167" gradientTransform="matrix(0 .0586 -.10548 0 40.586 -5.646)"><stop offset="0" stop-opacity=".314"/><stop offset=".222" stop-opacity=".275"/><stop offset="1" stop-opacity="0"/></radialGradient><linearGradient id="f" gradientUnits="userSpaceOnUse" x1="254" y1="-147.5" x2="254" y2="-31.083" gradientTransform="matrix(.04688 0 0 .04688 0 10.08)"><stop offset="0" stop-color="#a4a4a4" stop-opacity="0"/><stop offset="1" stop-color="#fff" stop-opacity=".196"/></linearGradient><linearGradient id="g" gradientUnits="userSpaceOnUse" x1="254" y1="233.5" x2="254" y2="-105.167" gradientTransform="matrix(.04688 0 0 .04688 0 10.08)"><stop offset="0" stop-color="#585858" stop-opacity="0"/><stop offset="1" stop-color="#fafafa" stop-opacity=".196"/></linearGradient><linearGradient id="h" gradientUnits="userSpaceOnUse" x1="254" y1="-147.5" x2="254" y2="233.5" gradientTransform="matrix(.04688 0 0 .04688 .024 10.131)"><stop offset="0" stop-color="#a4a4a4" stop-opacity="0"/><stop offset="1" stop-color="#fff" stop-opacity=".196"/></linearGradient></defs><path d="M2.977 21.027H20.84v.993H2.977zm0 0" fill="url(#a)"/><path d="M20.84 21.027h1.984v-.996H20.84zm0 0" fill="url(#b)"/><path d="M2.977 21.027H.992v.993h1.985zm0 0" fill="url(#c)"/><path d="M2.977 21.027H.992v-.996h1.985zm0 0" fill="url(#d)"/><path d="M20.84 21.027h1.984v.993H20.84zm0 0" fill="url(#e)"/><path d="M5.457 3.164h16.125c.547 0 .992.445.992.992V7.88a.994.994 0 0 1-.992.992H5.457a.994.994 0 0 1-.992-.992V4.156c0-.547.445-.992.992-.992zm0 0" fill="#7cb342"/><path d="M5.457 3.164h16.125c.547 0 .992.445.992.992V7.88a.994.994 0 0 1-.992.992H5.457a.994.994 0 0 1-.992-.992V4.156c0-.547.445-.992.992-.992zm0 0" fill="url(#f)"/><path d="M5.457 3.164a.989.989 0 0 0-.992.992v.125c0-.55.441-.992.992-.992h16.125c.55 0 .992.441.992.992v-.125a.989.989 0 0 0-.992-.992zm0 0" fill="#e6e6e6" fill-opacity=".588"/><path d="M5.457 3.094c-.586 0-1.062.476-1.062 1.062V7.88c0 .586.476 1.062 1.062 1.062h16.125c.586 0 1.063-.476 1.063-1.062V4.156c0-.586-.477-1.062-1.063-1.062zm0 .14h16.125c.512 0 .922.41.922.922V7.88c0 .512-.41.922-.922.922H5.457a.919.919 0 0 1-.922-.922V4.156c0-.511.41-.922.922-.922zm0 0" fill="#212121"/><path d="M1.984 5.148a.989.989 0 0 0-.992.993v13.89c0 .551.442.996.992.996h19.848a.994.994 0 0 0 .992-.996V7.63H9.426a.991.991 0 0 1-.992-.992V5.148zm0 0" fill="#9ccc65"/><path d="M1.984 5.148a.989.989 0 0 0-.992.993v13.89c0 .551.442.996.992.996h19.848a.994.994 0 0 0 .992-.996V7.63H9.426a.991.991 0 0 1-.992-.992V5.148zm0 0" fill="url(#g)"/><path d="M1.984 21.027a.992.992 0 0 1-.992-.996v-.12c0 .546.442.991.992.991h19.848a.994.994 0 0 0 .992-.992v.121c0 .551-.445.996-.992.996zm0 0" fill-opacity=".196"/><path d="M1.984 5.148a.989.989 0 0 0-.992.993v.125c0-.551.442-.993.992-.993h6.45v-.125zm0 0M9.363 7.691a.991.991 0 0 1-.992-.992v-.125c0 .551.445.996.992.992h13.461v.125zm0 0" fill="#e6e6e6" fill-opacity=".937"/><path d="M1.984 5.078c-.586 0-1.062.477-1.062 1.063v13.89c0 .59.476 1.067 1.062 1.067h19.848c.586 0 1.063-.477 1.063-1.067V7.488H9.425a.919.919 0 0 1-.921-.922V5.078zm0 .14h6.38v1.348c0 .59.476 1.063 1.062 1.063h13.328V20.03a.92.92 0 0 1-.922.926H1.984a.92.92 0 0 1-.921-.926V6.141c0-.512.41-.922.921-.922zm0 0" fill="#212121"/><path d="M14.25 9.742c-1.504 0-1.785 2.285-.941 2.285.847 0 2.449-2.285.941-2.285zm-2.32.352c-.024 0-.047 0-.075.004-.851.105-.554 1.55-.097 1.578.437.027.918-1.582.172-1.582zm-1.477.531a.381.381 0 0 0-.176.035c-.683.281-.101 1.442.282 1.363.347-.07.398-1.367-.106-1.398zm-1.121.95a.323.323 0 0 0-.191.07c-.551.41.183 1.402.507 1.246.282-.133.102-1.301-.316-1.317zm3.242.945c-1.187-.02-2.758.585-3.023 1.796-.293 1.313 1.191 3.133 2.738 3.133.762 0 1.637-.695 1.8-1.578.13-.672-1.472-.402-1.417.043.07.531-.387.797-.832.453-1.418-1.094 2.351-1.64 2.101-3.133-.078-.464-.652-.699-1.367-.714zm0 0" fill="#7cb342"/><path d="M14.25 9.742c-1.504 0-1.785 2.285-.941 2.285.847 0 2.449-2.285.941-2.285zm-2.32.352c-.024 0-.047 0-.075.004-.851.105-.554 1.55-.097 1.578.437.027.918-1.582.172-1.582zm-1.477.531a.381.381 0 0 0-.176.035c-.683.281-.101 1.442.282 1.363.347-.07.398-1.367-.106-1.398zm-1.121.95a.323.323 0 0 0-.191.07c-.551.41.183 1.402.507 1.246.282-.133.102-1.301-.316-1.317zm3.242.945c-1.187-.02-2.758.585-3.023 1.796-.293 1.313 1.191 3.133 2.738 3.133.762 0 1.637-.695 1.8-1.578.13-.672-1.472-.402-1.417.043.07.531-.387.797-.832.453-1.418-1.094 2.351-1.64 2.101-3.133-.078-.464-.652-.699-1.367-.714zm0 0" fill="url(#h)"/><path d="M14.25 9.672c-.395 0-.715.148-.95.375-.234.226-.39.523-.468.82-.082.297-.086.594-.012.824.04.118.098.22.18.293.082.07.188.114.309.114.246 0 .511-.153.761-.375.254-.22.492-.512.653-.805.164-.293.257-.59.203-.836a.47.47 0 0 0-.211-.3c-.113-.075-.266-.11-.465-.11zm0 .14c.18 0 .305.032.39.086a.323.323 0 0 1 .15.215c.042.184-.036.461-.188.739a3.02 3.02 0 0 1-.622.765c-.238.211-.492.34-.671.34a.309.309 0 0 1-.215-.078.579.579 0 0 1-.14-.23c-.063-.196-.063-.473.01-.747.075-.273.22-.55.434-.754.215-.203.493-.335.852-.335zm-2.563.208l.051.035a.609.609 0 0 0-.383.297 1.047 1.047 0 0 0-.109.57c.012.2.066.394.152.547.086.148.204.27.356.277.152.008.277-.113.379-.27.101-.156.183-.359.222-.566.043-.21.051-.418-.007-.59a.43.43 0 0 0-.418-.297zm.247.144c.16 0 .234.074.28.203.048.133.044.32.005.512-.04.191-.114.387-.203.523-.09.137-.188.207-.254.203-.078-.003-.168-.078-.239-.207a1.171 1.171 0 0 1-.136-.488.927.927 0 0 1 .09-.492.488.488 0 0 1 .386-.25c.028-.004.051-.004.07-.004zm-1.477.39a.561.561 0 0 0-.547.43.974.974 0 0 0 .04.516c.058.168.148.32.257.434.105.109.23.187.363.16.13-.028.207-.149.254-.29.051-.144.074-.32.07-.495a1.244 1.244 0 0 0-.101-.493.441.441 0 0 0-.27-.246v-.011zm-.008.141c.094.008.164.07.219.184.055.113.082.273.086.434.004.16-.02.324-.063.445-.039.12-.101.187-.148.199-.059.012-.148-.027-.234-.121a1.082 1.082 0 0 1-.227-.383.8.8 0 0 1-.035-.433.406.406 0 0 1 .258-.297.295.295 0 0 1 .144-.028zm-1.113.809a.397.397 0 0 0-.238.086.559.559 0 0 0-.227.445.934.934 0 0 0 .137.48c.082.15.191.274.305.36.117.086.25.137.367.082.11-.055.148-.176.168-.316.015-.141.007-.305-.028-.465a1.347 1.347 0 0 0-.164-.446c-.074-.12-.18-.214-.312-.222-.004 0-.004-.004-.008-.004zm-.004.14c.07.004.14.06.207.16.063.106.117.25.145.4.03.148.039.3.023.417-.016.121-.055.191-.09.207-.043.024-.125.004-.219-.066a.994.994 0 0 1-.27-.317.85.85 0 0 1-.116-.41.404.404 0 0 1 .172-.332.25.25 0 0 1 .148-.058zm3.242.805a4.082 4.082 0 0 0-1.89.446c-.586.304-1.063.773-1.204 1.406-.152.687.157 1.488.696 2.12.539.63 1.312 1.099 2.113 1.099.805 0 1.7-.715 1.871-1.633a.376.376 0 0 0-.035-.258.398.398 0 0 0-.18-.16 1.032 1.032 0 0 0-.543-.063c-.199.02-.394.074-.547.156a.616.616 0 0 0-.187.153.288.288 0 0 0-.066.207c.035.246-.055.41-.184.484-.133.074-.328.063-.535-.093-.168-.133-.254-.25-.281-.352-.028-.102-.004-.191.062-.297.137-.203.461-.426.828-.652.363-.23.77-.473 1.074-.762.305-.285.512-.625.446-1.027-.043-.258-.227-.453-.485-.578-.254-.125-.586-.188-.949-.196h-.004zm0 .14c.348.009.664.071.89.18.231.114.376.27.407.477.059.344-.113.633-.398.902-.29.27-.688.512-1.059.743-.367.23-.703.445-.867.695a.51.51 0 0 0-.082.414c.039.14.148.281.332.422.242.183.5.215.687.11.188-.106.297-.34.258-.626-.004-.035.008-.066.035-.105a.503.503 0 0 1 .145-.114 1.4 1.4 0 0 1 .492-.144c.18-.016.36 0 .469.055a.246.246 0 0 1 .12.101c.024.04.032.09.02.16-.156.844-1.015 1.52-1.734 1.52-.746 0-1.488-.442-2.004-1.05-.52-.606-.805-1.372-.668-1.997.13-.582.57-1.02 1.133-1.312a3.993 3.993 0 0 1 1.824-.43zm0 0" fill="#212121"/></svg>