<svg xmlns="http://www.w3.org/2000/svg" width="256pt" height="256pt" viewBox="0 0 256 256"><defs><linearGradient id="a" gradientUnits="userSpaceOnUse" x1="508" y1="233.5" x2="508" y2="254.667" gradientTransform="matrix(.50005 0 0 .50005 -127.012 107.51)"><stop offset="0" stop-opacity=".275"/><stop offset="1" stop-opacity="0"/></linearGradient><radialGradient id="b" gradientUnits="userSpaceOnUse" cx="450.909" cy="189.579" fx="450.909" fy="189.579" r="21.167" gradientTransform="matrix(0 -.62506 -1.1251 0 369.416 508.763)"><stop offset="0" stop-opacity=".314"/><stop offset=".222" stop-opacity=".275"/><stop offset="1" stop-opacity="0"/></radialGradient><radialGradient id="c" gradientUnits="userSpaceOnUse" cx="450.909" cy="189.579" fx="450.909" fy="189.579" r="21.167" gradientTransform="matrix(0 .62506 1.1251 0 -115.391 -60.22)"><stop offset="0" stop-opacity=".314"/><stop offset=".222" stop-opacity=".275"/><stop offset="1" stop-opacity="0"/></radialGradient><radialGradient id="d" gradientUnits="userSpaceOnUse" cx="450.909" cy="189.579" fx="450.909" fy="189.579" r="21.167" gradientTransform="matrix(0 -.62506 1.1251 0 -115.391 508.763)"><stop offset="0" stop-opacity=".314"/><stop offset=".222" stop-opacity=".275"/><stop offset="1" stop-opacity="0"/></radialGradient><radialGradient id="e" gradientUnits="userSpaceOnUse" cx="450.909" cy="189.579" fx="450.909" fy="189.579" r="21.167" gradientTransform="matrix(0 .62506 -1.1251 0 369.416 -60.22)"><stop offset="0" stop-opacity=".314"/><stop offset=".222" stop-opacity=".275"/><stop offset="1" stop-opacity="0"/></radialGradient><linearGradient id="f" gradientUnits="userSpaceOnUse" x1="254" y1="-41.667" x2="254" y2="-126.333"><stop offset="0" stop-color="#ffca28"/><stop offset="1" stop-color="#ffe082"/></linearGradient><linearGradient id="g" gradientUnits="userSpaceOnUse" x1="960" y1="735.118" x2="960" y2="175.118"><stop offset="0" stop-color="#bdbdbd"/><stop offset="1" stop-color="#e0e0e0"/></linearGradient><linearGradient id="h" gradientUnits="userSpaceOnUse" x1="960" y1="1695.118" x2="960" y2="735.118"><stop offset="0" stop-color="#424242"/><stop offset="1" stop-color="#616161"/></linearGradient><linearGradient id="i" gradientUnits="userSpaceOnUse" x1="254" y1="85.333" x2="254" y2="148.833"><stop offset="0" stop-color="#424242"/><stop offset="1" stop-color="#616161"/></linearGradient></defs><path d="M95.258 224.27h63.508v10.585H95.258zm0 0" fill="url(#a)"/><path d="M158.766 224.27h21.168v-10.583h-21.168zm0 0" fill="url(#b)"/><path d="M95.258 224.27H74.09v10.585h21.168zm0 0" fill="url(#c)"/><path d="M95.258 224.27H74.09v-10.583h21.168zm0 0" fill="url(#d)"/><path d="M158.766 224.27h21.168v10.585h-21.168zm0 0" fill="url(#e)"/><path d="M201.082-126.337h105.834c5.843 0 10.585 4.742 10.585 10.585v63.502c0 5.843-4.742 10.585-10.585 10.585H201.082c-5.843 0-10.585-4.742-10.585-10.585v-63.502c0-5.843 4.742-10.585 10.585-10.585zm0 0" transform="matrix(.50005 0 0 .50005 0 107.51)" fill="url(#f)" stroke-width="3" stroke-linecap="square" stroke-linejoin="round" stroke="#212121"/><path d="M719.99 175.111c-22.143 0-39.976 17.833-39.976 40.006v519.99c0 22.173 17.833 40.006 39.976 40.006h480.014c22.143 0 40.006-17.833 40.006-40.006v-519.99c0-22.173-17.863-40.006-40.006-40.006zm80.012 200c22.144 0 40.006 17.834 40.006 40.007v159.994c0 22.174-17.862 40.006-40.006 40.006a39.906 39.906 0 0 1-40.006-40.006V415.118a39.906 39.906 0 0 1 40.006-40.006zm159.995 0a39.906 39.906 0 0 1 40.006 40.007v159.994a39.906 39.906 0 0 1-40.006 40.006c-22.144 0-40.006-17.832-40.006-40.006V415.118c0-22.173 17.862-40.006 40.006-40.006zm159.995 0a39.906 39.906 0 0 1 40.006 40.007v159.994a39.906 39.906 0 0 1-40.006 40.006c-22.144 0-40.006-17.832-40.006-40.006V415.118c0-22.173 17.862-40.006 40.006-40.006zm0 0" transform="scale(.1323)" fill="url(#g)" stroke-width="11.339" stroke-linecap="square" stroke-linejoin="round" stroke="#212121"/><path d="M640.008 735.107c-44.317 0-80.012 35.695-80.012 80.012v319.99c22.173 0 40.006 17.862 40.006 40.005v119.989a39.906 39.906 0 0 1-40.006 40.006v280.012c0 44.317 35.695 79.983 80.012 79.983h639.978c44.346 0 80.012-35.666 80.012-79.983V1335.11c-22.143 0-40.006-17.833-40.006-40.006v-119.989c0-22.143 17.863-40.006 40.006-40.006V815.12c0-44.317-35.666-80.012-80.012-80.012zm0 0" transform="scale(.1323)" fill="url(#h)" stroke-width="11.339" stroke-linecap="square" stroke-linejoin="round" stroke="#212121"/><path d="M190.497 85.33h127.004c5.843 0 10.585 4.742 10.585 10.586v31.754c0 5.844-4.742 10.578-10.585 10.578H190.497c-5.843 0-10.577-4.734-10.577-10.578V95.916c0-5.844 4.734-10.585 10.577-10.585zm0 0" transform="matrix(.50005 0 0 .50005 0 107.51)" fill="url(#i)" stroke-width="3" stroke-linecap="square" stroke-linejoin="round" stroke="#212121"/></svg>