<svg xmlns="http://www.w3.org/2000/svg" width="128pt" height="128pt" viewBox="0 0 128 128"><defs><linearGradient id="a" gradientUnits="userSpaceOnUse" x1="254" y1="233.5" x2="254" y2="254.667" gradientTransform="matrix(.25002 0 0 .25002 0 53.755)"><stop offset="0" stop-opacity=".275"/><stop offset="1" stop-opacity="0"/></linearGradient><radialGradient id="b" gradientUnits="userSpaceOnUse" cx="450.909" cy="189.579" fx="450.909" fy="189.579" r="21.167" gradientTransform="matrix(0 -.31253 -.56255 0 142.37 254.381)"><stop offset="0" stop-opacity=".314"/><stop offset=".222" stop-opacity=".275"/><stop offset="1" stop-opacity="0"/></radialGradient><radialGradient id="c" gradientUnits="userSpaceOnUse" cx="450.909" cy="189.579" fx="450.909" fy="189.579" r="21.167" gradientTransform="matrix(0 .31253 .56255 0 -78.864 -30.11)"><stop offset="0" stop-opacity=".314"/><stop offset=".222" stop-opacity=".275"/><stop offset="1" stop-opacity="0"/></radialGradient><radialGradient id="d" gradientUnits="userSpaceOnUse" cx="450.909" cy="189.579" fx="450.909" fy="189.579" r="21.167" gradientTransform="matrix(0 -.31253 .56255 0 -78.864 254.381)"><stop offset="0" stop-opacity=".314"/><stop offset=".222" stop-opacity=".275"/><stop offset="1" stop-opacity="0"/></radialGradient><radialGradient id="e" gradientUnits="userSpaceOnUse" cx="450.909" cy="189.579" fx="450.909" fy="189.579" r="21.167" gradientTransform="matrix(0 .31253 -.56255 0 142.37 -30.11)"><stop offset="0" stop-opacity=".314"/><stop offset=".222" stop-opacity=".275"/><stop offset="1" stop-opacity="0"/></radialGradient><linearGradient id="f" gradientUnits="userSpaceOnUse" x1="254" y1="233.5" x2="254" y2="254.667" gradientTransform="matrix(.25002 0 0 .25002 63.506 53.755)"><stop offset="0" stop-opacity=".275"/><stop offset="1" stop-opacity="0"/></linearGradient><radialGradient id="g" gradientUnits="userSpaceOnUse" cx="450.909" cy="189.579" fx="450.909" fy="189.579" r="21.167" gradientTransform="matrix(0 -.31253 -.56255 0 205.876 254.381)"><stop offset="0" stop-opacity=".314"/><stop offset=".222" stop-opacity=".275"/><stop offset="1" stop-opacity="0"/></radialGradient><radialGradient id="h" gradientUnits="userSpaceOnUse" cx="450.909" cy="189.579" fx="450.909" fy="189.579" r="21.167" gradientTransform="matrix(0 .31253 .56255 0 -15.358 -30.11)"><stop offset="0" stop-opacity=".314"/><stop offset=".222" stop-opacity=".275"/><stop offset="1" stop-opacity="0"/></radialGradient><radialGradient id="i" gradientUnits="userSpaceOnUse" cx="450.909" cy="189.579" fx="450.909" fy="189.579" r="21.167" gradientTransform="matrix(0 -.31253 .56255 0 -15.358 254.381)"><stop offset="0" stop-opacity=".314"/><stop offset=".222" stop-opacity=".275"/><stop offset="1" stop-opacity="0"/></radialGradient><radialGradient id="j" gradientUnits="userSpaceOnUse" cx="450.909" cy="189.579" fx="450.909" fy="189.579" r="21.167" gradientTransform="matrix(0 .31253 -.56255 0 205.876 -30.11)"><stop offset="0" stop-opacity=".314"/><stop offset=".222" stop-opacity=".275"/><stop offset="1" stop-opacity="0"/></radialGradient><linearGradient id="k" gradientUnits="userSpaceOnUse" x1="960" y1="1695.118" x2="960" y2="175.118" gradientTransform="scale(.06615)"><stop offset="0" stop-color="#585858" stop-opacity="0"/><stop offset="1" stop-color="#fafafa" stop-opacity=".196"/></linearGradient><linearGradient id="l" gradientUnits="userSpaceOnUse" x1="254" y1="-168.667" x2="254" y2="233.5"><stop offset="0" stop-color="#585858" stop-opacity="0"/><stop offset="1" stop-color="#fafafa" stop-opacity=".196"/></linearGradient></defs><path d="M26.46 112.137h10.587v5.293H26.46zm0 0" fill="url(#a)"/><path d="M37.047 112.137h10.582v-5.293H37.047zm0 0" fill="url(#b)"/><path d="M26.46 112.137H15.876v5.293h10.586zm0 0" fill="url(#c)"/><path d="M26.46 112.137H15.876v-5.293h10.586zm0 0" fill="url(#d)"/><path d="M37.047 112.137h10.582v5.293H37.047zm0 0" fill="url(#e)"/><path d="M89.969 112.137h10.582v5.293H89.969zm0 0" fill="url(#f)"/><path d="M100.55 112.137h10.587v-5.293H100.55zm0 0" fill="url(#g)"/><path d="M89.969 112.137H79.383v5.293h10.586zm0 0" fill="url(#h)"/><path d="M89.969 112.137H79.383v-5.293h10.586zm0 0" fill="url(#i)"/><path d="M100.55 112.137h10.587v5.293H100.55zm0 0" fill="url(#j)"/><path d="M23.816 11.586a5.279 5.279 0 0 0-5.293 5.289v21.203h2.61c2.933 0 5.293 2.348 5.293 5.258v.035c0 2.914-2.36 5.258-5.293 5.258h-2.61v7.937h2.61c2.933 0 5.293 2.348 5.293 5.258v.07c0 2.915-2.36 5.258-5.293 5.258h-2.61v7.938h2.61c2.933 0 5.293 2.347 5.293 5.258v.035c0 2.914-2.36 5.258-5.293 5.258h-2.61v21.203c0 2.93 2.36 5.293 5.293 5.293h15.875a5.282 5.282 0 0 0 5.293-5.293V63.39l37.043 29.246v14.207a5.285 5.285 0 0 0 5.293 5.293h15.88c2.929 0 5.288-2.364 5.288-5.293V85.64h-2.61c-2.933 0-5.292-2.344-5.292-5.258v-.035c0-2.91 2.36-5.258 5.293-5.258h2.61v-7.938h-2.61c-2.934 0-5.293-2.343-5.293-5.257v-.07c0-2.91 2.36-5.259 5.293-5.259h2.61V48.63h-2.61c-2.934 0-5.293-2.344-5.293-5.258v-.035c0-2.91 2.36-5.258 5.293-5.258h2.61V16.875c0-2.93-2.36-5.29-5.29-5.29H87.32a5.281 5.281 0 0 0-5.293 5.29v44.012L44.984 31.64V16.875c0-2.93-2.359-5.29-5.293-5.29zm0 0" fill="#bbdefb"/><path d="M18.523 35.469v2.61h2.61a5.272 5.272 0 0 1 5.133 3.968c.105-.41.16-.844.16-1.29v-.03c0-2.914-2.36-5.258-5.293-5.258zm87.356 0c-2.934 0-5.293 2.343-5.293 5.258v.03c0 .446.055.88.16 1.29a5.272 5.272 0 0 1 5.133-3.969h2.61v-2.61zM18.523 53.957v2.61h2.61a5.268 5.268 0 0 1 5.137 3.988 5.24 5.24 0 0 0 .156-1.274v-.066c0-2.914-2.36-5.258-5.293-5.258zm87.356 0c-2.934 0-5.293 2.344-5.293 5.258v.066c0 .442.055.867.156 1.274a5.27 5.27 0 0 1 5.137-3.989h2.61v-2.609zm-60.895 6.824v2.61l37.043 29.246v-2.61zm-26.46 11.696v2.613h2.609a5.272 5.272 0 0 1 5.133 3.969c.105-.41.16-.844.16-1.29v-.03c0-2.915-2.36-5.262-5.293-5.262zm87.355 0c-2.934 0-5.293 2.347-5.293 5.261v.032c0 .445.055.878.16 1.289a5.272 5.272 0 0 1 5.133-3.97h2.61v-2.612zM18.523 104.23v2.614c0 2.93 2.36 5.293 5.293 5.293h15.875a5.282 5.282 0 0 0 5.293-5.293v-2.614a5.28 5.28 0 0 1-5.293 5.293H23.816a5.28 5.28 0 0 1-5.293-5.293zm63.504 0v2.614a5.285 5.285 0 0 0 5.293 5.293h15.88c2.929 0 5.288-2.364 5.288-5.293v-2.614a5.279 5.279 0 0 1-5.289 5.293H87.32a5.282 5.282 0 0 1-5.293-5.293zm0 0" fill-opacity=".235"/><path d="M23.816 11.586a5.279 5.279 0 0 0-5.293 5.289v2.613c0-2.93 2.36-5.293 5.293-5.293h15.875a5.282 5.282 0 0 1 5.293 5.293v-2.613c0-2.93-2.359-5.29-5.293-5.29zm63.504 0a5.281 5.281 0 0 0-5.293 5.289v2.613a5.285 5.285 0 0 1 5.293-5.293h15.88c2.929 0 5.288 2.364 5.288 5.293v-2.613c0-2.93-2.36-5.29-5.289-5.29zM44.984 31.64v2.609l37.043 29.246v-2.61zM26.266 44.66a5.272 5.272 0 0 1-5.133 3.968h-2.61v2.613h2.61c2.933 0 5.293-2.344 5.293-5.258v-.035c0-.445-.055-.875-.16-1.289zm74.48 0c-.105.413-.16.843-.16 1.288v.035c0 2.914 2.36 5.258 5.293 5.258h2.61V48.63h-2.61a5.272 5.272 0 0 1-5.133-3.969zM26.27 63.167a5.268 5.268 0 0 1-5.137 3.984h-2.61v2.614h2.61c2.933 0 5.293-2.348 5.293-5.258v-.07c0-.438-.055-.864-.156-1.27zm74.472 0a5.232 5.232 0 0 0-.156 1.27v.07c0 2.91 2.36 5.258 5.293 5.258h2.61v-2.614h-2.61a5.272 5.272 0 0 1-5.137-3.984zM26.266 81.672a5.272 5.272 0 0 1-5.133 3.969h-2.61v2.613h2.61c2.933 0 5.293-2.348 5.293-5.258v-.035c0-.445-.055-.875-.16-1.29zm74.48 0c-.105.414-.16.844-.16 1.289v.035c0 2.91 2.36 5.258 5.293 5.258h2.61V85.64h-2.61a5.272 5.272 0 0 1-5.133-3.97zm0 0" fill="#fff" fill-opacity=".392"/><path d="M23.816 11.586a5.279 5.279 0 0 0-5.293 5.289v21.203h2.61c2.933 0 5.293 2.348 5.293 5.258v.035c0 2.914-2.36 5.258-5.293 5.258h-2.61v7.937h2.61c2.933 0 5.293 2.348 5.293 5.258v.07c0 2.915-2.36 5.258-5.293 5.258h-2.61v7.938h2.61c2.933 0 5.293 2.347 5.293 5.258v.035c0 2.914-2.36 5.258-5.293 5.258h-2.61v21.203c0 2.93 2.36 5.293 5.293 5.293h15.875a5.282 5.282 0 0 0 5.293-5.293V63.39l37.043 29.246v14.207a5.285 5.285 0 0 0 5.293 5.293h15.88c2.929 0 5.288-2.364 5.288-5.293V85.64h-2.61c-2.933 0-5.292-2.344-5.292-5.258v-.035c0-2.91 2.36-5.258 5.293-5.258h2.61v-7.938h-2.61c-2.934 0-5.293-2.343-5.293-5.257v-.07c0-2.91 2.36-5.259 5.293-5.259h2.61V48.63h-2.61c-2.934 0-5.293-2.344-5.293-5.258v-.035c0-2.91 2.36-5.258 5.293-5.258h2.61V16.875c0-2.93-2.36-5.29-5.29-5.29H87.32a5.281 5.281 0 0 0-5.293 5.29v44.012L44.984 31.64V16.875c0-2.93-2.359-5.29-5.293-5.29zm0 0" fill="url(#k)"/><path d="M18.523 38.047v.031h2.61c2.933 0 5.293 2.348 5.293 5.258v.035c0 2.914-2.36 5.258-5.293 5.258h45.37L53.099 38.047zm63.504 0v10.582h23.852c-2.934 0-5.293-2.344-5.293-5.258v-.035c0-2.91 2.36-5.258 5.293-5.258h2.61v-.031zm-60.894 18.52c2.933 0 5.293 2.347 5.293 5.257v.07c0 2.915-2.36 5.258-5.293 5.258h23.851v-3.761l4.762 3.761h56.133c-2.934 0-5.293-2.343-5.293-5.257v-.07c0-2.91 2.36-5.259 5.293-5.259H82.027v4.32l-5.468-4.32zm0 18.523c2.933 0 5.293 2.347 5.293 5.258v.035c0 2.914-2.36 5.258-5.293 5.258h-2.61v.035h26.461V75.09zm38.668 0l13.406 10.586h35.281v-.035h-2.61c-2.933 0-5.292-2.344-5.292-5.258v-.035c0-2.91 2.36-5.258 5.293-5.258zm0 0" fill="#64b5f6"/><path d="M23.816 11.586a5.279 5.279 0 0 0-5.293 5.289v21.203h2.61c2.933 0 5.293 2.348 5.293 5.258v.035c0 2.914-2.36 5.258-5.293 5.258h-2.61v7.937h2.61c2.933 0 5.293 2.348 5.293 5.258v.07c0 2.915-2.36 5.258-5.293 5.258h-2.61v7.938h2.61c2.933 0 5.293 2.347 5.293 5.258v.035c0 2.914-2.36 5.258-5.293 5.258h-2.61v21.203c0 2.93 2.36 5.293 5.293 5.293h15.875a5.282 5.282 0 0 0 5.293-5.293V63.39l37.043 29.246v14.207a5.285 5.285 0 0 0 5.293 5.293h15.88c2.929 0 5.288-2.364 5.288-5.293V85.64h-2.61c-2.933 0-5.292-2.344-5.292-5.258v-.035c0-2.91 2.36-5.258 5.293-5.258h2.61v-7.938h-2.61c-2.934 0-5.293-2.343-5.293-5.258v-.07c0-2.91 2.36-5.258 5.293-5.258h2.61V48.63h-2.61c-2.934 0-5.293-2.344-5.293-5.258v-.035c0-2.91 2.36-5.258 5.293-5.258h2.61V16.875c0-2.93-2.36-5.29-5.29-5.29H87.32a5.281 5.281 0 0 0-5.293 5.29v44.012L44.984 31.64V16.875c0-2.93-2.359-5.29-5.293-5.29zm0 0" fill="none" stroke-width=".7500748500000001" stroke-linecap="round" stroke-linejoin="round" stroke="#212121"/><path d="M74.79-62.827v.125h10.452c11.717 0 21.154 9.39 21.154 21.03v.14c0 11.655-9.437 21.03-21.154 21.03h181.451l-53.62-42.325zm254.007 0v42.324h95.381c-11.733 0-21.17-9.374-21.17-21.03v-.14c0-11.64 9.437-21.029 21.17-21.029h10.452v-.125zM85.242 11.244c11.717 0 21.154 9.39 21.154 21.03v.28c0 11.656-9.437 21.03-21.154 21.03h95.381V38.538l19.045 15.046h224.51c-11.733 0-21.17-9.374-21.17-21.03v-.28c0-11.64 9.437-21.03 21.17-21.03h-95.381v17.28l-21.873-17.28zm0 74.087c11.717 0 21.154 9.39 21.154 21.029v.14c0 11.656-9.437 21.03-21.154 21.03H74.79v.14h105.833V85.33zm154.641 0l53.636 42.34H434.63v-.141h-10.452c-11.733 0-21.17-9.374-21.17-21.03v-.14c0-11.64 9.437-21.03 21.17-21.03zm0 0" transform="matrix(.25002 0 0 .25002 0 53.755)" fill="url(#l)" stroke-width="3" stroke-linecap="round" stroke-linejoin="round" stroke="#212121"/></svg>