<?xml version="1.0" encoding="UTF-8"?>
<svg xmlns="http://www.w3.org/2000/svg" xmlns:xlink="http://www.w3.org/1999/xlink" width="22pt" height="22pt" viewBox="0 0 22 22" version="1.1">
<g id="surface1">
<path style=" stroke:none;fill-rule:nonzero;fill:rgb(25.882354%,25.882354%,25.882354%);fill-opacity:1;" d="M 0.910156 2.902344 L 0.910156 19.273438 L 12.28125 19.273438 L 12.28125 17.453125 L 2.730469 17.453125 L 2.730469 6.085938 L 10.914062 13.359375 L 19.101562 6.085938 L 19.101562 10.632812 L 20.921875 10.632812 L 20.921875 2.902344 Z M 4.09375 4.71875 L 17.28125 4.71875 L 10.914062 10.632812 Z M 4.09375 4.71875 "/>
<path style=" stroke:none;fill-rule:nonzero;fill:rgb(93.725491%,32.549021%,31.37255%);fill-opacity:1;" d="M 16.828125 11.085938 C 14.558594 11.085938 12.734375 12.914062 12.734375 15.179688 C 12.734375 17.449219 14.558594 19.273438 16.828125 19.273438 C 19.09375 19.273438 20.921875 17.449219 20.921875 15.179688 C 20.921875 12.914062 19.09375 11.085938 16.828125 11.085938 Z M 16.828125 12.90625 C 17.121094 12.90625 17.402344 12.960938 17.660156 13.0625 L 14.710938 16.011719 C 14.609375 15.753906 14.554688 15.472656 14.554688 15.179688 C 14.554688 13.921875 15.566406 12.90625 16.828125 12.90625 Z M 18.945312 14.347656 C 19.046875 14.605469 19.101562 14.886719 19.101562 15.179688 C 19.101562 16.441406 18.085938 17.453125 16.828125 17.453125 C 16.535156 17.453125 16.253906 17.398438 15.996094 17.296875 Z M 18.945312 14.347656 "/>
</g>
</svg>
