<?xml version="1.0" encoding="UTF-8"?>
<svg xmlns="http://www.w3.org/2000/svg" xmlns:xlink="http://www.w3.org/1999/xlink" width="16pt" height="16pt" viewBox="0 0 16 16" version="1.1">
<defs>
<linearGradient id="linear0" gradientUnits="userSpaceOnUse" x1="254" y1="233.500015" x2="254" y2="254.666672" gradientTransform="matrix(0.031253,0,0,0.031253,-1.157661,6.884772)">
<stop offset="0" style="stop-color:rgb(0%,0%,0%);stop-opacity:0.27451;"/>
<stop offset="1" style="stop-color:rgb(0%,0%,0%);stop-opacity:0;"/>
</linearGradient>
<radialGradient id="radial0" gradientUnits="userSpaceOnUse" cx="450.908936" cy="189.579361" fx="450.908936" fy="189.579361" r="21.166656" gradientTransform="matrix(0.0000000870852,-0.0390662,-0.0703192,-0.0000000507693,22.261577,31.963048)">
<stop offset="0" style="stop-color:rgb(0%,0%,0%);stop-opacity:0.313725;"/>
<stop offset="0.222222" style="stop-color:rgb(0%,0%,0%);stop-opacity:0.27451;"/>
<stop offset="1" style="stop-color:rgb(0%,0%,0%);stop-opacity:0;"/>
</radialGradient>
<radialGradient id="radial1" gradientUnits="userSpaceOnUse" cx="455.142242" cy="187.227524" fx="455.142242" fy="187.227524" r="21.166656" gradientTransform="matrix(-0.0000000870852,0.0390662,0.0703192,0.0000000507693,-6.385059,-3.763739)">
<stop offset="0" style="stop-color:rgb(0%,0%,0%);stop-opacity:0.313725;"/>
<stop offset="0.222222" style="stop-color:rgb(0%,0%,0%);stop-opacity:0.27451;"/>
<stop offset="1" style="stop-color:rgb(0%,0%,0%);stop-opacity:0;"/>
</radialGradient>
<radialGradient id="radial2" gradientUnits="userSpaceOnUse" cx="450.908936" cy="189.579361" fx="450.908936" fy="189.579361" r="21.166656" gradientTransform="matrix(-0.0000000870852,-0.0390662,0.0703192,-0.0000000507693,-6.385059,31.797669)">
<stop offset="0" style="stop-color:rgb(0%,0%,0%);stop-opacity:0.313725;"/>
<stop offset="0.222222" style="stop-color:rgb(0%,0%,0%);stop-opacity:0.27451;"/>
<stop offset="1" style="stop-color:rgb(0%,0%,0%);stop-opacity:0;"/>
</radialGradient>
<radialGradient id="radial3" gradientUnits="userSpaceOnUse" cx="450.908936" cy="189.579361" fx="450.908936" fy="189.579361" r="21.166656" gradientTransform="matrix(0.0000000870852,0.0390662,-0.0703192,0.0000000507693,22.261576,-3.598361)">
<stop offset="0" style="stop-color:rgb(0%,0%,0%);stop-opacity:0.313725;"/>
<stop offset="0.222222" style="stop-color:rgb(0%,0%,0%);stop-opacity:0.27451;"/>
<stop offset="1" style="stop-color:rgb(0%,0%,0%);stop-opacity:0;"/>
</radialGradient>
<linearGradient id="linear1" gradientUnits="userSpaceOnUse" x1="960" y1="1695.118164" x2="960" y2="255.118118" gradientTransform="matrix(0.00826902,0,0,0.00826902,0,0)">
<stop offset="0" style="stop-color:rgb(74.117647%,74.117647%,74.117647%);stop-opacity:1;"/>
<stop offset="1" style="stop-color:rgb(87.843137%,87.843137%,87.843137%);stop-opacity:1;"/>
</linearGradient>
</defs>
<g id="surface1">
<path style=" stroke:none;fill-rule:nonzero;fill:url(#linear0);" d="M 6.78125 13.933594 L 9.097656 13.933594 L 9.097656 14.84375 L 6.78125 14.84375 Z M 6.78125 13.933594 "/>
<path style=" stroke:none;fill-rule:nonzero;fill:url(#radial0);" d="M 9.097656 14.183594 L 10.417969 14.183594 L 10.417969 13.519531 L 9.097656 13.519531 Z M 9.097656 14.183594 "/>
<path style=" stroke:none;fill-rule:nonzero;fill:url(#radial1);" d="M 6.78125 14.015625 L 5.457031 14.015625 L 5.457031 14.679688 L 6.78125 14.679688 Z M 6.78125 14.015625 "/>
<path style=" stroke:none;fill-rule:nonzero;fill:url(#radial2);" d="M 6.78125 14.015625 L 5.457031 14.015625 L 5.457031 13.355469 L 6.78125 13.355469 Z M 6.78125 14.015625 "/>
<path style=" stroke:none;fill-rule:nonzero;fill:url(#radial3);" d="M 9.097656 14.183594 L 10.417969 14.183594 L 10.417969 14.84375 L 9.097656 14.84375 Z M 9.097656 14.183594 "/>
<path style=" stroke:none;fill-rule:nonzero;fill:url(#linear1);" d="M 5.621094 2.015625 C 4.046875 2.847656 2.976562 4.5 2.976562 6.410156 C 2.976562 8.320312 4.046875 9.972656 5.621094 10.800781 L 5.621094 13.351562 C 5.621094 13.71875 5.917969 14.011719 6.285156 14.011719 L 9.59375 14.011719 C 9.957031 14.011719 10.253906 13.71875 10.253906 13.351562 L 10.253906 10.800781 C 11.828125 9.972656 12.898438 8.320312 12.898438 6.410156 C 12.898438 4.5 11.828125 2.847656 10.253906 2.015625 L 10.253906 5.582031 C 10.253906 5.949219 9.957031 6.242188 9.59375 6.242188 L 6.285156 6.242188 C 5.917969 6.242188 5.621094 5.949219 5.621094 5.582031 Z M 5.621094 2.015625 "/>
<path style=" stroke:none;fill-rule:nonzero;fill:rgb(100%,100%,100%);fill-opacity:0.392157;" d="M 5.621094 2.015625 C 4.046875 2.847656 2.976562 4.5 2.976562 6.410156 C 2.976562 6.4375 2.976562 6.46875 2.976562 6.496094 C 3.011719 4.625 4.070312 3.007812 5.621094 2.191406 Z M 10.253906 2.015625 L 10.253906 2.191406 C 11.804688 3.007812 12.867188 4.625 12.898438 6.496094 C 12.898438 6.46875 12.898438 6.4375 12.898438 6.410156 C 12.898438 4.5 11.828125 2.847656 10.253906 2.015625 Z M 5.621094 5.582031 L 5.621094 5.757812 C 5.621094 6.125 5.917969 6.417969 6.285156 6.417969 L 9.59375 6.417969 C 9.957031 6.417969 10.253906 6.125 10.253906 5.757812 L 10.253906 5.582031 C 10.253906 5.949219 9.957031 6.242188 9.59375 6.242188 L 6.285156 6.242188 C 5.917969 6.242188 5.621094 5.949219 5.621094 5.582031 Z M 5.621094 5.582031 "/>
<path style=" stroke:none;fill-rule:nonzero;fill:rgb(0%,0%,0%);fill-opacity:0.235294;" d="M 2.976562 6.320312 C 2.976562 6.351562 2.976562 6.378906 2.976562 6.410156 C 2.976562 8.320312 4.046875 9.972656 5.621094 10.800781 L 5.621094 10.625 C 4.070312 9.808594 3.011719 8.195312 2.976562 6.320312 Z M 12.898438 6.320312 C 12.867188 8.195312 11.804688 9.808594 10.253906 10.625 L 10.253906 10.800781 C 11.828125 9.972656 12.898438 8.320312 12.898438 6.410156 C 12.898438 6.378906 12.898438 6.351562 12.898438 6.320312 Z M 5.621094 13.175781 L 5.621094 13.351562 C 5.621094 13.71875 5.917969 14.011719 6.285156 14.011719 L 9.59375 14.011719 C 9.957031 14.011719 10.253906 13.71875 10.253906 13.351562 L 10.253906 13.175781 C 10.253906 13.542969 9.957031 13.839844 9.59375 13.839844 L 6.285156 13.839844 C 5.917969 13.839844 5.621094 13.542969 5.621094 13.175781 Z M 5.621094 13.175781 "/>
<path style=" stroke:none;fill-rule:nonzero;fill:rgb(12.941177%,12.941177%,12.941177%);fill-opacity:1;" d="M 10.253906 1.96875 C 10.226562 1.96875 10.207031 1.992188 10.207031 2.015625 L 10.207031 5.582031 C 10.207031 5.925781 9.933594 6.195312 9.59375 6.195312 L 6.285156 6.195312 C 5.941406 6.195312 5.667969 5.925781 5.667969 5.582031 L 5.667969 2.015625 C 5.667969 2 5.660156 1.984375 5.648438 1.976562 C 5.632812 1.96875 5.617188 1.96875 5.601562 1.976562 C 4.011719 2.8125 2.929688 4.480469 2.929688 6.410156 C 2.929688 8.328125 4 9.988281 5.574219 10.828125 L 5.574219 13.351562 C 5.574219 13.742188 5.894531 14.058594 6.285156 14.058594 L 9.59375 14.058594 C 9.984375 14.058594 10.300781 13.742188 10.300781 13.351562 L 10.300781 10.828125 C 11.878906 9.988281 12.945312 8.328125 12.945312 6.410156 C 12.945312 4.480469 11.867188 2.8125 10.277344 1.976562 C 10.269531 1.972656 10.261719 1.96875 10.253906 1.96875 Z M 5.574219 2.097656 L 5.574219 5.582031 C 5.574219 5.972656 5.894531 6.289062 6.285156 6.289062 L 9.59375 6.289062 C 9.984375 6.289062 10.300781 5.972656 10.300781 5.582031 L 10.300781 2.097656 C 11.824219 2.929688 12.851562 4.542969 12.851562 6.410156 C 12.851562 8.304688 11.792969 9.9375 10.230469 10.761719 C 10.214844 10.769531 10.207031 10.785156 10.207031 10.800781 L 10.207031 13.351562 C 10.207031 13.691406 9.933594 13.964844 9.59375 13.964844 L 6.285156 13.964844 C 5.941406 13.964844 5.667969 13.691406 5.667969 13.351562 L 5.667969 10.800781 C 5.667969 10.785156 5.660156 10.769531 5.644531 10.761719 C 4.082031 9.9375 3.023438 8.304688 3.023438 6.410156 C 3.023438 4.542969 4.054688 2.929688 5.574219 2.097656 Z M 5.574219 2.097656 "/>
</g>
</svg>
