<?xml version="1.0" encoding="UTF-8"?>
<svg xmlns="http://www.w3.org/2000/svg" xmlns:xlink="http://www.w3.org/1999/xlink" width="16pt" height="16pt" viewBox="0 0 16 16" version="1.1">
<defs>
<linearGradient id="linear0" gradientUnits="userSpaceOnUse" x1="254" y1="233.5" x2="254" y2="254.666672" gradientTransform="matrix(0.031253,0,0,0.031253,-0.00000190753,6.719393)">
<stop offset="0" style="stop-color:rgb(0%,0%,0%);stop-opacity:0.27451;"/>
<stop offset="1" style="stop-color:rgb(0%,0%,0%);stop-opacity:0;"/>
</linearGradient>
<radialGradient id="radial0" gradientUnits="userSpaceOnUse" cx="450.908936" cy="189.579361" fx="450.908936" fy="189.579361" r="21.166656" gradientTransform="matrix(0.0000000870852,-0.0390662,-0.0703192,-0.0000000507693,26.561465,31.797666)">
<stop offset="0" style="stop-color:rgb(0%,0%,0%);stop-opacity:0.313725;"/>
<stop offset="0.222222" style="stop-color:rgb(0%,0%,0%);stop-opacity:0.27451;"/>
<stop offset="1" style="stop-color:rgb(0%,0%,0%);stop-opacity:0;"/>
</radialGradient>
<radialGradient id="radial1" gradientUnits="userSpaceOnUse" cx="450.908936" cy="189.579361" fx="450.908936" fy="189.579361" r="21.166656" gradientTransform="matrix(-0.0000000870852,0.0390662,0.0703192,0.0000000507693,-10.60226,-3.763739)">
<stop offset="0" style="stop-color:rgb(0%,0%,0%);stop-opacity:0.313725;"/>
<stop offset="0.222222" style="stop-color:rgb(0%,0%,0%);stop-opacity:0.27451;"/>
<stop offset="1" style="stop-color:rgb(0%,0%,0%);stop-opacity:0;"/>
</radialGradient>
<radialGradient id="radial2" gradientUnits="userSpaceOnUse" cx="450.908936" cy="189.579361" fx="450.908936" fy="189.579361" r="21.166656" gradientTransform="matrix(-0.0000000870852,-0.0390662,0.0703192,-0.0000000507693,-10.60226,31.797666)">
<stop offset="0" style="stop-color:rgb(0%,0%,0%);stop-opacity:0.313725;"/>
<stop offset="0.222222" style="stop-color:rgb(0%,0%,0%);stop-opacity:0.27451;"/>
<stop offset="1" style="stop-color:rgb(0%,0%,0%);stop-opacity:0;"/>
</radialGradient>
<radialGradient id="radial3" gradientUnits="userSpaceOnUse" cx="450.908936" cy="189.579361" fx="450.908936" fy="189.579361" r="21.166656" gradientTransform="matrix(0.0000000870852,0.0390662,-0.0703192,0.0000000507693,26.561464,-3.76374)">
<stop offset="0" style="stop-color:rgb(0%,0%,0%);stop-opacity:0.313725;"/>
<stop offset="0.222222" style="stop-color:rgb(0%,0%,0%);stop-opacity:0.27451;"/>
<stop offset="1" style="stop-color:rgb(0%,0%,0%);stop-opacity:0;"/>
</radialGradient>
<linearGradient id="linear1" gradientUnits="userSpaceOnUse" x1="254" y1="-168.666656" x2="254" y2="233.5" gradientTransform="matrix(0.031253,0,0,0.031253,0,6.719392)">
<stop offset="0" style="stop-color:rgb(73.72549%,66.666667%,64.313725%);stop-opacity:1;"/>
<stop offset="1" style="stop-color:rgb(63.137255%,53.333333%,49.803922%);stop-opacity:1;"/>
</linearGradient>
<linearGradient id="linear2" gradientUnits="userSpaceOnUse" x1="254" y1="143.541672" x2="254" y2="-168.666672" gradientTransform="matrix(3.779528,0,0,3.779528,0,812.59845)">
<stop offset="0" style="stop-color:rgb(40%,73.333333%,41.568627%);stop-opacity:1;"/>
<stop offset="1" style="stop-color:rgb(64.705882%,83.921569%,65.490196%);stop-opacity:1;"/>
</linearGradient>
</defs>
<g id="surface1">
<path style=" stroke:none;fill-rule:nonzero;fill:url(#linear0);" d="M 2.5625 14.015625 L 13.394531 14.015625 L 13.394531 14.679688 L 2.5625 14.679688 Z M 2.5625 14.015625 "/>
<path style=" stroke:none;fill-rule:nonzero;fill:url(#radial0);" d="M 13.394531 14.015625 L 14.71875 14.015625 L 14.71875 13.355469 L 13.394531 13.355469 Z M 13.394531 14.015625 "/>
<path style=" stroke:none;fill-rule:nonzero;fill:url(#radial1);" d="M 2.5625 14.015625 L 1.242188 14.015625 L 1.242188 14.679688 L 2.5625 14.679688 Z M 2.5625 14.015625 "/>
<path style=" stroke:none;fill-rule:nonzero;fill:url(#radial2);" d="M 2.5625 14.015625 L 1.242188 14.015625 L 1.242188 13.355469 L 2.5625 13.355469 Z M 2.5625 14.015625 "/>
<path style=" stroke:none;fill-rule:nonzero;fill:url(#radial3);" d="M 13.394531 14.015625 L 14.71875 14.015625 L 14.71875 14.679688 L 13.394531 14.679688 Z M 13.394531 14.015625 "/>
<path style=" stroke:none;fill-rule:nonzero;fill:url(#linear1);" d="M 1.820312 1.449219 L 14.058594 1.449219 C 14.332031 1.449219 14.554688 1.671875 14.554688 1.945312 L 14.554688 13.519531 C 14.554688 13.792969 14.332031 14.015625 14.058594 14.015625 L 1.820312 14.015625 C 1.546875 14.015625 1.324219 13.792969 1.324219 13.519531 L 1.324219 1.945312 C 1.324219 1.671875 1.546875 1.449219 1.820312 1.449219 Z M 1.820312 1.449219 "/>
<path style=" stroke:none;fill-rule:nonzero;fill:rgb(0%,0%,0%);fill-opacity:0.196078;" d="M 1.324219 12.03125 L 14.554688 12.03125 L 14.554688 12.113281 L 1.324219 12.113281 Z M 1.324219 12.03125 "/>
<path style=" stroke:none;fill-rule:nonzero;fill:rgb(90.196079%,90.196079%,90.196079%);fill-opacity:0.588235;" d="M 1.324219 12.113281 L 14.554688 12.113281 L 14.554688 12.199219 L 1.324219 12.199219 Z M 1.324219 12.113281 "/>
<path style=" stroke:none;fill-rule:nonzero;fill:rgb(12.941177%,12.941177%,12.941177%);fill-opacity:0.992157;" d="M 1.324219 12.074219 L 14.554688 12.074219 L 14.554688 12.15625 L 1.324219 12.15625 Z M 1.324219 12.074219 "/>
<path style=" stroke:none;fill-rule:nonzero;fill:rgb(0%,0%,0%);fill-opacity:0.196078;" d="M 1.984375 14.015625 C 1.617188 14.015625 1.324219 13.722656 1.324219 13.355469 L 1.324219 13.273438 C 1.324219 13.640625 1.617188 13.933594 1.984375 13.933594 L 13.890625 13.933594 C 14.257812 13.933594 14.554688 13.640625 14.554688 13.273438 L 14.554688 13.355469 C 14.554688 13.722656 14.257812 14.015625 13.890625 14.015625 Z M 1.984375 14.015625 "/>
<path style=" stroke:none;fill-rule:nonzero;fill:rgb(90.196079%,90.196079%,90.196079%);fill-opacity:0.588235;" d="M 1.984375 1.449219 C 1.617188 1.449219 1.324219 1.742188 1.324219 2.109375 L 1.324219 2.191406 C 1.324219 1.824219 1.617188 1.53125 1.984375 1.53125 L 13.890625 1.53125 C 14.257812 1.53125 14.554688 1.824219 14.554688 2.191406 L 14.554688 2.109375 C 14.554688 1.742188 14.257812 1.449219 13.890625 1.449219 Z M 1.984375 1.449219 "/>
<path style=" stroke:none;fill-rule:nonzero;fill:rgb(0%,0%,0%);fill-opacity:0.235294;" d="M 4.964844 8.351562 C 4.964844 8.363281 4.964844 8.378906 4.964844 8.394531 C 4.964844 8.519531 4.964844 8.601562 5.046875 8.726562 L 7.609375 11.039062 C 7.691406 11.164062 7.8125 11.226562 7.9375 11.226562 C 8.0625 11.226562 8.1875 11.164062 8.269531 11.039062 L 10.828125 8.726562 C 10.910156 8.601562 10.910156 8.519531 10.910156 8.394531 C 10.910156 8.378906 10.910156 8.363281 10.910156 8.351562 C 10.90625 8.433594 10.894531 8.503906 10.828125 8.601562 L 8.269531 10.917969 C 8.1875 11.039062 8.0625 11.101562 7.9375 11.101562 C 7.8125 11.101562 7.691406 11.039062 7.609375 10.917969 L 5.046875 8.601562 C 4.984375 8.503906 4.96875 8.433594 4.964844 8.351562 Z M 4.964844 8.351562 "/>
<path style=" stroke:none;fill-rule:nonzero;fill:rgb(20%,20%,20%);fill-opacity:1;" d="M 6.238281 3.386719 L 6.238281 7.6875 L 5.625 7.6875 C 5.410156 7.6875 5.230469 7.75 5.105469 7.875 C 4.984375 8 4.917969 8.179688 4.917969 8.394531 C 4.917969 8.519531 4.921875 8.617188 5.007812 8.75 L 5.011719 8.753906 L 7.574219 11.074219 C 7.667969 11.203125 7.800781 11.273438 7.9375 11.273438 C 8.074219 11.273438 8.210938 11.203125 8.300781 11.074219 L 10.863281 8.753906 L 10.867188 8.75 C 10.957031 8.617188 10.957031 8.519531 10.957031 8.394531 C 10.957031 8.179688 10.894531 8 10.769531 7.875 C 10.644531 7.75 10.464844 7.6875 10.25 7.6875 L 9.640625 7.6875 L 9.640625 3.386719 Z M 6.332031 3.480469 L 9.546875 3.480469 L 9.546875 7.78125 L 10.25 7.78125 C 10.449219 7.78125 10.597656 7.835938 10.703125 7.941406 C 10.808594 8.046875 10.863281 8.195312 10.863281 8.394531 C 10.863281 8.515625 10.867188 8.582031 10.792969 8.695312 L 8.234375 11.007812 L 8.230469 11.015625 C 8.15625 11.125 8.046875 11.179688 7.9375 11.179688 C 7.828125 11.179688 7.722656 11.125 7.644531 11.015625 L 7.644531 11.007812 L 5.085938 8.695312 C 5.007812 8.582031 5.011719 8.515625 5.011719 8.394531 C 5.011719 8.195312 5.070312 8.046875 5.171875 7.941406 C 5.277344 7.835938 5.429688 7.78125 5.625 7.78125 L 6.332031 7.78125 Z M 6.332031 3.480469 "/>
<path style="fill-rule:nonzero;fill:url(#linear2);stroke-width:11.338583;stroke-linecap:round;stroke-linejoin:miter;stroke:rgb(12.941177%,12.941177%,12.941177%);stroke-opacity:1;stroke-miterlimit:4;" d="M 220.13647 175.258863 C 186.596364 175.258863 160.142196 201.713031 160.142196 235.253137 L 160.142196 355.241685 C 160.142196 388.309395 186.596364 415.235959 220.13647 415.235959 L 760.084936 415.235959 L 760.084936 935.343799 L 680.250036 935.343799 C 630.176075 935.343799 600.415136 965.104738 600.415136 1015.178699 C 600.415136 1030.295367 600.415136 1040.21568 610.335449 1055.332347 L 920.227132 1334.990695 C 930.147445 1350.107363 944.791716 1357.665696 959.908384 1357.665696 C 975.025051 1357.665696 990.141719 1350.107363 1000.062032 1334.990695 L 1309.481319 1055.332347 C 1319.401632 1040.21568 1319.401632 1030.295367 1319.401632 1015.178699 C 1319.401632 965.104738 1289.640693 935.343799 1239.566732 935.343799 L 1160.204228 935.343799 L 1160.204228 415.235959 L 1700.152694 415.235959 C 1733.220404 415.235959 1760.146968 388.309395 1760.146968 355.241685 L 1760.146968 235.253137 C 1760.146968 201.713031 1733.220404 175.258863 1700.152694 175.258863 Z M 220.13647 175.258863 " transform="matrix(0.00826902,0,0,0.00826902,0,0)"/>
<path style=" stroke:none;fill-rule:nonzero;fill:rgb(0%,0%,0%);fill-opacity:0.196078;" d="M 1.984375 14.015625 C 1.617188 14.015625 1.324219 13.722656 1.324219 13.355469 L 1.324219 13.273438 C 1.324219 13.640625 1.617188 13.933594 1.984375 13.933594 L 13.890625 13.933594 C 14.257812 13.933594 14.554688 13.640625 14.554688 13.273438 L 14.554688 13.355469 C 14.554688 13.722656 14.257812 14.015625 13.890625 14.015625 Z M 1.984375 14.015625 "/>
<path style=" stroke:none;fill-rule:nonzero;fill:rgb(90.196079%,90.196079%,90.196079%);fill-opacity:0.588235;" d="M 1.984375 1.449219 C 1.617188 1.449219 1.324219 1.742188 1.324219 2.109375 L 1.324219 2.191406 C 1.324219 1.824219 1.617188 1.53125 1.984375 1.53125 L 13.890625 1.53125 C 14.257812 1.53125 14.554688 1.824219 14.554688 2.191406 L 14.554688 2.109375 C 14.554688 1.742188 14.257812 1.449219 13.890625 1.449219 Z M 1.984375 1.449219 "/>
<path style=" stroke:none;fill-rule:nonzero;fill:rgb(12.941177%,12.941177%,12.941177%);fill-opacity:1;" d="M 1.820312 1.402344 C 1.519531 1.402344 1.277344 1.644531 1.277344 1.945312 L 1.277344 13.519531 C 1.277344 13.820312 1.519531 14.0625 1.820312 14.0625 L 14.058594 14.0625 C 14.355469 14.0625 14.601562 13.820312 14.601562 13.519531 L 14.601562 1.945312 C 14.601562 1.644531 14.355469 1.402344 14.058594 1.402344 Z M 1.820312 1.496094 L 14.058594 1.496094 C 14.308594 1.496094 14.507812 1.695312 14.507812 1.945312 L 14.507812 13.519531 C 14.507812 13.769531 14.308594 13.96875 14.058594 13.96875 L 1.820312 13.96875 C 1.570312 13.96875 1.371094 13.769531 1.371094 13.519531 L 1.371094 1.945312 C 1.371094 1.695312 1.570312 1.496094 1.820312 1.496094 Z M 1.820312 1.496094 "/>
</g>
</svg>
