<?xml version="1.0" encoding="UTF-8"?>
<svg xmlns="http://www.w3.org/2000/svg" xmlns:xlink="http://www.w3.org/1999/xlink" width="256pt" height="256pt" viewBox="0 0 256 256" version="1.1">
<defs>
<radialGradient id="radial0" gradientUnits="userSpaceOnUse" cx="450.908936" cy="189.579361" fx="450.908936" fy="189.579361" r="21.166656" gradientTransform="matrix(0.00000139336,-0.62506,-1.125108,-0.000000812309,348.246967,487.329355)">
<stop offset="0" style="stop-color:rgb(0%,0%,0%);stop-opacity:0.313725;"/>
<stop offset="0.222222" style="stop-color:rgb(0%,0%,0%);stop-opacity:0.27451;"/>
<stop offset="1" style="stop-color:rgb(0%,0%,0%);stop-opacity:0;"/>
</radialGradient>
<radialGradient id="radial1" gradientUnits="userSpaceOnUse" cx="450.908936" cy="189.579361" fx="450.908936" fy="189.579361" r="21.166656" gradientTransform="matrix(-0.00000139336,0.62506,1.125108,0.000000812309,-73.054034,-81.653125)">
<stop offset="0" style="stop-color:rgb(0%,0%,0%);stop-opacity:0.313725;"/>
<stop offset="0.222222" style="stop-color:rgb(0%,0%,0%);stop-opacity:0.27451;"/>
<stop offset="1" style="stop-color:rgb(0%,0%,0%);stop-opacity:0;"/>
</radialGradient>
<radialGradient id="radial2" gradientUnits="userSpaceOnUse" cx="450.908936" cy="189.579361" fx="450.908936" fy="189.579361" r="21.166656" gradientTransform="matrix(-0.00000139336,-0.62506,1.125108,-0.000000812309,-73.054034,487.329355)">
<stop offset="0" style="stop-color:rgb(0%,0%,0%);stop-opacity:0.313725;"/>
<stop offset="0.222222" style="stop-color:rgb(0%,0%,0%);stop-opacity:0.27451;"/>
<stop offset="1" style="stop-color:rgb(0%,0%,0%);stop-opacity:0;"/>
</radialGradient>
<radialGradient id="radial3" gradientUnits="userSpaceOnUse" cx="450.908936" cy="189.579361" fx="450.908936" fy="189.579361" r="21.166656" gradientTransform="matrix(0.00000139336,0.62506,-1.125108,0.000000812309,348.246952,-81.653141)">
<stop offset="0" style="stop-color:rgb(0%,0%,0%);stop-opacity:0.313725;"/>
<stop offset="0.222222" style="stop-color:rgb(0%,0%,0%);stop-opacity:0.27451;"/>
<stop offset="1" style="stop-color:rgb(0%,0%,0%);stop-opacity:0;"/>
</radialGradient>
<linearGradient id="linear0" gradientUnits="userSpaceOnUse" x1="1040" y1="1535.118164" x2="1040" y2="295.118103" gradientTransform="matrix(0.132304,0,0,0.132304,0,0)">
<stop offset="0" style="stop-color:rgb(69.019608%,74.509804%,77.254902%);stop-opacity:1;"/>
<stop offset="1" style="stop-color:rgb(81.176471%,84.705882%,86.27451%);stop-opacity:1;"/>
</linearGradient>
</defs>
<g id="surface1">
<path style=" stroke:none;fill-rule:nonzero;fill:url(#radial0);" d="M 137.597656 202.839844 L 158.765625 202.839844 L 158.765625 192.253906 L 137.597656 192.253906 Z M 137.597656 202.839844 "/>
<path style=" stroke:none;fill-rule:nonzero;fill:url(#radial1);" d="M 137.597656 202.839844 L 116.429688 202.839844 L 116.429688 213.421875 L 137.597656 213.421875 Z M 137.597656 202.839844 "/>
<path style=" stroke:none;fill-rule:nonzero;fill:url(#radial2);" d="M 137.597656 202.839844 L 116.429688 202.839844 L 116.429688 192.253906 L 137.597656 192.253906 Z M 137.597656 202.839844 "/>
<path style=" stroke:none;fill-rule:nonzero;fill:url(#radial3);" d="M 137.597656 202.839844 L 158.765625 202.839844 L 158.765625 213.421875 L 137.597656 213.421875 Z M 137.597656 202.839844 "/>
<path style=" stroke:none;fill-rule:nonzero;fill:url(#linear0);" d="M 119.074219 39.296875 C 104.414062 39.296875 92.613281 51.097656 92.613281 65.757812 C 92.613281 71.726562 94.570312 77.21875 97.875 81.636719 L 52.921875 81.636719 C 49.988281 81.636719 47.628906 83.996094 47.628906 86.925781 C 47.628906 89.859375 49.988281 92.21875 52.921875 92.21875 L 119.074219 92.21875 C 133.734375 92.21875 145.535156 80.417969 145.535156 65.757812 C 145.535156 51.097656 133.734375 39.296875 119.074219 39.296875 Z M 201.101562 39.296875 C 186.441406 39.296875 174.640625 51.097656 174.640625 65.757812 C 174.640625 71.726562 176.597656 77.21875 179.90625 81.636719 L 151.285156 81.636719 C 149.453125 85.851562 146.554688 89.492188 142.925781 92.21875 L 195.808594 92.21875 C 196.375 92.21875 196.921875 92.128906 197.433594 91.96875 C 198.632812 92.132812 199.855469 92.21875 201.101562 92.21875 C 215.761719 92.21875 227.5625 80.417969 227.5625 65.757812 C 227.5625 51.097656 215.761719 39.296875 201.101562 39.296875 Z M 89.96875 107.84375 C 87.035156 107.84375 84.675781 110.203125 84.675781 113.136719 C 84.675781 116.066406 87.035156 118.429688 89.96875 118.429688 L 179.90625 118.429688 C 176.597656 122.84375 174.640625 128.335938 174.640625 134.304688 C 174.640625 148.964844 186.441406 160.765625 201.101562 160.765625 C 215.761719 160.765625 227.5625 148.964844 227.5625 134.304688 C 227.5625 119.644531 215.761719 107.84375 201.101562 107.84375 Z M 26.492188 150.179688 C 23.558594 150.179688 21.199219 152.542969 21.199219 155.472656 C 21.199219 158.40625 23.558594 160.765625 26.492188 160.765625 L 116.429688 160.765625 C 113.121094 165.183594 111.164062 170.675781 111.164062 176.640625 C 111.164062 191.300781 122.964844 203.101562 137.625 203.101562 C 152.285156 203.101562 164.085938 191.300781 164.085938 176.640625 C 164.085938 161.980469 152.285156 150.179688 137.625 150.179688 Z M 26.492188 150.179688 "/>
<path style=" stroke:none;fill-rule:nonzero;fill:rgb(99.607843%,99.607843%,99.607843%);fill-opacity:0.392157;" d="M 119.074219 39.296875 C 104.414062 39.296875 92.613281 51.097656 92.613281 65.757812 C 92.613281 66.164062 92.621094 66.566406 92.640625 66.964844 C 93.257812 52.863281 104.8125 41.691406 119.074219 41.691406 C 133.332031 41.691406 144.882812 52.855469 145.507812 66.957031 C 145.523438 66.558594 145.535156 66.160156 145.535156 65.757812 C 145.535156 51.097656 133.734375 39.296875 119.074219 39.296875 Z M 201.101562 39.296875 C 186.441406 39.296875 174.640625 51.097656 174.640625 65.757812 C 174.640625 66.164062 174.652344 66.566406 174.667969 66.964844 C 175.285156 52.863281 186.839844 41.691406 201.101562 41.691406 C 215.359375 41.691406 226.914062 52.855469 227.535156 66.957031 C 227.554688 66.558594 227.5625 66.160156 227.5625 65.757812 C 227.5625 51.097656 215.761719 39.296875 201.101562 39.296875 Z M 52.921875 81.636719 C 49.988281 81.636719 47.628906 83.996094 47.628906 86.925781 C 47.628906 87.339844 47.679688 87.738281 47.765625 88.125 C 48.304688 85.773438 50.402344 84.027344 52.921875 84.027344 L 97.875 84.027344 C 97.300781 83.261719 96.769531 82.460938 96.28125 81.636719 Z M 151.285156 81.636719 C 149.453125 85.851562 146.554688 89.492188 142.925781 92.21875 L 145.691406 92.21875 C 148.035156 89.886719 149.945312 87.109375 151.285156 84.027344 L 179.90625 84.027344 C 179.332031 83.261719 178.796875 82.460938 178.308594 81.636719 Z M 89.96875 107.84375 C 87.035156 107.84375 84.675781 110.203125 84.675781 113.136719 C 84.675781 113.546875 84.722656 113.949219 84.8125 114.332031 C 85.351562 111.980469 87.445312 110.238281 89.96875 110.238281 L 201.101562 110.238281 C 215.359375 110.238281 226.914062 121.402344 227.535156 135.5 C 227.554688 135.105469 227.5625 134.707031 227.5625 134.304688 C 227.5625 119.644531 215.761719 107.84375 201.101562 107.84375 Z M 178.308594 120.820312 C 175.980469 124.765625 174.640625 129.371094 174.640625 134.304688 C 174.640625 134.703125 174.652344 135.097656 174.667969 135.492188 C 174.914062 129.992188 176.820312 124.9375 179.90625 120.820312 Z M 26.492188 150.179688 C 23.558594 150.179688 21.199219 152.542969 21.199219 155.472656 C 21.199219 155.886719 21.246094 156.285156 21.335938 156.671875 C 21.875 154.320312 23.96875 152.574219 26.492188 152.574219 L 137.625 152.574219 C 151.882812 152.574219 163.4375 163.738281 164.058594 177.839844 C 164.078125 177.441406 164.085938 177.042969 164.085938 176.640625 C 164.085938 161.980469 152.285156 150.179688 137.625 150.179688 Z M 114.832031 163.160156 C 112.503906 167.101562 111.164062 171.710938 111.164062 176.640625 C 111.164062 177.039062 111.175781 177.433594 111.191406 177.828125 C 111.4375 172.328125 113.34375 167.277344 116.429688 163.160156 Z M 114.832031 163.160156 "/>
<path style=" stroke:none;fill-rule:nonzero;fill:rgb(0%,0%,0%);fill-opacity:0.235294;" d="M 92.644531 64.425781 C 92.625 64.867188 92.613281 65.3125 92.613281 65.757812 C 92.613281 70.585938 93.894531 75.101562 96.132812 78.988281 L 97.875 78.988281 C 94.8125 74.898438 92.910156 69.882812 92.644531 64.425781 Z M 174.675781 64.425781 C 174.652344 64.867188 174.640625 65.3125 174.640625 65.757812 C 174.640625 70.585938 175.921875 75.101562 178.160156 78.988281 L 179.90625 78.988281 C 176.839844 74.898438 174.9375 69.882812 174.675781 64.425781 Z M 145.5 64.433594 C 144.816406 78.476562 133.289062 89.574219 119.074219 89.574219 L 52.921875 89.574219 C 50.445312 89.574219 48.378906 87.890625 47.796875 85.605469 C 47.6875 86.027344 47.628906 86.46875 47.628906 86.925781 C 47.628906 89.859375 49.988281 92.21875 52.921875 92.21875 L 119.074219 92.21875 C 133.734375 92.21875 145.535156 80.417969 145.535156 65.757812 C 145.535156 65.316406 145.523438 64.875 145.5 64.433594 Z M 227.53125 64.433594 C 226.84375 78.476562 215.316406 89.574219 201.101562 89.574219 C 199.855469 89.574219 198.632812 89.484375 197.433594 89.320312 C 196.921875 89.484375 196.375 89.574219 195.808594 89.574219 L 145.941406 89.574219 C 145.003906 90.527344 144 91.414062 142.925781 92.21875 L 195.808594 92.21875 C 196.375 92.21875 196.921875 92.128906 197.433594 91.96875 C 198.632812 92.132812 199.855469 92.21875 201.101562 92.21875 C 215.761719 92.21875 227.5625 80.417969 227.5625 65.757812 C 227.5625 65.316406 227.550781 64.875 227.53125 64.433594 Z M 84.839844 111.8125 C 84.730469 112.234375 84.675781 112.679688 84.675781 113.136719 C 84.675781 116.066406 87.035156 118.429688 89.96875 118.429688 L 178.160156 118.429688 C 178.691406 117.507812 179.273438 116.625 179.90625 115.78125 L 89.96875 115.78125 C 87.492188 115.78125 85.425781 114.101562 84.839844 111.8125 Z M 227.53125 132.980469 C 226.84375 147.019531 215.316406 158.117188 201.101562 158.117188 C 186.890625 158.117188 175.363281 147.027344 174.675781 132.992188 C 174.652344 133.425781 174.640625 133.863281 174.640625 134.304688 C 174.640625 148.964844 186.441406 160.765625 201.101562 160.765625 C 215.761719 160.765625 227.5625 148.964844 227.5625 134.304688 C 227.5625 133.859375 227.550781 133.417969 227.53125 132.980469 Z M 21.363281 154.148438 C 21.253906 154.574219 21.199219 155.015625 21.199219 155.472656 C 21.199219 158.40625 23.558594 160.765625 26.492188 160.765625 L 114.683594 160.765625 C 115.214844 159.847656 115.796875 158.964844 116.429688 158.117188 L 26.492188 158.117188 C 24.015625 158.117188 21.949219 156.4375 21.363281 154.148438 Z M 164.054688 175.320312 C 163.367188 189.359375 151.839844 200.457031 137.625 200.457031 C 123.414062 200.457031 111.886719 189.363281 111.199219 175.328125 C 111.175781 175.761719 111.164062 176.199219 111.164062 176.640625 C 111.164062 191.300781 122.964844 203.101562 137.625 203.101562 C 152.285156 203.101562 164.085938 191.300781 164.085938 176.640625 C 164.085938 176.199219 164.074219 175.757812 164.054688 175.320312 Z M 164.054688 175.320312 "/>
<path style=" stroke:none;fill-rule:nonzero;fill:rgb(12.941177%,12.941177%,12.941177%);fill-opacity:1;" d="M 119.074219 38.546875 C 104.011719 38.546875 91.863281 50.695312 91.863281 65.757812 C 91.863281 71.363281 93.558594 76.5625 96.449219 80.882812 L 52.921875 80.882812 C 49.585938 80.882812 46.878906 83.59375 46.878906 86.925781 C 46.878906 90.261719 49.585938 92.96875 52.921875 92.96875 L 119.074219 92.96875 C 134.136719 92.96875 146.285156 80.820312 146.285156 65.757812 C 146.285156 50.695312 134.136719 38.546875 119.074219 38.546875 Z M 201.101562 38.546875 C 186.039062 38.546875 173.890625 50.695312 173.890625 65.757812 C 173.890625 71.363281 175.589844 76.5625 178.476562 80.882812 L 151.285156 80.882812 C 150.984375 80.882812 150.714844 81.0625 150.597656 81.335938 C 148.816406 85.433594 146 88.96875 142.476562 91.621094 C 142.21875 91.8125 142.113281 92.152344 142.214844 92.457031 C 142.316406 92.761719 142.605469 92.96875 142.925781 92.96875 L 195.808594 92.96875 C 196.390625 92.96875 196.945312 92.875 197.476562 92.726562 C 198.660156 92.882812 199.871094 92.96875 201.101562 92.96875 C 216.164062 92.96875 228.3125 80.820312 228.3125 65.757812 C 228.3125 50.695312 216.164062 38.546875 201.101562 38.546875 Z M 119.074219 40.046875 C 133.332031 40.046875 144.785156 51.5 144.785156 65.757812 C 144.785156 80.015625 133.332031 91.46875 119.074219 91.46875 L 52.921875 91.46875 C 50.390625 91.46875 48.378906 89.457031 48.378906 86.925781 C 48.378906 84.398438 50.390625 82.386719 52.921875 82.386719 L 97.875 82.386719 C 98.160156 82.386719 98.417969 82.222656 98.546875 81.96875 C 98.671875 81.714844 98.644531 81.414062 98.476562 81.183594 C 95.261719 76.894531 93.363281 71.5625 93.363281 65.757812 C 93.363281 51.5 104.816406 40.046875 119.074219 40.046875 Z M 201.101562 40.046875 C 215.359375 40.046875 226.8125 51.5 226.8125 65.757812 C 226.8125 80.015625 215.359375 91.46875 201.101562 91.46875 C 199.890625 91.46875 198.699219 91.382812 197.535156 91.222656 C 197.421875 91.207031 197.308594 91.21875 197.203125 91.253906 C 196.765625 91.394531 196.296875 91.46875 195.808594 91.46875 L 145.019531 91.46875 C 147.859375 88.964844 150.164062 85.875 151.757812 82.386719 L 179.90625 82.386719 C 180.1875 82.386719 180.449219 82.222656 180.574219 81.96875 C 180.703125 81.714844 180.675781 81.414062 180.503906 81.183594 C 177.292969 76.894531 175.390625 71.5625 175.390625 65.757812 C 175.390625 51.5 186.847656 40.046875 201.101562 40.046875 Z M 89.96875 107.09375 C 86.632812 107.09375 83.925781 109.800781 83.925781 113.136719 C 83.925781 116.46875 86.632812 119.179688 89.96875 119.179688 L 178.476562 119.179688 C 175.589844 123.5 173.890625 128.699219 173.890625 134.304688 C 173.890625 149.367188 186.039062 161.515625 201.101562 161.515625 C 216.164062 161.515625 228.3125 149.367188 228.3125 134.304688 C 228.3125 119.242188 216.164062 107.09375 201.101562 107.09375 Z M 89.96875 108.59375 L 201.101562 108.59375 C 215.359375 108.59375 226.8125 120.046875 226.8125 134.304688 C 226.8125 148.5625 215.359375 160.015625 201.101562 160.015625 C 186.847656 160.015625 175.390625 148.5625 175.390625 134.304688 C 175.390625 128.5 177.292969 123.167969 180.503906 118.878906 C 180.675781 118.648438 180.703125 118.347656 180.574219 118.09375 C 180.449219 117.839844 180.1875 117.679688 179.90625 117.675781 L 89.96875 117.675781 C 87.4375 117.675781 85.425781 115.664062 85.425781 113.136719 C 85.425781 110.605469 87.4375 108.59375 89.96875 108.59375 Z M 26.492188 149.429688 C 23.15625 149.429688 20.449219 152.136719 20.449219 155.472656 C 20.449219 158.808594 23.15625 161.515625 26.492188 161.515625 L 115 161.515625 C 112.113281 165.839844 110.414062 171.035156 110.414062 176.640625 C 110.414062 191.703125 122.5625 203.851562 137.625 203.851562 C 152.6875 203.851562 164.835938 191.703125 164.835938 176.640625 C 164.835938 161.578125 152.6875 149.429688 137.625 149.429688 Z M 26.492188 150.929688 L 137.625 150.929688 C 151.882812 150.929688 163.335938 162.386719 163.335938 176.640625 C 163.335938 190.898438 151.882812 202.351562 137.625 202.351562 C 123.371094 202.351562 111.914062 190.898438 111.914062 176.640625 C 111.914062 170.839844 113.816406 165.507812 117.027344 161.214844 C 117.199219 160.988281 117.226562 160.683594 117.097656 160.429688 C 116.972656 160.175781 116.710938 160.015625 116.429688 160.015625 L 26.492188 160.015625 C 23.960938 160.015625 21.949219 158.003906 21.949219 155.472656 C 21.949219 152.945312 23.960938 150.929688 26.492188 150.929688 Z M 26.492188 150.929688 "/>
</g>
</svg>
