<svg xmlns="http://www.w3.org/2000/svg" width="32" height="32" viewBox="0 0 24 24"><defs><radialGradient id="a" gradientUnits="userSpaceOnUse" cx="450.909" cy="189.579" fx="450.909" fy="189.579" r="21.167" gradientTransform="matrix(0 -.0586 -.10548 0 40.09 47.696)"><stop offset="0" stop-opacity=".314"/><stop offset=".222" stop-opacity=".275"/><stop offset="1" stop-opacity="0"/></radialGradient><radialGradient id="b" gradientUnits="userSpaceOnUse" cx="450.909" cy="189.579" fx="450.909" fy="189.579" r="21.167" gradientTransform="matrix(0 .0586 .10548 0 -9.826 -5.646)"><stop offset="0" stop-opacity=".314"/><stop offset=".222" stop-opacity=".275"/><stop offset="1" stop-opacity="0"/></radialGradient><radialGradient id="c" gradientUnits="userSpaceOnUse" cx="450.909" cy="189.579" fx="450.909" fy="189.579" r="21.167" gradientTransform="matrix(0 -.0586 .10548 0 -9.826 47.696)"><stop offset="0" stop-opacity=".314"/><stop offset=".222" stop-opacity=".275"/><stop offset="1" stop-opacity="0"/></radialGradient><radialGradient id="d" gradientUnits="userSpaceOnUse" cx="450.909" cy="189.579" fx="450.909" fy="189.579" r="21.167" gradientTransform="matrix(0 .0586 -.10548 0 40.09 -5.646)"><stop offset="0" stop-opacity=".314"/><stop offset=".222" stop-opacity=".275"/><stop offset="1" stop-opacity="0"/></radialGradient><linearGradient id="e" gradientUnits="userSpaceOnUse" x1="255.323" y1="233.5" x2="255.323" y2="254.667" gradientTransform="matrix(.03006 0 0 .04688 7.457 10.08)"><stop offset="0" stop-opacity=".275"/><stop offset="1" stop-opacity="0"/></linearGradient><linearGradient id="f" gradientUnits="userSpaceOnUse" x1="108.894" y1="433.112" x2="108.894" y2="351.023" gradientTransform="translate(-11.227 -79.613) scale(.23236)"><stop offset="0" stop-color="#9ccc65"/><stop offset="1" stop-color="#aed581"/></linearGradient><linearGradient id="g" gradientUnits="userSpaceOnUse" x1="1120" y1="1695.118" x2="1120" y2="175.118" gradientTransform="matrix(.01255 0 0 .01255 .02 -.246)"><stop offset="0" stop-color="#e0e0e0"/><stop offset="1" stop-color="#eee"/></linearGradient></defs><path d="M20.34 21.027h1.988v-.996H20.34zm0 0" fill="url(#a)"/><path d="M9.922 21.027H7.937v.993h1.985zm0 0" fill="url(#b)"/><path d="M9.922 21.027H7.937v-.996h1.985zm0 0" fill="url(#c)"/><path d="M20.34 21.027h1.988v.993H20.34zm0 0" fill="url(#d)"/><path d="M9.922 20.777H20.34v1.243H9.922zm0 0" fill="url(#e)"/><path d="M22.516 19.078V8.551c0-3.52-3.082-6.371-6.891-6.371h-3.95v-.008L.993 2.125v3.844h1.64c1.145 0 1.348.789 1.348 1.883l.008 6.789c0 3.52 3.086 6.37 6.887 6.37h9.387c1.203 0 2.254-.761 2.254-1.933zm0 0" fill-rule="evenodd" fill="url(#f)"/><path d="M5.965 4.527v10.047c0 1.067.39 2.004 1.148 2.758.649.64 1.43 1.055 2.305 1.148h7.164c.45 0 .871-.066 1.27-.199.027-.011.054-.02.082-.027l.023-.012a3.914 3.914 0 0 0 1.469-.965h.004c.187-.191.351-.394.496-.605l.047-.07c.015-.024.027-.047.043-.075.304-.492.492-1.039.554-1.629.004-.011.004-.023.004-.035v-1.12l-.004-4.368c0-.871-.324-1.64-.933-2.262a3.058 3.058 0 0 0-2.23-.933 3.06 3.06 0 0 0-2.173.886 3.022 3.022 0 0 0-2.164-.886 3.05 3.05 0 0 0-2.226.933 3.138 3.138 0 0 0-.934 2.262v4.395h1.996V9.375c0-.336.106-.598.344-.836.242-.242.492-.351.82-.351.336 0 .586.109.825.351.238.238.347.5.347.836v4.395h1.996V9.375c0-.336.106-.598.344-.836.242-.242.488-.351.824-.351.328 0 .582.109.82.351.239.238.348.5.348.836l.012 5.137c0 .36-.113.699-.309.996-.406.601-1.172 1.015-2.074 1.015l-4.305-.011-2.128-.008c-1.036 0-1.918-1.004-1.918-2.3V4.526zm0 0" fill-rule="evenodd" fill="url(#g)"/><path d="M5.965 4.598v.316h1.887v-.316zM13.07 6.25a3.05 3.05 0 0 0-2.226.934A3.122 3.122 0 0 0 9.91 9.44v.317c0-.867.32-1.64.934-2.258a3.05 3.05 0 0 1 2.226-.934c.844 0 1.575.313 2.164.883a3.073 3.073 0 0 1 2.172-.883c.86 0 1.617.317 2.23.934.61.617.934 1.39.934 2.258l.004 4.37v-.316l-.004-4.37c0-.872-.324-1.641-.933-2.258a3.058 3.058 0 0 0-2.23-.934c-.84 0-1.575.313-2.173.883a3.035 3.035 0 0 0-2.164-.883zm-5.218 8.023v.317c0 1.293.882 2.3 1.918 2.3l2.128.008 4.305.012c.902 0 1.668-.414 2.074-1.02.196-.292.309-.636.309-.992v-.277a1.84 1.84 0 0 1-.309.953c-.406.606-1.172 1.02-2.074 1.02l-4.305-.012-2.128-.008c-1.036 0-1.918-1.008-1.918-2.3zm12.722.622v.035zm0 0" fill-rule="evenodd" fill="#fff" fill-opacity=".994"/><path d="M13.07 8.191c-.328 0-.578.11-.82.348a1.118 1.118 0 0 0-.344.836v.54c0-.333.106-.595.344-.833.242-.242.492-.352.82-.352.336 0 .586.11.825.352.238.238.347.5.347.832v-.539c0-.332-.11-.594-.347-.836a1.07 1.07 0 0 0-.825-.348zm4.336 0c-.336 0-.582.106-.824.348a1.118 1.118 0 0 0-.344.836v.54c0-.333.106-.595.344-.833.242-.242.488-.352.824-.352.328 0 .582.11.82.352.239.238.348.5.348.832l.012 4.656v-.058l-.012-5.137c0-.332-.11-.594-.347-.836a1.087 1.087 0 0 0-.82-.348zM9.91 13.773v.54h1.996v-.54zm4.332 0v.54h1.996v-.54zm-8.277.805v.54c0 1.066.39 2.003 1.148 2.757.649.64 1.43 1.055 2.305 1.148h7.164c.45 0 .871-.066 1.27-.199.027-.012.054-.02.082-.027l.023-.012a3.914 3.914 0 0 0 1.469-.965h.004c.187-.191.351-.394.496-.605l.047-.07c.015-.024.027-.051.043-.075.304-.492.492-1.039.554-1.629.004-.011.004-.023.004-.035v-.543c0 .012 0 .024-.004.035a3.869 3.869 0 0 1-.554 1.633c-.016.024-.028.047-.043.07l-.047.07a4.286 4.286 0 0 1-.496.61h-.004a4.016 4.016 0 0 1-1.492.973c-.028.008-.055.02-.082.027-.399.133-.82.203-1.27.203H9.418c-.875-.093-1.656-.511-2.305-1.148a3.79 3.79 0 0 1-1.148-2.758zm0 0" fill-rule="evenodd" fill-opacity=".235"/><path d="M5.965 4.527v10.047c0 1.067.39 2.004 1.148 2.758.649.64 1.43 1.055 2.305 1.148h7.164c.45 0 .871-.066 1.27-.199.027-.011.054-.02.082-.027l.023-.012a3.914 3.914 0 0 0 1.469-.965h.004c.187-.191.351-.394.496-.605l.047-.07c.015-.024.027-.047.043-.075.304-.492.492-1.039.554-1.629.004-.011.004-.023.004-.035v-1.12l-.004-4.368c0-.871-.324-1.64-.933-2.262a3.058 3.058 0 0 0-2.23-.933 3.06 3.06 0 0 0-2.173.886 3.022 3.022 0 0 0-2.164-.886 3.05 3.05 0 0 0-2.226.933 3.138 3.138 0 0 0-.934 2.262v4.395h1.996V9.375c0-.336.106-.598.344-.836.242-.242.492-.352.82-.352.336 0 .586.11.825.352.238.238.347.5.347.836v4.395h1.996V9.375c0-.336.106-.598.344-.836.242-.242.488-.352.824-.352.328 0 .582.11.82.352.239.238.348.5.348.836l.012 5.137c0 .36-.113.699-.309.996-.406.601-1.172 1.015-2.074 1.015l-4.305-.011-2.128-.008c-1.036 0-1.918-1.004-1.918-2.3V4.526zm0 0" fill="none" stroke-width=".14064" stroke="#212121"/><path d="M.992 2.125v.488l10.684.047v.008h3.949c3.809 0 6.89 2.852 6.89 6.367v-.484c0-3.52-3.081-6.371-6.89-6.371h-3.95v-.008zm0 0" fill-rule="evenodd" fill="#fff" fill-opacity=".392"/><path d="M.992 5.434v.535h1.64c1.145 0 1.348.789 1.348 1.883l.008 6.789c0 3.52 3.086 6.37 6.887 6.37h9.387c1.203 0 2.254-.761 2.254-1.933v-.535c0 1.172-1.051 1.934-2.254 1.934h-9.387c-3.8 0-6.887-2.852-6.887-6.368L3.98 7.316c0-1.093-.203-1.882-1.347-1.882zm0 0" fill-rule="evenodd" fill-opacity=".235"/><path d="M.922 2.055v3.984h1.71c.555 0 .86.18 1.044.496.18.313.234.774.234 1.317l.008 6.789c0 3.558 3.121 6.441 6.957 6.441h9.387c.617 0 1.195-.195 1.62-.543.427-.348.7-.848.704-1.445V8.55c0-3.559-3.117-6.442-6.961-6.442h-3.879v-.007zm.14.14l10.543.047v.008h4.02c3.773 0 6.82 2.824 6.82 6.3v10.528c0 .563-.25 1.024-.648 1.352-.402.324-.95.511-1.535.511h-9.387c-3.766 0-6.816-2.824-6.816-6.3L4.05 7.85c0-.55-.051-1.035-.254-1.386-.207-.356-.574-.567-1.164-.567h-1.57zm0 0" fill-rule="evenodd" fill="#212121"/></svg>