<svg height="16pt" viewBox="0 0 16 16" width="16pt" xmlns="http://www.w3.org/2000/svg" xmlns:xlink="http://www.w3.org/1999/xlink"><linearGradient id="a"><stop offset="0" stop-opacity=".314"/><stop offset=".222" stop-opacity=".275"/><stop offset="1" stop-opacity="0"/></linearGradient><radialGradient id="b" cx="450.909" cy="189.579" gradientTransform="matrix(0 -.03907 -.07032 0 25.57 31.798)" gradientUnits="userSpaceOnUse" r="21.167" xlink:href="#a"/><radialGradient id="c" cx="450.909" cy="189.579" gradientTransform="matrix(0 .03907 .07032 0 -1.093 -3.764)" gradientUnits="userSpaceOnUse" r="21.167" xlink:href="#a"/><radialGradient id="d" cx="450.909" cy="189.579" gradientTransform="matrix(0 -.03907 .07032 0 -1.093 31.798)" gradientUnits="userSpaceOnUse" r="21.167" xlink:href="#a"/><radialGradient id="e" cx="450.909" cy="189.579" gradientTransform="matrix(0 .03907 -.07032 0 25.57 -3.764)" gradientUnits="userSpaceOnUse" r="21.167" xlink:href="#a"/><linearGradient id="f"><stop offset="0" stop-opacity=".275"/><stop offset="1" stop-opacity="0"/></linearGradient><linearGradient id="g" gradientTransform="matrix(.00668 0 0 .03125 10.533 6.72)" gradientUnits="userSpaceOnUse" x1="255.323" x2="255.323" xlink:href="#f" y1="233.5" y2="254.667"/><linearGradient id="h"><stop offset="0" stop-color="#d32f2f"/><stop offset="1" stop-color="#e53935"/></linearGradient><linearGradient id="i" gradientUnits="userSpaceOnUse" x1="63.5" x2="42.333" xlink:href="#h" y1="191.167" y2="-105.167"/><linearGradient id="j" gradientUnits="userSpaceOnUse" x1="7.9375" x2="7.9375" y1="9.38665625" y2="7.0715625"><stop offset="0" stop-color="#5c6bc0"/><stop offset="1" stop-color="#7986cb"/></linearGradient><radialGradient id="k" cx="450.909" cy="189.579" gradientTransform="matrix(0 -.03907 -.07032 0 17.3 31.798)" gradientUnits="userSpaceOnUse" r="21.167" xlink:href="#a"/><radialGradient id="l" cx="450.909" cy="189.579" gradientTransform="matrix(0 .03907 .07032 0 -9.362 -3.764)" gradientUnits="userSpaceOnUse" r="21.167" xlink:href="#a"/><radialGradient id="m" cx="450.909" cy="189.579" gradientTransform="matrix(0 -.03907 .07032 0 -9.362 31.798)" gradientUnits="userSpaceOnUse" r="21.167" xlink:href="#a"/><radialGradient id="n" cx="450.909" cy="189.579" gradientTransform="matrix(0 .03907 -.07032 0 17.3 -3.764)" gradientUnits="userSpaceOnUse" r="21.167" xlink:href="#a"/><linearGradient id="o" gradientTransform="matrix(.00668 0 0 .03125 2.264 6.72)" gradientUnits="userSpaceOnUse" x1="255.323" x2="255.323" xlink:href="#f" y1="233.5" y2="254.667"/><linearGradient id="p"><stop offset="0" stop-color="#f44336"/><stop offset="1" stop-color="#ef5350"/></linearGradient><linearGradient id="q" gradientUnits="userSpaceOnUse" x1="3.96875" x2="3.96875" xlink:href="#p" y1="14.016875" y2="2.1933125"/><linearGradient id="r" gradientUnits="userSpaceOnUse" x1="-444.5" x2="-444.5" xlink:href="#h" y1="191.167" y2="-84"/><linearGradient id="s" gradientTransform="matrix(-.03125 0 0 .03125 0 6.72)" gradientUnits="userSpaceOnUse" x1="-402.167" x2="-402.167" xlink:href="#p" y1="233.5" y2="-144.854"/><path d="m12.402 14.016h1.325v-.66h-1.325zm0 0" fill="url(#b)"/><path d="m12.074 14.016h-1.324v.664h1.324zm0 0" fill="url(#c)"/><path d="m12.074 14.016h-1.324v-.66h1.324zm0 0" fill="url(#d)"/><path d="m12.402 14.016h1.325v.664h-1.325zm0 0" fill="url(#e)"/><path d="m12.074 13.852h.328v.828h-.328zm0 0" fill="url(#g)"/><path d="m84.617-94.636c17.623 0 31.747 17.873 31.747 39.746v206.355c0 21.873-14.124 39.746-31.747 39.746-17.498 0-31.747-17.873-31.747-39.746v-206.355c0-21.873 14.249-39.746 31.747-39.746zm0 0" fill="url(#i)" stroke="#212121" stroke-linecap="square" stroke-linejoin="bevel" stroke-width="3" transform="matrix(.03125 0 0 .03125 0 6.72)"/><path d="m3.969 7.07h8.27v2.317h-8.27zm0 0" fill="url(#j)"/><path d="m4.133 14.016h1.324v-.66h-1.324zm0 0" fill="url(#k)"/><path d="m3.805 14.016h-1.325v.664h1.325zm0 0" fill="url(#l)"/><path d="m3.805 14.016h-1.325v-.66h1.325zm0 0" fill="url(#m)"/><path d="m4.133 14.016h1.324v.664h-1.324zm0 0" fill="url(#n)"/><path d="m3.805 13.852h.328v.828h-.328zm0 0" fill="url(#o)"/><path d="m3.969 7.07v.168h8.27v-.168zm0 0" fill="#fff" fill-opacity=".392"/><path d="m3.969 9.223v.164h8.27v-.164zm0 0" fill-opacity=".235"/><path d="m3.969 7.07h8.27v2.317h-8.27zm0 0" fill="none" stroke="#212121" stroke-linecap="square" stroke-linejoin="bevel" stroke-width=".09375"/><path d="m3.969 2.191c.73 0 1.324.555 1.324 1.243v9.343c0 .684-.594 1.239-1.324 1.239s-1.324-.555-1.324-1.239v-9.343c0-.688.593-1.243 1.324-1.243zm0 0" fill="url(#q)"/><path d="m-433.959-94.636c17.624 0 31.747 17.873 31.747 39.746v206.355c0 21.873-14.123 39.746-31.747 39.746-17.498 0-31.747-17.873-31.747-39.746v-206.355c0-21.873 14.25-39.746 31.747-39.746zm0 0" fill="url(#r)" stroke="#212121" stroke-linecap="square" stroke-linejoin="bevel" stroke-width="3" transform="matrix(-.03125 0 0 .03125 0 6.72)"/><path d="m12.238 2.191c-.73 0-1.324.555-1.324 1.243v9.343c0 .684.594 1.239 1.324 1.239s1.325-.555 1.325-1.239v-9.343c0-.688-.594-1.243-1.325-1.243zm0 0" fill="url(#s)"/><path d="m3.969 2.191c-.735 0-1.324.555-1.324 1.243v.164c0-.688.59-1.239 1.324-1.239s1.324.551 1.324 1.239v-.164c0-.688-.59-1.243-1.324-1.243zm0 0" fill="#fbbdb8" fill-opacity=".392"/><path d="m3.969 14.016c-.735 0-1.324-.551-1.324-1.239v-.168c0 .688.59 1.243 1.324 1.243s1.324-.555 1.324-1.243v.168c0 .688-.59 1.239-1.324 1.239zm0 0" fill-opacity=".235"/><path d="m3.969 2.145c-.758 0-1.371.574-1.371 1.289v9.343c0 .715.613 1.286 1.37 1.286.759 0 1.372-.57 1.372-1.286v-9.343c0-.715-.613-1.29-1.371-1.29zm0 .093c.71 0 1.277.535 1.277 1.196v9.343c0 .66-.566 1.192-1.277 1.192s-1.278-.531-1.278-1.192v-9.343c0-.66.567-1.196 1.278-1.196zm0 0" fill="#212121"/><path d="m12.238 2.191c-.734 0-1.324.555-1.324 1.243v.164c0-.688.59-1.239 1.324-1.239.735 0 1.325.551 1.325 1.239v-.164c0-.688-.59-1.243-1.325-1.243zm0 0" fill="#fbbdb8" fill-opacity=".392"/><path d="m12.238 14.016c-.734 0-1.324-.551-1.324-1.239v-.168c0 .688.59 1.243 1.324 1.243.735 0 1.325-.555 1.325-1.243v.168c0 .688-.59 1.239-1.325 1.239zm0 0" fill-opacity=".235"/><path d="m12.238 2.145c-.758 0-1.37.574-1.37 1.289v9.343c0 .715.612 1.286 1.37 1.286s1.371-.57 1.371-1.286v-9.343c0-.715-.613-1.29-1.37-1.29zm0 .093c.711 0 1.278.535 1.278 1.196v9.343c0 .66-.567 1.192-1.278 1.192-.71 0-1.277-.531-1.277-1.192v-9.343c0-.66.566-1.196 1.277-1.196zm0 0" fill="#212121"/></svg>