<svg xmlns="http://www.w3.org/2000/svg" width="16pt" height="16pt" viewBox="0 0 16 16"><defs><linearGradient id="a" gradientUnits="userSpaceOnUse" x1="254" y1="233.5" x2="254" y2="254.667" gradientTransform="matrix(.03125 0 0 .03125 0 6.72)"><stop offset="0" stop-opacity=".275"/><stop offset="1" stop-opacity="0"/></linearGradient><radialGradient id="b" gradientUnits="userSpaceOnUse" cx="450.909" cy="189.579" fx="450.909" fy="189.579" r="21.167" gradientTransform="matrix(0 -.03907 -.07032 0 24.412 31.798)"><stop offset="0" stop-opacity=".314"/><stop offset=".222" stop-opacity=".275"/><stop offset="1" stop-opacity="0"/></radialGradient><radialGradient id="c" gradientUnits="userSpaceOnUse" cx="450.909" cy="189.579" fx="450.909" fy="189.579" r="21.167" gradientTransform="matrix(0 .03907 .07032 0 -8.866 -3.764)"><stop offset="0" stop-opacity=".314"/><stop offset=".222" stop-opacity=".275"/><stop offset="1" stop-opacity="0"/></radialGradient><radialGradient id="d" gradientUnits="userSpaceOnUse" cx="450.909" cy="189.579" fx="450.909" fy="189.579" r="21.167" gradientTransform="matrix(0 -.03907 .07032 0 -8.866 31.798)"><stop offset="0" stop-opacity=".314"/><stop offset=".222" stop-opacity=".275"/><stop offset="1" stop-opacity="0"/></radialGradient><radialGradient id="e" gradientUnits="userSpaceOnUse" cx="450.909" cy="189.579" fx="450.909" fy="189.579" r="21.167" gradientTransform="matrix(0 .03907 -.07032 0 24.412 -3.764)"><stop offset="0" stop-opacity=".314"/><stop offset=".222" stop-opacity=".275"/><stop offset="1" stop-opacity="0"/></radialGradient><linearGradient id="f" gradientUnits="userSpaceOnUse" x1="254" y1="233.5" x2="254" y2="-168.667" gradientTransform="matrix(.03125 0 0 .03125 0 6.72)"><stop offset="0" stop-color="#64b5f6"/><stop offset="1" stop-color="#90caf9"/></linearGradient></defs><path d="M4.3 14.016h6.946v.664H4.301zm0 0" fill="url(#a)"/><path d="M11.246 14.016h1.324v-.66h-1.324zm0 0" fill="url(#b)"/><path d="M4.3 14.016H2.978v.664H4.3zm0 0" fill="url(#c)"/><path d="M4.3 14.016H2.978v-.66H4.3zm0 0" fill="url(#d)"/><path d="M11.246 14.016h1.324v.664h-1.324zm0 0" fill="url(#e)"/><path d="M3.637 1.45a.66.66 0 0 0-.66.66v11.245c0 .368.296.66.66.66h8.27a.66.66 0 0 0 .663-.66V3.434l-2.316-1.985zm0 0" fill="url(#f)"/><path d="M3.68 14.016a.657.657 0 0 1-.66-.66v-.083c0 .368.292.66.66.66h8.226a.66.66 0 0 0 .664-.66v.082a.66.66 0 0 1-.664.66zm0 0" fill-opacity=".196"/><path d="M3.637 1.45a.66.66 0 0 0-.66.66v.081a.66.66 0 0 1 .66-.66h6.66V1.45zm0 0" fill="#fff"/><path d="M3.637 1.402a.707.707 0 0 0-.707.707v11.246c0 .391.316.707.707.707h8.27c.394 0 .71-.316.71-.707V3.41L10.27 1.402zm0 .094h6.597l2.29 1.957v9.902c0 .34-.274.614-.618.614h-8.27a.612.612 0 0 1-.613-.614V2.11c0-.34.274-.613.614-.613zm0 0" fill="#212121"/><path d="M6.613 5.086a.662.662 0 0 0-.66.66V9.72c0 .363.297.66.66.66H8.93a.663.663 0 0 0 .664-.66V8.063a.328.328 0 0 0-.332-.329.332.332 0 0 0 .332-.332V5.746a.663.663 0 0 0-.664-.66zm.332.66h1.657a.33.33 0 0 1 .328.332v.992a.33.33 0 0 1-.328.332H6.945a.332.332 0 0 1-.332-.332v-.992c0-.183.149-.332.332-.332zm0 2.316h1.657a.33.33 0 0 1 .328.333v.992a.33.33 0 0 1-.328.332H6.945a.332.332 0 0 1-.332-.332v-.992c0-.184.149-.332.332-.332zm0 0" fill="#eee"/><path d="M6.613 5.086a.662.662 0 0 0-.66.66v.168c0-.367.297-.664.66-.664H8.93c.367 0 .664.297.664.664v-.168a.663.663 0 0 0-.664-.66zm0 1.984v.168c0 .18.149.328.332.328h1.657a.33.33 0 0 0 .328-.328V7.07a.33.33 0 0 1-.328.332H6.945a.332.332 0 0 1-.332-.332zm2.867.746a.374.374 0 0 0-.218-.082c.183 0 .332.313.332.496v-.168a.32.32 0 0 0-.114-.246zm-2.867 1.57v.165c0 .183.149.332.332.332h1.657a.33.33 0 0 0 .328-.332v-.164a.33.33 0 0 1-.328.332H6.945a.332.332 0 0 1-.332-.332zm0 0" fill="#fff" fill-opacity=".784"/><path d="M6.945 5.582a.332.332 0 0 0-.332.332v.164c0-.183.149-.332.332-.332h1.657a.33.33 0 0 1 .328.332v-.164a.33.33 0 0 0-.328-.332zm2.649 1.656c0 .18-.149.496-.332.496a.377.377 0 0 0 .218-.086.32.32 0 0 0 .114-.246zm-2.649.66a.332.332 0 0 0-.332.332v.165c0-.184.149-.332.332-.332h1.657a.33.33 0 0 1 .328.332V8.23a.33.33 0 0 0-.328-.332zm-.992 1.653v.168c0 .363.297.66.66.66H8.93a.663.663 0 0 0 .664-.66V9.55a.664.664 0 0 1-.664.664H6.613a.663.663 0 0 1-.66-.664zm0 0" fill-opacity=".196"/><path d="M6.613 5.04a.707.707 0 0 0-.707.706V9.72c0 .39.317.707.707.707H8.93a.71.71 0 0 0 .71-.707V8.063a.37.37 0 0 0-.199-.329.382.382 0 0 0 .2-.332V5.746a.71.71 0 0 0-.711-.707zm0 .093H8.93c.343 0 .617.273.617.613v1.656a.287.287 0 0 1-.285.285v.094c.156 0 .285.125.285.282v1.656c0 .34-.274.613-.617.613H6.613A.612.612 0 0 1 6 9.719V5.746c0-.34.273-.613.613-.613zm.332.566a.382.382 0 0 0-.379.38v.991c0 .211.172.38.38.38h1.656a.376.376 0 0 0 .375-.38v-.992a.378.378 0 0 0-.375-.379zm0 .094h1.657c.156 0 .28.129.28.285v.992c0 .16-.124.285-.28.285H6.945a.284.284 0 0 1-.285-.285v-.992c0-.156.13-.285.285-.285zm0 2.223a.382.382 0 0 0-.379.379v.992c0 .207.172.379.38.379h1.656a.378.378 0 0 0 .375-.38v-.991a.378.378 0 0 0-.375-.38zm0 .093h1.657c.156 0 .28.125.28.286v.992a.283.283 0 0 1-.28.285H6.945a.287.287 0 0 1-.285-.285v-.992c0-.16.13-.286.285-.286zm0 0" fill="#212121"/></svg>