<svg height="16" viewBox="0 0 16 16" width="16" xmlns="http://www.w3.org/2000/svg" xmlns:xlink="http://www.w3.org/1999/xlink"><linearGradient id="a" gradientUnits="userSpaceOnUse" x1="7.93826" x2="7.93826" y1="14.0169685" y2="14.67849050002"><stop offset="0" stop-opacity=".27451"/><stop offset="1" stop-opacity="0"/></linearGradient><linearGradient id="b"><stop offset="0" stop-opacity=".313726"/><stop offset=".222222" stop-opacity=".27451"/><stop offset="1" stop-opacity="0"/></linearGradient><radialGradient id="c" cx="450.908936" cy="189.579361" gradientTransform="matrix(.00000009 -.0390662 -.0703192 -.00000005 26.065324 31.797666)" gradientUnits="userSpaceOnUse" r="21.166656" xlink:href="#b"/><radialGradient id="d" cx="450.908936" cy="189.579361" gradientTransform="matrix(-.00000009 .0390662 .0703192 .00000005 -10.188807 -3.763739)" gradientUnits="userSpaceOnUse" r="21.166656" xlink:href="#b"/><radialGradient id="e" cx="450.908936" cy="189.579361" gradientTransform="matrix(-.00000009 -.0390662 .0703192 -.00000005 -10.188807 31.797666)" gradientUnits="userSpaceOnUse" r="21.166656" xlink:href="#b"/><radialGradient id="f" cx="450.908936" cy="189.579361" gradientTransform="matrix(.00000009 .0390662 -.0703192 .00000005 26.065323 -3.76374)" gradientUnits="userSpaceOnUse" r="21.166656" xlink:href="#b"/><linearGradient id="g"><stop offset="0" stop-color="#26a69a"/><stop offset="1" stop-color="#4db6ac"/></linearGradient><linearGradient id="h" gradientUnits="userSpaceOnUse" x1="5.29217449998" x2="5.29217449998" xlink:href="#g" y1="14.0169665" y2="1.44805200003"/><linearGradient id="i" gradientUnits="userSpaceOnUse" x1="5.29217449998" x2="5.29217449998" y1="14.0169665" y2="1.44805200003"><stop offset="0" stop-color="#ec407a"/><stop offset="1" stop-color="#f06292"/></linearGradient><linearGradient id="j" gradientUnits="userSpaceOnUse" x1="4.96141375" x2="4.96141375" xlink:href="#g" y1="14.0169675" y2="1.44805300003"/><linearGradient id="k" gradientTransform="matrix(0 .031253 .031253 0 6.925148 -.205748)" gradientUnits="userSpaceOnUse" x1="455.083313" x2="52.916653" y1="-62.833569" y2="-62.833569"><stop offset="0" stop-color="#29b6f6"/><stop offset="1" stop-color="#4fc3f7"/></linearGradient><linearGradient id="l" gradientUnits="userSpaceOnUse" x1="8.26901115854" x2="8.26901115854" y1="14.0169594661" y2="1.44806462084"><stop offset="0" stop-color="#424242"/><stop offset="1" stop-color="#757575"/></linearGradient><linearGradient id="m"><stop offset="0" stop-color="#bdbdbd"/><stop offset="1" stop-color="#e0e0e0"/></linearGradient><linearGradient id="n" gradientUnits="userSpaceOnUse" x1="6.16457524997" x2="6.16457524997" xlink:href="#m" y1="11.37087999998" y2="4.09414"/><linearGradient id="o" gradientTransform="matrix(.031253 0 0 -.031253 6.115941 7.760455)" gradientUnits="userSpaceOnUse" x1="127" x2="127" xlink:href="#m" y1="-115.522476" y2="117.31086"/><path d="m2.976562 13.96875h9.921876v.734375h-9.921876zm0 0" fill="url(#a)"/><path d="m12.898438 14.015625h1.324218v-.660156h-1.324218zm0 0" fill="url(#c)"/><path d="m2.976562 14.015625h-1.324218v.664063h1.324218zm0 0" fill="url(#d)"/><path d="m2.976562 14.015625h-1.324218v-.660156h1.324218zm0 0" fill="url(#e)"/><path d="m12.898438 14.015625h1.324218v.664063h-1.324218zm0 0" fill="url(#f)"/><path d="m7.9375 7.734375v6.28125h5.625c.363281 0 .660156-.292969.660156-.660156v-5.621094zm0 0" fill="url(#h)"/><path d="m7.9375 1.449219v6.285156h6.285156v-5.625c0-.367187-.296875-.660156-.660156-.660156zm0 0" fill="url(#i)"/><path d="m7.9375 7.734375v-6.285156h-5.621094c-.367187 0-.664062.292969-.664062.660156v5.625zm0 0" fill="url(#j)"/><path d="m1.652344 7.527344h12.570312v.164062h-12.570312zm0 0" fill-opacity=".235294"/><path d="m1.652344 2.335938v-.242188c0-.367188.296875-.660156.664062-.660156h11.246094c.363281 0 .660156.292968.660156.660156v.242188c0-.367188-.296875-.660157-.660156-.660157h-11.246094c-.367187 0-.664062.292969-.664062.660157zm0 0" fill="#fff" fill-opacity=".392157"/><path d="m1.652344 7.734375h6.285156v6.28125h-5.621094c-.367187 0-.664062-.292969-.664062-.660156zm0 0" fill="url(#k)"/><path d="m7.730469 14.015625v-12.566406h.167969v12.566406zm0 0" fill-opacity=".235294"/><path d="m7.980469 14.015625v-12.566406h.164062v12.566406zm0 0" fill="#fff" fill-opacity=".313726"/><path d="m1.652344 7.773438h12.570312v.164062h-12.570312zm0 0" fill="#fff" fill-opacity=".588235"/><path d="m1.652344 13.113281v.242188c0 .367187.296875.660156.664062.660156h11.246094c.363281 0 .660156-.292969.660156-.660156v-.242188c0 .367188-.296875.660157-.660156.660157h-11.246094c-.367187 0-.664062-.292969-.664062-.660157zm0 0" fill-opacity=".235294"/><path d="m7.890625 1.402344h-5.574219c-.394531 0-.710937.316406-.710937.707031v11.246094c0 .109375.027343.214843.070312.308593.007813.007813.011719.019532.015625.027344.121094.222656.355469.371094.625.371094h11.246094c.390625 0 .707031-.316406.707031-.707031v-11.246094c0-.0625-.007812-.121094-.023437-.175781-.003906-.015625-.007813-.03125-.011719-.046875 0 0 0-.003907-.003906-.003907 0-.007812 0-.011718-.003907-.015624 0-.003907-.003906-.007813-.003906-.011719 0 0 0-.003907-.003906-.003907 0-.007812-.003906-.011718-.003906-.019531-.003906-.003906-.003906-.007812-.007813-.015625 0 0-.003906-.003906-.003906-.007812 0 0-.003906-.003906-.003906-.007813 0-.003906-.003907-.007812-.007813-.015625 0-.003906-.003906-.007812-.007812-.011718-.003906-.007813-.003906-.011719-.007813-.015626-.003906-.007812-.003906-.011718-.007812-.015624-.007813-.011719-.011719-.019532-.019531-.027344 0-.003906-.003907-.007813-.003907-.007813-.007812-.007812-.011719-.015625-.015625-.023437-.007812-.007813-.015625-.015625-.019531-.023438-.007813-.011718-.015625-.019531-.023437-.027344-.007813-.007812-.015626-.015624-.023438-.023437-.128906-.128906-.304688-.207031-.5-.207031zm-5.574219.09375h5.574219v6.191406h-6.191406v-5.578125c0-.339844.273437-.613281.617187-.613281zm5.667969 0h5.578125c.167969 0 .324219.066406.433594.179687.007812.003907.015625.011719.019531.019531.007813.007813.015625.015626.019531.023438.003906.003906.011719.011719.015625.015625 0 .003906.003907.003906.003907.007813.003906.007812.011718.015624.015624.023437.015626.023437.03125.050781.046876.078125.007812.015625.015624.035156.023437.054688 0 .007812.003906.019531.007813.027343.019531.058594.027343.121094.027343.183594v5.578125h-6.191406zm-6.285156 6.285156h6.191406v6.1875h-5.574219c-.011718 0-.023437 0-.03125 0-.066406-.003906-.125-.015625-.183594-.035156-.015624-.007813-.035156-.015625-.054687-.023438-.027344-.011718-.050781-.027344-.074219-.042968-.164062-.113282-.273437-.296876-.273437-.511719zm6.285156 0h6.191406v5.574219c0 .339843-.273437.613281-.613281.613281h-5.578125zm0 0" fill="#212121"/><path d="m4.960938 4.09375h5.953124c.367188 0 .664063.296875.664063.660156v5.957032c0 .363281-.296875.660156-.664063.660156h-5.953124c-.363282 0-.660157-.296875-.660157-.660156v-5.957032c0-.363281.296875-.660156.660157-.660156zm0 0" fill="url(#l)"/><path d="m4.960938 4.09375c-.367188 0-.660157.296875-.660157.660156v.25c0-.367187.292969-.660156.660157-.660156h5.953124c.367188 0 .664063.292969.664063.660156v-.25c0-.363281-.296875-.660156-.664063-.660156zm0 0" fill="#d7d7d7" fill-opacity=".235294"/><path d="m4.960938 11.617188c-.367188 0-.660157-.292969-.660157-.660157v-.246093c0 .363281.292969.660156.660157.660156h5.953124c.367188 0 .664063-.296875.664063-.660156v.246093c0 .367188-.296875.660157-.664063.660157zm0 0" fill="#0f0f0f" fill-opacity=".235294"/><path d="m4.960938 4.046875c-.390626 0-.707032.316406-.707032.707031v5.957032c0 .390624.316406.707031.707032.707031h5.953124c.394532 0 .710938-.316407.710938-.707031v-5.957032c0-.390625-.316406-.707031-.710938-.707031zm0 .09375h5.953124c.34375 0 .617188.273437.617188.613281v5.957032c0 .339843-.273438.613281-.617188.613281h-5.953124c-.339844 0-.613282-.273438-.613282-.613281v-5.957032c0-.339844.273438-.613281.613282-.613281zm0 0" fill="#212121"/><path d="m7.15625 4.917969c-1.128906 0-1.863281.550781-2.183594 1.183593-.316406.636719-.300781 1.300782-.300781 1.632813 0 .328125-.015625.992187.300781 1.628906.320313.632813 1.054688 1.183594 2.183594 1.183594.179688.003906.347656-.089844.441406-.246094.089844-.15625.089844-.347656 0-.503906-.09375-.15625-.261718-.25-.441406-.25-.851562 0-1.109375-.273437-1.289062-.632813-.179688-.355468-.195313-.851562-.195313-1.179687 0-.332031.015625-.828125.195313-1.183594.179687-.359375.4375-.632812 1.289062-.632812.179688 0 .347656-.09375.4375-.25s.089844-.347657 0-.503907c-.089844-.152343-.257812-.25-.4375-.246093zm0 0" fill="url(#n)"/><path d="m7.15625 4.917969c-1.128906 0-1.863281.550781-2.183594 1.183593-.316406.636719-.300781 1.300782-.300781 1.632813v.164063c.003906-.359376.03125-.917969.300781-1.460938.320313-.636719 1.054688-1.1875 2.183594-1.1875.214844 0 .40625.132812.476562.332031.054688-.152343.03125-.324219-.066406-.453125-.09375-.132812-.246094-.210937-.410156-.210937zm-1.484375 2.980469v.167968c0 .332032.015625.824219.195313 1.183594.179687.355469.4375.632812 1.289062.632812.214844-.003906.40625.128907.476562.332032.054688-.152344.03125-.324219-.0625-.457032-.097656-.132812-.25-.210937-.414062-.210937-.851562 0-1.109375-.273437-1.289062-.632813-.152344-.300781-.1875-.699218-.195313-1.015624zm0 0" fill="#fff"/><path d="m7.609375 5.640625c-.085937.171875-.261719.277344-.453125.273437-.851562 0-1.109375.277344-1.289062.636719-.179688.355469-.195313.851563-.195313 1.179688 0 .070312 0 .144531.003906.226562.011719-.304687.050781-.675781.191407-.957031.179687-.355469.4375-.632812 1.289062-.632812.175781 0 .335938-.089844.429688-.234376.09375-.148437.101562-.335937.023437-.492187zm-2.9375 2.316406v.226563c0 .328125-.015625.992187.300781 1.628906.320313.632812 1.054688 1.183594 2.183594 1.183594.175781.003906.339844-.085938.429688-.234375.09375-.148438.101562-.332031.023437-.488281-.085937.167968-.261719.277343-.453125.273437-1.128906 0-1.863281-.550781-2.183594-1.1875-.253906-.511719-.292968-1.042969-.300781-1.402344zm0 0" fill-opacity=".235294"/><path d="m228.978134-57.640027c-36.121551 0-59.619307 17.623317-69.868328 37.871383-10.124033 20.373055-9.624081 41.621026-9.624081 52.245011 0 10.498998-.499952 31.746969 9.624081 52.120023 10.249021 20.248066 33.746777 37.871383 69.868328 37.871383 5.749451.124989 11.123937-2.874725 14.123651-7.874248 2.874725-4.999522 2.874725-11.123937 0-16.12346-2.999714-4.999522-8.3742-7.999236-14.123651-7.999236-27.247398 0-35.496611-8.749165-41.246062-20.248066-5.74945-11.373914-6.249403-27.247398-6.249403-37.746396 0-10.623985.499953-26.497469 6.249403-37.871383 5.749451-11.498902 13.998664-20.248067 41.246062-20.248067 5.749451 0 11.123937-2.999713 13.998663-7.999236 2.874725-4.999522 2.874725-11.123938 0-16.12346-2.874726-4.874535-8.249212-7.999236-13.998663-7.874248zm0 0" fill="none" stroke="#212121" stroke-linecap="round" stroke-linejoin="round" stroke-width="3" transform="matrix(.031253 0 0 .031253 0 6.719392)"/><path d="m8.753906 4.917969c-.273437.003906-.496094.230469-.492187.507812v2.96875c0 .785157.34375 1.40625.84375 1.738281.5.332032 1.089843.414063 1.640625.414063.179687.003906.347656-.089844.441406-.246094.089844-.15625.089844-.347656 0-.503906-.09375-.15625-.261719-.25-.441406-.25-.441406 0-.84375-.082031-1.085938-.246094-.246094-.160156-.398437-.371093-.398437-.90625v-2.96875c0-.136719-.050781-.265625-.148438-.363281-.09375-.09375-.222656-.148438-.359375-.144531zm0 0" fill="url(#o)"/><path d="m8.753906 4.917969c-.273437.003906-.496094.230469-.492187.507812v.332031c-.003907-.273437.21875-.5.492187-.507812.136719 0 .265625.050781.359375.148438.097657.09375.148438.226562.148438.359374v-.332031c0-.136719-.050781-.265625-.148438-.363281-.09375-.09375-.222656-.148438-.359375-.144531zm.507813 3.476562v.332031c0 .539063.152343.746094.398437.910157.242188.160156.644532.246093 1.085938.246093.214844-.003906.40625.128907.476562.332032.054688-.15625.03125-.324219-.0625-.457032-.097656-.132812-.25-.210937-.414062-.210937-.441406 0-.84375-.082031-1.085938-.246094-.246094-.160156-.398437-.371093-.398437-.90625zm0 0" fill="#fff"/><path d="m8.261719 8.386719v.382812c0 .789063.34375 1.40625.84375 1.738281.5.335938 1.089843.414063 1.640625.414063.167968.003906.328125-.078125.421875-.21875.09375-.136719.113281-.316406.046875-.472656-.078125.191406-.265625.3125-.46875.308593-.550782 0-1.140625-.082031-1.640625-.414062-.5-.335938-.84375-.953125-.84375-1.738281zm0 0" fill-opacity=".235294"/><path d="m169.073502-57.640027c-8.749164.124988-15.873484 7.374296-15.748496 16.248448v94.990929c0 25.122601 10.99895 44.995703 26.997422 55.619689 15.998472 10.623985 34.87167 13.248734 52.494987 13.248734 5.749451.124989 11.123938-2.874725 14.123651-7.874248 2.874726-4.999522 2.874726-11.123937 0-16.12346-2.999713-4.999522-8.3742-7.999236-14.123651-7.999236-14.123651 0-26.997422-2.624749-34.746682-7.874248-7.874248-5.124511-12.748782-11.873866-12.748782-28.997231v-94.990929c0-4.374582-1.624845-8.499188-4.749547-11.62389-2.999713-2.999713-7.12432-4.749546-11.498902-4.624558zm0 0" fill="none" stroke="#212121" stroke-linecap="round" stroke-linejoin="round" stroke-width="3" transform="matrix(.031253 0 0 .031253 3.469855 6.719392)"/></svg>