<svg height="16" viewBox="0 0 16 16" width="16" xmlns="http://www.w3.org/2000/svg" xmlns:xlink="http://www.w3.org/1999/xlink"><linearGradient id="a" gradientUnits="userSpaceOnUse" x1="7.93826" x2="7.93826" y1="14.0169685" y2="14.67849050002"><stop offset="0" stop-opacity=".27451"/><stop offset="1" stop-opacity="0"/></linearGradient><linearGradient id="b"><stop offset="0" stop-opacity=".313726"/><stop offset=".222222" stop-opacity=".27451"/><stop offset="1" stop-opacity="0"/></linearGradient><radialGradient id="c" cx="450.908936" cy="189.579361" gradientTransform="matrix(.00000009 -.0390662 -.0703192 -.00000005 25.073043 31.797666)" gradientUnits="userSpaceOnUse" r="21.166656" xlink:href="#b"/><radialGradient id="d" cx="450.908936" cy="189.579361" gradientTransform="matrix(-.00000009 .0390662 .0703192 .00000005 -9.196524 -3.76374)" gradientUnits="userSpaceOnUse" r="21.166656" xlink:href="#b"/><radialGradient id="e" cx="450.908936" cy="189.579361" gradientTransform="matrix(-.00000009 -.0390662 .0703192 -.00000005 -9.196524 31.797666)" gradientUnits="userSpaceOnUse" r="21.166656" xlink:href="#b"/><radialGradient id="f" cx="450.908936" cy="189.579361" gradientTransform="matrix(.00000009 .0390662 -.0703192 .00000005 25.073042 -3.76374)" gradientUnits="userSpaceOnUse" r="21.166656" xlink:href="#b"/><linearGradient id="g"><stop offset="0" stop-color="#424242"/><stop offset="1" stop-color="#616161"/></linearGradient><linearGradient id="h" gradientTransform="matrix(.0376748 0 0 .108706 -2.927007 16.820674)" gradientUnits="userSpaceOnUse" x1="306.916656" x2="305.954559" xlink:href="#g" y1="-25.791676" y2="-141.414581"/><linearGradient id="i" gradientTransform="matrix(4.556143 0 0 13.146184 -353.972656 2034.180176)" gradientUnits="userSpaceOnUse" x1="165.484848" x2="165.484848" xlink:href="#g" y1="-25.791672" y2="-141.414581"/><linearGradient id="j"><stop offset="0" stop-color="#42a5f5"/><stop offset="1" stop-color="#64b5f6"/></linearGradient><linearGradient id="k" gradientUnits="userSpaceOnUse" x1="275.166301" x2="275.166301" xlink:href="#j" y1="233.49969318561" y2="-168.66647475188"/><linearGradient id="l" gradientUnits="userSpaceOnUse" x1="370.416376" x2="370.416376" xlink:href="#j" y1="80.0412949526" y2="-168.66671710991"/><linearGradient id="m" gradientUnits="userSpaceOnUse" x1="7.60750125002" x2="7.60750125002" y1="14.0169675" y2="1.44805300003"><stop offset="0" stop-color="#bdbdbd"/><stop offset="1" stop-color="#e0e0e0"/></linearGradient><linearGradient id="n" gradientUnits="userSpaceOnUse" x1="3.30760850003" x2="3.30760850003" xlink:href="#g" y1="5.25181134375" y2="4.59028956251"/><linearGradient id="o" gradientUnits="userSpaceOnUse" x1="3.30760850003" x2="3.30760850003" xlink:href="#g" y1="10.70936334375" y2="10.04784156251"/><path d="m3.96875 14.015625h7.9375v.664063h-7.9375zm0 0" fill="url(#a)"/><path d="m11.90625 14.015625h1.324219v-.660156h-1.324219zm0 0" fill="url(#c)"/><path d="m3.96875 14.015625h-1.324219v.664063h1.324219zm0 0" fill="url(#d)"/><path d="m3.96875 14.015625h-1.324219v-.660156h1.324219zm0 0" fill="url(#e)"/><path d="m11.90625 14.015625h1.324219v.664063h-1.324219zm0 0" fill="url(#f)"/><path d="m3.308594 1.449219h9.261718c.363282 0 .660157.296875.660157.660156v11.246094c0 .367187-.296875.660156-.660157.660156h-9.261718c-.367188 0-.664063-.292969-.664063-.660156v-11.246094c0-.363281.296875-.660156.664063-.660156zm0 0" fill="url(#h)"/><path d="m400.119292 175.258863c-44.405211 0-80.307296 35.42969-80.307296 79.8349v1360.027676c0 44.405211 35.902085 79.8349 80.307296 79.8349h119.988548v-1519.697476zm0 0" fill="url(#i)" stroke="#212121" stroke-linecap="round" stroke-width="11.338583" transform="scale(.00826902)"/><path d="m3.308594 14.015625c-.367188 0-.664063-.292969-.664063-.660156v-.082031c0 .367187.296875.660156.664063.660156h9.261718c.363282 0 .660157-.292969.660157-.660156v.082031c0 .367187-.296875.660156-.660157.660156zm0 0" fill-opacity=".196078"/><path d="m3.308594 1.449219c-.367188 0-.664063.292969-.664063.660156v.082031c0-.367187.296875-.660156.664063-.660156h9.261718c.363282 0 .660157.292969.660157.660156v-.082031c0-.367187-.296875-.660156-.660157-.660156zm0 0" fill="#e6e6e6" fill-opacity=".392157"/><path d="m3.308594 1.402344c-.394532 0-.710938.316406-.710938.707031v11.246094c0 .390625.316406.707031.710938.707031h9.261718c.390626 0 .707032-.316406.707032-.707031v-11.246094c0-.390625-.316406-.707031-.707032-.707031zm0 .09375h9.261718c.339844 0 .613282.273437.613282.613281v11.246094c0 .339843-.273438.613281-.613282.613281h-9.261718c-.34375 0-.617188-.273438-.617188-.613281v-11.246094c0-.339844.273438-.613281.617188-.613281zm0 0" fill="#212121"/><path d="m148.110856-147.506445v359.840637h243.476749c5.874439 0 10.623986-4.749547 10.623986-10.623986v-338.592666c0-5.874439-4.749547-10.623985-10.623986-10.623985zm0 0" style="fill:none;stroke-width:8;stroke-linecap:round;stroke-linejoin:round;stroke-dasharray:16.000002 16.000002;stroke-dashoffset:7.200001;stroke:url(#k)" transform="matrix(.031253 0 0 .031253 0 6.719392)"/><path d="m349.216651-168.629428v253.975746c15.873485-42.370953 26.49747-42.370953 42.370954 0v-253.975746zm0 0" fill="url(#l)" stroke="#212121" stroke-linecap="round" stroke-linejoin="round" stroke-width="3" transform="matrix(.031253 0 0 .031253 0 6.719392)"/><path d="m6.148438 3.351562c-.128907-.128906-.339844-.128906-.46875 0-.128907.128907-.128907.339844 0 .46875l.933593.933594-.933593.9375c-.128907.128906-.128907.339844 0 .46875.128906.128906.339843.128906.46875 0l1.167968-1.171875c.007813-.007812.015625-.015625.023438-.023437.105468-.128906.097656-.320313-.023438-.441406zm0 0" fill="url(#m)"/><path d="m5.914062 3.253906c-.085937 0-.167968.035156-.234374.097656-.085938.085938-.113282.207032-.085938.316407.011719-.054688.042969-.109375.085938-.152344.128906-.128906.339843-.128906.46875 0l1.167968 1.167969c.042969.046875.074219.097656.085938.152344.027344-.109376 0-.226563-.085938-.3125l-1.167968-1.171876c-.066407-.0625-.148438-.097656-.234376-.097656zm.621094 1.582032-.855468.855468c-.085938.085938-.113282.207032-.085938.316406.011719-.058593.042969-.109374.085938-.152343l.933593-.9375zm0 0" fill="#fff"/><path d="m5.605469 3.710938c-.046875.117187-.023438.261718.074219.355468l.8125.8125.121093-.125-.933593-.933594c-.03125-.03125-.058594-.070312-.074219-.109374zm1.785156 1.167968c-.011719.03125-.03125.058594-.050781.085938-.007813.007812-.015625.015625-.023438.023437l-1.167968 1.171875c-.128907.128906-.339844.128906-.46875 0-.03125-.035156-.058594-.070312-.074219-.109375-.046875.117188-.023438.257813.074219.355469.128906.128906.339843.128906.46875 0l1.167968-1.167969c.007813-.007812.015625-.015625.023438-.027343.078125-.09375.09375-.222657.050781-.332032zm0 0" fill-opacity=".235294"/><path d="m196.731213-107.760241c-4.124606-4.124606-10.873961-4.124606-14.998568 0-4.124606 4.124606-4.124606 10.873962 0 14.998568l29.872148 29.872147-29.872148 29.997136c-4.124606 4.124606-4.124606 10.873961 0 14.998567 4.124607 4.124606 10.873962 4.124606 14.998568 0l37.371431-37.496419c.249976-.249976.499953-.499952.749929-.749928 3.374677-4.124606 3.124701-10.249022-.749929-14.123652zm0 0" fill="none" stroke="#212121" stroke-linecap="round" stroke-width="3" transform="matrix(.031253 0 0 .031253 0 6.719392)"/><path d="m3.308594 1.402344c-.394532 0-.710938.316406-.710938.707031v11.246094c0 .390625.316406.707031.710938.707031h9.261718c.390626 0 .707032-.316406.707032-.707031v-11.246094c0-.390625-.316406-.707031-.707032-.707031zm0 .09375h9.261718c.339844 0 .613282.273437.613282.613281v11.246094c0 .339843-.273438.613281-.613282.613281h-9.261718c-.34375 0-.617188-.273438-.617188-.613281v-11.246094c0-.339844.273438-.613281.617188-.613281zm0 0" fill="#212121"/><path d="m2.644531 4.589844h1.65625v.660156h-1.65625zm0 0" fill="url(#n)"/><path d="m2.644531 5.25v.25h1.65625v-.25zm0 0" fill-opacity=".235294"/><path d="m2.644531 4.589844v.164062h1.65625v-.164062zm0 0" fill="#fff" fill-opacity=".392157"/><path d="m84.61694-20.514257h52.994939v21.122983h-52.994939zm0 0" fill="none" stroke="#212121" stroke-linecap="round" stroke-linejoin="round" stroke-width="3" transform="matrix(.031253 0 0 .031253 -.000001 5.230976)"/><path d="m2.644531 10.046875h1.65625v.664063h-1.65625zm0 0" fill="url(#o)"/><path d="m2.644531 10.710938v.246093h1.65625v-.246093zm0 0" fill-opacity=".235294"/><path d="m2.644531 10.046875v.167969h1.65625v-.167969zm0 0" fill="#fff" fill-opacity=".392157"/><path d="m84.61694-20.530951h52.994939v21.247971h-52.994939zm0 0" fill="none" stroke="#212121" stroke-linecap="round" stroke-linejoin="round" stroke-width="3" transform="matrix(.031253 0 0 .031253 -.000001 10.688528)"/></svg>