<?xml version="1.0" encoding="UTF-8"?>
<svg xmlns="http://www.w3.org/2000/svg" xmlns:xlink="http://www.w3.org/1999/xlink" width="16px" height="16px" viewBox="0 0 16 16" version="1.1">
<defs>
<linearGradient id="linear0" gradientUnits="userSpaceOnUse" x1="169.333328" y1="233.5" x2="169.333328" y2="-31.083334" gradientTransform="matrix(0.031253,0,0,0.031253,5.622933,2.419502)">
<stop offset="0" style="stop-color:rgb(87.843138%,87.843138%,87.843138%);stop-opacity:1;"/>
<stop offset="1" style="stop-color:rgb(93.333334%,93.333334%,93.333334%);stop-opacity:1;"/>
</linearGradient>
<linearGradient id="linear1" gradientUnits="userSpaceOnUse" x1="74.083336" y1="381.666656" x2="74.083336" y2="201.75" gradientTransform="matrix(0.031253,0,0,0.031253,8.930539,-3.534183)">
<stop offset="0" style="stop-color:rgb(38.039216%,38.039216%,38.039216%);stop-opacity:1;"/>
<stop offset="1" style="stop-color:rgb(45.882353%,45.882353%,45.882353%);stop-opacity:1;"/>
</linearGradient>
<linearGradient id="linear2" gradientUnits="userSpaceOnUse" x1="254" y1="233.5" x2="254" y2="254.666672" gradientTransform="matrix(0.225022,0,0,0.031253,-84.443267,6.719393)">
<stop offset="0" style="stop-color:rgb(0%,0%,0%);stop-opacity:0.27451;"/>
<stop offset="1" style="stop-color:rgb(0%,0%,0%);stop-opacity:0;"/>
</linearGradient>
<radialGradient id="radial0" gradientUnits="userSpaceOnUse" cx="450.908936" cy="189.579361" fx="450.908936" fy="189.579361" r="21.166656" gradientTransform="matrix(0.0000000870852,-0.0390662,-0.0703192,-0.0000000507693,21.600053,31.797666)">
<stop offset="0" style="stop-color:rgb(0%,0%,0%);stop-opacity:0.313726;"/>
<stop offset="0.222222" style="stop-color:rgb(0%,0%,0%);stop-opacity:0.27451;"/>
<stop offset="1" style="stop-color:rgb(0%,0%,0%);stop-opacity:0;"/>
</radialGradient>
<radialGradient id="radial1" gradientUnits="userSpaceOnUse" cx="450.908936" cy="189.579361" fx="450.908936" fy="189.579361" r="21.166656" gradientTransform="matrix(-0.0000000870852,0.0390662,0.0703192,0.0000000507693,-10.68495,-3.763739)">
<stop offset="0" style="stop-color:rgb(0%,0%,0%);stop-opacity:0.313726;"/>
<stop offset="0.222222" style="stop-color:rgb(0%,0%,0%);stop-opacity:0.27451;"/>
<stop offset="1" style="stop-color:rgb(0%,0%,0%);stop-opacity:0;"/>
</radialGradient>
<radialGradient id="radial2" gradientUnits="userSpaceOnUse" cx="450.908936" cy="189.579361" fx="450.908936" fy="189.579361" r="21.166656" gradientTransform="matrix(-0.0000000870852,-0.0390662,0.0703192,-0.0000000507693,-10.68495,31.797666)">
<stop offset="0" style="stop-color:rgb(0%,0%,0%);stop-opacity:0.313726;"/>
<stop offset="0.222222" style="stop-color:rgb(0%,0%,0%);stop-opacity:0.27451;"/>
<stop offset="1" style="stop-color:rgb(0%,0%,0%);stop-opacity:0;"/>
</radialGradient>
<radialGradient id="radial3" gradientUnits="userSpaceOnUse" cx="450.908936" cy="189.579361" fx="450.908936" fy="189.579361" r="21.166656" gradientTransform="matrix(0.0000000870852,0.0390662,-0.0703192,0.0000000507693,21.600053,-3.76374)">
<stop offset="0" style="stop-color:rgb(0%,0%,0%);stop-opacity:0.313726;"/>
<stop offset="0.222222" style="stop-color:rgb(0%,0%,0%);stop-opacity:0.27451;"/>
<stop offset="1" style="stop-color:rgb(0%,0%,0%);stop-opacity:0;"/>
</radialGradient>
<linearGradient id="linear3" gradientUnits="userSpaceOnUse" x1="169.333328" y1="233.5" x2="169.333328" y2="-31.083334" gradientTransform="matrix(0.031253,0,0,0.031253,0,6.719392)">
<stop offset="0" style="stop-color:rgb(38.039216%,38.039216%,38.039216%);stop-opacity:1;"/>
<stop offset="1" style="stop-color:rgb(45.882353%,45.882353%,45.882353%);stop-opacity:1;"/>
</linearGradient>
<linearGradient id="linear4" gradientUnits="userSpaceOnUse" x1="-360" y1="1535.118164" x2="-360" y2="855.118103" gradientTransform="matrix(0.00826902,0,0,0.00826902,8.434399,0)">
<stop offset="0" style="stop-color:rgb(87.843138%,87.843138%,87.843138%);stop-opacity:1;"/>
<stop offset="1" style="stop-color:rgb(93.333334%,93.333334%,93.333334%);stop-opacity:1;"/>
</linearGradient>
</defs>
<g id="surface1">
<path style=" stroke:none;fill-rule:nonzero;fill:url(#linear0);" d="M 7.609375 1.449219 L 14.554688 1.449219 C 14.917969 1.449219 15.214844 1.746094 15.214844 2.109375 L 15.214844 9.054688 C 15.214844 9.421875 14.917969 9.71875 14.554688 9.71875 L 7.609375 9.71875 C 7.242188 9.71875 6.945312 9.421875 6.945312 9.054688 L 6.945312 2.109375 C 6.945312 1.746094 7.242188 1.449219 7.609375 1.449219 Z M 7.609375 1.449219 "/>
<path style=" stroke:none;fill-rule:nonzero;fill:url(#linear1);" d="M 9.421875 2.769531 C 9.289062 2.769531 9.167969 2.824219 9.078125 2.914062 C 9.078125 2.914062 9.074219 2.914062 9.074219 2.914062 C 9.074219 2.917969 9.074219 2.917969 9.070312 2.917969 C 8.984375 3.007812 8.929688 3.128906 8.929688 3.261719 L 8.929688 7.734375 C 8.929688 8.007812 9.152344 8.230469 9.425781 8.230469 L 12.734375 8.230469 C 13.007812 8.230469 13.230469 8.007812 13.230469 7.734375 L 13.230469 5.417969 C 13.230469 5.140625 13.007812 4.921875 12.734375 4.921875 L 9.921875 4.921875 L 9.921875 3.761719 L 12.734375 3.761719 C 13.007812 3.761719 13.230469 3.542969 13.230469 3.269531 L 13.230469 3.261719 C 13.230469 2.992188 13.007812 2.769531 12.734375 2.769531 Z M 10.191406 5.914062 L 11.972656 5.914062 C 12.117188 5.914062 12.238281 6.046875 12.238281 6.210938 L 12.238281 6.9375 C 12.238281 7.105469 12.117188 7.238281 11.972656 7.238281 L 10.191406 7.238281 C 10.042969 7.238281 9.921875 7.105469 9.921875 6.9375 L 9.921875 6.210938 C 9.921875 6.046875 10.042969 5.914062 10.191406 5.914062 Z M 10.191406 5.914062 "/>
<path style=" stroke:none;fill-rule:nonzero;fill:rgb(100%,100%,100%);fill-opacity:0.392157;" d="M 9.421875 2.769531 C 9.289062 2.769531 9.167969 2.824219 9.078125 2.914062 C 9.078125 2.914062 9.074219 2.914062 9.074219 2.914062 C 9.074219 2.917969 9.074219 2.917969 9.070312 2.917969 C 8.984375 3.007812 8.929688 3.128906 8.929688 3.261719 L 8.929688 3.429688 C 8.929688 3.292969 8.984375 3.171875 9.070312 3.085938 C 9.074219 3.082031 9.074219 3.082031 9.074219 3.082031 C 9.074219 3.078125 9.078125 3.078125 9.078125 3.078125 C 9.167969 2.992188 9.289062 2.9375 9.421875 2.9375 L 12.734375 2.9375 C 12.980469 2.9375 13.1875 3.113281 13.222656 3.351562 C 13.226562 3.324219 13.230469 3.296875 13.230469 3.269531 L 13.230469 3.261719 C 13.230469 2.992188 13.007812 2.769531 12.734375 2.769531 Z M 9.921875 4.921875 L 9.921875 5.085938 L 12.734375 5.085938 C 13.007812 5.085938 13.230469 5.308594 13.230469 5.582031 L 13.230469 5.417969 C 13.230469 5.140625 13.007812 4.921875 12.734375 4.921875 Z M 9.921875 6.9375 L 9.921875 7.105469 C 9.921875 7.269531 10.042969 7.402344 10.191406 7.402344 L 11.972656 7.402344 C 12.117188 7.402344 12.238281 7.269531 12.238281 7.105469 L 12.238281 6.9375 C 12.238281 7.105469 12.117188 7.238281 11.972656 7.238281 L 10.191406 7.238281 C 10.042969 7.238281 9.921875 7.105469 9.921875 6.9375 Z M 9.921875 6.9375 "/>
<path style=" stroke:none;fill-rule:nonzero;fill:rgb(0%,0%,0%);fill-opacity:0.235294;" d="M 13.203125 3.433594 C 13.136719 3.625 12.953125 3.761719 12.734375 3.761719 L 9.921875 3.761719 L 9.921875 4.09375 L 12.734375 4.09375 C 13.007812 4.09375 13.230469 3.875 13.230469 3.601562 L 13.230469 3.59375 C 13.230469 3.539062 13.222656 3.484375 13.203125 3.433594 Z M 10.191406 5.914062 C 10.042969 5.914062 9.921875 6.046875 9.921875 6.210938 L 9.921875 6.542969 C 9.921875 6.375 10.042969 6.242188 10.191406 6.242188 L 11.972656 6.242188 C 12.117188 6.242188 12.238281 6.375 12.238281 6.542969 L 12.238281 6.210938 C 12.238281 6.046875 12.117188 5.914062 11.972656 5.914062 Z M 8.929688 7.734375 L 8.929688 8.0625 C 8.929688 8.339844 9.152344 8.558594 9.425781 8.558594 L 12.734375 8.558594 C 13.007812 8.558594 13.230469 8.339844 13.230469 8.0625 L 13.230469 7.734375 C 13.230469 8.007812 13.007812 8.230469 12.734375 8.230469 L 9.425781 8.230469 C 9.152344 8.230469 8.929688 8.007812 8.929688 7.734375 Z M 8.929688 7.734375 "/>
<path style="fill:none;stroke-width:3;stroke-linecap:round;stroke-linejoin:round;stroke:rgb(12.941177%,12.941177%,12.941177%);stroke-opacity:1;stroke-miterlimit:4;" d="M 301.471211 -126.383462 C 297.221617 -126.383462 293.346987 -124.63363 290.472261 -121.758904 C 290.472261 -121.758904 290.347273 -121.758904 290.347273 -121.758904 C 290.347273 -121.633916 290.347273 -121.633916 290.222285 -121.633916 C 287.472548 -118.759191 285.722715 -114.884561 285.722715 -110.634966 L 285.722715 32.476367 C 285.722715 41.225532 292.847035 48.349851 301.596199 48.349851 L 407.461089 48.349851 C 416.210254 48.349851 423.334574 41.225532 423.334574 32.476367 L 423.334574 -41.641555 C 423.334574 -50.515707 416.210254 -57.515039 407.461089 -57.515039 L 317.469683 -57.515039 L 317.469683 -94.636494 L 407.461089 -94.636494 C 416.210254 -94.636494 423.334574 -101.635826 423.334574 -110.38499 L 423.334574 -110.634966 C 423.334574 -119.259143 416.210254 -126.383462 407.461089 -126.383462 Z M 326.09386 -25.768071 L 383.088417 -25.768071 C 387.712975 -25.768071 391.587605 -21.518477 391.587605 -16.268978 L 391.587605 6.978802 C 391.587605 12.353289 387.712975 16.602883 383.088417 16.602883 L 326.09386 16.602883 C 321.344313 16.602883 317.469683 12.353289 317.469683 6.978802 L 317.469683 -16.268978 C 317.469683 -21.518477 321.344313 -25.768071 326.09386 -25.768071 Z M 326.09386 -25.768071 " transform="matrix(0.031253,0,0,0.031253,0,6.719392)"/>
<path style=" stroke:none;fill-rule:nonzero;fill:rgb(100%,100%,100%);fill-opacity:1;" d="M 7.609375 1.449219 C 7.242188 1.449219 6.945312 1.742188 6.945312 2.109375 L 6.945312 2.273438 C 6.945312 1.910156 7.242188 1.613281 7.609375 1.613281 L 14.554688 1.613281 C 14.921875 1.613281 15.214844 1.910156 15.214844 2.273438 L 15.214844 2.109375 C 15.214844 1.742188 14.921875 1.449219 14.554688 1.449219 Z M 7.609375 1.449219 "/>
<path style=" stroke:none;fill-rule:nonzero;fill:rgb(0%,0%,0%);fill-opacity:0.235294;" d="M 6.945312 8.886719 L 6.945312 9.054688 C 6.945312 9.421875 7.242188 9.71875 7.609375 9.71875 L 14.554688 9.71875 C 14.921875 9.71875 15.214844 9.421875 15.214844 9.054688 L 15.214844 8.886719 C 15.214844 9.253906 14.921875 9.546875 14.554688 9.546875 L 7.609375 9.546875 C 7.242188 9.546875 6.945312 9.253906 6.945312 8.886719 Z M 6.945312 8.886719 "/>
<path style="fill:none;stroke-width:3;stroke-linecap:butt;stroke-linejoin:miter;stroke:rgb(12.941177%,12.941177%,12.941177%);stroke-opacity:1;stroke-miterlimit:4;" d="M 243.476749 -168.629428 L 465.705527 -168.629428 C 477.329417 -168.629428 486.82851 -159.130335 486.82851 -147.506445 L 486.82851 74.722333 C 486.82851 86.471211 477.329417 95.970304 465.705527 95.970304 L 243.476749 95.970304 C 231.727871 95.970304 222.228778 86.471211 222.228778 74.722333 L 222.228778 -147.506445 C 222.228778 -159.130335 231.727871 -168.629428 243.476749 -168.629428 Z M 243.476749 -168.629428 " transform="matrix(0.031253,0,0,0.031253,0,6.719392)"/>
<path style=" stroke:none;fill-rule:nonzero;fill:url(#linear2);" d="M 2.480469 13.96875 L 8.433594 13.96875 L 8.433594 14.703125 L 2.480469 14.703125 Z M 2.480469 13.96875 "/>
<path style=" stroke:none;fill-rule:nonzero;fill:url(#radial0);" d="M 8.433594 14.015625 L 9.757812 14.015625 L 9.757812 13.355469 L 8.433594 13.355469 Z M 8.433594 14.015625 "/>
<path style=" stroke:none;fill-rule:nonzero;fill:url(#radial1);" d="M 2.480469 14.015625 L 1.15625 14.015625 L 1.15625 14.679688 L 2.480469 14.679688 Z M 2.480469 14.015625 "/>
<path style=" stroke:none;fill-rule:nonzero;fill:url(#radial2);" d="M 2.480469 14.015625 L 1.15625 14.015625 L 1.15625 13.355469 L 2.480469 13.355469 Z M 2.480469 14.015625 "/>
<path style=" stroke:none;fill-rule:nonzero;fill:url(#radial3);" d="M 8.433594 14.015625 L 9.757812 14.015625 L 9.757812 14.679688 L 8.433594 14.679688 Z M 8.433594 14.015625 "/>
<path style=" stroke:none;fill-rule:nonzero;fill:url(#linear3);" d="M 1.984375 5.746094 L 8.929688 5.746094 C 9.296875 5.746094 9.59375 6.042969 9.59375 6.410156 L 9.59375 13.355469 C 9.59375 13.722656 9.296875 14.015625 8.929688 14.015625 L 1.984375 14.015625 C 1.621094 14.015625 1.324219 13.722656 1.324219 13.355469 L 1.324219 6.410156 C 1.324219 6.042969 1.621094 5.746094 1.984375 5.746094 Z M 1.984375 5.746094 "/>
<path style=" stroke:none;fill-rule:nonzero;fill:rgb(100%,100%,100%);fill-opacity:0.392157;" d="M 1.984375 5.746094 C 1.617188 5.746094 1.324219 6.042969 1.324219 6.410156 L 1.324219 6.574219 C 1.324219 6.207031 1.617188 5.914062 1.984375 5.914062 L 8.929688 5.914062 C 9.296875 5.914062 9.59375 6.207031 9.59375 6.574219 L 9.59375 6.410156 C 9.59375 6.042969 9.296875 5.746094 8.929688 5.746094 Z M 1.984375 5.746094 "/>
<path style=" stroke:none;fill-rule:nonzero;fill:rgb(0%,0%,0%);fill-opacity:0.235294;" d="M 1.324219 13.1875 L 1.324219 13.355469 C 1.324219 13.722656 1.617188 14.015625 1.984375 14.015625 L 8.929688 14.015625 C 9.296875 14.015625 9.59375 13.722656 9.59375 13.355469 L 9.59375 13.1875 C 9.59375 13.550781 9.296875 13.847656 8.929688 13.847656 L 1.984375 13.847656 C 1.617188 13.847656 1.324219 13.550781 1.324219 13.1875 Z M 1.324219 13.1875 "/>
<path style="fill:none;stroke-width:3;stroke-linecap:butt;stroke-linejoin:miter;stroke:rgb(12.941177%,12.941177%,12.941177%);stroke-opacity:1;stroke-miterlimit:4;" d="M 63.493937 -31.142558 L 285.722715 -31.142558 C 297.471593 -31.142558 306.970686 -21.643465 306.970686 -9.894587 L 306.970686 212.334192 C 306.970686 224.08307 297.471593 233.457174 285.722715 233.457174 L 63.493937 233.457174 C 51.870047 233.457174 42.370954 224.08307 42.370954 212.334192 L 42.370954 -9.894587 C 42.370954 -21.643465 51.870047 -31.142558 63.493937 -31.142558 Z M 63.493937 -31.142558 " transform="matrix(0.031253,0,0,0.031253,0,6.719392)"/>
<path style=" stroke:none;fill-rule:nonzero;fill:url(#linear4);" d="M 3.804688 7.070312 C 3.527344 7.070312 3.308594 7.292969 3.308594 7.566406 L 3.308594 8.632812 C 3.304688 8.695312 3.304688 8.757812 3.304688 8.824219 L 3.304688 11.070312 C 3.304688 11.132812 3.304688 11.199219 3.308594 11.257812 L 3.308594 12.03125 C 3.308594 12.308594 3.527344 12.527344 3.804688 12.527344 L 7.113281 12.527344 C 7.386719 12.527344 7.609375 12.308594 7.609375 12.03125 L 7.609375 10.214844 C 7.609375 9.9375 7.386719 9.71875 7.113281 9.71875 C 7.386719 9.71875 7.609375 9.496094 7.609375 9.222656 L 7.609375 7.566406 C 7.609375 7.292969 7.386719 7.070312 7.113281 7.070312 Z M 4.566406 8.0625 L 6.347656 8.0625 C 6.496094 8.0625 6.613281 8.195312 6.613281 8.359375 L 6.613281 8.921875 C 6.613281 9.089844 6.496094 9.222656 6.347656 9.222656 L 4.566406 9.222656 C 4.417969 9.222656 4.300781 9.089844 4.300781 8.921875 L 4.300781 8.359375 C 4.300781 8.195312 4.417969 8.0625 4.566406 8.0625 Z M 4.566406 10.214844 L 6.347656 10.214844 C 6.496094 10.214844 6.613281 10.347656 6.613281 10.511719 L 6.613281 11.238281 C 6.613281 11.402344 6.496094 11.535156 6.347656 11.535156 L 4.566406 11.535156 C 4.417969 11.535156 4.300781 11.402344 4.300781 11.238281 L 4.300781 10.511719 C 4.300781 10.347656 4.417969 10.214844 4.566406 10.214844 Z M 4.566406 10.214844 "/>
<path style=" stroke:none;fill-rule:nonzero;fill:rgb(100%,100%,100%);fill-opacity:1;" d="M 3.804688 7.070312 C 3.527344 7.070312 3.308594 7.292969 3.308594 7.566406 L 3.308594 7.816406 C 3.308594 7.539062 3.527344 7.320312 3.804688 7.320312 L 7.113281 7.320312 C 7.386719 7.320312 7.609375 7.539062 7.609375 7.816406 L 7.609375 7.566406 C 7.609375 7.292969 7.386719 7.070312 7.113281 7.070312 Z M 3.308594 8.632812 C 3.304688 8.695312 3.304688 8.757812 3.304688 8.824219 L 3.304688 9.070312 C 3.304688 9.007812 3.304688 8.941406 3.308594 8.882812 Z M 4.300781 8.921875 L 4.300781 9.171875 C 4.300781 9.335938 4.417969 9.46875 4.566406 9.46875 L 6.347656 9.46875 C 6.496094 9.46875 6.613281 9.335938 6.613281 9.171875 L 6.613281 8.921875 C 6.613281 9.089844 6.496094 9.222656 6.347656 9.222656 L 4.566406 9.222656 C 4.417969 9.222656 4.300781 9.089844 4.300781 8.921875 Z M 7.441406 9.839844 C 7.351562 9.917969 7.238281 9.964844 7.113281 9.964844 C 7.386719 9.964844 7.609375 10.1875 7.609375 10.460938 L 7.609375 10.214844 C 7.609375 10.066406 7.542969 9.933594 7.441406 9.839844 Z M 4.300781 11.238281 L 4.300781 11.488281 C 4.300781 11.652344 4.417969 11.785156 4.566406 11.785156 L 6.347656 11.785156 C 6.496094 11.785156 6.613281 11.652344 6.613281 11.488281 L 6.613281 11.238281 C 6.613281 11.402344 6.496094 11.535156 6.347656 11.535156 L 4.566406 11.535156 C 4.417969 11.535156 4.300781 11.402344 4.300781 11.238281 Z M 4.300781 11.238281 "/>
<path style=" stroke:none;fill-rule:nonzero;fill:rgb(0%,0%,0%);fill-opacity:0.235294;" d="M 4.566406 8.0625 C 4.417969 8.0625 4.300781 8.195312 4.300781 8.359375 L 4.300781 8.691406 C 4.300781 8.527344 4.417969 8.394531 4.566406 8.394531 L 6.347656 8.394531 C 6.496094 8.394531 6.613281 8.527344 6.613281 8.691406 L 6.613281 8.359375 C 6.613281 8.195312 6.496094 8.0625 6.347656 8.0625 Z M 7.609375 9.222656 C 7.609375 9.496094 7.386719 9.71875 7.113281 9.71875 C 7.257812 9.71875 7.390625 9.78125 7.480469 9.882812 C 7.558594 9.792969 7.609375 9.679688 7.609375 9.550781 Z M 4.566406 10.214844 C 4.417969 10.214844 4.300781 10.347656 4.300781 10.511719 L 4.300781 10.839844 C 4.300781 10.675781 4.417969 10.542969 4.566406 10.542969 L 6.347656 10.542969 C 6.496094 10.542969 6.613281 10.675781 6.613281 10.839844 L 6.613281 10.511719 C 6.613281 10.347656 6.496094 10.214844 6.347656 10.214844 Z M 3.304688 11.070312 L 3.304688 11.398438 C 3.304688 11.464844 3.304688 11.527344 3.308594 11.589844 L 3.308594 11.257812 C 3.304688 11.199219 3.304688 11.132812 3.304688 11.070312 Z M 3.308594 12.03125 L 3.308594 12.363281 C 3.308594 12.636719 3.527344 12.859375 3.804688 12.859375 L 7.113281 12.859375 C 7.386719 12.859375 7.609375 12.636719 7.609375 12.363281 L 7.609375 12.03125 C 7.609375 12.308594 7.386719 12.527344 7.113281 12.527344 L 3.804688 12.527344 C 3.527344 12.527344 3.308594 12.308594 3.308594 12.03125 Z M 3.308594 12.03125 "/>
<path style="fill:none;stroke-width:3;stroke-linecap:round;stroke-linejoin:round;stroke:rgb(12.941177%,12.941177%,12.941177%);stroke-opacity:1;stroke-miterlimit:4;" d="M 121.738375 11.228396 C 112.864222 11.228396 105.86489 18.352716 105.86489 27.10188 L 105.86489 61.223622 C 105.739902 63.223431 105.739902 65.22324 105.739902 67.348037 L 105.739902 139.216174 C 105.739902 141.215983 105.739902 143.34078 105.86489 145.215601 L 105.86489 169.963238 C 105.86489 178.83739 112.864222 185.836722 121.738375 185.836722 L 227.603265 185.836722 C 236.352429 185.836722 243.476749 178.83739 243.476749 169.963238 L 243.476749 111.843788 C 243.476749 102.969635 236.352429 95.970304 227.603265 95.970304 C 236.352429 95.970304 243.476749 88.845984 243.476749 80.09682 L 243.476749 27.10188 C 243.476749 18.352716 236.352429 11.228396 227.603265 11.228396 Z M 146.111047 42.975365 L 203.105604 42.975365 C 207.855151 42.975365 211.604793 47.224959 211.604793 52.474457 L 211.604793 70.472739 C 211.604793 75.847225 207.855151 80.09682 203.105604 80.09682 L 146.111047 80.09682 C 141.361501 80.09682 137.611859 75.847225 137.611859 70.472739 L 137.611859 52.474457 C 137.611859 47.224959 141.361501 42.975365 146.111047 42.975365 Z M 146.111047 111.843788 L 203.105604 111.843788 C 207.855151 111.843788 211.604793 116.093382 211.604793 121.342881 L 211.604793 144.590661 C 211.604793 149.84016 207.855151 154.089754 203.105604 154.089754 L 146.111047 154.089754 C 141.361501 154.089754 137.611859 149.84016 137.611859 144.590661 L 137.611859 121.342881 C 137.611859 116.093382 141.361501 111.843788 146.111047 111.843788 Z M 146.111047 111.843788 " transform="matrix(0.031253,0,0,0.031253,0,6.719392)"/>
</g>
</svg>
