<svg height="16" viewBox="0 0 16 16" width="16" xmlns="http://www.w3.org/2000/svg" xmlns:xlink="http://www.w3.org/1999/xlink"><linearGradient id="a" gradientUnits="userSpaceOnUse" x1="7.607496" x2="7.607496" y1="14.0169675" y2="14.67848950002"><stop offset="0" stop-opacity=".27451"/><stop offset="1" stop-opacity="0"/></linearGradient><linearGradient id="b"><stop offset="0" stop-opacity=".313726"/><stop offset=".222222" stop-opacity=".27451"/><stop offset="1" stop-opacity="0"/></linearGradient><radialGradient id="c" cx="450.908936" cy="189.579361" gradientTransform="matrix(.00000009 -.0390662 -.0703192 -.00000005 26.726844 31.797666)" gradientUnits="userSpaceOnUse" r="21.166656" xlink:href="#b"/><radialGradient id="d" cx="450.908936" cy="189.579361" gradientTransform="matrix(-.00000009 .0390662 .0703192 .00000005 -10.850327 -3.763739)" gradientUnits="userSpaceOnUse" r="21.166656" xlink:href="#b"/><radialGradient id="e" cx="450.908936" cy="189.579361" gradientTransform="matrix(-.00000009 -.0390662 .0703192 -.00000005 -10.850327 31.797666)" gradientUnits="userSpaceOnUse" r="21.166656" xlink:href="#b"/><radialGradient id="f" cx="450.908936" cy="189.579361" gradientTransform="matrix(.00000009 .0390662 -.0703192 .00000005 26.726843 -3.76374)" gradientUnits="userSpaceOnUse" r="21.166656" xlink:href="#b"/><linearGradient id="g"><stop offset="0" stop-color="#b0bec5"/><stop offset="1" stop-color="#cfd8dc"/></linearGradient><linearGradient id="h" gradientTransform="matrix(.0360368 0 0 .0953132 -2.454603 15.588246)" gradientUnits="userSpaceOnUse" x1="306.752655" x2="305.954529" xlink:href="#g" y1="-16.485477" y2="-141.414581"/><linearGradient id="i" gradientUnits="userSpaceOnUse" x1="7.938262" x2="7.938262" y1="14.0169675" y2="2.1095745"><stop offset="0" stop-color="#5c6bc0"/><stop offset="1" stop-color="#7986cb"/></linearGradient><linearGradient id="j" gradientUnits="userSpaceOnUse" x1="7.938262" x2="7.938262" xlink:href="#g" y1="14.6250225" y2="2.7176295"/><path d="m2.316406 14.054688h11.246094v.625h-11.246094zm0 0" fill="url(#a)"/><path d="m13.5625 14.015625h1.320312v-.660156h-1.320312zm0 0" fill="url(#c)"/><path d="m2.316406 14.015625h-1.324218v.664063h1.324218zm0 0" fill="url(#d)"/><path d="m2.316406 14.015625h-1.324218v-.660156h1.324218zm0 0" fill="url(#e)"/><path d="m13.5625 14.015625h1.320312v.664063h-1.320312zm0 0" fill="url(#f)"/><path d="m1.652344 2.109375h12.570312c.367188 0 .660156.28125.660156.625v10.65625c0 .347656-.292968.625-.660156.625h-12.570312c-.363282 0-.660156-.277344-.660156-.625v-10.65625c0-.34375.296874-.625.660156-.625zm0 0" fill="url(#h)"/><path d="m1.984375 2.769531h11.90625c.183594 0 .332031.148438.332031.332031v9.921876c0 .183593-.148437.332031-.332031.332031h-11.90625c-.183594 0-.332031-.148438-.332031-.332031v-9.921876c0-.183593.148437-.332031.332031-.332031zm0 0" fill="url(#i)"/><path d="m1.652344 2.109375c-.363282 0-.660156.277344-.660156.625v.164063c0-.34375.296874-.625.660156-.625h12.570312c.367188 0 .660156.28125.660156.625v-.164063c0-.347656-.292968-.625-.660156-.625zm0 0" fill="#fff" fill-opacity=".588235"/><path d="m1.652344 14.023438c-.363282 0-.660156-.28125-.660156-.625v-.167969c0 .347656.296874.625.660156.625h12.570312c.367188 0 .660156-.277344.660156-.625v.167969c0 .34375-.292968.625-.660156.625zm0 0" fill-opacity=".235294"/><path d="m52.869951-147.506445h402.211591c11.748878 0 21.122983 8.99914 21.122983 19.99809v340.967439c0 11.123938-9.374105 19.99809-21.122983 19.99809h-402.211591c-11.62389 0-21.122983-8.874152-21.122983-19.99809v-340.967439c0-10.99895 9.499093-19.99809 21.122983-19.99809zm0 0" fill="none" stroke="#212121" stroke-linecap="round" stroke-width="3" transform="matrix(.031253 0 0 .031253 0 6.719392)"/><path d="m1.984375 2.8125c-.183594 0-.332031.148438-.332031.332031v.121094c0-.179687.148437-.328125.332031-.328125h11.90625c.183594 0 .332031.148438.332031.328125v-.121094c0-.183593-.148437-.332031-.332031-.332031zm0 0" fill-opacity=".235294"/><path d="m1.984375 13.523438c-.183594 0-.332031-.148438-.332031-.328126v-.125c0 .183594.148437.328126.332031.328126h11.90625c.183594 0 .332031-.144532.332031-.328126v.125c0 .179688-.148437.328126-.332031.328126zm0 0" fill="#fff" fill-opacity=".588235"/><path d="m63.493937-126.383462h380.963619c5.874439 0 10.623986 4.749546 10.623986 10.623985v317.469683c0 5.874439-4.749547 10.623986-10.623986 10.623986h-380.963619c-5.874439 0-10.623986-4.749547-10.623986-10.623986v-317.469683c0-5.874439 4.749547-10.623985 10.623986-10.623985zm0 0" fill="none" stroke="#212121" stroke-linecap="round" stroke-linejoin="round" stroke-width="3" transform="matrix(.031253 0 0 .031253 0 6.719392)"/><path d="m1.984375 2.769531c-.183594 0-.332031.148438-.332031.332031v2.683594c3.695312-.460937 7.546875-.707031 11.511718-.707031.355469 0 .707032.003906 1.058594.007813v-1.984376c0-.183593-.148437-.332031-.332031-.332031zm0 0" fill="#fff" fill-opacity=".078431"/><path d="m7.773438 5.417969c-.183594 0-.332032.148437-.332032.328125v.222656c-.226562.054688-.441406.144531-.632812.261719l-.15625-.15625c-.066406-.0625-.148438-.097657-.234375-.097657-.085938 0-.167969.035157-.234375.097657l-.234375.234375c-.128907.128906-.128907.339844 0 .46875l.15625.15625c-.117188.191406-.207031.40625-.261719.632812h-.222656c-.179688 0-.328125.148438-.328125.332032v.332031c0 .179687.148437.328125.328125.328125h.222656c.054688.226562.144531.441406.261719.632812l-.15625.160156c-.128907.128907-.128907.335938 0 .464844l.234375.234375c.128906.128907.339844.128907.46875 0l.15625-.15625c.191406.117188.40625.207031.632812.261719v.222656c0 .183594.148438.332032.332032.332032h.332031c.179687 0 .328125-.148438.328125-.332032v-.222656c.226562-.054688.441406-.144531.632812-.261719l.15625.15625c.132813.128907.339844.128907.46875 0l.234375-.234375c.128907-.128906.128907-.335937 0-.464844l-.15625-.160156c.117188-.191406.207031-.40625.261719-.632812h.222656c.183594 0 .332032-.148438.332032-.328125v-.332031c0-.183594-.148438-.332032-.332032-.332032h-.222656c-.054688-.226562-.144531-.441406-.261719-.632812l.15625-.15625c.128907-.128906.128907-.339844 0-.46875l-.234375-.234375c-.0625-.0625-.148437-.097657-.234375-.097657-.082031 0-.167969.035157-.234375.097657l-.15625.15625c-.191406-.117188-.40625-.207031-.632812-.261719v-.222656c0-.179688-.148438-.328125-.328125-.328125zm.164062 1.320312c.734375 0 1.324219.59375 1.324219 1.324219 0 .734375-.589844 1.324219-1.324219 1.324219-.730469 0-1.324219-.589844-1.324219-1.324219 0-.730469.59375-1.324219 1.324219-1.324219zm0 0" fill="url(#j)"/><path d="m5.871094 6.65625c-.039063.113281-.015625.25.078125.34375l.078125.074219c.023437-.046875.050781-.09375.078125-.140625l-.15625-.15625c-.035157-.035156-.0625-.078125-.078125-.121094zm4.132812 0c-.015625.042969-.042968.085938-.078125.121094l-.15625.15625c.027344.046875.054688.09375.082031.140625l.074219-.074219c.09375-.09375.121094-.230469.078125-.34375zm-2.066406.082031c-.730469 0-1.324219.59375-1.324219 1.324219 0 .039062.003907.074219.007813.113281.054687-.683593.621094-1.214843 1.316406-1.214843s1.261719.53125 1.320312 1.214843c0-.039062.003907-.074219.003907-.113281 0-.730469-.589844-1.324219-1.324219-1.324219zm-2.644531 1.492188v.222656c0 .179687.148437.328125.328125.328125h.222656c.042969.171875.105469.339844.183594.492188l.078125-.082032c-.117188-.191406-.207031-.40625-.261719-.632812h-.222656c-.179688 0-.328125-.148438-.328125-.328125zm5.292969 0c0 .179687-.148438.328125-.332032.328125h-.222656c-.054688.226562-.144531.441406-.261719.632812l.082031.082032c.078126-.152344.140626-.320313.179688-.492188h.222656c.183594 0 .332032-.148438.332032-.328125zm-4.714844 1.464843c-.039063.117188-.015625.25.078125.34375l.234375.234376c.128906.128906.339844.128906.46875 0l.15625-.15625c.191406.117187.40625.207031.632812.261718v-.222656c-.226562-.054688-.441406-.144531-.632812-.261719l-.15625.15625c-.128906.128907-.339844.128907-.46875 0l-.234375-.234375c-.035157-.035156-.0625-.078125-.078125-.121094zm1.570312.683594v.222656c0 .183594.148438.332032.332032.332032h.332031c.179687 0 .328125-.148438.328125-.332032v-.222656c0 .183594-.148438.332032-.328125.332032h-.332031c-.183594 0-.332032-.148438-.332032-.332032zm.992188 0c.226562-.054687.441406-.144531.632812-.261718l.15625.15625c.132813.128906.339844.128906.46875 0l.234375-.234376c.09375-.09375.121094-.226562.078125-.34375-.015625.042969-.042968.085938-.078125.121094l-.234375.234375c-.128906.128907-.335937.128907-.46875 0l-.15625-.15625c-.191406.117188-.40625.207031-.632812.261719zm0 0" fill-opacity=".235294"/><path d="m7.773438 5.417969c-.183594 0-.332032.148437-.332032.328125v.167968c0-.183593.148438-.332031.332032-.332031h.332031c.179687 0 .328125.148438.328125.332031v-.167968c0-.179688-.148438-.328125-.328125-.328125zm-.332032.550781c-.226562.054688-.441406.144531-.632812.261719l-.15625-.15625c-.066406-.0625-.148438-.097657-.234375-.097657-.085938 0-.167969.035157-.234375.097657l-.234375.234375c-.085938.085937-.113281.207031-.085938.316406.015625-.054688.042969-.105469.085938-.152344l.234375-.230468c.066406-.066407.148437-.097657.234375-.097657.085937 0 .167969.03125.234375.097657l.15625.15625c.191406-.121094.40625-.210938.632812-.261719zm.992188 0v.167969c.226562.050781.441406.140625.632812.261719l.15625-.15625c.066406-.066407.152344-.097657.234375-.097657.085938 0 .171875.03125.234375.097657l.234375.230468c.042969.046875.074219.097656.085938.152344.03125-.109375 0-.230469-.085938-.316406l-.234375-.234375c-.0625-.0625-.148437-.097657-.234375-.097657-.082031 0-.167969.035157-.234375.097657l-.15625.15625c-.191406-.117188-.40625-.207031-.632812-.261719zm-2.386719 1.070312c-.089844.164063-.15625.339844-.203125.527344h-.222656c-.179688 0-.328125.148438-.328125.332032v.164062c0-.183594.148437-.328125.328125-.328125h.222656c.054688-.230469.144531-.441406.261719-.636719zm3.785156 0-.0625.058594c.117188.195313.207031.40625.261719.636719h.222656c.183594 0 .332032.144531.332032.328125v-.164062c0-.183594-.148438-.332032-.332032-.332032h-.222656c-.042969-.1875-.113281-.363281-.199219-.527344zm-3.214843 1.105469c0 .027344-.003907.054688-.003907.085938 0 .730469.59375 1.320312 1.324219 1.320312.734375 0 1.324219-.589843 1.324219-1.320312 0-.03125 0-.058594-.003907-.085938-.042968.695313-.613281 1.242188-1.320312 1.242188-.703125 0-1.277344-.546875-1.320312-1.242188zm-.570313 1.109375-.097656.097656c-.085938.085938-.113281.207032-.085938.316407.015625-.058594.042969-.109375.085938-.152344l.15625-.15625c-.019531-.035156-.039063-.070313-.058594-.105469zm3.785156 0c-.019531.035156-.042969.070313-.0625.105469l.15625.15625c.042969.042969.074219.09375.085938.152344.03125-.109375 0-.230469-.085938-.316407zm0 0" fill="#fff" fill-opacity=".588235"/><path d="m248.726248-41.641555c-5.874439 0-10.623986 4.749547-10.623986 10.498997v7.12432c-7.249307 1.749833-14.123651 4.624559-20.248066 8.3742l-4.999523-4.999522c-2.124797-1.999809-4.749546-3.124702-7.499283-3.124702-2.749738 0-5.374487 1.124893-7.499284 3.124702l-7.499284 7.499284c-4.124606 4.124606-4.124606 10.873961 0 14.998567l4.999522 4.999523c-3.749642 6.124415-6.624367 12.998759-8.3742 20.248066h-7.12432c-5.749451 0-10.498997 4.749547-10.498997 10.623986v10.623985c0 5.749451 4.749546 10.498998 10.498997 10.498998h7.12432c1.749833 7.249307 4.624558 14.123651 8.3742 20.248066l-4.999522 5.124511c-4.124606 4.124606-4.124606 10.748973 0 14.873579l7.499284 7.499284c4.124606 4.124606 10.873961 4.124606 14.998567 0l4.999523-4.999522c6.124415 3.749642 12.998759 6.624367 20.248066 8.3742v7.12432c0 5.874439 4.749547 10.623985 10.623986 10.623985h10.623985c5.749451 0 10.498998-4.749546 10.498998-10.623985v-7.12432c7.249307-1.749833 14.123651-4.624558 20.248066-8.3742l4.999523 4.999522c4.249594 4.124606 10.873961 4.124606 14.998567 0l7.499284-7.499284c4.124606-4.124606 4.124606-10.748973 0-14.873579l-4.999522-5.124511c3.749642-6.124415 6.624367-12.998759 8.3742-20.248066h7.12432c5.874439 0 10.623985-4.749547 10.623985-10.498998v-10.623985c0-5.874439-4.749546-10.623986-10.623985-10.623986h-7.12432c-1.749833-7.249307-4.624558-14.123651-8.3742-20.248066l4.999522-4.999523c4.124606-4.124606 4.124606-10.873961 0-14.998567l-7.499284-7.499284c-1.999809-1.999809-4.749546-3.124702-7.499283-3.124702-2.62475 0-5.374487 1.124893-7.499284 3.124702l-4.999523 4.999522c-6.124415-3.749641-12.998759-6.624367-20.248066-8.3742v-7.12432c0-5.74945-4.749547-10.498997-10.498998-10.498997zm5.249499 42.245966c23.497756 0 42.370953 18.998186 42.370953 42.370954 0 23.497756-18.873197 42.370953-42.370953 42.370953-23.372768 0-42.370954-18.873197-42.370954-42.370953 0-23.372768 18.998186-42.370954 42.370954-42.370954zm0 0" fill="none" stroke="#212121" stroke-linecap="round" stroke-linejoin="round" stroke-width="3" transform="matrix(.031253 0 0 .031253 0 6.719392)"/></svg>