<svg height="16" width="16" xmlns="http://www.w3.org/2000/svg" xmlns:xlink="http://www.w3.org/1999/xlink"><linearGradient id="a"><stop offset="0" stop-opacity=".314"/><stop offset=".222" stop-opacity=".275"/><stop offset="1" stop-opacity="0"/></linearGradient><radialGradient id="b" cx="450.909" cy="189.579" gradientTransform="matrix(0 -.03907 -.07032 0 22.262 31.798)" gradientUnits="userSpaceOnUse" r="21.167" xlink:href="#a"/><radialGradient id="c" cx="450.909" cy="189.579" gradientTransform="matrix(0 .03907 .07032 0 -6.385 -3.764)" gradientUnits="userSpaceOnUse" r="21.167" xlink:href="#a"/><radialGradient id="d" cx="450.909" cy="189.579" gradientTransform="matrix(0 -.03907 .07032 0 -6.385 31.798)" gradientUnits="userSpaceOnUse" r="21.167" xlink:href="#a"/><radialGradient id="e" cx="450.909" cy="189.579" gradientTransform="matrix(0 .03907 -.07032 0 22.262 -3.764)" gradientUnits="userSpaceOnUse" r="21.167" xlink:href="#a"/><linearGradient id="f" gradientTransform="matrix(.00668 0 0 .03125 6.233 6.72)" gradientUnits="userSpaceOnUse" x1="255.323" x2="255.323" y1="233.5" y2="254.667"><stop offset="0" stop-opacity=".275"/><stop offset="1" stop-opacity="0"/></linearGradient><linearGradient id="g" gradientUnits="userSpaceOnUse" x1="254" x2="254" y1="-168.667" y2="233.5"><stop offset="0" stop-color="#9575cd"/><stop offset="1" stop-color="#7e57c2"/></linearGradient><linearGradient id="h" gradientUnits="userSpaceOnUse" x1="7.9375" x2="7.9375" y1="11.37103125" y2="4.095"><stop offset="0" stop-color="#e0e0e0"/><stop offset="1" stop-color="#eee"/></linearGradient><path d="m9.098 14.016h1.32v-.66h-1.32zm0 0" fill="url(#b)"/><path d="m6.781 14.016h-1.324v.664h1.324zm0 0" fill="url(#c)"/><path d="m6.781 14.016h-1.324v-.66h1.324zm0 0" fill="url(#d)"/><path d="m9.098 14.016h1.32v.664h-1.32zm0 0" fill="url(#e)"/><path d="m6.781 13.852h2.317v.828h-2.318zm0 0" fill="url(#f)"/><path d="m253.976-168.63c111.114 0 201.106 89.992 201.106 201.106 0 110.99-89.992 200.981-201.106 200.981-110.99 0-201.106-89.991-201.106-200.98 0-111.115 90.116-201.106 201.106-201.106zm0 0" fill="url(#g)" stroke="#333" stroke-linecap="round" stroke-width="3" transform="matrix(.03125 0 0 .03125 0 6.72)"/><path d="m7.938 14.016a6.27 6.27 0 0 1 -6.286-6.282v-.062a6.273 6.273 0 0 0 6.285 6.223 6.27 6.27 0 0 0 6.286-6.223v.062a6.27 6.27 0 0 1 -6.286 6.282zm0 0" fill-opacity=".196"/><path d="m7.938 1.45a6.27 6.27 0 0 0 -6.286 6.284v.059a6.273 6.273 0 0 1 6.285-6.223 6.27 6.27 0 0 1 6.286 6.223v-.059a6.27 6.27 0 0 0 -6.286-6.284zm0 0" fill="#fff" fill-opacity=".392"/><path d="m7.938 1.402a6.318 6.318 0 0 0 -6.333 6.332 6.318 6.318 0 0 0 6.332 6.329 6.318 6.318 0 0 0 6.333-6.329 6.318 6.318 0 0 0 -6.332-6.332zm0 .094a6.223 6.223 0 0 1 6.238 6.238 6.222 6.222 0 0 1 -6.239 6.235 6.222 6.222 0 0 1 -6.237-6.235 6.223 6.223 0 0 1 6.239-6.238zm0 0" fill="#212121"/><path d="m5.926 10.883s.426.199.996.27c.226.03 1.105.128 1.777.128 0 0 .817 0 1.266-.062.473-.07.742-.156.89-.324.004-.043.07-.176-.113-.301-.469-.328-1.074-.418-2.254-.7-1.3-.328-1.71-.64-1.906-.867-.184-.226.055-.699 1.106-.933.53-.13 2.402-.196 2.402-.196-.57-.453-1.527-1.214-1.746-1.386-.192-.153-.496-.383-.531-.59-.043-.2.273-.297.44-.309.54-.035 1.278.106 1.93.235.333.066.387.058.387.058.473.02.93-.304.91-.82-.003-.527-.62-.945-1.203-.965-.586-.004-1.98-.004-1.98-.004 1.57.324 1.914.488 1.996.676.047.113-.082.223-.516.203-.467-.023-1.437-.136-1.437-.136-.918-.144-1.48-.277-1.758.086-.184.239.027.532.11.703.363.637.913 1.07 1.316 1.38.148.117.61.374.61.374-1.43-.39-2.65-.172-3.372.207-.832.493-.687 1.32.629 2.098.777.457 1.246.676 2.52.832.746.121.894.168.89.23-.008.086-.922.122-1.16.137-.613.043-2.191-.023-2.2-.023zm0 0" fill="url(#h)"/><path d="m8.297 4.117c.23.047.433.094.613.133.457 0 1.016 0 1.367.004.567.016 1.168.414 1.203.922v-.09c-.003-.527-.62-.945-1.203-.965-.586-.004-1.98-.004-1.98-.004zm-1.129.594c-.262.004-.457.066-.586.234a.35.35 0 0 0 -.066.285.326.326 0 0 1 .066-.152c.277-.363.84-.23 1.758-.09 0 0 .969.117 1.437.14.434.02.563-.089.516-.202-.004-.008-.008-.02-.016-.028-.054.067-.207.114-.5.098-.467-.023-1.437-.136-1.437-.136-.488-.078-.875-.148-1.172-.148zm.652 1.246a.163.163 0 0 0 -.008.098c.036.207.34.437.532.59.203.156 1.011.804 1.586 1.261l.16-.008c-.57-.453-1.527-1.214-1.746-1.386-.18-.145-.465-.36-.524-.555zm-.707 1.238c-.77 0-1.414.176-1.867.414-.367.215-.543.5-.516.813.028-.262.204-.496.516-.68.723-.379 1.941-.601 3.371-.21 0 0-.203-.114-.383-.223a5.51 5.51 0 0 0 -1.12-.114zm-.582 1.735c-.02.086 0 .168.051.23.195.227.606.54 1.906.867 1.18.282 1.785.371 2.254.696.07.05.106.097.117.144.016-.058.04-.168-.117-.273-.469-.328-1.074-.418-2.254-.7-1.3-.328-1.71-.64-1.906-.867a.333.333 0 0 1 -.05-.097zm2.633 1.89c-.262.051-.855.075-1.039.086-.613.043-2.191-.023-2.2-.023 0 0 .157.07.403.144.512.02 1.375.04 1.797.012.238-.016 1.152-.05 1.16-.137.004-.027-.027-.054-.12-.082zm0 0" fill="#fbfbfb"/><path d="m8.297 4.36c1.308.269 1.765.425 1.93.581.07-.039.09-.093.066-.148-.059-.133-.25-.258-.934-.434h-1.062zm3.176.87c-.063.43-.477.696-.903.676 0 0-.054.008-.386-.058-.653-.13-1.391-.27-1.93-.235-.168.012-.484.11-.441.309.003.031.019.066.035.098.082-.106.28-.157.406-.165.539-.039 1.277.106 1.93.235.332.066.386.055.386.055.473.023.93-.301.91-.82 0-.032-.003-.063-.007-.095zm-4.946.06c-.074.214.094.448.164.597.364.636.914 1.074 1.313 1.379.2.035.402.078.613.136 0 0-.46-.257-.61-.375-.402-.308-.952-.742-1.316-1.379-.046-.093-.128-.222-.164-.359zm3.274 2.62c-.543.024-1.711.086-2.114.184-.984.219-1.257.644-1.136.886.094-.226.433-.488 1.136-.644.532-.129 2.403-.2 2.403-.2a22.53 22.53 0 0 1 -.29-.226zm-5.063.567c-.078.441.285.968 1.137 1.468.777.461 1.246.68 2.52.836.187.031.34.055.457.078.234-.02.43-.05.433-.09.004-.062-.144-.109-.89-.23-1.274-.156-1.743-.375-2.52-.832-.703-.414-1.07-.844-1.137-1.23zm6.094 2.441c-.152.156-.418.234-.867.3-.45.063-1.266.063-1.266.063-.672 0-1.55-.097-1.777-.129h-.004c-.523-.011-.988-.03-.992-.03 0 0 .426.202.996.273.226.027 1.105.128 1.777.125 0 0 .817.003 1.266-.063.473-.066.742-.152.89-.324.004-.031.043-.117-.023-.215zm0 0" fill-opacity=".235"/><path d="m5.926 10.883s.426.199.996.27c.226.03 1.105.128 1.777.128 0 0 .817 0 1.266-.062.473-.07.742-.156.89-.324.004-.043.07-.176-.113-.301-.469-.328-1.074-.418-2.254-.7-1.3-.328-1.71-.64-1.906-.867-.184-.226.055-.699 1.106-.933.53-.13 2.402-.196 2.402-.196-.57-.453-1.527-1.214-1.746-1.386-.192-.153-.496-.383-.531-.59-.043-.2.273-.297.44-.309.54-.035 1.278.106 1.93.235.333.066.387.058.387.058.473.02.93-.304.91-.82-.003-.527-.62-.945-1.203-.965-.586-.004-1.98-.004-1.98-.004 1.57.324 1.914.488 1.996.676.047.113-.082.223-.516.203a31.065 31.065 0 0 1 -1.437-.136c-.918-.144-1.48-.277-1.758.086-.184.239.027.532.11.703.363.637.913 1.07 1.316 1.38.148.117.61.374.61.374-1.43-.39-2.65-.172-3.372.207-.832.493-.687 1.32.629 2.098.777.457 1.246.676 2.52.832.746.121.894.168.89.23-.008.086-.922.122-1.16.137-.613.043-2.191-.023-2.2-.023zm0 0" fill="none" stroke="#212121" stroke-linecap="round" stroke-linejoin="round" stroke-width=".09375"/></svg>