<?xml version="1.0" encoding="UTF-8"?>
<svg xmlns="http://www.w3.org/2000/svg" xmlns:xlink="http://www.w3.org/1999/xlink" width="16px" height="16px" viewBox="0 0 16 16" version="1.1">
<defs>
<linearGradient id="linear0" gradientUnits="userSpaceOnUse" x1="254" y1="233.5" x2="254" y2="254.666672" gradientTransform="matrix(0.031253,0,0,0.031253,-0.00000190753,6.719393)">
<stop offset="0" style="stop-color:rgb(0%,0%,0%);stop-opacity:0.27451;"/>
<stop offset="1" style="stop-color:rgb(0%,0%,0%);stop-opacity:0;"/>
</linearGradient>
<radialGradient id="radial0" gradientUnits="userSpaceOnUse" cx="450.908936" cy="189.579361" fx="450.908936" fy="189.579361" r="21.166656" gradientTransform="matrix(0.0000000870852,-0.0390662,-0.0703192,-0.0000000507693,26.065324,31.797666)">
<stop offset="0" style="stop-color:rgb(0%,0%,0%);stop-opacity:0.313726;"/>
<stop offset="0.222222" style="stop-color:rgb(0%,0%,0%);stop-opacity:0.27451;"/>
<stop offset="1" style="stop-color:rgb(0%,0%,0%);stop-opacity:0;"/>
</radialGradient>
<radialGradient id="radial1" gradientUnits="userSpaceOnUse" cx="450.908936" cy="189.579361" fx="450.908936" fy="189.579361" r="21.166656" gradientTransform="matrix(-0.0000000870852,0.0390662,0.0703192,0.0000000507693,-10.188807,-3.763739)">
<stop offset="0" style="stop-color:rgb(0%,0%,0%);stop-opacity:0.313726;"/>
<stop offset="0.222222" style="stop-color:rgb(0%,0%,0%);stop-opacity:0.27451;"/>
<stop offset="1" style="stop-color:rgb(0%,0%,0%);stop-opacity:0;"/>
</radialGradient>
<radialGradient id="radial2" gradientUnits="userSpaceOnUse" cx="450.908936" cy="189.579361" fx="450.908936" fy="189.579361" r="21.166656" gradientTransform="matrix(-0.0000000870852,-0.0390662,0.0703192,-0.0000000507693,-10.188807,31.797666)">
<stop offset="0" style="stop-color:rgb(0%,0%,0%);stop-opacity:0.313726;"/>
<stop offset="0.222222" style="stop-color:rgb(0%,0%,0%);stop-opacity:0.27451;"/>
<stop offset="1" style="stop-color:rgb(0%,0%,0%);stop-opacity:0;"/>
</radialGradient>
<radialGradient id="radial3" gradientUnits="userSpaceOnUse" cx="450.908936" cy="189.579361" fx="450.908936" fy="189.579361" r="21.166656" gradientTransform="matrix(0.0000000870852,0.0390662,-0.0703192,0.0000000507693,26.065323,-3.76374)">
<stop offset="0" style="stop-color:rgb(0%,0%,0%);stop-opacity:0.313726;"/>
<stop offset="0.222222" style="stop-color:rgb(0%,0%,0%);stop-opacity:0.27451;"/>
<stop offset="1" style="stop-color:rgb(0%,0%,0%);stop-opacity:0;"/>
</radialGradient>
<linearGradient id="linear1" gradientUnits="userSpaceOnUse" x1="169.333328" y1="233.5" x2="169.333328" y2="-168.666656" gradientTransform="matrix(0.031253,0,0,0.031253,0,6.719392)">
<stop offset="0" style="stop-color:rgb(74.117649%,74.117649%,74.117649%);stop-opacity:1;"/>
<stop offset="1" style="stop-color:rgb(87.843138%,87.843138%,87.843138%);stop-opacity:1;"/>
</linearGradient>
<linearGradient id="linear2" gradientUnits="userSpaceOnUse" x1="253.999985" y1="212.333328" x2="254" y2="-147.5" gradientTransform="matrix(0.031253,0,0,0.031253,0,6.719392)">
<stop offset="0" style="stop-color:rgb(25.882354%,64.705884%,96.078432%);stop-opacity:1;"/>
<stop offset="1" style="stop-color:rgb(39.215687%,70.980394%,96.470588%);stop-opacity:1;"/>
</linearGradient>
<linearGradient id="linear3" gradientUnits="userSpaceOnUse" x1="959.999939" y1="1615.118164" x2="960" y2="255.118118" gradientTransform="matrix(0.00826902,0,0,0.00826902,0,0)">
<stop offset="0" style="stop-color:rgb(74.117649%,74.117649%,74.117649%);stop-opacity:1;"/>
<stop offset="1" style="stop-color:rgb(87.843138%,87.843138%,87.843138%);stop-opacity:1;"/>
</linearGradient>
</defs>
<g id="surface1">
<path style=" stroke:none;fill-rule:nonzero;fill:url(#linear0);" d="M 2.976562 13.96875 L 12.898438 13.96875 L 12.898438 14.703125 L 2.976562 14.703125 Z M 2.976562 13.96875 "/>
<path style=" stroke:none;fill-rule:nonzero;fill:url(#radial0);" d="M 12.898438 14.015625 L 14.222656 14.015625 L 14.222656 13.355469 L 12.898438 13.355469 Z M 12.898438 14.015625 "/>
<path style=" stroke:none;fill-rule:nonzero;fill:url(#radial1);" d="M 2.976562 14.015625 L 1.652344 14.015625 L 1.652344 14.679688 L 2.976562 14.679688 Z M 2.976562 14.015625 "/>
<path style=" stroke:none;fill-rule:nonzero;fill:url(#radial2);" d="M 2.976562 14.015625 L 1.652344 14.015625 L 1.652344 13.355469 L 2.976562 13.355469 Z M 2.976562 14.015625 "/>
<path style=" stroke:none;fill-rule:nonzero;fill:url(#radial3);" d="M 12.898438 14.015625 L 14.222656 14.015625 L 14.222656 14.679688 L 12.898438 14.679688 Z M 12.898438 14.015625 "/>
<path style=" stroke:none;fill-rule:nonzero;fill:url(#linear1);" d="M 2.316406 1.449219 L 13.5625 1.449219 C 13.925781 1.449219 14.222656 1.746094 14.222656 2.109375 L 14.222656 13.355469 C 14.222656 13.722656 13.925781 14.015625 13.5625 14.015625 L 2.316406 14.015625 C 1.949219 14.015625 1.652344 13.722656 1.652344 13.355469 L 1.652344 2.109375 C 1.652344 1.746094 1.949219 1.449219 2.316406 1.449219 Z M 2.316406 1.449219 "/>
<path style=" stroke:none;fill-rule:nonzero;fill:url(#linear2);" d="M 3.96875 2.109375 C 3.882812 2.109375 3.796875 2.144531 3.734375 2.207031 L 2.414062 3.53125 C 2.351562 3.59375 2.316406 3.675781 2.316406 3.761719 L 2.316406 13.023438 C 2.316406 13.207031 2.464844 13.355469 2.644531 13.355469 L 11.90625 13.355469 C 11.996094 13.355469 12.078125 13.320312 12.140625 13.257812 L 13.464844 11.933594 C 13.527344 11.875 13.5625 11.789062 13.5625 11.703125 L 13.5625 2.441406 C 13.5625 2.257812 13.414062 2.109375 13.230469 2.109375 Z M 3.96875 2.109375 "/>
<path style=" stroke:none;fill-rule:nonzero;fill:rgb(90.196079%,90.196079%,90.196079%);fill-opacity:1;" d="M 2.316406 1.449219 C 1.949219 1.449219 1.652344 1.742188 1.652344 2.109375 L 1.652344 2.191406 C 1.652344 1.824219 1.949219 1.53125 2.316406 1.53125 L 13.5625 1.53125 C 13.925781 1.53125 14.222656 1.824219 14.222656 2.191406 L 14.222656 2.109375 C 14.222656 1.742188 13.925781 1.449219 13.5625 1.449219 Z M 2.316406 1.449219 "/>
<path style=" stroke:none;fill-rule:nonzero;fill:rgb(0%,0%,0%);fill-opacity:0.196078;" d="M 2.316406 14.015625 C 1.949219 14.015625 1.652344 13.722656 1.652344 13.355469 L 1.652344 13.273438 C 1.652344 13.640625 1.949219 13.933594 2.316406 13.933594 L 13.5625 13.933594 C 13.925781 13.933594 14.222656 13.640625 14.222656 13.273438 L 14.222656 13.355469 C 14.222656 13.722656 13.925781 14.015625 13.5625 14.015625 Z M 2.316406 14.015625 "/>
<path style="fill:none;stroke-width:3;stroke-linecap:round;stroke-linejoin:miter;stroke:rgb(12.941177%,12.941177%,12.941177%);stroke-opacity:1;stroke-miterlimit:4;" d="M 74.117922 -168.629428 L 433.958559 -168.629428 C 445.582449 -168.629428 455.081542 -159.130335 455.081542 -147.506445 L 455.081542 212.334192 C 455.081542 224.08307 445.582449 233.457174 433.958559 233.457174 L 74.117922 233.457174 C 62.369044 233.457174 52.869951 224.08307 52.869951 212.334192 L 52.869951 -147.506445 C 52.869951 -159.130335 62.369044 -168.629428 74.117922 -168.629428 Z M 74.117922 -168.629428 " transform="matrix(0.031253,0,0,0.031253,0,6.719392)"/>
<path style=" stroke:none;fill-rule:nonzero;fill:rgb(0%,0%,0%);fill-opacity:0.235294;" d="M 3.96875 2.109375 C 3.882812 2.109375 3.796875 2.144531 3.734375 2.207031 L 2.414062 3.53125 C 2.351562 3.59375 2.316406 3.675781 2.316406 3.761719 L 2.316406 3.902344 C 2.316406 3.816406 2.351562 3.730469 2.414062 3.667969 L 3.734375 2.347656 C 3.796875 2.285156 3.882812 2.25 3.96875 2.25 L 13.230469 2.25 C 13.414062 2.25 13.5625 2.398438 13.5625 2.578125 L 13.5625 2.441406 C 13.5625 2.257812 13.414062 2.109375 13.230469 2.109375 Z M 3.96875 2.109375 "/>
<path style=" stroke:none;fill-rule:nonzero;fill:rgb(100%,100%,100%);fill-opacity:1;" d="M 13.5625 11.691406 C 13.5625 11.777344 13.527344 11.863281 13.464844 11.921875 L 12.140625 13.246094 C 12.078125 13.308594 11.996094 13.34375 11.90625 13.34375 L 2.644531 13.34375 C 2.464844 13.34375 2.316406 13.195312 2.316406 13.011719 L 2.316406 13.210938 C 2.316406 13.390625 2.464844 13.539062 2.644531 13.539062 L 11.90625 13.539062 C 11.996094 13.539062 12.078125 13.503906 12.140625 13.445312 L 13.464844 12.121094 C 13.527344 12.058594 13.5625 11.976562 13.5625 11.886719 Z M 13.5625 11.691406 "/>
<path style="fill:none;stroke-width:3;stroke-linecap:round;stroke-linejoin:round;stroke:rgb(12.941177%,12.941177%,12.941177%);stroke-opacity:1;stroke-miterlimit:4;" d="M 126.987873 -147.506445 C 124.238136 -147.506445 121.488398 -146.381553 119.488589 -144.381744 L 77.242624 -102.01079 C 75.242815 -100.010981 74.117922 -97.386232 74.117922 -94.636494 L 74.117922 201.710206 C 74.117922 207.584645 78.867469 212.334192 84.616919 212.334192 L 380.96362 212.334192 C 383.838345 212.334192 386.463095 211.209299 388.462904 209.20949 L 430.833857 166.838536 C 432.833666 164.963715 433.958559 162.213978 433.958559 159.46424 L 433.958559 -136.88246 C 433.958559 -142.756899 429.209013 -147.506445 423.334574 -147.506445 Z M 126.987873 -147.506445 " transform="matrix(0.031253,0,0,0.031253,0,6.719392)"/>
<path style=" stroke:none;fill-rule:nonzero;fill:url(#linear3);" d="M 4.300781 3.765625 C 4.210938 3.765625 4.128906 3.796875 4.066406 3.859375 L 3.074219 4.851562 C 3.011719 4.914062 2.976562 5 2.976562 5.085938 L 2.976562 10.378906 C 2.976562 10.464844 3.011719 10.550781 3.074219 10.613281 L 4.066406 11.605469 C 4.128906 11.667969 4.210938 11.699219 4.300781 11.699219 L 7.609375 11.699219 C 7.878906 11.699219 8.035156 11.390625 7.871094 11.171875 L 6.878906 9.851562 C 6.816406 9.765625 6.71875 9.71875 6.613281 9.71875 L 4.960938 9.71875 L 4.960938 8.722656 L 6.613281 8.722656 C 6.796875 8.722656 6.945312 8.578125 6.945312 8.394531 L 6.945312 7.070312 C 6.945312 6.886719 6.796875 6.742188 6.613281 6.742188 L 4.960938 6.742188 L 4.960938 5.746094 L 6.613281 5.746094 C 6.71875 5.746094 6.816406 5.699219 6.878906 5.617188 L 7.871094 4.292969 C 8.035156 4.074219 7.878906 3.765625 7.609375 3.765625 Z M 9.261719 3.765625 C 9.15625 3.765625 9.058594 3.8125 8.996094 3.894531 L 8.003906 5.21875 C 7.960938 5.277344 7.9375 5.347656 7.9375 5.417969 L 7.9375 7.402344 C 7.9375 7.488281 7.972656 7.574219 8.035156 7.636719 L 9.027344 8.628906 C 9.089844 8.691406 9.171875 8.722656 9.261719 8.722656 L 10.914062 8.722656 L 10.914062 9.71875 L 8.269531 9.71875 C 7.996094 9.71875 7.839844 10.027344 8.003906 10.246094 L 8.996094 11.570312 C 9.058594 11.652344 9.15625 11.699219 9.261719 11.699219 L 11.578125 11.699219 C 11.664062 11.699219 11.75 11.667969 11.808594 11.605469 L 12.800781 10.613281 C 12.863281 10.550781 12.898438 10.464844 12.898438 10.378906 L 12.898438 8.0625 C 12.898438 7.976562 12.863281 7.890625 12.800781 7.828125 L 11.808594 6.835938 C 11.75 6.777344 11.664062 6.742188 11.578125 6.742188 L 9.921875 6.742188 L 9.921875 5.746094 L 11.578125 5.746094 C 11.679688 5.746094 11.777344 5.699219 11.839844 5.617188 L 12.832031 4.292969 C 12.996094 4.074219 12.839844 3.765625 12.570312 3.765625 Z M 9.261719 3.765625 "/>
<path style=" stroke:none;fill-rule:nonzero;fill:rgb(0%,0%,0%);fill-opacity:0.235294;" d="M 7.832031 4.347656 L 6.878906 5.613281 C 6.816406 5.699219 6.71875 5.746094 6.613281 5.746094 L 4.960938 5.746094 L 4.960938 6.242188 L 6.613281 6.242188 C 6.71875 6.242188 6.816406 6.195312 6.878906 6.109375 L 7.871094 4.789062 C 7.980469 4.640625 7.945312 4.453125 7.832031 4.347656 Z M 12.792969 4.347656 L 11.839844 5.613281 C 11.777344 5.699219 11.679688 5.746094 11.578125 5.746094 L 9.921875 5.746094 L 9.921875 6.242188 L 11.578125 6.242188 C 11.679688 6.242188 11.777344 6.195312 11.839844 6.109375 L 12.832031 4.789062 C 12.941406 4.640625 12.910156 4.453125 12.792969 4.347656 Z M 7.9375 7.402344 L 7.9375 7.898438 C 7.9375 7.984375 7.972656 8.070312 8.035156 8.128906 L 9.027344 9.125 C 9.089844 9.183594 9.171875 9.21875 9.261719 9.21875 L 10.914062 9.21875 L 10.914062 8.722656 L 9.261719 8.722656 C 9.171875 8.722656 9.089844 8.6875 9.027344 8.628906 L 8.035156 7.632812 C 7.972656 7.574219 7.9375 7.488281 7.9375 7.402344 Z M 6.945312 8.394531 C 6.945312 8.574219 6.796875 8.722656 6.613281 8.722656 L 4.960938 8.722656 L 4.960938 9.21875 L 6.613281 9.21875 C 6.796875 9.21875 6.945312 9.070312 6.945312 8.890625 Z M 8.046875 10.300781 C 7.929688 10.40625 7.894531 10.59375 8.003906 10.742188 L 8.996094 12.066406 C 9.058594 12.148438 9.15625 12.195312 9.261719 12.195312 L 11.578125 12.195312 C 11.664062 12.195312 11.75 12.160156 11.808594 12.101562 L 12.800781 11.109375 C 12.863281 11.046875 12.898438 10.960938 12.898438 10.875 L 12.898438 10.378906 C 12.898438 10.464844 12.863281 10.550781 12.800781 10.613281 L 11.808594 11.605469 C 11.75 11.664062 11.664062 11.699219 11.578125 11.699219 L 9.261719 11.699219 C 9.15625 11.699219 9.058594 11.652344 8.996094 11.570312 Z M 2.976562 10.378906 L 2.976562 10.875 C 2.976562 10.960938 3.011719 11.046875 3.074219 11.109375 L 4.066406 12.101562 C 4.128906 12.160156 4.210938 12.195312 4.300781 12.195312 L 7.609375 12.195312 C 7.878906 12.195312 8.035156 11.886719 7.871094 11.667969 L 7.832031 11.613281 C 7.773438 11.667969 7.695312 11.699219 7.609375 11.699219 L 4.300781 11.699219 C 4.210938 11.699219 4.128906 11.664062 4.066406 11.605469 L 3.074219 10.613281 C 3.011719 10.550781 2.976562 10.464844 2.976562 10.378906 Z M 2.976562 10.378906 "/>
<path style=" stroke:none;fill-rule:nonzero;fill:rgb(100%,100%,100%);fill-opacity:0.784314;" d="M 4.300781 3.765625 C 4.210938 3.765625 4.128906 3.796875 4.066406 3.859375 L 3.074219 4.851562 C 3.011719 4.914062 2.976562 5 2.976562 5.085938 L 2.976562 5.25 C 2.976562 5.164062 3.011719 5.078125 3.074219 5.019531 L 4.066406 4.027344 C 4.128906 3.964844 4.210938 3.929688 4.300781 3.929688 L 7.609375 3.929688 C 7.769531 3.929688 7.890625 4.039062 7.925781 4.175781 C 7.980469 3.980469 7.835938 3.765625 7.609375 3.765625 Z M 9.261719 3.765625 C 9.15625 3.765625 9.058594 3.8125 8.996094 3.894531 L 8.003906 5.21875 C 7.960938 5.277344 7.9375 5.347656 7.9375 5.417969 L 7.9375 5.582031 C 7.9375 5.511719 7.960938 5.441406 8.003906 5.382812 L 8.996094 4.0625 C 9.058594 3.976562 9.15625 3.929688 9.261719 3.929688 L 12.570312 3.929688 C 12.730469 3.929688 12.855469 4.039062 12.890625 4.175781 C 12.941406 3.980469 12.796875 3.765625 12.570312 3.765625 Z M 4.960938 6.742188 L 4.960938 6.90625 L 6.613281 6.90625 C 6.796875 6.90625 6.945312 7.054688 6.945312 7.234375 L 6.945312 7.070312 C 6.945312 6.886719 6.796875 6.742188 6.613281 6.742188 Z M 9.921875 6.742188 L 9.921875 6.90625 L 11.578125 6.90625 C 11.664062 6.90625 11.75 6.941406 11.808594 7.003906 L 12.800781 7.996094 C 12.863281 8.054688 12.898438 8.140625 12.898438 8.226562 L 12.898438 8.0625 C 12.898438 7.976562 12.863281 7.890625 12.800781 7.828125 L 11.808594 6.835938 C 11.75 6.777344 11.664062 6.742188 11.578125 6.742188 Z M 4.960938 9.71875 L 4.960938 9.882812 L 6.613281 9.882812 C 6.71875 9.882812 6.816406 9.929688 6.878906 10.015625 L 7.871094 11.335938 C 7.898438 11.375 7.917969 11.414062 7.925781 11.453125 C 7.949219 11.359375 7.9375 11.257812 7.871094 11.171875 L 6.878906 9.851562 C 6.816406 9.765625 6.71875 9.71875 6.613281 9.71875 Z M 8.269531 9.71875 C 8.042969 9.71875 7.898438 9.933594 7.949219 10.132812 C 7.984375 9.996094 8.105469 9.882812 8.269531 9.882812 L 10.914062 9.882812 L 10.914062 9.71875 Z M 8.269531 9.71875 "/>
<path style="fill:none;stroke-width:11.338583;stroke-linecap:round;stroke-linejoin:round;stroke:rgb(12.941177%,12.941177%,12.941177%);stroke-opacity:1;stroke-miterlimit:4;" d="M 520.10784 455.389607 C 509.242735 455.389607 499.322422 459.168774 491.764088 466.727108 L 371.77554 586.715656 C 364.217207 594.27399 359.965644 604.666698 359.965644 615.059407 L 359.965644 1255.155795 C 359.965644 1265.548504 364.217207 1275.941213 371.77554 1283.499547 L 491.764088 1403.488095 C 499.322422 1411.046428 509.242735 1414.825595 520.10784 1414.825595 L 920.227132 1414.825595 C 952.822446 1414.825595 971.71828 1377.506322 951.877654 1351.052154 L 831.889106 1191.382354 C 824.330772 1180.989645 812.520876 1175.320895 799.766188 1175.320895 L 599.94274 1175.320895 L 599.94274 1054.859951 L 799.766188 1054.859951 C 821.968793 1054.859951 839.919836 1037.381305 839.919836 1015.178699 L 839.919836 855.036503 C 839.919836 832.833898 821.968793 815.355251 799.766188 815.355251 L 599.94274 815.355251 L 599.94274 694.894307 L 799.766188 694.894307 C 812.520876 694.894307 824.330772 689.225557 831.889106 679.305244 L 951.877654 519.163048 C 971.71828 492.70888 952.822446 455.389607 920.227132 455.389607 Z M 1120.05058 455.389607 C 1107.295892 455.389607 1095.485995 461.058358 1087.927661 470.978671 L 967.939113 631.120867 C 962.742759 638.206804 959.908384 646.70993 959.908384 655.213055 L 959.908384 895.190151 C 959.908384 905.58286 964.159947 915.975569 971.71828 923.533903 L 1091.706828 1043.522451 C 1099.265162 1051.080784 1109.185475 1054.859951 1120.05058 1054.859951 L 1319.874028 1054.859951 L 1319.874028 1175.320895 L 1000.062032 1175.320895 C 966.994322 1175.320895 948.098487 1212.640168 967.939113 1239.094336 L 1087.927661 1399.236532 C 1095.485995 1409.156845 1107.295892 1414.825595 1120.05058 1414.825595 L 1400.181324 1414.825595 C 1410.574032 1414.825595 1420.966741 1411.046428 1428.052679 1403.488095 L 1548.041227 1283.499547 C 1555.599561 1275.941213 1559.851124 1265.548504 1559.851124 1255.155795 L 1559.851124 975.025051 C 1559.851124 964.632342 1555.599561 954.239633 1548.041227 946.6813 L 1428.052679 826.692752 C 1420.966741 819.606814 1410.574032 815.355251 1400.181324 815.355251 L 1199.88548 815.355251 L 1199.88548 694.894307 L 1400.181324 694.894307 C 1412.463616 694.894307 1424.273512 689.225557 1431.831846 679.305244 L 1551.820394 519.163048 C 1571.66102 492.70888 1552.765186 455.389607 1520.169872 455.389607 Z M 1120.05058 455.389607 " transform="matrix(0.00826902,0,0,0.00826902,0,0)"/>
</g>
</svg>
