<?xml version="1.0" encoding="UTF-8"?>
<svg xmlns="http://www.w3.org/2000/svg" xmlns:xlink="http://www.w3.org/1999/xlink" width="16pt" height="16pt" viewBox="0 0 16 16" version="1.1">
<defs>
<linearGradient id="linear0" gradientUnits="userSpaceOnUse" x1="254" y1="233.5" x2="254" y2="254.666672" gradientTransform="matrix(0.031253,0,0,0.031253,-0.00000190753,6.719393)">
<stop offset="0" style="stop-color:rgb(0%,0%,0%);stop-opacity:0.27451;"/>
<stop offset="1" style="stop-color:rgb(0%,0%,0%);stop-opacity:0;"/>
</linearGradient>
<radialGradient id="radial0" gradientUnits="userSpaceOnUse" cx="450.908936" cy="189.579361" fx="450.908936" fy="189.579361" r="21.166656" gradientTransform="matrix(0.0000000870852,-0.0390662,-0.0703192,-0.0000000507693,26.561465,31.797666)">
<stop offset="0" style="stop-color:rgb(0%,0%,0%);stop-opacity:0.313725;"/>
<stop offset="0.222222" style="stop-color:rgb(0%,0%,0%);stop-opacity:0.27451;"/>
<stop offset="1" style="stop-color:rgb(0%,0%,0%);stop-opacity:0;"/>
</radialGradient>
<radialGradient id="radial1" gradientUnits="userSpaceOnUse" cx="450.908936" cy="189.579361" fx="450.908936" fy="189.579361" r="21.166656" gradientTransform="matrix(-0.0000000870852,0.0390662,0.0703192,0.0000000507693,-10.60226,-3.763739)">
<stop offset="0" style="stop-color:rgb(0%,0%,0%);stop-opacity:0.313725;"/>
<stop offset="0.222222" style="stop-color:rgb(0%,0%,0%);stop-opacity:0.27451;"/>
<stop offset="1" style="stop-color:rgb(0%,0%,0%);stop-opacity:0;"/>
</radialGradient>
<radialGradient id="radial2" gradientUnits="userSpaceOnUse" cx="450.908936" cy="189.579361" fx="450.908936" fy="189.579361" r="21.166656" gradientTransform="matrix(-0.0000000870852,-0.0390662,0.0703192,-0.0000000507693,-10.60226,31.797666)">
<stop offset="0" style="stop-color:rgb(0%,0%,0%);stop-opacity:0.313725;"/>
<stop offset="0.222222" style="stop-color:rgb(0%,0%,0%);stop-opacity:0.27451;"/>
<stop offset="1" style="stop-color:rgb(0%,0%,0%);stop-opacity:0;"/>
</radialGradient>
<radialGradient id="radial3" gradientUnits="userSpaceOnUse" cx="450.908936" cy="189.579361" fx="450.908936" fy="189.579361" r="21.166656" gradientTransform="matrix(0.0000000870852,0.0390662,-0.0703192,0.0000000507693,26.561464,-3.76374)">
<stop offset="0" style="stop-color:rgb(0%,0%,0%);stop-opacity:0.313725;"/>
<stop offset="0.222222" style="stop-color:rgb(0%,0%,0%);stop-opacity:0.27451;"/>
<stop offset="1" style="stop-color:rgb(0%,0%,0%);stop-opacity:0;"/>
</radialGradient>
<linearGradient id="linear1" gradientUnits="userSpaceOnUse" x1="254" y1="233.5" x2="254" y2="-168.666672" gradientTransform="matrix(0.031253,0,0,0.031253,0,6.719392)">
<stop offset="0" style="stop-color:rgb(25.882353%,25.882353%,25.882353%);stop-opacity:1;"/>
<stop offset="1" style="stop-color:rgb(38.039216%,38.039216%,38.039216%);stop-opacity:1;"/>
</linearGradient>
<linearGradient id="linear2" gradientUnits="userSpaceOnUse" x1="254" y1="-115.75" x2="254" y2="212.333328" >
<stop offset="0" style="stop-color:rgb(56.470588%,64.313725%,68.235294%);stop-opacity:1;"/>
<stop offset="1" style="stop-color:rgb(69.019608%,74.509804%,77.254902%);stop-opacity:1;"/>
</linearGradient>
<linearGradient id="linear3" gradientUnits="userSpaceOnUse" x1="960" y1="1295.118164" x2="960" y2="575.118103" >
<stop offset="0" style="stop-color:rgb(25.882353%,25.882353%,25.882353%);stop-opacity:1;"/>
<stop offset="1" style="stop-color:rgb(38.039216%,38.039216%,38.039216%);stop-opacity:1;"/>
</linearGradient>
</defs>
<g id="surface1">
<path style=" stroke:none;fill-rule:nonzero;fill:url(#linear0);" d="M 2.5625 14.015625 L 13.394531 14.015625 L 13.394531 14.679688 L 2.5625 14.679688 Z M 2.5625 14.015625 "/>
<path style=" stroke:none;fill-rule:nonzero;fill:url(#radial0);" d="M 13.394531 14.015625 L 14.71875 14.015625 L 14.71875 13.355469 L 13.394531 13.355469 Z M 13.394531 14.015625 "/>
<path style=" stroke:none;fill-rule:nonzero;fill:url(#radial1);" d="M 2.5625 14.015625 L 1.242188 14.015625 L 1.242188 14.679688 L 2.5625 14.679688 Z M 2.5625 14.015625 "/>
<path style=" stroke:none;fill-rule:nonzero;fill:url(#radial2);" d="M 2.5625 14.015625 L 1.242188 14.015625 L 1.242188 13.355469 L 2.5625 13.355469 Z M 2.5625 14.015625 "/>
<path style=" stroke:none;fill-rule:nonzero;fill:url(#radial3);" d="M 13.394531 14.015625 L 14.71875 14.015625 L 14.71875 14.679688 L 13.394531 14.679688 Z M 13.394531 14.015625 "/>
<path style=" stroke:none;fill-rule:nonzero;fill:url(#linear1);" d="M 1.488281 1.449219 L 14.386719 1.449219 C 14.660156 1.449219 14.882812 1.671875 14.882812 1.945312 L 14.882812 13.519531 C 14.882812 13.792969 14.660156 14.015625 14.386719 14.015625 L 1.488281 14.015625 C 1.214844 14.015625 0.992188 13.792969 0.992188 13.519531 L 0.992188 1.945312 C 0.992188 1.671875 1.214844 1.449219 1.488281 1.449219 Z M 1.488281 1.449219 "/>
<path style=" stroke:none;fill-rule:nonzero;fill:rgb(100%,100%,100%);fill-opacity:0.392157;" d="M 1.488281 1.449219 C 1.214844 1.449219 0.992188 1.667969 0.992188 1.945312 L 0.992188 2.109375 C 0.992188 1.835938 1.214844 1.613281 1.488281 1.613281 L 14.386719 1.613281 C 14.664062 1.613281 14.882812 1.835938 14.882812 2.109375 L 14.882812 1.945312 C 14.882812 1.667969 14.664062 1.449219 14.386719 1.449219 Z M 1.488281 1.449219 "/>
<path style=" stroke:none;fill-rule:nonzero;fill:rgb(0%,0%,0%);fill-opacity:0.235294;" d="M 1.488281 14.015625 C 1.214844 14.015625 0.992188 13.796875 0.992188 13.519531 L 0.992188 13.355469 C 0.992188 13.628906 1.214844 13.851562 1.488281 13.851562 L 14.386719 13.851562 C 14.664062 13.851562 14.882812 13.628906 14.882812 13.355469 L 14.882812 13.519531 C 14.882812 13.796875 14.664062 14.015625 14.386719 14.015625 Z M 1.488281 14.015625 "/>
<path style=" stroke:none;fill-rule:nonzero;fill:rgb(12.941177%,12.941177%,12.941177%);fill-opacity:1;" d="M 1.488281 1.402344 C 1.1875 1.402344 0.945312 1.644531 0.945312 1.945312 L 0.945312 13.519531 C 0.945312 13.820312 1.1875 14.0625 1.488281 14.0625 L 14.386719 14.0625 C 14.6875 14.0625 14.929688 13.820312 14.929688 13.519531 L 14.929688 1.945312 C 14.929688 1.644531 14.6875 1.402344 14.386719 1.402344 Z M 1.488281 1.496094 L 14.386719 1.496094 C 14.636719 1.496094 14.835938 1.695312 14.835938 1.945312 L 14.835938 13.519531 C 14.835938 13.769531 14.636719 13.96875 14.386719 13.96875 L 1.488281 13.96875 C 1.238281 13.96875 1.039062 13.769531 1.039062 13.519531 L 1.039062 1.945312 C 1.039062 1.695312 1.238281 1.496094 1.488281 1.496094 Z M 1.488281 1.496094 "/>
<path style="fill-rule:nonzero;fill:url(#linear2);stroke-width:3;stroke-linecap:round;stroke-linejoin:round;stroke:rgb(12.941177%,12.941177%,12.941177%);stroke-opacity:1;stroke-miterlimit:4;" d="M 63.493937 -115.759477 L 444.457556 -115.759477 C 450.331995 -115.759477 455.081542 -111.009931 455.081542 -105.135492 L 455.081542 201.710206 C 455.081542 207.584645 450.331995 212.334192 444.457556 212.334192 L 63.493937 212.334192 C 57.619498 212.334192 52.869951 207.584645 52.869951 201.710206 L 52.869951 -105.135492 C 52.869951 -111.009931 57.619498 -115.759477 63.493937 -115.759477 Z M 63.493937 -115.759477 " transform="matrix(0.031253,0,0,0.031253,0,6.719392)"/>
<path style="fill-rule:nonzero;fill:url(#linear3);stroke-width:11.338583;stroke-linecap:round;stroke-linejoin:round;stroke:rgb(12.941177%,12.941177%,12.941177%);stroke-opacity:1;stroke-miterlimit:4;" d="M 959.908384 615.059407 C 782.759937 615.059407 640.096388 686.391182 640.096388 775.201603 C 640.096388 863.539629 782.759937 935.343799 959.908384 935.343799 C 1137.056831 935.343799 1280.192776 863.539629 1280.192776 775.201603 C 1280.192776 686.391182 1137.056831 615.059407 959.908384 615.059407 Z M 650.016701 895.190151 C 643.403159 907.944839 640.096388 921.171923 640.096388 935.343799 C 640.096388 1023.681825 782.759937 1095.013599 959.908384 1095.013599 C 1137.056831 1095.013599 1280.192776 1023.681825 1280.192776 935.343799 C 1280.192776 921.171923 1276.413609 907.944839 1269.800067 895.190151 C 1234.842773 964.159947 1109.657871 1015.178699 959.908384 1015.178699 C 810.158897 1015.178699 685.44639 964.159947 650.016701 895.190151 Z M 650.016701 1055.332347 C 643.403159 1068.087035 640.096388 1081.314119 640.096388 1095.013599 C 640.096388 1183.824021 782.759937 1255.155795 959.908384 1255.155795 C 1137.056831 1255.155795 1280.192776 1183.824021 1280.192776 1095.013599 C 1280.192776 1081.314119 1276.413609 1068.087035 1269.800067 1055.332347 C 1234.842773 1124.302142 1109.657871 1175.320895 959.908384 1175.320895 C 810.158897 1175.320895 685.44639 1124.302142 650.016701 1055.332347 Z M 650.016701 1055.332347 " transform="matrix(0.00826902,0,0,0.00826902,0,0)"/>
</g>
</svg>
