<?xml version="1.0" encoding="UTF-8"?>
<svg xmlns="http://www.w3.org/2000/svg" xmlns:xlink="http://www.w3.org/1999/xlink" width="16px" height="16px" viewBox="0 0 16 16" version="1.1">
<defs>
<linearGradient id="linear0" gradientUnits="userSpaceOnUse" x1="254" y1="233.5" x2="254" y2="254.666672" gradientTransform="matrix(0.031253,0,0,0.031253,-0.00000190753,6.719393)">
<stop offset="0" style="stop-color:rgb(0%,0%,0%);stop-opacity:0.27451;"/>
<stop offset="1" style="stop-color:rgb(0%,0%,0%);stop-opacity:0;"/>
</linearGradient>
<radialGradient id="radial0" gradientUnits="userSpaceOnUse" cx="450.908936" cy="189.579361" fx="450.908936" fy="189.579361" r="21.166656" gradientTransform="matrix(0.0000000870852,-0.0390662,-0.0703192,-0.0000000507693,26.065324,31.797666)">
<stop offset="0" style="stop-color:rgb(0%,0%,0%);stop-opacity:0.313726;"/>
<stop offset="0.222222" style="stop-color:rgb(0%,0%,0%);stop-opacity:0.27451;"/>
<stop offset="1" style="stop-color:rgb(0%,0%,0%);stop-opacity:0;"/>
</radialGradient>
<radialGradient id="radial1" gradientUnits="userSpaceOnUse" cx="450.908936" cy="189.579361" fx="450.908936" fy="189.579361" r="21.166656" gradientTransform="matrix(-0.0000000870852,0.0390662,0.0703192,0.0000000507693,-10.188807,-3.763739)">
<stop offset="0" style="stop-color:rgb(0%,0%,0%);stop-opacity:0.313726;"/>
<stop offset="0.222222" style="stop-color:rgb(0%,0%,0%);stop-opacity:0.27451;"/>
<stop offset="1" style="stop-color:rgb(0%,0%,0%);stop-opacity:0;"/>
</radialGradient>
<radialGradient id="radial2" gradientUnits="userSpaceOnUse" cx="450.908936" cy="189.579361" fx="450.908936" fy="189.579361" r="21.166656" gradientTransform="matrix(-0.0000000870852,-0.0390662,0.0703192,-0.0000000507693,-10.188807,31.797666)">
<stop offset="0" style="stop-color:rgb(0%,0%,0%);stop-opacity:0.313726;"/>
<stop offset="0.222222" style="stop-color:rgb(0%,0%,0%);stop-opacity:0.27451;"/>
<stop offset="1" style="stop-color:rgb(0%,0%,0%);stop-opacity:0;"/>
</radialGradient>
<radialGradient id="radial3" gradientUnits="userSpaceOnUse" cx="450.908936" cy="189.579361" fx="450.908936" fy="189.579361" r="21.166656" gradientTransform="matrix(0.0000000870852,0.0390662,-0.0703192,0.0000000507693,26.065323,-3.76374)">
<stop offset="0" style="stop-color:rgb(0%,0%,0%);stop-opacity:0.313726;"/>
<stop offset="0.222222" style="stop-color:rgb(0%,0%,0%);stop-opacity:0.27451;"/>
<stop offset="1" style="stop-color:rgb(0%,0%,0%);stop-opacity:0;"/>
</radialGradient>
<linearGradient id="linear1" gradientUnits="userSpaceOnUse" x1="169.333328" y1="233.5" x2="169.333328" y2="-168.666656" gradientTransform="matrix(0.031253,0,0,0.031253,0,6.719391)">
<stop offset="0" style="stop-color:rgb(14.901961%,65.098041%,60.392159%);stop-opacity:1;"/>
<stop offset="1" style="stop-color:rgb(30.19608%,71.372551%,67.450982%);stop-opacity:1;"/>
</linearGradient>
<linearGradient id="linear2" gradientUnits="userSpaceOnUse" x1="169.333328" y1="233.5" x2="169.333328" y2="-168.666656" gradientTransform="matrix(0.031253,0,0,0.031253,0,6.719391)">
<stop offset="0" style="stop-color:rgb(92.54902%,25.098041%,47.843137%);stop-opacity:1;"/>
<stop offset="1" style="stop-color:rgb(94.117647%,38.431373%,57.254905%);stop-opacity:1;"/>
</linearGradient>
<linearGradient id="linear3" gradientUnits="userSpaceOnUse" x1="158.75" y1="233.5" x2="158.75" y2="-168.666656" gradientTransform="matrix(0.031253,0,0,0.031253,0,6.719392)">
<stop offset="0" style="stop-color:rgb(14.901961%,65.098041%,60.392159%);stop-opacity:1;"/>
<stop offset="1" style="stop-color:rgb(30.19608%,71.372551%,67.450982%);stop-opacity:1;"/>
</linearGradient>
<linearGradient id="linear4" gradientUnits="userSpaceOnUse" x1="455.083313" y1="-62.833569" x2="52.916653" y2="-62.833569" gradientTransform="matrix(0,0.031253,0.031253,0,6.925148,-0.205748)">
<stop offset="0" style="stop-color:rgb(49.411765%,34.117648%,76.078433%);stop-opacity:1;"/>
<stop offset="1" style="stop-color:rgb(58.431375%,45.882353%,80.392158%);stop-opacity:1;"/>
</linearGradient>
<linearGradient id="linear5" gradientUnits="userSpaceOnUse" x1="161.100983" y1="77.097473" x2="161.100983" y2="-213.350296" gradientTransform="matrix(0.0432742,0,0,0.0432742,1.297495,10.680628)">
<stop offset="0" style="stop-color:rgb(25.882354%,25.882354%,25.882354%);stop-opacity:1;"/>
<stop offset="1" style="stop-color:rgb(45.882353%,45.882353%,45.882353%);stop-opacity:1;"/>
</linearGradient>
<linearGradient id="linear6" gradientUnits="userSpaceOnUse" x1="940" y1="1375.118164" x2="940" y2="495.118103" gradientTransform="matrix(0.00826902,0,0,0.00826902,0,0)">
<stop offset="0" style="stop-color:rgb(74.117649%,74.117649%,74.117649%);stop-opacity:1;"/>
<stop offset="1" style="stop-color:rgb(87.843138%,87.843138%,87.843138%);stop-opacity:1;"/>
</linearGradient>
</defs>
<g id="surface1">
<path style=" stroke:none;fill-rule:nonzero;fill:url(#linear0);" d="M 2.976562 13.96875 L 12.898438 13.96875 L 12.898438 14.703125 L 2.976562 14.703125 Z M 2.976562 13.96875 "/>
<path style=" stroke:none;fill-rule:nonzero;fill:url(#radial0);" d="M 12.898438 14.015625 L 14.222656 14.015625 L 14.222656 13.355469 L 12.898438 13.355469 Z M 12.898438 14.015625 "/>
<path style=" stroke:none;fill-rule:nonzero;fill:url(#radial1);" d="M 2.976562 14.015625 L 1.652344 14.015625 L 1.652344 14.679688 L 2.976562 14.679688 Z M 2.976562 14.015625 "/>
<path style=" stroke:none;fill-rule:nonzero;fill:url(#radial2);" d="M 2.976562 14.015625 L 1.652344 14.015625 L 1.652344 13.355469 L 2.976562 13.355469 Z M 2.976562 14.015625 "/>
<path style=" stroke:none;fill-rule:nonzero;fill:url(#radial3);" d="M 12.898438 14.015625 L 14.222656 14.015625 L 14.222656 14.679688 L 12.898438 14.679688 Z M 12.898438 14.015625 "/>
<path style=" stroke:none;fill-rule:nonzero;fill:url(#linear1);" d="M 7.9375 7.734375 L 7.9375 14.015625 L 13.5625 14.015625 C 13.925781 14.015625 14.222656 13.722656 14.222656 13.355469 L 14.222656 7.734375 Z M 7.9375 7.734375 "/>
<path style=" stroke:none;fill-rule:nonzero;fill:url(#linear2);" d="M 7.9375 1.449219 L 7.9375 7.734375 L 14.222656 7.734375 L 14.222656 2.109375 C 14.222656 1.742188 13.925781 1.449219 13.5625 1.449219 Z M 7.9375 1.449219 "/>
<path style=" stroke:none;fill-rule:nonzero;fill:url(#linear3);" d="M 7.9375 7.734375 L 7.9375 1.449219 L 2.316406 1.449219 C 1.949219 1.449219 1.652344 1.742188 1.652344 2.109375 L 1.652344 7.734375 Z M 7.9375 7.734375 "/>
<path style=" stroke:none;fill-rule:nonzero;fill:rgb(0%,0%,0%);fill-opacity:0.235294;" d="M 1.652344 7.527344 L 14.222656 7.527344 L 14.222656 7.691406 L 1.652344 7.691406 Z M 1.652344 7.527344 "/>
<path style=" stroke:none;fill-rule:nonzero;fill:rgb(100%,100%,100%);fill-opacity:0.392157;" d="M 1.652344 2.335938 L 1.652344 2.09375 C 1.652344 1.726562 1.949219 1.433594 2.316406 1.433594 L 13.5625 1.433594 C 13.925781 1.433594 14.222656 1.726562 14.222656 2.09375 L 14.222656 2.335938 C 14.222656 1.96875 13.925781 1.675781 13.5625 1.675781 L 2.316406 1.675781 C 1.949219 1.675781 1.652344 1.96875 1.652344 2.335938 Z M 1.652344 2.335938 "/>
<path style=" stroke:none;fill-rule:nonzero;fill:url(#linear4);" d="M 1.652344 7.734375 L 7.9375 7.734375 L 7.9375 14.015625 L 2.316406 14.015625 C 1.949219 14.015625 1.652344 13.722656 1.652344 13.355469 Z M 1.652344 7.734375 "/>
<path style=" stroke:none;fill-rule:nonzero;fill:rgb(0%,0%,0%);fill-opacity:0.235294;" d="M 7.730469 14.015625 L 7.730469 1.449219 L 7.898438 1.449219 L 7.898438 14.015625 Z M 7.730469 14.015625 "/>
<path style=" stroke:none;fill-rule:nonzero;fill:rgb(100%,100%,100%);fill-opacity:0.313726;" d="M 7.980469 14.015625 L 7.980469 1.449219 L 8.144531 1.449219 L 8.144531 14.015625 Z M 7.980469 14.015625 "/>
<path style=" stroke:none;fill-rule:nonzero;fill:rgb(100%,100%,100%);fill-opacity:0.313726;" d="M 1.652344 7.773438 L 14.222656 7.773438 L 14.222656 7.9375 L 1.652344 7.9375 Z M 1.652344 7.773438 "/>
<path style=" stroke:none;fill-rule:nonzero;fill:rgb(0%,0%,0%);fill-opacity:0.235294;" d="M 1.652344 13.113281 L 1.652344 13.355469 C 1.652344 13.722656 1.949219 14.015625 2.316406 14.015625 L 13.5625 14.015625 C 13.925781 14.015625 14.222656 13.722656 14.222656 13.355469 L 14.222656 13.113281 C 14.222656 13.480469 13.925781 13.773438 13.5625 13.773438 L 2.316406 13.773438 C 1.949219 13.773438 1.652344 13.480469 1.652344 13.113281 Z M 1.652344 13.113281 "/>
<path style=" stroke:none;fill-rule:nonzero;fill:rgb(12.941177%,12.941177%,12.941177%);fill-opacity:1;" d="M 7.890625 1.402344 L 2.316406 1.402344 C 1.921875 1.402344 1.605469 1.71875 1.605469 2.109375 L 1.605469 13.355469 C 1.605469 13.464844 1.632812 13.570312 1.675781 13.664062 C 1.683594 13.671875 1.6875 13.683594 1.691406 13.691406 C 1.8125 13.914062 2.046875 14.0625 2.316406 14.0625 L 13.5625 14.0625 C 13.953125 14.0625 14.269531 13.746094 14.269531 13.355469 L 14.269531 2.109375 C 14.269531 2.046875 14.261719 1.988281 14.246094 1.933594 C 14.242188 1.917969 14.238281 1.902344 14.234375 1.886719 C 14.234375 1.886719 14.234375 1.882812 14.230469 1.882812 C 14.230469 1.875 14.230469 1.871094 14.226562 1.867188 C 14.226562 1.863281 14.222656 1.859375 14.222656 1.855469 C 14.222656 1.855469 14.222656 1.851562 14.21875 1.851562 C 14.21875 1.84375 14.214844 1.839844 14.214844 1.832031 C 14.210938 1.828125 14.210938 1.824219 14.207031 1.816406 C 14.207031 1.816406 14.203125 1.8125 14.203125 1.808594 C 14.203125 1.808594 14.199219 1.804688 14.199219 1.800781 C 14.199219 1.796875 14.195312 1.792969 14.191406 1.785156 C 14.191406 1.78125 14.1875 1.777344 14.183594 1.773438 C 14.179688 1.765625 14.179688 1.761719 14.175781 1.757812 C 14.171875 1.75 14.171875 1.746094 14.167969 1.742188 C 14.160156 1.730469 14.15625 1.722656 14.148438 1.714844 C 14.148438 1.710938 14.144531 1.707031 14.144531 1.707031 C 14.136719 1.699219 14.132812 1.691406 14.128906 1.683594 C 14.121094 1.675781 14.113281 1.667969 14.109375 1.660156 C 14.101562 1.648438 14.09375 1.640625 14.085938 1.632812 C 14.078125 1.625 14.070312 1.617188 14.0625 1.609375 C 13.933594 1.480469 13.757812 1.402344 13.5625 1.402344 Z M 2.316406 1.496094 L 7.890625 1.496094 L 7.890625 7.6875 L 1.699219 7.6875 L 1.699219 2.109375 C 1.699219 1.769531 1.972656 1.496094 2.316406 1.496094 Z M 7.984375 1.496094 L 13.5625 1.496094 C 13.730469 1.496094 13.886719 1.5625 13.996094 1.675781 C 14.003906 1.679688 14.011719 1.6875 14.015625 1.695312 C 14.023438 1.703125 14.03125 1.710938 14.035156 1.71875 C 14.039062 1.722656 14.046875 1.730469 14.050781 1.734375 C 14.050781 1.738281 14.054688 1.738281 14.054688 1.742188 C 14.058594 1.75 14.066406 1.757812 14.070312 1.765625 C 14.085938 1.789062 14.101562 1.816406 14.117188 1.84375 C 14.125 1.859375 14.132812 1.878906 14.140625 1.898438 C 14.140625 1.90625 14.144531 1.917969 14.148438 1.925781 C 14.167969 1.984375 14.175781 2.046875 14.175781 2.109375 L 14.175781 7.6875 L 7.984375 7.6875 Z M 1.699219 7.78125 L 7.890625 7.78125 L 7.890625 13.96875 L 2.316406 13.96875 C 2.304688 13.96875 2.292969 13.96875 2.285156 13.96875 C 2.21875 13.964844 2.160156 13.953125 2.101562 13.933594 C 2.085938 13.925781 2.066406 13.917969 2.046875 13.910156 C 2.019531 13.898438 1.996094 13.882812 1.972656 13.867188 C 1.808594 13.753906 1.699219 13.570312 1.699219 13.355469 Z M 7.984375 7.78125 L 14.175781 7.78125 L 14.175781 13.355469 C 14.175781 13.695312 13.902344 13.96875 13.5625 13.96875 L 7.984375 13.96875 Z M 7.984375 7.78125 "/>
<path style=" stroke:none;fill-rule:nonzero;fill:url(#linear5);" d="M 4.960938 4.09375 L 10.914062 4.09375 C 11.28125 4.09375 11.578125 4.390625 11.578125 4.753906 L 11.578125 10.710938 C 11.578125 11.074219 11.28125 11.371094 10.914062 11.371094 L 4.960938 11.371094 C 4.597656 11.371094 4.300781 11.074219 4.300781 10.710938 L 4.300781 4.753906 C 4.300781 4.390625 4.597656 4.09375 4.960938 4.09375 Z M 4.960938 4.09375 "/>
<path style=" stroke:none;fill-rule:nonzero;fill:rgb(84.313726%,84.313726%,84.313726%);fill-opacity:0.235294;" d="M 4.960938 4.09375 C 4.59375 4.09375 4.300781 4.390625 4.300781 4.753906 L 4.300781 5.003906 C 4.300781 4.636719 4.59375 4.34375 4.960938 4.34375 L 10.914062 4.34375 C 11.28125 4.34375 11.578125 4.636719 11.578125 5.003906 L 11.578125 4.753906 C 11.578125 4.390625 11.28125 4.09375 10.914062 4.09375 Z M 4.960938 4.09375 "/>
<path style=" stroke:none;fill-rule:nonzero;fill:rgb(5.882353%,5.882353%,5.882353%);fill-opacity:0.235294;" d="M 4.960938 11.617188 C 4.59375 11.617188 4.300781 11.324219 4.300781 10.957031 L 4.300781 10.710938 C 4.300781 11.074219 4.59375 11.371094 4.960938 11.371094 L 10.914062 11.371094 C 11.28125 11.371094 11.578125 11.074219 11.578125 10.710938 L 11.578125 10.957031 C 11.578125 11.324219 11.28125 11.617188 10.914062 11.617188 Z M 4.960938 11.617188 "/>
<path style=" stroke:none;fill-rule:nonzero;fill:rgb(12.941177%,12.941177%,12.941177%);fill-opacity:1;" d="M 4.960938 4.046875 C 4.570312 4.046875 4.253906 4.363281 4.253906 4.753906 L 4.253906 10.710938 C 4.253906 11.101562 4.570312 11.417969 4.960938 11.417969 L 10.914062 11.417969 C 11.308594 11.417969 11.625 11.101562 11.625 10.710938 L 11.625 4.753906 C 11.625 4.363281 11.308594 4.046875 10.914062 4.046875 Z M 4.960938 4.140625 L 10.914062 4.140625 C 11.257812 4.140625 11.53125 4.414062 11.53125 4.753906 L 11.53125 10.710938 C 11.53125 11.050781 11.257812 11.324219 10.914062 11.324219 L 4.960938 11.324219 C 4.621094 11.324219 4.347656 11.050781 4.347656 10.710938 L 4.347656 4.753906 C 4.347656 4.414062 4.621094 4.140625 4.960938 4.140625 Z M 4.960938 4.140625 "/>
<path style=" stroke:none;fill-rule:nonzero;fill:url(#linear6);" d="M 5.296875 4.933594 C 5.136719 4.929688 4.988281 5.003906 4.894531 5.128906 C 4.808594 5.234375 4.769531 5.371094 4.789062 5.507812 L 4.789062 9.832031 C 4.769531 9.984375 4.816406 10.136719 4.921875 10.246094 C 4.921875 10.25 4.925781 10.25 4.925781 10.25 C 4.929688 10.253906 4.933594 10.257812 4.9375 10.261719 C 5.046875 10.371094 5.203125 10.425781 5.359375 10.402344 C 5.84375 10.402344 6.421875 10.40625 6.898438 9.988281 C 7.402344 9.550781 7.609375 8.804688 7.609375 7.589844 C 7.609375 6.449219 7.390625 5.730469 6.886719 5.320312 C 6.40625 4.929688 5.847656 4.9375 5.367188 4.9375 C 5.34375 4.933594 5.320312 4.933594 5.296875 4.933594 Z M 10.390625 4.9375 C 9.9375 4.9375 9.425781 4.960938 8.984375 5.320312 C 8.480469 5.730469 8.261719 6.449219 8.261719 7.589844 C 8.261719 8.804688 8.46875 9.550781 8.972656 9.988281 C 9.449219 10.40625 10.027344 10.402344 10.511719 10.402344 C 10.664062 10.425781 10.820312 10.371094 10.933594 10.261719 C 10.9375 10.257812 10.941406 10.253906 10.945312 10.25 C 10.945312 10.25 10.945312 10.25 10.949219 10.246094 C 11.054688 10.136719 11.101562 9.984375 11.082031 9.832031 L 11.082031 7.917969 C 11.082031 7.644531 10.855469 7.417969 10.582031 7.417969 L 10.25 7.417969 C 10.003906 7.417969 9.792969 7.59375 9.753906 7.832031 C 9.710938 8.074219 9.851562 8.3125 10.082031 8.390625 L 10.082031 9.386719 C 9.871094 9.367188 9.726562 9.324219 9.628906 9.238281 C 9.46875 9.097656 9.261719 8.6875 9.261719 7.589844 C 9.261719 6.578125 9.457031 6.222656 9.613281 6.09375 C 9.769531 5.964844 10.085938 5.9375 10.582031 5.9375 C 10.761719 5.9375 10.929688 5.84375 11.019531 5.6875 C 11.109375 5.535156 11.109375 5.34375 11.019531 5.1875 C 10.929688 5.03125 10.761719 4.9375 10.582031 4.9375 C 10.519531 4.9375 10.457031 4.9375 10.390625 4.9375 Z M 5.789062 5.953125 C 6.007812 5.976562 6.160156 6.015625 6.257812 6.09375 C 6.414062 6.222656 6.609375 6.578125 6.609375 7.589844 C 6.609375 8.6875 6.402344 9.097656 6.242188 9.238281 C 6.144531 9.324219 6 9.367188 5.789062 9.386719 Z M 5.789062 5.953125 "/>
<path style=" stroke:none;fill-rule:nonzero;fill:rgb(100%,100%,100%);fill-opacity:1;" d="M 5.296875 4.933594 C 5.136719 4.929688 4.988281 5.003906 4.894531 5.128906 C 4.808594 5.234375 4.769531 5.371094 4.789062 5.507812 L 4.789062 5.519531 C 4.800781 5.429688 4.835938 5.347656 4.894531 5.277344 C 4.988281 5.152344 5.136719 5.078125 5.296875 5.078125 C 5.320312 5.082031 5.34375 5.082031 5.367188 5.085938 C 5.847656 5.085938 6.40625 5.078125 6.886719 5.46875 C 7.378906 5.867188 7.597656 6.566406 7.605469 7.667969 C 7.605469 7.640625 7.609375 7.613281 7.609375 7.589844 C 7.609375 6.449219 7.390625 5.730469 6.886719 5.320312 C 6.40625 4.929688 5.847656 4.9375 5.367188 4.9375 C 5.34375 4.933594 5.320312 4.933594 5.296875 4.933594 Z M 10.390625 4.9375 C 9.9375 4.9375 9.425781 4.960938 8.984375 5.320312 C 8.480469 5.730469 8.261719 6.449219 8.261719 7.589844 C 8.261719 7.613281 8.261719 7.640625 8.261719 7.667969 C 8.273438 6.566406 8.492188 5.867188 8.984375 5.46875 C 9.425781 5.109375 9.9375 5.085938 10.390625 5.085938 C 10.457031 5.085938 10.519531 5.085938 10.582031 5.085938 C 10.832031 5.085938 11.042969 5.265625 11.082031 5.511719 C 11.101562 5.367188 11.058594 5.21875 10.964844 5.109375 C 10.867188 5 10.726562 4.9375 10.582031 4.9375 C 10.519531 4.9375 10.457031 4.9375 10.390625 4.9375 Z M 10.25 7.417969 C 10.105469 7.417969 9.964844 7.480469 9.867188 7.589844 C 9.773438 7.703125 9.730469 7.847656 9.75 7.992188 C 9.789062 7.746094 10 7.566406 10.25 7.566406 L 10.582031 7.566406 C 10.855469 7.566406 11.082031 7.792969 11.082031 8.066406 L 11.082031 7.917969 C 11.082031 7.644531 10.855469 7.417969 10.582031 7.417969 Z M 6.609375 7.664062 C 6.597656 8.703125 6.398438 9.101562 6.242188 9.238281 C 6.144531 9.324219 6 9.367188 5.789062 9.386719 L 5.789062 9.535156 C 6 9.515625 6.144531 9.472656 6.242188 9.386719 C 6.402344 9.246094 6.609375 8.835938 6.609375 7.734375 C 6.609375 7.710938 6.609375 7.6875 6.609375 7.664062 Z M 9.261719 7.664062 C 9.261719 7.6875 9.261719 7.710938 9.261719 7.734375 C 9.261719 8.835938 9.46875 9.246094 9.628906 9.386719 C 9.726562 9.472656 9.871094 9.515625 10.082031 9.535156 L 10.082031 9.386719 C 9.871094 9.367188 9.726562 9.324219 9.628906 9.238281 C 9.472656 9.101562 9.269531 8.703125 9.261719 7.664062 Z M 4.789062 9.832031 C 4.78125 9.878906 4.78125 9.925781 4.789062 9.972656 Z M 11.082031 9.832031 L 11.082031 9.972656 C 11.085938 9.925781 11.085938 9.878906 11.082031 9.832031 Z M 11.082031 9.832031 "/>
<path style=" stroke:none;fill-rule:nonzero;fill:rgb(0%,0%,0%);fill-opacity:0.235294;" d="M 11.042969 5.621094 C 10.960938 5.800781 10.777344 5.914062 10.582031 5.914062 C 10.085938 5.914062 9.769531 5.941406 9.613281 6.070312 C 9.457031 6.199219 9.261719 6.554688 9.261719 7.5625 C 9.261719 7.636719 9.261719 7.707031 9.265625 7.777344 C 9.289062 6.917969 9.46875 6.601562 9.613281 6.484375 C 9.769531 6.355469 10.085938 6.328125 10.582031 6.328125 C 10.753906 6.328125 10.910156 6.242188 11.003906 6.101562 C 11.097656 5.957031 11.113281 5.777344 11.042969 5.621094 Z M 4.789062 5.761719 C 4.785156 5.808594 4.785156 5.851562 4.789062 5.898438 Z M 5.789062 5.929688 L 5.789062 6.34375 C 6.007812 6.363281 6.160156 6.40625 6.257812 6.484375 C 6.402344 6.601562 6.582031 6.917969 6.605469 7.777344 C 6.609375 7.707031 6.609375 7.636719 6.609375 7.5625 C 6.609375 6.554688 6.414062 6.199219 6.257812 6.070312 C 6.160156 5.992188 6.007812 5.953125 5.789062 5.929688 Z M 7.605469 7.78125 C 7.582031 8.871094 7.371094 9.554688 6.898438 9.964844 C 6.421875 10.382812 5.84375 10.378906 5.359375 10.378906 C 5.203125 10.402344 5.046875 10.347656 4.9375 10.238281 C 4.933594 10.234375 4.929688 10.230469 4.925781 10.226562 C 4.925781 10.226562 4.921875 10.222656 4.921875 10.222656 C 4.851562 10.148438 4.804688 10.050781 4.789062 9.949219 L 4.789062 10.222656 C 4.769531 10.371094 4.816406 10.523438 4.921875 10.636719 C 4.921875 10.636719 4.925781 10.640625 4.925781 10.640625 C 4.929688 10.644531 4.933594 10.648438 4.9375 10.652344 C 5.046875 10.761719 5.203125 10.8125 5.359375 10.792969 C 5.84375 10.792969 6.421875 10.796875 6.898438 10.378906 C 7.402344 9.941406 7.609375 9.195312 7.609375 7.976562 C 7.609375 7.910156 7.605469 7.84375 7.605469 7.78125 Z M 8.265625 7.78125 C 8.261719 7.84375 8.261719 7.910156 8.261719 7.976562 C 8.261719 9.195312 8.46875 9.941406 8.972656 10.378906 C 9.449219 10.796875 10.027344 10.792969 10.511719 10.792969 C 10.664062 10.8125 10.820312 10.761719 10.933594 10.652344 C 10.9375 10.648438 10.941406 10.644531 10.945312 10.640625 C 10.945312 10.640625 10.945312 10.636719 10.949219 10.636719 C 11.054688 10.523438 11.101562 10.371094 11.082031 10.222656 L 11.082031 9.949219 C 11.066406 10.050781 11.019531 10.148438 10.949219 10.222656 C 10.945312 10.222656 10.945312 10.226562 10.945312 10.226562 C 10.941406 10.230469 10.9375 10.234375 10.933594 10.238281 C 10.820312 10.347656 10.664062 10.402344 10.511719 10.378906 C 10.027344 10.378906 9.449219 10.382812 8.972656 9.964844 C 8.5 9.554688 8.289062 8.871094 8.265625 7.78125 Z M 9.789062 8.101562 C 9.734375 8.230469 9.730469 8.375 9.785156 8.503906 C 9.84375 8.632812 9.949219 8.734375 10.082031 8.78125 L 10.082031 8.367188 C 9.953125 8.320312 9.847656 8.226562 9.789062 8.101562 Z M 9.789062 8.101562 "/>
<path style="fill:none;stroke-width:11.338583;stroke-linecap:round;stroke-linejoin:round;stroke:rgb(12.941177%,12.941177%,12.941177%);stroke-opacity:1;stroke-miterlimit:4;" d="M 640.568784 596.635969 C 621.200553 596.163573 603.249511 605.139094 591.91201 620.255762 C 581.519301 633.01045 576.795343 649.544305 579.157322 666.07816 L 579.157322 1189.020375 C 576.795343 1207.443813 582.464093 1225.867252 595.218781 1239.094336 C 595.218781 1239.566732 595.691177 1239.566732 595.691177 1239.566732 C 596.163573 1240.039128 596.635969 1240.511524 597.108365 1240.983919 C 610.335449 1254.211003 629.231283 1260.824545 648.127117 1257.99017 C 706.704204 1257.99017 776.618791 1258.462566 834.251086 1207.916209 C 895.190151 1155.007873 920.227132 1064.780264 920.227132 917.865152 C 920.227132 779.925562 893.772964 693.004724 832.833898 643.403159 C 774.729207 596.163573 707.1766 597.108365 649.071909 597.108365 C 646.237534 596.635969 643.403159 596.635969 640.568784 596.635969 Z M 1256.572983 597.108365 C 1201.775063 597.108365 1139.891206 599.94274 1086.510474 643.403159 C 1025.571408 693.004724 999.11724 779.925562 999.11724 917.865152 C 999.11724 1064.780264 1024.154221 1155.007873 1085.093286 1207.916209 C 1142.725581 1258.462566 1212.640168 1257.99017 1271.217254 1257.99017 C 1289.640693 1260.824545 1308.536527 1254.211003 1322.236007 1240.983919 C 1322.708403 1240.511524 1323.180799 1240.039128 1323.653195 1239.566732 C 1323.653195 1239.566732 1323.653195 1239.566732 1324.12559 1239.094336 C 1336.880279 1225.867252 1342.549029 1207.443813 1340.18705 1189.020375 L 1340.18705 957.546404 C 1340.18705 924.478694 1312.78809 897.079735 1279.72038 897.079735 L 1239.566732 897.079735 C 1209.805793 897.079735 1184.296416 918.337548 1179.572458 947.153696 C 1174.376103 976.442239 1191.382354 1005.258386 1219.25371 1014.706303 L 1219.25371 1135.167247 C 1193.744334 1132.805268 1176.265687 1127.608913 1164.45579 1117.216205 C 1145.08756 1100.209954 1120.05058 1050.608389 1120.05058 917.865152 C 1120.05058 795.514625 1143.670373 752.526602 1162.566207 736.937539 C 1181.462041 721.348475 1219.726106 718.041704 1279.72038 718.041704 C 1301.450589 718.041704 1321.763611 706.704204 1332.628716 687.808369 C 1343.493821 669.384931 1343.493821 646.237534 1332.628716 627.3417 C 1321.763611 608.445865 1301.450589 597.108365 1279.72038 597.108365 C 1272.162046 597.108365 1264.603712 597.108365 1256.572983 597.108365 Z M 700.090662 719.931288 C 726.54483 722.765663 744.968268 727.489622 756.778165 736.937539 C 775.673999 752.526602 799.293792 795.514625 799.293792 917.865152 C 799.293792 1050.608389 774.256812 1100.209954 754.888581 1117.216205 C 743.078685 1127.608913 725.600038 1132.805268 700.090662 1135.167247 Z M 700.090662 719.931288 " transform="matrix(0.00826902,0,0,0.00826902,0,0)"/>
</g>
</svg>
