<svg height="16pt" viewBox="0 0 16 16" width="16pt" xmlns="http://www.w3.org/2000/svg" xmlns:xlink="http://www.w3.org/1999/xlink"><linearGradient id="a" gradientUnits="userSpaceOnUse" x1="7.9375" x2="7.9375" y1="14.016875" y2="14.67834375"><stop offset="0" stop-opacity=".275"/><stop offset="1" stop-opacity="0"/></linearGradient><linearGradient id="b"><stop offset="0" stop-opacity=".314"/><stop offset=".222" stop-opacity=".275"/><stop offset="1" stop-opacity="0"/></linearGradient><radialGradient id="c" cx="450.909" cy="189.579" gradientTransform="matrix(0 -.03907 -.07032 0 25.073 31.798)" gradientUnits="userSpaceOnUse" r="21.167" xlink:href="#b"/><radialGradient id="d" cx="450.909" cy="189.579" gradientTransform="matrix(0 .03907 .07032 0 -9.197 -3.764)" gradientUnits="userSpaceOnUse" r="21.167" xlink:href="#b"/><radialGradient id="e" cx="450.909" cy="189.579" gradientTransform="matrix(0 -.03907 .07032 0 -9.197 31.798)" gradientUnits="userSpaceOnUse" r="21.167" xlink:href="#b"/><radialGradient id="f" cx="450.909" cy="189.579" gradientTransform="matrix(0 .03907 -.07032 0 25.073 -3.764)" gradientUnits="userSpaceOnUse" r="21.167" xlink:href="#b"/><linearGradient id="g"><stop offset="0" stop-color="#424242"/><stop offset="1" stop-color="#616161"/></linearGradient><linearGradient id="h" gradientTransform="matrix(.03767 0 0 .1087 -2.927 16.82)" gradientUnits="userSpaceOnUse" x1="288.396" x2="288.396" xlink:href="#g" y1="-25.792" y2="-141.415"/><linearGradient id="i" gradientUnits="userSpaceOnUse" x1="8.9296875" x2="8.9296875" y1="13.35540625" y2="2.110625"><stop offset="0" stop-color="#e0e0e0"/><stop offset="1" stop-color="#eee"/></linearGradient><linearGradient id="j" gradientUnits="userSpaceOnUse" x1="174.625" x2="174.625" xlink:href="#g" y1="-131.625" y2="-94.583"/><linearGradient id="k" gradientUnits="userSpaceOnUse" x1="174.625" x2="174.625" xlink:href="#g" y1="16.542" y2="53.584"/><linearGradient id="l" gradientUnits="userSpaceOnUse" x1="174.625" x2="174.625" xlink:href="#g" y1="164.708" y2="201.75"/><linearGradient id="m" gradientUnits="userSpaceOnUse" x1="174.625" x2="174.625" xlink:href="#g" y1="-57.542" y2="-20.5"/><linearGradient id="n" gradientUnits="userSpaceOnUse" x1="174.625" x2="174.625" xlink:href="#g" y1="90.625" y2="127.667"/><linearGradient id="o" gradientTransform="matrix(.00826902 .0001273 -.0001273 .00826902 0 0)" gradientUnits="userSpaceOnUse" x1="1400" x2="1400" y1="1615.118" y2="1335.118"><stop offset="0" stop-color="#9e9e9e"/><stop offset="1" stop-color="#e0e0e0"/></linearGradient><linearGradient id="p"><stop offset="0" stop-color="#ef5350"/><stop offset="1" stop-color="#e57373"/></linearGradient><linearGradient id="q" gradientUnits="userSpaceOnUse" x1="3.26040625" x2="5.66928125" xlink:href="#p" y1="3.1028125" y2="3.1028125"/><linearGradient id="r" gradientUnits="userSpaceOnUse" x1="3.26040625" x2="5.66928125" xlink:href="#p" y1="5.4178125" y2="5.4178125"/><linearGradient id="s" gradientUnits="userSpaceOnUse" x1="3.26040625" x2="5.66928125" xlink:href="#p" y1="7.7328125" y2="7.7328125"/><linearGradient id="t" gradientUnits="userSpaceOnUse" x1="3.26040625" x2="5.66928125" xlink:href="#p" y1="10.0478125" y2="10.0478125"/><linearGradient id="u" gradientUnits="userSpaceOnUse" x1="3.26040625" x2="5.66928125" xlink:href="#p" y1="12.3628125" y2="12.3628125"/><path d="m3.969 14.016h7.937v.664h-7.936zm0 0" fill="url(#a)"/><path d="m11.906 14.016h1.324v-.66h-1.324zm0 0" fill="url(#c)"/><path d="m3.969 14.016h-1.324v.664h1.324zm0 0" fill="url(#d)"/><path d="m3.969 14.016h-1.324v-.66h1.324zm0 0" fill="url(#e)"/><path d="m11.906 14.016h1.324v.664h-1.324zm0 0" fill="url(#f)"/><path d="m3.309 1.45h9.261c.364 0 .66.296.66.66v11.245a.66.66 0 0 1 -.66.66h-9.26a.66.66 0 0 1 -.664-.66v-11.245c0-.363.296-.66.664-.66zm0 0" fill="url(#h)"/><path d="m3.309 13.98a.664.664 0 0 1 -.664-.664v-.082c0 .368.296.664.664.664h9.261c.364 0 .66-.296.66-.664v.082a.663.663 0 0 1 -.66.664zm0 0" fill-opacity=".196"/><path d="m3.309 1.488a.664.664 0 0 0 -.664.664v.082c0-.367.296-.664.664-.66h9.261a.657.657 0 0 1 .66.66v-.082a.663.663 0 0 0 -.66-.664zm0 0" fill="#fff" fill-opacity=".392"/><path d="m4.629 2.11h7.941a.33.33 0 0 1 .328.331v10.582a.33.33 0 0 1 -.328.332h-7.94a.33.33 0 0 1 -.328-.332v-10.582a.33.33 0 0 1 .328-.332zm0 0" fill="url(#i)"/><path d="m4.629 2.11a.33.33 0 0 0 -.328.331v.164a.33.33 0 0 1 .328-.332h7.941c.184 0 .328.149.328.332v-.164a.328.328 0 0 0 -.328-.332zm0 0" fill="#fff" fill-opacity=".988"/><path d="m4.629 2.063a.376.376 0 0 0 -.375.378v10.582c0 .211.168.38.375.38h7.941a.376.376 0 0 0 .375-.38v-10.582a.376.376 0 0 0 -.375-.378zm0 .093h7.941c.157 0 .282.125.282.285v10.582c0 .16-.125.286-.282.286h-7.94a.281.281 0 0 1 -.281-.286v-10.582c0-.16.125-.285.28-.285zm0 0" fill="#212121"/><path d="m4.629 13.52a.328.328 0 0 1 -.328-.329v-.168a.33.33 0 0 0 .328.332h7.941a.328.328 0 0 0 .328-.332v.168a.325.325 0 0 1 -.328.329zm0 0" fill-opacity=".314"/><g stroke-width="3"><path d="m174.608-131.633c5.875 0 10.624 4.75 10.624 10.624v10.499c0 5.874-4.75 10.624-10.624 10.624a10.615 10.615 0 0 1 -10.624-10.624v-10.499c0-5.874 4.75-10.624 10.624-10.624zm0 0" fill="url(#j)" stroke="#212121" stroke-linecap="round" stroke-linejoin="round" transform="matrix(.03125 0 0 .03125 0 6.72)"/><path d="m174.608 16.603c5.875 0 10.624 4.624 10.624 10.499v10.624c0 5.874-4.75 10.624-10.624 10.624a10.615 10.615 0 0 1 -10.624-10.624v-10.624c0-5.875 4.75-10.5 10.624-10.5zm0 0" fill="url(#k)" stroke="#212121" stroke-linecap="round" stroke-linejoin="round" transform="matrix(.03125 0 0 .03125 0 6.72)"/><path d="m174.608 164.714c5.875 0 10.624 4.75 10.624 10.624v10.499c0 5.874-4.75 10.624-10.624 10.624a10.615 10.615 0 0 1 -10.624-10.624v-10.5c0-5.874 4.75-10.623 10.624-10.623zm0 0" fill="url(#l)" stroke="#212121" stroke-linecap="round" stroke-linejoin="round" transform="matrix(.03125 0 0 .03125 0 6.72)"/><path d="m174.608-57.515c5.875 0 10.624 4.75 10.624 10.499v10.624c0 5.874-4.75 10.624-10.624 10.624a10.615 10.615 0 0 1 -10.624-10.624v-10.624c0-5.75 4.75-10.499 10.624-10.499zm0 0" fill="url(#m)" stroke="#212121" stroke-linecap="round" stroke-linejoin="round" transform="matrix(.03125 0 0 .03125 0 6.72)"/><path d="m174.608 90.596c5.875 0 10.624 4.75 10.624 10.624v10.624c0 5.75-4.75 10.499-10.624 10.499s-10.624-4.75-10.624-10.5v-10.623c0-5.875 4.75-10.624 10.624-10.624zm0 0" fill="url(#n)" stroke="#212121" stroke-linecap="round" stroke-linejoin="round" transform="matrix(.03125 0 0 .03125 0 6.72)"/></g><path d="m3.309 1.402a.708.708 0 0 0 -.711.707v11.246c0 .391.316.707.71.707h9.262c.39 0 .707-.316.707-.707v-11.245a.707.707 0 0 0 -.707-.707zm0 .094h9.261c.34 0 .614.274.614.613v11.246c0 .34-.274.614-.614.614h-9.26a.613.613 0 0 1 -.618-.614v-11.245c0-.34.274-.613.618-.613zm0 0" fill="#212121"/><path d="m10.914 11.04a.328.328 0 0 0 -.328.331v1.984l2.312-2.316zm0 0" fill="url(#o)"/><path d="m3.473 2.77h1.984c.094 0 .164.074.164.167v.329c0 .093-.07.168-.164.168h-1.984a.166.166 0 0 1 -.164-.168v-.329c0-.093.074-.167.164-.167zm0 0" fill="url(#q)"/><path d="m3.473 2.723a.213.213 0 0 0 -.211.215v.328c0 .117.093.214.21.214h1.985c.117 0 .211-.097.211-.214v-.329a.213.213 0 0 0 -.211-.214zm0 .093h1.984c.066 0 .117.055.117.122v.328c0 .066-.05.12-.117.12h-1.984a.118.118 0 0 1 -.118-.12v-.329c0-.066.051-.12.118-.12zm0 0" fill="#212121" fill-opacity=".928"/><path d="m3.473 5.086h1.984c.094 0 .164.074.164.164v.332a.16.16 0 0 1 -.164.164h-1.984a.163.163 0 0 1 -.164-.164v-.332c0-.09.074-.164.164-.164zm0 0" fill="url(#r)"/><path d="m3.473 5.04a.213.213 0 0 0 -.211.21v.332c0 .117.093.211.21.211h1.985a.21.21 0 0 0 .211-.211v-.332a.213.213 0 0 0 -.211-.21zm0 .093h1.984c.066 0 .117.05.117.117v.332c0 .066-.05.117-.117.117h-1.984a.115.115 0 0 1 -.118-.117v-.332c0-.066.051-.117.118-.117zm0 0" fill="#212121" fill-opacity=".928"/><path d="m3.473 7.402h1.984c.094 0 .164.075.164.164v.332c0 .09-.07.165-.164.165h-1.984a.165.165 0 0 1 -.164-.165v-.332c0-.09.074-.164.164-.164zm0 0" fill="url(#s)"/><path d="m3.473 7.355a.21.21 0 0 0 -.211.211v.332c0 .118.093.211.21.211h1.985a.21.21 0 0 0 .211-.21v-.333a.21.21 0 0 0 -.211-.21zm0 .094h1.984c.066 0 .117.051.117.117v.332c0 .067-.05.118-.117.118h-1.984a.115.115 0 0 1 -.118-.118v-.332c0-.066.051-.117.118-.117zm0 0" fill="#212121" fill-opacity=".928"/><path d="m3.473 9.719h1.984c.094 0 .164.074.164.164v.332c0 .09-.07.164-.164.164h-1.984a.165.165 0 0 1 -.164-.164v-.332c0-.09.074-.164.164-.164zm0 0" fill="url(#t)"/><path d="m3.473 9.672a.21.21 0 0 0 -.211.21v.333c0 .113.093.21.21.21h1.985c.117 0 .211-.097.211-.21v-.332a.21.21 0 0 0 -.211-.211zm0 .094h1.984c.066 0 .117.05.117.117v.332c0 .066-.05.117-.117.117h-1.984a.115.115 0 0 1 -.118-.117v-.332c0-.067.051-.117.118-.117zm0 0" fill="#212121" fill-opacity=".928"/><path d="m3.473 12.031h1.984c.094 0 .164.074.164.168v.328c0 .094-.07.168-.164.168h-1.984a.166.166 0 0 1 -.164-.168v-.327c0-.094.074-.168.164-.168zm0 0" fill="url(#u)"/><path d="m3.473 11.984a.213.213 0 0 0 -.211.215v.328c0 .118.093.215.21.215h1.985c.117 0 .211-.097.211-.215v-.327a.213.213 0 0 0 -.211-.215zm0 .094h1.984c.066 0 .117.055.117.121v.328c0 .067-.05.121-.117.121h-1.984a.118.118 0 0 1 -.118-.12v-.329c0-.066.051-.12.118-.12zm0 0" fill="#212121" fill-opacity=".928"/><path d="m10.914 11.04a.328.328 0 0 0 -.328.331v1.984l2.312-2.316zm0 0" fill="none" stroke="#212121" stroke-width=".093774"/><path d="m10.914 4.754v-.992h-3.637l1.985 2.648-2.317 3.637h4.301v-.992" fill="none" stroke="#424242" stroke-linecap="round" stroke-linejoin="round" stroke-width=".6875"/></svg>