<svg height="16" viewBox="0 0 16 16" width="16" xmlns="http://www.w3.org/2000/svg" xmlns:xlink="http://www.w3.org/1999/xlink"><linearGradient id="a"><stop offset="0" stop-opacity=".313726"/><stop offset=".222222" stop-opacity=".27451"/><stop offset="1" stop-opacity="0"/></linearGradient><radialGradient id="b" cx="450.908936" cy="189.579361" gradientTransform="matrix(.00000009 -.0390662 -.0703192 -.00000005 21.103913 31.797666)" gradientUnits="userSpaceOnUse" r="21.166656" xlink:href="#a"/><radialGradient id="c" cx="450.908936" cy="189.579361" gradientTransform="matrix(-.00000009 .0390662 .0703192 .00000005 -5.227395 -3.763739)" gradientUnits="userSpaceOnUse" r="21.166656" xlink:href="#a"/><radialGradient id="d" cx="450.908936" cy="189.579361" gradientTransform="matrix(-.00000009 -.0390662 .0703192 -.00000005 -5.227395 31.797666)" gradientUnits="userSpaceOnUse" r="21.166656" xlink:href="#a"/><radialGradient id="e" cx="450.908936" cy="189.579361" gradientTransform="matrix(.00000009 .0390662 -.0703192 .00000005 21.103912 -3.76374)" gradientUnits="userSpaceOnUse" r="21.166656" xlink:href="#a"/><linearGradient id="f" gradientUnits="userSpaceOnUse" x1="12.16119850003" x2="12.16119850003" y1="12.36316325003" y2="2.77109599997"><stop offset="0" stop-color="#5c6bc0"/><stop offset="1" stop-color="#7986cb"/></linearGradient><linearGradient id="g" gradientUnits="userSpaceOnUse" x1="7.938262" x2="7.938262" y1="14.0169675" y2="1.11729175"><stop offset="0" stop-color="#f44336"/><stop offset="1" stop-color="#ef5350"/></linearGradient><linearGradient id="h" gradientUnits="userSpaceOnUse" x1="5.6229336" x2="5.6229336" y1="13.35544440048" y2="1.7788160201"><stop offset="0" stop-color="#42a5f5"/><stop offset="1" stop-color="#64b5f6"/></linearGradient><path d="m7.9375 14.015625h1.324219v-.660156h-1.324219zm0 0" fill="url(#b)"/><path d="m7.9375 14.015625h-1.324219v.664063h1.324219zm0 0" fill="url(#c)"/><path d="m7.9375 14.015625h-1.324219v-.660156h1.324219zm0 0" fill="url(#d)"/><path d="m7.9375 14.015625h1.324219v.664063h-1.324219zm0 0" fill="url(#e)"/><path d="m14.808594 7.734375c0-.140625-.042969-.277344-.128906-.394531-.003907-.003906-.007813-.007813-.011719-.011719-.015625-.023437-.035157-.042969-.054688-.0625l-4.210937-4.210937c-.1875-.1875-.460938-.238282-.695313-.152344-.003906 0-.003906 0-.003906 0-.007813.003906-.015625.007812-.023437.007812-.007813.003906-.015626.007813-.023438.011719-.226562.105469-.386719.332031-.386719.601563v8.417968c0 .269532.160157.496094.386719.601563.007812.003906.015625.007812.023438.011719.007812.003906.015624.003906.023437.007812h.003906c.234375.085938.507813.035156.695313-.152344l4.210937-4.210937c.027344-.027344.054688-.058594.074219-.089844.011719-.011719.019531-.027344.027344-.039063.0625-.105468.09375-.222656.09375-.335937zm0 0" fill="url(#f)"/><path d="m7.9375 1.449219c.367188 0 .664062.296875.664062.660156v11.246094c0 .367187-.296874.660156-.664062.660156-.363281 0-.660156-.292969-.660156-.660156v-11.246094c0-.363281.296875-.660156.660156-.660156zm0 0" fill="url(#g)"/><path d="m4.960938 1.777344c-.367188 0-.660157.296875-.660157.664062 0 .367188.292969.660156.660157.660156h.992187c.367187 0 .660156-.292968.660156-.660156 0-.367187-.292969-.664062-.660156-.664062zm-1.324219 2.648437c-.363281 0-.660157.292969-.660157.660157 0 .367187.296876.660156.660157.660156h2.316406c.367187 0 .660156-.292969.660156-.660156 0-.367188-.292969-.660157-.660156-.660157zm-1.320313 2.644531c-.367187 0-.664062.296876-.664062.664063 0 .363281.296875.660156.664062.660156h3.636719c.367187 0 .660156-.296875.660156-.660156 0-.367187-.292969-.664063-.660156-.664063zm1.320313 2.648438c-.363281 0-.660157.292969-.660157.660156 0 .367188.296876.660156.660157.660156h2.316406c.367187 0 .660156-.292968.660156-.660156 0-.367187-.292969-.660156-.660156-.660156zm1.324219 2.3125c-.367188 0-.660157.296875-.660157.664062 0 .363282.292969.660157.660157.660157h.992187c.367187 0 .660156-.296875.660156-.660157 0-.367187-.292969-.664062-.660156-.664062zm0 0" fill="url(#h)"/><g fill="#fff" fill-opacity=".392157"><path d="m9.933594 2.859375c-.078125 0-.15625.015625-.226563.042969-.003906 0-.003906 0-.003906 0-.007813.003906-.015625.007812-.023437.007812-.007813.003906-.015626.007813-.023438.011719-.226562.105469-.386719.332031-.386719.601563v.164062c0-.265625.160157-.496094.386719-.601562.007812-.003907.015625-.003907.023438-.007813.007812-.003906.015624-.007813.023437-.011719h.003906c.234375-.085937.507813-.035156.695313.152344l4.210937 4.210938c.019531.019531.039063.042968.054688.0625.003906.003906.007812.011718.011719.015624.066406.09375.109374.199219.121093.308594.003907-.027344.007813-.054687.007813-.082031 0-.140625-.042969-.277344-.128906-.394531-.003907-.003906-.007813-.007813-.011719-.011719-.015625-.023437-.035157-.042969-.054688-.0625l-4.210937-4.210937c-.128906-.128907-.300782-.195313-.46875-.195313zm0 0"/><path d="m7.9375 1.449219c-.367188 0-.660156.292969-.660156.660156v.164063c0-.363282.292968-.660157.660156-.660157s.664062.296875.664062.660157v-.164063c0-.367187-.296874-.660156-.664062-.660156zm0 0"/><path d="m4.960938 1.777344c-.367188 0-.660157.296875-.660157.664062 0 .027344 0 .054688.003907.082032.039062-.328126.316406-.578126.65625-.578126h.992187c.339844 0 .617187.25.65625.578126.003906-.027344.003906-.054688.003906-.082032 0-.367187-.292969-.664062-.660156-.664062zm-1.324219 2.648437c-.363281 0-.660157.292969-.660157.660157 0 .027343.003907.054687.003907.082031.042969-.324219.320312-.578125.65625-.578125h2.316406c.339844 0 .617187.253906.65625.578125.003906-.027344.003906-.054688.003906-.082031 0-.367188-.292969-.660157-.660156-.660157zm-1.320313 2.644531c-.367187 0-.664062.296876-.664062.664063 0 .027344.003906.054687.007812.082031.039063-.328125.316406-.578125.65625-.578125h3.636719c.339844 0 .617187.25.65625.578125.003906-.027344.003906-.054687.003906-.082031 0-.367187-.292969-.664063-.660156-.664063zm1.320313 2.648438c-.363281 0-.660157.292969-.660157.660156 0 .027344.003907.054688.003907.082032.042969-.328126.320312-.578126.65625-.578126h2.316406c.339844 0 .617187.25.65625.578126.003906-.027344.003906-.054688.003906-.082032 0-.367187-.292969-.660156-.660156-.660156zm1.324219 2.3125c-.367188 0-.660157.296875-.660157.664062 0 .027344 0 .054688.003907.082032.039062-.328125.316406-.578125.65625-.578125h.992187c.339844 0 .617187.25.65625.578125.003906-.027344.003906-.054688.003906-.082032 0-.367187-.292969-.664062-.660156-.664062zm0 0"/></g><path d="m14.796875 7.609375c-.015625.074219-.042969.144531-.082031.210937-.007813.015626-.015625.027344-.027344.042969-.019531.03125-.046875.0625-.074219.089844l-4.210937 4.207031c-.1875.191406-.460938.242188-.695313.15625h-.003906c-.007813-.003906-.015625-.007812-.023437-.011718-.007813-.003907-.015626-.007813-.023438-.007813v-.003906c-.226562-.101563-.386719-.332031-.386719-.597657v.246094c0 .269532.160157.496094.386719.601563.007812.003906.015625.007812.023438.011719.007812.003906.015624.003906.023437.007812h.003906c.234375.085938.507813.035156.695313-.152344l4.210937-4.210937c.027344-.027344.054688-.058594.074219-.089844.011719-.011719.019531-.027344.027344-.039063.0625-.105468.09375-.222656.09375-.335937 0-.042969-.003906-.085937-.011719-.125zm0 0" fill-opacity=".235294"/><path d="m7.277344 13.105469v.25c0 .367187.292968.660156.660156.660156s.664062-.292969.664062-.660156v-.25c0 .367187-.296874.664062-.664062.664062s-.660156-.296875-.660156-.664062zm0 0" fill-opacity=".235294"/><path d="m6.605469 2.316406c-.058594.308594-.328125.539063-.652344.539063h-.992187c-.324219 0-.589844-.230469-.648438-.539063-.007812.039063-.011719.082032-.011719.125 0 .367188.292969.660156.660157.660156h.992187c.367187 0 .660156-.292968.660156-.660156 0-.042968-.003906-.085937-.007812-.125zm-3.617188 2.644532c-.007812.042968-.011719.082031-.011719.125 0 .367187.296876.660156.660157.660156h2.316406c.367187 0 .660156-.292969.660156-.660156 0-.042969-.003906-.082032-.007812-.125-.058594.308593-.328125.539062-.652344.539062h-2.316406c-.324219 0-.589844-.230469-.648438-.539062zm-1.324219 2.648437c-.007812.039063-.011718.082031-.011718.125 0 .363281.296875.660156.664062.660156h3.636719c.367187 0 .660156-.296875.660156-.660156 0-.042969-.003906-.085937-.007812-.125-.058594.304687-.328125.535156-.652344.535156h-3.636719c-.324218 0-.59375-.230469-.652344-.535156zm1.324219 2.644531c-.007812.039063-.011719.082032-.011719.125 0 .367188.296876.660156.660157.660156h2.316406c.367187 0 .660156-.292968.660156-.660156 0-.042968-.003906-.085937-.007812-.125-.058594.308594-.328125.539063-.652344.539063h-2.316406c-.324219 0-.589844-.230469-.648438-.539063zm3.617188 2.316406c-.058594.304688-.328125.535157-.652344.535157h-.992187c-.324219 0-.589844-.230469-.648438-.535157-.007812.039063-.011719.082032-.011719.125 0 .363282.292969.660157.660157.660157h.992187c.367187 0 .660156-.296875.660156-.660157 0-.042968-.003906-.085937-.007812-.125zm0 0" fill-opacity=".235294"/><path d="m473.829752 32.476367c0-4.49957-1.374869-8.874152-4.124607-12.623794-.124988-.124988-.249976-.249976-.374964-.374964-.499952-.749929-1.124892-1.374869-1.749833-1.99981l-134.737133-134.737133c-5.999427-5.999427-14.748592-7.624272-22.247875-4.874534-.124988 0-.124988 0-.124988 0-.249977.124988-.499953.249976-.749929.249976-.249976.124988-.499952.249976-.749928.374964-7.249308 3.374678-12.373819 10.623986-12.373819 19.248162v269.349278c0 8.624177 5.124511 15.873485 12.373819 19.248162.249976.124988.499952.249976.749928.374964.249976.124989.499952.124989.749929.249977h.124988c7.499283 2.749737 16.248448 1.124892 22.247875-4.874535l134.737133-134.737133c.874917-.874917 1.749833-1.874821 2.374774-2.874726.374964-.374964.62494-.874916.874916-1.24988 1.999809-3.374678 2.999714-7.12432 2.999714-10.748974zm0 0" fill="none" stroke="#212121" stroke-linecap="square" stroke-linejoin="round" stroke-width="3" transform="matrix(.031253 0 0 .031253 0 6.719392)"/><path d="m253.975747-168.629428c11.748878 0 21.24797 9.499093 21.24797 21.122983v359.840637c0 11.748878-9.499092 21.122982-21.24797 21.122982-11.62389 0-21.122983-9.374104-21.122983-21.122982v-359.840637c0-11.62389 9.499093-21.122983 21.122983-21.122983zm0 0" fill="none" stroke="#212121" stroke-linecap="square" stroke-linejoin="round" stroke-width="3" transform="matrix(.031253 0 0 .031253 0 6.719392)"/><path d="m599.94274 214.940115c-44.405211 0-79.8349 35.902086-79.8349 80.307296 0 44.405211 35.429689 79.8349 79.8349 79.8349h119.988548c44.405211 0 79.8349-35.429689 79.8349-79.8349 0-44.40521-35.429689-80.307296-79.8349-80.307296zm-160.142196 320.284392c-43.932815 0-79.8349 35.42969-79.8349 79.8349 0 44.405211 35.902085 79.8349 79.8349 79.8349h280.130744c44.405211 0 79.8349-35.429689 79.8349-79.8349 0-44.40521-35.429689-79.8349-79.8349-79.8349zm-159.6698 319.811996c-44.405211 0-80.307296 35.902085-80.307296 80.307296 0 43.932815 35.902085 79.8349 80.307296 79.8349h439.800544c44.405211 0 79.8349-35.902085 79.8349-79.8349 0-44.405211-35.429689-80.307296-79.8349-80.307296zm159.6698 320.284392c-43.932815 0-79.8349 35.429689-79.8349 79.8349s35.902085 79.8349 79.8349 79.8349h280.130744c44.405211 0 79.8349-35.429689 79.8349-79.8349s-35.429689-79.8349-79.8349-79.8349zm160.142196 279.658348c-44.405211 0-79.8349 35.902085-79.8349 80.307296 0 43.932815 35.429689 79.8349 79.8349 79.8349h119.988548c44.405211 0 79.8349-35.902085 79.8349-79.8349 0-44.405211-35.429689-80.307296-79.8349-80.307296zm0 0" fill="none" stroke="#212121" stroke-linecap="square" stroke-linejoin="round" stroke-width="11.338583" transform="scale(.00826902)"/></svg>