<?xml version="1.0" encoding="UTF-8"?>
<svg xmlns="http://www.w3.org/2000/svg" xmlns:xlink="http://www.w3.org/1999/xlink" width="16pt" height="16pt" viewBox="0 0 16 16" version="1.1">
<defs>
<linearGradient id="linear0" gradientUnits="userSpaceOnUse" x1="254" y1="233.5" x2="254" y2="254.666672" gradientTransform="matrix(0.031253,0,0,0.031253,-0.00000190753,6.719393)">
<stop offset="0" style="stop-color:rgb(0%,0%,0%);stop-opacity:0.27451;"/>
<stop offset="1" style="stop-color:rgb(0%,0%,0%);stop-opacity:0;"/>
</linearGradient>
<radialGradient id="radial0" gradientUnits="userSpaceOnUse" cx="450.908936" cy="189.579361" fx="450.908936" fy="189.579361" r="21.166656" gradientTransform="matrix(0.0000000870852,-0.0390662,-0.0703192,-0.0000000507693,24.411523,31.797666)">
<stop offset="0" style="stop-color:rgb(0%,0%,0%);stop-opacity:0.313725;"/>
<stop offset="0.222222" style="stop-color:rgb(0%,0%,0%);stop-opacity:0.27451;"/>
<stop offset="1" style="stop-color:rgb(0%,0%,0%);stop-opacity:0;"/>
</radialGradient>
<radialGradient id="radial1" gradientUnits="userSpaceOnUse" cx="450.908936" cy="189.579361" fx="450.908936" fy="189.579361" r="21.166656" gradientTransform="matrix(-0.0000000870852,0.0390662,0.0703192,0.0000000507693,-8.865766,-3.763739)">
<stop offset="0" style="stop-color:rgb(0%,0%,0%);stop-opacity:0.313725;"/>
<stop offset="0.222222" style="stop-color:rgb(0%,0%,0%);stop-opacity:0.27451;"/>
<stop offset="1" style="stop-color:rgb(0%,0%,0%);stop-opacity:0;"/>
</radialGradient>
<radialGradient id="radial2" gradientUnits="userSpaceOnUse" cx="450.908936" cy="189.579361" fx="450.908936" fy="189.579361" r="21.166656" gradientTransform="matrix(-0.0000000870852,-0.0390662,0.0703192,-0.0000000507693,-8.865766,31.797666)">
<stop offset="0" style="stop-color:rgb(0%,0%,0%);stop-opacity:0.313725;"/>
<stop offset="0.222222" style="stop-color:rgb(0%,0%,0%);stop-opacity:0.27451;"/>
<stop offset="1" style="stop-color:rgb(0%,0%,0%);stop-opacity:0;"/>
</radialGradient>
<radialGradient id="radial3" gradientUnits="userSpaceOnUse" cx="450.908936" cy="189.579361" fx="450.908936" fy="189.579361" r="21.166656" gradientTransform="matrix(0.0000000870852,0.0390662,-0.0703192,0.0000000507693,24.411522,-3.76374)">
<stop offset="0" style="stop-color:rgb(0%,0%,0%);stop-opacity:0.313725;"/>
<stop offset="0.222222" style="stop-color:rgb(0%,0%,0%);stop-opacity:0.27451;"/>
<stop offset="1" style="stop-color:rgb(0%,0%,0%);stop-opacity:0;"/>
</radialGradient>
<linearGradient id="linear1" gradientUnits="userSpaceOnUse" x1="232.833328" y1="233.5" x2="232.833328" y2="-168.666672" gradientTransform="matrix(0.031253,0,0,0.031253,0,6.719391)">
<stop offset="0" style="stop-color:rgb(81.176471%,84.705882%,86.27451%);stop-opacity:1;"/>
<stop offset="1" style="stop-color:rgb(92.54902%,93.72549%,94.509804%);stop-opacity:1;"/>
</linearGradient>
<linearGradient id="linear2" gradientUnits="userSpaceOnUse" x1="254" y1="148.833328" x2="254" y2="-41.666668" gradientTransform="matrix(1,0,0,1,106.223999,84.880089)">
<stop offset="0" style="stop-color:rgb(47.45098%,52.54902%,79.607843%);stop-opacity:1;"/>
<stop offset="1" style="stop-color:rgb(62.352941%,65.882353%,85.490196%);stop-opacity:1;"/>
</linearGradient>
</defs>
<g id="surface1">
<path style=" stroke:none;fill-rule:nonzero;fill:url(#linear0);" d="M 4.300781 14.015625 L 11.246094 14.015625 L 11.246094 14.679688 L 4.300781 14.679688 Z M 4.300781 14.015625 "/>
<path style=" stroke:none;fill-rule:nonzero;fill:url(#radial0);" d="M 11.246094 14.015625 L 12.570312 14.015625 L 12.570312 13.355469 L 11.246094 13.355469 Z M 11.246094 14.015625 "/>
<path style=" stroke:none;fill-rule:nonzero;fill:url(#radial1);" d="M 4.300781 14.015625 L 2.976562 14.015625 L 2.976562 14.679688 L 4.300781 14.679688 Z M 4.300781 14.015625 "/>
<path style=" stroke:none;fill-rule:nonzero;fill:url(#radial2);" d="M 4.300781 14.015625 L 2.976562 14.015625 L 2.976562 13.355469 L 4.300781 13.355469 Z M 4.300781 14.015625 "/>
<path style=" stroke:none;fill-rule:nonzero;fill:url(#radial3);" d="M 11.246094 14.015625 L 12.570312 14.015625 L 12.570312 14.679688 L 11.246094 14.679688 Z M 11.246094 14.015625 "/>
<path style=" stroke:none;fill-rule:nonzero;fill:url(#linear1);" d="M 3.636719 1.449219 C 3.273438 1.449219 2.976562 1.742188 2.976562 2.109375 L 2.976562 13.355469 C 2.976562 13.722656 3.273438 14.015625 3.636719 14.015625 L 11.90625 14.015625 C 12.273438 14.015625 12.570312 13.722656 12.570312 13.355469 L 12.570312 3.433594 L 10.253906 1.449219 Z M 3.636719 1.449219 "/>
<path style=" stroke:none;fill-rule:nonzero;fill:rgb(0%,0%,0%);fill-opacity:0.196078;" d="M 3.679688 14.015625 C 3.3125 14.015625 3.019531 13.722656 3.019531 13.355469 L 3.019531 13.273438 C 3.019531 13.640625 3.3125 13.933594 3.679688 13.933594 L 11.90625 13.933594 C 12.273438 13.933594 12.570312 13.640625 12.570312 13.273438 L 12.570312 13.355469 C 12.570312 13.722656 12.273438 14.015625 11.90625 14.015625 Z M 3.679688 14.015625 "/>
<path style=" stroke:none;fill-rule:nonzero;fill:rgb(100%,100%,100%);fill-opacity:1;" d="M 3.636719 1.449219 C 3.273438 1.449219 2.976562 1.742188 2.976562 2.109375 L 2.976562 2.191406 C 2.976562 1.824219 3.273438 1.53125 3.636719 1.53125 L 10.296875 1.53125 L 10.296875 1.449219 Z M 3.636719 1.449219 "/>
<path style=" stroke:none;fill-rule:nonzero;fill:rgb(25.882354%,25.882354%,25.882354%);fill-opacity:1;" d="M 6.449219 10.90625 L 9.097656 10.90625 C 9.1875 10.90625 9.261719 10.972656 9.261719 11.054688 C 9.261719 11.136719 9.1875 11.207031 9.097656 11.207031 L 6.449219 11.207031 C 6.359375 11.207031 6.285156 11.136719 6.285156 11.054688 C 6.285156 10.972656 6.359375 10.90625 6.449219 10.90625 Z M 6.449219 10.90625 "/>
<path style=" stroke:none;fill-rule:nonzero;fill:rgb(25.882354%,25.882354%,25.882354%);fill-opacity:1;" d="M 6.449219 8.558594 L 11.246094 8.558594 C 11.335938 8.558594 11.410156 8.625 11.410156 8.710938 C 11.410156 8.792969 11.335938 8.859375 11.246094 8.859375 L 6.449219 8.859375 C 6.359375 8.859375 6.285156 8.792969 6.285156 8.710938 C 6.285156 8.625 6.359375 8.558594 6.449219 8.558594 Z M 6.449219 8.558594 "/>
<path style=" stroke:none;fill-rule:nonzero;fill:rgb(12.941177%,12.941177%,12.941177%);fill-opacity:1;" d="M 3.636719 1.402344 C 3.246094 1.402344 2.929688 1.71875 2.929688 2.109375 L 2.929688 13.355469 C 2.929688 13.746094 3.246094 14.0625 3.636719 14.0625 L 11.90625 14.0625 C 12.300781 14.0625 12.617188 13.746094 12.617188 13.355469 L 12.617188 3.410156 L 10.269531 1.402344 Z M 3.636719 1.496094 L 10.234375 1.496094 L 12.523438 3.453125 L 12.523438 13.355469 C 12.523438 13.695312 12.25 13.96875 11.90625 13.96875 L 3.636719 13.96875 C 3.296875 13.96875 3.023438 13.695312 3.023438 13.355469 L 3.023438 2.109375 C 3.023438 1.769531 3.296875 1.496094 3.636719 1.496094 Z M 3.636719 1.496094 "/>
<path style=" stroke:none;fill-rule:nonzero;fill:rgb(25.882354%,25.882354%,25.882354%);fill-opacity:1;" d="M 6.449219 3.957031 L 11.246094 3.957031 C 11.335938 3.957031 11.410156 4.027344 11.410156 4.109375 C 11.410156 4.191406 11.335938 4.257812 11.246094 4.257812 L 6.449219 4.257812 C 6.359375 4.257812 6.285156 4.191406 6.285156 4.109375 C 6.285156 4.027344 6.359375 3.957031 6.449219 3.957031 Z M 6.449219 3.957031 "/>
<path style="fill-rule:nonzero;fill:url(#linear2);stroke-width:3;stroke-linecap:round;stroke-linejoin:miter;stroke:rgb(12.941177%,12.941177%,12.941177%);stroke-opacity:1;stroke-miterlimit:4;" d="M 349.591616 45.22515 C 343.717177 45.22515 339.092618 49.974696 339.092618 55.849135 L 339.092618 74.972309 C 335.467964 76.097202 332.093287 77.47207 328.843597 79.221903 L 315.344886 65.598204 C 311.22028 61.473598 304.470924 61.473598 300.346318 65.598204 L 285.347751 80.596772 C 281.223145 84.721378 281.223145 91.470734 285.347751 95.59534 L 298.97145 109.094051 C 297.221617 112.34374 295.846748 115.718418 294.721855 119.343072 L 275.598682 119.343072 C 269.724243 119.343072 264.974696 123.96763 264.974696 129.842069 L 264.974696 151.09004 C 264.974696 156.964479 269.724243 161.589038 275.598682 161.589038 L 294.721855 161.589038 C 295.846748 165.213691 297.221617 168.588369 298.97145 171.838059 L 285.347751 185.33677 C 281.223145 189.461376 281.223145 196.210731 285.347751 200.335337 L 300.346318 215.333905 C 304.470924 219.458511 311.22028 219.458511 315.344886 215.333905 L 328.843597 201.710206 C 332.093287 203.460039 335.467964 204.834908 339.092618 205.9598 L 339.092618 225.082974 C 339.092618 230.957413 343.717177 235.70696 349.591616 235.70696 L 370.839587 235.70696 C 376.714026 235.70696 381.338584 230.957413 381.338584 225.082974 L 381.338584 205.9598 C 384.963238 204.834908 388.337916 203.460039 391.587605 201.710206 L 405.086316 215.333905 C 409.210922 219.458511 415.960278 219.458511 420.084884 215.333905 L 435.083452 200.335337 C 439.208058 196.210731 439.208058 189.461376 435.083452 185.33677 L 421.459753 171.838059 C 423.209586 168.588369 424.584454 165.213691 425.709347 161.589038 L 444.832521 161.589038 C 450.70696 161.589038 455.456506 156.964479 455.456506 151.09004 L 455.456506 129.842069 C 455.456506 123.96763 450.70696 119.343072 444.832521 119.343072 L 425.709347 119.343072 C 424.584454 115.718418 423.209586 112.34374 421.459753 109.094051 L 435.083452 95.59534 C 439.208058 91.470734 439.208058 84.721378 435.083452 80.596772 L 420.084884 65.598204 C 415.960278 61.473598 409.210922 61.473598 405.086316 65.598204 L 391.587605 79.221903 C 388.337916 77.47207 384.963238 76.097202 381.338584 74.972309 L 381.338584 55.849135 C 381.338584 49.974696 376.714026 45.22515 370.839587 45.22515 Z M 360.215601 98.095101 C 383.713357 98.095101 402.586555 116.968299 402.586555 140.466055 C 402.586555 163.963811 383.713357 182.837008 360.215601 182.837008 C 336.717845 182.837008 317.844647 163.963811 317.844647 140.466055 C 317.844647 116.968299 336.717845 98.095101 360.215601 98.095101 Z M 360.215601 98.095101 " transform="matrix(0.031253,0,0,0.031253,0,6.719392)"/>
<path style=" stroke:none;fill-rule:nonzero;fill:rgb(25.882354%,25.882354%,25.882354%);fill-opacity:1;" d="M 4.960938 3.433594 C 5.328125 3.433594 5.621094 3.730469 5.621094 4.09375 C 5.621094 4.460938 5.328125 4.753906 4.960938 4.753906 C 4.597656 4.753906 4.300781 4.460938 4.300781 4.09375 C 4.300781 3.730469 4.597656 3.433594 4.960938 3.433594 Z M 4.960938 3.433594 "/>
<path style=" stroke:none;fill-rule:nonzero;fill:rgb(25.882354%,25.882354%,25.882354%);fill-opacity:1;" d="M 4.960938 5.746094 C 5.328125 5.746094 5.621094 6.042969 5.621094 6.410156 C 5.621094 6.773438 5.328125 7.070312 4.960938 7.070312 C 4.597656 7.070312 4.300781 6.773438 4.300781 6.410156 C 4.300781 6.042969 4.597656 5.746094 4.960938 5.746094 Z M 4.960938 5.746094 "/>
<path style=" stroke:none;fill-rule:nonzero;fill:rgb(25.882354%,25.882354%,25.882354%);fill-opacity:1;" d="M 4.960938 8.0625 C 5.328125 8.0625 5.621094 8.359375 5.621094 8.726562 C 5.621094 9.089844 5.328125 9.386719 4.960938 9.386719 C 4.597656 9.386719 4.300781 9.089844 4.300781 8.726562 C 4.300781 8.359375 4.597656 8.0625 4.960938 8.0625 Z M 4.960938 8.0625 "/>
<path style=" stroke:none;fill-rule:nonzero;fill:rgb(25.882354%,25.882354%,25.882354%);fill-opacity:1;" d="M 4.960938 10.378906 C 5.328125 10.378906 5.621094 10.675781 5.621094 11.039062 C 5.621094 11.40625 5.328125 11.703125 4.960938 11.703125 C 4.597656 11.703125 4.300781 11.40625 4.300781 11.039062 C 4.300781 10.675781 4.597656 10.378906 4.960938 10.378906 Z M 4.960938 10.378906 "/>
<path style=" stroke:none;fill-rule:nonzero;fill:rgb(25.882354%,25.882354%,25.882354%);fill-opacity:1;" d="M 6.449219 6.273438 L 11.246094 6.273438 C 11.335938 6.273438 11.410156 6.339844 11.410156 6.425781 C 11.410156 6.507812 11.335938 6.574219 11.246094 6.574219 L 6.449219 6.574219 C 6.359375 6.574219 6.285156 6.507812 6.285156 6.425781 C 6.285156 6.339844 6.359375 6.273438 6.449219 6.273438 Z M 6.449219 6.273438 "/>
</g>
</svg>
