<svg height="16" viewBox="0 0 16 16" width="16" xmlns="http://www.w3.org/2000/svg" xmlns:xlink="http://www.w3.org/1999/xlink"><linearGradient id="a" gradientUnits="userSpaceOnUse" x1="7.938262" x2="7.938262" y1="14.0169675" y2="1.44805249998"><stop offset="0" stop-color="#64b5f6"/><stop offset="1" stop-color="#90caf9"/></linearGradient><linearGradient id="b"><stop offset="0" stop-opacity=".27451"/><stop offset="1" stop-opacity="0"/></linearGradient><linearGradient id="c" gradientUnits="userSpaceOnUse" x1="7.93826" x2="7.93826" xlink:href="#b" y1="14.0169685" y2="14.67849050002"/><linearGradient id="d"><stop offset="0" stop-opacity=".313726"/><stop offset=".222222" stop-opacity=".27451"/><stop offset="1" stop-opacity="0"/></linearGradient><radialGradient id="e" cx="450.908936" cy="189.579361" gradientTransform="matrix(.00000009 -.0390662 -.0703192 -.00000005 26.561465 31.797666)" gradientUnits="userSpaceOnUse" r="21.166656" xlink:href="#d"/><radialGradient id="f" cx="450.908936" cy="189.579361" gradientTransform="matrix(-.00000009 .0390662 .0703192 .00000005 -10.60226 -3.763739)" gradientUnits="userSpaceOnUse" r="21.166656" xlink:href="#d"/><radialGradient id="g" cx="450.908936" cy="189.579361" gradientTransform="matrix(-.00000009 -.0390662 .0703192 -.00000005 -10.60226 31.797666)" gradientUnits="userSpaceOnUse" r="21.166656" xlink:href="#d"/><radialGradient id="h" cx="450.908936" cy="189.579361" gradientTransform="matrix(.00000009 .0390662 -.0703192 .00000005 26.561464 -3.76374)" gradientUnits="userSpaceOnUse" r="21.166656" xlink:href="#d"/><linearGradient id="i" gradientUnits="userSpaceOnUse" x1="9.59206624997" x2="9.9228275" y1="14.0169665" y2="2.1095735"><stop offset="0" stop-color="#4caf50"/><stop offset="1" stop-color="#66bb6a"/></linearGradient><linearGradient id="j" gradientUnits="userSpaceOnUse" x1="9.2613024" x2="9.2613024" y1="1.4480552201" y2="14.01696600048"><stop offset="0" stop-color="#d7ccc8"/><stop offset="1" stop-color="#efebe9"/></linearGradient><linearGradient id="k"><stop offset="0" stop-color="#ef5350"/><stop offset="1" stop-color="#f44336"/></linearGradient><linearGradient id="l" gradientUnits="userSpaceOnUse" x1="10.2535848" x2="10.2535848" xlink:href="#k" y1="2.77110549607" y2="10.04784360048"/><linearGradient id="m" gradientUnits="userSpaceOnUse" x1="10.25358875003" x2="10.25358875003" xlink:href="#k" y1="4.09414" y2="6.0787055"/><linearGradient id="n" gradientUnits="userSpaceOnUse" x1="10.25358875003" x2="10.25358875003" xlink:href="#b" y1="2.77109599997" y2="6.0787055"/><path d="m1.820312 1.449219h12.238282c.273437 0 .496094.222656.496094.496093v11.574219c0 .273438-.222657.496094-.496094.496094h-12.238282c-.273437 0-.496093-.222656-.496093-.496094v-11.574219c0-.273437.222656-.496093.496093-.496093zm0 0" fill="url(#a)"/><path d="m2.5625 14.015625h10.832031v.664063h-10.832031zm0 0" fill="url(#c)"/><path d="m13.394531 14.015625h1.324219v-.660156h-1.324219zm0 0" fill="url(#e)"/><path d="m2.5625 14.015625h-1.320312v.664063h1.320312zm0 0" fill="url(#f)"/><path d="m2.5625 14.015625h-1.320312v-.660156h1.320312zm0 0" fill="url(#g)"/><path d="m13.394531 14.015625h1.324219v.664063h-1.324219zm0 0" fill="url(#h)"/><path d="m14.554688 2.109375-5.6875 5.535156 5.6875 5.378907zm-6.695313 6.515625-5.542969 5.390625h11.246094zm0 0" fill="url(#i)"/><path d="m1.984375 14.015625c-.367187 0-.660156-.292969-.660156-.660156v-.082031c0 .367187.292969.660156.660156.660156h11.90625c.367187 0 .664063-.292969.664063-.660156v.082031c0 .367187-.296876.660156-.664063.660156zm0 0" fill-opacity=".196078"/><path d="m13.5625 1.449219-12.238281 11.574219v.496093c0 .277344.21875.496094.496093.496094h.496094l5.542969-5.390625 5.703125 5.390625h.496094c.273437 0 .496094-.21875.496094-.496094v-.496093l-5.6875-5.378907 5.6875-5.535156v-.164063c0-.277343-.222657-.496093-.496094-.496093zm0 0" fill="url(#j)" fill-rule="evenodd"/><path d="m1.984375 1.449219c-.367187 0-.660156.292969-.660156.660156v.082031c0-.367187.292969-.660156.660156-.660156h11.90625c.367187 0 .664063.292969.664063.660156v-.082031c0-.367187-.296876-.660156-.664063-.660156zm0 0" fill="#fff" fill-opacity=".643312"/><path d="m13.5625 1.449219-12.238281 11.574219v.167968l12.238281-11.578125h.496094c.273437 0 .496094.222657.496094.496094v-.164063c0-.277343-.222657-.496093-.496094-.496093zm-4.609375 6.277343-.085937.082032 5.6875 5.382812v-.167968zm0 0" fill-opacity=".235294" fill-rule="evenodd"/><path d="m14.550781 2.117188-5.683593 5.53125.105468.097656 5.582032-5.429688v-.164062c0-.011719 0-.023438-.003907-.035156zm-6.691406 6.511718-5.539063 5.386719h.207032l5.332031-5.1875 5.484375 5.1875h.210938zm0 0" fill="#fff" fill-opacity=".392157" fill-rule="evenodd"/><path d="m1.820312 1.402344c-.300781 0-.542968.242187-.542968.542968v11.574219c0 .300781.242187.542969.542968.542969h12.238282c.296875 0 .542968-.242188.542968-.542969v-11.574219c0-.300781-.246093-.542968-.542968-.542968zm0 .09375h12.238282c.25 0 .449218.199218.449218.449218v11.574219c0 .25-.199218.449219-.449218.449219h-12.238282c-.25 0-.449218-.199219-.449218-.449219v-11.574219c0-.25.199218-.449218.449218-.449218zm0 0" fill="#212121"/><path d="m1640.15842 175.258863-1480.016224 1399.708928v59.994274c0 33.540106 26.454168 59.994274 59.994274 59.994274h59.994274l670.329723-651.906284 689.697953 651.906284h59.994274c33.06771 0 59.994274-26.454168 59.994274-59.994274v-59.994274l-687.80837-650.489097 687.80837-669.384931v-19.840626c0-33.540106-26.926564-59.994274-59.994274-59.994274zm0 0" fill="none" stroke="#212121" stroke-width="11.338583" transform="scale(.00826902)"/><path d="m10.253906 2.769531c-1.28125 0-2.316406 1.035157-2.316406 2.316407 0 2.152343 1.65625 4.300781 2.316406 4.960937.496094-.660156 2.316406-2.808594 2.316406-4.960937 0-1.28125-1.035156-2.316407-2.316406-2.316407zm0 1.324219c.550782 0 .992188.441406.992188.992188 0 .550781-.441406.992187-.992188.992187-.550781 0-.992187-.441406-.992187-.992187 0-.550782.441406-.992188.992187-.992188zm0 0" fill="url(#l)"/><path d="m10.253906 4.09375c.546875 0 .992188.445312.992188.992188 0 .546874-.445313.992187-.992188.992187s-.992187-.445313-.992187-.992187c0-.546876.445312-.992188.992187-.992188zm0 0" fill="url(#m)"/><path d="m10.253906 4.09375c-.550781 0-.992187.441406-.992187.992188 0 .042968.003906.082031.007812.125.058594-.492188.476563-.867188.984375-.867188.507813 0 .921875.375.984375.867188.003907-.042969.007813-.082032.007813-.125 0-.550782-.441406-.992188-.992188-.992188zm0 0" fill-opacity=".235294"/><path d="m9.265625 5.167969c-.003906.027343-.003906.054687-.003906.082031 0 .550781.441406.992188.992187.992188.550782 0 .992188-.441407.992188-.992188 0-.027344 0-.054688-.003906-.082031-.042969.511719-.46875.910156-.988282.910156-.523437 0-.945312-.398437-.988281-.910156zm0 0" fill="#fff" fill-opacity=".392157"/><path d="m328.093669-84.012509c17.498329 0 31.746968 14.24864 31.746968 31.746969s-14.248639 31.746968-31.746968 31.746968-31.746969-14.248639-31.746969-31.746968 14.24864-31.746969 31.746969-31.746969zm0 0" fill="none" stroke="#212121" stroke-linecap="round" stroke-linejoin="round" stroke-width="3" transform="matrix(.031253 0 0 .031253 0 6.719392)"/><path d="m12.5625 5.273438c-.097656 2.085937-1.828125 4.132812-2.308594 4.773437-.640625-.640625-2.21875-2.683594-2.3125-4.769531 0 .046875-.003906.09375-.003906.140625 0 2.148437 1.65625 4.300781 2.316406 4.960937.496094-.660156 2.316406-2.8125 2.316406-4.960937 0-.050781-.003906-.097657-.007812-.144531zm0 0" fill-opacity=".235294"/><path d="m328.093669-126.383462c-40.996085 0-74.117922 33.121837-74.117922 74.117922 0 68.868423 52.994939 137.611858 74.117922 158.734841 15.873484-21.122983 74.117922-89.866418 74.117922-158.734841 0-40.996085-33.121837-74.117922-74.117922-74.117922zm0 42.370953c17.623317 0 31.746968 14.123652 31.746968 31.746969s-14.123651 31.746968-31.746968 31.746968-31.746969-14.123651-31.746969-31.746968 14.123652-31.746969 31.746969-31.746969zm0 0" fill="none" stroke="#212121" stroke-linecap="round" stroke-width="3" transform="matrix(.031253 0 0 .031253 0 6.719392)"/><path d="m10.253906 4.09375c.546875 0 .992188.445312.992188.992188 0 .546874-.445313.992187-.992188.992187s-.992187-.445313-.992187-.992187c0-.546876.445312-.992188.992187-.992188zm0 0" fill="url(#n)"/></svg>