<svg height="16" viewBox="0 0 16 16" width="16" xmlns="http://www.w3.org/2000/svg" xmlns:xlink="http://www.w3.org/1999/xlink"><linearGradient id="a"><stop offset="0" stop-opacity=".313726"/><stop offset=".222222" stop-opacity=".27451"/><stop offset="1" stop-opacity="0"/></linearGradient><radialGradient id="b" cx="450.908936" cy="189.579361" gradientTransform="matrix(.00000009 -.0390662 -.0703192 -.00000005 22.261576 31.797665)" gradientUnits="userSpaceOnUse" r="21.166656" xlink:href="#a"/><radialGradient id="c" cx="450.908936" cy="189.579361" gradientTransform="matrix(-.00000009 .0390662 .0703192 .00000005 -6.385059 -3.763741)" gradientUnits="userSpaceOnUse" r="21.166656" xlink:href="#a"/><radialGradient id="d" cx="450.908936" cy="189.579361" gradientTransform="matrix(-.00000009 -.0390662 .0703192 -.00000005 -6.385059 31.797665)" gradientUnits="userSpaceOnUse" r="21.166656" xlink:href="#a"/><radialGradient id="e" cx="450.908936" cy="189.579361" gradientTransform="matrix(.00000009 .0390662 -.0703192 .00000005 22.261575 -3.763741)" gradientUnits="userSpaceOnUse" r="21.166656" xlink:href="#a"/><linearGradient id="f" gradientTransform="matrix(.00668003 0 0 .031253 6.232693 6.719392)" gradientUnits="userSpaceOnUse" x1="255.323059" x2="255.323044" y1="233.5" y2="254.666656"><stop offset="0" stop-opacity=".27451"/><stop offset="1" stop-opacity="0"/></linearGradient><linearGradient id="g" gradientUnits="userSpaceOnUse" x1="7.938262" x2="7.938262" y1="1.44805249998" y2="14.0169675"><stop offset="0" stop-color="#616161"/><stop offset="1" stop-color="#424242"/></linearGradient><linearGradient id="h" gradientUnits="userSpaceOnUse" x1="7.6087252" x2="7.6087252" y1="14.01696600048" y2="1.44805535241"><stop offset="0" stop-color="#bdbdbd"/><stop offset="1" stop-color="#e0e0e0"/></linearGradient><path d="m9.097656 14.015625h1.320313v-.660156h-1.320313zm0 0" fill="url(#b)"/><path d="m6.78125 14.015625h-1.324219v.664063h1.324219zm0 0" fill="url(#c)"/><path d="m6.78125 14.015625h-1.324219v-.660156h1.324219zm0 0" fill="url(#d)"/><path d="m9.097656 14.015625h1.320313v.664063h-1.320313zm0 0" fill="url(#e)"/><path d="m6.78125 13.851562h2.316406v.828126h-2.316406zm0 0" fill="url(#f)"/><path d="m7.9375 1.449219c3.472656 0 6.285156 2.8125 6.285156 6.285156 0 3.46875-2.8125 6.28125-6.285156 6.28125-3.46875 0-6.285156-2.8125-6.285156-6.28125 0-3.472656 2.816406-6.285156 6.285156-6.285156zm0 0" fill="url(#g)"/><path d="m7.9375 14.015625c-3.480469 0-6.285156-2.800781-6.285156-6.28125 0-.023437 0-.042969 0-.0625.035156 3.453125 2.824218 6.222656 6.285156 6.222656s6.253906-2.769531 6.285156-6.222656v.0625c0 3.480469-2.804687 6.28125-6.285156 6.28125zm0 0" fill-opacity=".196078"/><path d="m7.9375 1.449219c-3.480469 0-6.285156 2.800781-6.285156 6.285156 0 .023437 0 .050781.003906.078125.042969-3.441406 2.828125-6.199219 6.28125-6.199219s6.238281 2.757813 6.285156 6.199219c0-.027344 0-.054688 0-.078125 0-3.484375-2.804687-6.285156-6.285156-6.285156zm0 0" fill="#fff" fill-opacity=".392157"/><path d="m253.975747-168.629428c111.114389 0 201.105795 89.991406 201.105795 201.105795 0 110.989401-89.991406 200.980807-201.105795 200.980807-110.989402 0-201.105796-89.991406-201.105796-200.980807 0-111.114389 90.116394-201.105795 201.105796-201.105795zm0 0" fill="none" stroke="#333" stroke-linecap="round" stroke-width="3" transform="matrix(.031253 0 0 .031253 0 6.719392)"/><path d="m5.625 3.433594v5.621094h-.078125c-.140625 0-.253906.148437-.253906.332031v2.316406c0 .183594.113281.328125.253906.328125h.816406c.140625 0 .253907-.144531.253907-.328125v-2.316406c0-.183594-.113282-.332031-.253907-.332031h-.078125v-.660157s.332032 0 .5-.636719c.617188-2.328124-1.160156-4.324218-1.160156-4.324218zm3.96875 0c-.113281 0-.222656.011718-.332031.03125v1.953125c0 .183593-.113281.328125-.253907.328125h-.152343c-.140625 0-.253907-.144532-.253907-.328125v-1.65625c-.402343.300781-.660156.78125-.660156 1.324219v.992187c0 .804687.566406 1.46875 1.324219 1.621094-.003906.011719-.003906.023437-.003906.035156v1.320313h-.074219c-.140625 0-.253906.148437-.253906.332031v2.316406c0 .183594.113281.328125.253906.328125h.8125c.140625 0 .253906-.144531.253906-.328125v-2.316406c0-.183594-.113281-.332031-.253906-.332031h-.074219v-1.320313c0-.011719-.003906-.023437-.003906-.035156.757813-.152344 1.324219-.816407 1.324219-1.621094v-.992187c0-.542969-.257813-1.023438-.660156-1.324219v1.65625c0 .183593-.113282.328125-.253907.328125h-.152343c-.140626 0-.253907-.144532-.253907-.328125v-1.953125c-.109375-.019532-.21875-.03125-.332031-.03125zm0 0" fill="url(#h)"/><path d="m7.941406 6.078125v.25c0 .800781.566406 1.46875 1.320313 1.621094v-.214844c0-.011719 0-.023437.003906-.035156-.757813-.152344-1.324219-.816407-1.324219-1.621094zm3.304688 0c0 .804687-.566406 1.46875-1.324219 1.621094 0 .011719.003906.023437.003906.035156v.214844c.753907-.152344 1.320313-.820313 1.320313-1.621094zm-4.332032.796875c-.007812.285156-.046874.582031-.128906.882812-.167968.636719-.5.636719-.5.636719v.246094s.332032 0 .5-.636719c.101563-.386718.140625-.765625.128906-1.128906zm-1.621093 4.828125v.246094c0 .183593.113281.332031.253906.332031h.816406c.140625 0 .253907-.148438.253907-.332031v-.246094c0 .183594-.113282.328125-.253907.328125h-.816406c-.140625 0-.253906-.144531-.253906-.328125zm3.640625 0v.246094c0 .183593.113281.332031.253906.332031h.8125c.140625 0 .253906-.148438.253906-.332031v-.246094c0 .183594-.113281.328125-.253906.328125h-.8125c-.140625 0-.253906-.144531-.253906-.328125zm0 0" fill-opacity=".235294"/><path d="m5.625 3.433594v.167968s1.253906 1.40625 1.289062 3.234376c.039063-1.910157-1.289062-3.402344-1.289062-3.402344zm3.96875 0c-.113281 0-.222656.011718-.332031.03125v.167968c.109375-.023437.21875-.03125.332031-.03125s.222656.007813.332031.03125v-.167968c-.109375-.019532-.21875-.03125-.332031-.03125zm-.992188.328125c-.402343.300781-.660156.78125-.660156 1.324219v.167968c0-.542968.257813-1.023437.660156-1.324218zm1.984376 0v.167969c.402343.300781.660156.78125.660156 1.324218v-.167968c0-.542969-.257813-1.023438-.660156-1.324219zm-1.984376 1.65625v.167969c0 .183593.113282.328124.253907.328124h.152343c.140626 0 .253907-.144531.253907-.328124v-.167969c0 .183593-.113281.328125-.253907.328125h-.152343c-.140625 0-.253907-.144532-.253907-.328125zm1.324219 0v.167969c0 .183593.113281.328124.253907.328124h.152343c.140625 0 .253907-.144531.253907-.328124v-.167969c0 .183593-.113282.328125-.253907.328125h-.152343c-.140626 0-.253907-.144532-.253907-.328125zm-.664062 2.449219v.03125c0-.007813 0-.019532.003906-.03125-.003906 0-.003906 0-.003906 0zm.664062 0c-.003906 0-.003906 0-.003906 0 0 .011718.003906.023437.003906.03125zm-4.378906 1.1875c-.140625 0-.253906.148437-.253906.332031v.167969c0-.183594.113281-.332032.253906-.332032h.078125v-.167968zm.738281 0v.167968h.078125c.140625 0 .253907.148438.253907.332032v-.167969c0-.183594-.113282-.332031-.253907-.332031zm2.902344 0c-.140625 0-.253906.148437-.253906.332031v.167969c0-.183594.113281-.332032.253906-.332032h.074219v-.167968zm.738281 0v.167968h.074219c.140625 0 .253906.148438.253906.332032v-.167969c0-.183594-.113281-.332031-.253906-.332031zm0 0" fill="#fff" fill-opacity=".784314"/><path d="m179.982812-105.135492v179.857825h-2.499761c-4.49957 0-8.124224 4.749546-8.124224 10.623985v74.117922c0 5.874439 3.624654 10.498998 8.124224 10.498998h26.122506c4.49957 0 8.124224-4.624559 8.124224-10.498998v-74.117922c0-5.874439-3.624654-10.623985-8.124224-10.623985h-2.499762v-21.122983s10.623986 0 15.998473-20.373054c19.748114-74.492887-37.121456-138.361788-37.121456-138.361788zm126.987874 0c-3.624654 0-7.12432.374965-10.623986.999905v62.494032c0 5.874439-3.624654 10.498997-8.124224 10.498997h-4.874534c-4.499571 0-8.124225-4.624558-8.124225-10.498997v-52.994939c-12.87377 9.624081-21.122982 24.997613-21.122982 42.370954v31.746968c0 25.747541 18.123269 46.995512 42.370953 51.870047-.124988.374964-.124988.749928-.124988 1.124892v42.245966h-2.374773c-4.49957 0-8.124224 4.749546-8.124224 10.623985v74.117922c0 5.874439 3.624654 10.498998 8.124224 10.498998h25.997517c4.499571 0 8.124225-4.624559 8.124225-10.498998v-74.117922c0-5.874439-3.624654-10.623985-8.124225-10.623985h-2.374773v-42.245966c0-.374964-.124988-.749928-.124988-1.124892 24.247685-4.874535 42.370954-26.122506 42.370954-51.870047v-31.746968c0-17.373341-8.249212-32.746873-21.122983-42.370954v52.994939c0 5.874439-3.624654 10.498997-8.124224 10.498997h-4.874535c-4.49957 0-8.124224-4.624558-8.124224-10.498997v-62.494032c-3.499666-.62494-6.999331-.999905-10.623985-.999905zm0 0" fill="none" stroke="#212121" stroke-linecap="round" stroke-linejoin="round" stroke-width="3" transform="matrix(.031253 0 0 .031253 0 6.719392)"/></svg>