<?xml version="1.0" encoding="UTF-8"?>
<svg xmlns="http://www.w3.org/2000/svg" xmlns:xlink="http://www.w3.org/1999/xlink" width="16px" height="16px" viewBox="0 0 16 16" version="1.1">
<defs>
<radialGradient id="radial0" gradientUnits="userSpaceOnUse" cx="450.908936" cy="189.579361" fx="450.908936" fy="189.579361" r="21.166656" gradientTransform="matrix(0.0000000870852,-0.0390662,-0.0703192,-0.0000000507693,24.41152,31.797665)">
<stop offset="0" style="stop-color:rgb(0%,0%,0%);stop-opacity:0.313726;"/>
<stop offset="0.222222" style="stop-color:rgb(0%,0%,0%);stop-opacity:0.27451;"/>
<stop offset="1" style="stop-color:rgb(0%,0%,0%);stop-opacity:0;"/>
</radialGradient>
<radialGradient id="radial1" gradientUnits="userSpaceOnUse" cx="450.908936" cy="189.579361" fx="450.908936" fy="189.579361" r="21.166656" gradientTransform="matrix(-0.0000000870852,0.0390662,0.0703192,0.0000000507693,-6.385059,-3.763741)">
<stop offset="0" style="stop-color:rgb(0%,0%,0%);stop-opacity:0.313726;"/>
<stop offset="0.222222" style="stop-color:rgb(0%,0%,0%);stop-opacity:0.27451;"/>
<stop offset="1" style="stop-color:rgb(0%,0%,0%);stop-opacity:0;"/>
</radialGradient>
<radialGradient id="radial2" gradientUnits="userSpaceOnUse" cx="450.908936" cy="189.579361" fx="450.908936" fy="189.579361" r="21.166656" gradientTransform="matrix(-0.0000000870852,-0.0390662,0.0703192,-0.0000000507693,-6.385059,31.797665)">
<stop offset="0" style="stop-color:rgb(0%,0%,0%);stop-opacity:0.313726;"/>
<stop offset="0.222222" style="stop-color:rgb(0%,0%,0%);stop-opacity:0.27451;"/>
<stop offset="1" style="stop-color:rgb(0%,0%,0%);stop-opacity:0;"/>
</radialGradient>
<radialGradient id="radial3" gradientUnits="userSpaceOnUse" cx="450.908936" cy="189.579361" fx="450.908936" fy="189.579361" r="21.166656" gradientTransform="matrix(0.0000000870852,0.0390662,-0.0703192,0.0000000507693,24.411519,-3.763741)">
<stop offset="0" style="stop-color:rgb(0%,0%,0%);stop-opacity:0.313726;"/>
<stop offset="0.222222" style="stop-color:rgb(0%,0%,0%);stop-opacity:0.27451;"/>
<stop offset="1" style="stop-color:rgb(0%,0%,0%);stop-opacity:0;"/>
</radialGradient>
<linearGradient id="linear0" gradientUnits="userSpaceOnUse" x1="255.323059" y1="233.5" x2="255.323044" y2="254.666656" gradientTransform="matrix(0.00668003,0,0,0.031253,6.232693,6.719392)">
<stop offset="0" style="stop-color:rgb(0%,0%,0%);stop-opacity:0.27451;"/>
<stop offset="1" style="stop-color:rgb(0%,0%,0%);stop-opacity:0;"/>
</linearGradient>
<linearGradient id="linear1" gradientUnits="userSpaceOnUse" x1="254" y1="-168.666672" x2="254" y2="233.5" gradientTransform="matrix(0.031253,0,0,0.031253,0,6.719391)">
<stop offset="0" style="stop-color:rgb(87.843138%,87.843138%,87.843138%);stop-opacity:1;"/>
<stop offset="1" style="stop-color:rgb(74.117649%,74.117649%,74.117649%);stop-opacity:1;"/>
</linearGradient>
<linearGradient id="linear2" gradientUnits="userSpaceOnUse" x1="254" y1="117.083344" x2="254" y2="-52.25" gradientTransform="matrix(3.779528,0,0,3.779528,0,812.59845)">
<stop offset="0" style="stop-color:rgb(96.078432%,96.078432%,96.078432%);stop-opacity:1;"/>
<stop offset="1" style="stop-color:rgb(87.843138%,87.843138%,87.843138%);stop-opacity:1;"/>
</linearGradient>
<linearGradient id="linear3" gradientUnits="userSpaceOnUse" x1="359.833344" y1="233.5" x2="359.833344" y2="21.833334" gradientTransform="matrix(0.031253,0,0,0.031253,0,6.719392)">
<stop offset="0" style="stop-color:rgb(50.588238%,78.039217%,51.764709%);stop-opacity:1;"/>
<stop offset="1" style="stop-color:rgb(40.000001%,73.333335%,41.568628%);stop-opacity:1;"/>
</linearGradient>
</defs>
<g id="surface1">
<path style=" stroke:none;fill-rule:nonzero;fill:url(#radial0);" d="M 11.246094 14.015625 L 12.570312 14.015625 L 12.570312 13.355469 L 11.246094 13.355469 Z M 11.246094 14.015625 "/>
<path style=" stroke:none;fill-rule:nonzero;fill:url(#radial1);" d="M 6.78125 14.015625 L 5.457031 14.015625 L 5.457031 14.679688 L 6.78125 14.679688 Z M 6.78125 14.015625 "/>
<path style=" stroke:none;fill-rule:nonzero;fill:url(#radial2);" d="M 6.78125 14.015625 L 5.457031 14.015625 L 5.457031 13.355469 L 6.78125 13.355469 Z M 6.78125 14.015625 "/>
<path style=" stroke:none;fill-rule:nonzero;fill:url(#radial3);" d="M 11.246094 14.015625 L 12.570312 14.015625 L 12.570312 14.679688 L 11.246094 14.679688 Z M 11.246094 14.015625 "/>
<path style=" stroke:none;fill-rule:nonzero;fill:url(#linear0);" d="M 6.78125 13.851562 L 11.246094 13.851562 L 11.246094 14.679688 L 6.78125 14.679688 Z M 6.78125 13.851562 "/>
<path style=" stroke:none;fill-rule:nonzero;fill:url(#linear1);" d="M 7.9375 1.449219 C 4.457031 1.449219 1.652344 4.25 1.652344 7.734375 C 1.652344 11.214844 4.457031 14.015625 7.9375 14.015625 C 11.417969 14.015625 14.222656 11.214844 14.222656 7.734375 C 14.222656 4.25 11.417969 1.449219 7.9375 1.449219 Z M 7.9375 6.410156 C 8.671875 6.410156 9.261719 7 9.261719 7.734375 C 9.261719 8.464844 8.671875 9.054688 7.9375 9.054688 C 7.207031 9.054688 6.613281 8.464844 6.613281 7.734375 C 6.613281 7 7.207031 6.410156 7.9375 6.410156 Z M 7.9375 6.410156 "/>
<path style=" stroke:none;fill-rule:nonzero;fill:rgb(0%,0%,0%);fill-opacity:0.196078;" d="M 7.9375 14.015625 C 4.457031 14.015625 1.652344 11.214844 1.652344 7.734375 C 1.652344 7.710938 1.652344 7.691406 1.652344 7.671875 C 1.6875 11.125 4.476562 13.894531 7.9375 13.894531 C 11.398438 13.894531 14.191406 11.125 14.222656 7.671875 C 14.222656 7.691406 14.222656 7.710938 14.222656 7.734375 C 14.222656 11.214844 11.417969 14.015625 7.9375 14.015625 Z M 7.9375 14.015625 "/>
<path style=" stroke:none;fill-rule:nonzero;fill:rgb(100%,100%,100%);fill-opacity:0.588235;" d="M 7.9375 1.449219 C 4.457031 1.449219 1.652344 4.25 1.652344 7.734375 C 1.652344 7.753906 1.652344 7.773438 1.652344 7.792969 C 1.6875 4.339844 4.476562 1.570312 7.9375 1.570312 C 11.398438 1.570312 14.191406 4.339844 14.222656 7.792969 C 14.222656 7.773438 14.222656 7.753906 14.222656 7.734375 C 14.222656 4.25 11.417969 1.449219 7.9375 1.449219 Z M 7.9375 1.449219 "/>
<path style=" stroke:none;fill-rule:nonzero;fill:rgb(12.941177%,12.941177%,12.941177%);fill-opacity:1;" d="M 7.9375 1.402344 C 4.429688 1.402344 1.605469 4.226562 1.605469 7.734375 C 1.605469 11.238281 4.429688 14.0625 7.9375 14.0625 C 11.445312 14.0625 14.269531 11.238281 14.269531 7.734375 C 14.269531 4.226562 11.445312 1.402344 7.9375 1.402344 Z M 7.9375 1.496094 C 11.394531 1.496094 14.175781 4.277344 14.175781 7.734375 C 14.175781 11.1875 11.394531 13.96875 7.9375 13.96875 C 4.480469 13.96875 1.699219 11.1875 1.699219 7.734375 C 1.699219 4.277344 4.480469 1.496094 7.9375 1.496094 Z M 7.9375 1.496094 "/>
<path style=" stroke:none;fill-rule:nonzero;fill:rgb(100%,100%,100%);fill-opacity:0.588235;" d="M 3.710938 3.503906 C 3.359375 3.867188 3.054688 4.269531 2.800781 4.707031 C 2.550781 5.144531 2.355469 5.609375 2.21875 6.09375 L 3.554688 6.453125 C 3.761719 5.710938 4.152344 5.035156 4.691406 4.484375 Z M 4.941406 4.734375 C 4.445312 5.238281 4.085938 5.863281 3.898438 6.542969 L 6.75 7.308594 C 6.804688 7.128906 6.902344 6.960938 7.027344 6.824219 Z M 9.140625 8.042969 C 9.109375 8.132812 9.074219 8.21875 9.027344 8.300781 C 8.980469 8.382812 8.921875 8.457031 8.859375 8.527344 L 10.949219 10.617188 C 11.445312 10.109375 11.800781 9.488281 11.992188 8.804688 Z M 12.332031 8.894531 C 12.125 9.636719 11.734375 10.316406 11.195312 10.863281 L 12.175781 11.84375 C 12.527344 11.484375 12.835938 11.082031 13.085938 10.644531 C 13.339844 10.207031 13.535156 9.742188 13.667969 9.253906 Z M 12.332031 8.894531 "/>
<path style="fill-rule:nonzero;fill:url(#linear2);stroke-width:11.338583;stroke-linecap:round;stroke-linejoin:miter;stroke:rgb(20%,20%,20%);stroke-opacity:1;stroke-miterlimit:4;" d="M 959.908384 615.059407 C 782.759937 615.059407 640.096388 757.722956 640.096388 935.343799 C 640.096388 1112.492246 782.759937 1255.155795 959.908384 1255.155795 C 1137.056831 1255.155795 1280.192776 1112.492246 1280.192776 935.343799 C 1280.192776 757.722956 1137.056831 615.059407 959.908384 615.059407 Z M 959.908384 775.201603 C 1048.718805 775.201603 1120.05058 846.533378 1120.05058 935.343799 C 1120.05058 1023.681825 1048.718805 1095.013599 959.908384 1095.013599 C 871.570358 1095.013599 799.766188 1023.681825 799.766188 935.343799 C 799.766188 846.533378 871.570358 775.201603 959.908384 775.201603 Z M 959.908384 775.201603 " transform="matrix(0.00826902,0,0,0.00826902,0,0)"/>
<path style=" stroke:none;fill-rule:nonzero;fill:url(#linear3);" d="M 14.585938 7.398438 C 14.347656 7.386719 14.121094 7.507812 13.996094 7.714844 L 11.148438 12.269531 L 8.425781 9.273438 C 8.269531 9.097656 8.027344 9.015625 7.796875 9.066406 C 7.5625 9.117188 7.375 9.285156 7.304688 9.511719 C 7.234375 9.738281 7.289062 9.988281 7.449219 10.160156 L 10.757812 13.796875 C 10.898438 13.949219 11.097656 14.03125 11.304688 14.011719 C 11.511719 13.992188 11.695312 13.878906 11.804688 13.703125 L 15.113281 8.414062 C 15.238281 8.214844 15.25 7.960938 15.144531 7.753906 C 15.035156 7.542969 14.824219 7.40625 14.585938 7.398438 Z M 14.585938 7.398438 "/>
<path style=" stroke:none;fill-rule:nonzero;fill:rgb(100%,100%,100%);fill-opacity:0.392157;" d="M 14.585938 7.398438 C 14.347656 7.386719 14.121094 7.507812 13.996094 7.714844 L 11.148438 12.269531 L 8.425781 9.273438 C 8.234375 9.058594 7.925781 8.992188 7.660156 9.113281 C 7.398438 9.230469 7.242188 9.507812 7.28125 9.792969 C 7.3125 9.539062 7.492188 9.324219 7.738281 9.25 C 7.988281 9.175781 8.253906 9.25 8.425781 9.445312 L 11.148438 12.4375 L 13.996094 7.882812 C 14.121094 7.679688 14.347656 7.554688 14.585938 7.566406 C 14.90625 7.582031 15.167969 7.820312 15.210938 8.136719 C 15.234375 7.957031 15.179688 7.773438 15.0625 7.632812 C 14.941406 7.492188 14.769531 7.40625 14.585938 7.398438 Z M 14.585938 7.398438 "/>
<path style=" stroke:none;fill-rule:nonzero;fill:rgb(0%,0%,0%);fill-opacity:0.235294;" d="M 7.308594 9.925781 C 7.230469 10.15625 7.285156 10.410156 7.449219 10.585938 L 10.195312 13.601562 C 10.289062 13.566406 10.378906 13.53125 10.46875 13.492188 L 7.449219 10.171875 C 7.386719 10.101562 7.335938 10.019531 7.308594 9.925781 Z M 7.308594 9.925781 "/>
<path style="fill:none;stroke-width:3;stroke-linecap:round;stroke-linejoin:round;stroke:rgb(12.941177%,12.941177%,12.941177%);stroke-opacity:1;stroke-miterlimit:4;" d="M 466.705432 21.727394 C 459.08116 21.352429 451.831852 25.227059 447.832234 31.851427 L 356.715935 177.58751 L 269.599255 81.721664 C 264.599732 76.097202 256.850472 73.472452 249.476176 75.097297 C 241.976892 76.722142 235.977465 82.096629 233.72768 89.345936 C 231.477895 96.595244 233.227728 104.59448 238.352238 110.093955 L 344.217129 226.457843 C 348.716699 231.332377 355.09109 233.957127 361.715458 233.332186 C 368.339825 232.707246 374.214264 229.082592 377.71393 223.458129 L 483.578821 54.22429 C 487.578439 47.849899 487.953403 39.725675 484.578725 33.101308 C 481.079059 26.351952 474.329704 21.97737 466.705432 21.727394 Z M 466.705432 21.727394 " transform="matrix(0.031253,0,0,0.031253,0,6.719392)"/>
</g>
</svg>
