<?xml version="1.0" encoding="UTF-8"?>
<svg xmlns="http://www.w3.org/2000/svg" xmlns:xlink="http://www.w3.org/1999/xlink" width="16px" height="16px" viewBox="0 0 16 16" version="1.1">
<defs>
<linearGradient id="linear0" gradientUnits="userSpaceOnUse" x1="254" y1="233.5" x2="254" y2="254.666672" gradientTransform="matrix(0.031253,0,0,0.031253,-0.330766,6.719392)">
<stop offset="0" style="stop-color:rgb(0%,0%,0%);stop-opacity:0.27451;"/>
<stop offset="1" style="stop-color:rgb(0%,0%,0%);stop-opacity:0;"/>
</linearGradient>
<radialGradient id="radial0" gradientUnits="userSpaceOnUse" cx="450.908936" cy="189.579361" fx="450.908936" fy="189.579361" r="21.166656" gradientTransform="matrix(0.0000000870852,-0.0390662,-0.0703192,-0.0000000507693,26.726844,31.797666)">
<stop offset="0" style="stop-color:rgb(0%,0%,0%);stop-opacity:0.313726;"/>
<stop offset="0.222222" style="stop-color:rgb(0%,0%,0%);stop-opacity:0.27451;"/>
<stop offset="1" style="stop-color:rgb(0%,0%,0%);stop-opacity:0;"/>
</radialGradient>
<radialGradient id="radial1" gradientUnits="userSpaceOnUse" cx="450.908936" cy="189.579361" fx="450.908936" fy="189.579361" r="21.166656" gradientTransform="matrix(-0.0000000870852,0.0390662,0.0703192,0.0000000507693,-10.850327,-3.763739)">
<stop offset="0" style="stop-color:rgb(0%,0%,0%);stop-opacity:0.313726;"/>
<stop offset="0.222222" style="stop-color:rgb(0%,0%,0%);stop-opacity:0.27451;"/>
<stop offset="1" style="stop-color:rgb(0%,0%,0%);stop-opacity:0;"/>
</radialGradient>
<radialGradient id="radial2" gradientUnits="userSpaceOnUse" cx="450.908936" cy="189.579361" fx="450.908936" fy="189.579361" r="21.166656" gradientTransform="matrix(-0.0000000870852,-0.0390662,0.0703192,-0.0000000507693,-10.850327,31.797666)">
<stop offset="0" style="stop-color:rgb(0%,0%,0%);stop-opacity:0.313726;"/>
<stop offset="0.222222" style="stop-color:rgb(0%,0%,0%);stop-opacity:0.27451;"/>
<stop offset="1" style="stop-color:rgb(0%,0%,0%);stop-opacity:0;"/>
</radialGradient>
<radialGradient id="radial3" gradientUnits="userSpaceOnUse" cx="450.908936" cy="189.579361" fx="450.908936" fy="189.579361" r="21.166656" gradientTransform="matrix(0.0000000870852,0.0390662,-0.0703192,0.0000000507693,26.726843,-3.76374)">
<stop offset="0" style="stop-color:rgb(0%,0%,0%);stop-opacity:0.313726;"/>
<stop offset="0.222222" style="stop-color:rgb(0%,0%,0%);stop-opacity:0.27451;"/>
<stop offset="1" style="stop-color:rgb(0%,0%,0%);stop-opacity:0;"/>
</radialGradient>
<linearGradient id="linear1" gradientUnits="userSpaceOnUse" x1="306.752655" y1="-16.485477" x2="305.954529" y2="-141.414581" gradientTransform="matrix(0.0360368,0,0,0.0953132,-2.454603,15.588246)">
<stop offset="0" style="stop-color:rgb(69.01961%,74.509805%,77.254903%);stop-opacity:1;"/>
<stop offset="1" style="stop-color:rgb(81.176472%,84.705883%,86.274511%);stop-opacity:1;"/>
</linearGradient>
<linearGradient id="linear2" gradientUnits="userSpaceOnUse" x1="254" y1="233.5" x2="254" y2="-147.5" gradientTransform="matrix(0.031253,0,0,0.031253,0,6.719392)">
<stop offset="0" style="stop-color:rgb(36.078432%,41.960785%,75.294119%);stop-opacity:1;"/>
<stop offset="1" style="stop-color:rgb(47.450981%,52.549022%,79.607844%);stop-opacity:1;"/>
</linearGradient>
<linearGradient id="linear3" gradientUnits="userSpaceOnUse" x1="254" y1="-136.916656" x2="254" y2="201.75" gradientTransform="matrix(0.0156317,0,0,0.0156317,3.964204,7.552678)">
<stop offset="0" style="stop-color:rgb(81.176472%,84.705883%,86.274511%);stop-opacity:1;"/>
<stop offset="1" style="stop-color:rgb(69.01961%,74.509805%,77.254903%);stop-opacity:1;"/>
</linearGradient>
<linearGradient id="linear4" gradientUnits="userSpaceOnUse" x1="254" y1="-136.916656" x2="254" y2="201.750015" gradientTransform="matrix(0.500166,0,0,0.500166,126.84243,26.662619)">
<stop offset="0" style="stop-color:rgb(81.176472%,84.705883%,86.274511%);stop-opacity:1;"/>
<stop offset="1" style="stop-color:rgb(69.01961%,74.509805%,77.254903%);stop-opacity:1;"/>
</linearGradient>
<linearGradient id="linear5" gradientUnits="userSpaceOnUse" x1="254" y1="-136.916656" x2="254" y2="201.75" gradientTransform="matrix(0.0156317,0,0,0.0156317,3.964204,7.552678)">
<stop offset="0" style="stop-color:rgb(81.176472%,84.705883%,86.274511%);stop-opacity:1;"/>
<stop offset="1" style="stop-color:rgb(69.01961%,74.509805%,77.254903%);stop-opacity:1;"/>
</linearGradient>
<linearGradient id="linear6" gradientUnits="userSpaceOnUse" x1="254" y1="-136.916656" x2="254" y2="201.75" gradientTransform="matrix(0.0156317,0,0,0.0156317,3.964204,7.552678)">
<stop offset="0" style="stop-color:rgb(81.176472%,84.705883%,86.274511%);stop-opacity:1;"/>
<stop offset="1" style="stop-color:rgb(69.01961%,74.509805%,77.254903%);stop-opacity:1;"/>
</linearGradient>
<linearGradient id="linear7" gradientUnits="userSpaceOnUse" x1="254" y1="-136.916656" x2="254" y2="201.75" gradientTransform="matrix(0.0156317,0,0,0.0156317,3.964204,7.552678)">
<stop offset="0" style="stop-color:rgb(81.176472%,84.705883%,86.274511%);stop-opacity:1;"/>
<stop offset="1" style="stop-color:rgb(69.01961%,74.509805%,77.254903%);stop-opacity:1;"/>
</linearGradient>
<linearGradient id="linear8" gradientUnits="userSpaceOnUse" x1="254" y1="-136.916656" x2="254" y2="201.750015" gradientTransform="matrix(0.0156317,0,0,0.0156317,3.964204,7.552678)">
<stop offset="0" style="stop-color:rgb(81.176472%,84.705883%,86.274511%);stop-opacity:1;"/>
<stop offset="1" style="stop-color:rgb(69.01961%,74.509805%,77.254903%);stop-opacity:1;"/>
</linearGradient>
</defs>
<g id="surface1">
<path style=" stroke:none;fill-rule:nonzero;fill:url(#linear0);" d="M 2.316406 14.054688 L 13.5625 14.054688 L 13.5625 14.679688 L 2.316406 14.679688 Z M 2.316406 14.054688 "/>
<path style=" stroke:none;fill-rule:nonzero;fill:url(#radial0);" d="M 13.5625 14.015625 L 14.882812 14.015625 L 14.882812 13.355469 L 13.5625 13.355469 Z M 13.5625 14.015625 "/>
<path style=" stroke:none;fill-rule:nonzero;fill:url(#radial1);" d="M 2.316406 14.015625 L 0.992188 14.015625 L 0.992188 14.679688 L 2.316406 14.679688 Z M 2.316406 14.015625 "/>
<path style=" stroke:none;fill-rule:nonzero;fill:url(#radial2);" d="M 2.316406 14.015625 L 0.992188 14.015625 L 0.992188 13.355469 L 2.316406 13.355469 Z M 2.316406 14.015625 "/>
<path style=" stroke:none;fill-rule:nonzero;fill:url(#radial3);" d="M 13.5625 14.015625 L 14.882812 14.015625 L 14.882812 14.679688 L 13.5625 14.679688 Z M 13.5625 14.015625 "/>
<path style=" stroke:none;fill-rule:nonzero;fill:rgb(100%,100%,100%);fill-opacity:0.588235;" d="M 7.933594 5.414062 C 6.882812 5.414062 5.980469 6.019531 5.550781 6.902344 L 5.617188 6.902344 C 6.070312 6.089844 6.9375 5.542969 7.933594 5.542969 C 8.933594 5.542969 9.800781 6.089844 10.25 6.902344 L 10.316406 6.902344 C 9.890625 6.019531 8.984375 5.414062 7.933594 5.414062 Z M 7.933594 5.414062 "/>
<path style=" stroke:none;fill-rule:nonzero;fill:url(#linear1);" d="M 1.652344 2.109375 L 14.222656 2.109375 C 14.589844 2.109375 14.882812 2.390625 14.882812 2.734375 L 14.882812 13.390625 C 14.882812 13.738281 14.589844 14.015625 14.222656 14.015625 L 1.652344 14.015625 C 1.289062 14.015625 0.992188 13.738281 0.992188 13.390625 L 0.992188 2.734375 C 0.992188 2.390625 1.289062 2.109375 1.652344 2.109375 Z M 1.652344 2.109375 "/>
<path style=" stroke:none;fill-rule:nonzero;fill:url(#linear2);" d="M 1.984375 2.769531 L 13.890625 2.769531 C 14.074219 2.769531 14.222656 2.917969 14.222656 3.101562 L 14.222656 13.023438 C 14.222656 13.207031 14.074219 13.355469 13.890625 13.355469 L 1.984375 13.355469 C 1.800781 13.355469 1.652344 13.207031 1.652344 13.023438 L 1.652344 3.101562 C 1.652344 2.917969 1.800781 2.769531 1.984375 2.769531 Z M 1.984375 2.769531 "/>
<path style=" stroke:none;fill-rule:nonzero;fill:rgb(0%,0%,0%);fill-opacity:0.235294;" d="M 7.265625 6.90625 L 6.597656 8.0625 L 6.667969 8.1875 L 7.265625 7.152344 L 8.601562 7.152344 L 9.199219 8.1875 L 9.273438 8.0625 L 8.601562 6.90625 Z M 10.578125 8.1875 C 10.578125 8.191406 10.578125 8.199219 10.578125 8.203125 C 10.578125 8.21875 10.578125 8.234375 10.574219 8.25 C 10.574219 8.253906 10.574219 8.257812 10.574219 8.261719 C 10.574219 8.28125 10.570312 8.300781 10.570312 8.320312 C 10.570312 8.324219 10.570312 8.328125 10.566406 8.332031 C 10.566406 8.347656 10.566406 8.363281 10.5625 8.378906 C 10.5625 8.386719 10.5625 8.390625 10.5625 8.398438 C 10.558594 8.414062 10.558594 8.425781 10.554688 8.441406 C 10.554688 8.445312 10.554688 8.453125 10.550781 8.457031 C 10.550781 8.472656 10.546875 8.492188 10.542969 8.507812 C 10.542969 8.511719 10.542969 8.511719 10.542969 8.515625 C 10.539062 8.535156 10.535156 8.554688 10.53125 8.570312 C 10.53125 8.578125 10.53125 8.582031 10.53125 8.589844 C 10.527344 8.601562 10.523438 8.617188 10.523438 8.628906 C 10.519531 8.636719 10.519531 8.640625 10.515625 8.648438 C 10.515625 8.660156 10.511719 8.675781 10.507812 8.6875 C 10.507812 8.695312 10.503906 8.699219 10.503906 8.703125 C 10.5 8.722656 10.496094 8.742188 10.488281 8.757812 C 10.488281 8.761719 10.488281 8.761719 10.488281 8.761719 C 10.484375 8.777344 10.480469 8.796875 10.472656 8.816406 C 10.472656 8.820312 10.472656 8.824219 10.46875 8.832031 C 10.464844 8.84375 10.460938 8.859375 10.457031 8.871094 C 10.457031 8.875 10.453125 8.882812 10.453125 8.886719 C 10.449219 8.902344 10.441406 8.914062 10.4375 8.925781 C 10.4375 8.933594 10.433594 8.9375 10.433594 8.941406 C 10.425781 8.960938 10.421875 8.976562 10.414062 8.996094 C 10.414062 9 10.410156 9.003906 10.410156 9.007812 C 10.40625 9.019531 10.398438 9.035156 10.394531 9.046875 C 10.390625 9.054688 10.390625 9.058594 10.386719 9.066406 C 10.382812 9.078125 10.378906 9.089844 10.371094 9.101562 C 10.371094 9.105469 10.367188 9.113281 10.363281 9.117188 C 10.359375 9.132812 10.351562 9.144531 10.347656 9.160156 C 10.34375 9.164062 10.34375 9.167969 10.339844 9.171875 C 10.335938 9.1875 10.328125 9.203125 10.316406 9.21875 C 10.316406 9.226562 10.3125 9.230469 10.3125 9.234375 C 10.3125 9.234375 10.308594 9.234375 10.308594 9.234375 C 10.308594 9.234375 10.308594 9.238281 10.308594 9.238281 C 10.304688 9.246094 10.300781 9.253906 10.296875 9.261719 C 10.296875 9.265625 10.292969 9.265625 10.292969 9.269531 C 10.289062 9.277344 10.289062 9.28125 10.285156 9.285156 C 10.277344 9.300781 10.273438 9.3125 10.265625 9.324219 C 10.261719 9.328125 10.261719 9.332031 10.257812 9.335938 C 10.257812 9.335938 10.257812 9.335938 10.257812 9.339844 C 10.253906 9.347656 10.25 9.355469 10.242188 9.363281 C 10.242188 9.367188 10.238281 9.371094 10.234375 9.378906 C 10.234375 9.378906 10.230469 9.382812 10.230469 9.386719 C 10.230469 9.386719 10.230469 9.386719 10.226562 9.390625 C 10.226562 9.394531 10.222656 9.398438 10.222656 9.398438 C 10.21875 9.40625 10.214844 9.414062 10.210938 9.417969 C 10.207031 9.421875 10.203125 9.429688 10.203125 9.433594 C 10.199219 9.4375 10.199219 9.441406 10.195312 9.445312 C 10.195312 9.449219 10.191406 9.453125 10.1875 9.457031 C 10.183594 9.464844 10.179688 9.472656 10.175781 9.476562 C 10.171875 9.480469 10.171875 9.484375 10.167969 9.488281 C 10.167969 9.492188 10.164062 9.492188 10.160156 9.496094 C 10.15625 9.503906 10.152344 9.511719 10.148438 9.515625 C 10.148438 9.523438 10.144531 9.527344 10.140625 9.53125 C 10.140625 9.53125 10.136719 9.535156 10.136719 9.535156 C 10.136719 9.539062 10.132812 9.539062 10.132812 9.542969 C 10.132812 9.546875 10.128906 9.546875 10.128906 9.546875 C 10.121094 9.558594 10.113281 9.570312 10.105469 9.582031 C 10.101562 9.589844 10.097656 9.59375 10.09375 9.601562 C 10.085938 9.613281 10.078125 9.621094 10.066406 9.632812 C 10.0625 9.640625 10.0625 9.644531 10.058594 9.648438 C 10.050781 9.660156 10.042969 9.671875 10.035156 9.679688 C 10.03125 9.683594 10.027344 9.6875 10.023438 9.691406 C 10.011719 9.707031 10.003906 9.71875 9.992188 9.730469 C 9.988281 9.738281 9.984375 9.742188 9.980469 9.746094 C 9.972656 9.757812 9.964844 9.765625 9.957031 9.773438 C 9.953125 9.78125 9.949219 9.785156 9.945312 9.789062 C 9.933594 9.800781 9.921875 9.816406 9.910156 9.828125 C 9.910156 9.832031 9.90625 9.832031 9.902344 9.835938 C 9.894531 9.847656 9.882812 9.855469 9.875 9.867188 C 9.871094 9.871094 9.867188 9.875 9.863281 9.882812 C 9.851562 9.890625 9.84375 9.902344 9.832031 9.910156 C 9.832031 9.914062 9.828125 9.917969 9.824219 9.917969 C 9.8125 9.933594 9.800781 9.945312 9.789062 9.957031 C 9.785156 9.960938 9.78125 9.964844 9.777344 9.96875 C 9.765625 9.976562 9.757812 9.988281 9.746094 9.996094 C 9.742188 10 9.738281 10.003906 9.734375 10.007812 C 9.722656 10.019531 9.710938 10.03125 9.699219 10.039062 C 9.695312 10.042969 9.691406 10.046875 9.6875 10.050781 C 9.675781 10.058594 9.667969 10.066406 9.65625 10.078125 C 9.652344 10.082031 9.648438 10.085938 9.644531 10.089844 C 9.628906 10.097656 9.617188 10.109375 9.601562 10.121094 C 9.601562 10.125 9.597656 10.125 9.597656 10.125 C 9.585938 10.136719 9.574219 10.144531 9.5625 10.15625 C 9.554688 10.160156 9.550781 10.160156 9.546875 10.164062 C 9.535156 10.175781 9.523438 10.183594 9.511719 10.191406 C 9.507812 10.195312 9.507812 10.195312 9.503906 10.199219 C 9.488281 10.207031 9.476562 10.21875 9.460938 10.226562 C 9.457031 10.230469 9.453125 10.234375 9.449219 10.238281 C 9.4375 10.246094 9.425781 10.253906 9.414062 10.261719 C 9.410156 10.265625 9.40625 10.265625 9.402344 10.269531 C 9.386719 10.277344 9.371094 10.289062 9.359375 10.296875 C 9.355469 10.300781 9.351562 10.300781 9.347656 10.304688 C 9.335938 10.3125 9.324219 10.320312 9.3125 10.328125 C 9.304688 10.328125 9.300781 10.332031 9.296875 10.335938 C 9.28125 10.34375 9.265625 10.355469 9.25 10.363281 C 9.234375 10.371094 9.21875 10.382812 9.203125 10.390625 C 9.199219 10.390625 9.195312 10.394531 9.1875 10.398438 C 9.175781 10.402344 9.164062 10.410156 9.148438 10.417969 C 9.148438 10.417969 9.144531 10.421875 9.140625 10.421875 C 9.125 10.429688 9.109375 10.4375 9.09375 10.445312 C 9.085938 10.449219 9.082031 10.449219 9.078125 10.453125 C 9.066406 10.457031 9.054688 10.464844 9.039062 10.472656 C 9.035156 10.472656 9.03125 10.476562 9.027344 10.476562 C 9.011719 10.484375 8.992188 10.492188 8.976562 10.5 C 8.976562 10.5 8.972656 10.5 8.96875 10.5 C 8.957031 10.507812 8.941406 10.515625 8.925781 10.519531 C 8.921875 10.523438 8.917969 10.523438 8.910156 10.527344 C 8.894531 10.53125 8.882812 10.539062 8.867188 10.542969 C 8.863281 10.542969 8.863281 10.542969 8.859375 10.546875 C 8.84375 10.550781 8.824219 10.558594 8.808594 10.5625 C 8.804688 10.566406 8.800781 10.566406 8.792969 10.570312 C 8.78125 10.574219 8.765625 10.578125 8.75 10.582031 C 8.746094 10.585938 8.742188 10.585938 8.738281 10.585938 C 8.722656 10.59375 8.703125 10.597656 8.6875 10.601562 C 8.683594 10.605469 8.679688 10.605469 8.675781 10.605469 C 8.660156 10.609375 8.648438 10.613281 8.632812 10.617188 C 8.628906 10.621094 8.621094 10.621094 8.617188 10.621094 C 8.597656 10.628906 8.582031 10.632812 8.5625 10.636719 C 8.5625 10.636719 8.558594 10.636719 8.558594 10.636719 C 8.542969 10.640625 8.523438 10.644531 8.507812 10.648438 C 8.503906 10.648438 8.5 10.652344 8.492188 10.652344 C 8.476562 10.65625 8.460938 10.660156 8.445312 10.660156 C 8.441406 10.664062 8.441406 10.664062 8.4375 10.664062 C 8.417969 10.667969 8.402344 10.671875 8.382812 10.671875 C 8.378906 10.675781 8.371094 10.675781 8.367188 10.675781 C 8.351562 10.679688 8.335938 10.679688 8.324219 10.683594 C 8.316406 10.683594 8.3125 10.683594 8.308594 10.683594 C 8.289062 10.6875 8.273438 10.691406 8.253906 10.691406 C 8.25 10.691406 8.246094 10.691406 8.242188 10.691406 C 8.226562 10.695312 8.210938 10.695312 8.195312 10.699219 C 8.191406 10.699219 8.183594 10.699219 8.179688 10.699219 C 8.160156 10.699219 8.140625 10.703125 8.121094 10.703125 C 8.058594 10.707031 7.996094 10.710938 7.933594 10.710938 C 7.019531 10.710938 6.214844 10.25 5.742188 9.546875 C 5.738281 9.546875 5.738281 9.546875 5.738281 9.546875 C 5.738281 9.542969 5.738281 9.542969 5.734375 9.539062 C 5.726562 9.527344 5.714844 9.511719 5.707031 9.5 C 5.703125 9.492188 5.699219 9.488281 5.699219 9.484375 C 5.691406 9.472656 5.683594 9.460938 5.675781 9.449219 C 5.671875 9.445312 5.671875 9.4375 5.667969 9.433594 C 5.65625 9.417969 5.648438 9.402344 5.636719 9.382812 C 5.636719 9.382812 5.636719 9.378906 5.632812 9.375 C 5.625 9.363281 5.617188 9.347656 5.609375 9.332031 C 5.605469 9.328125 5.605469 9.324219 5.601562 9.316406 C 5.59375 9.304688 5.589844 9.292969 5.582031 9.28125 C 5.578125 9.277344 5.578125 9.269531 5.574219 9.265625 C 5.566406 9.25 5.558594 9.230469 5.546875 9.214844 C 5.546875 9.210938 5.546875 9.207031 5.542969 9.207031 C 5.539062 9.191406 5.53125 9.175781 5.523438 9.160156 C 5.519531 9.15625 5.519531 9.148438 5.515625 9.144531 C 5.511719 9.132812 5.503906 9.121094 5.5 9.109375 C 5.496094 9.101562 5.496094 9.09375 5.492188 9.089844 C 5.484375 9.070312 5.476562 9.054688 5.472656 9.039062 C 5.46875 9.035156 5.46875 9.03125 5.46875 9.03125 C 5.460938 9.015625 5.457031 9 5.449219 8.984375 C 5.449219 8.976562 5.445312 8.972656 5.445312 8.964844 C 5.4375 8.953125 5.433594 8.9375 5.429688 8.925781 C 5.429688 8.917969 5.425781 8.914062 5.425781 8.910156 C 5.417969 8.890625 5.414062 8.871094 5.40625 8.851562 C 5.40625 8.851562 5.40625 8.851562 5.40625 8.847656 C 5.398438 8.832031 5.394531 8.8125 5.390625 8.796875 C 5.386719 8.792969 5.386719 8.785156 5.386719 8.78125 C 5.382812 8.765625 5.378906 8.75 5.375 8.738281 C 5.371094 8.730469 5.371094 8.726562 5.371094 8.722656 C 5.363281 8.703125 5.359375 8.683594 5.355469 8.664062 C 5.355469 8.664062 5.355469 8.660156 5.355469 8.660156 C 5.351562 8.640625 5.347656 8.625 5.34375 8.605469 C 5.339844 8.59375 5.335938 8.582031 5.335938 8.566406 C 5.332031 8.550781 5.328125 8.539062 5.328125 8.523438 C 5.328125 8.519531 5.324219 8.515625 5.324219 8.511719 C 5.324219 8.496094 5.320312 8.484375 5.316406 8.46875 C 5.316406 8.453125 5.3125 8.441406 5.3125 8.425781 C 5.3125 8.421875 5.3125 8.417969 5.308594 8.414062 C 5.304688 8.382812 5.304688 8.355469 5.300781 8.324219 C 5.300781 8.320312 5.300781 8.316406 5.300781 8.3125 C 5.296875 8.296875 5.296875 8.285156 5.296875 8.269531 C 5.292969 8.253906 5.292969 8.238281 5.292969 8.222656 C 5.292969 8.21875 5.292969 8.214844 5.292969 8.210938 C 5.292969 8.203125 5.289062 8.195312 5.289062 8.1875 C 5.289062 8.195312 5.289062 8.199219 5.289062 8.207031 C 5.289062 8.207031 5.289062 8.210938 5.289062 8.210938 C 5.289062 8.226562 5.289062 8.238281 5.289062 8.253906 C 5.289062 8.257812 5.289062 8.261719 5.289062 8.265625 C 5.289062 8.28125 5.289062 8.296875 5.289062 8.3125 C 5.289062 8.328125 5.289062 8.339844 5.289062 8.355469 C 5.289062 8.359375 5.289062 8.367188 5.289062 8.371094 C 5.289062 8.386719 5.289062 8.398438 5.289062 8.414062 C 5.289062 8.414062 5.289062 8.417969 5.289062 8.417969 C 5.289062 8.429688 5.289062 8.445312 5.292969 8.460938 C 5.292969 8.464844 5.292969 8.46875 5.292969 8.472656 C 5.292969 8.488281 5.292969 8.5 5.296875 8.515625 C 5.296875 8.53125 5.296875 8.546875 5.300781 8.5625 C 5.300781 8.566406 5.300781 8.570312 5.300781 8.570312 C 5.304688 8.601562 5.304688 8.632812 5.308594 8.660156 C 5.3125 8.664062 5.3125 8.667969 5.3125 8.671875 C 5.3125 8.6875 5.316406 8.703125 5.316406 8.714844 C 5.316406 8.714844 5.316406 8.71875 5.316406 8.71875 C 5.320312 8.730469 5.324219 8.746094 5.324219 8.761719 C 5.324219 8.765625 5.328125 8.769531 5.328125 8.769531 C 5.328125 8.785156 5.332031 8.800781 5.335938 8.816406 C 5.335938 8.828125 5.339844 8.839844 5.34375 8.855469 C 5.347656 8.871094 5.351562 8.890625 5.355469 8.90625 C 5.355469 8.910156 5.355469 8.910156 5.355469 8.910156 C 5.359375 8.929688 5.363281 8.949219 5.371094 8.96875 C 5.371094 8.972656 5.371094 8.980469 5.375 8.984375 C 5.378906 9 5.382812 9.011719 5.386719 9.027344 C 5.386719 9.035156 5.386719 9.039062 5.390625 9.042969 C 5.394531 9.0625 5.398438 9.078125 5.40625 9.097656 C 5.40625 9.097656 5.40625 9.097656 5.40625 9.101562 C 5.414062 9.121094 5.417969 9.136719 5.425781 9.15625 C 5.425781 9.164062 5.429688 9.167969 5.429688 9.171875 C 5.433594 9.1875 5.4375 9.199219 5.445312 9.214844 C 5.445312 9.21875 5.449219 9.226562 5.449219 9.230469 C 5.457031 9.246094 5.460938 9.261719 5.46875 9.277344 C 5.46875 9.28125 5.46875 9.28125 5.472656 9.285156 C 5.476562 9.304688 5.484375 9.320312 5.492188 9.335938 C 5.496094 9.34375 5.496094 9.351562 5.5 9.355469 C 5.503906 9.367188 5.511719 9.378906 5.515625 9.390625 C 5.519531 9.398438 5.519531 9.402344 5.523438 9.410156 C 5.53125 9.425781 5.539062 9.4375 5.542969 9.453125 C 5.546875 9.457031 5.546875 9.460938 5.546875 9.460938 C 5.558594 9.480469 5.566406 9.496094 5.574219 9.511719 C 5.578125 9.519531 5.578125 9.523438 5.582031 9.53125 C 5.589844 9.542969 5.59375 9.554688 5.601562 9.566406 C 5.605469 9.570312 5.605469 9.578125 5.609375 9.582031 C 5.617188 9.597656 5.625 9.609375 5.632812 9.625 C 5.636719 9.628906 5.636719 9.628906 5.636719 9.632812 C 5.648438 9.648438 5.65625 9.664062 5.667969 9.679688 C 5.671875 9.6875 5.671875 9.691406 5.675781 9.695312 C 5.683594 9.707031 5.691406 9.71875 5.699219 9.730469 C 5.699219 9.738281 5.703125 9.742188 5.707031 9.746094 C 5.714844 9.761719 5.726562 9.773438 5.734375 9.789062 C 5.738281 9.789062 5.738281 9.792969 5.738281 9.792969 C 5.738281 9.796875 5.738281 9.796875 5.742188 9.796875 C 6.214844 10.5 7.019531 10.957031 7.933594 10.957031 C 7.996094 10.957031 8.058594 10.957031 8.121094 10.953125 C 8.140625 10.949219 8.160156 10.949219 8.179688 10.949219 C 8.183594 10.945312 8.191406 10.945312 8.195312 10.945312 C 8.210938 10.945312 8.226562 10.941406 8.242188 10.941406 C 8.246094 10.941406 8.25 10.941406 8.253906 10.941406 C 8.273438 10.9375 8.289062 10.933594 8.308594 10.933594 C 8.3125 10.933594 8.316406 10.929688 8.324219 10.929688 C 8.335938 10.929688 8.351562 10.925781 8.367188 10.921875 C 8.371094 10.921875 8.378906 10.921875 8.382812 10.921875 C 8.402344 10.917969 8.417969 10.914062 8.4375 10.910156 C 8.441406 10.910156 8.441406 10.910156 8.445312 10.910156 C 8.460938 10.90625 8.476562 10.902344 8.492188 10.898438 C 8.5 10.898438 8.503906 10.898438 8.507812 10.898438 C 8.523438 10.894531 8.542969 10.890625 8.558594 10.886719 C 8.558594 10.886719 8.5625 10.882812 8.5625 10.882812 C 8.582031 10.878906 8.597656 10.875 8.617188 10.871094 C 8.621094 10.867188 8.628906 10.867188 8.632812 10.867188 C 8.648438 10.863281 8.660156 10.859375 8.675781 10.855469 C 8.679688 10.851562 8.683594 10.851562 8.6875 10.851562 C 8.703125 10.847656 8.722656 10.839844 8.738281 10.835938 C 8.742188 10.832031 8.746094 10.832031 8.75 10.832031 C 8.765625 10.828125 8.78125 10.820312 8.792969 10.816406 C 8.800781 10.816406 8.804688 10.8125 8.808594 10.8125 C 8.824219 10.804688 8.84375 10.800781 8.859375 10.792969 C 8.863281 10.792969 8.863281 10.792969 8.867188 10.792969 C 8.882812 10.785156 8.894531 10.78125 8.910156 10.773438 C 8.917969 10.773438 8.921875 10.769531 8.925781 10.769531 C 8.941406 10.761719 8.957031 10.757812 8.96875 10.75 C 8.972656 10.75 8.976562 10.746094 8.976562 10.746094 C 8.992188 10.738281 9.011719 10.730469 9.027344 10.726562 C 9.03125 10.722656 9.035156 10.722656 9.039062 10.71875 C 9.054688 10.714844 9.066406 10.707031 9.078125 10.699219 C 9.082031 10.699219 9.085938 10.695312 9.09375 10.695312 C 9.109375 10.6875 9.125 10.679688 9.140625 10.671875 C 9.144531 10.667969 9.148438 10.667969 9.148438 10.664062 C 9.164062 10.660156 9.175781 10.652344 9.1875 10.644531 C 9.195312 10.640625 9.199219 10.640625 9.203125 10.636719 C 9.21875 10.628906 9.234375 10.621094 9.25 10.613281 C 9.25 10.613281 9.25 10.613281 9.25 10.609375 C 9.265625 10.601562 9.28125 10.59375 9.296875 10.585938 C 9.300781 10.582031 9.304688 10.578125 9.3125 10.574219 C 9.324219 10.566406 9.335938 10.558594 9.347656 10.550781 C 9.351562 10.550781 9.355469 10.546875 9.359375 10.546875 C 9.371094 10.535156 9.386719 10.527344 9.402344 10.515625 C 9.40625 10.515625 9.410156 10.511719 9.414062 10.507812 C 9.425781 10.5 9.4375 10.496094 9.449219 10.488281 C 9.453125 10.484375 9.457031 10.480469 9.460938 10.476562 C 9.476562 10.464844 9.488281 10.457031 9.503906 10.445312 C 9.507812 10.445312 9.507812 10.441406 9.511719 10.441406 C 9.523438 10.429688 9.535156 10.421875 9.546875 10.414062 C 9.550781 10.410156 9.554688 10.40625 9.5625 10.402344 C 9.574219 10.394531 9.585938 10.382812 9.597656 10.375 C 9.597656 10.371094 9.601562 10.371094 9.601562 10.371094 C 9.617188 10.359375 9.628906 10.347656 9.644531 10.335938 C 9.648438 10.332031 9.652344 10.328125 9.65625 10.324219 C 9.667969 10.316406 9.675781 10.308594 9.6875 10.300781 C 9.691406 10.296875 9.695312 10.292969 9.699219 10.289062 C 9.710938 10.277344 9.722656 10.265625 9.734375 10.253906 C 9.738281 10.25 9.742188 10.246094 9.746094 10.242188 C 9.757812 10.234375 9.765625 10.226562 9.777344 10.214844 C 9.78125 10.210938 9.785156 10.207031 9.789062 10.203125 C 9.800781 10.191406 9.8125 10.179688 9.824219 10.167969 C 9.828125 10.164062 9.832031 10.164062 9.832031 10.160156 C 9.84375 10.148438 9.851562 10.140625 9.863281 10.128906 C 9.867188 10.125 9.871094 10.121094 9.875 10.117188 C 9.882812 10.105469 9.894531 10.09375 9.902344 10.085938 C 9.90625 10.082031 9.910156 10.078125 9.910156 10.074219 C 9.921875 10.0625 9.933594 10.050781 9.945312 10.035156 C 9.949219 10.03125 9.953125 10.027344 9.957031 10.023438 C 9.964844 10.015625 9.972656 10.003906 9.980469 9.996094 C 9.984375 9.988281 9.988281 9.984375 9.992188 9.980469 C 10.003906 9.96875 10.011719 9.953125 10.023438 9.941406 C 10.027344 9.9375 10.03125 9.933594 10.035156 9.929688 C 10.042969 9.917969 10.050781 9.90625 10.058594 9.898438 C 10.0625 9.890625 10.0625 9.886719 10.066406 9.882812 C 10.078125 9.871094 10.085938 9.859375 10.09375 9.847656 C 10.097656 9.84375 10.101562 9.835938 10.105469 9.832031 C 10.113281 9.820312 10.121094 9.808594 10.128906 9.796875 C 10.128906 9.792969 10.132812 9.792969 10.132812 9.792969 C 10.132812 9.789062 10.136719 9.785156 10.136719 9.78125 C 10.136719 9.78125 10.140625 9.78125 10.140625 9.78125 C 10.144531 9.773438 10.148438 9.769531 10.148438 9.765625 C 10.152344 9.757812 10.15625 9.753906 10.160156 9.746094 C 10.164062 9.742188 10.167969 9.738281 10.167969 9.734375 C 10.171875 9.730469 10.171875 9.730469 10.175781 9.726562 C 10.179688 9.71875 10.183594 9.710938 10.1875 9.703125 C 10.191406 9.699219 10.195312 9.695312 10.195312 9.691406 C 10.199219 9.6875 10.199219 9.683594 10.203125 9.683594 C 10.203125 9.675781 10.207031 9.671875 10.210938 9.667969 C 10.214844 9.660156 10.21875 9.652344 10.222656 9.648438 C 10.222656 9.644531 10.226562 9.640625 10.226562 9.636719 C 10.230469 9.636719 10.230469 9.636719 10.230469 9.632812 C 10.230469 9.632812 10.234375 9.628906 10.234375 9.625 C 10.238281 9.621094 10.242188 9.617188 10.242188 9.609375 C 10.25 9.601562 10.253906 9.59375 10.257812 9.585938 C 10.257812 9.585938 10.257812 9.585938 10.257812 9.582031 C 10.261719 9.578125 10.261719 9.574219 10.265625 9.570312 C 10.273438 9.558594 10.277344 9.546875 10.285156 9.535156 C 10.289062 9.53125 10.289062 9.523438 10.292969 9.519531 C 10.292969 9.515625 10.296875 9.511719 10.296875 9.507812 C 10.300781 9.5 10.304688 9.492188 10.308594 9.484375 C 10.308594 9.484375 10.3125 9.484375 10.3125 9.484375 C 10.3125 9.476562 10.316406 9.472656 10.316406 9.46875 C 10.328125 9.449219 10.335938 9.433594 10.339844 9.417969 C 10.34375 9.414062 10.34375 9.410156 10.347656 9.40625 C 10.351562 9.394531 10.359375 9.378906 10.363281 9.367188 C 10.367188 9.359375 10.371094 9.355469 10.371094 9.347656 C 10.378906 9.335938 10.382812 9.324219 10.386719 9.3125 C 10.390625 9.308594 10.390625 9.300781 10.394531 9.296875 C 10.398438 9.28125 10.40625 9.269531 10.410156 9.253906 C 10.410156 9.25 10.414062 9.246094 10.414062 9.242188 C 10.421875 9.226562 10.425781 9.207031 10.433594 9.191406 C 10.433594 9.1875 10.4375 9.179688 10.4375 9.175781 C 10.441406 9.164062 10.449219 9.148438 10.453125 9.136719 C 10.453125 9.128906 10.457031 9.125 10.457031 9.117188 C 10.460938 9.105469 10.464844 9.09375 10.46875 9.078125 C 10.472656 9.074219 10.472656 9.066406 10.472656 9.0625 C 10.480469 9.042969 10.484375 9.027344 10.488281 9.007812 C 10.496094 8.988281 10.5 8.972656 10.503906 8.953125 C 10.503906 8.945312 10.507812 8.941406 10.507812 8.9375 C 10.511719 8.921875 10.515625 8.910156 10.515625 8.898438 C 10.519531 8.890625 10.519531 8.882812 10.523438 8.875 C 10.523438 8.863281 10.527344 8.851562 10.53125 8.835938 C 10.53125 8.832031 10.53125 8.824219 10.53125 8.820312 C 10.535156 8.800781 10.539062 8.78125 10.542969 8.761719 C 10.542969 8.761719 10.542969 8.757812 10.542969 8.753906 C 10.546875 8.738281 10.550781 8.722656 10.550781 8.707031 C 10.554688 8.699219 10.554688 8.695312 10.554688 8.6875 C 10.558594 8.675781 10.558594 8.660156 10.5625 8.648438 C 10.5625 8.640625 10.5625 8.632812 10.5625 8.628906 C 10.566406 8.613281 10.566406 8.597656 10.566406 8.582031 C 10.570312 8.578125 10.570312 8.574219 10.570312 8.570312 C 10.570312 8.550781 10.574219 8.53125 10.574219 8.511719 C 10.574219 8.507812 10.574219 8.5 10.574219 8.496094 C 10.578125 8.480469 10.578125 8.464844 10.578125 8.453125 C 10.578125 8.445312 10.578125 8.4375 10.578125 8.433594 C 10.578125 8.417969 10.578125 8.402344 10.582031 8.390625 C 10.582031 8.382812 10.582031 8.378906 10.582031 8.371094 C 10.582031 8.351562 10.582031 8.332031 10.582031 8.3125 C 10.582031 8.296875 10.582031 8.28125 10.582031 8.265625 C 10.582031 8.261719 10.582031 8.257812 10.582031 8.253906 C 10.582031 8.238281 10.582031 8.222656 10.578125 8.210938 C 10.578125 8.207031 10.578125 8.207031 10.578125 8.207031 C 10.578125 8.199219 10.578125 8.195312 10.578125 8.1875 Z M 10.578125 8.1875 "/>
<path style=" stroke:none;fill-rule:nonzero;fill:rgb(100%,100%,100%);fill-opacity:0.588235;" d="M 1.652344 2.109375 C 1.289062 2.109375 0.992188 2.386719 0.992188 2.734375 L 0.992188 2.898438 C 0.992188 2.554688 1.289062 2.273438 1.652344 2.273438 L 14.222656 2.273438 C 14.589844 2.273438 14.882812 2.554688 14.882812 2.898438 L 14.882812 2.734375 C 14.882812 2.386719 14.589844 2.109375 14.222656 2.109375 Z M 1.652344 2.109375 "/>
<path style=" stroke:none;fill-rule:nonzero;fill:rgb(0%,0%,0%);fill-opacity:0.235294;" d="M 1.652344 14.023438 C 1.289062 14.023438 0.992188 13.742188 0.992188 13.398438 L 0.992188 13.230469 C 0.992188 13.578125 1.289062 13.855469 1.652344 13.855469 L 14.222656 13.855469 C 14.589844 13.855469 14.882812 13.578125 14.882812 13.230469 L 14.882812 13.398438 C 14.882812 13.742188 14.589844 14.023438 14.222656 14.023438 Z M 1.652344 14.023438 "/>
<path style="fill:none;stroke-width:3;stroke-linecap:round;stroke-linejoin:miter;stroke:rgb(12.941177%,12.941177%,12.941177%);stroke-opacity:1;stroke-miterlimit:4;" d="M 52.869951 -147.506445 L 455.081542 -147.506445 C 466.83042 -147.506445 476.204525 -138.507305 476.204525 -127.508355 L 476.204525 213.459084 C 476.204525 224.583022 466.83042 233.457174 455.081542 233.457174 L 52.869951 233.457174 C 41.246061 233.457174 31.746968 224.583022 31.746968 213.459084 L 31.746968 -127.508355 C 31.746968 -138.507305 41.246061 -147.506445 52.869951 -147.506445 Z M 52.869951 -147.506445 " transform="matrix(0.031253,0,0,0.031253,0,6.719392)"/>
<path style=" stroke:none;fill-rule:nonzero;fill:rgb(0%,0%,0%);fill-opacity:0.235294;" d="M 1.984375 2.8125 C 1.800781 2.8125 1.652344 2.960938 1.652344 3.144531 L 1.652344 3.265625 C 1.652344 3.085938 1.800781 2.9375 1.984375 2.9375 L 13.890625 2.9375 C 14.074219 2.9375 14.222656 3.085938 14.222656 3.265625 L 14.222656 3.144531 C 14.222656 2.960938 14.074219 2.8125 13.890625 2.8125 Z M 1.984375 2.8125 "/>
<path style=" stroke:none;fill-rule:nonzero;fill:rgb(100%,100%,100%);fill-opacity:0.588235;" d="M 1.984375 13.523438 C 1.800781 13.523438 1.652344 13.375 1.652344 13.195312 L 1.652344 13.070312 C 1.652344 13.253906 1.800781 13.398438 1.984375 13.398438 L 13.890625 13.398438 C 14.074219 13.398438 14.222656 13.253906 14.222656 13.070312 L 14.222656 13.195312 C 14.222656 13.375 14.074219 13.523438 13.890625 13.523438 Z M 1.984375 13.523438 "/>
<path style="fill:none;stroke-width:3;stroke-linecap:round;stroke-linejoin:round;stroke:rgb(12.941177%,12.941177%,12.941177%);stroke-opacity:1;stroke-miterlimit:4;" d="M 63.493937 -126.383462 L 444.457556 -126.383462 C 450.331995 -126.383462 455.081542 -121.633916 455.081542 -115.759477 L 455.081542 201.710206 C 455.081542 207.584645 450.331995 212.334192 444.457556 212.334192 L 63.493937 212.334192 C 57.619498 212.334192 52.869951 207.584645 52.869951 201.710206 L 52.869951 -115.759477 C 52.869951 -121.633916 57.619498 -126.383462 63.493937 -126.383462 Z M 63.493937 -126.383462 " transform="matrix(0.031253,0,0,0.031253,0,6.719392)"/>
<path style=" stroke:none;fill-rule:nonzero;fill:rgb(100%,100%,100%);fill-opacity:0.0784314;" d="M 1.984375 2.769531 C 1.800781 2.769531 1.652344 2.917969 1.652344 3.101562 L 1.652344 5.785156 C 5.347656 5.324219 9.199219 5.078125 13.164062 5.078125 C 13.519531 5.078125 13.871094 5.082031 14.222656 5.085938 L 14.222656 3.101562 C 14.222656 2.917969 14.074219 2.769531 13.890625 2.769531 Z M 1.984375 2.769531 "/>
<path style=" stroke:none;fill-rule:nonzero;fill:url(#linear3);" d="M 5.742188 6.574219 C 5.453125 6.996094 5.289062 7.507812 5.289062 8.058594 C 5.289062 9.527344 6.46875 10.707031 7.933594 10.707031 C 7.996094 10.707031 8.058594 10.703125 8.121094 10.699219 Z M 5.742188 6.574219 "/>
<path style=" stroke:none;fill-rule:nonzero;fill:rgb(100%,100%,100%);fill-opacity:0.588235;" d="M 5.742188 6.574219 C 5.453125 6.996094 5.289062 7.507812 5.289062 8.058594 C 5.289062 8.082031 5.289062 8.101562 5.289062 8.125 C 5.300781 7.597656 5.464844 7.109375 5.742188 6.703125 L 8.050781 10.703125 C 8.074219 10.703125 8.097656 10.703125 8.121094 10.699219 Z M 5.742188 6.574219 "/>
<path style="fill:none;stroke-width:3;stroke-linecap:round;stroke-linejoin:miter;stroke:rgb(12.941177%,12.941177%,12.941177%);stroke-opacity:1;stroke-miterlimit:4;" d="M 183.732454 -4.645088 C 174.483338 8.853623 169.233839 25.227059 169.233839 42.850377 C 169.233839 89.845889 206.980234 127.592284 253.850758 127.592284 C 255.850567 127.592284 257.850377 127.467296 259.850186 127.342308 Z M 183.732454 -4.645088 " transform="matrix(0.031253,0,0,0.031253,0,6.719392)"/>
<path style="fill-rule:nonzero;fill:url(#linear4);stroke-width:3;stroke-linecap:round;stroke-linejoin:miter;stroke:rgb(12.941177%,12.941177%,12.941177%);stroke-opacity:1;stroke-miterlimit:4;" d="M 253.850758 -41.766543 C 206.980234 -41.766543 169.233839 -4.020148 169.233839 42.850377 C 169.233839 60.473694 174.483338 76.84713 183.732454 90.345841 L 259.850186 -41.641555 C 257.850377 -41.766543 255.850567 -41.766543 253.850758 -41.766543 Z M 253.850758 -41.766543 " transform="matrix(0.031253,0,0,0.031253,0,6.719392)"/>
<path style=" stroke:none;fill-rule:nonzero;fill:url(#linear5);" d="M 7.933594 5.414062 C 6.882812 5.414062 5.980469 6.019531 5.550781 6.902344 L 10.316406 6.902344 C 9.890625 6.019531 8.984375 5.414062 7.933594 5.414062 Z M 7.933594 5.414062 "/>
<path style=" stroke:none;fill-rule:nonzero;fill:rgb(100%,100%,100%);fill-opacity:0.588235;" d="M 7.933594 5.414062 C 6.882812 5.414062 5.980469 6.019531 5.550781 6.902344 L 5.617188 6.902344 C 6.070312 6.089844 6.9375 5.542969 7.933594 5.542969 C 8.933594 5.542969 9.800781 6.089844 10.25 6.902344 L 10.316406 6.902344 C 9.890625 6.019531 8.984375 5.414062 7.933594 5.414062 Z M 7.933594 5.414062 "/>
<path style="fill:none;stroke-width:3;stroke-linecap:round;stroke-linejoin:miter;stroke:rgb(12.941177%,12.941177%,12.941177%);stroke-opacity:1;stroke-miterlimit:4;" d="M 253.850758 -41.766543 C 220.228969 -41.766543 191.356726 -22.393393 177.608039 5.85391 L 330.093478 5.85391 C 316.469779 -22.393393 287.472548 -41.766543 253.850758 -41.766543 Z M 253.850758 -41.766543 " transform="matrix(0.031253,0,0,0.031253,0,6.719392)"/>
<path style=" stroke:none;fill-rule:nonzero;fill:url(#linear6);" d="M 7.933594 5.414062 C 7.871094 5.414062 7.808594 5.414062 7.746094 5.417969 L 10.128906 9.542969 C 10.414062 9.121094 10.582031 8.609375 10.582031 8.058594 C 10.582031 6.59375 9.402344 5.414062 7.933594 5.414062 Z M 7.933594 5.414062 "/>
<path style=" stroke:none;fill-rule:nonzero;fill:rgb(100%,100%,100%);fill-opacity:0.588235;" d="M 7.933594 5.414062 C 7.917969 5.414062 7.902344 5.414062 7.886719 5.414062 C 7.875 5.414062 7.863281 5.414062 7.847656 5.414062 C 7.847656 5.414062 7.84375 5.414062 7.839844 5.414062 C 7.824219 5.414062 7.8125 5.414062 7.796875 5.414062 C 7.796875 5.417969 7.792969 5.417969 7.792969 5.417969 C 7.78125 5.417969 7.765625 5.417969 7.753906 5.417969 C 7.75 5.417969 7.75 5.417969 7.746094 5.417969 L 7.820312 5.542969 C 7.859375 5.542969 7.894531 5.542969 7.933594 5.542969 C 8.933594 5.542969 9.800781 6.089844 10.25 6.902344 L 10.316406 6.902344 C 10.308594 6.886719 10.304688 6.871094 10.296875 6.859375 C 10.292969 6.851562 10.289062 6.84375 10.285156 6.839844 C 10.28125 6.828125 10.273438 6.816406 10.269531 6.808594 C 10.265625 6.800781 10.261719 6.792969 10.257812 6.785156 C 10.253906 6.777344 10.246094 6.765625 10.238281 6.753906 C 10.234375 6.746094 10.230469 6.734375 10.222656 6.726562 C 10.21875 6.714844 10.210938 6.703125 10.203125 6.695312 C 10.199219 6.6875 10.195312 6.679688 10.191406 6.671875 C 10.1875 6.664062 10.179688 6.652344 10.171875 6.644531 C 10.167969 6.636719 10.164062 6.632812 10.160156 6.625 C 10.152344 6.609375 10.144531 6.597656 10.132812 6.582031 C 10.128906 6.578125 10.125 6.570312 10.121094 6.566406 C 10.117188 6.554688 10.109375 6.546875 10.101562 6.535156 C 10.097656 6.53125 10.09375 6.523438 10.089844 6.515625 C 10.082031 6.503906 10.070312 6.492188 10.0625 6.484375 C 10.0625 6.480469 10.058594 6.476562 10.054688 6.472656 C 10.054688 6.472656 10.054688 6.472656 10.054688 6.46875 C 10.042969 6.457031 10.035156 6.441406 10.023438 6.429688 C 10.019531 6.425781 10.015625 6.417969 10.011719 6.414062 C 10.003906 6.402344 9.996094 6.394531 9.988281 6.386719 C 9.984375 6.378906 9.980469 6.375 9.972656 6.367188 C 9.964844 6.355469 9.953125 6.339844 9.941406 6.328125 C 9.9375 6.324219 9.933594 6.320312 9.929688 6.316406 C 9.921875 6.304688 9.910156 6.296875 9.902344 6.285156 C 9.898438 6.28125 9.894531 6.277344 9.890625 6.269531 C 9.878906 6.261719 9.871094 6.25 9.859375 6.238281 C 9.855469 6.234375 9.855469 6.234375 9.851562 6.230469 C 9.839844 6.214844 9.824219 6.203125 9.8125 6.191406 C 9.808594 6.1875 9.804688 6.183594 9.796875 6.175781 C 9.789062 6.167969 9.78125 6.160156 9.773438 6.152344 C 9.765625 6.144531 9.761719 6.140625 9.757812 6.136719 C 9.746094 6.125 9.730469 6.113281 9.71875 6.101562 C 9.714844 6.097656 9.710938 6.09375 9.707031 6.089844 C 9.695312 6.082031 9.6875 6.070312 9.675781 6.0625 C 9.671875 6.058594 9.667969 6.054688 9.660156 6.050781 C 9.652344 6.042969 9.640625 6.03125 9.628906 6.023438 C 9.625 6.019531 9.621094 6.015625 9.617188 6.011719 C 9.605469 6.003906 9.589844 5.992188 9.578125 5.980469 C 9.570312 5.976562 9.566406 5.972656 9.5625 5.96875 C 9.550781 5.960938 9.539062 5.953125 9.53125 5.945312 C 9.523438 5.941406 9.519531 5.9375 9.515625 5.933594 C 9.5 5.921875 9.484375 5.910156 9.472656 5.902344 C 9.46875 5.898438 9.464844 5.894531 9.460938 5.894531 C 9.449219 5.886719 9.4375 5.875 9.425781 5.867188 C 9.417969 5.867188 9.414062 5.863281 9.410156 5.859375 C 9.394531 5.851562 9.382812 5.839844 9.371094 5.832031 C 9.367188 5.832031 9.363281 5.828125 9.359375 5.828125 C 9.34375 5.816406 9.328125 5.808594 9.3125 5.796875 C 9.308594 5.792969 9.304688 5.792969 9.300781 5.789062 C 9.289062 5.78125 9.277344 5.773438 9.265625 5.769531 C 9.257812 5.765625 9.253906 5.761719 9.25 5.757812 C 9.234375 5.75 9.214844 5.742188 9.199219 5.730469 C 9.195312 5.730469 9.195312 5.730469 9.191406 5.726562 C 9.175781 5.71875 9.164062 5.710938 9.148438 5.707031 C 9.144531 5.703125 9.140625 5.699219 9.132812 5.695312 C 9.121094 5.691406 9.109375 5.683594 9.09375 5.679688 C 9.089844 5.675781 9.085938 5.671875 9.082031 5.671875 C 9.0625 5.664062 9.046875 5.65625 9.03125 5.648438 C 9.027344 5.644531 9.019531 5.644531 9.015625 5.640625 C 9.003906 5.636719 8.988281 5.628906 8.976562 5.625 C 8.972656 5.621094 8.964844 5.621094 8.960938 5.617188 C 8.945312 5.609375 8.925781 5.601562 8.910156 5.597656 C 8.90625 5.59375 8.902344 5.59375 8.898438 5.59375 C 8.882812 5.585938 8.871094 5.582031 8.855469 5.574219 C 8.847656 5.574219 8.84375 5.570312 8.835938 5.570312 C 8.824219 5.5625 8.808594 5.558594 8.796875 5.554688 C 8.792969 5.554688 8.785156 5.550781 8.78125 5.550781 C 8.765625 5.542969 8.746094 5.539062 8.726562 5.53125 C 8.722656 5.53125 8.71875 5.53125 8.714844 5.527344 C 8.699219 5.523438 8.6875 5.519531 8.671875 5.515625 C 8.664062 5.515625 8.660156 5.511719 8.652344 5.511719 C 8.636719 5.503906 8.617188 5.5 8.597656 5.496094 C 8.597656 5.496094 8.59375 5.496094 8.59375 5.492188 C 8.574219 5.488281 8.558594 5.484375 8.542969 5.480469 C 8.535156 5.480469 8.53125 5.480469 8.523438 5.476562 C 8.507812 5.472656 8.496094 5.472656 8.480469 5.46875 C 8.472656 5.46875 8.46875 5.464844 8.464844 5.464844 C 8.460938 5.464844 8.460938 5.464844 8.457031 5.464844 C 8.445312 5.460938 8.433594 5.457031 8.421875 5.457031 C 8.417969 5.457031 8.414062 5.457031 8.410156 5.453125 C 8.398438 5.453125 8.382812 5.449219 8.371094 5.449219 C 8.367188 5.449219 8.367188 5.445312 8.363281 5.445312 C 8.351562 5.445312 8.339844 5.441406 8.328125 5.441406 C 8.324219 5.441406 8.320312 5.441406 8.316406 5.441406 C 8.300781 5.4375 8.289062 5.4375 8.273438 5.433594 C 8.257812 5.433594 8.242188 5.429688 8.230469 5.429688 C 8.226562 5.429688 8.222656 5.429688 8.222656 5.425781 C 8.207031 5.425781 8.195312 5.425781 8.183594 5.425781 C 8.179688 5.421875 8.179688 5.421875 8.175781 5.421875 C 8.160156 5.421875 8.148438 5.421875 8.132812 5.417969 C 8.128906 5.417969 8.128906 5.417969 8.125 5.417969 C 8.113281 5.417969 8.101562 5.417969 8.085938 5.417969 C 8.085938 5.417969 8.082031 5.417969 8.078125 5.417969 C 8.0625 5.414062 8.046875 5.414062 8.035156 5.414062 C 8.03125 5.414062 8.03125 5.414062 8.027344 5.414062 C 8.015625 5.414062 8.003906 5.414062 7.992188 5.414062 C 7.988281 5.414062 7.980469 5.414062 7.976562 5.414062 C 7.964844 5.414062 7.949219 5.414062 7.933594 5.414062 Z M 7.933594 5.414062 "/>
<path style="fill:none;stroke-width:3;stroke-linecap:round;stroke-linejoin:miter;stroke:rgb(12.941177%,12.941177%,12.941177%);stroke-opacity:1;stroke-miterlimit:4;" d="M 253.850758 -41.766543 C 251.850949 -41.766543 249.85114 -41.766543 247.851331 -41.641555 L 324.094051 90.345841 C 333.218179 76.84713 338.592666 60.473694 338.592666 42.850377 C 338.592666 -4.020148 300.846271 -41.766543 253.850758 -41.766543 Z M 253.850758 -41.766543 " transform="matrix(0.031253,0,0,0.031253,0,6.719392)"/>
<path style=" stroke:none;fill-rule:nonzero;fill:url(#linear7);" d="M 10.128906 6.574219 L 7.933594 10.375 L 8.121094 10.699219 C 9.5 10.605469 10.582031 9.460938 10.582031 8.058594 C 10.582031 7.507812 10.414062 6.996094 10.128906 6.574219 Z M 10.128906 6.574219 "/>
<path style=" stroke:none;fill-rule:nonzero;fill:rgb(100%,100%,100%);fill-opacity:0.588235;" d="M 10.128906 6.574219 L 7.933594 10.375 L 7.972656 10.441406 L 10.128906 6.703125 C 10.402344 7.109375 10.570312 7.597656 10.582031 8.125 C 10.582031 8.101562 10.582031 8.082031 10.582031 8.058594 C 10.582031 7.507812 10.414062 6.996094 10.128906 6.574219 Z M 10.128906 6.574219 "/>
<path style="fill:none;stroke-width:3;stroke-linecap:round;stroke-linejoin:miter;stroke:rgb(12.941177%,12.941177%,12.941177%);stroke-opacity:1;stroke-miterlimit:4;" d="M 324.094051 -4.645088 L 253.850758 116.968299 L 259.850186 127.342308 C 303.970972 124.342594 338.592666 87.721092 338.592666 42.850377 C 338.592666 25.227059 333.218179 8.853623 324.094051 -4.645088 Z M 324.094051 -4.645088 " transform="matrix(0.031253,0,0,0.031253,0,6.719392)"/>
<path style=" stroke:none;fill-rule:nonzero;fill:url(#linear8);" d="M 7.265625 9.21875 L 8.121094 10.699219 C 9.09375 10.632812 9.914062 10.046875 10.316406 9.21875 Z M 7.265625 9.21875 "/>
<path style=" stroke:none;fill-rule:nonzero;fill:rgb(100%,100%,100%);fill-opacity:0.588235;" d="M 7.265625 9.21875 L 7.339844 9.347656 L 10.25 9.347656 C 10.273438 9.304688 10.296875 9.261719 10.316406 9.21875 Z M 7.265625 9.21875 "/>
<path style="fill:none;stroke-width:3;stroke-linecap:round;stroke-linejoin:miter;stroke:rgb(12.941177%,12.941177%,12.941177%);stroke-opacity:1;stroke-miterlimit:4;" d="M 232.477799 79.971832 L 259.850186 127.342308 C 290.972214 125.217511 317.219707 106.469301 330.093478 79.971832 Z M 232.477799 79.971832 " transform="matrix(0.031253,0,0,0.031253,0,6.719392)"/>
</g>
</svg>
