<?xml version="1.0" encoding="UTF-8"?>
<svg xmlns="http://www.w3.org/2000/svg" xmlns:xlink="http://www.w3.org/1999/xlink" width="16pt" height="16pt" viewBox="0 0 16 16" version="1.1">
<defs>
<radialGradient id="radial0" gradientUnits="userSpaceOnUse" cx="450.908936" cy="189.579361" fx="450.908936" fy="189.579361" r="21.166656" gradientTransform="matrix(0.0000000870852,-0.0390662,-0.0703192,-0.0000000507693,22.261576,31.797665)">
<stop offset="0" style="stop-color:rgb(0%,0%,0%);stop-opacity:0.313725;"/>
<stop offset="0.222222" style="stop-color:rgb(0%,0%,0%);stop-opacity:0.27451;"/>
<stop offset="1" style="stop-color:rgb(0%,0%,0%);stop-opacity:0;"/>
</radialGradient>
<radialGradient id="radial1" gradientUnits="userSpaceOnUse" cx="450.908936" cy="189.579361" fx="450.908936" fy="189.579361" r="21.166656" gradientTransform="matrix(-0.0000000870852,0.0390662,0.0703192,0.0000000507693,-6.385059,-3.763741)">
<stop offset="0" style="stop-color:rgb(0%,0%,0%);stop-opacity:0.313725;"/>
<stop offset="0.222222" style="stop-color:rgb(0%,0%,0%);stop-opacity:0.27451;"/>
<stop offset="1" style="stop-color:rgb(0%,0%,0%);stop-opacity:0;"/>
</radialGradient>
<radialGradient id="radial2" gradientUnits="userSpaceOnUse" cx="450.908936" cy="189.579361" fx="450.908936" fy="189.579361" r="21.166656" gradientTransform="matrix(-0.0000000870852,-0.0390662,0.0703192,-0.0000000507693,-6.385059,31.797665)">
<stop offset="0" style="stop-color:rgb(0%,0%,0%);stop-opacity:0.313725;"/>
<stop offset="0.222222" style="stop-color:rgb(0%,0%,0%);stop-opacity:0.27451;"/>
<stop offset="1" style="stop-color:rgb(0%,0%,0%);stop-opacity:0;"/>
</radialGradient>
<radialGradient id="radial3" gradientUnits="userSpaceOnUse" cx="450.908936" cy="189.579361" fx="450.908936" fy="189.579361" r="21.166656" gradientTransform="matrix(0.0000000870852,0.0390662,-0.0703192,0.0000000507693,22.261575,-3.763741)">
<stop offset="0" style="stop-color:rgb(0%,0%,0%);stop-opacity:0.313725;"/>
<stop offset="0.222222" style="stop-color:rgb(0%,0%,0%);stop-opacity:0.27451;"/>
<stop offset="1" style="stop-color:rgb(0%,0%,0%);stop-opacity:0;"/>
</radialGradient>
<linearGradient id="linear0" gradientUnits="userSpaceOnUse" x1="255.323059" y1="233.5" x2="255.323044" y2="254.666656" gradientTransform="matrix(0.00668003,0,0,0.031253,6.232693,6.719392)">
<stop offset="0" style="stop-color:rgb(0%,0%,0%);stop-opacity:0.27451;"/>
<stop offset="1" style="stop-color:rgb(0%,0%,0%);stop-opacity:0;"/>
</linearGradient>
<linearGradient id="linear1" gradientUnits="userSpaceOnUse" x1="254" y1="-168.666672" x2="254" y2="233.5" gradientTransform="matrix(0.031253,0,0,0.031253,0,6.719391)">
<stop offset="0" style="stop-color:rgb(73.72549%,66.666667%,64.313725%);stop-opacity:1;"/>
<stop offset="1" style="stop-color:rgb(63.137255%,53.333333%,49.803922%);stop-opacity:1;"/>
</linearGradient>
<linearGradient id="linear2" gradientUnits="userSpaceOnUse" x1="359.833313" y1="32.416676" x2="381.000031" y2="32.416676" gradientTransform="matrix(0.031253,0,0,0.031253,0,6.719392)">
<stop offset="0" style="stop-color:rgb(63.137255%,53.333333%,49.803922%);stop-opacity:1;"/>
<stop offset="1" style="stop-color:rgb(55.294118%,43.137255%,38.823529%);stop-opacity:1;"/>
</linearGradient>
<linearGradient id="linear3" gradientUnits="userSpaceOnUse" x1="412.749939" y1="32.416683" x2="433.916656" y2="32.416683" gradientTransform="matrix(0.031253,0,0,0.031253,0,6.719392)">
<stop offset="0" style="stop-color:rgb(63.137255%,53.333333%,49.803922%);stop-opacity:1;"/>
<stop offset="1" style="stop-color:rgb(55.294118%,43.137255%,38.823529%);stop-opacity:1;"/>
</linearGradient>
<linearGradient id="linear4" gradientUnits="userSpaceOnUse" x1="338.666656" y1="-20.500004" x2="359.833374" y2="-20.500004" gradientTransform="matrix(0.031253,0,0,0.031253,0,6.719392)">
<stop offset="0" style="stop-color:rgb(63.137255%,53.333333%,49.803922%);stop-opacity:1;"/>
<stop offset="1" style="stop-color:rgb(55.294118%,43.137255%,38.823529%);stop-opacity:1;"/>
</linearGradient>
<linearGradient id="linear5" gradientUnits="userSpaceOnUse" x1="391.583282" y1="-20.499994" x2="412.75" y2="-20.499994" gradientTransform="matrix(0.031253,0,0,0.031253,0,6.719392)">
<stop offset="0" style="stop-color:rgb(63.137255%,53.333333%,49.803922%);stop-opacity:1;"/>
<stop offset="1" style="stop-color:rgb(55.294118%,43.137255%,38.823529%);stop-opacity:1;"/>
</linearGradient>
<linearGradient id="linear6" gradientUnits="userSpaceOnUse" x1="306.916626" y1="-73.416656" x2="328.083344" y2="-73.416656" gradientTransform="matrix(0.031253,0,0,0.031253,0,6.719392)">
<stop offset="0" style="stop-color:rgb(63.137255%,53.333333%,49.803922%);stop-opacity:1;"/>
<stop offset="1" style="stop-color:rgb(55.294118%,43.137255%,38.823529%);stop-opacity:1;"/>
</linearGradient>
<linearGradient id="linear7" gradientUnits="userSpaceOnUse" x1="359.833252" y1="-73.416649" x2="380.999969" y2="-73.416649" gradientTransform="matrix(0.031253,0,0,0.031253,0,6.719392)">
<stop offset="0" style="stop-color:rgb(63.137255%,53.333333%,49.803922%);stop-opacity:1;"/>
<stop offset="1" style="stop-color:rgb(55.294118%,43.137255%,38.823529%);stop-opacity:1;"/>
</linearGradient>
<linearGradient id="linear8" gradientUnits="userSpaceOnUse" x1="254" y1="-126.333344" x2="275.166656" y2="-126.333344" gradientTransform="matrix(0.031253,0,0,0.031253,0,6.719392)">
<stop offset="0" style="stop-color:rgb(63.137255%,53.333333%,49.803922%);stop-opacity:1;"/>
<stop offset="1" style="stop-color:rgb(55.294118%,43.137255%,38.823529%);stop-opacity:1;"/>
</linearGradient>
<linearGradient id="linear9" gradientUnits="userSpaceOnUse" x1="306.916565" y1="-126.333321" x2="328.083282" y2="-126.333321" gradientTransform="matrix(0.031253,0,0,0.031253,0,6.719392)">
<stop offset="0" style="stop-color:rgb(63.137255%,53.333333%,49.803922%);stop-opacity:1;"/>
<stop offset="1" style="stop-color:rgb(55.294118%,43.137255%,38.823529%);stop-opacity:1;"/>
</linearGradient>
<linearGradient id="linear10" gradientUnits="userSpaceOnUse" x1="306.916656" y1="32.416676" x2="328.083374" y2="32.416676" gradientTransform="matrix(0.031253,0,0,0.031253,0,6.719392)">
<stop offset="0" style="stop-color:rgb(63.137255%,53.333333%,49.803922%);stop-opacity:1;"/>
<stop offset="1" style="stop-color:rgb(55.294118%,43.137255%,38.823529%);stop-opacity:1;"/>
</linearGradient>
<linearGradient id="linear11" gradientUnits="userSpaceOnUse" x1="285.75" y1="-20.500004" x2="306.916718" y2="-20.500004" gradientTransform="matrix(0.031253,0,0,0.031253,0,6.719392)">
<stop offset="0" style="stop-color:rgb(63.137255%,53.333333%,49.803922%);stop-opacity:1;"/>
<stop offset="1" style="stop-color:rgb(55.294118%,43.137255%,38.823529%);stop-opacity:1;"/>
</linearGradient>
<linearGradient id="linear12" gradientUnits="userSpaceOnUse" x1="338.666656" y1="-85.333336" x2="359.833374" y2="-85.333336" gradientTransform="matrix(0.031253,0,0,-0.031253,0,6.719392)">
<stop offset="0" style="stop-color:rgb(63.137255%,53.333333%,49.803922%);stop-opacity:1;"/>
<stop offset="1" style="stop-color:rgb(55.294118%,43.137255%,38.823529%);stop-opacity:1;"/>
</linearGradient>
<linearGradient id="linear13" gradientUnits="userSpaceOnUse" x1="391.583282" y1="-85.333328" x2="412.75" y2="-85.333328" gradientTransform="matrix(0.031253,0,0,-0.031253,0,6.719392)">
<stop offset="0" style="stop-color:rgb(63.137255%,53.333333%,49.803922%);stop-opacity:1;"/>
<stop offset="1" style="stop-color:rgb(55.294118%,43.137255%,38.823529%);stop-opacity:1;"/>
</linearGradient>
<linearGradient id="linear14" gradientUnits="userSpaceOnUse" x1="306.916626" y1="-138.25" x2="328.083344" y2="-138.25" gradientTransform="matrix(0.031253,0,0,-0.031253,0,6.719392)">
<stop offset="0" style="stop-color:rgb(63.137255%,53.333333%,49.803922%);stop-opacity:1;"/>
<stop offset="1" style="stop-color:rgb(55.294118%,43.137255%,38.823529%);stop-opacity:1;"/>
</linearGradient>
<linearGradient id="linear15" gradientUnits="userSpaceOnUse" x1="359.833252" y1="-138.25" x2="380.999969" y2="-138.25" gradientTransform="matrix(0.031253,0,0,-0.031253,0,6.719392)">
<stop offset="0" style="stop-color:rgb(63.137255%,53.333333%,49.803922%);stop-opacity:1;"/>
<stop offset="1" style="stop-color:rgb(55.294118%,43.137255%,38.823529%);stop-opacity:1;"/>
</linearGradient>
<linearGradient id="linear16" gradientUnits="userSpaceOnUse" x1="253.999954" y1="-191.166672" x2="275.166656" y2="-191.166672" gradientTransform="matrix(0.031253,0,0,-0.031253,0,6.719392)">
<stop offset="0" style="stop-color:rgb(63.137255%,53.333333%,49.803922%);stop-opacity:1;"/>
<stop offset="1" style="stop-color:rgb(55.294118%,43.137255%,38.823529%);stop-opacity:1;"/>
</linearGradient>
<linearGradient id="linear17" gradientUnits="userSpaceOnUse" x1="306.916565" y1="-191.166672" x2="328.083282" y2="-191.166672" gradientTransform="matrix(0.031253,0,0,-0.031253,0,6.719392)">
<stop offset="0" style="stop-color:rgb(63.137255%,53.333333%,49.803922%);stop-opacity:1;"/>
<stop offset="1" style="stop-color:rgb(55.294118%,43.137255%,38.823529%);stop-opacity:1;"/>
</linearGradient>
<linearGradient id="linear18" gradientUnits="userSpaceOnUse" x1="285.75" y1="-85.333336" x2="306.916718" y2="-85.333336" gradientTransform="matrix(0.031253,0,0,-0.031253,0,6.719392)">
<stop offset="0" style="stop-color:rgb(63.137255%,53.333333%,49.803922%);stop-opacity:1;"/>
<stop offset="1" style="stop-color:rgb(55.294118%,43.137255%,38.823529%);stop-opacity:1;"/>
</linearGradient>
<linearGradient id="linear19" gradientUnits="userSpaceOnUse" x1="254" y1="32.416676" x2="275.166718" y2="32.416676" gradientTransform="matrix(0.031253,0,0,0.031253,0,6.719392)">
<stop offset="0" style="stop-color:rgb(63.137255%,53.333333%,49.803922%);stop-opacity:1;"/>
<stop offset="1" style="stop-color:rgb(55.294118%,43.137255%,38.823529%);stop-opacity:1;"/>
</linearGradient>
<linearGradient id="linear20" gradientUnits="userSpaceOnUse" x1="253.999954" y1="-73.416656" x2="275.166656" y2="-73.416656" gradientTransform="matrix(0.031253,0,0,0.031253,0,6.719392)">
<stop offset="0" style="stop-color:rgb(63.137255%,53.333333%,49.803922%);stop-opacity:1;"/>
<stop offset="1" style="stop-color:rgb(55.294118%,43.137255%,38.823529%);stop-opacity:1;"/>
</linearGradient>
<linearGradient id="linear21" gradientUnits="userSpaceOnUse" x1="253.999954" y1="-138.25" x2="275.166656" y2="-138.25" gradientTransform="matrix(0.031253,0,0,-0.031253,0,6.719392)">
<stop offset="0" style="stop-color:rgb(63.137255%,53.333333%,49.803922%);stop-opacity:1;"/>
<stop offset="1" style="stop-color:rgb(55.294118%,43.137255%,38.823529%);stop-opacity:1;"/>
</linearGradient>
</defs>
<g id="surface1">
<path style=" stroke:none;fill-rule:nonzero;fill:url(#radial0);" d="M 9.097656 14.015625 L 10.417969 14.015625 L 10.417969 13.355469 L 9.097656 13.355469 Z M 9.097656 14.015625 "/>
<path style=" stroke:none;fill-rule:nonzero;fill:url(#radial1);" d="M 6.78125 14.015625 L 5.457031 14.015625 L 5.457031 14.679688 L 6.78125 14.679688 Z M 6.78125 14.015625 "/>
<path style=" stroke:none;fill-rule:nonzero;fill:url(#radial2);" d="M 6.78125 14.015625 L 5.457031 14.015625 L 5.457031 13.355469 L 6.78125 13.355469 Z M 6.78125 14.015625 "/>
<path style=" stroke:none;fill-rule:nonzero;fill:url(#radial3);" d="M 9.097656 14.015625 L 10.417969 14.015625 L 10.417969 14.679688 L 9.097656 14.679688 Z M 9.097656 14.015625 "/>
<path style=" stroke:none;fill-rule:nonzero;fill:url(#linear0);" d="M 6.78125 13.851562 L 9.097656 13.851562 L 9.097656 14.679688 L 6.78125 14.679688 Z M 6.78125 13.851562 "/>
<path style=" stroke:none;fill-rule:nonzero;fill:url(#linear1);" d="M 7.9375 1.449219 C 7.257812 1.449219 6.601562 1.554688 5.988281 1.753906 C 6.554688 2.277344 6.945312 3.421875 6.945312 4.753906 C 6.945312 6.078125 6.5625 7.214844 6.003906 7.746094 C 6.972656 8.457031 7.609375 9.664062 7.609375 11.039062 C 7.609375 12.144531 7.199219 13.140625 6.535156 13.859375 C 6.984375 13.960938 7.457031 14.015625 7.9375 14.015625 C 11.417969 14.015625 14.222656 11.214844 14.222656 7.734375 C 14.222656 4.25 11.417969 1.449219 7.9375 1.449219 Z M 7.9375 1.449219 "/>
<path style=" stroke:none;fill-rule:nonzero;fill:rgb(0%,0%,0%);fill-opacity:0.196078;" d="M 14.222656 7.671875 C 14.191406 11.125 11.398438 13.894531 7.9375 13.894531 C 7.488281 13.894531 7.046875 13.847656 6.625 13.757812 C 6.59375 13.792969 6.566406 13.828125 6.535156 13.859375 C 6.984375 13.964844 7.457031 14.015625 7.9375 14.015625 C 11.417969 14.015625 14.222656 11.214844 14.222656 7.734375 C 14.222656 7.710938 14.222656 7.691406 14.222656 7.671875 Z M 14.222656 7.671875 "/>
<path style=" stroke:none;fill-rule:nonzero;fill:rgb(100%,100%,100%);fill-opacity:0.392157;" d="M 7.9375 1.449219 C 7.257812 1.449219 6.601562 1.554688 5.988281 1.753906 C 6.019531 1.78125 6.050781 1.8125 6.082031 1.847656 C 6.667969 1.667969 7.292969 1.570312 7.9375 1.570312 C 11.398438 1.570312 14.191406 4.339844 14.222656 7.792969 C 14.222656 7.773438 14.222656 7.753906 14.222656 7.734375 C 14.222656 4.25 11.417969 1.449219 7.9375 1.449219 Z M 7.9375 1.449219 "/>
<path style=" stroke:none;fill-rule:nonzero;fill:url(#linear2);" d="M 11.578125 7.402344 C 11.757812 7.402344 11.90625 7.550781 11.90625 7.734375 C 11.90625 7.914062 11.757812 8.0625 11.578125 8.0625 C 11.394531 8.0625 11.246094 7.914062 11.246094 7.734375 C 11.246094 7.550781 11.394531 7.402344 11.578125 7.402344 Z M 11.578125 7.402344 "/>
<path style=" stroke:none;fill-rule:nonzero;fill:url(#linear3);" d="M 13.230469 7.402344 C 13.414062 7.402344 13.5625 7.550781 13.5625 7.734375 C 13.5625 7.914062 13.414062 8.0625 13.230469 8.0625 C 13.046875 8.0625 12.898438 7.914062 12.898438 7.734375 C 12.898438 7.550781 13.046875 7.402344 13.230469 7.402344 Z M 13.230469 7.402344 "/>
<path style=" stroke:none;fill-rule:nonzero;fill:url(#linear4);" d="M 10.914062 5.746094 C 11.097656 5.746094 11.246094 5.894531 11.246094 6.078125 C 11.246094 6.261719 11.097656 6.410156 10.914062 6.410156 C 10.734375 6.410156 10.585938 6.261719 10.585938 6.078125 C 10.585938 5.894531 10.734375 5.746094 10.914062 5.746094 Z M 10.914062 5.746094 "/>
<path style=" stroke:none;fill-rule:nonzero;fill:url(#linear5);" d="M 12.570312 5.746094 C 12.75 5.746094 12.898438 5.894531 12.898438 6.078125 C 12.898438 6.261719 12.75 6.410156 12.570312 6.410156 C 12.386719 6.410156 12.238281 6.261719 12.238281 6.078125 C 12.238281 5.894531 12.386719 5.746094 12.570312 5.746094 Z M 12.570312 5.746094 "/>
<path style=" stroke:none;fill-rule:nonzero;fill:url(#linear6);" d="M 9.921875 4.09375 C 10.105469 4.09375 10.253906 4.242188 10.253906 4.425781 C 10.253906 4.609375 10.105469 4.753906 9.921875 4.753906 C 9.738281 4.753906 9.59375 4.609375 9.59375 4.425781 C 9.59375 4.242188 9.738281 4.09375 9.921875 4.09375 Z M 9.921875 4.09375 "/>
<path style=" stroke:none;fill-rule:nonzero;fill:url(#linear7);" d="M 11.578125 4.09375 C 11.757812 4.09375 11.90625 4.242188 11.90625 4.425781 C 11.90625 4.609375 11.757812 4.753906 11.578125 4.753906 C 11.394531 4.753906 11.246094 4.609375 11.246094 4.425781 C 11.246094 4.242188 11.394531 4.09375 11.578125 4.09375 Z M 11.578125 4.09375 "/>
<path style=" stroke:none;fill-rule:nonzero;fill:url(#linear8);" d="M 8.269531 2.441406 C 8.453125 2.441406 8.601562 2.589844 8.601562 2.769531 C 8.601562 2.953125 8.453125 3.101562 8.269531 3.101562 C 8.085938 3.101562 7.9375 2.953125 7.9375 2.769531 C 7.9375 2.589844 8.085938 2.441406 8.269531 2.441406 Z M 8.269531 2.441406 "/>
<path style=" stroke:none;fill-rule:nonzero;fill:url(#linear9);" d="M 9.921875 2.441406 C 10.105469 2.441406 10.253906 2.589844 10.253906 2.769531 C 10.253906 2.953125 10.105469 3.101562 9.921875 3.101562 C 9.738281 3.101562 9.59375 2.953125 9.59375 2.769531 C 9.59375 2.589844 9.738281 2.441406 9.921875 2.441406 Z M 9.921875 2.441406 "/>
<path style=" stroke:none;fill-rule:nonzero;fill:url(#linear10);" d="M 9.921875 7.402344 C 10.105469 7.402344 10.253906 7.550781 10.253906 7.734375 C 10.253906 7.914062 10.105469 8.0625 9.921875 8.0625 C 9.738281 8.0625 9.59375 7.914062 9.59375 7.734375 C 9.59375 7.550781 9.738281 7.402344 9.921875 7.402344 Z M 9.921875 7.402344 "/>
<path style=" stroke:none;fill-rule:nonzero;fill:url(#linear11);" d="M 9.261719 5.746094 C 9.445312 5.746094 9.59375 5.894531 9.59375 6.078125 C 9.59375 6.261719 9.445312 6.410156 9.261719 6.410156 C 9.078125 6.410156 8.929688 6.261719 8.929688 6.078125 C 8.929688 5.894531 9.078125 5.746094 9.261719 5.746094 Z M 9.261719 5.746094 "/>
<path style=" stroke:none;fill-rule:nonzero;fill:url(#linear12);" d="M 10.914062 9.71875 C 11.097656 9.71875 11.246094 9.570312 11.246094 9.386719 C 11.246094 9.203125 11.097656 9.054688 10.914062 9.054688 C 10.734375 9.054688 10.585938 9.203125 10.585938 9.386719 C 10.585938 9.570312 10.734375 9.71875 10.914062 9.71875 Z M 10.914062 9.71875 "/>
<path style=" stroke:none;fill-rule:nonzero;fill:url(#linear13);" d="M 12.570312 9.71875 C 12.75 9.71875 12.898438 9.570312 12.898438 9.386719 C 12.898438 9.203125 12.75 9.054688 12.570312 9.054688 C 12.386719 9.054688 12.238281 9.203125 12.238281 9.386719 C 12.238281 9.570312 12.386719 9.71875 12.570312 9.71875 Z M 12.570312 9.71875 "/>
<path style=" stroke:none;fill-rule:nonzero;fill:url(#linear14);" d="M 9.921875 11.371094 C 10.105469 11.371094 10.253906 11.222656 10.253906 11.039062 C 10.253906 10.859375 10.105469 10.710938 9.921875 10.710938 C 9.738281 10.710938 9.59375 10.859375 9.59375 11.039062 C 9.59375 11.222656 9.738281 11.371094 9.921875 11.371094 Z M 9.921875 11.371094 "/>
<path style=" stroke:none;fill-rule:nonzero;fill:url(#linear15);" d="M 11.578125 11.371094 C 11.757812 11.371094 11.90625 11.222656 11.90625 11.039062 C 11.90625 10.859375 11.757812 10.710938 11.578125 10.710938 C 11.394531 10.710938 11.246094 10.859375 11.246094 11.039062 C 11.246094 11.222656 11.394531 11.371094 11.578125 11.371094 Z M 11.578125 11.371094 "/>
<path style=" stroke:none;fill-rule:nonzero;fill:url(#linear16);" d="M 8.269531 13.023438 C 8.453125 13.023438 8.601562 12.875 8.601562 12.695312 C 8.601562 12.511719 8.453125 12.363281 8.269531 12.363281 C 8.085938 12.363281 7.9375 12.511719 7.9375 12.695312 C 7.9375 12.875 8.085938 13.023438 8.269531 13.023438 Z M 8.269531 13.023438 "/>
<path style=" stroke:none;fill-rule:nonzero;fill:url(#linear17);" d="M 9.921875 13.023438 C 10.105469 13.023438 10.253906 12.875 10.253906 12.695312 C 10.253906 12.511719 10.105469 12.363281 9.921875 12.363281 C 9.738281 12.363281 9.59375 12.511719 9.59375 12.695312 C 9.59375 12.875 9.738281 13.023438 9.921875 13.023438 Z M 9.921875 13.023438 "/>
<path style=" stroke:none;fill-rule:nonzero;fill:url(#linear18);" d="M 9.261719 9.71875 C 9.445312 9.71875 9.59375 9.570312 9.59375 9.386719 C 9.59375 9.203125 9.445312 9.054688 9.261719 9.054688 C 9.078125 9.054688 8.929688 9.203125 8.929688 9.386719 C 8.929688 9.570312 9.078125 9.71875 9.261719 9.71875 Z M 9.261719 9.71875 "/>
<path style=" stroke:none;fill-rule:nonzero;fill:rgb(12.941177%,12.941177%,12.941177%);fill-opacity:1;" d="M 7.9375 1.402344 C 7.253906 1.402344 6.59375 1.507812 5.976562 1.710938 L 5.898438 1.734375 L 5.957031 1.789062 C 6.507812 2.296875 6.898438 3.429688 6.898438 4.753906 C 6.898438 6.070312 6.511719 7.195312 5.972656 7.710938 L 5.929688 7.75 L 5.976562 7.78125 C 6.933594 8.484375 7.5625 9.679688 7.5625 11.039062 C 7.5625 12.132812 7.15625 13.121094 6.5 13.828125 L 6.445312 13.886719 L 6.523438 13.90625 C 6.976562 14.007812 7.453125 14.0625 7.9375 14.0625 C 11.445312 14.0625 14.269531 11.238281 14.269531 7.734375 C 14.269531 4.226562 11.445312 1.402344 7.9375 1.402344 Z M 7.9375 1.496094 C 11.394531 1.496094 14.175781 4.277344 14.175781 7.734375 C 14.175781 11.1875 11.394531 13.96875 7.9375 13.96875 C 7.484375 13.96875 7.046875 13.921875 6.621094 13.832031 C 7.261719 13.109375 7.65625 12.125 7.65625 11.039062 C 7.65625 9.671875 7.03125 8.464844 6.074219 7.738281 C 6.625 7.179688 6.992188 6.058594 6.992188 4.753906 C 6.992188 3.457031 6.628906 2.335938 6.078125 1.777344 C 6.664062 1.59375 7.289062 1.496094 7.9375 1.496094 Z M 7.9375 1.496094 "/>
<path style=" stroke:none;fill-rule:nonzero;fill:url(#linear19);" d="M 8.269531 7.402344 C 8.453125 7.402344 8.601562 7.550781 8.601562 7.734375 C 8.601562 7.914062 8.453125 8.0625 8.269531 8.0625 C 8.085938 8.0625 7.9375 7.914062 7.9375 7.734375 C 7.9375 7.550781 8.085938 7.402344 8.269531 7.402344 Z M 8.269531 7.402344 "/>
<path style=" stroke:none;fill-rule:nonzero;fill:url(#linear20);" d="M 8.269531 4.09375 C 8.453125 4.09375 8.601562 4.242188 8.601562 4.425781 C 8.601562 4.609375 8.453125 4.753906 8.269531 4.753906 C 8.085938 4.753906 7.9375 4.609375 7.9375 4.425781 C 7.9375 4.242188 8.085938 4.09375 8.269531 4.09375 Z M 8.269531 4.09375 "/>
<path style=" stroke:none;fill-rule:nonzero;fill:url(#linear21);" d="M 8.269531 11.371094 C 8.453125 11.371094 8.601562 11.222656 8.601562 11.039062 C 8.601562 10.859375 8.453125 10.710938 8.269531 10.710938 C 8.085938 10.710938 7.9375 10.859375 7.9375 11.039062 C 7.9375 11.222656 8.085938 11.371094 8.269531 11.371094 Z M 8.269531 11.371094 "/>
</g>
</svg>
