<svg height="16" width="16" xmlns="http://www.w3.org/2000/svg" xmlns:xlink="http://www.w3.org/1999/xlink"><linearGradient id="a"><stop offset="0" stop-opacity=".314"/><stop offset=".222" stop-opacity=".275"/><stop offset="1" stop-opacity="0"/></linearGradient><radialGradient id="b" cx="450.909" cy="189.579" gradientTransform="matrix(0 -.03907 -.07032 0 22.262 31.798)" gradientUnits="userSpaceOnUse" r="21.167" xlink:href="#a"/><radialGradient id="c" cx="450.909" cy="189.579" gradientTransform="matrix(0 .03907 .07032 0 -6.385 -3.764)" gradientUnits="userSpaceOnUse" r="21.167" xlink:href="#a"/><radialGradient id="d" cx="450.909" cy="189.579" gradientTransform="matrix(0 -.03907 .07032 0 -6.385 31.798)" gradientUnits="userSpaceOnUse" r="21.167" xlink:href="#a"/><radialGradient id="e" cx="450.909" cy="189.579" gradientTransform="matrix(0 .03907 -.07032 0 22.262 -3.764)" gradientUnits="userSpaceOnUse" r="21.167" xlink:href="#a"/><linearGradient id="f" gradientTransform="matrix(.00668 0 0 .03125 6.233 6.72)" gradientUnits="userSpaceOnUse" x1="255.323" x2="255.323" y1="233.5" y2="254.667"><stop offset="0" stop-opacity=".275"/><stop offset="1" stop-opacity="0"/></linearGradient><linearGradient id="g" gradientUnits="userSpaceOnUse" x1="254" x2="254" y1="-168.667" y2="233.5"><stop offset="0" stop-color="#616161"/><stop offset="1" stop-color="#424242"/></linearGradient><linearGradient id="h" gradientUnits="userSpaceOnUse" x1="7.9375" x2="7.9375" y1="1.44915625" y2="14.016875"><stop offset="0" stop-color="#4db6ac"/><stop offset="1" stop-color="#26a69a"/></linearGradient><linearGradient id="i" gradientUnits="userSpaceOnUse" x1="6.28384375" x2="6.28384375" y1="14.016875" y2="1.44915625"><stop offset="0" stop-color="#ffa726"/><stop offset="1" stop-color="#ffb74d"/></linearGradient><path d="m9.098 14.016h1.32v-.66h-1.32zm0 0" fill="url(#b)"/><path d="m6.781 14.016h-1.324v.664h1.324zm0 0" fill="url(#c)"/><path d="m6.781 14.016h-1.324v-.66h1.324zm0 0" fill="url(#d)"/><path d="m9.098 14.016h1.32v.664h-1.32zm0 0" fill="url(#e)"/><path d="m6.781 13.852h2.317v.828h-2.318zm0 0" fill="url(#f)"/><path d="m253.976-168.63c111.114 0 201.106 89.992 201.106 201.106 0 110.99-89.992 200.981-201.106 200.981-110.99 0-201.106-89.991-201.106-200.98 0-111.115 90.116-201.106 201.106-201.106zm0 0" fill="url(#g)" stroke="#333" stroke-linecap="round" stroke-width="3" transform="matrix(.03125 0 0 .03125 0 6.72)"/><path d="m1.652 7.785a6.272 6.272 0 0 0 6.285 6.23 6.27 6.27 0 0 0 6.286-6.23c-5-3.73-7 3.656-12.57 0zm0 0" fill="url(#h)"/><path d="m7.938 13.977a6.273 6.273 0 0 1 -6.286-6.287v-.06a6.273 6.273 0 0 0 6.285 6.223 6.27 6.27 0 0 0 6.286-6.223v.062a6.273 6.273 0 0 1 -6.286 6.286zm0 0" fill-opacity=".196"/><path d="m7.938 1.488a6.273 6.273 0 0 0 -6.286 6.285v.063a6.273 6.273 0 0 1 6.285-6.223 6.27 6.27 0 0 1 6.286 6.223v-.063a6.273 6.273 0 0 0 -6.286-6.285zm0 0" fill="#fff" fill-opacity=".392"/><path d="m7.938 1.402a6.318 6.318 0 0 0 -6.333 6.332 6.318 6.318 0 0 0 6.332 6.329 6.318 6.318 0 0 0 6.333-6.329 6.318 6.318 0 0 0 -6.332-6.332zm0 .094a6.223 6.223 0 0 1 6.238 6.238 6.222 6.222 0 0 1 -6.239 6.235 6.222 6.222 0 0 1 -6.237-6.235 6.223 6.223 0 0 1 6.239-6.238zm0 0" fill="#212121"/><g fill-rule="evenodd"><path d="m5.621 11.703 4.965-3.969-1.984-.664 1.652-3.308-4.961 3.972 1.984.66zm0 0" fill="url(#i)"/><path d="m10.254 3.762-4.961 3.972.293.094 4.39-3.512zm-1.512 3.355-.14.285 1.691.563.293-.23zm-1.605 1.559-1.517 3.027.277-.223 1.38-2.753zm0 0" fill="#fff" fill-opacity=".392"/><path d="m10.254 4.094-.414.332-1.238 2.48.21.07zm-4.524 3.62-.437.348 1.77.59.214-.422zm4.418.204-4.113 3.289-.414.824 4.965-3.969zm0 0" fill-opacity=".235"/></g><path d="m5.621 11.703 4.965-3.969-1.984-.664 1.652-3.308-4.961 3.972 1.984.66zm0 0" fill="none" stroke="#212121" stroke-width=".09375"/></svg>