<?xml version="1.0" encoding="UTF-8"?>
<svg xmlns="http://www.w3.org/2000/svg" xmlns:xlink="http://www.w3.org/1999/xlink" width="16px" height="16px" viewBox="0 0 16 16" version="1.1">
<defs>
<linearGradient id="linear0" gradientUnits="userSpaceOnUse" x1="254" y1="233.500015" x2="254" y2="254.666672" gradientTransform="matrix(0.177084,0,0,0.03125,-43.601213,6.718749)">
<stop offset="0" style="stop-color:rgb(0%,0%,0%);stop-opacity:0.27451;"/>
<stop offset="1" style="stop-color:rgb(0%,0%,0%);stop-opacity:0;"/>
</linearGradient>
<radialGradient id="radial0" gradientUnits="userSpaceOnUse" cx="450.908936" cy="189.579361" fx="450.908936" fy="189.579361" r="21.166656" gradientTransform="matrix(0.0000000870769,-0.0390625,-0.0703125,-0.0000000507644,23.913095,31.794631)">
<stop offset="0" style="stop-color:rgb(0%,0%,0%);stop-opacity:0.313726;"/>
<stop offset="0.222222" style="stop-color:rgb(0%,0%,0%);stop-opacity:0.27451;"/>
<stop offset="1" style="stop-color:rgb(0%,0%,0%);stop-opacity:0;"/>
</radialGradient>
<radialGradient id="radial1" gradientUnits="userSpaceOnUse" cx="450.908936" cy="189.579361" fx="450.908936" fy="189.579361" r="21.166656" gradientTransform="matrix(-0.0000000870769,0.0390625,0.0703125,0.0000000507644,-8.038095,-3.763381)">
<stop offset="0" style="stop-color:rgb(0%,0%,0%);stop-opacity:0.313726;"/>
<stop offset="0.222222" style="stop-color:rgb(0%,0%,0%);stop-opacity:0.27451;"/>
<stop offset="1" style="stop-color:rgb(0%,0%,0%);stop-opacity:0;"/>
</radialGradient>
<radialGradient id="radial2" gradientUnits="userSpaceOnUse" cx="450.908936" cy="189.579361" fx="450.908936" fy="189.579361" r="21.166656" gradientTransform="matrix(-0.0000000870769,-0.0390625,0.0703125,-0.0000000507644,-8.038095,31.794631)">
<stop offset="0" style="stop-color:rgb(0%,0%,0%);stop-opacity:0.313726;"/>
<stop offset="0.222222" style="stop-color:rgb(0%,0%,0%);stop-opacity:0.27451;"/>
<stop offset="1" style="stop-color:rgb(0%,0%,0%);stop-opacity:0;"/>
</radialGradient>
<radialGradient id="radial3" gradientUnits="userSpaceOnUse" cx="450.908936" cy="189.579361" fx="450.908936" fy="189.579361" r="21.166656" gradientTransform="matrix(0.0000000870769,0.0390625,-0.0703125,0.0000000507644,23.913095,-3.763382)">
<stop offset="0" style="stop-color:rgb(0%,0%,0%);stop-opacity:0.313726;"/>
<stop offset="0.222222" style="stop-color:rgb(0%,0%,0%);stop-opacity:0.27451;"/>
<stop offset="1" style="stop-color:rgb(0%,0%,0%);stop-opacity:0;"/>
</radialGradient>
<linearGradient id="linear1" gradientUnits="userSpaceOnUse" x1="254" y1="233.5" x2="254" y2="11.250002" gradientTransform="matrix(0.047526,0,0,0.0565476,-4.216796,0.811756)">
<stop offset="0" style="stop-color:rgb(74.117649%,74.117649%,74.117649%);stop-opacity:1;"/>
<stop offset="1" style="stop-color:rgb(87.843138%,87.843138%,87.843138%);stop-opacity:1;"/>
</linearGradient>
<linearGradient id="linear2" gradientUnits="userSpaceOnUse" x1="254" y1="148.833328" x2="254" y2="-168.666672" gradientTransform="matrix(0.0307035,0,0,0.0307035,0.138801,7.04406)">
<stop offset="0" style="stop-color:rgb(74.117649%,74.117649%,74.117649%);stop-opacity:1;"/>
<stop offset="1" style="stop-color:rgb(87.843138%,87.843138%,87.843138%);stop-opacity:1;"/>
</linearGradient>
<linearGradient id="linear3" gradientUnits="userSpaceOnUse" x1="254" y1="148.833328" x2="254" y2="-168.666672" gradientTransform="matrix(0.0260417,0,0,-0.0260417,1.322917,6.481337)">
<stop offset="0" style="stop-color:rgb(25.882354%,25.882354%,25.882354%);stop-opacity:1;"/>
<stop offset="1" style="stop-color:rgb(45.882353%,45.882353%,45.882353%);stop-opacity:1;"/>
</linearGradient>
<linearGradient id="linear4" gradientUnits="userSpaceOnUse" x1="254" y1="148.833328" x2="254" y2="-168.666672" gradientTransform="matrix(0.00942698,0,0,0.00942698,5.543046,6.84132)">
<stop offset="0" style="stop-color:rgb(25.882354%,25.882354%,25.882354%);stop-opacity:1;"/>
<stop offset="1" style="stop-color:rgb(38.039216%,38.039216%,38.039216%);stop-opacity:1;"/>
</linearGradient>
<linearGradient id="linear5" gradientUnits="userSpaceOnUse" x1="132.291672" y1="201.75" x2="132.291672" y2="159.416672" gradientTransform="matrix(0.03125,0,0,0.03125,0,6.71875)">
<stop offset="0" style="stop-color:rgb(74.117649%,74.117649%,74.117649%);stop-opacity:1;"/>
<stop offset="1" style="stop-color:rgb(87.843138%,87.843138%,87.843138%);stop-opacity:1;"/>
</linearGradient>
<linearGradient id="linear6" gradientUnits="userSpaceOnUse" x1="132.291672" y1="201.75" x2="132.291672" y2="159.416672" gradientTransform="matrix(0.03125,0,0,0.03125,7.611858,6.71875)">
<stop offset="0" style="stop-color:rgb(74.117649%,74.117649%,74.117649%);stop-opacity:1;"/>
<stop offset="1" style="stop-color:rgb(87.843138%,87.843138%,87.843138%);stop-opacity:1;"/>
</linearGradient>
<linearGradient id="linear7" gradientUnits="userSpaceOnUse" x1="273.049988" y1="-168.666656" x2="273.049988" y2="148.833328" gradientTransform="matrix(0.0260417,0,0,-0.0260417,1.322916,6.481337)">
<stop offset="0" style="stop-color:rgb(25.882354%,25.882354%,25.882354%);stop-opacity:1;"/>
<stop offset="1" style="stop-color:rgb(45.882353%,45.882353%,45.882353%);stop-opacity:1;"/>
</linearGradient>
<linearGradient id="linear8" gradientUnits="userSpaceOnUse" x1="254" y1="53.583332" x2="254" y2="-41.666668" gradientTransform="matrix(0.03125,0,0,0.03125,0,6.71875)">
<stop offset="0" style="stop-color:rgb(25.882354%,25.882354%,25.882354%);stop-opacity:1;"/>
<stop offset="1" style="stop-color:rgb(38.039216%,38.039216%,38.039216%);stop-opacity:1;"/>
</linearGradient>
</defs>
<g id="surface1">
<path style=" stroke:none;fill-rule:nonzero;fill:url(#linear0);" d="M 5.125 13.765625 L 10.75 13.765625 L 10.75 14.675781 L 5.125 14.675781 Z M 5.125 13.765625 "/>
<path style=" stroke:none;fill-rule:nonzero;fill:url(#radial0);" d="M 10.75 14.015625 L 12.070312 14.015625 L 12.070312 13.355469 L 10.75 13.355469 Z M 10.75 14.015625 "/>
<path style=" stroke:none;fill-rule:nonzero;fill:url(#radial1);" d="M 5.125 14.015625 L 3.804688 14.015625 L 3.804688 14.675781 L 5.125 14.675781 Z M 5.125 14.015625 "/>
<path style=" stroke:none;fill-rule:nonzero;fill:url(#radial2);" d="M 5.125 14.015625 L 3.804688 14.015625 L 3.804688 13.355469 L 5.125 13.355469 Z M 5.125 14.015625 "/>
<path style=" stroke:none;fill-rule:nonzero;fill:url(#radial3);" d="M 10.75 14.015625 L 12.070312 14.015625 L 12.070312 14.675781 L 10.75 14.675781 Z M 10.75 14.015625 "/>
<path style=" stroke:none;fill-rule:nonzero;fill:url(#linear1);" d="M 3.070312 1.449219 L 12.804688 1.449219 C 13.222656 1.449219 13.558594 1.851562 13.558594 2.34375 L 13.558594 13.117188 C 13.558594 13.613281 13.222656 14.015625 12.804688 14.015625 L 3.070312 14.015625 C 2.652344 14.015625 2.316406 13.613281 2.316406 13.117188 L 2.316406 2.34375 C 2.316406 1.851562 2.652344 1.449219 3.070312 1.449219 Z M 3.070312 1.449219 "/>
<path style=" stroke:none;fill-rule:nonzero;fill:rgb(0%,0%,0%);fill-opacity:0.235294;" d="M 3.066406 6.910156 C 3.0625 6.964844 3.0625 7.019531 3.0625 7.074219 C 3.0625 9.773438 5.238281 11.949219 7.9375 11.949219 C 10.636719 11.949219 12.8125 9.773438 12.8125 7.074219 C 12.8125 7.019531 12.8125 6.964844 12.808594 6.910156 C 12.722656 9.53125 10.582031 11.617188 7.9375 11.617188 C 5.292969 11.617188 3.152344 9.53125 3.066406 6.910156 Z M 3.066406 6.910156 "/>
<path style=" stroke:none;fill-rule:nonzero;fill:url(#linear2);" d="M 7.9375 1.867188 C 10.628906 1.867188 12.8125 4.046875 12.8125 6.738281 C 12.8125 9.429688 10.628906 11.613281 7.9375 11.613281 C 5.246094 11.613281 3.0625 9.429688 3.0625 6.738281 C 3.0625 4.046875 5.246094 1.867188 7.9375 1.867188 Z M 7.9375 1.867188 "/>
<path style=" stroke:none;fill-rule:nonzero;fill:url(#linear3);" d="M 7.9375 10.875 C 10.222656 10.875 12.070312 9.023438 12.070312 6.738281 C 12.070312 4.457031 10.222656 2.605469 7.9375 2.605469 C 5.652344 2.605469 3.804688 4.457031 3.804688 6.738281 C 3.804688 9.023438 5.652344 10.875 7.9375 10.875 Z M 7.9375 10.875 "/>
<path style=" stroke:none;fill-rule:nonzero;fill:url(#linear4);" d="M 7.9375 5.25 C 8.765625 5.25 9.433594 5.921875 9.433594 6.746094 C 9.433594 7.574219 8.765625 8.246094 7.9375 8.246094 C 7.109375 8.246094 6.441406 7.574219 6.441406 6.746094 C 6.441406 5.921875 7.109375 5.25 7.9375 5.25 Z M 7.9375 5.25 "/>
<path style="fill:none;stroke-width:3;stroke-linecap:round;stroke-linejoin:round;stroke:rgb(12.941177%,12.941177%,12.941177%);stroke-opacity:1;stroke-miterlimit:4;" d="M 254 -155.125 C 340 -155.125 409.75 -85.375 409.75 0.625 C 409.75 86.625 340 156.375 254 156.375 C 168 156.375 98.25 86.625 98.25 0.625 C 98.25 -85.375 168 -155.125 254 -155.125 Z M 254 -155.125 " transform="matrix(0.03125,0,0,0.03125,0,6.71875)"/>
<path style=" stroke:none;fill-rule:nonzero;fill:rgb(0%,0%,0%);fill-opacity:0.235294;" d="M 7.9375 2.605469 C 5.644531 2.605469 3.796875 4.453125 3.796875 6.746094 C 3.796875 6.769531 3.796875 6.789062 3.796875 6.8125 C 3.832031 4.546875 5.664062 2.734375 7.9375 2.734375 C 10.210938 2.734375 12.042969 4.546875 12.078125 6.8125 C 12.078125 6.789062 12.078125 6.769531 12.078125 6.746094 C 12.078125 4.453125 10.230469 2.605469 7.9375 2.605469 Z M 7.9375 2.605469 "/>
<path style=" stroke:none;fill-rule:nonzero;fill:rgb(100%,100%,100%);fill-opacity:0.392157;" d="M 7.9375 11.035156 C 5.644531 11.035156 3.796875 9.1875 3.796875 6.894531 C 3.796875 6.871094 3.796875 6.851562 3.796875 6.828125 C 3.832031 9.089844 5.664062 10.902344 7.9375 10.902344 C 10.210938 10.902344 12.042969 9.089844 12.078125 6.828125 C 12.078125 6.851562 12.078125 6.871094 12.078125 6.894531 C 12.078125 9.1875 10.230469 11.035156 7.9375 11.035156 Z M 7.9375 11.035156 "/>
<path style="fill:none;stroke-width:3;stroke-linecap:round;stroke-linejoin:round;stroke:rgb(12.941177%,12.941177%,12.941177%);stroke-opacity:1;stroke-miterlimit:4;" d="M 254 -133.375 C 327.125 -133.375 386.5 -74 386.5 -0.875 C 386.5 72.25 327.125 131.625 254 131.625 C 180.875 131.625 121.5 72.25 121.5 -0.875 C 121.5 -74 180.875 -133.375 254 -133.375 Z M 254 -133.375 " transform="matrix(0.03125,0,0,-0.03125,0,6.71875)"/>
<path style=" stroke:none;fill-rule:nonzero;fill:rgb(100%,100%,100%);fill-opacity:0.313726;" d="M 3.070312 1.449219 C 2.652344 1.449219 2.316406 1.847656 2.316406 2.34375 L 2.316406 2.46875 C 2.316406 1.972656 2.652344 1.570312 3.070312 1.570312 L 12.804688 1.570312 C 13.222656 1.570312 13.558594 1.972656 13.558594 2.46875 L 13.558594 2.34375 C 13.558594 1.847656 13.222656 1.449219 12.804688 1.449219 Z M 3.070312 1.449219 "/>
<path style=" stroke:none;fill-rule:nonzero;fill:rgb(0%,0%,0%);fill-opacity:0.235294;" d="M 3.070312 14.003906 C 2.652344 14.003906 2.316406 13.601562 2.316406 13.105469 L 2.316406 12.980469 C 2.316406 13.480469 2.652344 13.878906 3.070312 13.878906 L 12.804688 13.878906 C 13.222656 13.878906 13.558594 13.480469 13.558594 12.980469 L 13.558594 13.105469 C 13.558594 13.601562 13.222656 14.003906 12.804688 14.003906 Z M 3.070312 14.003906 "/>
<path style="fill:none;stroke-width:3;stroke-linecap:round;stroke-linejoin:round;stroke:rgb(12.941177%,12.941177%,12.941177%);stroke-opacity:1;stroke-miterlimit:4;" d="M 98.25 -168.625 L 409.75 -168.625 C 423.125 -168.625 433.875 -155.75 433.875 -140 L 433.875 204.75 C 433.875 220.625 423.125 233.5 409.75 233.5 L 98.25 233.5 C 84.875 233.5 74.125 220.625 74.125 204.75 L 74.125 -140 C 74.125 -155.75 84.875 -168.625 98.25 -168.625 Z M 98.25 -168.625 " transform="matrix(0.03125,0,0,0.03125,0,6.71875)"/>
<path style=" stroke:none;fill-rule:nonzero;fill:url(#linear5);" d="M 4.132812 11.699219 C 4.5 11.699219 4.796875 11.996094 4.796875 12.363281 C 4.796875 12.726562 4.5 13.023438 4.132812 13.023438 C 3.769531 13.023438 3.472656 12.726562 3.472656 12.363281 C 3.472656 11.996094 3.769531 11.699219 4.132812 11.699219 Z M 4.132812 11.699219 "/>
<path style=" stroke:none;fill-rule:nonzero;fill:rgb(0%,0%,0%);fill-opacity:0.235294;" d="M 3.476562 12.445312 C 3.472656 12.472656 3.472656 12.5 3.472656 12.527344 C 3.472656 12.894531 3.769531 13.1875 4.132812 13.1875 C 4.5 13.1875 4.796875 12.894531 4.796875 12.527344 C 4.796875 12.5 4.792969 12.472656 4.789062 12.445312 C 4.75 12.773438 4.472656 13.023438 4.132812 13.023438 C 3.796875 13.023438 3.519531 12.773438 3.476562 12.445312 Z M 3.476562 12.445312 "/>
<path style=" stroke:none;fill-rule:nonzero;fill:rgb(100%,100%,100%);fill-opacity:0.392157;" d="M 3.476562 12.445312 C 3.472656 12.417969 3.472656 12.390625 3.472656 12.363281 C 3.472656 11.996094 3.769531 11.699219 4.132812 11.699219 C 4.5 11.699219 4.796875 11.996094 4.796875 12.363281 C 4.796875 12.390625 4.792969 12.417969 4.789062 12.445312 C 4.75 12.117188 4.472656 11.867188 4.132812 11.867188 C 3.796875 11.867188 3.519531 12.117188 3.476562 12.445312 Z M 3.476562 12.445312 "/>
<path style="fill:none;stroke-width:3;stroke-linecap:round;stroke-linejoin:round;stroke:rgb(12.941177%,12.941177%,12.941177%);stroke-opacity:1;stroke-miterlimit:4;" d="M 132.25 159.375 C 144 159.375 153.5 168.875 153.5 180.625 C 153.5 192.25 144 201.75 132.25 201.75 C 120.625 201.75 111.125 192.25 111.125 180.625 C 111.125 168.875 120.625 159.375 132.25 159.375 Z M 132.25 159.375 " transform="matrix(0.03125,0,0,0.03125,0,6.71875)"/>
<path style=" stroke:none;fill-rule:nonzero;fill:url(#linear6);" d="M 11.746094 11.699219 C 12.109375 11.699219 12.40625 11.996094 12.40625 12.363281 C 12.40625 12.726562 12.109375 13.023438 11.746094 13.023438 C 11.378906 13.023438 11.085938 12.726562 11.085938 12.363281 C 11.085938 11.996094 11.378906 11.699219 11.746094 11.699219 Z M 11.746094 11.699219 "/>
<path style=" stroke:none;fill-rule:nonzero;fill:rgb(0%,0%,0%);fill-opacity:0.235294;" d="M 11.089844 12.445312 C 11.085938 12.472656 11.085938 12.5 11.085938 12.527344 C 11.085938 12.894531 11.378906 13.1875 11.746094 13.1875 C 12.113281 13.1875 12.40625 12.894531 12.40625 12.527344 C 12.40625 12.5 12.40625 12.472656 12.402344 12.445312 C 12.363281 12.773438 12.085938 13.023438 11.746094 13.023438 C 11.40625 13.023438 11.128906 12.773438 11.089844 12.445312 Z M 11.089844 12.445312 "/>
<path style=" stroke:none;fill-rule:nonzero;fill:rgb(100%,100%,100%);fill-opacity:0.392157;" d="M 11.089844 12.445312 C 11.085938 12.417969 11.085938 12.390625 11.085938 12.363281 C 11.085938 11.996094 11.378906 11.699219 11.746094 11.699219 C 12.113281 11.699219 12.40625 11.996094 12.40625 12.363281 C 12.40625 12.390625 12.40625 12.417969 12.402344 12.445312 C 12.363281 12.117188 12.085938 11.867188 11.746094 11.867188 C 11.40625 11.867188 11.128906 12.117188 11.089844 12.445312 Z M 11.089844 12.445312 "/>
<path style="fill:none;stroke-width:3;stroke-linecap:round;stroke-linejoin:round;stroke:rgb(12.941177%,12.941177%,12.941177%);stroke-opacity:1;stroke-miterlimit:4;" d="M 132.295547 159.375 C 143.920547 159.375 153.420547 168.875 153.420547 180.625 C 153.420547 192.25 143.920547 201.75 132.295547 201.75 C 120.545547 201.75 111.170547 192.25 111.170547 180.625 C 111.170547 168.875 120.545547 159.375 132.295547 159.375 Z M 132.295547 159.375 " transform="matrix(0.03125,0,0,0.03125,7.611858,6.71875)"/>
<path style=" stroke:none;fill-rule:nonzero;fill:url(#linear7);" d="M 7.9375 2.605469 C 5.648438 2.605469 3.804688 4.449219 3.804688 6.738281 C 3.804688 9.03125 5.648438 10.875 7.9375 10.875 C 10.226562 10.875 12.070312 9.03125 12.070312 6.738281 C 12.070312 4.449219 10.226562 2.605469 7.9375 2.605469 Z M 7.9375 3.101562 C 9.953125 3.101562 11.574219 4.722656 11.574219 6.738281 C 11.574219 8.753906 9.953125 10.378906 7.9375 10.378906 C 5.921875 10.378906 4.300781 8.753906 4.300781 6.738281 C 4.300781 4.722656 5.921875 3.101562 7.9375 3.101562 Z M 7.9375 3.101562 "/>
<path style=" stroke:none;fill-rule:nonzero;fill:rgb(0%,0%,0%);fill-opacity:0.235294;" d="M 7.9375 2.605469 C 5.648438 2.605469 3.804688 4.449219 3.804688 6.738281 C 3.804688 9.03125 5.648438 10.875 7.9375 10.875 C 10.226562 10.875 12.070312 9.03125 12.070312 6.738281 C 12.070312 4.449219 10.226562 2.605469 7.9375 2.605469 Z M 7.9375 3.101562 C 9.953125 3.101562 11.574219 4.722656 11.574219 6.738281 C 11.574219 8.753906 9.953125 10.378906 7.9375 10.378906 C 5.921875 10.378906 4.300781 8.753906 4.300781 6.738281 C 4.300781 4.722656 5.921875 3.101562 7.9375 3.101562 Z M 7.9375 3.101562 "/>
<path style=" stroke:none;fill-rule:nonzero;fill:rgb(99.215686%,99.215686%,99.215686%);fill-opacity:0.235294;" d="M 7.9375 2.605469 C 5.648438 2.605469 3.804688 4.449219 3.804688 6.738281 C 3.804688 6.761719 3.804688 6.78125 3.804688 6.800781 C 3.835938 4.539062 5.667969 2.730469 7.9375 2.730469 C 10.207031 2.730469 12.039062 4.539062 12.070312 6.800781 C 12.070312 6.78125 12.070312 6.761719 12.070312 6.738281 C 12.070312 4.449219 10.226562 2.605469 7.9375 2.605469 Z M 4.300781 6.800781 C 4.300781 6.820312 4.300781 6.84375 4.300781 6.863281 C 4.300781 8.878906 5.921875 10.5 7.9375 10.5 C 9.953125 10.5 11.574219 8.878906 11.574219 6.863281 C 11.574219 6.84375 11.574219 6.820312 11.574219 6.800781 C 11.542969 8.789062 9.933594 10.378906 7.9375 10.378906 C 5.941406 10.378906 4.332031 8.789062 4.300781 6.800781 Z M 4.300781 6.800781 "/>
<path style=" stroke:none;fill-rule:nonzero;fill:rgb(0%,0%,0%);fill-opacity:0.235294;" d="M 7.9375 2.925781 C 5.921875 2.925781 4.300781 4.550781 4.300781 6.566406 C 4.300781 6.59375 4.300781 6.625 4.300781 6.652344 C 4.347656 4.675781 5.949219 3.101562 7.9375 3.101562 C 9.925781 3.101562 11.527344 4.675781 11.574219 6.652344 C 11.574219 6.625 11.574219 6.59375 11.574219 6.566406 C 11.574219 4.550781 9.953125 2.925781 7.9375 2.925781 Z M 3.804688 6.652344 C 3.804688 6.679688 3.804688 6.710938 3.804688 6.738281 C 3.804688 9.03125 5.648438 10.875 7.9375 10.875 C 10.226562 10.875 12.070312 9.03125 12.070312 6.738281 C 12.070312 6.710938 12.070312 6.679688 12.070312 6.652344 C 12.023438 8.902344 10.199219 10.699219 7.9375 10.699219 C 5.675781 10.699219 3.851562 8.902344 3.804688 6.652344 Z M 3.804688 6.652344 "/>
<path style="fill:none;stroke-width:11.338583;stroke-linecap:round;stroke-linejoin:round;stroke:rgb(12.941177%,12.941177%,12.941177%);stroke-opacity:1;stroke-miterlimit:4;" d="M 960.00005 315.118127 C 683.149642 315.118127 460.157505 538.110265 460.157505 814.960673 C 460.157505 1092.283522 683.149642 1315.27566 960.00005 1315.27566 C 1236.850459 1315.27566 1459.842596 1092.283522 1459.842596 814.960673 C 1459.842596 538.110265 1236.850459 315.118127 960.00005 315.118127 Z M 960.00005 375.11813 C 1203.779591 375.11813 1399.842593 571.181132 1399.842593 814.960673 C 1399.842593 1058.740213 1203.779591 1255.275657 960.00005 1255.275657 C 716.22051 1255.275657 520.157508 1058.740213 520.157508 814.960673 C 520.157508 571.181132 716.22051 375.11813 960.00005 375.11813 Z M 960.00005 375.11813 " transform="matrix(0.00826823,0,0,0.00826823,0,0)"/>
<path style=" stroke:none;fill-rule:nonzero;fill:url(#linear8);" d="M 7.9375 5.25 C 8.765625 5.25 9.433594 5.921875 9.433594 6.746094 C 9.433594 7.574219 8.765625 8.246094 7.9375 8.246094 C 7.109375 8.246094 6.441406 7.574219 6.441406 6.746094 C 6.441406 5.921875 7.109375 5.25 7.9375 5.25 Z M 7.9375 5.25 "/>
<path style=" stroke:none;fill-rule:nonzero;fill:rgb(100%,100%,100%);fill-opacity:0.313726;" d="M 7.9375 5.292969 C 7.109375 5.292969 6.441406 5.960938 6.441406 6.789062 C 6.441406 6.804688 6.441406 6.816406 6.441406 6.832031 C 6.464844 6.019531 7.121094 5.375 7.9375 5.375 C 8.753906 5.375 9.410156 6.019531 9.433594 6.832031 C 9.433594 6.816406 9.433594 6.804688 9.433594 6.789062 C 9.433594 5.960938 8.765625 5.292969 7.9375 5.292969 Z M 7.9375 5.292969 "/>
<path style="fill:none;stroke-width:3;stroke-linecap:round;stroke-linejoin:round;stroke:rgb(12.941177%,12.941177%,12.941177%);stroke-opacity:1;stroke-miterlimit:4;" d="M 254 -47 C 280.5 -47 301.875 -25.5 301.875 0.875 C 301.875 27.375 280.5 48.875 254 48.875 C 227.5 48.875 206.125 27.375 206.125 0.875 C 206.125 -25.5 227.5 -47 254 -47 Z M 254 -47 " transform="matrix(0.03125,0,0,0.03125,0,6.71875)"/>
<path style=" stroke:none;fill-rule:nonzero;fill:rgb(0%,0%,0%);fill-opacity:0.235294;" d="M 7.9375 8.375 C 7.109375 8.375 6.441406 7.710938 6.441406 6.878906 C 6.441406 6.867188 6.441406 6.851562 6.441406 6.839844 C 6.464844 7.648438 7.121094 8.292969 7.9375 8.292969 C 8.753906 8.292969 9.410156 7.648438 9.433594 6.839844 C 9.433594 6.851562 9.433594 6.867188 9.433594 6.878906 C 9.433594 7.710938 8.765625 8.375 7.9375 8.375 Z M 7.9375 8.375 "/>
</g>
</svg>
