<?xml version="1.0" encoding="UTF-8" standalone="no"?>
<svg
   xmlns:dc="http://purl.org/dc/elements/1.1/"
   xmlns:cc="http://creativecommons.org/ns#"
   xmlns:rdf="http://www.w3.org/1999/02/22-rdf-syntax-ns#"
   xmlns:svg="http://www.w3.org/2000/svg"
   xmlns="http://www.w3.org/2000/svg"
   xmlns:xlink="http://www.w3.org/1999/xlink"
   xmlns:sodipodi="http://sodipodi.sourceforge.net/DTD/sodipodi-0.dtd"
   xmlns:inkscape="http://www.inkscape.org/namespaces/inkscape"
   width="16pt"
   height="16pt"
   viewBox="0 0 16 16"
   version="1.1"
   id="svg36"
   sodipodi:docname="audio-volume-low.svg"
   inkscape:version="0.92.2 2405546, 2018-03-11">
  <metadata
     id="metadata40">
    <rdf:RDF>
      <cc:Work
         rdf:about="">
        <dc:format>image/svg+xml</dc:format>
        <dc:type
           rdf:resource="http://purl.org/dc/dcmitype/StillImage" />
      </cc:Work>
    </rdf:RDF>
  </metadata>
  <sodipodi:namedview
     pagecolor="#ffffff"
     bordercolor="#666666"
     borderopacity="1"
     objecttolerance="10"
     gridtolerance="10"
     guidetolerance="10"
     inkscape:pageopacity="0"
     inkscape:pageshadow="2"
     inkscape:window-width="1920"
     inkscape:window-height="1032"
     id="namedview38"
     showgrid="false"
     inkscape:zoom="11.0625"
     inkscape:cx="11.118644"
     inkscape:cy="10.39548"
     inkscape:window-x="0"
     inkscape:window-y="30"
     inkscape:window-maximized="1"
     inkscape:current-layer="svg36" />
  <defs
     id="defs27">
    <filter
       id="alpha"
       filterUnits="objectBoundingBox"
       x="0%"
       y="0%"
       width="100%"
       height="100%">
      <feColorMatrix
         type="matrix"
         in="SourceGraphic"
         values="0 0 0 0 1 0 0 0 0 1 0 0 0 0 1 0 0 0 1 0"
         id="feColorMatrix2" />
    </filter>
    <mask
       id="mask0">
      <g
         filter="url(#alpha)"
         id="g7">
        <rect
           x="0"
           y="0"
           width="16"
           height="16"
           style="fill:rgb(0%,0%,0%);fill-opacity:0.301961;stroke:none;"
           id="rect5" />
      </g>
    </mask>
    <clipPath
       id="clip1">
      <rect
         x="0"
         y="0"
         width="16"
         height="16"
         id="rect10" />
    </clipPath>
    <g
       id="surface5"
       clip-path="url(#clip1)">
      <path
         style=" stroke:none;fill-rule:nonzero;fill:rgb(74.117649%,74.117649%,74.117649%);fill-opacity:1;"
         d="M 2.070312 5 C 1.066406 6.914062 1.066406 9.210938 2.070312 11.125 L 3.0625 10.132812 C 2.5 8.8125 2.5 7.3125 3.0625 5.996094 Z M 4.875 2.195312 L 5.871094 3.1875 C 7.1875 2.625 8.6875 2.625 10.007812 3.1875 L 11 2.195312 C 9.085938 1.191406 6.789062 1.191406 4.875 2.195312 Z M 4.875 13.929688 C 6.789062 14.933594 9.085938 14.933594 11 13.929688 L 10.007812 12.9375 C 8.6875 13.5 7.1875 13.5 5.871094 12.9375 Z M 12.8125 5.996094 C 13.375 7.3125 13.375 8.8125 12.8125 10.132812 L 13.804688 11.125 C 14.808594 9.210938 14.808594 6.914062 13.804688 5 Z M 12.8125 5.996094 "
         id="path13" />
    </g>
    <mask
       id="mask1">
      <g
         filter="url(#alpha)"
         id="g18">
        <rect
           x="0"
           y="0"
           width="16"
           height="16"
           style="fill:rgb(0%,0%,0%);fill-opacity:0.301961;stroke:none;"
           id="rect16" />
      </g>
    </mask>
    <clipPath
       id="clip2">
      <rect
         x="0"
         y="0"
         width="16"
         height="16"
         id="rect21" />
    </clipPath>
    <g
       id="surface8"
       clip-path="url(#clip2)">
      <path
         style=" stroke:none;fill-rule:nonzero;fill:rgb(74.117649%,74.117649%,74.117649%);fill-opacity:1;"
         d="M 4.535156 6.015625 C 3.78125 7.261719 3.777344 8.828125 4.519531 10.082031 L 5.5 9.097656 C 5.214844 8.425781 5.21875 7.664062 5.515625 6.996094 Z M 5.949219 4.625 L 6.9375 5.613281 C 7.589844 5.34375 8.324219 5.347656 8.972656 5.625 L 9.957031 4.644531 C 8.722656 3.914062 7.1875 3.90625 5.949219 4.625 Z M 5.921875 11.484375 C 7.171875 12.226562 8.738281 12.21875 9.984375 11.464844 L 9.003906 10.488281 C 8.335938 10.78125 7.574219 10.785156 6.902344 10.5 Z M 10.375 7.027344 C 10.652344 7.675781 10.65625 8.414062 10.390625 9.0625 L 11.375 10.050781 C 12.09375 8.8125 12.089844 7.277344 11.359375 6.046875 Z M 10.375 7.027344 "
         id="path24" />
    </g>
  </defs>
  <g
     id="surface1">
    <use
       xlink:href="#surface5"
       mask="url(#mask0)"
       id="use29"
       style="opacity:0.3" />
    <use
       xlink:href="#surface8"
       mask="url(#mask1)"
       id="use31"
       style="opacity:0.3" />
    <path
       style=" stroke:none;fill-rule:nonzero;fill:rgb(74.117649%,74.117649%,74.117649%);fill-opacity:1;"
       d="M 7.9375 6.738281 C 8.667969 6.738281 9.261719 7.332031 9.261719 8.0625 C 9.261719 8.792969 8.667969 9.386719 7.9375 9.386719 C 7.207031 9.386719 6.613281 8.792969 6.613281 8.0625 C 6.613281 7.332031 7.207031 6.738281 7.9375 6.738281 Z M 7.9375 6.738281 "
       id="path33" />
  </g>
</svg>
