
<svg xmlns="http://www.w3.org/2000/svg" xmlns:xlink="http://www.w3.org/1999/xlink" width="22px" height="22px" viewBox="0 0 22 22" version="1.1">
<defs>
<radialGradient id="radial0" gradientUnits="userSpaceOnUse" cx="450.908936" cy="189.579361" fx="450.908936" fy="189.579361" r="21.166656" gradientTransform="matrix(0.000000119742,-0.0537161,-0.096689,-0.0000000698077,29.017879,44.403986)">
<stop offset="0" style="stop-color:rgb(0%,0%,0%);stop-opacity:0.313726;"/>
<stop offset="0.222222" style="stop-color:rgb(0%,0%,0%);stop-opacity:0.27451;"/>
<stop offset="1" style="stop-color:rgb(0%,0%,0%);stop-opacity:0;"/>
</radialGradient>
<radialGradient id="radial1" gradientUnits="userSpaceOnUse" cx="450.908936" cy="189.579361" fx="450.908936" fy="189.579361" r="21.166656" gradientTransform="matrix(-0.000000119742,0.0537161,0.096689,0.0000000698077,-7.187669,-4.492947)">
<stop offset="0" style="stop-color:rgb(0%,0%,0%);stop-opacity:0.313726;"/>
<stop offset="0.222222" style="stop-color:rgb(0%,0%,0%);stop-opacity:0.27451;"/>
<stop offset="1" style="stop-color:rgb(0%,0%,0%);stop-opacity:0;"/>
</radialGradient>
<radialGradient id="radial2" gradientUnits="userSpaceOnUse" cx="450.908936" cy="189.579361" fx="450.908936" fy="189.579361" r="21.166656" gradientTransform="matrix(-0.000000119742,-0.0537161,0.096689,-0.0000000698077,-7.187669,44.403986)">
<stop offset="0" style="stop-color:rgb(0%,0%,0%);stop-opacity:0.313726;"/>
<stop offset="0.222222" style="stop-color:rgb(0%,0%,0%);stop-opacity:0.27451;"/>
<stop offset="1" style="stop-color:rgb(0%,0%,0%);stop-opacity:0;"/>
</radialGradient>
<radialGradient id="radial3" gradientUnits="userSpaceOnUse" cx="450.908936" cy="189.579361" fx="450.908936" fy="189.579361" r="21.166656" gradientTransform="matrix(0.000000119742,0.0537161,-0.096689,0.0000000698077,29.017879,-4.492948)">
<stop offset="0" style="stop-color:rgb(0%,0%,0%);stop-opacity:0.313726;"/>
<stop offset="0.222222" style="stop-color:rgb(0%,0%,0%);stop-opacity:0.27451;"/>
<stop offset="1" style="stop-color:rgb(0%,0%,0%);stop-opacity:0;"/>
</radialGradient>
<linearGradient id="linear0" gradientUnits="userSpaceOnUse" x1="254" y1="43" x2="254" y2="-168.666672" gradientTransform="matrix(0.0429729,0,0,0.0429729,-0.00822542,9.239163)">
<stop offset="0" style="stop-color:rgb(63.137257%,53.333336%,49.803922%);stop-opacity:1;"/>
<stop offset="1" style="stop-color:rgb(73.725492%,66.666669%,64.313728%);stop-opacity:1;"/>
</linearGradient>
<linearGradient id="linear1" gradientUnits="userSpaceOnUse" x1="232.833328" y1="254.666672" x2="232.833328" y2="21.833334" gradientTransform="matrix(0.0429729,0,0,0.0429729,0,9.239163)">
<stop offset="0" style="stop-color:rgb(25.882354%,64.705884%,96.078432%);stop-opacity:1;"/>
<stop offset="1" style="stop-color:rgb(39.215687%,70.980394%,96.470588%);stop-opacity:1;"/>
</linearGradient>
<linearGradient id="linear2" gradientUnits="userSpaceOnUse" x1="254" y1="43" x2="254" y2="-168.666672" gradientTransform="matrix(0.0429729,0,0,0.0429729,-0.00822542,9.239163)">
<stop offset="0" style="stop-color:rgb(12.941177%,58.823532%,95.294118%);stop-opacity:1;"/>
<stop offset="1" style="stop-color:rgb(56.470591%,79.215688%,97.647059%);stop-opacity:1;"/>
</linearGradient>
</defs>
<g id="surface1">
<path style=" stroke:none;fill-rule:nonzero;fill:url(#radial0);" d="M 10.914062 19.953125 L 12.734375 19.953125 L 12.734375 19.046875 L 10.914062 19.046875 Z M 10.914062 19.953125 "/>
<path style=" stroke:none;fill-rule:nonzero;fill:url(#radial1);" d="M 10.914062 19.953125 L 9.097656 19.953125 L 9.097656 20.867188 L 10.914062 20.867188 Z M 10.914062 19.953125 "/>
<path style=" stroke:none;fill-rule:nonzero;fill:url(#radial2);" d="M 10.914062 19.953125 L 9.097656 19.953125 L 9.097656 19.046875 L 10.914062 19.046875 Z M 10.914062 19.953125 "/>
<path style=" stroke:none;fill-rule:nonzero;fill:url(#radial3);" d="M 10.914062 19.953125 L 12.734375 19.953125 L 12.734375 20.867188 L 10.914062 20.867188 Z M 10.914062 19.953125 "/>
<path style=" stroke:none;fill-rule:nonzero;fill:url(#linear0);" d="M 10.914062 1.992188 C 10.847656 1.992188 10.785156 2.003906 10.722656 2.03125 L 2.535156 5.667969 C 2.195312 5.820312 2.171875 6.300781 2.5 6.480469 L 10.6875 11.027344 C 10.824219 11.105469 10.992188 11.105469 11.128906 11.027344 L 19.3125 6.480469 C 19.640625 6.300781 19.621094 5.820312 19.277344 5.667969 L 11.089844 2.03125 C 11.035156 2.007812 10.976562 1.992188 10.914062 1.992188 Z M 10.914062 1.992188 "/>
<path style=" stroke:none;fill-rule:nonzero;fill:url(#linear1);" d="M 19.234375 5.648438 L 19.277344 5.667969 C 19.621094 5.820312 19.640625 6.300781 19.3125 6.480469 L 11.128906 11.027344 C 10.992188 11.105469 10.824219 11.105469 10.6875 11.027344 L 2.5 6.480469 C 2.371094 6.410156 2.296875 6.296875 2.273438 6.171875 L 2.273438 15.179688 C 2.273438 15.34375 2.363281 15.496094 2.507812 15.578125 L 10.695312 20.125 C 10.699219 20.125 10.699219 20.128906 10.703125 20.128906 C 10.707031 20.132812 10.710938 20.132812 10.714844 20.136719 C 10.71875 20.136719 10.726562 20.140625 10.730469 20.144531 C 10.734375 20.144531 10.738281 20.144531 10.742188 20.148438 C 10.746094 20.148438 10.753906 20.152344 10.757812 20.15625 C 10.761719 20.15625 10.765625 20.15625 10.765625 20.15625 C 10.773438 20.160156 10.78125 20.160156 10.789062 20.164062 C 10.796875 20.167969 10.808594 20.167969 10.816406 20.171875 C 10.828125 20.171875 10.835938 20.175781 10.84375 20.175781 C 10.855469 20.179688 10.863281 20.179688 10.875 20.179688 C 10.882812 20.183594 10.890625 20.183594 10.902344 20.183594 C 10.90625 20.183594 10.910156 20.183594 10.914062 20.183594 C 10.917969 20.183594 10.925781 20.183594 10.929688 20.183594 C 10.9375 20.183594 10.945312 20.183594 10.957031 20.179688 C 10.964844 20.179688 10.976562 20.179688 10.984375 20.175781 C 10.996094 20.175781 11.003906 20.171875 11.011719 20.171875 C 11.023438 20.167969 11.03125 20.167969 11.039062 20.164062 C 11.039062 20.164062 11.039062 20.164062 11.042969 20.164062 C 11.046875 20.160156 11.054688 20.160156 11.0625 20.15625 C 11.066406 20.15625 11.070312 20.15625 11.070312 20.15625 C 11.078125 20.152344 11.082031 20.148438 11.089844 20.148438 C 11.09375 20.144531 11.09375 20.144531 11.097656 20.144531 C 11.101562 20.140625 11.109375 20.136719 11.117188 20.136719 C 11.117188 20.132812 11.121094 20.132812 11.125 20.128906 C 11.128906 20.128906 11.132812 20.125 11.136719 20.125 L 19.320312 15.578125 C 19.464844 15.496094 19.554688 15.34375 19.554688 15.179688 L 19.554688 6.085938 C 19.554688 5.878906 19.417969 5.707031 19.234375 5.648438 Z M 19.234375 5.648438 "/>
<path style=" stroke:none;fill-rule:nonzero;fill:rgb(100%,100%,100%);fill-opacity:0.392157;" d="M 10.921875 1.992188 C 10.859375 1.992188 10.792969 2.003906 10.730469 2.03125 L 2.542969 5.667969 C 2.542969 5.671875 2.542969 5.671875 2.539062 5.671875 C 2.535156 5.671875 2.535156 5.675781 2.53125 5.675781 C 2.398438 5.742188 2.316406 5.855469 2.285156 5.984375 C 2.285156 5.988281 2.285156 5.992188 2.28125 6 C 2.28125 6.003906 2.28125 6.003906 2.28125 6.007812 C 2.28125 6.015625 2.28125 6.023438 2.277344 6.027344 C 2.277344 6.03125 2.277344 6.03125 2.277344 6.035156 C 2.277344 6.046875 2.277344 6.054688 2.277344 6.0625 C 2.277344 6.066406 2.277344 6.066406 2.277344 6.066406 C 2.277344 6.074219 2.273438 6.078125 2.273438 6.085938 L 2.273438 6.3125 C 2.273438 6.304688 2.277344 6.300781 2.277344 6.292969 C 2.277344 6.292969 2.277344 6.289062 2.277344 6.289062 C 2.277344 6.28125 2.277344 6.269531 2.277344 6.261719 C 2.277344 6.261719 2.277344 6.257812 2.277344 6.257812 C 2.28125 6.246094 2.28125 6.242188 2.28125 6.234375 C 2.28125 6.230469 2.28125 6.226562 2.28125 6.226562 C 2.285156 6.21875 2.285156 6.214844 2.285156 6.210938 C 2.316406 6.082031 2.398438 5.964844 2.53125 5.902344 C 2.535156 5.898438 2.535156 5.898438 2.539062 5.898438 C 2.542969 5.898438 2.542969 5.894531 2.542969 5.894531 L 10.730469 2.257812 C 10.792969 2.230469 10.859375 2.21875 10.921875 2.21875 C 10.984375 2.21875 11.042969 2.234375 11.097656 2.257812 L 19.285156 5.894531 C 19.289062 5.898438 19.292969 5.898438 19.296875 5.898438 C 19.300781 5.902344 19.300781 5.902344 19.304688 5.90625 C 19.308594 5.90625 19.308594 5.90625 19.3125 5.90625 C 19.433594 5.972656 19.507812 6.078125 19.539062 6.191406 C 19.539062 6.195312 19.539062 6.195312 19.539062 6.195312 C 19.542969 6.199219 19.542969 6.203125 19.542969 6.210938 C 19.546875 6.214844 19.546875 6.21875 19.546875 6.222656 C 19.546875 6.226562 19.546875 6.230469 19.546875 6.234375 C 19.550781 6.242188 19.550781 6.25 19.550781 6.257812 C 19.550781 6.257812 19.550781 6.261719 19.550781 6.261719 C 19.554688 6.269531 19.554688 6.28125 19.554688 6.289062 C 19.554688 6.289062 19.554688 6.292969 19.554688 6.296875 C 19.554688 6.300781 19.554688 6.304688 19.554688 6.3125 L 19.554688 6.085938 C 19.554688 6.078125 19.554688 6.074219 19.554688 6.066406 C 19.554688 6.066406 19.554688 6.066406 19.554688 6.0625 C 19.554688 6.054688 19.554688 6.042969 19.550781 6.035156 C 19.550781 6.03125 19.550781 6.03125 19.550781 6.03125 C 19.550781 6.023438 19.550781 6.015625 19.546875 6.007812 C 19.546875 6.003906 19.546875 6 19.546875 6 C 19.546875 5.992188 19.546875 5.988281 19.542969 5.984375 C 19.542969 5.980469 19.542969 5.972656 19.539062 5.96875 C 19.507812 5.851562 19.433594 5.746094 19.3125 5.683594 C 19.308594 5.679688 19.308594 5.679688 19.304688 5.679688 C 19.300781 5.675781 19.300781 5.675781 19.296875 5.675781 C 19.292969 5.671875 19.289062 5.671875 19.285156 5.671875 C 19.285156 5.671875 19.285156 5.667969 19.285156 5.667969 L 11.097656 2.03125 C 11.042969 2.007812 10.984375 1.992188 10.921875 1.992188 Z M 10.921875 1.992188 "/>
<path style=" stroke:none;fill-rule:nonzero;fill:rgb(0%,0%,0%);fill-opacity:0.196078;" d="M 2.273438 14.957031 L 2.273438 15.179688 C 2.273438 15.34375 2.363281 15.496094 2.507812 15.578125 L 10.695312 20.125 C 10.699219 20.125 10.699219 20.128906 10.703125 20.128906 C 10.707031 20.132812 10.710938 20.132812 10.714844 20.136719 C 10.71875 20.136719 10.726562 20.140625 10.730469 20.144531 C 10.734375 20.144531 10.738281 20.144531 10.742188 20.148438 C 10.746094 20.148438 10.753906 20.152344 10.757812 20.15625 C 10.761719 20.15625 10.765625 20.15625 10.765625 20.15625 C 10.773438 20.160156 10.78125 20.160156 10.789062 20.164062 C 10.796875 20.167969 10.808594 20.167969 10.816406 20.171875 C 10.828125 20.171875 10.835938 20.175781 10.84375 20.175781 C 10.855469 20.179688 10.863281 20.179688 10.875 20.179688 C 10.882812 20.183594 10.890625 20.183594 10.902344 20.183594 C 10.90625 20.183594 10.910156 20.183594 10.914062 20.183594 C 10.917969 20.183594 10.925781 20.183594 10.929688 20.183594 C 10.9375 20.183594 10.945312 20.183594 10.957031 20.179688 C 10.964844 20.179688 10.976562 20.179688 10.984375 20.175781 C 10.996094 20.175781 11.003906 20.171875 11.011719 20.171875 C 11.023438 20.167969 11.03125 20.167969 11.039062 20.164062 C 11.039062 20.164062 11.039062 20.164062 11.042969 20.164062 C 11.046875 20.160156 11.054688 20.160156 11.0625 20.15625 C 11.066406 20.15625 11.070312 20.15625 11.070312 20.15625 C 11.078125 20.152344 11.082031 20.148438 11.089844 20.148438 C 11.09375 20.144531 11.09375 20.144531 11.097656 20.144531 C 11.101562 20.140625 11.109375 20.136719 11.117188 20.136719 C 11.117188 20.132812 11.121094 20.132812 11.125 20.128906 C 11.128906 20.128906 11.132812 20.125 11.136719 20.125 L 19.320312 15.578125 C 19.464844 15.496094 19.554688 15.34375 19.554688 15.179688 L 19.554688 14.957031 C 19.554688 15.121094 19.464844 15.273438 19.320312 15.351562 L 11.136719 19.902344 C 11.132812 19.902344 11.128906 19.90625 11.125 19.90625 C 11.121094 19.90625 11.117188 19.910156 11.117188 19.910156 C 11.109375 19.914062 11.101562 19.917969 11.097656 19.921875 C 11.09375 19.921875 11.09375 19.921875 11.089844 19.925781 C 11.082031 19.925781 11.078125 19.929688 11.070312 19.929688 C 11.070312 19.933594 11.066406 19.933594 11.0625 19.933594 C 11.054688 19.9375 11.046875 19.9375 11.042969 19.941406 C 11.039062 19.941406 11.039062 19.941406 11.039062 19.941406 C 11.03125 19.945312 11.023438 19.945312 11.011719 19.949219 C 11.003906 19.949219 10.996094 19.953125 10.984375 19.953125 C 10.976562 19.953125 10.964844 19.957031 10.957031 19.957031 C 10.945312 19.957031 10.9375 19.960938 10.929688 19.960938 C 10.925781 19.960938 10.917969 19.960938 10.914062 19.960938 C 10.910156 19.960938 10.90625 19.960938 10.902344 19.960938 C 10.890625 19.960938 10.882812 19.957031 10.875 19.957031 C 10.863281 19.957031 10.855469 19.953125 10.84375 19.953125 C 10.835938 19.953125 10.828125 19.949219 10.816406 19.949219 C 10.808594 19.945312 10.796875 19.945312 10.789062 19.941406 C 10.78125 19.9375 10.773438 19.9375 10.765625 19.933594 C 10.765625 19.933594 10.761719 19.933594 10.757812 19.929688 C 10.753906 19.929688 10.746094 19.925781 10.742188 19.925781 C 10.738281 19.921875 10.734375 19.921875 10.730469 19.921875 C 10.726562 19.917969 10.71875 19.914062 10.714844 19.910156 C 10.710938 19.910156 10.707031 19.90625 10.703125 19.90625 C 10.699219 19.902344 10.699219 19.902344 10.695312 19.902344 L 2.507812 15.351562 C 2.363281 15.273438 2.273438 15.121094 2.273438 14.957031 Z M 2.273438 14.957031 "/>
<path style=" stroke:none;fill-rule:nonzero;fill:rgb(100%,100%,100%);fill-opacity:0.313726;" d="M 2.273438 5.988281 L 2.273438 6.558594 L 10.6875 11.222656 L 10.6875 20.183594 L 11.148438 20.183594 L 11.148438 11.222656 L 19.554688 6.558594 L 19.554688 6.101562 L 19.453125 6.140625 L 10.914062 10.859375 L 2.378906 6.140625 Z M 2.273438 5.988281 "/>
<path style=" stroke:none;fill-rule:nonzero;fill:url(#linear2);" d="M 10.914062 1.992188 C 10.847656 1.992188 10.785156 2.003906 10.722656 2.03125 L 2.535156 5.667969 C 2.195312 5.820312 2.171875 6.300781 2.5 6.480469 L 10.6875 11.027344 C 10.824219 11.105469 10.992188 11.105469 11.128906 11.027344 L 19.3125 6.480469 C 19.640625 6.300781 19.621094 5.820312 19.277344 5.667969 L 11.089844 2.03125 C 11.035156 2.007812 10.976562 1.992188 10.914062 1.992188 Z M 10.914062 1.992188 "/>
<path style=" stroke:none;fill-rule:nonzero;fill:rgb(12.941177%,12.941177%,12.941177%);fill-opacity:1;" d="M 10.925781 1.929688 C 10.847656 1.925781 10.773438 1.941406 10.703125 1.972656 L 2.519531 5.609375 C 2.304688 5.707031 2.199219 5.917969 2.214844 6.121094 C 2.253906 6.109375 2.296875 6.101562 2.335938 6.097656 C 2.332031 5.949219 2.410156 5.800781 2.570312 5.726562 L 10.757812 2.089844 C 10.808594 2.066406 10.867188 2.054688 10.921875 2.058594 C 10.972656 2.058594 11.027344 2.070312 11.074219 2.089844 L 19.257812 5.726562 C 19.414062 5.796875 19.492188 5.941406 19.492188 6.085938 L 19.617188 6.085938 C 19.617188 5.890625 19.511719 5.699219 19.3125 5.609375 L 11.125 1.972656 C 11.0625 1.945312 10.992188 1.929688 10.925781 1.929688 Z M 10.925781 1.929688 "/>
<path style=" stroke:none;fill-rule:nonzero;fill:rgb(12.941177%,12.941177%,12.941177%);fill-opacity:1;" d="M 2.3125 5.777344 C 2.246094 5.863281 2.210938 5.96875 2.210938 6.085938 L 2.210938 15.179688 C 2.210938 15.367188 2.3125 15.542969 2.476562 15.632812 L 10.664062 20.179688 C 10.667969 20.183594 10.671875 20.1875 10.671875 20.1875 C 10.675781 20.1875 10.683594 20.191406 10.6875 20.191406 C 10.691406 20.195312 10.699219 20.199219 10.703125 20.203125 C 10.707031 20.203125 10.710938 20.203125 10.714844 20.207031 C 10.722656 20.207031 10.730469 20.210938 10.738281 20.214844 C 10.742188 20.21875 10.742188 20.21875 10.746094 20.21875 C 10.753906 20.222656 10.761719 20.222656 10.769531 20.226562 C 10.773438 20.226562 10.773438 20.226562 10.773438 20.226562 C 10.78125 20.230469 10.792969 20.230469 10.800781 20.234375 C 10.8125 20.238281 10.824219 20.238281 10.835938 20.242188 C 10.84375 20.242188 10.855469 20.242188 10.867188 20.246094 C 10.871094 20.246094 10.871094 20.246094 10.867188 20.246094 C 10.878906 20.246094 10.886719 20.246094 10.898438 20.246094 C 10.90625 20.246094 10.910156 20.246094 10.914062 20.246094 C 10.917969 20.246094 10.921875 20.246094 10.929688 20.246094 C 10.941406 20.246094 10.953125 20.246094 10.960938 20.246094 C 10.972656 20.242188 10.984375 20.242188 10.996094 20.242188 C 11.003906 20.238281 11.015625 20.238281 11.027344 20.234375 C 11.039062 20.230469 11.046875 20.230469 11.058594 20.226562 C 11.070312 20.222656 11.078125 20.222656 11.085938 20.21875 C 11.085938 20.21875 11.089844 20.21875 11.09375 20.214844 C 11.097656 20.210938 11.109375 20.207031 11.113281 20.207031 C 11.117188 20.203125 11.121094 20.203125 11.125 20.203125 C 11.132812 20.199219 11.136719 20.195312 11.144531 20.191406 C 11.148438 20.191406 11.152344 20.1875 11.15625 20.1875 C 11.15625 20.1875 11.160156 20.183594 11.167969 20.179688 L 19.351562 15.632812 C 19.515625 15.542969 19.621094 15.367188 19.621094 15.179688 L 19.621094 6.085938 C 19.621094 5.96875 19.582031 5.863281 19.519531 5.78125 L 19.40625 5.84375 C 19.460938 5.90625 19.492188 5.992188 19.492188 6.085938 L 19.492188 15.179688 C 19.492188 15.320312 19.414062 15.453125 19.289062 15.519531 L 11.105469 20.066406 C 11.105469 20.066406 11.101562 20.070312 11.097656 20.070312 C 11.09375 20.074219 11.089844 20.074219 11.085938 20.078125 C 11.082031 20.078125 11.078125 20.082031 11.074219 20.082031 C 11.070312 20.085938 11.066406 20.085938 11.0625 20.085938 C 11.058594 20.089844 11.050781 20.09375 11.046875 20.09375 C 11.046875 20.09375 11.046875 20.09375 11.042969 20.097656 C 11.035156 20.097656 11.03125 20.101562 11.023438 20.101562 C 11.015625 20.105469 11.007812 20.105469 11 20.109375 C 10.992188 20.109375 10.984375 20.113281 10.972656 20.113281 C 10.964844 20.113281 10.957031 20.117188 10.949219 20.117188 C 10.953125 20.117188 10.953125 20.117188 10.949219 20.117188 C 10.941406 20.117188 10.933594 20.117188 10.925781 20.117188 C 10.925781 20.117188 10.921875 20.117188 10.914062 20.117188 C 10.910156 20.117188 10.90625 20.117188 10.902344 20.117188 C 10.894531 20.117188 10.886719 20.117188 10.878906 20.117188 C 10.875 20.117188 10.875 20.117188 10.878906 20.117188 C 10.871094 20.117188 10.863281 20.113281 10.855469 20.113281 C 10.847656 20.113281 10.839844 20.109375 10.832031 20.109375 C 10.824219 20.105469 10.816406 20.105469 10.808594 20.101562 C 10.804688 20.101562 10.804688 20.101562 10.804688 20.101562 C 10.800781 20.101562 10.792969 20.097656 10.789062 20.097656 C 10.789062 20.097656 10.785156 20.097656 10.785156 20.097656 C 10.785156 20.09375 10.78125 20.09375 10.78125 20.09375 C 10.777344 20.09375 10.773438 20.089844 10.765625 20.085938 C 10.761719 20.085938 10.757812 20.085938 10.757812 20.082031 C 10.753906 20.082031 10.75 20.078125 10.742188 20.078125 C 10.742188 20.074219 10.738281 20.074219 10.734375 20.070312 C 10.730469 20.070312 10.726562 20.066406 10.726562 20.066406 L 2.539062 15.519531 C 2.414062 15.453125 2.339844 15.320312 2.339844 15.179688 L 2.339844 6.085938 C 2.339844 5.992188 2.371094 5.90625 2.421875 5.84375 Z M 2.3125 5.777344 "/>
<path style=" stroke:none;fill-rule:nonzero;fill:rgb(0%,0%,0%);fill-opacity:0.235294;" d="M 10.914062 2.289062 C 10.898438 2.285156 10.875 2.289062 10.859375 2.289062 L 10.859375 11.082031 C 10.878906 11.085938 10.898438 11.085938 10.914062 11.085938 C 10.933594 11.085938 10.953125 11.085938 10.972656 11.082031 L 10.972656 2.289062 C 10.953125 2.289062 10.933594 2.285156 10.914062 2.289062 Z M 10.535156 11.585938 C 10.542969 11.585938 10.546875 11.589844 10.554688 11.589844 C 10.546875 11.589844 10.542969 11.585938 10.535156 11.585938 Z M 10.683594 11.613281 C 10.6875 11.613281 10.691406 11.613281 10.695312 11.613281 C 10.691406 11.613281 10.6875 11.613281 10.683594 11.613281 Z M 10.683594 11.613281 "/>
<path style=" stroke:none;fill-rule:nonzero;fill:rgb(100%,100%,100%);fill-opacity:0.392157;" d="M 10.914062 1.992188 C 10.847656 1.992188 10.785156 2.003906 10.722656 2.03125 L 2.535156 5.667969 C 2.195312 5.820312 2.171875 6.300781 2.5 6.480469 L 2.679688 6.582031 C 2.441406 6.378906 2.484375 5.980469 2.789062 5.84375 L 10.730469 2.324219 C 10.785156 2.296875 10.851562 2.285156 10.914062 2.289062 C 10.972656 2.289062 11.03125 2.300781 11.085938 2.324219 L 19.027344 5.84375 C 19.332031 5.980469 19.375 6.378906 19.132812 6.582031 L 19.3125 6.480469 C 19.640625 6.300781 19.621094 5.820312 19.277344 5.667969 L 11.089844 2.03125 C 11.035156 2.007812 10.976562 1.992188 10.914062 1.992188 Z M 9.109375 10.152344 L 10.6875 11.027344 C 10.824219 11.105469 10.992188 11.105469 11.128906 11.027344 L 12.507812 10.261719 L 11.121094 11.03125 C 10.988281 11.101562 10.828125 11.101562 10.695312 11.03125 Z M 9.109375 10.152344 "/>
</g>
</svg>
