<?xml version="1.0" encoding="UTF-8"?>
<svg xmlns="http://www.w3.org/2000/svg" xmlns:xlink="http://www.w3.org/1999/xlink" width="96pt" height="96pt" viewBox="0 0 96 96" version="1.1">
<defs>
<linearGradient id="linear0" gradientUnits="userSpaceOnUse" x1="254" y1="233.5" x2="254" y2="254.666672" gradientTransform="matrix(0.187518,0,0,0.187518,-0.0000114452,36.347228)">
<stop offset="0" style="stop-color:rgb(0%,0%,0%);stop-opacity:0.27451;"/>
<stop offset="1" style="stop-color:rgb(0%,0%,0%);stop-opacity:0;"/>
</linearGradient>
<radialGradient id="radial0" gradientUnits="userSpaceOnUse" cx="450.908936" cy="189.579361" fx="450.908936" fy="189.579361" r="21.166656" gradientTransform="matrix(0.000000522511,-0.234397,-0.421915,-0.000000304616,160.361072,186.816871)">
<stop offset="0" style="stop-color:rgb(0%,0%,0%);stop-opacity:0.313725;"/>
<stop offset="0.222222" style="stop-color:rgb(0%,0%,0%);stop-opacity:0.27451;"/>
<stop offset="1" style="stop-color:rgb(0%,0%,0%);stop-opacity:0;"/>
</radialGradient>
<radialGradient id="radial1" gradientUnits="userSpaceOnUse" cx="450.908936" cy="189.579361" fx="450.908936" fy="189.579361" r="21.166656" gradientTransform="matrix(-0.000000522511,0.234397,0.421915,0.000000304616,-65.101984,-26.551564)">
<stop offset="0" style="stop-color:rgb(0%,0%,0%);stop-opacity:0.313725;"/>
<stop offset="0.222222" style="stop-color:rgb(0%,0%,0%);stop-opacity:0.27451;"/>
<stop offset="1" style="stop-color:rgb(0%,0%,0%);stop-opacity:0;"/>
</radialGradient>
<radialGradient id="radial2" gradientUnits="userSpaceOnUse" cx="450.908936" cy="189.579361" fx="450.908936" fy="189.579361" r="21.166656" gradientTransform="matrix(-0.000000522511,-0.234397,0.421915,-0.000000304616,-65.101984,186.816871)">
<stop offset="0" style="stop-color:rgb(0%,0%,0%);stop-opacity:0.313725;"/>
<stop offset="0.222222" style="stop-color:rgb(0%,0%,0%);stop-opacity:0.27451;"/>
<stop offset="1" style="stop-color:rgb(0%,0%,0%);stop-opacity:0;"/>
</radialGradient>
<radialGradient id="radial3" gradientUnits="userSpaceOnUse" cx="450.908936" cy="189.579361" fx="450.908936" fy="189.579361" r="21.166656" gradientTransform="matrix(0.000000522511,0.234397,-0.421915,0.000000304616,160.361066,-26.551565)">
<stop offset="0" style="stop-color:rgb(0%,0%,0%);stop-opacity:0.313725;"/>
<stop offset="0.222222" style="stop-color:rgb(0%,0%,0%);stop-opacity:0.27451;"/>
<stop offset="1" style="stop-color:rgb(0%,0%,0%);stop-opacity:0;"/>
</radialGradient>
<linearGradient id="linear1" gradientUnits="userSpaceOnUse" x1="305.954559" y1="-31.87709" x2="305.954559" y2="-135.329163" gradientTransform="matrix(0.226049,0,0,0.652236,-17.562039,100.924045)">
<stop offset="0" style="stop-color:rgb(56.470588%,79.215686%,97.647059%);stop-opacity:1;"/>
<stop offset="1" style="stop-color:rgb(73.333333%,87.058824%,98.431373%);stop-opacity:1;"/>
</linearGradient>
<linearGradient id="linear2" gradientUnits="userSpaceOnUse" x1="960" y1="1095.118164" x2="960" y2="255.118118" gradientTransform="matrix(0.264583,0,0,-0.264583,0,279.833099)">
<stop offset="0" style="stop-color:rgb(56.470588%,79.215686%,97.647059%);stop-opacity:1;"/>
<stop offset="1" style="stop-color:rgb(73.333333%,87.058824%,98.431373%);stop-opacity:1;"/>
</linearGradient>
<linearGradient id="linear3" gradientUnits="userSpaceOnUse" x1="960" y1="1095.118164" x2="960" y2="255.118118" gradientTransform="matrix(1,0,0,1,0,0)">
<stop offset="0" style="stop-color:rgb(56.470588%,79.215686%,97.647059%);stop-opacity:1;"/>
<stop offset="1" style="stop-color:rgb(73.333333%,87.058824%,98.431373%);stop-opacity:1;"/>
</linearGradient>
</defs>
<g id="surface1">
<path style=" stroke:none;fill-rule:nonzero;fill:url(#linear0);" d="M 13.890625 80.132812 L 81.367188 80.132812 L 81.367188 83.992188 L 13.890625 83.992188 Z M 13.890625 80.132812 "/>
<path style=" stroke:none;fill-rule:nonzero;fill:url(#radial0);" d="M 81.367188 80.132812 L 89.304688 80.132812 L 89.304688 76.164062 L 81.367188 76.164062 Z M 81.367188 80.132812 "/>
<path style=" stroke:none;fill-rule:nonzero;fill:url(#radial1);" d="M 13.890625 80.132812 L 5.953125 80.132812 L 5.953125 84.101562 L 13.890625 84.101562 Z M 13.890625 80.132812 "/>
<path style=" stroke:none;fill-rule:nonzero;fill:url(#radial2);" d="M 13.890625 80.132812 L 5.953125 80.132812 L 5.953125 76.164062 L 13.890625 76.164062 Z M 13.890625 80.132812 "/>
<path style=" stroke:none;fill-rule:nonzero;fill:url(#radial3);" d="M 81.367188 80.132812 L 89.304688 80.132812 L 89.304688 84.101562 L 81.367188 84.101562 Z M 81.367188 80.132812 "/>
<path style=" stroke:none;fill-rule:nonzero;fill:url(#linear1);" d="M 9.921875 12.65625 L 85.335938 12.65625 C 87.527344 12.65625 89.304688 14.433594 89.304688 16.625 L 89.304688 76.164062 C 89.304688 78.355469 87.527344 80.132812 85.335938 80.132812 L 9.921875 80.132812 C 7.730469 80.132812 5.953125 78.355469 5.953125 76.164062 L 5.953125 16.625 C 5.953125 14.433594 7.730469 12.65625 9.921875 12.65625 Z M 9.921875 12.65625 "/>
<path style="fill-rule:nonzero;fill:url(#linear2);stroke-width:3;stroke-linecap:square;stroke-linejoin:bevel;stroke:rgb(12.941177%,12.941177%,12.941177%);stroke-opacity:1;stroke-miterlimit:4;" d="M 52.911614 212.334192 C 41.183567 212.334192 31.746968 204.064148 31.746968 193.815127 L 232.831932 -4.624257 C 240.768674 -12.560999 247.393042 -16.539785 253.996578 -16.539785 C 260.620945 -16.539785 267.224481 -12.560999 275.161223 -4.624257 L 476.246187 193.815127 C 476.246187 204.064148 466.809589 212.334192 455.081542 212.334192 Z M 52.911614 212.334192 " transform="matrix(0.187518,0,0,0.187518,0,40.31635)"/>
<path style=" stroke:none;fill-rule:nonzero;fill:rgb(0%,0%,0%);fill-opacity:0.196078;" d="M 9.921875 80.132812 C 7.722656 80.132812 5.953125 78.363281 5.953125 76.164062 L 5.953125 75.667969 C 5.953125 77.867188 7.722656 79.636719 9.921875 79.636719 L 85.335938 79.636719 C 87.535156 79.636719 89.304688 77.867188 89.304688 75.667969 L 89.304688 76.164062 C 89.304688 78.363281 87.535156 80.132812 85.335938 80.132812 Z M 9.921875 80.132812 "/>
<path style=" stroke:none;fill-rule:nonzero;fill:rgb(90.196079%,90.196079%,90.196079%);fill-opacity:0.937255;" d="M 9.921875 12.65625 C 7.722656 12.65625 5.953125 14.425781 5.953125 16.625 L 5.953125 17.121094 C 5.953125 14.925781 7.722656 13.148438 9.921875 13.152344 L 85.335938 13.152344 C 87.535156 13.148438 89.304688 14.925781 89.304688 17.121094 L 89.304688 16.625 C 89.304688 14.425781 87.535156 12.65625 85.335938 12.65625 Z M 9.921875 12.65625 "/>
<path style=" stroke:none;fill-rule:nonzero;fill:rgb(12.941177%,12.941177%,12.941177%);fill-opacity:1;" d="M 9.921875 12.375 C 7.574219 12.375 5.671875 14.277344 5.671875 16.625 L 5.671875 76.164062 C 5.671875 78.511719 7.574219 80.414062 9.921875 80.414062 L 85.335938 80.414062 C 87.6875 80.414062 89.585938 78.511719 89.585938 76.164062 L 89.585938 16.625 C 89.585938 14.277344 87.6875 12.375 85.335938 12.375 Z M 9.921875 12.9375 L 85.335938 12.9375 C 87.382812 12.9375 89.023438 14.578125 89.023438 16.625 L 89.023438 76.164062 C 89.023438 78.210938 87.382812 79.851562 85.335938 79.851562 L 9.921875 79.851562 C 7.875 79.851562 6.234375 78.210938 6.234375 76.164062 L 6.234375 16.625 C 6.234375 14.578125 7.875 12.9375 9.921875 12.9375 Z M 9.921875 12.9375 "/>
<path style="fill-rule:nonzero;fill:url(#linear3);stroke-width:11.338583;stroke-linecap:square;stroke-linejoin:bevel;stroke:rgb(12.941177%,12.941177%,12.941177%);stroke-opacity:1;stroke-miterlimit:4;" d="M 199.980913 255.093763 C 155.654435 255.093763 119.988548 286.350623 119.988548 325.087083 L 879.994751 1075.094241 C 909.991888 1105.091378 935.028869 1120.129312 959.987116 1120.129312 C 985.024097 1120.129312 1009.982345 1105.091378 1039.979482 1075.094241 L 1799.985685 325.087083 C 1799.985685 286.350623 1764.319798 255.093763 1719.99332 255.093763 Z M 199.980913 255.093763 " transform="matrix(0.0496141,0,0,0.0496141,0,0)"/>
</g>
</svg>
