<?xml version="1.0" encoding="UTF-8"?>
<svg xmlns="http://www.w3.org/2000/svg" xmlns:xlink="http://www.w3.org/1999/xlink" width="96pt" height="96pt" viewBox="0 0 96 96" version="1.1">
<defs>
<radialGradient id="radial0" gradientUnits="userSpaceOnUse" cx="450.908936" cy="189.579361" fx="450.908936" fy="189.579361" r="21.166656" gradientTransform="matrix(0.000000522511,-0.234397,-0.421915,-0.000000304616,133.569456,190.785988)">
<stop offset="0" style="stop-color:rgb(0%,0%,0%);stop-opacity:0.313725;"/>
<stop offset="0.222222" style="stop-color:rgb(0%,0%,0%);stop-opacity:0.27451;"/>
<stop offset="1" style="stop-color:rgb(0%,0%,0%);stop-opacity:0;"/>
</radialGradient>
<radialGradient id="radial1" gradientUnits="userSpaceOnUse" cx="450.908936" cy="189.579361" fx="450.908936" fy="189.579361" r="21.166656" gradientTransform="matrix(-0.000000522511,0.234397,0.421915,0.000000304616,-38.310356,-22.582446)">
<stop offset="0" style="stop-color:rgb(0%,0%,0%);stop-opacity:0.313725;"/>
<stop offset="0.222222" style="stop-color:rgb(0%,0%,0%);stop-opacity:0.27451;"/>
<stop offset="1" style="stop-color:rgb(0%,0%,0%);stop-opacity:0;"/>
</radialGradient>
<radialGradient id="radial2" gradientUnits="userSpaceOnUse" cx="450.908936" cy="189.579361" fx="450.908936" fy="189.579361" r="21.166656" gradientTransform="matrix(-0.000000522511,-0.234397,0.421915,-0.000000304616,-38.310356,190.785988)">
<stop offset="0" style="stop-color:rgb(0%,0%,0%);stop-opacity:0.313725;"/>
<stop offset="0.222222" style="stop-color:rgb(0%,0%,0%);stop-opacity:0.27451;"/>
<stop offset="1" style="stop-color:rgb(0%,0%,0%);stop-opacity:0;"/>
</radialGradient>
<radialGradient id="radial3" gradientUnits="userSpaceOnUse" cx="450.908936" cy="189.579361" fx="450.908936" fy="189.579361" r="21.166656" gradientTransform="matrix(0.000000522511,0.234397,-0.421915,0.000000304616,133.56945,-22.582448)">
<stop offset="0" style="stop-color:rgb(0%,0%,0%);stop-opacity:0.313725;"/>
<stop offset="0.222222" style="stop-color:rgb(0%,0%,0%);stop-opacity:0.27451;"/>
<stop offset="1" style="stop-color:rgb(0%,0%,0%);stop-opacity:0;"/>
</radialGradient>
<linearGradient id="linear0" gradientUnits="userSpaceOnUse" x1="255.323059" y1="233.5" x2="255.323044" y2="254.666656" gradientTransform="matrix(0.0400802,0,0,0.187518,37.396158,40.316351)">
<stop offset="0" style="stop-color:rgb(0%,0%,0%);stop-opacity:0.27451;"/>
<stop offset="1" style="stop-color:rgb(0%,0%,0%);stop-opacity:0;"/>
</linearGradient>
<linearGradient id="linear1" gradientUnits="userSpaceOnUse" x1="254" y1="-168.666672" x2="254" y2="233.5" gradientTransform="matrix(1,0,0,1,0,0)">
<stop offset="0" style="stop-color:rgb(63.137255%,53.333333%,49.803922%);stop-opacity:1;"/>
<stop offset="1" style="stop-color:rgb(55.294118%,43.137255%,38.823529%);stop-opacity:1;"/>
</linearGradient>
<linearGradient id="linear2" gradientUnits="userSpaceOnUse" x1="254" y1="191.166672" x2="254" y2="148.833328" gradientTransform="matrix(1,0,0,1,0,0)">
<stop offset="0" style="stop-color:rgb(74.117647%,74.117647%,74.117647%);stop-opacity:1;"/>
<stop offset="1" style="stop-color:rgb(87.843137%,87.843137%,87.843137%);stop-opacity:1;"/>
</linearGradient>
<linearGradient id="linear3" gradientUnits="userSpaceOnUse" x1="254" y1="191.166672" x2="254" y2="148.833328" gradientTransform="matrix(1,0,0,1,84.666679,-31.75001)">
<stop offset="0" style="stop-color:rgb(74.117647%,74.117647%,74.117647%);stop-opacity:1;"/>
<stop offset="1" style="stop-color:rgb(87.843137%,87.843137%,87.843137%);stop-opacity:1;"/>
</linearGradient>
<linearGradient id="linear4" gradientUnits="userSpaceOnUse" x1="254" y1="191.166672" x2="254" y2="148.833328" gradientTransform="matrix(1,0,0,1,-84.666664,-31.75001)">
<stop offset="0" style="stop-color:rgb(74.117647%,74.117647%,74.117647%);stop-opacity:1;"/>
<stop offset="1" style="stop-color:rgb(87.843137%,87.843137%,87.843137%);stop-opacity:1;"/>
</linearGradient>
<linearGradient id="linear5" gradientUnits="userSpaceOnUse" x1="254" y1="85.333336" x2="254" y2="-94.583336" gradientTransform="matrix(3.779528,0,0,3.779528,0,812.59845)">
<stop offset="0" style="stop-color:rgb(74.117647%,74.117647%,74.117647%);stop-opacity:1;"/>
<stop offset="1" style="stop-color:rgb(87.843137%,87.843137%,87.843137%);stop-opacity:1;"/>
</linearGradient>
</defs>
<g id="surface1">
<path style=" stroke:none;fill-rule:nonzero;fill:url(#radial0);" d="M 54.574219 84.101562 L 62.515625 84.101562 L 62.515625 80.132812 L 54.574219 80.132812 Z M 54.574219 84.101562 "/>
<path style=" stroke:none;fill-rule:nonzero;fill:url(#radial1);" d="M 40.683594 84.101562 L 32.746094 84.101562 L 32.746094 88.070312 L 40.683594 88.070312 Z M 40.683594 84.101562 "/>
<path style=" stroke:none;fill-rule:nonzero;fill:url(#radial2);" d="M 40.683594 84.101562 L 32.746094 84.101562 L 32.746094 80.132812 L 40.683594 80.132812 Z M 40.683594 84.101562 "/>
<path style=" stroke:none;fill-rule:nonzero;fill:url(#radial3);" d="M 54.574219 84.101562 L 62.515625 84.101562 L 62.515625 88.070312 L 54.574219 88.070312 Z M 54.574219 84.101562 "/>
<path style=" stroke:none;fill-rule:nonzero;fill:url(#linear0);" d="M 40.683594 83.109375 L 54.574219 83.109375 L 54.574219 88.070312 L 40.683594 88.070312 Z M 40.683594 83.109375 "/>
<path style="fill-rule:nonzero;fill:url(#linear1);stroke-width:3;stroke-linecap:round;stroke-linejoin:miter;stroke:rgb(20%,20%,20%);stroke-opacity:1;stroke-miterlimit:4;" d="M 253.996578 -168.671091 C 365.048473 -168.671091 455.081542 -78.638022 455.081542 32.413873 C 455.081542 143.465768 365.048473 233.498837 253.996578 233.498837 C 142.944683 233.498837 52.911614 143.465768 52.911614 32.413873 C 52.911614 -78.638022 142.944683 -168.671091 253.996578 -168.671091 Z M 253.996578 -168.671091 " transform="matrix(0.187518,0,0,0.187518,0,40.31635)"/>
<path style=" stroke:none;fill-rule:nonzero;fill:rgb(0%,0%,0%);fill-opacity:0.196078;" d="M 47.628906 84.101562 C 26.738281 84.101562 9.921875 67.285156 9.921875 46.394531 C 9.921875 46.273438 9.925781 46.148438 9.925781 46.027344 C 10.121094 66.742188 26.863281 83.363281 47.628906 83.363281 C 68.394531 83.363281 85.136719 66.742188 85.332031 46.027344 C 85.335938 46.148438 85.335938 46.273438 85.335938 46.394531 C 85.335938 67.285156 68.519531 84.101562 47.628906 84.101562 Z M 47.628906 84.101562 "/>
<path style=" stroke:none;fill-rule:nonzero;fill:rgb(100%,100%,100%);fill-opacity:0.392157;" d="M 47.628906 8.6875 C 26.738281 8.6875 9.921875 25.503906 9.921875 46.394531 C 9.921875 46.519531 9.925781 46.640625 9.925781 46.765625 C 10.121094 26.046875 26.863281 9.425781 47.628906 9.425781 C 68.394531 9.425781 85.136719 26.046875 85.332031 46.765625 C 85.335938 46.640625 85.335938 46.519531 85.335938 46.394531 C 85.335938 25.503906 68.519531 8.6875 47.628906 8.6875 Z M 47.628906 8.6875 "/>
<path style=" stroke:none;fill-rule:nonzero;fill:rgb(12.941177%,12.941177%,12.941177%);fill-opacity:1;" d="M 47.628906 8.40625 C 26.589844 8.40625 9.640625 25.355469 9.640625 46.394531 C 9.640625 67.433594 26.589844 84.382812 47.628906 84.382812 C 68.671875 84.382812 85.617188 67.433594 85.617188 46.394531 C 85.617188 25.355469 68.671875 8.40625 47.628906 8.40625 Z M 47.628906 8.96875 C 68.367188 8.96875 85.054688 25.65625 85.054688 46.394531 C 85.054688 67.132812 68.367188 83.820312 47.628906 83.820312 C 26.890625 83.820312 10.203125 67.132812 10.203125 46.394531 C 10.203125 25.65625 26.890625 8.96875 47.628906 8.96875 Z M 47.628906 8.96875 "/>
<path style="fill-rule:nonzero;fill:url(#linear2);stroke-width:3;stroke-linecap:square;stroke-linejoin:bevel;stroke:rgb(12.941177%,12.941177%,12.941177%);stroke-opacity:1;stroke-miterlimit:4;" d="M 253.996578 148.840255 C 265.682962 148.840255 275.161223 158.318517 275.161223 170.004901 C 275.161223 181.691285 265.682962 191.169546 253.996578 191.169546 C 242.310194 191.169546 232.831932 181.691285 232.831932 170.004901 C 232.831932 158.318517 242.310194 148.840255 253.996578 148.840255 Z M 253.996578 148.840255 " transform="matrix(0.187518,0,0,0.187518,0,40.31635)"/>
<path style="fill-rule:nonzero;fill:url(#linear3);stroke-width:3;stroke-linecap:square;stroke-linejoin:bevel;stroke:rgb(12.941177%,12.941177%,12.941177%);stroke-opacity:1;stroke-miterlimit:4;" d="M 338.675991 117.093287 C 350.362375 117.093287 359.840637 126.550717 359.840637 138.257932 C 359.840637 149.944316 350.362375 159.422578 338.675991 159.422578 C 326.968776 159.422578 317.490515 149.944316 317.490515 138.257932 C 317.490515 126.550717 326.968776 117.093287 338.675991 117.093287 Z M 338.675991 117.093287 " transform="matrix(0.187518,0,0,0.187518,0,40.31635)"/>
<path style="fill-rule:nonzero;fill:url(#linear4);stroke-width:3;stroke-linecap:square;stroke-linejoin:bevel;stroke:rgb(12.941177%,12.941177%,12.941177%);stroke-opacity:1;stroke-miterlimit:4;" d="M 169.337996 117.093287 C 181.02438 117.093287 190.502641 126.550717 190.502641 138.257932 C 190.502641 149.944316 181.02438 159.422578 169.337996 159.422578 C 157.651612 159.422578 148.17335 149.944316 148.17335 138.257932 C 148.17335 126.550717 157.651612 117.093287 169.337996 117.093287 Z M 169.337996 117.093287 " transform="matrix(0.187518,0,0,0.187518,0,40.31635)"/>
<path style="fill-rule:nonzero;fill:url(#linear5);stroke-width:11.338583;stroke-linecap:square;stroke-linejoin:bevel;stroke:rgb(12.941177%,12.941177%,12.941177%);stroke-opacity:1;stroke-miterlimit:4;" d="M 1041.632867 475.072768 C 1040.766808 475.072768 1039.822016 475.072768 1038.955957 475.151501 C 1011.950661 475.702629 985.968889 489.953238 971.40335 515.147683 L 698.043613 988.724531 C 686.784845 1002.502744 680.013838 1020.138856 680.013838 1039.428353 C 680.013838 1062.182087 689.383022 1082.652574 704.578422 1097.139381 C 704.657155 1097.296846 704.735888 1097.375579 704.893353 1097.454311 C 705.444482 1098.00544 705.99561 1098.556568 706.625471 1099.028964 C 710.798301 1102.965596 715.52226 1106.429832 720.718614 1109.421673 C 736.858806 1118.712125 754.731116 1121.782698 771.8161 1119.420719 L 1159.96803 1119.420719 C 1204.294508 1119.420719 1240.039128 1083.754831 1240.039128 1039.428353 C 1240.039128 995.101875 1204.294508 959.435988 1159.96803 959.435988 L 899.677912 959.435988 L 994.550747 795.120962 L 1139.969938 795.120962 C 1184.296416 795.120962 1219.962304 761.817054 1219.962304 720.403684 L 1219.962304 709.85351 C 1219.962304 668.440139 1184.296416 635.136231 1139.969938 635.136231 L 1086.904137 635.136231 L 1109.972801 595.140049 C 1132.175407 556.797251 1119.105788 508.061745 1080.684258 485.85914 C 1068.323233 478.773202 1054.938684 475.230233 1041.632867 475.072768 Z M 1041.632867 475.072768 " transform="matrix(0.0496141,0,0,0.0496141,0,0)"/>
</g>
</svg>
