<?xml version="1.0" encoding="UTF-8"?>
<svg xmlns="http://www.w3.org/2000/svg" xmlns:xlink="http://www.w3.org/1999/xlink" width="96pt" height="96pt" viewBox="0 0 96 96" version="1.1">
<defs>
<radialGradient id="radial0" gradientUnits="userSpaceOnUse" cx="450.908936" cy="189.579361" fx="450.908936" fy="189.579361" r="21.166656" gradientTransform="matrix(0.000000522511,-0.234397,-0.421915,-0.000000304616,156.391936,190.785998)">
<stop offset="0" style="stop-color:rgb(0%,0%,0%);stop-opacity:0.313725;"/>
<stop offset="0.222222" style="stop-color:rgb(0%,0%,0%);stop-opacity:0.27451;"/>
<stop offset="1" style="stop-color:rgb(0%,0%,0%);stop-opacity:0;"/>
</radialGradient>
<radialGradient id="radial1" gradientUnits="userSpaceOnUse" cx="450.908936" cy="189.579361" fx="450.908936" fy="189.579361" r="21.166656" gradientTransform="matrix(-0.000000522511,0.234397,0.421915,0.000000304616,-1.595917,-22.582437)">
<stop offset="0" style="stop-color:rgb(0%,0%,0%);stop-opacity:0.313725;"/>
<stop offset="0.222222" style="stop-color:rgb(0%,0%,0%);stop-opacity:0.27451;"/>
<stop offset="1" style="stop-color:rgb(0%,0%,0%);stop-opacity:0;"/>
</radialGradient>
<radialGradient id="radial2" gradientUnits="userSpaceOnUse" cx="450.908936" cy="189.579361" fx="450.908936" fy="189.579361" r="21.166656" gradientTransform="matrix(-0.000000522511,-0.234397,0.421915,-0.000000304616,-1.595917,190.785998)">
<stop offset="0" style="stop-color:rgb(0%,0%,0%);stop-opacity:0.313725;"/>
<stop offset="0.222222" style="stop-color:rgb(0%,0%,0%);stop-opacity:0.27451;"/>
<stop offset="1" style="stop-color:rgb(0%,0%,0%);stop-opacity:0;"/>
</radialGradient>
<radialGradient id="radial3" gradientUnits="userSpaceOnUse" cx="450.908936" cy="189.579361" fx="450.908936" fy="189.579361" r="21.166656" gradientTransform="matrix(0.000000522511,0.234397,-0.421915,0.000000304616,156.39193,-22.582438)">
<stop offset="0" style="stop-color:rgb(0%,0%,0%);stop-opacity:0.313725;"/>
<stop offset="0.222222" style="stop-color:rgb(0%,0%,0%);stop-opacity:0.27451;"/>
<stop offset="1" style="stop-color:rgb(0%,0%,0%);stop-opacity:0;"/>
</radialGradient>
<radialGradient id="radial4" gradientUnits="userSpaceOnUse" cx="450.908936" cy="189.579361" fx="450.908936" fy="189.579361" r="21.166656" gradientTransform="matrix(0.000000522511,-0.234397,-0.421915,-0.000000304616,133.569456,190.785988)">
<stop offset="0" style="stop-color:rgb(0%,0%,0%);stop-opacity:0.313725;"/>
<stop offset="0.222222" style="stop-color:rgb(0%,0%,0%);stop-opacity:0.27451;"/>
<stop offset="1" style="stop-color:rgb(0%,0%,0%);stop-opacity:0;"/>
</radialGradient>
<radialGradient id="radial5" gradientUnits="userSpaceOnUse" cx="450.908936" cy="189.579361" fx="450.908936" fy="189.579361" r="21.166656" gradientTransform="matrix(-0.000000522511,0.234397,0.421915,0.000000304616,-38.310356,-22.582446)">
<stop offset="0" style="stop-color:rgb(0%,0%,0%);stop-opacity:0.313725;"/>
<stop offset="0.222222" style="stop-color:rgb(0%,0%,0%);stop-opacity:0.27451;"/>
<stop offset="1" style="stop-color:rgb(0%,0%,0%);stop-opacity:0;"/>
</radialGradient>
<radialGradient id="radial6" gradientUnits="userSpaceOnUse" cx="450.908936" cy="189.579361" fx="450.908936" fy="189.579361" r="21.166656" gradientTransform="matrix(-0.000000522511,-0.234397,0.421915,-0.000000304616,-38.310356,190.785988)">
<stop offset="0" style="stop-color:rgb(0%,0%,0%);stop-opacity:0.313725;"/>
<stop offset="0.222222" style="stop-color:rgb(0%,0%,0%);stop-opacity:0.27451;"/>
<stop offset="1" style="stop-color:rgb(0%,0%,0%);stop-opacity:0;"/>
</radialGradient>
<radialGradient id="radial7" gradientUnits="userSpaceOnUse" cx="450.908936" cy="189.579361" fx="450.908936" fy="189.579361" r="21.166656" gradientTransform="matrix(0.000000522511,0.234397,-0.421915,0.000000304616,133.56945,-22.582448)">
<stop offset="0" style="stop-color:rgb(0%,0%,0%);stop-opacity:0.313725;"/>
<stop offset="0.222222" style="stop-color:rgb(0%,0%,0%);stop-opacity:0.27451;"/>
<stop offset="1" style="stop-color:rgb(0%,0%,0%);stop-opacity:0;"/>
</radialGradient>
<linearGradient id="linear0" gradientUnits="userSpaceOnUse" x1="255.323059" y1="233.5" x2="255.323044" y2="254.666656" gradientTransform="matrix(0.0400802,0,0,0.187518,37.396158,40.316351)">
<stop offset="0" style="stop-color:rgb(0%,0%,0%);stop-opacity:0.27451;"/>
<stop offset="1" style="stop-color:rgb(0%,0%,0%);stop-opacity:0;"/>
</linearGradient>
<linearGradient id="linear1" gradientUnits="userSpaceOnUse" x1="254" y1="-168.666672" x2="254" y2="233.5" gradientTransform="matrix(0.187518,0,0,0.187518,0,40.31635)">
<stop offset="0" style="stop-color:rgb(50.588235%,78.039216%,51.764706%);stop-opacity:1;"/>
<stop offset="1" style="stop-color:rgb(29.803922%,68.627451%,31.372549%);stop-opacity:1;"/>
</linearGradient>
<linearGradient id="linear2" gradientUnits="userSpaceOnUse" x1="254" y1="233.5" x2="253.993759" y2="-173.525635" gradientTransform="matrix(0.185164,0,0,0.185164,0.295345,40.819)">
<stop offset="0" style="stop-color:rgb(78.431373%,90.196078%,78.823529%);stop-opacity:1;"/>
<stop offset="1" style="stop-color:rgb(90.980392%,96.078431%,91.372549%);stop-opacity:1;"/>
</linearGradient>
<clipPath id="clip1">
  <rect x="0" y="0" width="96" height="96"/>
</clipPath>
<g id="surface5" clip-path="url(#clip1)">
<path style=" stroke:none;fill-rule:nonzero;fill:url(#linear2);" d="M 47.695312 10.671875 C 44.796875 10.878906 41.964844 11.410156 39.199219 12.308594 C 38.210938 12.34375 36.066406 13.617188 37.796875 14.210938 C 38.601562 15.070312 40.523438 15.347656 40.289062 16.75 C 40.601562 17.984375 37.421875 17.929688 38.480469 19.046875 C 39.230469 20.035156 39.980469 21.023438 40.730469 22.011719 C 42.117188 21.566406 42.574219 20.148438 43.34375 19.054688 C 45.484375 18.109375 48.515625 17.824219 49.929688 16.007812 C 50.375 14.722656 50.816406 13.4375 51.261719 12.152344 C 50.070312 11.660156 48.882812 11.164062 47.695312 10.671875 Z M 37.390625 11.003906 C 36.0625 10.859375 35.214844 11.675781 34.222656 12.210938 C 33.003906 12.359375 31.625 12.816406 30.855469 13.796875 C 32.222656 14.417969 33.085938 13.753906 34.265625 13.285156 C 35.363281 12.722656 39.09375 12.488281 37.390625 11.003906 Z M 28.824219 14.945312 C 28.140625 15.988281 29.300781 17.496094 27.738281 18.042969 C 26.96875 19.019531 26.296875 20.621094 28.222656 20.039062 C 28.695312 18.59375 30.15625 16.5625 31.824219 17.410156 C 33.503906 17.863281 35.054688 20.683594 36.425781 18.449219 C 36.425781 17.867188 34.292969 17.527344 34.34375 16.105469 C 33.394531 15.699219 31.367188 16.4375 31.4375 14.960938 C 30.066406 14.351562 29.671875 17.382812 29.1875 15.6875 C 29.066406 15.441406 28.945312 15.191406 28.824219 14.945312 Z M 66.011719 16.257812 C 64.390625 16.582031 62.789062 16.953125 61.507812 18.066406 C 61.882812 19.550781 59.964844 19.800781 59.113281 20.625 C 58.496094 20.976562 59.125 23.671875 59.664062 23.253906 C 60.816406 21.734375 61.414062 23.042969 62.484375 23.792969 C 63.449219 24.6875 64.058594 22.132812 63.546875 21.410156 C 63.246094 20.25 64.710938 19.390625 65.234375 18.4375 C 66.84375 17.40625 65.484375 19.753906 65.433594 20.574219 C 64.621094 22.996094 69.03125 20.644531 66.125 22.457031 C 65.34375 23.234375 65.058594 24.386719 63.859375 24.964844 C 63.214844 25.753906 60.742188 25.382812 61.078125 24.152344 C 60.175781 22.738281 60.398438 25.851562 60.089844 25.839844 C 58.597656 25.390625 58.152344 27.0625 57.214844 27.859375 C 56.496094 28.683594 53.964844 28.171875 55.855469 29.449219 C 57.234375 31.039062 55.582031 30.746094 54.441406 31.167969 C 52.828125 31.445312 53.097656 32.851562 53.140625 34.117188 C 53.164062 34.816406 54.710938 35.851562 55.496094 35.367188 C 57.058594 35.199219 56.664062 33.277344 57.820312 32.691406 C 58.78125 31.871094 59.457031 31.109375 60.898438 31.089844 C 61.5625 31.726562 62.910156 32.683594 63.457031 33.203125 C 61.949219 34.84375 64.148438 34.710938 64.359375 33.214844 C 65.101562 32.390625 61.910156 30.453125 64.015625 31.304688 C 65.40625 31.765625 65.085938 33.1875 65.707031 34.148438 C 66.808594 36.011719 66.925781 34.621094 67.03125 33.179688 C 68.914062 32.503906 69.039062 36.566406 71.484375 35.691406 C 73.167969 35.734375 73.375 36.84375 71.945312 37.679688 C 70.933594 38.894531 69.082031 38.265625 67.8125 37.777344 C 66.660156 37.15625 65.25 37.503906 64.640625 38.6875 C 63.289062 37.519531 62.332031 35.667969 60.367188 35.5625 C 58.503906 35.46875 56.625 35.960938 54.832031 36.46875 C 52.785156 38.742188 49.539062 40.125 48.738281 43.308594 C 47.5625 44.484375 48.765625 45.414062 48.40625 46.34375 C 47.261719 47.359375 47.503906 48.503906 48.230469 49.691406 C 48.949219 52.460938 52.042969 53.402344 53.746094 55.445312 C 54.734375 54.46875 55.667969 53.515625 56.535156 54.683594 C 57.683594 53.664062 58.414062 53.527344 59.382812 54.425781 C 60.605469 54.625 62.230469 53.867188 62.996094 55.15625 C 64.121094 56 61.84375 57.636719 63.253906 58.441406 C 64.5625 59.277344 63.9375 60.820312 64.019531 62.101562 C 64.753906 63.253906 65.382812 64.398438 64.132812 65.441406 C 63.003906 68.605469 64.9375 71.578125 66.066406 74.457031 C 66.308594 75.699219 66.707031 76.925781 66.578125 78.207031 C 67.40625 76.910156 69.058594 77.546875 70.121094 76.382812 C 70.808594 75.4375 72.726562 74.539062 72.066406 73.238281 C 71.808594 72.210938 74.8125 71.679688 73.316406 70.6875 C 71.664062 69.722656 73.488281 68.988281 74.316406 68.230469 C 75.179688 67.574219 76.800781 66.855469 76.046875 65.546875 C 75.621094 63.785156 75.953125 61.933594 75.847656 60.132812 C 76.679688 58.457031 77.558594 56.820312 78.9375 55.53125 C 79.488281 53.714844 80.808594 52.050781 80.679688 50.105469 C 77.46875 51.066406 78.4375 49.695312 80.21875 48.394531 C 81.453125 47.488281 83.210938 46.644531 83.585938 45.097656 C 83.859375 43.570312 82.664062 41.203125 81.628906 43.445312 C 81.125 42.730469 79.351562 42.070312 79.375 40.949219 C 78.996094 38.6875 79.984375 40.042969 80.867188 41.113281 C 82.917969 39.59375 85.59375 45.304688 84.726562 41.230469 C 83.554688 32.40625 79.082031 24.070312 72.378906 18.214844 C 71.769531 18.867188 70.746094 21.300781 70.003906 19.894531 C 68.953125 18.78125 68.128906 17.773438 70.269531 18.1875 C 72.363281 17.621094 70.277344 17.289062 69.175781 17.160156 C 68.074219 17.03125 67.050781 16.625 66.011719 16.257812 Z M 24.964844 16.3125 C 23.578125 16.847656 25.65625 18.886719 23.167969 18.234375 C 20.441406 19.46875 18.625 22.46875 16.730469 24.804688 C 12.308594 31.050781 9.90625 38.6875 9.921875 46.339844 C 10.648438 47.835938 12.433594 48.34375 13.773438 49.171875 C 15.128906 49.636719 16.839844 49.566406 17.519531 51.066406 C 18.273438 51.859375 19.289062 52.921875 20.367188 53.007812 C 22.03125 52.476562 22.261719 53.980469 21.425781 55.09375 C 21.335938 56.3125 19.976562 57.296875 20.128906 58.371094 C 20.429688 59.574219 18.617188 60.894531 19.839844 61.996094 C 21.125 64.296875 22.5 66.527344 24.242188 68.511719 C 25.324219 69.460938 25.195312 70.765625 25.070312 72.070312 C 24.640625 73.449219 25.945312 74.246094 26.640625 75.242188 C 24.9375 78.367188 29.550781 78.992188 31.484375 80.355469 C 32.453125 79.46875 32.53125 78.03125 34.140625 77.992188 C 35.117188 77.308594 35.324219 75.761719 35.996094 74.734375 C 35.976562 73.644531 35.277344 72.625 36.410156 71.4375 C 37.308594 70.796875 38.871094 70.988281 39.183594 69.519531 C 40.210938 68.359375 39.269531 66.769531 39.296875 65.390625 C 40.128906 64.398438 41.585938 63.722656 42 62.515625 C 43.191406 59.894531 40.152344 59.59375 38.359375 58.664062 C 36.375 57.78125 34.058594 57.171875 33.46875 54.832031 C 32.710938 54.011719 30.695312 54.964844 30.664062 53.1875 C 30.457031 51.535156 29.34375 51.445312 27.949219 51.832031 C 26.582031 52.304688 26.128906 50.441406 25.214844 49.757812 C 24.410156 48.191406 23.484375 50.628906 22.617188 51.113281 C 21.8125 52.9375 19.097656 51.785156 18.984375 49.878906 C 19.1875 48.355469 18.847656 47.574219 17.203125 48.132812 C 17.828125 46.464844 17.6875 43.023438 15.875 45.65625 C 15.226562 46.8125 13.648438 46.394531 13.125 45.46875 C 13.046875 44.226562 12.796875 42.609375 13.609375 41.644531 C 14.609375 40.886719 15.527344 39.890625 16.898438 40.246094 C 17.332031 39.089844 18.378906 39.316406 19.671875 39.75 C 20.414062 40.773438 21.382812 42.648438 21.210938 40.296875 C 21.066406 38.929688 21.585938 37.921875 22.828125 37.304688 C 23.980469 36.660156 24.695312 35.703125 24.886719 34.386719 C 24.832031 32.59375 26.367188 33.070312 27.527344 32.785156 C 28.414062 31.542969 30.140625 31.949219 31.257812 31.296875 C 32.214844 30.105469 32.898438 29.0625 30.8125 29.5 C 29.542969 29.511719 27.621094 29.746094 29.664062 28.621094 C 30.519531 27.550781 31.695312 27.515625 32.9375 27.519531 C 33.875 27.128906 35.878906 27.027344 35.351562 25.652344 C 34.273438 24.765625 33.414062 24.746094 33.726562 23.289062 C 33.800781 21.164062 31.492188 23.371094 31.523438 22.429688 C 32.34375 21.363281 29.933594 20.183594 29.488281 20.722656 C 29.023438 21.855469 27.765625 22.835938 28.242188 24.148438 C 26.839844 24.375 26.183594 25.390625 25.761719 26.652344 C 25.34375 26.800781 25.480469 24.175781 23.871094 24.417969 C 22.734375 24.390625 21.328125 22.695312 22.527344 22.027344 C 24.164062 20.988281 26.207031 20.175781 27.242188 18.519531 C 27.839844 17.035156 26.738281 16.125 25.273438 16.335938 L 25.070312 16.320312 Z M 53.363281 17.484375 C 52.460938 18.191406 50.632812 17.703125 50.246094 18.382812 C 50.085938 19.753906 52.210938 19.730469 53.058594 18.976562 C 54.449219 18.460938 54.386719 18.554688 53.363281 17.484375 Z M 32.453125 18.726562 C 30.527344 19.289062 32.101562 20.550781 33.355469 20.535156 C 34.855469 20.414062 33.460938 18.734375 32.453125 18.726562 Z M 55.390625 22.503906 C 55.253906 23.730469 56.429688 24.496094 55.945312 25.832031 C 55.179688 27.511719 56.265625 28.015625 57.574219 26.984375 C 59.320312 25.914062 56.261719 23.570312 55.855469 22.503906 C 55.703125 22.503906 55.546875 22.503906 55.390625 22.503906 Z M 54.816406 24.476562 C 53.246094 24.089844 53.742188 27.375 54.820312 26.242188 C 55.984375 26.042969 54.867188 25.144531 54.816406 24.476562 Z M 34.777344 27.4375 C 35.007812 28.683594 35.09375 30.660156 36.003906 28.535156 C 36.003906 28.125 35.101562 27.800781 34.777344 27.4375 Z M 72.691406 40.25 C 74.535156 41.855469 75.285156 44.1875 76.324219 46.324219 C 77.871094 47.136719 76.957031 48.378906 77.171875 49.425781 C 79.328125 51.3125 74.988281 50.308594 75.515625 48.25 C 75.164062 45.859375 73.628906 44.261719 72.375 42.53125 C 72.277344 41.617188 71.292969 40.574219 72.691406 40.25 Z M 72.691406 40.25 "/>
</g>
<linearGradient id="linear3" gradientUnits="userSpaceOnUse" x1="656.152283" y1="1318.965088" x2="1136.984863" y2="838.132385" gradientTransform="matrix(0.187089,-0.187089,0.187089,0.187089,-30.855387,109.495247)">
<stop offset="0" style="stop-color:rgb(93.333333%,93.333333%,93.333333%);stop-opacity:1;"/>
<stop offset="1" style="stop-color:rgb(87.843137%,87.843137%,87.843137%);stop-opacity:1;"/>
</linearGradient>
</defs>
<g id="surface1">
<path style=" stroke:none;fill-rule:nonzero;fill:url(#radial0);" d="M 77.398438 84.101562 L 85.335938 84.101562 L 85.335938 80.132812 L 77.398438 80.132812 Z M 77.398438 84.101562 "/>
<path style=" stroke:none;fill-rule:nonzero;fill:url(#radial1);" d="M 77.398438 84.101562 L 69.460938 84.101562 L 69.460938 88.070312 L 77.398438 88.070312 Z M 77.398438 84.101562 "/>
<path style=" stroke:none;fill-rule:nonzero;fill:url(#radial2);" d="M 77.398438 84.101562 L 69.460938 84.101562 L 69.460938 80.132812 L 77.398438 80.132812 Z M 77.398438 84.101562 "/>
<path style=" stroke:none;fill-rule:nonzero;fill:url(#radial3);" d="M 77.398438 84.101562 L 85.335938 84.101562 L 85.335938 88.070312 L 77.398438 88.070312 Z M 77.398438 84.101562 "/>
<path style=" stroke:none;fill-rule:nonzero;fill:url(#radial4);" d="M 54.574219 84.101562 L 62.515625 84.101562 L 62.515625 80.132812 L 54.574219 80.132812 Z M 54.574219 84.101562 "/>
<path style=" stroke:none;fill-rule:nonzero;fill:url(#radial5);" d="M 40.683594 84.101562 L 32.746094 84.101562 L 32.746094 88.070312 L 40.683594 88.070312 Z M 40.683594 84.101562 "/>
<path style=" stroke:none;fill-rule:nonzero;fill:url(#radial6);" d="M 40.683594 84.101562 L 32.746094 84.101562 L 32.746094 80.132812 L 40.683594 80.132812 Z M 40.683594 84.101562 "/>
<path style=" stroke:none;fill-rule:nonzero;fill:url(#radial7);" d="M 54.574219 84.101562 L 62.515625 84.101562 L 62.515625 88.070312 L 54.574219 88.070312 Z M 54.574219 84.101562 "/>
<path style=" stroke:none;fill-rule:nonzero;fill:url(#linear0);" d="M 40.683594 83.109375 L 54.574219 83.109375 L 54.574219 88.070312 L 40.683594 88.070312 Z M 40.683594 83.109375 "/>
<path style=" stroke:none;fill-rule:nonzero;fill:url(#linear1);" d="M 47.628906 8.6875 C 68.453125 8.6875 85.335938 25.570312 85.335938 46.394531 C 85.335938 67.21875 68.453125 84.101562 47.628906 84.101562 C 26.804688 84.101562 9.921875 67.21875 9.921875 46.394531 C 9.921875 25.570312 26.804688 8.6875 47.628906 8.6875 Z M 47.628906 8.6875 "/>
<use xlink:href="#surface5"/>
<path style=" stroke:none;fill-rule:nonzero;fill:rgb(100%,100%,100%);fill-opacity:0.588235;" d="M 47.628906 8.6875 C 26.738281 8.6875 9.921875 25.503906 9.921875 46.394531 C 9.921875 46.519531 9.925781 46.640625 9.925781 46.765625 C 10.121094 26.046875 26.863281 9.425781 47.628906 9.425781 C 68.394531 9.425781 85.136719 26.046875 85.332031 46.765625 C 85.335938 46.640625 85.335938 46.519531 85.335938 46.394531 C 85.335938 25.503906 68.519531 8.6875 47.628906 8.6875 Z M 47.628906 8.6875 "/>
<path style=" stroke:none;fill-rule:nonzero;fill:rgb(12.941177%,12.941177%,12.941177%);fill-opacity:1;" d="M 47.628906 8.40625 C 26.589844 8.40625 9.640625 25.355469 9.640625 46.394531 C 9.640625 67.433594 26.589844 84.382812 47.628906 84.382812 C 68.671875 84.382812 85.617188 67.433594 85.617188 46.394531 C 85.617188 25.355469 68.671875 8.40625 47.628906 8.40625 Z M 47.628906 8.96875 C 68.367188 8.96875 85.054688 25.65625 85.054688 46.394531 C 85.054688 67.132812 68.367188 83.820312 47.628906 83.820312 C 26.890625 83.820312 10.203125 67.132812 10.203125 46.394531 C 10.203125 25.65625 26.890625 8.96875 47.628906 8.96875 Z M 47.628906 8.96875 "/>
<path style="fill-rule:nonzero;fill:url(#linear3);stroke-width:3;stroke-linecap:round;stroke-linejoin:miter;stroke:rgb(12.941177%,12.941177%,12.941177%);stroke-opacity:1;stroke-miterlimit:4;" d="M 273.182246 54.411772 C 271.328256 56.224099 271.328256 59.869585 271.349087 67.264712 C 271.369919 85.700451 278.806709 164.713739 293.763614 179.670644 C 302.054489 187.961519 315.40738 187.961519 323.698255 179.670644 L 338.675991 164.713739 L 398.920238 224.978817 C 407.211113 233.269692 420.564005 233.269692 428.85488 224.978817 L 443.832616 210.001081 C 452.123491 201.710206 452.123491 188.357315 443.832616 180.06644 L 383.567538 119.801361 L 398.545274 104.844456 C 406.836149 96.553581 406.836149 83.20069 398.545274 74.909815 C 383.567538 59.932079 304.991708 52.453626 286.222667 52.599446 C 278.765046 52.66194 275.036235 52.620277 273.182246 54.411772 Z M 273.182246 54.411772 " transform="matrix(0.187518,0,0,0.187518,0,40.31635)"/>
</g>
</svg>
