<svg xmlns="http://www.w3.org/2000/svg" width="16pt" height="16pt" viewBox="0 0 16 16"><defs><radialGradient id="a" gradientUnits="userSpaceOnUse" cx="450.909" cy="189.579" fx="450.909" fy="189.579" r="21.167" gradientTransform="matrix(0 -.03907 -.07032 0 22.262 31.798)"><stop offset="0" stop-opacity=".314"/><stop offset=".222" stop-opacity=".275"/><stop offset="1" stop-opacity="0"/></radialGradient><radialGradient id="b" gradientUnits="userSpaceOnUse" cx="450.909" cy="189.579" fx="450.909" fy="189.579" r="21.167" gradientTransform="matrix(0 .03907 .07032 0 -6.385 -3.764)"><stop offset="0" stop-opacity=".314"/><stop offset=".222" stop-opacity=".275"/><stop offset="1" stop-opacity="0"/></radialGradient><radialGradient id="c" gradientUnits="userSpaceOnUse" cx="450.909" cy="189.579" fx="450.909" fy="189.579" r="21.167" gradientTransform="matrix(0 -.03907 .07032 0 -6.385 31.798)"><stop offset="0" stop-opacity=".314"/><stop offset=".222" stop-opacity=".275"/><stop offset="1" stop-opacity="0"/></radialGradient><radialGradient id="d" gradientUnits="userSpaceOnUse" cx="450.909" cy="189.579" fx="450.909" fy="189.579" r="21.167" gradientTransform="matrix(0 .03907 -.07032 0 22.262 -3.764)"><stop offset="0" stop-opacity=".314"/><stop offset=".222" stop-opacity=".275"/><stop offset="1" stop-opacity="0"/></radialGradient><linearGradient id="e" gradientUnits="userSpaceOnUse" x1="255.323" y1="233.5" x2="255.323" y2="254.667" gradientTransform="matrix(.00668 0 0 .03125 6.233 6.72)"><stop offset="0" stop-opacity=".275"/><stop offset="1" stop-opacity="0"/></linearGradient><linearGradient id="f" gradientUnits="userSpaceOnUse" x1="254" y1="-168.667" x2="254" y2="233.5" gradientTransform="matrix(.03125 0 0 .03125 0 6.72)"><stop offset="0" stop-color="#64b5f6"/><stop offset="1" stop-color="#42a5f5"/></linearGradient><linearGradient id="g" gradientUnits="userSpaceOnUse" x1="960" y1="1695.118" x2="960" y2="175.118" gradientTransform="rotate(.882) scale(.00827)"><stop offset="0" stop-color="#e0e0e0"/><stop offset="1" stop-color="#eee"/></linearGradient></defs><path d="M9.098 14.016h1.32v-.66h-1.32zm0 0" fill="url(#a)"/><path d="M6.781 14.016H5.457v.664h1.324zm0 0" fill="url(#b)"/><path d="M6.781 14.016H5.457v-.66h1.324zm0 0" fill="url(#c)"/><path d="M9.098 14.016h1.32v.664h-1.32zm0 0" fill="url(#d)"/><path d="M6.781 13.852h2.317v.828H6.78zm0 0" fill="url(#e)"/><path d="M7.938 1.45a6.283 6.283 0 1 1 0 12.566 6.285 6.285 0 0 1-6.286-6.282A6.286 6.286 0 0 1 7.937 1.45zm0 0" fill="url(#f)"/><path d="M9.156 3.762c-.21.004-1.199.297-1.496.675-.816.06-3.848 2.086-6 3.586.012.23.035.461.067.684.765-.277 1.515-.52 1.867-.52.09 0 .156.02.183.055.176.207-.57 1.207-1.34 2.344l-.058.086c.074.14.152.277.238.41.918-1.14 1.875-2.273 2.18-2.324.02 0 .039 0 .05.008.055.066-.816 1.488-1.742 2.992.137.164.282.32.434.469.367-.508.742-1.024 1.113-1.54 1.157-1.597 2.18-3.093 2.68-3.105h.047c1.41.012 2.785 3.246 3.613 5.648.153-.085.301-.175.445-.27-.425-2.718-1.312-6.577-3.019-7.718.2-.133.215-.812.215-.812l.531-.668h-.008zm0 0" fill="url(#g)"/><path d="M7.938 13.977A6.273 6.273 0 0 1 1.652 7.69V7.63a6.273 6.273 0 0 0 6.285 6.223 6.27 6.27 0 0 0 6.286-6.223v.062a6.273 6.273 0 0 1-6.286 6.286zm0 0" fill-opacity=".196"/><path d="M7.938 1.488a6.273 6.273 0 0 0-6.286 6.285v.063a6.273 6.273 0 0 1 6.285-6.223 6.27 6.27 0 0 1 6.286 6.223v-.063a6.273 6.273 0 0 0-6.286-6.285zm0 0" fill="#fff" fill-opacity=".392"/><path d="M7.938 1.402a6.318 6.318 0 0 0-6.333 6.332 6.318 6.318 0 0 0 6.332 6.329 6.318 6.318 0 0 0 6.333-6.329 6.318 6.318 0 0 0-6.332-6.332zm0 .094a6.223 6.223 0 0 1 6.238 6.238 6.222 6.222 0 0 1-6.239 6.235A6.222 6.222 0 0 1 1.7 7.734a6.223 6.223 0 0 1 6.239-6.238zm0 0" fill="#212121"/><path d="M9.156 3.762c-.21.004-1.199.297-1.496.675-.816.06-3.848 2.086-6 3.586.004.055.008.106.008.16 2.152-1.5 5.176-3.519 5.992-3.581.254-.32 1.012-.582 1.356-.653l.148-.187h-.008zM8.5 5.3a.309.309 0 0 1-.082.11c1.68 1.116 2.559 4.859 2.996 7.566.008-.008.016-.012.024-.016-.418-2.672-1.282-6.45-2.938-7.66zM3.79 8.426c-.103.383-.72 1.226-1.353 2.16l-.058.086.047.094c.004-.004.008-.012.011-.016.754-1.105 1.481-2.086 1.352-2.324zm1.007.5h-.004c-.203.418-.93 1.597-1.688 2.832l.06.07c.901-1.469 1.737-2.832 1.683-2.894-.012-.008-.032-.008-.051-.008zm0 0" fill="#fff" fill-opacity=".984"/><path d="M9.184 4.113c-.055 0-.164.02-.297.059l-.227.285s-.02.68-.219.813c.047.027.09.062.133.093.078-.246.086-.582.086-.582l.531-.668h-.007zM7.359 7.61c-.5.012-1.523 1.504-2.68 3.106-.374.512-.745 1.027-1.113 1.539a5.18 5.18 0 0 1-.32-.336v.004c.145.16.297.316.457.46.324-.444.649-.898.977-1.343 1.156-1.601 2.18-3.094 2.68-3.105h.046c1.352.007 2.668 2.976 3.504 5.34a.768.768 0 0 0 .098-.051c-.832-2.399-2.2-5.602-3.602-5.614zm-3.738.606c-.351 0-1.101.242-1.867.52a6.143 6.143 0 0 1-.047-.376c-.004.004-.012.008-.02.016v.02c.024.218.06.437.102.648.754-.27 1.484-.504 1.832-.504a.35.35 0 0 1 .156.027c.059-.14.075-.246.028-.296-.032-.04-.094-.055-.184-.055zm1.203.57c-.304.05-1.261 1.184-2.183 2.324-.047-.078-.094-.152-.137-.23-.004 0-.004.004-.008.008.082.14.168.277.258.406.793-.977 1.59-1.914 1.957-2.137.117-.215.18-.344.164-.363-.012-.008-.031-.008-.05-.008zm0 0" fill-opacity=".235"/><path d="M9.156 3.762c-.21.004-1.199.297-1.496.676-.816.058-3.847 2.085-6 3.585.012.23.035.461.067.684.765-.277 1.515-.52 1.867-.52.09 0 .156.02.183.055.176.207-.57 1.207-1.34 2.344l-.058.086c.074.14.152.277.238.41.918-1.14 1.875-2.273 2.18-2.324.02 0 .039 0 .05.008.055.066-.816 1.488-1.742 2.992.137.164.282.32.434.469.367-.508.742-1.024 1.113-1.54 1.157-1.597 2.18-3.093 2.68-3.105h.047c1.41.012 2.785 3.246 3.613 5.648.153-.085.301-.175.446-.27-.426-2.718-1.313-6.577-3.02-7.718.2-.133.215-.812.215-.812l.531-.668h-.008zm0 0" fill="none" stroke-width=".09377353" stroke="#212121"/></svg>