<svg xmlns="http://www.w3.org/2000/svg" width="22pt" height="22pt" viewBox="0 0 22 22"><defs><linearGradient id="a" gradientUnits="userSpaceOnUse" x1="254" y1="233.5" x2="254" y2="254.667" gradientTransform="matrix(.04297 0 0 .04297 0 9.24)"><stop offset="0" stop-opacity=".275"/><stop offset="1" stop-opacity="0"/></linearGradient><radialGradient id="b" gradientUnits="userSpaceOnUse" cx="450.909" cy="189.579" fx="450.909" fy="189.579" r="21.167" gradientTransform="matrix(0 -.05372 -.09669 0 33.566 43.722)"><stop offset="0" stop-opacity=".314"/><stop offset=".222" stop-opacity=".275"/><stop offset="1" stop-opacity="0"/></radialGradient><radialGradient id="c" gradientUnits="userSpaceOnUse" cx="450.909" cy="189.579" fx="450.909" fy="189.579" r="21.167" gradientTransform="matrix(0 .05372 .09669 0 -11.736 -5.175)"><stop offset="0" stop-opacity=".314"/><stop offset=".222" stop-opacity=".275"/><stop offset="1" stop-opacity="0"/></radialGradient><radialGradient id="d" gradientUnits="userSpaceOnUse" cx="450.909" cy="189.579" fx="450.909" fy="189.579" r="21.167" gradientTransform="matrix(0 -.05372 .09669 0 -11.736 43.722)"><stop offset="0" stop-opacity=".314"/><stop offset=".222" stop-opacity=".275"/><stop offset="1" stop-opacity="0"/></radialGradient><radialGradient id="e" gradientUnits="userSpaceOnUse" cx="450.909" cy="189.579" fx="450.909" fy="189.579" r="21.167" gradientTransform="matrix(0 .05372 -.09669 0 33.566 -5.175)"><stop offset="0" stop-opacity=".314"/><stop offset=".222" stop-opacity=".275"/><stop offset="1" stop-opacity="0"/></radialGradient><linearGradient id="f" gradientUnits="userSpaceOnUse" x1="306.917" y1="-25.792" x2="305.955" y2="-141.415" gradientTransform="matrix(.0518 0 0 .14947 -4.025 23.128)"><stop offset="0" stop-color="#616161"/><stop offset="1" stop-color="#757575"/></linearGradient><linearGradient id="g" gradientUnits="userSpaceOnUse" x1="305.955" y1="-109.466" x2="305.955" y2="-141.415" gradientTransform="matrix(4.55614 0 0 13.14618 -353.973 2034.18)"><stop offset="0" stop-color="#9e9e9e"/><stop offset="1" stop-color="#e0e0e0"/></linearGradient><linearGradient id="h" gradientUnits="userSpaceOnUse" x1="201.083" y1="-147.5" x2="201.083" y2="-73.417"><stop offset="0" stop-color="#424242"/><stop offset="1" stop-color="#616161"/></linearGradient><linearGradient id="i" gradientUnits="userSpaceOnUse" x1="116.417" y1="-41.667" x2="116.417" y2="-9.917" gradientTransform="translate(0 52.917)"><stop offset="0" stop-color="#9e9e9e"/><stop offset="1" stop-color="#bdbdbd"/></linearGradient><linearGradient id="j" gradientUnits="userSpaceOnUse" x1="116.417" y1="-41.667" x2="116.417" y2="-9.917" gradientTransform="translate(0 105.833)"><stop offset="0" stop-color="#9e9e9e"/><stop offset="1" stop-color="#bdbdbd"/></linearGradient><linearGradient id="k" gradientUnits="userSpaceOnUse" x1="116.417" y1="-41.667" x2="116.417" y2="-9.917" gradientTransform="translate(74.083 52.917)"><stop offset="0" stop-color="#9e9e9e"/><stop offset="1" stop-color="#bdbdbd"/></linearGradient><linearGradient id="l" gradientUnits="userSpaceOnUse" x1="116.417" y1="-41.667" x2="116.417" y2="-9.917" gradientTransform="translate(74.083 105.833)"><stop offset="0" stop-color="#9e9e9e"/><stop offset="1" stop-color="#bdbdbd"/></linearGradient><linearGradient id="m" gradientUnits="userSpaceOnUse" x1="116.417" y1="-41.667" x2="116.417" y2="-9.917" gradientTransform="translate(148.167 105.833)"><stop offset="0" stop-color="#9e9e9e"/><stop offset="1" stop-color="#bdbdbd"/></linearGradient><linearGradient id="n" gradientUnits="userSpaceOnUse" x1="116.417" y1="-41.667" x2="116.417" y2="-9.917" gradientTransform="translate(243.417 52.917)"><stop offset="0" stop-color="#9e9e9e"/><stop offset="1" stop-color="#bdbdbd"/></linearGradient><linearGradient id="o" gradientUnits="userSpaceOnUse" x1="116.417" y1="-41.667" x2="116.417" y2="-9.917" gradientTransform="translate(243.417 105.833)"><stop offset="0" stop-color="#9e9e9e"/><stop offset="1" stop-color="#bdbdbd"/></linearGradient><linearGradient id="p" gradientUnits="userSpaceOnUse" x1="116.417" y1="-41.667" x2="116.417" y2="-9.917" gradientTransform="translate(0 158.75)"><stop offset="0" stop-color="#9e9e9e"/><stop offset="1" stop-color="#bdbdbd"/></linearGradient><linearGradient id="q" gradientUnits="userSpaceOnUse" x1="116.417" y1="-41.667" x2="116.417" y2="-9.917" gradientTransform="translate(243.417 158.75)"><stop offset="0" stop-color="#9e9e9e"/><stop offset="1" stop-color="#bdbdbd"/></linearGradient><linearGradient id="r" gradientUnits="userSpaceOnUse" x1="116.417" y1="-41.667" x2="116.417" y2="-9.917" gradientTransform="translate(74.083 158.75)"><stop offset="0" stop-color="#9e9e9e"/><stop offset="1" stop-color="#bdbdbd"/></linearGradient><linearGradient id="s" gradientUnits="userSpaceOnUse" x1="116.417" y1="-41.667" x2="116.417" y2="-9.917" gradientTransform="translate(74.083 211.667)"><stop offset="0" stop-color="#9e9e9e"/><stop offset="1" stop-color="#bdbdbd"/></linearGradient><linearGradient id="t" gradientUnits="userSpaceOnUse" x1="116.417" y1="-41.667" x2="116.417" y2="-9.917" gradientTransform="translate(148.167 158.75)"><stop offset="0" stop-color="#9e9e9e"/><stop offset="1" stop-color="#bdbdbd"/></linearGradient><linearGradient id="u" gradientUnits="userSpaceOnUse" x1="116.417" y1="-41.667" x2="116.417" y2="-9.917" gradientTransform="translate(243.417 211.667)"><stop offset="0" stop-color="#9e9e9e"/><stop offset="1" stop-color="#bdbdbd"/></linearGradient><linearGradient id="v" gradientUnits="userSpaceOnUse" x1="116.417" y1="-41.667" x2="116.417" y2="-9.917" gradientTransform="translate(148.167 211.667)"><stop offset="0" stop-color="#9e9e9e"/><stop offset="1" stop-color="#bdbdbd"/></linearGradient><linearGradient id="w" gradientUnits="userSpaceOnUse" x1="116.417" y1="-41.667" x2="116.417" y2="-9.917" gradientTransform="translate(0 211.667)"><stop offset="0" stop-color="#9e9e9e"/><stop offset="1" stop-color="#bdbdbd"/></linearGradient><linearGradient id="x" gradientUnits="userSpaceOnUse" x1="116.417" y1="-41.667" x2="116.417" y2="-9.917"><stop offset="0" stop-color="#ef5350"/><stop offset="1" stop-color="#e57373"/></linearGradient><linearGradient id="y" gradientUnits="userSpaceOnUse" x1="116.417" y1="-41.667" x2="116.417" y2="-9.917" gradientTransform="translate(148.167 52.917)"><stop offset="0" stop-color="#9e9e9e"/><stop offset="1" stop-color="#bdbdbd"/></linearGradient><linearGradient id="z" gradientUnits="userSpaceOnUse" x1="116.417" y1="-41.667" x2="116.417" y2="-9.917" gradientTransform="translate(74.083)"><stop offset="0" stop-color="#ef5350"/><stop offset="1" stop-color="#e57373"/></linearGradient><linearGradient id="A" gradientUnits="userSpaceOnUse" x1="116.417" y1="-41.667" x2="116.417" y2="-9.917" gradientTransform="translate(148.167)"><stop offset="0" stop-color="#ef5350"/><stop offset="1" stop-color="#e57373"/></linearGradient><linearGradient id="B" gradientUnits="userSpaceOnUse" x1="116.417" y1="-41.667" x2="116.417" y2="-9.917" gradientTransform="translate(243.417)"><stop offset="0" stop-color="#9e9e9e"/><stop offset="1" stop-color="#bdbdbd"/></linearGradient><linearGradient id="C" gradientUnits="userSpaceOnUse" x1="1380" y1="495.118" x2="1380" y2="275.118"><stop offset="0" stop-color="#80cbc4"/><stop offset="1" stop-color="#b2dfdb"/></linearGradient></defs><path d="M6.367 19.273h9.098v.91H6.367zm0 0" fill="url(#a)"/><path d="M15.465 19.273h1.816v-.91h-1.816zm0 0" fill="url(#b)"/><path d="M6.367 19.273h-1.82v.91h1.82zm0 0" fill="url(#c)"/><path d="M6.367 19.273h-1.82v-.91h1.82zm0 0" fill="url(#d)"/><path d="M15.465 19.273h1.816v.91h-1.816zm0 0" fill="url(#e)"/><path d="M4.547 1.992H17.28c.504 0 .91.406.91.91v15.461c0 .504-.406.91-.91.91H4.547c-.5 0-.91-.406-.91-.91V2.903c0-.505.41-.91.91-.91zm0 0" fill="url(#f)"/><path d="M4.547 19.273a.909.909 0 0 1-.91-.91v-.113c0 .504.406.91.91.91H17.28c.504 0 .91-.406.91-.91v.113c0 .504-.406.91-.91.91zm0 0" fill-opacity=".196"/><path d="M399.905 175.216c-44.32 0-80.05 35.73-80.05 80.05v339.781h1280.107V255.266c0-44.32-35.73-80.05-80.05-80.05zm0 0" transform="rotate(.24) scale(.01137)" fill="url(#g)" stroke-width="11.339" stroke-linecap="round" stroke="#212121"/><path d="M4.547 1.992a.909.909 0 0 0-.91.91v.114c0-.504.406-.91.91-.91H17.28c.504 0 .91.406.91.91v-.114a.909.909 0 0 0-.91-.91zm0 0" fill="#e6e6e6" fill-opacity=".937"/><path d="M116.443-147.461H391.6c5.818 0 10.544 4.727 10.544 10.544v52.904c0 5.818-4.726 10.636-10.544 10.636H116.443c-5.908 0-10.635-4.818-10.635-10.636v-52.904c0-5.817 4.727-10.544 10.635-10.544zm0 0" transform="matrix(.04297 0 0 .04297 0 9.24)" fill="url(#h)" stroke-width="3" stroke-linecap="round" stroke="#212121"/><path d="M116.443 11.251h31.725c5.817 0 10.544 4.727 10.544 10.545V32.43c0 5.818-4.727 10.544-10.544 10.544h-31.725c-5.908 0-10.635-4.726-10.635-10.544V21.796c0-5.818 4.727-10.545 10.635-10.545zm0 0" transform="matrix(.04297 0 0 .04297 0 9.24)" fill="url(#i)" stroke-width="3" stroke-linecap="round" stroke="#212121"/><path d="M116.443 64.155h31.725c5.817 0 10.544 4.727 10.544 10.636v10.544c0 5.818-4.727 10.544-10.544 10.544h-31.725c-5.908 0-10.635-4.726-10.635-10.544V74.791a10.591 10.591 0 0 1 10.635-10.636zm0 0" transform="matrix(.04297 0 0 .04297 0 9.24)" fill="url(#j)" stroke-width="3" stroke-linecap="round" stroke="#212121"/><path d="M190.527 11.251h31.725c5.817 0 10.544 4.727 10.544 10.545V32.43c0 5.818-4.727 10.544-10.544 10.544h-31.725c-5.908 0-10.635-4.726-10.635-10.544V21.796c0-5.818 4.727-10.545 10.635-10.545zm0 0" transform="matrix(.04297 0 0 .04297 0 9.24)" fill="url(#k)" stroke-width="3" stroke-linecap="round" stroke="#212121"/><path d="M190.527 64.155h31.725c5.817 0 10.544 4.727 10.544 10.636v10.544c0 5.818-4.727 10.544-10.544 10.544h-31.725c-5.908 0-10.635-4.726-10.635-10.544V74.791a10.591 10.591 0 0 1 10.635-10.636zm0 0" transform="matrix(.04297 0 0 .04297 0 9.24)" fill="url(#l)" stroke-width="3" stroke-linecap="round" stroke="#212121"/><path d="M264.611 64.155h31.724c5.818 0 10.545 4.727 10.545 10.636v10.544c0 5.818-4.727 10.544-10.545 10.544h-31.724c-5.908 0-10.635-4.726-10.635-10.544V74.791a10.591 10.591 0 0 1 10.635-10.636zm0 0" transform="matrix(.04297 0 0 .04297 0 9.24)" fill="url(#m)" stroke-width="3" stroke-linecap="round" stroke="#212121"/><path d="M359.875 11.251h31.724c5.818 0 10.544 4.727 10.544 10.545V32.43c0 5.818-4.726 10.544-10.544 10.544h-31.724c-5.909 0-10.636-4.726-10.636-10.544V21.796c0-5.818 4.727-10.545 10.636-10.545zm0 0" transform="matrix(.04297 0 0 .04297 0 9.24)" fill="url(#n)" stroke-width="3" stroke-linecap="round" stroke="#212121"/><path d="M359.875 64.155h31.724c5.818 0 10.544 4.727 10.544 10.636v10.544c0 5.818-4.726 10.544-10.544 10.544h-31.724c-5.909 0-10.636-4.726-10.636-10.544V74.791a10.591 10.591 0 0 1 10.636-10.636zm0 0" transform="matrix(.04297 0 0 .04297 0 9.24)" fill="url(#o)" stroke-width="3" stroke-linecap="round" stroke="#212121"/><path d="M116.443 117.06h31.725c5.817 0 10.544 4.726 10.544 10.635v10.544c0 5.818-4.727 10.635-10.544 10.635h-31.725c-5.908 0-10.635-4.817-10.635-10.635v-10.544a10.591 10.591 0 0 1 10.635-10.636zm0 0" transform="matrix(.04297 0 0 .04297 0 9.24)" fill="url(#p)" stroke-width="3" stroke-linecap="round" stroke="#212121"/><path d="M359.875 117.06h31.724c5.818 0 10.544 4.726 10.544 10.635v10.544c0 5.818-4.726 10.635-10.544 10.635h-31.724c-5.909 0-10.636-4.817-10.636-10.635v-10.544a10.591 10.591 0 0 1 10.636-10.636zm0 0" transform="matrix(.04297 0 0 .04297 0 9.24)" fill="url(#q)" stroke-width="3" stroke-linecap="round" stroke="#212121"/><path d="M190.527 117.06h31.725c5.817 0 10.544 4.726 10.544 10.635v10.544c0 5.818-4.727 10.635-10.544 10.635h-31.725c-5.908 0-10.635-4.817-10.635-10.635v-10.544a10.591 10.591 0 0 1 10.635-10.636zm0 0" transform="matrix(.04297 0 0 .04297 0 9.24)" fill="url(#r)" stroke-width="3" stroke-linecap="round" stroke="#212121"/><path d="M190.527 169.963h31.725c5.817 0 10.544 4.818 10.544 10.636v10.544c0 5.909-4.727 10.635-10.544 10.635h-31.725a10.591 10.591 0 0 1-10.635-10.635v-10.544c0-5.818 4.727-10.636 10.635-10.636zm0 0" transform="matrix(.04297 0 0 .04297 0 9.24)" fill="url(#s)" stroke-width="3" stroke-linecap="round" stroke="#212121"/><path d="M264.611 117.06h31.724c5.818 0 10.545 4.726 10.545 10.635v10.544c0 5.818-4.727 10.635-10.545 10.635h-31.724c-5.908 0-10.635-4.817-10.635-10.635v-10.544a10.591 10.591 0 0 1 10.635-10.636zm0 0" transform="matrix(.04297 0 0 .04297 0 9.24)" fill="url(#t)" stroke-width="3" stroke-linecap="round" stroke="#212121"/><path d="M359.875 169.963h31.724c5.818 0 10.544 4.818 10.544 10.636v10.544c0 5.909-4.726 10.635-10.544 10.635h-31.724a10.591 10.591 0 0 1-10.636-10.635v-10.544c0-5.818 4.727-10.636 10.636-10.636zm0 0" transform="matrix(.04297 0 0 .04297 0 9.24)" fill="url(#u)" stroke-width="3" stroke-linecap="round" stroke="#212121"/><path d="M264.611 169.963h31.724c5.818 0 10.545 4.818 10.545 10.636v10.544c0 5.909-4.727 10.635-10.545 10.635h-31.724a10.591 10.591 0 0 1-10.635-10.635v-10.544c0-5.818 4.727-10.636 10.635-10.636zm0 0" transform="matrix(.04297 0 0 .04297 0 9.24)" fill="url(#v)" stroke-width="3" stroke-linecap="round" stroke="#212121"/><path d="M116.443 169.963h31.725c5.817 0 10.544 4.818 10.544 10.636v10.544c0 5.909-4.727 10.635-10.544 10.635h-31.725a10.591 10.591 0 0 1-10.635-10.635v-10.544c0-5.818 4.727-10.636 10.635-10.636zm0 0" transform="matrix(.04297 0 0 .04297 0 9.24)" fill="url(#w)" stroke-width="3" stroke-linecap="round" stroke="#212121"/><path d="M116.443-41.653h31.725c5.817 0 10.544 4.727 10.544 10.545v10.635c0 5.818-4.727 10.544-10.544 10.544h-31.725c-5.908 0-10.635-4.726-10.635-10.544v-10.635c0-5.818 4.727-10.545 10.635-10.545zm0 0" transform="matrix(.04297 0 0 .04297 0 9.24)" fill="url(#x)" stroke-width="3" stroke-linecap="round" stroke="#212121"/><path d="M264.611 11.251h31.724c5.818 0 10.545 4.727 10.545 10.545V32.43c0 5.818-4.727 10.544-10.545 10.544h-31.724c-5.908 0-10.635-4.726-10.635-10.544V21.796c0-5.818 4.727-10.545 10.635-10.545zm0 0" transform="matrix(.04297 0 0 .04297 0 9.24)" fill="url(#y)" stroke-width="3" stroke-linecap="round" stroke="#212121"/><path d="M190.527-41.653h31.725c5.817 0 10.544 4.727 10.544 10.545v10.635c0 5.818-4.727 10.544-10.544 10.544h-31.725c-5.908 0-10.635-4.726-10.635-10.544v-10.635c0-5.818 4.727-10.545 10.635-10.545zm0 0" transform="matrix(.04297 0 0 .04297 0 9.24)" fill="url(#z)" stroke-width="3" stroke-linecap="round" stroke="#212121"/><path d="M264.611-41.653h31.724c5.818 0 10.545 4.727 10.545 10.545v10.635c0 5.818-4.727 10.544-10.545 10.544h-31.724c-5.908 0-10.635-4.726-10.635-10.544v-10.635c0-5.818 4.727-10.545 10.635-10.545zm0 0" transform="matrix(.04297 0 0 .04297 0 9.24)" fill="url(#A)" stroke-width="3" stroke-linecap="round" stroke="#212121"/><path d="M359.875-41.653h31.724c5.818 0 10.544 4.727 10.544 10.545v10.635c0 5.818-4.726 10.544-10.544 10.544h-31.724c-5.909 0-10.636-4.726-10.636-10.544v-10.635c0-5.818 4.727-10.545 10.636-10.545zm0 0" transform="matrix(.04297 0 0 .04297 0 9.24)" fill="url(#B)" stroke-width="3" stroke-linecap="round" stroke="#212121"/><path d="M1339.886 275.192c-21.987 0-39.853 17.865-39.853 39.853v60.123h39.853v-40.196c0-10.994 8.933-19.927 20.27-19.927v-39.853zm40.197 0v39.853c10.994 0 17.865 9.276 19.927 19.927v40.196h39.853v-60.123c0-21.988-17.866-39.853-39.853-39.853zm-80.05 119.903v60.123c0 21.988 17.866 39.853 39.853 39.853h20.27v-39.853c-11.337 0-20.27-8.933-20.27-20.27v-39.853zm99.977 0v39.853c0 11.337-8.933 20.27-19.927 20.27v39.853h19.927c21.987 0 37.448-17.865 39.853-39.853v-60.123zm0 0" transform="rotate(.24) scale(.01137)" fill="url(#C)" stroke-width="11.339" stroke-linecap="round" stroke="#212121"/><path d="M4.547 1.926a.974.974 0 0 0-.973.976v15.461c0 .54.434.973.973.973H17.28c.54 0 .977-.434.977-.973V2.903a.977.977 0 0 0-.977-.977zm0 .129H17.28c.469 0 .848.375.848.847v15.461a.844.844 0 0 1-.848.844H4.547a.84.84 0 0 1-.844-.844V2.903c0-.473.375-.848.844-.848zm0 0" fill="#212121"/></svg>