<svg height="22pt" viewBox="0 0 22 22" width="22pt" xmlns="http://www.w3.org/2000/svg" xmlns:xlink="http://www.w3.org/1999/xlink"><linearGradient id="a"><stop offset="0" stop-opacity=".314"/><stop offset=".222" stop-opacity=".275"/><stop offset="1" stop-opacity="0"/></linearGradient><radialGradient id="b" cx="450.909" cy="189.579" gradientTransform="matrix(0 -.05372 -.09669 0 36.75 43.38)" gradientUnits="userSpaceOnUse" r="21.167" xlink:href="#a"/><radialGradient id="c" cx="450.909" cy="189.579" gradientTransform="matrix(0 .05372 .09669 0 -14.92 -5.516)" gradientUnits="userSpaceOnUse" r="21.167" xlink:href="#a"/><radialGradient id="d" cx="450.909" cy="189.579" gradientTransform="matrix(0 -.05372 .09669 0 -14.92 43.38)" gradientUnits="userSpaceOnUse" r="21.167" xlink:href="#a"/><radialGradient id="e" cx="450.909" cy="189.579" gradientTransform="matrix(0 .05372 -.09669 0 36.75 -5.516)" gradientUnits="userSpaceOnUse" r="21.167" xlink:href="#a"/><linearGradient id="f" gradientTransform="matrix(.00919 0 0 .04297 2.43 8.898)" gradientUnits="userSpaceOnUse" x1="255.323" x2="255.323" y1="233.5" y2="254.667"><stop offset="0" stop-opacity=".275"/><stop offset="1" stop-opacity="0"/></linearGradient><linearGradient id="g" gradientTransform="matrix(.0113699 .00004763 -.00004763 .0113699 0 0)" gradientUnits="userSpaceOnUse" x1="1080" x2="1080" y1="1655.118" y2="215.118"><stop offset="0" stop-color="#f44336"/><stop offset="1" stop-color="#ef5350"/></linearGradient><path d="m18.648 18.934h1.817v-.91h-1.817zm0 0" fill="url(#b)"/><path d="m3.184 18.934h-1.82v.91h1.82zm0 0" fill="url(#c)"/><path d="m3.184 18.934h-1.82v-.91h1.82zm0 0" fill="url(#d)"/><path d="m18.648 18.934h1.817v.91h-1.817zm0 0" fill="url(#e)"/><path d="m3.184 18.477h15.464v1.367h-15.464zm0 0" fill="url(#f)"/><path d="m10.941 2.438h-.007l.004.011a.911.911 0 0 0 -.797.461l-8.414 14.574a.92.92 0 0 0 -.114.602.9.9 0 0 1 .114-.32l8.413-14.576c.171-.3.48-.464.796-.46l-.003-.016h.011c.309 0 .617.168.785.46l8.415 14.575c.058.102.097.21.113.324a.931.931 0 0 0 -.113-.605l-8.414-14.569a.905.905 0 0 0 -.785-.462h-.004zm-2.718 11.186-6.414 4.992c0 .004.004.004.004.008l6.183-4.813 4.746 1.926-.043-.297zm0 0" fill="#fff" fill-opacity=".392"/><path d="m10.941 2.438h-.007l.004.011h-.024l1.137 7.957-.008.008.7 5.047-2.376-.965 9.727 3.984.011-.023c0-.004.004-.004.004-.008h-.004a.9.9 0 0 0 .04-.98l-8.415-14.57a.905.905 0 0 0 -.785-.462h-.004zm-.027.011c-.008 0-.016 0-.027.004.011-.004.02-.004.027-.004zm-.027.004h-.028zm-.028 0c-.011 0-.02 0-.027.004.008-.004.016-.004.027-.004zm-.03.004c-.009 0-.017 0-.024.004.008-.004.015-.004.023-.004zm-.028.004c-.008 0-.02 0-.028.004.008-.004.02-.004.028-.004zm-.028.004c-.011 0-.02.004-.027.004.008 0 .016-.004.027-.004zm-.03.004c-.009.004-.016.004-.024.008.008-.004.015-.004.023-.008zm-.028.008-.024.003zm-.059.015c-.004.004-.011.004-.02.008.009-.004.016-.004.02-.008zm-.054.02c-.004.004-.012.004-.02.008.008-.004.016-.004.02-.008zm-.028.011c-.004.004-.011.004-.02.008.008-.004.016-.004.02-.008zm-.027.012c-.004.004-.012.004-.016.008.004-.004.012-.004.016-.008zm-.024.012c-.007.004-.011.008-.02.012.009-.004.013-.008.02-.012zm-.027.015c-.008.004-.012.004-.016.008.004-.004.008-.004.016-.007zm-.051.028-.015.012zm-.023.02c-.008.003-.012.003-.02.007l.02-.008zm-.074.055-.012.01zm-.024.019-.011.011zm-.02.02-.015.01.016-.01zm-.023.019-.011.015zm-.02.023-.011.012.012-.012zm-.023.027c-.004.004-.008.004-.008.008 0-.004.004-.004.008-.008zm-.02.024c-.003.004-.007.008-.007.012 0-.004.004-.008.008-.012zm-.019.023c-.004.004-.004.008-.008.012.004-.004.004-.008.008-.012zm-.039.055c0 .004-.004.008-.004.008s.004-.004.004-.008zm-2.164 10.656-6.332 4.88h.004l6.34-4.876zm-6.422 4.524c0 .004 0 .011.004.015-.004-.004-.004-.011-.004-.015zm.004.05c0 .004 0 .012.004.016-.004-.004-.004-.012-.004-.016zm.012.071c0 .012.004.02.004.031 0-.012-.004-.02-.004-.031zm.012.062c0 .004 0 .008.003.008-.003 0-.003-.004-.003-.008zm.011.043c0 .004.004.008.004.012 0-.004-.004-.008-.004-.012zm.016.043c0 .004.004.008.004.012 0-.004-.004-.008-.004-.012zm.016.043s.003.004.003.008c0-.004-.003-.008-.003-.008zm.015.031c.004.004.004.008.004.012 0-.004 0-.008-.004-.012zm.02.043c.004.004.008.012.011.016-.004-.004-.007-.012-.011-.016zm18.414.039c-.008.008-.012.016-.016.02.004-.004.008-.012.016-.02zm-18.371.028c.004.008.011.015.015.023-.004-.008-.011-.015-.015-.023zm18.34.02c-.008.007-.012.015-.02.019.008-.004.012-.012.02-.02zm-18.313.019c.004.004.008.012.012.015-.004-.003-.008-.011-.012-.015zm18.293.004c-.004.004-.008.012-.016.02zm-.016.023c-.007.004-.011.012-.015.016.004-.004.008-.012.015-.016zm-18.254.004.012.012zm18.235.016c-.004.008-.012.011-.016.02.004-.009.012-.012.016-.02zm-18.2.023c.004.004.008.008.008.012 0-.004-.004-.008-.007-.012zm18.18 0-.015.016zm-.02.02-.015.015.016-.015zm-18.136.008.012.011zm18.117.011c-.008.004-.012.012-.015.016.003-.004.007-.012.015-.016zm-18.086.016.016.015zm18.063.004c-.004.004-.008.012-.016.015.008-.003.012-.011.016-.015zm-18.028.027c.004.004.008.008.012.008-.004 0-.008-.004-.012-.008zm17.985.012-.016.012zm-17.953.012c.004.003.008.007.011.007-.004 0-.007-.004-.011-.007zm17.93.003-.016.012.015-.012zm-.024.02c-.004.004-.012.004-.016.008.004-.004.012-.004.016-.008zm-17.863.008c.004 0 .007.004.011.004-.004 0-.007-.004-.011-.004zm17.84.008c-.008.004-.012.004-.016.007.004-.003.008-.003.015-.007zm-17.81.011c.005.004.009.004.013.008-.004-.004-.008-.004-.012-.008zm17.782.004c-.004 0-.008.004-.015.008.007-.004.011-.008.015-.008zm-.023.012-.016.012zm-17.715.008c.004 0 .004.004.008.004-.004 0-.004-.004-.008-.004zm17.687.008c-.004.003-.007.003-.015.007.008-.003.011-.003.015-.007zm-17.648.011c.004 0 .008.004.012.004-.004 0-.008-.004-.012-.004zm17.621 0c-.004.004-.008.008-.012.008.004 0 .008-.004.012-.008zm-.027.016c-.004 0-.008.004-.012.004.004 0 .008-.004.012-.004zm-17.555 0c0 .004.004.004.008.004-.004 0-.008 0-.008-.004zm17.527.008-.011.008zm-17.484.011c.004 0 .008 0 .008.004 0-.004-.004-.004-.008-.004zm17.46 0c-.007 0-.01.004-.019.004.008 0 .012-.004.02-.004zm-.03.012c-.004 0-.008 0-.016.004.008-.004.012-.004.016-.004zm-17.391 0c.004.004.008.004.012.004-.004 0-.008 0-.012-.004zm17.363.008c-.008 0-.011 0-.015.004.004-.004.008-.004.015-.004zm-.027.008c-.008 0-.012 0-.02.004.008-.004.012-.004.02-.004zm-.027.004c-.008.004-.016.004-.02.004.004 0 .012 0 .02-.004zm-17.22.004c.005 0 .009 0 .013.004-.004-.004-.008-.004-.012-.004zm17.184.004c-.003 0-.007 0-.015.003.008-.003.012-.003.015-.003zm-17.14.003h.008zm17.11 0c-.005.004-.009.004-.012.004.003 0 .007 0 .011-.004zm-.032.004c-.004.004-.008.004-.012.004.004 0 .008 0 .012-.004zm-17.031.004h.031zm16.996 0h-.008zm-16.961 0a.05.05 0 0 0 .023.004c-.007 0-.015 0-.023-.004zm16.933.004h-.011zm-16.902 0h.031-.03zm0 0" fill="url(#g)"/><path d="m10.914 2.45c-.68 0-.89.714-1.195 1.19-2.676 4.645-5.367 9.286-8.04 13.934-.222.375-.093 1.117.321.582 2.305-1.789 4.64-3.566 6.922-5.355 1.039-.809 2.078-1.617 3.113-2.426.02-.043-.055-.438-.074-.613-.348-2.438-.695-4.875-1.047-7.313zm0 0" fill="#7e57c2"/><path d="m8.008 13.535-6.34 4.875c.144.297.457.5.816.5h16.828a.916.916 0 0 0 .782-.43l-9.727-3.984zm0 0" fill="#66bb6a" stroke="#000" stroke-width=".01137"/><path d="m10.914 2.445 1.828 13.016c-.793-.324-1.582-.645-2.375-.965l9.727 3.984c.449-.593-.082-1.218-.371-1.746-2.692-4.644-5.36-9.304-8.063-13.941-.168-.223-.465-.348-.746-.348zm-2.918 11.086c-2.11 1.63-4.223 3.254-6.328 4.88l6.34-4.876zm-6.422 4.492v.024zm0 .032.004.015zm.004.023v.016zm0 .027.004.016zm.004.024v.016zm.004.023v.02zm.004.024.004.031zm.012.062.003.008zm.011.043.004.012zm.016.043.004.012zm.016.043.003.008zm.015.031.004.012zm.02.043.011.016zm.02.032.01.015zm18.394.007-.016.02zm-.016.024-.015.023zm-18.355.004.015.023zm18.34.02-.02.019zm-18.313.019.012.015zm18.293.004-.016.02zm-.016.023-.015.016zm-18.254.004.012.012zm18.235.016-.016.02zm-18.2.023.008.012zm18.18 0-.015.016zm-.02.02-.015.015zm-18.136.008.012.011zm18.117.011-.015.016zm-18.086.016.016.015zm18.063.004-.016.015zm-.02.02-.015.011zm-18.008.007.012.008zm17.985.012-.016.012zm-17.953.012.011.007zm17.93.003-.016.012zm-.024.02-.016.008zm-17.863.008.011.004zm17.84.008-.016.007zm-17.81.011.013.008zm17.782.004-.015.008zm-.023.012-.016.012zm-17.715.008.008.004zm17.687.008-.015.007zm-17.648.011.012.004zm17.621 0-.012.008zm-.027.016-.012.004zm-17.555 0 .008.004zm17.527.008-.011.008zm-17.484.011.008.004zm17.46 0-.019.004zm-.03.008-.016.008zm-17.391.004.012.004zm17.363.008-.015.004zm-.027.008-.02.004zm-.027.004-.02.004zm-17.22.004.013.004zm17.184.004-.015.003zm-17.14.003h.008zm17.11 0-.012.004zm-.032.004-.012.004zm-17.031.004h.031zm16.996 0h-.008zm-16.961 0 .023.004zm16.933.004h-.011zm-16.902 0h.031zm0 0" fill="#f44336"/><path d="m10.914 2.445v.004c-.68 0-.89.715-1.195 1.192-2.676 4.644-5.367 9.285-8.04 13.933a.87.87 0 0 0 -.1.535.841.841 0 0 1 .1-.312c2.673-4.652 5.364-9.29 8.04-13.938.304-.472.515-1.187 1.195-1.187v-.004c.281 0 .578.125.746.348 2.703 4.636 5.371 9.296 8.063 13.941.187.348.488.738.535 1.133.066-.469-.309-.942-.535-1.356-2.692-4.644-5.36-9.304-8.063-13.941-.168-.223-.465-.348-.746-.348zm-2.738 11.16c-.473.372-.95.739-1.426 1.11.414-.32.832-.64 1.246-.961l.012.004 2.36.957v.004l2.374.96-.035-.234-2.34-.949zm-.168.153c-2.004 1.542-4.008 3.082-6.012 4.625zm-3.75 2.879c-.754.578-1.508 1.16-2.258 1.738l-.004.004c.754-.582 1.508-1.164 2.262-1.742zm-2.672 1.738v.02zm.004.023.004.028zm.012.063.003.008zm.011.043.004.012zm.016.043.004.012zm.016.043.003.008zm.015.031.004.012zm0 0" fill="#fff" fill-opacity=".392"/><path d="m1.754 18.344-.086.066c.145.297.457.5.816.5h16.828a.916.916 0 0 0 .782-.43l-.125-.05a.92.92 0 0 1 -.657.27h-16.827c-.3 0-.562-.141-.73-.356zm0 0" fill-opacity=".235"/><path d="m10.14 2.91-8.412 14.574a.853.853 0 0 0 -.082.184.81.81 0 0 0 -.04.129.858.858 0 0 0 -.03.226c0 .493.405.887.91.887h16.827c.34 0 .637-.183.793-.453 0-.004.004-.004.004-.008h-.004a.9.9 0 0 0 .04-.98l-8.416-14.57c-.418-.626-1.214-.626-1.59.011zm1.895 7.465.707 5.086-4.754-1.934zm0 0" fill="none" stroke="#212121" stroke-linecap="square" stroke-linejoin="round" stroke-width=".128924"/></svg>