<svg height="22" viewBox="0 0 22 22" width="22" xmlns="http://www.w3.org/2000/svg" xmlns:xlink="http://www.w3.org/1999/xlink"><linearGradient id="a"><stop offset="0" stop-opacity=".313726"/><stop offset=".222222" stop-opacity=".27451"/><stop offset="1" stop-opacity="0"/></linearGradient><radialGradient id="b" cx="450.908936" cy="189.579361" gradientTransform="matrix(.00000012 -.0537161 -.0966889 -.00000007 30.154871 43.721789)" gradientUnits="userSpaceOnUse" r="21.166656" xlink:href="#a"/><radialGradient id="c" cx="450.908936" cy="189.579361" gradientTransform="matrix(-.00000012 .0537161 .0966889 .00000007 -9.234253 -5.175144)" gradientUnits="userSpaceOnUse" r="21.166656" xlink:href="#a"/><radialGradient id="d" cx="450.908936" cy="189.579361" gradientTransform="matrix(-.00000012 -.0537161 .0966889 -.00000007 -9.234253 43.721789)" gradientUnits="userSpaceOnUse" r="21.166656" xlink:href="#a"/><radialGradient id="e" cx="450.908936" cy="189.579361" gradientTransform="matrix(.00000012 .0537161 -.0966889 .00000007 30.15487 -5.175144)" gradientUnits="userSpaceOnUse" r="21.166656" xlink:href="#a"/><linearGradient id="f" gradientTransform="matrix(.00918504 0 0 .0429729 8.115157 9.239164)" gradientUnits="userSpaceOnUse" x1="255.323059" x2="255.323044" y1="233.5" y2="254.666656"><stop offset="0" stop-opacity=".27451"/><stop offset="1" stop-opacity="0"/></linearGradient><linearGradient id="g" gradientUnits="userSpaceOnUse" x1="9.09593106349" x2="9.5507273593" y1="19.27333515" y2="1.99106697081"><stop offset="0" stop-color="#e0e0e0"/><stop offset="1" stop-color="#eee"/></linearGradient><linearGradient id="h" gradientUnits="userSpaceOnUse" x1="10.46032030419" x2="10.46032030419" y1="19.273337725" y2="6.0842384427"><stop offset="0" stop-color="#f44336"/><stop offset="1" stop-color="#ef5350"/></linearGradient><linearGradient id="i"><stop offset="0" stop-color="#424242"/><stop offset="1" stop-color="#616161"/></linearGradient><linearGradient id="j" gradientTransform="matrix(.0372156 -.0214864 .0214864 .0372156 1.115089 14.676651)" gradientUnits="userSpaceOnUse" x1="187.386063" x2="372.594421" xlink:href="#i" y1="195.040436" y2="-125.749817"/><linearGradient id="k" gradientTransform="matrix(.0372156 -.0214864 .0214864 .0372156 1.115089 14.676651)" gradientUnits="userSpaceOnUse" x1="221.971863" x2="264.305206" xlink:href="#i" y1="92.80275" y2="19.479267"/><linearGradient id="l" gradientUnits="userSpaceOnUse" x1="10.46032030419" x2="10.46032030419" y1="10.63220363541" y2="6.0842384427"><stop offset="0" stop-color="#616161"/><stop offset="1" stop-color="#ffa726"/></linearGradient><linearGradient id="m" gradientUnits="userSpaceOnUse" x1="10.57401920625" x2="10.46032030419" y1="17.34044968956" y2="2.90066025"><stop offset="0" stop-color="#5c6bc0"/><stop offset="1" stop-color="#7986cb"/></linearGradient><linearGradient id="n" gradientUnits="userSpaceOnUse" x1="10.9151166" x2="10.9151166" y1="19.72813144581" y2="1.99106697081"><stop offset="0" stop-color="#29b6f6"/><stop offset="1" stop-color="#4fc3f7"/></linearGradient><linearGradient id="o" gradientUnits="userSpaceOnUse" x1="10.9151166" x2="10.46032030419" y1="19.27333515" y2="1.99106697081"><stop offset="0" stop-color="#e91e63"/><stop offset="1" stop-color="#f06292"/></linearGradient><linearGradient id="p" gradientUnits="userSpaceOnUse" x1="10.46032030419" x2="10.46032030419" y1="19.273337725" y2="6.0842384427"><stop offset="0" stop-color="#ffa726"/><stop offset="1" stop-color="#ffb74d"/></linearGradient><path d="m12.050781 19.273438h1.820313v-.910157h-1.820313zm0 0" fill="url(#b)"/><path d="m8.867188 19.273438h-1.816407v.910156h1.816407zm0 0" fill="url(#c)"/><path d="m8.867188 19.273438h-1.816407v-.910157h1.816407zm0 0" fill="url(#d)"/><path d="m12.050781 19.273438h1.820313v.910156h-1.820313zm0 0" fill="url(#e)"/><path d="m8.867188 19.046875h3.183593v1.136719h-3.183593zm0 0" fill="url(#f)"/><path d="m10.460938 1.992188c-4.785157 0-8.640626 3.851562-8.640626 8.640624 0 4.785157 3.855469 8.640626 8.640626 8.640626 4.789062 0 8.640624-3.855469 8.640624-8.640626 0-2.730468-2.726562-1.363281-6.367187-2.273437-3.636719-.910156 2.273437-5.457031-.28125-6.140625-.640625-.148438-1.304687-.226562-1.992187-.226562zm-1.699219 1.839843c.386719-.003906.742187.125 1.003906.386719.625.625.480469 1.773438-.320313 2.574219-.800781.800781-1.949218.945312-2.574218.320312-.621094-.621093-.480469-1.769531.324218-2.570312.460938-.464844 1.042969-.707031 1.566407-.710938zm0 0" fill="url(#g)"/><path d="m10.460938 19.273438c-4.785157 0-8.640626-3.855469-8.640626-8.640626 0-.039062 0-.078124 0-.113281.0625 4.734375 3.890626 8.527344 8.640626 8.527344 4.742187 0 8.566406-3.78125 8.640624-8.503906v.089843c0 4.785157-3.851562 8.640626-8.640624 8.640626zm1.058593-12.273438c-.09375-1.222656 1.476563-3.039062 1.589844-4.140625.117187 1.003906-1.496094 2.835937-1.589844 4.140625zm0 0" fill-opacity=".235294"/><path d="m19.101562 10.75c-.050781-2.625-2.761718-1.296875-6.367187-2.199219-.957031-.238281-1.253906-.730469-1.214844-1.335937.035157.515625.363281.929687 1.214844 1.144531 3.640625.910156 6.367187-.457031 6.367187 2.273437zm-17.28125-.019531c0-.035157 0-.066407 0-.097657 0-4.789062 3.855469-8.640624 8.640626-8.640624.6875 0 1.351562.078124 1.992187.226562.527344.140625.691406.445312.65625.851562-.027344-.308593-.21875-.539062-.65625-.65625-.640625-.148437-1.304687-.226562-1.992187-.226562-4.753907 0-8.589844 3.800781-8.640626 8.542969zm0 0" fill="#fff" fill-opacity=".784314"/><path d="m10.460938 19.335938c-4.820313 0-8.703126-3.882813-8.703126-8.703126 0-4.824218 3.882813-8.707031 8.703126-8.707031.691406 0 1.363281.082031 2.003906.230469h.003906c.332031.089844.539062.246094.636719.457031.101562.210938.089843.464844.019531.742188-.140625.550781-.527344 1.210937-.878906 1.878906-.351563.664063-.664063 1.335937-.664063 1.878906-.003906.269531.070313.503907.25.703125.179688.203125.472657.367188.917969.480469 1.808594.449219 3.394531.335937 4.539062.453125.574219.054688 1.042969.171875 1.371094.453125.332032.285156.507813.734375.507813 1.429687 0 4.820313-3.882813 8.703126-8.707031 8.703126zm0-.128907c4.753906 0 8.578124-3.820312 8.578124-8.574219 0-.671874-.164062-1.074218-.460937-1.332031-.296875-.253906-.738281-.367187-1.300781-.421875-1.128906-.113281-2.726563 0-4.558594-.457031-.460938-.117187-.78125-.292969-.984375-.515625-.203125-.226562-.285156-.5-.28125-.796875 0-.585937.324219-1.265625.679687-1.9375.351563-.667969.734376-1.328125.867188-1.851563.066406-.257812.070312-.480468-.007812-.652343-.082032-.171875-.25-.304688-.558594-.386719-.632813-.148438-1.292969-.226562-1.972656-.226562-4.753907 0-8.574219 3.824218-8.574219 8.578124 0 4.753907 3.820312 8.574219 8.574219 8.574219zm0 0" fill="#212121"/><path d="m11.371094 13.132812c.378906-.65625-.878906-1.785156-.421875-2.292968.199219-.054688.449219.066406.515625.253906-.140625.296875-.207032.5625.09375.898438 1.289062 1.484374-.929688 2.675781 1.574218 3.074218-2.042968.851563-2.636718-.410156-1.761718-1.933594zm0 0" fill="url(#h)"/><path d="m10.921875 11.429688c.4375.25 1.808594-1.308594 3.0625-3.484376l.113281-.195312c1.257813-2.175781 1.921875-4.144531 1.488282-4.394531-.4375-.25-1.808594 1.308593-3.0625 3.484375l-.113282.195312c-1.257812 2.175782-1.921875 4.144532-1.488281 4.394532zm0 0" fill="url(#j)"/><path d="m10.792969 11.167969c-.070313-.648438.566406-2.3125 1.617187-4.132813l.113282-.195312c1.257812-2.183594 2.625-3.738282 3.0625-3.484375.109374.0625.148437.234375.128906.488281-.015625-.128906-.058594-.21875-.128906-.261719-.4375-.25-1.804688 1.300781-3.0625 3.484375l-.113282.195313c-.945312 1.636719-1.554687 3.144531-1.617187 3.90625zm0 0" fill="#fff" fill-opacity=".392157"/><path d="m10.921875 11.429688c-.359375-.207032.03125-1.585938.894531-3.292969.691406-.460938 1.601563.222656 1.515625.875-1.050781 1.597656-2.046875 2.625-2.410156 2.417969zm0 0" fill="url(#k)"/><path d="m11.027344 11.457031c-.039063 0-.074219-.007812-.105469-.027343-.117187-.070313-.15625-.265626-.121094-.554688.019531.101562.058594.175781.121094.210938.4375.253906 1.804687-1.300782 3.0625-3.484376l.113281-.195312c.917969-1.585938 1.519532-3.058594 1.609375-3.835938.109375.609376-.53125 2.3125-1.609375 4.179688l-.113281.195312c-1.171875 2.027344-2.433594 3.515626-2.957031 3.511719zm0 0" fill-opacity=".235294"/><path d="m11.023438 11.457031c-.035157 0-.070313-.011719-.101563-.027343-.171875-.101563-.171875-.472657-.027344-1.027344h.003907c.398437 0 .738281.230468.898437.566406-.3125.304688-.574219.480469-.753906.488281-.007813 0-.011719 0-.019531 0zm0 0" fill="#fff" fill-opacity=".705882"/><path d="m11.027344 11.519531c-.011719 0-.027344 0-.039063 0-.035156-.003906-.066406-.015625-.097656-.035156-.097656-.054687-.148437-.171875-.160156-.316406 0-.007813-.003907-.011719-.003907-.019531 0-.003907 0-.011719 0-.015626 0-.007812 0-.015624 0-.023437 0-.003906 0-.007813 0-.015625s0-.015625 0-.023438v-.003906c0-.003906 0-.007812 0-.011718 0-.007813 0-.015626 0-.023438v-.003906c0-.011719 0-.023438 0-.039063 0-.003906 0-.003906 0-.007812 0-.011719.003907-.027344.003907-.039063 0 0 0 0 0-.003906v-.003906c0-.015625.003906-.027344.003906-.042969v-.003906c.003906-.015625.003906-.03125.007813-.046875 0-.003906 0-.003906 0-.003906.003906-.035157.007812-.070313.015624-.105469 0-.003907 0-.007813 0-.011719.003907-.011719.003907-.027344.007813-.039062 0-.007813.003906-.015626.003906-.027344.003907-.007813.003907-.015625.007813-.023438 0-.011718.003906-.023437.007812-.035156 0-.003906 0-.003906 0-.007812.039063-.179688.097656-.386719.171875-.609376 0 0 0 0 0-.003906.003907-.011718.007813-.023437.011719-.035156.011719-.03125.019531-.058594.03125-.085938.011719-.039062.027344-.082031.042969-.125 0 0 0-.003906.003906-.007812.011719-.039062.027344-.082031.046875-.121094 0-.003906 0-.007812.003906-.011718.015625-.042969.03125-.085938.046875-.132813.019531-.042969.035157-.085937.054688-.132813 0 0 .003906-.003906.003906-.007812.019531-.042969.035156-.089844.054687-.132812.003907-.003907.003907-.007813.003907-.011719.039062-.09375.082031-.1875.125-.285157.261719-.582031.585937-1.21875.96875-1.878906l.113281-.195312c.628906-1.09375 1.289062-2.03125 1.84375-2.667969.28125-.316406.535156-.558594.75-.707031.109375-.074219.207031-.125.300781-.152344.089844-.027344.179688-.023438.253907.019531.074218.042969.121093.117188.144531.210938.023437.09375.027343.203125.015625.335937-.019532.261719-.101563.601563-.238282 1-.269531.800782-.753906 1.839844-1.382812 2.933594l-.117188.195312c-.347656.605469-.703124 1.160157-1.042968 1.640626 0 0-.003906 0-.003906.003906-.03125.042968-.0625.085937-.09375.128906 0 .003906-.003907.007812-.003907.007812-.03125.042969-.0625.085938-.09375.125-.027343.039063-.058593.078126-.085937.117188-.003906.007812-.007813.011719-.011719.015625-.027344.039063-.054687.074219-.085937.109375-.003907.007812-.007813.011719-.011719.015625-.027344.035156-.050781.070313-.078125.101563-.003906.003906-.003906.007812-.007813.007812-.027343.035156-.054687.070312-.078125.101562-.007812.007813-.011718.011719-.019531.019532-.023437.03125-.050781.0625-.078125.09375-.003906.007812-.007812.011718-.011719.015625-.023437.03125-.050781.0625-.074219.089843-.003906.003907-.003906.003907-.007812.007813-.019531.019531-.039062.042969-.054688.066406-.007812.007813-.015624.015625-.023437.023438-.003906.003906-.007813.007812-.011719.011719-.027344.03125-.054687.058593-.078125.089843h-.003906c-.054687.0625-.109375.121094-.164063.171875-.050781.054688-.101562.105469-.152343.152344 0 0-.003907 0-.003907.003906-.007812.007813-.015624.011719-.023437.019532-.007813.007812-.015625.015624-.023437.023437-.003907.003906-.011719.007813-.015626.011719-.007812.007812-.019531.019531-.03125.027344-.003906.003906-.003906.003906-.007812.007812-.058594.050781-.117188.09375-.171875.136719-.011719.007812-.027344.019531-.039063.027343-.011718.007813-.027343.019532-.039062.027344-.011719.007813-.027344.015625-.039062.023438-.003907.003906-.011719.007812-.019532.011718-.003906.003907-.007812.003907-.011718.007813-.007813.003906-.011719.007813-.019532.007813-.003906.003906-.011718.007812-.015625.011718-.007812.003906-.011719.003906-.019531.007813-.007812.003906-.015625.007812-.023438.011719-.003906.003906-.007812.003906-.007812.003906-.078125.035156-.15625.058594-.222656.054687zm.003906-.128906c.035156 0 .074219-.007813.121094-.023437.003906-.003907.003906-.003907.003906-.003907.003906 0 .011719-.003906.015625-.003906 0 0 .003906-.003906.003906-.003906.003907 0 .011719-.003907.019531-.007813.003907 0 .003907 0 .007813-.003906.011719-.003906.023437-.011719.035156-.015625.007813-.003906.019531-.011719.03125-.015625.007813-.007812.015625-.011719.019531-.015625.003907 0 .007813-.003906.011719-.003906.003907-.003907.007813-.007813.011719-.007813.015625-.011718.03125-.023437.050781-.03125.007813-.007812.019531-.015625.027344-.023437h.003906c.007813-.007813.019531-.015625.03125-.023438.042969-.03125.085938-.066406.128907-.105469.003906 0 .007812-.003906.007812-.003906.007812-.007812.015625-.015625.023438-.023437.007812-.003907.015624-.011719.019531-.015625.007812-.003906.011719-.011719.019531-.015625.011719-.011719.019531-.019531.03125-.03125.003906 0 .003906-.003907.007812-.003907.054688-.050781.113282-.109374.175782-.171874.019531-.019532.039062-.039063.058594-.058594.003906-.007813.011718-.015625.015624-.019532.019532-.019531.039063-.042968.058594-.0625.007813-.007812.011719-.011718.015625-.015624.023438-.027344.050781-.054688.074219-.082032.003906-.003906.007812-.007812.007812-.011718.363282-.410157.777344-.957032 1.195313-1.59375.03125-.292969-.152344-.601563-.4375-.78125-.28125-.183594-.644531-.234376-.964844-.03125-.398437.792968-.695312 1.511718-.859375 2.070312-.007812.035156-.019531.066406-.027344.101562-.003906.011719-.007812.019532-.007812.03125-.003906.007813-.003906.011719-.007812.019532-.003907.015625-.007813.03125-.011719.046875 0 .003906 0 .007812-.003907.011719-.003906.019531-.007812.039062-.011718.058593s-.011719.035157-.015625.054688c0 .007812-.003907.015625-.003907.023437 0 .011719-.003906.019532-.003906.027344-.003906.011719-.007812.019531-.007812.03125 0 .003906-.003906.011719-.003906.019531-.003907.011719-.003907.023438-.007813.035157v.003906c-.011719.058594-.019531.117187-.027344.167968 0 .011719 0 .023438-.003906.035157v.011719.027343c-.003906.007813-.003906.011719-.003906.015625v.023438.039062.003906.035157.003906.035156.003907.027343c0 .003907 0 .003907.003906.007813v.023437c.011719.089844.039063.148438.074219.183594.003906 0 .007812.003906.011718.007813.003907 0 .007813.003906.011719.007812.003907 0 .007813.003906.011719.003906.003906.003906.007812.003906.011719.003906.007812.003907.019531.007813.027343.007813zm2.359375-2.589844c.179687-.28125.359375-.578125.539063-.886719l.113281-.199218c.628906-1.085938 1.105469-2.117188 1.375-2.90625.132812-.394532.210937-.726563.230469-.972656.011718-.121094.003906-.222657-.011719-.292969-.019531-.070313-.046875-.109375-.085938-.132813-.035156-.019531-.082031-.023437-.152343-.003906-.074219.019531-.160157.0625-.261719.132812-.203125.140626-.449219.375-.726563.6875-.546875.625-1.203125 1.558594-1.832031 2.644532l-.113281.199218c-.179688.308594-.347656.617188-.5.914063.320312-.125.667968-.054687.933594.117187.253906.164063.445312.417969.492187.699219zm0 0" fill="#212121"/><path d="m11.597656 15.40625c-1.933594-.113281-2.957031-1.363281-1.972656-2.980469.378906-.65625.867188-1.078125 1.324219-1.585937.199219-.054688.449219.066406.515625.253906-.140625.296875-.207032.5625.09375.898438 1.289062 1.484374-.929688 2.675781 1.574218 3.074218-.625.113282-.625.339844-1.535156.339844zm0 0" fill="url(#l)"/><path d="m11.597656 15.40625c-1.933594-.113281-2.957031-1.363281-1.972656-2.980469.378906-.65625.867188-1.078125 1.324219-1.585937.199219-.054688.449219.066406.515625.253906-.140625.296875-.207032.5625.09375.898438 1.289062 1.484374-.929688 2.675781 1.574218 3.074218-.625.113282-.625.339844-1.535156.339844zm0 0" fill="url(#m)"/><path d="m11.597656 15.40625c-1.933594-.113281-2.957031-1.363281-1.972656-2.980469.378906-.65625.867188-1.078125 1.324219-1.585937.199219-.054688.449219.066406.515625.253906-.140625.296875-.324219-.007812-1.003906.675781-.652344.917969-1.820313 2.726563 1.136718 3.636719zm0 0" fill="url(#n)"/><path d="m10.460938 13.132812c.378906-.65625.007812-1.785156.464843-2.292968.199219-.054688.449219.066406.515625.253906-.136718.296875-.207031.5625.09375.898438 1.289063 1.484374-.925781 2.675781 1.574219 3.074218-2.042969.851563-3.523437-.410156-2.648437-1.933594zm0 0" fill="url(#o)"/><path d="m11.347656 13.132812c.378906-.65625-.878906-1.785156-.421875-2.292968.199219-.054688.449219.066406.515625.253906-.136718.296875-.207031.5625.09375.898438 1.289063 1.484374-.925781 2.675781 1.574219 3.074218-2.042969.851563-2.636719-.410156-1.761719-1.933594zm0 0" fill="url(#h)"/><path d="m11.597656 13.019531c.113282-.796875-1.128906-1.648437-.671875-2.15625.199219-.054687.449219.0625.515625.253907-.136718.292968-.207031.5625.09375.898437.628906.457031.515625 1.480469.402344 1.824219-.113281-.34375-.429688-.363282-.339844-.820313zm0 0" fill="url(#p)"/><path d="m10.234375 11.996094c-1.019531 1.386718-.601563 2.535156.339844 2.957031.386719.195313 1.136719.339844 1.820312.113281-.570312.058594-1.136719 0-1.59375-.226562-.453125-.226563-.738281-.738282-.566406-1.023438.171875-.210937.226563 1.136719 1.589844.964844-1.023438-.226562-.796875-.964844-1.023438-1.535156-.339843-.910156.339844-2.386719-.566406-1.25zm0 0" fill="#fff" fill-opacity=".196078"/><path d="m269.883318 143.511218c-44.995703-2.636111-68.81161-31.724243-45.904707-69.357013 8.81734-15.271269 20.179891-25.088513 30.815239-36.905566 4.635921-1.272606 10.453547 1.545307 11.998854 5.908526-3.272414 6.908432-4.817721 13.089659 2.18161 20.907095 29.997136 34.542156-21.634297 62.266781 36.632866 71.538623-14.544066 2.636112-14.544066 7.908335-35.723862 7.908335zm0 0" fill="none" stroke="#212121" stroke-linecap="round" stroke-linejoin="round" stroke-width="3" transform="matrix(.0429729 0 0 .0429729 0 9.239163)"/><path d="m13.5625 8.53125c-.078125.125-.152344.246094-.230469.367188-.03125.046874-.0625.09375-.09375.136718-.003906.007813-.007812.011719-.007812.015625-.03125.042969-.0625.085938-.089844.128907-.003906.007812-.007813.015624-.015625.023437-.058594.085937-.117188.167969-.175781.253906-.003907.003907-.007813.011719-.015625.019531-.027344.042969-.058594.082032-.085938.121094-.003906.003906-.003906.007813-.007812.011719-.027344.039063-.058594.078125-.085938.117187 0 .003907-.003906.003907-.003906.003907v.003906c-.027344.035156-.058594.074219-.085938.109375-.003906.007812-.007812.015625-.015624.023438-.027344.035156-.054688.070312-.082032.105468-.003906.003906-.007812.007813-.007812.015625-.03125.035157-.058594.070313-.085938.105469 0 .003906 0 .003906-.003906.003906-.027344.035156-.054688.066406-.078125.101563-.007813.003906-.011719.011719-.015625.015625-.027344.035156-.054688.066406-.082031.097656 0 .003906-.003907.007812-.007813.011719-.027344.03125-.050781.0625-.078125.089843 0 .003907-.003906.003907-.003906.007813-.027344.03125-.054687.058594-.078125.089844-.003906.003906-.007812.007812-.015625.015625-.023437.027344-.050781.054687-.074219.082031-.003906.003906-.003906.003906-.007812.007813-.023438.027343-.046875.050781-.070313.074218-.003906.003906-.007812.007813-.011719.011719-.023437.027344-.046874.050781-.066406.074219-.007812.007812-.015625.011718-.023437.019531-.003907.007813-.011719.011719-.019531.019531-.007813.007813-.015626.015625-.023438.023438-.007812.007812-.011719.011718-.019531.019531-.011719.011719-.027344.027344-.039063.039063-.003906 0-.003906 0-.003906 0v.003906c-.015625.011718-.027344.023437-.042969.039062-.003906.003906-.007812.003906-.011719.007813-.007812.011719-.019531.019531-.027343.027343-.003907.003907-.011719.007813-.015625.015626-.007813.007812-.019532.015624-.027344.023437-.003906.003906-.007812.007813-.015625.011719-.007813.007812-.015625.015625-.027344.023437-.003906.003907-.007812.007813-.011719.011719-.011718.007812-.027343.019531-.039062.03125-.003906 0-.003906.003906-.007812.003906-.007813.007813-.019532.015625-.03125.023438-.003907.003906-.007813.007812-.011719.011718-.011719.007813-.019531.011719-.027344.019532-.003906.003906-.007813.003906-.011719.007812-.007812.007813-.015625.011719-.023437.019532-.003907.003906-.007813.003906-.011719.007812-.011719.007812-.019531.011719-.03125.019531-.046875.167969-.046875.332031.066406.515625.003906 0 .007813-.003906.011719-.007812.007813-.007813.015625-.011719.027344-.019532.003906-.003906.007812-.007812.011719-.011718.011718-.007813.023437-.015625.03125-.023438.003906 0 .003906-.003906.007812-.003906.011719-.011719.027344-.019531.039062-.03125.003907-.003906.007813-.007812.011719-.011719.011719-.007812.019531-.015625.027344-.023437.007813-.003906.011719-.007813.015625-.011719.007812-.007813.019531-.015625.027344-.023437.003906-.003907.011718-.011719.015625-.015626.007812-.007812.019531-.015624.027343-.023437.003907-.003906.007813-.007813.011719-.011719.015625-.015625.027344-.027344.042969-.039062 0 0 0 0 0-.003906h.003906c.011719-.011719.027344-.027344.039063-.039063.007812-.007813.011719-.011719.019531-.019531.007812-.007813.015625-.015625.023438-.023438.007812-.007812.015624-.011718.019531-.019531.007812-.007813.015625-.011719.023437-.019531.019532-.023438.042969-.046875.066406-.074219.003907-.003906.007813-.007813.011719-.011719.023438-.023437.046875-.046875.070313-.074218.003906 0 .003906-.003907.007812-.007813.023438-.027344.050782-.054687.074219-.082031.007813-.007813.011719-.011719.015625-.015625.023438-.03125.050781-.058594.078125-.089844 0-.003906.003906-.003906.003906-.007813.027344-.027343.050781-.058593.078125-.089843.003906-.003907.007813-.007813.007813-.011719.027343-.03125.054687-.0625.082031-.097656.003906-.003906.007812-.011719.015625-.015625.023437-.035157.050781-.066407.078125-.101563h.003906c0-.003906 0-.003906 0-.003906.027344-.035156.054688-.070312.085938-.105469 0-.003906.003906-.011719.007812-.015625l.082032-.105468c.007812-.007813.011718-.015626.015624-.019532.027344-.039062.058594-.078125.085938-.113281v-.003906s.003906 0 .003906-.003907c.027344-.039062.058594-.078124.085938-.117187.003906-.003906.003906-.007813.007812-.011719.027344-.039062.058594-.078125.085938-.121094.007812-.007812.011718-.015624.015625-.019531.058593-.085937.117187-.167969.175781-.253906.007812-.007813.011719-.015625.015625-.023437.027344-.042969.058594-.085938.089844-.128907 0-.003906.003906-.007812.007812-.015625.03125-.042968.0625-.089844.09375-.136718.179688-.277344.363281-.574219.542969-.878907-.101562-.015625-.207031-.03125-.3125-.050781zm-1.585938 4.765625c-.046874.394531-.164062.738281-.074218 1.019531.050781-.300781.132812-.644531.074218-1.019531zm-2.707031.480469c-.191406 1.160156.773438 1.988281 2.328125 2.078125.910156 0 .910156-.226563 1.535156-.339844-.433593-.070313-.722656-.160156-.917968-.273437-.148438.03125-.34375.050781-.617188.050781-1.289062-.074219-2.171875-.65625-2.328125-1.515625zm0 0" fill-opacity=".235294"/><path d="m78.081184-243.300299c20.439862 0 37.087423 21.275454 37.087423 47.628736-.064276 26.289005-16.647561 47.628735-37.087423 47.628735-20.439863 0-37.023147-21.33973-36.958871-47.628735-.064276-26.289006 16.519008-47.628736 36.958871-47.628736zm0 0" fill="none" stroke="#212121" stroke-linecap="round" stroke-linejoin="round" stroke-width="3" transform="matrix(.0303864 .0303864 -.0303864 .0303864 0 9.239163)"/><g fill-opacity=".235294"><path d="m8.761719 3.832031c-.523438.003907-1.105469.246094-1.566407.710938-.503906.503906-.75 1.144531-.707031 1.703125.039063-.492188.277344-1.015625.707031-1.445313.800782-.800781 1.949219-.941406 2.570313-.320312.234375.230469.359375.535156.382813.867187.035156-.429687-.089844-.835937-.382813-1.128906-.261719-.261719-.617187-.390625-1.003906-.386719zm0 0"/><path d="m10.148438 5.351562c-.035157.492188-.273438 1.019532-.703126 1.445313-.800781.800781-1.949218.945313-2.574218.320313-.230469-.230469-.355469-.535157-.382813-.867188-.03125.429688.09375.835938.382813 1.125.625.625 1.773437.480469 2.574218-.320312.503907-.503907.746094-1.144532.703126-1.703126zm0 0"/></g></svg>