<svg height="22" viewBox="0 0 22 22" width="22" xmlns="http://www.w3.org/2000/svg" xmlns:xlink="http://www.w3.org/1999/xlink"><linearGradient id="a" gradientTransform="matrix(.0654824 0 0 .0429729 -5.370922 8.329572)" gradientUnits="userSpaceOnUse" x1="254" x2="254" y1="233.5" y2="254.666672"><stop offset="0" stop-opacity=".27451"/><stop offset="1" stop-opacity="0"/></linearGradient><linearGradient id="b"><stop offset="0" stop-opacity=".313726"/><stop offset=".222222" stop-opacity=".27451"/><stop offset="1" stop-opacity="0"/></linearGradient><radialGradient id="c" cx="450.908936" cy="189.579361" gradientTransform="matrix(.00000012 -.0537161 -.0966889 -.00000007 36.294619 42.812198)" gradientUnits="userSpaceOnUse" r="21.166656" xlink:href="#b"/><radialGradient id="d" cx="450.908936" cy="189.579361" gradientTransform="matrix(-.00000012 .0537161 .0966889 .00000007 -14.464407 -6.084735)" gradientUnits="userSpaceOnUse" r="21.166656" xlink:href="#b"/><radialGradient id="e" cx="450.908936" cy="189.579361" gradientTransform="matrix(-.00000012 -.0537161 .0966889 -.00000007 -14.464407 42.812198)" gradientUnits="userSpaceOnUse" r="21.166656" xlink:href="#b"/><radialGradient id="f" cx="450.908936" cy="189.579361" gradientTransform="matrix(.00000012 .0537161 -.0966889 .00000007 36.294617 -6.084735)" gradientUnits="userSpaceOnUse" r="21.166656" xlink:href="#b"/><linearGradient id="g" gradientUnits="userSpaceOnUse" x1="5.4575583" x2="5.4575583" y1="18.36374187081" y2="2.90066025"><stop offset="0" stop-color="#ffe0b2"/><stop offset="1" stop-color="#fff3e0"/></linearGradient><linearGradient id="h" gradientUnits="userSpaceOnUse" x1="6.82194061287" x2="7.50413738713" y1="19.27332401286" y2="1.99107567177"><stop offset="0" stop-color="#5c6bc0"/><stop offset="1" stop-color="#7986cb"/></linearGradient><linearGradient id="i" gradientUnits="userSpaceOnUse" x1="1280" x2="1280" y1="1295.118164" y2="575.118103"><stop offset="0" stop-color="#424242"/><stop offset="1" stop-color="#616161"/></linearGradient><path d="m3.636719 18.363281h14.554687v.910157h-14.554687zm0 0" fill="url(#a)"/><path d="m18.191406 18.363281h1.820313v-.910156h-1.820313zm0 0" fill="url(#c)"/><path d="m3.636719 18.363281h-1.816407v.910157h1.816407zm0 0" fill="url(#d)"/><path d="m3.636719 18.363281h-1.816407v-.910156h1.816407zm0 0" fill="url(#e)"/><path d="m18.191406 18.363281h1.820313v.910157h-1.820313zm0 0" fill="url(#f)"/><path d="m3.183594 2.902344h15.464844c.75 0 1.363281.609375 1.363281 1.363281v12.734375c0 .753906-.613281 1.363281-1.363281 1.363281h-15.464844c-.753906 0-1.363282-.609375-1.363282-1.363281v-12.734375c0-.753906.609376-1.363281 1.363282-1.363281zm0 0" fill="url(#g)"/><path d="m3.183594 18.363281c-.757813 0-1.363282-.609375-1.363282-1.363281v-.226562c0 .753906.605469 1.363281 1.363282 1.363281h15.464844c.753906 0 1.363281-.609375 1.363281-1.363281v.226562c0 .753906-.609375 1.363281-1.363281 1.363281zm0 0" fill-opacity=".235294"/><path d="m3.183594 2.902344c-.757813 0-1.363282.605468-1.363282 1.363281v.226563c0-.753907.605469-1.363282 1.363282-1.363282h15.464844c.753906 0 1.363281.609375 1.363281 1.363282v-.226563c0-.757813-.609375-1.363281-1.363281-1.363281zm0 0" fill="#fff" fill-opacity=".784314"/><path d="m3.183594 2.835938c-.789063 0-1.429688.636718-1.429688 1.429687v12.734375c0 .789062.640625 1.429688 1.429688 1.429688h15.464844c.789062 0 1.425781-.640626 1.425781-1.429688v-12.734375c0-.792969-.636719-1.429687-1.425781-1.429687zm0 .128906h15.464844c.71875 0 1.296874.578125 1.296874 1.300781v12.734375c0 .71875-.578124 1.300781-1.296874 1.300781h-15.464844c-.722656 0-1.300782-.582031-1.300782-1.300781v-12.734375c0-.722656.578126-1.300781 1.300782-1.300781zm0 0" fill="#212121"/><path d="m7.203125 1.988281c-.390625 0-.828125.382813-1.210937 1.3125-.351563.859375-.5 1.710938-.152344 3.351563l.152344.71875c-1.132813 1.027344-2.5625 2.34375-2.714844 4.210937-.191406 2.371094 2.210937 4.136719 4.367187 3.585938l.304688 1.4375c.230469 1.074219-.023438 1.636719-.679688 2.101562-.355469.25-.9375.183594-1.207031-.15625.382812-.148437.636719-.515625.644531-.929687.011719-.558594-.425781-1.019532-.976562-1.027344-.546875-.011719-1 .433594-1.011719.992188 0 .046874.003906.097656.007812.148437v.003906c0 .007813.003907.011719.003907.019531.070312.597657.640625 1.464844 1.652343 1.496094 1.414063.046875 2.316407-1.035156 1.894532-2.800781l-.300782-1.394531c1.367188-.5625 2.042969-2.671875 1.167969-3.777344-.6875-.871094-1.492187-1.140625-2.214843-1.054688l-.363282-1.675781c.78125-.929687 1.441406-1.9375 1.695313-3.191406.363281-1.769531-.257813-3.375-1.058594-3.371094zm.277344 1.355469c.101562.003906.179687.039062.230469.109375.121093.179687.421874 1.035156-.433594 2.566406-.1875.335938-.566406.699219-1.019532 1.113281l-.089843-.425781c-.25-1.160156-.0625-1.789062.070312-2.164062.28125-.78125.886719-1.203125 1.242188-1.199219zm-1.171875 5.507812.304687 1.433594c-1.617187.4375-2.640625 2.617188-.585937 3.53125.339844.113282.054687-.226562-.121094-.53125-.675781-1.171875.074219-1.722656.976562-1.710937l.683594 3.210937c-.792968.253906-1.824218.101563-2.519531-.535156-.941406-.851562-1.355469-2.496094-.3125-3.675781.515625-.578125 1.0625-1.140625 1.574219-1.722657zm.917968 2.753907c.988282.15625 1.972657.949219 1.394532 2.300781-.140625.328125-.402344.578125-.730469.746094zm0 0" fill="url(#h)"/><path d="m979.8349 575.120485c-10.99394 0-19.926516 8.932576-19.926516 19.926516 0 11.337501 8.932576 19.926516 19.926516 19.926516h640.053443c11.3375 0 20.270077-8.589015 20.270077-19.926516 0-10.99394-8.932577-19.926516-20.270077-19.926516zm0 170.062509c-10.99394 0-19.926516 8.932576-19.926516 19.926516s8.932576 19.926516 19.926516 19.926516h640.053443c11.3375 0 20.270077-8.932576 20.270077-19.926516s-8.932577-19.926516-20.270077-19.926516zm0 170.062509c-10.99394 0-19.926516 8.932576-19.926516 19.926516s8.932576 19.926516 19.926516 19.926516h640.053443c11.3375 0 20.270077-8.932576 20.270077-19.926516s-8.932577-19.926516-20.270077-19.926516zm0 169.718948c-10.99394 0-19.926516 8.932576-19.926516 20.270077 0 10.99394 8.932576 19.926516 19.926516 19.926516h640.053443c11.3375 0 20.270077-8.932576 20.270077-19.926516 0-11.337501-8.932577-20.270077-20.270077-20.270077zm0 170.062509c-10.99394 0-19.926516 8.932576-19.926516 19.926516v.343561c0 10.99394 8.932576 19.926516 19.926516 19.926516h640.053443c11.3375 0 20.270077-8.932576 20.270077-19.926516v-.343561c0-10.99394-8.932577-19.926516-20.270077-19.926516zm0 0" fill="url(#i)" stroke="#212121" stroke-linecap="round" stroke-linejoin="round" stroke-width="11.338583" transform="scale(.0113699)"/><path d="m7.203125 1.988281c-.390625 0-.828125.382813-1.210937 1.3125-.222657.546875-.363282 1.085938-.347657 1.828125.015625-.625.148438-1.109375.347657-1.59375.382812-.933594.820312-1.316406 1.210937-1.316406.621094 0 1.136719.964844 1.164063 2.222656.03125-1.371094-.503907-2.457031-1.164063-2.453125zm.65625 2.273438c-.019531.425781-.164063 1.011719-.582031 1.757812-.1875.335938-.566406.699219-1.019532 1.113281l-.089843-.425781c-.078125-.359375-.113281-.667969-.121094-.933593-.011719.3125.019531.695312.121094 1.167968l.089843.421875c.453126-.410156.832032-.777343 1.019532-1.109375.5-.894531.605468-1.558594.582031-1.992187zm-1.90625 3.148437c-1.128906 1.019532-2.523437 2.328125-2.675781 4.171875-.011719.128907-.011719.257813-.007813.382813 0-.050782.003907-.097656.007813-.148438.152344-1.867187 1.582031-3.1875 2.714844-4.210937zm.652344 1.324219c-.011719.019531-.023438.035156-.039063.050781l.363282 1.671875c.722656-.085937 1.527343.1875 2.214843 1.054688.246094.3125.371094.703125.390625 1.117187.019532-.496094-.097656-.980468-.390625-1.347656-.6875-.871094-1.492187-1.140625-2.214843-1.054688zm-.039063 1.566406c-.996094.289063-1.753906 1.238281-1.683594 2.128907.0625-.832032.796876-1.660157 1.730469-1.910157zm.660156 1.535157.664063 3.050781c.328125-.167969.589844-.421875.730469-.75.136718-.324219.1875-.617188.167968-.875-.015624.199219-.070312.414062-.167968.644531-.140625.328125-.402344.578125-.730469.746094l-.609375-2.808594c-.019531-.003906-.035156-.003906-.054688-.007812zm-3.101562.460937c-.039062.835937.339844 1.660156.921875 2.183594.695313.636719 1.726563.789062 2.519531.539062l-.046875-.21875c-.785156.230469-1.789062.070313-2.472656-.550781-.527344-.476562-.886719-1.199219-.921875-1.953125zm1.527344.292969c-.03125.25.039062.554687.253906.925781.0625.109375.140625.222656.199219.320313.210937.03125-.039063-.277344-.199219-.550782-.152344-.261718-.230469-.496094-.253906-.695312zm2.371094 2.683594c-.015626.003906-.03125.011718-.046876.019531l.300782 1.390625c.0625.25.09375.488281.101562.710937.011719-.289062-.019531-.601562-.101562-.941406zm-2.292969 1.320312c-.546875-.011719-1 .433594-1.011719.992188 0 .042968 0 .089843.007812.132812.058594-.515625.492188-.902344 1.003907-.894531.5.007812.914062.394531.96875.898437.003906-.035156.007812-.066406.007812-.101562.011719-.558594-.425781-1.019532-.976562-1.027344zm2.300781.820312c-.03125.582032-.296875.960938-.761719 1.292969-.292969.207031-.746093.195313-1.042969-.007812-.050781.03125-.105468.058593-.164062.082031.269531.339844.851562.40625 1.207031.15625.527344-.371094.792969-.808594.761719-1.523438zm0 0" fill="#fff" fill-opacity=".313726"/><path d="m7.480469 3.34375c-.355469-.003906-.960938.417969-1.242188 1.199219-.097656.273437-.222656.675781-.1875 1.320312.023438-.414062.113281-.703125.1875-.910156.28125-.78125.886719-1.207031 1.242188-1.199219.101562 0 .179687.035156.230469.105469.046874.070313.117187.234375.144531.492187.042969-.5-.078125-.800781-.144531-.898437-.050782-.070313-.128907-.105469-.230469-.109375zm.882812 1.1875c-.007812.269531-.042969.546875-.101562.828125-.253907 1.253906-.914063 2.261719-1.695313 3.191406l.070313.324219c.75-.910156 1.378906-1.890625 1.625-3.109375.089843-.425781.121093-.847656.101562-1.234375zm-2.714843.691406c-.023438.5.035156 1.085938.191406 1.835938l.082031.378906c.023437-.019531.046875-.042969.070313-.066406l-.152344-.71875c-.117188-.554688-.175782-1.023438-.191406-1.429688zm.660156 3.628906c-.511719.582032-1.058594 1.144532-1.574219 1.722657-.484375.546875-.652344 1.191406-.605469 1.8125.039063-.488281.226563-.976563.605469-1.402344.515625-.582031 1.0625-1.140625 1.574219-1.722656l.222656 1.046875c.027344-.007813.054688-.015625.082031-.023438zm.535156 2.722657c-.714844.003906-1.320312.367187-1.175781 1.109375.109375-.480469.628906-.710938 1.214843-.703125l.601563 2.828125c.027344-.003906.054687-.015625.082031-.023438l-.683594-3.210937c-.011718 0-.027343 0-.039062 0zm.382812.03125.09375.421875c.691407.140625 1.355469.589844 1.457032 1.320312.132812-1.011718-.707032-1.609375-1.550782-1.742187zm-3.953124.445312c-.144532 2.335938 2.234374 4.070313 4.371093 3.523438l.304688 1.4375c.039062.171875.0625.335937.074219.484375.023437-.253906 0-.546875-.074219-.890625l-.304688-1.4375c-.027343.003906-.054687.011719-.082031.019531l.003906.007812c-.578125.179688-1.277344.148438-1.886718-.125-1.28125-.441406-2.316407-1.589843-2.40625-3.019531zm1.617187.464844c-.082031.644531.222656 1.300781 1.136719 1.707031.304687.101563.109375-.160156-.0625-.433594-.679688-.320312-1.003906-.785156-1.074219-1.273437zm4.636719.207031c-.074219.964844-.667969 1.972656-1.550782 2.335938l.082032.371094c.960937-.445313 1.554687-1.664063 1.46875-2.707032zm-1.152344 4.757813c-.023438.335937-.109375.632812-.25.882812h.167969c.074219-.261719.105469-.558593.082031-.882812zm-1.6875.328125c-.046875.214844-.15625.410156-.320312.554687h.277343c.039063-.105469.058594-.21875.0625-.335937 0-.074219-.003906-.148438-.019531-.21875zm-1.949219.003906c-.011719.058594-.019531.121094-.019531.179688 0 .050781.003906.097656.007812.148437v.003906c0 .007813.003907.015625.003907.023438.007812.0625.019531.128906.039062.195312h.171875c-.105468-.183593-.175781-.378906-.203125-.550781zm0 0" fill-opacity=".235294"/><path d="m167.620357-168.731691c-9.090041 0-19.270887 8.90824-28.179128 30.542538-8.181036 19.99809-11.635252 39.814379-3.545116 77.992552l3.545116 16.725675c-26.361119 23.906808-59.630669 54.540247-63.175785 97.990643-4.45412 55.176549 51.449633 96.263534 101.626659 83.446576l7.090232 33.451351c5.363124 24.997613-.545402 38.087272-15.816671 48.904421-8.271938 5.817626-21.816099 4.272319-28.088227-3.636016 8.90824-3.454216 14.816767-11.998854 14.998568-21.634298.272701-12.998759-9.908145-23.725007-22.725103-23.906808-12.726057-.272701-23.270505 10.089946-23.543206 23.088704 0 1.090805.0909 2.272511.181801 3.454216v.0909c0 .181801.0909.272702.0909.454502 1.636207 13.907763 14.907667 34.087654 38.450874 34.814858 32.905948 1.090805 53.903943-24.088609 44.086699-65.175595l-6.999332-32.451446c31.815144-13.089659 47.540915-62.175881 27.179223-87.900697-15.998473-20.270791-34.723957-26.54292-51.540533-24.543111l-8.453738-38.996276c18.180082-21.634297 33.542251-45.086603 39.450778-74.265635 8.453738-41.177886-5.999427-78.537955-24.634011-78.447054zm6.453929 31.542442c2.36341.090901 4.181419.909004 5.363124 2.545212 2.817913 4.181419 9.817244 24.088608-10.089946 59.721569-4.363219 7.817436-13.180559 16.271174-23.725007 25.906617l-2.090709-9.908144c-5.817626-26.997422-1.454407-41.632388 1.636207-50.358828 6.54483-18.180082 20.634393-27.997326 28.906331-27.906426zm-27.270123 128.169579 7.090232 33.36045c-37.63277 10.180846-61.448678 60.903275-13.635062 82.173971 7.908336 2.636112 1.272606-5.272223-2.817913-12.362455-15.725771-27.270123 1.727108-40.087081 22.725103-39.81438l15.907572 74.720137c-18.452783 5.908527-42.450492 2.363411-58.630765-12.453356-21.906999-19.816289-31.542442-58.085362-7.272033-85.537286 11.998855-13.453261 24.724912-26.54292 36.632866-40.087081zm21.361596 64.084789c22.997804 3.636017 45.904707 22.0888 32.451447 53.540342-3.272415 7.635634-9.362743 13.453261-16.998377 17.361978zm0 0" fill="none" stroke="#212121" stroke-width="3" transform="matrix(.0429729 0 0 .0429729 0 9.239163)"/></svg>