<?xml version="1.0" encoding="UTF-8"?>
<svg xmlns="http://www.w3.org/2000/svg" xmlns:xlink="http://www.w3.org/1999/xlink" width="22px" height="22px" viewBox="0 0 22 22" version="1.1">
<defs>
<linearGradient id="linear0" gradientUnits="userSpaceOnUse" x1="254" y1="233.5" x2="254" y2="254.666672" gradientTransform="matrix(0.0429729,0,0,0.0429729,-0.454803,9.239163)">
<stop offset="0" style="stop-color:rgb(0%,0%,0%);stop-opacity:0.27451;"/>
<stop offset="1" style="stop-color:rgb(0%,0%,0%);stop-opacity:0;"/>
</linearGradient>
<radialGradient id="radial0" gradientUnits="userSpaceOnUse" cx="450.908936" cy="189.579361" fx="450.908936" fy="189.579361" r="21.166656" gradientTransform="matrix(0.000000119742,-0.0537161,-0.0966889,-0.0000000698078,36.749411,43.721791)">
<stop offset="0" style="stop-color:rgb(0%,0%,0%);stop-opacity:0.313726;"/>
<stop offset="0.222222" style="stop-color:rgb(0%,0%,0%);stop-opacity:0.27451;"/>
<stop offset="1" style="stop-color:rgb(0%,0%,0%);stop-opacity:0;"/>
</radialGradient>
<radialGradient id="radial1" gradientUnits="userSpaceOnUse" cx="450.908936" cy="189.579361" fx="450.908936" fy="189.579361" r="21.166656" gradientTransform="matrix(-0.000000119742,0.0537161,0.0966889,0.0000000698078,-14.919199,-5.175142)">
<stop offset="0" style="stop-color:rgb(0%,0%,0%);stop-opacity:0.313726;"/>
<stop offset="0.222222" style="stop-color:rgb(0%,0%,0%);stop-opacity:0.27451;"/>
<stop offset="1" style="stop-color:rgb(0%,0%,0%);stop-opacity:0;"/>
</radialGradient>
<radialGradient id="radial2" gradientUnits="userSpaceOnUse" cx="450.908936" cy="189.579361" fx="450.908936" fy="189.579361" r="21.166656" gradientTransform="matrix(-0.000000119742,-0.0537161,0.0966889,-0.0000000698078,-14.919199,43.721791)">
<stop offset="0" style="stop-color:rgb(0%,0%,0%);stop-opacity:0.313726;"/>
<stop offset="0.222222" style="stop-color:rgb(0%,0%,0%);stop-opacity:0.27451;"/>
<stop offset="1" style="stop-color:rgb(0%,0%,0%);stop-opacity:0;"/>
</radialGradient>
<radialGradient id="radial3" gradientUnits="userSpaceOnUse" cx="450.908936" cy="189.579361" fx="450.908936" fy="189.579361" r="21.166656" gradientTransform="matrix(0.000000119742,0.0537161,-0.0966889,0.0000000698078,36.74941,-5.175142)">
<stop offset="0" style="stop-color:rgb(0%,0%,0%);stop-opacity:0.313726;"/>
<stop offset="0.222222" style="stop-color:rgb(0%,0%,0%);stop-opacity:0.27451;"/>
<stop offset="1" style="stop-color:rgb(0%,0%,0%);stop-opacity:0;"/>
</radialGradient>
<linearGradient id="linear1" gradientUnits="userSpaceOnUse" x1="306.752655" y1="-16.485477" x2="305.954529" y2="-141.414581" gradientTransform="matrix(0.0495506,0,0,0.131056,-3.375079,21.433838)">
<stop offset="0" style="stop-color:rgb(69.01961%,74.509805%,77.254903%);stop-opacity:1;"/>
<stop offset="1" style="stop-color:rgb(81.176472%,84.705883%,86.274511%);stop-opacity:1;"/>
</linearGradient>
<linearGradient id="linear2" gradientUnits="userSpaceOnUse" x1="254" y1="233.5" x2="254" y2="-147.5" gradientTransform="matrix(0.0429729,0,0,0.0429729,0,9.239163)">
<stop offset="0" style="stop-color:rgb(36.078432%,41.960785%,75.294119%);stop-opacity:1;"/>
<stop offset="1" style="stop-color:rgb(47.450981%,52.549022%,79.607844%);stop-opacity:1;"/>
</linearGradient>
<linearGradient id="linear3" gradientUnits="userSpaceOnUse" x1="254" y1="233.5" x2="254" y2="-147.5" gradientTransform="matrix(0.0429729,0,0,0.0429729,0.00000000429728,10.075239)">
<stop offset="0" style="stop-color:rgb(69.01961%,74.509805%,77.254903%);stop-opacity:1;"/>
<stop offset="1" style="stop-color:rgb(81.176472%,84.705883%,86.274511%);stop-opacity:1;"/>
</linearGradient>
</defs>
<g id="surface1">
<path style=" stroke:none;fill-rule:nonzero;fill:url(#linear0);" d="M 3.183594 19.324219 L 18.648438 19.324219 L 18.648438 20.183594 L 3.183594 20.183594 Z M 3.183594 19.324219 "/>
<path style=" stroke:none;fill-rule:nonzero;fill:url(#radial0);" d="M 18.648438 19.273438 L 20.464844 19.273438 L 20.464844 18.363281 L 18.648438 18.363281 Z M 18.648438 19.273438 "/>
<path style=" stroke:none;fill-rule:nonzero;fill:url(#radial1);" d="M 3.183594 19.273438 L 1.363281 19.273438 L 1.363281 20.183594 L 3.183594 20.183594 Z M 3.183594 19.273438 "/>
<path style=" stroke:none;fill-rule:nonzero;fill:url(#radial2);" d="M 3.183594 19.273438 L 1.363281 19.273438 L 1.363281 18.363281 L 3.183594 18.363281 Z M 3.183594 19.273438 "/>
<path style=" stroke:none;fill-rule:nonzero;fill:url(#radial3);" d="M 18.648438 19.273438 L 20.464844 19.273438 L 20.464844 20.183594 L 18.648438 20.183594 Z M 18.648438 19.273438 "/>
<path style=" stroke:none;fill-rule:nonzero;fill:url(#linear1);" d="M 2.273438 2.902344 L 19.554688 2.902344 C 20.058594 2.902344 20.464844 3.285156 20.464844 3.757812 L 20.464844 18.414062 C 20.464844 18.890625 20.058594 19.273438 19.554688 19.273438 L 2.273438 19.273438 C 1.773438 19.273438 1.363281 18.890625 1.363281 18.414062 L 1.363281 3.757812 C 1.363281 3.285156 1.773438 2.902344 2.273438 2.902344 Z M 2.273438 2.902344 "/>
<path style=" stroke:none;fill-rule:nonzero;fill:url(#linear2);" d="M 2.730469 3.808594 L 19.101562 3.808594 C 19.351562 3.808594 19.554688 4.015625 19.554688 4.265625 L 19.554688 17.910156 C 19.554688 18.160156 19.351562 18.363281 19.101562 18.363281 L 2.730469 18.363281 C 2.476562 18.363281 2.273438 18.160156 2.273438 17.910156 L 2.273438 4.265625 C 2.273438 4.015625 2.476562 3.808594 2.730469 3.808594 Z M 2.730469 3.808594 "/>
<path style=" stroke:none;fill-rule:nonzero;fill:rgb(100%,100%,100%);fill-opacity:0.588235;" d="M 2.273438 2.902344 C 1.769531 2.902344 1.363281 3.285156 1.363281 3.757812 L 1.363281 3.988281 C 1.363281 3.511719 1.769531 3.128906 2.273438 3.128906 L 19.554688 3.128906 C 20.058594 3.128906 20.464844 3.511719 20.464844 3.988281 L 20.464844 3.757812 C 20.464844 3.285156 20.058594 2.902344 19.554688 2.902344 Z M 2.273438 2.902344 "/>
<path style=" stroke:none;fill-rule:nonzero;fill:rgb(0%,0%,0%);fill-opacity:0.235294;" d="M 2.273438 19.28125 C 1.769531 19.28125 1.363281 18.898438 1.363281 18.421875 L 1.363281 18.191406 C 1.363281 18.667969 1.769531 19.050781 2.273438 19.050781 L 19.554688 19.050781 C 20.058594 19.050781 20.464844 18.667969 20.464844 18.191406 L 20.464844 18.421875 C 20.464844 18.898438 20.058594 19.28125 19.554688 19.28125 Z M 2.273438 19.28125 "/>
<path style="fill:none;stroke-width:3;stroke-linecap:round;stroke-linejoin:miter;stroke:rgb(12.941177%,12.941177%,12.941177%);stroke-opacity:1;stroke-miterlimit:4;" d="M 52.904039 -147.460995 L 455.047454 -147.460995 C 466.773607 -147.460995 476.22725 -138.552755 476.22725 -127.553805 L 476.22725 213.504534 C 476.22725 224.594384 466.773607 233.502625 455.047454 233.502625 L 52.904039 233.502625 C 41.268786 233.502625 31.724243 224.594384 31.724243 213.504534 L 31.724243 -127.553805 C 31.724243 -138.552755 41.268786 -147.460995 52.904039 -147.460995 Z M 52.904039 -147.460995 " transform="matrix(0.0429729,0,0,0.0429729,0,9.239163)"/>
<path style=" stroke:none;fill-rule:nonzero;fill:rgb(0%,0%,0%);fill-opacity:0.235294;" d="M 2.730469 3.867188 C 2.476562 3.867188 2.273438 4.070312 2.273438 4.320312 L 2.273438 4.492188 C 2.273438 4.242188 2.476562 4.039062 2.730469 4.039062 L 19.101562 4.039062 C 19.351562 4.039062 19.554688 4.242188 19.554688 4.492188 L 19.554688 4.320312 C 19.554688 4.070312 19.351562 3.867188 19.101562 3.867188 Z M 2.730469 3.867188 "/>
<path style=" stroke:none;fill-rule:nonzero;fill:rgb(100%,100%,100%);fill-opacity:0.588235;" d="M 2.730469 18.597656 C 2.476562 18.597656 2.273438 18.394531 2.273438 18.140625 L 2.273438 17.96875 C 2.273438 18.222656 2.476562 18.425781 2.730469 18.425781 L 19.101562 18.425781 C 19.351562 18.425781 19.554688 18.222656 19.554688 17.96875 L 19.554688 18.140625 C 19.554688 18.394531 19.351562 18.597656 19.101562 18.597656 Z M 2.730469 18.597656 "/>
<path style="fill:none;stroke-width:3;stroke-linecap:round;stroke-linejoin:round;stroke:rgb(12.941177%,12.941177%,12.941177%);stroke-opacity:1;stroke-miterlimit:4;" d="M 63.539387 -126.3721 L 444.503007 -126.3721 C 450.320633 -126.3721 455.047454 -121.554378 455.047454 -115.736752 L 455.047454 201.778381 C 455.047454 207.596008 450.320633 212.322829 444.503007 212.322829 L 63.539387 212.322829 C 57.63086 212.322829 52.904039 207.596008 52.904039 201.778381 L 52.904039 -115.736752 C 52.904039 -121.554378 57.63086 -126.3721 63.539387 -126.3721 Z M 63.539387 -126.3721 " transform="matrix(0.0429729,0,0,0.0429729,0,9.239163)"/>
<path style=" stroke:none;fill-rule:nonzero;fill:rgb(100%,100%,100%);fill-opacity:0.0784314;" d="M 2.730469 3.808594 C 2.476562 3.808594 2.273438 4.011719 2.273438 4.265625 L 2.273438 7.957031 C 7.351562 7.320312 12.652344 6.984375 18.101562 6.984375 C 18.589844 6.984375 19.074219 6.988281 19.554688 6.992188 L 19.554688 4.265625 C 19.554688 4.011719 19.351562 3.808594 19.101562 3.808594 Z M 2.730469 3.808594 "/>
<path style=" stroke:none;fill-rule:nonzero;fill:url(#linear3);" d="M 10.6875 7.449219 C 10.4375 7.449219 10.234375 7.652344 10.234375 7.902344 L 10.234375 8.210938 C 9.921875 8.28125 9.628906 8.40625 9.363281 8.570312 L 9.144531 8.351562 C 9.058594 8.265625 8.941406 8.21875 8.824219 8.21875 C 8.707031 8.21875 8.59375 8.265625 8.503906 8.351562 L 8.179688 8.675781 C 8.003906 8.851562 8.003906 9.140625 8.179688 9.316406 L 8.398438 9.535156 C 8.234375 9.800781 8.109375 10.09375 8.039062 10.40625 L 7.730469 10.40625 C 7.480469 10.40625 7.277344 10.609375 7.277344 10.859375 L 7.277344 11.3125 C 7.277344 11.566406 7.480469 11.769531 7.730469 11.769531 L 8.039062 11.769531 C 8.109375 12.082031 8.234375 12.375 8.398438 12.640625 L 8.179688 12.855469 C 8.003906 13.035156 8.003906 13.320312 8.179688 13.5 L 8.503906 13.820312 C 8.679688 14 8.96875 14 9.144531 13.820312 L 9.363281 13.605469 C 9.628906 13.769531 9.921875 13.890625 10.234375 13.964844 L 10.234375 14.269531 C 10.234375 14.523438 10.4375 14.726562 10.6875 14.726562 L 11.140625 14.726562 C 11.394531 14.726562 11.597656 14.523438 11.597656 14.269531 L 11.597656 13.964844 C 11.910156 13.890625 12.203125 13.769531 12.46875 13.605469 L 12.683594 13.820312 C 12.863281 14 13.148438 14 13.328125 13.820312 L 13.648438 13.5 C 13.828125 13.320312 13.828125 13.035156 13.648438 12.855469 L 13.433594 12.640625 C 13.597656 12.375 13.71875 12.082031 13.792969 11.769531 L 14.097656 11.769531 C 14.351562 11.769531 14.554688 11.566406 14.554688 11.3125 L 14.554688 10.859375 C 14.554688 10.609375 14.351562 10.40625 14.097656 10.40625 L 13.792969 10.40625 C 13.71875 10.09375 13.597656 9.800781 13.433594 9.535156 L 13.648438 9.316406 C 13.828125 9.140625 13.828125 8.851562 13.648438 8.675781 L 13.328125 8.351562 C 13.238281 8.265625 13.121094 8.21875 13.003906 8.21875 C 12.890625 8.21875 12.773438 8.265625 12.683594 8.351562 L 12.46875 8.570312 C 12.203125 8.40625 11.910156 8.28125 11.597656 8.210938 L 11.597656 7.902344 C 11.597656 7.652344 11.394531 7.449219 11.140625 7.449219 Z M 10.914062 9.269531 C 11.921875 9.269531 12.734375 10.078125 12.734375 11.085938 C 12.734375 12.09375 11.921875 12.90625 10.914062 12.90625 C 9.90625 12.90625 9.097656 12.09375 9.097656 11.085938 C 9.097656 10.078125 9.90625 9.269531 10.914062 9.269531 Z M 10.914062 9.269531 "/>
<path style=" stroke:none;fill-rule:nonzero;fill:rgb(0%,0%,0%);fill-opacity:0.235294;" d="M 8.074219 9.148438 C 8.015625 9.308594 8.054688 9.496094 8.179688 9.625 L 8.285156 9.730469 C 8.320312 9.664062 8.359375 9.597656 8.398438 9.535156 L 8.179688 9.316406 C 8.132812 9.269531 8.097656 9.210938 8.074219 9.148438 Z M 13.753906 9.148438 C 13.734375 9.210938 13.699219 9.269531 13.648438 9.316406 L 13.433594 9.535156 C 13.472656 9.597656 13.507812 9.664062 13.542969 9.730469 L 13.648438 9.625 C 13.777344 9.496094 13.8125 9.308594 13.753906 9.148438 Z M 10.914062 9.269531 C 9.90625 9.269531 9.097656 10.078125 9.097656 11.085938 C 9.097656 11.136719 9.097656 11.191406 9.101562 11.238281 C 9.179688 10.304688 9.957031 9.574219 10.914062 9.574219 C 11.871094 9.574219 12.652344 10.304688 12.726562 11.238281 C 12.730469 11.191406 12.734375 11.136719 12.734375 11.085938 C 12.734375 10.078125 11.921875 9.269531 10.914062 9.269531 Z M 7.277344 11.3125 L 7.277344 11.621094 C 7.277344 11.871094 7.480469 12.074219 7.730469 12.074219 L 8.039062 12.074219 C 8.09375 12.3125 8.175781 12.539062 8.285156 12.75 L 8.398438 12.640625 C 8.234375 12.375 8.109375 12.082031 8.039062 11.769531 L 7.730469 11.769531 C 7.480469 11.769531 7.277344 11.566406 7.277344 11.3125 Z M 14.554688 11.3125 C 14.554688 11.566406 14.351562 11.769531 14.097656 11.769531 L 13.792969 11.769531 C 13.71875 12.082031 13.597656 12.375 13.433594 12.640625 L 13.542969 12.75 C 13.652344 12.539062 13.738281 12.3125 13.792969 12.074219 L 14.097656 12.074219 C 14.351562 12.074219 14.554688 11.871094 14.554688 11.621094 Z M 8.074219 13.332031 C 8.015625 13.492188 8.054688 13.675781 8.179688 13.804688 L 8.503906 14.125 C 8.679688 14.304688 8.96875 14.304688 9.144531 14.125 L 9.363281 13.910156 C 9.628906 14.074219 9.921875 14.195312 10.234375 14.269531 L 10.234375 13.964844 C 9.921875 13.890625 9.628906 13.769531 9.363281 13.605469 L 9.144531 13.820312 C 8.96875 14 8.679688 14 8.503906 13.820312 L 8.179688 13.5 C 8.132812 13.449219 8.097656 13.390625 8.074219 13.332031 Z M 10.234375 14.269531 L 10.234375 14.578125 C 10.234375 14.828125 10.4375 15.03125 10.6875 15.03125 L 11.140625 15.03125 C 11.394531 15.03125 11.597656 14.828125 11.597656 14.578125 L 11.597656 14.269531 C 11.597656 14.523438 11.394531 14.726562 11.140625 14.726562 L 10.6875 14.726562 C 10.4375 14.726562 10.234375 14.523438 10.234375 14.269531 Z M 11.597656 14.269531 C 11.910156 14.195312 12.203125 14.074219 12.46875 13.910156 L 12.683594 14.125 C 12.863281 14.304688 13.148438 14.304688 13.328125 14.125 L 13.648438 13.804688 C 13.777344 13.675781 13.8125 13.492188 13.753906 13.332031 C 13.734375 13.390625 13.699219 13.449219 13.648438 13.5 L 13.328125 13.820312 C 13.148438 14 12.863281 14 12.683594 13.820312 L 12.46875 13.605469 C 12.203125 13.769531 11.910156 13.890625 11.597656 13.964844 Z M 11.597656 14.269531 "/>
<path style=" stroke:none;fill-rule:nonzero;fill:rgb(100%,100%,100%);fill-opacity:0.588235;" d="M 10.6875 7.449219 C 10.4375 7.449219 10.234375 7.652344 10.234375 7.902344 L 10.234375 8.128906 C 10.234375 7.878906 10.4375 7.675781 10.6875 7.675781 L 11.140625 7.675781 C 11.394531 7.675781 11.597656 7.878906 11.597656 8.128906 L 11.597656 7.902344 C 11.597656 7.652344 11.394531 7.449219 11.140625 7.449219 Z M 10.234375 8.210938 C 9.921875 8.28125 9.628906 8.40625 9.363281 8.570312 L 9.144531 8.351562 C 9.058594 8.265625 8.941406 8.21875 8.824219 8.21875 C 8.707031 8.21875 8.59375 8.265625 8.503906 8.351562 L 8.179688 8.675781 C 8.0625 8.792969 8.023438 8.960938 8.0625 9.109375 C 8.082031 9.035156 8.121094 8.960938 8.179688 8.902344 L 8.503906 8.582031 C 8.59375 8.492188 8.707031 8.445312 8.824219 8.445312 C 8.941406 8.445312 9.058594 8.492188 9.144531 8.582031 L 9.363281 8.796875 C 9.628906 8.632812 9.921875 8.511719 10.234375 8.4375 Z M 11.597656 8.210938 L 11.597656 8.4375 C 11.910156 8.511719 12.203125 8.632812 12.46875 8.796875 L 12.683594 8.582031 C 12.773438 8.492188 12.890625 8.445312 13.003906 8.445312 C 13.121094 8.445312 13.238281 8.492188 13.328125 8.582031 L 13.648438 8.902344 C 13.707031 8.960938 13.746094 9.035156 13.769531 9.109375 C 13.804688 8.960938 13.765625 8.792969 13.648438 8.675781 L 13.328125 8.351562 C 13.238281 8.265625 13.121094 8.21875 13.003906 8.21875 C 12.890625 8.21875 12.773438 8.265625 12.683594 8.351562 L 12.46875 8.570312 C 12.203125 8.40625 11.910156 8.28125 11.597656 8.210938 Z M 8.3125 9.679688 C 8.191406 9.902344 8.097656 10.148438 8.039062 10.40625 L 7.730469 10.40625 C 7.480469 10.40625 7.277344 10.609375 7.277344 10.859375 L 7.277344 11.085938 C 7.277344 10.835938 7.480469 10.632812 7.730469 10.632812 L 8.039062 10.632812 C 8.109375 10.320312 8.234375 10.027344 8.398438 9.761719 Z M 13.515625 9.679688 L 13.433594 9.761719 C 13.597656 10.027344 13.71875 10.320312 13.792969 10.632812 L 14.097656 10.632812 C 14.351562 10.632812 14.554688 10.835938 14.554688 11.085938 L 14.554688 10.859375 C 14.554688 10.609375 14.351562 10.40625 14.097656 10.40625 L 13.792969 10.40625 C 13.730469 10.148438 13.636719 9.902344 13.515625 9.679688 Z M 9.097656 11.199219 C 9.097656 11.238281 9.097656 11.277344 9.097656 11.3125 C 9.097656 12.320312 9.90625 13.132812 10.914062 13.132812 C 11.921875 13.132812 12.734375 12.320312 12.734375 11.3125 C 12.734375 11.277344 12.734375 11.238281 12.730469 11.199219 C 12.671875 12.15625 11.882812 12.90625 10.914062 12.90625 C 9.945312 12.90625 9.15625 12.15625 9.097656 11.199219 Z M 8.3125 12.722656 L 8.179688 12.855469 C 8.0625 12.972656 8.023438 13.140625 8.0625 13.292969 C 8.082031 13.214844 8.121094 13.144531 8.179688 13.082031 L 8.398438 12.867188 C 8.367188 12.820312 8.339844 12.773438 8.3125 12.722656 Z M 13.515625 12.722656 C 13.488281 12.773438 13.460938 12.820312 13.433594 12.867188 L 13.648438 13.082031 C 13.707031 13.144531 13.746094 13.214844 13.769531 13.292969 C 13.804688 13.140625 13.765625 12.972656 13.648438 12.855469 Z M 13.515625 12.722656 "/>
<path style="fill:none;stroke-width:3;stroke-linecap:round;stroke-linejoin:round;stroke:rgb(12.941177%,12.941177%,12.941177%);stroke-opacity:1;stroke-miterlimit:4;" d="M 248.703523 -41.652917 C 242.885896 -41.652917 238.159075 -36.926096 238.159075 -31.10847 L 238.159075 -23.927337 C 230.887042 -22.29113 224.069512 -19.382317 217.888284 -15.5645 L 212.797861 -20.654923 C 210.798052 -22.654732 208.071039 -23.745537 205.344027 -23.745537 C 202.617015 -23.745537 199.980903 -22.654732 197.890193 -20.654923 L 190.345459 -13.110189 C 186.254941 -9.01967 186.254941 -2.29304 190.345459 1.797479 L 195.435882 6.887902 C 191.618065 13.06913 188.709252 19.88666 187.073045 27.158693 L 179.891912 27.158693 C 174.074286 27.158693 169.347464 31.885515 169.347464 37.703141 L 169.347464 48.247588 C 169.347464 54.156115 174.074286 58.882936 179.891912 58.882936 L 187.073045 58.882936 C 188.709252 66.154969 191.618065 72.9725 195.435882 79.153728 L 190.345459 84.15325 C 186.254941 88.334669 186.254941 94.970399 190.345459 99.151818 L 197.890193 106.605652 C 201.980712 110.787071 208.707342 110.787071 212.797861 106.605652 L 217.888284 101.606129 C 224.069512 105.423946 230.887042 108.241859 238.159075 109.968967 L 238.159075 117.059199 C 238.159075 122.967726 242.885896 127.694547 248.703523 127.694547 L 259.24797 127.694547 C 265.156497 127.694547 269.883318 122.967726 269.883318 117.059199 L 269.883318 109.968967 C 277.155351 108.241859 283.972882 105.423946 290.15411 101.606129 L 295.153632 106.605652 C 299.335051 110.787071 305.970781 110.787071 310.1522 106.605652 L 317.606034 99.151818 C 321.787453 94.970399 321.787453 88.334669 317.606034 84.15325 L 312.606511 79.153728 C 316.424328 72.9725 319.242241 66.154969 320.969349 58.882936 L 328.059581 58.882936 C 333.968108 58.882936 338.694929 54.156115 338.694929 48.247588 L 338.694929 37.703141 C 338.694929 31.885515 333.968108 27.158693 328.059581 27.158693 L 320.969349 27.158693 C 319.242241 19.88666 316.424328 13.06913 312.606511 6.887902 L 317.606034 1.797479 C 321.787453 -2.29304 321.787453 -9.01967 317.606034 -13.110189 L 310.1522 -20.654923 C 308.061491 -22.654732 305.334478 -23.745537 302.607466 -23.745537 C 299.971354 -23.745537 297.244342 -22.654732 295.153632 -20.654923 L 290.15411 -15.5645 C 283.972882 -19.382317 277.155351 -22.29113 269.883318 -23.927337 L 269.883318 -31.10847 C 269.883318 -36.926096 265.156497 -41.652917 259.24797 -41.652917 Z M 253.975747 0.706674 C 277.428052 0.706674 296.335338 19.523059 296.335338 42.975365 C 296.335338 66.42767 277.428052 85.334956 253.975747 85.334956 C 230.523441 85.334956 211.707056 66.42767 211.707056 42.975365 C 211.707056 19.523059 230.523441 0.706674 253.975747 0.706674 Z M 253.975747 0.706674 " transform="matrix(0.0429729,0,0,0.0429729,0,9.239163)"/>
</g>
</svg>
