<svg height="22" viewBox="0 0 22 22" width="22" xmlns="http://www.w3.org/2000/svg" xmlns:xlink="http://www.w3.org/1999/xlink"><linearGradient id="a"><stop offset="0" stop-opacity=".27451"/><stop offset="1" stop-opacity="0"/></linearGradient><linearGradient id="b" gradientUnits="userSpaceOnUse" x1="10.9151146" x2="10.9151146" xlink:href="#a" y1="19.27334715" y2="20.18294042919"/><linearGradient id="c"><stop offset="0" stop-opacity=".313726"/><stop offset=".222222" stop-opacity=".27451"/><stop offset="1" stop-opacity="0"/></linearGradient><radialGradient id="d" cx="450.908936" cy="189.579361" gradientTransform="matrix(.00000012 -.0537161 -.0966889 -.00000007 33.565844 43.721801)" gradientUnits="userSpaceOnUse" r="21.166656" xlink:href="#c"/><radialGradient id="e" cx="450.908936" cy="189.579361" gradientTransform="matrix(-.00000012 .0537161 .0966889 .00000007 -12.190428 -5.175131)" gradientUnits="userSpaceOnUse" r="21.166656" xlink:href="#c"/><radialGradient id="f" cx="450.908936" cy="189.579361" gradientTransform="matrix(-.00000012 -.0537161 .0966889 -.00000007 -12.190428 43.721801)" gradientUnits="userSpaceOnUse" r="21.166656" xlink:href="#c"/><radialGradient id="g" cx="450.908936" cy="189.579361" gradientTransform="matrix(.00000012 .0537161 -.0966889 .00000007 33.565842 -5.175132)" gradientUnits="userSpaceOnUse" r="21.166656" xlink:href="#c"/><linearGradient id="h" gradientUnits="userSpaceOnUse" x1="10.68771879588" x2="10.46032030419" y1="19.27334615" y2="1.99107865838"><stop offset="0" stop-color="#bdbdbd"/><stop offset="1" stop-color="#e0e0e0"/></linearGradient><linearGradient id="i" gradientTransform="matrix(-.0429729 0 0 -.0429729 30.926131 -1.618655)" gradientUnits="userSpaceOnUse" x1="275.166656" x2="275.166656" y1="-84.000496" y2="-486.167145"><stop offset="0" stop-color="#616161"/><stop offset="1" stop-color="#424242"/></linearGradient><linearGradient id="j" gradientUnits="userSpaceOnUse" x1="9.09592970692" x2="9.09592970692" y1="14.27057348398" y2="3.35545688398"><stop offset="0" stop-color="#3f51b5" stop-opacity=".392157"/><stop offset="1" stop-color="#c5cae9"/></linearGradient><linearGradient id="k" gradientUnits="userSpaceOnUse" x1="9.0963337" x2="9.09592017539" y1="12.97027843866" y2="6.99383238739"><stop offset="0" stop-color="#f5f5f5" stop-opacity=".392157"/><stop offset="1" stop-color="#fafafa" stop-opacity=".392157"/></linearGradient><radialGradient id="l" cx="450.908936" cy="189.579361" gradientTransform="matrix(.00000012 -.0537161 -.0966889 -.00000007 35.612423 43.721791)" gradientUnits="userSpaceOnUse" r="21.166656" xlink:href="#c"/><radialGradient id="m" cx="450.908936" cy="189.579361" gradientTransform="matrix(-.00000012 .0537161 .0966889 .00000007 -.820525 -5.175142)" gradientUnits="userSpaceOnUse" r="21.166656" xlink:href="#c"/><radialGradient id="n" cx="450.908936" cy="189.579361" gradientTransform="matrix(-.00000012 -.0537161 .0966889 -.00000007 -.820525 43.721791)" gradientUnits="userSpaceOnUse" r="21.166656" xlink:href="#c"/><radialGradient id="o" cx="450.908936" cy="189.579361" gradientTransform="matrix(.00000012 .0537161 -.0966889 .00000007 35.612422 -5.175143)" gradientUnits="userSpaceOnUse" r="21.166656" xlink:href="#c"/><linearGradient id="p" gradientTransform="matrix(.00918504 0 0 .0429729 12.322021 9.239165)" gradientUnits="userSpaceOnUse" x1="255.323059" x2="255.323044" xlink:href="#a" y1="233.5" y2="254.666656"/><linearGradient id="q" gradientTransform="matrix(.0303864 -.0303864 .0278542 .0278542 2.733965 20.531344)" gradientUnits="userSpaceOnUse" x1="192.736588" x2="477.111359" y1="165.093643" y2="-145.133408"><stop offset="0" stop-color="#424242"/><stop offset="1" stop-color="#616161"/></linearGradient><linearGradient id="r" gradientTransform="matrix(.0303864 -.0303864 .0303864 .0303864 2.624943 20.273542)" gradientUnits="userSpaceOnUse" x1="257.64035" x2="354.926453" y1="224.72374" y2="127.43763"><stop offset="0" stop-color="#7e57c2"/><stop offset="1" stop-color="#9575cd"/></linearGradient><path d="m5.058594 19.273438c-.503906 0-.910156-.40625-.910156-.910157v-.113281c0 .503906.40625.910156.910156.910156h11.3125c.503906 0 .910156-.40625.910156-.910156v.113281c0 .503907-.40625.910157-.910156.910157zm0 0" fill-opacity=".196078"/><path d="m5.914062 19.273438h9.550782v.910156h-9.550782zm0 0" fill="url(#b)"/><path d="m15.464844 19.273438h1.816406v-.910157h-1.816406zm0 0" fill="url(#d)"/><path d="m5.914062 19.273438h-1.820312v.910156h1.820312zm0 0" fill="url(#e)"/><path d="m5.914062 19.273438h-1.820312v-.910157h1.820312zm0 0" fill="url(#f)"/><path d="m15.464844 19.273438h1.816406v.910156h-1.816406zm0 0" fill="url(#g)"/><path d="m13.644531 1.992188h-8.640625c-.503906 0-.910156.40625-.910156.910156v15.460937c0 .503907.40625.910157.910156.910157h11.367188c.503906 0 .910156-.40625.910156-.910157v-12.734375zm0 0" fill="url(#h)"/><path d="m5.003906 1.992188c-.503906 0-.910156.40625-.910156.910156v.226562c0-.503906.40625-.910156.910156-.910156h8.867188l-.226563-.226562zm0 0" fill="#fff" fill-opacity=".392157"/><path d="m17.28125 5.628906-3.636719-3.636718v2.726562c0 .503906.40625.910156.910157.910156zm0 0" fill="url(#i)"/><path d="m4.09375 18.136719v.226562c0 .503907.40625.910157.910156.910157h11.367188c.503906 0 .910156-.40625.910156-.910157v-.226562c0 .503906-.40625.910156-.910156.910156h-11.367188c-.503906 0-.910156-.40625-.910156-.910156zm0 0" fill-opacity=".235294"/><path d="m13.644531 4.71875v.226562c0 .503907.40625.910157.910157.910157h2.726562v-.226563h-2.726562c-.503907 0-.910157-.40625-.910157-.910156zm0 0" fill-opacity=".235294"/><path d="m5.003906 1.925781c-.539062 0-.976562.4375-.976562.976563v15.460937c0 .539063.4375.972657.976562.972657h11.367188c.539062 0 .976562-.433594.976562-.972657v-12.734375c0-.003906 0-.003906 0-.007812s-.003906-.003906-.003906-.007813v-.003906c0-.003906-.003906-.003906-.003906-.007813 0 0 0-.003906-.003906-.003906 0-.003906 0-.003906 0-.007812h-.003907s0 0 0-.003906c-.003906 0-.003906 0-.003906 0s0 0 0-.003907l-3.640625-3.636719s0-.003906-.003906-.003906c0 0-.003906-.003906-.003906-.003906-.011719-.007812-.023438-.011719-.035157-.011719zm0 .128907h8.574219v2.664062c0 .539062.4375.976562.976563.976562h2.664062v12.667969c0 .46875-.375.84375-.847656.84375h-11.367188c-.46875 0-.847656-.375-.847656-.84375v-15.460937c0-.472656.378906-.847656.847656-.847656zm8.703125.09375 3.417969 3.417968h-2.570312c-.46875 0-.847657-.378906-.847657-.847656zm0 0" fill="#212121"/><path d="m9.097656 2.511719c3.515625 0 6.367188 2.847656 6.367188 6.367187 0 3.515625-2.851563 6.367188-6.367188 6.367188-3.519531 0-6.367187-2.851563-6.367187-6.367188 0-3.519531 2.847656-6.367187 6.367187-6.367187zm0 0" fill="url(#j)"/><path d="m12.734375 6.992188v.066406c0 2.769531-2.230469 5.003906-5.003906 5.003906-.507813 0-.996094-.078125-1.457031-.214844.734374.695313 1.726562 1.121094 2.824218 1.121094 2.265625 0 4.09375-1.824219 4.09375-4.089844 0-.683594-.167968-1.320312-.457031-1.886718zm0 0" fill="url(#k)"/><path d="m17.507812 19.273438h1.820313v-.910157h-1.820313zm0 0" fill="url(#l)"/><path d="m17.28125 19.273438h-1.816406v.910156h1.816406zm0 0" fill="url(#m)"/><path d="m17.28125 19.273438h-1.816406v-.910157h1.816406zm0 0" fill="url(#n)"/><path d="m17.507812 19.273438h1.820313v.910156h-1.820313zm0 0" fill="url(#o)"/><path d="m17.28125 19.273438h.226562v.910156h-.226562zm0 0" fill="url(#p)"/><path d="m9.097656 1.992188c-3.78125 0-6.824218 3.042968-6.824218 6.820312 0 3.78125 3.042968 6.824219 6.824218 6.824219 1.578125 0 3.03125-.535157 4.183594-1.429688l.941406.941407 1.285156-1.285157-.949218-.953125c.855468-1.140625 1.359375-2.558594 1.359375-4.097656 0-3.777344-3.042969-6.820312-6.820313-6.820312zm.003906 1.363281c3.027344 0 5.464844 2.433593 5.464844 5.457031s-2.4375 5.457031-5.464844 5.457031c-3.027343 0-5.464843-2.433593-5.464843-5.457031s2.4375-5.457031 5.464843-5.457031zm0 0" fill="url(#q)"/><path d="m14.222656 15.148438 1.285156-1.285157c.355469-.355469.933594-.355469 1.289063 0l2.570313 2.570313c.355468.355468.355468.933594 0 1.289062l-1.285157 1.285156c-.355469.355469-.933593.355469-1.285156 0l-2.574219-2.574218c-.355468-.355469-.355468-.929688 0-1.285156zm0 0" fill="url(#r)"/><path d="m9.097656 1.992188c-3.78125 0-6.824218 3.042968-6.824218 6.820312v.113281c.0625-3.726562 3.082031-6.707031 6.824218-6.707031 3.738282 0 6.757813 2.980469 6.820313 6.707031 0-.035156 0-.074219 0-.113281 0-3.777344-3.042969-6.820312-6.820313-6.820312zm-5.457031 6.933593c0 .039063-.003906.078125-.003906.113281 0 3.023438 2.4375 5.457032 5.464843 5.457032 3.027344 0 5.464844-2.433594 5.464844-5.457032 0-.035156 0-.074218-.003906-.113281-.058594 2.972657-2.472656 5.34375-5.460938 5.34375-2.988281 0-5.402343-2.371093-5.460937-5.34375zm11.011719 4.082031c-.03125.042969-.0625.085938-.09375.128907l.835937.839843.113281-.113281zm0 0" fill="#fff" fill-opacity=".392157"/><path d="m9.101562 3.191406c-3.027343 0-5.464843 2.433594-5.464843 5.457032 0 .027343 0 .054687.003906.082031.042969-2.984375 2.460937-5.375 5.460937-5.375s5.417969 2.390625 5.464844 5.375c0-.027344 0-.054688 0-.082031 0-3.023438-2.4375-5.457032-5.464844-5.457032zm6.816407 5.539063c-.019531 1.507812-.519531 2.898437-1.359375 4.015625l.070312.070312c.8125-1.125 1.289063-2.503906 1.289063-4.003906 0-.027344 0-.054688 0-.082031zm-13.644531 0v.082031c0 3.78125 3.042968 6.824219 6.824218 6.824219 1.578125 0 3.03125-.535157 4.183594-1.429688l.941406.941407 1.285156-1.285157-.082031-.082031-1.203125 1.203125-.941406-.941406c-1.152344.894531-2.605469 1.425781-4.183594 1.425781-3.753906 0-6.78125-2.996094-6.824218-6.738281zm0 0" fill-opacity=".235294"/><path d="m9.097656 1.925781c-3.816406 0-6.886718 3.074219-6.886718 6.886719 0 3.816406 3.070312 6.886719 6.886718 6.886719 1.574219 0 3.019532-.523438 4.175782-1.40625l.859374.855469c.015626-.015626.027344-.03125.042969-.046876l.046875-.042968-.894531-.898438c-.023437-.019531-.058594-.023437-.085937-.003906-1.144532.886719-2.582032 1.414062-4.144532 1.414062-3.746094 0-6.757812-3.011718-6.757812-6.757812s3.011718-6.757812 6.757812-6.757812c3.742188 0 6.753906 3.011718 6.753906 6.757812 0 1.527344-.5 2.929688-1.34375 4.058594-.019531.027344-.019531.0625.003907.085937l.90625.90625.046875-.046875c.011718-.015625.03125-.03125.046875-.042968l-.871094-.871094c.84375-1.140625 1.339844-2.554688 1.339844-4.089844 0-3.8125-3.070313-6.886719-6.882813-6.886719zm.003906 1.367188c-3.0625 0-5.527343 2.460937-5.527343 5.519531s2.464843 5.523438 5.527343 5.523438 5.527344-2.464844 5.527344-5.523438-2.464844-5.519531-5.527344-5.519531zm0 .128906c2.992188 0 5.398438 2.402344 5.398438 5.390625s-2.40625 5.394531-5.398438 5.394531c-2.992187 0-5.398437-2.40625-5.398437-5.394531s2.40625-5.390625 5.398437-5.390625zm0 0" fill="#212121"/><path d="m16.152344 13.59375c-.234375 0-.464844.089844-.644532.269531l-1.285156 1.285157c-.203125.203124-.289062.476562-.261718.742187.023437-.199219.109374-.390625.261718-.542969l1.285156-1.285156c.355469-.359375.929688-.359375 1.289063 0l2.570313 2.570312c.152343.152344.242187.347657.261718.542969.03125-.261719-.058594-.539062-.261718-.742187l-2.570313-2.570313c-.179687-.179687-.414063-.269531-.644531-.269531zm0 0" fill="#fff" fill-opacity=".392157"/><path d="m17.4375 19.296875c.234375 0 .464844-.089844.644531-.269531l1.285157-1.285156c.203124-.203126.292968-.476563.261718-.742188-.019531.199219-.109375.390625-.261718.542969l-1.285157 1.285156c-.355469.359375-.929687.359375-1.285156 0l-2.574219-2.570313c-.152344-.152343-.238281-.347656-.261718-.542968-.027344.261718.058593.539062.261718.742187l2.574219 2.570313c.175781.179687.410156.269531.640625.269531zm0 0" fill-opacity=".235294"/><path d="m14.175781 15.101562c-.378906.382813-.378906.996094 0 1.378907l2.574219 2.574219c.378906.378906.996094.378906 1.378906 0l1.285156-1.289063c.378907-.378906.378907-.996094 0-1.375l-2.574218-2.574219c-.378906-.378906-.996094-.378906-1.375 0zm.09375.09375 1.285157-1.289062c.332031-.332031.863281-.332031 1.195312 0l2.570312 2.574219c.332032.332031.332032.863281 0 1.195312l-1.285156 1.285157c-.332031.332031-.863281.332031-1.195312 0l-2.570313-2.570313c-.332031-.332031-.332031-.863281 0-1.195313zm0 0" fill="#212121"/></svg>