<?xml version="1.0" encoding="UTF-8"?>
<svg xmlns="http://www.w3.org/2000/svg" xmlns:xlink="http://www.w3.org/1999/xlink" width="22pt" height="22pt" viewBox="0 0 22 22" version="1.1">
<defs>
<radialGradient id="radial0" gradientUnits="userSpaceOnUse" cx="450.908936" cy="189.579361" fx="450.908936" fy="189.579361" r="21.166656" gradientTransform="matrix(0.000000119742,-0.0537161,-0.0966889,-0.0000000698078,21.96854,42.424782)">
<stop offset="0" style="stop-color:rgb(0%,0%,0%);stop-opacity:0.313725;"/>
<stop offset="0.222222" style="stop-color:rgb(0%,0%,0%);stop-opacity:0.27451;"/>
<stop offset="1" style="stop-color:rgb(0%,0%,0%);stop-opacity:0;"/>
</radialGradient>
<radialGradient id="radial1" gradientUnits="userSpaceOnUse" cx="450.908936" cy="189.579361" fx="450.908936" fy="189.579361" r="21.166656" gradientTransform="matrix(-0.000000119742,0.0537161,0.0966889,0.0000000698078,-14.237011,-6.472151)">
<stop offset="0" style="stop-color:rgb(0%,0%,0%);stop-opacity:0.313725;"/>
<stop offset="0.222222" style="stop-color:rgb(0%,0%,0%);stop-opacity:0.27451;"/>
<stop offset="1" style="stop-color:rgb(0%,0%,0%);stop-opacity:0;"/>
</radialGradient>
<radialGradient id="radial2" gradientUnits="userSpaceOnUse" cx="450.908936" cy="189.579361" fx="450.908936" fy="189.579361" r="21.166656" gradientTransform="matrix(-0.000000119742,-0.0537161,0.0966889,-0.0000000698078,-14.237011,42.424782)">
<stop offset="0" style="stop-color:rgb(0%,0%,0%);stop-opacity:0.313725;"/>
<stop offset="0.222222" style="stop-color:rgb(0%,0%,0%);stop-opacity:0.27451;"/>
<stop offset="1" style="stop-color:rgb(0%,0%,0%);stop-opacity:0;"/>
</radialGradient>
<radialGradient id="radial3" gradientUnits="userSpaceOnUse" cx="450.908936" cy="189.579361" fx="450.908936" fy="189.579361" r="21.166656" gradientTransform="matrix(0.000000119742,0.0537161,-0.0966889,0.0000000698078,21.968539,-6.472152)">
<stop offset="0" style="stop-color:rgb(0%,0%,0%);stop-opacity:0.313725;"/>
<stop offset="0.222222" style="stop-color:rgb(0%,0%,0%);stop-opacity:0.27451;"/>
<stop offset="1" style="stop-color:rgb(0%,0%,0%);stop-opacity:0;"/>
</radialGradient>
<radialGradient id="radial4" gradientUnits="userSpaceOnUse" cx="450.908936" cy="189.579361" fx="450.908936" fy="189.579361" r="21.166656" gradientTransform="matrix(0.000000119742,-0.0537161,-0.0966889,-0.0000000698078,31.064456,42.424782)">
<stop offset="0" style="stop-color:rgb(0%,0%,0%);stop-opacity:0.313725;"/>
<stop offset="0.222222" style="stop-color:rgb(0%,0%,0%);stop-opacity:0.27451;"/>
<stop offset="1" style="stop-color:rgb(0%,0%,0%);stop-opacity:0;"/>
</radialGradient>
<radialGradient id="radial5" gradientUnits="userSpaceOnUse" cx="450.908936" cy="189.579361" fx="450.908936" fy="189.579361" r="21.166656" gradientTransform="matrix(-0.000000119742,0.0537161,0.0966889,0.0000000698078,-5.141094,-6.472151)">
<stop offset="0" style="stop-color:rgb(0%,0%,0%);stop-opacity:0.313725;"/>
<stop offset="0.222222" style="stop-color:rgb(0%,0%,0%);stop-opacity:0.27451;"/>
<stop offset="1" style="stop-color:rgb(0%,0%,0%);stop-opacity:0;"/>
</radialGradient>
<radialGradient id="radial6" gradientUnits="userSpaceOnUse" cx="450.908936" cy="189.579361" fx="450.908936" fy="189.579361" r="21.166656" gradientTransform="matrix(-0.000000119742,-0.0537161,0.0966889,-0.0000000698078,-5.141094,42.424782)">
<stop offset="0" style="stop-color:rgb(0%,0%,0%);stop-opacity:0.313725;"/>
<stop offset="0.222222" style="stop-color:rgb(0%,0%,0%);stop-opacity:0.27451;"/>
<stop offset="1" style="stop-color:rgb(0%,0%,0%);stop-opacity:0;"/>
</radialGradient>
<radialGradient id="radial7" gradientUnits="userSpaceOnUse" cx="450.908936" cy="189.579361" fx="450.908936" fy="189.579361" r="21.166656" gradientTransform="matrix(0.000000119742,0.0537161,-0.0966889,0.0000000698078,31.064455,-6.472152)">
<stop offset="0" style="stop-color:rgb(0%,0%,0%);stop-opacity:0.313725;"/>
<stop offset="0.222222" style="stop-color:rgb(0%,0%,0%);stop-opacity:0.27451;"/>
<stop offset="1" style="stop-color:rgb(0%,0%,0%);stop-opacity:0;"/>
</radialGradient>
<linearGradient id="linear0" gradientUnits="userSpaceOnUse" x1="296.333344" y1="233.5" x2="296.333344" y2="127.666656" gradientTransform="matrix(1,0,0,1,0,-21.166679)">
<stop offset="0" style="stop-color:rgb(93.72549%,32.54902%,31.372549%);stop-opacity:1;"/>
<stop offset="1" style="stop-color:rgb(89.803922%,45.098039%,45.098039%);stop-opacity:1;"/>
</linearGradient>
<radialGradient id="radial8" gradientUnits="userSpaceOnUse" cx="450.908936" cy="189.579361" fx="450.908936" fy="189.579361" r="21.166656" gradientTransform="matrix(0.000000119742,-0.0537161,-0.0966889,-0.0000000698078,35.612418,42.424782)">
<stop offset="0" style="stop-color:rgb(0%,0%,0%);stop-opacity:0.313725;"/>
<stop offset="0.222222" style="stop-color:rgb(0%,0%,0%);stop-opacity:0.27451;"/>
<stop offset="1" style="stop-color:rgb(0%,0%,0%);stop-opacity:0;"/>
</radialGradient>
<radialGradient id="radial9" gradientUnits="userSpaceOnUse" cx="450.908936" cy="189.579361" fx="450.908936" fy="189.579361" r="21.166656" gradientTransform="matrix(-0.000000119742,0.0537161,0.0966889,0.0000000698078,-0.593132,-6.472151)">
<stop offset="0" style="stop-color:rgb(0%,0%,0%);stop-opacity:0.313725;"/>
<stop offset="0.222222" style="stop-color:rgb(0%,0%,0%);stop-opacity:0.27451;"/>
<stop offset="1" style="stop-color:rgb(0%,0%,0%);stop-opacity:0;"/>
</radialGradient>
<radialGradient id="radial10" gradientUnits="userSpaceOnUse" cx="450.908936" cy="189.579361" fx="450.908936" fy="189.579361" r="21.166656" gradientTransform="matrix(-0.000000119742,-0.0537161,0.0966889,-0.0000000698078,-0.593132,42.424782)">
<stop offset="0" style="stop-color:rgb(0%,0%,0%);stop-opacity:0.313725;"/>
<stop offset="0.222222" style="stop-color:rgb(0%,0%,0%);stop-opacity:0.27451;"/>
<stop offset="1" style="stop-color:rgb(0%,0%,0%);stop-opacity:0;"/>
</radialGradient>
<radialGradient id="radial11" gradientUnits="userSpaceOnUse" cx="450.908936" cy="189.579361" fx="450.908936" fy="189.579361" r="21.166656" gradientTransform="matrix(0.000000119742,0.0537161,-0.0966889,0.0000000698078,35.612417,-6.472152)">
<stop offset="0" style="stop-color:rgb(0%,0%,0%);stop-opacity:0.313725;"/>
<stop offset="0.222222" style="stop-color:rgb(0%,0%,0%);stop-opacity:0.27451;"/>
<stop offset="1" style="stop-color:rgb(0%,0%,0%);stop-opacity:0;"/>
</radialGradient>
<linearGradient id="linear1" gradientUnits="userSpaceOnUse" x1="402.166656" y1="212.333328" x2="402.166656" y2="127.666656" gradientTransform="matrix(1,0,0,1,0,-21.166679)">
<stop offset="0" style="stop-color:rgb(93.72549%,32.54902%,31.372549%);stop-opacity:1;"/>
<stop offset="1" style="stop-color:rgb(89.803922%,45.098039%,45.098039%);stop-opacity:1;"/>
</linearGradient>
<linearGradient id="linear2" gradientUnits="userSpaceOnUse" x1="84.666664" y1="212.333328" x2="84.666664" y2="127.666656" gradientTransform="matrix(1,0,0,1,0,-21.166679)">
<stop offset="0" style="stop-color:rgb(93.72549%,32.54902%,31.372549%);stop-opacity:1;"/>
<stop offset="1" style="stop-color:rgb(89.803922%,45.098039%,45.098039%);stop-opacity:1;"/>
</linearGradient>
<linearGradient id="linear3" gradientUnits="userSpaceOnUse" x1="296.333344" y1="106.5" x2="296.333344" y2="0.666667" gradientTransform="matrix(1,0,0,1,0,-21.166679)">
<stop offset="0" style="stop-color:rgb(50.588235%,78.039216%,51.764706%);stop-opacity:1;"/>
<stop offset="1" style="stop-color:rgb(64.705882%,83.921569%,65.490196%);stop-opacity:1;"/>
</linearGradient>
<linearGradient id="linear4" gradientUnits="userSpaceOnUse" x1="190.5" y1="-20.5" x2="190.5" y2="-105.166656" gradientTransform="matrix(1,0,0,1,0,-21.166679)">
<stop offset="0" style="stop-color:rgb(93.72549%,32.54902%,31.372549%);stop-opacity:1;"/>
<stop offset="1" style="stop-color:rgb(89.803922%,45.098039%,45.098039%);stop-opacity:1;"/>
</linearGradient>
<radialGradient id="radial12" gradientUnits="userSpaceOnUse" cx="450.908936" cy="189.579361" fx="450.908936" fy="189.579361" r="21.166656" gradientTransform="matrix(0.000000119742,-0.0537161,-0.0966889,-0.0000000698078,26.5165,42.424782)">
<stop offset="0" style="stop-color:rgb(0%,0%,0%);stop-opacity:0.313725;"/>
<stop offset="0.222222" style="stop-color:rgb(0%,0%,0%);stop-opacity:0.27451;"/>
<stop offset="1" style="stop-color:rgb(0%,0%,0%);stop-opacity:0;"/>
</radialGradient>
<radialGradient id="radial13" gradientUnits="userSpaceOnUse" cx="450.908936" cy="189.579361" fx="450.908936" fy="189.579361" r="21.166656" gradientTransform="matrix(-0.000000119742,0.0537161,0.0966889,0.0000000698078,-9.689051,-6.472151)">
<stop offset="0" style="stop-color:rgb(0%,0%,0%);stop-opacity:0.313725;"/>
<stop offset="0.222222" style="stop-color:rgb(0%,0%,0%);stop-opacity:0.27451;"/>
<stop offset="1" style="stop-color:rgb(0%,0%,0%);stop-opacity:0;"/>
</radialGradient>
<radialGradient id="radial14" gradientUnits="userSpaceOnUse" cx="450.908936" cy="189.579361" fx="450.908936" fy="189.579361" r="21.166656" gradientTransform="matrix(-0.000000119742,-0.0537161,0.0966889,-0.0000000698078,-9.689051,42.424782)">
<stop offset="0" style="stop-color:rgb(0%,0%,0%);stop-opacity:0.313725;"/>
<stop offset="0.222222" style="stop-color:rgb(0%,0%,0%);stop-opacity:0.27451;"/>
<stop offset="1" style="stop-color:rgb(0%,0%,0%);stop-opacity:0;"/>
</radialGradient>
<radialGradient id="radial15" gradientUnits="userSpaceOnUse" cx="450.908936" cy="189.579361" fx="450.908936" fy="189.579361" r="21.166656" gradientTransform="matrix(0.000000119742,0.0537161,-0.0966889,0.0000000698078,26.516498,-6.472152)">
<stop offset="0" style="stop-color:rgb(0%,0%,0%);stop-opacity:0.313725;"/>
<stop offset="0.222222" style="stop-color:rgb(0%,0%,0%);stop-opacity:0.27451;"/>
<stop offset="1" style="stop-color:rgb(0%,0%,0%);stop-opacity:0;"/>
</radialGradient>
<linearGradient id="linear5" gradientUnits="userSpaceOnUse" x1="296.333344" y1="106.5" x2="296.333344" y2="0.666667" gradientTransform="matrix(1,0,0,1,-105.833328,95.249992)">
<stop offset="0" style="stop-color:rgb(50.588235%,78.039216%,51.764706%);stop-opacity:1;"/>
<stop offset="1" style="stop-color:rgb(64.705882%,83.921569%,65.490196%);stop-opacity:1;"/>
</linearGradient>
<linearGradient id="linear6" gradientUnits="userSpaceOnUse" x1="296.333344" y1="106.5" x2="296.333344" y2="0.666667" gradientTransform="matrix(1,0,0,1,-105.833328,-21.166666)">
<stop offset="0" style="stop-color:rgb(50.588235%,78.039216%,51.764706%);stop-opacity:1;"/>
<stop offset="1" style="stop-color:rgb(64.705882%,83.921569%,65.490196%);stop-opacity:1;"/>
</linearGradient>
<linearGradient id="linear7" gradientUnits="userSpaceOnUse" x1="296.333344" y1="106.5" x2="296.333344" y2="0.666667" gradientTransform="matrix(1,0,0,1,-211.666672,-21.166666)">
<stop offset="0" style="stop-color:rgb(50.588235%,78.039216%,51.764706%);stop-opacity:1;"/>
<stop offset="1" style="stop-color:rgb(64.705882%,83.921569%,65.490196%);stop-opacity:1;"/>
</linearGradient>
<linearGradient id="linear8" gradientUnits="userSpaceOnUse" x1="296.333344" y1="106.5" x2="296.333344" y2="0.666667" gradientTransform="matrix(1,0,0,1,-211.666672,-137.583328)">
<stop offset="0" style="stop-color:rgb(50.588235%,78.039216%,51.764706%);stop-opacity:1;"/>
<stop offset="1" style="stop-color:rgb(64.705882%,83.921569%,65.490196%);stop-opacity:1;"/>
</linearGradient>
</defs>
<g id="surface1">
<path style=" stroke:none;fill-rule:nonzero;fill:url(#radial0);" d="M 3.867188 17.976562 L 5.683594 17.976562 L 5.683594 17.066406 L 3.867188 17.066406 Z M 3.867188 17.976562 "/>
<path style=" stroke:none;fill-rule:nonzero;fill:url(#radial1);" d="M 3.867188 17.976562 L 2.046875 17.976562 L 2.046875 18.886719 L 3.867188 18.886719 Z M 3.867188 17.976562 "/>
<path style=" stroke:none;fill-rule:nonzero;fill:url(#radial2);" d="M 3.867188 17.976562 L 2.046875 17.976562 L 2.046875 17.066406 L 3.867188 17.066406 Z M 3.867188 17.976562 "/>
<path style=" stroke:none;fill-rule:nonzero;fill:url(#radial3);" d="M 3.867188 17.976562 L 5.683594 17.976562 L 5.683594 18.886719 L 3.867188 18.886719 Z M 3.867188 17.976562 "/>
<path style=" stroke:none;fill-rule:nonzero;fill:url(#radial4);" d="M 12.960938 17.976562 L 14.78125 17.976562 L 14.78125 17.066406 L 12.960938 17.066406 Z M 12.960938 17.976562 "/>
<path style=" stroke:none;fill-rule:nonzero;fill:url(#radial5);" d="M 12.960938 17.976562 L 11.140625 17.976562 L 11.140625 18.886719 L 12.960938 18.886719 Z M 12.960938 17.976562 "/>
<path style=" stroke:none;fill-rule:nonzero;fill:url(#radial6);" d="M 12.960938 17.976562 L 11.140625 17.976562 L 11.140625 17.066406 L 12.960938 17.066406 Z M 12.960938 17.976562 "/>
<path style=" stroke:none;fill-rule:nonzero;fill:url(#radial7);" d="M 12.960938 17.976562 L 14.78125 17.976562 L 14.78125 18.886719 L 12.960938 18.886719 Z M 12.960938 17.976562 "/>
<path style="fill-rule:nonzero;fill:url(#linear0);stroke-width:3;stroke-linecap:square;stroke-linejoin:bevel;stroke:rgb(20%,20%,20%);stroke-opacity:1;stroke-miterlimit:4;" d="M 301.607562 106.514751 C 327.968681 106.514751 349.239377 127.785447 349.239377 154.146566 C 349.239377 180.416785 327.968681 201.778381 301.607562 201.778381 C 275.337343 201.778381 253.975747 180.416785 253.975747 154.146566 C 253.975747 127.785447 275.337343 106.514751 301.607562 106.514751 Z M 301.607562 106.514751 " transform="matrix(0.0429729,0,0,0.0429729,0,9.239163)"/>
<path style=" stroke:none;fill-rule:nonzero;fill:url(#radial8);" d="M 17.507812 17.976562 L 19.328125 17.976562 L 19.328125 17.066406 L 17.507812 17.066406 Z M 17.507812 17.976562 "/>
<path style=" stroke:none;fill-rule:nonzero;fill:url(#radial9);" d="M 17.507812 17.976562 L 15.691406 17.976562 L 15.691406 18.886719 L 17.507812 18.886719 Z M 17.507812 17.976562 "/>
<path style=" stroke:none;fill-rule:nonzero;fill:url(#radial10);" d="M 17.507812 17.976562 L 15.691406 17.976562 L 15.691406 17.066406 L 17.507812 17.066406 Z M 17.507812 17.976562 "/>
<path style=" stroke:none;fill-rule:nonzero;fill:url(#radial11);" d="M 17.507812 17.976562 L 19.328125 17.976562 L 19.328125 18.886719 L 17.507812 18.886719 Z M 17.507812 17.976562 "/>
<path style="fill-rule:nonzero;fill:url(#linear1);stroke-width:3;stroke-linecap:square;stroke-linejoin:bevel;stroke:rgb(20%,20%,20%);stroke-opacity:1;stroke-miterlimit:4;" d="M 407.415639 106.514751 C 433.776758 106.514751 455.047454 127.785447 455.047454 154.146566 C 455.047454 180.416785 433.776758 201.778381 407.415639 201.778381 C 381.145421 201.778381 359.874725 180.416785 359.874725 154.146566 C 359.874725 127.785447 381.145421 106.514751 407.415639 106.514751 Z M 407.415639 106.514751 " transform="matrix(0.0429729,0,0,0.0429729,0,9.239163)"/>
<path style="fill-rule:nonzero;fill:url(#linear2);stroke-width:3;stroke-linecap:square;stroke-linejoin:bevel;stroke:rgb(20%,20%,20%);stroke-opacity:1;stroke-miterlimit:4;" d="M 89.991406 106.514751 C 116.261625 106.514751 137.623221 127.785447 137.623221 154.146566 C 137.623221 180.416785 116.261625 201.778381 89.991406 201.778381 C 63.630287 201.778381 42.359591 180.416785 42.359591 154.146566 C 42.359591 127.785447 63.630287 106.514751 89.991406 106.514751 Z M 89.991406 106.514751 " transform="matrix(0.0429729,0,0,0.0429729,0,9.239163)"/>
<path style="fill-rule:nonzero;fill:url(#linear3);stroke-width:3;stroke-linecap:square;stroke-linejoin:bevel;stroke:rgb(20%,20%,20%);stroke-opacity:1;stroke-miterlimit:4;" d="M 301.607562 -9.928674 C 327.968681 -9.928674 349.239377 11.432922 349.239377 37.703141 C 349.239377 63.973359 327.968681 85.334956 301.607562 85.334956 C 275.337343 85.334956 253.975747 63.973359 253.975747 37.703141 C 253.975747 11.432922 275.337343 -9.928674 301.607562 -9.928674 Z M 301.607562 -9.928674 " transform="matrix(0.0429729,0,0,0.0429729,0,9.239163)"/>
<path style="fill-rule:nonzero;fill:url(#linear4);stroke-width:3;stroke-linecap:square;stroke-linejoin:bevel;stroke:rgb(20%,20%,20%);stroke-opacity:1;stroke-miterlimit:4;" d="M 195.799484 -126.3721 C 222.069702 -126.3721 243.431299 -105.010503 243.431299 -78.740285 C 243.431299 -52.379166 222.069702 -31.10847 195.799484 -31.10847 C 169.529265 -31.10847 148.167669 -52.379166 148.167669 -78.740285 C 148.167669 -105.010503 169.529265 -126.3721 195.799484 -126.3721 Z M 195.799484 -126.3721 " transform="matrix(0.0429729,0,0,0.0429729,0,9.239163)"/>
<path style=" stroke:none;fill-rule:nonzero;fill:url(#radial12);" d="M 8.414062 17.976562 L 10.234375 17.976562 L 10.234375 17.066406 L 8.414062 17.066406 Z M 8.414062 17.976562 "/>
<path style=" stroke:none;fill-rule:nonzero;fill:url(#radial13);" d="M 8.414062 17.976562 L 6.59375 17.976562 L 6.59375 18.886719 L 8.414062 18.886719 Z M 8.414062 17.976562 "/>
<path style=" stroke:none;fill-rule:nonzero;fill:url(#radial14);" d="M 8.414062 17.976562 L 6.59375 17.976562 L 6.59375 17.066406 L 8.414062 17.066406 Z M 8.414062 17.976562 "/>
<path style=" stroke:none;fill-rule:nonzero;fill:url(#radial15);" d="M 8.414062 17.976562 L 10.234375 17.976562 L 10.234375 18.886719 L 8.414062 18.886719 Z M 8.414062 17.976562 "/>
<path style="fill-rule:nonzero;fill:url(#linear5);stroke-width:3;stroke-linecap:square;stroke-linejoin:bevel;stroke:rgb(20%,20%,20%);stroke-opacity:1;stroke-miterlimit:4;" d="M 195.799484 106.514751 C 222.069702 106.514751 243.431299 127.785447 243.431299 154.146566 C 243.431299 180.416785 222.069702 201.778381 195.799484 201.778381 C 169.529265 201.778381 148.167669 180.416785 148.167669 154.146566 C 148.167669 127.785447 169.529265 106.514751 195.799484 106.514751 Z M 195.799484 106.514751 " transform="matrix(0.0429729,0,0,0.0429729,0,9.239163)"/>
<path style="fill-rule:nonzero;fill:url(#linear6);stroke-width:3;stroke-linecap:square;stroke-linejoin:bevel;stroke:rgb(20%,20%,20%);stroke-opacity:1;stroke-miterlimit:4;" d="M 195.799484 -9.928674 C 222.069702 -9.928674 243.431299 11.432922 243.431299 37.703141 C 243.431299 63.973359 222.069702 85.334956 195.799484 85.334956 C 169.529265 85.334956 148.167669 63.973359 148.167669 37.703141 C 148.167669 11.432922 169.529265 -9.928674 195.799484 -9.928674 Z M 195.799484 -9.928674 " transform="matrix(0.0429729,0,0,0.0429729,0,9.239163)"/>
<path style="fill-rule:nonzero;fill:url(#linear7);stroke-width:3;stroke-linecap:square;stroke-linejoin:bevel;stroke:rgb(20%,20%,20%);stroke-opacity:1;stroke-miterlimit:4;" d="M 89.991406 -9.928674 C 116.261625 -9.928674 137.623221 11.432922 137.623221 37.703141 C 137.623221 63.973359 116.261625 85.334956 89.991406 85.334956 C 63.630287 85.334956 42.359591 63.973359 42.359591 37.703141 C 42.359591 11.432922 63.630287 -9.928674 89.991406 -9.928674 Z M 89.991406 -9.928674 " transform="matrix(0.0429729,0,0,0.0429729,0,9.239163)"/>
<path style="fill-rule:nonzero;fill:url(#linear8);stroke-width:3;stroke-linecap:square;stroke-linejoin:bevel;stroke:rgb(20%,20%,20%);stroke-opacity:1;stroke-miterlimit:4;" d="M 89.991406 -126.3721 C 116.261625 -126.3721 137.623221 -105.010503 137.623221 -78.740285 C 137.623221 -52.379166 116.261625 -31.10847 89.991406 -31.10847 C 63.630287 -31.10847 42.359591 -52.379166 42.359591 -78.740285 C 42.359591 -105.010503 63.630287 -126.3721 89.991406 -126.3721 Z M 89.991406 -126.3721 " transform="matrix(0.0429729,0,0,0.0429729,0,9.239163)"/>
</g>
</svg>
