<svg height="22pt" viewBox="0 0 22 22" width="22pt" xmlns="http://www.w3.org/2000/svg" xmlns:xlink="http://www.w3.org/1999/xlink"><linearGradient id="a" gradientTransform="matrix(.01575 0 0 .04297 6.895 9.24)" gradientUnits="userSpaceOnUse" x1="254" x2="254" y1="233.5" y2="254.667"><stop offset="0" stop-opacity=".275"/><stop offset="1" stop-opacity="0"/></linearGradient><linearGradient id="b"><stop offset="0" stop-opacity=".314"/><stop offset=".222" stop-opacity=".275"/><stop offset="1" stop-opacity="0"/></linearGradient><radialGradient id="c" cx="450.909" cy="189.579" gradientTransform="matrix(0 -.05372 -.09669 0 31.747 43.722)" gradientUnits="userSpaceOnUse" r="21.167" xlink:href="#b"/><radialGradient id="d" cx="450.909" cy="189.579" gradientTransform="matrix(0 .05372 .09669 0 -9.916 -5.175)" gradientUnits="userSpaceOnUse" r="21.167" xlink:href="#b"/><radialGradient id="e" cx="450.909" cy="189.579" gradientTransform="matrix(0 -.05372 .09669 0 -9.916 43.722)" gradientUnits="userSpaceOnUse" r="21.167" xlink:href="#b"/><radialGradient id="f" cx="450.909" cy="189.579" gradientTransform="matrix(0 .05372 -.09669 0 31.747 -5.175)" gradientUnits="userSpaceOnUse" r="21.167" xlink:href="#b"/><linearGradient id="g" gradientTransform="matrix(.0113699 .00004763 -.00004763 .0113699 0 0)" gradientUnits="userSpaceOnUse" x1="960" x2="960" y1="1695.118" y2="175.118"><stop offset="0" stop-color="#42a5f5"/><stop offset="1" stop-color="#64b5f6"/></linearGradient><linearGradient id="h"><stop offset="0" stop-color="#bdbdbd"/><stop offset="1" stop-color="#e0e0e0"/></linearGradient><linearGradient id="i" gradientUnits="userSpaceOnUse" x1="10.91438" x2="10.91438" xlink:href="#h" y1="19.273495" y2="2.21977625"/><linearGradient id="j" gradientUnits="userSpaceOnUse" x1="7.73103349" x2="7.73103349" xlink:href="#h" y1="19.273495" y2="1.99237901"/><linearGradient id="k"><stop offset="0" stop-color="#424242"/><stop offset="1" stop-color="#616161"/></linearGradient><linearGradient id="l" gradientUnits="userSpaceOnUse" x1="6.8214875" x2="6.8214875" xlink:href="#k" y1="11.54246151" y2="7.90436349"/><linearGradient id="m" gradientUnits="userSpaceOnUse" x1="15.91703349" x2="15.91703349" xlink:href="#h" y1="19.273495" y2="1.99237901"/><linearGradient id="n" gradientUnits="userSpaceOnUse" x1="15.0074875" x2="15.0074875" xlink:href="#k" y1="11.54246151" y2="7.90436349"/><path d="m8.188 19.273h5.457v.91h-5.457zm0 0" fill="url(#a)"/><path d="m13.645 19.273h1.82v-.91h-1.82zm0 0" fill="url(#c)"/><path d="m8.188 19.273h-1.82v.91h1.82zm0 0" fill="url(#d)"/><path d="m8.188 19.273h-1.82v-.91h1.82zm0 0" fill="url(#e)"/><path d="m13.645 19.273h1.82v.91h-1.82zm0 0" fill="url(#f)"/><path d="m9.285 2.184a.905.905 0 0 0 -.226.03l-1.758.47a.912.912 0 0 0 -.645 1.116l.285 1.062a5.454 5.454 0 0 0 -1.43.551l-1.205-.693a.908.908 0 0 0 -1.242.336l-.91 1.574a.911.911 0 0 0 .331 1.242l.606.348a5.44 5.44 0 0 0 -.36 1.957v3.183h3.184c.25 0 .453.207.453.457v.91h2.274v-.91c0-.25.203-.457.457-.457h3.636c.25 0 .454.207.454.457v.91h2.277v-.91c0-.25.203-.457.453-.457h3.184v-3.183c0-.688-.125-1.344-.356-1.95l.656-.378a.904.904 0 0 0 .332-1.243l-.91-1.574a.908.908 0 0 0 -1.242-.336l-1.254.727a5.346 5.346 0 0 0 -1.387-.547l.286-1.074a.91.91 0 0 0 -.641-1.117l-1.758-.47a.904.904 0 0 0 -1.113.641l-.5 1.864h-.543l-.5-1.864a.905.905 0 0 0 -.887-.671zm-6.539 12.086a5.448 5.448 0 0 0 5.441 5.003h5.458a5.445 5.445 0 0 0 5.437-5.003h-2.71v.91c0 .25-.204.453-.454.453h-3.184a.453.453 0 0 1 -.453-.453v-.91h-2.73v.91c0 .25-.203.453-.453.453h-3.184a.454.454 0 0 1 -.457-.453v-.91zm0 0" fill="url(#g)"/><path d="m10.914 10.176c.379 0 .684.308.684.683v.91a.684.684 0 0 1 -.684.684.684.684 0 0 1 -.68-.683v-.91c0-.376.305-.684.68-.684zm0 0" fill="url(#i)"/><path d="m6.82 7.902a1.82 1.82 0 1 1 0 3.641 1.819 1.819 0 0 1 -1.816-1.82c0-1.004.812-1.82 1.816-1.82zm0 0" fill="url(#j)"/><path d="m6.82 9.04a.684.684 0 0 1 0 1.366.684.684 0 0 1 0-1.367zm0 0" fill="url(#l)"/><path d="m6.82 7.902a1.814 1.814 0 0 0 -1.808 1.993c.086-.93.86-1.649 1.808-1.649.953 0 1.727.719 1.813 1.649.004-.06.008-.114.008-.172 0-1.008-.813-1.82-1.82-1.82zm0 0" fill="#fff"/><path d="m6.82 11.883a1.814 1.814 0 0 1 -1.808-1.988c.086.925.86 1.648 1.808 1.648.953 0 1.727-.723 1.813-1.648a1.817 1.817 0 0 1 -1.812 1.988zm0 0" fill-opacity=".235"/><path d="m6.82 7.902a1.82 1.82 0 1 1 0 3.641 1.819 1.819 0 0 1 -1.816-1.82c0-1.004.812-1.82 1.816-1.82zm0 0" fill="none" stroke="#212121" stroke-linecap="round" stroke-linejoin="round" stroke-width=".12891"/><path d="m6.82 9.04a.684.684 0 0 1 0 1.366.684.684 0 0 1 0-1.367zm0 0" fill="none" stroke="#212121" stroke-linecap="round" stroke-linejoin="round" stroke-width=".12891"/><path d="m15.008 7.902c1.004 0 1.82.817 1.82 1.82 0 1.005-.816 1.821-1.82 1.821a1.822 1.822 0 0 1 -1.82-1.82c0-1.004.816-1.82 1.82-1.82zm0 0" fill="url(#m)"/><path d="m15.008 9.04a.684.684 0 0 1 0 1.366.687.687 0 0 1 -.684-.683c0-.375.309-.684.684-.684zm0 0" fill="url(#n)"/><path d="m15.008 7.902c-1.008 0-1.82.813-1.82 1.82 0 .06.003.114.007.173a1.815 1.815 0 0 1 1.813-1.649c.949 0 1.726.719 1.812 1.649.004-.06.008-.114.008-.172 0-1.008-.812-1.82-1.82-1.82zm0 0" fill="#fff"/><path d="m15.008 11.883a1.817 1.817 0 0 1 -1.813-1.988 1.818 1.818 0 0 0 1.813 1.648c.949 0 1.726-.723 1.812-1.648a1.817 1.817 0 0 1 -1.813 1.988zm0 0" fill-opacity=".235"/><path d="m15.008 7.902c1.004 0 1.82.817 1.82 1.82 0 1.005-.816 1.821-1.82 1.821a1.822 1.822 0 0 1 -1.82-1.82c0-1.004.816-1.82 1.82-1.82zm0 0" fill="none" stroke="#212121" stroke-linecap="round" stroke-linejoin="round" stroke-width=".12891"/><path d="m15.008 9.04a.684.684 0 0 1 0 1.366.687.687 0 0 1 -.684-.683c0-.375.309-.684.684-.684zm0 0" fill="none" stroke="#212121" stroke-linecap="round" stroke-linejoin="round" stroke-width=".12891"/><path d="m9.285 2.184a.905.905 0 0 0 -.226.03l-1.758.47a.906.906 0 0 0 -.672.824.913.913 0 0 1 .598-.524l1.757-.468a.903.903 0 0 1 1.113.645l.5 1.859h.544l.5-1.86a.91.91 0 0 1 1.113-.644l1.758.468a.912.912 0 0 1 .668.993l.047-.176a.91.91 0 0 0 -.641-1.117l-1.758-.47a.904.904 0 0 0 -1.113.641l-.5 1.864h-.543l-.5-1.864a.905.905 0 0 0 -.887-.671zm8.774 2.39a.912.912 0 0 0 -.477.121l-1.254.727a5.434 5.434 0 0 0 -1.379-.547l-.082.3c.492.118.961.305 1.39.548l1.256-.723a.905.905 0 0 1 1.242.332l.91 1.574c.094.164.129.34.121.512a.907.907 0 0 0 -.05-.813l-.91-1.574a.904.904 0 0 0 -.766-.457zm-14.23.024a.904.904 0 0 0 -.767.457l-.91 1.574a.876.876 0 0 0 -.12.398c.015-.03.03-.066.05-.097l.91-1.575a.908.908 0 0 1 1.242-.335l1.204.699c.44-.25.921-.438 1.433-.555l-.074-.266a5.427 5.427 0 0 0 -1.285.516l-1.207-.694a.903.903 0 0 0 -.477-.121zm14.991 3.842-.148.086c.23.606.36 1.262.36 1.953v2.88h.07v-3.184c0-.606-.098-1.188-.282-1.735zm-15.832.063c-.058.18-.105.363-.144.547.05-.18.105-.36.172-.531zm5.653 5.367a.461.461 0 0 0 -.07.246v.61h.07zm6.824 0a.465.465 0 0 0 -.074.246v.61h.074zm-12.719.399c.008.101.02.203.035.3h2.606v.91c0 .254.203.457.453.457h3.183c.25 0 .457-.203.457-.457v-.054a.463.463 0 0 1 -.382.207h-3.184a.454.454 0 0 1 -.457-.453v-.91zm6.805 0v.3h2.656v.91c0 .254.203.457.457.457h3.184c.25 0 .453-.203.453-.457v-.054a.452.452 0 0 1 -.383.207h-3.184a.453.453 0 0 1 -.453-.453v-.91zm6.82 0v.3h2.64c-.019.23-.05.453-.097.672.086-.312.14-.637.168-.972zm0 0" fill="#fff" fill-opacity=".392"/><path d="m6.64 3.39a.975.975 0 0 0 .016.41l.2.74a.68.68 0 0 0 .085-.02l-.285-1.063c-.004-.02-.011-.043-.015-.066zm8.602 0c-.004.024-.008.047-.015.067l-.286 1.074.086.024.2-.754a.862.862 0 0 0 .015-.41zm4.598 3.5a.91.91 0 0 1 -.438.618l-.656.379c.035.093.067.187.098.281l.558-.32a.908.908 0 0 0 .438-.957zm-17.793.024a.91.91 0 0 0 .437.957l.504.29c.032-.095.063-.188.102-.282l-.606-.348a.91.91 0 0 1 -.437-.617zm.683 6.106v.34h3.184c.25 0 .453.206.453.456v-.343a.453.453 0 0 0 -.453-.453zm6.368 0a.454.454 0 0 0 -.457.453v.343c0-.25.203-.457.457-.457h3.636c.25 0 .454.207.454.457v-.343a.453.453 0 0 0 -.454-.453zm6.82 0a.453.453 0 0 0 -.453.453v.343c0-.25.203-.457.453-.457h3.184v-.34zm-13.172 1.25a5.448 5.448 0 0 0 5.441 5.003h5.458a5.445 5.445 0 0 0 5.437-5.003h-.039a5.443 5.443 0 0 1 -5.398 4.664h-5.457a5.447 5.447 0 0 1 -5.403-4.664zm3.621.113v.344h2.274v-.344zm6.82 0v.344h2.278v-.344zm0 0" fill-opacity=".235"/><path d="m9.285 2.117a1.069 1.069 0 0 0 -.246.035l-1.754.47a.978.978 0 0 0 -.691 1.194l.27 1c-.481.118-.934.293-1.352.528l-1.176-.68a.972.972 0 0 0 -1.328.356l-.91 1.578a.972.972 0 0 0 .355 1.328l.555.32a5.541 5.541 0 0 0 -.344 1.93v3.183c0 .04.027.067.066.067h3.184c.215 0 .387.172.387.39v.91c0 .036.031.063.066.063h2.274c.035 0 .066-.027.066-.062v-.91c0-.22.172-.391.39-.391h3.637a.39.39 0 0 1 .391.39v.91c0 .036.027.063.063.063h2.277a.062.062 0 0 0 .062-.062v-.91a.39.39 0 0 1 .391-.391h3.184c.035 0 .062-.028.062-.067v-3.183c0-.676-.121-1.32-.34-1.918l.61-.356a.972.972 0 0 0 .355-1.328l-.906-1.578a.976.976 0 0 0 -1.332-.355l-1.223.707a5.446 5.446 0 0 0 -1.308-.52l.27-1.012a.975.975 0 0 0 -.688-1.195l-1.758-.469a.97.97 0 0 0 -1.192.688l-.488 1.816h-.445l-.485-1.816a.976.976 0 0 0 -.949-.723zm0 .13a.846.846 0 0 1 .824.628l.5 1.863a.063.063 0 0 0 .063.047h.543c.027 0 .055-.02.062-.047l.5-1.863a.84.84 0 0 1 1.036-.598l1.753.47a.842.842 0 0 1 .598 1.034l-.285 1.074c-.008.02-.004.036.004.051.012.016.023.028.043.032.484.117.945.3 1.37.539.02.011.044.011.067 0l1.25-.723a.844.844 0 0 1 1.157.309l.91 1.574a.844.844 0 0 1 -.309 1.156l-.656.379c-.027.015-.043.047-.031.078.23.598.351 1.246.351 1.926v3.12h-3.117a.522.522 0 0 0 -.52.52v.844h-2.144v-.844a.522.522 0 0 0 -.52-.52h-3.636a.52.52 0 0 0 -.52.52v.844h-2.148v-.844c0-.285-.23-.52-.516-.52h-3.121v-3.12c0-.68.125-1.332.355-1.934a.062.062 0 0 0 -.027-.078l-.601-.348a.842.842 0 0 1 -.313-1.156l.91-1.574a.84.84 0 0 1 1.156-.309l1.204.696c.02.011.046.011.066 0a5.21 5.21 0 0 1 1.414-.547.062.062 0 0 0 .04-.031c.007-.016.01-.032.007-.051l-.285-1.064a.842.842 0 0 1 .597-1.035l1.758-.469c.07-.02.14-.03.211-.03zm-6.539 11.96a.072.072 0 0 0 -.047.02c-.011.011-.015.03-.015.05a5.506 5.506 0 0 0 5.504 5.059h5.457a5.511 5.511 0 0 0 5.503-5.059c0-.02-.007-.039-.02-.05a.065.065 0 0 0 -.046-.02h-2.71a.062.062 0 0 0 -.063.063v.91c0 .215-.176.39-.391.39h-3.184a.392.392 0 0 1 -.39-.39v-.91a.062.062 0 0 0 -.063-.063h-2.73c-.035 0-.067.027-.067.063v.91c0 .215-.171.39-.386.39h-3.184a.39.39 0 0 1 -.39-.39v-.91c0-.036-.032-.063-.067-.063zm.074.129h2.575v.844c0 .285.23.52.52.52h3.183a.518.518 0 0 0 .515-.52v-.844h2.602v.844c0 .285.234.52.52.52h3.183c.285 0 .52-.235.52-.52v-.844h2.574a5.378 5.378 0 0 1 -5.367 4.871h-5.457a5.373 5.373 0 0 1 -5.368-4.871zm0 0" fill="#212121"/><path d="m6.148 9.836c-.003.039-.007.074-.007.113a.681.681 0 1 0 1.363 0c0-.039-.004-.074-.008-.113a.685.685 0 0 1 -1.348 0zm8.188 0a.682.682 0 0 0 .672.797.682.682 0 0 0 .672-.797.68.68 0 1 1 -1.344 0zm0 0" fill-opacity=".235"/><path d="m10.914 10.176a.681.681 0 0 0 -.68.683v.34a.681.681 0 1 1 1.363 0v-.34a.682.682 0 0 0 -.683-.683zm0 0" fill="#fff" fill-opacity=".588"/><path d="m10.914 12.793a.681.681 0 0 1 -.68-.684v-.34a.681.681 0 1 0 1.364 0v.34a.682.682 0 0 1 -.684.684zm0 0" fill-opacity=".235"/><path d="m10.914 10.113a.746.746 0 0 0 -.746.746v.91a.746.746 0 1 0 1.492 0v-.91a.744.744 0 0 0 -.746-.746zm0 .13c.344 0 .617.273.617.616v.91a.614.614 0 0 1 -.617.618.614.614 0 0 1 -.617-.617v-.91c0-.344.273-.618.617-.618zm0 0" fill="#212121"/></svg>