<svg height="22pt" viewBox="0 0 22 22" width="22pt" xmlns="http://www.w3.org/2000/svg" xmlns:xlink="http://www.w3.org/1999/xlink"><linearGradient id="a"><stop offset="0" stop-opacity=".313725"/><stop offset=".222222" stop-opacity=".27451"/><stop offset="1" stop-opacity="0"/></linearGradient><radialGradient id="b" cx="450.90894" cy="189.57936" gradientTransform="matrix(.00000012 -.0537161 -.0966889 -.00000007 36.749413 43.721791)" gradientUnits="userSpaceOnUse" r="21.166656" xlink:href="#a"/><radialGradient id="c" cx="450.90894" cy="189.57936" gradientTransform="matrix(-.00000012 .0537161 .0966889 .00000007 -9.006854 -5.175143)" gradientUnits="userSpaceOnUse" r="21.166656" xlink:href="#a"/><radialGradient id="d" cx="450.90894" cy="189.57936" gradientTransform="matrix(-.00000012 -.0537161 .0966889 -.00000007 -9.006854 43.721791)" gradientUnits="userSpaceOnUse" r="21.166656" xlink:href="#a"/><radialGradient id="e" cx="450.90894" cy="189.57936" gradientTransform="matrix(.00000012 .0537161 -.0966889 .00000007 36.749412 -5.175144)" gradientUnits="userSpaceOnUse" r="21.166656" xlink:href="#a"/><linearGradient id="f" gradientTransform="matrix(.0275551 0 0 .0429729 6.835822 9.239164)" gradientUnits="userSpaceOnUse" x1="255.32306" x2="255.32304" y1="233.5" y2="254.66666"><stop offset="0" stop-opacity=".27451"/><stop offset="1" stop-opacity="0"/></linearGradient><linearGradient id="g" gradientUnits="userSpaceOnUse" x1="12.90285802126" x2="12.90285802126" y1="19.27367611564" y2="1.78874271496"><stop offset="0" stop-color="#9ccc65"/><stop offset="1" stop-color="#aed581"/></linearGradient><linearGradient id="h" gradientUnits="userSpaceOnUse" x1="12.902783" x2="12.902783" y1="19.27344367824" y2="1.78857887302"><stop offset="0" stop-color="#e0e0e0"/><stop offset="1" stop-color="#eee"/></linearGradient><path d="m18.648438 19.273438h1.816406v-.910157h-1.816406zm0 0" fill="url(#b)"/><path d="m9.097656 19.273438h-1.820312v.910156h1.820312zm0 0" fill="url(#c)"/><path d="m9.097656 19.273438h-1.820312v-.910157h1.820312zm0 0" fill="url(#d)"/><path d="m18.648438 19.273438h1.816406v.910156h-1.816406zm0 0" fill="url(#e)"/><path d="m9.097656 19.046875h9.550782v1.136719h-9.550782zm0 0" fill="url(#f)"/><g fill-rule="evenodd"><path d="m20.640625 17.488281c0-2.875 0-9.652343 0-9.652343 0-3.222657-2.828125-5.835938-6.316406-5.835938h-3.621094v-.007812l-9.792969-.042969v3.519531h1.503906c1.046876 0 1.234376.726562 1.234376 1.726562l.007812 6.226563c0 3.222656 2.828125 5.839844 6.3125 5.839844h8.601562c1.105469 0 2.070313-.699219 2.070313-1.773438zm0 0" fill="url(#g)"/><path d="m5.46875 4.152344v9.207031c0 .980469.355469 1.835937 1.050781 2.527344.597657.589843 1.3125.96875 2.113281 1.054687h6.570313c.40625 0 .796875-.0625 1.160156-.183594.023438-.007812.050781-.019531.074219-.027343.007812-.003907.015625-.003907.023438-.007813.015624-.003906.03125-.011718.046874-.015625.476563-.1875.914063-.476562 1.300782-.867187h.003906c.171875-.175782.320312-.363282.453125-.558594.011719-.019531.027344-.042969.042969-.0625 0 0 0 0 0-.003906.011718-.019532.027344-.042969.039062-.0625.277344-.453125.449219-.957032.511719-1.496094 0-.011719 0-.023438 0-.03125v-.003906-1.023438l-.003906-4.003906c0-.800781-.296875-1.503906-.855469-2.070312-.558594-.566407-1.257812-.859376-2.042969-.859376-.769531 0-1.445312.285157-1.992187.8125-.542969-.523437-1.210938-.8125-1.980469-.8125-.785156 0-1.484375.292969-2.046875.859376-.558594.566406-.851562 1.269531-.851562 2.070312v4.027344h1.828124v-4.027344c0-.308594.097657-.546875.316407-.765625.21875-.222656.449219-.320313.753906-.320313s.535156.097657.753906.320313c.21875.21875.316407.457031.316407.765625v4.027344h1.828124v-4.027344c0-.308594.101563-.546875.320313-.765625.21875-.222656.445313-.320313.753906-.320313.300781 0 .53125.097657.75.320313.21875.21875.320313.457031.320313.765625l.007812 4.707031c0 .328125-.101562.640625-.28125.914063-.375.554687-1.074218.933594-1.898437.933594l-3.949219-.011719-1.949219-.007813c-.949219 0-1.761719-.921875-1.761719-2.109375v-8.867187zm0 0" fill="url(#h)"/><path d="m5.46875 4.214844v.289062h1.726562v-.289062zm6.515625 1.511718c-.785156 0-1.484375.292969-2.046875.859376-.558594.566406-.851562 1.273437-.851562 2.070312v.289062c0-.796874.292968-1.503906.851562-2.070312.5625-.566406 1.261719-.855469 2.046875-.855469.769531 0 1.4375.285157 1.980469.808594.546875-.523437 1.222656-.808594 1.992187-.808594.785157 0 1.484375.289063 2.042969.855469s.855469 1.273438.855469 2.070312l.003906 4.007813v-.292969l-.003906-4.003906c0-.796875-.296875-1.503906-.855469-2.070312-.558594-.566407-1.257812-.859376-2.042969-.859376-.769531 0-1.445312.289063-1.992187.8125-.542969-.523437-1.210938-.8125-1.980469-.8125zm-4.789063 7.355469v.292969c0 1.183594.8125 2.109375 1.761719 2.109375l1.949219.007813v-.003907l3.949219.011719c.824219 0 1.523437-.378906 1.898437-.933594.179688-.269531.28125-.582031.28125-.910156v-.253906c-.007812.316406-.109375.613281-.28125.875-.375.554687-1.074218.933594-1.898437.933594l-3.949219-.011719-1.949219-.007813c-.949219 0-1.761719-.921875-1.761719-2.109375zm11.664063.570313v.035156h.003906zm0 0" fill="#fff" fill-opacity=".992157"/><path d="m11.984375 7.507812c-.304687 0-.535156.101563-.753906.320313-.21875.222656-.316407.460937-.316407.765625v.496094c0-.304688.097657-.542969.316407-.765625.21875-.222657.449219-.320313.753906-.320313s.535156.097656.753906.320313c.21875.222656.316407.460937.316407.765625v-.496094c0-.304688-.097657-.542969-.316407-.765625s-.449219-.320313-.753906-.320313zm3.972656 0c-.308593 0-.535156.097657-.753906.320313s-.320313.460937-.320313.765625v.496094c0-.304688.101563-.542969.320313-.765625.21875-.222657.445313-.320313.753906-.320313.300781 0 .53125.097656.75.320313.21875.222656.320313.460937.320313.765625l.007812 4.265625c0-.015625 0-.035157 0-.050781l-.007812-4.710938c0-.304688-.101563-.542969-.320313-.765625-.21875-.21875-.449219-.320313-.75-.320313zm-6.871093 5.117188v.496094h1.828124v-.496094zm3.96875 0v.496094h1.828124v-.496094zm-7.585938.738281v.496094c0 .976563.355469 1.832031 1.050781 2.527344.597657.585937 1.3125.964843 2.113281 1.050781h6.570313c.40625 0 .796875-.0625 1.160156-.183594.023438-.007812.050781-.015625.074219-.023437.007812-.003907.015625-.007813.023438-.011719.015624-.003906.03125-.011719.046874-.015625.476563-.183594.914063-.472656 1.300782-.867187h.003906c.171875-.175782.320312-.363282.453125-.554688.011719-.023438.027344-.042969.042969-.066406.011718-.023438.027344-.042969.039062-.066406.277344-.453126.449219-.953126.511719-1.496094 0-.007813 0-.019532 0-.03125h.003906l-.003906-.035156v-.460938.03125c-.0625.542969-.234375 1.042969-.511719 1.496094-.011718.023437-.027344.042968-.039062.066406-.015625.023438-.03125.042969-.042969.066406-.132813.191406-.28125.378906-.453125.554688h-.003906c-.386719.394531-.824219.683594-1.300782.867187-.015624.003907-.03125.011719-.046874.015625-.007813.003906-.015626.007813-.023438.011719-.023438.007813-.050781.015625-.074219.023437-.363281.125-.753906.183594-1.160156.183594h-6.570313c-.800781-.085937-1.515624-.464844-2.113281-1.050781-.695312-.695313-1.050781-1.550781-1.050781-2.527344zm0 0" fill-opacity=".235294"/></g><path d="m127.260574-118.372864v214.252267c0 22.816003 8.271938 42.723193 24.452211 58.812566 13.907763 13.725962 30.542538 22.543302 49.177122 24.543111h152.89449c9.453643 0 18.543684-1.454407 26.997422-4.27232.545402-.1818 1.181705-.454502 1.727108-.636302.181801-.090901.363601-.090901.545402-.181801.363602-.090901.727204-.272702 1.090805-.363602 11.08985-4.36322 21.270696-11.08985 30.269837-20.179891h.0909c3.999618-4.090518 7.453834-8.453738 10.544448-12.998759.272701-.454502.636303-.999904.999904-1.454406 0 0 0 0 0-.090901.272702-.454502.636303-.999904.909004-1.454406 6.45393-10.544448 10.453548-22.270601 11.907954-34.814857 0-.272702 0-.545403 0-.727204v-.0909-23.815908l-.0909-93.17292c0-18.634584-6.908431-34.996658-19.90719-48.177218-12.998759-13.180559-29.269932-19.99809-47.540915-19.99809-17.907381 0-33.633152 6.63573-46.359209 18.907285-12.635157-12.180655-28.179127-18.907285-46.086508-18.907285-18.270983 0-34.542156 6.817531-47.631815 19.99809-12.998759 13.18056-19.81629 29.542634-19.81629 48.177218v93.718323h42.541393v-93.718323c0-7.181133 2.27251-12.726058 7.362933-17.816481 5.090423-5.181323 10.453547-7.453833 17.543779-7.453833s12.453356 2.27251 17.543779 7.453833c5.090423 5.090423 7.362933 10.635348 7.362933 17.816481v93.718323h42.541392v-93.718323c0-7.181133 2.363411-12.726058 7.453834-17.816481 5.090423-5.181323 10.362647-7.453833 17.543779-7.453833 6.999332 0 12.362456 2.27251 17.452879 7.453833 5.090423 5.090423 7.453834 10.635348 7.453834 17.816481l.181801 109.534994c0 7.635635-2.363411 14.907668-6.54483 21.270696-8.726439 12.907859-24.997613 21.725198-44.177599 21.725198l-91.900315-.272701-45.359305-.181801c-22.0888 0-40.996085-21.452497-40.996085-49.086221v-206.343932zm0 0" fill="none" stroke="#212121" stroke-width="3" transform="matrix(.0429729 0 0 .0429729 0 9.239163)"/><path d="m.910156 1.949219v.445312l9.792969.042969v.007812h3.621094c3.488281 0 6.316406 2.613282 6.316406 5.839844v-.449218c0-3.222657-2.828125-5.835938-6.316406-5.835938h-3.621094v-.007812zm0 0" fill="#fff" fill-opacity=".392157" fill-rule="evenodd"/><path d="m.910156 4.980469v.488281h1.503906c1.046876 0 1.234376.726562 1.234376 1.726562l.007812 6.226563c0 3.222656 2.828125 5.839844 6.3125 5.839844h8.601562c1.105469 0 2.070313-.699219 2.070313-1.773438v-.488281c0 1.074219-.964844 1.773438-2.070313 1.773438h-8.601562c-3.484375 0-6.3125-2.617188-6.3125-5.839844l-.007812-6.226563c0-1-.1875-1.726562-1.234376-1.726562zm0 0" fill-opacity=".235294" fill-rule="evenodd"/><path d="m.84375 1.882812v3.652344h1.570312c.507813 0 .789063.167969.953126.453125.167968.289063.214843.710938.214843 1.207031l.007813 6.226563c0 3.261719 2.859375 5.902344 6.378906 5.902344h8.601562c.566407 0 1.097657-.179688 1.488282-.496094s.640625-.777344.644531-1.324219v-9.667968c0-3.261719-2.859375-5.902344-6.378906-5.902344h-3.558594v-.007813zm.128906.128907 9.664063.042969v.007812h3.6875c3.457031 0 6.25 2.585938 6.25 5.773438v9.652343c0 .515625-.230469.941407-.59375 1.238281-.367188.296876-.871094.46875-1.410157.46875h-8.601562c-3.453125 0-6.25-2.585937-6.25-5.773437l-.007812-6.226563c0-.503906-.042969-.945312-.230469-1.269531s-.527344-.519531-1.066407-.519531h-1.441406zm0 0" fill="#212121" fill-rule="evenodd"/></svg>