<svg height="22" viewBox="0 0 22 22" width="22" xmlns="http://www.w3.org/2000/svg" xmlns:xlink="http://www.w3.org/1999/xlink"><linearGradient id="a"><stop offset="0" stop-opacity=".313726"/><stop offset=".222222" stop-opacity=".27451"/><stop offset="1" stop-opacity="0"/></linearGradient><radialGradient id="b" cx="450.908936" cy="189.579361" gradientTransform="matrix(.00000012 -.0537161 -.0966889 -.00000007 30.609667 43.721789)" gradientUnits="userSpaceOnUse" r="21.166656" xlink:href="#a"/><radialGradient id="c" cx="450.908936" cy="189.579361" gradientTransform="matrix(-.00000012 .0537161 .0966889 .00000007 -8.779457 -5.175144)" gradientUnits="userSpaceOnUse" r="21.166656" xlink:href="#a"/><radialGradient id="d" cx="450.908936" cy="189.579361" gradientTransform="matrix(-.00000012 -.0537161 .0966889 -.00000007 -8.779457 43.721789)" gradientUnits="userSpaceOnUse" r="21.166656" xlink:href="#a"/><radialGradient id="e" cx="450.908936" cy="189.579361" gradientTransform="matrix(.00000012 .0537161 -.0966889 .00000007 30.609666 -5.175144)" gradientUnits="userSpaceOnUse" r="21.166656" xlink:href="#a"/><linearGradient id="f" gradientTransform="matrix(.00918504 0 0 .0429729 8.569953 9.239164)" gradientUnits="userSpaceOnUse" x1="255.323059" x2="255.323044" y1="233.5" y2="254.666656"><stop offset="0" stop-opacity=".27451"/><stop offset="1" stop-opacity="0"/></linearGradient><linearGradient id="g" gradientUnits="userSpaceOnUse" x1="254" x2="254" y1="-168.666672" y2="233.5"><stop offset="0" stop-color="#ef5350"/><stop offset="1" stop-color="#f44336"/></linearGradient><linearGradient id="h" gradientUnits="userSpaceOnUse" x1="10.915104" x2="10.915104" y1="19.27332401286" y2="1.99107548985"><stop offset="0" stop-color="#e0e0e0"/><stop offset="1" stop-color="#eee"/></linearGradient><path d="m12.507812 19.273438h1.816407v-.910157h-1.816407zm0 0" fill="url(#b)"/><path d="m9.324219 19.273438h-1.820313v.910156h1.820313zm0 0" fill="url(#c)"/><path d="m9.324219 19.273438h-1.820313v-.910157h1.820313zm0 0" fill="url(#d)"/><path d="m12.507812 19.273438h1.816407v.910156h-1.816407zm0 0" fill="url(#e)"/><path d="m9.324219 19.046875h3.183593v1.136719h-3.183593zm0 0" fill="url(#f)"/><path d="m253.975747-168.640791c111.080301 0 201.071707 89.991407 201.071707 201.071708s-89.991406 201.071708-201.071707 201.071708c-110.989402 0-201.071708-89.991407-201.071708-201.071708s90.082306-201.071708 201.071708-201.071708zm0 0" fill="url(#g)" stroke="#333" stroke-linecap="round" stroke-width="3" transform="matrix(.0429729 0 0 .0429729 0 9.239163)"/><path d="m10.914062 19.273438c-4.785156 0-8.640624-3.855469-8.640624-8.640626 0-.027343 0-.058593 0-.085937.046874 4.75 3.882812 8.558594 8.640624 8.558594 4.761719 0 8.597657-3.808594 8.640626-8.558594v.085937c0 4.785157-3.851563 8.640626-8.640626 8.640626zm0 0" fill-opacity=".196078"/><path d="m10.914062 1.992188c-4.785156 0-8.640624 3.851562-8.640624 8.640624v.085938c.046874-4.75 3.882812-8.558594 8.640624-8.558594 4.761719 0 8.597657 3.808594 8.640626 8.558594 0-.03125 0-.058594 0-.085938 0-4.789062-3.851563-8.640624-8.640626-8.640624zm0 0" fill="#fff" fill-opacity=".392157"/><path d="m10.914062 1.925781c-4.820312 0-8.703124 3.882813-8.703124 8.707031 0 4.820313 3.882812 8.703126 8.703124 8.703126 4.824219 0 8.707032-3.882813 8.707032-8.703126 0-4.824218-3.882813-8.707031-8.707032-8.707031zm0 .128907c4.753907 0 8.578126 3.824218 8.578126 8.578124 0 4.75-3.824219 8.574219-8.578126 8.574219-4.75 0-8.574218-3.824219-8.574218-8.574219 0-4.753906 3.824218-8.578124 8.574218-8.578124zm0 0" fill="#212121"/><path d="m10.914062 3.808594c-3.777343 0-6.820312 3.042968-6.820312 6.824218 0 3.777344 3.042969 6.820313 6.820312 6.820313v-1.816406c-2.769531 0-5-2.234375-5-5.003907 0-2.773437 2.230469-5.003906 5-5.003906 2.773438 0 5.003907 2.230469 5.003907 5.003906h1.820312c0-3.78125-3.042969-6.824218-6.824219-6.824218zm0 2.730468c-2.265624 0-4.09375 1.824219-4.09375 4.09375 0 2.265626 1.828126 4.09375 4.09375 4.09375v-1.367187c-1.511718 0-2.726562-1.214844-2.726562-2.726563 0-1.511718 1.214844-2.730468 2.726562-2.730468 1.511719 0 2.730469 1.21875 2.730469 2.730468h1.363281c0-2.269531-1.824218-4.09375-4.09375-4.09375zm0 0" fill="url(#h)"/><path d="m10.914062 3.808594c-3.777343 0-6.820312 3.042968-6.820312 6.824218v.113282c.0625-3.726563 3.078125-6.707032 6.820312-6.707032 3.703126 0 6.699219 2.917969 6.820313 6.59375h.003906c0-3.78125-3.042969-6.824218-6.824219-6.824218zm0 2.730468c-2.265624 0-4.09375 1.824219-4.09375 4.09375 0 .039063.003907.074219.003907.113282.058593-2.214844 1.859375-3.980469 4.089843-3.980469 2.191407 0 3.972657 1.707031 4.089844 3.867187h.003906c0-2.269531-1.824218-4.09375-4.09375-4.09375zm-5 4.207032v.113281c0 2.773437 2.230469 5.003906 5 5.003906v-.226562c-2.734374 0-4.941406-2.171875-5-4.890625zm2.273438 0v.113281c0 1.511719 1.214844 2.730469 2.726562 2.730469v-.230469c-1.472656 0-2.664062-1.15625-2.726562-2.613281zm0 0" fill="#fff"/><path d="m10.914062 5.628906c-2.769531 0-5 2.230469-5 5.003906v.171876c.089844-2.695313 2.285157-4.835938 5-4.835938 2.773438 0 5.003907 2.234375 5.003907 5.003906h1.820312c0-.113281-.003906-.226562-.007812-.339844h-1.8125c0-2.773437-2.230469-5.003906-5.003907-5.003906zm0 2.273438c-1.511718 0-2.726562 1.21875-2.726562 2.730468 0 .058594 0 .113282.003906.171876.085938-1.433594 1.269532-2.558594 2.722656-2.558594 1.511719 0 2.730469 1.214844 2.730469 2.726562h1.363281c0-.113281-.003906-.226562-.011718-.339844h-1.351563c0-1.511718-1.21875-2.730468-2.730469-2.730468zm-6.820312 2.902344v.167968c0 3.78125 3.042969 6.824219 6.820312 6.824219v-.34375c-3.722656 0-6.730468-2.949219-6.820312-6.648437zm2.730469 0c0 .054687-.003907.113281-.003907.167968 0 2.269532 1.828126 4.09375 4.09375 4.09375v-.339844c-2.210937 0-4-1.734374-4.089843-3.921874zm0 0" fill-opacity=".235294"/><path d="m959.908384 334.971609c-332.223124 0-599.85685 267.633726-599.85685 600.20041 0 332.223123 267.633726 599.85685 599.85685 599.85685v-159.755691c-243.584483 0-439.757599-196.516677-439.757599-440.101159 0-243.928043 196.173116-440.10116 439.757599-440.10116 243.928043 0 440.101159 196.173117 440.101159 440.10116h160.099251c0-332.566684-267.633726-600.20041-600.20041-600.20041zm0 240.148876c-199.265162 0-360.051534 160.442811-360.051534 360.051534 0 199.265162 160.786372 360.051534 360.051534 360.051534v-120.246219c-132.957962 0-239.805316-106.847354-239.805316-239.805315 0-132.957962 106.847354-240.148876 239.805316-240.148876 132.957961 0 240.148876 107.190914 240.148876 240.148876h119.902658c0-199.608723-160.442812-360.051534-360.051534-360.051534zm0 0" fill="none" stroke="#212121" stroke-linecap="round" stroke-width="11.338583" transform="scale(.0113699)"/></svg>