<?xml version="1.0" encoding="UTF-8"?>
<svg xmlns="http://www.w3.org/2000/svg" xmlns:xlink="http://www.w3.org/1999/xlink" width="22px" height="22px" viewBox="0 0 22 22" version="1.1">
<defs>
<linearGradient id="linear0" gradientUnits="userSpaceOnUse" x1="254" y1="233.5" x2="254" y2="254.666672" gradientTransform="matrix(0.0429729,0,0,0.0429729,-0.454803,9.239163)">
<stop offset="0" style="stop-color:rgb(0%,0%,0%);stop-opacity:0.27451;"/>
<stop offset="1" style="stop-color:rgb(0%,0%,0%);stop-opacity:0;"/>
</linearGradient>
<radialGradient id="radial0" gradientUnits="userSpaceOnUse" cx="450.908936" cy="189.579361" fx="450.908936" fy="189.579361" r="21.166656" gradientTransform="matrix(0.000000119742,-0.0537161,-0.0966889,-0.0000000698078,36.749411,43.721791)">
<stop offset="0" style="stop-color:rgb(0%,0%,0%);stop-opacity:0.313726;"/>
<stop offset="0.222222" style="stop-color:rgb(0%,0%,0%);stop-opacity:0.27451;"/>
<stop offset="1" style="stop-color:rgb(0%,0%,0%);stop-opacity:0;"/>
</radialGradient>
<radialGradient id="radial1" gradientUnits="userSpaceOnUse" cx="450.908936" cy="189.579361" fx="450.908936" fy="189.579361" r="21.166656" gradientTransform="matrix(-0.000000119742,0.0537161,0.0966889,0.0000000698078,-14.919199,-5.175142)">
<stop offset="0" style="stop-color:rgb(0%,0%,0%);stop-opacity:0.313726;"/>
<stop offset="0.222222" style="stop-color:rgb(0%,0%,0%);stop-opacity:0.27451;"/>
<stop offset="1" style="stop-color:rgb(0%,0%,0%);stop-opacity:0;"/>
</radialGradient>
<radialGradient id="radial2" gradientUnits="userSpaceOnUse" cx="450.908936" cy="189.579361" fx="450.908936" fy="189.579361" r="21.166656" gradientTransform="matrix(-0.000000119742,-0.0537161,0.0966889,-0.0000000698078,-14.919199,43.721791)">
<stop offset="0" style="stop-color:rgb(0%,0%,0%);stop-opacity:0.313726;"/>
<stop offset="0.222222" style="stop-color:rgb(0%,0%,0%);stop-opacity:0.27451;"/>
<stop offset="1" style="stop-color:rgb(0%,0%,0%);stop-opacity:0;"/>
</radialGradient>
<radialGradient id="radial3" gradientUnits="userSpaceOnUse" cx="450.908936" cy="189.579361" fx="450.908936" fy="189.579361" r="21.166656" gradientTransform="matrix(0.000000119742,0.0537161,-0.0966889,0.0000000698078,36.74941,-5.175142)">
<stop offset="0" style="stop-color:rgb(0%,0%,0%);stop-opacity:0.313726;"/>
<stop offset="0.222222" style="stop-color:rgb(0%,0%,0%);stop-opacity:0.27451;"/>
<stop offset="1" style="stop-color:rgb(0%,0%,0%);stop-opacity:0;"/>
</radialGradient>
<linearGradient id="linear1" gradientUnits="userSpaceOnUse" x1="306.752655" y1="-16.485477" x2="305.954529" y2="-141.414581" gradientTransform="matrix(0.0495506,0,0,0.131056,-3.375079,21.433838)">
<stop offset="0" style="stop-color:rgb(69.01961%,74.509805%,77.254903%);stop-opacity:1;"/>
<stop offset="1" style="stop-color:rgb(81.176472%,84.705883%,86.274511%);stop-opacity:1;"/>
</linearGradient>
<linearGradient id="linear2" gradientUnits="userSpaceOnUse" x1="254" y1="233.5" x2="254" y2="-147.5" gradientTransform="matrix(0.0429729,0,0,0.0429729,0,9.239163)">
<stop offset="0" style="stop-color:rgb(36.078432%,41.960785%,75.294119%);stop-opacity:1;"/>
<stop offset="1" style="stop-color:rgb(47.450981%,52.549022%,79.607844%);stop-opacity:1;"/>
</linearGradient>
<linearGradient id="linear3" gradientUnits="userSpaceOnUse" x1="960" y1="1695.118164" x2="960" y2="255.118118" gradientTransform="matrix(0.0113699,0,0,0.0113699,0,0)">
<stop offset="0" style="stop-color:rgb(69.01961%,74.509805%,77.254903%);stop-opacity:1;"/>
<stop offset="1" style="stop-color:rgb(81.176472%,84.705883%,86.274511%);stop-opacity:1;"/>
</linearGradient>
</defs>
<g id="surface1">
<path style=" stroke:none;fill-rule:nonzero;fill:url(#linear0);" d="M 3.183594 19.324219 L 18.648438 19.324219 L 18.648438 20.183594 L 3.183594 20.183594 Z M 3.183594 19.324219 "/>
<path style=" stroke:none;fill-rule:nonzero;fill:url(#radial0);" d="M 18.648438 19.273438 L 20.464844 19.273438 L 20.464844 18.363281 L 18.648438 18.363281 Z M 18.648438 19.273438 "/>
<path style=" stroke:none;fill-rule:nonzero;fill:url(#radial1);" d="M 3.183594 19.273438 L 1.363281 19.273438 L 1.363281 20.183594 L 3.183594 20.183594 Z M 3.183594 19.273438 "/>
<path style=" stroke:none;fill-rule:nonzero;fill:url(#radial2);" d="M 3.183594 19.273438 L 1.363281 19.273438 L 1.363281 18.363281 L 3.183594 18.363281 Z M 3.183594 19.273438 "/>
<path style=" stroke:none;fill-rule:nonzero;fill:url(#radial3);" d="M 18.648438 19.273438 L 20.464844 19.273438 L 20.464844 20.183594 L 18.648438 20.183594 Z M 18.648438 19.273438 "/>
<path style=" stroke:none;fill-rule:nonzero;fill:url(#linear1);" d="M 2.273438 2.902344 L 19.554688 2.902344 C 20.058594 2.902344 20.464844 3.285156 20.464844 3.757812 L 20.464844 18.414062 C 20.464844 18.890625 20.058594 19.273438 19.554688 19.273438 L 2.273438 19.273438 C 1.773438 19.273438 1.363281 18.890625 1.363281 18.414062 L 1.363281 3.757812 C 1.363281 3.285156 1.773438 2.902344 2.273438 2.902344 Z M 2.273438 2.902344 "/>
<path style=" stroke:none;fill-rule:nonzero;fill:url(#linear2);" d="M 2.730469 3.808594 L 19.101562 3.808594 C 19.351562 3.808594 19.554688 4.015625 19.554688 4.265625 L 19.554688 17.910156 C 19.554688 18.160156 19.351562 18.363281 19.101562 18.363281 L 2.730469 18.363281 C 2.476562 18.363281 2.273438 18.160156 2.273438 17.910156 L 2.273438 4.265625 C 2.273438 4.015625 2.476562 3.808594 2.730469 3.808594 Z M 2.730469 3.808594 "/>
<path style=" stroke:none;fill-rule:nonzero;fill:rgb(100%,100%,100%);fill-opacity:0.588235;" d="M 2.273438 2.902344 C 1.769531 2.902344 1.363281 3.285156 1.363281 3.757812 L 1.363281 3.988281 C 1.363281 3.511719 1.769531 3.128906 2.273438 3.128906 L 19.554688 3.128906 C 20.058594 3.128906 20.464844 3.511719 20.464844 3.988281 L 20.464844 3.757812 C 20.464844 3.285156 20.058594 2.902344 19.554688 2.902344 Z M 2.273438 2.902344 "/>
<path style=" stroke:none;fill-rule:nonzero;fill:rgb(0%,0%,0%);fill-opacity:0.235294;" d="M 2.273438 19.28125 C 1.769531 19.28125 1.363281 18.898438 1.363281 18.421875 L 1.363281 18.191406 C 1.363281 18.667969 1.769531 19.050781 2.273438 19.050781 L 19.554688 19.050781 C 20.058594 19.050781 20.464844 18.667969 20.464844 18.191406 L 20.464844 18.421875 C 20.464844 18.898438 20.058594 19.28125 19.554688 19.28125 Z M 2.273438 19.28125 "/>
<path style="fill:none;stroke-width:3;stroke-linecap:round;stroke-linejoin:miter;stroke:rgb(12.941177%,12.941177%,12.941177%);stroke-opacity:1;stroke-miterlimit:4;" d="M 52.904039 -147.460995 L 455.047454 -147.460995 C 466.773607 -147.460995 476.22725 -138.552755 476.22725 -127.553805 L 476.22725 213.504534 C 476.22725 224.594384 466.773607 233.502625 455.047454 233.502625 L 52.904039 233.502625 C 41.268786 233.502625 31.724243 224.594384 31.724243 213.504534 L 31.724243 -127.553805 C 31.724243 -138.552755 41.268786 -147.460995 52.904039 -147.460995 Z M 52.904039 -147.460995 " transform="matrix(0.0429729,0,0,0.0429729,0,9.239163)"/>
<path style=" stroke:none;fill-rule:nonzero;fill:rgb(0%,0%,0%);fill-opacity:0.235294;" d="M 2.730469 3.867188 C 2.476562 3.867188 2.273438 4.070312 2.273438 4.320312 L 2.273438 4.492188 C 2.273438 4.242188 2.476562 4.039062 2.730469 4.039062 L 19.101562 4.039062 C 19.351562 4.039062 19.554688 4.242188 19.554688 4.492188 L 19.554688 4.320312 C 19.554688 4.070312 19.351562 3.867188 19.101562 3.867188 Z M 2.730469 3.867188 "/>
<path style=" stroke:none;fill-rule:nonzero;fill:rgb(100%,100%,100%);fill-opacity:0.588235;" d="M 2.730469 18.597656 C 2.476562 18.597656 2.273438 18.394531 2.273438 18.140625 L 2.273438 17.96875 C 2.273438 18.222656 2.476562 18.425781 2.730469 18.425781 L 19.101562 18.425781 C 19.351562 18.425781 19.554688 18.222656 19.554688 17.96875 L 19.554688 18.140625 C 19.554688 18.394531 19.351562 18.597656 19.101562 18.597656 Z M 2.730469 18.597656 "/>
<path style="fill:none;stroke-width:3;stroke-linecap:round;stroke-linejoin:round;stroke:rgb(12.941177%,12.941177%,12.941177%);stroke-opacity:1;stroke-miterlimit:4;" d="M 63.539387 -126.3721 L 444.503007 -126.3721 C 450.320633 -126.3721 455.047454 -121.554378 455.047454 -115.736752 L 455.047454 201.778381 C 455.047454 207.596008 450.320633 212.322829 444.503007 212.322829 L 63.539387 212.322829 C 57.63086 212.322829 52.904039 207.596008 52.904039 201.778381 L 52.904039 -115.736752 C 52.904039 -121.554378 57.63086 -126.3721 63.539387 -126.3721 Z M 63.539387 -126.3721 " transform="matrix(0.0429729,0,0,0.0429729,0,9.239163)"/>
<path style=" stroke:none;fill-rule:nonzero;fill:rgb(100%,100%,100%);fill-opacity:0.0784314;" d="M 2.730469 3.808594 C 2.476562 3.808594 2.273438 4.011719 2.273438 4.265625 L 2.273438 7.957031 C 7.351562 7.320312 12.652344 6.984375 18.101562 6.984375 C 18.589844 6.984375 19.074219 6.988281 19.554688 6.992188 L 19.554688 4.265625 C 19.554688 4.011719 19.351562 3.808594 19.101562 3.808594 Z M 2.730469 3.808594 "/>
<path style=" stroke:none;fill-rule:nonzero;fill:url(#linear3);" d="M 7.71875 7.449219 C 7.597656 7.449219 7.488281 7.496094 7.410156 7.574219 C 7.410156 7.578125 7.410156 7.578125 7.40625 7.582031 C 7.324219 7.660156 7.277344 7.769531 7.277344 7.890625 L 7.277344 9.738281 C 7.277344 9.980469 7.480469 10.175781 7.730469 10.175781 L 8.1875 10.175781 C 8.4375 10.175781 8.640625 9.980469 8.640625 9.738281 L 8.640625 8.8125 L 9.566406 8.8125 C 9.808594 8.8125 10.003906 8.609375 10.003906 8.359375 L 10.003906 7.902344 C 10.003906 7.652344 9.808594 7.449219 9.566406 7.449219 Z M 12.265625 7.449219 C 12.019531 7.449219 11.824219 7.652344 11.824219 7.902344 L 11.824219 8.359375 C 11.824219 8.609375 12.019531 8.8125 12.265625 8.8125 L 13.1875 8.8125 L 13.1875 9.738281 C 13.1875 9.980469 13.390625 10.175781 13.644531 10.175781 L 14.097656 10.175781 C 14.351562 10.175781 14.554688 9.980469 14.554688 9.738281 L 14.554688 7.890625 C 14.554688 7.769531 14.503906 7.660156 14.425781 7.582031 C 14.425781 7.582031 14.421875 7.582031 14.421875 7.578125 C 14.421875 7.578125 14.421875 7.578125 14.417969 7.578125 C 14.339844 7.496094 14.234375 7.449219 14.113281 7.449219 Z M 10.914062 9.269531 C 10.664062 9.269531 10.460938 9.46875 10.460938 9.722656 L 10.460938 10.632812 L 9.550781 10.632812 C 9.296875 10.632812 9.097656 10.835938 9.097656 11.085938 C 9.097656 11.339844 9.296875 11.542969 9.550781 11.542969 L 10.460938 11.542969 L 10.460938 12.453125 C 10.460938 12.703125 10.664062 12.90625 10.914062 12.90625 C 11.167969 12.90625 11.371094 12.703125 11.371094 12.453125 L 11.371094 11.542969 L 12.28125 11.542969 C 12.53125 11.542969 12.734375 11.339844 12.734375 11.085938 C 12.734375 10.835938 12.53125 10.632812 12.28125 10.632812 L 11.371094 10.632812 L 11.371094 9.722656 C 11.371094 9.46875 11.167969 9.269531 10.914062 9.269531 Z M 7.730469 11.996094 C 7.480469 11.996094 7.277344 12.191406 7.277344 12.4375 L 7.277344 14.285156 C 7.277344 14.40625 7.324219 14.511719 7.40625 14.589844 C 7.40625 14.59375 7.40625 14.59375 7.40625 14.59375 C 7.410156 14.59375 7.410156 14.597656 7.410156 14.597656 C 7.488281 14.675781 7.597656 14.726562 7.71875 14.726562 L 9.566406 14.726562 C 9.808594 14.726562 10.003906 14.523438 10.003906 14.269531 L 10.003906 13.816406 C 10.003906 13.5625 9.808594 13.359375 9.566406 13.359375 L 8.640625 13.359375 L 8.640625 12.4375 C 8.640625 12.191406 8.4375 11.996094 8.1875 11.996094 Z M 13.644531 11.996094 C 13.390625 11.996094 13.1875 12.191406 13.1875 12.4375 L 13.1875 13.359375 L 12.265625 13.359375 C 12.019531 13.359375 11.824219 13.5625 11.824219 13.816406 L 11.824219 14.269531 C 11.824219 14.523438 12.019531 14.726562 12.265625 14.726562 L 14.113281 14.726562 C 14.234375 14.726562 14.339844 14.675781 14.417969 14.597656 C 14.421875 14.597656 14.421875 14.597656 14.421875 14.59375 C 14.421875 14.59375 14.425781 14.59375 14.425781 14.589844 C 14.503906 14.511719 14.554688 14.402344 14.554688 14.285156 L 14.554688 12.4375 C 14.554688 12.191406 14.351562 11.996094 14.097656 11.996094 Z M 13.644531 11.996094 "/>
<path style=" stroke:none;fill-rule:nonzero;fill:rgb(100%,100%,100%);fill-opacity:0.588235;" d="M 7.71875 7.449219 C 7.597656 7.449219 7.488281 7.496094 7.410156 7.574219 C 7.410156 7.578125 7.410156 7.578125 7.40625 7.582031 C 7.324219 7.660156 7.277344 7.769531 7.277344 7.890625 L 7.277344 8.117188 C 7.277344 7.996094 7.324219 7.890625 7.40625 7.808594 C 7.410156 7.804688 7.410156 7.804688 7.410156 7.804688 C 7.488281 7.722656 7.597656 7.675781 7.71875 7.675781 L 9.566406 7.675781 C 9.808594 7.675781 10.003906 7.878906 10.003906 8.128906 L 10.003906 7.902344 C 10.003906 7.652344 9.808594 7.449219 9.566406 7.449219 Z M 12.265625 7.449219 C 12.019531 7.449219 11.824219 7.652344 11.824219 7.902344 L 11.824219 8.128906 C 11.824219 7.878906 12.019531 7.675781 12.265625 7.675781 L 14.113281 7.675781 C 14.234375 7.675781 14.339844 7.726562 14.417969 7.804688 C 14.421875 7.804688 14.421875 7.804688 14.421875 7.804688 C 14.421875 7.808594 14.425781 7.808594 14.425781 7.808594 C 14.503906 7.890625 14.554688 7.996094 14.554688 8.117188 L 14.554688 7.890625 C 14.554688 7.769531 14.503906 7.660156 14.425781 7.582031 C 14.425781 7.582031 14.421875 7.582031 14.421875 7.578125 C 14.421875 7.578125 14.421875 7.578125 14.417969 7.578125 C 14.339844 7.496094 14.234375 7.449219 14.113281 7.449219 Z M 10.914062 9.269531 C 10.664062 9.269531 10.460938 9.46875 10.460938 9.722656 L 10.460938 9.949219 C 10.460938 9.699219 10.664062 9.496094 10.914062 9.496094 C 11.167969 9.496094 11.371094 9.699219 11.371094 9.949219 L 11.371094 9.722656 C 11.371094 9.46875 11.167969 9.269531 10.914062 9.269531 Z M 9.550781 10.632812 C 9.296875 10.632812 9.097656 10.835938 9.097656 11.085938 C 9.097656 11.125 9.101562 11.164062 9.109375 11.199219 C 9.160156 11.003906 9.339844 10.859375 9.550781 10.859375 L 10.460938 10.859375 L 10.460938 10.632812 Z M 11.371094 10.632812 L 11.371094 10.859375 L 12.28125 10.859375 C 12.492188 10.859375 12.667969 11.003906 12.71875 11.199219 C 12.730469 11.164062 12.734375 11.125 12.734375 11.085938 C 12.734375 10.835938 12.53125 10.632812 12.28125 10.632812 Z M 7.730469 11.996094 C 7.480469 11.996094 7.277344 12.191406 7.277344 12.4375 L 7.277344 12.664062 C 7.277344 12.421875 7.480469 12.222656 7.730469 12.222656 L 8.1875 12.222656 C 8.4375 12.222656 8.640625 12.421875 8.640625 12.664062 L 8.640625 12.4375 C 8.640625 12.191406 8.4375 11.996094 8.1875 11.996094 Z M 13.644531 11.996094 C 13.390625 11.996094 13.1875 12.191406 13.1875 12.4375 L 13.1875 12.664062 C 13.1875 12.421875 13.390625 12.222656 13.644531 12.222656 L 14.097656 12.222656 C 14.351562 12.222656 14.554688 12.421875 14.554688 12.664062 L 14.554688 12.4375 C 14.554688 12.191406 14.351562 11.996094 14.097656 11.996094 Z M 8.640625 13.359375 L 8.640625 13.589844 L 9.566406 13.589844 C 9.808594 13.589844 10.003906 13.792969 10.003906 14.042969 L 10.003906 13.816406 C 10.003906 13.5625 9.808594 13.359375 9.566406 13.359375 Z M 12.265625 13.359375 C 12.019531 13.359375 11.824219 13.5625 11.824219 13.816406 L 11.824219 14.042969 C 11.824219 13.792969 12.019531 13.589844 12.265625 13.589844 L 13.1875 13.589844 L 13.1875 13.359375 Z M 12.265625 13.359375 "/>
<path style=" stroke:none;fill-rule:nonzero;fill:rgb(0%,0%,0%);fill-opacity:0.235294;" d="M 10.003906 8.359375 C 10.003906 8.609375 9.808594 8.8125 9.566406 8.8125 L 8.640625 8.8125 L 8.640625 9.152344 L 9.566406 9.152344 C 9.808594 9.152344 10.003906 8.953125 10.003906 8.699219 Z M 11.824219 8.359375 L 11.824219 8.699219 C 11.824219 8.953125 12.019531 9.152344 12.265625 9.152344 L 13.1875 9.152344 L 13.1875 8.8125 L 12.265625 8.8125 C 12.019531 8.8125 11.824219 8.609375 11.824219 8.359375 Z M 13.1875 9.738281 L 13.1875 10.078125 C 13.1875 10.320312 13.390625 10.519531 13.644531 10.519531 L 14.097656 10.519531 C 14.351562 10.519531 14.554688 10.320312 14.554688 10.078125 L 14.554688 9.738281 C 14.554688 9.980469 14.351562 10.175781 14.097656 10.175781 L 13.644531 10.175781 C 13.390625 10.175781 13.1875 9.980469 13.1875 9.738281 Z M 7.277344 9.738281 L 7.277344 10.078125 C 7.277344 10.320312 7.480469 10.519531 7.730469 10.519531 L 8.1875 10.519531 C 8.4375 10.519531 8.640625 10.320312 8.640625 10.078125 L 8.640625 9.738281 C 8.640625 9.980469 8.4375 10.175781 8.1875 10.175781 L 7.730469 10.175781 C 7.480469 10.175781 7.277344 9.980469 7.277344 9.738281 Z M 9.128906 11.257812 C 9.109375 11.308594 9.097656 11.367188 9.097656 11.429688 C 9.097656 11.679688 9.296875 11.882812 9.550781 11.882812 L 10.460938 11.882812 L 10.460938 11.542969 L 9.550781 11.542969 C 9.359375 11.542969 9.195312 11.425781 9.128906 11.257812 Z M 12.703125 11.257812 C 12.632812 11.425781 12.472656 11.542969 12.28125 11.542969 L 11.371094 11.542969 L 11.371094 11.882812 L 12.28125 11.882812 C 12.53125 11.882812 12.734375 11.679688 12.734375 11.429688 C 12.734375 11.367188 12.722656 11.308594 12.703125 11.257812 Z M 10.460938 12.453125 L 10.460938 12.792969 C 10.460938 13.042969 10.664062 13.246094 10.914062 13.246094 C 11.167969 13.246094 11.371094 13.042969 11.371094 12.792969 L 11.371094 12.453125 C 11.371094 12.703125 11.167969 12.90625 10.914062 12.90625 C 10.664062 12.90625 10.460938 12.703125 10.460938 12.453125 Z M 10.003906 14.269531 C 10.003906 14.523438 9.808594 14.726562 9.566406 14.726562 L 7.71875 14.726562 C 7.597656 14.726562 7.488281 14.675781 7.410156 14.597656 C 7.410156 14.597656 7.410156 14.59375 7.40625 14.59375 C 7.40625 14.59375 7.40625 14.59375 7.40625 14.589844 C 7.324219 14.511719 7.277344 14.40625 7.277344 14.285156 L 7.277344 14.625 C 7.277344 14.746094 7.324219 14.855469 7.40625 14.933594 C 7.410156 14.9375 7.410156 14.9375 7.410156 14.9375 C 7.488281 15.019531 7.597656 15.066406 7.71875 15.066406 L 9.566406 15.066406 C 9.808594 15.066406 10.003906 14.863281 10.003906 14.613281 Z M 11.824219 14.269531 L 11.824219 14.613281 C 11.824219 14.863281 12.019531 15.066406 12.265625 15.066406 L 14.113281 15.066406 C 14.234375 15.066406 14.339844 15.019531 14.417969 14.9375 C 14.421875 14.9375 14.421875 14.9375 14.421875 14.9375 C 14.421875 14.933594 14.425781 14.933594 14.425781 14.933594 C 14.503906 14.851562 14.554688 14.746094 14.554688 14.625 L 14.554688 14.285156 C 14.554688 14.402344 14.503906 14.511719 14.425781 14.589844 C 14.425781 14.59375 14.421875 14.59375 14.421875 14.59375 C 14.421875 14.597656 14.421875 14.597656 14.417969 14.597656 C 14.339844 14.675781 14.234375 14.726562 14.113281 14.726562 L 12.265625 14.726562 C 12.019531 14.726562 11.824219 14.523438 11.824219 14.269531 Z M 11.824219 14.269531 "/>
<path style="fill:none;stroke-width:11.338583;stroke-linecap:round;stroke-linejoin:round;stroke:rgb(12.941177%,12.941177%,12.941177%);stroke-opacity:1;stroke-miterlimit:4;" d="M 678.875793 655.17011 C 668.225414 655.17011 658.605716 659.292838 651.734504 666.16405 C 651.734504 666.507611 651.734504 666.507611 651.390943 666.851171 C 644.17617 673.722384 640.053443 683.342081 640.053443 693.992461 L 640.053443 856.496636 C 640.053443 877.797395 657.918595 894.975426 679.906475 894.975426 L 720.103068 894.975426 C 742.090948 894.975426 759.956101 877.797395 759.956101 856.496636 L 759.956101 775.072768 L 841.379968 775.072768 C 862.680727 775.072768 879.858758 757.207616 879.858758 735.219736 L 879.858758 695.023143 C 879.858758 673.035263 862.680727 655.17011 841.379968 655.17011 Z M 1078.78036 655.17011 C 1057.13604 655.17011 1039.958009 673.035263 1039.958009 695.023143 L 1039.958009 735.219736 C 1039.958009 757.207616 1057.13604 775.072768 1078.78036 775.072768 L 1159.860667 775.072768 L 1159.860667 856.496636 C 1159.860667 877.797395 1177.725819 894.975426 1200.05726 894.975426 L 1239.910292 894.975426 C 1262.241733 894.975426 1280.106885 877.797395 1280.106885 856.496636 L 1280.106885 693.992461 C 1280.106885 683.342081 1275.640597 673.722384 1268.769385 666.851171 C 1268.769385 666.851171 1268.425824 666.851171 1268.425824 666.507611 C 1268.425824 666.507611 1268.425824 666.507611 1268.082264 666.507611 C 1261.211051 659.292838 1251.934914 655.17011 1241.284535 655.17011 Z M 959.908384 815.269361 C 937.920504 815.269361 920.055351 832.790953 920.055351 855.122393 L 920.055351 935.172019 L 840.005726 935.172019 C 817.674285 935.172019 800.152694 953.037171 800.152694 975.025051 C 800.152694 997.356492 817.674285 1015.221644 840.005726 1015.221644 L 920.055351 1015.221644 L 920.055351 1095.27127 C 920.055351 1117.25915 937.920504 1135.124302 959.908384 1135.124302 C 982.239824 1135.124302 1000.104977 1117.25915 1000.104977 1095.27127 L 1000.104977 1015.221644 L 1080.154602 1015.221644 C 1102.142482 1015.221644 1120.007635 997.356492 1120.007635 975.025051 C 1120.007635 953.037171 1102.142482 935.172019 1080.154602 935.172019 L 1000.104977 935.172019 L 1000.104977 855.122393 C 1000.104977 832.790953 982.239824 815.269361 959.908384 815.269361 Z M 679.906475 1055.074677 C 657.918595 1055.074677 640.053443 1072.252708 640.053443 1093.897027 L 640.053443 1256.401202 C 640.053443 1267.051582 644.17617 1276.327719 651.390943 1283.198931 C 651.390943 1283.542492 651.390943 1283.542492 651.390943 1283.542492 C 651.734504 1283.542492 651.734504 1283.886052 651.734504 1283.886052 C 658.605716 1290.757265 668.225414 1295.223553 678.875793 1295.223553 L 841.379968 1295.223553 C 862.680727 1295.223553 879.858758 1277.3584 879.858758 1255.02696 L 879.858758 1215.173928 C 879.858758 1192.842487 862.680727 1174.977334 841.379968 1174.977334 L 759.956101 1174.977334 L 759.956101 1093.897027 C 759.956101 1072.252708 742.090948 1055.074677 720.103068 1055.074677 Z M 1200.05726 1055.074677 C 1177.725819 1055.074677 1159.860667 1072.252708 1159.860667 1093.897027 L 1159.860667 1174.977334 L 1078.78036 1174.977334 C 1057.13604 1174.977334 1039.958009 1192.842487 1039.958009 1215.173928 L 1039.958009 1255.02696 C 1039.958009 1277.3584 1057.13604 1295.223553 1078.78036 1295.223553 L 1241.284535 1295.223553 C 1251.934914 1295.223553 1261.211051 1290.757265 1268.082264 1283.886052 C 1268.425824 1283.886052 1268.425824 1283.886052 1268.425824 1283.542492 C 1268.425824 1283.542492 1268.769385 1283.542492 1268.769385 1283.198931 C 1275.640597 1276.327719 1280.106885 1266.708021 1280.106885 1256.401202 L 1280.106885 1093.897027 C 1280.106885 1072.252708 1262.241733 1055.074677 1239.910292 1055.074677 Z M 1200.05726 1055.074677 " transform="matrix(0.0113699,0,0,0.0113699,0,0)"/>
</g>
</svg>
