<svg xmlns="http://www.w3.org/2000/svg" width="22pt" height="22pt" viewBox="0 0 22 22"><defs><linearGradient id="a" gradientUnits="userSpaceOnUse" x1="254" y1="233.5" x2="254" y2="254.667" gradientTransform="matrix(.04297 0 0 .04297 0 9.24)"><stop offset="0" stop-opacity=".275"/><stop offset="1" stop-opacity="0"/></linearGradient><radialGradient id="b" gradientUnits="userSpaceOnUse" cx="450.909" cy="189.579" fx="450.909" fy="189.579" r="21.167" gradientTransform="matrix(0 -.05372 -.09669 0 29.7 43.722)"><stop offset="0" stop-opacity=".314"/><stop offset=".222" stop-opacity=".275"/><stop offset="1" stop-opacity="0"/></radialGradient><radialGradient id="c" gradientUnits="userSpaceOnUse" cx="450.909" cy="189.579" fx="450.909" fy="189.579" r="21.167" gradientTransform="matrix(0 .05372 .09669 0 -7.87 -5.175)"><stop offset="0" stop-opacity=".314"/><stop offset=".222" stop-opacity=".275"/><stop offset="1" stop-opacity="0"/></radialGradient><radialGradient id="d" gradientUnits="userSpaceOnUse" cx="450.909" cy="189.579" fx="450.909" fy="189.579" r="21.167" gradientTransform="matrix(0 -.05372 .09669 0 -7.87 43.722)"><stop offset="0" stop-opacity=".314"/><stop offset=".222" stop-opacity=".275"/><stop offset="1" stop-opacity="0"/></radialGradient><radialGradient id="e" gradientUnits="userSpaceOnUse" cx="450.909" cy="189.579" fx="450.909" fy="189.579" r="21.167" gradientTransform="matrix(0 .05372 -.09669 0 29.7 -5.175)"><stop offset="0" stop-opacity=".314"/><stop offset=".222" stop-opacity=".275"/><stop offset="1" stop-opacity="0"/></radialGradient><linearGradient id="f" gradientUnits="userSpaceOnUse" x1="254" y1="-168.667" x2="254" y2="233.5" gradientTransform="matrix(.04297 0 0 .04297 0 9.24)"><stop offset="0" stop-color="#7986cb"/><stop offset="1" stop-color="#5c6bc0"/></linearGradient><linearGradient id="g" gradientUnits="userSpaceOnUse" x1="1240" y1="1695.118" x2="1240" y2="175.118" gradientTransform="matrix(.01137 0 0 .01137 -.227 0)"><stop offset="0" stop-color="#bdbdbd"/><stop offset="1" stop-color="#eee"/></linearGradient><linearGradient id="h" gradientUnits="userSpaceOnUse" x1="840" y1="1695.118" x2="840" y2="175.118" gradientTransform="matrix(.01137 0 0 .01137 .227 0)"><stop offset="0" stop-color="#bdbdbd"/><stop offset="1" stop-color="#eee"/></linearGradient></defs><path d="M10.234 19.273h1.364v.91h-1.364zm0 0" fill="url(#a)"/><path d="M11.598 19.273h1.82v-.91h-1.82zm0 0" fill="url(#b)"/><path d="M10.234 19.273h-1.82v.91h1.82zm0 0" fill="url(#c)"/><path d="M10.234 19.273h-1.82v-.91h1.82zm0 0" fill="url(#d)"/><path d="M11.598 19.273h1.82v.91h-1.82zm0 0" fill="url(#e)"/><path d="M10.914 1.992a8.639 8.639 0 0 1 8.64 8.64 8.641 8.641 0 1 1-8.64-8.64zm0 0" fill="url(#f)"/><path d="M10.914 1.992a8.621 8.621 0 0 0-8.637 8.82 8.619 8.619 0 0 1 8.637-8.46 8.622 8.622 0 0 1 8.64 8.46v-.18c0-4.788-3.85-8.64-8.64-8.64zm0 0" fill="#fff" fill-opacity=".392"/><path d="M10.914 19.273a8.624 8.624 0 0 1-8.637-8.82 8.619 8.619 0 0 0 8.637 8.461 8.622 8.622 0 0 0 8.64-8.46v.179a8.621 8.621 0 0 1-8.64 8.64zm0 0" fill-opacity=".235"/><path d="M10.914 1.926a8.686 8.686 0 0 0-8.703 8.707 8.686 8.686 0 0 0 8.703 8.703 8.686 8.686 0 0 0 8.707-8.703 8.687 8.687 0 0 0-8.707-8.707zm0 .129a8.557 8.557 0 0 1 8.578 8.578 8.556 8.556 0 0 1-8.578 8.574 8.556 8.556 0 0 1-8.574-8.574 8.556 8.556 0 0 1 8.574-8.578zm0 0" fill="#212121"/><path d="M12.05 1.082a.442.442 0 0 0-.374.203l-1.82 2.727a.454.454 0 0 0 .378.707h.907v7.277c0 .504.406.91.91.91h4.094c.503 0 .91-.406.91-.91V9.27a.909.909 0 0 0-.91-.91H12.96V4.718h.91a.455.455 0 0 0 .379-.707l-1.82-2.727a.448.448 0 0 0-.38-.203zm1.368 8.188h1.363c.25 0 .453.199.453.453v1.82c0 .25-.203.453-.453.453h-1.363a.454.454 0 0 1-.457-.453v-1.82c0-.254.203-.453.457-.453zm0 0" fill="url(#g)"/><path d="M5.684 8.36a.909.909 0 0 0-.91.91v2.726c0 .504.406.91.91.91h3.183v3.637h-.91a.454.454 0 0 0-.375.707l1.816 2.73c.18.27.579.27.758 0l1.82-2.73a.456.456 0 0 0-.378-.707h-.91V9.27a.909.909 0 0 0-.91-.91zm1.367.91h1.363c.25 0 .453.199.453.453v1.82c0 .25-.203.453-.453.453H7.051a.454.454 0 0 1-.457-.453v-1.82c0-.254.203-.453.457-.453zm0 0" fill="url(#h)"/><path d="M12.05 1.082a.442.442 0 0 0-.374.203l-1.82 2.727a.449.449 0 0 0-.063.367.392.392 0 0 1 .062-.137l1.82-2.73a.451.451 0 0 1 .755 0l1.82 2.73c.027.043.05.09.063.137a.449.449 0 0 0-.063-.367l-1.82-2.727a.448.448 0 0 0-.38-.203zm.91 7.277v.227h3.185c.503 0 .91.406.91.91V9.27a.909.909 0 0 0-.91-.91zm0 3.184v.227c0 .25.204.453.458.453h1.363c.25 0 .453-.203.453-.453v-.227c0 .25-.203.453-.453.453h-1.363a.454.454 0 0 1-.457-.453zm0 0M5.684 8.36a.909.909 0 0 0-.91.91v.226c0-.504.406-.91.91-.91h4.093c.504 0 .91.406.91.91V9.27a.909.909 0 0 0-.91-.91zm.91 3.183v.227c0 .25.203.453.457.453h1.363c.25 0 .453-.203.453-.453v-.227c0 .25-.203.453-.453.453H7.051a.454.454 0 0 1-.457-.453zm1.363 5a.454.454 0 0 0-.437.57.447.447 0 0 1 .437-.34h.91v-.23zm2.73 0v.23h.91c.223 0 .391.153.442.34a.459.459 0 0 0-.441-.57zm0 0" fill="#fff" fill-opacity=".588"/><path d="M14.313 4.152a.455.455 0 0 1-.442.34h-.91v.227h.91a.456.456 0 0 0 .441-.567zm-4.52 0a.452.452 0 0 0 .441.567h.907v-.227h-.907a.452.452 0 0 1-.441-.34zm3.625 4.887a.455.455 0 0 0-.457.457v.227c0-.254.203-.453.457-.453h1.363c.25 0 .453.199.453.453v-.227a.454.454 0 0 0-.453-.457zm-2.277 2.73v.227c0 .504.406.91.91.91h4.094c.503 0 .91-.406.91-.91v-.226c0 .503-.407.91-.91.91H12.05a.909.909 0 0 1-.91-.91zm0 0M7.05 9.04a.455.455 0 0 0-.456.456v.227c0-.254.203-.453.457-.453h1.363c.25 0 .453.199.453.453v-.227a.454.454 0 0 0-.453-.457zm-2.277 2.73v.226c0 .504.407.91.91.91h3.184v-.226H5.684a.909.909 0 0 1-.91-.91zm2.747 5.117a.438.438 0 0 0 .062.363l1.816 2.73c.18.27.579.27.758 0l1.82-2.73a.452.452 0 0 0 .063-.363.616.616 0 0 1-.062.136l-1.82 2.73a.456.456 0 0 1-.759 0l-1.816-2.73a.392.392 0 0 1-.062-.136zm0 0" fill-opacity=".235"/><path d="M14.313 4.379a.455.455 0 0 1-.442.34h-.91v.226h.91a.456.456 0 0 0 .441-.566zm-4.52 0a.452.452 0 0 0 .441.566h.907V4.72h-.907a.452.452 0 0 1-.441-.34zm3.625 4.89c-.254 0-.457.2-.457.454v.226c0-.25.203-.453.457-.453h1.363c.25 0 .453.203.453.453v-.226a.451.451 0 0 0-.453-.453zm-2.277 2.727v.227c0 .504.406.91.91.91h4.094c.503 0 .91-.406.91-.91v-.227c0 .504-.407.91-.91.91H12.05a.909.909 0 0 1-.91-.91zm0 0M7.05 9.27c-.253 0-.456.199-.456.453v.226c0-.25.203-.453.457-.453h1.363c.25 0 .453.203.453.453v-.226a.451.451 0 0 0-.453-.453zm-2.277 2.726v.227c0 .504.407.91.91.91h3.184v-.227H5.684a.909.909 0 0 1-.91-.91zm2.747 5.117a.438.438 0 0 0 .062.364l.98 1.476c.063.016.126.031.184.047l-1.164-1.75a.392.392 0 0 1-.062-.137zm4.52 0a.616.616 0 0 1-.063.137l-1.348 2.02c.05 0 .101 0 .152.003l1.196-1.796a.452.452 0 0 0 .062-.364zm0 0" fill-opacity=".235"/><path d="M12.05 1.02a.514.514 0 0 0-.429.23l-1.82 2.727a.522.522 0 0 0 .433.808h.844v7.211c0 .54.434.973.973.973h4.094c.539 0 .976-.434.976-.973V9.27a.977.977 0 0 0-.976-.977h-3.118V4.785h.844c.41 0 .66-.465.434-.808l-1.82-2.727a.521.521 0 0 0-.434-.23zm0 .128c.126 0 .247.055.325.172l1.82 2.73a.387.387 0 0 1-.324.606h-.91a.062.062 0 0 0-.063.063v3.64c0 .036.028.063.063.063h3.184c.468 0 .847.375.847.848v2.726a.844.844 0 0 1-.847.844H12.05a.84.84 0 0 1-.844-.844V4.72c0-.035-.027-.063-.066-.063h-.907a.387.387 0 0 1-.324-.605l1.817-2.73a.386.386 0 0 1 .324-.173zm1.368 8.055a.52.52 0 0 0-.52.52v1.82c0 .285.23.52.52.52h1.363c.285 0 .52-.235.52-.52v-1.82a.522.522 0 0 0-.52-.52zm0 .129h1.363c.219 0 .39.172.39.39v1.821a.39.39 0 0 1-.39.39h-1.363a.39.39 0 0 1-.39-.39v-1.82c0-.22.171-.391.39-.391zm0 0" fill="#212121"/><path d="M5.684 8.293a.974.974 0 0 0-.973.977v2.726c0 .54.434.973.973.973h3.12v3.511h-.847a.52.52 0 0 0-.43.805l1.82 2.73a.522.522 0 0 0 .864 0l1.816-2.73a.518.518 0 0 0-.43-.805h-.843V9.27a.977.977 0 0 0-.977-.977zm0 .129h4.093c.47 0 .848.375.848.848v7.273c0 .039.027.066.063.066h.91c.316 0 .5.344.324.606l-1.82 2.73a.39.39 0 0 1-.649 0l-1.82-2.73a.389.389 0 0 1 .324-.606h.91a.066.066 0 0 0 .067-.066v-3.637a.068.068 0 0 0-.067-.066H5.684a.84.84 0 0 1-.844-.844V9.27c0-.473.375-.848.844-.848zm1.367.781a.52.52 0 0 0-.52.52v1.82c0 .285.23.52.52.52h1.363c.285 0 .52-.235.52-.52v-1.82a.522.522 0 0 0-.52-.52zm0 .129h1.363c.219 0 .39.172.39.39v1.821a.39.39 0 0 1-.39.39H7.051a.39.39 0 0 1-.39-.39v-1.82c0-.22.171-.391.39-.391zm0 0" fill="#212121"/></svg>