<?xml version="1.0" encoding="UTF-8"?>
<svg xmlns="http://www.w3.org/2000/svg" xmlns:xlink="http://www.w3.org/1999/xlink" width="22pt" height="22pt" viewBox="0 0 22 22" version="1.1">
<defs>
<radialGradient id="radial0" gradientUnits="userSpaceOnUse" cx="450.908936" cy="189.579361" fx="450.908936" fy="189.579361" r="21.166656" gradientTransform="matrix(0.000000119742,-0.0537161,-0.0966889,-0.0000000698078,34.930231,43.72179)">
<stop offset="0" style="stop-color:rgb(0%,0%,0%);stop-opacity:0.313725;"/>
<stop offset="0.222222" style="stop-color:rgb(0%,0%,0%);stop-opacity:0.27451;"/>
<stop offset="1" style="stop-color:rgb(0%,0%,0%);stop-opacity:0;"/>
</radialGradient>
<radialGradient id="radial1" gradientUnits="userSpaceOnUse" cx="450.908936" cy="189.579361" fx="450.908936" fy="189.579361" r="21.166656" gradientTransform="matrix(-0.000000119742,0.0537161,0.0966889,0.0000000698078,-13.100021,-5.175142)">
<stop offset="0" style="stop-color:rgb(0%,0%,0%);stop-opacity:0.313725;"/>
<stop offset="0.222222" style="stop-color:rgb(0%,0%,0%);stop-opacity:0.27451;"/>
<stop offset="1" style="stop-color:rgb(0%,0%,0%);stop-opacity:0;"/>
</radialGradient>
<radialGradient id="radial2" gradientUnits="userSpaceOnUse" cx="450.908936" cy="189.579361" fx="450.908936" fy="189.579361" r="21.166656" gradientTransform="matrix(-0.000000119742,-0.0537161,0.0966889,-0.0000000698078,-13.100021,43.72179)">
<stop offset="0" style="stop-color:rgb(0%,0%,0%);stop-opacity:0.313725;"/>
<stop offset="0.222222" style="stop-color:rgb(0%,0%,0%);stop-opacity:0.27451;"/>
<stop offset="1" style="stop-color:rgb(0%,0%,0%);stop-opacity:0;"/>
</radialGradient>
<radialGradient id="radial3" gradientUnits="userSpaceOnUse" cx="450.908936" cy="189.579361" fx="450.908936" fy="189.579361" r="21.166656" gradientTransform="matrix(0.000000119742,0.0537161,-0.0966889,0.0000000698078,34.930229,-5.175143)">
<stop offset="0" style="stop-color:rgb(0%,0%,0%);stop-opacity:0.313725;"/>
<stop offset="0.222222" style="stop-color:rgb(0%,0%,0%);stop-opacity:0.27451;"/>
<stop offset="1" style="stop-color:rgb(0%,0%,0%);stop-opacity:0;"/>
</radialGradient>
<linearGradient id="linear0" gradientUnits="userSpaceOnUse" x1="254" y1="233.5" x2="254" y2="254.666672" gradientTransform="matrix(0.0532045,0,0,0.0429729,-2.317297,9.239165)">
<stop offset="0" style="stop-color:rgb(0%,0%,0%);stop-opacity:0.27451;"/>
<stop offset="1" style="stop-color:rgb(0%,0%,0%);stop-opacity:0;"/>
</linearGradient>
<linearGradient id="linear1" gradientUnits="userSpaceOnUse" x1="960" y1="1695.118164" x2="960" y2="175.118118" gradientTransform="matrix(0.0113699,0,0,0.0113699,0,0)">
<stop offset="0" style="stop-color:rgb(25.882353%,25.882353%,25.882353%);stop-opacity:1;"/>
<stop offset="1" style="stop-color:rgb(38.039216%,38.039216%,38.039216%);stop-opacity:1;"/>
</linearGradient>
<linearGradient id="linear2" gradientUnits="userSpaceOnUse" x1="960" y1="335.118103" x2="960" y2="1055.118164" gradientTransform="matrix(1,0,0,1,0,0)">
<stop offset="0" style="stop-color:rgb(74.117647%,74.117647%,74.117647%);stop-opacity:1;"/>
<stop offset="1" style="stop-color:rgb(93.333333%,93.333333%,93.333333%);stop-opacity:1;"/>
</linearGradient>
<linearGradient id="linear3" gradientUnits="userSpaceOnUse" x1="254" y1="64.166664" x2="254" y2="127.666656" >
<stop offset="0" style="stop-color:rgb(74.117647%,74.117647%,74.117647%);stop-opacity:1;"/>
<stop offset="1" style="stop-color:rgb(93.333333%,93.333333%,93.333333%);stop-opacity:1;"/>
</linearGradient>
<linearGradient id="linear4" gradientUnits="userSpaceOnUse" x1="960" y1="1375.118164" x2="960" y2="1615.118164" gradientTransform="matrix(1,0,0,1,0,0)">
<stop offset="0" style="stop-color:rgb(74.117647%,74.117647%,74.117647%);stop-opacity:1;"/>
<stop offset="1" style="stop-color:rgb(93.333333%,93.333333%,93.333333%);stop-opacity:1;"/>
</linearGradient>
</defs>
<g id="surface1">
<path style=" stroke:none;fill-rule:nonzero;fill:url(#radial0);" d="M 16.828125 19.273438 L 18.648438 19.273438 L 18.648438 18.363281 L 16.828125 18.363281 Z M 16.828125 19.273438 "/>
<path style=" stroke:none;fill-rule:nonzero;fill:url(#radial1);" d="M 5.003906 19.273438 L 3.183594 19.273438 L 3.183594 20.183594 L 5.003906 20.183594 Z M 5.003906 19.273438 "/>
<path style=" stroke:none;fill-rule:nonzero;fill:url(#radial2);" d="M 5.003906 19.273438 L 3.183594 19.273438 L 3.183594 18.363281 L 5.003906 18.363281 Z M 5.003906 19.273438 "/>
<path style=" stroke:none;fill-rule:nonzero;fill:url(#radial3);" d="M 16.828125 19.273438 L 18.648438 19.273438 L 18.648438 20.183594 L 16.828125 20.183594 Z M 16.828125 19.273438 "/>
<path style=" stroke:none;fill-rule:nonzero;fill:url(#linear0);" d="M 5.003906 19.273438 L 16.828125 19.273438 L 16.828125 20.183594 L 5.003906 20.183594 Z M 5.003906 19.273438 "/>
<path style=" stroke:none;fill-rule:nonzero;fill:url(#linear1);" d="M 10.878906 1.992188 C 8.378906 1.992188 6.367188 4.019531 6.367188 6.539062 L 6.367188 9.269531 L 4.546875 9.269531 C 4.042969 9.269531 3.636719 9.671875 3.636719 10.175781 L 3.636719 18.363281 C 3.636719 18.867188 4.042969 19.273438 4.546875 19.273438 L 17.28125 19.273438 C 17.785156 19.273438 18.191406 18.867188 18.191406 18.363281 L 18.191406 10.175781 C 18.191406 9.671875 17.785156 9.269531 17.28125 9.269531 L 15.464844 9.269531 L 15.464844 6.539062 C 15.464844 4.019531 13.449219 1.992188 10.953125 1.992188 Z M 10.878906 1.992188 "/>
<path style="fill-rule:nonzero;fill:url(#linear2);stroke-width:11.338583;stroke-linecap:butt;stroke-linejoin:miter;stroke:rgb(12.941177%,12.941177%,12.941177%);stroke-opacity:1;stroke-miterlimit:4;" d="M 959.908384 334.971609 C 826.950422 334.971609 720.103068 442.162523 720.103068 575.120485 C 720.103068 708.078446 826.950422 815.269361 959.908384 815.269361 C 992.203082 815.269361 1022.779978 808.741709 1050.608389 797.404209 C 1090.11786 935.85914 971.245884 1010.411796 1040.64513 1010.411796 C 1229.259913 937.920504 1200.05726 595.047001 1200.05726 573.746242 C 1200.05726 573.402682 1200.05726 573.059121 1200.05726 572.71556 C 1198.683018 440.788281 1092.179224 334.971609 959.908384 334.971609 Z M 959.908384 334.971609 " transform="matrix(0.0113699,0,0,0.0113699,0,0)"/>
<path style="fill-rule:nonzero;fill:url(#linear3);stroke-width:3;stroke-linecap:butt;stroke-linejoin:miter;stroke:rgb(12.941177%,12.941177%,12.941177%);stroke-opacity:1;stroke-miterlimit:4;" d="M 253.975747 64.15516 C 271.519526 64.15516 285.79089 78.153823 285.79089 95.515802 L 285.79089 96.333905 C 285.79089 113.604983 271.519526 127.694547 253.975747 127.694547 C 236.431967 127.694547 222.251503 113.604983 222.251503 96.333905 L 222.251503 95.515802 C 222.251503 78.153823 236.431967 64.15516 253.975747 64.15516 Z M 253.975747 64.15516 " transform="matrix(0.0429729,0,0,0.0429729,0,9.239163)"/>
<path style="fill-rule:nonzero;fill:url(#linear4);stroke-width:11.338583;stroke-linecap:butt;stroke-linejoin:miter;stroke:rgb(12.941177%,12.941177%,12.941177%);stroke-opacity:1;stroke-miterlimit:4;" d="M 843.441332 1324.769767 C 792.93792 1353.97242 759.956101 1401.383786 759.956101 1454.979243 L 759.956101 1535.028869 C 759.956101 1579.348189 795.686405 1615.078494 840.005726 1615.078494 L 1080.154602 1615.078494 C 1124.473923 1615.078494 1159.860667 1579.348189 1159.860667 1535.028869 L 1159.860667 1454.979243 C 1159.860667 1401.383786 1127.222408 1353.97242 1076.718996 1324.769767 C 1047.516343 1355.690223 1005.945507 1375.273178 959.908384 1375.273178 C 913.87126 1375.273178 872.643985 1355.690223 843.441332 1324.769767 Z M 843.441332 1324.769767 " transform="matrix(0.0113699,0,0,0.0113699,0,0)"/>
<path style=" stroke:none;fill-rule:nonzero;fill:rgb(100%,100%,100%);fill-opacity:0.392157;" d="M 10.878906 1.992188 C 8.378906 1.992188 6.367188 4.019531 6.367188 6.539062 L 6.367188 6.765625 C 6.367188 4.246094 8.378906 2.21875 10.878906 2.21875 L 10.953125 2.21875 C 13.449219 2.21875 15.464844 4.246094 15.464844 6.765625 L 15.464844 6.539062 C 15.464844 4.019531 13.449219 1.992188 10.953125 1.992188 Z M 4.546875 9.269531 C 4.042969 9.269531 3.636719 9.671875 3.636719 10.175781 L 3.636719 10.40625 C 3.636719 9.902344 4.042969 9.496094 4.546875 9.496094 L 6.367188 9.496094 L 6.367188 9.269531 Z M 15.464844 9.269531 L 15.464844 9.496094 L 17.28125 9.496094 C 17.785156 9.496094 18.191406 9.902344 18.191406 10.40625 L 18.191406 10.175781 C 18.191406 9.671875 17.785156 9.269531 17.28125 9.269531 Z M 15.464844 9.269531 "/>
<path style=" stroke:none;fill-rule:nonzero;fill:rgb(0%,0%,0%);fill-opacity:0.235294;" d="M 3.636719 18.136719 L 3.636719 18.363281 C 3.636719 18.867188 4.042969 19.273438 4.546875 19.273438 L 17.28125 19.273438 C 17.785156 19.273438 18.191406 18.867188 18.191406 18.363281 L 18.191406 18.136719 C 18.191406 18.640625 17.785156 19.046875 17.28125 19.046875 L 4.546875 19.046875 C 4.042969 19.046875 3.636719 18.640625 3.636719 18.136719 Z M 3.636719 18.136719 "/>
<path style=" stroke:none;fill-rule:nonzero;fill:rgb(12.941177%,12.941177%,12.941177%);fill-opacity:1;" d="M 10.878906 1.925781 C 8.34375 1.925781 6.300781 3.984375 6.300781 6.539062 L 6.300781 9.203125 L 4.546875 9.203125 C 4.007812 9.203125 3.574219 9.640625 3.574219 10.175781 L 3.574219 18.363281 C 3.574219 18.902344 4.007812 19.335938 4.546875 19.335938 L 17.28125 19.335938 C 17.820312 19.335938 18.257812 18.902344 18.257812 18.363281 L 18.257812 10.175781 C 18.257812 9.640625 17.820312 9.203125 17.28125 9.203125 L 15.527344 9.203125 L 15.527344 6.539062 C 15.527344 3.984375 13.484375 1.925781 10.953125 1.925781 Z M 10.878906 2.054688 L 10.953125 2.054688 C 13.417969 2.054688 15.398438 4.054688 15.398438 6.539062 L 15.398438 9.332031 L 17.28125 9.332031 C 17.75 9.332031 18.128906 9.707031 18.128906 10.175781 L 18.128906 18.363281 C 18.128906 18.832031 17.75 19.207031 17.28125 19.207031 L 4.546875 19.207031 C 4.078125 19.207031 3.703125 18.832031 3.703125 18.363281 L 3.703125 10.175781 C 3.703125 9.707031 4.078125 9.332031 4.546875 9.332031 L 6.429688 9.332031 L 6.429688 6.539062 C 6.429688 4.054688 8.414062 2.054688 10.878906 2.054688 Z M 10.878906 2.054688 "/>
</g>
</svg>
