<?xml version="1.0" encoding="UTF-8"?>
<svg xmlns="http://www.w3.org/2000/svg" xmlns:xlink="http://www.w3.org/1999/xlink" width="22px" height="22px" viewBox="0 0 22 22" version="1.1">
<defs>
<radialGradient id="radial0" gradientUnits="userSpaceOnUse" cx="450.908936" cy="189.579361" fx="450.908936" fy="189.579361" r="21.166656" gradientTransform="matrix(0.000000119742,-0.0537161,-0.0966889,-0.0000000698078,24.015125,43.721789)">
<stop offset="0" style="stop-color:rgb(0%,0%,0%);stop-opacity:0.313726;"/>
<stop offset="0.222222" style="stop-color:rgb(0%,0%,0%);stop-opacity:0.27451;"/>
<stop offset="1" style="stop-color:rgb(0%,0%,0%);stop-opacity:0;"/>
</radialGradient>
<radialGradient id="radial1" gradientUnits="userSpaceOnUse" cx="450.908936" cy="189.579361" fx="450.908936" fy="189.579361" r="21.166656" gradientTransform="matrix(-0.000000119742,0.0537161,0.0966889,0.0000000698078,-12.417825,-5.175144)">
<stop offset="0" style="stop-color:rgb(0%,0%,0%);stop-opacity:0.313726;"/>
<stop offset="0.222222" style="stop-color:rgb(0%,0%,0%);stop-opacity:0.27451;"/>
<stop offset="1" style="stop-color:rgb(0%,0%,0%);stop-opacity:0;"/>
</radialGradient>
<radialGradient id="radial2" gradientUnits="userSpaceOnUse" cx="450.908936" cy="189.579361" fx="450.908936" fy="189.579361" r="21.166656" gradientTransform="matrix(-0.000000119742,-0.0537161,0.0966889,-0.0000000698078,-12.417825,43.721789)">
<stop offset="0" style="stop-color:rgb(0%,0%,0%);stop-opacity:0.313726;"/>
<stop offset="0.222222" style="stop-color:rgb(0%,0%,0%);stop-opacity:0.27451;"/>
<stop offset="1" style="stop-color:rgb(0%,0%,0%);stop-opacity:0;"/>
</radialGradient>
<radialGradient id="radial3" gradientUnits="userSpaceOnUse" cx="450.908936" cy="189.579361" fx="450.908936" fy="189.579361" r="21.166656" gradientTransform="matrix(0.000000119742,0.0537161,-0.0966889,0.0000000698078,24.015123,-5.175144)">
<stop offset="0" style="stop-color:rgb(0%,0%,0%);stop-opacity:0.313726;"/>
<stop offset="0.222222" style="stop-color:rgb(0%,0%,0%);stop-opacity:0.27451;"/>
<stop offset="1" style="stop-color:rgb(0%,0%,0%);stop-opacity:0;"/>
</radialGradient>
<linearGradient id="linear0" gradientUnits="userSpaceOnUse" x1="255.323059" y1="233.5" x2="255.323044" y2="254.666656" gradientTransform="matrix(0.00918504,0,0,0.0429729,4.931584,9.239164)">
<stop offset="0" style="stop-color:rgb(0%,0%,0%);stop-opacity:0.27451;"/>
<stop offset="1" style="stop-color:rgb(0%,0%,0%);stop-opacity:0;"/>
</linearGradient>
<radialGradient id="radial4" gradientUnits="userSpaceOnUse" cx="450.908936" cy="189.579361" fx="450.908936" fy="189.579361" r="21.166656" gradientTransform="matrix(0.000000119742,-0.0537161,-0.0966889,-0.0000000698078,34.475435,43.721789)">
<stop offset="0" style="stop-color:rgb(0%,0%,0%);stop-opacity:0.313726;"/>
<stop offset="0.222222" style="stop-color:rgb(0%,0%,0%);stop-opacity:0.27451;"/>
<stop offset="1" style="stop-color:rgb(0%,0%,0%);stop-opacity:0;"/>
</radialGradient>
<radialGradient id="radial5" gradientUnits="userSpaceOnUse" cx="450.908936" cy="189.579361" fx="450.908936" fy="189.579361" r="21.166656" gradientTransform="matrix(-0.000000119742,0.0537161,0.0966889,0.0000000698078,-1.957515,-5.175144)">
<stop offset="0" style="stop-color:rgb(0%,0%,0%);stop-opacity:0.313726;"/>
<stop offset="0.222222" style="stop-color:rgb(0%,0%,0%);stop-opacity:0.27451;"/>
<stop offset="1" style="stop-color:rgb(0%,0%,0%);stop-opacity:0;"/>
</radialGradient>
<radialGradient id="radial6" gradientUnits="userSpaceOnUse" cx="450.908936" cy="189.579361" fx="450.908936" fy="189.579361" r="21.166656" gradientTransform="matrix(-0.000000119742,-0.0537161,0.0966889,-0.0000000698078,-1.957515,43.721789)">
<stop offset="0" style="stop-color:rgb(0%,0%,0%);stop-opacity:0.313726;"/>
<stop offset="0.222222" style="stop-color:rgb(0%,0%,0%);stop-opacity:0.27451;"/>
<stop offset="1" style="stop-color:rgb(0%,0%,0%);stop-opacity:0;"/>
</radialGradient>
<radialGradient id="radial7" gradientUnits="userSpaceOnUse" cx="450.908936" cy="189.579361" fx="450.908936" fy="189.579361" r="21.166656" gradientTransform="matrix(0.000000119742,0.0537161,-0.0966889,0.0000000698078,34.475433,-5.175144)">
<stop offset="0" style="stop-color:rgb(0%,0%,0%);stop-opacity:0.313726;"/>
<stop offset="0.222222" style="stop-color:rgb(0%,0%,0%);stop-opacity:0.27451;"/>
<stop offset="1" style="stop-color:rgb(0%,0%,0%);stop-opacity:0;"/>
</radialGradient>
<linearGradient id="linear1" gradientUnits="userSpaceOnUse" x1="255.323059" y1="233.5" x2="255.323044" y2="254.666656" gradientTransform="matrix(0.00918504,0,0,0.0429729,15.391894,9.239164)">
<stop offset="0" style="stop-color:rgb(0%,0%,0%);stop-opacity:0.27451;"/>
<stop offset="1" style="stop-color:rgb(0%,0%,0%);stop-opacity:0;"/>
</linearGradient>
<linearGradient id="linear2" gradientUnits="userSpaceOnUse" x1="254" y1="233.5" x2="254" y2="-168.666656" gradientTransform="matrix(0.0429729,0,0,0.0429729,0,9.239163)">
<stop offset="0" style="stop-color:rgb(100%,65.490198%,14.901961%);stop-opacity:1;"/>
<stop offset="1" style="stop-color:rgb(100%,71.764708%,30.19608%);stop-opacity:1;"/>
</linearGradient>
<linearGradient id="linear3" gradientUnits="userSpaceOnUse" x1="960" y1="1695.118164" x2="960" y2="175.118118" gradientTransform="matrix(0.0113699,0,0,0.0113699,0,0)">
<stop offset="0" style="stop-color:rgb(92.54902%,25.098041%,47.843137%);stop-opacity:1;"/>
<stop offset="1" style="stop-color:rgb(94.117647%,38.431373%,57.254905%);stop-opacity:1;"/>
</linearGradient>
<linearGradient id="linear4" gradientUnits="userSpaceOnUse" x1="960" y1="1695.118164" x2="960" y2="175.118118" gradientTransform="matrix(0.0113699,0,0,0.0113699,0,0)">
<stop offset="0" style="stop-color:rgb(100%,79.215688%,15.686275%);stop-opacity:1;"/>
<stop offset="1" style="stop-color:rgb(100%,83.529413%,30.980393%);stop-opacity:1;"/>
</linearGradient>
<linearGradient id="linear5" gradientUnits="userSpaceOnUse" x1="960" y1="1695.118164" x2="960" y2="175.118118" gradientTransform="matrix(0.0113699,0,0,0.0113699,0,0)">
<stop offset="0" style="stop-color:rgb(94.117647%,38.431373%,57.254905%);stop-opacity:1;"/>
<stop offset="1" style="stop-color:rgb(95.686275%,56.078434%,69.411767%);stop-opacity:1;"/>
</linearGradient>
<linearGradient id="linear6" gradientUnits="userSpaceOnUse" x1="254" y1="233.5" x2="254" y2="-168.666656" gradientTransform="matrix(0.0429729,0,0,0.0429729,0,9.239163)">
<stop offset="0" style="stop-color:rgb(100%,65.490198%,14.901961%);stop-opacity:1;"/>
<stop offset="1" style="stop-color:rgb(100%,71.764708%,30.19608%);stop-opacity:1;"/>
</linearGradient>
<linearGradient id="linear7" gradientUnits="userSpaceOnUse" x1="1280" y1="1695.118164" x2="1280" y2="175.118118" gradientTransform="matrix(0.0113699,0,0,0.0113699,0,0)">
<stop offset="0" style="stop-color:rgb(45.882353%,45.882353%,45.882353%);stop-opacity:1;"/>
<stop offset="1" style="stop-color:rgb(61.960787%,61.960787%,61.960787%);stop-opacity:1;"/>
</linearGradient>
<linearGradient id="linear8" gradientUnits="userSpaceOnUse" x1="254" y1="233.5" x2="254" y2="-168.666656" gradientTransform="matrix(0.0429729,0,0,0.0429729,0,9.239163)">
<stop offset="0" style="stop-color:rgb(100%,79.215688%,15.686275%);stop-opacity:1;"/>
<stop offset="1" style="stop-color:rgb(100%,83.529413%,30.980393%);stop-opacity:1;"/>
</linearGradient>
<linearGradient id="linear9" gradientUnits="userSpaceOnUse" x1="1200" y1="1695.118164" x2="1200" y2="175.118118" gradientTransform="matrix(0.0113699,0,0,0.0113699,0,0)">
<stop offset="0" style="stop-color:rgb(74.117649%,74.117649%,74.117649%);stop-opacity:1;"/>
<stop offset="1" style="stop-color:rgb(93.333334%,93.333334%,93.333334%);stop-opacity:1;"/>
</linearGradient>
<linearGradient id="linear10" gradientUnits="userSpaceOnUse" x1="960" y1="1695.118164" x2="960" y2="175.118118" gradientTransform="matrix(0.0113699,0,0,0.0113699,0,0)">
<stop offset="0" style="stop-color:rgb(58.431375%,45.882353%,80.392158%);stop-opacity:1;"/>
<stop offset="1" style="stop-color:rgb(70.19608%,61.56863%,85.882354%);stop-opacity:1;"/>
</linearGradient>
<linearGradient id="linear11" gradientUnits="userSpaceOnUse" x1="1120" y1="1695.118164" x2="1120" y2="175.118134" gradientTransform="matrix(0.0113699,0,0,0.0113699,0,0)">
<stop offset="0" style="stop-color:rgb(49.411765%,34.117648%,76.078433%);stop-opacity:1;"/>
<stop offset="1" style="stop-color:rgb(58.431375%,45.882353%,80.392158%);stop-opacity:1;"/>
</linearGradient>
</defs>
<g id="surface1">
<path style=" stroke:none;fill-rule:nonzero;fill:url(#radial0);" d="M 5.914062 19.273438 L 7.730469 19.273438 L 7.730469 18.363281 L 5.914062 18.363281 Z M 5.914062 19.273438 "/>
<path style=" stroke:none;fill-rule:nonzero;fill:url(#radial1);" d="M 5.683594 19.273438 L 3.867188 19.273438 L 3.867188 20.183594 L 5.683594 20.183594 Z M 5.683594 19.273438 "/>
<path style=" stroke:none;fill-rule:nonzero;fill:url(#radial2);" d="M 5.683594 19.273438 L 3.867188 19.273438 L 3.867188 18.363281 L 5.683594 18.363281 Z M 5.683594 19.273438 "/>
<path style=" stroke:none;fill-rule:nonzero;fill:url(#radial3);" d="M 5.914062 19.273438 L 7.730469 19.273438 L 7.730469 20.183594 L 5.914062 20.183594 Z M 5.914062 19.273438 "/>
<path style=" stroke:none;fill-rule:nonzero;fill:url(#linear0);" d="M 5.683594 19.046875 L 5.914062 19.046875 L 5.914062 20.183594 L 5.683594 20.183594 Z M 5.683594 19.046875 "/>
<path style=" stroke:none;fill-rule:nonzero;fill:url(#radial4);" d="M 16.371094 19.273438 L 18.191406 19.273438 L 18.191406 18.363281 L 16.371094 18.363281 Z M 16.371094 19.273438 "/>
<path style=" stroke:none;fill-rule:nonzero;fill:url(#radial5);" d="M 16.144531 19.273438 L 14.324219 19.273438 L 14.324219 20.183594 L 16.144531 20.183594 Z M 16.144531 19.273438 "/>
<path style=" stroke:none;fill-rule:nonzero;fill:url(#radial6);" d="M 16.144531 19.273438 L 14.324219 19.273438 L 14.324219 18.363281 L 16.144531 18.363281 Z M 16.144531 19.273438 "/>
<path style=" stroke:none;fill-rule:nonzero;fill:url(#radial7);" d="M 16.371094 19.273438 L 18.191406 19.273438 L 18.191406 20.183594 L 16.371094 20.183594 Z M 16.371094 19.273438 "/>
<path style=" stroke:none;fill-rule:nonzero;fill:url(#linear1);" d="M 16.144531 19.046875 L 16.371094 19.046875 L 16.371094 20.183594 L 16.144531 20.183594 Z M 16.144531 19.046875 "/>
<path style=" stroke:none;fill-rule:nonzero;fill:url(#linear2);" d="M 10.894531 1.992188 C 9.683594 2.050781 9.226562 7.144531 8.242188 7.863281 C 8.152344 7.929688 8.027344 7.976562 7.875 8.015625 L 10.894531 11.035156 Z M 10.894531 1.992188 "/>
<path style=" stroke:none;fill-rule:nonzero;fill:url(#linear3);" d="M 10.9375 1.992188 L 10.9375 11.035156 L 13.957031 8.015625 C 13.804688 7.976562 13.679688 7.929688 13.589844 7.863281 C 12.601562 7.144531 12.144531 2.050781 10.9375 1.992188 Z M 10.9375 1.992188 "/>
<path style=" stroke:none;fill-rule:nonzero;fill:url(#linear4);" d="M 7.824219 8.027344 C 6.277344 8.371094 2.171875 7.542969 1.832031 8.589844 C 1.828125 8.601562 1.824219 8.617188 1.820312 8.628906 L 10.84375 11.046875 Z M 7.824219 8.027344 "/>
<path style=" stroke:none;fill-rule:nonzero;fill:url(#linear5);" d="M 14.003906 8.027344 L 10.988281 11.046875 L 20.007812 8.628906 C 20.003906 8.617188 20.003906 8.601562 20 8.589844 C 19.65625 7.542969 15.550781 8.371094 14.003906 8.027344 Z M 14.003906 8.027344 "/>
<path style=" stroke:none;fill-rule:nonzero;fill:url(#linear6);" d="M 1.8125 8.671875 C 1.667969 9.824219 6.039062 11.730469 6.5625 12.878906 L 10.847656 11.089844 Z M 1.8125 8.671875 "/>
<path style=" stroke:none;fill-rule:nonzero;fill:url(#linear7);" d="M 20.015625 8.671875 L 10.972656 11.09375 L 15.203125 13.292969 C 15.199219 13.160156 15.210938 13.042969 15.242188 12.945312 C 15.609375 11.808594 20.164062 9.847656 20.015625 8.671875 Z M 20.015625 8.671875 "/>
<path style=" stroke:none;fill-rule:nonzero;fill:url(#linear8);" d="M 10.855469 11.132812 L 6.578125 12.917969 C 6.582031 12.925781 6.585938 12.9375 6.589844 12.945312 C 6.96875 14.113281 4.308594 18.546875 5.300781 19.269531 C 5.308594 19.273438 5.3125 19.277344 5.316406 19.28125 Z M 10.855469 11.132812 "/>
<path style=" stroke:none;fill-rule:nonzero;fill:url(#linear9);" d="M 10.980469 11.144531 L 16.511719 19.28125 C 16.519531 19.277344 16.523438 19.273438 16.527344 19.269531 C 17.429688 18.613281 15.316406 14.894531 15.207031 13.34375 Z M 10.980469 11.144531 "/>
<path style=" stroke:none;fill-rule:nonzero;fill:url(#linear10);" d="M 10.894531 11.15625 L 5.355469 19.300781 C 6.402344 19.851562 9.671875 16.132812 10.894531 16.089844 Z M 10.894531 11.15625 "/>
<path style=" stroke:none;fill-rule:nonzero;fill:url(#linear11);" d="M 10.9375 11.15625 L 10.9375 16.089844 C 12.160156 16.132812 15.425781 19.851562 16.476562 19.300781 Z M 10.9375 11.15625 "/>
<path style=" stroke:none;fill-rule:nonzero;fill:rgb(100%,100%,100%);fill-opacity:0.392157;" d="M 10.914062 1.933594 C 9.6875 1.933594 9.234375 7.085938 8.242188 7.804688 C 7.25 8.527344 2.210938 7.367188 1.832031 8.535156 C 1.804688 8.613281 1.804688 8.699219 1.824219 8.789062 C 1.828125 8.777344 1.828125 8.769531 1.832031 8.761719 C 2.210938 7.59375 7.25 8.753906 8.242188 8.03125 C 9.234375 7.3125 9.6875 2.160156 10.914062 2.160156 C 12.140625 2.160156 12.597656 7.3125 13.589844 8.03125 C 14.578125 8.753906 19.621094 7.59375 20 8.761719 C 20 8.769531 20.003906 8.777344 20.007812 8.789062 C 20.027344 8.699219 20.023438 8.613281 20 8.535156 C 19.621094 7.367188 14.578125 8.527344 13.589844 7.804688 C 12.597656 7.085938 12.140625 1.933594 10.914062 1.933594 Z M 6.621094 13.289062 C 6.527344 14.605469 4.992188 17.484375 5.082031 18.722656 C 5.167969 17.296875 6.71875 14.402344 6.621094 13.289062 Z M 15.207031 13.289062 C 15.109375 14.402344 16.660156 17.296875 16.75 18.722656 C 16.835938 17.484375 15.300781 14.605469 15.207031 13.289062 Z M 15.207031 13.289062 "/>
<path style=" stroke:none;fill-rule:nonzero;fill:rgb(0%,0%,0%);fill-opacity:0.235294;" d="M 1.8125 8.671875 C 1.667969 9.847656 6.21875 11.808594 6.589844 12.945312 C 6.609375 13.011719 6.621094 13.085938 6.625 13.171875 C 6.628906 13.039062 6.621094 12.925781 6.589844 12.835938 C 6.230469 11.730469 1.949219 9.859375 1.8125 8.671875 Z M 20.015625 8.671875 C 19.882812 9.859375 15.597656 11.730469 15.242188 12.835938 C 15.210938 12.925781 15.199219 13.039062 15.203125 13.171875 C 15.207031 13.085938 15.21875 13.011719 15.242188 12.945312 C 15.609375 11.808594 20.160156 9.847656 20.015625 8.671875 Z M 10.914062 15.976562 C 9.6875 15.976562 6.292969 19.875 5.300781 19.15625 C 5.15625 19.050781 5.085938 18.863281 5.078125 18.613281 C 5.070312 18.917969 5.132812 19.144531 5.300781 19.269531 C 6.292969 19.988281 9.6875 16.089844 10.914062 16.089844 C 12.140625 16.089844 15.539062 19.988281 16.527344 19.269531 C 16.695312 19.144531 16.761719 18.917969 16.75 18.613281 C 16.742188 18.863281 16.675781 19.050781 16.527344 19.15625 C 15.539062 19.875 12.140625 15.976562 10.914062 15.976562 Z M 10.914062 15.976562 "/>
<path style=" stroke:none;fill-rule:nonzero;fill:rgb(12.941177%,12.941177%,12.941177%);fill-opacity:1;" d="M 10.914062 1.925781 C 10.738281 1.925781 10.582031 2.019531 10.441406 2.171875 C 10.300781 2.320312 10.179688 2.53125 10.0625 2.78125 C 9.828125 3.28125 9.625 3.949219 9.429688 4.640625 C 9.234375 5.328125 9.042969 6.039062 8.84375 6.621094 C 8.644531 7.199219 8.425781 7.648438 8.203125 7.808594 C 7.984375 7.96875 7.488281 8.039062 6.875 8.050781 C 6.261719 8.0625 5.527344 8.023438 4.808594 7.996094 C 4.09375 7.96875 3.394531 7.953125 2.847656 8.023438 C 2.570312 8.054688 2.335938 8.109375 2.148438 8.195312 C 1.960938 8.28125 1.824219 8.402344 1.769531 8.570312 C 1.714844 8.738281 1.753906 8.917969 1.855469 9.097656 C 1.957031 9.273438 2.117188 9.457031 2.316406 9.644531 C 2.722656 10.023438 3.296875 10.421875 3.890625 10.824219 C 4.484375 11.222656 5.105469 11.621094 5.59375 11.988281 C 6.085938 12.359375 6.445312 12.707031 6.527344 12.96875 C 6.613281 13.226562 6.527344 13.71875 6.347656 14.304688 C 6.167969 14.894531 5.902344 15.578125 5.65625 16.253906 C 5.410156 16.925781 5.179688 17.585938 5.074219 18.128906 C 5.023438 18.398438 5 18.640625 5.023438 18.84375 C 5.046875 19.046875 5.121094 19.21875 5.261719 19.320312 C 5.40625 19.425781 5.589844 19.441406 5.789062 19.402344 C 5.992188 19.363281 6.214844 19.265625 6.457031 19.132812 C 6.9375 18.863281 7.496094 18.441406 8.058594 18 C 8.625 17.558594 9.195312 17.09375 9.695312 16.742188 C 10.199219 16.386719 10.644531 16.152344 10.914062 16.152344 C 11.1875 16.152344 11.628906 16.386719 12.132812 16.742188 C 12.636719 17.09375 13.207031 17.558594 13.769531 18 C 14.332031 18.441406 14.890625 18.863281 15.375 19.132812 C 15.617188 19.265625 15.839844 19.363281 16.039062 19.402344 C 16.242188 19.441406 16.425781 19.425781 16.566406 19.320312 C 16.710938 19.21875 16.78125 19.046875 16.808594 18.84375 C 16.832031 18.640625 16.808594 18.398438 16.757812 18.128906 C 16.652344 17.585938 16.421875 16.925781 16.175781 16.253906 C 15.929688 15.578125 15.664062 14.894531 15.484375 14.304688 C 15.304688 13.71875 15.21875 13.226562 15.300781 12.96875 C 15.386719 12.707031 15.746094 12.359375 16.234375 11.988281 C 16.726562 11.621094 17.34375 11.222656 17.9375 10.824219 C 18.535156 10.421875 19.109375 10.023438 19.511719 9.644531 C 19.714844 9.457031 19.875 9.273438 19.972656 9.097656 C 20.074219 8.917969 20.113281 8.738281 20.058594 8.570312 C 20.003906 8.402344 19.867188 8.28125 19.683594 8.195312 C 19.496094 8.109375 19.257812 8.054688 18.984375 8.023438 C 18.433594 7.953125 17.738281 7.96875 17.019531 7.996094 C 16.304688 8.023438 15.570312 8.0625 14.957031 8.050781 C 14.34375 8.039062 13.847656 7.96875 13.625 7.808594 C 13.40625 7.648438 13.1875 7.199219 12.984375 6.621094 C 12.785156 6.039062 12.597656 5.328125 12.402344 4.640625 C 12.207031 3.949219 12.003906 3.28125 11.769531 2.78125 C 11.652344 2.53125 11.527344 2.320312 11.386719 2.171875 C 11.25 2.019531 11.089844 1.925781 10.914062 1.925781 Z M 10.914062 2.054688 C 11.046875 2.054688 11.167969 2.125 11.292969 2.257812 C 11.417969 2.390625 11.539062 2.589844 11.652344 2.835938 C 11.878906 3.320312 12.082031 3.984375 12.277344 4.675781 C 12.472656 5.363281 12.660156 6.074219 12.863281 6.660156 C 13.066406 7.25 13.273438 7.714844 13.550781 7.914062 C 13.824219 8.113281 14.332031 8.167969 14.953125 8.179688 C 15.574219 8.191406 16.3125 8.152344 17.027344 8.125 C 17.742188 8.097656 18.433594 8.085938 18.96875 8.148438 C 19.234375 8.183594 19.460938 8.234375 19.628906 8.3125 C 19.792969 8.390625 19.898438 8.484375 19.9375 8.609375 C 19.976562 8.734375 19.953125 8.875 19.863281 9.03125 C 19.773438 9.191406 19.621094 9.367188 19.425781 9.550781 C 19.03125 9.917969 18.460938 10.316406 17.867188 10.714844 C 17.273438 11.113281 16.65625 11.511719 16.15625 11.886719 C 15.660156 12.261719 15.285156 12.601562 15.179688 12.925781 C 15.074219 13.25 15.179688 13.75 15.359375 14.34375 C 15.542969 14.9375 15.808594 15.625 16.054688 16.296875 C 16.300781 16.96875 16.527344 17.625 16.628906 18.152344 C 16.679688 18.417969 16.699219 18.648438 16.679688 18.832031 C 16.65625 19.011719 16.597656 19.140625 16.492188 19.214844 C 16.386719 19.292969 16.246094 19.3125 16.066406 19.277344 C 15.886719 19.238281 15.671875 19.148438 15.4375 19.019531 C 14.964844 18.757812 14.410156 18.339844 13.847656 17.898438 C 13.285156 17.457031 12.714844 16.992188 12.207031 16.636719 C 11.699219 16.277344 11.253906 16.023438 10.914062 16.023438 C 10.574219 16.023438 10.132812 16.277344 9.625 16.636719 C 9.113281 16.992188 8.542969 17.457031 7.980469 17.898438 C 7.417969 18.339844 6.863281 18.757812 6.394531 19.019531 C 6.15625 19.148438 5.945312 19.238281 5.765625 19.277344 C 5.585938 19.3125 5.445312 19.292969 5.339844 19.214844 C 5.234375 19.140625 5.171875 19.011719 5.152344 18.832031 C 5.128906 18.648438 5.148438 18.417969 5.199219 18.152344 C 5.304688 17.625 5.53125 16.96875 5.777344 16.296875 C 6.023438 15.625 6.289062 14.9375 6.46875 14.34375 C 6.652344 13.75 6.757812 13.25 6.652344 12.925781 C 6.546875 12.601562 6.167969 12.261719 5.671875 11.886719 C 5.175781 11.511719 4.558594 11.113281 3.960938 10.714844 C 3.367188 10.316406 2.800781 9.917969 2.40625 9.550781 C 2.210938 9.367188 2.058594 9.191406 1.96875 9.03125 C 1.878906 8.875 1.851562 8.734375 1.894531 8.609375 C 1.933594 8.484375 2.035156 8.390625 2.203125 8.3125 C 2.367188 8.234375 2.59375 8.183594 2.863281 8.148438 C 3.394531 8.085938 4.089844 8.097656 4.804688 8.125 C 5.519531 8.152344 6.253906 8.191406 6.875 8.179688 C 7.496094 8.167969 8.003906 8.113281 8.28125 7.914062 C 8.554688 7.714844 8.765625 7.25 8.964844 6.660156 C 9.167969 6.074219 9.355469 5.363281 9.550781 4.675781 C 9.75 3.984375 9.949219 3.320312 10.179688 2.835938 C 10.292969 2.589844 10.410156 2.390625 10.535156 2.257812 C 10.660156 2.125 10.785156 2.054688 10.914062 2.054688 Z M 10.914062 2.054688 "/>
<path style="fill:none;stroke-width:11.338583;stroke-linecap:square;stroke-linejoin:round;stroke:rgb(12.941177%,12.941177%,12.941177%);stroke-opacity:1;stroke-miterlimit:4;" d="M 958.190581 175.215918 C 851.686787 180.369328 811.490194 628.372382 724.912917 691.587536 C 717.011023 697.428067 706.017083 701.550794 692.618218 704.986401 L 958.190581 970.558763 Z M 958.190581 175.215918 " transform="matrix(0.0113699,0,0,0.0113699,0,0)"/>
<path style="fill:none;stroke-width:11.338583;stroke-linecap:square;stroke-linejoin:round;stroke:rgb(12.941177%,12.941177%,12.941177%);stroke-opacity:1;stroke-miterlimit:4;" d="M 961.969748 175.215918 L 961.969748 970.558763 L 1227.54211 704.986401 C 1214.143246 701.550794 1203.149306 697.428067 1195.247411 691.587536 C 1108.326573 628.372382 1068.12998 180.369328 961.969748 175.215918 Z M 961.969748 175.215918 " transform="matrix(0.0113699,0,0,0.0113699,0,0)"/>
<path style="fill:none;stroke-width:11.338583;stroke-linecap:square;stroke-linejoin:round;stroke:rgb(12.941177%,12.941177%,12.941177%);stroke-opacity:1;stroke-miterlimit:4;" d="M 688.15193 706.017083 C 552.101923 736.250417 191.019707 663.415565 161.129933 755.489812 C 160.786372 756.520494 160.442811 757.894737 160.099251 758.925419 L 953.724293 971.589445 Z M 688.15193 706.017083 " transform="matrix(0.0113699,0,0,0.0113699,0,0)"/>
<path style="fill:none;stroke-width:11.338583;stroke-linecap:square;stroke-linejoin:round;stroke:rgb(12.941177%,12.941177%,12.941177%);stroke-opacity:1;stroke-miterlimit:4;" d="M 1231.664837 706.017083 L 966.436036 971.589445 L 1759.717517 758.925419 C 1759.373956 757.894737 1759.373956 756.520494 1759.030395 755.489812 C 1728.797061 663.415565 1367.714845 736.250417 1231.664837 706.017083 Z M 1231.664837 706.017083 " transform="matrix(0.0113699,0,0,0.0113699,0,0)"/>
<path style="fill:none;stroke-width:11.338583;stroke-linecap:square;stroke-linejoin:round;stroke:rgb(12.941177%,12.941177%,12.941177%);stroke-opacity:1;stroke-miterlimit:4;" d="M 159.41213 762.704586 C 146.700386 864.05497 531.144725 1031.712554 577.181849 1132.719378 L 954.067853 975.368612 Z M 159.41213 762.704586 " transform="matrix(0.0113699,0,0,0.0113699,0,0)"/>
<path style="fill:none;stroke-width:11.338583;stroke-linecap:square;stroke-linejoin:round;stroke:rgb(12.941177%,12.941177%,12.941177%);stroke-opacity:1;stroke-miterlimit:4;" d="M 1760.404638 762.704586 L 965.061793 975.712173 L 1337.137949 1169.136804 C 1336.794388 1157.455743 1337.82507 1147.148924 1340.573555 1138.559908 C 1372.868254 1038.583767 1773.459942 866.116333 1760.404638 762.704586 Z M 1760.404638 762.704586 " transform="matrix(0.0113699,0,0,0.0113699,0,0)"/>
<path style="fill:none;stroke-width:11.338583;stroke-linecap:square;stroke-linejoin:round;stroke:rgb(12.941177%,12.941177%,12.941177%);stroke-opacity:1;stroke-miterlimit:4;" d="M 954.754974 979.147779 L 578.556091 1136.154984 C 578.899652 1136.842105 579.243212 1137.872787 579.586773 1138.559908 C 612.912153 1241.284535 378.947368 1631.225843 466.211767 1694.784559 C 466.898888 1695.128119 467.242449 1695.47168 467.586009 1695.815241 Z M 954.754974 979.147779 " transform="matrix(0.0113699,0,0,0.0113699,0,0)"/>
<path style="fill:none;stroke-width:11.338583;stroke-linecap:square;stroke-linejoin:round;stroke:rgb(12.941177%,12.941177%,12.941177%);stroke-opacity:1;stroke-miterlimit:4;" d="M 965.748914 980.178461 L 1452.230758 1695.815241 C 1452.917879 1695.47168 1453.26144 1695.128119 1453.605001 1694.784559 C 1532.967505 1637.066374 1347.101207 1309.99666 1337.48151 1173.603092 Z M 965.748914 980.178461 " transform="matrix(0.0113699,0,0,0.0113699,0,0)"/>
<path style="fill:none;stroke-width:11.338583;stroke-linecap:square;stroke-linejoin:round;stroke:rgb(12.941177%,12.941177%,12.941177%);stroke-opacity:1;stroke-miterlimit:4;" d="M 958.190581 981.209142 L 471.021616 1697.533044 C 563.095863 1745.975092 850.656105 1418.905378 958.190581 1415.126211 Z M 958.190581 981.209142 " transform="matrix(0.0113699,0,0,0.0113699,0,0)"/>
<path style="fill:none;stroke-width:11.338583;stroke-linecap:square;stroke-linejoin:round;stroke:rgb(12.941177%,12.941177%,12.941177%);stroke-opacity:1;stroke-miterlimit:4;" d="M 961.969748 981.209142 L 961.969748 1415.126211 C 1069.504223 1418.905378 1356.720905 1745.975092 1449.138713 1697.533044 Z M 961.969748 981.209142 " transform="matrix(0.0113699,0,0,0.0113699,0,0)"/>
</g>
</svg>
