<svg xmlns="http://www.w3.org/2000/svg" width="22pt" height="22pt" viewBox="0 0 22 22"><defs><linearGradient id="a" gradientUnits="userSpaceOnUse" x1="254" y1="233.5" x2="254" y2="254.667" gradientTransform="matrix(.04297 0 0 .04297 0 9.24)"><stop offset="0" stop-opacity=".275"/><stop offset="1" stop-opacity="0"/></linearGradient><radialGradient id="b" gradientUnits="userSpaceOnUse" cx="450.909" cy="189.579" fx="450.909" fy="189.579" r="21.167" gradientTransform="matrix(0 -.05372 -.09669 0 36.522 43.722)"><stop offset="0" stop-opacity=".314"/><stop offset=".222" stop-opacity=".275"/><stop offset="1" stop-opacity="0"/></radialGradient><radialGradient id="c" gradientUnits="userSpaceOnUse" cx="450.909" cy="189.579" fx="450.909" fy="189.579" r="21.167" gradientTransform="matrix(0 .05372 .09669 0 -14.578 -5.175)"><stop offset="0" stop-opacity=".314"/><stop offset=".222" stop-opacity=".275"/><stop offset="1" stop-opacity="0"/></radialGradient><radialGradient id="d" gradientUnits="userSpaceOnUse" cx="450.909" cy="189.579" fx="450.909" fy="189.579" r="21.167" gradientTransform="matrix(0 -.05372 .09669 0 -14.578 43.722)"><stop offset="0" stop-opacity=".314"/><stop offset=".222" stop-opacity=".275"/><stop offset="1" stop-opacity="0"/></radialGradient><radialGradient id="e" gradientUnits="userSpaceOnUse" cx="450.909" cy="189.579" fx="450.909" fy="189.579" r="21.167" gradientTransform="matrix(0 .05372 -.09669 0 36.522 -5.175)"><stop offset="0" stop-opacity=".314"/><stop offset=".222" stop-opacity=".275"/><stop offset="1" stop-opacity="0"/></radialGradient><linearGradient id="f" gradientUnits="userSpaceOnUse" x1="254" y1="233.5" x2="254" y2="-168.667" gradientTransform="matrix(.04297 0 0 .04297 0 9.24)"><stop offset="0" stop-color="#ff7043"/><stop offset="1" stop-color="#ff8a65"/></linearGradient><linearGradient id="g" gradientUnits="userSpaceOnUse" x1="254" y1="233.5" x2="254" y2="-168.667" gradientTransform="matrix(.04297 0 0 .04297 0 9.24)"><stop offset="0" stop-color="#bdbdbd"/><stop offset="1" stop-color="#e0e0e0"/></linearGradient><linearGradient id="h" gradientUnits="userSpaceOnUse" x1="254" y1="233.5" x2="254" y2="-168.667" gradientTransform="matrix(.04297 0 0 .04297 0 9.24)"><stop offset="0" stop-color="#bdbdbd"/><stop offset="1" stop-color="#e0e0e0"/></linearGradient></defs><path d="M3.523 19.273h14.895v.91H3.523zm0 0" fill="url(#a)"/><path d="M18.418 19.273h1.82v-.91h-1.82zm0 0" fill="url(#b)"/><path d="M3.523 19.273H1.707v.91h1.816zm0 0" fill="url(#c)"/><path d="M3.523 19.273H1.707v-.91h1.816zm0 0" fill="url(#d)"/><path d="M18.418 19.273h1.82v.91h-1.82zm0 0" fill="url(#e)"/><path d="M2.5 1.992h16.828c.379 0 .684.305.684.68V18.59a.682.682 0 0 1-.684.683H2.5a.681.681 0 0 1-.68-.683V2.672a.68.68 0 0 1 .68-.68zm0 0" fill="url(#f)"/><path d="M1.82 18.309v.226c0 .38.305.68.68.68h16.828c.379 0 .684-.3.684-.68v-.226c0 .375-.305.68-.684.68H2.5a.68.68 0 0 1-.68-.68zm0 0" fill-opacity=".235"/><path d="M2.5 2.05a.68.68 0 0 0-.68.68v.23c0-.378.305-.683.68-.683h16.828c.379 0 .684.305.684.684v-.23a.681.681 0 0 0-.684-.68zm0 0" fill="#fff" fill-opacity=".392"/><path d="M2.5 1.926a.749.749 0 0 0-.746.746V18.59c0 .414.336.746.746.746h16.828a.744.744 0 0 0 .746-.746V2.672a.746.746 0 0 0-.746-.746zm0 .129h16.828c.344 0 .617.273.617.617V18.59a.614.614 0 0 1-.617.617H2.5a.614.614 0 0 1-.617-.617V2.672c0-.344.273-.617.617-.617zm0 0" fill="#212121"/><path d="M15.004 5.129c-.008 0-.012 0-.02.004a.471.471 0 0 0-.386.234l-.536.938a4.97 4.97 0 0 0-8.035 2.938H7.36a3.638 3.638 0 0 1 3.555-2.759 3.66 3.66 0 0 1 2.496.965l-.633 1.102a.472.472 0 0 0 .41.707h3.641c.363 0 .59-.39.41-.707l-1.82-3.184a.48.48 0 0 0-.414-.238zm0 0" fill="url(#g)"/><path d="M6.91 16.11c.004 0 .012-.005.016-.005a.475.475 0 0 0 .386-.234l.536-.937a4.95 4.95 0 0 0 3.148 1.125c2.434 0 4.461-1.75 4.89-4.063h-1.331a3.64 3.64 0 0 1-3.559 2.758 3.644 3.644 0 0 1-2.492-.965l.629-1.101a.472.472 0 0 0-.41-.708H5.082c-.36 0-.59.391-.41.707l1.82 3.184a.482.482 0 0 0 .418.238zm0 0" fill="url(#h)"/><path d="M15.004 5.129c-.008 0-.012 0-.02.004a.471.471 0 0 0-.386.234l-.536.938a4.97 4.97 0 0 0-8.035 2.938h.086a4.981 4.981 0 0 1 4.801-3.68c1.195 0 2.293.421 3.149 1.125l.535-.934a.475.475 0 0 1 .386-.238h.02a.472.472 0 0 1 .414.238l1.82 3.184c.008.015.016.027.02.042a.466.466 0 0 0-.02-.43l-1.82-3.183a.48.48 0 0 0-.414-.238zm-1.742 2.578l-.485.844a.478.478 0 0 0-.02.43c.009-.016.013-.028.02-.043l.633-1.106a2.282 2.282 0 0 0-.148-.125zm0 0" fill="#fff"/><path d="M10.914 6.484A3.638 3.638 0 0 0 7.36 9.242H6.133c-.043.149-.078.301-.106.453H7.36a3.643 3.643 0 0 1 3.555-2.758c.887 0 1.691.305 2.32.817l.176-.305a3.66 3.66 0 0 0-2.496-.965zm1.86 2.532c-.172.312.054.699.414.699h3.64c.36 0 .586-.387.414-.7a.472.472 0 0 1-.414.243h-3.64a.472.472 0 0 1-.415-.242zm0 0" fill-opacity=".235"/><path d="M15.004 5.129c-.008 0-.012 0-.02.004a.471.471 0 0 0-.386.234l-.535.938a4.97 4.97 0 0 0-8.035 2.938h1.331a3.638 3.638 0 0 1 3.555-2.759 3.66 3.66 0 0 1 2.496.965l-.633 1.102a.472.472 0 0 0 .41.707h3.641c.363 0 .59-.39.41-.707l-1.82-3.184a.48.48 0 0 0-.414-.238zm0 0" fill="none" stroke-width=".12891" stroke-linejoin="round" stroke="#000"/><path d="M5.082 11.98a.474.474 0 0 0-.434.657c.07-.168.23-.29.434-.29h3.64a.46.46 0 0 1 .434.29.47.47 0 0 0-.433-.657zm9.473.016a3.64 3.64 0 0 1-3.559 2.758 3.655 3.655 0 0 1-2.355-.844l-.137.246a3.644 3.644 0 0 0 2.492.965 3.64 3.64 0 0 0 3.559-2.758h1.25c.03-.12.058-.242.082-.367zm0 0" fill="#f2f2f2"/><path d="M15.777 12.469a4.979 4.979 0 0 1-4.78 3.61 4.95 4.95 0 0 1-3.15-1.126l-.535.934a.47.47 0 0 1-.386.238H6.91a.466.466 0 0 1-.418-.238l-1.82-3.184s0-.004-.004-.004a.472.472 0 0 0 .004.461l1.82 3.184a.482.482 0 0 0 .418.238h.016a.47.47 0 0 0 .386-.238l.536-.938a4.95 4.95 0 0 0 3.148 1.125c2.434 0 4.461-1.75 4.89-4.062zm-6.64.23l-.004.004-.63 1.106c.056.05.114.101.173.148l.457-.797a.472.472 0 0 0 .004-.46zm0 0" fill-opacity=".235"/><path d="M6.91 16.11c.004 0 .012-.005.016-.005a.475.475 0 0 0 .387-.234l.535-.937a4.95 4.95 0 0 0 3.148 1.125c2.434 0 4.461-1.75 4.89-4.063h-1.331a3.64 3.64 0 0 1-3.559 2.758 3.644 3.644 0 0 1-2.492-.965l.629-1.101a.472.472 0 0 0-.41-.708H5.082c-.36 0-.59.391-.41.708l1.82 3.183a.482.482 0 0 0 .418.238zm0 0" fill="none" stroke-width=".12891" stroke-linejoin="round" stroke="#212121"/></svg>